<?xml version="1.0" encoding="UTF-8"?>

<svg version="1.2" baseProfile="tiny" width="36.78mm" height="28.4mm" viewBox="7384 19482 3678 2840" preserveAspectRatio="xMidYMid" fill-rule="evenodd" stroke-width="28.222" stroke-linejoin="round" xmlns="http://www.w3.org/2000/svg" xmlns:xlink="http://www.w3.org/1999/xlink" xml:space="preserve">
 <g visibility="visible" id="Slide_1">
  <g id="DrawingGroup_1">
   <g>
    <path fill="rgb(221,221,221)" stroke="none" d="M 9190,22232 C 9665,22232 10888,21672 11009,21462 11130,21252 10888,21042 10767,21042 10767,21342 9190,21732 9190,22232 Z"/>
    <path fill="none" stroke="rgb(221,221,221)" id="Drawing_1_0" stroke-width="40" stroke-linejoin="round" d="M 9190,22232 C 9665,22232 10888,21672 11009,21462 11130,21252 10888,21042 10767,21042 10767,21342 9190,21732 9190,22232 Z"/>
   </g>
   <g id="DrawingGroup_2">
    <g>
     <defs>
      <linearGradient id="Gradient_1109" gradientUnits="userSpaceOnUse" x1="7402" y1="21391" x2="9104" y2="21393">
       <stop offset="0.1" stop-color="rgb(0,115,188)"/>
       <stop offset="1" stop-color="rgb(127,185,221)"/>
      </linearGradient>
     </defs>
     <path fill="url(#Gradient_1109)" stroke="rgb(255,255,255)" id="Drawing_2_0" stroke-width="40" stroke-linejoin="round" d="M 7404,21322 L 7404,20482 9102,21462 9102,22302 7404,21322 Z"/>
    </g>
    <g>
     <path fill="rgb(0,115,188)" stroke="none" d="M 10511,21488 L 9751,21927 9102,21927 9102,21462 10511,20648 10511,21488 Z"/>
     <path fill="rgb(1,115,188)" stroke="none" d="M 9751,21927 L 9102,22302 9102,21927 9751,21927 Z M 10511,20648 L 10799,20482 10799,21322 10511,21488 10511,20648 Z M 10501,21494 L 9769,21917 9102,21917 9102,21462 10501,20654 10501,21494 Z"/>
     <path fill="rgb(2,116,188)" stroke="none" d="M 9769,21917 L 9102,22302 9102,21917 9769,21917 Z M 10501,20654 L 10799,20482 10799,21322 10501,21494 10501,20654 Z M 10491,21500 L 9786,21907 9102,21907 9102,21462 10491,20660 10491,21500 Z"/>
     <path fill="rgb(4,117,189)" stroke="none" d="M 9786,21907 L 9102,22302 9102,21907 9786,21907 Z M 10491,20660 L 10799,20482 10799,21322 10491,21500 10491,20660 Z M 10481,21506 L 9803,21897 9102,21897 9102,21462 10481,20666 10481,21506 Z"/>
     <path fill="rgb(5,118,189)" stroke="none" d="M 9803,21897 L 9102,22302 9102,21897 9803,21897 Z M 10481,20666 L 10799,20482 10799,21322 10481,21506 10481,20666 Z M 10471,21511 L 9821,21887 9102,21887 9102,21462 10471,20671 10471,21511 Z"/>
     <path fill="rgb(6,118,189)" stroke="none" d="M 9821,21887 L 9102,22302 9102,21887 9821,21887 Z M 10471,20671 L 10799,20482 10799,21322 10471,21511 10471,20671 Z M 10461,21517 L 9838,21877 9102,21877 9102,21462 10461,20677 10461,21517 Z"/>
     <path fill="rgb(8,119,190)" stroke="none" d="M 9838,21877 L 9102,22302 9102,21877 9838,21877 Z M 10461,20677 L 10799,20482 10799,21322 10461,21517 10461,20677 Z M 10451,21523 L 9855,21867 9102,21867 9102,21462 10451,20683 10451,21523 Z"/>
     <path fill="rgb(9,120,190)" stroke="none" d="M 9855,21867 L 9102,22302 9102,21867 9855,21867 Z M 10451,20683 L 10799,20482 10799,21322 10451,21523 10451,20683 Z M 10441,21529 L 9873,21857 9102,21857 9102,21462 10441,20689 10441,21529 Z"/>
     <path fill="rgb(11,121,190)" stroke="none" d="M 9873,21857 L 9102,22302 9102,21857 9873,21857 Z M 10441,20689 L 10799,20482 10799,21322 10441,21529 10441,20689 Z M 10431,21535 L 9890,21847 9102,21847 9102,21462 10431,20695 10431,21535 Z"/>
     <path fill="rgb(12,121,191)" stroke="none" d="M 9890,21847 L 9102,22302 9102,21847 9890,21847 Z M 10431,20695 L 10799,20482 10799,21322 10431,21535 10431,20695 Z M 10421,21540 L 9907,21837 9102,21837 9102,21462 10421,20700 10421,21540 Z"/>
     <path fill="rgb(13,122,191)" stroke="none" d="M 9907,21837 L 9102,22302 9102,21837 9907,21837 Z M 10421,20700 L 10799,20482 10799,21322 10421,21540 10421,20700 Z M 10411,21546 L 9925,21827 9102,21827 9102,21462 10411,20706 10411,21546 Z"/>
     <path fill="rgb(15,123,191)" stroke="none" d="M 9925,21827 L 9102,22302 9102,21827 9925,21827 Z M 10411,20706 L 10799,20482 10799,21322 10411,21546 10411,20706 Z M 10401,21552 L 9942,21817 9102,21817 9102,21462 10401,20712 10401,21552 Z"/>
     <path fill="rgb(16,124,192)" stroke="none" d="M 9942,21817 L 9102,22302 9102,21817 9942,21817 Z M 10401,20712 L 10799,20482 10799,21322 10401,21552 10401,20712 Z M 10391,21558 L 9959,21807 9102,21807 9102,21462 10391,20718 10391,21558 Z"/>
     <path fill="rgb(18,125,192)" stroke="none" d="M 9959,21807 L 9102,22302 9102,21807 9959,21807 Z M 10391,20718 L 10799,20482 10799,21322 10391,21558 10391,20718 Z M 10381,21563 L 9976,21797 9102,21797 9102,21462 10381,20723 10381,21563 Z"/>
     <path fill="rgb(19,125,193)" stroke="none" d="M 9976,21797 L 9102,22302 9102,21797 9976,21797 Z M 10381,20723 L 10799,20482 10799,21322 10381,21563 10381,20723 Z M 10371,21569 L 9994,21787 9102,21787 9102,21462 10371,20729 10371,21569 Z"/>
     <path fill="rgb(20,126,193)" stroke="none" d="M 9994,21787 L 9102,22302 9102,21787 9994,21787 Z M 10371,20729 L 10799,20482 10799,21322 10371,21569 10371,20729 Z M 10361,21575 L 10011,21777 9102,21777 9102,21462 10361,20735 10361,21575 Z"/>
     <path fill="rgb(22,127,193)" stroke="none" d="M 10011,21777 L 9102,22302 9102,21777 10011,21777 Z M 10361,20735 L 10799,20482 10799,21322 10361,21575 10361,20735 Z M 10351,21581 L 10028,21767 9102,21767 9102,21462 10351,20741 10351,21581 Z"/>
     <path fill="rgb(23,128,194)" stroke="none" d="M 10028,21767 L 9102,22302 9102,21767 10028,21767 Z M 10351,20741 L 10799,20482 10799,21322 10351,21581 10351,20741 Z M 10341,21586 L 10046,21757 9102,21757 9102,21462 10341,20746 10341,21586 Z"/>
     <path fill="rgb(25,128,194)" stroke="none" d="M 10046,21757 L 9102,22302 9102,21757 10046,21757 Z M 10341,20746 L 10799,20482 10799,21322 10341,21586 10341,20746 Z M 10331,21592 L 10063,21747 9102,21747 9102,21462 10331,20752 10331,21592 Z"/>
     <path fill="rgb(26,129,194)" stroke="none" d="M 10063,21747 L 9102,22302 9102,21747 10063,21747 Z M 10331,20752 L 10799,20482 10799,21322 10331,21592 10331,20752 Z M 10321,21598 L 10080,21737 9102,21737 9102,21462 10321,20758 10321,21598 Z"/>
     <path fill="rgb(27,130,195)" stroke="none" d="M 10080,21737 L 9102,22302 9102,21737 10080,21737 Z M 10321,20758 L 10799,20482 10799,21322 10321,21598 10321,20758 Z M 10311,21604 L 10098,21727 9102,21727 9102,21462 10311,20764 10311,21604 Z"/>
     <path fill="rgb(29,131,195)" stroke="none" d="M 10098,21727 L 9102,22302 9102,21727 10098,21727 Z M 10311,20764 L 10799,20482 10799,21322 10311,21604 10311,20764 Z M 10301,21610 L 10115,21717 9102,21717 9102,21462 10301,20770 10301,21610 Z"/>
     <path fill="rgb(30,131,195)" stroke="none" d="M 10115,21717 L 9102,22302 9102,21717 10115,21717 Z M 10301,20770 L 10799,20482 10799,21322 10301,21610 10301,20770 Z M 10291,21615 L 10132,21707 9102,21707 9102,21462 10291,20775 10291,21615 Z"/>
     <path fill="rgb(32,132,196)" stroke="none" d="M 10132,21707 L 9102,22302 9102,21707 10132,21707 Z M 10291,20775 L 10799,20482 10799,21322 10291,21615 10291,20775 Z M 10281,21621 L 10150,21697 9102,21697 9102,21462 10281,20781 10281,21621 Z"/>
     <path fill="rgb(33,133,196)" stroke="none" d="M 10150,21697 L 9102,22302 9102,21697 10150,21697 Z M 10281,20781 L 10799,20482 10799,21322 10281,21621 10281,20781 Z M 10271,21627 L 10167,21687 9102,21687 9102,21462 10271,20787 10271,21627 Z"/>
     <path fill="rgb(34,134,197)" stroke="none" d="M 10167,21687 L 9102,22302 9102,21687 10167,21687 Z M 10271,20787 L 10799,20482 10799,21322 10271,21627 10271,20787 Z M 10261,21633 L 10184,21677 9102,21677 9102,21462 10261,20793 10261,21633 Z"/>
     <path fill="rgb(36,135,197)" stroke="none" d="M 10184,21677 L 9102,22302 9102,21677 10184,21677 Z M 10261,20793 L 10799,20482 10799,21322 10261,21633 10261,20793 Z M 10251,21638 L 10202,21667 9102,21667 9102,21462 10251,20798 10251,21638 Z"/>
     <path fill="rgb(37,135,197)" stroke="none" d="M 10202,21667 L 9102,22302 9102,21667 10202,21667 Z M 10251,20798 L 10799,20482 10799,21322 10251,21638 10251,20798 Z M 10241,21644 L 10219,21657 9102,21657 9102,21462 10241,20804 10241,21644 Z"/>
     <path fill="rgb(39,136,198)" stroke="none" d="M 10219,21657 L 9102,22302 9102,21657 10219,21657 Z M 10241,20804 L 10799,20482 10799,21322 10241,21644 10241,20804 Z M 10231,21647 L 9102,21647 9102,21462 10231,20810 10231,21647 Z"/>
     <path fill="rgb(40,137,198)" stroke="none" d="M 10231,21647 L 10231,20810 10799,20482 10799,21322 9102,22302 9102,21647 10231,21647 Z M 10221,21637 L 9102,21637 9102,21462 10221,20816 10221,21637 Z"/>
     <path fill="rgb(41,138,198)" stroke="none" d="M 10221,21637 L 10221,20816 10799,20482 10799,21322 9102,22302 9102,21637 10221,21637 Z M 10211,21627 L 9102,21627 9102,21462 10211,20822 10211,21627 Z"/>
     <path fill="rgb(43,138,199)" stroke="none" d="M 10211,21627 L 10211,20822 10799,20482 10799,21322 9102,22302 9102,21627 10211,21627 Z M 10201,21617 L 9102,21617 9102,21462 10201,20827 10201,21617 Z"/>
     <path fill="rgb(44,139,199)" stroke="none" d="M 10201,21617 L 10201,20827 10799,20482 10799,21322 9102,22302 9102,21617 10201,21617 Z M 10191,21607 L 9102,21607 9102,21462 10191,20833 10191,21607 Z"/>
     <path fill="rgb(46,140,199)" stroke="none" d="M 10191,21607 L 10191,20833 10799,20482 10799,21322 9102,22302 9102,21607 10191,21607 Z M 10181,21597 L 9102,21597 9102,21462 10181,20839 10181,21597 Z"/>
     <path fill="rgb(47,141,200)" stroke="none" d="M 10181,21597 L 10181,20839 10799,20482 10799,21322 9102,22302 9102,21597 10181,21597 Z M 10171,21587 L 9102,21587 9102,21462 10171,20845 10171,21587 Z"/>
     <path fill="rgb(48,141,200)" stroke="none" d="M 10171,21587 L 10171,20845 10799,20482 10799,21322 9102,22302 9102,21587 10171,21587 Z M 10161,21577 L 9102,21577 9102,21462 10161,20850 10161,21577 Z"/>
     <path fill="rgb(50,142,201)" stroke="none" d="M 10161,21577 L 10161,20850 10799,20482 10799,21322 9102,22302 9102,21577 10161,21577 Z M 10151,21567 L 9102,21567 9102,21462 10151,20856 10151,21567 Z"/>
     <path fill="rgb(51,143,201)" stroke="none" d="M 10151,21567 L 10151,20856 10799,20482 10799,21322 9102,22302 9102,21567 10151,21567 Z M 10141,21557 L 9102,21557 9102,21462 10141,20862 10141,21557 Z"/>
     <path fill="rgb(53,144,201)" stroke="none" d="M 10141,21557 L 10141,20862 10799,20482 10799,21322 9102,22302 9102,21557 10141,21557 Z M 10131,21547 L 9102,21547 9102,21462 10131,20868 10131,21547 Z"/>
     <path fill="rgb(54,145,202)" stroke="none" d="M 10131,21547 L 10131,20868 10799,20482 10799,21322 9102,22302 9102,21547 10131,21547 Z M 10121,21537 L 9102,21537 9102,21462 10121,20874 10121,21537 Z"/>
     <path fill="rgb(55,145,202)" stroke="none" d="M 10121,21537 L 10121,20874 10799,20482 10799,21322 9102,22302 9102,21537 10121,21537 Z M 10111,21527 L 9110,21527 9110,21457 10111,20879 10111,21527 Z"/>
     <path fill="rgb(57,146,202)" stroke="none" d="M 9110,21527 L 10111,21527 10111,20879 10799,20482 10799,21322 9102,22302 9102,21462 9110,21457 9110,21527 Z M 10101,21517 L 9120,21517 9120,21452 10101,20885 10101,21517 Z"/>
     <path fill="rgb(58,147,203)" stroke="none" d="M 9120,21517 L 10101,21517 10101,20885 10799,20482 10799,21322 9102,22302 9102,21462 9120,21452 9120,21517 Z M 10091,21507 L 9130,21507 9130,21446 10091,20891 10091,21507 Z"/>
     <path fill="rgb(60,148,203)" stroke="none" d="M 9130,21507 L 10091,21507 10091,20891 10799,20482 10799,21322 9102,22302 9102,21462 9130,21446 9130,21507 Z M 10081,21497 L 9140,21497 9140,21440 10081,20897 10081,21497 Z"/>
     <path fill="rgb(61,148,203)" stroke="none" d="M 9140,21497 L 10081,21497 10081,20897 10799,20482 10799,21322 9102,22302 9102,21462 9140,21440 9140,21497 Z M 10071,21487 L 9150,21487 9150,21434 10071,20902 10071,21487 Z"/>
     <path fill="rgb(62,149,204)" stroke="none" d="M 9150,21487 L 10071,21487 10071,20902 10799,20482 10799,21322 9102,22302 9102,21462 9150,21434 9150,21487 Z M 10061,21477 L 9160,21477 9160,21429 10061,20908 10061,21477 Z"/>
     <path fill="rgb(64,150,204)" stroke="none" d="M 9160,21477 L 10061,21477 10061,20908 10799,20482 10799,21322 9102,22302 9102,21462 9160,21429 9160,21477 Z M 10051,21467 L 9170,21467 9170,21423 10051,20914 10051,21467 Z"/>
     <path fill="rgb(65,151,205)" stroke="none" d="M 9170,21467 L 10051,21467 10051,20914 10799,20482 10799,21322 9102,22302 9102,21462 9170,21423 9170,21467 Z M 10041,21457 L 9180,21457 9180,21417 10041,20920 10041,21457 Z"/>
     <path fill="rgb(66,151,205)" stroke="none" d="M 9180,21457 L 10041,21457 10041,20920 10799,20482 10799,21322 9102,22302 9102,21462 9180,21417 9180,21457 Z M 10031,21447 L 9190,21447 9190,21411 10031,20926 10031,21447 Z"/>
     <path fill="rgb(68,152,205)" stroke="none" d="M 9190,21447 L 10031,21447 10031,20926 10799,20482 10799,21322 9102,22302 9102,21462 9190,21411 9190,21447 Z M 10021,21437 L 9200,21437 9200,21405 10021,20931 10021,21437 Z"/>
     <path fill="rgb(69,153,206)" stroke="none" d="M 9200,21437 L 10021,21437 10021,20931 10799,20482 10799,21322 9102,22302 9102,21462 9200,21405 9200,21437 Z M 10011,21427 L 9210,21427 9210,21400 10011,20937 10011,21427 Z"/>
     <path fill="rgb(71,154,206)" stroke="none" d="M 9210,21427 L 10011,21427 10011,20937 10799,20482 10799,21322 9102,22302 9102,21462 9210,21400 9210,21427 Z M 10001,21417 L 9220,21417 9220,21394 10001,20943 10001,21417 Z"/>
     <path fill="rgb(72,155,206)" stroke="none" d="M 9220,21417 L 10001,21417 10001,20943 10799,20482 10799,21322 9102,22302 9102,21462 9220,21394 9220,21417 Z M 9991,21407 L 9230,21407 9230,21388 9991,20949 9991,21407 Z"/>
     <path fill="rgb(73,155,207)" stroke="none" d="M 9230,21407 L 9991,21407 9991,20949 10799,20482 10799,21322 9102,22302 9102,21462 9230,21388 9230,21407 Z M 9981,21397 L 9240,21397 9240,21382 9981,20954 9981,21397 Z"/>
     <path fill="rgb(75,156,207)" stroke="none" d="M 9240,21397 L 9981,21397 9981,20954 10799,20482 10799,21322 9102,22302 9102,21462 9240,21382 9240,21397 Z M 9971,21387 L 9250,21387 9250,21377 9971,20960 9971,21387 Z"/>
     <path fill="rgb(76,157,207)" stroke="none" d="M 9250,21387 L 9971,21387 9971,20960 10799,20482 10799,21322 9102,22302 9102,21462 9250,21377 9250,21387 Z M 9961,21377 L 9260,21377 9260,21371 9961,20966 9961,21377 Z"/>
     <path fill="rgb(78,158,208)" stroke="none" d="M 9260,21377 L 9961,21377 9961,20966 10799,20482 10799,21322 9102,22302 9102,21462 9260,21371 9260,21377 Z M 9951,21367 L 9270,21367 9270,21365 9951,20972 9951,21367 Z"/>
     <path fill="rgb(79,158,208)" stroke="none" d="M 9270,21367 L 9951,21367 9951,20972 10799,20482 10799,21322 9102,22302 9102,21462 9270,21365 9270,21367 Z M 9941,21357 L 9284,21357 9941,20977 9941,21357 Z"/>
     <path fill="rgb(80,159,209)" stroke="none" d="M 9941,21357 L 9941,20977 10799,20482 10799,21322 9102,22302 9102,21462 9284,21357 9941,21357 Z M 9931,21347 L 9301,21347 9931,20983 9931,21347 Z"/>
     <path fill="rgb(82,160,209)" stroke="none" d="M 9931,21347 L 9931,20983 10799,20482 10799,21322 9102,22302 9102,21462 9301,21347 9931,21347 Z M 9921,21337 L 9318,21337 9921,20989 9921,21337 Z"/>
     <path fill="rgb(83,161,209)" stroke="none" d="M 9921,21337 L 9921,20989 10799,20482 10799,21322 9102,22302 9102,21462 9318,21337 9921,21337 Z M 9910,21326 L 9338,21326 9910,20995 9910,21326 Z"/>
     <path fill="rgb(85,161,210)" stroke="none" d="M 9910,21326 L 9910,20995 10799,20482 10799,21322 9102,22302 9102,21462 9338,21326 9910,21326 Z M 9900,21316 L 9355,21316 9900,21001 9900,21316 Z"/>
     <path fill="rgb(86,162,210)" stroke="none" d="M 9900,21316 L 9900,21001 10799,20482 10799,21322 9102,22302 9102,21462 9355,21316 9900,21316 Z M 9890,21306 L 9372,21306 9890,21007 9890,21306 Z"/>
     <path fill="rgb(87,163,210)" stroke="none" d="M 9890,21306 L 9890,21007 10799,20482 10799,21322 9102,22302 9102,21462 9372,21306 9890,21306 Z M 9880,21296 L 9389,21296 9880,21013 9880,21296 Z"/>
     <path fill="rgb(89,164,211)" stroke="none" d="M 9880,21296 L 9880,21013 10799,20482 10799,21322 9102,22302 9102,21462 9389,21296 9880,21296 Z M 9870,21286 L 9407,21286 9870,21018 9870,21286 Z"/>
     <path fill="rgb(90,165,211)" stroke="none" d="M 9870,21286 L 9870,21018 10799,20482 10799,21322 9102,22302 9102,21462 9407,21286 9870,21286 Z M 9860,21276 L 9424,21276 9860,21024 9860,21276 Z"/>
     <path fill="rgb(92,165,211)" stroke="none" d="M 9860,21276 L 9860,21024 10799,20482 10799,21322 9102,22302 9102,21462 9424,21276 9860,21276 Z M 9850,21266 L 9441,21266 9850,21030 9850,21266 Z"/>
     <path fill="rgb(93,166,212)" stroke="none" d="M 9850,21266 L 9850,21030 10799,20482 10799,21322 9102,22302 9102,21462 9441,21266 9850,21266 Z M 9840,21256 L 9459,21256 9840,21036 9840,21256 Z"/>
     <path fill="rgb(94,167,212)" stroke="none" d="M 9840,21256 L 9840,21036 10799,20482 10799,21322 9102,22302 9102,21462 9459,21256 9840,21256 Z M 9830,21246 L 9476,21246 9830,21042 9830,21246 Z"/>
     <path fill="rgb(96,168,213)" stroke="none" d="M 9830,21246 L 9830,21042 10799,20482 10799,21322 9102,22302 9102,21462 9476,21246 9830,21246 Z M 9820,21236 L 9493,21236 9820,21047 9820,21236 Z"/>
     <path fill="rgb(97,168,213)" stroke="none" d="M 9820,21236 L 9820,21047 10799,20482 10799,21322 9102,22302 9102,21462 9493,21236 9820,21236 Z M 9810,21226 L 9511,21226 9810,21053 9810,21226 Z"/>
     <path fill="rgb(99,169,213)" stroke="none" d="M 9810,21226 L 9810,21053 10799,20482 10799,21322 9102,22302 9102,21462 9511,21226 9810,21226 Z M 9800,21216 L 9528,21216 9800,21059 9800,21216 Z"/>
     <path fill="rgb(100,170,214)" stroke="none" d="M 9800,21216 L 9800,21059 10799,20482 10799,21322 9102,22302 9102,21462 9528,21216 9800,21216 Z M 9790,21206 L 9545,21206 9790,21065 9790,21206 Z"/>
     <path fill="rgb(101,171,214)" stroke="none" d="M 9790,21206 L 9790,21065 10799,20482 10799,21322 9102,22302 9102,21462 9545,21206 9790,21206 Z M 9780,21196 L 9563,21196 9780,21070 9780,21196 Z"/>
     <path fill="rgb(103,171,214)" stroke="none" d="M 9780,21196 L 9780,21070 10799,20482 10799,21322 9102,22302 9102,21462 9563,21196 9780,21196 Z M 9770,21186 L 9580,21186 9770,21076 9770,21186 Z"/>
     <path fill="rgb(104,172,215)" stroke="none" d="M 9770,21186 L 9770,21076 10799,20482 10799,21322 9102,22302 9102,21462 9580,21186 9770,21186 Z M 9760,21176 L 9597,21176 9760,21082 9760,21176 Z"/>
     <path fill="rgb(106,173,215)" stroke="none" d="M 9760,21176 L 9760,21082 10799,20482 10799,21322 9102,22302 9102,21462 9597,21176 9760,21176 Z M 9750,21166 L 9615,21166 9750,21088 9750,21166 Z"/>
     <path fill="rgb(107,174,215)" stroke="none" d="M 9750,21166 L 9750,21088 10799,20482 10799,21322 9102,22302 9102,21462 9615,21166 9750,21166 Z M 9740,21156 L 9632,21156 9740,21094 9740,21156 Z"/>
     <path fill="rgb(108,175,216)" stroke="none" d="M 9740,21156 L 9740,21094 10799,20482 10799,21322 9102,22302 9102,21462 9632,21156 9740,21156 Z M 9730,21146 L 9649,21146 9730,21099 9730,21146 Z"/>
     <path fill="rgb(110,175,216)" stroke="none" d="M 9730,21146 L 9730,21099 10799,20482 10799,21322 9102,22302 9102,21462 9649,21146 9730,21146 Z M 9720,21136 L 9667,21136 9720,21105 9720,21136 Z"/>
     <path fill="rgb(111,176,217)" stroke="none" d="M 9720,21136 L 9720,21105 10799,20482 10799,21322 9102,22302 9102,21462 9667,21136 9720,21136 Z M 9710,21126 L 9684,21126 9710,21111 9710,21126 Z"/>
     <path fill="rgb(113,177,217)" stroke="none" d="M 9710,21126 L 9710,21111 10799,20482 10799,21322 9102,22302 9102,21462 9684,21126 9710,21126 Z"/>
     <path fill="rgb(114,178,217)" stroke="none" d="M 9102,22302 L 9102,21462 10799,20482 10799,21322 9102,22302 Z"/>
     <path fill="rgb(115,178,218)" stroke="none" d="M 9102,22302 L 9102,21462 10799,20482 10799,21322 9102,22302 Z"/>
     <path fill="rgb(117,179,218)" stroke="none" d="M 9102,22302 L 9102,21462 10799,20482 10799,21322 9102,22302 Z"/>
     <path fill="rgb(118,180,218)" stroke="none" d="M 9102,22302 L 9102,21462 10799,20482 10799,21322 9102,22302 Z"/>
     <path fill="rgb(120,181,219)" stroke="none" d="M 9102,22302 L 9102,21462 10799,20482 10799,21322 9102,22302 Z"/>
     <path fill="rgb(121,181,219)" stroke="none" d="M 9102,22302 L 9102,21462 10799,20482 10799,21322 9102,22302 Z"/>
     <path fill="rgb(122,182,219)" stroke="none" d="M 9102,22302 L 9102,21462 10799,20482 10799,21322 9102,22302 Z"/>
     <path fill="rgb(124,183,220)" stroke="none" d="M 9102,22302 L 9102,21462 10799,20482 10799,21322 9102,22302 Z"/>
     <path fill="rgb(127,185,221)" stroke="none" d="M 9102,22302 L 9102,21462 10799,20482 10799,21322 9102,22302 Z"/>
     <path fill="none" stroke="rgb(255,255,255)" id="Drawing_3_0" stroke-width="40" stroke-linejoin="round" d="M 9102,22302 L 9102,21462 10799,20482 10799,21322 9102,22302 Z"/>
    </g>
    <g>
     <defs>
      <linearGradient id="Gradient_1110" gradientUnits="userSpaceOnUse" x1="9101" y1="19502" x2="9101" y2="21462">
       <stop offset="0.1" stop-color="rgb(0,115,188)"/>
       <stop offset="1" stop-color="rgb(127,185,221)"/>
      </linearGradient>
     </defs>
     <path fill="url(#Gradient_1110)" stroke="rgb(255,255,255)" id="Drawing_4_0" stroke-width="40" stroke-linejoin="round" d="M 9102,21462 L 7404,20482 9102,19502 10799,20482 9102,21462 Z"/>
    </g>
    <g>
     <path fill="none" stroke="rgb(0,0,0)" id="Drawing_5_0" stroke-width="40" stroke-linejoin="round" d="M 7404,21322 L 7404,20482 9102,19502 10799,20482 10799,21322 9102,22302 7404,21322 Z"/>
    </g>
    <g>
     <path fill="rgb(255,255,255)" stroke="none" d="M 8496,20202 L 8375,20272 8860,20552 9223,20622 9102,20692 8738,20622 8253,20342 8132,20412 8132,20202 8496,20202 Z"/>
     <path fill="none" stroke="rgb(255,255,255)" id="Drawing_6_0" stroke-width="40" stroke-linejoin="round" d="M 8496,20202 L 8375,20272 8860,20552 9223,20622 9102,20692 8738,20622 8253,20342 8132,20412 8132,20202 8496,20202 Z"/>
    </g>
    <g>
     <path fill="rgb(255,255,255)" stroke="none" d="M 9951,20622 L 10072,20552 10072,20762 9708,20762 9829,20692 9345,20412 8980,20342 9102,20272 9466,20342 9951,20622 Z"/>
     <path fill="none" stroke="rgb(255,255,255)" id="Drawing_7_0" stroke-width="40" stroke-linejoin="round" d="M 9951,20622 L 10072,20552 10072,20762 9708,20762 9829,20692 9345,20412 8980,20342 9102,20272 9466,20342 9951,20622 Z"/>
    </g>
    <g>
     <path fill="rgb(255,255,255)" stroke="none" d="M 8738,20902 L 9224,20622 9344,20412 9465,20482 9345,20692 8859,20972 8980,21042 8617,21042 8617,20832 8738,20902 Z"/>
     <path fill="none" stroke="rgb(255,255,255)" id="Drawing_8_0" stroke-width="40" stroke-linejoin="round" d="M 8738,20902 L 9224,20622 9344,20412 9465,20482 9345,20692 8859,20972 8980,21042 8617,21042 8617,20832 8738,20902 Z"/>
    </g>
    <g>
     <path fill="rgb(255,255,255)" stroke="none" d="M 9343,19992 L 9222,19922 9586,19922 9586,20132 9465,20062 8980,20342 8859,20552 8738,20482 8859,20272 9343,19992 Z"/>
     <path fill="none" stroke="rgb(255,255,255)" id="Drawing_9_0" stroke-width="40" stroke-linejoin="round" d="M 9343,19992 L 9222,19922 9586,19922 9586,20132 9465,20062 8980,20342 8859,20552 8738,20482 8859,20272 9343,19992 Z"/>
    </g>
   </g>
  </g>
 </g>
</svg>