<?xml version="1.0" encoding="UTF-8"?>

<svg version="1.2" baseProfile="tiny" width="26.85mm" height="18mm" viewBox="8513 5601 2685 1800" preserveAspectRatio="xMidYMid" fill-rule="evenodd" stroke-width="28.222" stroke-linejoin="round" xmlns="http://www.w3.org/2000/svg" xmlns:xlink="http://www.w3.org/1999/xlink" xml:space="preserve">
 <g visibility="visible" id="Slide_1">
  <g id="DrawingGroup_1">
   <g>
    <path fill="rgb(221,221,221)" stroke="none" d="M 9484,7381 C 9745,7381 11197,6831 11197,6611 11197,6391 11006,6336 10911,6336 10911,6501 9484,7160 9484,7381 Z"/>
    <path fill="none" stroke="rgb(221,221,221)" id="Drawing_1_0" stroke-linejoin="round" d="M 9484,7381 C 9745,7381 11197,6831 11197,6611 11197,6391 11006,6336 10911,6336 10911,6501 9484,7160 9484,7381 Z"/>
   </g>
   <g id="DrawingGroup_2">
    <g>
     <path fill="rgb(179,179,179)" stroke="none" d="M 10611,6729 L 9742,7232 9484,7232 9484,6996 10611,6344 10611,6729 Z"/>
     <path fill="rgb(180,180,180)" stroke="none" d="M 9742,7232 L 9484,7381 9484,7232 9742,7232 Z M 10611,6344 L 10911,6171 10911,6556 10611,6729 10611,6344 Z M 10597,6738 L 9766,7218 9484,7218 9484,6996 10597,6353 10597,6738 Z"/>
     <path fill="rgb(181,181,181)" stroke="none" d="M 9766,7218 L 9484,7381 9484,7218 9766,7218 Z M 10597,6353 L 10911,6171 10911,6556 10597,6738 10597,6353 Z M 10583,6746 L 9790,7204 9484,7204 9484,6996 10583,6361 10583,6746 Z"/>
     <path fill="rgb(182,182,182)" stroke="none" d="M 9790,7204 L 9484,7381 9484,7204 9790,7204 Z M 10583,6361 L 10911,6171 10911,6556 10583,6746 10583,6361 Z M 10568,6754 L 9816,7189 9484,7189 9484,6996 10568,6369 10568,6754 Z"/>
     <path fill="rgb(183,183,183)" stroke="none" d="M 9816,7189 L 9484,7381 9484,7189 9816,7189 Z M 10568,6369 L 10911,6171 10911,6556 10568,6754 10568,6369 Z M 10554,6762 L 9840,7175 9484,7175 9484,6996 10554,6377 10554,6762 Z"/>
     <path fill="rgb(184,184,184)" stroke="none" d="M 9840,7175 L 9484,7381 9484,7175 9840,7175 Z M 10554,6377 L 10911,6171 10911,6556 10554,6762 10554,6377 Z M 10540,6770 L 9865,7161 9484,7161 9484,6996 10540,6385 10540,6770 Z"/>
     <path fill="rgb(185,185,185)" stroke="none" d="M 9865,7161 L 9484,7381 9484,7161 9865,7161 Z M 10540,6385 L 10911,6171 10911,6556 10540,6770 10540,6385 Z M 10525,6779 L 9890,7146 9484,7146 9484,6996 10525,6394 10525,6779 Z"/>
     <path fill="rgb(186,186,186)" stroke="none" d="M 9890,7146 L 9484,7381 9484,7146 9890,7146 Z M 10525,6394 L 10911,6171 10911,6556 10525,6779 10525,6394 Z M 10511,6787 L 9915,7132 9484,7132 9484,6996 10511,6402 10511,6787 Z"/>
     <path fill="rgb(187,187,187)" stroke="none" d="M 9915,7132 L 9484,7381 9484,7132 9915,7132 Z M 10511,6402 L 10911,6171 10911,6556 10511,6787 10511,6402 Z M 10497,6795 L 9939,7118 9484,7118 9484,6996 10497,6410 10497,6795 Z"/>
     <path fill="rgb(188,188,188)" stroke="none" d="M 9939,7118 L 9484,7381 9484,7118 9939,7118 Z M 10497,6410 L 10911,6171 10911,6556 10497,6795 10497,6410 Z M 10483,6803 L 9963,7104 9484,7104 9484,6996 10483,6418 10483,6803 Z"/>
     <path fill="rgb(189,189,189)" stroke="none" d="M 9963,7104 L 9484,7381 9484,7104 9963,7104 Z M 10483,6418 L 10911,6171 10911,6556 10483,6803 10483,6418 Z M 10468,6812 L 9989,7089 9484,7089 9484,6996 10468,6427 10468,6812 Z"/>
     <path fill="rgb(190,190,190)" stroke="none" d="M 9989,7089 L 9484,7381 9484,7089 9989,7089 Z M 10468,6427 L 10911,6171 10911,6556 10468,6812 10468,6427 Z M 10454,6820 L 10013,7075 9484,7075 9484,6996 10454,6435 10454,6820 Z"/>
     <path fill="rgb(191,191,191)" stroke="none" d="M 10013,7075 L 9484,7381 9484,7075 10013,7075 Z M 10454,6435 L 10911,6171 10911,6556 10454,6820 10454,6435 Z M 10440,6828 L 10038,7061 9484,7061 9484,6996 10440,6443 10440,6828 Z"/>
     <path fill="rgb(192,192,192)" stroke="none" d="M 10038,7061 L 9484,7381 9484,7061 10038,7061 Z M 10440,6443 L 10911,6171 10911,6556 10440,6828 10440,6443 Z M 10425,6837 L 10063,7046 9484,7046 9484,6996 10425,6452 10425,6837 Z"/>
     <path fill="rgb(193,193,193)" stroke="none" d="M 10063,7046 L 9484,7381 9484,7046 10063,7046 Z M 10425,6452 L 10911,6171 10911,6556 10425,6837 10425,6452 Z M 10411,6845 L 10088,7032 9484,7032 9484,6996 10411,6460 10411,6845 Z"/>
     <path fill="rgb(194,194,194)" stroke="none" d="M 10088,7032 L 9484,7381 9484,7032 10088,7032 Z M 10411,6460 L 10911,6171 10911,6556 10411,6845 10411,6460 Z M 10397,6853 L 10112,7018 9484,7018 9484,6996 10397,6468 10397,6853 Z"/>
     <path fill="rgb(195,195,195)" stroke="none" d="M 10112,7018 L 9484,7381 9484,7018 10112,7018 Z M 10397,6468 L 10911,6171 10911,6556 10397,6853 10397,6468 Z M 10382,6862 L 10138,7003 9484,7003 9484,6996 10382,6477 10382,6862 Z"/>
     <path fill="rgb(196,196,196)" stroke="none" d="M 10138,7003 L 9484,7381 9484,7003 10138,7003 Z M 10382,6477 L 10911,6171 10911,6556 10382,6862 10382,6477 Z M 10368,6870 L 10162,6989 9496,6989 10368,6485 10368,6870 Z"/>
     <path fill="rgb(197,197,197)" stroke="none" d="M 10162,6989 L 9484,7381 9484,6996 9496,6989 10162,6989 Z M 10368,6485 L 10911,6171 10911,6556 10368,6870 10368,6485 Z M 10354,6878 L 10186,6975 9520,6975 10354,6493 10354,6878 Z"/>
     <path fill="rgb(198,198,198)" stroke="none" d="M 10186,6975 L 9484,7381 9484,6996 9520,6975 10186,6975 Z M 10354,6493 L 10911,6171 10911,6556 10354,6878 10354,6493 Z M 10340,6886 L 10210,6961 9545,6961 10340,6501 10340,6886 Z"/>
     <path fill="rgb(199,199,199)" stroke="none" d="M 10210,6961 L 9484,7381 9484,6996 9545,6961 10210,6961 Z M 10340,6501 L 10911,6171 10911,6556 10340,6886 10340,6501 Z M 10325,6895 L 10236,6946 9570,6946 10325,6510 10325,6895 Z"/>
     <path fill="rgb(200,200,200)" stroke="none" d="M 10236,6946 L 9484,7381 9484,6996 9570,6946 10236,6946 Z M 10325,6510 L 10911,6171 10911,6556 10325,6895 10325,6510 Z M 10311,6903 L 10261,6932 9595,6932 10311,6518 10311,6903 Z"/>
     <path fill="rgb(201,201,201)" stroke="none" d="M 10261,6932 L 9484,7381 9484,6996 9595,6932 10261,6932 Z M 10311,6518 L 10911,6171 10911,6556 10311,6903 10311,6518 Z M 10297,6911 L 10285,6918 9619,6918 10297,6526 10297,6911 Z"/>
     <path fill="rgb(202,202,202)" stroke="none" d="M 10285,6918 L 9484,7381 9484,6996 9619,6918 10285,6918 Z M 10297,6526 L 10911,6171 10911,6556 10297,6911 10297,6526 Z M 10282,6903 L 9645,6903 10282,6535 10282,6903 Z"/>
     <path fill="rgb(203,203,203)" stroke="none" d="M 10282,6903 L 10282,6535 10911,6171 10911,6556 9484,7381 9484,6996 9645,6903 10282,6903 Z M 10268,6889 L 9669,6889 10268,6543 10268,6889 Z"/>
     <path fill="rgb(204,204,204)" stroke="none" d="M 10268,6889 L 10268,6543 10911,6171 10911,6556 9484,7381 9484,6996 9669,6889 10268,6889 Z M 10254,6875 L 9693,6875 10254,6551 10254,6875 Z"/>
     <path fill="rgb(205,205,205)" stroke="none" d="M 10254,6875 L 10254,6551 10911,6171 10911,6556 9484,7381 9484,6996 9693,6875 10254,6875 Z M 10239,6860 L 9719,6860 10239,6560 10239,6860 Z"/>
     <path fill="rgb(206,206,206)" stroke="none" d="M 10239,6860 L 10239,6560 10911,6171 10911,6556 9484,7381 9484,6996 9719,6860 10239,6860 Z M 10225,6846 L 9743,6846 10225,6568 10225,6846 Z"/>
     <path fill="rgb(207,207,207)" stroke="none" d="M 10225,6846 L 10225,6568 10911,6171 10911,6556 9484,7381 9484,6996 9743,6846 10225,6846 Z M 10211,6832 L 9768,6832 10211,6576 10211,6832 Z"/>
     <path fill="rgb(208,208,208)" stroke="none" d="M 10211,6832 L 10211,6576 10911,6171 10911,6556 9484,7381 9484,6996 9768,6832 10211,6832 Z M 10197,6818 L 9792,6818 10197,6584 10197,6818 Z"/>
     <path fill="rgb(209,209,209)" stroke="none" d="M 10197,6818 L 10197,6584 10911,6171 10911,6556 9484,7381 9484,6996 9792,6818 10197,6818 Z M 10182,6803 L 9818,6803 10182,6592 10182,6803 Z"/>
     <path fill="rgb(210,210,210)" stroke="none" d="M 10182,6803 L 10182,6592 10911,6171 10911,6556 9484,7381 9484,6996 9818,6803 10182,6803 Z M 10168,6789 L 9842,6789 10168,6601 10168,6789 Z"/>
     <path fill="rgb(211,211,211)" stroke="none" d="M 10168,6789 L 10168,6601 10911,6171 10911,6556 9484,7381 9484,6996 9842,6789 10168,6789 Z M 10154,6775 L 9866,6775 10154,6609 10154,6775 Z"/>
     <path fill="rgb(212,212,212)" stroke="none" d="M 10154,6775 L 10154,6609 10911,6171 10911,6556 9484,7381 9484,6996 9866,6775 10154,6775 Z M 10139,6760 L 9892,6760 10139,6617 10139,6760 Z"/>
     <path fill="rgb(213,213,213)" stroke="none" d="M 10139,6760 L 10139,6617 10911,6171 10911,6556 9484,7381 9484,6996 9892,6760 10139,6760 Z M 10125,6746 L 9916,6746 10125,6625 10125,6746 Z"/>
     <path fill="rgb(214,214,214)" stroke="none" d="M 10125,6746 L 10125,6625 10911,6171 10911,6556 9484,7381 9484,6996 9916,6746 10125,6746 Z M 10111,6732 L 9941,6732 10111,6634 10111,6732 Z"/>
     <path fill="rgb(215,215,215)" stroke="none" d="M 10111,6732 L 10111,6634 10911,6171 10911,6556 9484,7381 9484,6996 9941,6732 10111,6732 Z M 10096,6717 L 9967,6717 10096,6642 10096,6717 Z"/>
     <path fill="rgb(216,216,216)" stroke="none" d="M 10096,6717 L 10096,6642 10911,6171 10911,6556 9484,7381 9484,6996 9967,6717 10096,6717 Z M 10082,6703 L 9991,6703 10082,6650 10082,6703 Z"/>
     <path fill="rgb(217,217,217)" stroke="none" d="M 10082,6703 L 10082,6650 10911,6171 10911,6556 9484,7381 9484,6996 9991,6703 10082,6703 Z M 10068,6689 L 10015,6689 10068,6658 10068,6689 Z"/>
     <path fill="rgb(218,218,218)" stroke="none" d="M 10068,6689 L 10068,6658 10911,6171 10911,6556 9484,7381 9484,6996 10015,6689 10068,6689 Z M 10054,6675 L 10039,6675 10054,6666 10054,6675 Z"/>
     <path fill="rgb(219,219,219)" stroke="none" d="M 10054,6675 L 10054,6666 10911,6171 10911,6556 9484,7381 9484,6996 10039,6675 10054,6675 Z"/>
     <path fill="rgb(220,220,220)" stroke="none" d="M 9484,7381 L 9484,6996 10911,6171 10911,6556 9484,7381 Z"/>
     <path fill="rgb(221,221,221)" stroke="none" d="M 9484,7381 L 9484,6996 10911,6171 10911,6556 9484,7381 Z"/>
     <path fill="rgb(222,222,222)" stroke="none" d="M 9484,7381 L 9484,6996 10911,6171 10911,6556 9484,7381 Z"/>
     <path fill="rgb(223,223,223)" stroke="none" d="M 9484,7381 L 9484,6996 10911,6171 10911,6556 9484,7381 Z"/>
     <path fill="rgb(224,224,224)" stroke="none" d="M 9484,7381 L 9484,6996 10911,6171 10911,6556 9484,7381 Z"/>
     <path fill="rgb(225,225,225)" stroke="none" d="M 9484,7381 L 9484,6996 10911,6171 10911,6556 9484,7381 Z"/>
     <path fill="rgb(226,226,226)" stroke="none" d="M 9484,7381 L 9484,6996 10911,6171 10911,6556 9484,7381 Z"/>
     <path fill="rgb(227,227,227)" stroke="none" d="M 9484,7381 L 9484,6996 10911,6171 10911,6556 9484,7381 Z"/>
     <path fill="rgb(229,229,229)" stroke="none" d="M 9484,7381 L 9484,6996 10911,6171 10911,6556 9484,7381 Z"/>
     <path fill="none" stroke="rgb(255,255,255)" id="Drawing_2_0" stroke-width="40" stroke-linejoin="round" d="M 9484,7381 L 9484,6996 10911,6171 10911,6556 9484,7381 Z"/>
    </g>
    <g>
     <defs>
      <linearGradient id="Gradient_1199" gradientUnits="userSpaceOnUse" x1="9722" y1="5621" x2="9722" y2="6996">
       <stop offset="0.1" stop-color="rgb(179,179,179)"/>
       <stop offset="1" stop-color="rgb(229,229,229)"/>
      </linearGradient>
     </defs>
     <path fill="url(#Gradient_1199)" stroke="rgb(255,255,255)" id="Drawing_3_0" stroke-width="40" stroke-linejoin="round" d="M 9484,6996 L 8533,6446 9960,5621 10912,6171 9484,6996 Z"/>
    </g>
    <g>
     <defs>
      <linearGradient id="Gradient_1200" gradientUnits="userSpaceOnUse" x1="8531" y1="6912" x2="9484" y2="6914">
       <stop offset="0.1" stop-color="rgb(179,179,179)"/>
       <stop offset="1" stop-color="rgb(229,229,229)"/>
      </linearGradient>
     </defs>
     <path fill="url(#Gradient_1200)" stroke="rgb(255,255,255)" id="Drawing_4_0" stroke-width="40" stroke-linejoin="round" d="M 8533,6831 L 8533,6446 9484,6996 9484,7381 8533,6831 Z"/>
    </g>
    <g>
     <path fill="none" stroke="rgb(0,0,0)" id="Drawing_5_0" stroke-width="40" stroke-linejoin="round" d="M 8533,6831 L 8533,6446 9960,5621 10912,6171 10912,6556 9484,7381 8533,6831 Z"/>
    </g>
    <g>
     <path fill="rgb(209,97,108)" stroke="none" d="M 9199,7106 L 9199,6941 9294,6996 9294,7161 9199,7106 Z"/>
     <path fill="none" stroke="rgb(127,127,127)" id="Drawing_6_0" stroke-width="40" stroke-linejoin="round" d="M 9199,7106 L 9199,6941 9294,6996 9294,7161 9199,7106 Z"/>
    </g>
   </g>
  </g>
 </g>
</svg>