<?xml version="1.0" encoding="UTF-8"?>

<svg version="1.2" baseProfile="tiny" width="26.85mm" height="18mm" viewBox="5981 13689 2685 1800" preserveAspectRatio="xMidYMid" fill-rule="evenodd" stroke-width="28.222" stroke-linejoin="round" xmlns="http://www.w3.org/2000/svg" xmlns:xlink="http://www.w3.org/1999/xlink" xml:space="preserve">
 <g visibility="visible" id="Slide_1">
  <g id="DrawingGroup_1">
   <g>
    <path fill="rgb(221,221,221)" stroke="none" d="M 6952,15469 C 7213,15469 8665,14919 8665,14699 8665,14479 8474,14424 8379,14424 8379,14589 6952,15248 6952,15469 Z"/>
    <path fill="none" stroke="rgb(221,221,221)" id="Drawing_1_0" stroke-linejoin="round" d="M 6952,15469 C 7213,15469 8665,14919 8665,14699 8665,14479 8474,14424 8379,14424 8379,14589 6952,15248 6952,15469 Z"/>
   </g>
   <g id="DrawingGroup_2">
    <g>
     <path fill="rgb(51,51,51)" stroke="none" d="M 8083,14815 L 7203,15324 6952,15324 6952,15084 8083,14430 8083,14815 Z"/>
     <path fill="rgb(52,52,52)" stroke="none" d="M 7203,15324 L 6952,15469 6952,15324 7203,15324 Z M 8083,14430 L 8379,14259 8379,14644 8083,14815 8083,14430 Z M 8073,14821 L 7220,15314 6952,15314 6952,15084 8073,14436 8073,14821 Z"/>
     <path fill="rgb(53,53,53)" stroke="none" d="M 7220,15314 L 6952,15469 6952,15314 7220,15314 Z M 8073,14436 L 8379,14259 8379,14644 8073,14821 8073,14436 Z M 8063,14827 L 7237,15304 6952,15304 6952,15084 8063,14442 8063,14827 Z"/>
     <path fill="rgb(55,55,55)" stroke="none" d="M 7237,15304 L 6952,15469 6952,15304 7237,15304 Z M 8063,14442 L 8379,14259 8379,14644 8063,14827 8063,14442 Z M 8053,14832 L 7255,15294 6952,15294 6952,15084 8053,14447 8053,14832 Z"/>
     <path fill="rgb(56,56,56)" stroke="none" d="M 7255,15294 L 6952,15469 6952,15294 7255,15294 Z M 8053,14447 L 8379,14259 8379,14644 8053,14832 8053,14447 Z M 8043,14838 L 7272,15284 6952,15284 6952,15084 8043,14453 8043,14838 Z"/>
     <path fill="rgb(58,58,58)" stroke="none" d="M 7272,15284 L 6952,15469 6952,15284 7272,15284 Z M 8043,14453 L 8379,14259 8379,14644 8043,14838 8043,14453 Z M 8033,14844 L 7289,15274 6952,15274 6952,15084 8033,14459 8033,14844 Z"/>
     <path fill="rgb(59,59,59)" stroke="none" d="M 7289,15274 L 6952,15469 6952,15274 7289,15274 Z M 8033,14459 L 8379,14259 8379,14644 8033,14844 8033,14459 Z M 8023,14850 L 7307,15264 6952,15264 6952,15084 8023,14465 8023,14850 Z"/>
     <path fill="rgb(61,61,61)" stroke="none" d="M 7307,15264 L 6952,15469 6952,15264 7307,15264 Z M 8023,14465 L 8379,14259 8379,14644 8023,14850 8023,14465 Z M 8013,14856 L 7324,15254 6952,15254 6952,15084 8013,14471 8013,14856 Z"/>
     <path fill="rgb(62,62,62)" stroke="none" d="M 7324,15254 L 6952,15469 6952,15254 7324,15254 Z M 8013,14471 L 8379,14259 8379,14644 8013,14856 8013,14471 Z M 8003,14861 L 7341,15244 6952,15244 6952,15084 8003,14476 8003,14861 Z"/>
     <path fill="rgb(63,63,63)" stroke="none" d="M 7341,15244 L 6952,15469 6952,15244 7341,15244 Z M 8003,14476 L 8379,14259 8379,14644 8003,14861 8003,14476 Z M 7993,14867 L 7358,15234 6952,15234 6952,15084 7993,14482 7993,14867 Z"/>
     <path fill="rgb(65,65,65)" stroke="none" d="M 7358,15234 L 6952,15469 6952,15234 7358,15234 Z M 7993,14482 L 8379,14259 8379,14644 7993,14867 7993,14482 Z M 7983,14873 L 7376,15224 6952,15224 6952,15084 7983,14488 7983,14873 Z"/>
     <path fill="rgb(66,66,66)" stroke="none" d="M 7376,15224 L 6952,15469 6952,15224 7376,15224 Z M 7983,14488 L 8379,14259 8379,14644 7983,14873 7983,14488 Z M 7973,14879 L 7393,15214 6952,15214 6952,15084 7973,14494 7973,14879 Z"/>
     <path fill="rgb(68,68,68)" stroke="none" d="M 7393,15214 L 6952,15469 6952,15214 7393,15214 Z M 7973,14494 L 8379,14259 8379,14644 7973,14879 7973,14494 Z M 7963,14885 L 7410,15204 6952,15204 6952,15084 7963,14500 7963,14885 Z"/>
     <path fill="rgb(69,69,69)" stroke="none" d="M 7410,15204 L 6952,15469 6952,15204 7410,15204 Z M 7963,14500 L 8379,14259 8379,14644 7963,14885 7963,14500 Z M 7953,14890 L 7428,15194 6952,15194 6952,15084 7953,14505 7953,14890 Z"/>
     <path fill="rgb(71,71,71)" stroke="none" d="M 7428,15194 L 6952,15469 6952,15194 7428,15194 Z M 7953,14505 L 8379,14259 8379,14644 7953,14890 7953,14505 Z M 7942,14897 L 7447,15183 6952,15183 6952,15084 7942,14512 7942,14897 Z"/>
     <path fill="rgb(72,72,72)" stroke="none" d="M 7447,15183 L 6952,15469 6952,15183 7447,15183 Z M 7942,14512 L 8379,14259 8379,14644 7942,14897 7942,14512 Z M 7932,14902 L 7464,15173 6952,15173 6952,15084 7932,14517 7932,14902 Z"/>
     <path fill="rgb(73,73,73)" stroke="none" d="M 7464,15173 L 6952,15469 6952,15173 7464,15173 Z M 7932,14517 L 8379,14259 8379,14644 7932,14902 7932,14517 Z M 7922,14908 L 7481,15163 6952,15163 6952,15084 7922,14523 7922,14908 Z"/>
     <path fill="rgb(75,75,75)" stroke="none" d="M 7481,15163 L 6952,15469 6952,15163 7481,15163 Z M 7922,14523 L 8379,14259 8379,14644 7922,14908 7922,14523 Z M 7912,14914 L 7499,15153 6952,15153 6952,15084 7912,14529 7912,14914 Z"/>
     <path fill="rgb(76,76,76)" stroke="none" d="M 7499,15153 L 6952,15469 6952,15153 7499,15153 Z M 7912,14529 L 8379,14259 8379,14644 7912,14914 7912,14529 Z M 7902,14920 L 7516,15143 6952,15143 6952,15084 7902,14535 7902,14920 Z"/>
     <path fill="rgb(78,78,78)" stroke="none" d="M 7516,15143 L 6952,15469 6952,15143 7516,15143 Z M 7902,14535 L 8379,14259 8379,14644 7902,14920 7902,14535 Z M 7892,14926 L 7533,15133 6952,15133 6952,15084 7892,14541 7892,14926 Z"/>
     <path fill="rgb(79,79,79)" stroke="none" d="M 7533,15133 L 6952,15469 6952,15133 7533,15133 Z M 7892,14541 L 8379,14259 8379,14644 7892,14926 7892,14541 Z M 7882,14931 L 7550,15123 6952,15123 6952,15084 7882,14546 7882,14931 Z"/>
     <path fill="rgb(81,81,81)" stroke="none" d="M 7550,15123 L 6952,15469 6952,15123 7550,15123 Z M 7882,14546 L 8379,14259 8379,14644 7882,14931 7882,14546 Z M 7872,14937 L 7568,15113 6952,15113 6952,15084 7872,14552 7872,14937 Z"/>
     <path fill="rgb(82,82,82)" stroke="none" d="M 7568,15113 L 6952,15469 6952,15113 7568,15113 Z M 7872,14552 L 8379,14259 8379,14644 7872,14937 7872,14552 Z M 7862,14943 L 7585,15103 6952,15103 6952,15084 7862,14558 7862,14943 Z"/>
     <path fill="rgb(84,84,84)" stroke="none" d="M 7585,15103 L 6952,15469 6952,15103 7585,15103 Z M 7862,14558 L 8379,14259 8379,14644 7862,14943 7862,14558 Z M 7852,14949 L 7602,15093 6952,15093 6952,15084 7852,14564 7852,14949 Z"/>
     <path fill="rgb(85,85,85)" stroke="none" d="M 7602,15093 L 6952,15469 6952,15093 7602,15093 Z M 7852,14564 L 8379,14259 8379,14644 7852,14949 7852,14564 Z M 7842,14954 L 7620,15083 6954,15083 7842,14569 7842,14954 Z"/>
     <path fill="rgb(86,86,86)" stroke="none" d="M 7620,15083 L 6952,15469 6952,15084 6954,15083 7620,15083 Z M 7842,14569 L 8379,14259 8379,14644 7842,14954 7842,14569 Z M 7832,14960 L 7637,15073 6971,15073 7832,14575 7832,14960 Z"/>
     <path fill="rgb(88,88,88)" stroke="none" d="M 7637,15073 L 6952,15469 6952,15084 6971,15073 7637,15073 Z M 7832,14575 L 8379,14259 8379,14644 7832,14960 7832,14575 Z M 7822,14966 L 7654,15063 6988,15063 7822,14581 7822,14966 Z"/>
     <path fill="rgb(89,89,89)" stroke="none" d="M 7654,15063 L 6952,15469 6952,15084 6988,15063 7654,15063 Z M 7822,14581 L 8379,14259 8379,14644 7822,14966 7822,14581 Z M 7812,14972 L 7672,15053 7006,15053 7812,14587 7812,14972 Z"/>
     <path fill="rgb(91,91,91)" stroke="none" d="M 7672,15053 L 6952,15469 6952,15084 7006,15053 7672,15053 Z M 7812,14587 L 8379,14259 8379,14644 7812,14972 7812,14587 Z M 7801,14978 L 7691,15042 7025,15042 7801,14593 7801,14978 Z"/>
     <path fill="rgb(92,92,92)" stroke="none" d="M 7691,15042 L 6952,15469 6952,15084 7025,15042 7691,15042 Z M 7801,14593 L 8379,14259 8379,14644 7801,14978 7801,14593 Z M 7791,14984 L 7708,15032 7042,15032 7791,14599 7791,14984 Z"/>
     <path fill="rgb(94,94,94)" stroke="none" d="M 7708,15032 L 6952,15469 6952,15084 7042,15032 7708,15032 Z M 7791,14599 L 8379,14259 8379,14644 7791,14984 7791,14599 Z M 7781,14990 L 7725,15022 7059,15022 7781,14605 7781,14990 Z"/>
     <path fill="rgb(95,95,95)" stroke="none" d="M 7725,15022 L 6952,15469 6952,15084 7059,15022 7725,15022 Z M 7781,14605 L 8379,14259 8379,14644 7781,14990 7781,14605 Z M 7771,14996 L 7742,15012 7077,15012 7771,14611 7771,14996 Z"/>
     <path fill="rgb(96,96,96)" stroke="none" d="M 7742,15012 L 6952,15469 6952,15084 7077,15012 7742,15012 Z M 7771,14611 L 8379,14259 8379,14644 7771,14996 7771,14611 Z M 7761,15001 L 7760,15002 7094,15002 7761,14616 7761,15001 Z"/>
     <path fill="rgb(98,98,98)" stroke="none" d="M 7760,15002 L 6952,15469 6952,15084 7094,15002 7760,15002 Z M 7761,14616 L 8379,14259 8379,14644 7761,15001 7761,14616 Z M 7751,14992 L 7111,14992 7751,14622 7751,14992 Z"/>
     <path fill="rgb(99,99,99)" stroke="none" d="M 7751,14992 L 7751,14622 8379,14259 8379,14644 6952,15469 6952,15084 7111,14992 7751,14992 Z M 7741,14982 L 7128,14982 7741,14628 7741,14982 Z"/>
     <path fill="rgb(101,101,101)" stroke="none" d="M 7741,14982 L 7741,14628 8379,14259 8379,14644 6952,15469 6952,15084 7128,14982 7741,14982 Z M 7731,14972 L 7146,14972 7731,14634 7731,14972 Z"/>
     <path fill="rgb(102,102,102)" stroke="none" d="M 7731,14972 L 7731,14634 8379,14259 8379,14644 6952,15469 6952,15084 7146,14972 7731,14972 Z M 7721,14962 L 7163,14962 7721,14639 7721,14962 Z"/>
     <path fill="rgb(104,104,104)" stroke="none" d="M 7721,14962 L 7721,14639 8379,14259 8379,14644 6952,15469 6952,15084 7163,14962 7721,14962 Z M 7711,14952 L 7180,14952 7711,14645 7711,14952 Z"/>
     <path fill="rgb(105,105,105)" stroke="none" d="M 7711,14952 L 7711,14645 8379,14259 8379,14644 6952,15469 6952,15084 7180,14952 7711,14952 Z M 7701,14942 L 7198,14942 7701,14651 7701,14942 Z"/>
     <path fill="rgb(107,107,107)" stroke="none" d="M 7701,14942 L 7701,14651 8379,14259 8379,14644 6952,15469 6952,15084 7198,14942 7701,14942 Z M 7691,14932 L 7215,14932 7691,14657 7691,14932 Z"/>
     <path fill="rgb(108,108,108)" stroke="none" d="M 7691,14932 L 7691,14657 8379,14259 8379,14644 6952,15469 6952,15084 7215,14932 7691,14932 Z M 7681,14922 L 7232,14922 7681,14663 7681,14922 Z"/>
     <path fill="rgb(109,109,109)" stroke="none" d="M 7681,14922 L 7681,14663 8379,14259 8379,14644 6952,15469 6952,15084 7232,14922 7681,14922 Z M 7671,14912 L 7250,14912 7671,14668 7671,14912 Z"/>
     <path fill="rgb(111,111,111)" stroke="none" d="M 7671,14912 L 7671,14668 8379,14259 8379,14644 6952,15469 6952,15084 7250,14912 7671,14912 Z M 7660,14901 L 7269,14901 7660,14675 7660,14901 Z"/>
     <path fill="rgb(112,112,112)" stroke="none" d="M 7660,14901 L 7660,14675 8379,14259 8379,14644 6952,15469 6952,15084 7269,14901 7660,14901 Z M 7650,14891 L 7286,14891 7650,14680 7650,14891 Z"/>
     <path fill="rgb(114,114,114)" stroke="none" d="M 7650,14891 L 7650,14680 8379,14259 8379,14644 6952,15469 6952,15084 7286,14891 7650,14891 Z M 7640,14881 L 7303,14881 7640,14686 7640,14881 Z"/>
     <path fill="rgb(115,115,115)" stroke="none" d="M 7640,14881 L 7640,14686 8379,14259 8379,14644 6952,15469 6952,15084 7303,14881 7640,14881 Z M 7630,14871 L 7320,14871 7630,14692 7630,14871 Z"/>
     <path fill="rgb(117,117,117)" stroke="none" d="M 7630,14871 L 7630,14692 8379,14259 8379,14644 6952,15469 6952,15084 7320,14871 7630,14871 Z M 7620,14861 L 7338,14861 7620,14698 7620,14861 Z"/>
     <path fill="rgb(118,118,118)" stroke="none" d="M 7620,14861 L 7620,14698 8379,14259 8379,14644 6952,15469 6952,15084 7338,14861 7620,14861 Z M 7610,14851 L 7355,14851 7610,14704 7610,14851 Z"/>
     <path fill="rgb(119,119,119)" stroke="none" d="M 7610,14851 L 7610,14704 8379,14259 8379,14644 6952,15469 6952,15084 7355,14851 7610,14851 Z M 7600,14841 L 7372,14841 7600,14709 7600,14841 Z"/>
     <path fill="rgb(121,121,121)" stroke="none" d="M 7600,14841 L 7600,14709 8379,14259 8379,14644 6952,15469 6952,15084 7372,14841 7600,14841 Z M 7590,14831 L 7390,14831 7590,14715 7590,14831 Z"/>
     <path fill="rgb(122,122,122)" stroke="none" d="M 7590,14831 L 7590,14715 8379,14259 8379,14644 6952,15469 6952,15084 7390,14831 7590,14831 Z M 7580,14821 L 7407,14821 7580,14721 7580,14821 Z"/>
     <path fill="rgb(124,124,124)" stroke="none" d="M 7580,14821 L 7580,14721 8379,14259 8379,14644 6952,15469 6952,15084 7407,14821 7580,14821 Z M 7570,14811 L 7424,14811 7570,14727 7570,14811 Z"/>
     <path fill="rgb(125,125,125)" stroke="none" d="M 7570,14811 L 7570,14727 8379,14259 8379,14644 6952,15469 6952,15084 7424,14811 7570,14811 Z M 7560,14801 L 7442,14801 7560,14732 7560,14801 Z"/>
     <path fill="rgb(127,127,127)" stroke="none" d="M 7560,14801 L 7560,14732 8379,14259 8379,14644 6952,15469 6952,15084 7442,14801 7560,14801 Z M 7550,14791 L 7459,14791 7550,14738 7550,14791 Z"/>
     <path fill="rgb(128,128,128)" stroke="none" d="M 7550,14791 L 7550,14738 8379,14259 8379,14644 6952,15469 6952,15084 7459,14791 7550,14791 Z M 7540,14781 L 7476,14781 7540,14744 7540,14781 Z"/>
     <path fill="rgb(130,130,130)" stroke="none" d="M 7540,14781 L 7540,14744 8379,14259 8379,14644 6952,15469 6952,15084 7476,14781 7540,14781 Z M 7530,14771 L 7493,14771 7530,14750 7530,14771 Z"/>
     <path fill="rgb(131,131,131)" stroke="none" d="M 7530,14771 L 7530,14750 8379,14259 8379,14644 6952,15469 6952,15084 7493,14771 7530,14771 Z M 7519,14760 L 7512,14760 7519,14756 7519,14760 Z"/>
     <path fill="rgb(132,132,132)" stroke="none" d="M 7519,14760 L 7519,14756 8379,14259 8379,14644 6952,15469 6952,15084 7512,14760 7519,14760 Z"/>
     <path fill="rgb(134,134,134)" stroke="none" d="M 6952,15469 L 6952,15084 8379,14259 8379,14644 6952,15469 Z"/>
     <path fill="rgb(135,135,135)" stroke="none" d="M 6952,15469 L 6952,15084 8379,14259 8379,14644 6952,15469 Z"/>
     <path fill="rgb(137,137,137)" stroke="none" d="M 6952,15469 L 6952,15084 8379,14259 8379,14644 6952,15469 Z"/>
     <path fill="rgb(138,138,138)" stroke="none" d="M 6952,15469 L 6952,15084 8379,14259 8379,14644 6952,15469 Z"/>
     <path fill="rgb(140,140,140)" stroke="none" d="M 6952,15469 L 6952,15084 8379,14259 8379,14644 6952,15469 Z"/>
     <path fill="rgb(141,141,141)" stroke="none" d="M 6952,15469 L 6952,15084 8379,14259 8379,14644 6952,15469 Z"/>
     <path fill="rgb(142,142,142)" stroke="none" d="M 6952,15469 L 6952,15084 8379,14259 8379,14644 6952,15469 Z"/>
     <path fill="rgb(144,144,144)" stroke="none" d="M 6952,15469 L 6952,15084 8379,14259 8379,14644 6952,15469 Z"/>
     <path fill="rgb(145,145,145)" stroke="none" d="M 6952,15469 L 6952,15084 8379,14259 8379,14644 6952,15469 Z"/>
     <path fill="rgb(147,147,147)" stroke="none" d="M 6952,15469 L 6952,15084 8379,14259 8379,14644 6952,15469 Z"/>
     <path fill="rgb(148,148,148)" stroke="none" d="M 6952,15469 L 6952,15084 8379,14259 8379,14644 6952,15469 Z"/>
     <path fill="rgb(150,150,150)" stroke="none" d="M 6952,15469 L 6952,15084 8379,14259 8379,14644 6952,15469 Z"/>
     <path fill="rgb(153,153,153)" stroke="none" d="M 6952,15469 L 6952,15084 8379,14259 8379,14644 6952,15469 Z"/>
     <path fill="none" stroke="rgb(178,178,178)" id="Drawing_2_0" stroke-width="40" stroke-linejoin="round" d="M 6952,15469 L 6952,15084 8379,14259 8379,14644 6952,15469 Z"/>
    </g>
    <g>
     <defs>
      <linearGradient id="Gradient_1201" gradientUnits="userSpaceOnUse" x1="7190" y1="13709" x2="7190" y2="15084">
       <stop offset="0.1" stop-color="rgb(51,51,51)"/>
       <stop offset="1" stop-color="rgb(153,153,153)"/>
      </linearGradient>
     </defs>
     <path fill="url(#Gradient_1201)" stroke="rgb(178,178,178)" id="Drawing_3_0" stroke-width="40" stroke-linejoin="round" d="M 6952,15084 L 6001,14534 7428,13709 8380,14259 6952,15084 Z"/>
    </g>
    <g>
     <defs>
      <linearGradient id="Gradient_1202" gradientUnits="userSpaceOnUse" x1="5999" y1="15000" x2="6952" y2="15002">
       <stop offset="0.1" stop-color="rgb(51,51,51)"/>
       <stop offset="1" stop-color="rgb(153,153,153)"/>
      </linearGradient>
     </defs>
     <path fill="url(#Gradient_1202)" stroke="rgb(178,178,178)" id="Drawing_4_0" stroke-width="40" stroke-linejoin="round" d="M 6001,14919 L 6001,14534 6952,15084 6952,15469 6001,14919 Z"/>
    </g>
    <g>
     <path fill="none" stroke="rgb(0,0,0)" id="Drawing_5_0" stroke-width="40" stroke-linejoin="round" d="M 6001,14919 L 6001,14534 7428,13709 8380,14259 8380,14644 6952,15469 6001,14919 Z"/>
    </g>
    <g>
     <path fill="rgb(209,97,108)" stroke="none" d="M 6667,15194 L 6667,15029 6762,15084 6762,15249 6667,15194 Z"/>
     <path fill="none" stroke="rgb(102,102,102)" id="Drawing_6_0" stroke-width="40" stroke-linejoin="round" d="M 6667,15194 L 6667,15029 6762,15084 6762,15249 6667,15194 Z"/>
    </g>
   </g>
  </g>
 </g>
</svg>