<?xml version="1.0" encoding="UTF-8"?>

<svg version="1.2" baseProfile="tiny" width="71.47mm" height="45.2mm" viewBox="3863 19398 7147 4520" preserveAspectRatio="xMidYMid" fill-rule="evenodd" stroke-width="28.222" stroke-linejoin="round" xmlns="http://www.w3.org/2000/svg" xmlns:xlink="http://www.w3.org/1999/xlink" xml:space="preserve">
 <g visibility="visible" id="Slide_1">
  <g id="DrawingGroup_1">
   <g>
    <path fill="rgb(221,221,221)" stroke="none" d="M 8733,23758 C 9076,23758 11009,23176 11009,22814 11009,22453 10102,22092 9759,22092 9759,22309 8733,23469 8733,23758 Z"/>
    <path fill="none" stroke="rgb(221,221,221)" id="Drawing_1_0" stroke-linejoin="round" d="M 8733,23758 C 9076,23758 11009,23176 11009,22814 11009,22453 10102,22092 9759,22092 9759,22309 8733,23469 8733,23758 Z"/>
   </g>
   <g id="DrawingGroup_2">
    <g>
     <defs>
      <linearGradient id="Gradient_1168" gradientUnits="userSpaceOnUse" x1="4130" y1="22124" x2="8512" y2="22132">
       <stop offset="0.1" stop-color="rgb(51,51,51)"/>
       <stop offset="1" stop-color="rgb(153,153,153)"/>
      </linearGradient>
     </defs>
     <path fill="url(#Gradient_1168)" stroke="rgb(178,178,178)" id="Drawing_2_0" stroke-width="40" stroke-linejoin="round" d="M 4133,21225 L 4133,20502 8509,23031 8509,23754 4133,21225 Z"/>
    </g>
    <g>
     <path fill="rgb(51,51,51)" stroke="none" d="M 9998,22893 L 9094,23416 8509,23416 8509,23031 9998,22170 9998,22893 Z"/>
     <path fill="rgb(52,52,52)" stroke="none" d="M 9094,23416 L 8509,23754 8509,23416 9094,23416 Z M 9998,22170 L 10384,21947 10384,22670 9998,22893 9998,22170 Z M 9988,22899 L 9111,23406 8509,23406 8509,23031 9988,22176 9988,22899 Z"/>
     <path fill="rgb(53,53,53)" stroke="none" d="M 9111,23406 L 8509,23754 8509,23406 9111,23406 Z M 9988,22176 L 10384,21947 10384,22670 9988,22899 9988,22176 Z M 9978,22905 L 9128,23396 8509,23396 8509,23031 9978,22182 9978,22905 Z"/>
     <path fill="rgb(54,54,54)" stroke="none" d="M 9128,23396 L 8509,23754 8509,23396 9128,23396 Z M 9978,22182 L 10384,21947 10384,22670 9978,22905 9978,22182 Z M 9968,22911 L 9146,23386 8509,23386 8509,23031 9968,22188 9968,22911 Z"/>
     <path fill="rgb(55,55,55)" stroke="none" d="M 9146,23386 L 8509,23754 8509,23386 9146,23386 Z M 9968,22188 L 10384,21947 10384,22670 9968,22911 9968,22188 Z M 9958,22916 L 9163,23376 8509,23376 8509,23031 9958,22193 9958,22916 Z"/>
     <path fill="rgb(56,56,56)" stroke="none" d="M 9163,23376 L 8509,23754 8509,23376 9163,23376 Z M 9958,22193 L 10384,21947 10384,22670 9958,22916 9958,22193 Z M 9948,22922 L 9180,23366 8509,23366 8509,23031 9948,22199 9948,22922 Z"/>
     <path fill="rgb(57,57,57)" stroke="none" d="M 9180,23366 L 8509,23754 8509,23366 9180,23366 Z M 9948,22199 L 10384,21947 10384,22670 9948,22922 9948,22199 Z M 9938,22928 L 9197,23356 8509,23356 8509,23031 9938,22205 9938,22928 Z"/>
     <path fill="rgb(58,58,58)" stroke="none" d="M 9197,23356 L 8509,23754 8509,23356 9197,23356 Z M 9938,22205 L 10384,21947 10384,22670 9938,22928 9938,22205 Z M 9928,22934 L 9215,23346 8509,23346 8509,23031 9928,22211 9928,22934 Z"/>
     <path fill="rgb(59,59,59)" stroke="none" d="M 9215,23346 L 8509,23754 8509,23346 9215,23346 Z M 9928,22211 L 10384,21947 10384,22670 9928,22934 9928,22211 Z M 9918,22939 L 9232,23336 8509,23336 8509,23031 9918,22216 9918,22939 Z"/>
     <path fill="rgb(60,60,60)" stroke="none" d="M 9232,23336 L 8509,23754 8509,23336 9232,23336 Z M 9918,22216 L 10384,21947 10384,22670 9918,22939 9918,22216 Z M 9908,22945 L 9249,23326 8509,23326 8509,23031 9908,22222 9908,22945 Z"/>
     <path fill="rgb(61,61,61)" stroke="none" d="M 9249,23326 L 8509,23754 8509,23326 9249,23326 Z M 9908,22222 L 10384,21947 10384,22670 9908,22945 9908,22222 Z M 9897,22952 L 9268,23315 8509,23315 8509,23031 9897,22229 9897,22952 Z"/>
     <path fill="rgb(63,63,63)" stroke="none" d="M 9268,23315 L 8509,23754 8509,23315 9268,23315 Z M 9897,22229 L 10384,21947 10384,22670 9897,22952 9897,22229 Z M 9887,22957 L 9286,23305 8509,23305 8509,23031 9887,22234 9887,22957 Z"/>
     <path fill="rgb(64,64,64)" stroke="none" d="M 9286,23305 L 8509,23754 8509,23305 9286,23305 Z M 9887,22234 L 10384,21947 10384,22670 9887,22957 9887,22234 Z M 9877,22963 L 9303,23295 8509,23295 8509,23031 9877,22240 9877,22963 Z"/>
     <path fill="rgb(65,65,65)" stroke="none" d="M 9303,23295 L 8509,23754 8509,23295 9303,23295 Z M 9877,22240 L 10384,21947 10384,22670 9877,22963 9877,22240 Z M 9867,22969 L 9320,23285 8509,23285 8509,23031 9867,22246 9867,22969 Z"/>
     <path fill="rgb(66,66,66)" stroke="none" d="M 9320,23285 L 8509,23754 8509,23285 9320,23285 Z M 9867,22246 L 10384,21947 10384,22670 9867,22969 9867,22246 Z M 9857,22975 L 9338,23275 8509,23275 8509,23031 9857,22252 9857,22975 Z"/>
     <path fill="rgb(67,67,67)" stroke="none" d="M 9338,23275 L 8509,23754 8509,23275 9338,23275 Z M 9857,22252 L 10384,21947 10384,22670 9857,22975 9857,22252 Z M 9847,22980 L 9355,23265 8509,23265 8509,23031 9847,22257 9847,22980 Z"/>
     <path fill="rgb(68,68,68)" stroke="none" d="M 9355,23265 L 8509,23754 8509,23265 9355,23265 Z M 9847,22257 L 10384,21947 10384,22670 9847,22980 9847,22257 Z M 9837,22986 L 9372,23255 8509,23255 8509,23031 9837,22263 9837,22986 Z"/>
     <path fill="rgb(69,69,69)" stroke="none" d="M 9372,23255 L 8509,23754 8509,23255 9372,23255 Z M 9837,22263 L 10384,21947 10384,22670 9837,22986 9837,22263 Z M 9827,22992 L 9389,23245 8509,23245 8509,23031 9827,22269 9827,22992 Z"/>
     <path fill="rgb(70,70,70)" stroke="none" d="M 9389,23245 L 8509,23754 8509,23245 9389,23245 Z M 9827,22269 L 10384,21947 10384,22670 9827,22992 9827,22269 Z M 9817,22998 L 9407,23235 8509,23235 8509,23031 9817,22275 9817,22998 Z"/>
     <path fill="rgb(71,71,71)" stroke="none" d="M 9407,23235 L 8509,23754 8509,23235 9407,23235 Z M 9817,22275 L 10384,21947 10384,22670 9817,22998 9817,22275 Z M 9807,23004 L 9424,23225 8509,23225 8509,23031 9807,22281 9807,23004 Z"/>
     <path fill="rgb(72,72,72)" stroke="none" d="M 9424,23225 L 8509,23754 8509,23225 9424,23225 Z M 9807,22281 L 10384,21947 10384,22670 9807,23004 9807,22281 Z M 9796,23010 L 9443,23214 8509,23214 8509,23031 9796,22287 9796,23010 Z"/>
     <path fill="rgb(74,74,74)" stroke="none" d="M 9443,23214 L 8509,23754 8509,23214 9443,23214 Z M 9796,22287 L 10384,21947 10384,22670 9796,23010 9796,22287 Z M 9786,23016 L 9460,23204 8509,23204 8509,23031 9786,22293 9786,23016 Z"/>
     <path fill="rgb(75,75,75)" stroke="none" d="M 9460,23204 L 8509,23754 8509,23204 9460,23204 Z M 9786,22293 L 10384,21947 10384,22670 9786,23016 9786,22293 Z M 9776,23022 L 9478,23194 8509,23194 8509,23031 9776,22299 9776,23022 Z"/>
     <path fill="rgb(76,76,76)" stroke="none" d="M 9478,23194 L 8509,23754 8509,23194 9478,23194 Z M 9776,22299 L 10384,21947 10384,22670 9776,23022 9776,22299 Z M 9766,23027 L 9495,23184 8509,23184 8509,23031 9766,22304 9766,23027 Z"/>
     <path fill="rgb(77,77,77)" stroke="none" d="M 9495,23184 L 8509,23754 8509,23184 9495,23184 Z M 9766,22304 L 10384,21947 10384,22670 9766,23027 9766,22304 Z M 9756,23033 L 9512,23174 8509,23174 8509,23031 9756,22310 9756,23033 Z"/>
     <path fill="rgb(78,78,78)" stroke="none" d="M 9512,23174 L 8509,23754 8509,23174 9512,23174 Z M 9756,22310 L 10384,21947 10384,22670 9756,23033 9756,22310 Z M 9746,23039 L 9530,23164 8509,23164 8509,23031 9746,22316 9746,23039 Z"/>
     <path fill="rgb(79,79,79)" stroke="none" d="M 9530,23164 L 8509,23754 8509,23164 9530,23164 Z M 9746,22316 L 10384,21947 10384,22670 9746,23039 9746,22316 Z M 9736,23045 L 9547,23154 8509,23154 8509,23031 9736,22322 9736,23045 Z"/>
     <path fill="rgb(80,80,80)" stroke="none" d="M 9547,23154 L 8509,23754 8509,23154 9547,23154 Z M 9736,22322 L 10384,21947 10384,22670 9736,23045 9736,22322 Z M 9726,23050 L 9564,23144 8509,23144 8509,23031 9726,22327 9726,23050 Z"/>
     <path fill="rgb(81,81,81)" stroke="none" d="M 9564,23144 L 8509,23754 8509,23144 9564,23144 Z M 9726,22327 L 10384,21947 10384,22670 9726,23050 9726,22327 Z M 9716,23056 L 9581,23134 8509,23134 8509,23031 9716,22333 9716,23056 Z"/>
     <path fill="rgb(82,82,82)" stroke="none" d="M 9581,23134 L 8509,23754 8509,23134 9581,23134 Z M 9716,22333 L 10384,21947 10384,22670 9716,23056 9716,22333 Z M 9706,23062 L 9599,23124 8509,23124 8509,23031 9706,22339 9706,23062 Z"/>
     <path fill="rgb(83,83,83)" stroke="none" d="M 9599,23124 L 8509,23754 8509,23124 9599,23124 Z M 9706,22339 L 10384,21947 10384,22670 9706,23062 9706,22339 Z M 9696,23068 L 9616,23114 8509,23114 8509,23031 9696,22345 9696,23068 Z"/>
     <path fill="rgb(85,85,85)" stroke="none" d="M 9616,23114 L 8509,23754 8509,23114 9616,23114 Z M 9696,22345 L 10384,21947 10384,22670 9696,23068 9696,22345 Z M 9685,23074 L 9635,23103 8509,23103 8509,23031 9685,22351 9685,23074 Z"/>
     <path fill="rgb(86,86,86)" stroke="none" d="M 9635,23103 L 8509,23754 8509,23103 9635,23103 Z M 9685,22351 L 10384,21947 10384,22670 9685,23074 9685,22351 Z M 9675,23080 L 9652,23093 8509,23093 8509,23031 9675,22357 9675,23080 Z"/>
     <path fill="rgb(87,87,87)" stroke="none" d="M 9652,23093 L 8509,23754 8509,23093 9652,23093 Z M 9675,22357 L 10384,21947 10384,22670 9675,23080 9675,22357 Z M 9665,23083 L 8509,23083 8509,23031 9665,22363 9665,23083 Z"/>
     <path fill="rgb(88,88,88)" stroke="none" d="M 9665,23083 L 9665,22363 10384,21947 10384,22670 8509,23754 8509,23083 9665,23083 Z M 9655,23073 L 8509,23073 8509,23031 9655,22368 9655,23073 Z"/>
     <path fill="rgb(89,89,89)" stroke="none" d="M 9655,23073 L 9655,22368 10384,21947 10384,22670 8509,23754 8509,23073 9655,23073 Z M 9645,23063 L 8509,23063 8509,23031 9645,22374 9645,23063 Z"/>
     <path fill="rgb(90,90,90)" stroke="none" d="M 9645,23063 L 9645,22374 10384,21947 10384,22670 8509,23754 8509,23063 9645,23063 Z M 9635,23053 L 8509,23053 8509,23031 9635,22380 9635,23053 Z"/>
     <path fill="rgb(91,91,91)" stroke="none" d="M 9635,23053 L 9635,22380 10384,21947 10384,22670 8509,23754 8509,23053 9635,23053 Z M 9625,23043 L 8515,23043 8515,23028 9625,22386 9625,23043 Z"/>
     <path fill="rgb(92,92,92)" stroke="none" d="M 8515,23043 L 9625,23043 9625,22386 10384,21947 10384,22670 8509,23754 8509,23031 8515,23028 8515,23043 Z M 9615,23033 L 8525,23033 8525,23022 9615,22392 9615,23033 Z"/>
     <path fill="rgb(93,93,93)" stroke="none" d="M 8525,23033 L 9615,23033 9615,22392 10384,21947 10384,22670 8509,23754 8509,23031 8525,23022 8525,23033 Z M 9605,23023 L 8535,23023 8535,23016 9605,22397 9605,23023 Z"/>
     <path fill="rgb(94,94,94)" stroke="none" d="M 8535,23023 L 9605,23023 9605,22397 10384,21947 10384,22670 8509,23754 8509,23031 8535,23016 8535,23023 Z M 9595,23013 L 8545,23013 8545,23010 9595,22403 9595,23013 Z"/>
     <path fill="rgb(95,95,95)" stroke="none" d="M 8545,23013 L 9595,23013 9595,22403 10384,21947 10384,22670 8509,23754 8509,23031 8545,23010 8545,23013 Z M 9584,23002 L 8559,23002 9584,22410 9584,23002 Z"/>
     <path fill="rgb(97,97,97)" stroke="none" d="M 9584,23002 L 9584,22410 10384,21947 10384,22670 8509,23754 8509,23031 8559,23002 9584,23002 Z M 9574,22992 L 8576,22992 9574,22415 9574,22992 Z"/>
     <path fill="rgb(98,98,98)" stroke="none" d="M 9574,22992 L 9574,22415 10384,21947 10384,22670 8509,23754 8509,23031 8576,22992 9574,22992 Z M 9564,22982 L 8594,22982 9564,22421 9564,22982 Z"/>
     <path fill="rgb(99,99,99)" stroke="none" d="M 9564,22982 L 9564,22421 10384,21947 10384,22670 8509,23754 8509,23031 8594,22982 9564,22982 Z M 9554,22972 L 8611,22972 9554,22427 9554,22972 Z"/>
     <path fill="rgb(100,100,100)" stroke="none" d="M 9554,22972 L 9554,22427 10384,21947 10384,22670 8509,23754 8509,23031 8611,22972 9554,22972 Z M 9544,22962 L 8628,22962 9544,22433 9544,22962 Z"/>
     <path fill="rgb(101,101,101)" stroke="none" d="M 9544,22962 L 9544,22433 10384,21947 10384,22670 8509,23754 8509,23031 8628,22962 9544,22962 Z M 9534,22952 L 8646,22952 9534,22438 9534,22952 Z"/>
     <path fill="rgb(102,102,102)" stroke="none" d="M 9534,22952 L 9534,22438 10384,21947 10384,22670 8509,23754 8509,23031 8646,22952 9534,22952 Z M 9524,22942 L 8663,22942 9524,22444 9524,22942 Z"/>
     <path fill="rgb(103,103,103)" stroke="none" d="M 9524,22942 L 9524,22444 10384,21947 10384,22670 8509,23754 8509,23031 8663,22942 9524,22942 Z M 9514,22932 L 8680,22932 9514,22450 9514,22932 Z"/>
     <path fill="rgb(104,104,104)" stroke="none" d="M 9514,22932 L 9514,22450 10384,21947 10384,22670 8509,23754 8509,23031 8680,22932 9514,22932 Z M 9504,22922 L 8698,22922 9504,22456 9504,22922 Z"/>
     <path fill="rgb(105,105,105)" stroke="none" d="M 9504,22922 L 9504,22456 10384,21947 10384,22670 8509,23754 8509,23031 8698,22922 9504,22922 Z M 9494,22912 L 8715,22912 9494,22462 9494,22912 Z"/>
     <path fill="rgb(106,106,106)" stroke="none" d="M 9494,22912 L 9494,22462 10384,21947 10384,22670 8509,23754 8509,23031 8715,22912 9494,22912 Z M 9483,22901 L 8734,22901 9483,22468 9483,22901 Z"/>
     <path fill="rgb(108,108,108)" stroke="none" d="M 9483,22901 L 9483,22468 10384,21947 10384,22670 8509,23754 8509,23031 8734,22901 9483,22901 Z M 9473,22891 L 8751,22891 9473,22474 9473,22891 Z"/>
     <path fill="rgb(109,109,109)" stroke="none" d="M 9473,22891 L 9473,22474 10384,21947 10384,22670 8509,23754 8509,23031 8751,22891 9473,22891 Z M 9463,22881 L 8768,22881 9463,22479 9463,22881 Z"/>
     <path fill="rgb(110,110,110)" stroke="none" d="M 9463,22881 L 9463,22479 10384,21947 10384,22670 8509,23754 8509,23031 8768,22881 9463,22881 Z M 9453,22871 L 8786,22871 9453,22485 9453,22871 Z"/>
     <path fill="rgb(111,111,111)" stroke="none" d="M 9453,22871 L 9453,22485 10384,21947 10384,22670 8509,23754 8509,23031 8786,22871 9453,22871 Z M 9443,22861 L 8803,22861 9443,22491 9443,22861 Z"/>
     <path fill="rgb(112,112,112)" stroke="none" d="M 9443,22861 L 9443,22491 10384,21947 10384,22670 8509,23754 8509,23031 8803,22861 9443,22861 Z M 9433,22851 L 8820,22851 9433,22497 9433,22851 Z"/>
     <path fill="rgb(113,113,113)" stroke="none" d="M 9433,22851 L 9433,22497 10384,21947 10384,22670 8509,23754 8509,23031 8820,22851 9433,22851 Z M 9423,22841 L 8838,22841 9423,22503 9423,22841 Z"/>
     <path fill="rgb(114,114,114)" stroke="none" d="M 9423,22841 L 9423,22503 10384,21947 10384,22670 8509,23754 8509,23031 8838,22841 9423,22841 Z M 9413,22831 L 8855,22831 9413,22508 9413,22831 Z"/>
     <path fill="rgb(115,115,115)" stroke="none" d="M 9413,22831 L 9413,22508 10384,21947 10384,22670 8509,23754 8509,23031 8855,22831 9413,22831 Z M 9403,22821 L 8872,22821 9403,22514 9403,22821 Z"/>
     <path fill="rgb(116,116,116)" stroke="none" d="M 9403,22821 L 9403,22514 10384,21947 10384,22670 8509,23754 8509,23031 8872,22821 9403,22821 Z M 9393,22811 L 8890,22811 9393,22520 9393,22811 Z"/>
     <path fill="rgb(117,117,117)" stroke="none" d="M 9393,22811 L 9393,22520 10384,21947 10384,22670 8509,23754 8509,23031 8890,22811 9393,22811 Z M 9383,22801 L 8907,22801 9383,22526 9383,22801 Z"/>
     <path fill="rgb(119,119,119)" stroke="none" d="M 9383,22801 L 9383,22526 10384,21947 10384,22670 8509,23754 8509,23031 8907,22801 9383,22801 Z M 9372,22790 L 8926,22790 9372,22532 9372,22790 Z"/>
     <path fill="rgb(120,120,120)" stroke="none" d="M 9372,22790 L 9372,22532 10384,21947 10384,22670 8509,23754 8509,23031 8926,22790 9372,22790 Z M 9362,22780 L 8943,22780 9362,22538 9362,22780 Z"/>
     <path fill="rgb(121,121,121)" stroke="none" d="M 9362,22780 L 9362,22538 10384,21947 10384,22670 8509,23754 8509,23031 8943,22780 9362,22780 Z M 9352,22770 L 8960,22770 9352,22544 9352,22770 Z"/>
     <path fill="rgb(122,122,122)" stroke="none" d="M 9352,22770 L 9352,22544 10384,21947 10384,22670 8509,23754 8509,23031 8960,22770 9352,22770 Z M 9342,22760 L 8978,22760 9342,22549 9342,22760 Z"/>
     <path fill="rgb(123,123,123)" stroke="none" d="M 9342,22760 L 9342,22549 10384,21947 10384,22670 8509,23754 8509,23031 8978,22760 9342,22760 Z M 9332,22750 L 8995,22750 9332,22555 9332,22750 Z"/>
     <path fill="rgb(124,124,124)" stroke="none" d="M 9332,22750 L 9332,22555 10384,21947 10384,22670 8509,23754 8509,23031 8995,22750 9332,22750 Z M 9322,22740 L 9012,22740 9322,22561 9322,22740 Z"/>
     <path fill="rgb(125,125,125)" stroke="none" d="M 9322,22740 L 9322,22561 10384,21947 10384,22670 8509,23754 8509,23031 9012,22740 9322,22740 Z M 9312,22730 L 9030,22730 9312,22567 9312,22730 Z"/>
     <path fill="rgb(126,126,126)" stroke="none" d="M 9312,22730 L 9312,22567 10384,21947 10384,22670 8509,23754 8509,23031 9030,22730 9312,22730 Z M 9302,22720 L 9047,22720 9302,22573 9302,22720 Z"/>
     <path fill="rgb(127,127,127)" stroke="none" d="M 9302,22720 L 9302,22573 10384,21947 10384,22670 8509,23754 8509,23031 9047,22720 9302,22720 Z M 9292,22710 L 9064,22710 9292,22578 9292,22710 Z"/>
     <path fill="rgb(128,128,128)" stroke="none" d="M 9292,22710 L 9292,22578 10384,21947 10384,22670 8509,23754 8509,23031 9064,22710 9292,22710 Z M 9282,22700 L 9082,22700 9282,22584 9282,22700 Z"/>
     <path fill="rgb(129,129,129)" stroke="none" d="M 9282,22700 L 9282,22584 10384,21947 10384,22670 8509,23754 8509,23031 9082,22700 9282,22700 Z M 9271,22689 L 9101,22689 9271,22590 9271,22689 Z"/>
     <path fill="rgb(131,131,131)" stroke="none" d="M 9271,22689 L 9271,22590 10384,21947 10384,22670 8509,23754 8509,23031 9101,22689 9271,22689 Z M 9261,22679 L 9118,22679 9261,22596 9261,22679 Z"/>
     <path fill="rgb(132,132,132)" stroke="none" d="M 9261,22679 L 9261,22596 10384,21947 10384,22670 8509,23754 8509,23031 9118,22679 9261,22679 Z M 9251,22669 L 9135,22669 9251,22602 9251,22669 Z"/>
     <path fill="rgb(133,133,133)" stroke="none" d="M 9251,22669 L 9251,22602 10384,21947 10384,22670 8509,23754 8509,23031 9135,22669 9251,22669 Z M 9241,22659 L 9152,22659 9241,22608 9241,22659 Z"/>
     <path fill="rgb(134,134,134)" stroke="none" d="M 9241,22659 L 9241,22608 10384,21947 10384,22670 8509,23754 8509,23031 9152,22659 9241,22659 Z M 9231,22649 L 9170,22649 9231,22614 9231,22649 Z"/>
     <path fill="rgb(135,135,135)" stroke="none" d="M 9231,22649 L 9231,22614 10384,21947 10384,22670 8509,23754 8509,23031 9170,22649 9231,22649 Z M 9221,22639 L 9187,22639 9221,22619 9221,22639 Z"/>
     <path fill="rgb(136,136,136)" stroke="none" d="M 9221,22639 L 9221,22619 10384,21947 10384,22670 8509,23754 8509,23031 9187,22639 9221,22639 Z M 9211,22629 L 9204,22629 9211,22625 9211,22629 Z"/>
     <path fill="rgb(137,137,137)" stroke="none" d="M 9211,22629 L 9211,22625 10384,21947 10384,22670 8509,23754 8509,23031 9204,22629 9211,22629 Z"/>
     <path fill="rgb(138,138,138)" stroke="none" d="M 8509,23754 L 8509,23031 10384,21947 10384,22670 8509,23754 Z"/>
     <path fill="rgb(139,139,139)" stroke="none" d="M 8509,23754 L 8509,23031 10384,21947 10384,22670 8509,23754 Z"/>
     <path fill="rgb(140,140,140)" stroke="none" d="M 8509,23754 L 8509,23031 10384,21947 10384,22670 8509,23754 Z"/>
     <path fill="rgb(142,142,142)" stroke="none" d="M 8509,23754 L 8509,23031 10384,21947 10384,22670 8509,23754 Z"/>
     <path fill="rgb(143,143,143)" stroke="none" d="M 8509,23754 L 8509,23031 10384,21947 10384,22670 8509,23754 Z"/>
     <path fill="rgb(144,144,144)" stroke="none" d="M 8509,23754 L 8509,23031 10384,21947 10384,22670 8509,23754 Z"/>
     <path fill="rgb(145,145,145)" stroke="none" d="M 8509,23754 L 8509,23031 10384,21947 10384,22670 8509,23754 Z"/>
     <path fill="rgb(146,146,146)" stroke="none" d="M 8509,23754 L 8509,23031 10384,21947 10384,22670 8509,23754 Z"/>
     <path fill="rgb(147,147,147)" stroke="none" d="M 8509,23754 L 8509,23031 10384,21947 10384,22670 8509,23754 Z"/>
     <path fill="rgb(148,148,148)" stroke="none" d="M 8509,23754 L 8509,23031 10384,21947 10384,22670 8509,23754 Z"/>
     <path fill="rgb(149,149,149)" stroke="none" d="M 8509,23754 L 8509,23031 10384,21947 10384,22670 8509,23754 Z"/>
     <path fill="rgb(150,150,150)" stroke="none" d="M 8509,23754 L 8509,23031 10384,21947 10384,22670 8509,23754 Z"/>
     <path fill="rgb(153,153,153)" stroke="none" d="M 8509,23754 L 8509,23031 10384,21947 10384,22670 8509,23754 Z"/>
     <path fill="none" stroke="rgb(178,178,178)" id="Drawing_3_0" stroke-width="40" stroke-linejoin="round" d="M 8509,23754 L 8509,23031 10384,21947 10384,22670 8509,23754 Z"/>
    </g>
    <g>
     <defs>
      <linearGradient id="Gradient_1169" gradientUnits="userSpaceOnUse" x1="7258" y1="19418" x2="7258" y2="23031">
       <stop offset="0.1" stop-color="rgb(51,51,51)"/>
       <stop offset="1" stop-color="rgb(153,153,153)"/>
      </linearGradient>
     </defs>
     <path fill="url(#Gradient_1169)" stroke="rgb(178,178,178)" id="Drawing_4_0" stroke-width="40" stroke-linejoin="round" d="M 8509,23031 L 4133,20502 6008,19418 10384,21947 8509,23031 Z"/>
    </g>
    <g>
     <defs>
      <linearGradient id="Gradient_1170" gradientUnits="userSpaceOnUse" x1="4287" y1="20512" x2="3728" y2="21069">
       <stop offset="0.1" stop-color="rgb(102,102,102)"/>
       <stop offset="1" stop-color="rgb(153,153,153)"/>
      </linearGradient>
     </defs>
     <path fill="url(#Gradient_1170)" stroke="rgb(178,178,178)" id="Drawing_5_0" stroke-width="40" stroke-linejoin="round" d="M 3883,21080 L 3883,20357 4133,20502 4133,21224 3883,21080 Z"/>
    </g>
    <g>
     <defs>
      <linearGradient id="Gradient_1171" gradientUnits="userSpaceOnUse" x1="8633" y1="23898" x2="8635" y2="23031">
       <stop offset="0.1" stop-color="rgb(102,102,102)"/>
       <stop offset="1" stop-color="rgb(153,153,153)"/>
      </linearGradient>
     </defs>
     <path fill="url(#Gradient_1171)" stroke="rgb(178,178,178)" id="Drawing_6_0" stroke-width="40" stroke-linejoin="round" d="M 8509,23754 L 8509,23031 8759,23176 8759,23898 8509,23754 Z"/>
    </g>
    <g>
     <path fill="none" stroke="rgb(0,0,0)" id="Drawing_7_0" stroke-width="40" stroke-linejoin="round" d="M 3883,21080 L 3883,20357 4133,20502 6008,19418 10384,21947 10384,22670 8759,23609 8759,23898 3883,21080 Z"/>
    </g>
    <g>
     <path fill="rgb(178,178,178)" stroke="none" d="M 6258,22237 L 6258,22092 6383,22164 6383,22309 6258,22237 Z"/>
     <path fill="none" stroke="rgb(102,102,102)" id="Drawing_8_0" stroke-width="40" stroke-linejoin="round" d="M 6258,22237 L 6258,22092 6383,22164 6383,22309 6258,22237 Z"/>
    </g>
    <g>
     <path fill="none" stroke="rgb(178,178,178)" id="Drawing_9_0" stroke-width="40" stroke-linejoin="round" d="M 6633,22598 L 6633,22092 8258,23031 8258,23537 6633,22598 Z"/>
    </g>
    <g>
     <path fill="rgb(0,0,0)" stroke="none" d="M 7884,23032 L 7884,22887 8134,23032 8134,23176 7884,23032 Z"/>
     <path fill="none" stroke="rgb(178,178,178)" id="Drawing_10_0" stroke-width="40" stroke-linejoin="round" d="M 7884,23032 L 7884,22887 8134,23032 8134,23176 7884,23032 Z"/>
    </g>
    <g>
     <path fill="rgb(0,0,0)" stroke="none" d="M 7884,23249 L 7884,23104 8134,23249 8134,23393 7884,23249 Z"/>
     <path fill="none" stroke="rgb(178,178,178)" id="Drawing_11_0" stroke-width="40" stroke-linejoin="round" d="M 7884,23249 L 7884,23104 8134,23249 8134,23393 7884,23249 Z"/>
    </g>
    <g>
     <path fill="rgb(0,0,0)" stroke="none" d="M 7509,22815 L 7509,22670 7759,22815 7759,22959 7509,22815 Z"/>
     <path fill="none" stroke="rgb(178,178,178)" id="Drawing_12_0" stroke-width="40" stroke-linejoin="round" d="M 7509,22815 L 7509,22670 7759,22815 7759,22959 7509,22815 Z"/>
    </g>
    <g>
     <path fill="rgb(0,0,0)" stroke="none" d="M 7509,23032 L 7509,22887 7759,23032 7759,23176 7509,23032 Z"/>
     <path fill="none" stroke="rgb(178,178,178)" id="Drawing_13_0" stroke-width="40" stroke-linejoin="round" d="M 7509,23032 L 7509,22887 7759,23032 7759,23176 7509,23032 Z"/>
    </g>
    <g>
     <path fill="rgb(0,0,0)" stroke="none" d="M 6758,22381 L 6758,22236 7008,22381 7008,22525 6758,22381 Z"/>
     <path fill="none" stroke="rgb(178,178,178)" id="Drawing_14_0" stroke-width="40" stroke-linejoin="round" d="M 6758,22381 L 6758,22236 7008,22381 7008,22525 6758,22381 Z"/>
    </g>
    <g>
     <path fill="rgb(0,0,0)" stroke="none" d="M 6758,22598 L 6758,22453 7008,22598 7008,22742 6758,22598 Z"/>
     <path fill="none" stroke="rgb(178,178,178)" id="Drawing_15_0" stroke-width="40" stroke-linejoin="round" d="M 6758,22598 L 6758,22453 7008,22598 7008,22742 6758,22598 Z"/>
    </g>
    <g>
     <path fill="rgb(0,0,0)" stroke="none" d="M 7134,22598 L 7134,22453 7384,22598 7384,22742 7134,22598 Z"/>
     <path fill="none" stroke="rgb(178,178,178)" id="Drawing_16_0" stroke-width="40" stroke-linejoin="round" d="M 7134,22598 L 7134,22453 7384,22598 7384,22742 7134,22598 Z"/>
    </g>
    <g>
     <path fill="rgb(0,0,0)" stroke="none" d="M 7134,22815 L 7134,22670 7384,22815 7384,22959 7134,22815 Z"/>
     <path fill="none" stroke="rgb(178,178,178)" id="Drawing_17_0" stroke-width="40" stroke-linejoin="round" d="M 7134,22815 L 7134,22670 7384,22815 7384,22959 7134,22815 Z"/>
    </g>
    <g>
     <path fill="none" stroke="rgb(178,178,178)" id="Drawing_18_0" stroke-width="40" stroke-linejoin="round" d="M 4383,21297 L 4383,20791 6008,21730 6008,22236 4383,21297 Z"/>
    </g>
    <g>
     <path fill="rgb(0,0,0)" stroke="none" d="M 5633,21731 L 5633,21586 5883,21731 5883,21875 5633,21731 Z"/>
     <path fill="none" stroke="rgb(178,178,178)" id="Drawing_19_0" stroke-width="40" stroke-linejoin="round" d="M 5633,21731 L 5633,21586 5883,21731 5883,21875 5633,21731 Z"/>
    </g>
    <g>
     <path fill="rgb(0,0,0)" stroke="none" d="M 5633,21948 L 5633,21803 5883,21948 5883,22092 5633,21948 Z"/>
     <path fill="none" stroke="rgb(178,178,178)" id="Drawing_20_0" stroke-width="40" stroke-linejoin="round" d="M 5633,21948 L 5633,21803 5883,21948 5883,22092 5633,21948 Z"/>
    </g>
    <g>
     <path fill="rgb(0,0,0)" stroke="none" d="M 5258,21514 L 5258,21369 5508,21514 5508,21658 5258,21514 Z"/>
     <path fill="none" stroke="rgb(178,178,178)" id="Drawing_21_0" stroke-width="40" stroke-linejoin="round" d="M 5258,21514 L 5258,21369 5508,21514 5508,21658 5258,21514 Z"/>
    </g>
    <g>
     <path fill="rgb(0,0,0)" stroke="none" d="M 5258,21731 L 5258,21586 5508,21731 5508,21875 5258,21731 Z"/>
     <path fill="none" stroke="rgb(178,178,178)" id="Drawing_22_0" stroke-width="40" stroke-linejoin="round" d="M 5258,21731 L 5258,21586 5508,21731 5508,21875 5258,21731 Z"/>
    </g>
    <g>
     <path fill="rgb(0,0,0)" stroke="none" d="M 4508,21081 L 4508,20936 4758,21081 4758,21225 4508,21081 Z"/>
     <path fill="none" stroke="rgb(178,178,178)" id="Drawing_23_0" stroke-width="40" stroke-linejoin="round" d="M 4508,21081 L 4508,20936 4758,21081 4758,21225 4508,21081 Z"/>
    </g>
    <g>
     <path fill="rgb(0,0,0)" stroke="none" d="M 4508,21297 L 4508,21152 4758,21297 4758,21441 4508,21297 Z"/>
     <path fill="none" stroke="rgb(178,178,178)" id="Drawing_24_0" stroke-width="40" stroke-linejoin="round" d="M 4508,21297 L 4508,21152 4758,21297 4758,21441 4508,21297 Z"/>
    </g>
    <g>
     <path fill="rgb(0,0,0)" stroke="none" d="M 4883,21297 L 4883,21152 5133,21297 5133,21441 4883,21297 Z"/>
     <path fill="none" stroke="rgb(178,178,178)" id="Drawing_25_0" stroke-width="40" stroke-linejoin="round" d="M 4883,21297 L 4883,21152 5133,21297 5133,21441 4883,21297 Z"/>
    </g>
    <g>
     <path fill="rgb(0,0,0)" stroke="none" d="M 4883,21514 L 4883,21369 5133,21514 5133,21658 4883,21514 Z"/>
     <path fill="none" stroke="rgb(178,178,178)" id="Drawing_26_0" stroke-width="40" stroke-linejoin="round" d="M 4883,21514 L 4883,21369 5133,21514 5133,21658 4883,21514 Z"/>
    </g>
   </g>
  </g>
 </g>
</svg>