<?xml version="1.0" encoding="UTF-8"?>

<svg version="1.2" baseProfile="tiny" width="23.38mm" height="24.9mm" viewBox="4409 6949 2338 2490" preserveAspectRatio="xMidYMid" fill-rule="evenodd" stroke-width="28.222" stroke-linejoin="round" xmlns="http://www.w3.org/2000/svg" xmlns:xlink="http://www.w3.org/1999/xlink" xml:space="preserve">
 <g visibility="visible" id="Slide_1">
  <g id="DrawingGroup_1">
   <g>
    <path fill="rgb(221,221,221)" stroke="none" d="M 6124,9419 C 6279,9419 6746,9288 6746,9158 6746,9027 6520,8929 6407,8929 6407,9027 6124,9288 6124,9419 Z"/>
    <path fill="none" stroke="rgb(221,221,221)" id="Drawing_1_0" stroke-linejoin="round" d="M 6124,9419 C 6279,9419 6746,9288 6746,9158 6746,9027 6520,8929 6407,8929 6407,9027 6124,9288 6124,9419 Z"/>
   </g>
   <g id="DrawingGroup_2">
    <g>
     <defs>
      <linearGradient id="Gradient_1113" gradientUnits="userSpaceOnUse" x1="4427" y1="8274" x2="6127" y2="8276">
       <stop offset="0.1" stop-color="rgb(222,142,150)"/>
       <stop offset="1" stop-color="rgb(248,232,234)"/>
      </linearGradient>
     </defs>
     <path fill="url(#Gradient_1113)" stroke="rgb(255,255,255)" id="Drawing_2_0" stroke-width="40" stroke-linejoin="round" d="M 4429,8439 L 4429,7132 6125,8112 6125,9419 4429,8439 Z"/>
    </g>
    <g>
     <path fill="none" stroke="rgb(255,255,255)" id="Drawing_3_0" stroke-width="40" stroke-linejoin="round" d="M 4429,8112 L 6125,9092"/>
    </g>
    <g>
     <path fill="none" stroke="rgb(255,255,255)" id="Drawing_4_0" stroke-width="40" stroke-linejoin="round" d="M 4429,7786 L 6125,8766"/>
    </g>
    <g>
     <path fill="none" stroke="rgb(255,255,255)" id="Drawing_5_0" stroke-width="40" stroke-linejoin="round" d="M 4429,7459 L 6125,8439"/>
    </g>
    <g>
     <path fill="none" stroke="rgb(255,255,255)" id="Drawing_6_0" stroke-width="40" stroke-linejoin="round" d="M 4994,8112 L 4994,8439"/>
    </g>
    <g>
     <path fill="none" stroke="rgb(255,255,255)" id="Drawing_7_0" stroke-width="40" stroke-linejoin="round" d="M 5559,7786 L 5559,8113"/>
    </g>
    <g>
     <path fill="none" stroke="rgb(255,255,255)" id="Drawing_8_0" stroke-width="40" stroke-linejoin="round" d="M 5842,8929 L 5842,9256"/>
    </g>
    <g>
     <path fill="none" stroke="rgb(255,255,255)" id="Drawing_9_0" stroke-width="40" stroke-linejoin="round" d="M 5277,8602 L 5277,8929"/>
    </g>
    <g>
     <path fill="none" stroke="rgb(255,255,255)" id="Drawing_10_0" stroke-width="40" stroke-linejoin="round" d="M 4712,8276 L 4712,8603"/>
    </g>
    <g>
     <path fill="none" stroke="rgb(255,255,255)" id="Drawing_11_0" stroke-width="40" stroke-linejoin="round" d="M 4994,7459 L 4994,7786"/>
    </g>
    <g>
     <path fill="none" stroke="rgb(255,255,255)" id="Drawing_12_0" stroke-width="40" stroke-linejoin="round" d="M 5277,7949 L 5277,8276"/>
    </g>
    <g>
     <path fill="none" stroke="rgb(255,255,255)" id="Drawing_13_0" stroke-width="40" stroke-linejoin="round" d="M 5559,8439 L 5559,8766"/>
    </g>
    <g>
     <path fill="none" stroke="rgb(255,255,255)" id="Drawing_14_0" stroke-width="40" stroke-linejoin="round" d="M 5842,8276 L 5842,8603"/>
    </g>
    <g>
     <path fill="none" stroke="rgb(255,255,255)" id="Drawing_15_0" stroke-width="40" stroke-linejoin="round" d="M 4712,7622 L 4712,7949"/>
    </g>
    <g>
     <path fill="rgb(222,142,150)" stroke="none" d="M 6124,9114 L 6124,8112 6407,7949 6407,9114 6124,9114 Z"/>
     <path fill="rgb(222,143,151)" stroke="none" d="M 6407,9114 L 6407,9256 6124,9419 6124,9114 6407,9114 Z M 6124,9104 L 6124,8112 6407,7949 6407,9104 6124,9104 Z"/>
     <path fill="rgb(222,144,152)" stroke="none" d="M 6407,9104 L 6407,9256 6124,9419 6124,9104 6407,9104 Z M 6124,9094 L 6124,8112 6407,7949 6407,9094 6124,9094 Z"/>
     <path fill="rgb(223,145,153)" stroke="none" d="M 6407,9094 L 6407,9256 6124,9419 6124,9094 6407,9094 Z M 6124,9084 L 6124,8112 6407,7949 6407,9084 6124,9084 Z"/>
     <path fill="rgb(223,146,154)" stroke="none" d="M 6407,9084 L 6407,9256 6124,9419 6124,9084 6407,9084 Z M 6124,9074 L 6124,8112 6407,7949 6407,9074 6124,9074 Z"/>
     <path fill="rgb(223,148,155)" stroke="none" d="M 6407,9074 L 6407,9256 6124,9419 6124,9074 6407,9074 Z M 6124,9064 L 6124,8112 6407,7949 6407,9064 6124,9064 Z"/>
     <path fill="rgb(224,149,156)" stroke="none" d="M 6407,9064 L 6407,9256 6124,9419 6124,9064 6407,9064 Z M 6124,9054 L 6124,8112 6407,7949 6407,9054 6124,9054 Z"/>
     <path fill="rgb(224,150,158)" stroke="none" d="M 6407,9054 L 6407,9256 6124,9419 6124,9054 6407,9054 Z M 6124,9044 L 6124,8112 6407,7949 6407,9044 6124,9044 Z"/>
     <path fill="rgb(224,151,159)" stroke="none" d="M 6407,9044 L 6407,9256 6124,9419 6124,9044 6407,9044 Z M 6124,9034 L 6124,8112 6407,7949 6407,9034 6124,9034 Z"/>
     <path fill="rgb(225,153,160)" stroke="none" d="M 6407,9034 L 6407,9256 6124,9419 6124,9034 6407,9034 Z M 6124,9024 L 6124,8112 6407,7949 6407,9024 6124,9024 Z"/>
     <path fill="rgb(225,154,161)" stroke="none" d="M 6407,9024 L 6407,9256 6124,9419 6124,9024 6407,9024 Z M 6124,9014 L 6124,8112 6407,7949 6407,9014 6124,9014 Z"/>
     <path fill="rgb(225,155,162)" stroke="none" d="M 6407,9014 L 6407,9256 6124,9419 6124,9014 6407,9014 Z M 6124,9003 L 6124,8112 6407,7949 6407,9003 6124,9003 Z"/>
     <path fill="rgb(226,156,163)" stroke="none" d="M 6407,9003 L 6407,9256 6124,9419 6124,9003 6407,9003 Z M 6124,8993 L 6124,8112 6407,7949 6407,8993 6124,8993 Z"/>
     <path fill="rgb(226,158,164)" stroke="none" d="M 6407,8993 L 6407,9256 6124,9419 6124,8993 6407,8993 Z M 6124,8983 L 6124,8112 6407,7949 6407,8983 6124,8983 Z"/>
     <path fill="rgb(226,159,166)" stroke="none" d="M 6407,8983 L 6407,9256 6124,9419 6124,8983 6407,8983 Z M 6124,8973 L 6124,8112 6407,7949 6407,8973 6124,8973 Z"/>
     <path fill="rgb(227,160,167)" stroke="none" d="M 6407,8973 L 6407,9256 6124,9419 6124,8973 6407,8973 Z M 6124,8963 L 6124,8112 6407,7949 6407,8963 6124,8963 Z"/>
     <path fill="rgb(227,161,168)" stroke="none" d="M 6407,8963 L 6407,9256 6124,9419 6124,8963 6407,8963 Z M 6124,8953 L 6124,8112 6407,7949 6407,8953 6124,8953 Z"/>
     <path fill="rgb(228,162,169)" stroke="none" d="M 6407,8953 L 6407,9256 6124,9419 6124,8953 6407,8953 Z M 6124,8943 L 6124,8112 6407,7949 6407,8943 6124,8943 Z"/>
     <path fill="rgb(228,164,170)" stroke="none" d="M 6407,8943 L 6407,9256 6124,9419 6124,8943 6407,8943 Z M 6124,8933 L 6124,8112 6407,7949 6407,8933 6124,8933 Z"/>
     <path fill="rgb(228,165,171)" stroke="none" d="M 6407,8933 L 6407,9256 6124,9419 6124,8933 6407,8933 Z M 6124,8923 L 6124,8112 6407,7949 6407,8923 6124,8923 Z"/>
     <path fill="rgb(229,166,173)" stroke="none" d="M 6407,8923 L 6407,9256 6124,9419 6124,8923 6407,8923 Z M 6124,8913 L 6124,8112 6407,7949 6407,8913 6124,8913 Z"/>
     <path fill="rgb(229,167,174)" stroke="none" d="M 6407,8913 L 6407,9256 6124,9419 6124,8913 6407,8913 Z M 6124,8903 L 6124,8112 6407,7949 6407,8903 6124,8903 Z"/>
     <path fill="rgb(229,169,175)" stroke="none" d="M 6407,8903 L 6407,9256 6124,9419 6124,8903 6407,8903 Z M 6124,8892 L 6124,8112 6407,7949 6407,8892 6124,8892 Z"/>
     <path fill="rgb(230,170,176)" stroke="none" d="M 6407,8892 L 6407,9256 6124,9419 6124,8892 6407,8892 Z M 6124,8882 L 6124,8112 6407,7949 6407,8882 6124,8882 Z"/>
     <path fill="rgb(230,171,177)" stroke="none" d="M 6407,8882 L 6407,9256 6124,9419 6124,8882 6407,8882 Z M 6124,8872 L 6124,8112 6407,7949 6407,8872 6124,8872 Z"/>
     <path fill="rgb(230,172,178)" stroke="none" d="M 6407,8872 L 6407,9256 6124,9419 6124,8872 6407,8872 Z M 6124,8862 L 6124,8112 6407,7949 6407,8862 6124,8862 Z"/>
     <path fill="rgb(231,174,179)" stroke="none" d="M 6407,8862 L 6407,9256 6124,9419 6124,8862 6407,8862 Z M 6124,8852 L 6124,8112 6407,7949 6407,8852 6124,8852 Z"/>
     <path fill="rgb(231,175,181)" stroke="none" d="M 6407,8852 L 6407,9256 6124,9419 6124,8852 6407,8852 Z M 6124,8842 L 6124,8112 6407,7949 6407,8842 6124,8842 Z"/>
     <path fill="rgb(231,176,182)" stroke="none" d="M 6407,8842 L 6407,9256 6124,9419 6124,8842 6407,8842 Z M 6124,8832 L 6124,8112 6407,7949 6407,8832 6124,8832 Z"/>
     <path fill="rgb(232,177,183)" stroke="none" d="M 6407,8832 L 6407,9256 6124,9419 6124,8832 6407,8832 Z M 6407,7955 L 6407,8822 6124,8822 6124,8112 6397,7955 6407,7955 Z"/>
     <path fill="rgb(232,178,184)" stroke="none" d="M 6407,8822 L 6407,9256 6124,9419 6124,8822 6407,8822 Z M 6397,7955 L 6407,7949 6407,7955 6397,7955 Z M 6407,7965 L 6407,8812 6124,8812 6124,8112 6379,7965 6407,7965 Z"/>
     <path fill="rgb(233,180,185)" stroke="none" d="M 6407,8812 L 6407,9256 6124,9419 6124,8812 6407,8812 Z M 6379,7965 L 6407,7949 6407,7965 6379,7965 Z M 6407,7975 L 6407,8802 6124,8802 6124,8112 6362,7975 6407,7975 Z"/>
     <path fill="rgb(233,181,186)" stroke="none" d="M 6407,8802 L 6407,9256 6124,9419 6124,8802 6407,8802 Z M 6362,7975 L 6407,7949 6407,7975 6362,7975 Z M 6407,7985 L 6407,8792 6124,8792 6124,8112 6344,7985 6407,7985 Z"/>
     <path fill="rgb(233,182,187)" stroke="none" d="M 6407,8792 L 6407,9256 6124,9419 6124,8792 6407,8792 Z M 6344,7985 L 6407,7949 6407,7985 6344,7985 Z M 6407,7996 L 6407,8781 6124,8781 6124,8112 6325,7996 6407,7996 Z"/>
     <path fill="rgb(234,183,189)" stroke="none" d="M 6407,8781 L 6407,9256 6124,9419 6124,8781 6407,8781 Z M 6325,7996 L 6407,7949 6407,7996 6325,7996 Z M 6407,8006 L 6407,8771 6124,8771 6124,8112 6308,8006 6407,8006 Z"/>
     <path fill="rgb(234,185,190)" stroke="none" d="M 6407,8771 L 6407,9256 6124,9419 6124,8771 6407,8771 Z M 6308,8006 L 6407,7949 6407,8006 6308,8006 Z M 6407,8016 L 6407,8761 6124,8761 6124,8112 6291,8016 6407,8016 Z"/>
     <path fill="rgb(234,186,191)" stroke="none" d="M 6407,8761 L 6407,9256 6124,9419 6124,8761 6407,8761 Z M 6291,8016 L 6407,7949 6407,8016 6291,8016 Z M 6407,8026 L 6407,8751 6124,8751 6124,8112 6273,8026 6407,8026 Z"/>
     <path fill="rgb(235,187,192)" stroke="none" d="M 6407,8751 L 6407,9256 6124,9419 6124,8751 6407,8751 Z M 6273,8026 L 6407,7949 6407,8026 6273,8026 Z M 6407,8036 L 6407,8741 6124,8741 6124,8112 6256,8036 6407,8036 Z"/>
     <path fill="rgb(235,188,193)" stroke="none" d="M 6407,8741 L 6407,9256 6124,9419 6124,8741 6407,8741 Z M 6256,8036 L 6407,7949 6407,8036 6256,8036 Z M 6407,8046 L 6407,8731 6124,8731 6124,8112 6239,8046 6407,8046 Z"/>
     <path fill="rgb(235,190,194)" stroke="none" d="M 6407,8731 L 6407,9256 6124,9419 6124,8731 6407,8731 Z M 6239,8046 L 6407,7949 6407,8046 6239,8046 Z M 6407,8056 L 6407,8721 6124,8721 6124,8112 6221,8056 6407,8056 Z"/>
     <path fill="rgb(236,191,196)" stroke="none" d="M 6407,8721 L 6407,9256 6124,9419 6124,8721 6407,8721 Z M 6221,8056 L 6407,7949 6407,8056 6221,8056 Z M 6407,8066 L 6407,8711 6124,8711 6124,8112 6204,8066 6407,8066 Z"/>
     <path fill="rgb(236,192,197)" stroke="none" d="M 6407,8711 L 6407,9256 6124,9419 6124,8711 6407,8711 Z M 6204,8066 L 6407,7949 6407,8066 6204,8066 Z M 6407,8076 L 6407,8701 6124,8701 6124,8112 6187,8076 6407,8076 Z"/>
     <path fill="rgb(236,193,198)" stroke="none" d="M 6407,8701 L 6407,9256 6124,9419 6124,8701 6407,8701 Z M 6187,8076 L 6407,7949 6407,8076 6187,8076 Z M 6407,8086 L 6407,8691 6124,8691 6124,8112 6169,8086 6407,8086 Z"/>
     <path fill="rgb(237,195,199)" stroke="none" d="M 6407,8691 L 6407,9256 6124,9419 6124,8691 6407,8691 Z M 6169,8086 L 6407,7949 6407,8086 6169,8086 Z M 6407,8096 L 6407,8681 6124,8681 6124,8112 6152,8096 6407,8096 Z"/>
     <path fill="rgb(237,196,200)" stroke="none" d="M 6407,8681 L 6407,9256 6124,9419 6124,8681 6407,8681 Z M 6152,8096 L 6407,7949 6407,8096 6152,8096 Z M 6407,8107 L 6407,8670 6124,8670 6124,8112 6133,8107 6407,8107 Z"/>
     <path fill="rgb(238,197,201)" stroke="none" d="M 6407,8670 L 6407,9256 6124,9419 6124,8670 6407,8670 Z M 6133,8107 L 6407,7949 6407,8107 6133,8107 Z M 6407,8117 L 6407,8660 6124,8660 6124,8117 6407,8117 Z"/>
     <path fill="rgb(238,198,202)" stroke="none" d="M 6407,8660 L 6407,9256 6124,9419 6124,8660 6407,8660 Z M 6124,8117 L 6124,8112 6407,7949 6407,8117 6124,8117 Z M 6407,8127 L 6407,8650 6124,8650 6124,8127 6407,8127 Z"/>
     <path fill="rgb(238,199,204)" stroke="none" d="M 6407,8650 L 6407,9256 6124,9419 6124,8650 6407,8650 Z M 6124,8127 L 6124,8112 6407,7949 6407,8127 6124,8127 Z M 6407,8137 L 6407,8640 6124,8640 6124,8137 6407,8137 Z"/>
     <path fill="rgb(239,201,205)" stroke="none" d="M 6407,8640 L 6407,9256 6124,9419 6124,8640 6407,8640 Z M 6124,8137 L 6124,8112 6407,7949 6407,8137 6124,8137 Z M 6407,8147 L 6407,8630 6124,8630 6124,8147 6407,8147 Z"/>
     <path fill="rgb(239,202,206)" stroke="none" d="M 6407,8630 L 6407,9256 6124,9419 6124,8630 6407,8630 Z M 6124,8147 L 6124,8112 6407,7949 6407,8147 6124,8147 Z M 6407,8157 L 6407,8620 6124,8620 6124,8157 6407,8157 Z"/>
     <path fill="rgb(239,203,207)" stroke="none" d="M 6407,8620 L 6407,9256 6124,9419 6124,8620 6407,8620 Z M 6124,8157 L 6124,8112 6407,7949 6407,8157 6124,8157 Z M 6407,8167 L 6407,8610 6124,8610 6124,8167 6407,8167 Z"/>
     <path fill="rgb(240,204,208)" stroke="none" d="M 6407,8610 L 6407,9256 6124,9419 6124,8610 6407,8610 Z M 6124,8167 L 6124,8112 6407,7949 6407,8167 6124,8167 Z M 6407,8177 L 6407,8600 6124,8600 6124,8177 6407,8177 Z"/>
     <path fill="rgb(240,206,209)" stroke="none" d="M 6407,8600 L 6407,9256 6124,9419 6124,8600 6407,8600 Z M 6124,8177 L 6124,8112 6407,7949 6407,8177 6124,8177 Z M 6407,8187 L 6407,8590 6124,8590 6124,8187 6407,8187 Z"/>
     <path fill="rgb(240,207,210)" stroke="none" d="M 6407,8590 L 6407,9256 6124,9419 6124,8590 6407,8590 Z M 6124,8187 L 6124,8112 6407,7949 6407,8187 6124,8187 Z M 6399,8197 L 6399,8580 6124,8580 6124,8197 6399,8197 Z"/>
     <path fill="rgb(241,208,212)" stroke="none" d="M 6399,8580 L 6399,8197 6124,8197 6124,8112 6407,7949 6407,9256 6124,9419 6124,8580 6399,8580 Z M 6389,8207 L 6389,8570 6124,8570 6124,8207 6389,8207 Z"/>
     <path fill="rgb(241,209,213)" stroke="none" d="M 6389,8570 L 6389,8207 6124,8207 6124,8112 6407,7949 6407,9256 6124,9419 6124,8570 6389,8570 Z M 6379,8217 L 6379,8560 6124,8560 6124,8217 6379,8217 Z"/>
     <path fill="rgb(241,211,214)" stroke="none" d="M 6379,8560 L 6379,8217 6124,8217 6124,8112 6407,7949 6407,9256 6124,9419 6124,8560 6379,8560 Z M 6368,8228 L 6368,8549 6124,8549 6124,8228 6368,8228 Z"/>
     <path fill="rgb(242,212,215)" stroke="none" d="M 6368,8549 L 6368,8228 6124,8228 6124,8112 6407,7949 6407,9256 6124,9419 6124,8549 6368,8549 Z M 6358,8238 L 6358,8539 6124,8539 6124,8238 6358,8238 Z"/>
     <path fill="rgb(242,213,216)" stroke="none" d="M 6358,8539 L 6358,8238 6124,8238 6124,8112 6407,7949 6407,9256 6124,9419 6124,8539 6358,8539 Z M 6348,8248 L 6348,8529 6124,8529 6124,8248 6348,8248 Z"/>
     <path fill="rgb(243,214,217)" stroke="none" d="M 6348,8529 L 6348,8248 6124,8248 6124,8112 6407,7949 6407,9256 6124,9419 6124,8529 6348,8529 Z M 6338,8258 L 6338,8519 6124,8519 6124,8258 6338,8258 Z"/>
     <path fill="rgb(243,215,219)" stroke="none" d="M 6338,8519 L 6338,8258 6124,8258 6124,8112 6407,7949 6407,9256 6124,9419 6124,8519 6338,8519 Z M 6328,8268 L 6328,8509 6124,8509 6124,8268 6328,8268 Z"/>
     <path fill="rgb(243,217,220)" stroke="none" d="M 6328,8509 L 6328,8268 6124,8268 6124,8112 6407,7949 6407,9256 6124,9419 6124,8509 6328,8509 Z M 6318,8278 L 6318,8499 6124,8499 6124,8278 6318,8278 Z"/>
     <path fill="rgb(244,218,221)" stroke="none" d="M 6318,8499 L 6318,8278 6124,8278 6124,8112 6407,7949 6407,9256 6124,9419 6124,8499 6318,8499 Z M 6308,8288 L 6308,8489 6124,8489 6124,8288 6308,8288 Z"/>
     <path fill="rgb(244,219,222)" stroke="none" d="M 6308,8489 L 6308,8288 6124,8288 6124,8112 6407,7949 6407,9256 6124,9419 6124,8489 6308,8489 Z M 6298,8298 L 6298,8479 6124,8479 6124,8298 6298,8298 Z"/>
     <path fill="rgb(244,220,223)" stroke="none" d="M 6298,8479 L 6298,8298 6124,8298 6124,8112 6407,7949 6407,9256 6124,9419 6124,8479 6298,8479 Z M 6127,8308 L 6288,8308 6288,8469 6127,8469 6127,8308 Z"/>
     <path fill="rgb(245,222,224)" stroke="none" d="M 6127,8308 L 6127,8469 6288,8469 6288,8308 6127,8308 Z M 6137,8318 L 6278,8318 6278,8459 6137,8459 6137,8318 Z M 6124,9419 L 6124,8112 6407,7949 6407,9256 6124,9419 Z"/>
     <path fill="rgb(245,223,225)" stroke="none" d="M 6137,8318 L 6137,8459 6278,8459 6278,8318 6137,8318 Z M 6147,8328 L 6268,8328 6268,8449 6147,8449 6147,8328 Z M 6124,9419 L 6124,8112 6407,7949 6407,9256 6124,9419 Z"/>
     <path fill="rgb(245,224,227)" stroke="none" d="M 6147,8328 L 6147,8449 6268,8449 6268,8328 6147,8328 Z M 6158,8339 L 6257,8339 6257,8438 6158,8438 6158,8339 Z M 6124,9419 L 6124,8112 6407,7949 6407,9256 6124,9419 Z"/>
     <path fill="rgb(246,225,228)" stroke="none" d="M 6158,8339 L 6158,8438 6257,8438 6257,8339 6158,8339 Z M 6168,8349 L 6247,8349 6247,8428 6168,8428 6168,8349 Z M 6124,9419 L 6124,8112 6407,7949 6407,9256 6124,9419 Z"/>
     <path fill="rgb(246,227,229)" stroke="none" d="M 6168,8349 L 6168,8428 6247,8428 6247,8349 6168,8349 Z M 6178,8359 L 6237,8359 6237,8418 6178,8418 6178,8359 Z M 6124,9419 L 6124,8112 6407,7949 6407,9256 6124,9419 Z"/>
     <path fill="rgb(246,228,230)" stroke="none" d="M 6178,8359 L 6178,8418 6237,8418 6237,8359 6178,8359 Z M 6188,8369 L 6227,8369 6227,8408 6188,8408 6188,8369 Z M 6124,9419 L 6124,8112 6407,7949 6407,9256 6124,9419 Z"/>
     <path fill="rgb(247,229,231)" stroke="none" d="M 6188,8369 L 6188,8408 6227,8408 6227,8369 6188,8369 Z M 6198,8379 L 6217,8379 6217,8398 6198,8398 6198,8379 Z M 6124,9419 L 6124,8112 6407,7949 6407,9256 6124,9419 Z"/>
     <path fill="rgb(248,232,234)" stroke="none" d="M 6198,8379 L 6198,8398 6217,8398 6217,8379 6198,8379 Z M 6124,9419 L 6124,8112 6407,7949 6407,9256 6124,9419 Z"/>
     <path fill="none" stroke="rgb(255,255,255)" id="Drawing_16_0" stroke-width="40" stroke-linejoin="round" d="M 6124,9419 L 6124,8112 6407,7949 6407,9256 6124,9419 Z"/>
    </g>
    <g>
     <defs>
      <linearGradient id="Gradient_1114" gradientUnits="userSpaceOnUse" x1="5418" y1="6969" x2="5418" y2="8112">
       <stop offset="0.1" stop-color="rgb(222,142,150)"/>
       <stop offset="1" stop-color="rgb(248,232,234)"/>
      </linearGradient>
     </defs>
     <path fill="url(#Gradient_1114)" stroke="rgb(255,255,255)" id="Drawing_17_0" stroke-width="40" stroke-linejoin="round" d="M 6125,8112 L 4429,7132 4712,6969 6407,7949 6125,8112 Z"/>
    </g>
    <g>
     <path fill="none" stroke="rgb(255,255,255)" id="Drawing_18_0" stroke-width="40" stroke-linejoin="round" d="M 5559,7785 L 5842,7622"/>
    </g>
    <g>
     <path fill="none" stroke="rgb(255,255,255)" id="Drawing_19_0" stroke-width="40" stroke-linejoin="round" d="M 6124,8439 L 6407,8276"/>
    </g>
    <g>
     <path fill="none" stroke="rgb(255,255,255)" id="Drawing_20_0" stroke-width="40" stroke-linejoin="round" d="M 6124,8765 L 6407,8602"/>
    </g>
    <g>
     <path fill="none" stroke="rgb(255,255,255)" id="Drawing_21_0" stroke-width="40" stroke-linejoin="round" d="M 6124,9092 L 6407,8929"/>
    </g>
    <g>
     <path fill="none" stroke="rgb(255,255,255)" id="Drawing_22_0" stroke-width="40" stroke-linejoin="round" d="M 4994,7459 L 5277,7296"/>
    </g>
    <g>
     <path fill="none" stroke="rgb(0,0,0)" id="Drawing_23_0" stroke-width="40" stroke-linejoin="round" d="M 4712,6969 L 6407,7949 6407,9256 6125,9419 4429,8439 4429,7132 4712,6969 Z"/>
    </g>
   </g>
  </g>
 </g>
</svg>