<?xml version="1.0" encoding="UTF-8"?>

<svg version="1.2" baseProfile="tiny" width="23.46mm" height="34mm" viewBox="5282 3100 2346 3400" preserveAspectRatio="xMidYMid" fill-rule="evenodd" stroke-width="28.222" stroke-linejoin="round" xmlns="http://www.w3.org/2000/svg" xmlns:xlink="http://www.w3.org/1999/xlink" xml:space="preserve">
 <g visibility="visible" id="Slide_1">
  <g id="DrawingGroup_1">
   <g>
    <path fill="rgb(221,221,221)" stroke="none" d="M 5948,6480 C 6303,6480 7627,6107 7627,5808 7627,5509 7594,5360 7240,5360 7240,5584 5948,6181 5948,6480 Z"/>
    <path fill="none" stroke="rgb(221,221,221)" id="Drawing_1_0" stroke-linejoin="round" d="M 5948,6480 C 6303,6480 7627,6107 7627,5808 7627,5509 7594,5360 7240,5360 7240,5584 5948,6181 5948,6480 Z"/>
   </g>
   <g id="DrawingGroup_2">
    <g>
     <path fill="rgb(179,179,179)" stroke="none" d="M 5948,5853 L 5948,4240 7240,3493 7240,5733 7032,5853 5948,5853 Z"/>
     <path fill="rgb(180,180,180)" stroke="none" d="M 7032,5853 L 5948,6480 5948,5853 7032,5853 Z M 5948,5823 L 5948,4240 7240,3493 7240,5733 7084,5823 5948,5823 Z"/>
     <path fill="rgb(181,181,181)" stroke="none" d="M 7084,5823 L 5948,6480 5948,5823 7084,5823 Z M 5948,5793 L 5948,4240 7240,3493 7240,5733 7136,5793 5948,5793 Z"/>
     <path fill="rgb(182,182,182)" stroke="none" d="M 7136,5793 L 5948,6480 5948,5793 7136,5793 Z M 5948,5763 L 5948,4240 7240,3493 7240,5733 7188,5763 5948,5763 Z"/>
     <path fill="rgb(183,183,183)" stroke="none" d="M 7188,5763 L 5948,6480 5948,5763 7188,5763 Z M 5948,5733 L 5948,4240 7240,3493 7240,5733 5948,5733 Z"/>
     <path fill="rgb(184,184,184)" stroke="none" d="M 7240,5733 L 5948,6480 5948,5733 7240,5733 Z M 5948,5703 L 5948,4240 7240,3493 7240,5703 5948,5703 Z"/>
     <path fill="rgb(185,185,185)" stroke="none" d="M 7240,5703 L 7240,5733 5948,6480 5948,5703 7240,5703 Z M 5948,5673 L 5948,4240 7240,3493 7240,5673 5948,5673 Z"/>
     <path fill="rgb(186,186,186)" stroke="none" d="M 7240,5673 L 7240,5733 5948,6480 5948,5673 7240,5673 Z M 5948,5643 L 5948,4240 7240,3493 7240,5643 5948,5643 Z"/>
     <path fill="rgb(187,187,187)" stroke="none" d="M 7240,5643 L 7240,5733 5948,6480 5948,5643 7240,5643 Z M 5948,5613 L 5948,4240 7240,3493 7240,5613 5948,5613 Z"/>
     <path fill="rgb(188,188,188)" stroke="none" d="M 7240,5613 L 7240,5733 5948,6480 5948,5613 7240,5613 Z M 5948,5583 L 5948,4240 7240,3493 7240,5583 5948,5583 Z"/>
     <path fill="rgb(189,189,189)" stroke="none" d="M 7240,5583 L 7240,5733 5948,6480 5948,5583 7240,5583 Z M 5948,5554 L 5948,4240 7240,3493 7240,5554 5948,5554 Z"/>
     <path fill="rgb(190,190,190)" stroke="none" d="M 7240,5554 L 7240,5733 5948,6480 5948,5554 7240,5554 Z M 5948,5524 L 5948,4240 7240,3493 7240,5524 5948,5524 Z"/>
     <path fill="rgb(191,191,191)" stroke="none" d="M 7240,5524 L 7240,5733 5948,6480 5948,5524 7240,5524 Z M 5948,5494 L 5948,4240 7240,3493 7240,5494 5948,5494 Z"/>
     <path fill="rgb(192,192,192)" stroke="none" d="M 7240,5494 L 7240,5733 5948,6480 5948,5494 7240,5494 Z M 5948,5464 L 5948,4240 7240,3493 7240,5464 5948,5464 Z"/>
     <path fill="rgb(193,193,193)" stroke="none" d="M 7240,5464 L 7240,5733 5948,6480 5948,5464 7240,5464 Z M 5948,5434 L 5948,4240 7240,3493 7240,5434 5948,5434 Z"/>
     <path fill="rgb(194,194,194)" stroke="none" d="M 7240,5434 L 7240,5733 5948,6480 5948,5434 7240,5434 Z M 5948,5404 L 5948,4240 7240,3493 7240,5404 5948,5404 Z"/>
     <path fill="rgb(195,195,195)" stroke="none" d="M 7240,5404 L 7240,5733 5948,6480 5948,5404 7240,5404 Z M 5948,5374 L 5948,4240 7240,3493 7240,5374 5948,5374 Z"/>
     <path fill="rgb(196,196,196)" stroke="none" d="M 7240,5374 L 7240,5733 5948,6480 5948,5374 7240,5374 Z M 5948,5344 L 5948,4240 7240,3493 7240,5344 5948,5344 Z"/>
     <path fill="rgb(197,197,197)" stroke="none" d="M 7240,5344 L 7240,5733 5948,6480 5948,5344 7240,5344 Z M 5948,5314 L 5948,4240 7240,3493 7240,5314 5948,5314 Z"/>
     <path fill="rgb(198,198,198)" stroke="none" d="M 7240,5314 L 7240,5733 5948,6480 5948,5314 7240,5314 Z M 7230,5284 L 5948,5284 5948,4240 7230,3499 7230,5284 Z"/>
     <path fill="rgb(199,199,199)" stroke="none" d="M 7230,5284 L 7230,3499 7240,3493 7240,5733 5948,6480 5948,5284 7230,5284 Z M 7201,3521 L 7201,5255 5948,5255 5948,4240 7192,3521 7201,3521 Z"/>
     <path fill="rgb(200,200,200)" stroke="none" d="M 7201,5255 L 7201,3521 7192,3521 7240,3493 7240,5733 5948,6480 5948,5255 7201,5255 Z M 7171,3551 L 7171,5225 5948,5225 5948,4240 7140,3551 7171,3551 Z"/>
     <path fill="rgb(201,201,201)" stroke="none" d="M 7171,5225 L 7171,3551 7140,3551 7240,3493 7240,5733 5948,6480 5948,5225 7171,5225 Z M 7141,3581 L 7141,5195 5948,5195 5948,4240 7088,3581 7141,3581 Z"/>
     <path fill="rgb(202,202,202)" stroke="none" d="M 7141,5195 L 7141,3581 7088,3581 7240,3493 7240,5733 5948,6480 5948,5195 7141,5195 Z M 7111,3611 L 7111,5165 5948,5165 5948,4240 7036,3611 7111,3611 Z"/>
     <path fill="rgb(203,203,203)" stroke="none" d="M 7111,5165 L 7111,3611 7036,3611 7240,3493 7240,5733 5948,6480 5948,5165 7111,5165 Z M 7081,3641 L 7081,5135 5948,5135 5948,4240 6984,3641 7081,3641 Z"/>
     <path fill="rgb(204,204,204)" stroke="none" d="M 7081,5135 L 7081,3641 6984,3641 7240,3493 7240,5733 5948,6480 5948,5135 7081,5135 Z M 7051,3671 L 7051,5105 5948,5105 5948,4240 6932,3671 7051,3671 Z"/>
     <path fill="rgb(205,205,205)" stroke="none" d="M 7051,5105 L 7051,3671 6932,3671 7240,3493 7240,5733 5948,6480 5948,5105 7051,5105 Z M 7021,3701 L 7021,5075 5948,5075 5948,4240 6880,3701 7021,3701 Z"/>
     <path fill="rgb(206,206,206)" stroke="none" d="M 7021,5075 L 7021,3701 6880,3701 7240,3493 7240,5733 5948,6480 5948,5075 7021,5075 Z M 6991,3731 L 6991,5045 5948,5045 5948,4240 6828,3731 6991,3731 Z"/>
     <path fill="rgb(207,207,207)" stroke="none" d="M 6991,5045 L 6991,3731 6828,3731 7240,3493 7240,5733 5948,6480 5948,5045 6991,5045 Z M 6961,3761 L 6961,5015 5948,5015 5948,4240 6776,3761 6961,3761 Z"/>
     <path fill="rgb(208,208,208)" stroke="none" d="M 6961,5015 L 6961,3761 6776,3761 7240,3493 7240,5733 5948,6480 5948,5015 6961,5015 Z M 6931,3790 L 6931,4985 5948,4985 5948,4240 6726,3790 6931,3790 Z"/>
     <path fill="rgb(209,209,209)" stroke="none" d="M 6931,4985 L 6931,3790 6726,3790 7240,3493 7240,5733 5948,6480 5948,4985 6931,4985 Z M 6902,3820 L 6902,4956 5948,4956 5948,4240 6674,3820 6902,3820 Z"/>
     <path fill="rgb(210,210,210)" stroke="none" d="M 6902,4956 L 6902,3820 6674,3820 7240,3493 7240,5733 5948,6480 5948,4956 6902,4956 Z M 6872,3850 L 6872,4926 5948,4926 5948,4240 6623,3850 6872,3850 Z"/>
     <path fill="rgb(211,211,211)" stroke="none" d="M 6872,4926 L 6872,3850 6623,3850 7240,3493 7240,5733 5948,6480 5948,4926 6872,4926 Z M 6842,3880 L 6842,4896 5948,4896 5948,4240 6571,3880 6842,3880 Z"/>
     <path fill="rgb(212,212,212)" stroke="none" d="M 6842,4896 L 6842,3880 6571,3880 7240,3493 7240,5733 5948,6480 5948,4896 6842,4896 Z M 6812,3910 L 6812,4866 5948,4866 5948,4240 6519,3910 6812,3910 Z"/>
     <path fill="rgb(213,213,213)" stroke="none" d="M 6812,4866 L 6812,3910 6519,3910 7240,3493 7240,5733 5948,6480 5948,4866 6812,4866 Z M 6782,3940 L 6782,4836 5948,4836 5948,4240 6467,3940 6782,3940 Z"/>
     <path fill="rgb(214,214,214)" stroke="none" d="M 6782,4836 L 6782,3940 6467,3940 7240,3493 7240,5733 5948,6480 5948,4836 6782,4836 Z M 6752,3970 L 6752,4806 5948,4806 5948,4240 6415,3970 6752,3970 Z"/>
     <path fill="rgb(215,215,215)" stroke="none" d="M 6752,4806 L 6752,3970 6415,3970 7240,3493 7240,5733 5948,6480 5948,4806 6752,4806 Z M 6722,4000 L 6722,4776 5948,4776 5948,4240 6363,4000 6722,4000 Z"/>
     <path fill="rgb(216,216,216)" stroke="none" d="M 6722,4776 L 6722,4000 6363,4000 7240,3493 7240,5733 5948,6480 5948,4776 6722,4776 Z M 6692,4030 L 6692,4746 5976,4746 5976,4224 6311,4030 6692,4030 Z"/>
     <path fill="rgb(217,217,217)" stroke="none" d="M 5976,4746 L 6692,4746 6692,4030 6311,4030 7240,3493 7240,5733 5948,6480 5948,4240 5976,4224 5976,4746 Z M 6662,4060 L 6662,4716 6006,4716 6006,4206 6259,4060 6662,4060 Z"/>
     <path fill="rgb(218,218,218)" stroke="none" d="M 6006,4716 L 6662,4716 6662,4060 6259,4060 7240,3493 7240,5733 5948,6480 5948,4240 6006,4206 6006,4716 Z M 6632,4089 L 6632,4686 6035,4686 6035,4190 6209,4089 6632,4089 Z"/>
     <path fill="rgb(219,219,219)" stroke="none" d="M 6035,4686 L 6632,4686 6632,4089 6209,4089 7240,3493 7240,5733 5948,6480 5948,4240 6035,4190 6035,4686 Z M 6603,4119 L 6603,4657 6065,4657 6065,4172 6157,4119 6603,4119 Z"/>
     <path fill="rgb(220,220,220)" stroke="none" d="M 6065,4657 L 6603,4657 6603,4119 6157,4119 7240,3493 7240,5733 5948,6480 5948,4240 6065,4172 6065,4657 Z M 6573,4149 L 6573,4627 6095,4627 6095,4155 6105,4149 6573,4149 Z"/>
     <path fill="rgb(221,221,221)" stroke="none" d="M 6095,4627 L 6573,4627 6573,4149 6105,4149 7240,3493 7240,5733 5948,6480 5948,4240 6095,4155 6095,4627 Z M 6125,4179 L 6543,4179 6543,4597 6125,4597 6125,4179 Z"/>
     <path fill="rgb(222,222,222)" stroke="none" d="M 6125,4179 L 6125,4597 6543,4597 6543,4179 6125,4179 Z M 6155,4209 L 6513,4209 6513,4567 6155,4567 6155,4209 Z M 5948,6480 L 5948,4240 7240,3493 7240,5733 5948,6480 Z"/>
     <path fill="rgb(223,223,223)" stroke="none" d="M 6155,4209 L 6155,4567 6513,4567 6513,4209 6155,4209 Z M 6185,4239 L 6483,4239 6483,4537 6185,4537 6185,4239 Z M 5948,6480 L 5948,4240 7240,3493 7240,5733 5948,6480 Z"/>
     <path fill="rgb(224,224,224)" stroke="none" d="M 6185,4239 L 6185,4537 6483,4537 6483,4239 6185,4239 Z M 6215,4269 L 6453,4269 6453,4507 6215,4507 6215,4269 Z M 5948,6480 L 5948,4240 7240,3493 7240,5733 5948,6480 Z"/>
     <path fill="rgb(225,225,225)" stroke="none" d="M 6215,4269 L 6215,4507 6453,4507 6453,4269 6215,4269 Z M 6245,4299 L 6423,4299 6423,4477 6245,4477 6245,4299 Z M 5948,6480 L 5948,4240 7240,3493 7240,5733 5948,6480 Z"/>
     <path fill="rgb(226,226,226)" stroke="none" d="M 6245,4299 L 6245,4477 6423,4477 6423,4299 6245,4299 Z M 6275,4329 L 6393,4329 6393,4447 6275,4447 6275,4329 Z M 5948,6480 L 5948,4240 7240,3493 7240,5733 5948,6480 Z"/>
     <path fill="rgb(227,227,227)" stroke="none" d="M 6275,4329 L 6275,4447 6393,4447 6393,4329 6275,4329 Z M 6305,4359 L 6363,4359 6363,4417 6305,4417 6305,4359 Z M 5948,6480 L 5948,4240 7240,3493 7240,5733 5948,6480 Z"/>
     <path fill="rgb(229,229,229)" stroke="none" d="M 6305,4359 L 6305,4417 6363,4417 6363,4359 6305,4359 Z M 5948,6480 L 5948,4240 7240,3493 7240,5733 5948,6480 Z"/>
     <path fill="none" stroke="rgb(255,255,255)" id="Drawing_2_0" stroke-width="40" stroke-linejoin="round" d="M 5948,6480 L 5948,4240 7240,3493 7240,5733 5948,6480 Z"/>
    </g>
    <g>
     <defs>
      <linearGradient id="Gradient_1156" gradientUnits="userSpaceOnUse" x1="6270" y1="3120" x2="6270" y2="4240">
       <stop offset="0.1" stop-color="rgb(179,179,179)"/>
       <stop offset="1" stop-color="rgb(229,229,229)"/>
      </linearGradient>
     </defs>
     <path fill="url(#Gradient_1156)" stroke="rgb(255,255,255)" id="Drawing_3_0" stroke-width="40" stroke-linejoin="round" d="M 5948,4240 L 5302,3867 6594,3120 7239,3493 5948,4240 Z"/>
    </g>
    <g>
     <defs>
      <linearGradient id="Gradient_1157" gradientUnits="userSpaceOnUse" x1="5300" y1="5172" x2="5950" y2="5174">
       <stop offset="0.1" stop-color="rgb(179,179,179)"/>
       <stop offset="1" stop-color="rgb(229,229,229)"/>
      </linearGradient>
     </defs>
     <path fill="url(#Gradient_1157)" stroke="rgb(255,255,255)" id="Drawing_4_0" stroke-width="40" stroke-linejoin="round" d="M 5302,6107 L 5302,3867 5948,4240 5948,6480 5302,6107 Z"/>
    </g>
    <g>
     <path fill="none" stroke="rgb(0,0,0)" id="Drawing_5_0" stroke-width="40" stroke-linejoin="round" d="M 5302,6107 L 5302,3867 6594,3120 7239,3493 7239,5733 5948,6480 5302,6107 Z"/>
    </g>
    <g>
     <path fill="rgb(127,127,127)" stroke="none" d="M 5431,5957 L 5431,5733 5560,5808 5560,6032 5431,5957 Z"/>
     <path fill="none" stroke="rgb(0,0,0)" id="Drawing_6_0" stroke-width="40" stroke-linejoin="round" d="M 5431,5957 L 5431,5733 5560,5808 5560,6032 5431,5957 Z"/>
    </g>
    <g>
     <path fill="rgb(127,127,127)" stroke="none" d="M 5689,6107 L 5689,5883 5818,5958 5818,6182 5689,6107 Z"/>
     <path fill="none" stroke="rgb(0,0,0)" id="Drawing_7_0" stroke-width="40" stroke-linejoin="round" d="M 5689,6107 L 5689,5883 5818,5958 5818,6182 5689,6107 Z"/>
    </g>
    <g>
     <path fill="rgb(127,127,127)" stroke="none" d="M 5431,5584 L 5431,5360 5560,5435 5560,5659 5431,5584 Z"/>
     <path fill="none" stroke="rgb(0,0,0)" id="Drawing_8_0" stroke-width="40" stroke-linejoin="round" d="M 5431,5584 L 5431,5360 5560,5435 5560,5659 5431,5584 Z"/>
    </g>
    <g>
     <path fill="rgb(127,127,127)" stroke="none" d="M 5689,5733 L 5689,5509 5818,5584 5818,5808 5689,5733 Z"/>
     <path fill="none" stroke="rgb(0,0,0)" id="Drawing_9_0" stroke-width="40" stroke-linejoin="round" d="M 5689,5733 L 5689,5509 5818,5584 5818,5808 5689,5733 Z"/>
    </g>
    <g>
     <path fill="rgb(127,127,127)" stroke="none" d="M 5689,5360 L 5689,5136 5818,5211 5818,5435 5689,5360 Z"/>
     <path fill="none" stroke="rgb(0,0,0)" id="Drawing_10_0" stroke-width="40" stroke-linejoin="round" d="M 5689,5360 L 5689,5136 5818,5211 5818,5435 5689,5360 Z"/>
    </g>
    <g>
     <path fill="rgb(127,127,127)" stroke="none" d="M 5431,5211 L 5431,4987 5560,5062 5560,5286 5431,5211 Z"/>
     <path fill="none" stroke="rgb(0,0,0)" id="Drawing_11_0" stroke-width="40" stroke-linejoin="round" d="M 5431,5211 L 5431,4987 5560,5062 5560,5286 5431,5211 Z"/>
    </g>
    <g>
     <path fill="rgb(127,127,127)" stroke="none" d="M 5689,4987 L 5689,4763 5818,4838 5818,5062 5689,4987 Z"/>
     <path fill="none" stroke="rgb(0,0,0)" id="Drawing_12_0" stroke-width="40" stroke-linejoin="round" d="M 5689,4987 L 5689,4763 5818,4838 5818,5062 5689,4987 Z"/>
    </g>
    <g>
     <path fill="rgb(127,127,127)" stroke="none" d="M 5431,4837 L 5431,4613 5560,4688 5560,4912 5431,4837 Z"/>
     <path fill="none" stroke="rgb(0,0,0)" id="Drawing_13_0" stroke-width="40" stroke-linejoin="round" d="M 5431,4837 L 5431,4613 5560,4688 5560,4912 5431,4837 Z"/>
    </g>
    <g>
     <path fill="rgb(153,255,102)" stroke="none" d="M 5431,4389 L 5431,4165 5560,4240 5560,4464 5431,4389 Z"/>
     <path fill="none" stroke="rgb(51,51,51)" id="Drawing_14_0" stroke-width="40" stroke-linejoin="round" d="M 5431,4389 L 5431,4165 5560,4240 5560,4464 5431,4389 Z"/>
    </g>
   </g>
  </g>
 </g>
</svg>