<?xml version="1.0" encoding="UTF-8"?>

<svg version="1.2" baseProfile="tiny" width="23.41mm" height="34mm" viewBox="3280 3931 2341 3400" preserveAspectRatio="xMidYMid" fill-rule="evenodd" stroke-width="28.222" stroke-linejoin="round" xmlns="http://www.w3.org/2000/svg" xmlns:xlink="http://www.w3.org/1999/xlink" xml:space="preserve">
 <g visibility="visible" id="Slide_1">
  <g id="DrawingGroup_1">
   <g>
    <path fill="rgb(221,221,221)" stroke="none" d="M 3945,7310 C 4299,7310 5620,6936 5620,6638 5620,6339 5588,6190 5233,6190 5233,6414 3945,7011 3945,7310 Z"/>
    <path fill="none" stroke="rgb(221,221,221)" id="Drawing_1_0" stroke-linejoin="round" d="M 3945,7310 C 4299,7310 5620,6936 5620,6638 5620,6339 5588,6190 5233,6190 5233,6414 3945,7011 3945,7310 Z"/>
   </g>
   <g id="DrawingGroup_2">
    <g>
     <path fill="rgb(179,179,179)" stroke="none" d="M 3945,6684 L 3945,5071 5233,4325 5233,6564 5026,6684 3945,6684 Z"/>
     <path fill="rgb(180,180,180)" stroke="none" d="M 5026,6684 L 3945,7311 3945,6684 5026,6684 Z M 3945,6654 L 3945,5071 5233,4325 5233,6564 5078,6654 3945,6654 Z"/>
     <path fill="rgb(181,181,181)" stroke="none" d="M 5078,6654 L 3945,7311 3945,6654 5078,6654 Z M 3945,6624 L 3945,5071 5233,4325 5233,6564 5130,6624 3945,6624 Z"/>
     <path fill="rgb(182,182,182)" stroke="none" d="M 5130,6624 L 3945,7311 3945,6624 5130,6624 Z M 3945,6594 L 3945,5071 5233,4325 5233,6564 5181,6594 3945,6594 Z"/>
     <path fill="rgb(183,183,183)" stroke="none" d="M 5181,6594 L 3945,7311 3945,6594 5181,6594 Z M 3945,6564 L 3945,5071 5233,4325 5233,6564 3945,6564 Z"/>
     <path fill="rgb(184,184,184)" stroke="none" d="M 5233,6564 L 3945,7311 3945,6564 5233,6564 Z M 3945,6534 L 3945,5071 5233,4325 5233,6534 3945,6534 Z"/>
     <path fill="rgb(185,185,185)" stroke="none" d="M 5233,6534 L 5233,6564 3945,7311 3945,6534 5233,6534 Z M 3945,6504 L 3945,5071 5233,4325 5233,6504 3945,6504 Z"/>
     <path fill="rgb(186,186,186)" stroke="none" d="M 5233,6504 L 5233,6564 3945,7311 3945,6504 5233,6504 Z M 3945,6474 L 3945,5071 5233,4325 5233,6474 3945,6474 Z"/>
     <path fill="rgb(187,187,187)" stroke="none" d="M 5233,6474 L 5233,6564 3945,7311 3945,6474 5233,6474 Z M 3945,6444 L 3945,5071 5233,4325 5233,6444 3945,6444 Z"/>
     <path fill="rgb(188,188,188)" stroke="none" d="M 5233,6444 L 5233,6564 3945,7311 3945,6444 5233,6444 Z M 3945,6415 L 3945,5071 5233,4325 5233,6415 3945,6415 Z"/>
     <path fill="rgb(189,189,189)" stroke="none" d="M 5233,6415 L 5233,6564 3945,7311 3945,6415 5233,6415 Z M 3945,6385 L 3945,5071 5233,4325 5233,6385 3945,6385 Z"/>
     <path fill="rgb(190,190,190)" stroke="none" d="M 5233,6385 L 5233,6564 3945,7311 3945,6385 5233,6385 Z M 3945,6355 L 3945,5071 5233,4325 5233,6355 3945,6355 Z"/>
     <path fill="rgb(191,191,191)" stroke="none" d="M 5233,6355 L 5233,6564 3945,7311 3945,6355 5233,6355 Z M 3945,6325 L 3945,5071 5233,4325 5233,6325 3945,6325 Z"/>
     <path fill="rgb(192,192,192)" stroke="none" d="M 5233,6325 L 5233,6564 3945,7311 3945,6325 5233,6325 Z M 3945,6295 L 3945,5071 5233,4325 5233,6295 3945,6295 Z"/>
     <path fill="rgb(193,193,193)" stroke="none" d="M 5233,6295 L 5233,6564 3945,7311 3945,6295 5233,6295 Z M 3945,6265 L 3945,5071 5233,4325 5233,6265 3945,6265 Z"/>
     <path fill="rgb(194,194,194)" stroke="none" d="M 5233,6265 L 5233,6564 3945,7311 3945,6265 5233,6265 Z M 3945,6235 L 3945,5071 5233,4325 5233,6235 3945,6235 Z"/>
     <path fill="rgb(195,195,195)" stroke="none" d="M 5233,6235 L 5233,6564 3945,7311 3945,6235 5233,6235 Z M 3945,6205 L 3945,5071 5233,4325 5233,6205 3945,6205 Z"/>
     <path fill="rgb(196,196,196)" stroke="none" d="M 5233,6205 L 5233,6564 3945,7311 3945,6205 5233,6205 Z M 3945,6175 L 3945,5071 5233,4325 5233,6175 3945,6175 Z"/>
     <path fill="rgb(197,197,197)" stroke="none" d="M 5233,6175 L 5233,6564 3945,7311 3945,6175 5233,6175 Z M 3945,6146 L 3945,5071 5233,4325 5233,6146 3945,6146 Z"/>
     <path fill="rgb(198,198,198)" stroke="none" d="M 5233,6146 L 5233,6564 3945,7311 3945,6146 5233,6146 Z M 5227,6116 L 3945,6116 3945,5071 5227,4328 5227,6116 Z"/>
     <path fill="rgb(199,199,199)" stroke="none" d="M 5227,6116 L 5227,4328 5233,4325 5233,6564 3945,7311 3945,6116 5227,6116 Z M 5197,4353 L 5197,6086 3945,6086 3945,5071 5185,4353 5197,4353 Z"/>
     <path fill="rgb(200,200,200)" stroke="none" d="M 5197,6086 L 5197,4353 5185,4353 5233,4325 5233,6564 3945,7311 3945,6086 5197,6086 Z M 5167,4383 L 5167,6056 3945,6056 3945,5071 5133,4383 5167,4383 Z"/>
     <path fill="rgb(201,201,201)" stroke="none" d="M 5167,6056 L 5167,4383 5133,4383 5233,4325 5233,6564 3945,7311 3945,6056 5167,6056 Z M 5137,4413 L 5137,6026 3945,6026 3945,5071 5081,4413 5137,4413 Z"/>
     <path fill="rgb(202,202,202)" stroke="none" d="M 5137,6026 L 5137,4413 5081,4413 5233,4325 5233,6564 3945,7311 3945,6026 5137,6026 Z M 5107,4443 L 5107,5996 3945,5996 3945,5071 5029,4443 5107,4443 Z"/>
     <path fill="rgb(203,203,203)" stroke="none" d="M 5107,5996 L 5107,4443 5029,4443 5233,4325 5233,6564 3945,7311 3945,5996 5107,5996 Z M 5077,4473 L 5077,5966 3945,5966 3945,5071 4977,4473 5077,4473 Z"/>
     <path fill="rgb(204,204,204)" stroke="none" d="M 5077,5966 L 5077,4473 4977,4473 5233,4325 5233,6564 3945,7311 3945,5966 5077,5966 Z M 5047,4503 L 5047,5936 3945,5936 3945,5071 4926,4503 5047,4503 Z"/>
     <path fill="rgb(205,205,205)" stroke="none" d="M 5047,5936 L 5047,4503 4926,4503 5233,4325 5233,6564 3945,7311 3945,5936 5047,5936 Z M 5017,4533 L 5017,5906 3945,5906 3945,5071 4874,4533 5017,4533 Z"/>
     <path fill="rgb(206,206,206)" stroke="none" d="M 5017,5906 L 5017,4533 4874,4533 5233,4325 5233,6564 3945,7311 3945,5906 5017,5906 Z M 4988,4562 L 4988,5877 3945,5877 3945,5071 4824,4562 4988,4562 Z"/>
     <path fill="rgb(207,207,207)" stroke="none" d="M 4988,5877 L 4988,4562 4824,4562 5233,4325 5233,6564 3945,7311 3945,5877 4988,5877 Z M 4958,4592 L 4958,5847 3945,5847 3945,5071 4772,4592 4958,4592 Z"/>
     <path fill="rgb(208,208,208)" stroke="none" d="M 4958,5847 L 4958,4592 4772,4592 5233,4325 5233,6564 3945,7311 3945,5847 4958,5847 Z M 4928,4622 L 4928,5817 3945,5817 3945,5071 4720,4622 4928,4622 Z"/>
     <path fill="rgb(209,209,209)" stroke="none" d="M 4928,5817 L 4928,4622 4720,4622 5233,4325 5233,6564 3945,7311 3945,5817 4928,5817 Z M 4898,4652 L 4898,5787 3945,5787 3945,5071 4668,4652 4898,4652 Z"/>
     <path fill="rgb(210,210,210)" stroke="none" d="M 4898,5787 L 4898,4652 4668,4652 5233,4325 5233,6564 3945,7311 3945,5787 4898,5787 Z M 4868,4682 L 4868,5757 3945,5757 3945,5071 4617,4682 4868,4682 Z"/>
     <path fill="rgb(211,211,211)" stroke="none" d="M 4868,5757 L 4868,4682 4617,4682 5233,4325 5233,6564 3945,7311 3945,5757 4868,5757 Z M 4838,4712 L 4838,5727 3945,5727 3945,5071 4565,4712 4838,4712 Z"/>
     <path fill="rgb(212,212,212)" stroke="none" d="M 4838,5727 L 4838,4712 4565,4712 5233,4325 5233,6564 3945,7311 3945,5727 4838,5727 Z M 4808,4742 L 4808,5697 3945,5697 3945,5071 4513,4742 4808,4742 Z"/>
     <path fill="rgb(213,213,213)" stroke="none" d="M 4808,5697 L 4808,4742 4513,4742 5233,4325 5233,6564 3945,7311 3945,5697 4808,5697 Z M 4778,4772 L 4778,5667 3945,5667 3945,5071 4461,4772 4778,4772 Z"/>
     <path fill="rgb(214,214,214)" stroke="none" d="M 4778,5667 L 4778,4772 4461,4772 5233,4325 5233,6564 3945,7311 3945,5667 4778,5667 Z M 4748,4802 L 4748,5637 3945,5637 3945,5071 4409,4802 4748,4802 Z"/>
     <path fill="rgb(215,215,215)" stroke="none" d="M 4748,5637 L 4748,4802 4409,4802 5233,4325 5233,6564 3945,7311 3945,5637 4748,5637 Z M 4719,4831 L 4719,5608 3945,5608 3945,5071 4359,4831 4719,4831 Z"/>
     <path fill="rgb(216,216,216)" stroke="none" d="M 4719,5608 L 4719,4831 4359,4831 5233,4325 5233,6564 3945,7311 3945,5608 4719,5608 Z M 4689,4861 L 4689,5578 3972,5578 3972,5055 4308,4861 4689,4861 Z"/>
     <path fill="rgb(217,217,217)" stroke="none" d="M 3972,5578 L 4689,5578 4689,4861 4308,4861 5233,4325 5233,6564 3945,7311 3945,5071 3972,5055 3972,5578 Z M 4659,4891 L 4659,5548 4002,5548 4002,5038 4256,4891 4659,4891 Z"/>
     <path fill="rgb(218,218,218)" stroke="none" d="M 4002,5548 L 4659,5548 4659,4891 4256,4891 5233,4325 5233,6564 3945,7311 3945,5071 4002,5038 4002,5548 Z M 4629,4921 L 4629,5518 4032,5518 4032,5021 4204,4921 4629,4921 Z"/>
     <path fill="rgb(219,219,219)" stroke="none" d="M 4032,5518 L 4629,5518 4629,4921 4204,4921 5233,4325 5233,6564 3945,7311 3945,5071 4032,5021 4032,5518 Z M 4599,4951 L 4599,5488 4062,5488 4062,5003 4152,4951 4599,4951 Z"/>
     <path fill="rgb(220,220,220)" stroke="none" d="M 4062,5488 L 4599,5488 4599,4951 4152,4951 5233,4325 5233,6564 3945,7311 3945,5071 4062,5003 4062,5488 Z M 4569,4981 L 4569,5458 4092,5458 4092,4986 4100,4981 4569,4981 Z"/>
     <path fill="rgb(221,221,221)" stroke="none" d="M 4092,5458 L 4569,5458 4569,4981 4100,4981 5233,4325 5233,6564 3945,7311 3945,5071 4092,4986 4092,5458 Z M 4122,5011 L 4539,5011 4539,5428 4122,5428 4122,5011 Z"/>
     <path fill="rgb(222,222,222)" stroke="none" d="M 4122,5011 L 4122,5428 4539,5428 4539,5011 4122,5011 Z M 4152,5041 L 4509,5041 4509,5398 4152,5398 4152,5041 Z M 3945,7311 L 3945,5071 5233,4325 5233,6564 3945,7311 Z"/>
     <path fill="rgb(223,223,223)" stroke="none" d="M 4152,5041 L 4152,5398 4509,5398 4509,5041 4152,5041 Z M 4182,5071 L 4479,5071 4479,5368 4182,5368 4182,5071 Z M 3945,7311 L 3945,5071 5233,4325 5233,6564 3945,7311 Z"/>
     <path fill="rgb(224,224,224)" stroke="none" d="M 4182,5071 L 4182,5368 4479,5368 4479,5071 4182,5071 Z M 4211,5100 L 4450,5100 4450,5339 4211,5339 4211,5100 Z M 3945,7311 L 3945,5071 5233,4325 5233,6564 3945,7311 Z"/>
     <path fill="rgb(225,225,225)" stroke="none" d="M 4211,5100 L 4211,5339 4450,5339 4450,5100 4211,5100 Z M 4241,5130 L 4420,5130 4420,5309 4241,5309 4241,5130 Z M 3945,7311 L 3945,5071 5233,4325 5233,6564 3945,7311 Z"/>
     <path fill="rgb(226,226,226)" stroke="none" d="M 4241,5130 L 4241,5309 4420,5309 4420,5130 4241,5130 Z M 4271,5160 L 4390,5160 4390,5279 4271,5279 4271,5160 Z M 3945,7311 L 3945,5071 5233,4325 5233,6564 3945,7311 Z"/>
     <path fill="rgb(227,227,227)" stroke="none" d="M 4271,5160 L 4271,5279 4390,5279 4390,5160 4271,5160 Z M 4301,5190 L 4360,5190 4360,5249 4301,5249 4301,5190 Z M 3945,7311 L 3945,5071 5233,4325 5233,6564 3945,7311 Z"/>
     <path fill="rgb(229,229,229)" stroke="none" d="M 4301,5190 L 4301,5249 4360,5249 4360,5190 4301,5190 Z M 3945,7311 L 3945,5071 5233,4325 5233,6564 3945,7311 Z"/>
     <path fill="none" stroke="rgb(255,255,255)" id="Drawing_2_0" stroke-width="40" stroke-linejoin="round" d="M 3945,7311 L 3945,5071 5233,4325 5233,6564 3945,7311 Z"/>
    </g>
    <g>
     <defs>
      <linearGradient id="Gradient_1172" gradientUnits="userSpaceOnUse" x1="4266" y1="3951" x2="4266" y2="5071">
       <stop offset="0.1" stop-color="rgb(179,179,179)"/>
       <stop offset="1" stop-color="rgb(229,229,229)"/>
      </linearGradient>
     </defs>
     <path fill="url(#Gradient_1172)" stroke="rgb(255,255,255)" id="Drawing_3_0" stroke-width="40" stroke-linejoin="round" d="M 3945,5071 L 3300,4697 4588,3951 5233,4325 3945,5071 Z"/>
    </g>
    <g>
     <defs>
      <linearGradient id="Gradient_1173" gradientUnits="userSpaceOnUse" x1="3297" y1="6002" x2="3946" y2="6004">
       <stop offset="0.1" stop-color="rgb(179,179,179)"/>
       <stop offset="1" stop-color="rgb(229,229,229)"/>
      </linearGradient>
     </defs>
     <path fill="url(#Gradient_1173)" stroke="rgb(255,255,255)" id="Drawing_4_0" stroke-width="40" stroke-linejoin="round" d="M 3300,6936 L 3300,4697 3945,5071 3945,7310 3300,6936 Z"/>
    </g>
    <g>
     <path fill="none" stroke="rgb(0,0,0)" id="Drawing_5_0" stroke-width="40" stroke-linejoin="round" d="M 3300,6937 L 3300,4697 4588,3951 5233,4325 5233,6564 3945,7310 3300,6937 Z"/>
    </g>
    <g>
     <path fill="rgb(127,127,127)" stroke="none" d="M 3429,6788 L 3429,6564 3558,6639 3558,6862 3429,6788 Z"/>
     <path fill="none" stroke="rgb(0,0,0)" id="Drawing_6_0" stroke-width="40" stroke-linejoin="round" d="M 3429,6788 L 3429,6564 3558,6639 3558,6862 3429,6788 Z"/>
    </g>
    <g>
     <path fill="rgb(127,127,127)" stroke="none" d="M 3687,6937 L 3687,6713 3816,6788 3816,7011 3687,6937 Z"/>
     <path fill="none" stroke="rgb(0,0,0)" id="Drawing_7_0" stroke-width="40" stroke-linejoin="round" d="M 3687,6937 L 3687,6713 3816,6788 3816,7011 3687,6937 Z"/>
    </g>
    <g>
     <path fill="rgb(127,127,127)" stroke="none" d="M 3429,6414 L 3429,6190 3558,6265 3558,6488 3429,6414 Z"/>
     <path fill="none" stroke="rgb(0,0,0)" id="Drawing_8_0" stroke-width="40" stroke-linejoin="round" d="M 3429,6414 L 3429,6190 3558,6265 3558,6488 3429,6414 Z"/>
    </g>
    <g>
     <path fill="rgb(127,127,127)" stroke="none" d="M 3687,6564 L 3687,6340 3816,6415 3816,6638 3687,6564 Z"/>
     <path fill="none" stroke="rgb(0,0,0)" id="Drawing_9_0" stroke-width="40" stroke-linejoin="round" d="M 3687,6564 L 3687,6340 3816,6415 3816,6638 3687,6564 Z"/>
    </g>
    <g>
     <path fill="rgb(127,127,127)" stroke="none" d="M 3687,6042 L 3687,5594 3816,5669 3816,6117 3687,6042 Z"/>
     <path fill="none" stroke="rgb(0,0,0)" id="Drawing_10_0" stroke-width="40" stroke-linejoin="round" d="M 3687,6042 L 3687,5594 3816,5669 3816,6117 3687,6042 Z"/>
    </g>
    <g>
     <path fill="rgb(127,127,127)" stroke="none" d="M 3429,5892 L 3429,5444 3558,5519 3558,5967 3429,5892 Z"/>
     <path fill="none" stroke="rgb(0,0,0)" id="Drawing_11_0" stroke-width="40" stroke-linejoin="round" d="M 3429,5892 L 3429,5444 3558,5519 3558,5967 3429,5892 Z"/>
    </g>
    <g>
     <path fill="rgb(57,181,74)" stroke="none" d="M 3429,5220 L 3429,4996 3558,5071 3558,5294 3429,5220 Z"/>
     <path fill="none" stroke="rgb(127,127,127)" id="Drawing_12_0" stroke-width="40" stroke-linejoin="round" d="M 3429,5220 L 3429,4996 3558,5071 3558,5294 3429,5220 Z"/>
    </g>
    <g>
     <path fill="rgb(209,97,108)" stroke="none" d="M 3687,5370 L 3687,5146 3816,5221 3816,5444 3687,5370 Z"/>
     <path fill="none" stroke="rgb(127,127,127)" id="Drawing_13_0" stroke-width="40" stroke-linejoin="round" d="M 3687,5370 L 3687,5146 3816,5221 3816,5444 3687,5370 Z"/>
    </g>
   </g>
  </g>
 </g>
</svg>