<?xml version="1.0" encoding="UTF-8"?>

<svg version="1.2" baseProfile="tiny" width="21.12mm" height="43.9mm" viewBox="2753 19803 2112 4390" preserveAspectRatio="xMidYMid" fill-rule="evenodd" stroke-width="28.222" stroke-linejoin="round" xmlns="http://www.w3.org/2000/svg" xmlns:xlink="http://www.w3.org/1999/xlink" xml:space="preserve">
 <g visibility="visible" id="Slide_1">
  <g id="DrawingGroup_1">
   <g>
    <path fill="rgb(221,221,221)" stroke="none" d="M 3749,24173 C 4132,24173 4864,24011 4864,23689 4864,23367 4828,23367 4446,23367 4446,23609 3749,23850 3749,24173 Z"/>
    <path fill="none" stroke="rgb(221,221,221)" id="Drawing_1_0" stroke-linejoin="round" d="M 3749,24173 C 4132,24173 4864,24011 4864,23689 4864,23367 4828,23367 4446,23367 4446,23609 3749,23850 3749,24173 Z"/>
   </g>
   <g id="DrawingGroup_2">
    <g>
     <path fill="rgb(179,179,179)" stroke="none" d="M 3749,23699 L 3749,22320 4446,21917 4446,23699 3749,23699 Z"/>
     <path fill="rgb(180,180,180)" stroke="none" d="M 4446,23699 L 4446,23770 3749,24173 3749,23699 4446,23699 Z M 3749,23676 L 3749,22320 4446,21917 4446,23676 3749,23676 Z"/>
     <path fill="rgb(181,181,181)" stroke="none" d="M 4446,23676 L 4446,23770 3749,24173 3749,23676 4446,23676 Z M 3749,23654 L 3749,22320 4446,21917 4446,23654 3749,23654 Z"/>
     <path fill="rgb(182,182,182)" stroke="none" d="M 4446,23654 L 4446,23770 3749,24173 3749,23654 4446,23654 Z M 3749,23631 L 3749,22320 4446,21917 4446,23631 3749,23631 Z"/>
     <path fill="rgb(183,183,183)" stroke="none" d="M 4446,23631 L 4446,23770 3749,24173 3749,23631 4446,23631 Z M 3749,23609 L 3749,22320 4446,21917 4446,23609 3749,23609 Z"/>
     <path fill="rgb(184,184,184)" stroke="none" d="M 4446,23609 L 4446,23770 3749,24173 3749,23609 4446,23609 Z M 3749,23586 L 3749,22320 4446,21917 4446,23586 3749,23586 Z"/>
     <path fill="rgb(185,185,185)" stroke="none" d="M 4446,23586 L 4446,23770 3749,24173 3749,23586 4446,23586 Z M 3749,23563 L 3749,22320 4446,21917 4446,23563 3749,23563 Z"/>
     <path fill="rgb(186,186,186)" stroke="none" d="M 4446,23563 L 4446,23770 3749,24173 3749,23563 4446,23563 Z M 3749,23541 L 3749,22320 4446,21917 4446,23541 3749,23541 Z"/>
     <path fill="rgb(187,187,187)" stroke="none" d="M 4446,23541 L 4446,23770 3749,24173 3749,23541 4446,23541 Z M 3749,23518 L 3749,22320 4446,21917 4446,23518 3749,23518 Z"/>
     <path fill="rgb(188,188,188)" stroke="none" d="M 4446,23518 L 4446,23770 3749,24173 3749,23518 4446,23518 Z M 3749,23496 L 3749,22320 4446,21917 4446,23496 3749,23496 Z"/>
     <path fill="rgb(189,189,189)" stroke="none" d="M 4446,23496 L 4446,23770 3749,24173 3749,23496 4446,23496 Z M 3749,23473 L 3749,22320 4446,21917 4446,23473 3749,23473 Z"/>
     <path fill="rgb(190,190,190)" stroke="none" d="M 4446,23473 L 4446,23770 3749,24173 3749,23473 4446,23473 Z M 3749,23450 L 3749,22320 4446,21917 4446,23450 3749,23450 Z"/>
     <path fill="rgb(191,191,191)" stroke="none" d="M 4446,23450 L 4446,23770 3749,24173 3749,23450 4446,23450 Z M 3749,23428 L 3749,22320 4446,21917 4446,23428 3749,23428 Z"/>
     <path fill="rgb(192,192,192)" stroke="none" d="M 4446,23428 L 4446,23770 3749,24173 3749,23428 4446,23428 Z M 3749,23405 L 3749,22320 4446,21917 4446,23405 3749,23405 Z"/>
     <path fill="rgb(193,193,193)" stroke="none" d="M 4446,23405 L 4446,23770 3749,24173 3749,23405 4446,23405 Z M 3749,23383 L 3749,22320 4446,21917 4446,23383 3749,23383 Z"/>
     <path fill="rgb(194,194,194)" stroke="none" d="M 4446,23383 L 4446,23770 3749,24173 3749,23383 4446,23383 Z M 3749,23360 L 3749,22320 4446,21917 4446,23360 3749,23360 Z"/>
     <path fill="rgb(195,195,195)" stroke="none" d="M 4446,23360 L 4446,23770 3749,24173 3749,23360 4446,23360 Z M 3749,23337 L 3749,22320 4446,21917 4446,23337 3749,23337 Z"/>
     <path fill="rgb(196,196,196)" stroke="none" d="M 4446,23337 L 4446,23770 3749,24173 3749,23337 4446,23337 Z M 3749,23315 L 3749,22320 4446,21917 4446,23315 3749,23315 Z"/>
     <path fill="rgb(197,197,197)" stroke="none" d="M 4446,23315 L 4446,23770 3749,24173 3749,23315 4446,23315 Z M 3749,23292 L 3749,22320 4446,21917 4446,23292 3749,23292 Z"/>
     <path fill="rgb(198,198,198)" stroke="none" d="M 4446,23292 L 4446,23770 3749,24173 3749,23292 4446,23292 Z M 3749,23270 L 3749,22320 4446,21917 4446,23270 3749,23270 Z"/>
     <path fill="rgb(199,199,199)" stroke="none" d="M 4446,23270 L 4446,23770 3749,24173 3749,23270 4446,23270 Z M 4446,21938 L 4446,23247 3749,23247 3749,22320 4410,21938 4446,21938 Z"/>
     <path fill="rgb(200,200,200)" stroke="none" d="M 4446,23247 L 4446,23770 3749,24173 3749,23247 4446,23247 Z M 4410,21938 L 4446,21917 4446,21938 4410,21938 Z M 4446,21960 L 4446,23225 3749,23225 3749,22320 4372,21960 4446,21960 Z"/>
     <path fill="rgb(201,201,201)" stroke="none" d="M 4446,23225 L 4446,23770 3749,24173 3749,23225 4446,23225 Z M 4372,21960 L 4446,21917 4446,21960 4372,21960 Z M 4446,21983 L 4446,23202 3749,23202 3749,22320 4332,21983 4446,21983 Z"/>
     <path fill="rgb(202,202,202)" stroke="none" d="M 4446,23202 L 4446,23770 3749,24173 3749,23202 4446,23202 Z M 4332,21983 L 4446,21917 4446,21983 4332,21983 Z M 4446,22006 L 4446,23179 3749,23179 3749,22320 4292,22006 4446,22006 Z"/>
     <path fill="rgb(203,203,203)" stroke="none" d="M 4446,23179 L 4446,23770 3749,24173 3749,23179 4446,23179 Z M 4292,22006 L 4446,21917 4446,22006 4292,22006 Z M 4446,22028 L 4446,23157 3749,23157 3749,22320 4254,22028 4446,22028 Z"/>
     <path fill="rgb(204,204,204)" stroke="none" d="M 4446,23157 L 4446,23770 3749,24173 3749,23157 4446,23157 Z M 4254,22028 L 4446,21917 4446,22028 4254,22028 Z M 4446,22051 L 4446,23134 3749,23134 3749,22320 4214,22051 4446,22051 Z"/>
     <path fill="rgb(205,205,205)" stroke="none" d="M 4446,23134 L 4446,23770 3749,24173 3749,23134 4446,23134 Z M 4214,22051 L 4446,21917 4446,22051 4214,22051 Z M 4446,22073 L 4446,23112 3749,23112 3749,22320 4176,22073 4446,22073 Z"/>
     <path fill="rgb(206,206,206)" stroke="none" d="M 4446,23112 L 4446,23770 3749,24173 3749,23112 4446,23112 Z M 4176,22073 L 4446,21917 4446,22073 4176,22073 Z M 4446,22096 L 4446,23089 3749,23089 3749,22320 4136,22096 4446,22096 Z"/>
     <path fill="rgb(207,207,207)" stroke="none" d="M 4446,23089 L 4446,23770 3749,24173 3749,23089 4446,23089 Z M 4136,22096 L 4446,21917 4446,22096 4136,22096 Z M 4431,22119 L 4431,23066 3749,23066 3749,22320 4097,22119 4431,22119 Z"/>
     <path fill="rgb(208,208,208)" stroke="none" d="M 4431,23066 L 4431,22119 4097,22119 4446,21917 4446,23770 3749,24173 3749,23066 4431,23066 Z M 4409,22141 L 4409,23044 3749,23044 3749,22320 4059,22141 4409,22141 Z"/>
     <path fill="rgb(209,209,209)" stroke="none" d="M 4409,23044 L 4409,22141 4059,22141 4446,21917 4446,23770 3749,24173 3749,23044 4409,23044 Z M 4386,22164 L 4386,23021 3749,23021 3749,22320 4019,22164 4386,22164 Z"/>
     <path fill="rgb(210,210,210)" stroke="none" d="M 4386,23021 L 4386,22164 4019,22164 4446,21917 4446,23770 3749,24173 3749,23021 4386,23021 Z M 4364,22186 L 4364,22999 3749,22999 3749,22320 3981,22186 4364,22186 Z"/>
     <path fill="rgb(211,211,211)" stroke="none" d="M 4364,22999 L 4364,22186 3981,22186 4446,21917 4446,23770 3749,24173 3749,22999 4364,22999 Z M 4341,22209 L 4341,22976 3749,22976 3749,22320 3941,22209 4341,22209 Z"/>
     <path fill="rgb(212,212,212)" stroke="none" d="M 4341,22976 L 4341,22209 3941,22209 4446,21917 4446,23770 3749,24173 3749,22976 4341,22976 Z M 4318,22232 L 4318,22953 3749,22953 3749,22320 3901,22232 4318,22232 Z"/>
     <path fill="rgb(213,213,213)" stroke="none" d="M 4318,22953 L 4318,22232 3901,22232 4446,21917 4446,23770 3749,24173 3749,22953 4318,22953 Z M 4296,22254 L 4296,22931 3749,22931 3749,22320 3863,22254 4296,22254 Z"/>
     <path fill="rgb(214,214,214)" stroke="none" d="M 4296,22931 L 4296,22254 3863,22254 4446,21917 4446,23770 3749,24173 3749,22931 4296,22931 Z M 4273,22277 L 4273,22908 3749,22908 3749,22320 3823,22277 4273,22277 Z"/>
     <path fill="rgb(215,215,215)" stroke="none" d="M 4273,22908 L 4273,22277 3823,22277 4446,21917 4446,23770 3749,24173 3749,22908 4273,22908 Z M 4251,22299 L 4251,22886 3749,22886 3749,22320 3785,22299 4251,22299 Z"/>
     <path fill="rgb(216,216,216)" stroke="none" d="M 4251,22886 L 4251,22299 3785,22299 4446,21917 4446,23770 3749,24173 3749,22886 4251,22886 Z M 4228,22322 L 4228,22863 3749,22863 3749,22322 4228,22322 Z"/>
     <path fill="rgb(217,217,217)" stroke="none" d="M 4228,22863 L 4228,22322 3749,22322 3749,22320 4446,21917 4446,23770 3749,24173 3749,22863 4228,22863 Z M 4205,22345 L 4205,22840 3749,22840 3749,22345 4205,22345 Z"/>
     <path fill="rgb(218,218,218)" stroke="none" d="M 4205,22840 L 4205,22345 3749,22345 3749,22320 4446,21917 4446,23770 3749,24173 3749,22840 4205,22840 Z M 4183,22367 L 4183,22818 3749,22818 3749,22367 4183,22367 Z"/>
     <path fill="rgb(219,219,219)" stroke="none" d="M 4183,22818 L 4183,22367 3749,22367 3749,22320 4446,21917 4446,23770 3749,24173 3749,22818 4183,22818 Z M 3755,22390 L 4160,22390 4160,22795 3755,22795 3755,22390 Z"/>
     <path fill="rgb(220,220,220)" stroke="none" d="M 3755,22390 L 3755,22795 4160,22795 4160,22390 3755,22390 Z M 3777,22412 L 4138,22412 4138,22773 3777,22773 3777,22412 Z M 3749,24173 L 3749,22320 4446,21917 4446,23770 3749,24173 Z"/>
     <path fill="rgb(221,221,221)" stroke="none" d="M 3777,22412 L 3777,22773 4138,22773 4138,22412 3777,22412 Z M 3800,22435 L 4115,22435 4115,22750 3800,22750 3800,22435 Z M 3749,24173 L 3749,22320 4446,21917 4446,23770 3749,24173 Z"/>
     <path fill="rgb(222,222,222)" stroke="none" d="M 3800,22435 L 3800,22750 4115,22750 4115,22435 3800,22435 Z M 3822,22457 L 4093,22457 4093,22728 3822,22728 3822,22457 Z M 3749,24173 L 3749,22320 4446,21917 4446,23770 3749,24173 Z"/>
     <path fill="rgb(223,223,223)" stroke="none" d="M 3822,22457 L 3822,22728 4093,22728 4093,22457 3822,22457 Z M 3845,22480 L 4070,22480 4070,22705 3845,22705 3845,22480 Z M 3749,24173 L 3749,22320 4446,21917 4446,23770 3749,24173 Z"/>
     <path fill="rgb(224,224,224)" stroke="none" d="M 3845,22480 L 3845,22705 4070,22705 4070,22480 3845,22480 Z M 3868,22503 L 4047,22503 4047,22682 3868,22682 3868,22503 Z M 3749,24173 L 3749,22320 4446,21917 4446,23770 3749,24173 Z"/>
     <path fill="rgb(225,225,225)" stroke="none" d="M 3868,22503 L 3868,22682 4047,22682 4047,22503 3868,22503 Z M 3890,22525 L 4025,22525 4025,22660 3890,22660 3890,22525 Z M 3749,24173 L 3749,22320 4446,21917 4446,23770 3749,24173 Z"/>
     <path fill="rgb(226,226,226)" stroke="none" d="M 3890,22525 L 3890,22660 4025,22660 4025,22525 3890,22525 Z M 3913,22548 L 4002,22548 4002,22637 3913,22637 3913,22548 Z M 3749,24173 L 3749,22320 4446,21917 4446,23770 3749,24173 Z"/>
     <path fill="rgb(227,227,227)" stroke="none" d="M 3913,22548 L 3913,22637 4002,22637 4002,22548 3913,22548 Z M 3935,22570 L 3980,22570 3980,22615 3935,22615 3935,22570 Z M 3749,24173 L 3749,22320 4446,21917 4446,23770 3749,24173 Z"/>
     <path fill="rgb(229,229,229)" stroke="none" d="M 3935,22570 L 3935,22615 3980,22615 3980,22570 3935,22570 Z M 3749,24173 L 3749,22320 4446,21917 4446,23770 3749,24173 Z"/>
     <path fill="none" stroke="rgb(255,255,255)" id="Drawing_2_0" stroke-width="40" stroke-linejoin="round" d="M 3749,24173 L 3749,22320 4446,21917 4446,23770 3749,24173 Z"/>
    </g>
    <g>
     <defs>
      <linearGradient id="Gradient_1208" gradientUnits="userSpaceOnUse" x1="3609" y1="21354" x2="3609" y2="22321">
       <stop offset="0.1" stop-color="rgb(179,179,179)"/>
       <stop offset="1" stop-color="rgb(229,229,229)"/>
      </linearGradient>
     </defs>
     <path fill="url(#Gradient_1208)" stroke="rgb(255,255,255)" id="Drawing_3_0" stroke-width="40" stroke-linejoin="round" d="M 3749,22321 L 2773,21757 3470,21354 4445,21918 3749,22321 Z"/>
    </g>
    <g>
     <defs>
      <linearGradient id="Gradient_1209" gradientUnits="userSpaceOnUse" x1="2771" y1="22963" x2="3751" y2="22965">
       <stop offset="0.1" stop-color="rgb(179,179,179)"/>
       <stop offset="1" stop-color="rgb(229,229,229)"/>
      </linearGradient>
     </defs>
     <path fill="url(#Gradient_1209)" stroke="rgb(255,255,255)" id="Drawing_4_0" stroke-width="40" stroke-linejoin="round" d="M 2773,23609 L 2773,21756 3749,22320 3749,24173 2773,23609 Z"/>
    </g>
    <g>
     <path fill="rgb(153,255,102)" stroke="none" d="M 3052,22482 L 3052,22240 3191,22321 3191,22562 3052,22482 Z"/>
     <path fill="none" stroke="rgb(51,51,51)" id="Drawing_5_0" stroke-width="40" stroke-linejoin="round" d="M 3052,22482 L 3052,22240 3191,22321 3191,22562 3052,22482 Z"/>
    </g>
    <g>
     <defs>
      <linearGradient id="Gradient_1210" gradientUnits="userSpaceOnUse" x1="3608" y1="21554" x2="4305" y2="21556">
       <stop offset="0.1" stop-color="rgb(179,179,179)"/>
       <stop offset="1" stop-color="rgb(229,229,229)"/>
      </linearGradient>
     </defs>
     <path fill="url(#Gradient_1210)" stroke="rgb(255,255,255)" id="Drawing_6_0" stroke-width="40" stroke-linejoin="round" d="M 3609,21434 L 3609,21273 4306,21676 4306,21837 3609,21434 Z"/>
    </g>
    <g>
     <path fill="none" stroke="rgb(0,0,0)" id="Drawing_7_0" stroke-width="40" stroke-linejoin="round" d="M 2773,23609 L 2773,21756 3470,21354 3609,21434 3609,21273 4306,21676 4306,21837 4445,21917 4445,23770 3749,24173 2773,23609 Z"/>
    </g>
    <g>
     <path fill="rgb(204,204,204)" stroke="none" d="M 3191,21756 L 3191,19823 3330,19823 3330,21756 3191,21756 Z"/>
     <path fill="none" stroke="rgb(0,0,0)" id="Drawing_8_0" stroke-width="40" stroke-linejoin="round" d="M 3191,21756 L 3191,19823 3330,19823 3330,21756 3191,21756 Z"/>
    </g>
    <g>
     <path fill="rgb(0,0,0)" stroke="none" d="M 3330,23690 L 3330,23448 3469,23529 3469,23770 3330,23690 Z"/>
     <path fill="none" stroke="rgb(102,102,102)" id="Drawing_9_0" stroke-width="40" stroke-linejoin="round" d="M 3330,23690 L 3330,23448 3469,23529 3469,23770 3330,23690 Z"/>
    </g>
   </g>
  </g>
 </g>
</svg>