<?xml version="1.0" encoding="UTF-8"?>

<svg version="1.2" baseProfile="tiny" width="23.41mm" height="34mm" viewBox="7778 3516 2341 3400" preserveAspectRatio="xMidYMid" fill-rule="evenodd" stroke-width="28.222" stroke-linejoin="round" xmlns="http://www.w3.org/2000/svg" xmlns:xlink="http://www.w3.org/1999/xlink" xml:space="preserve">
 <g visibility="visible" id="Slide_1">
  <g id="DrawingGroup_1">
   <g>
    <path fill="rgb(221,221,221)" stroke="none" d="M 8442,6896 C 8796,6896 10118,6523 10118,6224 10118,5925 10085,5776 9732,5776 9732,6001 8442,6596 8442,6896 Z"/>
    <path fill="none" stroke="rgb(221,221,221)" id="Drawing_1_0" stroke-linejoin="round" d="M 8442,6896 C 8796,6896 10118,6523 10118,6224 10118,5925 10085,5776 9732,5776 9732,6001 8442,6596 8442,6896 Z"/>
   </g>
   <g id="DrawingGroup_2">
    <g>
     <path fill="rgb(179,179,179)" stroke="none" d="M 8442,6269 L 8442,4656 9732,3909 9732,6149 9525,6269 8442,6269 Z"/>
     <path fill="rgb(180,180,180)" stroke="none" d="M 9525,6269 L 8442,6896 8442,6269 9525,6269 Z M 8442,6239 L 8442,4656 9732,3909 9732,6149 9577,6239 8442,6239 Z"/>
     <path fill="rgb(181,181,181)" stroke="none" d="M 9577,6239 L 8442,6896 8442,6239 9577,6239 Z M 8442,6209 L 8442,4656 9732,3909 9732,6149 9628,6209 8442,6209 Z"/>
     <path fill="rgb(182,182,182)" stroke="none" d="M 9628,6209 L 8442,6896 8442,6209 9628,6209 Z M 8442,6179 L 8442,4656 9732,3909 9732,6149 9680,6179 8442,6179 Z"/>
     <path fill="rgb(183,183,183)" stroke="none" d="M 9680,6179 L 8442,6896 8442,6179 9680,6179 Z M 8442,6149 L 8442,4656 9732,3909 9732,6149 8442,6149 Z"/>
     <path fill="rgb(184,184,184)" stroke="none" d="M 9732,6149 L 8442,6896 8442,6149 9732,6149 Z M 8442,6119 L 8442,4656 9732,3909 9732,6119 8442,6119 Z"/>
     <path fill="rgb(185,185,185)" stroke="none" d="M 9732,6119 L 9732,6149 8442,6896 8442,6119 9732,6119 Z M 8442,6089 L 8442,4656 9732,3909 9732,6089 8442,6089 Z"/>
     <path fill="rgb(186,186,186)" stroke="none" d="M 9732,6089 L 9732,6149 8442,6896 8442,6089 9732,6089 Z M 8442,6059 L 8442,4656 9732,3909 9732,6059 8442,6059 Z"/>
     <path fill="rgb(187,187,187)" stroke="none" d="M 9732,6059 L 9732,6149 8442,6896 8442,6059 9732,6059 Z M 8442,6029 L 8442,4656 9732,3909 9732,6029 8442,6029 Z"/>
     <path fill="rgb(188,188,188)" stroke="none" d="M 9732,6029 L 9732,6149 8442,6896 8442,6029 9732,6029 Z M 8442,5999 L 8442,4656 9732,3909 9732,5999 8442,5999 Z"/>
     <path fill="rgb(189,189,189)" stroke="none" d="M 9732,5999 L 9732,6149 8442,6896 8442,5999 9732,5999 Z M 8442,5970 L 8442,4656 9732,3909 9732,5970 8442,5970 Z"/>
     <path fill="rgb(190,190,190)" stroke="none" d="M 9732,5970 L 9732,6149 8442,6896 8442,5970 9732,5970 Z M 8442,5940 L 8442,4656 9732,3909 9732,5940 8442,5940 Z"/>
     <path fill="rgb(191,191,191)" stroke="none" d="M 9732,5940 L 9732,6149 8442,6896 8442,5940 9732,5940 Z M 8442,5910 L 8442,4656 9732,3909 9732,5910 8442,5910 Z"/>
     <path fill="rgb(192,192,192)" stroke="none" d="M 9732,5910 L 9732,6149 8442,6896 8442,5910 9732,5910 Z M 8442,5880 L 8442,4656 9732,3909 9732,5880 8442,5880 Z"/>
     <path fill="rgb(193,193,193)" stroke="none" d="M 9732,5880 L 9732,6149 8442,6896 8442,5880 9732,5880 Z M 8442,5850 L 8442,4656 9732,3909 9732,5850 8442,5850 Z"/>
     <path fill="rgb(194,194,194)" stroke="none" d="M 9732,5850 L 9732,6149 8442,6896 8442,5850 9732,5850 Z M 8442,5820 L 8442,4656 9732,3909 9732,5820 8442,5820 Z"/>
     <path fill="rgb(195,195,195)" stroke="none" d="M 9732,5820 L 9732,6149 8442,6896 8442,5820 9732,5820 Z M 8442,5790 L 8442,4656 9732,3909 9732,5790 8442,5790 Z"/>
     <path fill="rgb(196,196,196)" stroke="none" d="M 9732,5790 L 9732,6149 8442,6896 8442,5790 9732,5790 Z M 8442,5760 L 8442,4656 9732,3909 9732,5760 8442,5760 Z"/>
     <path fill="rgb(197,197,197)" stroke="none" d="M 9732,5760 L 9732,6149 8442,6896 8442,5760 9732,5760 Z M 8442,5730 L 8442,4656 9732,3909 9732,5730 8442,5730 Z"/>
     <path fill="rgb(198,198,198)" stroke="none" d="M 9732,5730 L 9732,6149 8442,6896 8442,5730 9732,5730 Z M 9723,5700 L 8442,5700 8442,4656 9723,3914 9723,5700 Z"/>
     <path fill="rgb(199,199,199)" stroke="none" d="M 9723,5700 L 9723,3914 9732,3909 9732,6149 8442,6896 8442,5700 9723,5700 Z M 9694,3937 L 9694,5671 8442,5671 8442,4656 9684,3937 9694,3937 Z"/>
     <path fill="rgb(200,200,200)" stroke="none" d="M 9694,5671 L 9694,3937 9684,3937 9732,3909 9732,6149 8442,6896 8442,5671 9694,5671 Z M 9664,3967 L 9664,5641 8442,5641 8442,4656 9632,3967 9664,3967 Z"/>
     <path fill="rgb(201,201,201)" stroke="none" d="M 9664,5641 L 9664,3967 9632,3967 9732,3909 9732,6149 8442,6896 8442,5641 9664,5641 Z M 9634,3997 L 9634,5611 8442,5611 8442,4656 9580,3997 9634,3997 Z"/>
     <path fill="rgb(202,202,202)" stroke="none" d="M 9634,5611 L 9634,3997 9580,3997 9732,3909 9732,6149 8442,6896 8442,5611 9634,5611 Z M 9604,4027 L 9604,5581 8442,5581 8442,4656 9528,4027 9604,4027 Z"/>
     <path fill="rgb(203,203,203)" stroke="none" d="M 9604,5581 L 9604,4027 9528,4027 9732,3909 9732,6149 8442,6896 8442,5581 9604,5581 Z M 9574,4057 L 9574,5551 8442,5551 8442,4656 9476,4057 9574,4057 Z"/>
     <path fill="rgb(204,204,204)" stroke="none" d="M 9574,5551 L 9574,4057 9476,4057 9732,3909 9732,6149 8442,6896 8442,5551 9574,5551 Z M 9544,4087 L 9544,5521 8442,5521 8442,4656 9425,4087 9544,4087 Z"/>
     <path fill="rgb(205,205,205)" stroke="none" d="M 9544,5521 L 9544,4087 9425,4087 9732,3909 9732,6149 8442,6896 8442,5521 9544,5521 Z M 9514,4117 L 9514,5491 8442,5491 8442,4656 9373,4117 9514,4117 Z"/>
     <path fill="rgb(206,206,206)" stroke="none" d="M 9514,5491 L 9514,4117 9373,4117 9732,3909 9732,6149 8442,6896 8442,5491 9514,5491 Z M 9484,4147 L 9484,5461 8442,5461 8442,4656 9321,4147 9484,4147 Z"/>
     <path fill="rgb(207,207,207)" stroke="none" d="M 9484,5461 L 9484,4147 9321,4147 9732,3909 9732,6149 8442,6896 8442,5461 9484,5461 Z M 9454,4177 L 9454,5431 8442,5431 8442,4656 9269,4177 9454,4177 Z"/>
     <path fill="rgb(208,208,208)" stroke="none" d="M 9454,5431 L 9454,4177 9269,4177 9732,3909 9732,6149 8442,6896 8442,5431 9454,5431 Z M 9424,4206 L 9424,5401 8442,5401 8442,4656 9219,4206 9424,4206 Z"/>
     <path fill="rgb(209,209,209)" stroke="none" d="M 9424,5401 L 9424,4206 9219,4206 9732,3909 9732,6149 8442,6896 8442,5401 9424,5401 Z M 9395,4236 L 9395,5372 8442,5372 8442,4656 9167,4236 9395,4236 Z"/>
     <path fill="rgb(210,210,210)" stroke="none" d="M 9395,5372 L 9395,4236 9167,4236 9732,3909 9732,6149 8442,6896 8442,5372 9395,5372 Z M 9365,4266 L 9365,5342 8442,5342 8442,4656 9115,4266 9365,4266 Z"/>
     <path fill="rgb(211,211,211)" stroke="none" d="M 9365,5342 L 9365,4266 9115,4266 9732,3909 9732,6149 8442,6896 8442,5342 9365,5342 Z M 9335,4296 L 9335,5312 8442,5312 8442,4656 9064,4296 9335,4296 Z"/>
     <path fill="rgb(212,212,212)" stroke="none" d="M 9335,5312 L 9335,4296 9064,4296 9732,3909 9732,6149 8442,6896 8442,5312 9335,5312 Z M 9305,4326 L 9305,5282 8442,5282 8442,4656 9012,4326 9305,4326 Z"/>
     <path fill="rgb(213,213,213)" stroke="none" d="M 9305,5282 L 9305,4326 9012,4326 9732,3909 9732,6149 8442,6896 8442,5282 9305,5282 Z M 9275,4356 L 9275,5252 8442,5252 8442,4656 8960,4356 9275,4356 Z"/>
     <path fill="rgb(214,214,214)" stroke="none" d="M 9275,5252 L 9275,4356 8960,4356 9732,3909 9732,6149 8442,6896 8442,5252 9275,5252 Z M 9245,4386 L 9245,5222 8442,5222 8442,4656 8908,4386 9245,4386 Z"/>
     <path fill="rgb(215,215,215)" stroke="none" d="M 9245,5222 L 9245,4386 8908,4386 9732,3909 9732,6149 8442,6896 8442,5222 9245,5222 Z M 9215,4416 L 9215,5192 8442,5192 8442,4656 8856,4416 9215,4416 Z"/>
     <path fill="rgb(216,216,216)" stroke="none" d="M 9215,5192 L 9215,4416 8856,4416 9732,3909 9732,6149 8442,6896 8442,5192 9215,5192 Z M 9185,4446 L 9185,5162 8469,5162 8469,4640 8805,4446 9185,4446 Z"/>
     <path fill="rgb(217,217,217)" stroke="none" d="M 8469,5162 L 9185,5162 9185,4446 8805,4446 9732,3909 9732,6149 8442,6896 8442,4656 8469,4640 8469,5162 Z M 9155,4476 L 9155,5132 8499,5132 8499,4623 8753,4476 9155,4476 Z"/>
     <path fill="rgb(218,218,218)" stroke="none" d="M 8499,5132 L 9155,5132 9155,4476 8753,4476 9732,3909 9732,6149 8442,6896 8442,4656 8499,4623 8499,5132 Z M 9125,4505 L 9125,5102 8528,5102 8528,4606 8703,4505 9125,4505 Z"/>
     <path fill="rgb(219,219,219)" stroke="none" d="M 8528,5102 L 9125,5102 9125,4505 8703,4505 9732,3909 9732,6149 8442,6896 8442,4656 8528,4606 8528,5102 Z M 9096,4535 L 9096,5073 8558,5073 8558,4589 8651,4535 9096,4535 Z"/>
     <path fill="rgb(220,220,220)" stroke="none" d="M 8558,5073 L 9096,5073 9096,4535 8651,4535 9732,3909 9732,6149 8442,6896 8442,4656 8558,4589 8558,5073 Z M 9066,4565 L 9066,5043 8588,5043 8588,4571 8599,4565 9066,4565 Z"/>
     <path fill="rgb(221,221,221)" stroke="none" d="M 8588,5043 L 9066,5043 9066,4565 8599,4565 9732,3909 9732,6149 8442,6896 8442,4656 8588,4571 8588,5043 Z M 8618,4595 L 9036,4595 9036,5013 8618,5013 8618,4595 Z"/>
     <path fill="rgb(222,222,222)" stroke="none" d="M 8618,4595 L 8618,5013 9036,5013 9036,4595 8618,4595 Z M 8648,4625 L 9006,4625 9006,4983 8648,4983 8648,4625 Z M 8442,6896 L 8442,4656 9732,3909 9732,6149 8442,6896 Z"/>
     <path fill="rgb(223,223,223)" stroke="none" d="M 8648,4625 L 8648,4983 9006,4983 9006,4625 8648,4625 Z M 8678,4655 L 8976,4655 8976,4953 8678,4953 8678,4655 Z M 8442,6896 L 8442,4656 9732,3909 9732,6149 8442,6896 Z"/>
     <path fill="rgb(224,224,224)" stroke="none" d="M 8678,4655 L 8678,4953 8976,4953 8976,4655 8678,4655 Z M 8708,4685 L 8946,4685 8946,4923 8708,4923 8708,4685 Z M 8442,6896 L 8442,4656 9732,3909 9732,6149 8442,6896 Z"/>
     <path fill="rgb(225,225,225)" stroke="none" d="M 8708,4685 L 8708,4923 8946,4923 8946,4685 8708,4685 Z M 8738,4715 L 8916,4715 8916,4893 8738,4893 8738,4715 Z M 8442,6896 L 8442,4656 9732,3909 9732,6149 8442,6896 Z"/>
     <path fill="rgb(226,226,226)" stroke="none" d="M 8738,4715 L 8738,4893 8916,4893 8916,4715 8738,4715 Z M 8768,4745 L 8886,4745 8886,4863 8768,4863 8768,4745 Z M 8442,6896 L 8442,4656 9732,3909 9732,6149 8442,6896 Z"/>
     <path fill="rgb(227,227,227)" stroke="none" d="M 8768,4745 L 8768,4863 8886,4863 8886,4745 8768,4745 Z M 8798,4775 L 8856,4775 8856,4833 8798,4833 8798,4775 Z M 8442,6896 L 8442,4656 9732,3909 9732,6149 8442,6896 Z"/>
     <path fill="rgb(229,229,229)" stroke="none" d="M 8798,4775 L 8798,4833 8856,4833 8856,4775 8798,4775 Z M 8442,6896 L 8442,4656 9732,3909 9732,6149 8442,6896 Z"/>
     <path fill="none" stroke="rgb(255,255,255)" id="Drawing_2_0" stroke-width="40" stroke-linejoin="round" d="M 8442,6896 L 8442,4656 9732,3909 9732,6149 8442,6896 Z"/>
    </g>
    <g>
     <defs>
      <linearGradient id="Gradient_1176" gradientUnits="userSpaceOnUse" x1="8765" y1="3536" x2="8765" y2="4656">
       <stop offset="0.1" stop-color="rgb(179,179,179)"/>
       <stop offset="1" stop-color="rgb(229,229,229)"/>
      </linearGradient>
     </defs>
     <path fill="url(#Gradient_1176)" stroke="rgb(255,255,255)" id="Drawing_3_0" stroke-width="40" stroke-linejoin="round" d="M 8442,4656 L 7798,4283 9088,3536 9732,3909 8442,4656 Z"/>
    </g>
    <g>
     <defs>
      <linearGradient id="Gradient_1177" gradientUnits="userSpaceOnUse" x1="7796" y1="5588" x2="8444" y2="5590">
       <stop offset="0.1" stop-color="rgb(179,179,179)"/>
       <stop offset="1" stop-color="rgb(229,229,229)"/>
      </linearGradient>
     </defs>
     <path fill="url(#Gradient_1177)" stroke="rgb(255,255,255)" id="Drawing_4_0" stroke-width="40" stroke-linejoin="round" d="M 7798,6523 L 7798,4283 8442,4656 8442,6896 7798,6523 Z"/>
    </g>
    <g>
     <path fill="none" stroke="rgb(0,0,0)" id="Drawing_5_0" stroke-width="40" stroke-linejoin="round" d="M 7798,6523 L 7798,4283 9088,3536 9732,3909 9732,6149 8442,6896 7798,6523 Z"/>
    </g>
    <g>
     <path fill="rgb(127,127,127)" stroke="none" d="M 7926,6373 L 7926,6000 8054,6074 8054,6448 7926,6373 Z"/>
     <path fill="none" stroke="rgb(0,0,0)" id="Drawing_6_0" stroke-width="40" stroke-linejoin="round" d="M 7926,6373 L 7926,6000 8054,6074 8054,6448 7926,6373 Z"/>
    </g>
    <g>
     <path fill="rgb(127,127,127)" stroke="none" d="M 8184,6522 L 8184,6149 8312,6223 8312,6597 8184,6522 Z"/>
     <path fill="none" stroke="rgb(0,0,0)" id="Drawing_7_0" stroke-width="40" stroke-linejoin="round" d="M 8184,6522 L 8184,6149 8312,6223 8312,6597 8184,6522 Z"/>
    </g>
    <g>
     <path fill="rgb(127,127,127)" stroke="none" d="M 7926,5627 L 7926,5402 8054,5476 8054,5701 7926,5627 Z"/>
     <path fill="none" stroke="rgb(0,0,0)" id="Drawing_8_0" stroke-width="40" stroke-linejoin="round" d="M 7926,5627 L 7926,5402 8054,5476 8054,5701 7926,5627 Z"/>
    </g>
    <g>
     <path fill="rgb(153,255,102)" stroke="none" d="M 7926,4806 L 7926,4581 8054,4655 8054,4880 7926,4806 Z"/>
     <path fill="none" stroke="rgb(51,51,51)" id="Drawing_9_0" stroke-width="40" stroke-linejoin="round" d="M 7926,4806 L 7926,4581 8054,4655 8054,4880 7926,4806 Z"/>
    </g>
   </g>
  </g>
 </g>
</svg>