<?xml version="1.0" encoding="UTF-8"?>

<svg version="1.2" baseProfile="tiny" width="23.46mm" height="34mm" viewBox="7852 14326 2346 3400" preserveAspectRatio="xMidYMid" fill-rule="evenodd" stroke-width="28.222" stroke-linejoin="round" xmlns="http://www.w3.org/2000/svg" xmlns:xlink="http://www.w3.org/1999/xlink" xml:space="preserve">
 <g visibility="visible" id="Slide_1">
  <g id="DrawingGroup_1">
   <g>
    <path fill="rgb(221,221,221)" stroke="none" d="M 8518,17706 C 8873,17706 10197,17333 10197,17034 10197,16735 10164,16586 9810,16586 9810,16810 8518,17407 8518,17706 Z"/>
    <path fill="none" stroke="rgb(221,221,221)" id="Drawing_1_0" stroke-linejoin="round" d="M 8518,17706 C 8873,17706 10197,17333 10197,17034 10197,16735 10164,16586 9810,16586 9810,16810 8518,17407 8518,17706 Z"/>
   </g>
   <g id="DrawingGroup_2">
    <g>
     <path fill="rgb(51,51,51)" stroke="none" d="M 8518,17094 L 8518,15466 9810,14719 9810,16959 9577,17094 8518,17094 Z"/>
     <path fill="rgb(52,52,52)" stroke="none" d="M 9577,17094 L 8518,17706 8518,17094 9577,17094 Z M 8518,17079 L 8518,15466 9810,14719 9810,16959 9602,17079 8518,17079 Z"/>
     <path fill="rgb(53,53,53)" stroke="none" d="M 9602,17079 L 8518,17706 8518,17079 9602,17079 Z M 8518,17065 L 8518,15466 9810,14719 9810,16959 9627,17065 8518,17065 Z"/>
     <path fill="rgb(54,54,54)" stroke="none" d="M 9627,17065 L 8518,17706 8518,17065 9627,17065 Z M 8518,17050 L 8518,15466 9810,14719 9810,16959 9653,17050 8518,17050 Z"/>
     <path fill="rgb(55,55,55)" stroke="none" d="M 9653,17050 L 8518,17706 8518,17050 9653,17050 Z M 8518,17035 L 8518,15466 9810,14719 9810,16959 9679,17035 8518,17035 Z"/>
     <path fill="rgb(56,56,56)" stroke="none" d="M 9679,17035 L 8518,17706 8518,17035 9679,17035 Z M 8518,17021 L 8518,15466 9810,14719 9810,16959 9703,17021 8518,17021 Z"/>
     <path fill="rgb(57,57,57)" stroke="none" d="M 9703,17021 L 8518,17706 8518,17021 9703,17021 Z M 8518,17006 L 8518,15466 9810,14719 9810,16959 9729,17006 8518,17006 Z"/>
     <path fill="rgb(58,58,58)" stroke="none" d="M 9729,17006 L 8518,17706 8518,17006 9729,17006 Z M 8518,16991 L 8518,15466 9810,14719 9810,16959 9755,16991 8518,16991 Z"/>
     <path fill="rgb(59,59,59)" stroke="none" d="M 9755,16991 L 8518,17706 8518,16991 9755,16991 Z M 8518,16977 L 8518,15466 9810,14719 9810,16959 9779,16977 8518,16977 Z"/>
     <path fill="rgb(60,60,60)" stroke="none" d="M 9779,16977 L 8518,17706 8518,16977 9779,16977 Z M 8518,16962 L 8518,15466 9810,14719 9810,16959 9805,16962 8518,16962 Z"/>
     <path fill="rgb(61,61,61)" stroke="none" d="M 9805,16962 L 8518,17706 8518,16962 9805,16962 Z M 8518,16947 L 8518,15466 9810,14719 9810,16947 8518,16947 Z"/>
     <path fill="rgb(62,62,62)" stroke="none" d="M 9810,16947 L 9810,16959 8518,17706 8518,16947 9810,16947 Z M 8518,16933 L 8518,15466 9810,14719 9810,16933 8518,16933 Z"/>
     <path fill="rgb(63,63,63)" stroke="none" d="M 9810,16933 L 9810,16959 8518,17706 8518,16933 9810,16933 Z M 8518,16918 L 8518,15466 9810,14719 9810,16918 8518,16918 Z"/>
     <path fill="rgb(64,64,64)" stroke="none" d="M 9810,16918 L 9810,16959 8518,17706 8518,16918 9810,16918 Z M 8518,16903 L 8518,15466 9810,14719 9810,16903 8518,16903 Z"/>
     <path fill="rgb(65,65,65)" stroke="none" d="M 9810,16903 L 9810,16959 8518,17706 8518,16903 9810,16903 Z M 8518,16889 L 8518,15466 9810,14719 9810,16889 8518,16889 Z"/>
     <path fill="rgb(66,66,66)" stroke="none" d="M 9810,16889 L 9810,16959 8518,17706 8518,16889 9810,16889 Z M 8518,16874 L 8518,15466 9810,14719 9810,16874 8518,16874 Z"/>
     <path fill="rgb(67,67,67)" stroke="none" d="M 9810,16874 L 9810,16959 8518,17706 8518,16874 9810,16874 Z M 8518,16859 L 8518,15466 9810,14719 9810,16859 8518,16859 Z"/>
     <path fill="rgb(68,68,68)" stroke="none" d="M 9810,16859 L 9810,16959 8518,17706 8518,16859 9810,16859 Z M 8518,16845 L 8518,15466 9810,14719 9810,16845 8518,16845 Z"/>
     <path fill="rgb(69,69,69)" stroke="none" d="M 9810,16845 L 9810,16959 8518,17706 8518,16845 9810,16845 Z M 8518,16830 L 8518,15466 9810,14719 9810,16830 8518,16830 Z"/>
     <path fill="rgb(70,70,70)" stroke="none" d="M 9810,16830 L 9810,16959 8518,17706 8518,16830 9810,16830 Z M 8518,16815 L 8518,15466 9810,14719 9810,16815 8518,16815 Z"/>
     <path fill="rgb(71,71,71)" stroke="none" d="M 9810,16815 L 9810,16959 8518,17706 8518,16815 9810,16815 Z M 8518,16801 L 8518,15466 9810,14719 9810,16801 8518,16801 Z"/>
     <path fill="rgb(72,72,72)" stroke="none" d="M 9810,16801 L 9810,16959 8518,17706 8518,16801 9810,16801 Z M 8518,16786 L 8518,15466 9810,14719 9810,16786 8518,16786 Z"/>
     <path fill="rgb(73,73,73)" stroke="none" d="M 9810,16786 L 9810,16959 8518,17706 8518,16786 9810,16786 Z M 8518,16771 L 8518,15466 9810,14719 9810,16771 8518,16771 Z"/>
     <path fill="rgb(74,74,74)" stroke="none" d="M 9810,16771 L 9810,16959 8518,17706 8518,16771 9810,16771 Z M 8518,16757 L 8518,15466 9810,14719 9810,16757 8518,16757 Z"/>
     <path fill="rgb(75,75,75)" stroke="none" d="M 9810,16757 L 9810,16959 8518,17706 8518,16757 9810,16757 Z M 8518,16742 L 8518,15466 9810,14719 9810,16742 8518,16742 Z"/>
     <path fill="rgb(76,76,76)" stroke="none" d="M 9810,16742 L 9810,16959 8518,17706 8518,16742 9810,16742 Z M 8518,16727 L 8518,15466 9810,14719 9810,16727 8518,16727 Z"/>
     <path fill="rgb(77,77,77)" stroke="none" d="M 9810,16727 L 9810,16959 8518,17706 8518,16727 9810,16727 Z M 8518,16713 L 8518,15466 9810,14719 9810,16713 8518,16713 Z"/>
     <path fill="rgb(78,78,78)" stroke="none" d="M 9810,16713 L 9810,16959 8518,17706 8518,16713 9810,16713 Z M 8518,16698 L 8518,15466 9810,14719 9810,16698 8518,16698 Z"/>
     <path fill="rgb(79,79,79)" stroke="none" d="M 9810,16698 L 9810,16959 8518,17706 8518,16698 9810,16698 Z M 8518,16683 L 8518,15466 9810,14719 9810,16683 8518,16683 Z"/>
     <path fill="rgb(80,80,80)" stroke="none" d="M 9810,16683 L 9810,16959 8518,17706 8518,16683 9810,16683 Z M 8518,16669 L 8518,15466 9810,14719 9810,16669 8518,16669 Z"/>
     <path fill="rgb(81,81,81)" stroke="none" d="M 9810,16669 L 9810,16959 8518,17706 8518,16669 9810,16669 Z M 8518,16654 L 8518,15466 9810,14719 9810,16654 8518,16654 Z"/>
     <path fill="rgb(82,82,82)" stroke="none" d="M 9810,16654 L 9810,16959 8518,17706 8518,16654 9810,16654 Z M 8518,16639 L 8518,15466 9810,14719 9810,16639 8518,16639 Z"/>
     <path fill="rgb(83,83,83)" stroke="none" d="M 9810,16639 L 9810,16959 8518,17706 8518,16639 9810,16639 Z M 8518,16625 L 8518,15466 9810,14719 9810,16625 8518,16625 Z"/>
     <path fill="rgb(84,84,84)" stroke="none" d="M 9810,16625 L 9810,16959 8518,17706 8518,16625 9810,16625 Z M 8518,16610 L 8518,15466 9810,14719 9810,16610 8518,16610 Z"/>
     <path fill="rgb(85,85,85)" stroke="none" d="M 9810,16610 L 9810,16959 8518,17706 8518,16610 9810,16610 Z M 8518,16596 L 8518,15466 9810,14719 9810,16596 8518,16596 Z"/>
     <path fill="rgb(86,86,86)" stroke="none" d="M 9810,16596 L 9810,16959 8518,17706 8518,16596 9810,16596 Z M 8518,16581 L 8518,15466 9810,14719 9810,16581 8518,16581 Z"/>
     <path fill="rgb(87,87,87)" stroke="none" d="M 9810,16581 L 9810,16959 8518,17706 8518,16581 9810,16581 Z M 8518,16566 L 8518,15466 9810,14719 9810,16566 8518,16566 Z"/>
     <path fill="rgb(88,88,88)" stroke="none" d="M 9810,16566 L 9810,16959 8518,17706 8518,16566 9810,16566 Z M 8518,16552 L 8518,15466 9810,14719 9810,16552 8518,16552 Z"/>
     <path fill="rgb(89,89,89)" stroke="none" d="M 9810,16552 L 9810,16959 8518,17706 8518,16552 9810,16552 Z M 8518,16537 L 8518,15466 9810,14719 9810,16537 8518,16537 Z"/>
     <path fill="rgb(90,90,90)" stroke="none" d="M 9810,16537 L 9810,16959 8518,17706 8518,16537 9810,16537 Z M 8518,16522 L 8518,15466 9810,14719 9810,16522 8518,16522 Z"/>
     <path fill="rgb(91,91,91)" stroke="none" d="M 9810,16522 L 9810,16959 8518,17706 8518,16522 9810,16522 Z M 9798,16508 L 8518,16508 8518,15466 9798,14726 9798,16508 Z"/>
     <path fill="rgb(92,92,92)" stroke="none" d="M 9798,16508 L 9798,14726 9810,14719 9810,16959 8518,17706 8518,16508 9798,16508 Z M 9783,14735 L 9783,16493 8518,16493 8518,15466 9782,14735 9783,14735 Z"/>
     <path fill="rgb(93,93,93)" stroke="none" d="M 9783,16493 L 9783,14735 9782,14735 9810,14719 9810,16959 8518,17706 8518,16493 9783,16493 Z M 9768,14750 L 9768,16478 8518,16478 8518,15466 9756,14750 9768,14750 Z"/>
     <path fill="rgb(94,94,94)" stroke="none" d="M 9768,16478 L 9768,14750 9756,14750 9810,14719 9810,16959 8518,17706 8518,16478 9768,16478 Z M 9754,14764 L 9754,16464 8518,16464 8518,15466 9732,14764 9754,14764 Z"/>
     <path fill="rgb(95,95,95)" stroke="none" d="M 9754,16464 L 9754,14764 9732,14764 9810,14719 9810,16959 8518,17706 8518,16464 9754,16464 Z M 9739,14779 L 9739,16449 8518,16449 8518,15466 9706,14779 9739,14779 Z"/>
     <path fill="rgb(96,96,96)" stroke="none" d="M 9739,16449 L 9739,14779 9706,14779 9810,14719 9810,16959 8518,17706 8518,16449 9739,16449 Z M 9724,14794 L 9724,16434 8518,16434 8518,15466 9680,14794 9724,14794 Z"/>
     <path fill="rgb(97,97,97)" stroke="none" d="M 9724,16434 L 9724,14794 9680,14794 9810,14719 9810,16959 8518,17706 8518,16434 9724,16434 Z M 9710,14808 L 9710,16420 8518,16420 8518,15466 9656,14808 9710,14808 Z"/>
     <path fill="rgb(98,98,98)" stroke="none" d="M 9710,16420 L 9710,14808 9656,14808 9810,14719 9810,16959 8518,17706 8518,16420 9710,16420 Z M 9695,14823 L 9695,16405 8518,16405 8518,15466 9630,14823 9695,14823 Z"/>
     <path fill="rgb(99,99,99)" stroke="none" d="M 9695,16405 L 9695,14823 9630,14823 9810,14719 9810,16959 8518,17706 8518,16405 9695,16405 Z M 9680,14838 L 9680,16390 8518,16390 8518,15466 9604,14838 9680,14838 Z"/>
     <path fill="rgb(100,100,100)" stroke="none" d="M 9680,16390 L 9680,14838 9604,14838 9810,14719 9810,16959 8518,17706 8518,16390 9680,16390 Z M 9666,14852 L 9666,16376 8518,16376 8518,15466 9580,14852 9666,14852 Z"/>
     <path fill="rgb(101,101,101)" stroke="none" d="M 9666,16376 L 9666,14852 9580,14852 9810,14719 9810,16959 8518,17706 8518,16376 9666,16376 Z M 9651,14867 L 9651,16361 8518,16361 8518,15466 9554,14867 9651,14867 Z"/>
     <path fill="rgb(102,102,102)" stroke="none" d="M 9651,16361 L 9651,14867 9554,14867 9810,14719 9810,16959 8518,17706 8518,16361 9651,16361 Z M 9636,14882 L 9636,16346 8518,16346 8518,15466 9528,14882 9636,14882 Z"/>
     <path fill="rgb(103,103,103)" stroke="none" d="M 9636,16346 L 9636,14882 9528,14882 9810,14719 9810,16959 8518,17706 8518,16346 9636,16346 Z M 9622,14896 L 9622,16332 8518,16332 8518,15466 9504,14896 9622,14896 Z"/>
     <path fill="rgb(104,104,104)" stroke="none" d="M 9622,16332 L 9622,14896 9504,14896 9810,14719 9810,16959 8518,17706 8518,16332 9622,16332 Z M 9607,14911 L 9607,16317 8518,16317 8518,15466 9478,14911 9607,14911 Z"/>
     <path fill="rgb(105,105,105)" stroke="none" d="M 9607,16317 L 9607,14911 9478,14911 9810,14719 9810,16959 8518,17706 8518,16317 9607,16317 Z M 9592,14926 L 9592,16302 8518,16302 8518,15466 9452,14926 9592,14926 Z"/>
     <path fill="rgb(106,106,106)" stroke="none" d="M 9592,16302 L 9592,14926 9452,14926 9810,14719 9810,16959 8518,17706 8518,16302 9592,16302 Z M 9578,14940 L 9578,16288 8518,16288 8518,15466 9428,14940 9578,14940 Z"/>
     <path fill="rgb(107,107,107)" stroke="none" d="M 9578,16288 L 9578,14940 9428,14940 9810,14719 9810,16959 8518,17706 8518,16288 9578,16288 Z M 9563,14955 L 9563,16273 8518,16273 8518,15466 9402,14955 9563,14955 Z"/>
     <path fill="rgb(108,108,108)" stroke="none" d="M 9563,16273 L 9563,14955 9402,14955 9810,14719 9810,16959 8518,17706 8518,16273 9563,16273 Z M 9548,14970 L 9548,16258 8518,16258 8518,15466 9376,14970 9548,14970 Z"/>
     <path fill="rgb(109,109,109)" stroke="none" d="M 9548,16258 L 9548,14970 9376,14970 9810,14719 9810,16959 8518,17706 8518,16258 9548,16258 Z M 9534,14984 L 9534,16244 8518,16244 8518,15466 9352,14984 9534,14984 Z"/>
     <path fill="rgb(110,110,110)" stroke="none" d="M 9534,16244 L 9534,14984 9352,14984 9810,14719 9810,16959 8518,17706 8518,16244 9534,16244 Z M 9519,14999 L 9519,16229 8518,16229 8518,15466 9326,14999 9519,14999 Z"/>
     <path fill="rgb(111,111,111)" stroke="none" d="M 9519,16229 L 9519,14999 9326,14999 9810,14719 9810,16959 8518,17706 8518,16229 9519,16229 Z M 9504,15014 L 9504,16214 8518,16214 8518,15466 9300,15014 9504,15014 Z"/>
     <path fill="rgb(112,112,112)" stroke="none" d="M 9504,16214 L 9504,15014 9300,15014 9810,14719 9810,16959 8518,17706 8518,16214 9504,16214 Z M 9490,15028 L 9490,16200 8518,16200 8518,15466 9276,15028 9490,15028 Z"/>
     <path fill="rgb(113,113,113)" stroke="none" d="M 9490,16200 L 9490,15028 9276,15028 9810,14719 9810,16959 8518,17706 8518,16200 9490,16200 Z M 9475,15043 L 9475,16185 8518,16185 8518,15466 9250,15043 9475,15043 Z"/>
     <path fill="rgb(114,114,114)" stroke="none" d="M 9475,16185 L 9475,15043 9250,15043 9810,14719 9810,16959 8518,17706 8518,16185 9475,16185 Z M 9460,15058 L 9460,16170 8518,16170 8518,15466 9224,15058 9460,15058 Z"/>
     <path fill="rgb(115,115,115)" stroke="none" d="M 9460,16170 L 9460,15058 9224,15058 9810,14719 9810,16959 8518,17706 8518,16170 9460,16170 Z M 9446,15072 L 9446,16156 8518,16156 8518,15466 9199,15072 9446,15072 Z"/>
     <path fill="rgb(116,116,116)" stroke="none" d="M 9446,16156 L 9446,15072 9199,15072 9810,14719 9810,16959 8518,17706 8518,16156 9446,16156 Z M 9431,15087 L 9431,16141 8518,16141 8518,15466 9174,15087 9431,15087 Z"/>
     <path fill="rgb(117,117,117)" stroke="none" d="M 9431,16141 L 9431,15087 9174,15087 9810,14719 9810,16959 8518,17706 8518,16141 9431,16141 Z M 9416,15102 L 9416,16126 8518,16126 8518,15466 9148,15102 9416,15102 Z"/>
     <path fill="rgb(118,118,118)" stroke="none" d="M 9416,16126 L 9416,15102 9148,15102 9810,14719 9810,16959 8518,17706 8518,16126 9416,16126 Z M 9402,15116 L 9402,16112 8518,16112 8518,15466 9123,15116 9402,15116 Z"/>
     <path fill="rgb(119,119,119)" stroke="none" d="M 9402,16112 L 9402,15116 9123,15116 9810,14719 9810,16959 8518,17706 8518,16112 9402,16112 Z M 9387,15131 L 9387,16097 8518,16097 8518,15466 9097,15131 9387,15131 Z"/>
     <path fill="rgb(120,120,120)" stroke="none" d="M 9387,16097 L 9387,15131 9097,15131 9810,14719 9810,16959 8518,17706 8518,16097 9387,16097 Z M 9373,15145 L 9373,16083 8518,16083 8518,15466 9073,15145 9373,15145 Z"/>
     <path fill="rgb(121,121,121)" stroke="none" d="M 9373,16083 L 9373,15145 9073,15145 9810,14719 9810,16959 8518,17706 8518,16083 9373,16083 Z M 9358,15160 L 9358,16068 8518,16068 8518,15466 9047,15160 9358,15160 Z"/>
     <path fill="rgb(122,122,122)" stroke="none" d="M 9358,16068 L 9358,15160 9047,15160 9810,14719 9810,16959 8518,17706 8518,16068 9358,16068 Z M 9343,15175 L 9343,16053 8518,16053 8518,15466 9021,15175 9343,15175 Z"/>
     <path fill="rgb(123,123,123)" stroke="none" d="M 9343,16053 L 9343,15175 9021,15175 9810,14719 9810,16959 8518,17706 8518,16053 9343,16053 Z M 9329,15189 L 9329,16039 8518,16039 8518,15466 8997,15189 9329,15189 Z"/>
     <path fill="rgb(124,124,124)" stroke="none" d="M 9329,16039 L 9329,15189 8997,15189 9810,14719 9810,16959 8518,17706 8518,16039 9329,16039 Z M 9314,15204 L 9314,16024 8518,16024 8518,15466 8971,15204 9314,15204 Z"/>
     <path fill="rgb(125,125,125)" stroke="none" d="M 9314,16024 L 9314,15204 8971,15204 9810,14719 9810,16959 8518,17706 8518,16024 9314,16024 Z M 9299,15219 L 9299,16009 8518,16009 8518,15466 8945,15219 9299,15219 Z"/>
     <path fill="rgb(126,126,126)" stroke="none" d="M 9299,16009 L 9299,15219 8945,15219 9810,14719 9810,16959 8518,17706 8518,16009 9299,16009 Z M 9285,15233 L 9285,15995 8523,15995 8523,15463 8921,15233 9285,15233 Z"/>
     <path fill="rgb(127,127,127)" stroke="none" d="M 8523,15995 L 9285,15995 9285,15233 8921,15233 9810,14719 9810,16959 8518,17706 8518,15466 8523,15463 8523,15995 Z M 9270,15248 L 9270,15980 8538,15980 8538,15454 8895,15248 9270,15248 Z"/>
     <path fill="rgb(128,128,128)" stroke="none" d="M 8538,15980 L 9270,15980 9270,15248 8895,15248 9810,14719 9810,16959 8518,17706 8518,15466 8538,15454 8538,15980 Z M 9255,15263 L 9255,15965 8553,15965 8553,15446 8869,15263 9255,15263 Z"/>
     <path fill="rgb(129,129,129)" stroke="none" d="M 8553,15965 L 9255,15965 9255,15263 8869,15263 9810,14719 9810,16959 8518,17706 8518,15466 8553,15446 8553,15965 Z M 9241,15277 L 9241,15951 8567,15951 8567,15438 8845,15277 9241,15277 Z"/>
     <path fill="rgb(130,130,130)" stroke="none" d="M 8567,15951 L 9241,15951 9241,15277 8845,15277 9810,14719 9810,16959 8518,17706 8518,15466 8567,15438 8567,15951 Z M 9226,15292 L 9226,15936 8582,15936 8582,15429 8819,15292 9226,15292 Z"/>
     <path fill="rgb(131,131,131)" stroke="none" d="M 8582,15936 L 9226,15936 9226,15292 8819,15292 9810,14719 9810,16959 8518,17706 8518,15466 8582,15429 8582,15936 Z M 9211,15307 L 9211,15921 8597,15921 8597,15420 8793,15307 9211,15307 Z"/>
     <path fill="rgb(132,132,132)" stroke="none" d="M 8597,15921 L 9211,15921 9211,15307 8793,15307 9810,14719 9810,16959 8518,17706 8518,15466 8597,15420 8597,15921 Z M 9197,15321 L 9197,15907 8611,15907 8611,15412 8769,15321 9197,15321 Z"/>
     <path fill="rgb(133,133,133)" stroke="none" d="M 8611,15907 L 9197,15907 9197,15321 8769,15321 9810,14719 9810,16959 8518,17706 8518,15466 8611,15412 8611,15907 Z M 9182,15336 L 9182,15892 8626,15892 8626,15404 8743,15336 9182,15336 Z"/>
     <path fill="rgb(134,134,134)" stroke="none" d="M 8626,15892 L 9182,15892 9182,15336 8743,15336 9810,14719 9810,16959 8518,17706 8518,15466 8626,15404 8626,15892 Z M 9167,15351 L 9167,15877 8641,15877 8641,15395 8717,15351 9167,15351 Z"/>
     <path fill="rgb(135,135,135)" stroke="none" d="M 8641,15877 L 9167,15877 9167,15351 8717,15351 9810,14719 9810,16959 8518,17706 8518,15466 8641,15395 8641,15877 Z M 9153,15365 L 9153,15863 8655,15863 8655,15387 8693,15365 9153,15365 Z"/>
     <path fill="rgb(136,136,136)" stroke="none" d="M 8655,15863 L 9153,15863 9153,15365 8693,15365 9810,14719 9810,16959 8518,17706 8518,15466 8655,15387 8655,15863 Z M 8670,15380 L 9138,15380 9138,15848 8670,15848 8670,15380 Z"/>
     <path fill="rgb(137,137,137)" stroke="none" d="M 8670,15380 L 8670,15848 9138,15848 9138,15380 8670,15380 Z M 8685,15395 L 9123,15395 9123,15833 8685,15833 8685,15395 Z M 8518,17706 L 8518,15466 9810,14719 9810,16959 8518,17706 Z"/>
     <path fill="rgb(138,138,138)" stroke="none" d="M 8685,15395 L 8685,15833 9123,15833 9123,15395 8685,15395 Z M 8699,15409 L 9109,15409 9109,15819 8699,15819 8699,15409 Z M 8518,17706 L 8518,15466 9810,14719 9810,16959 8518,17706 Z"/>
     <path fill="rgb(139,139,139)" stroke="none" d="M 8699,15409 L 8699,15819 9109,15819 9109,15409 8699,15409 Z M 8714,15424 L 9094,15424 9094,15804 8714,15804 8714,15424 Z M 8518,17706 L 8518,15466 9810,14719 9810,16959 8518,17706 Z"/>
     <path fill="rgb(140,140,140)" stroke="none" d="M 8714,15424 L 8714,15804 9094,15804 9094,15424 8714,15424 Z M 8729,15439 L 9079,15439 9079,15789 8729,15789 8729,15439 Z M 8518,17706 L 8518,15466 9810,14719 9810,16959 8518,17706 Z"/>
     <path fill="rgb(141,141,141)" stroke="none" d="M 8729,15439 L 8729,15789 9079,15789 9079,15439 8729,15439 Z M 8743,15453 L 9065,15453 9065,15775 8743,15775 8743,15453 Z M 8518,17706 L 8518,15466 9810,14719 9810,16959 8518,17706 Z"/>
     <path fill="rgb(142,142,142)" stroke="none" d="M 8743,15453 L 8743,15775 9065,15775 9065,15453 8743,15453 Z M 8758,15468 L 9050,15468 9050,15760 8758,15760 8758,15468 Z M 8518,17706 L 8518,15466 9810,14719 9810,16959 8518,17706 Z"/>
     <path fill="rgb(143,143,143)" stroke="none" d="M 8758,15468 L 8758,15760 9050,15760 9050,15468 8758,15468 Z M 8773,15483 L 9035,15483 9035,15745 8773,15745 8773,15483 Z M 8518,17706 L 8518,15466 9810,14719 9810,16959 8518,17706 Z"/>
     <path fill="rgb(144,144,144)" stroke="none" d="M 8773,15483 L 8773,15745 9035,15745 9035,15483 8773,15483 Z M 8787,15497 L 9021,15497 9021,15731 8787,15731 8787,15497 Z M 8518,17706 L 8518,15466 9810,14719 9810,16959 8518,17706 Z"/>
     <path fill="rgb(145,145,145)" stroke="none" d="M 8787,15497 L 8787,15731 9021,15731 9021,15497 8787,15497 Z M 8802,15512 L 9006,15512 9006,15716 8802,15716 8802,15512 Z M 8518,17706 L 8518,15466 9810,14719 9810,16959 8518,17706 Z"/>
     <path fill="rgb(146,146,146)" stroke="none" d="M 8802,15512 L 8802,15716 9006,15716 9006,15512 8802,15512 Z M 8817,15527 L 8991,15527 8991,15701 8817,15701 8817,15527 Z M 8518,17706 L 8518,15466 9810,14719 9810,16959 8518,17706 Z"/>
     <path fill="rgb(147,147,147)" stroke="none" d="M 8817,15527 L 8817,15701 8991,15701 8991,15527 8817,15527 Z M 8831,15541 L 8977,15541 8977,15687 8831,15687 8831,15541 Z M 8518,17706 L 8518,15466 9810,14719 9810,16959 8518,17706 Z"/>
     <path fill="rgb(148,148,148)" stroke="none" d="M 8831,15541 L 8831,15687 8977,15687 8977,15541 8831,15541 Z M 8846,15556 L 8962,15556 8962,15672 8846,15672 8846,15556 Z M 8518,17706 L 8518,15466 9810,14719 9810,16959 8518,17706 Z"/>
     <path fill="rgb(149,149,149)" stroke="none" d="M 8846,15556 L 8846,15672 8962,15672 8962,15556 8846,15556 Z M 8861,15571 L 8947,15571 8947,15657 8861,15657 8861,15571 Z M 8518,17706 L 8518,15466 9810,14719 9810,16959 8518,17706 Z"/>
     <path fill="rgb(150,150,150)" stroke="none" d="M 8861,15571 L 8861,15657 8947,15657 8947,15571 8861,15571 Z M 8875,15585 L 8933,15585 8933,15643 8875,15643 8875,15585 Z M 8518,17706 L 8518,15466 9810,14719 9810,16959 8518,17706 Z"/>
     <path fill="rgb(151,151,151)" stroke="none" d="M 8875,15585 L 8875,15643 8933,15643 8933,15585 8875,15585 Z M 8890,15600 L 8918,15600 8918,15628 8890,15628 8890,15600 Z M 8518,17706 L 8518,15466 9810,14719 9810,16959 8518,17706 Z"/>
     <path fill="rgb(153,153,153)" stroke="none" d="M 8890,15600 L 8890,15628 8918,15628 8918,15600 8890,15600 Z M 8518,17706 L 8518,15466 9810,14719 9810,16959 8518,17706 Z"/>
     <path fill="none" stroke="rgb(178,178,178)" id="Drawing_2_0" stroke-width="40" stroke-linejoin="round" d="M 8518,17706 L 8518,15466 9810,14719 9810,16959 8518,17706 Z"/>
    </g>
    <g>
     <defs>
      <linearGradient id="Gradient_1158" gradientUnits="userSpaceOnUse" x1="8840" y1="14346" x2="8840" y2="15466">
       <stop offset="0.1" stop-color="rgb(51,51,51)"/>
       <stop offset="1" stop-color="rgb(153,153,153)"/>
      </linearGradient>
     </defs>
     <path fill="url(#Gradient_1158)" stroke="rgb(178,178,178)" id="Drawing_3_0" stroke-width="40" stroke-linejoin="round" d="M 8518,15466 L 7872,15093 9164,14346 9809,14719 8518,15466 Z"/>
    </g>
    <g>
     <defs>
      <linearGradient id="Gradient_1159" gradientUnits="userSpaceOnUse" x1="7870" y1="16398" x2="8520" y2="16400">
       <stop offset="0.1" stop-color="rgb(51,51,51)"/>
       <stop offset="1" stop-color="rgb(153,153,153)"/>
      </linearGradient>
     </defs>
     <path fill="url(#Gradient_1159)" stroke="rgb(178,178,178)" id="Drawing_4_0" stroke-width="40" stroke-linejoin="round" d="M 7872,17333 L 7872,15093 8518,15466 8518,17706 7872,17333 Z"/>
    </g>
    <g>
     <path fill="none" stroke="rgb(0,0,0)" id="Drawing_5_0" stroke-width="40" stroke-linejoin="round" d="M 7872,17333 L 7872,15093 9164,14346 9809,14719 9809,16959 8518,17706 7872,17333 Z"/>
    </g>
    <g>
     <path fill="rgb(0,0,0)" stroke="none" d="M 8001,17183 L 8001,16959 8130,17034 8130,17258 8001,17183 Z"/>
     <path fill="none" stroke="rgb(178,178,178)" id="Drawing_6_0" stroke-width="40" stroke-linejoin="round" d="M 8001,17183 L 8001,16959 8130,17034 8130,17258 8001,17183 Z"/>
    </g>
    <g>
     <path fill="rgb(0,0,0)" stroke="none" d="M 8259,17333 L 8259,17109 8388,17184 8388,17408 8259,17333 Z"/>
     <path fill="none" stroke="rgb(178,178,178)" id="Drawing_7_0" stroke-width="40" stroke-linejoin="round" d="M 8259,17333 L 8259,17109 8388,17184 8388,17408 8259,17333 Z"/>
    </g>
    <g>
     <path fill="rgb(0,0,0)" stroke="none" d="M 8001,16810 L 8001,16586 8130,16661 8130,16885 8001,16810 Z"/>
     <path fill="none" stroke="rgb(178,178,178)" id="Drawing_8_0" stroke-width="40" stroke-linejoin="round" d="M 8001,16810 L 8001,16586 8130,16661 8130,16885 8001,16810 Z"/>
    </g>
    <g>
     <path fill="rgb(0,0,0)" stroke="none" d="M 8259,16959 L 8259,16735 8388,16810 8388,17034 8259,16959 Z"/>
     <path fill="none" stroke="rgb(178,178,178)" id="Drawing_9_0" stroke-width="40" stroke-linejoin="round" d="M 8259,16959 L 8259,16735 8388,16810 8388,17034 8259,16959 Z"/>
    </g>
    <g>
     <path fill="rgb(0,0,0)" stroke="none" d="M 8259,16586 L 8259,16362 8388,16437 8388,16661 8259,16586 Z"/>
     <path fill="none" stroke="rgb(178,178,178)" id="Drawing_10_0" stroke-width="40" stroke-linejoin="round" d="M 8259,16586 L 8259,16362 8388,16437 8388,16661 8259,16586 Z"/>
    </g>
    <g>
     <path fill="rgb(0,0,0)" stroke="none" d="M 8001,16437 L 8001,16213 8130,16288 8130,16512 8001,16437 Z"/>
     <path fill="none" stroke="rgb(178,178,178)" id="Drawing_11_0" stroke-width="40" stroke-linejoin="round" d="M 8001,16437 L 8001,16213 8130,16288 8130,16512 8001,16437 Z"/>
    </g>
    <g>
     <path fill="rgb(0,0,0)" stroke="none" d="M 8259,16213 L 8259,15989 8388,16064 8388,16288 8259,16213 Z"/>
     <path fill="none" stroke="rgb(178,178,178)" id="Drawing_12_0" stroke-width="40" stroke-linejoin="round" d="M 8259,16213 L 8259,15989 8388,16064 8388,16288 8259,16213 Z"/>
    </g>
    <g>
     <path fill="rgb(0,0,0)" stroke="none" d="M 8001,16063 L 8001,15839 8130,15914 8130,16138 8001,16063 Z"/>
     <path fill="none" stroke="rgb(178,178,178)" id="Drawing_13_0" stroke-width="40" stroke-linejoin="round" d="M 8001,16063 L 8001,15839 8130,15914 8130,16138 8001,16063 Z"/>
    </g>
    <g>
     <path fill="rgb(153,255,102)" stroke="none" d="M 8001,15615 L 8001,15391 8130,15466 8130,15690 8001,15615 Z"/>
     <path fill="none" stroke="rgb(51,51,51)" id="Drawing_14_0" stroke-width="40" stroke-linejoin="round" d="M 8001,15615 L 8001,15391 8130,15466 8130,15690 8001,15615 Z"/>
    </g>
   </g>
  </g>
 </g>
</svg>