<?xml version="1.0" encoding="UTF-8"?>

<svg version="1.2" baseProfile="tiny" width="23.41mm" height="34mm" viewBox="6985 12285 2341 3400" preserveAspectRatio="xMidYMid" fill-rule="evenodd" stroke-width="28.222" stroke-linejoin="round" xmlns="http://www.w3.org/2000/svg" xmlns:xlink="http://www.w3.org/1999/xlink" xml:space="preserve">
 <g visibility="visible" id="Slide_1">
  <g id="DrawingGroup_1">
   <g>
    <path fill="rgb(221,221,221)" stroke="none" d="M 7649,15665 C 8003,15665 9325,15292 9325,14993 9325,14694 9292,14545 8939,14545 8939,14770 7649,15365 7649,15665 Z"/>
    <path fill="none" stroke="rgb(221,221,221)" id="Drawing_1_0" stroke-linejoin="round" d="M 7649,15665 C 8003,15665 9325,15292 9325,14993 9325,14694 9292,14545 8939,14545 8939,14770 7649,15365 7649,15665 Z"/>
   </g>
   <g id="DrawingGroup_2">
    <g>
     <path fill="rgb(51,51,51)" stroke="none" d="M 7649,15053 L 7649,13425 8939,12678 8939,14918 8706,15053 7649,15053 Z"/>
     <path fill="rgb(52,52,52)" stroke="none" d="M 8706,15053 L 7649,15665 7649,15053 8706,15053 Z M 7649,15038 L 7649,13425 8939,12678 8939,14918 8732,15038 7649,15038 Z"/>
     <path fill="rgb(53,53,53)" stroke="none" d="M 8732,15038 L 7649,15665 7649,15038 8732,15038 Z M 7649,15024 L 7649,13425 8939,12678 8939,14918 8756,15024 7649,15024 Z"/>
     <path fill="rgb(54,54,54)" stroke="none" d="M 8756,15024 L 7649,15665 7649,15024 8756,15024 Z M 7649,15009 L 7649,13425 8939,12678 8939,14918 8782,15009 7649,15009 Z"/>
     <path fill="rgb(55,55,55)" stroke="none" d="M 8782,15009 L 7649,15665 7649,15009 8782,15009 Z M 7649,14994 L 7649,13425 8939,12678 8939,14918 8808,14994 7649,14994 Z"/>
     <path fill="rgb(56,56,56)" stroke="none" d="M 8808,14994 L 7649,15665 7649,14994 8808,14994 Z M 7649,14980 L 7649,13425 8939,12678 8939,14918 8832,14980 7649,14980 Z"/>
     <path fill="rgb(57,57,57)" stroke="none" d="M 8832,14980 L 7649,15665 7649,14980 8832,14980 Z M 7649,14965 L 7649,13425 8939,12678 8939,14918 8858,14965 7649,14965 Z"/>
     <path fill="rgb(58,58,58)" stroke="none" d="M 8858,14965 L 7649,15665 7649,14965 8858,14965 Z M 7649,14950 L 7649,13425 8939,12678 8939,14918 8884,14950 7649,14950 Z"/>
     <path fill="rgb(59,59,59)" stroke="none" d="M 8884,14950 L 7649,15665 7649,14950 8884,14950 Z M 7649,14936 L 7649,13425 8939,12678 8939,14918 8908,14936 7649,14936 Z"/>
     <path fill="rgb(60,60,60)" stroke="none" d="M 8908,14936 L 7649,15665 7649,14936 8908,14936 Z M 7649,14921 L 7649,13425 8939,12678 8939,14918 8934,14921 7649,14921 Z"/>
     <path fill="rgb(61,61,61)" stroke="none" d="M 8934,14921 L 7649,15665 7649,14921 8934,14921 Z M 7649,14906 L 7649,13425 8939,12678 8939,14906 7649,14906 Z"/>
     <path fill="rgb(62,62,62)" stroke="none" d="M 8939,14906 L 8939,14918 7649,15665 7649,14906 8939,14906 Z M 7649,14892 L 7649,13425 8939,12678 8939,14892 7649,14892 Z"/>
     <path fill="rgb(63,63,63)" stroke="none" d="M 8939,14892 L 8939,14918 7649,15665 7649,14892 8939,14892 Z M 7649,14877 L 7649,13425 8939,12678 8939,14877 7649,14877 Z"/>
     <path fill="rgb(64,64,64)" stroke="none" d="M 8939,14877 L 8939,14918 7649,15665 7649,14877 8939,14877 Z M 7649,14862 L 7649,13425 8939,12678 8939,14862 7649,14862 Z"/>
     <path fill="rgb(65,65,65)" stroke="none" d="M 8939,14862 L 8939,14918 7649,15665 7649,14862 8939,14862 Z M 7649,14848 L 7649,13425 8939,12678 8939,14848 7649,14848 Z"/>
     <path fill="rgb(66,66,66)" stroke="none" d="M 8939,14848 L 8939,14918 7649,15665 7649,14848 8939,14848 Z M 7649,14833 L 7649,13425 8939,12678 8939,14833 7649,14833 Z"/>
     <path fill="rgb(67,67,67)" stroke="none" d="M 8939,14833 L 8939,14918 7649,15665 7649,14833 8939,14833 Z M 7649,14818 L 7649,13425 8939,12678 8939,14818 7649,14818 Z"/>
     <path fill="rgb(68,68,68)" stroke="none" d="M 8939,14818 L 8939,14918 7649,15665 7649,14818 8939,14818 Z M 7649,14804 L 7649,13425 8939,12678 8939,14804 7649,14804 Z"/>
     <path fill="rgb(69,69,69)" stroke="none" d="M 8939,14804 L 8939,14918 7649,15665 7649,14804 8939,14804 Z M 7649,14789 L 7649,13425 8939,12678 8939,14789 7649,14789 Z"/>
     <path fill="rgb(70,70,70)" stroke="none" d="M 8939,14789 L 8939,14918 7649,15665 7649,14789 8939,14789 Z M 7649,14774 L 7649,13425 8939,12678 8939,14774 7649,14774 Z"/>
     <path fill="rgb(71,71,71)" stroke="none" d="M 8939,14774 L 8939,14918 7649,15665 7649,14774 8939,14774 Z M 7649,14760 L 7649,13425 8939,12678 8939,14760 7649,14760 Z"/>
     <path fill="rgb(72,72,72)" stroke="none" d="M 8939,14760 L 8939,14918 7649,15665 7649,14760 8939,14760 Z M 7649,14745 L 7649,13425 8939,12678 8939,14745 7649,14745 Z"/>
     <path fill="rgb(73,73,73)" stroke="none" d="M 8939,14745 L 8939,14918 7649,15665 7649,14745 8939,14745 Z M 7649,14730 L 7649,13425 8939,12678 8939,14730 7649,14730 Z"/>
     <path fill="rgb(74,74,74)" stroke="none" d="M 8939,14730 L 8939,14918 7649,15665 7649,14730 8939,14730 Z M 7649,14716 L 7649,13425 8939,12678 8939,14716 7649,14716 Z"/>
     <path fill="rgb(75,75,75)" stroke="none" d="M 8939,14716 L 8939,14918 7649,15665 7649,14716 8939,14716 Z M 7649,14701 L 7649,13425 8939,12678 8939,14701 7649,14701 Z"/>
     <path fill="rgb(76,76,76)" stroke="none" d="M 8939,14701 L 8939,14918 7649,15665 7649,14701 8939,14701 Z M 7649,14686 L 7649,13425 8939,12678 8939,14686 7649,14686 Z"/>
     <path fill="rgb(77,77,77)" stroke="none" d="M 8939,14686 L 8939,14918 7649,15665 7649,14686 8939,14686 Z M 7649,14672 L 7649,13425 8939,12678 8939,14672 7649,14672 Z"/>
     <path fill="rgb(78,78,78)" stroke="none" d="M 8939,14672 L 8939,14918 7649,15665 7649,14672 8939,14672 Z M 7649,14657 L 7649,13425 8939,12678 8939,14657 7649,14657 Z"/>
     <path fill="rgb(79,79,79)" stroke="none" d="M 8939,14657 L 8939,14918 7649,15665 7649,14657 8939,14657 Z M 7649,14642 L 7649,13425 8939,12678 8939,14642 7649,14642 Z"/>
     <path fill="rgb(80,80,80)" stroke="none" d="M 8939,14642 L 8939,14918 7649,15665 7649,14642 8939,14642 Z M 7649,14628 L 7649,13425 8939,12678 8939,14628 7649,14628 Z"/>
     <path fill="rgb(81,81,81)" stroke="none" d="M 8939,14628 L 8939,14918 7649,15665 7649,14628 8939,14628 Z M 7649,14613 L 7649,13425 8939,12678 8939,14613 7649,14613 Z"/>
     <path fill="rgb(82,82,82)" stroke="none" d="M 8939,14613 L 8939,14918 7649,15665 7649,14613 8939,14613 Z M 7649,14598 L 7649,13425 8939,12678 8939,14598 7649,14598 Z"/>
     <path fill="rgb(83,83,83)" stroke="none" d="M 8939,14598 L 8939,14918 7649,15665 7649,14598 8939,14598 Z M 7649,14584 L 7649,13425 8939,12678 8939,14584 7649,14584 Z"/>
     <path fill="rgb(84,84,84)" stroke="none" d="M 8939,14584 L 8939,14918 7649,15665 7649,14584 8939,14584 Z M 7649,14569 L 7649,13425 8939,12678 8939,14569 7649,14569 Z"/>
     <path fill="rgb(85,85,85)" stroke="none" d="M 8939,14569 L 8939,14918 7649,15665 7649,14569 8939,14569 Z M 7649,14555 L 7649,13425 8939,12678 8939,14555 7649,14555 Z"/>
     <path fill="rgb(86,86,86)" stroke="none" d="M 8939,14555 L 8939,14918 7649,15665 7649,14555 8939,14555 Z M 7649,14540 L 7649,13425 8939,12678 8939,14540 7649,14540 Z"/>
     <path fill="rgb(87,87,87)" stroke="none" d="M 8939,14540 L 8939,14918 7649,15665 7649,14540 8939,14540 Z M 7649,14525 L 7649,13425 8939,12678 8939,14525 7649,14525 Z"/>
     <path fill="rgb(88,88,88)" stroke="none" d="M 8939,14525 L 8939,14918 7649,15665 7649,14525 8939,14525 Z M 7649,14511 L 7649,13425 8939,12678 8939,14511 7649,14511 Z"/>
     <path fill="rgb(89,89,89)" stroke="none" d="M 8939,14511 L 8939,14918 7649,15665 7649,14511 8939,14511 Z M 7649,14496 L 7649,13425 8939,12678 8939,14496 7649,14496 Z"/>
     <path fill="rgb(90,90,90)" stroke="none" d="M 8939,14496 L 8939,14918 7649,15665 7649,14496 8939,14496 Z M 7649,14481 L 7649,13425 8939,12678 8939,14481 7649,14481 Z"/>
     <path fill="rgb(91,91,91)" stroke="none" d="M 8939,14481 L 8939,14918 7649,15665 7649,14481 8939,14481 Z M 8928,14467 L 7649,14467 7649,13425 8928,12684 8928,14467 Z"/>
     <path fill="rgb(92,92,92)" stroke="none" d="M 8928,14467 L 8928,12684 8939,12678 8939,14918 7649,15665 7649,14467 8928,14467 Z M 8913,12694 L 8913,14452 7649,14452 7649,13425 8911,12694 8913,12694 Z"/>
     <path fill="rgb(93,93,93)" stroke="none" d="M 8913,14452 L 8913,12694 8911,12694 8939,12678 8939,14918 7649,15665 7649,14452 8913,14452 Z M 8898,12709 L 8898,14437 7649,14437 7649,13425 8885,12709 8898,12709 Z"/>
     <path fill="rgb(94,94,94)" stroke="none" d="M 8898,14437 L 8898,12709 8885,12709 8939,12678 8939,14918 7649,15665 7649,14437 8898,14437 Z M 8884,12723 L 8884,14423 7649,14423 7649,13425 8861,12723 8884,12723 Z"/>
     <path fill="rgb(95,95,95)" stroke="none" d="M 8884,14423 L 8884,12723 8861,12723 8939,12678 8939,14918 7649,15665 7649,14423 8884,14423 Z M 8869,12738 L 8869,14408 7649,14408 7649,13425 8835,12738 8869,12738 Z"/>
     <path fill="rgb(96,96,96)" stroke="none" d="M 8869,14408 L 8869,12738 8835,12738 8939,12678 8939,14918 7649,15665 7649,14408 8869,14408 Z M 8854,12753 L 8854,14393 7649,14393 7649,13425 8809,12753 8854,12753 Z"/>
     <path fill="rgb(97,97,97)" stroke="none" d="M 8854,14393 L 8854,12753 8809,12753 8939,12678 8939,14918 7649,15665 7649,14393 8854,14393 Z M 8840,12767 L 8840,14379 7649,14379 7649,13425 8785,12767 8840,12767 Z"/>
     <path fill="rgb(98,98,98)" stroke="none" d="M 8840,14379 L 8840,12767 8785,12767 8939,12678 8939,14918 7649,15665 7649,14379 8840,14379 Z M 8825,12782 L 8825,14364 7649,14364 7649,13425 8759,12782 8825,12782 Z"/>
     <path fill="rgb(99,99,99)" stroke="none" d="M 8825,14364 L 8825,12782 8759,12782 8939,12678 8939,14918 7649,15665 7649,14364 8825,14364 Z M 8810,12797 L 8810,14349 7649,14349 7649,13425 8733,12797 8810,12797 Z"/>
     <path fill="rgb(100,100,100)" stroke="none" d="M 8810,14349 L 8810,12797 8733,12797 8939,12678 8939,14918 7649,15665 7649,14349 8810,14349 Z M 8796,12811 L 8796,14335 7649,14335 7649,13425 8709,12811 8796,12811 Z"/>
     <path fill="rgb(101,101,101)" stroke="none" d="M 8796,14335 L 8796,12811 8709,12811 8939,12678 8939,14918 7649,15665 7649,14335 8796,14335 Z M 8781,12826 L 8781,14320 7649,14320 7649,13425 8683,12826 8781,12826 Z"/>
     <path fill="rgb(102,102,102)" stroke="none" d="M 8781,14320 L 8781,12826 8683,12826 8939,12678 8939,14918 7649,15665 7649,14320 8781,14320 Z M 8766,12841 L 8766,14305 7649,14305 7649,13425 8658,12841 8766,12841 Z"/>
     <path fill="rgb(103,103,103)" stroke="none" d="M 8766,14305 L 8766,12841 8658,12841 8939,12678 8939,14918 7649,15665 7649,14305 8766,14305 Z M 8752,12855 L 8752,14291 7649,14291 7649,13425 8633,12855 8752,12855 Z"/>
     <path fill="rgb(104,104,104)" stroke="none" d="M 8752,14291 L 8752,12855 8633,12855 8939,12678 8939,14918 7649,15665 7649,14291 8752,14291 Z M 8737,12870 L 8737,14276 7649,14276 7649,13425 8607,12870 8737,12870 Z"/>
     <path fill="rgb(105,105,105)" stroke="none" d="M 8737,14276 L 8737,12870 8607,12870 8939,12678 8939,14918 7649,15665 7649,14276 8737,14276 Z M 8722,12885 L 8722,14261 7649,14261 7649,13425 8582,12885 8722,12885 Z"/>
     <path fill="rgb(106,106,106)" stroke="none" d="M 8722,14261 L 8722,12885 8582,12885 8939,12678 8939,14918 7649,15665 7649,14261 8722,14261 Z M 8708,12899 L 8708,14247 7649,14247 7649,13425 8557,12899 8708,12899 Z"/>
     <path fill="rgb(107,107,107)" stroke="none" d="M 8708,14247 L 8708,12899 8557,12899 8939,12678 8939,14918 7649,15665 7649,14247 8708,14247 Z M 8693,12914 L 8693,14232 7649,14232 7649,13425 8531,12914 8693,12914 Z"/>
     <path fill="rgb(108,108,108)" stroke="none" d="M 8693,14232 L 8693,12914 8531,12914 8939,12678 8939,14918 7649,15665 7649,14232 8693,14232 Z M 8678,12929 L 8678,14217 7649,14217 7649,13425 8506,12929 8678,12929 Z"/>
     <path fill="rgb(109,109,109)" stroke="none" d="M 8678,14217 L 8678,12929 8506,12929 8939,12678 8939,14918 7649,15665 7649,14217 8678,14217 Z M 8664,12943 L 8664,14203 7649,14203 7649,13425 8481,12943 8664,12943 Z"/>
     <path fill="rgb(110,110,110)" stroke="none" d="M 8664,14203 L 8664,12943 8481,12943 8939,12678 8939,14918 7649,15665 7649,14203 8664,14203 Z M 8649,12958 L 8649,14188 7649,14188 7649,13425 8455,12958 8649,12958 Z"/>
     <path fill="rgb(111,111,111)" stroke="none" d="M 8649,14188 L 8649,12958 8455,12958 8939,12678 8939,14918 7649,15665 7649,14188 8649,14188 Z M 8634,12973 L 8634,14173 7649,14173 7649,13425 8430,12973 8634,12973 Z"/>
     <path fill="rgb(112,112,112)" stroke="none" d="M 8634,14173 L 8634,12973 8430,12973 8939,12678 8939,14918 7649,15665 7649,14173 8634,14173 Z M 8620,12987 L 8620,14159 7649,14159 7649,13425 8405,12987 8620,12987 Z"/>
     <path fill="rgb(113,113,113)" stroke="none" d="M 8620,14159 L 8620,12987 8405,12987 8939,12678 8939,14918 7649,15665 7649,14159 8620,14159 Z M 8605,13002 L 8605,14144 7649,14144 7649,13425 8379,13002 8605,13002 Z"/>
     <path fill="rgb(114,114,114)" stroke="none" d="M 8605,14144 L 8605,13002 8379,13002 8939,12678 8939,14918 7649,15665 7649,14144 8605,14144 Z M 8590,13017 L 8590,14129 7649,14129 7649,13425 8354,13017 8590,13017 Z"/>
     <path fill="rgb(115,115,115)" stroke="none" d="M 8590,14129 L 8590,13017 8354,13017 8939,12678 8939,14918 7649,15665 7649,14129 8590,14129 Z M 8576,13031 L 8576,14115 7649,14115 7649,13425 8329,13031 8576,13031 Z"/>
     <path fill="rgb(116,116,116)" stroke="none" d="M 8576,14115 L 8576,13031 8329,13031 8939,12678 8939,14918 7649,15665 7649,14115 8576,14115 Z M 8561,13046 L 8561,14100 7649,14100 7649,13425 8303,13046 8561,13046 Z"/>
     <path fill="rgb(117,117,117)" stroke="none" d="M 8561,14100 L 8561,13046 8303,13046 8939,12678 8939,14918 7649,15665 7649,14100 8561,14100 Z M 8546,13061 L 8546,14085 7649,14085 7649,13425 8278,13061 8546,13061 Z"/>
     <path fill="rgb(118,118,118)" stroke="none" d="M 8546,14085 L 8546,13061 8278,13061 8939,12678 8939,14918 7649,15665 7649,14085 8546,14085 Z M 8532,13075 L 8532,14071 7649,14071 7649,13425 8253,13075 8532,13075 Z"/>
     <path fill="rgb(119,119,119)" stroke="none" d="M 8532,14071 L 8532,13075 8253,13075 8939,12678 8939,14918 7649,15665 7649,14071 8532,14071 Z M 8517,13090 L 8517,14056 7649,14056 7649,13425 8228,13090 8517,13090 Z"/>
     <path fill="rgb(120,120,120)" stroke="none" d="M 8517,14056 L 8517,13090 8228,13090 8939,12678 8939,14918 7649,15665 7649,14056 8517,14056 Z M 8503,13104 L 8503,14042 7649,14042 7649,13425 8203,13104 8503,13104 Z"/>
     <path fill="rgb(121,121,121)" stroke="none" d="M 8503,14042 L 8503,13104 8203,13104 8939,12678 8939,14918 7649,15665 7649,14042 8503,14042 Z M 8488,13119 L 8488,14027 7649,14027 7649,13425 8177,13119 8488,13119 Z"/>
     <path fill="rgb(122,122,122)" stroke="none" d="M 8488,14027 L 8488,13119 8177,13119 8939,12678 8939,14918 7649,15665 7649,14027 8488,14027 Z M 8473,13134 L 8473,14012 7649,14012 7649,13425 8152,13134 8473,13134 Z"/>
     <path fill="rgb(123,123,123)" stroke="none" d="M 8473,14012 L 8473,13134 8152,13134 8939,12678 8939,14918 7649,15665 7649,14012 8473,14012 Z M 8459,13148 L 8459,13998 7649,13998 7649,13425 8127,13148 8459,13148 Z"/>
     <path fill="rgb(124,124,124)" stroke="none" d="M 8459,13998 L 8459,13148 8127,13148 8939,12678 8939,14918 7649,15665 7649,13998 8459,13998 Z M 8444,13163 L 8444,13983 7649,13983 7649,13425 8101,13163 8444,13163 Z"/>
     <path fill="rgb(125,125,125)" stroke="none" d="M 8444,13983 L 8444,13163 8101,13163 8939,12678 8939,14918 7649,15665 7649,13983 8444,13983 Z M 8429,13178 L 8429,13968 7649,13968 7649,13425 8076,13178 8429,13178 Z"/>
     <path fill="rgb(126,126,126)" stroke="none" d="M 8429,13968 L 8429,13178 8076,13178 8939,12678 8939,14918 7649,15665 7649,13968 8429,13968 Z M 8415,13192 L 8415,13954 7653,13954 7653,13423 8051,13192 8415,13192 Z"/>
     <path fill="rgb(127,127,127)" stroke="none" d="M 7653,13954 L 8415,13954 8415,13192 8051,13192 8939,12678 8939,14918 7649,15665 7649,13425 7653,13423 7653,13954 Z M 8400,13207 L 8400,13939 7668,13939 7668,13414 8025,13207 8400,13207 Z"/>
     <path fill="rgb(128,128,128)" stroke="none" d="M 7668,13939 L 8400,13939 8400,13207 8025,13207 8939,12678 8939,14918 7649,15665 7649,13425 7668,13414 7668,13939 Z M 8385,13222 L 8385,13924 7683,13924 7683,13405 8000,13222 8385,13222 Z"/>
     <path fill="rgb(129,129,129)" stroke="none" d="M 7683,13924 L 8385,13924 8385,13222 8000,13222 8939,12678 8939,14918 7649,15665 7649,13425 7683,13405 7683,13924 Z M 8371,13236 L 8371,13910 7697,13910 7697,13397 7975,13236 8371,13236 Z"/>
     <path fill="rgb(130,130,130)" stroke="none" d="M 7697,13910 L 8371,13910 8371,13236 7975,13236 8939,12678 8939,14918 7649,15665 7649,13425 7697,13397 7697,13910 Z M 8356,13251 L 8356,13895 7712,13895 7712,13389 7949,13251 8356,13251 Z"/>
     <path fill="rgb(131,131,131)" stroke="none" d="M 7712,13895 L 8356,13895 8356,13251 7949,13251 8939,12678 8939,14918 7649,15665 7649,13425 7712,13389 7712,13895 Z M 8341,13266 L 8341,13880 7727,13880 7727,13380 7924,13266 8341,13266 Z"/>
     <path fill="rgb(132,132,132)" stroke="none" d="M 7727,13880 L 8341,13880 8341,13266 7924,13266 8939,12678 8939,14918 7649,15665 7649,13425 7727,13380 7727,13880 Z M 8327,13280 L 8327,13866 7741,13866 7741,13372 7899,13280 8327,13280 Z"/>
     <path fill="rgb(133,133,133)" stroke="none" d="M 7741,13866 L 8327,13866 8327,13280 7899,13280 8939,12678 8939,14918 7649,15665 7649,13425 7741,13372 7741,13866 Z M 8312,13295 L 8312,13851 7756,13851 7756,13363 7873,13295 8312,13295 Z"/>
     <path fill="rgb(134,134,134)" stroke="none" d="M 7756,13851 L 8312,13851 8312,13295 7873,13295 8939,12678 8939,14918 7649,15665 7649,13425 7756,13363 7756,13851 Z M 8297,13310 L 8297,13836 7771,13836 7771,13354 7848,13310 8297,13310 Z"/>
     <path fill="rgb(135,135,135)" stroke="none" d="M 7771,13836 L 8297,13836 8297,13310 7848,13310 8939,12678 8939,14918 7649,15665 7649,13425 7771,13354 7771,13836 Z M 8283,13324 L 8283,13822 7785,13822 7785,13346 7823,13324 8283,13324 Z"/>
     <path fill="rgb(136,136,136)" stroke="none" d="M 7785,13822 L 8283,13822 8283,13324 7823,13324 8939,12678 8939,14918 7649,15665 7649,13425 7785,13346 7785,13822 Z M 7800,13339 L 8268,13339 8268,13807 7800,13807 7800,13339 Z"/>
     <path fill="rgb(137,137,137)" stroke="none" d="M 7800,13339 L 7800,13807 8268,13807 8268,13339 7800,13339 Z M 7815,13354 L 8253,13354 8253,13792 7815,13792 7815,13354 Z M 7649,15665 L 7649,13425 8939,12678 8939,14918 7649,15665 Z"/>
     <path fill="rgb(138,138,138)" stroke="none" d="M 7815,13354 L 7815,13792 8253,13792 8253,13354 7815,13354 Z M 7829,13368 L 8239,13368 8239,13778 7829,13778 7829,13368 Z M 7649,15665 L 7649,13425 8939,12678 8939,14918 7649,15665 Z"/>
     <path fill="rgb(139,139,139)" stroke="none" d="M 7829,13368 L 7829,13778 8239,13778 8239,13368 7829,13368 Z M 7844,13383 L 8224,13383 8224,13763 7844,13763 7844,13383 Z M 7649,15665 L 7649,13425 8939,12678 8939,14918 7649,15665 Z"/>
     <path fill="rgb(140,140,140)" stroke="none" d="M 7844,13383 L 7844,13763 8224,13763 8224,13383 7844,13383 Z M 7859,13398 L 8209,13398 8209,13748 7859,13748 7859,13398 Z M 7649,15665 L 7649,13425 8939,12678 8939,14918 7649,15665 Z"/>
     <path fill="rgb(141,141,141)" stroke="none" d="M 7859,13398 L 7859,13748 8209,13748 8209,13398 7859,13398 Z M 7873,13412 L 8195,13412 8195,13734 7873,13734 7873,13412 Z M 7649,15665 L 7649,13425 8939,12678 8939,14918 7649,15665 Z"/>
     <path fill="rgb(142,142,142)" stroke="none" d="M 7873,13412 L 7873,13734 8195,13734 8195,13412 7873,13412 Z M 7888,13427 L 8180,13427 8180,13719 7888,13719 7888,13427 Z M 7649,15665 L 7649,13425 8939,12678 8939,14918 7649,15665 Z"/>
     <path fill="rgb(143,143,143)" stroke="none" d="M 7888,13427 L 7888,13719 8180,13719 8180,13427 7888,13427 Z M 7903,13442 L 8165,13442 8165,13704 7903,13704 7903,13442 Z M 7649,15665 L 7649,13425 8939,12678 8939,14918 7649,15665 Z"/>
     <path fill="rgb(144,144,144)" stroke="none" d="M 7903,13442 L 7903,13704 8165,13704 8165,13442 7903,13442 Z M 7917,13456 L 8151,13456 8151,13690 7917,13690 7917,13456 Z M 7649,15665 L 7649,13425 8939,12678 8939,14918 7649,15665 Z"/>
     <path fill="rgb(145,145,145)" stroke="none" d="M 7917,13456 L 7917,13690 8151,13690 8151,13456 7917,13456 Z M 7932,13471 L 8136,13471 8136,13675 7932,13675 7932,13471 Z M 7649,15665 L 7649,13425 8939,12678 8939,14918 7649,15665 Z"/>
     <path fill="rgb(146,146,146)" stroke="none" d="M 7932,13471 L 7932,13675 8136,13675 8136,13471 7932,13471 Z M 7947,13486 L 8121,13486 8121,13660 7947,13660 7947,13486 Z M 7649,15665 L 7649,13425 8939,12678 8939,14918 7649,15665 Z"/>
     <path fill="rgb(147,147,147)" stroke="none" d="M 7947,13486 L 7947,13660 8121,13660 8121,13486 7947,13486 Z M 7961,13500 L 8107,13500 8107,13646 7961,13646 7961,13500 Z M 7649,15665 L 7649,13425 8939,12678 8939,14918 7649,15665 Z"/>
     <path fill="rgb(148,148,148)" stroke="none" d="M 7961,13500 L 7961,13646 8107,13646 8107,13500 7961,13500 Z M 7976,13515 L 8092,13515 8092,13631 7976,13631 7976,13515 Z M 7649,15665 L 7649,13425 8939,12678 8939,14918 7649,15665 Z"/>
     <path fill="rgb(149,149,149)" stroke="none" d="M 7976,13515 L 7976,13631 8092,13631 8092,13515 7976,13515 Z M 7991,13530 L 8077,13530 8077,13616 7991,13616 7991,13530 Z M 7649,15665 L 7649,13425 8939,12678 8939,14918 7649,15665 Z"/>
     <path fill="rgb(150,150,150)" stroke="none" d="M 7991,13530 L 7991,13616 8077,13616 8077,13530 7991,13530 Z M 8005,13544 L 8063,13544 8063,13602 8005,13602 8005,13544 Z M 7649,15665 L 7649,13425 8939,12678 8939,14918 7649,15665 Z"/>
     <path fill="rgb(151,151,151)" stroke="none" d="M 8005,13544 L 8005,13602 8063,13602 8063,13544 8005,13544 Z M 8020,13559 L 8048,13559 8048,13587 8020,13587 8020,13559 Z M 7649,15665 L 7649,13425 8939,12678 8939,14918 7649,15665 Z"/>
     <path fill="rgb(153,153,153)" stroke="none" d="M 8020,13559 L 8020,13587 8048,13587 8048,13559 8020,13559 Z M 7649,15665 L 7649,13425 8939,12678 8939,14918 7649,15665 Z"/>
     <path fill="none" stroke="rgb(178,178,178)" id="Drawing_2_0" stroke-width="40" stroke-linejoin="round" d="M 7649,15665 L 7649,13425 8939,12678 8939,14918 7649,15665 Z"/>
    </g>
    <g>
     <defs>
      <linearGradient id="Gradient_1178" gradientUnits="userSpaceOnUse" x1="7972" y1="12305" x2="7972" y2="13425">
       <stop offset="0.1" stop-color="rgb(51,51,51)"/>
       <stop offset="1" stop-color="rgb(153,153,153)"/>
      </linearGradient>
     </defs>
     <path fill="url(#Gradient_1178)" stroke="rgb(178,178,178)" id="Drawing_3_0" stroke-width="40" stroke-linejoin="round" d="M 7649,13425 L 7005,13052 8295,12305 8939,12678 7649,13425 Z"/>
    </g>
    <g>
     <defs>
      <linearGradient id="Gradient_1179" gradientUnits="userSpaceOnUse" x1="7003" y1="14357" x2="7651" y2="14359">
       <stop offset="0.1" stop-color="rgb(51,51,51)"/>
       <stop offset="1" stop-color="rgb(153,153,153)"/>
      </linearGradient>
     </defs>
     <path fill="url(#Gradient_1179)" stroke="rgb(178,178,178)" id="Drawing_4_0" stroke-width="40" stroke-linejoin="round" d="M 7005,15292 L 7005,13052 7649,13425 7649,15665 7005,15292 Z"/>
    </g>
    <g>
     <path fill="none" stroke="rgb(0,0,0)" id="Drawing_5_0" stroke-width="40" stroke-linejoin="round" d="M 7005,15292 L 7005,13052 8295,12305 8939,12678 8939,14918 7649,15665 7005,15292 Z"/>
    </g>
    <g>
     <path fill="rgb(0,0,0)" stroke="none" d="M 7133,15142 L 7133,14769 7261,14843 7261,15217 7133,15142 Z"/>
     <path fill="none" stroke="rgb(178,178,178)" id="Drawing_6_0" stroke-width="40" stroke-linejoin="round" d="M 7133,15142 L 7133,14769 7261,14843 7261,15217 7133,15142 Z"/>
    </g>
    <g>
     <path fill="rgb(0,0,0)" stroke="none" d="M 7391,15291 L 7391,14918 7519,14992 7519,15366 7391,15291 Z"/>
     <path fill="none" stroke="rgb(178,178,178)" id="Drawing_7_0" stroke-width="40" stroke-linejoin="round" d="M 7391,15291 L 7391,14918 7519,14992 7519,15366 7391,15291 Z"/>
    </g>
    <g>
     <path fill="rgb(0,0,0)" stroke="none" d="M 7133,14396 L 7133,14171 7261,14245 7261,14470 7133,14396 Z"/>
     <path fill="none" stroke="rgb(178,178,178)" id="Drawing_8_0" stroke-width="40" stroke-linejoin="round" d="M 7133,14396 L 7133,14171 7261,14245 7261,14470 7133,14396 Z"/>
    </g>
    <g>
     <path fill="rgb(153,255,102)" stroke="none" d="M 7133,13575 L 7133,13350 7261,13424 7261,13649 7133,13575 Z"/>
     <path fill="none" stroke="rgb(51,51,51)" id="Drawing_9_0" stroke-width="40" stroke-linejoin="round" d="M 7133,13575 L 7133,13350 7261,13424 7261,13649 7133,13575 Z"/>
    </g>
   </g>
  </g>
 </g>
</svg>