<?xml version="1.0" encoding="UTF-8"?>

<svg version="1.2" baseProfile="tiny" width="24.91mm" height="34.5mm" viewBox="8421 3821 2491 3450" preserveAspectRatio="xMidYMid" fill-rule="evenodd" stroke-width="28.222" stroke-linejoin="round" xmlns="http://www.w3.org/2000/svg" xmlns:xlink="http://www.w3.org/1999/xlink" xml:space="preserve">
 <g visibility="visible" id="Slide_1">
  <g id="DrawingGroup_1">
   <g>
    <path fill="rgb(221,221,221)" stroke="none" d="M 9931,7271 C 10167,7271 10705,7271 10877,6923 11049,6575 10533,6575 10447,6575 10447,6724 9931,7072 9931,7271 Z"/>
    <path fill="none" stroke="rgb(221,221,221)" id="Drawing_1_0" stroke-linejoin="round" d="M 9931,7271 C 10167,7271 10705,7271 10877,6923 11049,6575 10533,6575 10447,6575 10447,6724 9931,7072 9931,7271 Z"/>
   </g>
   <g id="DrawingGroup_2">
    <g>
     <path fill="rgb(179,179,179)" stroke="none" d="M 10482,6907 L 9331,6907 9329,6874 9450,5830 9517,5823 9588,5819 9737,5820 10035,5824 10102,5820 10163,5812 10219,5799 10244,5791 10267,5781 10288,5769 10306,5756 10322,5740 10336,5723 10347,5704 10355,5682 10359,5658 10361,5631 10482,6505 10482,6907 Z"/>
     <path fill="rgb(180,180,180)" stroke="none" d="M 10482,6907 L 10482,6505 10533,6874 10530,6919 10519,6961 10503,7001 10481,7037 10454,7071 10422,7101 10385,7129 10345,7154 10254,7194 10152,7223 10043,7241 9931,7247 9819,7241 9710,7223 9608,7194 9517,7154 9477,7129 9440,7101 9408,7071 9381,7037 9359,7001 9343,6961 9332,6919 9331,6907 10482,6907 Z M 10466,6891 L 9330,6891 9329,6874 9450,5830 9517,5823 9588,5819 9737,5820 10035,5824 10102,5820 10163,5812 10219,5799 10244,5791 10267,5781 10288,5769 10306,5756 10322,5740 10336,5723 10347,5704 10355,5682 10359,5658 10361,5631 10466,6390 10466,6891 Z"/>
     <path fill="rgb(181,181,181)" stroke="none" d="M 10466,6891 L 10466,6390 10533,6874 10530,6919 10519,6961 10503,7001 10481,7037 10454,7071 10422,7101 10385,7129 10345,7154 10254,7194 10152,7223 10043,7241 9931,7247 9819,7241 9710,7223 9608,7194 9517,7154 9477,7129 9440,7101 9408,7071 9381,7037 9359,7001 9343,6961 9332,6919 9330,6891 10466,6891 Z M 10450,6875 L 9329,6875 9329,6874 9450,5830 9517,5823 9588,5819 9737,5820 10035,5824 10102,5820 10163,5812 10219,5799 10244,5791 10267,5781 10288,5769 10306,5756 10322,5740 10336,5723 10347,5704 10355,5682 10359,5658 10361,5631 10450,6274 10450,6875 Z"/>
     <path fill="rgb(182,182,182)" stroke="none" d="M 10450,6875 L 10450,6274 10533,6874 10530,6919 10519,6961 10503,7001 10481,7037 10454,7071 10422,7101 10385,7129 10345,7154 10254,7194 10152,7223 10043,7241 9931,7247 9819,7241 9710,7223 9608,7194 9517,7154 9477,7129 9440,7101 9408,7071 9381,7037 9359,7001 9343,6961 9332,6919 9329,6875 10450,6875 Z M 10434,6859 L 9331,6859 9450,5830 9517,5823 9588,5819 9737,5820 10035,5824 10102,5820 10163,5812 10219,5799 10244,5791 10267,5781 10288,5769 10306,5756 10322,5740 10336,5723 10347,5704 10355,5682 10359,5658 10361,5631 10434,6159 10434,6859 Z"/>
     <path fill="rgb(183,183,183)" stroke="none" d="M 10434,6859 L 10434,6159 10533,6874 10530,6919 10519,6961 10503,7001 10481,7037 10454,7071 10422,7101 10385,7129 10345,7154 10254,7194 10152,7223 10043,7241 9931,7247 9819,7241 9710,7223 9608,7194 9517,7154 9477,7129 9440,7101 9408,7071 9381,7037 9359,7001 9343,6961 9332,6919 9329,6874 9331,6859 10434,6859 Z M 10418,6843 L 9333,6843 9450,5830 9517,5823 9588,5819 9737,5820 10035,5824 10102,5820 10163,5812 10219,5799 10244,5791 10267,5781 10288,5769 10306,5756 10322,5740 10336,5723 10347,5704 10355,5682 10359,5658 10361,5631 10418,6043 10418,6843 Z"/>
     <path fill="rgb(184,184,184)" stroke="none" d="M 10418,6843 L 10418,6043 10533,6874 10530,6919 10519,6961 10503,7001 10481,7037 10454,7071 10422,7101 10385,7129 10345,7154 10254,7194 10152,7223 10043,7241 9931,7247 9819,7241 9710,7223 9608,7194 9517,7154 9477,7129 9440,7101 9408,7071 9381,7037 9359,7001 9343,6961 9332,6919 9329,6874 9333,6843 10418,6843 Z M 10401,6826 L 9335,6826 9450,5830 9517,5823 9588,5819 9737,5820 10035,5824 10102,5820 10163,5812 10219,5799 10244,5791 10267,5781 10288,5769 10306,5756 10322,5740 10336,5723 10347,5704 10355,5682 10359,5658 10361,5631 10401,5920 10401,6826 Z"/>
     <path fill="rgb(185,185,185)" stroke="none" d="M 10401,6826 L 10401,5920 10533,6874 10530,6919 10519,6961 10503,7001 10481,7037 10454,7071 10422,7101 10385,7129 10345,7154 10254,7194 10152,7223 10043,7241 9931,7247 9819,7241 9710,7223 9608,7194 9517,7154 9477,7129 9440,7101 9408,7071 9381,7037 9359,7001 9343,6961 9332,6919 9329,6874 9335,6826 10401,6826 Z M 10385,6810 L 9336,6810 9450,5830 9517,5823 9588,5819 9737,5820 10035,5824 10102,5820 10163,5812 10219,5799 10244,5791 10267,5781 10288,5769 10306,5756 10322,5740 10336,5723 10347,5704 10355,5682 10359,5658 10361,5631 10385,5804 10385,6810 Z"/>
     <path fill="rgb(186,186,186)" stroke="none" d="M 10385,6810 L 10385,5804 10533,6874 10530,6919 10519,6961 10503,7001 10481,7037 10454,7071 10422,7101 10385,7129 10345,7154 10254,7194 10152,7223 10043,7241 9931,7247 9819,7241 9710,7223 9608,7194 9517,7154 9477,7129 9440,7101 9408,7071 9381,7037 9359,7001 9343,6961 9332,6919 9329,6874 9336,6810 10385,6810 Z M 10369,6794 L 9338,6794 9450,5830 9517,5823 9588,5819 9737,5820 10035,5824 10102,5820 10163,5812 10219,5799 10244,5791 10267,5781 10288,5769 10306,5756 10322,5740 10336,5723 10347,5704 10355,5682 10359,5658 10361,5631 10369,5689 10369,6794 Z"/>
     <path fill="rgb(187,187,187)" stroke="none" d="M 10369,6794 L 10369,5689 10533,6874 10530,6919 10519,6961 10503,7001 10481,7037 10454,7071 10422,7101 10385,7129 10345,7154 10254,7194 10152,7223 10043,7241 9931,7247 9819,7241 9710,7223 9608,7194 9517,7154 9477,7129 9440,7101 9408,7071 9381,7037 9359,7001 9343,6961 9332,6919 9329,6874 9338,6794 10369,6794 Z M 10353,6778 L 9340,6778 9450,5830 9517,5823 9588,5819 9737,5820 10035,5824 10102,5820 10163,5812 10219,5799 10244,5791 10267,5781 10288,5769 10306,5756 10322,5740 10336,5723 10347,5704 10353,5688 10353,6778 Z"/>
     <path fill="rgb(188,188,188)" stroke="none" d="M 10353,6778 L 10353,5688 10355,5682 10359,5658 10361,5631 10533,6874 10530,6919 10519,6961 10503,7001 10481,7037 10454,7071 10422,7101 10385,7129 10345,7154 10254,7194 10152,7223 10043,7241 9931,7247 9819,7241 9710,7223 9608,7194 9517,7154 9477,7129 9440,7101 9408,7071 9381,7037 9359,7001 9343,6961 9332,6919 9329,6874 9340,6778 10353,6778 Z M 10337,6762 L 9342,6762 9450,5830 9517,5823 9588,5819 9737,5820 10035,5824 10102,5820 10163,5812 10219,5799 10244,5791 10267,5781 10288,5769 10306,5756 10322,5740 10336,5723 10337,5721 10337,6762 Z"/>
     <path fill="rgb(189,189,189)" stroke="none" d="M 10337,6762 L 10337,5721 10347,5704 10355,5682 10359,5658 10361,5631 10533,6874 10530,6919 10519,6961 10503,7001 10481,7037 10454,7071 10422,7101 10385,7129 10345,7154 10254,7194 10152,7223 10043,7241 9931,7247 9819,7241 9710,7223 9608,7194 9517,7154 9477,7129 9440,7101 9408,7071 9381,7037 9359,7001 9343,6961 9332,6919 9329,6874 9342,6762 10337,6762 Z M 10320,6745 L 9344,6745 9450,5830 9517,5823 9588,5819 9737,5820 10035,5824 10102,5820 10163,5812 10219,5799 10244,5791 10267,5781 10288,5769 10306,5756 10320,5742 10320,6745 Z"/>
     <path fill="rgb(190,190,190)" stroke="none" d="M 10320,6745 L 10320,5742 10322,5740 10336,5723 10347,5704 10355,5682 10359,5658 10361,5631 10533,6874 10530,6919 10519,6961 10503,7001 10481,7037 10454,7071 10422,7101 10385,7129 10345,7154 10254,7194 10152,7223 10043,7241 9931,7247 9819,7241 9710,7223 9608,7194 9517,7154 9477,7129 9440,7101 9408,7071 9381,7037 9359,7001 9343,6961 9332,6919 9329,6874 9344,6745 10320,6745 Z M 10304,6729 L 9346,6729 9450,5830 9517,5823 9588,5819 9737,5820 10035,5824 10102,5820 10163,5812 10219,5799 10244,5791 10267,5781 10288,5769 10304,5757 10304,6729 Z"/>
     <path fill="rgb(191,191,191)" stroke="none" d="M 10304,6729 L 10304,5757 10306,5756 10322,5740 10336,5723 10347,5704 10355,5682 10359,5658 10361,5631 10533,6874 10530,6919 10519,6961 10503,7001 10481,7037 10454,7071 10422,7101 10385,7129 10345,7154 10254,7194 10152,7223 10043,7241 9931,7247 9819,7241 9710,7223 9608,7194 9517,7154 9477,7129 9440,7101 9408,7071 9381,7037 9359,7001 9343,6961 9332,6919 9329,6874 9346,6729 10304,6729 Z M 10288,6713 L 9348,6713 9450,5830 9517,5823 9588,5819 9737,5820 10035,5824 10102,5820 10163,5812 10219,5799 10244,5791 10267,5781 10288,5769 10288,6713 Z"/>
     <path fill="rgb(192,192,192)" stroke="none" d="M 10288,6713 L 10288,5769 10306,5756 10322,5740 10336,5723 10347,5704 10355,5682 10359,5658 10361,5631 10533,6874 10530,6919 10519,6961 10503,7001 10481,7037 10454,7071 10422,7101 10385,7129 10345,7154 10254,7194 10152,7223 10043,7241 9931,7247 9819,7241 9710,7223 9608,7194 9517,7154 9477,7129 9440,7101 9408,7071 9381,7037 9359,7001 9343,6961 9332,6919 9329,6874 9348,6713 10288,6713 Z M 10272,6697 L 9350,6697 9450,5830 9517,5823 9588,5819 9737,5820 10035,5824 10102,5820 10163,5812 10219,5799 10244,5791 10267,5781 10272,5778 10272,6697 Z"/>
     <path fill="rgb(193,193,193)" stroke="none" d="M 10272,6697 L 10272,5778 10288,5769 10306,5756 10322,5740 10336,5723 10347,5704 10355,5682 10359,5658 10361,5631 10533,6874 10530,6919 10519,6961 10503,7001 10481,7037 10454,7071 10422,7101 10385,7129 10345,7154 10254,7194 10152,7223 10043,7241 9931,7247 9819,7241 9710,7223 9608,7194 9517,7154 9477,7129 9440,7101 9408,7071 9381,7037 9359,7001 9343,6961 9332,6919 9329,6874 9350,6697 10272,6697 Z M 10256,6681 L 9351,6681 9450,5830 9517,5823 9588,5819 9737,5820 10035,5824 10102,5820 10163,5812 10219,5799 10244,5791 10256,5786 10256,6681 Z"/>
     <path fill="rgb(194,194,194)" stroke="none" d="M 10256,6681 L 10256,5786 10267,5781 10288,5769 10306,5756 10322,5740 10336,5723 10347,5704 10355,5682 10359,5658 10361,5631 10533,6874 10530,6919 10519,6961 10503,7001 10481,7037 10454,7071 10422,7101 10385,7129 10345,7154 10254,7194 10152,7223 10043,7241 9931,7247 9819,7241 9710,7223 9608,7194 9517,7154 9477,7129 9440,7101 9408,7071 9381,7037 9359,7001 9343,6961 9332,6919 9329,6874 9351,6681 10256,6681 Z M 10239,6664 L 9353,6664 9450,5830 9517,5823 9588,5819 9737,5820 10035,5824 10102,5820 10163,5812 10219,5799 10239,5793 10239,6664 Z"/>
     <path fill="rgb(195,195,195)" stroke="none" d="M 10239,6664 L 10239,5793 10244,5791 10267,5781 10288,5769 10306,5756 10322,5740 10336,5723 10347,5704 10355,5682 10359,5658 10361,5631 10533,6874 10530,6919 10519,6961 10503,7001 10481,7037 10454,7071 10422,7101 10385,7129 10345,7154 10254,7194 10152,7223 10043,7241 9931,7247 9819,7241 9710,7223 9608,7194 9517,7154 9477,7129 9440,7101 9408,7071 9381,7037 9359,7001 9343,6961 9332,6919 9329,6874 9353,6664 10239,6664 Z M 10223,6648 L 9355,6648 9450,5830 9517,5823 9588,5819 9737,5820 10035,5824 10102,5820 10163,5812 10219,5799 10223,5798 10223,6648 Z"/>
     <path fill="rgb(196,196,196)" stroke="none" d="M 10223,6648 L 10223,5798 10244,5791 10267,5781 10288,5769 10306,5756 10322,5740 10336,5723 10347,5704 10355,5682 10359,5658 10361,5631 10533,6874 10530,6919 10519,6961 10503,7001 10481,7037 10454,7071 10422,7101 10385,7129 10345,7154 10254,7194 10152,7223 10043,7241 9931,7247 9819,7241 9710,7223 9608,7194 9517,7154 9477,7129 9440,7101 9408,7071 9381,7037 9359,7001 9343,6961 9332,6919 9329,6874 9355,6648 10223,6648 Z M 10207,6632 L 9357,6632 9450,5830 9517,5823 9588,5819 9737,5820 10035,5824 10102,5820 10163,5812 10207,5802 10207,6632 Z"/>
     <path fill="rgb(197,197,197)" stroke="none" d="M 10207,6632 L 10207,5802 10219,5799 10244,5791 10267,5781 10288,5769 10306,5756 10322,5740 10336,5723 10347,5704 10355,5682 10359,5658 10361,5631 10533,6874 10530,6919 10519,6961 10503,7001 10481,7037 10454,7071 10422,7101 10385,7129 10345,7154 10254,7194 10152,7223 10043,7241 9931,7247 9819,7241 9710,7223 9608,7194 9517,7154 9477,7129 9440,7101 9408,7071 9381,7037 9359,7001 9343,6961 9332,6919 9329,6874 9357,6632 10207,6632 Z M 10191,6616 L 9359,6616 9450,5830 9517,5823 9588,5819 9737,5820 10035,5824 10102,5820 10163,5812 10191,5806 10191,6616 Z"/>
     <path fill="rgb(198,198,198)" stroke="none" d="M 10191,6616 L 10191,5806 10219,5799 10244,5791 10267,5781 10288,5769 10306,5756 10322,5740 10336,5723 10347,5704 10355,5682 10359,5658 10361,5631 10533,6874 10530,6919 10519,6961 10503,7001 10481,7037 10454,7071 10422,7101 10385,7129 10345,7154 10254,7194 10152,7223 10043,7241 9931,7247 9819,7241 9710,7223 9608,7194 9517,7154 9477,7129 9440,7101 9408,7071 9381,7037 9359,7001 9343,6961 9332,6919 9329,6874 9359,6616 10191,6616 Z M 10175,6600 L 9361,6600 9450,5830 9517,5823 9588,5819 9737,5820 10035,5824 10102,5820 10163,5812 10175,5809 10175,6600 Z"/>
     <path fill="rgb(199,199,199)" stroke="none" d="M 10175,6600 L 10175,5809 10219,5799 10244,5791 10267,5781 10288,5769 10306,5756 10322,5740 10336,5723 10347,5704 10355,5682 10359,5658 10361,5631 10533,6874 10530,6919 10519,6961 10503,7001 10481,7037 10454,7071 10422,7101 10385,7129 10345,7154 10254,7194 10152,7223 10043,7241 9931,7247 9819,7241 9710,7223 9608,7194 9517,7154 9477,7129 9440,7101 9408,7071 9381,7037 9359,7001 9343,6961 9332,6919 9329,6874 9361,6600 10175,6600 Z M 10159,6584 L 9363,6584 9450,5830 9517,5823 9588,5819 9737,5820 10035,5824 10102,5820 10159,5813 10159,6584 Z"/>
     <path fill="rgb(200,200,200)" stroke="none" d="M 10159,6584 L 10159,5813 10163,5812 10219,5799 10244,5791 10267,5781 10288,5769 10306,5756 10322,5740 10336,5723 10347,5704 10355,5682 10359,5658 10361,5631 10533,6874 10530,6919 10519,6961 10503,7001 10481,7037 10454,7071 10422,7101 10385,7129 10345,7154 10254,7194 10152,7223 10043,7241 9931,7247 9819,7241 9710,7223 9608,7194 9517,7154 9477,7129 9440,7101 9408,7071 9381,7037 9359,7001 9343,6961 9332,6919 9329,6874 9363,6584 10159,6584 Z M 10142,6567 L 9365,6567 9450,5830 9517,5823 9588,5819 9737,5820 10035,5824 10102,5820 10142,5815 10142,6567 Z"/>
     <path fill="rgb(201,201,201)" stroke="none" d="M 10142,6567 L 10142,5815 10163,5812 10219,5799 10244,5791 10267,5781 10288,5769 10306,5756 10322,5740 10336,5723 10347,5704 10355,5682 10359,5658 10361,5631 10533,6874 10530,6919 10519,6961 10503,7001 10481,7037 10454,7071 10422,7101 10385,7129 10345,7154 10254,7194 10152,7223 10043,7241 9931,7247 9819,7241 9710,7223 9608,7194 9517,7154 9477,7129 9440,7101 9408,7071 9381,7037 9359,7001 9343,6961 9332,6919 9329,6874 9365,6567 10142,6567 Z M 10126,6551 L 9366,6551 9450,5830 9517,5823 9588,5819 9737,5820 10035,5824 10102,5820 10126,5817 10126,6551 Z"/>
     <path fill="rgb(202,202,202)" stroke="none" d="M 10126,6551 L 10126,5817 10163,5812 10219,5799 10244,5791 10267,5781 10288,5769 10306,5756 10322,5740 10336,5723 10347,5704 10355,5682 10359,5658 10361,5631 10533,6874 10530,6919 10519,6961 10503,7001 10481,7037 10454,7071 10422,7101 10385,7129 10345,7154 10254,7194 10152,7223 10043,7241 9931,7247 9819,7241 9710,7223 9608,7194 9517,7154 9477,7129 9440,7101 9408,7071 9381,7037 9359,7001 9343,6961 9332,6919 9329,6874 9366,6551 10126,6551 Z M 10110,6535 L 9368,6535 9450,5830 9517,5823 9588,5819 9737,5820 10035,5824 10102,5820 10110,5819 10110,6535 Z"/>
     <path fill="rgb(203,203,203)" stroke="none" d="M 10110,6535 L 10110,5819 10163,5812 10219,5799 10244,5791 10267,5781 10288,5769 10306,5756 10322,5740 10336,5723 10347,5704 10355,5682 10359,5658 10361,5631 10533,6874 10530,6919 10519,6961 10503,7001 10481,7037 10454,7071 10422,7101 10385,7129 10345,7154 10254,7194 10152,7223 10043,7241 9931,7247 9819,7241 9710,7223 9608,7194 9517,7154 9477,7129 9440,7101 9408,7071 9381,7037 9359,7001 9343,6961 9332,6919 9329,6874 9368,6535 10110,6535 Z M 10094,6519 L 9370,6519 9450,5830 9517,5823 9588,5819 9737,5820 10035,5824 10094,5820 10094,6519 Z"/>
     <path fill="rgb(204,204,204)" stroke="none" d="M 10094,6519 L 10094,5820 10102,5820 10163,5812 10219,5799 10244,5791 10267,5781 10288,5769 10306,5756 10322,5740 10336,5723 10347,5704 10355,5682 10359,5658 10361,5631 10533,6874 10530,6919 10519,6961 10503,7001 10481,7037 10454,7071 10422,7101 10385,7129 10345,7154 10254,7194 10152,7223 10043,7241 9931,7247 9819,7241 9710,7223 9608,7194 9517,7154 9477,7129 9440,7101 9408,7071 9381,7037 9359,7001 9343,6961 9332,6919 9329,6874 9370,6519 10094,6519 Z M 10078,6503 L 9372,6503 9450,5830 9517,5823 9588,5819 9737,5820 10035,5824 10078,5821 10078,6503 Z"/>
     <path fill="rgb(205,205,205)" stroke="none" d="M 10078,6503 L 10078,5821 10102,5820 10163,5812 10219,5799 10244,5791 10267,5781 10288,5769 10306,5756 10322,5740 10336,5723 10347,5704 10355,5682 10359,5658 10361,5631 10533,6874 10530,6919 10519,6961 10503,7001 10481,7037 10454,7071 10422,7101 10385,7129 10345,7154 10254,7194 10152,7223 10043,7241 9931,7247 9819,7241 9710,7223 9608,7194 9517,7154 9477,7129 9440,7101 9408,7071 9381,7037 9359,7001 9343,6961 9332,6919 9329,6874 9372,6503 10078,6503 Z M 10061,6486 L 9374,6486 9450,5830 9517,5823 9588,5819 9737,5820 10035,5824 10061,5822 10061,6486 Z"/>
     <path fill="rgb(206,206,206)" stroke="none" d="M 10061,6486 L 10061,5822 10102,5820 10163,5812 10219,5799 10244,5791 10267,5781 10288,5769 10306,5756 10322,5740 10336,5723 10347,5704 10355,5682 10359,5658 10361,5631 10533,6874 10530,6919 10519,6961 10503,7001 10481,7037 10454,7071 10422,7101 10385,7129 10345,7154 10254,7194 10152,7223 10043,7241 9931,7247 9819,7241 9710,7223 9608,7194 9517,7154 9477,7129 9440,7101 9408,7071 9381,7037 9359,7001 9343,6961 9332,6919 9329,6874 9374,6486 10061,6486 Z M 10045,6470 L 9376,6470 9450,5830 9517,5823 9588,5819 9737,5820 10035,5824 10045,5823 10045,6470 Z"/>
     <path fill="rgb(207,207,207)" stroke="none" d="M 10045,6470 L 10045,5823 10102,5820 10163,5812 10219,5799 10244,5791 10267,5781 10288,5769 10306,5756 10322,5740 10336,5723 10347,5704 10355,5682 10359,5658 10361,5631 10533,6874 10530,6919 10519,6961 10503,7001 10481,7037 10454,7071 10422,7101 10385,7129 10345,7154 10254,7194 10152,7223 10043,7241 9931,7247 9819,7241 9710,7223 9608,7194 9517,7154 9477,7129 9440,7101 9408,7071 9381,7037 9359,7001 9343,6961 9332,6919 9329,6874 9376,6470 10045,6470 Z M 10029,6454 L 9378,6454 9450,5830 9517,5823 9588,5819 9737,5820 10029,5824 10029,6454 Z"/>
     <path fill="rgb(208,208,208)" stroke="none" d="M 10029,6454 L 10029,5824 10035,5824 10102,5820 10163,5812 10219,5799 10244,5791 10267,5781 10288,5769 10306,5756 10322,5740 10336,5723 10347,5704 10355,5682 10359,5658 10361,5631 10533,6874 10530,6919 10519,6961 10503,7001 10481,7037 10454,7071 10422,7101 10385,7129 10345,7154 10254,7194 10152,7223 10043,7241 9931,7247 9819,7241 9710,7223 9608,7194 9517,7154 9477,7129 9440,7101 9408,7071 9381,7037 9359,7001 9343,6961 9332,6919 9329,6874 9378,6454 10029,6454 Z M 10013,6438 L 9380,6438 9450,5830 9517,5823 9588,5819 9737,5820 10013,5824 10013,6438 Z"/>
     <path fill="rgb(209,209,209)" stroke="none" d="M 10013,6438 L 10013,5824 10035,5824 10102,5820 10163,5812 10219,5799 10244,5791 10267,5781 10288,5769 10306,5756 10322,5740 10336,5723 10347,5704 10355,5682 10359,5658 10361,5631 10533,6874 10530,6919 10519,6961 10503,7001 10481,7037 10454,7071 10422,7101 10385,7129 10345,7154 10254,7194 10152,7223 10043,7241 9931,7247 9819,7241 9710,7223 9608,7194 9517,7154 9477,7129 9440,7101 9408,7071 9381,7037 9359,7001 9343,6961 9332,6919 9329,6874 9380,6438 10013,6438 Z M 9997,6422 L 9382,6422 9382,6417 9450,5830 9517,5823 9588,5819 9737,5820 9997,5823 9997,6422 Z"/>
     <path fill="rgb(210,210,210)" stroke="none" d="M 9382,6422 L 9997,6422 9997,5823 10035,5824 10102,5820 10163,5812 10219,5799 10244,5791 10267,5781 10288,5769 10306,5756 10322,5740 10336,5723 10347,5704 10355,5682 10359,5658 10361,5631 10533,6874 10530,6919 10519,6961 10503,7001 10481,7037 10454,7071 10422,7101 10385,7129 10345,7154 10254,7194 10152,7223 10043,7241 9931,7247 9819,7241 9710,7223 9608,7194 9517,7154 9477,7129 9440,7101 9408,7071 9381,7037 9359,7001 9343,6961 9332,6919 9329,6874 9382,6417 9382,6422 Z M 9980,5824 L 9980,6405 9399,6405 9399,6270 9450,5830 9507,5824 9980,5824 Z"/>
     <path fill="rgb(211,211,211)" stroke="none" d="M 9399,6405 L 9980,6405 9980,5824 9507,5824 9517,5823 9588,5819 9737,5820 10035,5824 10102,5820 10163,5812 10219,5799 10244,5791 10267,5781 10288,5769 10306,5756 10322,5740 10336,5723 10347,5704 10355,5682 10359,5658 10361,5631 10533,6874 10530,6919 10519,6961 10503,7001 10481,7037 10454,7071 10422,7101 10385,7129 10345,7154 10254,7194 10152,7223 10043,7241 9931,7247 9819,7241 9710,7223 9608,7194 9517,7154 9477,7129 9440,7101 9408,7071 9381,7037 9359,7001 9343,6961 9332,6919 9329,6874 9399,6270 9399,6405 Z M 9964,5840 L 9964,6389 9415,6389 9415,6132 9449,5840 9964,5840 Z"/>
     <path fill="rgb(212,212,212)" stroke="none" d="M 9415,6389 L 9964,6389 9964,5840 9449,5840 9450,5830 9517,5823 9588,5819 9737,5820 10035,5824 10102,5820 10163,5812 10219,5799 10244,5791 10267,5781 10288,5769 10306,5756 10322,5740 10336,5723 10347,5704 10355,5682 10359,5658 10361,5631 10533,6874 10530,6919 10519,6961 10503,7001 10481,7037 10454,7071 10422,7101 10385,7129 10345,7154 10254,7194 10152,7223 10043,7241 9931,7247 9819,7241 9710,7223 9608,7194 9517,7154 9477,7129 9440,7101 9408,7071 9381,7037 9359,7001 9343,6961 9332,6919 9329,6874 9415,6132 9415,6389 Z M 9948,5856 L 9948,6373 9431,6373 9431,5994 9447,5856 9948,5856 Z"/>
     <path fill="rgb(213,213,213)" stroke="none" d="M 9431,6373 L 9948,6373 9948,5856 9447,5856 9450,5830 9517,5823 9588,5819 9737,5820 10035,5824 10102,5820 10163,5812 10219,5799 10244,5791 10267,5781 10288,5769 10306,5756 10322,5740 10336,5723 10347,5704 10355,5682 10359,5658 10361,5631 10533,6874 10530,6919 10519,6961 10503,7001 10481,7037 10454,7071 10422,7101 10385,7129 10345,7154 10254,7194 10152,7223 10043,7241 9931,7247 9819,7241 9710,7223 9608,7194 9517,7154 9477,7129 9440,7101 9408,7071 9381,7037 9359,7001 9343,6961 9332,6919 9329,6874 9431,5994 9431,6373 Z M 9447,5872 L 9932,5872 9932,6357 9447,6357 9447,5872 Z"/>
     <path fill="rgb(214,214,214)" stroke="none" d="M 9447,5872 L 9447,6357 9932,6357 9932,5872 9447,5872 Z M 9463,5888 L 9916,5888 9916,6341 9463,6341 9463,5888 Z M 9329,6874 L 9450,5830 9517,5823 9588,5819 9737,5820 10035,5824 10102,5820 10163,5812 10219,5799 10244,5791 10267,5781 10288,5769 10306,5756 10322,5740 10336,5723 10347,5704 10355,5682 10359,5658 10361,5631 10533,6874 10530,6919 10519,6961 10503,7001 10481,7037 10454,7071 10422,7101 10385,7129 10345,7154 10254,7194 10152,7223 10043,7241 9931,7247 9819,7241 9710,7223 9608,7194 9517,7154 9477,7129 9440,7101 9408,7071 9381,7037 9359,7001 9343,6961 9332,6919 9329,6874 Z"/>
     <path fill="rgb(215,215,215)" stroke="none" d="M 9463,5888 L 9463,6341 9916,6341 9916,5888 9463,5888 Z M 9480,5905 L 9899,5905 9899,6324 9480,6324 9480,5905 Z M 9329,6874 L 9450,5830 9517,5823 9588,5819 9737,5820 10035,5824 10102,5820 10163,5812 10219,5799 10244,5791 10267,5781 10288,5769 10306,5756 10322,5740 10336,5723 10347,5704 10355,5682 10359,5658 10361,5631 10533,6874 10530,6919 10519,6961 10503,7001 10481,7037 10454,7071 10422,7101 10385,7129 10345,7154 10254,7194 10152,7223 10043,7241 9931,7247 9819,7241 9710,7223 9608,7194 9517,7154 9477,7129 9440,7101 9408,7071 9381,7037 9359,7001 9343,6961 9332,6919 9329,6874 Z"/>
     <path fill="rgb(216,216,216)" stroke="none" d="M 9480,5905 L 9480,6324 9899,6324 9899,5905 9480,5905 Z M 9496,5921 L 9883,5921 9883,6308 9496,6308 9496,5921 Z M 9329,6874 L 9450,5830 9517,5823 9588,5819 9737,5820 10035,5824 10102,5820 10163,5812 10219,5799 10244,5791 10267,5781 10288,5769 10306,5756 10322,5740 10336,5723 10347,5704 10355,5682 10359,5658 10361,5631 10533,6874 10530,6919 10519,6961 10503,7001 10481,7037 10454,7071 10422,7101 10385,7129 10345,7154 10254,7194 10152,7223 10043,7241 9931,7247 9819,7241 9710,7223 9608,7194 9517,7154 9477,7129 9440,7101 9408,7071 9381,7037 9359,7001 9343,6961 9332,6919 9329,6874 Z"/>
     <path fill="rgb(217,217,217)" stroke="none" d="M 9496,5921 L 9496,6308 9883,6308 9883,5921 9496,5921 Z M 9512,5937 L 9867,5937 9867,6292 9512,6292 9512,5937 Z M 9329,6874 L 9450,5830 9517,5823 9588,5819 9737,5820 10035,5824 10102,5820 10163,5812 10219,5799 10244,5791 10267,5781 10288,5769 10306,5756 10322,5740 10336,5723 10347,5704 10355,5682 10359,5658 10361,5631 10533,6874 10530,6919 10519,6961 10503,7001 10481,7037 10454,7071 10422,7101 10385,7129 10345,7154 10254,7194 10152,7223 10043,7241 9931,7247 9819,7241 9710,7223 9608,7194 9517,7154 9477,7129 9440,7101 9408,7071 9381,7037 9359,7001 9343,6961 9332,6919 9329,6874 Z"/>
     <path fill="rgb(218,218,218)" stroke="none" d="M 9512,5937 L 9512,6292 9867,6292 9867,5937 9512,5937 Z M 9528,5953 L 9851,5953 9851,6276 9528,6276 9528,5953 Z M 9329,6874 L 9450,5830 9517,5823 9588,5819 9737,5820 10035,5824 10102,5820 10163,5812 10219,5799 10244,5791 10267,5781 10288,5769 10306,5756 10322,5740 10336,5723 10347,5704 10355,5682 10359,5658 10361,5631 10533,6874 10530,6919 10519,6961 10503,7001 10481,7037 10454,7071 10422,7101 10385,7129 10345,7154 10254,7194 10152,7223 10043,7241 9931,7247 9819,7241 9710,7223 9608,7194 9517,7154 9477,7129 9440,7101 9408,7071 9381,7037 9359,7001 9343,6961 9332,6919 9329,6874 Z"/>
     <path fill="rgb(219,219,219)" stroke="none" d="M 9528,5953 L 9528,6276 9851,6276 9851,5953 9528,5953 Z M 9544,5969 L 9835,5969 9835,6260 9544,6260 9544,5969 Z M 9329,6874 L 9450,5830 9517,5823 9588,5819 9737,5820 10035,5824 10102,5820 10163,5812 10219,5799 10244,5791 10267,5781 10288,5769 10306,5756 10322,5740 10336,5723 10347,5704 10355,5682 10359,5658 10361,5631 10533,6874 10530,6919 10519,6961 10503,7001 10481,7037 10454,7071 10422,7101 10385,7129 10345,7154 10254,7194 10152,7223 10043,7241 9931,7247 9819,7241 9710,7223 9608,7194 9517,7154 9477,7129 9440,7101 9408,7071 9381,7037 9359,7001 9343,6961 9332,6919 9329,6874 Z"/>
     <path fill="rgb(220,220,220)" stroke="none" d="M 9544,5969 L 9544,6260 9835,6260 9835,5969 9544,5969 Z M 9560,5985 L 9819,5985 9819,6244 9560,6244 9560,5985 Z M 9329,6874 L 9450,5830 9517,5823 9588,5819 9737,5820 10035,5824 10102,5820 10163,5812 10219,5799 10244,5791 10267,5781 10288,5769 10306,5756 10322,5740 10336,5723 10347,5704 10355,5682 10359,5658 10361,5631 10533,6874 10530,6919 10519,6961 10503,7001 10481,7037 10454,7071 10422,7101 10385,7129 10345,7154 10254,7194 10152,7223 10043,7241 9931,7247 9819,7241 9710,7223 9608,7194 9517,7154 9477,7129 9440,7101 9408,7071 9381,7037 9359,7001 9343,6961 9332,6919 9329,6874 Z"/>
     <path fill="rgb(221,221,221)" stroke="none" d="M 9560,5985 L 9560,6244 9819,6244 9819,5985 9560,5985 Z M 9577,6002 L 9802,6002 9802,6227 9577,6227 9577,6002 Z M 9329,6874 L 9450,5830 9517,5823 9588,5819 9737,5820 10035,5824 10102,5820 10163,5812 10219,5799 10244,5791 10267,5781 10288,5769 10306,5756 10322,5740 10336,5723 10347,5704 10355,5682 10359,5658 10361,5631 10533,6874 10530,6919 10519,6961 10503,7001 10481,7037 10454,7071 10422,7101 10385,7129 10345,7154 10254,7194 10152,7223 10043,7241 9931,7247 9819,7241 9710,7223 9608,7194 9517,7154 9477,7129 9440,7101 9408,7071 9381,7037 9359,7001 9343,6961 9332,6919 9329,6874 Z"/>
     <path fill="rgb(222,222,222)" stroke="none" d="M 9577,6002 L 9577,6227 9802,6227 9802,6002 9577,6002 Z M 9593,6018 L 9786,6018 9786,6211 9593,6211 9593,6018 Z M 9329,6874 L 9450,5830 9517,5823 9588,5819 9737,5820 10035,5824 10102,5820 10163,5812 10219,5799 10244,5791 10267,5781 10288,5769 10306,5756 10322,5740 10336,5723 10347,5704 10355,5682 10359,5658 10361,5631 10533,6874 10530,6919 10519,6961 10503,7001 10481,7037 10454,7071 10422,7101 10385,7129 10345,7154 10254,7194 10152,7223 10043,7241 9931,7247 9819,7241 9710,7223 9608,7194 9517,7154 9477,7129 9440,7101 9408,7071 9381,7037 9359,7001 9343,6961 9332,6919 9329,6874 Z"/>
     <path fill="rgb(223,223,223)" stroke="none" d="M 9593,6018 L 9593,6211 9786,6211 9786,6018 9593,6018 Z M 9609,6034 L 9770,6034 9770,6195 9609,6195 9609,6034 Z M 9329,6874 L 9450,5830 9517,5823 9588,5819 9737,5820 10035,5824 10102,5820 10163,5812 10219,5799 10244,5791 10267,5781 10288,5769 10306,5756 10322,5740 10336,5723 10347,5704 10355,5682 10359,5658 10361,5631 10533,6874 10530,6919 10519,6961 10503,7001 10481,7037 10454,7071 10422,7101 10385,7129 10345,7154 10254,7194 10152,7223 10043,7241 9931,7247 9819,7241 9710,7223 9608,7194 9517,7154 9477,7129 9440,7101 9408,7071 9381,7037 9359,7001 9343,6961 9332,6919 9329,6874 Z"/>
     <path fill="rgb(224,224,224)" stroke="none" d="M 9609,6034 L 9609,6195 9770,6195 9770,6034 9609,6034 Z M 9625,6050 L 9754,6050 9754,6179 9625,6179 9625,6050 Z M 9329,6874 L 9450,5830 9517,5823 9588,5819 9737,5820 10035,5824 10102,5820 10163,5812 10219,5799 10244,5791 10267,5781 10288,5769 10306,5756 10322,5740 10336,5723 10347,5704 10355,5682 10359,5658 10361,5631 10533,6874 10530,6919 10519,6961 10503,7001 10481,7037 10454,7071 10422,7101 10385,7129 10345,7154 10254,7194 10152,7223 10043,7241 9931,7247 9819,7241 9710,7223 9608,7194 9517,7154 9477,7129 9440,7101 9408,7071 9381,7037 9359,7001 9343,6961 9332,6919 9329,6874 Z"/>
     <path fill="rgb(225,225,225)" stroke="none" d="M 9625,6050 L 9625,6179 9754,6179 9754,6050 9625,6050 Z M 9641,6066 L 9738,6066 9738,6163 9641,6163 9641,6066 Z M 9329,6874 L 9450,5830 9517,5823 9588,5819 9737,5820 10035,5824 10102,5820 10163,5812 10219,5799 10244,5791 10267,5781 10288,5769 10306,5756 10322,5740 10336,5723 10347,5704 10355,5682 10359,5658 10361,5631 10533,6874 10530,6919 10519,6961 10503,7001 10481,7037 10454,7071 10422,7101 10385,7129 10345,7154 10254,7194 10152,7223 10043,7241 9931,7247 9819,7241 9710,7223 9608,7194 9517,7154 9477,7129 9440,7101 9408,7071 9381,7037 9359,7001 9343,6961 9332,6919 9329,6874 Z"/>
     <path fill="rgb(226,226,226)" stroke="none" d="M 9641,6066 L 9641,6163 9738,6163 9738,6066 9641,6066 Z M 9658,6083 L 9721,6083 9721,6146 9658,6146 9658,6083 Z M 9329,6874 L 9450,5830 9517,5823 9588,5819 9737,5820 10035,5824 10102,5820 10163,5812 10219,5799 10244,5791 10267,5781 10288,5769 10306,5756 10322,5740 10336,5723 10347,5704 10355,5682 10359,5658 10361,5631 10533,6874 10530,6919 10519,6961 10503,7001 10481,7037 10454,7071 10422,7101 10385,7129 10345,7154 10254,7194 10152,7223 10043,7241 9931,7247 9819,7241 9710,7223 9608,7194 9517,7154 9477,7129 9440,7101 9408,7071 9381,7037 9359,7001 9343,6961 9332,6919 9329,6874 Z"/>
     <path fill="rgb(227,227,227)" stroke="none" d="M 9658,6083 L 9658,6146 9721,6146 9721,6083 9658,6083 Z M 9674,6099 L 9705,6099 9705,6130 9674,6130 9674,6099 Z M 9329,6874 L 9450,5830 9517,5823 9588,5819 9737,5820 10035,5824 10102,5820 10163,5812 10219,5799 10244,5791 10267,5781 10288,5769 10306,5756 10322,5740 10336,5723 10347,5704 10355,5682 10359,5658 10361,5631 10533,6874 10530,6919 10519,6961 10503,7001 10481,7037 10454,7071 10422,7101 10385,7129 10345,7154 10254,7194 10152,7223 10043,7241 9931,7247 9819,7241 9710,7223 9608,7194 9517,7154 9477,7129 9440,7101 9408,7071 9381,7037 9359,7001 9343,6961 9332,6919 9329,6874 Z"/>
     <path fill="rgb(229,229,229)" stroke="none" d="M 9674,6099 L 9674,6130 9705,6130 9705,6099 9674,6099 Z M 9329,6874 L 9450,5830 9517,5823 9588,5819 9737,5820 10035,5824 10102,5820 10163,5812 10219,5799 10244,5791 10267,5781 10288,5769 10306,5756 10322,5740 10336,5723 10347,5704 10355,5682 10359,5658 10361,5631 10533,6874 10530,6919 10519,6961 10503,7001 10481,7037 10454,7071 10422,7101 10385,7129 10345,7154 10254,7194 10152,7223 10043,7241 9931,7247 9819,7241 9710,7223 9608,7194 9517,7154 9477,7129 9440,7101 9408,7071 9381,7037 9359,7001 9343,6961 9332,6919 9329,6874 Z"/>
     <path fill="none" stroke="rgb(255,255,255)" id="Drawing_2_0" stroke-width="40" stroke-linejoin="round" d="M 9329,6874 L 9450,5830 C 9794,5780 10361,5929 10361,5631 L 10533,6874 C 10533,7371 9329,7371 9329,6874 Z"/>
    </g>
    <g>
     <defs>
      <linearGradient id="Gradient_1130" gradientUnits="userSpaceOnUse" x1="9931" y1="5383" x2="9931" y2="5880">
       <stop offset="0.1" stop-color="rgb(179,179,179)"/>
       <stop offset="1" stop-color="rgb(229,229,229)"/>
      </linearGradient>
     </defs>
     <path fill="url(#Gradient_1130)" stroke="none" id="Drawing_3_0" d="M 10243,5451 L 10271,5469 10295,5489 10315,5510 10331,5533 10344,5556 10353,5581 10359,5606 10361,5631 10359,5657 10353,5682 10344,5706 10331,5730 10315,5753 10295,5774 10271,5794 10243,5812 10212,5828 10178,5842 10141,5853 10101,5863 10060,5871 10018,5876 9931,5880 9843,5876 9801,5871 9760,5863 9720,5853 9683,5842 9649,5828 9618,5812 9591,5794 9567,5774 9547,5753 9530,5730 9517,5706 9508,5682 9503,5657 9501,5631 9503,5606 9508,5581 9517,5556 9530,5533 9547,5510 9567,5489 9591,5469 9618,5451 9649,5435 9684,5421 9721,5409 9760,5400 9801,5392 9844,5387 9931,5383 10018,5387 10061,5393 10102,5400 10141,5410 10178,5421 10212,5435 10243,5451 Z"/>
     <path fill="none" stroke="rgb(255,255,255)" id="Drawing_3_1" stroke-width="40" stroke-linejoin="round" d="M 10243,5451 C 10400,5541 10400,5722 10243,5812 10087,5903 9774,5903 9618,5812 9462,5722 9462,5541 9618,5451 9775,5360 10087,5361 10243,5451 Z"/>
    </g>
    <g>
     <defs>
      <linearGradient id="Gradient_1131" gradientUnits="userSpaceOnUse" x1="9459" y1="5890" x2="9463" y2="3885">
       <stop offset="0.1" stop-color="rgb(179,179,179)"/>
       <stop offset="1" stop-color="rgb(229,229,229)"/>
      </linearGradient>
     </defs>
     <path fill="url(#Gradient_1131)" stroke="none" id="Drawing_4_0" d="M 10377,3968 L 10384,3973 10391,3979 10404,3995 10417,4016 10428,4041 10448,4104 10464,4182 10475,4272 10482,4372 10479,4594 10454,4829 10433,4945 10404,5059 10370,5166 10328,5266 10279,5355 10223,5432 10188,5481 10149,5528 10060,5611 9958,5683 9845,5743 9723,5793 9595,5831 9464,5860 9331,5878 9199,5888 9070,5888 8947,5880 8833,5865 8728,5841 8637,5810 8562,5773 8530,5752 8504,5730 8482,5705 8465,5678 8453,5649 8445,5617 8441,5583 8442,5548 8446,5511 8454,5472 8479,5391 8517,5306 8565,5217 8622,5127 8755,4945 8903,4772 9053,4615 9192,4487 9463,4241 9609,4119 9683,4063 9758,4012 9834,3968 9911,3932 9988,3906 10066,3890 10105,3887 10144,3888 10182,3891 10221,3898 10260,3910 10299,3925 10338,3944 10377,3968 Z"/>
     <path fill="none" stroke="rgb(255,255,255)" id="Drawing_4_1" stroke-width="40" stroke-linejoin="round" d="M 10377,3968 C 10534,4058 10545,5060 10223,5432 9879,5978 8762,5978 8504,5730 8246,5481 8848,4785 9192,4487 9535,4189 9965,3692 10377,3968 Z"/>
    </g>
    <g>
     <defs>
      <linearGradient id="Gradient_1132" gradientUnits="userSpaceOnUse" x1="9406" y1="3863" x2="9406" y2="5765">
       <stop offset="0.1" stop-color="rgb(179,179,179)"/>
       <stop offset="1" stop-color="rgb(229,229,229)"/>
      </linearGradient>
     </defs>
     <path fill="url(#Gradient_1132)" stroke="none" id="Drawing_5_0" d="M 10309,3890 L 10316,3895 10322,3901 10333,3914 10341,3931 10346,3951 10349,3974 10349,3999 10343,4057 10329,4123 10307,4196 10245,4356 10164,4524 10071,4689 9972,4837 9922,4902 9874,4958 9750,5078 9577,5222 9375,5375 9158,5521 8946,5645 8846,5694 8754,5732 8672,5756 8635,5763 8601,5765 8571,5763 8544,5757 8522,5746 8512,5739 8503,5730 8489,5710 8478,5687 8470,5662 8466,5634 8464,5604 8465,5572 8476,5502 8497,5425 8527,5344 8565,5259 8611,5171 8718,4993 8842,4821 8973,4666 9040,4598 9105,4537 9390,4289 9547,4162 9707,4046 9788,3995 9868,3951 9947,3914 10024,3886 10100,3869 10173,3863 10208,3865 10243,3870 10276,3878 10309,3890 Z"/>
     <path fill="none" stroke="rgb(255,255,255)" id="Drawing_5_1" stroke-width="40" stroke-linejoin="round" d="M 10309,3890 C 10466,3981 10126,4684 9874,4958 9621,5232 8675,5928 8503,5730 8331,5531 8761,4835 9105,4537 9449,4238 9965,3741 10309,3890 Z"/>
    </g>
    <g>
     <path fill="none" stroke="rgb(0,0,0)" id="Drawing_6_0" stroke-width="40" stroke-linejoin="round" d="M 9329,6874 L 9450,5879 C 9450,5879 8676,5979 8504,5730 8332,5482 8769,4829 9106,4537 9444,4244 9966,3742 10310,3891 10654,4040 10482,5134 10224,5432 10224,5432 10390,5544 10361,5631 L 10533,6874 C 10533,7371 9329,7371 9329,6874 Z"/>
    </g>
    <g>
     <path fill="rgb(204,204,204)" stroke="none" d="M 8848,5133 L 8848,4040 8762,3940 8848,3841 8934,3940 8848,4040 8848,5133 Z"/>
     <path fill="none" stroke="rgb(0,0,0)" id="Drawing_7_0" stroke-width="40" stroke-linejoin="round" d="M 8848,5133 L 8848,4040 8762,3940 8848,3841 8934,3940 8848,4040 8848,5133 Z"/>
    </g>
    <g>
     <path fill="none" stroke="rgb(0,0,0)" id="Drawing_8_0" stroke-width="40" stroke-linejoin="round" d="M 9622,5034 L 8848,3940"/>
    </g>
    <g>
     <path fill="none" stroke="rgb(0,0,0)" id="Drawing_9_0" stroke-width="40" stroke-linejoin="round" d="M 8934,3940 L 9880,4189"/>
    </g>
   </g>
  </g>
 </g>
</svg>