<?xml version="1.0" encoding="UTF-8"?>

<svg version="1.2" baseProfile="tiny" width="71.46mm" height="45.2mm" viewBox="11991 4127 7146 4520" preserveAspectRatio="xMidYMid" fill-rule="evenodd" stroke-width="28.222" stroke-linejoin="round" xmlns="http://www.w3.org/2000/svg" xmlns:xlink="http://www.w3.org/1999/xlink" xml:space="preserve">
 <g visibility="visible" id="Slide_1">
  <g id="DrawingGroup_1">
   <g>
    <path fill="rgb(221,221,221)" stroke="none" d="M 16886,8627 C 17229,8627 19136,7905 19136,7544 19136,7182 18229,6821 17886,6821 17886,7038 16886,8338 16886,8627 Z"/>
    <path fill="none" stroke="rgb(221,221,221)" id="Drawing_1_0" stroke-linejoin="round" d="M 16886,8627 C 17229,8627 19136,7905 19136,7544 19136,7182 18229,6821 17886,6821 17886,7038 16886,8338 16886,8627 Z"/>
   </g>
   <g id="DrawingGroup_2">
    <g>
     <defs>
      <linearGradient id="Gradient_1152" gradientUnits="userSpaceOnUse" x1="12257" y1="6853" x2="16638" y2="6861">
       <stop offset="0.1" stop-color="rgb(51,51,51)"/>
       <stop offset="1" stop-color="rgb(153,153,153)"/>
      </linearGradient>
     </defs>
     <path fill="url(#Gradient_1152)" stroke="rgb(178,178,178)" id="Drawing_2_0" stroke-width="40" stroke-linejoin="round" d="M 12261,5954 L 12261,5231 16636,7760 16636,8483 12261,5954 Z"/>
    </g>
    <g>
     <path fill="rgb(51,51,51)" stroke="none" d="M 18125,7622 L 17221,8144 16636,8144 16636,7760 18125,6899 18125,7622 Z"/>
     <path fill="rgb(52,52,52)" stroke="none" d="M 17221,8144 L 16636,8482 16636,8144 17221,8144 Z M 18125,6899 L 18511,6676 18511,7399 18125,7622 18125,6899 Z M 18115,7628 L 17238,8134 16636,8134 16636,7760 18115,6905 18115,7628 Z"/>
     <path fill="rgb(53,53,53)" stroke="none" d="M 17238,8134 L 16636,8482 16636,8134 17238,8134 Z M 18115,6905 L 18511,6676 18511,7399 18115,7628 18115,6905 Z M 18105,7634 L 17256,8124 16636,8124 16636,7760 18105,6911 18105,7634 Z"/>
     <path fill="rgb(54,54,54)" stroke="none" d="M 17256,8124 L 16636,8482 16636,8124 17256,8124 Z M 18105,6911 L 18511,6676 18511,7399 18105,7634 18105,6911 Z M 18095,7639 L 17273,8114 16636,8114 16636,7760 18095,6917 18095,7639 Z"/>
     <path fill="rgb(55,55,55)" stroke="none" d="M 17273,8114 L 16636,8482 16636,8114 17273,8114 Z M 18095,6917 L 18511,6676 18511,7399 18095,7639 18095,6917 Z M 18085,7645 L 17290,8104 16636,8104 16636,7760 18085,6922 18085,7645 Z"/>
     <path fill="rgb(56,56,56)" stroke="none" d="M 17290,8104 L 16636,8482 16636,8104 17290,8104 Z M 18085,6922 L 18511,6676 18511,7399 18085,7645 18085,6922 Z M 18075,7651 L 17308,8094 16636,8094 16636,7760 18075,6928 18075,7651 Z"/>
     <path fill="rgb(57,57,57)" stroke="none" d="M 17308,8094 L 16636,8482 16636,8094 17308,8094 Z M 18075,6928 L 18511,6676 18511,7399 18075,7651 18075,6928 Z M 18065,7657 L 17325,8084 16636,8084 16636,7760 18065,6934 18065,7657 Z"/>
     <path fill="rgb(58,58,58)" stroke="none" d="M 17325,8084 L 16636,8482 16636,8084 17325,8084 Z M 18065,6934 L 18511,6676 18511,7399 18065,7657 18065,6934 Z M 18055,7662 L 17342,8074 16636,8074 16636,7760 18055,6940 18055,7662 Z"/>
     <path fill="rgb(59,59,59)" stroke="none" d="M 17342,8074 L 16636,8482 16636,8074 17342,8074 Z M 18055,6940 L 18511,6676 18511,7399 18055,7662 18055,6940 Z M 18045,7668 L 17360,8064 16636,8064 16636,7760 18045,6945 18045,7668 Z"/>
     <path fill="rgb(60,60,60)" stroke="none" d="M 17360,8064 L 16636,8482 16636,8064 17360,8064 Z M 18045,6945 L 18511,6676 18511,7399 18045,7668 18045,6945 Z M 18035,7674 L 17377,8054 16636,8054 16636,7760 18035,6951 18035,7674 Z"/>
     <path fill="rgb(61,61,61)" stroke="none" d="M 17377,8054 L 16636,8482 16636,8054 17377,8054 Z M 18035,6951 L 18511,6676 18511,7399 18035,7674 18035,6951 Z M 18024,7680 L 17396,8043 16636,8043 16636,7760 18024,6958 18024,7680 Z"/>
     <path fill="rgb(63,63,63)" stroke="none" d="M 17396,8043 L 16636,8482 16636,8043 17396,8043 Z M 18024,6958 L 18511,6676 18511,7399 18024,7680 18024,6958 Z M 18014,7686 L 17413,8033 16636,8033 16636,7760 18014,6963 18014,7686 Z"/>
     <path fill="rgb(64,64,64)" stroke="none" d="M 17413,8033 L 16636,8482 16636,8033 17413,8033 Z M 18014,6963 L 18511,6676 18511,7399 18014,7686 18014,6963 Z M 18004,7692 L 17431,8023 16636,8023 16636,7760 18004,6969 18004,7692 Z"/>
     <path fill="rgb(65,65,65)" stroke="none" d="M 17431,8023 L 16636,8482 16636,8023 17431,8023 Z M 18004,6969 L 18511,6676 18511,7399 18004,7692 18004,6969 Z M 17994,7698 L 17448,8013 16636,8013 16636,7760 17994,6975 17994,7698 Z"/>
     <path fill="rgb(66,66,66)" stroke="none" d="M 17448,8013 L 16636,8482 16636,8013 17448,8013 Z M 17994,6975 L 18511,6676 18511,7399 17994,7698 17994,6975 Z M 17984,7703 L 17465,8003 16636,8003 16636,7760 17984,6981 17984,7703 Z"/>
     <path fill="rgb(67,67,67)" stroke="none" d="M 17465,8003 L 16636,8482 16636,8003 17465,8003 Z M 17984,6981 L 18511,6676 18511,7399 17984,7703 17984,6981 Z M 17974,7709 L 17483,7993 16636,7993 16636,7760 17974,6986 17974,7709 Z"/>
     <path fill="rgb(68,68,68)" stroke="none" d="M 17483,7993 L 16636,8482 16636,7993 17483,7993 Z M 17974,6986 L 18511,6676 18511,7399 17974,7709 17974,6986 Z M 17964,7715 L 17500,7983 16636,7983 16636,7760 17964,6992 17964,7715 Z"/>
     <path fill="rgb(69,69,69)" stroke="none" d="M 17500,7983 L 16636,8482 16636,7983 17500,7983 Z M 17964,6992 L 18511,6676 18511,7399 17964,7715 17964,6992 Z M 17954,7721 L 17517,7973 16636,7973 16636,7760 17954,6998 17954,7721 Z"/>
     <path fill="rgb(70,70,70)" stroke="none" d="M 17517,7973 L 16636,8482 16636,7973 17517,7973 Z M 17954,6998 L 18511,6676 18511,7399 17954,7721 17954,6998 Z M 17944,7726 L 17535,7963 16636,7963 16636,7760 17944,7004 17944,7726 Z"/>
     <path fill="rgb(71,71,71)" stroke="none" d="M 17535,7963 L 16636,8482 16636,7963 17535,7963 Z M 17944,7004 L 18511,6676 18511,7399 17944,7726 17944,7004 Z M 17934,7732 L 17552,7953 16636,7953 16636,7760 17934,7010 17934,7732 Z"/>
     <path fill="rgb(72,72,72)" stroke="none" d="M 17552,7953 L 16636,8482 16636,7953 17552,7953 Z M 17934,7010 L 18511,6676 18511,7399 17934,7732 17934,7010 Z M 17923,7739 L 17571,7942 16636,7942 16636,7760 17923,7016 17923,7739 Z"/>
     <path fill="rgb(74,74,74)" stroke="none" d="M 17571,7942 L 16636,8482 16636,7942 17571,7942 Z M 17923,7016 L 18511,6676 18511,7399 17923,7739 17923,7016 Z M 17913,7744 L 17588,7932 16636,7932 16636,7760 17913,7022 17913,7744 Z"/>
     <path fill="rgb(75,75,75)" stroke="none" d="M 17588,7932 L 16636,8482 16636,7932 17588,7932 Z M 17913,7022 L 18511,6676 18511,7399 17913,7744 17913,7022 Z M 17903,7750 L 17606,7922 16636,7922 16636,7760 17903,7028 17903,7750 Z"/>
     <path fill="rgb(76,76,76)" stroke="none" d="M 17606,7922 L 16636,8482 16636,7922 17606,7922 Z M 17903,7028 L 18511,6676 18511,7399 17903,7750 17903,7028 Z M 17893,7756 L 17623,7912 16636,7912 16636,7760 17893,7033 17893,7756 Z"/>
     <path fill="rgb(77,77,77)" stroke="none" d="M 17623,7912 L 16636,8482 16636,7912 17623,7912 Z M 17893,7033 L 18511,6676 18511,7399 17893,7756 17893,7033 Z M 17883,7762 L 17640,7902 16636,7902 16636,7760 17883,7039 17883,7762 Z"/>
     <path fill="rgb(78,78,78)" stroke="none" d="M 17640,7902 L 16636,8482 16636,7902 17640,7902 Z M 17883,7039 L 18511,6676 18511,7399 17883,7762 17883,7039 Z M 17873,7768 L 17657,7892 16636,7892 16636,7760 17873,7045 17873,7768 Z"/>
     <path fill="rgb(79,79,79)" stroke="none" d="M 17657,7892 L 16636,8482 16636,7892 17657,7892 Z M 17873,7045 L 18511,6676 18511,7399 17873,7768 17873,7045 Z M 17863,7773 L 17675,7882 16636,7882 16636,7760 17863,7051 17863,7773 Z"/>
     <path fill="rgb(80,80,80)" stroke="none" d="M 17675,7882 L 16636,8482 16636,7882 17675,7882 Z M 17863,7051 L 18511,6676 18511,7399 17863,7773 17863,7051 Z M 17853,7779 L 17692,7872 16636,7872 16636,7760 17853,7056 17853,7779 Z"/>
     <path fill="rgb(81,81,81)" stroke="none" d="M 17692,7872 L 16636,8482 16636,7872 17692,7872 Z M 17853,7056 L 18511,6676 18511,7399 17853,7779 17853,7056 Z M 17843,7785 L 17709,7862 16636,7862 16636,7760 17843,7062 17843,7785 Z"/>
     <path fill="rgb(82,82,82)" stroke="none" d="M 17709,7862 L 16636,8482 16636,7862 17709,7862 Z M 17843,7062 L 18511,6676 18511,7399 17843,7785 17843,7062 Z M 17833,7791 L 17727,7852 16636,7852 16636,7760 17833,7068 17833,7791 Z"/>
     <path fill="rgb(83,83,83)" stroke="none" d="M 17727,7852 L 16636,8482 16636,7852 17727,7852 Z M 17833,7068 L 18511,6676 18511,7399 17833,7791 17833,7068 Z M 17823,7796 L 17744,7842 16636,7842 16636,7760 17823,7074 17823,7796 Z"/>
     <path fill="rgb(85,85,85)" stroke="none" d="M 17744,7842 L 16636,8482 16636,7842 17744,7842 Z M 17823,7074 L 18511,6676 18511,7399 17823,7796 17823,7074 Z M 17812,7803 L 17763,7831 16636,7831 16636,7760 17812,7080 17812,7803 Z"/>
     <path fill="rgb(86,86,86)" stroke="none" d="M 17763,7831 L 16636,8482 16636,7831 17763,7831 Z M 17812,7080 L 18511,6676 18511,7399 17812,7803 17812,7080 Z M 17802,7809 L 17780,7821 16636,7821 16636,7760 17802,7086 17802,7809 Z"/>
     <path fill="rgb(87,87,87)" stroke="none" d="M 17780,7821 L 16636,8482 16636,7821 17780,7821 Z M 17802,7086 L 18511,6676 18511,7399 17802,7809 17802,7086 Z M 17792,7811 L 16636,7811 16636,7760 17792,7092 17792,7811 Z"/>
     <path fill="rgb(88,88,88)" stroke="none" d="M 17792,7811 L 17792,7092 18511,6676 18511,7399 16636,8482 16636,7811 17792,7811 Z M 17782,7801 L 16636,7801 16636,7760 17782,7097 17782,7801 Z"/>
     <path fill="rgb(89,89,89)" stroke="none" d="M 17782,7801 L 17782,7097 18511,6676 18511,7399 16636,8482 16636,7801 17782,7801 Z M 17772,7791 L 16636,7791 16636,7760 17772,7103 17772,7791 Z"/>
     <path fill="rgb(90,90,90)" stroke="none" d="M 17772,7791 L 17772,7103 18511,6676 18511,7399 16636,8482 16636,7791 17772,7791 Z M 17762,7781 L 16636,7781 16636,7760 17762,7109 17762,7781 Z"/>
     <path fill="rgb(91,91,91)" stroke="none" d="M 17762,7781 L 17762,7109 18511,6676 18511,7399 16636,8482 16636,7781 17762,7781 Z M 17752,7771 L 16642,7771 16642,7757 17752,7115 17752,7771 Z"/>
     <path fill="rgb(92,92,92)" stroke="none" d="M 16642,7771 L 17752,7771 17752,7115 18511,6676 18511,7399 16636,8482 16636,7760 16642,7757 16642,7771 Z M 17742,7761 L 16652,7761 16652,7751 17742,7121 17742,7761 Z"/>
     <path fill="rgb(93,93,93)" stroke="none" d="M 16652,7761 L 17742,7761 17742,7121 18511,6676 18511,7399 16636,8482 16636,7760 16652,7751 16652,7761 Z M 17732,7751 L 16662,7751 16662,7745 17732,7126 17732,7751 Z"/>
     <path fill="rgb(94,94,94)" stroke="none" d="M 16662,7751 L 17732,7751 17732,7126 18511,6676 18511,7399 16636,8482 16636,7760 16662,7745 16662,7751 Z M 17722,7741 L 16672,7741 16672,7739 17722,7132 17722,7741 Z"/>
     <path fill="rgb(95,95,95)" stroke="none" d="M 16672,7741 L 17722,7741 17722,7132 18511,6676 18511,7399 16636,8482 16636,7760 16672,7739 16672,7741 Z M 17711,7730 L 16688,7730 17711,7139 17711,7730 Z"/>
     <path fill="rgb(97,97,97)" stroke="none" d="M 17711,7730 L 17711,7139 18511,6676 18511,7399 16636,8482 16636,7760 16688,7730 17711,7730 Z M 17701,7720 L 16705,7720 17701,7144 17701,7720 Z"/>
     <path fill="rgb(98,98,98)" stroke="none" d="M 17701,7720 L 17701,7144 18511,6676 18511,7399 16636,8482 16636,7760 16705,7720 17701,7720 Z M 17691,7710 L 16722,7710 17691,7150 17691,7710 Z"/>
     <path fill="rgb(99,99,99)" stroke="none" d="M 17691,7710 L 17691,7150 18511,6676 18511,7399 16636,8482 16636,7760 16722,7710 17691,7710 Z M 17681,7700 L 16740,7700 17681,7156 17681,7700 Z"/>
     <path fill="rgb(100,100,100)" stroke="none" d="M 17681,7700 L 17681,7156 18511,6676 18511,7399 16636,8482 16636,7760 16740,7700 17681,7700 Z M 17671,7690 L 16757,7690 17671,7162 17671,7690 Z"/>
     <path fill="rgb(101,101,101)" stroke="none" d="M 17671,7690 L 17671,7162 18511,6676 18511,7399 16636,8482 16636,7760 16757,7690 17671,7690 Z M 17661,7680 L 16774,7680 17661,7167 17661,7680 Z"/>
     <path fill="rgb(102,102,102)" stroke="none" d="M 17661,7680 L 17661,7167 18511,6676 18511,7399 16636,8482 16636,7760 16774,7680 17661,7680 Z M 17651,7670 L 16792,7670 17651,7173 17651,7670 Z"/>
     <path fill="rgb(103,103,103)" stroke="none" d="M 17651,7670 L 17651,7173 18511,6676 18511,7399 16636,8482 16636,7760 16792,7670 17651,7670 Z M 17641,7660 L 16809,7660 17641,7179 17641,7660 Z"/>
     <path fill="rgb(104,104,104)" stroke="none" d="M 17641,7660 L 17641,7179 18511,6676 18511,7399 16636,8482 16636,7760 16809,7660 17641,7660 Z M 17631,7650 L 16826,7650 17631,7185 17631,7650 Z"/>
     <path fill="rgb(105,105,105)" stroke="none" d="M 17631,7650 L 17631,7185 18511,6676 18511,7399 16636,8482 16636,7760 16826,7650 17631,7650 Z M 17621,7640 L 16844,7640 17621,7191 17621,7640 Z"/>
     <path fill="rgb(106,106,106)" stroke="none" d="M 17621,7640 L 17621,7191 18511,6676 18511,7399 16636,8482 16636,7760 16844,7640 17621,7640 Z M 17610,7629 L 16863,7629 17610,7197 17610,7629 Z"/>
     <path fill="rgb(108,108,108)" stroke="none" d="M 17610,7629 L 17610,7197 18511,6676 18511,7399 16636,8482 16636,7760 16863,7629 17610,7629 Z M 17600,7619 L 16880,7619 17600,7203 17600,7619 Z"/>
     <path fill="rgb(109,109,109)" stroke="none" d="M 17600,7619 L 17600,7203 18511,6676 18511,7399 16636,8482 16636,7760 16880,7619 17600,7619 Z M 17590,7609 L 16897,7609 17590,7208 17590,7609 Z"/>
     <path fill="rgb(110,110,110)" stroke="none" d="M 17590,7609 L 17590,7208 18511,6676 18511,7399 16636,8482 16636,7760 16897,7609 17590,7609 Z M 17580,7599 L 16914,7599 17580,7214 17580,7599 Z"/>
     <path fill="rgb(111,111,111)" stroke="none" d="M 17580,7599 L 17580,7214 18511,6676 18511,7399 16636,8482 16636,7760 16914,7599 17580,7599 Z M 17570,7589 L 16932,7589 17570,7220 17570,7589 Z"/>
     <path fill="rgb(112,112,112)" stroke="none" d="M 17570,7589 L 17570,7220 18511,6676 18511,7399 16636,8482 16636,7760 16932,7589 17570,7589 Z M 17560,7579 L 16949,7579 17560,7226 17560,7579 Z"/>
     <path fill="rgb(113,113,113)" stroke="none" d="M 17560,7579 L 17560,7226 18511,6676 18511,7399 16636,8482 16636,7760 16949,7579 17560,7579 Z M 17550,7569 L 16966,7569 17550,7232 17550,7569 Z"/>
     <path fill="rgb(114,114,114)" stroke="none" d="M 17550,7569 L 17550,7232 18511,6676 18511,7399 16636,8482 16636,7760 16966,7569 17550,7569 Z M 17540,7559 L 16984,7559 17540,7237 17540,7559 Z"/>
     <path fill="rgb(115,115,115)" stroke="none" d="M 17540,7559 L 17540,7237 18511,6676 18511,7399 16636,8482 16636,7760 16984,7559 17540,7559 Z M 17530,7549 L 17001,7549 17530,7243 17530,7549 Z"/>
     <path fill="rgb(116,116,116)" stroke="none" d="M 17530,7549 L 17530,7243 18511,6676 18511,7399 16636,8482 16636,7760 17001,7549 17530,7549 Z M 17520,7539 L 17018,7539 17520,7249 17520,7539 Z"/>
     <path fill="rgb(117,117,117)" stroke="none" d="M 17520,7539 L 17520,7249 18511,6676 18511,7399 16636,8482 16636,7760 17018,7539 17520,7539 Z M 17510,7529 L 17036,7529 17510,7255 17510,7529 Z"/>
     <path fill="rgb(119,119,119)" stroke="none" d="M 17510,7529 L 17510,7255 18511,6676 18511,7399 16636,8482 16636,7760 17036,7529 17510,7529 Z M 17499,7518 L 17055,7518 17499,7261 17499,7518 Z"/>
     <path fill="rgb(120,120,120)" stroke="none" d="M 17499,7518 L 17499,7261 18511,6676 18511,7399 16636,8482 16636,7760 17055,7518 17499,7518 Z M 17489,7508 L 17072,7508 17489,7267 17489,7508 Z"/>
     <path fill="rgb(121,121,121)" stroke="none" d="M 17489,7508 L 17489,7267 18511,6676 18511,7399 16636,8482 16636,7760 17072,7508 17489,7508 Z M 17479,7498 L 17089,7498 17479,7273 17479,7498 Z"/>
     <path fill="rgb(122,122,122)" stroke="none" d="M 17479,7498 L 17479,7273 18511,6676 18511,7399 16636,8482 16636,7760 17089,7498 17479,7498 Z M 17469,7488 L 17106,7488 17469,7278 17469,7488 Z"/>
     <path fill="rgb(123,123,123)" stroke="none" d="M 17469,7488 L 17469,7278 18511,6676 18511,7399 16636,8482 16636,7760 17106,7488 17469,7488 Z M 17459,7478 L 17124,7478 17459,7284 17459,7478 Z"/>
     <path fill="rgb(124,124,124)" stroke="none" d="M 17459,7478 L 17459,7284 18511,6676 18511,7399 16636,8482 16636,7760 17124,7478 17459,7478 Z M 17449,7468 L 17141,7468 17449,7290 17449,7468 Z"/>
     <path fill="rgb(125,125,125)" stroke="none" d="M 17449,7468 L 17449,7290 18511,6676 18511,7399 16636,8482 16636,7760 17141,7468 17449,7468 Z M 17439,7458 L 17158,7458 17439,7296 17439,7458 Z"/>
     <path fill="rgb(126,126,126)" stroke="none" d="M 17439,7458 L 17439,7296 18511,6676 18511,7399 16636,8482 16636,7760 17158,7458 17439,7458 Z M 17429,7448 L 17176,7448 17429,7302 17429,7448 Z"/>
     <path fill="rgb(127,127,127)" stroke="none" d="M 17429,7448 L 17429,7302 18511,6676 18511,7399 16636,8482 16636,7760 17176,7448 17429,7448 Z M 17419,7438 L 17193,7438 17419,7307 17419,7438 Z"/>
     <path fill="rgb(128,128,128)" stroke="none" d="M 17419,7438 L 17419,7307 18511,6676 18511,7399 16636,8482 16636,7760 17193,7438 17419,7438 Z M 17409,7428 L 17210,7428 17409,7313 17409,7428 Z"/>
     <path fill="rgb(129,129,129)" stroke="none" d="M 17409,7428 L 17409,7313 18511,6676 18511,7399 16636,8482 16636,7760 17210,7428 17409,7428 Z M 17398,7417 L 17229,7417 17398,7319 17398,7417 Z"/>
     <path fill="rgb(131,131,131)" stroke="none" d="M 17398,7417 L 17398,7319 18511,6676 18511,7399 16636,8482 16636,7760 17229,7417 17398,7417 Z M 17388,7407 L 17247,7407 17388,7325 17388,7407 Z"/>
     <path fill="rgb(132,132,132)" stroke="none" d="M 17388,7407 L 17388,7325 18511,6676 18511,7399 16636,8482 16636,7760 17247,7407 17388,7407 Z M 17378,7397 L 17264,7397 17378,7331 17378,7397 Z"/>
     <path fill="rgb(133,133,133)" stroke="none" d="M 17378,7397 L 17378,7331 18511,6676 18511,7399 16636,8482 16636,7760 17264,7397 17378,7397 Z M 17368,7387 L 17281,7387 17368,7337 17368,7387 Z"/>
     <path fill="rgb(134,134,134)" stroke="none" d="M 17368,7387 L 17368,7337 18511,6676 18511,7399 16636,8482 16636,7760 17281,7387 17368,7387 Z M 17358,7377 L 17298,7377 17358,7343 17358,7377 Z"/>
     <path fill="rgb(135,135,135)" stroke="none" d="M 17358,7377 L 17358,7343 18511,6676 18511,7399 16636,8482 16636,7760 17298,7377 17358,7377 Z M 17348,7367 L 17316,7367 17348,7348 17348,7367 Z"/>
     <path fill="rgb(136,136,136)" stroke="none" d="M 17348,7367 L 17348,7348 18511,6676 18511,7399 16636,8482 16636,7760 17316,7367 17348,7367 Z M 17338,7357 L 17333,7357 17338,7354 17338,7357 Z"/>
     <path fill="rgb(137,137,137)" stroke="none" d="M 17338,7357 L 17338,7354 18511,6676 18511,7399 16636,8482 16636,7760 17333,7357 17338,7357 Z"/>
     <path fill="rgb(138,138,138)" stroke="none" d="M 16636,8482 L 16636,7760 18511,6676 18511,7399 16636,8482 Z"/>
     <path fill="rgb(139,139,139)" stroke="none" d="M 16636,8482 L 16636,7760 18511,6676 18511,7399 16636,8482 Z"/>
     <path fill="rgb(140,140,140)" stroke="none" d="M 16636,8482 L 16636,7760 18511,6676 18511,7399 16636,8482 Z"/>
     <path fill="rgb(142,142,142)" stroke="none" d="M 16636,8482 L 16636,7760 18511,6676 18511,7399 16636,8482 Z"/>
     <path fill="rgb(143,143,143)" stroke="none" d="M 16636,8482 L 16636,7760 18511,6676 18511,7399 16636,8482 Z"/>
     <path fill="rgb(144,144,144)" stroke="none" d="M 16636,8482 L 16636,7760 18511,6676 18511,7399 16636,8482 Z"/>
     <path fill="rgb(145,145,145)" stroke="none" d="M 16636,8482 L 16636,7760 18511,6676 18511,7399 16636,8482 Z"/>
     <path fill="rgb(146,146,146)" stroke="none" d="M 16636,8482 L 16636,7760 18511,6676 18511,7399 16636,8482 Z"/>
     <path fill="rgb(147,147,147)" stroke="none" d="M 16636,8482 L 16636,7760 18511,6676 18511,7399 16636,8482 Z"/>
     <path fill="rgb(148,148,148)" stroke="none" d="M 16636,8482 L 16636,7760 18511,6676 18511,7399 16636,8482 Z"/>
     <path fill="rgb(149,149,149)" stroke="none" d="M 16636,8482 L 16636,7760 18511,6676 18511,7399 16636,8482 Z"/>
     <path fill="rgb(150,150,150)" stroke="none" d="M 16636,8482 L 16636,7760 18511,6676 18511,7399 16636,8482 Z"/>
     <path fill="rgb(153,153,153)" stroke="none" d="M 16636,8482 L 16636,7760 18511,6676 18511,7399 16636,8482 Z"/>
     <path fill="none" stroke="rgb(178,178,178)" id="Drawing_3_0" stroke-width="40" stroke-linejoin="round" d="M 16636,8482 L 16636,7760 18511,6676 18511,7399 16636,8482 Z"/>
    </g>
    <g>
     <defs>
      <linearGradient id="Gradient_1153" gradientUnits="userSpaceOnUse" x1="15386" y1="4147" x2="15386" y2="7760">
       <stop offset="0.1" stop-color="rgb(51,51,51)"/>
       <stop offset="1" stop-color="rgb(153,153,153)"/>
      </linearGradient>
     </defs>
     <path fill="url(#Gradient_1153)" stroke="rgb(178,178,178)" id="Drawing_4_0" stroke-width="40" stroke-linejoin="round" d="M 16636,7760 L 12261,5231 14136,4147 18511,6676 16636,7760 Z"/>
    </g>
    <g>
     <path fill="rgb(57,181,74)" stroke="none" d="M 16136,7977 L 16136,7688 16386,7833 16386,8122 16136,7977 Z"/>
     <path fill="none" stroke="rgb(51,51,51)" id="Drawing_5_0" stroke-width="40" stroke-linejoin="round" d="M 16136,7977 L 16136,7688 16386,7833 16386,8122 16136,7977 Z"/>
    </g>
    <g>
     <defs>
      <linearGradient id="Gradient_1154" gradientUnits="userSpaceOnUse" x1="12010" y1="5519" x2="12262" y2="5519">
       <stop offset="0.1" stop-color="rgb(51,51,51)"/>
       <stop offset="1" stop-color="rgb(153,153,153)"/>
      </linearGradient>
     </defs>
     <path fill="url(#Gradient_1154)" stroke="rgb(178,178,178)" id="Drawing_6_0" stroke-width="40" stroke-linejoin="round" d="M 12011,5809 L 12011,5086 12261,5231 12261,5953 12011,5809 Z"/>
    </g>
    <g>
     <defs>
      <linearGradient id="Gradient_1155" gradientUnits="userSpaceOnUse" x1="16760" y1="8627" x2="16762" y2="7760">
       <stop offset="0.1" stop-color="rgb(102,102,102)"/>
       <stop offset="1" stop-color="rgb(153,153,153)"/>
      </linearGradient>
     </defs>
     <path fill="url(#Gradient_1155)" stroke="rgb(178,178,178)" id="Drawing_7_0" stroke-width="40" stroke-linejoin="round" d="M 16636,8483 L 16636,7760 16886,7905 16886,8627 16636,8483 Z"/>
    </g>
    <g>
     <path fill="none" stroke="rgb(0,0,0)" id="Drawing_8_0" stroke-width="40" stroke-linejoin="round" d="M 12011,5809 L 12011,5086 12261,5231 14136,4147 18511,6676 18511,7399 16886,8338 16886,8627 12011,5809 Z"/>
    </g>
    <g>
     <path fill="rgb(0,0,0)" stroke="none" d="M 12386,5882 L 12386,5737 12511,5809 12511,5954 12386,5882 Z"/>
     <path fill="none" stroke="rgb(178,178,178)" id="Drawing_9_0" stroke-width="40" stroke-linejoin="round" d="M 12386,5882 L 12386,5737 12511,5809 12511,5954 12386,5882 Z"/>
    </g>
    <g>
     <path fill="rgb(0,0,0)" stroke="none" d="M 12386,5593 L 12386,5448 12511,5520 12511,5665 12386,5593 Z"/>
     <path fill="none" stroke="rgb(178,178,178)" id="Drawing_10_0" stroke-width="40" stroke-linejoin="round" d="M 12386,5593 L 12386,5448 12511,5520 12511,5665 12386,5593 Z"/>
    </g>
    <g>
     <path fill="rgb(0,0,0)" stroke="none" d="M 12636,6026 L 12636,5881 12761,5953 12761,6098 12636,6026 Z"/>
     <path fill="none" stroke="rgb(178,178,178)" id="Drawing_11_0" stroke-width="40" stroke-linejoin="round" d="M 12636,6026 L 12636,5881 12761,5953 12761,6098 12636,6026 Z"/>
    </g>
    <g>
     <path fill="rgb(0,0,0)" stroke="none" d="M 12636,5737 L 12636,5592 12761,5664 12761,5809 12636,5737 Z"/>
     <path fill="none" stroke="rgb(178,178,178)" id="Drawing_12_0" stroke-width="40" stroke-linejoin="round" d="M 12636,5737 L 12636,5592 12761,5664 12761,5809 12636,5737 Z"/>
    </g>
    <g>
     <path fill="rgb(0,0,0)" stroke="none" d="M 12886,6171 L 12886,6026 13011,6098 13011,6243 12886,6171 Z"/>
     <path fill="none" stroke="rgb(178,178,178)" id="Drawing_13_0" stroke-width="40" stroke-linejoin="round" d="M 12886,6171 L 12886,6026 13011,6098 13011,6243 12886,6171 Z"/>
    </g>
    <g>
     <path fill="rgb(0,0,0)" stroke="none" d="M 12886,5882 L 12886,5737 13011,5809 13011,5954 12886,5882 Z"/>
     <path fill="none" stroke="rgb(178,178,178)" id="Drawing_14_0" stroke-width="40" stroke-linejoin="round" d="M 12886,5882 L 12886,5737 13011,5809 13011,5954 12886,5882 Z"/>
    </g>
    <g>
     <path fill="rgb(0,0,0)" stroke="none" d="M 13136,6315 L 13136,6170 13261,6242 13261,6387 13136,6315 Z"/>
     <path fill="none" stroke="rgb(178,178,178)" id="Drawing_15_0" stroke-width="40" stroke-linejoin="round" d="M 13136,6315 L 13136,6170 13261,6242 13261,6387 13136,6315 Z"/>
    </g>
    <g>
     <path fill="rgb(0,0,0)" stroke="none" d="M 13136,6026 L 13136,5881 13261,5953 13261,6098 13136,6026 Z"/>
     <path fill="none" stroke="rgb(178,178,178)" id="Drawing_16_0" stroke-width="40" stroke-linejoin="round" d="M 13136,6026 L 13136,5881 13261,5953 13261,6098 13136,6026 Z"/>
    </g>
    <g>
     <path fill="rgb(0,0,0)" stroke="none" d="M 13511,6532 L 13511,6387 13636,6459 13636,6604 13511,6532 Z"/>
     <path fill="none" stroke="rgb(178,178,178)" id="Drawing_17_0" stroke-width="40" stroke-linejoin="round" d="M 13511,6532 L 13511,6387 13636,6459 13636,6604 13511,6532 Z"/>
    </g>
    <g>
     <path fill="rgb(0,0,0)" stroke="none" d="M 13511,6243 L 13511,6098 13636,6170 13636,6315 13511,6243 Z"/>
     <path fill="none" stroke="rgb(178,178,178)" id="Drawing_18_0" stroke-width="40" stroke-linejoin="round" d="M 13511,6243 L 13511,6098 13636,6170 13636,6315 13511,6243 Z"/>
    </g>
    <g>
     <path fill="rgb(0,0,0)" stroke="none" d="M 13761,6677 L 13761,6532 13886,6604 13886,6749 13761,6677 Z"/>
     <path fill="none" stroke="rgb(178,178,178)" id="Drawing_19_0" stroke-width="40" stroke-linejoin="round" d="M 13761,6677 L 13761,6532 13886,6604 13886,6749 13761,6677 Z"/>
    </g>
    <g>
     <path fill="rgb(0,0,0)" stroke="none" d="M 13761,6387 L 13761,6242 13886,6314 13886,6459 13761,6387 Z"/>
     <path fill="none" stroke="rgb(178,178,178)" id="Drawing_20_0" stroke-width="40" stroke-linejoin="round" d="M 13761,6387 L 13761,6242 13886,6314 13886,6459 13761,6387 Z"/>
    </g>
    <g>
     <path fill="rgb(0,0,0)" stroke="none" d="M 14011,6821 L 14011,6676 14136,6748 14136,6893 14011,6821 Z"/>
     <path fill="none" stroke="rgb(178,178,178)" id="Drawing_21_0" stroke-width="40" stroke-linejoin="round" d="M 14011,6821 L 14011,6676 14136,6748 14136,6893 14011,6821 Z"/>
    </g>
    <g>
     <path fill="rgb(0,0,0)" stroke="none" d="M 14011,6532 L 14011,6387 14136,6459 14136,6604 14011,6532 Z"/>
     <path fill="none" stroke="rgb(178,178,178)" id="Drawing_22_0" stroke-width="40" stroke-linejoin="round" d="M 14011,6532 L 14011,6387 14136,6459 14136,6604 14011,6532 Z"/>
    </g>
    <g>
     <path fill="rgb(0,0,0)" stroke="none" d="M 14261,6966 L 14261,6821 14386,6893 14386,7038 14261,6966 Z"/>
     <path fill="none" stroke="rgb(178,178,178)" id="Drawing_23_0" stroke-width="40" stroke-linejoin="round" d="M 14261,6966 L 14261,6821 14386,6893 14386,7038 14261,6966 Z"/>
    </g>
    <g>
     <path fill="rgb(0,0,0)" stroke="none" d="M 14261,6677 L 14261,6532 14386,6604 14386,6749 14261,6677 Z"/>
     <path fill="none" stroke="rgb(178,178,178)" id="Drawing_24_0" stroke-width="40" stroke-linejoin="round" d="M 14261,6677 L 14261,6532 14386,6604 14386,6749 14261,6677 Z"/>
    </g>
    <g>
     <path fill="rgb(0,0,0)" stroke="none" d="M 14636,7182 L 14636,7037 14761,7109 14761,7254 14636,7182 Z"/>
     <path fill="none" stroke="rgb(178,178,178)" id="Drawing_25_0" stroke-width="40" stroke-linejoin="round" d="M 14636,7182 L 14636,7037 14761,7109 14761,7254 14636,7182 Z"/>
    </g>
    <g>
     <path fill="rgb(0,0,0)" stroke="none" d="M 14636,6893 L 14636,6748 14761,6820 14761,6965 14636,6893 Z"/>
     <path fill="none" stroke="rgb(178,178,178)" id="Drawing_26_0" stroke-width="40" stroke-linejoin="round" d="M 14636,6893 L 14636,6748 14761,6820 14761,6965 14636,6893 Z"/>
    </g>
    <g>
     <path fill="rgb(0,0,0)" stroke="none" d="M 14886,7327 L 14886,7182 15011,7254 15011,7399 14886,7327 Z"/>
     <path fill="none" stroke="rgb(178,178,178)" id="Drawing_27_0" stroke-width="40" stroke-linejoin="round" d="M 14886,7327 L 14886,7182 15011,7254 15011,7399 14886,7327 Z"/>
    </g>
    <g>
     <path fill="rgb(0,0,0)" stroke="none" d="M 14886,7038 L 14886,6893 15011,6965 15011,7110 14886,7038 Z"/>
     <path fill="none" stroke="rgb(178,178,178)" id="Drawing_28_0" stroke-width="40" stroke-linejoin="round" d="M 14886,7038 L 14886,6893 15011,6965 15011,7110 14886,7038 Z"/>
    </g>
    <g>
     <path fill="rgb(0,0,0)" stroke="none" d="M 15136,7471 L 15136,7326 15261,7398 15261,7543 15136,7471 Z"/>
     <path fill="none" stroke="rgb(178,178,178)" id="Drawing_29_0" stroke-width="40" stroke-linejoin="round" d="M 15136,7471 L 15136,7326 15261,7398 15261,7543 15136,7471 Z"/>
    </g>
    <g>
     <path fill="rgb(0,0,0)" stroke="none" d="M 15136,7182 L 15136,7037 15261,7109 15261,7254 15136,7182 Z"/>
     <path fill="none" stroke="rgb(178,178,178)" id="Drawing_30_0" stroke-width="40" stroke-linejoin="round" d="M 15136,7182 L 15136,7037 15261,7109 15261,7254 15136,7182 Z"/>
    </g>
    <g>
     <path fill="rgb(0,0,0)" stroke="none" d="M 15386,7616 L 15386,7471 15511,7543 15511,7688 15386,7616 Z"/>
     <path fill="none" stroke="rgb(178,178,178)" id="Drawing_31_0" stroke-width="40" stroke-linejoin="round" d="M 15386,7616 L 15386,7471 15511,7543 15511,7688 15386,7616 Z"/>
    </g>
    <g>
     <path fill="rgb(0,0,0)" stroke="none" d="M 15386,7327 L 15386,7182 15511,7254 15511,7399 15386,7327 Z"/>
     <path fill="none" stroke="rgb(178,178,178)" id="Drawing_32_0" stroke-width="40" stroke-linejoin="round" d="M 15386,7327 L 15386,7182 15511,7254 15511,7399 15386,7327 Z"/>
    </g>
   </g>
  </g>
 </g>
</svg>