<?xml version="1.0" encoding="UTF-8"?>

<svg version="1.2" baseProfile="tiny" width="39.76mm" height="27.5mm" viewBox="6822 8092 3976 2750" preserveAspectRatio="xMidYMid" fill-rule="evenodd" stroke-width="28.222" stroke-linejoin="round" xmlns="http://www.w3.org/2000/svg" xmlns:xlink="http://www.w3.org/1999/xlink" xml:space="preserve">
 <g visibility="visible" id="Slide_1">
  <g id="DrawingGroup_1">
   <g>
    <path fill="rgb(221,221,221)" stroke="none" d="M 9040,10822 C 9442,10822 10798,10399 10798,10060 10798,9721 10652,9721 10505,9721 10505,9975 9040,10482 9040,10822 Z"/>
    <path fill="none" stroke="rgb(221,221,221)" id="Drawing_1_0" stroke-linejoin="round" d="M 9040,10822 C 9442,10822 10798,10399 10798,10060 10798,9721 10652,9721 10505,9721 10505,9975 9040,10482 9040,10822 Z"/>
   </g>
   <g id="DrawingGroup_2">
    <g>
     <path fill="rgb(51,51,51)" stroke="none" d="M 10201,10151 L 9536,10535 9040,10535 9040,10229 10201,9558 10201,10151 Z"/>
     <path fill="rgb(52,52,52)" stroke="none" d="M 9536,10535 L 9040,10822 9040,10535 9536,10535 Z M 10201,9558 L 10505,9382 10505,9975 10201,10151 10201,9558 Z M 10191,10157 L 9554,10525 9040,10525 9040,10229 10191,9564 10191,10157 Z"/>
     <path fill="rgb(53,53,53)" stroke="none" d="M 9554,10525 L 9040,10822 9040,10525 9554,10525 Z M 10191,9564 L 10505,9382 10505,9975 10191,10157 10191,9564 Z M 10181,10162 L 9571,10515 9040,10515 9040,10229 10181,9569 10181,10162 Z"/>
     <path fill="rgb(55,55,55)" stroke="none" d="M 9571,10515 L 9040,10822 9040,10515 9571,10515 Z M 10181,9569 L 10505,9382 10505,9975 10181,10162 10181,9569 Z M 10171,10168 L 9588,10505 9040,10505 9040,10229 10171,9575 10171,10168 Z"/>
     <path fill="rgb(56,56,56)" stroke="none" d="M 9588,10505 L 9040,10822 9040,10505 9588,10505 Z M 10171,9575 L 10505,9382 10505,9975 10171,10168 10171,9575 Z M 10161,10174 L 9606,10495 9040,10495 9040,10229 10161,9581 10161,10174 Z"/>
     <path fill="rgb(57,57,57)" stroke="none" d="M 9606,10495 L 9040,10822 9040,10495 9606,10495 Z M 10161,9581 L 10505,9382 10505,9975 10161,10174 10161,9581 Z M 10151,10180 L 9623,10485 9040,10485 9040,10229 10151,9587 10151,10180 Z"/>
     <path fill="rgb(59,59,59)" stroke="none" d="M 9623,10485 L 9040,10822 9040,10485 9623,10485 Z M 10151,9587 L 10505,9382 10505,9975 10151,10180 10151,9587 Z M 10141,10185 L 9640,10475 9040,10475 9040,10229 10141,9592 10141,10185 Z"/>
     <path fill="rgb(60,60,60)" stroke="none" d="M 9640,10475 L 9040,10822 9040,10475 9640,10475 Z M 10141,9592 L 10505,9382 10505,9975 10141,10185 10141,9592 Z M 10131,10191 L 9657,10465 9040,10465 9040,10229 10131,9598 10131,10191 Z"/>
     <path fill="rgb(62,62,62)" stroke="none" d="M 9657,10465 L 9040,10822 9040,10465 9657,10465 Z M 10131,9598 L 10505,9382 10505,9975 10131,10191 10131,9598 Z M 10121,10197 L 9675,10455 9040,10455 9040,10229 10121,9604 10121,10197 Z"/>
     <path fill="rgb(63,63,63)" stroke="none" d="M 9675,10455 L 9040,10822 9040,10455 9675,10455 Z M 10121,9604 L 10505,9382 10505,9975 10121,10197 10121,9604 Z M 10111,10203 L 9692,10445 9040,10445 9040,10229 10111,9610 10111,10203 Z"/>
     <path fill="rgb(64,64,64)" stroke="none" d="M 9692,10445 L 9040,10822 9040,10445 9692,10445 Z M 10111,9610 L 10505,9382 10505,9975 10111,10203 10111,9610 Z M 10101,10209 L 9709,10435 9040,10435 9040,10229 10101,9616 10101,10209 Z"/>
     <path fill="rgb(66,66,66)" stroke="none" d="M 9709,10435 L 9040,10822 9040,10435 9709,10435 Z M 10101,9616 L 10505,9382 10505,9975 10101,10209 10101,9616 Z M 10091,10214 L 9727,10425 9040,10425 9040,10229 10091,9621 10091,10214 Z"/>
     <path fill="rgb(67,67,67)" stroke="none" d="M 9727,10425 L 9040,10822 9040,10425 9727,10425 Z M 10091,9621 L 10505,9382 10505,9975 10091,10214 10091,9621 Z M 10081,10220 L 9744,10415 9040,10415 9040,10229 10081,9627 10081,10220 Z"/>
     <path fill="rgb(69,69,69)" stroke="none" d="M 9744,10415 L 9040,10822 9040,10415 9744,10415 Z M 10081,9627 L 10505,9382 10505,9975 10081,10220 10081,9627 Z M 10071,10226 L 9761,10405 9040,10405 9040,10229 10071,9633 10071,10226 Z"/>
     <path fill="rgb(70,70,70)" stroke="none" d="M 9761,10405 L 9040,10822 9040,10405 9761,10405 Z M 10071,9633 L 10505,9382 10505,9975 10071,10226 10071,9633 Z M 10061,10232 L 9779,10395 9040,10395 9040,10229 10061,9639 10061,10232 Z"/>
     <path fill="rgb(71,71,71)" stroke="none" d="M 9779,10395 L 9040,10822 9040,10395 9779,10395 Z M 10061,9639 L 10505,9382 10505,9975 10061,10232 10061,9639 Z M 10051,10237 L 9796,10385 9040,10385 9040,10229 10051,9644 10051,10237 Z"/>
     <path fill="rgb(73,73,73)" stroke="none" d="M 9796,10385 L 9040,10822 9040,10385 9796,10385 Z M 10051,9644 L 10505,9382 10505,9975 10051,10237 10051,9644 Z M 10041,10243 L 9813,10375 9040,10375 9040,10229 10041,9650 10041,10243 Z"/>
     <path fill="rgb(74,74,74)" stroke="none" d="M 9813,10375 L 9040,10822 9040,10375 9813,10375 Z M 10041,9650 L 10505,9382 10505,9975 10041,10243 10041,9650 Z M 10031,10249 L 9830,10365 9040,10365 9040,10229 10031,9656 10031,10249 Z"/>
     <path fill="rgb(76,76,76)" stroke="none" d="M 9830,10365 L 9040,10822 9040,10365 9830,10365 Z M 10031,9656 L 10505,9382 10505,9975 10031,10249 10031,9656 Z M 10020,10255 L 9849,10354 9040,10354 9040,10229 10020,9662 10020,10255 Z"/>
     <path fill="rgb(77,77,77)" stroke="none" d="M 9849,10354 L 9040,10822 9040,10354 9849,10354 Z M 10020,9662 L 10505,9382 10505,9975 10020,10255 10020,9662 Z M 10010,10261 L 9867,10344 9040,10344 9040,10229 10010,9668 10010,10261 Z"/>
     <path fill="rgb(78,78,78)" stroke="none" d="M 9867,10344 L 9040,10822 9040,10344 9867,10344 Z M 10010,9668 L 10505,9382 10505,9975 10010,10261 10010,9668 Z M 10000,10267 L 9884,10334 9040,10334 9040,10229 10000,9674 10000,10267 Z"/>
     <path fill="rgb(80,80,80)" stroke="none" d="M 9884,10334 L 9040,10822 9040,10334 9884,10334 Z M 10000,9674 L 10505,9382 10505,9975 10000,10267 10000,9674 Z M 9990,10273 L 9901,10324 9040,10324 9040,10229 9990,9680 9990,10273 Z"/>
     <path fill="rgb(81,81,81)" stroke="none" d="M 9901,10324 L 9040,10822 9040,10324 9901,10324 Z M 9990,9680 L 10505,9382 10505,9975 9990,10273 9990,9680 Z M 9980,10279 L 9919,10314 9040,10314 9040,10229 9980,9686 9980,10279 Z"/>
     <path fill="rgb(83,83,83)" stroke="none" d="M 9919,10314 L 9040,10822 9040,10314 9919,10314 Z M 9980,9686 L 10505,9382 10505,9975 9980,10279 9980,9686 Z M 9970,10284 L 9936,10304 9040,10304 9040,10229 9970,9691 9970,10284 Z"/>
     <path fill="rgb(84,84,84)" stroke="none" d="M 9936,10304 L 9040,10822 9040,10304 9936,10304 Z M 9970,9691 L 10505,9382 10505,9975 9970,10284 9970,9691 Z M 9960,10290 L 9953,10294 9040,10294 9040,10229 9960,9697 9960,10290 Z"/>
     <path fill="rgb(85,85,85)" stroke="none" d="M 9953,10294 L 9040,10822 9040,10294 9953,10294 Z M 9960,9697 L 10505,9382 10505,9975 9960,10290 9960,9697 Z M 9950,10284 L 9040,10284 9040,10229 9950,9703 9950,10284 Z"/>
     <path fill="rgb(87,87,87)" stroke="none" d="M 9950,10284 L 9950,9703 10505,9382 10505,9975 9040,10822 9040,10284 9950,10284 Z M 9940,10274 L 9040,10274 9040,10229 9940,9709 9940,10274 Z"/>
     <path fill="rgb(88,88,88)" stroke="none" d="M 9940,10274 L 9940,9709 10505,9382 10505,9975 9040,10822 9040,10274 9940,10274 Z M 9930,10264 L 9040,10264 9040,10229 9930,9714 9930,10264 Z"/>
     <path fill="rgb(90,90,90)" stroke="none" d="M 9930,10264 L 9930,9714 10505,9382 10505,9975 9040,10822 9040,10264 9930,10264 Z M 9920,10254 L 9040,10254 9040,10229 9920,9720 9920,10254 Z"/>
     <path fill="rgb(91,91,91)" stroke="none" d="M 9920,10254 L 9920,9720 10505,9382 10505,9975 9040,10822 9040,10254 9920,10254 Z M 9910,10244 L 9046,10244 9046,10226 9910,9726 9910,10244 Z"/>
     <path fill="rgb(92,92,92)" stroke="none" d="M 9046,10244 L 9910,10244 9910,9726 10505,9382 10505,9975 9040,10822 9040,10229 9046,10226 9046,10244 Z M 9900,10234 L 9056,10234 9056,10220 9900,9732 9900,10234 Z"/>
     <path fill="rgb(94,94,94)" stroke="none" d="M 9056,10234 L 9900,10234 9900,9732 10505,9382 10505,9975 9040,10822 9040,10229 9056,10220 9056,10234 Z M 9890,10224 L 9066,10224 9066,10214 9890,9738 9890,10224 Z"/>
     <path fill="rgb(95,95,95)" stroke="none" d="M 9066,10224 L 9890,10224 9890,9738 10505,9382 10505,9975 9040,10822 9040,10229 9066,10214 9066,10224 Z M 9880,10214 L 9076,10214 9076,10208 9880,9743 9880,10214 Z"/>
     <path fill="rgb(97,97,97)" stroke="none" d="M 9076,10214 L 9880,10214 9880,9743 10505,9382 10505,9975 9040,10822 9040,10229 9076,10208 9076,10214 Z M 9870,10204 L 9086,10204 9086,10202 9870,9749 9870,10204 Z"/>
     <path fill="rgb(98,98,98)" stroke="none" d="M 9086,10204 L 9870,10204 9870,9749 10505,9382 10505,9975 9040,10822 9040,10229 9086,10202 9086,10204 Z M 9860,10194 L 9101,10194 9860,9755 9860,10194 Z"/>
     <path fill="rgb(99,99,99)" stroke="none" d="M 9860,10194 L 9860,9755 10505,9382 10505,9975 9040,10822 9040,10229 9101,10194 9860,10194 Z M 9850,10184 L 9118,10184 9850,9761 9850,10184 Z"/>
     <path fill="rgb(101,101,101)" stroke="none" d="M 9850,10184 L 9850,9761 10505,9382 10505,9975 9040,10822 9040,10229 9118,10184 9850,10184 Z M 9839,10173 L 9137,10173 9839,9767 9839,10173 Z"/>
     <path fill="rgb(102,102,102)" stroke="none" d="M 9839,10173 L 9839,9767 10505,9382 10505,9975 9040,10822 9040,10229 9137,10173 9839,10173 Z M 9829,10163 L 9154,10163 9829,9773 9829,10163 Z"/>
     <path fill="rgb(104,104,104)" stroke="none" d="M 9829,10163 L 9829,9773 10505,9382 10505,9975 9040,10822 9040,10229 9154,10163 9829,10163 Z M 9819,10153 L 9171,10153 9819,9779 9819,10153 Z"/>
     <path fill="rgb(105,105,105)" stroke="none" d="M 9819,10153 L 9819,9779 10505,9382 10505,9975 9040,10822 9040,10229 9171,10153 9819,10153 Z M 9809,10143 L 9189,10143 9809,9784 9809,10143 Z"/>
     <path fill="rgb(106,106,106)" stroke="none" d="M 9809,10143 L 9809,9784 10505,9382 10505,9975 9040,10822 9040,10229 9189,10143 9809,10143 Z M 9799,10133 L 9206,10133 9799,9790 9799,10133 Z"/>
     <path fill="rgb(108,108,108)" stroke="none" d="M 9799,10133 L 9799,9790 10505,9382 10505,9975 9040,10822 9040,10229 9206,10133 9799,10133 Z M 9789,10123 L 9223,10123 9789,9796 9789,10123 Z"/>
     <path fill="rgb(109,109,109)" stroke="none" d="M 9789,10123 L 9789,9796 10505,9382 10505,9975 9040,10822 9040,10229 9223,10123 9789,10123 Z M 9779,10113 L 9241,10113 9779,9802 9779,10113 Z"/>
     <path fill="rgb(111,111,111)" stroke="none" d="M 9779,10113 L 9779,9802 10505,9382 10505,9975 9040,10822 9040,10229 9241,10113 9779,10113 Z M 9769,10103 L 9258,10103 9769,9808 9769,10103 Z"/>
     <path fill="rgb(112,112,112)" stroke="none" d="M 9769,10103 L 9769,9808 10505,9382 10505,9975 9040,10822 9040,10229 9258,10103 9769,10103 Z M 9759,10093 L 9275,10093 9759,9813 9759,10093 Z"/>
     <path fill="rgb(113,113,113)" stroke="none" d="M 9759,10093 L 9759,9813 10505,9382 10505,9975 9040,10822 9040,10229 9275,10093 9759,10093 Z M 9749,10083 L 9293,10083 9749,9819 9749,10083 Z"/>
     <path fill="rgb(115,115,115)" stroke="none" d="M 9749,10083 L 9749,9819 10505,9382 10505,9975 9040,10822 9040,10229 9293,10083 9749,10083 Z M 9739,10073 L 9310,10073 9739,9825 9739,10073 Z"/>
     <path fill="rgb(116,116,116)" stroke="none" d="M 9739,10073 L 9739,9825 10505,9382 10505,9975 9040,10822 9040,10229 9310,10073 9739,10073 Z M 9729,10063 L 9327,10063 9729,9831 9729,10063 Z"/>
     <path fill="rgb(118,118,118)" stroke="none" d="M 9729,10063 L 9729,9831 10505,9382 10505,9975 9040,10822 9040,10229 9327,10063 9729,10063 Z M 9719,10053 L 9344,10053 9719,9836 9719,10053 Z"/>
     <path fill="rgb(119,119,119)" stroke="none" d="M 9719,10053 L 9719,9836 10505,9382 10505,9975 9040,10822 9040,10229 9344,10053 9719,10053 Z M 9709,10043 L 9362,10043 9709,9842 9709,10043 Z"/>
     <path fill="rgb(120,120,120)" stroke="none" d="M 9709,10043 L 9709,9842 10505,9382 10505,9975 9040,10822 9040,10229 9362,10043 9709,10043 Z M 9699,10033 L 9379,10033 9699,9848 9699,10033 Z"/>
     <path fill="rgb(122,122,122)" stroke="none" d="M 9699,10033 L 9699,9848 10505,9382 10505,9975 9040,10822 9040,10229 9379,10033 9699,10033 Z M 9689,10023 L 9396,10023 9689,9854 9689,10023 Z"/>
     <path fill="rgb(123,123,123)" stroke="none" d="M 9689,10023 L 9689,9854 10505,9382 10505,9975 9040,10822 9040,10229 9396,10023 9689,10023 Z M 9679,10013 L 9414,10013 9679,9860 9679,10013 Z"/>
     <path fill="rgb(125,125,125)" stroke="none" d="M 9679,10013 L 9679,9860 10505,9382 10505,9975 9040,10822 9040,10229 9414,10013 9679,10013 Z M 9669,10003 L 9431,10003 9669,9865 9669,10003 Z"/>
     <path fill="rgb(126,126,126)" stroke="none" d="M 9669,10003 L 9669,9865 10505,9382 10505,9975 9040,10822 9040,10229 9431,10003 9669,10003 Z M 9658,9992 L 9450,9992 9658,9872 9658,9992 Z"/>
     <path fill="rgb(127,127,127)" stroke="none" d="M 9658,9992 L 9658,9872 10505,9382 10505,9975 9040,10822 9040,10229 9450,9992 9658,9992 Z M 9648,9982 L 9467,9982 9648,9877 9648,9982 Z"/>
     <path fill="rgb(129,129,129)" stroke="none" d="M 9648,9982 L 9648,9877 10505,9382 10505,9975 9040,10822 9040,10229 9467,9982 9648,9982 Z M 9638,9972 L 9485,9972 9638,9883 9638,9972 Z"/>
     <path fill="rgb(130,130,130)" stroke="none" d="M 9638,9972 L 9638,9883 10505,9382 10505,9975 9040,10822 9040,10229 9485,9972 9638,9972 Z M 9628,9962 L 9502,9962 9628,9889 9628,9962 Z"/>
     <path fill="rgb(132,132,132)" stroke="none" d="M 9628,9962 L 9628,9889 10505,9382 10505,9975 9040,10822 9040,10229 9502,9962 9628,9962 Z M 9618,9952 L 9519,9952 9618,9895 9618,9952 Z"/>
     <path fill="rgb(133,133,133)" stroke="none" d="M 9618,9952 L 9618,9895 10505,9382 10505,9975 9040,10822 9040,10229 9519,9952 9618,9952 Z M 9608,9942 L 9536,9942 9608,9901 9608,9942 Z"/>
     <path fill="rgb(134,134,134)" stroke="none" d="M 9608,9942 L 9608,9901 10505,9382 10505,9975 9040,10822 9040,10229 9536,9942 9608,9942 Z M 9598,9932 L 9554,9932 9598,9906 9598,9932 Z"/>
     <path fill="rgb(136,136,136)" stroke="none" d="M 9598,9932 L 9598,9906 10505,9382 10505,9975 9040,10822 9040,10229 9554,9932 9598,9932 Z M 9588,9922 L 9571,9922 9588,9912 9588,9922 Z"/>
     <path fill="rgb(137,137,137)" stroke="none" d="M 9588,9922 L 9588,9912 10505,9382 10505,9975 9040,10822 9040,10229 9571,9922 9588,9922 Z"/>
     <path fill="rgb(139,139,139)" stroke="none" d="M 9040,10822 L 9040,10229 10505,9382 10505,9975 9040,10822 Z"/>
     <path fill="rgb(140,140,140)" stroke="none" d="M 9040,10822 L 9040,10229 10505,9382 10505,9975 9040,10822 Z"/>
     <path fill="rgb(141,141,141)" stroke="none" d="M 9040,10822 L 9040,10229 10505,9382 10505,9975 9040,10822 Z"/>
     <path fill="rgb(143,143,143)" stroke="none" d="M 9040,10822 L 9040,10229 10505,9382 10505,9975 9040,10822 Z"/>
     <path fill="rgb(144,144,144)" stroke="none" d="M 9040,10822 L 9040,10229 10505,9382 10505,9975 9040,10822 Z"/>
     <path fill="rgb(146,146,146)" stroke="none" d="M 9040,10822 L 9040,10229 10505,9382 10505,9975 9040,10822 Z"/>
     <path fill="rgb(147,147,147)" stroke="none" d="M 9040,10822 L 9040,10229 10505,9382 10505,9975 9040,10822 Z"/>
     <path fill="rgb(148,148,148)" stroke="none" d="M 9040,10822 L 9040,10229 10505,9382 10505,9975 9040,10822 Z"/>
     <path fill="rgb(150,150,150)" stroke="none" d="M 9040,10822 L 9040,10229 10505,9382 10505,9975 9040,10822 Z"/>
     <path fill="rgb(153,153,153)" stroke="none" d="M 9040,10822 L 9040,10229 10505,9382 10505,9975 9040,10822 Z"/>
     <path fill="none" stroke="rgb(178,178,178)" id="Drawing_2_0" stroke-width="40" stroke-linejoin="round" d="M 9040,10822 L 9040,10229 10505,9382 10505,9975 9040,10822 Z"/>
    </g>
    <g>
     <defs>
      <linearGradient id="Gradient_1162" gradientUnits="userSpaceOnUse" x1="8673" y1="8112" x2="8673" y2="10229">
       <stop offset="0.1" stop-color="rgb(51,51,51)"/>
       <stop offset="1" stop-color="rgb(153,153,153)"/>
      </linearGradient>
     </defs>
     <path fill="url(#Gradient_1162)" stroke="rgb(178,178,178)" id="Drawing_3_0" stroke-width="40" stroke-linejoin="round" d="M 9040,10229 L 6842,8959 8307,8112 10505,9382 9040,10229 Z"/>
    </g>
    <g>
     <defs>
      <linearGradient id="Gradient_1163" gradientUnits="userSpaceOnUse" x1="6840" y1="9888" x2="9042" y2="9892">
       <stop offset="0.1" stop-color="rgb(51,51,51)"/>
       <stop offset="1" stop-color="rgb(153,153,153)"/>
      </linearGradient>
     </defs>
     <path fill="url(#Gradient_1163)" stroke="rgb(178,178,178)" id="Drawing_4_0" stroke-width="40" stroke-linejoin="round" d="M 6842,9552 L 6842,8959 9040,10229 9040,10822 6842,9552 Z"/>
    </g>
    <g>
     <path fill="none" stroke="rgb(0,0,0)" id="Drawing_5_0" stroke-width="40" stroke-linejoin="round" d="M 6842,9552 L 6842,8959 8307,8112 10505,9382 10505,9975 9040,10822 6842,9552 Z"/>
    </g>
    <g>
     <path fill="rgb(209,97,108)" stroke="none" d="M 8600,10399 L 8600,10145 8747,10230 8747,10484 8600,10399 Z"/>
     <path fill="none" stroke="rgb(102,102,102)" id="Drawing_6_0" stroke-width="40" stroke-linejoin="round" d="M 8600,10399 L 8600,10145 8747,10230 8747,10484 8600,10399 Z"/>
    </g>
    <g>
     <path fill="rgb(57,181,74)" stroke="none" d="M 8307,10229 L 8307,9975 8454,10060 8454,10314 8307,10229 Z"/>
     <path fill="none" stroke="rgb(102,102,102)" id="Drawing_7_0" stroke-width="40" stroke-linejoin="round" d="M 8307,10229 L 8307,9975 8454,10060 8454,10314 8307,10229 Z"/>
    </g>
    <g>
     <path fill="none" stroke="rgb(153,153,153)" id="Drawing_8_0" stroke-width="40" stroke-linejoin="round" d="M 6989,9213 L 8161,9891"/>
    </g>
    <g>
     <path fill="none" stroke="rgb(153,153,153)" id="Drawing_9_0" stroke-width="40" stroke-linejoin="round" d="M 6989,9298 L 8161,9976"/>
    </g>
    <g>
     <path fill="none" stroke="rgb(153,153,153)" id="Drawing_10_0" stroke-width="40" stroke-linejoin="round" d="M 6989,9382 L 8161,10060"/>
    </g>
    <g>
     <path fill="none" stroke="rgb(153,153,153)" id="Drawing_11_0" stroke-width="40" stroke-linejoin="round" d="M 6989,9467 L 8161,10145"/>
    </g>
   </g>
  </g>
 </g>
</svg>