<?xml version="1.0" encoding="UTF-8"?>

<svg version="1.2" baseProfile="tiny" width="39.76mm" height="27.5mm" viewBox="3139 2969 3976 2750" preserveAspectRatio="xMidYMid" fill-rule="evenodd" stroke-width="28.222" stroke-linejoin="round" xmlns="http://www.w3.org/2000/svg" xmlns:xlink="http://www.w3.org/1999/xlink" xml:space="preserve">
 <g visibility="visible" id="Slide_1">
  <g id="DrawingGroup_1">
   <g>
    <path fill="rgb(221,221,221)" stroke="none" d="M 5357,5699 C 5759,5699 7115,5276 7115,4937 7115,4598 6969,4598 6822,4598 6822,4852 5357,5359 5357,5699 Z"/>
    <path fill="none" stroke="rgb(221,221,221)" id="Drawing_1_0" stroke-linejoin="round" d="M 5357,5699 C 5759,5699 7115,5276 7115,4937 7115,4598 6969,4598 6822,4598 6822,4852 5357,5359 5357,5699 Z"/>
   </g>
   <g id="DrawingGroup_2">
    <g>
     <path fill="rgb(179,179,179)" stroke="none" d="M 6514,5030 L 5860,5408 5357,5408 5357,5106 6514,4437 6514,5030 Z"/>
     <path fill="rgb(180,180,180)" stroke="none" d="M 5860,5408 L 5357,5699 5357,5408 5860,5408 Z M 6514,4437 L 6822,4259 6822,4852 6514,5030 6514,4437 Z M 6499,5039 L 5886,5393 5357,5393 5357,5106 6499,4446 6499,5039 Z"/>
     <path fill="rgb(181,181,181)" stroke="none" d="M 5886,5393 L 5357,5699 5357,5393 5886,5393 Z M 6499,4446 L 6822,4259 6822,4852 6499,5039 6499,4446 Z M 6484,5047 L 5912,5378 5357,5378 5357,5106 6484,4454 6484,5047 Z"/>
     <path fill="rgb(182,182,182)" stroke="none" d="M 5912,5378 L 5357,5699 5357,5378 5912,5378 Z M 6484,4454 L 6822,4259 6822,4852 6484,5047 6484,4454 Z M 6470,5056 L 5936,5364 5357,5364 5357,5106 6470,4463 6470,5056 Z"/>
     <path fill="rgb(183,183,183)" stroke="none" d="M 5936,5364 L 5357,5699 5357,5364 5936,5364 Z M 6470,4463 L 6822,4259 6822,4852 6470,5056 6470,4463 Z M 6455,5064 L 5962,5349 5357,5349 5357,5106 6455,4471 6455,5064 Z"/>
     <path fill="rgb(184,184,184)" stroke="none" d="M 5962,5349 L 5357,5699 5357,5349 5962,5349 Z M 6455,4471 L 6822,4259 6822,4852 6455,5064 6455,4471 Z M 6440,5073 L 5988,5334 5357,5334 5357,5106 6440,4480 6440,5073 Z"/>
     <path fill="rgb(185,185,185)" stroke="none" d="M 5988,5334 L 5357,5699 5357,5334 5988,5334 Z M 6440,4480 L 6822,4259 6822,4852 6440,5073 6440,4480 Z M 6426,5081 L 6013,5320 5357,5320 5357,5106 6426,4488 6426,5081 Z"/>
     <path fill="rgb(186,186,186)" stroke="none" d="M 6013,5320 L 5357,5699 5357,5320 6013,5320 Z M 6426,4488 L 6822,4259 6822,4852 6426,5081 6426,4488 Z M 6411,5090 L 6038,5305 5357,5305 5357,5106 6411,4497 6411,5090 Z"/>
     <path fill="rgb(187,187,187)" stroke="none" d="M 6038,5305 L 5357,5699 5357,5305 6038,5305 Z M 6411,4497 L 6822,4259 6822,4852 6411,5090 6411,4497 Z M 6396,5098 L 6064,5290 5357,5290 5357,5106 6396,4505 6396,5098 Z"/>
     <path fill="rgb(188,188,188)" stroke="none" d="M 6064,5290 L 5357,5699 5357,5290 6064,5290 Z M 6396,4505 L 6822,4259 6822,4852 6396,5098 6396,4505 Z M 6382,5106 L 6089,5276 5357,5276 5357,5106 6382,4513 6382,5106 Z"/>
     <path fill="rgb(189,189,189)" stroke="none" d="M 6089,5276 L 5357,5699 5357,5276 6089,5276 Z M 6382,4513 L 6822,4259 6822,4852 6382,5106 6382,4513 Z M 6367,5115 L 6115,5261 5357,5261 5357,5106 6367,4522 6367,5115 Z"/>
     <path fill="rgb(190,190,190)" stroke="none" d="M 6115,5261 L 5357,5699 5357,5261 6115,5261 Z M 6367,4522 L 6822,4259 6822,4852 6367,5115 6367,4522 Z M 6352,5124 L 6141,5246 5357,5246 5357,5106 6352,4531 6352,5124 Z"/>
     <path fill="rgb(191,191,191)" stroke="none" d="M 6141,5246 L 5357,5699 5357,5246 6141,5246 Z M 6352,4531 L 6822,4259 6822,4852 6352,5124 6352,4531 Z M 6338,5132 L 6165,5232 5357,5232 5357,5106 6338,4539 6338,5132 Z"/>
     <path fill="rgb(192,192,192)" stroke="none" d="M 6165,5232 L 5357,5699 5357,5232 6165,5232 Z M 6338,4539 L 6822,4259 6822,4852 6338,5132 6338,4539 Z M 6323,5141 L 6191,5217 5357,5217 5357,5106 6323,4548 6323,5141 Z"/>
     <path fill="rgb(193,193,193)" stroke="none" d="M 6191,5217 L 5357,5699 5357,5217 6191,5217 Z M 6323,4548 L 6822,4259 6822,4852 6323,5141 6323,4548 Z M 6308,5149 L 6217,5202 5357,5202 5357,5106 6308,4556 6308,5149 Z"/>
     <path fill="rgb(194,194,194)" stroke="none" d="M 6217,5202 L 5357,5699 5357,5202 6217,5202 Z M 6308,4556 L 6822,4259 6822,4852 6308,5149 6308,4556 Z M 6294,5157 L 6241,5188 5357,5188 5357,5106 6294,4564 6294,5157 Z"/>
     <path fill="rgb(195,195,195)" stroke="none" d="M 6241,5188 L 5357,5699 5357,5188 6241,5188 Z M 6294,4564 L 6822,4259 6822,4852 6294,5157 6294,4564 Z M 6279,5166 L 6267,5173 5357,5173 5357,5106 6279,4573 6279,5166 Z"/>
     <path fill="rgb(196,196,196)" stroke="none" d="M 6267,5173 L 5357,5699 5357,5173 6267,5173 Z M 6279,4573 L 6822,4259 6822,4852 6279,5166 6279,4573 Z M 6264,5158 L 5357,5158 5357,5106 6264,4582 6264,5158 Z"/>
     <path fill="rgb(197,197,197)" stroke="none" d="M 6264,5158 L 6264,4582 6822,4259 6822,4852 5357,5699 5357,5158 6264,5158 Z M 6250,5144 L 5357,5144 5357,5106 6250,4590 6250,5144 Z"/>
     <path fill="rgb(198,198,198)" stroke="none" d="M 6250,5144 L 6250,4590 6822,4259 6822,4852 5357,5699 5357,5144 6250,5144 Z M 6235,5129 L 5357,5129 5357,5106 6235,4598 6235,5129 Z"/>
     <path fill="rgb(199,199,199)" stroke="none" d="M 6235,5129 L 6235,4598 6822,4259 6822,4852 5357,5699 5357,5129 6235,5129 Z M 6220,5114 L 5370,5114 5370,5098 6220,4607 6220,5114 Z"/>
     <path fill="rgb(200,200,200)" stroke="none" d="M 5370,5114 L 6220,5114 6220,4607 6822,4259 6822,4852 5357,5699 5357,5106 5370,5098 5370,5114 Z M 6206,5100 L 5384,5100 5384,5090 6206,4615 6206,5100 Z"/>
     <path fill="rgb(201,201,201)" stroke="none" d="M 5384,5100 L 6206,5100 6206,4615 6822,4259 6822,4852 5357,5699 5357,5106 5384,5090 5384,5100 Z M 6191,5085 L 5399,5085 5399,5082 6191,4624 6191,5085 Z"/>
     <path fill="rgb(202,202,202)" stroke="none" d="M 5399,5085 L 6191,5085 6191,4624 6822,4259 6822,4852 5357,5699 5357,5106 5399,5082 5399,5085 Z M 6176,5070 L 5419,5070 6176,4632 6176,5070 Z"/>
     <path fill="rgb(203,203,203)" stroke="none" d="M 6176,5070 L 6176,4632 6822,4259 6822,4852 5357,5699 5357,5106 5419,5070 6176,5070 Z M 6162,5056 L 5443,5056 6162,4641 6162,5056 Z"/>
     <path fill="rgb(204,204,204)" stroke="none" d="M 6162,5056 L 6162,4641 6822,4259 6822,4852 5357,5699 5357,5106 5443,5056 6162,5056 Z M 6147,5041 L 5469,5041 6147,4649 6147,5041 Z"/>
     <path fill="rgb(205,205,205)" stroke="none" d="M 6147,5041 L 6147,4649 6822,4259 6822,4852 5357,5699 5357,5106 5469,5041 6147,5041 Z M 6132,5026 L 5495,5026 6132,4658 6132,5026 Z"/>
     <path fill="rgb(206,206,206)" stroke="none" d="M 6132,5026 L 6132,4658 6822,4259 6822,4852 5357,5699 5357,5106 5495,5026 6132,5026 Z M 6117,5011 L 5521,5011 6117,4667 6117,5011 Z"/>
     <path fill="rgb(207,207,207)" stroke="none" d="M 6117,5011 L 6117,4667 6822,4259 6822,4852 5357,5699 5357,5106 5521,5011 6117,5011 Z M 6103,4997 L 5546,4997 6103,4675 6103,4997 Z"/>
     <path fill="rgb(208,208,208)" stroke="none" d="M 6103,4997 L 6103,4675 6822,4259 6822,4852 5357,5699 5357,5106 5546,4997 6103,4997 Z M 6088,4982 L 5571,4982 6088,4683 6088,4982 Z"/>
     <path fill="rgb(209,209,209)" stroke="none" d="M 6088,4982 L 6088,4683 6822,4259 6822,4852 5357,5699 5357,5106 5571,4982 6088,4982 Z M 6073,4967 L 5597,4967 6073,4692 6073,4967 Z"/>
     <path fill="rgb(210,210,210)" stroke="none" d="M 6073,4967 L 6073,4692 6822,4259 6822,4852 5357,5699 5357,5106 5597,4967 6073,4967 Z M 6059,4953 L 5622,4953 6059,4700 6059,4953 Z"/>
     <path fill="rgb(211,211,211)" stroke="none" d="M 6059,4953 L 6059,4700 6822,4259 6822,4852 5357,5699 5357,5106 5622,4953 6059,4953 Z M 6044,4938 L 5648,4938 6044,4709 6044,4938 Z"/>
     <path fill="rgb(212,212,212)" stroke="none" d="M 6044,4938 L 6044,4709 6822,4259 6822,4852 5357,5699 5357,5106 5648,4938 6044,4938 Z M 6029,4923 L 5674,4923 6029,4717 6029,4923 Z"/>
     <path fill="rgb(213,213,213)" stroke="none" d="M 6029,4923 L 6029,4717 6822,4259 6822,4852 5357,5699 5357,5106 5674,4923 6029,4923 Z M 6015,4909 L 5698,4909 6015,4726 6015,4909 Z"/>
     <path fill="rgb(214,214,214)" stroke="none" d="M 6015,4909 L 6015,4726 6822,4259 6822,4852 5357,5699 5357,5106 5698,4909 6015,4909 Z M 6000,4894 L 5724,4894 6000,4734 6000,4894 Z"/>
     <path fill="rgb(215,215,215)" stroke="none" d="M 6000,4894 L 6000,4734 6822,4259 6822,4852 5357,5699 5357,5106 5724,4894 6000,4894 Z M 5985,4879 L 5750,4879 5985,4743 5985,4879 Z"/>
     <path fill="rgb(216,216,216)" stroke="none" d="M 5985,4879 L 5985,4743 6822,4259 6822,4852 5357,5699 5357,5106 5750,4879 5985,4879 Z M 5971,4865 L 5774,4865 5971,4751 5971,4865 Z"/>
     <path fill="rgb(217,217,217)" stroke="none" d="M 5971,4865 L 5971,4751 6822,4259 6822,4852 5357,5699 5357,5106 5774,4865 5971,4865 Z M 5956,4850 L 5800,4850 5956,4760 5956,4850 Z"/>
     <path fill="rgb(218,218,218)" stroke="none" d="M 5956,4850 L 5956,4760 6822,4259 6822,4852 5357,5699 5357,5106 5800,4850 5956,4850 Z M 5941,4835 L 5826,4835 5941,4768 5941,4835 Z"/>
     <path fill="rgb(219,219,219)" stroke="none" d="M 5941,4835 L 5941,4768 6822,4259 6822,4852 5357,5699 5357,5106 5826,4835 5941,4835 Z M 5927,4821 L 5850,4821 5927,4776 5927,4821 Z"/>
     <path fill="rgb(220,220,220)" stroke="none" d="M 5927,4821 L 5927,4776 6822,4259 6822,4852 5357,5699 5357,5106 5850,4821 5927,4821 Z M 5912,4806 L 5876,4806 5912,4785 5912,4806 Z"/>
     <path fill="rgb(221,221,221)" stroke="none" d="M 5912,4806 L 5912,4785 6822,4259 6822,4852 5357,5699 5357,5106 5876,4806 5912,4806 Z"/>
     <path fill="rgb(222,222,222)" stroke="none" d="M 5357,5699 L 5357,5106 6822,4259 6822,4852 5357,5699 Z"/>
     <path fill="rgb(223,223,223)" stroke="none" d="M 5357,5699 L 5357,5106 6822,4259 6822,4852 5357,5699 Z"/>
     <path fill="rgb(224,224,224)" stroke="none" d="M 5357,5699 L 5357,5106 6822,4259 6822,4852 5357,5699 Z"/>
     <path fill="rgb(225,225,225)" stroke="none" d="M 5357,5699 L 5357,5106 6822,4259 6822,4852 5357,5699 Z"/>
     <path fill="rgb(226,226,226)" stroke="none" d="M 5357,5699 L 5357,5106 6822,4259 6822,4852 5357,5699 Z"/>
     <path fill="rgb(227,227,227)" stroke="none" d="M 5357,5699 L 5357,5106 6822,4259 6822,4852 5357,5699 Z"/>
     <path fill="rgb(229,229,229)" stroke="none" d="M 5357,5699 L 5357,5106 6822,4259 6822,4852 5357,5699 Z"/>
     <path fill="none" stroke="rgb(255,255,255)" id="Drawing_2_0" stroke-width="40" stroke-linejoin="round" d="M 5357,5699 L 5357,5106 6822,4259 6822,4852 5357,5699 Z"/>
    </g>
    <g>
     <defs>
      <linearGradient id="Gradient_1160" gradientUnits="userSpaceOnUse" x1="4990" y1="2989" x2="4990" y2="5106">
       <stop offset="0.1" stop-color="rgb(179,179,179)"/>
       <stop offset="1" stop-color="rgb(229,229,229)"/>
      </linearGradient>
     </defs>
     <path fill="url(#Gradient_1160)" stroke="rgb(255,255,255)" id="Drawing_3_0" stroke-width="40" stroke-linejoin="round" d="M 5357,5106 L 3159,3836 4624,2989 6822,4259 5357,5106 Z"/>
    </g>
    <g>
     <defs>
      <linearGradient id="Gradient_1161" gradientUnits="userSpaceOnUse" x1="3157" y1="4765" x2="5359" y2="4769">
       <stop offset="0.1" stop-color="rgb(179,179,179)"/>
       <stop offset="1" stop-color="rgb(229,229,229)"/>
      </linearGradient>
     </defs>
     <path fill="url(#Gradient_1161)" stroke="rgb(255,255,255)" id="Drawing_4_0" stroke-width="40" stroke-linejoin="round" d="M 3159,4429 L 3159,3836 5357,5106 5357,5699 3159,4429 Z"/>
    </g>
    <g>
     <path fill="none" stroke="rgb(0,0,0)" id="Drawing_5_0" stroke-width="40" stroke-linejoin="round" d="M 3159,4429 L 3159,3836 4624,2989 6822,4259 6822,4852 5357,5699 3159,4429 Z"/>
    </g>
    <g>
     <path fill="rgb(209,97,108)" stroke="none" d="M 4917,5276 L 4917,5022 5064,5107 5064,5361 4917,5276 Z"/>
     <path fill="none" stroke="rgb(127,127,127)" id="Drawing_6_0" stroke-width="40" stroke-linejoin="round" d="M 4917,5276 L 4917,5022 5064,5107 5064,5361 4917,5276 Z"/>
    </g>
    <g>
     <path fill="rgb(57,181,74)" stroke="none" d="M 4624,5106 L 4624,4852 4771,4937 4771,5191 4624,5106 Z"/>
     <path fill="none" stroke="rgb(127,127,127)" id="Drawing_7_0" stroke-width="40" stroke-linejoin="round" d="M 4624,5106 L 4624,4852 4771,4937 4771,5191 4624,5106 Z"/>
    </g>
    <g>
     <path fill="none" stroke="rgb(127,127,127)" id="Drawing_8_0" stroke-width="40" stroke-linejoin="round" d="M 3306,4090 L 4478,4768"/>
    </g>
    <g>
     <path fill="none" stroke="rgb(127,127,127)" id="Drawing_9_0" stroke-width="40" stroke-linejoin="round" d="M 3306,4175 L 4478,4853"/>
    </g>
    <g>
     <path fill="none" stroke="rgb(127,127,127)" id="Drawing_10_0" stroke-width="40" stroke-linejoin="round" d="M 3306,4259 L 4478,4937"/>
    </g>
    <g>
     <path fill="none" stroke="rgb(127,127,127)" id="Drawing_11_0" stroke-width="40" stroke-linejoin="round" d="M 3306,4344 L 4478,5022"/>
    </g>
   </g>
  </g>
 </g>
</svg>