<?xml version="1.0" encoding="UTF-8"?>

<svg version="1.2" baseProfile="tiny" width="36.78mm" height="28.4mm" viewBox="2017 10486 3678 2840" preserveAspectRatio="xMidYMid" fill-rule="evenodd" stroke-width="28.222" stroke-linejoin="round" xmlns="http://www.w3.org/2000/svg" xmlns:xlink="http://www.w3.org/1999/xlink" xml:space="preserve">
 <g visibility="visible" id="Slide_1">
  <g id="DrawingGroup_1">
   <g>
    <path fill="rgb(221,221,221)" stroke="none" d="M 3823,13236 C 4298,13236 5521,12676 5642,12466 5763,12256 5521,12046 5400,12046 5400,12346 3823,12736 3823,13236 Z"/>
    <path fill="none" stroke="rgb(221,221,221)" id="Drawing_1_0" stroke-width="40" stroke-linejoin="round" d="M 3823,13236 C 4298,13236 5521,12676 5642,12466 5763,12256 5521,12046 5400,12046 5400,12346 3823,12736 3823,13236 Z"/>
   </g>
   <g id="DrawingGroup_2">
    <g>
     <defs>
      <linearGradient id="Gradient_1089" gradientUnits="userSpaceOnUse" x1="2035" y1="12395" x2="3737" y2="12397">
       <stop offset="0.1" stop-color="rgb(0,115,188)"/>
       <stop offset="1" stop-color="rgb(127,185,221)"/>
      </linearGradient>
     </defs>
     <path fill="url(#Gradient_1089)" stroke="rgb(255,255,255)" id="Drawing_2_0" stroke-width="40" stroke-linejoin="round" d="M 2037,12326 L 2037,11486 3735,12466 3735,13306 2037,12326 Z"/>
    </g>
    <g>
     <path fill="rgb(0,115,188)" stroke="none" d="M 5144,12492 L 4384,12931 3735,12931 3735,12466 5144,11652 5144,12492 Z"/>
     <path fill="rgb(1,115,188)" stroke="none" d="M 4384,12931 L 3735,13306 3735,12931 4384,12931 Z M 5144,11652 L 5432,11486 5432,12326 5144,12492 5144,11652 Z M 5134,12498 L 4402,12921 3735,12921 3735,12466 5134,11658 5134,12498 Z"/>
     <path fill="rgb(2,116,188)" stroke="none" d="M 4402,12921 L 3735,13306 3735,12921 4402,12921 Z M 5134,11658 L 5432,11486 5432,12326 5134,12498 5134,11658 Z M 5124,12504 L 4419,12911 3735,12911 3735,12466 5124,11664 5124,12504 Z"/>
     <path fill="rgb(4,117,189)" stroke="none" d="M 4419,12911 L 3735,13306 3735,12911 4419,12911 Z M 5124,11664 L 5432,11486 5432,12326 5124,12504 5124,11664 Z M 5114,12510 L 4436,12901 3735,12901 3735,12466 5114,11670 5114,12510 Z"/>
     <path fill="rgb(5,118,189)" stroke="none" d="M 4436,12901 L 3735,13306 3735,12901 4436,12901 Z M 5114,11670 L 5432,11486 5432,12326 5114,12510 5114,11670 Z M 5104,12515 L 4454,12891 3735,12891 3735,12466 5104,11675 5104,12515 Z"/>
     <path fill="rgb(6,118,189)" stroke="none" d="M 4454,12891 L 3735,13306 3735,12891 4454,12891 Z M 5104,11675 L 5432,11486 5432,12326 5104,12515 5104,11675 Z M 5094,12521 L 4471,12881 3735,12881 3735,12466 5094,11681 5094,12521 Z"/>
     <path fill="rgb(8,119,190)" stroke="none" d="M 4471,12881 L 3735,13306 3735,12881 4471,12881 Z M 5094,11681 L 5432,11486 5432,12326 5094,12521 5094,11681 Z M 5084,12527 L 4488,12871 3735,12871 3735,12466 5084,11687 5084,12527 Z"/>
     <path fill="rgb(9,120,190)" stroke="none" d="M 4488,12871 L 3735,13306 3735,12871 4488,12871 Z M 5084,11687 L 5432,11486 5432,12326 5084,12527 5084,11687 Z M 5074,12533 L 4506,12861 3735,12861 3735,12466 5074,11693 5074,12533 Z"/>
     <path fill="rgb(11,121,190)" stroke="none" d="M 4506,12861 L 3735,13306 3735,12861 4506,12861 Z M 5074,11693 L 5432,11486 5432,12326 5074,12533 5074,11693 Z M 5064,12539 L 4523,12851 3735,12851 3735,12466 5064,11699 5064,12539 Z"/>
     <path fill="rgb(12,121,191)" stroke="none" d="M 4523,12851 L 3735,13306 3735,12851 4523,12851 Z M 5064,11699 L 5432,11486 5432,12326 5064,12539 5064,11699 Z M 5054,12544 L 4540,12841 3735,12841 3735,12466 5054,11704 5054,12544 Z"/>
     <path fill="rgb(13,122,191)" stroke="none" d="M 4540,12841 L 3735,13306 3735,12841 4540,12841 Z M 5054,11704 L 5432,11486 5432,12326 5054,12544 5054,11704 Z M 5044,12550 L 4558,12831 3735,12831 3735,12466 5044,11710 5044,12550 Z"/>
     <path fill="rgb(15,123,191)" stroke="none" d="M 4558,12831 L 3735,13306 3735,12831 4558,12831 Z M 5044,11710 L 5432,11486 5432,12326 5044,12550 5044,11710 Z M 5034,12556 L 4575,12821 3735,12821 3735,12466 5034,11716 5034,12556 Z"/>
     <path fill="rgb(16,124,192)" stroke="none" d="M 4575,12821 L 3735,13306 3735,12821 4575,12821 Z M 5034,11716 L 5432,11486 5432,12326 5034,12556 5034,11716 Z M 5024,12562 L 4592,12811 3735,12811 3735,12466 5024,11722 5024,12562 Z"/>
     <path fill="rgb(18,125,192)" stroke="none" d="M 4592,12811 L 3735,13306 3735,12811 4592,12811 Z M 5024,11722 L 5432,11486 5432,12326 5024,12562 5024,11722 Z M 5014,12567 L 4609,12801 3735,12801 3735,12466 5014,11727 5014,12567 Z"/>
     <path fill="rgb(19,125,193)" stroke="none" d="M 4609,12801 L 3735,13306 3735,12801 4609,12801 Z M 5014,11727 L 5432,11486 5432,12326 5014,12567 5014,11727 Z M 5004,12573 L 4627,12791 3735,12791 3735,12466 5004,11733 5004,12573 Z"/>
     <path fill="rgb(20,126,193)" stroke="none" d="M 4627,12791 L 3735,13306 3735,12791 4627,12791 Z M 5004,11733 L 5432,11486 5432,12326 5004,12573 5004,11733 Z M 4994,12579 L 4644,12781 3735,12781 3735,12466 4994,11739 4994,12579 Z"/>
     <path fill="rgb(22,127,193)" stroke="none" d="M 4644,12781 L 3735,13306 3735,12781 4644,12781 Z M 4994,11739 L 5432,11486 5432,12326 4994,12579 4994,11739 Z M 4984,12585 L 4661,12771 3735,12771 3735,12466 4984,11745 4984,12585 Z"/>
     <path fill="rgb(23,128,194)" stroke="none" d="M 4661,12771 L 3735,13306 3735,12771 4661,12771 Z M 4984,11745 L 5432,11486 5432,12326 4984,12585 4984,11745 Z M 4974,12590 L 4679,12761 3735,12761 3735,12466 4974,11750 4974,12590 Z"/>
     <path fill="rgb(25,128,194)" stroke="none" d="M 4679,12761 L 3735,13306 3735,12761 4679,12761 Z M 4974,11750 L 5432,11486 5432,12326 4974,12590 4974,11750 Z M 4964,12596 L 4696,12751 3735,12751 3735,12466 4964,11756 4964,12596 Z"/>
     <path fill="rgb(26,129,194)" stroke="none" d="M 4696,12751 L 3735,13306 3735,12751 4696,12751 Z M 4964,11756 L 5432,11486 5432,12326 4964,12596 4964,11756 Z M 4954,12602 L 4713,12741 3735,12741 3735,12466 4954,11762 4954,12602 Z"/>
     <path fill="rgb(27,130,195)" stroke="none" d="M 4713,12741 L 3735,13306 3735,12741 4713,12741 Z M 4954,11762 L 5432,11486 5432,12326 4954,12602 4954,11762 Z M 4944,12608 L 4731,12731 3735,12731 3735,12466 4944,11768 4944,12608 Z"/>
     <path fill="rgb(29,131,195)" stroke="none" d="M 4731,12731 L 3735,13306 3735,12731 4731,12731 Z M 4944,11768 L 5432,11486 5432,12326 4944,12608 4944,11768 Z M 4934,12614 L 4748,12721 3735,12721 3735,12466 4934,11774 4934,12614 Z"/>
     <path fill="rgb(30,131,195)" stroke="none" d="M 4748,12721 L 3735,13306 3735,12721 4748,12721 Z M 4934,11774 L 5432,11486 5432,12326 4934,12614 4934,11774 Z M 4924,12619 L 4765,12711 3735,12711 3735,12466 4924,11779 4924,12619 Z"/>
     <path fill="rgb(32,132,196)" stroke="none" d="M 4765,12711 L 3735,13306 3735,12711 4765,12711 Z M 4924,11779 L 5432,11486 5432,12326 4924,12619 4924,11779 Z M 4914,12625 L 4783,12701 3735,12701 3735,12466 4914,11785 4914,12625 Z"/>
     <path fill="rgb(33,133,196)" stroke="none" d="M 4783,12701 L 3735,13306 3735,12701 4783,12701 Z M 4914,11785 L 5432,11486 5432,12326 4914,12625 4914,11785 Z M 4904,12631 L 4800,12691 3735,12691 3735,12466 4904,11791 4904,12631 Z"/>
     <path fill="rgb(34,134,197)" stroke="none" d="M 4800,12691 L 3735,13306 3735,12691 4800,12691 Z M 4904,11791 L 5432,11486 5432,12326 4904,12631 4904,11791 Z M 4894,12637 L 4817,12681 3735,12681 3735,12466 4894,11797 4894,12637 Z"/>
     <path fill="rgb(36,135,197)" stroke="none" d="M 4817,12681 L 3735,13306 3735,12681 4817,12681 Z M 4894,11797 L 5432,11486 5432,12326 4894,12637 4894,11797 Z M 4884,12642 L 4835,12671 3735,12671 3735,12466 4884,11802 4884,12642 Z"/>
     <path fill="rgb(37,135,197)" stroke="none" d="M 4835,12671 L 3735,13306 3735,12671 4835,12671 Z M 4884,11802 L 5432,11486 5432,12326 4884,12642 4884,11802 Z M 4874,12648 L 4852,12661 3735,12661 3735,12466 4874,11808 4874,12648 Z"/>
     <path fill="rgb(39,136,198)" stroke="none" d="M 4852,12661 L 3735,13306 3735,12661 4852,12661 Z M 4874,11808 L 5432,11486 5432,12326 4874,12648 4874,11808 Z M 4864,12651 L 3735,12651 3735,12466 4864,11814 4864,12651 Z"/>
     <path fill="rgb(40,137,198)" stroke="none" d="M 4864,12651 L 4864,11814 5432,11486 5432,12326 3735,13306 3735,12651 4864,12651 Z M 4854,12641 L 3735,12641 3735,12466 4854,11820 4854,12641 Z"/>
     <path fill="rgb(41,138,198)" stroke="none" d="M 4854,12641 L 4854,11820 5432,11486 5432,12326 3735,13306 3735,12641 4854,12641 Z M 4844,12631 L 3735,12631 3735,12466 4844,11826 4844,12631 Z"/>
     <path fill="rgb(43,138,199)" stroke="none" d="M 4844,12631 L 4844,11826 5432,11486 5432,12326 3735,13306 3735,12631 4844,12631 Z M 4834,12621 L 3735,12621 3735,12466 4834,11831 4834,12621 Z"/>
     <path fill="rgb(44,139,199)" stroke="none" d="M 4834,12621 L 4834,11831 5432,11486 5432,12326 3735,13306 3735,12621 4834,12621 Z M 4824,12611 L 3735,12611 3735,12466 4824,11837 4824,12611 Z"/>
     <path fill="rgb(46,140,199)" stroke="none" d="M 4824,12611 L 4824,11837 5432,11486 5432,12326 3735,13306 3735,12611 4824,12611 Z M 4814,12601 L 3735,12601 3735,12466 4814,11843 4814,12601 Z"/>
     <path fill="rgb(47,141,200)" stroke="none" d="M 4814,12601 L 4814,11843 5432,11486 5432,12326 3735,13306 3735,12601 4814,12601 Z M 4804,12591 L 3735,12591 3735,12466 4804,11849 4804,12591 Z"/>
     <path fill="rgb(48,141,200)" stroke="none" d="M 4804,12591 L 4804,11849 5432,11486 5432,12326 3735,13306 3735,12591 4804,12591 Z M 4794,12581 L 3735,12581 3735,12466 4794,11854 4794,12581 Z"/>
     <path fill="rgb(50,142,201)" stroke="none" d="M 4794,12581 L 4794,11854 5432,11486 5432,12326 3735,13306 3735,12581 4794,12581 Z M 4784,12571 L 3735,12571 3735,12466 4784,11860 4784,12571 Z"/>
     <path fill="rgb(51,143,201)" stroke="none" d="M 4784,12571 L 4784,11860 5432,11486 5432,12326 3735,13306 3735,12571 4784,12571 Z M 4774,12561 L 3735,12561 3735,12466 4774,11866 4774,12561 Z"/>
     <path fill="rgb(53,144,201)" stroke="none" d="M 4774,12561 L 4774,11866 5432,11486 5432,12326 3735,13306 3735,12561 4774,12561 Z M 4764,12551 L 3735,12551 3735,12466 4764,11872 4764,12551 Z"/>
     <path fill="rgb(54,145,202)" stroke="none" d="M 4764,12551 L 4764,11872 5432,11486 5432,12326 3735,13306 3735,12551 4764,12551 Z M 4754,12541 L 3735,12541 3735,12466 4754,11878 4754,12541 Z"/>
     <path fill="rgb(55,145,202)" stroke="none" d="M 4754,12541 L 4754,11878 5432,11486 5432,12326 3735,13306 3735,12541 4754,12541 Z M 4744,12531 L 3743,12531 3743,12461 4744,11883 4744,12531 Z"/>
     <path fill="rgb(57,146,202)" stroke="none" d="M 3743,12531 L 4744,12531 4744,11883 5432,11486 5432,12326 3735,13306 3735,12466 3743,12461 3743,12531 Z M 4734,12521 L 3753,12521 3753,12456 4734,11889 4734,12521 Z"/>
     <path fill="rgb(58,147,203)" stroke="none" d="M 3753,12521 L 4734,12521 4734,11889 5432,11486 5432,12326 3735,13306 3735,12466 3753,12456 3753,12521 Z M 4724,12511 L 3763,12511 3763,12450 4724,11895 4724,12511 Z"/>
     <path fill="rgb(60,148,203)" stroke="none" d="M 3763,12511 L 4724,12511 4724,11895 5432,11486 5432,12326 3735,13306 3735,12466 3763,12450 3763,12511 Z M 4714,12501 L 3773,12501 3773,12444 4714,11901 4714,12501 Z"/>
     <path fill="rgb(61,148,203)" stroke="none" d="M 3773,12501 L 4714,12501 4714,11901 5432,11486 5432,12326 3735,13306 3735,12466 3773,12444 3773,12501 Z M 4704,12491 L 3783,12491 3783,12438 4704,11906 4704,12491 Z"/>
     <path fill="rgb(62,149,204)" stroke="none" d="M 3783,12491 L 4704,12491 4704,11906 5432,11486 5432,12326 3735,13306 3735,12466 3783,12438 3783,12491 Z M 4694,12481 L 3793,12481 3793,12433 4694,11912 4694,12481 Z"/>
     <path fill="rgb(64,150,204)" stroke="none" d="M 3793,12481 L 4694,12481 4694,11912 5432,11486 5432,12326 3735,13306 3735,12466 3793,12433 3793,12481 Z M 4684,12471 L 3803,12471 3803,12427 4684,11918 4684,12471 Z"/>
     <path fill="rgb(65,151,205)" stroke="none" d="M 3803,12471 L 4684,12471 4684,11918 5432,11486 5432,12326 3735,13306 3735,12466 3803,12427 3803,12471 Z M 4674,12461 L 3813,12461 3813,12421 4674,11924 4674,12461 Z"/>
     <path fill="rgb(66,151,205)" stroke="none" d="M 3813,12461 L 4674,12461 4674,11924 5432,11486 5432,12326 3735,13306 3735,12466 3813,12421 3813,12461 Z M 4664,12451 L 3823,12451 3823,12415 4664,11930 4664,12451 Z"/>
     <path fill="rgb(68,152,205)" stroke="none" d="M 3823,12451 L 4664,12451 4664,11930 5432,11486 5432,12326 3735,13306 3735,12466 3823,12415 3823,12451 Z M 4654,12441 L 3833,12441 3833,12409 4654,11935 4654,12441 Z"/>
     <path fill="rgb(69,153,206)" stroke="none" d="M 3833,12441 L 4654,12441 4654,11935 5432,11486 5432,12326 3735,13306 3735,12466 3833,12409 3833,12441 Z M 4644,12431 L 3843,12431 3843,12404 4644,11941 4644,12431 Z"/>
     <path fill="rgb(71,154,206)" stroke="none" d="M 3843,12431 L 4644,12431 4644,11941 5432,11486 5432,12326 3735,13306 3735,12466 3843,12404 3843,12431 Z M 4634,12421 L 3853,12421 3853,12398 4634,11947 4634,12421 Z"/>
     <path fill="rgb(72,155,206)" stroke="none" d="M 3853,12421 L 4634,12421 4634,11947 5432,11486 5432,12326 3735,13306 3735,12466 3853,12398 3853,12421 Z M 4624,12411 L 3863,12411 3863,12392 4624,11953 4624,12411 Z"/>
     <path fill="rgb(73,155,207)" stroke="none" d="M 3863,12411 L 4624,12411 4624,11953 5432,11486 5432,12326 3735,13306 3735,12466 3863,12392 3863,12411 Z M 4614,12401 L 3873,12401 3873,12386 4614,11958 4614,12401 Z"/>
     <path fill="rgb(75,156,207)" stroke="none" d="M 3873,12401 L 4614,12401 4614,11958 5432,11486 5432,12326 3735,13306 3735,12466 3873,12386 3873,12401 Z M 4604,12391 L 3883,12391 3883,12381 4604,11964 4604,12391 Z"/>
     <path fill="rgb(76,157,207)" stroke="none" d="M 3883,12391 L 4604,12391 4604,11964 5432,11486 5432,12326 3735,13306 3735,12466 3883,12381 3883,12391 Z M 4594,12381 L 3893,12381 3893,12375 4594,11970 4594,12381 Z"/>
     <path fill="rgb(78,158,208)" stroke="none" d="M 3893,12381 L 4594,12381 4594,11970 5432,11486 5432,12326 3735,13306 3735,12466 3893,12375 3893,12381 Z M 4584,12371 L 3903,12371 3903,12369 4584,11976 4584,12371 Z"/>
     <path fill="rgb(79,158,208)" stroke="none" d="M 3903,12371 L 4584,12371 4584,11976 5432,11486 5432,12326 3735,13306 3735,12466 3903,12369 3903,12371 Z M 4574,12361 L 3917,12361 4574,11981 4574,12361 Z"/>
     <path fill="rgb(80,159,209)" stroke="none" d="M 4574,12361 L 4574,11981 5432,11486 5432,12326 3735,13306 3735,12466 3917,12361 4574,12361 Z M 4564,12351 L 3934,12351 4564,11987 4564,12351 Z"/>
     <path fill="rgb(82,160,209)" stroke="none" d="M 4564,12351 L 4564,11987 5432,11486 5432,12326 3735,13306 3735,12466 3934,12351 4564,12351 Z M 4554,12341 L 3951,12341 4554,11993 4554,12341 Z"/>
     <path fill="rgb(83,161,209)" stroke="none" d="M 4554,12341 L 4554,11993 5432,11486 5432,12326 3735,13306 3735,12466 3951,12341 4554,12341 Z M 4543,12330 L 3971,12330 4543,11999 4543,12330 Z"/>
     <path fill="rgb(85,161,210)" stroke="none" d="M 4543,12330 L 4543,11999 5432,11486 5432,12326 3735,13306 3735,12466 3971,12330 4543,12330 Z M 4533,12320 L 3988,12320 4533,12005 4533,12320 Z"/>
     <path fill="rgb(86,162,210)" stroke="none" d="M 4533,12320 L 4533,12005 5432,11486 5432,12326 3735,13306 3735,12466 3988,12320 4533,12320 Z M 4523,12310 L 4005,12310 4523,12011 4523,12310 Z"/>
     <path fill="rgb(87,163,210)" stroke="none" d="M 4523,12310 L 4523,12011 5432,11486 5432,12326 3735,13306 3735,12466 4005,12310 4523,12310 Z M 4513,12300 L 4022,12300 4513,12017 4513,12300 Z"/>
     <path fill="rgb(89,164,211)" stroke="none" d="M 4513,12300 L 4513,12017 5432,11486 5432,12326 3735,13306 3735,12466 4022,12300 4513,12300 Z M 4503,12290 L 4040,12290 4503,12022 4503,12290 Z"/>
     <path fill="rgb(90,165,211)" stroke="none" d="M 4503,12290 L 4503,12022 5432,11486 5432,12326 3735,13306 3735,12466 4040,12290 4503,12290 Z M 4493,12280 L 4057,12280 4493,12028 4493,12280 Z"/>
     <path fill="rgb(92,165,211)" stroke="none" d="M 4493,12280 L 4493,12028 5432,11486 5432,12326 3735,13306 3735,12466 4057,12280 4493,12280 Z M 4483,12270 L 4074,12270 4483,12034 4483,12270 Z"/>
     <path fill="rgb(93,166,212)" stroke="none" d="M 4483,12270 L 4483,12034 5432,11486 5432,12326 3735,13306 3735,12466 4074,12270 4483,12270 Z M 4473,12260 L 4092,12260 4473,12040 4473,12260 Z"/>
     <path fill="rgb(94,167,212)" stroke="none" d="M 4473,12260 L 4473,12040 5432,11486 5432,12326 3735,13306 3735,12466 4092,12260 4473,12260 Z M 4463,12250 L 4109,12250 4463,12046 4463,12250 Z"/>
     <path fill="rgb(96,168,213)" stroke="none" d="M 4463,12250 L 4463,12046 5432,11486 5432,12326 3735,13306 3735,12466 4109,12250 4463,12250 Z M 4453,12240 L 4126,12240 4453,12051 4453,12240 Z"/>
     <path fill="rgb(97,168,213)" stroke="none" d="M 4453,12240 L 4453,12051 5432,11486 5432,12326 3735,13306 3735,12466 4126,12240 4453,12240 Z M 4443,12230 L 4144,12230 4443,12057 4443,12230 Z"/>
     <path fill="rgb(99,169,213)" stroke="none" d="M 4443,12230 L 4443,12057 5432,11486 5432,12326 3735,13306 3735,12466 4144,12230 4443,12230 Z M 4433,12220 L 4161,12220 4433,12063 4433,12220 Z"/>
     <path fill="rgb(100,170,214)" stroke="none" d="M 4433,12220 L 4433,12063 5432,11486 5432,12326 3735,13306 3735,12466 4161,12220 4433,12220 Z M 4423,12210 L 4178,12210 4423,12069 4423,12210 Z"/>
     <path fill="rgb(101,171,214)" stroke="none" d="M 4423,12210 L 4423,12069 5432,11486 5432,12326 3735,13306 3735,12466 4178,12210 4423,12210 Z M 4413,12200 L 4196,12200 4413,12074 4413,12200 Z"/>
     <path fill="rgb(103,171,214)" stroke="none" d="M 4413,12200 L 4413,12074 5432,11486 5432,12326 3735,13306 3735,12466 4196,12200 4413,12200 Z M 4403,12190 L 4213,12190 4403,12080 4403,12190 Z"/>
     <path fill="rgb(104,172,215)" stroke="none" d="M 4403,12190 L 4403,12080 5432,11486 5432,12326 3735,13306 3735,12466 4213,12190 4403,12190 Z M 4393,12180 L 4230,12180 4393,12086 4393,12180 Z"/>
     <path fill="rgb(106,173,215)" stroke="none" d="M 4393,12180 L 4393,12086 5432,11486 5432,12326 3735,13306 3735,12466 4230,12180 4393,12180 Z M 4383,12170 L 4248,12170 4383,12092 4383,12170 Z"/>
     <path fill="rgb(107,174,215)" stroke="none" d="M 4383,12170 L 4383,12092 5432,11486 5432,12326 3735,13306 3735,12466 4248,12170 4383,12170 Z M 4373,12160 L 4265,12160 4373,12098 4373,12160 Z"/>
     <path fill="rgb(108,175,216)" stroke="none" d="M 4373,12160 L 4373,12098 5432,11486 5432,12326 3735,13306 3735,12466 4265,12160 4373,12160 Z M 4363,12150 L 4282,12150 4363,12103 4363,12150 Z"/>
     <path fill="rgb(110,175,216)" stroke="none" d="M 4363,12150 L 4363,12103 5432,11486 5432,12326 3735,13306 3735,12466 4282,12150 4363,12150 Z M 4353,12140 L 4300,12140 4353,12109 4353,12140 Z"/>
     <path fill="rgb(111,176,217)" stroke="none" d="M 4353,12140 L 4353,12109 5432,11486 5432,12326 3735,13306 3735,12466 4300,12140 4353,12140 Z M 4343,12130 L 4317,12130 4343,12115 4343,12130 Z"/>
     <path fill="rgb(113,177,217)" stroke="none" d="M 4343,12130 L 4343,12115 5432,11486 5432,12326 3735,13306 3735,12466 4317,12130 4343,12130 Z"/>
     <path fill="rgb(114,178,217)" stroke="none" d="M 3735,13306 L 3735,12466 5432,11486 5432,12326 3735,13306 Z"/>
     <path fill="rgb(115,178,218)" stroke="none" d="M 3735,13306 L 3735,12466 5432,11486 5432,12326 3735,13306 Z"/>
     <path fill="rgb(117,179,218)" stroke="none" d="M 3735,13306 L 3735,12466 5432,11486 5432,12326 3735,13306 Z"/>
     <path fill="rgb(118,180,218)" stroke="none" d="M 3735,13306 L 3735,12466 5432,11486 5432,12326 3735,13306 Z"/>
     <path fill="rgb(120,181,219)" stroke="none" d="M 3735,13306 L 3735,12466 5432,11486 5432,12326 3735,13306 Z"/>
     <path fill="rgb(121,181,219)" stroke="none" d="M 3735,13306 L 3735,12466 5432,11486 5432,12326 3735,13306 Z"/>
     <path fill="rgb(122,182,219)" stroke="none" d="M 3735,13306 L 3735,12466 5432,11486 5432,12326 3735,13306 Z"/>
     <path fill="rgb(124,183,220)" stroke="none" d="M 3735,13306 L 3735,12466 5432,11486 5432,12326 3735,13306 Z"/>
     <path fill="rgb(127,185,221)" stroke="none" d="M 3735,13306 L 3735,12466 5432,11486 5432,12326 3735,13306 Z"/>
     <path fill="none" stroke="rgb(255,255,255)" id="Drawing_3_0" stroke-width="40" stroke-linejoin="round" d="M 3735,13306 L 3735,12466 5432,11486 5432,12326 3735,13306 Z"/>
    </g>
    <g>
     <defs>
      <linearGradient id="Gradient_1090" gradientUnits="userSpaceOnUse" x1="3734" y1="10506" x2="3734" y2="12466">
       <stop offset="0.1" stop-color="rgb(0,115,188)"/>
       <stop offset="1" stop-color="rgb(127,185,221)"/>
      </linearGradient>
     </defs>
     <path fill="url(#Gradient_1090)" stroke="rgb(255,255,255)" id="Drawing_4_0" stroke-width="40" stroke-linejoin="round" d="M 3735,12466 L 2037,11486 3735,10506 5432,11486 3735,12466 Z"/>
    </g>
    <g>
     <path fill="none" stroke="rgb(0,0,0)" id="Drawing_5_0" stroke-width="40" stroke-linejoin="round" d="M 2037,12326 L 2037,11486 3735,10506 5432,11486 5432,12326 3735,13306 2037,12326 Z"/>
    </g>
    <g>
     <path fill="rgb(255,255,255)" stroke="none" d="M 2643,11556 L 3250,11906 3371,11836 2764,11486 2885,11416 2522,11416 2522,11626 2643,11556 Z"/>
     <path fill="none" stroke="rgb(255,255,255)" id="Drawing_6_0" stroke-width="40" stroke-linejoin="round" d="M 2643,11556 L 3250,11906 3371,11836 2764,11486 2885,11416 2522,11416 2522,11626 2643,11556 Z"/>
    </g>
    <g>
     <path fill="rgb(255,255,255)" stroke="none" d="M 3976,11906 L 3855,11976 4219,11976 4219,11766 4098,11836 3492,11486 3371,11556 3976,11906 Z"/>
     <path fill="none" stroke="rgb(255,255,255)" id="Drawing_7_0" stroke-width="40" stroke-linejoin="round" d="M 3976,11906 L 3855,11976 4219,11976 4219,11766 4098,11836 3492,11486 3371,11556 3976,11906 Z"/>
    </g>
    <g>
     <path fill="rgb(255,255,255)" stroke="none" d="M 3371,11136 L 3977,11486 4098,11416 3492,11066 3613,10996 3250,10996 3250,11206 3371,11136 Z"/>
     <path fill="none" stroke="rgb(255,255,255)" id="Drawing_8_0" stroke-width="40" stroke-linejoin="round" d="M 3371,11136 L 3977,11486 4098,11416 3492,11066 3613,10996 3250,10996 3250,11206 3371,11136 Z"/>
    </g>
    <g>
     <path fill="rgb(255,255,255)" stroke="none" d="M 4704,11486 L 4583,11556 4947,11556 4947,11346 4826,11416 4220,11066 4099,11136 4704,11486 Z"/>
     <path fill="none" stroke="rgb(255,255,255)" id="Drawing_9_0" stroke-width="40" stroke-linejoin="round" d="M 4704,11486 L 4583,11556 4947,11556 4947,11346 4826,11416 4220,11066 4099,11136 4704,11486 Z"/>
    </g>
   </g>
  </g>
 </g>
</svg>