<?xml version="1.0" encoding="UTF-8"?>

<svg version="1.2" baseProfile="tiny" width="36.78mm" height="28.4mm" viewBox="12109 10448 3678 2840" preserveAspectRatio="xMidYMid" fill-rule="evenodd" stroke-width="28.222" stroke-linejoin="round" xmlns="http://www.w3.org/2000/svg" xmlns:xlink="http://www.w3.org/1999/xlink" xml:space="preserve">
 <g visibility="visible" id="Slide_1">
  <g id="DrawingGroup_1">
   <g>
    <path fill="rgb(221,221,221)" stroke="none" d="M 13915,13198 C 14390,13198 15613,12638 15734,12428 15855,12218 15613,12008 15492,12008 15492,12308 13915,12698 13915,13198 Z"/>
    <path fill="none" stroke="rgb(221,221,221)" id="Drawing_1_0" stroke-width="40" stroke-linejoin="round" d="M 13915,13198 C 14390,13198 15613,12638 15734,12428 15855,12218 15613,12008 15492,12008 15492,12308 13915,12698 13915,13198 Z"/>
   </g>
   <g id="DrawingGroup_2">
    <g>
     <defs>
      <linearGradient id="Gradient_1091" gradientUnits="userSpaceOnUse" x1="12127" y1="12357" x2="13829" y2="12359">
       <stop offset="0.1" stop-color="rgb(0,115,188)"/>
       <stop offset="1" stop-color="rgb(127,185,221)"/>
      </linearGradient>
     </defs>
     <path fill="url(#Gradient_1091)" stroke="rgb(255,255,255)" id="Drawing_2_0" stroke-width="40" stroke-linejoin="round" d="M 12129,12288 L 12129,11448 13827,12428 13827,13268 12129,12288 Z"/>
    </g>
    <g>
     <path fill="rgb(0,115,188)" stroke="none" d="M 15236,12454 L 14476,12893 13827,12893 13827,12428 15236,11614 15236,12454 Z"/>
     <path fill="rgb(1,115,188)" stroke="none" d="M 14476,12893 L 13827,13268 13827,12893 14476,12893 Z M 15236,11614 L 15524,11448 15524,12288 15236,12454 15236,11614 Z M 15226,12460 L 14494,12883 13827,12883 13827,12428 15226,11620 15226,12460 Z"/>
     <path fill="rgb(2,116,188)" stroke="none" d="M 14494,12883 L 13827,13268 13827,12883 14494,12883 Z M 15226,11620 L 15524,11448 15524,12288 15226,12460 15226,11620 Z M 15216,12466 L 14511,12873 13827,12873 13827,12428 15216,11626 15216,12466 Z"/>
     <path fill="rgb(4,117,189)" stroke="none" d="M 14511,12873 L 13827,13268 13827,12873 14511,12873 Z M 15216,11626 L 15524,11448 15524,12288 15216,12466 15216,11626 Z M 15206,12472 L 14528,12863 13827,12863 13827,12428 15206,11632 15206,12472 Z"/>
     <path fill="rgb(5,118,189)" stroke="none" d="M 14528,12863 L 13827,13268 13827,12863 14528,12863 Z M 15206,11632 L 15524,11448 15524,12288 15206,12472 15206,11632 Z M 15196,12477 L 14546,12853 13827,12853 13827,12428 15196,11637 15196,12477 Z"/>
     <path fill="rgb(6,118,189)" stroke="none" d="M 14546,12853 L 13827,13268 13827,12853 14546,12853 Z M 15196,11637 L 15524,11448 15524,12288 15196,12477 15196,11637 Z M 15186,12483 L 14563,12843 13827,12843 13827,12428 15186,11643 15186,12483 Z"/>
     <path fill="rgb(8,119,190)" stroke="none" d="M 14563,12843 L 13827,13268 13827,12843 14563,12843 Z M 15186,11643 L 15524,11448 15524,12288 15186,12483 15186,11643 Z M 15176,12489 L 14580,12833 13827,12833 13827,12428 15176,11649 15176,12489 Z"/>
     <path fill="rgb(9,120,190)" stroke="none" d="M 14580,12833 L 13827,13268 13827,12833 14580,12833 Z M 15176,11649 L 15524,11448 15524,12288 15176,12489 15176,11649 Z M 15166,12495 L 14598,12823 13827,12823 13827,12428 15166,11655 15166,12495 Z"/>
     <path fill="rgb(11,121,190)" stroke="none" d="M 14598,12823 L 13827,13268 13827,12823 14598,12823 Z M 15166,11655 L 15524,11448 15524,12288 15166,12495 15166,11655 Z M 15156,12501 L 14615,12813 13827,12813 13827,12428 15156,11661 15156,12501 Z"/>
     <path fill="rgb(12,121,191)" stroke="none" d="M 14615,12813 L 13827,13268 13827,12813 14615,12813 Z M 15156,11661 L 15524,11448 15524,12288 15156,12501 15156,11661 Z M 15146,12506 L 14632,12803 13827,12803 13827,12428 15146,11666 15146,12506 Z"/>
     <path fill="rgb(13,122,191)" stroke="none" d="M 14632,12803 L 13827,13268 13827,12803 14632,12803 Z M 15146,11666 L 15524,11448 15524,12288 15146,12506 15146,11666 Z M 15136,12512 L 14650,12793 13827,12793 13827,12428 15136,11672 15136,12512 Z"/>
     <path fill="rgb(15,123,191)" stroke="none" d="M 14650,12793 L 13827,13268 13827,12793 14650,12793 Z M 15136,11672 L 15524,11448 15524,12288 15136,12512 15136,11672 Z M 15126,12518 L 14667,12783 13827,12783 13827,12428 15126,11678 15126,12518 Z"/>
     <path fill="rgb(16,124,192)" stroke="none" d="M 14667,12783 L 13827,13268 13827,12783 14667,12783 Z M 15126,11678 L 15524,11448 15524,12288 15126,12518 15126,11678 Z M 15116,12524 L 14684,12773 13827,12773 13827,12428 15116,11684 15116,12524 Z"/>
     <path fill="rgb(18,125,192)" stroke="none" d="M 14684,12773 L 13827,13268 13827,12773 14684,12773 Z M 15116,11684 L 15524,11448 15524,12288 15116,12524 15116,11684 Z M 15106,12529 L 14701,12763 13827,12763 13827,12428 15106,11689 15106,12529 Z"/>
     <path fill="rgb(19,125,193)" stroke="none" d="M 14701,12763 L 13827,13268 13827,12763 14701,12763 Z M 15106,11689 L 15524,11448 15524,12288 15106,12529 15106,11689 Z M 15096,12535 L 14719,12753 13827,12753 13827,12428 15096,11695 15096,12535 Z"/>
     <path fill="rgb(20,126,193)" stroke="none" d="M 14719,12753 L 13827,13268 13827,12753 14719,12753 Z M 15096,11695 L 15524,11448 15524,12288 15096,12535 15096,11695 Z M 15086,12541 L 14736,12743 13827,12743 13827,12428 15086,11701 15086,12541 Z"/>
     <path fill="rgb(22,127,193)" stroke="none" d="M 14736,12743 L 13827,13268 13827,12743 14736,12743 Z M 15086,11701 L 15524,11448 15524,12288 15086,12541 15086,11701 Z M 15076,12547 L 14753,12733 13827,12733 13827,12428 15076,11707 15076,12547 Z"/>
     <path fill="rgb(23,128,194)" stroke="none" d="M 14753,12733 L 13827,13268 13827,12733 14753,12733 Z M 15076,11707 L 15524,11448 15524,12288 15076,12547 15076,11707 Z M 15066,12552 L 14771,12723 13827,12723 13827,12428 15066,11712 15066,12552 Z"/>
     <path fill="rgb(25,128,194)" stroke="none" d="M 14771,12723 L 13827,13268 13827,12723 14771,12723 Z M 15066,11712 L 15524,11448 15524,12288 15066,12552 15066,11712 Z M 15056,12558 L 14788,12713 13827,12713 13827,12428 15056,11718 15056,12558 Z"/>
     <path fill="rgb(26,129,194)" stroke="none" d="M 14788,12713 L 13827,13268 13827,12713 14788,12713 Z M 15056,11718 L 15524,11448 15524,12288 15056,12558 15056,11718 Z M 15046,12564 L 14805,12703 13827,12703 13827,12428 15046,11724 15046,12564 Z"/>
     <path fill="rgb(27,130,195)" stroke="none" d="M 14805,12703 L 13827,13268 13827,12703 14805,12703 Z M 15046,11724 L 15524,11448 15524,12288 15046,12564 15046,11724 Z M 15036,12570 L 14823,12693 13827,12693 13827,12428 15036,11730 15036,12570 Z"/>
     <path fill="rgb(29,131,195)" stroke="none" d="M 14823,12693 L 13827,13268 13827,12693 14823,12693 Z M 15036,11730 L 15524,11448 15524,12288 15036,12570 15036,11730 Z M 15026,12576 L 14840,12683 13827,12683 13827,12428 15026,11736 15026,12576 Z"/>
     <path fill="rgb(30,131,195)" stroke="none" d="M 14840,12683 L 13827,13268 13827,12683 14840,12683 Z M 15026,11736 L 15524,11448 15524,12288 15026,12576 15026,11736 Z M 15016,12581 L 14857,12673 13827,12673 13827,12428 15016,11741 15016,12581 Z"/>
     <path fill="rgb(32,132,196)" stroke="none" d="M 14857,12673 L 13827,13268 13827,12673 14857,12673 Z M 15016,11741 L 15524,11448 15524,12288 15016,12581 15016,11741 Z M 15006,12587 L 14875,12663 13827,12663 13827,12428 15006,11747 15006,12587 Z"/>
     <path fill="rgb(33,133,196)" stroke="none" d="M 14875,12663 L 13827,13268 13827,12663 14875,12663 Z M 15006,11747 L 15524,11448 15524,12288 15006,12587 15006,11747 Z M 14996,12593 L 14892,12653 13827,12653 13827,12428 14996,11753 14996,12593 Z"/>
     <path fill="rgb(34,134,197)" stroke="none" d="M 14892,12653 L 13827,13268 13827,12653 14892,12653 Z M 14996,11753 L 15524,11448 15524,12288 14996,12593 14996,11753 Z M 14986,12599 L 14909,12643 13827,12643 13827,12428 14986,11759 14986,12599 Z"/>
     <path fill="rgb(36,135,197)" stroke="none" d="M 14909,12643 L 13827,13268 13827,12643 14909,12643 Z M 14986,11759 L 15524,11448 15524,12288 14986,12599 14986,11759 Z M 14976,12604 L 14927,12633 13827,12633 13827,12428 14976,11764 14976,12604 Z"/>
     <path fill="rgb(37,135,197)" stroke="none" d="M 14927,12633 L 13827,13268 13827,12633 14927,12633 Z M 14976,11764 L 15524,11448 15524,12288 14976,12604 14976,11764 Z M 14966,12610 L 14944,12623 13827,12623 13827,12428 14966,11770 14966,12610 Z"/>
     <path fill="rgb(39,136,198)" stroke="none" d="M 14944,12623 L 13827,13268 13827,12623 14944,12623 Z M 14966,11770 L 15524,11448 15524,12288 14966,12610 14966,11770 Z M 14956,12613 L 13827,12613 13827,12428 14956,11776 14956,12613 Z"/>
     <path fill="rgb(40,137,198)" stroke="none" d="M 14956,12613 L 14956,11776 15524,11448 15524,12288 13827,13268 13827,12613 14956,12613 Z M 14946,12603 L 13827,12603 13827,12428 14946,11782 14946,12603 Z"/>
     <path fill="rgb(41,138,198)" stroke="none" d="M 14946,12603 L 14946,11782 15524,11448 15524,12288 13827,13268 13827,12603 14946,12603 Z M 14936,12593 L 13827,12593 13827,12428 14936,11788 14936,12593 Z"/>
     <path fill="rgb(43,138,199)" stroke="none" d="M 14936,12593 L 14936,11788 15524,11448 15524,12288 13827,13268 13827,12593 14936,12593 Z M 14926,12583 L 13827,12583 13827,12428 14926,11793 14926,12583 Z"/>
     <path fill="rgb(44,139,199)" stroke="none" d="M 14926,12583 L 14926,11793 15524,11448 15524,12288 13827,13268 13827,12583 14926,12583 Z M 14916,12573 L 13827,12573 13827,12428 14916,11799 14916,12573 Z"/>
     <path fill="rgb(46,140,199)" stroke="none" d="M 14916,12573 L 14916,11799 15524,11448 15524,12288 13827,13268 13827,12573 14916,12573 Z M 14906,12563 L 13827,12563 13827,12428 14906,11805 14906,12563 Z"/>
     <path fill="rgb(47,141,200)" stroke="none" d="M 14906,12563 L 14906,11805 15524,11448 15524,12288 13827,13268 13827,12563 14906,12563 Z M 14896,12553 L 13827,12553 13827,12428 14896,11811 14896,12553 Z"/>
     <path fill="rgb(48,141,200)" stroke="none" d="M 14896,12553 L 14896,11811 15524,11448 15524,12288 13827,13268 13827,12553 14896,12553 Z M 14886,12543 L 13827,12543 13827,12428 14886,11816 14886,12543 Z"/>
     <path fill="rgb(50,142,201)" stroke="none" d="M 14886,12543 L 14886,11816 15524,11448 15524,12288 13827,13268 13827,12543 14886,12543 Z M 14876,12533 L 13827,12533 13827,12428 14876,11822 14876,12533 Z"/>
     <path fill="rgb(51,143,201)" stroke="none" d="M 14876,12533 L 14876,11822 15524,11448 15524,12288 13827,13268 13827,12533 14876,12533 Z M 14866,12523 L 13827,12523 13827,12428 14866,11828 14866,12523 Z"/>
     <path fill="rgb(53,144,201)" stroke="none" d="M 14866,12523 L 14866,11828 15524,11448 15524,12288 13827,13268 13827,12523 14866,12523 Z M 14856,12513 L 13827,12513 13827,12428 14856,11834 14856,12513 Z"/>
     <path fill="rgb(54,145,202)" stroke="none" d="M 14856,12513 L 14856,11834 15524,11448 15524,12288 13827,13268 13827,12513 14856,12513 Z M 14846,12503 L 13827,12503 13827,12428 14846,11840 14846,12503 Z"/>
     <path fill="rgb(55,145,202)" stroke="none" d="M 14846,12503 L 14846,11840 15524,11448 15524,12288 13827,13268 13827,12503 14846,12503 Z M 14836,12493 L 13835,12493 13835,12423 14836,11845 14836,12493 Z"/>
     <path fill="rgb(57,146,202)" stroke="none" d="M 13835,12493 L 14836,12493 14836,11845 15524,11448 15524,12288 13827,13268 13827,12428 13835,12423 13835,12493 Z M 14826,12483 L 13845,12483 13845,12418 14826,11851 14826,12483 Z"/>
     <path fill="rgb(58,147,203)" stroke="none" d="M 13845,12483 L 14826,12483 14826,11851 15524,11448 15524,12288 13827,13268 13827,12428 13845,12418 13845,12483 Z M 14816,12473 L 13855,12473 13855,12412 14816,11857 14816,12473 Z"/>
     <path fill="rgb(60,148,203)" stroke="none" d="M 13855,12473 L 14816,12473 14816,11857 15524,11448 15524,12288 13827,13268 13827,12428 13855,12412 13855,12473 Z M 14806,12463 L 13865,12463 13865,12406 14806,11863 14806,12463 Z"/>
     <path fill="rgb(61,148,203)" stroke="none" d="M 13865,12463 L 14806,12463 14806,11863 15524,11448 15524,12288 13827,13268 13827,12428 13865,12406 13865,12463 Z M 14796,12453 L 13875,12453 13875,12400 14796,11868 14796,12453 Z"/>
     <path fill="rgb(62,149,204)" stroke="none" d="M 13875,12453 L 14796,12453 14796,11868 15524,11448 15524,12288 13827,13268 13827,12428 13875,12400 13875,12453 Z M 14786,12443 L 13885,12443 13885,12395 14786,11874 14786,12443 Z"/>
     <path fill="rgb(64,150,204)" stroke="none" d="M 13885,12443 L 14786,12443 14786,11874 15524,11448 15524,12288 13827,13268 13827,12428 13885,12395 13885,12443 Z M 14776,12433 L 13895,12433 13895,12389 14776,11880 14776,12433 Z"/>
     <path fill="rgb(65,151,205)" stroke="none" d="M 13895,12433 L 14776,12433 14776,11880 15524,11448 15524,12288 13827,13268 13827,12428 13895,12389 13895,12433 Z M 14766,12423 L 13905,12423 13905,12383 14766,11886 14766,12423 Z"/>
     <path fill="rgb(66,151,205)" stroke="none" d="M 13905,12423 L 14766,12423 14766,11886 15524,11448 15524,12288 13827,13268 13827,12428 13905,12383 13905,12423 Z M 14756,12413 L 13915,12413 13915,12377 14756,11892 14756,12413 Z"/>
     <path fill="rgb(68,152,205)" stroke="none" d="M 13915,12413 L 14756,12413 14756,11892 15524,11448 15524,12288 13827,13268 13827,12428 13915,12377 13915,12413 Z M 14746,12403 L 13925,12403 13925,12371 14746,11897 14746,12403 Z"/>
     <path fill="rgb(69,153,206)" stroke="none" d="M 13925,12403 L 14746,12403 14746,11897 15524,11448 15524,12288 13827,13268 13827,12428 13925,12371 13925,12403 Z M 14736,12393 L 13935,12393 13935,12366 14736,11903 14736,12393 Z"/>
     <path fill="rgb(71,154,206)" stroke="none" d="M 13935,12393 L 14736,12393 14736,11903 15524,11448 15524,12288 13827,13268 13827,12428 13935,12366 13935,12393 Z M 14726,12383 L 13945,12383 13945,12360 14726,11909 14726,12383 Z"/>
     <path fill="rgb(72,155,206)" stroke="none" d="M 13945,12383 L 14726,12383 14726,11909 15524,11448 15524,12288 13827,13268 13827,12428 13945,12360 13945,12383 Z M 14716,12373 L 13955,12373 13955,12354 14716,11915 14716,12373 Z"/>
     <path fill="rgb(73,155,207)" stroke="none" d="M 13955,12373 L 14716,12373 14716,11915 15524,11448 15524,12288 13827,13268 13827,12428 13955,12354 13955,12373 Z M 14706,12363 L 13965,12363 13965,12348 14706,11920 14706,12363 Z"/>
     <path fill="rgb(75,156,207)" stroke="none" d="M 13965,12363 L 14706,12363 14706,11920 15524,11448 15524,12288 13827,13268 13827,12428 13965,12348 13965,12363 Z M 14696,12353 L 13975,12353 13975,12343 14696,11926 14696,12353 Z"/>
     <path fill="rgb(76,157,207)" stroke="none" d="M 13975,12353 L 14696,12353 14696,11926 15524,11448 15524,12288 13827,13268 13827,12428 13975,12343 13975,12353 Z M 14686,12343 L 13985,12343 13985,12337 14686,11932 14686,12343 Z"/>
     <path fill="rgb(78,158,208)" stroke="none" d="M 13985,12343 L 14686,12343 14686,11932 15524,11448 15524,12288 13827,13268 13827,12428 13985,12337 13985,12343 Z M 14676,12333 L 13995,12333 13995,12331 14676,11938 14676,12333 Z"/>
     <path fill="rgb(79,158,208)" stroke="none" d="M 13995,12333 L 14676,12333 14676,11938 15524,11448 15524,12288 13827,13268 13827,12428 13995,12331 13995,12333 Z M 14666,12323 L 14009,12323 14666,11943 14666,12323 Z"/>
     <path fill="rgb(80,159,209)" stroke="none" d="M 14666,12323 L 14666,11943 15524,11448 15524,12288 13827,13268 13827,12428 14009,12323 14666,12323 Z M 14656,12313 L 14026,12313 14656,11949 14656,12313 Z"/>
     <path fill="rgb(82,160,209)" stroke="none" d="M 14656,12313 L 14656,11949 15524,11448 15524,12288 13827,13268 13827,12428 14026,12313 14656,12313 Z M 14646,12303 L 14043,12303 14646,11955 14646,12303 Z"/>
     <path fill="rgb(83,161,209)" stroke="none" d="M 14646,12303 L 14646,11955 15524,11448 15524,12288 13827,13268 13827,12428 14043,12303 14646,12303 Z M 14635,12292 L 14063,12292 14635,11961 14635,12292 Z"/>
     <path fill="rgb(85,161,210)" stroke="none" d="M 14635,12292 L 14635,11961 15524,11448 15524,12288 13827,13268 13827,12428 14063,12292 14635,12292 Z M 14625,12282 L 14080,12282 14625,11967 14625,12282 Z"/>
     <path fill="rgb(86,162,210)" stroke="none" d="M 14625,12282 L 14625,11967 15524,11448 15524,12288 13827,13268 13827,12428 14080,12282 14625,12282 Z M 14615,12272 L 14097,12272 14615,11973 14615,12272 Z"/>
     <path fill="rgb(87,163,210)" stroke="none" d="M 14615,12272 L 14615,11973 15524,11448 15524,12288 13827,13268 13827,12428 14097,12272 14615,12272 Z M 14605,12262 L 14114,12262 14605,11979 14605,12262 Z"/>
     <path fill="rgb(89,164,211)" stroke="none" d="M 14605,12262 L 14605,11979 15524,11448 15524,12288 13827,13268 13827,12428 14114,12262 14605,12262 Z M 14595,12252 L 14132,12252 14595,11984 14595,12252 Z"/>
     <path fill="rgb(90,165,211)" stroke="none" d="M 14595,12252 L 14595,11984 15524,11448 15524,12288 13827,13268 13827,12428 14132,12252 14595,12252 Z M 14585,12242 L 14149,12242 14585,11990 14585,12242 Z"/>
     <path fill="rgb(92,165,211)" stroke="none" d="M 14585,12242 L 14585,11990 15524,11448 15524,12288 13827,13268 13827,12428 14149,12242 14585,12242 Z M 14575,12232 L 14166,12232 14575,11996 14575,12232 Z"/>
     <path fill="rgb(93,166,212)" stroke="none" d="M 14575,12232 L 14575,11996 15524,11448 15524,12288 13827,13268 13827,12428 14166,12232 14575,12232 Z M 14565,12222 L 14184,12222 14565,12002 14565,12222 Z"/>
     <path fill="rgb(94,167,212)" stroke="none" d="M 14565,12222 L 14565,12002 15524,11448 15524,12288 13827,13268 13827,12428 14184,12222 14565,12222 Z M 14555,12212 L 14201,12212 14555,12008 14555,12212 Z"/>
     <path fill="rgb(96,168,213)" stroke="none" d="M 14555,12212 L 14555,12008 15524,11448 15524,12288 13827,13268 13827,12428 14201,12212 14555,12212 Z M 14545,12202 L 14218,12202 14545,12013 14545,12202 Z"/>
     <path fill="rgb(97,168,213)" stroke="none" d="M 14545,12202 L 14545,12013 15524,11448 15524,12288 13827,13268 13827,12428 14218,12202 14545,12202 Z M 14535,12192 L 14236,12192 14535,12019 14535,12192 Z"/>
     <path fill="rgb(99,169,213)" stroke="none" d="M 14535,12192 L 14535,12019 15524,11448 15524,12288 13827,13268 13827,12428 14236,12192 14535,12192 Z M 14525,12182 L 14253,12182 14525,12025 14525,12182 Z"/>
     <path fill="rgb(100,170,214)" stroke="none" d="M 14525,12182 L 14525,12025 15524,11448 15524,12288 13827,13268 13827,12428 14253,12182 14525,12182 Z M 14515,12172 L 14270,12172 14515,12031 14515,12172 Z"/>
     <path fill="rgb(101,171,214)" stroke="none" d="M 14515,12172 L 14515,12031 15524,11448 15524,12288 13827,13268 13827,12428 14270,12172 14515,12172 Z M 14505,12162 L 14288,12162 14505,12036 14505,12162 Z"/>
     <path fill="rgb(103,171,214)" stroke="none" d="M 14505,12162 L 14505,12036 15524,11448 15524,12288 13827,13268 13827,12428 14288,12162 14505,12162 Z M 14495,12152 L 14305,12152 14495,12042 14495,12152 Z"/>
     <path fill="rgb(104,172,215)" stroke="none" d="M 14495,12152 L 14495,12042 15524,11448 15524,12288 13827,13268 13827,12428 14305,12152 14495,12152 Z M 14485,12142 L 14322,12142 14485,12048 14485,12142 Z"/>
     <path fill="rgb(106,173,215)" stroke="none" d="M 14485,12142 L 14485,12048 15524,11448 15524,12288 13827,13268 13827,12428 14322,12142 14485,12142 Z M 14475,12132 L 14340,12132 14475,12054 14475,12132 Z"/>
     <path fill="rgb(107,174,215)" stroke="none" d="M 14475,12132 L 14475,12054 15524,11448 15524,12288 13827,13268 13827,12428 14340,12132 14475,12132 Z M 14465,12122 L 14357,12122 14465,12060 14465,12122 Z"/>
     <path fill="rgb(108,175,216)" stroke="none" d="M 14465,12122 L 14465,12060 15524,11448 15524,12288 13827,13268 13827,12428 14357,12122 14465,12122 Z M 14455,12112 L 14374,12112 14455,12065 14455,12112 Z"/>
     <path fill="rgb(110,175,216)" stroke="none" d="M 14455,12112 L 14455,12065 15524,11448 15524,12288 13827,13268 13827,12428 14374,12112 14455,12112 Z M 14445,12102 L 14392,12102 14445,12071 14445,12102 Z"/>
     <path fill="rgb(111,176,217)" stroke="none" d="M 14445,12102 L 14445,12071 15524,11448 15524,12288 13827,13268 13827,12428 14392,12102 14445,12102 Z M 14435,12092 L 14409,12092 14435,12077 14435,12092 Z"/>
     <path fill="rgb(113,177,217)" stroke="none" d="M 14435,12092 L 14435,12077 15524,11448 15524,12288 13827,13268 13827,12428 14409,12092 14435,12092 Z"/>
     <path fill="rgb(114,178,217)" stroke="none" d="M 13827,13268 L 13827,12428 15524,11448 15524,12288 13827,13268 Z"/>
     <path fill="rgb(115,178,218)" stroke="none" d="M 13827,13268 L 13827,12428 15524,11448 15524,12288 13827,13268 Z"/>
     <path fill="rgb(117,179,218)" stroke="none" d="M 13827,13268 L 13827,12428 15524,11448 15524,12288 13827,13268 Z"/>
     <path fill="rgb(118,180,218)" stroke="none" d="M 13827,13268 L 13827,12428 15524,11448 15524,12288 13827,13268 Z"/>
     <path fill="rgb(120,181,219)" stroke="none" d="M 13827,13268 L 13827,12428 15524,11448 15524,12288 13827,13268 Z"/>
     <path fill="rgb(121,181,219)" stroke="none" d="M 13827,13268 L 13827,12428 15524,11448 15524,12288 13827,13268 Z"/>
     <path fill="rgb(122,182,219)" stroke="none" d="M 13827,13268 L 13827,12428 15524,11448 15524,12288 13827,13268 Z"/>
     <path fill="rgb(124,183,220)" stroke="none" d="M 13827,13268 L 13827,12428 15524,11448 15524,12288 13827,13268 Z"/>
     <path fill="rgb(127,185,221)" stroke="none" d="M 13827,13268 L 13827,12428 15524,11448 15524,12288 13827,13268 Z"/>
     <path fill="none" stroke="rgb(255,255,255)" id="Drawing_3_0" stroke-width="40" stroke-linejoin="round" d="M 13827,13268 L 13827,12428 15524,11448 15524,12288 13827,13268 Z"/>
    </g>
    <g>
     <defs>
      <linearGradient id="Gradient_1092" gradientUnits="userSpaceOnUse" x1="13826" y1="10468" x2="13826" y2="12428">
       <stop offset="0.1" stop-color="rgb(0,115,188)"/>
       <stop offset="1" stop-color="rgb(127,185,221)"/>
      </linearGradient>
     </defs>
     <path fill="url(#Gradient_1092)" stroke="rgb(255,255,255)" id="Drawing_4_0" stroke-width="40" stroke-linejoin="round" d="M 13827,12428 L 12129,11448 13827,10468 15524,11448 13827,12428 Z"/>
    </g>
    <g>
     <path fill="none" stroke="rgb(0,0,0)" id="Drawing_5_0" stroke-width="40" stroke-linejoin="round" d="M 12129,12288 L 12129,11448 13827,10468 15524,11448 15524,12288 13827,13268 12129,12288 Z"/>
    </g>
    <g>
     <path fill="rgb(255,255,255)" stroke="none" d="M 14917,11518 L 14310,11868 14189,11798 14796,11448 14675,11378 15038,11378 15038,11588 14917,11518 Z"/>
     <path fill="none" stroke="rgb(255,255,255)" id="Drawing_6_0" stroke-width="40" stroke-linejoin="round" d="M 14917,11518 L 14310,11868 14189,11798 14796,11448 14675,11378 15038,11378 15038,11588 14917,11518 Z"/>
    </g>
    <g>
     <path fill="rgb(255,255,255)" stroke="none" d="M 13584,11868 L 13705,11938 13341,11938 13341,11728 13462,11798 14068,11448 14189,11518 13584,11868 Z"/>
     <path fill="none" stroke="rgb(255,255,255)" id="Drawing_7_0" stroke-width="40" stroke-linejoin="round" d="M 13584,11868 L 13705,11938 13341,11938 13341,11728 13462,11798 14068,11448 14189,11518 13584,11868 Z"/>
    </g>
    <g>
     <path fill="rgb(255,255,255)" stroke="none" d="M 14189,11098 L 13583,11448 13462,11378 14068,11028 13947,10958 14310,10958 14310,11168 14189,11098 Z"/>
     <path fill="none" stroke="rgb(255,255,255)" id="Drawing_8_0" stroke-width="40" stroke-linejoin="round" d="M 14189,11098 L 13583,11448 13462,11378 14068,11028 13947,10958 14310,10958 14310,11168 14189,11098 Z"/>
    </g>
    <g>
     <path fill="rgb(255,255,255)" stroke="none" d="M 12856,11448 L 12977,11518 12613,11518 12613,11308 12734,11378 13340,11028 13461,11098 12856,11448 Z"/>
     <path fill="none" stroke="rgb(255,255,255)" id="Drawing_9_0" stroke-width="40" stroke-linejoin="round" d="M 12856,11448 L 12977,11518 12613,11518 12613,11308 12734,11378 13340,11028 13461,11098 12856,11448 Z"/>
    </g>
   </g>
  </g>
 </g>
</svg>