<?xml version="1.0" encoding="UTF-8"?>

<svg version="1.2" baseProfile="tiny" width="36.58mm" height="28.4mm" viewBox="14823 3387 3658 2840" preserveAspectRatio="xMidYMid" fill-rule="evenodd" stroke-width="28.222" stroke-linejoin="round" xmlns="http://www.w3.org/2000/svg" xmlns:xlink="http://www.w3.org/1999/xlink" xml:space="preserve">
 <g visibility="visible" id="Slide_1">
  <g id="DrawingGroup_1">
   <g>
    <path fill="rgb(221,221,221)" stroke="none" d="M 16629,6137 C 17104,6137 18327,5577 18448,5367 18569,5157 18327,4947 18206,4947 18206,5247 16629,5637 16629,6137 Z"/>
    <path fill="none" stroke="rgb(221,221,221)" id="Drawing_1_0" stroke-linejoin="round" d="M 16629,6137 C 17104,6137 18327,5577 18448,5367 18569,5157 18327,4947 18206,4947 18206,5247 16629,5637 16629,6137 Z"/>
   </g>
   <g id="DrawingGroup_2">
    <g>
     <defs>
      <linearGradient id="Gradient_1103" gradientUnits="userSpaceOnUse" x1="14841" y1="5296" x2="16543" y2="5298">
       <stop offset="0.1" stop-color="rgb(0,115,188)"/>
       <stop offset="1" stop-color="rgb(127,185,221)"/>
      </linearGradient>
     </defs>
     <path fill="url(#Gradient_1103)" stroke="rgb(255,255,255)" id="Drawing_2_0" stroke-width="40" stroke-linejoin="round" d="M 14843,5227 L 14843,4387 16541,5367 16541,6207 14843,5227 Z"/>
    </g>
    <g>
     <path fill="rgb(0,115,188)" stroke="none" d="M 17950,5393 L 17190,5832 16541,5832 16541,5367 17950,4553 17950,5393 Z"/>
     <path fill="rgb(1,115,188)" stroke="none" d="M 17190,5832 L 16541,6207 16541,5832 17190,5832 Z M 17950,4553 L 18238,4387 18238,5227 17950,5393 17950,4553 Z M 17940,5399 L 17208,5822 16541,5822 16541,5367 17940,4559 17940,5399 Z"/>
     <path fill="rgb(2,116,188)" stroke="none" d="M 17208,5822 L 16541,6207 16541,5822 17208,5822 Z M 17940,4559 L 18238,4387 18238,5227 17940,5399 17940,4559 Z M 17930,5405 L 17225,5812 16541,5812 16541,5367 17930,4565 17930,5405 Z"/>
     <path fill="rgb(4,117,189)" stroke="none" d="M 17225,5812 L 16541,6207 16541,5812 17225,5812 Z M 17930,4565 L 18238,4387 18238,5227 17930,5405 17930,4565 Z M 17920,5411 L 17242,5802 16541,5802 16541,5367 17920,4571 17920,5411 Z"/>
     <path fill="rgb(5,118,189)" stroke="none" d="M 17242,5802 L 16541,6207 16541,5802 17242,5802 Z M 17920,4571 L 18238,4387 18238,5227 17920,5411 17920,4571 Z M 17910,5416 L 17260,5792 16541,5792 16541,5367 17910,4576 17910,5416 Z"/>
     <path fill="rgb(6,118,189)" stroke="none" d="M 17260,5792 L 16541,6207 16541,5792 17260,5792 Z M 17910,4576 L 18238,4387 18238,5227 17910,5416 17910,4576 Z M 17900,5422 L 17277,5782 16541,5782 16541,5367 17900,4582 17900,5422 Z"/>
     <path fill="rgb(8,119,190)" stroke="none" d="M 17277,5782 L 16541,6207 16541,5782 17277,5782 Z M 17900,4582 L 18238,4387 18238,5227 17900,5422 17900,4582 Z M 17890,5428 L 17294,5772 16541,5772 16541,5367 17890,4588 17890,5428 Z"/>
     <path fill="rgb(9,120,190)" stroke="none" d="M 17294,5772 L 16541,6207 16541,5772 17294,5772 Z M 17890,4588 L 18238,4387 18238,5227 17890,5428 17890,4588 Z M 17880,5434 L 17312,5762 16541,5762 16541,5367 17880,4594 17880,5434 Z"/>
     <path fill="rgb(11,121,190)" stroke="none" d="M 17312,5762 L 16541,6207 16541,5762 17312,5762 Z M 17880,4594 L 18238,4387 18238,5227 17880,5434 17880,4594 Z M 17870,5440 L 17329,5752 16541,5752 16541,5367 17870,4600 17870,5440 Z"/>
     <path fill="rgb(12,121,191)" stroke="none" d="M 17329,5752 L 16541,6207 16541,5752 17329,5752 Z M 17870,4600 L 18238,4387 18238,5227 17870,5440 17870,4600 Z M 17860,5445 L 17346,5742 16541,5742 16541,5367 17860,4605 17860,5445 Z"/>
     <path fill="rgb(13,122,191)" stroke="none" d="M 17346,5742 L 16541,6207 16541,5742 17346,5742 Z M 17860,4605 L 18238,4387 18238,5227 17860,5445 17860,4605 Z M 17850,5451 L 17364,5732 16541,5732 16541,5367 17850,4611 17850,5451 Z"/>
     <path fill="rgb(15,123,191)" stroke="none" d="M 17364,5732 L 16541,6207 16541,5732 17364,5732 Z M 17850,4611 L 18238,4387 18238,5227 17850,5451 17850,4611 Z M 17840,5457 L 17381,5722 16541,5722 16541,5367 17840,4617 17840,5457 Z"/>
     <path fill="rgb(16,124,192)" stroke="none" d="M 17381,5722 L 16541,6207 16541,5722 17381,5722 Z M 17840,4617 L 18238,4387 18238,5227 17840,5457 17840,4617 Z M 17830,5463 L 17398,5712 16541,5712 16541,5367 17830,4623 17830,5463 Z"/>
     <path fill="rgb(18,125,192)" stroke="none" d="M 17398,5712 L 16541,6207 16541,5712 17398,5712 Z M 17830,4623 L 18238,4387 18238,5227 17830,5463 17830,4623 Z M 17820,5468 L 17415,5702 16541,5702 16541,5367 17820,4628 17820,5468 Z"/>
     <path fill="rgb(19,125,193)" stroke="none" d="M 17415,5702 L 16541,6207 16541,5702 17415,5702 Z M 17820,4628 L 18238,4387 18238,5227 17820,5468 17820,4628 Z M 17810,5474 L 17433,5692 16541,5692 16541,5367 17810,4634 17810,5474 Z"/>
     <path fill="rgb(20,126,193)" stroke="none" d="M 17433,5692 L 16541,6207 16541,5692 17433,5692 Z M 17810,4634 L 18238,4387 18238,5227 17810,5474 17810,4634 Z M 17800,5480 L 17450,5682 16541,5682 16541,5367 17800,4640 17800,5480 Z"/>
     <path fill="rgb(22,127,193)" stroke="none" d="M 17450,5682 L 16541,6207 16541,5682 17450,5682 Z M 17800,4640 L 18238,4387 18238,5227 17800,5480 17800,4640 Z M 17790,5486 L 17467,5672 16541,5672 16541,5367 17790,4646 17790,5486 Z"/>
     <path fill="rgb(23,128,194)" stroke="none" d="M 17467,5672 L 16541,6207 16541,5672 17467,5672 Z M 17790,4646 L 18238,4387 18238,5227 17790,5486 17790,4646 Z M 17780,5491 L 17485,5662 16541,5662 16541,5367 17780,4651 17780,5491 Z"/>
     <path fill="rgb(25,128,194)" stroke="none" d="M 17485,5662 L 16541,6207 16541,5662 17485,5662 Z M 17780,4651 L 18238,4387 18238,5227 17780,5491 17780,4651 Z M 17770,5497 L 17502,5652 16541,5652 16541,5367 17770,4657 17770,5497 Z"/>
     <path fill="rgb(26,129,194)" stroke="none" d="M 17502,5652 L 16541,6207 16541,5652 17502,5652 Z M 17770,4657 L 18238,4387 18238,5227 17770,5497 17770,4657 Z M 17760,5503 L 17519,5642 16541,5642 16541,5367 17760,4663 17760,5503 Z"/>
     <path fill="rgb(27,130,195)" stroke="none" d="M 17519,5642 L 16541,6207 16541,5642 17519,5642 Z M 17760,4663 L 18238,4387 18238,5227 17760,5503 17760,4663 Z M 17750,5509 L 17537,5632 16541,5632 16541,5367 17750,4669 17750,5509 Z"/>
     <path fill="rgb(29,131,195)" stroke="none" d="M 17537,5632 L 16541,6207 16541,5632 17537,5632 Z M 17750,4669 L 18238,4387 18238,5227 17750,5509 17750,4669 Z M 17740,5515 L 17554,5622 16541,5622 16541,5367 17740,4675 17740,5515 Z"/>
     <path fill="rgb(30,131,195)" stroke="none" d="M 17554,5622 L 16541,6207 16541,5622 17554,5622 Z M 17740,4675 L 18238,4387 18238,5227 17740,5515 17740,4675 Z M 17730,5520 L 17571,5612 16541,5612 16541,5367 17730,4680 17730,5520 Z"/>
     <path fill="rgb(32,132,196)" stroke="none" d="M 17571,5612 L 16541,6207 16541,5612 17571,5612 Z M 17730,4680 L 18238,4387 18238,5227 17730,5520 17730,4680 Z M 17720,5526 L 17589,5602 16541,5602 16541,5367 17720,4686 17720,5526 Z"/>
     <path fill="rgb(33,133,196)" stroke="none" d="M 17589,5602 L 16541,6207 16541,5602 17589,5602 Z M 17720,4686 L 18238,4387 18238,5227 17720,5526 17720,4686 Z M 17710,5532 L 17606,5592 16541,5592 16541,5367 17710,4692 17710,5532 Z"/>
     <path fill="rgb(34,134,197)" stroke="none" d="M 17606,5592 L 16541,6207 16541,5592 17606,5592 Z M 17710,4692 L 18238,4387 18238,5227 17710,5532 17710,4692 Z M 17700,5538 L 17623,5582 16541,5582 16541,5367 17700,4698 17700,5538 Z"/>
     <path fill="rgb(36,135,197)" stroke="none" d="M 17623,5582 L 16541,6207 16541,5582 17623,5582 Z M 17700,4698 L 18238,4387 18238,5227 17700,5538 17700,4698 Z M 17690,5543 L 17641,5572 16541,5572 16541,5367 17690,4703 17690,5543 Z"/>
     <path fill="rgb(37,135,197)" stroke="none" d="M 17641,5572 L 16541,6207 16541,5572 17641,5572 Z M 17690,4703 L 18238,4387 18238,5227 17690,5543 17690,4703 Z M 17680,5549 L 17658,5562 16541,5562 16541,5367 17680,4709 17680,5549 Z"/>
     <path fill="rgb(39,136,198)" stroke="none" d="M 17658,5562 L 16541,6207 16541,5562 17658,5562 Z M 17680,4709 L 18238,4387 18238,5227 17680,5549 17680,4709 Z M 17670,5552 L 16541,5552 16541,5367 17670,4715 17670,5552 Z"/>
     <path fill="rgb(40,137,198)" stroke="none" d="M 17670,5552 L 17670,4715 18238,4387 18238,5227 16541,6207 16541,5552 17670,5552 Z M 17660,5542 L 16541,5542 16541,5367 17660,4721 17660,5542 Z"/>
     <path fill="rgb(41,138,198)" stroke="none" d="M 17660,5542 L 17660,4721 18238,4387 18238,5227 16541,6207 16541,5542 17660,5542 Z M 17650,5532 L 16541,5532 16541,5367 17650,4727 17650,5532 Z"/>
     <path fill="rgb(43,138,199)" stroke="none" d="M 17650,5532 L 17650,4727 18238,4387 18238,5227 16541,6207 16541,5532 17650,5532 Z M 17640,5522 L 16541,5522 16541,5367 17640,4732 17640,5522 Z"/>
     <path fill="rgb(44,139,199)" stroke="none" d="M 17640,5522 L 17640,4732 18238,4387 18238,5227 16541,6207 16541,5522 17640,5522 Z M 17630,5512 L 16541,5512 16541,5367 17630,4738 17630,5512 Z"/>
     <path fill="rgb(46,140,199)" stroke="none" d="M 17630,5512 L 17630,4738 18238,4387 18238,5227 16541,6207 16541,5512 17630,5512 Z M 17620,5502 L 16541,5502 16541,5367 17620,4744 17620,5502 Z"/>
     <path fill="rgb(47,141,200)" stroke="none" d="M 17620,5502 L 17620,4744 18238,4387 18238,5227 16541,6207 16541,5502 17620,5502 Z M 17610,5492 L 16541,5492 16541,5367 17610,4750 17610,5492 Z"/>
     <path fill="rgb(48,141,200)" stroke="none" d="M 17610,5492 L 17610,4750 18238,4387 18238,5227 16541,6207 16541,5492 17610,5492 Z M 17600,5482 L 16541,5482 16541,5367 17600,4755 17600,5482 Z"/>
     <path fill="rgb(50,142,201)" stroke="none" d="M 17600,5482 L 17600,4755 18238,4387 18238,5227 16541,6207 16541,5482 17600,5482 Z M 17590,5472 L 16541,5472 16541,5367 17590,4761 17590,5472 Z"/>
     <path fill="rgb(51,143,201)" stroke="none" d="M 17590,5472 L 17590,4761 18238,4387 18238,5227 16541,6207 16541,5472 17590,5472 Z M 17580,5462 L 16541,5462 16541,5367 17580,4767 17580,5462 Z"/>
     <path fill="rgb(53,144,201)" stroke="none" d="M 17580,5462 L 17580,4767 18238,4387 18238,5227 16541,6207 16541,5462 17580,5462 Z M 17570,5452 L 16541,5452 16541,5367 17570,4773 17570,5452 Z"/>
     <path fill="rgb(54,145,202)" stroke="none" d="M 17570,5452 L 17570,4773 18238,4387 18238,5227 16541,6207 16541,5452 17570,5452 Z M 17560,5442 L 16541,5442 16541,5367 17560,4779 17560,5442 Z"/>
     <path fill="rgb(55,145,202)" stroke="none" d="M 17560,5442 L 17560,4779 18238,4387 18238,5227 16541,6207 16541,5442 17560,5442 Z M 17550,5432 L 16549,5432 16549,5362 17550,4784 17550,5432 Z"/>
     <path fill="rgb(57,146,202)" stroke="none" d="M 16549,5432 L 17550,5432 17550,4784 18238,4387 18238,5227 16541,6207 16541,5367 16549,5362 16549,5432 Z M 17540,5422 L 16559,5422 16559,5357 17540,4790 17540,5422 Z"/>
     <path fill="rgb(58,147,203)" stroke="none" d="M 16559,5422 L 17540,5422 17540,4790 18238,4387 18238,5227 16541,6207 16541,5367 16559,5357 16559,5422 Z M 17530,5412 L 16569,5412 16569,5351 17530,4796 17530,5412 Z"/>
     <path fill="rgb(60,148,203)" stroke="none" d="M 16569,5412 L 17530,5412 17530,4796 18238,4387 18238,5227 16541,6207 16541,5367 16569,5351 16569,5412 Z M 17520,5402 L 16579,5402 16579,5345 17520,4802 17520,5402 Z"/>
     <path fill="rgb(61,148,203)" stroke="none" d="M 16579,5402 L 17520,5402 17520,4802 18238,4387 18238,5227 16541,6207 16541,5367 16579,5345 16579,5402 Z M 17510,5392 L 16589,5392 16589,5339 17510,4807 17510,5392 Z"/>
     <path fill="rgb(62,149,204)" stroke="none" d="M 16589,5392 L 17510,5392 17510,4807 18238,4387 18238,5227 16541,6207 16541,5367 16589,5339 16589,5392 Z M 17500,5382 L 16599,5382 16599,5334 17500,4813 17500,5382 Z"/>
     <path fill="rgb(64,150,204)" stroke="none" d="M 16599,5382 L 17500,5382 17500,4813 18238,4387 18238,5227 16541,6207 16541,5367 16599,5334 16599,5382 Z M 17490,5372 L 16609,5372 16609,5328 17490,4819 17490,5372 Z"/>
     <path fill="rgb(65,151,205)" stroke="none" d="M 16609,5372 L 17490,5372 17490,4819 18238,4387 18238,5227 16541,6207 16541,5367 16609,5328 16609,5372 Z M 17480,5362 L 16619,5362 16619,5322 17480,4825 17480,5362 Z"/>
     <path fill="rgb(66,151,205)" stroke="none" d="M 16619,5362 L 17480,5362 17480,4825 18238,4387 18238,5227 16541,6207 16541,5367 16619,5322 16619,5362 Z M 17470,5352 L 16629,5352 16629,5316 17470,4831 17470,5352 Z"/>
     <path fill="rgb(68,152,205)" stroke="none" d="M 16629,5352 L 17470,5352 17470,4831 18238,4387 18238,5227 16541,6207 16541,5367 16629,5316 16629,5352 Z M 17460,5342 L 16639,5342 16639,5310 17460,4836 17460,5342 Z"/>
     <path fill="rgb(69,153,206)" stroke="none" d="M 16639,5342 L 17460,5342 17460,4836 18238,4387 18238,5227 16541,6207 16541,5367 16639,5310 16639,5342 Z M 17450,5332 L 16649,5332 16649,5305 17450,4842 17450,5332 Z"/>
     <path fill="rgb(71,154,206)" stroke="none" d="M 16649,5332 L 17450,5332 17450,4842 18238,4387 18238,5227 16541,6207 16541,5367 16649,5305 16649,5332 Z M 17440,5322 L 16659,5322 16659,5299 17440,4848 17440,5322 Z"/>
     <path fill="rgb(72,155,206)" stroke="none" d="M 16659,5322 L 17440,5322 17440,4848 18238,4387 18238,5227 16541,6207 16541,5367 16659,5299 16659,5322 Z M 17430,5312 L 16669,5312 16669,5293 17430,4854 17430,5312 Z"/>
     <path fill="rgb(73,155,207)" stroke="none" d="M 16669,5312 L 17430,5312 17430,4854 18238,4387 18238,5227 16541,6207 16541,5367 16669,5293 16669,5312 Z M 17420,5302 L 16679,5302 16679,5287 17420,4859 17420,5302 Z"/>
     <path fill="rgb(75,156,207)" stroke="none" d="M 16679,5302 L 17420,5302 17420,4859 18238,4387 18238,5227 16541,6207 16541,5367 16679,5287 16679,5302 Z M 17410,5292 L 16689,5292 16689,5282 17410,4865 17410,5292 Z"/>
     <path fill="rgb(76,157,207)" stroke="none" d="M 16689,5292 L 17410,5292 17410,4865 18238,4387 18238,5227 16541,6207 16541,5367 16689,5282 16689,5292 Z M 17400,5282 L 16699,5282 16699,5276 17400,4871 17400,5282 Z"/>
     <path fill="rgb(78,158,208)" stroke="none" d="M 16699,5282 L 17400,5282 17400,4871 18238,4387 18238,5227 16541,6207 16541,5367 16699,5276 16699,5282 Z M 17390,5272 L 16709,5272 16709,5270 17390,4877 17390,5272 Z"/>
     <path fill="rgb(79,158,208)" stroke="none" d="M 16709,5272 L 17390,5272 17390,4877 18238,4387 18238,5227 16541,6207 16541,5367 16709,5270 16709,5272 Z M 17380,5262 L 16723,5262 17380,4882 17380,5262 Z"/>
     <path fill="rgb(80,159,209)" stroke="none" d="M 17380,5262 L 17380,4882 18238,4387 18238,5227 16541,6207 16541,5367 16723,5262 17380,5262 Z M 17370,5252 L 16740,5252 17370,4888 17370,5252 Z"/>
     <path fill="rgb(82,160,209)" stroke="none" d="M 17370,5252 L 17370,4888 18238,4387 18238,5227 16541,6207 16541,5367 16740,5252 17370,5252 Z M 17360,5242 L 16757,5242 17360,4894 17360,5242 Z"/>
     <path fill="rgb(83,161,209)" stroke="none" d="M 17360,5242 L 17360,4894 18238,4387 18238,5227 16541,6207 16541,5367 16757,5242 17360,5242 Z M 17349,5231 L 16777,5231 17349,4900 17349,5231 Z"/>
     <path fill="rgb(85,161,210)" stroke="none" d="M 17349,5231 L 17349,4900 18238,4387 18238,5227 16541,6207 16541,5367 16777,5231 17349,5231 Z M 17339,5221 L 16794,5221 17339,4906 17339,5221 Z"/>
     <path fill="rgb(86,162,210)" stroke="none" d="M 17339,5221 L 17339,4906 18238,4387 18238,5227 16541,6207 16541,5367 16794,5221 17339,5221 Z M 17329,5211 L 16811,5211 17329,4912 17329,5211 Z"/>
     <path fill="rgb(87,163,210)" stroke="none" d="M 17329,5211 L 17329,4912 18238,4387 18238,5227 16541,6207 16541,5367 16811,5211 17329,5211 Z M 17319,5201 L 16828,5201 17319,4918 17319,5201 Z"/>
     <path fill="rgb(89,164,211)" stroke="none" d="M 17319,5201 L 17319,4918 18238,4387 18238,5227 16541,6207 16541,5367 16828,5201 17319,5201 Z M 17309,5191 L 16846,5191 17309,4923 17309,5191 Z"/>
     <path fill="rgb(90,165,211)" stroke="none" d="M 17309,5191 L 17309,4923 18238,4387 18238,5227 16541,6207 16541,5367 16846,5191 17309,5191 Z M 17299,5181 L 16863,5181 17299,4929 17299,5181 Z"/>
     <path fill="rgb(92,165,211)" stroke="none" d="M 17299,5181 L 17299,4929 18238,4387 18238,5227 16541,6207 16541,5367 16863,5181 17299,5181 Z M 17289,5171 L 16880,5171 17289,4935 17289,5171 Z"/>
     <path fill="rgb(93,166,212)" stroke="none" d="M 17289,5171 L 17289,4935 18238,4387 18238,5227 16541,6207 16541,5367 16880,5171 17289,5171 Z M 17279,5161 L 16898,5161 17279,4941 17279,5161 Z"/>
     <path fill="rgb(94,167,212)" stroke="none" d="M 17279,5161 L 17279,4941 18238,4387 18238,5227 16541,6207 16541,5367 16898,5161 17279,5161 Z M 17269,5151 L 16915,5151 17269,4947 17269,5151 Z"/>
     <path fill="rgb(96,168,213)" stroke="none" d="M 17269,5151 L 17269,4947 18238,4387 18238,5227 16541,6207 16541,5367 16915,5151 17269,5151 Z M 17259,5141 L 16932,5141 17259,4952 17259,5141 Z"/>
     <path fill="rgb(97,168,213)" stroke="none" d="M 17259,5141 L 17259,4952 18238,4387 18238,5227 16541,6207 16541,5367 16932,5141 17259,5141 Z M 17249,5131 L 16950,5131 17249,4958 17249,5131 Z"/>
     <path fill="rgb(99,169,213)" stroke="none" d="M 17249,5131 L 17249,4958 18238,4387 18238,5227 16541,6207 16541,5367 16950,5131 17249,5131 Z M 17239,5121 L 16967,5121 17239,4964 17239,5121 Z"/>
     <path fill="rgb(100,170,214)" stroke="none" d="M 17239,5121 L 17239,4964 18238,4387 18238,5227 16541,6207 16541,5367 16967,5121 17239,5121 Z M 17229,5111 L 16984,5111 17229,4970 17229,5111 Z"/>
     <path fill="rgb(101,171,214)" stroke="none" d="M 17229,5111 L 17229,4970 18238,4387 18238,5227 16541,6207 16541,5367 16984,5111 17229,5111 Z M 17219,5101 L 17002,5101 17219,4975 17219,5101 Z"/>
     <path fill="rgb(103,171,214)" stroke="none" d="M 17219,5101 L 17219,4975 18238,4387 18238,5227 16541,6207 16541,5367 17002,5101 17219,5101 Z M 17209,5091 L 17019,5091 17209,4981 17209,5091 Z"/>
     <path fill="rgb(104,172,215)" stroke="none" d="M 17209,5091 L 17209,4981 18238,4387 18238,5227 16541,6207 16541,5367 17019,5091 17209,5091 Z M 17199,5081 L 17036,5081 17199,4987 17199,5081 Z"/>
     <path fill="rgb(106,173,215)" stroke="none" d="M 17199,5081 L 17199,4987 18238,4387 18238,5227 16541,6207 16541,5367 17036,5081 17199,5081 Z M 17189,5071 L 17054,5071 17189,4993 17189,5071 Z"/>
     <path fill="rgb(107,174,215)" stroke="none" d="M 17189,5071 L 17189,4993 18238,4387 18238,5227 16541,6207 16541,5367 17054,5071 17189,5071 Z M 17179,5061 L 17071,5061 17179,4999 17179,5061 Z"/>
     <path fill="rgb(108,175,216)" stroke="none" d="M 17179,5061 L 17179,4999 18238,4387 18238,5227 16541,6207 16541,5367 17071,5061 17179,5061 Z M 17169,5051 L 17088,5051 17169,5004 17169,5051 Z"/>
     <path fill="rgb(110,175,216)" stroke="none" d="M 17169,5051 L 17169,5004 18238,4387 18238,5227 16541,6207 16541,5367 17088,5051 17169,5051 Z M 17159,5041 L 17106,5041 17159,5010 17159,5041 Z"/>
     <path fill="rgb(111,176,217)" stroke="none" d="M 17159,5041 L 17159,5010 18238,4387 18238,5227 16541,6207 16541,5367 17106,5041 17159,5041 Z M 17149,5031 L 17123,5031 17149,5016 17149,5031 Z"/>
     <path fill="rgb(113,177,217)" stroke="none" d="M 17149,5031 L 17149,5016 18238,4387 18238,5227 16541,6207 16541,5367 17123,5031 17149,5031 Z"/>
     <path fill="rgb(114,178,217)" stroke="none" d="M 16541,6207 L 16541,5367 18238,4387 18238,5227 16541,6207 Z"/>
     <path fill="rgb(115,178,218)" stroke="none" d="M 16541,6207 L 16541,5367 18238,4387 18238,5227 16541,6207 Z"/>
     <path fill="rgb(117,179,218)" stroke="none" d="M 16541,6207 L 16541,5367 18238,4387 18238,5227 16541,6207 Z"/>
     <path fill="rgb(118,180,218)" stroke="none" d="M 16541,6207 L 16541,5367 18238,4387 18238,5227 16541,6207 Z"/>
     <path fill="rgb(120,181,219)" stroke="none" d="M 16541,6207 L 16541,5367 18238,4387 18238,5227 16541,6207 Z"/>
     <path fill="rgb(121,181,219)" stroke="none" d="M 16541,6207 L 16541,5367 18238,4387 18238,5227 16541,6207 Z"/>
     <path fill="rgb(122,182,219)" stroke="none" d="M 16541,6207 L 16541,5367 18238,4387 18238,5227 16541,6207 Z"/>
     <path fill="rgb(124,183,220)" stroke="none" d="M 16541,6207 L 16541,5367 18238,4387 18238,5227 16541,6207 Z"/>
     <path fill="rgb(127,185,221)" stroke="none" d="M 16541,6207 L 16541,5367 18238,4387 18238,5227 16541,6207 Z"/>
     <path fill="none" stroke="rgb(255,255,255)" id="Drawing_3_0" stroke-width="40" stroke-linejoin="round" d="M 16541,6207 L 16541,5367 18238,4387 18238,5227 16541,6207 Z"/>
    </g>
    <g>
     <defs>
      <linearGradient id="Gradient_1104" gradientUnits="userSpaceOnUse" x1="16540" y1="3407" x2="16540" y2="5367">
       <stop offset="0.1" stop-color="rgb(0,115,188)"/>
       <stop offset="1" stop-color="rgb(127,185,221)"/>
      </linearGradient>
     </defs>
     <path fill="url(#Gradient_1104)" stroke="rgb(255,255,255)" id="Drawing_4_0" stroke-width="40" stroke-linejoin="round" d="M 16541,5367 L 14843,4387 16541,3407 18238,4387 16541,5367 Z"/>
    </g>
    <g>
     <path fill="none" stroke="rgb(0,0,0)" id="Drawing_5_0" stroke-width="40" stroke-linejoin="round" d="M 14843,5227 L 14843,4387 16541,3407 18238,4387 18238,5227 16541,6207 14843,5227 Z"/>
    </g>
    <g>
     <path fill="none" stroke="rgb(255,255,255)" id="Drawing_6_0" stroke-width="40" stroke-linejoin="round" d="M 17996,4387 L 17753,4387 17268,4247 17026,4247 17026,4387 17268,4667 17267,4807 17025,4807 16540,4667 16298,4667 16298,4807 16541,5087 16541,5227"/>
    </g>
    <g>
     <path fill="none" stroke="rgb(255,255,255)" id="Drawing_7_0" stroke-width="40" stroke-linejoin="round" d="M 17389,4037 L 17389,4177 17632,4457 17632,4597 17389,4597 16904,4457 16662,4457 16662,4597 16904,4877 16904,5017 16662,5017 16177,4877 15934,4877"/>
    </g>
    <g>
     <path fill="none" stroke="rgb(255,255,255)" id="Drawing_8_0" stroke-width="40" stroke-linejoin="round" d="M 17147,3897 L 16904,3897 16419,3757 16177,3757 16177,3897 16419,4177 16418,4317 16176,4317 15691,4177 15449,4177 15449,4317 15692,4597 15692,4737"/>
    </g>
    <g>
     <path fill="none" stroke="rgb(255,255,255)" id="Drawing_9_0" stroke-width="40" stroke-linejoin="round" d="M 16540,3547 L 16540,3687 16783,3967 16783,4107 16540,4107 16055,3967 15813,3967 15813,4107 16055,4387 16055,4527 15813,4527 15328,4387 15085,4387"/>
    </g>
   </g>
  </g>
 </g>
</svg>