<?xml version="1.0" encoding="UTF-8"?>

<svg version="1.2" baseProfile="tiny" width="17.81mm" height="32.41mm" viewBox="7491 4909 1781 3241" preserveAspectRatio="xMidYMid" fill-rule="evenodd" stroke-width="28.222" stroke-linejoin="round" xmlns="http://www.w3.org/2000/svg" xmlns:xlink="http://www.w3.org/1999/xlink" xml:space="preserve">
 <g visibility="visible" id="Slide_1">
  <g id="DrawingGroup_1">
   <g>
    <path fill="rgb(221,221,221)" stroke="none" d="M 8263,8149 C 8506,8149 9059,8149 9236,7791 9412,7433 8882,7433 8794,7433 8794,7586 8263,7944 8263,8149 Z"/>
    <path fill="none" stroke="rgb(221,221,221)" id="Drawing_1_0" stroke-linejoin="round" d="M 8263,8149 C 8506,8149 9059,8149 9236,7791 9412,7433 8882,7433 8794,7433 8794,7586 8263,7944 8263,8149 Z"/>
   </g>
   <g id="DrawingGroup_2">
    <g>
     <path fill="rgb(179,179,179)" stroke="none" d="M 8829,7774 L 7647,7774 7644,7740 7821,6462 7824,6490 7831,6516 7843,6540 7859,6563 7879,6583 7903,6602 7929,6619 7959,6635 8026,6660 8101,6678 8181,6689 8263,6692 8345,6689 8425,6678 8500,6660 8567,6635 8597,6619 8623,6602 8647,6583 8667,6563 8683,6540 8695,6516 8702,6490 8705,6462 8829,7357 8829,7774 Z"/>
     <path fill="rgb(180,180,180)" stroke="none" d="M 8829,7774 L 8829,7357 8882,7740 8878,7786 8868,7830 8851,7870 8829,7908 8801,7942 8768,7974 8730,8002 8689,8027 8595,8069 8490,8099 8378,8117 8263,8123 8148,8117 8036,8099 7931,8069 7837,8027 7796,8002 7758,7974 7725,7942 7697,7908 7675,7870 7658,7830 7648,7786 7647,7774 8829,7774 Z M 8812,7757 L 7645,7757 7644,7740 7821,6462 7824,6490 7831,6516 7843,6540 7859,6563 7879,6583 7903,6602 7929,6619 7959,6635 8026,6660 8101,6678 8181,6689 8263,6692 8345,6689 8425,6678 8500,6660 8567,6635 8597,6619 8623,6602 8647,6583 8667,6563 8683,6540 8695,6516 8702,6490 8705,6462 8812,7235 8812,7757 Z"/>
     <path fill="rgb(181,181,181)" stroke="none" d="M 8812,7757 L 8812,7235 8882,7740 8878,7786 8868,7830 8851,7870 8829,7908 8801,7942 8768,7974 8730,8002 8689,8027 8595,8069 8490,8099 8378,8117 8263,8123 8148,8117 8036,8099 7931,8069 7837,8027 7796,8002 7758,7974 7725,7942 7697,7908 7675,7870 7658,7830 7648,7786 7645,7757 8812,7757 Z M 8796,7741 L 7644,7741 7644,7740 7821,6462 7824,6490 7831,6516 7843,6540 7859,6563 7879,6583 7903,6602 7929,6619 7959,6635 8026,6660 8101,6678 8181,6689 8263,6692 8345,6689 8425,6678 8500,6660 8567,6635 8597,6619 8623,6602 8647,6583 8667,6563 8683,6540 8695,6516 8702,6490 8705,6462 8796,7119 8796,7741 Z"/>
     <path fill="rgb(182,182,182)" stroke="none" d="M 8796,7741 L 8796,7119 8882,7740 8878,7786 8868,7830 8851,7870 8829,7908 8801,7942 8768,7974 8730,8002 8689,8027 8595,8069 8490,8099 8378,8117 8263,8123 8148,8117 8036,8099 7931,8069 7837,8027 7796,8002 7758,7974 7725,7942 7697,7908 7675,7870 7658,7830 7648,7786 7644,7741 8796,7741 Z M 8779,7724 L 7646,7724 7821,6462 7824,6490 7831,6516 7843,6540 7859,6563 7879,6583 7903,6602 7929,6619 7959,6635 8026,6660 8101,6678 8181,6689 8263,6692 8345,6689 8425,6678 8500,6660 8567,6635 8597,6619 8623,6602 8647,6583 8667,6563 8683,6540 8695,6516 8702,6490 8705,6462 8779,6996 8779,7724 Z"/>
     <path fill="rgb(183,183,183)" stroke="none" d="M 8779,7724 L 8779,6996 8882,7740 8878,7786 8868,7830 8851,7870 8829,7908 8801,7942 8768,7974 8730,8002 8689,8027 8595,8069 8490,8099 8378,8117 8263,8123 8148,8117 8036,8099 7931,8069 7837,8027 7796,8002 7758,7974 7725,7942 7697,7908 7675,7870 7658,7830 7648,7786 7644,7740 7646,7724 8779,7724 Z M 8762,7707 L 7649,7707 7821,6462 7824,6490 7831,6516 7843,6540 7859,6563 7879,6583 7903,6602 7929,6619 7959,6635 8026,6660 8101,6678 8181,6689 8263,6692 8345,6689 8425,6678 8500,6660 8567,6635 8597,6619 8623,6602 8647,6583 8667,6563 8683,6540 8695,6516 8702,6490 8705,6462 8762,6874 8762,7707 Z"/>
     <path fill="rgb(184,184,184)" stroke="none" d="M 8762,7707 L 8762,6874 8882,7740 8878,7786 8868,7830 8851,7870 8829,7908 8801,7942 8768,7974 8730,8002 8689,8027 8595,8069 8490,8099 8378,8117 8263,8123 8148,8117 8036,8099 7931,8069 7837,8027 7796,8002 7758,7974 7725,7942 7697,7908 7675,7870 7658,7830 7648,7786 7644,7740 7649,7707 8762,7707 Z M 8746,7691 L 7651,7691 7821,6462 7824,6490 7831,6516 7843,6540 7859,6563 7879,6583 7903,6602 7929,6619 7959,6635 8026,6660 8101,6678 8181,6689 8263,6692 8345,6689 8425,6678 8500,6660 8567,6635 8597,6619 8623,6602 8647,6583 8667,6563 8683,6540 8695,6516 8702,6490 8705,6462 8746,6758 8746,7691 Z"/>
     <path fill="rgb(185,185,185)" stroke="none" d="M 8746,7691 L 8746,6758 8882,7740 8878,7786 8868,7830 8851,7870 8829,7908 8801,7942 8768,7974 8730,8002 8689,8027 8595,8069 8490,8099 8378,8117 8263,8123 8148,8117 8036,8099 7931,8069 7837,8027 7796,8002 7758,7974 7725,7942 7697,7908 7675,7870 7658,7830 7648,7786 7644,7740 7651,7691 8746,7691 Z M 8729,7674 L 7653,7674 7821,6462 7824,6490 7831,6516 7843,6540 7859,6563 7879,6583 7903,6602 7929,6619 7959,6635 8026,6660 8101,6678 8181,6689 8263,6692 8345,6689 8425,6678 8500,6660 8567,6635 8597,6619 8623,6602 8647,6583 8667,6563 8683,6540 8695,6516 8702,6490 8705,6462 8729,6635 8729,7674 Z"/>
     <path fill="rgb(186,186,186)" stroke="none" d="M 8729,7674 L 8729,6635 8882,7740 8878,7786 8868,7830 8851,7870 8829,7908 8801,7942 8768,7974 8730,8002 8689,8027 8595,8069 8490,8099 8378,8117 8263,8123 8148,8117 8036,8099 7931,8069 7837,8027 7796,8002 7758,7974 7725,7942 7697,7908 7675,7870 7658,7830 7648,7786 7644,7740 7653,7674 8729,7674 Z M 8712,7657 L 7655,7657 7821,6462 7824,6490 7831,6516 7843,6540 7859,6563 7879,6583 7903,6602 7929,6619 7959,6635 8026,6660 8101,6678 8181,6689 8263,6692 8345,6689 8425,6678 8500,6660 8567,6635 8597,6619 8623,6602 8647,6583 8667,6563 8683,6540 8695,6516 8702,6490 8705,6462 8712,6513 8712,7657 Z"/>
     <path fill="rgb(187,187,187)" stroke="none" d="M 8712,7657 L 8712,6513 8882,7740 8878,7786 8868,7830 8851,7870 8829,7908 8801,7942 8768,7974 8730,8002 8689,8027 8595,8069 8490,8099 8378,8117 8263,8123 8148,8117 8036,8099 7931,8069 7837,8027 7796,8002 7758,7974 7725,7942 7697,7908 7675,7870 7658,7830 7648,7786 7644,7740 7655,7657 8712,7657 Z M 8696,7641 L 7658,7641 7821,6462 7824,6490 7831,6516 7843,6540 7859,6563 7879,6583 7903,6602 7929,6619 7959,6635 8026,6660 8101,6678 8181,6689 8263,6692 8345,6689 8425,6678 8500,6660 8567,6635 8597,6619 8623,6602 8647,6583 8667,6563 8683,6540 8695,6516 8696,6512 8696,7641 Z"/>
     <path fill="rgb(188,188,188)" stroke="none" d="M 8696,7641 L 8696,6512 8702,6490 8705,6462 8882,7740 8878,7786 8868,7830 8851,7870 8829,7908 8801,7942 8768,7974 8730,8002 8689,8027 8595,8069 8490,8099 8378,8117 8263,8123 8148,8117 8036,8099 7931,8069 7837,8027 7796,8002 7758,7974 7725,7942 7697,7908 7675,7870 7658,7830 7648,7786 7644,7740 7658,7641 8696,7641 Z M 8679,7624 L 7660,7624 7821,6462 7824,6490 7831,6516 7843,6540 7859,6563 7879,6583 7903,6602 7929,6619 7959,6635 8026,6660 8101,6678 8181,6689 8263,6692 8345,6689 8425,6678 8500,6660 8567,6635 8597,6619 8623,6602 8647,6583 8667,6563 8679,6546 8679,7624 Z"/>
     <path fill="rgb(189,189,189)" stroke="none" d="M 8679,7624 L 8679,6546 8683,6540 8695,6516 8702,6490 8705,6462 8882,7740 8878,7786 8868,7830 8851,7870 8829,7908 8801,7942 8768,7974 8730,8002 8689,8027 8595,8069 8490,8099 8378,8117 8263,8123 8148,8117 8036,8099 7931,8069 7837,8027 7796,8002 7758,7974 7725,7942 7697,7908 7675,7870 7658,7830 7648,7786 7644,7740 7660,7624 8679,7624 Z M 8662,7607 L 7662,7607 7821,6462 7824,6490 7831,6516 7843,6540 7859,6563 7879,6583 7903,6602 7929,6619 7959,6635 8026,6660 8101,6678 8181,6689 8263,6692 8345,6689 8425,6678 8500,6660 8567,6635 8597,6619 8623,6602 8647,6583 8662,6568 8662,7607 Z"/>
     <path fill="rgb(190,190,190)" stroke="none" d="M 8662,7607 L 8662,6568 8667,6563 8683,6540 8695,6516 8702,6490 8705,6462 8882,7740 8878,7786 8868,7830 8851,7870 8829,7908 8801,7942 8768,7974 8730,8002 8689,8027 8595,8069 8490,8099 8378,8117 8263,8123 8148,8117 8036,8099 7931,8069 7837,8027 7796,8002 7758,7974 7725,7942 7697,7908 7675,7870 7658,7830 7648,7786 7644,7740 7662,7607 8662,7607 Z M 8646,7591 L 7665,7591 7821,6462 7824,6490 7831,6516 7843,6540 7859,6563 7879,6583 7903,6602 7929,6619 7959,6635 8026,6660 8101,6678 8181,6689 8263,6692 8345,6689 8425,6678 8500,6660 8567,6635 8597,6619 8623,6602 8646,6584 8646,7591 Z"/>
     <path fill="rgb(191,191,191)" stroke="none" d="M 8646,7591 L 8646,6584 8647,6583 8667,6563 8683,6540 8695,6516 8702,6490 8705,6462 8882,7740 8878,7786 8868,7830 8851,7870 8829,7908 8801,7942 8768,7974 8730,8002 8689,8027 8595,8069 8490,8099 8378,8117 8263,8123 8148,8117 8036,8099 7931,8069 7837,8027 7796,8002 7758,7974 7725,7942 7697,7908 7675,7870 7658,7830 7648,7786 7644,7740 7665,7591 8646,7591 Z M 8629,7574 L 7667,7574 7821,6462 7824,6490 7831,6516 7843,6540 7859,6563 7879,6583 7903,6602 7929,6619 7959,6635 8026,6660 8101,6678 8181,6689 8263,6692 8345,6689 8425,6678 8500,6660 8567,6635 8597,6619 8623,6602 8629,6597 8629,7574 Z"/>
     <path fill="rgb(192,192,192)" stroke="none" d="M 8629,7574 L 8629,6597 8647,6583 8667,6563 8683,6540 8695,6516 8702,6490 8705,6462 8882,7740 8878,7786 8868,7830 8851,7870 8829,7908 8801,7942 8768,7974 8730,8002 8689,8027 8595,8069 8490,8099 8378,8117 8263,8123 8148,8117 8036,8099 7931,8069 7837,8027 7796,8002 7758,7974 7725,7942 7697,7908 7675,7870 7658,7830 7648,7786 7644,7740 7667,7574 8629,7574 Z M 8613,7558 L 7669,7558 7821,6462 7824,6490 7831,6516 7843,6540 7859,6563 7879,6583 7903,6602 7929,6619 7959,6635 8026,6660 8101,6678 8181,6689 8263,6692 8345,6689 8425,6678 8500,6660 8567,6635 8597,6619 8613,6609 8613,7558 Z"/>
     <path fill="rgb(193,193,193)" stroke="none" d="M 8613,7558 L 8613,6609 8623,6602 8647,6583 8667,6563 8683,6540 8695,6516 8702,6490 8705,6462 8882,7740 8878,7786 8868,7830 8851,7870 8829,7908 8801,7942 8768,7974 8730,8002 8689,8027 8595,8069 8490,8099 8378,8117 8263,8123 8148,8117 8036,8099 7931,8069 7837,8027 7796,8002 7758,7974 7725,7942 7697,7908 7675,7870 7658,7830 7648,7786 7644,7740 7669,7558 8613,7558 Z M 8596,7541 L 7672,7541 7821,6462 7824,6490 7831,6516 7843,6540 7859,6563 7879,6583 7903,6602 7929,6619 7959,6635 8026,6660 8101,6678 8181,6689 8263,6692 8345,6689 8425,6678 8500,6660 8567,6635 8596,6620 8596,7541 Z"/>
     <path fill="rgb(194,194,194)" stroke="none" d="M 8596,7541 L 8596,6620 8597,6619 8623,6602 8647,6583 8667,6563 8683,6540 8695,6516 8702,6490 8705,6462 8882,7740 8878,7786 8868,7830 8851,7870 8829,7908 8801,7942 8768,7974 8730,8002 8689,8027 8595,8069 8490,8099 8378,8117 8263,8123 8148,8117 8036,8099 7931,8069 7837,8027 7796,8002 7758,7974 7725,7942 7697,7908 7675,7870 7658,7830 7648,7786 7644,7740 7672,7541 8596,7541 Z M 8579,7524 L 7674,7524 7821,6462 7824,6490 7831,6516 7843,6540 7859,6563 7879,6583 7903,6602 7929,6619 7959,6635 8026,6660 8101,6678 8181,6689 8263,6692 8345,6689 8425,6678 8500,6660 8567,6635 8579,6629 8579,7524 Z"/>
     <path fill="rgb(195,195,195)" stroke="none" d="M 8579,7524 L 8579,6629 8597,6619 8623,6602 8647,6583 8667,6563 8683,6540 8695,6516 8702,6490 8705,6462 8882,7740 8878,7786 8868,7830 8851,7870 8829,7908 8801,7942 8768,7974 8730,8002 8689,8027 8595,8069 8490,8099 8378,8117 8263,8123 8148,8117 8036,8099 7931,8069 7837,8027 7796,8002 7758,7974 7725,7942 7697,7908 7675,7870 7658,7830 7648,7786 7644,7740 7674,7524 8579,7524 Z M 8563,7508 L 7676,7508 7821,6462 7824,6490 7831,6516 7843,6540 7859,6563 7879,6583 7903,6602 7929,6619 7959,6635 8026,6660 8101,6678 8181,6689 8263,6692 8345,6689 8425,6678 8500,6660 8563,6636 8563,7508 Z"/>
     <path fill="rgb(196,196,196)" stroke="none" d="M 8563,7508 L 8563,6636 8567,6635 8597,6619 8623,6602 8647,6583 8667,6563 8683,6540 8695,6516 8702,6490 8705,6462 8882,7740 8878,7786 8868,7830 8851,7870 8829,7908 8801,7942 8768,7974 8730,8002 8689,8027 8595,8069 8490,8099 8378,8117 8263,8123 8148,8117 8036,8099 7931,8069 7837,8027 7796,8002 7758,7974 7725,7942 7697,7908 7675,7870 7658,7830 7648,7786 7644,7740 7676,7508 8563,7508 Z M 8546,7491 L 7678,7491 7821,6462 7824,6490 7831,6516 7843,6540 7859,6563 7879,6583 7903,6602 7929,6619 7959,6635 8026,6660 8101,6678 8181,6689 8263,6692 8345,6689 8425,6678 8500,6660 8546,6643 8546,7491 Z"/>
     <path fill="rgb(197,197,197)" stroke="none" d="M 8546,7491 L 8546,6643 8567,6635 8597,6619 8623,6602 8647,6583 8667,6563 8683,6540 8695,6516 8702,6490 8705,6462 8882,7740 8878,7786 8868,7830 8851,7870 8829,7908 8801,7942 8768,7974 8730,8002 8689,8027 8595,8069 8490,8099 8378,8117 8263,8123 8148,8117 8036,8099 7931,8069 7837,8027 7796,8002 7758,7974 7725,7942 7697,7908 7675,7870 7658,7830 7648,7786 7644,7740 7678,7491 8546,7491 Z M 8529,7474 L 7681,7474 7821,6462 7824,6490 7831,6516 7843,6540 7859,6563 7879,6583 7903,6602 7929,6619 7959,6635 8026,6660 8101,6678 8181,6689 8263,6692 8345,6689 8425,6678 8500,6660 8529,6649 8529,7474 Z"/>
     <path fill="rgb(198,198,198)" stroke="none" d="M 8529,7474 L 8529,6649 8567,6635 8597,6619 8623,6602 8647,6583 8667,6563 8683,6540 8695,6516 8702,6490 8705,6462 8882,7740 8878,7786 8868,7830 8851,7870 8829,7908 8801,7942 8768,7974 8730,8002 8689,8027 8595,8069 8490,8099 8378,8117 8263,8123 8148,8117 8036,8099 7931,8069 7837,8027 7796,8002 7758,7974 7725,7942 7697,7908 7675,7870 7658,7830 7648,7786 7644,7740 7681,7474 8529,7474 Z M 8513,7458 L 7683,7458 7821,6462 7824,6490 7831,6516 7843,6540 7859,6563 7879,6583 7903,6602 7929,6619 7959,6635 8026,6660 8101,6678 8181,6689 8263,6692 8345,6689 8425,6678 8500,6660 8513,6655 8513,7458 Z"/>
     <path fill="rgb(199,199,199)" stroke="none" d="M 8513,7458 L 8513,6655 8567,6635 8597,6619 8623,6602 8647,6583 8667,6563 8683,6540 8695,6516 8702,6490 8705,6462 8882,7740 8878,7786 8868,7830 8851,7870 8829,7908 8801,7942 8768,7974 8730,8002 8689,8027 8595,8069 8490,8099 8378,8117 8263,8123 8148,8117 8036,8099 7931,8069 7837,8027 7796,8002 7758,7974 7725,7942 7697,7908 7675,7870 7658,7830 7648,7786 7644,7740 7683,7458 8513,7458 Z M 7823,6477 L 7824,6490 7831,6516 7843,6540 7859,6563 7879,6583 7903,6602 7929,6619 7959,6635 8026,6660 8101,6678 8181,6689 8263,6692 8345,6689 8425,6678 8496,6661 8496,7441 7685,7441 7819,6477 7823,6477 Z"/>
     <path fill="rgb(200,200,200)" stroke="none" d="M 8496,7441 L 8496,6661 8500,6660 8567,6635 8597,6619 8623,6602 8647,6583 8667,6563 8683,6540 8695,6516 8702,6490 8705,6462 8882,7740 8878,7786 8868,7830 8851,7870 8829,7908 8801,7942 8768,7974 8730,8002 8689,8027 8595,8069 8490,8099 8378,8117 8263,8123 8148,8117 8036,8099 7931,8069 7837,8027 7796,8002 7758,7974 7725,7942 7697,7908 7675,7870 7658,7830 7648,7786 7644,7740 7685,7441 8496,7441 Z M 7819,6477 L 7821,6462 7823,6477 7819,6477 Z M 7825,6494 L 7831,6516 7843,6540 7859,6563 7879,6583 7903,6602 7929,6619 7959,6635 8026,6660 8101,6678 8181,6689 8263,6692 8345,6689 8425,6678 8479,6665 8479,7424 7688,7424 7817,6494 7825,6494 Z"/>
     <path fill="rgb(201,201,201)" stroke="none" d="M 8479,7424 L 8479,6665 8500,6660 8567,6635 8597,6619 8623,6602 8647,6583 8667,6563 8683,6540 8695,6516 8702,6490 8705,6462 8882,7740 8878,7786 8868,7830 8851,7870 8829,7908 8801,7942 8768,7974 8730,8002 8689,8027 8595,8069 8490,8099 8378,8117 8263,8123 8148,8117 8036,8099 7931,8069 7837,8027 7796,8002 7758,7974 7725,7942 7697,7908 7675,7870 7658,7830 7648,7786 7644,7740 7688,7424 8479,7424 Z M 7817,6494 L 7821,6462 7824,6490 7825,6494 7817,6494 Z M 7829,6510 L 7831,6516 7843,6540 7859,6563 7879,6583 7903,6602 7929,6619 7959,6635 8026,6660 8101,6678 8181,6689 8263,6692 8345,6689 8425,6678 8463,6669 8463,7408 7690,7408 7814,6510 7829,6510 Z"/>
     <path fill="rgb(202,202,202)" stroke="none" d="M 8463,7408 L 8463,6669 8500,6660 8567,6635 8597,6619 8623,6602 8647,6583 8667,6563 8683,6540 8695,6516 8702,6490 8705,6462 8882,7740 8878,7786 8868,7830 8851,7870 8829,7908 8801,7942 8768,7974 8730,8002 8689,8027 8595,8069 8490,8099 8378,8117 8263,8123 8148,8117 8036,8099 7931,8069 7837,8027 7796,8002 7758,7974 7725,7942 7697,7908 7675,7870 7658,7830 7648,7786 7644,7740 7690,7408 8463,7408 Z M 7814,6510 L 7821,6462 7824,6490 7829,6510 7814,6510 Z M 7837,6527 L 7843,6540 7859,6563 7879,6583 7903,6602 7929,6619 7959,6635 8026,6660 8101,6678 8181,6689 8263,6692 8345,6689 8425,6678 8446,6673 8446,7391 7692,7391 7812,6527 7837,6527 Z"/>
     <path fill="rgb(203,203,203)" stroke="none" d="M 8446,7391 L 8446,6673 8500,6660 8567,6635 8597,6619 8623,6602 8647,6583 8667,6563 8683,6540 8695,6516 8702,6490 8705,6462 8882,7740 8878,7786 8868,7830 8851,7870 8829,7908 8801,7942 8768,7974 8730,8002 8689,8027 8595,8069 8490,8099 8378,8117 8263,8123 8148,8117 8036,8099 7931,8069 7837,8027 7796,8002 7758,7974 7725,7942 7697,7908 7675,7870 7658,7830 7648,7786 7644,7740 7692,7391 8446,7391 Z M 7812,6527 L 7821,6462 7824,6490 7831,6516 7837,6527 7812,6527 Z M 7845,6543 L 7859,6563 7879,6583 7903,6602 7929,6619 7959,6635 8026,6660 8101,6678 8181,6689 8263,6692 8345,6689 8425,6678 8429,6677 8429,7374 7695,7374 7810,6543 7845,6543 Z"/>
     <path fill="rgb(204,204,204)" stroke="none" d="M 8429,7374 L 8429,6677 8500,6660 8567,6635 8597,6619 8623,6602 8647,6583 8667,6563 8683,6540 8695,6516 8702,6490 8705,6462 8882,7740 8878,7786 8868,7830 8851,7870 8829,7908 8801,7942 8768,7974 8730,8002 8689,8027 8595,8069 8490,8099 8378,8117 8263,8123 8148,8117 8036,8099 7931,8069 7837,8027 7796,8002 7758,7974 7725,7942 7697,7908 7675,7870 7658,7830 7648,7786 7644,7740 7695,7374 8429,7374 Z M 7810,6543 L 7821,6462 7824,6490 7831,6516 7843,6540 7845,6543 7810,6543 Z M 7857,6560 L 7859,6563 7879,6583 7903,6602 7929,6619 7959,6635 8026,6660 8101,6678 8181,6689 8263,6692 8345,6689 8413,6680 8413,7358 7697,7358 7807,6560 7857,6560 Z"/>
     <path fill="rgb(205,205,205)" stroke="none" d="M 8413,7358 L 8413,6680 8425,6678 8500,6660 8567,6635 8597,6619 8623,6602 8647,6583 8667,6563 8683,6540 8695,6516 8702,6490 8705,6462 8882,7740 8878,7786 8868,7830 8851,7870 8829,7908 8801,7942 8768,7974 8730,8002 8689,8027 8595,8069 8490,8099 8378,8117 8263,8123 8148,8117 8036,8099 7931,8069 7837,8027 7796,8002 7758,7974 7725,7942 7697,7908 7675,7870 7658,7830 7648,7786 7644,7740 7697,7358 8413,7358 Z M 7807,6560 L 7821,6462 7824,6490 7831,6516 7843,6540 7857,6560 7807,6560 Z M 7873,6577 L 7879,6583 7903,6602 7929,6619 7959,6635 8026,6660 8101,6678 8181,6689 8263,6692 8345,6689 8396,6682 8396,7341 7699,7341 7805,6577 7873,6577 Z"/>
     <path fill="rgb(206,206,206)" stroke="none" d="M 8396,7341 L 8396,6682 8425,6678 8500,6660 8567,6635 8597,6619 8623,6602 8647,6583 8667,6563 8683,6540 8695,6516 8702,6490 8705,6462 8882,7740 8878,7786 8868,7830 8851,7870 8829,7908 8801,7942 8768,7974 8730,8002 8689,8027 8595,8069 8490,8099 8378,8117 8263,8123 8148,8117 8036,8099 7931,8069 7837,8027 7796,8002 7758,7974 7725,7942 7697,7908 7675,7870 7658,7830 7648,7786 7644,7740 7699,7341 8396,7341 Z M 7805,6577 L 7821,6462 7824,6490 7831,6516 7843,6540 7859,6563 7873,6577 7805,6577 Z M 7892,6593 L 7903,6602 7929,6619 7959,6635 8026,6660 8101,6678 8181,6689 8263,6692 8345,6689 8380,6684 8380,7325 7701,7325 7803,6593 7892,6593 Z"/>
     <path fill="rgb(207,207,207)" stroke="none" d="M 8380,7325 L 8380,6684 8425,6678 8500,6660 8567,6635 8597,6619 8623,6602 8647,6583 8667,6563 8683,6540 8695,6516 8702,6490 8705,6462 8882,7740 8878,7786 8868,7830 8851,7870 8829,7908 8801,7942 8768,7974 8730,8002 8689,8027 8595,8069 8490,8099 8378,8117 8263,8123 8148,8117 8036,8099 7931,8069 7837,8027 7796,8002 7758,7974 7725,7942 7697,7908 7675,7870 7658,7830 7648,7786 7644,7740 7701,7325 8380,7325 Z M 7803,6593 L 7821,6462 7824,6490 7831,6516 7843,6540 7859,6563 7879,6583 7892,6593 7803,6593 Z M 7915,6610 L 7929,6619 7959,6635 8026,6660 8101,6678 8181,6689 8263,6692 8345,6689 8363,6687 8363,7308 7704,7308 7801,6610 7915,6610 Z"/>
     <path fill="rgb(208,208,208)" stroke="none" d="M 8363,7308 L 8363,6687 8425,6678 8500,6660 8567,6635 8597,6619 8623,6602 8647,6583 8667,6563 8683,6540 8695,6516 8702,6490 8705,6462 8882,7740 8878,7786 8868,7830 8851,7870 8829,7908 8801,7942 8768,7974 8730,8002 8689,8027 8595,8069 8490,8099 8378,8117 8263,8123 8148,8117 8036,8099 7931,8069 7837,8027 7796,8002 7758,7974 7725,7942 7697,7908 7675,7870 7658,7830 7648,7786 7644,7740 7704,7308 8363,7308 Z M 7801,6610 L 7821,6462 7824,6490 7831,6516 7843,6540 7859,6563 7879,6583 7903,6602 7915,6610 7801,6610 Z M 7944,6627 L 7959,6635 8026,6660 8101,6678 8181,6689 8263,6692 8345,6689 8346,6689 8346,7291 7706,7291 7798,6627 7944,6627 Z"/>
     <path fill="rgb(209,209,209)" stroke="none" d="M 8346,7291 L 8346,6689 8425,6678 8500,6660 8567,6635 8597,6619 8623,6602 8647,6583 8667,6563 8683,6540 8695,6516 8702,6490 8705,6462 8882,7740 8878,7786 8868,7830 8851,7870 8829,7908 8801,7942 8768,7974 8730,8002 8689,8027 8595,8069 8490,8099 8378,8117 8263,8123 8148,8117 8036,8099 7931,8069 7837,8027 7796,8002 7758,7974 7725,7942 7697,7908 7675,7870 7658,7830 7648,7786 7644,7740 7706,7291 8346,7291 Z M 7798,6627 L 7821,6462 7824,6490 7831,6516 7843,6540 7859,6563 7879,6583 7903,6602 7929,6619 7944,6627 7798,6627 Z M 7980,6643 L 8026,6660 8101,6678 8181,6689 8263,6692 8330,6690 8330,7275 7708,7275 7796,6643 7980,6643 Z"/>
     <path fill="rgb(210,210,210)" stroke="none" d="M 8330,7275 L 8330,6690 8345,6689 8425,6678 8500,6660 8567,6635 8597,6619 8623,6602 8647,6583 8667,6563 8683,6540 8695,6516 8702,6490 8705,6462 8882,7740 8878,7786 8868,7830 8851,7870 8829,7908 8801,7942 8768,7974 8730,8002 8689,8027 8595,8069 8490,8099 8378,8117 8263,8123 8148,8117 8036,8099 7931,8069 7837,8027 7796,8002 7758,7974 7725,7942 7697,7908 7675,7870 7658,7830 7648,7786 7644,7740 7708,7275 8330,7275 Z M 7796,6643 L 7821,6462 7824,6490 7831,6516 7843,6540 7859,6563 7879,6583 7903,6602 7929,6619 7959,6635 7980,6643 7796,6643 Z M 8026,6660 L 8101,6678 8181,6689 8263,6692 8313,6690 8313,7258 7715,7258 7715,7227 7794,6660 8026,6660 Z"/>
     <path fill="rgb(211,211,211)" stroke="none" d="M 7715,7258 L 8313,7258 8313,6690 8345,6689 8425,6678 8500,6660 8567,6635 8597,6619 8623,6602 8647,6583 8667,6563 8683,6540 8695,6516 8702,6490 8705,6462 8882,7740 8878,7786 8868,7830 8851,7870 8829,7908 8801,7942 8768,7974 8730,8002 8689,8027 8595,8069 8490,8099 8378,8117 8263,8123 8148,8117 8036,8099 7931,8069 7837,8027 7796,8002 7758,7974 7725,7942 7697,7908 7675,7870 7658,7830 7648,7786 7644,7740 7715,7227 7715,7258 Z M 7794,6660 L 7821,6462 7824,6490 7831,6516 7843,6540 7859,6563 7879,6583 7903,6602 7929,6619 7959,6635 8026,6660 7794,6660 Z M 8097,6677 L 8101,6678 8181,6689 8263,6692 8296,6691 8296,7241 7732,7241 7732,7105 7791,6677 8097,6677 Z"/>
     <path fill="rgb(212,212,212)" stroke="none" d="M 7732,7241 L 8296,7241 8296,6691 8345,6689 8425,6678 8500,6660 8567,6635 8597,6619 8623,6602 8647,6583 8667,6563 8683,6540 8695,6516 8702,6490 8705,6462 8882,7740 8878,7786 8868,7830 8851,7870 8829,7908 8801,7942 8768,7974 8730,8002 8689,8027 8595,8069 8490,8099 8378,8117 8263,8123 8148,8117 8036,8099 7931,8069 7837,8027 7796,8002 7758,7974 7725,7942 7697,7908 7675,7870 7658,7830 7648,7786 7644,7740 7732,7105 7732,7241 Z M 7791,6677 L 7821,6462 7824,6490 7831,6516 7843,6540 7859,6563 7879,6583 7903,6602 7929,6619 7959,6635 8026,6660 8097,6677 7791,6677 Z M 8280,6693 L 8280,7225 7748,7225 7748,6989 7789,6693 8280,6693 Z"/>
     <path fill="rgb(213,213,213)" stroke="none" d="M 7748,7225 L 8280,7225 8280,6693 7789,6693 7821,6462 7824,6490 7831,6516 7843,6540 7859,6563 7879,6583 7903,6602 7929,6619 7959,6635 8026,6660 8101,6678 8181,6689 8263,6692 8345,6689 8425,6678 8500,6660 8567,6635 8597,6619 8623,6602 8647,6583 8667,6563 8683,6540 8695,6516 8702,6490 8705,6462 8882,7740 8878,7786 8868,7830 8851,7870 8829,7908 8801,7942 8768,7974 8730,8002 8689,8027 8595,8069 8490,8099 8378,8117 8263,8123 8148,8117 8036,8099 7931,8069 7837,8027 7796,8002 7758,7974 7725,7942 7697,7908 7675,7870 7658,7830 7648,7786 7644,7740 7748,6989 7748,7225 Z M 8263,6710 L 8263,7208 7765,7208 7765,6866 7787,6710 8263,6710 Z"/>
     <path fill="rgb(214,214,214)" stroke="none" d="M 7765,7208 L 8263,7208 8263,6710 7787,6710 7821,6462 7824,6490 7831,6516 7843,6540 7859,6563 7879,6583 7903,6602 7929,6619 7959,6635 8026,6660 8101,6678 8181,6689 8263,6692 8345,6689 8425,6678 8500,6660 8567,6635 8597,6619 8623,6602 8647,6583 8667,6563 8683,6540 8695,6516 8702,6490 8705,6462 8882,7740 8878,7786 8868,7830 8851,7870 8829,7908 8801,7942 8768,7974 8730,8002 8689,8027 8595,8069 8490,8099 8378,8117 8263,8123 8148,8117 8036,8099 7931,8069 7837,8027 7796,8002 7758,7974 7725,7942 7697,7908 7675,7870 7658,7830 7648,7786 7644,7740 7765,6866 7765,7208 Z M 8246,6727 L 8246,7191 7782,7191 7782,6744 7784,6727 8246,6727 Z"/>
     <path fill="rgb(215,215,215)" stroke="none" d="M 7782,7191 L 8246,7191 8246,6727 7784,6727 7821,6462 7824,6490 7831,6516 7843,6540 7859,6563 7879,6583 7903,6602 7929,6619 7959,6635 8026,6660 8101,6678 8181,6689 8263,6692 8345,6689 8425,6678 8500,6660 8567,6635 8597,6619 8623,6602 8647,6583 8667,6563 8683,6540 8695,6516 8702,6490 8705,6462 8882,7740 8878,7786 8868,7830 8851,7870 8829,7908 8801,7942 8768,7974 8730,8002 8689,8027 8595,8069 8490,8099 8378,8117 8263,8123 8148,8117 8036,8099 7931,8069 7837,8027 7796,8002 7758,7974 7725,7942 7697,7908 7675,7870 7658,7830 7648,7786 7644,7740 7782,6744 7782,7191 Z M 7798,6743 L 8230,6743 8230,7175 7798,7175 7798,6743 Z"/>
     <path fill="rgb(216,216,216)" stroke="none" d="M 7798,6743 L 7798,7175 8230,7175 8230,6743 7798,6743 Z M 7815,6760 L 8213,6760 8213,7158 7815,7158 7815,6760 Z M 7644,7740 L 7821,6462 7824,6490 7831,6516 7843,6540 7859,6563 7879,6583 7903,6602 7929,6619 7959,6635 8026,6660 8101,6678 8181,6689 8263,6692 8345,6689 8425,6678 8500,6660 8567,6635 8597,6619 8623,6602 8647,6583 8667,6563 8683,6540 8695,6516 8702,6490 8705,6462 8882,7740 8878,7786 8868,7830 8851,7870 8829,7908 8801,7942 8768,7974 8730,8002 8689,8027 8595,8069 8490,8099 8378,8117 8263,8123 8148,8117 8036,8099 7931,8069 7837,8027 7796,8002 7758,7974 7725,7942 7697,7908 7675,7870 7658,7830 7648,7786 7644,7740 Z"/>
     <path fill="rgb(217,217,217)" stroke="none" d="M 7815,6760 L 7815,7158 8213,7158 8213,6760 7815,6760 Z M 7831,6776 L 8197,6776 8197,7142 7831,7142 7831,6776 Z M 7644,7740 L 7821,6462 7824,6490 7831,6516 7843,6540 7859,6563 7879,6583 7903,6602 7929,6619 7959,6635 8026,6660 8101,6678 8181,6689 8263,6692 8345,6689 8425,6678 8500,6660 8567,6635 8597,6619 8623,6602 8647,6583 8667,6563 8683,6540 8695,6516 8702,6490 8705,6462 8882,7740 8878,7786 8868,7830 8851,7870 8829,7908 8801,7942 8768,7974 8730,8002 8689,8027 8595,8069 8490,8099 8378,8117 8263,8123 8148,8117 8036,8099 7931,8069 7837,8027 7796,8002 7758,7974 7725,7942 7697,7908 7675,7870 7658,7830 7648,7786 7644,7740 Z"/>
     <path fill="rgb(218,218,218)" stroke="none" d="M 7831,6776 L 7831,7142 8197,7142 8197,6776 7831,6776 Z M 7848,6793 L 8180,6793 8180,7125 7848,7125 7848,6793 Z M 7644,7740 L 7821,6462 7824,6490 7831,6516 7843,6540 7859,6563 7879,6583 7903,6602 7929,6619 7959,6635 8026,6660 8101,6678 8181,6689 8263,6692 8345,6689 8425,6678 8500,6660 8567,6635 8597,6619 8623,6602 8647,6583 8667,6563 8683,6540 8695,6516 8702,6490 8705,6462 8882,7740 8878,7786 8868,7830 8851,7870 8829,7908 8801,7942 8768,7974 8730,8002 8689,8027 8595,8069 8490,8099 8378,8117 8263,8123 8148,8117 8036,8099 7931,8069 7837,8027 7796,8002 7758,7974 7725,7942 7697,7908 7675,7870 7658,7830 7648,7786 7644,7740 Z"/>
     <path fill="rgb(219,219,219)" stroke="none" d="M 7848,6793 L 7848,7125 8180,7125 8180,6793 7848,6793 Z M 7865,6810 L 8163,6810 8163,7108 7865,7108 7865,6810 Z M 7644,7740 L 7821,6462 7824,6490 7831,6516 7843,6540 7859,6563 7879,6583 7903,6602 7929,6619 7959,6635 8026,6660 8101,6678 8181,6689 8263,6692 8345,6689 8425,6678 8500,6660 8567,6635 8597,6619 8623,6602 8647,6583 8667,6563 8683,6540 8695,6516 8702,6490 8705,6462 8882,7740 8878,7786 8868,7830 8851,7870 8829,7908 8801,7942 8768,7974 8730,8002 8689,8027 8595,8069 8490,8099 8378,8117 8263,8123 8148,8117 8036,8099 7931,8069 7837,8027 7796,8002 7758,7974 7725,7942 7697,7908 7675,7870 7658,7830 7648,7786 7644,7740 Z"/>
     <path fill="rgb(220,220,220)" stroke="none" d="M 7865,6810 L 7865,7108 8163,7108 8163,6810 7865,6810 Z M 7881,6826 L 8147,6826 8147,7092 7881,7092 7881,6826 Z M 7644,7740 L 7821,6462 7824,6490 7831,6516 7843,6540 7859,6563 7879,6583 7903,6602 7929,6619 7959,6635 8026,6660 8101,6678 8181,6689 8263,6692 8345,6689 8425,6678 8500,6660 8567,6635 8597,6619 8623,6602 8647,6583 8667,6563 8683,6540 8695,6516 8702,6490 8705,6462 8882,7740 8878,7786 8868,7830 8851,7870 8829,7908 8801,7942 8768,7974 8730,8002 8689,8027 8595,8069 8490,8099 8378,8117 8263,8123 8148,8117 8036,8099 7931,8069 7837,8027 7796,8002 7758,7974 7725,7942 7697,7908 7675,7870 7658,7830 7648,7786 7644,7740 Z"/>
     <path fill="rgb(221,221,221)" stroke="none" d="M 7881,6826 L 7881,7092 8147,7092 8147,6826 7881,6826 Z M 7898,6843 L 8130,6843 8130,7075 7898,7075 7898,6843 Z M 7644,7740 L 7821,6462 7824,6490 7831,6516 7843,6540 7859,6563 7879,6583 7903,6602 7929,6619 7959,6635 8026,6660 8101,6678 8181,6689 8263,6692 8345,6689 8425,6678 8500,6660 8567,6635 8597,6619 8623,6602 8647,6583 8667,6563 8683,6540 8695,6516 8702,6490 8705,6462 8882,7740 8878,7786 8868,7830 8851,7870 8829,7908 8801,7942 8768,7974 8730,8002 8689,8027 8595,8069 8490,8099 8378,8117 8263,8123 8148,8117 8036,8099 7931,8069 7837,8027 7796,8002 7758,7974 7725,7942 7697,7908 7675,7870 7658,7830 7648,7786 7644,7740 Z"/>
     <path fill="rgb(222,222,222)" stroke="none" d="M 7898,6843 L 7898,7075 8130,7075 8130,6843 7898,6843 Z M 7915,6860 L 8113,6860 8113,7058 7915,7058 7915,6860 Z M 7644,7740 L 7821,6462 7824,6490 7831,6516 7843,6540 7859,6563 7879,6583 7903,6602 7929,6619 7959,6635 8026,6660 8101,6678 8181,6689 8263,6692 8345,6689 8425,6678 8500,6660 8567,6635 8597,6619 8623,6602 8647,6583 8667,6563 8683,6540 8695,6516 8702,6490 8705,6462 8882,7740 8878,7786 8868,7830 8851,7870 8829,7908 8801,7942 8768,7974 8730,8002 8689,8027 8595,8069 8490,8099 8378,8117 8263,8123 8148,8117 8036,8099 7931,8069 7837,8027 7796,8002 7758,7974 7725,7942 7697,7908 7675,7870 7658,7830 7648,7786 7644,7740 Z"/>
     <path fill="rgb(223,223,223)" stroke="none" d="M 7915,6860 L 7915,7058 8113,7058 8113,6860 7915,6860 Z M 7931,6876 L 8097,6876 8097,7042 7931,7042 7931,6876 Z M 7644,7740 L 7821,6462 7824,6490 7831,6516 7843,6540 7859,6563 7879,6583 7903,6602 7929,6619 7959,6635 8026,6660 8101,6678 8181,6689 8263,6692 8345,6689 8425,6678 8500,6660 8567,6635 8597,6619 8623,6602 8647,6583 8667,6563 8683,6540 8695,6516 8702,6490 8705,6462 8882,7740 8878,7786 8868,7830 8851,7870 8829,7908 8801,7942 8768,7974 8730,8002 8689,8027 8595,8069 8490,8099 8378,8117 8263,8123 8148,8117 8036,8099 7931,8069 7837,8027 7796,8002 7758,7974 7725,7942 7697,7908 7675,7870 7658,7830 7648,7786 7644,7740 Z"/>
     <path fill="rgb(224,224,224)" stroke="none" d="M 7931,6876 L 7931,7042 8097,7042 8097,6876 7931,6876 Z M 7948,6893 L 8080,6893 8080,7025 7948,7025 7948,6893 Z M 7644,7740 L 7821,6462 7824,6490 7831,6516 7843,6540 7859,6563 7879,6583 7903,6602 7929,6619 7959,6635 8026,6660 8101,6678 8181,6689 8263,6692 8345,6689 8425,6678 8500,6660 8567,6635 8597,6619 8623,6602 8647,6583 8667,6563 8683,6540 8695,6516 8702,6490 8705,6462 8882,7740 8878,7786 8868,7830 8851,7870 8829,7908 8801,7942 8768,7974 8730,8002 8689,8027 8595,8069 8490,8099 8378,8117 8263,8123 8148,8117 8036,8099 7931,8069 7837,8027 7796,8002 7758,7974 7725,7942 7697,7908 7675,7870 7658,7830 7648,7786 7644,7740 Z"/>
     <path fill="rgb(225,225,225)" stroke="none" d="M 7948,6893 L 7948,7025 8080,7025 8080,6893 7948,6893 Z M 7965,6910 L 8063,6910 8063,7008 7965,7008 7965,6910 Z M 7644,7740 L 7821,6462 7824,6490 7831,6516 7843,6540 7859,6563 7879,6583 7903,6602 7929,6619 7959,6635 8026,6660 8101,6678 8181,6689 8263,6692 8345,6689 8425,6678 8500,6660 8567,6635 8597,6619 8623,6602 8647,6583 8667,6563 8683,6540 8695,6516 8702,6490 8705,6462 8882,7740 8878,7786 8868,7830 8851,7870 8829,7908 8801,7942 8768,7974 8730,8002 8689,8027 8595,8069 8490,8099 8378,8117 8263,8123 8148,8117 8036,8099 7931,8069 7837,8027 7796,8002 7758,7974 7725,7942 7697,7908 7675,7870 7658,7830 7648,7786 7644,7740 Z"/>
     <path fill="rgb(226,226,226)" stroke="none" d="M 7965,6910 L 7965,7008 8063,7008 8063,6910 7965,6910 Z M 7981,6926 L 8047,6926 8047,6992 7981,6992 7981,6926 Z M 7644,7740 L 7821,6462 7824,6490 7831,6516 7843,6540 7859,6563 7879,6583 7903,6602 7929,6619 7959,6635 8026,6660 8101,6678 8181,6689 8263,6692 8345,6689 8425,6678 8500,6660 8567,6635 8597,6619 8623,6602 8647,6583 8667,6563 8683,6540 8695,6516 8702,6490 8705,6462 8882,7740 8878,7786 8868,7830 8851,7870 8829,7908 8801,7942 8768,7974 8730,8002 8689,8027 8595,8069 8490,8099 8378,8117 8263,8123 8148,8117 8036,8099 7931,8069 7837,8027 7796,8002 7758,7974 7725,7942 7697,7908 7675,7870 7658,7830 7648,7786 7644,7740 Z"/>
     <path fill="rgb(227,227,227)" stroke="none" d="M 7981,6926 L 7981,6992 8047,6992 8047,6926 7981,6926 Z M 7998,6943 L 8030,6943 8030,6975 7998,6975 7998,6943 Z M 7644,7740 L 7821,6462 7824,6490 7831,6516 7843,6540 7859,6563 7879,6583 7903,6602 7929,6619 7959,6635 8026,6660 8101,6678 8181,6689 8263,6692 8345,6689 8425,6678 8500,6660 8567,6635 8597,6619 8623,6602 8647,6583 8667,6563 8683,6540 8695,6516 8702,6490 8705,6462 8882,7740 8878,7786 8868,7830 8851,7870 8829,7908 8801,7942 8768,7974 8730,8002 8689,8027 8595,8069 8490,8099 8378,8117 8263,8123 8148,8117 8036,8099 7931,8069 7837,8027 7796,8002 7758,7974 7725,7942 7697,7908 7675,7870 7658,7830 7648,7786 7644,7740 Z"/>
     <path fill="rgb(229,229,229)" stroke="none" d="M 7998,6943 L 7998,6975 8030,6975 8030,6943 7998,6943 Z M 7644,7740 L 7821,6462 7824,6490 7831,6516 7843,6540 7859,6563 7879,6583 7903,6602 7929,6619 7959,6635 8026,6660 8101,6678 8181,6689 8263,6692 8345,6689 8425,6678 8500,6660 8567,6635 8597,6619 8623,6602 8647,6583 8667,6563 8683,6540 8695,6516 8702,6490 8705,6462 8882,7740 8878,7786 8868,7830 8851,7870 8829,7908 8801,7942 8768,7974 8730,8002 8689,8027 8595,8069 8490,8099 8378,8117 8263,8123 8148,8117 8036,8099 7931,8069 7837,8027 7796,8002 7758,7974 7725,7942 7697,7908 7675,7870 7658,7830 7648,7786 7644,7740 Z"/>
     <path fill="none" stroke="rgb(128,128,128)" id="Drawing_2_0" stroke-width="40" stroke-linejoin="round" d="M 7644,7740 L 7821,6462 C 7821,6769 8705,6769 8705,6462 L 8882,7740 C 8882,8251 7644,8251 7644,7740 Z"/>
    </g>
    <g>
     <defs>
      <linearGradient id="Gradient_1128" gradientUnits="userSpaceOnUse" x1="8263" y1="6207" x2="8263" y2="6718">
       <stop offset="0.1" stop-color="rgb(179,179,179)"/>
       <stop offset="1" stop-color="rgb(229,229,229)"/>
      </linearGradient>
     </defs>
     <path fill="url(#Gradient_1128)" stroke="none" id="Drawing_3_0" d="M 8584,6277 L 8612,6295 8637,6316 8657,6338 8674,6361 8688,6385 8697,6410 8703,6436 8705,6462 8703,6488 8697,6514 8688,6539 8674,6564 8657,6587 8637,6609 8612,6629 8584,6648 8552,6664 8517,6678 8478,6690 8438,6700 8396,6708 8352,6713 8262,6718 8173,6713 8129,6708 8087,6700 8047,6690 8009,6678 7974,6664 7942,6648 7913,6629 7889,6609 7868,6587 7851,6564 7838,6539 7829,6514 7823,6488 7821,6462 7823,6436 7829,6410 7838,6385 7851,6361 7868,6338 7889,6316 7913,6295 7942,6277 7974,6260 8009,6246 8047,6234 8087,6224 8130,6217 8173,6211 8263,6207 8353,6211 8396,6217 8439,6224 8479,6234 8517,6246 8552,6260 8584,6277 Z"/>
     <path fill="none" stroke="rgb(255,255,255)" id="Drawing_3_1" stroke-width="40" stroke-linejoin="round" d="M 8584,6277 C 8745,6370 8745,6555 8584,6648 8423,6741 8102,6741 7942,6648 7781,6555 7781,6370 7942,6277 8103,6184 8424,6184 8584,6277 Z"/>
    </g>
    <g>
     <path fill="none" stroke="rgb(0,0,0)" id="Drawing_4_0" stroke-width="40" stroke-linejoin="round" d="M 7644,7740 L 7821,6463 C 7821,6104 8705,6104 8705,6463 L 8882,7740 C 8882,8251 7644,8251 7644,7740 Z"/>
    </g>
    <g>
     <path fill="rgb(204,204,204)" stroke="none" d="M 8262,6463 L 8262,5491 8174,5389 8262,5287 8351,5389 8262,5491 8262,6463 Z"/>
     <path fill="none" stroke="rgb(0,0,0)" id="Drawing_5_0" stroke-width="40" stroke-linejoin="round" d="M 8262,6463 L 8262,5491 8174,5389 8262,5287 8351,5389 8262,5491 8262,6463 Z"/>
    </g>
    <g>
     <path fill="none" stroke="rgb(51,51,51)" id="Drawing_6_0" stroke-width="40" stroke-linejoin="round" d="M 8351,5185 C 8528,5287 8528,5492 8351,5594"/>
    </g>
    <g>
     <path fill="none" stroke="rgb(51,51,51)" id="Drawing_7_0" stroke-width="40" stroke-linejoin="round" d="M 8174,5185 C 7998,5287 7998,5492 8174,5594"/>
    </g>
    <g>
     <path fill="none" stroke="rgb(51,51,51)" id="Drawing_8_0" stroke-width="40" stroke-linejoin="round" d="M 7997,5133 C 7821,5235 7821,5541 7998,5644"/>
    </g>
    <g>
     <path fill="none" stroke="rgb(51,51,51)" id="Drawing_9_0" stroke-width="40" stroke-linejoin="round" d="M 8528,5133 C 8705,5235 8705,5541 8528,5644"/>
    </g>
    <g>
     <path fill="none" stroke="rgb(51,51,51)" id="Drawing_10_0" stroke-width="40" stroke-linejoin="round" d="M 7820,5031 C 7644,5133 7644,5644 7820,5747"/>
    </g>
    <g>
     <path fill="none" stroke="rgb(51,51,51)" id="Drawing_11_0" stroke-width="40" stroke-linejoin="round" d="M 8705,5031 C 8882,5133 8882,5644 8705,5747"/>
    </g>
    <g>
     <path fill="none" stroke="rgb(51,51,51)" id="Drawing_12_0" stroke-width="40" stroke-linejoin="round" d="M 7644,4929 C 7467,5031 7467,5747 7643,5849"/>
    </g>
    <g>
     <path fill="none" stroke="rgb(51,51,51)" id="Drawing_13_0" stroke-width="40" stroke-linejoin="round" d="M 8882,4929 C 9059,5031 9059,5747 8882,5848"/>
    </g>
   </g>
  </g>
 </g>
</svg>