<?xml version="1.0" encoding="UTF-8"?>

<svg version="1.2" baseProfile="tiny" width="35.37mm" height="37.29mm" viewBox="8881 5090 3537 3729" preserveAspectRatio="xMidYMid" fill-rule="evenodd" stroke-width="28.222" stroke-linejoin="round" xmlns="http://www.w3.org/2000/svg" xmlns:xlink="http://www.w3.org/1999/xlink" xml:space="preserve">
 <g visibility="visible" id="Slide_1">
  <g id="DrawingGroup_1">
   <g>
    <path fill="rgb(221,221,221)" stroke="none" d="M 10854,8798 C 11212,8798 12417,8422 12417,8121 12417,7820 12286,7820 12156,7820 12156,8046 10854,8497 10854,8798 Z"/>
    <path fill="none" stroke="rgb(221,221,221)" id="Drawing_1_0" stroke-linejoin="round" d="M 10854,8798 C 11212,8798 12417,8422 12417,8121 12417,7820 12286,7820 12156,7820 12156,8046 10854,8497 10854,8798 Z"/>
   </g>
   <g id="DrawingGroup_2">
    <g>
     <path fill="rgb(179,179,179)" stroke="none" d="M 11882,8204 L 11302,8540 10854,8540 10854,8272 11882,7677 11882,8204 Z"/>
     <path fill="rgb(180,180,180)" stroke="none" d="M 11302,8540 L 10854,8799 10854,8540 11302,8540 Z M 11882,7677 L 12156,7519 12156,8046 11882,8204 11882,7677 Z M 11869,8212 L 11324,8527 10854,8527 10854,8272 11869,7685 11869,8212 Z"/>
     <path fill="rgb(181,181,181)" stroke="none" d="M 11324,8527 L 10854,8799 10854,8527 11324,8527 Z M 11869,7685 L 12156,7519 12156,8046 11869,8212 11869,7685 Z M 11856,8220 L 11347,8514 10854,8514 10854,8272 11856,7693 11856,8220 Z"/>
     <path fill="rgb(182,182,182)" stroke="none" d="M 11347,8514 L 10854,8799 10854,8514 11347,8514 Z M 11856,7693 L 12156,7519 12156,8046 11856,8220 11856,7693 Z M 11843,8227 L 11369,8501 10854,8501 10854,8272 11843,7700 11843,8227 Z"/>
     <path fill="rgb(183,183,183)" stroke="none" d="M 11369,8501 L 10854,8799 10854,8501 11369,8501 Z M 11843,7700 L 12156,7519 12156,8046 11843,8227 11843,7700 Z M 11830,8235 L 11392,8488 10854,8488 10854,8272 11830,7708 11830,8235 Z"/>
     <path fill="rgb(184,184,184)" stroke="none" d="M 11392,8488 L 10854,8799 10854,8488 11392,8488 Z M 11830,7708 L 12156,7519 12156,8046 11830,8235 11830,7708 Z M 11817,8242 L 11414,8475 10854,8475 10854,8272 11817,7715 11817,8242 Z"/>
     <path fill="rgb(185,185,185)" stroke="none" d="M 11414,8475 L 10854,8799 10854,8475 11414,8475 Z M 11817,7715 L 12156,7519 12156,8046 11817,8242 11817,7715 Z M 11804,8250 L 11437,8462 10854,8462 10854,8272 11804,7723 11804,8250 Z"/>
     <path fill="rgb(186,186,186)" stroke="none" d="M 11437,8462 L 10854,8799 10854,8462 11437,8462 Z M 11804,7723 L 12156,7519 12156,8046 11804,8250 11804,7723 Z M 11791,8257 L 11459,8449 10854,8449 10854,8272 11791,7730 11791,8257 Z"/>
     <path fill="rgb(187,187,187)" stroke="none" d="M 11459,8449 L 10854,8799 10854,8449 11459,8449 Z M 11791,7730 L 12156,7519 12156,8046 11791,8257 11791,7730 Z M 11778,8265 L 11482,8436 10854,8436 10854,8272 11778,7738 11778,8265 Z"/>
     <path fill="rgb(188,188,188)" stroke="none" d="M 11482,8436 L 10854,8799 10854,8436 11482,8436 Z M 11778,7738 L 12156,7519 12156,8046 11778,8265 11778,7738 Z M 11765,8272 L 11504,8423 10854,8423 10854,8272 11765,7745 11765,8272 Z"/>
     <path fill="rgb(189,189,189)" stroke="none" d="M 11504,8423 L 10854,8799 10854,8423 11504,8423 Z M 11765,7745 L 12156,7519 12156,8046 11765,8272 11765,7745 Z M 11752,8280 L 11527,8410 10854,8410 10854,8272 11752,7753 11752,8280 Z"/>
     <path fill="rgb(190,190,190)" stroke="none" d="M 11527,8410 L 10854,8799 10854,8410 11527,8410 Z M 11752,7753 L 12156,7519 12156,8046 11752,8280 11752,7753 Z M 11739,8287 L 11549,8397 10854,8397 10854,8272 11739,7760 11739,8287 Z"/>
     <path fill="rgb(191,191,191)" stroke="none" d="M 11549,8397 L 10854,8799 10854,8397 11549,8397 Z M 11739,7760 L 12156,7519 12156,8046 11739,8287 11739,7760 Z M 11726,8295 L 11572,8384 10854,8384 10854,8272 11726,7768 11726,8295 Z"/>
     <path fill="rgb(192,192,192)" stroke="none" d="M 11572,8384 L 10854,8799 10854,8384 11572,8384 Z M 11726,7768 L 12156,7519 12156,8046 11726,8295 11726,7768 Z M 11713,8302 L 11594,8371 10854,8371 10854,8272 11713,7775 11713,8302 Z"/>
     <path fill="rgb(193,193,193)" stroke="none" d="M 11594,8371 L 10854,8799 10854,8371 11594,8371 Z M 11713,7775 L 12156,7519 12156,8046 11713,8302 11713,7775 Z M 11700,8310 L 11617,8358 10854,8358 10854,8272 11700,7783 11700,8310 Z"/>
     <path fill="rgb(194,194,194)" stroke="none" d="M 11617,8358 L 10854,8799 10854,8358 11617,8358 Z M 11700,7783 L 12156,7519 12156,8046 11700,8310 11700,7783 Z M 11687,8317 L 11639,8345 10854,8345 10854,8272 11687,7790 11687,8317 Z"/>
     <path fill="rgb(195,195,195)" stroke="none" d="M 11639,8345 L 10854,8799 10854,8345 11639,8345 Z M 11687,7790 L 12156,7519 12156,8046 11687,8317 11687,7790 Z M 11674,8325 L 11661,8332 10854,8332 10854,8272 11674,7798 11674,8325 Z"/>
     <path fill="rgb(196,196,196)" stroke="none" d="M 11661,8332 L 10854,8799 10854,8332 11661,8332 Z M 11674,7798 L 12156,7519 12156,8046 11674,8325 11674,7798 Z M 11661,8319 L 10854,8319 10854,8272 11661,7805 11661,8319 Z"/>
     <path fill="rgb(197,197,197)" stroke="none" d="M 11661,8319 L 11661,7805 12156,7519 12156,8046 10854,8799 10854,8319 11661,8319 Z M 11648,8306 L 10854,8306 10854,8272 11648,7813 11648,8306 Z"/>
     <path fill="rgb(198,198,198)" stroke="none" d="M 11648,8306 L 11648,7813 12156,7519 12156,8046 10854,8799 10854,8306 11648,8306 Z M 11635,8293 L 10854,8293 10854,8272 11635,7820 11635,8293 Z"/>
     <path fill="rgb(199,199,199)" stroke="none" d="M 11635,8293 L 11635,7820 12156,7519 12156,8046 10854,8799 10854,8293 11635,8293 Z M 11621,8279 L 10866,8279 10866,8265 11621,7828 11621,8279 Z"/>
     <path fill="rgb(200,200,200)" stroke="none" d="M 10866,8279 L 11621,8279 11621,7828 12156,7519 12156,8046 10854,8799 10854,8272 10866,8265 10866,8279 Z M 11608,8266 L 10879,8266 10879,8258 11608,7836 11608,8266 Z"/>
     <path fill="rgb(201,201,201)" stroke="none" d="M 10879,8266 L 11608,8266 11608,7836 12156,7519 12156,8046 10854,8799 10854,8272 10879,8258 10879,8266 Z M 11595,8253 L 10892,8253 10892,8250 11595,7843 11595,8253 Z"/>
     <path fill="rgb(202,202,202)" stroke="none" d="M 10892,8253 L 11595,8253 11595,7843 12156,7519 12156,8046 10854,8799 10854,8272 10892,8250 10892,8253 Z M 11582,8240 L 10909,8240 11582,7851 11582,8240 Z"/>
     <path fill="rgb(203,203,203)" stroke="none" d="M 11582,8240 L 11582,7851 12156,7519 12156,8046 10854,8799 10854,8272 10909,8240 11582,8240 Z M 11569,8227 L 10932,8227 11569,7858 11569,8227 Z"/>
     <path fill="rgb(204,204,204)" stroke="none" d="M 11569,8227 L 11569,7858 12156,7519 12156,8046 10854,8799 10854,8272 10932,8227 11569,8227 Z M 11556,8214 L 10954,8214 11556,7866 11556,8214 Z"/>
     <path fill="rgb(205,205,205)" stroke="none" d="M 11556,8214 L 11556,7866 12156,7519 12156,8046 10854,8799 10854,8272 10954,8214 11556,8214 Z M 11543,8201 L 10977,8201 11543,7874 11543,8201 Z"/>
     <path fill="rgb(206,206,206)" stroke="none" d="M 11543,8201 L 11543,7874 12156,7519 12156,8046 10854,8799 10854,8272 10977,8201 11543,8201 Z M 11530,8188 L 10999,8188 11530,7881 11530,8188 Z"/>
     <path fill="rgb(207,207,207)" stroke="none" d="M 11530,8188 L 11530,7881 12156,7519 12156,8046 10854,8799 10854,8272 10999,8188 11530,8188 Z M 11517,8175 L 11022,8175 11517,7889 11517,8175 Z"/>
     <path fill="rgb(208,208,208)" stroke="none" d="M 11517,8175 L 11517,7889 12156,7519 12156,8046 10854,8799 10854,8272 11022,8175 11517,8175 Z M 11504,8162 L 11044,8162 11504,7896 11504,8162 Z"/>
     <path fill="rgb(209,209,209)" stroke="none" d="M 11504,8162 L 11504,7896 12156,7519 12156,8046 10854,8799 10854,8272 11044,8162 11504,8162 Z M 11491,8149 L 11067,8149 11491,7904 11491,8149 Z"/>
     <path fill="rgb(210,210,210)" stroke="none" d="M 11491,8149 L 11491,7904 12156,7519 12156,8046 10854,8799 10854,8272 11067,8149 11491,8149 Z M 11478,8136 L 11089,8136 11478,7911 11478,8136 Z"/>
     <path fill="rgb(211,211,211)" stroke="none" d="M 11478,8136 L 11478,7911 12156,7519 12156,8046 10854,8799 10854,8272 11089,8136 11478,8136 Z M 11465,8123 L 11112,8123 11465,7919 11465,8123 Z"/>
     <path fill="rgb(212,212,212)" stroke="none" d="M 11465,8123 L 11465,7919 12156,7519 12156,8046 10854,8799 10854,8272 11112,8123 11465,8123 Z M 11452,8110 L 11134,8110 11452,7926 11452,8110 Z"/>
     <path fill="rgb(213,213,213)" stroke="none" d="M 11452,8110 L 11452,7926 12156,7519 12156,8046 10854,8799 10854,8272 11134,8110 11452,8110 Z M 11439,8097 L 11157,8097 11439,7934 11439,8097 Z"/>
     <path fill="rgb(214,214,214)" stroke="none" d="M 11439,8097 L 11439,7934 12156,7519 12156,8046 10854,8799 10854,8272 11157,8097 11439,8097 Z M 11426,8084 L 11179,8084 11426,7941 11426,8084 Z"/>
     <path fill="rgb(215,215,215)" stroke="none" d="M 11426,8084 L 11426,7941 12156,7519 12156,8046 10854,8799 10854,8272 11179,8084 11426,8084 Z M 11413,8071 L 11202,8071 11413,7949 11413,8071 Z"/>
     <path fill="rgb(216,216,216)" stroke="none" d="M 11413,8071 L 11413,7949 12156,7519 12156,8046 10854,8799 10854,8272 11202,8071 11413,8071 Z M 11400,8058 L 11224,8058 11400,7956 11400,8058 Z"/>
     <path fill="rgb(217,217,217)" stroke="none" d="M 11400,8058 L 11400,7956 12156,7519 12156,8046 10854,8799 10854,8272 11224,8058 11400,8058 Z M 11387,8045 L 11247,8045 11387,7964 11387,8045 Z"/>
     <path fill="rgb(218,218,218)" stroke="none" d="M 11387,8045 L 11387,7964 12156,7519 12156,8046 10854,8799 10854,8272 11247,8045 11387,8045 Z M 11374,8032 L 11269,8032 11374,7971 11374,8032 Z"/>
     <path fill="rgb(219,219,219)" stroke="none" d="M 11374,8032 L 11374,7971 12156,7519 12156,8046 10854,8799 10854,8272 11269,8032 11374,8032 Z M 11360,8018 L 11293,8018 11360,7979 11360,8018 Z"/>
     <path fill="rgb(220,220,220)" stroke="none" d="M 11360,8018 L 11360,7979 12156,7519 12156,8046 10854,8799 10854,8272 11293,8018 11360,8018 Z M 11347,8005 L 11316,8005 11347,7987 11347,8005 Z"/>
     <path fill="rgb(221,221,221)" stroke="none" d="M 11347,8005 L 11347,7987 12156,7519 12156,8046 10854,8799 10854,8272 11316,8005 11347,8005 Z"/>
     <path fill="rgb(222,222,222)" stroke="none" d="M 10854,8799 L 10854,8272 12156,7519 12156,8046 10854,8799 Z"/>
     <path fill="rgb(223,223,223)" stroke="none" d="M 10854,8799 L 10854,8272 12156,7519 12156,8046 10854,8799 Z"/>
     <path fill="rgb(224,224,224)" stroke="none" d="M 10854,8799 L 10854,8272 12156,7519 12156,8046 10854,8799 Z"/>
     <path fill="rgb(225,225,225)" stroke="none" d="M 10854,8799 L 10854,8272 12156,7519 12156,8046 10854,8799 Z"/>
     <path fill="rgb(226,226,226)" stroke="none" d="M 10854,8799 L 10854,8272 12156,7519 12156,8046 10854,8799 Z"/>
     <path fill="rgb(227,227,227)" stroke="none" d="M 10854,8799 L 10854,8272 12156,7519 12156,8046 10854,8799 Z"/>
     <path fill="rgb(229,229,229)" stroke="none" d="M 10854,8799 L 10854,8272 12156,7519 12156,8046 10854,8799 Z"/>
     <path fill="none" stroke="rgb(255,255,255)" id="Drawing_2_0" stroke-width="40" stroke-linejoin="round" d="M 10854,8799 L 10854,8272 12156,7519 12156,8046 10854,8799 Z"/>
    </g>
    <g>
     <defs>
      <linearGradient id="Gradient_1188" gradientUnits="userSpaceOnUse" x1="10528" y1="6390" x2="10528" y2="8272">
       <stop offset="0.1" stop-color="rgb(179,179,179)"/>
       <stop offset="1" stop-color="rgb(229,229,229)"/>
      </linearGradient>
     </defs>
     <path fill="url(#Gradient_1188)" stroke="rgb(255,255,255)" id="Drawing_3_0" stroke-width="40" stroke-linejoin="round" d="M 10854,8272 L 8901,7143 10203,6390 12156,7519 10854,8272 Z"/>
    </g>
    <g>
     <defs>
      <linearGradient id="Gradient_1189" gradientUnits="userSpaceOnUse" x1="8899" y1="7968" x2="10854" y2="7972">
       <stop offset="0.1" stop-color="rgb(179,179,179)"/>
       <stop offset="1" stop-color="rgb(229,229,229)"/>
      </linearGradient>
     </defs>
     <path fill="url(#Gradient_1189)" stroke="rgb(255,255,255)" id="Drawing_4_0" stroke-width="40" stroke-linejoin="round" d="M 8901,7669 L 8901,7142 10854,8271 10854,8798 8901,7669 Z"/>
    </g>
    <g>
     <path fill="none" stroke="rgb(0,0,0)" id="Drawing_5_0" stroke-width="40" stroke-linejoin="round" d="M 8901,7670 L 8901,7143 10203,6390 12156,7519 12156,8046 10854,8799 8901,7670 Z"/>
    </g>
    <g>
     <path fill="rgb(209,97,108)" stroke="none" d="M 10464,8422 L 10464,8196 10594,8271 10594,8497 10464,8422 Z"/>
     <path fill="none" stroke="rgb(127,127,127)" id="Drawing_6_0" stroke-width="40" stroke-linejoin="round" d="M 10464,8422 L 10464,8196 10594,8271 10594,8497 10464,8422 Z"/>
    </g>
    <g>
     <path fill="rgb(204,204,204)" stroke="none" d="M 10333,6465 L 10333,5110 10463,5110 10463,6540 10333,6465 Z"/>
     <path fill="none" stroke="rgb(0,0,0)" id="Drawing_7_0" stroke-width="40" stroke-linejoin="round" d="M 10333,6465 L 10333,5110 10463,5110 10463,6540 10333,6465 Z"/>
    </g>
    <g>
     <path fill="rgb(204,204,204)" stroke="none" d="M 11896,7368 L 11896,6013 12026,6013 12026,7443 11896,7368 Z"/>
     <path fill="none" stroke="rgb(0,0,0)" id="Drawing_8_0" stroke-width="40" stroke-linejoin="round" d="M 11896,7368 L 11896,6013 12026,6013 12026,7443 11896,7368 Z"/>
    </g>
   </g>
  </g>
 </g>
</svg>