<?xml version="1.0" encoding="UTF-8"?>

<svg version="1.2" baseProfile="tiny" width="20.64mm" height="47.3mm" viewBox="7577 18612 2064 4730" preserveAspectRatio="xMidYMid" fill-rule="evenodd" stroke-width="28.222" stroke-linejoin="round" xmlns="http://www.w3.org/2000/svg" xmlns:xlink="http://www.w3.org/1999/xlink" xml:space="preserve">
 <g visibility="visible" id="Slide_1">
  <g id="DrawingGroup_1">
   <g>
    <path fill="rgb(221,221,221)" stroke="none" d="M 7975,23321 C 8356,23321 9053,23065 9416,22832 9779,22599 9675,22202 9294,22202 9294,22202 7961,23322 7975,23321 Z"/>
    <path fill="none" stroke="rgb(221,221,221)" id="Drawing_1_0" stroke-linejoin="round" d="M 7975,23321 C 8356,23321 9053,23065 9416,22832 9779,22599 9675,22202 9294,22202 9294,22202 7961,23322 7975,23321 Z"/>
   </g>
   <g id="DrawingGroup_2">
    <g>
     <path fill="rgb(51,51,51)" stroke="none" d="M 7961,22676 L 7961,20942 9294,20172 9294,22552 9079,22676 7961,22676 Z"/>
     <path fill="rgb(52,52,52)" stroke="none" d="M 9079,22676 L 7961,23322 7961,22676 9079,22676 Z M 7961,22661 L 7961,20942 9294,20172 9294,22552 9105,22661 7961,22661 Z"/>
     <path fill="rgb(53,53,53)" stroke="none" d="M 9105,22661 L 7961,23322 7961,22661 9105,22661 Z M 7961,22645 L 7961,20942 9294,20172 9294,22552 9133,22645 7961,22645 Z"/>
     <path fill="rgb(54,54,54)" stroke="none" d="M 9133,22645 L 7961,23322 7961,22645 9133,22645 Z M 7961,22630 L 7961,20942 9294,20172 9294,22552 9159,22630 7961,22630 Z"/>
     <path fill="rgb(55,55,55)" stroke="none" d="M 9159,22630 L 7961,23322 7961,22630 9159,22630 Z M 7961,22614 L 7961,20942 9294,20172 9294,22552 9187,22614 7961,22614 Z"/>
     <path fill="rgb(56,56,56)" stroke="none" d="M 9187,22614 L 7961,23322 7961,22614 9187,22614 Z M 7961,22599 L 7961,20942 9294,20172 9294,22552 9213,22599 7961,22599 Z"/>
     <path fill="rgb(57,57,57)" stroke="none" d="M 9213,22599 L 7961,23322 7961,22599 9213,22599 Z M 7961,22583 L 7961,20942 9294,20172 9294,22552 9240,22583 7961,22583 Z"/>
     <path fill="rgb(58,58,58)" stroke="none" d="M 9240,22583 L 7961,23322 7961,22583 9240,22583 Z M 7961,22568 L 7961,20942 9294,20172 9294,22552 9266,22568 7961,22568 Z"/>
     <path fill="rgb(59,59,59)" stroke="none" d="M 9266,22568 L 7961,23322 7961,22568 9266,22568 Z M 7961,22552 L 7961,20942 9294,20172 9294,22552 7961,22552 Z"/>
     <path fill="rgb(60,60,60)" stroke="none" d="M 9294,22552 L 7961,23322 7961,22552 9294,22552 Z M 7961,22537 L 7961,20942 9294,20172 9294,22537 7961,22537 Z"/>
     <path fill="rgb(61,61,61)" stroke="none" d="M 9294,22537 L 9294,22552 7961,23322 7961,22537 9294,22537 Z M 7961,22521 L 7961,20942 9294,20172 9294,22521 7961,22521 Z"/>
     <path fill="rgb(62,62,62)" stroke="none" d="M 9294,22521 L 9294,22552 7961,23322 7961,22521 9294,22521 Z M 7961,22506 L 7961,20942 9294,20172 9294,22506 7961,22506 Z"/>
     <path fill="rgb(63,63,63)" stroke="none" d="M 9294,22506 L 9294,22552 7961,23322 7961,22506 9294,22506 Z M 7961,22491 L 7961,20942 9294,20172 9294,22491 7961,22491 Z"/>
     <path fill="rgb(64,64,64)" stroke="none" d="M 9294,22491 L 9294,22552 7961,23322 7961,22491 9294,22491 Z M 7961,22475 L 7961,20942 9294,20172 9294,22475 7961,22475 Z"/>
     <path fill="rgb(65,65,65)" stroke="none" d="M 9294,22475 L 9294,22552 7961,23322 7961,22475 9294,22475 Z M 7961,22460 L 7961,20942 9294,20172 9294,22460 7961,22460 Z"/>
     <path fill="rgb(66,66,66)" stroke="none" d="M 9294,22460 L 9294,22552 7961,23322 7961,22460 9294,22460 Z M 7961,22444 L 7961,20942 9294,20172 9294,22444 7961,22444 Z"/>
     <path fill="rgb(67,67,67)" stroke="none" d="M 9294,22444 L 9294,22552 7961,23322 7961,22444 9294,22444 Z M 7961,22429 L 7961,20942 9294,20172 9294,22429 7961,22429 Z"/>
     <path fill="rgb(68,68,68)" stroke="none" d="M 9294,22429 L 9294,22552 7961,23322 7961,22429 9294,22429 Z M 7961,22413 L 7961,20942 9294,20172 9294,22413 7961,22413 Z"/>
     <path fill="rgb(69,69,69)" stroke="none" d="M 9294,22413 L 9294,22552 7961,23322 7961,22413 9294,22413 Z M 7961,22398 L 7961,20942 9294,20172 9294,22398 7961,22398 Z"/>
     <path fill="rgb(70,70,70)" stroke="none" d="M 9294,22398 L 9294,22552 7961,23322 7961,22398 9294,22398 Z M 7961,22382 L 7961,20942 9294,20172 9294,22382 7961,22382 Z"/>
     <path fill="rgb(71,71,71)" stroke="none" d="M 9294,22382 L 9294,22552 7961,23322 7961,22382 9294,22382 Z M 7961,22367 L 7961,20942 9294,20172 9294,22367 7961,22367 Z"/>
     <path fill="rgb(72,72,72)" stroke="none" d="M 9294,22367 L 9294,22552 7961,23322 7961,22367 9294,22367 Z M 7961,22351 L 7961,20942 9294,20172 9294,22351 7961,22351 Z"/>
     <path fill="rgb(73,73,73)" stroke="none" d="M 9294,22351 L 9294,22552 7961,23322 7961,22351 9294,22351 Z M 7961,22336 L 7961,20942 9294,20172 9294,22336 7961,22336 Z"/>
     <path fill="rgb(74,74,74)" stroke="none" d="M 9294,22336 L 9294,22552 7961,23322 7961,22336 9294,22336 Z M 7961,22321 L 7961,20942 9294,20172 9294,22321 7961,22321 Z"/>
     <path fill="rgb(75,75,75)" stroke="none" d="M 9294,22321 L 9294,22552 7961,23322 7961,22321 9294,22321 Z M 7961,22305 L 7961,20942 9294,20172 9294,22305 7961,22305 Z"/>
     <path fill="rgb(76,76,76)" stroke="none" d="M 9294,22305 L 9294,22552 7961,23322 7961,22305 9294,22305 Z M 7961,22290 L 7961,20942 9294,20172 9294,22290 7961,22290 Z"/>
     <path fill="rgb(77,77,77)" stroke="none" d="M 9294,22290 L 9294,22552 7961,23322 7961,22290 9294,22290 Z M 7961,22274 L 7961,20942 9294,20172 9294,22274 7961,22274 Z"/>
     <path fill="rgb(78,78,78)" stroke="none" d="M 9294,22274 L 9294,22552 7961,23322 7961,22274 9294,22274 Z M 7961,22259 L 7961,20942 9294,20172 9294,22259 7961,22259 Z"/>
     <path fill="rgb(79,79,79)" stroke="none" d="M 9294,22259 L 9294,22552 7961,23322 7961,22259 9294,22259 Z M 7961,22243 L 7961,20942 9294,20172 9294,22243 7961,22243 Z"/>
     <path fill="rgb(80,80,80)" stroke="none" d="M 9294,22243 L 9294,22552 7961,23322 7961,22243 9294,22243 Z M 7961,22228 L 7961,20942 9294,20172 9294,22228 7961,22228 Z"/>
     <path fill="rgb(81,81,81)" stroke="none" d="M 9294,22228 L 9294,22552 7961,23322 7961,22228 9294,22228 Z M 7961,22212 L 7961,20942 9294,20172 9294,22212 7961,22212 Z"/>
     <path fill="rgb(82,82,82)" stroke="none" d="M 9294,22212 L 9294,22552 7961,23322 7961,22212 9294,22212 Z M 7961,22197 L 7961,20942 9294,20172 9294,22197 7961,22197 Z"/>
     <path fill="rgb(83,83,83)" stroke="none" d="M 9294,22197 L 9294,22552 7961,23322 7961,22197 9294,22197 Z M 7961,22181 L 7961,20942 9294,20172 9294,22181 7961,22181 Z"/>
     <path fill="rgb(84,84,84)" stroke="none" d="M 9294,22181 L 9294,22552 7961,23322 7961,22181 9294,22181 Z M 7961,22166 L 7961,20942 9294,20172 9294,22166 7961,22166 Z"/>
     <path fill="rgb(85,85,85)" stroke="none" d="M 9294,22166 L 9294,22552 7961,23322 7961,22166 9294,22166 Z M 7961,22151 L 7961,20942 9294,20172 9294,22151 7961,22151 Z"/>
     <path fill="rgb(86,86,86)" stroke="none" d="M 9294,22151 L 9294,22552 7961,23322 7961,22151 9294,22151 Z M 7961,22135 L 7961,20942 9294,20172 9294,22135 7961,22135 Z"/>
     <path fill="rgb(87,87,87)" stroke="none" d="M 9294,22135 L 9294,22552 7961,23322 7961,22135 9294,22135 Z M 7961,22120 L 7961,20942 9294,20172 9294,22120 7961,22120 Z"/>
     <path fill="rgb(88,88,88)" stroke="none" d="M 9294,22120 L 9294,22552 7961,23322 7961,22120 9294,22120 Z M 7961,22104 L 7961,20942 9294,20172 9294,22104 7961,22104 Z"/>
     <path fill="rgb(89,89,89)" stroke="none" d="M 9294,22104 L 9294,22552 7961,23322 7961,22104 9294,22104 Z M 7961,22089 L 7961,20942 9294,20172 9294,22089 7961,22089 Z"/>
     <path fill="rgb(90,90,90)" stroke="none" d="M 9294,22089 L 9294,22552 7961,23322 7961,22089 9294,22089 Z M 7961,22073 L 7961,20942 9294,20172 9294,22073 7961,22073 Z"/>
     <path fill="rgb(91,91,91)" stroke="none" d="M 9294,22073 L 9294,22552 7961,23322 7961,22073 9294,22073 Z M 9294,20173 L 9294,22058 7961,22058 7961,20942 9292,20173 9294,20173 Z"/>
     <path fill="rgb(92,92,92)" stroke="none" d="M 9294,22058 L 9294,22552 7961,23322 7961,22058 9294,22058 Z M 9292,20173 L 9294,20172 9294,20173 9292,20173 Z M 9286,20189 L 9286,22042 7961,22042 7961,20942 9265,20189 9286,20189 Z"/>
     <path fill="rgb(93,93,93)" stroke="none" d="M 9286,22042 L 9286,20189 9265,20189 9294,20172 9294,22552 7961,23322 7961,22042 9286,22042 Z M 9271,20204 L 9271,22027 7961,22027 7961,20942 9239,20204 9271,20204 Z"/>
     <path fill="rgb(94,94,94)" stroke="none" d="M 9271,22027 L 9271,20204 9239,20204 9294,20172 9294,22552 7961,23322 7961,22027 9271,22027 Z M 9255,20220 L 9255,22011 7961,22011 7961,20942 9211,20220 9255,20220 Z"/>
     <path fill="rgb(95,95,95)" stroke="none" d="M 9255,22011 L 9255,20220 9211,20220 9294,20172 9294,22552 7961,23322 7961,22011 9255,22011 Z M 9240,20235 L 9240,21996 7961,21996 7961,20942 9185,20235 9240,20235 Z"/>
     <path fill="rgb(96,96,96)" stroke="none" d="M 9240,21996 L 9240,20235 9185,20235 9294,20172 9294,22552 7961,23322 7961,21996 9240,21996 Z M 9225,20250 L 9225,21981 7961,21981 7961,20942 9159,20250 9225,20250 Z"/>
     <path fill="rgb(97,97,97)" stroke="none" d="M 9225,21981 L 9225,20250 9159,20250 9294,20172 9294,22552 7961,23322 7961,21981 9225,21981 Z M 9209,20266 L 9209,21965 7961,21965 7961,20942 9131,20266 9209,20266 Z"/>
     <path fill="rgb(98,98,98)" stroke="none" d="M 9209,21965 L 9209,20266 9131,20266 9294,20172 9294,22552 7961,23322 7961,21965 9209,21965 Z M 9194,20281 L 9194,21950 7961,21950 7961,20942 9105,20281 9194,20281 Z"/>
     <path fill="rgb(99,99,99)" stroke="none" d="M 9194,21950 L 9194,20281 9105,20281 9294,20172 9294,22552 7961,23322 7961,21950 9194,21950 Z M 9178,20297 L 9178,21934 7961,21934 7961,20942 9078,20297 9178,20297 Z"/>
     <path fill="rgb(100,100,100)" stroke="none" d="M 9178,21934 L 9178,20297 9078,20297 9294,20172 9294,22552 7961,23322 7961,21934 9178,21934 Z M 9163,20312 L 9163,21919 7961,21919 7961,20942 9052,20312 9163,20312 Z"/>
     <path fill="rgb(101,101,101)" stroke="none" d="M 9163,21919 L 9163,20312 9052,20312 9294,20172 9294,22552 7961,23322 7961,21919 9163,21919 Z M 9147,20328 L 9147,21903 7961,21903 7961,20942 9024,20328 9147,20328 Z"/>
     <path fill="rgb(102,102,102)" stroke="none" d="M 9147,21903 L 9147,20328 9024,20328 9294,20172 9294,22552 7961,23322 7961,21903 9147,21903 Z M 9132,20343 L 9132,21888 7961,21888 7961,20942 8998,20343 9132,20343 Z"/>
     <path fill="rgb(103,103,103)" stroke="none" d="M 9132,21888 L 9132,20343 8998,20343 9294,20172 9294,22552 7961,23322 7961,21888 9132,21888 Z M 9116,20359 L 9116,21872 7961,21872 7961,20942 8970,20359 9116,20359 Z"/>
     <path fill="rgb(104,104,104)" stroke="none" d="M 9116,21872 L 9116,20359 8970,20359 9294,20172 9294,22552 7961,23322 7961,21872 9116,21872 Z M 9101,20374 L 9101,21857 7961,21857 7961,20942 8944,20374 9101,20374 Z"/>
     <path fill="rgb(105,105,105)" stroke="none" d="M 9101,21857 L 9101,20374 8944,20374 9294,20172 9294,22552 7961,23322 7961,21857 9101,21857 Z M 9085,20390 L 9085,21841 7961,21841 7961,20942 8917,20390 9085,20390 Z"/>
     <path fill="rgb(106,106,106)" stroke="none" d="M 9085,21841 L 9085,20390 8917,20390 9294,20172 9294,22552 7961,23322 7961,21841 9085,21841 Z M 9070,20405 L 9070,21826 7961,21826 7961,20942 8891,20405 9070,20405 Z"/>
     <path fill="rgb(107,107,107)" stroke="none" d="M 9070,21826 L 9070,20405 8891,20405 9294,20172 9294,22552 7961,23322 7961,21826 9070,21826 Z M 9055,20420 L 9055,21811 7961,21811 7961,20942 8865,20420 9055,20420 Z"/>
     <path fill="rgb(108,108,108)" stroke="none" d="M 9055,21811 L 9055,20420 8865,20420 9294,20172 9294,22552 7961,23322 7961,21811 9055,21811 Z M 9039,20436 L 9039,21795 7961,21795 7961,20942 8837,20436 9039,20436 Z"/>
     <path fill="rgb(109,109,109)" stroke="none" d="M 9039,21795 L 9039,20436 8837,20436 9294,20172 9294,22552 7961,23322 7961,21795 9039,21795 Z M 9024,20451 L 9024,21780 7961,21780 7961,20942 8811,20451 9024,20451 Z"/>
     <path fill="rgb(110,110,110)" stroke="none" d="M 9024,21780 L 9024,20451 8811,20451 9294,20172 9294,22552 7961,23322 7961,21780 9024,21780 Z M 9008,20467 L 9008,21764 7961,21764 7961,20942 8783,20467 9008,20467 Z"/>
     <path fill="rgb(111,111,111)" stroke="none" d="M 9008,21764 L 9008,20467 8783,20467 9294,20172 9294,22552 7961,23322 7961,21764 9008,21764 Z M 8993,20482 L 8993,21749 7961,21749 7961,20942 8757,20482 8993,20482 Z"/>
     <path fill="rgb(112,112,112)" stroke="none" d="M 8993,21749 L 8993,20482 8757,20482 9294,20172 9294,22552 7961,23322 7961,21749 8993,21749 Z M 8977,20498 L 8977,21733 7961,21733 7961,20942 8730,20498 8977,20498 Z"/>
     <path fill="rgb(113,113,113)" stroke="none" d="M 8977,21733 L 8977,20498 8730,20498 9294,20172 9294,22552 7961,23322 7961,21733 8977,21733 Z M 8962,20513 L 8962,21718 7961,21718 7961,20942 8704,20513 8962,20513 Z"/>
     <path fill="rgb(114,114,114)" stroke="none" d="M 8962,21718 L 8962,20513 8704,20513 9294,20172 9294,22552 7961,23322 7961,21718 8962,21718 Z M 8946,20529 L 8946,21702 7961,21702 7961,20942 8676,20529 8946,20529 Z"/>
     <path fill="rgb(115,115,115)" stroke="none" d="M 8946,21702 L 8946,20529 8676,20529 9294,20172 9294,22552 7961,23322 7961,21702 8946,21702 Z M 8931,20544 L 8931,21687 7961,21687 7961,20942 8650,20544 8931,20544 Z"/>
     <path fill="rgb(116,116,116)" stroke="none" d="M 8931,21687 L 8931,20544 8650,20544 9294,20172 9294,22552 7961,23322 7961,21687 8931,21687 Z M 8915,20560 L 8915,21671 7961,21671 7961,20942 8622,20560 8915,20560 Z"/>
     <path fill="rgb(117,117,117)" stroke="none" d="M 8915,21671 L 8915,20560 8622,20560 9294,20172 9294,22552 7961,23322 7961,21671 8915,21671 Z M 8900,20575 L 8900,21656 7961,21656 7961,20942 8596,20575 8900,20575 Z"/>
     <path fill="rgb(118,118,118)" stroke="none" d="M 8900,21656 L 8900,20575 8596,20575 9294,20172 9294,22552 7961,23322 7961,21656 8900,21656 Z M 8884,20590 L 8884,21641 7961,21641 7961,20942 8570,20590 8884,20590 Z"/>
     <path fill="rgb(119,119,119)" stroke="none" d="M 8884,21641 L 8884,20590 8570,20590 9294,20172 9294,22552 7961,23322 7961,21641 8884,21641 Z M 8869,20606 L 8869,21625 7961,21625 7961,20942 8543,20606 8869,20606 Z"/>
     <path fill="rgb(120,120,120)" stroke="none" d="M 8869,21625 L 8869,20606 8543,20606 9294,20172 9294,22552 7961,23322 7961,21625 8869,21625 Z M 8854,20621 L 8854,21610 7961,21610 7961,20942 8517,20621 8854,20621 Z"/>
     <path fill="rgb(121,121,121)" stroke="none" d="M 8854,21610 L 8854,20621 8517,20621 9294,20172 9294,22552 7961,23322 7961,21610 8854,21610 Z M 8838,20637 L 8838,21594 7961,21594 7961,20942 8489,20637 8838,20637 Z"/>
     <path fill="rgb(122,122,122)" stroke="none" d="M 8838,21594 L 8838,20637 8489,20637 9294,20172 9294,22552 7961,23322 7961,21594 8838,21594 Z M 8823,20652 L 8823,21579 7961,21579 7961,20942 8463,20652 8823,20652 Z"/>
     <path fill="rgb(123,123,123)" stroke="none" d="M 8823,21579 L 8823,20652 8463,20652 9294,20172 9294,22552 7961,23322 7961,21579 8823,21579 Z M 8807,20668 L 8807,21563 7961,21563 7961,20942 8435,20668 8807,20668 Z"/>
     <path fill="rgb(124,124,124)" stroke="none" d="M 8807,21563 L 8807,20668 8435,20668 9294,20172 9294,22552 7961,23322 7961,21563 8807,21563 Z M 8792,20683 L 8792,21548 7961,21548 7961,20942 8409,20683 8792,20683 Z"/>
     <path fill="rgb(125,125,125)" stroke="none" d="M 8792,21548 L 8792,20683 8409,20683 9294,20172 9294,22552 7961,23322 7961,21548 8792,21548 Z M 8776,20699 L 8776,21532 7961,21532 7961,20942 8382,20699 8776,20699 Z"/>
     <path fill="rgb(126,126,126)" stroke="none" d="M 8776,21532 L 8776,20699 8382,20699 9294,20172 9294,22552 7961,23322 7961,21532 8776,21532 Z M 8761,20714 L 8761,21517 7961,21517 7961,20942 8356,20714 8761,20714 Z"/>
     <path fill="rgb(127,127,127)" stroke="none" d="M 8761,21517 L 8761,20714 8356,20714 9294,20172 9294,22552 7961,23322 7961,21517 8761,21517 Z M 8745,20730 L 8745,21501 7974,21501 7974,20934 8328,20730 8745,20730 Z"/>
     <path fill="rgb(128,128,128)" stroke="none" d="M 7974,21501 L 8745,21501 8745,20730 8328,20730 9294,20172 9294,22552 7961,23322 7961,20942 7974,20934 7974,21501 Z M 8730,20745 L 8730,21486 7989,21486 7989,20926 8302,20745 8730,20745 Z"/>
     <path fill="rgb(129,129,129)" stroke="none" d="M 7989,21486 L 8730,21486 8730,20745 8302,20745 9294,20172 9294,22552 7961,23322 7961,20942 7989,20926 7989,21486 Z M 8714,20761 L 8714,21470 8005,21470 8005,20917 8274,20761 8714,20761 Z"/>
     <path fill="rgb(130,130,130)" stroke="none" d="M 8005,21470 L 8714,21470 8714,20761 8274,20761 9294,20172 9294,22552 7961,23322 7961,20942 8005,20917 8005,21470 Z M 8699,20776 L 8699,21455 8020,21455 8020,20908 8248,20776 8699,20776 Z"/>
     <path fill="rgb(131,131,131)" stroke="none" d="M 8020,21455 L 8699,21455 8699,20776 8248,20776 9294,20172 9294,22552 7961,23322 7961,20942 8020,20908 8020,21455 Z M 8684,20791 L 8684,21440 8035,21440 8035,20899 8222,20791 8684,20791 Z"/>
     <path fill="rgb(132,132,132)" stroke="none" d="M 8035,21440 L 8684,21440 8684,20791 8222,20791 9294,20172 9294,22552 7961,23322 7961,20942 8035,20899 8035,21440 Z M 8668,20807 L 8668,21424 8051,21424 8051,20890 8195,20807 8668,20807 Z"/>
     <path fill="rgb(133,133,133)" stroke="none" d="M 8051,21424 L 8668,21424 8668,20807 8195,20807 9294,20172 9294,22552 7961,23322 7961,20942 8051,20890 8051,21424 Z M 8653,20822 L 8653,21409 8066,21409 8066,20881 8169,20822 8653,20822 Z"/>
     <path fill="rgb(134,134,134)" stroke="none" d="M 8066,21409 L 8653,21409 8653,20822 8169,20822 9294,20172 9294,22552 7961,23322 7961,20942 8066,20881 8066,21409 Z M 8637,20838 L 8637,21393 8082,21393 8082,20872 8141,20838 8637,20838 Z"/>
     <path fill="rgb(135,135,135)" stroke="none" d="M 8082,21393 L 8637,21393 8637,20838 8141,20838 9294,20172 9294,22552 7961,23322 7961,20942 8082,20872 8082,21393 Z M 8622,20853 L 8622,21378 8097,21378 8097,20863 8115,20853 8622,20853 Z"/>
     <path fill="rgb(136,136,136)" stroke="none" d="M 8097,21378 L 8622,21378 8622,20853 8115,20853 9294,20172 9294,22552 7961,23322 7961,20942 8097,20863 8097,21378 Z M 8113,20869 L 8606,20869 8606,21362 8113,21362 8113,20869 Z"/>
     <path fill="rgb(137,137,137)" stroke="none" d="M 8113,20869 L 8113,21362 8606,21362 8606,20869 8113,20869 Z M 8128,20884 L 8591,20884 8591,21347 8128,21347 8128,20884 Z M 7961,23322 L 7961,20942 9294,20172 9294,22552 7961,23322 Z"/>
     <path fill="rgb(138,138,138)" stroke="none" d="M 8128,20884 L 8128,21347 8591,21347 8591,20884 8128,20884 Z M 8144,20900 L 8575,20900 8575,21331 8144,21331 8144,20900 Z M 7961,23322 L 7961,20942 9294,20172 9294,22552 7961,23322 Z"/>
     <path fill="rgb(139,139,139)" stroke="none" d="M 8144,20900 L 8144,21331 8575,21331 8575,20900 8144,20900 Z M 8159,20915 L 8560,20915 8560,21316 8159,21316 8159,20915 Z M 7961,23322 L 7961,20942 9294,20172 9294,22552 7961,23322 Z"/>
     <path fill="rgb(140,140,140)" stroke="none" d="M 8159,20915 L 8159,21316 8560,21316 8560,20915 8159,20915 Z M 8175,20931 L 8544,20931 8544,21300 8175,21300 8175,20931 Z M 7961,23322 L 7961,20942 9294,20172 9294,22552 7961,23322 Z"/>
     <path fill="rgb(141,141,141)" stroke="none" d="M 8175,20931 L 8175,21300 8544,21300 8544,20931 8175,20931 Z M 8190,20946 L 8529,20946 8529,21285 8190,21285 8190,20946 Z M 7961,23322 L 7961,20942 9294,20172 9294,22552 7961,23322 Z"/>
     <path fill="rgb(142,142,142)" stroke="none" d="M 8190,20946 L 8190,21285 8529,21285 8529,20946 8190,20946 Z M 8205,20961 L 8514,20961 8514,21270 8205,21270 8205,20961 Z M 7961,23322 L 7961,20942 9294,20172 9294,22552 7961,23322 Z"/>
     <path fill="rgb(143,143,143)" stroke="none" d="M 8205,20961 L 8205,21270 8514,21270 8514,20961 8205,20961 Z M 8221,20977 L 8498,20977 8498,21254 8221,21254 8221,20977 Z M 7961,23322 L 7961,20942 9294,20172 9294,22552 7961,23322 Z"/>
     <path fill="rgb(144,144,144)" stroke="none" d="M 8221,20977 L 8221,21254 8498,21254 8498,20977 8221,20977 Z M 8236,20992 L 8483,20992 8483,21239 8236,21239 8236,20992 Z M 7961,23322 L 7961,20942 9294,20172 9294,22552 7961,23322 Z"/>
     <path fill="rgb(145,145,145)" stroke="none" d="M 8236,20992 L 8236,21239 8483,21239 8483,20992 8236,20992 Z M 8252,21008 L 8467,21008 8467,21223 8252,21223 8252,21008 Z M 7961,23322 L 7961,20942 9294,20172 9294,22552 7961,23322 Z"/>
     <path fill="rgb(146,146,146)" stroke="none" d="M 8252,21008 L 8252,21223 8467,21223 8467,21008 8252,21008 Z M 8267,21023 L 8452,21023 8452,21208 8267,21208 8267,21023 Z M 7961,23322 L 7961,20942 9294,20172 9294,22552 7961,23322 Z"/>
     <path fill="rgb(147,147,147)" stroke="none" d="M 8267,21023 L 8267,21208 8452,21208 8452,21023 8267,21023 Z M 8283,21039 L 8436,21039 8436,21192 8283,21192 8283,21039 Z M 7961,23322 L 7961,20942 9294,20172 9294,22552 7961,23322 Z"/>
     <path fill="rgb(148,148,148)" stroke="none" d="M 8283,21039 L 8283,21192 8436,21192 8436,21039 8283,21039 Z M 8298,21054 L 8421,21054 8421,21177 8298,21177 8298,21054 Z M 7961,23322 L 7961,20942 9294,20172 9294,22552 7961,23322 Z"/>
     <path fill="rgb(149,149,149)" stroke="none" d="M 8298,21054 L 8298,21177 8421,21177 8421,21054 8298,21054 Z M 8314,21070 L 8405,21070 8405,21161 8314,21161 8314,21070 Z M 7961,23322 L 7961,20942 9294,20172 9294,22552 7961,23322 Z"/>
     <path fill="rgb(150,150,150)" stroke="none" d="M 8314,21070 L 8314,21161 8405,21161 8405,21070 8314,21070 Z M 8329,21085 L 8390,21085 8390,21146 8329,21146 8329,21085 Z M 7961,23322 L 7961,20942 9294,20172 9294,22552 7961,23322 Z"/>
     <path fill="rgb(151,151,151)" stroke="none" d="M 8329,21085 L 8329,21146 8390,21146 8390,21085 8329,21085 Z M 8345,21101 L 8374,21101 8374,21130 8345,21130 8345,21101 Z M 7961,23322 L 7961,20942 9294,20172 9294,22552 7961,23322 Z"/>
     <path fill="rgb(153,153,153)" stroke="none" d="M 8345,21101 L 8345,21130 8374,21130 8374,21101 8345,21101 Z M 7961,23322 L 7961,20942 9294,20172 9294,22552 7961,23322 Z"/>
     <path fill="none" stroke="rgb(178,178,178)" id="Drawing_2_0" stroke-width="40" stroke-linejoin="round" d="M 7961,23322 L 7961,20942 9294,20172 9294,22552 7961,23322 Z"/>
    </g>
    <g>
     <defs>
      <linearGradient id="Gradient_1196" gradientUnits="userSpaceOnUse" x1="8445" y1="19962" x2="8445" y2="20942">
       <stop offset="0.1" stop-color="rgb(51,51,51)"/>
       <stop offset="1" stop-color="rgb(153,153,153)"/>
      </linearGradient>
     </defs>
     <path fill="url(#Gradient_1196)" stroke="rgb(178,178,178)" id="Drawing_3_0" stroke-width="40" stroke-linejoin="round" d="M 7961,20942 L 7597,20732 8931,19962 9294,20172 7961,20942 Z"/>
    </g>
    <g>
     <defs>
      <linearGradient id="Gradient_1197" gradientUnits="userSpaceOnUse" x1="7595" y1="22027" x2="7963" y2="22027">
       <stop offset="0.1" stop-color="rgb(51,51,51)"/>
       <stop offset="1" stop-color="rgb(153,153,153)"/>
      </linearGradient>
     </defs>
     <path fill="url(#Gradient_1197)" stroke="rgb(178,178,178)" id="Drawing_4_0" stroke-width="40" stroke-linejoin="round" d="M 7597,23112 L 7597,20732 7961,20942 7961,23322 7597,23112 Z"/>
    </g>
    <g>
     <path fill="none" stroke="rgb(0,0,0)" id="Drawing_5_0" stroke-width="40" stroke-linejoin="round" d="M 7597,23112 L 7597,20732 8931,19962 9294,20172 9294,22552 7961,23322 7597,23112 Z"/>
    </g>
    <g>
     <path fill="rgb(153,255,102)" stroke="none" d="M 7718,21362 L 7718,21222 7839,21292 7839,21432 7718,21362 Z"/>
     <path fill="none" stroke="rgb(51,51,51)" id="Drawing_6_0" stroke-width="40" stroke-linejoin="round" d="M 7718,21362 L 7718,21222 7839,21292 7839,21432 7718,21362 Z"/>
    </g>
    <g>
     <defs>
      <linearGradient id="Gradient_1198" gradientUnits="userSpaceOnUse" x1="9111" y1="20102" x2="9113" y2="18632">
       <stop offset="0.1" stop-color="rgb(102,102,102)"/>
       <stop offset="1" stop-color="rgb(153,153,153)"/>
      </linearGradient>
     </defs>
     <path fill="url(#Gradient_1198)" stroke="rgb(0,0,0)" id="Drawing_7_0" stroke-width="40" stroke-linejoin="round" d="M 9052,20032 L 9052,18632 9173,18632 9173,20102 9052,20032 Z"/>
    </g>
   </g>
  </g>
 </g>
</svg>