<?xml version="1.0" encoding="UTF-8"?>

<svg version="1.2" baseProfile="tiny" width="35.32mm" height="23.6mm" viewBox="4500 16433 3532 2360" preserveAspectRatio="xMidYMid" fill-rule="evenodd" stroke-width="28.222" stroke-linejoin="round" xmlns="http://www.w3.org/2000/svg" xmlns:xlink="http://www.w3.org/1999/xlink" xml:space="preserve">
 <g visibility="visible" id="Slide_1">
  <g id="DrawingGroup_1">
   <g>
    <path fill="rgb(221,221,221)" stroke="none" d="M 6727,18773 C 7003,18773 8031,18483 8031,18251 8031,18019 8006,17903 7730,17903 7730,18077 6727,18540 6727,18773 Z"/>
    <path fill="none" stroke="rgb(221,221,221)" id="Drawing_1_0" stroke-linejoin="round" d="M 6727,18773 C 7003,18773 8031,18483 8031,18251 8031,18019 8006,17903 7730,17903 7730,18077 6727,18540 6727,18773 Z"/>
   </g>
   <g id="DrawingGroup_2">
    <g>
     <defs>
      <linearGradient id="Gradient_1150" gradientUnits="userSpaceOnUse" x1="4517" y1="17901" x2="6728" y2="17905">
       <stop offset="0.1" stop-color="rgb(51,51,51)"/>
       <stop offset="1" stop-color="rgb(153,153,153)"/>
      </linearGradient>
     </defs>
     <path fill="url(#Gradient_1150)" stroke="rgb(178,178,178)" id="Drawing_2_0" stroke-width="40" stroke-linejoin="round" d="M 4520,17497 L 4520,17033 6727,18309 6727,18773 4520,17497 Z"/>
    </g>
    <g>
     <path fill="rgb(51,51,51)" stroke="none" d="M 7539,18303 L 7106,18554 6727,18554 6727,18309 7539,17839 7539,18303 Z"/>
     <path fill="rgb(52,52,52)" stroke="none" d="M 7106,18554 L 6727,18773 6727,18554 7106,18554 Z M 7539,17839 L 7730,17729 7730,18193 7539,18303 7539,17839 Z M 7529,18309 L 7123,18544 6727,18544 6727,18309 7529,17845 7529,18309 Z"/>
     <path fill="rgb(54,54,54)" stroke="none" d="M 7123,18544 L 6727,18773 6727,18544 7123,18544 Z M 7529,17845 L 7730,17729 7730,18193 7529,18309 7529,17845 Z M 7519,18315 L 7140,18534 6727,18534 6727,18309 7519,17851 7519,18315 Z"/>
     <path fill="rgb(56,56,56)" stroke="none" d="M 7140,18534 L 6727,18773 6727,18534 7140,18534 Z M 7519,17851 L 7730,17729 7730,18193 7519,18315 7519,17851 Z M 7509,18321 L 7158,18524 6727,18524 6727,18309 7509,17857 7509,18321 Z"/>
     <path fill="rgb(58,58,58)" stroke="none" d="M 7158,18524 L 6727,18773 6727,18524 7158,18524 Z M 7509,17857 L 7730,17729 7730,18193 7509,18321 7509,17857 Z M 7499,18327 L 7175,18514 6727,18514 6727,18309 7499,17863 7499,18327 Z"/>
     <path fill="rgb(60,60,60)" stroke="none" d="M 7175,18514 L 6727,18773 6727,18514 7175,18514 Z M 7499,17863 L 7730,17729 7730,18193 7499,18327 7499,17863 Z M 7489,18332 L 7192,18504 6727,18504 6727,18309 7489,17868 7489,18332 Z"/>
     <path fill="rgb(62,62,62)" stroke="none" d="M 7192,18504 L 6727,18773 6727,18504 7192,18504 Z M 7489,17868 L 7730,17729 7730,18193 7489,18332 7489,17868 Z M 7479,18338 L 7209,18494 6727,18494 6727,18309 7479,17874 7479,18338 Z"/>
     <path fill="rgb(64,64,64)" stroke="none" d="M 7209,18494 L 6727,18773 6727,18494 7209,18494 Z M 7479,17874 L 7730,17729 7730,18193 7479,18338 7479,17874 Z M 7469,18344 L 7227,18484 6727,18484 6727,18309 7469,17880 7469,18344 Z"/>
     <path fill="rgb(66,66,66)" stroke="none" d="M 7227,18484 L 6727,18773 6727,18484 7227,18484 Z M 7469,17880 L 7730,17729 7730,18193 7469,18344 7469,17880 Z M 7459,18350 L 7244,18474 6727,18474 6727,18309 7459,17886 7459,18350 Z"/>
     <path fill="rgb(68,68,68)" stroke="none" d="M 7244,18474 L 6727,18773 6727,18474 7244,18474 Z M 7459,17886 L 7730,17729 7730,18193 7459,18350 7459,17886 Z M 7449,18355 L 7261,18464 6727,18464 6727,18309 7449,17891 7449,18355 Z"/>
     <path fill="rgb(70,70,70)" stroke="none" d="M 7261,18464 L 6727,18773 6727,18464 7261,18464 Z M 7449,17891 L 7730,17729 7730,18193 7449,18355 7449,17891 Z M 7439,18361 L 7279,18454 6727,18454 6727,18309 7439,17897 7439,18361 Z"/>
     <path fill="rgb(72,72,72)" stroke="none" d="M 7279,18454 L 6727,18773 6727,18454 7279,18454 Z M 7439,17897 L 7730,17729 7730,18193 7439,18361 7439,17897 Z M 7429,18367 L 7296,18444 6727,18444 6727,18309 7429,17903 7429,18367 Z"/>
     <path fill="rgb(74,74,74)" stroke="none" d="M 7296,18444 L 6727,18773 6727,18444 7296,18444 Z M 7429,17903 L 7730,17729 7730,18193 7429,18367 7429,17903 Z M 7419,18373 L 7313,18434 6727,18434 6727,18309 7419,17909 7419,18373 Z"/>
     <path fill="rgb(76,76,76)" stroke="none" d="M 7313,18434 L 6727,18773 6727,18434 7313,18434 Z M 7419,17909 L 7730,17729 7730,18193 7419,18373 7419,17909 Z M 7409,18379 L 7331,18424 6727,18424 6727,18309 7409,17915 7409,18379 Z"/>
     <path fill="rgb(78,78,78)" stroke="none" d="M 7331,18424 L 6727,18773 6727,18424 7331,18424 Z M 7409,17915 L 7730,17729 7730,18193 7409,18379 7409,17915 Z M 7398,18385 L 7350,18413 6727,18413 6727,18309 7398,17921 7398,18385 Z"/>
     <path fill="rgb(80,80,80)" stroke="none" d="M 7350,18413 L 6727,18773 6727,18413 7350,18413 Z M 7398,17921 L 7730,17729 7730,18193 7398,18385 7398,17921 Z M 7388,18391 L 7367,18403 6727,18403 6727,18309 7388,17927 7388,18391 Z"/>
     <path fill="rgb(82,82,82)" stroke="none" d="M 7367,18403 L 6727,18773 6727,18403 7367,18403 Z M 7388,17927 L 7730,17729 7730,18193 7388,18391 7388,17927 Z M 7378,18393 L 6727,18393 6727,18309 7378,17933 7378,18393 Z"/>
     <path fill="rgb(84,84,84)" stroke="none" d="M 7378,18393 L 7378,17933 7730,17729 7730,18193 6727,18773 6727,18393 7378,18393 Z M 7368,18383 L 6727,18383 6727,18309 7368,17938 7368,18383 Z"/>
     <path fill="rgb(86,86,86)" stroke="none" d="M 7368,18383 L 7368,17938 7730,17729 7730,18193 6727,18773 6727,18383 7368,18383 Z M 7358,18373 L 6727,18373 6727,18309 7358,17944 7358,18373 Z"/>
     <path fill="rgb(88,88,88)" stroke="none" d="M 7358,18373 L 7358,17944 7730,17729 7730,18193 6727,18773 6727,18373 7358,18373 Z M 7348,18363 L 6727,18363 6727,18309 7348,17950 7348,18363 Z"/>
     <path fill="rgb(90,90,90)" stroke="none" d="M 7348,18363 L 7348,17950 7730,17729 7730,18193 6727,18773 6727,18363 7348,18363 Z M 7338,18353 L 6727,18353 6727,18309 7338,17956 7338,18353 Z"/>
     <path fill="rgb(92,92,92)" stroke="none" d="M 7338,18353 L 7338,17956 7730,17729 7730,18193 6727,18773 6727,18353 7338,18353 Z M 7328,18343 L 6727,18343 6727,18309 7328,17961 7328,18343 Z"/>
     <path fill="rgb(94,94,94)" stroke="none" d="M 7328,18343 L 7328,17961 7730,17729 7730,18193 6727,18773 6727,18343 7328,18343 Z M 7318,18333 L 6735,18333 6735,18304 7318,17967 7318,18333 Z"/>
     <path fill="rgb(96,96,96)" stroke="none" d="M 6735,18333 L 7318,18333 7318,17967 7730,17729 7730,18193 6727,18773 6727,18309 6735,18304 6735,18333 Z M 7308,18323 L 6745,18323 6745,18299 7308,17973 7308,18323 Z"/>
     <path fill="rgb(98,98,98)" stroke="none" d="M 6745,18323 L 7308,18323 7308,17973 7730,17729 7730,18193 6727,18773 6727,18309 6745,18299 6745,18323 Z M 7298,18313 L 6755,18313 6755,18293 7298,17979 7298,18313 Z"/>
     <path fill="rgb(100,100,100)" stroke="none" d="M 6755,18313 L 7298,18313 7298,17979 7730,17729 7730,18193 6727,18773 6727,18309 6755,18293 6755,18313 Z M 7288,18303 L 6765,18303 6765,18287 7288,17985 7288,18303 Z"/>
     <path fill="rgb(102,102,102)" stroke="none" d="M 6765,18303 L 7288,18303 7288,17985 7730,17729 7730,18193 6727,18773 6727,18309 6765,18287 6765,18303 Z M 7278,18293 L 6775,18293 6775,18281 7278,17990 7278,18293 Z"/>
     <path fill="rgb(103,103,103)" stroke="none" d="M 6775,18293 L 7278,18293 7278,17990 7730,17729 7730,18193 6727,18773 6727,18309 6775,18281 6775,18293 Z M 7268,18283 L 6785,18283 6785,18275 7268,17996 7268,18283 Z"/>
     <path fill="rgb(105,105,105)" stroke="none" d="M 6785,18283 L 7268,18283 7268,17996 7730,17729 7730,18193 6727,18773 6727,18309 6785,18275 6785,18283 Z M 7258,18273 L 6795,18273 6795,18270 7258,18002 7258,18273 Z"/>
     <path fill="rgb(107,107,107)" stroke="none" d="M 6795,18273 L 7258,18273 7258,18002 7730,17729 7730,18193 6727,18773 6727,18309 6795,18270 6795,18273 Z M 7247,18262 L 6808,18262 7247,18008 7247,18262 Z"/>
     <path fill="rgb(109,109,109)" stroke="none" d="M 7247,18262 L 7247,18008 7730,17729 7730,18193 6727,18773 6727,18309 6808,18262 7247,18262 Z M 7237,18252 L 6826,18252 7237,18014 7237,18252 Z"/>
     <path fill="rgb(111,111,111)" stroke="none" d="M 7237,18252 L 7237,18014 7730,17729 7730,18193 6727,18773 6727,18309 6826,18252 7237,18252 Z M 7227,18242 L 6843,18242 7227,18020 7227,18242 Z"/>
     <path fill="rgb(113,113,113)" stroke="none" d="M 7227,18242 L 7227,18020 7730,17729 7730,18193 6727,18773 6727,18309 6843,18242 7227,18242 Z M 7217,18232 L 6860,18232 7217,18026 7217,18232 Z"/>
     <path fill="rgb(115,115,115)" stroke="none" d="M 7217,18232 L 7217,18026 7730,17729 7730,18193 6727,18773 6727,18309 6860,18232 7217,18232 Z M 7207,18222 L 6877,18222 7207,18031 7207,18222 Z"/>
     <path fill="rgb(117,117,117)" stroke="none" d="M 7207,18222 L 7207,18031 7730,17729 7730,18193 6727,18773 6727,18309 6877,18222 7207,18222 Z M 7197,18212 L 6895,18212 7197,18037 7197,18212 Z"/>
     <path fill="rgb(119,119,119)" stroke="none" d="M 7197,18212 L 7197,18037 7730,17729 7730,18193 6727,18773 6727,18309 6895,18212 7197,18212 Z M 7187,18202 L 6912,18202 7187,18043 7187,18202 Z"/>
     <path fill="rgb(121,121,121)" stroke="none" d="M 7187,18202 L 7187,18043 7730,17729 7730,18193 6727,18773 6727,18309 6912,18202 7187,18202 Z M 7177,18192 L 6929,18192 7177,18049 7177,18192 Z"/>
     <path fill="rgb(123,123,123)" stroke="none" d="M 7177,18192 L 7177,18049 7730,17729 7730,18193 6727,18773 6727,18309 6929,18192 7177,18192 Z M 7167,18182 L 6947,18182 7167,18055 7167,18182 Z"/>
     <path fill="rgb(125,125,125)" stroke="none" d="M 7167,18182 L 7167,18055 7730,17729 7730,18193 6727,18773 6727,18309 6947,18182 7167,18182 Z M 7157,18172 L 6964,18172 7157,18060 7157,18172 Z"/>
     <path fill="rgb(127,127,127)" stroke="none" d="M 7157,18172 L 7157,18060 7730,17729 7730,18193 6727,18773 6727,18309 6964,18172 7157,18172 Z M 7147,18162 L 6981,18162 7147,18066 7147,18162 Z"/>
     <path fill="rgb(129,129,129)" stroke="none" d="M 7147,18162 L 7147,18066 7730,17729 7730,18193 6727,18773 6727,18309 6981,18162 7147,18162 Z M 7137,18152 L 6999,18152 7137,18072 7137,18152 Z"/>
     <path fill="rgb(131,131,131)" stroke="none" d="M 7137,18152 L 7137,18072 7730,17729 7730,18193 6727,18773 6727,18309 6999,18152 7137,18152 Z M 7127,18142 L 7016,18142 7127,18078 7127,18142 Z"/>
     <path fill="rgb(133,133,133)" stroke="none" d="M 7127,18142 L 7127,18078 7730,17729 7730,18193 6727,18773 6727,18309 7016,18142 7127,18142 Z M 7117,18132 L 7033,18132 7117,18083 7117,18132 Z"/>
     <path fill="rgb(135,135,135)" stroke="none" d="M 7117,18132 L 7117,18083 7730,17729 7730,18193 6727,18773 6727,18309 7033,18132 7117,18132 Z M 7107,18122 L 7050,18122 7107,18089 7107,18122 Z"/>
     <path fill="rgb(137,137,137)" stroke="none" d="M 7107,18122 L 7107,18089 7730,17729 7730,18193 6727,18773 6727,18309 7050,18122 7107,18122 Z M 7096,18111 L 7069,18111 7096,18096 7096,18111 Z"/>
     <path fill="rgb(139,139,139)" stroke="none" d="M 7096,18111 L 7096,18096 7730,17729 7730,18193 6727,18773 6727,18309 7069,18111 7096,18111 Z"/>
     <path fill="rgb(141,141,141)" stroke="none" d="M 6727,18773 L 6727,18309 7730,17729 7730,18193 6727,18773 Z"/>
     <path fill="rgb(143,143,143)" stroke="none" d="M 6727,18773 L 6727,18309 7730,17729 7730,18193 6727,18773 Z"/>
     <path fill="rgb(145,145,145)" stroke="none" d="M 6727,18773 L 6727,18309 7730,17729 7730,18193 6727,18773 Z"/>
     <path fill="rgb(147,147,147)" stroke="none" d="M 6727,18773 L 6727,18309 7730,17729 7730,18193 6727,18773 Z"/>
     <path fill="rgb(149,149,149)" stroke="none" d="M 6727,18773 L 6727,18309 7730,17729 7730,18193 6727,18773 Z"/>
     <path fill="rgb(153,153,153)" stroke="none" d="M 6727,18773 L 6727,18309 7730,17729 7730,18193 6727,18773 Z"/>
     <path fill="none" stroke="rgb(178,178,178)" id="Drawing_3_0" stroke-width="40" stroke-linejoin="round" d="M 6727,18773 L 6727,18309 7730,17729 7730,18193 6727,18773 Z"/>
    </g>
    <g>
     <defs>
      <linearGradient id="Gradient_1151" gradientUnits="userSpaceOnUse" x1="6125" y1="16453" x2="6125" y2="18309">
       <stop offset="0.1" stop-color="rgb(51,51,51)"/>
       <stop offset="1" stop-color="rgb(153,153,153)"/>
      </linearGradient>
     </defs>
     <path fill="url(#Gradient_1151)" stroke="rgb(178,178,178)" id="Drawing_4_0" stroke-width="40" stroke-linejoin="round" d="M 6727,18309 L 4520,17033 5523,16453 7731,17729 6727,18309 Z"/>
    </g>
    <g>
     <path fill="rgb(57,181,74)" stroke="none" d="M 6426,18483 L 6426,18251 6627,18367 6627,18599 6426,18483 Z"/>
     <path fill="none" stroke="rgb(102,102,102)" id="Drawing_5_0" stroke-width="40" stroke-linejoin="round" d="M 6426,18483 L 6426,18251 6627,18367 6627,18599 6426,18483 Z"/>
    </g>
    <g>
     <path fill="none" stroke="rgb(0,0,0)" id="Drawing_6_0" stroke-width="40" stroke-linejoin="round" d="M 4520,17497 L 4520,17033 5523,16453 7731,17729 7731,18193 6727,18773 4520,17497 Z"/>
    </g>
    <g>
     <path fill="rgb(0,0,0)" stroke="none" d="M 4721,17439 L 4721,17323 4821,17381 4821,17497 4721,17439 Z"/>
     <path fill="none" stroke="rgb(178,178,178)" id="Drawing_7_0" stroke-width="40" stroke-linejoin="round" d="M 4721,17439 L 4721,17323 4821,17381 4821,17497 4721,17439 Z"/>
    </g>
    <g>
     <path fill="rgb(0,0,0)" stroke="none" d="M 4921,17555 L 4921,17439 5021,17497 5021,17613 4921,17555 Z"/>
     <path fill="none" stroke="rgb(178,178,178)" id="Drawing_8_0" stroke-width="40" stroke-linejoin="round" d="M 4921,17555 L 4921,17439 5021,17497 5021,17613 4921,17555 Z"/>
    </g>
    <g>
     <path fill="rgb(0,0,0)" stroke="none" d="M 5122,17671 L 5122,17555 5222,17613 5222,17729 5122,17671 Z"/>
     <path fill="none" stroke="rgb(178,178,178)" id="Drawing_9_0" stroke-width="40" stroke-linejoin="round" d="M 5122,17671 L 5122,17555 5222,17613 5222,17729 5122,17671 Z"/>
    </g>
    <g>
     <path fill="rgb(0,0,0)" stroke="none" d="M 5323,17787 L 5323,17671 5423,17729 5423,17845 5323,17787 Z"/>
     <path fill="none" stroke="rgb(178,178,178)" id="Drawing_10_0" stroke-width="40" stroke-linejoin="round" d="M 5323,17787 L 5323,17671 5423,17729 5423,17845 5323,17787 Z"/>
    </g>
    <g>
     <path fill="rgb(0,0,0)" stroke="none" d="M 5523,17903 L 5523,17787 5623,17845 5623,17961 5523,17903 Z"/>
     <path fill="none" stroke="rgb(178,178,178)" id="Drawing_11_0" stroke-width="40" stroke-linejoin="round" d="M 5523,17903 L 5523,17787 5623,17845 5623,17961 5523,17903 Z"/>
    </g>
    <g>
     <path fill="rgb(0,0,0)" stroke="none" d="M 5724,18019 L 5724,17903 5824,17961 5824,18077 5724,18019 Z"/>
     <path fill="none" stroke="rgb(178,178,178)" id="Drawing_12_0" stroke-width="40" stroke-linejoin="round" d="M 5724,18019 L 5724,17903 5824,17961 5824,18077 5724,18019 Z"/>
    </g>
    <g>
     <path fill="rgb(0,0,0)" stroke="none" d="M 5925,18135 L 5925,18019 6025,18077 6025,18193 5925,18135 Z"/>
     <path fill="none" stroke="rgb(178,178,178)" id="Drawing_13_0" stroke-width="40" stroke-linejoin="round" d="M 5925,18135 L 5925,18019 6025,18077 6025,18193 5925,18135 Z"/>
    </g>
    <g>
     <path fill="rgb(0,0,0)" stroke="none" d="M 6125,18251 L 6125,18135 6225,18193 6225,18309 6125,18251 Z"/>
     <path fill="none" stroke="rgb(178,178,178)" id="Drawing_14_0" stroke-width="40" stroke-linejoin="round" d="M 6125,18251 L 6125,18135 6225,18193 6225,18309 6125,18251 Z"/>
    </g>
   </g>
  </g>
 </g>
</svg>