<?xml version="1.0" encoding="UTF-8"?>

<svg version="1.2" baseProfile="tiny" width="35.32mm" height="23.6mm" viewBox="7372 7400 3532 2360" preserveAspectRatio="xMidYMid" fill-rule="evenodd" stroke-width="28.222" stroke-linejoin="round" xmlns="http://www.w3.org/2000/svg" xmlns:xlink="http://www.w3.org/1999/xlink" xml:space="preserve">
 <g visibility="visible" id="Slide_1">
  <g id="DrawingGroup_1">
   <g>
    <path fill="rgb(221,221,221)" stroke="none" d="M 9599,9740 C 9875,9740 10903,9450 10903,9218 10903,8986 10878,8870 10602,8870 10602,9044 9599,9507 9599,9740 Z"/>
    <path fill="none" stroke="rgb(221,221,221)" id="Drawing_1_0" stroke-linejoin="round" d="M 9599,9740 C 9875,9740 10903,9450 10903,9218 10903,8986 10878,8870 10602,8870 10602,9044 9599,9507 9599,9740 Z"/>
   </g>
   <g id="DrawingGroup_2">
    <g>
     <defs>
      <linearGradient id="Gradient_1148" gradientUnits="userSpaceOnUse" x1="7389" y1="8868" x2="9600" y2="8872">
       <stop offset="0.1" stop-color="rgb(179,179,179)"/>
       <stop offset="1" stop-color="rgb(229,229,229)"/>
      </linearGradient>
     </defs>
     <path fill="url(#Gradient_1148)" stroke="rgb(255,255,255)" id="Drawing_2_0" stroke-width="40" stroke-linejoin="round" d="M 7392,8464 L 7392,8000 9599,9276 9599,9740 7392,8464 Z"/>
    </g>
    <g>
     <path fill="rgb(179,179,179)" stroke="none" d="M 10411,9270 L 9978,9521 9599,9521 9599,9276 10411,8806 10411,9270 Z"/>
     <path fill="rgb(180,180,180)" stroke="none" d="M 9978,9521 L 9599,9740 9599,9521 9978,9521 Z M 10411,8806 L 10602,8696 10602,9160 10411,9270 10411,8806 Z M 10401,9276 L 9995,9511 9599,9511 9599,9276 10401,8812 10401,9276 Z"/>
     <path fill="rgb(181,181,181)" stroke="none" d="M 9995,9511 L 9599,9740 9599,9511 9995,9511 Z M 10401,8812 L 10602,8696 10602,9160 10401,9276 10401,8812 Z M 10390,9283 L 10014,9500 9599,9500 9599,9276 10390,8819 10390,9283 Z"/>
     <path fill="rgb(182,182,182)" stroke="none" d="M 10014,9500 L 9599,9740 9599,9500 10014,9500 Z M 10390,8819 L 10602,8696 10602,9160 10390,9283 10390,8819 Z M 10380,9288 L 10031,9490 9599,9490 9599,9276 10380,8824 10380,9288 Z"/>
     <path fill="rgb(183,183,183)" stroke="none" d="M 10031,9490 L 9599,9740 9599,9490 10031,9490 Z M 10380,8824 L 10602,8696 10602,9160 10380,9288 10380,8824 Z M 10369,9295 L 10050,9479 9599,9479 9599,9276 10369,8831 10369,9295 Z"/>
     <path fill="rgb(184,184,184)" stroke="none" d="M 10050,9479 L 9599,9740 9599,9479 10050,9479 Z M 10369,8831 L 10602,8696 10602,9160 10369,9295 10369,8831 Z M 10359,9301 L 10068,9469 9599,9469 9599,9276 10359,8837 10359,9301 Z"/>
     <path fill="rgb(185,185,185)" stroke="none" d="M 10068,9469 L 9599,9740 9599,9469 10068,9469 Z M 10359,8837 L 10602,8696 10602,9160 10359,9301 10359,8837 Z M 10348,9307 L 10087,9458 9599,9458 9599,9276 10348,8843 10348,9307 Z"/>
     <path fill="rgb(186,186,186)" stroke="none" d="M 10087,9458 L 9599,9740 9599,9458 10087,9458 Z M 10348,8843 L 10602,8696 10602,9160 10348,9307 10348,8843 Z M 10338,9313 L 10104,9448 9599,9448 9599,9276 10338,8849 10338,9313 Z"/>
     <path fill="rgb(187,187,187)" stroke="none" d="M 10104,9448 L 9599,9740 9599,9448 10104,9448 Z M 10338,8849 L 10602,8696 10602,9160 10338,9313 10338,8849 Z M 10327,9319 L 10123,9437 9599,9437 9599,9276 10327,8855 10327,9319 Z"/>
     <path fill="rgb(188,188,188)" stroke="none" d="M 10123,9437 L 9599,9740 9599,9437 10123,9437 Z M 10327,8855 L 10602,8696 10602,9160 10327,9319 10327,8855 Z M 10317,9325 L 10140,9427 9599,9427 9599,9276 10317,8861 10317,9325 Z"/>
     <path fill="rgb(189,189,189)" stroke="none" d="M 10140,9427 L 9599,9740 9599,9427 10140,9427 Z M 10317,8861 L 10602,8696 10602,9160 10317,9325 10317,8861 Z M 10306,9331 L 10159,9416 9599,9416 9599,9276 10306,8867 10306,9331 Z"/>
     <path fill="rgb(190,190,190)" stroke="none" d="M 10159,9416 L 9599,9740 9599,9416 10159,9416 Z M 10306,8867 L 10602,8696 10602,9160 10306,9331 10306,8867 Z M 10296,9337 L 10177,9406 9599,9406 9599,9276 10296,8873 10296,9337 Z"/>
     <path fill="rgb(191,191,191)" stroke="none" d="M 10177,9406 L 9599,9740 9599,9406 10177,9406 Z M 10296,8873 L 10602,8696 10602,9160 10296,9337 10296,8873 Z M 10285,9343 L 10196,9395 9599,9395 9599,9276 10285,8879 10285,9343 Z"/>
     <path fill="rgb(192,192,192)" stroke="none" d="M 10196,9395 L 9599,9740 9599,9395 10196,9395 Z M 10285,8879 L 10602,8696 10602,9160 10285,9343 10285,8879 Z M 10275,9349 L 10213,9385 9599,9385 9599,9276 10275,8885 10275,9349 Z"/>
     <path fill="rgb(193,193,193)" stroke="none" d="M 10213,9385 L 9599,9740 9599,9385 10213,9385 Z M 10275,8885 L 10602,8696 10602,9160 10275,9349 10275,8885 Z M 10264,9355 L 10232,9374 9599,9374 9599,9276 10264,8891 10264,9355 Z"/>
     <path fill="rgb(194,194,194)" stroke="none" d="M 10232,9374 L 9599,9740 9599,9374 10232,9374 Z M 10264,8891 L 10602,8696 10602,9160 10264,9355 10264,8891 Z M 10254,9361 L 10249,9364 9599,9364 9599,9276 10254,8897 10254,9361 Z"/>
     <path fill="rgb(195,195,195)" stroke="none" d="M 10249,9364 L 9599,9740 9599,9364 10249,9364 Z M 10254,8897 L 10602,8696 10602,9160 10254,9361 10254,8897 Z M 10244,9354 L 9599,9354 9599,9276 10244,8903 10244,9354 Z"/>
     <path fill="rgb(196,196,196)" stroke="none" d="M 10244,9354 L 10244,8903 10602,8696 10602,9160 9599,9740 9599,9354 10244,9354 Z M 10233,9343 L 9599,9343 9599,9276 10233,8909 10233,9343 Z"/>
     <path fill="rgb(197,197,197)" stroke="none" d="M 10233,9343 L 10233,8909 10602,8696 10602,9160 9599,9740 9599,9343 10233,9343 Z M 10223,9333 L 9599,9333 9599,9276 10223,8915 10223,9333 Z"/>
     <path fill="rgb(198,198,198)" stroke="none" d="M 10223,9333 L 10223,8915 10602,8696 10602,9160 9599,9740 9599,9333 10223,9333 Z M 10212,9322 L 9599,9322 9599,9276 10212,8922 10212,9322 Z"/>
     <path fill="rgb(199,199,199)" stroke="none" d="M 10212,9322 L 10212,8922 10602,8696 10602,9160 9599,9740 9599,9322 10212,9322 Z M 10202,9312 L 9599,9312 9599,9276 10202,8927 10202,9312 Z"/>
     <path fill="rgb(200,200,200)" stroke="none" d="M 10202,9312 L 10202,8927 10602,8696 10602,9160 9599,9740 9599,9312 10202,9312 Z M 10191,9301 L 9606,9301 9606,9272 10191,8934 10191,9301 Z"/>
     <path fill="rgb(201,201,201)" stroke="none" d="M 9606,9301 L 10191,9301 10191,8934 10602,8696 10602,9160 9599,9740 9599,9276 9606,9272 9606,9301 Z M 10181,9291 L 9616,9291 9616,9266 10181,8939 10181,9291 Z"/>
     <path fill="rgb(202,202,202)" stroke="none" d="M 9616,9291 L 10181,9291 10181,8939 10602,8696 10602,9160 9599,9740 9599,9276 9616,9266 9616,9291 Z M 10170,9280 L 9627,9280 9627,9260 10170,8946 10170,9280 Z"/>
     <path fill="rgb(203,203,203)" stroke="none" d="M 9627,9280 L 10170,9280 10170,8946 10602,8696 10602,9160 9599,9740 9599,9276 9627,9260 9627,9280 Z M 10160,9270 L 9637,9270 9637,9254 10160,8952 10160,9270 Z"/>
     <path fill="rgb(204,204,204)" stroke="none" d="M 9637,9270 L 10160,9270 10160,8952 10602,8696 10602,9160 9599,9740 9599,9276 9637,9254 9637,9270 Z M 10149,9259 L 9648,9259 9648,9248 10149,8958 10149,9259 Z"/>
     <path fill="rgb(205,205,205)" stroke="none" d="M 9648,9259 L 10149,9259 10149,8958 10602,8696 10602,9160 9599,9740 9599,9276 9648,9248 9648,9259 Z M 10139,9249 L 9658,9249 9658,9242 10139,8964 10139,9249 Z"/>
     <path fill="rgb(206,206,206)" stroke="none" d="M 9658,9249 L 10139,9249 10139,8964 10602,8696 10602,9160 9599,9740 9599,9276 9658,9242 9658,9249 Z M 10128,9238 L 9669,9238 9669,9236 10128,8970 10128,9238 Z"/>
     <path fill="rgb(207,207,207)" stroke="none" d="M 9669,9238 L 10128,9238 10128,8970 10602,8696 10602,9160 9599,9740 9599,9276 9669,9236 9669,9238 Z M 10118,9228 L 9682,9228 10118,8976 10118,9228 Z"/>
     <path fill="rgb(208,208,208)" stroke="none" d="M 10118,9228 L 10118,8976 10602,8696 10602,9160 9599,9740 9599,9276 9682,9228 10118,9228 Z M 10107,9217 L 9701,9217 10107,8982 10107,9217 Z"/>
     <path fill="rgb(209,209,209)" stroke="none" d="M 10107,9217 L 10107,8982 10602,8696 10602,9160 9599,9740 9599,9276 9701,9217 10107,9217 Z M 10097,9207 L 9718,9207 10097,8988 10097,9207 Z"/>
     <path fill="rgb(210,210,210)" stroke="none" d="M 10097,9207 L 10097,8988 10602,8696 10602,9160 9599,9740 9599,9276 9718,9207 10097,9207 Z M 10086,9196 L 9737,9196 10086,8994 10086,9196 Z"/>
     <path fill="rgb(211,211,211)" stroke="none" d="M 10086,9196 L 10086,8994 10602,8696 10602,9160 9599,9740 9599,9276 9737,9196 10086,9196 Z M 10076,9186 L 9755,9186 10076,9000 10076,9186 Z"/>
     <path fill="rgb(212,212,212)" stroke="none" d="M 10076,9186 L 10076,9000 10602,8696 10602,9160 9599,9740 9599,9276 9755,9186 10076,9186 Z M 10066,9176 L 9772,9176 10066,9006 10066,9176 Z"/>
     <path fill="rgb(213,213,213)" stroke="none" d="M 10066,9176 L 10066,9006 10602,8696 10602,9160 9599,9740 9599,9276 9772,9176 10066,9176 Z M 10055,9165 L 9791,9165 10055,9012 10055,9165 Z"/>
     <path fill="rgb(214,214,214)" stroke="none" d="M 10055,9165 L 10055,9012 10602,8696 10602,9160 9599,9740 9599,9276 9791,9165 10055,9165 Z M 10045,9155 L 9808,9155 10045,9018 10045,9155 Z"/>
     <path fill="rgb(215,215,215)" stroke="none" d="M 10045,9155 L 10045,9018 10602,8696 10602,9160 9599,9740 9599,9276 9808,9155 10045,9155 Z M 10034,9144 L 9827,9144 10034,9024 10034,9144 Z"/>
     <path fill="rgb(216,216,216)" stroke="none" d="M 10034,9144 L 10034,9024 10602,8696 10602,9160 9599,9740 9599,9276 9827,9144 10034,9144 Z M 10024,9134 L 9845,9134 10024,9030 10024,9134 Z"/>
     <path fill="rgb(217,217,217)" stroke="none" d="M 10024,9134 L 10024,9030 10602,8696 10602,9160 9599,9740 9599,9276 9845,9134 10024,9134 Z M 10013,9123 L 9864,9123 10013,9037 10013,9123 Z"/>
     <path fill="rgb(218,218,218)" stroke="none" d="M 10013,9123 L 10013,9037 10602,8696 10602,9160 9599,9740 9599,9276 9864,9123 10013,9123 Z M 10003,9113 L 9881,9113 10003,9042 10003,9113 Z"/>
     <path fill="rgb(219,219,219)" stroke="none" d="M 10003,9113 L 10003,9042 10602,8696 10602,9160 9599,9740 9599,9276 9881,9113 10003,9113 Z M 9992,9102 L 9900,9102 9992,9049 9992,9102 Z"/>
     <path fill="rgb(220,220,220)" stroke="none" d="M 9992,9102 L 9992,9049 10602,8696 10602,9160 9599,9740 9599,9276 9900,9102 9992,9102 Z M 9982,9092 L 9917,9092 9982,9055 9982,9092 Z"/>
     <path fill="rgb(221,221,221)" stroke="none" d="M 9982,9092 L 9982,9055 10602,8696 10602,9160 9599,9740 9599,9276 9917,9092 9982,9092 Z M 9971,9081 L 9936,9081 9971,9061 9971,9081 Z"/>
     <path fill="rgb(222,222,222)" stroke="none" d="M 9971,9081 L 9971,9061 10602,8696 10602,9160 9599,9740 9599,9276 9936,9081 9971,9081 Z M 9961,9071 L 9954,9071 9961,9067 9961,9071 Z"/>
     <path fill="rgb(223,223,223)" stroke="none" d="M 9961,9071 L 9961,9067 10602,8696 10602,9160 9599,9740 9599,9276 9954,9071 9961,9071 Z"/>
     <path fill="rgb(224,224,224)" stroke="none" d="M 9599,9740 L 9599,9276 10602,8696 10602,9160 9599,9740 Z"/>
     <path fill="rgb(225,225,225)" stroke="none" d="M 9599,9740 L 9599,9276 10602,8696 10602,9160 9599,9740 Z"/>
     <path fill="rgb(226,226,226)" stroke="none" d="M 9599,9740 L 9599,9276 10602,8696 10602,9160 9599,9740 Z"/>
     <path fill="rgb(227,227,227)" stroke="none" d="M 9599,9740 L 9599,9276 10602,8696 10602,9160 9599,9740 Z"/>
     <path fill="rgb(229,229,229)" stroke="none" d="M 9599,9740 L 9599,9276 10602,8696 10602,9160 9599,9740 Z"/>
     <path fill="none" stroke="rgb(255,255,255)" id="Drawing_3_0" stroke-width="40" stroke-linejoin="round" d="M 9599,9740 L 9599,9276 10602,8696 10602,9160 9599,9740 Z"/>
    </g>
    <g>
     <defs>
      <linearGradient id="Gradient_1149" gradientUnits="userSpaceOnUse" x1="8997" y1="7420" x2="8997" y2="9276">
       <stop offset="0.1" stop-color="rgb(179,179,179)"/>
       <stop offset="1" stop-color="rgb(229,229,229)"/>
      </linearGradient>
     </defs>
     <path fill="url(#Gradient_1149)" stroke="rgb(255,255,255)" id="Drawing_4_0" stroke-width="40" stroke-linejoin="round" d="M 9599,9276 L 7392,8000 8395,7420 10603,8696 9599,9276 Z"/>
    </g>
    <g>
     <path fill="rgb(57,181,74)" stroke="none" d="M 9298,9450 L 9298,9218 9499,9334 9499,9566 9298,9450 Z"/>
     <path fill="none" stroke="rgb(0,0,0)" id="Drawing_5_0" stroke-width="40" stroke-linejoin="round" d="M 9298,9450 L 9298,9218 9499,9334 9499,9566 9298,9450 Z"/>
    </g>
    <g>
     <path fill="none" stroke="rgb(0,0,0)" id="Drawing_6_0" stroke-width="40" stroke-linejoin="round" d="M 7392,8464 L 7392,8000 8395,7420 10603,8696 10603,9160 9599,9740 7392,8464 Z"/>
    </g>
    <g>
     <path fill="rgb(127,127,127)" stroke="none" d="M 7593,8406 L 7593,8290 7693,8348 7693,8464 7593,8406 Z"/>
     <path fill="none" stroke="rgb(0,0,0)" id="Drawing_7_0" stroke-width="40" stroke-linejoin="round" d="M 7593,8406 L 7593,8290 7693,8348 7693,8464 7593,8406 Z"/>
    </g>
    <g>
     <path fill="rgb(127,127,127)" stroke="none" d="M 7793,8522 L 7793,8406 7893,8464 7893,8580 7793,8522 Z"/>
     <path fill="none" stroke="rgb(0,0,0)" id="Drawing_8_0" stroke-width="40" stroke-linejoin="round" d="M 7793,8522 L 7793,8406 7893,8464 7893,8580 7793,8522 Z"/>
    </g>
    <g>
     <path fill="rgb(127,127,127)" stroke="none" d="M 7994,8638 L 7994,8522 8094,8580 8094,8696 7994,8638 Z"/>
     <path fill="none" stroke="rgb(0,0,0)" id="Drawing_9_0" stroke-width="40" stroke-linejoin="round" d="M 7994,8638 L 7994,8522 8094,8580 8094,8696 7994,8638 Z"/>
    </g>
    <g>
     <path fill="rgb(127,127,127)" stroke="none" d="M 8195,8754 L 8195,8638 8295,8696 8295,8812 8195,8754 Z"/>
     <path fill="none" stroke="rgb(0,0,0)" id="Drawing_10_0" stroke-width="40" stroke-linejoin="round" d="M 8195,8754 L 8195,8638 8295,8696 8295,8812 8195,8754 Z"/>
    </g>
    <g>
     <path fill="rgb(127,127,127)" stroke="none" d="M 8395,8870 L 8395,8754 8495,8812 8495,8928 8395,8870 Z"/>
     <path fill="none" stroke="rgb(0,0,0)" id="Drawing_11_0" stroke-width="40" stroke-linejoin="round" d="M 8395,8870 L 8395,8754 8495,8812 8495,8928 8395,8870 Z"/>
    </g>
    <g>
     <path fill="rgb(127,127,127)" stroke="none" d="M 8596,8986 L 8596,8870 8696,8928 8696,9044 8596,8986 Z"/>
     <path fill="none" stroke="rgb(0,0,0)" id="Drawing_12_0" stroke-width="40" stroke-linejoin="round" d="M 8596,8986 L 8596,8870 8696,8928 8696,9044 8596,8986 Z"/>
    </g>
    <g>
     <path fill="rgb(127,127,127)" stroke="none" d="M 8797,9102 L 8797,8986 8897,9044 8897,9160 8797,9102 Z"/>
     <path fill="none" stroke="rgb(0,0,0)" id="Drawing_13_0" stroke-width="40" stroke-linejoin="round" d="M 8797,9102 L 8797,8986 8897,9044 8897,9160 8797,9102 Z"/>
    </g>
    <g>
     <path fill="rgb(127,127,127)" stroke="none" d="M 8997,9218 L 8997,9102 9097,9160 9097,9276 8997,9218 Z"/>
     <path fill="none" stroke="rgb(0,0,0)" id="Drawing_14_0" stroke-width="40" stroke-linejoin="round" d="M 8997,9218 L 8997,9102 9097,9160 9097,9276 8997,9218 Z"/>
    </g>
   </g>
  </g>
 </g>
</svg>