<?xml version="1.0" encoding="UTF-8"?>

<svg version="1.2" baseProfile="tiny" width="52.53mm" height="61.44mm" viewBox="10377 13143 5253 6144" preserveAspectRatio="xMidYMid" fill-rule="evenodd" stroke-width="28.222" stroke-linejoin="round" xmlns="http://www.w3.org/2000/svg" xmlns:xlink="http://www.w3.org/1999/xlink" xml:space="preserve">
 <g visibility="visible" id="Slide_1">
  <g id="DrawingGroup_1">
   <g id="DrawingGroup_2">
    <g>
     <path fill="rgb(102,102,102)" stroke="none" d="M 15550,17138 L 15444,17199 15227,17199 15170,17001 15522,16798 15550,16895 15550,17138 Z"/>
     <path fill="rgb(103,103,103)" stroke="none" d="M 15444,17199 L 15258,17307 15227,17199 15444,17199 Z M 15550,16895 L 15610,17103 15550,17138 15550,16895 Z M 15545,17141 L 15453,17194 15226,17194 15170,17001 15522,16798 15545,16878 15545,17141 Z"/>
     <path fill="rgb(104,104,104)" stroke="none" d="M 15453,17194 L 15258,17307 15226,17194 15453,17194 Z M 15545,16878 L 15610,17103 15545,17141 15545,16878 Z M 15540,17144 L 15462,17189 15224,17189 15170,17001 15522,16798 15540,16860 15540,17144 Z"/>
     <path fill="rgb(105,105,105)" stroke="none" d="M 15462,17189 L 15258,17307 15224,17189 15462,17189 Z M 15540,16860 L 15610,17103 15540,17144 15540,16860 Z M 15535,17146 L 15470,17184 15223,17184 15170,17001 15522,16798 15535,16843 15535,17146 Z"/>
     <path fill="rgb(106,106,106)" stroke="none" d="M 15470,17184 L 15258,17307 15223,17184 15470,17184 Z M 15535,16843 L 15610,17103 15535,17146 15535,16843 Z M 15530,17149 L 15479,17179 15221,17179 15170,17001 15522,16798 15530,16826 15530,17149 Z"/>
     <path fill="rgb(107,107,107)" stroke="none" d="M 15479,17179 L 15258,17307 15221,17179 15479,17179 Z M 15530,16826 L 15610,17103 15530,17149 15530,16826 Z M 15525,17152 L 15487,17174 15220,17174 15170,17001 15522,16798 15525,16808 15525,17152 Z"/>
     <path fill="rgb(108,108,108)" stroke="none" d="M 15487,17174 L 15258,17307 15220,17174 15487,17174 Z M 15525,16808 L 15610,17103 15525,17152 15525,16808 Z M 15520,17155 L 15496,17169 15218,17169 15170,17001 15520,16799 15520,17155 Z"/>
     <path fill="rgb(109,109,109)" stroke="none" d="M 15496,17169 L 15258,17307 15218,17169 15496,17169 Z M 15520,16799 L 15522,16798 15610,17103 15520,17155 15520,16799 Z M 15515,17158 L 15505,17164 15217,17164 15170,17001 15515,16802 15515,17158 Z"/>
     <path fill="rgb(110,110,110)" stroke="none" d="M 15505,17164 L 15258,17307 15217,17164 15505,17164 Z M 15515,16802 L 15522,16798 15610,17103 15515,17158 15515,16802 Z M 15510,17159 L 15215,17159 15170,17001 15510,16805 15510,17159 Z"/>
     <path fill="rgb(111,111,111)" stroke="none" d="M 15510,17159 L 15510,16805 15522,16798 15610,17103 15258,17307 15215,17159 15510,17159 Z M 15505,17154 L 15214,17154 15170,17001 15505,16808 15505,17154 Z"/>
     <path fill="rgb(112,112,112)" stroke="none" d="M 15505,17154 L 15505,16808 15522,16798 15610,17103 15258,17307 15214,17154 15505,17154 Z M 15500,17149 L 15213,17149 15170,17001 15500,16811 15500,17149 Z"/>
     <path fill="rgb(113,113,113)" stroke="none" d="M 15500,17149 L 15500,16811 15522,16798 15610,17103 15258,17307 15213,17149 15500,17149 Z M 15495,17144 L 15211,17144 15170,17001 15495,16814 15495,17144 Z"/>
     <path fill="rgb(114,114,114)" stroke="none" d="M 15495,17144 L 15495,16814 15522,16798 15610,17103 15258,17307 15211,17144 15495,17144 Z M 15490,17139 L 15210,17139 15170,17001 15490,16816 15490,17139 Z"/>
     <path fill="rgb(115,115,115)" stroke="none" d="M 15490,17139 L 15490,16816 15522,16798 15610,17103 15258,17307 15210,17139 15490,17139 Z M 15485,17134 L 15208,17134 15170,17001 15485,16819 15485,17134 Z"/>
     <path fill="rgb(116,116,116)" stroke="none" d="M 15485,17134 L 15485,16819 15522,16798 15610,17103 15258,17307 15208,17134 15485,17134 Z M 15480,17129 L 15207,17129 15170,17001 15480,16822 15480,17129 Z"/>
     <path fill="rgb(117,117,117)" stroke="none" d="M 15480,17129 L 15480,16822 15522,16798 15610,17103 15258,17307 15207,17129 15480,17129 Z M 15475,17124 L 15205,17124 15170,17001 15475,16825 15475,17124 Z"/>
     <path fill="rgb(118,118,118)" stroke="none" d="M 15475,17124 L 15475,16825 15522,16798 15610,17103 15258,17307 15205,17124 15475,17124 Z M 15470,17119 L 15204,17119 15170,17001 15470,16828 15470,17119 Z"/>
     <path fill="rgb(119,119,119)" stroke="none" d="M 15470,17119 L 15470,16828 15522,16798 15610,17103 15258,17307 15204,17119 15470,17119 Z M 15465,17114 L 15202,17114 15170,17001 15465,16831 15465,17114 Z"/>
     <path fill="rgb(120,120,120)" stroke="none" d="M 15465,17114 L 15465,16831 15522,16798 15610,17103 15258,17307 15202,17114 15465,17114 Z M 15460,17109 L 15201,17109 15170,17001 15460,16834 15460,17109 Z"/>
     <path fill="rgb(121,121,121)" stroke="none" d="M 15460,17109 L 15460,16834 15522,16798 15610,17103 15258,17307 15201,17109 15460,17109 Z M 15455,17104 L 15200,17104 15170,17001 15455,16837 15455,17104 Z"/>
     <path fill="rgb(122,122,122)" stroke="none" d="M 15455,17104 L 15455,16837 15522,16798 15610,17103 15258,17307 15200,17104 15455,17104 Z M 15450,17099 L 15198,17099 15170,17001 15450,16840 15450,17099 Z"/>
     <path fill="rgb(123,123,123)" stroke="none" d="M 15450,17099 L 15450,16840 15522,16798 15610,17103 15258,17307 15198,17099 15450,17099 Z M 15445,17094 L 15197,17094 15170,17001 15445,16842 15445,17094 Z"/>
     <path fill="rgb(124,124,124)" stroke="none" d="M 15445,17094 L 15445,16842 15522,16798 15610,17103 15258,17307 15197,17094 15445,17094 Z M 15440,17089 L 15195,17089 15170,17001 15440,16845 15440,17089 Z"/>
     <path fill="rgb(125,125,125)" stroke="none" d="M 15440,17089 L 15440,16845 15522,16798 15610,17103 15258,17307 15195,17089 15440,17089 Z M 15435,17084 L 15194,17084 15170,17001 15435,16848 15435,17084 Z"/>
     <path fill="rgb(126,126,126)" stroke="none" d="M 15435,17084 L 15435,16848 15522,16798 15610,17103 15258,17307 15194,17084 15435,17084 Z M 15430,17079 L 15192,17079 15170,17001 15430,16851 15430,17079 Z"/>
     <path fill="rgb(127,127,127)" stroke="none" d="M 15430,17079 L 15430,16851 15522,16798 15610,17103 15258,17307 15192,17079 15430,17079 Z M 15425,17074 L 15191,17074 15175,17018 15175,16998 15425,16854 15425,17074 Z"/>
     <path fill="rgb(128,128,128)" stroke="none" d="M 15175,17018 L 15170,17001 15175,16998 15175,17018 Z M 15425,17074 L 15425,16854 15522,16798 15610,17103 15258,17307 15191,17074 15425,17074 Z M 15420,17069 L 15190,17069 15180,17036 15180,16995 15420,16857 15420,17069 Z"/>
     <path fill="rgb(129,129,129)" stroke="none" d="M 15180,17036 L 15170,17001 15180,16995 15180,17036 Z M 15420,17069 L 15420,16857 15522,16798 15610,17103 15258,17307 15190,17069 15420,17069 Z M 15415,17064 L 15188,17064 15185,17053 15185,16992 15415,16860 15415,17064 Z"/>
     <path fill="rgb(130,130,130)" stroke="none" d="M 15185,17053 L 15170,17001 15185,16992 15185,17053 Z M 15415,17064 L 15415,16860 15522,16798 15610,17103 15258,17307 15188,17064 15415,17064 Z M 15410,17059 L 15190,17059 15190,16989 15410,16863 15410,17059 Z"/>
     <path fill="rgb(131,131,131)" stroke="none" d="M 15190,17059 L 15410,17059 15410,16863 15522,16798 15610,17103 15258,17307 15170,17001 15190,16989 15190,17059 Z M 15405,17054 L 15195,17054 15195,16987 15405,16865 15405,17054 Z"/>
     <path fill="rgb(132,132,132)" stroke="none" d="M 15195,17054 L 15405,17054 15405,16865 15522,16798 15610,17103 15258,17307 15170,17001 15195,16987 15195,17054 Z M 15400,17049 L 15200,17049 15200,16984 15400,16868 15400,17049 Z"/>
     <path fill="rgb(133,133,133)" stroke="none" d="M 15200,17049 L 15400,17049 15400,16868 15522,16798 15610,17103 15258,17307 15170,17001 15200,16984 15200,17049 Z M 15395,17044 L 15205,17044 15205,16981 15395,16871 15395,17044 Z"/>
     <path fill="rgb(134,134,134)" stroke="none" d="M 15205,17044 L 15395,17044 15395,16871 15522,16798 15610,17103 15258,17307 15170,17001 15205,16981 15205,17044 Z M 15390,17039 L 15210,17039 15210,16978 15390,16874 15390,17039 Z"/>
     <path fill="rgb(135,135,135)" stroke="none" d="M 15210,17039 L 15390,17039 15390,16874 15522,16798 15610,17103 15258,17307 15170,17001 15210,16978 15210,17039 Z M 15385,17034 L 15215,17034 15215,16975 15385,16877 15385,17034 Z"/>
     <path fill="rgb(136,136,136)" stroke="none" d="M 15215,17034 L 15385,17034 15385,16877 15522,16798 15610,17103 15258,17307 15170,17001 15215,16975 15215,17034 Z M 15380,17029 L 15220,17029 15220,16972 15380,16880 15380,17029 Z"/>
     <path fill="rgb(137,137,137)" stroke="none" d="M 15220,17029 L 15380,17029 15380,16880 15522,16798 15610,17103 15258,17307 15170,17001 15220,16972 15220,17029 Z M 15375,17024 L 15225,17024 15225,16969 15375,16883 15375,17024 Z"/>
     <path fill="rgb(138,138,138)" stroke="none" d="M 15225,17024 L 15375,17024 15375,16883 15522,16798 15610,17103 15258,17307 15170,17001 15225,16969 15225,17024 Z M 15370,17019 L 15230,17019 15230,16966 15370,16886 15370,17019 Z"/>
     <path fill="rgb(139,139,139)" stroke="none" d="M 15230,17019 L 15370,17019 15370,16886 15522,16798 15610,17103 15258,17307 15170,17001 15230,16966 15230,17019 Z M 15365,17014 L 15235,17014 15235,16964 15365,16889 15365,17014 Z"/>
     <path fill="rgb(140,140,140)" stroke="none" d="M 15235,17014 L 15365,17014 15365,16889 15522,16798 15610,17103 15258,17307 15170,17001 15235,16964 15235,17014 Z M 15360,17009 L 15240,17009 15240,16961 15360,16891 15360,17009 Z"/>
     <path fill="rgb(141,141,141)" stroke="none" d="M 15240,17009 L 15360,17009 15360,16891 15522,16798 15610,17103 15258,17307 15170,17001 15240,16961 15240,17009 Z M 15355,17004 L 15245,17004 15245,16958 15355,16894 15355,17004 Z"/>
     <path fill="rgb(142,142,142)" stroke="none" d="M 15245,17004 L 15355,17004 15355,16894 15522,16798 15610,17103 15258,17307 15170,17001 15245,16958 15245,17004 Z M 15350,16899 L 15350,16999 15250,16999 15250,16955 15347,16899 15350,16899 Z"/>
     <path fill="rgb(143,143,143)" stroke="none" d="M 15250,16999 L 15350,16999 15350,16899 15347,16899 15522,16798 15610,17103 15258,17307 15170,17001 15250,16955 15250,16999 Z M 15345,16904 L 15345,16994 15255,16994 15255,16952 15338,16904 15345,16904 Z"/>
     <path fill="rgb(144,144,144)" stroke="none" d="M 15255,16994 L 15345,16994 15345,16904 15338,16904 15522,16798 15610,17103 15258,17307 15170,17001 15255,16952 15255,16994 Z M 15340,16909 L 15340,16989 15260,16989 15260,16949 15330,16909 15340,16909 Z"/>
     <path fill="rgb(145,145,145)" stroke="none" d="M 15260,16989 L 15340,16989 15340,16909 15330,16909 15522,16798 15610,17103 15258,17307 15170,17001 15260,16949 15260,16989 Z M 15335,16914 L 15335,16984 15265,16984 15265,16946 15321,16914 15335,16914 Z"/>
     <path fill="rgb(146,146,146)" stroke="none" d="M 15265,16984 L 15335,16984 15335,16914 15321,16914 15522,16798 15610,17103 15258,17307 15170,17001 15265,16946 15265,16984 Z M 15330,16919 L 15330,16979 15270,16979 15270,16943 15312,16919 15330,16919 Z"/>
     <path fill="rgb(147,147,147)" stroke="none" d="M 15270,16979 L 15330,16979 15330,16919 15312,16919 15522,16798 15610,17103 15258,17307 15170,17001 15270,16943 15270,16979 Z M 15325,16924 L 15325,16974 15275,16974 15275,16940 15304,16924 15325,16924 Z"/>
     <path fill="rgb(148,148,148)" stroke="none" d="M 15275,16974 L 15325,16974 15325,16924 15304,16924 15522,16798 15610,17103 15258,17307 15170,17001 15275,16940 15275,16974 Z M 15320,16929 L 15320,16969 15280,16969 15280,16938 15295,16929 15320,16929 Z"/>
     <path fill="rgb(149,149,149)" stroke="none" d="M 15280,16969 L 15320,16969 15320,16929 15295,16929 15522,16798 15610,17103 15258,17307 15170,17001 15280,16938 15280,16969 Z M 15315,16934 L 15315,16964 15285,16964 15285,16935 15286,16934 15315,16934 Z"/>
     <path fill="rgb(150,150,150)" stroke="none" d="M 15285,16964 L 15315,16964 15315,16934 15286,16934 15522,16798 15610,17103 15258,17307 15170,17001 15285,16935 15285,16964 Z M 15290,16939 L 15310,16939 15310,16959 15290,16959 15290,16939 Z"/>
     <path fill="rgb(151,151,151)" stroke="none" d="M 15290,16939 L 15290,16959 15310,16959 15310,16939 15290,16939 Z M 15295,16944 L 15305,16944 15305,16954 15295,16954 15295,16944 Z M 15610,17103 L 15258,17307 15170,17001 15522,16798 15610,17103 Z"/>
     <path fill="rgb(153,153,153)" stroke="none" d="M 15295,16944 L 15295,16954 15305,16954 15305,16944 15295,16944 Z M 15610,17103 L 15258,17307 15170,17001 15522,16798 15610,17103 Z"/>
     <path fill="none" stroke="rgb(178,178,178)" id="Drawing_1_0" stroke-width="40" stroke-linejoin="round" d="M 15610,17103 L 15522,16798 15170,17001 15258,17307 15610,17103 Z"/>
    </g>
    <g>
     <defs>
      <linearGradient id="Gradient_60" gradientUnits="userSpaceOnUse" x1="15038" y1="16442" x2="15038" y2="17001">
       <stop offset="0.1" stop-color="rgb(51,51,51)"/>
       <stop offset="1" stop-color="rgb(153,153,153)"/>
      </linearGradient>
     </defs>
     <path fill="url(#Gradient_60)" stroke="rgb(178,178,178)" id="Drawing_2_0" stroke-width="40" stroke-linejoin="round" d="M 15522,16798 L 15346,16645 15082,16493 14906,16442 14554,16645 14730,16696 14994,16849 15170,17001 15522,16798 Z"/>
    </g>
    <g>
     <defs>
      <linearGradient id="Gradient_61" gradientUnits="userSpaceOnUse" x1="14465" y1="16974" x2="15259" y2="16976">
       <stop offset="0.1" stop-color="rgb(102,102,102)"/>
       <stop offset="1" stop-color="rgb(153,153,153)"/>
      </linearGradient>
     </defs>
     <path fill="url(#Gradient_61)" stroke="none" id="Drawing_3_0" d="M 14466,16848 L 14468,16796 14474,16752 14483,16717 14489,16702 14496,16689 14504,16678 14512,16669 14521,16661 14531,16655 14541,16651 14552,16647 14564,16646 14576,16645 14589,16646 14602,16647 14629,16654 14658,16664 14689,16677 14752,16710 14818,16747 14949,16813 14980,16829 15011,16848 15042,16869 15071,16893 15099,16921 15127,16955 15152,16994 15177,17040 15200,17093 15221,17155 15240,17225 15258,17306 14466,16848 Z"/>
     <path fill="none" stroke="rgb(178,178,178)" id="Drawing_3_1" stroke-width="40" stroke-linejoin="round" d="M 14466,16848 C 14466,16543 14642,16645 14818,16747 14994,16848 15170,16848 15258,17306 15258,17306 14906,17103 14466,16848 Z"/>
    </g>
    <g>
     <path fill="none" stroke="rgb(0,0,0)" id="Drawing_4_0" stroke-width="40" stroke-linejoin="round" d="M 14906,16442 C 15082,16493 15082,16493 15258,16595 15346,16645 15522,16696 15610,17103 15434,17205 15434,17205 15258,17307 15157,17260 14642,16951 14466,16849 14466,16595 14642,16595 14906,16442 Z"/>
    </g>
   </g>
   <g id="DrawingGroup_3">
    <g>
     <path fill="rgb(221,221,221)" stroke="none" d="M 11690,17772 C 11931,17772 12539,17492 12660,17422 12781,17352 12659,17142 12418,17142 12418,17295 11690,17772 11690,17772 Z"/>
     <path fill="none" stroke="rgb(221,221,221)" id="Drawing_5_0" stroke-width="40" stroke-linejoin="round" d="M 11690,17772 C 11931,17772 12539,17492 12660,17422 12781,17352 12659,17142 12418,17142 12418,17295 11690,17772 11690,17772 Z"/>
    </g>
    <g id="DrawingGroup_4">
     <g>
      <path fill="rgb(102,102,102)" stroke="none" d="M 12234,17441 L 11660,17773 11541,17773 11541,17639 12234,17238 12234,17441 Z"/>
      <path fill="rgb(103,103,103)" stroke="none" d="M 11660,17773 L 11541,17842 11541,17773 11660,17773 Z M 12234,17238 L 12421,17130 12421,17333 12234,17441 12234,17238 Z M 12224,17447 L 11678,17763 11541,17763 11541,17639 12224,17244 12224,17447 Z"/>
      <path fill="rgb(104,104,104)" stroke="none" d="M 11678,17763 L 11541,17842 11541,17763 11678,17763 Z M 12224,17244 L 12421,17130 12421,17333 12224,17447 12224,17244 Z M 12214,17453 L 11695,17753 11541,17753 11541,17639 12214,17250 12214,17453 Z"/>
      <path fill="rgb(105,105,105)" stroke="none" d="M 11695,17753 L 11541,17842 11541,17753 11695,17753 Z M 12214,17250 L 12421,17130 12421,17333 12214,17453 12214,17250 Z M 12204,17459 L 11712,17743 11541,17743 11541,17639 12204,17256 12204,17459 Z"/>
      <path fill="rgb(106,106,106)" stroke="none" d="M 11712,17743 L 11541,17842 11541,17743 11712,17743 Z M 12204,17256 L 12421,17130 12421,17333 12204,17459 12204,17256 Z M 12194,17464 L 11729,17733 11541,17733 11541,17639 12194,17261 12194,17464 Z"/>
      <path fill="rgb(107,107,107)" stroke="none" d="M 11729,17733 L 11541,17842 11541,17733 11729,17733 Z M 12194,17261 L 12421,17130 12421,17333 12194,17464 12194,17261 Z M 12184,17470 L 11747,17723 11541,17723 11541,17639 12184,17267 12184,17470 Z"/>
      <path fill="rgb(108,108,108)" stroke="none" d="M 11747,17723 L 11541,17842 11541,17723 11747,17723 Z M 12184,17267 L 12421,17130 12421,17333 12184,17470 12184,17267 Z M 12174,17476 L 11764,17713 11541,17713 11541,17639 12174,17273 12174,17476 Z"/>
      <path fill="rgb(110,110,110)" stroke="none" d="M 11764,17713 L 11541,17842 11541,17713 11764,17713 Z M 12174,17273 L 12421,17130 12421,17333 12174,17476 12174,17273 Z M 12164,17482 L 11781,17703 11541,17703 11541,17639 12164,17279 12164,17482 Z"/>
      <path fill="rgb(111,111,111)" stroke="none" d="M 11781,17703 L 11541,17842 11541,17703 11781,17703 Z M 12164,17279 L 12421,17130 12421,17333 12164,17482 12164,17279 Z M 12154,17487 L 11799,17693 11541,17693 11541,17639 12154,17284 12154,17487 Z"/>
      <path fill="rgb(112,112,112)" stroke="none" d="M 11799,17693 L 11541,17842 11541,17693 11799,17693 Z M 12154,17284 L 12421,17130 12421,17333 12154,17487 12154,17284 Z M 12144,17493 L 11816,17683 11541,17683 11541,17639 12144,17290 12144,17493 Z"/>
      <path fill="rgb(113,113,113)" stroke="none" d="M 11816,17683 L 11541,17842 11541,17683 11816,17683 Z M 12144,17290 L 12421,17130 12421,17333 12144,17493 12144,17290 Z M 12134,17499 L 11833,17673 11541,17673 11541,17639 12134,17296 12134,17499 Z"/>
      <path fill="rgb(114,114,114)" stroke="none" d="M 11833,17673 L 11541,17842 11541,17673 11833,17673 Z M 12134,17296 L 12421,17130 12421,17333 12134,17499 12134,17296 Z M 12124,17505 L 11850,17663 11541,17663 11541,17639 12124,17302 12124,17505 Z"/>
      <path fill="rgb(115,115,115)" stroke="none" d="M 11850,17663 L 11541,17842 11541,17663 11850,17663 Z M 12124,17302 L 12421,17130 12421,17333 12124,17505 12124,17302 Z M 12114,17511 L 11868,17653 11541,17653 11541,17639 12114,17308 12114,17511 Z"/>
      <path fill="rgb(117,117,117)" stroke="none" d="M 11868,17653 L 11541,17842 11541,17653 11868,17653 Z M 12114,17308 L 12421,17130 12421,17333 12114,17511 12114,17308 Z M 12104,17516 L 11885,17643 11541,17643 11541,17639 12104,17313 12104,17516 Z"/>
      <path fill="rgb(118,118,118)" stroke="none" d="M 11885,17643 L 11541,17842 11541,17643 11885,17643 Z M 12104,17313 L 12421,17130 12421,17333 12104,17516 12104,17313 Z M 12094,17522 L 11902,17633 11551,17633 12094,17319 12094,17522 Z"/>
      <path fill="rgb(119,119,119)" stroke="none" d="M 11902,17633 L 11541,17842 11541,17639 11551,17633 11902,17633 Z M 12094,17319 L 12421,17130 12421,17333 12094,17522 12094,17319 Z M 12084,17528 L 11920,17623 11569,17623 12084,17325 12084,17528 Z"/>
      <path fill="rgb(120,120,120)" stroke="none" d="M 11920,17623 L 11541,17842 11541,17639 11569,17623 11920,17623 Z M 12084,17325 L 12421,17130 12421,17333 12084,17528 12084,17325 Z M 12074,17534 L 11937,17613 11586,17613 12074,17331 12074,17534 Z"/>
      <path fill="rgb(121,121,121)" stroke="none" d="M 11937,17613 L 11541,17842 11541,17639 11586,17613 11937,17613 Z M 12074,17331 L 12421,17130 12421,17333 12074,17534 12074,17331 Z M 12064,17539 L 11954,17603 11603,17603 12064,17336 12064,17539 Z"/>
      <path fill="rgb(122,122,122)" stroke="none" d="M 11954,17603 L 11541,17842 11541,17639 11603,17603 11954,17603 Z M 12064,17336 L 12421,17130 12421,17333 12064,17539 12064,17336 Z M 12054,17545 L 11971,17593 11621,17593 12054,17342 12054,17545 Z"/>
      <path fill="rgb(124,124,124)" stroke="none" d="M 11971,17593 L 11541,17842 11541,17639 11621,17593 11971,17593 Z M 12054,17342 L 12421,17130 12421,17333 12054,17545 12054,17342 Z M 12044,17551 L 11989,17583 11638,17583 12044,17348 12044,17551 Z"/>
      <path fill="rgb(125,125,125)" stroke="none" d="M 11989,17583 L 11541,17842 11541,17639 11638,17583 11989,17583 Z M 12044,17348 L 12421,17130 12421,17333 12044,17551 12044,17348 Z M 12034,17557 L 12006,17573 11655,17573 12034,17354 12034,17557 Z"/>
      <path fill="rgb(126,126,126)" stroke="none" d="M 12006,17573 L 11541,17842 11541,17639 11655,17573 12006,17573 Z M 12034,17354 L 12421,17130 12421,17333 12034,17557 12034,17354 Z M 12024,17563 L 12023,17563 11672,17563 12024,17360 12024,17563 Z"/>
      <path fill="rgb(127,127,127)" stroke="none" d="M 12023,17563 L 11541,17842 11541,17639 11672,17563 12023,17563 Z M 12024,17360 L 12421,17130 12421,17333 12024,17563 12024,17360 Z M 12014,17553 L 11690,17553 12014,17365 12014,17553 Z"/>
      <path fill="rgb(128,128,128)" stroke="none" d="M 12014,17553 L 12014,17365 12421,17130 12421,17333 11541,17842 11541,17639 11690,17553 12014,17553 Z M 12004,17543 L 11707,17543 12004,17371 12004,17543 Z"/>
      <path fill="rgb(129,129,129)" stroke="none" d="M 12004,17543 L 12004,17371 12421,17130 12421,17333 11541,17842 11541,17639 11707,17543 12004,17543 Z M 11994,17533 L 11724,17533 11994,17377 11994,17533 Z"/>
      <path fill="rgb(130,130,130)" stroke="none" d="M 11994,17533 L 11994,17377 12421,17130 12421,17333 11541,17842 11541,17639 11724,17533 11994,17533 Z M 11984,17523 L 11742,17523 11984,17383 11984,17523 Z"/>
      <path fill="rgb(132,132,132)" stroke="none" d="M 11984,17523 L 11984,17383 12421,17130 12421,17333 11541,17842 11541,17639 11742,17523 11984,17523 Z M 11974,17513 L 11759,17513 11974,17389 11974,17513 Z"/>
      <path fill="rgb(133,133,133)" stroke="none" d="M 11974,17513 L 11974,17389 12421,17130 12421,17333 11541,17842 11541,17639 11759,17513 11974,17513 Z M 11964,17503 L 11776,17503 11964,17394 11964,17503 Z"/>
      <path fill="rgb(134,134,134)" stroke="none" d="M 11964,17503 L 11964,17394 12421,17130 12421,17333 11541,17842 11541,17639 11776,17503 11964,17503 Z M 11954,17493 L 11793,17493 11954,17400 11954,17493 Z"/>
      <path fill="rgb(135,135,135)" stroke="none" d="M 11954,17493 L 11954,17400 12421,17130 12421,17333 11541,17842 11541,17639 11793,17493 11954,17493 Z M 11943,17482 L 11812,17482 11943,17406 11943,17482 Z"/>
      <path fill="rgb(136,136,136)" stroke="none" d="M 11943,17482 L 11943,17406 12421,17130 12421,17333 11541,17842 11541,17639 11812,17482 11943,17482 Z M 11933,17472 L 11830,17472 11933,17412 11933,17472 Z"/>
      <path fill="rgb(137,137,137)" stroke="none" d="M 11933,17472 L 11933,17412 12421,17130 12421,17333 11541,17842 11541,17639 11830,17472 11933,17472 Z M 11923,17462 L 11847,17462 11923,17418 11923,17462 Z"/>
      <path fill="rgb(139,139,139)" stroke="none" d="M 11923,17462 L 11923,17418 12421,17130 12421,17333 11541,17842 11541,17639 11847,17462 11923,17462 Z M 11913,17452 L 11864,17452 11913,17424 11913,17452 Z"/>
      <path fill="rgb(140,140,140)" stroke="none" d="M 11913,17452 L 11913,17424 12421,17130 12421,17333 11541,17842 11541,17639 11864,17452 11913,17452 Z M 11903,17442 L 11882,17442 11903,17430 11903,17442 Z"/>
      <path fill="rgb(141,141,141)" stroke="none" d="M 11903,17442 L 11903,17430 12421,17130 12421,17333 11541,17842 11541,17639 11882,17442 11903,17442 Z"/>
      <path fill="rgb(142,142,142)" stroke="none" d="M 12421,17333 L 11541,17842 11541,17639 12421,17130 12421,17333 Z"/>
      <path fill="rgb(143,143,143)" stroke="none" d="M 12421,17333 L 11541,17842 11541,17639 12421,17130 12421,17333 Z"/>
      <path fill="rgb(144,144,144)" stroke="none" d="M 12421,17333 L 11541,17842 11541,17639 12421,17130 12421,17333 Z"/>
      <path fill="rgb(146,146,146)" stroke="none" d="M 12421,17333 L 11541,17842 11541,17639 12421,17130 12421,17333 Z"/>
      <path fill="rgb(147,147,147)" stroke="none" d="M 12421,17333 L 11541,17842 11541,17639 12421,17130 12421,17333 Z"/>
      <path fill="rgb(148,148,148)" stroke="none" d="M 12421,17333 L 11541,17842 11541,17639 12421,17130 12421,17333 Z"/>
      <path fill="rgb(149,149,149)" stroke="none" d="M 12421,17333 L 11541,17842 11541,17639 12421,17130 12421,17333 Z"/>
      <path fill="rgb(150,150,150)" stroke="none" d="M 12421,17333 L 11541,17842 11541,17639 12421,17130 12421,17333 Z"/>
      <path fill="rgb(153,153,153)" stroke="none" d="M 12421,17333 L 11541,17842 11541,17639 12421,17130 12421,17333 Z"/>
      <path fill="none" stroke="rgb(178,178,178)" id="Drawing_6_0" stroke-width="40" stroke-linejoin="round" d="M 12421,17333 L 12421,17130 11541,17639 11541,17842 12421,17333 Z"/>
     </g>
     <g>
      <path fill="rgb(102,102,102)" stroke="none" d="M 11530,16831 L 11141,17056 10837,17056 10837,16876 11530,16475 11530,16831 Z"/>
      <path fill="rgb(103,103,103)" stroke="none" d="M 11141,17056 L 10837,17232 10837,17056 11141,17056 Z M 11530,16475 L 11717,16367 11717,16723 11530,16831 11530,16475 Z M 11520,16837 L 11159,17046 10837,17046 10837,16876 11520,16481 11520,16837 Z"/>
      <path fill="rgb(104,104,104)" stroke="none" d="M 11159,17046 L 10837,17232 10837,17046 11159,17046 Z M 11520,16481 L 11717,16367 11717,16723 11520,16837 11520,16481 Z M 11510,16843 L 11176,17036 10837,17036 10837,16876 11510,16487 11510,16843 Z"/>
      <path fill="rgb(105,105,105)" stroke="none" d="M 11176,17036 L 10837,17232 10837,17036 11176,17036 Z M 11510,16487 L 11717,16367 11717,16723 11510,16843 11510,16487 Z M 11500,16849 L 11193,17026 10837,17026 10837,16876 11500,16493 11500,16849 Z"/>
      <path fill="rgb(106,106,106)" stroke="none" d="M 11193,17026 L 10837,17232 10837,17026 11193,17026 Z M 11500,16493 L 11717,16367 11717,16723 11500,16849 11500,16493 Z M 11490,16854 L 11210,17016 10837,17016 10837,16876 11490,16498 11490,16854 Z"/>
      <path fill="rgb(107,107,107)" stroke="none" d="M 11210,17016 L 10837,17232 10837,17016 11210,17016 Z M 11490,16498 L 11717,16367 11717,16723 11490,16854 11490,16498 Z M 11480,16860 L 11228,17006 10837,17006 10837,16876 11480,16504 11480,16860 Z"/>
      <path fill="rgb(108,108,108)" stroke="none" d="M 11228,17006 L 10837,17232 10837,17006 11228,17006 Z M 11480,16504 L 11717,16367 11717,16723 11480,16860 11480,16504 Z M 11470,16866 L 11245,16996 10837,16996 10837,16876 11470,16510 11470,16866 Z"/>
      <path fill="rgb(110,110,110)" stroke="none" d="M 11245,16996 L 10837,17232 10837,16996 11245,16996 Z M 11470,16510 L 11717,16367 11717,16723 11470,16866 11470,16510 Z M 11460,16872 L 11262,16986 10837,16986 10837,16876 11460,16516 11460,16872 Z"/>
      <path fill="rgb(111,111,111)" stroke="none" d="M 11262,16986 L 10837,17232 10837,16986 11262,16986 Z M 11460,16516 L 11717,16367 11717,16723 11460,16872 11460,16516 Z M 11450,16877 L 11280,16976 10837,16976 10837,16876 11450,16521 11450,16877 Z"/>
      <path fill="rgb(112,112,112)" stroke="none" d="M 11280,16976 L 10837,17232 10837,16976 11280,16976 Z M 11450,16521 L 11717,16367 11717,16723 11450,16877 11450,16521 Z M 11440,16883 L 11297,16966 10837,16966 10837,16876 11440,16527 11440,16883 Z"/>
      <path fill="rgb(113,113,113)" stroke="none" d="M 11297,16966 L 10837,17232 10837,16966 11297,16966 Z M 11440,16527 L 11717,16367 11717,16723 11440,16883 11440,16527 Z M 11430,16889 L 11314,16956 10837,16956 10837,16876 11430,16533 11430,16889 Z"/>
      <path fill="rgb(114,114,114)" stroke="none" d="M 11314,16956 L 10837,17232 10837,16956 11314,16956 Z M 11430,16533 L 11717,16367 11717,16723 11430,16889 11430,16533 Z M 11420,16895 L 11331,16946 10837,16946 10837,16876 11420,16539 11420,16895 Z"/>
      <path fill="rgb(115,115,115)" stroke="none" d="M 11331,16946 L 10837,17232 10837,16946 11331,16946 Z M 11420,16539 L 11717,16367 11717,16723 11420,16895 11420,16539 Z M 11410,16901 L 11349,16936 10837,16936 10837,16876 11410,16545 11410,16901 Z"/>
      <path fill="rgb(117,117,117)" stroke="none" d="M 11349,16936 L 10837,17232 10837,16936 11349,16936 Z M 11410,16545 L 11717,16367 11717,16723 11410,16901 11410,16545 Z M 11400,16906 L 11366,16926 10837,16926 10837,16876 11400,16550 11400,16906 Z"/>
      <path fill="rgb(118,118,118)" stroke="none" d="M 11366,16926 L 10837,17232 10837,16926 11366,16926 Z M 11400,16550 L 11717,16367 11717,16723 11400,16906 11400,16550 Z M 11390,16912 L 11383,16916 10837,16916 10837,16876 11390,16556 11390,16912 Z"/>
      <path fill="rgb(119,119,119)" stroke="none" d="M 11383,16916 L 10837,17232 10837,16916 11383,16916 Z M 11390,16556 L 11717,16367 11717,16723 11390,16912 11390,16556 Z M 11380,16906 L 10837,16906 10837,16876 11380,16562 11380,16906 Z"/>
      <path fill="rgb(120,120,120)" stroke="none" d="M 11380,16906 L 11380,16562 11717,16367 11717,16723 10837,17232 10837,16906 11380,16906 Z M 11370,16896 L 10837,16896 10837,16876 11370,16568 11370,16896 Z"/>
      <path fill="rgb(121,121,121)" stroke="none" d="M 11370,16896 L 11370,16568 11717,16367 11717,16723 10837,17232 10837,16896 11370,16896 Z M 11360,16886 L 10839,16886 10839,16875 11360,16573 11360,16886 Z"/>
      <path fill="rgb(122,122,122)" stroke="none" d="M 10839,16886 L 11360,16886 11360,16573 11717,16367 11717,16723 10837,17232 10837,16876 10839,16875 10839,16886 Z M 11350,16876 L 10849,16876 10849,16869 11350,16579 11350,16876 Z"/>
      <path fill="rgb(124,124,124)" stroke="none" d="M 10849,16876 L 11350,16876 11350,16579 11717,16367 11717,16723 10837,17232 10837,16876 10849,16869 10849,16876 Z M 11340,16866 L 10859,16866 10859,16863 11340,16585 11340,16866 Z"/>
      <path fill="rgb(125,125,125)" stroke="none" d="M 10859,16866 L 11340,16866 11340,16585 11717,16367 11717,16723 10837,17232 10837,16876 10859,16863 10859,16866 Z M 11330,16856 L 10872,16856 11330,16591 11330,16856 Z"/>
      <path fill="rgb(126,126,126)" stroke="none" d="M 11330,16856 L 11330,16591 11717,16367 11717,16723 10837,17232 10837,16876 10872,16856 11330,16856 Z M 11320,16846 L 10889,16846 11320,16597 11320,16846 Z"/>
      <path fill="rgb(127,127,127)" stroke="none" d="M 11320,16846 L 11320,16597 11717,16367 11717,16723 10837,17232 10837,16876 10889,16846 11320,16846 Z M 11310,16836 L 10906,16836 11310,16602 11310,16836 Z"/>
      <path fill="rgb(128,128,128)" stroke="none" d="M 11310,16836 L 11310,16602 11717,16367 11717,16723 10837,17232 10837,16876 10906,16836 11310,16836 Z M 11300,16826 L 10923,16826 11300,16608 11300,16826 Z"/>
      <path fill="rgb(129,129,129)" stroke="none" d="M 11300,16826 L 11300,16608 11717,16367 11717,16723 10837,17232 10837,16876 10923,16826 11300,16826 Z M 11290,16816 L 10941,16816 11290,16614 11290,16816 Z"/>
      <path fill="rgb(130,130,130)" stroke="none" d="M 11290,16816 L 11290,16614 11717,16367 11717,16723 10837,17232 10837,16876 10941,16816 11290,16816 Z M 11280,16806 L 10958,16806 11280,16620 11280,16806 Z"/>
      <path fill="rgb(132,132,132)" stroke="none" d="M 11280,16806 L 11280,16620 11717,16367 11717,16723 10837,17232 10837,16876 10958,16806 11280,16806 Z M 11270,16796 L 10975,16796 11270,16626 11270,16796 Z"/>
      <path fill="rgb(133,133,133)" stroke="none" d="M 11270,16796 L 11270,16626 11717,16367 11717,16723 10837,17232 10837,16876 10975,16796 11270,16796 Z M 11260,16786 L 10993,16786 11260,16631 11260,16786 Z"/>
      <path fill="rgb(134,134,134)" stroke="none" d="M 11260,16786 L 11260,16631 11717,16367 11717,16723 10837,17232 10837,16876 10993,16786 11260,16786 Z M 11250,16776 L 11010,16776 11250,16637 11250,16776 Z"/>
      <path fill="rgb(135,135,135)" stroke="none" d="M 11250,16776 L 11250,16637 11717,16367 11717,16723 10837,17232 10837,16876 11010,16776 11250,16776 Z M 11239,16765 L 11029,16765 11239,16643 11239,16765 Z"/>
      <path fill="rgb(136,136,136)" stroke="none" d="M 11239,16765 L 11239,16643 11717,16367 11717,16723 10837,17232 10837,16876 11029,16765 11239,16765 Z M 11229,16755 L 11046,16755 11229,16649 11229,16755 Z"/>
      <path fill="rgb(137,137,137)" stroke="none" d="M 11229,16755 L 11229,16649 11717,16367 11717,16723 10837,17232 10837,16876 11046,16755 11229,16755 Z M 11219,16745 L 11063,16745 11219,16655 11219,16745 Z"/>
      <path fill="rgb(139,139,139)" stroke="none" d="M 11219,16745 L 11219,16655 11717,16367 11717,16723 10837,17232 10837,16876 11063,16745 11219,16745 Z M 11209,16735 L 11081,16735 11209,16661 11209,16735 Z"/>
      <path fill="rgb(140,140,140)" stroke="none" d="M 11209,16735 L 11209,16661 11717,16367 11717,16723 10837,17232 10837,16876 11081,16735 11209,16735 Z M 11199,16725 L 11098,16725 11199,16667 11199,16725 Z"/>
      <path fill="rgb(141,141,141)" stroke="none" d="M 11199,16725 L 11199,16667 11717,16367 11717,16723 10837,17232 10837,16876 11098,16725 11199,16725 Z M 11189,16715 L 11115,16715 11189,16672 11189,16715 Z"/>
      <path fill="rgb(142,142,142)" stroke="none" d="M 11189,16715 L 11189,16672 11717,16367 11717,16723 10837,17232 10837,16876 11115,16715 11189,16715 Z M 11179,16705 L 11133,16705 11179,16678 11179,16705 Z"/>
      <path fill="rgb(143,143,143)" stroke="none" d="M 11179,16705 L 11179,16678 11717,16367 11717,16723 10837,17232 10837,16876 11133,16705 11179,16705 Z M 11169,16695 L 11150,16695 11169,16684 11169,16695 Z"/>
      <path fill="rgb(144,144,144)" stroke="none" d="M 11169,16695 L 11169,16684 11717,16367 11717,16723 10837,17232 10837,16876 11150,16695 11169,16695 Z"/>
      <path fill="rgb(146,146,146)" stroke="none" d="M 11717,16723 L 10837,17232 10837,16876 11717,16367 11717,16723 Z"/>
      <path fill="rgb(147,147,147)" stroke="none" d="M 11717,16723 L 10837,17232 10837,16876 11717,16367 11717,16723 Z"/>
      <path fill="rgb(148,148,148)" stroke="none" d="M 11717,16723 L 10837,17232 10837,16876 11717,16367 11717,16723 Z"/>
      <path fill="rgb(149,149,149)" stroke="none" d="M 11717,16723 L 10837,17232 10837,16876 11717,16367 11717,16723 Z"/>
      <path fill="rgb(150,150,150)" stroke="none" d="M 11717,16723 L 10837,17232 10837,16876 11717,16367 11717,16723 Z"/>
      <path fill="rgb(153,153,153)" stroke="none" d="M 11717,16723 L 10837,17232 10837,16876 11717,16367 11717,16723 Z"/>
      <path fill="none" stroke="rgb(178,178,178)" id="Drawing_7_0" stroke-width="40" stroke-linejoin="round" d="M 11717,16723 L 11717,16367 10837,16876 10837,17232 11717,16723 Z"/>
     </g>
     <g>
      <defs>
       <linearGradient id="Gradient_62" gradientUnits="userSpaceOnUse" x1="11629" y1="16723" x2="11629" y2="17638">
        <stop offset="0.1" stop-color="rgb(51,51,51)"/>
        <stop offset="1" stop-color="rgb(153,153,153)"/>
       </linearGradient>
      </defs>
      <path fill="url(#Gradient_62)" stroke="rgb(178,178,178)" id="Drawing_8_0" stroke-width="40" stroke-linejoin="round" d="M 12421,17130 L 11717,16723 10837,17232 11541,17638 12421,17130 Z"/>
     </g>
     <g>
      <defs>
       <linearGradient id="Gradient_63" gradientUnits="userSpaceOnUse" x1="10660" y1="17408" x2="11542" y2="17410">
        <stop offset="0.1" stop-color="rgb(102,102,102)"/>
        <stop offset="1" stop-color="rgb(153,153,153)"/>
       </linearGradient>
      </defs>
      <path fill="url(#Gradient_63)" stroke="rgb(178,178,178)" id="Drawing_9_0" stroke-width="40" stroke-linejoin="round" d="M 11541,17842 L 11541,17638 10837,17231 10837,16977 10661,17079 10661,17333 11541,17842 Z"/>
     </g>
     <g>
      <path fill="rgb(102,102,102)" stroke="none" d="M 13312,15547 L 11976,16319 10573,16319 10573,14892 13312,13309 13312,15547 Z"/>
      <path fill="rgb(103,103,103)" stroke="none" d="M 11976,16319 L 10573,17130 10573,16319 11976,16319 Z M 13312,13309 L 13388,13265 13388,15503 13312,15547 13312,13309 Z M 13274,15569 L 12042,16281 10573,16281 10573,14892 13274,13331 13274,15569 Z"/>
      <path fill="rgb(104,104,104)" stroke="none" d="M 12042,16281 L 10573,17130 10573,16281 12042,16281 Z M 13274,13331 L 13388,13265 13388,15503 13274,15569 13274,13331 Z M 13236,15591 L 12108,16243 10573,16243 10573,14892 13236,13353 13236,15591 Z"/>
      <path fill="rgb(105,105,105)" stroke="none" d="M 12108,16243 L 10573,17130 10573,16243 12108,16243 Z M 13236,13353 L 13388,13265 13388,15503 13236,15591 13236,13353 Z M 13198,15613 L 12173,16205 10573,16205 10573,14892 13198,13375 13198,15613 Z"/>
      <path fill="rgb(106,106,106)" stroke="none" d="M 12173,16205 L 10573,17130 10573,16205 12173,16205 Z M 13198,13375 L 13388,13265 13388,15503 13198,15613 13198,13375 Z M 13160,15635 L 12239,16167 10573,16167 10573,14892 13160,13397 13160,15635 Z"/>
      <path fill="rgb(107,107,107)" stroke="none" d="M 12239,16167 L 10573,17130 10573,16167 12239,16167 Z M 13160,13397 L 13388,13265 13388,15503 13160,15635 13160,13397 Z M 13122,15657 L 12305,16129 10573,16129 10573,14892 13122,13419 13122,15657 Z"/>
      <path fill="rgb(108,108,108)" stroke="none" d="M 12305,16129 L 10573,17130 10573,16129 12305,16129 Z M 13122,13419 L 13388,13265 13388,15503 13122,15657 13122,13419 Z M 13084,15679 L 12371,16091 10573,16091 10573,14892 13084,13441 13084,15679 Z"/>
      <path fill="rgb(109,109,109)" stroke="none" d="M 12371,16091 L 10573,17130 10573,16091 12371,16091 Z M 13084,13441 L 13388,13265 13388,15503 13084,15679 13084,13441 Z M 13046,15701 L 12436,16053 10573,16053 10573,14892 13046,13463 13046,15701 Z"/>
      <path fill="rgb(110,110,110)" stroke="none" d="M 12436,16053 L 10573,17130 10573,16053 12436,16053 Z M 13046,13463 L 13388,13265 13388,15503 13046,15701 13046,13463 Z M 13008,15723 L 12502,16015 10573,16015 10573,14892 13008,13485 13008,15723 Z"/>
      <path fill="rgb(111,111,111)" stroke="none" d="M 12502,16015 L 10573,17130 10573,16015 12502,16015 Z M 13008,13485 L 13388,13265 13388,15503 13008,15723 13008,13485 Z M 12970,15745 L 12568,15977 10573,15977 10573,14892 12970,13507 12970,15745 Z"/>
      <path fill="rgb(112,112,112)" stroke="none" d="M 12568,15977 L 10573,17130 10573,15977 12568,15977 Z M 12970,13507 L 13388,13265 13388,15503 12970,15745 12970,13507 Z M 12932,15767 L 12634,15939 10573,15939 10573,14892 12932,13529 12932,15767 Z"/>
      <path fill="rgb(113,113,113)" stroke="none" d="M 12634,15939 L 10573,17130 10573,15939 12634,15939 Z M 12932,13529 L 13388,13265 13388,15503 12932,15767 12932,13529 Z M 12894,15789 L 12699,15901 10573,15901 10573,14892 12894,13551 12894,15789 Z"/>
      <path fill="rgb(114,114,114)" stroke="none" d="M 12699,15901 L 10573,17130 10573,15901 12699,15901 Z M 12894,13551 L 13388,13265 13388,15503 12894,15789 12894,13551 Z M 12857,15810 L 12763,15864 10573,15864 10573,14892 12857,13572 12857,15810 Z"/>
      <path fill="rgb(115,115,115)" stroke="none" d="M 12763,15864 L 10573,17130 10573,15864 12763,15864 Z M 12857,13572 L 13388,13265 13388,15503 12857,15810 12857,13572 Z M 12819,15826 L 10573,15826 10573,14892 12819,13594 12819,15826 Z"/>
      <path fill="rgb(116,116,116)" stroke="none" d="M 12819,15826 L 12819,13594 13388,13265 13388,15503 10573,17130 10573,15826 12819,15826 Z M 12781,15788 L 10573,15788 10573,14892 12781,13616 12781,15788 Z"/>
      <path fill="rgb(117,117,117)" stroke="none" d="M 12781,15788 L 12781,13616 13388,13265 13388,15503 10573,17130 10573,15788 12781,15788 Z M 12743,15750 L 10573,15750 10573,14892 12743,13638 12743,15750 Z"/>
      <path fill="rgb(118,118,118)" stroke="none" d="M 12743,15750 L 12743,13638 13388,13265 13388,15503 10573,17130 10573,15750 12743,15750 Z M 12705,15712 L 10573,15712 10573,14892 12705,13660 12705,15712 Z"/>
      <path fill="rgb(119,119,119)" stroke="none" d="M 12705,15712 L 12705,13660 13388,13265 13388,15503 10573,17130 10573,15712 12705,15712 Z M 12667,15674 L 10573,15674 10573,14892 12667,13682 12667,15674 Z"/>
      <path fill="rgb(120,120,120)" stroke="none" d="M 12667,15674 L 12667,13682 13388,13265 13388,15503 10573,17130 10573,15674 12667,15674 Z M 12629,15636 L 10573,15636 10573,14892 12629,13704 12629,15636 Z"/>
      <path fill="rgb(121,121,121)" stroke="none" d="M 12629,15636 L 12629,13704 13388,13265 13388,15503 10573,17130 10573,15636 12629,15636 Z M 12591,15598 L 10573,15598 10573,14892 12591,13726 12591,15598 Z"/>
      <path fill="rgb(122,122,122)" stroke="none" d="M 12591,15598 L 12591,13726 13388,13265 13388,15503 10573,17130 10573,15598 12591,15598 Z M 12553,15560 L 10573,15560 10573,14892 12553,13748 12553,15560 Z"/>
      <path fill="rgb(123,123,123)" stroke="none" d="M 12553,15560 L 12553,13748 13388,13265 13388,15503 10573,17130 10573,15560 12553,15560 Z M 12515,15522 L 10573,15522 10573,14892 12515,13770 12515,15522 Z"/>
      <path fill="rgb(124,124,124)" stroke="none" d="M 12515,15522 L 12515,13770 13388,13265 13388,15503 10573,17130 10573,15522 12515,15522 Z M 12477,15484 L 10573,15484 10573,14892 12477,13792 12477,15484 Z"/>
      <path fill="rgb(125,125,125)" stroke="none" d="M 12477,15484 L 12477,13792 13388,13265 13388,15503 10573,17130 10573,15484 12477,15484 Z M 12439,15446 L 10573,15446 10573,14892 12439,13813 12439,15446 Z"/>
      <path fill="rgb(126,126,126)" stroke="none" d="M 12439,15446 L 12439,13813 13388,13265 13388,15503 10573,17130 10573,15446 12439,15446 Z M 12401,15408 L 10573,15408 10573,14892 12401,13835 12401,15408 Z"/>
      <path fill="rgb(127,127,127)" stroke="none" d="M 12401,15408 L 12401,13835 13388,13265 13388,15503 10573,17130 10573,15408 12401,15408 Z M 12364,15371 L 10573,15371 10573,14892 12364,13857 12364,15371 Z"/>
      <path fill="rgb(128,128,128)" stroke="none" d="M 12364,15371 L 12364,13857 13388,13265 13388,15503 10573,17130 10573,15371 12364,15371 Z M 12326,15333 L 10573,15333 10573,14892 12326,13879 12326,15333 Z"/>
      <path fill="rgb(129,129,129)" stroke="none" d="M 12326,15333 L 12326,13879 13388,13265 13388,15503 10573,17130 10573,15333 12326,15333 Z M 12288,15295 L 10573,15295 10573,14892 12288,13901 12288,15295 Z"/>
      <path fill="rgb(130,130,130)" stroke="none" d="M 12288,15295 L 12288,13901 13388,13265 13388,15503 10573,17130 10573,15295 12288,15295 Z M 12250,15257 L 10582,15257 10582,14887 12250,13923 12250,15257 Z"/>
      <path fill="rgb(131,131,131)" stroke="none" d="M 10582,15257 L 12250,15257 12250,13923 13388,13265 13388,15503 10573,17130 10573,14892 10582,14887 10582,15257 Z M 12212,15219 L 10620,15219 10620,14865 12212,13945 12212,15219 Z"/>
      <path fill="rgb(132,132,132)" stroke="none" d="M 10620,15219 L 12212,15219 12212,13945 13388,13265 13388,15503 10573,17130 10573,14892 10620,14865 10620,15219 Z M 12174,15181 L 10658,15181 10658,14843 12174,13967 12174,15181 Z"/>
      <path fill="rgb(133,133,133)" stroke="none" d="M 10658,15181 L 12174,15181 12174,13967 13388,13265 13388,15503 10573,17130 10573,14892 10658,14843 10658,15181 Z M 12136,15143 L 10696,15143 10696,14821 12136,13989 12136,15143 Z"/>
      <path fill="rgb(134,134,134)" stroke="none" d="M 10696,15143 L 12136,15143 12136,13989 13388,13265 13388,15503 10573,17130 10573,14892 10696,14821 10696,15143 Z M 12098,15105 L 10734,15105 10734,14799 12098,14011 12098,15105 Z"/>
      <path fill="rgb(135,135,135)" stroke="none" d="M 10734,15105 L 12098,15105 12098,14011 13388,13265 13388,15503 10573,17130 10573,14892 10734,14799 10734,15105 Z M 12060,15067 L 10772,15067 10772,14777 12060,14033 12060,15067 Z"/>
      <path fill="rgb(136,136,136)" stroke="none" d="M 10772,15067 L 12060,15067 12060,14033 13388,13265 13388,15503 10573,17130 10573,14892 10772,14777 10772,15067 Z M 12022,15029 L 10810,15029 10810,14755 12022,14055 12022,15029 Z"/>
      <path fill="rgb(137,137,137)" stroke="none" d="M 10810,15029 L 12022,15029 12022,14055 13388,13265 13388,15503 10573,17130 10573,14892 10810,14755 10810,15029 Z M 11984,14991 L 10848,14991 10848,14733 11984,14076 11984,14991 Z"/>
      <path fill="rgb(138,138,138)" stroke="none" d="M 10848,14991 L 11984,14991 11984,14076 13388,13265 13388,15503 10573,17130 10573,14892 10848,14733 10848,14991 Z M 11946,14953 L 10886,14953 10886,14711 11946,14098 11946,14953 Z"/>
      <path fill="rgb(139,139,139)" stroke="none" d="M 10886,14953 L 11946,14953 11946,14098 13388,13265 13388,15503 10573,17130 10573,14892 10886,14711 10886,14953 Z M 11908,14915 L 10924,14915 10924,14689 11908,14120 11908,14915 Z"/>
      <path fill="rgb(140,140,140)" stroke="none" d="M 10924,14915 L 11908,14915 11908,14120 13388,13265 13388,15503 10573,17130 10573,14892 10924,14689 10924,14915 Z M 11871,14878 L 10961,14878 10961,14668 11871,14142 11871,14878 Z"/>
      <path fill="rgb(141,141,141)" stroke="none" d="M 10961,14878 L 11871,14878 11871,14142 13388,13265 13388,15503 10573,17130 10573,14892 10961,14668 10961,14878 Z M 11833,14840 L 10999,14840 10999,14646 11833,14164 11833,14840 Z"/>
      <path fill="rgb(142,142,142)" stroke="none" d="M 10999,14840 L 11833,14840 11833,14164 13388,13265 13388,15503 10573,17130 10573,14892 10999,14646 10999,14840 Z M 11795,14802 L 11037,14802 11037,14624 11795,14186 11795,14802 Z"/>
      <path fill="rgb(143,143,143)" stroke="none" d="M 11037,14802 L 11795,14802 11795,14186 13388,13265 13388,15503 10573,17130 10573,14892 11037,14624 11037,14802 Z M 11757,14764 L 11075,14764 11075,14602 11757,14208 11757,14764 Z"/>
      <path fill="rgb(144,144,144)" stroke="none" d="M 11075,14764 L 11757,14764 11757,14208 13388,13265 13388,15503 10573,17130 10573,14892 11075,14602 11075,14764 Z M 11719,14726 L 11113,14726 11113,14580 11719,14230 11719,14726 Z"/>
      <path fill="rgb(145,145,145)" stroke="none" d="M 11113,14726 L 11719,14726 11719,14230 13388,13265 13388,15503 10573,17130 10573,14892 11113,14580 11113,14726 Z M 11681,14688 L 11151,14688 11151,14558 11681,14252 11681,14688 Z"/>
      <path fill="rgb(146,146,146)" stroke="none" d="M 11151,14688 L 11681,14688 11681,14252 13388,13265 13388,15503 10573,17130 10573,14892 11151,14558 11151,14688 Z M 11643,14650 L 11189,14650 11189,14536 11643,14274 11643,14650 Z"/>
      <path fill="rgb(147,147,147)" stroke="none" d="M 11189,14650 L 11643,14650 11643,14274 13388,13265 13388,15503 10573,17130 10573,14892 11189,14536 11189,14650 Z M 11605,14612 L 11227,14612 11227,14514 11605,14296 11605,14612 Z"/>
      <path fill="rgb(148,148,148)" stroke="none" d="M 11227,14612 L 11605,14612 11605,14296 13388,13265 13388,15503 10573,17130 10573,14892 11227,14514 11227,14612 Z M 11567,14574 L 11265,14574 11265,14492 11567,14317 11567,14574 Z"/>
      <path fill="rgb(149,149,149)" stroke="none" d="M 11265,14574 L 11567,14574 11567,14317 13388,13265 13388,15503 10573,17130 10573,14892 11265,14492 11265,14574 Z M 11529,14536 L 11303,14536 11303,14470 11529,14339 11529,14536 Z"/>
      <path fill="rgb(150,150,150)" stroke="none" d="M 11303,14536 L 11529,14536 11529,14339 13388,13265 13388,15503 10573,17130 10573,14892 11303,14470 11303,14536 Z M 11491,14498 L 11341,14498 11341,14448 11491,14361 11491,14498 Z"/>
      <path fill="rgb(151,151,151)" stroke="none" d="M 11341,14498 L 11491,14498 11491,14361 13388,13265 13388,15503 10573,17130 10573,14892 11341,14448 11341,14498 Z M 11453,14386 L 11453,14460 11379,14460 11379,14426 11448,14386 11453,14386 Z"/>
      <path fill="rgb(153,153,153)" stroke="none" d="M 11379,14460 L 11453,14460 11453,14386 11448,14386 13388,13265 13388,15503 10573,17130 10573,14892 11379,14426 11379,14460 Z"/>
      <path fill="none" stroke="rgb(178,178,178)" id="Drawing_10_0" stroke-width="40" stroke-linejoin="round" d="M 13388,15503 L 13388,13265 10573,14892 10573,17130 13388,15503 Z"/>
     </g>
     <g>
      <defs>
       <linearGradient id="Gradient_64" gradientUnits="userSpaceOnUse" x1="10657" y1="15195" x2="13302" y2="15199">
        <stop offset="0.1" stop-color="rgb(147,212,240)"/>
        <stop offset="1" stop-color="rgb(233,246,252)"/>
       </linearGradient>
      </defs>
      <path fill="url(#Gradient_64)" stroke="rgb(51,51,51)" id="Drawing_11_0" stroke-width="40" stroke-linejoin="round" d="M 13300,15451 L 13300,13417 10661,14943 10661,16977 13300,15451 Z"/>
     </g>
     <g>
      <defs>
       <linearGradient id="Gradient_65" gradientUnits="userSpaceOnUse" x1="11892" y1="13163" x2="11892" y2="14892">
        <stop offset="0.1" stop-color="rgb(51,51,51)"/>
        <stop offset="1" stop-color="rgb(153,153,153)"/>
       </linearGradient>
      </defs>
      <path fill="url(#Gradient_65)" stroke="rgb(178,178,178)" id="Drawing_12_0" stroke-width="40" stroke-linejoin="round" d="M 10573,14892 L 13388,13265 13212,13163 10397,14790 10573,14892 Z"/>
     </g>
     <g>
      <defs>
       <linearGradient id="Gradient_66" gradientUnits="userSpaceOnUse" x1="10395" y1="15959" x2="10575" y2="15959">
        <stop offset="0.1" stop-color="rgb(102,102,102)"/>
        <stop offset="1" stop-color="rgb(153,153,153)"/>
       </linearGradient>
      </defs>
      <path fill="url(#Gradient_66)" stroke="rgb(178,178,178)" id="Drawing_13_0" stroke-width="40" stroke-linejoin="round" d="M 10573,17129 L 10573,14892 10397,14790 10397,17028 10573,17129 Z"/>
     </g>
     <g>
      <path fill="none" stroke="rgb(0,0,0)" id="Drawing_14_0" stroke-width="40" stroke-linejoin="round" d="M 13212,13163 L 10397,14790 10397,17028 10573,17130 10661,17079 10661,17333 11540,17842 12420,17333 12420,17130 11716,16723 11716,16469 13388,15502 13388,13265 13212,13163 Z"/>
     </g>
    </g>
   </g>
   <g id="DrawingGroup_5">
    <g>
     <path fill="rgb(221,221,221)" stroke="none" d="M 14127,18007 C 14127,18007 14612,17867 14733,17797 14864,17721 14975,17517 14733,17517 14733,17670 14127,18007 14127,18007 Z"/>
     <path fill="none" stroke="rgb(221,221,221)" id="Drawing_15_0" stroke-width="40" stroke-linejoin="round" d="M 14127,18007 C 14127,18007 14612,17867 14733,17797 14864,17721 14975,17517 14733,17517 14733,17670 14127,18007 14127,18007 Z"/>
    </g>
    <g id="DrawingGroup_6">
     <g>
      <defs>
       <linearGradient id="Gradient_67" gradientUnits="userSpaceOnUse" x1="12841" y1="16877" x2="12841" y2="19064">
        <stop offset="0.1" stop-color="rgb(51,51,51)"/>
        <stop offset="1" stop-color="rgb(153,153,153)"/>
       </linearGradient>
      </defs>
      <path fill="url(#Gradient_67)" stroke="rgb(178,178,178)" id="Drawing_16_0" stroke-width="40" stroke-linejoin="round" d="M 11918,19064 L 14733,17436 13765,16877 10950,18504 11918,19064 Z"/>
     </g>
     <g>
      <defs>
       <linearGradient id="Gradient_68" gradientUnits="userSpaceOnUse" x1="10949" y1="18884" x2="11919" y2="18886">
        <stop offset="0.1" stop-color="rgb(102,102,102)"/>
        <stop offset="1" stop-color="rgb(153,153,153)"/>
       </linearGradient>
      </defs>
      <path fill="url(#Gradient_68)" stroke="rgb(178,178,178)" id="Drawing_17_0" stroke-width="40" stroke-linejoin="round" d="M 11918,19267 L 11918,19063 10950,18504 10950,18707 11918,19267 Z"/>
     </g>
     <g>
      <path fill="rgb(102,102,102)" stroke="none" d="M 14142,17981 L 11918,19267 11918,19063 14142,17778 14142,17981 Z"/>
      <path fill="rgb(103,103,103)" stroke="none" d="M 14142,17778 L 14733,17436 14733,17639 14142,17981 14142,17778 Z M 14114,17997 L 11918,19267 11918,19063 14114,17794 14114,17997 Z"/>
      <path fill="rgb(104,104,104)" stroke="none" d="M 14114,17794 L 14733,17436 14733,17639 14114,17997 14114,17794 Z M 14087,18013 L 11918,19267 11918,19063 14087,17809 14087,18013 Z"/>
      <path fill="rgb(105,105,105)" stroke="none" d="M 14087,17809 L 14733,17436 14733,17639 14087,18013 14087,17809 Z M 14059,18029 L 11918,19267 11918,19063 14059,17826 14059,18029 Z"/>
      <path fill="rgb(106,106,106)" stroke="none" d="M 14059,17826 L 14733,17436 14733,17639 14059,18029 14059,17826 Z M 14031,18045 L 11940,19254 11918,19254 11918,19063 14031,17842 14031,18045 Z"/>
      <path fill="rgb(107,107,107)" stroke="none" d="M 11940,19254 L 11918,19267 11918,19254 11940,19254 Z M 14031,17842 L 14733,17436 14733,17639 14031,18045 14031,17842 Z M 14004,18061 L 11987,19227 11918,19227 11918,19063 14004,17857 14004,18061 Z"/>
      <path fill="rgb(108,108,108)" stroke="none" d="M 11987,19227 L 11918,19267 11918,19227 11987,19227 Z M 14004,17857 L 14733,17436 14733,17639 14004,18061 14004,17857 Z M 13976,18077 L 12036,19199 11918,19199 11918,19063 13976,17874 13976,18077 Z"/>
      <path fill="rgb(109,109,109)" stroke="none" d="M 12036,19199 L 11918,19267 11918,19199 12036,19199 Z M 13976,17874 L 14733,17436 14733,17639 13976,18077 13976,17874 Z M 13948,18093 L 12084,19171 11918,19171 11918,19063 13948,17890 13948,18093 Z"/>
      <path fill="rgb(110,110,110)" stroke="none" d="M 12084,19171 L 11918,19267 11918,19171 12084,19171 Z M 13948,17890 L 14733,17436 14733,17639 13948,18093 13948,17890 Z M 13921,18109 L 12131,19144 11918,19144 11918,19063 13921,17905 13921,18109 Z"/>
      <path fill="rgb(111,111,111)" stroke="none" d="M 12131,19144 L 11918,19267 11918,19144 12131,19144 Z M 13921,17905 L 14733,17436 14733,17639 13921,18109 13921,17905 Z M 13893,18125 L 12179,19116 11918,19116 11918,19063 13893,17921 13893,18125 Z"/>
      <path fill="rgb(112,112,112)" stroke="none" d="M 12179,19116 L 11918,19267 11918,19116 12179,19116 Z M 13893,17921 L 14733,17436 14733,17639 13893,18125 13893,17921 Z M 13866,18140 L 12226,19089 11918,19089 11918,19063 13866,17937 13866,18140 Z"/>
      <path fill="rgb(113,113,113)" stroke="none" d="M 12226,19089 L 11918,19267 11918,19089 12226,19089 Z M 13866,17937 L 14733,17436 14733,17639 13866,18140 13866,17937 Z M 13838,18157 L 12274,19061 11921,19061 13838,17953 13838,18157 Z"/>
      <path fill="rgb(114,114,114)" stroke="none" d="M 12274,19061 L 11918,19267 11918,19063 11921,19061 12274,19061 Z M 13838,17953 L 14733,17436 14733,17639 13838,18157 13838,17953 Z M 13810,18173 L 12323,19033 11970,19033 13810,17969 13810,18173 Z"/>
      <path fill="rgb(115,115,115)" stroke="none" d="M 12323,19033 L 11918,19267 11918,19063 11970,19033 12323,19033 Z M 13810,17969 L 14733,17436 14733,17639 13810,18173 13810,17969 Z M 13783,18188 L 12369,19006 12017,19006 13783,17985 13783,18188 Z"/>
      <path fill="rgb(116,116,116)" stroke="none" d="M 12369,19006 L 11918,19267 11918,19063 12017,19006 12369,19006 Z M 13783,17985 L 14733,17436 14733,17639 13783,18188 13783,17985 Z M 13755,18205 L 12418,18978 12065,18978 13755,18001 13755,18205 Z"/>
      <path fill="rgb(117,117,117)" stroke="none" d="M 12418,18978 L 11918,19267 11918,19063 12065,18978 12418,18978 Z M 13755,18001 L 14733,17436 14733,17639 13755,18205 13755,18001 Z M 13727,18221 L 12466,18950 12114,18950 13727,18017 13727,18221 Z"/>
      <path fill="rgb(118,118,118)" stroke="none" d="M 12466,18950 L 11918,19267 11918,19063 12114,18950 12466,18950 Z M 13727,18017 L 14733,17436 14733,17639 13727,18221 13727,18017 Z M 13700,18236 L 12513,18923 12160,18923 13700,18033 13700,18236 Z"/>
      <path fill="rgb(119,119,119)" stroke="none" d="M 12513,18923 L 11918,19267 11918,19063 12160,18923 12513,18923 Z M 13700,18033 L 14733,17436 14733,17639 13700,18236 13700,18033 Z M 13672,18253 L 12561,18895 12209,18895 13672,18049 13672,18253 Z"/>
      <path fill="rgb(120,120,120)" stroke="none" d="M 12561,18895 L 11918,19267 11918,19063 12209,18895 12561,18895 Z M 13672,18049 L 14733,17436 14733,17639 13672,18253 13672,18049 Z M 13645,18268 L 12608,18868 12255,18868 13645,18065 13645,18268 Z"/>
      <path fill="rgb(121,121,121)" stroke="none" d="M 12608,18868 L 11918,19267 11918,19063 12255,18868 12608,18868 Z M 13645,18065 L 14733,17436 14733,17639 13645,18268 13645,18065 Z M 13617,18284 L 12656,18840 12304,18840 13617,18081 13617,18284 Z"/>
      <path fill="rgb(122,122,122)" stroke="none" d="M 12656,18840 L 11918,19267 11918,19063 12304,18840 12656,18840 Z M 13617,18081 L 14733,17436 14733,17639 13617,18284 13617,18081 Z M 13589,18301 L 12705,18812 12352,18812 13589,18097 13589,18301 Z"/>
      <path fill="rgb(123,123,123)" stroke="none" d="M 12705,18812 L 11918,19267 11918,19063 12352,18812 12705,18812 Z M 13589,18097 L 14733,17436 14733,17639 13589,18301 13589,18097 Z M 13562,18316 L 12751,18785 12399,18785 13562,18113 13562,18316 Z"/>
      <path fill="rgb(124,124,124)" stroke="none" d="M 12751,18785 L 11918,19267 11918,19063 12399,18785 12751,18785 Z M 13562,18113 L 14733,17436 14733,17639 13562,18316 13562,18113 Z M 13534,18332 L 12800,18757 12447,18757 13534,18129 13534,18332 Z"/>
      <path fill="rgb(125,125,125)" stroke="none" d="M 12800,18757 L 11918,19267 11918,19063 12447,18757 12800,18757 Z M 13534,18129 L 14733,17436 14733,17639 13534,18332 13534,18129 Z M 13506,18349 L 12848,18729 12496,18729 13506,18145 13506,18349 Z"/>
      <path fill="rgb(126,126,126)" stroke="none" d="M 12848,18729 L 11918,19267 11918,19063 12496,18729 12848,18729 Z M 13506,18145 L 14733,17436 14733,17639 13506,18349 13506,18145 Z M 13479,18364 L 12895,18702 12543,18702 13479,18161 13479,18364 Z"/>
      <path fill="rgb(127,127,127)" stroke="none" d="M 12895,18702 L 11918,19267 11918,19063 12543,18702 12895,18702 Z M 13479,18161 L 14733,17436 14733,17639 13479,18364 13479,18161 Z M 13451,18380 L 12943,18674 12591,18674 13451,18177 13451,18380 Z"/>
      <path fill="rgb(128,128,128)" stroke="none" d="M 12943,18674 L 11918,19267 11918,19063 12591,18674 12943,18674 Z M 13451,18177 L 14733,17436 14733,17639 13451,18380 13451,18177 Z M 13424,18396 L 12990,18647 12638,18647 13424,18193 13424,18396 Z"/>
      <path fill="rgb(129,129,129)" stroke="none" d="M 12990,18647 L 11918,19267 11918,19063 12638,18647 12990,18647 Z M 13424,18193 L 14733,17436 14733,17639 13424,18396 13424,18193 Z M 13396,18412 L 13038,18619 12686,18619 13396,18209 13396,18412 Z"/>
      <path fill="rgb(130,130,130)" stroke="none" d="M 13038,18619 L 11918,19267 11918,19063 12686,18619 13038,18619 Z M 13396,18209 L 14733,17436 14733,17639 13396,18412 13396,18209 Z M 13368,18428 L 13087,18591 12735,18591 13368,18225 13368,18428 Z"/>
      <path fill="rgb(131,131,131)" stroke="none" d="M 13087,18591 L 11918,19267 11918,19063 12735,18591 13087,18591 Z M 13368,18225 L 14733,17436 14733,17639 13368,18428 13368,18225 Z M 13341,18444 L 13134,18564 12781,18564 13341,18241 13341,18444 Z"/>
      <path fill="rgb(132,132,132)" stroke="none" d="M 13134,18564 L 11918,19267 11918,19063 12781,18564 13134,18564 Z M 13341,18241 L 14733,17436 14733,17639 13341,18444 13341,18241 Z M 13313,18460 L 13182,18536 12830,18536 13313,18257 13313,18460 Z"/>
      <path fill="rgb(133,133,133)" stroke="none" d="M 13182,18536 L 11918,19267 11918,19063 12830,18536 13182,18536 Z M 13313,18257 L 14733,17436 14733,17639 13313,18460 13313,18257 Z M 13285,18476 L 13230,18508 12878,18508 13285,18273 13285,18476 Z"/>
      <path fill="rgb(134,134,134)" stroke="none" d="M 13230,18508 L 11918,19267 11918,19063 12878,18508 13230,18508 Z M 13285,18273 L 14733,17436 14733,17639 13285,18476 13285,18273 Z M 13258,18481 L 12925,18481 13258,18289 13258,18481 Z"/>
      <path fill="rgb(135,135,135)" stroke="none" d="M 13258,18481 L 13258,18289 14733,17436 14733,17639 11918,19267 11918,19063 12925,18481 13258,18481 Z M 13230,18453 L 12973,18453 13230,18305 13230,18453 Z"/>
      <path fill="rgb(136,136,136)" stroke="none" d="M 13230,18453 L 13230,18305 14733,17436 14733,17639 11918,19267 11918,19063 12973,18453 13230,18453 Z M 13203,18426 L 13020,18426 13203,18320 13203,18426 Z"/>
      <path fill="rgb(137,137,137)" stroke="none" d="M 13203,18426 L 13203,18320 14733,17436 14733,17639 11918,19267 11918,19063 13020,18426 13203,18426 Z M 13175,18398 L 13069,18398 13175,18336 13175,18398 Z"/>
      <path fill="rgb(138,138,138)" stroke="none" d="M 13175,18398 L 13175,18336 14733,17436 14733,17639 11918,19267 11918,19063 13069,18398 13175,18398 Z M 13147,18370 L 13117,18370 13147,18353 13147,18370 Z"/>
      <path fill="rgb(139,139,139)" stroke="none" d="M 13147,18370 L 13147,18353 14733,17436 14733,17639 11918,19267 11918,19063 13117,18370 13147,18370 Z"/>
      <path fill="rgb(140,140,140)" stroke="none" d="M 14733,17639 L 11918,19267 11918,19063 14733,17436 14733,17639 Z"/>
      <path fill="rgb(141,141,141)" stroke="none" d="M 14733,17639 L 11918,19267 11918,19063 14733,17436 14733,17639 Z"/>
      <path fill="rgb(142,142,142)" stroke="none" d="M 14733,17639 L 11918,19267 11918,19063 14733,17436 14733,17639 Z"/>
      <path fill="rgb(143,143,143)" stroke="none" d="M 14733,17639 L 11918,19267 11918,19063 14733,17436 14733,17639 Z"/>
      <path fill="rgb(144,144,144)" stroke="none" d="M 14733,17639 L 11918,19267 11918,19063 14733,17436 14733,17639 Z"/>
      <path fill="rgb(145,145,145)" stroke="none" d="M 14733,17639 L 11918,19267 11918,19063 14733,17436 14733,17639 Z"/>
      <path fill="rgb(146,146,146)" stroke="none" d="M 14733,17639 L 11918,19267 11918,19063 14733,17436 14733,17639 Z"/>
      <path fill="rgb(147,147,147)" stroke="none" d="M 14733,17639 L 11918,19267 11918,19063 14733,17436 14733,17639 Z"/>
      <path fill="rgb(148,148,148)" stroke="none" d="M 14733,17639 L 11918,19267 11918,19063 14733,17436 14733,17639 Z"/>
      <path fill="rgb(149,149,149)" stroke="none" d="M 14733,17639 L 11918,19267 11918,19063 14733,17436 14733,17639 Z"/>
      <path fill="rgb(150,150,150)" stroke="none" d="M 14733,17639 L 11918,19267 11918,19063 14733,17436 14733,17639 Z"/>
      <path fill="rgb(151,151,151)" stroke="none" d="M 14733,17639 L 11918,19267 11918,19063 14733,17436 14733,17639 Z"/>
      <path fill="rgb(153,153,153)" stroke="none" d="M 14733,17639 L 11918,19267 11918,19063 14733,17436 14733,17639 Z"/>
      <path fill="none" stroke="rgb(178,178,178)" id="Drawing_18_0" stroke-width="40" stroke-linejoin="round" d="M 14733,17639 L 14733,17436 11918,19063 11918,19267 14733,17639 Z"/>
     </g>
     <g>
      <path fill="none" stroke="rgb(0,0,0)" id="Drawing_19_0" stroke-width="40" stroke-linejoin="round" d="M 13765,16877 L 10950,18504 10950,18708 11918,19267 14733,17640 14733,17436 13765,16877 Z"/>
     </g>
     <g id="DrawingGroup_7">
      <g>
       <path fill="rgb(127,127,127)" stroke="none" d="M 14510,17422 L 13806,17015 13278,17320 13982,17727 14510,17422 Z"/>
       <path fill="none" stroke="rgb(178,178,178)" id="Drawing_20_0" stroke-width="40" stroke-linejoin="round" d="M 14510,17422 L 13806,17015 13278,17320 13982,17727 14510,17422 Z"/>
      </g>
      <g>
       <path fill="none" stroke="rgb(178,178,178)" id="Drawing_21_0" stroke-width="40" stroke-linejoin="round" d="M 14334,17524 L 13630,17117"/>
      </g>
      <g>
       <path fill="none" stroke="rgb(178,178,178)" id="Drawing_22_0" stroke-width="40" stroke-linejoin="round" d="M 14158,17625 L 13454,17218"/>
      </g>
      <g>
       <path fill="none" stroke="rgb(178,178,178)" id="Drawing_23_0" stroke-width="40" stroke-linejoin="round" d="M 13982,17117 L 13454,17422"/>
      </g>
      <g>
       <path fill="none" stroke="rgb(178,178,178)" id="Drawing_24_0" stroke-width="40" stroke-linejoin="round" d="M 14158,17218 L 13630,17523"/>
      </g>
      <g>
       <path fill="none" stroke="rgb(178,178,178)" id="Drawing_25_0" stroke-width="40" stroke-linejoin="round" d="M 14334,17320 L 13982,17523"/>
      </g>
     </g>
     <g id="DrawingGroup_8">
      <g>
       <path fill="rgb(127,127,127)" stroke="none" d="M 13768,17849 L 13064,17442 11217,18510 11920,18917 13768,17849 Z"/>
       <path fill="none" stroke="rgb(178,178,178)" id="Drawing_26_0" stroke-width="40" stroke-linejoin="round" d="M 13768,17849 L 13064,17442 11217,18510 11920,18917 13768,17849 Z"/>
      </g>
      <g>
       <path fill="none" stroke="rgb(178,178,178)" id="Drawing_27_0" stroke-width="40" stroke-linejoin="round" d="M 13592,17747 L 11744,18815"/>
      </g>
      <g>
       <path fill="none" stroke="rgb(178,178,178)" id="Drawing_28_0" stroke-width="40" stroke-linejoin="round" d="M 13416,17646 L 11568,18714"/>
      </g>
      <g>
       <path fill="none" stroke="rgb(178,178,178)" id="Drawing_29_0" stroke-width="40" stroke-linejoin="round" d="M 13240,17544 L 11392,18612"/>
      </g>
      <g>
       <path fill="none" stroke="rgb(178,178,178)" id="Drawing_30_0" stroke-width="40" stroke-linejoin="round" d="M 11569,18511 L 11393,18409"/>
      </g>
      <g>
       <path fill="none" stroke="rgb(178,178,178)" id="Drawing_31_0" stroke-width="40" stroke-linejoin="round" d="M 11745,18409 L 11569,18307"/>
      </g>
      <g>
       <path fill="none" stroke="rgb(178,178,178)" id="Drawing_32_0" stroke-width="40" stroke-linejoin="round" d="M 11921,18307 L 11745,18205"/>
      </g>
      <g>
       <path fill="none" stroke="rgb(178,178,178)" id="Drawing_33_0" stroke-width="40" stroke-linejoin="round" d="M 11833,18561 L 11657,18459"/>
      </g>
      <g>
       <path fill="none" stroke="rgb(178,178,178)" id="Drawing_34_0" stroke-width="40" stroke-linejoin="round" d="M 12008,18460 L 11832,18358"/>
      </g>
      <g>
       <path fill="none" stroke="rgb(178,178,178)" id="Drawing_35_0" stroke-width="40" stroke-linejoin="round" d="M 12184,18358 L 12008,18256"/>
      </g>
      <g>
       <path fill="none" stroke="rgb(178,178,178)" id="Drawing_36_0" stroke-width="40" stroke-linejoin="round" d="M 12096,18205 L 11920,18103"/>
      </g>
      <g>
       <path fill="none" stroke="rgb(178,178,178)" id="Drawing_37_0" stroke-width="40" stroke-linejoin="round" d="M 12360,18256 L 12184,18154"/>
      </g>
      <g>
       <path fill="none" stroke="rgb(178,178,178)" id="Drawing_38_0" stroke-width="40" stroke-linejoin="round" d="M 12272,18104 L 12096,18002"/>
      </g>
      <g>
       <path fill="none" stroke="rgb(178,178,178)" id="Drawing_39_0" stroke-width="40" stroke-linejoin="round" d="M 12448,18002 L 12272,17900"/>
      </g>
      <g>
       <path fill="none" stroke="rgb(178,178,178)" id="Drawing_40_0" stroke-width="40" stroke-linejoin="round" d="M 12624,17900 L 12448,17798"/>
      </g>
      <g>
       <path fill="none" stroke="rgb(178,178,178)" id="Drawing_41_0" stroke-width="40" stroke-linejoin="round" d="M 12536,18155 L 12360,18053"/>
      </g>
      <g>
       <path fill="none" stroke="rgb(178,178,178)" id="Drawing_42_0" stroke-width="40" stroke-linejoin="round" d="M 12712,18053 L 12536,17951"/>
      </g>
      <g>
       <path fill="none" stroke="rgb(178,178,178)" id="Drawing_43_0" stroke-width="40" stroke-linejoin="round" d="M 12888,17951 L 12712,17849"/>
      </g>
      <g>
       <path fill="none" stroke="rgb(178,178,178)" id="Drawing_44_0" stroke-width="40" stroke-linejoin="round" d="M 12800,17799 L 12624,17697"/>
      </g>
      <g>
       <path fill="none" stroke="rgb(178,178,178)" id="Drawing_45_0" stroke-width="40" stroke-linejoin="round" d="M 13064,17849 L 12888,17747"/>
      </g>
      <g>
       <path fill="none" stroke="rgb(178,178,178)" id="Drawing_46_0" stroke-width="40" stroke-linejoin="round" d="M 12976,17697 L 12800,17595"/>
      </g>
      <g>
       <path fill="none" stroke="rgb(178,178,178)" id="Drawing_47_0" stroke-width="40" stroke-linejoin="round" d="M 13152,17595 L 12976,17493"/>
      </g>
      <g>
       <path fill="none" stroke="rgb(178,178,178)" id="Drawing_48_0" stroke-width="40" stroke-linejoin="round" d="M 13240,17748 L 13064,17646"/>
      </g>
      <g>
       <path fill="none" stroke="rgb(178,178,178)" id="Drawing_49_0" stroke-width="40" stroke-linejoin="round" d="M 12096,18612 L 11920,18510"/>
      </g>
      <g>
       <path fill="none" stroke="rgb(178,178,178)" id="Drawing_50_0" stroke-width="40" stroke-linejoin="round" d="M 12272,18511 L 12096,18409"/>
      </g>
      <g>
       <path fill="none" stroke="rgb(178,178,178)" id="Drawing_51_0" stroke-width="40" stroke-linejoin="round" d="M 12448,18409 L 12272,18307"/>
      </g>
      <g>
       <path fill="none" stroke="rgb(178,178,178)" id="Drawing_52_0" stroke-width="40" stroke-linejoin="round" d="M 12536,18561 L 12360,18459"/>
      </g>
      <g>
       <path fill="none" stroke="rgb(178,178,178)" id="Drawing_53_0" stroke-width="40" stroke-linejoin="round" d="M 12712,18460 L 12536,18358"/>
      </g>
      <g>
       <path fill="none" stroke="rgb(178,178,178)" id="Drawing_54_0" stroke-width="40" stroke-linejoin="round" d="M 12624,18307 L 12448,18205"/>
      </g>
      <g>
       <path fill="none" stroke="rgb(178,178,178)" id="Drawing_55_0" stroke-width="40" stroke-linejoin="round" d="M 12800,18205 L 12624,18103"/>
      </g>
      <g>
       <path fill="none" stroke="rgb(178,178,178)" id="Drawing_56_0" stroke-width="40" stroke-linejoin="round" d="M 12976,18104 L 12800,18002"/>
      </g>
      <g>
       <path fill="none" stroke="rgb(178,178,178)" id="Drawing_57_0" stroke-width="40" stroke-linejoin="round" d="M 13152,18002 L 12976,17900"/>
      </g>
      <g>
       <path fill="none" stroke="rgb(178,178,178)" id="Drawing_58_0" stroke-width="40" stroke-linejoin="round" d="M 13416,18053 L 13240,17951"/>
      </g>
      <g>
       <path fill="none" stroke="rgb(178,178,178)" id="Drawing_59_0" stroke-width="40" stroke-linejoin="round" d="M 13328,17900 L 13152,17798"/>
      </g>
      <g>
       <path fill="none" stroke="rgb(178,178,178)" id="Drawing_60_0" stroke-width="40" stroke-linejoin="round" d="M 13592,17951 L 13416,17849"/>
      </g>
      <g>
       <path fill="none" stroke="rgb(178,178,178)" id="Drawing_61_0" stroke-width="40" stroke-linejoin="round" d="M 12184,18765 L 12008,18663"/>
      </g>
      <g>
       <path fill="none" stroke="rgb(178,178,178)" id="Drawing_62_0" stroke-width="40" stroke-linejoin="round" d="M 12360,18663 L 12184,18561"/>
      </g>
     </g>
    </g>
   </g>
  </g>
 </g>
</svg>