<?xml version="1.0" encoding="UTF-8"?>

<svg version="1.2" baseProfile="tiny" width="50.56mm" height="61.3mm" viewBox="2168 3139 5056 6130" preserveAspectRatio="xMidYMid" fill-rule="evenodd" stroke-width="28.222" stroke-linejoin="round" xmlns="http://www.w3.org/2000/svg" xmlns:xlink="http://www.w3.org/1999/xlink" xml:space="preserve">
 <g visibility="visible" id="Slide_1">
  <g id="DrawingGroup_1">
   <g>
    <path fill="rgb(221,221,221)" stroke="none" d="M 5098,8689 C 5355,8689 7038,7779 7159,7709 7280,7639 7225,7429 7038,7429 L 5098,8689 Z"/>
    <path fill="none" stroke="rgb(221,221,221)" id="Drawing_1_0" stroke-linejoin="round" d="M 5098,8689 C 5355,8689 7038,7779 7159,7709 7280,7639 7225,7429 7038,7429 L 5098,8689 Z"/>
   </g>
   <g id="DrawingGroup_2">
    <g>
     <defs>
      <linearGradient id="Gradient_229" gradientUnits="userSpaceOnUse" x1="2187" y1="8582" x2="4129" y2="8586">
       <stop offset="0.1" stop-color="rgb(179,179,179)"/>
       <stop offset="1" stop-color="rgb(229,229,229)"/>
      </linearGradient>
     </defs>
     <path fill="url(#Gradient_229)" stroke="rgb(178,178,178)" id="Drawing_2_0" stroke-width="40" stroke-linejoin="round" d="M 2188,8129 L 2188,7919 4128,9039 4128,9249 2188,8129 Z"/>
    </g>
    <g>
     <defs>
      <linearGradient id="Gradient_230" gradientUnits="userSpaceOnUse" x1="4613" y1="6239" x2="4613" y2="9039">
       <stop offset="0.1" stop-color="rgb(179,179,179)"/>
       <stop offset="1" stop-color="rgb(229,229,229)"/>
      </linearGradient>
     </defs>
     <path fill="url(#Gradient_230)" stroke="rgb(255,255,255)" id="Drawing_3_0" stroke-width="40" stroke-linejoin="round" d="M 4128,9039 L 2188,7919 5098,6239 7038,7359 4128,9039 Z"/>
    </g>
    <g>
     <path fill="rgb(179,179,179)" stroke="none" d="M 6426,7922 L 4128,9249 4128,9039 6426,7712 6426,7922 Z"/>
     <path fill="rgb(180,180,180)" stroke="none" d="M 6426,7712 L 7038,7359 7038,7569 6426,7922 6426,7712 Z M 6397,7939 L 4128,9249 4128,9039 6397,7729 6397,7939 Z"/>
     <path fill="rgb(181,181,181)" stroke="none" d="M 6397,7729 L 7038,7359 7038,7569 6397,7939 6397,7729 Z M 6368,7956 L 4128,9249 4128,9039 6368,7746 6368,7956 Z"/>
     <path fill="rgb(182,182,182)" stroke="none" d="M 6368,7746 L 7038,7359 7038,7569 6368,7956 6368,7746 Z M 6339,7973 L 4128,9249 4128,9039 6339,7763 6339,7973 Z"/>
     <path fill="rgb(183,183,183)" stroke="none" d="M 6339,7763 L 7038,7359 7038,7569 6339,7973 6339,7763 Z M 6310,7989 L 4152,9235 4128,9235 4128,9039 6310,7779 6310,7989 Z"/>
     <path fill="rgb(184,184,184)" stroke="none" d="M 4152,9235 L 4128,9249 4128,9235 4152,9235 Z M 6310,7779 L 7038,7359 7038,7569 6310,7989 6310,7779 Z M 6281,8006 L 4202,9206 4128,9206 4128,9039 6281,7796 6281,8006 Z"/>
     <path fill="rgb(185,185,185)" stroke="none" d="M 4202,9206 L 4128,9249 4128,9206 4202,9206 Z M 6281,7796 L 7038,7359 7038,7569 6281,8006 6281,7796 Z M 6252,8023 L 4253,9177 4128,9177 4128,9039 6252,7813 6252,8023 Z"/>
     <path fill="rgb(186,186,186)" stroke="none" d="M 4253,9177 L 4128,9249 4128,9177 4253,9177 Z M 6252,7813 L 7038,7359 7038,7569 6252,8023 6252,7813 Z M 6222,8040 L 4305,9147 4128,9147 4128,9039 6222,7830 6222,8040 Z"/>
     <path fill="rgb(187,187,187)" stroke="none" d="M 4305,9147 L 4128,9249 4128,9147 4305,9147 Z M 6222,7830 L 7038,7359 7038,7569 6222,8040 6222,7830 Z M 6193,8057 L 4355,9118 4128,9118 4128,9039 6193,7847 6193,8057 Z"/>
     <path fill="rgb(188,188,188)" stroke="none" d="M 4355,9118 L 4128,9249 4128,9118 4355,9118 Z M 6193,7847 L 7038,7359 7038,7569 6193,8057 6193,7847 Z M 6164,8074 L 4405,9089 4128,9089 4128,9039 6164,7864 6164,8074 Z"/>
     <path fill="rgb(189,189,189)" stroke="none" d="M 4405,9089 L 4128,9249 4128,9089 4405,9089 Z M 6164,7864 L 7038,7359 7038,7569 6164,8074 6164,7864 Z M 6135,8090 L 4455,9060 4128,9060 4128,9039 6135,7880 6135,8090 Z"/>
     <path fill="rgb(190,190,190)" stroke="none" d="M 4455,9060 L 4128,9249 4128,9060 4455,9060 Z M 6135,7880 L 7038,7359 7038,7569 6135,8090 6135,7880 Z M 6106,8107 L 4506,9031 4142,9031 6106,7897 6106,8107 Z"/>
     <path fill="rgb(191,191,191)" stroke="none" d="M 4506,9031 L 4128,9249 4128,9039 4142,9031 4506,9031 Z M 6106,7897 L 7038,7359 7038,7569 6106,8107 6106,7897 Z M 6077,8124 L 4556,9002 4192,9002 6077,7914 6077,8124 Z"/>
     <path fill="rgb(192,192,192)" stroke="none" d="M 4556,9002 L 4128,9249 4128,9039 4192,9002 4556,9002 Z M 6077,7914 L 7038,7359 7038,7569 6077,8124 6077,7914 Z M 6048,8141 L 4606,8973 4242,8973 6048,7931 6048,8141 Z"/>
     <path fill="rgb(193,193,193)" stroke="none" d="M 4606,8973 L 4128,9249 4128,9039 4242,8973 4606,8973 Z M 6048,7931 L 7038,7359 7038,7569 6048,8141 6048,7931 Z M 6019,8157 L 4656,8944 4293,8944 6019,7947 6019,8157 Z"/>
     <path fill="rgb(194,194,194)" stroke="none" d="M 4656,8944 L 4128,9249 4128,9039 4293,8944 4656,8944 Z M 6019,7947 L 7038,7359 7038,7569 6019,8157 6019,7947 Z M 5989,8175 L 4708,8914 4345,8914 5989,7965 5989,8175 Z"/>
     <path fill="rgb(195,195,195)" stroke="none" d="M 4708,8914 L 4128,9249 4128,9039 4345,8914 4708,8914 Z M 5989,7965 L 7038,7359 7038,7569 5989,8175 5989,7965 Z M 5960,8191 L 4759,8885 4395,8885 5960,7981 5960,8191 Z"/>
     <path fill="rgb(196,196,196)" stroke="none" d="M 4759,8885 L 4128,9249 4128,9039 4395,8885 4759,8885 Z M 5960,7981 L 7038,7359 7038,7569 5960,8191 5960,7981 Z M 5931,8208 L 4809,8856 4445,8856 5931,7998 5931,8208 Z"/>
     <path fill="rgb(197,197,197)" stroke="none" d="M 4809,8856 L 4128,9249 4128,9039 4445,8856 4809,8856 Z M 5931,7998 L 7038,7359 7038,7569 5931,8208 5931,7998 Z M 5902,8225 L 4859,8827 4495,8827 5902,8015 5902,8225 Z"/>
     <path fill="rgb(198,198,198)" stroke="none" d="M 4859,8827 L 4128,9249 4128,9039 4495,8827 4859,8827 Z M 5902,8015 L 7038,7359 7038,7569 5902,8225 5902,8015 Z M 5873,8242 L 4909,8798 4545,8798 5873,8032 5873,8242 Z"/>
     <path fill="rgb(199,199,199)" stroke="none" d="M 4909,8798 L 4128,9249 4128,9039 4545,8798 4909,8798 Z M 5873,8032 L 7038,7359 7038,7569 5873,8242 5873,8032 Z M 5844,8258 L 4959,8769 4596,8769 5844,8048 5844,8258 Z"/>
     <path fill="rgb(200,200,200)" stroke="none" d="M 4959,8769 L 4128,9249 4128,9039 4596,8769 4959,8769 Z M 5844,8048 L 7038,7359 7038,7569 5844,8258 5844,8048 Z M 5815,8275 L 5010,8740 4646,8740 5815,8065 5815,8275 Z"/>
     <path fill="rgb(201,201,201)" stroke="none" d="M 5010,8740 L 4128,9249 4128,9039 4646,8740 5010,8740 Z M 5815,8065 L 7038,7359 7038,7569 5815,8275 5815,8065 Z M 5786,8292 L 5060,8711 4696,8711 5786,8082 5786,8292 Z"/>
     <path fill="rgb(202,202,202)" stroke="none" d="M 5060,8711 L 4128,9249 4128,9039 4696,8711 5060,8711 Z M 5786,8082 L 7038,7359 7038,7569 5786,8292 5786,8082 Z M 5756,8309 L 5112,8681 4748,8681 5756,8099 5756,8309 Z"/>
     <path fill="rgb(203,203,203)" stroke="none" d="M 5112,8681 L 4128,9249 4128,9039 4748,8681 5112,8681 Z M 5756,8099 L 7038,7359 7038,7569 5756,8309 5756,8099 Z M 5727,8326 L 5162,8652 4798,8652 5727,8116 5727,8326 Z"/>
     <path fill="rgb(204,204,204)" stroke="none" d="M 5162,8652 L 4128,9249 4128,9039 4798,8652 5162,8652 Z M 5727,8116 L 7038,7359 7038,7569 5727,8326 5727,8116 Z M 5698,8343 L 5212,8623 4849,8623 5698,8133 5698,8343 Z"/>
     <path fill="rgb(205,205,205)" stroke="none" d="M 5212,8623 L 4128,9249 4128,9039 4849,8623 5212,8623 Z M 5698,8133 L 7038,7359 7038,7569 5698,8343 5698,8133 Z M 5669,8359 L 5263,8594 4899,8594 5669,8149 5669,8359 Z"/>
     <path fill="rgb(206,206,206)" stroke="none" d="M 5263,8594 L 4128,9249 4128,9039 4899,8594 5263,8594 Z M 5669,8149 L 7038,7359 7038,7569 5669,8359 5669,8149 Z M 5640,8376 L 5313,8565 4949,8565 5640,8166 5640,8376 Z"/>
     <path fill="rgb(207,207,207)" stroke="none" d="M 5313,8565 L 4128,9249 4128,9039 4949,8565 5313,8565 Z M 5640,8166 L 7038,7359 7038,7569 5640,8376 5640,8166 Z M 5611,8393 L 5363,8536 4999,8536 5611,8183 5611,8393 Z"/>
     <path fill="rgb(208,208,208)" stroke="none" d="M 5363,8536 L 4128,9249 4128,9039 4999,8536 5363,8536 Z M 5611,8183 L 7038,7359 7038,7569 5611,8393 5611,8183 Z M 5582,8410 L 5413,8507 5050,8507 5582,8200 5582,8410 Z"/>
     <path fill="rgb(209,209,209)" stroke="none" d="M 5413,8507 L 4128,9249 4128,9039 5050,8507 5413,8507 Z M 5582,8200 L 7038,7359 7038,7569 5582,8410 5582,8200 Z M 5552,8427 L 5465,8477 5101,8477 5552,8217 5552,8427 Z"/>
     <path fill="rgb(210,210,210)" stroke="none" d="M 5465,8477 L 4128,9249 4128,9039 5101,8477 5465,8477 Z M 5552,8217 L 7038,7359 7038,7569 5552,8427 5552,8217 Z M 5523,8444 L 5515,8448 5152,8448 5523,8234 5523,8444 Z"/>
     <path fill="rgb(211,211,211)" stroke="none" d="M 5515,8448 L 4128,9249 4128,9039 5152,8448 5515,8448 Z M 5523,8234 L 7038,7359 7038,7569 5523,8444 5523,8234 Z M 5494,8419 L 5202,8419 5494,8250 5494,8419 Z"/>
     <path fill="rgb(212,212,212)" stroke="none" d="M 5494,8419 L 5494,8250 7038,7359 7038,7569 4128,9249 4128,9039 5202,8419 5494,8419 Z M 5465,8390 L 5252,8390 5465,8267 5465,8390 Z"/>
     <path fill="rgb(213,213,213)" stroke="none" d="M 5465,8390 L 5465,8267 7038,7359 7038,7569 4128,9249 4128,9039 5252,8390 5465,8390 Z M 5436,8361 L 5302,8361 5436,8284 5436,8361 Z"/>
     <path fill="rgb(214,214,214)" stroke="none" d="M 5436,8361 L 5436,8284 7038,7359 7038,7569 4128,9249 4128,9039 5302,8361 5436,8361 Z M 5407,8332 L 5353,8332 5407,8301 5407,8332 Z"/>
     <path fill="rgb(215,215,215)" stroke="none" d="M 5407,8332 L 5407,8301 7038,7359 7038,7569 4128,9249 4128,9039 5353,8332 5407,8332 Z"/>
     <path fill="rgb(216,216,216)" stroke="none" d="M 4128,9249 L 4128,9039 7038,7359 7038,7569 4128,9249 Z"/>
     <path fill="rgb(217,217,217)" stroke="none" d="M 4128,9249 L 4128,9039 7038,7359 7038,7569 4128,9249 Z"/>
     <path fill="rgb(218,218,218)" stroke="none" d="M 4128,9249 L 4128,9039 7038,7359 7038,7569 4128,9249 Z"/>
     <path fill="rgb(219,219,219)" stroke="none" d="M 4128,9249 L 4128,9039 7038,7359 7038,7569 4128,9249 Z"/>
     <path fill="rgb(220,220,220)" stroke="none" d="M 4128,9249 L 4128,9039 7038,7359 7038,7569 4128,9249 Z"/>
     <path fill="rgb(221,221,221)" stroke="none" d="M 4128,9249 L 4128,9039 7038,7359 7038,7569 4128,9249 Z"/>
     <path fill="rgb(222,222,222)" stroke="none" d="M 4128,9249 L 4128,9039 7038,7359 7038,7569 4128,9249 Z"/>
     <path fill="rgb(223,223,223)" stroke="none" d="M 4128,9249 L 4128,9039 7038,7359 7038,7569 4128,9249 Z"/>
     <path fill="rgb(224,224,224)" stroke="none" d="M 4128,9249 L 4128,9039 7038,7359 7038,7569 4128,9249 Z"/>
     <path fill="rgb(225,225,225)" stroke="none" d="M 4128,9249 L 4128,9039 7038,7359 7038,7569 4128,9249 Z"/>
     <path fill="rgb(226,226,226)" stroke="none" d="M 4128,9249 L 4128,9039 7038,7359 7038,7569 4128,9249 Z"/>
     <path fill="rgb(227,227,227)" stroke="none" d="M 4128,9249 L 4128,9039 7038,7359 7038,7569 4128,9249 Z"/>
     <path fill="rgb(229,229,229)" stroke="none" d="M 4128,9249 L 4128,9039 7038,7359 7038,7569 4128,9249 Z"/>
     <path fill="none" stroke="rgb(255,255,255)" id="Drawing_4_0" stroke-width="40" stroke-linejoin="round" d="M 4128,9249 L 4128,9039 7038,7359 7038,7569 4128,9249 Z"/>
    </g>
    <g>
     <defs>
      <linearGradient id="Gradient_231" gradientUnits="userSpaceOnUse" x1="4612" y1="6449" x2="4612" y2="8829">
       <stop offset="0.1" stop-color="rgb(147,212,240)"/>
       <stop offset="1" stop-color="rgb(233,246,252)"/>
      </linearGradient>
     </defs>
     <path fill="url(#Gradient_231)" stroke="rgb(102,102,102)" id="Drawing_5_0" stroke-width="40" stroke-linejoin="round" d="M 4249,8829 L 2551,7849 4976,6449 6674,7429 4249,8829 Z"/>
    </g>
    <g>
     <defs>
      <linearGradient id="Gradient_232" gradientUnits="userSpaceOnUse" x1="5094" y1="5257" x2="6920" y2="5261">
       <stop offset="0.1" stop-color="rgb(179,179,179)"/>
       <stop offset="1" stop-color="rgb(229,229,229)"/>
      </linearGradient>
     </defs>
     <path fill="url(#Gradient_232)" stroke="rgb(255,255,255)" id="Drawing_6_0" stroke-width="40" stroke-linejoin="round" d="M 5098,6309 L 5098,3159 6916,4209 6916,7359 5098,6309 Z"/>
    </g>
    <g>
     <path fill="rgb(238,238,238)" stroke="none" d="M 5219,6169 L 5219,3439 6795,4349 6795,7079 5219,6169 Z"/>
     <path fill="none" stroke="rgb(153,153,153)" id="Drawing_7_0" stroke-width="40" stroke-linejoin="round" d="M 5219,6169 L 5219,3439 6795,4349 6795,7079 5219,6169 Z"/>
    </g>
    <g>
     <path fill="rgb(255,255,255)" stroke="none" d="M 4734,8549 C 4289,8292 3643,7919 3521,7499 3764,7569 3993,7437 4128,7359 4640,7064 4832,6960 5340,6659 5785,6916 6229,7172 6674,7429 6027,7802 5381,8176 4734,8549 Z"/>
     <path fill="none" stroke="rgb(102,102,102)" id="Drawing_8_0" stroke-width="40" stroke-linejoin="round" d="M 4734,8549 C 4289,8292 3643,7919 3521,7499 3764,7569 3993,7437 4128,7359 4640,7064 4832,6960 5340,6659 5785,6916 6229,7172 6674,7429 6027,7802 5381,8176 4734,8549 Z"/>
    </g>
    <g>
     <path fill="none" stroke="rgb(0,0,0)" id="Drawing_9_0" stroke-width="40" stroke-linejoin="round" d="M 6916,7289 L 7038,7359 7038,7569 4128,9249 2188,8129 2188,7919 5098,6239 5098,3159 6916,4209 6916,7289 Z"/>
    </g>
   </g>
  </g>
 </g>
</svg>