<?xml version="1.0" encoding="UTF-8"?>

<svg version="1.2" baseProfile="tiny" width="50.75mm" height="61.3mm" viewBox="12318 16136 5075 6130" preserveAspectRatio="xMidYMid" fill-rule="evenodd" stroke-width="28.222" stroke-linejoin="round" xmlns="http://www.w3.org/2000/svg" xmlns:xlink="http://www.w3.org/1999/xlink" xml:space="preserve">
 <g visibility="visible" id="Slide_1">
  <g id="DrawingGroup_1">
   <g>
    <path fill="rgb(221,221,221)" stroke="none" d="M 15855,21896 C 16112,21896 17188,21336 17309,21266 17430,21196 17375,20986 17188,20986 L 15855,21896 Z"/>
    <path fill="none" stroke="rgb(221,221,221)" id="Drawing_1_0" stroke-width="40" stroke-linejoin="round" d="M 15855,21896 C 16112,21896 17188,21336 17309,21266 17430,21196 17375,20986 17188,20986 L 15855,21896 Z"/>
   </g>
   <g id="DrawingGroup_2">
    <g>
     <path fill="rgb(102,102,102)" stroke="none" d="M 16780,21362 L 15248,22246 15248,22036 16780,21152 16780,21362 Z"/>
     <path fill="rgb(103,103,103)" stroke="none" d="M 16780,21152 L 17188,20916 17188,21126 16780,21362 16780,21152 Z M 16761,21373 L 15248,22246 15248,22036 16761,21163 16761,21373 Z"/>
     <path fill="rgb(104,104,104)" stroke="none" d="M 16761,21163 L 17188,20916 17188,21126 16761,21373 16761,21163 Z M 16742,21383 L 15281,22227 15248,22227 15248,22036 16742,21173 16742,21383 Z"/>
     <path fill="rgb(105,105,105)" stroke="none" d="M 15281,22227 L 15248,22246 15248,22227 15281,22227 Z M 16742,21173 L 17188,20916 17188,21126 16742,21383 16742,21173 Z M 16723,21394 L 15314,22208 15248,22208 15248,22036 16723,21184 16723,21394 Z"/>
     <path fill="rgb(106,106,106)" stroke="none" d="M 15314,22208 L 15248,22246 15248,22208 15314,22208 Z M 16723,21184 L 17188,20916 17188,21126 16723,21394 16723,21184 Z M 16704,21405 L 15347,22189 15248,22189 15248,22036 16704,21195 16704,21405 Z"/>
     <path fill="rgb(107,107,107)" stroke="none" d="M 15347,22189 L 15248,22246 15248,22189 15347,22189 Z M 16704,21195 L 17188,20916 17188,21126 16704,21405 16704,21195 Z M 16685,21416 L 15380,22170 15248,22170 15248,22036 16685,21206 16685,21416 Z"/>
     <path fill="rgb(108,108,108)" stroke="none" d="M 15380,22170 L 15248,22246 15248,22170 15380,22170 Z M 16685,21206 L 17188,20916 17188,21126 16685,21416 16685,21206 Z M 16666,21427 L 15413,22151 15248,22151 15248,22036 16666,21217 16666,21427 Z"/>
     <path fill="rgb(109,109,109)" stroke="none" d="M 15413,22151 L 15248,22246 15248,22151 15413,22151 Z M 16666,21217 L 17188,20916 17188,21126 16666,21427 16666,21217 Z M 16647,21438 L 15445,22132 15248,22132 15248,22036 16647,21228 16647,21438 Z"/>
     <path fill="rgb(110,110,110)" stroke="none" d="M 15445,22132 L 15248,22246 15248,22132 15445,22132 Z M 16647,21228 L 17188,20916 17188,21126 16647,21438 16647,21228 Z M 16628,21449 L 15478,22113 15248,22113 15248,22036 16628,21239 16628,21449 Z"/>
     <path fill="rgb(111,111,111)" stroke="none" d="M 15478,22113 L 15248,22246 15248,22113 15478,22113 Z M 16628,21239 L 17188,20916 17188,21126 16628,21449 16628,21239 Z M 16609,21460 L 15511,22094 15248,22094 15248,22036 16609,21250 16609,21460 Z"/>
     <path fill="rgb(112,112,112)" stroke="none" d="M 15511,22094 L 15248,22246 15248,22094 15511,22094 Z M 16609,21250 L 17188,20916 17188,21126 16609,21460 16609,21250 Z M 16590,21471 L 15544,22075 15248,22075 15248,22036 16590,21261 16590,21471 Z"/>
     <path fill="rgb(113,113,113)" stroke="none" d="M 15544,22075 L 15248,22246 15248,22075 15544,22075 Z M 16590,21261 L 17188,20916 17188,21126 16590,21471 16590,21261 Z M 16571,21482 L 15577,22056 15248,22056 15248,22036 16571,21272 16571,21482 Z"/>
     <path fill="rgb(114,114,114)" stroke="none" d="M 15577,22056 L 15248,22246 15248,22056 15577,22056 Z M 16571,21272 L 17188,20916 17188,21126 16571,21482 16571,21272 Z M 16552,21493 L 15610,22037 15248,22037 15248,22036 16552,21283 16552,21493 Z"/>
     <path fill="rgb(115,115,115)" stroke="none" d="M 15610,22037 L 15248,22246 15248,22037 15610,22037 Z M 16552,21283 L 17188,20916 17188,21126 16552,21493 16552,21283 Z M 16533,21504 L 15643,22018 15279,22018 16533,21294 16533,21504 Z"/>
     <path fill="rgb(116,116,116)" stroke="none" d="M 15643,22018 L 15248,22246 15248,22036 15279,22018 15643,22018 Z M 16533,21294 L 17188,20916 17188,21126 16533,21504 16533,21294 Z M 16514,21515 L 15676,21999 15312,21999 16514,21305 16514,21515 Z"/>
     <path fill="rgb(117,117,117)" stroke="none" d="M 15676,21999 L 15248,22246 15248,22036 15312,21999 15676,21999 Z M 16514,21305 L 17188,20916 17188,21126 16514,21515 16514,21305 Z M 16495,21526 L 15709,21980 15345,21980 16495,21316 16495,21526 Z"/>
     <path fill="rgb(118,118,118)" stroke="none" d="M 15709,21980 L 15248,22246 15248,22036 15345,21980 15709,21980 Z M 16495,21316 L 17188,20916 17188,21126 16495,21526 16495,21316 Z M 16476,21537 L 15742,21961 15378,21961 16476,21327 16476,21537 Z"/>
     <path fill="rgb(119,119,119)" stroke="none" d="M 15742,21961 L 15248,22246 15248,22036 15378,21961 15742,21961 Z M 16476,21327 L 17188,20916 17188,21126 16476,21537 16476,21327 Z M 16457,21548 L 15775,21942 15411,21942 16457,21338 16457,21548 Z"/>
     <path fill="rgb(120,120,120)" stroke="none" d="M 15775,21942 L 15248,22246 15248,22036 15411,21942 15775,21942 Z M 16457,21338 L 17188,20916 17188,21126 16457,21548 16457,21338 Z M 16438,21559 L 15807,21923 15444,21923 16438,21349 16438,21559 Z"/>
     <path fill="rgb(121,121,121)" stroke="none" d="M 15807,21923 L 15248,22246 15248,22036 15444,21923 15807,21923 Z M 16438,21349 L 17188,20916 17188,21126 16438,21559 16438,21349 Z M 16419,21570 L 15840,21904 15477,21904 16419,21360 16419,21570 Z"/>
     <path fill="rgb(122,122,122)" stroke="none" d="M 15840,21904 L 15248,22246 15248,22036 15477,21904 15840,21904 Z M 16419,21360 L 17188,20916 17188,21126 16419,21570 16419,21360 Z M 16399,21582 L 15875,21884 15511,21884 16399,21372 16399,21582 Z"/>
     <path fill="rgb(123,123,123)" stroke="none" d="M 15875,21884 L 15248,22246 15248,22036 15511,21884 15875,21884 Z M 16399,21372 L 17188,20916 17188,21126 16399,21582 16399,21372 Z M 16380,21592 L 15908,21865 15544,21865 16380,21382 16380,21592 Z"/>
     <path fill="rgb(124,124,124)" stroke="none" d="M 15908,21865 L 15248,22246 15248,22036 15544,21865 15908,21865 Z M 16380,21382 L 17188,20916 17188,21126 16380,21592 16380,21382 Z M 16361,21603 L 15941,21846 15577,21846 16361,21393 16361,21603 Z"/>
     <path fill="rgb(125,125,125)" stroke="none" d="M 15941,21846 L 15248,22246 15248,22036 15577,21846 15941,21846 Z M 16361,21393 L 17188,20916 17188,21126 16361,21603 16361,21393 Z M 16342,21614 L 15974,21827 15610,21827 16342,21404 16342,21614 Z"/>
     <path fill="rgb(126,126,126)" stroke="none" d="M 15974,21827 L 15248,22246 15248,22036 15610,21827 15974,21827 Z M 16342,21404 L 17188,20916 17188,21126 16342,21614 16342,21404 Z M 16323,21625 L 16007,21808 15643,21808 16323,21415 16323,21625 Z"/>
     <path fill="rgb(127,127,127)" stroke="none" d="M 16007,21808 L 15248,22246 15248,22036 15643,21808 16007,21808 Z M 16323,21415 L 17188,20916 17188,21126 16323,21625 16323,21415 Z M 16304,21636 L 16040,21789 15676,21789 16304,21426 16304,21636 Z"/>
     <path fill="rgb(128,128,128)" stroke="none" d="M 16040,21789 L 15248,22246 15248,22036 15676,21789 16040,21789 Z M 16304,21426 L 17188,20916 17188,21126 16304,21636 16304,21426 Z M 16285,21647 L 16073,21770 15709,21770 16285,21437 16285,21647 Z"/>
     <path fill="rgb(129,129,129)" stroke="none" d="M 16073,21770 L 15248,22246 15248,22036 15709,21770 16073,21770 Z M 16285,21437 L 17188,20916 17188,21126 16285,21647 16285,21437 Z M 16266,21658 L 16105,21751 15742,21751 16266,21448 16266,21658 Z"/>
     <path fill="rgb(130,130,130)" stroke="none" d="M 16105,21751 L 15248,22246 15248,22036 15742,21751 16105,21751 Z M 16266,21448 L 17188,20916 17188,21126 16266,21658 16266,21448 Z M 16247,21669 L 16138,21732 15775,21732 16247,21459 16247,21669 Z"/>
     <path fill="rgb(131,131,131)" stroke="none" d="M 16138,21732 L 15248,22246 15248,22036 15775,21732 16138,21732 Z M 16247,21459 L 17188,20916 17188,21126 16247,21669 16247,21459 Z M 16228,21680 L 16171,21713 15807,21713 16228,21470 16228,21680 Z"/>
     <path fill="rgb(132,132,132)" stroke="none" d="M 16171,21713 L 15248,22246 15248,22036 15807,21713 16171,21713 Z M 16228,21470 L 17188,20916 17188,21126 16228,21680 16228,21470 Z M 16209,21691 L 16204,21694 15840,21694 16209,21481 16209,21691 Z"/>
     <path fill="rgb(133,133,133)" stroke="none" d="M 16204,21694 L 15248,22246 15248,22036 15840,21694 16204,21694 Z M 16209,21481 L 17188,20916 17188,21126 16209,21691 16209,21481 Z M 16190,21675 L 15873,21675 16190,21492 16190,21675 Z"/>
     <path fill="rgb(134,134,134)" stroke="none" d="M 16190,21675 L 16190,21492 17188,20916 17188,21126 15248,22246 15248,22036 15873,21675 16190,21675 Z M 16171,21656 L 15906,21656 16171,21503 16171,21656 Z"/>
     <path fill="rgb(135,135,135)" stroke="none" d="M 16171,21656 L 16171,21503 17188,20916 17188,21126 15248,22246 15248,22036 15906,21656 16171,21656 Z M 16152,21637 L 15939,21637 16152,21514 16152,21637 Z"/>
     <path fill="rgb(136,136,136)" stroke="none" d="M 16152,21637 L 16152,21514 17188,20916 17188,21126 15248,22246 15248,22036 15939,21637 16152,21637 Z M 16133,21618 L 15972,21618 16133,21525 16133,21618 Z"/>
     <path fill="rgb(137,137,137)" stroke="none" d="M 16133,21618 L 16133,21525 17188,20916 17188,21126 15248,22246 15248,22036 15972,21618 16133,21618 Z M 16114,21599 L 16005,21599 16114,21536 16114,21599 Z"/>
     <path fill="rgb(138,138,138)" stroke="none" d="M 16114,21599 L 16114,21536 17188,20916 17188,21126 15248,22246 15248,22036 16005,21599 16114,21599 Z M 16095,21580 L 16038,21580 16095,21547 16095,21580 Z"/>
     <path fill="rgb(139,139,139)" stroke="none" d="M 16095,21580 L 16095,21547 17188,20916 17188,21126 15248,22246 15248,22036 16038,21580 16095,21580 Z M 16076,21561 L 16071,21561 16076,21558 16076,21561 Z"/>
     <path fill="rgb(140,140,140)" stroke="none" d="M 16076,21561 L 16076,21558 17188,20916 17188,21126 15248,22246 15248,22036 16071,21561 16076,21561 Z"/>
     <path fill="rgb(141,141,141)" stroke="none" d="M 17188,21126 L 15248,22246 15248,22036 17188,20916 17188,21126 Z"/>
     <path fill="rgb(142,142,142)" stroke="none" d="M 17188,21126 L 15248,22246 15248,22036 17188,20916 17188,21126 Z"/>
     <path fill="rgb(143,143,143)" stroke="none" d="M 17188,21126 L 15248,22246 15248,22036 17188,20916 17188,21126 Z"/>
     <path fill="rgb(144,144,144)" stroke="none" d="M 17188,21126 L 15248,22246 15248,22036 17188,20916 17188,21126 Z"/>
     <path fill="rgb(145,145,145)" stroke="none" d="M 17188,21126 L 15248,22246 15248,22036 17188,20916 17188,21126 Z"/>
     <path fill="rgb(146,146,146)" stroke="none" d="M 17188,21126 L 15248,22246 15248,22036 17188,20916 17188,21126 Z"/>
     <path fill="rgb(147,147,147)" stroke="none" d="M 17188,21126 L 15248,22246 15248,22036 17188,20916 17188,21126 Z"/>
     <path fill="rgb(148,148,148)" stroke="none" d="M 17188,21126 L 15248,22246 15248,22036 17188,20916 17188,21126 Z"/>
     <path fill="rgb(149,149,149)" stroke="none" d="M 17188,21126 L 15248,22246 15248,22036 17188,20916 17188,21126 Z"/>
     <path fill="rgb(150,150,150)" stroke="none" d="M 17188,21126 L 15248,22246 15248,22036 17188,20916 17188,21126 Z"/>
     <path fill="rgb(151,151,151)" stroke="none" d="M 17188,21126 L 15248,22246 15248,22036 17188,20916 17188,21126 Z"/>
     <path fill="rgb(153,153,153)" stroke="none" d="M 17188,21126 L 15248,22246 15248,22036 17188,20916 17188,21126 Z"/>
     <path fill="none" stroke="rgb(178,178,178)" id="Drawing_2_0" stroke-width="40" stroke-linejoin="round" d="M 17188,21126 L 17188,20916 15248,22036 15248,22246 17188,21126 Z"/>
    </g>
    <g>
     <defs>
      <linearGradient id="Gradient_240" gradientUnits="userSpaceOnUse" x1="14763" y1="19236" x2="14763" y2="22036">
       <stop offset="0.1" stop-color="rgb(51,51,51)"/>
       <stop offset="1" stop-color="rgb(153,153,153)"/>
      </linearGradient>
     </defs>
     <path fill="url(#Gradient_240)" stroke="rgb(178,178,178)" id="Drawing_3_0" stroke-width="40" stroke-linejoin="round" d="M 15248,22036 L 17188,20916 14278,19236 12338,20356 15248,22036 Z"/>
    </g>
    <g>
     <defs>
      <linearGradient id="Gradient_241" gradientUnits="userSpaceOnUse" x1="12336" y1="21298" x2="15250" y2="21304">
       <stop offset="0.1" stop-color="rgb(102,102,102)"/>
       <stop offset="1" stop-color="rgb(153,153,153)"/>
      </linearGradient>
     </defs>
     <path fill="url(#Gradient_241)" stroke="rgb(178,178,178)" id="Drawing_4_0" stroke-width="40" stroke-linejoin="round" d="M 15248,22246 L 15248,22036 12338,20356 12338,20566 15248,22246 Z"/>
    </g>
    <g>
     <defs>
      <linearGradient id="Gradient_242" gradientUnits="userSpaceOnUse" x1="14763" y1="19446" x2="14763" y2="21826">
       <stop offset="0.1" stop-color="rgb(147,212,240)"/>
       <stop offset="1" stop-color="rgb(233,246,252)"/>
      </linearGradient>
     </defs>
     <path fill="url(#Gradient_242)" stroke="rgb(51,51,51)" id="Drawing_5_0" stroke-width="40" stroke-linejoin="round" d="M 15127,21826 L 16825,20846 14400,19446 12702,20426 15127,21826 Z"/>
    </g>
    <g>
     <path fill="rgb(102,102,102)" stroke="none" d="M 12460,19474 L 12460,17206 14278,16156 14278,19306 13987,19474 12460,19474 Z"/>
     <path fill="rgb(103,103,103)" stroke="none" d="M 13987,19474 L 12460,20356 12460,19474 13987,19474 Z M 12460,19433 L 12460,17206 14278,16156 14278,19306 14058,19433 12460,19433 Z"/>
     <path fill="rgb(104,104,104)" stroke="none" d="M 14058,19433 L 12460,20356 12460,19433 14058,19433 Z M 12460,19392 L 12460,17206 14278,16156 14278,19306 14129,19392 12460,19392 Z"/>
     <path fill="rgb(105,105,105)" stroke="none" d="M 14129,19392 L 12460,20356 12460,19392 14129,19392 Z M 12460,19351 L 12460,17206 14278,16156 14278,19306 14200,19351 12460,19351 Z"/>
     <path fill="rgb(106,106,106)" stroke="none" d="M 14200,19351 L 12460,20356 12460,19351 14200,19351 Z M 12460,19309 L 12460,17206 14278,16156 14278,19306 14273,19309 12460,19309 Z"/>
     <path fill="rgb(107,107,107)" stroke="none" d="M 14273,19309 L 12460,20356 12460,19309 14273,19309 Z M 12460,19268 L 12460,17206 14278,16156 14278,19268 12460,19268 Z"/>
     <path fill="rgb(108,108,108)" stroke="none" d="M 14278,19268 L 14278,19306 12460,20356 12460,19268 14278,19268 Z M 12460,19227 L 12460,17206 14278,16156 14278,19227 12460,19227 Z"/>
     <path fill="rgb(109,109,109)" stroke="none" d="M 14278,19227 L 14278,19306 12460,20356 12460,19227 14278,19227 Z M 12460,19186 L 12460,17206 14278,16156 14278,19186 12460,19186 Z"/>
     <path fill="rgb(110,110,110)" stroke="none" d="M 14278,19186 L 14278,19306 12460,20356 12460,19186 14278,19186 Z M 12460,19145 L 12460,17206 14278,16156 14278,19145 12460,19145 Z"/>
     <path fill="rgb(111,111,111)" stroke="none" d="M 14278,19145 L 14278,19306 12460,20356 12460,19145 14278,19145 Z M 12460,19103 L 12460,17206 14278,16156 14278,19103 12460,19103 Z"/>
     <path fill="rgb(112,112,112)" stroke="none" d="M 14278,19103 L 14278,19306 12460,20356 12460,19103 14278,19103 Z M 12460,19062 L 12460,17206 14278,16156 14278,19062 12460,19062 Z"/>
     <path fill="rgb(113,113,113)" stroke="none" d="M 14278,19062 L 14278,19306 12460,20356 12460,19062 14278,19062 Z M 12460,19021 L 12460,17206 14278,16156 14278,19021 12460,19021 Z"/>
     <path fill="rgb(114,114,114)" stroke="none" d="M 14278,19021 L 14278,19306 12460,20356 12460,19021 14278,19021 Z M 12460,18980 L 12460,17206 14278,16156 14278,18980 12460,18980 Z"/>
     <path fill="rgb(115,115,115)" stroke="none" d="M 14278,18980 L 14278,19306 12460,20356 12460,18980 14278,18980 Z M 12460,18939 L 12460,17206 14278,16156 14278,18939 12460,18939 Z"/>
     <path fill="rgb(116,116,116)" stroke="none" d="M 14278,18939 L 14278,19306 12460,20356 12460,18939 14278,18939 Z M 12460,18897 L 12460,17206 14278,16156 14278,18897 12460,18897 Z"/>
     <path fill="rgb(117,117,117)" stroke="none" d="M 14278,18897 L 14278,19306 12460,20356 12460,18897 14278,18897 Z M 12460,18856 L 12460,17206 14278,16156 14278,18856 12460,18856 Z"/>
     <path fill="rgb(118,118,118)" stroke="none" d="M 14278,18856 L 14278,19306 12460,20356 12460,18856 14278,18856 Z M 12460,18815 L 12460,17206 14278,16156 14278,18815 12460,18815 Z"/>
     <path fill="rgb(119,119,119)" stroke="none" d="M 14278,18815 L 14278,19306 12460,20356 12460,18815 14278,18815 Z M 12460,18774 L 12460,17206 14278,16156 14278,18774 12460,18774 Z"/>
     <path fill="rgb(120,120,120)" stroke="none" d="M 14278,18774 L 14278,19306 12460,20356 12460,18774 14278,18774 Z M 12460,18733 L 12460,17206 14278,16156 14278,18733 12460,18733 Z"/>
     <path fill="rgb(121,121,121)" stroke="none" d="M 14278,18733 L 14278,19306 12460,20356 12460,18733 14278,18733 Z M 12460,18691 L 12460,17206 14278,16156 14278,18691 12460,18691 Z"/>
     <path fill="rgb(122,122,122)" stroke="none" d="M 14278,18691 L 14278,19306 12460,20356 12460,18691 14278,18691 Z M 14240,16179 L 14240,18650 12460,18650 12460,17206 14238,16179 14240,16179 Z"/>
     <path fill="rgb(123,123,123)" stroke="none" d="M 14240,18650 L 14240,16179 14238,16179 14278,16156 14278,19306 12460,20356 12460,18650 14240,18650 Z M 14199,16220 L 14199,18609 12460,18609 12460,17206 14167,16220 14199,16220 Z"/>
     <path fill="rgb(124,124,124)" stroke="none" d="M 14199,18609 L 14199,16220 14167,16220 14278,16156 14278,19306 12460,20356 12460,18609 14199,18609 Z M 14158,16261 L 14158,18568 12460,18568 12460,17206 14096,16261 14158,16261 Z"/>
     <path fill="rgb(125,125,125)" stroke="none" d="M 14158,18568 L 14158,16261 14096,16261 14278,16156 14278,19306 12460,20356 12460,18568 14158,18568 Z M 14117,16302 L 14117,18527 12460,18527 12460,17206 14025,16302 14117,16302 Z"/>
     <path fill="rgb(126,126,126)" stroke="none" d="M 14117,18527 L 14117,16302 14025,16302 14278,16156 14278,19306 12460,20356 12460,18527 14117,18527 Z M 14075,16344 L 14075,18485 12460,18485 12460,17206 13952,16344 14075,16344 Z"/>
     <path fill="rgb(127,127,127)" stroke="none" d="M 14075,18485 L 14075,16344 13952,16344 14278,16156 14278,19306 12460,20356 12460,18485 14075,18485 Z M 14034,16385 L 14034,18444 12460,18444 12460,17206 13882,16385 14034,16385 Z"/>
     <path fill="rgb(128,128,128)" stroke="none" d="M 14034,18444 L 14034,16385 13882,16385 14278,16156 14278,19306 12460,20356 12460,18444 14034,18444 Z M 13993,16426 L 13993,18403 12460,18403 12460,17206 13811,16426 13993,16426 Z"/>
     <path fill="rgb(129,129,129)" stroke="none" d="M 13993,18403 L 13993,16426 13811,16426 14278,16156 14278,19306 12460,20356 12460,18403 13993,18403 Z M 13952,16467 L 13952,18362 12460,18362 12460,17206 13740,16467 13952,16467 Z"/>
     <path fill="rgb(130,130,130)" stroke="none" d="M 13952,18362 L 13952,16467 13740,16467 14278,16156 14278,19306 12460,20356 12460,18362 13952,18362 Z M 13911,16508 L 13911,18321 12460,18321 12460,17206 13669,16508 13911,16508 Z"/>
     <path fill="rgb(131,131,131)" stroke="none" d="M 13911,18321 L 13911,16508 13669,16508 14278,16156 14278,19306 12460,20356 12460,18321 13911,18321 Z M 13869,16550 L 13869,18279 12460,18279 12460,17206 13596,16550 13869,16550 Z"/>
     <path fill="rgb(132,132,132)" stroke="none" d="M 13869,18279 L 13869,16550 13596,16550 14278,16156 14278,19306 12460,20356 12460,18279 13869,18279 Z M 13828,16591 L 13828,18238 12460,18238 12460,17206 13525,16591 13828,16591 Z"/>
     <path fill="rgb(133,133,133)" stroke="none" d="M 13828,18238 L 13828,16591 13525,16591 14278,16156 14278,19306 12460,20356 12460,18238 13828,18238 Z M 13787,16632 L 13787,18197 12460,18197 12460,17206 13454,16632 13787,16632 Z"/>
     <path fill="rgb(134,134,134)" stroke="none" d="M 13787,18197 L 13787,16632 13454,16632 14278,16156 14278,19306 12460,20356 12460,18197 13787,18197 Z M 13746,16673 L 13746,18156 12460,18156 12460,17206 13383,16673 13746,16673 Z"/>
     <path fill="rgb(135,135,135)" stroke="none" d="M 13746,18156 L 13746,16673 13383,16673 14278,16156 14278,19306 12460,20356 12460,18156 13746,18156 Z M 13705,16715 L 13705,18115 12460,18115 12460,17206 13310,16715 13705,16715 Z"/>
     <path fill="rgb(136,136,136)" stroke="none" d="M 13705,18115 L 13705,16715 13310,16715 14278,16156 14278,19306 12460,20356 12460,18115 13705,18115 Z M 13663,16756 L 13663,18073 12460,18073 12460,17206 13239,16756 13663,16756 Z"/>
     <path fill="rgb(137,137,137)" stroke="none" d="M 13663,18073 L 13663,16756 13239,16756 14278,16156 14278,19306 12460,20356 12460,18073 13663,18073 Z M 13622,16797 L 13622,18032 12460,18032 12460,17206 13168,16797 13622,16797 Z"/>
     <path fill="rgb(138,138,138)" stroke="none" d="M 13622,18032 L 13622,16797 13168,16797 14278,16156 14278,19306 12460,20356 12460,18032 13622,18032 Z M 13581,16838 L 13581,17991 12460,17991 12460,17206 13097,16838 13581,16838 Z"/>
     <path fill="rgb(139,139,139)" stroke="none" d="M 13581,17991 L 13581,16838 13097,16838 14278,16156 14278,19306 12460,20356 12460,17991 13581,17991 Z M 13540,16879 L 13540,17950 12469,17950 12469,17201 13026,16879 13540,16879 Z"/>
     <path fill="rgb(140,140,140)" stroke="none" d="M 12469,17950 L 13540,17950 13540,16879 13026,16879 14278,16156 14278,19306 12460,20356 12460,17206 12469,17201 12469,17950 Z M 13498,16921 L 13498,17908 12511,17908 12511,17177 12953,16921 13498,16921 Z"/>
     <path fill="rgb(141,141,141)" stroke="none" d="M 12511,17908 L 13498,17908 13498,16921 12953,16921 14278,16156 14278,19306 12460,20356 12460,17206 12511,17177 12511,17908 Z M 13457,16962 L 13457,17867 12552,17867 12552,17153 12882,16962 13457,16962 Z"/>
     <path fill="rgb(142,142,142)" stroke="none" d="M 12552,17867 L 13457,17867 13457,16962 12882,16962 14278,16156 14278,19306 12460,20356 12460,17206 12552,17153 12552,17867 Z M 13416,17003 L 13416,17826 12593,17826 12593,17129 12811,17003 13416,17003 Z"/>
     <path fill="rgb(143,143,143)" stroke="none" d="M 12593,17826 L 13416,17826 13416,17003 12811,17003 14278,16156 14278,19306 12460,20356 12460,17206 12593,17129 12593,17826 Z M 13375,17044 L 13375,17785 12634,17785 12634,17106 12740,17044 13375,17044 Z"/>
     <path fill="rgb(144,144,144)" stroke="none" d="M 12634,17785 L 13375,17785 13375,17044 12740,17044 14278,16156 14278,19306 12460,20356 12460,17206 12634,17106 12634,17785 Z M 12675,17085 L 13334,17085 13334,17744 12675,17744 12675,17085 Z"/>
     <path fill="rgb(145,145,145)" stroke="none" d="M 12675,17085 L 12675,17744 13334,17744 13334,17085 12675,17085 Z M 12717,17127 L 13292,17127 13292,17702 12717,17702 12717,17127 Z M 14278,19306 L 12460,20356 12460,17206 14278,16156 14278,19306 Z"/>
     <path fill="rgb(146,146,146)" stroke="none" d="M 12717,17127 L 12717,17702 13292,17702 13292,17127 12717,17127 Z M 12758,17168 L 13251,17168 13251,17661 12758,17661 12758,17168 Z M 14278,19306 L 12460,20356 12460,17206 14278,16156 14278,19306 Z"/>
     <path fill="rgb(147,147,147)" stroke="none" d="M 12758,17168 L 12758,17661 13251,17661 13251,17168 12758,17168 Z M 12799,17209 L 13210,17209 13210,17620 12799,17620 12799,17209 Z M 14278,19306 L 12460,20356 12460,17206 14278,16156 14278,19306 Z"/>
     <path fill="rgb(148,148,148)" stroke="none" d="M 12799,17209 L 12799,17620 13210,17620 13210,17209 12799,17209 Z M 12840,17250 L 13169,17250 13169,17579 12840,17579 12840,17250 Z M 14278,19306 L 12460,20356 12460,17206 14278,16156 14278,19306 Z"/>
     <path fill="rgb(149,149,149)" stroke="none" d="M 12840,17250 L 12840,17579 13169,17579 13169,17250 12840,17250 Z M 12881,17291 L 13128,17291 13128,17538 12881,17538 12881,17291 Z M 14278,19306 L 12460,20356 12460,17206 14278,16156 14278,19306 Z"/>
     <path fill="rgb(150,150,150)" stroke="none" d="M 12881,17291 L 12881,17538 13128,17538 13128,17291 12881,17291 Z M 12923,17333 L 13086,17333 13086,17496 12923,17496 12923,17333 Z M 14278,19306 L 12460,20356 12460,17206 14278,16156 14278,19306 Z"/>
     <path fill="rgb(151,151,151)" stroke="none" d="M 12923,17333 L 12923,17496 13086,17496 13086,17333 12923,17333 Z M 12964,17374 L 13045,17374 13045,17455 12964,17455 12964,17374 Z M 14278,19306 L 12460,20356 12460,17206 14278,16156 14278,19306 Z"/>
     <path fill="rgb(153,153,153)" stroke="none" d="M 12964,17374 L 12964,17455 13045,17455 13045,17374 12964,17374 Z M 14278,19306 L 12460,20356 12460,17206 14278,16156 14278,19306 Z"/>
     <path fill="none" stroke="rgb(178,178,178)" id="Drawing_6_0" stroke-width="40" stroke-linejoin="round" d="M 14278,19306 L 14278,16156 12460,17206 12460,20356 14278,19306 Z"/>
    </g>
    <g>
     <path fill="rgb(238,238,238)" stroke="none" d="M 14157,19166 L 14157,16436 12581,17346 12581,20076 14157,19166 Z"/>
     <path fill="none" stroke="rgb(51,51,51)" id="Drawing_7_0" stroke-width="40" stroke-linejoin="round" d="M 14157,19166 L 14157,16436 12581,17346 12581,20076 14157,19166 Z"/>
    </g>
    <g>
     <path fill="rgb(255,255,255)" stroke="none" d="M 15006,21056 C 15370,21126 16340,20566 16340,20566 16340,20566 14908,19747 14400,19446 13955,19703 13511,19959 13066,20216 13615,20519 14036,20776 14521,21056 14683,21149 14885,21196 15006,21056 Z"/>
     <path fill="none" stroke="rgb(51,51,51)" id="Drawing_8_0" stroke-width="40" stroke-linejoin="round" d="M 15006,21056 C 15370,21126 16340,20566 16340,20566 16340,20566 14908,19747 14400,19446 13955,19703 13511,19959 13066,20216 13615,20519 14036,20776 14521,21056 14683,21149 14885,21196 15006,21056 Z"/>
    </g>
    <g>
     <path fill="none" stroke="rgb(0,0,0)" id="Drawing_9_0" stroke-width="40" stroke-linejoin="round" d="M 12460,20286 L 12338,20356 12338,20566 15248,22246 17188,21126 17188,20916 14278,19236 14278,16156 12460,17206 12460,20286 Z"/>
    </g>
   </g>
  </g>
 </g>
</svg>