<?xml version="1.0" encoding="UTF-8"?>

<svg version="1.2" baseProfile="tiny" width="50.75mm" height="61.3mm" viewBox="3398 17156 5075 6130" preserveAspectRatio="xMidYMid" fill-rule="evenodd" stroke-width="28.222" stroke-linejoin="round" xmlns="http://www.w3.org/2000/svg" xmlns:xlink="http://www.w3.org/1999/xlink" xml:space="preserve">
 <g visibility="visible" id="Slide_1">
  <g id="DrawingGroup_1">
   <g>
    <path fill="rgb(221,221,221)" stroke="none" d="M 6935,22916 C 7192,22916 8268,22356 8389,22286 8510,22216 8455,22006 8268,22006 L 6935,22916 Z"/>
    <path fill="none" stroke="rgb(221,221,221)" id="Drawing_1_0" stroke-width="40" stroke-linejoin="round" d="M 6935,22916 C 7192,22916 8268,22356 8389,22286 8510,22216 8455,22006 8268,22006 L 6935,22916 Z"/>
   </g>
   <g id="DrawingGroup_2">
    <g>
     <path fill="rgb(179,179,179)" stroke="none" d="M 7860,22382 L 6328,23266 6328,23056 7860,22172 7860,22382 Z"/>
     <path fill="rgb(180,180,180)" stroke="none" d="M 7860,22172 L 8268,21936 8268,22146 7860,22382 7860,22172 Z M 7841,22393 L 6328,23266 6328,23056 7841,22183 7841,22393 Z"/>
     <path fill="rgb(181,181,181)" stroke="none" d="M 7841,22183 L 8268,21936 8268,22146 7841,22393 7841,22183 Z M 7821,22404 L 6363,23246 6328,23246 6328,23056 7821,22194 7821,22404 Z"/>
     <path fill="rgb(182,182,182)" stroke="none" d="M 6363,23246 L 6328,23266 6328,23246 6363,23246 Z M 7821,22194 L 8268,21936 8268,22146 7821,22404 7821,22194 Z M 7802,22415 L 6396,23227 6328,23227 6328,23056 7802,22205 7802,22415 Z"/>
     <path fill="rgb(183,183,183)" stroke="none" d="M 6396,23227 L 6328,23266 6328,23227 6396,23227 Z M 7802,22205 L 8268,21936 8268,22146 7802,22415 7802,22205 Z M 7782,22427 L 6430,23207 6328,23207 6328,23056 7782,22217 7782,22427 Z"/>
     <path fill="rgb(184,184,184)" stroke="none" d="M 6430,23207 L 6328,23266 6328,23207 6430,23207 Z M 7782,22217 L 8268,21936 8268,22146 7782,22427 7782,22217 Z M 7763,22438 L 6463,23188 6328,23188 6328,23056 7763,22228 7763,22438 Z"/>
     <path fill="rgb(185,185,185)" stroke="none" d="M 6463,23188 L 6328,23266 6328,23188 6463,23188 Z M 7763,22228 L 8268,21936 8268,22146 7763,22438 7763,22228 Z M 7743,22449 L 6498,23168 6328,23168 6328,23056 7743,22239 7743,22449 Z"/>
     <path fill="rgb(186,186,186)" stroke="none" d="M 6498,23168 L 6328,23266 6328,23168 6498,23168 Z M 7743,22239 L 8268,21936 8268,22146 7743,22449 7743,22239 Z M 7724,22460 L 6531,23149 6328,23149 6328,23056 7724,22250 7724,22460 Z"/>
     <path fill="rgb(187,187,187)" stroke="none" d="M 6531,23149 L 6328,23266 6328,23149 6531,23149 Z M 7724,22250 L 8268,21936 8268,22146 7724,22460 7724,22250 Z M 7705,22471 L 6564,23130 6328,23130 6328,23056 7705,22261 7705,22471 Z"/>
     <path fill="rgb(188,188,188)" stroke="none" d="M 6564,23130 L 6328,23266 6328,23130 6564,23130 Z M 7705,22261 L 8268,21936 8268,22146 7705,22471 7705,22261 Z M 7685,22483 L 6598,23110 6328,23110 6328,23056 7685,22273 7685,22483 Z"/>
     <path fill="rgb(189,189,189)" stroke="none" d="M 6598,23110 L 6328,23266 6328,23110 6598,23110 Z M 7685,22273 L 8268,21936 8268,22146 7685,22483 7685,22273 Z M 7666,22494 L 6631,23091 6328,23091 6328,23056 7666,22284 7666,22494 Z"/>
     <path fill="rgb(190,190,190)" stroke="none" d="M 6631,23091 L 6328,23266 6328,23091 6631,23091 Z M 7666,22284 L 8268,21936 8268,22146 7666,22494 7666,22284 Z M 7646,22505 L 6666,23071 6328,23071 6328,23056 7646,22295 7646,22505 Z"/>
     <path fill="rgb(191,191,191)" stroke="none" d="M 6666,23071 L 6328,23266 6328,23071 6666,23071 Z M 7646,22295 L 8268,21936 8268,22146 7646,22505 7646,22295 Z M 7627,22516 L 6699,23052 6335,23052 7627,22306 7627,22516 Z"/>
     <path fill="rgb(192,192,192)" stroke="none" d="M 6699,23052 L 6328,23266 6328,23056 6335,23052 6699,23052 Z M 7627,22306 L 8268,21936 8268,22146 7627,22516 7627,22306 Z M 7607,22528 L 6733,23032 6370,23032 7607,22318 7607,22528 Z"/>
     <path fill="rgb(193,193,193)" stroke="none" d="M 6733,23032 L 6328,23266 6328,23056 6370,23032 6733,23032 Z M 7607,22318 L 8268,21936 8268,22146 7607,22528 7607,22318 Z M 7588,22539 L 6766,23013 6402,23013 7588,22329 7588,22539 Z"/>
     <path fill="rgb(194,194,194)" stroke="none" d="M 6766,23013 L 6328,23266 6328,23056 6402,23013 6766,23013 Z M 7588,22329 L 8268,21936 8268,22146 7588,22539 7588,22329 Z M 7569,22550 L 6799,22994 6435,22994 7569,22340 7569,22550 Z"/>
     <path fill="rgb(195,195,195)" stroke="none" d="M 6799,22994 L 6328,23266 6328,23056 6435,22994 6799,22994 Z M 7569,22340 L 8268,21936 8268,22146 7569,22550 7569,22340 Z M 7549,22561 L 6834,22974 6470,22974 7549,22351 7549,22561 Z"/>
     <path fill="rgb(196,196,196)" stroke="none" d="M 6834,22974 L 6328,23266 6328,23056 6470,22974 6834,22974 Z M 7549,22351 L 8268,21936 8268,22146 7549,22561 7549,22351 Z M 7530,22572 L 6867,22955 6503,22955 7530,22362 7530,22572 Z"/>
     <path fill="rgb(197,197,197)" stroke="none" d="M 6867,22955 L 6328,23266 6328,23056 6503,22955 6867,22955 Z M 7530,22362 L 8268,21936 8268,22146 7530,22572 7530,22362 Z M 7510,22584 L 6901,22935 6538,22935 7510,22374 7510,22584 Z"/>
     <path fill="rgb(198,198,198)" stroke="none" d="M 6901,22935 L 6328,23266 6328,23056 6538,22935 6901,22935 Z M 7510,22374 L 8268,21936 8268,22146 7510,22584 7510,22374 Z M 7491,22595 L 6934,22916 6571,22916 7491,22385 7491,22595 Z"/>
     <path fill="rgb(199,199,199)" stroke="none" d="M 6934,22916 L 6328,23266 6328,23056 6571,22916 6934,22916 Z M 7491,22385 L 8268,21936 8268,22146 7491,22595 7491,22385 Z M 7471,22606 L 6969,22896 6605,22896 7471,22396 7471,22606 Z"/>
     <path fill="rgb(200,200,200)" stroke="none" d="M 6969,22896 L 6328,23266 6328,23056 6605,22896 6969,22896 Z M 7471,22396 L 8268,21936 8268,22146 7471,22606 7471,22396 Z M 7452,22617 L 7002,22877 6638,22877 7452,22407 7452,22617 Z"/>
     <path fill="rgb(201,201,201)" stroke="none" d="M 7002,22877 L 6328,23266 6328,23056 6638,22877 7002,22877 Z M 7452,22407 L 8268,21936 8268,22146 7452,22617 7452,22407 Z M 7433,22628 L 7035,22858 6671,22858 7433,22418 7433,22628 Z"/>
     <path fill="rgb(202,202,202)" stroke="none" d="M 7035,22858 L 6328,23266 6328,23056 6671,22858 7035,22858 Z M 7433,22418 L 8268,21936 8268,22146 7433,22628 7433,22418 Z M 7413,22640 L 7069,22838 6706,22838 7413,22430 7413,22640 Z"/>
     <path fill="rgb(203,203,203)" stroke="none" d="M 7069,22838 L 6328,23266 6328,23056 6706,22838 7069,22838 Z M 7413,22430 L 8268,21936 8268,22146 7413,22640 7413,22430 Z M 7394,22651 L 7102,22819 6739,22819 7394,22441 7394,22651 Z"/>
     <path fill="rgb(204,204,204)" stroke="none" d="M 7102,22819 L 6328,23266 6328,23056 6739,22819 7102,22819 Z M 7394,22441 L 8268,21936 8268,22146 7394,22651 7394,22441 Z M 7374,22662 L 7137,22799 6773,22799 7374,22452 7374,22662 Z"/>
     <path fill="rgb(205,205,205)" stroke="none" d="M 7137,22799 L 6328,23266 6328,23056 6773,22799 7137,22799 Z M 7374,22452 L 8268,21936 8268,22146 7374,22662 7374,22452 Z M 7355,22673 L 7170,22780 6806,22780 7355,22463 7355,22673 Z"/>
     <path fill="rgb(206,206,206)" stroke="none" d="M 7170,22780 L 6328,23266 6328,23056 6806,22780 7170,22780 Z M 7355,22463 L 8268,21936 8268,22146 7355,22673 7355,22463 Z M 7335,22685 L 7204,22760 6841,22760 7335,22475 7335,22685 Z"/>
     <path fill="rgb(207,207,207)" stroke="none" d="M 7204,22760 L 6328,23266 6328,23056 6841,22760 7204,22760 Z M 7335,22475 L 8268,21936 8268,22146 7335,22685 7335,22475 Z M 7316,22696 L 7237,22741 6874,22741 7316,22486 7316,22696 Z"/>
     <path fill="rgb(208,208,208)" stroke="none" d="M 7237,22741 L 6328,23266 6328,23056 6874,22741 7237,22741 Z M 7316,22486 L 8268,21936 8268,22146 7316,22696 7316,22486 Z M 7297,22707 L 7270,22722 6907,22722 7297,22497 7297,22707 Z"/>
     <path fill="rgb(209,209,209)" stroke="none" d="M 7270,22722 L 6328,23266 6328,23056 6907,22722 7270,22722 Z M 7297,22497 L 8268,21936 8268,22146 7297,22707 7297,22497 Z M 7277,22702 L 6941,22702 7277,22508 7277,22702 Z"/>
     <path fill="rgb(210,210,210)" stroke="none" d="M 7277,22702 L 7277,22508 8268,21936 8268,22146 6328,23266 6328,23056 6941,22702 7277,22702 Z M 7258,22683 L 6974,22683 7258,22519 7258,22683 Z"/>
     <path fill="rgb(211,211,211)" stroke="none" d="M 7258,22683 L 7258,22519 8268,21936 8268,22146 6328,23266 6328,23056 6974,22683 7258,22683 Z M 7238,22663 L 7009,22663 7238,22531 7238,22663 Z"/>
     <path fill="rgb(212,212,212)" stroke="none" d="M 7238,22663 L 7238,22531 8268,21936 8268,22146 6328,23266 6328,23056 7009,22663 7238,22663 Z M 7219,22644 L 7042,22644 7219,22542 7219,22644 Z"/>
     <path fill="rgb(213,213,213)" stroke="none" d="M 7219,22644 L 7219,22542 8268,21936 8268,22146 6328,23266 6328,23056 7042,22644 7219,22644 Z M 7199,22624 L 7076,22624 7199,22553 7199,22624 Z"/>
     <path fill="rgb(214,214,214)" stroke="none" d="M 7199,22624 L 7199,22553 8268,21936 8268,22146 6328,23266 6328,23056 7076,22624 7199,22624 Z M 7180,22605 L 7109,22605 7180,22564 7180,22605 Z"/>
     <path fill="rgb(215,215,215)" stroke="none" d="M 7180,22605 L 7180,22564 8268,21936 8268,22146 6328,23266 6328,23056 7109,22605 7180,22605 Z M 7161,22586 L 7142,22586 7161,22575 7161,22586 Z"/>
     <path fill="rgb(216,216,216)" stroke="none" d="M 7161,22586 L 7161,22575 8268,21936 8268,22146 6328,23266 6328,23056 7142,22586 7161,22586 Z"/>
     <path fill="rgb(217,217,217)" stroke="none" d="M 8268,22146 L 6328,23266 6328,23056 8268,21936 8268,22146 Z"/>
     <path fill="rgb(218,218,218)" stroke="none" d="M 8268,22146 L 6328,23266 6328,23056 8268,21936 8268,22146 Z"/>
     <path fill="rgb(219,219,219)" stroke="none" d="M 8268,22146 L 6328,23266 6328,23056 8268,21936 8268,22146 Z"/>
     <path fill="rgb(220,220,220)" stroke="none" d="M 8268,22146 L 6328,23266 6328,23056 8268,21936 8268,22146 Z"/>
     <path fill="rgb(221,221,221)" stroke="none" d="M 8268,22146 L 6328,23266 6328,23056 8268,21936 8268,22146 Z"/>
     <path fill="rgb(222,222,222)" stroke="none" d="M 8268,22146 L 6328,23266 6328,23056 8268,21936 8268,22146 Z"/>
     <path fill="rgb(223,223,223)" stroke="none" d="M 8268,22146 L 6328,23266 6328,23056 8268,21936 8268,22146 Z"/>
     <path fill="rgb(224,224,224)" stroke="none" d="M 8268,22146 L 6328,23266 6328,23056 8268,21936 8268,22146 Z"/>
     <path fill="rgb(225,225,225)" stroke="none" d="M 8268,22146 L 6328,23266 6328,23056 8268,21936 8268,22146 Z"/>
     <path fill="rgb(226,226,226)" stroke="none" d="M 8268,22146 L 6328,23266 6328,23056 8268,21936 8268,22146 Z"/>
     <path fill="rgb(227,227,227)" stroke="none" d="M 8268,22146 L 6328,23266 6328,23056 8268,21936 8268,22146 Z"/>
     <path fill="rgb(229,229,229)" stroke="none" d="M 8268,22146 L 6328,23266 6328,23056 8268,21936 8268,22146 Z"/>
     <path fill="none" stroke="rgb(255,255,255)" id="Drawing_2_0" stroke-width="40" stroke-linejoin="round" d="M 8268,22146 L 8268,21936 6328,23056 6328,23266 8268,22146 Z"/>
    </g>
    <g>
     <defs>
      <linearGradient id="Gradient_237" gradientUnits="userSpaceOnUse" x1="5843" y1="20256" x2="5843" y2="23056">
       <stop offset="0.1" stop-color="rgb(179,179,179)"/>
       <stop offset="1" stop-color="rgb(229,229,229)"/>
      </linearGradient>
     </defs>
     <path fill="url(#Gradient_237)" stroke="rgb(255,255,255)" id="Drawing_3_0" stroke-width="40" stroke-linejoin="round" d="M 6328,23056 L 8268,21936 5358,20256 3418,21376 6328,23056 Z"/>
    </g>
    <g>
     <defs>
      <linearGradient id="Gradient_238" gradientUnits="userSpaceOnUse" x1="3416" y1="22318" x2="6330" y2="22324">
       <stop offset="0.1" stop-color="rgb(179,179,179)"/>
       <stop offset="1" stop-color="rgb(229,229,229)"/>
      </linearGradient>
     </defs>
     <path fill="url(#Gradient_238)" stroke="rgb(255,255,255)" id="Drawing_4_0" stroke-width="40" stroke-linejoin="round" d="M 6328,23266 L 6328,23056 3418,21376 3418,21586 6328,23266 Z"/>
    </g>
    <g>
     <defs>
      <linearGradient id="Gradient_239" gradientUnits="userSpaceOnUse" x1="5843" y1="20466" x2="5843" y2="22846">
       <stop offset="0.1" stop-color="rgb(147,212,240)"/>
       <stop offset="1" stop-color="rgb(233,246,252)"/>
      </linearGradient>
     </defs>
     <path fill="url(#Gradient_239)" stroke="rgb(102,102,102)" id="Drawing_5_0" stroke-width="40" stroke-linejoin="round" d="M 6207,22846 L 7905,21866 5480,20466 3782,21446 6207,22846 Z"/>
    </g>
    <g>
     <path fill="rgb(179,179,179)" stroke="none" d="M 3540,20493 L 3540,18226 5358,17176 5358,20326 5069,20493 3540,20493 Z"/>
     <path fill="rgb(180,180,180)" stroke="none" d="M 5069,20493 L 3540,21376 3540,20493 5069,20493 Z M 3540,20451 L 3540,18226 5358,17176 5358,20326 5142,20451 3540,20451 Z"/>
     <path fill="rgb(181,181,181)" stroke="none" d="M 5142,20451 L 3540,21376 3540,20451 5142,20451 Z M 3540,20409 L 3540,18226 5358,17176 5358,20326 5214,20409 3540,20409 Z"/>
     <path fill="rgb(182,182,182)" stroke="none" d="M 5214,20409 L 3540,21376 3540,20409 5214,20409 Z M 3540,20367 L 3540,18226 5358,17176 5358,20326 5287,20367 3540,20367 Z"/>
     <path fill="rgb(183,183,183)" stroke="none" d="M 5287,20367 L 3540,21376 3540,20367 5287,20367 Z M 3540,20325 L 3540,18226 5358,17176 5358,20325 3540,20325 Z"/>
     <path fill="rgb(184,184,184)" stroke="none" d="M 5358,20325 L 5358,20326 3540,21376 3540,20325 5358,20325 Z M 3540,20283 L 3540,18226 5358,17176 5358,20283 3540,20283 Z"/>
     <path fill="rgb(185,185,185)" stroke="none" d="M 5358,20283 L 5358,20326 3540,21376 3540,20283 5358,20283 Z M 3540,20241 L 3540,18226 5358,17176 5358,20241 3540,20241 Z"/>
     <path fill="rgb(186,186,186)" stroke="none" d="M 5358,20241 L 5358,20326 3540,21376 3540,20241 5358,20241 Z M 3540,20199 L 3540,18226 5358,17176 5358,20199 3540,20199 Z"/>
     <path fill="rgb(187,187,187)" stroke="none" d="M 5358,20199 L 5358,20326 3540,21376 3540,20199 5358,20199 Z M 3540,20157 L 3540,18226 5358,17176 5358,20157 3540,20157 Z"/>
     <path fill="rgb(188,188,188)" stroke="none" d="M 5358,20157 L 5358,20326 3540,21376 3540,20157 5358,20157 Z M 3540,20115 L 3540,18226 5358,17176 5358,20115 3540,20115 Z"/>
     <path fill="rgb(189,189,189)" stroke="none" d="M 5358,20115 L 5358,20326 3540,21376 3540,20115 5358,20115 Z M 3540,20073 L 3540,18226 5358,17176 5358,20073 3540,20073 Z"/>
     <path fill="rgb(190,190,190)" stroke="none" d="M 5358,20073 L 5358,20326 3540,21376 3540,20073 5358,20073 Z M 3540,20031 L 3540,18226 5358,17176 5358,20031 3540,20031 Z"/>
     <path fill="rgb(191,191,191)" stroke="none" d="M 5358,20031 L 5358,20326 3540,21376 3540,20031 5358,20031 Z M 3540,19989 L 3540,18226 5358,17176 5358,19989 3540,19989 Z"/>
     <path fill="rgb(192,192,192)" stroke="none" d="M 5358,19989 L 5358,20326 3540,21376 3540,19989 5358,19989 Z M 3540,19947 L 3540,18226 5358,17176 5358,19947 3540,19947 Z"/>
     <path fill="rgb(193,193,193)" stroke="none" d="M 5358,19947 L 5358,20326 3540,21376 3540,19947 5358,19947 Z M 3540,19905 L 3540,18226 5358,17176 5358,19905 3540,19905 Z"/>
     <path fill="rgb(194,194,194)" stroke="none" d="M 5358,19905 L 5358,20326 3540,21376 3540,19905 5358,19905 Z M 3540,19863 L 3540,18226 5358,17176 5358,19863 3540,19863 Z"/>
     <path fill="rgb(195,195,195)" stroke="none" d="M 5358,19863 L 5358,20326 3540,21376 3540,19863 5358,19863 Z M 3540,19821 L 3540,18226 5358,17176 5358,19821 3540,19821 Z"/>
     <path fill="rgb(196,196,196)" stroke="none" d="M 5358,19821 L 5358,20326 3540,21376 3540,19821 5358,19821 Z M 3540,19779 L 3540,18226 5358,17176 5358,19779 3540,19779 Z"/>
     <path fill="rgb(197,197,197)" stroke="none" d="M 5358,19779 L 5358,20326 3540,21376 3540,19779 5358,19779 Z M 3540,19737 L 3540,18226 5358,17176 5358,19737 3540,19737 Z"/>
     <path fill="rgb(198,198,198)" stroke="none" d="M 5358,19737 L 5358,20326 3540,21376 3540,19737 5358,19737 Z M 5345,19695 L 3540,19695 3540,18226 5345,17184 5345,19695 Z"/>
     <path fill="rgb(199,199,199)" stroke="none" d="M 5345,19695 L 5345,17184 5358,17176 5358,20326 3540,21376 3540,19695 5345,19695 Z M 5303,17216 L 5303,19653 3540,19653 3540,18226 5289,17216 5303,17216 Z"/>
     <path fill="rgb(200,200,200)" stroke="none" d="M 5303,19653 L 5303,17216 5289,17216 5358,17176 5358,20326 3540,21376 3540,19653 5303,19653 Z M 5261,17258 L 5261,19611 3540,19611 3540,18226 5216,17258 5261,17258 Z"/>
     <path fill="rgb(201,201,201)" stroke="none" d="M 5261,19611 L 5261,17258 5216,17258 5358,17176 5358,20326 3540,21376 3540,19611 5261,19611 Z M 5219,17300 L 5219,19569 3540,19569 3540,18226 5143,17300 5219,17300 Z"/>
     <path fill="rgb(202,202,202)" stroke="none" d="M 5219,19569 L 5219,17300 5143,17300 5358,17176 5358,20326 3540,21376 3540,19569 5219,19569 Z M 5177,17342 L 5177,19527 3540,19527 3540,18226 5071,17342 5177,17342 Z"/>
     <path fill="rgb(203,203,203)" stroke="none" d="M 5177,19527 L 5177,17342 5071,17342 5358,17176 5358,20326 3540,21376 3540,19527 5177,19527 Z M 5135,17384 L 5135,19485 3540,19485 3540,18226 4998,17384 5135,17384 Z"/>
     <path fill="rgb(204,204,204)" stroke="none" d="M 5135,19485 L 5135,17384 4998,17384 5358,17176 5358,20326 3540,21376 3540,19485 5135,19485 Z M 5093,17426 L 5093,19443 3540,19443 3540,18226 4925,17426 5093,17426 Z"/>
     <path fill="rgb(205,205,205)" stroke="none" d="M 5093,19443 L 5093,17426 4925,17426 5358,17176 5358,20326 3540,21376 3540,19443 5093,19443 Z M 5051,17468 L 5051,19401 3540,19401 3540,18226 4852,17468 5051,17468 Z"/>
     <path fill="rgb(206,206,206)" stroke="none" d="M 5051,19401 L 5051,17468 4852,17468 5358,17176 5358,20326 3540,21376 3540,19401 5051,19401 Z M 5009,17510 L 5009,19359 3540,19359 3540,18226 4780,17510 5009,17510 Z"/>
     <path fill="rgb(207,207,207)" stroke="none" d="M 5009,19359 L 5009,17510 4780,17510 5358,17176 5358,20326 3540,21376 3540,19359 5009,19359 Z M 4967,17552 L 4967,19317 3540,19317 3540,18226 4707,17552 4967,17552 Z"/>
     <path fill="rgb(208,208,208)" stroke="none" d="M 4967,19317 L 4967,17552 4707,17552 5358,17176 5358,20326 3540,21376 3540,19317 4967,19317 Z M 4925,17594 L 4925,19275 3540,19275 3540,18226 4634,17594 4925,17594 Z"/>
     <path fill="rgb(209,209,209)" stroke="none" d="M 4925,19275 L 4925,17594 4634,17594 5358,17176 5358,20326 3540,21376 3540,19275 4925,19275 Z M 4883,17636 L 4883,19233 3540,19233 3540,18226 4562,17636 4883,17636 Z"/>
     <path fill="rgb(210,210,210)" stroke="none" d="M 4883,19233 L 4883,17636 4562,17636 5358,17176 5358,20326 3540,21376 3540,19233 4883,19233 Z M 4841,17678 L 4841,19191 3540,19191 3540,18226 4489,17678 4841,17678 Z"/>
     <path fill="rgb(211,211,211)" stroke="none" d="M 4841,19191 L 4841,17678 4489,17678 5358,17176 5358,20326 3540,21376 3540,19191 4841,19191 Z M 4799,17720 L 4799,19149 3540,19149 3540,18226 4416,17720 4799,17720 Z"/>
     <path fill="rgb(212,212,212)" stroke="none" d="M 4799,19149 L 4799,17720 4416,17720 5358,17176 5358,20326 3540,21376 3540,19149 4799,19149 Z M 4756,17763 L 4756,19106 3540,19106 3540,18226 4342,17763 4756,17763 Z"/>
     <path fill="rgb(213,213,213)" stroke="none" d="M 4756,19106 L 4756,17763 4342,17763 5358,17176 5358,20326 3540,21376 3540,19106 4756,19106 Z M 4714,17805 L 4714,19064 3540,19064 3540,18226 4269,17805 4714,17805 Z"/>
     <path fill="rgb(214,214,214)" stroke="none" d="M 4714,19064 L 4714,17805 4269,17805 5358,17176 5358,20326 3540,21376 3540,19064 4714,19064 Z M 4672,17847 L 4672,19022 3540,19022 3540,18226 4196,17847 4672,17847 Z"/>
     <path fill="rgb(215,215,215)" stroke="none" d="M 4672,19022 L 4672,17847 4196,17847 5358,17176 5358,20326 3540,21376 3540,19022 4672,19022 Z M 4630,17889 L 4630,18980 3540,18980 3540,18226 4123,17889 4630,17889 Z"/>
     <path fill="rgb(216,216,216)" stroke="none" d="M 4630,18980 L 4630,17889 4123,17889 5358,17176 5358,20326 3540,21376 3540,18980 4630,18980 Z M 4588,17931 L 4588,18938 3581,18938 3581,18202 4051,17931 4588,17931 Z"/>
     <path fill="rgb(217,217,217)" stroke="none" d="M 3581,18938 L 4588,18938 4588,17931 4051,17931 5358,17176 5358,20326 3540,21376 3540,18226 3581,18202 3581,18938 Z M 4546,17973 L 4546,18896 3623,18896 3623,18178 3978,17973 4546,17973 Z"/>
     <path fill="rgb(218,218,218)" stroke="none" d="M 3623,18896 L 4546,18896 4546,17973 3978,17973 5358,17176 5358,20326 3540,21376 3540,18226 3623,18178 3623,18896 Z M 4504,18015 L 4504,18854 3665,18854 3665,18154 3905,18015 4504,18015 Z"/>
     <path fill="rgb(219,219,219)" stroke="none" d="M 3665,18854 L 4504,18854 4504,18015 3905,18015 5358,17176 5358,20326 3540,21376 3540,18226 3665,18154 3665,18854 Z M 4462,18057 L 4462,18812 3707,18812 3707,18130 3833,18057 4462,18057 Z"/>
     <path fill="rgb(220,220,220)" stroke="none" d="M 3707,18812 L 4462,18812 4462,18057 3833,18057 5358,17176 5358,20326 3540,21376 3540,18226 3707,18130 3707,18812 Z M 4420,18099 L 4420,18770 3749,18770 3749,18105 3760,18099 4420,18099 Z"/>
     <path fill="rgb(221,221,221)" stroke="none" d="M 3749,18770 L 4420,18770 4420,18099 3760,18099 5358,17176 5358,20326 3540,21376 3540,18226 3749,18105 3749,18770 Z M 3791,18141 L 4378,18141 4378,18728 3791,18728 3791,18141 Z"/>
     <path fill="rgb(222,222,222)" stroke="none" d="M 3791,18141 L 3791,18728 4378,18728 4378,18141 3791,18141 Z M 3833,18183 L 4336,18183 4336,18686 3833,18686 3833,18183 Z M 5358,20326 L 3540,21376 3540,18226 5358,17176 5358,20326 Z"/>
     <path fill="rgb(223,223,223)" stroke="none" d="M 3833,18183 L 3833,18686 4336,18686 4336,18183 3833,18183 Z M 3875,18225 L 4294,18225 4294,18644 3875,18644 3875,18225 Z M 5358,20326 L 3540,21376 3540,18226 5358,17176 5358,20326 Z"/>
     <path fill="rgb(224,224,224)" stroke="none" d="M 3875,18225 L 3875,18644 4294,18644 4294,18225 3875,18225 Z M 3917,18267 L 4252,18267 4252,18602 3917,18602 3917,18267 Z M 5358,20326 L 3540,21376 3540,18226 5358,17176 5358,20326 Z"/>
     <path fill="rgb(225,225,225)" stroke="none" d="M 3917,18267 L 3917,18602 4252,18602 4252,18267 3917,18267 Z M 3959,18309 L 4210,18309 4210,18560 3959,18560 3959,18309 Z M 5358,20326 L 3540,21376 3540,18226 5358,17176 5358,20326 Z"/>
     <path fill="rgb(226,226,226)" stroke="none" d="M 3959,18309 L 3959,18560 4210,18560 4210,18309 3959,18309 Z M 4001,18351 L 4168,18351 4168,18518 4001,18518 4001,18351 Z M 5358,20326 L 3540,21376 3540,18226 5358,17176 5358,20326 Z"/>
     <path fill="rgb(227,227,227)" stroke="none" d="M 4001,18351 L 4001,18518 4168,18518 4168,18351 4001,18351 Z M 4043,18393 L 4126,18393 4126,18476 4043,18476 4043,18393 Z M 5358,20326 L 3540,21376 3540,18226 5358,17176 5358,20326 Z"/>
     <path fill="rgb(229,229,229)" stroke="none" d="M 4043,18393 L 4043,18476 4126,18476 4126,18393 4043,18393 Z M 5358,20326 L 3540,21376 3540,18226 5358,17176 5358,20326 Z"/>
     <path fill="none" stroke="rgb(255,255,255)" id="Drawing_6_0" stroke-width="40" stroke-linejoin="round" d="M 5358,20326 L 5358,17176 3540,18226 3540,21376 5358,20326 Z"/>
    </g>
    <g>
     <path fill="rgb(238,238,238)" stroke="none" d="M 5237,20186 L 5237,17456 3661,18366 3661,21096 5237,20186 Z"/>
     <path fill="none" stroke="rgb(102,102,102)" id="Drawing_7_0" stroke-width="40" stroke-linejoin="round" d="M 5237,20186 L 5237,17456 3661,18366 3661,21096 5237,20186 Z"/>
    </g>
    <g>
     <path fill="rgb(255,255,255)" stroke="none" d="M 6086,22076 C 6450,22146 7420,21586 7420,21586 7420,21586 5988,20767 5480,20466 5035,20723 4591,20979 4146,21236 4695,21539 5116,21796 5601,22076 5763,22169 5965,22216 6086,22076 Z"/>
     <path fill="none" stroke="rgb(51,51,51)" id="Drawing_8_0" stroke-width="40" stroke-linejoin="round" d="M 6086,22076 C 6450,22146 7420,21586 7420,21586 7420,21586 5988,20767 5480,20466 5035,20723 4591,20979 4146,21236 4695,21539 5116,21796 5601,22076 5763,22169 5965,22216 6086,22076 Z"/>
    </g>
    <g>
     <path fill="none" stroke="rgb(0,0,0)" id="Drawing_9_0" stroke-width="40" stroke-linejoin="round" d="M 3540,21306 L 3418,21376 3418,21586 6328,23266 8268,22146 8268,21936 5358,20256 5358,17176 3540,18226 3540,21306 Z"/>
    </g>
   </g>
  </g>
 </g>
</svg>