<?xml version="1.0" encoding="UTF-8"?>

<svg version="1.2" baseProfile="tiny" width="55.4mm" height="50.4mm" viewBox="6084 8216 5540 5040" preserveAspectRatio="xMidYMid" fill-rule="evenodd" stroke-width="28.222" stroke-linejoin="round" xmlns="http://www.w3.org/2000/svg" xmlns:xlink="http://www.w3.org/1999/xlink" xml:space="preserve">
 <g visibility="visible" id="Slide_1">
  <g id="DrawingGroup_1">
   <g>
    <path fill="rgb(221,221,221)" stroke="none" d="M 8562,13236 C 8832,13236 11604,12440 11604,11929 11604,11418 11285,11361 11015,11361 11015,11531 8464,11986 8562,13236 Z"/>
    <path fill="none" stroke="rgb(221,221,221)" id="Drawing_1_0" stroke-width="40" stroke-linejoin="round" d="M 8562,13236 C 8832,13236 11604,12440 11604,11929 11604,11418 11285,11361 11015,11361 11015,11531 8464,11986 8562,13236 Z"/>
   </g>
   <g id="DrawingGroup_2">
    <g>
     <defs>
      <linearGradient id="Gradient_1" gradientUnits="userSpaceOnUse" x1="9639" y1="9202" x2="9639" y2="10793">
       <stop offset="0.1" stop-color="rgb(179,179,179)"/>
       <stop offset="1" stop-color="rgb(229,229,229)"/>
      </linearGradient>
     </defs>
     <path fill="url(#Gradient_1)" stroke="rgb(255,255,255)" id="Drawing_2_0" stroke-width="40" stroke-linejoin="round" d="M 10228,10793 L 8264,9657 9050,9202 11014,10338 10228,10793 Z"/>
    </g>
    <g>
     <path fill="rgb(179,179,179)" stroke="none" d="M 7660,10248 L 6834,10918 6497,10918 6497,10849 7479,10054 7660,9949 7660,10248 Z"/>
     <path fill="rgb(180,180,180)" stroke="none" d="M 6834,10918 L 6497,11191 6497,10918 6834,10918 Z M 7660,9949 L 7970,9770 7970,9997 7660,10248 7660,9949 Z M 7645,10260 L 6852,10903 6497,10903 6497,10849 7479,10054 7645,9958 7645,10260 Z"/>
     <path fill="rgb(181,181,181)" stroke="none" d="M 6852,10903 L 6497,11191 6497,10903 6852,10903 Z M 7645,9958 L 7970,9770 7970,9997 7645,10260 7645,9958 Z M 7630,10273 L 6871,10888 6497,10888 6497,10849 7479,10054 7630,9967 7630,10273 Z"/>
     <path fill="rgb(182,182,182)" stroke="none" d="M 6871,10888 L 6497,11191 6497,10888 6871,10888 Z M 7630,9967 L 7970,9770 7970,9997 7630,10273 7630,9967 Z M 7615,10285 L 6889,10873 6497,10873 6497,10849 7479,10054 7615,9975 7615,10285 Z"/>
     <path fill="rgb(183,183,183)" stroke="none" d="M 6889,10873 L 6497,11191 6497,10873 6889,10873 Z M 7615,9975 L 7970,9770 7970,9997 7615,10285 7615,9975 Z M 7601,10296 L 6907,10859 6497,10859 6497,10849 7479,10054 7601,9983 7601,10296 Z"/>
     <path fill="rgb(184,184,184)" stroke="none" d="M 6907,10859 L 6497,11191 6497,10859 6907,10859 Z M 7601,9983 L 7970,9770 7970,9997 7601,10296 7601,9983 Z M 7586,10308 L 6925,10844 6503,10844 7479,10054 7586,9992 7586,10308 Z"/>
     <path fill="rgb(185,185,185)" stroke="none" d="M 6925,10844 L 6497,11191 6497,10849 6503,10844 6925,10844 Z M 7586,9992 L 7970,9770 7970,9997 7586,10308 7586,9992 Z M 7571,10320 L 6944,10829 6522,10829 7479,10054 7571,10001 7571,10320 Z"/>
     <path fill="rgb(186,186,186)" stroke="none" d="M 6944,10829 L 6497,11191 6497,10849 6522,10829 6944,10829 Z M 7571,10001 L 7970,9770 7970,9997 7571,10320 7571,10001 Z M 7556,10333 L 6962,10814 6540,10814 7479,10054 7556,10009 7556,10333 Z"/>
     <path fill="rgb(187,187,187)" stroke="none" d="M 6962,10814 L 6497,11191 6497,10849 6540,10814 6962,10814 Z M 7556,10009 L 7970,9770 7970,9997 7556,10333 7556,10009 Z M 7542,10344 L 6979,10800 6558,10800 7479,10054 7542,10018 7542,10344 Z"/>
     <path fill="rgb(188,188,188)" stroke="none" d="M 6979,10800 L 6497,11191 6497,10849 6558,10800 6979,10800 Z M 7542,10018 L 7970,9770 7970,9997 7542,10344 7542,10018 Z M 7527,10356 L 6998,10785 6576,10785 7479,10054 7527,10026 7527,10356 Z"/>
     <path fill="rgb(189,189,189)" stroke="none" d="M 6998,10785 L 6497,11191 6497,10849 6576,10785 6998,10785 Z M 7527,10026 L 7970,9770 7970,9997 7527,10356 7527,10026 Z M 7512,10368 L 7016,10770 6595,10770 7479,10054 7512,10035 7512,10368 Z"/>
     <path fill="rgb(190,190,190)" stroke="none" d="M 7016,10770 L 6497,11191 6497,10849 6595,10770 7016,10770 Z M 7512,10035 L 7970,9770 7970,9997 7512,10368 7512,10035 Z M 7497,10380 L 7035,10755 6613,10755 7479,10054 7497,10044 7497,10380 Z"/>
     <path fill="rgb(191,191,191)" stroke="none" d="M 7035,10755 L 6497,11191 6497,10849 6613,10755 7035,10755 Z M 7497,10044 L 7970,9770 7970,9997 7497,10380 7497,10044 Z M 7483,10392 L 7052,10741 6630,10741 7479,10054 7483,10052 7483,10392 Z"/>
     <path fill="rgb(192,192,192)" stroke="none" d="M 7052,10741 L 6497,11191 6497,10849 6630,10741 7052,10741 Z M 7483,10052 L 7970,9770 7970,9997 7483,10392 7483,10052 Z M 7468,10404 L 7071,10726 6649,10726 7468,10063 7468,10404 Z"/>
     <path fill="rgb(193,193,193)" stroke="none" d="M 7071,10726 L 6497,11191 6497,10849 6649,10726 7071,10726 Z M 7468,10063 L 7479,10054 7970,9770 7970,9997 7468,10404 7468,10063 Z M 7453,10416 L 7089,10711 6667,10711 7453,10075 7453,10416 Z"/>
     <path fill="rgb(194,194,194)" stroke="none" d="M 7089,10711 L 6497,11191 6497,10849 6667,10711 7089,10711 Z M 7453,10075 L 7479,10054 7970,9770 7970,9997 7453,10416 7453,10075 Z M 7438,10428 L 7108,10696 6686,10696 7438,10087 7438,10428 Z"/>
     <path fill="rgb(195,195,195)" stroke="none" d="M 7108,10696 L 6497,11191 6497,10849 6686,10696 7108,10696 Z M 7438,10087 L 7479,10054 7970,9770 7970,9997 7438,10428 7438,10087 Z M 7424,10440 L 7125,10682 6703,10682 7424,10099 7424,10440 Z"/>
     <path fill="rgb(196,196,196)" stroke="none" d="M 7125,10682 L 6497,11191 6497,10849 6703,10682 7125,10682 Z M 7424,10099 L 7479,10054 7970,9770 7970,9997 7424,10440 7424,10099 Z M 7409,10452 L 7143,10667 6722,10667 7409,10111 7409,10452 Z"/>
     <path fill="rgb(197,197,197)" stroke="none" d="M 7143,10667 L 6497,11191 6497,10849 6722,10667 7143,10667 Z M 7409,10111 L 7479,10054 7970,9770 7970,9997 7409,10452 7409,10111 Z M 7394,10464 L 7162,10652 6740,10652 7394,10123 7394,10464 Z"/>
     <path fill="rgb(198,198,198)" stroke="none" d="M 7162,10652 L 6497,11191 6497,10849 6740,10652 7162,10652 Z M 7394,10123 L 7479,10054 7970,9770 7970,9997 7394,10464 7394,10123 Z M 7379,10476 L 7180,10637 6759,10637 7379,10135 7379,10476 Z"/>
     <path fill="rgb(199,199,199)" stroke="none" d="M 7180,10637 L 6497,11191 6497,10849 6759,10637 7180,10637 Z M 7379,10135 L 7479,10054 7970,9770 7970,9997 7379,10476 7379,10135 Z M 7365,10487 L 7198,10623 6776,10623 7365,10146 7365,10487 Z"/>
     <path fill="rgb(200,200,200)" stroke="none" d="M 7198,10623 L 6497,11191 6497,10849 6776,10623 7198,10623 Z M 7365,10146 L 7479,10054 7970,9770 7970,9997 7365,10487 7365,10146 Z M 7350,10500 L 7216,10608 6795,10608 7350,10158 7350,10500 Z"/>
     <path fill="rgb(201,201,201)" stroke="none" d="M 7216,10608 L 6497,11191 6497,10849 6795,10608 7216,10608 Z M 7350,10158 L 7479,10054 7970,9770 7970,9997 7350,10500 7350,10158 Z M 7335,10512 L 7235,10593 6813,10593 7335,10171 7335,10512 Z"/>
     <path fill="rgb(202,202,202)" stroke="none" d="M 7235,10593 L 6497,11191 6497,10849 6813,10593 7235,10593 Z M 7335,10171 L 7479,10054 7970,9770 7970,9997 7335,10512 7335,10171 Z M 7320,10524 L 7253,10578 6832,10578 7320,10183 7320,10524 Z"/>
     <path fill="rgb(203,203,203)" stroke="none" d="M 7253,10578 L 6497,11191 6497,10849 6832,10578 7253,10578 Z M 7320,10183 L 7479,10054 7970,9770 7970,9997 7320,10524 7320,10183 Z M 7306,10535 L 7271,10564 6849,10564 7306,10194 7306,10535 Z"/>
     <path fill="rgb(204,204,204)" stroke="none" d="M 7271,10564 L 6497,11191 6497,10849 6849,10564 7271,10564 Z M 7306,10194 L 7479,10054 7970,9770 7970,9997 7306,10535 7306,10194 Z M 7291,10547 L 7289,10549 6868,10549 7291,10206 7291,10547 Z"/>
     <path fill="rgb(205,205,205)" stroke="none" d="M 7289,10549 L 6497,11191 6497,10849 6868,10549 7289,10549 Z M 7291,10206 L 7479,10054 7970,9770 7970,9997 7291,10547 7291,10206 Z M 7276,10534 L 6886,10534 7276,10218 7276,10534 Z"/>
     <path fill="rgb(206,206,206)" stroke="none" d="M 7276,10534 L 7276,10218 7479,10054 7970,9770 7970,9997 6497,11191 6497,10849 6886,10534 7276,10534 Z M 7261,10519 L 6905,10519 7261,10230 7261,10519 Z"/>
     <path fill="rgb(207,207,207)" stroke="none" d="M 7261,10519 L 7261,10230 7479,10054 7970,9770 7970,9997 6497,11191 6497,10849 6905,10519 7261,10519 Z M 7246,10504 L 6923,10504 7246,10243 7246,10504 Z"/>
     <path fill="rgb(208,208,208)" stroke="none" d="M 7246,10504 L 7246,10243 7479,10054 7970,9770 7970,9997 6497,11191 6497,10849 6923,10504 7246,10504 Z M 7232,10490 L 6940,10490 7232,10254 7232,10490 Z"/>
     <path fill="rgb(209,209,209)" stroke="none" d="M 7232,10490 L 7232,10254 7479,10054 7970,9770 7970,9997 6497,11191 6497,10849 6940,10490 7232,10490 Z M 7217,10475 L 6959,10475 7217,10266 7217,10475 Z"/>
     <path fill="rgb(210,210,210)" stroke="none" d="M 7217,10475 L 7217,10266 7479,10054 7970,9770 7970,9997 6497,11191 6497,10849 6959,10475 7217,10475 Z M 7202,10460 L 6978,10460 7202,10278 7202,10460 Z"/>
     <path fill="rgb(211,211,211)" stroke="none" d="M 7202,10460 L 7202,10278 7479,10054 7970,9770 7970,9997 6497,11191 6497,10849 6978,10460 7202,10460 Z M 7187,10445 L 6996,10445 7187,10290 7187,10445 Z"/>
     <path fill="rgb(212,212,212)" stroke="none" d="M 7187,10445 L 7187,10290 7479,10054 7970,9770 7970,9997 6497,11191 6497,10849 6996,10445 7187,10445 Z M 7173,10431 L 7013,10431 7173,10302 7173,10431 Z"/>
     <path fill="rgb(213,213,213)" stroke="none" d="M 7173,10431 L 7173,10302 7479,10054 7970,9770 7970,9997 6497,11191 6497,10849 7013,10431 7173,10431 Z M 7158,10416 L 7032,10416 7158,10314 7158,10416 Z"/>
     <path fill="rgb(214,214,214)" stroke="none" d="M 7158,10416 L 7158,10314 7479,10054 7970,9770 7970,9997 6497,11191 6497,10849 7032,10416 7158,10416 Z M 7143,10401 L 7050,10401 7143,10326 7143,10401 Z"/>
     <path fill="rgb(215,215,215)" stroke="none" d="M 7143,10401 L 7143,10326 7479,10054 7970,9770 7970,9997 6497,11191 6497,10849 7050,10401 7143,10401 Z M 7128,10386 L 7069,10386 7128,10338 7128,10386 Z"/>
     <path fill="rgb(216,216,216)" stroke="none" d="M 7128,10386 L 7128,10338 7479,10054 7970,9770 7970,9997 6497,11191 6497,10849 7069,10386 7128,10386 Z M 7114,10372 L 7086,10372 7114,10349 7114,10372 Z"/>
     <path fill="rgb(217,217,217)" stroke="none" d="M 7114,10372 L 7114,10349 7479,10054 7970,9770 7970,9997 6497,11191 6497,10849 7086,10372 7114,10372 Z"/>
     <path fill="rgb(218,218,218)" stroke="none" d="M 6497,11191 L 6497,10849 7479,10054 7970,9770 7970,9997 6497,11191 Z"/>
     <path fill="rgb(219,219,219)" stroke="none" d="M 6497,11191 L 6497,10849 7479,10054 7970,9770 7970,9997 6497,11191 Z"/>
     <path fill="rgb(220,220,220)" stroke="none" d="M 6497,11191 L 6497,10849 7479,10054 7970,9770 7970,9997 6497,11191 Z"/>
     <path fill="rgb(221,221,221)" stroke="none" d="M 6497,11191 L 6497,10849 7479,10054 7970,9770 7970,9997 6497,11191 Z"/>
     <path fill="rgb(222,222,222)" stroke="none" d="M 6497,11191 L 6497,10849 7479,10054 7970,9770 7970,9997 6497,11191 Z"/>
     <path fill="rgb(223,223,223)" stroke="none" d="M 6497,11191 L 6497,10849 7479,10054 7970,9770 7970,9997 6497,11191 Z"/>
     <path fill="rgb(224,224,224)" stroke="none" d="M 6497,11191 L 6497,10849 7479,10054 7970,9770 7970,9997 6497,11191 Z"/>
     <path fill="rgb(225,225,225)" stroke="none" d="M 6497,11191 L 6497,10849 7479,10054 7970,9770 7970,9997 6497,11191 Z"/>
     <path fill="rgb(226,226,226)" stroke="none" d="M 6497,11191 L 6497,10849 7479,10054 7970,9770 7970,9997 6497,11191 Z"/>
     <path fill="rgb(227,227,227)" stroke="none" d="M 6497,11191 L 6497,10849 7479,10054 7970,9770 7970,9997 6497,11191 Z"/>
     <path fill="rgb(229,229,229)" stroke="none" d="M 6497,11191 L 6497,10849 7479,10054 7970,9770 7970,9997 6497,11191 Z"/>
     <path fill="none" stroke="rgb(255,255,255)" id="Drawing_3_0" stroke-width="40" stroke-linejoin="round" d="M 6497,11191 L 6497,10849 7479,10054 7970,9770 7970,9997 6497,11191 Z"/>
    </g>
    <g>
     <path fill="rgb(179,179,179)" stroke="none" d="M 10715,11988 L 9611,12627 8559,12627 8559,12156 10228,10793 10715,10511 10715,11988 Z"/>
     <path fill="rgb(180,180,180)" stroke="none" d="M 9611,12627 L 8559,13236 8559,12627 9611,12627 Z M 10715,10511 L 11014,10338 11014,11815 10715,11988 10715,10511 Z M 10686,12005 L 9661,12598 8559,12598 8559,12156 10228,10793 10686,10528 10686,12005 Z"/>
     <path fill="rgb(181,181,181)" stroke="none" d="M 9661,12598 L 8559,13236 8559,12598 9661,12598 Z M 10686,10528 L 11014,10338 11014,11815 10686,12005 10686,10528 Z M 10657,12022 L 9711,12569 8559,12569 8559,12156 10228,10793 10657,10545 10657,12022 Z"/>
     <path fill="rgb(182,182,182)" stroke="none" d="M 9711,12569 L 8559,13236 8559,12569 9711,12569 Z M 10657,10545 L 11014,10338 11014,11815 10657,12022 10657,10545 Z M 10628,12038 L 9761,12540 8559,12540 8559,12156 10228,10793 10628,10561 10628,12038 Z"/>
     <path fill="rgb(183,183,183)" stroke="none" d="M 9761,12540 L 8559,13236 8559,12540 9761,12540 Z M 10628,10561 L 11014,10338 11014,11815 10628,12038 10628,10561 Z M 10599,12055 L 9812,12511 8559,12511 8559,12156 10228,10793 10599,10578 10599,12055 Z"/>
     <path fill="rgb(184,184,184)" stroke="none" d="M 9812,12511 L 8559,13236 8559,12511 9812,12511 Z M 10599,10578 L 11014,10338 11014,11815 10599,12055 10599,10578 Z M 10570,12072 L 9862,12482 8559,12482 8559,12156 10228,10793 10570,10595 10570,12072 Z"/>
     <path fill="rgb(185,185,185)" stroke="none" d="M 9862,12482 L 8559,13236 8559,12482 9862,12482 Z M 10570,10595 L 11014,10338 11014,11815 10570,12072 10570,10595 Z M 10541,12089 L 9912,12453 8559,12453 8559,12156 10228,10793 10541,10612 10541,12089 Z"/>
     <path fill="rgb(186,186,186)" stroke="none" d="M 9912,12453 L 8559,13236 8559,12453 9912,12453 Z M 10541,10612 L 11014,10338 11014,11815 10541,12089 10541,10612 Z M 10512,12106 L 9962,12424 8559,12424 8559,12156 10228,10793 10512,10629 10512,12106 Z"/>
     <path fill="rgb(187,187,187)" stroke="none" d="M 9962,12424 L 8559,13236 8559,12424 9962,12424 Z M 10512,10629 L 11014,10338 11014,11815 10512,12106 10512,10629 Z M 10483,12122 L 10012,12395 8559,12395 8559,12156 10228,10793 10483,10645 10483,12122 Z"/>
     <path fill="rgb(188,188,188)" stroke="none" d="M 10012,12395 L 8559,13236 8559,12395 10012,12395 Z M 10483,10645 L 11014,10338 11014,11815 10483,12122 10483,10645 Z M 10454,12139 L 10062,12366 8559,12366 8559,12156 10228,10793 10454,10662 10454,12139 Z"/>
     <path fill="rgb(189,189,189)" stroke="none" d="M 10062,12366 L 8559,13236 8559,12366 10062,12366 Z M 10454,10662 L 11014,10338 11014,11815 10454,12139 10454,10662 Z M 10425,12156 L 10112,12337 8559,12337 8559,12156 10228,10793 10425,10679 10425,12156 Z"/>
     <path fill="rgb(190,190,190)" stroke="none" d="M 10112,12337 L 8559,13236 8559,12337 10112,12337 Z M 10425,10679 L 11014,10338 11014,11815 10425,12156 10425,10679 Z M 10396,12173 L 10162,12308 8559,12308 8559,12156 10228,10793 10396,10696 10396,12173 Z"/>
     <path fill="rgb(191,191,191)" stroke="none" d="M 10162,12308 L 8559,13236 8559,12308 10162,12308 Z M 10396,10696 L 11014,10338 11014,11815 10396,12173 10396,10696 Z M 10367,12189 L 10212,12279 8559,12279 8559,12156 10228,10793 10367,10713 10367,12189 Z"/>
     <path fill="rgb(192,192,192)" stroke="none" d="M 10212,12279 L 8559,13236 8559,12279 10212,12279 Z M 10367,10713 L 11014,10338 11014,11815 10367,12189 10367,10713 Z M 10338,12206 L 10262,12250 8559,12250 8559,12156 10228,10793 10338,10729 10338,12206 Z"/>
     <path fill="rgb(193,193,193)" stroke="none" d="M 10262,12250 L 8559,13236 8559,12250 10262,12250 Z M 10338,10729 L 11014,10338 11014,11815 10338,12206 10338,10729 Z M 10309,12221 L 8559,12221 8559,12156 10228,10793 10309,10746 10309,12221 Z"/>
     <path fill="rgb(194,194,194)" stroke="none" d="M 10309,12221 L 10309,10746 11014,10338 11014,11815 8559,13236 8559,12221 10309,12221 Z M 10280,12192 L 8559,12192 8559,12156 10228,10793 10280,10763 10280,12192 Z"/>
     <path fill="rgb(195,195,195)" stroke="none" d="M 10280,12192 L 10280,10763 11014,10338 11014,11815 8559,13236 8559,12192 10280,12192 Z M 10251,12163 L 8559,12163 8559,12156 10228,10793 10251,10780 10251,12163 Z"/>
     <path fill="rgb(196,196,196)" stroke="none" d="M 10251,12163 L 10251,10780 11014,10338 11014,11815 8559,13236 8559,12163 10251,12163 Z M 10222,12134 L 8586,12134 10222,10798 10222,12134 Z"/>
     <path fill="rgb(197,197,197)" stroke="none" d="M 10222,12134 L 10222,10798 10228,10793 11014,10338 11014,11815 8559,13236 8559,12156 8586,12134 10222,12134 Z M 10193,12105 L 8621,12105 10193,10822 10193,12105 Z"/>
     <path fill="rgb(198,198,198)" stroke="none" d="M 10193,12105 L 10193,10822 10228,10793 11014,10338 11014,11815 8559,13236 8559,12156 8621,12105 10193,12105 Z M 10164,12076 L 8657,12076 10164,10845 10164,12076 Z"/>
     <path fill="rgb(199,199,199)" stroke="none" d="M 10164,12076 L 10164,10845 10228,10793 11014,10338 11014,11815 8559,13236 8559,12156 8657,12076 10164,12076 Z M 10135,12047 L 8692,12047 10135,10869 10135,12047 Z"/>
     <path fill="rgb(200,200,200)" stroke="none" d="M 10135,12047 L 10135,10869 10228,10793 11014,10338 11014,11815 8559,13236 8559,12156 8692,12047 10135,12047 Z M 10106,12018 L 8728,12018 10106,10893 10106,12018 Z"/>
     <path fill="rgb(201,201,201)" stroke="none" d="M 10106,12018 L 10106,10893 10228,10793 11014,10338 11014,11815 8559,13236 8559,12156 8728,12018 10106,12018 Z M 10077,11989 L 8763,11989 10077,10916 10077,11989 Z"/>
     <path fill="rgb(202,202,202)" stroke="none" d="M 10077,11989 L 10077,10916 10228,10793 11014,10338 11014,11815 8559,13236 8559,12156 8763,11989 10077,11989 Z M 10048,11960 L 8799,11960 10048,10940 10048,11960 Z"/>
     <path fill="rgb(203,203,203)" stroke="none" d="M 10048,11960 L 10048,10940 10228,10793 11014,10338 11014,11815 8559,13236 8559,12156 8799,11960 10048,11960 Z M 10019,11931 L 8835,11931 10019,10964 10019,11931 Z"/>
     <path fill="rgb(204,204,204)" stroke="none" d="M 10019,11931 L 10019,10964 10228,10793 11014,10338 11014,11815 8559,13236 8559,12156 8835,11931 10019,11931 Z M 9990,11902 L 8870,11902 9990,10987 9990,11902 Z"/>
     <path fill="rgb(205,205,205)" stroke="none" d="M 9990,11902 L 9990,10987 10228,10793 11014,10338 11014,11815 8559,13236 8559,12156 8870,11902 9990,11902 Z M 9961,11873 L 8906,11873 9961,11011 9961,11873 Z"/>
     <path fill="rgb(206,206,206)" stroke="none" d="M 9961,11873 L 9961,11011 10228,10793 11014,10338 11014,11815 8559,13236 8559,12156 8906,11873 9961,11873 Z M 9932,11844 L 8941,11844 9932,11035 9932,11844 Z"/>
     <path fill="rgb(207,207,207)" stroke="none" d="M 9932,11844 L 9932,11035 10228,10793 11014,10338 11014,11815 8559,13236 8559,12156 8941,11844 9932,11844 Z M 9903,11815 L 8977,11815 9903,11058 9903,11815 Z"/>
     <path fill="rgb(208,208,208)" stroke="none" d="M 9903,11815 L 9903,11058 10228,10793 11014,10338 11014,11815 8559,13236 8559,12156 8977,11815 9903,11815 Z M 9874,11786 L 9012,11786 9874,11082 9874,11786 Z"/>
     <path fill="rgb(209,209,209)" stroke="none" d="M 9874,11786 L 9874,11082 10228,10793 11014,10338 11014,11815 8559,13236 8559,12156 9012,11786 9874,11786 Z M 9845,11757 L 9048,11757 9845,11106 9845,11757 Z"/>
     <path fill="rgb(210,210,210)" stroke="none" d="M 9845,11757 L 9845,11106 10228,10793 11014,10338 11014,11815 8559,13236 8559,12156 9048,11757 9845,11757 Z M 9816,11728 L 9083,11728 9816,11129 9816,11728 Z"/>
     <path fill="rgb(211,211,211)" stroke="none" d="M 9816,11728 L 9816,11129 10228,10793 11014,10338 11014,11815 8559,13236 8559,12156 9083,11728 9816,11728 Z M 9787,11699 L 9119,11699 9787,11153 9787,11699 Z"/>
     <path fill="rgb(212,212,212)" stroke="none" d="M 9787,11699 L 9787,11153 10228,10793 11014,10338 11014,11815 8559,13236 8559,12156 9119,11699 9787,11699 Z M 9758,11670 L 9154,11670 9758,11177 9758,11670 Z"/>
     <path fill="rgb(213,213,213)" stroke="none" d="M 9758,11670 L 9758,11177 10228,10793 11014,10338 11014,11815 8559,13236 8559,12156 9154,11670 9758,11670 Z M 9729,11641 L 9190,11641 9729,11201 9729,11641 Z"/>
     <path fill="rgb(214,214,214)" stroke="none" d="M 9729,11641 L 9729,11201 10228,10793 11014,10338 11014,11815 8559,13236 8559,12156 9190,11641 9729,11641 Z M 9700,11612 L 9225,11612 9700,11224 9700,11612 Z"/>
     <path fill="rgb(215,215,215)" stroke="none" d="M 9700,11612 L 9700,11224 10228,10793 11014,10338 11014,11815 8559,13236 8559,12156 9225,11612 9700,11612 Z M 9671,11583 L 9261,11583 9671,11248 9671,11583 Z"/>
     <path fill="rgb(216,216,216)" stroke="none" d="M 9671,11583 L 9671,11248 10228,10793 11014,10338 11014,11815 8559,13236 8559,12156 9261,11583 9671,11583 Z M 9642,11554 L 9296,11554 9642,11272 9642,11554 Z"/>
     <path fill="rgb(217,217,217)" stroke="none" d="M 9642,11554 L 9642,11272 10228,10793 11014,10338 11014,11815 8559,13236 8559,12156 9296,11554 9642,11554 Z M 9613,11525 L 9332,11525 9613,11295 9613,11525 Z"/>
     <path fill="rgb(218,218,218)" stroke="none" d="M 9613,11525 L 9613,11295 10228,10793 11014,10338 11014,11815 8559,13236 8559,12156 9332,11525 9613,11525 Z M 9584,11496 L 9367,11496 9584,11319 9584,11496 Z"/>
     <path fill="rgb(219,219,219)" stroke="none" d="M 9584,11496 L 9584,11319 10228,10793 11014,10338 11014,11815 8559,13236 8559,12156 9367,11496 9584,11496 Z M 9555,11467 L 9403,11467 9555,11343 9555,11467 Z"/>
     <path fill="rgb(220,220,220)" stroke="none" d="M 9555,11467 L 9555,11343 10228,10793 11014,10338 11014,11815 8559,13236 8559,12156 9403,11467 9555,11467 Z M 9526,11438 L 9438,11438 9526,11366 9526,11438 Z"/>
     <path fill="rgb(221,221,221)" stroke="none" d="M 9526,11438 L 9526,11366 10228,10793 11014,10338 11014,11815 8559,13236 8559,12156 9438,11438 9526,11438 Z M 9497,11409 L 9474,11409 9497,11390 9497,11409 Z"/>
     <path fill="rgb(222,222,222)" stroke="none" d="M 9497,11409 L 9497,11390 10228,10793 11014,10338 11014,11815 8559,13236 8559,12156 9474,11409 9497,11409 Z"/>
     <path fill="rgb(223,223,223)" stroke="none" d="M 8559,13236 L 8559,12156 10228,10793 11014,10338 11014,11815 8559,13236 Z"/>
     <path fill="rgb(224,224,224)" stroke="none" d="M 8559,13236 L 8559,12156 10228,10793 11014,10338 11014,11815 8559,13236 Z"/>
     <path fill="rgb(225,225,225)" stroke="none" d="M 8559,13236 L 8559,12156 10228,10793 11014,10338 11014,11815 8559,13236 Z"/>
     <path fill="rgb(226,226,226)" stroke="none" d="M 8559,13236 L 8559,12156 10228,10793 11014,10338 11014,11815 8559,13236 Z"/>
     <path fill="rgb(227,227,227)" stroke="none" d="M 8559,13236 L 8559,12156 10228,10793 11014,10338 11014,11815 8559,13236 Z"/>
     <path fill="rgb(229,229,229)" stroke="none" d="M 8559,13236 L 8559,12156 10228,10793 11014,10338 11014,11815 8559,13236 Z"/>
     <path fill="none" stroke="rgb(255,255,255)" id="Drawing_4_0" stroke-width="40" stroke-linejoin="round" d="M 8559,13236 L 8559,12156 10228,10793 11014,10338 11014,11815 8559,13236 Z"/>
    </g>
    <g>
     <defs>
      <linearGradient id="Gradient_2" gradientUnits="userSpaceOnUse" x1="6593" y1="12125" x2="8561" y2="12129">
       <stop offset="0.1" stop-color="rgb(179,179,179)"/>
       <stop offset="1" stop-color="rgb(229,229,229)"/>
      </linearGradient>
     </defs>
     <path fill="url(#Gradient_2)" stroke="rgb(255,255,255)" id="Drawing_5_0" stroke-width="40" stroke-linejoin="round" d="M 6595,12098 L 6595,11019 8559,12155 8559,13235 6595,12098 Z"/>
    </g>
    <g>
     <defs>
      <linearGradient id="Gradient_3" gradientUnits="userSpaceOnUse" x1="6593" y1="10904" x2="10231" y2="10910">
       <stop offset="0.1" stop-color="rgb(179,179,179)"/>
       <stop offset="1" stop-color="rgb(229,229,229)"/>
      </linearGradient>
     </defs>
     <path fill="url(#Gradient_3)" stroke="rgb(255,255,255)" id="Drawing_6_0" stroke-width="40" stroke-linejoin="round" d="M 8559,12157 L 6595,11021 8264,9657 10229,10793 8559,12157 Z"/>
    </g>
    <g>
     <path fill="rgb(255,255,255)" stroke="none" d="M 7677,11247 L 7775,11134 7873,11191 7775,11304 7677,11247 Z"/>
     <path fill="none" stroke="rgb(128,128,128)" id="Drawing_7_0" stroke-width="40" stroke-linejoin="round" d="M 7677,11247 L 7775,11134 7873,11191 7775,11304 7677,11247 Z"/>
    </g>
    <g>
     <defs>
      <linearGradient id="Gradient_4" gradientUnits="userSpaceOnUse" x1="8263" y1="10592" x2="9443" y2="10594">
       <stop offset="0.1" stop-color="rgb(147,212,240)"/>
       <stop offset="1" stop-color="rgb(233,246,252)"/>
      </linearGradient>
     </defs>
     <path fill="url(#Gradient_4)" stroke="rgb(128,128,128)" id="Drawing_8_0" stroke-width="40" stroke-linejoin="round" d="M 8264,10394 L 8460,10224 9442,10792 9246,10963 8264,10394 Z"/>
    </g>
    <g>
     <path fill="rgb(255,255,255)" stroke="none" d="M 7874,11076 L 7972,10963 8070,11020 7972,11133 7874,11076 Z"/>
     <path fill="none" stroke="rgb(128,128,128)" id="Drawing_9_0" stroke-width="40" stroke-linejoin="round" d="M 7874,11076 L 7972,10963 8070,11020 7972,11133 7874,11076 Z"/>
    </g>
    <g>
     <path fill="rgb(255,255,255)" stroke="none" d="M 8070,10905 L 8168,10792 8266,10849 8168,10962 8070,10905 Z"/>
     <path fill="none" stroke="rgb(128,128,128)" id="Drawing_10_0" stroke-width="40" stroke-linejoin="round" d="M 8070,10905 L 8168,10792 8266,10849 8168,10962 8070,10905 Z"/>
    </g>
    <g>
     <path fill="rgb(255,255,255)" stroke="none" d="M 8266,10735 L 8364,10622 8462,10679 8364,10792 8266,10735 Z"/>
     <path fill="none" stroke="rgb(128,128,128)" id="Drawing_11_0" stroke-width="40" stroke-linejoin="round" d="M 8266,10735 L 8364,10622 8462,10679 8364,10792 8266,10735 Z"/>
    </g>
    <g>
     <path fill="rgb(255,255,255)" stroke="none" d="M 7874,11360 L 7972,11247 8070,11304 7972,11417 7874,11360 Z"/>
     <path fill="none" stroke="rgb(128,128,128)" id="Drawing_12_0" stroke-width="40" stroke-linejoin="round" d="M 7874,11360 L 7972,11247 8070,11304 7972,11417 7874,11360 Z"/>
    </g>
    <g>
     <path fill="rgb(255,255,255)" stroke="none" d="M 8069,11189 L 8167,11076 8265,11133 8167,11246 8069,11189 Z"/>
     <path fill="none" stroke="rgb(128,128,128)" id="Drawing_13_0" stroke-width="40" stroke-linejoin="round" d="M 8069,11189 L 8167,11076 8265,11133 8167,11246 8069,11189 Z"/>
    </g>
    <g>
     <path fill="rgb(255,255,255)" stroke="none" d="M 8266,11019 L 8364,10906 8462,10963 8364,11076 8266,11019 Z"/>
     <path fill="none" stroke="rgb(128,128,128)" id="Drawing_14_0" stroke-width="40" stroke-linejoin="round" d="M 8266,11019 L 8364,10906 8462,10963 8364,11076 8266,11019 Z"/>
    </g>
    <g>
     <path fill="rgb(255,255,255)" stroke="none" d="M 8461,10849 L 8559,10736 8657,10793 8559,10906 8461,10849 Z"/>
     <path fill="none" stroke="rgb(128,128,128)" id="Drawing_15_0" stroke-width="40" stroke-linejoin="round" d="M 8461,10849 L 8559,10736 8657,10793 8559,10906 8461,10849 Z"/>
    </g>
    <g>
     <path fill="rgb(57,181,74)" stroke="none" d="M 8069,11474 L 8167,11361 8265,11418 8167,11531 8069,11474 Z"/>
     <path fill="none" stroke="rgb(128,128,128)" id="Drawing_16_0" stroke-width="40" stroke-linejoin="round" d="M 8069,11474 L 8167,11361 8265,11418 8167,11531 8069,11474 Z"/>
    </g>
    <g>
     <path fill="rgb(222,142,150)" stroke="none" d="M 8266,11304 L 8364,11191 8462,11248 8364,11361 8266,11304 Z"/>
     <path fill="none" stroke="rgb(128,128,128)" id="Drawing_17_0" stroke-width="40" stroke-linejoin="round" d="M 8266,11304 L 8364,11191 8462,11248 8364,11361 8266,11304 Z"/>
    </g>
    <g>
     <path fill="rgb(0,0,0)" stroke="none" d="M 8462,11132 L 8560,11019 8658,11076 8560,11189 8462,11132 Z"/>
     <path fill="none" stroke="rgb(128,128,128)" id="Drawing_18_0" stroke-width="40" stroke-linejoin="round" d="M 8462,11132 L 8560,11019 8658,11076 8560,11189 8462,11132 Z"/>
    </g>
    <g>
     <path fill="rgb(255,255,255)" stroke="none" d="M 8658,10962 L 8756,10849 8854,10906 8756,11019 8658,10962 Z"/>
     <path fill="none" stroke="rgb(128,128,128)" id="Drawing_19_0" stroke-width="40" stroke-linejoin="round" d="M 8658,10962 L 8756,10849 8854,10906 8756,11019 8658,10962 Z"/>
    </g>
    <g>
     <path fill="none" stroke="rgb(255,255,255)" id="Drawing_20_0" stroke-width="40" stroke-linejoin="round" d="M 6791,11758 L 6791,11645"/>
    </g>
    <g>
     <path fill="none" stroke="rgb(255,255,255)" id="Drawing_21_0" stroke-width="40" stroke-linejoin="round" d="M 6791,11758 L 8362,12667"/>
    </g>
    <g>
     <path fill="none" stroke="rgb(102,102,102)" id="Drawing_22_0" stroke-width="40" stroke-linejoin="round" d="M 6791,11645 L 8362,12554"/>
    </g>
    <g>
     <path fill="none" stroke="rgb(102,102,102)" id="Drawing_23_0" stroke-width="40" stroke-linejoin="round" d="M 8363,12667 L 8363,12554"/>
    </g>
    <g>
     <defs>
      <linearGradient id="Gradient_5" gradientUnits="userSpaceOnUse" x1="6103" y1="10906" x2="6496" y2="10906">
       <stop offset="0.1" stop-color="rgb(179,179,179)"/>
       <stop offset="1" stop-color="rgb(229,229,229)"/>
      </linearGradient>
     </defs>
     <path fill="url(#Gradient_5)" stroke="rgb(255,255,255)" id="Drawing_24_0" stroke-width="40" stroke-linejoin="round" d="M 6104,10962 L 6104,10622 6497,10849 6497,11190 6104,10962 Z"/>
    </g>
    <g>
     <defs>
      <linearGradient id="Gradient_6" gradientUnits="userSpaceOnUse" x1="6102" y1="10337" x2="7479" y2="10339">
       <stop offset="0.1" stop-color="rgb(179,179,179)"/>
       <stop offset="1" stop-color="rgb(229,229,229)"/>
      </linearGradient>
     </defs>
     <path fill="url(#Gradient_6)" stroke="rgb(255,255,255)" id="Drawing_25_0" stroke-width="40" stroke-linejoin="round" d="M 6497,10849 L 6104,10622 7086,9827 7479,10054 6497,10849 Z"/>
    </g>
    <g>
     <defs>
      <linearGradient id="Gradient_7" gradientUnits="userSpaceOnUse" x1="7528" y1="9543" x2="7528" y2="10055">
       <stop offset="0.1" stop-color="rgb(179,179,179)"/>
       <stop offset="1" stop-color="rgb(229,229,229)"/>
      </linearGradient>
     </defs>
     <path fill="url(#Gradient_7)" stroke="rgb(255,255,255)" id="Drawing_26_0" stroke-width="40" stroke-linejoin="round" d="M 7479,10055 L 7086,9827 7577,9543 7970,9770 7479,10055 Z"/>
    </g>
    <g>
     <path fill="none" stroke="rgb(255,255,255)" id="Drawing_27_0" stroke-width="40" stroke-linejoin="round" d="M 8854,9543 L 8952,9486"/>
    </g>
    <g>
     <path fill="none" stroke="rgb(102,102,102)" id="Drawing_28_0" stroke-width="40" stroke-linejoin="round" d="M 8854,9543 L 10425,10452"/>
    </g>
    <g>
     <path fill="none" stroke="rgb(255,255,255)" id="Drawing_29_0" stroke-width="40" stroke-linejoin="round" d="M 8952,9486 L 10523,10395"/>
    </g>
    <g>
     <path fill="none" stroke="rgb(102,102,102)" id="Drawing_30_0" stroke-width="40" stroke-linejoin="round" d="M 10426,10452 L 10524,10395"/>
    </g>
    <g>
     <path fill="none" stroke="rgb(0,0,0)" id="Drawing_31_0" stroke-width="40" stroke-linejoin="round" d="M 6104,10963 L 6104,10623 7086,9827 7577,9542 7970,9770 7970,9884 8264,9657 9051,9202 11015,10338 11015,11815 8559,13236 6595,12100 6595,11247 6104,10963 Z"/>
    </g>
    <g>
     <path fill="rgb(255,255,255)" stroke="none" d="M 7480,11132 L 7578,11019 7676,11076 7578,11189 7480,11132 Z"/>
     <path fill="none" stroke="rgb(128,128,128)" id="Drawing_32_0" stroke-width="40" stroke-linejoin="round" d="M 7480,11132 L 7578,11019 7676,11076 7578,11189 7480,11132 Z"/>
    </g>
    <g>
     <path fill="rgb(255,255,255)" stroke="none" d="M 7676,10962 L 7774,10849 7872,10906 7774,11019 7676,10962 Z"/>
     <path fill="none" stroke="rgb(128,128,128)" id="Drawing_33_0" stroke-width="40" stroke-linejoin="round" d="M 7676,10962 L 7774,10849 7872,10906 7774,11019 7676,10962 Z"/>
    </g>
    <g>
     <path fill="rgb(255,255,255)" stroke="none" d="M 7873,10792 L 7971,10679 8069,10736 7971,10849 7873,10792 Z"/>
     <path fill="none" stroke="rgb(128,128,128)" id="Drawing_34_0" stroke-width="40" stroke-linejoin="round" d="M 7873,10792 L 7971,10679 8069,10736 7971,10849 7873,10792 Z"/>
    </g>
    <g>
     <path fill="rgb(255,255,255)" stroke="none" d="M 8069,10622 L 8167,10509 8265,10566 8167,10679 8069,10622 Z"/>
     <path fill="none" stroke="rgb(128,128,128)" id="Drawing_35_0" stroke-width="40" stroke-linejoin="round" d="M 8069,10622 L 8167,10509 8265,10566 8167,10679 8069,10622 Z"/>
    </g>
    <g>
     <path fill="rgb(255,255,255)" stroke="none" d="M 10328,10338 C 9935,10111 9444,9827 9051,9600 9346,9315 9477,8236 10131,8236 10524,8463 11015,8748 11506,9031 10852,9031 10622,9827 10328,10338 Z"/>
     <path fill="none" stroke="rgb(0,0,0)" id="Drawing_36_0" stroke-width="40" stroke-linejoin="round" d="M 10328,10338 C 9935,10111 9444,9827 9051,9600 9346,9315 9477,8236 10131,8236 10524,8463 11015,8748 11506,9031 10852,9031 10622,9827 10328,10338 Z"/>
    </g>
   </g>
  </g>
 </g>
</svg>