<?xml version="1.0" encoding="UTF-8"?>

<svg version="1.2" baseProfile="tiny" width="54.42mm" height="50.4mm" viewBox="13646 11011 5442 5040" preserveAspectRatio="xMidYMid" fill-rule="evenodd" stroke-width="28.222" stroke-linejoin="round" xmlns="http://www.w3.org/2000/svg" xmlns:xlink="http://www.w3.org/1999/xlink" xml:space="preserve">
 <g visibility="visible" id="Slide_1">
  <g id="DrawingGroup_1">
   <g>
    <path fill="rgb(221,221,221)" stroke="none" d="M 16984,15821 C 17254,15821 18560,15246 18924,14981 19288,14716 18847,14281 18577,14281 18577,14451 16984,15751 16984,15821 Z"/>
    <path fill="none" stroke="rgb(221,221,221)" id="Drawing_1_0" stroke-width="40" stroke-linejoin="round" d="M 16984,15821 C 17254,15821 18560,15246 18924,14981 19288,14716 18847,14281 18577,14281 18577,14451 16984,15751 16984,15821 Z"/>
   </g>
   <g id="DrawingGroup_2">
    <g>
     <defs>
      <linearGradient id="Gradient_203" gradientUnits="userSpaceOnUse" x1="15533" y1="11997" x2="15533" y2="13588">
       <stop offset="0.1" stop-color="rgb(51,51,51)"/>
       <stop offset="1" stop-color="rgb(153,153,153)"/>
      </linearGradient>
     </defs>
     <path fill="url(#Gradient_203)" stroke="rgb(178,178,178)" id="Drawing_2_0" stroke-width="40" stroke-linejoin="round" d="M 14944,13588 L 16908,12452 16122,11997 14158,13133 14944,13588 Z"/>
    </g>
    <g>
     <defs>
      <linearGradient id="Gradient_204" gradientUnits="userSpaceOnUse" x1="17200" y1="13274" x2="18675" y2="13276">
       <stop offset="0.1" stop-color="rgb(102,102,102)"/>
       <stop offset="1" stop-color="rgb(153,153,153)"/>
      </linearGradient>
     </defs>
     <path fill="url(#Gradient_204)" stroke="rgb(178,178,178)" id="Drawing_3_0" stroke-width="40" stroke-linejoin="round" d="M 18675,13986 L 18675,13644 17693,12849 17202,12565 17202,12792 18675,13986 Z"/>
    </g>
    <g>
     <defs>
      <linearGradient id="Gradient_205" gradientUnits="userSpaceOnUse" x1="14154" y1="14580" x2="16615" y2="14584">
       <stop offset="0.1" stop-color="rgb(102,102,102)"/>
       <stop offset="1" stop-color="rgb(153,153,153)"/>
      </linearGradient>
     </defs>
     <path fill="url(#Gradient_205)" stroke="rgb(178,178,178)" id="Drawing_4_0" stroke-width="40" stroke-linejoin="round" d="M 16613,16031 L 16613,14951 14944,13588 14158,13133 14158,14610 16613,16031 Z"/>
    </g>
    <g>
     <path fill="rgb(102,102,102)" stroke="none" d="M 18289,15060 L 17416,15565 16613,15565 16613,14950 18289,13981 18289,15060 Z"/>
     <path fill="rgb(103,103,103)" stroke="none" d="M 17416,15565 L 16613,16030 16613,15565 17416,15565 Z M 18289,13981 L 18577,13814 18577,14893 18289,15060 18289,13981 Z M 18267,15072 L 17454,15543 16613,15543 16613,14950 18267,13993 18267,15072 Z"/>
     <path fill="rgb(104,104,104)" stroke="none" d="M 17454,15543 L 16613,16030 16613,15543 17454,15543 Z M 18267,13993 L 18577,13814 18577,14893 18267,15072 18267,13993 Z M 18245,15085 L 17492,15521 16613,15521 16613,14950 18245,14006 18245,15085 Z"/>
     <path fill="rgb(105,105,105)" stroke="none" d="M 17492,15521 L 16613,16030 16613,15521 17492,15521 Z M 18245,14006 L 18577,13814 18577,14893 18245,15085 18245,14006 Z M 18223,15098 L 17530,15499 16613,15499 16613,14950 18223,14019 18223,15098 Z"/>
     <path fill="rgb(106,106,106)" stroke="none" d="M 17530,15499 L 16613,16030 16613,15499 17530,15499 Z M 18223,14019 L 18577,13814 18577,14893 18223,15098 18223,14019 Z M 18202,15110 L 17566,15478 16613,15478 16613,14950 18202,14031 18202,15110 Z"/>
     <path fill="rgb(107,107,107)" stroke="none" d="M 17566,15478 L 16613,16030 16613,15478 17566,15478 Z M 18202,14031 L 18577,13814 18577,14893 18202,15110 18202,14031 Z M 18180,15123 L 17605,15456 16613,15456 16613,14950 18180,14044 18180,15123 Z"/>
     <path fill="rgb(108,108,108)" stroke="none" d="M 17605,15456 L 16613,16030 16613,15456 17605,15456 Z M 18180,14044 L 18577,13814 18577,14893 18180,15123 18180,14044 Z M 18158,15136 L 17643,15434 16613,15434 16613,14950 18158,14056 18158,15136 Z"/>
     <path fill="rgb(109,109,109)" stroke="none" d="M 17643,15434 L 16613,16030 16613,15434 17643,15434 Z M 18158,14056 L 18577,13814 18577,14893 18158,15136 18158,14056 Z M 18136,15148 L 17681,15412 16613,15412 16613,14950 18136,14069 18136,15148 Z"/>
     <path fill="rgb(110,110,110)" stroke="none" d="M 17681,15412 L 16613,16030 16613,15412 17681,15412 Z M 18136,14069 L 18577,13814 18577,14893 18136,15148 18136,14069 Z M 18115,15160 L 17717,15391 16613,15391 16613,14950 18115,14081 18115,15160 Z"/>
     <path fill="rgb(111,111,111)" stroke="none" d="M 17717,15391 L 16613,16030 16613,15391 17717,15391 Z M 18115,14081 L 18577,13814 18577,14893 18115,15160 18115,14081 Z M 18093,15173 L 17755,15369 16613,15369 16613,14950 18093,14094 18093,15173 Z"/>
     <path fill="rgb(112,112,112)" stroke="none" d="M 17755,15369 L 16613,16030 16613,15369 17755,15369 Z M 18093,14094 L 18577,13814 18577,14893 18093,15173 18093,14094 Z M 18071,15186 L 17793,15347 16613,15347 16613,14950 18071,14107 18071,15186 Z"/>
     <path fill="rgb(113,113,113)" stroke="none" d="M 17793,15347 L 16613,16030 16613,15347 17793,15347 Z M 18071,14107 L 18577,13814 18577,14893 18071,15186 18071,14107 Z M 18049,15199 L 17831,15325 16613,15325 16613,14950 18049,14119 18049,15199 Z"/>
     <path fill="rgb(114,114,114)" stroke="none" d="M 17831,15325 L 16613,16030 16613,15325 17831,15325 Z M 18049,14119 L 18577,13814 18577,14893 18049,15199 18049,14119 Z M 18028,15211 L 17867,15304 16613,15304 16613,14950 18028,14132 18028,15211 Z"/>
     <path fill="rgb(115,115,115)" stroke="none" d="M 17867,15304 L 16613,16030 16613,15304 17867,15304 Z M 18028,14132 L 18577,13814 18577,14893 18028,15211 18028,14132 Z M 18006,15224 L 17905,15282 16613,15282 16613,14950 18006,14144 18006,15224 Z"/>
     <path fill="rgb(116,116,116)" stroke="none" d="M 17905,15282 L 16613,16030 16613,15282 17905,15282 Z M 18006,14144 L 18577,13814 18577,14893 18006,15224 18006,14144 Z M 17984,15236 L 17943,15260 16613,15260 16613,14950 17984,14157 17984,15236 Z"/>
     <path fill="rgb(117,117,117)" stroke="none" d="M 17943,15260 L 16613,16030 16613,15260 17943,15260 Z M 17984,14157 L 18577,13814 18577,14893 17984,15236 17984,14157 Z M 17962,15238 L 16613,15238 16613,14950 17962,14170 17962,15238 Z"/>
     <path fill="rgb(118,118,118)" stroke="none" d="M 17962,15238 L 17962,14170 18577,13814 18577,14893 16613,16030 16613,15238 17962,15238 Z M 17941,15217 L 16613,15217 16613,14950 17941,14182 17941,15217 Z"/>
     <path fill="rgb(119,119,119)" stroke="none" d="M 17941,15217 L 17941,14182 18577,13814 18577,14893 16613,16030 16613,15217 17941,15217 Z M 17919,15195 L 16613,15195 16613,14950 17919,14195 17919,15195 Z"/>
     <path fill="rgb(120,120,120)" stroke="none" d="M 17919,15195 L 17919,14195 18577,13814 18577,14893 16613,16030 16613,15195 17919,15195 Z M 17897,15173 L 16613,15173 16613,14950 17897,14207 17897,15173 Z"/>
     <path fill="rgb(121,121,121)" stroke="none" d="M 17897,15173 L 17897,14207 18577,13814 18577,14893 16613,16030 16613,15173 17897,15173 Z M 17875,15151 L 16613,15151 16613,14950 17875,14220 17875,15151 Z"/>
     <path fill="rgb(122,122,122)" stroke="none" d="M 17875,15151 L 17875,14220 18577,13814 18577,14893 16613,16030 16613,15151 17875,15151 Z M 17854,15130 L 16613,15130 16613,14950 17854,14232 17854,15130 Z"/>
     <path fill="rgb(123,123,123)" stroke="none" d="M 17854,15130 L 17854,14232 18577,13814 18577,14893 16613,16030 16613,15130 17854,15130 Z M 17832,15108 L 16613,15108 16613,14950 17832,14245 17832,15108 Z"/>
     <path fill="rgb(124,124,124)" stroke="none" d="M 17832,15108 L 17832,14245 18577,13814 18577,14893 16613,16030 16613,15108 17832,15108 Z M 17810,15086 L 16613,15086 16613,14950 17810,14258 17810,15086 Z"/>
     <path fill="rgb(125,125,125)" stroke="none" d="M 17810,15086 L 17810,14258 18577,13814 18577,14893 16613,16030 16613,15086 17810,15086 Z M 17788,15064 L 16615,15064 16615,14949 17788,14270 17788,15064 Z"/>
     <path fill="rgb(126,126,126)" stroke="none" d="M 16615,15064 L 17788,15064 17788,14270 18577,13814 18577,14893 16613,16030 16613,14950 16615,14949 16615,15064 Z M 17767,15043 L 16636,15043 16636,14937 17767,14283 17767,15043 Z"/>
     <path fill="rgb(127,127,127)" stroke="none" d="M 16636,15043 L 17767,15043 17767,14283 18577,13814 18577,14893 16613,16030 16613,14950 16636,14937 16636,15043 Z M 17745,15021 L 16658,15021 16658,14924 17745,14295 17745,15021 Z"/>
     <path fill="rgb(128,128,128)" stroke="none" d="M 16658,15021 L 17745,15021 17745,14295 18577,13814 18577,14893 16613,16030 16613,14950 16658,14924 16658,15021 Z M 17723,14999 L 16680,14999 16680,14911 17723,14308 17723,14999 Z"/>
     <path fill="rgb(129,129,129)" stroke="none" d="M 16680,14999 L 17723,14999 17723,14308 18577,13814 18577,14893 16613,16030 16613,14950 16680,14911 16680,14999 Z M 17701,14977 L 16702,14977 16702,14899 17701,14321 17701,14977 Z"/>
     <path fill="rgb(130,130,130)" stroke="none" d="M 16702,14977 L 17701,14977 17701,14321 18577,13814 18577,14893 16613,16030 16613,14950 16702,14899 16702,14977 Z M 17680,14956 L 16723,14956 16723,14886 17680,14333 17680,14956 Z"/>
     <path fill="rgb(131,131,131)" stroke="none" d="M 16723,14956 L 17680,14956 17680,14333 18577,13814 18577,14893 16613,16030 16613,14950 16723,14886 16723,14956 Z M 17658,14934 L 16745,14934 16745,14874 17658,14346 17658,14934 Z"/>
     <path fill="rgb(132,132,132)" stroke="none" d="M 16745,14934 L 17658,14934 17658,14346 18577,13814 18577,14893 16613,16030 16613,14950 16745,14874 16745,14934 Z M 17636,14912 L 16767,14912 16767,14861 17636,14358 17636,14912 Z"/>
     <path fill="rgb(133,133,133)" stroke="none" d="M 16767,14912 L 17636,14912 17636,14358 18577,13814 18577,14893 16613,16030 16613,14950 16767,14861 16767,14912 Z M 17614,14890 L 16789,14890 16789,14848 17614,14371 17614,14890 Z"/>
     <path fill="rgb(134,134,134)" stroke="none" d="M 16789,14890 L 17614,14890 17614,14371 18577,13814 18577,14893 16613,16030 16613,14950 16789,14848 16789,14890 Z M 17593,14869 L 16810,14869 16810,14836 17593,14383 17593,14869 Z"/>
     <path fill="rgb(135,135,135)" stroke="none" d="M 16810,14869 L 17593,14869 17593,14383 18577,13814 18577,14893 16613,16030 16613,14950 16810,14836 16810,14869 Z M 17571,14847 L 16832,14847 16832,14823 17571,14396 17571,14847 Z"/>
     <path fill="rgb(136,136,136)" stroke="none" d="M 16832,14847 L 17571,14847 17571,14396 18577,13814 18577,14893 16613,16030 16613,14950 16832,14823 16832,14847 Z M 17549,14825 L 16854,14825 16854,14811 17549,14409 17549,14825 Z"/>
     <path fill="rgb(137,137,137)" stroke="none" d="M 16854,14825 L 17549,14825 17549,14409 18577,13814 18577,14893 16613,16030 16613,14950 16854,14811 16854,14825 Z M 17527,14803 L 16876,14803 16876,14798 17527,14421 17527,14803 Z"/>
     <path fill="rgb(138,138,138)" stroke="none" d="M 16876,14803 L 17527,14803 17527,14421 18577,13814 18577,14893 16613,16030 16613,14950 16876,14798 16876,14803 Z M 17506,14782 L 16903,14782 17506,14433 17506,14782 Z"/>
     <path fill="rgb(139,139,139)" stroke="none" d="M 17506,14782 L 17506,14433 18577,13814 18577,14893 16613,16030 16613,14950 16903,14782 17506,14782 Z M 17484,14760 L 16941,14760 17484,14446 17484,14760 Z"/>
     <path fill="rgb(140,140,140)" stroke="none" d="M 17484,14760 L 17484,14446 18577,13814 18577,14893 16613,16030 16613,14950 16941,14760 17484,14760 Z M 17462,14738 L 16980,14738 17462,14459 17462,14738 Z"/>
     <path fill="rgb(141,141,141)" stroke="none" d="M 17462,14738 L 17462,14459 18577,13814 18577,14893 16613,16030 16613,14950 16980,14738 17462,14738 Z M 17440,14716 L 17018,14716 17440,14472 17440,14716 Z"/>
     <path fill="rgb(142,142,142)" stroke="none" d="M 17440,14716 L 17440,14472 18577,13814 18577,14893 16613,16030 16613,14950 17018,14716 17440,14716 Z M 17419,14695 L 17054,14695 17419,14484 17419,14695 Z"/>
     <path fill="rgb(143,143,143)" stroke="none" d="M 17419,14695 L 17419,14484 18577,13814 18577,14893 16613,16030 16613,14950 17054,14695 17419,14695 Z M 17397,14673 L 17092,14673 17397,14497 17397,14673 Z"/>
     <path fill="rgb(144,144,144)" stroke="none" d="M 17397,14673 L 17397,14497 18577,13814 18577,14893 16613,16030 16613,14950 17092,14673 17397,14673 Z M 17375,14651 L 17130,14651 17375,14509 17375,14651 Z"/>
     <path fill="rgb(145,145,145)" stroke="none" d="M 17375,14651 L 17375,14509 18577,13814 18577,14893 16613,16030 16613,14950 17130,14651 17375,14651 Z M 17353,14629 L 17168,14629 17353,14522 17353,14629 Z"/>
     <path fill="rgb(146,146,146)" stroke="none" d="M 17353,14629 L 17353,14522 18577,13814 18577,14893 16613,16030 16613,14950 17168,14629 17353,14629 Z M 17332,14608 L 17204,14608 17332,14534 17332,14608 Z"/>
     <path fill="rgb(147,147,147)" stroke="none" d="M 17332,14608 L 17332,14534 18577,13814 18577,14893 16613,16030 16613,14950 17204,14608 17332,14608 Z M 17310,14586 L 17242,14586 17310,14547 17310,14586 Z"/>
     <path fill="rgb(148,148,148)" stroke="none" d="M 17310,14586 L 17310,14547 18577,13814 18577,14893 16613,16030 16613,14950 17242,14586 17310,14586 Z M 17288,14564 L 17280,14564 17288,14560 17288,14564 Z"/>
     <path fill="rgb(149,149,149)" stroke="none" d="M 17288,14564 L 17288,14560 18577,13814 18577,14893 16613,16030 16613,14950 17280,14564 17288,14564 Z"/>
     <path fill="rgb(150,150,150)" stroke="none" d="M 18577,14893 L 16613,16030 16613,14950 18577,13814 18577,14893 Z"/>
     <path fill="rgb(151,151,151)" stroke="none" d="M 18577,14893 L 16613,16030 16613,14950 18577,13814 18577,14893 Z"/>
     <path fill="rgb(153,153,153)" stroke="none" d="M 18577,14893 L 16613,16030 16613,14950 18577,13814 18577,14893 Z"/>
     <path fill="none" stroke="rgb(178,178,178)" id="Drawing_5_0" stroke-width="40" stroke-linejoin="round" d="M 18577,14893 L 18577,13814 16613,14950 16613,16030 18577,14893 Z"/>
    </g>
    <g>
     <defs>
      <linearGradient id="Gradient_206" gradientUnits="userSpaceOnUse" x1="18579" y1="13705" x2="14941" y2="13699">
       <stop offset="0.1" stop-color="rgb(102,102,102)"/>
       <stop offset="1" stop-color="rgb(153,153,153)"/>
      </linearGradient>
     </defs>
     <path fill="url(#Gradient_206)" stroke="rgb(178,178,178)" id="Drawing_6_0" stroke-width="40" stroke-linejoin="round" d="M 16613,14952 L 18577,13816 16908,12452 14943,13588 16613,14952 Z"/>
    </g>
    <g>
     <path fill="rgb(178,178,178)" stroke="none" d="M 17495,14042 L 17397,13929 17299,13986 17397,14099 17495,14042 Z"/>
     <path fill="none" stroke="rgb(51,51,51)" id="Drawing_7_0" stroke-width="40" stroke-linejoin="round" d="M 17495,14042 L 17397,13929 17299,13986 17397,14099 17495,14042 Z"/>
    </g>
    <g>
     <defs>
      <linearGradient id="Gradient_207" gradientUnits="userSpaceOnUse" x1="15729" y1="13387" x2="16909" y2="13389">
       <stop offset="0.1" stop-color="rgb(147,212,240)"/>
       <stop offset="1" stop-color="rgb(233,246,252)"/>
      </linearGradient>
     </defs>
     <path fill="url(#Gradient_207)" stroke="rgb(51,51,51)" id="Drawing_8_0" stroke-width="40" stroke-linejoin="round" d="M 16908,13189 L 16712,13019 15730,13587 15926,13758 16908,13189 Z"/>
    </g>
    <g>
     <path fill="rgb(178,178,178)" stroke="none" d="M 17298,13871 L 17200,13758 17102,13815 17200,13928 17298,13871 Z"/>
     <path fill="none" stroke="rgb(51,51,51)" id="Drawing_9_0" stroke-width="40" stroke-linejoin="round" d="M 17298,13871 L 17200,13758 17102,13815 17200,13928 17298,13871 Z"/>
    </g>
    <g>
     <path fill="rgb(178,178,178)" stroke="none" d="M 17102,13700 L 17004,13587 16906,13644 17004,13757 17102,13700 Z"/>
     <path fill="none" stroke="rgb(51,51,51)" id="Drawing_10_0" stroke-width="40" stroke-linejoin="round" d="M 17102,13700 L 17004,13587 16906,13644 17004,13757 17102,13700 Z"/>
    </g>
    <g>
     <path fill="rgb(178,178,178)" stroke="none" d="M 16906,13530 L 16808,13417 16710,13474 16808,13587 16906,13530 Z"/>
     <path fill="none" stroke="rgb(51,51,51)" id="Drawing_11_0" stroke-width="40" stroke-linejoin="round" d="M 16906,13530 L 16808,13417 16710,13474 16808,13587 16906,13530 Z"/>
    </g>
    <g>
     <path fill="rgb(178,178,178)" stroke="none" d="M 17298,14155 L 17200,14042 17102,14099 17200,14212 17298,14155 Z"/>
     <path fill="none" stroke="rgb(51,51,51)" id="Drawing_12_0" stroke-width="40" stroke-linejoin="round" d="M 17298,14155 L 17200,14042 17102,14099 17200,14212 17298,14155 Z"/>
    </g>
    <g>
     <path fill="rgb(178,178,178)" stroke="none" d="M 17103,13984 L 17005,13871 16907,13928 17005,14041 17103,13984 Z"/>
     <path fill="none" stroke="rgb(51,51,51)" id="Drawing_13_0" stroke-width="40" stroke-linejoin="round" d="M 17103,13984 L 17005,13871 16907,13928 17005,14041 17103,13984 Z"/>
    </g>
    <g>
     <path fill="rgb(178,178,178)" stroke="none" d="M 16906,13814 L 16808,13701 16710,13758 16808,13871 16906,13814 Z"/>
     <path fill="none" stroke="rgb(51,51,51)" id="Drawing_14_0" stroke-width="40" stroke-linejoin="round" d="M 16906,13814 L 16808,13701 16710,13758 16808,13871 16906,13814 Z"/>
    </g>
    <g>
     <path fill="rgb(178,178,178)" stroke="none" d="M 16711,13644 L 16613,13531 16515,13588 16613,13701 16711,13644 Z"/>
     <path fill="none" stroke="rgb(51,51,51)" id="Drawing_15_0" stroke-width="40" stroke-linejoin="round" d="M 16711,13644 L 16613,13531 16515,13588 16613,13701 16711,13644 Z"/>
    </g>
    <g>
     <path fill="rgb(57,181,74)" stroke="none" d="M 17103,14269 L 17005,14156 16907,14213 17005,14326 17103,14269 Z"/>
     <path fill="none" stroke="rgb(51,51,51)" id="Drawing_16_0" stroke-width="40" stroke-linejoin="round" d="M 17103,14269 L 17005,14156 16907,14213 17005,14326 17103,14269 Z"/>
    </g>
    <g>
     <path fill="rgb(222,142,150)" stroke="none" d="M 16906,14099 L 16808,13986 16710,14043 16808,14156 16906,14099 Z"/>
     <path fill="none" stroke="rgb(51,51,51)" id="Drawing_17_0" stroke-width="40" stroke-linejoin="round" d="M 16906,14099 L 16808,13986 16710,14043 16808,14156 16906,14099 Z"/>
    </g>
    <g>
     <path fill="rgb(0,0,0)" stroke="none" d="M 16710,13927 L 16612,13814 16514,13871 16612,13984 16710,13927 Z"/>
     <path fill="none" stroke="rgb(51,51,51)" id="Drawing_18_0" stroke-width="40" stroke-linejoin="round" d="M 16710,13927 L 16612,13814 16514,13871 16612,13984 16710,13927 Z"/>
    </g>
    <g>
     <path fill="rgb(178,178,178)" stroke="none" d="M 16514,13757 L 16416,13644 16318,13701 16416,13814 16514,13757 Z"/>
     <path fill="none" stroke="rgb(51,51,51)" id="Drawing_19_0" stroke-width="40" stroke-linejoin="round" d="M 16514,13757 L 16416,13644 16318,13701 16416,13814 16514,13757 Z"/>
    </g>
    <g>
     <path fill="none" stroke="rgb(178,178,178)" id="Drawing_20_0" stroke-width="40" stroke-linejoin="round" d="M 18381,14553 L 18381,14440"/>
    </g>
    <g>
     <path fill="none" stroke="rgb(178,178,178)" id="Drawing_21_0" stroke-width="40" stroke-linejoin="round" d="M 18381,14553 L 16810,15462"/>
    </g>
    <g>
     <path fill="none" stroke="rgb(51,51,51)" id="Drawing_22_0" stroke-width="40" stroke-linejoin="round" d="M 18381,14440 L 16810,15349"/>
    </g>
    <g>
     <path fill="none" stroke="rgb(51,51,51)" id="Drawing_23_0" stroke-width="40" stroke-linejoin="round" d="M 16809,15462 L 16809,15349"/>
    </g>
    <g>
     <path fill="rgb(102,102,102)" stroke="none" d="M 18675,13866 L 18675,13644 19068,13417 19068,13757 18880,13866 18675,13866 Z"/>
     <path fill="rgb(103,103,103)" stroke="none" d="M 18880,13866 L 18675,13985 18675,13866 18880,13866 Z M 19065,13759 L 18890,13860 18675,13860 18675,13644 19065,13419 19065,13759 Z"/>
     <path fill="rgb(104,104,104)" stroke="none" d="M 18890,13860 L 18675,13985 18675,13860 18890,13860 Z M 19065,13419 L 19068,13417 19068,13757 19065,13759 19065,13419 Z M 19060,13762 L 18899,13855 18675,13855 18675,13644 19060,13422 19060,13762 Z"/>
     <path fill="rgb(105,105,105)" stroke="none" d="M 18899,13855 L 18675,13985 18675,13855 18899,13855 Z M 19060,13422 L 19068,13417 19068,13757 19060,13762 19060,13422 Z M 19054,13765 L 18909,13849 18675,13849 18675,13644 19054,13425 19054,13765 Z"/>
     <path fill="rgb(106,106,106)" stroke="none" d="M 18909,13849 L 18675,13985 18675,13849 18909,13849 Z M 19054,13425 L 19068,13417 19068,13757 19054,13765 19054,13425 Z M 19049,13768 L 18918,13844 18675,13844 18675,13644 19049,13428 19049,13768 Z"/>
     <path fill="rgb(107,107,107)" stroke="none" d="M 18918,13844 L 18675,13985 18675,13844 18918,13844 Z M 19049,13428 L 19068,13417 19068,13757 19049,13768 19049,13428 Z M 19043,13772 L 18928,13838 18675,13838 18675,13644 19043,13431 19043,13772 Z"/>
     <path fill="rgb(108,108,108)" stroke="none" d="M 18928,13838 L 18675,13985 18675,13838 18928,13838 Z M 19043,13431 L 19068,13417 19068,13757 19043,13772 19043,13431 Z M 19037,13775 L 18939,13832 18675,13832 18675,13644 19037,13435 19037,13775 Z"/>
     <path fill="rgb(109,109,109)" stroke="none" d="M 18939,13832 L 18675,13985 18675,13832 18939,13832 Z M 19037,13435 L 19068,13417 19068,13757 19037,13775 19037,13435 Z M 19032,13778 L 18947,13827 18675,13827 18675,13644 19032,13438 19032,13778 Z"/>
     <path fill="rgb(110,110,110)" stroke="none" d="M 18947,13827 L 18675,13985 18675,13827 18947,13827 Z M 19032,13438 L 19068,13417 19068,13757 19032,13778 19032,13438 Z M 19026,13781 L 18958,13821 18675,13821 18675,13644 19026,13441 19026,13781 Z"/>
     <path fill="rgb(111,111,111)" stroke="none" d="M 18958,13821 L 18675,13985 18675,13821 18958,13821 Z M 19026,13441 L 19068,13417 19068,13757 19026,13781 19026,13441 Z M 19021,13784 L 18966,13816 18675,13816 18675,13644 19021,13444 19021,13784 Z"/>
     <path fill="rgb(112,112,112)" stroke="none" d="M 18966,13816 L 18675,13985 18675,13816 18966,13816 Z M 19021,13444 L 19068,13417 19068,13757 19021,13784 19021,13444 Z M 19015,13788 L 18977,13810 18675,13810 18675,13644 19015,13448 19015,13788 Z"/>
     <path fill="rgb(113,113,113)" stroke="none" d="M 18977,13810 L 18675,13985 18675,13810 18977,13810 Z M 19015,13448 L 19068,13417 19068,13757 19015,13788 19015,13448 Z M 19009,13791 L 18987,13804 18675,13804 18675,13644 19009,13451 19009,13791 Z"/>
     <path fill="rgb(114,114,114)" stroke="none" d="M 18987,13804 L 18675,13985 18675,13804 18987,13804 Z M 19009,13451 L 19068,13417 19068,13757 19009,13791 19009,13451 Z M 19004,13794 L 18996,13799 18675,13799 18675,13644 19004,13454 19004,13794 Z"/>
     <path fill="rgb(115,115,115)" stroke="none" d="M 18996,13799 L 18675,13985 18675,13799 18996,13799 Z M 19004,13454 L 19068,13417 19068,13757 19004,13794 19004,13454 Z M 18998,13793 L 18675,13793 18675,13644 18998,13457 18998,13793 Z"/>
     <path fill="rgb(116,116,116)" stroke="none" d="M 18998,13793 L 18998,13457 19068,13417 19068,13757 18675,13985 18675,13793 18998,13793 Z M 18993,13788 L 18675,13788 18675,13644 18993,13460 18993,13788 Z"/>
     <path fill="rgb(117,117,117)" stroke="none" d="M 18993,13788 L 18993,13460 19068,13417 19068,13757 18675,13985 18675,13788 18993,13788 Z M 18987,13782 L 18675,13782 18675,13644 18987,13464 18987,13782 Z"/>
     <path fill="rgb(118,118,118)" stroke="none" d="M 18987,13782 L 18987,13464 19068,13417 19068,13757 18675,13985 18675,13782 18987,13782 Z M 18981,13776 L 18675,13776 18675,13644 18981,13467 18981,13776 Z"/>
     <path fill="rgb(119,119,119)" stroke="none" d="M 18981,13776 L 18981,13467 19068,13417 19068,13757 18675,13985 18675,13776 18981,13776 Z M 18976,13771 L 18675,13771 18675,13644 18976,13470 18976,13771 Z"/>
     <path fill="rgb(120,120,120)" stroke="none" d="M 18976,13771 L 18976,13470 19068,13417 19068,13757 18675,13985 18675,13771 18976,13771 Z M 18970,13765 L 18675,13765 18675,13644 18970,13474 18970,13765 Z"/>
     <path fill="rgb(121,121,121)" stroke="none" d="M 18970,13765 L 18970,13474 19068,13417 19068,13757 18675,13985 18675,13765 18970,13765 Z M 18965,13760 L 18675,13760 18675,13644 18965,13476 18965,13760 Z"/>
     <path fill="rgb(122,122,122)" stroke="none" d="M 18965,13760 L 18965,13476 19068,13417 19068,13757 18675,13985 18675,13760 18965,13760 Z M 18959,13754 L 18675,13754 18675,13644 18959,13480 18959,13754 Z"/>
     <path fill="rgb(123,123,123)" stroke="none" d="M 18959,13754 L 18959,13480 19068,13417 19068,13757 18675,13985 18675,13754 18959,13754 Z M 18953,13748 L 18675,13748 18675,13644 18953,13483 18953,13748 Z"/>
     <path fill="rgb(124,124,124)" stroke="none" d="M 18953,13748 L 18953,13483 19068,13417 19068,13757 18675,13985 18675,13748 18953,13748 Z M 18948,13743 L 18675,13743 18675,13644 18948,13486 18948,13743 Z"/>
     <path fill="rgb(125,125,125)" stroke="none" d="M 18948,13743 L 18948,13486 19068,13417 19068,13757 18675,13985 18675,13743 18948,13743 Z M 18942,13737 L 18675,13737 18675,13644 18942,13490 18942,13737 Z"/>
     <path fill="rgb(126,126,126)" stroke="none" d="M 18942,13737 L 18942,13490 19068,13417 19068,13757 18675,13985 18675,13737 18942,13737 Z M 18937,13732 L 18675,13732 18675,13644 18937,13493 18937,13732 Z"/>
     <path fill="rgb(127,127,127)" stroke="none" d="M 18937,13732 L 18937,13493 19068,13417 19068,13757 18675,13985 18675,13732 18937,13732 Z M 18931,13726 L 18675,13726 18675,13644 18931,13496 18931,13726 Z"/>
     <path fill="rgb(128,128,128)" stroke="none" d="M 18931,13726 L 18931,13496 19068,13417 19068,13757 18675,13985 18675,13726 18931,13726 Z M 18925,13720 L 18675,13720 18675,13644 18925,13500 18925,13720 Z"/>
     <path fill="rgb(129,129,129)" stroke="none" d="M 18925,13720 L 18925,13500 19068,13417 19068,13757 18675,13985 18675,13720 18925,13720 Z M 18920,13715 L 18675,13715 18675,13644 18920,13502 18920,13715 Z"/>
     <path fill="rgb(130,130,130)" stroke="none" d="M 18920,13715 L 18920,13502 19068,13417 19068,13757 18675,13985 18675,13715 18920,13715 Z M 18914,13709 L 18675,13709 18675,13644 18914,13506 18914,13709 Z"/>
     <path fill="rgb(131,131,131)" stroke="none" d="M 18914,13709 L 18914,13506 19068,13417 19068,13757 18675,13985 18675,13709 18914,13709 Z M 18909,13704 L 18675,13704 18675,13644 18909,13509 18909,13704 Z"/>
     <path fill="rgb(132,132,132)" stroke="none" d="M 18909,13704 L 18909,13509 19068,13417 19068,13757 18675,13985 18675,13704 18909,13704 Z M 18903,13698 L 18680,13698 18680,13641 18903,13512 18903,13698 Z"/>
     <path fill="rgb(133,133,133)" stroke="none" d="M 18680,13698 L 18903,13698 18903,13512 19068,13417 19068,13757 18675,13985 18675,13644 18680,13641 18680,13698 Z M 18897,13692 L 18686,13692 18686,13638 18897,13516 18897,13692 Z"/>
     <path fill="rgb(134,134,134)" stroke="none" d="M 18686,13692 L 18897,13692 18897,13516 19068,13417 19068,13757 18675,13985 18675,13644 18686,13638 18686,13692 Z M 18892,13687 L 18691,13687 18691,13635 18892,13519 18892,13687 Z"/>
     <path fill="rgb(135,135,135)" stroke="none" d="M 18691,13687 L 18892,13687 18892,13519 19068,13417 19068,13757 18675,13985 18675,13644 18691,13635 18691,13687 Z M 18886,13681 L 18697,13681 18697,13631 18886,13522 18886,13681 Z"/>
     <path fill="rgb(136,136,136)" stroke="none" d="M 18697,13681 L 18886,13681 18886,13522 19068,13417 19068,13757 18675,13985 18675,13644 18697,13631 18697,13681 Z M 18881,13676 L 18702,13676 18702,13628 18881,13525 18881,13676 Z"/>
     <path fill="rgb(137,137,137)" stroke="none" d="M 18702,13676 L 18881,13676 18881,13525 19068,13417 19068,13757 18675,13985 18675,13644 18702,13628 18702,13676 Z M 18875,13670 L 18708,13670 18708,13625 18875,13528 18875,13670 Z"/>
     <path fill="rgb(138,138,138)" stroke="none" d="M 18708,13670 L 18875,13670 18875,13528 19068,13417 19068,13757 18675,13985 18675,13644 18708,13625 18708,13670 Z M 18869,13664 L 18714,13664 18714,13621 18869,13532 18869,13664 Z"/>
     <path fill="rgb(139,139,139)" stroke="none" d="M 18714,13664 L 18869,13664 18869,13532 19068,13417 19068,13757 18675,13985 18675,13644 18714,13621 18714,13664 Z M 18864,13659 L 18719,13659 18719,13619 18864,13535 18864,13659 Z"/>
     <path fill="rgb(140,140,140)" stroke="none" d="M 18719,13659 L 18864,13659 18864,13535 19068,13417 19068,13757 18675,13985 18675,13644 18719,13619 18719,13659 Z M 18858,13653 L 18725,13653 18725,13615 18858,13538 18858,13653 Z"/>
     <path fill="rgb(141,141,141)" stroke="none" d="M 18725,13653 L 18858,13653 18858,13538 19068,13417 19068,13757 18675,13985 18675,13644 18725,13615 18725,13653 Z M 18853,13648 L 18730,13648 18730,13612 18853,13541 18853,13648 Z"/>
     <path fill="rgb(142,142,142)" stroke="none" d="M 18730,13648 L 18853,13648 18853,13541 19068,13417 19068,13757 18675,13985 18675,13644 18730,13612 18730,13648 Z M 18847,13642 L 18736,13642 18736,13609 18847,13545 18847,13642 Z"/>
     <path fill="rgb(143,143,143)" stroke="none" d="M 18736,13642 L 18847,13642 18847,13545 19068,13417 19068,13757 18675,13985 18675,13644 18736,13609 18736,13642 Z M 18841,13636 L 18742,13636 18742,13605 18841,13548 18841,13636 Z"/>
     <path fill="rgb(144,144,144)" stroke="none" d="M 18742,13636 L 18841,13636 18841,13548 19068,13417 19068,13757 18675,13985 18675,13644 18742,13605 18742,13636 Z M 18836,13631 L 18747,13631 18747,13602 18836,13551 18836,13631 Z"/>
     <path fill="rgb(145,145,145)" stroke="none" d="M 18747,13631 L 18836,13631 18836,13551 19068,13417 19068,13757 18675,13985 18675,13644 18747,13602 18747,13631 Z M 18830,13625 L 18753,13625 18753,13599 18830,13554 18830,13625 Z"/>
     <path fill="rgb(146,146,146)" stroke="none" d="M 18753,13625 L 18830,13625 18830,13554 19068,13417 19068,13757 18675,13985 18675,13644 18753,13599 18753,13625 Z M 18825,13620 L 18758,13620 18758,13596 18825,13557 18825,13620 Z"/>
     <path fill="rgb(147,147,147)" stroke="none" d="M 18758,13620 L 18825,13620 18825,13557 19068,13417 19068,13757 18675,13985 18675,13644 18758,13596 18758,13620 Z M 18819,13614 L 18764,13614 18764,13593 18819,13561 18819,13614 Z"/>
     <path fill="rgb(148,148,148)" stroke="none" d="M 18764,13614 L 18819,13614 18819,13561 19068,13417 19068,13757 18675,13985 18675,13644 18764,13593 18764,13614 Z M 18813,13565 L 18813,13608 18770,13608 18770,13589 18812,13565 18813,13565 Z"/>
     <path fill="rgb(149,149,149)" stroke="none" d="M 18770,13608 L 18813,13608 18813,13565 18812,13565 19068,13417 19068,13757 18675,13985 18675,13644 18770,13589 18770,13608 Z M 18808,13570 L 18808,13603 18775,13603 18775,13586 18803,13570 18808,13570 Z"/>
     <path fill="rgb(150,150,150)" stroke="none" d="M 18775,13603 L 18808,13603 18808,13570 18803,13570 19068,13417 19068,13757 18675,13985 18675,13644 18775,13586 18775,13603 Z M 18802,13576 L 18802,13597 18781,13597 18781,13583 18793,13576 18802,13576 Z"/>
     <path fill="rgb(151,151,151)" stroke="none" d="M 18781,13597 L 18802,13597 18802,13576 18793,13576 19068,13417 19068,13757 18675,13985 18675,13644 18781,13583 18781,13597 Z M 18786,13581 L 18797,13581 18797,13592 18786,13592 18786,13581 Z"/>
     <path fill="rgb(153,153,153)" stroke="none" d="M 18786,13581 L 18786,13592 18797,13592 18797,13581 18786,13581 Z M 19068,13757 L 18675,13985 18675,13644 19068,13417 19068,13757 Z"/>
     <path fill="none" stroke="rgb(178,178,178)" id="Drawing_24_0" stroke-width="40" stroke-linejoin="round" d="M 19068,13757 L 19068,13417 18675,13644 18675,13985 19068,13757 Z"/>
    </g>
    <g>
     <defs>
      <linearGradient id="Gradient_208" gradientUnits="userSpaceOnUse" x1="19068" y1="13134" x2="17691" y2="13132">
       <stop offset="0.1" stop-color="rgb(102,102,102)"/>
       <stop offset="1" stop-color="rgb(153,153,153)"/>
      </linearGradient>
     </defs>
     <path fill="url(#Gradient_208)" stroke="rgb(178,178,178)" id="Drawing_25_0" stroke-width="40" stroke-linejoin="round" d="M 18675,13644 L 19068,13417 18086,12622 17693,12849 18675,13644 Z"/>
    </g>
    <g>
     <defs>
      <linearGradient id="Gradient_209" gradientUnits="userSpaceOnUse" x1="17644" y1="12338" x2="17644" y2="12850">
       <stop offset="0.1" stop-color="rgb(51,51,51)"/>
       <stop offset="1" stop-color="rgb(153,153,153)"/>
      </linearGradient>
     </defs>
     <path fill="url(#Gradient_209)" stroke="rgb(178,178,178)" id="Drawing_26_0" stroke-width="40" stroke-linejoin="round" d="M 17693,12850 L 18086,12622 17595,12338 17202,12565 17693,12850 Z"/>
    </g>
    <g>
     <path fill="none" stroke="rgb(178,178,178)" id="Drawing_27_0" stroke-width="40" stroke-linejoin="round" d="M 16318,12338 L 16220,12281"/>
    </g>
    <g>
     <path fill="none" stroke="rgb(51,51,51)" id="Drawing_28_0" stroke-width="40" stroke-linejoin="round" d="M 16318,12338 L 14747,13247"/>
    </g>
    <g>
     <path fill="none" stroke="rgb(178,178,178)" id="Drawing_29_0" stroke-width="40" stroke-linejoin="round" d="M 16220,12281 L 14649,13190"/>
    </g>
    <g>
     <path fill="none" stroke="rgb(51,51,51)" id="Drawing_30_0" stroke-width="40" stroke-linejoin="round" d="M 14746,13247 L 14648,13190"/>
    </g>
    <g>
     <path fill="none" stroke="rgb(0,0,0)" id="Drawing_31_0" stroke-width="40" stroke-linejoin="round" d="M 19068,13758 L 19068,13418 18086,12622 17595,12337 17202,12565 17202,12679 16908,12452 16121,11997 14157,13133 14157,14610 16613,16031 18577,14895 18577,14042 19068,13758 Z"/>
    </g>
    <g>
     <path fill="rgb(178,178,178)" stroke="none" d="M 17692,13927 L 17594,13814 17496,13871 17594,13984 17692,13927 Z"/>
     <path fill="none" stroke="rgb(51,51,51)" id="Drawing_32_0" stroke-width="40" stroke-linejoin="round" d="M 17692,13927 L 17594,13814 17496,13871 17594,13984 17692,13927 Z"/>
    </g>
    <g>
     <path fill="rgb(178,178,178)" stroke="none" d="M 17496,13757 L 17398,13644 17300,13701 17398,13814 17496,13757 Z"/>
     <path fill="none" stroke="rgb(51,51,51)" id="Drawing_33_0" stroke-width="40" stroke-linejoin="round" d="M 17496,13757 L 17398,13644 17300,13701 17398,13814 17496,13757 Z"/>
    </g>
    <g>
     <path fill="rgb(178,178,178)" stroke="none" d="M 17299,13587 L 17201,13474 17103,13531 17201,13644 17299,13587 Z"/>
     <path fill="none" stroke="rgb(51,51,51)" id="Drawing_34_0" stroke-width="40" stroke-linejoin="round" d="M 17299,13587 L 17201,13474 17103,13531 17201,13644 17299,13587 Z"/>
    </g>
    <g>
     <path fill="rgb(178,178,178)" stroke="none" d="M 17103,13417 L 17005,13304 16907,13361 17005,13474 17103,13417 Z"/>
     <path fill="none" stroke="rgb(51,51,51)" id="Drawing_35_0" stroke-width="40" stroke-linejoin="round" d="M 17103,13417 L 17005,13304 16907,13361 17005,13474 17103,13417 Z"/>
    </g>
    <g>
     <path fill="rgb(255,255,255)" stroke="none" d="M 14844,13133 C 15237,12906 15728,12622 16121,12395 15826,12110 15695,11031 15041,11031 14648,11258 14157,11543 13666,11826 14320,11826 14550,12622 14844,13133 Z"/>
     <path fill="none" stroke="rgb(0,0,0)" id="Drawing_36_0" stroke-width="40" stroke-linejoin="round" d="M 14844,13133 C 15237,12906 15728,12622 16121,12395 15826,12110 15695,11031 15041,11031 14648,11258 14157,11543 13666,11826 14320,11826 14550,12622 14844,13133 Z"/>
    </g>
   </g>
  </g>
 </g>
</svg>