<?xml version="1.0" encoding="UTF-8"?>

<svg version="1.2" baseProfile="tiny" width="33.13mm" height="28.43mm" viewBox="11876 10069 3313 2843" preserveAspectRatio="xMidYMid" fill-rule="evenodd" stroke-width="28.222" stroke-linejoin="round" xmlns="http://www.w3.org/2000/svg" xmlns:xlink="http://www.w3.org/1999/xlink" xml:space="preserve">
 <g visibility="visible" id="Slide_1">
  <g id="DrawingGroup_1">
   <g>
    <path fill="rgb(221,221,221)" stroke="none" d="M 13726,12892 C 14060,12892 14444,12892 14929,12542 15414,12192 14650,11982 14318,11982 14318,12192 13595,12122 13726,12892 Z"/>
    <path fill="none" stroke="rgb(221,221,221)" id="Drawing_1_0" stroke-width="40" stroke-linejoin="round" d="M 13726,12892 C 14060,12892 14444,12892 14929,12542 15414,12192 14650,11982 14318,11982 14318,12192 13595,12122 13726,12892 Z"/>
   </g>
   <g id="DrawingGroup_2">
    <g>
     <path fill="rgb(102,102,102)" stroke="none" d="M 13600,12495 L 13229,11210 13593,11000 14024,12495 13600,12495 Z"/>
     <path fill="rgb(103,103,103)" stroke="none" d="M 14024,12495 L 14078,12682 13714,12892 13600,12495 14024,12495 Z M 13594,12476 L 13229,11210 13593,11000 14019,12476 13594,12476 Z"/>
     <path fill="rgb(104,104,104)" stroke="none" d="M 14019,12476 L 14078,12682 13714,12892 13594,12476 14019,12476 Z M 13589,12458 L 13229,11210 13593,11000 14013,12458 13589,12458 Z"/>
     <path fill="rgb(105,105,105)" stroke="none" d="M 14013,12458 L 14078,12682 13714,12892 13589,12458 14013,12458 Z M 13583,12439 L 13229,11210 13593,11000 14008,12439 13583,12439 Z"/>
     <path fill="rgb(106,106,106)" stroke="none" d="M 14008,12439 L 14078,12682 13714,12892 13583,12439 14008,12439 Z M 13578,12421 L 13229,11210 13593,11000 14003,12421 13578,12421 Z"/>
     <path fill="rgb(107,107,107)" stroke="none" d="M 14003,12421 L 14078,12682 13714,12892 13578,12421 14003,12421 Z M 13573,12402 L 13229,11210 13593,11000 13997,12402 13573,12402 Z"/>
     <path fill="rgb(108,108,108)" stroke="none" d="M 13997,12402 L 14078,12682 13714,12892 13573,12402 13997,12402 Z M 13567,12383 L 13229,11210 13593,11000 13992,12383 13567,12383 Z"/>
     <path fill="rgb(109,109,109)" stroke="none" d="M 13992,12383 L 14078,12682 13714,12892 13567,12383 13992,12383 Z M 13562,12365 L 13229,11210 13593,11000 13987,12365 13562,12365 Z"/>
     <path fill="rgb(110,110,110)" stroke="none" d="M 13987,12365 L 14078,12682 13714,12892 13562,12365 13987,12365 Z M 13557,12346 L 13229,11210 13593,11000 13981,12346 13557,12346 Z"/>
     <path fill="rgb(111,111,111)" stroke="none" d="M 13981,12346 L 14078,12682 13714,12892 13557,12346 13981,12346 Z M 13551,12328 L 13229,11210 13593,11000 13976,12328 13551,12328 Z"/>
     <path fill="rgb(112,112,112)" stroke="none" d="M 13976,12328 L 14078,12682 13714,12892 13551,12328 13976,12328 Z M 13546,12309 L 13229,11210 13593,11000 13970,12309 13546,12309 Z"/>
     <path fill="rgb(113,113,113)" stroke="none" d="M 13970,12309 L 14078,12682 13714,12892 13546,12309 13970,12309 Z M 13541,12291 L 13229,11210 13593,11000 13965,12291 13541,12291 Z"/>
     <path fill="rgb(114,114,114)" stroke="none" d="M 13965,12291 L 14078,12682 13714,12892 13541,12291 13965,12291 Z M 13535,12272 L 13229,11210 13593,11000 13960,12272 13535,12272 Z"/>
     <path fill="rgb(115,115,115)" stroke="none" d="M 13960,12272 L 14078,12682 13714,12892 13535,12272 13960,12272 Z M 13530,12253 L 13229,11210 13593,11000 13954,12253 13530,12253 Z"/>
     <path fill="rgb(116,116,116)" stroke="none" d="M 13954,12253 L 14078,12682 13714,12892 13530,12253 13954,12253 Z M 13525,12235 L 13229,11210 13593,11000 13949,12235 13525,12235 Z"/>
     <path fill="rgb(117,117,117)" stroke="none" d="M 13949,12235 L 14078,12682 13714,12892 13525,12235 13949,12235 Z M 13519,12216 L 13229,11210 13593,11000 13944,12216 13519,12216 Z"/>
     <path fill="rgb(118,118,118)" stroke="none" d="M 13944,12216 L 14078,12682 13714,12892 13519,12216 13944,12216 Z M 13514,12198 L 13229,11210 13593,11000 13938,12198 13514,12198 Z"/>
     <path fill="rgb(119,119,119)" stroke="none" d="M 13938,12198 L 14078,12682 13714,12892 13514,12198 13938,12198 Z M 13508,12179 L 13229,11210 13593,11000 13933,12179 13508,12179 Z"/>
     <path fill="rgb(120,120,120)" stroke="none" d="M 13933,12179 L 14078,12682 13714,12892 13508,12179 13933,12179 Z M 13503,12161 L 13229,11210 13593,11000 13928,12161 13503,12161 Z"/>
     <path fill="rgb(121,121,121)" stroke="none" d="M 13928,12161 L 14078,12682 13714,12892 13503,12161 13928,12161 Z M 13498,12142 L 13229,11210 13593,11000 13922,12142 13498,12142 Z"/>
     <path fill="rgb(122,122,122)" stroke="none" d="M 13922,12142 L 14078,12682 13714,12892 13498,12142 13922,12142 Z M 13596,11010 L 13917,12123 13492,12123 13229,11210 13576,11010 13596,11010 Z"/>
     <path fill="rgb(123,123,123)" stroke="none" d="M 13917,12123 L 14078,12682 13714,12892 13492,12123 13917,12123 Z M 13576,11010 L 13593,11000 13596,11010 13576,11010 Z M 13601,11028 L 13912,12105 13487,12105 13229,11210 13544,11028 13601,11028 Z"/>
     <path fill="rgb(124,124,124)" stroke="none" d="M 13912,12105 L 14078,12682 13714,12892 13487,12105 13912,12105 Z M 13544,11028 L 13593,11000 13601,11028 13544,11028 Z M 13607,11047 L 13906,12086 13482,12086 13229,11210 13512,11047 13607,11047 Z"/>
     <path fill="rgb(125,125,125)" stroke="none" d="M 13906,12086 L 14078,12682 13714,12892 13482,12086 13906,12086 Z M 13512,11047 L 13593,11000 13607,11047 13512,11047 Z M 13612,11065 L 13901,12068 13476,12068 13229,11210 13480,11065 13612,11065 Z"/>
     <path fill="rgb(126,126,126)" stroke="none" d="M 13901,12068 L 14078,12682 13714,12892 13476,12068 13901,12068 Z M 13480,11065 L 13593,11000 13612,11065 13480,11065 Z M 13617,11084 L 13895,12049 13471,12049 13229,11210 13447,11084 13617,11084 Z"/>
     <path fill="rgb(127,127,127)" stroke="none" d="M 13895,12049 L 14078,12682 13714,12892 13471,12049 13895,12049 Z M 13447,11084 L 13593,11000 13617,11084 13447,11084 Z M 13623,11103 L 13890,12030 13465,12030 13229,11210 13414,11103 13623,11103 Z"/>
     <path fill="rgb(128,128,128)" stroke="none" d="M 13890,12030 L 14078,12682 13714,12892 13465,12030 13890,12030 Z M 13414,11103 L 13593,11000 13623,11103 13414,11103 Z M 13628,11121 L 13885,12012 13460,12012 13229,11210 13383,11121 13628,11121 Z"/>
     <path fill="rgb(129,129,129)" stroke="none" d="M 13885,12012 L 14078,12682 13714,12892 13460,12012 13885,12012 Z M 13383,11121 L 13593,11000 13628,11121 13383,11121 Z M 13633,11140 L 13879,11993 13455,11993 13229,11210 13350,11140 13633,11140 Z"/>
     <path fill="rgb(130,130,130)" stroke="none" d="M 13879,11993 L 14078,12682 13714,12892 13455,11993 13879,11993 Z M 13350,11140 L 13593,11000 13633,11140 13350,11140 Z M 13639,11158 L 13874,11975 13450,11975 13229,11210 13319,11158 13639,11158 Z"/>
     <path fill="rgb(131,131,131)" stroke="none" d="M 13874,11975 L 14078,12682 13714,12892 13450,11975 13874,11975 Z M 13319,11158 L 13593,11000 13639,11158 13319,11158 Z M 13644,11177 L 13869,11956 13444,11956 13229,11210 13286,11177 13644,11177 Z"/>
     <path fill="rgb(132,132,132)" stroke="none" d="M 13869,11956 L 14078,12682 13714,12892 13444,11956 13869,11956 Z M 13286,11177 L 13593,11000 13644,11177 13286,11177 Z M 13649,11195 L 13854,11905 13854,11938 13439,11938 13229,11210 13255,11195 13649,11195 Z"/>
     <path fill="rgb(133,133,133)" stroke="none" d="M 13854,11938 L 13854,11905 14078,12682 13714,12892 13439,11938 13854,11938 Z M 13255,11195 L 13593,11000 13649,11195 13255,11195 Z M 13655,11214 L 13835,11839 13835,11919 13433,11919 13230,11214 13655,11214 Z"/>
     <path fill="rgb(134,134,134)" stroke="none" d="M 13835,11919 L 13835,11839 14078,12682 13714,12892 13433,11919 13835,11919 Z M 13230,11214 L 13229,11210 13593,11000 13655,11214 13230,11214 Z M 13660,11233 L 13816,11773 13816,11900 13428,11900 13236,11233 13660,11233 Z"/>
     <path fill="rgb(135,135,135)" stroke="none" d="M 13816,11900 L 13816,11773 14078,12682 13714,12892 13428,11900 13816,11900 Z M 13236,11233 L 13229,11210 13593,11000 13660,11233 13236,11233 Z M 13665,11251 L 13798,11711 13798,11882 13423,11882 13241,11251 13665,11251 Z"/>
     <path fill="rgb(136,136,136)" stroke="none" d="M 13798,11882 L 13798,11711 14078,12682 13714,12892 13423,11882 13798,11882 Z M 13241,11251 L 13229,11210 13593,11000 13665,11251 13241,11251 Z M 13671,11270 L 13779,11645 13779,11863 13417,11863 13246,11270 13671,11270 Z"/>
     <path fill="rgb(137,137,137)" stroke="none" d="M 13779,11863 L 13779,11645 14078,12682 13714,12892 13417,11863 13779,11863 Z M 13246,11270 L 13229,11210 13593,11000 13671,11270 13246,11270 Z M 13676,11288 L 13761,11583 13761,11845 13412,11845 13251,11288 13676,11288 Z"/>
     <path fill="rgb(138,138,138)" stroke="none" d="M 13761,11845 L 13761,11583 14078,12682 13714,12892 13412,11845 13761,11845 Z M 13251,11288 L 13229,11210 13593,11000 13676,11288 13251,11288 Z M 13682,11307 L 13742,11517 13742,11826 13407,11826 13257,11307 13682,11307 Z"/>
     <path fill="rgb(139,139,139)" stroke="none" d="M 13742,11826 L 13742,11517 14078,12682 13714,12892 13407,11826 13742,11826 Z M 13257,11307 L 13229,11210 13593,11000 13682,11307 13257,11307 Z M 13687,11325 L 13724,11454 13724,11808 13401,11808 13262,11325 13687,11325 Z"/>
     <path fill="rgb(140,140,140)" stroke="none" d="M 13724,11808 L 13724,11454 14078,12682 13714,12892 13401,11808 13724,11808 Z M 13262,11325 L 13229,11210 13593,11000 13687,11325 13262,11325 Z M 13692,11344 L 13705,11388 13705,11789 13396,11789 13268,11344 13692,11344 Z"/>
     <path fill="rgb(141,141,141)" stroke="none" d="M 13705,11789 L 13705,11388 14078,12682 13714,12892 13396,11789 13705,11789 Z M 13268,11344 L 13229,11210 13593,11000 13692,11344 13268,11344 Z M 13279,11363 L 13686,11363 13686,11770 13390,11770 13279,11383 13279,11363 Z"/>
     <path fill="rgb(142,142,142)" stroke="none" d="M 13279,11363 L 13279,11383 13229,11210 13593,11000 14078,12682 13714,12892 13390,11770 13686,11770 13686,11363 13279,11363 Z M 13297,11381 L 13668,11381 13668,11752 13385,11752 13297,11446 13297,11381 Z"/>
     <path fill="rgb(143,143,143)" stroke="none" d="M 13297,11381 L 13297,11446 13229,11210 13593,11000 14078,12682 13714,12892 13385,11752 13668,11752 13668,11381 13297,11381 Z M 13316,11400 L 13649,11400 13649,11733 13380,11733 13316,11512 13316,11400 Z"/>
     <path fill="rgb(144,144,144)" stroke="none" d="M 13316,11400 L 13316,11512 13229,11210 13593,11000 14078,12682 13714,12892 13380,11733 13649,11733 13649,11400 13316,11400 Z M 13334,11418 L 13631,11418 13631,11715 13375,11715 13334,11574 13334,11418 Z"/>
     <path fill="rgb(145,145,145)" stroke="none" d="M 13334,11418 L 13334,11574 13229,11210 13593,11000 14078,12682 13714,12892 13375,11715 13631,11715 13631,11418 13334,11418 Z M 13353,11437 L 13612,11437 13612,11696 13369,11696 13353,11640 13353,11437 Z"/>
     <path fill="rgb(146,146,146)" stroke="none" d="M 13353,11437 L 13353,11640 13229,11210 13593,11000 14078,12682 13714,12892 13369,11696 13612,11696 13612,11437 13353,11437 Z M 13372,11456 L 13593,11456 13593,11677 13372,11677 13372,11456 Z"/>
     <path fill="rgb(147,147,147)" stroke="none" d="M 13372,11456 L 13372,11677 13593,11677 13593,11456 13372,11456 Z M 13390,11474 L 13575,11474 13575,11659 13390,11659 13390,11474 Z M 14078,12682 L 13714,12892 13229,11210 13593,11000 14078,12682 Z"/>
     <path fill="rgb(148,148,148)" stroke="none" d="M 13390,11474 L 13390,11659 13575,11659 13575,11474 13390,11474 Z M 13409,11493 L 13556,11493 13556,11640 13409,11640 13409,11493 Z M 14078,12682 L 13714,12892 13229,11210 13593,11000 14078,12682 Z"/>
     <path fill="rgb(149,149,149)" stroke="none" d="M 13409,11493 L 13409,11640 13556,11640 13556,11493 13409,11493 Z M 13427,11511 L 13538,11511 13538,11622 13427,11622 13427,11511 Z M 14078,12682 L 13714,12892 13229,11210 13593,11000 14078,12682 Z"/>
     <path fill="rgb(150,150,150)" stroke="none" d="M 13427,11511 L 13427,11622 13538,11622 13538,11511 13427,11511 Z M 13446,11530 L 13519,11530 13519,11603 13446,11603 13446,11530 Z M 14078,12682 L 13714,12892 13229,11210 13593,11000 14078,12682 Z"/>
     <path fill="rgb(151,151,151)" stroke="none" d="M 13446,11530 L 13446,11603 13519,11603 13519,11530 13446,11530 Z M 13464,11548 L 13501,11548 13501,11585 13464,11585 13464,11548 Z M 14078,12682 L 13714,12892 13229,11210 13593,11000 14078,12682 Z"/>
     <path fill="rgb(153,153,153)" stroke="none" d="M 13464,11548 L 13464,11585 13501,11585 13501,11548 13464,11548 Z M 14078,12682 L 13714,12892 13229,11210 13593,11000 14078,12682 Z"/>
     <path fill="none" stroke="rgb(178,178,178)" id="Drawing_2_0" stroke-width="40" stroke-linejoin="round" d="M 14078,12682 L 13593,11000 13229,11210 13714,12892 14078,12682 Z"/>
    </g>
    <g>
     <defs>
      <linearGradient id="Gradient_302" gradientUnits="userSpaceOnUse" x1="13715" y1="12122" x2="12985" y2="12120">
       <stop offset="0.1" stop-color="rgb(102,102,102)"/>
       <stop offset="1" stop-color="rgb(153,153,153)"/>
      </linearGradient>
     </defs>
     <path fill="url(#Gradient_302)" stroke="rgb(178,178,178)" id="Drawing_3_0" stroke-width="40" stroke-linejoin="round" d="M 13714,12892 L 13350,11561 12986,11351 13350,12682 13714,12892 Z"/>
    </g>
    <g>
     <defs>
      <linearGradient id="Gradient_303" gradientUnits="userSpaceOnUse" x1="13532" y1="10089" x2="13532" y2="11981">
       <stop offset="0.1" stop-color="rgb(51,51,51)"/>
       <stop offset="1" stop-color="rgb(153,153,153)"/>
      </linearGradient>
     </defs>
     <path fill="url(#Gradient_303)" stroke="rgb(178,178,178)" id="Drawing_4_0" stroke-width="40" stroke-linejoin="round" d="M 14199,11981 L 15169,11420 12866,10089 11896,10650 14199,11981 Z"/>
    </g>
    <g>
     <path fill="rgb(51,51,51)" stroke="none" d="M 14926,11351 L 13956,10790 13108,11281 14077,11841 14926,11351 Z"/>
     <path fill="none" stroke="rgb(178,178,178)" id="Drawing_5_0" stroke-width="40" stroke-linejoin="round" d="M 14926,11351 L 13956,10790 13108,11281 14077,11841 14926,11351 Z"/>
    </g>
    <g>
     <defs>
      <linearGradient id="Gradient_304" gradientUnits="userSpaceOnUse" x1="12256" y1="10753" x2="13835" y2="10755">
       <stop offset="0.1" stop-color="rgb(147,212,240)"/>
       <stop offset="1" stop-color="rgb(233,246,252)"/>
      </linearGradient>
     </defs>
     <path fill="url(#Gradient_304)" stroke="rgb(51,51,51)" id="Drawing_6_0" stroke-width="40" stroke-linejoin="round" d="M 13835,10719 L 13107,10299 12258,10790 12986,11210 13835,10719 Z"/>
    </g>
    <g>
     <defs>
      <linearGradient id="Gradient_305" gradientUnits="userSpaceOnUse" x1="11894" y1="11489" x2="14199" y2="11493">
       <stop offset="0.1" stop-color="rgb(102,102,102)"/>
       <stop offset="1" stop-color="rgb(153,153,153)"/>
      </linearGradient>
     </defs>
     <path fill="url(#Gradient_305)" stroke="rgb(178,178,178)" id="Drawing_7_0" stroke-width="40" stroke-linejoin="round" d="M 14199,12332 L 14199,11981 11896,10650 11896,11000 14199,12332 Z"/>
    </g>
    <g>
     <path fill="none" stroke="rgb(178,178,178)" id="Drawing_8_0" stroke-width="40" stroke-linejoin="round" d="M 14199,10931 L 13350,11422"/>
    </g>
    <g>
     <path fill="none" stroke="rgb(178,178,178)" id="Drawing_9_0" stroke-width="40" stroke-linejoin="round" d="M 14078,11701 L 13229,11210"/>
    </g>
    <g>
     <path fill="none" stroke="rgb(178,178,178)" id="Drawing_10_0" stroke-width="40" stroke-linejoin="round" d="M 14805,11421 L 13835,10860"/>
    </g>
    <g>
     <path fill="none" stroke="rgb(178,178,178)" id="Drawing_11_0" stroke-width="40" stroke-linejoin="round" d="M 14684,11492 L 13714,10931"/>
    </g>
    <g>
     <path fill="none" stroke="rgb(178,178,178)" id="Drawing_12_0" stroke-width="40" stroke-linejoin="round" d="M 14563,11561 L 13714,11070"/>
    </g>
    <g>
     <path fill="rgb(102,102,102)" stroke="none" d="M 14964,11889 L 14481,12168 14199,12168 14199,11981 14964,11539 14964,11889 Z"/>
     <path fill="rgb(103,103,103)" stroke="none" d="M 14481,12168 L 14199,12331 14199,12168 14481,12168 Z M 14964,11539 L 15169,11420 15169,11770 14964,11889 14964,11539 Z M 14954,11894 L 14498,12158 14199,12158 14199,11981 14954,11544 14954,11894 Z"/>
     <path fill="rgb(104,104,104)" stroke="none" d="M 14498,12158 L 14199,12331 14199,12158 14498,12158 Z M 14954,11544 L 15169,11420 15169,11770 14954,11894 14954,11544 Z M 14944,11900 L 14515,12148 14199,12148 14199,11981 14944,11550 14944,11900 Z"/>
     <path fill="rgb(105,105,105)" stroke="none" d="M 14515,12148 L 14199,12331 14199,12148 14515,12148 Z M 14944,11550 L 15169,11420 15169,11770 14944,11900 14944,11550 Z M 14934,11906 L 14533,12138 14199,12138 14199,11981 14934,11556 14934,11906 Z"/>
     <path fill="rgb(106,106,106)" stroke="none" d="M 14533,12138 L 14199,12331 14199,12138 14533,12138 Z M 14934,11556 L 15169,11420 15169,11770 14934,11906 14934,11556 Z M 14924,11912 L 14550,12128 14199,12128 14199,11981 14924,11562 14924,11912 Z"/>
     <path fill="rgb(107,107,107)" stroke="none" d="M 14550,12128 L 14199,12331 14199,12128 14550,12128 Z M 14924,11562 L 15169,11420 15169,11770 14924,11912 14924,11562 Z M 14914,11917 L 14567,12118 14199,12118 14199,11981 14914,11567 14914,11917 Z"/>
     <path fill="rgb(108,108,108)" stroke="none" d="M 14567,12118 L 14199,12331 14199,12118 14567,12118 Z M 14914,11567 L 15169,11420 15169,11770 14914,11917 14914,11567 Z M 14904,11923 L 14585,12108 14199,12108 14199,11981 14904,11573 14904,11923 Z"/>
     <path fill="rgb(109,109,109)" stroke="none" d="M 14585,12108 L 14199,12331 14199,12108 14585,12108 Z M 14904,11573 L 15169,11420 15169,11770 14904,11923 14904,11573 Z M 14893,11930 L 14604,12097 14199,12097 14199,11981 14893,11580 14893,11930 Z"/>
     <path fill="rgb(110,110,110)" stroke="none" d="M 14604,12097 L 14199,12331 14199,12097 14604,12097 Z M 14893,11580 L 15169,11420 15169,11770 14893,11930 14893,11580 Z M 14883,11935 L 14621,12087 14199,12087 14199,11981 14883,11585 14883,11935 Z"/>
     <path fill="rgb(111,111,111)" stroke="none" d="M 14621,12087 L 14199,12331 14199,12087 14621,12087 Z M 14883,11585 L 15169,11420 15169,11770 14883,11935 14883,11585 Z M 14873,11941 L 14638,12077 14199,12077 14199,11981 14873,11591 14873,11941 Z"/>
     <path fill="rgb(112,112,112)" stroke="none" d="M 14638,12077 L 14199,12331 14199,12077 14638,12077 Z M 14873,11591 L 15169,11420 15169,11770 14873,11941 14873,11591 Z M 14863,11947 L 14655,12067 14199,12067 14199,11981 14863,11597 14863,11947 Z"/>
     <path fill="rgb(113,113,113)" stroke="none" d="M 14655,12067 L 14199,12331 14199,12067 14655,12067 Z M 14863,11597 L 15169,11420 15169,11770 14863,11947 14863,11597 Z M 14853,11953 L 14673,12057 14199,12057 14199,11981 14853,11603 14853,11953 Z"/>
     <path fill="rgb(114,114,114)" stroke="none" d="M 14673,12057 L 14199,12331 14199,12057 14673,12057 Z M 14853,11603 L 15169,11420 15169,11770 14853,11953 14853,11603 Z M 14843,11959 L 14690,12047 14199,12047 14199,11981 14843,11609 14843,11959 Z"/>
     <path fill="rgb(115,115,115)" stroke="none" d="M 14690,12047 L 14199,12331 14199,12047 14690,12047 Z M 14843,11609 L 15169,11420 15169,11770 14843,11959 14843,11609 Z M 14833,11964 L 14707,12037 14199,12037 14199,11981 14833,11614 14833,11964 Z"/>
     <path fill="rgb(116,116,116)" stroke="none" d="M 14707,12037 L 14199,12331 14199,12037 14707,12037 Z M 14833,11614 L 15169,11420 15169,11770 14833,11964 14833,11614 Z M 14822,11971 L 14726,12026 14199,12026 14199,11981 14822,11621 14822,11971 Z"/>
     <path fill="rgb(117,117,117)" stroke="none" d="M 14726,12026 L 14199,12331 14199,12026 14726,12026 Z M 14822,11621 L 15169,11420 15169,11770 14822,11971 14822,11621 Z M 14812,11976 L 14744,12016 14199,12016 14199,11981 14812,11626 14812,11976 Z"/>
     <path fill="rgb(119,119,119)" stroke="none" d="M 14744,12016 L 14199,12331 14199,12016 14744,12016 Z M 14812,11626 L 15169,11420 15169,11770 14812,11976 14812,11626 Z M 14802,11982 L 14761,12006 14199,12006 14199,11981 14802,11632 14802,11982 Z"/>
     <path fill="rgb(120,120,120)" stroke="none" d="M 14761,12006 L 14199,12331 14199,12006 14761,12006 Z M 14802,11632 L 15169,11420 15169,11770 14802,11982 14802,11632 Z M 14792,11988 L 14778,11996 14199,11996 14199,11981 14792,11638 14792,11988 Z"/>
     <path fill="rgb(121,121,121)" stroke="none" d="M 14778,11996 L 14199,12331 14199,11996 14778,11996 Z M 14792,11638 L 15169,11420 15169,11770 14792,11988 14792,11638 Z M 14782,11986 L 14199,11986 14199,11981 14782,11644 14782,11986 Z"/>
     <path fill="rgb(122,122,122)" stroke="none" d="M 14782,11986 L 14782,11644 15169,11420 15169,11770 14199,12331 14199,11986 14782,11986 Z M 14772,11976 L 14208,11976 14772,11650 14772,11976 Z"/>
     <path fill="rgb(123,123,123)" stroke="none" d="M 14772,11976 L 14772,11650 15169,11420 15169,11770 14199,12331 14199,11981 14208,11976 14772,11976 Z M 14762,11966 L 14225,11966 14762,11655 14762,11966 Z"/>
     <path fill="rgb(124,124,124)" stroke="none" d="M 14762,11966 L 14762,11655 15169,11420 15169,11770 14199,12331 14199,11981 14225,11966 14762,11966 Z M 14752,11956 L 14242,11956 14752,11661 14752,11956 Z"/>
     <path fill="rgb(125,125,125)" stroke="none" d="M 14752,11956 L 14752,11661 15169,11420 15169,11770 14199,12331 14199,11981 14242,11956 14752,11956 Z M 14741,11945 L 14261,11945 14741,11668 14741,11945 Z"/>
     <path fill="rgb(126,126,126)" stroke="none" d="M 14741,11945 L 14741,11668 15169,11420 15169,11770 14199,12331 14199,11981 14261,11945 14741,11945 Z M 14731,11935 L 14279,11935 14731,11673 14731,11935 Z"/>
     <path fill="rgb(127,127,127)" stroke="none" d="M 14731,11935 L 14731,11673 15169,11420 15169,11770 14199,12331 14199,11981 14279,11935 14731,11935 Z M 14721,11925 L 14296,11925 14721,11679 14721,11925 Z"/>
     <path fill="rgb(128,128,128)" stroke="none" d="M 14721,11925 L 14721,11679 15169,11420 15169,11770 14199,12331 14199,11981 14296,11925 14721,11925 Z M 14711,11915 L 14313,11915 14711,11685 14711,11915 Z"/>
     <path fill="rgb(129,129,129)" stroke="none" d="M 14711,11915 L 14711,11685 15169,11420 15169,11770 14199,12331 14199,11981 14313,11915 14711,11915 Z M 14701,11905 L 14330,11905 14701,11691 14701,11905 Z"/>
     <path fill="rgb(130,130,130)" stroke="none" d="M 14701,11905 L 14701,11691 15169,11420 15169,11770 14199,12331 14199,11981 14330,11905 14701,11905 Z M 14691,11895 L 14348,11895 14691,11696 14691,11895 Z"/>
     <path fill="rgb(131,131,131)" stroke="none" d="M 14691,11895 L 14691,11696 15169,11420 15169,11770 14199,12331 14199,11981 14348,11895 14691,11895 Z M 14681,11885 L 14365,11885 14681,11702 14681,11885 Z"/>
     <path fill="rgb(132,132,132)" stroke="none" d="M 14681,11885 L 14681,11702 15169,11420 15169,11770 14199,12331 14199,11981 14365,11885 14681,11885 Z M 14670,11874 L 14384,11874 14670,11709 14670,11874 Z"/>
     <path fill="rgb(133,133,133)" stroke="none" d="M 14670,11874 L 14670,11709 15169,11420 15169,11770 14199,12331 14199,11981 14384,11874 14670,11874 Z M 14660,11864 L 14401,11864 14660,11714 14660,11864 Z"/>
     <path fill="rgb(134,134,134)" stroke="none" d="M 14660,11864 L 14660,11714 15169,11420 15169,11770 14199,12331 14199,11981 14401,11864 14660,11864 Z M 14650,11854 L 14419,11854 14650,11720 14650,11854 Z"/>
     <path fill="rgb(136,136,136)" stroke="none" d="M 14650,11854 L 14650,11720 15169,11420 15169,11770 14199,12331 14199,11981 14419,11854 14650,11854 Z M 14640,11844 L 14436,11844 14640,11726 14640,11844 Z"/>
     <path fill="rgb(137,137,137)" stroke="none" d="M 14640,11844 L 14640,11726 15169,11420 15169,11770 14199,12331 14199,11981 14436,11844 14640,11844 Z M 14630,11834 L 14453,11834 14630,11732 14630,11834 Z"/>
     <path fill="rgb(138,138,138)" stroke="none" d="M 14630,11834 L 14630,11732 15169,11420 15169,11770 14199,12331 14199,11981 14453,11834 14630,11834 Z M 14620,11824 L 14470,11824 14620,11738 14620,11824 Z"/>
     <path fill="rgb(139,139,139)" stroke="none" d="M 14620,11824 L 14620,11738 15169,11420 15169,11770 14199,12331 14199,11981 14470,11824 14620,11824 Z M 14610,11814 L 14488,11814 14610,11743 14610,11814 Z"/>
     <path fill="rgb(140,140,140)" stroke="none" d="M 14610,11814 L 14610,11743 15169,11420 15169,11770 14199,12331 14199,11981 14488,11814 14610,11814 Z M 14599,11803 L 14507,11803 14599,11750 14599,11803 Z"/>
     <path fill="rgb(141,141,141)" stroke="none" d="M 14599,11803 L 14599,11750 15169,11420 15169,11770 14199,12331 14199,11981 14507,11803 14599,11803 Z M 14589,11793 L 14524,11793 14589,11755 14589,11793 Z"/>
     <path fill="rgb(142,142,142)" stroke="none" d="M 14589,11793 L 14589,11755 15169,11420 15169,11770 14199,12331 14199,11981 14524,11793 14589,11793 Z M 14579,11783 L 14541,11783 14579,11761 14579,11783 Z"/>
     <path fill="rgb(143,143,143)" stroke="none" d="M 14579,11783 L 14579,11761 15169,11420 15169,11770 14199,12331 14199,11981 14541,11783 14579,11783 Z M 14569,11773 L 14559,11773 14569,11767 14569,11773 Z"/>
     <path fill="rgb(144,144,144)" stroke="none" d="M 14569,11773 L 14569,11767 15169,11420 15169,11770 14199,12331 14199,11981 14559,11773 14569,11773 Z"/>
     <path fill="rgb(145,145,145)" stroke="none" d="M 15169,11770 L 14199,12331 14199,11981 15169,11420 15169,11770 Z"/>
     <path fill="rgb(146,146,146)" stroke="none" d="M 15169,11770 L 14199,12331 14199,11981 15169,11420 15169,11770 Z"/>
     <path fill="rgb(147,147,147)" stroke="none" d="M 15169,11770 L 14199,12331 14199,11981 15169,11420 15169,11770 Z"/>
     <path fill="rgb(148,148,148)" stroke="none" d="M 15169,11770 L 14199,12331 14199,11981 15169,11420 15169,11770 Z"/>
     <path fill="rgb(149,149,149)" stroke="none" d="M 15169,11770 L 14199,12331 14199,11981 15169,11420 15169,11770 Z"/>
     <path fill="rgb(150,150,150)" stroke="none" d="M 15169,11770 L 14199,12331 14199,11981 15169,11420 15169,11770 Z"/>
     <path fill="rgb(153,153,153)" stroke="none" d="M 15169,11770 L 14199,12331 14199,11981 15169,11420 15169,11770 Z"/>
     <path fill="none" stroke="rgb(178,178,178)" id="Drawing_13_0" stroke-width="40" stroke-linejoin="round" d="M 15169,11770 L 15169,11420 14199,11981 14199,12331 15169,11770 Z"/>
    </g>
    <g>
     <path fill="none" stroke="rgb(0,0,0)" id="Drawing_14_0" stroke-width="40" stroke-linejoin="round" d="M 15169,11420 L 12866,10089 11896,10650 11896,11000 13108,11701 13351,12682 13714,12892 14078,12682 13956,12192 14199,12331 15169,11771 15169,11420 Z"/>
    </g>
    <g>
     <path fill="none" stroke="rgb(178,178,178)" id="Drawing_15_0" stroke-width="40" stroke-linejoin="round" d="M 14320,11702 L 13350,11141"/>
    </g>
    <g>
     <path fill="none" stroke="rgb(178,178,178)" id="Drawing_16_0" stroke-width="40" stroke-linejoin="round" d="M 14441,11632 L 13592,11141"/>
    </g>
    <g>
     <path fill="none" stroke="rgb(178,178,178)" id="Drawing_17_0" stroke-width="40" stroke-linejoin="round" d="M 14078,10860 L 13229,11351"/>
    </g>
    <g>
     <path fill="none" stroke="rgb(178,178,178)" id="Drawing_18_0" stroke-width="40" stroke-linejoin="round" d="M 14320,11000 L 13471,11491"/>
    </g>
    <g>
     <path fill="none" stroke="rgb(178,178,178)" id="Drawing_19_0" stroke-width="40" stroke-linejoin="round" d="M 14441,11070 L 13592,11561"/>
    </g>
    <g>
     <path fill="none" stroke="rgb(178,178,178)" id="Drawing_20_0" stroke-width="40" stroke-linejoin="round" d="M 14563,11141 L 13714,11632"/>
    </g>
    <g>
     <path fill="none" stroke="rgb(178,178,178)" id="Drawing_21_0" stroke-width="40" stroke-linejoin="round" d="M 14805,11281 L 13956,11772"/>
    </g>
    <g>
     <path fill="none" stroke="rgb(178,178,178)" id="Drawing_22_0" stroke-width="40" stroke-linejoin="round" d="M 14684,11210 L 13835,11701"/>
    </g>
   </g>
  </g>
 </g>
</svg>