<?xml version="1.0" encoding="UTF-8"?>

<svg version="1.2" baseProfile="tiny" width="64mm" height="45.4mm" viewBox="10521 2643 6400 4540" preserveAspectRatio="xMidYMid" fill-rule="evenodd" stroke-width="28.222" stroke-linejoin="round" xmlns="http://www.w3.org/2000/svg" xmlns:xlink="http://www.w3.org/1999/xlink" xml:space="preserve">
 <g visibility="visible" id="Slide_1">
  <g id="DrawingGroup_1">
   <g>
    <path fill="rgb(221,221,221)" stroke="none" d="M 14867,7163 C 15105,7163 16342,6760 16770,6438 17049,6228 16831,5963 16594,5963 16594,6113 14781,6063 14867,7163 Z"/>
    <path fill="none" stroke="rgb(221,221,221)" id="Drawing_1_0" stroke-width="40" stroke-linejoin="round" d="M 14867,7163 C 15105,7163 16342,6760 16770,6438 17049,6228 16831,5963 16594,5963 16594,6113 14781,6063 14867,7163 Z"/>
   </g>
   <g id="DrawingGroup_2">
    <g>
     <defs>
      <linearGradient id="Gradient_249" gradientUnits="userSpaceOnUse" x1="11401" y1="5410" x2="14866" y2="5416">
       <stop offset="0.1" stop-color="rgb(51,51,51)"/>
       <stop offset="1" stop-color="rgb(153,153,153)"/>
      </linearGradient>
     </defs>
     <path fill="url(#Gradient_249)" stroke="rgb(178,178,178)" id="Drawing_2_0" stroke-width="40" stroke-linejoin="round" d="M 11405,5163 L 11405,3663 14864,5663 14864,7163 11405,5163 Z"/>
    </g>
    <g>
     <path fill="rgb(51,51,51)" stroke="none" d="M 14864,6650 L 14864,5663 16593,4663 16593,6163 15751,6650 14864,6650 Z"/>
     <path fill="rgb(52,52,52)" stroke="none" d="M 15751,6650 L 14864,7163 14864,6650 15751,6650 Z M 14864,6638 L 14864,5663 16593,4663 16593,6163 15772,6638 14864,6638 Z"/>
     <path fill="rgb(53,53,53)" stroke="none" d="M 15772,6638 L 14864,7163 14864,6638 15772,6638 Z M 14864,6626 L 14864,5663 16593,4663 16593,6163 15792,6626 14864,6626 Z"/>
     <path fill="rgb(54,54,54)" stroke="none" d="M 15792,6626 L 14864,7163 14864,6626 15792,6626 Z M 16583,6169 L 15815,6613 14864,6613 14864,5663 16583,4669 16583,6169 Z"/>
     <path fill="rgb(55,55,55)" stroke="none" d="M 15815,6613 L 14864,7163 14864,6613 15815,6613 Z M 16583,4669 L 16593,4663 16593,6163 16583,6169 16583,4669 Z M 16571,6176 L 15836,6601 14864,6601 14864,5663 16571,4676 16571,6176 Z"/>
     <path fill="rgb(56,56,56)" stroke="none" d="M 15836,6601 L 14864,7163 14864,6601 15836,6601 Z M 16571,4676 L 16593,4663 16593,6163 16571,6176 16571,4676 Z M 16559,6183 L 15856,6589 14864,6589 14864,5663 16559,4683 16559,6183 Z"/>
     <path fill="rgb(57,57,57)" stroke="none" d="M 15856,6589 L 14864,7163 14864,6589 15856,6589 Z M 16559,4683 L 16593,4663 16593,6163 16559,6183 16559,4683 Z M 16547,6190 L 15877,6577 14864,6577 14864,5663 16547,4690 16547,6190 Z"/>
     <path fill="rgb(58,58,58)" stroke="none" d="M 15877,6577 L 14864,7163 14864,6577 15877,6577 Z M 16547,4690 L 16593,4663 16593,6163 16547,6190 16547,4690 Z M 16534,6197 L 15900,6564 14864,6564 14864,5663 16534,4697 16534,6197 Z"/>
     <path fill="rgb(59,59,59)" stroke="none" d="M 15900,6564 L 14864,7163 14864,6564 15900,6564 Z M 16534,4697 L 16593,4663 16593,6163 16534,6197 16534,4697 Z M 16522,6204 L 15920,6552 14864,6552 14864,5663 16522,4704 16522,6204 Z"/>
     <path fill="rgb(60,60,60)" stroke="none" d="M 15920,6552 L 14864,7163 14864,6552 15920,6552 Z M 16522,4704 L 16593,4663 16593,6163 16522,6204 16522,4704 Z M 16510,6211 L 15941,6540 14864,6540 14864,5663 16510,4711 16510,6211 Z"/>
     <path fill="rgb(61,61,61)" stroke="none" d="M 15941,6540 L 14864,7163 14864,6540 15941,6540 Z M 16510,4711 L 16593,4663 16593,6163 16510,6211 16510,4711 Z M 16498,6218 L 15962,6528 14864,6528 14864,5663 16498,4718 16498,6218 Z"/>
     <path fill="rgb(62,62,62)" stroke="none" d="M 15962,6528 L 14864,7163 14864,6528 15962,6528 Z M 16498,4718 L 16593,4663 16593,6163 16498,6218 16498,4718 Z M 16485,6225 L 15984,6515 14864,6515 14864,5663 16485,4725 16485,6225 Z"/>
     <path fill="rgb(63,63,63)" stroke="none" d="M 15984,6515 L 14864,7163 14864,6515 15984,6515 Z M 16485,4725 L 16593,4663 16593,6163 16485,6225 16485,4725 Z M 16473,6232 L 16005,6503 14864,6503 14864,5663 16473,4732 16473,6232 Z"/>
     <path fill="rgb(64,64,64)" stroke="none" d="M 16005,6503 L 14864,7163 14864,6503 16005,6503 Z M 16473,4732 L 16593,4663 16593,6163 16473,6232 16473,4732 Z M 16461,6239 L 16026,6491 14864,6491 14864,5663 16461,4739 16461,6239 Z"/>
     <path fill="rgb(65,65,65)" stroke="none" d="M 16026,6491 L 14864,7163 14864,6491 16026,6491 Z M 16461,4739 L 16593,4663 16593,6163 16461,6239 16461,4739 Z M 16448,6247 L 16048,6478 14864,6478 14864,5663 16448,4747 16448,6247 Z"/>
     <path fill="rgb(66,66,66)" stroke="none" d="M 16048,6478 L 14864,7163 14864,6478 16048,6478 Z M 16448,4747 L 16593,4663 16593,6163 16448,6247 16448,4747 Z M 16436,6254 L 16069,6466 14864,6466 14864,5663 16436,4754 16436,6254 Z"/>
     <path fill="rgb(67,67,67)" stroke="none" d="M 16069,6466 L 14864,7163 14864,6466 16069,6466 Z M 16436,4754 L 16593,4663 16593,6163 16436,6254 16436,4754 Z M 16424,6261 L 16090,6454 14864,6454 14864,5663 16424,4761 16424,6261 Z"/>
     <path fill="rgb(68,68,68)" stroke="none" d="M 16090,6454 L 14864,7163 14864,6454 16090,6454 Z M 16424,4761 L 16593,4663 16593,6163 16424,6261 16424,4761 Z M 16412,6268 L 16111,6442 14864,6442 14864,5663 16412,4768 16412,6268 Z"/>
     <path fill="rgb(69,69,69)" stroke="none" d="M 16111,6442 L 14864,7163 14864,6442 16111,6442 Z M 16412,4768 L 16593,4663 16593,6163 16412,6268 16412,4768 Z M 16399,6275 L 16133,6429 14864,6429 14864,5663 16399,4775 16399,6275 Z"/>
     <path fill="rgb(70,70,70)" stroke="none" d="M 16133,6429 L 14864,7163 14864,6429 16133,6429 Z M 16399,4775 L 16593,4663 16593,6163 16399,6275 16399,4775 Z M 16387,6282 L 16154,6417 14864,6417 14864,5663 16387,4782 16387,6282 Z"/>
     <path fill="rgb(71,71,71)" stroke="none" d="M 16154,6417 L 14864,7163 14864,6417 16154,6417 Z M 16387,4782 L 16593,4663 16593,6163 16387,6282 16387,4782 Z M 16375,6289 L 16175,6405 14864,6405 14864,5663 16375,4789 16375,6289 Z"/>
     <path fill="rgb(72,72,72)" stroke="none" d="M 16175,6405 L 14864,7163 14864,6405 16175,6405 Z M 16375,4789 L 16593,4663 16593,6163 16375,6289 16375,4789 Z M 16363,6296 L 16195,6393 14864,6393 14864,5663 16363,4796 16363,6296 Z"/>
     <path fill="rgb(73,73,73)" stroke="none" d="M 16195,6393 L 14864,7163 14864,6393 16195,6393 Z M 16363,4796 L 16593,4663 16593,6163 16363,6296 16363,4796 Z M 16350,6304 L 16218,6380 14864,6380 14864,5663 16350,4804 16350,6304 Z"/>
     <path fill="rgb(74,74,74)" stroke="none" d="M 16218,6380 L 14864,7163 14864,6380 16218,6380 Z M 16350,4804 L 16593,4663 16593,6163 16350,6304 16350,4804 Z M 16338,6310 L 16239,6368 14864,6368 14864,5663 16338,4810 16338,6310 Z"/>
     <path fill="rgb(75,75,75)" stroke="none" d="M 16239,6368 L 14864,7163 14864,6368 16239,6368 Z M 16338,4810 L 16593,4663 16593,6163 16338,6310 16338,4810 Z M 16326,6317 L 16259,6356 14864,6356 14864,5663 16326,4817 16326,6317 Z"/>
     <path fill="rgb(76,76,76)" stroke="none" d="M 16259,6356 L 14864,7163 14864,6356 16259,6356 Z M 16326,4817 L 16593,4663 16593,6163 16326,6317 16326,4817 Z M 16313,6325 L 16282,6343 14864,6343 14864,5663 16313,4825 16313,6325 Z"/>
     <path fill="rgb(77,77,77)" stroke="none" d="M 16282,6343 L 14864,7163 14864,6343 16282,6343 Z M 16313,4825 L 16593,4663 16593,6163 16313,6325 16313,4825 Z M 16301,6331 L 14864,6331 14864,5663 16301,4832 16301,6331 Z"/>
     <path fill="rgb(78,78,78)" stroke="none" d="M 16301,6331 L 16301,4832 16593,4663 16593,6163 14864,7163 14864,6331 16301,6331 Z M 16289,6319 L 14864,6319 14864,5663 16289,4839 16289,6319 Z"/>
     <path fill="rgb(79,79,79)" stroke="none" d="M 16289,6319 L 16289,4839 16593,4663 16593,6163 14864,7163 14864,6319 16289,6319 Z M 16277,6307 L 14864,6307 14864,5663 16277,4846 16277,6307 Z"/>
     <path fill="rgb(80,80,80)" stroke="none" d="M 16277,6307 L 16277,4846 16593,4663 16593,6163 14864,7163 14864,6307 16277,6307 Z M 16264,6294 L 14864,6294 14864,5663 16264,4853 16264,6294 Z"/>
     <path fill="rgb(81,81,81)" stroke="none" d="M 16264,6294 L 16264,4853 16593,4663 16593,6163 14864,7163 14864,6294 16264,6294 Z M 16252,6282 L 14864,6282 14864,5663 16252,4860 16252,6282 Z"/>
     <path fill="rgb(82,82,82)" stroke="none" d="M 16252,6282 L 16252,4860 16593,4663 16593,6163 14864,7163 14864,6282 16252,6282 Z M 16240,6270 L 14864,6270 14864,5663 16240,4867 16240,6270 Z"/>
     <path fill="rgb(83,83,83)" stroke="none" d="M 16240,6270 L 16240,4867 16593,4663 16593,6163 14864,7163 14864,6270 16240,6270 Z M 16228,6258 L 14864,6258 14864,5663 16228,4874 16228,6258 Z"/>
     <path fill="rgb(84,84,84)" stroke="none" d="M 16228,6258 L 16228,4874 16593,4663 16593,6163 14864,7163 14864,6258 16228,6258 Z M 16215,6245 L 14864,6245 14864,5663 16215,4882 16215,6245 Z"/>
     <path fill="rgb(85,85,85)" stroke="none" d="M 16215,6245 L 16215,4882 16593,4663 16593,6163 14864,7163 14864,6245 16215,6245 Z M 16203,6233 L 14864,6233 14864,5663 16203,4889 16203,6233 Z"/>
     <path fill="rgb(86,86,86)" stroke="none" d="M 16203,6233 L 16203,4889 16593,4663 16593,6163 14864,7163 14864,6233 16203,6233 Z M 16191,6221 L 14864,6221 14864,5663 16191,4896 16191,6221 Z"/>
     <path fill="rgb(87,87,87)" stroke="none" d="M 16191,6221 L 16191,4896 16593,4663 16593,6163 14864,7163 14864,6221 16191,6221 Z M 16179,6209 L 14864,6209 14864,5663 16179,4902 16179,6209 Z"/>
     <path fill="rgb(88,88,88)" stroke="none" d="M 16179,6209 L 16179,4902 16593,4663 16593,6163 14864,7163 14864,6209 16179,6209 Z M 16166,6196 L 14864,6196 14864,5663 16166,4910 16166,6196 Z"/>
     <path fill="rgb(89,89,89)" stroke="none" d="M 16166,6196 L 16166,4910 16593,4663 16593,6163 14864,7163 14864,6196 16166,6196 Z M 16154,6184 L 14864,6184 14864,5663 16154,4917 16154,6184 Z"/>
     <path fill="rgb(90,90,90)" stroke="none" d="M 16154,6184 L 16154,4917 16593,4663 16593,6163 14864,7163 14864,6184 16154,6184 Z M 16142,6172 L 14864,6172 14864,5663 16142,4924 16142,6172 Z"/>
     <path fill="rgb(91,91,91)" stroke="none" d="M 16142,6172 L 16142,4924 16593,4663 16593,6163 14864,7163 14864,6172 16142,6172 Z M 16129,6159 L 14864,6159 14864,5663 16129,4931 16129,6159 Z"/>
     <path fill="rgb(92,92,92)" stroke="none" d="M 16129,6159 L 16129,4931 16593,4663 16593,6163 14864,7163 14864,6159 16129,6159 Z M 16117,6147 L 14864,6147 14864,5663 16117,4938 16117,6147 Z"/>
     <path fill="rgb(93,93,93)" stroke="none" d="M 16117,6147 L 16117,4938 16593,4663 16593,6163 14864,7163 14864,6147 16117,6147 Z M 16105,6135 L 14864,6135 14864,5663 16105,4945 16105,6135 Z"/>
     <path fill="rgb(94,94,94)" stroke="none" d="M 16105,6135 L 16105,4945 16593,4663 16593,6163 14864,7163 14864,6135 16105,6135 Z M 16093,6123 L 14864,6123 14864,5663 16093,4952 16093,6123 Z"/>
     <path fill="rgb(95,95,95)" stroke="none" d="M 16093,6123 L 16093,4952 16593,4663 16593,6163 14864,7163 14864,6123 16093,6123 Z M 16080,6110 L 14864,6110 14864,5663 16080,4960 16080,6110 Z"/>
     <path fill="rgb(96,96,96)" stroke="none" d="M 16080,6110 L 16080,4960 16593,4663 16593,6163 14864,7163 14864,6110 16080,6110 Z M 16068,6098 L 14864,6098 14864,5663 16068,4967 16068,6098 Z"/>
     <path fill="rgb(97,97,97)" stroke="none" d="M 16068,6098 L 16068,4967 16593,4663 16593,6163 14864,7163 14864,6098 16068,6098 Z M 16056,6086 L 14864,6086 14864,5663 16056,4974 16056,6086 Z"/>
     <path fill="rgb(98,98,98)" stroke="none" d="M 16056,6086 L 16056,4974 16593,4663 16593,6163 14864,7163 14864,6086 16056,6086 Z M 16044,6074 L 14864,6074 14864,5663 16044,4981 16044,6074 Z"/>
     <path fill="rgb(99,99,99)" stroke="none" d="M 16044,6074 L 16044,4981 16593,4663 16593,6163 14864,7163 14864,6074 16044,6074 Z M 16031,6061 L 14864,6061 14864,5663 16031,4988 16031,6061 Z"/>
     <path fill="rgb(100,100,100)" stroke="none" d="M 16031,6061 L 16031,4988 16593,4663 16593,6163 14864,7163 14864,6061 16031,6061 Z M 16019,6049 L 14864,6049 14864,5663 16019,4995 16019,6049 Z"/>
     <path fill="rgb(101,101,101)" stroke="none" d="M 16019,6049 L 16019,4995 16593,4663 16593,6163 14864,7163 14864,6049 16019,6049 Z M 16007,6037 L 14864,6037 14864,5663 16007,5002 16007,6037 Z"/>
     <path fill="rgb(102,102,102)" stroke="none" d="M 16007,6037 L 16007,5002 16593,4663 16593,6163 14864,7163 14864,6037 16007,6037 Z M 15994,6024 L 14864,6024 14864,5663 15994,5009 15994,6024 Z"/>
     <path fill="rgb(103,103,103)" stroke="none" d="M 15994,6024 L 15994,5009 16593,4663 16593,6163 14864,7163 14864,6024 15994,6024 Z M 15982,6012 L 14864,6012 14864,5663 15982,5016 15982,6012 Z"/>
     <path fill="rgb(104,104,104)" stroke="none" d="M 15982,6012 L 15982,5016 16593,4663 16593,6163 14864,7163 14864,6012 15982,6012 Z M 15970,6000 L 14864,6000 14864,5663 15970,5023 15970,6000 Z"/>
     <path fill="rgb(105,105,105)" stroke="none" d="M 15970,6000 L 15970,5023 16593,4663 16593,6163 14864,7163 14864,6000 15970,6000 Z M 15958,5988 L 14864,5988 14864,5663 15958,5030 15958,5988 Z"/>
     <path fill="rgb(106,106,106)" stroke="none" d="M 15958,5988 L 15958,5030 16593,4663 16593,6163 14864,7163 14864,5988 15958,5988 Z M 15945,5975 L 14864,5975 14864,5663 15945,5038 15945,5975 Z"/>
     <path fill="rgb(107,107,107)" stroke="none" d="M 15945,5975 L 15945,5038 16593,4663 16593,6163 14864,7163 14864,5975 15945,5975 Z M 15933,5963 L 14864,5963 14864,5663 15933,5045 15933,5963 Z"/>
     <path fill="rgb(108,108,108)" stroke="none" d="M 15933,5963 L 15933,5045 16593,4663 16593,6163 14864,7163 14864,5963 15933,5963 Z M 15921,5951 L 14864,5951 14864,5663 15921,5052 15921,5951 Z"/>
     <path fill="rgb(109,109,109)" stroke="none" d="M 15921,5951 L 15921,5052 16593,4663 16593,6163 14864,7163 14864,5951 15921,5951 Z M 15909,5939 L 14864,5939 14864,5663 15909,5059 15909,5939 Z"/>
     <path fill="rgb(110,110,110)" stroke="none" d="M 15909,5939 L 15909,5059 16593,4663 16593,6163 14864,7163 14864,5939 15909,5939 Z M 15896,5926 L 14867,5926 14867,5661 15896,5066 15896,5926 Z"/>
     <path fill="rgb(111,111,111)" stroke="none" d="M 14867,5926 L 15896,5926 15896,5066 16593,4663 16593,6163 14864,7163 14864,5663 14867,5661 14867,5926 Z M 15884,5914 L 14879,5914 14879,5654 15884,5073 15884,5914 Z"/>
     <path fill="rgb(112,112,112)" stroke="none" d="M 14879,5914 L 15884,5914 15884,5073 16593,4663 16593,6163 14864,7163 14864,5663 14879,5654 14879,5914 Z M 15872,5902 L 14891,5902 14891,5647 15872,5080 15872,5902 Z"/>
     <path fill="rgb(113,113,113)" stroke="none" d="M 14891,5902 L 15872,5902 15872,5080 16593,4663 16593,6163 14864,7163 14864,5663 14891,5647 14891,5902 Z M 15860,5890 L 14903,5890 14903,5640 15860,5087 15860,5890 Z"/>
     <path fill="rgb(114,114,114)" stroke="none" d="M 14903,5890 L 15860,5890 15860,5087 16593,4663 16593,6163 14864,7163 14864,5663 14903,5640 14903,5890 Z M 15847,5877 L 14916,5877 14916,5633 15847,5094 15847,5877 Z"/>
     <path fill="rgb(115,115,115)" stroke="none" d="M 14916,5877 L 15847,5877 15847,5094 16593,4663 16593,6163 14864,7163 14864,5663 14916,5633 14916,5877 Z M 15835,5865 L 14928,5865 14928,5626 15835,5101 15835,5865 Z"/>
     <path fill="rgb(116,116,116)" stroke="none" d="M 14928,5865 L 15835,5865 15835,5101 16593,4663 16593,6163 14864,7163 14864,5663 14928,5626 14928,5865 Z M 15823,5853 L 14940,5853 14940,5619 15823,5108 15823,5853 Z"/>
     <path fill="rgb(117,117,117)" stroke="none" d="M 14940,5853 L 15823,5853 15823,5108 16593,4663 16593,6163 14864,7163 14864,5663 14940,5619 14940,5853 Z M 15810,5840 L 14953,5840 14953,5612 15810,5116 15810,5840 Z"/>
     <path fill="rgb(118,118,118)" stroke="none" d="M 14953,5840 L 15810,5840 15810,5116 16593,4663 16593,6163 14864,7163 14864,5663 14953,5612 14953,5840 Z M 15798,5828 L 14965,5828 14965,5605 15798,5123 15798,5828 Z"/>
     <path fill="rgb(119,119,119)" stroke="none" d="M 14965,5828 L 15798,5828 15798,5123 16593,4663 16593,6163 14864,7163 14864,5663 14965,5605 14965,5828 Z M 15786,5816 L 14977,5816 14977,5598 15786,5130 15786,5816 Z"/>
     <path fill="rgb(120,120,120)" stroke="none" d="M 14977,5816 L 15786,5816 15786,5130 16593,4663 16593,6163 14864,7163 14864,5663 14977,5598 14977,5816 Z M 15774,5804 L 14989,5804 14989,5591 15774,5137 15774,5804 Z"/>
     <path fill="rgb(121,121,121)" stroke="none" d="M 14989,5804 L 15774,5804 15774,5137 16593,4663 16593,6163 14864,7163 14864,5663 14989,5591 14989,5804 Z M 15761,5791 L 15002,5791 15002,5583 15761,5144 15761,5791 Z"/>
     <path fill="rgb(122,122,122)" stroke="none" d="M 15002,5791 L 15761,5791 15761,5144 16593,4663 16593,6163 14864,7163 14864,5663 15002,5583 15002,5791 Z M 15749,5779 L 15014,5779 15014,5576 15749,5151 15749,5779 Z"/>
     <path fill="rgb(123,123,123)" stroke="none" d="M 15014,5779 L 15749,5779 15749,5151 16593,4663 16593,6163 14864,7163 14864,5663 15014,5576 15014,5779 Z M 15737,5767 L 15026,5767 15026,5569 15737,5158 15737,5767 Z"/>
     <path fill="rgb(124,124,124)" stroke="none" d="M 15026,5767 L 15737,5767 15737,5158 16593,4663 16593,6163 14864,7163 14864,5663 15026,5569 15026,5767 Z M 15725,5755 L 15038,5755 15038,5562 15725,5165 15725,5755 Z"/>
     <path fill="rgb(125,125,125)" stroke="none" d="M 15038,5755 L 15725,5755 15725,5165 16593,4663 16593,6163 14864,7163 14864,5663 15038,5562 15038,5755 Z M 15712,5742 L 15051,5742 15051,5555 15712,5173 15712,5742 Z"/>
     <path fill="rgb(126,126,126)" stroke="none" d="M 15051,5742 L 15712,5742 15712,5173 16593,4663 16593,6163 14864,7163 14864,5663 15051,5555 15051,5742 Z M 15700,5730 L 15063,5730 15063,5548 15700,5179 15700,5730 Z"/>
     <path fill="rgb(127,127,127)" stroke="none" d="M 15063,5730 L 15700,5730 15700,5179 16593,4663 16593,6163 14864,7163 14864,5663 15063,5548 15063,5730 Z M 15688,5718 L 15075,5718 15075,5541 15688,5186 15688,5718 Z"/>
     <path fill="rgb(128,128,128)" stroke="none" d="M 15075,5718 L 15688,5718 15688,5186 16593,4663 16593,6163 14864,7163 14864,5663 15075,5541 15075,5718 Z M 15675,5705 L 15088,5705 15088,5533 15675,5194 15675,5705 Z"/>
     <path fill="rgb(129,129,129)" stroke="none" d="M 15088,5705 L 15675,5705 15675,5194 16593,4663 16593,6163 14864,7163 14864,5663 15088,5533 15088,5705 Z M 15663,5693 L 15100,5693 15100,5527 15663,5201 15663,5693 Z"/>
     <path fill="rgb(130,130,130)" stroke="none" d="M 15100,5693 L 15663,5693 15663,5201 16593,4663 16593,6163 14864,7163 14864,5663 15100,5527 15100,5693 Z M 15651,5681 L 15112,5681 15112,5520 15651,5208 15651,5681 Z"/>
     <path fill="rgb(131,131,131)" stroke="none" d="M 15112,5681 L 15651,5681 15651,5208 16593,4663 16593,6163 14864,7163 14864,5663 15112,5520 15112,5681 Z M 15639,5669 L 15124,5669 15124,5513 15639,5215 15639,5669 Z"/>
     <path fill="rgb(132,132,132)" stroke="none" d="M 15124,5669 L 15639,5669 15639,5215 16593,4663 16593,6163 14864,7163 14864,5663 15124,5513 15124,5669 Z M 15626,5656 L 15137,5656 15137,5505 15626,5222 15626,5656 Z"/>
     <path fill="rgb(133,133,133)" stroke="none" d="M 15137,5656 L 15626,5656 15626,5222 16593,4663 16593,6163 14864,7163 14864,5663 15137,5505 15137,5656 Z M 15614,5644 L 15149,5644 15149,5498 15614,5229 15614,5644 Z"/>
     <path fill="rgb(134,134,134)" stroke="none" d="M 15149,5644 L 15614,5644 15614,5229 16593,4663 16593,6163 14864,7163 14864,5663 15149,5498 15149,5644 Z M 15602,5632 L 15161,5632 15161,5491 15602,5236 15602,5632 Z"/>
     <path fill="rgb(135,135,135)" stroke="none" d="M 15161,5632 L 15602,5632 15602,5236 16593,4663 16593,6163 14864,7163 14864,5663 15161,5491 15161,5632 Z M 15590,5620 L 15173,5620 15173,5484 15590,5243 15590,5620 Z"/>
     <path fill="rgb(136,136,136)" stroke="none" d="M 15173,5620 L 15590,5620 15590,5243 16593,4663 16593,6163 14864,7163 14864,5663 15173,5484 15173,5620 Z M 15577,5607 L 15186,5607 15186,5477 15577,5251 15577,5607 Z"/>
     <path fill="rgb(137,137,137)" stroke="none" d="M 15186,5607 L 15577,5607 15577,5251 16593,4663 16593,6163 14864,7163 14864,5663 15186,5477 15186,5607 Z M 15565,5595 L 15198,5595 15198,5470 15565,5258 15565,5595 Z"/>
     <path fill="rgb(138,138,138)" stroke="none" d="M 15198,5595 L 15565,5595 15565,5258 16593,4663 16593,6163 14864,7163 14864,5663 15198,5470 15198,5595 Z M 15553,5583 L 15210,5583 15210,5463 15553,5265 15553,5583 Z"/>
     <path fill="rgb(139,139,139)" stroke="none" d="M 15210,5583 L 15553,5583 15553,5265 16593,4663 16593,6163 14864,7163 14864,5663 15210,5463 15210,5583 Z M 15541,5571 L 15222,5571 15222,5456 15541,5271 15541,5571 Z"/>
     <path fill="rgb(140,140,140)" stroke="none" d="M 15222,5571 L 15541,5571 15541,5271 16593,4663 16593,6163 14864,7163 14864,5663 15222,5456 15222,5571 Z M 15528,5558 L 15235,5558 15235,5448 15528,5279 15528,5558 Z"/>
     <path fill="rgb(141,141,141)" stroke="none" d="M 15235,5558 L 15528,5558 15528,5279 16593,4663 16593,6163 14864,7163 14864,5663 15235,5448 15235,5558 Z M 15516,5546 L 15247,5546 15247,5441 15516,5286 15516,5546 Z"/>
     <path fill="rgb(142,142,142)" stroke="none" d="M 15247,5546 L 15516,5546 15516,5286 16593,4663 16593,6163 14864,7163 14864,5663 15247,5441 15247,5546 Z M 15504,5534 L 15259,5534 15259,5435 15504,5293 15504,5534 Z"/>
     <path fill="rgb(143,143,143)" stroke="none" d="M 15259,5534 L 15504,5534 15504,5293 16593,4663 16593,6163 14864,7163 14864,5663 15259,5435 15259,5534 Z M 15491,5302 L 15491,5521 15272,5521 15272,5427 15488,5302 15491,5302 Z"/>
     <path fill="rgb(144,144,144)" stroke="none" d="M 15272,5521 L 15491,5521 15491,5302 15488,5302 16593,4663 16593,6163 14864,7163 14864,5663 15272,5427 15272,5521 Z M 15479,5314 L 15479,5509 15284,5509 15284,5420 15467,5314 15479,5314 Z"/>
     <path fill="rgb(145,145,145)" stroke="none" d="M 15284,5509 L 15479,5509 15479,5314 15467,5314 16593,4663 16593,6163 14864,7163 14864,5663 15284,5420 15284,5509 Z M 15467,5326 L 15467,5497 15296,5497 15296,5413 15447,5326 15467,5326 Z"/>
     <path fill="rgb(146,146,146)" stroke="none" d="M 15296,5497 L 15467,5497 15467,5326 15447,5326 16593,4663 16593,6163 14864,7163 14864,5663 15296,5413 15296,5497 Z M 15455,5338 L 15455,5485 15308,5485 15308,5406 15426,5338 15455,5338 Z"/>
     <path fill="rgb(147,147,147)" stroke="none" d="M 15308,5485 L 15455,5485 15455,5338 15426,5338 16593,4663 16593,6163 14864,7163 14864,5663 15308,5406 15308,5485 Z M 15442,5351 L 15442,5472 15321,5472 15321,5399 15403,5351 15442,5351 Z"/>
     <path fill="rgb(148,148,148)" stroke="none" d="M 15321,5472 L 15442,5472 15442,5351 15403,5351 16593,4663 16593,6163 14864,7163 14864,5663 15321,5399 15321,5472 Z M 15430,5363 L 15430,5460 15333,5460 15333,5392 15383,5363 15430,5363 Z"/>
     <path fill="rgb(149,149,149)" stroke="none" d="M 15333,5460 L 15430,5460 15430,5363 15383,5363 16593,4663 16593,6163 14864,7163 14864,5663 15333,5392 15333,5460 Z M 15418,5375 L 15418,5448 15345,5448 15345,5385 15362,5375 15418,5375 Z"/>
     <path fill="rgb(150,150,150)" stroke="none" d="M 15345,5448 L 15418,5448 15418,5375 15362,5375 16593,4663 16593,6163 14864,7163 14864,5663 15345,5385 15345,5448 Z M 15357,5387 L 15406,5387 15406,5436 15357,5436 15357,5387 Z"/>
     <path fill="rgb(151,151,151)" stroke="none" d="M 15357,5387 L 15357,5436 15406,5436 15406,5387 15357,5387 Z M 15370,5400 L 15393,5400 15393,5423 15370,5423 15370,5400 Z M 14864,7163 L 14864,5663 16593,4663 16593,6163 14864,7163 Z"/>
     <path fill="rgb(153,153,153)" stroke="none" d="M 15370,5400 L 15370,5423 15393,5423 15393,5400 15370,5400 Z M 14864,7163 L 14864,5663 16593,4663 16593,6163 14864,7163 Z"/>
     <path fill="none" stroke="rgb(178,178,178)" id="Drawing_3_0" stroke-width="40" stroke-linejoin="round" d="M 14864,7163 L 14864,5663 16593,4663 16593,6163 14864,7163 Z"/>
    </g>
    <g>
     <defs>
      <linearGradient id="Gradient_250" gradientUnits="userSpaceOnUse" x1="13999" y1="2663" x2="13999" y2="5663">
       <stop offset="0.1" stop-color="rgb(51,51,51)"/>
       <stop offset="1" stop-color="rgb(153,153,153)"/>
      </linearGradient>
     </defs>
     <path fill="url(#Gradient_250)" stroke="rgb(178,178,178)" id="Drawing_4_0" stroke-width="40" stroke-linejoin="round" d="M 14864,5663 L 11405,3663 13134,2663 16593,4663 14864,5663 Z"/>
    </g>
    <g>
     <path fill="rgb(57,181,74)" stroke="none" d="M 14519,5913 L 14519,5713 14692,5813 14692,6013 14519,5913 Z"/>
     <path fill="none" stroke="rgb(102,102,102)" id="Drawing_5_0" stroke-width="40" stroke-linejoin="round" d="M 14519,5913 L 14519,5713 14692,5813 14692,6013 14519,5913 Z"/>
    </g>
    <g>
     <path fill="rgb(51,51,51)" stroke="none" d="M 13642,6627 L 12270,7063 12270,6813 13642,6258 13642,6627 Z"/>
     <path fill="rgb(52,52,52)" stroke="none" d="M 13642,6258 L 13999,6113 13999,6513 13642,6627 13642,6258 Z M 13632,6630 L 12270,7063 12270,6813 13632,6262 13632,6630 Z"/>
     <path fill="rgb(53,53,53)" stroke="none" d="M 13632,6262 L 13999,6113 13999,6513 13632,6630 13632,6262 Z M 13622,6633 L 12270,7063 12270,6813 13622,6266 13622,6633 Z"/>
     <path fill="rgb(54,54,54)" stroke="none" d="M 13622,6266 L 13999,6113 13999,6513 13622,6633 13622,6266 Z M 13612,6636 L 12270,7063 12270,6813 13612,6270 13612,6636 Z"/>
     <path fill="rgb(55,55,55)" stroke="none" d="M 13612,6270 L 13999,6113 13999,6513 13612,6636 13612,6270 Z M 13602,6639 L 12270,7063 12270,6813 13602,6274 13602,6639 Z"/>
     <path fill="rgb(56,56,56)" stroke="none" d="M 13602,6274 L 13999,6113 13999,6513 13602,6639 13602,6274 Z M 13592,6642 L 12270,7063 12270,6813 13592,6278 13592,6642 Z"/>
     <path fill="rgb(58,58,58)" stroke="none" d="M 13592,6278 L 13999,6113 13999,6513 13592,6642 13592,6278 Z M 13582,6646 L 12270,7063 12270,6813 13582,6282 13582,6646 Z"/>
     <path fill="rgb(59,59,59)" stroke="none" d="M 13582,6282 L 13999,6113 13999,6513 13582,6646 13582,6282 Z M 13572,6649 L 12270,7063 12270,6813 13572,6286 13572,6649 Z"/>
     <path fill="rgb(60,60,60)" stroke="none" d="M 13572,6286 L 13999,6113 13999,6513 13572,6649 13572,6286 Z M 13562,6652 L 12270,7063 12270,6813 13562,6290 13562,6652 Z"/>
     <path fill="rgb(61,61,61)" stroke="none" d="M 13562,6290 L 13999,6113 13999,6513 13562,6652 13562,6290 Z M 13552,6655 L 12270,7063 12270,6813 13552,6294 13552,6655 Z"/>
     <path fill="rgb(62,62,62)" stroke="none" d="M 13552,6294 L 13999,6113 13999,6513 13552,6655 13552,6294 Z M 13542,6658 L 12270,7063 12270,6813 13542,6298 13542,6658 Z"/>
     <path fill="rgb(64,64,64)" stroke="none" d="M 13542,6298 L 13999,6113 13999,6513 13542,6658 13542,6298 Z M 13532,6662 L 12270,7063 12270,6813 13532,6302 13532,6662 Z"/>
     <path fill="rgb(65,65,65)" stroke="none" d="M 13532,6302 L 13999,6113 13999,6513 13532,6662 13532,6302 Z M 13522,6665 L 12270,7063 12270,6813 13522,6306 13522,6665 Z"/>
     <path fill="rgb(66,66,66)" stroke="none" d="M 13522,6306 L 13999,6113 13999,6513 13522,6665 13522,6306 Z M 13512,6668 L 12270,7063 12270,6813 13512,6310 13512,6668 Z"/>
     <path fill="rgb(67,67,67)" stroke="none" d="M 13512,6310 L 13999,6113 13999,6513 13512,6668 13512,6310 Z M 13501,6671 L 12270,7063 12270,6813 13501,6315 13501,6671 Z"/>
     <path fill="rgb(68,68,68)" stroke="none" d="M 13501,6315 L 13999,6113 13999,6513 13501,6671 13501,6315 Z M 13491,6675 L 12270,7063 12270,6813 13491,6319 13491,6675 Z"/>
     <path fill="rgb(69,69,69)" stroke="none" d="M 13491,6319 L 13999,6113 13999,6513 13491,6675 13491,6319 Z M 13481,6678 L 12270,7063 12270,6813 13481,6323 13481,6678 Z"/>
     <path fill="rgb(71,71,71)" stroke="none" d="M 13481,6323 L 13999,6113 13999,6513 13481,6678 13481,6323 Z M 13471,6681 L 12270,7063 12270,6813 13471,6327 13471,6681 Z"/>
     <path fill="rgb(72,72,72)" stroke="none" d="M 13471,6327 L 13999,6113 13999,6513 13471,6681 13471,6327 Z M 13461,6684 L 12270,7063 12270,6813 13461,6331 13461,6684 Z"/>
     <path fill="rgb(73,73,73)" stroke="none" d="M 13461,6331 L 13999,6113 13999,6513 13461,6684 13461,6331 Z M 13451,6687 L 12279,7060 12270,7060 12270,6813 13451,6335 13451,6687 Z"/>
     <path fill="rgb(74,74,74)" stroke="none" d="M 12279,7060 L 12270,7063 12270,7060 12279,7060 Z M 13451,6335 L 13999,6113 13999,6513 13451,6687 13451,6335 Z M 13441,6691 L 12311,7050 12270,7050 12270,6813 13441,6339 13441,6691 Z"/>
     <path fill="rgb(75,75,75)" stroke="none" d="M 12311,7050 L 12270,7063 12270,7050 12311,7050 Z M 13441,6339 L 13999,6113 13999,6513 13441,6691 13441,6339 Z M 13431,6694 L 12342,7040 12270,7040 12270,6813 13431,6343 13431,6694 Z"/>
     <path fill="rgb(77,77,77)" stroke="none" d="M 12342,7040 L 12270,7063 12270,7040 12342,7040 Z M 13431,6343 L 13999,6113 13999,6513 13431,6694 13431,6343 Z M 13421,6697 L 12374,7030 12270,7030 12270,6813 13421,6347 13421,6697 Z"/>
     <path fill="rgb(78,78,78)" stroke="none" d="M 12374,7030 L 12270,7063 12270,7030 12374,7030 Z M 13421,6347 L 13999,6113 13999,6513 13421,6697 13421,6347 Z M 13411,6700 L 12405,7020 12270,7020 12270,6813 13411,6351 13411,6700 Z"/>
     <path fill="rgb(79,79,79)" stroke="none" d="M 12405,7020 L 12270,7063 12270,7020 12405,7020 Z M 13411,6351 L 13999,6113 13999,6513 13411,6700 13411,6351 Z M 13401,6703 L 12437,7010 12270,7010 12270,6813 13401,6355 13401,6703 Z"/>
     <path fill="rgb(80,80,80)" stroke="none" d="M 12437,7010 L 12270,7063 12270,7010 12437,7010 Z M 13401,6355 L 13999,6113 13999,6513 13401,6703 13401,6355 Z M 13391,6706 L 12468,7000 12270,7000 12270,6813 13391,6359 13391,6706 Z"/>
     <path fill="rgb(81,81,81)" stroke="none" d="M 12468,7000 L 12270,7063 12270,7000 12468,7000 Z M 13391,6359 L 13999,6113 13999,6513 13391,6706 13391,6359 Z M 13381,6710 L 12499,6990 12270,6990 12270,6813 13381,6363 13381,6710 Z"/>
     <path fill="rgb(83,83,83)" stroke="none" d="M 12499,6990 L 12270,7063 12270,6990 12499,6990 Z M 13381,6363 L 13999,6113 13999,6513 13381,6710 13381,6363 Z M 13371,6713 L 12531,6980 12270,6980 12270,6813 13371,6367 13371,6713 Z"/>
     <path fill="rgb(84,84,84)" stroke="none" d="M 12531,6980 L 12270,7063 12270,6980 12531,6980 Z M 13371,6367 L 13999,6113 13999,6513 13371,6713 13371,6367 Z M 13360,6716 L 12566,6969 12270,6969 12270,6813 13360,6372 13360,6716 Z"/>
     <path fill="rgb(85,85,85)" stroke="none" d="M 12566,6969 L 12270,7063 12270,6969 12566,6969 Z M 13360,6372 L 13999,6113 13999,6513 13360,6716 13360,6372 Z M 13350,6719 L 12597,6959 12270,6959 12270,6813 13350,6376 13350,6719 Z"/>
     <path fill="rgb(86,86,86)" stroke="none" d="M 12597,6959 L 12270,7063 12270,6959 12597,6959 Z M 13350,6376 L 13999,6113 13999,6513 13350,6719 13350,6376 Z M 13340,6723 L 12628,6949 12270,6949 12270,6813 13340,6380 13340,6723 Z"/>
     <path fill="rgb(87,87,87)" stroke="none" d="M 12628,6949 L 12270,7063 12270,6949 12628,6949 Z M 13340,6380 L 13999,6113 13999,6513 13340,6723 13340,6380 Z M 13330,6726 L 12660,6939 12270,6939 12270,6813 13330,6384 13330,6726 Z"/>
     <path fill="rgb(88,88,88)" stroke="none" d="M 12660,6939 L 12270,7063 12270,6939 12660,6939 Z M 13330,6384 L 13999,6113 13999,6513 13330,6726 13330,6384 Z M 13320,6729 L 12691,6929 12270,6929 12270,6813 13320,6388 13320,6729 Z"/>
     <path fill="rgb(90,90,90)" stroke="none" d="M 12691,6929 L 12270,7063 12270,6929 12691,6929 Z M 13320,6388 L 13999,6113 13999,6513 13320,6729 13320,6388 Z M 13310,6732 L 12723,6919 12270,6919 12270,6813 13310,6392 13310,6732 Z"/>
     <path fill="rgb(91,91,91)" stroke="none" d="M 12723,6919 L 12270,7063 12270,6919 12723,6919 Z M 13310,6392 L 13999,6113 13999,6513 13310,6732 13310,6392 Z M 13300,6735 L 12754,6909 12274,6909 12274,6811 13300,6396 13300,6735 Z"/>
     <path fill="rgb(92,92,92)" stroke="none" d="M 12274,6909 L 12754,6909 12270,7063 12270,6813 12274,6811 12274,6909 Z M 13300,6396 L 13999,6113 13999,6513 13300,6735 13300,6396 Z M 13290,6739 L 12786,6899 12284,6899 12284,6807 13290,6400 13290,6739 Z"/>
     <path fill="rgb(93,93,93)" stroke="none" d="M 12284,6899 L 12786,6899 12270,7063 12270,6813 12284,6807 12284,6899 Z M 13290,6400 L 13999,6113 13999,6513 13290,6739 13290,6400 Z M 13280,6742 L 12817,6889 12294,6889 12294,6803 13280,6404 13280,6742 Z"/>
     <path fill="rgb(94,94,94)" stroke="none" d="M 12294,6889 L 12817,6889 12270,7063 12270,6813 12294,6803 12294,6889 Z M 13280,6404 L 13999,6113 13999,6513 13280,6742 13280,6404 Z M 13270,6745 L 12848,6879 12304,6879 12304,6799 13270,6408 13270,6745 Z"/>
     <path fill="rgb(96,96,96)" stroke="none" d="M 12304,6879 L 12848,6879 12270,7063 12270,6813 12304,6799 12304,6879 Z M 13270,6408 L 13999,6113 13999,6513 13270,6745 13270,6408 Z M 13260,6748 L 12880,6869 12314,6869 12314,6795 13260,6412 13260,6748 Z"/>
     <path fill="rgb(97,97,97)" stroke="none" d="M 12314,6869 L 12880,6869 12270,7063 12270,6813 12314,6795 12314,6869 Z M 13260,6412 L 13999,6113 13999,6513 13260,6748 13260,6412 Z M 13250,6751 L 12911,6859 12324,6859 12324,6791 13250,6416 13250,6751 Z"/>
     <path fill="rgb(98,98,98)" stroke="none" d="M 12324,6859 L 12911,6859 12270,7063 12270,6813 12324,6791 12324,6859 Z M 13250,6416 L 13999,6113 13999,6513 13250,6751 13250,6416 Z M 13240,6754 L 12943,6849 12334,6849 12334,6787 13240,6420 13240,6754 Z"/>
     <path fill="rgb(99,99,99)" stroke="none" d="M 12334,6849 L 12943,6849 12270,7063 12270,6813 12334,6787 12334,6849 Z M 13240,6420 L 13999,6113 13999,6513 13240,6754 13240,6420 Z M 13230,6758 L 12974,6839 12344,6839 12344,6783 13230,6424 13230,6758 Z"/>
     <path fill="rgb(100,100,100)" stroke="none" d="M 12344,6839 L 12974,6839 12270,7063 12270,6813 12344,6783 12344,6839 Z M 13230,6424 L 13999,6113 13999,6513 13230,6758 13230,6424 Z M 13220,6761 L 13006,6829 12355,6829 12355,6779 13220,6428 13220,6761 Z"/>
     <path fill="rgb(102,102,102)" stroke="none" d="M 12355,6829 L 13006,6829 12270,7063 12270,6813 12355,6779 12355,6829 Z M 13220,6428 L 13999,6113 13999,6513 13220,6761 13220,6428 Z M 13209,6764 L 13040,6818 12365,6818 12365,6775 13209,6433 13209,6764 Z"/>
     <path fill="rgb(103,103,103)" stroke="none" d="M 12365,6818 L 13040,6818 12270,7063 12270,6813 12365,6775 12365,6818 Z M 13209,6433 L 13999,6113 13999,6513 13209,6764 13209,6433 Z M 13199,6767 L 13072,6808 12375,6808 12375,6770 13199,6437 13199,6767 Z"/>
     <path fill="rgb(104,104,104)" stroke="none" d="M 12375,6808 L 13072,6808 12270,7063 12270,6813 12375,6770 12375,6808 Z M 13199,6437 L 13999,6113 13999,6513 13199,6767 13199,6437 Z M 13189,6771 L 13103,6798 12385,6798 12385,6766 13189,6441 13189,6771 Z"/>
     <path fill="rgb(105,105,105)" stroke="none" d="M 12385,6798 L 13103,6798 12270,7063 12270,6813 12385,6766 12385,6798 Z M 13189,6441 L 13999,6113 13999,6513 13189,6771 13189,6441 Z M 13179,6774 L 13135,6788 12395,6788 12395,6762 13179,6445 13179,6774 Z"/>
     <path fill="rgb(106,106,106)" stroke="none" d="M 12395,6788 L 13135,6788 12270,7063 12270,6813 12395,6762 12395,6788 Z M 13179,6445 L 13999,6113 13999,6513 13179,6774 13179,6445 Z M 13169,6777 L 13166,6778 12405,6778 12405,6758 13169,6449 13169,6777 Z"/>
     <path fill="rgb(107,107,107)" stroke="none" d="M 12405,6778 L 13166,6778 12270,7063 12270,6813 12405,6758 12405,6778 Z M 13169,6449 L 13999,6113 13999,6513 13169,6777 13169,6449 Z M 13159,6768 L 12415,6768 12415,6754 13159,6453 13159,6768 Z"/>
     <path fill="rgb(109,109,109)" stroke="none" d="M 12415,6768 L 13159,6768 13159,6453 13999,6113 13999,6513 12270,7063 12270,6813 12415,6754 12415,6768 Z M 13149,6758 L 12425,6758 12425,6750 13149,6457 13149,6758 Z"/>
     <path fill="rgb(110,110,110)" stroke="none" d="M 12425,6758 L 13149,6758 13149,6457 13999,6113 13999,6513 12270,7063 12270,6813 12425,6750 12425,6758 Z M 13139,6748 L 12435,6748 12435,6746 13139,6461 13139,6748 Z"/>
     <path fill="rgb(111,111,111)" stroke="none" d="M 12435,6748 L 13139,6748 13139,6461 13999,6113 13999,6513 12270,7063 12270,6813 12435,6746 12435,6748 Z M 13129,6738 L 12455,6738 13129,6465 13129,6738 Z"/>
     <path fill="rgb(112,112,112)" stroke="none" d="M 13129,6738 L 13129,6465 13999,6113 13999,6513 12270,7063 12270,6813 12455,6738 13129,6738 Z M 13119,6728 L 12480,6728 13119,6469 13119,6728 Z"/>
     <path fill="rgb(113,113,113)" stroke="none" d="M 13119,6728 L 13119,6469 13999,6113 13999,6513 12270,7063 12270,6813 12480,6728 13119,6728 Z M 13109,6718 L 12505,6718 13109,6473 13109,6718 Z"/>
     <path fill="rgb(115,115,115)" stroke="none" d="M 13109,6718 L 13109,6473 13999,6113 13999,6513 12270,7063 12270,6813 12505,6718 13109,6718 Z M 13099,6708 L 12529,6708 13099,6477 13099,6708 Z"/>
     <path fill="rgb(116,116,116)" stroke="none" d="M 13099,6708 L 13099,6477 13999,6113 13999,6513 12270,7063 12270,6813 12529,6708 13099,6708 Z M 13089,6698 L 12554,6698 13089,6481 13089,6698 Z"/>
     <path fill="rgb(117,117,117)" stroke="none" d="M 13089,6698 L 13089,6481 13999,6113 13999,6513 12270,7063 12270,6813 12554,6698 13089,6698 Z M 13079,6688 L 12579,6688 13079,6485 13079,6688 Z"/>
     <path fill="rgb(118,118,118)" stroke="none" d="M 13079,6688 L 13079,6485 13999,6113 13999,6513 12270,7063 12270,6813 12579,6688 13079,6688 Z M 13068,6677 L 12606,6677 13068,6490 13068,6677 Z"/>
     <path fill="rgb(119,119,119)" stroke="none" d="M 13068,6677 L 13068,6490 13999,6113 13999,6513 12270,7063 12270,6813 12606,6677 13068,6677 Z M 13058,6667 L 12631,6667 13058,6494 13058,6667 Z"/>
     <path fill="rgb(120,120,120)" stroke="none" d="M 13058,6667 L 13058,6494 13999,6113 13999,6513 12270,7063 12270,6813 12631,6667 13058,6667 Z M 13048,6657 L 12655,6657 13048,6498 13048,6657 Z"/>
     <path fill="rgb(122,122,122)" stroke="none" d="M 13048,6657 L 13048,6498 13999,6113 13999,6513 12270,7063 12270,6813 12655,6657 13048,6657 Z M 13038,6647 L 12680,6647 13038,6502 13038,6647 Z"/>
     <path fill="rgb(123,123,123)" stroke="none" d="M 13038,6647 L 13038,6502 13999,6113 13999,6513 12270,7063 12270,6813 12680,6647 13038,6647 Z M 13028,6637 L 12705,6637 13028,6506 13028,6637 Z"/>
     <path fill="rgb(124,124,124)" stroke="none" d="M 13028,6637 L 13028,6506 13999,6113 13999,6513 12270,7063 12270,6813 12705,6637 13028,6637 Z M 13018,6627 L 12729,6627 13018,6510 13018,6627 Z"/>
     <path fill="rgb(125,125,125)" stroke="none" d="M 13018,6627 L 13018,6510 13999,6113 13999,6513 12270,7063 12270,6813 12729,6627 13018,6627 Z M 13008,6617 L 12754,6617 13008,6514 13008,6617 Z"/>
     <path fill="rgb(126,126,126)" stroke="none" d="M 13008,6617 L 13008,6514 13999,6113 13999,6513 12270,7063 12270,6813 12754,6617 13008,6617 Z M 12998,6607 L 12779,6607 12998,6518 12998,6607 Z"/>
     <path fill="rgb(128,128,128)" stroke="none" d="M 12998,6607 L 12998,6518 13999,6113 13999,6513 12270,7063 12270,6813 12779,6607 12998,6607 Z M 12988,6597 L 12804,6597 12988,6522 12988,6597 Z"/>
     <path fill="rgb(129,129,129)" stroke="none" d="M 12988,6597 L 12988,6522 13999,6113 13999,6513 12270,7063 12270,6813 12804,6597 12988,6597 Z M 12978,6587 L 12828,6587 12978,6526 12978,6587 Z"/>
     <path fill="rgb(130,130,130)" stroke="none" d="M 12978,6587 L 12978,6526 13999,6113 13999,6513 12270,7063 12270,6813 12828,6587 12978,6587 Z M 12968,6577 L 12853,6577 12968,6530 12968,6577 Z"/>
     <path fill="rgb(131,131,131)" stroke="none" d="M 12968,6577 L 12968,6530 13999,6113 13999,6513 12270,7063 12270,6813 12853,6577 12968,6577 Z M 12958,6567 L 12878,6567 12958,6534 12958,6567 Z"/>
     <path fill="rgb(132,132,132)" stroke="none" d="M 12958,6567 L 12958,6534 13999,6113 13999,6513 12270,7063 12270,6813 12878,6567 12958,6567 Z M 12948,6557 L 12902,6557 12948,6539 12948,6557 Z"/>
     <path fill="rgb(134,134,134)" stroke="none" d="M 12948,6557 L 12948,6539 13999,6113 13999,6513 12270,7063 12270,6813 12902,6557 12948,6557 Z M 12938,6547 L 12927,6547 12938,6543 12938,6547 Z"/>
     <path fill="rgb(135,135,135)" stroke="none" d="M 12938,6547 L 12938,6543 13999,6113 13999,6513 12270,7063 12270,6813 12927,6547 12938,6547 Z"/>
     <path fill="rgb(136,136,136)" stroke="none" d="M 12270,6813 L 13999,6113 13999,6513 12270,7063 12270,6813 Z"/>
     <path fill="rgb(137,137,137)" stroke="none" d="M 12270,6813 L 13999,6113 13999,6513 12270,7063 12270,6813 Z"/>
     <path fill="rgb(138,138,138)" stroke="none" d="M 12270,6813 L 13999,6113 13999,6513 12270,7063 12270,6813 Z"/>
     <path fill="rgb(139,139,139)" stroke="none" d="M 12270,6813 L 13999,6113 13999,6513 12270,7063 12270,6813 Z"/>
     <path fill="rgb(141,141,141)" stroke="none" d="M 12270,6813 L 13999,6113 13999,6513 12270,7063 12270,6813 Z"/>
     <path fill="rgb(142,142,142)" stroke="none" d="M 12270,6813 L 13999,6113 13999,6513 12270,7063 12270,6813 Z"/>
     <path fill="rgb(143,143,143)" stroke="none" d="M 12270,6813 L 13999,6113 13999,6513 12270,7063 12270,6813 Z"/>
     <path fill="rgb(144,144,144)" stroke="none" d="M 12270,6813 L 13999,6113 13999,6513 12270,7063 12270,6813 Z"/>
     <path fill="rgb(145,145,145)" stroke="none" d="M 12270,6813 L 13999,6113 13999,6513 12270,7063 12270,6813 Z"/>
     <path fill="rgb(147,147,147)" stroke="none" d="M 12270,6813 L 13999,6113 13999,6513 12270,7063 12270,6813 Z"/>
     <path fill="rgb(148,148,148)" stroke="none" d="M 12270,6813 L 13999,6113 13999,6513 12270,7063 12270,6813 Z"/>
     <path fill="rgb(149,149,149)" stroke="none" d="M 12270,6813 L 13999,6113 13999,6513 12270,7063 12270,6813 Z"/>
     <path fill="rgb(150,150,150)" stroke="none" d="M 12270,6813 L 13999,6113 13999,6513 12270,7063 12270,6813 Z"/>
     <path fill="rgb(153,153,153)" stroke="none" d="M 12270,6813 L 13999,6113 13999,6513 12270,7063 12270,6813 Z"/>
     <path fill="none" stroke="rgb(178,178,178)" id="Drawing_6_0" stroke-width="40" stroke-linejoin="round" d="M 12270,6813 L 13999,6113 13999,6513 12270,7063 12270,6813 Z"/>
    </g>
    <g>
     <defs>
      <linearGradient id="Gradient_251" gradientUnits="userSpaceOnUse" x1="12270" y1="5113" x2="12270" y2="6813">
       <stop offset="0.1" stop-color="rgb(51,51,51)"/>
       <stop offset="1" stop-color="rgb(153,153,153)"/>
      </linearGradient>
     </defs>
     <path fill="url(#Gradient_251)" stroke="rgb(178,178,178)" id="Drawing_7_0" stroke-width="40" stroke-linejoin="round" d="M 12270,6813 L 10541,5813 12270,5113 14000,6113 12270,6813 Z"/>
    </g>
    <g>
     <defs>
      <linearGradient id="Gradient_252" gradientUnits="userSpaceOnUse" x1="10539" y1="6436" x2="12270" y2="6440">
       <stop offset="0.1" stop-color="rgb(51,51,51)"/>
       <stop offset="1" stop-color="rgb(153,153,153)"/>
      </linearGradient>
     </defs>
     <path fill="url(#Gradient_252)" stroke="rgb(178,178,178)" id="Drawing_8_0" stroke-width="40" stroke-linejoin="round" d="M 10541,6063 L 10541,5813 12270,6813 12270,7063 10541,6063 Z"/>
    </g>
    <g>
     <path fill="none" stroke="rgb(0,0,0)" id="Drawing_9_0" stroke-width="40" stroke-linejoin="round" d="M 11405,5163 L 11405,3663 13135,2663 16593,4663 16593,6163 14864,7163 13827,6563 12270,7063 10541,6063 10541,5813 11752,5313 11405,5163 Z"/>
    </g>
    <g>
     <path fill="rgb(255,255,255)" stroke="none" d="M 11839,6713 C 11492,6513 10974,6213 10628,6013 11060,5763 11925,5413 12531,5263 12876,5463 13308,5713 13740,5963 13222,6113 12357,6463 11839,6713 Z"/>
     <path fill="none" stroke="rgb(102,102,102)" id="Drawing_10_0" stroke-width="40" stroke-linejoin="round" d="M 11839,6713 C 11492,6513 10974,6213 10628,6013 11060,5763 11925,5413 12531,5263 12876,5463 13308,5713 13740,5963 13222,6113 12357,6463 11839,6713 Z"/>
    </g>
    <g>
     <path fill="none" stroke="rgb(102,102,102)" id="Drawing_11_0" stroke-width="40" stroke-linejoin="round" d="M 12270,5113 L 12270,4913 13999,5913 13999,6063"/>
    </g>
    <g>
     <defs>
      <linearGradient id="Gradient_253" gradientUnits="userSpaceOnUse" x1="13913" y1="3263" x2="13913" y2="5163">
       <stop offset="0.1" stop-color="rgb(51,51,51)"/>
       <stop offset="1" stop-color="rgb(153,153,153)"/>
      </linearGradient>
     </defs>
     <path fill="url(#Gradient_253)" stroke="rgb(178,178,178)" id="Drawing_12_0" stroke-width="40" stroke-linejoin="round" d="M 13999,5163 L 12270,4163 13826,3263 15556,4263 13999,5163 Z"/>
    </g>
    <g>
     <defs>
      <linearGradient id="Gradient_254" gradientUnits="userSpaceOnUse" x1="12268" y1="4911" x2="13999" y2="4915">
       <stop offset="0.1" stop-color="rgb(51,51,51)"/>
       <stop offset="1" stop-color="rgb(153,153,153)"/>
      </linearGradient>
     </defs>
     <path fill="url(#Gradient_254)" stroke="rgb(178,178,178)" id="Drawing_13_0" stroke-width="40" stroke-linejoin="round" d="M 12270,4663 L 12270,4163 13999,5163 13999,5663 12270,4663 Z"/>
    </g>
   </g>
  </g>
 </g>
</svg>