<?xml version="1.0" encoding="UTF-8"?>

<svg version="1.2" baseProfile="tiny" width="47.67mm" height="49.49mm" viewBox="10922 4291 4767 4949" preserveAspectRatio="xMidYMid" fill-rule="evenodd" stroke-width="28.222" stroke-linejoin="round" xmlns="http://www.w3.org/2000/svg" xmlns:xlink="http://www.w3.org/1999/xlink" xml:space="preserve">
 <g visibility="visible" id="Slide_1">
  <g id="DrawingGroup_1">
   <g>
    <path fill="rgb(221,221,221)" stroke="none" d="M 13396,9220 C 13636,9220 15669,8714 15669,8258 15669,7803 15122,7803 14881,7803 14881,7955 13308,8107 13396,9220 Z"/>
    <path fill="none" stroke="rgb(221,221,221)" id="Drawing_1_0" stroke-width="40" stroke-linejoin="round" d="M 13396,9220 C 13636,9220 15669,8714 15669,8258 15669,7803 15122,7803 14881,7803 14881,7955 13308,8107 13396,9220 Z"/>
   </g>
   <g id="DrawingGroup_2">
    <g>
     <defs>
      <linearGradient id="Gradient_109" gradientUnits="userSpaceOnUse" x1="12999" y1="6588" x2="12999" y2="8967">
       <stop offset="0.1" stop-color="rgb(51,51,51)"/>
       <stop offset="1" stop-color="rgb(153,153,153)"/>
      </linearGradient>
     </defs>
     <path fill="url(#Gradient_109)" stroke="rgb(178,178,178)" id="Drawing_2_0" stroke-width="40" stroke-linejoin="round" d="M 13393,8967 L 10942,7550 12605,6588 15057,8005 13393,8967 Z"/>
    </g>
    <g>
     <path fill="rgb(102,102,102)" stroke="none" d="M 11905,7246 L 12605,6841 14619,8005 13919,8410 11905,7246 Z"/>
     <path fill="none" stroke="rgb(178,178,178)" id="Drawing_3_0" stroke-width="40" stroke-linejoin="round" d="M 11905,7246 L 12605,6841 14619,8005 13919,8410 11905,7246 Z"/>
    </g>
    <g>
     <defs>
      <linearGradient id="Gradient_110" gradientUnits="userSpaceOnUse" x1="12601" y1="6182" x2="15058" y2="6186">
       <stop offset="0.1" stop-color="rgb(51,51,51)"/>
       <stop offset="1" stop-color="rgb(153,153,153)"/>
      </linearGradient>
     </defs>
     <path fill="url(#Gradient_110)" stroke="rgb(178,178,178)" id="Drawing_4_0" stroke-width="40" stroke-linejoin="round" d="M 12605,6589 L 12605,4362 15056,5779 15056,8006 12605,6589 Z"/>
    </g>
    <g>
     <defs>
      <linearGradient id="Gradient_111" gradientUnits="userSpaceOnUse" x1="12690" y1="6105" x2="14972" y2="6109">
       <stop offset="0.1" stop-color="rgb(147,212,240)"/>
       <stop offset="1" stop-color="rgb(233,246,252)"/>
      </linearGradient>
     </defs>
     <path fill="url(#Gradient_111)" stroke="rgb(102,102,102)" id="Drawing_5_0" stroke-width="40" stroke-linejoin="round" d="M 12693,6385 L 12693,4513 14969,5829 14969,7701 12693,6385 Z"/>
    </g>
    <g>
     <defs>
      <linearGradient id="Gradient_112" gradientUnits="userSpaceOnUse" x1="13874" y1="4311" x2="13874" y2="5779">
       <stop offset="0.1" stop-color="rgb(51,51,51)"/>
       <stop offset="1" stop-color="rgb(153,153,153)"/>
      </linearGradient>
     </defs>
     <path fill="url(#Gradient_112)" stroke="rgb(178,178,178)" id="Drawing_6_0" stroke-width="40" stroke-linejoin="round" d="M 15056,5779 L 12605,4362 12693,4311 15144,5728 15056,5779 Z"/>
    </g>
    <g>
     <path fill="rgb(51,51,51)" stroke="none" d="M 15057,7538 L 15057,5779 15145,5728 15145,7538 15057,7538 Z"/>
     <path fill="rgb(52,52,52)" stroke="none" d="M 15145,7538 L 15145,7955 15057,8005 15057,7538 15145,7538 Z M 15057,7527 L 15057,5779 15145,5728 15145,7527 15057,7527 Z"/>
     <path fill="rgb(53,53,53)" stroke="none" d="M 15145,7527 L 15145,7955 15057,8005 15057,7527 15145,7527 Z M 15057,7516 L 15057,5779 15145,5728 15145,7516 15057,7516 Z"/>
     <path fill="rgb(54,54,54)" stroke="none" d="M 15145,7516 L 15145,7955 15057,8005 15057,7516 15145,7516 Z M 15057,7505 L 15057,5779 15145,5728 15145,7505 15057,7505 Z"/>
     <path fill="rgb(55,55,55)" stroke="none" d="M 15145,7505 L 15145,7955 15057,8005 15057,7505 15145,7505 Z M 15057,7494 L 15057,5779 15145,5728 15145,7494 15057,7494 Z"/>
     <path fill="rgb(56,56,56)" stroke="none" d="M 15145,7494 L 15145,7955 15057,8005 15057,7494 15145,7494 Z M 15057,7482 L 15057,5779 15145,5728 15145,7482 15057,7482 Z"/>
     <path fill="rgb(57,57,57)" stroke="none" d="M 15145,7482 L 15145,7955 15057,8005 15057,7482 15145,7482 Z M 15057,7471 L 15057,5779 15145,5728 15145,7471 15057,7471 Z"/>
     <path fill="rgb(58,58,58)" stroke="none" d="M 15145,7471 L 15145,7955 15057,8005 15057,7471 15145,7471 Z M 15057,7460 L 15057,5779 15145,5728 15145,7460 15057,7460 Z"/>
     <path fill="rgb(59,59,59)" stroke="none" d="M 15145,7460 L 15145,7955 15057,8005 15057,7460 15145,7460 Z M 15057,7449 L 15057,5779 15145,5728 15145,7449 15057,7449 Z"/>
     <path fill="rgb(60,60,60)" stroke="none" d="M 15145,7449 L 15145,7955 15057,8005 15057,7449 15145,7449 Z M 15057,7438 L 15057,5779 15145,5728 15145,7438 15057,7438 Z"/>
     <path fill="rgb(61,61,61)" stroke="none" d="M 15145,7438 L 15145,7955 15057,8005 15057,7438 15145,7438 Z M 15057,7427 L 15057,5779 15145,5728 15145,7427 15057,7427 Z"/>
     <path fill="rgb(62,62,62)" stroke="none" d="M 15145,7427 L 15145,7955 15057,8005 15057,7427 15145,7427 Z M 15057,7415 L 15057,5779 15145,5728 15145,7415 15057,7415 Z"/>
     <path fill="rgb(63,63,63)" stroke="none" d="M 15145,7415 L 15145,7955 15057,8005 15057,7415 15145,7415 Z M 15057,7404 L 15057,5779 15145,5728 15145,7404 15057,7404 Z"/>
     <path fill="rgb(64,64,64)" stroke="none" d="M 15145,7404 L 15145,7955 15057,8005 15057,7404 15145,7404 Z M 15057,7393 L 15057,5779 15145,5728 15145,7393 15057,7393 Z"/>
     <path fill="rgb(65,65,65)" stroke="none" d="M 15145,7393 L 15145,7955 15057,8005 15057,7393 15145,7393 Z M 15057,7382 L 15057,5779 15145,5728 15145,7382 15057,7382 Z"/>
     <path fill="rgb(66,66,66)" stroke="none" d="M 15145,7382 L 15145,7955 15057,8005 15057,7382 15145,7382 Z M 15057,7371 L 15057,5779 15145,5728 15145,7371 15057,7371 Z"/>
     <path fill="rgb(67,67,67)" stroke="none" d="M 15145,7371 L 15145,7955 15057,8005 15057,7371 15145,7371 Z M 15057,7359 L 15057,5779 15145,5728 15145,7359 15057,7359 Z"/>
     <path fill="rgb(68,68,68)" stroke="none" d="M 15145,7359 L 15145,7955 15057,8005 15057,7359 15145,7359 Z M 15057,7348 L 15057,5779 15145,5728 15145,7348 15057,7348 Z"/>
     <path fill="rgb(69,69,69)" stroke="none" d="M 15145,7348 L 15145,7955 15057,8005 15057,7348 15145,7348 Z M 15057,7337 L 15057,5779 15145,5728 15145,7337 15057,7337 Z"/>
     <path fill="rgb(70,70,70)" stroke="none" d="M 15145,7337 L 15145,7955 15057,8005 15057,7337 15145,7337 Z M 15057,7326 L 15057,5779 15145,5728 15145,7326 15057,7326 Z"/>
     <path fill="rgb(71,71,71)" stroke="none" d="M 15145,7326 L 15145,7955 15057,8005 15057,7326 15145,7326 Z M 15057,7315 L 15057,5779 15145,5728 15145,7315 15057,7315 Z"/>
     <path fill="rgb(72,72,72)" stroke="none" d="M 15145,7315 L 15145,7955 15057,8005 15057,7315 15145,7315 Z M 15057,7304 L 15057,5779 15145,5728 15145,7304 15057,7304 Z"/>
     <path fill="rgb(73,73,73)" stroke="none" d="M 15145,7304 L 15145,7955 15057,8005 15057,7304 15145,7304 Z M 15057,7292 L 15057,5779 15145,5728 15145,7292 15057,7292 Z"/>
     <path fill="rgb(74,74,74)" stroke="none" d="M 15145,7292 L 15145,7955 15057,8005 15057,7292 15145,7292 Z M 15057,7281 L 15057,5779 15145,5728 15145,7281 15057,7281 Z"/>
     <path fill="rgb(75,75,75)" stroke="none" d="M 15145,7281 L 15145,7955 15057,8005 15057,7281 15145,7281 Z M 15057,7270 L 15057,5779 15145,5728 15145,7270 15057,7270 Z"/>
     <path fill="rgb(76,76,76)" stroke="none" d="M 15145,7270 L 15145,7955 15057,8005 15057,7270 15145,7270 Z M 15057,7259 L 15057,5779 15145,5728 15145,7259 15057,7259 Z"/>
     <path fill="rgb(77,77,77)" stroke="none" d="M 15145,7259 L 15145,7955 15057,8005 15057,7259 15145,7259 Z M 15057,7248 L 15057,5779 15145,5728 15145,7248 15057,7248 Z"/>
     <path fill="rgb(78,78,78)" stroke="none" d="M 15145,7248 L 15145,7955 15057,8005 15057,7248 15145,7248 Z M 15057,7237 L 15057,5779 15145,5728 15145,7237 15057,7237 Z"/>
     <path fill="rgb(79,79,79)" stroke="none" d="M 15145,7237 L 15145,7955 15057,8005 15057,7237 15145,7237 Z M 15057,7225 L 15057,5779 15145,5728 15145,7225 15057,7225 Z"/>
     <path fill="rgb(80,80,80)" stroke="none" d="M 15145,7225 L 15145,7955 15057,8005 15057,7225 15145,7225 Z M 15057,7214 L 15057,5779 15145,5728 15145,7214 15057,7214 Z"/>
     <path fill="rgb(81,81,81)" stroke="none" d="M 15145,7214 L 15145,7955 15057,8005 15057,7214 15145,7214 Z M 15057,7203 L 15057,5779 15145,5728 15145,7203 15057,7203 Z"/>
     <path fill="rgb(82,82,82)" stroke="none" d="M 15145,7203 L 15145,7955 15057,8005 15057,7203 15145,7203 Z M 15057,7192 L 15057,5779 15145,5728 15145,7192 15057,7192 Z"/>
     <path fill="rgb(83,83,83)" stroke="none" d="M 15145,7192 L 15145,7955 15057,8005 15057,7192 15145,7192 Z M 15057,7181 L 15057,5779 15145,5728 15145,7181 15057,7181 Z"/>
     <path fill="rgb(84,84,84)" stroke="none" d="M 15145,7181 L 15145,7955 15057,8005 15057,7181 15145,7181 Z M 15057,7169 L 15057,5779 15145,5728 15145,7169 15057,7169 Z"/>
     <path fill="rgb(85,85,85)" stroke="none" d="M 15145,7169 L 15145,7955 15057,8005 15057,7169 15145,7169 Z M 15057,7158 L 15057,5779 15145,5728 15145,7158 15057,7158 Z"/>
     <path fill="rgb(86,86,86)" stroke="none" d="M 15145,7158 L 15145,7955 15057,8005 15057,7158 15145,7158 Z M 15057,7147 L 15057,5779 15145,5728 15145,7147 15057,7147 Z"/>
     <path fill="rgb(87,87,87)" stroke="none" d="M 15145,7147 L 15145,7955 15057,8005 15057,7147 15145,7147 Z M 15057,7136 L 15057,5779 15145,5728 15145,7136 15057,7136 Z"/>
     <path fill="rgb(88,88,88)" stroke="none" d="M 15145,7136 L 15145,7955 15057,8005 15057,7136 15145,7136 Z M 15057,7125 L 15057,5779 15145,5728 15145,7125 15057,7125 Z"/>
     <path fill="rgb(89,89,89)" stroke="none" d="M 15145,7125 L 15145,7955 15057,8005 15057,7125 15145,7125 Z M 15057,7114 L 15057,5779 15145,5728 15145,7114 15057,7114 Z"/>
     <path fill="rgb(90,90,90)" stroke="none" d="M 15145,7114 L 15145,7955 15057,8005 15057,7114 15145,7114 Z M 15057,7102 L 15057,5779 15145,5728 15145,7102 15057,7102 Z"/>
     <path fill="rgb(91,91,91)" stroke="none" d="M 15145,7102 L 15145,7955 15057,8005 15057,7102 15145,7102 Z M 15145,5729 L 15145,7091 15057,7091 15057,5779 15143,5729 15145,5729 Z"/>
     <path fill="rgb(92,92,92)" stroke="none" d="M 15145,7091 L 15145,7955 15057,8005 15057,7091 15145,7091 Z M 15143,5729 L 15145,5728 15145,5729 15143,5729 Z M 15145,5740 L 15145,7080 15057,7080 15057,5779 15124,5740 15145,5740 Z"/>
     <path fill="rgb(93,93,93)" stroke="none" d="M 15145,7080 L 15145,7955 15057,8005 15057,7080 15145,7080 Z M 15124,5740 L 15145,5728 15145,5740 15124,5740 Z M 15145,5751 L 15145,7069 15057,7069 15057,5779 15105,5751 15145,5751 Z"/>
     <path fill="rgb(94,94,94)" stroke="none" d="M 15145,7069 L 15145,7955 15057,8005 15057,7069 15145,7069 Z M 15105,5751 L 15145,5728 15145,5751 15105,5751 Z M 15145,5762 L 15145,7058 15057,7058 15057,5779 15086,5762 15145,5762 Z"/>
     <path fill="rgb(95,95,95)" stroke="none" d="M 15145,7058 L 15145,7955 15057,8005 15057,7058 15145,7058 Z M 15086,5762 L 15145,5728 15145,5762 15086,5762 Z M 15145,5773 L 15145,7047 15057,7047 15057,5779 15067,5773 15145,5773 Z"/>
     <path fill="rgb(96,96,96)" stroke="none" d="M 15145,7047 L 15145,7955 15057,8005 15057,7047 15145,7047 Z M 15067,5773 L 15145,5728 15145,5773 15067,5773 Z M 15145,5785 L 15145,7035 15057,7035 15057,5785 15145,5785 Z"/>
     <path fill="rgb(97,97,97)" stroke="none" d="M 15145,7035 L 15145,7955 15057,8005 15057,7035 15145,7035 Z M 15057,5785 L 15057,5779 15145,5728 15145,5785 15057,5785 Z M 15145,5796 L 15145,7024 15057,7024 15057,5796 15145,5796 Z"/>
     <path fill="rgb(98,98,98)" stroke="none" d="M 15145,7024 L 15145,7955 15057,8005 15057,7024 15145,7024 Z M 15057,5796 L 15057,5779 15145,5728 15145,5796 15057,5796 Z M 15145,5807 L 15145,7013 15057,7013 15057,5807 15145,5807 Z"/>
     <path fill="rgb(99,99,99)" stroke="none" d="M 15145,7013 L 15145,7955 15057,8005 15057,7013 15145,7013 Z M 15057,5807 L 15057,5779 15145,5728 15145,5807 15057,5807 Z M 15145,5818 L 15145,7002 15057,7002 15057,5818 15145,5818 Z"/>
     <path fill="rgb(100,100,100)" stroke="none" d="M 15145,7002 L 15145,7955 15057,8005 15057,7002 15145,7002 Z M 15057,5818 L 15057,5779 15145,5728 15145,5818 15057,5818 Z M 15145,5829 L 15145,6991 15057,6991 15057,5829 15145,5829 Z"/>
     <path fill="rgb(101,101,101)" stroke="none" d="M 15145,6991 L 15145,7955 15057,8005 15057,6991 15145,6991 Z M 15057,5829 L 15057,5779 15145,5728 15145,5829 15057,5829 Z M 15145,5841 L 15145,6979 15057,6979 15057,5841 15145,5841 Z"/>
     <path fill="rgb(102,102,102)" stroke="none" d="M 15145,6979 L 15145,7955 15057,8005 15057,6979 15145,6979 Z M 15057,5841 L 15057,5779 15145,5728 15145,5841 15057,5841 Z M 15145,5852 L 15145,6968 15057,6968 15057,5852 15145,5852 Z"/>
     <path fill="rgb(103,103,103)" stroke="none" d="M 15145,6968 L 15145,7955 15057,8005 15057,6968 15145,6968 Z M 15057,5852 L 15057,5779 15145,5728 15145,5852 15057,5852 Z M 15145,5863 L 15145,6957 15057,6957 15057,5863 15145,5863 Z"/>
     <path fill="rgb(104,104,104)" stroke="none" d="M 15145,6957 L 15145,7955 15057,8005 15057,6957 15145,6957 Z M 15057,5863 L 15057,5779 15145,5728 15145,5863 15057,5863 Z M 15145,5874 L 15145,6946 15057,6946 15057,5874 15145,5874 Z"/>
     <path fill="rgb(105,105,105)" stroke="none" d="M 15145,6946 L 15145,7955 15057,8005 15057,6946 15145,6946 Z M 15057,5874 L 15057,5779 15145,5728 15145,5874 15057,5874 Z M 15145,5885 L 15145,6935 15057,6935 15057,5885 15145,5885 Z"/>
     <path fill="rgb(106,106,106)" stroke="none" d="M 15145,6935 L 15145,7955 15057,8005 15057,6935 15145,6935 Z M 15057,5885 L 15057,5779 15145,5728 15145,5885 15057,5885 Z M 15145,5896 L 15145,6924 15057,6924 15057,5896 15145,5896 Z"/>
     <path fill="rgb(107,107,107)" stroke="none" d="M 15145,6924 L 15145,7955 15057,8005 15057,6924 15145,6924 Z M 15057,5896 L 15057,5779 15145,5728 15145,5896 15057,5896 Z M 15145,5908 L 15145,6912 15057,6912 15057,5908 15145,5908 Z"/>
     <path fill="rgb(108,108,108)" stroke="none" d="M 15145,6912 L 15145,7955 15057,8005 15057,6912 15145,6912 Z M 15057,5908 L 15057,5779 15145,5728 15145,5908 15057,5908 Z M 15145,5919 L 15145,6901 15057,6901 15057,5919 15145,5919 Z"/>
     <path fill="rgb(109,109,109)" stroke="none" d="M 15145,6901 L 15145,7955 15057,8005 15057,6901 15145,6901 Z M 15057,5919 L 15057,5779 15145,5728 15145,5919 15057,5919 Z M 15145,5930 L 15145,6890 15057,6890 15057,5930 15145,5930 Z"/>
     <path fill="rgb(110,110,110)" stroke="none" d="M 15145,6890 L 15145,7955 15057,8005 15057,6890 15145,6890 Z M 15057,5930 L 15057,5779 15145,5728 15145,5930 15057,5930 Z M 15145,5941 L 15145,6879 15057,6879 15057,5941 15145,5941 Z"/>
     <path fill="rgb(111,111,111)" stroke="none" d="M 15145,6879 L 15145,7955 15057,8005 15057,6879 15145,6879 Z M 15057,5941 L 15057,5779 15145,5728 15145,5941 15057,5941 Z M 15145,5952 L 15145,6868 15057,6868 15057,5952 15145,5952 Z"/>
     <path fill="rgb(112,112,112)" stroke="none" d="M 15145,6868 L 15145,7955 15057,8005 15057,6868 15145,6868 Z M 15057,5952 L 15057,5779 15145,5728 15145,5952 15057,5952 Z M 15145,5963 L 15145,6857 15057,6857 15057,5963 15145,5963 Z"/>
     <path fill="rgb(113,113,113)" stroke="none" d="M 15145,6857 L 15145,7955 15057,8005 15057,6857 15145,6857 Z M 15057,5963 L 15057,5779 15145,5728 15145,5963 15057,5963 Z M 15145,5975 L 15145,6845 15057,6845 15057,5975 15145,5975 Z"/>
     <path fill="rgb(114,114,114)" stroke="none" d="M 15145,6845 L 15145,7955 15057,8005 15057,6845 15145,6845 Z M 15057,5975 L 15057,5779 15145,5728 15145,5975 15057,5975 Z M 15145,5986 L 15145,6834 15057,6834 15057,5986 15145,5986 Z"/>
     <path fill="rgb(115,115,115)" stroke="none" d="M 15145,6834 L 15145,7955 15057,8005 15057,6834 15145,6834 Z M 15057,5986 L 15057,5779 15145,5728 15145,5986 15057,5986 Z M 15145,5997 L 15145,6823 15057,6823 15057,5997 15145,5997 Z"/>
     <path fill="rgb(116,116,116)" stroke="none" d="M 15145,6823 L 15145,7955 15057,8005 15057,6823 15145,6823 Z M 15057,5997 L 15057,5779 15145,5728 15145,5997 15057,5997 Z M 15145,6008 L 15145,6812 15057,6812 15057,6008 15145,6008 Z"/>
     <path fill="rgb(117,117,117)" stroke="none" d="M 15145,6812 L 15145,7955 15057,8005 15057,6812 15145,6812 Z M 15057,6008 L 15057,5779 15145,5728 15145,6008 15057,6008 Z M 15145,6019 L 15145,6801 15057,6801 15057,6019 15145,6019 Z"/>
     <path fill="rgb(118,118,118)" stroke="none" d="M 15145,6801 L 15145,7955 15057,8005 15057,6801 15145,6801 Z M 15057,6019 L 15057,5779 15145,5728 15145,6019 15057,6019 Z M 15145,6031 L 15145,6789 15057,6789 15057,6031 15145,6031 Z"/>
     <path fill="rgb(119,119,119)" stroke="none" d="M 15145,6789 L 15145,7955 15057,8005 15057,6789 15145,6789 Z M 15057,6031 L 15057,5779 15145,5728 15145,6031 15057,6031 Z M 15145,6042 L 15145,6778 15057,6778 15057,6042 15145,6042 Z"/>
     <path fill="rgb(120,120,120)" stroke="none" d="M 15145,6778 L 15145,7955 15057,8005 15057,6778 15145,6778 Z M 15057,6042 L 15057,5779 15145,5728 15145,6042 15057,6042 Z M 15145,6053 L 15145,6767 15057,6767 15057,6053 15145,6053 Z"/>
     <path fill="rgb(121,121,121)" stroke="none" d="M 15145,6767 L 15145,7955 15057,8005 15057,6767 15145,6767 Z M 15057,6053 L 15057,5779 15145,5728 15145,6053 15057,6053 Z M 15145,6064 L 15145,6756 15057,6756 15057,6064 15145,6064 Z"/>
     <path fill="rgb(122,122,122)" stroke="none" d="M 15145,6756 L 15145,7955 15057,8005 15057,6756 15145,6756 Z M 15057,6064 L 15057,5779 15145,5728 15145,6064 15057,6064 Z M 15145,6075 L 15145,6745 15057,6745 15057,6075 15145,6075 Z"/>
     <path fill="rgb(123,123,123)" stroke="none" d="M 15145,6745 L 15145,7955 15057,8005 15057,6745 15145,6745 Z M 15057,6075 L 15057,5779 15145,5728 15145,6075 15057,6075 Z M 15145,6086 L 15145,6734 15057,6734 15057,6086 15145,6086 Z"/>
     <path fill="rgb(124,124,124)" stroke="none" d="M 15145,6734 L 15145,7955 15057,8005 15057,6734 15145,6734 Z M 15057,6086 L 15057,5779 15145,5728 15145,6086 15057,6086 Z M 15145,6098 L 15145,6722 15057,6722 15057,6098 15145,6098 Z"/>
     <path fill="rgb(125,125,125)" stroke="none" d="M 15145,6722 L 15145,7955 15057,8005 15057,6722 15145,6722 Z M 15057,6098 L 15057,5779 15145,5728 15145,6098 15057,6098 Z M 15145,6109 L 15145,6711 15057,6711 15057,6109 15145,6109 Z"/>
     <path fill="rgb(126,126,126)" stroke="none" d="M 15145,6711 L 15145,7955 15057,8005 15057,6711 15145,6711 Z M 15057,6109 L 15057,5779 15145,5728 15145,6109 15057,6109 Z M 15145,6120 L 15145,6700 15057,6700 15057,6120 15145,6120 Z"/>
     <path fill="rgb(127,127,127)" stroke="none" d="M 15145,6700 L 15145,7955 15057,8005 15057,6700 15145,6700 Z M 15057,6120 L 15057,5779 15145,5728 15145,6120 15057,6120 Z M 15145,6131 L 15145,6689 15057,6689 15057,6131 15145,6131 Z"/>
     <path fill="rgb(128,128,128)" stroke="none" d="M 15145,6689 L 15145,7955 15057,8005 15057,6689 15145,6689 Z M 15057,6131 L 15057,5779 15145,5728 15145,6131 15057,6131 Z M 15145,6142 L 15145,6678 15057,6678 15057,6142 15145,6142 Z"/>
     <path fill="rgb(129,129,129)" stroke="none" d="M 15145,6678 L 15145,7955 15057,8005 15057,6678 15145,6678 Z M 15057,6142 L 15057,5779 15145,5728 15145,6142 15057,6142 Z M 15145,6153 L 15145,6667 15057,6667 15057,6153 15145,6153 Z"/>
     <path fill="rgb(130,130,130)" stroke="none" d="M 15145,6667 L 15145,7955 15057,8005 15057,6667 15145,6667 Z M 15057,6153 L 15057,5779 15145,5728 15145,6153 15057,6153 Z M 15145,6165 L 15145,6655 15057,6655 15057,6165 15145,6165 Z"/>
     <path fill="rgb(131,131,131)" stroke="none" d="M 15145,6655 L 15145,7955 15057,8005 15057,6655 15145,6655 Z M 15057,6165 L 15057,5779 15145,5728 15145,6165 15057,6165 Z M 15145,6176 L 15145,6644 15057,6644 15057,6176 15145,6176 Z"/>
     <path fill="rgb(132,132,132)" stroke="none" d="M 15145,6644 L 15145,7955 15057,8005 15057,6644 15145,6644 Z M 15057,6176 L 15057,5779 15145,5728 15145,6176 15057,6176 Z M 15145,6187 L 15145,6633 15057,6633 15057,6187 15145,6187 Z"/>
     <path fill="rgb(133,133,133)" stroke="none" d="M 15145,6633 L 15145,7955 15057,8005 15057,6633 15145,6633 Z M 15057,6187 L 15057,5779 15145,5728 15145,6187 15057,6187 Z M 15145,6198 L 15145,6622 15057,6622 15057,6198 15145,6198 Z"/>
     <path fill="rgb(134,134,134)" stroke="none" d="M 15145,6622 L 15145,7955 15057,8005 15057,6622 15145,6622 Z M 15057,6198 L 15057,5779 15145,5728 15145,6198 15057,6198 Z M 15145,6209 L 15145,6611 15057,6611 15057,6209 15145,6209 Z"/>
     <path fill="rgb(135,135,135)" stroke="none" d="M 15145,6611 L 15145,7955 15057,8005 15057,6611 15145,6611 Z M 15057,6209 L 15057,5779 15145,5728 15145,6209 15057,6209 Z M 15145,6221 L 15145,6599 15057,6599 15057,6221 15145,6221 Z"/>
     <path fill="rgb(136,136,136)" stroke="none" d="M 15145,6599 L 15145,7955 15057,8005 15057,6599 15145,6599 Z M 15057,6221 L 15057,5779 15145,5728 15145,6221 15057,6221 Z M 15145,6232 L 15145,6588 15057,6588 15057,6232 15145,6232 Z"/>
     <path fill="rgb(137,137,137)" stroke="none" d="M 15145,6588 L 15145,7955 15057,8005 15057,6588 15145,6588 Z M 15057,6232 L 15057,5779 15145,5728 15145,6232 15057,6232 Z M 15145,6243 L 15145,6577 15057,6577 15057,6243 15145,6243 Z"/>
     <path fill="rgb(138,138,138)" stroke="none" d="M 15145,6577 L 15145,7955 15057,8005 15057,6577 15145,6577 Z M 15057,6243 L 15057,5779 15145,5728 15145,6243 15057,6243 Z M 15145,6254 L 15145,6566 15057,6566 15057,6254 15145,6254 Z"/>
     <path fill="rgb(139,139,139)" stroke="none" d="M 15145,6566 L 15145,7955 15057,8005 15057,6566 15145,6566 Z M 15057,6254 L 15057,5779 15145,5728 15145,6254 15057,6254 Z M 15145,6265 L 15145,6555 15057,6555 15057,6265 15145,6265 Z"/>
     <path fill="rgb(140,140,140)" stroke="none" d="M 15145,6555 L 15145,7955 15057,8005 15057,6555 15145,6555 Z M 15057,6265 L 15057,5779 15145,5728 15145,6265 15057,6265 Z M 15145,6276 L 15145,6544 15057,6544 15057,6276 15145,6276 Z"/>
     <path fill="rgb(141,141,141)" stroke="none" d="M 15145,6544 L 15145,7955 15057,8005 15057,6544 15145,6544 Z M 15057,6276 L 15057,5779 15145,5728 15145,6276 15057,6276 Z M 15145,6288 L 15145,6532 15057,6532 15057,6288 15145,6288 Z"/>
     <path fill="rgb(142,142,142)" stroke="none" d="M 15145,6532 L 15145,7955 15057,8005 15057,6532 15145,6532 Z M 15057,6288 L 15057,5779 15145,5728 15145,6288 15057,6288 Z M 15145,6299 L 15145,6521 15057,6521 15057,6299 15145,6299 Z"/>
     <path fill="rgb(143,143,143)" stroke="none" d="M 15145,6521 L 15145,7955 15057,8005 15057,6521 15145,6521 Z M 15057,6299 L 15057,5779 15145,5728 15145,6299 15057,6299 Z M 15145,6310 L 15145,6510 15057,6510 15057,6310 15145,6310 Z"/>
     <path fill="rgb(144,144,144)" stroke="none" d="M 15145,6510 L 15145,7955 15057,8005 15057,6510 15145,6510 Z M 15057,6310 L 15057,5779 15145,5728 15145,6310 15057,6310 Z M 15145,6321 L 15145,6499 15057,6499 15057,6321 15145,6321 Z"/>
     <path fill="rgb(145,145,145)" stroke="none" d="M 15145,6499 L 15145,7955 15057,8005 15057,6499 15145,6499 Z M 15057,6321 L 15057,5779 15145,5728 15145,6321 15057,6321 Z M 15145,6332 L 15145,6488 15057,6488 15057,6332 15145,6332 Z"/>
     <path fill="rgb(146,146,146)" stroke="none" d="M 15145,6488 L 15145,7955 15057,8005 15057,6488 15145,6488 Z M 15057,6332 L 15057,5779 15145,5728 15145,6332 15057,6332 Z M 15145,6343 L 15145,6477 15057,6477 15057,6343 15145,6343 Z"/>
     <path fill="rgb(147,147,147)" stroke="none" d="M 15145,6477 L 15145,7955 15057,8005 15057,6477 15145,6477 Z M 15057,6343 L 15057,5779 15145,5728 15145,6343 15057,6343 Z M 15137,6355 L 15137,6465 15057,6465 15057,6355 15137,6355 Z"/>
     <path fill="rgb(148,148,148)" stroke="none" d="M 15137,6465 L 15137,6355 15057,6355 15057,5779 15145,5728 15145,7955 15057,8005 15057,6465 15137,6465 Z M 15126,6366 L 15126,6454 15057,6454 15057,6366 15126,6366 Z"/>
     <path fill="rgb(149,149,149)" stroke="none" d="M 15126,6454 L 15126,6366 15057,6366 15057,5779 15145,5728 15145,7955 15057,8005 15057,6454 15126,6454 Z M 15115,6377 L 15115,6443 15057,6443 15057,6377 15115,6377 Z"/>
     <path fill="rgb(150,150,150)" stroke="none" d="M 15115,6443 L 15115,6377 15057,6377 15057,5779 15145,5728 15145,7955 15057,8005 15057,6443 15115,6443 Z M 15060,6388 L 15104,6388 15104,6432 15060,6432 15060,6388 Z"/>
     <path fill="rgb(151,151,151)" stroke="none" d="M 15060,6388 L 15060,6432 15104,6432 15104,6388 15060,6388 Z M 15071,6399 L 15093,6399 15093,6421 15071,6421 15071,6399 Z M 15057,8005 L 15057,5779 15145,5728 15145,7955 15057,8005 Z"/>
     <path fill="rgb(153,153,153)" stroke="none" d="M 15071,6399 L 15071,6421 15093,6421 15093,6399 15071,6399 Z M 15057,8005 L 15057,5779 15145,5728 15145,7955 15057,8005 Z"/>
     <path fill="none" stroke="rgb(178,178,178)" id="Drawing_7_0" stroke-width="40" stroke-linejoin="round" d="M 15057,8005 L 15057,5779 15145,5728 15145,7955 15057,8005 Z"/>
    </g>
    <g>
     <path fill="rgb(51,51,51)" stroke="none" d="M 14712,8457 L 13445,9190 13393,9190 13393,8967 14712,8204 14712,8457 Z"/>
     <path fill="rgb(52,52,52)" stroke="none" d="M 13445,9190 L 13393,9220 13393,9190 13445,9190 Z M 14712,8204 L 15056,8005 15056,8258 14712,8457 14712,8204 Z M 14702,8463 L 13462,9180 13393,9180 13393,8967 14702,8210 14702,8463 Z"/>
     <path fill="rgb(53,53,53)" stroke="none" d="M 13462,9180 L 13393,9220 13393,9180 13462,9180 Z M 14702,8210 L 15056,8005 15056,8258 14702,8463 14702,8210 Z M 14692,8469 L 13479,9170 13393,9170 13393,8967 14692,8216 14692,8469 Z"/>
     <path fill="rgb(54,54,54)" stroke="none" d="M 13479,9170 L 13393,9220 13393,9170 13479,9170 Z M 14692,8216 L 15056,8005 15056,8258 14692,8469 14692,8216 Z M 14682,8474 L 13497,9160 13393,9160 13393,8967 14682,8221 14682,8474 Z"/>
     <path fill="rgb(55,55,55)" stroke="none" d="M 13497,9160 L 13393,9220 13393,9160 13497,9160 Z M 14682,8221 L 15056,8005 15056,8258 14682,8474 14682,8221 Z M 14672,8480 L 13514,9150 13393,9150 13393,8967 14672,8227 14672,8480 Z"/>
     <path fill="rgb(57,57,57)" stroke="none" d="M 13514,9150 L 13393,9220 13393,9150 13514,9150 Z M 14672,8227 L 15056,8005 15056,8258 14672,8480 14672,8227 Z M 14662,8486 L 13531,9140 13393,9140 13393,8967 14662,8233 14662,8486 Z"/>
     <path fill="rgb(58,58,58)" stroke="none" d="M 13531,9140 L 13393,9220 13393,9140 13531,9140 Z M 14662,8233 L 15056,8005 15056,8258 14662,8486 14662,8233 Z M 14652,8492 L 13549,9130 13393,9130 13393,8967 14652,8239 14652,8492 Z"/>
     <path fill="rgb(59,59,59)" stroke="none" d="M 13549,9130 L 13393,9220 13393,9130 13549,9130 Z M 14652,8239 L 15056,8005 15056,8258 14652,8492 14652,8239 Z M 14642,8497 L 13566,9120 13393,9120 13393,8967 14642,8244 14642,8497 Z"/>
     <path fill="rgb(60,60,60)" stroke="none" d="M 13566,9120 L 13393,9220 13393,9120 13566,9120 Z M 14642,8244 L 15056,8005 15056,8258 14642,8497 14642,8244 Z M 14632,8503 L 13583,9110 13393,9110 13393,8967 14632,8250 14632,8503 Z"/>
     <path fill="rgb(62,62,62)" stroke="none" d="M 13583,9110 L 13393,9220 13393,9110 13583,9110 Z M 14632,8250 L 15056,8005 15056,8258 14632,8503 14632,8250 Z M 14622,8509 L 13600,9100 13393,9100 13393,8967 14622,8256 14622,8509 Z"/>
     <path fill="rgb(63,63,63)" stroke="none" d="M 13600,9100 L 13393,9220 13393,9100 13600,9100 Z M 14622,8256 L 15056,8005 15056,8258 14622,8509 14622,8256 Z M 14612,8515 L 13618,9090 13393,9090 13393,8967 14612,8262 14612,8515 Z"/>
     <path fill="rgb(64,64,64)" stroke="none" d="M 13618,9090 L 13393,9220 13393,9090 13618,9090 Z M 14612,8262 L 15056,8005 15056,8258 14612,8515 14612,8262 Z M 14602,8521 L 13635,9080 13393,9080 13393,8967 14602,8268 14602,8521 Z"/>
     <path fill="rgb(65,65,65)" stroke="none" d="M 13635,9080 L 13393,9220 13393,9080 13635,9080 Z M 14602,8268 L 15056,8005 15056,8258 14602,8521 14602,8268 Z M 14592,8526 L 13652,9070 13393,9070 13393,8967 14592,8273 14592,8526 Z"/>
     <path fill="rgb(66,66,66)" stroke="none" d="M 13652,9070 L 13393,9220 13393,9070 13652,9070 Z M 14592,8273 L 15056,8005 15056,8258 14592,8526 14592,8273 Z M 14582,8532 L 13670,9060 13393,9060 13393,8967 14582,8279 14582,8532 Z"/>
     <path fill="rgb(68,68,68)" stroke="none" d="M 13670,9060 L 13393,9220 13393,9060 13670,9060 Z M 14582,8279 L 15056,8005 15056,8258 14582,8532 14582,8279 Z M 14572,8538 L 13687,9050 13393,9050 13393,8967 14572,8285 14572,8538 Z"/>
     <path fill="rgb(69,69,69)" stroke="none" d="M 13687,9050 L 13393,9220 13393,9050 13687,9050 Z M 14572,8285 L 15056,8005 15056,8258 14572,8538 14572,8285 Z M 14562,8544 L 13704,9040 13393,9040 13393,8967 14562,8291 14562,8544 Z"/>
     <path fill="rgb(70,70,70)" stroke="none" d="M 13704,9040 L 13393,9220 13393,9040 13704,9040 Z M 14562,8291 L 15056,8005 15056,8258 14562,8544 14562,8291 Z M 14552,8550 L 13721,9030 13393,9030 13393,8967 14552,8297 14552,8550 Z"/>
     <path fill="rgb(71,71,71)" stroke="none" d="M 13721,9030 L 13393,9220 13393,9030 13721,9030 Z M 14552,8297 L 15056,8005 15056,8258 14552,8550 14552,8297 Z M 14542,8555 L 13739,9020 13393,9020 13393,8967 14542,8302 14542,8555 Z"/>
     <path fill="rgb(73,73,73)" stroke="none" d="M 13739,9020 L 13393,9220 13393,9020 13739,9020 Z M 14542,8302 L 15056,8005 15056,8258 14542,8555 14542,8302 Z M 14532,8561 L 13756,9010 13393,9010 13393,8967 14532,8308 14532,8561 Z"/>
     <path fill="rgb(74,74,74)" stroke="none" d="M 13756,9010 L 13393,9220 13393,9010 13756,9010 Z M 14532,8308 L 15056,8005 15056,8258 14532,8561 14532,8308 Z M 14522,8567 L 13773,9000 13393,9000 13393,8967 14522,8314 14522,8567 Z"/>
     <path fill="rgb(75,75,75)" stroke="none" d="M 13773,9000 L 13393,9220 13393,9000 13773,9000 Z M 14522,8314 L 15056,8005 15056,8258 14522,8567 14522,8314 Z M 14512,8573 L 13791,8990 13393,8990 13393,8967 14512,8320 14512,8573 Z"/>
     <path fill="rgb(76,76,76)" stroke="none" d="M 13791,8990 L 13393,9220 13393,8990 13791,8990 Z M 14512,8320 L 15056,8005 15056,8258 14512,8573 14512,8320 Z M 14502,8578 L 13808,8980 13393,8980 13393,8967 14502,8325 14502,8578 Z"/>
     <path fill="rgb(78,78,78)" stroke="none" d="M 13808,8980 L 13393,9220 13393,8980 13808,8980 Z M 14502,8325 L 15056,8005 15056,8258 14502,8578 14502,8325 Z M 14492,8584 L 13825,8970 13393,8970 13393,8967 14492,8331 14492,8584 Z"/>
     <path fill="rgb(79,79,79)" stroke="none" d="M 13825,8970 L 13393,9220 13393,8970 13825,8970 Z M 14492,8331 L 15056,8005 15056,8258 14492,8584 14492,8331 Z M 14482,8590 L 13842,8960 13405,8960 14482,8337 14482,8590 Z"/>
     <path fill="rgb(80,80,80)" stroke="none" d="M 13842,8960 L 13393,9220 13393,8967 13405,8960 13842,8960 Z M 14482,8337 L 15056,8005 15056,8258 14482,8590 14482,8337 Z M 14472,8596 L 13860,8950 13422,8950 14472,8343 14472,8596 Z"/>
     <path fill="rgb(81,81,81)" stroke="none" d="M 13860,8950 L 13393,9220 13393,8967 13422,8950 13860,8950 Z M 14472,8343 L 15056,8005 15056,8258 14472,8596 14472,8343 Z M 14462,8602 L 13877,8940 13440,8940 14462,8349 14462,8602 Z"/>
     <path fill="rgb(82,82,82)" stroke="none" d="M 13877,8940 L 13393,9220 13393,8967 13440,8940 13877,8940 Z M 14462,8349 L 15056,8005 15056,8258 14462,8602 14462,8349 Z M 14452,8607 L 13894,8930 13457,8930 14452,8354 14452,8607 Z"/>
     <path fill="rgb(84,84,84)" stroke="none" d="M 13894,8930 L 13393,9220 13393,8967 13457,8930 13894,8930 Z M 14452,8354 L 15056,8005 15056,8258 14452,8607 14452,8354 Z M 14441,8614 L 13913,8919 13476,8919 14441,8361 14441,8614 Z"/>
     <path fill="rgb(85,85,85)" stroke="none" d="M 13913,8919 L 13393,9220 13393,8967 13476,8919 13913,8919 Z M 14441,8361 L 15056,8005 15056,8258 14441,8614 14441,8361 Z M 14431,8620 L 13931,8909 13493,8909 14431,8367 14431,8620 Z"/>
     <path fill="rgb(86,86,86)" stroke="none" d="M 13931,8909 L 13393,9220 13393,8967 13493,8909 13931,8909 Z M 14431,8367 L 15056,8005 15056,8258 14431,8620 14431,8367 Z M 14421,8625 L 13948,8899 13511,8899 14421,8372 14421,8625 Z"/>
     <path fill="rgb(87,87,87)" stroke="none" d="M 13948,8899 L 13393,9220 13393,8967 13511,8899 13948,8899 Z M 14421,8372 L 15056,8005 15056,8258 14421,8625 14421,8372 Z M 14411,8631 L 13965,8889 13528,8889 14411,8378 14411,8631 Z"/>
     <path fill="rgb(89,89,89)" stroke="none" d="M 13965,8889 L 13393,9220 13393,8967 13528,8889 13965,8889 Z M 14411,8378 L 15056,8005 15056,8258 14411,8631 14411,8378 Z M 14401,8637 L 13982,8879 13545,8879 14401,8384 14401,8637 Z"/>
     <path fill="rgb(90,90,90)" stroke="none" d="M 13982,8879 L 13393,9220 13393,8967 13545,8879 13982,8879 Z M 14401,8384 L 15056,8005 15056,8258 14401,8637 14401,8384 Z M 14391,8643 L 14000,8869 13562,8869 14391,8390 14391,8643 Z"/>
     <path fill="rgb(91,91,91)" stroke="none" d="M 14000,8869 L 13393,9220 13393,8967 13562,8869 14000,8869 Z M 14391,8390 L 15056,8005 15056,8258 14391,8643 14391,8390 Z M 14381,8648 L 14017,8859 13580,8859 14381,8395 14381,8648 Z"/>
     <path fill="rgb(92,92,92)" stroke="none" d="M 14017,8859 L 13393,9220 13393,8967 13580,8859 14017,8859 Z M 14381,8395 L 15056,8005 15056,8258 14381,8648 14381,8395 Z M 14371,8654 L 14034,8849 13597,8849 14371,8401 14371,8654 Z"/>
     <path fill="rgb(94,94,94)" stroke="none" d="M 14034,8849 L 13393,9220 13393,8967 13597,8849 14034,8849 Z M 14371,8401 L 15056,8005 15056,8258 14371,8654 14371,8401 Z M 14361,8660 L 14052,8839 13614,8839 14361,8407 14361,8660 Z"/>
     <path fill="rgb(95,95,95)" stroke="none" d="M 14052,8839 L 13393,9220 13393,8967 13614,8839 14052,8839 Z M 14361,8407 L 15056,8005 15056,8258 14361,8660 14361,8407 Z M 14351,8666 L 14069,8829 13632,8829 14351,8413 14351,8666 Z"/>
     <path fill="rgb(96,96,96)" stroke="none" d="M 14069,8829 L 13393,9220 13393,8967 13632,8829 14069,8829 Z M 14351,8413 L 15056,8005 15056,8258 14351,8666 14351,8413 Z M 14341,8672 L 14086,8819 13649,8819 14341,8419 14341,8672 Z"/>
     <path fill="rgb(97,97,97)" stroke="none" d="M 14086,8819 L 13393,9220 13393,8967 13649,8819 14086,8819 Z M 14341,8419 L 15056,8005 15056,8258 14341,8672 14341,8419 Z M 14331,8677 L 14103,8809 13666,8809 14331,8424 14331,8677 Z"/>
     <path fill="rgb(98,98,98)" stroke="none" d="M 14103,8809 L 13393,9220 13393,8967 13666,8809 14103,8809 Z M 14331,8424 L 15056,8005 15056,8258 14331,8677 14331,8424 Z M 14321,8683 L 14121,8799 13683,8799 14321,8430 14321,8683 Z"/>
     <path fill="rgb(100,100,100)" stroke="none" d="M 14121,8799 L 13393,9220 13393,8967 13683,8799 14121,8799 Z M 14321,8430 L 15056,8005 15056,8258 14321,8683 14321,8430 Z M 14311,8689 L 14138,8789 13701,8789 14311,8436 14311,8689 Z"/>
     <path fill="rgb(101,101,101)" stroke="none" d="M 14138,8789 L 13393,9220 13393,8967 13701,8789 14138,8789 Z M 14311,8436 L 15056,8005 15056,8258 14311,8689 14311,8436 Z M 14301,8695 L 14155,8779 13718,8779 14301,8442 14301,8695 Z"/>
     <path fill="rgb(102,102,102)" stroke="none" d="M 14155,8779 L 13393,9220 13393,8967 13718,8779 14155,8779 Z M 14301,8442 L 15056,8005 15056,8258 14301,8695 14301,8442 Z M 14291,8701 L 14173,8769 13735,8769 14291,8448 14291,8701 Z"/>
     <path fill="rgb(103,103,103)" stroke="none" d="M 14173,8769 L 13393,9220 13393,8967 13735,8769 14173,8769 Z M 14291,8448 L 15056,8005 15056,8258 14291,8701 14291,8448 Z M 14281,8706 L 14190,8759 13753,8759 14281,8453 14281,8706 Z"/>
     <path fill="rgb(105,105,105)" stroke="none" d="M 14190,8759 L 13393,9220 13393,8967 13753,8759 14190,8759 Z M 14281,8453 L 15056,8005 15056,8258 14281,8706 14281,8453 Z M 14271,8712 L 14207,8749 13770,8749 14271,8459 14271,8712 Z"/>
     <path fill="rgb(106,106,106)" stroke="none" d="M 14207,8749 L 13393,9220 13393,8967 13770,8749 14207,8749 Z M 14271,8459 L 15056,8005 15056,8258 14271,8712 14271,8459 Z M 14261,8718 L 14225,8739 13787,8739 14261,8465 14261,8718 Z"/>
     <path fill="rgb(107,107,107)" stroke="none" d="M 14225,8739 L 13393,9220 13393,8967 13787,8739 14225,8739 Z M 14261,8465 L 15056,8005 15056,8258 14261,8718 14261,8465 Z M 14251,8724 L 14242,8729 13804,8729 14251,8471 14251,8724 Z"/>
     <path fill="rgb(108,108,108)" stroke="none" d="M 14242,8729 L 13393,9220 13393,8967 13804,8729 14242,8729 Z M 14251,8471 L 15056,8005 15056,8258 14251,8724 14251,8471 Z M 14241,8719 L 13822,8719 14241,8476 14241,8719 Z"/>
     <path fill="rgb(109,109,109)" stroke="none" d="M 14241,8719 L 14241,8476 15056,8005 15056,8258 13393,9220 13393,8967 13822,8719 14241,8719 Z M 14231,8709 L 13839,8709 14231,8482 14231,8709 Z"/>
     <path fill="rgb(111,111,111)" stroke="none" d="M 14231,8709 L 14231,8482 15056,8005 15056,8258 13393,9220 13393,8967 13839,8709 14231,8709 Z M 14221,8699 L 13856,8699 14221,8488 14221,8699 Z"/>
     <path fill="rgb(112,112,112)" stroke="none" d="M 14221,8699 L 14221,8488 15056,8005 15056,8258 13393,9220 13393,8967 13856,8699 14221,8699 Z M 14211,8689 L 13874,8689 14211,8494 14211,8689 Z"/>
     <path fill="rgb(113,113,113)" stroke="none" d="M 14211,8689 L 14211,8494 15056,8005 15056,8258 13393,9220 13393,8967 13874,8689 14211,8689 Z M 14201,8679 L 13891,8679 14201,8500 14201,8679 Z"/>
     <path fill="rgb(114,114,114)" stroke="none" d="M 14201,8679 L 14201,8500 15056,8005 15056,8258 13393,9220 13393,8967 13891,8679 14201,8679 Z M 14191,8669 L 13908,8669 14191,8505 14191,8669 Z"/>
     <path fill="rgb(116,116,116)" stroke="none" d="M 14191,8669 L 14191,8505 15056,8005 15056,8258 13393,9220 13393,8967 13908,8669 14191,8669 Z M 14181,8659 L 13925,8659 14181,8511 14181,8659 Z"/>
     <path fill="rgb(117,117,117)" stroke="none" d="M 14181,8659 L 14181,8511 15056,8005 15056,8258 13393,9220 13393,8967 13925,8659 14181,8659 Z M 14171,8649 L 13943,8649 14171,8517 14171,8649 Z"/>
     <path fill="rgb(118,118,118)" stroke="none" d="M 14171,8649 L 14171,8517 15056,8005 15056,8258 13393,9220 13393,8967 13943,8649 14171,8649 Z M 14160,8638 L 13962,8638 14160,8523 14160,8638 Z"/>
     <path fill="rgb(119,119,119)" stroke="none" d="M 14160,8638 L 14160,8523 15056,8005 15056,8258 13393,9220 13393,8967 13962,8638 14160,8638 Z M 14150,8628 L 13979,8628 14150,8529 14150,8628 Z"/>
     <path fill="rgb(121,121,121)" stroke="none" d="M 14150,8628 L 14150,8529 15056,8005 15056,8258 13393,9220 13393,8967 13979,8628 14150,8628 Z M 14140,8618 L 13996,8618 14140,8535 14140,8618 Z"/>
     <path fill="rgb(122,122,122)" stroke="none" d="M 14140,8618 L 14140,8535 15056,8005 15056,8258 13393,9220 13393,8967 13996,8618 14140,8618 Z M 14130,8608 L 14014,8608 14130,8541 14130,8608 Z"/>
     <path fill="rgb(123,123,123)" stroke="none" d="M 14130,8608 L 14130,8541 15056,8005 15056,8258 13393,9220 13393,8967 14014,8608 14130,8608 Z M 14120,8598 L 14031,8598 14120,8546 14120,8598 Z"/>
     <path fill="rgb(124,124,124)" stroke="none" d="M 14120,8598 L 14120,8546 15056,8005 15056,8258 13393,9220 13393,8967 14031,8598 14120,8598 Z M 14110,8588 L 14048,8588 14110,8552 14110,8588 Z"/>
     <path fill="rgb(125,125,125)" stroke="none" d="M 14110,8588 L 14110,8552 15056,8005 15056,8258 13393,9220 13393,8967 14048,8588 14110,8588 Z M 14100,8578 L 14065,8578 14100,8558 14100,8578 Z"/>
     <path fill="rgb(127,127,127)" stroke="none" d="M 14100,8578 L 14100,8558 15056,8005 15056,8258 13393,9220 13393,8967 14065,8578 14100,8578 Z M 14090,8568 L 14083,8568 14090,8564 14090,8568 Z"/>
     <path fill="rgb(128,128,128)" stroke="none" d="M 14090,8568 L 14090,8564 15056,8005 15056,8258 13393,9220 13393,8967 14083,8568 14090,8568 Z"/>
     <path fill="rgb(129,129,129)" stroke="none" d="M 13393,9220 L 13393,8967 15056,8005 15056,8258 13393,9220 Z"/>
     <path fill="rgb(130,130,130)" stroke="none" d="M 13393,9220 L 13393,8967 15056,8005 15056,8258 13393,9220 Z"/>
     <path fill="rgb(132,132,132)" stroke="none" d="M 13393,9220 L 13393,8967 15056,8005 15056,8258 13393,9220 Z"/>
     <path fill="rgb(133,133,133)" stroke="none" d="M 13393,9220 L 13393,8967 15056,8005 15056,8258 13393,9220 Z"/>
     <path fill="rgb(134,134,134)" stroke="none" d="M 13393,9220 L 13393,8967 15056,8005 15056,8258 13393,9220 Z"/>
     <path fill="rgb(135,135,135)" stroke="none" d="M 13393,9220 L 13393,8967 15056,8005 15056,8258 13393,9220 Z"/>
     <path fill="rgb(137,137,137)" stroke="none" d="M 13393,9220 L 13393,8967 15056,8005 15056,8258 13393,9220 Z"/>
     <path fill="rgb(138,138,138)" stroke="none" d="M 13393,9220 L 13393,8967 15056,8005 15056,8258 13393,9220 Z"/>
     <path fill="rgb(139,139,139)" stroke="none" d="M 13393,9220 L 13393,8967 15056,8005 15056,8258 13393,9220 Z"/>
     <path fill="rgb(140,140,140)" stroke="none" d="M 13393,9220 L 13393,8967 15056,8005 15056,8258 13393,9220 Z"/>
     <path fill="rgb(141,141,141)" stroke="none" d="M 13393,9220 L 13393,8967 15056,8005 15056,8258 13393,9220 Z"/>
     <path fill="rgb(143,143,143)" stroke="none" d="M 13393,9220 L 13393,8967 15056,8005 15056,8258 13393,9220 Z"/>
     <path fill="rgb(144,144,144)" stroke="none" d="M 13393,9220 L 13393,8967 15056,8005 15056,8258 13393,9220 Z"/>
     <path fill="rgb(145,145,145)" stroke="none" d="M 13393,9220 L 13393,8967 15056,8005 15056,8258 13393,9220 Z"/>
     <path fill="rgb(146,146,146)" stroke="none" d="M 13393,9220 L 13393,8967 15056,8005 15056,8258 13393,9220 Z"/>
     <path fill="rgb(148,148,148)" stroke="none" d="M 13393,9220 L 13393,8967 15056,8005 15056,8258 13393,9220 Z"/>
     <path fill="rgb(149,149,149)" stroke="none" d="M 13393,9220 L 13393,8967 15056,8005 15056,8258 13393,9220 Z"/>
     <path fill="rgb(150,150,150)" stroke="none" d="M 13393,9220 L 13393,8967 15056,8005 15056,8258 13393,9220 Z"/>
     <path fill="rgb(153,153,153)" stroke="none" d="M 13393,9220 L 13393,8967 15056,8005 15056,8258 13393,9220 Z"/>
     <path fill="none" stroke="rgb(178,178,178)" id="Drawing_8_0" stroke-width="40" stroke-linejoin="round" d="M 13393,9220 L 13393,8967 15056,8005 15056,8258 13393,9220 Z"/>
    </g>
    <g>
     <path fill="none" stroke="rgb(178,178,178)" id="Drawing_9_0" stroke-width="40" stroke-linejoin="round" d="M 12080,7145 L 14094,8309"/>
    </g>
    <g>
     <path fill="none" stroke="rgb(178,178,178)" id="Drawing_10_0" stroke-width="40" stroke-linejoin="round" d="M 12255,7044 L 14269,8208"/>
    </g>
    <g>
     <path fill="none" stroke="rgb(178,178,178)" id="Drawing_11_0" stroke-width="40" stroke-linejoin="round" d="M 12430,6943 L 14444,8107"/>
    </g>
    <g>
     <path fill="none" stroke="rgb(178,178,178)" id="Drawing_12_0" stroke-width="40" stroke-linejoin="round" d="M 14181,7955 L 14356,7854"/>
    </g>
    <g>
     <path fill="none" stroke="rgb(178,178,178)" id="Drawing_13_0" stroke-width="40" stroke-linejoin="round" d="M 14006,7853 L 14181,7752"/>
    </g>
    <g>
     <path fill="none" stroke="rgb(178,178,178)" id="Drawing_14_0" stroke-width="40" stroke-linejoin="round" d="M 13831,7752 L 14006,7651"/>
    </g>
    <g>
     <path fill="none" stroke="rgb(178,178,178)" id="Drawing_15_0" stroke-width="40" stroke-linejoin="round" d="M 13919,8005 L 14094,7904"/>
    </g>
    <g>
     <path fill="none" stroke="rgb(178,178,178)" id="Drawing_16_0" stroke-width="40" stroke-linejoin="round" d="M 13744,7904 L 13919,7803"/>
    </g>
    <g>
     <path fill="none" stroke="rgb(178,178,178)" id="Drawing_17_0" stroke-width="40" stroke-linejoin="round" d="M 13569,7803 L 13744,7702"/>
    </g>
    <g>
     <path fill="none" stroke="rgb(178,178,178)" id="Drawing_18_0" stroke-width="40" stroke-linejoin="round" d="M 13656,7651 L 13831,7550"/>
    </g>
    <g>
     <path fill="none" stroke="rgb(178,178,178)" id="Drawing_19_0" stroke-width="40" stroke-linejoin="round" d="M 13393,7701 L 13568,7600"/>
    </g>
    <g>
     <path fill="none" stroke="rgb(178,178,178)" id="Drawing_20_0" stroke-width="40" stroke-linejoin="round" d="M 13481,7550 L 13656,7449"/>
    </g>
    <g>
     <path fill="none" stroke="rgb(178,178,178)" id="Drawing_21_0" stroke-width="40" stroke-linejoin="round" d="M 13306,7448 L 13481,7347"/>
    </g>
    <g>
     <path fill="none" stroke="rgb(178,178,178)" id="Drawing_22_0" stroke-width="40" stroke-linejoin="round" d="M 13131,7347 L 13306,7246"/>
    </g>
    <g>
     <path fill="none" stroke="rgb(178,178,178)" id="Drawing_23_0" stroke-width="40" stroke-linejoin="round" d="M 13218,7600 L 13393,7499"/>
    </g>
    <g>
     <path fill="none" stroke="rgb(178,178,178)" id="Drawing_24_0" stroke-width="40" stroke-linejoin="round" d="M 13043,7499 L 13218,7398"/>
    </g>
    <g>
     <path fill="none" stroke="rgb(178,178,178)" id="Drawing_25_0" stroke-width="40" stroke-linejoin="round" d="M 12868,7398 L 13043,7297"/>
    </g>
    <g>
     <path fill="none" stroke="rgb(178,178,178)" id="Drawing_26_0" stroke-width="40" stroke-linejoin="round" d="M 12956,7246 L 13131,7145"/>
    </g>
    <g>
     <path fill="none" stroke="rgb(178,178,178)" id="Drawing_27_0" stroke-width="40" stroke-linejoin="round" d="M 12693,7297 L 12868,7196"/>
    </g>
    <g>
     <path fill="none" stroke="rgb(178,178,178)" id="Drawing_28_0" stroke-width="40" stroke-linejoin="round" d="M 12781,7145 L 12956,7044"/>
    </g>
    <g>
     <path fill="none" stroke="rgb(178,178,178)" id="Drawing_29_0" stroke-width="40" stroke-linejoin="round" d="M 12605,7044 L 12780,6943"/>
    </g>
    <g>
     <path fill="none" stroke="rgb(178,178,178)" id="Drawing_30_0" stroke-width="40" stroke-linejoin="round" d="M 12518,7195 L 12693,7094"/>
    </g>
    <g>
     <path fill="none" stroke="rgb(178,178,178)" id="Drawing_31_0" stroke-width="40" stroke-linejoin="round" d="M 13656,8056 L 13831,7955"/>
    </g>
    <g>
     <path fill="none" stroke="rgb(178,178,178)" id="Drawing_32_0" stroke-width="40" stroke-linejoin="round" d="M 13481,7955 L 13656,7854"/>
    </g>
    <g>
     <path fill="none" stroke="rgb(178,178,178)" id="Drawing_33_0" stroke-width="40" stroke-linejoin="round" d="M 13306,7853 L 13481,7752"/>
    </g>
    <g>
     <path fill="none" stroke="rgb(178,178,178)" id="Drawing_34_0" stroke-width="40" stroke-linejoin="round" d="M 13218,8005 L 13393,7904"/>
    </g>
    <g>
     <path fill="none" stroke="rgb(178,178,178)" id="Drawing_35_0" stroke-width="40" stroke-linejoin="round" d="M 13043,7904 L 13218,7803"/>
    </g>
    <g>
     <path fill="none" stroke="rgb(178,178,178)" id="Drawing_36_0" stroke-width="40" stroke-linejoin="round" d="M 13131,7752 L 13306,7651"/>
    </g>
    <g>
     <path fill="none" stroke="rgb(178,178,178)" id="Drawing_37_0" stroke-width="40" stroke-linejoin="round" d="M 12956,7651 L 13131,7550"/>
    </g>
    <g>
     <path fill="none" stroke="rgb(178,178,178)" id="Drawing_38_0" stroke-width="40" stroke-linejoin="round" d="M 12781,7550 L 12956,7449"/>
    </g>
    <g>
     <path fill="none" stroke="rgb(178,178,178)" id="Drawing_39_0" stroke-width="40" stroke-linejoin="round" d="M 12605,7448 L 12780,7347"/>
    </g>
    <g>
     <path fill="none" stroke="rgb(178,178,178)" id="Drawing_40_0" stroke-width="40" stroke-linejoin="round" d="M 12343,7499 L 12518,7398"/>
    </g>
    <g>
     <path fill="none" stroke="rgb(178,178,178)" id="Drawing_41_0" stroke-width="40" stroke-linejoin="round" d="M 12430,7347 L 12605,7246"/>
    </g>
    <g>
     <path fill="none" stroke="rgb(178,178,178)" id="Drawing_42_0" stroke-width="40" stroke-linejoin="round" d="M 12168,7398 L 12343,7297"/>
    </g>
    <g>
     <path fill="none" stroke="rgb(178,178,178)" id="Drawing_43_0" stroke-width="40" stroke-linejoin="round" d="M 13569,8208 L 13744,8107"/>
    </g>
    <g>
     <path fill="none" stroke="rgb(178,178,178)" id="Drawing_44_0" stroke-width="40" stroke-linejoin="round" d="M 13393,8106 L 13568,8005"/>
    </g>
    <g>
     <defs>
      <linearGradient id="Gradient_113" gradientUnits="userSpaceOnUse" x1="10940" y1="8383" x2="13393" y2="8387">
       <stop offset="0.1" stop-color="rgb(51,51,51)"/>
       <stop offset="1" stop-color="rgb(153,153,153)"/>
      </linearGradient>
     </defs>
     <path fill="url(#Gradient_113)" stroke="rgb(178,178,178)" id="Drawing_45_0" stroke-width="40" stroke-linejoin="round" d="M 10942,7803 L 10942,7550 13393,8967 13393,9220 10942,7803 Z"/>
    </g>
    <g>
     <path fill="none" stroke="rgb(0,0,0)" id="Drawing_46_0" stroke-width="40" stroke-linejoin="round" d="M 12693,4311 L 15144,5728 15144,7955 15057,8005 15057,8258 13393,9220 10942,7803 10942,7550 12605,6588 12605,4362 12693,4311 Z"/>
    </g>
    <g>
     <path fill="rgb(102,102,102)" stroke="none" d="M 11993,7955 L 12431,7702 13044,8056 12606,8309 11993,7955 Z"/>
     <path fill="none" stroke="rgb(178,178,178)" id="Drawing_47_0" stroke-width="40" stroke-linejoin="round" d="M 11993,7955 L 12431,7702 13044,8056 12606,8309 11993,7955 Z"/>
    </g>
    <g>
     <path fill="none" stroke="rgb(178,178,178)" id="Drawing_48_0" stroke-width="40" stroke-linejoin="round" d="M 14094,8106 L 14269,8005"/>
    </g>
    <g>
     <path fill="none" stroke="rgb(178,178,178)" id="Drawing_49_0" stroke-width="40" stroke-linejoin="round" d="M 13831,8157 L 14006,8056"/>
    </g>
   </g>
  </g>
 </g>
</svg>