<?xml version="1.0" encoding="UTF-8"?>

<svg version="1.2" baseProfile="tiny" width="64.2mm" height="45.4mm" viewBox="8734 4306 6420 4540" preserveAspectRatio="xMidYMid" fill-rule="evenodd" stroke-width="28.222" stroke-linejoin="round" xmlns="http://www.w3.org/2000/svg" xmlns:xlink="http://www.w3.org/1999/xlink" xml:space="preserve">
 <g visibility="visible" id="Slide_1">
  <g id="DrawingGroup_1">
   <g>
    <path fill="rgb(221,221,221)" stroke="none" d="M 12257,8781 C 12471,8781 15134,8196 15134,7656 15134,7116 14491,6981 14278,6981 14278,7116 12180,7791 12257,8781 Z"/>
    <path fill="none" stroke="rgb(221,221,221)" id="Drawing_1_0" stroke-width="40" stroke-linejoin="round" d="M 12257,8781 C 12471,8781 15134,8196 15134,7656 15134,7116 14491,6981 14278,6981 14278,7116 12180,7791 12257,8781 Z"/>
   </g>
   <g id="DrawingGroup_2">
    <g>
     <defs>
      <linearGradient id="Gradient_275" gradientUnits="userSpaceOnUse" x1="9918" y1="7249" x2="12258" y2="7253">
       <stop offset="0.1" stop-color="rgb(51,51,51)"/>
       <stop offset="1" stop-color="rgb(153,153,153)"/>
      </linearGradient>
     </defs>
     <path fill="url(#Gradient_275)" stroke="rgb(178,178,178)" id="Drawing_2_0" stroke-width="40" stroke-linejoin="round" d="M 9921,7476 L 9921,5676 12255,7026 12255,8826 9921,7476 Z"/>
    </g>
    <g>
     <path fill="rgb(51,51,51)" stroke="none" d="M 14515,7519 L 13372,8180 12255,8180 12255,7026 14515,5719 14515,7519 Z"/>
     <path fill="rgb(52,52,52)" stroke="none" d="M 13372,8180 L 12255,8826 12255,8180 13372,8180 Z M 14515,5719 L 14589,5676 14589,7476 14515,7519 14515,5719 Z M 14500,7527 L 13398,8165 12255,8165 12255,7026 14500,5727 14500,7527 Z"/>
     <path fill="rgb(53,53,53)" stroke="none" d="M 13398,8165 L 12255,8826 12255,8165 13398,8165 Z M 14500,5727 L 14589,5676 14589,7476 14500,7527 14500,5727 Z M 14484,7537 L 13425,8149 12255,8149 12255,7026 14484,5737 14484,7537 Z"/>
     <path fill="rgb(54,54,54)" stroke="none" d="M 13425,8149 L 12255,8826 12255,8149 13425,8149 Z M 14484,5737 L 14589,5676 14589,7476 14484,7537 14484,5737 Z M 14469,7545 L 13451,8134 12255,8134 12255,7026 14469,5745 14469,7545 Z"/>
     <path fill="rgb(55,55,55)" stroke="none" d="M 13451,8134 L 12255,8826 12255,8134 13451,8134 Z M 14469,5745 L 14589,5676 14589,7476 14469,7545 14469,5745 Z M 14453,7555 L 13479,8118 12255,8118 12255,7026 14453,5755 14453,7555 Z"/>
     <path fill="rgb(56,56,56)" stroke="none" d="M 13479,8118 L 12255,8826 12255,8118 13479,8118 Z M 14453,5755 L 14589,5676 14589,7476 14453,7555 14453,5755 Z M 14438,7563 L 13505,8103 12255,8103 12255,7026 14438,5763 14438,7563 Z"/>
     <path fill="rgb(57,57,57)" stroke="none" d="M 13505,8103 L 12255,8826 12255,8103 13505,8103 Z M 14438,5763 L 14589,5676 14589,7476 14438,7563 14438,5763 Z M 14422,7573 L 13533,8087 12255,8087 12255,7026 14422,5773 14422,7573 Z"/>
     <path fill="rgb(58,58,58)" stroke="none" d="M 13533,8087 L 12255,8826 12255,8087 13533,8087 Z M 14422,5773 L 14589,5676 14589,7476 14422,7573 14422,5773 Z M 14407,7581 L 13559,8072 12255,8072 12255,7026 14407,5781 14407,7581 Z"/>
     <path fill="rgb(59,59,59)" stroke="none" d="M 13559,8072 L 12255,8826 12255,8072 13559,8072 Z M 14407,5781 L 14589,5676 14589,7476 14407,7581 14407,5781 Z M 14391,7591 L 13586,8056 12255,8056 12255,7026 14391,5791 14391,7591 Z"/>
     <path fill="rgb(60,60,60)" stroke="none" d="M 13586,8056 L 12255,8826 12255,8056 13586,8056 Z M 14391,5791 L 14589,5676 14589,7476 14391,7591 14391,5791 Z M 14376,7599 L 13612,8041 12255,8041 12255,7026 14376,5799 14376,7599 Z"/>
     <path fill="rgb(61,61,61)" stroke="none" d="M 13612,8041 L 12255,8826 12255,8041 13612,8041 Z M 14376,5799 L 14589,5676 14589,7476 14376,7599 14376,5799 Z M 14360,7608 L 13640,8025 12255,8025 12255,7026 14360,5808 14360,7608 Z"/>
     <path fill="rgb(62,62,62)" stroke="none" d="M 13640,8025 L 12255,8826 12255,8025 13640,8025 Z M 14360,5808 L 14589,5676 14589,7476 14360,7608 14360,5808 Z M 14345,7617 L 13666,8010 12255,8010 12255,7026 14345,5817 14345,7617 Z"/>
     <path fill="rgb(63,63,63)" stroke="none" d="M 13666,8010 L 12255,8826 12255,8010 13666,8010 Z M 14345,5817 L 14589,5676 14589,7476 14345,7617 14345,5817 Z M 14330,7626 L 13692,7995 12255,7995 12255,7026 14330,5826 14330,7626 Z"/>
     <path fill="rgb(64,64,64)" stroke="none" d="M 13692,7995 L 12255,8826 12255,7995 13692,7995 Z M 14330,5826 L 14589,5676 14589,7476 14330,7626 14330,5826 Z M 14314,7635 L 13719,7979 12255,7979 12255,7026 14314,5835 14314,7635 Z"/>
     <path fill="rgb(65,65,65)" stroke="none" d="M 13719,7979 L 12255,8826 12255,7979 13719,7979 Z M 14314,5835 L 14589,5676 14589,7476 14314,7635 14314,5835 Z M 14299,7644 L 13745,7964 12255,7964 12255,7026 14299,5844 14299,7644 Z"/>
     <path fill="rgb(66,66,66)" stroke="none" d="M 13745,7964 L 12255,8826 12255,7964 13745,7964 Z M 14299,5844 L 14589,5676 14589,7476 14299,7644 14299,5844 Z M 14283,7653 L 13773,7948 12255,7948 12255,7026 14283,5853 14283,7653 Z"/>
     <path fill="rgb(67,67,67)" stroke="none" d="M 13773,7948 L 12255,8826 12255,7948 13773,7948 Z M 14283,5853 L 14589,5676 14589,7476 14283,7653 14283,5853 Z M 14268,7662 L 13799,7933 12255,7933 12255,7026 14268,5862 14268,7662 Z"/>
     <path fill="rgb(68,68,68)" stroke="none" d="M 13799,7933 L 12255,8826 12255,7933 13799,7933 Z M 14268,5862 L 14589,5676 14589,7476 14268,7662 14268,5862 Z M 14252,7671 L 13827,7917 12255,7917 12255,7026 14252,5871 14252,7671 Z"/>
     <path fill="rgb(69,69,69)" stroke="none" d="M 13827,7917 L 12255,8826 12255,7917 13827,7917 Z M 14252,5871 L 14589,5676 14589,7476 14252,7671 14252,5871 Z M 14237,7680 L 13852,7902 12255,7902 12255,7026 14237,5880 14237,7680 Z"/>
     <path fill="rgb(70,70,70)" stroke="none" d="M 13852,7902 L 12255,8826 12255,7902 13852,7902 Z M 14237,5880 L 14589,5676 14589,7476 14237,7680 14237,5880 Z M 14221,7689 L 13880,7886 12255,7886 12255,7026 14221,5889 14221,7689 Z"/>
     <path fill="rgb(71,71,71)" stroke="none" d="M 13880,7886 L 12255,8826 12255,7886 13880,7886 Z M 14221,5889 L 14589,5676 14589,7476 14221,7689 14221,5889 Z M 14206,7698 L 13906,7871 12255,7871 12255,7026 14206,5898 14206,7698 Z"/>
     <path fill="rgb(72,72,72)" stroke="none" d="M 13906,7871 L 12255,8826 12255,7871 13906,7871 Z M 14206,5898 L 14589,5676 14589,7476 14206,7698 14206,5898 Z M 14190,7707 L 13934,7855 12255,7855 12255,7026 14190,5907 14190,7707 Z"/>
     <path fill="rgb(73,73,73)" stroke="none" d="M 13934,7855 L 12255,8826 12255,7855 13934,7855 Z M 14190,5907 L 14589,5676 14589,7476 14190,7707 14190,5907 Z M 14175,7715 L 13960,7840 12255,7840 12255,7026 14175,5915 14175,7715 Z"/>
     <path fill="rgb(74,74,74)" stroke="none" d="M 13960,7840 L 12255,8826 12255,7840 13960,7840 Z M 14175,5915 L 14589,5676 14589,7476 14175,7715 14175,5915 Z M 14160,7724 L 13986,7825 12255,7825 12255,7026 14160,5924 14160,7724 Z"/>
     <path fill="rgb(75,75,75)" stroke="none" d="M 13986,7825 L 12255,8826 12255,7825 13986,7825 Z M 14160,5924 L 14589,5676 14589,7476 14160,7724 14160,5924 Z M 14144,7733 L 14013,7809 12255,7809 12255,7026 14144,5933 14144,7733 Z"/>
     <path fill="rgb(76,76,76)" stroke="none" d="M 14013,7809 L 12255,8826 12255,7809 14013,7809 Z M 14144,5933 L 14589,5676 14589,7476 14144,7733 14144,5933 Z M 14129,7742 L 14039,7794 12255,7794 12255,7026 14129,5942 14129,7742 Z"/>
     <path fill="rgb(77,77,77)" stroke="none" d="M 14039,7794 L 12255,8826 12255,7794 14039,7794 Z M 14129,5942 L 14589,5676 14589,7476 14129,7742 14129,5942 Z M 14113,7751 L 14067,7778 12255,7778 12255,7026 14113,5951 14113,7751 Z"/>
     <path fill="rgb(78,78,78)" stroke="none" d="M 14067,7778 L 12255,8826 12255,7778 14067,7778 Z M 14113,5951 L 14589,5676 14589,7476 14113,7751 14113,5951 Z M 14098,7760 L 14093,7763 12255,7763 12255,7026 14098,5960 14098,7760 Z"/>
     <path fill="rgb(79,79,79)" stroke="none" d="M 14093,7763 L 12255,8826 12255,7763 14093,7763 Z M 14098,5960 L 14589,5676 14589,7476 14098,7760 14098,5960 Z M 14082,7747 L 12255,7747 12255,7026 14082,5969 14082,7747 Z"/>
     <path fill="rgb(80,80,80)" stroke="none" d="M 14082,7747 L 14082,5969 14589,5676 14589,7476 12255,8826 12255,7747 14082,7747 Z M 14067,7732 L 12255,7732 12255,7026 14067,5978 14067,7732 Z"/>
     <path fill="rgb(81,81,81)" stroke="none" d="M 14067,7732 L 14067,5978 14589,5676 14589,7476 12255,8826 12255,7732 14067,7732 Z M 14051,7716 L 12255,7716 12255,7026 14051,5987 14051,7716 Z"/>
     <path fill="rgb(82,82,82)" stroke="none" d="M 14051,7716 L 14051,5987 14589,5676 14589,7476 12255,8826 12255,7716 14051,7716 Z M 14036,7701 L 12255,7701 12255,7026 14036,5996 14036,7701 Z"/>
     <path fill="rgb(83,83,83)" stroke="none" d="M 14036,7701 L 14036,5996 14589,5676 14589,7476 12255,8826 12255,7701 14036,7701 Z M 14020,7685 L 12255,7685 12255,7026 14020,6005 14020,7685 Z"/>
     <path fill="rgb(84,84,84)" stroke="none" d="M 14020,7685 L 14020,6005 14589,5676 14589,7476 12255,8826 12255,7685 14020,7685 Z M 14005,7670 L 12255,7670 12255,7026 14005,6014 14005,7670 Z"/>
     <path fill="rgb(85,85,85)" stroke="none" d="M 14005,7670 L 14005,6014 14589,5676 14589,7476 12255,8826 12255,7670 14005,7670 Z M 13990,7655 L 12255,7655 12255,7026 13990,6022 13990,7655 Z"/>
     <path fill="rgb(86,86,86)" stroke="none" d="M 13990,7655 L 13990,6022 14589,5676 14589,7476 12255,8826 12255,7655 13990,7655 Z M 13974,7639 L 12255,7639 12255,7026 13974,6032 13974,7639 Z"/>
     <path fill="rgb(87,87,87)" stroke="none" d="M 13974,7639 L 13974,6032 14589,5676 14589,7476 12255,8826 12255,7639 13974,7639 Z M 13959,7624 L 12255,7624 12255,7026 13959,6040 13959,7624 Z"/>
     <path fill="rgb(88,88,88)" stroke="none" d="M 13959,7624 L 13959,6040 14589,5676 14589,7476 12255,8826 12255,7624 13959,7624 Z M 13943,7608 L 12255,7608 12255,7026 13943,6050 13943,7608 Z"/>
     <path fill="rgb(89,89,89)" stroke="none" d="M 13943,7608 L 13943,6050 14589,5676 14589,7476 12255,8826 12255,7608 13943,7608 Z M 13928,7593 L 12255,7593 12255,7026 13928,6058 13928,7593 Z"/>
     <path fill="rgb(90,90,90)" stroke="none" d="M 13928,7593 L 13928,6058 14589,5676 14589,7476 12255,8826 12255,7593 13928,7593 Z M 13912,7577 L 12255,7577 12255,7026 13912,6068 13912,7577 Z"/>
     <path fill="rgb(91,91,91)" stroke="none" d="M 13912,7577 L 13912,6068 14589,5676 14589,7476 12255,8826 12255,7577 13912,7577 Z M 13897,7562 L 12255,7562 12255,7026 13897,6076 13897,7562 Z"/>
     <path fill="rgb(92,92,92)" stroke="none" d="M 13897,7562 L 13897,6076 14589,5676 14589,7476 12255,8826 12255,7562 13897,7562 Z M 13881,7546 L 12255,7546 12255,7026 13881,6086 13881,7546 Z"/>
     <path fill="rgb(93,93,93)" stroke="none" d="M 13881,7546 L 13881,6086 14589,5676 14589,7476 12255,8826 12255,7546 13881,7546 Z M 13866,7531 L 12255,7531 12255,7026 13866,6094 13866,7531 Z"/>
     <path fill="rgb(94,94,94)" stroke="none" d="M 13866,7531 L 13866,6094 14589,5676 14589,7476 12255,8826 12255,7531 13866,7531 Z M 13850,7515 L 12255,7515 12255,7026 13850,6103 13850,7515 Z"/>
     <path fill="rgb(95,95,95)" stroke="none" d="M 13850,7515 L 13850,6103 14589,5676 14589,7476 12255,8826 12255,7515 13850,7515 Z M 13835,7500 L 12255,7500 12255,7026 13835,6112 13835,7500 Z"/>
     <path fill="rgb(96,96,96)" stroke="none" d="M 13835,7500 L 13835,6112 14589,5676 14589,7476 12255,8826 12255,7500 13835,7500 Z M 13820,7485 L 12255,7485 12255,7026 13820,6121 13820,7485 Z"/>
     <path fill="rgb(97,97,97)" stroke="none" d="M 13820,7485 L 13820,6121 14589,5676 14589,7476 12255,8826 12255,7485 13820,7485 Z M 13804,7469 L 12255,7469 12255,7026 13804,6130 13804,7469 Z"/>
     <path fill="rgb(98,98,98)" stroke="none" d="M 13804,7469 L 13804,6130 14589,5676 14589,7476 12255,8826 12255,7469 13804,7469 Z M 13789,7454 L 12255,7454 12255,7026 13789,6139 13789,7454 Z"/>
     <path fill="rgb(99,99,99)" stroke="none" d="M 13789,7454 L 13789,6139 14589,5676 14589,7476 12255,8826 12255,7454 13789,7454 Z M 13773,7438 L 12255,7438 12255,7026 13773,6148 13773,7438 Z"/>
     <path fill="rgb(100,100,100)" stroke="none" d="M 13773,7438 L 13773,6148 14589,5676 14589,7476 12255,8826 12255,7438 13773,7438 Z M 13758,7423 L 12255,7423 12255,7026 13758,6157 13758,7423 Z"/>
     <path fill="rgb(101,101,101)" stroke="none" d="M 13758,7423 L 13758,6157 14589,5676 14589,7476 12255,8826 12255,7423 13758,7423 Z M 13742,7407 L 12255,7407 12255,7026 13742,6166 13742,7407 Z"/>
     <path fill="rgb(102,102,102)" stroke="none" d="M 13742,7407 L 13742,6166 14589,5676 14589,7476 12255,8826 12255,7407 13742,7407 Z M 13727,7392 L 12255,7392 12255,7026 13727,6175 13727,7392 Z"/>
     <path fill="rgb(103,103,103)" stroke="none" d="M 13727,7392 L 13727,6175 14589,5676 14589,7476 12255,8826 12255,7392 13727,7392 Z M 13711,7376 L 12255,7376 12255,7026 13711,6184 13711,7376 Z"/>
     <path fill="rgb(104,104,104)" stroke="none" d="M 13711,7376 L 13711,6184 14589,5676 14589,7476 12255,8826 12255,7376 13711,7376 Z M 13696,7361 L 12255,7361 12255,7026 13696,6193 13696,7361 Z"/>
     <path fill="rgb(105,105,105)" stroke="none" d="M 13696,7361 L 13696,6193 14589,5676 14589,7476 12255,8826 12255,7361 13696,7361 Z M 13680,7345 L 12255,7345 12255,7026 13680,6202 13680,7345 Z"/>
     <path fill="rgb(106,106,106)" stroke="none" d="M 13680,7345 L 13680,6202 14589,5676 14589,7476 12255,8826 12255,7345 13680,7345 Z M 13665,7330 L 12255,7330 12255,7026 13665,6210 13665,7330 Z"/>
     <path fill="rgb(107,107,107)" stroke="none" d="M 13665,7330 L 13665,6210 14589,5676 14589,7476 12255,8826 12255,7330 13665,7330 Z M 13650,7315 L 12259,7315 12259,7024 13650,6219 13650,7315 Z"/>
     <path fill="rgb(108,108,108)" stroke="none" d="M 12259,7315 L 13650,7315 13650,6219 14589,5676 14589,7476 12255,8826 12255,7026 12259,7024 12259,7315 Z M 13634,7299 L 12275,7299 12275,7014 13634,6228 13634,7299 Z"/>
     <path fill="rgb(109,109,109)" stroke="none" d="M 12275,7299 L 13634,7299 13634,6228 14589,5676 14589,7476 12255,8826 12255,7026 12275,7014 12275,7299 Z M 13619,7284 L 12290,7284 12290,7006 13619,6237 13619,7284 Z"/>
     <path fill="rgb(110,110,110)" stroke="none" d="M 12290,7284 L 13619,7284 13619,6237 14589,5676 14589,7476 12255,8826 12255,7026 12290,7006 12290,7284 Z M 13603,7268 L 12306,7268 12306,6997 13603,6246 13603,7268 Z"/>
     <path fill="rgb(111,111,111)" stroke="none" d="M 12306,7268 L 13603,7268 13603,6246 14589,5676 14589,7476 12255,8826 12255,7026 12306,6997 12306,7268 Z M 13588,7253 L 12321,7253 12321,6988 13588,6255 13588,7253 Z"/>
     <path fill="rgb(112,112,112)" stroke="none" d="M 12321,7253 L 13588,7253 13588,6255 14589,5676 14589,7476 12255,8826 12255,7026 12321,6988 12321,7253 Z M 13572,7237 L 12337,7237 12337,6979 13572,6264 13572,7237 Z"/>
     <path fill="rgb(113,113,113)" stroke="none" d="M 12337,7237 L 13572,7237 13572,6264 14589,5676 14589,7476 12255,8826 12255,7026 12337,6979 12337,7237 Z M 13557,7222 L 12352,7222 12352,6970 13557,6273 13557,7222 Z"/>
     <path fill="rgb(114,114,114)" stroke="none" d="M 12352,7222 L 13557,7222 13557,6273 14589,5676 14589,7476 12255,8826 12255,7026 12352,6970 12352,7222 Z M 13541,7206 L 12368,7206 12368,6961 13541,6282 13541,7206 Z"/>
     <path fill="rgb(115,115,115)" stroke="none" d="M 12368,7206 L 13541,7206 13541,6282 14589,5676 14589,7476 12255,8826 12255,7026 12368,6961 12368,7206 Z M 13526,7191 L 12383,7191 12383,6952 13526,6291 13526,7191 Z"/>
     <path fill="rgb(116,116,116)" stroke="none" d="M 12383,7191 L 13526,7191 13526,6291 14589,5676 14589,7476 12255,8826 12255,7026 12383,6952 12383,7191 Z M 13510,7175 L 12399,7175 12399,6943 13510,6300 13510,7175 Z"/>
     <path fill="rgb(117,117,117)" stroke="none" d="M 12399,7175 L 13510,7175 13510,6300 14589,5676 14589,7476 12255,8826 12255,7026 12399,6943 12399,7175 Z M 13495,7160 L 12414,7160 12414,6934 13495,6309 13495,7160 Z"/>
     <path fill="rgb(118,118,118)" stroke="none" d="M 12414,7160 L 13495,7160 13495,6309 14589,5676 14589,7476 12255,8826 12255,7026 12414,6934 12414,7160 Z M 13480,7145 L 12430,7145 12430,6925 13480,6317 13480,7145 Z"/>
     <path fill="rgb(119,119,119)" stroke="none" d="M 12430,7145 L 13480,7145 13480,6317 14589,5676 14589,7476 12255,8826 12255,7026 12430,6925 12430,7145 Z M 13464,7129 L 12445,7129 12445,6916 13464,6327 13464,7129 Z"/>
     <path fill="rgb(120,120,120)" stroke="none" d="M 12445,7129 L 13464,7129 13464,6327 14589,5676 14589,7476 12255,8826 12255,7026 12445,6916 12445,7129 Z M 13449,7114 L 12460,7114 12460,6907 13449,6335 13449,7114 Z"/>
     <path fill="rgb(121,121,121)" stroke="none" d="M 12460,7114 L 13449,7114 13449,6335 14589,5676 14589,7476 12255,8826 12255,7026 12460,6907 12460,7114 Z M 13433,7098 L 12476,7098 12476,6898 13433,6345 13433,7098 Z"/>
     <path fill="rgb(122,122,122)" stroke="none" d="M 12476,7098 L 13433,7098 13433,6345 14589,5676 14589,7476 12255,8826 12255,7026 12476,6898 12476,7098 Z M 13418,7083 L 12491,7083 12491,6889 13418,6353 13418,7083 Z"/>
     <path fill="rgb(123,123,123)" stroke="none" d="M 12491,7083 L 13418,7083 13418,6353 14589,5676 14589,7476 12255,8826 12255,7026 12491,6889 12491,7083 Z M 13402,7067 L 12507,7067 12507,6880 13402,6363 13402,7067 Z"/>
     <path fill="rgb(124,124,124)" stroke="none" d="M 12507,7067 L 13402,7067 13402,6363 14589,5676 14589,7476 12255,8826 12255,7026 12507,6880 12507,7067 Z M 13387,7052 L 12522,7052 12522,6872 13387,6371 13387,7052 Z"/>
     <path fill="rgb(125,125,125)" stroke="none" d="M 12522,7052 L 13387,7052 13387,6371 14589,5676 14589,7476 12255,8826 12255,7026 12522,6872 12522,7052 Z M 13371,7036 L 12538,7036 12538,6862 13371,6380 13371,7036 Z"/>
     <path fill="rgb(126,126,126)" stroke="none" d="M 12538,7036 L 13371,7036 13371,6380 14589,5676 14589,7476 12255,8826 12255,7026 12538,6862 12538,7036 Z M 13356,7021 L 12553,7021 12553,6854 13356,6389 13356,7021 Z"/>
     <path fill="rgb(127,127,127)" stroke="none" d="M 12553,7021 L 13356,7021 13356,6389 14589,5676 14589,7476 12255,8826 12255,7026 12553,6854 12553,7021 Z M 13340,7005 L 12569,7005 12569,6844 13340,6398 13340,7005 Z"/>
     <path fill="rgb(128,128,128)" stroke="none" d="M 12569,7005 L 13340,7005 13340,6398 14589,5676 14589,7476 12255,8826 12255,7026 12569,6844 12569,7005 Z M 13325,6990 L 12584,6990 12584,6836 13325,6407 13325,6990 Z"/>
     <path fill="rgb(129,129,129)" stroke="none" d="M 12584,6990 L 13325,6990 13325,6407 14589,5676 14589,7476 12255,8826 12255,7026 12584,6836 12584,6990 Z M 13309,6974 L 12600,6974 12600,6826 13309,6416 13309,6974 Z"/>
     <path fill="rgb(130,130,130)" stroke="none" d="M 12600,6974 L 13309,6974 13309,6416 14589,5676 14589,7476 12255,8826 12255,7026 12600,6826 12600,6974 Z M 13294,6959 L 12615,6959 12615,6818 13294,6425 13294,6959 Z"/>
     <path fill="rgb(131,131,131)" stroke="none" d="M 12615,6959 L 13294,6959 13294,6425 14589,5676 14589,7476 12255,8826 12255,7026 12615,6818 12615,6959 Z M 13279,6944 L 12630,6944 12630,6809 13279,6434 13279,6944 Z"/>
     <path fill="rgb(132,132,132)" stroke="none" d="M 12630,6944 L 13279,6944 13279,6434 14589,5676 14589,7476 12255,8826 12255,7026 12630,6809 12630,6944 Z M 13263,6928 L 12646,6928 12646,6800 13263,6443 13263,6928 Z"/>
     <path fill="rgb(133,133,133)" stroke="none" d="M 12646,6928 L 13263,6928 13263,6443 14589,5676 14589,7476 12255,8826 12255,7026 12646,6800 12646,6928 Z M 13248,6913 L 12661,6913 12661,6791 13248,6452 13248,6913 Z"/>
     <path fill="rgb(134,134,134)" stroke="none" d="M 12661,6913 L 13248,6913 13248,6452 14589,5676 14589,7476 12255,8826 12255,7026 12661,6791 12661,6913 Z M 13232,6897 L 12677,6897 12677,6782 13232,6461 13232,6897 Z"/>
     <path fill="rgb(135,135,135)" stroke="none" d="M 12677,6897 L 13232,6897 13232,6461 14589,5676 14589,7476 12255,8826 12255,7026 12677,6782 12677,6897 Z M 13217,6882 L 12692,6882 12692,6773 13217,6470 13217,6882 Z"/>
     <path fill="rgb(136,136,136)" stroke="none" d="M 12692,6882 L 13217,6882 13217,6470 14589,5676 14589,7476 12255,8826 12255,7026 12692,6773 12692,6882 Z M 13201,6866 L 12708,6866 12708,6764 13201,6479 13201,6866 Z"/>
     <path fill="rgb(137,137,137)" stroke="none" d="M 12708,6866 L 13201,6866 13201,6479 14589,5676 14589,7476 12255,8826 12255,7026 12708,6764 12708,6866 Z M 13186,6851 L 12723,6851 12723,6755 13186,6488 13186,6851 Z"/>
     <path fill="rgb(138,138,138)" stroke="none" d="M 12723,6851 L 13186,6851 13186,6488 14589,5676 14589,7476 12255,8826 12255,7026 12723,6755 12723,6851 Z M 13170,6835 L 12739,6835 12739,6746 13170,6497 13170,6835 Z"/>
     <path fill="rgb(139,139,139)" stroke="none" d="M 12739,6835 L 13170,6835 13170,6497 14589,5676 14589,7476 12255,8826 12255,7026 12739,6746 12739,6835 Z M 13155,6820 L 12754,6820 12754,6737 13155,6505 13155,6820 Z"/>
     <path fill="rgb(140,140,140)" stroke="none" d="M 12754,6820 L 13155,6820 13155,6505 14589,5676 14589,7476 12255,8826 12255,7026 12754,6737 12754,6820 Z M 13139,6804 L 12770,6804 12770,6728 13139,6515 13139,6804 Z"/>
     <path fill="rgb(141,141,141)" stroke="none" d="M 12770,6804 L 13139,6804 13139,6515 14589,5676 14589,7476 12255,8826 12255,7026 12770,6728 12770,6804 Z M 13124,6789 L 12785,6789 12785,6719 13124,6523 13124,6789 Z"/>
     <path fill="rgb(142,142,142)" stroke="none" d="M 12785,6789 L 13124,6789 13124,6523 14589,5676 14589,7476 12255,8826 12255,7026 12785,6719 12785,6789 Z M 13109,6774 L 12800,6774 12800,6711 13109,6532 13109,6774 Z"/>
     <path fill="rgb(143,143,143)" stroke="none" d="M 12800,6774 L 13109,6774 13109,6532 14589,5676 14589,7476 12255,8826 12255,7026 12800,6711 12800,6774 Z M 13093,6758 L 12816,6758 12816,6702 13093,6541 13093,6758 Z"/>
     <path fill="rgb(144,144,144)" stroke="none" d="M 12816,6758 L 13093,6758 13093,6541 14589,5676 14589,7476 12255,8826 12255,7026 12816,6702 12816,6758 Z M 13078,6743 L 12831,6743 12831,6693 13078,6550 13078,6743 Z"/>
     <path fill="rgb(145,145,145)" stroke="none" d="M 12831,6743 L 13078,6743 13078,6550 14589,5676 14589,7476 12255,8826 12255,7026 12831,6693 12831,6743 Z M 13062,6727 L 12847,6727 12847,6684 13062,6559 13062,6727 Z"/>
     <path fill="rgb(146,146,146)" stroke="none" d="M 12847,6727 L 13062,6727 13062,6559 14589,5676 14589,7476 12255,8826 12255,7026 12847,6684 12847,6727 Z M 13047,6712 L 12862,6712 12862,6675 13047,6568 13047,6712 Z"/>
     <path fill="rgb(147,147,147)" stroke="none" d="M 12862,6712 L 13047,6712 13047,6568 14589,5676 14589,7476 12255,8826 12255,7026 12862,6675 12862,6712 Z M 13031,6696 L 12878,6696 12878,6666 13031,6577 13031,6696 Z"/>
     <path fill="rgb(148,148,148)" stroke="none" d="M 12878,6696 L 13031,6696 13031,6577 14589,5676 14589,7476 12255,8826 12255,7026 12878,6666 12878,6696 Z M 13016,6681 L 12893,6681 12893,6657 13016,6586 13016,6681 Z"/>
     <path fill="rgb(149,149,149)" stroke="none" d="M 12893,6681 L 13016,6681 13016,6586 14589,5676 14589,7476 12255,8826 12255,7026 12893,6657 12893,6681 Z M 13000,6665 L 12909,6665 12909,6648 13000,6595 13000,6665 Z"/>
     <path fill="rgb(150,150,150)" stroke="none" d="M 12909,6665 L 13000,6665 13000,6595 14589,5676 14589,7476 12255,8826 12255,7026 12909,6648 12909,6665 Z M 12985,6650 L 12924,6650 12924,6639 12985,6604 12985,6650 Z"/>
     <path fill="rgb(151,151,151)" stroke="none" d="M 12924,6650 L 12985,6650 12985,6604 14589,5676 14589,7476 12255,8826 12255,7026 12924,6639 12924,6650 Z M 12969,6634 L 12940,6634 12940,6630 12969,6613 12969,6634 Z"/>
     <path fill="rgb(153,153,153)" stroke="none" d="M 12940,6634 L 12969,6634 12969,6613 14589,5676 14589,7476 12255,8826 12255,7026 12940,6630 12940,6634 Z"/>
     <path fill="none" stroke="rgb(178,178,178)" id="Drawing_3_0" stroke-width="40" stroke-linejoin="round" d="M 12255,8826 L 12255,7026 14589,5676 14589,7476 12255,8826 Z"/>
    </g>
    <g>
     <defs>
      <linearGradient id="Gradient_276" gradientUnits="userSpaceOnUse" x1="12255" y1="4326" x2="12255" y2="7026">
       <stop offset="0.1" stop-color="rgb(51,51,51)"/>
       <stop offset="1" stop-color="rgb(153,153,153)"/>
      </linearGradient>
     </defs>
     <path fill="url(#Gradient_276)" stroke="rgb(178,178,178)" id="Drawing_4_0" stroke-width="40" stroke-linejoin="round" d="M 12255,7026 L 9921,5676 12255,4326 14589,5676 12255,7026 Z"/>
    </g>
    <g>
     <path fill="rgb(57,181,74)" stroke="none" d="M 11944,7206 L 11944,7026 12100,7116 12100,7296 11944,7206 Z"/>
     <path fill="none" stroke="rgb(51,51,51)" id="Drawing_5_0" stroke-width="40" stroke-linejoin="round" d="M 11944,7206 L 11944,7026 12100,7116 12100,7296 11944,7206 Z"/>
    </g>
    <g>
     <path fill="rgb(51,51,51)" stroke="none" d="M 11933,5248 L 10699,5676 11933,4962 11933,5248 Z"/>
     <path fill="rgb(52,52,52)" stroke="none" d="M 11933,4962 L 12255,4776 12255,5136 11933,5248 11933,4962 Z M 11923,5251 L 10699,5676 11923,4968 11923,5251 Z"/>
     <path fill="rgb(53,53,53)" stroke="none" d="M 11923,4968 L 12255,4776 12255,5136 11923,5251 11923,4968 Z M 11913,5255 L 10699,5676 11913,4974 11913,5255 Z"/>
     <path fill="rgb(54,54,54)" stroke="none" d="M 11913,4974 L 12255,4776 12255,5136 11913,5255 11913,4974 Z M 11903,5258 L 10699,5676 11903,4980 11903,5258 Z"/>
     <path fill="rgb(56,56,56)" stroke="none" d="M 11903,4980 L 12255,4776 12255,5136 11903,5258 11903,4980 Z M 11893,5262 L 10699,5676 11893,4985 11893,5262 Z"/>
     <path fill="rgb(57,57,57)" stroke="none" d="M 11893,4985 L 12255,4776 12255,5136 11893,5262 11893,4985 Z M 11883,5265 L 10699,5676 11883,4991 11883,5265 Z"/>
     <path fill="rgb(58,58,58)" stroke="none" d="M 11883,4991 L 12255,4776 12255,5136 11883,5265 11883,4991 Z M 11873,5269 L 10699,5676 11873,4997 11873,5269 Z"/>
     <path fill="rgb(60,60,60)" stroke="none" d="M 11873,4997 L 12255,4776 12255,5136 11873,5269 11873,4997 Z M 11863,5272 L 10699,5676 11863,5003 11863,5272 Z"/>
     <path fill="rgb(61,61,61)" stroke="none" d="M 11863,5003 L 12255,4776 12255,5136 11863,5272 11863,5003 Z M 11852,5276 L 10699,5676 11852,5009 11852,5276 Z"/>
     <path fill="rgb(62,62,62)" stroke="none" d="M 11852,5009 L 12255,4776 12255,5136 11852,5276 11852,5009 Z M 11842,5279 L 10699,5676 11842,5015 11842,5279 Z"/>
     <path fill="rgb(64,64,64)" stroke="none" d="M 11842,5015 L 12255,4776 12255,5136 11842,5279 11842,5015 Z M 11832,5283 L 10699,5676 11832,5021 11832,5283 Z"/>
     <path fill="rgb(65,65,65)" stroke="none" d="M 11832,5021 L 12255,4776 12255,5136 11832,5283 11832,5021 Z M 11822,5286 L 10699,5676 11822,5026 11822,5286 Z"/>
     <path fill="rgb(66,66,66)" stroke="none" d="M 11822,5026 L 12255,4776 12255,5136 11822,5286 11822,5026 Z M 11812,5290 L 10699,5676 11812,5032 11812,5290 Z"/>
     <path fill="rgb(68,68,68)" stroke="none" d="M 11812,5032 L 12255,4776 12255,5136 11812,5290 11812,5032 Z M 11802,5293 L 10699,5676 11802,5038 11802,5293 Z"/>
     <path fill="rgb(69,69,69)" stroke="none" d="M 11802,5038 L 12255,4776 12255,5136 11802,5293 11802,5038 Z"/>
     <path fill="rgb(70,70,70)" stroke="none" d="M 10711,5672 L 10699,5676 10706,5672 10711,5672 Z M 11792,5044 L 12255,4776 12255,5136 11792,5297 11792,5044 Z M 11782,5300 L 10739,5662 10723,5662 11782,5050 11782,5300 Z"/>
     <path fill="rgb(72,72,72)" stroke="none" d="M 10739,5662 L 10699,5676 10723,5662 10739,5662 Z M 11782,5050 L 12255,4776 12255,5136 11782,5300 11782,5050 Z M 11771,5304 L 10771,5651 10742,5651 11771,5056 11771,5304 Z"/>
     <path fill="rgb(73,73,73)" stroke="none" d="M 10771,5651 L 10699,5676 10742,5651 10771,5651 Z M 11771,5056 L 12255,4776 12255,5136 11771,5304 11771,5056 Z M 11761,5307 L 10800,5641 10760,5641 11761,5062 11761,5307 Z"/>
     <path fill="rgb(74,74,74)" stroke="none" d="M 10800,5641 L 10699,5676 10760,5641 10800,5641 Z M 11761,5062 L 12255,4776 12255,5136 11761,5307 11761,5062 Z M 11751,5311 L 10829,5631 10777,5631 11751,5068 11751,5311 Z"/>
     <path fill="rgb(76,76,76)" stroke="none" d="M 10829,5631 L 10699,5676 10777,5631 10829,5631 Z M 11751,5068 L 12255,4776 12255,5136 11751,5311 11751,5068 Z M 11741,5314 L 10857,5621 10794,5621 11741,5073 11741,5314 Z"/>
     <path fill="rgb(77,77,77)" stroke="none" d="M 10857,5621 L 10699,5676 10794,5621 10857,5621 Z M 11741,5073 L 12255,4776 12255,5136 11741,5314 11741,5073 Z M 11731,5318 L 10886,5611 10811,5611 11731,5079 11731,5318 Z"/>
     <path fill="rgb(78,78,78)" stroke="none" d="M 10886,5611 L 10699,5676 10811,5611 10886,5611 Z M 11731,5079 L 12255,4776 12255,5136 11731,5318 11731,5079 Z M 11721,5321 L 10915,5601 10829,5601 11721,5085 11721,5321 Z"/>
     <path fill="rgb(80,80,80)" stroke="none" d="M 10915,5601 L 10699,5676 10829,5601 10915,5601 Z M 11721,5085 L 12255,4776 12255,5136 11721,5321 11721,5085 Z M 11711,5325 L 10944,5591 10846,5591 11711,5091 11711,5325 Z"/>
     <path fill="rgb(81,81,81)" stroke="none" d="M 10944,5591 L 10699,5676 10846,5591 10944,5591 Z M 11711,5091 L 12255,4776 12255,5136 11711,5325 11711,5091 Z M 11701,5328 L 10973,5581 10863,5581 11701,5096 11701,5328 Z"/>
     <path fill="rgb(82,82,82)" stroke="none" d="M 10973,5581 L 10699,5676 10863,5581 10973,5581 Z M 11701,5096 L 12255,4776 12255,5136 11701,5328 11701,5096 Z M 11690,5332 L 11004,5570 10882,5570 11690,5103 11690,5332 Z"/>
     <path fill="rgb(84,84,84)" stroke="none" d="M 11004,5570 L 10699,5676 10882,5570 11004,5570 Z M 11690,5103 L 12255,4776 12255,5136 11690,5332 11690,5103 Z M 11680,5336 L 11033,5560 10900,5560 11680,5109 11680,5336 Z"/>
     <path fill="rgb(85,85,85)" stroke="none" d="M 11033,5560 L 10699,5676 10900,5560 11033,5560 Z M 11680,5109 L 12255,4776 12255,5136 11680,5336 11680,5109 Z M 11670,5339 L 11062,5550 10917,5550 11670,5114 11670,5339 Z"/>
     <path fill="rgb(86,86,86)" stroke="none" d="M 11062,5550 L 10699,5676 10917,5550 11062,5550 Z M 11670,5114 L 12255,4776 12255,5136 11670,5339 11670,5114 Z M 11660,5342 L 11091,5540 10934,5540 11660,5120 11660,5342 Z"/>
     <path fill="rgb(88,88,88)" stroke="none" d="M 11091,5540 L 10699,5676 10934,5540 11091,5540 Z M 11660,5120 L 12255,4776 12255,5136 11660,5342 11660,5120 Z M 11650,5346 L 11120,5530 10951,5530 11650,5126 11650,5346 Z"/>
     <path fill="rgb(89,89,89)" stroke="none" d="M 11120,5530 L 10699,5676 10951,5530 11120,5530 Z M 11650,5126 L 12255,4776 12255,5136 11650,5346 11650,5126 Z M 11640,5349 L 11149,5520 10969,5520 11640,5132 11640,5349 Z"/>
     <path fill="rgb(90,90,90)" stroke="none" d="M 11149,5520 L 10699,5676 10969,5520 11149,5520 Z M 11640,5132 L 12255,4776 12255,5136 11640,5349 11640,5132 Z M 11630,5353 L 11177,5510 10986,5510 11630,5138 11630,5353 Z"/>
     <path fill="rgb(92,92,92)" stroke="none" d="M 11177,5510 L 10699,5676 10986,5510 11177,5510 Z M 11630,5138 L 12255,4776 12255,5136 11630,5353 11630,5138 Z M 11620,5356 L 11206,5500 11003,5500 11620,5143 11620,5356 Z"/>
     <path fill="rgb(93,93,93)" stroke="none" d="M 11206,5500 L 10699,5676 11003,5500 11206,5500 Z M 11620,5143 L 12255,4776 12255,5136 11620,5356 11620,5143 Z M 11609,5360 L 11238,5489 11022,5489 11609,5150 11609,5360 Z"/>
     <path fill="rgb(94,94,94)" stroke="none" d="M 11238,5489 L 10699,5676 11022,5489 11238,5489 Z M 11609,5150 L 12255,4776 12255,5136 11609,5360 11609,5150 Z M 11599,5364 L 11267,5479 11040,5479 11599,5155 11599,5364 Z"/>
     <path fill="rgb(96,96,96)" stroke="none" d="M 11267,5479 L 10699,5676 11040,5479 11267,5479 Z M 11599,5155 L 12255,4776 12255,5136 11599,5364 11599,5155 Z M 11589,5367 L 11295,5469 11057,5469 11589,5161 11589,5367 Z"/>
     <path fill="rgb(97,97,97)" stroke="none" d="M 11295,5469 L 10699,5676 11057,5469 11295,5469 Z M 11589,5161 L 12255,4776 12255,5136 11589,5367 11589,5161 Z M 11579,5371 L 11324,5459 11074,5459 11579,5167 11579,5371 Z"/>
     <path fill="rgb(98,98,98)" stroke="none" d="M 11324,5459 L 10699,5676 11074,5459 11324,5459 Z M 11579,5167 L 12255,4776 12255,5136 11579,5371 11579,5167 Z M 11569,5374 L 11353,5449 11091,5449 11569,5173 11569,5374 Z"/>
     <path fill="rgb(100,100,100)" stroke="none" d="M 11353,5449 L 10699,5676 11091,5449 11353,5449 Z M 11569,5173 L 12255,4776 12255,5136 11569,5374 11569,5173 Z M 11559,5378 L 11382,5439 11109,5439 11559,5179 11559,5378 Z"/>
     <path fill="rgb(101,101,101)" stroke="none" d="M 11382,5439 L 10699,5676 11109,5439 11382,5439 Z M 11559,5179 L 12255,4776 12255,5136 11559,5378 11559,5179 Z M 11549,5381 L 11411,5429 11126,5429 11549,5184 11549,5381 Z"/>
     <path fill="rgb(102,102,102)" stroke="none" d="M 11411,5429 L 10699,5676 11126,5429 11411,5429 Z M 11549,5184 L 12255,4776 12255,5136 11549,5381 11549,5184 Z M 11539,5384 L 11440,5419 11143,5419 11539,5190 11539,5384 Z"/>
     <path fill="rgb(103,103,103)" stroke="none" d="M 11440,5419 L 10699,5676 11143,5419 11440,5419 Z M 11539,5190 L 12255,4776 12255,5136 11539,5384 11539,5190 Z M 11528,5388 L 11471,5408 11162,5408 11528,5197 11528,5388 Z"/>
     <path fill="rgb(105,105,105)" stroke="none" d="M 11471,5408 L 10699,5676 11162,5408 11471,5408 Z M 11528,5197 L 12255,4776 12255,5136 11528,5388 11528,5197 Z M 11518,5392 L 11500,5398 11180,5398 11518,5202 11518,5392 Z"/>
     <path fill="rgb(106,106,106)" stroke="none" d="M 11500,5398 L 10699,5676 11180,5398 11500,5398 Z M 11518,5202 L 12255,4776 12255,5136 11518,5392 11518,5202 Z M 11508,5388 L 11197,5388 11508,5208 11508,5388 Z"/>
     <path fill="rgb(107,107,107)" stroke="none" d="M 11508,5388 L 11508,5208 12255,4776 12255,5136 10699,5676 11197,5388 11508,5388 Z M 11498,5378 L 11214,5378 11498,5214 11498,5378 Z"/>
     <path fill="rgb(109,109,109)" stroke="none" d="M 11498,5378 L 11498,5214 12255,4776 12255,5136 10699,5676 11214,5378 11498,5378 Z M 11488,5368 L 11231,5368 11488,5220 11488,5368 Z"/>
     <path fill="rgb(110,110,110)" stroke="none" d="M 11488,5368 L 11488,5220 12255,4776 12255,5136 10699,5676 11231,5368 11488,5368 Z M 11478,5358 L 11249,5358 11478,5225 11478,5358 Z"/>
     <path fill="rgb(111,111,111)" stroke="none" d="M 11478,5358 L 11478,5225 12255,4776 12255,5136 10699,5676 11249,5358 11478,5358 Z M 11468,5348 L 11266,5348 11468,5231 11468,5348 Z"/>
     <path fill="rgb(113,113,113)" stroke="none" d="M 11468,5348 L 11468,5231 12255,4776 12255,5136 10699,5676 11266,5348 11468,5348 Z M 11458,5338 L 11283,5338 11458,5237 11458,5338 Z"/>
     <path fill="rgb(114,114,114)" stroke="none" d="M 11458,5338 L 11458,5237 12255,4776 12255,5136 10699,5676 11283,5338 11458,5338 Z M 11447,5327 L 11302,5327 11447,5243 11447,5327 Z"/>
     <path fill="rgb(115,115,115)" stroke="none" d="M 11447,5327 L 11447,5243 12255,4776 12255,5136 10699,5676 11302,5327 11447,5327 Z M 11437,5317 L 11320,5317 11437,5249 11437,5317 Z"/>
     <path fill="rgb(117,117,117)" stroke="none" d="M 11437,5317 L 11437,5249 12255,4776 12255,5136 10699,5676 11320,5317 11437,5317 Z M 11427,5307 L 11337,5307 11427,5255 11427,5307 Z"/>
     <path fill="rgb(118,118,118)" stroke="none" d="M 11427,5307 L 11427,5255 12255,4776 12255,5136 10699,5676 11337,5307 11427,5307 Z M 11417,5297 L 11354,5297 11417,5261 11417,5297 Z"/>
     <path fill="rgb(119,119,119)" stroke="none" d="M 11417,5297 L 11417,5261 12255,4776 12255,5136 10699,5676 11354,5297 11417,5297 Z M 11407,5287 L 11372,5287 11407,5266 11407,5287 Z"/>
     <path fill="rgb(121,121,121)" stroke="none" d="M 11407,5287 L 11407,5266 12255,4776 12255,5136 10699,5676 11372,5287 11407,5287 Z M 11397,5277 L 11389,5277 11397,5272 11397,5277 Z"/>
     <path fill="rgb(122,122,122)" stroke="none" d="M 11397,5277 L 11397,5272 12255,4776 12255,5136 10699,5676 11389,5277 11397,5277 Z"/>
     <path fill="rgb(123,123,123)" stroke="none" d="M 10699,5676 L 12255,4776 12255,5136 10699,5676 Z"/>
     <path fill="rgb(125,125,125)" stroke="none" d="M 10699,5676 L 12255,4776 12255,5136 10699,5676 Z"/>
     <path fill="rgb(126,126,126)" stroke="none" d="M 10699,5676 L 12255,4776 12255,5136 10699,5676 Z"/>
     <path fill="rgb(127,127,127)" stroke="none" d="M 10699,5676 L 12255,4776 12255,5136 10699,5676 Z"/>
     <path fill="rgb(129,129,129)" stroke="none" d="M 10699,5676 L 12255,4776 12255,5136 10699,5676 Z"/>
     <path fill="rgb(130,130,130)" stroke="none" d="M 10699,5676 L 12255,4776 12255,5136 10699,5676 Z"/>
     <path fill="rgb(131,131,131)" stroke="none" d="M 10699,5676 L 12255,4776 12255,5136 10699,5676 Z"/>
     <path fill="rgb(133,133,133)" stroke="none" d="M 10699,5676 L 12255,4776 12255,5136 10699,5676 Z"/>
     <path fill="rgb(134,134,134)" stroke="none" d="M 10699,5676 L 12255,4776 12255,5136 10699,5676 Z"/>
     <path fill="rgb(135,135,135)" stroke="none" d="M 10699,5676 L 12255,4776 12255,5136 10699,5676 Z"/>
     <path fill="rgb(137,137,137)" stroke="none" d="M 10699,5676 L 12255,4776 12255,5136 10699,5676 Z"/>
     <path fill="rgb(138,138,138)" stroke="none" d="M 10699,5676 L 12255,4776 12255,5136 10699,5676 Z"/>
     <path fill="rgb(139,139,139)" stroke="none" d="M 10699,5676 L 12255,4776 12255,5136 10699,5676 Z"/>
     <path fill="rgb(141,141,141)" stroke="none" d="M 10699,5676 L 12255,4776 12255,5136 10699,5676 Z"/>
     <path fill="rgb(142,142,142)" stroke="none" d="M 10699,5676 L 12255,4776 12255,5136 10699,5676 Z"/>
     <path fill="rgb(143,143,143)" stroke="none" d="M 10699,5676 L 12255,4776 12255,5136 10699,5676 Z"/>
     <path fill="rgb(145,145,145)" stroke="none" d="M 10699,5676 L 12255,4776 12255,5136 10699,5676 Z"/>
     <path fill="rgb(146,146,146)" stroke="none" d="M 10699,5676 L 12255,4776 12255,5136 10699,5676 Z"/>
     <path fill="rgb(147,147,147)" stroke="none" d="M 10699,5676 L 12255,4776 12255,5136 10699,5676 Z"/>
     <path fill="rgb(149,149,149)" stroke="none" d="M 10699,5676 L 12255,4776 12255,5136 10699,5676 Z"/>
     <path fill="rgb(150,150,150)" stroke="none" d="M 10699,5676 L 12255,4776 12255,5136 10699,5676 Z"/>
     <path fill="rgb(153,153,153)" stroke="none" d="M 10699,5676 L 12255,4776 12255,5136 10699,5676 Z"/>
     <path fill="none" stroke="rgb(178,178,178)" id="Drawing_6_0" stroke-width="40" stroke-linejoin="round" d="M 10699,5676 L 12255,4776 12255,5136 10699,5676 Z"/>
    </g>
    <g>
     <defs>
      <linearGradient id="Gradient_277" gradientUnits="userSpaceOnUse" x1="12254" y1="5315" x2="13812" y2="5317">
       <stop offset="0.1" stop-color="rgb(51,51,51)"/>
       <stop offset="1" stop-color="rgb(153,153,153)"/>
      </linearGradient>
     </defs>
     <path fill="url(#Gradient_277)" stroke="rgb(178,178,178)" id="Drawing_7_0" stroke-width="40" stroke-linejoin="round" d="M 12255,5136 L 12255,4776 13811,5676 13500,5856 12255,5136 Z"/>
    </g>
    <g>
     <path fill="none" stroke="rgb(51,51,51)" id="Drawing_8_0" stroke-width="40" stroke-linejoin="round" d="M 13656,5766 L 12411,5046"/>
    </g>
    <g>
     <path fill="rgb(51,51,51)" stroke="none" d="M 11544,7938 L 10310,8331 10310,8106 11544,7606 11544,7938 Z"/>
     <path fill="rgb(52,52,52)" stroke="none" d="M 11544,7606 L 11866,7476 11866,7836 11544,7938 11544,7606 Z M 11534,7942 L 10310,8331 10310,8106 11534,7610 11534,7942 Z"/>
     <path fill="rgb(53,53,53)" stroke="none" d="M 11534,7610 L 11866,7476 11866,7836 11534,7942 11534,7610 Z M 11524,7945 L 10310,8331 10310,8106 11524,7614 11524,7945 Z"/>
     <path fill="rgb(54,54,54)" stroke="none" d="M 11524,7614 L 11866,7476 11866,7836 11524,7945 11524,7614 Z M 11514,7948 L 10310,8331 10310,8106 11514,7619 11514,7948 Z"/>
     <path fill="rgb(56,56,56)" stroke="none" d="M 11514,7619 L 11866,7476 11866,7836 11514,7948 11514,7619 Z M 11504,7951 L 10310,8331 10310,8106 11504,7623 11504,7951 Z"/>
     <path fill="rgb(57,57,57)" stroke="none" d="M 11504,7623 L 11866,7476 11866,7836 11504,7951 11504,7623 Z M 11494,7954 L 10310,8331 10310,8106 11494,7627 11494,7954 Z"/>
     <path fill="rgb(58,58,58)" stroke="none" d="M 11494,7627 L 11866,7476 11866,7836 11494,7954 11494,7627 Z M 11484,7958 L 10310,8331 10310,8106 11484,7631 11484,7958 Z"/>
     <path fill="rgb(60,60,60)" stroke="none" d="M 11484,7631 L 11866,7476 11866,7836 11484,7958 11484,7631 Z M 11474,7961 L 10310,8331 10310,8106 11474,7635 11474,7961 Z"/>
     <path fill="rgb(61,61,61)" stroke="none" d="M 11474,7635 L 11866,7476 11866,7836 11474,7961 11474,7635 Z M 11463,7964 L 10310,8331 10310,8106 11463,7639 11463,7964 Z"/>
     <path fill="rgb(62,62,62)" stroke="none" d="M 11463,7639 L 11866,7476 11866,7836 11463,7964 11463,7639 Z M 11453,7967 L 10310,8331 10310,8106 11453,7643 11453,7967 Z"/>
     <path fill="rgb(64,64,64)" stroke="none" d="M 11453,7643 L 11866,7476 11866,7836 11453,7967 11453,7643 Z M 11443,7971 L 10310,8331 10310,8106 11443,7647 11443,7971 Z"/>
     <path fill="rgb(65,65,65)" stroke="none" d="M 11443,7647 L 11866,7476 11866,7836 11443,7971 11443,7647 Z M 11433,7974 L 10310,8331 10310,8106 11433,7651 11433,7974 Z"/>
     <path fill="rgb(66,66,66)" stroke="none" d="M 11433,7651 L 11866,7476 11866,7836 11433,7974 11433,7651 Z M 11423,7977 L 10310,8331 10310,8106 11423,7655 11423,7977 Z"/>
     <path fill="rgb(68,68,68)" stroke="none" d="M 11423,7655 L 11866,7476 11866,7836 11423,7977 11423,7655 Z M 11413,7980 L 10310,8331 10310,8106 11413,7659 11413,7980 Z"/>
     <path fill="rgb(69,69,69)" stroke="none" d="M 11413,7659 L 11866,7476 11866,7836 11413,7980 11413,7659 Z M 11403,7983 L 10310,8331 10310,8106 11403,7663 11403,7983 Z"/>
     <path fill="rgb(70,70,70)" stroke="none" d="M 11403,7663 L 11866,7476 11866,7836 11403,7983 11403,7663 Z M 11393,7986 L 10310,8331 10310,8106 11393,7668 11393,7986 Z"/>
     <path fill="rgb(72,72,72)" stroke="none" d="M 11393,7668 L 11866,7476 11866,7836 11393,7986 11393,7668 Z M 11382,7990 L 10310,8331 10310,8106 11382,7672 11382,7990 Z"/>
     <path fill="rgb(73,73,73)" stroke="none" d="M 11382,7672 L 11866,7476 11866,7836 11382,7990 11382,7672 Z M 11372,7993 L 10319,8328 10310,8328 10310,8106 11372,7676 11372,7993 Z"/>
     <path fill="rgb(74,74,74)" stroke="none" d="M 10319,8328 L 10310,8331 10310,8328 10319,8328 Z M 11372,7676 L 11866,7476 11866,7836 11372,7993 11372,7676 Z M 11362,7996 L 10351,8318 10310,8318 10310,8106 11362,7680 11362,7996 Z"/>
     <path fill="rgb(76,76,76)" stroke="none" d="M 10351,8318 L 10310,8331 10310,8318 10351,8318 Z M 11362,7680 L 11866,7476 11866,7836 11362,7996 11362,7680 Z M 11352,8000 L 10382,8308 10310,8308 10310,8106 11352,7684 11352,8000 Z"/>
     <path fill="rgb(77,77,77)" stroke="none" d="M 10382,8308 L 10310,8331 10310,8308 10382,8308 Z M 11352,7684 L 11866,7476 11866,7836 11352,8000 11352,7684 Z M 11342,8003 L 10414,8298 10310,8298 10310,8106 11342,7688 11342,8003 Z"/>
     <path fill="rgb(78,78,78)" stroke="none" d="M 10414,8298 L 10310,8331 10310,8298 10414,8298 Z M 11342,7688 L 11866,7476 11866,7836 11342,8003 11342,7688 Z M 11332,8006 L 10445,8288 10310,8288 10310,8106 11332,7692 11332,8006 Z"/>
     <path fill="rgb(80,80,80)" stroke="none" d="M 10445,8288 L 10310,8331 10310,8288 10445,8288 Z M 11332,7692 L 11866,7476 11866,7836 11332,8006 11332,7692 Z M 11322,8009 L 10477,8278 10310,8278 10310,8106 11322,7696 11322,8009 Z"/>
     <path fill="rgb(81,81,81)" stroke="none" d="M 10477,8278 L 10310,8331 10310,8278 10477,8278 Z M 11322,7696 L 11866,7476 11866,7836 11322,8009 11322,7696 Z M 11312,8012 L 10508,8268 10310,8268 10310,8106 11312,7700 11312,8012 Z"/>
     <path fill="rgb(82,82,82)" stroke="none" d="M 10508,8268 L 10310,8331 10310,8268 10508,8268 Z M 11312,7700 L 11866,7476 11866,7836 11312,8012 11312,7700 Z M 11301,8016 L 10543,8257 10310,8257 10310,8106 11301,7705 11301,8016 Z"/>
     <path fill="rgb(84,84,84)" stroke="none" d="M 10543,8257 L 10310,8331 10310,8257 10543,8257 Z M 11301,7705 L 11866,7476 11866,7836 11301,8016 11301,7705 Z M 11291,8019 L 10574,8247 10310,8247 10310,8106 11291,7709 11291,8019 Z"/>
     <path fill="rgb(85,85,85)" stroke="none" d="M 10574,8247 L 10310,8331 10310,8247 10574,8247 Z M 11291,7709 L 11866,7476 11866,7836 11291,8019 11291,7709 Z M 11281,8022 L 10605,8237 10310,8237 10310,8106 11281,7713 11281,8022 Z"/>
     <path fill="rgb(86,86,86)" stroke="none" d="M 10605,8237 L 10310,8331 10310,8237 10605,8237 Z M 11281,7713 L 11866,7476 11866,7836 11281,8022 11281,7713 Z M 11271,8025 L 10637,8227 10310,8227 10310,8106 11271,7717 11271,8025 Z"/>
     <path fill="rgb(88,88,88)" stroke="none" d="M 10637,8227 L 10310,8331 10310,8227 10637,8227 Z M 11271,7717 L 11866,7476 11866,7836 11271,8025 11271,7717 Z M 11261,8028 L 10668,8217 10310,8217 10310,8106 11261,7721 11261,8028 Z"/>
     <path fill="rgb(89,89,89)" stroke="none" d="M 10668,8217 L 10310,8331 10310,8217 10668,8217 Z M 11261,7721 L 11866,7476 11866,7836 11261,8028 11261,7721 Z M 11251,8032 L 10700,8207 10310,8207 10310,8106 11251,7725 11251,8032 Z"/>
     <path fill="rgb(90,90,90)" stroke="none" d="M 10700,8207 L 10310,8331 10310,8207 10700,8207 Z M 11251,7725 L 11866,7476 11866,7836 11251,8032 11251,7725 Z M 11241,8035 L 10731,8197 10310,8197 10310,8106 11241,7729 11241,8035 Z"/>
     <path fill="rgb(92,92,92)" stroke="none" d="M 10731,8197 L 10310,8331 10310,8197 10731,8197 Z M 11241,7729 L 11866,7476 11866,7836 11241,8035 11241,7729 Z M 11231,8038 L 10763,8187 10320,8187 10320,8102 11231,7733 11231,8038 Z"/>
     <path fill="rgb(93,93,93)" stroke="none" d="M 10320,8187 L 10763,8187 10310,8331 10310,8106 10320,8102 10320,8187 Z M 11231,7733 L 11866,7476 11866,7836 11231,8038 11231,7733 Z M 11220,8042 L 10797,8176 10331,8176 10331,8097 11220,7738 11220,8042 Z"/>
     <path fill="rgb(94,94,94)" stroke="none" d="M 10331,8176 L 10797,8176 10310,8331 10310,8106 10331,8097 10331,8176 Z M 11220,7738 L 11866,7476 11866,7836 11220,8042 11220,7738 Z M 11210,8045 L 10829,8166 10341,8166 10341,8093 11210,7742 11210,8045 Z"/>
     <path fill="rgb(96,96,96)" stroke="none" d="M 10341,8166 L 10829,8166 10310,8331 10310,8106 10341,8093 10341,8166 Z M 11210,7742 L 11866,7476 11866,7836 11210,8045 11210,7742 Z M 11200,8048 L 10860,8156 10351,8156 10351,8089 11200,7746 11200,8048 Z"/>
     <path fill="rgb(97,97,97)" stroke="none" d="M 10351,8156 L 10860,8156 10310,8331 10310,8106 10351,8089 10351,8156 Z M 11200,7746 L 11866,7476 11866,7836 11200,8048 11200,7746 Z M 11190,8051 L 10892,8146 10361,8146 10361,8085 11190,7750 11190,8051 Z"/>
     <path fill="rgb(98,98,98)" stroke="none" d="M 10361,8146 L 10892,8146 10310,8331 10310,8106 10361,8085 10361,8146 Z M 11190,7750 L 11866,7476 11866,7836 11190,8051 11190,7750 Z M 11180,8054 L 10923,8136 10371,8136 10371,8081 11180,7754 11180,8054 Z"/>
     <path fill="rgb(100,100,100)" stroke="none" d="M 10371,8136 L 10923,8136 10310,8331 10310,8106 10371,8081 10371,8136 Z M 11180,7754 L 11866,7476 11866,7836 11180,8054 11180,7754 Z M 11170,8057 L 10954,8126 10381,8126 10381,8077 11170,7758 11170,8057 Z"/>
     <path fill="rgb(101,101,101)" stroke="none" d="M 10381,8126 L 10954,8126 10310,8331 10310,8106 10381,8077 10381,8126 Z M 11170,7758 L 11866,7476 11866,7836 11170,8057 11170,7758 Z M 11160,8061 L 10986,8116 10391,8116 10391,8073 11160,7762 11160,8061 Z"/>
     <path fill="rgb(102,102,102)" stroke="none" d="M 10391,8116 L 10986,8116 10310,8331 10310,8106 10391,8073 10391,8116 Z M 11160,7762 L 11866,7476 11866,7836 11160,8061 11160,7762 Z M 11150,8064 L 11017,8106 10401,8106 10401,8069 11150,7766 11150,8064 Z"/>
     <path fill="rgb(103,103,103)" stroke="none" d="M 10401,8106 L 11017,8106 10310,8331 10310,8106 10401,8069 10401,8106 Z M 11150,7766 L 11866,7476 11866,7836 11150,8064 11150,7766 Z M 11139,8067 L 11052,8095 10412,8095 10412,8065 11139,7770 11139,8067 Z"/>
     <path fill="rgb(105,105,105)" stroke="none" d="M 10412,8095 L 11052,8095 10310,8331 10310,8106 10412,8065 10412,8095 Z M 11139,7770 L 11866,7476 11866,7836 11139,8067 11139,7770 Z M 11129,8070 L 11083,8085 10422,8085 10422,8061 11129,7774 11129,8070 Z"/>
     <path fill="rgb(106,106,106)" stroke="none" d="M 10422,8085 L 11083,8085 10310,8331 10310,8106 10422,8061 10422,8085 Z M 11129,7774 L 11866,7476 11866,7836 11129,8070 11129,7774 Z M 11119,8074 L 11115,8075 10432,8075 10432,8057 11119,7778 11119,8074 Z"/>
     <path fill="rgb(107,107,107)" stroke="none" d="M 10432,8075 L 11115,8075 10310,8331 10310,8106 10432,8057 10432,8075 Z M 11119,7778 L 11866,7476 11866,7836 11119,8074 11119,7778 Z M 11109,8065 L 10442,8065 10442,8053 11109,7782 11109,8065 Z"/>
     <path fill="rgb(109,109,109)" stroke="none" d="M 10442,8065 L 11109,8065 11109,7782 11866,7476 11866,7836 10310,8331 10310,8106 10442,8053 10442,8065 Z M 11099,8055 L 10452,8055 10452,8049 11099,7787 11099,8055 Z"/>
     <path fill="rgb(110,110,110)" stroke="none" d="M 10452,8055 L 11099,8055 11099,7787 11866,7476 11866,7836 10310,8331 10310,8106 10452,8049 10452,8055 Z M 11089,8045 L 10462,8045 10462,8044 11089,7791 11089,8045 Z"/>
     <path fill="rgb(111,111,111)" stroke="none" d="M 10462,8045 L 11089,8045 11089,7791 11866,7476 11866,7836 10310,8331 10310,8106 10462,8044 10462,8045 Z M 11079,8035 L 10485,8035 11079,7795 11079,8035 Z"/>
     <path fill="rgb(113,113,113)" stroke="none" d="M 11079,8035 L 11079,7795 11866,7476 11866,7836 10310,8331 10310,8106 10485,8035 11079,8035 Z M 11069,8025 L 10510,8025 11069,7799 11069,8025 Z"/>
     <path fill="rgb(114,114,114)" stroke="none" d="M 11069,8025 L 11069,7799 11866,7476 11866,7836 10310,8331 10310,8106 10510,8025 11069,8025 Z M 11058,8014 L 10537,8014 11058,7803 11058,8014 Z"/>
     <path fill="rgb(115,115,115)" stroke="none" d="M 11058,8014 L 11058,7803 11866,7476 11866,7836 10310,8331 10310,8106 10537,8014 11058,8014 Z M 11048,8004 L 10562,8004 11048,7807 11048,8004 Z"/>
     <path fill="rgb(117,117,117)" stroke="none" d="M 11048,8004 L 11048,7807 11866,7476 11866,7836 10310,8331 10310,8106 10562,8004 11048,8004 Z M 11038,7994 L 10587,7994 11038,7811 11038,7994 Z"/>
     <path fill="rgb(118,118,118)" stroke="none" d="M 11038,7994 L 11038,7811 11866,7476 11866,7836 10310,8331 10310,8106 10587,7994 11038,7994 Z M 11028,7984 L 10611,7984 11028,7815 11028,7984 Z"/>
     <path fill="rgb(119,119,119)" stroke="none" d="M 11028,7984 L 11028,7815 11866,7476 11866,7836 10310,8331 10310,8106 10611,7984 11028,7984 Z M 11018,7974 L 10636,7974 11018,7819 11018,7974 Z"/>
     <path fill="rgb(121,121,121)" stroke="none" d="M 11018,7974 L 11018,7819 11866,7476 11866,7836 10310,8331 10310,8106 10636,7974 11018,7974 Z M 11008,7964 L 10661,7964 11008,7823 11008,7964 Z"/>
     <path fill="rgb(122,122,122)" stroke="none" d="M 11008,7964 L 11008,7823 11866,7476 11866,7836 10310,8331 10310,8106 10661,7964 11008,7964 Z M 10998,7954 L 10685,7954 10998,7827 10998,7954 Z"/>
     <path fill="rgb(123,123,123)" stroke="none" d="M 10998,7954 L 10998,7827 11866,7476 11866,7836 10310,8331 10310,8106 10685,7954 10998,7954 Z M 10988,7944 L 10710,7944 10988,7831 10988,7944 Z"/>
     <path fill="rgb(125,125,125)" stroke="none" d="M 10988,7944 L 10988,7831 11866,7476 11866,7836 10310,8331 10310,8106 10710,7944 10988,7944 Z M 10977,7933 L 10737,7933 10977,7836 10977,7933 Z"/>
     <path fill="rgb(126,126,126)" stroke="none" d="M 10977,7933 L 10977,7836 11866,7476 11866,7836 10310,8331 10310,8106 10737,7933 10977,7933 Z M 10967,7923 L 10762,7923 10967,7840 10967,7923 Z"/>
     <path fill="rgb(127,127,127)" stroke="none" d="M 10967,7923 L 10967,7840 11866,7476 11866,7836 10310,8331 10310,8106 10762,7923 10967,7923 Z M 10957,7913 L 10787,7913 10957,7844 10957,7913 Z"/>
     <path fill="rgb(129,129,129)" stroke="none" d="M 10957,7913 L 10957,7844 11866,7476 11866,7836 10310,8331 10310,8106 10787,7913 10957,7913 Z M 10947,7903 L 10811,7903 10947,7848 10947,7903 Z"/>
     <path fill="rgb(130,130,130)" stroke="none" d="M 10947,7903 L 10947,7848 11866,7476 11866,7836 10310,8331 10310,8106 10811,7903 10947,7903 Z M 10937,7893 L 10836,7893 10937,7852 10937,7893 Z"/>
     <path fill="rgb(131,131,131)" stroke="none" d="M 10937,7893 L 10937,7852 11866,7476 11866,7836 10310,8331 10310,8106 10836,7893 10937,7893 Z M 10927,7883 L 10861,7883 10927,7856 10927,7883 Z"/>
     <path fill="rgb(133,133,133)" stroke="none" d="M 10927,7883 L 10927,7856 11866,7476 11866,7836 10310,8331 10310,8106 10861,7883 10927,7883 Z M 10917,7873 L 10885,7873 10917,7860 10917,7873 Z"/>
     <path fill="rgb(134,134,134)" stroke="none" d="M 10917,7873 L 10917,7860 11866,7476 11866,7836 10310,8331 10310,8106 10885,7873 10917,7873 Z"/>
     <path fill="rgb(135,135,135)" stroke="none" d="M 10310,8106 L 11866,7476 11866,7836 10310,8331 10310,8106 Z"/>
     <path fill="rgb(137,137,137)" stroke="none" d="M 10310,8106 L 11866,7476 11866,7836 10310,8331 10310,8106 Z"/>
     <path fill="rgb(138,138,138)" stroke="none" d="M 10310,8106 L 11866,7476 11866,7836 10310,8331 10310,8106 Z"/>
     <path fill="rgb(139,139,139)" stroke="none" d="M 10310,8106 L 11866,7476 11866,7836 10310,8331 10310,8106 Z"/>
     <path fill="rgb(141,141,141)" stroke="none" d="M 10310,8106 L 11866,7476 11866,7836 10310,8331 10310,8106 Z"/>
     <path fill="rgb(142,142,142)" stroke="none" d="M 10310,8106 L 11866,7476 11866,7836 10310,8331 10310,8106 Z"/>
     <path fill="rgb(143,143,143)" stroke="none" d="M 10310,8106 L 11866,7476 11866,7836 10310,8331 10310,8106 Z"/>
     <path fill="rgb(145,145,145)" stroke="none" d="M 10310,8106 L 11866,7476 11866,7836 10310,8331 10310,8106 Z"/>
     <path fill="rgb(146,146,146)" stroke="none" d="M 10310,8106 L 11866,7476 11866,7836 10310,8331 10310,8106 Z"/>
     <path fill="rgb(147,147,147)" stroke="none" d="M 10310,8106 L 11866,7476 11866,7836 10310,8331 10310,8106 Z"/>
     <path fill="rgb(149,149,149)" stroke="none" d="M 10310,8106 L 11866,7476 11866,7836 10310,8331 10310,8106 Z"/>
     <path fill="rgb(150,150,150)" stroke="none" d="M 10310,8106 L 11866,7476 11866,7836 10310,8331 10310,8106 Z"/>
     <path fill="rgb(153,153,153)" stroke="none" d="M 10310,8106 L 11866,7476 11866,7836 10310,8331 10310,8106 Z"/>
     <path fill="none" stroke="rgb(178,178,178)" id="Drawing_9_0" stroke-width="40" stroke-linejoin="round" d="M 10310,8106 L 11866,7476 11866,7836 10310,8331 10310,8106 Z"/>
    </g>
    <g>
     <path fill="none" stroke="rgb(178,178,178)" id="Drawing_10_0" stroke-width="40" stroke-linejoin="round" d="M 10699,5676 L 12255,4776 13812,5676 12255,6576 10699,5676 Z"/>
    </g>
    <g>
     <defs>
      <linearGradient id="Gradient_278" gradientUnits="userSpaceOnUse" x1="8753" y1="7767" x2="10311" y2="7769">
       <stop offset="0.1" stop-color="rgb(51,51,51)"/>
       <stop offset="1" stop-color="rgb(153,153,153)"/>
      </linearGradient>
     </defs>
     <path fill="url(#Gradient_278)" stroke="rgb(178,178,178)" id="Drawing_11_0" stroke-width="40" stroke-linejoin="round" d="M 8754,7431 L 8754,7206 10310,8106 10310,8331 8754,7431 Z"/>
    </g>
    <g>
     <path fill="none" stroke="rgb(178,178,178)" id="Drawing_12_0" stroke-width="40" stroke-linejoin="round" d="M 10309,6576 L 10309,6396 11865,7296 11865,7431"/>
    </g>
    <g>
     <defs>
      <linearGradient id="Gradient_279" gradientUnits="userSpaceOnUse" x1="10310" y1="6576" x2="10310" y2="8106">
       <stop offset="0.1" stop-color="rgb(51,51,51)"/>
       <stop offset="1" stop-color="rgb(153,153,153)"/>
      </linearGradient>
     </defs>
     <path fill="url(#Gradient_279)" stroke="rgb(178,178,178)" id="Drawing_13_0" stroke-width="40" stroke-linejoin="round" d="M 10310,8106 L 8754,7206 10310,6576 11867,7476 10310,8106 Z"/>
    </g>
    <g>
     <path fill="rgb(255,255,255)" stroke="none" d="M 9922,8016 C 9610,7836 9143,7566 8832,7386 9222,7161 9999,6846 10544,6711 10855,6891 11244,7116 11633,7341 11166,7476 10388,7791 9922,8016 Z"/>
     <path fill="none" stroke="rgb(102,102,102)" id="Drawing_14_0" stroke-width="40" stroke-linejoin="round" d="M 9922,8016 C 9610,7836 9143,7566 8832,7386 9222,7161 9999,6846 10544,6711 10855,6891 11244,7116 11633,7341 11166,7476 10388,7791 9922,8016 Z"/>
    </g>
    <g>
     <path fill="none" stroke="rgb(0,0,0)" id="Drawing_15_0" stroke-width="40" stroke-linejoin="round" d="M 9921,6756 L 9921,5676 12255,4326 14590,5676 14590,7476 12255,8826 11011,8106 10310,8331 8754,7431 8754,7206 9921,6756 Z"/>
    </g>
   </g>
  </g>
 </g>
</svg>