<?xml version="1.0" encoding="UTF-8"?>

<svg version="1.2" baseProfile="tiny" width="58.76mm" height="45.4mm" viewBox="11199 15797 5876 4540" preserveAspectRatio="xMidYMid" fill-rule="evenodd" stroke-width="28.222" stroke-linejoin="round" xmlns="http://www.w3.org/2000/svg" xmlns:xlink="http://www.w3.org/1999/xlink" xml:space="preserve">
 <g visibility="visible" id="Slide_1">
  <g id="DrawingGroup_1">
   <g>
    <path fill="rgb(221,221,221)" stroke="none" d="M 13767,20247 C 13981,20247 16644,19662 16644,19122 16644,18582 16001,18447 15788,18447 15788,18582 13690,19257 13767,20247 Z"/>
    <path fill="none" stroke="rgb(221,221,221)" id="Drawing_1_0" stroke-width="40" stroke-linejoin="round" d="M 13767,20247 C 13981,20247 16644,19662 16644,19122 16644,18582 16001,18447 15788,18447 15788,18582 13690,19257 13767,20247 Z"/>
   </g>
   <g id="DrawingGroup_2">
    <g>
     <path fill="rgb(102,102,102)" stroke="none" d="M 15799,19018 L 14697,19656 13554,19656 13554,18517 15799,17218 15799,19018 Z"/>
     <path fill="rgb(103,103,103)" stroke="none" d="M 14697,19656 L 13554,20317 13554,19656 14697,19656 Z M 15799,17218 L 15888,17167 15888,18967 15799,19018 15799,17218 Z M 15768,19036 L 14750,19625 13554,19625 13554,18517 15768,17236 15768,19036 Z"/>
     <path fill="rgb(104,104,104)" stroke="none" d="M 14750,19625 L 13554,20317 13554,19625 14750,19625 Z M 15768,17236 L 15888,17167 15888,18967 15768,19036 15768,17236 Z M 15737,19054 L 14804,19594 13554,19594 13554,18517 15737,17254 15737,19054 Z"/>
     <path fill="rgb(105,105,105)" stroke="none" d="M 14804,19594 L 13554,20317 13554,19594 14804,19594 Z M 15737,17254 L 15888,17167 15888,18967 15737,19054 15737,17254 Z M 15706,19072 L 14858,19563 13554,19563 13554,18517 15706,17272 15706,19072 Z"/>
     <path fill="rgb(106,106,106)" stroke="none" d="M 14858,19563 L 13554,20317 13554,19563 14858,19563 Z M 15706,17272 L 15888,17167 15888,18967 15706,19072 15706,17272 Z M 15675,19090 L 14911,19532 13554,19532 13554,18517 15675,17290 15675,19090 Z"/>
     <path fill="rgb(107,107,107)" stroke="none" d="M 14911,19532 L 13554,20317 13554,19532 14911,19532 Z M 15675,17290 L 15888,17167 15888,18967 15675,19090 15675,17290 Z M 15644,19108 L 14965,19501 13554,19501 13554,18517 15644,17308 15644,19108 Z"/>
     <path fill="rgb(108,108,108)" stroke="none" d="M 14965,19501 L 13554,20317 13554,19501 14965,19501 Z M 15644,17308 L 15888,17167 15888,18967 15644,19108 15644,17308 Z M 15613,19126 L 15018,19470 13554,19470 13554,18517 15613,17326 15613,19126 Z"/>
     <path fill="rgb(109,109,109)" stroke="none" d="M 15018,19470 L 13554,20317 13554,19470 15018,19470 Z M 15613,17326 L 15888,17167 15888,18967 15613,19126 15613,17326 Z M 15582,19144 L 15072,19439 13554,19439 13554,18517 15582,17344 15582,19144 Z"/>
     <path fill="rgb(110,110,110)" stroke="none" d="M 15072,19439 L 13554,20317 13554,19439 15072,19439 Z M 15582,17344 L 15888,17167 15888,18967 15582,19144 15582,17344 Z M 15551,19162 L 15126,19408 13554,19408 13554,18517 15551,17362 15551,19162 Z"/>
     <path fill="rgb(111,111,111)" stroke="none" d="M 15126,19408 L 13554,20317 13554,19408 15126,19408 Z M 15551,17362 L 15888,17167 15888,18967 15551,19162 15551,17362 Z M 15520,19180 L 15179,19377 13554,19377 13554,18517 15520,17380 15520,19180 Z"/>
     <path fill="rgb(112,112,112)" stroke="none" d="M 15179,19377 L 13554,20317 13554,19377 15179,19377 Z M 15520,17380 L 15888,17167 15888,18967 15520,19180 15520,17380 Z M 15489,19198 L 15233,19346 13554,19346 13554,18517 15489,17398 15489,19198 Z"/>
     <path fill="rgb(113,113,113)" stroke="none" d="M 15233,19346 L 13554,20317 13554,19346 15233,19346 Z M 15489,17398 L 15888,17167 15888,18967 15489,19198 15489,17398 Z M 15459,19215 L 15285,19316 13554,19316 13554,18517 15459,17415 15459,19215 Z"/>
     <path fill="rgb(114,114,114)" stroke="none" d="M 15285,19316 L 13554,20317 13554,19316 15285,19316 Z M 15459,17415 L 15888,17167 15888,18967 15459,19215 15459,17415 Z M 15428,19233 L 15338,19285 13554,19285 13554,18517 15428,17433 15428,19233 Z"/>
     <path fill="rgb(115,115,115)" stroke="none" d="M 15338,19285 L 13554,20317 13554,19285 15338,19285 Z M 15428,17433 L 15888,17167 15888,18967 15428,19233 15428,17433 Z M 15397,19251 L 15392,19254 13554,19254 13554,18517 15397,17451 15397,19251 Z"/>
     <path fill="rgb(116,116,116)" stroke="none" d="M 15392,19254 L 13554,20317 13554,19254 15392,19254 Z M 15397,17451 L 15888,17167 15888,18967 15397,19251 15397,17451 Z M 15366,19223 L 13554,19223 13554,18517 15366,17469 15366,19223 Z"/>
     <path fill="rgb(117,117,117)" stroke="none" d="M 15366,19223 L 15366,17469 15888,17167 15888,18967 13554,20317 13554,19223 15366,19223 Z M 15335,19192 L 13554,19192 13554,18517 15335,17487 15335,19192 Z"/>
     <path fill="rgb(118,118,118)" stroke="none" d="M 15335,19192 L 15335,17487 15888,17167 15888,18967 13554,20317 13554,19192 15335,19192 Z M 15304,19161 L 13554,19161 13554,18517 15304,17505 15304,19161 Z"/>
     <path fill="rgb(119,119,119)" stroke="none" d="M 15304,19161 L 15304,17505 15888,17167 15888,18967 13554,20317 13554,19161 15304,19161 Z M 15273,19130 L 13554,19130 13554,18517 15273,17523 15273,19130 Z"/>
     <path fill="rgb(120,120,120)" stroke="none" d="M 15273,19130 L 15273,17523 15888,17167 15888,18967 13554,20317 13554,19130 15273,19130 Z M 15242,19099 L 13554,19099 13554,18517 15242,17541 15242,19099 Z"/>
     <path fill="rgb(121,121,121)" stroke="none" d="M 15242,19099 L 15242,17541 15888,17167 15888,18967 13554,20317 13554,19099 15242,19099 Z M 15211,19068 L 13554,19068 13554,18517 15211,17559 15211,19068 Z"/>
     <path fill="rgb(122,122,122)" stroke="none" d="M 15211,19068 L 15211,17559 15888,17167 15888,18967 13554,20317 13554,19068 15211,19068 Z M 15180,19037 L 13554,19037 13554,18517 15180,17577 15180,19037 Z"/>
     <path fill="rgb(123,123,123)" stroke="none" d="M 15180,19037 L 15180,17577 15888,17167 15888,18967 13554,20317 13554,19037 15180,19037 Z M 15149,19006 L 13554,19006 13554,18517 15149,17594 15149,19006 Z"/>
     <path fill="rgb(124,124,124)" stroke="none" d="M 15149,19006 L 15149,17594 15888,17167 15888,18967 13554,20317 13554,19006 15149,19006 Z M 15119,18976 L 13554,18976 13554,18517 15119,17612 15119,18976 Z"/>
     <path fill="rgb(125,125,125)" stroke="none" d="M 15119,18976 L 15119,17612 15888,17167 15888,18967 13554,20317 13554,18976 15119,18976 Z M 15088,18945 L 13554,18945 13554,18517 15088,17630 15088,18945 Z"/>
     <path fill="rgb(126,126,126)" stroke="none" d="M 15088,18945 L 15088,17630 15888,17167 15888,18967 13554,20317 13554,18945 15088,18945 Z M 15057,18914 L 13554,18914 13554,18517 15057,17648 15057,18914 Z"/>
     <path fill="rgb(127,127,127)" stroke="none" d="M 15057,18914 L 15057,17648 15888,17167 15888,18967 13554,20317 13554,18914 15057,18914 Z M 15026,18883 L 13554,18883 13554,18517 15026,17666 15026,18883 Z"/>
     <path fill="rgb(128,128,128)" stroke="none" d="M 15026,18883 L 15026,17666 15888,17167 15888,18967 13554,20317 13554,18883 15026,18883 Z M 14995,18852 L 13554,18852 13554,18517 14995,17684 14995,18852 Z"/>
     <path fill="rgb(129,129,129)" stroke="none" d="M 14995,18852 L 14995,17684 15888,17167 15888,18967 13554,20317 13554,18852 14995,18852 Z M 14964,18821 L 13554,18821 13554,18517 14964,17701 14964,18821 Z"/>
     <path fill="rgb(130,130,130)" stroke="none" d="M 14964,18821 L 14964,17701 15888,17167 15888,18967 13554,20317 13554,18821 14964,18821 Z M 14933,18790 L 13574,18790 13574,18505 14933,17719 14933,18790 Z"/>
     <path fill="rgb(131,131,131)" stroke="none" d="M 13574,18790 L 14933,18790 14933,17719 15888,17167 15888,18967 13554,20317 13554,18517 13574,18505 13574,18790 Z M 14902,18759 L 13605,18759 13605,18488 14902,17737 14902,18759 Z"/>
     <path fill="rgb(132,132,132)" stroke="none" d="M 13605,18759 L 14902,18759 14902,17737 15888,17167 15888,18967 13554,20317 13554,18517 13605,18488 13605,18759 Z M 14871,18728 L 13636,18728 13636,18470 14871,17755 14871,18728 Z"/>
     <path fill="rgb(133,133,133)" stroke="none" d="M 13636,18728 L 14871,18728 14871,17755 15888,17167 15888,18967 13554,20317 13554,18517 13636,18470 13636,18728 Z M 14840,18697 L 13667,18697 13667,18452 14840,17773 14840,18697 Z"/>
     <path fill="rgb(134,134,134)" stroke="none" d="M 13667,18697 L 14840,18697 14840,17773 15888,17167 15888,18967 13554,20317 13554,18517 13667,18452 13667,18697 Z M 14809,18666 L 13698,18666 13698,18434 14809,17791 14809,18666 Z"/>
     <path fill="rgb(135,135,135)" stroke="none" d="M 13698,18666 L 14809,18666 14809,17791 15888,17167 15888,18967 13554,20317 13554,18517 13698,18434 13698,18666 Z M 14778,18635 L 13728,18635 13728,18416 14778,17809 14778,18635 Z"/>
     <path fill="rgb(136,136,136)" stroke="none" d="M 13728,18635 L 14778,18635 14778,17809 15888,17167 15888,18967 13554,20317 13554,18517 13728,18416 13728,18635 Z M 14748,18605 L 13759,18605 13759,18398 14748,17826 14748,18605 Z"/>
     <path fill="rgb(137,137,137)" stroke="none" d="M 13759,18605 L 14748,18605 14748,17826 15888,17167 15888,18967 13554,20317 13554,18517 13759,18398 13759,18605 Z M 14717,18574 L 13790,18574 13790,18380 14717,17844 14717,18574 Z"/>
     <path fill="rgb(138,138,138)" stroke="none" d="M 13790,18574 L 14717,18574 14717,17844 15888,17167 15888,18967 13554,20317 13554,18517 13790,18380 13790,18574 Z M 14686,18543 L 13821,18543 13821,18363 14686,17862 14686,18543 Z"/>
     <path fill="rgb(139,139,139)" stroke="none" d="M 13821,18543 L 14686,18543 14686,17862 15888,17167 15888,18967 13554,20317 13554,18517 13821,18363 13821,18543 Z M 14655,18512 L 13852,18512 13852,18345 14655,17880 14655,18512 Z"/>
     <path fill="rgb(140,140,140)" stroke="none" d="M 13852,18512 L 14655,18512 14655,17880 15888,17167 15888,18967 13554,20317 13554,18517 13852,18345 13852,18512 Z M 14624,18481 L 13883,18481 13883,18327 14624,17898 14624,18481 Z"/>
     <path fill="rgb(141,141,141)" stroke="none" d="M 13883,18481 L 14624,18481 14624,17898 15888,17167 15888,18967 13554,20317 13554,18517 13883,18327 13883,18481 Z M 14593,18450 L 13914,18450 13914,18309 14593,17916 14593,18450 Z"/>
     <path fill="rgb(142,142,142)" stroke="none" d="M 13914,18450 L 14593,18450 14593,17916 15888,17167 15888,18967 13554,20317 13554,18517 13914,18309 13914,18450 Z M 14562,18419 L 13945,18419 13945,18291 14562,17934 14562,18419 Z"/>
     <path fill="rgb(143,143,143)" stroke="none" d="M 13945,18419 L 14562,18419 14562,17934 15888,17167 15888,18967 13554,20317 13554,18517 13945,18291 13945,18419 Z M 14531,18388 L 13976,18388 13976,18273 14531,17952 14531,18388 Z"/>
     <path fill="rgb(144,144,144)" stroke="none" d="M 13976,18388 L 14531,18388 14531,17952 15888,17167 15888,18967 13554,20317 13554,18517 13976,18273 13976,18388 Z M 14500,18357 L 14007,18357 14007,18255 14500,17970 14500,18357 Z"/>
     <path fill="rgb(145,145,145)" stroke="none" d="M 14007,18357 L 14500,18357 14500,17970 15888,17167 15888,18967 13554,20317 13554,18517 14007,18255 14007,18357 Z M 14469,18326 L 14038,18326 14038,18237 14469,17988 14469,18326 Z"/>
     <path fill="rgb(146,146,146)" stroke="none" d="M 14038,18326 L 14469,18326 14469,17988 15888,17167 15888,18967 13554,20317 13554,18517 14038,18237 14038,18326 Z M 14438,18295 L 14069,18295 14069,18219 14438,18006 14438,18295 Z"/>
     <path fill="rgb(147,147,147)" stroke="none" d="M 14069,18295 L 14438,18295 14438,18006 15888,17167 15888,18967 13554,20317 13554,18517 14069,18219 14069,18295 Z M 14408,18265 L 14099,18265 14099,18202 14408,18023 14408,18265 Z"/>
     <path fill="rgb(148,148,148)" stroke="none" d="M 14099,18265 L 14408,18265 14408,18023 15888,17167 15888,18967 13554,20317 13554,18517 14099,18202 14099,18265 Z M 14377,18234 L 14130,18234 14130,18184 14377,18041 14377,18234 Z"/>
     <path fill="rgb(149,149,149)" stroke="none" d="M 14130,18234 L 14377,18234 14377,18041 15888,17167 15888,18967 13554,20317 13554,18517 14130,18184 14130,18234 Z M 14346,18203 L 14161,18203 14161,18166 14346,18059 14346,18203 Z"/>
     <path fill="rgb(150,150,150)" stroke="none" d="M 14161,18203 L 14346,18203 14346,18059 15888,17167 15888,18967 13554,20317 13554,18517 14161,18166 14161,18203 Z M 14315,18172 L 14192,18172 14192,18148 14315,18077 14315,18172 Z"/>
     <path fill="rgb(151,151,151)" stroke="none" d="M 14192,18172 L 14315,18172 14315,18077 15888,17167 15888,18967 13554,20317 13554,18517 14192,18148 14192,18172 Z M 14284,18141 L 14223,18141 14223,18130 14284,18095 14284,18141 Z"/>
     <path fill="rgb(153,153,153)" stroke="none" d="M 14223,18141 L 14284,18141 14284,18095 15888,17167 15888,18967 13554,20317 13554,18517 14223,18130 14223,18141 Z"/>
     <path fill="none" stroke="rgb(178,178,178)" id="Drawing_2_0" stroke-width="40" stroke-linejoin="round" d="M 15888,18967 L 15888,17167 13554,18517 13554,20317 15888,18967 Z"/>
    </g>
    <g>
     <defs>
      <linearGradient id="Gradient_285" gradientUnits="userSpaceOnUse" x1="11216" y1="18740" x2="13556" y2="18744">
       <stop offset="0.1" stop-color="rgb(102,102,102)"/>
       <stop offset="1" stop-color="rgb(153,153,153)"/>
      </linearGradient>
     </defs>
     <path fill="url(#Gradient_285)" stroke="rgb(178,178,178)" id="Drawing_3_0" stroke-width="40" stroke-linejoin="round" d="M 13553,20317 L 13553,18517 11219,17167 11219,18967 13553,20317 Z"/>
    </g>
    <g>
     <defs>
      <linearGradient id="Gradient_286" gradientUnits="userSpaceOnUse" x1="13553" y1="15817" x2="13553" y2="18517">
       <stop offset="0.1" stop-color="rgb(51,51,51)"/>
       <stop offset="1" stop-color="rgb(153,153,153)"/>
      </linearGradient>
     </defs>
     <path fill="url(#Gradient_286)" stroke="rgb(178,178,178)" id="Drawing_4_0" stroke-width="40" stroke-linejoin="round" d="M 13553,18517 L 15887,17167 13553,15817 11219,17167 13553,18517 Z"/>
    </g>
    <g>
     <path fill="rgb(57,181,74)" stroke="none" d="M 15740,17627 L 15740,17447 15584,17537 15584,17717 15740,17627 Z"/>
     <path fill="none" stroke="rgb(51,51,51)" id="Drawing_5_0" stroke-width="40" stroke-linejoin="round" d="M 15740,17627 L 15740,17447 15584,17537 15584,17717 15740,17627 Z"/>
    </g>
    <g>
     <defs>
      <linearGradient id="Gradient_287" gradientUnits="userSpaceOnUse" x1="13553" y1="16716" x2="15111" y2="16718">
       <stop offset="0.1" stop-color="rgb(102,102,102)"/>
       <stop offset="1" stop-color="rgb(153,153,153)"/>
      </linearGradient>
     </defs>
     <path fill="url(#Gradient_287)" stroke="rgb(178,178,178)" id="Drawing_6_0" stroke-width="40" stroke-linejoin="round" d="M 15110,17167 L 13554,16267 13554,16627 15110,17167 Z"/>
    </g>
    <g>
     <path fill="rgb(102,102,102)" stroke="none" d="M 13227,16816 L 12308,17347 11998,17167 13227,16456 13227,16816 Z"/>
     <path fill="rgb(103,103,103)" stroke="none" d="M 13227,16456 L 13554,16267 13554,16627 13227,16816 13227,16456 Z M 13212,16825 L 12324,17338 12293,17338 11998,17167 13212,16465 13212,16825 Z"/>
     <path fill="rgb(104,104,104)" stroke="none" d="M 12324,17338 L 12308,17347 12293,17338 12324,17338 Z M 13212,16465 L 13554,16267 13554,16627 13212,16825 13212,16465 Z M 13197,16833 L 12350,17323 12267,17323 11998,17167 13197,16473 13197,16833 Z"/>
     <path fill="rgb(105,105,105)" stroke="none" d="M 12350,17323 L 12308,17347 12267,17323 12350,17323 Z M 13197,16473 L 13554,16267 13554,16627 13197,16833 13197,16473 Z M 13181,16843 L 12377,17307 12239,17307 11998,17167 13181,16483 13181,16843 Z"/>
     <path fill="rgb(106,106,106)" stroke="none" d="M 12377,17307 L 12308,17347 12239,17307 12377,17307 Z M 13181,16483 L 13554,16267 13554,16627 13181,16843 13181,16483 Z M 13166,16851 L 12403,17292 12213,17292 11998,17167 13166,16491 13166,16851 Z"/>
     <path fill="rgb(107,107,107)" stroke="none" d="M 12403,17292 L 12308,17347 12213,17292 12403,17292 Z M 13166,16491 L 13554,16267 13554,16627 13166,16851 13166,16491 Z M 13151,16860 L 12429,17277 12187,17277 11998,17167 13151,16500 13151,16860 Z"/>
     <path fill="rgb(108,108,108)" stroke="none" d="M 12429,17277 L 12308,17347 12187,17277 12429,17277 Z M 13151,16500 L 13554,16267 13554,16627 13151,16860 13151,16500 Z M 13136,16869 L 12455,17262 12162,17262 11998,17167 13136,16509 13136,16869 Z"/>
     <path fill="rgb(109,109,109)" stroke="none" d="M 12455,17262 L 12308,17347 12162,17262 12455,17262 Z M 13136,16509 L 13554,16267 13554,16627 13136,16869 13136,16509 Z M 13120,16878 L 12483,17246 12134,17246 11998,17167 13120,16518 13120,16878 Z"/>
     <path fill="rgb(110,110,110)" stroke="none" d="M 12483,17246 L 12308,17347 12134,17246 12483,17246 Z M 13120,16518 L 13554,16267 13554,16627 13120,16878 13120,16518 Z M 13105,16886 L 12509,17231 12108,17231 11998,17167 13105,16527 13105,16886 Z"/>
     <path fill="rgb(111,111,111)" stroke="none" d="M 12509,17231 L 12308,17347 12108,17231 12509,17231 Z M 13105,16527 L 13554,16267 13554,16627 13105,16886 13105,16527 Z M 13090,16895 L 12535,17216 12082,17216 11998,17167 13090,16535 13090,16895 Z"/>
     <path fill="rgb(112,112,112)" stroke="none" d="M 12535,17216 L 12308,17347 12082,17216 12535,17216 Z M 13090,16535 L 13554,16267 13554,16627 13090,16895 13090,16535 Z M 13074,16904 L 12562,17200 12055,17200 11998,17167 13074,16545 13074,16904 Z"/>
     <path fill="rgb(113,113,113)" stroke="none" d="M 12562,17200 L 12308,17347 12055,17200 12562,17200 Z M 13074,16545 L 13554,16267 13554,16627 13074,16904 13074,16545 Z M 13059,16913 L 12588,17185 12029,17185 11998,17167 13059,16553 13059,16913 Z"/>
     <path fill="rgb(114,114,114)" stroke="none" d="M 12588,17185 L 12308,17347 12029,17185 12588,17185 Z M 13059,16553 L 13554,16267 13554,16627 13059,16913 13059,16553 Z M 13044,16922 L 12614,17170 12003,17170 11998,17167 13044,16562 13044,16922 Z"/>
     <path fill="rgb(115,115,115)" stroke="none" d="M 12614,17170 L 12308,17347 12003,17170 12614,17170 Z M 13044,16562 L 13554,16267 13554,16627 13044,16922 13044,16562 Z M 13029,16930 L 12640,17155 12019,17155 13029,16571 13029,16930 Z"/>
     <path fill="rgb(116,116,116)" stroke="none" d="M 12640,17155 L 12308,17347 11998,17167 12019,17155 12640,17155 Z M 13029,16571 L 13554,16267 13554,16627 13029,16930 13029,16571 Z M 13013,16940 L 12668,17139 12046,17139 13013,16580 13013,16940 Z"/>
     <path fill="rgb(117,117,117)" stroke="none" d="M 12668,17139 L 12308,17347 11998,17167 12046,17139 12668,17139 Z M 13013,16580 L 13554,16267 13554,16627 13013,16940 13013,16580 Z M 12998,16948 L 12694,17124 12072,17124 12998,16589 12998,16948 Z"/>
     <path fill="rgb(118,118,118)" stroke="none" d="M 12694,17124 L 12308,17347 11998,17167 12072,17124 12694,17124 Z M 12998,16589 L 13554,16267 13554,16627 12998,16948 12998,16589 Z M 12983,16957 L 12720,17109 12098,17109 12983,16597 12983,16957 Z"/>
     <path fill="rgb(119,119,119)" stroke="none" d="M 12720,17109 L 12308,17347 11998,17167 12098,17109 12720,17109 Z M 12983,16597 L 13554,16267 13554,16627 12983,16957 12983,16597 Z M 12967,16966 L 12748,17093 12126,17093 12967,16607 12967,16966 Z"/>
     <path fill="rgb(120,120,120)" stroke="none" d="M 12748,17093 L 12308,17347 11998,17167 12126,17093 12748,17093 Z M 12967,16607 L 13554,16267 13554,16627 12967,16966 12967,16607 Z M 12952,16975 L 12774,17078 12152,17078 12952,16615 12952,16975 Z"/>
     <path fill="rgb(121,121,121)" stroke="none" d="M 12774,17078 L 12308,17347 11998,17167 12152,17078 12774,17078 Z M 12952,16615 L 13554,16267 13554,16627 12952,16975 12952,16615 Z M 12937,16984 L 12799,17063 12178,17063 12937,16624 12937,16984 Z"/>
     <path fill="rgb(122,122,122)" stroke="none" d="M 12799,17063 L 12308,17347 11998,17167 12178,17063 12799,17063 Z M 12937,16624 L 13554,16267 13554,16627 12937,16984 12937,16624 Z M 12922,16992 L 12825,17048 12204,17048 12922,16633 12922,16992 Z"/>
     <path fill="rgb(123,123,123)" stroke="none" d="M 12825,17048 L 12308,17347 11998,17167 12204,17048 12825,17048 Z M 12922,16633 L 13554,16267 13554,16627 12922,16992 12922,16633 Z M 12906,17001 L 12853,17032 12231,17032 12906,16642 12906,17001 Z"/>
     <path fill="rgb(124,124,124)" stroke="none" d="M 12853,17032 L 12308,17347 11998,17167 12231,17032 12853,17032 Z M 12906,16642 L 13554,16267 13554,16627 12906,17001 12906,16642 Z M 12891,17010 L 12879,17017 12257,17017 12891,16650 12891,17010 Z"/>
     <path fill="rgb(125,125,125)" stroke="none" d="M 12879,17017 L 12308,17347 11998,17167 12257,17017 12879,17017 Z M 12891,16650 L 13554,16267 13554,16627 12891,17010 12891,16650 Z M 12876,17002 L 12283,17002 12876,16659 12876,17002 Z"/>
     <path fill="rgb(126,126,126)" stroke="none" d="M 12876,17002 L 12876,16659 13554,16267 13554,16627 12308,17347 11998,17167 12283,17002 12876,17002 Z M 12860,16986 L 12311,16986 12860,16668 12860,16986 Z"/>
     <path fill="rgb(127,127,127)" stroke="none" d="M 12860,16986 L 12860,16668 13554,16267 13554,16627 12308,17347 11998,17167 12311,16986 12860,16986 Z M 12845,16971 L 12337,16971 12845,16677 12845,16971 Z"/>
     <path fill="rgb(128,128,128)" stroke="none" d="M 12845,16971 L 12845,16677 13554,16267 13554,16627 12308,17347 11998,17167 12337,16971 12845,16971 Z M 12830,16956 L 12363,16956 12830,16686 12830,16956 Z"/>
     <path fill="rgb(129,129,129)" stroke="none" d="M 12830,16956 L 12830,16686 13554,16267 13554,16627 12308,17347 11998,17167 12363,16956 12830,16956 Z M 12815,16941 L 12389,16941 12815,16694 12815,16941 Z"/>
     <path fill="rgb(130,130,130)" stroke="none" d="M 12815,16941 L 12815,16694 13554,16267 13554,16627 12308,17347 11998,17167 12389,16941 12815,16941 Z M 12799,16925 L 12416,16925 12799,16704 12799,16925 Z"/>
     <path fill="rgb(131,131,131)" stroke="none" d="M 12799,16925 L 12799,16704 13554,16267 13554,16627 12308,17347 11998,17167 12416,16925 12799,16925 Z M 12784,16910 L 12442,16910 12784,16712 12784,16910 Z"/>
     <path fill="rgb(132,132,132)" stroke="none" d="M 12784,16910 L 12784,16712 13554,16267 13554,16627 12308,17347 11998,17167 12442,16910 12784,16910 Z M 12769,16895 L 12468,16895 12769,16721 12769,16895 Z"/>
     <path fill="rgb(133,133,133)" stroke="none" d="M 12769,16895 L 12769,16721 13554,16267 13554,16627 12308,17347 11998,17167 12468,16895 12769,16895 Z M 12753,16879 L 12496,16879 12753,16730 12753,16879 Z"/>
     <path fill="rgb(134,134,134)" stroke="none" d="M 12753,16879 L 12753,16730 13554,16267 13554,16627 12308,17347 11998,17167 12496,16879 12753,16879 Z M 12738,16864 L 12522,16864 12738,16739 12738,16864 Z"/>
     <path fill="rgb(135,135,135)" stroke="none" d="M 12738,16864 L 12738,16739 13554,16267 13554,16627 12308,17347 11998,17167 12522,16864 12738,16864 Z M 12723,16849 L 12548,16849 12723,16748 12723,16849 Z"/>
     <path fill="rgb(136,136,136)" stroke="none" d="M 12723,16849 L 12723,16748 13554,16267 13554,16627 12308,17347 11998,17167 12548,16849 12723,16849 Z M 12708,16834 L 12574,16834 12708,16756 12708,16834 Z"/>
     <path fill="rgb(137,137,137)" stroke="none" d="M 12708,16834 L 12708,16756 13554,16267 13554,16627 12308,17347 11998,17167 12574,16834 12708,16834 Z M 12692,16818 L 12601,16818 12692,16766 12692,16818 Z"/>
     <path fill="rgb(138,138,138)" stroke="none" d="M 12692,16818 L 12692,16766 13554,16267 13554,16627 12308,17347 11998,17167 12601,16818 12692,16818 Z M 12677,16803 L 12627,16803 12677,16774 12677,16803 Z"/>
     <path fill="rgb(139,139,139)" stroke="none" d="M 12677,16803 L 12677,16774 13554,16267 13554,16627 12308,17347 11998,17167 12627,16803 12677,16803 Z M 12662,16788 L 12653,16788 12662,16783 12662,16788 Z"/>
     <path fill="rgb(140,140,140)" stroke="none" d="M 12662,16788 L 12662,16783 13554,16267 13554,16627 12308,17347 11998,17167 12653,16788 12662,16788 Z"/>
     <path fill="rgb(141,141,141)" stroke="none" d="M 13554,16627 L 12308,17347 11998,17167 13554,16267 13554,16627 Z"/>
     <path fill="rgb(142,142,142)" stroke="none" d="M 13554,16627 L 12308,17347 11998,17167 13554,16267 13554,16627 Z"/>
     <path fill="rgb(143,143,143)" stroke="none" d="M 13554,16627 L 12308,17347 11998,17167 13554,16267 13554,16627 Z"/>
     <path fill="rgb(144,144,144)" stroke="none" d="M 13554,16627 L 12308,17347 11998,17167 13554,16267 13554,16627 Z"/>
     <path fill="rgb(145,145,145)" stroke="none" d="M 13554,16627 L 12308,17347 11998,17167 13554,16267 13554,16627 Z"/>
     <path fill="rgb(146,146,146)" stroke="none" d="M 13554,16627 L 12308,17347 11998,17167 13554,16267 13554,16627 Z"/>
     <path fill="rgb(147,147,147)" stroke="none" d="M 13554,16627 L 12308,17347 11998,17167 13554,16267 13554,16627 Z"/>
     <path fill="rgb(148,148,148)" stroke="none" d="M 13554,16627 L 12308,17347 11998,17167 13554,16267 13554,16627 Z"/>
     <path fill="rgb(149,149,149)" stroke="none" d="M 13554,16627 L 12308,17347 11998,17167 13554,16267 13554,16627 Z"/>
     <path fill="rgb(150,150,150)" stroke="none" d="M 13554,16627 L 12308,17347 11998,17167 13554,16267 13554,16627 Z"/>
     <path fill="rgb(151,151,151)" stroke="none" d="M 13554,16627 L 12308,17347 11998,17167 13554,16267 13554,16627 Z"/>
     <path fill="rgb(153,153,153)" stroke="none" d="M 13554,16627 L 12308,17347 11998,17167 13554,16267 13554,16627 Z"/>
     <path fill="none" stroke="rgb(178,178,178)" id="Drawing_7_0" stroke-width="40" stroke-linejoin="round" d="M 13554,16627 L 13554,16267 11998,17167 12308,17347 13554,16627 Z"/>
    </g>
    <g>
     <path fill="none" stroke="rgb(51,51,51)" id="Drawing_8_0" stroke-width="40" stroke-linejoin="round" d="M 12153,17257 L 13398,16537"/>
    </g>
    <g>
     <defs>
      <linearGradient id="Gradient_288" gradientUnits="userSpaceOnUse" x1="13942" y1="19393" x2="15500" y2="19395">
       <stop offset="0.1" stop-color="rgb(102,102,102)"/>
       <stop offset="1" stop-color="rgb(153,153,153)"/>
      </linearGradient>
     </defs>
     <path fill="url(#Gradient_288)" stroke="rgb(178,178,178)" id="Drawing_9_0" stroke-width="40" stroke-linejoin="round" d="M 15499,19597 L 13943,18967 13943,19327 15499,19822 15499,19597 Z"/>
    </g>
    <g>
     <path fill="none" stroke="rgb(178,178,178)" id="Drawing_10_0" stroke-width="40" stroke-linejoin="round" d="M 15110,17167 L 13554,16267 11997,17167 13554,18067 15110,17167 Z"/>
    </g>
    <g>
     <path fill="rgb(102,102,102)" stroke="none" d="M 16728,19111 L 15542,19797 15499,19797 15499,19597 16728,18886 16728,19111 Z"/>
     <path fill="rgb(103,103,103)" stroke="none" d="M 15542,19797 L 15499,19822 15499,19797 15542,19797 Z M 16728,18886 L 17055,18697 17055,18922 16728,19111 16728,18886 Z M 16713,19120 L 15568,19782 15499,19782 15499,19597 16713,18895 16713,19120 Z"/>
     <path fill="rgb(104,104,104)" stroke="none" d="M 15568,19782 L 15499,19822 15499,19782 15568,19782 Z M 16713,18895 L 17055,18697 17055,18922 16713,19120 16713,18895 Z M 16698,19128 L 15594,19767 15499,19767 15499,19597 16698,18903 16698,19128 Z"/>
     <path fill="rgb(105,105,105)" stroke="none" d="M 15594,19767 L 15499,19822 15499,19767 15594,19767 Z M 16698,18903 L 17055,18697 17055,18922 16698,19128 16698,18903 Z M 16682,19138 L 15622,19751 15499,19751 15499,19597 16682,18913 16682,19138 Z"/>
     <path fill="rgb(106,106,106)" stroke="none" d="M 15622,19751 L 15499,19822 15499,19751 15622,19751 Z M 16682,18913 L 17055,18697 17055,18922 16682,19138 16682,18913 Z M 16667,19146 L 15648,19736 15499,19736 15499,19597 16667,18921 16667,19146 Z"/>
     <path fill="rgb(107,107,107)" stroke="none" d="M 15648,19736 L 15499,19822 15499,19736 15648,19736 Z M 16667,18921 L 17055,18697 17055,18922 16667,19146 16667,18921 Z M 16652,19155 L 15674,19721 15499,19721 15499,19597 16652,18930 16652,19155 Z"/>
     <path fill="rgb(108,108,108)" stroke="none" d="M 15674,19721 L 15499,19822 15499,19721 15674,19721 Z M 16652,18930 L 17055,18697 17055,18922 16652,19155 16652,18930 Z M 16637,19164 L 15700,19706 15499,19706 15499,19597 16637,18939 16637,19164 Z"/>
     <path fill="rgb(109,109,109)" stroke="none" d="M 15700,19706 L 15499,19822 15499,19706 15700,19706 Z M 16637,18939 L 17055,18697 17055,18922 16637,19164 16637,18939 Z M 16621,19173 L 15727,19690 15499,19690 15499,19597 16621,18948 16621,19173 Z"/>
     <path fill="rgb(110,110,110)" stroke="none" d="M 15727,19690 L 15499,19822 15499,19690 15727,19690 Z M 16621,18948 L 17055,18697 17055,18922 16621,19173 16621,18948 Z M 16606,19182 L 15753,19675 15499,19675 15499,19597 16606,18957 16606,19182 Z"/>
     <path fill="rgb(111,111,111)" stroke="none" d="M 15753,19675 L 15499,19822 15499,19675 15753,19675 Z M 16606,18957 L 17055,18697 17055,18922 16606,19182 16606,18957 Z M 16591,19190 L 15779,19660 15499,19660 15499,19597 16591,18965 16591,19190 Z"/>
     <path fill="rgb(112,112,112)" stroke="none" d="M 15779,19660 L 15499,19822 15499,19660 15779,19660 Z M 16591,18965 L 17055,18697 17055,18922 16591,19190 16591,18965 Z M 16575,19200 L 15807,19644 15499,19644 15499,19597 16575,18975 16575,19200 Z"/>
     <path fill="rgb(113,113,113)" stroke="none" d="M 15807,19644 L 15499,19822 15499,19644 15807,19644 Z M 16575,18975 L 17055,18697 17055,18922 16575,19200 16575,18975 Z M 16560,19208 L 15833,19629 15499,19629 15499,19597 16560,18983 16560,19208 Z"/>
     <path fill="rgb(114,114,114)" stroke="none" d="M 15833,19629 L 15499,19822 15499,19629 15833,19629 Z M 16560,18983 L 17055,18697 17055,18922 16560,19208 16560,18983 Z M 16545,19217 L 15859,19614 15499,19614 15499,19597 16545,18992 16545,19217 Z"/>
     <path fill="rgb(115,115,115)" stroke="none" d="M 15859,19614 L 15499,19822 15499,19614 15859,19614 Z M 16545,18992 L 17055,18697 17055,18922 16545,19217 16545,18992 Z M 16530,19226 L 15885,19599 15499,19599 15499,19597 16530,19001 16530,19226 Z"/>
     <path fill="rgb(116,116,116)" stroke="none" d="M 15885,19599 L 15499,19822 15499,19599 15885,19599 Z M 16530,19001 L 17055,18697 17055,18922 16530,19226 16530,19001 Z M 16514,19235 L 15912,19583 15523,19583 16514,19010 16514,19235 Z"/>
     <path fill="rgb(117,117,117)" stroke="none" d="M 15912,19583 L 15499,19822 15499,19597 15523,19583 15912,19583 Z M 16514,19010 L 17055,18697 17055,18922 16514,19235 16514,19010 Z M 16499,19244 L 15938,19568 15549,19568 16499,19019 16499,19244 Z"/>
     <path fill="rgb(118,118,118)" stroke="none" d="M 15938,19568 L 15499,19822 15499,19597 15549,19568 15938,19568 Z M 16499,19019 L 17055,18697 17055,18922 16499,19244 16499,19019 Z M 16484,19252 L 15964,19553 15575,19553 16484,19027 16484,19252 Z"/>
     <path fill="rgb(119,119,119)" stroke="none" d="M 15964,19553 L 15499,19822 15499,19597 15575,19553 15964,19553 Z M 16484,19027 L 17055,18697 17055,18922 16484,19252 16484,19027 Z M 16468,19262 L 15992,19537 15603,19537 16468,19037 16468,19262 Z"/>
     <path fill="rgb(120,120,120)" stroke="none" d="M 15992,19537 L 15499,19822 15499,19597 15603,19537 15992,19537 Z M 16468,19037 L 17055,18697 17055,18922 16468,19262 16468,19037 Z M 16453,19270 L 16018,19522 15629,19522 16453,19045 16453,19270 Z"/>
     <path fill="rgb(121,121,121)" stroke="none" d="M 16018,19522 L 15499,19822 15499,19597 15629,19522 16018,19522 Z M 16453,19045 L 17055,18697 17055,18922 16453,19270 16453,19045 Z M 16438,19279 L 16044,19507 15655,19507 16438,19054 16438,19279 Z"/>
     <path fill="rgb(122,122,122)" stroke="none" d="M 16044,19507 L 15499,19822 15499,19597 15655,19507 16044,19507 Z M 16438,19054 L 17055,18697 17055,18922 16438,19279 16438,19054 Z M 16423,19288 L 16070,19492 15681,19492 16423,19063 16423,19288 Z"/>
     <path fill="rgb(123,123,123)" stroke="none" d="M 16070,19492 L 15499,19822 15499,19597 15681,19492 16070,19492 Z M 16423,19063 L 17055,18697 17055,18922 16423,19288 16423,19063 Z M 16407,19297 L 16097,19476 15708,19476 16407,19072 16407,19297 Z"/>
     <path fill="rgb(124,124,124)" stroke="none" d="M 16097,19476 L 15499,19822 15499,19597 15708,19476 16097,19476 Z M 16407,19072 L 17055,18697 17055,18922 16407,19297 16407,19072 Z M 16392,19305 L 16123,19461 15734,19461 16392,19080 16392,19305 Z"/>
     <path fill="rgb(125,125,125)" stroke="none" d="M 16123,19461 L 15499,19822 15499,19597 15734,19461 16123,19461 Z M 16392,19080 L 17055,18697 17055,18922 16392,19305 16392,19080 Z M 16377,19314 L 16149,19446 15760,19446 16377,19089 16377,19314 Z"/>
     <path fill="rgb(126,126,126)" stroke="none" d="M 16149,19446 L 15499,19822 15499,19597 15760,19446 16149,19446 Z M 16377,19089 L 17055,18697 17055,18922 16377,19314 16377,19089 Z M 16361,19323 L 16177,19430 15788,19430 16361,19098 16361,19323 Z"/>
     <path fill="rgb(127,127,127)" stroke="none" d="M 16177,19430 L 15499,19822 15499,19597 15788,19430 16177,19430 Z M 16361,19098 L 17055,18697 17055,18922 16361,19323 16361,19098 Z M 16346,19332 L 16203,19415 15814,19415 16346,19107 16346,19332 Z"/>
     <path fill="rgb(128,128,128)" stroke="none" d="M 16203,19415 L 15499,19822 15499,19597 15814,19415 16203,19415 Z M 16346,19107 L 17055,18697 17055,18922 16346,19332 16346,19107 Z M 16331,19341 L 16229,19400 15840,19400 16331,19116 16331,19341 Z"/>
     <path fill="rgb(129,129,129)" stroke="none" d="M 16229,19400 L 15499,19822 15499,19597 15840,19400 16229,19400 Z M 16331,19116 L 17055,18697 17055,18922 16331,19341 16331,19116 Z M 16316,19349 L 16255,19385 15866,19385 16316,19124 16316,19349 Z"/>
     <path fill="rgb(130,130,130)" stroke="none" d="M 16255,19385 L 15499,19822 15499,19597 15866,19385 16255,19385 Z M 16316,19124 L 17055,18697 17055,18922 16316,19349 16316,19124 Z M 16300,19359 L 16282,19369 15893,19369 16300,19134 16300,19359 Z"/>
     <path fill="rgb(131,131,131)" stroke="none" d="M 16282,19369 L 15499,19822 15499,19597 15893,19369 16282,19369 Z M 16300,19134 L 17055,18697 17055,18922 16300,19359 16300,19134 Z M 16285,19354 L 15919,19354 16285,19142 16285,19354 Z"/>
     <path fill="rgb(132,132,132)" stroke="none" d="M 16285,19354 L 16285,19142 17055,18697 17055,18922 15499,19822 15499,19597 15919,19354 16285,19354 Z M 16270,19339 L 15945,19339 16270,19151 16270,19339 Z"/>
     <path fill="rgb(133,133,133)" stroke="none" d="M 16270,19339 L 16270,19151 17055,18697 17055,18922 15499,19822 15499,19597 15945,19339 16270,19339 Z M 16254,19323 L 15973,19323 16254,19160 16254,19323 Z"/>
     <path fill="rgb(134,134,134)" stroke="none" d="M 16254,19323 L 16254,19160 17055,18697 17055,18922 15499,19822 15499,19597 15973,19323 16254,19323 Z M 16239,19308 L 15999,19308 16239,19169 16239,19308 Z"/>
     <path fill="rgb(135,135,135)" stroke="none" d="M 16239,19308 L 16239,19169 17055,18697 17055,18922 15499,19822 15499,19597 15999,19308 16239,19308 Z M 16224,19293 L 16025,19293 16224,19178 16224,19293 Z"/>
     <path fill="rgb(136,136,136)" stroke="none" d="M 16224,19293 L 16224,19178 17055,18697 17055,18922 15499,19822 15499,19597 16025,19293 16224,19293 Z M 16209,19278 L 16051,19278 16209,19186 16209,19278 Z"/>
     <path fill="rgb(137,137,137)" stroke="none" d="M 16209,19278 L 16209,19186 17055,18697 17055,18922 15499,19822 15499,19597 16051,19278 16209,19278 Z M 16193,19262 L 16078,19262 16193,19196 16193,19262 Z"/>
     <path fill="rgb(138,138,138)" stroke="none" d="M 16193,19262 L 16193,19196 17055,18697 17055,18922 15499,19822 15499,19597 16078,19262 16193,19262 Z M 16178,19247 L 16104,19247 16178,19204 16178,19247 Z"/>
     <path fill="rgb(139,139,139)" stroke="none" d="M 16178,19247 L 16178,19204 17055,18697 17055,18922 15499,19822 15499,19597 16104,19247 16178,19247 Z M 16163,19232 L 16130,19232 16163,19213 16163,19232 Z"/>
     <path fill="rgb(140,140,140)" stroke="none" d="M 16163,19232 L 16163,19213 17055,18697 17055,18922 15499,19822 15499,19597 16130,19232 16163,19232 Z"/>
     <path fill="rgb(141,141,141)" stroke="none" d="M 17055,18922 L 15499,19822 15499,19597 17055,18697 17055,18922 Z"/>
     <path fill="rgb(142,142,142)" stroke="none" d="M 17055,18922 L 15499,19822 15499,19597 17055,18697 17055,18922 Z"/>
     <path fill="rgb(143,143,143)" stroke="none" d="M 17055,18922 L 15499,19822 15499,19597 17055,18697 17055,18922 Z"/>
     <path fill="rgb(144,144,144)" stroke="none" d="M 17055,18922 L 15499,19822 15499,19597 17055,18697 17055,18922 Z"/>
     <path fill="rgb(145,145,145)" stroke="none" d="M 17055,18922 L 15499,19822 15499,19597 17055,18697 17055,18922 Z"/>
     <path fill="rgb(146,146,146)" stroke="none" d="M 17055,18922 L 15499,19822 15499,19597 17055,18697 17055,18922 Z"/>
     <path fill="rgb(147,147,147)" stroke="none" d="M 17055,18922 L 15499,19822 15499,19597 17055,18697 17055,18922 Z"/>
     <path fill="rgb(148,148,148)" stroke="none" d="M 17055,18922 L 15499,19822 15499,19597 17055,18697 17055,18922 Z"/>
     <path fill="rgb(149,149,149)" stroke="none" d="M 17055,18922 L 15499,19822 15499,19597 17055,18697 17055,18922 Z"/>
     <path fill="rgb(150,150,150)" stroke="none" d="M 17055,18922 L 15499,19822 15499,19597 17055,18697 17055,18922 Z"/>
     <path fill="rgb(151,151,151)" stroke="none" d="M 17055,18922 L 15499,19822 15499,19597 17055,18697 17055,18922 Z"/>
     <path fill="rgb(153,153,153)" stroke="none" d="M 17055,18922 L 15499,19822 15499,19597 17055,18697 17055,18922 Z"/>
     <path fill="none" stroke="rgb(178,178,178)" id="Drawing_11_0" stroke-width="40" stroke-linejoin="round" d="M 17055,18922 L 17055,18697 15499,19597 15499,19822 17055,18922 Z"/>
    </g>
    <g>
     <path fill="none" stroke="rgb(178,178,178)" id="Drawing_12_0" stroke-width="40" stroke-linejoin="round" d="M 15500,18067 L 15500,17887 13944,18787 13944,18922"/>
    </g>
    <g>
     <defs>
      <linearGradient id="Gradient_289" gradientUnits="userSpaceOnUse" x1="15498" y1="18067" x2="15498" y2="19597">
       <stop offset="0.1" stop-color="rgb(51,51,51)"/>
       <stop offset="1" stop-color="rgb(153,153,153)"/>
      </linearGradient>
     </defs>
     <path fill="url(#Gradient_289)" stroke="rgb(178,178,178)" id="Drawing_13_0" stroke-width="40" stroke-linejoin="round" d="M 15499,19597 L 17055,18697 15499,18067 13942,18967 15499,19597 Z"/>
    </g>
    <g>
     <path fill="rgb(255,255,255)" stroke="none" d="M 15887,19507 C 16198,19327 16665,19057 16976,18877 16587,18652 15809,18337 15265,18202 14953,18382 14565,18607 14175,18832 14642,18967 15420,19282 15887,19507 Z"/>
     <path fill="none" stroke="rgb(102,102,102)" id="Drawing_14_0" stroke-width="40" stroke-linejoin="round" d="M 15887,19507 C 16198,19327 16665,19057 16976,18877 16587,18652 15809,18337 15265,18202 14953,18382 14565,18607 14175,18832 14642,18967 15420,19282 15887,19507 Z"/>
    </g>
    <g>
     <path fill="none" stroke="rgb(0,0,0)" id="Drawing_15_0" stroke-width="40" stroke-linejoin="round" d="M 15887,18247 L 15887,17167 13553,15817 11219,17167 11219,18967 13553,20317 14798,19597 15499,19822 17055,18922 17055,18697 15887,18247 Z"/>
    </g>
   </g>
  </g>
 </g>
</svg>