<?xml version="1.0" encoding="UTF-8"?>

<svg version="1.2" baseProfile="tiny" width="64.2mm" height="45.4mm" viewBox="1364 3135 6420 4540" preserveAspectRatio="xMidYMid" fill-rule="evenodd" stroke-width="28.222" stroke-linejoin="round" xmlns="http://www.w3.org/2000/svg" xmlns:xlink="http://www.w3.org/1999/xlink" xml:space="preserve">
 <g visibility="visible" id="Slide_1">
  <g id="DrawingGroup_1">
   <g>
    <path fill="rgb(221,221,221)" stroke="none" d="M 4887,7610 C 5101,7610 7764,7025 7764,6485 7764,5945 7121,5810 6908,5810 6908,5945 4810,6620 4887,7610 Z"/>
    <path fill="none" stroke="rgb(221,221,221)" id="Drawing_1_0" stroke-width="40" stroke-linejoin="round" d="M 4887,7610 C 5101,7610 7764,7025 7764,6485 7764,5945 7121,5810 6908,5810 6908,5945 4810,6620 4887,7610 Z"/>
   </g>
   <g id="DrawingGroup_2">
    <g>
     <defs>
      <linearGradient id="Gradient_270" gradientUnits="userSpaceOnUse" x1="2548" y1="6078" x2="4888" y2="6082">
       <stop offset="0.1" stop-color="rgb(179,179,179)"/>
       <stop offset="1" stop-color="rgb(229,229,229)"/>
      </linearGradient>
     </defs>
     <path fill="url(#Gradient_270)" stroke="rgb(255,255,255)" id="Drawing_2_0" stroke-width="40" stroke-linejoin="round" d="M 2551,6305 L 2551,4505 4885,5855 4885,7655 2551,6305 Z"/>
    </g>
    <g>
     <path fill="rgb(179,179,179)" stroke="none" d="M 7129,6357 L 6030,6993 4885,6993 4885,5855 7129,4557 7129,6357 Z"/>
     <path fill="rgb(180,180,180)" stroke="none" d="M 6030,6993 L 4885,7655 4885,6993 6030,6993 Z M 7129,4557 L 7219,4505 7219,6305 7129,6357 7129,4557 Z M 7097,6376 L 6085,6961 4885,6961 4885,5855 7097,4576 7097,6376 Z"/>
     <path fill="rgb(181,181,181)" stroke="none" d="M 6085,6961 L 4885,7655 4885,6961 6085,6961 Z M 7097,4576 L 7219,4505 7219,6305 7097,6376 7097,4576 Z M 7066,6393 L 6138,6930 4885,6930 4885,5855 7066,4593 7066,6393 Z"/>
     <path fill="rgb(182,182,182)" stroke="none" d="M 6138,6930 L 4885,7655 4885,6930 6138,6930 Z M 7066,4593 L 7219,4505 7219,6305 7066,6393 7066,4593 Z M 7034,6412 L 6194,6898 4885,6898 4885,5855 7034,4612 7034,6412 Z"/>
     <path fill="rgb(183,183,183)" stroke="none" d="M 6194,6898 L 4885,7655 4885,6898 6194,6898 Z M 7034,4612 L 7219,4505 7219,6305 7034,6412 7034,4612 Z M 7003,6430 L 6247,6867 4885,6867 4885,5855 7003,4630 7003,6430 Z"/>
     <path fill="rgb(184,184,184)" stroke="none" d="M 6247,6867 L 4885,7655 4885,6867 6247,6867 Z M 7003,4630 L 7219,4505 7219,6305 7003,6430 7003,4630 Z M 6971,6448 L 6303,6835 4885,6835 4885,5855 6971,4648 6971,6448 Z"/>
     <path fill="rgb(185,185,185)" stroke="none" d="M 6303,6835 L 4885,7655 4885,6835 6303,6835 Z M 6971,4648 L 7219,4505 7219,6305 6971,6448 6971,4648 Z M 6940,6466 L 6356,6804 4885,6804 4885,5855 6940,4666 6940,6466 Z"/>
     <path fill="rgb(186,186,186)" stroke="none" d="M 6356,6804 L 4885,7655 4885,6804 6356,6804 Z M 6940,4666 L 7219,4505 7219,6305 6940,6466 6940,4666 Z M 6908,6485 L 6412,6772 4885,6772 4885,5855 6908,4685 6908,6485 Z"/>
     <path fill="rgb(187,187,187)" stroke="none" d="M 6412,6772 L 4885,7655 4885,6772 6412,6772 Z M 6908,4685 L 7219,4505 7219,6305 6908,6485 6908,4685 Z M 6877,6503 L 6465,6741 4885,6741 4885,5855 6877,4703 6877,6503 Z"/>
     <path fill="rgb(188,188,188)" stroke="none" d="M 6465,6741 L 4885,7655 4885,6741 6465,6741 Z M 6877,4703 L 7219,4505 7219,6305 6877,6503 6877,4703 Z M 6845,6521 L 6521,6709 4885,6709 4885,5855 6845,4721 6845,6521 Z"/>
     <path fill="rgb(189,189,189)" stroke="none" d="M 6521,6709 L 4885,7655 4885,6709 6521,6709 Z M 6845,4721 L 7219,4505 7219,6305 6845,6521 6845,4721 Z M 6814,6539 L 6574,6678 4885,6678 4885,5855 6814,4739 6814,6539 Z"/>
     <path fill="rgb(190,190,190)" stroke="none" d="M 6574,6678 L 4885,7655 4885,6678 6574,6678 Z M 6814,4739 L 7219,4505 7219,6305 6814,6539 6814,4739 Z M 6782,6558 L 6629,6646 4885,6646 4885,5855 6782,4758 6782,6558 Z"/>
     <path fill="rgb(191,191,191)" stroke="none" d="M 6629,6646 L 4885,7655 4885,6646 6629,6646 Z M 6782,4758 L 7219,4505 7219,6305 6782,6558 6782,4758 Z M 6751,6576 L 6683,6615 4885,6615 4885,5855 6751,4776 6751,6576 Z"/>
     <path fill="rgb(192,192,192)" stroke="none" d="M 6683,6615 L 4885,7655 4885,6615 6683,6615 Z M 6751,4776 L 7219,4505 7219,6305 6751,6576 6751,4776 Z M 6719,6583 L 4885,6583 4885,5855 6719,4794 6719,6583 Z"/>
     <path fill="rgb(193,193,193)" stroke="none" d="M 6719,6583 L 6719,4794 7219,4505 7219,6305 4885,7655 4885,6583 6719,6583 Z M 6688,6552 L 4885,6552 4885,5855 6688,4812 6688,6552 Z"/>
     <path fill="rgb(194,194,194)" stroke="none" d="M 6688,6552 L 6688,4812 7219,4505 7219,6305 4885,7655 4885,6552 6688,6552 Z M 6656,6520 L 4885,6520 4885,5855 6656,4831 6656,6520 Z"/>
     <path fill="rgb(195,195,195)" stroke="none" d="M 6656,6520 L 6656,4831 7219,4505 7219,6305 4885,7655 4885,6520 6656,6520 Z M 6624,6488 L 4885,6488 4885,5855 6624,4849 6624,6488 Z"/>
     <path fill="rgb(196,196,196)" stroke="none" d="M 6624,6488 L 6624,4849 7219,4505 7219,6305 4885,7655 4885,6488 6624,6488 Z M 6593,6457 L 4885,6457 4885,5855 6593,4867 6593,6457 Z"/>
     <path fill="rgb(197,197,197)" stroke="none" d="M 6593,6457 L 6593,4867 7219,4505 7219,6305 4885,7655 4885,6457 6593,6457 Z M 6561,6425 L 4885,6425 4885,5855 6561,4886 6561,6425 Z"/>
     <path fill="rgb(198,198,198)" stroke="none" d="M 6561,6425 L 6561,4886 7219,4505 7219,6305 4885,7655 4885,6425 6561,6425 Z M 6530,6394 L 4885,6394 4885,5855 6530,4904 6530,6394 Z"/>
     <path fill="rgb(199,199,199)" stroke="none" d="M 6530,6394 L 6530,4904 7219,4505 7219,6305 4885,7655 4885,6394 6530,6394 Z M 6498,6362 L 4885,6362 4885,5855 6498,4922 6498,6362 Z"/>
     <path fill="rgb(200,200,200)" stroke="none" d="M 6498,6362 L 6498,4922 7219,4505 7219,6305 4885,7655 4885,6362 6498,6362 Z M 6467,6331 L 4885,6331 4885,5855 6467,4940 6467,6331 Z"/>
     <path fill="rgb(201,201,201)" stroke="none" d="M 6467,6331 L 6467,4940 7219,4505 7219,6305 4885,7655 4885,6331 6467,6331 Z M 6435,6299 L 4885,6299 4885,5855 6435,4958 6435,6299 Z"/>
     <path fill="rgb(202,202,202)" stroke="none" d="M 6435,6299 L 6435,4958 7219,4505 7219,6305 4885,7655 4885,6299 6435,6299 Z M 6404,6268 L 4885,6268 4885,5855 6404,4976 6404,6268 Z"/>
     <path fill="rgb(203,203,203)" stroke="none" d="M 6404,6268 L 6404,4976 7219,4505 7219,6305 4885,7655 4885,6268 6404,6268 Z M 6372,6236 L 4885,6236 4885,5855 6372,4995 6372,6236 Z"/>
     <path fill="rgb(204,204,204)" stroke="none" d="M 6372,6236 L 6372,4995 7219,4505 7219,6305 4885,7655 4885,6236 6372,6236 Z M 6341,6205 L 4885,6205 4885,5855 6341,5013 6341,6205 Z"/>
     <path fill="rgb(205,205,205)" stroke="none" d="M 6341,6205 L 6341,5013 7219,4505 7219,6305 4885,7655 4885,6205 6341,6205 Z M 6309,6173 L 4885,6173 4885,5855 6309,5031 6309,6173 Z"/>
     <path fill="rgb(206,206,206)" stroke="none" d="M 6309,6173 L 6309,5031 7219,4505 7219,6305 4885,7655 4885,6173 6309,6173 Z M 6278,6142 L 4891,6142 4891,5852 6278,5049 6278,6142 Z"/>
     <path fill="rgb(207,207,207)" stroke="none" d="M 4891,6142 L 6278,6142 6278,5049 7219,4505 7219,6305 4885,7655 4885,5855 4891,5852 4891,6142 Z M 6246,6110 L 4923,6110 4923,5833 6246,5068 6246,6110 Z"/>
     <path fill="rgb(208,208,208)" stroke="none" d="M 4923,6110 L 6246,6110 6246,5068 7219,4505 7219,6305 4885,7655 4885,5855 4923,5833 4923,6110 Z M 6215,6079 L 4954,6079 4954,5815 6215,5086 6215,6079 Z"/>
     <path fill="rgb(209,209,209)" stroke="none" d="M 4954,6079 L 6215,6079 6215,5086 7219,4505 7219,6305 4885,7655 4885,5855 4954,5815 4954,6079 Z M 6183,6047 L 4986,6047 4986,5797 6183,5104 6183,6047 Z"/>
     <path fill="rgb(210,210,210)" stroke="none" d="M 4986,6047 L 6183,6047 6183,5104 7219,4505 7219,6305 4885,7655 4885,5855 4986,5797 4986,6047 Z M 6152,6016 L 5017,6016 5017,5779 6152,5122 6152,6016 Z"/>
     <path fill="rgb(211,211,211)" stroke="none" d="M 5017,6016 L 6152,6016 6152,5122 7219,4505 7219,6305 4885,7655 4885,5855 5017,5779 5017,6016 Z M 6120,5984 L 5049,5984 5049,5760 6120,5141 6120,5984 Z"/>
     <path fill="rgb(212,212,212)" stroke="none" d="M 5049,5984 L 6120,5984 6120,5141 7219,4505 7219,6305 4885,7655 4885,5855 5049,5760 5049,5984 Z M 6088,5952 L 5081,5952 5081,5742 6088,5159 6088,5952 Z"/>
     <path fill="rgb(213,213,213)" stroke="none" d="M 5081,5952 L 6088,5952 6088,5159 7219,4505 7219,6305 4885,7655 4885,5855 5081,5742 5081,5952 Z M 6057,5921 L 5112,5921 5112,5724 6057,5177 6057,5921 Z"/>
     <path fill="rgb(214,214,214)" stroke="none" d="M 5112,5921 L 6057,5921 6057,5177 7219,4505 7219,6305 4885,7655 4885,5855 5112,5724 5112,5921 Z M 6025,5889 L 5144,5889 5144,5705 6025,5196 6025,5889 Z"/>
     <path fill="rgb(215,215,215)" stroke="none" d="M 5144,5889 L 6025,5889 6025,5196 7219,4505 7219,6305 4885,7655 4885,5855 5144,5705 5144,5889 Z M 5994,5858 L 5175,5858 5175,5687 5994,5214 5994,5858 Z"/>
     <path fill="rgb(216,216,216)" stroke="none" d="M 5175,5858 L 5994,5858 5994,5214 7219,4505 7219,6305 4885,7655 4885,5855 5175,5687 5175,5858 Z M 5962,5826 L 5207,5826 5207,5669 5962,5232 5962,5826 Z"/>
     <path fill="rgb(217,217,217)" stroke="none" d="M 5207,5826 L 5962,5826 5962,5232 7219,4505 7219,6305 4885,7655 4885,5855 5207,5669 5207,5826 Z M 5931,5795 L 5238,5795 5238,5651 5931,5250 5931,5795 Z"/>
     <path fill="rgb(218,218,218)" stroke="none" d="M 5238,5795 L 5931,5795 5931,5250 7219,4505 7219,6305 4885,7655 4885,5855 5238,5651 5238,5795 Z M 5899,5763 L 5270,5763 5270,5632 5899,5268 5899,5763 Z"/>
     <path fill="rgb(219,219,219)" stroke="none" d="M 5270,5763 L 5899,5763 5899,5268 7219,4505 7219,6305 4885,7655 4885,5855 5270,5632 5270,5763 Z M 5868,5732 L 5301,5732 5301,5614 5868,5286 5868,5732 Z"/>
     <path fill="rgb(220,220,220)" stroke="none" d="M 5301,5732 L 5868,5732 5868,5286 7219,4505 7219,6305 4885,7655 4885,5855 5301,5614 5301,5732 Z M 5836,5700 L 5333,5700 5333,5596 5836,5305 5836,5700 Z"/>
     <path fill="rgb(221,221,221)" stroke="none" d="M 5333,5700 L 5836,5700 5836,5305 7219,4505 7219,6305 4885,7655 4885,5855 5333,5596 5333,5700 Z M 5805,5669 L 5364,5669 5364,5578 5805,5323 5805,5669 Z"/>
     <path fill="rgb(222,222,222)" stroke="none" d="M 5364,5669 L 5805,5669 5805,5323 7219,4505 7219,6305 4885,7655 4885,5855 5364,5578 5364,5669 Z M 5773,5637 L 5396,5637 5396,5559 5773,5341 5773,5637 Z"/>
     <path fill="rgb(223,223,223)" stroke="none" d="M 5396,5637 L 5773,5637 5773,5341 7219,4505 7219,6305 4885,7655 4885,5855 5396,5559 5396,5637 Z M 5742,5606 L 5427,5606 5427,5542 5742,5359 5742,5606 Z"/>
     <path fill="rgb(224,224,224)" stroke="none" d="M 5427,5606 L 5742,5606 5742,5359 7219,4505 7219,6305 4885,7655 4885,5855 5427,5542 5427,5606 Z M 5710,5574 L 5459,5574 5459,5523 5710,5378 5710,5574 Z"/>
     <path fill="rgb(225,225,225)" stroke="none" d="M 5459,5574 L 5710,5574 5710,5378 7219,4505 7219,6305 4885,7655 4885,5855 5459,5523 5459,5574 Z M 5679,5543 L 5490,5543 5490,5505 5679,5396 5679,5543 Z"/>
     <path fill="rgb(226,226,226)" stroke="none" d="M 5490,5543 L 5679,5543 5679,5396 7219,4505 7219,6305 4885,7655 4885,5855 5490,5505 5490,5543 Z M 5647,5511 L 5522,5511 5522,5487 5647,5414 5647,5511 Z"/>
     <path fill="rgb(227,227,227)" stroke="none" d="M 5522,5511 L 5647,5511 5647,5414 7219,4505 7219,6305 4885,7655 4885,5855 5522,5487 5522,5511 Z M 5616,5480 L 5553,5480 5553,5469 5616,5432 5616,5480 Z"/>
     <path fill="rgb(229,229,229)" stroke="none" d="M 5553,5480 L 5616,5480 5616,5432 7219,4505 7219,6305 4885,7655 4885,5855 5553,5469 5553,5480 Z"/>
     <path fill="none" stroke="rgb(255,255,255)" id="Drawing_3_0" stroke-width="40" stroke-linejoin="round" d="M 4885,7655 L 4885,5855 7219,4505 7219,6305 4885,7655 Z"/>
    </g>
    <g>
     <defs>
      <linearGradient id="Gradient_271" gradientUnits="userSpaceOnUse" x1="4885" y1="3155" x2="4885" y2="5855">
       <stop offset="0.1" stop-color="rgb(179,179,179)"/>
       <stop offset="1" stop-color="rgb(229,229,229)"/>
      </linearGradient>
     </defs>
     <path fill="url(#Gradient_271)" stroke="rgb(255,255,255)" id="Drawing_4_0" stroke-width="40" stroke-linejoin="round" d="M 4885,5855 L 2551,4505 4885,3155 7219,4505 4885,5855 Z"/>
    </g>
    <g>
     <path fill="rgb(57,181,74)" stroke="none" d="M 4574,6035 L 4574,5855 4730,5945 4730,6125 4574,6035 Z"/>
     <path fill="none" stroke="rgb(0,0,0)" id="Drawing_5_0" stroke-width="40" stroke-linejoin="round" d="M 4574,6035 L 4574,5855 4730,5945 4730,6125 4574,6035 Z"/>
    </g>
    <g>
     <path fill="rgb(179,179,179)" stroke="none" d="M 4558,4078 L 3329,4505 4558,3794 4558,4078 Z"/>
     <path fill="rgb(180,180,180)" stroke="none" d="M 4558,3794 L 4885,3605 4885,3965 4558,4078 4558,3794 Z M 4542,4084 L 3329,4505 4542,3803 4542,4084 Z"/>
     <path fill="rgb(181,181,181)" stroke="none" d="M 4542,3803 L 4885,3605 4885,3965 4542,4084 4542,3803 Z M 4527,4089 L 3329,4505 4527,3812 4527,4089 Z"/>
     <path fill="rgb(182,182,182)" stroke="none" d="M 4527,3812 L 4885,3605 4885,3965 4527,4089 4527,3812 Z M 4511,4095 L 3329,4505 4511,3821 4511,4095 Z"/>
     <path fill="rgb(183,183,183)" stroke="none" d="M 4511,3821 L 4885,3605 4885,3965 4511,4095 4511,3821 Z M 4496,4100 L 3329,4505 4496,3830 4496,4100 Z"/>
     <path fill="rgb(184,184,184)" stroke="none" d="M 4496,3830 L 4885,3605 4885,3965 4496,4100 4496,3830 Z M 4480,4106 L 3329,4505 4480,3839 4480,4106 Z"/>
     <path fill="rgb(185,185,185)" stroke="none" d="M 4480,3839 L 4885,3605 4885,3965 4480,4106 4480,3839 Z M 4464,4111 L 3329,4505 4464,3849 4464,4111 Z"/>
     <path fill="rgb(186,186,186)" stroke="none" d="M 4464,3849 L 4885,3605 4885,3965 4464,4111 4464,3849 Z M 4449,4116 L 3329,4505 4449,3857 4449,4116 Z"/>
     <path fill="rgb(187,187,187)" stroke="none" d="M 4449,3857 L 4885,3605 4885,3965 4449,4116 4449,3857 Z M 4433,4122 L 3329,4505 4433,3866 4433,4122 Z"/>
     <path fill="rgb(188,188,188)" stroke="none" d="M 4433,3866 L 4885,3605 4885,3965 4433,4122 4433,3866 Z"/>
     <path fill="rgb(189,189,189)" stroke="none" d="M 3352,4497 L 3329,4505 3343,4497 3352,4497 Z M 4418,3875 L 4885,3605 4885,3965 4418,4127 4418,3875 Z M 4402,4133 L 3398,4481 3370,4481 4402,3884 4402,4133 Z"/>
     <path fill="rgb(190,190,190)" stroke="none" d="M 3398,4481 L 3329,4505 3370,4481 3398,4481 Z M 4402,3884 L 4885,3605 4885,3965 4402,4133 4402,3884 Z M 4386,4138 L 3444,4465 3398,4465 4386,3894 4386,4138 Z"/>
     <path fill="rgb(191,191,191)" stroke="none" d="M 3444,4465 L 3329,4505 3398,4465 3444,4465 Z M 4386,3894 L 4885,3605 4885,3965 4386,4138 4386,3894 Z M 4371,4143 L 3487,4450 3424,4450 4371,3902 4371,4143 Z"/>
     <path fill="rgb(192,192,192)" stroke="none" d="M 3487,4450 L 3329,4505 3424,4450 3487,4450 Z M 4371,3902 L 4885,3605 4885,3965 4371,4143 4371,3902 Z M 4355,4149 L 3534,4434 3452,4434 4355,3912 4355,4149 Z"/>
     <path fill="rgb(193,193,193)" stroke="none" d="M 3534,4434 L 3329,4505 3452,4434 3534,4434 Z M 4355,3912 L 4885,3605 4885,3965 4355,4149 4355,3912 Z M 4340,4154 L 3577,4419 3478,4419 4340,3920 4340,4154 Z"/>
     <path fill="rgb(194,194,194)" stroke="none" d="M 3577,4419 L 3329,4505 3478,4419 3577,4419 Z M 4340,3920 L 4885,3605 4885,3965 4340,4154 4340,3920 Z M 4324,4160 L 3623,4403 3505,4403 4324,3929 4324,4160 Z"/>
     <path fill="rgb(195,195,195)" stroke="none" d="M 3623,4403 L 3329,4505 3505,4403 3623,4403 Z M 4324,3929 L 4885,3605 4885,3965 4324,4160 4324,3929 Z M 4308,4165 L 3669,4387 3533,4387 4308,3939 4308,4165 Z"/>
     <path fill="rgb(196,196,196)" stroke="none" d="M 3669,4387 L 3329,4505 3533,4387 3669,4387 Z M 4308,3939 L 4885,3605 4885,3965 4308,4165 4308,3939 Z M 4293,4170 L 3712,4372 3559,4372 4293,3947 4293,4170 Z"/>
     <path fill="rgb(197,197,197)" stroke="none" d="M 3712,4372 L 3329,4505 3559,4372 3712,4372 Z M 4293,3947 L 4885,3605 4885,3965 4293,4170 4293,3947 Z M 4277,4176 L 3758,4356 3587,4356 4277,3957 4277,4176 Z"/>
     <path fill="rgb(198,198,198)" stroke="none" d="M 3758,4356 L 3329,4505 3587,4356 3758,4356 Z M 4277,3957 L 4885,3605 4885,3965 4277,4176 4277,3957 Z M 4262,4181 L 3802,4341 3613,4341 4262,3965 4262,4181 Z"/>
     <path fill="rgb(199,199,199)" stroke="none" d="M 3802,4341 L 3329,4505 3613,4341 3802,4341 Z M 4262,3965 L 4885,3605 4885,3965 4262,4181 4262,3965 Z M 4246,4187 L 3848,4325 3640,4325 4246,3975 4246,4187 Z"/>
     <path fill="rgb(200,200,200)" stroke="none" d="M 3848,4325 L 3329,4505 3640,4325 3848,4325 Z M 4246,3975 L 4885,3605 4885,3965 4246,4187 4246,3975 Z M 4231,4192 L 3891,4310 3666,4310 4231,3983 4231,4192 Z"/>
     <path fill="rgb(201,201,201)" stroke="none" d="M 3891,4310 L 3329,4505 3666,4310 3891,4310 Z M 4231,3983 L 4885,3605 4885,3965 4231,4192 4231,3983 Z M 4215,4198 L 3937,4294 3694,4294 4215,3993 4215,4198 Z"/>
     <path fill="rgb(202,202,202)" stroke="none" d="M 3937,4294 L 3329,4505 3694,4294 3937,4294 Z M 4215,3993 L 4885,3605 4885,3965 4215,4198 4215,3993 Z M 4199,4203 L 3983,4278 3721,4278 4199,4002 4199,4203 Z"/>
     <path fill="rgb(203,203,203)" stroke="none" d="M 3983,4278 L 3329,4505 3721,4278 3983,4278 Z M 4199,4002 L 4885,3605 4885,3965 4199,4203 4199,4002 Z M 4184,4208 L 4026,4263 3747,4263 4184,4010 4184,4208 Z"/>
     <path fill="rgb(204,204,204)" stroke="none" d="M 4026,4263 L 3329,4505 3747,4263 4026,4263 Z M 4184,4010 L 4885,3605 4885,3965 4184,4208 4184,4010 Z M 4168,4214 L 4072,4247 3775,4247 4168,4020 4168,4214 Z"/>
     <path fill="rgb(205,205,205)" stroke="none" d="M 4072,4247 L 3329,4505 3775,4247 4072,4247 Z M 4168,4020 L 4885,3605 4885,3965 4168,4214 4168,4020 Z M 4153,4219 L 4116,4232 3801,4232 4153,4028 4153,4219 Z"/>
     <path fill="rgb(206,206,206)" stroke="none" d="M 4116,4232 L 3329,4505 3801,4232 4116,4232 Z M 4153,4028 L 4885,3605 4885,3965 4153,4219 4153,4028 Z M 4137,4216 L 3829,4216 4137,4038 4137,4216 Z"/>
     <path fill="rgb(207,207,207)" stroke="none" d="M 4137,4216 L 4137,4038 4885,3605 4885,3965 3329,4505 3829,4216 4137,4216 Z M 4121,4200 L 3856,4200 4121,4047 4121,4200 Z"/>
     <path fill="rgb(208,208,208)" stroke="none" d="M 4121,4200 L 4121,4047 4885,3605 4885,3965 3329,4505 3856,4200 4121,4200 Z M 4106,4185 L 3882,4185 4106,4056 4106,4185 Z"/>
     <path fill="rgb(209,209,209)" stroke="none" d="M 4106,4185 L 4106,4056 4885,3605 4885,3965 3329,4505 3882,4185 4106,4185 Z M 4090,4169 L 3910,4169 4090,4065 4090,4169 Z"/>
     <path fill="rgb(210,210,210)" stroke="none" d="M 4090,4169 L 4090,4065 4885,3605 4885,3965 3329,4505 3910,4169 4090,4169 Z M 4075,4154 L 3936,4154 4075,4074 4075,4154 Z"/>
     <path fill="rgb(211,211,211)" stroke="none" d="M 4075,4154 L 4075,4074 4885,3605 4885,3965 3329,4505 3936,4154 4075,4154 Z M 4059,4138 L 3964,4138 4059,4083 4059,4138 Z"/>
     <path fill="rgb(212,212,212)" stroke="none" d="M 4059,4138 L 4059,4083 4885,3605 4885,3965 3329,4505 3964,4138 4059,4138 Z M 4043,4122 L 3991,4122 4043,4092 4043,4122 Z"/>
     <path fill="rgb(213,213,213)" stroke="none" d="M 4043,4122 L 4043,4092 4885,3605 4885,3965 3329,4505 3991,4122 4043,4122 Z M 4028,4107 L 4017,4107 4028,4101 4028,4107 Z"/>
     <path fill="rgb(214,214,214)" stroke="none" d="M 4028,4107 L 4028,4101 4885,3605 4885,3965 3329,4505 4017,4107 4028,4107 Z"/>
     <path fill="rgb(215,215,215)" stroke="none" d="M 3329,4505 L 4885,3605 4885,3965 3329,4505 Z"/>
     <path fill="rgb(216,216,216)" stroke="none" d="M 3329,4505 L 4885,3605 4885,3965 3329,4505 Z"/>
     <path fill="rgb(217,217,217)" stroke="none" d="M 3329,4505 L 4885,3605 4885,3965 3329,4505 Z"/>
     <path fill="rgb(218,218,218)" stroke="none" d="M 3329,4505 L 4885,3605 4885,3965 3329,4505 Z"/>
     <path fill="rgb(219,219,219)" stroke="none" d="M 3329,4505 L 4885,3605 4885,3965 3329,4505 Z"/>
     <path fill="rgb(220,220,220)" stroke="none" d="M 3329,4505 L 4885,3605 4885,3965 3329,4505 Z"/>
     <path fill="rgb(221,221,221)" stroke="none" d="M 3329,4505 L 4885,3605 4885,3965 3329,4505 Z"/>
     <path fill="rgb(222,222,222)" stroke="none" d="M 3329,4505 L 4885,3605 4885,3965 3329,4505 Z"/>
     <path fill="rgb(223,223,223)" stroke="none" d="M 3329,4505 L 4885,3605 4885,3965 3329,4505 Z"/>
     <path fill="rgb(224,224,224)" stroke="none" d="M 3329,4505 L 4885,3605 4885,3965 3329,4505 Z"/>
     <path fill="rgb(225,225,225)" stroke="none" d="M 3329,4505 L 4885,3605 4885,3965 3329,4505 Z"/>
     <path fill="rgb(226,226,226)" stroke="none" d="M 3329,4505 L 4885,3605 4885,3965 3329,4505 Z"/>
     <path fill="rgb(227,227,227)" stroke="none" d="M 3329,4505 L 4885,3605 4885,3965 3329,4505 Z"/>
     <path fill="rgb(229,229,229)" stroke="none" d="M 3329,4505 L 4885,3605 4885,3965 3329,4505 Z"/>
     <path fill="none" stroke="rgb(127,127,127)" id="Drawing_6_0" stroke-width="40" stroke-linejoin="round" d="M 3329,4505 L 4885,3605 4885,3965 3329,4505 Z"/>
    </g>
    <g>
     <defs>
      <linearGradient id="Gradient_272" gradientUnits="userSpaceOnUse" x1="4884" y1="4144" x2="6442" y2="4146">
       <stop offset="0.1" stop-color="rgb(179,179,179)"/>
       <stop offset="1" stop-color="rgb(229,229,229)"/>
      </linearGradient>
     </defs>
     <path fill="url(#Gradient_272)" stroke="rgb(127,127,127)" id="Drawing_7_0" stroke-width="40" stroke-linejoin="round" d="M 4885,3965 L 4885,3605 6441,4505 6130,4685 4885,3965 Z"/>
    </g>
    <g>
     <path fill="none" stroke="rgb(0,0,0)" id="Drawing_8_0" stroke-width="40" stroke-linejoin="round" d="M 6286,4595 L 5041,3875"/>
    </g>
    <g>
     <path fill="rgb(179,179,179)" stroke="none" d="M 4169,6769 L 2940,7160 2940,6935 4169,6437 4169,6769 Z"/>
     <path fill="rgb(180,180,180)" stroke="none" d="M 4169,6437 L 4496,6305 4496,6665 4169,6769 4169,6437 Z M 4153,6774 L 2940,7160 2940,6935 4153,6444 4153,6774 Z"/>
     <path fill="rgb(181,181,181)" stroke="none" d="M 4153,6444 L 4496,6305 4496,6665 4153,6774 4153,6444 Z M 4138,6779 L 2940,7160 2940,6935 4138,6450 4138,6779 Z"/>
     <path fill="rgb(182,182,182)" stroke="none" d="M 4138,6450 L 4496,6305 4496,6665 4138,6779 4138,6450 Z M 4122,6784 L 2940,7160 2940,6935 4122,6456 4122,6784 Z"/>
     <path fill="rgb(183,183,183)" stroke="none" d="M 4122,6456 L 4496,6305 4496,6665 4122,6784 4122,6456 Z M 4107,6789 L 2940,7160 2940,6935 4107,6463 4107,6789 Z"/>
     <path fill="rgb(184,184,184)" stroke="none" d="M 4107,6463 L 4496,6305 4496,6665 4107,6789 4107,6463 Z M 4091,6794 L 2940,7160 2940,6935 4091,6469 4091,6794 Z"/>
     <path fill="rgb(185,185,185)" stroke="none" d="M 4091,6469 L 4496,6305 4496,6665 4091,6794 4091,6469 Z M 4075,6799 L 2940,7160 2940,6935 4075,6475 4075,6799 Z"/>
     <path fill="rgb(186,186,186)" stroke="none" d="M 4075,6475 L 4496,6305 4496,6665 4075,6799 4075,6475 Z M 4060,6804 L 2940,7160 2940,6935 4060,6482 4060,6804 Z"/>
     <path fill="rgb(187,187,187)" stroke="none" d="M 4060,6482 L 4496,6305 4496,6665 4060,6804 4060,6482 Z M 4044,6809 L 2940,7160 2940,6935 4044,6488 4044,6809 Z"/>
     <path fill="rgb(188,188,188)" stroke="none" d="M 4044,6488 L 4496,6305 4496,6665 4044,6809 4044,6488 Z M 4029,6814 L 2940,7160 2940,6935 4029,6494 4029,6814 Z"/>
     <path fill="rgb(189,189,189)" stroke="none" d="M 4029,6494 L 4496,6305 4496,6665 4029,6814 4029,6494 Z M 4013,6819 L 2940,7160 2940,6935 4013,6501 4013,6819 Z"/>
     <path fill="rgb(190,190,190)" stroke="none" d="M 4013,6501 L 4496,6305 4496,6665 4013,6819 4013,6501 Z M 3997,6824 L 2965,7152 2940,7152 2940,6935 3997,6507 3997,6824 Z"/>
     <path fill="rgb(191,191,191)" stroke="none" d="M 2965,7152 L 2940,7160 2940,7152 2965,7152 Z M 3997,6507 L 4496,6305 4496,6665 3997,6824 3997,6507 Z M 3982,6829 L 3012,7137 2940,7137 2940,6935 3982,6513 3982,6829 Z"/>
     <path fill="rgb(192,192,192)" stroke="none" d="M 3012,7137 L 2940,7160 2940,7137 3012,7137 Z M 3982,6513 L 4496,6305 4496,6665 3982,6829 3982,6513 Z M 3966,6834 L 3063,7121 2940,7121 2940,6935 3966,6520 3966,6834 Z"/>
     <path fill="rgb(193,193,193)" stroke="none" d="M 3063,7121 L 2940,7160 2940,7121 3063,7121 Z M 3966,6520 L 4496,6305 4496,6665 3966,6834 3966,6520 Z M 3951,6838 L 3110,7106 2940,7106 2940,6935 3951,6526 3951,6838 Z"/>
     <path fill="rgb(194,194,194)" stroke="none" d="M 3110,7106 L 2940,7160 2940,7106 3110,7106 Z M 3951,6526 L 4496,6305 4496,6665 3951,6838 3951,6526 Z M 3935,6843 L 3160,7090 2940,7090 2940,6935 3935,6532 3935,6843 Z"/>
     <path fill="rgb(195,195,195)" stroke="none" d="M 3160,7090 L 2940,7160 2940,7090 3160,7090 Z M 3935,6532 L 4496,6305 4496,6665 3935,6843 3935,6532 Z M 3919,6849 L 3210,7074 2940,7074 2940,6935 3919,6539 3919,6849 Z"/>
     <path fill="rgb(196,196,196)" stroke="none" d="M 3210,7074 L 2940,7160 2940,7074 3210,7074 Z M 3919,6539 L 4496,6305 4496,6665 3919,6849 3919,6539 Z M 3904,6853 L 3257,7059 2940,7059 2940,6935 3904,6545 3904,6853 Z"/>
     <path fill="rgb(197,197,197)" stroke="none" d="M 3257,7059 L 2940,7160 2940,7059 3257,7059 Z M 3904,6545 L 4496,6305 4496,6665 3904,6853 3904,6545 Z M 3888,6858 L 3308,7043 2940,7043 2940,6935 3888,6551 3888,6858 Z"/>
     <path fill="rgb(198,198,198)" stroke="none" d="M 3308,7043 L 2940,7160 2940,7043 3308,7043 Z M 3888,6551 L 4496,6305 4496,6665 3888,6858 3888,6551 Z M 3873,6863 L 3355,7028 2940,7028 2940,6935 3873,6557 3873,6863 Z"/>
     <path fill="rgb(199,199,199)" stroke="none" d="M 3355,7028 L 2940,7160 2940,7028 3355,7028 Z M 3873,6557 L 4496,6305 4496,6665 3873,6863 3873,6557 Z M 3857,6868 L 3405,7012 2954,7012 2954,6929 3857,6564 3857,6868 Z"/>
     <path fill="rgb(200,200,200)" stroke="none" d="M 2954,7012 L 3405,7012 2940,7160 2940,6935 2954,6929 2954,7012 Z M 3857,6564 L 4496,6305 4496,6665 3857,6868 3857,6564 Z M 3842,6873 L 3452,6997 2969,6997 2969,6923 3842,6570 3842,6873 Z"/>
     <path fill="rgb(201,201,201)" stroke="none" d="M 2969,6997 L 3452,6997 2940,7160 2940,6935 2969,6923 2969,6997 Z M 3842,6570 L 4496,6305 4496,6665 3842,6873 3842,6570 Z M 3826,6878 L 3503,6981 2985,6981 2985,6917 3826,6576 3826,6878 Z"/>
     <path fill="rgb(202,202,202)" stroke="none" d="M 2985,6981 L 3503,6981 2940,7160 2940,6935 2985,6917 2985,6981 Z M 3826,6576 L 4496,6305 4496,6665 3826,6878 3826,6576 Z M 3810,6883 L 3553,6965 3001,6965 3001,6910 3810,6583 3810,6883 Z"/>
     <path fill="rgb(203,203,203)" stroke="none" d="M 3001,6965 L 3553,6965 2940,7160 2940,6935 3001,6910 3001,6965 Z M 3810,6583 L 4496,6305 4496,6665 3810,6883 3810,6583 Z M 3795,6888 L 3600,6950 3016,6950 3016,6904 3795,6589 3795,6888 Z"/>
     <path fill="rgb(204,204,204)" stroke="none" d="M 3016,6950 L 3600,6950 2940,7160 2940,6935 3016,6904 3016,6950 Z M 3795,6589 L 4496,6305 4496,6665 3795,6888 3795,6589 Z M 3779,6893 L 3650,6934 3032,6934 3032,6898 3779,6595 3779,6893 Z"/>
     <path fill="rgb(205,205,205)" stroke="none" d="M 3032,6934 L 3650,6934 2940,7160 2940,6935 3032,6898 3032,6934 Z M 3779,6595 L 4496,6305 4496,6665 3779,6893 3779,6595 Z M 3764,6898 L 3698,6919 3047,6919 3047,6892 3764,6601 3764,6898 Z"/>
     <path fill="rgb(206,206,206)" stroke="none" d="M 3047,6919 L 3698,6919 2940,7160 2940,6935 3047,6892 3047,6919 Z M 3764,6601 L 4496,6305 4496,6665 3764,6898 3764,6601 Z M 3748,6903 L 3748,6903 3063,6903 3063,6885 3748,6608 3748,6903 Z"/>
     <path fill="rgb(207,207,207)" stroke="none" d="M 3063,6903 L 3748,6903 2940,7160 2940,6935 3063,6885 3063,6903 Z M 3748,6608 L 4496,6305 4496,6665 3748,6903 3748,6608 Z M 3732,6887 L 3079,6887 3079,6879 3732,6614 3732,6887 Z"/>
     <path fill="rgb(208,208,208)" stroke="none" d="M 3079,6887 L 3732,6887 3732,6614 4496,6305 4496,6665 2940,7160 2940,6935 3079,6879 3079,6887 Z M 3717,6872 L 3096,6872 3717,6620 3717,6872 Z"/>
     <path fill="rgb(209,209,209)" stroke="none" d="M 3717,6872 L 3717,6620 4496,6305 4496,6665 2940,7160 2940,6935 3096,6872 3717,6872 Z M 3701,6856 L 3135,6856 3701,6627 3701,6856 Z"/>
     <path fill="rgb(210,210,210)" stroke="none" d="M 3701,6856 L 3701,6627 4496,6305 4496,6665 2940,7160 2940,6935 3135,6856 3701,6856 Z M 3686,6841 L 3172,6841 3686,6633 3686,6841 Z"/>
     <path fill="rgb(211,211,211)" stroke="none" d="M 3686,6841 L 3686,6633 4496,6305 4496,6665 2940,7160 2940,6935 3172,6841 3686,6841 Z M 3670,6825 L 3212,6825 3670,6639 3670,6825 Z"/>
     <path fill="rgb(212,212,212)" stroke="none" d="M 3670,6825 L 3670,6639 4496,6305 4496,6665 2940,7160 2940,6935 3212,6825 3670,6825 Z M 3654,6809 L 3251,6809 3654,6646 3654,6809 Z"/>
     <path fill="rgb(213,213,213)" stroke="none" d="M 3654,6809 L 3654,6646 4496,6305 4496,6665 2940,7160 2940,6935 3251,6809 3654,6809 Z M 3639,6794 L 3288,6794 3639,6652 3639,6794 Z"/>
     <path fill="rgb(214,214,214)" stroke="none" d="M 3639,6794 L 3639,6652 4496,6305 4496,6665 2940,7160 2940,6935 3288,6794 3639,6794 Z M 3623,6778 L 3328,6778 3623,6658 3623,6778 Z"/>
     <path fill="rgb(215,215,215)" stroke="none" d="M 3623,6778 L 3623,6658 4496,6305 4496,6665 2940,7160 2940,6935 3328,6778 3623,6778 Z M 3608,6763 L 3365,6763 3608,6665 3608,6763 Z"/>
     <path fill="rgb(216,216,216)" stroke="none" d="M 3608,6763 L 3608,6665 4496,6305 4496,6665 2940,7160 2940,6935 3365,6763 3608,6763 Z M 3592,6747 L 3404,6747 3592,6671 3592,6747 Z"/>
     <path fill="rgb(217,217,217)" stroke="none" d="M 3592,6747 L 3592,6671 4496,6305 4496,6665 2940,7160 2940,6935 3404,6747 3592,6747 Z M 3576,6731 L 3444,6731 3576,6677 3576,6731 Z"/>
     <path fill="rgb(218,218,218)" stroke="none" d="M 3576,6731 L 3576,6677 4496,6305 4496,6665 2940,7160 2940,6935 3444,6731 3576,6731 Z M 3561,6716 L 3481,6716 3561,6684 3561,6716 Z"/>
     <path fill="rgb(219,219,219)" stroke="none" d="M 3561,6716 L 3561,6684 4496,6305 4496,6665 2940,7160 2940,6935 3481,6716 3561,6716 Z M 3545,6700 L 3520,6700 3545,6690 3545,6700 Z"/>
     <path fill="rgb(220,220,220)" stroke="none" d="M 3545,6700 L 3545,6690 4496,6305 4496,6665 2940,7160 2940,6935 3520,6700 3545,6700 Z"/>
     <path fill="rgb(221,221,221)" stroke="none" d="M 2940,6935 L 4496,6305 4496,6665 2940,7160 2940,6935 Z"/>
     <path fill="rgb(222,222,222)" stroke="none" d="M 2940,6935 L 4496,6305 4496,6665 2940,7160 2940,6935 Z"/>
     <path fill="rgb(223,223,223)" stroke="none" d="M 2940,6935 L 4496,6305 4496,6665 2940,7160 2940,6935 Z"/>
     <path fill="rgb(224,224,224)" stroke="none" d="M 2940,6935 L 4496,6305 4496,6665 2940,7160 2940,6935 Z"/>
     <path fill="rgb(225,225,225)" stroke="none" d="M 2940,6935 L 4496,6305 4496,6665 2940,7160 2940,6935 Z"/>
     <path fill="rgb(226,226,226)" stroke="none" d="M 2940,6935 L 4496,6305 4496,6665 2940,7160 2940,6935 Z"/>
     <path fill="rgb(227,227,227)" stroke="none" d="M 2940,6935 L 4496,6305 4496,6665 2940,7160 2940,6935 Z"/>
     <path fill="rgb(229,229,229)" stroke="none" d="M 2940,6935 L 4496,6305 4496,6665 2940,7160 2940,6935 Z"/>
     <path fill="none" stroke="rgb(255,255,255)" id="Drawing_9_0" stroke-width="40" stroke-linejoin="round" d="M 2940,6935 L 4496,6305 4496,6665 2940,7160 2940,6935 Z"/>
    </g>
    <g>
     <path fill="none" stroke="rgb(255,255,255)" id="Drawing_10_0" stroke-width="40" stroke-linejoin="round" d="M 3329,4505 L 4885,3605 6442,4505 4885,5405 3329,4505 Z"/>
    </g>
    <g>
     <defs>
      <linearGradient id="Gradient_273" gradientUnits="userSpaceOnUse" x1="1383" y1="6596" x2="2941" y2="6598">
       <stop offset="0.1" stop-color="rgb(179,179,179)"/>
       <stop offset="1" stop-color="rgb(229,229,229)"/>
      </linearGradient>
     </defs>
     <path fill="url(#Gradient_273)" stroke="rgb(255,255,255)" id="Drawing_11_0" stroke-width="40" stroke-linejoin="round" d="M 1384,6260 L 1384,6035 2940,6935 2940,7160 1384,6260 Z"/>
    </g>
    <g>
     <path fill="none" stroke="rgb(127,127,127)" id="Drawing_12_0" stroke-width="40" stroke-linejoin="round" d="M 2939,5405 L 2939,5225 4495,6125 4495,6260"/>
    </g>
    <g>
     <defs>
      <linearGradient id="Gradient_274" gradientUnits="userSpaceOnUse" x1="2940" y1="5405" x2="2940" y2="6935">
       <stop offset="0.1" stop-color="rgb(179,179,179)"/>
       <stop offset="1" stop-color="rgb(229,229,229)"/>
      </linearGradient>
     </defs>
     <path fill="url(#Gradient_274)" stroke="rgb(255,255,255)" id="Drawing_13_0" stroke-width="40" stroke-linejoin="round" d="M 2940,6935 L 1384,6035 2940,5405 4497,6305 2940,6935 Z"/>
    </g>
    <g>
     <path fill="rgb(255,255,255)" stroke="none" d="M 2552,6845 C 2240,6665 1773,6395 1462,6215 1852,5990 2629,5675 3174,5540 3485,5720 3874,5945 4263,6170 3796,6305 3018,6620 2552,6845 Z"/>
     <path fill="none" stroke="rgb(128,128,128)" id="Drawing_14_0" stroke-width="40" stroke-linejoin="round" d="M 2552,6845 C 2240,6665 1773,6395 1462,6215 1852,5990 2629,5675 3174,5540 3485,5720 3874,5945 4263,6170 3796,6305 3018,6620 2552,6845 Z"/>
    </g>
    <g>
     <path fill="none" stroke="rgb(0,0,0)" id="Drawing_15_0" stroke-width="40" stroke-linejoin="round" d="M 2551,5585 L 2551,4505 4885,3155 7220,4505 7220,6305 4885,7655 3641,6935 2940,7160 1384,6260 1384,6035 2551,5585 Z"/>
    </g>
   </g>
  </g>
 </g>
</svg>