<?xml version="1.0" encoding="UTF-8"?>

<svg version="1.2" baseProfile="tiny" width="15.46mm" height="31.2mm" viewBox="9697 13445 1546 3120" preserveAspectRatio="xMidYMid" fill-rule="evenodd" stroke-width="28.222" stroke-linejoin="round" xmlns="http://www.w3.org/2000/svg" xmlns:xlink="http://www.w3.org/1999/xlink" xml:space="preserve">
 <g visibility="visible" id="Slide_1">
  <g id="DrawingGroup_1">
   <g>
    <path fill="rgb(221,221,221)" stroke="none" d="M 10843,16545 C 11100,16545 11223,16437 11223,16329 11223,16221 11130,16167 10943,16167 10943,16329 10746,16005 10843,16545 Z"/>
    <path fill="none" stroke="rgb(221,221,221)" id="Drawing_1_0" stroke-width="40" stroke-linejoin="round" d="M 10843,16545 C 11100,16545 11223,16437 11223,16329 11223,16221 11130,16167 10943,16167 10943,16329 10746,16005 10843,16545 Z"/>
   </g>
   <g id="DrawingGroup_2">
    <g>
     <defs>
      <linearGradient id="Gradient_127" gradientUnits="userSpaceOnUse" x1="9714" y1="15031" x2="10842" y2="15033">
       <stop offset="0.1" stop-color="rgb(51,51,51)"/>
       <stop offset="1" stop-color="rgb(153,153,153)"/>
      </linearGradient>
     </defs>
     <path fill="url(#Gradient_127)" stroke="rgb(178,178,178)" id="Drawing_2_0" stroke-width="40" stroke-linejoin="round" d="M 9717,15897 L 9717,13519 10839,14167 10839,16545 9717,15897 Z"/>
    </g>
    <g>
     <defs>
      <linearGradient id="Gradient_128" gradientUnits="userSpaceOnUse" x1="9807" y1="15031" x2="10746" y2="15033">
       <stop offset="0.1" stop-color="rgb(147,212,240)"/>
       <stop offset="1" stop-color="rgb(233,246,252)"/>
      </linearGradient>
     </defs>
     <path fill="url(#Gradient_128)" stroke="rgb(51,51,51)" id="Drawing_3_0" stroke-width="40" stroke-linejoin="round" d="M 9810,15842 L 9810,13681 10745,14221 10745,16383 9810,15842 Z"/>
    </g>
    <g>
     <defs>
      <linearGradient id="Gradient_129" gradientUnits="userSpaceOnUse" x1="10330" y1="13465" x2="10330" y2="14167">
       <stop offset="0.1" stop-color="rgb(51,51,51)"/>
       <stop offset="1" stop-color="rgb(153,153,153)"/>
      </linearGradient>
     </defs>
     <path fill="url(#Gradient_129)" stroke="rgb(178,178,178)" id="Drawing_4_0" stroke-width="40" stroke-linejoin="round" d="M 10839,14167 L 9717,13519 9821,13465 10943,14113 10839,14167 Z"/>
    </g>
    <g>
     <path fill="rgb(51,51,51)" stroke="none" d="M 10839,16047 L 10839,14167 10943,14113 10943,16047 10839,16047 Z"/>
     <path fill="rgb(52,52,52)" stroke="none" d="M 10943,16047 L 10943,16491 10839,16545 10839,16047 10943,16047 Z M 10839,16035 L 10839,14167 10943,14113 10943,16035 10839,16035 Z"/>
     <path fill="rgb(53,53,53)" stroke="none" d="M 10943,16035 L 10943,16491 10839,16545 10839,16035 10943,16035 Z M 10839,16023 L 10839,14167 10943,14113 10943,16023 10839,16023 Z"/>
     <path fill="rgb(54,54,54)" stroke="none" d="M 10943,16023 L 10943,16491 10839,16545 10839,16023 10943,16023 Z M 10839,16011 L 10839,14167 10943,14113 10943,16011 10839,16011 Z"/>
     <path fill="rgb(55,55,55)" stroke="none" d="M 10943,16011 L 10943,16491 10839,16545 10839,16011 10943,16011 Z M 10839,15999 L 10839,14167 10943,14113 10943,15999 10839,15999 Z"/>
     <path fill="rgb(56,56,56)" stroke="none" d="M 10943,15999 L 10943,16491 10839,16545 10839,15999 10943,15999 Z M 10839,15987 L 10839,14167 10943,14113 10943,15987 10839,15987 Z"/>
     <path fill="rgb(57,57,57)" stroke="none" d="M 10943,15987 L 10943,16491 10839,16545 10839,15987 10943,15987 Z M 10839,15975 L 10839,14167 10943,14113 10943,15975 10839,15975 Z"/>
     <path fill="rgb(58,58,58)" stroke="none" d="M 10943,15975 L 10943,16491 10839,16545 10839,15975 10943,15975 Z M 10839,15963 L 10839,14167 10943,14113 10943,15963 10839,15963 Z"/>
     <path fill="rgb(59,59,59)" stroke="none" d="M 10943,15963 L 10943,16491 10839,16545 10839,15963 10943,15963 Z M 10839,15951 L 10839,14167 10943,14113 10943,15951 10839,15951 Z"/>
     <path fill="rgb(60,60,60)" stroke="none" d="M 10943,15951 L 10943,16491 10839,16545 10839,15951 10943,15951 Z M 10839,15939 L 10839,14167 10943,14113 10943,15939 10839,15939 Z"/>
     <path fill="rgb(61,61,61)" stroke="none" d="M 10943,15939 L 10943,16491 10839,16545 10839,15939 10943,15939 Z M 10839,15927 L 10839,14167 10943,14113 10943,15927 10839,15927 Z"/>
     <path fill="rgb(62,62,62)" stroke="none" d="M 10943,15927 L 10943,16491 10839,16545 10839,15927 10943,15927 Z M 10839,15915 L 10839,14167 10943,14113 10943,15915 10839,15915 Z"/>
     <path fill="rgb(63,63,63)" stroke="none" d="M 10943,15915 L 10943,16491 10839,16545 10839,15915 10943,15915 Z M 10839,15903 L 10839,14167 10943,14113 10943,15903 10839,15903 Z"/>
     <path fill="rgb(64,64,64)" stroke="none" d="M 10943,15903 L 10943,16491 10839,16545 10839,15903 10943,15903 Z M 10839,15891 L 10839,14167 10943,14113 10943,15891 10839,15891 Z"/>
     <path fill="rgb(65,65,65)" stroke="none" d="M 10943,15891 L 10943,16491 10839,16545 10839,15891 10943,15891 Z M 10839,15879 L 10839,14167 10943,14113 10943,15879 10839,15879 Z"/>
     <path fill="rgb(66,66,66)" stroke="none" d="M 10943,15879 L 10943,16491 10839,16545 10839,15879 10943,15879 Z M 10839,15868 L 10839,14167 10943,14113 10943,15868 10839,15868 Z"/>
     <path fill="rgb(67,67,67)" stroke="none" d="M 10943,15868 L 10943,16491 10839,16545 10839,15868 10943,15868 Z M 10839,15856 L 10839,14167 10943,14113 10943,15856 10839,15856 Z"/>
     <path fill="rgb(68,68,68)" stroke="none" d="M 10943,15856 L 10943,16491 10839,16545 10839,15856 10943,15856 Z M 10839,15844 L 10839,14167 10943,14113 10943,15844 10839,15844 Z"/>
     <path fill="rgb(69,69,69)" stroke="none" d="M 10943,15844 L 10943,16491 10839,16545 10839,15844 10943,15844 Z M 10839,15832 L 10839,14167 10943,14113 10943,15832 10839,15832 Z"/>
     <path fill="rgb(70,70,70)" stroke="none" d="M 10943,15832 L 10943,16491 10839,16545 10839,15832 10943,15832 Z M 10839,15820 L 10839,14167 10943,14113 10943,15820 10839,15820 Z"/>
     <path fill="rgb(71,71,71)" stroke="none" d="M 10943,15820 L 10943,16491 10839,16545 10839,15820 10943,15820 Z M 10839,15808 L 10839,14167 10943,14113 10943,15808 10839,15808 Z"/>
     <path fill="rgb(72,72,72)" stroke="none" d="M 10943,15808 L 10943,16491 10839,16545 10839,15808 10943,15808 Z M 10839,15796 L 10839,14167 10943,14113 10943,15796 10839,15796 Z"/>
     <path fill="rgb(73,73,73)" stroke="none" d="M 10943,15796 L 10943,16491 10839,16545 10839,15796 10943,15796 Z M 10839,15784 L 10839,14167 10943,14113 10943,15784 10839,15784 Z"/>
     <path fill="rgb(74,74,74)" stroke="none" d="M 10943,15784 L 10943,16491 10839,16545 10839,15784 10943,15784 Z M 10839,15772 L 10839,14167 10943,14113 10943,15772 10839,15772 Z"/>
     <path fill="rgb(75,75,75)" stroke="none" d="M 10943,15772 L 10943,16491 10839,16545 10839,15772 10943,15772 Z M 10839,15760 L 10839,14167 10943,14113 10943,15760 10839,15760 Z"/>
     <path fill="rgb(76,76,76)" stroke="none" d="M 10943,15760 L 10943,16491 10839,16545 10839,15760 10943,15760 Z M 10839,15748 L 10839,14167 10943,14113 10943,15748 10839,15748 Z"/>
     <path fill="rgb(77,77,77)" stroke="none" d="M 10943,15748 L 10943,16491 10839,16545 10839,15748 10943,15748 Z M 10839,15736 L 10839,14167 10943,14113 10943,15736 10839,15736 Z"/>
     <path fill="rgb(78,78,78)" stroke="none" d="M 10943,15736 L 10943,16491 10839,16545 10839,15736 10943,15736 Z M 10839,15724 L 10839,14167 10943,14113 10943,15724 10839,15724 Z"/>
     <path fill="rgb(79,79,79)" stroke="none" d="M 10943,15724 L 10943,16491 10839,16545 10839,15724 10943,15724 Z M 10839,15712 L 10839,14167 10943,14113 10943,15712 10839,15712 Z"/>
     <path fill="rgb(80,80,80)" stroke="none" d="M 10943,15712 L 10943,16491 10839,16545 10839,15712 10943,15712 Z M 10839,15700 L 10839,14167 10943,14113 10943,15700 10839,15700 Z"/>
     <path fill="rgb(81,81,81)" stroke="none" d="M 10943,15700 L 10943,16491 10839,16545 10839,15700 10943,15700 Z M 10839,15688 L 10839,14167 10943,14113 10943,15688 10839,15688 Z"/>
     <path fill="rgb(82,82,82)" stroke="none" d="M 10943,15688 L 10943,16491 10839,16545 10839,15688 10943,15688 Z M 10839,15677 L 10839,14167 10943,14113 10943,15677 10839,15677 Z"/>
     <path fill="rgb(83,83,83)" stroke="none" d="M 10943,15677 L 10943,16491 10839,16545 10839,15677 10943,15677 Z M 10839,15665 L 10839,14167 10943,14113 10943,15665 10839,15665 Z"/>
     <path fill="rgb(84,84,84)" stroke="none" d="M 10943,15665 L 10943,16491 10839,16545 10839,15665 10943,15665 Z M 10839,15653 L 10839,14167 10943,14113 10943,15653 10839,15653 Z"/>
     <path fill="rgb(85,85,85)" stroke="none" d="M 10943,15653 L 10943,16491 10839,16545 10839,15653 10943,15653 Z M 10839,15641 L 10839,14167 10943,14113 10943,15641 10839,15641 Z"/>
     <path fill="rgb(86,86,86)" stroke="none" d="M 10943,15641 L 10943,16491 10839,16545 10839,15641 10943,15641 Z M 10839,15629 L 10839,14167 10943,14113 10943,15629 10839,15629 Z"/>
     <path fill="rgb(87,87,87)" stroke="none" d="M 10943,15629 L 10943,16491 10839,16545 10839,15629 10943,15629 Z M 10839,15617 L 10839,14167 10943,14113 10943,15617 10839,15617 Z"/>
     <path fill="rgb(88,88,88)" stroke="none" d="M 10943,15617 L 10943,16491 10839,16545 10839,15617 10943,15617 Z M 10839,15605 L 10839,14167 10943,14113 10943,15605 10839,15605 Z"/>
     <path fill="rgb(89,89,89)" stroke="none" d="M 10943,15605 L 10943,16491 10839,16545 10839,15605 10943,15605 Z M 10839,15593 L 10839,14167 10943,14113 10943,15593 10839,15593 Z"/>
     <path fill="rgb(90,90,90)" stroke="none" d="M 10943,15593 L 10943,16491 10839,16545 10839,15593 10943,15593 Z M 10839,15581 L 10839,14167 10943,14113 10943,15581 10839,15581 Z"/>
     <path fill="rgb(91,91,91)" stroke="none" d="M 10943,15581 L 10943,16491 10839,16545 10839,15581 10943,15581 Z M 10943,14114 L 10943,15569 10839,15569 10839,14167 10941,14114 10943,14114 Z"/>
     <path fill="rgb(92,92,92)" stroke="none" d="M 10943,15569 L 10943,16491 10839,16545 10839,15569 10943,15569 Z M 10941,14114 L 10943,14113 10943,14114 10941,14114 Z M 10943,14126 L 10943,15557 10839,15557 10839,14167 10918,14126 10943,14126 Z"/>
     <path fill="rgb(93,93,93)" stroke="none" d="M 10943,15557 L 10943,16491 10839,16545 10839,15557 10943,15557 Z M 10918,14126 L 10943,14113 10943,14126 10918,14126 Z M 10943,14138 L 10943,15545 10839,15545 10839,14167 10895,14138 10943,14138 Z"/>
     <path fill="rgb(94,94,94)" stroke="none" d="M 10943,15545 L 10943,16491 10839,16545 10839,15545 10943,15545 Z M 10895,14138 L 10943,14113 10943,14138 10895,14138 Z M 10943,14150 L 10943,15533 10839,15533 10839,14167 10872,14150 10943,14150 Z"/>
     <path fill="rgb(95,95,95)" stroke="none" d="M 10943,15533 L 10943,16491 10839,16545 10839,15533 10943,15533 Z M 10872,14150 L 10943,14113 10943,14150 10872,14150 Z M 10943,14162 L 10943,15521 10839,15521 10839,14167 10849,14162 10943,14162 Z"/>
     <path fill="rgb(96,96,96)" stroke="none" d="M 10943,15521 L 10943,16491 10839,16545 10839,15521 10943,15521 Z M 10849,14162 L 10943,14113 10943,14162 10849,14162 Z M 10943,14174 L 10943,15509 10839,15509 10839,14174 10943,14174 Z"/>
     <path fill="rgb(97,97,97)" stroke="none" d="M 10943,15509 L 10943,16491 10839,16545 10839,15509 10943,15509 Z M 10839,14174 L 10839,14167 10943,14113 10943,14174 10839,14174 Z M 10943,14186 L 10943,15497 10839,15497 10839,14186 10943,14186 Z"/>
     <path fill="rgb(98,98,98)" stroke="none" d="M 10943,15497 L 10943,16491 10839,16545 10839,15497 10943,15497 Z M 10839,14186 L 10839,14167 10943,14113 10943,14186 10839,14186 Z M 10943,14197 L 10943,15486 10839,15486 10839,14197 10943,14197 Z"/>
     <path fill="rgb(99,99,99)" stroke="none" d="M 10943,15486 L 10943,16491 10839,16545 10839,15486 10943,15486 Z M 10839,14197 L 10839,14167 10943,14113 10943,14197 10839,14197 Z M 10943,14209 L 10943,15474 10839,15474 10839,14209 10943,14209 Z"/>
     <path fill="rgb(100,100,100)" stroke="none" d="M 10943,15474 L 10943,16491 10839,16545 10839,15474 10943,15474 Z M 10839,14209 L 10839,14167 10943,14113 10943,14209 10839,14209 Z M 10943,14221 L 10943,15462 10839,15462 10839,14221 10943,14221 Z"/>
     <path fill="rgb(101,101,101)" stroke="none" d="M 10943,15462 L 10943,16491 10839,16545 10839,15462 10943,15462 Z M 10839,14221 L 10839,14167 10943,14113 10943,14221 10839,14221 Z M 10943,14233 L 10943,15450 10839,15450 10839,14233 10943,14233 Z"/>
     <path fill="rgb(102,102,102)" stroke="none" d="M 10943,15450 L 10943,16491 10839,16545 10839,15450 10943,15450 Z M 10839,14233 L 10839,14167 10943,14113 10943,14233 10839,14233 Z M 10943,14245 L 10943,15438 10839,15438 10839,14245 10943,14245 Z"/>
     <path fill="rgb(103,103,103)" stroke="none" d="M 10943,15438 L 10943,16491 10839,16545 10839,15438 10943,15438 Z M 10839,14245 L 10839,14167 10943,14113 10943,14245 10839,14245 Z M 10943,14257 L 10943,15426 10839,15426 10839,14257 10943,14257 Z"/>
     <path fill="rgb(104,104,104)" stroke="none" d="M 10943,15426 L 10943,16491 10839,16545 10839,15426 10943,15426 Z M 10839,14257 L 10839,14167 10943,14113 10943,14257 10839,14257 Z M 10943,14269 L 10943,15414 10839,15414 10839,14269 10943,14269 Z"/>
     <path fill="rgb(105,105,105)" stroke="none" d="M 10943,15414 L 10943,16491 10839,16545 10839,15414 10943,15414 Z M 10839,14269 L 10839,14167 10943,14113 10943,14269 10839,14269 Z M 10943,14281 L 10943,15402 10839,15402 10839,14281 10943,14281 Z"/>
     <path fill="rgb(106,106,106)" stroke="none" d="M 10943,15402 L 10943,16491 10839,16545 10839,15402 10943,15402 Z M 10839,14281 L 10839,14167 10943,14113 10943,14281 10839,14281 Z M 10943,14293 L 10943,15390 10839,15390 10839,14293 10943,14293 Z"/>
     <path fill="rgb(107,107,107)" stroke="none" d="M 10943,15390 L 10943,16491 10839,16545 10839,15390 10943,15390 Z M 10839,14293 L 10839,14167 10943,14113 10943,14293 10839,14293 Z M 10943,14305 L 10943,15378 10839,15378 10839,14305 10943,14305 Z"/>
     <path fill="rgb(108,108,108)" stroke="none" d="M 10943,15378 L 10943,16491 10839,16545 10839,15378 10943,15378 Z M 10839,14305 L 10839,14167 10943,14113 10943,14305 10839,14305 Z M 10943,14317 L 10943,15366 10839,15366 10839,14317 10943,14317 Z"/>
     <path fill="rgb(109,109,109)" stroke="none" d="M 10943,15366 L 10943,16491 10839,16545 10839,15366 10943,15366 Z M 10839,14317 L 10839,14167 10943,14113 10943,14317 10839,14317 Z M 10943,14329 L 10943,15354 10839,15354 10839,14329 10943,14329 Z"/>
     <path fill="rgb(110,110,110)" stroke="none" d="M 10943,15354 L 10943,16491 10839,16545 10839,15354 10943,15354 Z M 10839,14329 L 10839,14167 10943,14113 10943,14329 10839,14329 Z M 10943,14341 L 10943,15342 10839,15342 10839,14341 10943,14341 Z"/>
     <path fill="rgb(111,111,111)" stroke="none" d="M 10943,15342 L 10943,16491 10839,16545 10839,15342 10943,15342 Z M 10839,14341 L 10839,14167 10943,14113 10943,14341 10839,14341 Z M 10943,14353 L 10943,15330 10839,15330 10839,14353 10943,14353 Z"/>
     <path fill="rgb(112,112,112)" stroke="none" d="M 10943,15330 L 10943,16491 10839,16545 10839,15330 10943,15330 Z M 10839,14353 L 10839,14167 10943,14113 10943,14353 10839,14353 Z M 10943,14365 L 10943,15318 10839,15318 10839,14365 10943,14365 Z"/>
     <path fill="rgb(113,113,113)" stroke="none" d="M 10943,15318 L 10943,16491 10839,16545 10839,15318 10943,15318 Z M 10839,14365 L 10839,14167 10943,14113 10943,14365 10839,14365 Z M 10943,14376 L 10943,15307 10839,15307 10839,14376 10943,14376 Z"/>
     <path fill="rgb(114,114,114)" stroke="none" d="M 10943,15307 L 10943,16491 10839,16545 10839,15307 10943,15307 Z M 10839,14376 L 10839,14167 10943,14113 10943,14376 10839,14376 Z M 10943,14388 L 10943,15295 10839,15295 10839,14388 10943,14388 Z"/>
     <path fill="rgb(115,115,115)" stroke="none" d="M 10943,15295 L 10943,16491 10839,16545 10839,15295 10943,15295 Z M 10839,14388 L 10839,14167 10943,14113 10943,14388 10839,14388 Z M 10943,14400 L 10943,15283 10839,15283 10839,14400 10943,14400 Z"/>
     <path fill="rgb(116,116,116)" stroke="none" d="M 10943,15283 L 10943,16491 10839,16545 10839,15283 10943,15283 Z M 10839,14400 L 10839,14167 10943,14113 10943,14400 10839,14400 Z M 10943,14412 L 10943,15271 10839,15271 10839,14412 10943,14412 Z"/>
     <path fill="rgb(117,117,117)" stroke="none" d="M 10943,15271 L 10943,16491 10839,16545 10839,15271 10943,15271 Z M 10839,14412 L 10839,14167 10943,14113 10943,14412 10839,14412 Z M 10943,14424 L 10943,15259 10839,15259 10839,14424 10943,14424 Z"/>
     <path fill="rgb(118,118,118)" stroke="none" d="M 10943,15259 L 10943,16491 10839,16545 10839,15259 10943,15259 Z M 10839,14424 L 10839,14167 10943,14113 10943,14424 10839,14424 Z M 10943,14436 L 10943,15247 10839,15247 10839,14436 10943,14436 Z"/>
     <path fill="rgb(119,119,119)" stroke="none" d="M 10943,15247 L 10943,16491 10839,16545 10839,15247 10943,15247 Z M 10839,14436 L 10839,14167 10943,14113 10943,14436 10839,14436 Z M 10943,14448 L 10943,15235 10839,15235 10839,14448 10943,14448 Z"/>
     <path fill="rgb(120,120,120)" stroke="none" d="M 10943,15235 L 10943,16491 10839,16545 10839,15235 10943,15235 Z M 10839,14448 L 10839,14167 10943,14113 10943,14448 10839,14448 Z M 10943,14460 L 10943,15223 10839,15223 10839,14460 10943,14460 Z"/>
     <path fill="rgb(121,121,121)" stroke="none" d="M 10943,15223 L 10943,16491 10839,16545 10839,15223 10943,15223 Z M 10839,14460 L 10839,14167 10943,14113 10943,14460 10839,14460 Z M 10943,14472 L 10943,15211 10839,15211 10839,14472 10943,14472 Z"/>
     <path fill="rgb(122,122,122)" stroke="none" d="M 10943,15211 L 10943,16491 10839,16545 10839,15211 10943,15211 Z M 10839,14472 L 10839,14167 10943,14113 10943,14472 10839,14472 Z M 10943,14484 L 10943,15199 10839,15199 10839,14484 10943,14484 Z"/>
     <path fill="rgb(123,123,123)" stroke="none" d="M 10943,15199 L 10943,16491 10839,16545 10839,15199 10943,15199 Z M 10839,14484 L 10839,14167 10943,14113 10943,14484 10839,14484 Z M 10943,14496 L 10943,15187 10839,15187 10839,14496 10943,14496 Z"/>
     <path fill="rgb(124,124,124)" stroke="none" d="M 10943,15187 L 10943,16491 10839,16545 10839,15187 10943,15187 Z M 10839,14496 L 10839,14167 10943,14113 10943,14496 10839,14496 Z M 10943,14508 L 10943,15175 10839,15175 10839,14508 10943,14508 Z"/>
     <path fill="rgb(125,125,125)" stroke="none" d="M 10943,15175 L 10943,16491 10839,16545 10839,15175 10943,15175 Z M 10839,14508 L 10839,14167 10943,14113 10943,14508 10839,14508 Z M 10943,14520 L 10943,15163 10839,15163 10839,14520 10943,14520 Z"/>
     <path fill="rgb(126,126,126)" stroke="none" d="M 10943,15163 L 10943,16491 10839,16545 10839,15163 10943,15163 Z M 10839,14520 L 10839,14167 10943,14113 10943,14520 10839,14520 Z M 10943,14532 L 10943,15151 10839,15151 10839,14532 10943,14532 Z"/>
     <path fill="rgb(127,127,127)" stroke="none" d="M 10943,15151 L 10943,16491 10839,16545 10839,15151 10943,15151 Z M 10839,14532 L 10839,14167 10943,14113 10943,14532 10839,14532 Z M 10943,14544 L 10943,15139 10839,15139 10839,14544 10943,14544 Z"/>
     <path fill="rgb(128,128,128)" stroke="none" d="M 10943,15139 L 10943,16491 10839,16545 10839,15139 10943,15139 Z M 10839,14544 L 10839,14167 10943,14113 10943,14544 10839,14544 Z M 10943,14556 L 10943,15127 10839,15127 10839,14556 10943,14556 Z"/>
     <path fill="rgb(129,129,129)" stroke="none" d="M 10943,15127 L 10943,16491 10839,16545 10839,15127 10943,15127 Z M 10839,14556 L 10839,14167 10943,14113 10943,14556 10839,14556 Z M 10943,14567 L 10943,15116 10839,15116 10839,14567 10943,14567 Z"/>
     <path fill="rgb(130,130,130)" stroke="none" d="M 10943,15116 L 10943,16491 10839,16545 10839,15116 10943,15116 Z M 10839,14567 L 10839,14167 10943,14113 10943,14567 10839,14567 Z M 10943,14579 L 10943,15104 10839,15104 10839,14579 10943,14579 Z"/>
     <path fill="rgb(131,131,131)" stroke="none" d="M 10943,15104 L 10943,16491 10839,16545 10839,15104 10943,15104 Z M 10839,14579 L 10839,14167 10943,14113 10943,14579 10839,14579 Z M 10943,14591 L 10943,15092 10839,15092 10839,14591 10943,14591 Z"/>
     <path fill="rgb(132,132,132)" stroke="none" d="M 10943,15092 L 10943,16491 10839,16545 10839,15092 10943,15092 Z M 10839,14591 L 10839,14167 10943,14113 10943,14591 10839,14591 Z M 10943,14603 L 10943,15080 10839,15080 10839,14603 10943,14603 Z"/>
     <path fill="rgb(133,133,133)" stroke="none" d="M 10943,15080 L 10943,16491 10839,16545 10839,15080 10943,15080 Z M 10839,14603 L 10839,14167 10943,14113 10943,14603 10839,14603 Z M 10943,14615 L 10943,15068 10839,15068 10839,14615 10943,14615 Z"/>
     <path fill="rgb(134,134,134)" stroke="none" d="M 10943,15068 L 10943,16491 10839,16545 10839,15068 10943,15068 Z M 10839,14615 L 10839,14167 10943,14113 10943,14615 10839,14615 Z M 10943,14627 L 10943,15056 10839,15056 10839,14627 10943,14627 Z"/>
     <path fill="rgb(135,135,135)" stroke="none" d="M 10943,15056 L 10943,16491 10839,16545 10839,15056 10943,15056 Z M 10839,14627 L 10839,14167 10943,14113 10943,14627 10839,14627 Z M 10943,14639 L 10943,15044 10839,15044 10839,14639 10943,14639 Z"/>
     <path fill="rgb(136,136,136)" stroke="none" d="M 10943,15044 L 10943,16491 10839,16545 10839,15044 10943,15044 Z M 10839,14639 L 10839,14167 10943,14113 10943,14639 10839,14639 Z M 10943,14651 L 10943,15032 10839,15032 10839,14651 10943,14651 Z"/>
     <path fill="rgb(137,137,137)" stroke="none" d="M 10943,15032 L 10943,16491 10839,16545 10839,15032 10943,15032 Z M 10839,14651 L 10839,14167 10943,14113 10943,14651 10839,14651 Z M 10943,14663 L 10943,15020 10839,15020 10839,14663 10943,14663 Z"/>
     <path fill="rgb(138,138,138)" stroke="none" d="M 10943,15020 L 10943,16491 10839,16545 10839,15020 10943,15020 Z M 10839,14663 L 10839,14167 10943,14113 10943,14663 10839,14663 Z M 10943,14675 L 10943,15008 10839,15008 10839,14675 10943,14675 Z"/>
     <path fill="rgb(139,139,139)" stroke="none" d="M 10943,15008 L 10943,16491 10839,16545 10839,15008 10943,15008 Z M 10839,14675 L 10839,14167 10943,14113 10943,14675 10839,14675 Z M 10943,14687 L 10943,14996 10839,14996 10839,14687 10943,14687 Z"/>
     <path fill="rgb(140,140,140)" stroke="none" d="M 10943,14996 L 10943,16491 10839,16545 10839,14996 10943,14996 Z M 10839,14687 L 10839,14167 10943,14113 10943,14687 10839,14687 Z M 10943,14699 L 10943,14984 10839,14984 10839,14699 10943,14699 Z"/>
     <path fill="rgb(141,141,141)" stroke="none" d="M 10943,14984 L 10943,16491 10839,16545 10839,14984 10943,14984 Z M 10839,14699 L 10839,14167 10943,14113 10943,14699 10839,14699 Z M 10943,14711 L 10943,14972 10839,14972 10839,14711 10943,14711 Z"/>
     <path fill="rgb(142,142,142)" stroke="none" d="M 10943,14972 L 10943,16491 10839,16545 10839,14972 10943,14972 Z M 10839,14711 L 10839,14167 10943,14113 10943,14711 10839,14711 Z M 10943,14723 L 10943,14960 10839,14960 10839,14723 10943,14723 Z"/>
     <path fill="rgb(143,143,143)" stroke="none" d="M 10943,14960 L 10943,16491 10839,16545 10839,14960 10943,14960 Z M 10839,14723 L 10839,14167 10943,14113 10943,14723 10839,14723 Z M 10943,14735 L 10943,14948 10839,14948 10839,14735 10943,14735 Z"/>
     <path fill="rgb(144,144,144)" stroke="none" d="M 10943,14948 L 10943,16491 10839,16545 10839,14948 10943,14948 Z M 10839,14735 L 10839,14167 10943,14113 10943,14735 10839,14735 Z M 10943,14747 L 10943,14936 10839,14936 10839,14747 10943,14747 Z"/>
     <path fill="rgb(145,145,145)" stroke="none" d="M 10943,14936 L 10943,16491 10839,16545 10839,14936 10943,14936 Z M 10839,14747 L 10839,14167 10943,14113 10943,14747 10839,14747 Z M 10943,14758 L 10943,14925 10839,14925 10839,14758 10943,14758 Z"/>
     <path fill="rgb(146,146,146)" stroke="none" d="M 10943,14925 L 10943,16491 10839,16545 10839,14925 10943,14925 Z M 10839,14758 L 10839,14167 10943,14113 10943,14758 10839,14758 Z M 10941,14770 L 10941,14913 10839,14913 10839,14770 10941,14770 Z"/>
     <path fill="rgb(147,147,147)" stroke="none" d="M 10941,14913 L 10941,14770 10839,14770 10839,14167 10943,14113 10943,16491 10839,16545 10839,14913 10941,14913 Z M 10929,14782 L 10929,14901 10839,14901 10839,14782 10929,14782 Z"/>
     <path fill="rgb(148,148,148)" stroke="none" d="M 10929,14901 L 10929,14782 10839,14782 10839,14167 10943,14113 10943,16491 10839,16545 10839,14901 10929,14901 Z M 10917,14794 L 10917,14889 10839,14889 10839,14794 10917,14794 Z"/>
     <path fill="rgb(149,149,149)" stroke="none" d="M 10917,14889 L 10917,14794 10839,14794 10839,14167 10943,14113 10943,16491 10839,16545 10839,14889 10917,14889 Z M 10905,14806 L 10905,14877 10839,14877 10839,14806 10905,14806 Z"/>
     <path fill="rgb(150,150,150)" stroke="none" d="M 10905,14877 L 10905,14806 10839,14806 10839,14167 10943,14113 10943,16491 10839,16545 10839,14877 10905,14877 Z M 10846,14818 L 10893,14818 10893,14865 10846,14865 10846,14818 Z"/>
     <path fill="rgb(151,151,151)" stroke="none" d="M 10846,14818 L 10846,14865 10893,14865 10893,14818 10846,14818 Z M 10858,14830 L 10881,14830 10881,14853 10858,14853 10858,14830 Z M 10839,16545 L 10839,14167 10943,14113 10943,16491 10839,16545 Z"/>
     <path fill="rgb(153,153,153)" stroke="none" d="M 10858,14830 L 10858,14853 10881,14853 10881,14830 10858,14830 Z M 10839,16545 L 10839,14167 10943,14113 10943,16491 10839,16545 Z"/>
     <path fill="none" stroke="rgb(178,178,178)" id="Drawing_5_0" stroke-width="40" stroke-linejoin="round" d="M 10839,16545 L 10839,14167 10943,14113 10943,16491 10839,16545 Z"/>
    </g>
    <g>
     <path fill="none" stroke="rgb(0,0,0)" id="Drawing_6_0" stroke-width="40" stroke-linejoin="round" d="M 9821,13465 L 10943,14113 10943,16491 10839,16545 9717,15897 9717,13519 9821,13465 Z"/>
    </g>
   </g>
  </g>
 </g>
</svg>