<?xml version="1.0" encoding="UTF-8"?>

<svg version="1.2" baseProfile="tiny" width="15.46mm" height="31.2mm" viewBox="5766 5999 1546 3120" preserveAspectRatio="xMidYMid" fill-rule="evenodd" stroke-width="28.222" stroke-linejoin="round" xmlns="http://www.w3.org/2000/svg" xmlns:xlink="http://www.w3.org/1999/xlink" xml:space="preserve">
 <g visibility="visible" id="Slide_1">
  <g id="DrawingGroup_1">
   <g>
    <path fill="rgb(221,221,221)" stroke="none" d="M 6912,9099 C 7169,9099 7292,8991 7292,8883 7292,8775 7199,8721 7012,8721 7012,8883 6815,8559 6912,9099 Z"/>
    <path fill="none" stroke="rgb(221,221,221)" id="Drawing_1_0" stroke-width="40" stroke-linejoin="round" d="M 6912,9099 C 7169,9099 7292,8991 7292,8883 7292,8775 7199,8721 7012,8721 7012,8883 6815,8559 6912,9099 Z"/>
   </g>
   <g id="DrawingGroup_2">
    <g>
     <defs>
      <linearGradient id="Gradient_124" gradientUnits="userSpaceOnUse" x1="5783" y1="7585" x2="6911" y2="7587">
       <stop offset="0.1" stop-color="rgb(179,179,179)"/>
       <stop offset="1" stop-color="rgb(229,229,229)"/>
      </linearGradient>
     </defs>
     <path fill="url(#Gradient_124)" stroke="rgb(255,255,255)" id="Drawing_2_0" stroke-width="40" stroke-linejoin="round" d="M 5786,8451 L 5786,6073 6908,6721 6908,9099 5786,8451 Z"/>
    </g>
    <g>
     <defs>
      <linearGradient id="Gradient_125" gradientUnits="userSpaceOnUse" x1="5876" y1="7585" x2="6815" y2="7587">
       <stop offset="0.1" stop-color="rgb(147,212,240)"/>
       <stop offset="1" stop-color="rgb(233,246,252)"/>
      </linearGradient>
     </defs>
     <path fill="url(#Gradient_125)" stroke="rgb(127,127,127)" id="Drawing_3_0" stroke-width="40" stroke-linejoin="round" d="M 5879,8396 L 5879,6235 6814,6775 6814,8937 5879,8396 Z"/>
    </g>
    <g>
     <defs>
      <linearGradient id="Gradient_126" gradientUnits="userSpaceOnUse" x1="6399" y1="6019" x2="6399" y2="6721">
       <stop offset="0.1" stop-color="rgb(179,179,179)"/>
       <stop offset="1" stop-color="rgb(229,229,229)"/>
      </linearGradient>
     </defs>
     <path fill="url(#Gradient_126)" stroke="rgb(255,255,255)" id="Drawing_4_0" stroke-width="40" stroke-linejoin="round" d="M 6908,6721 L 5786,6073 5890,6019 7012,6667 6908,6721 Z"/>
    </g>
    <g>
     <path fill="rgb(179,179,179)" stroke="none" d="M 6908,8588 L 6908,6721 7012,6667 7012,8588 6908,8588 Z"/>
     <path fill="rgb(180,180,180)" stroke="none" d="M 7012,8588 L 7012,9045 6908,9099 6908,8588 7012,8588 Z M 6908,8564 L 6908,6721 7012,6667 7012,8564 6908,8564 Z"/>
     <path fill="rgb(181,181,181)" stroke="none" d="M 7012,8564 L 7012,9045 6908,9099 6908,8564 7012,8564 Z M 6908,8539 L 6908,6721 7012,6667 7012,8539 6908,8539 Z"/>
     <path fill="rgb(182,182,182)" stroke="none" d="M 7012,8539 L 7012,9045 6908,9099 6908,8539 7012,8539 Z M 6908,8515 L 6908,6721 7012,6667 7012,8515 6908,8515 Z"/>
     <path fill="rgb(183,183,183)" stroke="none" d="M 7012,8515 L 7012,9045 6908,9099 6908,8515 7012,8515 Z M 6908,8491 L 6908,6721 7012,6667 7012,8491 6908,8491 Z"/>
     <path fill="rgb(184,184,184)" stroke="none" d="M 7012,8491 L 7012,9045 6908,9099 6908,8491 7012,8491 Z M 6908,8466 L 6908,6721 7012,6667 7012,8466 6908,8466 Z"/>
     <path fill="rgb(185,185,185)" stroke="none" d="M 7012,8466 L 7012,9045 6908,9099 6908,8466 7012,8466 Z M 6908,8442 L 6908,6721 7012,6667 7012,8442 6908,8442 Z"/>
     <path fill="rgb(186,186,186)" stroke="none" d="M 7012,8442 L 7012,9045 6908,9099 6908,8442 7012,8442 Z M 6908,8418 L 6908,6721 7012,6667 7012,8418 6908,8418 Z"/>
     <path fill="rgb(187,187,187)" stroke="none" d="M 7012,8418 L 7012,9045 6908,9099 6908,8418 7012,8418 Z M 6908,8393 L 6908,6721 7012,6667 7012,8393 6908,8393 Z"/>
     <path fill="rgb(188,188,188)" stroke="none" d="M 7012,8393 L 7012,9045 6908,9099 6908,8393 7012,8393 Z M 6908,8369 L 6908,6721 7012,6667 7012,8369 6908,8369 Z"/>
     <path fill="rgb(189,189,189)" stroke="none" d="M 7012,8369 L 7012,9045 6908,9099 6908,8369 7012,8369 Z M 6908,8345 L 6908,6721 7012,6667 7012,8345 6908,8345 Z"/>
     <path fill="rgb(190,190,190)" stroke="none" d="M 7012,8345 L 7012,9045 6908,9099 6908,8345 7012,8345 Z M 6908,8320 L 6908,6721 7012,6667 7012,8320 6908,8320 Z"/>
     <path fill="rgb(191,191,191)" stroke="none" d="M 7012,8320 L 7012,9045 6908,9099 6908,8320 7012,8320 Z M 6908,8296 L 6908,6721 7012,6667 7012,8296 6908,8296 Z"/>
     <path fill="rgb(192,192,192)" stroke="none" d="M 7012,8296 L 7012,9045 6908,9099 6908,8296 7012,8296 Z M 6908,8272 L 6908,6721 7012,6667 7012,8272 6908,8272 Z"/>
     <path fill="rgb(193,193,193)" stroke="none" d="M 7012,8272 L 7012,9045 6908,9099 6908,8272 7012,8272 Z M 6908,8247 L 6908,6721 7012,6667 7012,8247 6908,8247 Z"/>
     <path fill="rgb(194,194,194)" stroke="none" d="M 7012,8247 L 7012,9045 6908,9099 6908,8247 7012,8247 Z M 6908,8223 L 6908,6721 7012,6667 7012,8223 6908,8223 Z"/>
     <path fill="rgb(195,195,195)" stroke="none" d="M 7012,8223 L 7012,9045 6908,9099 6908,8223 7012,8223 Z M 6908,8199 L 6908,6721 7012,6667 7012,8199 6908,8199 Z"/>
     <path fill="rgb(196,196,196)" stroke="none" d="M 7012,8199 L 7012,9045 6908,9099 6908,8199 7012,8199 Z M 6908,8174 L 6908,6721 7012,6667 7012,8174 6908,8174 Z"/>
     <path fill="rgb(197,197,197)" stroke="none" d="M 7012,8174 L 7012,9045 6908,9099 6908,8174 7012,8174 Z M 6908,8150 L 6908,6721 7012,6667 7012,8150 6908,8150 Z"/>
     <path fill="rgb(198,198,198)" stroke="none" d="M 7012,8150 L 7012,9045 6908,9099 6908,8150 7012,8150 Z M 6908,8126 L 6908,6721 7012,6667 7012,8126 6908,8126 Z"/>
     <path fill="rgb(199,199,199)" stroke="none" d="M 7012,8126 L 7012,9045 6908,9099 6908,8126 7012,8126 Z M 7012,6690 L 7012,8101 6908,8101 6908,6721 6968,6690 7012,6690 Z"/>
     <path fill="rgb(200,200,200)" stroke="none" d="M 7012,8101 L 7012,9045 6908,9099 6908,8101 7012,8101 Z M 6968,6690 L 7012,6667 7012,6690 6968,6690 Z M 7012,6714 L 7012,8077 6908,8077 6908,6721 6921,6714 7012,6714 Z"/>
     <path fill="rgb(201,201,201)" stroke="none" d="M 7012,8077 L 7012,9045 6908,9099 6908,8077 7012,8077 Z M 6921,6714 L 7012,6667 7012,6714 6921,6714 Z M 7012,6739 L 7012,8052 6908,8052 6908,6739 7012,6739 Z"/>
     <path fill="rgb(202,202,202)" stroke="none" d="M 7012,8052 L 7012,9045 6908,9099 6908,8052 7012,8052 Z M 6908,6739 L 6908,6721 7012,6667 7012,6739 6908,6739 Z M 7012,6763 L 7012,8028 6908,8028 6908,6763 7012,6763 Z"/>
     <path fill="rgb(203,203,203)" stroke="none" d="M 7012,8028 L 7012,9045 6908,9099 6908,8028 7012,8028 Z M 6908,6763 L 6908,6721 7012,6667 7012,6763 6908,6763 Z M 7012,6787 L 7012,8004 6908,8004 6908,6787 7012,6787 Z"/>
     <path fill="rgb(204,204,204)" stroke="none" d="M 7012,8004 L 7012,9045 6908,9099 6908,8004 7012,8004 Z M 6908,6787 L 6908,6721 7012,6667 7012,6787 6908,6787 Z M 7012,6812 L 7012,7979 6908,7979 6908,6812 7012,6812 Z"/>
     <path fill="rgb(205,205,205)" stroke="none" d="M 7012,7979 L 7012,9045 6908,9099 6908,7979 7012,7979 Z M 6908,6812 L 6908,6721 7012,6667 7012,6812 6908,6812 Z M 7012,6836 L 7012,7955 6908,7955 6908,6836 7012,6836 Z"/>
     <path fill="rgb(206,206,206)" stroke="none" d="M 7012,7955 L 7012,9045 6908,9099 6908,7955 7012,7955 Z M 6908,6836 L 6908,6721 7012,6667 7012,6836 6908,6836 Z M 7012,6860 L 7012,7931 6908,7931 6908,6860 7012,6860 Z"/>
     <path fill="rgb(207,207,207)" stroke="none" d="M 7012,7931 L 7012,9045 6908,9099 6908,7931 7012,7931 Z M 6908,6860 L 6908,6721 7012,6667 7012,6860 6908,6860 Z M 7012,6885 L 7012,7906 6908,7906 6908,6885 7012,6885 Z"/>
     <path fill="rgb(208,208,208)" stroke="none" d="M 7012,7906 L 7012,9045 6908,9099 6908,7906 7012,7906 Z M 6908,6885 L 6908,6721 7012,6667 7012,6885 6908,6885 Z M 7012,6909 L 7012,7882 6908,7882 6908,6909 7012,6909 Z"/>
     <path fill="rgb(209,209,209)" stroke="none" d="M 7012,7882 L 7012,9045 6908,9099 6908,7882 7012,7882 Z M 6908,6909 L 6908,6721 7012,6667 7012,6909 6908,6909 Z M 7012,6933 L 7012,7858 6908,7858 6908,6933 7012,6933 Z"/>
     <path fill="rgb(210,210,210)" stroke="none" d="M 7012,7858 L 7012,9045 6908,9099 6908,7858 7012,7858 Z M 6908,6933 L 6908,6721 7012,6667 7012,6933 6908,6933 Z M 7012,6958 L 7012,7833 6908,7833 6908,6958 7012,6958 Z"/>
     <path fill="rgb(211,211,211)" stroke="none" d="M 7012,7833 L 7012,9045 6908,9099 6908,7833 7012,7833 Z M 6908,6958 L 6908,6721 7012,6667 7012,6958 6908,6958 Z M 7012,6982 L 7012,7809 6908,7809 6908,6982 7012,6982 Z"/>
     <path fill="rgb(212,212,212)" stroke="none" d="M 7012,7809 L 7012,9045 6908,9099 6908,7809 7012,7809 Z M 6908,6982 L 6908,6721 7012,6667 7012,6982 6908,6982 Z M 7012,7006 L 7012,7785 6908,7785 6908,7006 7012,7006 Z"/>
     <path fill="rgb(213,213,213)" stroke="none" d="M 7012,7785 L 7012,9045 6908,9099 6908,7785 7012,7785 Z M 6908,7006 L 6908,6721 7012,6667 7012,7006 6908,7006 Z M 7012,7031 L 7012,7760 6908,7760 6908,7031 7012,7031 Z"/>
     <path fill="rgb(214,214,214)" stroke="none" d="M 7012,7760 L 7012,9045 6908,9099 6908,7760 7012,7760 Z M 6908,7031 L 6908,6721 7012,6667 7012,7031 6908,7031 Z M 7012,7055 L 7012,7736 6908,7736 6908,7055 7012,7055 Z"/>
     <path fill="rgb(215,215,215)" stroke="none" d="M 7012,7736 L 7012,9045 6908,9099 6908,7736 7012,7736 Z M 6908,7055 L 6908,6721 7012,6667 7012,7055 6908,7055 Z M 7012,7079 L 7012,7712 6908,7712 6908,7079 7012,7079 Z"/>
     <path fill="rgb(216,216,216)" stroke="none" d="M 7012,7712 L 7012,9045 6908,9099 6908,7712 7012,7712 Z M 6908,7079 L 6908,6721 7012,6667 7012,7079 6908,7079 Z M 7012,7104 L 7012,7687 6908,7687 6908,7104 7012,7104 Z"/>
     <path fill="rgb(217,217,217)" stroke="none" d="M 7012,7687 L 7012,9045 6908,9099 6908,7687 7012,7687 Z M 6908,7104 L 6908,6721 7012,6667 7012,7104 6908,7104 Z M 7012,7128 L 7012,7663 6908,7663 6908,7128 7012,7128 Z"/>
     <path fill="rgb(218,218,218)" stroke="none" d="M 7012,7663 L 7012,9045 6908,9099 6908,7663 7012,7663 Z M 6908,7128 L 6908,6721 7012,6667 7012,7128 6908,7128 Z M 7012,7153 L 7012,7639 6908,7639 6908,7153 7012,7153 Z"/>
     <path fill="rgb(219,219,219)" stroke="none" d="M 7012,7639 L 7012,9045 6908,9099 6908,7639 7012,7639 Z M 6908,7153 L 6908,6721 7012,6667 7012,7153 6908,7153 Z M 7012,7177 L 7012,7614 6908,7614 6908,7177 7012,7177 Z"/>
     <path fill="rgb(220,220,220)" stroke="none" d="M 7012,7614 L 7012,9045 6908,9099 6908,7614 7012,7614 Z M 6908,7177 L 6908,6721 7012,6667 7012,7177 6908,7177 Z M 7012,7201 L 7012,7590 6908,7590 6908,7201 7012,7201 Z"/>
     <path fill="rgb(221,221,221)" stroke="none" d="M 7012,7590 L 7012,9045 6908,9099 6908,7590 7012,7590 Z M 6908,7201 L 6908,6721 7012,6667 7012,7201 6908,7201 Z M 7012,7226 L 7012,7565 6908,7565 6908,7226 7012,7226 Z"/>
     <path fill="rgb(222,222,222)" stroke="none" d="M 7012,7565 L 7012,9045 6908,9099 6908,7565 7012,7565 Z M 6908,7226 L 6908,6721 7012,6667 7012,7226 6908,7226 Z M 7012,7250 L 7012,7541 6908,7541 6908,7250 7012,7250 Z"/>
     <path fill="rgb(223,223,223)" stroke="none" d="M 7012,7541 L 7012,9045 6908,9099 6908,7541 7012,7541 Z M 6908,7250 L 6908,6721 7012,6667 7012,7250 6908,7250 Z M 7012,7274 L 7012,7517 6908,7517 6908,7274 7012,7274 Z"/>
     <path fill="rgb(224,224,224)" stroke="none" d="M 7012,7517 L 7012,9045 6908,9099 6908,7517 7012,7517 Z M 6908,7274 L 6908,6721 7012,6667 7012,7274 6908,7274 Z M 7012,7299 L 7012,7492 6908,7492 6908,7299 7012,7299 Z"/>
     <path fill="rgb(225,225,225)" stroke="none" d="M 7012,7492 L 7012,9045 6908,9099 6908,7492 7012,7492 Z M 6908,7299 L 6908,6721 7012,6667 7012,7299 6908,7299 Z M 7011,7323 L 7011,7468 6908,7468 6908,7323 7011,7323 Z"/>
     <path fill="rgb(226,226,226)" stroke="none" d="M 7011,7468 L 7011,7323 6908,7323 6908,6721 7012,6667 7012,9045 6908,9099 6908,7468 7011,7468 Z M 6987,7347 L 6987,7444 6908,7444 6908,7347 6987,7347 Z"/>
     <path fill="rgb(227,227,227)" stroke="none" d="M 6987,7444 L 6987,7347 6908,7347 6908,6721 7012,6667 7012,9045 6908,9099 6908,7444 6987,7444 Z M 6915,7372 L 6962,7372 6962,7419 6915,7419 6915,7372 Z"/>
     <path fill="rgb(229,229,229)" stroke="none" d="M 6915,7372 L 6915,7419 6962,7419 6962,7372 6915,7372 Z M 6908,9099 L 6908,6721 7012,6667 7012,9045 6908,9099 Z"/>
     <path fill="none" stroke="rgb(255,255,255)" id="Drawing_5_0" stroke-width="40" stroke-linejoin="round" d="M 6908,9099 L 6908,6721 7012,6667 7012,9045 6908,9099 Z"/>
    </g>
    <g>
     <path fill="none" stroke="rgb(0,0,0)" id="Drawing_6_0" stroke-width="40" stroke-linejoin="round" d="M 5890,6019 L 7012,6667 7012,9045 6908,9099 5786,8451 5786,6073 5890,6019 Z"/>
    </g>
   </g>
  </g>
 </g>
</svg>