<?xml version="1.0" encoding="UTF-8"?>

<svg version="1.2" baseProfile="tiny" width="21.65mm" height="31.9mm" viewBox="11694 4830 2165 3190" preserveAspectRatio="xMidYMid" fill-rule="evenodd" stroke-width="28.222" stroke-linejoin="round" xmlns="http://www.w3.org/2000/svg" xmlns:xlink="http://www.w3.org/1999/xlink" xml:space="preserve">
 <g visibility="visible" id="Slide_1">
  <g id="DrawingGroup_1">
   <g>
    <path fill="rgb(221,221,221)" stroke="none" d="M 12562,8000 C 12943,8000 13290,7790 13654,7580 14018,7370 13775,7020 13532,7020 13547,7051 12562,8000 12562,8000 Z"/>
    <path fill="none" stroke="rgb(221,221,221)" id="Drawing_1_0" stroke-width="40" stroke-linejoin="round" d="M 12562,8000 C 12943,8000 13290,7790 13654,7580 14018,7370 13775,7020 13532,7020 13547,7051 12562,8000 12562,8000 Z"/>
   </g>
   <g id="DrawingGroup_2">
    <g>
     <defs>
      <linearGradient id="Gradient_92" gradientUnits="userSpaceOnUse" x1="12623" y1="4850" x2="12623" y2="5900">
       <stop offset="0.1" stop-color="rgb(51,51,51)"/>
       <stop offset="1" stop-color="rgb(153,153,153)"/>
      </linearGradient>
     </defs>
     <path fill="url(#Gradient_92)" stroke="rgb(178,178,178)" id="Drawing_2_0" stroke-width="40" stroke-linejoin="round" d="M 12077,5900 L 11714,5690 13169,4850 13532,5060 12077,5900 Z"/>
    </g>
    <g>
     <path fill="rgb(57,181,74)" stroke="none" d="M 11852,6268 L 11852,6027 11991,6107 11991,6348 11852,6268 Z"/>
     <path fill="none" stroke="rgb(51,51,51)" id="Drawing_3_0" stroke-width="40" stroke-linejoin="round" d="M 11852,6268 L 11852,6027 11991,6107 11991,6348 11852,6268 Z"/>
    </g>
    <g>
     <defs>
      <linearGradient id="Gradient_93" gradientUnits="userSpaceOnUse" x1="11954" y1="7754" x2="12561" y2="7756">
       <stop offset="0.1" stop-color="rgb(51,51,51)"/>
       <stop offset="1" stop-color="rgb(153,153,153)"/>
      </linearGradient>
     </defs>
     <path fill="url(#Gradient_93)" stroke="rgb(178,178,178)" id="Drawing_4_0" stroke-width="40" stroke-linejoin="round" d="M 11955,7650 L 11955,7510 12562,7860 12562,8000 11955,7650 Z"/>
    </g>
    <g>
     <defs>
      <linearGradient id="Gradient_94" gradientUnits="userSpaceOnUse" x1="11711" y1="6845" x2="12078" y2="6845">
       <stop offset="0.1" stop-color="rgb(51,51,51)"/>
       <stop offset="1" stop-color="rgb(153,153,153)"/>
      </linearGradient>
     </defs>
     <path fill="url(#Gradient_94)" stroke="rgb(178,178,178)" id="Drawing_5_0" stroke-width="40" stroke-linejoin="round" d="M 11714,7790 L 11714,5690 12077,5900 12077,8000 11714,7790 Z"/>
    </g>
    <g>
     <path fill="rgb(51,51,51)" stroke="none" d="M 13231,7614 L 12609,7973 12562,7973 12561,7860 13231,7474 13231,7614 Z"/>
     <path fill="rgb(53,53,53)" stroke="none" d="M 12609,7973 L 12562,8000 12562,7973 12609,7973 Z M 13231,7474 L 13411,7370 13412,7510 13231,7614 13231,7474 Z M 13221,7620 L 12626,7963 12562,7963 12561,7860 13221,7480 13221,7620 Z"/>
     <path fill="rgb(55,55,55)" stroke="none" d="M 12626,7963 L 12562,8000 12562,7963 12626,7963 Z M 13221,7480 L 13411,7370 13412,7510 13221,7620 13221,7480 Z M 13211,7626 L 12644,7953 12562,7953 12561,7860 13211,7485 13211,7626 Z"/>
     <path fill="rgb(58,58,58)" stroke="none" d="M 12644,7953 L 12562,8000 12562,7953 12644,7953 Z M 13211,7485 L 13411,7370 13412,7510 13211,7626 13211,7485 Z M 13201,7632 L 12661,7943 12562,7943 12561,7860 13201,7491 13201,7632 Z"/>
     <path fill="rgb(60,60,60)" stroke="none" d="M 12661,7943 L 12562,8000 12562,7943 12661,7943 Z M 13201,7491 L 13411,7370 13412,7510 13201,7632 13201,7491 Z M 13191,7637 L 12678,7933 12562,7933 12561,7860 13191,7497 13191,7637 Z"/>
     <path fill="rgb(63,63,63)" stroke="none" d="M 12678,7933 L 12562,8000 12562,7933 12678,7933 Z M 13191,7497 L 13411,7370 13412,7510 13191,7637 13191,7497 Z M 13181,7643 L 12696,7923 12561,7923 12561,7860 13181,7503 13181,7643 Z"/>
     <path fill="rgb(65,65,65)" stroke="none" d="M 12696,7923 L 12562,8000 12561,7923 12696,7923 Z M 13181,7503 L 13411,7370 13412,7510 13181,7643 13181,7503 Z M 13170,7650 L 12715,7912 12561,7912 12561,7860 13170,7509 13170,7650 Z"/>
     <path fill="rgb(68,68,68)" stroke="none" d="M 12715,7912 L 12562,8000 12561,7912 12715,7912 Z M 13170,7509 L 13411,7370 13412,7510 13170,7650 13170,7509 Z M 13160,7655 L 12732,7902 12561,7902 12561,7860 13160,7515 13160,7655 Z"/>
     <path fill="rgb(70,70,70)" stroke="none" d="M 12732,7902 L 12562,8000 12561,7902 12732,7902 Z M 13160,7515 L 13411,7370 13412,7510 13160,7655 13160,7515 Z M 13150,7661 L 12749,7892 12561,7892 12561,7860 13150,7520 13150,7661 Z"/>
     <path fill="rgb(72,72,72)" stroke="none" d="M 12749,7892 L 12562,8000 12561,7892 12749,7892 Z M 13150,7520 L 13411,7370 13412,7510 13150,7661 13150,7520 Z M 13140,7667 L 12767,7882 12561,7882 12561,7860 13140,7526 13140,7667 Z"/>
     <path fill="rgb(75,75,75)" stroke="none" d="M 12767,7882 L 12562,8000 12561,7882 12767,7882 Z M 13140,7526 L 13411,7370 13412,7510 13140,7667 13140,7526 Z M 13130,7673 L 12784,7872 12561,7872 12561,7860 13130,7532 13130,7673 Z"/>
     <path fill="rgb(77,77,77)" stroke="none" d="M 12784,7872 L 12562,8000 12561,7872 12784,7872 Z M 13130,7532 L 13411,7370 13412,7510 13130,7673 13130,7532 Z M 13120,7678 L 12801,7862 12561,7862 12561,7860 13120,7538 13120,7678 Z"/>
     <path fill="rgb(80,80,80)" stroke="none" d="M 12801,7862 L 12562,8000 12561,7862 12801,7862 Z M 13120,7538 L 13411,7370 13412,7510 13120,7678 13120,7538 Z M 13109,7685 L 12820,7851 12577,7851 13109,7544 13109,7685 Z"/>
     <path fill="rgb(82,82,82)" stroke="none" d="M 12820,7851 L 12562,8000 12561,7860 12577,7851 12820,7851 Z M 13109,7544 L 13411,7370 13412,7510 13109,7685 13109,7544 Z M 13099,7690 L 12838,7841 12594,7841 13099,7550 13099,7690 Z"/>
     <path fill="rgb(85,85,85)" stroke="none" d="M 12838,7841 L 12562,8000 12561,7860 12594,7841 12838,7841 Z M 13099,7550 L 13411,7370 13412,7510 13099,7690 13099,7550 Z M 13089,7696 L 12855,7831 12611,7831 13089,7556 13089,7696 Z"/>
     <path fill="rgb(87,87,87)" stroke="none" d="M 12855,7831 L 12562,8000 12561,7860 12611,7831 12855,7831 Z M 13089,7556 L 13411,7370 13412,7510 13089,7696 13089,7556 Z M 13079,7702 L 12873,7821 12629,7821 13079,7561 13079,7702 Z"/>
     <path fill="rgb(89,89,89)" stroke="none" d="M 12873,7821 L 12562,8000 12561,7860 12629,7821 12873,7821 Z M 13079,7561 L 13411,7370 13412,7510 13079,7702 13079,7561 Z M 13069,7708 L 12890,7811 12646,7811 13069,7567 13069,7708 Z"/>
     <path fill="rgb(92,92,92)" stroke="none" d="M 12890,7811 L 12562,8000 12561,7860 12646,7811 12890,7811 Z M 13069,7567 L 13411,7370 13412,7510 13069,7708 13069,7567 Z M 13059,7713 L 12907,7801 12663,7801 13059,7573 13059,7713 Z"/>
     <path fill="rgb(94,94,94)" stroke="none" d="M 12907,7801 L 12562,8000 12561,7860 12663,7801 12907,7801 Z M 13059,7573 L 13411,7370 13412,7510 13059,7713 13059,7573 Z M 13048,7720 L 12926,7790 12682,7790 13048,7579 13048,7720 Z"/>
     <path fill="rgb(97,97,97)" stroke="none" d="M 12926,7790 L 12562,8000 12561,7860 12682,7790 12926,7790 Z M 13048,7579 L 13411,7370 13412,7510 13048,7720 13048,7579 Z M 13038,7726 L 12944,7780 12700,7780 13038,7585 13038,7726 Z"/>
     <path fill="rgb(99,99,99)" stroke="none" d="M 12944,7780 L 12562,8000 12561,7860 12700,7780 12944,7780 Z M 13038,7585 L 13411,7370 13412,7510 13038,7726 13038,7585 Z M 13028,7731 L 12961,7770 12717,7770 13028,7591 13028,7731 Z"/>
     <path fill="rgb(102,102,102)" stroke="none" d="M 12961,7770 L 12562,8000 12561,7860 12717,7770 12961,7770 Z M 13028,7591 L 13411,7370 13412,7510 13028,7731 13028,7591 Z M 13018,7737 L 12978,7760 12734,7760 13018,7597 13018,7737 Z"/>
     <path fill="rgb(104,104,104)" stroke="none" d="M 12978,7760 L 12562,8000 12561,7860 12734,7760 12978,7760 Z M 13018,7597 L 13411,7370 13412,7510 13018,7737 13018,7597 Z M 13008,7743 L 12996,7750 12752,7750 13008,7602 13008,7743 Z"/>
     <path fill="rgb(106,106,106)" stroke="none" d="M 12996,7750 L 12562,8000 12561,7860 12752,7750 12996,7750 Z M 13008,7602 L 13411,7370 13412,7510 13008,7743 13008,7602 Z M 12998,7740 L 12769,7740 12998,7608 12998,7740 Z"/>
     <path fill="rgb(109,109,109)" stroke="none" d="M 12998,7740 L 12998,7608 13411,7370 13412,7510 12562,8000 12561,7860 12769,7740 12998,7740 Z M 12987,7729 L 12788,7729 12987,7614 12987,7729 Z"/>
     <path fill="rgb(111,111,111)" stroke="none" d="M 12987,7729 L 12987,7614 13411,7370 13412,7510 12562,8000 12561,7860 12788,7729 12987,7729 Z M 12977,7719 L 12806,7719 12977,7620 12977,7719 Z"/>
     <path fill="rgb(114,114,114)" stroke="none" d="M 12977,7719 L 12977,7620 13411,7370 13412,7510 12562,8000 12561,7860 12806,7719 12977,7719 Z M 12967,7709 L 12823,7709 12967,7626 12967,7709 Z"/>
     <path fill="rgb(116,116,116)" stroke="none" d="M 12967,7709 L 12967,7626 13411,7370 13412,7510 12562,8000 12561,7860 12823,7709 12967,7709 Z M 12957,7699 L 12840,7699 12957,7632 12957,7699 Z"/>
     <path fill="rgb(119,119,119)" stroke="none" d="M 12957,7699 L 12957,7632 13411,7370 13412,7510 12562,8000 12561,7860 12840,7699 12957,7699 Z M 12947,7689 L 12858,7689 12947,7637 12947,7689 Z"/>
     <path fill="rgb(121,121,121)" stroke="none" d="M 12947,7689 L 12947,7637 13411,7370 13412,7510 12562,8000 12561,7860 12858,7689 12947,7689 Z M 12937,7679 L 12875,7679 12937,7643 12937,7679 Z"/>
     <path fill="rgb(123,123,123)" stroke="none" d="M 12937,7679 L 12937,7643 13411,7370 13412,7510 12562,8000 12561,7860 12875,7679 12937,7679 Z M 12926,7668 L 12894,7668 12926,7650 12926,7668 Z"/>
     <path fill="rgb(126,126,126)" stroke="none" d="M 12926,7668 L 12926,7650 13411,7370 13412,7510 12562,8000 12561,7860 12894,7668 12926,7668 Z M 12916,7658 L 12911,7658 12916,7655 12916,7658 Z"/>
     <path fill="rgb(128,128,128)" stroke="none" d="M 12916,7658 L 12916,7655 13411,7370 13412,7510 12562,8000 12561,7860 12911,7658 12916,7658 Z"/>
     <path fill="rgb(131,131,131)" stroke="none" d="M 12562,8000 L 12561,7860 13411,7370 13412,7510 12562,8000 Z"/>
     <path fill="rgb(133,133,133)" stroke="none" d="M 12562,8000 L 12561,7860 13411,7370 13412,7510 12562,8000 Z"/>
     <path fill="rgb(136,136,136)" stroke="none" d="M 12562,8000 L 12561,7860 13411,7370 13412,7510 12562,8000 Z"/>
     <path fill="rgb(138,138,138)" stroke="none" d="M 12562,8000 L 12561,7860 13411,7370 13412,7510 12562,8000 Z"/>
     <path fill="rgb(140,140,140)" stroke="none" d="M 12562,8000 L 12561,7860 13411,7370 13412,7510 12562,8000 Z"/>
     <path fill="rgb(143,143,143)" stroke="none" d="M 12562,8000 L 12561,7860 13411,7370 13412,7510 12562,8000 Z"/>
     <path fill="rgb(145,145,145)" stroke="none" d="M 12562,8000 L 12561,7860 13411,7370 13412,7510 12562,8000 Z"/>
     <path fill="rgb(148,148,148)" stroke="none" d="M 12562,8000 L 12561,7860 13411,7370 13412,7510 12562,8000 Z"/>
     <path fill="rgb(153,153,153)" stroke="none" d="M 12562,8000 L 12561,7860 13411,7370 13412,7510 12562,8000 Z"/>
     <path fill="none" stroke="rgb(178,178,178)" id="Drawing_6_0" stroke-width="40" stroke-linejoin="round" d="M 12562,8000 L 12561,7860 13411,7370 13412,7510 12562,8000 Z"/>
    </g>
    <g>
     <defs>
      <linearGradient id="Gradient_95" gradientUnits="userSpaceOnUse" x1="12865" y1="7230" x2="12865" y2="7860">
       <stop offset="0.1" stop-color="rgb(51,51,51)"/>
       <stop offset="1" stop-color="rgb(153,153,153)"/>
      </linearGradient>
     </defs>
     <path fill="url(#Gradient_95)" stroke="rgb(178,178,178)" id="Drawing_7_0" stroke-width="40" stroke-linejoin="round" d="M 12562,7860 L 12320,7720 13169,7230 13411,7370 12562,7860 Z"/>
    </g>
    <g>
     <path fill="rgb(51,51,51)" stroke="none" d="M 12077,7397 L 12077,5900 13532,5060 13532,7160 13121,7397 12077,7397 Z"/>
     <path fill="rgb(52,52,52)" stroke="none" d="M 13121,7397 L 12077,8000 12077,7397 13121,7397 Z M 12077,7383 L 12077,5900 13532,5060 13532,7160 13146,7383 12077,7383 Z"/>
     <path fill="rgb(53,53,53)" stroke="none" d="M 13146,7383 L 12077,8000 12077,7383 13146,7383 Z M 12077,7368 L 12077,5900 13532,5060 13532,7160 13172,7368 12077,7368 Z"/>
     <path fill="rgb(54,54,54)" stroke="none" d="M 13172,7368 L 12077,8000 12077,7368 13172,7368 Z M 12077,7354 L 12077,5900 13532,5060 13532,7160 13196,7354 12077,7354 Z"/>
     <path fill="rgb(55,55,55)" stroke="none" d="M 13196,7354 L 12077,8000 12077,7354 13196,7354 Z M 12077,7339 L 12077,5900 13532,5060 13532,7160 13222,7339 12077,7339 Z"/>
     <path fill="rgb(56,56,56)" stroke="none" d="M 13222,7339 L 12077,8000 12077,7339 13222,7339 Z M 12077,7325 L 12077,5900 13532,5060 13532,7160 13246,7325 12077,7325 Z"/>
     <path fill="rgb(57,57,57)" stroke="none" d="M 13246,7325 L 12077,8000 12077,7325 13246,7325 Z M 12077,7311 L 12077,5900 13532,5060 13532,7160 13270,7311 12077,7311 Z"/>
     <path fill="rgb(58,58,58)" stroke="none" d="M 13270,7311 L 12077,8000 12077,7311 13270,7311 Z M 12077,7296 L 12077,5900 13532,5060 13532,7160 13296,7296 12077,7296 Z"/>
     <path fill="rgb(59,59,59)" stroke="none" d="M 13296,7296 L 12077,8000 12077,7296 13296,7296 Z M 12077,7282 L 12077,5900 13532,5060 13532,7160 13321,7282 12077,7282 Z"/>
     <path fill="rgb(60,60,60)" stroke="none" d="M 13321,7282 L 12077,8000 12077,7282 13321,7282 Z M 12077,7267 L 12077,5900 13532,5060 13532,7160 13347,7267 12077,7267 Z"/>
     <path fill="rgb(61,61,61)" stroke="none" d="M 13347,7267 L 12077,8000 12077,7267 13347,7267 Z M 12077,7253 L 12077,5900 13532,5060 13532,7160 13371,7253 12077,7253 Z"/>
     <path fill="rgb(62,62,62)" stroke="none" d="M 13371,7253 L 12077,8000 12077,7253 13371,7253 Z M 12077,7238 L 12077,5900 13532,5060 13532,7160 13397,7238 12077,7238 Z"/>
     <path fill="rgb(63,63,63)" stroke="none" d="M 13397,7238 L 12077,8000 12077,7238 13397,7238 Z M 12077,7224 L 12077,5900 13532,5060 13532,7160 13421,7224 12077,7224 Z"/>
     <path fill="rgb(64,64,64)" stroke="none" d="M 13421,7224 L 12077,8000 12077,7224 13421,7224 Z M 12077,7210 L 12077,5900 13532,5060 13532,7160 13445,7210 12077,7210 Z"/>
     <path fill="rgb(65,65,65)" stroke="none" d="M 13445,7210 L 12077,8000 12077,7210 13445,7210 Z M 12077,7195 L 12077,5900 13532,5060 13532,7160 13471,7195 12077,7195 Z"/>
     <path fill="rgb(66,66,66)" stroke="none" d="M 13471,7195 L 12077,8000 12077,7195 13471,7195 Z M 12077,7181 L 12077,5900 13532,5060 13532,7160 13496,7181 12077,7181 Z"/>
     <path fill="rgb(67,67,67)" stroke="none" d="M 13496,7181 L 12077,8000 12077,7181 13496,7181 Z M 12077,7166 L 12077,5900 13532,5060 13532,7160 13522,7166 12077,7166 Z"/>
     <path fill="rgb(68,68,68)" stroke="none" d="M 13522,7166 L 12077,8000 12077,7166 13522,7166 Z M 12077,7152 L 12077,5900 13532,5060 13532,7152 12077,7152 Z"/>
     <path fill="rgb(69,69,69)" stroke="none" d="M 13532,7152 L 13532,7160 12077,8000 12077,7152 13532,7152 Z M 12077,7137 L 12077,5900 13532,5060 13532,7137 12077,7137 Z"/>
     <path fill="rgb(70,70,70)" stroke="none" d="M 13532,7137 L 13532,7160 12077,8000 12077,7137 13532,7137 Z M 12077,7123 L 12077,5900 13532,5060 13532,7123 12077,7123 Z"/>
     <path fill="rgb(71,71,71)" stroke="none" d="M 13532,7123 L 13532,7160 12077,8000 12077,7123 13532,7123 Z M 12077,7109 L 12077,5900 13532,5060 13532,7109 12077,7109 Z"/>
     <path fill="rgb(72,72,72)" stroke="none" d="M 13532,7109 L 13532,7160 12077,8000 12077,7109 13532,7109 Z M 12077,7094 L 12077,5900 13532,5060 13532,7094 12077,7094 Z"/>
     <path fill="rgb(73,73,73)" stroke="none" d="M 13532,7094 L 13532,7160 12077,8000 12077,7094 13532,7094 Z M 12077,7080 L 12077,5900 13532,5060 13532,7080 12077,7080 Z"/>
     <path fill="rgb(74,74,74)" stroke="none" d="M 13532,7080 L 13532,7160 12077,8000 12077,7080 13532,7080 Z M 12077,7065 L 12077,5900 13532,5060 13532,7065 12077,7065 Z"/>
     <path fill="rgb(75,75,75)" stroke="none" d="M 13532,7065 L 13532,7160 12077,8000 12077,7065 13532,7065 Z M 12077,7051 L 12077,5900 13532,5060 13532,7051 12077,7051 Z"/>
     <path fill="rgb(76,76,76)" stroke="none" d="M 13532,7051 L 13532,7160 12077,8000 12077,7051 13532,7051 Z M 12077,7036 L 12077,5900 13532,5060 13532,7036 12077,7036 Z"/>
     <path fill="rgb(77,77,77)" stroke="none" d="M 13532,7036 L 13532,7160 12077,8000 12077,7036 13532,7036 Z M 12077,7022 L 12077,5900 13532,5060 13532,7022 12077,7022 Z"/>
     <path fill="rgb(78,78,78)" stroke="none" d="M 13532,7022 L 13532,7160 12077,8000 12077,7022 13532,7022 Z M 12077,7008 L 12077,5900 13532,5060 13532,7008 12077,7008 Z"/>
     <path fill="rgb(79,79,79)" stroke="none" d="M 13532,7008 L 13532,7160 12077,8000 12077,7008 13532,7008 Z M 12077,6993 L 12077,5900 13532,5060 13532,6993 12077,6993 Z"/>
     <path fill="rgb(80,80,80)" stroke="none" d="M 13532,6993 L 13532,7160 12077,8000 12077,6993 13532,6993 Z M 12077,6979 L 12077,5900 13532,5060 13532,6979 12077,6979 Z"/>
     <path fill="rgb(81,81,81)" stroke="none" d="M 13532,6979 L 13532,7160 12077,8000 12077,6979 13532,6979 Z M 12077,6964 L 12077,5900 13532,5060 13532,6964 12077,6964 Z"/>
     <path fill="rgb(82,82,82)" stroke="none" d="M 13532,6964 L 13532,7160 12077,8000 12077,6964 13532,6964 Z M 13522,6950 L 12077,6950 12077,5900 13522,5066 13522,6950 Z"/>
     <path fill="rgb(83,83,83)" stroke="none" d="M 13522,6950 L 13522,5066 13532,5060 13532,7160 12077,8000 12077,6950 13522,6950 Z M 13507,6935 L 12077,6935 12077,5900 13507,5074 13507,6935 Z"/>
     <path fill="rgb(84,84,84)" stroke="none" d="M 13507,6935 L 13507,5074 13532,5060 13532,7160 12077,8000 12077,6935 13507,6935 Z M 13493,6921 L 12077,6921 12077,5900 13493,5083 13493,6921 Z"/>
     <path fill="rgb(85,85,85)" stroke="none" d="M 13493,6921 L 13493,5083 13532,5060 13532,7160 12077,8000 12077,6921 13493,6921 Z M 13479,6907 L 12077,6907 12077,5900 13479,5091 13479,6907 Z"/>
     <path fill="rgb(86,86,86)" stroke="none" d="M 13479,6907 L 13479,5091 13532,5060 13532,7160 12077,8000 12077,6907 13479,6907 Z M 13464,6892 L 12077,6892 12077,5900 13464,5099 13464,6892 Z"/>
     <path fill="rgb(87,87,87)" stroke="none" d="M 13464,6892 L 13464,5099 13532,5060 13532,7160 12077,8000 12077,6892 13464,6892 Z M 13450,6878 L 12077,6878 12077,5900 13450,5107 13450,6878 Z"/>
     <path fill="rgb(88,88,88)" stroke="none" d="M 13450,6878 L 13450,5107 13532,5060 13532,7160 12077,8000 12077,6878 13450,6878 Z M 13435,6863 L 12077,6863 12077,5900 13435,5116 13435,6863 Z"/>
     <path fill="rgb(89,89,89)" stroke="none" d="M 13435,6863 L 13435,5116 13532,5060 13532,7160 12077,8000 12077,6863 13435,6863 Z M 13421,6849 L 12077,6849 12077,5900 13421,5124 13421,6849 Z"/>
     <path fill="rgb(90,90,90)" stroke="none" d="M 13421,6849 L 13421,5124 13532,5060 13532,7160 12077,8000 12077,6849 13421,6849 Z M 13406,6834 L 12077,6834 12077,5900 13406,5133 13406,6834 Z"/>
     <path fill="rgb(91,91,91)" stroke="none" d="M 13406,6834 L 13406,5133 13532,5060 13532,7160 12077,8000 12077,6834 13406,6834 Z M 13392,6820 L 12077,6820 12077,5900 13392,5141 13392,6820 Z"/>
     <path fill="rgb(92,92,92)" stroke="none" d="M 13392,6820 L 13392,5141 13532,5060 13532,7160 12077,8000 12077,6820 13392,6820 Z M 13378,6806 L 12077,6806 12077,5900 13378,5149 13378,6806 Z"/>
     <path fill="rgb(93,93,93)" stroke="none" d="M 13378,6806 L 13378,5149 13532,5060 13532,7160 12077,8000 12077,6806 13378,6806 Z M 13363,6791 L 12077,6791 12077,5900 13363,5158 13363,6791 Z"/>
     <path fill="rgb(94,94,94)" stroke="none" d="M 13363,6791 L 13363,5158 13532,5060 13532,7160 12077,8000 12077,6791 13363,6791 Z M 13349,6777 L 12077,6777 12077,5900 13349,5166 13349,6777 Z"/>
     <path fill="rgb(95,95,95)" stroke="none" d="M 13349,6777 L 13349,5166 13532,5060 13532,7160 12077,8000 12077,6777 13349,6777 Z M 13334,6762 L 12077,6762 12077,5900 13334,5174 13334,6762 Z"/>
     <path fill="rgb(96,96,96)" stroke="none" d="M 13334,6762 L 13334,5174 13532,5060 13532,7160 12077,8000 12077,6762 13334,6762 Z M 13320,6748 L 12077,6748 12077,5900 13320,5182 13320,6748 Z"/>
     <path fill="rgb(97,97,97)" stroke="none" d="M 13320,6748 L 13320,5182 13532,5060 13532,7160 12077,8000 12077,6748 13320,6748 Z M 13305,6733 L 12077,6733 12077,5900 13305,5191 13305,6733 Z"/>
     <path fill="rgb(98,98,98)" stroke="none" d="M 13305,6733 L 13305,5191 13532,5060 13532,7160 12077,8000 12077,6733 13305,6733 Z M 13291,6719 L 12077,6719 12077,5900 13291,5199 13291,6719 Z"/>
     <path fill="rgb(99,99,99)" stroke="none" d="M 13291,6719 L 13291,5199 13532,5060 13532,7160 12077,8000 12077,6719 13291,6719 Z M 13277,6705 L 12077,6705 12077,5900 13277,5207 13277,6705 Z"/>
     <path fill="rgb(100,100,100)" stroke="none" d="M 13277,6705 L 13277,5207 13532,5060 13532,7160 12077,8000 12077,6705 13277,6705 Z M 13262,6690 L 12077,6690 12077,5900 13262,5216 13262,6690 Z"/>
     <path fill="rgb(101,101,101)" stroke="none" d="M 13262,6690 L 13262,5216 13532,5060 13532,7160 12077,8000 12077,6690 13262,6690 Z M 13248,6676 L 12077,6676 12077,5900 13248,5224 13248,6676 Z"/>
     <path fill="rgb(102,102,102)" stroke="none" d="M 13248,6676 L 13248,5224 13532,5060 13532,7160 12077,8000 12077,6676 13248,6676 Z M 13233,6661 L 12077,6661 12077,5900 13233,5233 13233,6661 Z"/>
     <path fill="rgb(103,103,103)" stroke="none" d="M 13233,6661 L 13233,5233 13532,5060 13532,7160 12077,8000 12077,6661 13233,6661 Z M 13219,6647 L 12077,6647 12077,5900 13219,5241 13219,6647 Z"/>
     <path fill="rgb(104,104,104)" stroke="none" d="M 13219,6647 L 13219,5241 13532,5060 13532,7160 12077,8000 12077,6647 13219,6647 Z M 13204,6632 L 12077,6632 12077,5900 13204,5249 13204,6632 Z"/>
     <path fill="rgb(105,105,105)" stroke="none" d="M 13204,6632 L 13204,5249 13532,5060 13532,7160 12077,8000 12077,6632 13204,6632 Z M 13190,5263 L 13190,6618 12077,6618 12077,5900 13180,5263 13190,5263 Z"/>
     <path fill="rgb(106,106,106)" stroke="none" d="M 13190,6618 L 13190,5263 13180,5263 13532,5060 13532,7160 12077,8000 12077,6618 13190,6618 Z M 13176,5277 L 13176,6604 12077,6604 12077,5900 13156,5277 13176,5277 Z"/>
     <path fill="rgb(107,107,107)" stroke="none" d="M 13176,6604 L 13176,5277 13156,5277 13532,5060 13532,7160 12077,8000 12077,6604 13176,6604 Z M 13161,5292 L 13161,6589 12077,6589 12077,5900 13130,5292 13161,5292 Z"/>
     <path fill="rgb(108,108,108)" stroke="none" d="M 13161,6589 L 13161,5292 13130,5292 13532,5060 13532,7160 12077,8000 12077,6589 13161,6589 Z M 13147,5306 L 13147,6575 12077,6575 12077,5900 13106,5306 13147,5306 Z"/>
     <path fill="rgb(109,109,109)" stroke="none" d="M 13147,6575 L 13147,5306 13106,5306 13532,5060 13532,7160 12077,8000 12077,6575 13147,6575 Z M 13132,5321 L 13132,6560 12077,6560 12077,5900 13080,5321 13132,5321 Z"/>
     <path fill="rgb(110,110,110)" stroke="none" d="M 13132,6560 L 13132,5321 13080,5321 13532,5060 13532,7160 12077,8000 12077,6560 13132,6560 Z M 13118,5335 L 13118,6546 12077,6546 12077,5900 13056,5335 13118,5335 Z"/>
     <path fill="rgb(111,111,111)" stroke="none" d="M 13118,6546 L 13118,5335 13056,5335 13532,5060 13532,7160 12077,8000 12077,6546 13118,6546 Z M 13103,5350 L 13103,6531 12077,6531 12077,5900 13030,5350 13103,5350 Z"/>
     <path fill="rgb(112,112,112)" stroke="none" d="M 13103,6531 L 13103,5350 13030,5350 13532,5060 13532,7160 12077,8000 12077,6531 13103,6531 Z M 13089,5364 L 13089,6517 12077,6517 12077,5900 13005,5364 13089,5364 Z"/>
     <path fill="rgb(113,113,113)" stroke="none" d="M 13089,6517 L 13089,5364 13005,5364 13532,5060 13532,7160 12077,8000 12077,6517 13089,6517 Z M 13075,5378 L 13075,6503 12077,6503 12077,5900 12981,5378 13075,5378 Z"/>
     <path fill="rgb(114,114,114)" stroke="none" d="M 13075,6503 L 13075,5378 12981,5378 13532,5060 13532,7160 12077,8000 12077,6503 13075,6503 Z M 13060,5393 L 13060,6488 12077,6488 12077,5900 12955,5393 13060,5393 Z"/>
     <path fill="rgb(115,115,115)" stroke="none" d="M 13060,6488 L 13060,5393 12955,5393 13532,5060 13532,7160 12077,8000 12077,6488 13060,6488 Z M 13046,5407 L 13046,6474 12077,6474 12077,5900 12931,5407 13046,5407 Z"/>
     <path fill="rgb(116,116,116)" stroke="none" d="M 13046,6474 L 13046,5407 12931,5407 13532,5060 13532,7160 12077,8000 12077,6474 13046,6474 Z M 13031,5422 L 13031,6459 12077,6459 12077,5900 12905,5422 13031,5422 Z"/>
     <path fill="rgb(117,117,117)" stroke="none" d="M 13031,6459 L 13031,5422 12905,5422 13532,5060 13532,7160 12077,8000 12077,6459 13031,6459 Z M 13017,5436 L 13017,6445 12077,6445 12077,5900 12881,5436 13017,5436 Z"/>
     <path fill="rgb(118,118,118)" stroke="none" d="M 13017,6445 L 13017,5436 12881,5436 13532,5060 13532,7160 12077,8000 12077,6445 13017,6445 Z M 13002,5451 L 13002,6431 12077,6431 12077,5900 12855,5451 13002,5451 Z"/>
     <path fill="rgb(119,119,119)" stroke="none" d="M 13002,6431 L 13002,5451 12855,5451 13532,5060 13532,7160 12077,8000 12077,6431 13002,6431 Z M 12988,5465 L 12988,6416 12077,6416 12077,5900 12830,5465 12988,5465 Z"/>
     <path fill="rgb(120,120,120)" stroke="none" d="M 12988,6416 L 12988,5465 12830,5465 13532,5060 13532,7160 12077,8000 12077,6416 12988,6416 Z M 12974,5479 L 12974,6402 12077,6402 12077,5900 12806,5479 12974,5479 Z"/>
     <path fill="rgb(121,121,121)" stroke="none" d="M 12974,6402 L 12974,5479 12806,5479 13532,5060 13532,7160 12077,8000 12077,6402 12974,6402 Z M 12959,5494 L 12959,6387 12077,6387 12077,5900 12780,5494 12959,5494 Z"/>
     <path fill="rgb(122,122,122)" stroke="none" d="M 12959,6387 L 12959,5494 12780,5494 13532,5060 13532,7160 12077,8000 12077,6387 12959,6387 Z M 12945,5508 L 12945,6373 12080,6373 12080,5898 12756,5508 12945,5508 Z"/>
     <path fill="rgb(123,123,123)" stroke="none" d="M 12080,6373 L 12945,6373 12945,5508 12756,5508 13532,5060 13532,7160 12077,8000 12077,5900 12080,5898 12080,6373 Z M 12930,5523 L 12930,6358 12095,6358 12095,5890 12730,5523 12930,5523 Z"/>
     <path fill="rgb(124,124,124)" stroke="none" d="M 12095,6358 L 12930,6358 12930,5523 12730,5523 13532,5060 13532,7160 12077,8000 12077,5900 12095,5890 12095,6358 Z M 12916,5537 L 12916,6344 12109,6344 12109,5882 12706,5537 12916,5537 Z"/>
     <path fill="rgb(125,125,125)" stroke="none" d="M 12109,6344 L 12916,6344 12916,5537 12706,5537 13532,5060 13532,7160 12077,8000 12077,5900 12109,5882 12109,6344 Z M 12902,5551 L 12902,6330 12123,6330 12123,5873 12682,5551 12902,5551 Z"/>
     <path fill="rgb(126,126,126)" stroke="none" d="M 12123,6330 L 12902,6330 12902,5551 12682,5551 13532,5060 13532,7160 12077,8000 12077,5900 12123,5873 12123,6330 Z M 12887,5566 L 12887,6315 12138,6315 12138,5865 12656,5566 12887,5566 Z"/>
     <path fill="rgb(127,127,127)" stroke="none" d="M 12138,6315 L 12887,6315 12887,5566 12656,5566 13532,5060 13532,7160 12077,8000 12077,5900 12138,5865 12138,6315 Z M 12873,5580 L 12873,6301 12152,6301 12152,5857 12631,5580 12873,5580 Z"/>
     <path fill="rgb(128,128,128)" stroke="none" d="M 12152,6301 L 12873,6301 12873,5580 12631,5580 13532,5060 13532,7160 12077,8000 12077,5900 12152,5857 12152,6301 Z M 12858,5595 L 12858,6286 12167,6286 12167,5848 12605,5595 12858,5595 Z"/>
     <path fill="rgb(129,129,129)" stroke="none" d="M 12167,6286 L 12858,6286 12858,5595 12605,5595 13532,5060 13532,7160 12077,8000 12077,5900 12167,5848 12167,6286 Z M 12844,5609 L 12844,6272 12181,6272 12181,5840 12581,5609 12844,5609 Z"/>
     <path fill="rgb(130,130,130)" stroke="none" d="M 12181,6272 L 12844,6272 12844,5609 12581,5609 13532,5060 13532,7160 12077,8000 12077,5900 12181,5840 12181,6272 Z M 12829,5624 L 12829,6257 12196,6257 12196,5831 12555,5624 12829,5624 Z"/>
     <path fill="rgb(131,131,131)" stroke="none" d="M 12196,6257 L 12829,6257 12829,5624 12555,5624 13532,5060 13532,7160 12077,8000 12077,5900 12196,5831 12196,6257 Z M 12815,5638 L 12815,6243 12210,6243 12210,5823 12531,5638 12815,5638 Z"/>
     <path fill="rgb(132,132,132)" stroke="none" d="M 12210,6243 L 12815,6243 12815,5638 12531,5638 13532,5060 13532,7160 12077,8000 12077,5900 12210,5823 12210,6243 Z M 12801,5652 L 12801,6229 12224,6229 12224,5815 12507,5652 12801,5652 Z"/>
     <path fill="rgb(133,133,133)" stroke="none" d="M 12224,6229 L 12801,6229 12801,5652 12507,5652 13532,5060 13532,7160 12077,8000 12077,5900 12224,5815 12224,6229 Z M 12786,5667 L 12786,6214 12239,6214 12239,5806 12481,5667 12786,5667 Z"/>
     <path fill="rgb(134,134,134)" stroke="none" d="M 12239,6214 L 12786,6214 12786,5667 12481,5667 13532,5060 13532,7160 12077,8000 12077,5900 12239,5806 12239,6214 Z M 12772,5681 L 12772,6200 12253,6200 12253,5798 12456,5681 12772,5681 Z"/>
     <path fill="rgb(135,135,135)" stroke="none" d="M 12253,6200 L 12772,6200 12772,5681 12456,5681 13532,5060 13532,7160 12077,8000 12077,5900 12253,5798 12253,6200 Z M 12757,5696 L 12757,6185 12268,6185 12268,5790 12430,5696 12757,5696 Z"/>
     <path fill="rgb(136,136,136)" stroke="none" d="M 12268,6185 L 12757,6185 12757,5696 12430,5696 13532,5060 13532,7160 12077,8000 12077,5900 12268,5790 12268,6185 Z M 12743,5710 L 12743,6171 12282,6171 12282,5782 12406,5710 12743,5710 Z"/>
     <path fill="rgb(137,137,137)" stroke="none" d="M 12282,6171 L 12743,6171 12743,5710 12406,5710 13532,5060 13532,7160 12077,8000 12077,5900 12282,5782 12282,6171 Z M 12728,5725 L 12728,6156 12297,6156 12297,5773 12380,5725 12728,5725 Z"/>
     <path fill="rgb(138,138,138)" stroke="none" d="M 12297,6156 L 12728,6156 12728,5725 12380,5725 13532,5060 13532,7160 12077,8000 12077,5900 12297,5773 12297,6156 Z M 12714,5739 L 12714,6142 12311,6142 12311,5765 12356,5739 12714,5739 Z"/>
     <path fill="rgb(139,139,139)" stroke="none" d="M 12311,6142 L 12714,6142 12714,5739 12356,5739 13532,5060 13532,7160 12077,8000 12077,5900 12311,5765 12311,6142 Z M 12700,5753 L 12700,6128 12325,6128 12325,5757 12332,5753 12700,5753 Z"/>
     <path fill="rgb(140,140,140)" stroke="none" d="M 12325,6128 L 12700,6128 12700,5753 12332,5753 13532,5060 13532,7160 12077,8000 12077,5900 12325,5757 12325,6128 Z M 12340,5768 L 12685,5768 12685,6113 12340,6113 12340,5768 Z"/>
     <path fill="rgb(141,141,141)" stroke="none" d="M 12340,5768 L 12340,6113 12685,6113 12685,5768 12340,5768 Z M 12354,5782 L 12671,5782 12671,6099 12354,6099 12354,5782 Z M 12077,8000 L 12077,5900 13532,5060 13532,7160 12077,8000 Z"/>
     <path fill="rgb(142,142,142)" stroke="none" d="M 12354,5782 L 12354,6099 12671,6099 12671,5782 12354,5782 Z M 12369,5797 L 12656,5797 12656,6084 12369,6084 12369,5797 Z M 12077,8000 L 12077,5900 13532,5060 13532,7160 12077,8000 Z"/>
     <path fill="rgb(143,143,143)" stroke="none" d="M 12369,5797 L 12369,6084 12656,6084 12656,5797 12369,5797 Z M 12383,5811 L 12642,5811 12642,6070 12383,6070 12383,5811 Z M 12077,8000 L 12077,5900 13532,5060 13532,7160 12077,8000 Z"/>
     <path fill="rgb(144,144,144)" stroke="none" d="M 12383,5811 L 12383,6070 12642,6070 12642,5811 12383,5811 Z M 12398,5826 L 12627,5826 12627,6055 12398,6055 12398,5826 Z M 12077,8000 L 12077,5900 13532,5060 13532,7160 12077,8000 Z"/>
     <path fill="rgb(145,145,145)" stroke="none" d="M 12398,5826 L 12398,6055 12627,6055 12627,5826 12398,5826 Z M 12412,5840 L 12613,5840 12613,6041 12412,6041 12412,5840 Z M 12077,8000 L 12077,5900 13532,5060 13532,7160 12077,8000 Z"/>
     <path fill="rgb(146,146,146)" stroke="none" d="M 12412,5840 L 12412,6041 12613,6041 12613,5840 12412,5840 Z M 12426,5854 L 12599,5854 12599,6027 12426,6027 12426,5854 Z M 12077,8000 L 12077,5900 13532,5060 13532,7160 12077,8000 Z"/>
     <path fill="rgb(147,147,147)" stroke="none" d="M 12426,5854 L 12426,6027 12599,6027 12599,5854 12426,5854 Z M 12441,5869 L 12584,5869 12584,6012 12441,6012 12441,5869 Z M 12077,8000 L 12077,5900 13532,5060 13532,7160 12077,8000 Z"/>
     <path fill="rgb(148,148,148)" stroke="none" d="M 12441,5869 L 12441,6012 12584,6012 12584,5869 12441,5869 Z M 12455,5883 L 12570,5883 12570,5998 12455,5998 12455,5883 Z M 12077,8000 L 12077,5900 13532,5060 13532,7160 12077,8000 Z"/>
     <path fill="rgb(149,149,149)" stroke="none" d="M 12455,5883 L 12455,5998 12570,5998 12570,5883 12455,5883 Z M 12470,5898 L 12555,5898 12555,5983 12470,5983 12470,5898 Z M 12077,8000 L 12077,5900 13532,5060 13532,7160 12077,8000 Z"/>
     <path fill="rgb(150,150,150)" stroke="none" d="M 12470,5898 L 12470,5983 12555,5983 12555,5898 12470,5898 Z M 12484,5912 L 12541,5912 12541,5969 12484,5969 12484,5912 Z M 12077,8000 L 12077,5900 13532,5060 13532,7160 12077,8000 Z"/>
     <path fill="rgb(151,151,151)" stroke="none" d="M 12484,5912 L 12484,5969 12541,5969 12541,5912 12484,5912 Z M 12499,5927 L 12526,5927 12526,5954 12499,5954 12499,5927 Z M 12077,8000 L 12077,5900 13532,5060 13532,7160 12077,8000 Z"/>
     <path fill="rgb(153,153,153)" stroke="none" d="M 12499,5927 L 12499,5954 12526,5954 12526,5927 12499,5927 Z M 12077,8000 L 12077,5900 13532,5060 13532,7160 12077,8000 Z"/>
     <path fill="none" stroke="rgb(178,178,178)" id="Drawing_8_0" stroke-width="40" stroke-linejoin="round" d="M 12077,8000 L 12077,5900 13532,5060 13532,7160 12077,8000 Z"/>
    </g>
    <g>
     <path fill="none" stroke="rgb(0,0,0)" id="Drawing_9_0" stroke-width="40" stroke-linejoin="round" d="M 11714,7790 L 11714,5690 13169,4850 13532,5060 13532,7160 13290,7300 13411,7370 13411,7510 12562,8000 12320,7860 12077,8000 11714,7790 Z"/>
    </g>
    <g>
     <path fill="rgb(102,102,255)" stroke="none" d="M 11835,6810 L 11835,6670 11956,6740 11956,6880 11835,6810 Z"/>
     <path fill="none" stroke="rgb(51,51,51)" id="Drawing_10_0" stroke-width="40" stroke-linejoin="round" d="M 11835,6810 L 11835,6670 11956,6740 11956,6880 11835,6810 Z"/>
    </g>
   </g>
  </g>
 </g>
</svg>