<?xml version="1.0" encoding="UTF-8"?>

<svg version="1.2" baseProfile="tiny" width="11.92mm" height="11.03mm" viewBox="9118 11733 1192 1103" preserveAspectRatio="xMidYMid" fill-rule="evenodd" stroke-width="28.222" stroke-linejoin="round" xmlns="http://www.w3.org/2000/svg" xmlns:xlink="http://www.w3.org/1999/xlink" xml:space="preserve">
 <g visibility="visible" id="Slide_1">
  <g id="DrawingGroup_1">
   <g>
    <defs>
     <linearGradient id="Gradient_325" gradientUnits="userSpaceOnUse" x1="9136" y1="12506" x2="9369" y2="12506">
      <stop offset="0.1" stop-color="rgb(51,51,51)"/>
      <stop offset="1" stop-color="rgb(153,153,153)"/>
     </linearGradient>
    </defs>
    <path fill="url(#Gradient_325)" stroke="rgb(178,178,178)" id="Drawing_1_0" stroke-width="40" stroke-linejoin="round" d="M 9138,12683 L 9138,12196 9369,12329 9369,12816 9138,12683 Z"/>
   </g>
   <g>
    <defs>
     <linearGradient id="Gradient_326" gradientUnits="userSpaceOnUse" x1="9982" y1="12063" x2="10059" y2="12063">
      <stop offset="0.1" stop-color="rgb(179,179,179)"/>
      <stop offset="1" stop-color="rgb(229,229,229)"/>
     </linearGradient>
    </defs>
    <path fill="url(#Gradient_326)" stroke="rgb(255,255,255)" id="Drawing_2_0" stroke-width="40" stroke-linejoin="round" d="M 9983,12196 L 9983,11886 10060,11930 10060,12240 9983,12196 Z"/>
   </g>
   <g>
    <path fill="rgb(179,179,179)" stroke="none" d="M 10059,12145 L 10058,11930 10290,11797 10290,12107 10224,12145 10059,12145 Z"/>
    <path fill="rgb(180,180,180)" stroke="none" d="M 10224,12145 L 10060,12240 10059,12145 10224,12145 Z M 10059,12140 L 10058,11930 10290,11797 10290,12107 10233,12140 10059,12140 Z"/>
    <path fill="rgb(181,181,181)" stroke="none" d="M 10233,12140 L 10060,12240 10059,12140 10233,12140 Z M 10059,12135 L 10058,11930 10290,11797 10290,12107 10242,12135 10059,12135 Z"/>
    <path fill="rgb(182,182,182)" stroke="none" d="M 10242,12135 L 10060,12240 10059,12135 10242,12135 Z M 10059,12130 L 10058,11930 10290,11797 10290,12107 10250,12130 10059,12130 Z"/>
    <path fill="rgb(183,183,183)" stroke="none" d="M 10250,12130 L 10060,12240 10059,12130 10250,12130 Z M 10059,12125 L 10058,11930 10290,11797 10290,12107 10259,12125 10059,12125 Z"/>
    <path fill="rgb(184,184,184)" stroke="none" d="M 10259,12125 L 10060,12240 10059,12125 10259,12125 Z M 10059,12120 L 10058,11930 10290,11797 10290,12107 10268,12120 10059,12120 Z"/>
    <path fill="rgb(185,185,185)" stroke="none" d="M 10268,12120 L 10060,12240 10059,12120 10268,12120 Z M 10059,12115 L 10058,11930 10290,11797 10290,12107 10276,12115 10059,12115 Z"/>
    <path fill="rgb(186,186,186)" stroke="none" d="M 10276,12115 L 10060,12240 10059,12115 10276,12115 Z M 10059,12110 L 10058,11930 10290,11797 10290,12107 10285,12110 10059,12110 Z"/>
    <path fill="rgb(188,188,188)" stroke="none" d="M 10285,12110 L 10060,12240 10059,12110 10285,12110 Z M 10059,12105 L 10058,11930 10290,11797 10290,12105 10059,12105 Z"/>
    <path fill="rgb(189,189,189)" stroke="none" d="M 10290,12105 L 10290,12107 10060,12240 10059,12105 10290,12105 Z M 10059,12100 L 10058,11930 10290,11797 10290,12100 10059,12100 Z"/>
    <path fill="rgb(190,190,190)" stroke="none" d="M 10290,12100 L 10290,12107 10060,12240 10059,12100 10290,12100 Z M 10059,12095 L 10058,11930 10290,11797 10290,12095 10059,12095 Z"/>
    <path fill="rgb(191,191,191)" stroke="none" d="M 10290,12095 L 10290,12107 10060,12240 10059,12095 10290,12095 Z M 10288,12090 L 10059,12090 10058,11930 10288,11798 10288,12090 Z"/>
    <path fill="rgb(192,192,192)" stroke="none" d="M 10288,12090 L 10288,11798 10290,11797 10290,12107 10060,12240 10059,12090 10288,12090 Z M 10283,12085 L 10059,12085 10058,11930 10283,11801 10283,12085 Z"/>
    <path fill="rgb(193,193,193)" stroke="none" d="M 10283,12085 L 10283,11801 10290,11797 10290,12107 10060,12240 10059,12085 10283,12085 Z M 10278,12080 L 10059,12080 10058,11930 10278,11804 10278,12080 Z"/>
    <path fill="rgb(194,194,194)" stroke="none" d="M 10278,12080 L 10278,11804 10290,11797 10290,12107 10060,12240 10059,12080 10278,12080 Z M 10272,12074 L 10059,12074 10058,11930 10272,11807 10272,12074 Z"/>
    <path fill="rgb(196,196,196)" stroke="none" d="M 10272,12074 L 10272,11807 10290,11797 10290,12107 10060,12240 10059,12074 10272,12074 Z M 10267,12069 L 10059,12069 10058,11930 10267,11810 10267,12069 Z"/>
    <path fill="rgb(197,197,197)" stroke="none" d="M 10267,12069 L 10267,11810 10290,11797 10290,12107 10060,12240 10059,12069 10267,12069 Z M 10262,12064 L 10059,12064 10058,11930 10262,11813 10262,12064 Z"/>
    <path fill="rgb(198,198,198)" stroke="none" d="M 10262,12064 L 10262,11813 10290,11797 10290,12107 10060,12240 10059,12064 10262,12064 Z M 10257,12059 L 10059,12059 10058,11930 10257,11816 10257,12059 Z"/>
    <path fill="rgb(199,199,199)" stroke="none" d="M 10257,12059 L 10257,11816 10290,11797 10290,12107 10060,12240 10059,12059 10257,12059 Z M 10252,12054 L 10059,12054 10058,11930 10252,11819 10252,12054 Z"/>
    <path fill="rgb(200,200,200)" stroke="none" d="M 10252,12054 L 10252,11819 10290,11797 10290,12107 10060,12240 10059,12054 10252,12054 Z M 10247,12049 L 10059,12049 10058,11930 10247,11822 10247,12049 Z"/>
    <path fill="rgb(201,201,201)" stroke="none" d="M 10247,12049 L 10247,11822 10290,11797 10290,12107 10060,12240 10059,12049 10247,12049 Z M 10242,12044 L 10059,12044 10058,11930 10242,11825 10242,12044 Z"/>
    <path fill="rgb(202,202,202)" stroke="none" d="M 10242,12044 L 10242,11825 10290,11797 10290,12107 10060,12240 10059,12044 10242,12044 Z M 10237,12039 L 10059,12039 10058,11930 10237,11827 10237,12039 Z"/>
    <path fill="rgb(204,204,204)" stroke="none" d="M 10237,12039 L 10237,11827 10290,11797 10290,12107 10060,12240 10059,12039 10237,12039 Z M 10232,12034 L 10059,12034 10058,11930 10232,11830 10232,12034 Z"/>
    <path fill="rgb(205,205,205)" stroke="none" d="M 10232,12034 L 10232,11830 10290,11797 10290,12107 10060,12240 10059,12034 10232,12034 Z M 10227,12029 L 10059,12029 10058,11930 10227,11833 10227,12029 Z"/>
    <path fill="rgb(206,206,206)" stroke="none" d="M 10227,12029 L 10227,11833 10290,11797 10290,12107 10060,12240 10059,12029 10227,12029 Z M 10222,12024 L 10059,12024 10058,11930 10222,11836 10222,12024 Z"/>
    <path fill="rgb(207,207,207)" stroke="none" d="M 10222,12024 L 10222,11836 10290,11797 10290,12107 10060,12240 10059,12024 10222,12024 Z M 10217,12019 L 10059,12019 10058,11930 10217,11839 10217,12019 Z"/>
    <path fill="rgb(208,208,208)" stroke="none" d="M 10217,12019 L 10217,11839 10290,11797 10290,12107 10060,12240 10059,12019 10217,12019 Z M 10212,11842 L 10212,12014 10059,12014 10058,11930 10212,11842 10212,11842 Z"/>
    <path fill="rgb(209,209,209)" stroke="none" d="M 10212,12014 L 10212,11842 10212,11842 10290,11797 10290,12107 10060,12240 10059,12014 10212,12014 Z M 10207,11847 L 10207,12009 10059,12009 10058,11930 10203,11847 10207,11847 Z"/>
    <path fill="rgb(210,210,210)" stroke="none" d="M 10207,12009 L 10207,11847 10203,11847 10290,11797 10290,12107 10060,12240 10059,12009 10207,12009 Z M 10202,11852 L 10202,12004 10058,12004 10058,11930 10194,11852 10202,11852 Z"/>
    <path fill="rgb(211,211,211)" stroke="none" d="M 10202,12004 L 10202,11852 10194,11852 10290,11797 10290,12107 10060,12240 10058,12004 10202,12004 Z M 10196,11858 L 10196,11998 10058,11998 10058,11930 10184,11858 10196,11858 Z"/>
    <path fill="rgb(213,213,213)" stroke="none" d="M 10196,11998 L 10196,11858 10184,11858 10290,11797 10290,12107 10060,12240 10058,11998 10196,11998 Z M 10191,11863 L 10191,11993 10061,11993 10061,11928 10175,11863 10191,11863 Z"/>
    <path fill="rgb(214,214,214)" stroke="none" d="M 10061,11993 L 10191,11993 10191,11863 10175,11863 10290,11797 10290,12107 10060,12240 10058,11930 10061,11928 10061,11993 Z M 10186,11868 L 10186,11988 10066,11988 10066,11925 10166,11868 10186,11868 Z"/>
    <path fill="rgb(215,215,215)" stroke="none" d="M 10066,11988 L 10186,11988 10186,11868 10166,11868 10290,11797 10290,12107 10060,12240 10058,11930 10066,11925 10066,11988 Z M 10181,11873 L 10181,11983 10071,11983 10071,11923 10157,11873 10181,11873 Z"/>
    <path fill="rgb(216,216,216)" stroke="none" d="M 10071,11983 L 10181,11983 10181,11873 10157,11873 10290,11797 10290,12107 10060,12240 10058,11930 10071,11923 10071,11983 Z M 10176,11878 L 10176,11978 10076,11978 10076,11920 10149,11878 10176,11878 Z"/>
    <path fill="rgb(217,217,217)" stroke="none" d="M 10076,11978 L 10176,11978 10176,11878 10149,11878 10290,11797 10290,12107 10060,12240 10058,11930 10076,11920 10076,11978 Z M 10171,11883 L 10171,11973 10081,11973 10081,11917 10140,11883 10171,11883 Z"/>
    <path fill="rgb(218,218,218)" stroke="none" d="M 10081,11973 L 10171,11973 10171,11883 10140,11883 10290,11797 10290,12107 10060,12240 10058,11930 10081,11917 10081,11973 Z M 10166,11888 L 10166,11968 10086,11968 10086,11914 10131,11888 10166,11888 Z"/>
    <path fill="rgb(219,219,219)" stroke="none" d="M 10086,11968 L 10166,11968 10166,11888 10131,11888 10290,11797 10290,12107 10060,12240 10058,11930 10086,11914 10086,11968 Z M 10161,11893 L 10161,11963 10091,11963 10091,11911 10123,11893 10161,11893 Z"/>
    <path fill="rgb(221,221,221)" stroke="none" d="M 10091,11963 L 10161,11963 10161,11893 10123,11893 10290,11797 10290,12107 10060,12240 10058,11930 10091,11911 10091,11963 Z M 10156,11898 L 10156,11958 10096,11958 10096,11908 10114,11898 10156,11898 Z"/>
    <path fill="rgb(222,222,222)" stroke="none" d="M 10096,11958 L 10156,11958 10156,11898 10114,11898 10290,11797 10290,12107 10060,12240 10058,11930 10096,11908 10096,11958 Z M 10151,11903 L 10151,11953 10101,11953 10101,11905 10105,11903 10151,11903 Z"/>
    <path fill="rgb(223,223,223)" stroke="none" d="M 10101,11953 L 10151,11953 10151,11903 10105,11903 10290,11797 10290,12107 10060,12240 10058,11930 10101,11905 10101,11953 Z M 10106,11908 L 10146,11908 10146,11948 10106,11948 10106,11908 Z"/>
    <path fill="rgb(224,224,224)" stroke="none" d="M 10106,11908 L 10106,11948 10146,11948 10146,11908 10106,11908 Z M 10111,11913 L 10141,11913 10141,11943 10111,11943 10111,11913 Z M 10060,12240 L 10058,11930 10290,11797 10290,12107 10060,12240 Z"/>
    <path fill="rgb(225,225,225)" stroke="none" d="M 10111,11913 L 10111,11943 10141,11943 10141,11913 10111,11913 Z M 10116,11918 L 10136,11918 10136,11938 10116,11938 10116,11918 Z M 10060,12240 L 10058,11930 10290,11797 10290,12107 10060,12240 Z"/>
    <path fill="rgb(226,226,226)" stroke="none" d="M 10116,11918 L 10116,11938 10136,11938 10136,11918 10116,11918 Z M 10121,11923 L 10131,11923 10131,11933 10121,11933 10121,11923 Z M 10060,12240 L 10058,11930 10290,11797 10290,12107 10060,12240 Z"/>
    <path fill="rgb(229,229,229)" stroke="none" d="M 10121,11923 L 10121,11933 10131,11933 10131,11923 10121,11923 Z M 10060,12240 L 10058,11930 10290,11797 10290,12107 10060,12240 Z"/>
    <path fill="none" stroke="rgb(255,255,255)" id="Drawing_3_0" stroke-width="40" stroke-linejoin="round" d="M 10060,12240 L 10058,11930 10290,11797 10290,12107 10060,12240 Z"/>
   </g>
   <g>
    <defs>
     <linearGradient id="Gradient_327" gradientUnits="userSpaceOnUse" x1="10136" y1="11753" x2="10136" y2="11930">
      <stop offset="0.1" stop-color="rgb(179,179,179)"/>
      <stop offset="1" stop-color="rgb(229,229,229)"/>
     </linearGradient>
    </defs>
    <path fill="url(#Gradient_327)" stroke="rgb(255,255,255)" id="Drawing_4_0" stroke-width="40" stroke-linejoin="round" d="M 10060,11930 L 9983,11886 10213,11753 10290,11797 10060,11930 Z"/>
   </g>
   <g>
    <path fill="rgb(51,51,51)" stroke="none" d="M 10051,12422 L 9709,12619 9366,12619 9365,12329 10051,11935 10051,12422 Z"/>
    <path fill="rgb(53,53,53)" stroke="none" d="M 9709,12619 L 9367,12816 9366,12619 9709,12619 Z M 10051,11935 L 10137,11886 10137,12373 10051,12422 10051,11935 Z M 10041,12428 L 9727,12609 9366,12609 9365,12329 10041,11941 10041,12428 Z"/>
    <path fill="rgb(55,55,55)" stroke="none" d="M 9727,12609 L 9367,12816 9366,12609 9727,12609 Z M 10041,11941 L 10137,11886 10137,12373 10041,12428 10041,11941 Z M 10031,12434 L 9744,12599 9366,12599 9365,12329 10031,11947 10031,12434 Z"/>
    <path fill="rgb(57,57,57)" stroke="none" d="M 9744,12599 L 9367,12816 9366,12599 9744,12599 Z M 10031,11947 L 10137,11886 10137,12373 10031,12434 10031,11947 Z M 10021,12440 L 9762,12589 9366,12589 9365,12329 10021,11953 10021,12440 Z"/>
    <path fill="rgb(59,59,59)" stroke="none" d="M 9762,12589 L 9367,12816 9366,12589 9762,12589 Z M 10021,11953 L 10137,11886 10137,12373 10021,12440 10021,11953 Z M 10011,12445 L 9779,12579 9366,12579 9365,12329 10011,11958 10011,12445 Z"/>
    <path fill="rgb(62,62,62)" stroke="none" d="M 9779,12579 L 9367,12816 9366,12579 9779,12579 Z M 10011,11958 L 10137,11886 10137,12373 10011,12445 10011,11958 Z M 10001,12451 L 9796,12569 9366,12569 9365,12329 10001,11964 10001,12451 Z"/>
    <path fill="rgb(64,64,64)" stroke="none" d="M 9796,12569 L 9367,12816 9366,12569 9796,12569 Z M 10001,11964 L 10137,11886 10137,12373 10001,12451 10001,11964 Z M 9991,12457 L 9814,12559 9366,12559 9365,12329 9991,11970 9991,12457 Z"/>
    <path fill="rgb(66,66,66)" stroke="none" d="M 9814,12559 L 9367,12816 9366,12559 9814,12559 Z M 9991,11970 L 10137,11886 10137,12373 9991,12457 9991,11970 Z M 9980,12463 L 9833,12548 9366,12548 9365,12329 9980,11976 9980,12463 Z"/>
    <path fill="rgb(68,68,68)" stroke="none" d="M 9833,12548 L 9367,12816 9366,12548 9833,12548 Z M 9980,11976 L 10137,11886 10137,12373 9980,12463 9980,11976 Z M 9970,12469 L 9850,12538 9366,12538 9365,12329 9970,11982 9970,12469 Z"/>
    <path fill="rgb(70,70,70)" stroke="none" d="M 9850,12538 L 9367,12816 9366,12538 9850,12538 Z M 9970,11982 L 10137,11886 10137,12373 9970,12469 9970,11982 Z M 9960,12475 L 9868,12528 9366,12528 9365,12329 9960,11988 9960,12475 Z"/>
    <path fill="rgb(73,73,73)" stroke="none" d="M 9868,12528 L 9367,12816 9366,12528 9868,12528 Z M 9960,11988 L 10137,11886 10137,12373 9960,12475 9960,11988 Z M 9950,12481 L 9885,12518 9366,12518 9365,12329 9950,11993 9950,12481 Z"/>
    <path fill="rgb(75,75,75)" stroke="none" d="M 9885,12518 L 9367,12816 9366,12518 9885,12518 Z M 9950,11993 L 10137,11886 10137,12373 9950,12481 9950,11993 Z M 9940,12486 L 9902,12508 9366,12508 9365,12329 9940,11999 9940,12486 Z"/>
    <path fill="rgb(77,77,77)" stroke="none" d="M 9902,12508 L 9367,12816 9366,12508 9902,12508 Z M 9940,11999 L 10137,11886 10137,12373 9940,12486 9940,11999 Z M 9930,12492 L 9920,12498 9366,12498 9365,12329 9930,12005 9930,12492 Z"/>
    <path fill="rgb(79,79,79)" stroke="none" d="M 9920,12498 L 9367,12816 9366,12498 9920,12498 Z M 9930,12005 L 10137,11886 10137,12373 9930,12492 9930,12005 Z M 9920,12488 L 9366,12488 9365,12329 9920,12011 9920,12488 Z"/>
    <path fill="rgb(82,82,82)" stroke="none" d="M 9920,12488 L 9920,12011 10137,11886 10137,12373 9367,12816 9366,12488 9920,12488 Z M 9909,12477 L 9366,12477 9365,12329 9909,12017 9909,12477 Z"/>
    <path fill="rgb(84,84,84)" stroke="none" d="M 9909,12477 L 9909,12017 10137,11886 10137,12373 9367,12816 9366,12477 9909,12477 Z M 9899,12467 L 9366,12467 9365,12329 9899,12023 9899,12467 Z"/>
    <path fill="rgb(86,86,86)" stroke="none" d="M 9899,12467 L 9899,12023 10137,11886 10137,12373 9367,12816 9366,12467 9899,12467 Z M 9889,12457 L 9366,12457 9365,12329 9889,12028 9889,12457 Z"/>
    <path fill="rgb(88,88,88)" stroke="none" d="M 9889,12457 L 9889,12028 10137,11886 10137,12373 9367,12816 9366,12457 9889,12457 Z M 9879,12447 L 9365,12447 9365,12329 9879,12034 9879,12447 Z"/>
    <path fill="rgb(90,90,90)" stroke="none" d="M 9879,12447 L 9879,12034 10137,11886 10137,12373 9367,12816 9365,12447 9879,12447 Z M 9869,12437 L 9365,12437 9365,12329 9869,12040 9869,12437 Z"/>
    <path fill="rgb(93,93,93)" stroke="none" d="M 9869,12437 L 9869,12040 10137,11886 10137,12373 9367,12816 9365,12437 9869,12437 Z M 9859,12427 L 9365,12427 9365,12329 9859,12046 9859,12427 Z"/>
    <path fill="rgb(95,95,95)" stroke="none" d="M 9859,12427 L 9859,12046 10137,11886 10137,12373 9367,12816 9365,12427 9859,12427 Z M 9849,12417 L 9365,12417 9365,12329 9849,12051 9849,12417 Z"/>
    <path fill="rgb(97,97,97)" stroke="none" d="M 9849,12417 L 9849,12051 10137,11886 10137,12373 9367,12816 9365,12417 9849,12417 Z M 9838,12406 L 9365,12406 9365,12329 9838,12058 9838,12406 Z"/>
    <path fill="rgb(99,99,99)" stroke="none" d="M 9838,12406 L 9838,12058 10137,11886 10137,12373 9367,12816 9365,12406 9838,12406 Z M 9828,12396 L 9365,12396 9365,12329 9828,12063 9828,12396 Z"/>
    <path fill="rgb(102,102,102)" stroke="none" d="M 9828,12396 L 9828,12063 10137,11886 10137,12373 9367,12816 9365,12396 9828,12396 Z M 9818,12386 L 9373,12386 9373,12324 9818,12069 9818,12386 Z"/>
    <path fill="rgb(104,104,104)" stroke="none" d="M 9373,12386 L 9818,12386 9818,12069 10137,11886 10137,12373 9367,12816 9365,12329 9373,12324 9373,12386 Z M 9808,12376 L 9383,12376 9383,12319 9808,12075 9808,12376 Z"/>
    <path fill="rgb(106,106,106)" stroke="none" d="M 9383,12376 L 9808,12376 9808,12075 10137,11886 10137,12373 9367,12816 9365,12329 9383,12319 9383,12376 Z M 9798,12366 L 9393,12366 9393,12313 9798,12081 9798,12366 Z"/>
    <path fill="rgb(108,108,108)" stroke="none" d="M 9393,12366 L 9798,12366 9798,12081 10137,11886 10137,12373 9367,12816 9365,12329 9393,12313 9393,12366 Z M 9788,12356 L 9403,12356 9403,12307 9788,12086 9788,12356 Z"/>
    <path fill="rgb(110,110,110)" stroke="none" d="M 9403,12356 L 9788,12356 9788,12086 10137,11886 10137,12373 9367,12816 9365,12329 9403,12307 9403,12356 Z M 9778,12346 L 9413,12346 9413,12301 9778,12092 9778,12346 Z"/>
    <path fill="rgb(113,113,113)" stroke="none" d="M 9413,12346 L 9778,12346 9778,12092 10137,11886 10137,12373 9367,12816 9365,12329 9413,12301 9413,12346 Z M 9767,12335 L 9424,12335 9424,12295 9767,12098 9767,12335 Z"/>
    <path fill="rgb(115,115,115)" stroke="none" d="M 9424,12335 L 9767,12335 9767,12098 10137,11886 10137,12373 9367,12816 9365,12329 9424,12295 9424,12335 Z M 9757,12325 L 9434,12325 9434,12289 9757,12104 9757,12325 Z"/>
    <path fill="rgb(117,117,117)" stroke="none" d="M 9434,12325 L 9757,12325 9757,12104 10137,11886 10137,12373 9367,12816 9365,12329 9434,12289 9434,12325 Z M 9747,12315 L 9444,12315 9444,12284 9747,12110 9747,12315 Z"/>
    <path fill="rgb(119,119,119)" stroke="none" d="M 9444,12315 L 9747,12315 9747,12110 10137,11886 10137,12373 9367,12816 9365,12329 9444,12284 9444,12315 Z M 9737,12305 L 9454,12305 9454,12278 9737,12116 9737,12305 Z"/>
    <path fill="rgb(121,121,121)" stroke="none" d="M 9454,12305 L 9737,12305 9737,12116 10137,11886 10137,12373 9367,12816 9365,12329 9454,12278 9454,12305 Z M 9727,12295 L 9464,12295 9464,12272 9727,12121 9727,12295 Z"/>
    <path fill="rgb(124,124,124)" stroke="none" d="M 9464,12295 L 9727,12295 9727,12121 10137,11886 10137,12373 9367,12816 9365,12329 9464,12272 9464,12295 Z M 9717,12285 L 9474,12285 9474,12266 9717,12127 9717,12285 Z"/>
    <path fill="rgb(126,126,126)" stroke="none" d="M 9474,12285 L 9717,12285 9717,12127 10137,11886 10137,12373 9367,12816 9365,12329 9474,12266 9474,12285 Z M 9707,12275 L 9484,12275 9484,12261 9707,12133 9707,12275 Z"/>
    <path fill="rgb(128,128,128)" stroke="none" d="M 9484,12275 L 9707,12275 9707,12133 10137,11886 10137,12373 9367,12816 9365,12329 9484,12261 9484,12275 Z M 9696,12264 L 9495,12264 9495,12254 9696,12139 9696,12264 Z"/>
    <path fill="rgb(130,130,130)" stroke="none" d="M 9495,12264 L 9696,12264 9696,12139 10137,11886 10137,12373 9367,12816 9365,12329 9495,12254 9495,12264 Z M 9686,12254 L 9505,12254 9505,12249 9686,12145 9686,12254 Z"/>
    <path fill="rgb(133,133,133)" stroke="none" d="M 9505,12254 L 9686,12254 9686,12145 10137,11886 10137,12373 9367,12816 9365,12329 9505,12249 9505,12254 Z M 9676,12244 L 9515,12244 9515,12243 9676,12151 9676,12244 Z"/>
    <path fill="rgb(135,135,135)" stroke="none" d="M 9515,12244 L 9676,12244 9676,12151 10137,11886 10137,12373 9367,12816 9365,12329 9515,12243 9515,12244 Z M 9666,12234 L 9531,12234 9666,12156 9666,12234 Z"/>
    <path fill="rgb(137,137,137)" stroke="none" d="M 9666,12234 L 9666,12156 10137,11886 10137,12373 9367,12816 9365,12329 9531,12234 9666,12234 Z M 9656,12224 L 9548,12224 9656,12162 9656,12224 Z"/>
    <path fill="rgb(139,139,139)" stroke="none" d="M 9656,12224 L 9656,12162 10137,11886 10137,12373 9367,12816 9365,12329 9548,12224 9656,12224 Z M 9646,12214 L 9565,12214 9646,12168 9646,12214 Z"/>
    <path fill="rgb(141,141,141)" stroke="none" d="M 9646,12214 L 9646,12168 10137,11886 10137,12373 9367,12816 9365,12329 9565,12214 9646,12214 Z M 9636,12204 L 9583,12204 9636,12173 9636,12204 Z"/>
    <path fill="rgb(144,144,144)" stroke="none" d="M 9636,12204 L 9636,12173 10137,11886 10137,12373 9367,12816 9365,12329 9583,12204 9636,12204 Z M 9625,12193 L 9602,12193 9625,12180 9625,12193 Z"/>
    <path fill="rgb(146,146,146)" stroke="none" d="M 9625,12193 L 9625,12180 10137,11886 10137,12373 9367,12816 9365,12329 9602,12193 9625,12193 Z"/>
    <path fill="rgb(148,148,148)" stroke="none" d="M 9367,12816 L 9365,12329 10137,11886 10137,12373 9367,12816 Z"/>
    <path fill="rgb(153,153,153)" stroke="none" d="M 9367,12816 L 9365,12329 10137,11886 10137,12373 9367,12816 Z"/>
    <path fill="none" stroke="rgb(178,178,178)" id="Drawing_5_0" stroke-width="40" stroke-linejoin="round" d="M 9367,12816 L 9365,12329 10137,11886 10137,12373 9367,12816 Z"/>
   </g>
   <g>
    <defs>
     <linearGradient id="Gradient_328" gradientUnits="userSpaceOnUse" x1="9637" y1="11753" x2="9637" y2="12329">
      <stop offset="0.1" stop-color="rgb(51,51,51)"/>
      <stop offset="1" stop-color="rgb(153,153,153)"/>
     </linearGradient>
    </defs>
    <path fill="url(#Gradient_328)" stroke="rgb(178,178,178)" id="Drawing_6_0" stroke-width="40" stroke-linejoin="round" d="M 9369,12329 L 9138,12196 9906,11753 10137,11886 9369,12329 Z"/>
   </g>
   <g>
    <path fill="none" stroke="rgb(0,0,0)" id="Drawing_7_0" stroke-width="40" stroke-linejoin="round" d="M 9138,12683 L 9138,12196 9906,11753 10060,11842 10213,11753 10290,11797 10290,12107 10137,12196 10137,12373 9368,12816 9138,12683 Z"/>
   </g>
  </g>
 </g>
</svg>