<?xml version="1.0" encoding="UTF-8"?>

<svg version="1.2" baseProfile="tiny" width="60.24mm" height="48.57mm" viewBox="4663 4799 6024 4857" preserveAspectRatio="xMidYMid" fill-rule="evenodd" stroke-width="28.222" stroke-linejoin="round" xmlns="http://www.w3.org/2000/svg" xmlns:xlink="http://www.w3.org/1999/xlink" xml:space="preserve">
 <g visibility="visible" id="Slide_1">
  <g id="DrawingGroup_1">
   <g>
    <path fill="rgb(221,221,221)" stroke="none" d="M 10239,9636 C 10485,9636 10687,9584 10687,9428 10687,9273 10597,9273 10508,9273 10508,9428 10239,9428 10239,9636 Z"/>
    <path fill="none" stroke="rgb(221,221,221)" id="Drawing_1_0" stroke-linejoin="round" d="M 10239,9636 C 10485,9636 10687,9584 10687,9428 10687,9273 10597,9273 10508,9273 10508,9428 10239,9428 10239,9636 Z"/>
   </g>
   <g id="DrawingGroup_2">
    <g>
     <defs>
      <linearGradient id="Gradient_747" gradientUnits="userSpaceOnUse" x1="5220" y1="6709" x2="6476" y2="6711">
       <stop offset="0.1" stop-color="rgb(179,179,179)"/>
       <stop offset="1" stop-color="rgb(229,229,229)"/>
      </linearGradient>
     </defs>
     <path fill="url(#Gradient_747)" stroke="rgb(255,255,255)" id="Drawing_2_0" stroke-width="40" stroke-linejoin="round" d="M 5221,6736 L 5221,5959 6475,6684 6475,7461 5221,6736 Z"/>
    </g>
    <g>
     <defs>
      <linearGradient id="Gradient_748" gradientUnits="userSpaceOnUse" x1="5713" y1="4819" x2="5713" y2="6010">
       <stop offset="0.1" stop-color="rgb(179,179,179)"/>
       <stop offset="1" stop-color="rgb(229,229,229)"/>
      </linearGradient>
     </defs>
     <path fill="url(#Gradient_748)" stroke="rgb(255,255,255)" id="Drawing_3_0" stroke-width="40" stroke-linejoin="round" d="M 5937,6010 L 4683,5285 5489,4819 6744,5544 5937,6010 Z"/>
    </g>
    <g>
     <defs>
      <linearGradient id="Gradient_749" gradientUnits="userSpaceOnUse" x1="4682" y1="6138" x2="5938" y2="6140">
       <stop offset="0.1" stop-color="rgb(179,179,179)"/>
       <stop offset="1" stop-color="rgb(229,229,229)"/>
      </linearGradient>
     </defs>
     <path fill="url(#Gradient_749)" stroke="rgb(255,255,255)" id="Drawing_4_0" stroke-width="40" stroke-linejoin="round" d="M 4683,6269 L 4683,5285 5937,6010 5937,6994 4683,6269 Z"/>
    </g>
    <g>
     <path fill="rgb(179,179,179)" stroke="none" d="M 6475,7057 L 6475,6684 5937,6994 5937,6010 6743,5544 6743,7057 6475,7057 Z"/>
     <path fill="rgb(180,180,180)" stroke="none" d="M 6743,7057 L 6743,7305 6475,7460 6475,7057 6743,7057 Z M 6475,7038 L 6475,6684 5937,6994 5937,6010 6743,5544 6743,7038 6475,7038 Z"/>
     <path fill="rgb(181,181,181)" stroke="none" d="M 6743,7038 L 6743,7305 6475,7460 6475,7038 6743,7038 Z M 6475,7019 L 6475,6684 5937,6994 5937,6010 6743,5544 6743,7019 6475,7019 Z"/>
     <path fill="rgb(182,182,182)" stroke="none" d="M 6743,7019 L 6743,7305 6475,7460 6475,7019 6743,7019 Z M 6475,7000 L 6475,6684 5937,6994 5937,6010 6743,5544 6743,7000 6475,7000 Z"/>
     <path fill="rgb(183,183,183)" stroke="none" d="M 6743,7000 L 6743,7305 6475,7460 6475,7000 6743,7000 Z M 6475,6981 L 6475,6684 5960,6981 5937,6981 5937,6010 6743,5544 6743,6981 6475,6981 Z"/>
     <path fill="rgb(184,184,184)" stroke="none" d="M 5960,6981 L 5937,6994 5937,6981 5960,6981 Z M 6743,6981 L 6743,7305 6475,7460 6475,6981 6743,6981 Z M 6475,6961 L 6475,6684 5994,6961 5937,6961 5937,6010 6743,5544 6743,6961 6475,6961 Z"/>
     <path fill="rgb(185,185,185)" stroke="none" d="M 5994,6961 L 5937,6994 5937,6961 5994,6961 Z M 6743,6961 L 6743,7305 6475,7460 6475,6961 6743,6961 Z M 6475,6942 L 6475,6684 6027,6942 5937,6942 5937,6010 6743,5544 6743,6942 6475,6942 Z"/>
     <path fill="rgb(186,186,186)" stroke="none" d="M 6027,6942 L 5937,6994 5937,6942 6027,6942 Z M 6743,6942 L 6743,7305 6475,7460 6475,6942 6743,6942 Z M 6475,6923 L 6475,6684 6060,6923 5937,6923 5937,6010 6743,5544 6743,6923 6475,6923 Z"/>
     <path fill="rgb(187,187,187)" stroke="none" d="M 6060,6923 L 5937,6994 5937,6923 6060,6923 Z M 6743,6923 L 6743,7305 6475,7460 6475,6923 6743,6923 Z M 6475,6904 L 6475,6684 6093,6904 5937,6904 5937,6010 6743,5544 6743,6904 6475,6904 Z"/>
     <path fill="rgb(188,188,188)" stroke="none" d="M 6093,6904 L 5937,6994 5937,6904 6093,6904 Z M 6743,6904 L 6743,7305 6475,7460 6475,6904 6743,6904 Z M 6475,6885 L 6475,6684 6126,6885 5937,6885 5937,6010 6743,5544 6743,6885 6475,6885 Z"/>
     <path fill="rgb(189,189,189)" stroke="none" d="M 6126,6885 L 5937,6994 5937,6885 6126,6885 Z M 6743,6885 L 6743,7305 6475,7460 6475,6885 6743,6885 Z M 6475,6865 L 6475,6684 6161,6865 5937,6865 5937,6010 6743,5544 6743,6865 6475,6865 Z"/>
     <path fill="rgb(190,190,190)" stroke="none" d="M 6161,6865 L 5937,6994 5937,6865 6161,6865 Z M 6743,6865 L 6743,7305 6475,7460 6475,6865 6743,6865 Z M 6475,6846 L 6475,6684 6194,6846 5937,6846 5937,6010 6743,5544 6743,6846 6475,6846 Z"/>
     <path fill="rgb(191,191,191)" stroke="none" d="M 6194,6846 L 5937,6994 5937,6846 6194,6846 Z M 6743,6846 L 6743,7305 6475,7460 6475,6846 6743,6846 Z M 6475,6827 L 6475,6684 6227,6827 5937,6827 5937,6010 6743,5544 6743,6827 6475,6827 Z"/>
     <path fill="rgb(192,192,192)" stroke="none" d="M 6227,6827 L 5937,6994 5937,6827 6227,6827 Z M 6743,6827 L 6743,7305 6475,7460 6475,6827 6743,6827 Z M 6475,6808 L 6475,6684 6260,6808 5937,6808 5937,6010 6743,5544 6743,6808 6475,6808 Z"/>
     <path fill="rgb(193,193,193)" stroke="none" d="M 6260,6808 L 5937,6994 5937,6808 6260,6808 Z M 6743,6808 L 6743,7305 6475,7460 6475,6808 6743,6808 Z M 6475,6789 L 6475,6684 6293,6789 5937,6789 5937,6010 6743,5544 6743,6789 6475,6789 Z"/>
     <path fill="rgb(194,194,194)" stroke="none" d="M 6293,6789 L 5937,6994 5937,6789 6293,6789 Z M 6743,6789 L 6743,7305 6475,7460 6475,6789 6743,6789 Z M 6475,6769 L 6475,6684 6327,6769 5937,6769 5937,6010 6743,5544 6743,6769 6475,6769 Z"/>
     <path fill="rgb(195,195,195)" stroke="none" d="M 6327,6769 L 5937,6994 5937,6769 6327,6769 Z M 6743,6769 L 6743,7305 6475,7460 6475,6769 6743,6769 Z M 6475,6750 L 6475,6684 6360,6750 5937,6750 5937,6010 6743,5544 6743,6750 6475,6750 Z"/>
     <path fill="rgb(196,196,196)" stroke="none" d="M 6360,6750 L 5937,6994 5937,6750 6360,6750 Z M 6743,6750 L 6743,7305 6475,7460 6475,6750 6743,6750 Z M 6475,6731 L 6475,6684 6393,6731 5937,6731 5937,6010 6743,5544 6743,6731 6475,6731 Z"/>
     <path fill="rgb(197,197,197)" stroke="none" d="M 6393,6731 L 5937,6994 5937,6731 6393,6731 Z M 6743,6731 L 6743,7305 6475,7460 6475,6731 6743,6731 Z M 6475,6712 L 6475,6684 6426,6712 5937,6712 5937,6010 6743,5544 6743,6712 6475,6712 Z"/>
     <path fill="rgb(198,198,198)" stroke="none" d="M 6426,6712 L 5937,6994 5937,6712 6426,6712 Z M 6743,6712 L 6743,7305 6475,7460 6475,6712 6743,6712 Z M 6475,6693 L 6475,6684 6459,6693 5937,6693 5937,6010 6743,5544 6743,6693 6475,6693 Z"/>
     <path fill="rgb(199,199,199)" stroke="none" d="M 6459,6693 L 5937,6994 5937,6693 6459,6693 Z M 6743,6693 L 6743,7305 6475,7460 6475,6693 6743,6693 Z M 6734,5561 L 6734,6674 5937,6674 5937,6010 6714,5561 6734,5561 Z"/>
     <path fill="rgb(200,200,200)" stroke="none" d="M 6734,6674 L 6734,5561 6714,5561 6743,5544 6743,7305 6475,7460 6475,6684 5937,6994 5937,6674 6734,6674 Z M 6714,5581 L 6714,6654 5937,6654 5937,6010 6679,5581 6714,5581 Z"/>
     <path fill="rgb(201,201,201)" stroke="none" d="M 6714,6654 L 6714,5581 6679,5581 6743,5544 6743,7305 6475,7460 6475,6684 5937,6994 5937,6654 6714,6654 Z M 6695,5600 L 6695,6635 5937,6635 5937,6010 6646,5600 6695,5600 Z"/>
     <path fill="rgb(202,202,202)" stroke="none" d="M 6695,6635 L 6695,5600 6646,5600 6743,5544 6743,7305 6475,7460 6475,6684 5937,6994 5937,6635 6695,6635 Z M 6676,5619 L 6676,6616 5937,6616 5937,6010 6613,5619 6676,5619 Z"/>
     <path fill="rgb(203,203,203)" stroke="none" d="M 6676,6616 L 6676,5619 6613,5619 6743,5544 6743,7305 6475,7460 6475,6684 5937,6994 5937,6616 6676,6616 Z M 6657,5638 L 6657,6597 5937,6597 5937,6010 6580,5638 6657,5638 Z"/>
     <path fill="rgb(204,204,204)" stroke="none" d="M 6657,6597 L 6657,5638 6580,5638 6743,5544 6743,7305 6475,7460 6475,6684 5937,6994 5937,6597 6657,6597 Z M 6638,5657 L 6638,6578 5937,6578 5937,6010 6548,5657 6638,5657 Z"/>
     <path fill="rgb(205,205,205)" stroke="none" d="M 6638,6578 L 6638,5657 6548,5657 6743,5544 6743,7305 6475,7460 6475,6684 5937,6994 5937,6578 6638,6578 Z M 6618,5677 L 6618,6558 5937,6558 5937,6010 6513,5677 6618,5677 Z"/>
     <path fill="rgb(206,206,206)" stroke="none" d="M 6618,6558 L 6618,5677 6513,5677 6743,5544 6743,7305 6475,7460 6475,6684 5937,6994 5937,6558 6618,6558 Z M 6599,5696 L 6599,6539 5937,6539 5937,6010 6480,5696 6599,5696 Z"/>
     <path fill="rgb(207,207,207)" stroke="none" d="M 6599,6539 L 6599,5696 6480,5696 6743,5544 6743,7305 6475,7460 6475,6684 5937,6994 5937,6539 6599,6539 Z M 6580,5715 L 6580,6520 5937,6520 5937,6010 6447,5715 6580,5715 Z"/>
     <path fill="rgb(208,208,208)" stroke="none" d="M 6580,6520 L 6580,5715 6447,5715 6743,5544 6743,7305 6475,7460 6475,6684 5937,6994 5937,6520 6580,6520 Z M 6561,5734 L 6561,6501 5937,6501 5937,6010 6414,5734 6561,5734 Z"/>
     <path fill="rgb(209,209,209)" stroke="none" d="M 6561,6501 L 6561,5734 6414,5734 6743,5544 6743,7305 6475,7460 6475,6684 5937,6994 5937,6501 6561,6501 Z M 6542,5753 L 6542,6482 5937,6482 5937,6010 6382,5753 6542,5753 Z"/>
     <path fill="rgb(210,210,210)" stroke="none" d="M 6542,6482 L 6542,5753 6382,5753 6743,5544 6743,7305 6475,7460 6475,6684 5937,6994 5937,6482 6542,6482 Z M 6522,5773 L 6522,6462 5937,6462 5937,6010 6347,5773 6522,5773 Z"/>
     <path fill="rgb(211,211,211)" stroke="none" d="M 6522,6462 L 6522,5773 6347,5773 6743,5544 6743,7305 6475,7460 6475,6684 5937,6994 5937,6462 6522,6462 Z M 6503,5792 L 6503,6443 5937,6443 5937,6010 6314,5792 6503,5792 Z"/>
     <path fill="rgb(212,212,212)" stroke="none" d="M 6503,6443 L 6503,5792 6314,5792 6743,5544 6743,7305 6475,7460 6475,6684 5937,6994 5937,6443 6503,6443 Z M 6484,5811 L 6484,6424 5937,6424 5937,6010 6281,5811 6484,5811 Z"/>
     <path fill="rgb(213,213,213)" stroke="none" d="M 6484,6424 L 6484,5811 6281,5811 6743,5544 6743,7305 6475,7460 6475,6684 5937,6994 5937,6424 6484,6424 Z M 6465,5830 L 6465,6405 5937,6405 5937,6010 6248,5830 6465,5830 Z"/>
     <path fill="rgb(214,214,214)" stroke="none" d="M 6465,6405 L 6465,5830 6248,5830 6743,5544 6743,7305 6475,7460 6475,6684 5937,6994 5937,6405 6465,6405 Z M 6446,5849 L 6446,6386 5937,6386 5937,6010 6215,5849 6446,5849 Z"/>
     <path fill="rgb(215,215,215)" stroke="none" d="M 6446,6386 L 6446,5849 6215,5849 6743,5544 6743,7305 6475,7460 6475,6684 5937,6994 5937,6386 6446,6386 Z M 6426,5869 L 6426,6366 5937,6366 5937,6010 6181,5869 6426,5869 Z"/>
     <path fill="rgb(216,216,216)" stroke="none" d="M 6426,6366 L 6426,5869 6181,5869 6743,5544 6743,7305 6475,7460 6475,6684 5937,6994 5937,6366 6426,6366 Z M 6407,5888 L 6407,6347 5948,6347 5948,6004 6148,5888 6407,5888 Z"/>
     <path fill="rgb(217,217,217)" stroke="none" d="M 5948,6347 L 6407,6347 6407,5888 6148,5888 6743,5544 6743,7305 6475,7460 6475,6684 5937,6994 5937,6010 5948,6004 5948,6347 Z M 6388,5907 L 6388,6328 5967,6328 5967,5993 6115,5907 6388,5907 Z"/>
     <path fill="rgb(218,218,218)" stroke="none" d="M 5967,6328 L 6388,6328 6388,5907 6115,5907 6743,5544 6743,7305 6475,7460 6475,6684 5937,6994 5937,6010 5967,5993 5967,6328 Z M 6369,5926 L 6369,6309 5986,6309 5986,5982 6082,5926 6369,5926 Z"/>
     <path fill="rgb(219,219,219)" stroke="none" d="M 5986,6309 L 6369,6309 6369,5926 6082,5926 6743,5544 6743,7305 6475,7460 6475,6684 5937,6994 5937,6010 5986,5982 5986,6309 Z M 6350,5945 L 6350,6290 6005,6290 6005,5971 6049,5945 6350,5945 Z"/>
     <path fill="rgb(220,220,220)" stroke="none" d="M 6005,6290 L 6350,6290 6350,5945 6049,5945 6743,5544 6743,7305 6475,7460 6475,6684 5937,6994 5937,6010 6005,5971 6005,6290 Z M 6024,5964 L 6331,5964 6331,6271 6024,6271 6024,5964 Z"/>
     <path fill="rgb(221,221,221)" stroke="none" d="M 6024,5964 L 6024,6271 6331,6271 6331,5964 6024,5964 Z M 6044,5984 L 6311,5984 6311,6251 6044,6251 6044,5984 Z M 6475,6684 L 5937,6994 5937,6010 6743,5544 6743,7305 6475,7460 6475,6684 Z"/>
     <path fill="rgb(222,222,222)" stroke="none" d="M 6044,5984 L 6044,6251 6311,6251 6311,5984 6044,5984 Z M 6063,6003 L 6292,6003 6292,6232 6063,6232 6063,6003 Z M 6475,6684 L 5937,6994 5937,6010 6743,5544 6743,7305 6475,7460 6475,6684 Z"/>
     <path fill="rgb(223,223,223)" stroke="none" d="M 6063,6003 L 6063,6232 6292,6232 6292,6003 6063,6003 Z M 6082,6022 L 6273,6022 6273,6213 6082,6213 6082,6022 Z M 6475,6684 L 5937,6994 5937,6010 6743,5544 6743,7305 6475,7460 6475,6684 Z"/>
     <path fill="rgb(224,224,224)" stroke="none" d="M 6082,6022 L 6082,6213 6273,6213 6273,6022 6082,6022 Z M 6101,6041 L 6254,6041 6254,6194 6101,6194 6101,6041 Z M 6475,6684 L 5937,6994 5937,6010 6743,5544 6743,7305 6475,7460 6475,6684 Z"/>
     <path fill="rgb(225,225,225)" stroke="none" d="M 6101,6041 L 6101,6194 6254,6194 6254,6041 6101,6041 Z M 6120,6060 L 6235,6060 6235,6175 6120,6175 6120,6060 Z M 6475,6684 L 5937,6994 5937,6010 6743,5544 6743,7305 6475,7460 6475,6684 Z"/>
     <path fill="rgb(226,226,226)" stroke="none" d="M 6120,6060 L 6120,6175 6235,6175 6235,6060 6120,6060 Z M 6140,6080 L 6215,6080 6215,6155 6140,6155 6140,6080 Z M 6475,6684 L 5937,6994 5937,6010 6743,5544 6743,7305 6475,7460 6475,6684 Z"/>
     <path fill="rgb(227,227,227)" stroke="none" d="M 6140,6080 L 6140,6155 6215,6155 6215,6080 6140,6080 Z M 6159,6099 L 6196,6099 6196,6136 6159,6136 6159,6099 Z M 6475,6684 L 5937,6994 5937,6010 6743,5544 6743,7305 6475,7460 6475,6684 Z"/>
     <path fill="rgb(229,229,229)" stroke="none" d="M 6159,6099 L 6159,6136 6196,6136 6196,6099 6159,6099 Z M 6475,6684 L 5937,6994 5937,6010 6743,5544 6743,7305 6475,7460 6475,6684 Z"/>
     <path fill="none" stroke="rgb(255,255,255)" id="Drawing_5_0" stroke-width="40" stroke-linejoin="round" d="M 6475,6684 L 5937,6994 5937,6010 6743,5544 6743,7305 6475,7460 6475,6684 Z"/>
    </g>
    <g>
     <path fill="none" stroke="rgb(0,0,0)" id="Drawing_6_0" stroke-width="40" stroke-linejoin="round" d="M 5221,6735 L 5221,6580 4683,6269 4683,5285 5489,4819 6744,5544 6744,7305 6475,7461 5221,6735 Z"/>
    </g>
    <g>
     <path fill="rgb(127,127,127)" stroke="none" d="M 4773,5596 L 4773,5492 4863,5544 4863,5647 4773,5596 Z"/>
     <path fill="none" stroke="rgb(0,0,0)" id="Drawing_7_0" stroke-width="40" stroke-linejoin="round" d="M 4773,5596 L 4773,5492 4863,5544 4863,5647 4773,5596 Z"/>
    </g>
   </g>
   <g id="DrawingGroup_3">
    <g>
     <defs>
      <linearGradient id="Gradient_750" gradientUnits="userSpaceOnUse" x1="6474" y1="7873" x2="8358" y2="7877">
       <stop offset="0.1" stop-color="rgb(179,179,179)"/>
       <stop offset="1" stop-color="rgb(229,229,229)"/>
      </linearGradient>
     </defs>
     <path fill="url(#Gradient_750)" stroke="rgb(255,255,255)" id="Drawing_8_0" stroke-width="40" stroke-linejoin="round" d="M 6475,7461 L 6475,7202 8357,8290 8357,8549 6475,7461 Z"/>
    </g>
    <g>
     <defs>
      <linearGradient id="Gradient_751" gradientUnits="userSpaceOnUse" x1="6295" y1="7717" x2="8179" y2="7721">
       <stop offset="0.1" stop-color="rgb(179,179,179)"/>
       <stop offset="1" stop-color="rgb(229,229,229)"/>
      </linearGradient>
     </defs>
     <path fill="url(#Gradient_751)" stroke="rgb(255,255,255)" id="Drawing_9_0" stroke-width="40" stroke-linejoin="round" d="M 6296,7305 L 6296,7046 8178,8134 8178,8393 6296,7305 Z"/>
    </g>
    <g>
     <defs>
      <linearGradient id="Gradient_752" gradientUnits="userSpaceOnUse" x1="6116" y1="7562" x2="8000" y2="7566">
       <stop offset="0.1" stop-color="rgb(179,179,179)"/>
       <stop offset="1" stop-color="rgb(229,229,229)"/>
      </linearGradient>
     </defs>
     <path fill="url(#Gradient_752)" stroke="rgb(255,255,255)" id="Drawing_10_0" stroke-width="40" stroke-linejoin="round" d="M 6117,7150 L 6117,6891 7999,7979 7999,8238 6117,7150 Z"/>
    </g>
    <g>
     <defs>
      <linearGradient id="Gradient_753" gradientUnits="userSpaceOnUse" x1="7281" y1="5544" x2="7281" y2="7098">
       <stop offset="0.1" stop-color="rgb(179,179,179)"/>
       <stop offset="1" stop-color="rgb(229,229,229)"/>
      </linearGradient>
     </defs>
     <path fill="url(#Gradient_753)" stroke="rgb(255,255,255)" id="Drawing_11_0" stroke-width="40" stroke-linejoin="round" d="M 7819,7098 L 5937,6010 6743,5544 8625,6632 7819,7098 Z"/>
    </g>
    <g>
     <path fill="rgb(127,127,127)" stroke="none" d="M 8178,8393 L 8178,8289 8268,8341 8268,8444 8178,8393 Z"/>
     <path fill="none" stroke="rgb(0,0,0)" id="Drawing_12_0" stroke-width="40" stroke-linejoin="round" d="M 8178,8393 L 8178,8289 8268,8341 8268,8444 8178,8393 Z"/>
    </g>
    <g>
     <path fill="rgb(127,127,127)" stroke="none" d="M 7998,8238 L 7998,8134 8088,8186 8088,8289 7998,8238 Z"/>
     <path fill="none" stroke="rgb(0,0,0)" id="Drawing_13_0" stroke-width="40" stroke-linejoin="round" d="M 7998,8238 L 7998,8134 8088,8186 8088,8289 7998,8238 Z"/>
    </g>
    <g>
     <defs>
      <linearGradient id="Gradient_754" gradientUnits="userSpaceOnUse" x1="5935" y1="7044" x2="7821" y2="7048">
       <stop offset="0.1" stop-color="rgb(179,179,179)"/>
       <stop offset="1" stop-color="rgb(229,229,229)"/>
      </linearGradient>
     </defs>
     <path fill="url(#Gradient_754)" stroke="rgb(255,255,255)" id="Drawing_14_0" stroke-width="40" stroke-linejoin="round" d="M 5937,6994 L 5937,6010 7819,7098 7819,8082 5937,6994 Z"/>
    </g>
    <g>
     <path fill="rgb(127,127,127)" stroke="none" d="M 7819,8083 L 7819,7979 7909,8031 7909,8134 7819,8083 Z"/>
     <path fill="none" stroke="rgb(0,0,0)" id="Drawing_15_0" stroke-width="40" stroke-linejoin="round" d="M 7819,8083 L 7819,7979 7909,8031 7909,8134 7819,8083 Z"/>
    </g>
    <g>
     <path fill="rgb(179,179,179)" stroke="none" d="M 8177,8145 L 8177,8134 8158,8145 7998,8145 7998,7979 7819,8082 7819,7098 8625,6632 8625,8145 8177,8145 Z"/>
     <path fill="rgb(180,180,180)" stroke="none" d="M 8158,8145 L 7998,8238 7998,8145 8158,8145 Z M 8625,8145 L 8625,8393 8357,8548 8357,8289 8177,8393 8177,8145 8625,8145 Z M 7998,8126 L 7998,7979 7819,8082 7819,7098 8625,6632 8625,8126 7998,8126 Z"/>
     <path fill="rgb(181,181,181)" stroke="none" d="M 8625,8126 L 8625,8393 8357,8548 8357,8289 8177,8393 8177,8134 7998,8238 7998,8126 8625,8126 Z M 7998,8107 L 7998,7979 7819,8082 7819,7098 8625,6632 8625,8107 7998,8107 Z"/>
     <path fill="rgb(182,182,182)" stroke="none" d="M 8625,8107 L 8625,8393 8357,8548 8357,8289 8177,8393 8177,8134 7998,8238 7998,8107 8625,8107 Z M 7998,8088 L 7998,7979 7819,8082 7819,7098 8625,6632 8625,8088 7998,8088 Z"/>
     <path fill="rgb(183,183,183)" stroke="none" d="M 8625,8088 L 8625,8393 8357,8548 8357,8289 8177,8393 8177,8134 7998,8238 7998,8088 8625,8088 Z M 7998,8069 L 7998,7979 7842,8069 7819,8069 7819,7098 8625,6632 8625,8069 7998,8069 Z"/>
     <path fill="rgb(184,184,184)" stroke="none" d="M 7842,8069 L 7819,8082 7819,8069 7842,8069 Z M 8625,8069 L 8625,8393 8357,8548 8357,8289 8177,8393 8177,8134 7998,8238 7998,8069 8625,8069 Z M 7998,8049 L 7998,7979 7876,8049 7819,8049 7819,7098 8625,6632 8625,8049 7998,8049 Z"/>
     <path fill="rgb(185,185,185)" stroke="none" d="M 7876,8049 L 7819,8082 7819,8049 7876,8049 Z M 8625,8049 L 8625,8393 8357,8548 8357,8289 8177,8393 8177,8134 7998,8238 7998,8049 8625,8049 Z M 7998,8030 L 7998,7979 7909,8030 7819,8030 7819,7098 8625,6632 8625,8030 7998,8030 Z"/>
     <path fill="rgb(186,186,186)" stroke="none" d="M 7909,8030 L 7819,8082 7819,8030 7909,8030 Z M 8625,8030 L 8625,8393 8357,8548 8357,8289 8177,8393 8177,8134 7998,8238 7998,8030 8625,8030 Z M 7998,8011 L 7998,7979 7942,8011 7819,8011 7819,7098 8625,6632 8625,8011 7998,8011 Z"/>
     <path fill="rgb(187,187,187)" stroke="none" d="M 7942,8011 L 7819,8082 7819,8011 7942,8011 Z M 8625,8011 L 8625,8393 8357,8548 8357,8289 8177,8393 8177,8134 7998,8238 7998,8011 8625,8011 Z M 7998,7992 L 7998,7979 7975,7992 7819,7992 7819,7098 8625,6632 8625,7992 7998,7992 Z"/>
     <path fill="rgb(188,188,188)" stroke="none" d="M 7975,7992 L 7819,8082 7819,7992 7975,7992 Z M 8625,7992 L 8625,8393 8357,8548 8357,8289 8177,8393 8177,8134 7998,8238 7998,7992 8625,7992 Z M 7819,7973 L 7819,7098 8625,6632 8625,7973 7819,7973 Z"/>
     <path fill="rgb(189,189,189)" stroke="none" d="M 8625,7973 L 8625,8393 8357,8548 8357,8289 8177,8393 8177,8134 7998,8238 7998,7979 7819,8082 7819,7973 8625,7973 Z M 7819,7953 L 7819,7098 8625,6632 8625,7953 7819,7953 Z"/>
     <path fill="rgb(190,190,190)" stroke="none" d="M 8625,7953 L 8625,8393 8357,8548 8357,8289 8177,8393 8177,8134 7998,8238 7998,7979 7819,8082 7819,7953 8625,7953 Z M 7819,7934 L 7819,7098 8625,6632 8625,7934 7819,7934 Z"/>
     <path fill="rgb(191,191,191)" stroke="none" d="M 8625,7934 L 8625,8393 8357,8548 8357,8289 8177,8393 8177,8134 7998,8238 7998,7979 7819,8082 7819,7934 8625,7934 Z M 7819,7915 L 7819,7098 8625,6632 8625,7915 7819,7915 Z"/>
     <path fill="rgb(192,192,192)" stroke="none" d="M 8625,7915 L 8625,8393 8357,8548 8357,8289 8177,8393 8177,8134 7998,8238 7998,7979 7819,8082 7819,7915 8625,7915 Z M 7819,7896 L 7819,7098 8625,6632 8625,7896 7819,7896 Z"/>
     <path fill="rgb(193,193,193)" stroke="none" d="M 8625,7896 L 8625,8393 8357,8548 8357,8289 8177,8393 8177,8134 7998,8238 7998,7979 7819,8082 7819,7896 8625,7896 Z M 7819,7877 L 7819,7098 8625,6632 8625,7877 7819,7877 Z"/>
     <path fill="rgb(194,194,194)" stroke="none" d="M 8625,7877 L 8625,8393 8357,8548 8357,8289 8177,8393 8177,8134 7998,8238 7998,7979 7819,8082 7819,7877 8625,7877 Z M 7819,7857 L 7819,7098 8625,6632 8625,7857 7819,7857 Z"/>
     <path fill="rgb(195,195,195)" stroke="none" d="M 8625,7857 L 8625,8393 8357,8548 8357,8289 8177,8393 8177,8134 7998,8238 7998,7979 7819,8082 7819,7857 8625,7857 Z M 7819,7838 L 7819,7098 8625,6632 8625,7838 7819,7838 Z"/>
     <path fill="rgb(196,196,196)" stroke="none" d="M 8625,7838 L 8625,8393 8357,8548 8357,8289 8177,8393 8177,8134 7998,8238 7998,7979 7819,8082 7819,7838 8625,7838 Z M 7819,7819 L 7819,7098 8625,6632 8625,7819 7819,7819 Z"/>
     <path fill="rgb(197,197,197)" stroke="none" d="M 8625,7819 L 8625,8393 8357,8548 8357,8289 8177,8393 8177,8134 7998,8238 7998,7979 7819,8082 7819,7819 8625,7819 Z M 7819,7800 L 7819,7098 8625,6632 8625,7800 7819,7800 Z"/>
     <path fill="rgb(198,198,198)" stroke="none" d="M 8625,7800 L 8625,8393 8357,8548 8357,8289 8177,8393 8177,8134 7998,8238 7998,7979 7819,8082 7819,7800 8625,7800 Z M 7819,7781 L 7819,7098 8625,6632 8625,7781 7819,7781 Z"/>
     <path fill="rgb(199,199,199)" stroke="none" d="M 8625,7781 L 8625,8393 8357,8548 8357,8289 8177,8393 8177,8134 7998,8238 7998,7979 7819,8082 7819,7781 8625,7781 Z M 8616,6649 L 8616,7762 7819,7762 7819,7098 8596,6649 8616,6649 Z"/>
     <path fill="rgb(200,200,200)" stroke="none" d="M 8616,7762 L 8616,6649 8596,6649 8625,6632 8625,8393 8357,8548 8357,8289 8177,8393 8177,8134 7998,8238 7998,7979 7819,8082 7819,7762 8616,7762 Z M 8596,6669 L 8596,7742 7819,7742 7819,7098 8561,6669 8596,6669 Z"/>
     <path fill="rgb(201,201,201)" stroke="none" d="M 8596,7742 L 8596,6669 8561,6669 8625,6632 8625,8393 8357,8548 8357,8289 8177,8393 8177,8134 7998,8238 7998,7979 7819,8082 7819,7742 8596,7742 Z M 8577,6688 L 8577,7723 7819,7723 7819,7098 8528,6688 8577,6688 Z"/>
     <path fill="rgb(202,202,202)" stroke="none" d="M 8577,7723 L 8577,6688 8528,6688 8625,6632 8625,8393 8357,8548 8357,8289 8177,8393 8177,8134 7998,8238 7998,7979 7819,8082 7819,7723 8577,7723 Z M 8558,6707 L 8558,7704 7819,7704 7819,7098 8495,6707 8558,6707 Z"/>
     <path fill="rgb(203,203,203)" stroke="none" d="M 8558,7704 L 8558,6707 8495,6707 8625,6632 8625,8393 8357,8548 8357,8289 8177,8393 8177,8134 7998,8238 7998,7979 7819,8082 7819,7704 8558,7704 Z M 8539,6726 L 8539,7685 7819,7685 7819,7098 8462,6726 8539,6726 Z"/>
     <path fill="rgb(204,204,204)" stroke="none" d="M 8539,7685 L 8539,6726 8462,6726 8625,6632 8625,8393 8357,8548 8357,8289 8177,8393 8177,8134 7998,8238 7998,7979 7819,8082 7819,7685 8539,7685 Z M 8520,6745 L 8520,7666 7819,7666 7819,7098 8430,6745 8520,6745 Z"/>
     <path fill="rgb(205,205,205)" stroke="none" d="M 8520,7666 L 8520,6745 8430,6745 8625,6632 8625,8393 8357,8548 8357,8289 8177,8393 8177,8134 7998,8238 7998,7979 7819,8082 7819,7666 8520,7666 Z M 8500,6765 L 8500,7646 7819,7646 7819,7098 8395,6765 8500,6765 Z"/>
     <path fill="rgb(206,206,206)" stroke="none" d="M 8500,7646 L 8500,6765 8395,6765 8625,6632 8625,8393 8357,8548 8357,8289 8177,8393 8177,8134 7998,8238 7998,7979 7819,8082 7819,7646 8500,7646 Z M 8481,6784 L 8481,7627 7819,7627 7819,7098 8362,6784 8481,6784 Z"/>
     <path fill="rgb(207,207,207)" stroke="none" d="M 8481,7627 L 8481,6784 8362,6784 8625,6632 8625,8393 8357,8548 8357,8289 8177,8393 8177,8134 7998,8238 7998,7979 7819,8082 7819,7627 8481,7627 Z M 8462,6803 L 8462,7608 7819,7608 7819,7098 8329,6803 8462,6803 Z"/>
     <path fill="rgb(208,208,208)" stroke="none" d="M 8462,7608 L 8462,6803 8329,6803 8625,6632 8625,8393 8357,8548 8357,8289 8177,8393 8177,8134 7998,8238 7998,7979 7819,8082 7819,7608 8462,7608 Z M 8443,6822 L 8443,7589 7819,7589 7819,7098 8296,6822 8443,6822 Z"/>
     <path fill="rgb(209,209,209)" stroke="none" d="M 8443,7589 L 8443,6822 8296,6822 8625,6632 8625,8393 8357,8548 8357,8289 8177,8393 8177,8134 7998,8238 7998,7979 7819,8082 7819,7589 8443,7589 Z M 8424,6841 L 8424,7570 7819,7570 7819,7098 8264,6841 8424,6841 Z"/>
     <path fill="rgb(210,210,210)" stroke="none" d="M 8424,7570 L 8424,6841 8264,6841 8625,6632 8625,8393 8357,8548 8357,8289 8177,8393 8177,8134 7998,8238 7998,7979 7819,8082 7819,7570 8424,7570 Z M 8404,6861 L 8404,7550 7819,7550 7819,7098 8229,6861 8404,6861 Z"/>
     <path fill="rgb(211,211,211)" stroke="none" d="M 8404,7550 L 8404,6861 8229,6861 8625,6632 8625,8393 8357,8548 8357,8289 8177,8393 8177,8134 7998,8238 7998,7979 7819,8082 7819,7550 8404,7550 Z M 8385,6880 L 8385,7531 7819,7531 7819,7098 8196,6880 8385,6880 Z"/>
     <path fill="rgb(212,212,212)" stroke="none" d="M 8385,7531 L 8385,6880 8196,6880 8625,6632 8625,8393 8357,8548 8357,8289 8177,8393 8177,8134 7998,8238 7998,7979 7819,8082 7819,7531 8385,7531 Z M 8366,6899 L 8366,7512 7819,7512 7819,7098 8163,6899 8366,6899 Z"/>
     <path fill="rgb(213,213,213)" stroke="none" d="M 8366,7512 L 8366,6899 8163,6899 8625,6632 8625,8393 8357,8548 8357,8289 8177,8393 8177,8134 7998,8238 7998,7979 7819,8082 7819,7512 8366,7512 Z M 8347,6918 L 8347,7493 7819,7493 7819,7098 8130,6918 8347,6918 Z"/>
     <path fill="rgb(214,214,214)" stroke="none" d="M 8347,7493 L 8347,6918 8130,6918 8625,6632 8625,8393 8357,8548 8357,8289 8177,8393 8177,8134 7998,8238 7998,7979 7819,8082 7819,7493 8347,7493 Z M 8328,6937 L 8328,7474 7819,7474 7819,7098 8097,6937 8328,6937 Z"/>
     <path fill="rgb(215,215,215)" stroke="none" d="M 8328,7474 L 8328,6937 8097,6937 8625,6632 8625,8393 8357,8548 8357,8289 8177,8393 8177,8134 7998,8238 7998,7979 7819,8082 7819,7474 8328,7474 Z M 8308,6957 L 8308,7454 7819,7454 7819,7098 8063,6957 8308,6957 Z"/>
     <path fill="rgb(216,216,216)" stroke="none" d="M 8308,7454 L 8308,6957 8063,6957 8625,6632 8625,8393 8357,8548 8357,8289 8177,8393 8177,8134 7998,8238 7998,7979 7819,8082 7819,7454 8308,7454 Z M 8289,6976 L 8289,7435 7830,7435 7830,7092 8030,6976 8289,6976 Z"/>
     <path fill="rgb(217,217,217)" stroke="none" d="M 7830,7435 L 8289,7435 8289,6976 8030,6976 8625,6632 8625,8393 8357,8548 8357,8289 8177,8393 8177,8134 7998,8238 7998,7979 7819,8082 7819,7098 7830,7092 7830,7435 Z M 8270,6995 L 8270,7416 7849,7416 7849,7081 7997,6995 8270,6995 Z"/>
     <path fill="rgb(218,218,218)" stroke="none" d="M 7849,7416 L 8270,7416 8270,6995 7997,6995 8625,6632 8625,8393 8357,8548 8357,8289 8177,8393 8177,8134 7998,8238 7998,7979 7819,8082 7819,7098 7849,7081 7849,7416 Z M 8251,7014 L 8251,7397 7868,7397 7868,7070 7964,7014 8251,7014 Z"/>
     <path fill="rgb(219,219,219)" stroke="none" d="M 7868,7397 L 8251,7397 8251,7014 7964,7014 8625,6632 8625,8393 8357,8548 8357,8289 8177,8393 8177,8134 7998,8238 7998,7979 7819,8082 7819,7098 7868,7070 7868,7397 Z M 8232,7033 L 8232,7378 7887,7378 7887,7059 7931,7033 8232,7033 Z"/>
     <path fill="rgb(220,220,220)" stroke="none" d="M 7887,7378 L 8232,7378 8232,7033 7931,7033 8625,6632 8625,8393 8357,8548 8357,8289 8177,8393 8177,8134 7998,8238 7998,7979 7819,8082 7819,7098 7887,7059 7887,7378 Z M 7906,7052 L 8213,7052 8213,7359 7906,7359 7906,7052 Z"/>
     <path fill="rgb(221,221,221)" stroke="none" d="M 7906,7052 L 7906,7359 8213,7359 8213,7052 7906,7052 Z M 7926,7072 L 8193,7072 8193,7339 7926,7339 7926,7072 Z M 8357,8289 L 8177,8393 8177,8134 7998,8238 7998,7979 7819,8082 7819,7098 8625,6632 8625,8393 8357,8548 8357,8289 Z"/>
     <path fill="rgb(222,222,222)" stroke="none" d="M 7926,7072 L 7926,7339 8193,7339 8193,7072 7926,7072 Z M 7945,7091 L 8174,7091 8174,7320 7945,7320 7945,7091 Z M 8357,8289 L 8177,8393 8177,8134 7998,8238 7998,7979 7819,8082 7819,7098 8625,6632 8625,8393 8357,8548 8357,8289 Z"/>
     <path fill="rgb(223,223,223)" stroke="none" d="M 7945,7091 L 7945,7320 8174,7320 8174,7091 7945,7091 Z M 7964,7110 L 8155,7110 8155,7301 7964,7301 7964,7110 Z M 8357,8289 L 8177,8393 8177,8134 7998,8238 7998,7979 7819,8082 7819,7098 8625,6632 8625,8393 8357,8548 8357,8289 Z"/>
     <path fill="rgb(224,224,224)" stroke="none" d="M 7964,7110 L 7964,7301 8155,7301 8155,7110 7964,7110 Z M 7983,7129 L 8136,7129 8136,7282 7983,7282 7983,7129 Z M 8357,8289 L 8177,8393 8177,8134 7998,8238 7998,7979 7819,8082 7819,7098 8625,6632 8625,8393 8357,8548 8357,8289 Z"/>
     <path fill="rgb(225,225,225)" stroke="none" d="M 7983,7129 L 7983,7282 8136,7282 8136,7129 7983,7129 Z M 8002,7148 L 8117,7148 8117,7263 8002,7263 8002,7148 Z M 8357,8289 L 8177,8393 8177,8134 7998,8238 7998,7979 7819,8082 7819,7098 8625,6632 8625,8393 8357,8548 8357,8289 Z"/>
     <path fill="rgb(226,226,226)" stroke="none" d="M 8002,7148 L 8002,7263 8117,7263 8117,7148 8002,7148 Z M 8022,7168 L 8097,7168 8097,7243 8022,7243 8022,7168 Z M 8357,8289 L 8177,8393 8177,8134 7998,8238 7998,7979 7819,8082 7819,7098 8625,6632 8625,8393 8357,8548 8357,8289 Z"/>
     <path fill="rgb(227,227,227)" stroke="none" d="M 8022,7168 L 8022,7243 8097,7243 8097,7168 8022,7168 Z M 8041,7187 L 8078,7187 8078,7224 8041,7224 8041,7187 Z M 8357,8289 L 8177,8393 8177,8134 7998,8238 7998,7979 7819,8082 7819,7098 8625,6632 8625,8393 8357,8548 8357,8289 Z"/>
     <path fill="rgb(229,229,229)" stroke="none" d="M 8041,7187 L 8041,7224 8078,7224 8078,7187 8041,7187 Z M 8357,8289 L 8177,8393 8177,8134 7998,8238 7998,7979 7819,8082 7819,7098 8625,6632 8625,8393 8357,8548 8357,8289 Z"/>
     <path fill="none" stroke="rgb(255,255,255)" id="Drawing_16_0" stroke-width="40" stroke-linejoin="round" d="M 8357,8289 L 8177,8393 8177,8134 7998,8238 7998,7979 7819,8082 7819,7098 8625,6632 8625,8393 8357,8548 8357,8289 Z"/>
    </g>
    <g>
     <path fill="none" stroke="rgb(0,0,0)" id="Drawing_17_0" stroke-width="40" stroke-linejoin="round" d="M 6475,7460 L 6475,7409 6295,7305 6295,7253 6116,7150 6116,7098 5937,6994 5937,6010 6743,5544 8625,6632 8625,8393 8356,8548 6475,7460 Z"/>
    </g>
    <g>
     <path fill="rgb(230,230,230)" stroke="none" d="M 6027,6891 L 6027,6373 7730,7357 7730,7875 6027,6891 Z"/>
     <path fill="none" stroke="rgb(153,153,153)" id="Drawing_18_0" stroke-width="40" stroke-linejoin="round" d="M 6027,6891 L 6027,6373 7730,7357 7730,7875 6027,6891 Z"/>
    </g>
    <g>
     <path fill="rgb(127,127,127)" stroke="none" d="M 6027,6321 L 6027,6217 6117,6269 6117,6372 6027,6321 Z"/>
     <path fill="none" stroke="rgb(0,0,0)" id="Drawing_19_0" stroke-width="40" stroke-linejoin="round" d="M 6027,6321 L 6027,6217 6117,6269 6117,6372 6027,6321 Z"/>
    </g>
   </g>
   <g id="DrawingGroup_4">
    <g>
     <defs>
      <linearGradient id="Gradient_755" gradientUnits="userSpaceOnUse" x1="8356" y1="8960" x2="10240" y2="8964">
       <stop offset="0.1" stop-color="rgb(179,179,179)"/>
       <stop offset="1" stop-color="rgb(229,229,229)"/>
      </linearGradient>
     </defs>
     <path fill="url(#Gradient_755)" stroke="rgb(255,255,255)" id="Drawing_20_0" stroke-width="40" stroke-linejoin="round" d="M 8357,8548 L 8357,8289 10239,9377 10239,9636 8357,8548 Z"/>
    </g>
    <g>
     <defs>
      <linearGradient id="Gradient_756" gradientUnits="userSpaceOnUse" x1="8177" y1="8805" x2="10061" y2="8809">
       <stop offset="0.1" stop-color="rgb(179,179,179)"/>
       <stop offset="1" stop-color="rgb(229,229,229)"/>
      </linearGradient>
     </defs>
     <path fill="url(#Gradient_756)" stroke="rgb(255,255,255)" id="Drawing_21_0" stroke-width="40" stroke-linejoin="round" d="M 8178,8393 L 8178,8134 10060,9222 10060,9481 8178,8393 Z"/>
    </g>
    <g>
     <defs>
      <linearGradient id="Gradient_757" gradientUnits="userSpaceOnUse" x1="7997" y1="8650" x2="9881" y2="8654">
       <stop offset="0.1" stop-color="rgb(179,179,179)"/>
       <stop offset="1" stop-color="rgb(229,229,229)"/>
      </linearGradient>
     </defs>
     <path fill="url(#Gradient_757)" stroke="rgb(255,255,255)" id="Drawing_22_0" stroke-width="40" stroke-linejoin="round" d="M 7998,8238 L 7998,7979 9880,9067 9880,9326 7998,8238 Z"/>
    </g>
    <g>
     <defs>
      <linearGradient id="Gradient_758" gradientUnits="userSpaceOnUse" x1="9163" y1="6632" x2="9163" y2="8186">
       <stop offset="0.1" stop-color="rgb(179,179,179)"/>
       <stop offset="1" stop-color="rgb(229,229,229)"/>
      </linearGradient>
     </defs>
     <path fill="url(#Gradient_758)" stroke="rgb(255,255,255)" id="Drawing_23_0" stroke-width="40" stroke-linejoin="round" d="M 9701,8186 L 7819,7098 8625,6632 10507,7720 9701,8186 Z"/>
    </g>
    <g>
     <path fill="rgb(127,127,127)" stroke="none" d="M 10059,9481 L 10059,9377 10149,9429 10149,9532 10059,9481 Z"/>
     <path fill="none" stroke="rgb(0,0,0)" id="Drawing_24_0" stroke-width="40" stroke-linejoin="round" d="M 10059,9481 L 10059,9377 10149,9429 10149,9532 10059,9481 Z"/>
    </g>
    <g>
     <path fill="rgb(127,127,127)" stroke="none" d="M 9880,9326 L 9880,9222 9970,9274 9970,9377 9880,9326 Z"/>
     <path fill="none" stroke="rgb(0,0,0)" id="Drawing_25_0" stroke-width="40" stroke-linejoin="round" d="M 9880,9326 L 9880,9222 9970,9274 9970,9377 9880,9326 Z"/>
    </g>
    <g>
     <defs>
      <linearGradient id="Gradient_759" gradientUnits="userSpaceOnUse" x1="7817" y1="8132" x2="9703" y2="8136">
       <stop offset="0.1" stop-color="rgb(179,179,179)"/>
       <stop offset="1" stop-color="rgb(229,229,229)"/>
      </linearGradient>
     </defs>
     <path fill="url(#Gradient_759)" stroke="rgb(255,255,255)" id="Drawing_26_0" stroke-width="40" stroke-linejoin="round" d="M 7819,8082 L 7819,7098 9701,8186 9701,9170 7819,8082 Z"/>
    </g>
    <g>
     <path fill="rgb(127,127,127)" stroke="none" d="M 9701,9170 L 9701,9066 9791,9118 9791,9221 9701,9170 Z"/>
     <path fill="none" stroke="rgb(0,0,0)" id="Drawing_27_0" stroke-width="40" stroke-linejoin="round" d="M 9701,9170 L 9701,9066 9791,9118 9791,9221 9701,9170 Z"/>
    </g>
    <g>
     <path fill="rgb(179,179,179)" stroke="none" d="M 10059,9233 L 10059,9222 10040,9233 9880,9233 9880,9067 9701,9170 9701,8186 10507,7720 10507,9233 10059,9233 Z"/>
     <path fill="rgb(180,180,180)" stroke="none" d="M 10040,9233 L 9880,9326 9880,9233 10040,9233 Z M 10507,9233 L 10507,9481 10239,9636 10239,9377 10059,9481 10059,9233 10507,9233 Z M 9880,9214 L 9880,9067 9701,9170 9701,8186 10507,7720 10507,9214 9880,9214 Z"/>
     <path fill="rgb(181,181,181)" stroke="none" d="M 10507,9214 L 10507,9481 10239,9636 10239,9377 10059,9481 10059,9222 9880,9326 9880,9214 10507,9214 Z M 9880,9195 L 9880,9067 9701,9170 9701,8186 10507,7720 10507,9195 9880,9195 Z"/>
     <path fill="rgb(182,182,182)" stroke="none" d="M 10507,9195 L 10507,9481 10239,9636 10239,9377 10059,9481 10059,9222 9880,9326 9880,9195 10507,9195 Z M 9880,9176 L 9880,9067 9701,9170 9701,8186 10507,7720 10507,9176 9880,9176 Z"/>
     <path fill="rgb(183,183,183)" stroke="none" d="M 10507,9176 L 10507,9481 10239,9636 10239,9377 10059,9481 10059,9222 9880,9326 9880,9176 10507,9176 Z M 9880,9157 L 9880,9067 9724,9157 9701,9157 9701,8186 10507,7720 10507,9157 9880,9157 Z"/>
     <path fill="rgb(184,184,184)" stroke="none" d="M 9724,9157 L 9701,9170 9701,9157 9724,9157 Z M 10507,9157 L 10507,9481 10239,9636 10239,9377 10059,9481 10059,9222 9880,9326 9880,9157 10507,9157 Z M 9880,9137 L 9880,9067 9758,9137 9701,9137 9701,8186 10507,7720 10507,9137 9880,9137 Z"/>
     <path fill="rgb(185,185,185)" stroke="none" d="M 9758,9137 L 9701,9170 9701,9137 9758,9137 Z M 10507,9137 L 10507,9481 10239,9636 10239,9377 10059,9481 10059,9222 9880,9326 9880,9137 10507,9137 Z M 9880,9118 L 9880,9067 9791,9118 9701,9118 9701,8186 10507,7720 10507,9118 9880,9118 Z"/>
     <path fill="rgb(186,186,186)" stroke="none" d="M 9791,9118 L 9701,9170 9701,9118 9791,9118 Z M 10507,9118 L 10507,9481 10239,9636 10239,9377 10059,9481 10059,9222 9880,9326 9880,9118 10507,9118 Z M 9880,9099 L 9880,9067 9824,9099 9701,9099 9701,8186 10507,7720 10507,9099 9880,9099 Z"/>
     <path fill="rgb(187,187,187)" stroke="none" d="M 9824,9099 L 9701,9170 9701,9099 9824,9099 Z M 10507,9099 L 10507,9481 10239,9636 10239,9377 10059,9481 10059,9222 9880,9326 9880,9099 10507,9099 Z M 9880,9080 L 9880,9067 9857,9080 9701,9080 9701,8186 10507,7720 10507,9080 9880,9080 Z"/>
     <path fill="rgb(188,188,188)" stroke="none" d="M 9857,9080 L 9701,9170 9701,9080 9857,9080 Z M 10507,9080 L 10507,9481 10239,9636 10239,9377 10059,9481 10059,9222 9880,9326 9880,9080 10507,9080 Z M 9701,9061 L 9701,8186 10507,7720 10507,9061 9701,9061 Z"/>
     <path fill="rgb(189,189,189)" stroke="none" d="M 10507,9061 L 10507,9481 10239,9636 10239,9377 10059,9481 10059,9222 9880,9326 9880,9067 9701,9170 9701,9061 10507,9061 Z M 9701,9041 L 9701,8186 10507,7720 10507,9041 9701,9041 Z"/>
     <path fill="rgb(190,190,190)" stroke="none" d="M 10507,9041 L 10507,9481 10239,9636 10239,9377 10059,9481 10059,9222 9880,9326 9880,9067 9701,9170 9701,9041 10507,9041 Z M 9701,9022 L 9701,8186 10507,7720 10507,9022 9701,9022 Z"/>
     <path fill="rgb(191,191,191)" stroke="none" d="M 10507,9022 L 10507,9481 10239,9636 10239,9377 10059,9481 10059,9222 9880,9326 9880,9067 9701,9170 9701,9022 10507,9022 Z M 9701,9003 L 9701,8186 10507,7720 10507,9003 9701,9003 Z"/>
     <path fill="rgb(192,192,192)" stroke="none" d="M 10507,9003 L 10507,9481 10239,9636 10239,9377 10059,9481 10059,9222 9880,9326 9880,9067 9701,9170 9701,9003 10507,9003 Z M 9701,8984 L 9701,8186 10507,7720 10507,8984 9701,8984 Z"/>
     <path fill="rgb(193,193,193)" stroke="none" d="M 10507,8984 L 10507,9481 10239,9636 10239,9377 10059,9481 10059,9222 9880,9326 9880,9067 9701,9170 9701,8984 10507,8984 Z M 9701,8965 L 9701,8186 10507,7720 10507,8965 9701,8965 Z"/>
     <path fill="rgb(194,194,194)" stroke="none" d="M 10507,8965 L 10507,9481 10239,9636 10239,9377 10059,9481 10059,9222 9880,9326 9880,9067 9701,9170 9701,8965 10507,8965 Z M 9701,8945 L 9701,8186 10507,7720 10507,8945 9701,8945 Z"/>
     <path fill="rgb(195,195,195)" stroke="none" d="M 10507,8945 L 10507,9481 10239,9636 10239,9377 10059,9481 10059,9222 9880,9326 9880,9067 9701,9170 9701,8945 10507,8945 Z M 9701,8926 L 9701,8186 10507,7720 10507,8926 9701,8926 Z"/>
     <path fill="rgb(196,196,196)" stroke="none" d="M 10507,8926 L 10507,9481 10239,9636 10239,9377 10059,9481 10059,9222 9880,9326 9880,9067 9701,9170 9701,8926 10507,8926 Z M 9701,8907 L 9701,8186 10507,7720 10507,8907 9701,8907 Z"/>
     <path fill="rgb(197,197,197)" stroke="none" d="M 10507,8907 L 10507,9481 10239,9636 10239,9377 10059,9481 10059,9222 9880,9326 9880,9067 9701,9170 9701,8907 10507,8907 Z M 9701,8888 L 9701,8186 10507,7720 10507,8888 9701,8888 Z"/>
     <path fill="rgb(198,198,198)" stroke="none" d="M 10507,8888 L 10507,9481 10239,9636 10239,9377 10059,9481 10059,9222 9880,9326 9880,9067 9701,9170 9701,8888 10507,8888 Z M 9701,8869 L 9701,8186 10507,7720 10507,8869 9701,8869 Z"/>
     <path fill="rgb(199,199,199)" stroke="none" d="M 10507,8869 L 10507,9481 10239,9636 10239,9377 10059,9481 10059,9222 9880,9326 9880,9067 9701,9170 9701,8869 10507,8869 Z M 10498,7737 L 10498,8850 9701,8850 9701,8186 10478,7737 10498,7737 Z"/>
     <path fill="rgb(200,200,200)" stroke="none" d="M 10498,8850 L 10498,7737 10478,7737 10507,7720 10507,9481 10239,9636 10239,9377 10059,9481 10059,9222 9880,9326 9880,9067 9701,9170 9701,8850 10498,8850 Z M 10478,7757 L 10478,8830 9701,8830 9701,8186 10443,7757 10478,7757 Z"/>
     <path fill="rgb(201,201,201)" stroke="none" d="M 10478,8830 L 10478,7757 10443,7757 10507,7720 10507,9481 10239,9636 10239,9377 10059,9481 10059,9222 9880,9326 9880,9067 9701,9170 9701,8830 10478,8830 Z M 10459,7776 L 10459,8811 9701,8811 9701,8186 10410,7776 10459,7776 Z"/>
     <path fill="rgb(202,202,202)" stroke="none" d="M 10459,8811 L 10459,7776 10410,7776 10507,7720 10507,9481 10239,9636 10239,9377 10059,9481 10059,9222 9880,9326 9880,9067 9701,9170 9701,8811 10459,8811 Z M 10440,7795 L 10440,8792 9701,8792 9701,8186 10377,7795 10440,7795 Z"/>
     <path fill="rgb(203,203,203)" stroke="none" d="M 10440,8792 L 10440,7795 10377,7795 10507,7720 10507,9481 10239,9636 10239,9377 10059,9481 10059,9222 9880,9326 9880,9067 9701,9170 9701,8792 10440,8792 Z M 10421,7814 L 10421,8773 9701,8773 9701,8186 10344,7814 10421,7814 Z"/>
     <path fill="rgb(204,204,204)" stroke="none" d="M 10421,8773 L 10421,7814 10344,7814 10507,7720 10507,9481 10239,9636 10239,9377 10059,9481 10059,9222 9880,9326 9880,9067 9701,9170 9701,8773 10421,8773 Z M 10402,7833 L 10402,8754 9701,8754 9701,8186 10312,7833 10402,7833 Z"/>
     <path fill="rgb(205,205,205)" stroke="none" d="M 10402,8754 L 10402,7833 10312,7833 10507,7720 10507,9481 10239,9636 10239,9377 10059,9481 10059,9222 9880,9326 9880,9067 9701,9170 9701,8754 10402,8754 Z M 10382,7853 L 10382,8734 9701,8734 9701,8186 10277,7853 10382,7853 Z"/>
     <path fill="rgb(206,206,206)" stroke="none" d="M 10382,8734 L 10382,7853 10277,7853 10507,7720 10507,9481 10239,9636 10239,9377 10059,9481 10059,9222 9880,9326 9880,9067 9701,9170 9701,8734 10382,8734 Z M 10363,7872 L 10363,8715 9701,8715 9701,8186 10244,7872 10363,7872 Z"/>
     <path fill="rgb(207,207,207)" stroke="none" d="M 10363,8715 L 10363,7872 10244,7872 10507,7720 10507,9481 10239,9636 10239,9377 10059,9481 10059,9222 9880,9326 9880,9067 9701,9170 9701,8715 10363,8715 Z M 10344,7891 L 10344,8696 9701,8696 9701,8186 10211,7891 10344,7891 Z"/>
     <path fill="rgb(208,208,208)" stroke="none" d="M 10344,8696 L 10344,7891 10211,7891 10507,7720 10507,9481 10239,9636 10239,9377 10059,9481 10059,9222 9880,9326 9880,9067 9701,9170 9701,8696 10344,8696 Z M 10325,7910 L 10325,8677 9701,8677 9701,8186 10178,7910 10325,7910 Z"/>
     <path fill="rgb(209,209,209)" stroke="none" d="M 10325,8677 L 10325,7910 10178,7910 10507,7720 10507,9481 10239,9636 10239,9377 10059,9481 10059,9222 9880,9326 9880,9067 9701,9170 9701,8677 10325,8677 Z M 10306,7929 L 10306,8658 9701,8658 9701,8186 10146,7929 10306,7929 Z"/>
     <path fill="rgb(210,210,210)" stroke="none" d="M 10306,8658 L 10306,7929 10146,7929 10507,7720 10507,9481 10239,9636 10239,9377 10059,9481 10059,9222 9880,9326 9880,9067 9701,9170 9701,8658 10306,8658 Z M 10286,7949 L 10286,8638 9701,8638 9701,8186 10111,7949 10286,7949 Z"/>
     <path fill="rgb(211,211,211)" stroke="none" d="M 10286,8638 L 10286,7949 10111,7949 10507,7720 10507,9481 10239,9636 10239,9377 10059,9481 10059,9222 9880,9326 9880,9067 9701,9170 9701,8638 10286,8638 Z M 10267,7968 L 10267,8619 9701,8619 9701,8186 10078,7968 10267,7968 Z"/>
     <path fill="rgb(212,212,212)" stroke="none" d="M 10267,8619 L 10267,7968 10078,7968 10507,7720 10507,9481 10239,9636 10239,9377 10059,9481 10059,9222 9880,9326 9880,9067 9701,9170 9701,8619 10267,8619 Z M 10248,7987 L 10248,8600 9701,8600 9701,8186 10045,7987 10248,7987 Z"/>
     <path fill="rgb(213,213,213)" stroke="none" d="M 10248,8600 L 10248,7987 10045,7987 10507,7720 10507,9481 10239,9636 10239,9377 10059,9481 10059,9222 9880,9326 9880,9067 9701,9170 9701,8600 10248,8600 Z M 10229,8006 L 10229,8581 9701,8581 9701,8186 10012,8006 10229,8006 Z"/>
     <path fill="rgb(214,214,214)" stroke="none" d="M 10229,8581 L 10229,8006 10012,8006 10507,7720 10507,9481 10239,9636 10239,9377 10059,9481 10059,9222 9880,9326 9880,9067 9701,9170 9701,8581 10229,8581 Z M 10210,8025 L 10210,8562 9701,8562 9701,8186 9979,8025 10210,8025 Z"/>
     <path fill="rgb(215,215,215)" stroke="none" d="M 10210,8562 L 10210,8025 9979,8025 10507,7720 10507,9481 10239,9636 10239,9377 10059,9481 10059,9222 9880,9326 9880,9067 9701,9170 9701,8562 10210,8562 Z M 10190,8045 L 10190,8542 9701,8542 9701,8186 9945,8045 10190,8045 Z"/>
     <path fill="rgb(216,216,216)" stroke="none" d="M 10190,8542 L 10190,8045 9945,8045 10507,7720 10507,9481 10239,9636 10239,9377 10059,9481 10059,9222 9880,9326 9880,9067 9701,9170 9701,8542 10190,8542 Z M 10171,8064 L 10171,8523 9712,8523 9712,8180 9912,8064 10171,8064 Z"/>
     <path fill="rgb(217,217,217)" stroke="none" d="M 9712,8523 L 10171,8523 10171,8064 9912,8064 10507,7720 10507,9481 10239,9636 10239,9377 10059,9481 10059,9222 9880,9326 9880,9067 9701,9170 9701,8186 9712,8180 9712,8523 Z M 10152,8083 L 10152,8504 9731,8504 9731,8169 9879,8083 10152,8083 Z"/>
     <path fill="rgb(218,218,218)" stroke="none" d="M 9731,8504 L 10152,8504 10152,8083 9879,8083 10507,7720 10507,9481 10239,9636 10239,9377 10059,9481 10059,9222 9880,9326 9880,9067 9701,9170 9701,8186 9731,8169 9731,8504 Z M 10133,8102 L 10133,8485 9750,8485 9750,8158 9846,8102 10133,8102 Z"/>
     <path fill="rgb(219,219,219)" stroke="none" d="M 9750,8485 L 10133,8485 10133,8102 9846,8102 10507,7720 10507,9481 10239,9636 10239,9377 10059,9481 10059,9222 9880,9326 9880,9067 9701,9170 9701,8186 9750,8158 9750,8485 Z M 10114,8121 L 10114,8466 9769,8466 9769,8147 9813,8121 10114,8121 Z"/>
     <path fill="rgb(220,220,220)" stroke="none" d="M 9769,8466 L 10114,8466 10114,8121 9813,8121 10507,7720 10507,9481 10239,9636 10239,9377 10059,9481 10059,9222 9880,9326 9880,9067 9701,9170 9701,8186 9769,8147 9769,8466 Z M 9788,8140 L 10095,8140 10095,8447 9788,8447 9788,8140 Z"/>
     <path fill="rgb(221,221,221)" stroke="none" d="M 9788,8140 L 9788,8447 10095,8447 10095,8140 9788,8140 Z M 9808,8160 L 10075,8160 10075,8427 9808,8427 9808,8160 Z M 10239,9377 L 10059,9481 10059,9222 9880,9326 9880,9067 9701,9170 9701,8186 10507,7720 10507,9481 10239,9636 10239,9377 Z"/>
     <path fill="rgb(222,222,222)" stroke="none" d="M 9808,8160 L 9808,8427 10075,8427 10075,8160 9808,8160 Z M 9827,8179 L 10056,8179 10056,8408 9827,8408 9827,8179 Z M 10239,9377 L 10059,9481 10059,9222 9880,9326 9880,9067 9701,9170 9701,8186 10507,7720 10507,9481 10239,9636 10239,9377 Z"/>
     <path fill="rgb(223,223,223)" stroke="none" d="M 9827,8179 L 9827,8408 10056,8408 10056,8179 9827,8179 Z M 9846,8198 L 10037,8198 10037,8389 9846,8389 9846,8198 Z M 10239,9377 L 10059,9481 10059,9222 9880,9326 9880,9067 9701,9170 9701,8186 10507,7720 10507,9481 10239,9636 10239,9377 Z"/>
     <path fill="rgb(224,224,224)" stroke="none" d="M 9846,8198 L 9846,8389 10037,8389 10037,8198 9846,8198 Z M 9865,8217 L 10018,8217 10018,8370 9865,8370 9865,8217 Z M 10239,9377 L 10059,9481 10059,9222 9880,9326 9880,9067 9701,9170 9701,8186 10507,7720 10507,9481 10239,9636 10239,9377 Z"/>
     <path fill="rgb(225,225,225)" stroke="none" d="M 9865,8217 L 9865,8370 10018,8370 10018,8217 9865,8217 Z M 9884,8236 L 9999,8236 9999,8351 9884,8351 9884,8236 Z M 10239,9377 L 10059,9481 10059,9222 9880,9326 9880,9067 9701,9170 9701,8186 10507,7720 10507,9481 10239,9636 10239,9377 Z"/>
     <path fill="rgb(226,226,226)" stroke="none" d="M 9884,8236 L 9884,8351 9999,8351 9999,8236 9884,8236 Z M 9904,8256 L 9979,8256 9979,8331 9904,8331 9904,8256 Z M 10239,9377 L 10059,9481 10059,9222 9880,9326 9880,9067 9701,9170 9701,8186 10507,7720 10507,9481 10239,9636 10239,9377 Z"/>
     <path fill="rgb(227,227,227)" stroke="none" d="M 9904,8256 L 9904,8331 9979,8331 9979,8256 9904,8256 Z M 9923,8275 L 9960,8275 9960,8312 9923,8312 9923,8275 Z M 10239,9377 L 10059,9481 10059,9222 9880,9326 9880,9067 9701,9170 9701,8186 10507,7720 10507,9481 10239,9636 10239,9377 Z"/>
     <path fill="rgb(229,229,229)" stroke="none" d="M 9923,8275 L 9923,8312 9960,8312 9960,8275 9923,8275 Z M 10239,9377 L 10059,9481 10059,9222 9880,9326 9880,9067 9701,9170 9701,8186 10507,7720 10507,9481 10239,9636 10239,9377 Z"/>
     <path fill="none" stroke="rgb(255,255,255)" id="Drawing_28_0" stroke-width="40" stroke-linejoin="round" d="M 10239,9377 L 10059,9481 10059,9222 9880,9326 9880,9067 9701,9170 9701,8186 10507,7720 10507,9481 10239,9636 10239,9377 Z"/>
    </g>
    <g>
     <path fill="none" stroke="rgb(0,0,0)" id="Drawing_29_0" stroke-width="40" stroke-linejoin="round" d="M 8357,8548 L 8357,8497 8177,8393 8177,8341 7998,8238 7998,8186 7819,8082 7819,7098 8625,6632 10507,7720 10507,9481 10238,9636 8357,8548 Z"/>
    </g>
    <g>
     <path fill="rgb(230,230,230)" stroke="none" d="M 7909,7979 L 7909,7461 9612,8445 9612,8963 7909,7979 Z"/>
     <path fill="none" stroke="rgb(153,153,153)" id="Drawing_30_0" stroke-width="40" stroke-linejoin="round" d="M 7909,7979 L 7909,7461 9612,8445 9612,8963 7909,7979 Z"/>
    </g>
    <g>
     <path fill="rgb(127,127,127)" stroke="none" d="M 7909,7409 L 7909,7305 7999,7357 7999,7460 7909,7409 Z"/>
     <path fill="none" stroke="rgb(0,0,0)" id="Drawing_31_0" stroke-width="40" stroke-linejoin="round" d="M 7909,7409 L 7909,7305 7999,7357 7999,7460 7909,7409 Z"/>
    </g>
   </g>
  </g>
 </g>
</svg>