<?xml version="1.0" encoding="UTF-8"?>

<svg version="1.2" baseProfile="tiny" width="210mm" height="297mm" viewBox="0 0 21000 29700" preserveAspectRatio="xMidYMid" fill-rule="evenodd" stroke-width="28.222" stroke-linejoin="round" xmlns="http://www.w3.org/2000/svg" xmlns:xlink="http://www.w3.org/1999/xlink" xml:space="preserve">
 <g visibility="visible" id="MasterSlide_1_Default">
  <desc>Master slide
  </desc>
  <rect fill="none" stroke="none" x="0" y="0" width="21000" height="29700"/>
 </g>
 <g visibility="visible" id="Slide_1_page1">
  <g id="DrawingGroup_1">
   <g>
    <path fill="rgb(221,221,221)" stroke="none" d="M 3441,7416 C 3708,7416 4707,7135 4707,6910 4707,6685 4682,6572 4415,6572 4415,6741 3441,7190 3441,7416 Z"/>
    <path fill="none" stroke="rgb(221,221,221)" id="Drawing_1_0" stroke-linejoin="round" d="M 3441,7416 C 3708,7416 4707,7135 4707,6910 4707,6685 4682,6572 4415,6572 4415,6741 3441,7190 3441,7416 Z"/>
   </g>
   <g id="DrawingGroup_2">
    <g>
     <defs>
      <linearGradient id="Gradient_662" gradientUnits="userSpaceOnUse" x1="1492" y1="5952" x2="2273" y2="5954">
       <stop offset="0.1" stop-color="rgb(179,179,179)"/>
       <stop offset="1" stop-color="rgb(229,229,229)"/>
      </linearGradient>
     </defs>
     <path fill="url(#Gradient_662)" stroke="rgb(255,255,255)" id="Drawing_2_0" stroke-width="40" stroke-linejoin="round" d="M 1494,6291 L 1494,5165 2273,5615 2273,6741 1494,6291 Z"/>
    </g>
    <g>
     <path fill="rgb(179,179,179)" stroke="none" d="M 3441,7062 L 3441,6291 4415,5728 4415,6854 4055,7062 3441,7062 Z"/>
     <path fill="rgb(180,180,180)" stroke="none" d="M 4055,7062 L 3441,7416 3441,7062 4055,7062 Z M 3441,7045 L 3441,6291 4415,5728 4415,6854 4084,7045 3441,7045 Z"/>
     <path fill="rgb(181,181,181)" stroke="none" d="M 4084,7045 L 3441,7416 3441,7045 4084,7045 Z M 3441,7028 L 3441,6291 4415,5728 4415,6854 4113,7028 3441,7028 Z"/>
     <path fill="rgb(182,182,182)" stroke="none" d="M 4113,7028 L 3441,7416 3441,7028 4113,7028 Z M 3441,7011 L 3441,6291 4415,5728 4415,6854 4143,7011 3441,7011 Z"/>
     <path fill="rgb(183,183,183)" stroke="none" d="M 4143,7011 L 3441,7416 3441,7011 4143,7011 Z M 3441,6994 L 3441,6291 4415,5728 4415,6854 4172,6994 3441,6994 Z"/>
     <path fill="rgb(184,184,184)" stroke="none" d="M 4172,6994 L 3441,7416 3441,6994 4172,6994 Z M 3441,6977 L 3441,6291 4415,5728 4415,6854 4202,6977 3441,6977 Z"/>
     <path fill="rgb(185,185,185)" stroke="none" d="M 4202,6977 L 3441,7416 3441,6977 4202,6977 Z M 3441,6960 L 3441,6291 4415,5728 4415,6854 4231,6960 3441,6960 Z"/>
     <path fill="rgb(186,186,186)" stroke="none" d="M 4231,6960 L 3441,7416 3441,6960 4231,6960 Z M 3441,6943 L 3441,6291 4415,5728 4415,6854 4261,6943 3441,6943 Z"/>
     <path fill="rgb(187,187,187)" stroke="none" d="M 4261,6943 L 3441,7416 3441,6943 4261,6943 Z M 3441,6926 L 3441,6291 4415,5728 4415,6854 4290,6926 3441,6926 Z"/>
     <path fill="rgb(188,188,188)" stroke="none" d="M 4290,6926 L 3441,7416 3441,6926 4290,6926 Z M 4408,6858 L 4320,6909 3441,6909 3441,6291 4408,5732 4408,6858 Z"/>
     <path fill="rgb(189,189,189)" stroke="none" d="M 4320,6909 L 3441,7416 3441,6909 4320,6909 Z M 4408,5732 L 4415,5728 4415,6854 4408,6858 4408,5732 Z M 4391,6868 L 4349,6892 3441,6892 3441,6291 4391,5742 4391,6868 Z"/>
     <path fill="rgb(190,190,190)" stroke="none" d="M 4349,6892 L 3441,7416 3441,6892 4349,6892 Z M 4391,5742 L 4415,5728 4415,6854 4391,6868 4391,5742 Z M 4375,6876 L 3441,6876 3441,6291 4375,5751 4375,6876 Z"/>
     <path fill="rgb(191,191,191)" stroke="none" d="M 4375,6876 L 4375,5751 4415,5728 4415,6854 3441,7416 3441,6876 4375,6876 Z M 4358,6859 L 3441,6859 3441,6291 4358,5761 4358,6859 Z"/>
     <path fill="rgb(192,192,192)" stroke="none" d="M 4358,6859 L 4358,5761 4415,5728 4415,6854 3441,7416 3441,6859 4358,6859 Z M 4341,6842 L 3441,6842 3441,6291 4341,5771 4341,6842 Z"/>
     <path fill="rgb(193,193,193)" stroke="none" d="M 4341,6842 L 4341,5771 4415,5728 4415,6854 3441,7416 3441,6842 4341,6842 Z M 4324,6825 L 3441,6825 3441,6291 4324,5781 4324,6825 Z"/>
     <path fill="rgb(194,194,194)" stroke="none" d="M 4324,6825 L 4324,5781 4415,5728 4415,6854 3441,7416 3441,6825 4324,6825 Z M 4307,6808 L 3441,6808 3441,6291 4307,5790 4307,6808 Z"/>
     <path fill="rgb(195,195,195)" stroke="none" d="M 4307,6808 L 4307,5790 4415,5728 4415,6854 3441,7416 3441,6808 4307,6808 Z M 4290,6791 L 3441,6791 3441,6291 4290,5800 4290,6791 Z"/>
     <path fill="rgb(196,196,196)" stroke="none" d="M 4290,6791 L 4290,5800 4415,5728 4415,6854 3441,7416 3441,6791 4290,6791 Z M 4273,6774 L 3441,6774 3441,6291 4273,5810 4273,6774 Z"/>
     <path fill="rgb(197,197,197)" stroke="none" d="M 4273,6774 L 4273,5810 4415,5728 4415,6854 3441,7416 3441,6774 4273,6774 Z M 4256,6757 L 3441,6757 3441,6291 4256,5820 4256,6757 Z"/>
     <path fill="rgb(198,198,198)" stroke="none" d="M 4256,6757 L 4256,5820 4415,5728 4415,6854 3441,7416 3441,6757 4256,6757 Z M 4239,6740 L 3441,6740 3441,6291 4239,5830 4239,6740 Z"/>
     <path fill="rgb(199,199,199)" stroke="none" d="M 4239,6740 L 4239,5830 4415,5728 4415,6854 3441,7416 3441,6740 4239,6740 Z M 4222,6723 L 3441,6723 3441,6291 4222,5840 4222,6723 Z"/>
     <path fill="rgb(200,200,200)" stroke="none" d="M 4222,6723 L 4222,5840 4415,5728 4415,6854 3441,7416 3441,6723 4222,6723 Z M 4205,6706 L 3441,6706 3441,6291 4205,5849 4205,6706 Z"/>
     <path fill="rgb(201,201,201)" stroke="none" d="M 4205,6706 L 4205,5849 4415,5728 4415,6854 3441,7416 3441,6706 4205,6706 Z M 4189,6690 L 3441,6690 3441,6291 4189,5859 4189,6690 Z"/>
     <path fill="rgb(202,202,202)" stroke="none" d="M 4189,6690 L 4189,5859 4415,5728 4415,6854 3441,7416 3441,6690 4189,6690 Z M 4172,6673 L 3441,6673 3441,6291 4172,5868 4172,6673 Z"/>
     <path fill="rgb(203,203,203)" stroke="none" d="M 4172,6673 L 4172,5868 4415,5728 4415,6854 3441,7416 3441,6673 4172,6673 Z M 4155,6656 L 3441,6656 3441,6291 4155,5878 4155,6656 Z"/>
     <path fill="rgb(204,204,204)" stroke="none" d="M 4155,6656 L 4155,5878 4415,5728 4415,6854 3441,7416 3441,6656 4155,6656 Z M 4138,6639 L 3441,6639 3441,6291 4138,5888 4138,6639 Z"/>
     <path fill="rgb(205,205,205)" stroke="none" d="M 4138,6639 L 4138,5888 4415,5728 4415,6854 3441,7416 3441,6639 4138,6639 Z M 4121,6622 L 3441,6622 3441,6291 4121,5898 4121,6622 Z"/>
     <path fill="rgb(206,206,206)" stroke="none" d="M 4121,6622 L 4121,5898 4415,5728 4415,6854 3441,7416 3441,6622 4121,6622 Z M 4104,6605 L 3441,6605 3441,6291 4104,5908 4104,6605 Z"/>
     <path fill="rgb(207,207,207)" stroke="none" d="M 4104,6605 L 4104,5908 4415,5728 4415,6854 3441,7416 3441,6605 4104,6605 Z M 4087,6588 L 3441,6588 3441,6291 4087,5918 4087,6588 Z"/>
     <path fill="rgb(208,208,208)" stroke="none" d="M 4087,6588 L 4087,5918 4415,5728 4415,6854 3441,7416 3441,6588 4087,6588 Z M 4070,6571 L 3441,6571 3441,6291 4070,5927 4070,6571 Z"/>
     <path fill="rgb(209,209,209)" stroke="none" d="M 4070,6571 L 4070,5927 4415,5728 4415,6854 3441,7416 3441,6571 4070,6571 Z M 4053,6554 L 3441,6554 3441,6291 4053,5937 4053,6554 Z"/>
     <path fill="rgb(210,210,210)" stroke="none" d="M 4053,6554 L 4053,5937 4415,5728 4415,6854 3441,7416 3441,6554 4053,6554 Z M 4036,6537 L 3441,6537 3441,6291 4036,5947 4036,6537 Z"/>
     <path fill="rgb(211,211,211)" stroke="none" d="M 4036,6537 L 4036,5947 4415,5728 4415,6854 3441,7416 3441,6537 4036,6537 Z M 4019,6520 L 3446,6520 3446,6288 4019,5957 4019,6520 Z"/>
     <path fill="rgb(212,212,212)" stroke="none" d="M 3446,6520 L 4019,6520 4019,5957 4415,5728 4415,6854 3441,7416 3441,6291 3446,6288 3446,6520 Z M 4003,6504 L 3462,6504 3462,6279 4003,5966 4003,6504 Z"/>
     <path fill="rgb(213,213,213)" stroke="none" d="M 3462,6504 L 4003,6504 4003,5966 4415,5728 4415,6854 3441,7416 3441,6291 3462,6279 3462,6504 Z M 3986,5980 L 3986,6487 3479,6487 3479,6269 3979,5980 3986,5980 Z"/>
     <path fill="rgb(214,214,214)" stroke="none" d="M 3479,6487 L 3986,6487 3986,5980 3979,5980 4415,5728 4415,6854 3441,7416 3441,6291 3479,6269 3479,6487 Z M 3969,5997 L 3969,6470 3496,6470 3496,6259 3950,5997 3969,5997 Z"/>
     <path fill="rgb(215,215,215)" stroke="none" d="M 3496,6470 L 3969,6470 3969,5997 3950,5997 4415,5728 4415,6854 3441,7416 3441,6291 3496,6259 3496,6470 Z M 3952,6014 L 3952,6453 3513,6453 3513,6249 3920,6014 3952,6014 Z"/>
     <path fill="rgb(216,216,216)" stroke="none" d="M 3513,6453 L 3952,6453 3952,6014 3920,6014 4415,5728 4415,6854 3441,7416 3441,6291 3513,6249 3513,6453 Z M 3935,6031 L 3935,6436 3530,6436 3530,6240 3891,6031 3935,6031 Z"/>
     <path fill="rgb(217,217,217)" stroke="none" d="M 3530,6436 L 3935,6436 3935,6031 3891,6031 4415,5728 4415,6854 3441,7416 3441,6291 3530,6240 3530,6436 Z M 3918,6048 L 3918,6419 3547,6419 3547,6230 3861,6048 3918,6048 Z"/>
     <path fill="rgb(218,218,218)" stroke="none" d="M 3547,6419 L 3918,6419 3918,6048 3861,6048 4415,5728 4415,6854 3441,7416 3441,6291 3547,6230 3547,6419 Z M 3901,6065 L 3901,6402 3564,6402 3564,6220 3832,6065 3901,6065 Z"/>
     <path fill="rgb(219,219,219)" stroke="none" d="M 3564,6402 L 3901,6402 3901,6065 3832,6065 4415,5728 4415,6854 3441,7416 3441,6291 3564,6220 3564,6402 Z M 3884,6082 L 3884,6385 3581,6385 3581,6210 3803,6082 3884,6082 Z"/>
     <path fill="rgb(220,220,220)" stroke="none" d="M 3581,6385 L 3884,6385 3884,6082 3803,6082 4415,5728 4415,6854 3441,7416 3441,6291 3581,6210 3581,6385 Z M 3867,6099 L 3867,6368 3598,6368 3598,6200 3773,6099 3867,6099 Z"/>
     <path fill="rgb(221,221,221)" stroke="none" d="M 3598,6368 L 3867,6368 3867,6099 3773,6099 4415,5728 4415,6854 3441,7416 3441,6291 3598,6200 3598,6368 Z M 3850,6116 L 3850,6351 3615,6351 3615,6190 3744,6116 3850,6116 Z"/>
     <path fill="rgb(222,222,222)" stroke="none" d="M 3615,6351 L 3850,6351 3850,6116 3744,6116 4415,5728 4415,6854 3441,7416 3441,6291 3615,6190 3615,6351 Z M 3833,6133 L 3833,6334 3632,6334 3632,6181 3714,6133 3833,6133 Z"/>
     <path fill="rgb(223,223,223)" stroke="none" d="M 3632,6334 L 3833,6334 3833,6133 3714,6133 4415,5728 4415,6854 3441,7416 3441,6291 3632,6181 3632,6334 Z M 3817,6149 L 3817,6318 3648,6318 3648,6171 3687,6149 3817,6149 Z"/>
     <path fill="rgb(224,224,224)" stroke="none" d="M 3648,6318 L 3817,6318 3817,6149 3687,6149 4415,5728 4415,6854 3441,7416 3441,6291 3648,6171 3648,6318 Z M 3665,6166 L 3800,6166 3800,6301 3665,6301 3665,6166 Z"/>
     <path fill="rgb(225,225,225)" stroke="none" d="M 3665,6166 L 3665,6301 3800,6301 3800,6166 3665,6166 Z M 3682,6183 L 3783,6183 3783,6284 3682,6284 3682,6183 Z M 3441,7416 L 3441,6291 4415,5728 4415,6854 3441,7416 Z"/>
     <path fill="rgb(226,226,226)" stroke="none" d="M 3682,6183 L 3682,6284 3783,6284 3783,6183 3682,6183 Z M 3699,6200 L 3766,6200 3766,6267 3699,6267 3699,6200 Z M 3441,7416 L 3441,6291 4415,5728 4415,6854 3441,7416 Z"/>
     <path fill="rgb(227,227,227)" stroke="none" d="M 3699,6200 L 3699,6267 3766,6267 3766,6200 3699,6200 Z M 3716,6217 L 3749,6217 3749,6250 3716,6250 3716,6217 Z M 3441,7416 L 3441,6291 4415,5728 4415,6854 3441,7416 Z"/>
     <path fill="rgb(229,229,229)" stroke="none" d="M 3716,6217 L 3716,6250 3749,6250 3749,6217 3716,6217 Z M 3441,7416 L 3441,6291 4415,5728 4415,6854 3441,7416 Z"/>
     <path fill="none" stroke="rgb(255,255,255)" id="Drawing_3_0" stroke-width="40" stroke-linejoin="round" d="M 3441,7416 L 3441,6291 4415,5728 4415,6854 3441,7416 Z"/>
    </g>
    <g>
     <defs>
      <linearGradient id="Gradient_663" gradientUnits="userSpaceOnUse" x1="2370" y1="4602" x2="2370" y2="5615">
       <stop offset="0.1" stop-color="rgb(179,179,179)"/>
       <stop offset="1" stop-color="rgb(229,229,229)"/>
      </linearGradient>
     </defs>
     <path fill="url(#Gradient_663)" stroke="rgb(255,255,255)" id="Drawing_4_0" stroke-width="40" stroke-linejoin="round" d="M 2273,5615 L 1494,5165 2468,4602 3246,5052 2273,5615 Z"/>
    </g>
    <g>
     <path fill="rgb(127,127,127)" stroke="none" d="M 1981,6346 L 1981,6065 2078,6121 2078,6403 1981,6346 Z"/>
     <path fill="none" stroke="rgb(0,0,0)" id="Drawing_5_0" stroke-width="40" stroke-linejoin="round" d="M 1981,6346 L 1981,6065 2078,6121 2078,6403 1981,6346 Z"/>
    </g>
    <g>
     <path fill="rgb(127,127,127)" stroke="none" d="M 1786,6234 L 1786,5953 1883,6009 1883,6291 1786,6234 Z"/>
     <path fill="none" stroke="rgb(0,0,0)" id="Drawing_6_0" stroke-width="40" stroke-linejoin="round" d="M 1786,6234 L 1786,5953 1883,6009 1883,6291 1786,6234 Z"/>
    </g>
    <g>
     <defs>
      <linearGradient id="Gradient_664" gradientUnits="userSpaceOnUse" x1="3148" y1="6768" x2="3442" y2="6768">
       <stop offset="0.1" stop-color="rgb(179,179,179)"/>
       <stop offset="1" stop-color="rgb(229,229,229)"/>
      </linearGradient>
     </defs>
     <path fill="url(#Gradient_664)" stroke="rgb(255,255,255)" id="Drawing_7_0" stroke-width="40" stroke-linejoin="round" d="M 3149,7247 L 3149,6121 3441,6290 3441,7415 3149,7247 Z"/>
    </g>
    <g>
     <path fill="rgb(57,181,74)" stroke="none" d="M 1981,5840 L 1981,5671 2078,5727 2078,5896 1981,5840 Z"/>
     <path fill="none" stroke="rgb(127,127,127)" id="Drawing_8_0" stroke-width="40" stroke-linejoin="round" d="M 1981,5840 L 1981,5671 2078,5727 2078,5896 1981,5840 Z"/>
    </g>
    <g>
     <defs>
      <linearGradient id="Gradient_665" gradientUnits="userSpaceOnUse" x1="2856" y1="6600" x2="3150" y2="6600">
       <stop offset="0.1" stop-color="rgb(179,179,179)"/>
       <stop offset="1" stop-color="rgb(229,229,229)"/>
      </linearGradient>
     </defs>
     <path fill="url(#Gradient_665)" stroke="rgb(255,255,255)" id="Drawing_9_0" stroke-width="40" stroke-linejoin="round" d="M 2857,7079 L 2857,5953 3149,6122 3149,7247 2857,7079 Z"/>
    </g>
    <g>
     <defs>
      <linearGradient id="Gradient_666" gradientUnits="userSpaceOnUse" x1="2564" y1="6431" x2="2858" y2="6431">
       <stop offset="0.1" stop-color="rgb(179,179,179)"/>
       <stop offset="1" stop-color="rgb(229,229,229)"/>
      </linearGradient>
     </defs>
     <path fill="url(#Gradient_666)" stroke="rgb(255,255,255)" id="Drawing_10_0" stroke-width="40" stroke-linejoin="round" d="M 2565,6910 L 2565,5784 2857,5953 2857,7078 2565,6910 Z"/>
    </g>
    <g>
     <defs>
      <linearGradient id="Gradient_667" gradientUnits="userSpaceOnUse" x1="2272" y1="6262" x2="2566" y2="6262">
       <stop offset="0.1" stop-color="rgb(179,179,179)"/>
       <stop offset="1" stop-color="rgb(229,229,229)"/>
      </linearGradient>
     </defs>
     <path fill="url(#Gradient_667)" stroke="rgb(255,255,255)" id="Drawing_11_0" stroke-width="40" stroke-linejoin="round" d="M 2273,6741 L 2273,5615 2565,5784 2565,6909 2273,6741 Z"/>
    </g>
    <g>
     <defs>
      <linearGradient id="Gradient_668" gradientUnits="userSpaceOnUse" x1="2906" y1="5052" x2="2906" y2="5784">
       <stop offset="0.1" stop-color="rgb(179,179,179)"/>
       <stop offset="1" stop-color="rgb(229,229,229)"/>
      </linearGradient>
     </defs>
     <path fill="url(#Gradient_668)" stroke="rgb(255,255,255)" id="Drawing_12_0" stroke-width="40" stroke-linejoin="round" d="M 2565,5784 L 2273,5615 3247,5052 3539,5221 2565,5784 Z"/>
    </g>
    <g>
     <defs>
      <linearGradient id="Gradient_669" gradientUnits="userSpaceOnUse" x1="3198" y1="5221" x2="3198" y2="5953">
       <stop offset="0.1" stop-color="rgb(179,179,179)"/>
       <stop offset="1" stop-color="rgb(229,229,229)"/>
      </linearGradient>
     </defs>
     <path fill="url(#Gradient_669)" stroke="rgb(255,255,255)" id="Drawing_13_0" stroke-width="40" stroke-linejoin="round" d="M 2857,5953 L 2565,5784 3539,5221 3831,5390 2857,5953 Z"/>
    </g>
    <g>
     <defs>
      <linearGradient id="Gradient_670" gradientUnits="userSpaceOnUse" x1="3490" y1="5390" x2="3490" y2="6122">
       <stop offset="0.1" stop-color="rgb(179,179,179)"/>
       <stop offset="1" stop-color="rgb(229,229,229)"/>
      </linearGradient>
     </defs>
     <path fill="url(#Gradient_670)" stroke="rgb(255,255,255)" id="Drawing_14_0" stroke-width="40" stroke-linejoin="round" d="M 3149,6122 L 2857,5953 3831,5390 4123,5559 3149,6122 Z"/>
    </g>
    <g>
     <defs>
      <linearGradient id="Gradient_671" gradientUnits="userSpaceOnUse" x1="3782" y1="5559" x2="3782" y2="6291">
       <stop offset="0.1" stop-color="rgb(179,179,179)"/>
       <stop offset="1" stop-color="rgb(229,229,229)"/>
      </linearGradient>
     </defs>
     <path fill="url(#Gradient_671)" stroke="rgb(255,255,255)" id="Drawing_15_0" stroke-width="40" stroke-linejoin="round" d="M 3441,6291 L 3149,6122 4123,5559 4415,5728 3441,6291 Z"/>
    </g>
    <g>
     <path fill="rgb(127,127,127)" stroke="none" d="M 2370,5953 L 2370,5784 2467,5840 2467,6009 2370,5953 Z"/>
     <path fill="none" stroke="rgb(0,0,0)" id="Drawing_16_0" stroke-width="40" stroke-linejoin="round" d="M 2370,5953 L 2370,5784 2467,5840 2467,6009 2370,5953 Z"/>
    </g>
    <g>
     <path fill="rgb(127,127,127)" stroke="none" d="M 2370,6290 L 2370,6121 2467,6177 2467,6346 2370,6290 Z"/>
     <path fill="none" stroke="rgb(0,0,0)" id="Drawing_17_0" stroke-width="40" stroke-linejoin="round" d="M 2370,6290 L 2370,6121 2467,6177 2467,6346 2370,6290 Z"/>
    </g>
    <g>
     <path fill="rgb(127,127,127)" stroke="none" d="M 2370,6628 L 2370,6459 2467,6515 2467,6684 2370,6628 Z"/>
     <path fill="none" stroke="rgb(0,0,0)" id="Drawing_18_0" stroke-width="40" stroke-linejoin="round" d="M 2370,6628 L 2370,6459 2467,6515 2467,6684 2370,6628 Z"/>
    </g>
    <g>
     <path fill="rgb(127,127,127)" stroke="none" d="M 2662,6122 L 2662,5953 2759,6009 2759,6178 2662,6122 Z"/>
     <path fill="none" stroke="rgb(0,0,0)" id="Drawing_19_0" stroke-width="40" stroke-linejoin="round" d="M 2662,6122 L 2662,5953 2759,6009 2759,6178 2662,6122 Z"/>
    </g>
    <g>
     <path fill="rgb(127,127,127)" stroke="none" d="M 2954,6347 L 2954,6178 3051,6234 3051,6403 2954,6347 Z"/>
     <path fill="none" stroke="rgb(0,0,0)" id="Drawing_20_0" stroke-width="40" stroke-linejoin="round" d="M 2954,6347 L 2954,6178 3051,6234 3051,6403 2954,6347 Z"/>
    </g>
    <g>
     <path fill="rgb(127,127,127)" stroke="none" d="M 2954,6966 L 2954,6797 3051,6853 3051,7022 2954,6966 Z"/>
     <path fill="none" stroke="rgb(0,0,0)" id="Drawing_21_0" stroke-width="40" stroke-linejoin="round" d="M 2954,6966 L 2954,6797 3051,6853 3051,7022 2954,6966 Z"/>
    </g>
    <g>
     <path fill="none" stroke="rgb(0,0,0)" id="Drawing_22_0" stroke-width="40" stroke-linejoin="round" d="M 1494,6290 L 1494,5165 2468,4602 4415,5728 4415,6853 3441,7416 1494,6290 Z"/>
    </g>
   </g>
  </g>
  <g id="DrawingGroup_3">
   <g>
    <path fill="rgb(221,221,221)" stroke="none" d="M 5068,13319 C 5335,13319 6334,13038 6334,12813 6334,12588 6309,12475 6042,12475 6042,12644 5068,13093 5068,13319 Z"/>
    <path fill="none" stroke="rgb(221,221,221)" id="Drawing_23_0" stroke-linejoin="round" d="M 5068,13319 C 5335,13319 6334,13038 6334,12813 6334,12588 6309,12475 6042,12475 6042,12644 5068,13093 5068,13319 Z"/>
   </g>
   <g id="DrawingGroup_4">
    <g>
     <defs>
      <linearGradient id="Gradient_672" gradientUnits="userSpaceOnUse" x1="3119" y1="11855" x2="3900" y2="11857">
       <stop offset="0.1" stop-color="rgb(51,51,51)"/>
       <stop offset="1" stop-color="rgb(153,153,153)"/>
      </linearGradient>
     </defs>
     <path fill="url(#Gradient_672)" stroke="rgb(178,178,178)" id="Drawing_24_0" stroke-width="40" stroke-linejoin="round" d="M 3121,12194 L 3121,11068 3900,11518 3900,12644 3121,12194 Z"/>
    </g>
    <g>
     <path fill="rgb(51,51,51)" stroke="none" d="M 5068,12971 L 5068,12194 6042,11631 6042,12757 5671,12971 5068,12971 Z"/>
     <path fill="rgb(52,52,52)" stroke="none" d="M 5671,12971 L 5068,13319 5068,12971 5671,12971 Z M 5068,12961 L 5068,12194 6042,11631 6042,12757 5688,12961 5068,12961 Z"/>
     <path fill="rgb(53,53,53)" stroke="none" d="M 5688,12961 L 5068,13319 5068,12961 5688,12961 Z M 5068,12951 L 5068,12194 6042,11631 6042,12757 5706,12951 5068,12951 Z"/>
     <path fill="rgb(54,54,54)" stroke="none" d="M 5706,12951 L 5068,13319 5068,12951 5706,12951 Z M 5068,12941 L 5068,12194 6042,11631 6042,12757 5723,12941 5068,12941 Z"/>
     <path fill="rgb(55,55,55)" stroke="none" d="M 5723,12941 L 5068,13319 5068,12941 5723,12941 Z M 5068,12931 L 5068,12194 6042,11631 6042,12757 5740,12931 5068,12931 Z"/>
     <path fill="rgb(57,57,57)" stroke="none" d="M 5740,12931 L 5068,13319 5068,12931 5740,12931 Z M 5068,12921 L 5068,12194 6042,11631 6042,12757 5758,12921 5068,12921 Z"/>
     <path fill="rgb(58,58,58)" stroke="none" d="M 5758,12921 L 5068,13319 5068,12921 5758,12921 Z M 5068,12911 L 5068,12194 6042,11631 6042,12757 5775,12911 5068,12911 Z"/>
     <path fill="rgb(59,59,59)" stroke="none" d="M 5775,12911 L 5068,13319 5068,12911 5775,12911 Z M 5068,12901 L 5068,12194 6042,11631 6042,12757 5792,12901 5068,12901 Z"/>
     <path fill="rgb(60,60,60)" stroke="none" d="M 5792,12901 L 5068,13319 5068,12901 5792,12901 Z M 5068,12891 L 5068,12194 6042,11631 6042,12757 5810,12891 5068,12891 Z"/>
     <path fill="rgb(61,61,61)" stroke="none" d="M 5810,12891 L 5068,13319 5068,12891 5810,12891 Z M 5068,12881 L 5068,12194 6042,11631 6042,12757 5827,12881 5068,12881 Z"/>
     <path fill="rgb(63,63,63)" stroke="none" d="M 5827,12881 L 5068,13319 5068,12881 5827,12881 Z M 5068,12871 L 5068,12194 6042,11631 6042,12757 5844,12871 5068,12871 Z"/>
     <path fill="rgb(64,64,64)" stroke="none" d="M 5844,12871 L 5068,13319 5068,12871 5844,12871 Z M 5068,12861 L 5068,12194 6042,11631 6042,12757 5862,12861 5068,12861 Z"/>
     <path fill="rgb(65,65,65)" stroke="none" d="M 5862,12861 L 5068,13319 5068,12861 5862,12861 Z M 5068,12851 L 5068,12194 6042,11631 6042,12757 5879,12851 5068,12851 Z"/>
     <path fill="rgb(66,66,66)" stroke="none" d="M 5879,12851 L 5068,13319 5068,12851 5879,12851 Z M 5068,12841 L 5068,12194 6042,11631 6042,12757 5896,12841 5068,12841 Z"/>
     <path fill="rgb(68,68,68)" stroke="none" d="M 5896,12841 L 5068,13319 5068,12841 5896,12841 Z M 5068,12831 L 5068,12194 6042,11631 6042,12757 5914,12831 5068,12831 Z"/>
     <path fill="rgb(69,69,69)" stroke="none" d="M 5914,12831 L 5068,13319 5068,12831 5914,12831 Z M 5068,12820 L 5068,12194 6042,11631 6042,12757 5933,12820 5068,12820 Z"/>
     <path fill="rgb(70,70,70)" stroke="none" d="M 5933,12820 L 5068,13319 5068,12820 5933,12820 Z M 6033,12762 L 5950,12810 5068,12810 5068,12194 6033,11636 6033,12762 Z"/>
     <path fill="rgb(71,71,71)" stroke="none" d="M 5950,12810 L 5068,13319 5068,12810 5950,12810 Z M 6033,11636 L 6042,11631 6042,12757 6033,12762 6033,11636 Z M 6023,12768 L 5967,12800 5068,12800 5068,12194 6023,11642 6023,12768 Z"/>
     <path fill="rgb(72,72,72)" stroke="none" d="M 5967,12800 L 5068,13319 5068,12800 5967,12800 Z M 6023,11642 L 6042,11631 6042,12757 6023,12768 6023,11642 Z M 6013,12774 L 5985,12790 5068,12790 5068,12194 6013,11648 6013,12774 Z"/>
     <path fill="rgb(74,74,74)" stroke="none" d="M 5985,12790 L 5068,13319 5068,12790 5985,12790 Z M 6013,11648 L 6042,11631 6042,12757 6013,12774 6013,11648 Z M 6003,12780 L 6002,12780 5068,12780 5068,12194 6003,11654 6003,12780 Z"/>
     <path fill="rgb(75,75,75)" stroke="none" d="M 6002,12780 L 5068,13319 5068,12780 6002,12780 Z M 6003,11654 L 6042,11631 6042,12757 6003,12780 6003,11654 Z M 5993,12770 L 5068,12770 5068,12194 5993,11659 5993,12770 Z"/>
     <path fill="rgb(76,76,76)" stroke="none" d="M 5993,12770 L 5993,11659 6042,11631 6042,12757 5068,13319 5068,12770 5993,12770 Z M 5983,12760 L 5068,12760 5068,12194 5983,11665 5983,12760 Z"/>
     <path fill="rgb(77,77,77)" stroke="none" d="M 5983,12760 L 5983,11665 6042,11631 6042,12757 5068,13319 5068,12760 5983,12760 Z M 5973,12750 L 5068,12750 5068,12194 5973,11671 5973,12750 Z"/>
     <path fill="rgb(78,78,78)" stroke="none" d="M 5973,12750 L 5973,11671 6042,11631 6042,12757 5068,13319 5068,12750 5973,12750 Z M 5963,12740 L 5068,12740 5068,12194 5963,11677 5963,12740 Z"/>
     <path fill="rgb(80,80,80)" stroke="none" d="M 5963,12740 L 5963,11677 6042,11631 6042,12757 5068,13319 5068,12740 5963,12740 Z M 5953,12730 L 5068,12730 5068,12194 5953,11682 5953,12730 Z"/>
     <path fill="rgb(81,81,81)" stroke="none" d="M 5953,12730 L 5953,11682 6042,11631 6042,12757 5068,13319 5068,12730 5953,12730 Z M 5943,12720 L 5068,12720 5068,12194 5943,11688 5943,12720 Z"/>
     <path fill="rgb(82,82,82)" stroke="none" d="M 5943,12720 L 5943,11688 6042,11631 6042,12757 5068,13319 5068,12720 5943,12720 Z M 5933,12710 L 5068,12710 5068,12194 5933,11694 5933,12710 Z"/>
     <path fill="rgb(83,83,83)" stroke="none" d="M 5933,12710 L 5933,11694 6042,11631 6042,12757 5068,13319 5068,12710 5933,12710 Z M 5923,12700 L 5068,12700 5068,12194 5923,11700 5923,12700 Z"/>
     <path fill="rgb(85,85,85)" stroke="none" d="M 5923,12700 L 5923,11700 6042,11631 6042,12757 5068,13319 5068,12700 5923,12700 Z M 5913,12690 L 5068,12690 5068,12194 5913,11706 5913,12690 Z"/>
     <path fill="rgb(86,86,86)" stroke="none" d="M 5913,12690 L 5913,11706 6042,11631 6042,12757 5068,13319 5068,12690 5913,12690 Z M 5903,12680 L 5068,12680 5068,12194 5903,11711 5903,12680 Z"/>
     <path fill="rgb(87,87,87)" stroke="none" d="M 5903,12680 L 5903,11711 6042,11631 6042,12757 5068,13319 5068,12680 5903,12680 Z M 5892,12669 L 5068,12669 5068,12194 5892,11718 5892,12669 Z"/>
     <path fill="rgb(88,88,88)" stroke="none" d="M 5892,12669 L 5892,11718 6042,11631 6042,12757 5068,13319 5068,12669 5892,12669 Z M 5882,12659 L 5068,12659 5068,12194 5882,11723 5882,12659 Z"/>
     <path fill="rgb(89,89,89)" stroke="none" d="M 5882,12659 L 5882,11723 6042,11631 6042,12757 5068,13319 5068,12659 5882,12659 Z M 5872,12649 L 5068,12649 5068,12194 5872,11729 5872,12649 Z"/>
     <path fill="rgb(91,91,91)" stroke="none" d="M 5872,12649 L 5872,11729 6042,11631 6042,12757 5068,13319 5068,12649 5872,12649 Z M 5862,12639 L 5068,12639 5068,12194 5862,11735 5862,12639 Z"/>
     <path fill="rgb(92,92,92)" stroke="none" d="M 5862,12639 L 5862,11735 6042,11631 6042,12757 5068,13319 5068,12639 5862,12639 Z M 5852,12629 L 5068,12629 5068,12194 5852,11741 5852,12629 Z"/>
     <path fill="rgb(93,93,93)" stroke="none" d="M 5852,12629 L 5852,11741 6042,11631 6042,12757 5068,13319 5068,12629 5852,12629 Z M 5842,12619 L 5068,12619 5068,12194 5842,11747 5842,12619 Z"/>
     <path fill="rgb(94,94,94)" stroke="none" d="M 5842,12619 L 5842,11747 6042,11631 6042,12757 5068,13319 5068,12619 5842,12619 Z M 5832,12609 L 5068,12609 5068,12194 5832,11752 5832,12609 Z"/>
     <path fill="rgb(95,95,95)" stroke="none" d="M 5832,12609 L 5832,11752 6042,11631 6042,12757 5068,13319 5068,12609 5832,12609 Z M 5822,12599 L 5068,12599 5068,12194 5822,11758 5822,12599 Z"/>
     <path fill="rgb(97,97,97)" stroke="none" d="M 5822,12599 L 5822,11758 6042,11631 6042,12757 5068,13319 5068,12599 5822,12599 Z M 5812,12589 L 5068,12589 5068,12194 5812,11764 5812,12589 Z"/>
     <path fill="rgb(98,98,98)" stroke="none" d="M 5812,12589 L 5812,11764 6042,11631 6042,12757 5068,13319 5068,12589 5812,12589 Z M 5802,12579 L 5068,12579 5068,12194 5802,11770 5802,12579 Z"/>
     <path fill="rgb(99,99,99)" stroke="none" d="M 5802,12579 L 5802,11770 6042,11631 6042,12757 5068,13319 5068,12579 5802,12579 Z M 5792,12569 L 5068,12569 5068,12194 5792,11776 5792,12569 Z"/>
     <path fill="rgb(100,100,100)" stroke="none" d="M 5792,12569 L 5792,11776 6042,11631 6042,12757 5068,13319 5068,12569 5792,12569 Z M 5782,12559 L 5068,12559 5068,12194 5782,11781 5782,12559 Z"/>
     <path fill="rgb(102,102,102)" stroke="none" d="M 5782,12559 L 5782,11781 6042,11631 6042,12757 5068,13319 5068,12559 5782,12559 Z M 5772,12549 L 5068,12549 5068,12194 5772,11787 5772,12549 Z"/>
     <path fill="rgb(103,103,103)" stroke="none" d="M 5772,12549 L 5772,11787 6042,11631 6042,12757 5068,13319 5068,12549 5772,12549 Z M 5762,12539 L 5068,12539 5068,12194 5762,11793 5762,12539 Z"/>
     <path fill="rgb(104,104,104)" stroke="none" d="M 5762,12539 L 5762,11793 6042,11631 6042,12757 5068,13319 5068,12539 5762,12539 Z M 5752,12529 L 5068,12529 5068,12194 5752,11799 5752,12529 Z"/>
     <path fill="rgb(105,105,105)" stroke="none" d="M 5752,12529 L 5752,11799 6042,11631 6042,12757 5068,13319 5068,12529 5752,12529 Z M 5741,12518 L 5068,12518 5068,12194 5741,11805 5741,12518 Z"/>
     <path fill="rgb(106,106,106)" stroke="none" d="M 5741,12518 L 5741,11805 6042,11631 6042,12757 5068,13319 5068,12518 5741,12518 Z M 5731,12508 L 5068,12508 5068,12194 5731,11811 5731,12508 Z"/>
     <path fill="rgb(108,108,108)" stroke="none" d="M 5731,12508 L 5731,11811 6042,11631 6042,12757 5068,13319 5068,12508 5731,12508 Z M 5721,12498 L 5068,12498 5068,12194 5721,11817 5721,12498 Z"/>
     <path fill="rgb(109,109,109)" stroke="none" d="M 5721,12498 L 5721,11817 6042,11631 6042,12757 5068,13319 5068,12498 5721,12498 Z M 5711,12488 L 5068,12488 5068,12194 5711,11822 5711,12488 Z"/>
     <path fill="rgb(110,110,110)" stroke="none" d="M 5711,12488 L 5711,11822 6042,11631 6042,12757 5068,13319 5068,12488 5711,12488 Z M 5701,12478 L 5068,12478 5068,12194 5701,11828 5701,12478 Z"/>
     <path fill="rgb(111,111,111)" stroke="none" d="M 5701,12478 L 5701,11828 6042,11631 6042,12757 5068,13319 5068,12478 5701,12478 Z M 5691,12468 L 5068,12468 5068,12194 5691,11834 5691,12468 Z"/>
     <path fill="rgb(112,112,112)" stroke="none" d="M 5691,12468 L 5691,11834 6042,11631 6042,12757 5068,13319 5068,12468 5691,12468 Z M 5681,12458 L 5068,12458 5068,12194 5681,11840 5681,12458 Z"/>
     <path fill="rgb(114,114,114)" stroke="none" d="M 5681,12458 L 5681,11840 6042,11631 6042,12757 5068,13319 5068,12458 5681,12458 Z M 5671,12448 L 5068,12448 5068,12194 5671,11845 5671,12448 Z"/>
     <path fill="rgb(115,115,115)" stroke="none" d="M 5671,12448 L 5671,11845 6042,11631 6042,12757 5068,13319 5068,12448 5671,12448 Z M 5661,12438 L 5068,12438 5068,12194 5661,11851 5661,12438 Z"/>
     <path fill="rgb(116,116,116)" stroke="none" d="M 5661,12438 L 5661,11851 6042,11631 6042,12757 5068,13319 5068,12438 5661,12438 Z M 5651,12428 L 5068,12428 5068,12194 5651,11857 5651,12428 Z"/>
     <path fill="rgb(117,117,117)" stroke="none" d="M 5651,12428 L 5651,11857 6042,11631 6042,12757 5068,13319 5068,12428 5651,12428 Z M 5641,12418 L 5078,12418 5078,12188 5641,11863 5641,12418 Z"/>
     <path fill="rgb(119,119,119)" stroke="none" d="M 5078,12418 L 5641,12418 5641,11863 6042,11631 6042,12757 5068,13319 5068,12194 5078,12188 5078,12418 Z M 5631,12408 L 5088,12408 5088,12182 5631,11869 5631,12408 Z"/>
     <path fill="rgb(120,120,120)" stroke="none" d="M 5088,12408 L 5631,12408 5631,11869 6042,11631 6042,12757 5068,13319 5068,12194 5088,12182 5088,12408 Z M 5621,11875 L 5621,12398 5098,12398 5098,12177 5620,11875 5621,11875 Z"/>
     <path fill="rgb(121,121,121)" stroke="none" d="M 5098,12398 L 5621,12398 5621,11875 5620,11875 6042,11631 6042,12757 5068,13319 5068,12194 5098,12177 5098,12398 Z M 5611,11885 L 5611,12388 5108,12388 5108,12171 5603,11885 5611,11885 Z"/>
     <path fill="rgb(122,122,122)" stroke="none" d="M 5108,12388 L 5611,12388 5611,11885 5603,11885 6042,11631 6042,12757 5068,13319 5068,12194 5108,12171 5108,12388 Z M 5601,11895 L 5601,12378 5118,12378 5118,12165 5585,11895 5601,11895 Z"/>
     <path fill="rgb(123,123,123)" stroke="none" d="M 5118,12378 L 5601,12378 5601,11895 5585,11895 6042,11631 6042,12757 5068,13319 5068,12194 5118,12165 5118,12378 Z M 5591,11905 L 5591,12368 5128,12368 5128,12159 5568,11905 5591,11905 Z"/>
     <path fill="rgb(125,125,125)" stroke="none" d="M 5128,12368 L 5591,12368 5591,11905 5568,11905 6042,11631 6042,12757 5068,13319 5068,12194 5128,12159 5128,12368 Z M 5580,11916 L 5580,12357 5139,12357 5139,12153 5549,11916 5580,11916 Z"/>
     <path fill="rgb(126,126,126)" stroke="none" d="M 5139,12357 L 5580,12357 5580,11916 5549,11916 6042,11631 6042,12757 5068,13319 5068,12194 5139,12153 5139,12357 Z M 5570,11926 L 5570,12347 5149,12347 5149,12147 5532,11926 5570,11926 Z"/>
     <path fill="rgb(127,127,127)" stroke="none" d="M 5149,12347 L 5570,12347 5570,11926 5532,11926 6042,11631 6042,12757 5068,13319 5068,12194 5149,12147 5149,12347 Z M 5560,11936 L 5560,12337 5159,12337 5159,12141 5514,11936 5560,11936 Z"/>
     <path fill="rgb(128,128,128)" stroke="none" d="M 5159,12337 L 5560,12337 5560,11936 5514,11936 6042,11631 6042,12757 5068,13319 5068,12194 5159,12141 5159,12337 Z M 5550,11946 L 5550,12327 5169,12327 5169,12136 5497,11946 5550,11946 Z"/>
     <path fill="rgb(129,129,129)" stroke="none" d="M 5169,12327 L 5550,12327 5550,11946 5497,11946 6042,11631 6042,12757 5068,13319 5068,12194 5169,12136 5169,12327 Z M 5540,11956 L 5540,12317 5179,12317 5179,12130 5480,11956 5540,11956 Z"/>
     <path fill="rgb(131,131,131)" stroke="none" d="M 5179,12317 L 5540,12317 5540,11956 5480,11956 6042,11631 6042,12757 5068,13319 5068,12194 5179,12130 5179,12317 Z M 5530,11966 L 5530,12307 5189,12307 5189,12124 5462,11966 5530,11966 Z"/>
     <path fill="rgb(132,132,132)" stroke="none" d="M 5189,12307 L 5530,12307 5530,11966 5462,11966 6042,11631 6042,12757 5068,13319 5068,12194 5189,12124 5189,12307 Z M 5520,11976 L 5520,12297 5199,12297 5199,12118 5445,11976 5520,11976 Z"/>
     <path fill="rgb(133,133,133)" stroke="none" d="M 5199,12297 L 5520,12297 5520,11976 5445,11976 6042,11631 6042,12757 5068,13319 5068,12194 5199,12118 5199,12297 Z M 5510,11986 L 5510,12287 5209,12287 5209,12112 5428,11986 5510,11986 Z"/>
     <path fill="rgb(134,134,134)" stroke="none" d="M 5209,12287 L 5510,12287 5510,11986 5428,11986 6042,11631 6042,12757 5068,13319 5068,12194 5209,12112 5209,12287 Z M 5500,11996 L 5500,12277 5219,12277 5219,12107 5411,11996 5500,11996 Z"/>
     <path fill="rgb(136,136,136)" stroke="none" d="M 5219,12277 L 5500,12277 5500,11996 5411,11996 6042,11631 6042,12757 5068,13319 5068,12194 5219,12107 5219,12277 Z M 5490,12006 L 5490,12267 5229,12267 5229,12101 5393,12006 5490,12006 Z"/>
     <path fill="rgb(137,137,137)" stroke="none" d="M 5229,12267 L 5490,12267 5490,12006 5393,12006 6042,11631 6042,12757 5068,13319 5068,12194 5229,12101 5229,12267 Z M 5480,12016 L 5480,12257 5239,12257 5239,12095 5376,12016 5480,12016 Z"/>
     <path fill="rgb(138,138,138)" stroke="none" d="M 5239,12257 L 5480,12257 5480,12016 5376,12016 6042,11631 6042,12757 5068,13319 5068,12194 5239,12095 5239,12257 Z M 5470,12026 L 5470,12247 5249,12247 5249,12089 5359,12026 5470,12026 Z"/>
     <path fill="rgb(139,139,139)" stroke="none" d="M 5249,12247 L 5470,12247 5470,12026 5359,12026 6042,11631 6042,12757 5068,13319 5068,12194 5249,12089 5249,12247 Z M 5460,12036 L 5460,12237 5259,12237 5259,12084 5341,12036 5460,12036 Z"/>
     <path fill="rgb(140,140,140)" stroke="none" d="M 5259,12237 L 5460,12237 5460,12036 5341,12036 6042,11631 6042,12757 5068,13319 5068,12194 5259,12084 5259,12237 Z M 5450,12046 L 5450,12227 5269,12227 5269,12078 5324,12046 5450,12046 Z"/>
     <path fill="rgb(142,142,142)" stroke="none" d="M 5269,12227 L 5450,12227 5450,12046 5324,12046 6042,11631 6042,12757 5068,13319 5068,12194 5269,12078 5269,12227 Z M 5440,12056 L 5440,12217 5279,12217 5279,12072 5307,12056 5440,12056 Z"/>
     <path fill="rgb(143,143,143)" stroke="none" d="M 5279,12217 L 5440,12217 5440,12056 5307,12056 6042,11631 6042,12757 5068,13319 5068,12194 5279,12072 5279,12217 Z M 5290,12067 L 5429,12067 5429,12206 5290,12206 5290,12067 Z"/>
     <path fill="rgb(144,144,144)" stroke="none" d="M 5290,12067 L 5290,12206 5429,12206 5429,12067 5290,12067 Z M 5300,12077 L 5419,12077 5419,12196 5300,12196 5300,12077 Z M 5068,13319 L 5068,12194 6042,11631 6042,12757 5068,13319 Z"/>
     <path fill="rgb(145,145,145)" stroke="none" d="M 5300,12077 L 5300,12196 5419,12196 5419,12077 5300,12077 Z M 5310,12087 L 5409,12087 5409,12186 5310,12186 5310,12087 Z M 5068,13319 L 5068,12194 6042,11631 6042,12757 5068,13319 Z"/>
     <path fill="rgb(146,146,146)" stroke="none" d="M 5310,12087 L 5310,12186 5409,12186 5409,12087 5310,12087 Z M 5320,12097 L 5399,12097 5399,12176 5320,12176 5320,12097 Z M 5068,13319 L 5068,12194 6042,11631 6042,12757 5068,13319 Z"/>
     <path fill="rgb(148,148,148)" stroke="none" d="M 5320,12097 L 5320,12176 5399,12176 5399,12097 5320,12097 Z M 5330,12107 L 5389,12107 5389,12166 5330,12166 5330,12107 Z M 5068,13319 L 5068,12194 6042,11631 6042,12757 5068,13319 Z"/>
     <path fill="rgb(149,149,149)" stroke="none" d="M 5330,12107 L 5330,12166 5389,12166 5389,12107 5330,12107 Z M 5340,12117 L 5379,12117 5379,12156 5340,12156 5340,12117 Z M 5068,13319 L 5068,12194 6042,11631 6042,12757 5068,13319 Z"/>
     <path fill="rgb(150,150,150)" stroke="none" d="M 5340,12117 L 5340,12156 5379,12156 5379,12117 5340,12117 Z M 5350,12127 L 5369,12127 5369,12146 5350,12146 5350,12127 Z M 5068,13319 L 5068,12194 6042,11631 6042,12757 5068,13319 Z"/>
     <path fill="rgb(153,153,153)" stroke="none" d="M 5350,12127 L 5350,12146 5369,12146 5369,12127 5350,12127 Z M 5068,13319 L 5068,12194 6042,11631 6042,12757 5068,13319 Z"/>
     <path fill="none" stroke="rgb(178,178,178)" id="Drawing_25_0" stroke-width="40" stroke-linejoin="round" d="M 5068,13319 L 5068,12194 6042,11631 6042,12757 5068,13319 Z"/>
    </g>
    <g>
     <defs>
      <linearGradient id="Gradient_673" gradientUnits="userSpaceOnUse" x1="3997" y1="10505" x2="3997" y2="11518">
       <stop offset="0.1" stop-color="rgb(51,51,51)"/>
       <stop offset="1" stop-color="rgb(153,153,153)"/>
      </linearGradient>
     </defs>
     <path fill="url(#Gradient_673)" stroke="rgb(178,178,178)" id="Drawing_26_0" stroke-width="40" stroke-linejoin="round" d="M 3900,11518 L 3121,11068 4095,10505 4873,10955 3900,11518 Z"/>
    </g>
    <g>
     <path fill="rgb(127,127,127)" stroke="none" d="M 3608,12249 L 3608,11968 3705,12024 3705,12306 3608,12249 Z"/>
     <path fill="none" stroke="rgb(51,51,51)" id="Drawing_27_0" stroke-width="40" stroke-linejoin="round" d="M 3608,12249 L 3608,11968 3705,12024 3705,12306 3608,12249 Z"/>
    </g>
    <g>
     <path fill="rgb(127,127,127)" stroke="none" d="M 3413,12137 L 3413,11856 3510,11912 3510,12194 3413,12137 Z"/>
     <path fill="none" stroke="rgb(51,51,51)" id="Drawing_28_0" stroke-width="40" stroke-linejoin="round" d="M 3413,12137 L 3413,11856 3510,11912 3510,12194 3413,12137 Z"/>
    </g>
    <g>
     <defs>
      <linearGradient id="Gradient_674" gradientUnits="userSpaceOnUse" x1="4775" y1="12671" x2="5069" y2="12671">
       <stop offset="0.1" stop-color="rgb(51,51,51)"/>
       <stop offset="1" stop-color="rgb(153,153,153)"/>
      </linearGradient>
     </defs>
     <path fill="url(#Gradient_674)" stroke="rgb(178,178,178)" id="Drawing_29_0" stroke-width="40" stroke-linejoin="round" d="M 4776,13150 L 4776,12024 5068,12193 5068,13318 4776,13150 Z"/>
    </g>
    <g>
     <path fill="rgb(57,181,74)" stroke="none" d="M 3608,11743 L 3608,11574 3705,11630 3705,11799 3608,11743 Z"/>
     <path fill="none" stroke="rgb(51,51,51)" id="Drawing_30_0" stroke-width="40" stroke-linejoin="round" d="M 3608,11743 L 3608,11574 3705,11630 3705,11799 3608,11743 Z"/>
    </g>
    <g>
     <defs>
      <linearGradient id="Gradient_675" gradientUnits="userSpaceOnUse" x1="4483" y1="12503" x2="4777" y2="12503">
       <stop offset="0.1" stop-color="rgb(51,51,51)"/>
       <stop offset="1" stop-color="rgb(153,153,153)"/>
      </linearGradient>
     </defs>
     <path fill="url(#Gradient_675)" stroke="rgb(178,178,178)" id="Drawing_31_0" stroke-width="40" stroke-linejoin="round" d="M 4484,12982 L 4484,11856 4776,12025 4776,13150 4484,12982 Z"/>
    </g>
    <g>
     <defs>
      <linearGradient id="Gradient_676" gradientUnits="userSpaceOnUse" x1="4191" y1="12334" x2="4485" y2="12334">
       <stop offset="0.1" stop-color="rgb(51,51,51)"/>
       <stop offset="1" stop-color="rgb(153,153,153)"/>
      </linearGradient>
     </defs>
     <path fill="url(#Gradient_676)" stroke="rgb(178,178,178)" id="Drawing_32_0" stroke-width="40" stroke-linejoin="round" d="M 4192,12813 L 4192,11687 4484,11856 4484,12981 4192,12813 Z"/>
    </g>
    <g>
     <defs>
      <linearGradient id="Gradient_677" gradientUnits="userSpaceOnUse" x1="3899" y1="12165" x2="4193" y2="12165">
       <stop offset="0.1" stop-color="rgb(51,51,51)"/>
       <stop offset="1" stop-color="rgb(153,153,153)"/>
      </linearGradient>
     </defs>
     <path fill="url(#Gradient_677)" stroke="rgb(178,178,178)" id="Drawing_33_0" stroke-width="40" stroke-linejoin="round" d="M 3900,12644 L 3900,11518 4192,11687 4192,12812 3900,12644 Z"/>
    </g>
    <g>
     <defs>
      <linearGradient id="Gradient_678" gradientUnits="userSpaceOnUse" x1="4533" y1="10955" x2="4533" y2="11687">
       <stop offset="0.1" stop-color="rgb(51,51,51)"/>
       <stop offset="1" stop-color="rgb(153,153,153)"/>
      </linearGradient>
     </defs>
     <path fill="url(#Gradient_678)" stroke="rgb(178,178,178)" id="Drawing_34_0" stroke-width="40" stroke-linejoin="round" d="M 4192,11687 L 3900,11518 4874,10955 5166,11124 4192,11687 Z"/>
    </g>
    <g>
     <defs>
      <linearGradient id="Gradient_679" gradientUnits="userSpaceOnUse" x1="4825" y1="11124" x2="4825" y2="11856">
       <stop offset="0.1" stop-color="rgb(51,51,51)"/>
       <stop offset="1" stop-color="rgb(153,153,153)"/>
      </linearGradient>
     </defs>
     <path fill="url(#Gradient_679)" stroke="rgb(178,178,178)" id="Drawing_35_0" stroke-width="40" stroke-linejoin="round" d="M 4484,11856 L 4192,11687 5166,11124 5458,11293 4484,11856 Z"/>
    </g>
    <g>
     <defs>
      <linearGradient id="Gradient_680" gradientUnits="userSpaceOnUse" x1="5117" y1="11293" x2="5117" y2="12025">
       <stop offset="0.1" stop-color="rgb(51,51,51)"/>
       <stop offset="1" stop-color="rgb(153,153,153)"/>
      </linearGradient>
     </defs>
     <path fill="url(#Gradient_680)" stroke="rgb(178,178,178)" id="Drawing_36_0" stroke-width="40" stroke-linejoin="round" d="M 4776,12025 L 4484,11856 5458,11293 5750,11462 4776,12025 Z"/>
    </g>
    <g>
     <defs>
      <linearGradient id="Gradient_681" gradientUnits="userSpaceOnUse" x1="5409" y1="11462" x2="5409" y2="12194">
       <stop offset="0.1" stop-color="rgb(51,51,51)"/>
       <stop offset="1" stop-color="rgb(153,153,153)"/>
      </linearGradient>
     </defs>
     <path fill="url(#Gradient_681)" stroke="rgb(178,178,178)" id="Drawing_37_0" stroke-width="40" stroke-linejoin="round" d="M 5068,12194 L 4776,12025 5750,11462 6042,11631 5068,12194 Z"/>
    </g>
    <g>
     <path fill="rgb(0,0,0)" stroke="none" d="M 3997,11856 L 3997,11687 4094,11743 4094,11912 3997,11856 Z"/>
     <path fill="none" stroke="rgb(51,51,51)" id="Drawing_38_0" stroke-width="40" stroke-linejoin="round" d="M 3997,11856 L 3997,11687 4094,11743 4094,11912 3997,11856 Z"/>
    </g>
    <g>
     <path fill="rgb(0,0,0)" stroke="none" d="M 3997,12193 L 3997,12024 4094,12080 4094,12249 3997,12193 Z"/>
     <path fill="none" stroke="rgb(51,51,51)" id="Drawing_39_0" stroke-width="40" stroke-linejoin="round" d="M 3997,12193 L 3997,12024 4094,12080 4094,12249 3997,12193 Z"/>
    </g>
    <g>
     <path fill="rgb(0,0,0)" stroke="none" d="M 3997,12531 L 3997,12362 4094,12418 4094,12587 3997,12531 Z"/>
     <path fill="none" stroke="rgb(51,51,51)" id="Drawing_40_0" stroke-width="40" stroke-linejoin="round" d="M 3997,12531 L 3997,12362 4094,12418 4094,12587 3997,12531 Z"/>
    </g>
    <g>
     <path fill="rgb(0,0,0)" stroke="none" d="M 4289,12025 L 4289,11856 4386,11912 4386,12081 4289,12025 Z"/>
     <path fill="none" stroke="rgb(51,51,51)" id="Drawing_41_0" stroke-width="40" stroke-linejoin="round" d="M 4289,12025 L 4289,11856 4386,11912 4386,12081 4289,12025 Z"/>
    </g>
    <g>
     <path fill="rgb(0,0,0)" stroke="none" d="M 4581,12250 L 4581,12081 4678,12137 4678,12306 4581,12250 Z"/>
     <path fill="none" stroke="rgb(51,51,51)" id="Drawing_42_0" stroke-width="40" stroke-linejoin="round" d="M 4581,12250 L 4581,12081 4678,12137 4678,12306 4581,12250 Z"/>
    </g>
    <g>
     <path fill="rgb(0,0,0)" stroke="none" d="M 4581,12869 L 4581,12700 4678,12756 4678,12925 4581,12869 Z"/>
     <path fill="none" stroke="rgb(51,51,51)" id="Drawing_43_0" stroke-width="40" stroke-linejoin="round" d="M 4581,12869 L 4581,12700 4678,12756 4678,12925 4581,12869 Z"/>
    </g>
    <g>
     <path fill="none" stroke="rgb(0,0,0)" id="Drawing_44_0" stroke-width="40" stroke-linejoin="round" d="M 3121,12193 L 3121,11068 4095,10505 6042,11631 6042,12756 5068,13319 3121,12193 Z"/>
    </g>
   </g>
  </g>
 </g>
</svg>