<?xml version="1.0" encoding="UTF-8"?>

<svg version="1.2" baseProfile="tiny" width="47.98mm" height="48.3mm" viewBox="5605 4048 4798 4830" preserveAspectRatio="xMidYMid" fill-rule="evenodd" stroke-width="28.222" stroke-linejoin="round" xmlns="http://www.w3.org/2000/svg" xmlns:xlink="http://www.w3.org/1999/xlink" xml:space="preserve">
 <g visibility="visible" id="Slide_1">
  <g id="DrawingGroup_1">
   <g>
    <path fill="rgb(221,221,221)" stroke="none" d="M 8550,8858 C 8818,8858 10402,8295 10402,8069 10402,7844 10280,7731 10012,7731 10012,7900 8550,8632 8550,8858 Z"/>
    <path fill="none" stroke="rgb(221,221,221)" id="Drawing_1_0" stroke-linejoin="round" d="M 8550,8858 C 8818,8858 10402,8295 10402,8069 10402,7844 10280,7731 10012,7731 10012,7900 8550,8632 8550,8858 Z"/>
   </g>
   <g id="DrawingGroup_2">
    <g>
     <defs>
      <linearGradient id="Gradient_640" gradientUnits="userSpaceOnUse" x1="5622" y1="6321" x2="6601" y2="6323">
       <stop offset="0.1" stop-color="rgb(179,179,179)"/>
       <stop offset="1" stop-color="rgb(229,229,229)"/>
      </linearGradient>
     </defs>
     <path fill="url(#Gradient_640)" stroke="rgb(255,255,255)" id="Drawing_2_0" stroke-width="40" stroke-linejoin="round" d="M 5625,7167 L 5625,4913 6600,5477 6600,7731 5625,7167 Z"/>
    </g>
    <g>
     <path fill="rgb(179,179,179)" stroke="none" d="M 8550,8206 L 8550,6604 10012,5759 10012,8013 9678,8206 8550,8206 Z"/>
     <path fill="rgb(180,180,180)" stroke="none" d="M 9678,8206 L 8550,8858 8550,8206 9678,8206 Z M 8550,8175 L 8550,6604 10012,5759 10012,8013 9732,8175 8550,8175 Z"/>
     <path fill="rgb(181,181,181)" stroke="none" d="M 9732,8175 L 8550,8858 8550,8175 9732,8175 Z M 8550,8144 L 8550,6604 10012,5759 10012,8013 9785,8144 8550,8144 Z"/>
     <path fill="rgb(182,182,182)" stroke="none" d="M 9785,8144 L 8550,8858 8550,8144 9785,8144 Z M 8550,8113 L 8550,6604 10012,5759 10012,8013 9839,8113 8550,8113 Z"/>
     <path fill="rgb(183,183,183)" stroke="none" d="M 9839,8113 L 8550,8858 8550,8113 9839,8113 Z M 8550,8082 L 8550,6604 10012,5759 10012,8013 9893,8082 8550,8082 Z"/>
     <path fill="rgb(184,184,184)" stroke="none" d="M 9893,8082 L 8550,8858 8550,8082 9893,8082 Z M 8550,8051 L 8550,6604 10012,5759 10012,8013 9946,8051 8550,8051 Z"/>
     <path fill="rgb(185,185,185)" stroke="none" d="M 9946,8051 L 8550,8858 8550,8051 9946,8051 Z M 8550,8020 L 8550,6604 10012,5759 10012,8013 10000,8020 8550,8020 Z"/>
     <path fill="rgb(186,186,186)" stroke="none" d="M 10000,8020 L 8550,8858 8550,8020 10000,8020 Z M 8550,7989 L 8550,6604 10012,5759 10012,7989 8550,7989 Z"/>
     <path fill="rgb(187,187,187)" stroke="none" d="M 10012,7989 L 10012,8013 8550,8858 8550,7989 10012,7989 Z M 8550,7958 L 8550,6604 10012,5759 10012,7958 8550,7958 Z"/>
     <path fill="rgb(188,188,188)" stroke="none" d="M 10012,7958 L 10012,8013 8550,8858 8550,7958 10012,7958 Z M 8550,7927 L 8550,6604 10012,5759 10012,7927 8550,7927 Z"/>
     <path fill="rgb(189,189,189)" stroke="none" d="M 10012,7927 L 10012,8013 8550,8858 8550,7927 10012,7927 Z M 8550,7896 L 8550,6604 10012,5759 10012,7896 8550,7896 Z"/>
     <path fill="rgb(190,190,190)" stroke="none" d="M 10012,7896 L 10012,8013 8550,8858 8550,7896 10012,7896 Z M 8550,7865 L 8550,6604 10012,5759 10012,7865 8550,7865 Z"/>
     <path fill="rgb(191,191,191)" stroke="none" d="M 10012,7865 L 10012,8013 8550,8858 8550,7865 10012,7865 Z M 8550,7834 L 8550,6604 10012,5759 10012,7834 8550,7834 Z"/>
     <path fill="rgb(192,192,192)" stroke="none" d="M 10012,7834 L 10012,8013 8550,8858 8550,7834 10012,7834 Z M 8550,7803 L 8550,6604 10012,5759 10012,7803 8550,7803 Z"/>
     <path fill="rgb(193,193,193)" stroke="none" d="M 10012,7803 L 10012,8013 8550,8858 8550,7803 10012,7803 Z M 8550,7772 L 8550,6604 10012,5759 10012,7772 8550,7772 Z"/>
     <path fill="rgb(194,194,194)" stroke="none" d="M 10012,7772 L 10012,8013 8550,8858 8550,7772 10012,7772 Z M 8550,7741 L 8550,6604 10012,5759 10012,7741 8550,7741 Z"/>
     <path fill="rgb(195,195,195)" stroke="none" d="M 10012,7741 L 10012,8013 8550,8858 8550,7741 10012,7741 Z M 10010,7710 L 8550,7710 8550,6604 10010,5760 10010,7710 Z"/>
     <path fill="rgb(196,196,196)" stroke="none" d="M 10010,7710 L 10010,5760 10012,5759 10012,8013 8550,8858 8550,7710 10010,7710 Z M 9979,7679 L 8550,7679 8550,6604 9979,5778 9979,7679 Z"/>
     <path fill="rgb(197,197,197)" stroke="none" d="M 9979,7679 L 9979,5778 10012,5759 10012,8013 8550,8858 8550,7679 9979,7679 Z M 9948,7648 L 8550,7648 8550,6604 9948,5796 9948,7648 Z"/>
     <path fill="rgb(198,198,198)" stroke="none" d="M 9948,7648 L 9948,5796 10012,5759 10012,8013 8550,8858 8550,7648 9948,7648 Z M 9917,7617 L 8550,7617 8550,6604 9917,5814 9917,7617 Z"/>
     <path fill="rgb(199,199,199)" stroke="none" d="M 9917,7617 L 9917,5814 10012,5759 10012,8013 8550,8858 8550,7617 9917,7617 Z M 9886,7586 L 8550,7586 8550,6604 9886,5832 9886,7586 Z"/>
     <path fill="rgb(200,200,200)" stroke="none" d="M 9886,7586 L 9886,5832 10012,5759 10012,8013 8550,8858 8550,7586 9886,7586 Z M 9855,7555 L 8550,7555 8550,6604 9855,5850 9855,7555 Z"/>
     <path fill="rgb(201,201,201)" stroke="none" d="M 9855,7555 L 9855,5850 10012,5759 10012,8013 8550,8858 8550,7555 9855,7555 Z M 9824,7524 L 8550,7524 8550,6604 9824,5868 9824,7524 Z"/>
     <path fill="rgb(202,202,202)" stroke="none" d="M 9824,7524 L 9824,5868 10012,5759 10012,8013 8550,8858 8550,7524 9824,7524 Z M 9793,7493 L 8550,7493 8550,6604 9793,5886 9793,7493 Z"/>
     <path fill="rgb(203,203,203)" stroke="none" d="M 9793,7493 L 9793,5886 10012,5759 10012,8013 8550,8858 8550,7493 9793,7493 Z M 9762,5912 L 9762,7462 8550,7462 8550,6604 9747,5912 9762,5912 Z"/>
     <path fill="rgb(204,204,204)" stroke="none" d="M 9762,7462 L 9762,5912 9747,5912 10012,5759 10012,8013 8550,8858 8550,7462 9762,7462 Z M 9731,5943 L 9731,7431 8550,7431 8550,6604 9694,5943 9731,5943 Z"/>
     <path fill="rgb(205,205,205)" stroke="none" d="M 9731,7431 L 9731,5943 9694,5943 10012,5759 10012,8013 8550,8858 8550,7431 9731,7431 Z M 9700,5974 L 9700,7400 8550,7400 8550,6604 9640,5974 9700,5974 Z"/>
     <path fill="rgb(206,206,206)" stroke="none" d="M 9700,7400 L 9700,5974 9640,5974 10012,5759 10012,8013 8550,8858 8550,7400 9700,7400 Z M 9669,6005 L 9669,7369 8550,7369 8550,6604 9586,6005 9669,6005 Z"/>
     <path fill="rgb(207,207,207)" stroke="none" d="M 9669,7369 L 9669,6005 9586,6005 10012,5759 10012,8013 8550,8858 8550,7369 9669,7369 Z M 9638,6036 L 9638,7338 8550,7338 8550,6604 9533,6036 9638,6036 Z"/>
     <path fill="rgb(208,208,208)" stroke="none" d="M 9638,7338 L 9638,6036 9533,6036 10012,5759 10012,8013 8550,8858 8550,7338 9638,7338 Z M 9607,6067 L 9607,7307 8550,7307 8550,6604 9479,6067 9607,6067 Z"/>
     <path fill="rgb(209,209,209)" stroke="none" d="M 9607,7307 L 9607,6067 9479,6067 10012,5759 10012,8013 8550,8858 8550,7307 9607,7307 Z M 9576,6098 L 9576,7276 8550,7276 8550,6604 9425,6098 9576,6098 Z"/>
     <path fill="rgb(210,210,210)" stroke="none" d="M 9576,7276 L 9576,6098 9425,6098 10012,5759 10012,8013 8550,8858 8550,7276 9576,7276 Z M 9545,6129 L 9545,7245 8550,7245 8550,6604 9372,6129 9545,6129 Z"/>
     <path fill="rgb(211,211,211)" stroke="none" d="M 9545,7245 L 9545,6129 9372,6129 10012,5759 10012,8013 8550,8858 8550,7245 9545,7245 Z M 9514,6160 L 9514,7214 8550,7214 8550,6604 9318,6160 9514,6160 Z"/>
     <path fill="rgb(212,212,212)" stroke="none" d="M 9514,7214 L 9514,6160 9318,6160 10012,5759 10012,8013 8550,8858 8550,7214 9514,7214 Z M 9483,6191 L 9483,7183 8550,7183 8550,6604 9265,6191 9483,6191 Z"/>
     <path fill="rgb(213,213,213)" stroke="none" d="M 9483,7183 L 9483,6191 9265,6191 10012,5759 10012,8013 8550,8858 8550,7183 9483,7183 Z M 9452,6222 L 9452,7152 8550,7152 8550,6604 9211,6222 9452,6222 Z"/>
     <path fill="rgb(214,214,214)" stroke="none" d="M 9452,7152 L 9452,6222 9211,6222 10012,5759 10012,8013 8550,8858 8550,7152 9452,7152 Z M 9421,6253 L 9421,7121 8553,7121 8553,6602 9157,6253 9421,6253 Z"/>
     <path fill="rgb(215,215,215)" stroke="none" d="M 8553,7121 L 9421,7121 9421,6253 9157,6253 10012,5759 10012,8013 8550,8858 8550,6604 8553,6602 8553,7121 Z M 9390,6284 L 9390,7090 8584,7090 8584,6584 9104,6284 9390,6284 Z"/>
     <path fill="rgb(216,216,216)" stroke="none" d="M 8584,7090 L 9390,7090 9390,6284 9104,6284 10012,5759 10012,8013 8550,8858 8550,6604 8584,6584 8584,7090 Z M 9359,6315 L 9359,7059 8615,7059 8615,6566 9050,6315 9359,6315 Z"/>
     <path fill="rgb(217,217,217)" stroke="none" d="M 8615,7059 L 9359,7059 9359,6315 9050,6315 10012,5759 10012,8013 8550,8858 8550,6604 8615,6566 8615,7059 Z M 9328,6346 L 9328,7028 8646,7028 8646,6549 8996,6346 9328,6346 Z"/>
     <path fill="rgb(218,218,218)" stroke="none" d="M 8646,7028 L 9328,7028 9328,6346 8996,6346 10012,5759 10012,8013 8550,8858 8550,6604 8646,6549 8646,7028 Z M 9297,6377 L 9297,6997 8677,6997 8677,6531 8943,6377 9297,6377 Z"/>
     <path fill="rgb(219,219,219)" stroke="none" d="M 8677,6997 L 9297,6997 9297,6377 8943,6377 10012,5759 10012,8013 8550,8858 8550,6604 8677,6531 8677,6997 Z M 9266,6408 L 9266,6966 8708,6966 8708,6513 8889,6408 9266,6408 Z"/>
     <path fill="rgb(220,220,220)" stroke="none" d="M 8708,6966 L 9266,6966 9266,6408 8889,6408 10012,5759 10012,8013 8550,8858 8550,6604 8708,6513 8708,6966 Z M 9235,6439 L 9235,6935 8739,6935 8739,6495 8835,6439 9235,6439 Z"/>
     <path fill="rgb(221,221,221)" stroke="none" d="M 8739,6935 L 9235,6935 9235,6439 8835,6439 10012,5759 10012,8013 8550,8858 8550,6604 8739,6495 8739,6935 Z M 9204,6470 L 9204,6904 8770,6904 8770,6477 8782,6470 9204,6470 Z"/>
     <path fill="rgb(222,222,222)" stroke="none" d="M 8770,6904 L 9204,6904 9204,6470 8782,6470 10012,5759 10012,8013 8550,8858 8550,6604 8770,6477 8770,6904 Z M 8801,6501 L 9173,6501 9173,6873 8801,6873 8801,6501 Z"/>
     <path fill="rgb(223,223,223)" stroke="none" d="M 8801,6501 L 8801,6873 9173,6873 9173,6501 8801,6501 Z M 8832,6532 L 9142,6532 9142,6842 8832,6842 8832,6532 Z M 8550,8858 L 8550,6604 10012,5759 10012,8013 8550,8858 Z"/>
     <path fill="rgb(224,224,224)" stroke="none" d="M 8832,6532 L 8832,6842 9142,6842 9142,6532 8832,6532 Z M 8863,6563 L 9111,6563 9111,6811 8863,6811 8863,6563 Z M 8550,8858 L 8550,6604 10012,5759 10012,8013 8550,8858 Z"/>
     <path fill="rgb(225,225,225)" stroke="none" d="M 8863,6563 L 8863,6811 9111,6811 9111,6563 8863,6563 Z M 8894,6594 L 9080,6594 9080,6780 8894,6780 8894,6594 Z M 8550,8858 L 8550,6604 10012,5759 10012,8013 8550,8858 Z"/>
     <path fill="rgb(226,226,226)" stroke="none" d="M 8894,6594 L 8894,6780 9080,6780 9080,6594 8894,6594 Z M 8925,6625 L 9049,6625 9049,6749 8925,6749 8925,6625 Z M 8550,8858 L 8550,6604 10012,5759 10012,8013 8550,8858 Z"/>
     <path fill="rgb(227,227,227)" stroke="none" d="M 8925,6625 L 8925,6749 9049,6749 9049,6625 8925,6625 Z M 8956,6656 L 9018,6656 9018,6718 8956,6718 8956,6656 Z M 8550,8858 L 8550,6604 10012,5759 10012,8013 8550,8858 Z"/>
     <path fill="rgb(229,229,229)" stroke="none" d="M 8956,6656 L 8956,6718 9018,6718 9018,6656 8956,6656 Z M 8550,8858 L 8550,6604 10012,5759 10012,8013 8550,8858 Z"/>
     <path fill="none" stroke="rgb(255,255,255)" id="Drawing_3_0" stroke-width="40" stroke-linejoin="round" d="M 8550,8858 L 8550,6604 10012,5759 10012,8013 8550,8858 Z"/>
    </g>
    <g>
     <defs>
      <linearGradient id="Gradient_641" gradientUnits="userSpaceOnUse" x1="7818" y1="4068" x2="7818" y2="6604">
       <stop offset="0.1" stop-color="rgb(179,179,179)"/>
       <stop offset="1" stop-color="rgb(229,229,229)"/>
      </linearGradient>
     </defs>
     <path fill="url(#Gradient_641)" stroke="rgb(255,255,255)" id="Drawing_4_0" stroke-width="40" stroke-linejoin="round" d="M 8550,6604 L 5625,4913 7087,4068 10012,5759 8550,6604 Z"/>
    </g>
    <g>
     <path fill="rgb(209,97,108)" stroke="none" d="M 6795,6660 L 6795,6491 6892,6547 6892,6716 6795,6660 Z"/>
     <path fill="none" stroke="rgb(0,0,0)" id="Drawing_5_0" stroke-width="40" stroke-linejoin="round" d="M 6795,6660 L 6795,6491 6892,6547 6892,6716 6795,6660 Z"/>
    </g>
    <g>
     <path fill="rgb(127,127,127)" stroke="none" d="M 6015,5871 L 6015,5420 6210,5533 6210,5984 6015,5871 Z"/>
     <path fill="none" stroke="rgb(0,0,0)" id="Drawing_6_0" stroke-width="40" stroke-linejoin="round" d="M 6015,5871 L 6015,5420 6210,5533 6210,5984 6015,5871 Z"/>
    </g>
    <g>
     <path fill="rgb(127,127,127)" stroke="none" d="M 6015,7111 L 6015,6829 6112,6885 6112,7167 6015,7111 Z"/>
     <path fill="none" stroke="rgb(0,0,0)" id="Drawing_7_0" stroke-width="40" stroke-linejoin="round" d="M 6015,7111 L 6015,6829 6112,6885 6112,7167 6015,7111 Z"/>
    </g>
    <g>
     <path fill="rgb(127,127,127)" stroke="none" d="M 6210,7224 L 6210,6942 6307,6998 6307,7280 6210,7224 Z"/>
     <path fill="none" stroke="rgb(0,0,0)" id="Drawing_8_0" stroke-width="40" stroke-linejoin="round" d="M 6210,7224 L 6210,6942 6307,6998 6307,7280 6210,7224 Z"/>
    </g>
    <g>
     <defs>
      <linearGradient id="Gradient_642" gradientUnits="userSpaceOnUse" x1="6597" y1="6745" x2="7088" y2="6745">
       <stop offset="0.1" stop-color="rgb(179,179,179)"/>
       <stop offset="1" stop-color="rgb(229,229,229)"/>
      </linearGradient>
     </defs>
     <path fill="url(#Gradient_642)" stroke="rgb(255,255,255)" id="Drawing_9_0" stroke-width="40" stroke-linejoin="round" d="M 6600,7731 L 6600,5477 7087,5759 7087,8013 6600,7731 Z"/>
    </g>
    <g>
     <path fill="rgb(209,97,108)" stroke="none" d="M 6307,5759 L 6307,5590 6404,5646 6404,5815 6307,5759 Z"/>
     <path fill="none" stroke="rgb(127,127,127)" id="Drawing_10_0" stroke-width="40" stroke-linejoin="round" d="M 6307,5759 L 6307,5590 6404,5646 6404,5815 6307,5759 Z"/>
    </g>
    <g>
     <path fill="rgb(57,181,74)" stroke="none" d="M 6307,6040 L 6307,5871 6404,5927 6404,6096 6307,6040 Z"/>
     <path fill="none" stroke="rgb(127,127,127)" id="Drawing_11_0" stroke-width="40" stroke-linejoin="round" d="M 6307,6040 L 6307,5871 6404,5927 6404,6096 6307,6040 Z"/>
    </g>
    <g>
     <defs>
      <linearGradient id="Gradient_643" gradientUnits="userSpaceOnUse" x1="7084" y1="7027" x2="7575" y2="7027">
       <stop offset="0.1" stop-color="rgb(179,179,179)"/>
       <stop offset="1" stop-color="rgb(229,229,229)"/>
      </linearGradient>
     </defs>
     <path fill="url(#Gradient_643)" stroke="rgb(255,255,255)" id="Drawing_12_0" stroke-width="40" stroke-linejoin="round" d="M 7087,8013 L 7087,5759 7574,6041 7574,8295 7087,8013 Z"/>
    </g>
    <g>
     <defs>
      <linearGradient id="Gradient_644" gradientUnits="userSpaceOnUse" x1="7572" y1="7308" x2="8063" y2="7308">
       <stop offset="0.1" stop-color="rgb(179,179,179)"/>
       <stop offset="1" stop-color="rgb(229,229,229)"/>
      </linearGradient>
     </defs>
     <path fill="url(#Gradient_644)" stroke="rgb(255,255,255)" id="Drawing_13_0" stroke-width="40" stroke-linejoin="round" d="M 7575,8294 L 7575,6040 8062,6322 8062,8576 7575,8294 Z"/>
    </g>
    <g>
     <defs>
      <linearGradient id="Gradient_645" gradientUnits="userSpaceOnUse" x1="8059" y1="7590" x2="8550" y2="7590">
       <stop offset="0.1" stop-color="rgb(179,179,179)"/>
       <stop offset="1" stop-color="rgb(229,229,229)"/>
      </linearGradient>
     </defs>
     <path fill="url(#Gradient_645)" stroke="rgb(255,255,255)" id="Drawing_14_0" stroke-width="40" stroke-linejoin="round" d="M 8062,8576 L 8062,6322 8549,6604 8549,8858 8062,8576 Z"/>
    </g>
    <g>
     <path fill="none" stroke="rgb(0,0,0)" id="Drawing_15_0" stroke-width="40" stroke-linejoin="round" d="M 5625,7167 L 5625,4913 7087,4068 10012,5759 10012,8013 8550,8858 5625,7167 Z"/>
    </g>
    <g>
     <path fill="rgb(57,181,74)" stroke="none" d="M 6795,6040 L 6795,5871 6892,5927 6892,6096 6795,6040 Z"/>
     <path fill="none" stroke="rgb(0,0,0)" id="Drawing_16_0" stroke-width="40" stroke-linejoin="round" d="M 6795,6040 L 6795,5871 6892,5927 6892,6096 6795,6040 Z"/>
    </g>
    <g>
     <path fill="rgb(127,127,127)" stroke="none" d="M 7185,7787 L 7185,7618 7282,7674 7282,7843 7185,7787 Z"/>
     <path fill="none" stroke="rgb(0,0,0)" id="Drawing_17_0" stroke-width="40" stroke-linejoin="round" d="M 7185,7787 L 7185,7618 7282,7674 7282,7843 7185,7787 Z"/>
    </g>
    <g>
     <path fill="rgb(127,127,127)" stroke="none" d="M 7380,7900 L 7380,7731 7477,7787 7477,7956 7380,7900 Z"/>
     <path fill="none" stroke="rgb(0,0,0)" id="Drawing_18_0" stroke-width="40" stroke-linejoin="round" d="M 7380,7900 L 7380,7731 7477,7787 7477,7956 7380,7900 Z"/>
    </g>
    <g>
     <path fill="rgb(127,127,127)" stroke="none" d="M 7185,7505 L 7185,7336 7282,7392 7282,7561 7185,7505 Z"/>
     <path fill="none" stroke="rgb(0,0,0)" id="Drawing_19_0" stroke-width="40" stroke-linejoin="round" d="M 7185,7505 L 7185,7336 7282,7392 7282,7561 7185,7505 Z"/>
    </g>
    <g>
     <path fill="rgb(127,127,127)" stroke="none" d="M 7380,7618 L 7380,7449 7477,7505 7477,7674 7380,7618 Z"/>
     <path fill="none" stroke="rgb(0,0,0)" id="Drawing_20_0" stroke-width="40" stroke-linejoin="round" d="M 7380,7618 L 7380,7449 7477,7505 7477,7674 7380,7618 Z"/>
    </g>
    <g>
     <path fill="rgb(127,127,127)" stroke="none" d="M 7380,7336 L 7380,7167 7477,7223 7477,7392 7380,7336 Z"/>
     <path fill="none" stroke="rgb(0,0,0)" id="Drawing_21_0" stroke-width="40" stroke-linejoin="round" d="M 7380,7336 L 7380,7167 7477,7223 7477,7392 7380,7336 Z"/>
    </g>
    <g>
     <path fill="rgb(127,127,127)" stroke="none" d="M 7185,7224 L 7185,7055 7282,7111 7282,7280 7185,7224 Z"/>
     <path fill="none" stroke="rgb(0,0,0)" id="Drawing_22_0" stroke-width="40" stroke-linejoin="round" d="M 7185,7224 L 7185,7055 7282,7111 7282,7280 7185,7224 Z"/>
    </g>
    <g>
     <path fill="rgb(127,127,127)" stroke="none" d="M 7380,7055 L 7380,6886 7477,6942 7477,7111 7380,7055 Z"/>
     <path fill="none" stroke="rgb(0,0,0)" id="Drawing_23_0" stroke-width="40" stroke-linejoin="round" d="M 7380,7055 L 7380,6886 7477,6942 7477,7111 7380,7055 Z"/>
    </g>
    <g>
     <path fill="rgb(127,127,127)" stroke="none" d="M 7185,6942 L 7185,6773 7282,6829 7282,6998 7185,6942 Z"/>
     <path fill="none" stroke="rgb(0,0,0)" id="Drawing_24_0" stroke-width="40" stroke-linejoin="round" d="M 7185,6942 L 7185,6773 7282,6829 7282,6998 7185,6942 Z"/>
    </g>
    <g>
     <path fill="rgb(127,127,127)" stroke="none" d="M 8355,8633 L 8355,8464 8452,8520 8452,8689 8355,8633 Z"/>
     <path fill="none" stroke="rgb(0,0,0)" id="Drawing_25_0" stroke-width="40" stroke-linejoin="round" d="M 8355,8633 L 8355,8464 8452,8520 8452,8689 8355,8633 Z"/>
    </g>
    <g>
     <path fill="rgb(127,127,127)" stroke="none" d="M 8355,8351 L 8355,8182 8452,8238 8452,8407 8355,8351 Z"/>
     <path fill="none" stroke="rgb(0,0,0)" id="Drawing_26_0" stroke-width="40" stroke-linejoin="round" d="M 8355,8351 L 8355,8182 8452,8238 8452,8407 8355,8351 Z"/>
    </g>
    <g>
     <path fill="rgb(127,127,127)" stroke="none" d="M 8355,8069 L 8355,7900 8452,7956 8452,8125 8355,8069 Z"/>
     <path fill="none" stroke="rgb(0,0,0)" id="Drawing_27_0" stroke-width="40" stroke-linejoin="round" d="M 8355,8069 L 8355,7900 8452,7956 8452,8125 8355,8069 Z"/>
    </g>
    <g>
     <path fill="rgb(127,127,127)" stroke="none" d="M 8355,7787 L 8355,7618 8452,7674 8452,7843 8355,7787 Z"/>
     <path fill="none" stroke="rgb(0,0,0)" id="Drawing_28_0" stroke-width="40" stroke-linejoin="round" d="M 8355,7787 L 8355,7618 8452,7674 8452,7843 8355,7787 Z"/>
    </g>
    <g>
     <path fill="rgb(127,127,127)" stroke="none" d="M 8355,7505 L 8355,7336 8452,7392 8452,7561 8355,7505 Z"/>
     <path fill="none" stroke="rgb(0,0,0)" id="Drawing_29_0" stroke-width="40" stroke-linejoin="round" d="M 8355,7505 L 8355,7336 8452,7392 8452,7561 8355,7505 Z"/>
    </g>
    <g>
     <path fill="rgb(127,127,127)" stroke="none" d="M 8355,7224 L 8355,7055 8452,7111 8452,7280 8355,7224 Z"/>
     <path fill="none" stroke="rgb(0,0,0)" id="Drawing_30_0" stroke-width="40" stroke-linejoin="round" d="M 8355,7224 L 8355,7055 8452,7111 8452,7280 8355,7224 Z"/>
    </g>
    <g>
     <path fill="rgb(127,127,127)" stroke="none" d="M 8355,6942 L 8355,6773 8452,6829 8452,6998 8355,6942 Z"/>
     <path fill="none" stroke="rgb(0,0,0)" id="Drawing_31_0" stroke-width="40" stroke-linejoin="round" d="M 8355,6942 L 8355,6773 8452,6829 8452,6998 8355,6942 Z"/>
    </g>
   </g>
  </g>
 </g>
</svg>