<?xml version="1.0" encoding="UTF-8"?>

<svg version="1.2" baseProfile="tiny" width="47.98mm" height="48.3mm" viewBox="8554 12439 4798 4830" preserveAspectRatio="xMidYMid" fill-rule="evenodd" stroke-width="28.222" stroke-linejoin="round" xmlns="http://www.w3.org/2000/svg" xmlns:xlink="http://www.w3.org/1999/xlink" xml:space="preserve">
 <g visibility="visible" id="Slide_1">
  <g id="DrawingGroup_1">
   <g>
    <path fill="rgb(221,221,221)" stroke="none" d="M 11499,17249 C 11767,17249 13351,16686 13351,16460 13351,16235 13229,16122 12961,16122 12961,16291 11499,17023 11499,17249 Z"/>
    <path fill="none" stroke="rgb(221,221,221)" id="Drawing_1_0" stroke-linejoin="round" d="M 11499,17249 C 11767,17249 13351,16686 13351,16460 13351,16235 13229,16122 12961,16122 12961,16291 11499,17023 11499,17249 Z"/>
   </g>
   <g id="DrawingGroup_2">
    <g>
     <defs>
      <linearGradient id="Gradient_646" gradientUnits="userSpaceOnUse" x1="8571" y1="14712" x2="9550" y2="14714">
       <stop offset="0.1" stop-color="rgb(51,51,51)"/>
       <stop offset="1" stop-color="rgb(153,153,153)"/>
      </linearGradient>
     </defs>
     <path fill="url(#Gradient_646)" stroke="rgb(178,178,178)" id="Drawing_2_0" stroke-width="40" stroke-linejoin="round" d="M 8574,15558 L 8574,13304 9549,13868 9549,16122 8574,15558 Z"/>
    </g>
    <g>
     <path fill="rgb(51,51,51)" stroke="none" d="M 11499,16613 L 11499,14995 12961,14150 12961,16404 12599,16613 11499,16613 Z"/>
     <path fill="rgb(52,52,52)" stroke="none" d="M 12599,16613 L 11499,17249 11499,16613 12599,16613 Z M 11499,16598 L 11499,14995 12961,14150 12961,16404 12625,16598 11499,16598 Z"/>
     <path fill="rgb(53,53,53)" stroke="none" d="M 12625,16598 L 11499,17249 11499,16598 12625,16598 Z M 11499,16583 L 11499,14995 12961,14150 12961,16404 12651,16583 11499,16583 Z"/>
     <path fill="rgb(54,54,54)" stroke="none" d="M 12651,16583 L 11499,17249 11499,16583 12651,16583 Z M 11499,16568 L 11499,14995 12961,14150 12961,16404 12677,16568 11499,16568 Z"/>
     <path fill="rgb(55,55,55)" stroke="none" d="M 12677,16568 L 11499,17249 11499,16568 12677,16568 Z M 11499,16552 L 11499,14995 12961,14150 12961,16404 12705,16552 11499,16552 Z"/>
     <path fill="rgb(56,56,56)" stroke="none" d="M 12705,16552 L 11499,17249 11499,16552 12705,16552 Z M 11499,16537 L 11499,14995 12961,14150 12961,16404 12731,16537 11499,16537 Z"/>
     <path fill="rgb(57,57,57)" stroke="none" d="M 12731,16537 L 11499,17249 11499,16537 12731,16537 Z M 11499,16522 L 11499,14995 12961,14150 12961,16404 12757,16522 11499,16522 Z"/>
     <path fill="rgb(58,58,58)" stroke="none" d="M 12757,16522 L 11499,17249 11499,16522 12757,16522 Z M 11499,16507 L 11499,14995 12961,14150 12961,16404 12783,16507 11499,16507 Z"/>
     <path fill="rgb(59,59,59)" stroke="none" d="M 12783,16507 L 11499,17249 11499,16507 12783,16507 Z M 11499,16492 L 11499,14995 12961,14150 12961,16404 12809,16492 11499,16492 Z"/>
     <path fill="rgb(60,60,60)" stroke="none" d="M 12809,16492 L 11499,17249 11499,16492 12809,16492 Z M 11499,16476 L 11499,14995 12961,14150 12961,16404 12836,16476 11499,16476 Z"/>
     <path fill="rgb(61,61,61)" stroke="none" d="M 12836,16476 L 11499,17249 11499,16476 12836,16476 Z M 11499,16461 L 11499,14995 12961,14150 12961,16404 12862,16461 11499,16461 Z"/>
     <path fill="rgb(62,62,62)" stroke="none" d="M 12862,16461 L 11499,17249 11499,16461 12862,16461 Z M 11499,16446 L 11499,14995 12961,14150 12961,16404 12888,16446 11499,16446 Z"/>
     <path fill="rgb(63,63,63)" stroke="none" d="M 12888,16446 L 11499,17249 11499,16446 12888,16446 Z M 11499,16431 L 11499,14995 12961,14150 12961,16404 12914,16431 11499,16431 Z"/>
     <path fill="rgb(64,64,64)" stroke="none" d="M 12914,16431 L 11499,17249 11499,16431 12914,16431 Z M 11499,16416 L 11499,14995 12961,14150 12961,16404 12940,16416 11499,16416 Z"/>
     <path fill="rgb(65,65,65)" stroke="none" d="M 12940,16416 L 11499,17249 11499,16416 12940,16416 Z M 11499,16400 L 11499,14995 12961,14150 12961,16400 11499,16400 Z"/>
     <path fill="rgb(66,66,66)" stroke="none" d="M 12961,16400 L 12961,16404 11499,17249 11499,16400 12961,16400 Z M 11499,16385 L 11499,14995 12961,14150 12961,16385 11499,16385 Z"/>
     <path fill="rgb(67,67,67)" stroke="none" d="M 12961,16385 L 12961,16404 11499,17249 11499,16385 12961,16385 Z M 11499,16370 L 11499,14995 12961,14150 12961,16370 11499,16370 Z"/>
     <path fill="rgb(68,68,68)" stroke="none" d="M 12961,16370 L 12961,16404 11499,17249 11499,16370 12961,16370 Z M 11499,16355 L 11499,14995 12961,14150 12961,16355 11499,16355 Z"/>
     <path fill="rgb(69,69,69)" stroke="none" d="M 12961,16355 L 12961,16404 11499,17249 11499,16355 12961,16355 Z M 11499,16340 L 11499,14995 12961,14150 12961,16340 11499,16340 Z"/>
     <path fill="rgb(70,70,70)" stroke="none" d="M 12961,16340 L 12961,16404 11499,17249 11499,16340 12961,16340 Z M 11499,16324 L 11499,14995 12961,14150 12961,16324 11499,16324 Z"/>
     <path fill="rgb(71,71,71)" stroke="none" d="M 12961,16324 L 12961,16404 11499,17249 11499,16324 12961,16324 Z M 11499,16309 L 11499,14995 12961,14150 12961,16309 11499,16309 Z"/>
     <path fill="rgb(72,72,72)" stroke="none" d="M 12961,16309 L 12961,16404 11499,17249 11499,16309 12961,16309 Z M 11499,16294 L 11499,14995 12961,14150 12961,16294 11499,16294 Z"/>
     <path fill="rgb(73,73,73)" stroke="none" d="M 12961,16294 L 12961,16404 11499,17249 11499,16294 12961,16294 Z M 11499,16279 L 11499,14995 12961,14150 12961,16279 11499,16279 Z"/>
     <path fill="rgb(74,74,74)" stroke="none" d="M 12961,16279 L 12961,16404 11499,17249 11499,16279 12961,16279 Z M 11499,16264 L 11499,14995 12961,14150 12961,16264 11499,16264 Z"/>
     <path fill="rgb(75,75,75)" stroke="none" d="M 12961,16264 L 12961,16404 11499,17249 11499,16264 12961,16264 Z M 11499,16248 L 11499,14995 12961,14150 12961,16248 11499,16248 Z"/>
     <path fill="rgb(76,76,76)" stroke="none" d="M 12961,16248 L 12961,16404 11499,17249 11499,16248 12961,16248 Z M 11499,16233 L 11499,14995 12961,14150 12961,16233 11499,16233 Z"/>
     <path fill="rgb(77,77,77)" stroke="none" d="M 12961,16233 L 12961,16404 11499,17249 11499,16233 12961,16233 Z M 11499,16218 L 11499,14995 12961,14150 12961,16218 11499,16218 Z"/>
     <path fill="rgb(78,78,78)" stroke="none" d="M 12961,16218 L 12961,16404 11499,17249 11499,16218 12961,16218 Z M 11499,16203 L 11499,14995 12961,14150 12961,16203 11499,16203 Z"/>
     <path fill="rgb(79,79,79)" stroke="none" d="M 12961,16203 L 12961,16404 11499,17249 11499,16203 12961,16203 Z M 11499,16188 L 11499,14995 12961,14150 12961,16188 11499,16188 Z"/>
     <path fill="rgb(80,80,80)" stroke="none" d="M 12961,16188 L 12961,16404 11499,17249 11499,16188 12961,16188 Z M 11499,16172 L 11499,14995 12961,14150 12961,16172 11499,16172 Z"/>
     <path fill="rgb(81,81,81)" stroke="none" d="M 12961,16172 L 12961,16404 11499,17249 11499,16172 12961,16172 Z M 11499,16157 L 11499,14995 12961,14150 12961,16157 11499,16157 Z"/>
     <path fill="rgb(82,82,82)" stroke="none" d="M 12961,16157 L 12961,16404 11499,17249 11499,16157 12961,16157 Z M 11499,16142 L 11499,14995 12961,14150 12961,16142 11499,16142 Z"/>
     <path fill="rgb(83,83,83)" stroke="none" d="M 12961,16142 L 12961,16404 11499,17249 11499,16142 12961,16142 Z M 11499,16127 L 11499,14995 12961,14150 12961,16127 11499,16127 Z"/>
     <path fill="rgb(84,84,84)" stroke="none" d="M 12961,16127 L 12961,16404 11499,17249 11499,16127 12961,16127 Z M 11499,16112 L 11499,14995 12961,14150 12961,16112 11499,16112 Z"/>
     <path fill="rgb(85,85,85)" stroke="none" d="M 12961,16112 L 12961,16404 11499,17249 11499,16112 12961,16112 Z M 12954,16096 L 11499,16096 11499,14995 12954,14154 12954,16096 Z"/>
     <path fill="rgb(86,86,86)" stroke="none" d="M 12954,16096 L 12954,14154 12961,14150 12961,16404 11499,17249 11499,16096 12954,16096 Z M 12939,16081 L 11499,16081 11499,14995 12939,14163 12939,16081 Z"/>
     <path fill="rgb(87,87,87)" stroke="none" d="M 12939,16081 L 12939,14163 12961,14150 12961,16404 11499,17249 11499,16081 12939,16081 Z M 12924,16066 L 11499,16066 11499,14995 12924,14171 12924,16066 Z"/>
     <path fill="rgb(88,88,88)" stroke="none" d="M 12924,16066 L 12924,14171 12961,14150 12961,16404 11499,17249 11499,16066 12924,16066 Z M 12909,16051 L 11499,16051 11499,14995 12909,14180 12909,16051 Z"/>
     <path fill="rgb(89,89,89)" stroke="none" d="M 12909,16051 L 12909,14180 12961,14150 12961,16404 11499,17249 11499,16051 12909,16051 Z M 12893,16035 L 11499,16035 11499,14995 12893,14189 12893,16035 Z"/>
     <path fill="rgb(90,90,90)" stroke="none" d="M 12893,16035 L 12893,14189 12961,14150 12961,16404 11499,17249 11499,16035 12893,16035 Z M 12878,16020 L 11499,16020 11499,14995 12878,14198 12878,16020 Z"/>
     <path fill="rgb(91,91,91)" stroke="none" d="M 12878,16020 L 12878,14198 12961,14150 12961,16404 11499,17249 11499,16020 12878,16020 Z M 12863,16005 L 11499,16005 11499,14995 12863,14207 12863,16005 Z"/>
     <path fill="rgb(92,92,92)" stroke="none" d="M 12863,16005 L 12863,14207 12961,14150 12961,16404 11499,17249 11499,16005 12863,16005 Z M 12848,15990 L 11499,15990 11499,14995 12848,14215 12848,15990 Z"/>
     <path fill="rgb(93,93,93)" stroke="none" d="M 12848,15990 L 12848,14215 12961,14150 12961,16404 11499,17249 11499,15990 12848,15990 Z M 12833,15975 L 11499,15975 11499,14995 12833,14224 12833,15975 Z"/>
     <path fill="rgb(94,94,94)" stroke="none" d="M 12833,15975 L 12833,14224 12961,14150 12961,16404 11499,17249 11499,15975 12833,15975 Z M 12817,15959 L 11499,15959 11499,14995 12817,14233 12817,15959 Z"/>
     <path fill="rgb(95,95,95)" stroke="none" d="M 12817,15959 L 12817,14233 12961,14150 12961,16404 11499,17249 11499,15959 12817,15959 Z M 12802,15944 L 11499,15944 11499,14995 12802,14242 12802,15944 Z"/>
     <path fill="rgb(96,96,96)" stroke="none" d="M 12802,15944 L 12802,14242 12961,14150 12961,16404 11499,17249 11499,15944 12802,15944 Z M 12787,15929 L 11499,15929 11499,14995 12787,14251 12787,15929 Z"/>
     <path fill="rgb(97,97,97)" stroke="none" d="M 12787,15929 L 12787,14251 12961,14150 12961,16404 11499,17249 11499,15929 12787,15929 Z M 12772,15914 L 11499,15914 11499,14995 12772,14259 12772,15914 Z"/>
     <path fill="rgb(98,98,98)" stroke="none" d="M 12772,15914 L 12772,14259 12961,14150 12961,16404 11499,17249 11499,15914 12772,15914 Z M 12757,15899 L 11499,15899 11499,14995 12757,14268 12757,15899 Z"/>
     <path fill="rgb(99,99,99)" stroke="none" d="M 12757,15899 L 12757,14268 12961,14150 12961,16404 11499,17249 11499,15899 12757,15899 Z M 12741,15883 L 11499,15883 11499,14995 12741,14277 12741,15883 Z"/>
     <path fill="rgb(100,100,100)" stroke="none" d="M 12741,15883 L 12741,14277 12961,14150 12961,16404 11499,17249 11499,15883 12741,15883 Z M 12726,14288 L 12726,15868 11499,15868 11499,14995 12722,14288 12726,14288 Z"/>
     <path fill="rgb(101,101,101)" stroke="none" d="M 12726,15868 L 12726,14288 12722,14288 12961,14150 12961,16404 11499,17249 11499,15868 12726,15868 Z M 12711,14303 L 12711,15853 11499,15853 11499,14995 12696,14303 12711,14303 Z"/>
     <path fill="rgb(102,102,102)" stroke="none" d="M 12711,15853 L 12711,14303 12696,14303 12961,14150 12961,16404 11499,17249 11499,15853 12711,15853 Z M 12696,14318 L 12696,15838 11499,15838 11499,14995 12670,14318 12696,14318 Z"/>
     <path fill="rgb(103,103,103)" stroke="none" d="M 12696,15838 L 12696,14318 12670,14318 12961,14150 12961,16404 11499,17249 11499,15838 12696,15838 Z M 12681,14333 L 12681,15823 11499,15823 11499,14995 12644,14333 12681,14333 Z"/>
     <path fill="rgb(104,104,104)" stroke="none" d="M 12681,15823 L 12681,14333 12644,14333 12961,14150 12961,16404 11499,17249 11499,15823 12681,15823 Z M 12665,14349 L 12665,15807 11499,15807 11499,14995 12617,14349 12665,14349 Z"/>
     <path fill="rgb(105,105,105)" stroke="none" d="M 12665,15807 L 12665,14349 12617,14349 12961,14150 12961,16404 11499,17249 11499,15807 12665,15807 Z M 12650,14364 L 12650,15792 11499,15792 11499,14995 12591,14364 12650,14364 Z"/>
     <path fill="rgb(106,106,106)" stroke="none" d="M 12650,15792 L 12650,14364 12591,14364 12961,14150 12961,16404 11499,17249 11499,15792 12650,15792 Z M 12635,14379 L 12635,15777 11499,15777 11499,14995 12565,14379 12635,14379 Z"/>
     <path fill="rgb(107,107,107)" stroke="none" d="M 12635,15777 L 12635,14379 12565,14379 12961,14150 12961,16404 11499,17249 11499,15777 12635,15777 Z M 12620,14394 L 12620,15762 11499,15762 11499,14995 12539,14394 12620,14394 Z"/>
     <path fill="rgb(108,108,108)" stroke="none" d="M 12620,15762 L 12620,14394 12539,14394 12961,14150 12961,16404 11499,17249 11499,15762 12620,15762 Z M 12605,14409 L 12605,15747 11499,15747 11499,14995 12513,14409 12605,14409 Z"/>
     <path fill="rgb(109,109,109)" stroke="none" d="M 12605,15747 L 12605,14409 12513,14409 12961,14150 12961,16404 11499,17249 11499,15747 12605,15747 Z M 12589,14425 L 12589,15731 11499,15731 11499,14995 12485,14425 12589,14425 Z"/>
     <path fill="rgb(110,110,110)" stroke="none" d="M 12589,15731 L 12589,14425 12485,14425 12961,14150 12961,16404 11499,17249 11499,15731 12589,15731 Z M 12574,14440 L 12574,15716 11499,15716 11499,14995 12459,14440 12574,14440 Z"/>
     <path fill="rgb(111,111,111)" stroke="none" d="M 12574,15716 L 12574,14440 12459,14440 12961,14150 12961,16404 11499,17249 11499,15716 12574,15716 Z M 12559,14455 L 12559,15701 11499,15701 11499,14995 12433,14455 12559,14455 Z"/>
     <path fill="rgb(112,112,112)" stroke="none" d="M 12559,15701 L 12559,14455 12433,14455 12961,14150 12961,16404 11499,17249 11499,15701 12559,15701 Z M 12544,14470 L 12544,15686 11499,15686 11499,14995 12407,14470 12544,14470 Z"/>
     <path fill="rgb(113,113,113)" stroke="none" d="M 12544,15686 L 12544,14470 12407,14470 12961,14150 12961,16404 11499,17249 11499,15686 12544,15686 Z M 12529,14485 L 12529,15671 11499,15671 11499,14995 12381,14485 12529,14485 Z"/>
     <path fill="rgb(114,114,114)" stroke="none" d="M 12529,15671 L 12529,14485 12381,14485 12961,14150 12961,16404 11499,17249 11499,15671 12529,15671 Z M 12513,14501 L 12513,15655 11499,15655 11499,14995 12354,14501 12513,14501 Z"/>
     <path fill="rgb(115,115,115)" stroke="none" d="M 12513,15655 L 12513,14501 12354,14501 12961,14150 12961,16404 11499,17249 11499,15655 12513,15655 Z M 12498,14516 L 12498,15640 11499,15640 11499,14995 12328,14516 12498,14516 Z"/>
     <path fill="rgb(116,116,116)" stroke="none" d="M 12498,15640 L 12498,14516 12328,14516 12961,14150 12961,16404 11499,17249 11499,15640 12498,15640 Z M 12483,14531 L 12483,15625 11499,15625 11499,14995 12302,14531 12483,14531 Z"/>
     <path fill="rgb(117,117,117)" stroke="none" d="M 12483,15625 L 12483,14531 12302,14531 12961,14150 12961,16404 11499,17249 11499,15625 12483,15625 Z M 12468,14546 L 12468,15610 11499,15610 11499,14995 12276,14546 12468,14546 Z"/>
     <path fill="rgb(118,118,118)" stroke="none" d="M 12468,15610 L 12468,14546 12276,14546 12961,14150 12961,16404 11499,17249 11499,15610 12468,15610 Z M 12452,14561 L 12452,15595 11499,15595 11499,14995 12250,14561 12452,14561 Z"/>
     <path fill="rgb(119,119,119)" stroke="none" d="M 12452,15595 L 12452,14561 12250,14561 12961,14150 12961,16404 11499,17249 11499,15595 12452,15595 Z M 12437,14577 L 12437,15579 11499,15579 11499,14995 12222,14577 12437,14577 Z"/>
     <path fill="rgb(120,120,120)" stroke="none" d="M 12437,15579 L 12437,14577 12222,14577 12961,14150 12961,16404 11499,17249 11499,15579 12437,15579 Z M 12422,14592 L 12422,15564 11499,15564 11499,14995 12196,14592 12422,14592 Z"/>
     <path fill="rgb(121,121,121)" stroke="none" d="M 12422,15564 L 12422,14592 12196,14592 12961,14150 12961,16404 11499,17249 11499,15564 12422,15564 Z M 12407,14607 L 12407,15549 11499,15549 11499,14995 12170,14607 12407,14607 Z"/>
     <path fill="rgb(122,122,122)" stroke="none" d="M 12407,15549 L 12407,14607 12170,14607 12961,14150 12961,16404 11499,17249 11499,15549 12407,15549 Z M 12392,14622 L 12392,15534 11499,15534 11499,14995 12144,14622 12392,14622 Z"/>
     <path fill="rgb(123,123,123)" stroke="none" d="M 12392,15534 L 12392,14622 12144,14622 12961,14150 12961,16404 11499,17249 11499,15534 12392,15534 Z M 12376,14638 L 12376,15518 11499,15518 11499,14995 12117,14638 12376,14638 Z"/>
     <path fill="rgb(124,124,124)" stroke="none" d="M 12376,15518 L 12376,14638 12117,14638 12961,14150 12961,16404 11499,17249 11499,15518 12376,15518 Z M 12361,14653 L 12361,15503 11511,15503 11511,14988 12091,14653 12361,14653 Z"/>
     <path fill="rgb(125,125,125)" stroke="none" d="M 11511,15503 L 12361,15503 12361,14653 12091,14653 12961,14150 12961,16404 11499,17249 11499,14995 11511,14988 11511,15503 Z M 12346,14668 L 12346,15488 11526,15488 11526,14979 12065,14668 12346,14668 Z"/>
     <path fill="rgb(126,126,126)" stroke="none" d="M 11526,15488 L 12346,15488 12346,14668 12065,14668 12961,14150 12961,16404 11499,17249 11499,14995 11526,14979 11526,15488 Z M 12331,14683 L 12331,15473 11541,15473 11541,14971 12039,14683 12331,14683 Z"/>
     <path fill="rgb(127,127,127)" stroke="none" d="M 11541,15473 L 12331,15473 12331,14683 12039,14683 12961,14150 12961,16404 11499,17249 11499,14995 11541,14971 11541,15473 Z M 12316,14698 L 12316,15458 11556,15458 11556,14962 12013,14698 12316,14698 Z"/>
     <path fill="rgb(128,128,128)" stroke="none" d="M 11556,15458 L 12316,15458 12316,14698 12013,14698 12961,14150 12961,16404 11499,17249 11499,14995 11556,14962 11556,15458 Z M 12300,14714 L 12300,15442 11572,15442 11572,14953 11985,14714 12300,14714 Z"/>
     <path fill="rgb(129,129,129)" stroke="none" d="M 11572,15442 L 12300,15442 12300,14714 11985,14714 12961,14150 12961,16404 11499,17249 11499,14995 11572,14953 11572,15442 Z M 12285,14729 L 12285,15427 11587,15427 11587,14944 11959,14729 12285,14729 Z"/>
     <path fill="rgb(130,130,130)" stroke="none" d="M 11587,15427 L 12285,15427 12285,14729 11959,14729 12961,14150 12961,16404 11499,17249 11499,14995 11587,14944 11587,15427 Z M 12270,14744 L 12270,15412 11602,15412 11602,14935 11933,14744 12270,14744 Z"/>
     <path fill="rgb(131,131,131)" stroke="none" d="M 11602,15412 L 12270,15412 12270,14744 11933,14744 12961,14150 12961,16404 11499,17249 11499,14995 11602,14935 11602,15412 Z M 12255,14759 L 12255,15397 11617,15397 11617,14927 11907,14759 12255,14759 Z"/>
     <path fill="rgb(132,132,132)" stroke="none" d="M 11617,15397 L 12255,15397 12255,14759 11907,14759 12961,14150 12961,16404 11499,17249 11499,14995 11617,14927 11617,15397 Z M 12240,14774 L 12240,15382 11632,15382 11632,14918 11881,14774 12240,14774 Z"/>
     <path fill="rgb(133,133,133)" stroke="none" d="M 11632,15382 L 12240,15382 12240,14774 11881,14774 12961,14150 12961,16404 11499,17249 11499,14995 11632,14918 11632,15382 Z M 12224,14790 L 12224,15366 11648,15366 11648,14909 11854,14790 12224,14790 Z"/>
     <path fill="rgb(134,134,134)" stroke="none" d="M 11648,15366 L 12224,15366 12224,14790 11854,14790 12961,14150 12961,16404 11499,17249 11499,14995 11648,14909 11648,15366 Z M 12209,14805 L 12209,15351 11663,15351 11663,14900 11828,14805 12209,14805 Z"/>
     <path fill="rgb(135,135,135)" stroke="none" d="M 11663,15351 L 12209,15351 12209,14805 11828,14805 12961,14150 12961,16404 11499,17249 11499,14995 11663,14900 11663,15351 Z M 12194,14820 L 12194,15336 11678,15336 11678,14892 11802,14820 12194,14820 Z"/>
     <path fill="rgb(136,136,136)" stroke="none" d="M 11678,15336 L 12194,15336 12194,14820 11802,14820 12961,14150 12961,16404 11499,17249 11499,14995 11678,14892 11678,15336 Z M 12179,14835 L 12179,15321 11693,15321 11693,14883 11776,14835 12179,14835 Z"/>
     <path fill="rgb(137,137,137)" stroke="none" d="M 11693,15321 L 12179,15321 12179,14835 11776,14835 12961,14150 12961,16404 11499,17249 11499,14995 11693,14883 11693,15321 Z M 12164,14850 L 12164,15306 11708,15306 11708,14874 11750,14850 12164,14850 Z"/>
     <path fill="rgb(138,138,138)" stroke="none" d="M 11708,15306 L 12164,15306 12164,14850 11750,14850 12961,14150 12961,16404 11499,17249 11499,14995 11708,14874 11708,15306 Z M 11724,14866 L 12148,14866 12148,15290 11724,15290 11724,14866 Z"/>
     <path fill="rgb(139,139,139)" stroke="none" d="M 11724,14866 L 11724,15290 12148,15290 12148,14866 11724,14866 Z M 11739,14881 L 12133,14881 12133,15275 11739,15275 11739,14881 Z M 11499,17249 L 11499,14995 12961,14150 12961,16404 11499,17249 Z"/>
     <path fill="rgb(140,140,140)" stroke="none" d="M 11739,14881 L 11739,15275 12133,15275 12133,14881 11739,14881 Z M 11754,14896 L 12118,14896 12118,15260 11754,15260 11754,14896 Z M 11499,17249 L 11499,14995 12961,14150 12961,16404 11499,17249 Z"/>
     <path fill="rgb(141,141,141)" stroke="none" d="M 11754,14896 L 11754,15260 12118,15260 12118,14896 11754,14896 Z M 11769,14911 L 12103,14911 12103,15245 11769,15245 11769,14911 Z M 11499,17249 L 11499,14995 12961,14150 12961,16404 11499,17249 Z"/>
     <path fill="rgb(142,142,142)" stroke="none" d="M 11769,14911 L 11769,15245 12103,15245 12103,14911 11769,14911 Z M 11784,14926 L 12088,14926 12088,15230 11784,15230 11784,14926 Z M 11499,17249 L 11499,14995 12961,14150 12961,16404 11499,17249 Z"/>
     <path fill="rgb(143,143,143)" stroke="none" d="M 11784,14926 L 11784,15230 12088,15230 12088,14926 11784,14926 Z M 11800,14942 L 12072,14942 12072,15214 11800,15214 11800,14942 Z M 11499,17249 L 11499,14995 12961,14150 12961,16404 11499,17249 Z"/>
     <path fill="rgb(144,144,144)" stroke="none" d="M 11800,14942 L 11800,15214 12072,15214 12072,14942 11800,14942 Z M 11815,14957 L 12057,14957 12057,15199 11815,15199 11815,14957 Z M 11499,17249 L 11499,14995 12961,14150 12961,16404 11499,17249 Z"/>
     <path fill="rgb(145,145,145)" stroke="none" d="M 11815,14957 L 11815,15199 12057,15199 12057,14957 11815,14957 Z M 11830,14972 L 12042,14972 12042,15184 11830,15184 11830,14972 Z M 11499,17249 L 11499,14995 12961,14150 12961,16404 11499,17249 Z"/>
     <path fill="rgb(146,146,146)" stroke="none" d="M 11830,14972 L 11830,15184 12042,15184 12042,14972 11830,14972 Z M 11845,14987 L 12027,14987 12027,15169 11845,15169 11845,14987 Z M 11499,17249 L 11499,14995 12961,14150 12961,16404 11499,17249 Z"/>
     <path fill="rgb(147,147,147)" stroke="none" d="M 11845,14987 L 11845,15169 12027,15169 12027,14987 11845,14987 Z M 11860,15002 L 12012,15002 12012,15154 11860,15154 11860,15002 Z M 11499,17249 L 11499,14995 12961,14150 12961,16404 11499,17249 Z"/>
     <path fill="rgb(148,148,148)" stroke="none" d="M 11860,15002 L 11860,15154 12012,15154 12012,15002 11860,15002 Z M 11876,15018 L 11996,15018 11996,15138 11876,15138 11876,15018 Z M 11499,17249 L 11499,14995 12961,14150 12961,16404 11499,17249 Z"/>
     <path fill="rgb(149,149,149)" stroke="none" d="M 11876,15018 L 11876,15138 11996,15138 11996,15018 11876,15018 Z M 11891,15033 L 11981,15033 11981,15123 11891,15123 11891,15033 Z M 11499,17249 L 11499,14995 12961,14150 12961,16404 11499,17249 Z"/>
     <path fill="rgb(150,150,150)" stroke="none" d="M 11891,15033 L 11891,15123 11981,15123 11981,15033 11891,15033 Z M 11906,15048 L 11966,15048 11966,15108 11906,15108 11906,15048 Z M 11499,17249 L 11499,14995 12961,14150 12961,16404 11499,17249 Z"/>
     <path fill="rgb(151,151,151)" stroke="none" d="M 11906,15048 L 11906,15108 11966,15108 11966,15048 11906,15048 Z M 11921,15063 L 11951,15063 11951,15093 11921,15093 11921,15063 Z M 11499,17249 L 11499,14995 12961,14150 12961,16404 11499,17249 Z"/>
     <path fill="rgb(153,153,153)" stroke="none" d="M 11921,15063 L 11921,15093 11951,15093 11951,15063 11921,15063 Z M 11499,17249 L 11499,14995 12961,14150 12961,16404 11499,17249 Z"/>
     <path fill="none" stroke="rgb(178,178,178)" id="Drawing_3_0" stroke-width="40" stroke-linejoin="round" d="M 11499,17249 L 11499,14995 12961,14150 12961,16404 11499,17249 Z"/>
    </g>
    <g>
     <defs>
      <linearGradient id="Gradient_647" gradientUnits="userSpaceOnUse" x1="10767" y1="12459" x2="10767" y2="14995">
       <stop offset="0.1" stop-color="rgb(51,51,51)"/>
       <stop offset="1" stop-color="rgb(153,153,153)"/>
      </linearGradient>
     </defs>
     <path fill="url(#Gradient_647)" stroke="rgb(178,178,178)" id="Drawing_4_0" stroke-width="40" stroke-linejoin="round" d="M 11499,14995 L 8574,13304 10036,12459 12961,14150 11499,14995 Z"/>
    </g>
    <g>
     <path fill="rgb(209,97,108)" stroke="none" d="M 9744,15051 L 9744,14882 9841,14938 9841,15107 9744,15051 Z"/>
     <path fill="none" stroke="rgb(51,51,51)" id="Drawing_5_0" stroke-width="40" stroke-linejoin="round" d="M 9744,15051 L 9744,14882 9841,14938 9841,15107 9744,15051 Z"/>
    </g>
    <g>
     <path fill="rgb(127,127,127)" stroke="none" d="M 8964,14262 L 8964,13811 9159,13924 9159,14375 8964,14262 Z"/>
     <path fill="none" stroke="rgb(51,51,51)" id="Drawing_6_0" stroke-width="40" stroke-linejoin="round" d="M 8964,14262 L 8964,13811 9159,13924 9159,14375 8964,14262 Z"/>
    </g>
    <g>
     <path fill="rgb(127,127,127)" stroke="none" d="M 8964,15502 L 8964,15220 9061,15276 9061,15558 8964,15502 Z"/>
     <path fill="none" stroke="rgb(51,51,51)" id="Drawing_7_0" stroke-width="40" stroke-linejoin="round" d="M 8964,15502 L 8964,15220 9061,15276 9061,15558 8964,15502 Z"/>
    </g>
    <g>
     <path fill="rgb(127,127,127)" stroke="none" d="M 9159,15615 L 9159,15333 9256,15389 9256,15671 9159,15615 Z"/>
     <path fill="none" stroke="rgb(51,51,51)" id="Drawing_8_0" stroke-width="40" stroke-linejoin="round" d="M 9159,15615 L 9159,15333 9256,15389 9256,15671 9159,15615 Z"/>
    </g>
    <g>
     <defs>
      <linearGradient id="Gradient_648" gradientUnits="userSpaceOnUse" x1="9546" y1="15136" x2="10037" y2="15136">
       <stop offset="0.1" stop-color="rgb(51,51,51)"/>
       <stop offset="1" stop-color="rgb(153,153,153)"/>
      </linearGradient>
     </defs>
     <path fill="url(#Gradient_648)" stroke="rgb(178,178,178)" id="Drawing_9_0" stroke-width="40" stroke-linejoin="round" d="M 9549,16122 L 9549,13868 10036,14150 10036,16404 9549,16122 Z"/>
    </g>
    <g>
     <path fill="rgb(209,97,108)" stroke="none" d="M 9256,14150 L 9256,13981 9353,14037 9353,14206 9256,14150 Z"/>
     <path fill="none" stroke="rgb(51,51,51)" id="Drawing_10_0" stroke-width="40" stroke-linejoin="round" d="M 9256,14150 L 9256,13981 9353,14037 9353,14206 9256,14150 Z"/>
    </g>
    <g>
     <path fill="rgb(57,181,74)" stroke="none" d="M 9256,14431 L 9256,14262 9353,14318 9353,14487 9256,14431 Z"/>
     <path fill="none" stroke="rgb(51,51,51)" id="Drawing_11_0" stroke-width="40" stroke-linejoin="round" d="M 9256,14431 L 9256,14262 9353,14318 9353,14487 9256,14431 Z"/>
    </g>
    <g>
     <defs>
      <linearGradient id="Gradient_649" gradientUnits="userSpaceOnUse" x1="10033" y1="15418" x2="10524" y2="15418">
       <stop offset="0.1" stop-color="rgb(51,51,51)"/>
       <stop offset="1" stop-color="rgb(153,153,153)"/>
      </linearGradient>
     </defs>
     <path fill="url(#Gradient_649)" stroke="rgb(178,178,178)" id="Drawing_12_0" stroke-width="40" stroke-linejoin="round" d="M 10036,16404 L 10036,14150 10523,14432 10523,16686 10036,16404 Z"/>
    </g>
    <g>
     <defs>
      <linearGradient id="Gradient_650" gradientUnits="userSpaceOnUse" x1="10521" y1="15699" x2="11012" y2="15699">
       <stop offset="0.1" stop-color="rgb(51,51,51)"/>
       <stop offset="1" stop-color="rgb(153,153,153)"/>
      </linearGradient>
     </defs>
     <path fill="url(#Gradient_650)" stroke="rgb(178,178,178)" id="Drawing_13_0" stroke-width="40" stroke-linejoin="round" d="M 10524,16685 L 10524,14431 11011,14713 11011,16967 10524,16685 Z"/>
    </g>
    <g>
     <defs>
      <linearGradient id="Gradient_651" gradientUnits="userSpaceOnUse" x1="11008" y1="15981" x2="11499" y2="15981">
       <stop offset="0.1" stop-color="rgb(51,51,51)"/>
       <stop offset="1" stop-color="rgb(153,153,153)"/>
      </linearGradient>
     </defs>
     <path fill="url(#Gradient_651)" stroke="rgb(178,178,178)" id="Drawing_14_0" stroke-width="40" stroke-linejoin="round" d="M 11011,16967 L 11011,14713 11498,14995 11498,17249 11011,16967 Z"/>
    </g>
    <g>
     <path fill="none" stroke="rgb(0,0,0)" id="Drawing_15_0" stroke-width="40" stroke-linejoin="round" d="M 8574,15558 L 8574,13304 10036,12459 12961,14150 12961,16404 11499,17249 8574,15558 Z"/>
    </g>
    <g>
     <path fill="rgb(57,181,74)" stroke="none" d="M 9744,14431 L 9744,14262 9841,14318 9841,14487 9744,14431 Z"/>
     <path fill="none" stroke="rgb(51,51,51)" id="Drawing_16_0" stroke-width="40" stroke-linejoin="round" d="M 9744,14431 L 9744,14262 9841,14318 9841,14487 9744,14431 Z"/>
    </g>
    <g>
     <path fill="rgb(0,0,0)" stroke="none" d="M 10134,16178 L 10134,16009 10231,16065 10231,16234 10134,16178 Z"/>
     <path fill="none" stroke="rgb(51,51,51)" id="Drawing_17_0" stroke-width="40" stroke-linejoin="round" d="M 10134,16178 L 10134,16009 10231,16065 10231,16234 10134,16178 Z"/>
    </g>
    <g>
     <path fill="rgb(0,0,0)" stroke="none" d="M 10329,16291 L 10329,16122 10426,16178 10426,16347 10329,16291 Z"/>
     <path fill="none" stroke="rgb(51,51,51)" id="Drawing_18_0" stroke-width="40" stroke-linejoin="round" d="M 10329,16291 L 10329,16122 10426,16178 10426,16347 10329,16291 Z"/>
    </g>
    <g>
     <path fill="rgb(0,0,0)" stroke="none" d="M 10134,15896 L 10134,15727 10231,15783 10231,15952 10134,15896 Z"/>
     <path fill="none" stroke="rgb(51,51,51)" id="Drawing_19_0" stroke-width="40" stroke-linejoin="round" d="M 10134,15896 L 10134,15727 10231,15783 10231,15952 10134,15896 Z"/>
    </g>
    <g>
     <path fill="rgb(0,0,0)" stroke="none" d="M 10329,16009 L 10329,15840 10426,15896 10426,16065 10329,16009 Z"/>
     <path fill="none" stroke="rgb(51,51,51)" id="Drawing_20_0" stroke-width="40" stroke-linejoin="round" d="M 10329,16009 L 10329,15840 10426,15896 10426,16065 10329,16009 Z"/>
    </g>
    <g>
     <path fill="rgb(0,0,0)" stroke="none" d="M 10329,15727 L 10329,15558 10426,15614 10426,15783 10329,15727 Z"/>
     <path fill="none" stroke="rgb(51,51,51)" id="Drawing_21_0" stroke-width="40" stroke-linejoin="round" d="M 10329,15727 L 10329,15558 10426,15614 10426,15783 10329,15727 Z"/>
    </g>
    <g>
     <path fill="rgb(0,0,0)" stroke="none" d="M 10134,15615 L 10134,15446 10231,15502 10231,15671 10134,15615 Z"/>
     <path fill="none" stroke="rgb(51,51,51)" id="Drawing_22_0" stroke-width="40" stroke-linejoin="round" d="M 10134,15615 L 10134,15446 10231,15502 10231,15671 10134,15615 Z"/>
    </g>
    <g>
     <path fill="rgb(0,0,0)" stroke="none" d="M 10329,15446 L 10329,15277 10426,15333 10426,15502 10329,15446 Z"/>
     <path fill="none" stroke="rgb(51,51,51)" id="Drawing_23_0" stroke-width="40" stroke-linejoin="round" d="M 10329,15446 L 10329,15277 10426,15333 10426,15502 10329,15446 Z"/>
    </g>
    <g>
     <path fill="rgb(0,0,0)" stroke="none" d="M 10134,15333 L 10134,15164 10231,15220 10231,15389 10134,15333 Z"/>
     <path fill="none" stroke="rgb(51,51,51)" id="Drawing_24_0" stroke-width="40" stroke-linejoin="round" d="M 10134,15333 L 10134,15164 10231,15220 10231,15389 10134,15333 Z"/>
    </g>
    <g>
     <path fill="rgb(0,0,0)" stroke="none" d="M 11304,17024 L 11304,16855 11401,16911 11401,17080 11304,17024 Z"/>
     <path fill="none" stroke="rgb(51,51,51)" id="Drawing_25_0" stroke-width="40" stroke-linejoin="round" d="M 11304,17024 L 11304,16855 11401,16911 11401,17080 11304,17024 Z"/>
    </g>
    <g>
     <path fill="rgb(0,0,0)" stroke="none" d="M 11304,16742 L 11304,16573 11401,16629 11401,16798 11304,16742 Z"/>
     <path fill="none" stroke="rgb(51,51,51)" id="Drawing_26_0" stroke-width="40" stroke-linejoin="round" d="M 11304,16742 L 11304,16573 11401,16629 11401,16798 11304,16742 Z"/>
    </g>
    <g>
     <path fill="rgb(0,0,0)" stroke="none" d="M 11304,16460 L 11304,16291 11401,16347 11401,16516 11304,16460 Z"/>
     <path fill="none" stroke="rgb(51,51,51)" id="Drawing_27_0" stroke-width="40" stroke-linejoin="round" d="M 11304,16460 L 11304,16291 11401,16347 11401,16516 11304,16460 Z"/>
    </g>
    <g>
     <path fill="rgb(0,0,0)" stroke="none" d="M 11304,16178 L 11304,16009 11401,16065 11401,16234 11304,16178 Z"/>
     <path fill="none" stroke="rgb(51,51,51)" id="Drawing_28_0" stroke-width="40" stroke-linejoin="round" d="M 11304,16178 L 11304,16009 11401,16065 11401,16234 11304,16178 Z"/>
    </g>
    <g>
     <path fill="rgb(0,0,0)" stroke="none" d="M 11304,15896 L 11304,15727 11401,15783 11401,15952 11304,15896 Z"/>
     <path fill="none" stroke="rgb(51,51,51)" id="Drawing_29_0" stroke-width="40" stroke-linejoin="round" d="M 11304,15896 L 11304,15727 11401,15783 11401,15952 11304,15896 Z"/>
    </g>
    <g>
     <path fill="rgb(0,0,0)" stroke="none" d="M 11304,15615 L 11304,15446 11401,15502 11401,15671 11304,15615 Z"/>
     <path fill="none" stroke="rgb(51,51,51)" id="Drawing_30_0" stroke-width="40" stroke-linejoin="round" d="M 11304,15615 L 11304,15446 11401,15502 11401,15671 11304,15615 Z"/>
    </g>
    <g>
     <path fill="rgb(0,0,0)" stroke="none" d="M 11304,15333 L 11304,15164 11401,15220 11401,15389 11304,15333 Z"/>
     <path fill="none" stroke="rgb(51,51,51)" id="Drawing_31_0" stroke-width="40" stroke-linejoin="round" d="M 11304,15333 L 11304,15164 11401,15220 11401,15389 11304,15333 Z"/>
    </g>
   </g>
  </g>
 </g>
</svg>