<?xml version="1.0" encoding="UTF-8"?>

<svg version="1.2" baseProfile="tiny" width="13.65mm" height="17.5mm" viewBox="6528 15226 1365 1750" preserveAspectRatio="xMidYMid" fill-rule="evenodd" stroke-width="28.222" stroke-linejoin="round" xmlns="http://www.w3.org/2000/svg" xmlns:xlink="http://www.w3.org/1999/xlink" xml:space="preserve">
 <g visibility="visible" id="Slide_1">
  <g id="DrawingGroup_1">
   <g>
    <path fill="rgb(221,221,221)" stroke="none" d="M 7220,16956 C 7589,16956 7892,16800 7892,16722 7892,16645 7892,16567 7623,16567 7623,16800 7220,16644 7220,16956 Z"/>
    <path fill="none" stroke="rgb(221,221,221)" id="Drawing_1_0" stroke-linejoin="round" d="M 7220,16956 C 7589,16956 7892,16800 7892,16722 7892,16645 7892,16567 7623,16567 7623,16800 7220,16644 7220,16956 Z"/>
   </g>
   <g id="DrawingGroup_2">
    <g>
     <path fill="rgb(51,51,51)" stroke="none" d="M 7220,16681 L 7220,15868 7623,15635 7623,16681 7220,16681 Z"/>
     <path fill="rgb(52,52,52)" stroke="none" d="M 7623,16681 L 7623,16723 7220,16956 7220,16681 7623,16681 Z M 7220,16671 L 7220,15868 7623,15635 7623,16671 7220,16671 Z"/>
     <path fill="rgb(54,54,54)" stroke="none" d="M 7623,16671 L 7623,16723 7220,16956 7220,16671 7623,16671 Z M 7220,16661 L 7220,15868 7623,15635 7623,16661 7220,16661 Z"/>
     <path fill="rgb(55,55,55)" stroke="none" d="M 7623,16661 L 7623,16723 7220,16956 7220,16661 7623,16661 Z M 7220,16651 L 7220,15868 7623,15635 7623,16651 7220,16651 Z"/>
     <path fill="rgb(57,57,57)" stroke="none" d="M 7623,16651 L 7623,16723 7220,16956 7220,16651 7623,16651 Z M 7220,16641 L 7220,15868 7623,15635 7623,16641 7220,16641 Z"/>
     <path fill="rgb(58,58,58)" stroke="none" d="M 7623,16641 L 7623,16723 7220,16956 7220,16641 7623,16641 Z M 7220,16631 L 7220,15868 7623,15635 7623,16631 7220,16631 Z"/>
     <path fill="rgb(60,60,60)" stroke="none" d="M 7623,16631 L 7623,16723 7220,16956 7220,16631 7623,16631 Z M 7220,16621 L 7220,15868 7623,15635 7623,16621 7220,16621 Z"/>
     <path fill="rgb(61,61,61)" stroke="none" d="M 7623,16621 L 7623,16723 7220,16956 7220,16621 7623,16621 Z M 7220,16611 L 7220,15868 7623,15635 7623,16611 7220,16611 Z"/>
     <path fill="rgb(63,63,63)" stroke="none" d="M 7623,16611 L 7623,16723 7220,16956 7220,16611 7623,16611 Z M 7220,16601 L 7220,15868 7623,15635 7623,16601 7220,16601 Z"/>
     <path fill="rgb(64,64,64)" stroke="none" d="M 7623,16601 L 7623,16723 7220,16956 7220,16601 7623,16601 Z M 7220,16591 L 7220,15868 7623,15635 7623,16591 7220,16591 Z"/>
     <path fill="rgb(66,66,66)" stroke="none" d="M 7623,16591 L 7623,16723 7220,16956 7220,16591 7623,16591 Z M 7220,16581 L 7220,15868 7623,15635 7623,16581 7220,16581 Z"/>
     <path fill="rgb(68,68,68)" stroke="none" d="M 7623,16581 L 7623,16723 7220,16956 7220,16581 7623,16581 Z M 7220,16571 L 7220,15868 7623,15635 7623,16571 7220,16571 Z"/>
     <path fill="rgb(69,69,69)" stroke="none" d="M 7623,16571 L 7623,16723 7220,16956 7220,16571 7623,16571 Z M 7220,16561 L 7220,15868 7623,15635 7623,16561 7220,16561 Z"/>
     <path fill="rgb(71,71,71)" stroke="none" d="M 7623,16561 L 7623,16723 7220,16956 7220,16561 7623,16561 Z M 7220,16551 L 7220,15868 7623,15635 7623,16551 7220,16551 Z"/>
     <path fill="rgb(72,72,72)" stroke="none" d="M 7623,16551 L 7623,16723 7220,16956 7220,16551 7623,16551 Z M 7220,16541 L 7220,15868 7623,15635 7623,16541 7220,16541 Z"/>
     <path fill="rgb(74,74,74)" stroke="none" d="M 7623,16541 L 7623,16723 7220,16956 7220,16541 7623,16541 Z M 7220,16531 L 7220,15868 7623,15635 7623,16531 7220,16531 Z"/>
     <path fill="rgb(75,75,75)" stroke="none" d="M 7623,16531 L 7623,16723 7220,16956 7220,16531 7623,16531 Z M 7220,16521 L 7220,15868 7623,15635 7623,16521 7220,16521 Z"/>
     <path fill="rgb(77,77,77)" stroke="none" d="M 7623,16521 L 7623,16723 7220,16956 7220,16521 7623,16521 Z M 7220,16511 L 7220,15868 7623,15635 7623,16511 7220,16511 Z"/>
     <path fill="rgb(78,78,78)" stroke="none" d="M 7623,16511 L 7623,16723 7220,16956 7220,16511 7623,16511 Z M 7220,16501 L 7220,15868 7623,15635 7623,16501 7220,16501 Z"/>
     <path fill="rgb(80,80,80)" stroke="none" d="M 7623,16501 L 7623,16723 7220,16956 7220,16501 7623,16501 Z M 7220,16491 L 7220,15868 7623,15635 7623,16491 7220,16491 Z"/>
     <path fill="rgb(81,81,81)" stroke="none" d="M 7623,16491 L 7623,16723 7220,16956 7220,16491 7623,16491 Z M 7220,16481 L 7220,15868 7623,15635 7623,16481 7220,16481 Z"/>
     <path fill="rgb(83,83,83)" stroke="none" d="M 7623,16481 L 7623,16723 7220,16956 7220,16481 7623,16481 Z M 7220,16471 L 7220,15868 7623,15635 7623,16471 7220,16471 Z"/>
     <path fill="rgb(85,85,85)" stroke="none" d="M 7623,16471 L 7623,16723 7220,16956 7220,16471 7623,16471 Z M 7220,16461 L 7220,15868 7623,15635 7623,16461 7220,16461 Z"/>
     <path fill="rgb(86,86,86)" stroke="none" d="M 7623,16461 L 7623,16723 7220,16956 7220,16461 7623,16461 Z M 7220,16451 L 7220,15868 7623,15635 7623,16451 7220,16451 Z"/>
     <path fill="rgb(88,88,88)" stroke="none" d="M 7623,16451 L 7623,16723 7220,16956 7220,16451 7623,16451 Z M 7220,16441 L 7220,15868 7623,15635 7623,16441 7220,16441 Z"/>
     <path fill="rgb(89,89,89)" stroke="none" d="M 7623,16441 L 7623,16723 7220,16956 7220,16441 7623,16441 Z M 7220,16431 L 7220,15868 7623,15635 7623,16431 7220,16431 Z"/>
     <path fill="rgb(91,91,91)" stroke="none" d="M 7623,16431 L 7623,16723 7220,16956 7220,16431 7623,16431 Z M 7623,15639 L 7623,16421 7220,16421 7220,15868 7616,15639 7623,15639 Z"/>
     <path fill="rgb(92,92,92)" stroke="none" d="M 7623,16421 L 7623,16723 7220,16956 7220,16421 7623,16421 Z M 7616,15639 L 7623,15635 7623,15639 7616,15639 Z M 7623,15649 L 7623,16411 7220,16411 7220,15868 7599,15649 7623,15649 Z"/>
     <path fill="rgb(94,94,94)" stroke="none" d="M 7623,16411 L 7623,16723 7220,16956 7220,16411 7623,16411 Z M 7599,15649 L 7623,15635 7623,15649 7599,15649 Z M 7623,15659 L 7623,16401 7220,16401 7220,15868 7581,15659 7623,15659 Z"/>
     <path fill="rgb(95,95,95)" stroke="none" d="M 7623,16401 L 7623,16723 7220,16956 7220,16401 7623,16401 Z M 7581,15659 L 7623,15635 7623,15659 7581,15659 Z M 7623,15669 L 7623,16391 7220,16391 7220,15868 7564,15669 7623,15669 Z"/>
     <path fill="rgb(97,97,97)" stroke="none" d="M 7623,16391 L 7623,16723 7220,16956 7220,16391 7623,16391 Z M 7564,15669 L 7623,15635 7623,15669 7564,15669 Z M 7623,15679 L 7623,16381 7220,16381 7220,15868 7547,15679 7623,15679 Z"/>
     <path fill="rgb(98,98,98)" stroke="none" d="M 7623,16381 L 7623,16723 7220,16956 7220,16381 7623,16381 Z M 7547,15679 L 7623,15635 7623,15679 7547,15679 Z M 7623,15689 L 7623,16371 7220,16371 7220,15868 7530,15689 7623,15689 Z"/>
     <path fill="rgb(100,100,100)" stroke="none" d="M 7623,16371 L 7623,16723 7220,16956 7220,16371 7623,16371 Z M 7530,15689 L 7623,15635 7623,15689 7530,15689 Z M 7623,15700 L 7623,16361 7220,16361 7220,15868 7511,15700 7623,15700 Z"/>
     <path fill="rgb(102,102,102)" stroke="none" d="M 7623,16361 L 7623,16723 7220,16956 7220,16361 7623,16361 Z M 7511,15700 L 7623,15635 7623,15700 7511,15700 Z M 7623,15710 L 7623,16350 7220,16350 7220,15868 7493,15710 7623,15710 Z"/>
     <path fill="rgb(103,103,103)" stroke="none" d="M 7623,16350 L 7623,16723 7220,16956 7220,16350 7623,16350 Z M 7493,15710 L 7623,15635 7623,15710 7493,15710 Z M 7623,15720 L 7623,16340 7220,16340 7220,15868 7476,15720 7623,15720 Z"/>
     <path fill="rgb(105,105,105)" stroke="none" d="M 7623,16340 L 7623,16723 7220,16956 7220,16340 7623,16340 Z M 7476,15720 L 7623,15635 7623,15720 7476,15720 Z M 7623,15730 L 7623,16330 7220,16330 7220,15868 7459,15730 7623,15730 Z"/>
     <path fill="rgb(106,106,106)" stroke="none" d="M 7623,16330 L 7623,16723 7220,16956 7220,16330 7623,16330 Z M 7459,15730 L 7623,15635 7623,15730 7459,15730 Z M 7623,15740 L 7623,16320 7220,16320 7220,15868 7441,15740 7623,15740 Z"/>
     <path fill="rgb(108,108,108)" stroke="none" d="M 7623,16320 L 7623,16723 7220,16956 7220,16320 7623,16320 Z M 7441,15740 L 7623,15635 7623,15740 7441,15740 Z M 7619,15750 L 7619,16310 7220,16310 7220,15868 7424,15750 7619,15750 Z"/>
     <path fill="rgb(109,109,109)" stroke="none" d="M 7619,16310 L 7619,15750 7424,15750 7623,15635 7623,16723 7220,16956 7220,16310 7619,16310 Z M 7609,15760 L 7609,16300 7220,16300 7220,15868 7407,15760 7609,15760 Z"/>
     <path fill="rgb(111,111,111)" stroke="none" d="M 7609,16300 L 7609,15760 7407,15760 7623,15635 7623,16723 7220,16956 7220,16300 7609,16300 Z M 7599,15770 L 7599,16290 7220,16290 7220,15868 7390,15770 7599,15770 Z"/>
     <path fill="rgb(112,112,112)" stroke="none" d="M 7599,16290 L 7599,15770 7390,15770 7623,15635 7623,16723 7220,16956 7220,16290 7599,16290 Z M 7589,15780 L 7589,16280 7220,16280 7220,15868 7372,15780 7589,15780 Z"/>
     <path fill="rgb(114,114,114)" stroke="none" d="M 7589,16280 L 7589,15780 7372,15780 7623,15635 7623,16723 7220,16956 7220,16280 7589,16280 Z M 7579,15790 L 7579,16270 7220,16270 7220,15868 7355,15790 7579,15790 Z"/>
     <path fill="rgb(115,115,115)" stroke="none" d="M 7579,16270 L 7579,15790 7355,15790 7623,15635 7623,16723 7220,16956 7220,16270 7579,16270 Z M 7569,15800 L 7569,16260 7220,16260 7220,15868 7338,15800 7569,15800 Z"/>
     <path fill="rgb(117,117,117)" stroke="none" d="M 7569,16260 L 7569,15800 7338,15800 7623,15635 7623,16723 7220,16956 7220,16260 7569,16260 Z M 7559,15810 L 7559,16250 7220,16250 7220,15868 7320,15810 7559,15810 Z"/>
     <path fill="rgb(119,119,119)" stroke="none" d="M 7559,16250 L 7559,15810 7320,15810 7623,15635 7623,16723 7220,16956 7220,16250 7559,16250 Z M 7549,15820 L 7549,16240 7220,16240 7220,15868 7303,15820 7549,15820 Z"/>
     <path fill="rgb(120,120,120)" stroke="none" d="M 7549,16240 L 7549,15820 7303,15820 7623,15635 7623,16723 7220,16956 7220,16240 7549,16240 Z M 7539,15830 L 7539,16230 7220,16230 7220,15868 7286,15830 7539,15830 Z"/>
     <path fill="rgb(122,122,122)" stroke="none" d="M 7539,16230 L 7539,15830 7286,15830 7623,15635 7623,16723 7220,16956 7220,16230 7539,16230 Z M 7529,15840 L 7529,16220 7220,16220 7220,15868 7268,15840 7529,15840 Z"/>
     <path fill="rgb(123,123,123)" stroke="none" d="M 7529,16220 L 7529,15840 7268,15840 7623,15635 7623,16723 7220,16956 7220,16220 7529,16220 Z M 7519,15850 L 7519,16210 7220,16210 7220,15868 7251,15850 7519,15850 Z"/>
     <path fill="rgb(125,125,125)" stroke="none" d="M 7519,16210 L 7519,15850 7251,15850 7623,15635 7623,16723 7220,16956 7220,16210 7519,16210 Z M 7509,15860 L 7509,16200 7220,16200 7220,15868 7234,15860 7509,15860 Z"/>
     <path fill="rgb(126,126,126)" stroke="none" d="M 7509,16200 L 7509,15860 7234,15860 7623,15635 7623,16723 7220,16956 7220,16200 7509,16200 Z M 7499,15870 L 7499,16190 7220,16190 7220,15870 7499,15870 Z"/>
     <path fill="rgb(128,128,128)" stroke="none" d="M 7499,16190 L 7499,15870 7220,15870 7220,15868 7623,15635 7623,16723 7220,16956 7220,16190 7499,16190 Z M 7489,15880 L 7489,16180 7220,16180 7220,15880 7489,15880 Z"/>
     <path fill="rgb(129,129,129)" stroke="none" d="M 7489,16180 L 7489,15880 7220,15880 7220,15868 7623,15635 7623,16723 7220,16956 7220,16180 7489,16180 Z M 7479,15890 L 7479,16170 7220,16170 7220,15890 7479,15890 Z"/>
     <path fill="rgb(131,131,131)" stroke="none" d="M 7479,16170 L 7479,15890 7220,15890 7220,15868 7623,15635 7623,16723 7220,16956 7220,16170 7479,16170 Z M 7469,15900 L 7469,16160 7220,16160 7220,15900 7469,15900 Z"/>
     <path fill="rgb(132,132,132)" stroke="none" d="M 7469,16160 L 7469,15900 7220,15900 7220,15868 7623,15635 7623,16723 7220,16956 7220,16160 7469,16160 Z M 7459,15910 L 7459,16150 7220,16150 7220,15910 7459,15910 Z"/>
     <path fill="rgb(134,134,134)" stroke="none" d="M 7459,16150 L 7459,15910 7220,15910 7220,15868 7623,15635 7623,16723 7220,16956 7220,16150 7459,16150 Z M 7229,15920 L 7449,15920 7449,16140 7229,16140 7229,15920 Z"/>
     <path fill="rgb(136,136,136)" stroke="none" d="M 7229,15920 L 7229,16140 7449,16140 7449,15920 7229,15920 Z M 7239,15930 L 7439,15930 7439,16130 7239,16130 7239,15930 Z M 7220,16956 L 7220,15868 7623,15635 7623,16723 7220,16956 Z"/>
     <path fill="rgb(137,137,137)" stroke="none" d="M 7239,15930 L 7239,16130 7439,16130 7439,15930 7239,15930 Z M 7249,15940 L 7429,15940 7429,16120 7249,16120 7249,15940 Z M 7220,16956 L 7220,15868 7623,15635 7623,16723 7220,16956 Z"/>
     <path fill="rgb(139,139,139)" stroke="none" d="M 7249,15940 L 7249,16120 7429,16120 7429,15940 7249,15940 Z M 7259,15950 L 7419,15950 7419,16110 7259,16110 7259,15950 Z M 7220,16956 L 7220,15868 7623,15635 7623,16723 7220,16956 Z"/>
     <path fill="rgb(140,140,140)" stroke="none" d="M 7259,15950 L 7259,16110 7419,16110 7419,15950 7259,15950 Z M 7269,15960 L 7409,15960 7409,16100 7269,16100 7269,15960 Z M 7220,16956 L 7220,15868 7623,15635 7623,16723 7220,16956 Z"/>
     <path fill="rgb(142,142,142)" stroke="none" d="M 7269,15960 L 7269,16100 7409,16100 7409,15960 7269,15960 Z M 7279,15970 L 7399,15970 7399,16090 7279,16090 7279,15970 Z M 7220,16956 L 7220,15868 7623,15635 7623,16723 7220,16956 Z"/>
     <path fill="rgb(143,143,143)" stroke="none" d="M 7279,15970 L 7279,16090 7399,16090 7399,15970 7279,15970 Z M 7289,15980 L 7389,15980 7389,16080 7289,16080 7289,15980 Z M 7220,16956 L 7220,15868 7623,15635 7623,16723 7220,16956 Z"/>
     <path fill="rgb(145,145,145)" stroke="none" d="M 7289,15980 L 7289,16080 7389,16080 7389,15980 7289,15980 Z M 7299,15990 L 7379,15990 7379,16070 7299,16070 7299,15990 Z M 7220,16956 L 7220,15868 7623,15635 7623,16723 7220,16956 Z"/>
     <path fill="rgb(146,146,146)" stroke="none" d="M 7299,15990 L 7299,16070 7379,16070 7379,15990 7299,15990 Z M 7309,16000 L 7369,16000 7369,16060 7309,16060 7309,16000 Z M 7220,16956 L 7220,15868 7623,15635 7623,16723 7220,16956 Z"/>
     <path fill="rgb(148,148,148)" stroke="none" d="M 7309,16000 L 7309,16060 7369,16060 7369,16000 7309,16000 Z M 7319,16010 L 7359,16010 7359,16050 7319,16050 7319,16010 Z M 7220,16956 L 7220,15868 7623,15635 7623,16723 7220,16956 Z"/>
     <path fill="rgb(149,149,149)" stroke="none" d="M 7319,16010 L 7319,16050 7359,16050 7359,16010 7319,16010 Z M 7329,16020 L 7349,16020 7349,16040 7329,16040 7329,16020 Z M 7220,16956 L 7220,15868 7623,15635 7623,16723 7220,16956 Z"/>
     <path fill="rgb(153,153,153)" stroke="none" d="M 7329,16020 L 7329,16040 7349,16040 7349,16020 7329,16020 Z M 7220,16956 L 7220,15868 7623,15635 7623,16723 7220,16956 Z"/>
     <path fill="none" stroke="rgb(178,178,178)" id="Drawing_2_0" stroke-width="40" stroke-linejoin="round" d="M 7220,16956 L 7220,15868 7623,15635 7623,16723 7220,16956 Z"/>
    </g>
    <g>
     <defs>
      <linearGradient id="Gradient_706" gradientUnits="userSpaceOnUse" x1="7086" y1="15246" x2="7086" y2="15868">
       <stop offset="0.1" stop-color="rgb(51,51,51)"/>
       <stop offset="1" stop-color="rgb(153,153,153)"/>
      </linearGradient>
     </defs>
     <path fill="url(#Gradient_706)" stroke="rgb(178,178,178)" id="Drawing_3_0" stroke-width="40" stroke-linejoin="round" d="M 7220,15868 L 6548,15479 6951,15246 7624,15635 7220,15868 Z"/>
    </g>
    <g>
     <defs>
      <linearGradient id="Gradient_707" gradientUnits="userSpaceOnUse" x1="6547" y1="16216" x2="7221" y2="16218">
       <stop offset="0.1" stop-color="rgb(51,51,51)"/>
       <stop offset="1" stop-color="rgb(153,153,153)"/>
      </linearGradient>
     </defs>
     <path fill="url(#Gradient_707)" stroke="rgb(178,178,178)" id="Drawing_4_0" stroke-width="40" stroke-linejoin="round" d="M 6548,16567 L 6548,15479 7220,15868 7220,16956 6548,16567 Z"/>
    </g>
    <g>
     <path fill="none" stroke="rgb(0,0,0)" id="Drawing_5_0" stroke-width="40" stroke-linejoin="round" d="M 6548,16567 L 6548,15479 6951,15246 7624,15635 7624,16723 7220,16956 6548,16567 Z"/>
    </g>
   </g>
  </g>
 </g>
</svg>