<?xml version="1.0" encoding="UTF-8"?>

<svg version="1.2" baseProfile="tiny" width="28.09mm" height="36.8mm" viewBox="9812 6966 2809 3680" preserveAspectRatio="xMidYMid" fill-rule="evenodd" stroke-width="28.222" stroke-linejoin="round" xmlns="http://www.w3.org/2000/svg" xmlns:xlink="http://www.w3.org/1999/xlink" xml:space="preserve">
 <g visibility="visible" id="Slide_1">
  <g id="DrawingGroup_1">
   <g>
    <path fill="rgb(221,221,221)" stroke="none" d="M 11287,10346 C 11522,10346 12439,10018 12586,9902 12733,9786 12369,9506 12244,9506 12244,9654 11287,10098 11287,10346 Z"/>
    <path fill="none" stroke="rgb(221,221,221)" id="Drawing_1_0" stroke-linejoin="round" d="M 11287,10346 C 11522,10346 12439,10018 12586,9902 12733,9786 12369,9506 12244,9506 12244,9654 11287,10098 11287,10346 Z"/>
   </g>
   <g id="DrawingGroup_2">
    <g>
     <defs>
      <linearGradient id="Gradient_696" gradientUnits="userSpaceOnUse" x1="9830" y1="9225" x2="10804" y2="9227">
       <stop offset="0.1" stop-color="rgb(51,51,51)"/>
       <stop offset="1" stop-color="rgb(153,153,153)"/>
      </linearGradient>
     </defs>
     <path fill="url(#Gradient_696)" stroke="rgb(178,178,178)" id="Drawing_2_0" stroke-width="40" stroke-linejoin="round" d="M 9832,10066 L 9832,7826 10802,8386 10802,10626 9832,10066 Z"/>
    </g>
    <g>
     <path fill="rgb(51,51,51)" stroke="none" d="M 10801,9994 L 10802,8386 12258,7546 12257,9786 11896,9994 10801,9994 Z"/>
     <path fill="rgb(52,52,52)" stroke="none" d="M 11896,9994 L 10801,10626 10801,9994 11896,9994 Z M 10801,9979 L 10802,8386 12258,7546 12257,9786 11922,9979 10801,9979 Z"/>
     <path fill="rgb(53,53,53)" stroke="none" d="M 11922,9979 L 10801,10626 10801,9979 11922,9979 Z M 10801,9964 L 10802,8386 12258,7546 12257,9786 11948,9964 10801,9964 Z"/>
     <path fill="rgb(54,54,54)" stroke="none" d="M 11948,9964 L 10801,10626 10801,9964 11948,9964 Z M 10801,9949 L 10802,8386 12258,7546 12257,9786 11974,9949 10801,9949 Z"/>
     <path fill="rgb(55,55,55)" stroke="none" d="M 11974,9949 L 10801,10626 10801,9949 11974,9949 Z M 10801,9934 L 10802,8386 12258,7546 12257,9786 12000,9934 10801,9934 Z"/>
     <path fill="rgb(56,56,56)" stroke="none" d="M 12000,9934 L 10801,10626 10801,9934 12000,9934 Z M 10801,9919 L 10802,8386 12258,7546 12257,9786 12026,9919 10801,9919 Z"/>
     <path fill="rgb(57,57,57)" stroke="none" d="M 12026,9919 L 10801,10626 10801,9919 12026,9919 Z M 10801,9904 L 10802,8386 12258,7546 12257,9786 12052,9904 10801,9904 Z"/>
     <path fill="rgb(58,58,58)" stroke="none" d="M 12052,9904 L 10801,10626 10801,9904 12052,9904 Z M 10801,9889 L 10802,8386 12258,7546 12257,9786 12078,9889 10801,9889 Z"/>
     <path fill="rgb(59,59,59)" stroke="none" d="M 12078,9889 L 10801,10626 10801,9889 12078,9889 Z M 10801,9873 L 10802,8386 12258,7546 12257,9786 12106,9873 10801,9873 Z"/>
     <path fill="rgb(60,60,60)" stroke="none" d="M 12106,9873 L 10801,10626 10801,9873 12106,9873 Z M 10801,9858 L 10802,8386 12258,7546 12257,9786 12132,9858 10801,9858 Z"/>
     <path fill="rgb(61,61,61)" stroke="none" d="M 12132,9858 L 10801,10626 10801,9858 12132,9858 Z M 10801,9843 L 10802,8386 12258,7546 12257,9786 12158,9843 10801,9843 Z"/>
     <path fill="rgb(62,62,62)" stroke="none" d="M 12158,9843 L 10801,10626 10801,9843 12158,9843 Z M 10801,9828 L 10802,8386 12258,7546 12257,9786 12184,9828 10801,9828 Z"/>
     <path fill="rgb(63,63,63)" stroke="none" d="M 12184,9828 L 10801,10626 10801,9828 12184,9828 Z M 10801,9813 L 10802,8386 12258,7546 12257,9786 12210,9813 10801,9813 Z"/>
     <path fill="rgb(64,64,64)" stroke="none" d="M 12210,9813 L 10801,10626 10801,9813 12210,9813 Z M 10801,9798 L 10802,8386 12258,7546 12257,9786 12236,9798 10801,9798 Z"/>
     <path fill="rgb(65,65,65)" stroke="none" d="M 12236,9798 L 10801,10626 10801,9798 12236,9798 Z M 10801,9783 L 10802,8386 12258,7546 12257,9783 10801,9783 Z"/>
     <path fill="rgb(66,66,66)" stroke="none" d="M 12257,9783 L 12257,9786 10801,10626 10801,9783 12257,9783 Z M 10801,9768 L 10802,8386 12258,7546 12257,9768 10801,9768 Z"/>
     <path fill="rgb(67,67,67)" stroke="none" d="M 12257,9768 L 12257,9786 10801,10626 10801,9768 12257,9768 Z M 10801,9753 L 10802,8386 12258,7546 12257,9753 10801,9753 Z"/>
     <path fill="rgb(68,68,68)" stroke="none" d="M 12257,9753 L 12257,9786 10801,10626 10801,9753 12257,9753 Z M 10801,9737 L 10802,8386 12258,7546 12257,9737 10801,9737 Z"/>
     <path fill="rgb(69,69,69)" stroke="none" d="M 12257,9737 L 12257,9786 10801,10626 10801,9737 12257,9737 Z M 10801,9722 L 10802,8386 12258,7546 12257,9722 10801,9722 Z"/>
     <path fill="rgb(70,70,70)" stroke="none" d="M 12257,9722 L 12257,9786 10801,10626 10801,9722 12257,9722 Z M 10801,9707 L 10802,8386 12258,7546 12257,9707 10801,9707 Z"/>
     <path fill="rgb(71,71,71)" stroke="none" d="M 12257,9707 L 12257,9786 10801,10626 10801,9707 12257,9707 Z M 10801,9692 L 10802,8386 12258,7546 12257,9692 10801,9692 Z"/>
     <path fill="rgb(72,72,72)" stroke="none" d="M 12257,9692 L 12257,9786 10801,10626 10801,9692 12257,9692 Z M 10801,9677 L 10802,8386 12258,7546 12257,9677 10801,9677 Z"/>
     <path fill="rgb(73,73,73)" stroke="none" d="M 12257,9677 L 12257,9786 10801,10626 10801,9677 12257,9677 Z M 10801,9662 L 10802,8386 12258,7546 12257,9662 10801,9662 Z"/>
     <path fill="rgb(74,74,74)" stroke="none" d="M 12257,9662 L 12257,9786 10801,10626 10801,9662 12257,9662 Z M 10801,9647 L 10802,8386 12258,7546 12257,9647 10801,9647 Z"/>
     <path fill="rgb(75,75,75)" stroke="none" d="M 12257,9647 L 12257,9786 10801,10626 10801,9647 12257,9647 Z M 10801,9632 L 10802,8386 12258,7546 12257,9632 10801,9632 Z"/>
     <path fill="rgb(76,76,76)" stroke="none" d="M 12257,9632 L 12257,9786 10801,10626 10801,9632 12257,9632 Z M 10801,9617 L 10802,8386 12258,7546 12257,9617 10801,9617 Z"/>
     <path fill="rgb(77,77,77)" stroke="none" d="M 12257,9617 L 12257,9786 10801,10626 10801,9617 12257,9617 Z M 10801,9601 L 10802,8386 12258,7546 12257,9601 10801,9601 Z"/>
     <path fill="rgb(78,78,78)" stroke="none" d="M 12257,9601 L 12257,9786 10801,10626 10801,9601 12257,9601 Z M 10801,9586 L 10802,8386 12258,7546 12257,9586 10801,9586 Z"/>
     <path fill="rgb(79,79,79)" stroke="none" d="M 12257,9586 L 12257,9786 10801,10626 10801,9586 12257,9586 Z M 10801,9571 L 10802,8386 12258,7546 12257,9571 10801,9571 Z"/>
     <path fill="rgb(80,80,80)" stroke="none" d="M 12257,9571 L 12257,9786 10801,10626 10801,9571 12257,9571 Z M 10801,9556 L 10802,8386 12258,7546 12257,9556 10801,9556 Z"/>
     <path fill="rgb(81,81,81)" stroke="none" d="M 12257,9556 L 12257,9786 10801,10626 10801,9556 12257,9556 Z M 10801,9541 L 10802,8386 12258,7546 12257,9541 10801,9541 Z"/>
     <path fill="rgb(82,82,82)" stroke="none" d="M 12257,9541 L 12257,9786 10801,10626 10801,9541 12257,9541 Z M 10801,9526 L 10802,8386 12258,7546 12257,9526 10801,9526 Z"/>
     <path fill="rgb(83,83,83)" stroke="none" d="M 12257,9526 L 12257,9786 10801,10626 10801,9526 12257,9526 Z M 10801,9511 L 10802,8386 12258,7546 12257,9511 10801,9511 Z"/>
     <path fill="rgb(84,84,84)" stroke="none" d="M 12257,9511 L 12257,9786 10801,10626 10801,9511 12257,9511 Z M 10802,9496 L 10802,8386 12258,7546 12257,9496 10802,9496 Z"/>
     <path fill="rgb(85,85,85)" stroke="none" d="M 12257,9496 L 12257,9786 10801,10626 10802,9496 12257,9496 Z M 12250,9481 L 10802,9481 10802,8386 12250,7551 12250,9481 Z"/>
     <path fill="rgb(86,86,86)" stroke="none" d="M 12250,9481 L 12250,7551 12258,7546 12257,9786 10801,10626 10802,9481 12250,9481 Z M 12234,9465 L 10802,9465 10802,8386 12234,7560 12234,9465 Z"/>
     <path fill="rgb(87,87,87)" stroke="none" d="M 12234,9465 L 12234,7560 12258,7546 12257,9786 10801,10626 10802,9465 12234,9465 Z M 12219,9450 L 10802,9450 10802,8386 12219,7569 12219,9450 Z"/>
     <path fill="rgb(88,88,88)" stroke="none" d="M 12219,9450 L 12219,7569 12258,7546 12257,9786 10801,10626 10802,9450 12219,9450 Z M 12204,9435 L 10802,9435 10802,8386 12204,7577 12204,9435 Z"/>
     <path fill="rgb(89,89,89)" stroke="none" d="M 12204,9435 L 12204,7577 12258,7546 12257,9786 10801,10626 10802,9435 12204,9435 Z M 12189,9420 L 10802,9420 10802,8386 12189,7586 12189,9420 Z"/>
     <path fill="rgb(90,90,90)" stroke="none" d="M 12189,9420 L 12189,7586 12258,7546 12257,9786 10801,10626 10802,9420 12189,9420 Z M 12174,9405 L 10802,9405 10802,8386 12174,7594 12174,9405 Z"/>
     <path fill="rgb(91,91,91)" stroke="none" d="M 12174,9405 L 12174,7594 12258,7546 12257,9786 10801,10626 10802,9405 12174,9405 Z M 12159,9390 L 10802,9390 10802,8386 12159,7603 12159,9390 Z"/>
     <path fill="rgb(92,92,92)" stroke="none" d="M 12159,9390 L 12159,7603 12258,7546 12257,9786 10801,10626 10802,9390 12159,9390 Z M 12144,9375 L 10802,9375 10802,8386 12144,7612 12144,9375 Z"/>
     <path fill="rgb(93,93,93)" stroke="none" d="M 12144,9375 L 12144,7612 12258,7546 12257,9786 10801,10626 10802,9375 12144,9375 Z M 12129,9360 L 10802,9360 10802,8386 12129,7620 12129,9360 Z"/>
     <path fill="rgb(94,94,94)" stroke="none" d="M 12129,9360 L 12129,7620 12258,7546 12257,9786 10801,10626 10802,9360 12129,9360 Z M 12114,9345 L 10802,9345 10802,8386 12114,7629 12114,9345 Z"/>
     <path fill="rgb(95,95,95)" stroke="none" d="M 12114,9345 L 12114,7629 12258,7546 12257,9786 10801,10626 10802,9345 12114,9345 Z M 12098,9329 L 10802,9329 10802,8386 12098,7638 12098,9329 Z"/>
     <path fill="rgb(96,96,96)" stroke="none" d="M 12098,9329 L 12098,7638 12258,7546 12257,9786 10801,10626 10802,9329 12098,9329 Z M 12083,9314 L 10802,9314 10802,8386 12083,7647 12083,9314 Z"/>
     <path fill="rgb(97,97,97)" stroke="none" d="M 12083,9314 L 12083,7647 12258,7546 12257,9786 10801,10626 10802,9314 12083,9314 Z M 12068,9299 L 10802,9299 10802,8386 12068,7656 12068,9299 Z"/>
     <path fill="rgb(98,98,98)" stroke="none" d="M 12068,9299 L 12068,7656 12258,7546 12257,9786 10801,10626 10802,9299 12068,9299 Z M 12053,9284 L 10802,9284 10802,8386 12053,7664 12053,9284 Z"/>
     <path fill="rgb(99,99,99)" stroke="none" d="M 12053,9284 L 12053,7664 12258,7546 12257,9786 10801,10626 10802,9284 12053,9284 Z M 12038,9269 L 10802,9269 10802,8386 12038,7673 12038,9269 Z"/>
     <path fill="rgb(100,100,100)" stroke="none" d="M 12038,9269 L 12038,7673 12258,7546 12257,9786 10801,10626 10802,9269 12038,9269 Z M 12023,7683 L 12023,9254 10802,9254 10802,8386 12021,7683 12023,7683 Z"/>
     <path fill="rgb(101,101,101)" stroke="none" d="M 12023,9254 L 12023,7683 12021,7683 12258,7546 12257,9786 10801,10626 10802,9254 12023,9254 Z M 12008,7698 L 12008,9239 10802,9239 10802,8386 11995,7698 12008,7698 Z"/>
     <path fill="rgb(102,102,102)" stroke="none" d="M 12008,9239 L 12008,7698 11995,7698 12258,7546 12257,9786 10801,10626 10802,9239 12008,9239 Z M 11993,7713 L 11993,9224 10802,9224 10802,8386 11969,7713 11993,7713 Z"/>
     <path fill="rgb(103,103,103)" stroke="none" d="M 11993,9224 L 11993,7713 11969,7713 12258,7546 12257,9786 10801,10626 10802,9224 11993,9224 Z M 11978,7728 L 11978,9209 10802,9209 10802,8386 11943,7728 11978,7728 Z"/>
     <path fill="rgb(104,104,104)" stroke="none" d="M 11978,9209 L 11978,7728 11943,7728 12258,7546 12257,9786 10801,10626 10802,9209 11978,9209 Z M 11962,7744 L 11962,9193 10802,9193 10802,8386 11915,7744 11962,7744 Z"/>
     <path fill="rgb(105,105,105)" stroke="none" d="M 11962,9193 L 11962,7744 11915,7744 12258,7546 12257,9786 10801,10626 10802,9193 11962,9193 Z M 11947,7759 L 11947,9178 10802,9178 10802,8386 11889,7759 11947,7759 Z"/>
     <path fill="rgb(106,106,106)" stroke="none" d="M 11947,9178 L 11947,7759 11889,7759 12258,7546 12257,9786 10801,10626 10802,9178 11947,9178 Z M 11932,7774 L 11932,9163 10802,9163 10802,8386 11863,7774 11932,7774 Z"/>
     <path fill="rgb(107,107,107)" stroke="none" d="M 11932,9163 L 11932,7774 11863,7774 12258,7546 12257,9786 10801,10626 10802,9163 11932,9163 Z M 11917,7789 L 11917,9148 10802,9148 10802,8386 11837,7789 11917,7789 Z"/>
     <path fill="rgb(108,108,108)" stroke="none" d="M 11917,9148 L 11917,7789 11837,7789 12258,7546 12257,9786 10801,10626 10802,9148 11917,9148 Z M 11902,7804 L 11902,9133 10802,9133 10802,8386 11811,7804 11902,7804 Z"/>
     <path fill="rgb(109,109,109)" stroke="none" d="M 11902,9133 L 11902,7804 11811,7804 12258,7546 12257,9786 10801,10626 10802,9133 11902,9133 Z M 11887,7819 L 11887,9118 10802,9118 10802,8386 11785,7819 11887,7819 Z"/>
     <path fill="rgb(110,110,110)" stroke="none" d="M 11887,9118 L 11887,7819 11785,7819 12258,7546 12257,9786 10801,10626 10802,9118 11887,9118 Z M 11872,7834 L 11872,9103 10802,9103 10802,8386 11759,7834 11872,7834 Z"/>
     <path fill="rgb(111,111,111)" stroke="none" d="M 11872,9103 L 11872,7834 11759,7834 12258,7546 12257,9786 10801,10626 10802,9103 11872,9103 Z M 11857,7849 L 11857,9088 10802,9088 10802,8386 11733,7849 11857,7849 Z"/>
     <path fill="rgb(112,112,112)" stroke="none" d="M 11857,9088 L 11857,7849 11733,7849 12258,7546 12257,9786 10801,10626 10802,9088 11857,9088 Z M 11842,7864 L 11842,9073 10802,9073 10802,8386 11707,7864 11842,7864 Z"/>
     <path fill="rgb(113,113,113)" stroke="none" d="M 11842,9073 L 11842,7864 11707,7864 12258,7546 12257,9786 10801,10626 10802,9073 11842,9073 Z M 11826,7880 L 11826,9057 10802,9057 10802,8386 11679,7880 11826,7880 Z"/>
     <path fill="rgb(114,114,114)" stroke="none" d="M 11826,9057 L 11826,7880 11679,7880 12258,7546 12257,9786 10801,10626 10802,9057 11826,9057 Z M 11811,7895 L 11811,9042 10802,9042 10802,8386 11653,7895 11811,7895 Z"/>
     <path fill="rgb(115,115,115)" stroke="none" d="M 11811,9042 L 11811,7895 11653,7895 12258,7546 12257,9786 10801,10626 10802,9042 11811,9042 Z M 11796,7910 L 11796,9027 10802,9027 10802,8386 11627,7910 11796,7910 Z"/>
     <path fill="rgb(116,116,116)" stroke="none" d="M 11796,9027 L 11796,7910 11627,7910 12258,7546 12257,9786 10801,10626 10802,9027 11796,9027 Z M 11781,7925 L 11781,9012 10802,9012 10802,8386 11601,7925 11781,7925 Z"/>
     <path fill="rgb(117,117,117)" stroke="none" d="M 11781,9012 L 11781,7925 11601,7925 12258,7546 12257,9786 10801,10626 10802,9012 11781,9012 Z M 11766,7940 L 11766,8997 10802,8997 10802,8386 11575,7940 11766,7940 Z"/>
     <path fill="rgb(118,118,118)" stroke="none" d="M 11766,8997 L 11766,7940 11575,7940 12258,7546 12257,9786 10801,10626 10802,8997 11766,8997 Z M 11751,7955 L 11751,8982 10802,8982 10802,8386 11549,7955 11751,7955 Z"/>
     <path fill="rgb(119,119,119)" stroke="none" d="M 11751,8982 L 11751,7955 11549,7955 12258,7546 12257,9786 10801,10626 10802,8982 11751,8982 Z M 11736,7970 L 11736,8967 10802,8967 10802,8386 11523,7970 11736,7970 Z"/>
     <path fill="rgb(120,120,120)" stroke="none" d="M 11736,8967 L 11736,7970 11523,7970 12258,7546 12257,9786 10801,10626 10802,8967 11736,8967 Z M 11721,7985 L 11721,8952 10802,8952 10802,8386 11497,7985 11721,7985 Z"/>
     <path fill="rgb(121,121,121)" stroke="none" d="M 11721,8952 L 11721,7985 11497,7985 12258,7546 12257,9786 10801,10626 10802,8952 11721,8952 Z M 11705,8001 L 11705,8936 10802,8936 10802,8386 11469,8001 11705,8001 Z"/>
     <path fill="rgb(122,122,122)" stroke="none" d="M 11705,8936 L 11705,8001 11469,8001 12258,7546 12257,9786 10801,10626 10802,8936 11705,8936 Z M 11690,8016 L 11690,8921 10802,8921 10802,8386 11443,8016 11690,8016 Z"/>
     <path fill="rgb(123,123,123)" stroke="none" d="M 11690,8921 L 11690,8016 11443,8016 12258,7546 12257,9786 10801,10626 10802,8921 11690,8921 Z M 11675,8031 L 11675,8906 10802,8906 10802,8386 11417,8031 11675,8031 Z"/>
     <path fill="rgb(124,124,124)" stroke="none" d="M 11675,8906 L 11675,8031 11417,8031 12258,7546 12257,9786 10801,10626 10802,8906 11675,8906 Z M 11660,8046 L 11660,8891 10815,8891 10815,8379 11391,8046 11660,8046 Z"/>
     <path fill="rgb(125,125,125)" stroke="none" d="M 10815,8891 L 11660,8891 11660,8046 11391,8046 12258,7546 12257,9786 10801,10626 10802,8386 10815,8379 10815,8891 Z M 11645,8061 L 11645,8876 10830,8876 10830,8370 11365,8061 11645,8061 Z"/>
     <path fill="rgb(126,126,126)" stroke="none" d="M 10830,8876 L 11645,8876 11645,8061 11365,8061 12258,7546 12257,9786 10801,10626 10802,8386 10830,8370 10830,8876 Z M 11630,8076 L 11630,8861 10845,8861 10845,8361 11339,8076 11630,8076 Z"/>
     <path fill="rgb(127,127,127)" stroke="none" d="M 10845,8861 L 11630,8861 11630,8076 11339,8076 12258,7546 12257,9786 10801,10626 10802,8386 10845,8361 10845,8861 Z M 11615,8091 L 11615,8846 10860,8846 10860,8353 11313,8091 11615,8091 Z"/>
     <path fill="rgb(128,128,128)" stroke="none" d="M 10860,8846 L 11615,8846 11615,8091 11313,8091 12258,7546 12257,9786 10801,10626 10802,8386 10860,8353 10860,8846 Z M 11600,8106 L 11600,8831 10875,8831 10875,8344 11287,8106 11600,8106 Z"/>
     <path fill="rgb(129,129,129)" stroke="none" d="M 10875,8831 L 11600,8831 11600,8106 11287,8106 12258,7546 12257,9786 10801,10626 10802,8386 10875,8344 10875,8831 Z M 11585,8121 L 11585,8816 10890,8816 10890,8335 11261,8121 11585,8121 Z"/>
     <path fill="rgb(130,130,130)" stroke="none" d="M 10890,8816 L 11585,8816 11585,8121 11261,8121 12258,7546 12257,9786 10801,10626 10802,8386 10890,8335 10890,8816 Z M 11569,8137 L 11569,8800 10906,8800 10906,8326 11234,8137 11569,8137 Z"/>
     <path fill="rgb(131,131,131)" stroke="none" d="M 10906,8800 L 11569,8800 11569,8137 11234,8137 12258,7546 12257,9786 10801,10626 10802,8386 10906,8326 10906,8800 Z M 11554,8152 L 11554,8785 10921,8785 10921,8317 11208,8152 11554,8152 Z"/>
     <path fill="rgb(132,132,132)" stroke="none" d="M 10921,8785 L 11554,8785 11554,8152 11208,8152 12258,7546 12257,9786 10801,10626 10802,8386 10921,8317 10921,8785 Z M 11539,8167 L 11539,8770 10936,8770 10936,8309 11182,8167 11539,8167 Z"/>
     <path fill="rgb(133,133,133)" stroke="none" d="M 10936,8770 L 11539,8770 11539,8167 11182,8167 12258,7546 12257,9786 10801,10626 10802,8386 10936,8309 10936,8770 Z M 11524,8182 L 11524,8755 10951,8755 10951,8300 11156,8182 11524,8182 Z"/>
     <path fill="rgb(134,134,134)" stroke="none" d="M 10951,8755 L 11524,8755 11524,8182 11156,8182 12258,7546 12257,9786 10801,10626 10802,8386 10951,8300 10951,8755 Z M 11509,8197 L 11509,8740 10966,8740 10966,8291 11130,8197 11509,8197 Z"/>
     <path fill="rgb(135,135,135)" stroke="none" d="M 10966,8740 L 11509,8740 11509,8197 11130,8197 12258,7546 12257,9786 10801,10626 10802,8386 10966,8291 10966,8740 Z M 11494,8212 L 11494,8725 10981,8725 10981,8283 11104,8212 11494,8212 Z"/>
     <path fill="rgb(136,136,136)" stroke="none" d="M 10981,8725 L 11494,8725 11494,8212 11104,8212 12258,7546 12257,9786 10801,10626 10802,8386 10981,8283 10981,8725 Z M 11479,8227 L 11479,8710 10996,8710 10996,8274 11078,8227 11479,8227 Z"/>
     <path fill="rgb(137,137,137)" stroke="none" d="M 10996,8710 L 11479,8710 11479,8227 11078,8227 12258,7546 12257,9786 10801,10626 10802,8386 10996,8274 10996,8710 Z M 11464,8242 L 11464,8695 11011,8695 11011,8265 11052,8242 11464,8242 Z"/>
     <path fill="rgb(138,138,138)" stroke="none" d="M 11011,8695 L 11464,8695 11464,8242 11052,8242 12258,7546 12257,9786 10801,10626 10802,8386 11011,8265 11011,8695 Z M 11026,8257 L 11449,8257 11449,8680 11026,8680 11026,8257 Z"/>
     <path fill="rgb(139,139,139)" stroke="none" d="M 11026,8257 L 11026,8680 11449,8680 11449,8257 11026,8257 Z M 11042,8273 L 11433,8273 11433,8664 11042,8664 11042,8273 Z M 10801,10626 L 10802,8386 12258,7546 12257,9786 10801,10626 Z"/>
     <path fill="rgb(140,140,140)" stroke="none" d="M 11042,8273 L 11042,8664 11433,8664 11433,8273 11042,8273 Z M 11057,8288 L 11418,8288 11418,8649 11057,8649 11057,8288 Z M 10801,10626 L 10802,8386 12258,7546 12257,9786 10801,10626 Z"/>
     <path fill="rgb(141,141,141)" stroke="none" d="M 11057,8288 L 11057,8649 11418,8649 11418,8288 11057,8288 Z M 11072,8303 L 11403,8303 11403,8634 11072,8634 11072,8303 Z M 10801,10626 L 10802,8386 12258,7546 12257,9786 10801,10626 Z"/>
     <path fill="rgb(142,142,142)" stroke="none" d="M 11072,8303 L 11072,8634 11403,8634 11403,8303 11072,8303 Z M 11087,8318 L 11388,8318 11388,8619 11087,8619 11087,8318 Z M 10801,10626 L 10802,8386 12258,7546 12257,9786 10801,10626 Z"/>
     <path fill="rgb(143,143,143)" stroke="none" d="M 11087,8318 L 11087,8619 11388,8619 11388,8318 11087,8318 Z M 11102,8333 L 11373,8333 11373,8604 11102,8604 11102,8333 Z M 10801,10626 L 10802,8386 12258,7546 12257,9786 10801,10626 Z"/>
     <path fill="rgb(144,144,144)" stroke="none" d="M 11102,8333 L 11102,8604 11373,8604 11373,8333 11102,8333 Z M 11117,8348 L 11358,8348 11358,8589 11117,8589 11117,8348 Z M 10801,10626 L 10802,8386 12258,7546 12257,9786 10801,10626 Z"/>
     <path fill="rgb(145,145,145)" stroke="none" d="M 11117,8348 L 11117,8589 11358,8589 11358,8348 11117,8348 Z M 11132,8363 L 11343,8363 11343,8574 11132,8574 11132,8363 Z M 10801,10626 L 10802,8386 12258,7546 12257,9786 10801,10626 Z"/>
     <path fill="rgb(146,146,146)" stroke="none" d="M 11132,8363 L 11132,8574 11343,8574 11343,8363 11132,8363 Z M 11147,8378 L 11328,8378 11328,8559 11147,8559 11147,8378 Z M 10801,10626 L 10802,8386 12258,7546 12257,9786 10801,10626 Z"/>
     <path fill="rgb(147,147,147)" stroke="none" d="M 11147,8378 L 11147,8559 11328,8559 11328,8378 11147,8378 Z M 11162,8393 L 11313,8393 11313,8544 11162,8544 11162,8393 Z M 10801,10626 L 10802,8386 12258,7546 12257,9786 10801,10626 Z"/>
     <path fill="rgb(148,148,148)" stroke="none" d="M 11162,8393 L 11162,8544 11313,8544 11313,8393 11162,8393 Z M 11178,8409 L 11297,8409 11297,8528 11178,8528 11178,8409 Z M 10801,10626 L 10802,8386 12258,7546 12257,9786 10801,10626 Z"/>
     <path fill="rgb(149,149,149)" stroke="none" d="M 11178,8409 L 11178,8528 11297,8528 11297,8409 11178,8409 Z M 11193,8424 L 11282,8424 11282,8513 11193,8513 11193,8424 Z M 10801,10626 L 10802,8386 12258,7546 12257,9786 10801,10626 Z"/>
     <path fill="rgb(150,150,150)" stroke="none" d="M 11193,8424 L 11193,8513 11282,8513 11282,8424 11193,8424 Z M 11208,8439 L 11267,8439 11267,8498 11208,8498 11208,8439 Z M 10801,10626 L 10802,8386 12258,7546 12257,9786 10801,10626 Z"/>
     <path fill="rgb(151,151,151)" stroke="none" d="M 11208,8439 L 11208,8498 11267,8498 11267,8439 11208,8439 Z M 11223,8454 L 11252,8454 11252,8483 11223,8483 11223,8454 Z M 10801,10626 L 10802,8386 12258,7546 12257,9786 10801,10626 Z"/>
     <path fill="rgb(153,153,153)" stroke="none" d="M 11223,8454 L 11223,8483 11252,8483 11252,8454 11223,8454 Z M 10801,10626 L 10802,8386 12258,7546 12257,9786 10801,10626 Z"/>
     <path fill="none" stroke="rgb(178,178,178)" id="Drawing_3_0" stroke-width="40" stroke-linejoin="round" d="M 10801,10626 L 10802,8386 12258,7546 12257,9786 10801,10626 Z"/>
    </g>
    <g>
     <defs>
      <linearGradient id="Gradient_697" gradientUnits="userSpaceOnUse" x1="11044" y1="6986" x2="11044" y2="8386">
       <stop offset="0.1" stop-color="rgb(51,51,51)"/>
       <stop offset="1" stop-color="rgb(153,153,153)"/>
      </linearGradient>
     </defs>
     <path fill="url(#Gradient_697)" stroke="rgb(178,178,178)" id="Drawing_4_0" stroke-width="40" stroke-linejoin="round" d="M 10802,8386 L 9832,7826 11287,6986 12257,7546 10802,8386 Z"/>
    </g>
    <g>
     <path fill="none" stroke="rgb(0,0,0)" id="Drawing_5_0" stroke-width="40" stroke-linejoin="round" d="M 9832,10066 L 9833,7826 11289,6986 12258,7546 12257,9786 10801,10626 9832,10066 Z"/>
    </g>
    <g>
     <path fill="rgb(57,181,74)" stroke="none" d="M 10559,8526 L 10559,8386 10680,8456 10680,8596 10559,8526 Z"/>
     <path fill="none" stroke="rgb(102,102,102)" id="Drawing_6_0" stroke-width="40" stroke-linejoin="round" d="M 10559,8526 L 10559,8386 10680,8456 10680,8596 10559,8526 Z"/>
    </g>
    <g>
     <path fill="rgb(209,97,108)" stroke="none" d="M 10317,8386 L 10317,8246 10439,8316 10439,8456 10317,8386 Z"/>
     <path fill="none" stroke="rgb(102,102,102)" id="Drawing_7_0" stroke-width="40" stroke-linejoin="round" d="M 10317,8386 L 10317,8246 10439,8316 10439,8456 10317,8386 Z"/>
    </g>
    <g>
     <path fill="rgb(0,0,0)" stroke="none" d="M 10074,10066 L 10074,9716 10195,9786 10195,10136 10074,10066 Z"/>
     <path fill="none" stroke="rgb(178,178,178)" id="Drawing_8_0" stroke-width="40" stroke-linejoin="round" d="M 10074,10066 L 10074,9716 10195,9786 10195,10136 10074,10066 Z"/>
    </g>
    <g>
     <path fill="rgb(0,0,0)" stroke="none" d="M 10317,9786 L 10317,9436 10438,9506 10438,9856 10317,9786 Z"/>
     <path fill="none" stroke="rgb(178,178,178)" id="Drawing_9_0" stroke-width="40" stroke-linejoin="round" d="M 10317,9786 L 10317,9436 10438,9506 10438,9856 10317,9786 Z"/>
    </g>
    <g>
     <path fill="rgb(0,0,0)" stroke="none" d="M 10074,9086 L 10074,8876 10195,8946 10195,9156 10074,9086 Z"/>
     <path fill="none" stroke="rgb(178,178,178)" id="Drawing_10_0" stroke-width="40" stroke-linejoin="round" d="M 10074,9086 L 10074,8876 10195,8946 10195,9156 10074,9086 Z"/>
    </g>
    <g>
     <path fill="rgb(0,0,0)" stroke="none" d="M 10074,8736 L 10074,8596 10195,8666 10195,8806 10074,8736 Z"/>
     <path fill="none" stroke="rgb(178,178,178)" id="Drawing_11_0" stroke-width="40" stroke-linejoin="round" d="M 10074,8736 L 10074,8596 10195,8666 10195,8806 10074,8736 Z"/>
    </g>
    <g>
     <path fill="rgb(0,0,0)" stroke="none" d="M 10074,9646 L 10074,9296 10195,9366 10195,9716 10074,9646 Z"/>
     <path fill="none" stroke="rgb(178,178,178)" id="Drawing_12_0" stroke-width="40" stroke-linejoin="round" d="M 10074,9646 L 10074,9296 10195,9366 10195,9716 10074,9646 Z"/>
    </g>
    <g>
     <path fill="rgb(0,0,0)" stroke="none" d="M 10317,10206 L 10317,9856 10438,9926 10438,10276 10317,10206 Z"/>
     <path fill="none" stroke="rgb(178,178,178)" id="Drawing_13_0" stroke-width="40" stroke-linejoin="round" d="M 10317,10206 L 10317,9856 10438,9926 10438,10276 10317,10206 Z"/>
    </g>
    <g>
     <path fill="rgb(0,0,0)" stroke="none" d="M 10317,9226 L 10317,9016 10438,9086 10438,9296 10317,9226 Z"/>
     <path fill="none" stroke="rgb(178,178,178)" id="Drawing_14_0" stroke-width="40" stroke-linejoin="round" d="M 10317,9226 L 10317,9016 10438,9086 10438,9296 10317,9226 Z"/>
    </g>
    <g>
     <path fill="rgb(0,0,0)" stroke="none" d="M 10317,8876 L 10317,8736 10438,8806 10438,8946 10317,8876 Z"/>
     <path fill="none" stroke="rgb(178,178,178)" id="Drawing_15_0" stroke-width="40" stroke-linejoin="round" d="M 10317,8876 L 10317,8736 10438,8806 10438,8946 10317,8876 Z"/>
    </g>
   </g>
  </g>
 </g>
</svg>