<?xml version="1.0" encoding="UTF-8"?>

<svg version="1.2" baseProfile="tiny" width="28.09mm" height="36.8mm" viewBox="2631 2250 2809 3680" preserveAspectRatio="xMidYMid" fill-rule="evenodd" stroke-width="28.222" stroke-linejoin="round" xmlns="http://www.w3.org/2000/svg" xmlns:xlink="http://www.w3.org/1999/xlink" xml:space="preserve">
 <g visibility="visible" id="Slide_1">
  <g id="DrawingGroup_1">
   <g>
    <path fill="rgb(221,221,221)" stroke="none" d="M 4106,5630 C 4341,5630 5258,5302 5405,5186 5552,5070 5188,4790 5063,4790 5063,4938 4106,5382 4106,5630 Z"/>
    <path fill="none" stroke="rgb(221,221,221)" id="Drawing_1_0" stroke-linejoin="round" d="M 4106,5630 C 4341,5630 5258,5302 5405,5186 5552,5070 5188,4790 5063,4790 5063,4938 4106,5382 4106,5630 Z"/>
   </g>
   <g id="DrawingGroup_2">
    <g>
     <defs>
      <linearGradient id="Gradient_694" gradientUnits="userSpaceOnUse" x1="2649" y1="4509" x2="3623" y2="4511">
       <stop offset="0.1" stop-color="rgb(179,179,179)"/>
       <stop offset="1" stop-color="rgb(229,229,229)"/>
      </linearGradient>
     </defs>
     <path fill="url(#Gradient_694)" stroke="rgb(255,255,255)" id="Drawing_2_0" stroke-width="40" stroke-linejoin="round" d="M 2651,5350 L 2651,3110 3621,3670 3621,5910 2651,5350 Z"/>
    </g>
    <g>
     <path fill="rgb(179,179,179)" stroke="none" d="M 3620,5263 L 3621,3670 5077,2830 5076,5070 4741,5263 3620,5263 Z"/>
     <path fill="rgb(180,180,180)" stroke="none" d="M 4741,5263 L 3620,5910 3620,5263 4741,5263 Z M 3620,5232 L 3621,3670 5077,2830 5076,5070 4795,5232 3620,5232 Z"/>
     <path fill="rgb(181,181,181)" stroke="none" d="M 4795,5232 L 3620,5910 3620,5232 4795,5232 Z M 3620,5201 L 3621,3670 5077,2830 5076,5070 4849,5201 3620,5201 Z"/>
     <path fill="rgb(182,182,182)" stroke="none" d="M 4849,5201 L 3620,5910 3620,5201 4849,5201 Z M 3620,5170 L 3621,3670 5077,2830 5076,5070 4903,5170 3620,5170 Z"/>
     <path fill="rgb(183,183,183)" stroke="none" d="M 4903,5170 L 3620,5910 3620,5170 4903,5170 Z M 3620,5139 L 3621,3670 5077,2830 5076,5070 4956,5139 3620,5139 Z"/>
     <path fill="rgb(184,184,184)" stroke="none" d="M 4956,5139 L 3620,5910 3620,5139 4956,5139 Z M 3620,5109 L 3621,3670 5077,2830 5076,5070 5008,5109 3620,5109 Z"/>
     <path fill="rgb(185,185,185)" stroke="none" d="M 5008,5109 L 3620,5910 3620,5109 5008,5109 Z M 3620,5078 L 3621,3670 5077,2830 5076,5070 5062,5078 3620,5078 Z"/>
     <path fill="rgb(186,186,186)" stroke="none" d="M 5062,5078 L 3620,5910 3620,5078 5062,5078 Z M 3620,5047 L 3621,3670 5077,2830 5076,5047 3620,5047 Z"/>
     <path fill="rgb(187,187,187)" stroke="none" d="M 5076,5047 L 5076,5070 3620,5910 3620,5047 5076,5047 Z M 3620,5016 L 3621,3670 5077,2830 5076,5016 3620,5016 Z"/>
     <path fill="rgb(188,188,188)" stroke="none" d="M 5076,5016 L 5076,5070 3620,5910 3620,5016 5076,5016 Z M 3620,4985 L 3621,3670 5077,2830 5076,4985 3620,4985 Z"/>
     <path fill="rgb(189,189,189)" stroke="none" d="M 5076,4985 L 5076,5070 3620,5910 3620,4985 5076,4985 Z M 3620,4954 L 3621,3670 5077,2830 5076,4954 3620,4954 Z"/>
     <path fill="rgb(190,190,190)" stroke="none" d="M 5076,4954 L 5076,5070 3620,5910 3620,4954 5076,4954 Z M 3620,4924 L 3621,3670 5077,2830 5076,4924 3620,4924 Z"/>
     <path fill="rgb(191,191,191)" stroke="none" d="M 5076,4924 L 5076,5070 3620,5910 3620,4924 5076,4924 Z M 3620,4893 L 3621,3670 5077,2830 5076,4893 3620,4893 Z"/>
     <path fill="rgb(192,192,192)" stroke="none" d="M 5076,4893 L 5076,5070 3620,5910 3620,4893 5076,4893 Z M 3620,4862 L 3621,3670 5077,2830 5076,4862 3620,4862 Z"/>
     <path fill="rgb(193,193,193)" stroke="none" d="M 5076,4862 L 5076,5070 3620,5910 3620,4862 5076,4862 Z M 3620,4831 L 3621,3670 5077,2830 5076,4831 3620,4831 Z"/>
     <path fill="rgb(194,194,194)" stroke="none" d="M 5076,4831 L 5076,5070 3620,5910 3620,4831 5076,4831 Z M 3620,4800 L 3621,3670 5077,2830 5076,4800 3620,4800 Z"/>
     <path fill="rgb(195,195,195)" stroke="none" d="M 5076,4800 L 5076,5070 3620,5910 3620,4800 5076,4800 Z M 5073,4769 L 3621,4769 3621,3670 5073,2832 5073,4769 Z"/>
     <path fill="rgb(196,196,196)" stroke="none" d="M 5073,4769 L 5073,2832 5077,2830 5076,5070 3620,5910 3621,4769 5073,4769 Z M 5043,4739 L 3621,4739 3621,3670 5043,2850 5043,4739 Z"/>
     <path fill="rgb(197,197,197)" stroke="none" d="M 5043,4739 L 5043,2850 5077,2830 5076,5070 3620,5910 3621,4739 5043,4739 Z M 5012,4708 L 3621,4708 3621,3670 5012,2868 5012,4708 Z"/>
     <path fill="rgb(198,198,198)" stroke="none" d="M 5012,4708 L 5012,2868 5077,2830 5076,5070 3620,5910 3621,4708 5012,4708 Z M 4981,4677 L 3621,4677 3621,3670 4981,2885 4981,4677 Z"/>
     <path fill="rgb(199,199,199)" stroke="none" d="M 4981,4677 L 4981,2885 5077,2830 5076,5070 3620,5910 3621,4677 4981,4677 Z M 4950,4646 L 3621,4646 3621,3670 4950,2903 4950,4646 Z"/>
     <path fill="rgb(200,200,200)" stroke="none" d="M 4950,4646 L 4950,2903 5077,2830 5076,5070 3620,5910 3621,4646 4950,4646 Z M 4919,4615 L 3621,4615 3621,3670 4919,2921 4919,4615 Z"/>
     <path fill="rgb(201,201,201)" stroke="none" d="M 4919,4615 L 4919,2921 5077,2830 5076,5070 3620,5910 3621,4615 4919,4615 Z M 4888,4584 L 3621,4584 3621,3670 4888,2939 4888,4584 Z"/>
     <path fill="rgb(202,202,202)" stroke="none" d="M 4888,4584 L 4888,2939 5077,2830 5076,5070 3620,5910 3621,4584 4888,4584 Z M 4858,4554 L 3621,4554 3621,3670 4858,2956 4858,4554 Z"/>
     <path fill="rgb(203,203,203)" stroke="none" d="M 4858,4554 L 4858,2956 5077,2830 5076,5070 3620,5910 3621,4554 4858,4554 Z M 4827,2982 L 4827,4523 3621,4523 3621,3670 4814,2982 4827,2982 Z"/>
     <path fill="rgb(204,204,204)" stroke="none" d="M 4827,4523 L 4827,2982 4814,2982 5077,2830 5076,5070 3620,5910 3621,4523 4827,4523 Z M 4796,3013 L 4796,4492 3621,4492 3621,3670 4760,3013 4796,3013 Z"/>
     <path fill="rgb(205,205,205)" stroke="none" d="M 4796,4492 L 4796,3013 4760,3013 5077,2830 5076,5070 3620,5910 3621,4492 4796,4492 Z M 4765,3044 L 4765,4461 3621,4461 3621,3670 4706,3044 4765,3044 Z"/>
     <path fill="rgb(206,206,206)" stroke="none" d="M 4765,4461 L 4765,3044 4706,3044 5077,2830 5076,5070 3620,5910 3621,4461 4765,4461 Z M 4734,3075 L 4734,4430 3621,4430 3621,3670 4652,3075 4734,3075 Z"/>
     <path fill="rgb(207,207,207)" stroke="none" d="M 4734,4430 L 4734,3075 4652,3075 5077,2830 5076,5070 3620,5910 3621,4430 4734,4430 Z M 4703,3106 L 4703,4399 3621,4399 3621,3670 4599,3106 4703,3106 Z"/>
     <path fill="rgb(208,208,208)" stroke="none" d="M 4703,4399 L 4703,3106 4599,3106 5077,2830 5076,5070 3620,5910 3621,4399 4703,4399 Z M 4673,3136 L 4673,4369 3621,4369 3621,3670 4547,3136 4673,3136 Z"/>
     <path fill="rgb(209,209,209)" stroke="none" d="M 4673,4369 L 4673,3136 4547,3136 5077,2830 5076,5070 3620,5910 3621,4369 4673,4369 Z M 4642,3167 L 4642,4338 3621,4338 3621,3670 4493,3167 4642,3167 Z"/>
     <path fill="rgb(210,210,210)" stroke="none" d="M 4642,4338 L 4642,3167 4493,3167 5077,2830 5076,5070 3620,5910 3621,4338 4642,4338 Z M 4611,3198 L 4611,4307 3621,4307 3621,3670 4439,3198 4611,3198 Z"/>
     <path fill="rgb(211,211,211)" stroke="none" d="M 4611,4307 L 4611,3198 4439,3198 5077,2830 5076,5070 3620,5910 3621,4307 4611,4307 Z M 4580,3229 L 4580,4276 3621,4276 3621,3670 4385,3229 4580,3229 Z"/>
     <path fill="rgb(212,212,212)" stroke="none" d="M 4580,4276 L 4580,3229 4385,3229 5077,2830 5076,5070 3620,5910 3621,4276 4580,4276 Z M 4549,3260 L 4549,4245 3621,4245 3621,3670 4332,3260 4549,3260 Z"/>
     <path fill="rgb(213,213,213)" stroke="none" d="M 4549,4245 L 4549,3260 4332,3260 5077,2830 5076,5070 3620,5910 3621,4245 4549,4245 Z M 4518,3291 L 4518,4214 3621,4214 3621,3670 4278,3291 4518,3291 Z"/>
     <path fill="rgb(214,214,214)" stroke="none" d="M 4518,4214 L 4518,3291 4278,3291 5077,2830 5076,5070 3620,5910 3621,4214 4518,4214 Z M 4488,3321 L 4488,4184 3625,4184 3625,3668 4226,3321 4488,3321 Z"/>
     <path fill="rgb(215,215,215)" stroke="none" d="M 3625,4184 L 4488,4184 4488,3321 4226,3321 5077,2830 5076,5070 3620,5910 3621,3670 3625,3668 3625,4184 Z M 4457,3352 L 4457,4153 3656,4153 3656,3650 4172,3352 4457,3352 Z"/>
     <path fill="rgb(216,216,216)" stroke="none" d="M 3656,4153 L 4457,4153 4457,3352 4172,3352 5077,2830 5076,5070 3620,5910 3621,3670 3656,3650 3656,4153 Z M 4426,3383 L 4426,4122 3687,4122 3687,3632 4118,3383 4426,3383 Z"/>
     <path fill="rgb(217,217,217)" stroke="none" d="M 3687,4122 L 4426,4122 4426,3383 4118,3383 5077,2830 5076,5070 3620,5910 3621,3670 3687,3632 3687,4122 Z M 4395,3414 L 4395,4091 3718,4091 3718,3614 4065,3414 4395,3414 Z"/>
     <path fill="rgb(218,218,218)" stroke="none" d="M 3718,4091 L 4395,4091 4395,3414 4065,3414 5077,2830 5076,5070 3620,5910 3621,3670 3718,3614 3718,4091 Z M 4364,3445 L 4364,4060 3749,4060 3749,3596 4011,3445 4364,3445 Z"/>
     <path fill="rgb(219,219,219)" stroke="none" d="M 3749,4060 L 4364,4060 4364,3445 4011,3445 5077,2830 5076,5070 3620,5910 3621,3670 3749,3596 3749,4060 Z M 4333,3476 L 4333,4029 3780,4029 3780,3578 3957,3476 4333,3476 Z"/>
     <path fill="rgb(220,220,220)" stroke="none" d="M 3780,4029 L 4333,4029 4333,3476 3957,3476 5077,2830 5076,5070 3620,5910 3621,3670 3780,3578 3780,4029 Z M 4303,3506 L 4303,3999 3810,3999 3810,3561 3905,3506 4303,3506 Z"/>
     <path fill="rgb(221,221,221)" stroke="none" d="M 3810,3999 L 4303,3999 4303,3506 3905,3506 5077,2830 5076,5070 3620,5910 3621,3670 3810,3561 3810,3999 Z M 4272,3537 L 4272,3968 3841,3968 3841,3543 3852,3537 4272,3537 Z"/>
     <path fill="rgb(222,222,222)" stroke="none" d="M 3841,3968 L 4272,3968 4272,3537 3852,3537 5077,2830 5076,5070 3620,5910 3621,3670 3841,3543 3841,3968 Z M 3872,3568 L 4241,3568 4241,3937 3872,3937 3872,3568 Z"/>
     <path fill="rgb(223,223,223)" stroke="none" d="M 3872,3568 L 3872,3937 4241,3937 4241,3568 3872,3568 Z M 3903,3599 L 4210,3599 4210,3906 3903,3906 3903,3599 Z M 3620,5910 L 3621,3670 5077,2830 5076,5070 3620,5910 Z"/>
     <path fill="rgb(224,224,224)" stroke="none" d="M 3903,3599 L 3903,3906 4210,3906 4210,3599 3903,3599 Z M 3934,3630 L 4179,3630 4179,3875 3934,3875 3934,3630 Z M 3620,5910 L 3621,3670 5077,2830 5076,5070 3620,5910 Z"/>
     <path fill="rgb(225,225,225)" stroke="none" d="M 3934,3630 L 3934,3875 4179,3875 4179,3630 3934,3630 Z M 3965,3661 L 4148,3661 4148,3844 3965,3844 3965,3661 Z M 3620,5910 L 3621,3670 5077,2830 5076,5070 3620,5910 Z"/>
     <path fill="rgb(226,226,226)" stroke="none" d="M 3965,3661 L 3965,3844 4148,3844 4148,3661 3965,3661 Z M 3995,3691 L 4118,3691 4118,3814 3995,3814 3995,3691 Z M 3620,5910 L 3621,3670 5077,2830 5076,5070 3620,5910 Z"/>
     <path fill="rgb(227,227,227)" stroke="none" d="M 3995,3691 L 3995,3814 4118,3814 4118,3691 3995,3691 Z M 4026,3722 L 4087,3722 4087,3783 4026,3783 4026,3722 Z M 3620,5910 L 3621,3670 5077,2830 5076,5070 3620,5910 Z"/>
     <path fill="rgb(229,229,229)" stroke="none" d="M 4026,3722 L 4026,3783 4087,3783 4087,3722 4026,3722 Z M 3620,5910 L 3621,3670 5077,2830 5076,5070 3620,5910 Z"/>
     <path fill="none" stroke="rgb(255,255,255)" id="Drawing_3_0" stroke-width="40" stroke-linejoin="round" d="M 3620,5910 L 3621,3670 5077,2830 5076,5070 3620,5910 Z"/>
    </g>
    <g>
     <defs>
      <linearGradient id="Gradient_695" gradientUnits="userSpaceOnUse" x1="3863" y1="2270" x2="3863" y2="3670">
       <stop offset="0.1" stop-color="rgb(179,179,179)"/>
       <stop offset="1" stop-color="rgb(229,229,229)"/>
      </linearGradient>
     </defs>
     <path fill="url(#Gradient_695)" stroke="rgb(255,255,255)" id="Drawing_4_0" stroke-width="40" stroke-linejoin="round" d="M 3621,3670 L 2651,3110 4106,2270 5076,2830 3621,3670 Z"/>
    </g>
    <g>
     <path fill="none" stroke="rgb(0,0,0)" id="Drawing_5_0" stroke-width="40" stroke-linejoin="round" d="M 2651,5350 L 2652,3110 4108,2270 5077,2830 5076,5070 3620,5910 2651,5350 Z"/>
    </g>
    <g>
     <path fill="rgb(57,181,74)" stroke="none" d="M 3378,3810 L 3378,3670 3499,3740 3499,3880 3378,3810 Z"/>
     <path fill="none" stroke="rgb(127,127,127)" id="Drawing_6_0" stroke-width="40" stroke-linejoin="round" d="M 3378,3810 L 3378,3670 3499,3740 3499,3880 3378,3810 Z"/>
    </g>
    <g>
     <path fill="rgb(209,97,108)" stroke="none" d="M 3136,3670 L 3136,3530 3258,3600 3258,3740 3136,3670 Z"/>
     <path fill="none" stroke="rgb(127,127,127)" id="Drawing_7_0" stroke-width="40" stroke-linejoin="round" d="M 3136,3670 L 3136,3530 3258,3600 3258,3740 3136,3670 Z"/>
    </g>
    <g>
     <path fill="rgb(0,0,0)" stroke="none" d="M 2893,5350 L 2893,5000 3014,5070 3014,5420 2893,5350 Z"/>
     <path fill="none" stroke="rgb(102,102,102)" id="Drawing_8_0" stroke-width="40" stroke-linejoin="round" d="M 2893,5350 L 2893,5000 3014,5070 3014,5420 2893,5350 Z"/>
    </g>
    <g>
     <path fill="rgb(0,0,0)" stroke="none" d="M 3136,5070 L 3136,4720 3257,4790 3257,5140 3136,5070 Z"/>
     <path fill="none" stroke="rgb(102,102,102)" id="Drawing_9_0" stroke-width="40" stroke-linejoin="round" d="M 3136,5070 L 3136,4720 3257,4790 3257,5140 3136,5070 Z"/>
    </g>
    <g>
     <path fill="rgb(0,0,0)" stroke="none" d="M 2893,4370 L 2893,4160 3014,4230 3014,4440 2893,4370 Z"/>
     <path fill="none" stroke="rgb(102,102,102)" id="Drawing_10_0" stroke-width="40" stroke-linejoin="round" d="M 2893,4370 L 2893,4160 3014,4230 3014,4440 2893,4370 Z"/>
    </g>
    <g>
     <path fill="rgb(0,0,0)" stroke="none" d="M 2893,4020 L 2893,3880 3014,3950 3014,4090 2893,4020 Z"/>
     <path fill="none" stroke="rgb(102,102,102)" id="Drawing_11_0" stroke-width="40" stroke-linejoin="round" d="M 2893,4020 L 2893,3880 3014,3950 3014,4090 2893,4020 Z"/>
    </g>
    <g>
     <path fill="rgb(0,0,0)" stroke="none" d="M 2893,4930 L 2893,4580 3014,4650 3014,5000 2893,4930 Z"/>
     <path fill="none" stroke="rgb(102,102,102)" id="Drawing_12_0" stroke-width="40" stroke-linejoin="round" d="M 2893,4930 L 2893,4580 3014,4650 3014,5000 2893,4930 Z"/>
    </g>
    <g>
     <path fill="rgb(0,0,0)" stroke="none" d="M 3136,5490 L 3136,5140 3257,5210 3257,5560 3136,5490 Z"/>
     <path fill="none" stroke="rgb(102,102,102)" id="Drawing_13_0" stroke-width="40" stroke-linejoin="round" d="M 3136,5490 L 3136,5140 3257,5210 3257,5560 3136,5490 Z"/>
    </g>
    <g>
     <path fill="rgb(0,0,0)" stroke="none" d="M 3136,4510 L 3136,4300 3257,4370 3257,4580 3136,4510 Z"/>
     <path fill="none" stroke="rgb(102,102,102)" id="Drawing_14_0" stroke-width="40" stroke-linejoin="round" d="M 3136,4510 L 3136,4300 3257,4370 3257,4580 3136,4510 Z"/>
    </g>
    <g>
     <path fill="rgb(0,0,0)" stroke="none" d="M 3136,4160 L 3136,4020 3257,4090 3257,4230 3136,4160 Z"/>
     <path fill="none" stroke="rgb(102,102,102)" id="Drawing_15_0" stroke-width="40" stroke-linejoin="round" d="M 3136,4160 L 3136,4020 3257,4090 3257,4230 3136,4160 Z"/>
    </g>
   </g>
  </g>
 </g>
</svg>