<?xml version="1.0" encoding="UTF-8"?>

<svg version="1.2" baseProfile="tiny" width="30.52mm" height="42.45mm" viewBox="9313 11409 3052 4245" preserveAspectRatio="xMidYMid" fill-rule="evenodd" stroke-width="28.222" stroke-linejoin="round" xmlns="http://www.w3.org/2000/svg" xmlns:xlink="http://www.w3.org/1999/xlink" xml:space="preserve">
 <g visibility="visible" id="Slide_1">
  <g id="DrawingGroup_1">
   <g>
    <path fill="rgb(221,221,221)" stroke="none" d="M 11152,15634 C 11485,15634 12364,15494 12364,15284 12364,15073 12212,14723 11879,14723 11879,14933 11152,15284 11152,15634 Z"/>
    <path fill="none" stroke="rgb(221,221,221)" id="Drawing_1_0" stroke-linejoin="round" d="M 11152,15634 C 11485,15634 12364,15494 12364,15284 12364,15073 12212,14723 11879,14723 11879,14933 11152,15284 11152,15634 Z"/>
   </g>
   <g id="DrawingGroup_2">
    <g>
     <defs>
      <linearGradient id="Gradient_701" gradientUnits="userSpaceOnUse" x1="9329" y1="13704" x2="11154" y2="13708">
       <stop offset="0.1" stop-color="rgb(51,51,51)"/>
       <stop offset="1" stop-color="rgb(153,153,153)"/>
      </linearGradient>
     </defs>
     <path fill="url(#Gradient_701)" stroke="rgb(178,178,178)" id="Drawing_2_0" stroke-width="40" stroke-linejoin="round" d="M 9333,14582 L 9333,11779 11152,12830 11152,15633 9333,14582 Z"/>
    </g>
    <g>
     <path fill="rgb(51,51,51)" stroke="none" d="M 11152,14988 L 11152,12830 11758,12480 11758,14988 11152,14988 Z"/>
     <path fill="rgb(52,52,52)" stroke="none" d="M 11758,14988 L 11758,15283 11152,15634 11152,14988 11758,14988 Z M 11152,14973 L 11152,12830 11758,12480 11758,14973 11152,14973 Z"/>
     <path fill="rgb(53,53,53)" stroke="none" d="M 11758,14973 L 11758,15283 11152,15634 11152,14973 11758,14973 Z M 11152,14957 L 11152,12830 11758,12480 11758,14957 11152,14957 Z"/>
     <path fill="rgb(54,54,54)" stroke="none" d="M 11758,14957 L 11758,15283 11152,15634 11152,14957 11758,14957 Z M 11152,14942 L 11152,12830 11758,12480 11758,14942 11152,14942 Z"/>
     <path fill="rgb(55,55,55)" stroke="none" d="M 11758,14942 L 11758,15283 11152,15634 11152,14942 11758,14942 Z M 11152,14926 L 11152,12830 11758,12480 11758,14926 11152,14926 Z"/>
     <path fill="rgb(56,56,56)" stroke="none" d="M 11758,14926 L 11758,15283 11152,15634 11152,14926 11758,14926 Z M 11152,14911 L 11152,12830 11758,12480 11758,14911 11152,14911 Z"/>
     <path fill="rgb(57,57,57)" stroke="none" d="M 11758,14911 L 11758,15283 11152,15634 11152,14911 11758,14911 Z M 11152,14895 L 11152,12830 11758,12480 11758,14895 11152,14895 Z"/>
     <path fill="rgb(58,58,58)" stroke="none" d="M 11758,14895 L 11758,15283 11152,15634 11152,14895 11758,14895 Z M 11152,14880 L 11152,12830 11758,12480 11758,14880 11152,14880 Z"/>
     <path fill="rgb(59,59,59)" stroke="none" d="M 11758,14880 L 11758,15283 11152,15634 11152,14880 11758,14880 Z M 11152,14864 L 11152,12830 11758,12480 11758,14864 11152,14864 Z"/>
     <path fill="rgb(60,60,60)" stroke="none" d="M 11758,14864 L 11758,15283 11152,15634 11152,14864 11758,14864 Z M 11152,14849 L 11152,12830 11758,12480 11758,14849 11152,14849 Z"/>
     <path fill="rgb(61,61,61)" stroke="none" d="M 11758,14849 L 11758,15283 11152,15634 11152,14849 11758,14849 Z M 11152,14833 L 11152,12830 11758,12480 11758,14833 11152,14833 Z"/>
     <path fill="rgb(62,62,62)" stroke="none" d="M 11758,14833 L 11758,15283 11152,15634 11152,14833 11758,14833 Z M 11152,14818 L 11152,12830 11758,12480 11758,14818 11152,14818 Z"/>
     <path fill="rgb(63,63,63)" stroke="none" d="M 11758,14818 L 11758,15283 11152,15634 11152,14818 11758,14818 Z M 11152,14802 L 11152,12830 11758,12480 11758,14802 11152,14802 Z"/>
     <path fill="rgb(64,64,64)" stroke="none" d="M 11758,14802 L 11758,15283 11152,15634 11152,14802 11758,14802 Z M 11152,14787 L 11152,12830 11758,12480 11758,14787 11152,14787 Z"/>
     <path fill="rgb(65,65,65)" stroke="none" d="M 11758,14787 L 11758,15283 11152,15634 11152,14787 11758,14787 Z M 11152,14771 L 11152,12830 11758,12480 11758,14771 11152,14771 Z"/>
     <path fill="rgb(66,66,66)" stroke="none" d="M 11758,14771 L 11758,15283 11152,15634 11152,14771 11758,14771 Z M 11152,14756 L 11152,12830 11758,12480 11758,14756 11152,14756 Z"/>
     <path fill="rgb(67,67,67)" stroke="none" d="M 11758,14756 L 11758,15283 11152,15634 11152,14756 11758,14756 Z M 11152,14740 L 11152,12830 11758,12480 11758,14740 11152,14740 Z"/>
     <path fill="rgb(68,68,68)" stroke="none" d="M 11758,14740 L 11758,15283 11152,15634 11152,14740 11758,14740 Z M 11152,14725 L 11152,12830 11758,12480 11758,14725 11152,14725 Z"/>
     <path fill="rgb(69,69,69)" stroke="none" d="M 11758,14725 L 11758,15283 11152,15634 11152,14725 11758,14725 Z M 11152,14709 L 11152,12830 11758,12480 11758,14709 11152,14709 Z"/>
     <path fill="rgb(70,70,70)" stroke="none" d="M 11758,14709 L 11758,15283 11152,15634 11152,14709 11758,14709 Z M 11152,14694 L 11152,12830 11758,12480 11758,14694 11152,14694 Z"/>
     <path fill="rgb(71,71,71)" stroke="none" d="M 11758,14694 L 11758,15283 11152,15634 11152,14694 11758,14694 Z M 11152,14679 L 11152,12830 11758,12480 11758,14679 11152,14679 Z"/>
     <path fill="rgb(72,72,72)" stroke="none" d="M 11758,14679 L 11758,15283 11152,15634 11152,14679 11758,14679 Z M 11152,14663 L 11152,12830 11758,12480 11758,14663 11152,14663 Z"/>
     <path fill="rgb(73,73,73)" stroke="none" d="M 11758,14663 L 11758,15283 11152,15634 11152,14663 11758,14663 Z M 11152,14648 L 11152,12830 11758,12480 11758,14648 11152,14648 Z"/>
     <path fill="rgb(74,74,74)" stroke="none" d="M 11758,14648 L 11758,15283 11152,15634 11152,14648 11758,14648 Z M 11152,14632 L 11152,12830 11758,12480 11758,14632 11152,14632 Z"/>
     <path fill="rgb(75,75,75)" stroke="none" d="M 11758,14632 L 11758,15283 11152,15634 11152,14632 11758,14632 Z M 11152,14617 L 11152,12830 11758,12480 11758,14617 11152,14617 Z"/>
     <path fill="rgb(76,76,76)" stroke="none" d="M 11758,14617 L 11758,15283 11152,15634 11152,14617 11758,14617 Z M 11152,14601 L 11152,12830 11758,12480 11758,14601 11152,14601 Z"/>
     <path fill="rgb(77,77,77)" stroke="none" d="M 11758,14601 L 11758,15283 11152,15634 11152,14601 11758,14601 Z M 11152,14586 L 11152,12830 11758,12480 11758,14586 11152,14586 Z"/>
     <path fill="rgb(78,78,78)" stroke="none" d="M 11758,14586 L 11758,15283 11152,15634 11152,14586 11758,14586 Z M 11152,14570 L 11152,12830 11758,12480 11758,14570 11152,14570 Z"/>
     <path fill="rgb(79,79,79)" stroke="none" d="M 11758,14570 L 11758,15283 11152,15634 11152,14570 11758,14570 Z M 11152,14555 L 11152,12830 11758,12480 11758,14555 11152,14555 Z"/>
     <path fill="rgb(80,80,80)" stroke="none" d="M 11758,14555 L 11758,15283 11152,15634 11152,14555 11758,14555 Z M 11152,14539 L 11152,12830 11758,12480 11758,14539 11152,14539 Z"/>
     <path fill="rgb(81,81,81)" stroke="none" d="M 11758,14539 L 11758,15283 11152,15634 11152,14539 11758,14539 Z M 11152,14524 L 11152,12830 11758,12480 11758,14524 11152,14524 Z"/>
     <path fill="rgb(82,82,82)" stroke="none" d="M 11758,14524 L 11758,15283 11152,15634 11152,14524 11758,14524 Z M 11152,14508 L 11152,12830 11758,12480 11758,14508 11152,14508 Z"/>
     <path fill="rgb(83,83,83)" stroke="none" d="M 11758,14508 L 11758,15283 11152,15634 11152,14508 11758,14508 Z M 11152,14493 L 11152,12830 11758,12480 11758,14493 11152,14493 Z"/>
     <path fill="rgb(84,84,84)" stroke="none" d="M 11758,14493 L 11758,15283 11152,15634 11152,14493 11758,14493 Z M 11152,14477 L 11152,12830 11758,12480 11758,14477 11152,14477 Z"/>
     <path fill="rgb(85,85,85)" stroke="none" d="M 11758,14477 L 11758,15283 11152,15634 11152,14477 11758,14477 Z M 11152,14462 L 11152,12830 11758,12480 11758,14462 11152,14462 Z"/>
     <path fill="rgb(86,86,86)" stroke="none" d="M 11758,14462 L 11758,15283 11152,15634 11152,14462 11758,14462 Z M 11152,14446 L 11152,12830 11758,12480 11758,14446 11152,14446 Z"/>
     <path fill="rgb(87,87,87)" stroke="none" d="M 11758,14446 L 11758,15283 11152,15634 11152,14446 11758,14446 Z M 11152,14431 L 11152,12830 11758,12480 11758,14431 11152,14431 Z"/>
     <path fill="rgb(88,88,88)" stroke="none" d="M 11758,14431 L 11758,15283 11152,15634 11152,14431 11758,14431 Z M 11152,14415 L 11152,12830 11758,12480 11758,14415 11152,14415 Z"/>
     <path fill="rgb(89,89,89)" stroke="none" d="M 11758,14415 L 11758,15283 11152,15634 11152,14415 11758,14415 Z M 11152,14400 L 11152,12830 11758,12480 11758,14400 11152,14400 Z"/>
     <path fill="rgb(90,90,90)" stroke="none" d="M 11758,14400 L 11758,15283 11152,15634 11152,14400 11758,14400 Z M 11152,14384 L 11152,12830 11758,12480 11758,14384 11152,14384 Z"/>
     <path fill="rgb(91,91,91)" stroke="none" d="M 11758,14384 L 11758,15283 11152,15634 11152,14384 11758,14384 Z M 11758,12482 L 11758,14369 11152,14369 11152,12830 11755,12482 11758,12482 Z"/>
     <path fill="rgb(92,92,92)" stroke="none" d="M 11758,14369 L 11758,15283 11152,15634 11152,14369 11758,14369 Z M 11755,12482 L 11758,12480 11758,12482 11755,12482 Z M 11758,12497 L 11758,14354 11152,14354 11152,12830 11729,12497 11758,12497 Z"/>
     <path fill="rgb(93,93,93)" stroke="none" d="M 11758,14354 L 11758,15283 11152,15634 11152,14354 11758,14354 Z M 11729,12497 L 11758,12480 11758,12497 11729,12497 Z M 11758,12513 L 11758,14338 11152,14338 11152,12830 11701,12513 11758,12513 Z"/>
     <path fill="rgb(94,94,94)" stroke="none" d="M 11758,14338 L 11758,15283 11152,15634 11152,14338 11758,14338 Z M 11701,12513 L 11758,12480 11758,12513 11701,12513 Z M 11758,12528 L 11758,14323 11152,14323 11152,12830 11675,12528 11758,12528 Z"/>
     <path fill="rgb(95,95,95)" stroke="none" d="M 11758,14323 L 11758,15283 11152,15634 11152,14323 11758,14323 Z M 11675,12528 L 11758,12480 11758,12528 11675,12528 Z M 11758,12544 L 11758,14307 11152,14307 11152,12830 11647,12544 11758,12544 Z"/>
     <path fill="rgb(96,96,96)" stroke="none" d="M 11758,14307 L 11758,15283 11152,15634 11152,14307 11758,14307 Z M 11647,12544 L 11758,12480 11758,12544 11647,12544 Z M 11758,12559 L 11758,14292 11152,14292 11152,12830 11621,12559 11758,12559 Z"/>
     <path fill="rgb(97,97,97)" stroke="none" d="M 11758,14292 L 11758,15283 11152,15634 11152,14292 11758,14292 Z M 11621,12559 L 11758,12480 11758,12559 11621,12559 Z M 11758,12575 L 11758,14276 11152,14276 11152,12830 11594,12575 11758,12575 Z"/>
     <path fill="rgb(98,98,98)" stroke="none" d="M 11758,14276 L 11758,15283 11152,15634 11152,14276 11758,14276 Z M 11594,12575 L 11758,12480 11758,12575 11594,12575 Z M 11758,12590 L 11758,14261 11152,14261 11152,12830 11568,12590 11758,12590 Z"/>
     <path fill="rgb(99,99,99)" stroke="none" d="M 11758,14261 L 11758,15283 11152,15634 11152,14261 11758,14261 Z M 11568,12590 L 11758,12480 11758,12590 11568,12590 Z M 11758,12606 L 11758,14245 11152,14245 11152,12830 11540,12606 11758,12606 Z"/>
     <path fill="rgb(100,100,100)" stroke="none" d="M 11758,14245 L 11758,15283 11152,15634 11152,14245 11758,14245 Z M 11540,12606 L 11758,12480 11758,12606 11540,12606 Z M 11758,12621 L 11758,14230 11152,14230 11152,12830 11514,12621 11758,12621 Z"/>
     <path fill="rgb(101,101,101)" stroke="none" d="M 11758,14230 L 11758,15283 11152,15634 11152,14230 11758,14230 Z M 11514,12621 L 11758,12480 11758,12621 11514,12621 Z M 11758,12637 L 11758,14214 11152,14214 11152,12830 11486,12637 11758,12637 Z"/>
     <path fill="rgb(102,102,102)" stroke="none" d="M 11758,14214 L 11758,15283 11152,15634 11152,14214 11758,14214 Z M 11486,12637 L 11758,12480 11758,12637 11486,12637 Z M 11758,12652 L 11758,14199 11152,14199 11152,12830 11460,12652 11758,12652 Z"/>
     <path fill="rgb(103,103,103)" stroke="none" d="M 11758,14199 L 11758,15283 11152,15634 11152,14199 11758,14199 Z M 11460,12652 L 11758,12480 11758,12652 11460,12652 Z M 11758,12668 L 11758,14183 11152,14183 11152,12830 11432,12668 11758,12668 Z"/>
     <path fill="rgb(104,104,104)" stroke="none" d="M 11758,14183 L 11758,15283 11152,15634 11152,14183 11758,14183 Z M 11432,12668 L 11758,12480 11758,12668 11432,12668 Z M 11758,12683 L 11758,14168 11152,14168 11152,12830 11407,12683 11758,12683 Z"/>
     <path fill="rgb(105,105,105)" stroke="none" d="M 11758,14168 L 11758,15283 11152,15634 11152,14168 11758,14168 Z M 11407,12683 L 11758,12480 11758,12683 11407,12683 Z M 11758,12699 L 11758,14152 11152,14152 11152,12830 11379,12699 11758,12699 Z"/>
     <path fill="rgb(106,106,106)" stroke="none" d="M 11758,14152 L 11758,15283 11152,15634 11152,14152 11758,14152 Z M 11379,12699 L 11758,12480 11758,12699 11379,12699 Z M 11758,12714 L 11758,14137 11152,14137 11152,12830 11353,12714 11758,12714 Z"/>
     <path fill="rgb(107,107,107)" stroke="none" d="M 11758,14137 L 11758,15283 11152,15634 11152,14137 11758,14137 Z M 11353,12714 L 11758,12480 11758,12714 11353,12714 Z M 11758,12730 L 11758,14121 11152,14121 11152,12830 11325,12730 11758,12730 Z"/>
     <path fill="rgb(108,108,108)" stroke="none" d="M 11758,14121 L 11758,15283 11152,15634 11152,14121 11758,14121 Z M 11325,12730 L 11758,12480 11758,12730 11325,12730 Z M 11758,12745 L 11758,14106 11152,14106 11152,12830 11299,12745 11758,12745 Z"/>
     <path fill="rgb(109,109,109)" stroke="none" d="M 11758,14106 L 11758,15283 11152,15634 11152,14106 11758,14106 Z M 11299,12745 L 11758,12480 11758,12745 11299,12745 Z M 11758,12761 L 11758,14090 11152,14090 11152,12830 11271,12761 11758,12761 Z"/>
     <path fill="rgb(110,110,110)" stroke="none" d="M 11758,14090 L 11758,15283 11152,15634 11152,14090 11758,14090 Z M 11271,12761 L 11758,12480 11758,12761 11271,12761 Z M 11758,12776 L 11758,14075 11152,14075 11152,12830 11245,12776 11758,12776 Z"/>
     <path fill="rgb(111,111,111)" stroke="none" d="M 11758,14075 L 11758,15283 11152,15634 11152,14075 11758,14075 Z M 11245,12776 L 11758,12480 11758,12776 11245,12776 Z M 11758,12792 L 11758,14059 11152,14059 11152,12830 11218,12792 11758,12792 Z"/>
     <path fill="rgb(112,112,112)" stroke="none" d="M 11758,14059 L 11758,15283 11152,15634 11152,14059 11758,14059 Z M 11218,12792 L 11758,12480 11758,12792 11218,12792 Z M 11758,12807 L 11758,14044 11152,14044 11152,12830 11192,12807 11758,12807 Z"/>
     <path fill="rgb(113,113,113)" stroke="none" d="M 11758,14044 L 11758,15283 11152,15634 11152,14044 11758,14044 Z M 11192,12807 L 11758,12480 11758,12807 11192,12807 Z M 11758,12822 L 11758,14029 11152,14029 11152,12830 11166,12822 11758,12822 Z"/>
     <path fill="rgb(114,114,114)" stroke="none" d="M 11758,14029 L 11758,15283 11152,15634 11152,14029 11758,14029 Z M 11166,12822 L 11758,12480 11758,12822 11166,12822 Z M 11758,12838 L 11758,14013 11152,14013 11152,12838 11758,12838 Z"/>
     <path fill="rgb(115,115,115)" stroke="none" d="M 11758,14013 L 11758,15283 11152,15634 11152,14013 11758,14013 Z M 11152,12838 L 11152,12830 11758,12480 11758,12838 11152,12838 Z M 11758,12853 L 11758,13998 11152,13998 11152,12853 11758,12853 Z"/>
     <path fill="rgb(116,116,116)" stroke="none" d="M 11758,13998 L 11758,15283 11152,15634 11152,13998 11758,13998 Z M 11152,12853 L 11152,12830 11758,12480 11758,12853 11152,12853 Z M 11758,12869 L 11758,13982 11152,13982 11152,12869 11758,12869 Z"/>
     <path fill="rgb(117,117,117)" stroke="none" d="M 11758,13982 L 11758,15283 11152,15634 11152,13982 11758,13982 Z M 11152,12869 L 11152,12830 11758,12480 11758,12869 11152,12869 Z M 11758,12884 L 11758,13967 11152,13967 11152,12884 11758,12884 Z"/>
     <path fill="rgb(118,118,118)" stroke="none" d="M 11758,13967 L 11758,15283 11152,15634 11152,13967 11758,13967 Z M 11152,12884 L 11152,12830 11758,12480 11758,12884 11152,12884 Z M 11758,12900 L 11758,13951 11152,13951 11152,12900 11758,12900 Z"/>
     <path fill="rgb(119,119,119)" stroke="none" d="M 11758,13951 L 11758,15283 11152,15634 11152,13951 11758,13951 Z M 11152,12900 L 11152,12830 11758,12480 11758,12900 11152,12900 Z M 11758,12915 L 11758,13936 11152,13936 11152,12915 11758,12915 Z"/>
     <path fill="rgb(120,120,120)" stroke="none" d="M 11758,13936 L 11758,15283 11152,15634 11152,13936 11758,13936 Z M 11152,12915 L 11152,12830 11758,12480 11758,12915 11152,12915 Z M 11758,12931 L 11758,13920 11152,13920 11152,12931 11758,12931 Z"/>
     <path fill="rgb(121,121,121)" stroke="none" d="M 11758,13920 L 11758,15283 11152,15634 11152,13920 11758,13920 Z M 11152,12931 L 11152,12830 11758,12480 11758,12931 11152,12931 Z M 11758,12946 L 11758,13905 11152,13905 11152,12946 11758,12946 Z"/>
     <path fill="rgb(122,122,122)" stroke="none" d="M 11758,13905 L 11758,15283 11152,15634 11152,13905 11758,13905 Z M 11152,12946 L 11152,12830 11758,12480 11758,12946 11152,12946 Z M 11758,12962 L 11758,13889 11152,13889 11152,12962 11758,12962 Z"/>
     <path fill="rgb(123,123,123)" stroke="none" d="M 11758,13889 L 11758,15283 11152,15634 11152,13889 11758,13889 Z M 11152,12962 L 11152,12830 11758,12480 11758,12962 11152,12962 Z M 11758,12977 L 11758,13874 11152,13874 11152,12977 11758,12977 Z"/>
     <path fill="rgb(124,124,124)" stroke="none" d="M 11758,13874 L 11758,15283 11152,15634 11152,13874 11758,13874 Z M 11152,12977 L 11152,12830 11758,12480 11758,12977 11152,12977 Z M 11758,12993 L 11758,13858 11152,13858 11152,12993 11758,12993 Z"/>
     <path fill="rgb(125,125,125)" stroke="none" d="M 11758,13858 L 11758,15283 11152,15634 11152,13858 11758,13858 Z M 11152,12993 L 11152,12830 11758,12480 11758,12993 11152,12993 Z M 11750,13008 L 11750,13843 11152,13843 11152,13008 11750,13008 Z"/>
     <path fill="rgb(126,126,126)" stroke="none" d="M 11750,13843 L 11750,13008 11152,13008 11152,12830 11758,12480 11758,15283 11152,15634 11152,13843 11750,13843 Z M 11734,13024 L 11734,13827 11152,13827 11152,13024 11734,13024 Z"/>
     <path fill="rgb(127,127,127)" stroke="none" d="M 11734,13827 L 11734,13024 11152,13024 11152,12830 11758,12480 11758,15283 11152,15634 11152,13827 11734,13827 Z M 11719,13039 L 11719,13812 11152,13812 11152,13039 11719,13039 Z"/>
     <path fill="rgb(128,128,128)" stroke="none" d="M 11719,13812 L 11719,13039 11152,13039 11152,12830 11758,12480 11758,15283 11152,15634 11152,13812 11719,13812 Z M 11703,13055 L 11703,13796 11152,13796 11152,13055 11703,13055 Z"/>
     <path fill="rgb(129,129,129)" stroke="none" d="M 11703,13796 L 11703,13055 11152,13055 11152,12830 11758,12480 11758,15283 11152,15634 11152,13796 11703,13796 Z M 11688,13070 L 11688,13781 11152,13781 11152,13070 11688,13070 Z"/>
     <path fill="rgb(130,130,130)" stroke="none" d="M 11688,13781 L 11688,13070 11152,13070 11152,12830 11758,12480 11758,15283 11152,15634 11152,13781 11688,13781 Z M 11672,13086 L 11672,13765 11152,13765 11152,13086 11672,13086 Z"/>
     <path fill="rgb(131,131,131)" stroke="none" d="M 11672,13765 L 11672,13086 11152,13086 11152,12830 11758,12480 11758,15283 11152,15634 11152,13765 11672,13765 Z M 11657,13101 L 11657,13750 11152,13750 11152,13101 11657,13101 Z"/>
     <path fill="rgb(132,132,132)" stroke="none" d="M 11657,13750 L 11657,13101 11152,13101 11152,12830 11758,12480 11758,15283 11152,15634 11152,13750 11657,13750 Z M 11642,13116 L 11642,13735 11152,13735 11152,13116 11642,13116 Z"/>
     <path fill="rgb(133,133,133)" stroke="none" d="M 11642,13735 L 11642,13116 11152,13116 11152,12830 11758,12480 11758,15283 11152,15634 11152,13735 11642,13735 Z M 11626,13132 L 11626,13719 11152,13719 11152,13132 11626,13132 Z"/>
     <path fill="rgb(134,134,134)" stroke="none" d="M 11626,13719 L 11626,13132 11152,13132 11152,12830 11758,12480 11758,15283 11152,15634 11152,13719 11626,13719 Z M 11611,13147 L 11611,13704 11152,13704 11152,13147 11611,13147 Z"/>
     <path fill="rgb(135,135,135)" stroke="none" d="M 11611,13704 L 11611,13147 11152,13147 11152,12830 11758,12480 11758,15283 11152,15634 11152,13704 11611,13704 Z M 11595,13163 L 11595,13688 11152,13688 11152,13163 11595,13163 Z"/>
     <path fill="rgb(136,136,136)" stroke="none" d="M 11595,13688 L 11595,13163 11152,13163 11152,12830 11758,12480 11758,15283 11152,15634 11152,13688 11595,13688 Z M 11580,13178 L 11580,13673 11152,13673 11152,13178 11580,13178 Z"/>
     <path fill="rgb(137,137,137)" stroke="none" d="M 11580,13673 L 11580,13178 11152,13178 11152,12830 11758,12480 11758,15283 11152,15634 11152,13673 11580,13673 Z M 11564,13194 L 11564,13657 11152,13657 11152,13194 11564,13194 Z"/>
     <path fill="rgb(138,138,138)" stroke="none" d="M 11564,13657 L 11564,13194 11152,13194 11152,12830 11758,12480 11758,15283 11152,15634 11152,13657 11564,13657 Z M 11549,13209 L 11549,13642 11152,13642 11152,13209 11549,13209 Z"/>
     <path fill="rgb(139,139,139)" stroke="none" d="M 11549,13642 L 11549,13209 11152,13209 11152,12830 11758,12480 11758,15283 11152,15634 11152,13642 11549,13642 Z M 11533,13225 L 11533,13626 11152,13626 11152,13225 11533,13225 Z"/>
     <path fill="rgb(140,140,140)" stroke="none" d="M 11533,13626 L 11533,13225 11152,13225 11152,12830 11758,12480 11758,15283 11152,15634 11152,13626 11533,13626 Z M 11518,13240 L 11518,13611 11152,13611 11152,13240 11518,13240 Z"/>
     <path fill="rgb(141,141,141)" stroke="none" d="M 11518,13611 L 11518,13240 11152,13240 11152,12830 11758,12480 11758,15283 11152,15634 11152,13611 11518,13611 Z M 11163,13256 L 11502,13256 11502,13595 11163,13595 11163,13256 Z"/>
     <path fill="rgb(142,142,142)" stroke="none" d="M 11163,13256 L 11163,13595 11502,13595 11502,13256 11163,13256 Z M 11178,13271 L 11487,13271 11487,13580 11178,13580 11178,13271 Z M 11152,15634 L 11152,12830 11758,12480 11758,15283 11152,15634 Z"/>
     <path fill="rgb(143,143,143)" stroke="none" d="M 11178,13271 L 11178,13580 11487,13580 11487,13271 11178,13271 Z M 11194,13287 L 11471,13287 11471,13564 11194,13564 11194,13287 Z M 11152,15634 L 11152,12830 11758,12480 11758,15283 11152,15634 Z"/>
     <path fill="rgb(144,144,144)" stroke="none" d="M 11194,13287 L 11194,13564 11471,13564 11471,13287 11194,13287 Z M 11209,13302 L 11456,13302 11456,13549 11209,13549 11209,13302 Z M 11152,15634 L 11152,12830 11758,12480 11758,15283 11152,15634 Z"/>
     <path fill="rgb(145,145,145)" stroke="none" d="M 11209,13302 L 11209,13549 11456,13549 11456,13302 11209,13302 Z M 11225,13318 L 11440,13318 11440,13533 11225,13533 11225,13318 Z M 11152,15634 L 11152,12830 11758,12480 11758,15283 11152,15634 Z"/>
     <path fill="rgb(146,146,146)" stroke="none" d="M 11225,13318 L 11225,13533 11440,13533 11440,13318 11225,13318 Z M 11240,13333 L 11425,13333 11425,13518 11240,13518 11240,13333 Z M 11152,15634 L 11152,12830 11758,12480 11758,15283 11152,15634 Z"/>
     <path fill="rgb(147,147,147)" stroke="none" d="M 11240,13333 L 11240,13518 11425,13518 11425,13333 11240,13333 Z M 11256,13349 L 11409,13349 11409,13502 11256,13502 11256,13349 Z M 11152,15634 L 11152,12830 11758,12480 11758,15283 11152,15634 Z"/>
     <path fill="rgb(148,148,148)" stroke="none" d="M 11256,13349 L 11256,13502 11409,13502 11409,13349 11256,13349 Z M 11271,13364 L 11394,13364 11394,13487 11271,13487 11271,13364 Z M 11152,15634 L 11152,12830 11758,12480 11758,15283 11152,15634 Z"/>
     <path fill="rgb(149,149,149)" stroke="none" d="M 11271,13364 L 11271,13487 11394,13487 11394,13364 11271,13364 Z M 11287,13380 L 11378,13380 11378,13471 11287,13471 11287,13380 Z M 11152,15634 L 11152,12830 11758,12480 11758,15283 11152,15634 Z"/>
     <path fill="rgb(150,150,150)" stroke="none" d="M 11287,13380 L 11287,13471 11378,13471 11378,13380 11287,13380 Z M 11302,13395 L 11363,13395 11363,13456 11302,13456 11302,13395 Z M 11152,15634 L 11152,12830 11758,12480 11758,15283 11152,15634 Z"/>
     <path fill="rgb(151,151,151)" stroke="none" d="M 11302,13395 L 11302,13456 11363,13456 11363,13395 11302,13395 Z M 11318,13411 L 11347,13411 11347,13440 11318,13440 11318,13411 Z M 11152,15634 L 11152,12830 11758,12480 11758,15283 11152,15634 Z"/>
     <path fill="rgb(153,153,153)" stroke="none" d="M 11318,13411 L 11318,13440 11347,13440 11347,13411 11318,13411 Z M 11152,15634 L 11152,12830 11758,12480 11758,15283 11152,15634 Z"/>
     <path fill="none" stroke="rgb(178,178,178)" id="Drawing_3_0" stroke-width="40" stroke-linejoin="round" d="M 11152,15634 L 11152,12830 11758,12480 11758,15283 11152,15634 Z"/>
    </g>
    <g>
     <defs>
      <linearGradient id="Gradient_702" gradientUnits="userSpaceOnUse" x1="10545" y1="11429" x2="10545" y2="12831">
       <stop offset="0.1" stop-color="rgb(51,51,51)"/>
       <stop offset="1" stop-color="rgb(153,153,153)"/>
      </linearGradient>
     </defs>
     <path fill="url(#Gradient_702)" stroke="rgb(178,178,178)" id="Drawing_4_0" stroke-width="40" stroke-linejoin="round" d="M 11152,12831 L 9333,11779 9939,11429 11758,12480 11152,12831 Z"/>
    </g>
    <g>
     <path fill="rgb(57,181,74)" stroke="none" d="M 10788,13531 L 10788,13321 10909,13391 10909,13601 10788,13531 Z"/>
     <path fill="none" stroke="rgb(102,102,102)" id="Drawing_5_0" stroke-width="40" stroke-linejoin="round" d="M 10788,13531 L 10788,13321 10909,13391 10909,13601 10788,13531 Z"/>
    </g>
    <g>
     <path fill="rgb(209,97,108)" stroke="none" d="M 10788,13111 L 10788,12901 10909,12971 10909,13181 10788,13111 Z"/>
     <path fill="none" stroke="rgb(102,102,102)" id="Drawing_6_0" stroke-width="40" stroke-linejoin="round" d="M 10788,13111 L 10788,12901 10909,12971 10909,13181 10788,13111 Z"/>
    </g>
    <g>
     <path fill="rgb(0,0,0)" stroke="none" d="M 11515,15143 L 11515,14793 11394,14863 11394,15213 11515,15143 Z"/>
     <path fill="none" stroke="rgb(178,178,178)" id="Drawing_7_0" stroke-width="40" stroke-linejoin="round" d="M 11515,15143 L 11515,14793 11394,14863 11394,15213 11515,15143 Z"/>
    </g>
    <g>
     <path fill="rgb(0,0,0)" stroke="none" d="M 11515,14512 L 11515,14162 11394,14232 11394,14582 11515,14512 Z"/>
     <path fill="none" stroke="rgb(178,178,178)" id="Drawing_8_0" stroke-width="40" stroke-linejoin="round" d="M 11515,14512 L 11515,14162 11394,14232 11394,14582 11515,14512 Z"/>
    </g>
    <g>
     <path fill="rgb(0,0,0)" stroke="none" d="M 11515,13881 L 11515,13531 11394,13601 11394,13951 11515,13881 Z"/>
     <path fill="none" stroke="rgb(178,178,178)" id="Drawing_9_0" stroke-width="40" stroke-linejoin="round" d="M 11515,13881 L 11515,13531 11394,13601 11394,13951 11515,13881 Z"/>
    </g>
    <g>
     <defs>
      <linearGradient id="Gradient_703" gradientUnits="userSpaceOnUse" x1="11755" y1="13917" x2="11880" y2="13917">
       <stop offset="0.1" stop-color="rgb(51,51,51)"/>
       <stop offset="1" stop-color="rgb(153,153,153)"/>
      </linearGradient>
     </defs>
     <path fill="url(#Gradient_703)" stroke="rgb(178,178,178)" id="Drawing_10_0" stroke-width="40" stroke-linejoin="round" d="M 11758,14933 L 11758,12831 11879,12971 11879,15003 11758,14933 Z"/>
    </g>
    <g>
     <path fill="none" stroke="rgb(0,0,0)" id="Drawing_11_0" stroke-width="40" stroke-linejoin="round" d="M 9333,14583 L 9333,11779 9939,11429 11758,12480 11758,12831 11879,12901 11879,15003 11758,14933 11758,15283 11152,15634 9333,14583 Z"/>
    </g>
   </g>
  </g>
 </g>
</svg>