<?xml version="1.0" encoding="UTF-8"?>

<svg version="1.2" baseProfile="tiny" width="30.52mm" height="42.45mm" viewBox="4299 3520 3052 4245" preserveAspectRatio="xMidYMid" fill-rule="evenodd" stroke-width="28.222" stroke-linejoin="round" xmlns="http://www.w3.org/2000/svg" xmlns:xlink="http://www.w3.org/1999/xlink" xml:space="preserve">
 <g visibility="visible" id="Slide_1">
  <g id="DrawingGroup_1">
   <g>
    <path fill="rgb(221,221,221)" stroke="none" d="M 6138,7745 C 6471,7745 7350,7605 7350,7395 7350,7184 7198,6834 6865,6834 6865,7044 6138,7395 6138,7745 Z"/>
    <path fill="none" stroke="rgb(221,221,221)" id="Drawing_1_0" stroke-linejoin="round" d="M 6138,7745 C 6471,7745 7350,7605 7350,7395 7350,7184 7198,6834 6865,6834 6865,7044 6138,7395 6138,7745 Z"/>
   </g>
   <g id="DrawingGroup_2">
    <g>
     <defs>
      <linearGradient id="Gradient_698" gradientUnits="userSpaceOnUse" x1="4315" y1="5815" x2="6140" y2="5819">
       <stop offset="0.1" stop-color="rgb(179,179,179)"/>
       <stop offset="1" stop-color="rgb(229,229,229)"/>
      </linearGradient>
     </defs>
     <path fill="url(#Gradient_698)" stroke="rgb(255,255,255)" id="Drawing_2_0" stroke-width="40" stroke-linejoin="round" d="M 4319,6693 L 4319,3890 6138,4941 6138,7744 4319,6693 Z"/>
    </g>
    <g>
     <path fill="rgb(179,179,179)" stroke="none" d="M 6138,7083 L 6138,4941 6744,4591 6744,7083 6138,7083 Z"/>
     <path fill="rgb(180,180,180)" stroke="none" d="M 6744,7083 L 6744,7394 6138,7745 6138,7083 6744,7083 Z M 6138,7051 L 6138,4941 6744,4591 6744,7051 6138,7051 Z"/>
     <path fill="rgb(181,181,181)" stroke="none" d="M 6744,7051 L 6744,7394 6138,7745 6138,7051 6744,7051 Z M 6138,7020 L 6138,4941 6744,4591 6744,7020 6138,7020 Z"/>
     <path fill="rgb(182,182,182)" stroke="none" d="M 6744,7020 L 6744,7394 6138,7745 6138,7020 6744,7020 Z M 6138,6988 L 6138,4941 6744,4591 6744,6988 6138,6988 Z"/>
     <path fill="rgb(183,183,183)" stroke="none" d="M 6744,6988 L 6744,7394 6138,7745 6138,6988 6744,6988 Z M 6138,6957 L 6138,4941 6744,4591 6744,6957 6138,6957 Z"/>
     <path fill="rgb(184,184,184)" stroke="none" d="M 6744,6957 L 6744,7394 6138,7745 6138,6957 6744,6957 Z M 6138,6925 L 6138,4941 6744,4591 6744,6925 6138,6925 Z"/>
     <path fill="rgb(185,185,185)" stroke="none" d="M 6744,6925 L 6744,7394 6138,7745 6138,6925 6744,6925 Z M 6138,6894 L 6138,4941 6744,4591 6744,6894 6138,6894 Z"/>
     <path fill="rgb(186,186,186)" stroke="none" d="M 6744,6894 L 6744,7394 6138,7745 6138,6894 6744,6894 Z M 6138,6862 L 6138,4941 6744,4591 6744,6862 6138,6862 Z"/>
     <path fill="rgb(187,187,187)" stroke="none" d="M 6744,6862 L 6744,7394 6138,7745 6138,6862 6744,6862 Z M 6138,6830 L 6138,4941 6744,4591 6744,6830 6138,6830 Z"/>
     <path fill="rgb(188,188,188)" stroke="none" d="M 6744,6830 L 6744,7394 6138,7745 6138,6830 6744,6830 Z M 6138,6799 L 6138,4941 6744,4591 6744,6799 6138,6799 Z"/>
     <path fill="rgb(189,189,189)" stroke="none" d="M 6744,6799 L 6744,7394 6138,7745 6138,6799 6744,6799 Z M 6138,6767 L 6138,4941 6744,4591 6744,6767 6138,6767 Z"/>
     <path fill="rgb(190,190,190)" stroke="none" d="M 6744,6767 L 6744,7394 6138,7745 6138,6767 6744,6767 Z M 6138,6736 L 6138,4941 6744,4591 6744,6736 6138,6736 Z"/>
     <path fill="rgb(191,191,191)" stroke="none" d="M 6744,6736 L 6744,7394 6138,7745 6138,6736 6744,6736 Z M 6138,6704 L 6138,4941 6744,4591 6744,6704 6138,6704 Z"/>
     <path fill="rgb(192,192,192)" stroke="none" d="M 6744,6704 L 6744,7394 6138,7745 6138,6704 6744,6704 Z M 6138,6673 L 6138,4941 6744,4591 6744,6673 6138,6673 Z"/>
     <path fill="rgb(193,193,193)" stroke="none" d="M 6744,6673 L 6744,7394 6138,7745 6138,6673 6744,6673 Z M 6138,6641 L 6138,4941 6744,4591 6744,6641 6138,6641 Z"/>
     <path fill="rgb(194,194,194)" stroke="none" d="M 6744,6641 L 6744,7394 6138,7745 6138,6641 6744,6641 Z M 6138,6609 L 6138,4941 6744,4591 6744,6609 6138,6609 Z"/>
     <path fill="rgb(195,195,195)" stroke="none" d="M 6744,6609 L 6744,7394 6138,7745 6138,6609 6744,6609 Z M 6138,6578 L 6138,4941 6744,4591 6744,6578 6138,6578 Z"/>
     <path fill="rgb(196,196,196)" stroke="none" d="M 6744,6578 L 6744,7394 6138,7745 6138,6578 6744,6578 Z M 6138,6546 L 6138,4941 6744,4591 6744,6546 6138,6546 Z"/>
     <path fill="rgb(197,197,197)" stroke="none" d="M 6744,6546 L 6744,7394 6138,7745 6138,6546 6744,6546 Z M 6138,6515 L 6138,4941 6744,4591 6744,6515 6138,6515 Z"/>
     <path fill="rgb(198,198,198)" stroke="none" d="M 6744,6515 L 6744,7394 6138,7745 6138,6515 6744,6515 Z M 6138,6483 L 6138,4941 6744,4591 6744,6483 6138,6483 Z"/>
     <path fill="rgb(199,199,199)" stroke="none" d="M 6744,6483 L 6744,7394 6138,7745 6138,6483 6744,6483 Z M 6744,4621 L 6744,6452 6138,6452 6138,4941 6692,4621 6744,4621 Z"/>
     <path fill="rgb(200,200,200)" stroke="none" d="M 6744,6452 L 6744,7394 6138,7745 6138,6452 6744,6452 Z M 6692,4621 L 6744,4591 6744,4621 6692,4621 Z M 6744,4653 L 6744,6420 6138,6420 6138,4941 6637,4653 6744,4653 Z"/>
     <path fill="rgb(201,201,201)" stroke="none" d="M 6744,6420 L 6744,7394 6138,7745 6138,6420 6744,6420 Z M 6637,4653 L 6744,4591 6744,4653 6637,4653 Z M 6744,4685 L 6744,6388 6138,6388 6138,4941 6581,4685 6744,4685 Z"/>
     <path fill="rgb(202,202,202)" stroke="none" d="M 6744,6388 L 6744,7394 6138,7745 6138,6388 6744,6388 Z M 6581,4685 L 6744,4591 6744,4685 6581,4685 Z M 6744,4716 L 6744,6357 6138,6357 6138,4941 6528,4716 6744,4716 Z"/>
     <path fill="rgb(203,203,203)" stroke="none" d="M 6744,6357 L 6744,7394 6138,7745 6138,6357 6744,6357 Z M 6528,4716 L 6744,4591 6744,4716 6528,4716 Z M 6744,4748 L 6744,6325 6138,6325 6138,4941 6472,4748 6744,4748 Z"/>
     <path fill="rgb(204,204,204)" stroke="none" d="M 6744,6325 L 6744,7394 6138,7745 6138,6325 6744,6325 Z M 6472,4748 L 6744,4591 6744,4748 6472,4748 Z M 6744,4779 L 6744,6294 6138,6294 6138,4941 6418,4779 6744,4779 Z"/>
     <path fill="rgb(205,205,205)" stroke="none" d="M 6744,6294 L 6744,7394 6138,7745 6138,6294 6744,6294 Z M 6418,4779 L 6744,4591 6744,4779 6418,4779 Z M 6744,4811 L 6744,6262 6138,6262 6138,4941 6363,4811 6744,4811 Z"/>
     <path fill="rgb(206,206,206)" stroke="none" d="M 6744,6262 L 6744,7394 6138,7745 6138,6262 6744,6262 Z M 6363,4811 L 6744,4591 6744,4811 6363,4811 Z M 6744,4842 L 6744,6231 6138,6231 6138,4941 6309,4842 6744,4842 Z"/>
     <path fill="rgb(207,207,207)" stroke="none" d="M 6744,6231 L 6744,7394 6138,7745 6138,6231 6744,6231 Z M 6309,4842 L 6744,4591 6744,4842 6309,4842 Z M 6744,4874 L 6744,6199 6138,6199 6138,4941 6254,4874 6744,4874 Z"/>
     <path fill="rgb(208,208,208)" stroke="none" d="M 6744,6199 L 6744,7394 6138,7745 6138,6199 6744,6199 Z M 6254,4874 L 6744,4591 6744,4874 6254,4874 Z M 6744,4906 L 6744,6167 6138,6167 6138,4941 6199,4906 6744,4906 Z"/>
     <path fill="rgb(209,209,209)" stroke="none" d="M 6744,6167 L 6744,7394 6138,7745 6138,6167 6744,6167 Z M 6199,4906 L 6744,4591 6744,4906 6199,4906 Z M 6744,4937 L 6744,6136 6138,6136 6138,4941 6145,4937 6744,4937 Z"/>
     <path fill="rgb(210,210,210)" stroke="none" d="M 6744,6136 L 6744,7394 6138,7745 6138,6136 6744,6136 Z M 6145,4937 L 6744,4591 6744,4937 6145,4937 Z M 6744,4969 L 6744,6104 6138,6104 6138,4969 6744,4969 Z"/>
     <path fill="rgb(211,211,211)" stroke="none" d="M 6744,6104 L 6744,7394 6138,7745 6138,6104 6744,6104 Z M 6138,4969 L 6138,4941 6744,4591 6744,4969 6138,4969 Z M 6744,5000 L 6744,6073 6138,6073 6138,5000 6744,5000 Z"/>
     <path fill="rgb(212,212,212)" stroke="none" d="M 6744,6073 L 6744,7394 6138,7745 6138,6073 6744,6073 Z M 6138,5000 L 6138,4941 6744,4591 6744,5000 6138,5000 Z M 6744,5032 L 6744,6041 6138,6041 6138,5032 6744,5032 Z"/>
     <path fill="rgb(213,213,213)" stroke="none" d="M 6744,6041 L 6744,7394 6138,7745 6138,6041 6744,6041 Z M 6138,5032 L 6138,4941 6744,4591 6744,5032 6138,5032 Z M 6744,5063 L 6744,6010 6138,6010 6138,5063 6744,5063 Z"/>
     <path fill="rgb(214,214,214)" stroke="none" d="M 6744,6010 L 6744,7394 6138,7745 6138,6010 6744,6010 Z M 6138,5063 L 6138,4941 6744,4591 6744,5063 6138,5063 Z M 6744,5095 L 6744,5978 6138,5978 6138,5095 6744,5095 Z"/>
     <path fill="rgb(215,215,215)" stroke="none" d="M 6744,5978 L 6744,7394 6138,7745 6138,5978 6744,5978 Z M 6138,5095 L 6138,4941 6744,4591 6744,5095 6138,5095 Z M 6728,5127 L 6728,5946 6138,5946 6138,5127 6728,5127 Z"/>
     <path fill="rgb(216,216,216)" stroke="none" d="M 6728,5946 L 6728,5127 6138,5127 6138,4941 6744,4591 6744,7394 6138,7745 6138,5946 6728,5946 Z M 6697,5158 L 6697,5915 6138,5915 6138,5158 6697,5158 Z"/>
     <path fill="rgb(217,217,217)" stroke="none" d="M 6697,5915 L 6697,5158 6138,5158 6138,4941 6744,4591 6744,7394 6138,7745 6138,5915 6697,5915 Z M 6665,5190 L 6665,5883 6138,5883 6138,5190 6665,5190 Z"/>
     <path fill="rgb(218,218,218)" stroke="none" d="M 6665,5883 L 6665,5190 6138,5190 6138,4941 6744,4591 6744,7394 6138,7745 6138,5883 6665,5883 Z M 6634,5221 L 6634,5852 6138,5852 6138,5221 6634,5221 Z"/>
     <path fill="rgb(219,219,219)" stroke="none" d="M 6634,5852 L 6634,5221 6138,5221 6138,4941 6744,4591 6744,7394 6138,7745 6138,5852 6634,5852 Z M 6602,5253 L 6602,5820 6138,5820 6138,5253 6602,5253 Z"/>
     <path fill="rgb(220,220,220)" stroke="none" d="M 6602,5820 L 6602,5253 6138,5253 6138,4941 6744,4591 6744,7394 6138,7745 6138,5820 6602,5820 Z M 6571,5284 L 6571,5789 6138,5789 6138,5284 6571,5284 Z"/>
     <path fill="rgb(221,221,221)" stroke="none" d="M 6571,5789 L 6571,5284 6138,5284 6138,4941 6744,4591 6744,7394 6138,7745 6138,5789 6571,5789 Z M 6539,5316 L 6539,5757 6138,5757 6138,5316 6539,5316 Z"/>
     <path fill="rgb(222,222,222)" stroke="none" d="M 6539,5757 L 6539,5316 6138,5316 6138,4941 6744,4591 6744,7394 6138,7745 6138,5757 6539,5757 Z M 6507,5348 L 6507,5725 6138,5725 6138,5348 6507,5348 Z"/>
     <path fill="rgb(223,223,223)" stroke="none" d="M 6507,5725 L 6507,5348 6138,5348 6138,4941 6744,4591 6744,7394 6138,7745 6138,5725 6507,5725 Z M 6161,5379 L 6476,5379 6476,5694 6161,5694 6161,5379 Z"/>
     <path fill="rgb(224,224,224)" stroke="none" d="M 6161,5379 L 6161,5694 6476,5694 6476,5379 6161,5379 Z M 6193,5411 L 6444,5411 6444,5662 6193,5662 6193,5411 Z M 6138,7745 L 6138,4941 6744,4591 6744,7394 6138,7745 Z"/>
     <path fill="rgb(225,225,225)" stroke="none" d="M 6193,5411 L 6193,5662 6444,5662 6444,5411 6193,5411 Z M 6224,5442 L 6413,5442 6413,5631 6224,5631 6224,5442 Z M 6138,7745 L 6138,4941 6744,4591 6744,7394 6138,7745 Z"/>
     <path fill="rgb(226,226,226)" stroke="none" d="M 6224,5442 L 6224,5631 6413,5631 6413,5442 6224,5442 Z M 6256,5474 L 6381,5474 6381,5599 6256,5599 6256,5474 Z M 6138,7745 L 6138,4941 6744,4591 6744,7394 6138,7745 Z"/>
     <path fill="rgb(227,227,227)" stroke="none" d="M 6256,5474 L 6256,5599 6381,5599 6381,5474 6256,5474 Z M 6287,5505 L 6350,5505 6350,5568 6287,5568 6287,5505 Z M 6138,7745 L 6138,4941 6744,4591 6744,7394 6138,7745 Z"/>
     <path fill="rgb(229,229,229)" stroke="none" d="M 6287,5505 L 6287,5568 6350,5568 6350,5505 6287,5505 Z M 6138,7745 L 6138,4941 6744,4591 6744,7394 6138,7745 Z"/>
     <path fill="none" stroke="rgb(255,255,255)" id="Drawing_3_0" stroke-width="40" stroke-linejoin="round" d="M 6138,7745 L 6138,4941 6744,4591 6744,7394 6138,7745 Z"/>
    </g>
    <g>
     <defs>
      <linearGradient id="Gradient_699" gradientUnits="userSpaceOnUse" x1="5531" y1="3540" x2="5531" y2="4942">
       <stop offset="0.1" stop-color="rgb(179,179,179)"/>
       <stop offset="1" stop-color="rgb(229,229,229)"/>
      </linearGradient>
     </defs>
     <path fill="url(#Gradient_699)" stroke="rgb(255,255,255)" id="Drawing_4_0" stroke-width="40" stroke-linejoin="round" d="M 6138,4942 L 4319,3890 4925,3540 6744,4591 6138,4942 Z"/>
    </g>
    <g>
     <path fill="rgb(57,181,74)" stroke="none" d="M 5774,5642 L 5774,5432 5895,5502 5895,5712 5774,5642 Z"/>
     <path fill="none" stroke="rgb(127,127,127)" id="Drawing_5_0" stroke-width="40" stroke-linejoin="round" d="M 5774,5642 L 5774,5432 5895,5502 5895,5712 5774,5642 Z"/>
    </g>
    <g>
     <path fill="rgb(209,97,108)" stroke="none" d="M 5774,5222 L 5774,5012 5895,5082 5895,5292 5774,5222 Z"/>
     <path fill="none" stroke="rgb(127,127,127)" id="Drawing_6_0" stroke-width="40" stroke-linejoin="round" d="M 5774,5222 L 5774,5012 5895,5082 5895,5292 5774,5222 Z"/>
    </g>
    <g>
     <path fill="rgb(127,127,127)" stroke="none" d="M 6501,7254 L 6501,6904 6380,6974 6380,7324 6501,7254 Z"/>
     <path fill="none" stroke="rgb(0,0,0)" id="Drawing_7_0" stroke-width="40" stroke-linejoin="round" d="M 6501,7254 L 6501,6904 6380,6974 6380,7324 6501,7254 Z"/>
    </g>
    <g>
     <path fill="rgb(127,127,127)" stroke="none" d="M 6501,6623 L 6501,6273 6380,6343 6380,6693 6501,6623 Z"/>
     <path fill="none" stroke="rgb(0,0,0)" id="Drawing_8_0" stroke-width="40" stroke-linejoin="round" d="M 6501,6623 L 6501,6273 6380,6343 6380,6693 6501,6623 Z"/>
    </g>
    <g>
     <path fill="rgb(127,127,127)" stroke="none" d="M 6501,5992 L 6501,5642 6380,5712 6380,6062 6501,5992 Z"/>
     <path fill="none" stroke="rgb(0,0,0)" id="Drawing_9_0" stroke-width="40" stroke-linejoin="round" d="M 6501,5992 L 6501,5642 6380,5712 6380,6062 6501,5992 Z"/>
    </g>
    <g>
     <defs>
      <linearGradient id="Gradient_700" gradientUnits="userSpaceOnUse" x1="6741" y1="6028" x2="6866" y2="6028">
       <stop offset="0.1" stop-color="rgb(179,179,179)"/>
       <stop offset="1" stop-color="rgb(229,229,229)"/>
      </linearGradient>
     </defs>
     <path fill="url(#Gradient_700)" stroke="rgb(255,255,255)" id="Drawing_10_0" stroke-width="40" stroke-linejoin="round" d="M 6744,7044 L 6744,4942 6865,5082 6865,7114 6744,7044 Z"/>
    </g>
    <g>
     <path fill="none" stroke="rgb(0,0,0)" id="Drawing_11_0" stroke-width="40" stroke-linejoin="round" d="M 4319,6694 L 4319,3890 4925,3540 6744,4591 6744,4942 6865,5012 6865,7114 6744,7044 6744,7394 6138,7745 4319,6694 Z"/>
    </g>
   </g>
  </g>
 </g>
</svg>