<?xml version="1.0" encoding="UTF-8"?>

<svg version="1.2" baseProfile="tiny" width="49.92mm" height="58.24mm" viewBox="5319 1623 4992 5824" preserveAspectRatio="xMidYMid" fill-rule="evenodd" stroke-width="28.222" stroke-linejoin="round" xmlns="http://www.w3.org/2000/svg" xmlns:xlink="http://www.w3.org/1999/xlink" xml:space="preserve">
 <g visibility="visible" id="Slide_1">
  <g id="DrawingGroup_1">
   <g>
    <path fill="rgb(221,221,221)" stroke="none" d="M 9188,7426 C 9519,7426 10160,7357 10281,7009 10401,6660 10130,6660 9799,6660 9799,6869 9063,6729 9188,7426 Z"/>
    <path fill="none" stroke="rgb(221,221,221)" id="Drawing_1_0" stroke-linejoin="round" d="M 9188,7426 C 9519,7426 10160,7357 10281,7009 10401,6660 10130,6660 9799,6660 9799,6869 9063,6729 9188,7426 Z"/>
   </g>
   <g id="DrawingGroup_2">
    <g>
     <defs>
      <linearGradient id="Gradient_708" gradientUnits="userSpaceOnUse" x1="5333" y1="4565" x2="9200" y2="4571">
       <stop offset="0.1" stop-color="rgb(179,179,179)"/>
       <stop offset="1" stop-color="rgb(229,229,229)"/>
      </linearGradient>
     </defs>
     <path fill="url(#Gradient_708)" stroke="rgb(255,255,255)" id="Drawing_2_0" stroke-width="40" stroke-linejoin="round" d="M 5339,5196 L 5339,1712 9196,3942 9183,7425 5339,5196 Z"/>
    </g>
    <g>
     <defs>
      <linearGradient id="Gradient_709" gradientUnits="userSpaceOnUse" x1="5576" y1="4357" x2="8718" y2="4363">
       <stop offset="0.1" stop-color="rgb(147,212,240)"/>
       <stop offset="1" stop-color="rgb(233,246,252)"/>
      </linearGradient>
     </defs>
     <path fill="url(#Gradient_709)" stroke="rgb(127,127,127)" id="Drawing_3_0" stroke-width="40" stroke-linejoin="round" d="M 5580,4779 L 5580,2131 8714,3943 8714,6590 5580,4779 Z"/>
    </g>
    <g>
     <path fill="rgb(116,203,128)" stroke="none" d="M 8353,6730 L 8353,6590 8594,6730 8594,6868 8353,6730 Z"/>
     <path fill="none" stroke="rgb(127,127,127)" id="Drawing_4_0" stroke-width="40" stroke-linejoin="round" d="M 8353,6730 L 8353,6590 8594,6730 8594,6868 8353,6730 Z"/>
    </g>
    <g>
     <path fill="rgb(179,179,179)" stroke="none" d="M 9307,6430 L 9317,4011 9799,3733 9799,6430 9307,6430 Z"/>
     <path fill="rgb(180,180,180)" stroke="none" d="M 9799,6430 L 9799,6869 9304,7147 9307,6430 9799,6430 Z M 9307,6396 L 9317,4011 9799,3733 9799,6396 9307,6396 Z"/>
     <path fill="rgb(181,181,181)" stroke="none" d="M 9799,6396 L 9799,6869 9304,7147 9307,6396 9799,6396 Z M 9307,6362 L 9317,4011 9799,3733 9799,6362 9307,6362 Z"/>
     <path fill="rgb(182,182,182)" stroke="none" d="M 9799,6362 L 9799,6869 9304,7147 9307,6362 9799,6362 Z M 9307,6328 L 9317,4011 9799,3733 9799,6328 9307,6328 Z"/>
     <path fill="rgb(183,183,183)" stroke="none" d="M 9799,6328 L 9799,6869 9304,7147 9307,6328 9799,6328 Z M 9308,6294 L 9317,4011 9799,3733 9799,6294 9308,6294 Z"/>
     <path fill="rgb(184,184,184)" stroke="none" d="M 9799,6294 L 9799,6869 9304,7147 9308,6294 9799,6294 Z M 9308,6259 L 9317,4011 9799,3733 9799,6259 9308,6259 Z"/>
     <path fill="rgb(185,185,185)" stroke="none" d="M 9799,6259 L 9799,6869 9304,7147 9308,6259 9799,6259 Z M 9308,6225 L 9317,4011 9799,3733 9799,6225 9308,6225 Z"/>
     <path fill="rgb(186,186,186)" stroke="none" d="M 9799,6225 L 9799,6869 9304,7147 9308,6225 9799,6225 Z M 9308,6191 L 9317,4011 9799,3733 9799,6191 9308,6191 Z"/>
     <path fill="rgb(187,187,187)" stroke="none" d="M 9799,6191 L 9799,6869 9304,7147 9308,6191 9799,6191 Z M 9308,6157 L 9317,4011 9799,3733 9799,6157 9308,6157 Z"/>
     <path fill="rgb(188,188,188)" stroke="none" d="M 9799,6157 L 9799,6869 9304,7147 9308,6157 9799,6157 Z M 9308,6123 L 9317,4011 9799,3733 9799,6123 9308,6123 Z"/>
     <path fill="rgb(189,189,189)" stroke="none" d="M 9799,6123 L 9799,6869 9304,7147 9308,6123 9799,6123 Z M 9308,6089 L 9317,4011 9799,3733 9799,6089 9308,6089 Z"/>
     <path fill="rgb(190,190,190)" stroke="none" d="M 9799,6089 L 9799,6869 9304,7147 9308,6089 9799,6089 Z M 9309,6054 L 9317,4011 9799,3733 9799,6054 9309,6054 Z"/>
     <path fill="rgb(191,191,191)" stroke="none" d="M 9799,6054 L 9799,6869 9304,7147 9309,6054 9799,6054 Z M 9309,6020 L 9317,4011 9799,3733 9799,6020 9309,6020 Z"/>
     <path fill="rgb(192,192,192)" stroke="none" d="M 9799,6020 L 9799,6869 9304,7147 9309,6020 9799,6020 Z M 9309,5986 L 9317,4011 9799,3733 9799,5986 9309,5986 Z"/>
     <path fill="rgb(193,193,193)" stroke="none" d="M 9799,5986 L 9799,6869 9304,7147 9309,5986 9799,5986 Z M 9309,5952 L 9317,4011 9799,3733 9799,5952 9309,5952 Z"/>
     <path fill="rgb(194,194,194)" stroke="none" d="M 9799,5952 L 9799,6869 9304,7147 9309,5952 9799,5952 Z M 9309,5918 L 9317,4011 9799,3733 9799,5918 9309,5918 Z"/>
     <path fill="rgb(195,195,195)" stroke="none" d="M 9799,5918 L 9799,6869 9304,7147 9309,5918 9799,5918 Z M 9309,5884 L 9317,4011 9799,3733 9799,5884 9309,5884 Z"/>
     <path fill="rgb(196,196,196)" stroke="none" d="M 9799,5884 L 9799,6869 9304,7147 9309,5884 9799,5884 Z M 9309,5849 L 9317,4011 9799,3733 9799,5849 9309,5849 Z"/>
     <path fill="rgb(197,197,197)" stroke="none" d="M 9799,5849 L 9799,6869 9304,7147 9309,5849 9799,5849 Z M 9310,5815 L 9317,4011 9799,3733 9799,5815 9310,5815 Z"/>
     <path fill="rgb(198,198,198)" stroke="none" d="M 9799,5815 L 9799,6869 9304,7147 9310,5815 9799,5815 Z M 9310,5781 L 9317,4011 9799,3733 9799,5781 9310,5781 Z"/>
     <path fill="rgb(199,199,199)" stroke="none" d="M 9799,5781 L 9799,6869 9304,7147 9310,5781 9799,5781 Z M 9799,3766 L 9799,5747 9310,5747 9317,4011 9742,3766 9799,3766 Z"/>
     <path fill="rgb(200,200,200)" stroke="none" d="M 9799,5747 L 9799,6869 9304,7147 9310,5747 9799,5747 Z M 9742,3766 L 9799,3733 9799,3766 9742,3766 Z M 9799,3800 L 9799,5713 9310,5713 9317,4011 9683,3800 9799,3800 Z"/>
     <path fill="rgb(201,201,201)" stroke="none" d="M 9799,5713 L 9799,6869 9304,7147 9310,5713 9799,5713 Z M 9683,3800 L 9799,3733 9799,3800 9683,3800 Z M 9799,3834 L 9799,5679 9310,5679 9317,4011 9624,3834 9799,3834 Z"/>
     <path fill="rgb(202,202,202)" stroke="none" d="M 9799,5679 L 9799,6869 9304,7147 9310,5679 9799,5679 Z M 9624,3834 L 9799,3733 9799,3834 9624,3834 Z M 9799,3869 L 9799,5644 9310,5644 9317,4011 9563,3869 9799,3869 Z"/>
     <path fill="rgb(203,203,203)" stroke="none" d="M 9799,5644 L 9799,6869 9304,7147 9310,5644 9799,5644 Z M 9563,3869 L 9799,3733 9799,3869 9563,3869 Z M 9799,3903 L 9799,5610 9310,5610 9317,4011 9504,3903 9799,3903 Z"/>
     <path fill="rgb(204,204,204)" stroke="none" d="M 9799,5610 L 9799,6869 9304,7147 9310,5610 9799,5610 Z M 9504,3903 L 9799,3733 9799,3903 9504,3903 Z M 9799,3937 L 9799,5576 9311,5576 9317,4011 9445,3937 9799,3937 Z"/>
     <path fill="rgb(205,205,205)" stroke="none" d="M 9799,5576 L 9799,6869 9304,7147 9311,5576 9799,5576 Z M 9445,3937 L 9799,3733 9799,3937 9445,3937 Z M 9799,3971 L 9799,5542 9311,5542 9317,4011 9386,3971 9799,3971 Z"/>
     <path fill="rgb(206,206,206)" stroke="none" d="M 9799,5542 L 9799,6869 9304,7147 9311,5542 9799,5542 Z M 9386,3971 L 9799,3733 9799,3971 9386,3971 Z M 9799,4005 L 9799,5508 9311,5508 9317,4011 9327,4005 9799,4005 Z"/>
     <path fill="rgb(207,207,207)" stroke="none" d="M 9799,5508 L 9799,6869 9304,7147 9311,5508 9799,5508 Z M 9327,4005 L 9799,3733 9799,4005 9327,4005 Z M 9799,4039 L 9799,5474 9311,5474 9317,4039 9799,4039 Z"/>
     <path fill="rgb(208,208,208)" stroke="none" d="M 9799,5474 L 9799,6869 9304,7147 9311,5474 9799,5474 Z M 9317,4039 L 9317,4011 9799,3733 9799,4039 9317,4039 Z M 9799,4074 L 9799,5439 9311,5439 9317,4074 9799,4074 Z"/>
     <path fill="rgb(209,209,209)" stroke="none" d="M 9799,5439 L 9799,6869 9304,7147 9311,5439 9799,5439 Z M 9317,4074 L 9317,4011 9799,3733 9799,4074 9317,4074 Z M 9799,4108 L 9799,5405 9311,5405 9317,4108 9799,4108 Z"/>
     <path fill="rgb(210,210,210)" stroke="none" d="M 9799,5405 L 9799,6869 9304,7147 9311,5405 9799,5405 Z M 9317,4108 L 9317,4011 9799,3733 9799,4108 9317,4108 Z M 9799,4142 L 9799,5371 9311,5371 9316,4142 9799,4142 Z"/>
     <path fill="rgb(211,211,211)" stroke="none" d="M 9799,5371 L 9799,6869 9304,7147 9311,5371 9799,5371 Z M 9316,4142 L 9317,4011 9799,3733 9799,4142 9316,4142 Z M 9799,4176 L 9799,5337 9312,5337 9316,4176 9799,4176 Z"/>
     <path fill="rgb(212,212,212)" stroke="none" d="M 9799,5337 L 9799,6869 9304,7147 9312,5337 9799,5337 Z M 9316,4176 L 9317,4011 9799,3733 9799,4176 9316,4176 Z M 9799,4210 L 9799,5303 9312,5303 9316,4210 9799,4210 Z"/>
     <path fill="rgb(213,213,213)" stroke="none" d="M 9799,5303 L 9799,6869 9304,7147 9312,5303 9799,5303 Z M 9316,4210 L 9317,4011 9799,3733 9799,4210 9316,4210 Z M 9799,4244 L 9799,5269 9312,5269 9316,4244 9799,4244 Z"/>
     <path fill="rgb(214,214,214)" stroke="none" d="M 9799,5269 L 9799,6869 9304,7147 9312,5269 9799,5269 Z M 9316,4244 L 9317,4011 9799,3733 9799,4244 9316,4244 Z M 9799,4279 L 9799,5234 9312,5234 9316,4279 9799,4279 Z"/>
     <path fill="rgb(215,215,215)" stroke="none" d="M 9799,5234 L 9799,6869 9304,7147 9312,5234 9799,5234 Z M 9316,4279 L 9317,4011 9799,3733 9799,4279 9316,4279 Z M 9799,4313 L 9799,5200 9312,5200 9316,4313 9799,4313 Z"/>
     <path fill="rgb(216,216,216)" stroke="none" d="M 9799,5200 L 9799,6869 9304,7147 9312,5200 9799,5200 Z M 9316,4313 L 9317,4011 9799,3733 9799,4313 9316,4313 Z M 9799,4347 L 9799,5166 9312,5166 9316,4347 9799,4347 Z"/>
     <path fill="rgb(217,217,217)" stroke="none" d="M 9799,5166 L 9799,6869 9304,7147 9312,5166 9799,5166 Z M 9316,4347 L 9317,4011 9799,3733 9799,4347 9316,4347 Z M 9799,4381 L 9799,5132 9312,5132 9315,4381 9799,4381 Z"/>
     <path fill="rgb(218,218,218)" stroke="none" d="M 9799,5132 L 9799,6869 9304,7147 9312,5132 9799,5132 Z M 9315,4381 L 9317,4011 9799,3733 9799,4381 9315,4381 Z M 9793,4415 L 9793,5098 9312,5098 9315,4415 9793,4415 Z"/>
     <path fill="rgb(219,219,219)" stroke="none" d="M 9793,5098 L 9793,4415 9315,4415 9317,4011 9799,3733 9799,6869 9304,7147 9312,5098 9793,5098 Z M 9759,4449 L 9759,5064 9313,5064 9315,4449 9759,4449 Z"/>
     <path fill="rgb(220,220,220)" stroke="none" d="M 9759,5064 L 9759,4449 9315,4449 9317,4011 9799,3733 9799,6869 9304,7147 9313,5064 9759,5064 Z M 9724,4484 L 9724,5029 9313,5029 9315,4484 9724,4484 Z"/>
     <path fill="rgb(221,221,221)" stroke="none" d="M 9724,5029 L 9724,4484 9315,4484 9317,4011 9799,3733 9799,6869 9304,7147 9313,5029 9724,5029 Z M 9690,4518 L 9690,4995 9313,4995 9315,4518 9690,4518 Z"/>
     <path fill="rgb(222,222,222)" stroke="none" d="M 9690,4995 L 9690,4518 9315,4518 9317,4011 9799,3733 9799,6869 9304,7147 9313,4995 9690,4995 Z M 9656,4552 L 9656,4961 9313,4961 9315,4552 9656,4552 Z"/>
     <path fill="rgb(223,223,223)" stroke="none" d="M 9656,4961 L 9656,4552 9315,4552 9317,4011 9799,3733 9799,6869 9304,7147 9313,4961 9656,4961 Z M 9622,4586 L 9622,4927 9313,4927 9315,4586 9622,4586 Z"/>
     <path fill="rgb(224,224,224)" stroke="none" d="M 9622,4927 L 9622,4586 9315,4586 9317,4011 9799,3733 9799,6869 9304,7147 9313,4927 9622,4927 Z M 9315,4620 L 9588,4620 9588,4893 9315,4893 9315,4620 Z"/>
     <path fill="rgb(225,225,225)" stroke="none" d="M 9315,4620 L 9315,4893 9588,4893 9588,4620 9315,4620 Z M 9349,4654 L 9554,4654 9554,4859 9349,4859 9349,4654 Z M 9304,7147 L 9317,4011 9799,3733 9799,6869 9304,7147 Z"/>
     <path fill="rgb(226,226,226)" stroke="none" d="M 9349,4654 L 9349,4859 9554,4859 9554,4654 9349,4654 Z M 9384,4689 L 9519,4689 9519,4824 9384,4824 9384,4689 Z M 9304,7147 L 9317,4011 9799,3733 9799,6869 9304,7147 Z"/>
     <path fill="rgb(227,227,227)" stroke="none" d="M 9384,4689 L 9384,4824 9519,4824 9519,4689 9384,4689 Z M 9418,4723 L 9485,4723 9485,4790 9418,4790 9418,4723 Z M 9304,7147 L 9317,4011 9799,3733 9799,6869 9304,7147 Z"/>
     <path fill="rgb(229,229,229)" stroke="none" d="M 9418,4723 L 9418,4790 9485,4790 9485,4723 9418,4723 Z M 9304,7147 L 9317,4011 9799,3733 9799,6869 9304,7147 Z"/>
     <path fill="none" stroke="rgb(255,255,255)" id="Drawing_5_0" stroke-width="40" stroke-linejoin="round" d="M 9304,7147 L 9317,4011 9799,3733 9799,6869 9304,7147 Z"/>
    </g>
    <g>
     <defs>
      <linearGradient id="Gradient_710" gradientUnits="userSpaceOnUse" x1="7749" y1="1643" x2="7749" y2="4012">
       <stop offset="0.1" stop-color="rgb(179,179,179)"/>
       <stop offset="1" stop-color="rgb(229,229,229)"/>
      </linearGradient>
     </defs>
     <path fill="url(#Gradient_710)" stroke="rgb(255,255,255)" id="Drawing_6_0" stroke-width="40" stroke-linejoin="round" d="M 9316,4012 L 5700,1921 6182,1643 9798,3733 9316,4012 Z"/>
    </g>
    <g>
     <defs>
      <linearGradient id="Gradient_711" gradientUnits="userSpaceOnUse" x1="7328" y1="1643" x2="7328" y2="3942">
       <stop offset="0.1" stop-color="rgb(179,179,179)"/>
       <stop offset="1" stop-color="rgb(229,229,229)"/>
      </linearGradient>
     </defs>
     <path fill="url(#Gradient_711)" stroke="rgb(255,255,255)" id="Drawing_7_0" stroke-width="40" stroke-linejoin="round" d="M 9196,3942 L 5339,1712 5459,1643 9317,3873 9196,3942 Z"/>
    </g>
    <g>
     <path fill="rgb(179,179,179)" stroke="none" d="M 9186,6681 L 9196,3942 9316,3873 9316,6681 9186,6681 Z"/>
     <path fill="rgb(180,180,180)" stroke="none" d="M 9316,6681 L 9316,7357 9183,7427 9186,6681 9316,6681 Z M 9186,6645 L 9196,3942 9316,3873 9316,6645 9186,6645 Z"/>
     <path fill="rgb(181,181,181)" stroke="none" d="M 9316,6645 L 9316,7357 9183,7427 9186,6645 9316,6645 Z M 9186,6610 L 9196,3942 9316,3873 9316,6610 9186,6610 Z"/>
     <path fill="rgb(182,182,182)" stroke="none" d="M 9316,6610 L 9316,7357 9183,7427 9186,6610 9316,6610 Z M 9186,6574 L 9196,3942 9316,3873 9316,6574 9186,6574 Z"/>
     <path fill="rgb(183,183,183)" stroke="none" d="M 9316,6574 L 9316,7357 9183,7427 9186,6574 9316,6574 Z M 9186,6539 L 9196,3942 9316,3873 9316,6539 9186,6539 Z"/>
     <path fill="rgb(184,184,184)" stroke="none" d="M 9316,6539 L 9316,7357 9183,7427 9186,6539 9316,6539 Z M 9186,6503 L 9196,3942 9316,3873 9316,6503 9186,6503 Z"/>
     <path fill="rgb(185,185,185)" stroke="none" d="M 9316,6503 L 9316,7357 9183,7427 9186,6503 9316,6503 Z M 9187,6468 L 9196,3942 9316,3873 9316,6468 9187,6468 Z"/>
     <path fill="rgb(186,186,186)" stroke="none" d="M 9316,6468 L 9316,7357 9183,7427 9187,6468 9316,6468 Z M 9187,6432 L 9196,3942 9316,3873 9316,6432 9187,6432 Z"/>
     <path fill="rgb(187,187,187)" stroke="none" d="M 9316,6432 L 9316,7357 9183,7427 9187,6432 9316,6432 Z M 9187,6396 L 9196,3942 9316,3873 9316,6396 9187,6396 Z"/>
     <path fill="rgb(188,188,188)" stroke="none" d="M 9316,6396 L 9316,7357 9183,7427 9187,6396 9316,6396 Z M 9187,6361 L 9196,3942 9316,3873 9316,6361 9187,6361 Z"/>
     <path fill="rgb(189,189,189)" stroke="none" d="M 9316,6361 L 9316,7357 9183,7427 9187,6361 9316,6361 Z M 9187,6325 L 9196,3942 9316,3873 9316,6325 9187,6325 Z"/>
     <path fill="rgb(190,190,190)" stroke="none" d="M 9316,6325 L 9316,7357 9183,7427 9187,6325 9316,6325 Z M 9187,6290 L 9196,3942 9316,3873 9316,6290 9187,6290 Z"/>
     <path fill="rgb(191,191,191)" stroke="none" d="M 9316,6290 L 9316,7357 9183,7427 9187,6290 9316,6290 Z M 9187,6254 L 9196,3942 9316,3873 9316,6254 9187,6254 Z"/>
     <path fill="rgb(192,192,192)" stroke="none" d="M 9316,6254 L 9316,7357 9183,7427 9187,6254 9316,6254 Z M 9188,6219 L 9196,3942 9316,3873 9316,6219 9188,6219 Z"/>
     <path fill="rgb(193,193,193)" stroke="none" d="M 9316,6219 L 9316,7357 9183,7427 9188,6219 9316,6219 Z M 9188,6183 L 9196,3942 9316,3873 9316,6183 9188,6183 Z"/>
     <path fill="rgb(194,194,194)" stroke="none" d="M 9316,6183 L 9316,7357 9183,7427 9188,6183 9316,6183 Z M 9188,6147 L 9196,3942 9316,3873 9316,6147 9188,6147 Z"/>
     <path fill="rgb(195,195,195)" stroke="none" d="M 9316,6147 L 9316,7357 9183,7427 9188,6147 9316,6147 Z M 9188,6112 L 9196,3942 9316,3873 9316,6112 9188,6112 Z"/>
     <path fill="rgb(196,196,196)" stroke="none" d="M 9316,6112 L 9316,7357 9183,7427 9188,6112 9316,6112 Z M 9188,6076 L 9196,3942 9316,3873 9316,6076 9188,6076 Z"/>
     <path fill="rgb(197,197,197)" stroke="none" d="M 9316,6076 L 9316,7357 9183,7427 9188,6076 9316,6076 Z M 9188,6041 L 9196,3942 9316,3873 9316,6041 9188,6041 Z"/>
     <path fill="rgb(198,198,198)" stroke="none" d="M 9316,6041 L 9316,7357 9183,7427 9188,6041 9316,6041 Z M 9188,6005 L 9196,3942 9316,3873 9316,6005 9188,6005 Z"/>
     <path fill="rgb(199,199,199)" stroke="none" d="M 9316,6005 L 9316,7357 9183,7427 9188,6005 9316,6005 Z M 9316,3907 L 9316,5970 9188,5970 9196,3942 9257,3907 9316,3907 Z"/>
     <path fill="rgb(200,200,200)" stroke="none" d="M 9316,5970 L 9316,7357 9183,7427 9188,5970 9316,5970 Z M 9257,3907 L 9316,3873 9316,3907 9257,3907 Z M 9316,3943 L 9316,5934 9189,5934 9196,3943 9316,3943 Z"/>
     <path fill="rgb(201,201,201)" stroke="none" d="M 9316,5934 L 9316,7357 9183,7427 9189,5934 9316,5934 Z M 9196,3943 L 9196,3942 9316,3873 9316,3943 9196,3943 Z M 9316,3979 L 9316,5898 9189,5898 9196,3979 9316,3979 Z"/>
     <path fill="rgb(202,202,202)" stroke="none" d="M 9316,5898 L 9316,7357 9183,7427 9189,5898 9316,5898 Z M 9196,3979 L 9196,3942 9316,3873 9316,3979 9196,3979 Z M 9316,4014 L 9316,5863 9189,5863 9196,4014 9316,4014 Z"/>
     <path fill="rgb(203,203,203)" stroke="none" d="M 9316,5863 L 9316,7357 9183,7427 9189,5863 9316,5863 Z M 9196,4014 L 9196,3942 9316,3873 9316,4014 9196,4014 Z M 9316,4050 L 9316,5827 9189,5827 9196,4050 9316,4050 Z"/>
     <path fill="rgb(204,204,204)" stroke="none" d="M 9316,5827 L 9316,7357 9183,7427 9189,5827 9316,5827 Z M 9196,4050 L 9196,3942 9316,3873 9316,4050 9196,4050 Z M 9316,4085 L 9316,5792 9189,5792 9195,4085 9316,4085 Z"/>
     <path fill="rgb(205,205,205)" stroke="none" d="M 9316,5792 L 9316,7357 9183,7427 9189,5792 9316,5792 Z M 9195,4085 L 9196,3942 9316,3873 9316,4085 9195,4085 Z M 9316,4121 L 9316,5756 9189,5756 9195,4121 9316,4121 Z"/>
     <path fill="rgb(206,206,206)" stroke="none" d="M 9316,5756 L 9316,7357 9183,7427 9189,5756 9316,5756 Z M 9195,4121 L 9196,3942 9316,3873 9316,4121 9195,4121 Z M 9316,4156 L 9316,5721 9189,5721 9195,4156 9316,4156 Z"/>
     <path fill="rgb(207,207,207)" stroke="none" d="M 9316,5721 L 9316,7357 9183,7427 9189,5721 9316,5721 Z M 9195,4156 L 9196,3942 9316,3873 9316,4156 9195,4156 Z M 9316,4192 L 9316,5685 9189,5685 9195,4192 9316,4192 Z"/>
     <path fill="rgb(208,208,208)" stroke="none" d="M 9316,5685 L 9316,7357 9183,7427 9189,5685 9316,5685 Z M 9195,4192 L 9196,3942 9316,3873 9316,4192 9195,4192 Z M 9316,4228 L 9316,5649 9190,5649 9195,4228 9316,4228 Z"/>
     <path fill="rgb(209,209,209)" stroke="none" d="M 9316,5649 L 9316,7357 9183,7427 9190,5649 9316,5649 Z M 9195,4228 L 9196,3942 9316,3873 9316,4228 9195,4228 Z M 9316,4263 L 9316,5614 9190,5614 9195,4263 9316,4263 Z"/>
     <path fill="rgb(210,210,210)" stroke="none" d="M 9316,5614 L 9316,7357 9183,7427 9190,5614 9316,5614 Z M 9195,4263 L 9196,3942 9316,3873 9316,4263 9195,4263 Z M 9316,4299 L 9316,5578 9190,5578 9195,4299 9316,4299 Z"/>
     <path fill="rgb(211,211,211)" stroke="none" d="M 9316,5578 L 9316,7357 9183,7427 9190,5578 9316,5578 Z M 9195,4299 L 9196,3942 9316,3873 9316,4299 9195,4299 Z M 9316,4334 L 9316,5543 9190,5543 9195,4334 9316,4334 Z"/>
     <path fill="rgb(212,212,212)" stroke="none" d="M 9316,5543 L 9316,7357 9183,7427 9190,5543 9316,5543 Z M 9195,4334 L 9196,3942 9316,3873 9316,4334 9195,4334 Z M 9316,4370 L 9316,5507 9190,5507 9194,4370 9316,4370 Z"/>
     <path fill="rgb(213,213,213)" stroke="none" d="M 9316,5507 L 9316,7357 9183,7427 9190,5507 9316,5507 Z M 9194,4370 L 9196,3942 9316,3873 9316,4370 9194,4370 Z M 9316,4405 L 9316,5472 9190,5472 9194,4405 9316,4405 Z"/>
     <path fill="rgb(214,214,214)" stroke="none" d="M 9316,5472 L 9316,7357 9183,7427 9190,5472 9316,5472 Z M 9194,4405 L 9196,3942 9316,3873 9316,4405 9194,4405 Z M 9316,4441 L 9316,5436 9190,5436 9194,4441 9316,4441 Z"/>
     <path fill="rgb(215,215,215)" stroke="none" d="M 9316,5436 L 9316,7357 9183,7427 9190,5436 9316,5436 Z M 9194,4441 L 9196,3942 9316,3873 9316,4441 9194,4441 Z M 9316,4477 L 9316,5400 9191,5400 9194,4477 9316,4477 Z"/>
     <path fill="rgb(216,216,216)" stroke="none" d="M 9316,5400 L 9316,7357 9183,7427 9191,5400 9316,5400 Z M 9194,4477 L 9196,3942 9316,3873 9316,4477 9194,4477 Z M 9316,4512 L 9316,5365 9191,5365 9194,4512 9316,4512 Z"/>
     <path fill="rgb(217,217,217)" stroke="none" d="M 9316,5365 L 9316,7357 9183,7427 9191,5365 9316,5365 Z M 9194,4512 L 9196,3942 9316,3873 9316,4512 9194,4512 Z M 9316,4548 L 9316,5329 9191,5329 9194,4548 9316,4548 Z"/>
     <path fill="rgb(218,218,218)" stroke="none" d="M 9316,5329 L 9316,7357 9183,7427 9191,5329 9316,5329 Z M 9194,4548 L 9196,3942 9316,3873 9316,4548 9194,4548 Z M 9316,4583 L 9316,5294 9191,5294 9194,4583 9316,4583 Z"/>
     <path fill="rgb(219,219,219)" stroke="none" d="M 9316,5294 L 9316,7357 9183,7427 9191,5294 9316,5294 Z M 9194,4583 L 9196,3942 9316,3873 9316,4583 9194,4583 Z M 9316,4619 L 9316,5258 9191,5258 9193,4619 9316,4619 Z"/>
     <path fill="rgb(220,220,220)" stroke="none" d="M 9316,5258 L 9316,7357 9183,7427 9191,5258 9316,5258 Z M 9193,4619 L 9196,3942 9316,3873 9316,4619 9193,4619 Z M 9316,4654 L 9316,5223 9191,5223 9193,4654 9316,4654 Z"/>
     <path fill="rgb(221,221,221)" stroke="none" d="M 9316,5223 L 9316,7357 9183,7427 9191,5223 9316,5223 Z M 9193,4654 L 9196,3942 9316,3873 9316,4654 9193,4654 Z M 9316,4690 L 9316,5187 9191,5187 9193,4690 9316,4690 Z"/>
     <path fill="rgb(222,222,222)" stroke="none" d="M 9316,5187 L 9316,7357 9183,7427 9191,5187 9316,5187 Z M 9193,4690 L 9196,3942 9316,3873 9316,4690 9193,4690 Z M 9316,4726 L 9316,5151 9191,5151 9193,4726 9316,4726 Z"/>
     <path fill="rgb(223,223,223)" stroke="none" d="M 9316,5151 L 9316,7357 9183,7427 9191,5151 9316,5151 Z M 9193,4726 L 9196,3942 9316,3873 9316,4726 9193,4726 Z M 9316,4761 L 9316,5116 9192,5116 9193,4761 9316,4761 Z"/>
     <path fill="rgb(224,224,224)" stroke="none" d="M 9316,5116 L 9316,7357 9183,7427 9192,5116 9316,5116 Z M 9193,4761 L 9196,3942 9316,3873 9316,4761 9193,4761 Z M 9316,4797 L 9316,5080 9192,5080 9193,4797 9316,4797 Z"/>
     <path fill="rgb(225,225,225)" stroke="none" d="M 9316,5080 L 9316,7357 9183,7427 9192,5080 9316,5080 Z M 9193,4797 L 9196,3942 9316,3873 9316,4797 9193,4797 Z M 9316,4832 L 9316,5045 9192,5045 9193,4832 9316,4832 Z"/>
     <path fill="rgb(226,226,226)" stroke="none" d="M 9316,5045 L 9316,7357 9183,7427 9192,5045 9316,5045 Z M 9193,4832 L 9196,3942 9316,3873 9316,4832 9193,4832 Z M 9292,4868 L 9292,5009 9192,5009 9193,4868 9292,4868 Z"/>
     <path fill="rgb(227,227,227)" stroke="none" d="M 9292,5009 L 9292,4868 9193,4868 9196,3942 9316,3873 9316,7357 9183,7427 9192,5009 9292,5009 Z M 9257,4903 L 9257,4974 9192,4974 9192,4903 9257,4903 Z"/>
     <path fill="rgb(229,229,229)" stroke="none" d="M 9257,4974 L 9257,4903 9192,4903 9196,3942 9316,3873 9316,7357 9183,7427 9192,4974 9257,4974 Z"/>
     <path fill="none" stroke="rgb(255,255,255)" id="Drawing_8_0" stroke-width="40" stroke-linejoin="round" d="M 9183,7427 L 9196,3942 9316,3873 9316,7357 9183,7427 Z"/>
    </g>
    <g>
     <path fill="none" stroke="rgb(127,127,127)" id="Drawing_9_0" stroke-width="40" stroke-linejoin="round" d="M 5941,1852 L 9437,3873"/>
    </g>
    <g>
     <path fill="none" stroke="rgb(127,127,127)" id="Drawing_10_0" stroke-width="40" stroke-linejoin="round" d="M 6182,1712 L 9678,3733"/>
    </g>
    <g>
     <path fill="none" stroke="rgb(127,127,127)" id="Drawing_11_0" stroke-width="40" stroke-linejoin="round" d="M 6062,1783 L 9558,3804"/>
    </g>
    <g>
     <path fill="rgb(127,127,127)" stroke="none" d="M 5580,4988 L 5580,4848 5821,4988 5821,5126 5580,4988 Z"/>
     <path fill="none" stroke="rgb(255,255,255)" id="Drawing_12_0" stroke-width="40" stroke-linejoin="round" d="M 5580,4988 L 5580,4848 5821,4988 5821,5126 5580,4988 Z"/>
    </g>
    <g>
     <path fill="rgb(127,127,127)" stroke="none" d="M 5941,5197 L 5941,5057 6182,5197 6182,5335 5941,5197 Z"/>
     <path fill="none" stroke="rgb(255,255,255)" id="Drawing_13_0" stroke-width="40" stroke-linejoin="round" d="M 5941,5197 L 5941,5057 6182,5197 6182,5335 5941,5197 Z"/>
    </g>
    <g>
     <path fill="rgb(127,127,127)" stroke="none" d="M 6304,5406 L 6304,5266 6545,5406 6545,5544 6304,5406 Z"/>
     <path fill="none" stroke="rgb(255,255,255)" id="Drawing_14_0" stroke-width="40" stroke-linejoin="round" d="M 6304,5406 L 6304,5266 6545,5406 6545,5544 6304,5406 Z"/>
    </g>
    <g>
     <path fill="rgb(127,127,127)" stroke="none" d="M 6665,5615 L 6665,5475 6906,5615 6906,5753 6665,5615 Z"/>
     <path fill="none" stroke="rgb(255,255,255)" id="Drawing_15_0" stroke-width="40" stroke-linejoin="round" d="M 6665,5615 L 6665,5475 6906,5615 6906,5753 6665,5615 Z"/>
    </g>
    <g>
     <path fill="rgb(127,127,127)" stroke="none" d="M 7027,5825 L 7027,5685 7268,5825 7268,5963 7027,5825 Z"/>
     <path fill="none" stroke="rgb(255,255,255)" id="Drawing_16_0" stroke-width="40" stroke-linejoin="round" d="M 7027,5825 L 7027,5685 7268,5825 7268,5963 7027,5825 Z"/>
    </g>
    <g>
     <path fill="rgb(127,127,127)" stroke="none" d="M 7388,6034 L 7388,5894 7629,6034 7629,6172 7388,6034 Z"/>
     <path fill="none" stroke="rgb(255,255,255)" id="Drawing_17_0" stroke-width="40" stroke-linejoin="round" d="M 7388,6034 L 7388,5894 7629,6034 7629,6172 7388,6034 Z"/>
    </g>
    <g>
     <path fill="rgb(127,127,127)" stroke="none" d="M 7749,6242 L 7749,6102 7990,6242 7990,6380 7749,6242 Z"/>
     <path fill="none" stroke="rgb(255,255,255)" id="Drawing_18_0" stroke-width="40" stroke-linejoin="round" d="M 7749,6242 L 7749,6102 7990,6242 7990,6380 7749,6242 Z"/>
    </g>
    <g>
     <path fill="rgb(255,255,255)" stroke="none" d="M 8353,6591 L 8353,6451 8594,6591 8594,6729 8353,6591 Z"/>
     <path fill="none" stroke="rgb(127,127,127)" id="Drawing_19_0" stroke-width="40" stroke-linejoin="round" d="M 8353,6591 L 8353,6451 8594,6591 8594,6729 8353,6591 Z"/>
    </g>
    <g>
     <path fill="rgb(255,255,255)" stroke="none" d="M 8835,4152 L 8835,4012 9076,4152 9076,4290 8835,4152 Z"/>
     <path fill="none" stroke="rgb(127,127,127)" id="Drawing_20_0" stroke-width="40" stroke-linejoin="round" d="M 8835,4152 L 8835,4012 9076,4152 9076,4290 8835,4152 Z"/>
    </g>
    <g>
     <path fill="rgb(255,255,255)" stroke="none" d="M 8835,4361 L 8835,4221 9076,4361 9076,4499 8835,4361 Z"/>
     <path fill="none" stroke="rgb(127,127,127)" id="Drawing_21_0" stroke-width="40" stroke-linejoin="round" d="M 8835,4361 L 8835,4221 9076,4361 9076,4499 8835,4361 Z"/>
    </g>
    <g>
     <path fill="rgb(255,255,255)" stroke="none" d="M 8835,4570 L 8835,4430 9076,4570 9076,4708 8835,4570 Z"/>
     <path fill="none" stroke="rgb(127,127,127)" id="Drawing_22_0" stroke-width="40" stroke-linejoin="round" d="M 8835,4570 L 8835,4430 9076,4570 9076,4708 8835,4570 Z"/>
    </g>
    <g>
     <path fill="rgb(255,255,255)" stroke="none" d="M 8835,4779 L 8835,4639 9076,4779 9076,4917 8835,4779 Z"/>
     <path fill="none" stroke="rgb(127,127,127)" id="Drawing_23_0" stroke-width="40" stroke-linejoin="round" d="M 8835,4779 L 8835,4639 9076,4779 9076,4917 8835,4779 Z"/>
    </g>
    <g>
     <path fill="rgb(255,255,255)" stroke="none" d="M 8835,4988 L 8835,4848 9076,4988 9076,5126 8835,4988 Z"/>
     <path fill="none" stroke="rgb(127,127,127)" id="Drawing_24_0" stroke-width="40" stroke-linejoin="round" d="M 8835,4988 L 8835,4848 9076,4988 9076,5126 8835,4988 Z"/>
    </g>
    <g>
     <path fill="rgb(255,255,255)" stroke="none" d="M 8835,5197 L 8835,5057 9076,5197 9076,5335 8835,5197 Z"/>
     <path fill="none" stroke="rgb(127,127,127)" id="Drawing_25_0" stroke-width="40" stroke-linejoin="round" d="M 8835,5197 L 8835,5057 9076,5197 9076,5335 8835,5197 Z"/>
    </g>
    <g>
     <path fill="rgb(255,255,255)" stroke="none" d="M 8835,5406 L 8835,5266 9076,5406 9076,5544 8835,5406 Z"/>
     <path fill="none" stroke="rgb(127,127,127)" id="Drawing_26_0" stroke-width="40" stroke-linejoin="round" d="M 8835,5406 L 8835,5266 9076,5406 9076,5544 8835,5406 Z"/>
    </g>
    <g>
     <path fill="rgb(255,255,255)" stroke="none" d="M 8835,5615 L 8835,5475 9076,5615 9076,5753 8835,5615 Z"/>
     <path fill="none" stroke="rgb(127,127,127)" id="Drawing_27_0" stroke-width="40" stroke-linejoin="round" d="M 8835,5615 L 8835,5475 9076,5615 9076,5753 8835,5615 Z"/>
    </g>
    <g>
     <path fill="rgb(255,255,255)" stroke="none" d="M 8835,5825 L 8835,5685 9076,5825 9076,5963 8835,5825 Z"/>
     <path fill="none" stroke="rgb(127,127,127)" id="Drawing_28_0" stroke-width="40" stroke-linejoin="round" d="M 8835,5825 L 8835,5685 9076,5825 9076,5963 8835,5825 Z"/>
    </g>
    <g>
     <path fill="rgb(127,127,127)" stroke="none" d="M 8955,6939 L 8955,6799 9075,6868 9075,7008 8955,6939 Z"/>
     <path fill="none" stroke="rgb(127,127,127)" id="Drawing_29_0" stroke-width="40" stroke-linejoin="round" d="M 8955,6939 L 8955,6799 9075,6868 9075,7008 8955,6939 Z"/>
    </g>
    <g>
     <path fill="rgb(255,255,255)" stroke="none" d="M 8835,6034 L 8835,5894 9076,6034 9076,6172 8835,6034 Z"/>
     <path fill="none" stroke="rgb(127,127,127)" id="Drawing_30_0" stroke-width="40" stroke-linejoin="round" d="M 8835,6034 L 8835,5894 9076,6034 9076,6172 8835,6034 Z"/>
    </g>
    <g>
     <path fill="rgb(255,255,255)" stroke="none" d="M 8835,6242 L 8835,6102 9076,6242 9076,6380 8835,6242 Z"/>
     <path fill="none" stroke="rgb(127,127,127)" id="Drawing_31_0" stroke-width="40" stroke-linejoin="round" d="M 8835,6242 L 8835,6102 9076,6242 9076,6380 8835,6242 Z"/>
    </g>
    <g>
     <path fill="rgb(255,255,255)" stroke="none" d="M 8835,6451 L 8835,6311 9076,6451 9076,6589 8835,6451 Z"/>
     <path fill="none" stroke="rgb(127,127,127)" id="Drawing_32_0" stroke-width="40" stroke-linejoin="round" d="M 8835,6451 L 8835,6311 9076,6451 9076,6589 8835,6451 Z"/>
    </g>
    <g>
     <path fill="rgb(255,255,255)" stroke="none" d="M 8835,6660 L 8835,6520 9076,6660 9076,6798 8835,6660 Z"/>
     <path fill="none" stroke="rgb(127,127,127)" id="Drawing_33_0" stroke-width="40" stroke-linejoin="round" d="M 8835,6660 L 8835,6520 9076,6660 9076,6798 8835,6660 Z"/>
    </g>
    <g>
     <path fill="none" stroke="rgb(0,0,0)" id="Drawing_34_0" stroke-width="40" stroke-linejoin="round" d="M 5459,1643 L 5821,1852 6182,1643 9799,3733 9799,6869 9317,7147 9317,7356 9183,7426 5339,5197 5339,1712 5459,1643 Z"/>
    </g>
    <g>
     <path fill="rgb(255,255,255)" stroke="none" d="M 8353,6869 L 8353,6729 8594,6869 8594,7007 8353,6869 Z"/>
     <path fill="none" stroke="rgb(127,127,127)" id="Drawing_35_0" stroke-width="40" stroke-linejoin="round" d="M 8353,6869 L 8353,6729 8594,6869 8594,7007 8353,6869 Z"/>
    </g>
    <g>
     <path fill="rgb(255,255,255)" stroke="none" d="M 8112,6591 L 8112,6451 8353,6591 8353,6729 8112,6591 Z"/>
     <path fill="none" stroke="rgb(127,127,127)" id="Drawing_36_0" stroke-width="40" stroke-linejoin="round" d="M 8112,6591 L 8112,6451 8353,6591 8353,6729 8112,6591 Z"/>
    </g>
    <g>
     <path fill="rgb(255,255,255)" stroke="none" d="M 8594,6869 L 8594,6729 8835,6869 8835,7007 8594,6869 Z"/>
     <path fill="none" stroke="rgb(127,127,127)" id="Drawing_37_0" stroke-width="40" stroke-linejoin="round" d="M 8594,6869 L 8594,6729 8835,6869 8835,7007 8594,6869 Z"/>
    </g>
    <g>
     <path fill="rgb(255,0,0)" stroke="none" d="M 8955,7148 L 8955,7008 9075,7077 9075,7217 8955,7148 Z"/>
     <path fill="none" stroke="rgb(127,127,127)" id="Drawing_38_0" stroke-width="40" stroke-linejoin="round" d="M 8955,7148 L 8955,7008 9075,7077 9075,7217 8955,7148 Z"/>
    </g>
   </g>
  </g>
 </g>
</svg>