<?xml version="1.0" encoding="UTF-8"?>

<svg version="1.2" baseProfile="tiny" width="31.71mm" height="33.9mm" viewBox="4340 8699 3171 3390" preserveAspectRatio="xMidYMid" fill-rule="evenodd" stroke-width="28.222" stroke-linejoin="round" xmlns="http://www.w3.org/2000/svg" xmlns:xlink="http://www.w3.org/1999/xlink" xml:space="preserve">
 <g visibility="visible" id="Slide_1">
  <g id="DrawingGroup_1">
   <g>
    <path fill="rgb(221,221,221)" stroke="none" d="M 6494,12069 C 6840,12069 7510,11851 7510,11632 7510,11413 7478,11268 7132,11268 7132,11487 6363,11341 6494,12069 Z"/>
    <path fill="none" stroke="rgb(221,221,221)" id="Drawing_1_0" stroke-linejoin="round" d="M 6494,12069 C 6840,12069 7510,11851 7510,11632 7510,11413 7478,11268 7132,11268 7132,11487 6363,11341 6494,12069 Z"/>
   </g>
   <g id="DrawingGroup_2">
    <g>
     <defs>
      <linearGradient id="Gradient_720" gradientUnits="userSpaceOnUse" x1="5935" y1="8719" x2="5935" y2="10103">
       <stop offset="0.1" stop-color="rgb(51,51,51)"/>
       <stop offset="1" stop-color="rgb(153,153,153)"/>
      </linearGradient>
     </defs>
     <path fill="url(#Gradient_720)" stroke="rgb(178,178,178)" id="Drawing_2_0" stroke-width="40" stroke-linejoin="round" d="M 6628,10103 L 4738,9010 5242,8719 7133,9811 6628,10103 Z"/>
    </g>
    <g>
     <defs>
      <linearGradient id="Gradient_721" gradientUnits="userSpaceOnUse" x1="4357" y1="10428" x2="6505" y2="10432">
       <stop offset="0.1" stop-color="rgb(51,51,51)"/>
       <stop offset="1" stop-color="rgb(153,153,153)"/>
      </linearGradient>
     </defs>
     <path fill="url(#Gradient_721)" stroke="rgb(178,178,178)" id="Drawing_3_0" stroke-width="40" stroke-linejoin="round" d="M 4360,10831 L 4360,8792 6502,10030 6502,12069 4360,10831 Z"/>
    </g>
    <g>
     <defs>
      <linearGradient id="Gradient_722" gradientUnits="userSpaceOnUse" x1="4610" y1="10247" x2="6000" y2="10249">
       <stop offset="0.1" stop-color="rgb(147,212,240)"/>
       <stop offset="1" stop-color="rgb(233,246,252)"/>
      </linearGradient>
     </defs>
     <path fill="url(#Gradient_722)" stroke="rgb(102,102,102)" id="Drawing_4_0" stroke-width="40" stroke-linejoin="round" d="M 4612,10467 L 4612,9229 5998,10030 5998,11268 4612,10467 Z"/>
    </g>
    <g>
     <path fill="rgb(116,203,128)" stroke="none" d="M 6125,11559 L 6125,11414 6377,11559 6377,11705 6125,11559 Z"/>
     <path fill="none" stroke="rgb(102,102,102)" id="Drawing_5_0" stroke-width="40" stroke-linejoin="round" d="M 6125,11559 L 6125,11414 6377,11559 6377,11705 6125,11559 Z"/>
    </g>
    <g>
     <path fill="rgb(51,51,51)" stroke="none" d="M 6618,11431 L 6628,10102 7133,9811 7133,11431 6618,11431 Z"/>
     <path fill="rgb(52,52,52)" stroke="none" d="M 7133,11431 L 7133,11559 6615,11850 6618,11431 7133,11431 Z M 6618,11421 L 6628,10102 7133,9811 7133,11421 6618,11421 Z"/>
     <path fill="rgb(53,53,53)" stroke="none" d="M 7133,11421 L 7133,11559 6615,11850 6618,11421 7133,11421 Z M 6618,11411 L 6628,10102 7133,9811 7133,11411 6618,11411 Z"/>
     <path fill="rgb(54,54,54)" stroke="none" d="M 7133,11411 L 7133,11559 6615,11850 6618,11411 7133,11411 Z M 6618,11401 L 6628,10102 7133,9811 7133,11401 6618,11401 Z"/>
     <path fill="rgb(55,55,55)" stroke="none" d="M 7133,11401 L 7133,11559 6615,11850 6618,11401 7133,11401 Z M 6618,11391 L 6628,10102 7133,9811 7133,11391 6618,11391 Z"/>
     <path fill="rgb(56,56,56)" stroke="none" d="M 7133,11391 L 7133,11559 6615,11850 6618,11391 7133,11391 Z M 6618,11381 L 6628,10102 7133,9811 7133,11381 6618,11381 Z"/>
     <path fill="rgb(57,57,57)" stroke="none" d="M 7133,11381 L 7133,11559 6615,11850 6618,11381 7133,11381 Z M 6619,11371 L 6628,10102 7133,9811 7133,11371 6619,11371 Z"/>
     <path fill="rgb(58,58,58)" stroke="none" d="M 7133,11371 L 7133,11559 6615,11850 6619,11371 7133,11371 Z M 6619,11361 L 6628,10102 7133,9811 7133,11361 6619,11361 Z"/>
     <path fill="rgb(59,59,59)" stroke="none" d="M 7133,11361 L 7133,11559 6615,11850 6619,11361 7133,11361 Z M 6619,11351 L 6628,10102 7133,9811 7133,11351 6619,11351 Z"/>
     <path fill="rgb(60,60,60)" stroke="none" d="M 7133,11351 L 7133,11559 6615,11850 6619,11351 7133,11351 Z M 6619,11341 L 6628,10102 7133,9811 7133,11341 6619,11341 Z"/>
     <path fill="rgb(61,61,61)" stroke="none" d="M 7133,11341 L 7133,11559 6615,11850 6619,11341 7133,11341 Z M 6619,11331 L 6628,10102 7133,9811 7133,11331 6619,11331 Z"/>
     <path fill="rgb(62,62,62)" stroke="none" d="M 7133,11331 L 7133,11559 6615,11850 6619,11331 7133,11331 Z M 6619,11321 L 6628,10102 7133,9811 7133,11321 6619,11321 Z"/>
     <path fill="rgb(63,63,63)" stroke="none" d="M 7133,11321 L 7133,11559 6615,11850 6619,11321 7133,11321 Z M 6619,11311 L 6628,10102 7133,9811 7133,11311 6619,11311 Z"/>
     <path fill="rgb(64,64,64)" stroke="none" d="M 7133,11311 L 7133,11559 6615,11850 6619,11311 7133,11311 Z M 6619,11301 L 6628,10102 7133,9811 7133,11301 6619,11301 Z"/>
     <path fill="rgb(65,65,65)" stroke="none" d="M 7133,11301 L 7133,11559 6615,11850 6619,11301 7133,11301 Z M 6619,11291 L 6628,10102 7133,9811 7133,11291 6619,11291 Z"/>
     <path fill="rgb(66,66,66)" stroke="none" d="M 7133,11291 L 7133,11559 6615,11850 6619,11291 7133,11291 Z M 6619,11281 L 6628,10102 7133,9811 7133,11281 6619,11281 Z"/>
     <path fill="rgb(67,67,67)" stroke="none" d="M 7133,11281 L 7133,11559 6615,11850 6619,11281 7133,11281 Z M 6619,11271 L 6628,10102 7133,9811 7133,11271 6619,11271 Z"/>
     <path fill="rgb(68,68,68)" stroke="none" d="M 7133,11271 L 7133,11559 6615,11850 6619,11271 7133,11271 Z M 6619,11261 L 6628,10102 7133,9811 7133,11261 6619,11261 Z"/>
     <path fill="rgb(69,69,69)" stroke="none" d="M 7133,11261 L 7133,11559 6615,11850 6619,11261 7133,11261 Z M 6619,11251 L 6628,10102 7133,9811 7133,11251 6619,11251 Z"/>
     <path fill="rgb(70,70,70)" stroke="none" d="M 7133,11251 L 7133,11559 6615,11850 6619,11251 7133,11251 Z M 6620,11241 L 6628,10102 7133,9811 7133,11241 6620,11241 Z"/>
     <path fill="rgb(71,71,71)" stroke="none" d="M 7133,11241 L 7133,11559 6615,11850 6620,11241 7133,11241 Z M 6620,11231 L 6628,10102 7133,9811 7133,11231 6620,11231 Z"/>
     <path fill="rgb(72,72,72)" stroke="none" d="M 7133,11231 L 7133,11559 6615,11850 6620,11231 7133,11231 Z M 6620,11221 L 6628,10102 7133,9811 7133,11221 6620,11221 Z"/>
     <path fill="rgb(73,73,73)" stroke="none" d="M 7133,11221 L 7133,11559 6615,11850 6620,11221 7133,11221 Z M 6620,11211 L 6628,10102 7133,9811 7133,11211 6620,11211 Z"/>
     <path fill="rgb(74,74,74)" stroke="none" d="M 7133,11211 L 7133,11559 6615,11850 6620,11211 7133,11211 Z M 6620,11201 L 6628,10102 7133,9811 7133,11201 6620,11201 Z"/>
     <path fill="rgb(75,75,75)" stroke="none" d="M 7133,11201 L 7133,11559 6615,11850 6620,11201 7133,11201 Z M 6620,11191 L 6628,10102 7133,9811 7133,11191 6620,11191 Z"/>
     <path fill="rgb(76,76,76)" stroke="none" d="M 7133,11191 L 7133,11559 6615,11850 6620,11191 7133,11191 Z M 6620,11181 L 6628,10102 7133,9811 7133,11181 6620,11181 Z"/>
     <path fill="rgb(77,77,77)" stroke="none" d="M 7133,11181 L 7133,11559 6615,11850 6620,11181 7133,11181 Z M 6620,11171 L 6628,10102 7133,9811 7133,11171 6620,11171 Z"/>
     <path fill="rgb(78,78,78)" stroke="none" d="M 7133,11171 L 7133,11559 6615,11850 6620,11171 7133,11171 Z M 6620,11161 L 6628,10102 7133,9811 7133,11161 6620,11161 Z"/>
     <path fill="rgb(79,79,79)" stroke="none" d="M 7133,11161 L 7133,11559 6615,11850 6620,11161 7133,11161 Z M 6620,11151 L 6628,10102 7133,9811 7133,11151 6620,11151 Z"/>
     <path fill="rgb(80,80,80)" stroke="none" d="M 7133,11151 L 7133,11559 6615,11850 6620,11151 7133,11151 Z M 6620,11141 L 6628,10102 7133,9811 7133,11141 6620,11141 Z"/>
     <path fill="rgb(81,81,81)" stroke="none" d="M 7133,11141 L 7133,11559 6615,11850 6620,11141 7133,11141 Z M 6620,11131 L 6628,10102 7133,9811 7133,11131 6620,11131 Z"/>
     <path fill="rgb(82,82,82)" stroke="none" d="M 7133,11131 L 7133,11559 6615,11850 6620,11131 7133,11131 Z M 6620,11121 L 6628,10102 7133,9811 7133,11121 6620,11121 Z"/>
     <path fill="rgb(83,83,83)" stroke="none" d="M 7133,11121 L 7133,11559 6615,11850 6620,11121 7133,11121 Z M 6620,11111 L 6628,10102 7133,9811 7133,11111 6620,11111 Z"/>
     <path fill="rgb(84,84,84)" stroke="none" d="M 7133,11111 L 7133,11559 6615,11850 6620,11111 7133,11111 Z M 6621,11101 L 6628,10102 7133,9811 7133,11101 6621,11101 Z"/>
     <path fill="rgb(85,85,85)" stroke="none" d="M 7133,11101 L 7133,11559 6615,11850 6621,11101 7133,11101 Z M 6621,11091 L 6628,10102 7133,9811 7133,11091 6621,11091 Z"/>
     <path fill="rgb(86,86,86)" stroke="none" d="M 7133,11091 L 7133,11559 6615,11850 6621,11091 7133,11091 Z M 6621,11081 L 6628,10102 7133,9811 7133,11081 6621,11081 Z"/>
     <path fill="rgb(87,87,87)" stroke="none" d="M 7133,11081 L 7133,11559 6615,11850 6621,11081 7133,11081 Z M 6621,11071 L 6628,10102 7133,9811 7133,11071 6621,11071 Z"/>
     <path fill="rgb(88,88,88)" stroke="none" d="M 7133,11071 L 7133,11559 6615,11850 6621,11071 7133,11071 Z M 6621,11061 L 6628,10102 7133,9811 7133,11061 6621,11061 Z"/>
     <path fill="rgb(89,89,89)" stroke="none" d="M 7133,11061 L 7133,11559 6615,11850 6621,11061 7133,11061 Z M 6621,11051 L 6628,10102 7133,9811 7133,11051 6621,11051 Z"/>
     <path fill="rgb(90,90,90)" stroke="none" d="M 7133,11051 L 7133,11559 6615,11850 6621,11051 7133,11051 Z M 6621,11041 L 6628,10102 7133,9811 7133,11041 6621,11041 Z"/>
     <path fill="rgb(91,91,91)" stroke="none" d="M 7133,11041 L 7133,11559 6615,11850 6621,11041 7133,11041 Z M 6621,11031 L 6628,10102 7133,9811 7133,11031 6621,11031 Z"/>
     <path fill="rgb(92,92,92)" stroke="none" d="M 7133,11031 L 7133,11559 6615,11850 6621,11031 7133,11031 Z M 7133,9821 L 7133,11021 6621,11021 6628,10102 7116,9821 7133,9821 Z"/>
     <path fill="rgb(93,93,93)" stroke="none" d="M 7133,11021 L 7133,11559 6615,11850 6621,11021 7133,11021 Z M 7116,9821 L 7133,9811 7133,9821 7116,9821 Z M 7133,9831 L 7133,11011 6621,11011 6628,10102 7098,9831 7133,9831 Z"/>
     <path fill="rgb(94,94,94)" stroke="none" d="M 7133,11011 L 7133,11559 6615,11850 6621,11011 7133,11011 Z M 7098,9831 L 7133,9811 7133,9831 7098,9831 Z M 7133,9841 L 7133,11001 6621,11001 6628,10102 7081,9841 7133,9841 Z"/>
     <path fill="rgb(95,95,95)" stroke="none" d="M 7133,11001 L 7133,11559 6615,11850 6621,11001 7133,11001 Z M 7081,9841 L 7133,9811 7133,9841 7081,9841 Z M 7133,9851 L 7133,10991 6621,10991 6628,10102 7064,9851 7133,9851 Z"/>
     <path fill="rgb(96,96,96)" stroke="none" d="M 7133,10991 L 7133,11559 6615,11850 6621,10991 7133,10991 Z M 7064,9851 L 7133,9811 7133,9851 7064,9851 Z M 7133,9861 L 7133,10981 6621,10981 6628,10102 7046,9861 7133,9861 Z"/>
     <path fill="rgb(97,97,97)" stroke="none" d="M 7133,10981 L 7133,11559 6615,11850 6621,10981 7133,10981 Z M 7046,9861 L 7133,9811 7133,9861 7046,9861 Z M 7133,9871 L 7133,10971 6622,10971 6628,10102 7029,9871 7133,9871 Z"/>
     <path fill="rgb(98,98,98)" stroke="none" d="M 7133,10971 L 7133,11559 6615,11850 6622,10971 7133,10971 Z M 7029,9871 L 7133,9811 7133,9871 7029,9871 Z M 7133,9881 L 7133,10961 6622,10961 6628,10102 7012,9881 7133,9881 Z"/>
     <path fill="rgb(99,99,99)" stroke="none" d="M 7133,10961 L 7133,11559 6615,11850 6622,10961 7133,10961 Z M 7012,9881 L 7133,9811 7133,9881 7012,9881 Z M 7133,9891 L 7133,10951 6622,10951 6628,10102 6994,9891 7133,9891 Z"/>
     <path fill="rgb(100,100,100)" stroke="none" d="M 7133,10951 L 7133,11559 6615,11850 6622,10951 7133,10951 Z M 6994,9891 L 7133,9811 7133,9891 6994,9891 Z M 7133,9901 L 7133,10941 6622,10941 6628,10102 6977,9901 7133,9901 Z"/>
     <path fill="rgb(101,101,101)" stroke="none" d="M 7133,10941 L 7133,11559 6615,11850 6622,10941 7133,10941 Z M 6977,9901 L 7133,9811 7133,9901 6977,9901 Z M 7133,9911 L 7133,10931 6622,10931 6628,10102 6959,9911 7133,9911 Z"/>
     <path fill="rgb(102,102,102)" stroke="none" d="M 7133,10931 L 7133,11559 6615,11850 6622,10931 7133,10931 Z M 6959,9911 L 7133,9811 7133,9911 6959,9911 Z M 7133,9921 L 7133,10921 6622,10921 6628,10102 6942,9921 7133,9921 Z"/>
     <path fill="rgb(103,103,103)" stroke="none" d="M 7133,10921 L 7133,11559 6615,11850 6622,10921 7133,10921 Z M 6942,9921 L 7133,9811 7133,9921 6942,9921 Z M 7133,9931 L 7133,10911 6622,10911 6628,10102 6925,9931 7133,9931 Z"/>
     <path fill="rgb(104,104,104)" stroke="none" d="M 7133,10911 L 7133,11559 6615,11850 6622,10911 7133,10911 Z M 6925,9931 L 7133,9811 7133,9931 6925,9931 Z M 7133,9941 L 7133,10901 6622,10901 6628,10102 6907,9941 7133,9941 Z"/>
     <path fill="rgb(105,105,105)" stroke="none" d="M 7133,10901 L 7133,11559 6615,11850 6622,10901 7133,10901 Z M 6907,9941 L 7133,9811 7133,9941 6907,9941 Z M 7133,9951 L 7133,10891 6622,10891 6628,10102 6890,9951 7133,9951 Z"/>
     <path fill="rgb(106,106,106)" stroke="none" d="M 7133,10891 L 7133,11559 6615,11850 6622,10891 7133,10891 Z M 6890,9951 L 7133,9811 7133,9951 6890,9951 Z M 7133,9961 L 7133,10881 6622,10881 6628,10102 6873,9961 7133,9961 Z"/>
     <path fill="rgb(107,107,107)" stroke="none" d="M 7133,10881 L 7133,11559 6615,11850 6622,10881 7133,10881 Z M 6873,9961 L 7133,9811 7133,9961 6873,9961 Z M 7133,9971 L 7133,10871 6622,10871 6628,10102 6855,9971 7133,9971 Z"/>
     <path fill="rgb(108,108,108)" stroke="none" d="M 7133,10871 L 7133,11559 6615,11850 6622,10871 7133,10871 Z M 6855,9971 L 7133,9811 7133,9971 6855,9971 Z M 7133,9981 L 7133,10861 6622,10861 6628,10102 6838,9981 7133,9981 Z"/>
     <path fill="rgb(109,109,109)" stroke="none" d="M 7133,10861 L 7133,11559 6615,11850 6622,10861 7133,10861 Z M 6838,9981 L 7133,9811 7133,9981 6838,9981 Z M 7133,9991 L 7133,10851 6622,10851 6628,10102 6821,9991 7133,9991 Z"/>
     <path fill="rgb(110,110,110)" stroke="none" d="M 7133,10851 L 7133,11559 6615,11850 6622,10851 7133,10851 Z M 6821,9991 L 7133,9811 7133,9991 6821,9991 Z M 7133,10001 L 7133,10841 6623,10841 6628,10102 6803,10001 7133,10001 Z"/>
     <path fill="rgb(111,111,111)" stroke="none" d="M 7133,10841 L 7133,11559 6615,11850 6623,10841 7133,10841 Z M 6803,10001 L 7133,9811 7133,10001 6803,10001 Z M 7133,10011 L 7133,10831 6623,10831 6628,10102 6786,10011 7133,10011 Z"/>
     <path fill="rgb(112,112,112)" stroke="none" d="M 7133,10831 L 7133,11559 6615,11850 6623,10831 7133,10831 Z M 6786,10011 L 7133,9811 7133,10011 6786,10011 Z M 7133,10021 L 7133,10821 6623,10821 6628,10102 6769,10021 7133,10021 Z"/>
     <path fill="rgb(113,113,113)" stroke="none" d="M 7133,10821 L 7133,11559 6615,11850 6623,10821 7133,10821 Z M 6769,10021 L 7133,9811 7133,10021 6769,10021 Z M 7133,10031 L 7133,10811 6623,10811 6628,10102 6751,10031 7133,10031 Z"/>
     <path fill="rgb(114,114,114)" stroke="none" d="M 7133,10811 L 7133,11559 6615,11850 6623,10811 7133,10811 Z M 6751,10031 L 7133,9811 7133,10031 6751,10031 Z M 7133,10041 L 7133,10801 6623,10801 6628,10102 6734,10041 7133,10041 Z"/>
     <path fill="rgb(115,115,115)" stroke="none" d="M 7133,10801 L 7133,11559 6615,11850 6623,10801 7133,10801 Z M 6734,10041 L 7133,9811 7133,10041 6734,10041 Z M 7133,10051 L 7133,10791 6623,10791 6628,10102 6717,10051 7133,10051 Z"/>
     <path fill="rgb(116,116,116)" stroke="none" d="M 7133,10791 L 7133,11559 6615,11850 6623,10791 7133,10791 Z M 6717,10051 L 7133,9811 7133,10051 6717,10051 Z M 7129,10061 L 7129,10781 6623,10781 6628,10102 6699,10061 7129,10061 Z"/>
     <path fill="rgb(117,117,117)" stroke="none" d="M 7129,10781 L 7129,10061 6699,10061 7133,9811 7133,11559 6615,11850 6623,10781 7129,10781 Z M 7119,10071 L 7119,10771 6623,10771 6628,10102 6682,10071 7119,10071 Z"/>
     <path fill="rgb(118,118,118)" stroke="none" d="M 7119,10771 L 7119,10071 6682,10071 7133,9811 7133,11559 6615,11850 6623,10771 7119,10771 Z M 7109,10081 L 7109,10761 6623,10761 6628,10102 6664,10081 7109,10081 Z"/>
     <path fill="rgb(119,119,119)" stroke="none" d="M 7109,10761 L 7109,10081 6664,10081 7133,9811 7133,11559 6615,11850 6623,10761 7109,10761 Z M 7099,10091 L 7099,10751 6623,10751 6628,10102 6647,10091 7099,10091 Z"/>
     <path fill="rgb(120,120,120)" stroke="none" d="M 7099,10751 L 7099,10091 6647,10091 7133,9811 7133,11559 6615,11850 6623,10751 7099,10751 Z M 7089,10101 L 7089,10741 6623,10741 6628,10102 6630,10101 7089,10101 Z"/>
     <path fill="rgb(121,121,121)" stroke="none" d="M 7089,10741 L 7089,10101 6630,10101 7133,9811 7133,11559 6615,11850 6623,10741 7089,10741 Z M 7079,10111 L 7079,10731 6623,10731 6628,10111 7079,10111 Z"/>
     <path fill="rgb(122,122,122)" stroke="none" d="M 7079,10731 L 7079,10111 6628,10111 6628,10102 7133,9811 7133,11559 6615,11850 6623,10731 7079,10731 Z M 7069,10121 L 7069,10721 6623,10721 6628,10121 7069,10121 Z"/>
     <path fill="rgb(123,123,123)" stroke="none" d="M 7069,10721 L 7069,10121 6628,10121 6628,10102 7133,9811 7133,11559 6615,11850 6623,10721 7069,10721 Z M 7059,10131 L 7059,10711 6623,10711 6628,10131 7059,10131 Z"/>
     <path fill="rgb(124,124,124)" stroke="none" d="M 7059,10711 L 7059,10131 6628,10131 6628,10102 7133,9811 7133,11559 6615,11850 6623,10711 7059,10711 Z M 7049,10141 L 7049,10701 6624,10701 6628,10141 7049,10141 Z"/>
     <path fill="rgb(125,125,125)" stroke="none" d="M 7049,10701 L 7049,10141 6628,10141 6628,10102 7133,9811 7133,11559 6615,11850 6624,10701 7049,10701 Z M 7039,10151 L 7039,10691 6624,10691 6628,10151 7039,10151 Z"/>
     <path fill="rgb(126,126,126)" stroke="none" d="M 7039,10691 L 7039,10151 6628,10151 6628,10102 7133,9811 7133,11559 6615,11850 6624,10691 7039,10691 Z M 7029,10161 L 7029,10681 6624,10681 6628,10161 7029,10161 Z"/>
     <path fill="rgb(127,127,127)" stroke="none" d="M 7029,10681 L 7029,10161 6628,10161 6628,10102 7133,9811 7133,11559 6615,11850 6624,10681 7029,10681 Z M 7019,10171 L 7019,10671 6624,10671 6627,10171 7019,10171 Z"/>
     <path fill="rgb(128,128,128)" stroke="none" d="M 7019,10671 L 7019,10171 6627,10171 6628,10102 7133,9811 7133,11559 6615,11850 6624,10671 7019,10671 Z M 7009,10181 L 7009,10661 6624,10661 6627,10181 7009,10181 Z"/>
     <path fill="rgb(129,129,129)" stroke="none" d="M 7009,10661 L 7009,10181 6627,10181 6628,10102 7133,9811 7133,11559 6615,11850 6624,10661 7009,10661 Z M 6999,10191 L 6999,10651 6624,10651 6627,10191 6999,10191 Z"/>
     <path fill="rgb(130,130,130)" stroke="none" d="M 6999,10651 L 6999,10191 6627,10191 6628,10102 7133,9811 7133,11559 6615,11850 6624,10651 6999,10651 Z M 6989,10201 L 6989,10641 6624,10641 6627,10201 6989,10201 Z"/>
     <path fill="rgb(131,131,131)" stroke="none" d="M 6989,10641 L 6989,10201 6627,10201 6628,10102 7133,9811 7133,11559 6615,11850 6624,10641 6989,10641 Z M 6979,10211 L 6979,10631 6624,10631 6627,10211 6979,10211 Z"/>
     <path fill="rgb(132,132,132)" stroke="none" d="M 6979,10631 L 6979,10211 6627,10211 6628,10102 7133,9811 7133,11559 6615,11850 6624,10631 6979,10631 Z M 6969,10221 L 6969,10621 6624,10621 6627,10221 6969,10221 Z"/>
     <path fill="rgb(133,133,133)" stroke="none" d="M 6969,10621 L 6969,10221 6627,10221 6628,10102 7133,9811 7133,11559 6615,11850 6624,10621 6969,10621 Z M 6959,10231 L 6959,10611 6624,10611 6627,10231 6959,10231 Z"/>
     <path fill="rgb(134,134,134)" stroke="none" d="M 6959,10611 L 6959,10231 6627,10231 6628,10102 7133,9811 7133,11559 6615,11850 6624,10611 6959,10611 Z M 6949,10241 L 6949,10601 6624,10601 6627,10241 6949,10241 Z"/>
     <path fill="rgb(135,135,135)" stroke="none" d="M 6949,10601 L 6949,10241 6627,10241 6628,10102 7133,9811 7133,11559 6615,11850 6624,10601 6949,10601 Z M 6939,10251 L 6939,10591 6624,10591 6627,10251 6939,10251 Z"/>
     <path fill="rgb(136,136,136)" stroke="none" d="M 6939,10591 L 6939,10251 6627,10251 6628,10102 7133,9811 7133,11559 6615,11850 6624,10591 6939,10591 Z M 6929,10261 L 6929,10581 6624,10581 6627,10261 6929,10261 Z"/>
     <path fill="rgb(137,137,137)" stroke="none" d="M 6929,10581 L 6929,10261 6627,10261 6628,10102 7133,9811 7133,11559 6615,11850 6624,10581 6929,10581 Z M 6919,10271 L 6919,10571 6625,10571 6627,10271 6919,10271 Z"/>
     <path fill="rgb(138,138,138)" stroke="none" d="M 6919,10571 L 6919,10271 6627,10271 6628,10102 7133,9811 7133,11559 6615,11850 6625,10571 6919,10571 Z M 6629,10281 L 6909,10281 6909,10561 6629,10561 6629,10281 Z"/>
     <path fill="rgb(139,139,139)" stroke="none" d="M 6629,10281 L 6629,10561 6909,10561 6909,10281 6629,10281 Z M 6639,10291 L 6899,10291 6899,10551 6639,10551 6639,10291 Z M 6615,11850 L 6628,10102 7133,9811 7133,11559 6615,11850 Z"/>
     <path fill="rgb(140,140,140)" stroke="none" d="M 6639,10291 L 6639,10551 6899,10551 6899,10291 6639,10291 Z M 6649,10301 L 6889,10301 6889,10541 6649,10541 6649,10301 Z M 6615,11850 L 6628,10102 7133,9811 7133,11559 6615,11850 Z"/>
     <path fill="rgb(141,141,141)" stroke="none" d="M 6649,10301 L 6649,10541 6889,10541 6889,10301 6649,10301 Z M 6659,10311 L 6879,10311 6879,10531 6659,10531 6659,10311 Z M 6615,11850 L 6628,10102 7133,9811 7133,11559 6615,11850 Z"/>
     <path fill="rgb(142,142,142)" stroke="none" d="M 6659,10311 L 6659,10531 6879,10531 6879,10311 6659,10311 Z M 6669,10321 L 6869,10321 6869,10521 6669,10521 6669,10321 Z M 6615,11850 L 6628,10102 7133,9811 7133,11559 6615,11850 Z"/>
     <path fill="rgb(143,143,143)" stroke="none" d="M 6669,10321 L 6669,10521 6869,10521 6869,10321 6669,10321 Z M 6679,10331 L 6859,10331 6859,10511 6679,10511 6679,10331 Z M 6615,11850 L 6628,10102 7133,9811 7133,11559 6615,11850 Z"/>
     <path fill="rgb(144,144,144)" stroke="none" d="M 6679,10331 L 6679,10511 6859,10511 6859,10331 6679,10331 Z M 6689,10341 L 6849,10341 6849,10501 6689,10501 6689,10341 Z M 6615,11850 L 6628,10102 7133,9811 7133,11559 6615,11850 Z"/>
     <path fill="rgb(145,145,145)" stroke="none" d="M 6689,10341 L 6689,10501 6849,10501 6849,10341 6689,10341 Z M 6699,10351 L 6839,10351 6839,10491 6699,10491 6699,10351 Z M 6615,11850 L 6628,10102 7133,9811 7133,11559 6615,11850 Z"/>
     <path fill="rgb(146,146,146)" stroke="none" d="M 6699,10351 L 6699,10491 6839,10491 6839,10351 6699,10351 Z M 6709,10361 L 6829,10361 6829,10481 6709,10481 6709,10361 Z M 6615,11850 L 6628,10102 7133,9811 7133,11559 6615,11850 Z"/>
     <path fill="rgb(147,147,147)" stroke="none" d="M 6709,10361 L 6709,10481 6829,10481 6829,10361 6709,10361 Z M 6719,10371 L 6819,10371 6819,10471 6719,10471 6719,10371 Z M 6615,11850 L 6628,10102 7133,9811 7133,11559 6615,11850 Z"/>
     <path fill="rgb(148,148,148)" stroke="none" d="M 6719,10371 L 6719,10471 6819,10471 6819,10371 6719,10371 Z M 6729,10381 L 6809,10381 6809,10461 6729,10461 6729,10381 Z M 6615,11850 L 6628,10102 7133,9811 7133,11559 6615,11850 Z"/>
     <path fill="rgb(149,149,149)" stroke="none" d="M 6729,10381 L 6729,10461 6809,10461 6809,10381 6729,10381 Z M 6739,10391 L 6799,10391 6799,10451 6739,10451 6739,10391 Z M 6615,11850 L 6628,10102 7133,9811 7133,11559 6615,11850 Z"/>
     <path fill="rgb(150,150,150)" stroke="none" d="M 6739,10391 L 6739,10451 6799,10451 6799,10391 6739,10391 Z M 6749,10401 L 6789,10401 6789,10441 6749,10441 6749,10401 Z M 6615,11850 L 6628,10102 7133,9811 7133,11559 6615,11850 Z"/>
     <path fill="rgb(151,151,151)" stroke="none" d="M 6749,10401 L 6749,10441 6789,10441 6789,10401 6749,10401 Z M 6759,10411 L 6779,10411 6779,10431 6759,10431 6759,10411 Z M 6615,11850 L 6628,10102 7133,9811 7133,11559 6615,11850 Z"/>
     <path fill="rgb(153,153,153)" stroke="none" d="M 6759,10411 L 6759,10431 6779,10431 6779,10411 6759,10411 Z M 6615,11850 L 6628,10102 7133,9811 7133,11559 6615,11850 Z"/>
     <path fill="none" stroke="rgb(178,178,178)" id="Drawing_6_0" stroke-width="40" stroke-linejoin="round" d="M 6615,11850 L 6628,10102 7133,9811 7133,11559 6615,11850 Z"/>
    </g>
    <g>
     <defs>
      <linearGradient id="Gradient_723" gradientUnits="userSpaceOnUse" x1="5494" y1="8719" x2="5494" y2="10030">
       <stop offset="0.1" stop-color="rgb(51,51,51)"/>
       <stop offset="1" stop-color="rgb(153,153,153)"/>
      </linearGradient>
     </defs>
     <path fill="url(#Gradient_723)" stroke="rgb(178,178,178)" id="Drawing_7_0" stroke-width="40" stroke-linejoin="round" d="M 6502,10030 L 4360,8792 4486,8719 6628,9957 6502,10030 Z"/>
    </g>
    <g>
     <path fill="none" stroke="rgb(102,102,102)" id="Drawing_8_0" stroke-width="40" stroke-linejoin="round" d="M 6628,10249 L 7006,10030"/>
    </g>
    <g>
     <path fill="rgb(178,178,178)" stroke="none" d="M 4612,10684 L 4612,10539 4864,10684 4864,10830 4612,10684 Z"/>
     <path fill="none" stroke="rgb(102,102,102)" id="Drawing_9_0" stroke-width="40" stroke-linejoin="round" d="M 4612,10684 L 4612,10539 4864,10684 4864,10830 4612,10684 Z"/>
    </g>
    <g>
     <path fill="rgb(178,178,178)" stroke="none" d="M 4990,10903 L 4990,10758 5242,10903 5242,11049 4990,10903 Z"/>
     <path fill="none" stroke="rgb(102,102,102)" id="Drawing_10_0" stroke-width="40" stroke-linejoin="round" d="M 4990,10903 L 4990,10758 5242,10903 5242,11049 4990,10903 Z"/>
    </g>
    <g>
     <path fill="rgb(178,178,178)" stroke="none" d="M 5368,11122 L 5368,10977 5620,11122 5620,11268 5368,11122 Z"/>
     <path fill="none" stroke="rgb(102,102,102)" id="Drawing_11_0" stroke-width="40" stroke-linejoin="round" d="M 5368,11122 L 5368,10977 5620,11122 5620,11268 5368,11122 Z"/>
    </g>
    <g>
     <path fill="rgb(178,178,178)" stroke="none" d="M 5746,11340 L 5746,11195 5998,11340 5998,11486 5746,11340 Z"/>
     <path fill="none" stroke="rgb(102,102,102)" id="Drawing_12_0" stroke-width="40" stroke-linejoin="round" d="M 5746,11340 L 5746,11195 5998,11340 5998,11486 5746,11340 Z"/>
    </g>
    <g>
     <path fill="rgb(178,178,178)" stroke="none" d="M 6125,10248 L 6125,10103 6377,10248 6377,10394 6125,10248 Z"/>
     <path fill="none" stroke="rgb(102,102,102)" id="Drawing_13_0" stroke-width="40" stroke-linejoin="round" d="M 6125,10248 L 6125,10103 6377,10248 6377,10394 6125,10248 Z"/>
    </g>
    <g>
     <path fill="rgb(178,178,178)" stroke="none" d="M 6125,10466 L 6125,10321 6377,10466 6377,10612 6125,10466 Z"/>
     <path fill="none" stroke="rgb(102,102,102)" id="Drawing_14_0" stroke-width="40" stroke-linejoin="round" d="M 6125,10466 L 6125,10321 6377,10466 6377,10612 6125,10466 Z"/>
    </g>
    <g>
     <path fill="rgb(178,178,178)" stroke="none" d="M 6125,10684 L 6125,10539 6377,10684 6377,10830 6125,10684 Z"/>
     <path fill="none" stroke="rgb(102,102,102)" id="Drawing_15_0" stroke-width="40" stroke-linejoin="round" d="M 6125,10684 L 6125,10539 6377,10684 6377,10830 6125,10684 Z"/>
    </g>
    <g>
     <path fill="rgb(178,178,178)" stroke="none" d="M 6125,10903 L 6125,10758 6377,10903 6377,11049 6125,10903 Z"/>
     <path fill="none" stroke="rgb(102,102,102)" id="Drawing_16_0" stroke-width="40" stroke-linejoin="round" d="M 6125,10903 L 6125,10758 6377,10903 6377,11049 6125,10903 Z"/>
    </g>
    <g>
     <path fill="rgb(178,178,178)" stroke="none" d="M 6125,11122 L 6125,10977 6377,11122 6377,11268 6125,11122 Z"/>
     <path fill="none" stroke="rgb(102,102,102)" id="Drawing_17_0" stroke-width="40" stroke-linejoin="round" d="M 6125,11122 L 6125,10977 6377,11122 6377,11268 6125,11122 Z"/>
    </g>
    <g>
     <path fill="rgb(178,178,178)" stroke="none" d="M 6125,11340 L 6125,11195 6377,11340 6377,11486 6125,11340 Z"/>
     <path fill="none" stroke="rgb(102,102,102)" id="Drawing_18_0" stroke-width="40" stroke-linejoin="round" d="M 6125,11340 L 6125,11195 6377,11340 6377,11486 6125,11340 Z"/>
    </g>
    <g>
     <path fill="none" stroke="rgb(102,102,102)" id="Drawing_19_0" stroke-width="40" stroke-linejoin="round" d="M 6628,10322 L 7006,10103"/>
    </g>
    <g>
     <path fill="none" stroke="rgb(102,102,102)" id="Drawing_20_0" stroke-width="40" stroke-linejoin="round" d="M 6628,10394 L 7006,10175"/>
    </g>
    <g>
     <path fill="none" stroke="rgb(102,102,102)" id="Drawing_21_0" stroke-width="40" stroke-linejoin="round" d="M 6628,10468 L 7006,10249"/>
    </g>
    <g>
     <path fill="none" stroke="rgb(102,102,102)" id="Drawing_22_0" stroke-width="40" stroke-linejoin="round" d="M 6628,10540 L 7006,10321"/>
    </g>
    <g>
     <path fill="none" stroke="rgb(102,102,102)" id="Drawing_23_0" stroke-width="40" stroke-linejoin="round" d="M 6628,10613 L 7006,10394"/>
    </g>
    <g>
     <path fill="none" stroke="rgb(102,102,102)" id="Drawing_24_0" stroke-width="40" stroke-linejoin="round" d="M 6628,10686 L 7006,10467"/>
    </g>
    <g>
     <path fill="none" stroke="rgb(102,102,102)" id="Drawing_25_0" stroke-width="40" stroke-linejoin="round" d="M 6628,10758 L 7006,10539"/>
    </g>
    <g>
     <path fill="none" stroke="rgb(102,102,102)" id="Drawing_26_0" stroke-width="40" stroke-linejoin="round" d="M 6628,10832 L 7006,10613"/>
    </g>
    <g>
     <path fill="none" stroke="rgb(102,102,102)" id="Drawing_27_0" stroke-width="40" stroke-linejoin="round" d="M 6628,10904 L 7006,10685"/>
    </g>
    <g>
     <path fill="none" stroke="rgb(102,102,102)" id="Drawing_28_0" stroke-width="40" stroke-linejoin="round" d="M 6628,10977 L 7006,10758"/>
    </g>
    <g>
     <path fill="none" stroke="rgb(102,102,102)" id="Drawing_29_0" stroke-width="40" stroke-linejoin="round" d="M 6628,11050 L 7006,10831"/>
    </g>
    <g>
     <path fill="none" stroke="rgb(102,102,102)" id="Drawing_30_0" stroke-width="40" stroke-linejoin="round" d="M 6628,11123 L 7006,10904"/>
    </g>
    <g>
     <path fill="none" stroke="rgb(102,102,102)" id="Drawing_31_0" stroke-width="40" stroke-linejoin="round" d="M 6628,11196 L 7006,10977"/>
    </g>
    <g>
     <path fill="none" stroke="rgb(102,102,102)" id="Drawing_32_0" stroke-width="40" stroke-linejoin="round" d="M 6628,11268 L 7006,11049"/>
    </g>
    <g>
     <path fill="none" stroke="rgb(102,102,102)" id="Drawing_33_0" stroke-width="40" stroke-linejoin="round" d="M 6628,11341 L 7006,11122"/>
    </g>
    <g>
     <path fill="none" stroke="rgb(102,102,102)" id="Drawing_34_0" stroke-width="40" stroke-linejoin="round" d="M 6628,11414 L 7006,11195"/>
    </g>
    <g>
     <path fill="none" stroke="rgb(102,102,102)" id="Drawing_35_0" stroke-width="40" stroke-linejoin="round" d="M 6628,11487 L 7006,11268"/>
    </g>
    <g>
     <path fill="rgb(51,51,51)" stroke="none" d="M 6502,11636 L 6502,10030 6628,9957 6639,11636 6502,11636 Z"/>
     <path fill="rgb(52,52,52)" stroke="none" d="M 6639,11636 L 6641,11996 6502,12069 6502,11636 6639,11636 Z M 6502,11626 L 6502,10030 6628,9957 6639,11626 6502,11626 Z"/>
     <path fill="rgb(53,53,53)" stroke="none" d="M 6639,11626 L 6641,11996 6502,12069 6502,11626 6639,11626 Z M 6502,11615 L 6502,10030 6628,9957 6639,11615 6502,11615 Z"/>
     <path fill="rgb(54,54,54)" stroke="none" d="M 6639,11615 L 6641,11996 6502,12069 6502,11615 6639,11615 Z M 6502,11605 L 6502,10030 6628,9957 6639,11605 6502,11605 Z"/>
     <path fill="rgb(55,55,55)" stroke="none" d="M 6639,11605 L 6641,11996 6502,12069 6502,11605 6639,11605 Z M 6502,11595 L 6502,10030 6628,9957 6638,11595 6502,11595 Z"/>
     <path fill="rgb(56,56,56)" stroke="none" d="M 6638,11595 L 6641,11996 6502,12069 6502,11595 6638,11595 Z M 6502,11584 L 6502,10030 6628,9957 6638,11584 6502,11584 Z"/>
     <path fill="rgb(57,57,57)" stroke="none" d="M 6638,11584 L 6641,11996 6502,12069 6502,11584 6638,11584 Z M 6502,11574 L 6502,10030 6628,9957 6638,11574 6502,11574 Z"/>
     <path fill="rgb(58,58,58)" stroke="none" d="M 6638,11574 L 6641,11996 6502,12069 6502,11574 6638,11574 Z M 6502,11564 L 6502,10030 6628,9957 6638,11564 6502,11564 Z"/>
     <path fill="rgb(59,59,59)" stroke="none" d="M 6638,11564 L 6641,11996 6502,12069 6502,11564 6638,11564 Z M 6502,11553 L 6502,10030 6628,9957 6638,11553 6502,11553 Z"/>
     <path fill="rgb(60,60,60)" stroke="none" d="M 6638,11553 L 6641,11996 6502,12069 6502,11553 6638,11553 Z M 6502,11543 L 6502,10030 6628,9957 6638,11543 6502,11543 Z"/>
     <path fill="rgb(61,61,61)" stroke="none" d="M 6638,11543 L 6641,11996 6502,12069 6502,11543 6638,11543 Z M 6502,11532 L 6502,10030 6628,9957 6638,11532 6502,11532 Z"/>
     <path fill="rgb(62,62,62)" stroke="none" d="M 6638,11532 L 6641,11996 6502,12069 6502,11532 6638,11532 Z M 6502,11522 L 6502,10030 6628,9957 6638,11522 6502,11522 Z"/>
     <path fill="rgb(63,63,63)" stroke="none" d="M 6638,11522 L 6641,11996 6502,12069 6502,11522 6638,11522 Z M 6502,11512 L 6502,10030 6628,9957 6638,11512 6502,11512 Z"/>
     <path fill="rgb(64,64,64)" stroke="none" d="M 6638,11512 L 6641,11996 6502,12069 6502,11512 6638,11512 Z M 6502,11501 L 6502,10030 6628,9957 6638,11501 6502,11501 Z"/>
     <path fill="rgb(65,65,65)" stroke="none" d="M 6638,11501 L 6641,11996 6502,12069 6502,11501 6638,11501 Z M 6502,11491 L 6502,10030 6628,9957 6638,11491 6502,11491 Z"/>
     <path fill="rgb(66,66,66)" stroke="none" d="M 6638,11491 L 6641,11996 6502,12069 6502,11491 6638,11491 Z M 6502,11481 L 6502,10030 6628,9957 6638,11481 6502,11481 Z"/>
     <path fill="rgb(67,67,67)" stroke="none" d="M 6638,11481 L 6641,11996 6502,12069 6502,11481 6638,11481 Z M 6502,11470 L 6502,10030 6628,9957 6638,11470 6502,11470 Z"/>
     <path fill="rgb(68,68,68)" stroke="none" d="M 6638,11470 L 6641,11996 6502,12069 6502,11470 6638,11470 Z M 6502,11460 L 6502,10030 6628,9957 6638,11460 6502,11460 Z"/>
     <path fill="rgb(69,69,69)" stroke="none" d="M 6638,11460 L 6641,11996 6502,12069 6502,11460 6638,11460 Z M 6502,11450 L 6502,10030 6628,9957 6638,11450 6502,11450 Z"/>
     <path fill="rgb(70,70,70)" stroke="none" d="M 6638,11450 L 6641,11996 6502,12069 6502,11450 6638,11450 Z M 6502,11439 L 6502,10030 6628,9957 6637,11439 6502,11439 Z"/>
     <path fill="rgb(71,71,71)" stroke="none" d="M 6637,11439 L 6641,11996 6502,12069 6502,11439 6637,11439 Z M 6502,11429 L 6502,10030 6628,9957 6637,11429 6502,11429 Z"/>
     <path fill="rgb(72,72,72)" stroke="none" d="M 6637,11429 L 6641,11996 6502,12069 6502,11429 6637,11429 Z M 6502,11418 L 6502,10030 6628,9957 6637,11418 6502,11418 Z"/>
     <path fill="rgb(73,73,73)" stroke="none" d="M 6637,11418 L 6641,11996 6502,12069 6502,11418 6637,11418 Z M 6502,11408 L 6502,10030 6628,9957 6637,11408 6502,11408 Z"/>
     <path fill="rgb(74,74,74)" stroke="none" d="M 6637,11408 L 6641,11996 6502,12069 6502,11408 6637,11408 Z M 6502,11398 L 6502,10030 6628,9957 6637,11398 6502,11398 Z"/>
     <path fill="rgb(75,75,75)" stroke="none" d="M 6637,11398 L 6641,11996 6502,12069 6502,11398 6637,11398 Z M 6502,11387 L 6502,10030 6628,9957 6637,11387 6502,11387 Z"/>
     <path fill="rgb(76,76,76)" stroke="none" d="M 6637,11387 L 6641,11996 6502,12069 6502,11387 6637,11387 Z M 6502,11377 L 6502,10030 6628,9957 6637,11377 6502,11377 Z"/>
     <path fill="rgb(77,77,77)" stroke="none" d="M 6637,11377 L 6641,11996 6502,12069 6502,11377 6637,11377 Z M 6502,11367 L 6502,10030 6628,9957 6637,11367 6502,11367 Z"/>
     <path fill="rgb(78,78,78)" stroke="none" d="M 6637,11367 L 6641,11996 6502,12069 6502,11367 6637,11367 Z M 6502,11356 L 6502,10030 6628,9957 6637,11356 6502,11356 Z"/>
     <path fill="rgb(79,79,79)" stroke="none" d="M 6637,11356 L 6641,11996 6502,12069 6502,11356 6637,11356 Z M 6502,11346 L 6502,10030 6628,9957 6637,11346 6502,11346 Z"/>
     <path fill="rgb(80,80,80)" stroke="none" d="M 6637,11346 L 6641,11996 6502,12069 6502,11346 6637,11346 Z M 6502,11335 L 6502,10030 6628,9957 6637,11335 6502,11335 Z"/>
     <path fill="rgb(81,81,81)" stroke="none" d="M 6637,11335 L 6641,11996 6502,12069 6502,11335 6637,11335 Z M 6502,11325 L 6502,10030 6628,9957 6637,11325 6502,11325 Z"/>
     <path fill="rgb(82,82,82)" stroke="none" d="M 6637,11325 L 6641,11996 6502,12069 6502,11325 6637,11325 Z M 6502,11315 L 6502,10030 6628,9957 6637,11315 6502,11315 Z"/>
     <path fill="rgb(83,83,83)" stroke="none" d="M 6637,11315 L 6641,11996 6502,12069 6502,11315 6637,11315 Z M 6502,11304 L 6502,10030 6628,9957 6637,11304 6502,11304 Z"/>
     <path fill="rgb(84,84,84)" stroke="none" d="M 6637,11304 L 6641,11996 6502,12069 6502,11304 6637,11304 Z M 6502,11294 L 6502,10030 6628,9957 6637,11294 6502,11294 Z"/>
     <path fill="rgb(85,85,85)" stroke="none" d="M 6637,11294 L 6641,11996 6502,12069 6502,11294 6637,11294 Z M 6502,11284 L 6502,10030 6628,9957 6636,11284 6502,11284 Z"/>
     <path fill="rgb(86,86,86)" stroke="none" d="M 6636,11284 L 6641,11996 6502,12069 6502,11284 6636,11284 Z M 6502,11273 L 6502,10030 6628,9957 6636,11273 6502,11273 Z"/>
     <path fill="rgb(87,87,87)" stroke="none" d="M 6636,11273 L 6641,11996 6502,12069 6502,11273 6636,11273 Z M 6502,11263 L 6502,10030 6628,9957 6636,11263 6502,11263 Z"/>
     <path fill="rgb(88,88,88)" stroke="none" d="M 6636,11263 L 6641,11996 6502,12069 6502,11263 6636,11263 Z M 6502,11253 L 6502,10030 6628,9957 6636,11253 6502,11253 Z"/>
     <path fill="rgb(89,89,89)" stroke="none" d="M 6636,11253 L 6641,11996 6502,12069 6502,11253 6636,11253 Z M 6502,11242 L 6502,10030 6628,9957 6636,11242 6502,11242 Z"/>
     <path fill="rgb(90,90,90)" stroke="none" d="M 6636,11242 L 6641,11996 6502,12069 6502,11242 6636,11242 Z M 6502,11232 L 6502,10030 6628,9957 6636,11232 6502,11232 Z"/>
     <path fill="rgb(91,91,91)" stroke="none" d="M 6636,11232 L 6641,11996 6502,12069 6502,11232 6636,11232 Z M 6628,9958 L 6636,11221 6502,11221 6502,10030 6626,9958 6628,9958 Z"/>
     <path fill="rgb(92,92,92)" stroke="none" d="M 6636,11221 L 6641,11996 6502,12069 6502,11221 6636,11221 Z M 6626,9958 L 6628,9957 6628,9958 6626,9958 Z M 6628,9968 L 6636,11211 6502,11211 6502,10030 6609,9968 6628,9968 Z"/>
     <path fill="rgb(93,93,93)" stroke="none" d="M 6636,11211 L 6641,11996 6502,12069 6502,11211 6636,11211 Z M 6609,9968 L 6628,9957 6628,9968 6609,9968 Z M 6628,9978 L 6636,11201 6502,11201 6502,10030 6592,9978 6628,9978 Z"/>
     <path fill="rgb(94,94,94)" stroke="none" d="M 6636,11201 L 6641,11996 6502,12069 6502,11201 6636,11201 Z M 6592,9978 L 6628,9957 6628,9978 6592,9978 Z M 6628,9989 L 6636,11190 6502,11190 6502,10030 6573,9989 6628,9989 Z"/>
     <path fill="rgb(95,95,95)" stroke="none" d="M 6636,11190 L 6641,11996 6502,12069 6502,11190 6636,11190 Z M 6573,9989 L 6628,9957 6628,9989 6573,9989 Z M 6628,9999 L 6636,11180 6502,11180 6502,10030 6556,9999 6628,9999 Z"/>
     <path fill="rgb(96,96,96)" stroke="none" d="M 6636,11180 L 6641,11996 6502,12069 6502,11180 6636,11180 Z M 6556,9999 L 6628,9957 6628,9999 6556,9999 Z M 6628,10009 L 6636,11170 6502,11170 6502,10030 6538,10009 6628,10009 Z"/>
     <path fill="rgb(97,97,97)" stroke="none" d="M 6636,11170 L 6641,11996 6502,12069 6502,11170 6636,11170 Z M 6538,10009 L 6628,9957 6628,10009 6538,10009 Z M 6628,10020 L 6636,11159 6502,11159 6502,10030 6519,10020 6628,10020 Z"/>
     <path fill="rgb(98,98,98)" stroke="none" d="M 6636,11159 L 6641,11996 6502,12069 6502,11159 6636,11159 Z M 6519,10020 L 6628,9957 6628,10020 6519,10020 Z M 6628,10030 L 6636,11149 6502,11149 6502,10030 6628,10030 Z"/>
     <path fill="rgb(99,99,99)" stroke="none" d="M 6636,11149 L 6641,11996 6502,12069 6502,11149 6636,11149 Z M 6502,10030 L 6628,9957 6628,10030 6502,10030 Z M 6629,10041 L 6636,11138 6502,11138 6502,10041 6629,10041 Z"/>
     <path fill="rgb(100,100,100)" stroke="none" d="M 6636,11138 L 6641,11996 6502,12069 6502,11138 6636,11138 Z M 6502,10041 L 6502,10030 6628,9957 6629,10041 6502,10041 Z M 6629,10051 L 6635,11128 6502,11128 6502,10051 6629,10051 Z"/>
     <path fill="rgb(101,101,101)" stroke="none" d="M 6635,11128 L 6641,11996 6502,12069 6502,11128 6635,11128 Z M 6502,10051 L 6502,10030 6628,9957 6629,10051 6502,10051 Z M 6629,10061 L 6635,11118 6502,11118 6502,10061 6629,10061 Z"/>
     <path fill="rgb(102,102,102)" stroke="none" d="M 6635,11118 L 6641,11996 6502,12069 6502,11118 6635,11118 Z M 6502,10061 L 6502,10030 6628,9957 6629,10061 6502,10061 Z M 6629,10072 L 6635,11107 6502,11107 6502,10072 6629,10072 Z"/>
     <path fill="rgb(103,103,103)" stroke="none" d="M 6635,11107 L 6641,11996 6502,12069 6502,11107 6635,11107 Z M 6502,10072 L 6502,10030 6628,9957 6629,10072 6502,10072 Z M 6629,10082 L 6635,11097 6502,11097 6502,10082 6629,10082 Z"/>
     <path fill="rgb(104,104,104)" stroke="none" d="M 6635,11097 L 6641,11996 6502,12069 6502,11097 6635,11097 Z M 6502,10082 L 6502,10030 6628,9957 6629,10082 6502,10082 Z M 6629,10092 L 6635,11087 6502,11087 6502,10092 6629,10092 Z"/>
     <path fill="rgb(105,105,105)" stroke="none" d="M 6635,11087 L 6641,11996 6502,12069 6502,11087 6635,11087 Z M 6502,10092 L 6502,10030 6628,9957 6629,10092 6502,10092 Z M 6629,10103 L 6635,11076 6502,11076 6502,10103 6629,10103 Z"/>
     <path fill="rgb(106,106,106)" stroke="none" d="M 6635,11076 L 6641,11996 6502,12069 6502,11076 6635,11076 Z M 6502,10103 L 6502,10030 6628,9957 6629,10103 6502,10103 Z M 6629,10113 L 6635,11066 6502,11066 6502,10113 6629,10113 Z"/>
     <path fill="rgb(107,107,107)" stroke="none" d="M 6635,11066 L 6641,11996 6502,12069 6502,11066 6635,11066 Z M 6502,10113 L 6502,10030 6628,9957 6629,10113 6502,10113 Z M 6629,10123 L 6635,11056 6502,11056 6502,10123 6629,10123 Z"/>
     <path fill="rgb(108,108,108)" stroke="none" d="M 6635,11056 L 6641,11996 6502,12069 6502,11056 6635,11056 Z M 6502,10123 L 6502,10030 6628,9957 6629,10123 6502,10123 Z M 6629,10134 L 6635,11045 6502,11045 6502,10134 6629,10134 Z"/>
     <path fill="rgb(109,109,109)" stroke="none" d="M 6635,11045 L 6641,11996 6502,12069 6502,11045 6635,11045 Z M 6502,10134 L 6502,10030 6628,9957 6629,10134 6502,10134 Z M 6629,10144 L 6635,11035 6502,11035 6502,10144 6629,10144 Z"/>
     <path fill="rgb(110,110,110)" stroke="none" d="M 6635,11035 L 6641,11996 6502,12069 6502,11035 6635,11035 Z M 6502,10144 L 6502,10030 6628,9957 6629,10144 6502,10144 Z M 6629,10155 L 6635,11024 6502,11024 6502,10155 6629,10155 Z"/>
     <path fill="rgb(111,111,111)" stroke="none" d="M 6635,11024 L 6641,11996 6502,12069 6502,11024 6635,11024 Z M 6502,10155 L 6502,10030 6628,9957 6629,10155 6502,10155 Z M 6629,10165 L 6635,11014 6502,11014 6502,10165 6629,10165 Z"/>
     <path fill="rgb(112,112,112)" stroke="none" d="M 6635,11014 L 6641,11996 6502,12069 6502,11014 6635,11014 Z M 6502,10165 L 6502,10030 6628,9957 6629,10165 6502,10165 Z M 6629,10175 L 6635,11004 6502,11004 6502,10175 6629,10175 Z"/>
     <path fill="rgb(113,113,113)" stroke="none" d="M 6635,11004 L 6641,11996 6502,12069 6502,11004 6635,11004 Z M 6502,10175 L 6502,10030 6628,9957 6629,10175 6502,10175 Z M 6629,10186 L 6635,10993 6502,10993 6502,10186 6629,10186 Z"/>
     <path fill="rgb(114,114,114)" stroke="none" d="M 6635,10993 L 6641,11996 6502,12069 6502,10993 6635,10993 Z M 6502,10186 L 6502,10030 6628,9957 6629,10186 6502,10186 Z M 6630,10196 L 6635,10983 6502,10983 6502,10196 6630,10196 Z"/>
     <path fill="rgb(115,115,115)" stroke="none" d="M 6635,10983 L 6641,11996 6502,12069 6502,10983 6635,10983 Z M 6502,10196 L 6502,10030 6628,9957 6630,10196 6502,10196 Z M 6630,10206 L 6634,10973 6502,10973 6502,10206 6630,10206 Z"/>
     <path fill="rgb(116,116,116)" stroke="none" d="M 6634,10973 L 6641,11996 6502,12069 6502,10973 6634,10973 Z M 6502,10206 L 6502,10030 6628,9957 6630,10206 6502,10206 Z M 6630,10217 L 6634,10962 6502,10962 6502,10217 6630,10217 Z"/>
     <path fill="rgb(117,117,117)" stroke="none" d="M 6634,10962 L 6641,11996 6502,12069 6502,10962 6634,10962 Z M 6502,10217 L 6502,10030 6628,9957 6630,10217 6502,10217 Z M 6630,10227 L 6634,10952 6502,10952 6502,10227 6630,10227 Z"/>
     <path fill="rgb(118,118,118)" stroke="none" d="M 6634,10952 L 6641,11996 6502,12069 6502,10952 6634,10952 Z M 6502,10227 L 6502,10030 6628,9957 6630,10227 6502,10227 Z M 6630,10238 L 6634,10942 6502,10942 6502,10238 6630,10238 Z"/>
     <path fill="rgb(119,119,119)" stroke="none" d="M 6634,10942 L 6641,11996 6502,12069 6502,10942 6634,10942 Z M 6502,10238 L 6502,10030 6628,9957 6630,10238 6502,10238 Z M 6630,10248 L 6634,10931 6502,10931 6502,10248 6630,10248 Z"/>
     <path fill="rgb(120,120,120)" stroke="none" d="M 6634,10931 L 6641,11996 6502,12069 6502,10931 6634,10931 Z M 6502,10248 L 6502,10030 6628,9957 6630,10248 6502,10248 Z M 6630,10258 L 6634,10921 6502,10921 6502,10258 6630,10258 Z"/>
     <path fill="rgb(121,121,121)" stroke="none" d="M 6634,10921 L 6641,11996 6502,12069 6502,10921 6634,10921 Z M 6502,10258 L 6502,10030 6628,9957 6630,10258 6502,10258 Z M 6630,10269 L 6634,10910 6502,10910 6502,10269 6630,10269 Z"/>
     <path fill="rgb(122,122,122)" stroke="none" d="M 6634,10910 L 6641,11996 6502,12069 6502,10910 6634,10910 Z M 6502,10269 L 6502,10030 6628,9957 6630,10269 6502,10269 Z M 6630,10279 L 6634,10900 6502,10900 6502,10279 6630,10279 Z"/>
     <path fill="rgb(123,123,123)" stroke="none" d="M 6634,10900 L 6641,11996 6502,12069 6502,10900 6634,10900 Z M 6502,10279 L 6502,10030 6628,9957 6630,10279 6502,10279 Z M 6630,10289 L 6634,10890 6502,10890 6502,10289 6630,10289 Z"/>
     <path fill="rgb(124,124,124)" stroke="none" d="M 6634,10890 L 6641,11996 6502,12069 6502,10890 6634,10890 Z M 6502,10289 L 6502,10030 6628,9957 6630,10289 6502,10289 Z M 6630,10300 L 6634,10879 6502,10879 6502,10300 6630,10300 Z"/>
     <path fill="rgb(125,125,125)" stroke="none" d="M 6634,10879 L 6641,11996 6502,12069 6502,10879 6634,10879 Z M 6502,10300 L 6502,10030 6628,9957 6630,10300 6502,10300 Z M 6630,10310 L 6634,10869 6502,10869 6502,10310 6630,10310 Z"/>
     <path fill="rgb(126,126,126)" stroke="none" d="M 6634,10869 L 6641,11996 6502,12069 6502,10869 6634,10869 Z M 6502,10310 L 6502,10030 6628,9957 6630,10310 6502,10310 Z M 6630,10320 L 6634,10859 6502,10859 6502,10320 6630,10320 Z"/>
     <path fill="rgb(127,127,127)" stroke="none" d="M 6634,10859 L 6641,11996 6502,12069 6502,10859 6634,10859 Z M 6502,10320 L 6502,10030 6628,9957 6630,10320 6502,10320 Z M 6630,10331 L 6634,10848 6502,10848 6502,10331 6630,10331 Z"/>
     <path fill="rgb(128,128,128)" stroke="none" d="M 6634,10848 L 6641,11996 6502,12069 6502,10848 6634,10848 Z M 6502,10331 L 6502,10030 6628,9957 6630,10331 6502,10331 Z M 6630,10341 L 6634,10838 6502,10838 6502,10341 6630,10341 Z"/>
     <path fill="rgb(129,129,129)" stroke="none" d="M 6634,10838 L 6641,11996 6502,12069 6502,10838 6634,10838 Z M 6502,10341 L 6502,10030 6628,9957 6630,10341 6502,10341 Z M 6631,10352 L 6634,10827 6502,10827 6502,10352 6631,10352 Z"/>
     <path fill="rgb(130,130,130)" stroke="none" d="M 6634,10827 L 6641,11996 6502,12069 6502,10827 6634,10827 Z M 6502,10352 L 6502,10030 6628,9957 6631,10352 6502,10352 Z M 6631,10362 L 6633,10817 6502,10817 6502,10362 6631,10362 Z"/>
     <path fill="rgb(131,131,131)" stroke="none" d="M 6633,10817 L 6641,11996 6502,12069 6502,10817 6633,10817 Z M 6502,10362 L 6502,10030 6628,9957 6631,10362 6502,10362 Z M 6631,10372 L 6633,10807 6502,10807 6502,10372 6631,10372 Z"/>
     <path fill="rgb(132,132,132)" stroke="none" d="M 6633,10807 L 6641,11996 6502,12069 6502,10807 6633,10807 Z M 6502,10372 L 6502,10030 6628,9957 6631,10372 6502,10372 Z M 6631,10383 L 6633,10796 6502,10796 6502,10383 6631,10383 Z"/>
     <path fill="rgb(133,133,133)" stroke="none" d="M 6633,10796 L 6641,11996 6502,12069 6502,10796 6633,10796 Z M 6502,10383 L 6502,10030 6628,9957 6631,10383 6502,10383 Z M 6631,10393 L 6633,10786 6502,10786 6502,10393 6631,10393 Z"/>
     <path fill="rgb(134,134,134)" stroke="none" d="M 6633,10786 L 6641,11996 6502,12069 6502,10786 6633,10786 Z M 6502,10393 L 6502,10030 6628,9957 6631,10393 6502,10393 Z M 6631,10403 L 6633,10776 6502,10776 6502,10403 6631,10403 Z"/>
     <path fill="rgb(135,135,135)" stroke="none" d="M 6633,10776 L 6641,11996 6502,12069 6502,10776 6633,10776 Z M 6502,10403 L 6502,10030 6628,9957 6631,10403 6502,10403 Z M 6631,10414 L 6633,10765 6502,10765 6502,10414 6631,10414 Z"/>
     <path fill="rgb(136,136,136)" stroke="none" d="M 6633,10765 L 6641,11996 6502,12069 6502,10765 6633,10765 Z M 6502,10414 L 6502,10030 6628,9957 6631,10414 6502,10414 Z M 6631,10424 L 6633,10755 6502,10755 6502,10424 6631,10424 Z"/>
     <path fill="rgb(137,137,137)" stroke="none" d="M 6633,10755 L 6641,11996 6502,12069 6502,10755 6633,10755 Z M 6502,10424 L 6502,10030 6628,9957 6631,10424 6502,10424 Z M 6631,10434 L 6633,10745 6502,10745 6502,10434 6631,10434 Z"/>
     <path fill="rgb(138,138,138)" stroke="none" d="M 6633,10745 L 6641,11996 6502,12069 6502,10745 6633,10745 Z M 6502,10434 L 6502,10030 6628,9957 6631,10434 6502,10434 Z M 6631,10445 L 6633,10734 6502,10734 6502,10445 6631,10445 Z"/>
     <path fill="rgb(139,139,139)" stroke="none" d="M 6633,10734 L 6641,11996 6502,12069 6502,10734 6633,10734 Z M 6502,10445 L 6502,10030 6628,9957 6631,10445 6502,10445 Z M 6631,10455 L 6633,10724 6502,10724 6502,10455 6631,10455 Z"/>
     <path fill="rgb(140,140,140)" stroke="none" d="M 6633,10724 L 6641,11996 6502,12069 6502,10724 6633,10724 Z M 6502,10455 L 6502,10030 6628,9957 6631,10455 6502,10455 Z M 6631,10466 L 6633,10713 6502,10713 6502,10466 6631,10466 Z"/>
     <path fill="rgb(141,141,141)" stroke="none" d="M 6633,10713 L 6641,11996 6502,12069 6502,10713 6633,10713 Z M 6502,10466 L 6502,10030 6628,9957 6631,10466 6502,10466 Z M 6631,10476 L 6633,10703 6502,10703 6502,10476 6631,10476 Z"/>
     <path fill="rgb(142,142,142)" stroke="none" d="M 6633,10703 L 6641,11996 6502,12069 6502,10703 6633,10703 Z M 6502,10476 L 6502,10030 6628,9957 6631,10476 6502,10476 Z M 6631,10486 L 6633,10693 6502,10693 6502,10486 6631,10486 Z"/>
     <path fill="rgb(143,143,143)" stroke="none" d="M 6633,10693 L 6641,11996 6502,12069 6502,10693 6633,10693 Z M 6502,10486 L 6502,10030 6628,9957 6631,10486 6502,10486 Z M 6631,10497 L 6633,10682 6502,10682 6502,10497 6631,10497 Z"/>
     <path fill="rgb(144,144,144)" stroke="none" d="M 6633,10682 L 6641,11996 6502,12069 6502,10682 6633,10682 Z M 6502,10497 L 6502,10030 6628,9957 6631,10497 6502,10497 Z M 6625,10507 L 6625,10672 6502,10672 6502,10507 6625,10507 Z"/>
     <path fill="rgb(145,145,145)" stroke="none" d="M 6625,10672 L 6625,10507 6502,10507 6502,10030 6628,9957 6641,11996 6502,12069 6502,10672 6625,10672 Z M 6615,10517 L 6615,10662 6502,10662 6502,10517 6615,10517 Z"/>
     <path fill="rgb(146,146,146)" stroke="none" d="M 6615,10662 L 6615,10517 6502,10517 6502,10030 6628,9957 6641,11996 6502,12069 6502,10662 6615,10662 Z M 6604,10528 L 6604,10651 6502,10651 6502,10528 6604,10528 Z"/>
     <path fill="rgb(147,147,147)" stroke="none" d="M 6604,10651 L 6604,10528 6502,10528 6502,10030 6628,9957 6641,11996 6502,12069 6502,10651 6604,10651 Z M 6594,10538 L 6594,10641 6502,10641 6502,10538 6594,10538 Z"/>
     <path fill="rgb(148,148,148)" stroke="none" d="M 6594,10641 L 6594,10538 6502,10538 6502,10030 6628,9957 6641,11996 6502,12069 6502,10641 6594,10641 Z M 6502,10549 L 6583,10549 6583,10630 6502,10630 6502,10549 Z"/>
     <path fill="rgb(149,149,149)" stroke="none" d="M 6502,10549 L 6502,10030 6628,9957 6641,11996 6502,12069 6502,10630 6583,10630 6583,10549 6502,10549 Z M 6512,10559 L 6573,10559 6573,10620 6512,10620 6512,10559 Z"/>
     <path fill="rgb(150,150,150)" stroke="none" d="M 6512,10559 L 6512,10620 6573,10620 6573,10559 6512,10559 Z M 6522,10569 L 6563,10569 6563,10610 6522,10610 6522,10569 Z M 6502,12069 L 6502,10030 6628,9957 6641,11996 6502,12069 Z"/>
     <path fill="rgb(151,151,151)" stroke="none" d="M 6522,10569 L 6522,10610 6563,10610 6563,10569 6522,10569 Z M 6533,10580 L 6552,10580 6552,10599 6533,10599 6533,10580 Z M 6502,12069 L 6502,10030 6628,9957 6641,11996 6502,12069 Z"/>
     <path fill="rgb(153,153,153)" stroke="none" d="M 6533,10580 L 6533,10599 6552,10599 6552,10580 6533,10580 Z M 6502,12069 L 6502,10030 6628,9957 6641,11996 6502,12069 Z"/>
     <path fill="none" stroke="rgb(178,178,178)" id="Drawing_36_0" stroke-width="40" stroke-linejoin="round" d="M 6502,12069 L 6502,10030 6628,9957 6641,11996 6502,12069 Z"/>
    </g>
    <g>
     <path fill="none" stroke="rgb(0,0,0)" id="Drawing_37_0" stroke-width="40" stroke-linejoin="round" d="M 4486,8719 L 4864,8938 5242,8719 7132,9811 7132,11559 6628,11850 6641,11996 6502,12069 4360,10831 4360,8792 4486,8719 Z"/>
    </g>
   </g>
  </g>
 </g>
</svg>