<?xml version="1.0" encoding="UTF-8"?>

<svg version="1.2" baseProfile="tiny" width="31.71mm" height="33.9mm" viewBox="3773 4012 3171 3390" preserveAspectRatio="xMidYMid" fill-rule="evenodd" stroke-width="28.222" stroke-linejoin="round" xmlns="http://www.w3.org/2000/svg" xmlns:xlink="http://www.w3.org/1999/xlink" xml:space="preserve">
 <g visibility="visible" id="Slide_1">
  <g id="DrawingGroup_1">
   <g>
    <path fill="rgb(221,221,221)" stroke="none" d="M 5927,7382 C 6273,7382 6943,7164 6943,6945 6943,6726 6911,6581 6565,6581 6565,6800 5796,6654 5927,7382 Z"/>
    <path fill="none" stroke="rgb(221,221,221)" id="Drawing_1_0" stroke-linejoin="round" d="M 5927,7382 C 6273,7382 6943,7164 6943,6945 6943,6726 6911,6581 6565,6581 6565,6800 5796,6654 5927,7382 Z"/>
   </g>
   <g id="DrawingGroup_2">
    <g>
     <defs>
      <linearGradient id="Gradient_716" gradientUnits="userSpaceOnUse" x1="5368" y1="4032" x2="5368" y2="5416">
       <stop offset="0.1" stop-color="rgb(179,179,179)"/>
       <stop offset="1" stop-color="rgb(229,229,229)"/>
      </linearGradient>
     </defs>
     <path fill="url(#Gradient_716)" stroke="rgb(255,255,255)" id="Drawing_2_0" stroke-width="40" stroke-linejoin="round" d="M 6061,5416 L 4171,4323 4675,4032 6566,5124 6061,5416 Z"/>
    </g>
    <g>
     <defs>
      <linearGradient id="Gradient_717" gradientUnits="userSpaceOnUse" x1="3790" y1="5741" x2="5938" y2="5745">
       <stop offset="0.1" stop-color="rgb(179,179,179)"/>
       <stop offset="1" stop-color="rgb(229,229,229)"/>
      </linearGradient>
     </defs>
     <path fill="url(#Gradient_717)" stroke="rgb(255,255,255)" id="Drawing_3_0" stroke-width="40" stroke-linejoin="round" d="M 3793,6144 L 3793,4105 5935,5343 5935,7382 3793,6144 Z"/>
    </g>
    <g>
     <defs>
      <linearGradient id="Gradient_718" gradientUnits="userSpaceOnUse" x1="4043" y1="5560" x2="5433" y2="5562">
       <stop offset="0.1" stop-color="rgb(147,212,240)"/>
       <stop offset="1" stop-color="rgb(233,246,252)"/>
      </linearGradient>
     </defs>
     <path fill="url(#Gradient_718)" stroke="rgb(127,127,127)" id="Drawing_4_0" stroke-width="40" stroke-linejoin="round" d="M 4045,5780 L 4045,4542 5431,5343 5431,6581 4045,5780 Z"/>
    </g>
    <g>
     <path fill="rgb(116,203,128)" stroke="none" d="M 5558,6872 L 5558,6727 5810,6872 5810,7018 5558,6872 Z"/>
     <path fill="none" stroke="rgb(127,127,127)" id="Drawing_5_0" stroke-width="40" stroke-linejoin="round" d="M 5558,6872 L 5558,6727 5810,6872 5810,7018 5558,6872 Z"/>
    </g>
    <g>
     <path fill="rgb(179,179,179)" stroke="none" d="M 6051,6734 L 6061,5415 6566,5124 6566,6734 6051,6734 Z"/>
     <path fill="rgb(180,180,180)" stroke="none" d="M 6566,6734 L 6566,6872 6048,7163 6051,6734 6566,6734 Z M 6051,6714 L 6061,5415 6566,5124 6566,6714 6051,6714 Z"/>
     <path fill="rgb(181,181,181)" stroke="none" d="M 6566,6714 L 6566,6872 6048,7163 6051,6714 6566,6714 Z M 6051,6693 L 6061,5415 6566,5124 6566,6693 6051,6693 Z"/>
     <path fill="rgb(182,182,182)" stroke="none" d="M 6566,6693 L 6566,6872 6048,7163 6051,6693 6566,6693 Z M 6052,6673 L 6061,5415 6566,5124 6566,6673 6052,6673 Z"/>
     <path fill="rgb(183,183,183)" stroke="none" d="M 6566,6673 L 6566,6872 6048,7163 6052,6673 6566,6673 Z M 6052,6652 L 6061,5415 6566,5124 6566,6652 6052,6652 Z"/>
     <path fill="rgb(184,184,184)" stroke="none" d="M 6566,6652 L 6566,6872 6048,7163 6052,6652 6566,6652 Z M 6052,6632 L 6061,5415 6566,5124 6566,6632 6052,6632 Z"/>
     <path fill="rgb(185,185,185)" stroke="none" d="M 6566,6632 L 6566,6872 6048,7163 6052,6632 6566,6632 Z M 6052,6612 L 6061,5415 6566,5124 6566,6612 6052,6612 Z"/>
     <path fill="rgb(186,186,186)" stroke="none" d="M 6566,6612 L 6566,6872 6048,7163 6052,6612 6566,6612 Z M 6052,6591 L 6061,5415 6566,5124 6566,6591 6052,6591 Z"/>
     <path fill="rgb(187,187,187)" stroke="none" d="M 6566,6591 L 6566,6872 6048,7163 6052,6591 6566,6591 Z M 6052,6571 L 6061,5415 6566,5124 6566,6571 6052,6571 Z"/>
     <path fill="rgb(188,188,188)" stroke="none" d="M 6566,6571 L 6566,6872 6048,7163 6052,6571 6566,6571 Z M 6053,6550 L 6061,5415 6566,5124 6566,6550 6053,6550 Z"/>
     <path fill="rgb(189,189,189)" stroke="none" d="M 6566,6550 L 6566,6872 6048,7163 6053,6550 6566,6550 Z M 6053,6530 L 6061,5415 6566,5124 6566,6530 6053,6530 Z"/>
     <path fill="rgb(190,190,190)" stroke="none" d="M 6566,6530 L 6566,6872 6048,7163 6053,6530 6566,6530 Z M 6053,6509 L 6061,5415 6566,5124 6566,6509 6053,6509 Z"/>
     <path fill="rgb(191,191,191)" stroke="none" d="M 6566,6509 L 6566,6872 6048,7163 6053,6509 6566,6509 Z M 6053,6489 L 6061,5415 6566,5124 6566,6489 6053,6489 Z"/>
     <path fill="rgb(192,192,192)" stroke="none" d="M 6566,6489 L 6566,6872 6048,7163 6053,6489 6566,6489 Z M 6053,6469 L 6061,5415 6566,5124 6566,6469 6053,6469 Z"/>
     <path fill="rgb(193,193,193)" stroke="none" d="M 6566,6469 L 6566,6872 6048,7163 6053,6469 6566,6469 Z M 6053,6448 L 6061,5415 6566,5124 6566,6448 6053,6448 Z"/>
     <path fill="rgb(194,194,194)" stroke="none" d="M 6566,6448 L 6566,6872 6048,7163 6053,6448 6566,6448 Z M 6053,6428 L 6061,5415 6566,5124 6566,6428 6053,6428 Z"/>
     <path fill="rgb(195,195,195)" stroke="none" d="M 6566,6428 L 6566,6872 6048,7163 6053,6428 6566,6428 Z M 6054,6407 L 6061,5415 6566,5124 6566,6407 6054,6407 Z"/>
     <path fill="rgb(196,196,196)" stroke="none" d="M 6566,6407 L 6566,6872 6048,7163 6054,6407 6566,6407 Z M 6054,6387 L 6061,5415 6566,5124 6566,6387 6054,6387 Z"/>
     <path fill="rgb(197,197,197)" stroke="none" d="M 6566,6387 L 6566,6872 6048,7163 6054,6387 6566,6387 Z M 6054,6367 L 6061,5415 6566,5124 6566,6367 6054,6367 Z"/>
     <path fill="rgb(198,198,198)" stroke="none" d="M 6566,6367 L 6566,6872 6048,7163 6054,6367 6566,6367 Z M 6054,6346 L 6061,5415 6566,5124 6566,6346 6054,6346 Z"/>
     <path fill="rgb(199,199,199)" stroke="none" d="M 6566,6346 L 6566,6872 6048,7163 6054,6346 6566,6346 Z M 6566,5142 L 6566,6326 6054,6326 6061,5415 6535,5142 6566,5142 Z"/>
     <path fill="rgb(200,200,200)" stroke="none" d="M 6566,6326 L 6566,6872 6048,7163 6054,6326 6566,6326 Z M 6535,5142 L 6566,5124 6566,5142 6535,5142 Z M 6566,5163 L 6566,6305 6054,6305 6061,5415 6498,5163 6566,5163 Z"/>
     <path fill="rgb(201,201,201)" stroke="none" d="M 6566,6305 L 6566,6872 6048,7163 6054,6305 6566,6305 Z M 6498,5163 L 6566,5124 6566,5163 6498,5163 Z M 6566,5183 L 6566,6285 6055,6285 6061,5415 6464,5183 6566,5183 Z"/>
     <path fill="rgb(202,202,202)" stroke="none" d="M 6566,6285 L 6566,6872 6048,7163 6055,6285 6566,6285 Z M 6464,5183 L 6566,5124 6566,5183 6464,5183 Z M 6566,5204 L 6566,6264 6055,6264 6061,5415 6427,5204 6566,5204 Z"/>
     <path fill="rgb(203,203,203)" stroke="none" d="M 6566,6264 L 6566,6872 6048,7163 6055,6264 6566,6264 Z M 6427,5204 L 6566,5124 6566,5204 6427,5204 Z M 6566,5224 L 6566,6244 6055,6244 6061,5415 6392,5224 6566,5224 Z"/>
     <path fill="rgb(204,204,204)" stroke="none" d="M 6566,6244 L 6566,6872 6048,7163 6055,6244 6566,6244 Z M 6392,5224 L 6566,5124 6566,5224 6392,5224 Z M 6566,5244 L 6566,6224 6055,6224 6061,5415 6358,5244 6566,5244 Z"/>
     <path fill="rgb(205,205,205)" stroke="none" d="M 6566,6224 L 6566,6872 6048,7163 6055,6224 6566,6224 Z M 6358,5244 L 6566,5124 6566,5244 6358,5244 Z M 6566,5265 L 6566,6203 6055,6203 6061,5415 6321,5265 6566,5265 Z"/>
     <path fill="rgb(206,206,206)" stroke="none" d="M 6566,6203 L 6566,6872 6048,7163 6055,6203 6566,6203 Z M 6321,5265 L 6566,5124 6566,5265 6321,5265 Z M 6566,5285 L 6566,6183 6055,6183 6061,5415 6287,5285 6566,5285 Z"/>
     <path fill="rgb(207,207,207)" stroke="none" d="M 6566,6183 L 6566,6872 6048,7163 6055,6183 6566,6183 Z M 6287,5285 L 6566,5124 6566,5285 6287,5285 Z M 6566,5306 L 6566,6162 6055,6162 6061,5415 6250,5306 6566,5306 Z"/>
     <path fill="rgb(208,208,208)" stroke="none" d="M 6566,6162 L 6566,6872 6048,7163 6055,6162 6566,6162 Z M 6250,5306 L 6566,5124 6566,5306 6250,5306 Z M 6566,5326 L 6566,6142 6056,6142 6061,5415 6215,5326 6566,5326 Z"/>
     <path fill="rgb(209,209,209)" stroke="none" d="M 6566,6142 L 6566,6872 6048,7163 6056,6142 6566,6142 Z M 6215,5326 L 6566,5124 6566,5326 6215,5326 Z M 6566,5347 L 6566,6121 6056,6121 6061,5415 6179,5347 6566,5347 Z"/>
     <path fill="rgb(210,210,210)" stroke="none" d="M 6566,6121 L 6566,6872 6048,7163 6056,6121 6566,6121 Z M 6179,5347 L 6566,5124 6566,5347 6179,5347 Z M 6566,5367 L 6566,6101 6056,6101 6061,5415 6144,5367 6566,5367 Z"/>
     <path fill="rgb(211,211,211)" stroke="none" d="M 6566,6101 L 6566,6872 6048,7163 6056,6101 6566,6101 Z M 6144,5367 L 6566,5124 6566,5367 6144,5367 Z M 6549,5387 L 6549,6081 6056,6081 6061,5415 6110,5387 6549,5387 Z"/>
     <path fill="rgb(212,212,212)" stroke="none" d="M 6549,6081 L 6549,5387 6110,5387 6566,5124 6566,6872 6048,7163 6056,6081 6549,6081 Z M 6528,5408 L 6528,6060 6056,6060 6061,5415 6073,5408 6528,5408 Z"/>
     <path fill="rgb(213,213,213)" stroke="none" d="M 6528,6060 L 6528,5408 6073,5408 6566,5124 6566,6872 6048,7163 6056,6060 6528,6060 Z M 6508,5428 L 6508,6040 6056,6040 6061,5428 6508,5428 Z"/>
     <path fill="rgb(214,214,214)" stroke="none" d="M 6508,6040 L 6508,5428 6061,5428 6061,5415 6566,5124 6566,6872 6048,7163 6056,6040 6508,6040 Z M 6487,5449 L 6487,6019 6057,6019 6061,5449 6487,5449 Z"/>
     <path fill="rgb(215,215,215)" stroke="none" d="M 6487,6019 L 6487,5449 6061,5449 6061,5415 6566,5124 6566,6872 6048,7163 6057,6019 6487,6019 Z M 6467,5469 L 6467,5999 6057,5999 6061,5469 6467,5469 Z"/>
     <path fill="rgb(216,216,216)" stroke="none" d="M 6467,5999 L 6467,5469 6061,5469 6061,5415 6566,5124 6566,6872 6048,7163 6057,5999 6467,5999 Z M 6447,5489 L 6447,5979 6057,5979 6060,5489 6447,5489 Z"/>
     <path fill="rgb(217,217,217)" stroke="none" d="M 6447,5979 L 6447,5489 6060,5489 6061,5415 6566,5124 6566,6872 6048,7163 6057,5979 6447,5979 Z M 6426,5510 L 6426,5958 6057,5958 6060,5510 6426,5510 Z"/>
     <path fill="rgb(218,218,218)" stroke="none" d="M 6426,5958 L 6426,5510 6060,5510 6061,5415 6566,5124 6566,6872 6048,7163 6057,5958 6426,5958 Z M 6406,5530 L 6406,5938 6057,5938 6060,5530 6406,5530 Z"/>
     <path fill="rgb(219,219,219)" stroke="none" d="M 6406,5938 L 6406,5530 6060,5530 6061,5415 6566,5124 6566,6872 6048,7163 6057,5938 6406,5938 Z M 6385,5551 L 6385,5917 6057,5917 6060,5551 6385,5551 Z"/>
     <path fill="rgb(220,220,220)" stroke="none" d="M 6385,5917 L 6385,5551 6060,5551 6061,5415 6566,5124 6566,6872 6048,7163 6057,5917 6385,5917 Z M 6365,5571 L 6365,5897 6057,5897 6060,5571 6365,5571 Z"/>
     <path fill="rgb(221,221,221)" stroke="none" d="M 6365,5897 L 6365,5571 6060,5571 6061,5415 6566,5124 6566,6872 6048,7163 6057,5897 6365,5897 Z M 6060,5592 L 6344,5592 6344,5876 6060,5876 6060,5592 Z"/>
     <path fill="rgb(222,222,222)" stroke="none" d="M 6060,5592 L 6060,5876 6344,5876 6344,5592 6060,5592 Z M 6080,5612 L 6324,5612 6324,5856 6080,5856 6080,5612 Z M 6048,7163 L 6061,5415 6566,5124 6566,6872 6048,7163 Z"/>
     <path fill="rgb(223,223,223)" stroke="none" d="M 6080,5612 L 6080,5856 6324,5856 6324,5612 6080,5612 Z M 6100,5632 L 6304,5632 6304,5836 6100,5836 6100,5632 Z M 6048,7163 L 6061,5415 6566,5124 6566,6872 6048,7163 Z"/>
     <path fill="rgb(224,224,224)" stroke="none" d="M 6100,5632 L 6100,5836 6304,5836 6304,5632 6100,5632 Z M 6121,5653 L 6283,5653 6283,5815 6121,5815 6121,5653 Z M 6048,7163 L 6061,5415 6566,5124 6566,6872 6048,7163 Z"/>
     <path fill="rgb(225,225,225)" stroke="none" d="M 6121,5653 L 6121,5815 6283,5815 6283,5653 6121,5653 Z M 6141,5673 L 6263,5673 6263,5795 6141,5795 6141,5673 Z M 6048,7163 L 6061,5415 6566,5124 6566,6872 6048,7163 Z"/>
     <path fill="rgb(226,226,226)" stroke="none" d="M 6141,5673 L 6141,5795 6263,5795 6263,5673 6141,5673 Z M 6162,5694 L 6242,5694 6242,5774 6162,5774 6162,5694 Z M 6048,7163 L 6061,5415 6566,5124 6566,6872 6048,7163 Z"/>
     <path fill="rgb(227,227,227)" stroke="none" d="M 6162,5694 L 6162,5774 6242,5774 6242,5694 6162,5694 Z M 6182,5714 L 6222,5714 6222,5754 6182,5754 6182,5714 Z M 6048,7163 L 6061,5415 6566,5124 6566,6872 6048,7163 Z"/>
     <path fill="rgb(229,229,229)" stroke="none" d="M 6182,5714 L 6182,5754 6222,5754 6222,5714 6182,5714 Z M 6048,7163 L 6061,5415 6566,5124 6566,6872 6048,7163 Z"/>
     <path fill="none" stroke="rgb(255,255,255)" id="Drawing_6_0" stroke-width="40" stroke-linejoin="round" d="M 6048,7163 L 6061,5415 6566,5124 6566,6872 6048,7163 Z"/>
    </g>
    <g>
     <defs>
      <linearGradient id="Gradient_719" gradientUnits="userSpaceOnUse" x1="4927" y1="4032" x2="4927" y2="5343">
       <stop offset="0.1" stop-color="rgb(179,179,179)"/>
       <stop offset="1" stop-color="rgb(229,229,229)"/>
      </linearGradient>
     </defs>
     <path fill="url(#Gradient_719)" stroke="rgb(255,255,255)" id="Drawing_7_0" stroke-width="40" stroke-linejoin="round" d="M 5935,5343 L 3793,4105 3919,4032 6061,5270 5935,5343 Z"/>
    </g>
    <g>
     <path fill="none" stroke="rgb(127,127,127)" id="Drawing_8_0" stroke-width="40" stroke-linejoin="round" d="M 6061,5562 L 6439,5343"/>
    </g>
    <g>
     <path fill="rgb(255,255,255)" stroke="none" d="M 4045,5997 L 4045,5852 4297,5997 4297,6143 4045,5997 Z"/>
     <path fill="none" stroke="rgb(127,127,127)" id="Drawing_9_0" stroke-width="40" stroke-linejoin="round" d="M 4045,5997 L 4045,5852 4297,5997 4297,6143 4045,5997 Z"/>
    </g>
    <g>
     <path fill="rgb(255,255,255)" stroke="none" d="M 4423,6216 L 4423,6071 4675,6216 4675,6362 4423,6216 Z"/>
     <path fill="none" stroke="rgb(127,127,127)" id="Drawing_10_0" stroke-width="40" stroke-linejoin="round" d="M 4423,6216 L 4423,6071 4675,6216 4675,6362 4423,6216 Z"/>
    </g>
    <g>
     <path fill="rgb(255,255,255)" stroke="none" d="M 4801,6435 L 4801,6290 5053,6435 5053,6581 4801,6435 Z"/>
     <path fill="none" stroke="rgb(127,127,127)" id="Drawing_11_0" stroke-width="40" stroke-linejoin="round" d="M 4801,6435 L 4801,6290 5053,6435 5053,6581 4801,6435 Z"/>
    </g>
    <g>
     <path fill="rgb(255,255,255)" stroke="none" d="M 5179,6653 L 5179,6508 5431,6653 5431,6799 5179,6653 Z"/>
     <path fill="none" stroke="rgb(127,127,127)" id="Drawing_12_0" stroke-width="40" stroke-linejoin="round" d="M 5179,6653 L 5179,6508 5431,6653 5431,6799 5179,6653 Z"/>
    </g>
    <g>
     <path fill="rgb(255,255,255)" stroke="none" d="M 5558,5561 L 5558,5416 5810,5561 5810,5707 5558,5561 Z"/>
     <path fill="none" stroke="rgb(127,127,127)" id="Drawing_13_0" stroke-width="40" stroke-linejoin="round" d="M 5558,5561 L 5558,5416 5810,5561 5810,5707 5558,5561 Z"/>
    </g>
    <g>
     <path fill="rgb(255,255,255)" stroke="none" d="M 5558,5779 L 5558,5634 5810,5779 5810,5925 5558,5779 Z"/>
     <path fill="none" stroke="rgb(127,127,127)" id="Drawing_14_0" stroke-width="40" stroke-linejoin="round" d="M 5558,5779 L 5558,5634 5810,5779 5810,5925 5558,5779 Z"/>
    </g>
    <g>
     <path fill="rgb(255,255,255)" stroke="none" d="M 5558,5997 L 5558,5852 5810,5997 5810,6143 5558,5997 Z"/>
     <path fill="none" stroke="rgb(127,127,127)" id="Drawing_15_0" stroke-width="40" stroke-linejoin="round" d="M 5558,5997 L 5558,5852 5810,5997 5810,6143 5558,5997 Z"/>
    </g>
    <g>
     <path fill="rgb(255,255,255)" stroke="none" d="M 5558,6216 L 5558,6071 5810,6216 5810,6362 5558,6216 Z"/>
     <path fill="none" stroke="rgb(127,127,127)" id="Drawing_16_0" stroke-width="40" stroke-linejoin="round" d="M 5558,6216 L 5558,6071 5810,6216 5810,6362 5558,6216 Z"/>
    </g>
    <g>
     <path fill="rgb(255,255,255)" stroke="none" d="M 5558,6435 L 5558,6290 5810,6435 5810,6581 5558,6435 Z"/>
     <path fill="none" stroke="rgb(127,127,127)" id="Drawing_17_0" stroke-width="40" stroke-linejoin="round" d="M 5558,6435 L 5558,6290 5810,6435 5810,6581 5558,6435 Z"/>
    </g>
    <g>
     <path fill="rgb(255,255,255)" stroke="none" d="M 5558,6653 L 5558,6508 5810,6653 5810,6799 5558,6653 Z"/>
     <path fill="none" stroke="rgb(127,127,127)" id="Drawing_18_0" stroke-width="40" stroke-linejoin="round" d="M 5558,6653 L 5558,6508 5810,6653 5810,6799 5558,6653 Z"/>
    </g>
    <g>
     <path fill="none" stroke="rgb(127,127,127)" id="Drawing_19_0" stroke-width="40" stroke-linejoin="round" d="M 6061,5635 L 6439,5416"/>
    </g>
    <g>
     <path fill="none" stroke="rgb(127,127,127)" id="Drawing_20_0" stroke-width="40" stroke-linejoin="round" d="M 6061,5707 L 6439,5488"/>
    </g>
    <g>
     <path fill="none" stroke="rgb(127,127,127)" id="Drawing_21_0" stroke-width="40" stroke-linejoin="round" d="M 6061,5781 L 6439,5562"/>
    </g>
    <g>
     <path fill="none" stroke="rgb(127,127,127)" id="Drawing_22_0" stroke-width="40" stroke-linejoin="round" d="M 6061,5853 L 6439,5634"/>
    </g>
    <g>
     <path fill="none" stroke="rgb(127,127,127)" id="Drawing_23_0" stroke-width="40" stroke-linejoin="round" d="M 6061,5926 L 6439,5707"/>
    </g>
    <g>
     <path fill="none" stroke="rgb(127,127,127)" id="Drawing_24_0" stroke-width="40" stroke-linejoin="round" d="M 6061,5999 L 6439,5780"/>
    </g>
    <g>
     <path fill="none" stroke="rgb(127,127,127)" id="Drawing_25_0" stroke-width="40" stroke-linejoin="round" d="M 6061,6071 L 6439,5852"/>
    </g>
    <g>
     <path fill="none" stroke="rgb(127,127,127)" id="Drawing_26_0" stroke-width="40" stroke-linejoin="round" d="M 6061,6145 L 6439,5926"/>
    </g>
    <g>
     <path fill="none" stroke="rgb(127,127,127)" id="Drawing_27_0" stroke-width="40" stroke-linejoin="round" d="M 6061,6217 L 6439,5998"/>
    </g>
    <g>
     <path fill="none" stroke="rgb(127,127,127)" id="Drawing_28_0" stroke-width="40" stroke-linejoin="round" d="M 6061,6290 L 6439,6071"/>
    </g>
    <g>
     <path fill="none" stroke="rgb(127,127,127)" id="Drawing_29_0" stroke-width="40" stroke-linejoin="round" d="M 6061,6363 L 6439,6144"/>
    </g>
    <g>
     <path fill="none" stroke="rgb(127,127,127)" id="Drawing_30_0" stroke-width="40" stroke-linejoin="round" d="M 6061,6436 L 6439,6217"/>
    </g>
    <g>
     <path fill="none" stroke="rgb(127,127,127)" id="Drawing_31_0" stroke-width="40" stroke-linejoin="round" d="M 6061,6509 L 6439,6290"/>
    </g>
    <g>
     <path fill="none" stroke="rgb(127,127,127)" id="Drawing_32_0" stroke-width="40" stroke-linejoin="round" d="M 6061,6581 L 6439,6362"/>
    </g>
    <g>
     <path fill="none" stroke="rgb(127,127,127)" id="Drawing_33_0" stroke-width="40" stroke-linejoin="round" d="M 6061,6654 L 6439,6435"/>
    </g>
    <g>
     <path fill="none" stroke="rgb(127,127,127)" id="Drawing_34_0" stroke-width="40" stroke-linejoin="round" d="M 6061,6727 L 6439,6508"/>
    </g>
    <g>
     <path fill="none" stroke="rgb(127,127,127)" id="Drawing_35_0" stroke-width="40" stroke-linejoin="round" d="M 6061,6800 L 6439,6581"/>
    </g>
    <g>
     <path fill="rgb(179,179,179)" stroke="none" d="M 5935,6938 L 5935,5343 6061,5270 6072,6938 5935,6938 Z"/>
     <path fill="rgb(180,180,180)" stroke="none" d="M 6072,6938 L 6074,7309 5935,7382 5935,6938 6072,6938 Z M 5935,6917 L 5935,5343 6061,5270 6072,6917 5935,6917 Z"/>
     <path fill="rgb(181,181,181)" stroke="none" d="M 6072,6917 L 6074,7309 5935,7382 5935,6917 6072,6917 Z M 5935,6896 L 5935,5343 6061,5270 6071,6896 5935,6896 Z"/>
     <path fill="rgb(182,182,182)" stroke="none" d="M 6071,6896 L 6074,7309 5935,7382 5935,6896 6071,6896 Z M 5935,6875 L 5935,5343 6061,5270 6071,6875 5935,6875 Z"/>
     <path fill="rgb(183,183,183)" stroke="none" d="M 6071,6875 L 6074,7309 5935,7382 5935,6875 6071,6875 Z M 5935,6854 L 5935,5343 6061,5270 6071,6854 5935,6854 Z"/>
     <path fill="rgb(184,184,184)" stroke="none" d="M 6071,6854 L 6074,7309 5935,7382 5935,6854 6071,6854 Z M 5935,6833 L 5935,5343 6061,5270 6071,6833 5935,6833 Z"/>
     <path fill="rgb(185,185,185)" stroke="none" d="M 6071,6833 L 6074,7309 5935,7382 5935,6833 6071,6833 Z M 5935,6811 L 5935,5343 6061,5270 6071,6811 5935,6811 Z"/>
     <path fill="rgb(186,186,186)" stroke="none" d="M 6071,6811 L 6074,7309 5935,7382 5935,6811 6071,6811 Z M 5935,6790 L 5935,5343 6061,5270 6071,6790 5935,6790 Z"/>
     <path fill="rgb(187,187,187)" stroke="none" d="M 6071,6790 L 6074,7309 5935,7382 5935,6790 6071,6790 Z M 5935,6769 L 5935,5343 6061,5270 6071,6769 5935,6769 Z"/>
     <path fill="rgb(188,188,188)" stroke="none" d="M 6071,6769 L 6074,7309 5935,7382 5935,6769 6071,6769 Z M 5935,6748 L 5935,5343 6061,5270 6070,6748 5935,6748 Z"/>
     <path fill="rgb(189,189,189)" stroke="none" d="M 6070,6748 L 6074,7309 5935,7382 5935,6748 6070,6748 Z M 5935,6727 L 5935,5343 6061,5270 6070,6727 5935,6727 Z"/>
     <path fill="rgb(190,190,190)" stroke="none" d="M 6070,6727 L 6074,7309 5935,7382 5935,6727 6070,6727 Z M 5935,6706 L 5935,5343 6061,5270 6070,6706 5935,6706 Z"/>
     <path fill="rgb(191,191,191)" stroke="none" d="M 6070,6706 L 6074,7309 5935,7382 5935,6706 6070,6706 Z M 5935,6685 L 5935,5343 6061,5270 6070,6685 5935,6685 Z"/>
     <path fill="rgb(192,192,192)" stroke="none" d="M 6070,6685 L 6074,7309 5935,7382 5935,6685 6070,6685 Z M 5935,6663 L 5935,5343 6061,5270 6070,6663 5935,6663 Z"/>
     <path fill="rgb(193,193,193)" stroke="none" d="M 6070,6663 L 6074,7309 5935,7382 5935,6663 6070,6663 Z M 5935,6642 L 5935,5343 6061,5270 6070,6642 5935,6642 Z"/>
     <path fill="rgb(194,194,194)" stroke="none" d="M 6070,6642 L 6074,7309 5935,7382 5935,6642 6070,6642 Z M 5935,6621 L 5935,5343 6061,5270 6070,6621 5935,6621 Z"/>
     <path fill="rgb(195,195,195)" stroke="none" d="M 6070,6621 L 6074,7309 5935,7382 5935,6621 6070,6621 Z M 5935,6600 L 5935,5343 6061,5270 6069,6600 5935,6600 Z"/>
     <path fill="rgb(196,196,196)" stroke="none" d="M 6069,6600 L 6074,7309 5935,7382 5935,6600 6069,6600 Z M 5935,6579 L 5935,5343 6061,5270 6069,6579 5935,6579 Z"/>
     <path fill="rgb(197,197,197)" stroke="none" d="M 6069,6579 L 6074,7309 5935,7382 5935,6579 6069,6579 Z M 5935,6558 L 5935,5343 6061,5270 6069,6558 5935,6558 Z"/>
     <path fill="rgb(198,198,198)" stroke="none" d="M 6069,6558 L 6074,7309 5935,7382 5935,6558 6069,6558 Z M 5935,6536 L 5935,5343 6061,5270 6069,6536 5935,6536 Z"/>
     <path fill="rgb(199,199,199)" stroke="none" d="M 6069,6536 L 6074,7309 5935,7382 5935,6536 6069,6536 Z M 6061,5290 L 6069,6515 5935,6515 5935,5343 6026,5290 6061,5290 Z"/>
     <path fill="rgb(200,200,200)" stroke="none" d="M 6069,6515 L 6074,7309 5935,7382 5935,6515 6069,6515 Z M 6026,5290 L 6061,5270 6061,5290 6026,5290 Z M 6061,5311 L 6069,6494 5935,6494 5935,5343 5990,5311 6061,5311 Z"/>
     <path fill="rgb(201,201,201)" stroke="none" d="M 6069,6494 L 6074,7309 5935,7382 5935,6494 6069,6494 Z M 5990,5311 L 6061,5270 6061,5311 5990,5311 Z M 6061,5332 L 6069,6473 5935,6473 5935,5343 5954,5332 6061,5332 Z"/>
     <path fill="rgb(202,202,202)" stroke="none" d="M 6069,6473 L 6074,7309 5935,7382 5935,6473 6069,6473 Z M 5954,5332 L 6061,5270 6061,5332 5954,5332 Z M 6062,5353 L 6069,6452 5935,6452 5935,5353 6062,5353 Z"/>
     <path fill="rgb(203,203,203)" stroke="none" d="M 6069,6452 L 6074,7309 5935,7382 5935,6452 6069,6452 Z M 5935,5353 L 5935,5343 6061,5270 6062,5353 5935,5353 Z M 6062,5374 L 6068,6431 5935,6431 5935,5374 6062,5374 Z"/>
     <path fill="rgb(204,204,204)" stroke="none" d="M 6068,6431 L 6074,7309 5935,7382 5935,6431 6068,6431 Z M 5935,5374 L 5935,5343 6061,5270 6062,5374 5935,5374 Z M 6062,5395 L 6068,6410 5935,6410 5935,5395 6062,5395 Z"/>
     <path fill="rgb(205,205,205)" stroke="none" d="M 6068,6410 L 6074,7309 5935,7382 5935,6410 6068,6410 Z M 5935,5395 L 5935,5343 6061,5270 6062,5395 5935,5395 Z M 6062,5417 L 6068,6388 5935,6388 5935,5417 6062,5417 Z"/>
     <path fill="rgb(206,206,206)" stroke="none" d="M 6068,6388 L 6074,7309 5935,7382 5935,6388 6068,6388 Z M 5935,5417 L 5935,5343 6061,5270 6062,5417 5935,5417 Z M 6062,5438 L 6068,6367 5935,6367 5935,5438 6062,5438 Z"/>
     <path fill="rgb(207,207,207)" stroke="none" d="M 6068,6367 L 6074,7309 5935,7382 5935,6367 6068,6367 Z M 5935,5438 L 5935,5343 6061,5270 6062,5438 5935,5438 Z M 6062,5459 L 6068,6346 5935,6346 5935,5459 6062,5459 Z"/>
     <path fill="rgb(208,208,208)" stroke="none" d="M 6068,6346 L 6074,7309 5935,7382 5935,6346 6068,6346 Z M 5935,5459 L 5935,5343 6061,5270 6062,5459 5935,5459 Z M 6062,5480 L 6068,6325 5935,6325 5935,5480 6062,5480 Z"/>
     <path fill="rgb(209,209,209)" stroke="none" d="M 6068,6325 L 6074,7309 5935,7382 5935,6325 6068,6325 Z M 5935,5480 L 5935,5343 6061,5270 6062,5480 5935,5480 Z M 6062,5501 L 6068,6304 5935,6304 5935,5501 6062,5501 Z"/>
     <path fill="rgb(210,210,210)" stroke="none" d="M 6068,6304 L 6074,7309 5935,7382 5935,6304 6068,6304 Z M 5935,5501 L 5935,5343 6061,5270 6062,5501 5935,5501 Z M 6063,5522 L 6067,6283 5935,6283 5935,5522 6063,5522 Z"/>
     <path fill="rgb(211,211,211)" stroke="none" d="M 6067,6283 L 6074,7309 5935,7382 5935,6283 6067,6283 Z M 5935,5522 L 5935,5343 6061,5270 6063,5522 5935,5522 Z M 6063,5543 L 6067,6262 5935,6262 5935,5543 6063,5543 Z"/>
     <path fill="rgb(212,212,212)" stroke="none" d="M 6067,6262 L 6074,7309 5935,7382 5935,6262 6067,6262 Z M 5935,5543 L 5935,5343 6061,5270 6063,5543 5935,5543 Z M 6063,5565 L 6067,6240 5935,6240 5935,5565 6063,5565 Z"/>
     <path fill="rgb(213,213,213)" stroke="none" d="M 6067,6240 L 6074,7309 5935,7382 5935,6240 6067,6240 Z M 5935,5565 L 5935,5343 6061,5270 6063,5565 5935,5565 Z M 6063,5586 L 6067,6219 5935,6219 5935,5586 6063,5586 Z"/>
     <path fill="rgb(214,214,214)" stroke="none" d="M 6067,6219 L 6074,7309 5935,7382 5935,6219 6067,6219 Z M 5935,5586 L 5935,5343 6061,5270 6063,5586 5935,5586 Z M 6063,5607 L 6067,6198 5935,6198 5935,5607 6063,5607 Z"/>
     <path fill="rgb(215,215,215)" stroke="none" d="M 6067,6198 L 6074,7309 5935,7382 5935,6198 6067,6198 Z M 5935,5607 L 5935,5343 6061,5270 6063,5607 5935,5607 Z M 6063,5628 L 6067,6177 5935,6177 5935,5628 6063,5628 Z"/>
     <path fill="rgb(216,216,216)" stroke="none" d="M 6067,6177 L 6074,7309 5935,7382 5935,6177 6067,6177 Z M 5935,5628 L 5935,5343 6061,5270 6063,5628 5935,5628 Z M 6063,5649 L 6067,6156 5935,6156 5935,5649 6063,5649 Z"/>
     <path fill="rgb(217,217,217)" stroke="none" d="M 6067,6156 L 6074,7309 5935,7382 5935,6156 6067,6156 Z M 5935,5649 L 5935,5343 6061,5270 6063,5649 5935,5649 Z M 6064,5670 L 6067,6135 5935,6135 5935,5670 6064,5670 Z"/>
     <path fill="rgb(218,218,218)" stroke="none" d="M 6067,6135 L 6074,7309 5935,7382 5935,6135 6067,6135 Z M 5935,5670 L 5935,5343 6061,5270 6064,5670 5935,5670 Z M 6064,5691 L 6066,6113 5935,6113 5935,5691 6064,5691 Z"/>
     <path fill="rgb(219,219,219)" stroke="none" d="M 6066,6113 L 6074,7309 5935,7382 5935,6113 6066,6113 Z M 5935,5691 L 5935,5343 6061,5270 6064,5691 5935,5691 Z M 6064,5713 L 6066,6092 5935,6092 5935,5713 6064,5713 Z"/>
     <path fill="rgb(220,220,220)" stroke="none" d="M 6066,6092 L 6074,7309 5935,7382 5935,6092 6066,6092 Z M 5935,5713 L 5935,5343 6061,5270 6064,5713 5935,5713 Z M 6064,5734 L 6066,6071 5935,6071 5935,5734 6064,5734 Z"/>
     <path fill="rgb(221,221,221)" stroke="none" d="M 6066,6071 L 6074,7309 5935,7382 5935,6071 6066,6071 Z M 5935,5734 L 5935,5343 6061,5270 6064,5734 5935,5734 Z M 6064,5755 L 6066,6050 5935,6050 5935,5755 6064,5755 Z"/>
     <path fill="rgb(222,222,222)" stroke="none" d="M 6066,6050 L 6074,7309 5935,7382 5935,6050 6066,6050 Z M 5935,5755 L 5935,5343 6061,5270 6064,5755 5935,5755 Z M 6064,5776 L 6066,6029 5935,6029 5935,5776 6064,5776 Z"/>
     <path fill="rgb(223,223,223)" stroke="none" d="M 6066,6029 L 6074,7309 5935,7382 5935,6029 6066,6029 Z M 5935,5776 L 5935,5343 6061,5270 6064,5776 5935,5776 Z M 6064,5797 L 6066,6008 5935,6008 5935,5797 6064,5797 Z"/>
     <path fill="rgb(224,224,224)" stroke="none" d="M 6066,6008 L 6074,7309 5935,7382 5935,6008 6066,6008 Z M 5935,5797 L 5935,5343 6061,5270 6064,5797 5935,5797 Z M 6060,5818 L 6060,5987 5935,5987 5935,5818 6060,5818 Z"/>
     <path fill="rgb(225,225,225)" stroke="none" d="M 6060,5987 L 6060,5818 5935,5818 5935,5343 6061,5270 6074,7309 5935,7382 5935,5987 6060,5987 Z M 6038,5840 L 6038,5965 5935,5965 5935,5840 6038,5840 Z"/>
     <path fill="rgb(226,226,226)" stroke="none" d="M 6038,5965 L 6038,5840 5935,5840 5935,5343 6061,5270 6074,7309 5935,7382 5935,5965 6038,5965 Z M 6017,5861 L 6017,5944 5935,5944 5935,5861 6017,5861 Z"/>
     <path fill="rgb(227,227,227)" stroke="none" d="M 6017,5944 L 6017,5861 5935,5861 5935,5343 6061,5270 6074,7309 5935,7382 5935,5944 6017,5944 Z M 5955,5882 L 5996,5882 5996,5923 5955,5923 5955,5882 Z"/>
     <path fill="rgb(229,229,229)" stroke="none" d="M 5955,5882 L 5955,5923 5996,5923 5996,5882 5955,5882 Z M 5935,7382 L 5935,5343 6061,5270 6074,7309 5935,7382 Z"/>
     <path fill="none" stroke="rgb(255,255,255)" id="Drawing_36_0" stroke-width="40" stroke-linejoin="round" d="M 5935,7382 L 5935,5343 6061,5270 6074,7309 5935,7382 Z"/>
    </g>
    <g>
     <path fill="none" stroke="rgb(0,0,0)" id="Drawing_37_0" stroke-width="40" stroke-linejoin="round" d="M 3919,4032 L 4297,4251 4675,4032 6565,5124 6565,6872 6061,7163 6074,7309 5935,7382 3793,6144 3793,4105 3919,4032 Z"/>
    </g>
   </g>
  </g>
 </g>
</svg>