<?xml version="1.0" encoding="UTF-8"?>

<svg version="1.2" baseProfile="tiny" width="51.35mm" height="43.1mm" viewBox="3962 3628 5135 4310" preserveAspectRatio="xMidYMid" fill-rule="evenodd" stroke-width="28.222" stroke-linejoin="round" xmlns="http://www.w3.org/2000/svg" xmlns:xlink="http://www.w3.org/1999/xlink" xml:space="preserve">
 <g visibility="visible" id="Slide_1">
  <g id="DrawingGroup_1">
   <g>
    <path fill="rgb(221,221,221)" stroke="none" d="M 7893,7918 C 8291,7918 8637,7917 8954,7638 9271,7359 9015,7164 8617,7164 8617,7415 7893,7582 7893,7918 Z"/>
    <path fill="none" stroke="rgb(221,221,221)" id="Drawing_1_0" stroke-linejoin="round" d="M 7893,7918 C 8291,7918 8637,7917 8954,7638 9271,7359 9015,7164 8617,7164 8617,7415 7893,7582 7893,7918 Z"/>
   </g>
   <g id="DrawingGroup_2">
    <g>
     <defs>
      <linearGradient id="Gradient_378" gradientUnits="userSpaceOnUse" x1="4704" y1="5406" x2="4851" y2="5406">
       <stop offset="0.1" stop-color="rgb(179,179,179)"/>
       <stop offset="1" stop-color="rgb(229,229,229)"/>
      </linearGradient>
     </defs>
     <path fill="url(#Gradient_378)" stroke="rgb(255,255,255)" id="Drawing_2_0" stroke-width="40" stroke-linejoin="round" d="M 4706,6244 L 4706,4653 4851,4569 4851,6160 4706,6244 Z"/>
    </g>
    <g>
     <defs>
      <linearGradient id="Gradient_379" gradientUnits="userSpaceOnUse" x1="4849" y1="6868" x2="7895" y2="6874">
       <stop offset="0.1" stop-color="rgb(179,179,179)"/>
       <stop offset="1" stop-color="rgb(229,229,229)"/>
      </linearGradient>
     </defs>
     <path fill="url(#Gradient_379)" stroke="rgb(255,255,255)" id="Drawing_3_0" stroke-width="40" stroke-linejoin="round" d="M 4851,6160 L 4851,5825 7893,7583 7893,7918 4851,6160 Z"/>
    </g>
    <g>
     <defs>
      <linearGradient id="Gradient_380" gradientUnits="userSpaceOnUse" x1="6299" y1="4904" x2="6299" y2="6746">
       <stop offset="0.1" stop-color="rgb(179,179,179)"/>
       <stop offset="1" stop-color="rgb(229,229,229)"/>
      </linearGradient>
     </defs>
     <path fill="url(#Gradient_380)" stroke="rgb(255,255,255)" id="Drawing_4_0" stroke-width="40" stroke-linejoin="round" d="M 7748,6746 L 4706,4988 4851,4904 7893,6662 7748,6746 Z"/>
    </g>
    <g>
     <defs>
      <linearGradient id="Gradient_381" gradientUnits="userSpaceOnUse" x1="4849" y1="5612" x2="7895" y2="5618">
       <stop offset="0.1" stop-color="rgb(179,179,179)"/>
       <stop offset="1" stop-color="rgb(229,229,229)"/>
      </linearGradient>
     </defs>
     <path fill="url(#Gradient_381)" stroke="rgb(255,255,255)" id="Drawing_5_0" stroke-width="40" stroke-linejoin="round" d="M 4851,4904 L 4851,4569 7893,6327 7893,6662 4851,4904 Z"/>
    </g>
    <g>
     <path fill="rgb(255,255,255)" stroke="none" d="M 6734,6745 L 6734,6578 6879,6662 6879,6829 6734,6745 Z"/>
     <path fill="none" stroke="rgb(127,127,127)" id="Drawing_6_0" stroke-width="40" stroke-linejoin="round" d="M 6734,6745 L 6734,6578 6879,6662 6879,6829 6734,6745 Z"/>
    </g>
    <g>
     <path fill="rgb(0,0,0)" stroke="none" d="M 6879,5322 L 6879,5155 7024,5239 7024,5406 6879,5322 Z"/>
     <path fill="none" stroke="rgb(127,127,127)" id="Drawing_7_0" stroke-width="40" stroke-linejoin="round" d="M 6879,5322 L 6879,5155 7024,5239 7024,5406 6879,5322 Z"/>
    </g>
    <g>
     <path fill="rgb(0,0,0)" stroke="none" d="M 7169,5490 L 7169,5323 7314,5407 7314,5574 7169,5490 Z"/>
     <path fill="none" stroke="rgb(127,127,127)" id="Drawing_8_0" stroke-width="40" stroke-linejoin="round" d="M 7169,5490 L 7169,5323 7314,5407 7314,5574 7169,5490 Z"/>
    </g>
    <g>
     <path fill="rgb(0,0,0)" stroke="none" d="M 6590,5155 L 6590,4988 6735,5072 6735,5239 6590,5155 Z"/>
     <path fill="none" stroke="rgb(127,127,127)" id="Drawing_9_0" stroke-width="40" stroke-linejoin="round" d="M 6590,5155 L 6590,4988 6735,5072 6735,5239 6590,5155 Z"/>
    </g>
    <g>
     <path fill="rgb(127,127,127)" stroke="none" d="M 7313,7499 L 7314,7332 7748,7583 7748,7751 7313,7499 Z"/>
     <path fill="none" stroke="rgb(0,0,0)" id="Drawing_10_0" stroke-width="40" stroke-linejoin="round" d="M 7313,7499 L 7314,7332 7748,7583 7748,7751 7313,7499 Z"/>
    </g>
    <g>
     <path fill="rgb(127,127,127)" stroke="none" d="M 6734,7164 L 6735,6997 7169,7248 7169,7416 6734,7164 Z"/>
     <path fill="none" stroke="rgb(0,0,0)" id="Drawing_11_0" stroke-width="40" stroke-linejoin="round" d="M 6734,7164 L 6735,6997 7169,7248 7169,7416 6734,7164 Z"/>
    </g>
    <g>
     <path fill="rgb(127,127,127)" stroke="none" d="M 6155,6829 L 6156,6662 6590,6913 6590,7081 6155,6829 Z"/>
     <path fill="none" stroke="rgb(0,0,0)" id="Drawing_12_0" stroke-width="40" stroke-linejoin="round" d="M 6155,6829 L 6156,6662 6590,6913 6590,7081 6155,6829 Z"/>
    </g>
    <g>
     <path fill="rgb(127,127,127)" stroke="none" d="M 5575,6494 L 5576,6327 6010,6578 6010,6746 5575,6494 Z"/>
     <path fill="none" stroke="rgb(0,0,0)" id="Drawing_13_0" stroke-width="40" stroke-linejoin="round" d="M 5575,6494 L 5576,6327 6010,6578 6010,6746 5575,6494 Z"/>
    </g>
    <g>
     <path fill="rgb(127,127,127)" stroke="none" d="M 4996,6159 L 4997,5992 5431,6243 5431,6411 4996,6159 Z"/>
     <path fill="none" stroke="rgb(0,0,0)" id="Drawing_14_0" stroke-width="40" stroke-linejoin="round" d="M 4996,6159 L 4997,5992 5431,6243 5431,6411 4996,6159 Z"/>
    </g>
    <g>
     <defs>
      <linearGradient id="Gradient_382" gradientUnits="userSpaceOnUse" x1="3980" y1="5237" x2="4708" y2="5239">
       <stop offset="0.1" stop-color="rgb(179,179,179)"/>
       <stop offset="1" stop-color="rgb(229,229,229)"/>
      </linearGradient>
     </defs>
     <path fill="url(#Gradient_382)" stroke="rgb(255,255,255)" id="Drawing_15_0" stroke-width="40" stroke-linejoin="round" d="M 3982,5825 L 3982,4234 4706,4653 4706,6243 3982,5825 Z"/>
    </g>
    <g>
     <defs>
      <linearGradient id="Gradient_383" gradientUnits="userSpaceOnUse" x1="4704" y1="6324" x2="7750" y2="6330">
       <stop offset="0.1" stop-color="rgb(179,179,179)"/>
       <stop offset="1" stop-color="rgb(229,229,229)"/>
      </linearGradient>
     </defs>
     <path fill="url(#Gradient_383)" stroke="rgb(255,255,255)" id="Drawing_16_0" stroke-width="40" stroke-linejoin="round" d="M 4706,5909 L 4706,4988 7748,6746 7748,7667 4706,5909 Z"/>
    </g>
    <g>
     <defs>
      <linearGradient id="Gradient_384" gradientUnits="userSpaceOnUse" x1="5574" y1="6368" x2="6880" y2="6370">
       <stop offset="0.1" stop-color="rgb(147,212,240)"/>
       <stop offset="1" stop-color="rgb(233,246,252)"/>
      </linearGradient>
     </defs>
     <path fill="url(#Gradient_384)" stroke="rgb(127,127,127)" id="Drawing_17_0" stroke-width="40" stroke-linejoin="round" d="M 5575,6160 L 5575,5825 6879,6579 6879,6913 5575,6160 Z"/>
    </g>
    <g>
     <path fill="rgb(127,127,127)" stroke="none" d="M 6154,5573 L 6155,5406 6589,5657 6589,5825 6154,5573 Z"/>
     <path fill="none" stroke="rgb(0,0,0)" id="Drawing_18_0" stroke-width="40" stroke-linejoin="round" d="M 6154,5573 L 6155,5406 6589,5657 6589,5825 6154,5573 Z"/>
    </g>
    <g>
     <path fill="rgb(127,127,127)" stroke="none" d="M 5574,5238 L 5575,5071 6009,5322 6009,5490 5574,5238 Z"/>
     <path fill="none" stroke="rgb(0,0,0)" id="Drawing_19_0" stroke-width="40" stroke-linejoin="round" d="M 5574,5238 L 5575,5071 6009,5322 6009,5490 5574,5238 Z"/>
    </g>
    <g>
     <path fill="rgb(127,127,127)" stroke="none" d="M 4995,4903 L 4996,4736 5430,4987 5430,5155 4995,4903 Z"/>
     <path fill="none" stroke="rgb(0,0,0)" id="Drawing_20_0" stroke-width="40" stroke-linejoin="round" d="M 4995,4903 L 4996,4736 5430,4987 5430,5155 4995,4903 Z"/>
    </g>
    <g>
     <path fill="rgb(127,127,127)" stroke="none" d="M 7313,6243 L 7314,6076 7748,6327 7748,6495 7313,6243 Z"/>
     <path fill="none" stroke="rgb(0,0,0)" id="Drawing_21_0" stroke-width="40" stroke-linejoin="round" d="M 7313,6243 L 7314,6076 7748,6327 7748,6495 7313,6243 Z"/>
    </g>
    <g>
     <path fill="rgb(127,127,127)" stroke="none" d="M 6733,5908 L 6734,5741 7168,5992 7168,6160 6733,5908 Z"/>
     <path fill="none" stroke="rgb(0,0,0)" id="Drawing_22_0" stroke-width="40" stroke-linejoin="round" d="M 6733,5908 L 6734,5741 7168,5992 7168,6160 6733,5908 Z"/>
    </g>
    <g>
     <path fill="rgb(255,255,255)" stroke="none" d="M 7169,7248 L 7169,7164 7314,7248 7314,7331 7169,7248 Z"/>
     <path fill="none" stroke="rgb(127,127,127)" id="Drawing_23_0" stroke-width="40" stroke-linejoin="round" d="M 7169,7248 L 7169,7164 7314,7248 7314,7331 7169,7248 Z"/>
    </g>
    <g>
     <path fill="rgb(255,255,255)" stroke="none" d="M 7169,7080 L 7169,6913 7314,6997 7314,7164 7169,7080 Z"/>
     <path fill="none" stroke="rgb(127,127,127)" id="Drawing_24_0" stroke-width="40" stroke-linejoin="round" d="M 7169,7080 L 7169,6913 7314,6997 7314,7164 7169,7080 Z"/>
    </g>
    <g>
     <path fill="rgb(255,255,255)" stroke="none" d="M 7169,6829 L 7169,6662 7314,6746 7314,6913 7169,6829 Z"/>
     <path fill="none" stroke="rgb(127,127,127)" id="Drawing_25_0" stroke-width="40" stroke-linejoin="round" d="M 7169,6829 L 7169,6662 7314,6746 7314,6913 7169,6829 Z"/>
    </g>
    <g>
     <path fill="rgb(255,255,255)" stroke="none" d="M 7169,6579 L 7169,6495 7314,6579 7314,6662 7169,6579 Z"/>
     <path fill="none" stroke="rgb(127,127,127)" id="Drawing_26_0" stroke-width="40" stroke-linejoin="round" d="M 7169,6579 L 7169,6495 7314,6579 7314,6662 7169,6579 Z"/>
    </g>
    <g>
     <path fill="rgb(255,255,255)" stroke="none" d="M 7458,7416 L 7458,7332 7603,7416 7603,7499 7458,7416 Z"/>
     <path fill="none" stroke="rgb(127,127,127)" id="Drawing_27_0" stroke-width="40" stroke-linejoin="round" d="M 7458,7416 L 7458,7332 7603,7416 7603,7499 7458,7416 Z"/>
    </g>
    <g>
     <path fill="rgb(255,255,255)" stroke="none" d="M 7458,6746 L 7458,6662 7603,6746 7603,6829 7458,6746 Z"/>
     <path fill="none" stroke="rgb(127,127,127)" id="Drawing_28_0" stroke-width="40" stroke-linejoin="round" d="M 7458,6746 L 7458,6662 7603,6746 7603,6829 7458,6746 Z"/>
    </g>
    <g>
     <defs>
      <linearGradient id="Gradient_385" gradientUnits="userSpaceOnUse" x1="4778" y1="3732" x2="4778" y2="4653">
       <stop offset="0.1" stop-color="rgb(179,179,179)"/>
       <stop offset="1" stop-color="rgb(229,229,229)"/>
      </linearGradient>
     </defs>
     <path fill="url(#Gradient_385)" stroke="rgb(255,255,255)" id="Drawing_29_0" stroke-width="40" stroke-linejoin="round" d="M 4706,4653 L 3982,4234 4851,3732 5575,4151 4706,4653 Z"/>
    </g>
    <g>
     <defs>
      <linearGradient id="Gradient_386" gradientUnits="userSpaceOnUse" x1="6734" y1="4150" x2="6734" y2="6327">
       <stop offset="0.1" stop-color="rgb(179,179,179)"/>
       <stop offset="1" stop-color="rgb(229,229,229)"/>
      </linearGradient>
     </defs>
     <path fill="url(#Gradient_386)" stroke="rgb(255,255,255)" id="Drawing_30_0" stroke-width="40" stroke-linejoin="round" d="M 7893,6327 L 4851,4569 5575,4150 8617,5908 7893,6327 Z"/>
    </g>
    <g>
     <path fill="rgb(179,179,179)" stroke="none" d="M 7748,7495 L 7748,6746 7893,6663 7893,6328 8617,5909 8617,7495 7748,7495 Z"/>
     <path fill="rgb(180,180,180)" stroke="none" d="M 8617,7495 L 8617,7500 7893,7918 7893,7584 7748,7667 7748,7495 8617,7495 Z M 7748,7475 L 7748,6746 7893,6663 7893,6328 8617,5909 8617,7475 7748,7475 Z"/>
     <path fill="rgb(181,181,181)" stroke="none" d="M 8617,7475 L 8617,7500 7893,7918 7893,7584 7748,7667 7748,7475 8617,7475 Z M 7748,7455 L 7748,6746 7893,6663 7893,6328 8617,5909 8617,7455 7748,7455 Z"/>
     <path fill="rgb(182,182,182)" stroke="none" d="M 8617,7455 L 8617,7500 7893,7918 7893,7584 7748,7667 7748,7455 8617,7455 Z M 7748,7435 L 7748,6746 7893,6663 7893,6328 8617,5909 8617,7435 7748,7435 Z"/>
     <path fill="rgb(183,183,183)" stroke="none" d="M 8617,7435 L 8617,7500 7893,7918 7893,7584 7748,7667 7748,7435 8617,7435 Z M 7748,7415 L 7748,6746 7893,6663 7893,6328 8617,5909 8617,7415 7748,7415 Z"/>
     <path fill="rgb(184,184,184)" stroke="none" d="M 8617,7415 L 8617,7500 7893,7918 7893,7584 7748,7667 7748,7415 8617,7415 Z M 7748,7395 L 7748,6746 7893,6663 7893,6328 8617,5909 8617,7395 7748,7395 Z"/>
     <path fill="rgb(185,185,185)" stroke="none" d="M 8617,7395 L 8617,7500 7893,7918 7893,7584 7748,7667 7748,7395 8617,7395 Z M 7748,7375 L 7748,6746 7893,6663 7893,6328 8617,5909 8617,7375 7748,7375 Z"/>
     <path fill="rgb(186,186,186)" stroke="none" d="M 8617,7375 L 8617,7500 7893,7918 7893,7584 7748,7667 7748,7375 8617,7375 Z M 7748,7355 L 7748,6746 7893,6663 7893,6328 8617,5909 8617,7355 7748,7355 Z"/>
     <path fill="rgb(187,187,187)" stroke="none" d="M 8617,7355 L 8617,7500 7893,7918 7893,7584 7748,7667 7748,7355 8617,7355 Z M 7748,7334 L 7748,6746 7893,6663 7893,6328 8617,5909 8617,7334 7748,7334 Z"/>
     <path fill="rgb(188,188,188)" stroke="none" d="M 8617,7334 L 8617,7500 7893,7918 7893,7584 7748,7667 7748,7334 8617,7334 Z M 7748,7314 L 7748,6746 7893,6663 7893,6328 8617,5909 8617,7314 7748,7314 Z"/>
     <path fill="rgb(189,189,189)" stroke="none" d="M 8617,7314 L 8617,7500 7893,7918 7893,7584 7748,7667 7748,7314 8617,7314 Z M 7748,7294 L 7748,6746 7893,6663 7893,6328 8617,5909 8617,7294 7748,7294 Z"/>
     <path fill="rgb(190,190,190)" stroke="none" d="M 8617,7294 L 8617,7500 7893,7918 7893,7584 7748,7667 7748,7294 8617,7294 Z M 7748,7274 L 7748,6746 7893,6663 7893,6328 8617,5909 8617,7274 7748,7274 Z"/>
     <path fill="rgb(191,191,191)" stroke="none" d="M 8617,7274 L 8617,7500 7893,7918 7893,7584 7748,7667 7748,7274 8617,7274 Z M 7748,7254 L 7748,6746 7893,6663 7893,6328 8617,5909 8617,7254 7748,7254 Z"/>
     <path fill="rgb(192,192,192)" stroke="none" d="M 8617,7254 L 8617,7500 7893,7918 7893,7584 7748,7667 7748,7254 8617,7254 Z M 7748,7234 L 7748,6746 7893,6663 7893,6328 8617,5909 8617,7234 7748,7234 Z"/>
     <path fill="rgb(193,193,193)" stroke="none" d="M 8617,7234 L 8617,7500 7893,7918 7893,7584 7748,7667 7748,7234 8617,7234 Z M 7748,7214 L 7748,6746 7893,6663 7893,6328 8617,5909 8617,7214 7748,7214 Z"/>
     <path fill="rgb(194,194,194)" stroke="none" d="M 8617,7214 L 8617,7500 7893,7918 7893,7584 7748,7667 7748,7214 8617,7214 Z M 7748,7194 L 7748,6746 7893,6663 7893,6328 8617,5909 8617,7194 7748,7194 Z"/>
     <path fill="rgb(195,195,195)" stroke="none" d="M 8617,7194 L 8617,7500 7893,7918 7893,7584 7748,7667 7748,7194 8617,7194 Z M 7748,7173 L 7748,6746 7893,6663 7893,6328 8617,5909 8617,7173 7748,7173 Z"/>
     <path fill="rgb(196,196,196)" stroke="none" d="M 8617,7173 L 8617,7500 7893,7918 7893,7584 7748,7667 7748,7173 8617,7173 Z M 7748,7153 L 7748,6746 7893,6663 7893,6328 8617,5909 8617,7153 7748,7153 Z"/>
     <path fill="rgb(197,197,197)" stroke="none" d="M 8617,7153 L 8617,7500 7893,7918 7893,7584 7748,7667 7748,7153 8617,7153 Z M 7748,7133 L 7748,6746 7893,6663 7893,6328 8617,5909 8617,7133 7748,7133 Z"/>
     <path fill="rgb(198,198,198)" stroke="none" d="M 8617,7133 L 8617,7500 7893,7918 7893,7584 7748,7667 7748,7133 8617,7133 Z M 8610,7113 L 7748,7113 7748,6746 7893,6663 7893,6328 8610,5913 8610,7113 Z"/>
     <path fill="rgb(199,199,199)" stroke="none" d="M 8610,7113 L 8610,5913 8617,5909 8617,7500 7893,7918 7893,7584 7748,7667 7748,7113 8610,7113 Z M 8590,5927 L 8590,7093 7748,7093 7748,6746 7893,6663 7893,6328 8586,5927 8590,5927 Z"/>
     <path fill="rgb(200,200,200)" stroke="none" d="M 8590,7093 L 8590,5927 8586,5927 8617,5909 8617,7500 7893,7918 7893,7584 7748,7667 7748,7093 8590,7093 Z M 8570,5947 L 8570,7073 7748,7073 7748,6746 7893,6663 7893,6328 8551,5947 8570,5947 Z"/>
     <path fill="rgb(201,201,201)" stroke="none" d="M 8570,7073 L 8570,5947 8551,5947 8617,5909 8617,7500 7893,7918 7893,7584 7748,7667 7748,7073 8570,7073 Z M 8550,5967 L 8550,7053 7748,7053 7748,6746 7893,6663 7893,6328 8517,5967 8550,5967 Z"/>
     <path fill="rgb(202,202,202)" stroke="none" d="M 8550,7053 L 8550,5967 8517,5967 8617,5909 8617,7500 7893,7918 7893,7584 7748,7667 7748,7053 8550,7053 Z M 8530,5987 L 8530,7033 7748,7033 7748,6746 7893,6663 7893,6328 8482,5987 8530,5987 Z"/>
     <path fill="rgb(203,203,203)" stroke="none" d="M 8530,7033 L 8530,5987 8482,5987 8617,5909 8617,7500 7893,7918 7893,7584 7748,7667 7748,7033 8530,7033 Z M 8510,6008 L 8510,7013 7748,7013 7748,6746 7893,6663 7893,6328 8446,6008 8510,6008 Z"/>
     <path fill="rgb(204,204,204)" stroke="none" d="M 8510,7013 L 8510,6008 8446,6008 8617,5909 8617,7500 7893,7918 7893,7584 7748,7667 7748,7013 8510,7013 Z M 8489,6028 L 8489,6992 7748,6992 7748,6746 7893,6663 7893,6328 8411,6028 8489,6028 Z"/>
     <path fill="rgb(205,205,205)" stroke="none" d="M 8489,6992 L 8489,6028 8411,6028 8617,5909 8617,7500 7893,7918 7893,7584 7748,7667 7748,6992 8489,6992 Z M 8469,6048 L 8469,6972 7748,6972 7748,6746 7893,6663 7893,6328 8377,6048 8469,6048 Z"/>
     <path fill="rgb(206,206,206)" stroke="none" d="M 8469,6972 L 8469,6048 8377,6048 8617,5909 8617,7500 7893,7918 7893,7584 7748,7667 7748,6972 8469,6972 Z M 8449,6068 L 8449,6952 7748,6952 7748,6746 7893,6663 7893,6328 8342,6068 8449,6068 Z"/>
     <path fill="rgb(207,207,207)" stroke="none" d="M 8449,6952 L 8449,6068 8342,6068 8617,5909 8617,7500 7893,7918 7893,7584 7748,7667 7748,6952 8449,6952 Z M 8429,6088 L 8429,6932 7748,6932 7748,6746 7893,6663 7893,6328 8308,6088 8429,6088 Z"/>
     <path fill="rgb(208,208,208)" stroke="none" d="M 8429,6932 L 8429,6088 8308,6088 8617,5909 8617,7500 7893,7918 7893,7584 7748,7667 7748,6932 8429,6932 Z M 8409,6108 L 8409,6912 7748,6912 7748,6746 7893,6663 7893,6328 8273,6108 8409,6108 Z"/>
     <path fill="rgb(209,209,209)" stroke="none" d="M 8409,6912 L 8409,6108 8273,6108 8617,5909 8617,7500 7893,7918 7893,7584 7748,7667 7748,6912 8409,6912 Z M 8389,6128 L 8389,6892 7748,6892 7748,6746 7893,6663 7893,6328 8239,6128 8389,6128 Z"/>
     <path fill="rgb(210,210,210)" stroke="none" d="M 8389,6892 L 8389,6128 8239,6128 8617,5909 8617,7500 7893,7918 7893,7584 7748,7667 7748,6892 8389,6892 Z M 8369,6148 L 8369,6872 7748,6872 7748,6746 7893,6663 7893,6328 8204,6148 8369,6148 Z"/>
     <path fill="rgb(211,211,211)" stroke="none" d="M 8369,6872 L 8369,6148 8204,6148 8617,5909 8617,7500 7893,7918 7893,7584 7748,7667 7748,6872 8369,6872 Z M 8349,6168 L 8349,6852 7748,6852 7748,6746 7893,6663 7893,6328 8169,6168 8349,6168 Z"/>
     <path fill="rgb(212,212,212)" stroke="none" d="M 8349,6852 L 8349,6168 8169,6168 8617,5909 8617,7500 7893,7918 7893,7584 7748,7667 7748,6852 8349,6852 Z M 8328,6189 L 8328,6831 7748,6831 7748,6746 7893,6663 7893,6328 8133,6189 8328,6189 Z"/>
     <path fill="rgb(213,213,213)" stroke="none" d="M 8328,6831 L 8328,6189 8133,6189 8617,5909 8617,7500 7893,7918 7893,7584 7748,7667 7748,6831 8328,6831 Z M 8308,6209 L 8308,6811 7748,6811 7748,6746 7893,6663 7893,6328 8099,6209 8308,6209 Z"/>
     <path fill="rgb(214,214,214)" stroke="none" d="M 8308,6811 L 8308,6209 8099,6209 8617,5909 8617,7500 7893,7918 7893,7584 7748,7667 7748,6811 8308,6811 Z M 8288,6229 L 8288,6791 7748,6791 7748,6746 7893,6663 7893,6328 8064,6229 8288,6229 Z"/>
     <path fill="rgb(215,215,215)" stroke="none" d="M 8288,6791 L 8288,6229 8064,6229 8617,5909 8617,7500 7893,7918 7893,7584 7748,7667 7748,6791 8288,6791 Z M 8268,6249 L 8268,6771 7748,6771 7748,6746 7893,6663 7893,6328 8030,6249 8268,6249 Z"/>
     <path fill="rgb(216,216,216)" stroke="none" d="M 8268,6771 L 8268,6249 8030,6249 8617,5909 8617,7500 7893,7918 7893,7584 7748,7667 7748,6771 8268,6771 Z M 8248,6269 L 8248,6751 7766,6751 7766,6736 7893,6663 7893,6328 7995,6269 8248,6269 Z"/>
     <path fill="rgb(217,217,217)" stroke="none" d="M 7766,6751 L 8248,6751 8248,6269 7995,6269 8617,5909 8617,7500 7893,7918 7893,7584 7748,7667 7748,6746 7766,6736 7766,6751 Z M 8228,6289 L 8228,6731 7786,6731 7786,6724 7893,6663 7893,6328 7960,6289 8228,6289 Z"/>
     <path fill="rgb(218,218,218)" stroke="none" d="M 7786,6731 L 8228,6731 8228,6289 7960,6289 8617,5909 8617,7500 7893,7918 7893,7584 7748,7667 7748,6746 7786,6724 7786,6731 Z M 8208,6309 L 8208,6711 7809,6711 7893,6663 7893,6328 7926,6309 8208,6309 Z"/>
     <path fill="rgb(219,219,219)" stroke="none" d="M 8208,6711 L 8208,6309 7926,6309 8617,5909 8617,7500 7893,7918 7893,7584 7748,7667 7748,6746 7809,6711 8208,6711 Z M 8188,6329 L 8188,6691 7844,6691 7893,6663 7893,6329 8188,6329 Z"/>
     <path fill="rgb(220,220,220)" stroke="none" d="M 8188,6691 L 8188,6329 7893,6329 7893,6328 8617,5909 8617,7500 7893,7918 7893,7584 7748,7667 7748,6746 7844,6691 8188,6691 Z M 8167,6350 L 8167,6670 7881,6670 7893,6663 7893,6350 8167,6350 Z"/>
     <path fill="rgb(221,221,221)" stroke="none" d="M 8167,6670 L 8167,6350 7893,6350 7893,6328 8617,5909 8617,7500 7893,7918 7893,7584 7748,7667 7748,6746 7881,6670 8167,6670 Z M 8147,6370 L 8147,6650 7893,6650 7893,6370 8147,6370 Z"/>
     <path fill="rgb(222,222,222)" stroke="none" d="M 8147,6650 L 8147,6370 7893,6370 7893,6328 8617,5909 8617,7500 7893,7918 7893,7584 7748,7667 7748,6746 7893,6663 7893,6650 8147,6650 Z M 8127,6390 L 8127,6630 7893,6630 7893,6390 8127,6390 Z"/>
     <path fill="rgb(223,223,223)" stroke="none" d="M 8127,6630 L 8127,6390 7893,6390 7893,6328 8617,5909 8617,7500 7893,7918 7893,7584 7748,7667 7748,6746 7893,6663 7893,6630 8127,6630 Z M 7907,6410 L 8107,6410 8107,6610 7907,6610 7907,6410 Z"/>
     <path fill="rgb(224,224,224)" stroke="none" d="M 7907,6410 L 7907,6610 8107,6610 8107,6410 7907,6410 Z M 7927,6430 L 8087,6430 8087,6590 7927,6590 7927,6430 Z M 7893,7918 L 7893,7584 7748,7667 7748,6746 7893,6663 7893,6328 8617,5909 8617,7500 7893,7918 Z"/>
     <path fill="rgb(225,225,225)" stroke="none" d="M 7927,6430 L 7927,6590 8087,6590 8087,6430 7927,6430 Z M 7947,6450 L 8067,6450 8067,6570 7947,6570 7947,6450 Z M 7893,7918 L 7893,7584 7748,7667 7748,6746 7893,6663 7893,6328 8617,5909 8617,7500 7893,7918 Z"/>
     <path fill="rgb(226,226,226)" stroke="none" d="M 7947,6450 L 7947,6570 8067,6570 8067,6450 7947,6450 Z M 7967,6470 L 8047,6470 8047,6550 7967,6550 7967,6470 Z M 7893,7918 L 7893,7584 7748,7667 7748,6746 7893,6663 7893,6328 8617,5909 8617,7500 7893,7918 Z"/>
     <path fill="rgb(227,227,227)" stroke="none" d="M 7967,6470 L 7967,6550 8047,6550 8047,6470 7967,6470 Z M 7987,6490 L 8027,6490 8027,6530 7987,6530 7987,6490 Z M 7893,7918 L 7893,7584 7748,7667 7748,6746 7893,6663 7893,6328 8617,5909 8617,7500 7893,7918 Z"/>
     <path fill="rgb(229,229,229)" stroke="none" d="M 7987,6490 L 7987,6530 8027,6530 8027,6490 7987,6490 Z M 7893,7918 L 7893,7584 7748,7667 7748,6746 7893,6663 7893,6328 8617,5909 8617,7500 7893,7918 Z"/>
     <path fill="none" stroke="rgb(255,255,255)" id="Drawing_31_0" stroke-width="40" stroke-linejoin="round" d="M 7893,7918 L 7893,7584 7748,7667 7748,6746 7893,6663 7893,6328 8617,5909 8617,7500 7893,7918 Z"/>
    </g>
    <g>
     <path fill="rgb(127,127,127)" stroke="none" d="M 3982,5407 L 3982,4653 4127,4737 4127,5490 3982,5407 Z"/>
     <path fill="none" stroke="rgb(0,0,0)" id="Drawing_32_0" stroke-width="40" stroke-linejoin="round" d="M 3982,5407 L 3982,4653 4127,4737 4127,5490 3982,5407 Z"/>
    </g>
    <g>
     <path fill="rgb(229,229,229)" stroke="none" d="M 4851,5908 L 4851,5406 5430,5741 5430,6243 4851,5908 Z"/>
     <path fill="none" stroke="rgb(127,127,127)" id="Drawing_33_0" stroke-width="40" stroke-linejoin="round" d="M 4851,5908 L 4851,5406 5430,5741 5430,6243 4851,5908 Z"/>
    </g>
    <g>
     <defs>
      <linearGradient id="Gradient_387" gradientUnits="userSpaceOnUse" x1="4996" y1="3815" x2="5286" y2="3815">
       <stop offset="0.1" stop-color="rgb(179,179,179)"/>
       <stop offset="1" stop-color="rgb(229,229,229)"/>
      </linearGradient>
     </defs>
     <path fill="url(#Gradient_387)" stroke="rgb(255,255,255)" id="Drawing_34_0" stroke-width="40" stroke-linejoin="round" d="M 4996,3815 L 4997,3648 5286,3815 5286,3983 4996,3815 Z"/>
    </g>
    <g>
     <defs>
      <linearGradient id="Gradient_388" gradientUnits="userSpaceOnUse" x1="8183" y1="5657" x2="8473" y2="5657">
       <stop offset="0.1" stop-color="rgb(179,179,179)"/>
       <stop offset="1" stop-color="rgb(229,229,229)"/>
      </linearGradient>
     </defs>
     <path fill="url(#Gradient_388)" stroke="rgb(255,255,255)" id="Drawing_35_0" stroke-width="40" stroke-linejoin="round" d="M 8183,5657 L 8184,5490 8473,5657 8473,5825 8183,5657 Z"/>
    </g>
    <g>
     <path fill="none" stroke="rgb(0,0,0)" id="Drawing_36_0" stroke-width="40" stroke-linejoin="round" d="M 4851,6160 L 4706,6243 3982,5825 3982,4234 4851,3732 4996,3815 4996,3648 5286,3815 5286,3983 8183,5657 8183,5490 8472,5657 8472,5825 8617,5909 8617,7499 7893,7918 4851,6160 Z"/>
    </g>
    <g>
     <path fill="rgb(127,127,127)" stroke="none" d="M 8327,7164 L 8327,6746 8472,6662 8472,7081 8327,7164 Z"/>
     <path fill="none" stroke="rgb(0,0,0)" id="Drawing_37_0" stroke-width="40" stroke-linejoin="round" d="M 8327,7164 L 8327,6746 8472,6662 8472,7081 8327,7164 Z"/>
    </g>
   </g>
  </g>
 </g>
</svg>