<?xml version="1.0" encoding="UTF-8"?>

<svg version="1.2" baseProfile="tiny" width="18.13mm" height="32.69mm" viewBox="9479 10877 1813 3269" preserveAspectRatio="xMidYMid" fill-rule="evenodd" stroke-width="28.222" stroke-linejoin="round" xmlns="http://www.w3.org/2000/svg" xmlns:xlink="http://www.w3.org/1999/xlink" xml:space="preserve">
 <g visibility="visible" id="Slide_1">
  <g id="DrawingGroup_1">
   <g>
    <path fill="rgb(221,221,221)" stroke="none" d="M 10395,14125 C 10746,14125 11291,14051 11291,13755 11291,13459 11035,13459 10907,13459 10907,13681 10395,13828 10395,14125 Z"/>
    <path fill="none" stroke="rgb(221,221,221)" id="Drawing_1_0" stroke-linejoin="round" d="M 10395,14125 C 10746,14125 11291,14051 11291,13755 11291,13459 11035,13459 10907,13459 10907,13681 10395,13828 10395,14125 Z"/>
   </g>
   <g id="DrawingGroup_2">
    <g>
     <defs>
      <linearGradient id="Gradient_606" gradientUnits="userSpaceOnUse" x1="9497" y1="13163" x2="10909" y2="13165">
       <stop offset="0.1" stop-color="rgb(51,51,51)"/>
       <stop offset="1" stop-color="rgb(153,153,153)"/>
      </linearGradient>
     </defs>
     <path fill="url(#Gradient_606)" stroke="none" id="Drawing_2_0" d="M 9499,13737 L 9503,13784 9515,13828 9534,13869 9560,13907 9591,13942 9629,13974 9672,14003 9719,14028 9826,14071 9945,14101 10072,14119 10203,14126 10334,14119 10462,14101 10580,14071 10687,14028 10734,14003 10777,13974 10815,13942 10847,13907 10872,13869 10891,13828 10903,13784 10907,13737 10907,12202 10903,12256 10891,12306 10872,12353 10847,12396 10815,12436 10777,12473 10734,12506 10687,12535 10580,12584 10462,12618 10334,12639 10203,12646 10072,12639 9945,12618 9826,12584 9719,12535 9672,12506 9629,12473 9591,12436 9560,12396 9534,12353 9515,12306 9503,12256 9499,12202 9499,13201 9499,13729 9499,13824 9499,13824 9499,13824 9499,13824 9499,13824 9499,13821 9499,13806 9499,13737 Z"/>
     <path fill="none" stroke="rgb(178,178,178)" id="Drawing_2_1" stroke-width="40" stroke-linejoin="round" d="M 9499,13737 C 9499,14255 10907,14255 10907,13737 L 10907,12202 C 10907,12794 9499,12794 9499,12202 9499,12300 9499,14255 9499,13737 Z"/>
    </g>
    <g>
     <defs>
      <linearGradient id="Gradient_607" gradientUnits="userSpaceOnUse" x1="10202" y1="12646" x2="10204" y2="11812">
       <stop offset="0.1" stop-color="rgb(102,102,102)"/>
       <stop offset="1" stop-color="rgb(153,153,153)"/>
      </linearGradient>
     </defs>
     <path fill="url(#Gradient_607)" stroke="none" id="Drawing_3_0" d="M 9499,12257 L 9503,12304 9515,12348 9534,12389 9560,12427 9591,12462 9629,12494 9672,12523 9719,12548 9826,12591 9945,12621 10072,12639 10203,12645 10334,12639 10462,12621 10580,12591 10687,12548 10734,12523 10777,12494 10815,12462 10847,12427 10872,12389 10891,12348 10903,12304 10907,12257 10907,11813 10903,11867 10891,11917 10872,11964 10847,12007 10815,12047 10777,12084 10734,12117 10687,12146 10580,12195 10462,12229 10334,12250 10203,12257 10072,12250 9945,12229 9826,12195 9719,12146 9672,12117 9629,12084 9591,12047 9560,12007 9534,11964 9515,11917 9503,11867 9499,11813 9499,12257 Z"/>
     <path fill="none" stroke="rgb(178,178,178)" id="Drawing_3_1" stroke-width="40" stroke-linejoin="round" d="M 9499,12257 C 9499,12775 10907,12775 10907,12257 L 10907,11813 C 10907,12405 9499,12405 9499,11813 9499,11911 9499,12257 9499,12257 Z"/>
    </g>
    <g>
     <defs>
      <linearGradient id="Gradient_608" gradientUnits="userSpaceOnUse" x1="10203" y1="11462" x2="10203" y2="12276">
       <stop offset="0.1" stop-color="rgb(51,51,51)"/>
       <stop offset="1" stop-color="rgb(153,153,153)"/>
      </linearGradient>
     </defs>
     <path fill="url(#Gradient_608)" stroke="none" id="Drawing_4_0" d="M 10715,11573 L 10760,11602 10799,11635 10832,11670 10859,11707 10880,11746 10895,11786 10904,11827 10907,11869 10904,11911 10895,11952 10880,11992 10859,12031 10832,12068 10799,12103 10760,12136 10715,12165 10664,12191 10608,12214 10547,12233 10483,12248 10416,12260 10346,12269 10203,12276 10060,12269 9990,12260 9923,12248 9859,12233 9798,12214 9742,12191 9691,12165 9646,12136 9607,12103 9574,12068 9547,12031 9526,11992 9511,11952 9502,11911 9499,11869 9502,11827 9511,11786 9526,11746 9547,11707 9574,11670 9607,11635 9646,11602 9691,11573 9742,11547 9798,11524 9859,11505 9923,11490 9991,11478 10060,11469 10203,11462 10346,11469 10416,11478 10483,11490 10547,11505 10608,11524 10664,11547 10715,11573 Z"/>
     <path fill="none" stroke="rgb(178,178,178)" id="Drawing_4_1" stroke-width="40" stroke-linejoin="round" d="M 10715,11573 C 10971,11721 10971,12017 10715,12165 10459,12313 9947,12313 9691,12165 9435,12017 9435,11721 9691,11573 9948,11425 10459,11425 10715,11573 Z"/>
    </g>
    <g>
     <defs>
      <linearGradient id="Gradient_609" gradientUnits="userSpaceOnUse" x1="10395" y1="11873" x2="10765" y2="11873">
       <stop offset="0.1" stop-color="rgb(51,51,51)"/>
       <stop offset="1" stop-color="rgb(153,153,153)"/>
      </linearGradient>
     </defs>
     <path fill="url(#Gradient_609)" stroke="none" id="Drawing_5_0" d="M 10708,11799 L 10729,11813 10745,11826 10751,11833 10755,11840 10759,11847 10762,11853 10764,11860 10765,11866 10765,11872 10764,11878 10763,11884 10761,11890 10759,11895 10756,11901 10749,11911 10742,11920 10734,11927 10726,11934 10713,11944 10708,11947 10684,11959 10660,11968 10637,11974 10614,11978 10592,11980 10571,11979 10551,11978 10532,11975 10515,11971 10499,11966 10474,11957 10458,11950 10452,11947 10431,11933 10415,11919 10409,11912 10404,11906 10401,11899 10398,11893 10396,11886 10395,11880 10395,11874 10396,11868 10397,11862 10399,11856 10401,11850 10404,11845 10411,11835 10418,11826 10426,11818 10434,11812 10447,11802 10452,11799 10476,11787 10500,11778 10523,11771 10546,11768 10568,11766 10589,11766 10609,11768 10628,11771 10645,11775 10661,11779 10686,11788 10702,11796 10708,11799 Z"/>
     <path fill="none" stroke="rgb(178,178,178)" id="Drawing_5_1" stroke-width="40" stroke-linejoin="round" d="M 10708,11799 C 10836,11873 10708,11947 10708,11947 10580,12021 10452,11947 10452,11947 10324,11873 10452,11799 10452,11799 10580,11725 10708,11799 10708,11799 Z"/>
    </g>
    <g>
     <path fill="none" stroke="rgb(0,0,0)" id="Drawing_6_0" stroke-width="40" stroke-linejoin="round" d="M 9499,13737 C 9499,14254 10907,14254 10907,13737 L 10907,11832 C 10927,11325 9472,11325 9499,11832 9504,11929 9499,14254 9499,13737 Z"/>
    </g>
    <g>
     <defs>
      <linearGradient id="Gradient_610" gradientUnits="userSpaceOnUse" x1="10586" y1="11831" x2="10588" y2="10897">
       <stop offset="0.1" stop-color="rgb(102,102,102)"/>
       <stop offset="1" stop-color="rgb(153,153,153)"/>
      </linearGradient>
     </defs>
     <path fill="url(#Gradient_610)" stroke="rgb(0,0,0)" id="Drawing_7_0" stroke-width="40" stroke-linejoin="round" d="M 10523,11831 L 10523,10897 10651,10897 10651,11831 10523,11831 Z"/>
    </g>
    <g>
     <defs>
      <linearGradient id="Gradient_611" gradientUnits="userSpaceOnUse" x1="10011" y1="11651" x2="10381" y2="11651">
       <stop offset="0.1" stop-color="rgb(51,51,51)"/>
       <stop offset="1" stop-color="rgb(153,153,153)"/>
      </linearGradient>
     </defs>
     <path fill="url(#Gradient_611)" stroke="none" id="Drawing_8_0" d="M 10324,11577 L 10345,11591 10361,11604 10367,11611 10371,11618 10375,11625 10378,11631 10380,11638 10381,11644 10381,11650 10380,11656 10379,11662 10377,11668 10375,11673 10372,11679 10365,11689 10358,11698 10350,11705 10342,11712 10329,11722 10324,11725 10300,11737 10276,11746 10253,11752 10230,11756 10208,11758 10187,11757 10167,11756 10148,11753 10131,11749 10115,11744 10090,11735 10074,11728 10068,11725 10047,11711 10031,11697 10025,11690 10020,11684 10017,11677 10014,11671 10012,11664 10011,11658 10011,11652 10012,11646 10013,11640 10015,11634 10017,11628 10020,11623 10027,11613 10034,11604 10042,11596 10050,11590 10063,11580 10068,11577 10092,11565 10116,11556 10139,11549 10162,11546 10184,11544 10205,11544 10225,11546 10244,11549 10261,11553 10277,11557 10302,11566 10318,11574 10324,11577 Z"/>
     <path fill="none" stroke="rgb(178,178,178)" id="Drawing_8_1" stroke-width="40" stroke-linejoin="round" d="M 10324,11577 C 10452,11651 10324,11725 10324,11725 10196,11799 10068,11725 10068,11725 9940,11651 10068,11577 10068,11577 10196,11503 10324,11577 10324,11577 Z"/>
    </g>
    <g>
     <defs>
      <linearGradient id="Gradient_612" gradientUnits="userSpaceOnUse" x1="9883" y1="11906" x2="10395" y2="11906">
       <stop offset="0.1" stop-color="rgb(147,212,240)"/>
       <stop offset="1" stop-color="rgb(233,246,252)"/>
      </linearGradient>
     </defs>
     <path fill="url(#Gradient_612)" stroke="rgb(102,102,102)" id="Drawing_9_0" stroke-width="40" stroke-linejoin="round" d="M 9883,11832 L 10011,11758 10395,11980 10267,12054 9883,11832 Z"/>
    </g>
   </g>
  </g>
 </g>
</svg>