<?xml version="1.0" encoding="UTF-8"?>

<svg version="1.2" baseProfile="tiny" width="14.53mm" height="21.4mm" viewBox="8222 11403 1453 2140" preserveAspectRatio="xMidYMid" fill-rule="evenodd" stroke-width="28.222" stroke-linejoin="round" xmlns="http://www.w3.org/2000/svg" xmlns:xlink="http://www.w3.org/1999/xlink" xml:space="preserve">
 <g visibility="visible" id="Slide_1">
  <g id="DrawingGroup_1">
   <g>
    <path fill="rgb(221,221,221)" stroke="none" d="M 8903,13523 C 9205,13523 9674,13460 9674,13205 9674,12951 9453,12887 9343,12887 9343,13078 8903,13268 8903,13523 Z"/>
    <path fill="none" stroke="rgb(221,221,221)" id="Drawing_1_0" stroke-linejoin="round" d="M 8903,13523 C 9205,13523 9674,13460 9674,13205 9674,12951 9453,12887 9343,12887 9343,13078 8903,13268 8903,13523 Z"/>
   </g>
   <g id="DrawingGroup_2">
    <g>
     <path fill="rgb(179,179,179)" stroke="none" d="M 8903,13216 L 8903,12314 9343,12059 9343,13216 8903,13216 Z"/>
     <path fill="rgb(180,180,180)" stroke="none" d="M 9343,13216 L 9343,13268 8903,13523 8903,13216 9343,13216 Z M 8903,13201 L 8903,12314 9343,12059 9343,13201 8903,13201 Z"/>
     <path fill="rgb(181,181,181)" stroke="none" d="M 9343,13201 L 9343,13268 8903,13523 8903,13201 9343,13201 Z M 8903,13186 L 8903,12314 9343,12059 9343,13186 8903,13186 Z"/>
     <path fill="rgb(182,182,182)" stroke="none" d="M 9343,13186 L 9343,13268 8903,13523 8903,13186 9343,13186 Z M 8903,13172 L 8903,12314 9343,12059 9343,13172 8903,13172 Z"/>
     <path fill="rgb(183,183,183)" stroke="none" d="M 9343,13172 L 9343,13268 8903,13523 8903,13172 9343,13172 Z M 8903,13157 L 8903,12314 9343,12059 9343,13157 8903,13157 Z"/>
     <path fill="rgb(184,184,184)" stroke="none" d="M 9343,13157 L 9343,13268 8903,13523 8903,13157 9343,13157 Z M 8903,13142 L 8903,12314 9343,12059 9343,13142 8903,13142 Z"/>
     <path fill="rgb(185,185,185)" stroke="none" d="M 9343,13142 L 9343,13268 8903,13523 8903,13142 9343,13142 Z M 8903,13128 L 8903,12314 9343,12059 9343,13128 8903,13128 Z"/>
     <path fill="rgb(186,186,186)" stroke="none" d="M 9343,13128 L 9343,13268 8903,13523 8903,13128 9343,13128 Z M 8903,13113 L 8903,12314 9343,12059 9343,13113 8903,13113 Z"/>
     <path fill="rgb(187,187,187)" stroke="none" d="M 9343,13113 L 9343,13268 8903,13523 8903,13113 9343,13113 Z M 8903,13098 L 8903,12314 9343,12059 9343,13098 8903,13098 Z"/>
     <path fill="rgb(188,188,188)" stroke="none" d="M 9343,13098 L 9343,13268 8903,13523 8903,13098 9343,13098 Z M 8903,13084 L 8903,12314 9343,12059 9343,13084 8903,13084 Z"/>
     <path fill="rgb(189,189,189)" stroke="none" d="M 9343,13084 L 9343,13268 8903,13523 8903,13084 9343,13084 Z M 8903,13069 L 8903,12314 9343,12059 9343,13069 8903,13069 Z"/>
     <path fill="rgb(190,190,190)" stroke="none" d="M 9343,13069 L 9343,13268 8903,13523 8903,13069 9343,13069 Z M 8903,13054 L 8903,12314 9343,12059 9343,13054 8903,13054 Z"/>
     <path fill="rgb(191,191,191)" stroke="none" d="M 9343,13054 L 9343,13268 8903,13523 8903,13054 9343,13054 Z M 8903,13040 L 8903,12314 9343,12059 9343,13040 8903,13040 Z"/>
     <path fill="rgb(192,192,192)" stroke="none" d="M 9343,13040 L 9343,13268 8903,13523 8903,13040 9343,13040 Z M 8903,13025 L 8903,12314 9343,12059 9343,13025 8903,13025 Z"/>
     <path fill="rgb(193,193,193)" stroke="none" d="M 9343,13025 L 9343,13268 8903,13523 8903,13025 9343,13025 Z M 8903,13010 L 8903,12314 9343,12059 9343,13010 8903,13010 Z"/>
     <path fill="rgb(194,194,194)" stroke="none" d="M 9343,13010 L 9343,13268 8903,13523 8903,13010 9343,13010 Z M 8903,12996 L 8903,12314 9343,12059 9343,12996 8903,12996 Z"/>
     <path fill="rgb(195,195,195)" stroke="none" d="M 9343,12996 L 9343,13268 8903,13523 8903,12996 9343,12996 Z M 8903,12981 L 8903,12314 9343,12059 9343,12981 8903,12981 Z"/>
     <path fill="rgb(196,196,196)" stroke="none" d="M 9343,12981 L 9343,13268 8903,13523 8903,12981 9343,12981 Z M 8903,12966 L 8903,12314 9343,12059 9343,12966 8903,12966 Z"/>
     <path fill="rgb(197,197,197)" stroke="none" d="M 9343,12966 L 9343,13268 8903,13523 8903,12966 9343,12966 Z M 8903,12952 L 8903,12314 9343,12059 9343,12952 8903,12952 Z"/>
     <path fill="rgb(198,198,198)" stroke="none" d="M 9343,12952 L 9343,13268 8903,13523 8903,12952 9343,12952 Z M 8903,12937 L 8903,12314 9343,12059 9343,12937 8903,12937 Z"/>
     <path fill="rgb(199,199,199)" stroke="none" d="M 9343,12937 L 9343,13268 8903,13523 8903,12937 9343,12937 Z M 9343,12073 L 9343,12922 8903,12922 8903,12314 9319,12073 9343,12073 Z"/>
     <path fill="rgb(200,200,200)" stroke="none" d="M 9343,12922 L 9343,13268 8903,13523 8903,12922 9343,12922 Z M 9319,12073 L 9343,12059 9343,12073 9319,12073 Z M 9343,12087 L 9343,12908 8903,12908 8903,12314 9295,12087 9343,12087 Z"/>
     <path fill="rgb(201,201,201)" stroke="none" d="M 9343,12908 L 9343,13268 8903,13523 8903,12908 9343,12908 Z M 9295,12087 L 9343,12059 9343,12087 9295,12087 Z M 9343,12102 L 9343,12893 8903,12893 8903,12314 9269,12102 9343,12102 Z"/>
     <path fill="rgb(202,202,202)" stroke="none" d="M 9343,12893 L 9343,13268 8903,13523 8903,12893 9343,12893 Z M 9269,12102 L 9343,12059 9343,12102 9269,12102 Z M 9343,12117 L 9343,12878 8903,12878 8903,12314 9243,12117 9343,12117 Z"/>
     <path fill="rgb(203,203,203)" stroke="none" d="M 9343,12878 L 9343,13268 8903,13523 8903,12878 9343,12878 Z M 9243,12117 L 9343,12059 9343,12117 9243,12117 Z M 9343,12131 L 9343,12864 8903,12864 8903,12314 9219,12131 9343,12131 Z"/>
     <path fill="rgb(204,204,204)" stroke="none" d="M 9343,12864 L 9343,13268 8903,13523 8903,12864 9343,12864 Z M 9219,12131 L 9343,12059 9343,12131 9219,12131 Z M 9343,12146 L 9343,12849 8903,12849 8903,12314 9193,12146 9343,12146 Z"/>
     <path fill="rgb(205,205,205)" stroke="none" d="M 9343,12849 L 9343,13268 8903,13523 8903,12849 9343,12849 Z M 9193,12146 L 9343,12059 9343,12146 9193,12146 Z M 9343,12161 L 9343,12834 8903,12834 8903,12314 9167,12161 9343,12161 Z"/>
     <path fill="rgb(206,206,206)" stroke="none" d="M 9343,12834 L 9343,13268 8903,13523 8903,12834 9343,12834 Z M 9167,12161 L 9343,12059 9343,12161 9167,12161 Z M 9343,12175 L 9343,12820 8903,12820 8903,12314 9143,12175 9343,12175 Z"/>
     <path fill="rgb(207,207,207)" stroke="none" d="M 9343,12820 L 9343,13268 8903,13523 8903,12820 9343,12820 Z M 9143,12175 L 9343,12059 9343,12175 9143,12175 Z M 9341,12190 L 9341,12805 8903,12805 8903,12314 9117,12190 9341,12190 Z"/>
     <path fill="rgb(208,208,208)" stroke="none" d="M 9341,12805 L 9341,12190 9117,12190 9343,12059 9343,13268 8903,13523 8903,12805 9341,12805 Z M 9326,12205 L 9326,12790 8903,12790 8903,12314 9091,12205 9326,12205 Z"/>
     <path fill="rgb(209,209,209)" stroke="none" d="M 9326,12790 L 9326,12205 9091,12205 9343,12059 9343,13268 8903,13523 8903,12790 9326,12790 Z M 9312,12219 L 9312,12776 8903,12776 8903,12314 9067,12219 9312,12219 Z"/>
     <path fill="rgb(210,210,210)" stroke="none" d="M 9312,12776 L 9312,12219 9067,12219 9343,12059 9343,13268 8903,13523 8903,12776 9312,12776 Z M 9297,12234 L 9297,12761 8903,12761 8903,12314 9041,12234 9297,12234 Z"/>
     <path fill="rgb(211,211,211)" stroke="none" d="M 9297,12761 L 9297,12234 9041,12234 9343,12059 9343,13268 8903,13523 8903,12761 9297,12761 Z M 9282,12249 L 9282,12746 8903,12746 8903,12314 9015,12249 9282,12249 Z"/>
     <path fill="rgb(212,212,212)" stroke="none" d="M 9282,12746 L 9282,12249 9015,12249 9343,12059 9343,13268 8903,13523 8903,12746 9282,12746 Z M 9268,12263 L 9268,12732 8903,12732 8903,12314 8991,12263 9268,12263 Z"/>
     <path fill="rgb(213,213,213)" stroke="none" d="M 9268,12732 L 9268,12263 8991,12263 9343,12059 9343,13268 8903,13523 8903,12732 9268,12732 Z M 9253,12278 L 9253,12717 8903,12717 8903,12314 8965,12278 9253,12278 Z"/>
     <path fill="rgb(214,214,214)" stroke="none" d="M 9253,12717 L 9253,12278 8965,12278 9343,12059 9343,13268 8903,13523 8903,12717 9253,12717 Z M 9238,12293 L 9238,12702 8903,12702 8903,12314 8939,12293 9238,12293 Z"/>
     <path fill="rgb(215,215,215)" stroke="none" d="M 9238,12702 L 9238,12293 8939,12293 9343,12059 9343,13268 8903,13523 8903,12702 9238,12702 Z M 9224,12307 L 9224,12688 8903,12688 8903,12314 8915,12307 9224,12307 Z"/>
     <path fill="rgb(216,216,216)" stroke="none" d="M 9224,12688 L 9224,12307 8915,12307 9343,12059 9343,13268 8903,13523 8903,12688 9224,12688 Z M 9209,12322 L 9209,12673 8903,12673 8903,12322 9209,12322 Z"/>
     <path fill="rgb(217,217,217)" stroke="none" d="M 9209,12673 L 9209,12322 8903,12322 8903,12314 9343,12059 9343,13268 8903,13523 8903,12673 9209,12673 Z M 9194,12337 L 9194,12658 8903,12658 8903,12337 9194,12337 Z"/>
     <path fill="rgb(218,218,218)" stroke="none" d="M 9194,12658 L 9194,12337 8903,12337 8903,12314 9343,12059 9343,13268 8903,13523 8903,12658 9194,12658 Z M 9180,12351 L 9180,12644 8903,12644 8903,12351 9180,12351 Z"/>
     <path fill="rgb(219,219,219)" stroke="none" d="M 9180,12644 L 9180,12351 8903,12351 8903,12314 9343,12059 9343,13268 8903,13523 8903,12644 9180,12644 Z M 9165,12366 L 9165,12629 8903,12629 8903,12366 9165,12366 Z"/>
     <path fill="rgb(220,220,220)" stroke="none" d="M 9165,12629 L 9165,12366 8903,12366 8903,12314 9343,12059 9343,13268 8903,13523 8903,12629 9165,12629 Z M 8917,12381 L 9150,12381 9150,12614 8917,12614 8917,12381 Z"/>
     <path fill="rgb(221,221,221)" stroke="none" d="M 8917,12381 L 8917,12614 9150,12614 9150,12381 8917,12381 Z M 8931,12395 L 9136,12395 9136,12600 8931,12600 8931,12395 Z M 8903,13523 L 8903,12314 9343,12059 9343,13268 8903,13523 Z"/>
     <path fill="rgb(222,222,222)" stroke="none" d="M 8931,12395 L 8931,12600 9136,12600 9136,12395 8931,12395 Z M 8946,12410 L 9121,12410 9121,12585 8946,12585 8946,12410 Z M 8903,13523 L 8903,12314 9343,12059 9343,13268 8903,13523 Z"/>
     <path fill="rgb(223,223,223)" stroke="none" d="M 8946,12410 L 8946,12585 9121,12585 9121,12410 8946,12410 Z M 8961,12425 L 9106,12425 9106,12570 8961,12570 8961,12425 Z M 8903,13523 L 8903,12314 9343,12059 9343,13268 8903,13523 Z"/>
     <path fill="rgb(224,224,224)" stroke="none" d="M 8961,12425 L 8961,12570 9106,12570 9106,12425 8961,12425 Z M 8975,12439 L 9092,12439 9092,12556 8975,12556 8975,12439 Z M 8903,13523 L 8903,12314 9343,12059 9343,13268 8903,13523 Z"/>
     <path fill="rgb(225,225,225)" stroke="none" d="M 8975,12439 L 8975,12556 9092,12556 9092,12439 8975,12439 Z M 8990,12454 L 9077,12454 9077,12541 8990,12541 8990,12454 Z M 8903,13523 L 8903,12314 9343,12059 9343,13268 8903,13523 Z"/>
     <path fill="rgb(226,226,226)" stroke="none" d="M 8990,12454 L 8990,12541 9077,12541 9077,12454 8990,12454 Z M 9005,12469 L 9062,12469 9062,12526 9005,12526 9005,12469 Z M 8903,13523 L 8903,12314 9343,12059 9343,13268 8903,13523 Z"/>
     <path fill="rgb(227,227,227)" stroke="none" d="M 9005,12469 L 9005,12526 9062,12526 9062,12469 9005,12469 Z M 9019,12483 L 9048,12483 9048,12512 9019,12512 9019,12483 Z M 8903,13523 L 8903,12314 9343,12059 9343,13268 8903,13523 Z"/>
     <path fill="rgb(229,229,229)" stroke="none" d="M 9019,12483 L 9019,12512 9048,12512 9048,12483 9019,12483 Z M 8903,13523 L 8903,12314 9343,12059 9343,13268 8903,13523 Z"/>
     <path fill="none" stroke="rgb(255,255,255)" id="Drawing_2_0" stroke-width="40" stroke-linejoin="round" d="M 8903,13523 L 8903,12314 9343,12059 9343,13268 8903,13523 Z"/>
    </g>
    <g>
     <defs>
      <linearGradient id="Gradient_619" gradientUnits="userSpaceOnUse" x1="8572" y1="11423" x2="8572" y2="11805">
       <stop offset="0.1" stop-color="rgb(179,179,179)"/>
       <stop offset="1" stop-color="rgb(229,229,229)"/>
      </linearGradient>
     </defs>
     <path fill="url(#Gradient_619)" stroke="rgb(255,255,255)" id="Drawing_3_0" stroke-width="40" stroke-linejoin="round" d="M 8903,11678 L 8682,11805 8572,11805 8242,11614 8242,11550 8462,11423 8572,11423 8903,11614 8903,11678 Z"/>
    </g>
    <g>
     <defs>
      <linearGradient id="Gradient_620" gradientUnits="userSpaceOnUse" x1="8681" y1="12855" x2="8903" y2="12855">
       <stop offset="0.1" stop-color="rgb(179,179,179)"/>
       <stop offset="1" stop-color="rgb(229,229,229)"/>
      </linearGradient>
     </defs>
     <path fill="url(#Gradient_620)" stroke="rgb(255,255,255)" id="Drawing_4_0" stroke-width="40" stroke-linejoin="round" d="M 8682,13396 L 8682,12187 8902,12314 8902,13523 8682,13396 Z"/>
    </g>
    <g>
     <path fill="rgb(127,127,127)" stroke="none" d="M 8462,12759 L 8462,12568 8572,12632 8572,12823 8462,12759 Z"/>
     <path fill="none" stroke="rgb(0,0,0)" id="Drawing_5_0" stroke-width="40" stroke-linejoin="round" d="M 8462,12759 L 8462,12568 8572,12632 8572,12823 8462,12759 Z"/>
    </g>
    <g>
     <path fill="rgb(57,181,74)" stroke="none" d="M 8462,12059 L 8462,11868 8572,11932 8572,12123 8462,12059 Z"/>
     <path fill="none" stroke="rgb(127,127,127)" id="Drawing_6_0" stroke-width="40" stroke-linejoin="round" d="M 8462,12059 L 8462,11868 8572,11932 8572,12123 8462,12059 Z"/>
    </g>
    <g>
     <defs>
      <linearGradient id="Gradient_621" gradientUnits="userSpaceOnUse" x1="8571" y1="12600" x2="8683" y2="12600">
       <stop offset="0.1" stop-color="rgb(179,179,179)"/>
       <stop offset="1" stop-color="rgb(229,229,229)"/>
      </linearGradient>
     </defs>
     <path fill="url(#Gradient_621)" stroke="rgb(255,255,255)" id="Drawing_7_0" stroke-width="40" stroke-linejoin="round" d="M 8572,13396 L 8572,11805 8682,11805 8682,13396 8572,13396 Z"/>
    </g>
    <g>
     <defs>
      <linearGradient id="Gradient_622" gradientUnits="userSpaceOnUse" x1="8240" y1="12505" x2="8574" y2="12505">
       <stop offset="0.1" stop-color="rgb(179,179,179)"/>
       <stop offset="1" stop-color="rgb(229,229,229)"/>
      </linearGradient>
     </defs>
     <path fill="url(#Gradient_622)" stroke="rgb(255,255,255)" id="Drawing_8_0" stroke-width="40" stroke-linejoin="round" d="M 8242,13205 L 8242,11614 8572,11805 8572,13396 8242,13205 Z"/>
    </g>
    <g>
     <defs>
      <linearGradient id="Gradient_623" gradientUnits="userSpaceOnUse" x1="9012" y1="11741" x2="9012" y2="12314">
       <stop offset="0.1" stop-color="rgb(179,179,179)"/>
       <stop offset="1" stop-color="rgb(229,229,229)"/>
      </linearGradient>
     </defs>
     <path fill="url(#Gradient_623)" stroke="rgb(255,255,255)" id="Drawing_9_0" stroke-width="40" stroke-linejoin="round" d="M 8902,12314 L 8682,12186 8902,12059 8902,11741 9343,11996 9343,12059 8902,12314 Z"/>
    </g>
    <g>
     <path fill="rgb(179,179,179)" stroke="none" d="M 8682,12079 L 8682,11805 8902,11678 8902,12060 8869,12079 8682,12079 Z"/>
     <path fill="rgb(180,180,180)" stroke="none" d="M 8869,12079 L 8682,12187 8682,12079 8869,12079 Z M 8682,12074 L 8682,11805 8902,11678 8902,12060 8878,12074 8682,12074 Z"/>
     <path fill="rgb(181,181,181)" stroke="none" d="M 8878,12074 L 8682,12187 8682,12074 8878,12074 Z M 8682,12069 L 8682,11805 8902,11678 8902,12060 8886,12069 8682,12069 Z"/>
     <path fill="rgb(182,182,182)" stroke="none" d="M 8886,12069 L 8682,12187 8682,12069 8886,12069 Z M 8682,12064 L 8682,11805 8902,11678 8902,12060 8895,12064 8682,12064 Z"/>
     <path fill="rgb(183,183,183)" stroke="none" d="M 8895,12064 L 8682,12187 8682,12064 8895,12064 Z M 8682,12059 L 8682,11805 8902,11678 8902,12059 8682,12059 Z"/>
     <path fill="rgb(184,184,184)" stroke="none" d="M 8902,12059 L 8902,12060 8682,12187 8682,12059 8902,12059 Z M 8682,12054 L 8682,11805 8902,11678 8902,12054 8682,12054 Z"/>
     <path fill="rgb(185,185,185)" stroke="none" d="M 8902,12054 L 8902,12060 8682,12187 8682,12054 8902,12054 Z M 8682,12049 L 8682,11805 8902,11678 8902,12049 8682,12049 Z"/>
     <path fill="rgb(186,186,186)" stroke="none" d="M 8902,12049 L 8902,12060 8682,12187 8682,12049 8902,12049 Z M 8682,12044 L 8682,11805 8902,11678 8902,12044 8682,12044 Z"/>
     <path fill="rgb(187,187,187)" stroke="none" d="M 8902,12044 L 8902,12060 8682,12187 8682,12044 8902,12044 Z M 8682,12038 L 8682,11805 8902,11678 8902,12038 8682,12038 Z"/>
     <path fill="rgb(188,188,188)" stroke="none" d="M 8902,12038 L 8902,12060 8682,12187 8682,12038 8902,12038 Z M 8682,12033 L 8682,11805 8902,11678 8902,12033 8682,12033 Z"/>
     <path fill="rgb(189,189,189)" stroke="none" d="M 8902,12033 L 8902,12060 8682,12187 8682,12033 8902,12033 Z M 8682,12028 L 8682,11805 8902,11678 8902,12028 8682,12028 Z"/>
     <path fill="rgb(190,190,190)" stroke="none" d="M 8902,12028 L 8902,12060 8682,12187 8682,12028 8902,12028 Z M 8682,12023 L 8682,11805 8902,11678 8902,12023 8682,12023 Z"/>
     <path fill="rgb(191,191,191)" stroke="none" d="M 8902,12023 L 8902,12060 8682,12187 8682,12023 8902,12023 Z M 8682,12018 L 8682,11805 8902,11678 8902,12018 8682,12018 Z"/>
     <path fill="rgb(192,192,192)" stroke="none" d="M 8902,12018 L 8902,12060 8682,12187 8682,12018 8902,12018 Z M 8682,12013 L 8682,11805 8902,11678 8902,12013 8682,12013 Z"/>
     <path fill="rgb(193,193,193)" stroke="none" d="M 8902,12013 L 8902,12060 8682,12187 8682,12013 8902,12013 Z M 8682,12008 L 8682,11805 8902,11678 8902,12008 8682,12008 Z"/>
     <path fill="rgb(194,194,194)" stroke="none" d="M 8902,12008 L 8902,12060 8682,12187 8682,12008 8902,12008 Z M 8682,12003 L 8682,11805 8902,11678 8902,12003 8682,12003 Z"/>
     <path fill="rgb(195,195,195)" stroke="none" d="M 8902,12003 L 8902,12060 8682,12187 8682,12003 8902,12003 Z M 8682,11997 L 8682,11805 8902,11678 8902,11997 8682,11997 Z"/>
     <path fill="rgb(196,196,196)" stroke="none" d="M 8902,11997 L 8902,12060 8682,12187 8682,11997 8902,11997 Z M 8682,11992 L 8682,11805 8902,11678 8902,11992 8682,11992 Z"/>
     <path fill="rgb(197,197,197)" stroke="none" d="M 8902,11992 L 8902,12060 8682,12187 8682,11992 8902,11992 Z M 8682,11987 L 8682,11805 8902,11678 8902,11987 8682,11987 Z"/>
     <path fill="rgb(198,198,198)" stroke="none" d="M 8902,11987 L 8902,12060 8682,12187 8682,11987 8902,11987 Z M 8899,11982 L 8682,11982 8682,11805 8899,11680 8899,11982 Z"/>
     <path fill="rgb(199,199,199)" stroke="none" d="M 8899,11982 L 8899,11680 8902,11678 8902,12060 8682,12187 8682,11982 8899,11982 Z M 8894,11977 L 8682,11977 8682,11805 8894,11683 8894,11977 Z"/>
     <path fill="rgb(200,200,200)" stroke="none" d="M 8894,11977 L 8894,11683 8902,11678 8902,12060 8682,12187 8682,11977 8894,11977 Z M 8889,11686 L 8889,11972 8682,11972 8682,11805 8888,11686 8889,11686 Z"/>
     <path fill="rgb(201,201,201)" stroke="none" d="M 8889,11972 L 8889,11686 8888,11686 8902,11678 8902,12060 8682,12187 8682,11972 8889,11972 Z M 8884,11691 L 8884,11967 8682,11967 8682,11805 8879,11691 8884,11691 Z"/>
     <path fill="rgb(202,202,202)" stroke="none" d="M 8884,11967 L 8884,11691 8879,11691 8902,11678 8902,12060 8682,12187 8682,11967 8884,11967 Z M 8879,11696 L 8879,11962 8682,11962 8682,11805 8871,11696 8879,11696 Z"/>
     <path fill="rgb(203,203,203)" stroke="none" d="M 8879,11962 L 8879,11696 8871,11696 8902,11678 8902,12060 8682,12187 8682,11962 8879,11962 Z M 8873,11702 L 8873,11956 8682,11956 8682,11805 8860,11702 8873,11702 Z"/>
     <path fill="rgb(204,204,204)" stroke="none" d="M 8873,11956 L 8873,11702 8860,11702 8902,11678 8902,12060 8682,12187 8682,11956 8873,11956 Z M 8868,11707 L 8868,11951 8682,11951 8682,11805 8852,11707 8868,11707 Z"/>
     <path fill="rgb(205,205,205)" stroke="none" d="M 8868,11951 L 8868,11707 8852,11707 8902,11678 8902,12060 8682,12187 8682,11951 8868,11951 Z M 8863,11712 L 8863,11946 8682,11946 8682,11805 8843,11712 8863,11712 Z"/>
     <path fill="rgb(206,206,206)" stroke="none" d="M 8863,11946 L 8863,11712 8843,11712 8902,11678 8902,12060 8682,12187 8682,11946 8863,11946 Z M 8858,11717 L 8858,11941 8682,11941 8682,11805 8834,11717 8858,11717 Z"/>
     <path fill="rgb(207,207,207)" stroke="none" d="M 8858,11941 L 8858,11717 8834,11717 8902,11678 8902,12060 8682,12187 8682,11941 8858,11941 Z M 8853,11722 L 8853,11936 8682,11936 8682,11805 8826,11722 8853,11722 Z"/>
     <path fill="rgb(208,208,208)" stroke="none" d="M 8853,11936 L 8853,11722 8826,11722 8902,11678 8902,12060 8682,12187 8682,11936 8853,11936 Z M 8848,11727 L 8848,11931 8682,11931 8682,11805 8817,11727 8848,11727 Z"/>
     <path fill="rgb(209,209,209)" stroke="none" d="M 8848,11931 L 8848,11727 8817,11727 8902,11678 8902,12060 8682,12187 8682,11931 8848,11931 Z M 8843,11732 L 8843,11926 8682,11926 8682,11805 8808,11732 8843,11732 Z"/>
     <path fill="rgb(210,210,210)" stroke="none" d="M 8843,11926 L 8843,11732 8808,11732 8902,11678 8902,12060 8682,12187 8682,11926 8843,11926 Z M 8838,11737 L 8838,11921 8682,11921 8682,11805 8800,11737 8838,11737 Z"/>
     <path fill="rgb(211,211,211)" stroke="none" d="M 8838,11921 L 8838,11737 8800,11737 8902,11678 8902,12060 8682,12187 8682,11921 8838,11921 Z M 8833,11742 L 8833,11916 8682,11916 8682,11805 8791,11742 8833,11742 Z"/>
     <path fill="rgb(212,212,212)" stroke="none" d="M 8833,11916 L 8833,11742 8791,11742 8902,11678 8902,12060 8682,12187 8682,11916 8833,11916 Z M 8827,11748 L 8827,11910 8682,11910 8682,11805 8781,11748 8827,11748 Z"/>
     <path fill="rgb(213,213,213)" stroke="none" d="M 8827,11910 L 8827,11748 8781,11748 8902,11678 8902,12060 8682,12187 8682,11910 8827,11910 Z M 8822,11753 L 8822,11905 8682,11905 8682,11805 8772,11753 8822,11753 Z"/>
     <path fill="rgb(214,214,214)" stroke="none" d="M 8822,11905 L 8822,11753 8772,11753 8902,11678 8902,12060 8682,12187 8682,11905 8822,11905 Z M 8817,11758 L 8817,11900 8682,11900 8682,11805 8763,11758 8817,11758 Z"/>
     <path fill="rgb(215,215,215)" stroke="none" d="M 8817,11900 L 8817,11758 8763,11758 8902,11678 8902,12060 8682,12187 8682,11900 8817,11900 Z M 8812,11763 L 8812,11895 8682,11895 8682,11805 8755,11763 8812,11763 Z"/>
     <path fill="rgb(216,216,216)" stroke="none" d="M 8812,11895 L 8812,11763 8755,11763 8902,11678 8902,12060 8682,12187 8682,11895 8812,11895 Z M 8807,11768 L 8807,11890 8685,11890 8685,11803 8746,11768 8807,11768 Z"/>
     <path fill="rgb(217,217,217)" stroke="none" d="M 8685,11890 L 8807,11890 8807,11768 8746,11768 8902,11678 8902,12060 8682,12187 8682,11805 8685,11803 8685,11890 Z M 8802,11773 L 8802,11885 8690,11885 8690,11800 8737,11773 8802,11773 Z"/>
     <path fill="rgb(218,218,218)" stroke="none" d="M 8690,11885 L 8802,11885 8802,11773 8737,11773 8902,11678 8902,12060 8682,12187 8682,11805 8690,11800 8690,11885 Z M 8797,11778 L 8797,11880 8695,11880 8695,11797 8729,11778 8797,11778 Z"/>
     <path fill="rgb(219,219,219)" stroke="none" d="M 8695,11880 L 8797,11880 8797,11778 8729,11778 8902,11678 8902,12060 8682,12187 8682,11805 8695,11797 8695,11880 Z M 8792,11783 L 8792,11875 8700,11875 8700,11795 8720,11783 8792,11783 Z"/>
     <path fill="rgb(220,220,220)" stroke="none" d="M 8700,11875 L 8792,11875 8792,11783 8720,11783 8902,11678 8902,12060 8682,12187 8682,11805 8700,11795 8700,11875 Z M 8786,11789 L 8786,11869 8706,11869 8706,11791 8710,11789 8786,11789 Z"/>
     <path fill="rgb(221,221,221)" stroke="none" d="M 8706,11869 L 8786,11869 8786,11789 8710,11789 8902,11678 8902,12060 8682,12187 8682,11805 8706,11791 8706,11869 Z M 8711,11794 L 8781,11794 8781,11864 8711,11864 8711,11794 Z"/>
     <path fill="rgb(222,222,222)" stroke="none" d="M 8711,11794 L 8711,11864 8781,11864 8781,11794 8711,11794 Z M 8716,11799 L 8776,11799 8776,11859 8716,11859 8716,11799 Z M 8682,12187 L 8682,11805 8902,11678 8902,12060 8682,12187 Z"/>
     <path fill="rgb(223,223,223)" stroke="none" d="M 8716,11799 L 8716,11859 8776,11859 8776,11799 8716,11799 Z M 8721,11804 L 8771,11804 8771,11854 8721,11854 8721,11804 Z M 8682,12187 L 8682,11805 8902,11678 8902,12060 8682,12187 Z"/>
     <path fill="rgb(224,224,224)" stroke="none" d="M 8721,11804 L 8721,11854 8771,11854 8771,11804 8721,11804 Z M 8726,11809 L 8766,11809 8766,11849 8726,11849 8726,11809 Z M 8682,12187 L 8682,11805 8902,11678 8902,12060 8682,12187 Z"/>
     <path fill="rgb(225,225,225)" stroke="none" d="M 8726,11809 L 8726,11849 8766,11849 8766,11809 8726,11809 Z M 8731,11814 L 8761,11814 8761,11844 8731,11844 8731,11814 Z M 8682,12187 L 8682,11805 8902,11678 8902,12060 8682,12187 Z"/>
     <path fill="rgb(226,226,226)" stroke="none" d="M 8731,11814 L 8731,11844 8761,11844 8761,11814 8731,11814 Z M 8736,11819 L 8756,11819 8756,11839 8736,11839 8736,11819 Z M 8682,12187 L 8682,11805 8902,11678 8902,12060 8682,12187 Z"/>
     <path fill="rgb(227,227,227)" stroke="none" d="M 8736,11819 L 8736,11839 8756,11839 8756,11819 8736,11819 Z M 8741,11824 L 8751,11824 8751,11834 8741,11834 8741,11824 Z M 8682,12187 L 8682,11805 8902,11678 8902,12060 8682,12187 Z"/>
     <path fill="rgb(229,229,229)" stroke="none" d="M 8741,11824 L 8741,11834 8751,11834 8751,11824 8741,11824 Z M 8682,12187 L 8682,11805 8902,11678 8902,12060 8682,12187 Z"/>
     <path fill="none" stroke="rgb(255,255,255)" id="Drawing_10_0" stroke-width="40" stroke-linejoin="round" d="M 8682,12187 L 8682,11805 8902,11678 8902,12060 8682,12187 Z"/>
    </g>
    <g>
     <path fill="none" stroke="rgb(127,127,127)" id="Drawing_11_0" stroke-width="40" stroke-linejoin="round" d="M 8903,13141 L 8682,13014 8572,13014 8242,12823"/>
    </g>
    <g>
     <path fill="none" stroke="rgb(127,127,127)" id="Drawing_12_0" stroke-width="40" stroke-linejoin="round" d="M 8903,12886 L 8682,12759 8572,12759 8242,12568"/>
    </g>
    <g>
     <path fill="none" stroke="rgb(0,0,0)" id="Drawing_13_0" stroke-width="40" stroke-linejoin="round" d="M 8682,13396 L 8572,13396 8242,13205 8242,11550 8462,11423 8572,11423 8903,11614 8903,11741 9343,11996 9343,13268 8903,13523 8682,13396 Z"/>
    </g>
   </g>
  </g>
 </g>
</svg>