<?xml version="1.0" encoding="UTF-8"?>

<svg version="1.2" baseProfile="tiny" width="36.54mm" height="56.4mm" viewBox="4854 11883 3654 5640" preserveAspectRatio="xMidYMid" fill-rule="evenodd" stroke-width="28.222" stroke-linejoin="round" xmlns="http://www.w3.org/2000/svg" xmlns:xlink="http://www.w3.org/1999/xlink" xml:space="preserve">
 <g visibility="visible" id="Slide_1">
  <g id="DrawingGroup_1">
   <g>
    <path fill="rgb(221,221,221)" stroke="none" d="M 6777,17503 C 7252,17503 8507,17203 8507,16903 8507,16603 8290,16303 7815,16303 7815,16603 6777,17102 6777,17503 Z"/>
    <path fill="none" stroke="rgb(221,221,221)" id="Drawing_1_0" stroke-linejoin="round" d="M 6777,17503 C 7252,17503 8507,17203 8507,16903 8507,16603 8290,16303 7815,16303 7815,16603 6777,17102 6777,17503 Z"/>
   </g>
   <g id="DrawingGroup_2">
    <g>
     <defs>
      <linearGradient id="Gradient_578" gradientUnits="userSpaceOnUse" x1="4870" y1="16051" x2="6779" y2="16055">
       <stop offset="0.1" stop-color="rgb(179,179,179)"/>
       <stop offset="1" stop-color="rgb(229,229,229)"/>
      </linearGradient>
     </defs>
     <path fill="url(#Gradient_578)" stroke="rgb(255,255,255)" id="Drawing_2_0" stroke-width="40" stroke-linejoin="round" d="M 5047,16503 L 4874,15603 4874,14603 6604,15603 6604,16603 6777,17503 5047,16503 Z"/>
    </g>
    <g>
     <defs>
      <linearGradient id="Gradient_579" gradientUnits="userSpaceOnUse" x1="5998" y1="12303" x2="5998" y2="13603">
       <stop offset="0.1" stop-color="rgb(179,179,179)"/>
       <stop offset="1" stop-color="rgb(229,229,229)"/>
      </linearGradient>
     </defs>
     <path fill="url(#Gradient_579)" stroke="rgb(255,255,255)" id="Drawing_3_0" stroke-width="40" stroke-linejoin="round" d="M 6604,13603 L 4874,12603 5393,12303 7123,13303 6604,13603 Z"/>
    </g>
    <g>
     <defs>
      <linearGradient id="Gradient_580" gradientUnits="userSpaceOnUse" x1="4871" y1="14101" x2="6607" y2="14105">
       <stop offset="0.1" stop-color="rgb(179,179,179)"/>
       <stop offset="1" stop-color="rgb(229,229,229)"/>
      </linearGradient>
     </defs>
     <path fill="url(#Gradient_580)" stroke="rgb(255,255,255)" id="Drawing_4_0" stroke-width="40" stroke-linejoin="round" d="M 4874,14603 L 4874,12603 6604,13603 6604,15603 4874,14603 Z"/>
    </g>
    <g>
     <defs>
      <linearGradient id="Gradient_581" gradientUnits="userSpaceOnUse" x1="5046" y1="13552" x2="6086" y2="13554">
       <stop offset="0.1" stop-color="rgb(147,212,240)"/>
       <stop offset="1" stop-color="rgb(233,246,252)"/>
      </linearGradient>
     </defs>
     <path fill="url(#Gradient_581)" stroke="rgb(127,127,127)" id="Drawing_5_0" stroke-width="40" stroke-linejoin="round" d="M 5047,13503 L 5047,13003 6085,13603 6085,14103 5047,13503 Z"/>
    </g>
    <g>
     <path fill="rgb(0,0,0)" stroke="none" d="M 6258,14203 L 6258,14003 6431,14103 6431,14303 6258,14203 Z"/>
     <path fill="none" stroke="rgb(127,127,127)" id="Drawing_6_0" stroke-width="40" stroke-linejoin="round" d="M 6258,14203 L 6258,14003 6431,14103 6431,14303 6258,14203 Z"/>
    </g>
    <g>
     <path fill="rgb(0,0,0)" stroke="none" d="M 6258,13903 L 6258,13703 6431,13803 6431,14003 6258,13903 Z"/>
     <path fill="none" stroke="rgb(127,127,127)" id="Drawing_7_0" stroke-width="40" stroke-linejoin="round" d="M 6258,13903 L 6258,13703 6431,13803 6431,14003 6258,13903 Z"/>
    </g>
    <g>
     <path fill="rgb(179,179,179)" stroke="none" d="M 6604,16536 L 6604,15603 7123,15303 7123,13303 7815,12903 7815,16536 6604,16536 Z"/>
     <path fill="rgb(180,180,180)" stroke="none" d="M 7815,16536 L 7815,16903 6777,17503 6604,16603 6604,16536 7815,16536 Z M 6604,16490 L 6604,15603 7123,15303 7123,13303 7815,12903 7815,16490 6604,16490 Z"/>
     <path fill="rgb(181,181,181)" stroke="none" d="M 7815,16490 L 7815,16903 6777,17503 6604,16603 6604,16490 7815,16490 Z M 6604,16444 L 6604,15603 7123,15303 7123,13303 7815,12903 7815,16444 6604,16444 Z"/>
     <path fill="rgb(182,182,182)" stroke="none" d="M 7815,16444 L 7815,16903 6777,17503 6604,16603 6604,16444 7815,16444 Z M 6604,16398 L 6604,15603 7123,15303 7123,13303 7815,12903 7815,16398 6604,16398 Z"/>
     <path fill="rgb(183,183,183)" stroke="none" d="M 7815,16398 L 7815,16903 6777,17503 6604,16603 6604,16398 7815,16398 Z M 6604,16352 L 6604,15603 7123,15303 7123,13303 7815,12903 7815,16352 6604,16352 Z"/>
     <path fill="rgb(184,184,184)" stroke="none" d="M 7815,16352 L 7815,16903 6777,17503 6604,16603 6604,16352 7815,16352 Z M 6604,16306 L 6604,15603 7123,15303 7123,13303 7815,12903 7815,16306 6604,16306 Z"/>
     <path fill="rgb(185,185,185)" stroke="none" d="M 7815,16306 L 7815,16903 6777,17503 6604,16603 6604,16306 7815,16306 Z M 6604,16260 L 6604,15603 7123,15303 7123,13303 7815,12903 7815,16260 6604,16260 Z"/>
     <path fill="rgb(186,186,186)" stroke="none" d="M 7815,16260 L 7815,16903 6777,17503 6604,16603 6604,16260 7815,16260 Z M 6604,16214 L 6604,15603 7123,15303 7123,13303 7815,12903 7815,16214 6604,16214 Z"/>
     <path fill="rgb(187,187,187)" stroke="none" d="M 7815,16214 L 7815,16903 6777,17503 6604,16603 6604,16214 7815,16214 Z M 6604,16168 L 6604,15603 7123,15303 7123,13303 7815,12903 7815,16168 6604,16168 Z"/>
     <path fill="rgb(188,188,188)" stroke="none" d="M 7815,16168 L 7815,16903 6777,17503 6604,16603 6604,16168 7815,16168 Z M 6604,16122 L 6604,15603 7123,15303 7123,13303 7815,12903 7815,16122 6604,16122 Z"/>
     <path fill="rgb(189,189,189)" stroke="none" d="M 7815,16122 L 7815,16903 6777,17503 6604,16603 6604,16122 7815,16122 Z M 6604,16076 L 6604,15603 7123,15303 7123,13303 7815,12903 7815,16076 6604,16076 Z"/>
     <path fill="rgb(190,190,190)" stroke="none" d="M 7815,16076 L 7815,16903 6777,17503 6604,16603 6604,16076 7815,16076 Z M 6604,16030 L 6604,15603 7123,15303 7123,13303 7815,12903 7815,16030 6604,16030 Z"/>
     <path fill="rgb(191,191,191)" stroke="none" d="M 7815,16030 L 7815,16903 6777,17503 6604,16603 6604,16030 7815,16030 Z M 6604,15984 L 6604,15603 7123,15303 7123,13303 7815,12903 7815,15984 6604,15984 Z"/>
     <path fill="rgb(192,192,192)" stroke="none" d="M 7815,15984 L 7815,16903 6777,17503 6604,16603 6604,15984 7815,15984 Z M 6604,15938 L 6604,15603 7123,15303 7123,13303 7815,12903 7815,15938 6604,15938 Z"/>
     <path fill="rgb(193,193,193)" stroke="none" d="M 7815,15938 L 7815,16903 6777,17503 6604,16603 6604,15938 7815,15938 Z M 6604,15892 L 6604,15603 7123,15303 7123,13303 7815,12903 7815,15892 6604,15892 Z"/>
     <path fill="rgb(194,194,194)" stroke="none" d="M 7815,15892 L 7815,16903 6777,17503 6604,16603 6604,15892 7815,15892 Z M 6604,15846 L 6604,15603 7123,15303 7123,13303 7815,12903 7815,15846 6604,15846 Z"/>
     <path fill="rgb(195,195,195)" stroke="none" d="M 7815,15846 L 7815,16903 6777,17503 6604,16603 6604,15846 7815,15846 Z M 6604,15800 L 6604,15603 7123,15303 7123,13303 7815,12903 7815,15800 6604,15800 Z"/>
     <path fill="rgb(196,196,196)" stroke="none" d="M 7815,15800 L 7815,16903 6777,17503 6604,16603 6604,15800 7815,15800 Z M 6604,15754 L 6604,15603 7123,15303 7123,13303 7815,12903 7815,15754 6604,15754 Z"/>
     <path fill="rgb(197,197,197)" stroke="none" d="M 7815,15754 L 7815,16903 6777,17503 6604,16603 6604,15754 7815,15754 Z M 6604,15708 L 6604,15603 7123,15303 7123,13303 7815,12903 7815,15708 6604,15708 Z"/>
     <path fill="rgb(198,198,198)" stroke="none" d="M 7815,15708 L 7815,16903 6777,17503 6604,16603 6604,15708 7815,15708 Z M 6604,15662 L 6604,15603 7123,15303 7123,13303 7815,12903 7815,15662 6604,15662 Z"/>
     <path fill="rgb(199,199,199)" stroke="none" d="M 7815,15662 L 7815,16903 6777,17503 6604,16603 6604,15662 7815,15662 Z M 7815,12947 L 7815,15616 6604,15616 6604,15603 7123,15303 7123,13303 7739,12947 7815,12947 Z"/>
     <path fill="rgb(200,200,200)" stroke="none" d="M 7815,15616 L 7815,16903 6777,17503 6604,16603 6604,15616 7815,15616 Z M 7739,12947 L 7815,12903 7815,12947 7739,12947 Z M 7815,12993 L 7815,15570 6661,15570 7123,15303 7123,13303 7659,12993 7815,12993 Z"/>
     <path fill="rgb(201,201,201)" stroke="none" d="M 7815,15570 L 7815,16903 6777,17503 6604,16603 6604,15603 6661,15570 7815,15570 Z M 7659,12993 L 7815,12903 7815,12993 7659,12993 Z M 7815,13039 L 7815,15524 6741,15524 7123,15303 7123,13303 7580,13039 7815,13039 Z"/>
     <path fill="rgb(202,202,202)" stroke="none" d="M 7815,15524 L 7815,16903 6777,17503 6604,16603 6604,15603 6741,15524 7815,15524 Z M 7580,13039 L 7815,12903 7815,13039 7580,13039 Z M 7815,13085 L 7815,15478 6820,15478 7123,15303 7123,13303 7500,13085 7815,13085 Z"/>
     <path fill="rgb(203,203,203)" stroke="none" d="M 7815,15478 L 7815,16903 6777,17503 6604,16603 6604,15603 6820,15478 7815,15478 Z M 7500,13085 L 7815,12903 7815,13085 7500,13085 Z M 7815,13131 L 7815,15432 6900,15432 7123,15303 7123,13303 7421,13131 7815,13131 Z"/>
     <path fill="rgb(204,204,204)" stroke="none" d="M 7815,15432 L 7815,16903 6777,17503 6604,16603 6604,15603 6900,15432 7815,15432 Z M 7421,13131 L 7815,12903 7815,13131 7421,13131 Z M 7815,13177 L 7815,15386 6979,15386 7123,15303 7123,13303 7341,13177 7815,13177 Z"/>
     <path fill="rgb(205,205,205)" stroke="none" d="M 7815,15386 L 7815,16903 6777,17503 6604,16603 6604,15603 6979,15386 7815,15386 Z M 7341,13177 L 7815,12903 7815,13177 7341,13177 Z M 7815,13223 L 7815,15340 7059,15340 7123,15303 7123,13303 7261,13223 7815,13223 Z"/>
     <path fill="rgb(206,206,206)" stroke="none" d="M 7815,15340 L 7815,16903 6777,17503 6604,16603 6604,15603 7059,15340 7815,15340 Z M 7261,13223 L 7815,12903 7815,13223 7261,13223 Z M 7815,13269 L 7815,15294 7123,15294 7123,13303 7182,13269 7815,13269 Z"/>
     <path fill="rgb(207,207,207)" stroke="none" d="M 7815,15294 L 7815,16903 6777,17503 6604,16603 6604,15603 7123,15303 7123,15294 7815,15294 Z M 7182,13269 L 7815,12903 7815,13269 7182,13269 Z M 7815,13315 L 7815,15248 7123,15248 7123,13315 7815,13315 Z"/>
     <path fill="rgb(208,208,208)" stroke="none" d="M 7815,15248 L 7815,16903 6777,17503 6604,16603 6604,15603 7123,15303 7123,15248 7815,15248 Z M 7123,13315 L 7123,13303 7815,12903 7815,13315 7123,13315 Z M 7815,13361 L 7815,15202 7123,15202 7123,13361 7815,13361 Z"/>
     <path fill="rgb(209,209,209)" stroke="none" d="M 7815,15202 L 7815,16903 6777,17503 6604,16603 6604,15603 7123,15303 7123,15202 7815,15202 Z M 7123,13361 L 7123,13303 7815,12903 7815,13361 7123,13361 Z M 7815,13407 L 7815,15156 7123,15156 7123,13407 7815,13407 Z"/>
     <path fill="rgb(210,210,210)" stroke="none" d="M 7815,15156 L 7815,16903 6777,17503 6604,16603 6604,15603 7123,15303 7123,15156 7815,15156 Z M 7123,13407 L 7123,13303 7815,12903 7815,13407 7123,13407 Z M 7795,13453 L 7795,15110 7123,15110 7123,13453 7795,13453 Z"/>
     <path fill="rgb(211,211,211)" stroke="none" d="M 7795,15110 L 7795,13453 7123,13453 7123,13303 7815,12903 7815,16903 6777,17503 6604,16603 6604,15603 7123,15303 7123,15110 7795,15110 Z M 7749,13499 L 7749,15064 7123,15064 7123,13499 7749,13499 Z"/>
     <path fill="rgb(212,212,212)" stroke="none" d="M 7749,15064 L 7749,13499 7123,13499 7123,13303 7815,12903 7815,16903 6777,17503 6604,16603 6604,15603 7123,15303 7123,15064 7749,15064 Z M 7702,13546 L 7702,15017 7123,15017 7123,13546 7702,13546 Z"/>
     <path fill="rgb(213,213,213)" stroke="none" d="M 7702,15017 L 7702,13546 7123,13546 7123,13303 7815,12903 7815,16903 6777,17503 6604,16603 6604,15603 7123,15303 7123,15017 7702,15017 Z M 7656,13592 L 7656,14971 7123,14971 7123,13592 7656,13592 Z"/>
     <path fill="rgb(214,214,214)" stroke="none" d="M 7656,14971 L 7656,13592 7123,13592 7123,13303 7815,12903 7815,16903 6777,17503 6604,16603 6604,15603 7123,15303 7123,14971 7656,14971 Z M 7610,13638 L 7610,14925 7123,14925 7123,13638 7610,13638 Z"/>
     <path fill="rgb(215,215,215)" stroke="none" d="M 7610,14925 L 7610,13638 7123,13638 7123,13303 7815,12903 7815,16903 6777,17503 6604,16603 6604,15603 7123,15303 7123,14925 7610,14925 Z M 7564,13684 L 7564,14879 7123,14879 7123,13684 7564,13684 Z"/>
     <path fill="rgb(216,216,216)" stroke="none" d="M 7564,14879 L 7564,13684 7123,13684 7123,13303 7815,12903 7815,16903 6777,17503 6604,16603 6604,15603 7123,15303 7123,14879 7564,14879 Z M 7518,13730 L 7518,14833 7123,14833 7123,13730 7518,13730 Z"/>
     <path fill="rgb(217,217,217)" stroke="none" d="M 7518,14833 L 7518,13730 7123,13730 7123,13303 7815,12903 7815,16903 6777,17503 6604,16603 6604,15603 7123,15303 7123,14833 7518,14833 Z M 7472,13776 L 7472,14787 7123,14787 7123,13776 7472,13776 Z"/>
     <path fill="rgb(218,218,218)" stroke="none" d="M 7472,14787 L 7472,13776 7123,13776 7123,13303 7815,12903 7815,16903 6777,17503 6604,16603 6604,15603 7123,15303 7123,14787 7472,14787 Z M 7426,13822 L 7426,14741 7123,14741 7123,13822 7426,13822 Z"/>
     <path fill="rgb(219,219,219)" stroke="none" d="M 7426,14741 L 7426,13822 7123,13822 7123,13303 7815,12903 7815,16903 6777,17503 6604,16603 6604,15603 7123,15303 7123,14741 7426,14741 Z M 7380,13868 L 7380,14695 7123,14695 7123,13868 7380,13868 Z"/>
     <path fill="rgb(220,220,220)" stroke="none" d="M 7380,14695 L 7380,13868 7123,13868 7123,13303 7815,12903 7815,16903 6777,17503 6604,16603 6604,15603 7123,15303 7123,14695 7380,14695 Z M 7334,13914 L 7334,14649 7123,14649 7123,13914 7334,13914 Z"/>
     <path fill="rgb(221,221,221)" stroke="none" d="M 7334,14649 L 7334,13914 7123,13914 7123,13303 7815,12903 7815,16903 6777,17503 6604,16603 6604,15603 7123,15303 7123,14649 7334,14649 Z M 7288,13960 L 7288,14603 7123,14603 7123,13960 7288,13960 Z"/>
     <path fill="rgb(222,222,222)" stroke="none" d="M 7288,14603 L 7288,13960 7123,13960 7123,13303 7815,12903 7815,16903 6777,17503 6604,16603 6604,15603 7123,15303 7123,14603 7288,14603 Z M 7242,14006 L 7242,14557 7123,14557 7123,14006 7242,14006 Z"/>
     <path fill="rgb(223,223,223)" stroke="none" d="M 7242,14557 L 7242,14006 7123,14006 7123,13303 7815,12903 7815,16903 6777,17503 6604,16603 6604,15603 7123,15303 7123,14557 7242,14557 Z M 7196,14052 L 7196,14511 7123,14511 7123,14052 7196,14052 Z"/>
     <path fill="rgb(224,224,224)" stroke="none" d="M 7196,14511 L 7196,14052 7123,14052 7123,13303 7815,12903 7815,16903 6777,17503 6604,16603 6604,15603 7123,15303 7123,14511 7196,14511 Z M 7150,14098 L 7150,14465 7123,14465 7123,14098 7150,14098 Z"/>
     <path fill="rgb(225,225,225)" stroke="none" d="M 7150,14465 L 7150,14098 7123,14098 7123,13303 7815,12903 7815,16903 6777,17503 6604,16603 6604,15603 7123,15303 7123,14465 7150,14465 Z"/>
     <path fill="rgb(226,226,226)" stroke="none" d="M 6777,17503 L 6604,16603 6604,15603 7123,15303 7123,13303 7815,12903 7815,16903 6777,17503 Z"/>
     <path fill="rgb(227,227,227)" stroke="none" d="M 6777,17503 L 6604,16603 6604,15603 7123,15303 7123,13303 7815,12903 7815,16903 6777,17503 Z"/>
     <path fill="rgb(229,229,229)" stroke="none" d="M 6777,17503 L 6604,16603 6604,15603 7123,15303 7123,13303 7815,12903 7815,16903 6777,17503 Z"/>
     <path fill="none" stroke="rgb(255,255,255)" id="Drawing_8_0" stroke-width="40" stroke-linejoin="round" d="M 6777,17503 L 6604,16603 6604,15603 7123,15303 7123,13303 7815,12903 7815,16903 6777,17503 Z"/>
    </g>
    <g>
     <defs>
      <linearGradient id="Gradient_582" gradientUnits="userSpaceOnUse" x1="6604" y1="11903" x2="6604" y2="13303">
       <stop offset="0.1" stop-color="rgb(179,179,179)"/>
       <stop offset="1" stop-color="rgb(229,229,229)"/>
      </linearGradient>
     </defs>
     <path fill="url(#Gradient_582)" stroke="rgb(255,255,255)" id="Drawing_9_0" stroke-width="40" stroke-linejoin="round" d="M 7123,13303 L 5393,12303 6085,11903 7815,12903 7123,13303 Z"/>
    </g>
    <g>
     <path fill="none" stroke="rgb(0,0,0)" id="Drawing_10_0" stroke-width="40" stroke-linejoin="round" d="M 5220,15803 L 6258,16403"/>
    </g>
    <g>
     <path fill="none" stroke="rgb(127,127,127)" id="Drawing_11_0" stroke-width="40" stroke-linejoin="round" d="M 6431,16103 L 6431,16503"/>
    </g>
    <g>
     <path fill="none" stroke="rgb(127,127,127)" id="Drawing_12_0" stroke-width="40" stroke-linejoin="round" d="M 5047,15303 L 5047,15703"/>
    </g>
    <g>
     <path fill="rgb(179,179,179)" stroke="none" d="M 6604,15119 L 6604,13603 7123,13303 7123,15119 6604,15119 Z"/>
     <path fill="rgb(180,180,180)" stroke="none" d="M 7123,15119 L 7123,15303 6604,15603 6604,15119 7123,15119 Z M 6604,15096 L 6604,13603 7123,13303 7123,15096 6604,15096 Z"/>
     <path fill="rgb(181,181,181)" stroke="none" d="M 7123,15096 L 7123,15303 6604,15603 6604,15096 7123,15096 Z M 6604,15073 L 6604,13603 7123,13303 7123,15073 6604,15073 Z"/>
     <path fill="rgb(182,182,182)" stroke="none" d="M 7123,15073 L 7123,15303 6604,15603 6604,15073 7123,15073 Z M 6604,15050 L 6604,13603 7123,13303 7123,15050 6604,15050 Z"/>
     <path fill="rgb(183,183,183)" stroke="none" d="M 7123,15050 L 7123,15303 6604,15603 6604,15050 7123,15050 Z M 6604,15027 L 6604,13603 7123,13303 7123,15027 6604,15027 Z"/>
     <path fill="rgb(184,184,184)" stroke="none" d="M 7123,15027 L 7123,15303 6604,15603 6604,15027 7123,15027 Z M 6604,15004 L 6604,13603 7123,13303 7123,15004 6604,15004 Z"/>
     <path fill="rgb(185,185,185)" stroke="none" d="M 7123,15004 L 7123,15303 6604,15603 6604,15004 7123,15004 Z M 6604,14981 L 6604,13603 7123,13303 7123,14981 6604,14981 Z"/>
     <path fill="rgb(186,186,186)" stroke="none" d="M 7123,14981 L 7123,15303 6604,15603 6604,14981 7123,14981 Z M 6604,14958 L 6604,13603 7123,13303 7123,14958 6604,14958 Z"/>
     <path fill="rgb(187,187,187)" stroke="none" d="M 7123,14958 L 7123,15303 6604,15603 6604,14958 7123,14958 Z M 6604,14935 L 6604,13603 7123,13303 7123,14935 6604,14935 Z"/>
     <path fill="rgb(188,188,188)" stroke="none" d="M 7123,14935 L 7123,15303 6604,15603 6604,14935 7123,14935 Z M 6604,14912 L 6604,13603 7123,13303 7123,14912 6604,14912 Z"/>
     <path fill="rgb(189,189,189)" stroke="none" d="M 7123,14912 L 7123,15303 6604,15603 6604,14912 7123,14912 Z M 6604,14889 L 6604,13603 7123,13303 7123,14889 6604,14889 Z"/>
     <path fill="rgb(190,190,190)" stroke="none" d="M 7123,14889 L 7123,15303 6604,15603 6604,14889 7123,14889 Z M 6604,14866 L 6604,13603 7123,13303 7123,14866 6604,14866 Z"/>
     <path fill="rgb(191,191,191)" stroke="none" d="M 7123,14866 L 7123,15303 6604,15603 6604,14866 7123,14866 Z M 6604,14843 L 6604,13603 7123,13303 7123,14843 6604,14843 Z"/>
     <path fill="rgb(192,192,192)" stroke="none" d="M 7123,14843 L 7123,15303 6604,15603 6604,14843 7123,14843 Z M 6604,14820 L 6604,13603 7123,13303 7123,14820 6604,14820 Z"/>
     <path fill="rgb(193,193,193)" stroke="none" d="M 7123,14820 L 7123,15303 6604,15603 6604,14820 7123,14820 Z M 6604,14797 L 6604,13603 7123,13303 7123,14797 6604,14797 Z"/>
     <path fill="rgb(194,194,194)" stroke="none" d="M 7123,14797 L 7123,15303 6604,15603 6604,14797 7123,14797 Z M 6604,14774 L 6604,13603 7123,13303 7123,14774 6604,14774 Z"/>
     <path fill="rgb(195,195,195)" stroke="none" d="M 7123,14774 L 7123,15303 6604,15603 6604,14774 7123,14774 Z M 6604,14751 L 6604,13603 7123,13303 7123,14751 6604,14751 Z"/>
     <path fill="rgb(196,196,196)" stroke="none" d="M 7123,14751 L 7123,15303 6604,15603 6604,14751 7123,14751 Z M 6604,14728 L 6604,13603 7123,13303 7123,14728 6604,14728 Z"/>
     <path fill="rgb(197,197,197)" stroke="none" d="M 7123,14728 L 7123,15303 6604,15603 6604,14728 7123,14728 Z M 6604,14705 L 6604,13603 7123,13303 7123,14705 6604,14705 Z"/>
     <path fill="rgb(198,198,198)" stroke="none" d="M 7123,14705 L 7123,15303 6604,15603 6604,14705 7123,14705 Z M 6604,14682 L 6604,13603 7123,13303 7123,14682 6604,14682 Z"/>
     <path fill="rgb(199,199,199)" stroke="none" d="M 7123,14682 L 7123,15303 6604,15603 6604,14682 7123,14682 Z M 7123,13324 L 7123,14659 6604,14659 6604,13603 7087,13324 7123,13324 Z"/>
     <path fill="rgb(200,200,200)" stroke="none" d="M 7123,14659 L 7123,15303 6604,15603 6604,14659 7123,14659 Z M 7087,13324 L 7123,13303 7123,13324 7087,13324 Z M 7123,13347 L 7123,14636 6604,14636 6604,13603 7047,13347 7123,13347 Z"/>
     <path fill="rgb(201,201,201)" stroke="none" d="M 7123,14636 L 7123,15303 6604,15603 6604,14636 7123,14636 Z M 7047,13347 L 7123,13303 7123,13347 7047,13347 Z M 7123,13370 L 7123,14613 6604,14613 6604,13603 7007,13370 7123,13370 Z"/>
     <path fill="rgb(202,202,202)" stroke="none" d="M 7123,14613 L 7123,15303 6604,15603 6604,14613 7123,14613 Z M 7007,13370 L 7123,13303 7123,13370 7007,13370 Z M 7123,13393 L 7123,14590 6604,14590 6604,13603 6967,13393 7123,13393 Z"/>
     <path fill="rgb(203,203,203)" stroke="none" d="M 7123,14590 L 7123,15303 6604,15603 6604,14590 7123,14590 Z M 6967,13393 L 7123,13303 7123,13393 6967,13393 Z M 7123,13416 L 7123,14567 6604,14567 6604,13603 6928,13416 7123,13416 Z"/>
     <path fill="rgb(204,204,204)" stroke="none" d="M 7123,14567 L 7123,15303 6604,15603 6604,14567 7123,14567 Z M 6928,13416 L 7123,13303 7123,13416 6928,13416 Z M 7123,13439 L 7123,14544 6604,14544 6604,13603 6888,13439 7123,13439 Z"/>
     <path fill="rgb(205,205,205)" stroke="none" d="M 7123,14544 L 7123,15303 6604,15603 6604,14544 7123,14544 Z M 6888,13439 L 7123,13303 7123,13439 6888,13439 Z M 7123,13462 L 7123,14521 6604,14521 6604,13603 6848,13462 7123,13462 Z"/>
     <path fill="rgb(206,206,206)" stroke="none" d="M 7123,14521 L 7123,15303 6604,15603 6604,14521 7123,14521 Z M 6848,13462 L 7123,13303 7123,13462 6848,13462 Z M 7123,13485 L 7123,14498 6604,14498 6604,13603 6808,13485 7123,13485 Z"/>
     <path fill="rgb(207,207,207)" stroke="none" d="M 7123,14498 L 7123,15303 6604,15603 6604,14498 7123,14498 Z M 6808,13485 L 7123,13303 7123,13485 6808,13485 Z M 7123,13508 L 7123,14475 6604,14475 6604,13603 6768,13508 7123,13508 Z"/>
     <path fill="rgb(208,208,208)" stroke="none" d="M 7123,14475 L 7123,15303 6604,15603 6604,14475 7123,14475 Z M 6768,13508 L 7123,13303 7123,13508 6768,13508 Z M 7123,13531 L 7123,14452 6604,14452 6604,13603 6729,13531 7123,13531 Z"/>
     <path fill="rgb(209,209,209)" stroke="none" d="M 7123,14452 L 7123,15303 6604,15603 6604,14452 7123,14452 Z M 6729,13531 L 7123,13303 7123,13531 6729,13531 Z M 7123,13554 L 7123,14429 6604,14429 6604,13603 6689,13554 7123,13554 Z"/>
     <path fill="rgb(210,210,210)" stroke="none" d="M 7123,14429 L 7123,15303 6604,15603 6604,14429 7123,14429 Z M 6689,13554 L 7123,13303 7123,13554 6689,13554 Z M 7123,13577 L 7123,14406 6604,14406 6604,13603 6649,13577 7123,13577 Z"/>
     <path fill="rgb(211,211,211)" stroke="none" d="M 7123,14406 L 7123,15303 6604,15603 6604,14406 7123,14406 Z M 6649,13577 L 7123,13303 7123,13577 6649,13577 Z M 7123,13600 L 7123,14383 6604,14383 6604,13603 6609,13600 7123,13600 Z"/>
     <path fill="rgb(212,212,212)" stroke="none" d="M 7123,14383 L 7123,15303 6604,15603 6604,14383 7123,14383 Z M 6609,13600 L 7123,13303 7123,13600 6609,13600 Z M 7123,13624 L 7123,14359 6604,14359 6604,13624 7123,13624 Z"/>
     <path fill="rgb(213,213,213)" stroke="none" d="M 7123,14359 L 7123,15303 6604,15603 6604,14359 7123,14359 Z M 6604,13624 L 6604,13603 7123,13303 7123,13624 6604,13624 Z M 7103,13647 L 7103,14336 6604,14336 6604,13647 7103,13647 Z"/>
     <path fill="rgb(214,214,214)" stroke="none" d="M 7103,14336 L 7103,13647 6604,13647 6604,13603 7123,13303 7123,15303 6604,15603 6604,14336 7103,14336 Z M 7080,13670 L 7080,14313 6604,14313 6604,13670 7080,13670 Z"/>
     <path fill="rgb(215,215,215)" stroke="none" d="M 7080,14313 L 7080,13670 6604,13670 6604,13603 7123,13303 7123,15303 6604,15603 6604,14313 7080,14313 Z M 7057,13693 L 7057,14290 6604,14290 6604,13693 7057,13693 Z"/>
     <path fill="rgb(216,216,216)" stroke="none" d="M 7057,14290 L 7057,13693 6604,13693 6604,13603 7123,13303 7123,15303 6604,15603 6604,14290 7057,14290 Z M 7034,13716 L 7034,14267 6604,14267 6604,13716 7034,13716 Z"/>
     <path fill="rgb(217,217,217)" stroke="none" d="M 7034,14267 L 7034,13716 6604,13716 6604,13603 7123,13303 7123,15303 6604,15603 6604,14267 7034,14267 Z M 7011,13739 L 7011,14244 6604,14244 6604,13739 7011,13739 Z"/>
     <path fill="rgb(218,218,218)" stroke="none" d="M 7011,14244 L 7011,13739 6604,13739 6604,13603 7123,13303 7123,15303 6604,15603 6604,14244 7011,14244 Z M 6988,13762 L 6988,14221 6604,14221 6604,13762 6988,13762 Z"/>
     <path fill="rgb(219,219,219)" stroke="none" d="M 6988,14221 L 6988,13762 6604,13762 6604,13603 7123,13303 7123,15303 6604,15603 6604,14221 6988,14221 Z M 6965,13785 L 6965,14198 6604,14198 6604,13785 6965,13785 Z"/>
     <path fill="rgb(220,220,220)" stroke="none" d="M 6965,14198 L 6965,13785 6604,13785 6604,13603 7123,13303 7123,15303 6604,15603 6604,14198 6965,14198 Z M 6942,13808 L 6942,14175 6604,14175 6604,13808 6942,13808 Z"/>
     <path fill="rgb(221,221,221)" stroke="none" d="M 6942,14175 L 6942,13808 6604,13808 6604,13603 7123,13303 7123,15303 6604,15603 6604,14175 6942,14175 Z M 6919,13831 L 6919,14152 6604,14152 6604,13831 6919,13831 Z"/>
     <path fill="rgb(222,222,222)" stroke="none" d="M 6919,14152 L 6919,13831 6604,13831 6604,13603 7123,13303 7123,15303 6604,15603 6604,14152 6919,14152 Z M 6621,13854 L 6896,13854 6896,14129 6621,14129 6621,13854 Z"/>
     <path fill="rgb(223,223,223)" stroke="none" d="M 6621,13854 L 6621,14129 6896,14129 6896,13854 6621,13854 Z M 6644,13877 L 6873,13877 6873,14106 6644,14106 6644,13877 Z M 6604,15603 L 6604,13603 7123,13303 7123,15303 6604,15603 Z"/>
     <path fill="rgb(224,224,224)" stroke="none" d="M 6644,13877 L 6644,14106 6873,14106 6873,13877 6644,13877 Z M 6667,13900 L 6850,13900 6850,14083 6667,14083 6667,13900 Z M 6604,15603 L 6604,13603 7123,13303 7123,15303 6604,15603 Z"/>
     <path fill="rgb(225,225,225)" stroke="none" d="M 6667,13900 L 6667,14083 6850,14083 6850,13900 6667,13900 Z M 6690,13923 L 6827,13923 6827,14060 6690,14060 6690,13923 Z M 6604,15603 L 6604,13603 7123,13303 7123,15303 6604,15603 Z"/>
     <path fill="rgb(226,226,226)" stroke="none" d="M 6690,13923 L 6690,14060 6827,14060 6827,13923 6690,13923 Z M 6713,13946 L 6804,13946 6804,14037 6713,14037 6713,13946 Z M 6604,15603 L 6604,13603 7123,13303 7123,15303 6604,15603 Z"/>
     <path fill="rgb(227,227,227)" stroke="none" d="M 6713,13946 L 6713,14037 6804,14037 6804,13946 6713,13946 Z M 6736,13969 L 6781,13969 6781,14014 6736,14014 6736,13969 Z M 6604,15603 L 6604,13603 7123,13303 7123,15303 6604,15603 Z"/>
     <path fill="rgb(229,229,229)" stroke="none" d="M 6736,13969 L 6736,14014 6781,14014 6781,13969 6736,13969 Z M 6604,15603 L 6604,13603 7123,13303 7123,15303 6604,15603 Z"/>
     <path fill="none" stroke="rgb(255,255,255)" id="Drawing_13_0" stroke-width="40" stroke-linejoin="round" d="M 6604,15603 L 6604,13603 7123,13303 7123,15303 6604,15603 Z"/>
    </g>
    <g>
     <path fill="rgb(127,127,127)" stroke="none" d="M 6085,15103 L 6085,14703 6431,14903 6431,15303 6085,15103 Z"/>
     <path fill="none" stroke="rgb(0,0,0)" id="Drawing_14_0" stroke-width="40" stroke-linejoin="round" d="M 6085,15103 L 6085,14703 6431,14903 6431,15303 6085,15103 Z"/>
    </g>
    <g>
     <path fill="none" stroke="rgb(0,0,0)" id="Drawing_15_0" stroke-width="40" stroke-linejoin="round" d="M 5047,16503 L 4874,15603 4874,12603 6085,11903 7815,12903 7815,16903 6777,17503 5047,16503 Z"/>
    </g>
    <g>
     <path fill="none" stroke="rgb(127,127,127)" id="Drawing_16_0" stroke-width="40" stroke-linejoin="round" d="M 4874,14603 L 6604,15603"/>
    </g>
    <g>
     <path fill="none" stroke="rgb(127,127,127)" id="Drawing_17_0" stroke-width="40" stroke-linejoin="round" d="M 7123,15303 L 6604,15603"/>
    </g>
    <g>
     <path fill="none" stroke="rgb(127,127,127)" id="Drawing_18_0" stroke-width="40" stroke-linejoin="round" d="M 7123,13303 L 7123,15303"/>
    </g>
    <g>
     <path fill="none" stroke="rgb(127,127,127)" id="Drawing_19_0" stroke-width="40" stroke-linejoin="round" d="M 5393,12303 L 7123,13303"/>
    </g>
    <g>
     <path fill="none" stroke="rgb(127,127,127)" id="Drawing_20_0" stroke-width="40" stroke-linejoin="round" d="M 6604,14603 L 4874,13603"/>
    </g>
    <g>
     <path fill="none" stroke="rgb(127,127,127)" id="Drawing_21_0" stroke-width="40" stroke-linejoin="round" d="M 6604,14903 L 4874,13903"/>
    </g>
   </g>
  </g>
 </g>
</svg>