<?xml version="1.0" encoding="UTF-8"?>

<svg version="1.2" baseProfile="tiny" width="47.49mm" height="42.23mm" viewBox="7103 15842 4749 4223" preserveAspectRatio="xMidYMid" fill-rule="evenodd" stroke-width="28.222" stroke-linejoin="round" xmlns="http://www.w3.org/2000/svg" xmlns:xlink="http://www.w3.org/1999/xlink" xml:space="preserve">
 <g visibility="visible" id="Slide_1">
  <g id="DrawingGroup_1">
   <g>
    <path fill="rgb(221,221,221)" stroke="none" d="M 10018,20045 C 10283,20045 11851,19320 11851,19153 11851,18985 11730,18818 11465,18818 11465,18985 10018,19766 10018,20045 Z"/>
    <path fill="none" stroke="rgb(221,221,221)" id="Drawing_1_0" stroke-linejoin="round" d="M 10018,20045 C 10283,20045 11851,19320 11851,19153 11851,18985 11730,18818 11465,18818 11465,18985 10018,19766 10018,20045 Z"/>
   </g>
   <g id="DrawingGroup_2">
    <g>
     <defs>
      <linearGradient id="Gradient_628" gradientUnits="userSpaceOnUse" x1="7119" y1="18369" x2="10020" y2="18375">
       <stop offset="0.1" stop-color="rgb(51,51,51)"/>
       <stop offset="1" stop-color="rgb(153,153,153)"/>
      </linearGradient>
     </defs>
     <path fill="url(#Gradient_628)" stroke="rgb(178,178,178)" id="Drawing_2_0" stroke-width="40" stroke-linejoin="round" d="M 7123,18372 L 7123,16699 10018,18372 10018,20045 7123,18372 Z"/>
    </g>
    <g>
     <path fill="rgb(51,51,51)" stroke="none" d="M 10018,19530 L 10018,18372 11465,17535 11465,19208 10908,19530 10018,19530 Z"/>
     <path fill="rgb(52,52,52)" stroke="none" d="M 10908,19530 L 10018,20045 10018,19530 10908,19530 Z M 10018,19518 L 10018,18372 11465,17535 11465,19208 10929,19518 10018,19518 Z"/>
     <path fill="rgb(53,53,53)" stroke="none" d="M 10929,19518 L 10018,20045 10018,19518 10929,19518 Z M 10018,19506 L 10018,18372 11465,17535 11465,19208 10950,19506 10018,19506 Z"/>
     <path fill="rgb(54,54,54)" stroke="none" d="M 10950,19506 L 10018,20045 10018,19506 10950,19506 Z M 10018,19493 L 10018,18372 11465,17535 11465,19208 10972,19493 10018,19493 Z"/>
     <path fill="rgb(55,55,55)" stroke="none" d="M 10972,19493 L 10018,20045 10018,19493 10972,19493 Z M 10018,19481 L 10018,18372 11465,17535 11465,19208 10993,19481 10018,19481 Z"/>
     <path fill="rgb(56,56,56)" stroke="none" d="M 10993,19481 L 10018,20045 10018,19481 10993,19481 Z M 10018,19469 L 10018,18372 11465,17535 11465,19208 11014,19469 10018,19469 Z"/>
     <path fill="rgb(57,57,57)" stroke="none" d="M 11014,19469 L 10018,20045 10018,19469 11014,19469 Z M 10018,19456 L 10018,18372 11465,17535 11465,19208 11036,19456 10018,19456 Z"/>
     <path fill="rgb(58,58,58)" stroke="none" d="M 11036,19456 L 10018,20045 10018,19456 11036,19456 Z M 10018,19444 L 10018,18372 11465,17535 11465,19208 11057,19444 10018,19444 Z"/>
     <path fill="rgb(59,59,59)" stroke="none" d="M 11057,19444 L 10018,20045 10018,19444 11057,19444 Z M 10018,19432 L 10018,18372 11465,17535 11465,19208 11078,19432 10018,19432 Z"/>
     <path fill="rgb(60,60,60)" stroke="none" d="M 11078,19432 L 10018,20045 10018,19432 11078,19432 Z M 10018,19419 L 10018,18372 11465,17535 11465,19208 11100,19419 10018,19419 Z"/>
     <path fill="rgb(61,61,61)" stroke="none" d="M 11100,19419 L 10018,20045 10018,19419 11100,19419 Z M 10018,19407 L 10018,18372 11465,17535 11465,19208 11121,19407 10018,19407 Z"/>
     <path fill="rgb(62,62,62)" stroke="none" d="M 11121,19407 L 10018,20045 10018,19407 11121,19407 Z M 10018,19395 L 10018,18372 11465,17535 11465,19208 11142,19395 10018,19395 Z"/>
     <path fill="rgb(63,63,63)" stroke="none" d="M 11142,19395 L 10018,20045 10018,19395 11142,19395 Z M 10018,19382 L 10018,18372 11465,17535 11465,19208 11164,19382 10018,19382 Z"/>
     <path fill="rgb(64,64,64)" stroke="none" d="M 11164,19382 L 10018,20045 10018,19382 11164,19382 Z M 10018,19370 L 10018,18372 11465,17535 11465,19208 11185,19370 10018,19370 Z"/>
     <path fill="rgb(65,65,65)" stroke="none" d="M 11185,19370 L 10018,20045 10018,19370 11185,19370 Z M 10018,19358 L 10018,18372 11465,17535 11465,19208 11206,19358 10018,19358 Z"/>
     <path fill="rgb(66,66,66)" stroke="none" d="M 11206,19358 L 10018,20045 10018,19358 11206,19358 Z M 10018,19345 L 10018,18372 11465,17535 11465,19208 11228,19345 10018,19345 Z"/>
     <path fill="rgb(67,67,67)" stroke="none" d="M 11228,19345 L 10018,20045 10018,19345 11228,19345 Z M 10018,19333 L 10018,18372 11465,17535 11465,19208 11249,19333 10018,19333 Z"/>
     <path fill="rgb(68,68,68)" stroke="none" d="M 11249,19333 L 10018,20045 10018,19333 11249,19333 Z M 10018,19321 L 10018,18372 11465,17535 11465,19208 11270,19321 10018,19321 Z"/>
     <path fill="rgb(69,69,69)" stroke="none" d="M 11270,19321 L 10018,20045 10018,19321 11270,19321 Z M 10018,19308 L 10018,18372 11465,17535 11465,19208 11292,19308 10018,19308 Z"/>
     <path fill="rgb(70,70,70)" stroke="none" d="M 11292,19308 L 10018,20045 10018,19308 11292,19308 Z M 11461,19210 L 11313,19296 10018,19296 10018,18372 11461,17537 11461,19210 Z"/>
     <path fill="rgb(71,71,71)" stroke="none" d="M 11313,19296 L 10018,20045 10018,19296 11313,19296 Z M 11461,17537 L 11465,17535 11465,19208 11461,19210 11461,17537 Z M 11449,19217 L 11334,19284 10018,19284 10018,18372 11449,17544 11449,19217 Z"/>
     <path fill="rgb(72,72,72)" stroke="none" d="M 11334,19284 L 10018,20045 10018,19284 11334,19284 Z M 11449,17544 L 11465,17535 11465,19208 11449,19217 11449,17544 Z M 11436,19225 L 11356,19271 10018,19271 10018,18372 11436,17552 11436,19225 Z"/>
     <path fill="rgb(73,73,73)" stroke="none" d="M 11356,19271 L 10018,20045 10018,19271 11356,19271 Z M 11436,17552 L 11465,17535 11465,19208 11436,19225 11436,17552 Z M 11424,19232 L 11377,19259 10018,19259 10018,18372 11424,17559 11424,19232 Z"/>
     <path fill="rgb(74,74,74)" stroke="none" d="M 11377,19259 L 10018,20045 10018,19259 11377,19259 Z M 11424,17559 L 11465,17535 11465,19208 11424,19232 11424,17559 Z M 11412,19239 L 11398,19247 10018,19247 10018,18372 11412,17566 11412,19239 Z"/>
     <path fill="rgb(75,75,75)" stroke="none" d="M 11398,19247 L 10018,20045 10018,19247 11398,19247 Z M 11412,17566 L 11465,17535 11465,19208 11412,19239 11412,17566 Z M 11400,19235 L 10018,19235 10018,18372 11400,17573 11400,19235 Z"/>
     <path fill="rgb(76,76,76)" stroke="none" d="M 11400,19235 L 11400,17573 11465,17535 11465,19208 10018,20045 10018,19235 11400,19235 Z M 11387,19222 L 10018,19222 10018,18372 11387,17580 11387,19222 Z"/>
     <path fill="rgb(77,77,77)" stroke="none" d="M 11387,19222 L 11387,17580 11465,17535 11465,19208 10018,20045 10018,19222 11387,19222 Z M 11375,19210 L 10018,19210 10018,18372 11375,17587 11375,19210 Z"/>
     <path fill="rgb(78,78,78)" stroke="none" d="M 11375,19210 L 11375,17587 11465,17535 11465,19208 10018,20045 10018,19210 11375,19210 Z M 11363,19198 L 10018,19198 10018,18372 11363,17594 11363,19198 Z"/>
     <path fill="rgb(79,79,79)" stroke="none" d="M 11363,19198 L 11363,17594 11465,17535 11465,19208 10018,20045 10018,19198 11363,19198 Z M 11350,19185 L 10018,19185 10018,18372 11350,17602 11350,19185 Z"/>
     <path fill="rgb(80,80,80)" stroke="none" d="M 11350,19185 L 11350,17602 11465,17535 11465,19208 10018,20045 10018,19185 11350,19185 Z M 11338,19173 L 10018,19173 10018,18372 11338,17608 11338,19173 Z"/>
     <path fill="rgb(81,81,81)" stroke="none" d="M 11338,19173 L 11338,17608 11465,17535 11465,19208 10018,20045 10018,19173 11338,19173 Z M 11326,19161 L 10018,19161 10018,18372 11326,17615 11326,19161 Z"/>
     <path fill="rgb(82,82,82)" stroke="none" d="M 11326,19161 L 11326,17615 11465,17535 11465,19208 10018,20045 10018,19161 11326,19161 Z M 11313,19148 L 10018,19148 10018,18372 11313,17623 11313,19148 Z"/>
     <path fill="rgb(83,83,83)" stroke="none" d="M 11313,19148 L 11313,17623 11465,17535 11465,19208 10018,20045 10018,19148 11313,19148 Z M 11301,19136 L 10018,19136 10018,18372 11301,17630 11301,19136 Z"/>
     <path fill="rgb(84,84,84)" stroke="none" d="M 11301,19136 L 11301,17630 11465,17535 11465,19208 10018,20045 10018,19136 11301,19136 Z M 11289,19124 L 10018,19124 10018,18372 11289,17637 11289,19124 Z"/>
     <path fill="rgb(85,85,85)" stroke="none" d="M 11289,19124 L 11289,17637 11465,17535 11465,19208 10018,20045 10018,19124 11289,19124 Z M 11276,19111 L 10018,19111 10018,18372 11276,17644 11276,19111 Z"/>
     <path fill="rgb(86,86,86)" stroke="none" d="M 11276,19111 L 11276,17644 11465,17535 11465,19208 10018,20045 10018,19111 11276,19111 Z M 11264,19099 L 10018,19099 10018,18372 11264,17651 11264,19099 Z"/>
     <path fill="rgb(87,87,87)" stroke="none" d="M 11264,19099 L 11264,17651 11465,17535 11465,19208 10018,20045 10018,19099 11264,19099 Z M 11252,19087 L 10018,19087 10018,18372 11252,17658 11252,19087 Z"/>
     <path fill="rgb(88,88,88)" stroke="none" d="M 11252,19087 L 11252,17658 11465,17535 11465,19208 10018,20045 10018,19087 11252,19087 Z M 11239,19074 L 10018,19074 10018,18372 11239,17666 11239,19074 Z"/>
     <path fill="rgb(89,89,89)" stroke="none" d="M 11239,19074 L 11239,17666 11465,17535 11465,19208 10018,20045 10018,19074 11239,19074 Z M 11227,19062 L 10018,19062 10018,18372 11227,17673 11227,19062 Z"/>
     <path fill="rgb(90,90,90)" stroke="none" d="M 11227,19062 L 11227,17673 11465,17535 11465,19208 10018,20045 10018,19062 11227,19062 Z M 11215,19050 L 10018,19050 10018,18372 11215,17680 11215,19050 Z"/>
     <path fill="rgb(91,91,91)" stroke="none" d="M 11215,19050 L 11215,17680 11465,17535 11465,19208 10018,20045 10018,19050 11215,19050 Z M 11202,19037 L 10018,19037 10018,18372 11202,17687 11202,19037 Z"/>
     <path fill="rgb(92,92,92)" stroke="none" d="M 11202,19037 L 11202,17687 11465,17535 11465,19208 10018,20045 10018,19037 11202,19037 Z M 11190,19025 L 10018,19025 10018,18372 11190,17694 11190,19025 Z"/>
     <path fill="rgb(93,93,93)" stroke="none" d="M 11190,19025 L 11190,17694 11465,17535 11465,19208 10018,20045 10018,19025 11190,19025 Z M 11178,19013 L 10018,19013 10018,18372 11178,17701 11178,19013 Z"/>
     <path fill="rgb(94,94,94)" stroke="none" d="M 11178,19013 L 11178,17701 11465,17535 11465,19208 10018,20045 10018,19013 11178,19013 Z M 11165,19000 L 10018,19000 10018,18372 11165,17709 11165,19000 Z"/>
     <path fill="rgb(95,95,95)" stroke="none" d="M 11165,19000 L 11165,17709 11465,17535 11465,19208 10018,20045 10018,19000 11165,19000 Z M 11153,18988 L 10018,18988 10018,18372 11153,17715 11153,18988 Z"/>
     <path fill="rgb(96,96,96)" stroke="none" d="M 11153,18988 L 11153,17715 11465,17535 11465,19208 10018,20045 10018,18988 11153,18988 Z M 11141,18976 L 10018,18976 10018,18372 11141,17722 11141,18976 Z"/>
     <path fill="rgb(97,97,97)" stroke="none" d="M 11141,18976 L 11141,17722 11465,17535 11465,19208 10018,20045 10018,18976 11141,18976 Z M 11129,18964 L 10018,18964 10018,18372 11129,17729 11129,18964 Z"/>
     <path fill="rgb(98,98,98)" stroke="none" d="M 11129,18964 L 11129,17729 11465,17535 11465,19208 10018,20045 10018,18964 11129,18964 Z M 11116,18951 L 10018,18951 10018,18372 11116,17737 11116,18951 Z"/>
     <path fill="rgb(99,99,99)" stroke="none" d="M 11116,18951 L 11116,17737 11465,17535 11465,19208 10018,20045 10018,18951 11116,18951 Z M 11104,18939 L 10018,18939 10018,18372 11104,17744 11104,18939 Z"/>
     <path fill="rgb(100,100,100)" stroke="none" d="M 11104,18939 L 11104,17744 11465,17535 11465,19208 10018,20045 10018,18939 11104,18939 Z M 11092,18927 L 10018,18927 10018,18372 11092,17751 11092,18927 Z"/>
     <path fill="rgb(101,101,101)" stroke="none" d="M 11092,18927 L 11092,17751 11465,17535 11465,19208 10018,20045 10018,18927 11092,18927 Z M 11079,18914 L 10018,18914 10018,18372 11079,17758 11079,18914 Z"/>
     <path fill="rgb(102,102,102)" stroke="none" d="M 11079,18914 L 11079,17758 11465,17535 11465,19208 10018,20045 10018,18914 11079,18914 Z M 11067,18902 L 10018,18902 10018,18372 11067,17765 11067,18902 Z"/>
     <path fill="rgb(103,103,103)" stroke="none" d="M 11067,18902 L 11067,17765 11465,17535 11465,19208 10018,20045 10018,18902 11067,18902 Z M 11055,18890 L 10018,18890 10018,18372 11055,17772 11055,18890 Z"/>
     <path fill="rgb(104,104,104)" stroke="none" d="M 11055,18890 L 11055,17772 11465,17535 11465,19208 10018,20045 10018,18890 11055,18890 Z M 11042,18877 L 10018,18877 10018,18372 11042,17780 11042,18877 Z"/>
     <path fill="rgb(105,105,105)" stroke="none" d="M 11042,18877 L 11042,17780 11465,17535 11465,19208 10018,20045 10018,18877 11042,18877 Z M 11030,18865 L 10018,18865 10018,18372 11030,17787 11030,18865 Z"/>
     <path fill="rgb(106,106,106)" stroke="none" d="M 11030,18865 L 11030,17787 11465,17535 11465,19208 10018,20045 10018,18865 11030,18865 Z M 11018,18853 L 10018,18853 10018,18372 11018,17794 11018,18853 Z"/>
     <path fill="rgb(107,107,107)" stroke="none" d="M 11018,18853 L 11018,17794 11465,17535 11465,19208 10018,20045 10018,18853 11018,18853 Z M 11005,18840 L 10018,18840 10018,18372 11005,17801 11005,18840 Z"/>
     <path fill="rgb(108,108,108)" stroke="none" d="M 11005,18840 L 11005,17801 11465,17535 11465,19208 10018,20045 10018,18840 11005,18840 Z M 10993,18828 L 10018,18828 10018,18372 10993,17808 10993,18828 Z"/>
     <path fill="rgb(109,109,109)" stroke="none" d="M 10993,18828 L 10993,17808 11465,17535 11465,19208 10018,20045 10018,18828 10993,18828 Z M 10981,18816 L 10018,18816 10018,18372 10981,17815 10981,18816 Z"/>
     <path fill="rgb(110,110,110)" stroke="none" d="M 10981,18816 L 10981,17815 11465,17535 11465,19208 10018,20045 10018,18816 10981,18816 Z M 10968,18803 L 10018,18803 10018,18372 10968,17822 10968,18803 Z"/>
     <path fill="rgb(111,111,111)" stroke="none" d="M 10968,18803 L 10968,17822 11465,17535 11465,19208 10018,20045 10018,18803 10968,18803 Z M 10956,18791 L 10018,18791 10018,18372 10956,17829 10956,18791 Z"/>
     <path fill="rgb(112,112,112)" stroke="none" d="M 10956,18791 L 10956,17829 11465,17535 11465,19208 10018,20045 10018,18791 10956,18791 Z M 10944,18779 L 10018,18779 10018,18372 10944,17836 10944,18779 Z"/>
     <path fill="rgb(113,113,113)" stroke="none" d="M 10944,18779 L 10944,17836 11465,17535 11465,19208 10018,20045 10018,18779 10944,18779 Z M 10931,18766 L 10018,18766 10018,18372 10931,17844 10931,18766 Z"/>
     <path fill="rgb(114,114,114)" stroke="none" d="M 10931,18766 L 10931,17844 11465,17535 11465,19208 10018,20045 10018,18766 10931,18766 Z M 10919,18754 L 10018,18754 10018,18372 10919,17851 10919,18754 Z"/>
     <path fill="rgb(115,115,115)" stroke="none" d="M 10919,18754 L 10919,17851 11465,17535 11465,19208 10018,20045 10018,18754 10919,18754 Z M 10907,18742 L 10018,18742 10018,18372 10907,17858 10907,18742 Z"/>
     <path fill="rgb(116,116,116)" stroke="none" d="M 10907,18742 L 10907,17858 11465,17535 11465,19208 10018,20045 10018,18742 10907,18742 Z M 10894,18729 L 10018,18729 10018,18372 10894,17865 10894,18729 Z"/>
     <path fill="rgb(117,117,117)" stroke="none" d="M 10894,18729 L 10894,17865 11465,17535 11465,19208 10018,20045 10018,18729 10894,18729 Z M 10882,18717 L 10021,18717 10021,18370 10882,17872 10882,18717 Z"/>
     <path fill="rgb(118,118,118)" stroke="none" d="M 10021,18717 L 10882,18717 10882,17872 11465,17535 11465,19208 10018,20045 10018,18372 10021,18370 10021,18717 Z M 10870,18705 L 10033,18705 10033,18363 10870,17879 10870,18705 Z"/>
     <path fill="rgb(119,119,119)" stroke="none" d="M 10033,18705 L 10870,18705 10870,17879 11465,17535 11465,19208 10018,20045 10018,18372 10033,18363 10033,18705 Z M 10858,18693 L 10045,18693 10045,18356 10858,17886 10858,18693 Z"/>
     <path fill="rgb(120,120,120)" stroke="none" d="M 10045,18693 L 10858,18693 10858,17886 11465,17535 11465,19208 10018,20045 10018,18372 10045,18356 10045,18693 Z M 10845,18680 L 10058,18680 10058,18349 10845,17894 10845,18680 Z"/>
     <path fill="rgb(121,121,121)" stroke="none" d="M 10058,18680 L 10845,18680 10845,17894 11465,17535 11465,19208 10018,20045 10018,18372 10058,18349 10058,18680 Z M 10833,17905 L 10833,18668 10070,18668 10070,18342 10825,17905 10833,17905 Z"/>
     <path fill="rgb(122,122,122)" stroke="none" d="M 10070,18668 L 10833,18668 10833,17905 10825,17905 11465,17535 11465,19208 10018,20045 10018,18372 10070,18342 10070,18668 Z M 10821,17917 L 10821,18656 10082,18656 10082,18335 10805,17917 10821,17917 Z"/>
     <path fill="rgb(123,123,123)" stroke="none" d="M 10082,18656 L 10821,18656 10821,17917 10805,17917 11465,17535 11465,19208 10018,20045 10018,18372 10082,18335 10082,18656 Z M 10808,17930 L 10808,18643 10095,18643 10095,18327 10782,17930 10808,17930 Z"/>
     <path fill="rgb(124,124,124)" stroke="none" d="M 10095,18643 L 10808,18643 10808,17930 10782,17930 11465,17535 11465,19208 10018,20045 10018,18372 10095,18327 10095,18643 Z M 10796,17942 L 10796,18631 10107,18631 10107,18321 10761,17942 10796,17942 Z"/>
     <path fill="rgb(125,125,125)" stroke="none" d="M 10107,18631 L 10796,18631 10796,17942 10761,17942 11465,17535 11465,19208 10018,20045 10018,18372 10107,18321 10107,18631 Z M 10784,17954 L 10784,18619 10119,18619 10119,18314 10741,17954 10784,17954 Z"/>
     <path fill="rgb(126,126,126)" stroke="none" d="M 10119,18619 L 10784,18619 10784,17954 10741,17954 11465,17535 11465,19208 10018,20045 10018,18372 10119,18314 10119,18619 Z M 10771,17967 L 10771,18606 10132,18606 10132,18306 10718,17967 10771,17967 Z"/>
     <path fill="rgb(127,127,127)" stroke="none" d="M 10132,18606 L 10771,18606 10771,17967 10718,17967 11465,17535 11465,19208 10018,20045 10018,18372 10132,18306 10132,18606 Z M 10759,17979 L 10759,18594 10144,18594 10144,18299 10697,17979 10759,17979 Z"/>
     <path fill="rgb(128,128,128)" stroke="none" d="M 10144,18594 L 10759,18594 10759,17979 10697,17979 11465,17535 11465,19208 10018,20045 10018,18372 10144,18299 10144,18594 Z M 10747,17991 L 10747,18582 10156,18582 10156,18292 10677,17991 10747,17991 Z"/>
     <path fill="rgb(129,129,129)" stroke="none" d="M 10156,18582 L 10747,18582 10747,17991 10677,17991 11465,17535 11465,19208 10018,20045 10018,18372 10156,18292 10156,18582 Z M 10734,18004 L 10734,18569 10169,18569 10169,18285 10654,18004 10734,18004 Z"/>
     <path fill="rgb(130,130,130)" stroke="none" d="M 10169,18569 L 10734,18569 10734,18004 10654,18004 11465,17535 11465,19208 10018,20045 10018,18372 10169,18285 10169,18569 Z M 10722,18016 L 10722,18557 10181,18557 10181,18278 10633,18016 10722,18016 Z"/>
     <path fill="rgb(131,131,131)" stroke="none" d="M 10181,18557 L 10722,18557 10722,18016 10633,18016 11465,17535 11465,19208 10018,20045 10018,18372 10181,18278 10181,18557 Z M 10710,18028 L 10710,18545 10193,18545 10193,18271 10613,18028 10710,18028 Z"/>
     <path fill="rgb(132,132,132)" stroke="none" d="M 10193,18545 L 10710,18545 10710,18028 10613,18028 11465,17535 11465,19208 10018,20045 10018,18372 10193,18271 10193,18545 Z M 10697,18041 L 10697,18532 10206,18532 10206,18263 10590,18041 10697,18041 Z"/>
     <path fill="rgb(133,133,133)" stroke="none" d="M 10206,18532 L 10697,18532 10697,18041 10590,18041 11465,17535 11465,19208 10018,20045 10018,18372 10206,18263 10206,18532 Z M 10685,18053 L 10685,18520 10218,18520 10218,18256 10569,18053 10685,18053 Z"/>
     <path fill="rgb(134,134,134)" stroke="none" d="M 10218,18520 L 10685,18520 10685,18053 10569,18053 11465,17535 11465,19208 10018,20045 10018,18372 10218,18256 10218,18520 Z M 10673,18065 L 10673,18508 10230,18508 10230,18249 10549,18065 10673,18065 Z"/>
     <path fill="rgb(135,135,135)" stroke="none" d="M 10230,18508 L 10673,18508 10673,18065 10549,18065 11465,17535 11465,19208 10018,20045 10018,18372 10230,18249 10230,18508 Z M 10660,18078 L 10660,18495 10243,18495 10243,18242 10526,18078 10660,18078 Z"/>
     <path fill="rgb(136,136,136)" stroke="none" d="M 10243,18495 L 10660,18495 10660,18078 10526,18078 11465,17535 11465,19208 10018,20045 10018,18372 10243,18242 10243,18495 Z M 10648,18090 L 10648,18483 10255,18483 10255,18235 10506,18090 10648,18090 Z"/>
     <path fill="rgb(137,137,137)" stroke="none" d="M 10255,18483 L 10648,18483 10648,18090 10506,18090 11465,17535 11465,19208 10018,20045 10018,18372 10255,18235 10255,18483 Z M 10636,18102 L 10636,18471 10267,18471 10267,18228 10485,18102 10636,18102 Z"/>
     <path fill="rgb(138,138,138)" stroke="none" d="M 10267,18471 L 10636,18471 10636,18102 10485,18102 11465,17535 11465,19208 10018,20045 10018,18372 10267,18228 10267,18471 Z M 10623,18115 L 10623,18458 10280,18458 10280,18220 10462,18115 10623,18115 Z"/>
     <path fill="rgb(139,139,139)" stroke="none" d="M 10280,18458 L 10623,18458 10623,18115 10462,18115 11465,17535 11465,19208 10018,20045 10018,18372 10280,18220 10280,18458 Z M 10611,18127 L 10611,18446 10292,18446 10292,18214 10442,18127 10611,18127 Z"/>
     <path fill="rgb(140,140,140)" stroke="none" d="M 10292,18446 L 10611,18446 10611,18127 10442,18127 11465,17535 11465,19208 10018,20045 10018,18372 10292,18214 10292,18446 Z M 10599,18139 L 10599,18434 10304,18434 10304,18207 10421,18139 10599,18139 Z"/>
     <path fill="rgb(141,141,141)" stroke="none" d="M 10304,18434 L 10599,18434 10599,18139 10421,18139 11465,17535 11465,19208 10018,20045 10018,18372 10304,18207 10304,18434 Z M 10587,18151 L 10587,18422 10316,18422 10316,18200 10400,18151 10587,18151 Z"/>
     <path fill="rgb(142,142,142)" stroke="none" d="M 10316,18422 L 10587,18422 10587,18151 10400,18151 11465,17535 11465,19208 10018,20045 10018,18372 10316,18200 10316,18422 Z M 10574,18164 L 10574,18409 10329,18409 10329,18192 10378,18164 10574,18164 Z"/>
     <path fill="rgb(143,143,143)" stroke="none" d="M 10329,18409 L 10574,18409 10574,18164 10378,18164 11465,17535 11465,19208 10018,20045 10018,18372 10329,18192 10329,18409 Z M 10562,18176 L 10562,18397 10341,18397 10341,18185 10357,18176 10562,18176 Z"/>
     <path fill="rgb(144,144,144)" stroke="none" d="M 10341,18397 L 10562,18397 10562,18176 10357,18176 11465,17535 11465,19208 10018,20045 10018,18372 10341,18185 10341,18397 Z M 10353,18188 L 10550,18188 10550,18385 10353,18385 10353,18188 Z"/>
     <path fill="rgb(145,145,145)" stroke="none" d="M 10353,18188 L 10353,18385 10550,18385 10550,18188 10353,18188 Z M 10366,18201 L 10537,18201 10537,18372 10366,18372 10366,18201 Z M 10018,20045 L 10018,18372 11465,17535 11465,19208 10018,20045 Z"/>
     <path fill="rgb(146,146,146)" stroke="none" d="M 10366,18201 L 10366,18372 10537,18372 10537,18201 10366,18201 Z M 10378,18213 L 10525,18213 10525,18360 10378,18360 10378,18213 Z M 10018,20045 L 10018,18372 11465,17535 11465,19208 10018,20045 Z"/>
     <path fill="rgb(147,147,147)" stroke="none" d="M 10378,18213 L 10378,18360 10525,18360 10525,18213 10378,18213 Z M 10390,18225 L 10513,18225 10513,18348 10390,18348 10390,18225 Z M 10018,20045 L 10018,18372 11465,17535 11465,19208 10018,20045 Z"/>
     <path fill="rgb(148,148,148)" stroke="none" d="M 10390,18225 L 10390,18348 10513,18348 10513,18225 10390,18225 Z M 10403,18238 L 10500,18238 10500,18335 10403,18335 10403,18238 Z M 10018,20045 L 10018,18372 11465,17535 11465,19208 10018,20045 Z"/>
     <path fill="rgb(149,149,149)" stroke="none" d="M 10403,18238 L 10403,18335 10500,18335 10500,18238 10403,18238 Z M 10415,18250 L 10488,18250 10488,18323 10415,18323 10415,18250 Z M 10018,20045 L 10018,18372 11465,17535 11465,19208 10018,20045 Z"/>
     <path fill="rgb(150,150,150)" stroke="none" d="M 10415,18250 L 10415,18323 10488,18323 10488,18250 10415,18250 Z M 10427,18262 L 10476,18262 10476,18311 10427,18311 10427,18262 Z M 10018,20045 L 10018,18372 11465,17535 11465,19208 10018,20045 Z"/>
     <path fill="rgb(151,151,151)" stroke="none" d="M 10427,18262 L 10427,18311 10476,18311 10476,18262 10427,18262 Z M 10440,18275 L 10463,18275 10463,18298 10440,18298 10440,18275 Z M 10018,20045 L 10018,18372 11465,17535 11465,19208 10018,20045 Z"/>
     <path fill="rgb(153,153,153)" stroke="none" d="M 10440,18275 L 10440,18298 10463,18298 10463,18275 10440,18275 Z M 10018,20045 L 10018,18372 11465,17535 11465,19208 10018,20045 Z"/>
     <path fill="none" stroke="rgb(178,178,178)" id="Drawing_3_0" stroke-width="40" stroke-linejoin="round" d="M 10018,20045 L 10018,18372 11465,17535 11465,19208 10018,20045 Z"/>
    </g>
    <g>
     <defs>
      <linearGradient id="Gradient_629" gradientUnits="userSpaceOnUse" x1="9294" y1="15862" x2="9294" y2="18372">
       <stop offset="0.1" stop-color="rgb(51,51,51)"/>
       <stop offset="1" stop-color="rgb(153,153,153)"/>
      </linearGradient>
     </defs>
     <path fill="url(#Gradient_629)" stroke="rgb(178,178,178)" id="Drawing_4_0" stroke-width="40" stroke-linejoin="round" d="M 10018,18372 L 7123,16699 8570,15862 11465,17535 10018,18372 Z"/>
    </g>
    <g>
     <path fill="none" stroke="rgb(0,0,0)" id="Drawing_5_0" stroke-width="40" stroke-linejoin="round" d="M 7123,18372 L 7123,16699 8570,15862 11465,17535 11465,19208 10018,20045 7123,18372 Z"/>
    </g>
    <g>
     <path fill="rgb(178,178,178)" stroke="none" d="M 7316,17535 L 7316,17033 8088,17479 8088,17981 7316,17535 Z"/>
     <path fill="none" stroke="rgb(178,178,178)" id="Drawing_6_0" stroke-width="40" stroke-linejoin="round" d="M 7316,17535 L 7316,17033 8088,17479 8088,17981 7316,17535 Z"/>
    </g>
    <g>
     <path fill="rgb(0,0,0)" stroke="none" d="M 10018,18204 L 9632,17981 9921,17814 10307,18037 10018,18204 Z"/>
     <path fill="none" stroke="rgb(178,178,178)" id="Drawing_7_0" stroke-width="40" stroke-linejoin="round" d="M 10018,18204 L 9632,17981 9921,17814 10307,18037 10018,18204 Z"/>
    </g>
    <g>
     <path fill="rgb(153,153,153)" stroke="none" d="M 9825,17982 L 9825,17703 10018,17815 10018,18093 9825,17982 Z"/>
     <path fill="none" stroke="rgb(178,178,178)" id="Drawing_8_0" stroke-width="40" stroke-linejoin="round" d="M 9825,17982 L 9825,17703 10018,17815 10018,18093 9825,17982 Z"/>
    </g>
    <g>
     <path fill="rgb(153,153,153)" stroke="none" d="M 10018,18093 L 10018,17814 10114,17758 10114,18037 10018,18093 Z"/>
     <path fill="none" stroke="rgb(178,178,178)" id="Drawing_9_0" stroke-width="40" stroke-linejoin="round" d="M 10018,18093 L 10018,17814 10114,17758 10114,18037 10018,18093 Z"/>
    </g>
    <g>
     <path fill="rgb(153,153,153)" stroke="none" d="M 9825,17703 L 9921,17647 10114,17759 10018,17814 9825,17703 Z"/>
     <path fill="none" stroke="rgb(178,178,178)" id="Drawing_10_0" stroke-width="40" stroke-linejoin="round" d="M 9825,17703 L 9921,17647 10114,17759 10018,17814 9825,17703 Z"/>
    </g>
    <g>
     <path fill="rgb(190,30,45)" stroke="none" d="M 7798,16921 L 7412,16698 7701,16531 8087,16754 7798,16921 Z"/>
     <path fill="none" stroke="rgb(153,153,153)" id="Drawing_11_0" stroke-width="40" stroke-linejoin="round" d="M 7798,16921 L 7412,16698 7701,16531 8087,16754 7798,16921 Z"/>
    </g>
    <g>
     <path fill="rgb(153,153,153)" stroke="none" d="M 7605,16699 L 7605,16420 7798,16532 7798,16810 7605,16699 Z"/>
     <path fill="none" stroke="rgb(178,178,178)" id="Drawing_12_0" stroke-width="40" stroke-linejoin="round" d="M 7605,16699 L 7605,16420 7798,16532 7798,16810 7605,16699 Z"/>
    </g>
    <g>
     <path fill="rgb(153,153,153)" stroke="none" d="M 7798,16811 L 7798,16532 7894,16476 7894,16755 7798,16811 Z"/>
     <path fill="none" stroke="rgb(178,178,178)" id="Drawing_13_0" stroke-width="40" stroke-linejoin="round" d="M 7798,16811 L 7798,16532 7894,16476 7894,16755 7798,16811 Z"/>
    </g>
    <g>
     <path fill="rgb(153,153,153)" stroke="none" d="M 7605,16420 L 7701,16364 7894,16476 7798,16531 7605,16420 Z"/>
     <path fill="none" stroke="rgb(178,178,178)" id="Drawing_14_0" stroke-width="40" stroke-linejoin="round" d="M 7605,16420 L 7701,16364 7894,16476 7798,16531 7605,16420 Z"/>
    </g>
   </g>
  </g>
 </g>
</svg>