<?xml version="1.0" encoding="UTF-8"?>

<svg version="1.2" baseProfile="tiny" width="25.95mm" height="27mm" viewBox="16231 15470 2595 2700" preserveAspectRatio="xMidYMid" fill-rule="evenodd" stroke-width="28.222" stroke-linejoin="round" xmlns="http://www.w3.org/2000/svg" xmlns:xlink="http://www.w3.org/1999/xlink" xml:space="preserve">
 <g visibility="visible" id="Slide_1">
  <g id="DrawingGroup_1">
   <g>
    <path fill="rgb(221,221,221)" stroke="none" d="M 17707,18010 C 18182,18010 18677,17730 18798,17520 18919,17310 18607,17170 18434,17170 18434,17470 17707,17609 17707,18010 Z"/>
    <path fill="none" stroke="rgb(221,221,221)" id="Drawing_1_0" stroke-linejoin="round" d="M 17707,18010 C 18182,18010 18677,17730 18798,17520 18919,17310 18607,17170 18434,17170 18434,17470 17707,17609 17707,18010 Z"/>
   </g>
   <g id="DrawingGroup_2">
    <g>
     <path fill="rgb(51,51,51)" stroke="none" d="M 17465,17565 L 17465,16680 18434,16120 18434,17380 18114,17565 17465,17565 Z"/>
     <path fill="rgb(52,52,52)" stroke="none" d="M 18114,17565 L 17465,17940 17465,17565 18114,17565 Z M 17465,17555 L 17465,16680 18434,16120 18434,17380 18131,17555 17465,17555 Z"/>
     <path fill="rgb(53,53,53)" stroke="none" d="M 18131,17555 L 17465,17940 17465,17555 18131,17555 Z M 17465,17545 L 17465,16680 18434,16120 18434,17380 18148,17545 17465,17545 Z"/>
     <path fill="rgb(54,54,54)" stroke="none" d="M 18148,17545 L 17465,17940 17465,17545 18148,17545 Z M 17465,17535 L 17465,16680 18434,16120 18434,17380 18166,17535 17465,17535 Z"/>
     <path fill="rgb(55,55,55)" stroke="none" d="M 18166,17535 L 17465,17940 17465,17535 18166,17535 Z M 17465,17525 L 17465,16680 18434,16120 18434,17380 18183,17525 17465,17525 Z"/>
     <path fill="rgb(56,56,56)" stroke="none" d="M 18183,17525 L 17465,17940 17465,17525 18183,17525 Z M 17465,17515 L 17465,16680 18434,16120 18434,17380 18200,17515 17465,17515 Z"/>
     <path fill="rgb(57,57,57)" stroke="none" d="M 18200,17515 L 17465,17940 17465,17515 18200,17515 Z M 17465,17505 L 17465,16680 18434,16120 18434,17380 18218,17505 17465,17505 Z"/>
     <path fill="rgb(58,58,58)" stroke="none" d="M 18218,17505 L 17465,17940 17465,17505 18218,17505 Z M 17465,17495 L 17465,16680 18434,16120 18434,17380 18235,17495 17465,17495 Z"/>
     <path fill="rgb(59,59,59)" stroke="none" d="M 18235,17495 L 17465,17940 17465,17495 18235,17495 Z M 17465,17485 L 17465,16680 18434,16120 18434,17380 18252,17485 17465,17485 Z"/>
     <path fill="rgb(61,61,61)" stroke="none" d="M 18252,17485 L 17465,17940 17465,17485 18252,17485 Z M 17465,17475 L 17465,16680 18434,16120 18434,17380 18270,17475 17465,17475 Z"/>
     <path fill="rgb(62,62,62)" stroke="none" d="M 18270,17475 L 17465,17940 17465,17475 18270,17475 Z M 17465,17465 L 17465,16680 18434,16120 18434,17380 18287,17465 17465,17465 Z"/>
     <path fill="rgb(63,63,63)" stroke="none" d="M 18287,17465 L 17465,17940 17465,17465 18287,17465 Z M 17465,17455 L 17465,16680 18434,16120 18434,17380 18304,17455 17465,17455 Z"/>
     <path fill="rgb(64,64,64)" stroke="none" d="M 18304,17455 L 17465,17940 17465,17455 18304,17455 Z M 17465,17445 L 17465,16680 18434,16120 18434,17380 18322,17445 17465,17445 Z"/>
     <path fill="rgb(65,65,65)" stroke="none" d="M 18322,17445 L 17465,17940 17465,17445 18322,17445 Z M 17465,17435 L 17465,16680 18434,16120 18434,17380 18339,17435 17465,17435 Z"/>
     <path fill="rgb(66,66,66)" stroke="none" d="M 18339,17435 L 17465,17940 17465,17435 18339,17435 Z M 17465,17425 L 17465,16680 18434,16120 18434,17380 18356,17425 17465,17425 Z"/>
     <path fill="rgb(67,67,67)" stroke="none" d="M 18356,17425 L 17465,17940 17465,17425 18356,17425 Z M 17465,17415 L 17465,16680 18434,16120 18434,17380 18373,17415 17465,17415 Z"/>
     <path fill="rgb(68,68,68)" stroke="none" d="M 18373,17415 L 17465,17940 17465,17415 18373,17415 Z M 17465,17405 L 17465,16680 18434,16120 18434,17380 18391,17405 17465,17405 Z"/>
     <path fill="rgb(70,70,70)" stroke="none" d="M 18391,17405 L 17465,17940 17465,17405 18391,17405 Z M 17465,17395 L 17465,16680 18434,16120 18434,17380 18408,17395 17465,17395 Z"/>
     <path fill="rgb(71,71,71)" stroke="none" d="M 18408,17395 L 17465,17940 17465,17395 18408,17395 Z M 17465,17385 L 17465,16680 18434,16120 18434,17380 18425,17385 17465,17385 Z"/>
     <path fill="rgb(72,72,72)" stroke="none" d="M 18425,17385 L 17465,17940 17465,17385 18425,17385 Z M 17465,17375 L 17465,16680 18434,16120 18434,17375 17465,17375 Z"/>
     <path fill="rgb(73,73,73)" stroke="none" d="M 18434,17375 L 18434,17380 17465,17940 17465,17375 18434,17375 Z M 17465,17365 L 17465,16680 18434,16120 18434,17365 17465,17365 Z"/>
     <path fill="rgb(74,74,74)" stroke="none" d="M 18434,17365 L 18434,17380 17465,17940 17465,17365 18434,17365 Z M 17465,17355 L 17465,16680 18434,16120 18434,17355 17465,17355 Z"/>
     <path fill="rgb(75,75,75)" stroke="none" d="M 18434,17355 L 18434,17380 17465,17940 17465,17355 18434,17355 Z M 17465,17345 L 17465,16680 18434,16120 18434,17345 17465,17345 Z"/>
     <path fill="rgb(76,76,76)" stroke="none" d="M 18434,17345 L 18434,17380 17465,17940 17465,17345 18434,17345 Z M 18425,17335 L 17465,17335 17465,16680 18425,16125 18425,17335 Z"/>
     <path fill="rgb(77,77,77)" stroke="none" d="M 18425,17335 L 18425,16125 18434,16120 18434,17380 17465,17940 17465,17335 18425,17335 Z M 18415,17325 L 17465,17325 17465,16680 18415,16131 18415,17325 Z"/>
     <path fill="rgb(79,79,79)" stroke="none" d="M 18415,17325 L 18415,16131 18434,16120 18434,17380 17465,17940 17465,17325 18415,17325 Z M 18405,17315 L 17465,17315 17465,16680 18405,16137 18405,17315 Z"/>
     <path fill="rgb(80,80,80)" stroke="none" d="M 18405,17315 L 18405,16137 18434,16120 18434,17380 17465,17940 17465,17315 18405,17315 Z M 18395,17305 L 17465,17305 17465,16680 18395,16143 18395,17305 Z"/>
     <path fill="rgb(81,81,81)" stroke="none" d="M 18395,17305 L 18395,16143 18434,16120 18434,17380 17465,17940 17465,17305 18395,17305 Z M 18385,17295 L 17465,17295 17465,16680 18385,16148 18385,17295 Z"/>
     <path fill="rgb(82,82,82)" stroke="none" d="M 18385,17295 L 18385,16148 18434,16120 18434,17380 17465,17940 17465,17295 18385,17295 Z M 18375,17285 L 17465,17285 17465,16680 18375,16154 18375,17285 Z"/>
     <path fill="rgb(83,83,83)" stroke="none" d="M 18375,17285 L 18375,16154 18434,16120 18434,17380 17465,17940 17465,17285 18375,17285 Z M 18365,17275 L 17465,17275 17465,16680 18365,16160 18365,17275 Z"/>
     <path fill="rgb(84,84,84)" stroke="none" d="M 18365,17275 L 18365,16160 18434,16120 18434,17380 17465,17940 17465,17275 18365,17275 Z M 18355,17265 L 17465,17265 17465,16680 18355,16166 18355,17265 Z"/>
     <path fill="rgb(85,85,85)" stroke="none" d="M 18355,17265 L 18355,16166 18434,16120 18434,17380 17465,17940 17465,17265 18355,17265 Z M 18345,17255 L 17465,17255 17465,16680 18345,16171 18345,17255 Z"/>
     <path fill="rgb(86,86,86)" stroke="none" d="M 18345,17255 L 18345,16171 18434,16120 18434,17380 17465,17940 17465,17255 18345,17255 Z M 18335,17245 L 17465,17245 17465,16680 18335,16177 18335,17245 Z"/>
     <path fill="rgb(87,87,87)" stroke="none" d="M 18335,17245 L 18335,16177 18434,16120 18434,17380 17465,17940 17465,17245 18335,17245 Z M 18325,17235 L 17465,17235 17465,16680 18325,16183 18325,17235 Z"/>
     <path fill="rgb(89,89,89)" stroke="none" d="M 18325,17235 L 18325,16183 18434,16120 18434,17380 17465,17940 17465,17235 18325,17235 Z M 18315,17225 L 17465,17225 17465,16680 18315,16189 18315,17225 Z"/>
     <path fill="rgb(90,90,90)" stroke="none" d="M 18315,17225 L 18315,16189 18434,16120 18434,17380 17465,17940 17465,17225 18315,17225 Z M 18305,17215 L 17465,17215 17465,16680 18305,16195 18305,17215 Z"/>
     <path fill="rgb(91,91,91)" stroke="none" d="M 18305,17215 L 18305,16195 18434,16120 18434,17380 17465,17940 17465,17215 18305,17215 Z M 18295,17205 L 17465,17205 17465,16680 18295,16200 18295,17205 Z"/>
     <path fill="rgb(92,92,92)" stroke="none" d="M 18295,17205 L 18295,16200 18434,16120 18434,17380 17465,17940 17465,17205 18295,17205 Z M 18285,17195 L 17465,17195 17465,16680 18285,16206 18285,17195 Z"/>
     <path fill="rgb(93,93,93)" stroke="none" d="M 18285,17195 L 18285,16206 18434,16120 18434,17380 17465,17940 17465,17195 18285,17195 Z M 18275,17185 L 17465,17185 17465,16680 18275,16212 18275,17185 Z"/>
     <path fill="rgb(94,94,94)" stroke="none" d="M 18275,17185 L 18275,16212 18434,16120 18434,17380 17465,17940 17465,17185 18275,17185 Z M 18265,17175 L 17465,17175 17465,16680 18265,16218 18265,17175 Z"/>
     <path fill="rgb(95,95,95)" stroke="none" d="M 18265,17175 L 18265,16218 18434,16120 18434,17380 17465,17940 17465,17175 18265,17175 Z M 18255,17165 L 17465,17165 17465,16680 18255,16223 18255,17165 Z"/>
     <path fill="rgb(96,96,96)" stroke="none" d="M 18255,17165 L 18255,16223 18434,16120 18434,17380 17465,17940 17465,17165 18255,17165 Z M 18245,17155 L 17465,17155 17465,16680 18245,16229 18245,17155 Z"/>
     <path fill="rgb(98,98,98)" stroke="none" d="M 18245,17155 L 18245,16229 18434,16120 18434,17380 17465,17940 17465,17155 18245,17155 Z M 18235,17145 L 17465,17145 17465,16680 18235,16235 18235,17145 Z"/>
     <path fill="rgb(99,99,99)" stroke="none" d="M 18235,17145 L 18235,16235 18434,16120 18434,17380 17465,17940 17465,17145 18235,17145 Z M 18225,17135 L 17465,17135 17465,16680 18225,16241 18225,17135 Z"/>
     <path fill="rgb(100,100,100)" stroke="none" d="M 18225,17135 L 18225,16241 18434,16120 18434,17380 17465,17940 17465,17135 18225,17135 Z M 18215,17125 L 17465,17125 17465,16680 18215,16247 18215,17125 Z"/>
     <path fill="rgb(101,101,101)" stroke="none" d="M 18215,17125 L 18215,16247 18434,16120 18434,17380 17465,17940 17465,17125 18215,17125 Z M 18205,17115 L 17465,17115 17465,16680 18205,16252 18205,17115 Z"/>
     <path fill="rgb(102,102,102)" stroke="none" d="M 18205,17115 L 18205,16252 18434,16120 18434,17380 17465,17940 17465,17115 18205,17115 Z M 18195,17105 L 17465,17105 17465,16680 18195,16258 18195,17105 Z"/>
     <path fill="rgb(103,103,103)" stroke="none" d="M 18195,17105 L 18195,16258 18434,16120 18434,17380 17465,17940 17465,17105 18195,17105 Z M 18185,17095 L 17465,17095 17465,16680 18185,16264 18185,17095 Z"/>
     <path fill="rgb(104,104,104)" stroke="none" d="M 18185,17095 L 18185,16264 18434,16120 18434,17380 17465,17940 17465,17095 18185,17095 Z M 18175,17085 L 17465,17085 17465,16680 18175,16270 18175,17085 Z"/>
     <path fill="rgb(105,105,105)" stroke="none" d="M 18175,17085 L 18175,16270 18434,16120 18434,17380 17465,17940 17465,17085 18175,17085 Z M 18165,17075 L 17465,17075 17465,16680 18165,16275 18165,17075 Z"/>
     <path fill="rgb(107,107,107)" stroke="none" d="M 18165,17075 L 18165,16275 18434,16120 18434,17380 17465,17940 17465,17075 18165,17075 Z M 18155,17065 L 17465,17065 17465,16680 18155,16281 18155,17065 Z"/>
     <path fill="rgb(108,108,108)" stroke="none" d="M 18155,17065 L 18155,16281 18434,16120 18434,17380 17465,17940 17465,17065 18155,17065 Z M 18145,17055 L 17465,17055 17465,16680 18145,16287 18145,17055 Z"/>
     <path fill="rgb(109,109,109)" stroke="none" d="M 18145,17055 L 18145,16287 18434,16120 18434,17380 17465,17940 17465,17055 18145,17055 Z M 18135,17045 L 17465,17045 17465,16680 18135,16293 18135,17045 Z"/>
     <path fill="rgb(110,110,110)" stroke="none" d="M 18135,17045 L 18135,16293 18434,16120 18434,17380 17465,17940 17465,17045 18135,17045 Z M 18125,17035 L 17465,17035 17465,16680 18125,16299 18125,17035 Z"/>
     <path fill="rgb(111,111,111)" stroke="none" d="M 18125,17035 L 18125,16299 18434,16120 18434,17380 17465,17940 17465,17035 18125,17035 Z M 18115,17025 L 17465,17025 17465,16680 18115,16304 18115,17025 Z"/>
     <path fill="rgb(112,112,112)" stroke="none" d="M 18115,17025 L 18115,16304 18434,16120 18434,17380 17465,17940 17465,17025 18115,17025 Z M 18105,16314 L 18105,17015 17465,17015 17465,16680 18098,16314 18105,16314 Z"/>
     <path fill="rgb(113,113,113)" stroke="none" d="M 18105,17015 L 18105,16314 18098,16314 18434,16120 18434,17380 17465,17940 17465,17015 18105,17015 Z M 18095,16324 L 18095,17005 17465,17005 17465,16680 18081,16324 18095,16324 Z"/>
     <path fill="rgb(114,114,114)" stroke="none" d="M 18095,17005 L 18095,16324 18081,16324 18434,16120 18434,17380 17465,17940 17465,17005 18095,17005 Z M 18085,16334 L 18085,16995 17465,16995 17465,16680 18064,16334 18085,16334 Z"/>
     <path fill="rgb(116,116,116)" stroke="none" d="M 18085,16995 L 18085,16334 18064,16334 18434,16120 18434,17380 17465,17940 17465,16995 18085,16995 Z M 18075,16344 L 18075,16985 17465,16985 17465,16680 18046,16344 18075,16344 Z"/>
     <path fill="rgb(117,117,117)" stroke="none" d="M 18075,16985 L 18075,16344 18046,16344 18434,16120 18434,17380 17465,17940 17465,16985 18075,16985 Z M 18065,16354 L 18065,16975 17465,16975 17465,16680 18029,16354 18065,16354 Z"/>
     <path fill="rgb(118,118,118)" stroke="none" d="M 18065,16975 L 18065,16354 18029,16354 18434,16120 18434,17380 17465,17940 17465,16975 18065,16975 Z M 18054,16365 L 18054,16964 17465,16964 17465,16680 18010,16365 18054,16365 Z"/>
     <path fill="rgb(119,119,119)" stroke="none" d="M 18054,16964 L 18054,16365 18010,16365 18434,16120 18434,17380 17465,17940 17465,16964 18054,16964 Z M 18044,16375 L 18044,16954 17465,16954 17465,16680 17993,16375 18044,16375 Z"/>
     <path fill="rgb(120,120,120)" stroke="none" d="M 18044,16954 L 18044,16375 17993,16375 18434,16120 18434,17380 17465,17940 17465,16954 18044,16954 Z M 18034,16385 L 18034,16944 17475,16944 17475,16674 17975,16385 18034,16385 Z"/>
     <path fill="rgb(121,121,121)" stroke="none" d="M 17475,16944 L 18034,16944 18034,16385 17975,16385 18434,16120 18434,17380 17465,17940 17465,16680 17475,16674 17475,16944 Z M 18024,16395 L 18024,16934 17485,16934 17485,16668 17958,16395 18024,16395 Z"/>
     <path fill="rgb(122,122,122)" stroke="none" d="M 17485,16934 L 18024,16934 18024,16395 17958,16395 18434,16120 18434,17380 17465,17940 17465,16680 17485,16668 17485,16934 Z M 18014,16405 L 18014,16924 17495,16924 17495,16663 17941,16405 18014,16405 Z"/>
     <path fill="rgb(123,123,123)" stroke="none" d="M 17495,16924 L 18014,16924 18014,16405 17941,16405 18434,16120 18434,17380 17465,17940 17465,16680 17495,16663 17495,16924 Z M 18004,16415 L 18004,16914 17505,16914 17505,16657 17924,16415 18004,16415 Z"/>
     <path fill="rgb(124,124,124)" stroke="none" d="M 17505,16914 L 18004,16914 18004,16415 17924,16415 18434,16120 18434,17380 17465,17940 17465,16680 17505,16657 17505,16914 Z M 17994,16425 L 17994,16904 17515,16904 17515,16651 17906,16425 17994,16425 Z"/>
     <path fill="rgb(126,126,126)" stroke="none" d="M 17515,16904 L 17994,16904 17994,16425 17906,16425 18434,16120 18434,17380 17465,17940 17465,16680 17515,16651 17515,16904 Z M 17984,16435 L 17984,16894 17525,16894 17525,16645 17889,16435 17984,16435 Z"/>
     <path fill="rgb(127,127,127)" stroke="none" d="M 17525,16894 L 17984,16894 17984,16435 17889,16435 18434,16120 18434,17380 17465,17940 17465,16680 17525,16645 17525,16894 Z M 17974,16445 L 17974,16884 17535,16884 17535,16640 17872,16445 17974,16445 Z"/>
     <path fill="rgb(128,128,128)" stroke="none" d="M 17535,16884 L 17974,16884 17974,16445 17872,16445 18434,16120 18434,17380 17465,17940 17465,16680 17535,16640 17535,16884 Z M 17964,16455 L 17964,16874 17545,16874 17545,16634 17854,16455 17964,16455 Z"/>
     <path fill="rgb(129,129,129)" stroke="none" d="M 17545,16874 L 17964,16874 17964,16455 17854,16455 18434,16120 18434,17380 17465,17940 17465,16680 17545,16634 17545,16874 Z M 17954,16465 L 17954,16864 17555,16864 17555,16628 17837,16465 17954,16465 Z"/>
     <path fill="rgb(130,130,130)" stroke="none" d="M 17555,16864 L 17954,16864 17954,16465 17837,16465 18434,16120 18434,17380 17465,17940 17465,16680 17555,16628 17555,16864 Z M 17944,16475 L 17944,16854 17565,16854 17565,16622 17820,16475 17944,16475 Z"/>
     <path fill="rgb(131,131,131)" stroke="none" d="M 17565,16854 L 17944,16854 17944,16475 17820,16475 18434,16120 18434,17380 17465,17940 17465,16680 17565,16622 17565,16854 Z M 17934,16485 L 17934,16844 17575,16844 17575,16616 17802,16485 17934,16485 Z"/>
     <path fill="rgb(132,132,132)" stroke="none" d="M 17575,16844 L 17934,16844 17934,16485 17802,16485 18434,16120 18434,17380 17465,17940 17465,16680 17575,16616 17575,16844 Z M 17924,16495 L 17924,16834 17585,16834 17585,16611 17785,16495 17924,16495 Z"/>
     <path fill="rgb(133,133,133)" stroke="none" d="M 17585,16834 L 17924,16834 17924,16495 17785,16495 18434,16120 18434,17380 17465,17940 17465,16680 17585,16611 17585,16834 Z M 17914,16505 L 17914,16824 17595,16824 17595,16605 17768,16505 17914,16505 Z"/>
     <path fill="rgb(135,135,135)" stroke="none" d="M 17595,16824 L 17914,16824 17914,16505 17768,16505 18434,16120 18434,17380 17465,17940 17465,16680 17595,16605 17595,16824 Z M 17904,16515 L 17904,16814 17605,16814 17605,16599 17751,16515 17904,16515 Z"/>
     <path fill="rgb(136,136,136)" stroke="none" d="M 17605,16814 L 17904,16814 17904,16515 17751,16515 18434,16120 18434,17380 17465,17940 17465,16680 17605,16599 17605,16814 Z M 17894,16525 L 17894,16804 17615,16804 17615,16593 17733,16525 17894,16525 Z"/>
     <path fill="rgb(137,137,137)" stroke="none" d="M 17615,16804 L 17894,16804 17894,16525 17733,16525 18434,16120 18434,17380 17465,17940 17465,16680 17615,16593 17615,16804 Z M 17884,16535 L 17884,16794 17625,16794 17625,16588 17716,16535 17884,16535 Z"/>
     <path fill="rgb(138,138,138)" stroke="none" d="M 17625,16794 L 17884,16794 17884,16535 17716,16535 18434,16120 18434,17380 17465,17940 17465,16680 17625,16588 17625,16794 Z M 17874,16545 L 17874,16784 17635,16784 17635,16582 17699,16545 17874,16545 Z"/>
     <path fill="rgb(139,139,139)" stroke="none" d="M 17635,16784 L 17874,16784 17874,16545 17699,16545 18434,16120 18434,17380 17465,17940 17465,16680 17635,16582 17635,16784 Z M 17864,16555 L 17864,16774 17645,16774 17645,16576 17681,16555 17864,16555 Z"/>
     <path fill="rgb(140,140,140)" stroke="none" d="M 17645,16774 L 17864,16774 17864,16555 17681,16555 18434,16120 18434,17380 17465,17940 17465,16680 17645,16576 17645,16774 Z M 17854,16565 L 17854,16764 17655,16764 17655,16570 17664,16565 17854,16565 Z"/>
     <path fill="rgb(141,141,141)" stroke="none" d="M 17655,16764 L 17854,16764 17854,16565 17664,16565 18434,16120 18434,17380 17465,17940 17465,16680 17655,16570 17655,16764 Z M 17665,16575 L 17844,16575 17844,16754 17665,16754 17665,16575 Z"/>
     <path fill="rgb(142,142,142)" stroke="none" d="M 17665,16575 L 17665,16754 17844,16754 17844,16575 17665,16575 Z M 17675,16585 L 17834,16585 17834,16744 17675,16744 17675,16585 Z M 17465,17940 L 17465,16680 18434,16120 18434,17380 17465,17940 Z"/>
     <path fill="rgb(144,144,144)" stroke="none" d="M 17675,16585 L 17675,16744 17834,16744 17834,16585 17675,16585 Z M 17685,16595 L 17824,16595 17824,16734 17685,16734 17685,16595 Z M 17465,17940 L 17465,16680 18434,16120 18434,17380 17465,17940 Z"/>
     <path fill="rgb(145,145,145)" stroke="none" d="M 17685,16595 L 17685,16734 17824,16734 17824,16595 17685,16595 Z M 17695,16605 L 17814,16605 17814,16724 17695,16724 17695,16605 Z M 17465,17940 L 17465,16680 18434,16120 18434,17380 17465,17940 Z"/>
     <path fill="rgb(146,146,146)" stroke="none" d="M 17695,16605 L 17695,16724 17814,16724 17814,16605 17695,16605 Z M 17705,16615 L 17804,16615 17804,16714 17705,16714 17705,16615 Z M 17465,17940 L 17465,16680 18434,16120 18434,17380 17465,17940 Z"/>
     <path fill="rgb(147,147,147)" stroke="none" d="M 17705,16615 L 17705,16714 17804,16714 17804,16615 17705,16615 Z M 17715,16625 L 17794,16625 17794,16704 17715,16704 17715,16625 Z M 17465,17940 L 17465,16680 18434,16120 18434,17380 17465,17940 Z"/>
     <path fill="rgb(148,148,148)" stroke="none" d="M 17715,16625 L 17715,16704 17794,16704 17794,16625 17715,16625 Z M 17725,16635 L 17784,16635 17784,16694 17725,16694 17725,16635 Z M 17465,17940 L 17465,16680 18434,16120 18434,17380 17465,17940 Z"/>
     <path fill="rgb(149,149,149)" stroke="none" d="M 17725,16635 L 17725,16694 17784,16694 17784,16635 17725,16635 Z M 17735,16645 L 17774,16645 17774,16684 17735,16684 17735,16645 Z M 17465,17940 L 17465,16680 18434,16120 18434,17380 17465,17940 Z"/>
     <path fill="rgb(150,150,150)" stroke="none" d="M 17735,16645 L 17735,16684 17774,16684 17774,16645 17735,16645 Z M 17745,16655 L 17764,16655 17764,16674 17745,16674 17745,16655 Z M 17465,17940 L 17465,16680 18434,16120 18434,17380 17465,17940 Z"/>
     <path fill="rgb(153,153,153)" stroke="none" d="M 17745,16655 L 17745,16674 17764,16674 17764,16655 17745,16655 Z M 17465,17940 L 17465,16680 18434,16120 18434,17380 17465,17940 Z"/>
     <path fill="none" stroke="rgb(178,178,178)" id="Drawing_2_0" stroke-width="40" stroke-linejoin="round" d="M 17465,17940 L 17465,16680 18434,16120 18434,17380 17465,17940 Z"/>
    </g>
    <g>
     <defs>
      <linearGradient id="Gradient_363" gradientUnits="userSpaceOnUse" x1="17403" y1="15490" x2="17403" y2="16680">
       <stop offset="0.1" stop-color="rgb(51,51,51)"/>
       <stop offset="1" stop-color="rgb(153,153,153)"/>
      </linearGradient>
     </defs>
     <path fill="url(#Gradient_363)" stroke="rgb(178,178,178)" id="Drawing_3_0" stroke-width="40" stroke-linejoin="round" d="M 17464,16680 L 16372,16050 17343,15490 18434,16120 17464,16680 Z"/>
    </g>
    <g>
     <path fill="rgb(51,51,51)" stroke="none" d="M 17586,17817 L 17586,16610 17707,16540 17707,17817 17586,17817 Z"/>
     <path fill="rgb(52,52,52)" stroke="none" d="M 17707,17817 L 17707,18080 17586,18150 17586,17817 17707,17817 Z M 17586,17807 L 17586,16610 17707,16540 17707,17807 17586,17807 Z"/>
     <path fill="rgb(53,53,53)" stroke="none" d="M 17707,17807 L 17707,18080 17586,18150 17586,17807 17707,17807 Z M 17586,17797 L 17586,16610 17707,16540 17707,17797 17586,17797 Z"/>
     <path fill="rgb(54,54,54)" stroke="none" d="M 17707,17797 L 17707,18080 17586,18150 17586,17797 17707,17797 Z M 17586,17787 L 17586,16610 17707,16540 17707,17787 17586,17787 Z"/>
     <path fill="rgb(56,56,56)" stroke="none" d="M 17707,17787 L 17707,18080 17586,18150 17586,17787 17707,17787 Z M 17586,17777 L 17586,16610 17707,16540 17707,17777 17586,17777 Z"/>
     <path fill="rgb(57,57,57)" stroke="none" d="M 17707,17777 L 17707,18080 17586,18150 17586,17777 17707,17777 Z M 17586,17767 L 17586,16610 17707,16540 17707,17767 17586,17767 Z"/>
     <path fill="rgb(58,58,58)" stroke="none" d="M 17707,17767 L 17707,18080 17586,18150 17586,17767 17707,17767 Z M 17586,17757 L 17586,16610 17707,16540 17707,17757 17586,17757 Z"/>
     <path fill="rgb(59,59,59)" stroke="none" d="M 17707,17757 L 17707,18080 17586,18150 17586,17757 17707,17757 Z M 17586,17747 L 17586,16610 17707,16540 17707,17747 17586,17747 Z"/>
     <path fill="rgb(61,61,61)" stroke="none" d="M 17707,17747 L 17707,18080 17586,18150 17586,17747 17707,17747 Z M 17586,17737 L 17586,16610 17707,16540 17707,17737 17586,17737 Z"/>
     <path fill="rgb(62,62,62)" stroke="none" d="M 17707,17737 L 17707,18080 17586,18150 17586,17737 17707,17737 Z M 17586,17727 L 17586,16610 17707,16540 17707,17727 17586,17727 Z"/>
     <path fill="rgb(63,63,63)" stroke="none" d="M 17707,17727 L 17707,18080 17586,18150 17586,17727 17707,17727 Z M 17586,17717 L 17586,16610 17707,16540 17707,17717 17586,17717 Z"/>
     <path fill="rgb(65,65,65)" stroke="none" d="M 17707,17717 L 17707,18080 17586,18150 17586,17717 17707,17717 Z M 17586,17707 L 17586,16610 17707,16540 17707,17707 17586,17707 Z"/>
     <path fill="rgb(66,66,66)" stroke="none" d="M 17707,17707 L 17707,18080 17586,18150 17586,17707 17707,17707 Z M 17586,17696 L 17586,16610 17707,16540 17707,17696 17586,17696 Z"/>
     <path fill="rgb(67,67,67)" stroke="none" d="M 17707,17696 L 17707,18080 17586,18150 17586,17696 17707,17696 Z M 17586,17686 L 17586,16610 17707,16540 17707,17686 17586,17686 Z"/>
     <path fill="rgb(68,68,68)" stroke="none" d="M 17707,17686 L 17707,18080 17586,18150 17586,17686 17707,17686 Z M 17586,17676 L 17586,16610 17707,16540 17707,17676 17586,17676 Z"/>
     <path fill="rgb(70,70,70)" stroke="none" d="M 17707,17676 L 17707,18080 17586,18150 17586,17676 17707,17676 Z M 17586,17666 L 17586,16610 17707,16540 17707,17666 17586,17666 Z"/>
     <path fill="rgb(71,71,71)" stroke="none" d="M 17707,17666 L 17707,18080 17586,18150 17586,17666 17707,17666 Z M 17586,17656 L 17586,16610 17707,16540 17707,17656 17586,17656 Z"/>
     <path fill="rgb(72,72,72)" stroke="none" d="M 17707,17656 L 17707,18080 17586,18150 17586,17656 17707,17656 Z M 17586,17646 L 17586,16610 17707,16540 17707,17646 17586,17646 Z"/>
     <path fill="rgb(73,73,73)" stroke="none" d="M 17707,17646 L 17707,18080 17586,18150 17586,17646 17707,17646 Z M 17586,17636 L 17586,16610 17707,16540 17707,17636 17586,17636 Z"/>
     <path fill="rgb(75,75,75)" stroke="none" d="M 17707,17636 L 17707,18080 17586,18150 17586,17636 17707,17636 Z M 17586,17626 L 17586,16610 17707,16540 17707,17626 17586,17626 Z"/>
     <path fill="rgb(76,76,76)" stroke="none" d="M 17707,17626 L 17707,18080 17586,18150 17586,17626 17707,17626 Z M 17586,17616 L 17586,16610 17707,16540 17707,17616 17586,17616 Z"/>
     <path fill="rgb(77,77,77)" stroke="none" d="M 17707,17616 L 17707,18080 17586,18150 17586,17616 17707,17616 Z M 17586,17606 L 17586,16610 17707,16540 17707,17606 17586,17606 Z"/>
     <path fill="rgb(79,79,79)" stroke="none" d="M 17707,17606 L 17707,18080 17586,18150 17586,17606 17707,17606 Z M 17586,17596 L 17586,16610 17707,16540 17707,17596 17586,17596 Z"/>
     <path fill="rgb(80,80,80)" stroke="none" d="M 17707,17596 L 17707,18080 17586,18150 17586,17596 17707,17596 Z M 17586,17586 L 17586,16610 17707,16540 17707,17586 17586,17586 Z"/>
     <path fill="rgb(81,81,81)" stroke="none" d="M 17707,17586 L 17707,18080 17586,18150 17586,17586 17707,17586 Z M 17586,17575 L 17586,16610 17707,16540 17707,17575 17586,17575 Z"/>
     <path fill="rgb(82,82,82)" stroke="none" d="M 17707,17575 L 17707,18080 17586,18150 17586,17575 17707,17575 Z M 17586,17565 L 17586,16610 17707,16540 17707,17565 17586,17565 Z"/>
     <path fill="rgb(84,84,84)" stroke="none" d="M 17707,17565 L 17707,18080 17586,18150 17586,17565 17707,17565 Z M 17586,17555 L 17586,16610 17707,16540 17707,17555 17586,17555 Z"/>
     <path fill="rgb(85,85,85)" stroke="none" d="M 17707,17555 L 17707,18080 17586,18150 17586,17555 17707,17555 Z M 17586,17545 L 17586,16610 17707,16540 17707,17545 17586,17545 Z"/>
     <path fill="rgb(86,86,86)" stroke="none" d="M 17707,17545 L 17707,18080 17586,18150 17586,17545 17707,17545 Z M 17586,17535 L 17586,16610 17707,16540 17707,17535 17586,17535 Z"/>
     <path fill="rgb(87,87,87)" stroke="none" d="M 17707,17535 L 17707,18080 17586,18150 17586,17535 17707,17535 Z M 17586,17525 L 17586,16610 17707,16540 17707,17525 17586,17525 Z"/>
     <path fill="rgb(89,89,89)" stroke="none" d="M 17707,17525 L 17707,18080 17586,18150 17586,17525 17707,17525 Z M 17586,17515 L 17586,16610 17707,16540 17707,17515 17586,17515 Z"/>
     <path fill="rgb(90,90,90)" stroke="none" d="M 17707,17515 L 17707,18080 17586,18150 17586,17515 17707,17515 Z M 17586,17505 L 17586,16610 17707,16540 17707,17505 17586,17505 Z"/>
     <path fill="rgb(91,91,91)" stroke="none" d="M 17707,17505 L 17707,18080 17586,18150 17586,17505 17707,17505 Z M 17707,16548 L 17707,17495 17586,17495 17586,16610 17693,16548 17707,16548 Z"/>
     <path fill="rgb(93,93,93)" stroke="none" d="M 17707,17495 L 17707,18080 17586,18150 17586,17495 17707,17495 Z M 17693,16548 L 17707,16540 17707,16548 17693,16548 Z M 17707,16558 L 17707,17485 17586,17485 17586,16610 17676,16558 17707,16558 Z"/>
     <path fill="rgb(94,94,94)" stroke="none" d="M 17707,17485 L 17707,18080 17586,18150 17586,17485 17707,17485 Z M 17676,16558 L 17707,16540 17707,16558 17676,16558 Z M 17707,16568 L 17707,17475 17586,17475 17586,16610 17659,16568 17707,16568 Z"/>
     <path fill="rgb(95,95,95)" stroke="none" d="M 17707,17475 L 17707,18080 17586,18150 17586,17475 17707,17475 Z M 17659,16568 L 17707,16540 17707,16568 17659,16568 Z M 17707,16578 L 17707,17465 17586,17465 17586,16610 17641,16578 17707,16578 Z"/>
     <path fill="rgb(96,96,96)" stroke="none" d="M 17707,17465 L 17707,18080 17586,18150 17586,17465 17707,17465 Z M 17641,16578 L 17707,16540 17707,16578 17641,16578 Z M 17707,16589 L 17707,17454 17586,17454 17586,16610 17622,16589 17707,16589 Z"/>
     <path fill="rgb(98,98,98)" stroke="none" d="M 17707,17454 L 17707,18080 17586,18150 17586,17454 17707,17454 Z M 17622,16589 L 17707,16540 17707,16589 17622,16589 Z M 17707,16599 L 17707,17444 17586,17444 17586,16610 17605,16599 17707,16599 Z"/>
     <path fill="rgb(99,99,99)" stroke="none" d="M 17707,17444 L 17707,18080 17586,18150 17586,17444 17707,17444 Z M 17605,16599 L 17707,16540 17707,16599 17605,16599 Z M 17707,16609 L 17707,17434 17586,17434 17586,16610 17588,16609 17707,16609 Z"/>
     <path fill="rgb(100,100,100)" stroke="none" d="M 17707,17434 L 17707,18080 17586,18150 17586,17434 17707,17434 Z M 17588,16609 L 17707,16540 17707,16609 17588,16609 Z M 17707,16619 L 17707,17424 17586,17424 17586,16619 17707,16619 Z"/>
     <path fill="rgb(102,102,102)" stroke="none" d="M 17707,17424 L 17707,18080 17586,18150 17586,17424 17707,17424 Z M 17586,16619 L 17586,16610 17707,16540 17707,16619 17586,16619 Z M 17707,16629 L 17707,17414 17586,17414 17586,16629 17707,16629 Z"/>
     <path fill="rgb(103,103,103)" stroke="none" d="M 17707,17414 L 17707,18080 17586,18150 17586,17414 17707,17414 Z M 17586,16629 L 17586,16610 17707,16540 17707,16629 17586,16629 Z M 17707,16639 L 17707,17404 17586,17404 17586,16639 17707,16639 Z"/>
     <path fill="rgb(104,104,104)" stroke="none" d="M 17707,17404 L 17707,18080 17586,18150 17586,17404 17707,17404 Z M 17586,16639 L 17586,16610 17707,16540 17707,16639 17586,16639 Z M 17707,16649 L 17707,17394 17586,17394 17586,16649 17707,16649 Z"/>
     <path fill="rgb(105,105,105)" stroke="none" d="M 17707,17394 L 17707,18080 17586,18150 17586,17394 17707,17394 Z M 17586,16649 L 17586,16610 17707,16540 17707,16649 17586,16649 Z M 17707,16659 L 17707,17384 17586,17384 17586,16659 17707,16659 Z"/>
     <path fill="rgb(107,107,107)" stroke="none" d="M 17707,17384 L 17707,18080 17586,18150 17586,17384 17707,17384 Z M 17586,16659 L 17586,16610 17707,16540 17707,16659 17586,16659 Z M 17707,16669 L 17707,17374 17586,17374 17586,16669 17707,16669 Z"/>
     <path fill="rgb(108,108,108)" stroke="none" d="M 17707,17374 L 17707,18080 17586,18150 17586,17374 17707,17374 Z M 17586,16669 L 17586,16610 17707,16540 17707,16669 17586,16669 Z M 17707,16679 L 17707,17364 17586,17364 17586,16679 17707,16679 Z"/>
     <path fill="rgb(109,109,109)" stroke="none" d="M 17707,17364 L 17707,18080 17586,18150 17586,17364 17707,17364 Z M 17586,16679 L 17586,16610 17707,16540 17707,16679 17586,16679 Z M 17707,16689 L 17707,17354 17586,17354 17586,16689 17707,16689 Z"/>
     <path fill="rgb(110,110,110)" stroke="none" d="M 17707,17354 L 17707,18080 17586,18150 17586,17354 17707,17354 Z M 17586,16689 L 17586,16610 17707,16540 17707,16689 17586,16689 Z M 17707,16699 L 17707,17344 17586,17344 17586,16699 17707,16699 Z"/>
     <path fill="rgb(112,112,112)" stroke="none" d="M 17707,17344 L 17707,18080 17586,18150 17586,17344 17707,17344 Z M 17586,16699 L 17586,16610 17707,16540 17707,16699 17586,16699 Z M 17707,16709 L 17707,17334 17586,17334 17586,16709 17707,16709 Z"/>
     <path fill="rgb(113,113,113)" stroke="none" d="M 17707,17334 L 17707,18080 17586,18150 17586,17334 17707,17334 Z M 17586,16709 L 17586,16610 17707,16540 17707,16709 17586,16709 Z M 17707,16720 L 17707,17323 17586,17323 17586,16720 17707,16720 Z"/>
     <path fill="rgb(114,114,114)" stroke="none" d="M 17707,17323 L 17707,18080 17586,18150 17586,17323 17707,17323 Z M 17586,16720 L 17586,16610 17707,16540 17707,16720 17586,16720 Z M 17707,16730 L 17707,17313 17586,17313 17586,16730 17707,16730 Z"/>
     <path fill="rgb(116,116,116)" stroke="none" d="M 17707,17313 L 17707,18080 17586,18150 17586,17313 17707,17313 Z M 17586,16730 L 17586,16610 17707,16540 17707,16730 17586,16730 Z M 17707,16740 L 17707,17303 17586,17303 17586,16740 17707,16740 Z"/>
     <path fill="rgb(117,117,117)" stroke="none" d="M 17707,17303 L 17707,18080 17586,18150 17586,17303 17707,17303 Z M 17586,16740 L 17586,16610 17707,16540 17707,16740 17586,16740 Z M 17707,16750 L 17707,17293 17586,17293 17586,16750 17707,16750 Z"/>
     <path fill="rgb(118,118,118)" stroke="none" d="M 17707,17293 L 17707,18080 17586,18150 17586,17293 17707,17293 Z M 17586,16750 L 17586,16610 17707,16540 17707,16750 17586,16750 Z M 17707,16760 L 17707,17283 17586,17283 17586,16760 17707,16760 Z"/>
     <path fill="rgb(119,119,119)" stroke="none" d="M 17707,17283 L 17707,18080 17586,18150 17586,17283 17707,17283 Z M 17586,16760 L 17586,16610 17707,16540 17707,16760 17586,16760 Z M 17707,16770 L 17707,17273 17586,17273 17586,16770 17707,16770 Z"/>
     <path fill="rgb(121,121,121)" stroke="none" d="M 17707,17273 L 17707,18080 17586,18150 17586,17273 17707,17273 Z M 17586,16770 L 17586,16610 17707,16540 17707,16770 17586,16770 Z M 17707,16780 L 17707,17263 17586,17263 17586,16780 17707,16780 Z"/>
     <path fill="rgb(122,122,122)" stroke="none" d="M 17707,17263 L 17707,18080 17586,18150 17586,17263 17707,17263 Z M 17586,16780 L 17586,16610 17707,16540 17707,16780 17586,16780 Z M 17707,16790 L 17707,17253 17586,17253 17586,16790 17707,16790 Z"/>
     <path fill="rgb(123,123,123)" stroke="none" d="M 17707,17253 L 17707,18080 17586,18150 17586,17253 17707,17253 Z M 17586,16790 L 17586,16610 17707,16540 17707,16790 17586,16790 Z M 17707,16800 L 17707,17243 17586,17243 17586,16800 17707,16800 Z"/>
     <path fill="rgb(124,124,124)" stroke="none" d="M 17707,17243 L 17707,18080 17586,18150 17586,17243 17707,17243 Z M 17586,16800 L 17586,16610 17707,16540 17707,16800 17586,16800 Z M 17707,16810 L 17707,17233 17586,17233 17586,16810 17707,16810 Z"/>
     <path fill="rgb(126,126,126)" stroke="none" d="M 17707,17233 L 17707,18080 17586,18150 17586,17233 17707,17233 Z M 17586,16810 L 17586,16610 17707,16540 17707,16810 17586,16810 Z M 17707,16820 L 17707,17223 17586,17223 17586,16820 17707,16820 Z"/>
     <path fill="rgb(127,127,127)" stroke="none" d="M 17707,17223 L 17707,18080 17586,18150 17586,17223 17707,17223 Z M 17586,16820 L 17586,16610 17707,16540 17707,16820 17586,16820 Z M 17707,16830 L 17707,17213 17586,17213 17586,16830 17707,16830 Z"/>
     <path fill="rgb(128,128,128)" stroke="none" d="M 17707,17213 L 17707,18080 17586,18150 17586,17213 17707,17213 Z M 17586,16830 L 17586,16610 17707,16540 17707,16830 17586,16830 Z M 17707,16841 L 17707,17202 17586,17202 17586,16841 17707,16841 Z"/>
     <path fill="rgb(130,130,130)" stroke="none" d="M 17707,17202 L 17707,18080 17586,18150 17586,17202 17707,17202 Z M 17586,16841 L 17586,16610 17707,16540 17707,16841 17586,16841 Z M 17707,16851 L 17707,17192 17586,17192 17586,16851 17707,16851 Z"/>
     <path fill="rgb(131,131,131)" stroke="none" d="M 17707,17192 L 17707,18080 17586,18150 17586,17192 17707,17192 Z M 17586,16851 L 17586,16610 17707,16540 17707,16851 17586,16851 Z M 17707,16861 L 17707,17182 17586,17182 17586,16861 17707,16861 Z"/>
     <path fill="rgb(132,132,132)" stroke="none" d="M 17707,17182 L 17707,18080 17586,18150 17586,17182 17707,17182 Z M 17586,16861 L 17586,16610 17707,16540 17707,16861 17586,16861 Z M 17707,16871 L 17707,17172 17586,17172 17586,16871 17707,16871 Z"/>
     <path fill="rgb(133,133,133)" stroke="none" d="M 17707,17172 L 17707,18080 17586,18150 17586,17172 17707,17172 Z M 17586,16871 L 17586,16610 17707,16540 17707,16871 17586,16871 Z M 17707,16881 L 17707,17162 17586,17162 17586,16881 17707,16881 Z"/>
     <path fill="rgb(135,135,135)" stroke="none" d="M 17707,17162 L 17707,18080 17586,18150 17586,17162 17707,17162 Z M 17586,16881 L 17586,16610 17707,16540 17707,16881 17586,16881 Z M 17707,16891 L 17707,17152 17586,17152 17586,16891 17707,16891 Z"/>
     <path fill="rgb(136,136,136)" stroke="none" d="M 17707,17152 L 17707,18080 17586,18150 17586,17152 17707,17152 Z M 17586,16891 L 17586,16610 17707,16540 17707,16891 17586,16891 Z M 17707,16901 L 17707,17142 17586,17142 17586,16901 17707,16901 Z"/>
     <path fill="rgb(137,137,137)" stroke="none" d="M 17707,17142 L 17707,18080 17586,18150 17586,17142 17707,17142 Z M 17586,16901 L 17586,16610 17707,16540 17707,16901 17586,16901 Z M 17707,16911 L 17707,17132 17586,17132 17586,16911 17707,16911 Z"/>
     <path fill="rgb(138,138,138)" stroke="none" d="M 17707,17132 L 17707,18080 17586,18150 17586,17132 17707,17132 Z M 17586,16911 L 17586,16610 17707,16540 17707,16911 17586,16911 Z M 17707,16921 L 17707,17122 17586,17122 17586,16921 17707,16921 Z"/>
     <path fill="rgb(140,140,140)" stroke="none" d="M 17707,17122 L 17707,18080 17586,18150 17586,17122 17707,17122 Z M 17586,16921 L 17586,16610 17707,16540 17707,16921 17586,16921 Z M 17707,16931 L 17707,17112 17586,17112 17586,16931 17707,16931 Z"/>
     <path fill="rgb(141,141,141)" stroke="none" d="M 17707,17112 L 17707,18080 17586,18150 17586,17112 17707,17112 Z M 17586,16931 L 17586,16610 17707,16540 17707,16931 17586,16931 Z M 17702,16941 L 17702,17102 17586,17102 17586,16941 17702,16941 Z"/>
     <path fill="rgb(142,142,142)" stroke="none" d="M 17702,17102 L 17702,16941 17586,16941 17586,16610 17707,16540 17707,18080 17586,18150 17586,17102 17702,17102 Z M 17692,16951 L 17692,17092 17586,17092 17586,16951 17692,16951 Z"/>
     <path fill="rgb(144,144,144)" stroke="none" d="M 17692,17092 L 17692,16951 17586,16951 17586,16610 17707,16540 17707,18080 17586,18150 17586,17092 17692,17092 Z M 17681,16962 L 17681,17081 17586,17081 17586,16962 17681,16962 Z"/>
     <path fill="rgb(145,145,145)" stroke="none" d="M 17681,17081 L 17681,16962 17586,16962 17586,16610 17707,16540 17707,18080 17586,18150 17586,17081 17681,17081 Z M 17671,16972 L 17671,17071 17586,17071 17586,16972 17671,16972 Z"/>
     <path fill="rgb(146,146,146)" stroke="none" d="M 17671,17071 L 17671,16972 17586,16972 17586,16610 17707,16540 17707,18080 17586,18150 17586,17071 17671,17071 Z M 17661,16982 L 17661,17061 17586,17061 17586,16982 17661,16982 Z"/>
     <path fill="rgb(147,147,147)" stroke="none" d="M 17661,17061 L 17661,16982 17586,16982 17586,16610 17707,16540 17707,18080 17586,18150 17586,17061 17661,17061 Z M 17592,16992 L 17651,16992 17651,17051 17592,17051 17592,16992 Z"/>
     <path fill="rgb(149,149,149)" stroke="none" d="M 17592,16992 L 17592,17051 17651,17051 17651,16992 17592,16992 Z M 17602,17002 L 17641,17002 17641,17041 17602,17041 17602,17002 Z M 17586,18150 L 17586,16610 17707,16540 17707,18080 17586,18150 Z"/>
     <path fill="rgb(150,150,150)" stroke="none" d="M 17602,17002 L 17602,17041 17641,17041 17641,17002 17602,17002 Z M 17612,17012 L 17631,17012 17631,17031 17612,17031 17612,17012 Z M 17586,18150 L 17586,16610 17707,16540 17707,18080 17586,18150 Z"/>
     <path fill="rgb(153,153,153)" stroke="none" d="M 17612,17012 L 17612,17031 17631,17031 17631,17012 17612,17012 Z M 17586,18150 L 17586,16610 17707,16540 17707,18080 17586,18150 Z"/>
     <path fill="none" stroke="rgb(178,178,178)" id="Drawing_4_0" stroke-width="40" stroke-linejoin="round" d="M 17586,18150 L 17586,16610 17707,16540 17707,18080 17586,18150 Z"/>
    </g>
    <g>
     <defs>
      <linearGradient id="Gradient_364" gradientUnits="userSpaceOnUse" x1="16250" y1="16994" x2="17588" y2="16996">
       <stop offset="0.1" stop-color="rgb(51,51,51)"/>
       <stop offset="1" stop-color="rgb(153,153,153)"/>
      </linearGradient>
     </defs>
     <path fill="url(#Gradient_364)" stroke="rgb(178,178,178)" id="Drawing_5_0" stroke-width="40" stroke-linejoin="round" d="M 16252,17380 L 16252,15840 17586,16610 17586,18150 16252,17380 Z"/>
    </g>
    <g>
     <defs>
      <linearGradient id="Gradient_365" gradientUnits="userSpaceOnUse" x1="16979" y1="15770" x2="16979" y2="16610">
       <stop offset="0.1" stop-color="rgb(51,51,51)"/>
       <stop offset="1" stop-color="rgb(153,153,153)"/>
      </linearGradient>
     </defs>
     <path fill="url(#Gradient_365)" stroke="rgb(178,178,178)" id="Drawing_6_0" stroke-width="40" stroke-linejoin="round" d="M 17586,16610 L 16251,15840 16373,15770 17707,16540 17586,16610 Z"/>
    </g>
    <g>
     <path fill="rgb(255,255,255)" stroke="none" d="M 16858,17590 L 16858,17450 16979,17520 16979,17660 16858,17590 Z"/>
     <path fill="none" stroke="rgb(178,178,178)" id="Drawing_7_0" stroke-width="40" stroke-linejoin="round" d="M 16858,17590 L 16858,17450 16979,17520 16979,17660 16858,17590 Z"/>
    </g>
    <g>
     <path fill="none" stroke="rgb(0,0,0)" id="Drawing_8_0" stroke-width="40" stroke-linejoin="round" d="M 16252,17380 L 16252,15840 16374,15770 16616,15910 17343,15490 18434,16120 18434,17380 17707,17800 17707,18080 17586,18150 16252,17380 Z"/>
    </g>
    <g>
     <defs>
      <linearGradient id="Gradient_366" gradientUnits="userSpaceOnUse" x1="16372" y1="16889" x2="17466" y2="16891">
       <stop offset="0.1" stop-color="rgb(147,212,240)"/>
       <stop offset="1" stop-color="rgb(233,246,252)"/>
      </linearGradient>
     </defs>
     <path fill="url(#Gradient_366)" stroke="rgb(51,51,51)" id="Drawing_9_0" stroke-width="40" stroke-linejoin="round" d="M 16373,17030 L 16374,16120 17464,16750 17465,17660 16373,17030 Z"/>
    </g>
    <g>
     <path fill="rgb(255,255,255)" stroke="none" d="M 17100,17730 L 17100,17590 17221,17660 17221,17800 17100,17730 Z"/>
     <path fill="none" stroke="rgb(178,178,178)" id="Drawing_10_0" stroke-width="40" stroke-linejoin="round" d="M 17100,17730 L 17100,17590 17221,17660 17221,17800 17100,17730 Z"/>
    </g>
    <g>
     <path fill="rgb(255,255,255)" stroke="none" d="M 17343,17870 L 17343,17730 17464,17800 17464,17940 17343,17870 Z"/>
     <path fill="none" stroke="rgb(178,178,178)" id="Drawing_11_0" stroke-width="40" stroke-linejoin="round" d="M 17343,17870 L 17343,17730 17464,17800 17464,17940 17343,17870 Z"/>
    </g>
    <g>
     <path fill="rgb(255,255,255)" stroke="none" d="M 16616,17450 L 16616,17310 16737,17380 16737,17520 16616,17450 Z"/>
     <path fill="none" stroke="rgb(178,178,178)" id="Drawing_12_0" stroke-width="40" stroke-linejoin="round" d="M 16616,17450 L 16616,17310 16737,17380 16737,17520 16616,17450 Z"/>
    </g>
   </g>
  </g>
 </g>
</svg>