<?xml version="1.0" encoding="UTF-8"?>

<svg version="1.2" baseProfile="tiny" width="40.51mm" height="45.2mm" viewBox="2236 2918 4051 4520" preserveAspectRatio="xMidYMid" fill-rule="evenodd" stroke-width="28.222" stroke-linejoin="round" xmlns="http://www.w3.org/2000/svg" xmlns:xlink="http://www.w3.org/1999/xlink" xml:space="preserve">
 <g visibility="visible" id="Slide_1">
  <g id="DrawingGroup_1">
   <g>
    <path fill="rgb(221,221,221)" stroke="none" d="M 4440,7138 C 4915,7138 6138,6648 6259,6438 6380,6228 6068,5948 5895,5948 5895,6248 4440,6737 4440,7138 Z"/>
    <path fill="none" stroke="rgb(221,221,221)" id="Drawing_1_0" stroke-linejoin="round" d="M 4440,7138 C 4915,7138 6138,6648 6259,6438 6380,6228 6068,5948 5895,5948 5895,6248 4440,6737 4440,7138 Z"/>
   </g>
   <g id="DrawingGroup_2">
    <g>
     <path fill="rgb(179,179,179)" stroke="none" d="M 4199,6531 L 4199,4968 5895,3988 5895,6228 5371,6531 4199,6531 Z"/>
     <path fill="rgb(180,180,180)" stroke="none" d="M 5371,6531 L 4199,7208 4199,6531 5371,6531 Z M 4199,6499 L 4199,4968 5895,3988 5895,6228 5426,6499 4199,6499 Z"/>
     <path fill="rgb(181,181,181)" stroke="none" d="M 5426,6499 L 4199,7208 4199,6499 5426,6499 Z M 4199,6467 L 4199,4968 5895,3988 5895,6228 5481,6467 4199,6467 Z"/>
     <path fill="rgb(182,182,182)" stroke="none" d="M 5481,6467 L 4199,7208 4199,6467 5481,6467 Z M 4199,6435 L 4199,4968 5895,3988 5895,6228 5537,6435 4199,6435 Z"/>
     <path fill="rgb(183,183,183)" stroke="none" d="M 5537,6435 L 4199,7208 4199,6435 5537,6435 Z M 4199,6402 L 4199,4968 5895,3988 5895,6228 5594,6402 4199,6402 Z"/>
     <path fill="rgb(184,184,184)" stroke="none" d="M 5594,6402 L 4199,7208 4199,6402 5594,6402 Z M 4199,6370 L 4199,4968 5895,3988 5895,6228 5649,6370 4199,6370 Z"/>
     <path fill="rgb(185,185,185)" stroke="none" d="M 5649,6370 L 4199,7208 4199,6370 5649,6370 Z M 4199,6338 L 4199,4968 5895,3988 5895,6228 5705,6338 4199,6338 Z"/>
     <path fill="rgb(186,186,186)" stroke="none" d="M 5705,6338 L 4199,7208 4199,6338 5705,6338 Z M 4199,6306 L 4199,4968 5895,3988 5895,6228 5760,6306 4199,6306 Z"/>
     <path fill="rgb(187,187,187)" stroke="none" d="M 5760,6306 L 4199,7208 4199,6306 5760,6306 Z M 4199,6273 L 4199,4968 5895,3988 5895,6228 5817,6273 4199,6273 Z"/>
     <path fill="rgb(188,188,188)" stroke="none" d="M 5817,6273 L 4199,7208 4199,6273 5817,6273 Z M 4199,6241 L 4199,4968 5895,3988 5895,6228 5873,6241 4199,6241 Z"/>
     <path fill="rgb(189,189,189)" stroke="none" d="M 5873,6241 L 4199,7208 4199,6241 5873,6241 Z M 4199,6209 L 4199,4968 5895,3988 5895,6209 4199,6209 Z"/>
     <path fill="rgb(190,190,190)" stroke="none" d="M 5895,6209 L 5895,6228 4199,7208 4199,6209 5895,6209 Z M 4199,6177 L 4199,4968 5895,3988 5895,6177 4199,6177 Z"/>
     <path fill="rgb(191,191,191)" stroke="none" d="M 5895,6177 L 5895,6228 4199,7208 4199,6177 5895,6177 Z M 4199,6145 L 4199,4968 5895,3988 5895,6145 4199,6145 Z"/>
     <path fill="rgb(192,192,192)" stroke="none" d="M 5895,6145 L 5895,6228 4199,7208 4199,6145 5895,6145 Z M 5866,6112 L 4199,6112 4199,4968 5866,4005 5866,6112 Z"/>
     <path fill="rgb(193,193,193)" stroke="none" d="M 5866,6112 L 5866,4005 5895,3988 5895,6228 4199,7208 4199,6112 5866,6112 Z M 5834,6080 L 4199,6080 4199,4968 5834,4023 5834,6080 Z"/>
     <path fill="rgb(194,194,194)" stroke="none" d="M 5834,6080 L 5834,4023 5895,3988 5895,6228 4199,7208 4199,6080 5834,6080 Z M 5802,6048 L 4199,6048 4199,4968 5802,4042 5802,6048 Z"/>
     <path fill="rgb(195,195,195)" stroke="none" d="M 5802,6048 L 5802,4042 5895,3988 5895,6228 4199,7208 4199,6048 5802,6048 Z M 5770,6016 L 4199,6016 4199,4968 5770,4060 5770,6016 Z"/>
     <path fill="rgb(196,196,196)" stroke="none" d="M 5770,6016 L 5770,4060 5895,3988 5895,6228 4199,7208 4199,6016 5770,6016 Z M 5737,5983 L 4199,5983 4199,4968 5737,4079 5737,5983 Z"/>
     <path fill="rgb(197,197,197)" stroke="none" d="M 5737,5983 L 5737,4079 5895,3988 5895,6228 4199,7208 4199,5983 5737,5983 Z M 5705,5951 L 4199,5951 4199,4968 5705,4098 5705,5951 Z"/>
     <path fill="rgb(198,198,198)" stroke="none" d="M 5705,5951 L 5705,4098 5895,3988 5895,6228 4199,7208 4199,5951 5705,5951 Z M 5673,5919 L 4199,5919 4199,4968 5673,4116 5673,5919 Z"/>
     <path fill="rgb(199,199,199)" stroke="none" d="M 5673,5919 L 5673,4116 5895,3988 5895,6228 4199,7208 4199,5919 5673,5919 Z M 5641,5887 L 4199,5887 4199,4968 5641,4135 5641,5887 Z"/>
     <path fill="rgb(200,200,200)" stroke="none" d="M 5641,5887 L 5641,4135 5895,3988 5895,6228 4199,7208 4199,5887 5641,5887 Z M 5608,5854 L 4199,5854 4199,4968 5608,4154 5608,5854 Z"/>
     <path fill="rgb(201,201,201)" stroke="none" d="M 5608,5854 L 5608,4154 5895,3988 5895,6228 4199,7208 4199,5854 5608,5854 Z M 5576,5822 L 4199,5822 4199,4968 5576,4172 5576,5822 Z"/>
     <path fill="rgb(202,202,202)" stroke="none" d="M 5576,5822 L 5576,4172 5895,3988 5895,6228 4199,7208 4199,5822 5576,5822 Z M 5544,5790 L 4199,5790 4199,4968 5544,4191 5544,5790 Z"/>
     <path fill="rgb(203,203,203)" stroke="none" d="M 5544,5790 L 5544,4191 5895,3988 5895,6228 4199,7208 4199,5790 5544,5790 Z M 5512,5758 L 4199,5758 4199,4968 5512,4209 5512,5758 Z"/>
     <path fill="rgb(204,204,204)" stroke="none" d="M 5512,5758 L 5512,4209 5895,3988 5895,6228 4199,7208 4199,5758 5512,5758 Z M 5480,5726 L 4199,5726 4199,4968 5480,4228 5480,5726 Z"/>
     <path fill="rgb(205,205,205)" stroke="none" d="M 5480,5726 L 5480,4228 5895,3988 5895,6228 4199,7208 4199,5726 5480,5726 Z M 5447,5693 L 4199,5693 4199,4968 5447,4247 5447,5693 Z"/>
     <path fill="rgb(206,206,206)" stroke="none" d="M 5447,5693 L 5447,4247 5895,3988 5895,6228 4199,7208 4199,5693 5447,5693 Z M 5415,5661 L 4199,5661 4199,4968 5415,4265 5415,5661 Z"/>
     <path fill="rgb(207,207,207)" stroke="none" d="M 5415,5661 L 5415,4265 5895,3988 5895,6228 4199,7208 4199,5661 5415,5661 Z M 5383,5629 L 4199,5629 4199,4968 5383,4284 5383,5629 Z"/>
     <path fill="rgb(208,208,208)" stroke="none" d="M 5383,5629 L 5383,4284 5895,3988 5895,6228 4199,7208 4199,5629 5383,5629 Z M 5351,4308 L 5351,5597 4199,5597 4199,4968 5341,4308 5351,4308 Z"/>
     <path fill="rgb(209,209,209)" stroke="none" d="M 5351,5597 L 5351,4308 5341,4308 5895,3988 5895,6228 4199,7208 4199,5597 5351,5597 Z M 5318,4341 L 5318,5564 4199,5564 4199,4968 5284,4341 5318,4341 Z"/>
     <path fill="rgb(210,210,210)" stroke="none" d="M 5318,5564 L 5318,4341 5284,4341 5895,3988 5895,6228 4199,7208 4199,5564 5318,5564 Z M 5286,4373 L 5286,5532 4199,5532 4199,4968 5229,4373 5286,4373 Z"/>
     <path fill="rgb(211,211,211)" stroke="none" d="M 5286,5532 L 5286,4373 5229,4373 5895,3988 5895,6228 4199,7208 4199,5532 5286,5532 Z M 5254,4405 L 5254,5500 4199,5500 4199,4968 5173,4405 5254,4405 Z"/>
     <path fill="rgb(212,212,212)" stroke="none" d="M 5254,5500 L 5254,4405 5173,4405 5895,3988 5895,6228 4199,7208 4199,5500 5254,5500 Z M 5222,4437 L 5222,5468 4199,5468 4199,4968 5118,4437 5222,4437 Z"/>
     <path fill="rgb(213,213,213)" stroke="none" d="M 5222,5468 L 5222,4437 5118,4437 5895,3988 5895,6228 4199,7208 4199,5468 5222,5468 Z M 5189,4470 L 5189,5435 4224,5435 4224,4954 5061,4470 5189,4470 Z"/>
     <path fill="rgb(214,214,214)" stroke="none" d="M 4224,5435 L 5189,5435 5189,4470 5061,4470 5895,3988 5895,6228 4199,7208 4199,4968 4224,4954 4224,5435 Z M 5157,4502 L 5157,5403 4256,5403 4256,4935 5005,4502 5157,4502 Z"/>
     <path fill="rgb(215,215,215)" stroke="none" d="M 4256,5403 L 5157,5403 5157,4502 5005,4502 5895,3988 5895,6228 4199,7208 4199,4968 4256,4935 4256,5403 Z M 5125,4534 L 5125,5371 4288,5371 4288,4917 4950,4534 5125,4534 Z"/>
     <path fill="rgb(216,216,216)" stroke="none" d="M 4288,5371 L 5125,5371 5125,4534 4950,4534 5895,3988 5895,6228 4199,7208 4199,4968 4288,4917 4288,5371 Z M 5093,4566 L 5093,5339 4320,5339 4320,4898 4895,4566 5093,4566 Z"/>
     <path fill="rgb(217,217,217)" stroke="none" d="M 4320,5339 L 5093,5339 5093,4566 4895,4566 5895,3988 5895,6228 4199,7208 4199,4968 4320,4898 4320,5339 Z M 5061,4598 L 5061,5307 4352,5307 4352,4880 4839,4598 5061,4598 Z"/>
     <path fill="rgb(218,218,218)" stroke="none" d="M 4352,5307 L 5061,5307 5061,4598 4839,4598 5895,3988 5895,6228 4199,7208 4199,4968 4352,4880 4352,5307 Z M 5028,4631 L 5028,5274 4385,5274 4385,4861 4782,4631 5028,4631 Z"/>
     <path fill="rgb(219,219,219)" stroke="none" d="M 4385,5274 L 5028,5274 5028,4631 4782,4631 5895,3988 5895,6228 4199,7208 4199,4968 4385,4861 4385,5274 Z M 4996,4663 L 4996,5242 4417,5242 4417,4842 4727,4663 4996,4663 Z"/>
     <path fill="rgb(220,220,220)" stroke="none" d="M 4417,5242 L 4996,5242 4996,4663 4727,4663 5895,3988 5895,6228 4199,7208 4199,4968 4417,4842 4417,5242 Z M 4964,4695 L 4964,5210 4449,5210 4449,4824 4671,4695 4964,4695 Z"/>
     <path fill="rgb(221,221,221)" stroke="none" d="M 4449,5210 L 4964,5210 4964,4695 4671,4695 5895,3988 5895,6228 4199,7208 4199,4968 4449,4824 4449,5210 Z M 4932,4727 L 4932,5178 4481,5178 4481,4805 4616,4727 4932,4727 Z"/>
     <path fill="rgb(222,222,222)" stroke="none" d="M 4481,5178 L 4932,5178 4932,4727 4616,4727 5895,3988 5895,6228 4199,7208 4199,4968 4481,4805 4481,5178 Z M 4899,4760 L 4899,5145 4514,5145 4514,4786 4559,4760 4899,4760 Z"/>
     <path fill="rgb(223,223,223)" stroke="none" d="M 4514,5145 L 4899,5145 4899,4760 4559,4760 5895,3988 5895,6228 4199,7208 4199,4968 4514,4786 4514,5145 Z M 4546,4792 L 4867,4792 4867,5113 4546,5113 4546,4792 Z"/>
     <path fill="rgb(224,224,224)" stroke="none" d="M 4546,4792 L 4546,5113 4867,5113 4867,4792 4546,4792 Z M 4578,4824 L 4835,4824 4835,5081 4578,5081 4578,4824 Z M 4199,7208 L 4199,4968 5895,3988 5895,6228 4199,7208 Z"/>
     <path fill="rgb(225,225,225)" stroke="none" d="M 4578,4824 L 4578,5081 4835,5081 4835,4824 4578,4824 Z M 4610,4856 L 4803,4856 4803,5049 4610,5049 4610,4856 Z M 4199,7208 L 4199,4968 5895,3988 5895,6228 4199,7208 Z"/>
     <path fill="rgb(226,226,226)" stroke="none" d="M 4610,4856 L 4610,5049 4803,5049 4803,4856 4610,4856 Z M 4643,4889 L 4770,4889 4770,5016 4643,5016 4643,4889 Z M 4199,7208 L 4199,4968 5895,3988 5895,6228 4199,7208 Z"/>
     <path fill="rgb(227,227,227)" stroke="none" d="M 4643,4889 L 4643,5016 4770,5016 4770,4889 4643,4889 Z M 4675,4921 L 4738,4921 4738,4984 4675,4984 4675,4921 Z M 4199,7208 L 4199,4968 5895,3988 5895,6228 4199,7208 Z"/>
     <path fill="rgb(229,229,229)" stroke="none" d="M 4675,4921 L 4675,4984 4738,4984 4738,4921 4675,4921 Z M 4199,7208 L 4199,4968 5895,3988 5895,6228 4199,7208 Z"/>
     <path fill="none" stroke="rgb(255,255,255)" id="Drawing_2_0" stroke-width="40" stroke-linejoin="round" d="M 4199,7208 L 4199,4968 5895,3988 5895,6228 4199,7208 Z"/>
    </g>
    <g>
     <defs>
      <linearGradient id="Gradient_367" gradientUnits="userSpaceOnUse" x1="4137" y1="2938" x2="4137" y2="4968">
       <stop offset="0.1" stop-color="rgb(179,179,179)"/>
       <stop offset="1" stop-color="rgb(229,229,229)"/>
      </linearGradient>
     </defs>
     <path fill="url(#Gradient_367)" stroke="rgb(255,255,255)" id="Drawing_3_0" stroke-width="40" stroke-linejoin="round" d="M 4197,4968 L 2379,3918 4078,2938 5895,3988 4197,4968 Z"/>
    </g>
    <g>
     <path fill="rgb(179,179,179)" stroke="none" d="M 4320,6874 L 4319,4898 4440,4828 4441,6874 4320,6874 Z"/>
     <path fill="rgb(180,180,180)" stroke="none" d="M 4441,6874 L 4441,7348 4320,7418 4320,6874 4441,6874 Z M 4320,6848 L 4319,4898 4440,4828 4441,6848 4320,6848 Z"/>
     <path fill="rgb(181,181,181)" stroke="none" d="M 4441,6848 L 4441,7348 4320,7418 4320,6848 4441,6848 Z M 4320,6822 L 4319,4898 4440,4828 4441,6822 4320,6822 Z"/>
     <path fill="rgb(182,182,182)" stroke="none" d="M 4441,6822 L 4441,7348 4320,7418 4320,6822 4441,6822 Z M 4320,6796 L 4319,4898 4440,4828 4441,6796 4320,6796 Z"/>
     <path fill="rgb(183,183,183)" stroke="none" d="M 4441,6796 L 4441,7348 4320,7418 4320,6796 4441,6796 Z M 4320,6770 L 4319,4898 4440,4828 4441,6770 4320,6770 Z"/>
     <path fill="rgb(184,184,184)" stroke="none" d="M 4441,6770 L 4441,7348 4320,7418 4320,6770 4441,6770 Z M 4320,6744 L 4319,4898 4440,4828 4441,6744 4320,6744 Z"/>
     <path fill="rgb(185,185,185)" stroke="none" d="M 4441,6744 L 4441,7348 4320,7418 4320,6744 4441,6744 Z M 4320,6718 L 4319,4898 4440,4828 4441,6718 4320,6718 Z"/>
     <path fill="rgb(186,186,186)" stroke="none" d="M 4441,6718 L 4441,7348 4320,7418 4320,6718 4441,6718 Z M 4320,6692 L 4319,4898 4440,4828 4441,6692 4320,6692 Z"/>
     <path fill="rgb(187,187,187)" stroke="none" d="M 4441,6692 L 4441,7348 4320,7418 4320,6692 4441,6692 Z M 4320,6666 L 4319,4898 4440,4828 4441,6666 4320,6666 Z"/>
     <path fill="rgb(188,188,188)" stroke="none" d="M 4441,6666 L 4441,7348 4320,7418 4320,6666 4441,6666 Z M 4320,6640 L 4319,4898 4440,4828 4441,6640 4320,6640 Z"/>
     <path fill="rgb(189,189,189)" stroke="none" d="M 4441,6640 L 4441,7348 4320,7418 4320,6640 4441,6640 Z M 4320,6614 L 4319,4898 4440,4828 4441,6614 4320,6614 Z"/>
     <path fill="rgb(190,190,190)" stroke="none" d="M 4441,6614 L 4441,7348 4320,7418 4320,6614 4441,6614 Z M 4320,6588 L 4319,4898 4440,4828 4441,6588 4320,6588 Z"/>
     <path fill="rgb(191,191,191)" stroke="none" d="M 4441,6588 L 4441,7348 4320,7418 4320,6588 4441,6588 Z M 4320,6562 L 4319,4898 4440,4828 4441,6562 4320,6562 Z"/>
     <path fill="rgb(192,192,192)" stroke="none" d="M 4441,6562 L 4441,7348 4320,7418 4320,6562 4441,6562 Z M 4320,6536 L 4319,4898 4440,4828 4441,6536 4320,6536 Z"/>
     <path fill="rgb(193,193,193)" stroke="none" d="M 4441,6536 L 4441,7348 4320,7418 4320,6536 4441,6536 Z M 4320,6511 L 4319,4898 4440,4828 4441,6511 4320,6511 Z"/>
     <path fill="rgb(194,194,194)" stroke="none" d="M 4441,6511 L 4441,7348 4320,7418 4320,6511 4441,6511 Z M 4320,6485 L 4319,4898 4440,4828 4441,6485 4320,6485 Z"/>
     <path fill="rgb(195,195,195)" stroke="none" d="M 4441,6485 L 4441,7348 4320,7418 4320,6485 4441,6485 Z M 4320,6459 L 4319,4898 4440,4828 4441,6459 4320,6459 Z"/>
     <path fill="rgb(196,196,196)" stroke="none" d="M 4441,6459 L 4441,7348 4320,7418 4320,6459 4441,6459 Z M 4320,6433 L 4319,4898 4440,4828 4441,6433 4320,6433 Z"/>
     <path fill="rgb(197,197,197)" stroke="none" d="M 4441,6433 L 4441,7348 4320,7418 4320,6433 4441,6433 Z M 4320,6407 L 4319,4898 4440,4828 4441,6407 4320,6407 Z"/>
     <path fill="rgb(198,198,198)" stroke="none" d="M 4441,6407 L 4441,7348 4320,7418 4320,6407 4441,6407 Z M 4320,6381 L 4319,4898 4440,4828 4441,6381 4320,6381 Z"/>
     <path fill="rgb(199,199,199)" stroke="none" d="M 4441,6381 L 4441,7348 4320,7418 4320,6381 4441,6381 Z M 4440,4852 L 4441,6355 4320,6355 4319,4898 4399,4852 4440,4852 Z"/>
     <path fill="rgb(200,200,200)" stroke="none" d="M 4441,6355 L 4441,7348 4320,7418 4320,6355 4441,6355 Z M 4399,4852 L 4440,4828 4440,4852 4399,4852 Z M 4440,4878 L 4441,6329 4320,6329 4319,4898 4354,4878 4440,4878 Z"/>
     <path fill="rgb(201,201,201)" stroke="none" d="M 4441,6329 L 4441,7348 4320,7418 4320,6329 4441,6329 Z M 4354,4878 L 4440,4828 4440,4878 4354,4878 Z M 4440,4904 L 4441,6303 4320,6303 4319,4904 4440,4904 Z"/>
     <path fill="rgb(202,202,202)" stroke="none" d="M 4441,6303 L 4441,7348 4320,7418 4320,6303 4441,6303 Z M 4319,4904 L 4319,4898 4440,4828 4440,4904 4319,4904 Z M 4440,4930 L 4441,6277 4320,6277 4319,4930 4440,4930 Z"/>
     <path fill="rgb(203,203,203)" stroke="none" d="M 4441,6277 L 4441,7348 4320,7418 4320,6277 4441,6277 Z M 4319,4930 L 4319,4898 4440,4828 4440,4930 4319,4930 Z M 4440,4956 L 4441,6251 4320,6251 4319,4956 4440,4956 Z"/>
     <path fill="rgb(204,204,204)" stroke="none" d="M 4441,6251 L 4441,7348 4320,7418 4320,6251 4441,6251 Z M 4319,4956 L 4319,4898 4440,4828 4440,4956 4319,4956 Z M 4440,4982 L 4441,6225 4320,6225 4319,4982 4440,4982 Z"/>
     <path fill="rgb(205,205,205)" stroke="none" d="M 4441,6225 L 4441,7348 4320,7418 4320,6225 4441,6225 Z M 4319,4982 L 4319,4898 4440,4828 4440,4982 4319,4982 Z M 4440,5008 L 4441,6199 4320,6199 4319,5008 4440,5008 Z"/>
     <path fill="rgb(206,206,206)" stroke="none" d="M 4441,6199 L 4441,7348 4320,7418 4320,6199 4441,6199 Z M 4319,5008 L 4319,4898 4440,4828 4440,5008 4319,5008 Z M 4440,5034 L 4441,6173 4320,6173 4319,5034 4440,5034 Z"/>
     <path fill="rgb(207,207,207)" stroke="none" d="M 4441,6173 L 4441,7348 4320,7418 4320,6173 4441,6173 Z M 4319,5034 L 4319,4898 4440,4828 4440,5034 4319,5034 Z M 4440,5059 L 4441,6148 4319,6148 4319,5059 4440,5059 Z"/>
     <path fill="rgb(208,208,208)" stroke="none" d="M 4441,6148 L 4441,7348 4320,7418 4319,6148 4441,6148 Z M 4319,5059 L 4319,4898 4440,4828 4440,5059 4319,5059 Z M 4440,5085 L 4441,6122 4319,6122 4319,5085 4440,5085 Z"/>
     <path fill="rgb(209,209,209)" stroke="none" d="M 4441,6122 L 4441,7348 4320,7418 4319,6122 4441,6122 Z M 4319,5085 L 4319,4898 4440,4828 4440,5085 4319,5085 Z M 4440,5111 L 4441,6096 4319,6096 4319,5111 4440,5111 Z"/>
     <path fill="rgb(210,210,210)" stroke="none" d="M 4441,6096 L 4441,7348 4320,7418 4319,6096 4441,6096 Z M 4319,5111 L 4319,4898 4440,4828 4440,5111 4319,5111 Z M 4440,5137 L 4440,6070 4319,6070 4319,5137 4440,5137 Z"/>
     <path fill="rgb(211,211,211)" stroke="none" d="M 4440,6070 L 4441,7348 4320,7418 4319,6070 4440,6070 Z M 4319,5137 L 4319,4898 4440,4828 4440,5137 4319,5137 Z M 4440,5163 L 4440,6044 4319,6044 4319,5163 4440,5163 Z"/>
     <path fill="rgb(212,212,212)" stroke="none" d="M 4440,6044 L 4441,7348 4320,7418 4319,6044 4440,6044 Z M 4319,5163 L 4319,4898 4440,4828 4440,5163 4319,5163 Z M 4440,5189 L 4440,6018 4319,6018 4319,5189 4440,5189 Z"/>
     <path fill="rgb(213,213,213)" stroke="none" d="M 4440,6018 L 4441,7348 4320,7418 4319,6018 4440,6018 Z M 4319,5189 L 4319,4898 4440,4828 4440,5189 4319,5189 Z M 4440,5215 L 4440,5992 4319,5992 4319,5215 4440,5215 Z"/>
     <path fill="rgb(214,214,214)" stroke="none" d="M 4440,5992 L 4441,7348 4320,7418 4319,5992 4440,5992 Z M 4319,5215 L 4319,4898 4440,4828 4440,5215 4319,5215 Z M 4440,5241 L 4440,5966 4319,5966 4319,5241 4440,5241 Z"/>
     <path fill="rgb(215,215,215)" stroke="none" d="M 4440,5966 L 4441,7348 4320,7418 4319,5966 4440,5966 Z M 4319,5241 L 4319,4898 4440,4828 4440,5241 4319,5241 Z M 4440,5267 L 4440,5940 4319,5940 4319,5267 4440,5267 Z"/>
     <path fill="rgb(216,216,216)" stroke="none" d="M 4440,5940 L 4441,7348 4320,7418 4319,5940 4440,5940 Z M 4319,5267 L 4319,4898 4440,4828 4440,5267 4319,5267 Z M 4440,5293 L 4440,5914 4319,5914 4319,5293 4440,5293 Z"/>
     <path fill="rgb(217,217,217)" stroke="none" d="M 4440,5914 L 4441,7348 4320,7418 4319,5914 4440,5914 Z M 4319,5293 L 4319,4898 4440,4828 4440,5293 4319,5293 Z M 4440,5319 L 4440,5888 4319,5888 4319,5319 4440,5319 Z"/>
     <path fill="rgb(218,218,218)" stroke="none" d="M 4440,5888 L 4441,7348 4320,7418 4319,5888 4440,5888 Z M 4319,5319 L 4319,4898 4440,4828 4440,5319 4319,5319 Z M 4440,5345 L 4440,5862 4319,5862 4319,5345 4440,5345 Z"/>
     <path fill="rgb(219,219,219)" stroke="none" d="M 4440,5862 L 4441,7348 4320,7418 4319,5862 4440,5862 Z M 4319,5345 L 4319,4898 4440,4828 4440,5345 4319,5345 Z M 4440,5371 L 4440,5836 4319,5836 4319,5371 4440,5371 Z"/>
     <path fill="rgb(220,220,220)" stroke="none" d="M 4440,5836 L 4441,7348 4320,7418 4319,5836 4440,5836 Z M 4319,5371 L 4319,4898 4440,4828 4440,5371 4319,5371 Z M 4440,5397 L 4440,5810 4319,5810 4319,5397 4440,5397 Z"/>
     <path fill="rgb(221,221,221)" stroke="none" d="M 4440,5810 L 4441,7348 4320,7418 4319,5810 4440,5810 Z M 4319,5397 L 4319,4898 4440,4828 4440,5397 4319,5397 Z M 4440,5422 L 4440,5785 4319,5785 4319,5422 4440,5422 Z"/>
     <path fill="rgb(222,222,222)" stroke="none" d="M 4440,5785 L 4441,7348 4320,7418 4319,5785 4440,5785 Z M 4319,5422 L 4319,4898 4440,4828 4440,5422 4319,5422 Z M 4440,5448 L 4440,5759 4319,5759 4319,5448 4440,5448 Z"/>
     <path fill="rgb(223,223,223)" stroke="none" d="M 4440,5759 L 4441,7348 4320,7418 4319,5759 4440,5759 Z M 4319,5448 L 4319,4898 4440,4828 4440,5448 4319,5448 Z M 4440,5474 L 4440,5733 4319,5733 4319,5474 4440,5474 Z"/>
     <path fill="rgb(224,224,224)" stroke="none" d="M 4440,5733 L 4441,7348 4320,7418 4319,5733 4440,5733 Z M 4319,5474 L 4319,4898 4440,4828 4440,5474 4319,5474 Z M 4440,5500 L 4440,5707 4319,5707 4319,5500 4440,5500 Z"/>
     <path fill="rgb(225,225,225)" stroke="none" d="M 4440,5707 L 4441,7348 4320,7418 4319,5707 4440,5707 Z M 4319,5500 L 4319,4898 4440,4828 4440,5500 4319,5500 Z M 4432,5526 L 4432,5681 4319,5681 4319,5526 4432,5526 Z"/>
     <path fill="rgb(226,226,226)" stroke="none" d="M 4432,5681 L 4432,5526 4319,5526 4319,4898 4440,4828 4441,7348 4320,7418 4319,5681 4432,5681 Z M 4406,5552 L 4406,5655 4319,5655 4319,5552 4406,5552 Z"/>
     <path fill="rgb(227,227,227)" stroke="none" d="M 4406,5655 L 4406,5552 4319,5552 4319,4898 4440,4828 4441,7348 4320,7418 4319,5655 4406,5655 Z M 4329,5578 L 4380,5578 4380,5629 4329,5629 4329,5578 Z"/>
     <path fill="rgb(229,229,229)" stroke="none" d="M 4329,5578 L 4329,5629 4380,5629 4380,5578 4329,5578 Z M 4320,7418 L 4319,4898 4440,4828 4441,7348 4320,7418 Z"/>
     <path fill="none" stroke="rgb(255,255,255)" id="Drawing_4_0" stroke-width="40" stroke-linejoin="round" d="M 4320,7418 L 4319,4898 4440,4828 4441,7348 4320,7418 Z"/>
    </g>
    <g>
     <defs>
      <linearGradient id="Gradient_368" gradientUnits="userSpaceOnUse" x1="2253" y1="5561" x2="4323" y2="5565">
       <stop offset="0.1" stop-color="rgb(179,179,179)"/>
       <stop offset="1" stop-color="rgb(229,229,229)"/>
      </linearGradient>
     </defs>
     <path fill="url(#Gradient_368)" stroke="rgb(255,255,255)" id="Drawing_5_0" stroke-width="40" stroke-linejoin="round" d="M 2257,6228 L 2256,3708 4319,4898 4320,7418 2257,6228 Z"/>
    </g>
    <g>
     <defs>
      <linearGradient id="Gradient_369" gradientUnits="userSpaceOnUse" x1="3348" y1="3638" x2="3348" y2="4898">
       <stop offset="0.1" stop-color="rgb(179,179,179)"/>
       <stop offset="1" stop-color="rgb(229,229,229)"/>
      </linearGradient>
     </defs>
     <path fill="url(#Gradient_369)" stroke="rgb(255,255,255)" id="Drawing_6_0" stroke-width="40" stroke-linejoin="round" d="M 4319,4898 L 2257,3708 2379,3638 4440,4828 4319,4898 Z"/>
    </g>
    <g>
     <path fill="rgb(255,255,255)" stroke="none" d="M 3712,6858 L 3712,6718 3833,6788 3833,6928 3712,6858 Z"/>
     <path fill="none" stroke="rgb(127,127,127)" id="Drawing_7_0" stroke-width="40" stroke-linejoin="round" d="M 3712,6858 L 3712,6718 3833,6788 3833,6928 3712,6858 Z"/>
    </g>
    <g>
     <path fill="none" stroke="rgb(0,0,0)" id="Drawing_8_0" stroke-width="40" stroke-linejoin="round" d="M 2257,6228 L 2257,3708 2379,3638 2621,3778 4075,2938 5895,3988 5895,6228 4441,7068 4441,7348 4320,7418 2257,6228 Z"/>
    </g>
    <g>
     <defs>
      <linearGradient id="Gradient_370" gradientUnits="userSpaceOnUse" x1="2496" y1="5282" x2="4077" y2="5284">
       <stop offset="0.1" stop-color="rgb(147,212,240)"/>
       <stop offset="1" stop-color="rgb(233,246,252)"/>
      </linearGradient>
     </defs>
     <path fill="url(#Gradient_370)" stroke="rgb(102,102,102)" id="Drawing_9_0" stroke-width="40" stroke-linejoin="round" d="M 2499,5458 L 2501,4198 4076,5108 4076,6368 2499,5458 Z"/>
    </g>
    <g>
     <path fill="rgb(255,255,255)" stroke="none" d="M 3713,6508 L 3713,6368 3834,6438 3834,6578 3713,6508 Z"/>
     <path fill="none" stroke="rgb(127,127,127)" id="Drawing_10_0" stroke-width="40" stroke-linejoin="round" d="M 3713,6508 L 3713,6368 3834,6438 3834,6578 3713,6508 Z"/>
    </g>
    <g>
     <path fill="rgb(255,255,255)" stroke="none" d="M 2985,6298 L 2985,6158 3106,6228 3106,6368 2985,6298 Z"/>
     <path fill="none" stroke="rgb(127,127,127)" id="Drawing_11_0" stroke-width="40" stroke-linejoin="round" d="M 2985,6298 L 2985,6158 3106,6228 3106,6368 2985,6298 Z"/>
    </g>
    <g>
     <path fill="rgb(255,255,255)" stroke="none" d="M 3350,6648 L 3350,6508 3471,6578 3471,6718 3350,6648 Z"/>
     <path fill="none" stroke="rgb(127,127,127)" id="Drawing_12_0" stroke-width="40" stroke-linejoin="round" d="M 3350,6648 L 3350,6508 3471,6578 3471,6718 3350,6648 Z"/>
    </g>
    <g>
     <path fill="rgb(255,255,255)" stroke="none" d="M 3349,6508 L 3349,6368 3470,6438 3470,6578 3349,6508 Z"/>
     <path fill="none" stroke="rgb(127,127,127)" id="Drawing_13_0" stroke-width="40" stroke-linejoin="round" d="M 3349,6508 L 3349,6368 3470,6438 3470,6578 3349,6508 Z"/>
    </g>
    <g>
     <path fill="rgb(255,255,255)" stroke="none" d="M 3349,6368 L 3349,6228 3470,6298 3470,6438 3349,6368 Z"/>
     <path fill="none" stroke="rgb(127,127,127)" id="Drawing_14_0" stroke-width="40" stroke-linejoin="round" d="M 3349,6368 L 3349,6228 3470,6298 3470,6438 3349,6368 Z"/>
    </g>
    <g>
     <path fill="rgb(255,255,255)" stroke="none" d="M 3227,6438 L 3227,6298 3348,6368 3348,6508 3227,6438 Z"/>
     <path fill="none" stroke="rgb(127,127,127)" id="Drawing_15_0" stroke-width="40" stroke-linejoin="round" d="M 3227,6438 L 3227,6298 3348,6368 3348,6508 3227,6438 Z"/>
    </g>
    <g>
     <path fill="rgb(255,255,255)" stroke="none" d="M 3470,6578 L 3470,6438 3591,6508 3591,6648 3470,6578 Z"/>
     <path fill="none" stroke="rgb(127,127,127)" id="Drawing_16_0" stroke-width="40" stroke-linejoin="round" d="M 3470,6578 L 3470,6438 3591,6508 3591,6648 3470,6578 Z"/>
    </g>
   </g>
  </g>
 </g>
</svg>