<?xml version="1.0" encoding="UTF-8"?>

<svg version="1.2" baseProfile="tiny" width="62.04mm" height="56.4mm" viewBox="5545 15814 6204 5640" preserveAspectRatio="xMidYMid" fill-rule="evenodd" stroke-width="28.222" stroke-linejoin="round" xmlns="http://www.w3.org/2000/svg" xmlns:xlink="http://www.w3.org/1999/xlink" xml:space="preserve">
 <g visibility="visible" id="Slide_1">
  <g id="DrawingGroup_1">
   <g>
    <path fill="rgb(221,221,221)" stroke="none" d="M 7497,21380 C 7762,21380 11748,19453 11748,19292 11748,19132 11626,18971 11361,18971 11361,19132 7497,21113 7497,21380 Z"/>
    <path fill="none" stroke="rgb(221,221,221)" id="Drawing_1_0" stroke-linejoin="round" d="M 7497,21380 C 7762,21380 11748,19453 11748,19292 11748,19132 11626,18971 11361,18971 11361,19132 7497,21113 7497,21380 Z"/>
   </g>
   <g id="DrawingGroup_2">
    <g>
     <defs>
      <linearGradient id="Gradient_637" gradientUnits="userSpaceOnUse" x1="5562" y1="19752" x2="7508" y2="19756">
       <stop offset="0.1" stop-color="rgb(51,51,51)"/>
       <stop offset="1" stop-color="rgb(153,153,153)"/>
      </linearGradient>
     </defs>
     <path fill="url(#Gradient_637)" stroke="rgb(178,178,178)" id="Drawing_2_0" stroke-width="40" stroke-linejoin="round" d="M 5565,20314 L 5565,18074 7505,19194 7497,21434 5565,20314 Z"/>
    </g>
    <g>
     <path fill="rgb(51,51,51)" stroke="none" d="M 10882,19484 L 9090,20516 7500,20516 7505,19194 10882,17244 10882,19484 Z"/>
     <path fill="rgb(52,52,52)" stroke="none" d="M 9090,20516 L 7497,21434 7500,20516 9090,20516 Z M 10882,17244 L 11385,16954 11385,19194 10882,19484 10882,17244 Z M 10860,19496 L 9129,20494 7500,20494 7505,19194 10860,17257 10860,19496 Z"/>
     <path fill="rgb(53,53,53)" stroke="none" d="M 9129,20494 L 7497,21434 7500,20494 9129,20494 Z M 10860,17257 L 11385,16954 11385,19194 10860,19496 10860,17257 Z M 10838,19509 L 9167,20472 7500,20472 7505,19194 10838,17270 10838,19509 Z"/>
     <path fill="rgb(54,54,54)" stroke="none" d="M 9167,20472 L 7497,21434 7500,20472 9167,20472 Z M 10838,17270 L 11385,16954 11385,19194 10838,19509 10838,17270 Z M 10816,19522 L 9205,20450 7501,20450 7505,19194 10816,17282 10816,19522 Z"/>
     <path fill="rgb(55,55,55)" stroke="none" d="M 9205,20450 L 7497,21434 7501,20450 9205,20450 Z M 10816,17282 L 11385,16954 11385,19194 10816,19522 10816,17282 Z M 10794,19534 L 9243,20428 7501,20428 7505,19194 10794,17295 10794,19534 Z"/>
     <path fill="rgb(56,56,56)" stroke="none" d="M 9243,20428 L 7497,21434 7501,20428 9243,20428 Z M 10794,17295 L 11385,16954 11385,19194 10794,19534 10794,17295 Z M 10772,19547 L 9281,20406 7501,20406 7505,19194 10772,17308 10772,19547 Z"/>
     <path fill="rgb(57,57,57)" stroke="none" d="M 9281,20406 L 7497,21434 7501,20406 9281,20406 Z M 10772,17308 L 11385,16954 11385,19194 10772,19547 10772,17308 Z M 10750,19560 L 9320,20384 7501,20384 7505,19194 10750,17321 10750,19560 Z"/>
     <path fill="rgb(58,58,58)" stroke="none" d="M 9320,20384 L 7497,21434 7501,20384 9320,20384 Z M 10750,17321 L 11385,16954 11385,19194 10750,19560 10750,17321 Z M 10728,19573 L 9358,20362 7501,20362 7505,19194 10728,17333 10728,19573 Z"/>
     <path fill="rgb(59,59,59)" stroke="none" d="M 9358,20362 L 7497,21434 7501,20362 9358,20362 Z M 10728,17333 L 11385,16954 11385,19194 10728,19573 10728,17333 Z M 10706,19585 L 9396,20340 7501,20340 7505,19194 10706,17346 10706,19585 Z"/>
     <path fill="rgb(60,60,60)" stroke="none" d="M 9396,20340 L 7497,21434 7501,20340 9396,20340 Z M 10706,17346 L 11385,16954 11385,19194 10706,19585 10706,17346 Z M 10684,19598 L 9434,20318 7501,20318 7505,19194 10684,17359 10684,19598 Z"/>
     <path fill="rgb(61,61,61)" stroke="none" d="M 9434,20318 L 7497,21434 7501,20318 9434,20318 Z M 10684,17359 L 11385,16954 11385,19194 10684,19598 10684,17359 Z M 10662,19611 L 9472,20296 7501,20296 7505,19194 10662,17371 10662,19611 Z"/>
     <path fill="rgb(62,62,62)" stroke="none" d="M 9472,20296 L 7497,21434 7501,20296 9472,20296 Z M 10662,17371 L 11385,16954 11385,19194 10662,19611 10662,17371 Z M 10640,19623 L 9510,20274 7501,20274 7505,19194 10640,17384 10640,19623 Z"/>
     <path fill="rgb(63,63,63)" stroke="none" d="M 9510,20274 L 7497,21434 7501,20274 9510,20274 Z M 10640,17384 L 11385,16954 11385,19194 10640,19623 10640,17384 Z M 10618,19636 L 9549,20252 7501,20252 7505,19194 10618,17397 10618,19636 Z"/>
     <path fill="rgb(64,64,64)" stroke="none" d="M 9549,20252 L 7497,21434 7501,20252 9549,20252 Z M 10618,17397 L 11385,16954 11385,19194 10618,19636 10618,17397 Z M 10596,19649 L 9587,20230 7501,20230 7505,19194 10596,17410 10596,19649 Z"/>
     <path fill="rgb(65,65,65)" stroke="none" d="M 9587,20230 L 7497,21434 7501,20230 9587,20230 Z M 10596,17410 L 11385,16954 11385,19194 10596,19649 10596,17410 Z M 10574,19661 L 9625,20208 7501,20208 7505,19194 10574,17422 10574,19661 Z"/>
     <path fill="rgb(66,66,66)" stroke="none" d="M 9625,20208 L 7497,21434 7501,20208 9625,20208 Z M 10574,17422 L 11385,16954 11385,19194 10574,19661 10574,17422 Z M 10552,19674 L 9663,20186 7501,20186 7505,19194 10552,17435 10552,19674 Z"/>
     <path fill="rgb(67,67,67)" stroke="none" d="M 9663,20186 L 7497,21434 7501,20186 9663,20186 Z M 10552,17435 L 11385,16954 11385,19194 10552,19674 10552,17435 Z M 10530,19687 L 9701,20164 7502,20164 7505,19194 10530,17448 10530,19687 Z"/>
     <path fill="rgb(68,68,68)" stroke="none" d="M 9701,20164 L 7497,21434 7502,20164 9701,20164 Z M 10530,17448 L 11385,16954 11385,19194 10530,19687 10530,17448 Z M 10508,19699 L 9740,20142 7502,20142 7505,19194 10508,17460 10508,19699 Z"/>
     <path fill="rgb(69,69,69)" stroke="none" d="M 9740,20142 L 7497,21434 7502,20142 9740,20142 Z M 10508,17460 L 11385,16954 11385,19194 10508,19699 10508,17460 Z M 10486,19712 L 9778,20120 7502,20120 7505,19194 10486,17473 10486,19712 Z"/>
     <path fill="rgb(70,70,70)" stroke="none" d="M 9778,20120 L 7497,21434 7502,20120 9778,20120 Z M 10486,17473 L 11385,16954 11385,19194 10486,19712 10486,17473 Z M 10464,19725 L 9816,20098 7502,20098 7505,19194 10464,17486 10464,19725 Z"/>
     <path fill="rgb(71,71,71)" stroke="none" d="M 9816,20098 L 7497,21434 7502,20098 9816,20098 Z M 10464,17486 L 11385,16954 11385,19194 10464,19725 10464,17486 Z M 10442,19737 L 9854,20076 7502,20076 7505,19194 10442,17498 10442,19737 Z"/>
     <path fill="rgb(72,72,72)" stroke="none" d="M 9854,20076 L 7497,21434 7502,20076 9854,20076 Z M 10442,17498 L 11385,16954 11385,19194 10442,19737 10442,17498 Z M 10420,19750 L 9892,20054 7502,20054 7505,19194 10420,17511 10420,19750 Z"/>
     <path fill="rgb(73,73,73)" stroke="none" d="M 9892,20054 L 7497,21434 7502,20054 9892,20054 Z M 10420,17511 L 11385,16954 11385,19194 10420,19750 10420,17511 Z M 10398,19763 L 9930,20032 7502,20032 7505,19194 10398,17524 10398,19763 Z"/>
     <path fill="rgb(74,74,74)" stroke="none" d="M 9930,20032 L 7497,21434 7502,20032 9930,20032 Z M 10398,17524 L 11385,16954 11385,19194 10398,19763 10398,17524 Z M 10376,19775 L 9969,20010 7502,20010 7505,19194 10376,17537 10376,19775 Z"/>
     <path fill="rgb(75,75,75)" stroke="none" d="M 9969,20010 L 7497,21434 7502,20010 9969,20010 Z M 10376,17537 L 11385,16954 11385,19194 10376,19775 10376,17537 Z M 10354,19788 L 10007,19988 7502,19988 7505,19194 10354,17549 10354,19788 Z"/>
     <path fill="rgb(76,76,76)" stroke="none" d="M 10007,19988 L 7497,21434 7502,19988 10007,19988 Z M 10354,17549 L 11385,16954 11385,19194 10354,19788 10354,17549 Z M 10332,19801 L 10045,19966 7502,19966 7505,19194 10332,17562 10332,19801 Z"/>
     <path fill="rgb(77,77,77)" stroke="none" d="M 10045,19966 L 7497,21434 7502,19966 10045,19966 Z M 10332,17562 L 11385,16954 11385,19194 10332,19801 10332,17562 Z M 10310,19813 L 10083,19944 7502,19944 7505,19194 10310,17575 10310,19813 Z"/>
     <path fill="rgb(78,78,78)" stroke="none" d="M 10083,19944 L 7497,21434 7502,19944 10083,19944 Z M 10310,17575 L 11385,16954 11385,19194 10310,19813 10310,17575 Z M 10288,19826 L 10121,19922 7502,19922 7505,19194 10288,17587 10288,19826 Z"/>
     <path fill="rgb(79,79,79)" stroke="none" d="M 10121,19922 L 7497,21434 7502,19922 10121,19922 Z M 10288,17587 L 11385,16954 11385,19194 10288,19826 10288,17587 Z M 10266,19839 L 10160,19900 7502,19900 7505,19194 10266,17600 10266,19839 Z"/>
     <path fill="rgb(80,80,80)" stroke="none" d="M 10160,19900 L 7497,21434 7502,19900 10160,19900 Z M 10266,17600 L 11385,16954 11385,19194 10266,19839 10266,17600 Z M 10244,19851 L 10198,19878 7503,19878 7505,19194 10244,17613 10244,19851 Z"/>
     <path fill="rgb(81,81,81)" stroke="none" d="M 10198,19878 L 7497,21434 7503,19878 10198,19878 Z M 10244,17613 L 11385,16954 11385,19194 10244,19851 10244,17613 Z M 10222,19856 L 7503,19856 7505,19194 10222,17625 10222,19856 Z"/>
     <path fill="rgb(82,82,82)" stroke="none" d="M 10222,19856 L 10222,17625 11385,16954 11385,19194 7497,21434 7503,19856 10222,19856 Z M 10200,19834 L 7503,19834 7505,19194 10200,17638 10200,19834 Z"/>
     <path fill="rgb(83,83,83)" stroke="none" d="M 10200,19834 L 10200,17638 11385,16954 11385,19194 7497,21434 7503,19834 10200,19834 Z M 10178,19812 L 7503,19812 7505,19194 10178,17651 10178,19812 Z"/>
     <path fill="rgb(84,84,84)" stroke="none" d="M 10178,19812 L 10178,17651 11385,16954 11385,19194 7497,21434 7503,19812 10178,19812 Z M 10156,19790 L 7503,19790 7505,19194 10156,17664 10156,19790 Z"/>
     <path fill="rgb(85,85,85)" stroke="none" d="M 10156,19790 L 10156,17664 11385,16954 11385,19194 7497,21434 7503,19790 10156,19790 Z M 10134,19768 L 7503,19768 7505,19194 10134,17676 10134,19768 Z"/>
     <path fill="rgb(86,86,86)" stroke="none" d="M 10134,19768 L 10134,17676 11385,16954 11385,19194 7497,21434 7503,19768 10134,19768 Z M 10112,19746 L 7503,19746 7505,19194 10112,17689 10112,19746 Z"/>
     <path fill="rgb(87,87,87)" stroke="none" d="M 10112,19746 L 10112,17689 11385,16954 11385,19194 7497,21434 7503,19746 10112,19746 Z M 10090,19724 L 7503,19724 7505,19194 10090,17702 10090,19724 Z"/>
     <path fill="rgb(88,88,88)" stroke="none" d="M 10090,19724 L 10090,17702 11385,16954 11385,19194 7497,21434 7503,19724 10090,19724 Z M 10068,19702 L 7503,19702 7505,19194 10068,17714 10068,19702 Z"/>
     <path fill="rgb(89,89,89)" stroke="none" d="M 10068,19702 L 10068,17714 11385,16954 11385,19194 7497,21434 7503,19702 10068,19702 Z M 10046,19680 L 7503,19680 7505,19194 10046,17727 10046,19680 Z"/>
     <path fill="rgb(90,90,90)" stroke="none" d="M 10046,19680 L 10046,17727 11385,16954 11385,19194 7497,21434 7503,19680 10046,19680 Z M 10024,19658 L 7503,19658 7505,19194 10024,17740 10024,19658 Z"/>
     <path fill="rgb(91,91,91)" stroke="none" d="M 10024,19658 L 10024,17740 11385,16954 11385,19194 7497,21434 7503,19658 10024,19658 Z M 10003,19637 L 7503,19637 7505,19194 10003,17752 10003,19637 Z"/>
     <path fill="rgb(92,92,92)" stroke="none" d="M 10003,19637 L 10003,17752 11385,16954 11385,19194 7497,21434 7503,19637 10003,19637 Z M 9981,19615 L 7503,19615 7505,19194 9981,17765 9981,19615 Z"/>
     <path fill="rgb(93,93,93)" stroke="none" d="M 9981,19615 L 9981,17765 11385,16954 11385,19194 7497,21434 7503,19615 9981,19615 Z M 9959,19593 L 7504,19593 7505,19194 9959,17777 9959,19593 Z"/>
     <path fill="rgb(94,94,94)" stroke="none" d="M 9959,19593 L 9959,17777 11385,16954 11385,19194 7497,21434 7504,19593 9959,19593 Z M 9937,19571 L 7504,19571 7505,19194 9937,17790 9937,19571 Z"/>
     <path fill="rgb(95,95,95)" stroke="none" d="M 9937,19571 L 9937,17790 11385,16954 11385,19194 7497,21434 7504,19571 9937,19571 Z M 9915,19549 L 7504,19549 7505,19194 9915,17803 9915,19549 Z"/>
     <path fill="rgb(96,96,96)" stroke="none" d="M 9915,19549 L 9915,17803 11385,16954 11385,19194 7497,21434 7504,19549 9915,19549 Z M 9893,19527 L 7504,19527 7505,19194 9893,17815 9893,19527 Z"/>
     <path fill="rgb(97,97,97)" stroke="none" d="M 9893,19527 L 9893,17815 11385,16954 11385,19194 7497,21434 7504,19527 9893,19527 Z M 9871,19505 L 7504,19505 7505,19194 9871,17828 9871,19505 Z"/>
     <path fill="rgb(98,98,98)" stroke="none" d="M 9871,19505 L 9871,17828 11385,16954 11385,19194 7497,21434 7504,19505 9871,19505 Z M 9849,19483 L 7504,19483 7505,19194 9849,17841 9849,19483 Z"/>
     <path fill="rgb(99,99,99)" stroke="none" d="M 9849,19483 L 9849,17841 11385,16954 11385,19194 7497,21434 7504,19483 9849,19483 Z M 9827,19461 L 7504,19461 7505,19194 9827,17853 9827,19461 Z"/>
     <path fill="rgb(100,100,100)" stroke="none" d="M 9827,19461 L 9827,17853 11385,16954 11385,19194 7497,21434 7504,19461 9827,19461 Z M 9805,19439 L 7520,19439 7520,19185 9805,17866 9805,19439 Z"/>
     <path fill="rgb(101,101,101)" stroke="none" d="M 7520,19439 L 9805,19439 9805,17866 11385,16954 11385,19194 7497,21434 7505,19194 7520,19185 7520,19439 Z M 9783,19417 L 7542,19417 7542,19173 9783,17879 9783,19417 Z"/>
     <path fill="rgb(102,102,102)" stroke="none" d="M 7542,19417 L 9783,19417 9783,17879 11385,16954 11385,19194 7497,21434 7505,19194 7542,19173 7542,19417 Z M 9761,19395 L 7564,19395 7564,19160 9761,17892 9761,19395 Z"/>
     <path fill="rgb(103,103,103)" stroke="none" d="M 7564,19395 L 9761,19395 9761,17892 11385,16954 11385,19194 7497,21434 7505,19194 7564,19160 7564,19395 Z M 9739,19373 L 7586,19373 7586,19147 9739,17904 9739,19373 Z"/>
     <path fill="rgb(104,104,104)" stroke="none" d="M 7586,19373 L 9739,19373 9739,17904 11385,16954 11385,19194 7497,21434 7505,19194 7586,19147 7586,19373 Z M 9717,19351 L 7608,19351 7608,19135 9717,17917 9717,19351 Z"/>
     <path fill="rgb(105,105,105)" stroke="none" d="M 7608,19351 L 9717,19351 9717,17917 11385,16954 11385,19194 7497,21434 7505,19194 7608,19135 7608,19351 Z M 9695,19329 L 7630,19329 7630,19122 9695,17930 9695,19329 Z"/>
     <path fill="rgb(106,106,106)" stroke="none" d="M 7630,19329 L 9695,19329 9695,17930 11385,16954 11385,19194 7497,21434 7505,19194 7630,19122 7630,19329 Z M 9673,19307 L 7652,19307 7652,19109 9673,17942 9673,19307 Z"/>
     <path fill="rgb(107,107,107)" stroke="none" d="M 7652,19307 L 9673,19307 9673,17942 11385,16954 11385,19194 7497,21434 7505,19194 7652,19109 7652,19307 Z M 9651,19285 L 7674,19285 7674,19096 9651,17955 9651,19285 Z"/>
     <path fill="rgb(108,108,108)" stroke="none" d="M 7674,19285 L 9651,19285 9651,17955 11385,16954 11385,19194 7497,21434 7505,19194 7674,19096 7674,19285 Z M 9629,19263 L 7696,19263 7696,19084 9629,17968 9629,19263 Z"/>
     <path fill="rgb(109,109,109)" stroke="none" d="M 7696,19263 L 9629,19263 9629,17968 11385,16954 11385,19194 7497,21434 7505,19194 7696,19084 7696,19263 Z M 9607,19241 L 7718,19241 7718,19071 9607,17980 9607,19241 Z"/>
     <path fill="rgb(110,110,110)" stroke="none" d="M 7718,19241 L 9607,19241 9607,17980 11385,16954 11385,19194 7497,21434 7505,19194 7718,19071 7718,19241 Z M 9585,19219 L 7740,19219 7740,19058 9585,17993 9585,19219 Z"/>
     <path fill="rgb(111,111,111)" stroke="none" d="M 7740,19219 L 9585,19219 9585,17993 11385,16954 11385,19194 7497,21434 7505,19194 7740,19058 7740,19219 Z M 9563,19197 L 7762,19197 7762,19046 9563,18006 9563,19197 Z"/>
     <path fill="rgb(112,112,112)" stroke="none" d="M 7762,19197 L 9563,19197 9563,18006 11385,16954 11385,19194 7497,21434 7505,19194 7762,19046 7762,19197 Z M 9541,19175 L 7784,19175 7784,19033 9541,18019 9541,19175 Z"/>
     <path fill="rgb(113,113,113)" stroke="none" d="M 7784,19175 L 9541,19175 9541,18019 11385,16954 11385,19194 7497,21434 7505,19194 7784,19033 7784,19175 Z M 9519,19153 L 7806,19153 7806,19020 9519,18031 9519,19153 Z"/>
     <path fill="rgb(114,114,114)" stroke="none" d="M 7806,19153 L 9519,19153 9519,18031 11385,16954 11385,19194 7497,21434 7505,19194 7806,19020 7806,19153 Z M 9497,19131 L 7828,19131 7828,19008 9497,18044 9497,19131 Z"/>
     <path fill="rgb(115,115,115)" stroke="none" d="M 7828,19131 L 9497,19131 9497,18044 11385,16954 11385,19194 7497,21434 7505,19194 7828,19008 7828,19131 Z M 9475,19109 L 7850,19109 7850,18995 9475,18057 9475,19109 Z"/>
     <path fill="rgb(116,116,116)" stroke="none" d="M 7850,19109 L 9475,19109 9475,18057 11385,16954 11385,19194 7497,21434 7505,19194 7850,18995 7850,19109 Z M 9453,19087 L 7872,19087 7872,18982 9453,18069 9453,19087 Z"/>
     <path fill="rgb(117,117,117)" stroke="none" d="M 7872,19087 L 9453,19087 9453,18069 11385,16954 11385,19194 7497,21434 7505,19194 7872,18982 7872,19087 Z M 9431,19065 L 7894,19065 7894,18969 9431,18082 9431,19065 Z"/>
     <path fill="rgb(118,118,118)" stroke="none" d="M 7894,19065 L 9431,19065 9431,18082 11385,16954 11385,19194 7497,21434 7505,19194 7894,18969 7894,19065 Z M 9409,19043 L 7916,19043 7916,18957 9409,18095 9409,19043 Z"/>
     <path fill="rgb(119,119,119)" stroke="none" d="M 7916,19043 L 9409,19043 9409,18095 11385,16954 11385,19194 7497,21434 7505,19194 7916,18957 7916,19043 Z M 9387,19021 L 7938,19021 7938,18944 9387,18107 9387,19021 Z"/>
     <path fill="rgb(120,120,120)" stroke="none" d="M 7938,19021 L 9387,19021 9387,18107 11385,16954 11385,19194 7497,21434 7505,19194 7938,18944 7938,19021 Z M 9365,18999 L 7960,18999 7960,18931 9365,18120 9365,18999 Z"/>
     <path fill="rgb(121,121,121)" stroke="none" d="M 7960,18999 L 9365,18999 9365,18120 11385,16954 11385,19194 7497,21434 7505,19194 7960,18931 7960,18999 Z M 9343,18977 L 7982,18977 7982,18919 9343,18133 9343,18977 Z"/>
     <path fill="rgb(122,122,122)" stroke="none" d="M 7982,18977 L 9343,18977 9343,18133 11385,16954 11385,19194 7497,21434 7505,19194 7982,18919 7982,18977 Z M 9321,18955 L 8004,18955 8004,18906 9321,18146 9321,18955 Z"/>
     <path fill="rgb(123,123,123)" stroke="none" d="M 8004,18955 L 9321,18955 9321,18146 11385,16954 11385,19194 7497,21434 7505,19194 8004,18906 8004,18955 Z M 9299,18933 L 8026,18933 8026,18893 9299,18158 9299,18933 Z"/>
     <path fill="rgb(124,124,124)" stroke="none" d="M 8026,18933 L 9299,18933 9299,18158 11385,16954 11385,19194 7497,21434 7505,19194 8026,18893 8026,18933 Z M 9277,18911 L 8048,18911 8048,18881 9277,18171 9277,18911 Z"/>
     <path fill="rgb(125,125,125)" stroke="none" d="M 8048,18911 L 9277,18911 9277,18171 11385,16954 11385,19194 7497,21434 7505,19194 8048,18881 8048,18911 Z M 9255,18889 L 8070,18889 8070,18868 9255,18184 9255,18889 Z"/>
     <path fill="rgb(126,126,126)" stroke="none" d="M 8070,18889 L 9255,18889 9255,18184 11385,16954 11385,19194 7497,21434 7505,19194 8070,18868 8070,18889 Z M 9233,18867 L 8092,18867 8092,18855 9233,18196 9233,18867 Z"/>
     <path fill="rgb(127,127,127)" stroke="none" d="M 8092,18867 L 9233,18867 9233,18196 11385,16954 11385,19194 7497,21434 7505,19194 8092,18855 8092,18867 Z M 9211,18845 L 8114,18845 8114,18842 9211,18209 9211,18845 Z"/>
     <path fill="rgb(128,128,128)" stroke="none" d="M 8114,18845 L 9211,18845 9211,18209 11385,16954 11385,19194 7497,21434 7505,19194 8114,18842 8114,18845 Z M 9189,18823 L 8148,18823 9189,18222 9189,18823 Z"/>
     <path fill="rgb(129,129,129)" stroke="none" d="M 9189,18823 L 9189,18222 11385,16954 11385,19194 7497,21434 7505,19194 8148,18823 9189,18823 Z M 9167,18801 L 8186,18801 9167,18234 9167,18801 Z"/>
     <path fill="rgb(130,130,130)" stroke="none" d="M 9167,18801 L 9167,18234 11385,16954 11385,19194 7497,21434 7505,19194 8186,18801 9167,18801 Z M 9145,18779 L 8224,18779 9145,18247 9145,18779 Z"/>
     <path fill="rgb(131,131,131)" stroke="none" d="M 9145,18779 L 9145,18247 11385,16954 11385,19194 7497,21434 7505,19194 8224,18779 9145,18779 Z M 9123,18757 L 8262,18757 9123,18260 9123,18757 Z"/>
     <path fill="rgb(132,132,132)" stroke="none" d="M 9123,18757 L 9123,18260 11385,16954 11385,19194 7497,21434 7505,19194 8262,18757 9123,18757 Z M 9102,18736 L 8298,18736 9102,18272 9102,18736 Z"/>
     <path fill="rgb(133,133,133)" stroke="none" d="M 9102,18736 L 9102,18272 11385,16954 11385,19194 7497,21434 7505,19194 8298,18736 9102,18736 Z M 9080,18714 L 8336,18714 9080,18285 9080,18714 Z"/>
     <path fill="rgb(134,134,134)" stroke="none" d="M 9080,18714 L 9080,18285 11385,16954 11385,19194 7497,21434 7505,19194 8336,18714 9080,18714 Z M 9058,18692 L 8375,18692 9058,18297 9058,18692 Z"/>
     <path fill="rgb(135,135,135)" stroke="none" d="M 9058,18692 L 9058,18297 11385,16954 11385,19194 7497,21434 7505,19194 8375,18692 9058,18692 Z M 9036,18670 L 8413,18670 9036,18310 9036,18670 Z"/>
     <path fill="rgb(136,136,136)" stroke="none" d="M 9036,18670 L 9036,18310 11385,16954 11385,19194 7497,21434 7505,19194 8413,18670 9036,18670 Z M 9014,18648 L 8451,18648 9014,18323 9014,18648 Z"/>
     <path fill="rgb(137,137,137)" stroke="none" d="M 9014,18648 L 9014,18323 11385,16954 11385,19194 7497,21434 7505,19194 8451,18648 9014,18648 Z M 8992,18626 L 8489,18626 8992,18336 8992,18626 Z"/>
     <path fill="rgb(138,138,138)" stroke="none" d="M 8992,18626 L 8992,18336 11385,16954 11385,19194 7497,21434 7505,19194 8489,18626 8992,18626 Z M 8970,18604 L 8527,18604 8970,18348 8970,18604 Z"/>
     <path fill="rgb(139,139,139)" stroke="none" d="M 8970,18604 L 8970,18348 11385,16954 11385,19194 7497,21434 7505,19194 8527,18604 8970,18604 Z M 8948,18582 L 8565,18582 8948,18361 8948,18582 Z"/>
     <path fill="rgb(140,140,140)" stroke="none" d="M 8948,18582 L 8948,18361 11385,16954 11385,19194 7497,21434 7505,19194 8565,18582 8948,18582 Z M 8926,18560 L 8603,18560 8926,18374 8926,18560 Z"/>
     <path fill="rgb(141,141,141)" stroke="none" d="M 8926,18560 L 8926,18374 11385,16954 11385,19194 7497,21434 7505,19194 8603,18560 8926,18560 Z M 8904,18538 L 8641,18538 8904,18386 8904,18538 Z"/>
     <path fill="rgb(142,142,142)" stroke="none" d="M 8904,18538 L 8904,18386 11385,16954 11385,19194 7497,21434 7505,19194 8641,18538 8904,18538 Z M 8882,18516 L 8679,18516 8882,18399 8882,18516 Z"/>
     <path fill="rgb(143,143,143)" stroke="none" d="M 8882,18516 L 8882,18399 11385,16954 11385,19194 7497,21434 7505,19194 8679,18516 8882,18516 Z M 8860,18494 L 8718,18494 8860,18412 8860,18494 Z"/>
     <path fill="rgb(144,144,144)" stroke="none" d="M 8860,18494 L 8860,18412 11385,16954 11385,19194 7497,21434 7505,19194 8718,18494 8860,18494 Z M 8838,18472 L 8756,18472 8838,18424 8838,18472 Z"/>
     <path fill="rgb(145,145,145)" stroke="none" d="M 8838,18472 L 8838,18424 11385,16954 11385,19194 7497,21434 7505,19194 8756,18472 8838,18472 Z M 8816,18450 L 8794,18450 8816,18437 8816,18450 Z"/>
     <path fill="rgb(146,146,146)" stroke="none" d="M 8816,18450 L 8816,18437 11385,16954 11385,19194 7497,21434 7505,19194 8794,18450 8816,18450 Z"/>
     <path fill="rgb(147,147,147)" stroke="none" d="M 7497,21434 L 7505,19194 11385,16954 11385,19194 7497,21434 Z"/>
     <path fill="rgb(148,148,148)" stroke="none" d="M 7497,21434 L 7505,19194 11385,16954 11385,19194 7497,21434 Z"/>
     <path fill="rgb(149,149,149)" stroke="none" d="M 7497,21434 L 7505,19194 11385,16954 11385,19194 7497,21434 Z"/>
     <path fill="rgb(150,150,150)" stroke="none" d="M 7497,21434 L 7505,19194 11385,16954 11385,19194 7497,21434 Z"/>
     <path fill="rgb(151,151,151)" stroke="none" d="M 7497,21434 L 7505,19194 11385,16954 11385,19194 7497,21434 Z"/>
     <path fill="rgb(153,153,153)" stroke="none" d="M 7497,21434 L 7505,19194 11385,16954 11385,19194 7497,21434 Z"/>
     <path fill="none" stroke="rgb(178,178,178)" id="Drawing_3_0" stroke-width="40" stroke-linejoin="round" d="M 7497,21434 L 7505,19194 11385,16954 11385,19194 7497,21434 Z"/>
    </g>
    <g>
     <defs>
      <linearGradient id="Gradient_638" gradientUnits="userSpaceOnUse" x1="8475" y1="15834" x2="8475" y2="19194">
       <stop offset="0.1" stop-color="rgb(51,51,51)"/>
       <stop offset="1" stop-color="rgb(153,153,153)"/>
      </linearGradient>
     </defs>
     <path fill="url(#Gradient_638)" stroke="rgb(178,178,178)" id="Drawing_4_0" stroke-width="40" stroke-linejoin="round" d="M 7505,19194 L 5565,18074 9445,15834 11385,16954 7505,19194 Z"/>
    </g>
    <g>
     <path fill="rgb(153,255,102)" stroke="none" d="M 6724,19935 L 6724,19774 6821,19828 6821,19988 6724,19935 Z"/>
     <path fill="none" stroke="rgb(51,51,51)" id="Drawing_5_0" stroke-width="40" stroke-linejoin="round" d="M 6724,19935 L 6724,19774 6821,19828 6821,19988 6724,19935 Z"/>
    </g>
    <g>
     <path fill="rgb(255,51,51)" stroke="none" d="M 6241,19667 L 6241,19506 6338,19560 6338,19720 6241,19667 Z"/>
     <path fill="none" stroke="rgb(51,51,51)" id="Drawing_6_0" stroke-width="40" stroke-linejoin="round" d="M 6241,19667 L 6241,19506 6338,19560 6338,19720 6241,19667 Z"/>
    </g>
    <g>
     <path fill="rgb(102,102,102)" stroke="none" d="M 6434,19882 L 6434,19614 6627,19721 6627,19989 6434,19882 Z"/>
     <path fill="none" stroke="rgb(178,178,178)" id="Drawing_7_0" stroke-width="40" stroke-linejoin="round" d="M 6434,19882 L 6434,19614 6627,19721 6627,19989 6434,19882 Z"/>
    </g>
    <g>
     <defs>
      <linearGradient id="Gradient_639" gradientUnits="userSpaceOnUse" x1="6143" y1="19425" x2="6918" y2="19427">
       <stop offset="0.1" stop-color="rgb(147,212,240)"/>
       <stop offset="1" stop-color="rgb(233,246,252)"/>
      </linearGradient>
     </defs>
     <path fill="url(#Gradient_639)" stroke="rgb(51,51,51)" id="Drawing_8_0" stroke-width="40" stroke-linejoin="round" d="M 6145,19346 L 6145,19078 6918,19506 6918,19774 6145,19346 Z"/>
    </g>
    <g>
     <path fill="none" stroke="rgb(178,178,178)" id="Drawing_9_0" stroke-width="40" stroke-linejoin="round" d="M 6050,18354 L 6048,20631"/>
    </g>
    <g>
     <path fill="none" stroke="rgb(178,178,178)" id="Drawing_10_0" stroke-width="40" stroke-linejoin="round" d="M 7020,18914 L 7014,21166"/>
    </g>
    <g>
     <path fill="none" stroke="rgb(153,153,153)" id="Drawing_11_0" stroke-width="40" stroke-linejoin="round" d="M 11142,18214 L 11142,19194"/>
    </g>
    <g>
     <path fill="none" stroke="rgb(153,153,153)" id="Drawing_12_0" stroke-width="40" stroke-linejoin="round" d="M 11021,18284 L 11021,19264"/>
    </g>
    <g>
     <path fill="none" stroke="rgb(153,153,153)" id="Drawing_13_0" stroke-width="40" stroke-linejoin="round" d="M 10900,18354 L 10900,19334"/>
    </g>
    <g>
     <path fill="none" stroke="rgb(153,153,153)" id="Drawing_14_0" stroke-width="40" stroke-linejoin="round" d="M 10778,18424 L 10778,19404"/>
    </g>
    <g>
     <path fill="none" stroke="rgb(153,153,153)" id="Drawing_15_0" stroke-width="40" stroke-linejoin="round" d="M 10657,18494 L 10657,19474"/>
    </g>
    <g>
     <path fill="none" stroke="rgb(153,153,153)" id="Drawing_16_0" stroke-width="40" stroke-linejoin="round" d="M 11263,19124 L 11263,18144"/>
    </g>
    <g>
     <path fill="none" stroke="rgb(153,153,153)" id="Drawing_17_0" stroke-width="40" stroke-linejoin="round" d="M 10536,18564 L 10536,19544"/>
    </g>
    <g>
     <path fill="none" stroke="rgb(0,0,0)" id="Drawing_18_0" stroke-width="40" stroke-linejoin="round" d="M 5565,20314 L 5565,18074 9445,15834 11385,16954 11385,19194 7497,21434 5565,20314 Z"/>
    </g>
   </g>
  </g>
 </g>
</svg>