<?xml version="1.0" encoding="UTF-8"?>

<svg version="1.2" baseProfile="tiny" width="27.19mm" height="35.4mm" viewBox="4112 6583 2719 3540" preserveAspectRatio="xMidYMid" fill-rule="evenodd" stroke-width="28.222" stroke-linejoin="round" xmlns="http://www.w3.org/2000/svg" xmlns:xlink="http://www.w3.org/1999/xlink" xml:space="preserve">
 <g visibility="visible" id="Slide_1">
  <g id="DrawingGroup_1">
   <g>
    <path fill="rgb(221,221,221)" stroke="none" d="M 5009,10011 C 5322,10011 6830,9550 6830,9353 6830,9155 6716,9090 6375,8958 6375,9155 5009,9682 5009,10011 Z"/>
    <path fill="none" stroke="rgb(221,221,221)" id="Drawing_1_0" stroke-linejoin="round" d="M 5009,10011 C 5322,10011 6830,9550 6830,9353 6830,9155 6716,9090 6375,8958 6375,9155 5009,9682 5009,10011 Z"/>
   </g>
   <g id="DrawingGroup_2">
    <g>
     <defs>
      <linearGradient id="Gradient_602" gradientUnits="userSpaceOnUse" x1="4130" y1="8812" x2="4772" y2="8814">
       <stop offset="0.1" stop-color="rgb(179,179,179)"/>
       <stop offset="1" stop-color="rgb(229,229,229)"/>
      </linearGradient>
     </defs>
     <path fill="url(#Gradient_602)" stroke="rgb(255,255,255)" id="Drawing_2_0" stroke-width="40" stroke-linejoin="round" d="M 4132,9735 L 4132,7524 4770,7892 4770,10103 4132,9735 Z"/>
    </g>
    <g>
     <path fill="rgb(179,179,179)" stroke="none" d="M 4770,9445 L 4770,7892 6365,6971 6365,9182 5910,9445 4770,9445 Z"/>
     <path fill="rgb(180,180,180)" stroke="none" d="M 5910,9445 L 4770,10103 4770,9445 5910,9445 Z M 4770,9414 L 4770,7892 6365,6971 6365,9182 5963,9414 4770,9414 Z"/>
     <path fill="rgb(181,181,181)" stroke="none" d="M 5963,9414 L 4770,10103 4770,9414 5963,9414 Z M 4770,9382 L 4770,7892 6365,6971 6365,9182 6019,9382 4770,9382 Z"/>
     <path fill="rgb(182,182,182)" stroke="none" d="M 6019,9382 L 4770,10103 4770,9382 6019,9382 Z M 4770,9351 L 4770,7892 6365,6971 6365,9182 6072,9351 4770,9351 Z"/>
     <path fill="rgb(183,183,183)" stroke="none" d="M 6072,9351 L 4770,10103 4770,9351 6072,9351 Z M 4770,9320 L 4770,7892 6365,6971 6365,9182 6126,9320 4770,9320 Z"/>
     <path fill="rgb(184,184,184)" stroke="none" d="M 6126,9320 L 4770,10103 4770,9320 6126,9320 Z M 4770,9288 L 4770,7892 6365,6971 6365,9182 6181,9288 4770,9288 Z"/>
     <path fill="rgb(185,185,185)" stroke="none" d="M 6181,9288 L 4770,10103 4770,9288 6181,9288 Z M 4770,9257 L 4770,7892 6365,6971 6365,9182 6235,9257 4770,9257 Z"/>
     <path fill="rgb(186,186,186)" stroke="none" d="M 6235,9257 L 4770,10103 4770,9257 6235,9257 Z M 4770,9226 L 4770,7892 6365,6971 6365,9182 6289,9226 4770,9226 Z"/>
     <path fill="rgb(187,187,187)" stroke="none" d="M 6289,9226 L 4770,10103 4770,9226 6289,9226 Z M 4770,9194 L 4770,7892 6365,6971 6365,9182 6344,9194 4770,9194 Z"/>
     <path fill="rgb(188,188,188)" stroke="none" d="M 6344,9194 L 4770,10103 4770,9194 6344,9194 Z M 4770,9163 L 4770,7892 6365,6971 6365,9163 4770,9163 Z"/>
     <path fill="rgb(189,189,189)" stroke="none" d="M 6365,9163 L 6365,9182 4770,10103 4770,9163 6365,9163 Z M 4770,9132 L 4770,7892 6365,6971 6365,9132 4770,9132 Z"/>
     <path fill="rgb(190,190,190)" stroke="none" d="M 6365,9132 L 6365,9182 4770,10103 4770,9132 6365,9132 Z M 4770,9100 L 4770,7892 6365,6971 6365,9100 4770,9100 Z"/>
     <path fill="rgb(191,191,191)" stroke="none" d="M 6365,9100 L 6365,9182 4770,10103 4770,9100 6365,9100 Z M 4770,9069 L 4770,7892 6365,6971 6365,9069 4770,9069 Z"/>
     <path fill="rgb(192,192,192)" stroke="none" d="M 6365,9069 L 6365,9182 4770,10103 4770,9069 6365,9069 Z M 4770,9038 L 4770,7892 6365,6971 6365,9038 4770,9038 Z"/>
     <path fill="rgb(193,193,193)" stroke="none" d="M 6365,9038 L 6365,9182 4770,10103 4770,9038 6365,9038 Z M 6344,9006 L 4770,9006 4770,7892 6344,6983 6344,9006 Z"/>
     <path fill="rgb(194,194,194)" stroke="none" d="M 6344,9006 L 6344,6983 6365,6971 6365,9182 4770,10103 4770,9006 6344,9006 Z M 6313,8975 L 4770,8975 4770,7892 6313,7001 6313,8975 Z"/>
     <path fill="rgb(195,195,195)" stroke="none" d="M 6313,8975 L 6313,7001 6365,6971 6365,9182 4770,10103 4770,8975 6313,8975 Z M 6282,8944 L 4770,8944 4770,7892 6282,7019 6282,8944 Z"/>
     <path fill="rgb(196,196,196)" stroke="none" d="M 6282,8944 L 6282,7019 6365,6971 6365,9182 4770,10103 4770,8944 6282,8944 Z M 6250,8912 L 4770,8912 4770,7892 6250,7037 6250,8912 Z"/>
     <path fill="rgb(197,197,197)" stroke="none" d="M 6250,8912 L 6250,7037 6365,6971 6365,9182 4770,10103 4770,8912 6250,8912 Z M 6219,8881 L 4770,8881 4770,7892 6219,7055 6219,8881 Z"/>
     <path fill="rgb(198,198,198)" stroke="none" d="M 6219,8881 L 6219,7055 6365,6971 6365,9182 4770,10103 4770,8881 6219,8881 Z M 6188,8850 L 4770,8850 4770,7892 6188,7073 6188,8850 Z"/>
     <path fill="rgb(199,199,199)" stroke="none" d="M 6188,8850 L 6188,7073 6365,6971 6365,9182 4770,10103 4770,8850 6188,8850 Z M 6156,8818 L 4770,8818 4770,7892 6156,7092 6156,8818 Z"/>
     <path fill="rgb(200,200,200)" stroke="none" d="M 6156,8818 L 6156,7092 6365,6971 6365,9182 4770,10103 4770,8818 6156,8818 Z M 6125,8787 L 4770,8787 4770,7892 6125,7110 6125,8787 Z"/>
     <path fill="rgb(201,201,201)" stroke="none" d="M 6125,8787 L 6125,7110 6365,6971 6365,9182 4770,10103 4770,8787 6125,8787 Z M 6093,8755 L 4770,8755 4770,7892 6093,7128 6093,8755 Z"/>
     <path fill="rgb(202,202,202)" stroke="none" d="M 6093,8755 L 6093,7128 6365,6971 6365,9182 4770,10103 4770,8755 6093,8755 Z M 6062,8724 L 4770,8724 4770,7892 6062,7146 6062,8724 Z"/>
     <path fill="rgb(203,203,203)" stroke="none" d="M 6062,8724 L 6062,7146 6365,6971 6365,9182 4770,10103 4770,8724 6062,8724 Z M 6031,8693 L 4770,8693 4770,7892 6031,7164 6031,8693 Z"/>
     <path fill="rgb(204,204,204)" stroke="none" d="M 6031,8693 L 6031,7164 6365,6971 6365,9182 4770,10103 4770,8693 6031,8693 Z M 5999,8661 L 4770,8661 4770,7892 5999,7182 5999,8661 Z"/>
     <path fill="rgb(205,205,205)" stroke="none" d="M 5999,8661 L 5999,7182 6365,6971 6365,9182 4770,10103 4770,8661 5999,8661 Z M 5968,8630 L 4770,8630 4770,7892 5968,7200 5968,8630 Z"/>
     <path fill="rgb(206,206,206)" stroke="none" d="M 5968,8630 L 5968,7200 6365,6971 6365,9182 4770,10103 4770,8630 5968,8630 Z M 5937,7220 L 5937,8599 4770,8599 4770,7892 5934,7220 5937,7220 Z"/>
     <path fill="rgb(207,207,207)" stroke="none" d="M 5937,8599 L 5937,7220 5934,7220 6365,6971 6365,9182 4770,10103 4770,8599 5937,8599 Z M 5905,7252 L 5905,8567 4770,8567 4770,7892 5878,7252 5905,7252 Z"/>
     <path fill="rgb(208,208,208)" stroke="none" d="M 5905,8567 L 5905,7252 5878,7252 6365,6971 6365,9182 4770,10103 4770,8567 5905,8567 Z M 5874,7283 L 5874,8536 4770,8536 4770,7892 5825,7283 5874,7283 Z"/>
     <path fill="rgb(209,209,209)" stroke="none" d="M 5874,8536 L 5874,7283 5825,7283 6365,6971 6365,9182 4770,10103 4770,8536 5874,8536 Z M 5843,7314 L 5843,8505 4770,8505 4770,7892 5771,7314 5843,7314 Z"/>
     <path fill="rgb(210,210,210)" stroke="none" d="M 5843,8505 L 5843,7314 5771,7314 6365,6971 6365,9182 4770,10103 4770,8505 5843,8505 Z M 5811,7346 L 5811,8473 4770,8473 4770,7892 5716,7346 5811,7346 Z"/>
     <path fill="rgb(211,211,211)" stroke="none" d="M 5811,8473 L 5811,7346 5716,7346 6365,6971 6365,9182 4770,10103 4770,8473 5811,8473 Z M 5780,7377 L 5780,8442 4770,8442 4770,7892 5662,7377 5780,7377 Z"/>
     <path fill="rgb(212,212,212)" stroke="none" d="M 5780,8442 L 5780,7377 5662,7377 6365,6971 6365,9182 4770,10103 4770,8442 5780,8442 Z M 5749,7408 L 5749,8411 4770,8411 4770,7892 5608,7408 5749,7408 Z"/>
     <path fill="rgb(213,213,213)" stroke="none" d="M 5749,8411 L 5749,7408 5608,7408 6365,6971 6365,9182 4770,10103 4770,8411 5749,8411 Z M 5717,7440 L 5717,8379 4778,8379 4778,7887 5553,7440 5717,7440 Z"/>
     <path fill="rgb(214,214,214)" stroke="none" d="M 4778,8379 L 5717,8379 5717,7440 5553,7440 6365,6971 6365,9182 4770,10103 4770,7892 4778,7887 4778,8379 Z M 5686,7471 L 5686,8348 4809,8348 4809,7869 5499,7471 5686,7471 Z"/>
     <path fill="rgb(215,215,215)" stroke="none" d="M 4809,8348 L 5686,8348 5686,7471 5499,7471 6365,6971 6365,9182 4770,10103 4770,7892 4809,7869 4809,8348 Z M 5655,7502 L 5655,8317 4840,8317 4840,7852 5445,7502 5655,7502 Z"/>
     <path fill="rgb(216,216,216)" stroke="none" d="M 4840,8317 L 5655,8317 5655,7502 5445,7502 6365,6971 6365,9182 4770,10103 4770,7892 4840,7852 4840,8317 Z M 5623,7534 L 5623,8285 4872,8285 4872,7833 5390,7534 5623,7534 Z"/>
     <path fill="rgb(217,217,217)" stroke="none" d="M 4872,8285 L 5623,8285 5623,7534 5390,7534 6365,6971 6365,9182 4770,10103 4770,7892 4872,7833 4872,8285 Z M 5592,7565 L 5592,8254 4903,8254 4903,7815 5336,7565 5592,7565 Z"/>
     <path fill="rgb(218,218,218)" stroke="none" d="M 4903,8254 L 5592,8254 5592,7565 5336,7565 6365,6971 6365,9182 4770,10103 4770,7892 4903,7815 4903,8254 Z M 5561,7597 L 5561,8223 4935,8223 4935,7797 5281,7597 5561,7597 Z"/>
     <path fill="rgb(219,219,219)" stroke="none" d="M 4935,8223 L 5561,8223 5561,7597 5281,7597 6365,6971 6365,9182 4770,10103 4770,7892 4935,7797 4935,8223 Z M 5529,7628 L 5529,8191 4966,8191 4966,7779 5227,7628 5529,7628 Z"/>
     <path fill="rgb(220,220,220)" stroke="none" d="M 4966,8191 L 5529,8191 5529,7628 5227,7628 6365,6971 6365,9182 4770,10103 4770,7892 4966,7779 4966,8191 Z M 5498,7659 L 5498,8160 4997,8160 4997,7761 5174,7659 5498,7659 Z"/>
     <path fill="rgb(221,221,221)" stroke="none" d="M 4997,8160 L 5498,8160 5498,7659 5174,7659 6365,6971 6365,9182 4770,10103 4770,7892 4997,7761 4997,8160 Z M 5466,7691 L 5466,8128 5029,8128 5029,7742 5118,7691 5466,7691 Z"/>
     <path fill="rgb(222,222,222)" stroke="none" d="M 5029,8128 L 5466,8128 5466,7691 5118,7691 6365,6971 6365,9182 4770,10103 4770,7892 5029,7742 5029,8128 Z M 5435,7722 L 5435,8097 5060,8097 5060,7725 5064,7722 5435,7722 Z"/>
     <path fill="rgb(223,223,223)" stroke="none" d="M 5060,8097 L 5435,8097 5435,7722 5064,7722 6365,6971 6365,9182 4770,10103 4770,7892 5060,7725 5060,8097 Z M 5091,7753 L 5404,7753 5404,8066 5091,8066 5091,7753 Z"/>
     <path fill="rgb(224,224,224)" stroke="none" d="M 5091,7753 L 5091,8066 5404,8066 5404,7753 5091,7753 Z M 5123,7785 L 5372,7785 5372,8034 5123,8034 5123,7785 Z M 4770,10103 L 4770,7892 6365,6971 6365,9182 4770,10103 Z"/>
     <path fill="rgb(225,225,225)" stroke="none" d="M 5123,7785 L 5123,8034 5372,8034 5372,7785 5123,7785 Z M 5154,7816 L 5341,7816 5341,8003 5154,8003 5154,7816 Z M 4770,10103 L 4770,7892 6365,6971 6365,9182 4770,10103 Z"/>
     <path fill="rgb(226,226,226)" stroke="none" d="M 5154,7816 L 5154,8003 5341,8003 5341,7816 5154,7816 Z M 5185,7847 L 5310,7847 5310,7972 5185,7972 5185,7847 Z M 4770,10103 L 4770,7892 6365,6971 6365,9182 4770,10103 Z"/>
     <path fill="rgb(227,227,227)" stroke="none" d="M 5185,7847 L 5185,7972 5310,7972 5310,7847 5185,7847 Z M 5217,7879 L 5278,7879 5278,7940 5217,7940 5217,7879 Z M 4770,10103 L 4770,7892 6365,6971 6365,9182 4770,10103 Z"/>
     <path fill="rgb(229,229,229)" stroke="none" d="M 5217,7879 L 5217,7940 5278,7940 5278,7879 5217,7879 Z M 4770,10103 L 4770,7892 6365,6971 6365,9182 4770,10103 Z"/>
     <path fill="none" stroke="rgb(255,255,255)" id="Drawing_3_0" stroke-width="40" stroke-linejoin="round" d="M 4770,10103 L 4770,7892 6365,6971 6365,9182 4770,10103 Z"/>
    </g>
    <g>
     <defs>
      <linearGradient id="Gradient_603" gradientUnits="userSpaceOnUse" x1="5249" y1="6603" x2="5249" y2="7892">
       <stop offset="0.1" stop-color="rgb(179,179,179)"/>
       <stop offset="1" stop-color="rgb(229,229,229)"/>
      </linearGradient>
     </defs>
     <path fill="url(#Gradient_603)" stroke="rgb(255,255,255)" id="Drawing_4_0" stroke-width="40" stroke-linejoin="round" d="M 4770,7892 L 4132,7524 5727,6603 6366,6971 4770,7892 Z"/>
    </g>
    <g>
     <path fill="none" stroke="rgb(0,0,0)" id="Drawing_5_0" stroke-width="40" stroke-linejoin="round" d="M 4132,9735 L 4132,7524 5727,6603 6366,6971 6366,9182 4770,10103 4132,9735 Z"/>
    </g>
    <g>
     <path fill="rgb(0,0,0)" stroke="none" d="M 5408,6879 L 5727,6695 5886,6787 5567,6971 5408,6879 Z"/>
     <path fill="none" stroke="rgb(102,102,102)" id="Drawing_6_0" stroke-width="40" stroke-linejoin="round" d="M 5408,6879 L 5727,6695 5886,6787 5567,6971 5408,6879 Z"/>
    </g>
    <g>
     <path fill="rgb(255,255,255)" stroke="none" d="M 4291,9688 L 4291,7754 4610,7938 4610,9872 4291,9688 Z"/>
     <path fill="none" stroke="rgb(255,255,255)" id="Drawing_7_0" stroke-width="40" stroke-linejoin="round" d="M 4291,9688 L 4291,7754 4610,7938 4610,9872 4291,9688 Z"/>
    </g>
    <g>
     <path fill="rgb(0,0,0)" stroke="none" d="M 5009,7109 L 5328,6925 5647,7109 5328,7293 5009,7109 Z"/>
     <path fill="none" stroke="rgb(102,102,102)" id="Drawing_8_0" stroke-width="40" stroke-linejoin="round" d="M 5009,7109 L 5328,6925 5647,7109 5328,7293 5009,7109 Z"/>
    </g>
    <g>
     <path fill="rgb(0,0,0)" stroke="none" d="M 4770,7248 L 4929,7156 5248,7340 5089,7432 4770,7248 Z"/>
     <path fill="none" stroke="rgb(102,102,102)" id="Drawing_9_0" stroke-width="40" stroke-linejoin="round" d="M 4770,7248 L 4929,7156 5248,7340 5089,7432 4770,7248 Z"/>
    </g>
    <g>
     <path fill="rgb(0,0,0)" stroke="none" d="M 4450,7432 L 4689,7294 4929,7432 4689,7570 4450,7432 Z"/>
     <path fill="none" stroke="rgb(102,102,102)" id="Drawing_10_0" stroke-width="40" stroke-linejoin="round" d="M 4450,7432 L 4689,7294 4929,7432 4689,7570 4450,7432 Z"/>
    </g>
    <g>
     <path fill="rgb(255,51,51)" stroke="none" d="M 4371,9642 L 4371,9504 4451,9550 4451,9688 4371,9642 Z"/>
     <path fill="none" stroke="rgb(51,51,51)" id="Drawing_11_0" stroke-width="40" stroke-linejoin="round" d="M 4371,9642 L 4371,9504 4451,9550 4451,9688 4371,9642 Z"/>
    </g>
    <g>
     <path fill="rgb(153,255,102)" stroke="none" d="M 4371,9412 L 4371,9274 4451,9320 4451,9458 4371,9412 Z"/>
     <path fill="none" stroke="rgb(51,51,51)" id="Drawing_12_0" stroke-width="40" stroke-linejoin="round" d="M 4371,9412 L 4371,9274 4451,9320 4451,9458 4371,9412 Z"/>
    </g>
   </g>
  </g>
 </g>
</svg>