<?xml version="1.0" encoding="UTF-8"?>

<svg version="1.2" baseProfile="tiny" width="27.19mm" height="35.4mm" viewBox="7967 4617 2719 3540" preserveAspectRatio="xMidYMid" fill-rule="evenodd" stroke-width="28.222" stroke-linejoin="round" xmlns="http://www.w3.org/2000/svg" xmlns:xlink="http://www.w3.org/1999/xlink" xml:space="preserve">
 <g visibility="visible" id="Slide_1">
  <g id="DrawingGroup_1">
   <g>
    <path fill="rgb(221,221,221)" stroke="none" d="M 8864,8045 C 9177,8045 10685,7584 10685,7387 10685,7189 10571,7124 10230,6992 10230,7189 8864,7716 8864,8045 Z"/>
    <path fill="none" stroke="rgb(221,221,221)" id="Drawing_1_0" stroke-linejoin="round" d="M 8864,8045 C 9177,8045 10685,7584 10685,7387 10685,7189 10571,7124 10230,6992 10230,7189 8864,7716 8864,8045 Z"/>
   </g>
   <g id="DrawingGroup_2">
    <g>
     <defs>
      <linearGradient id="Gradient_604" gradientUnits="userSpaceOnUse" x1="7985" y1="6846" x2="8627" y2="6848">
       <stop offset="0.1" stop-color="rgb(51,51,51)"/>
       <stop offset="1" stop-color="rgb(153,153,153)"/>
      </linearGradient>
     </defs>
     <path fill="url(#Gradient_604)" stroke="rgb(178,178,178)" id="Drawing_2_0" stroke-width="40" stroke-linejoin="round" d="M 7987,7769 L 7987,5558 8625,5926 8625,8137 7987,7769 Z"/>
    </g>
    <g>
     <path fill="rgb(51,51,51)" stroke="none" d="M 8625,7495 L 8625,5926 10220,5005 10220,7216 9737,7495 8625,7495 Z"/>
     <path fill="rgb(52,52,52)" stroke="none" d="M 9737,7495 L 8625,8137 8625,7495 9737,7495 Z M 8625,7480 L 8625,5926 10220,5005 10220,7216 9763,7480 8625,7480 Z"/>
     <path fill="rgb(53,53,53)" stroke="none" d="M 9763,7480 L 8625,8137 8625,7480 9763,7480 Z M 8625,7464 L 8625,5926 10220,5005 10220,7216 9791,7464 8625,7464 Z"/>
     <path fill="rgb(54,54,54)" stroke="none" d="M 9791,7464 L 8625,8137 8625,7464 9791,7464 Z M 8625,7449 L 8625,5926 10220,5005 10220,7216 9816,7449 8625,7449 Z"/>
     <path fill="rgb(55,55,55)" stroke="none" d="M 9816,7449 L 8625,8137 8625,7449 9816,7449 Z M 8625,7434 L 8625,5926 10220,5005 10220,7216 9842,7434 8625,7434 Z"/>
     <path fill="rgb(56,56,56)" stroke="none" d="M 9842,7434 L 8625,8137 8625,7434 9842,7434 Z M 8625,7418 L 8625,5926 10220,5005 10220,7216 9870,7418 8625,7418 Z"/>
     <path fill="rgb(57,57,57)" stroke="none" d="M 9870,7418 L 8625,8137 8625,7418 9870,7418 Z M 8625,7403 L 8625,5926 10220,5005 10220,7216 9896,7403 8625,7403 Z"/>
     <path fill="rgb(58,58,58)" stroke="none" d="M 9896,7403 L 8625,8137 8625,7403 9896,7403 Z M 8625,7388 L 8625,5926 10220,5005 10220,7216 9922,7388 8625,7388 Z"/>
     <path fill="rgb(59,59,59)" stroke="none" d="M 9922,7388 L 8625,8137 8625,7388 9922,7388 Z M 8625,7372 L 8625,5926 10220,5005 10220,7216 9950,7372 8625,7372 Z"/>
     <path fill="rgb(60,60,60)" stroke="none" d="M 9950,7372 L 8625,8137 8625,7372 9950,7372 Z M 8625,7357 L 8625,5926 10220,5005 10220,7216 9976,7357 8625,7357 Z"/>
     <path fill="rgb(61,61,61)" stroke="none" d="M 9976,7357 L 8625,8137 8625,7357 9976,7357 Z M 8625,7341 L 8625,5926 10220,5005 10220,7216 10004,7341 8625,7341 Z"/>
     <path fill="rgb(62,62,62)" stroke="none" d="M 10004,7341 L 8625,8137 8625,7341 10004,7341 Z M 8625,7326 L 8625,5926 10220,5005 10220,7216 10030,7326 8625,7326 Z"/>
     <path fill="rgb(63,63,63)" stroke="none" d="M 10030,7326 L 8625,8137 8625,7326 10030,7326 Z M 8625,7311 L 8625,5926 10220,5005 10220,7216 10055,7311 8625,7311 Z"/>
     <path fill="rgb(64,64,64)" stroke="none" d="M 10055,7311 L 8625,8137 8625,7311 10055,7311 Z M 8625,7295 L 8625,5926 10220,5005 10220,7216 10083,7295 8625,7295 Z"/>
     <path fill="rgb(65,65,65)" stroke="none" d="M 10083,7295 L 8625,8137 8625,7295 10083,7295 Z M 8625,7280 L 8625,5926 10220,5005 10220,7216 10109,7280 8625,7280 Z"/>
     <path fill="rgb(66,66,66)" stroke="none" d="M 10109,7280 L 8625,8137 8625,7280 10109,7280 Z M 8625,7265 L 8625,5926 10220,5005 10220,7216 10135,7265 8625,7265 Z"/>
     <path fill="rgb(67,67,67)" stroke="none" d="M 10135,7265 L 8625,8137 8625,7265 10135,7265 Z M 8625,7249 L 8625,5926 10220,5005 10220,7216 10163,7249 8625,7249 Z"/>
     <path fill="rgb(68,68,68)" stroke="none" d="M 10163,7249 L 8625,8137 8625,7249 10163,7249 Z M 8625,7234 L 8625,5926 10220,5005 10220,7216 10189,7234 8625,7234 Z"/>
     <path fill="rgb(69,69,69)" stroke="none" d="M 10189,7234 L 8625,8137 8625,7234 10189,7234 Z M 8625,7219 L 8625,5926 10220,5005 10220,7216 10215,7219 8625,7219 Z"/>
     <path fill="rgb(70,70,70)" stroke="none" d="M 10215,7219 L 8625,8137 8625,7219 10215,7219 Z M 8625,7203 L 8625,5926 10220,5005 10220,7203 8625,7203 Z"/>
     <path fill="rgb(71,71,71)" stroke="none" d="M 10220,7203 L 10220,7216 8625,8137 8625,7203 10220,7203 Z M 8625,7188 L 8625,5926 10220,5005 10220,7188 8625,7188 Z"/>
     <path fill="rgb(72,72,72)" stroke="none" d="M 10220,7188 L 10220,7216 8625,8137 8625,7188 10220,7188 Z M 8625,7172 L 8625,5926 10220,5005 10220,7172 8625,7172 Z"/>
     <path fill="rgb(73,73,73)" stroke="none" d="M 10220,7172 L 10220,7216 8625,8137 8625,7172 10220,7172 Z M 8625,7157 L 8625,5926 10220,5005 10220,7157 8625,7157 Z"/>
     <path fill="rgb(74,74,74)" stroke="none" d="M 10220,7157 L 10220,7216 8625,8137 8625,7157 10220,7157 Z M 8625,7142 L 8625,5926 10220,5005 10220,7142 8625,7142 Z"/>
     <path fill="rgb(75,75,75)" stroke="none" d="M 10220,7142 L 10220,7216 8625,8137 8625,7142 10220,7142 Z M 8625,7126 L 8625,5926 10220,5005 10220,7126 8625,7126 Z"/>
     <path fill="rgb(76,76,76)" stroke="none" d="M 10220,7126 L 10220,7216 8625,8137 8625,7126 10220,7126 Z M 8625,7111 L 8625,5926 10220,5005 10220,7111 8625,7111 Z"/>
     <path fill="rgb(77,77,77)" stroke="none" d="M 10220,7111 L 10220,7216 8625,8137 8625,7111 10220,7111 Z M 8625,7096 L 8625,5926 10220,5005 10220,7096 8625,7096 Z"/>
     <path fill="rgb(78,78,78)" stroke="none" d="M 10220,7096 L 10220,7216 8625,8137 8625,7096 10220,7096 Z M 8625,7080 L 8625,5926 10220,5005 10220,7080 8625,7080 Z"/>
     <path fill="rgb(79,79,79)" stroke="none" d="M 10220,7080 L 10220,7216 8625,8137 8625,7080 10220,7080 Z M 8625,7065 L 8625,5926 10220,5005 10220,7065 8625,7065 Z"/>
     <path fill="rgb(80,80,80)" stroke="none" d="M 10220,7065 L 10220,7216 8625,8137 8625,7065 10220,7065 Z M 10208,7049 L 8625,7049 8625,5926 10208,5012 10208,7049 Z"/>
     <path fill="rgb(81,81,81)" stroke="none" d="M 10208,7049 L 10208,5012 10220,5005 10220,7216 8625,8137 8625,7049 10208,7049 Z M 10193,7034 L 8625,7034 8625,5926 10193,5021 10193,7034 Z"/>
     <path fill="rgb(82,82,82)" stroke="none" d="M 10193,7034 L 10193,5021 10220,5005 10220,7216 8625,8137 8625,7034 10193,7034 Z M 10178,7019 L 8625,7019 8625,5926 10178,5029 10178,7019 Z"/>
     <path fill="rgb(83,83,83)" stroke="none" d="M 10178,7019 L 10178,5029 10220,5005 10220,7216 8625,8137 8625,7019 10178,7019 Z M 10162,7003 L 8625,7003 8625,5926 10162,5038 10162,7003 Z"/>
     <path fill="rgb(84,84,84)" stroke="none" d="M 10162,7003 L 10162,5038 10220,5005 10220,7216 8625,8137 8625,7003 10162,7003 Z M 10147,6988 L 8625,6988 8625,5926 10147,5047 10147,6988 Z"/>
     <path fill="rgb(85,85,85)" stroke="none" d="M 10147,6988 L 10147,5047 10220,5005 10220,7216 8625,8137 8625,6988 10147,6988 Z M 10132,6973 L 8625,6973 8625,5926 10132,5056 10132,6973 Z"/>
     <path fill="rgb(86,86,86)" stroke="none" d="M 10132,6973 L 10132,5056 10220,5005 10220,7216 8625,8137 8625,6973 10132,6973 Z M 10116,6957 L 8625,6957 8625,5926 10116,5065 10116,6957 Z"/>
     <path fill="rgb(87,87,87)" stroke="none" d="M 10116,6957 L 10116,5065 10220,5005 10220,7216 8625,8137 8625,6957 10116,6957 Z M 10101,6942 L 8625,6942 8625,5926 10101,5074 10101,6942 Z"/>
     <path fill="rgb(88,88,88)" stroke="none" d="M 10101,6942 L 10101,5074 10220,5005 10220,7216 8625,8137 8625,6942 10101,6942 Z M 10086,6927 L 8625,6927 8625,5926 10086,5082 10086,6927 Z"/>
     <path fill="rgb(89,89,89)" stroke="none" d="M 10086,6927 L 10086,5082 10220,5005 10220,7216 8625,8137 8625,6927 10086,6927 Z M 10070,6911 L 8625,6911 8625,5926 10070,5092 10070,6911 Z"/>
     <path fill="rgb(90,90,90)" stroke="none" d="M 10070,6911 L 10070,5092 10220,5005 10220,7216 8625,8137 8625,6911 10070,6911 Z M 10055,6896 L 8625,6896 8625,5926 10055,5100 10055,6896 Z"/>
     <path fill="rgb(91,91,91)" stroke="none" d="M 10055,6896 L 10055,5100 10220,5005 10220,7216 8625,8137 8625,6896 10055,6896 Z M 10039,6880 L 8625,6880 8625,5926 10039,5110 10039,6880 Z"/>
     <path fill="rgb(92,92,92)" stroke="none" d="M 10039,6880 L 10039,5110 10220,5005 10220,7216 8625,8137 8625,6880 10039,6880 Z M 10024,6865 L 8625,6865 8625,5926 10024,5118 10024,6865 Z"/>
     <path fill="rgb(93,93,93)" stroke="none" d="M 10024,6865 L 10024,5118 10220,5005 10220,7216 8625,8137 8625,6865 10024,6865 Z M 10009,6850 L 8625,6850 8625,5926 10009,5127 10009,6850 Z"/>
     <path fill="rgb(94,94,94)" stroke="none" d="M 10009,6850 L 10009,5127 10220,5005 10220,7216 8625,8137 8625,6850 10009,6850 Z M 9993,6834 L 8625,6834 8625,5926 9993,5136 9993,6834 Z"/>
     <path fill="rgb(95,95,95)" stroke="none" d="M 9993,6834 L 9993,5136 10220,5005 10220,7216 8625,8137 8625,6834 9993,6834 Z M 9978,6819 L 8625,6819 8625,5926 9978,5145 9978,6819 Z"/>
     <path fill="rgb(96,96,96)" stroke="none" d="M 9978,6819 L 9978,5145 10220,5005 10220,7216 8625,8137 8625,6819 9978,6819 Z M 9963,6804 L 8625,6804 8625,5926 9963,5153 9963,6804 Z"/>
     <path fill="rgb(97,97,97)" stroke="none" d="M 9963,6804 L 9963,5153 10220,5005 10220,7216 8625,8137 8625,6804 9963,6804 Z M 9947,6788 L 8625,6788 8625,5926 9947,5163 9947,6788 Z"/>
     <path fill="rgb(98,98,98)" stroke="none" d="M 9947,6788 L 9947,5163 10220,5005 10220,7216 8625,8137 8625,6788 9947,6788 Z M 9932,6773 L 8625,6773 8625,5926 9932,5171 9932,6773 Z"/>
     <path fill="rgb(99,99,99)" stroke="none" d="M 9932,6773 L 9932,5171 10220,5005 10220,7216 8625,8137 8625,6773 9932,6773 Z M 9916,6757 L 8625,6757 8625,5926 9916,5181 9916,6757 Z"/>
     <path fill="rgb(100,100,100)" stroke="none" d="M 9916,6757 L 9916,5181 10220,5005 10220,7216 8625,8137 8625,6757 9916,6757 Z M 9901,6742 L 8625,6742 8625,5926 9901,5189 9901,6742 Z"/>
     <path fill="rgb(101,101,101)" stroke="none" d="M 9901,6742 L 9901,5189 10220,5005 10220,7216 8625,8137 8625,6742 9901,6742 Z M 9886,6727 L 8625,6727 8625,5926 9886,5198 9886,6727 Z"/>
     <path fill="rgb(102,102,102)" stroke="none" d="M 9886,6727 L 9886,5198 10220,5005 10220,7216 8625,8137 8625,6727 9886,6727 Z M 9870,6711 L 8625,6711 8625,5926 9870,5207 9870,6711 Z"/>
     <path fill="rgb(103,103,103)" stroke="none" d="M 9870,6711 L 9870,5207 10220,5005 10220,7216 8625,8137 8625,6711 9870,6711 Z M 9855,6696 L 8625,6696 8625,5926 9855,5216 9855,6696 Z"/>
     <path fill="rgb(104,104,104)" stroke="none" d="M 9855,6696 L 9855,5216 10220,5005 10220,7216 8625,8137 8625,6696 9855,6696 Z M 9840,6681 L 8625,6681 8625,5926 9840,5224 9840,6681 Z"/>
     <path fill="rgb(105,105,105)" stroke="none" d="M 9840,6681 L 9840,5224 10220,5005 10220,7216 8625,8137 8625,6681 9840,6681 Z M 9824,6665 L 8625,6665 8625,5926 9824,5234 9824,6665 Z"/>
     <path fill="rgb(106,106,106)" stroke="none" d="M 9824,6665 L 9824,5234 10220,5005 10220,7216 8625,8137 8625,6665 9824,6665 Z M 9809,6650 L 8625,6650 8625,5926 9809,5242 9809,6650 Z"/>
     <path fill="rgb(107,107,107)" stroke="none" d="M 9809,6650 L 9809,5242 10220,5005 10220,7216 8625,8137 8625,6650 9809,6650 Z M 9794,5252 L 9794,6635 8625,6635 8625,5926 9792,5252 9794,5252 Z"/>
     <path fill="rgb(108,108,108)" stroke="none" d="M 9794,6635 L 9794,5252 9792,5252 10220,5005 10220,7216 8625,8137 8625,6635 9794,6635 Z M 9778,5268 L 9778,6619 8625,6619 8625,5926 9765,5268 9778,5268 Z"/>
     <path fill="rgb(109,109,109)" stroke="none" d="M 9778,6619 L 9778,5268 9765,5268 10220,5005 10220,7216 8625,8137 8625,6619 9778,6619 Z M 9763,5283 L 9763,6604 8625,6604 8625,5926 9739,5283 9763,5283 Z"/>
     <path fill="rgb(110,110,110)" stroke="none" d="M 9763,6604 L 9763,5283 9739,5283 10220,5005 10220,7216 8625,8137 8625,6604 9763,6604 Z M 9747,5299 L 9747,6588 8625,6588 8625,5926 9711,5299 9747,5299 Z"/>
     <path fill="rgb(111,111,111)" stroke="none" d="M 9747,6588 L 9747,5299 9711,5299 10220,5005 10220,7216 8625,8137 8625,6588 9747,6588 Z M 9732,5314 L 9732,6573 8625,6573 8625,5926 9685,5314 9732,5314 Z"/>
     <path fill="rgb(112,112,112)" stroke="none" d="M 9732,6573 L 9732,5314 9685,5314 10220,5005 10220,7216 8625,8137 8625,6573 9732,6573 Z M 9717,5329 L 9717,6558 8625,6558 8625,5926 9659,5329 9717,5329 Z"/>
     <path fill="rgb(113,113,113)" stroke="none" d="M 9717,6558 L 9717,5329 9659,5329 10220,5005 10220,7216 8625,8137 8625,6558 9717,6558 Z M 9701,5345 L 9701,6542 8625,6542 8625,5926 9631,5345 9701,5345 Z"/>
     <path fill="rgb(114,114,114)" stroke="none" d="M 9701,6542 L 9701,5345 9631,5345 10220,5005 10220,7216 8625,8137 8625,6542 9701,6542 Z M 9686,5360 L 9686,6527 8625,6527 8625,5926 9605,5360 9686,5360 Z"/>
     <path fill="rgb(115,115,115)" stroke="none" d="M 9686,6527 L 9686,5360 9605,5360 10220,5005 10220,7216 8625,8137 8625,6527 9686,6527 Z M 9671,5375 L 9671,6512 8625,6512 8625,5926 9579,5375 9671,5375 Z"/>
     <path fill="rgb(116,116,116)" stroke="none" d="M 9671,6512 L 9671,5375 9579,5375 10220,5005 10220,7216 8625,8137 8625,6512 9671,6512 Z M 9655,5391 L 9655,6496 8625,6496 8625,5926 9552,5391 9655,5391 Z"/>
     <path fill="rgb(117,117,117)" stroke="none" d="M 9655,6496 L 9655,5391 9552,5391 10220,5005 10220,7216 8625,8137 8625,6496 9655,6496 Z M 9640,5406 L 9640,6481 8625,6481 8625,5926 9526,5406 9640,5406 Z"/>
     <path fill="rgb(118,118,118)" stroke="none" d="M 9640,6481 L 9640,5406 9526,5406 10220,5005 10220,7216 8625,8137 8625,6481 9640,6481 Z M 9625,5422 L 9625,6466 8625,6466 8625,5926 9498,5422 9625,5422 Z"/>
     <path fill="rgb(119,119,119)" stroke="none" d="M 9625,6466 L 9625,5422 9498,5422 10220,5005 10220,7216 8625,8137 8625,6466 9625,6466 Z M 9609,5437 L 9609,6450 8625,6450 8625,5926 9472,5437 9609,5437 Z"/>
     <path fill="rgb(120,120,120)" stroke="none" d="M 9609,6450 L 9609,5437 9472,5437 10220,5005 10220,7216 8625,8137 8625,6450 9609,6450 Z M 9594,5452 L 9594,6435 8625,6435 8625,5926 9446,5452 9594,5452 Z"/>
     <path fill="rgb(121,121,121)" stroke="none" d="M 9594,6435 L 9594,5452 9446,5452 10220,5005 10220,7216 8625,8137 8625,6435 9594,6435 Z M 9578,5468 L 9578,6419 8627,6419 8627,5925 9418,5468 9578,5468 Z"/>
     <path fill="rgb(122,122,122)" stroke="none" d="M 8627,6419 L 9578,6419 9578,5468 9418,5468 10220,5005 10220,7216 8625,8137 8625,5926 8627,5925 8627,6419 Z M 9563,5483 L 9563,6404 8642,6404 8642,5916 9392,5483 9563,5483 Z"/>
     <path fill="rgb(123,123,123)" stroke="none" d="M 8642,6404 L 9563,6404 9563,5483 9392,5483 10220,5005 10220,7216 8625,8137 8625,5926 8642,5916 8642,6404 Z M 9548,5498 L 9548,6389 8657,6389 8657,5908 9366,5498 9548,5498 Z"/>
     <path fill="rgb(124,124,124)" stroke="none" d="M 8657,6389 L 9548,6389 9548,5498 9366,5498 10220,5005 10220,7216 8625,8137 8625,5926 8657,5908 8657,6389 Z M 9532,5514 L 9532,6373 8673,6373 8673,5898 9339,5514 9532,5514 Z"/>
     <path fill="rgb(125,125,125)" stroke="none" d="M 8673,6373 L 9532,6373 9532,5514 9339,5514 10220,5005 10220,7216 8625,8137 8625,5926 8673,5898 8673,6373 Z M 9517,5529 L 9517,6358 8688,6358 8688,5890 9313,5529 9517,5529 Z"/>
     <path fill="rgb(126,126,126)" stroke="none" d="M 8688,6358 L 9517,6358 9517,5529 9313,5529 10220,5005 10220,7216 8625,8137 8625,5926 8688,5890 8688,6358 Z M 9502,5544 L 9502,6343 8703,6343 8703,5881 9287,5544 9502,5544 Z"/>
     <path fill="rgb(127,127,127)" stroke="none" d="M 8703,6343 L 9502,6343 9502,5544 9287,5544 10220,5005 10220,7216 8625,8137 8625,5926 8703,5881 8703,6343 Z M 9486,5560 L 9486,6327 8719,6327 8719,5872 9259,5560 9486,5560 Z"/>
     <path fill="rgb(128,128,128)" stroke="none" d="M 8719,6327 L 9486,6327 9486,5560 9259,5560 10220,5005 10220,7216 8625,8137 8625,5926 8719,5872 8719,6327 Z M 9471,5575 L 9471,6312 8734,6312 8734,5863 9233,5575 9471,5575 Z"/>
     <path fill="rgb(129,129,129)" stroke="none" d="M 8734,6312 L 9471,6312 9471,5575 9233,5575 10220,5005 10220,7216 8625,8137 8625,5926 8734,5863 8734,6312 Z M 9455,5591 L 9455,6296 8750,6296 8750,5854 9205,5591 9455,5591 Z"/>
     <path fill="rgb(130,130,130)" stroke="none" d="M 8750,6296 L 9455,6296 9455,5591 9205,5591 10220,5005 10220,7216 8625,8137 8625,5926 8750,5854 8750,6296 Z M 9440,5606 L 9440,6281 8765,6281 8765,5845 9179,5606 9440,5606 Z"/>
     <path fill="rgb(131,131,131)" stroke="none" d="M 8765,6281 L 9440,6281 9440,5606 9179,5606 10220,5005 10220,7216 8625,8137 8625,5926 8765,5845 8765,6281 Z M 9425,5621 L 9425,6266 8780,6266 8780,5836 9153,5621 9425,5621 Z"/>
     <path fill="rgb(132,132,132)" stroke="none" d="M 8780,6266 L 9425,6266 9425,5621 9153,5621 10220,5005 10220,7216 8625,8137 8625,5926 8780,5836 8780,6266 Z M 9409,5637 L 9409,6250 8796,6250 8796,5827 9125,5637 9409,5637 Z"/>
     <path fill="rgb(133,133,133)" stroke="none" d="M 8796,6250 L 9409,6250 9409,5637 9125,5637 10220,5005 10220,7216 8625,8137 8625,5926 8796,5827 8796,6250 Z M 9394,5652 L 9394,6235 8811,6235 8811,5819 9100,5652 9394,5652 Z"/>
     <path fill="rgb(134,134,134)" stroke="none" d="M 8811,6235 L 9394,6235 9394,5652 9100,5652 10220,5005 10220,7216 8625,8137 8625,5926 8811,5819 8811,6235 Z M 9379,5667 L 9379,6220 8826,6220 8826,5810 9074,5667 9379,5667 Z"/>
     <path fill="rgb(135,135,135)" stroke="none" d="M 8826,6220 L 9379,6220 9379,5667 9074,5667 10220,5005 10220,7216 8625,8137 8625,5926 8826,5810 8826,6220 Z M 9363,5683 L 9363,6204 8842,6204 8842,5801 9046,5683 9363,5683 Z"/>
     <path fill="rgb(136,136,136)" stroke="none" d="M 8842,6204 L 9363,6204 9363,5683 9046,5683 10220,5005 10220,7216 8625,8137 8625,5926 8842,5801 8842,6204 Z M 9348,5698 L 9348,6189 8857,6189 8857,5792 9020,5698 9348,5698 Z"/>
     <path fill="rgb(137,137,137)" stroke="none" d="M 8857,6189 L 9348,6189 9348,5698 9020,5698 10220,5005 10220,7216 8625,8137 8625,5926 8857,5792 8857,6189 Z M 9333,5713 L 9333,6174 8872,6174 8872,5783 8994,5713 9333,5713 Z"/>
     <path fill="rgb(138,138,138)" stroke="none" d="M 8872,6174 L 9333,6174 9333,5713 8994,5713 10220,5005 10220,7216 8625,8137 8625,5926 8872,5783 8872,6174 Z M 9317,5729 L 9317,6158 8888,6158 8888,5774 8966,5729 9317,5729 Z"/>
     <path fill="rgb(139,139,139)" stroke="none" d="M 8888,6158 L 9317,6158 9317,5729 8966,5729 10220,5005 10220,7216 8625,8137 8625,5926 8888,5774 8888,6158 Z M 9302,5744 L 9302,6143 8903,6143 8903,5765 8940,5744 9302,5744 Z"/>
     <path fill="rgb(140,140,140)" stroke="none" d="M 8903,6143 L 9302,6143 9302,5744 8940,5744 10220,5005 10220,7216 8625,8137 8625,5926 8903,5765 8903,6143 Z M 8919,5760 L 9286,5760 9286,6127 8919,6127 8919,5760 Z"/>
     <path fill="rgb(141,141,141)" stroke="none" d="M 8919,5760 L 8919,6127 9286,6127 9286,5760 8919,5760 Z M 8934,5775 L 9271,5775 9271,6112 8934,6112 8934,5775 Z M 8625,8137 L 8625,5926 10220,5005 10220,7216 8625,8137 Z"/>
     <path fill="rgb(142,142,142)" stroke="none" d="M 8934,5775 L 8934,6112 9271,6112 9271,5775 8934,5775 Z M 8949,5790 L 9256,5790 9256,6097 8949,6097 8949,5790 Z M 8625,8137 L 8625,5926 10220,5005 10220,7216 8625,8137 Z"/>
     <path fill="rgb(143,143,143)" stroke="none" d="M 8949,5790 L 8949,6097 9256,6097 9256,5790 8949,5790 Z M 8965,5806 L 9240,5806 9240,6081 8965,6081 8965,5806 Z M 8625,8137 L 8625,5926 10220,5005 10220,7216 8625,8137 Z"/>
     <path fill="rgb(144,144,144)" stroke="none" d="M 8965,5806 L 8965,6081 9240,6081 9240,5806 8965,5806 Z M 8980,5821 L 9225,5821 9225,6066 8980,6066 8980,5821 Z M 8625,8137 L 8625,5926 10220,5005 10220,7216 8625,8137 Z"/>
     <path fill="rgb(145,145,145)" stroke="none" d="M 8980,5821 L 8980,6066 9225,6066 9225,5821 8980,5821 Z M 8995,5836 L 9210,5836 9210,6051 8995,6051 8995,5836 Z M 8625,8137 L 8625,5926 10220,5005 10220,7216 8625,8137 Z"/>
     <path fill="rgb(146,146,146)" stroke="none" d="M 8995,5836 L 8995,6051 9210,6051 9210,5836 8995,5836 Z M 9011,5852 L 9194,5852 9194,6035 9011,6035 9011,5852 Z M 8625,8137 L 8625,5926 10220,5005 10220,7216 8625,8137 Z"/>
     <path fill="rgb(147,147,147)" stroke="none" d="M 9011,5852 L 9011,6035 9194,6035 9194,5852 9011,5852 Z M 9026,5867 L 9179,5867 9179,6020 9026,6020 9026,5867 Z M 8625,8137 L 8625,5926 10220,5005 10220,7216 8625,8137 Z"/>
     <path fill="rgb(148,148,148)" stroke="none" d="M 9026,5867 L 9026,6020 9179,6020 9179,5867 9026,5867 Z M 9042,5883 L 9163,5883 9163,6004 9042,6004 9042,5883 Z M 8625,8137 L 8625,5926 10220,5005 10220,7216 8625,8137 Z"/>
     <path fill="rgb(149,149,149)" stroke="none" d="M 9042,5883 L 9042,6004 9163,6004 9163,5883 9042,5883 Z M 9057,5898 L 9148,5898 9148,5989 9057,5989 9057,5898 Z M 8625,8137 L 8625,5926 10220,5005 10220,7216 8625,8137 Z"/>
     <path fill="rgb(150,150,150)" stroke="none" d="M 9057,5898 L 9057,5989 9148,5989 9148,5898 9057,5898 Z M 9072,5913 L 9133,5913 9133,5974 9072,5974 9072,5913 Z M 8625,8137 L 8625,5926 10220,5005 10220,7216 8625,8137 Z"/>
     <path fill="rgb(151,151,151)" stroke="none" d="M 9072,5913 L 9072,5974 9133,5974 9133,5913 9072,5913 Z M 9088,5929 L 9117,5929 9117,5958 9088,5958 9088,5929 Z M 8625,8137 L 8625,5926 10220,5005 10220,7216 8625,8137 Z"/>
     <path fill="rgb(153,153,153)" stroke="none" d="M 9088,5929 L 9088,5958 9117,5958 9117,5929 9088,5929 Z M 8625,8137 L 8625,5926 10220,5005 10220,7216 8625,8137 Z"/>
     <path fill="none" stroke="rgb(178,178,178)" id="Drawing_3_0" stroke-width="40" stroke-linejoin="round" d="M 8625,8137 L 8625,5926 10220,5005 10220,7216 8625,8137 Z"/>
    </g>
    <g>
     <defs>
      <linearGradient id="Gradient_605" gradientUnits="userSpaceOnUse" x1="9104" y1="4637" x2="9104" y2="5926">
       <stop offset="0.1" stop-color="rgb(51,51,51)"/>
       <stop offset="1" stop-color="rgb(153,153,153)"/>
      </linearGradient>
     </defs>
     <path fill="url(#Gradient_605)" stroke="rgb(178,178,178)" id="Drawing_4_0" stroke-width="40" stroke-linejoin="round" d="M 8625,5926 L 7987,5558 9582,4637 10221,5005 8625,5926 Z"/>
    </g>
    <g>
     <path fill="none" stroke="rgb(0,0,0)" id="Drawing_5_0" stroke-width="40" stroke-linejoin="round" d="M 7987,7769 L 7987,5558 9582,4637 10221,5005 10221,7216 8625,8137 7987,7769 Z"/>
    </g>
    <g>
     <path fill="rgb(0,0,0)" stroke="none" d="M 9263,4913 L 9582,4729 9741,4821 9422,5005 9263,4913 Z"/>
     <path fill="none" stroke="rgb(178,178,178)" id="Drawing_6_0" stroke-width="40" stroke-linejoin="round" d="M 9263,4913 L 9582,4729 9741,4821 9422,5005 9263,4913 Z"/>
    </g>
    <g>
     <path fill="rgb(255,255,255)" stroke="none" d="M 8146,7722 L 8146,5788 8465,5972 8465,7906 8146,7722 Z"/>
     <path fill="none" stroke="rgb(255,255,255)" id="Drawing_7_0" stroke-width="40" stroke-linejoin="round" d="M 8146,7722 L 8146,5788 8465,5972 8465,7906 8146,7722 Z"/>
    </g>
    <g>
     <path fill="rgb(0,0,0)" stroke="none" d="M 8864,5143 L 9183,4959 9502,5143 9183,5327 8864,5143 Z"/>
     <path fill="none" stroke="rgb(178,178,178)" id="Drawing_8_0" stroke-width="40" stroke-linejoin="round" d="M 8864,5143 L 9183,4959 9502,5143 9183,5327 8864,5143 Z"/>
    </g>
    <g>
     <path fill="rgb(0,0,0)" stroke="none" d="M 8625,5282 L 8784,5190 9103,5374 8944,5466 8625,5282 Z"/>
     <path fill="none" stroke="rgb(178,178,178)" id="Drawing_9_0" stroke-width="40" stroke-linejoin="round" d="M 8625,5282 L 8784,5190 9103,5374 8944,5466 8625,5282 Z"/>
    </g>
    <g>
     <path fill="rgb(0,0,0)" stroke="none" d="M 8305,5466 L 8544,5328 8784,5466 8544,5604 8305,5466 Z"/>
     <path fill="none" stroke="rgb(178,178,178)" id="Drawing_10_0" stroke-width="40" stroke-linejoin="round" d="M 8305,5466 L 8544,5328 8784,5466 8544,5604 8305,5466 Z"/>
    </g>
    <g>
     <path fill="rgb(255,51,51)" stroke="none" d="M 8226,7676 L 8226,7538 8306,7584 8306,7722 8226,7676 Z"/>
     <path fill="none" stroke="rgb(51,51,51)" id="Drawing_11_0" stroke-width="40" stroke-linejoin="round" d="M 8226,7676 L 8226,7538 8306,7584 8306,7722 8226,7676 Z"/>
    </g>
    <g>
     <path fill="rgb(153,255,102)" stroke="none" d="M 8226,7446 L 8226,7308 8306,7354 8306,7492 8226,7446 Z"/>
     <path fill="none" stroke="rgb(51,51,51)" id="Drawing_12_0" stroke-width="40" stroke-linejoin="round" d="M 8226,7446 L 8226,7308 8306,7354 8306,7492 8226,7446 Z"/>
    </g>
   </g>
  </g>
 </g>
</svg>