<?xml version="1.0" encoding="UTF-8"?>

<svg version="1.2" baseProfile="tiny" width="20.76mm" height="23.5mm" viewBox="7609 10769 2076 2350" preserveAspectRatio="xMidYMid" fill-rule="evenodd" stroke-width="28.222" stroke-linejoin="round" xmlns="http://www.w3.org/2000/svg" xmlns:xlink="http://www.w3.org/1999/xlink" xml:space="preserve">
 <g visibility="visible" id="Slide_1">
  <g id="DrawingGroup_1">
   <g>
    <path fill="rgb(221,221,221)" stroke="none" d="M 8771,13099 C 8928,13099 9684,13000 9684,12868 9684,12736 9499,12505 9342,12505 9342,12604 8771,12967 8771,13099 Z"/>
    <path fill="none" stroke="rgb(221,221,221)" id="Drawing_1_0" stroke-linejoin="round" d="M 8771,13099 C 8928,13099 9684,13000 9684,12868 9684,12736 9499,12505 9342,12505 9342,12604 8771,12967 8771,13099 Z"/>
   </g>
   <g id="DrawingGroup_2">
    <g>
     <defs>
      <linearGradient id="Gradient_824" gradientUnits="userSpaceOnUse" x1="8485" y1="10789" x2="8485" y2="11779">
       <stop offset="0.1" stop-color="rgb(179,179,179)"/>
       <stop offset="1" stop-color="rgb(229,229,229)"/>
      </linearGradient>
     </defs>
     <path fill="url(#Gradient_824)" stroke="rgb(255,255,255)" id="Drawing_2_0" stroke-width="40" stroke-linejoin="round" d="M 8200,10789 L 7629,11119 7629,11449 8200,11779 8771,11779 9342,11449 8200,10789 Z"/>
    </g>
    <g>
     <path fill="rgb(51,51,51)" stroke="none" d="M 8771,12725 L 8771,12274 9342,11944 9342,12604 9133,12725 8771,12725 Z"/>
     <path fill="rgb(53,53,53)" stroke="none" d="M 9133,12725 L 8771,12934 8771,12725 9133,12725 Z M 8771,12715 L 8771,12274 9342,11944 9342,12604 9150,12715 8771,12715 Z"/>
     <path fill="rgb(55,55,55)" stroke="none" d="M 9150,12715 L 8771,12934 8771,12715 9150,12715 Z M 8771,12705 L 8771,12274 9342,11944 9342,12604 9167,12705 8771,12705 Z"/>
     <path fill="rgb(57,57,57)" stroke="none" d="M 9167,12705 L 8771,12934 8771,12705 9167,12705 Z M 8771,12695 L 8771,12274 9342,11944 9342,12604 9185,12695 8771,12695 Z"/>
     <path fill="rgb(59,59,59)" stroke="none" d="M 9185,12695 L 8771,12934 8771,12695 9185,12695 Z M 8771,12685 L 8771,12274 9342,11944 9342,12604 9202,12685 8771,12685 Z"/>
     <path fill="rgb(61,61,61)" stroke="none" d="M 9202,12685 L 8771,12934 8771,12685 9202,12685 Z M 8771,12675 L 8771,12274 9342,11944 9342,12604 9219,12675 8771,12675 Z"/>
     <path fill="rgb(63,63,63)" stroke="none" d="M 9219,12675 L 8771,12934 8771,12675 9219,12675 Z M 8771,12665 L 8771,12274 9342,11944 9342,12604 9236,12665 8771,12665 Z"/>
     <path fill="rgb(65,65,65)" stroke="none" d="M 9236,12665 L 8771,12934 8771,12665 9236,12665 Z M 8771,12654 L 8771,12274 9342,11944 9342,12604 9255,12654 8771,12654 Z"/>
     <path fill="rgb(67,67,67)" stroke="none" d="M 9255,12654 L 8771,12934 8771,12654 9255,12654 Z M 8771,12644 L 8771,12274 9342,11944 9342,12604 9273,12644 8771,12644 Z"/>
     <path fill="rgb(69,69,69)" stroke="none" d="M 9273,12644 L 8771,12934 8771,12644 9273,12644 Z M 9336,12607 L 9290,12634 8771,12634 8771,12274 9336,11947 9336,12607 Z"/>
     <path fill="rgb(71,71,71)" stroke="none" d="M 9290,12634 L 8771,12934 8771,12634 9290,12634 Z M 9336,11947 L 9342,11944 9342,12604 9336,12607 9336,11947 Z M 9326,12613 L 9307,12624 8771,12624 8771,12274 9326,11953 9326,12613 Z"/>
     <path fill="rgb(73,73,73)" stroke="none" d="M 9307,12624 L 8771,12934 8771,12624 9307,12624 Z M 9326,11953 L 9342,11944 9342,12604 9326,12613 9326,11953 Z M 9316,12614 L 8771,12614 8771,12274 9316,11959 9316,12614 Z"/>
     <path fill="rgb(75,75,75)" stroke="none" d="M 9316,12614 L 9316,11959 9342,11944 9342,12604 8771,12934 8771,12614 9316,12614 Z M 9306,12604 L 8771,12604 8771,12274 9306,11965 9306,12604 Z"/>
     <path fill="rgb(78,78,78)" stroke="none" d="M 9306,12604 L 9306,11965 9342,11944 9342,12604 8771,12934 8771,12604 9306,12604 Z M 9296,12594 L 8771,12594 8771,12274 9296,11971 9296,12594 Z"/>
     <path fill="rgb(80,80,80)" stroke="none" d="M 9296,12594 L 9296,11971 9342,11944 9342,12604 8771,12934 8771,12594 9296,12594 Z M 9286,12584 L 8771,12584 8771,12274 9286,11976 9286,12584 Z"/>
     <path fill="rgb(82,82,82)" stroke="none" d="M 9286,12584 L 9286,11976 9342,11944 9342,12604 8771,12934 8771,12584 9286,12584 Z M 9275,12573 L 8771,12573 8771,12274 9275,11983 9275,12573 Z"/>
     <path fill="rgb(84,84,84)" stroke="none" d="M 9275,12573 L 9275,11983 9342,11944 9342,12604 8771,12934 8771,12573 9275,12573 Z M 9265,12563 L 8771,12563 8771,12274 9265,11989 9265,12563 Z"/>
     <path fill="rgb(86,86,86)" stroke="none" d="M 9265,12563 L 9265,11989 9342,11944 9342,12604 8771,12934 8771,12563 9265,12563 Z M 9255,12553 L 8771,12553 8771,12274 9255,11994 9255,12553 Z"/>
     <path fill="rgb(88,88,88)" stroke="none" d="M 9255,12553 L 9255,11994 9342,11944 9342,12604 8771,12934 8771,12553 9255,12553 Z M 9245,12543 L 8771,12543 8771,12274 9245,12000 9245,12543 Z"/>
     <path fill="rgb(90,90,90)" stroke="none" d="M 9245,12543 L 9245,12000 9342,11944 9342,12604 8771,12934 8771,12543 9245,12543 Z M 9235,12533 L 8771,12533 8771,12274 9235,12006 9235,12533 Z"/>
     <path fill="rgb(92,92,92)" stroke="none" d="M 9235,12533 L 9235,12006 9342,11944 9342,12604 8771,12934 8771,12533 9235,12533 Z M 9225,12523 L 8771,12523 8771,12274 9225,12012 9225,12523 Z"/>
     <path fill="rgb(94,94,94)" stroke="none" d="M 9225,12523 L 9225,12012 9342,11944 9342,12604 8771,12934 8771,12523 9225,12523 Z M 9215,12513 L 8771,12513 8771,12274 9215,12017 9215,12513 Z"/>
     <path fill="rgb(96,96,96)" stroke="none" d="M 9215,12513 L 9215,12017 9342,11944 9342,12604 8771,12934 8771,12513 9215,12513 Z M 9204,12502 L 8771,12502 8771,12274 9204,12024 9204,12502 Z"/>
     <path fill="rgb(98,98,98)" stroke="none" d="M 9204,12502 L 9204,12024 9342,11944 9342,12604 8771,12934 8771,12502 9204,12502 Z M 9194,12492 L 8771,12492 8771,12274 9194,12030 9194,12492 Z"/>
     <path fill="rgb(100,100,100)" stroke="none" d="M 9194,12492 L 9194,12030 9342,11944 9342,12604 8771,12934 8771,12492 9194,12492 Z M 9184,12482 L 8771,12482 8771,12274 9184,12035 9184,12482 Z"/>
     <path fill="rgb(103,103,103)" stroke="none" d="M 9184,12482 L 9184,12035 9342,11944 9342,12604 8771,12934 8771,12482 9184,12482 Z M 9174,12472 L 8771,12472 8771,12274 9174,12041 9174,12472 Z"/>
     <path fill="rgb(105,105,105)" stroke="none" d="M 9174,12472 L 9174,12041 9342,11944 9342,12604 8771,12934 8771,12472 9174,12472 Z M 9164,12462 L 8771,12462 8771,12274 9164,12047 9164,12462 Z"/>
     <path fill="rgb(107,107,107)" stroke="none" d="M 9164,12462 L 9164,12047 9342,11944 9342,12604 8771,12934 8771,12462 9164,12462 Z M 9154,12452 L 8771,12452 8771,12274 9154,12053 9154,12452 Z"/>
     <path fill="rgb(109,109,109)" stroke="none" d="M 9154,12452 L 9154,12053 9342,11944 9342,12604 8771,12934 8771,12452 9154,12452 Z M 9144,12442 L 8771,12442 8771,12274 9144,12058 9144,12442 Z"/>
     <path fill="rgb(111,111,111)" stroke="none" d="M 9144,12442 L 9144,12058 9342,11944 9342,12604 8771,12934 8771,12442 9144,12442 Z M 9134,12432 L 8771,12432 8771,12274 9134,12064 9134,12432 Z"/>
     <path fill="rgb(113,113,113)" stroke="none" d="M 9134,12432 L 9134,12064 9342,11944 9342,12604 8771,12934 8771,12432 9134,12432 Z M 9123,12421 L 8771,12421 8771,12274 9123,12071 9123,12421 Z"/>
     <path fill="rgb(115,115,115)" stroke="none" d="M 9123,12421 L 9123,12071 9342,11944 9342,12604 8771,12934 8771,12421 9123,12421 Z M 9113,12411 L 8771,12411 8771,12274 9113,12076 9113,12411 Z"/>
     <path fill="rgb(117,117,117)" stroke="none" d="M 9113,12411 L 9113,12076 9342,11944 9342,12604 8771,12934 8771,12411 9113,12411 Z M 9103,12401 L 8780,12401 8780,12269 9103,12082 9103,12401 Z"/>
     <path fill="rgb(119,119,119)" stroke="none" d="M 8780,12401 L 9103,12401 9103,12082 9342,11944 9342,12604 8771,12934 8771,12274 8780,12269 8780,12401 Z M 9093,12088 L 9093,12391 8790,12391 8790,12263 9093,12088 9093,12088 Z"/>
     <path fill="rgb(121,121,121)" stroke="none" d="M 8790,12391 L 9093,12391 9093,12088 9093,12088 9342,11944 9342,12604 8771,12934 8771,12274 8790,12263 8790,12391 Z M 9083,12098 L 9083,12381 8800,12381 8800,12257 9076,12098 9083,12098 Z"/>
     <path fill="rgb(123,123,123)" stroke="none" d="M 8800,12381 L 9083,12381 9083,12098 9076,12098 9342,11944 9342,12604 8771,12934 8771,12274 8800,12257 8800,12381 Z M 9073,12108 L 9073,12371 8810,12371 8810,12251 9058,12108 9073,12108 Z"/>
     <path fill="rgb(125,125,125)" stroke="none" d="M 8810,12371 L 9073,12371 9073,12108 9058,12108 9342,11944 9342,12604 8771,12934 8771,12274 8810,12251 8810,12371 Z M 9063,12118 L 9063,12361 8820,12361 8820,12246 9041,12118 9063,12118 Z"/>
     <path fill="rgb(128,128,128)" stroke="none" d="M 8820,12361 L 9063,12361 9063,12118 9041,12118 9342,11944 9342,12604 8771,12934 8771,12274 8820,12246 8820,12361 Z M 9052,12129 L 9052,12350 8831,12350 8831,12239 9022,12129 9052,12129 Z"/>
     <path fill="rgb(130,130,130)" stroke="none" d="M 8831,12350 L 9052,12350 9052,12129 9022,12129 9342,11944 9342,12604 8771,12934 8771,12274 8831,12239 8831,12350 Z M 9042,12139 L 9042,12340 8841,12340 8841,12234 9005,12139 9042,12139 Z"/>
     <path fill="rgb(132,132,132)" stroke="none" d="M 8841,12340 L 9042,12340 9042,12139 9005,12139 9342,11944 9342,12604 8771,12934 8771,12274 8841,12234 8841,12340 Z M 9032,12149 L 9032,12330 8851,12330 8851,12228 8987,12149 9032,12149 Z"/>
     <path fill="rgb(134,134,134)" stroke="none" d="M 8851,12330 L 9032,12330 9032,12149 8987,12149 9342,11944 9342,12604 8771,12934 8771,12274 8851,12228 8851,12330 Z M 9022,12159 L 9022,12320 8861,12320 8861,12222 8970,12159 9022,12159 Z"/>
     <path fill="rgb(136,136,136)" stroke="none" d="M 8861,12320 L 9022,12320 9022,12159 8970,12159 9342,11944 9342,12604 8771,12934 8771,12274 8861,12222 8861,12320 Z M 9012,12169 L 9012,12310 8871,12310 8871,12216 8953,12169 9012,12169 Z"/>
     <path fill="rgb(138,138,138)" stroke="none" d="M 8871,12310 L 9012,12310 9012,12169 8953,12169 9342,11944 9342,12604 8771,12934 8771,12274 8871,12216 8871,12310 Z M 9002,12179 L 9002,12300 8881,12300 8881,12210 8935,12179 9002,12179 Z"/>
     <path fill="rgb(140,140,140)" stroke="none" d="M 8881,12300 L 9002,12300 9002,12179 8935,12179 9342,11944 9342,12604 8771,12934 8771,12274 8881,12210 8881,12300 Z M 8992,12189 L 8992,12290 8891,12290 8891,12205 8918,12189 8992,12189 Z"/>
     <path fill="rgb(142,142,142)" stroke="none" d="M 8891,12290 L 8992,12290 8992,12189 8918,12189 9342,11944 9342,12604 8771,12934 8771,12274 8891,12205 8891,12290 Z M 8901,12199 L 8982,12199 8982,12280 8901,12280 8901,12199 Z"/>
     <path fill="rgb(144,144,144)" stroke="none" d="M 8901,12199 L 8901,12280 8982,12280 8982,12199 8901,12199 Z M 8912,12210 L 8971,12210 8971,12269 8912,12269 8912,12210 Z M 9342,12604 L 8771,12934 8771,12274 9342,11944 9342,12604 Z"/>
     <path fill="rgb(146,146,146)" stroke="none" d="M 8912,12210 L 8912,12269 8971,12269 8971,12210 8912,12210 Z M 8922,12220 L 8961,12220 8961,12259 8922,12259 8922,12220 Z M 9342,12604 L 8771,12934 8771,12274 9342,11944 9342,12604 Z"/>
     <path fill="rgb(148,148,148)" stroke="none" d="M 8922,12220 L 8922,12259 8961,12259 8961,12220 8922,12220 Z M 8932,12230 L 8951,12230 8951,12249 8932,12249 8932,12230 Z M 9342,12604 L 8771,12934 8771,12274 9342,11944 9342,12604 Z"/>
     <path fill="rgb(153,153,153)" stroke="none" d="M 8932,12230 L 8932,12249 8951,12249 8951,12230 8932,12230 Z M 9342,12604 L 8771,12934 8771,12274 9342,11944 9342,12604 Z"/>
     <path fill="none" stroke="rgb(178,178,178)" id="Drawing_3_0" stroke-width="40" stroke-linejoin="round" d="M 9342,12604 L 9342,11944 8771,12274 8771,12934 9342,12604 Z"/>
    </g>
    <g>
     <defs>
      <linearGradient id="Gradient_825" gradientUnits="userSpaceOnUse" x1="8484" y1="12934" x2="8486" y2="12274">
       <stop offset="0.1" stop-color="rgb(102,102,102)"/>
       <stop offset="1" stop-color="rgb(153,153,153)"/>
      </linearGradient>
     </defs>
     <path fill="url(#Gradient_825)" stroke="rgb(178,178,178)" id="Drawing_4_0" stroke-width="40" stroke-linejoin="round" d="M 8771,12934 L 8771,12274 8200,12274 8200,12934 8771,12934 Z"/>
    </g>
    <g>
     <defs>
      <linearGradient id="Gradient_826" gradientUnits="userSpaceOnUse" x1="7913" y1="12934" x2="7915" y2="11944">
       <stop offset="0.1" stop-color="rgb(102,102,102)"/>
       <stop offset="1" stop-color="rgb(153,153,153)"/>
      </linearGradient>
     </defs>
     <path fill="url(#Gradient_826)" stroke="rgb(178,178,178)" id="Drawing_5_0" stroke-width="40" stroke-linejoin="round" d="M 8200,12934 L 8200,12274 7629,11944 7629,12604 8200,12934 Z"/>
    </g>
    <g>
     <path fill="rgb(179,179,179)" stroke="none" d="M 8771,12098 L 8771,11779 9342,11449 9342,11944 9076,12098 8771,12098 Z"/>
     <path fill="rgb(180,180,180)" stroke="none" d="M 9076,12098 L 8771,12274 8771,12098 9076,12098 Z M 9334,11949 L 9093,12088 8771,12088 8771,11779 9334,11454 9334,11949 Z"/>
     <path fill="rgb(181,181,181)" stroke="none" d="M 9093,12088 L 8771,12274 8771,12088 9093,12088 Z M 9334,11454 L 9342,11449 9342,11944 9334,11949 9334,11454 Z M 9324,11954 L 9110,12078 8771,12078 8771,11779 9324,11459 9324,11954 Z"/>
     <path fill="rgb(182,182,182)" stroke="none" d="M 9110,12078 L 8771,12274 8771,12078 9110,12078 Z M 9324,11459 L 9342,11449 9342,11944 9324,11954 9324,11459 Z M 9314,11960 L 9127,12068 8771,12068 8771,11779 9314,11465 9314,11960 Z"/>
     <path fill="rgb(183,183,183)" stroke="none" d="M 9127,12068 L 8771,12274 8771,12068 9127,12068 Z M 9314,11465 L 9342,11449 9342,11944 9314,11960 9314,11465 Z M 9304,11966 L 9145,12058 8771,12058 8771,11779 9304,11471 9304,11966 Z"/>
     <path fill="rgb(185,185,185)" stroke="none" d="M 9145,12058 L 8771,12274 8771,12058 9145,12058 Z M 9304,11471 L 9342,11449 9342,11944 9304,11966 9304,11471 Z M 9294,11972 L 9162,12048 8771,12048 8771,11779 9294,11477 9294,11972 Z"/>
     <path fill="rgb(186,186,186)" stroke="none" d="M 9162,12048 L 8771,12274 8771,12048 9162,12048 Z M 9294,11477 L 9342,11449 9342,11944 9294,11972 9294,11477 Z M 9284,11978 L 9179,12038 8771,12038 8771,11779 9284,11483 9284,11978 Z"/>
     <path fill="rgb(187,187,187)" stroke="none" d="M 9179,12038 L 8771,12274 8771,12038 9179,12038 Z M 9284,11483 L 9342,11449 9342,11944 9284,11978 9284,11483 Z M 9274,11983 L 9197,12028 8771,12028 8771,11779 9274,11488 9274,11983 Z"/>
     <path fill="rgb(188,188,188)" stroke="none" d="M 9197,12028 L 8771,12274 8771,12028 9197,12028 Z M 9274,11488 L 9342,11449 9342,11944 9274,11983 9274,11488 Z M 9264,11989 L 9214,12018 8771,12018 8771,11779 9264,11494 9264,11989 Z"/>
     <path fill="rgb(189,189,189)" stroke="none" d="M 9214,12018 L 8771,12274 8771,12018 9214,12018 Z M 9264,11494 L 9342,11449 9342,11944 9264,11989 9264,11494 Z M 9254,11995 L 9231,12008 8771,12008 8771,11779 9254,11500 9254,11995 Z"/>
     <path fill="rgb(191,191,191)" stroke="none" d="M 9231,12008 L 8771,12274 8771,12008 9231,12008 Z M 9254,11500 L 9342,11449 9342,11944 9254,11995 9254,11500 Z M 9243,11997 L 8771,11997 8771,11779 9243,11506 9243,11997 Z"/>
     <path fill="rgb(192,192,192)" stroke="none" d="M 9243,11997 L 9243,11506 9342,11449 9342,11944 8771,12274 8771,11997 9243,11997 Z M 9233,11987 L 8771,11987 8771,11779 9233,11512 9233,11987 Z"/>
     <path fill="rgb(193,193,193)" stroke="none" d="M 9233,11987 L 9233,11512 9342,11449 9342,11944 8771,12274 8771,11987 9233,11987 Z M 9223,11977 L 8771,11977 8771,11779 9223,11518 9223,11977 Z"/>
     <path fill="rgb(194,194,194)" stroke="none" d="M 9223,11977 L 9223,11518 9342,11449 9342,11944 8771,12274 8771,11977 9223,11977 Z M 9213,11967 L 8771,11967 8771,11779 9213,11524 9213,11967 Z"/>
     <path fill="rgb(196,196,196)" stroke="none" d="M 9213,11967 L 9213,11524 9342,11449 9342,11944 8771,12274 8771,11967 9213,11967 Z M 9203,11957 L 8771,11957 8771,11779 9203,11529 9203,11957 Z"/>
     <path fill="rgb(197,197,197)" stroke="none" d="M 9203,11957 L 9203,11529 9342,11449 9342,11944 8771,12274 8771,11957 9203,11957 Z M 9193,11947 L 8771,11947 8771,11779 9193,11535 9193,11947 Z"/>
     <path fill="rgb(198,198,198)" stroke="none" d="M 9193,11947 L 9193,11535 9342,11449 9342,11944 8771,12274 8771,11947 9193,11947 Z M 9183,11937 L 8771,11937 8771,11779 9183,11541 9183,11937 Z"/>
     <path fill="rgb(199,199,199)" stroke="none" d="M 9183,11937 L 9183,11541 9342,11449 9342,11944 8771,12274 8771,11937 9183,11937 Z M 9173,11927 L 8771,11927 8771,11779 9173,11547 9173,11927 Z"/>
     <path fill="rgb(200,200,200)" stroke="none" d="M 9173,11927 L 9173,11547 9342,11449 9342,11944 8771,12274 8771,11927 9173,11927 Z M 9163,11917 L 8771,11917 8771,11779 9163,11552 9163,11917 Z"/>
     <path fill="rgb(202,202,202)" stroke="none" d="M 9163,11917 L 9163,11552 9342,11449 9342,11944 8771,12274 8771,11917 9163,11917 Z M 9153,11907 L 8771,11907 8771,11779 9153,11558 9153,11907 Z"/>
     <path fill="rgb(203,203,203)" stroke="none" d="M 9153,11907 L 9153,11558 9342,11449 9342,11944 8771,12274 8771,11907 9153,11907 Z M 9142,11896 L 8771,11896 8771,11779 9142,11565 9142,11896 Z"/>
     <path fill="rgb(204,204,204)" stroke="none" d="M 9142,11896 L 9142,11565 9342,11449 9342,11944 8771,12274 8771,11896 9142,11896 Z M 9132,11886 L 8771,11886 8771,11779 9132,11570 9132,11886 Z"/>
     <path fill="rgb(205,205,205)" stroke="none" d="M 9132,11886 L 9132,11570 9342,11449 9342,11944 8771,12274 8771,11886 9132,11886 Z M 9122,11876 L 8771,11876 8771,11779 9122,11576 9122,11876 Z"/>
     <path fill="rgb(207,207,207)" stroke="none" d="M 9122,11876 L 9122,11576 9342,11449 9342,11944 8771,12274 8771,11876 9122,11876 Z M 9112,11866 L 8771,11866 8771,11779 9112,11582 9112,11866 Z"/>
     <path fill="rgb(208,208,208)" stroke="none" d="M 9112,11866 L 9112,11582 9342,11449 9342,11944 8771,12274 8771,11866 9112,11866 Z M 9102,11856 L 8780,11856 8780,11774 9102,11588 9102,11856 Z"/>
     <path fill="rgb(209,209,209)" stroke="none" d="M 8780,11856 L 9102,11856 9102,11588 9342,11449 9342,11944 8771,12274 8771,11779 8780,11774 8780,11856 Z M 9092,11846 L 8790,11846 8790,11768 9092,11593 9092,11846 Z"/>
     <path fill="rgb(210,210,210)" stroke="none" d="M 8790,11846 L 9092,11846 9092,11593 9342,11449 9342,11944 8771,12274 8771,11779 8790,11768 8790,11846 Z M 9082,11836 L 8800,11836 8800,11762 9082,11599 9082,11836 Z"/>
     <path fill="rgb(211,211,211)" stroke="none" d="M 8800,11836 L 9082,11836 9082,11599 9342,11449 9342,11944 8771,12274 8771,11779 8800,11762 8800,11836 Z M 9072,11826 L 8810,11826 8810,11756 9072,11605 9072,11826 Z"/>
     <path fill="rgb(213,213,213)" stroke="none" d="M 8810,11826 L 9072,11826 9072,11605 9342,11449 9342,11944 8771,12274 8771,11779 8810,11756 8810,11826 Z M 9062,11816 L 8820,11816 8820,11751 9062,11611 9062,11816 Z"/>
     <path fill="rgb(214,214,214)" stroke="none" d="M 8820,11816 L 9062,11816 9062,11611 9342,11449 9342,11944 8771,12274 8771,11779 8820,11751 8820,11816 Z M 9052,11806 L 8830,11806 8830,11745 9052,11617 9052,11806 Z"/>
     <path fill="rgb(215,215,215)" stroke="none" d="M 8830,11806 L 9052,11806 9052,11617 9342,11449 9342,11944 8771,12274 8771,11779 8830,11745 8830,11806 Z M 9041,11795 L 8841,11795 8841,11739 9041,11623 9041,11795 Z"/>
     <path fill="rgb(216,216,216)" stroke="none" d="M 8841,11795 L 9041,11795 9041,11623 9342,11449 9342,11944 8771,12274 8771,11779 8841,11739 8841,11795 Z M 9031,11785 L 8851,11785 8851,11733 9031,11629 9031,11785 Z"/>
     <path fill="rgb(218,218,218)" stroke="none" d="M 8851,11785 L 9031,11785 9031,11629 9342,11449 9342,11944 8771,12274 8771,11779 8851,11733 8851,11785 Z M 9021,11775 L 8861,11775 8861,11727 9021,11635 9021,11775 Z"/>
     <path fill="rgb(219,219,219)" stroke="none" d="M 8861,11775 L 9021,11775 9021,11635 9342,11449 9342,11944 8771,12274 8771,11779 8861,11727 8861,11775 Z M 9011,11765 L 8871,11765 8871,11721 9011,11640 9011,11765 Z"/>
     <path fill="rgb(220,220,220)" stroke="none" d="M 8871,11765 L 9011,11765 9011,11640 9342,11449 9342,11944 8771,12274 8771,11779 8871,11721 8871,11765 Z M 9001,11755 L 8881,11755 8881,11715 9001,11646 9001,11755 Z"/>
     <path fill="rgb(221,221,221)" stroke="none" d="M 8881,11755 L 9001,11755 9001,11646 9342,11449 9342,11944 8771,12274 8771,11779 8881,11715 8881,11755 Z M 8991,11745 L 8891,11745 8891,11710 8991,11652 8991,11745 Z"/>
     <path fill="rgb(222,222,222)" stroke="none" d="M 8891,11745 L 8991,11745 8991,11652 9342,11449 9342,11944 8771,12274 8771,11779 8891,11710 8891,11745 Z M 8981,11735 L 8901,11735 8901,11704 8981,11658 8981,11735 Z"/>
     <path fill="rgb(224,224,224)" stroke="none" d="M 8901,11735 L 8981,11735 8981,11658 9342,11449 9342,11944 8771,12274 8771,11779 8901,11704 8901,11735 Z M 8971,11665 L 8971,11725 8911,11725 8911,11698 8968,11665 8971,11665 Z"/>
     <path fill="rgb(225,225,225)" stroke="none" d="M 8911,11725 L 8971,11725 8971,11665 8968,11665 9342,11449 9342,11944 8771,12274 8771,11779 8911,11698 8911,11725 Z M 8961,11675 L 8961,11715 8921,11715 8921,11692 8951,11675 8961,11675 Z"/>
     <path fill="rgb(226,226,226)" stroke="none" d="M 8921,11715 L 8961,11715 8961,11675 8951,11675 9342,11449 9342,11944 8771,12274 8771,11779 8921,11692 8921,11715 Z M 8951,11685 L 8951,11705 8931,11705 8931,11687 8934,11685 8951,11685 Z"/>
     <path fill="rgb(229,229,229)" stroke="none" d="M 8931,11705 L 8951,11705 8951,11685 8934,11685 9342,11449 9342,11944 8771,12274 8771,11779 8931,11687 8931,11705 Z"/>
     <path fill="none" stroke="rgb(255,255,255)" id="Drawing_6_0" stroke-width="40" stroke-linejoin="round" d="M 9342,11944 L 9342,11449 8771,11779 8771,12274 9342,11944 Z"/>
    </g>
    <g>
     <defs>
      <linearGradient id="Gradient_827" gradientUnits="userSpaceOnUse" x1="8485" y1="12274" x2="8485" y2="11779">
       <stop offset="0.1" stop-color="rgb(179,179,179)"/>
       <stop offset="1" stop-color="rgb(229,229,229)"/>
      </linearGradient>
     </defs>
     <path fill="url(#Gradient_827)" stroke="rgb(255,255,255)" id="Drawing_7_0" stroke-width="40" stroke-linejoin="round" d="M 8771,12274 L 8771,11779 8200,11779 8200,12274 8771,12274 Z"/>
    </g>
    <g>
     <defs>
      <linearGradient id="Gradient_828" gradientUnits="userSpaceOnUse" x1="7627" y1="11860" x2="8200" y2="11861">
       <stop offset="0.1" stop-color="rgb(179,179,179)"/>
       <stop offset="1" stop-color="rgb(229,229,229)"/>
      </linearGradient>
     </defs>
     <path fill="url(#Gradient_828)" stroke="rgb(255,255,255)" id="Drawing_8_0" stroke-width="40" stroke-linejoin="round" d="M 8200,12274 L 8200,11779 7629,11449 7629,11944 8200,12274 Z"/>
    </g>
    <g>
     <defs>
      <linearGradient id="Gradient_829" gradientUnits="userSpaceOnUse" x1="8770" y1="12851" x2="9341" y2="12851">
       <stop offset="0.1" stop-color="rgb(179,179,179)"/>
       <stop offset="1" stop-color="rgb(229,229,229)"/>
      </linearGradient>
     </defs>
     <path fill="url(#Gradient_829)" stroke="rgb(255,255,255)" id="Drawing_9_0" stroke-width="40" stroke-linejoin="round" d="M 9342,12769 L 9342,12604 8771,12934 8771,13099 9342,12769 Z"/>
    </g>
    <g>
     <defs>
      <linearGradient id="Gradient_830" gradientUnits="userSpaceOnUse" x1="8485" y1="13099" x2="8485" y2="12934">
       <stop offset="0.1" stop-color="rgb(179,179,179)"/>
       <stop offset="1" stop-color="rgb(229,229,229)"/>
      </linearGradient>
     </defs>
     <path fill="url(#Gradient_830)" stroke="rgb(255,255,255)" id="Drawing_10_0" stroke-width="40" stroke-linejoin="round" d="M 8771,13099 L 8771,12934 8200,12934 8200,13099 8771,13099 Z"/>
    </g>
    <g>
     <defs>
      <linearGradient id="Gradient_831" gradientUnits="userSpaceOnUse" x1="7628" y1="12851" x2="8199" y2="12851">
       <stop offset="0.1" stop-color="rgb(179,179,179)"/>
       <stop offset="1" stop-color="rgb(229,229,229)"/>
      </linearGradient>
     </defs>
     <path fill="url(#Gradient_831)" stroke="rgb(255,255,255)" id="Drawing_11_0" stroke-width="40" stroke-linejoin="round" d="M 8200,13099 L 8200,12934 7629,12604 7629,12769 8200,13099 Z"/>
    </g>
    <g>
     <path fill="none" stroke="rgb(0,0,0)" id="Drawing_12_0" stroke-width="40" stroke-linejoin="round" d="M 9342,12769 L 9342,11449 8200,10789 7629,11119 7629,12109 7629,12769 8200,13099 8771,13099 9342,12769 Z"/>
    </g>
   </g>
  </g>
 </g>
</svg>