<?xml version="1.0" encoding="UTF-8"?>

<svg version="1.2" baseProfile="tiny" width="20.76mm" height="23.5mm" viewBox="4774 5742 2076 2350" preserveAspectRatio="xMidYMid" fill-rule="evenodd" stroke-width="28.222" stroke-linejoin="round" xmlns="http://www.w3.org/2000/svg" xmlns:xlink="http://www.w3.org/1999/xlink" xml:space="preserve">
 <g visibility="visible" id="Slide_1">
  <g id="DrawingGroup_1">
   <g>
    <path fill="rgb(221,221,221)" stroke="none" d="M 5936,8072 C 6093,8072 6849,7973 6849,7841 6849,7709 6664,7478 6507,7478 6507,7577 5936,7940 5936,8072 Z"/>
    <path fill="none" stroke="rgb(221,221,221)" id="Drawing_1_0" stroke-linejoin="round" d="M 5936,8072 C 6093,8072 6849,7973 6849,7841 6849,7709 6664,7478 6507,7478 6507,7577 5936,7940 5936,8072 Z"/>
   </g>
   <g id="DrawingGroup_2">
    <g>
     <defs>
      <linearGradient id="Gradient_817" gradientUnits="userSpaceOnUse" x1="5650" y1="5762" x2="5650" y2="6752">
       <stop offset="0.1" stop-color="rgb(179,179,179)"/>
       <stop offset="1" stop-color="rgb(229,229,229)"/>
      </linearGradient>
     </defs>
     <path fill="url(#Gradient_817)" stroke="rgb(255,255,255)" id="Drawing_2_0" stroke-width="40" stroke-linejoin="round" d="M 5936,5762 L 6507,6092 6507,6422 5936,6752 5365,6752 4794,6422 5936,5762 Z"/>
    </g>
    <g>
     <defs>
      <linearGradient id="Gradient_818" gradientUnits="userSpaceOnUse" x1="5078" y1="7907" x2="5080" y2="6917">
       <stop offset="0.1" stop-color="rgb(102,102,102)"/>
       <stop offset="1" stop-color="rgb(153,153,153)"/>
      </linearGradient>
     </defs>
     <path fill="url(#Gradient_818)" stroke="rgb(178,178,178)" id="Drawing_3_0" stroke-width="40" stroke-linejoin="round" d="M 4794,7577 L 4794,6917 5365,7247 5365,7907 4794,7577 Z"/>
    </g>
    <g>
     <defs>
      <linearGradient id="Gradient_819" gradientUnits="userSpaceOnUse" x1="5649" y1="7907" x2="5651" y2="7247">
       <stop offset="0.1" stop-color="rgb(102,102,102)"/>
       <stop offset="1" stop-color="rgb(153,153,153)"/>
      </linearGradient>
     </defs>
     <path fill="url(#Gradient_819)" stroke="rgb(178,178,178)" id="Drawing_4_0" stroke-width="40" stroke-linejoin="round" d="M 5365,7907 L 5365,7247 5936,7247 5936,7907 5365,7907 Z"/>
    </g>
    <g>
     <path fill="rgb(51,51,51)" stroke="none" d="M 5936,7698 L 5936,7247 6507,6917 6507,7577 6298,7698 5936,7698 Z"/>
     <path fill="rgb(53,53,53)" stroke="none" d="M 6298,7698 L 5936,7907 5936,7698 6298,7698 Z M 5936,7688 L 5936,7247 6507,6917 6507,7577 6315,7688 5936,7688 Z"/>
     <path fill="rgb(55,55,55)" stroke="none" d="M 6315,7688 L 5936,7907 5936,7688 6315,7688 Z M 5936,7678 L 5936,7247 6507,6917 6507,7577 6332,7678 5936,7678 Z"/>
     <path fill="rgb(57,57,57)" stroke="none" d="M 6332,7678 L 5936,7907 5936,7678 6332,7678 Z M 5936,7668 L 5936,7247 6507,6917 6507,7577 6350,7668 5936,7668 Z"/>
     <path fill="rgb(59,59,59)" stroke="none" d="M 6350,7668 L 5936,7907 5936,7668 6350,7668 Z M 5936,7658 L 5936,7247 6507,6917 6507,7577 6367,7658 5936,7658 Z"/>
     <path fill="rgb(61,61,61)" stroke="none" d="M 6367,7658 L 5936,7907 5936,7658 6367,7658 Z M 5936,7648 L 5936,7247 6507,6917 6507,7577 6384,7648 5936,7648 Z"/>
     <path fill="rgb(63,63,63)" stroke="none" d="M 6384,7648 L 5936,7907 5936,7648 6384,7648 Z M 5936,7638 L 5936,7247 6507,6917 6507,7577 6401,7638 5936,7638 Z"/>
     <path fill="rgb(65,65,65)" stroke="none" d="M 6401,7638 L 5936,7907 5936,7638 6401,7638 Z M 5936,7627 L 5936,7247 6507,6917 6507,7577 6420,7627 5936,7627 Z"/>
     <path fill="rgb(67,67,67)" stroke="none" d="M 6420,7627 L 5936,7907 5936,7627 6420,7627 Z M 5936,7617 L 5936,7247 6507,6917 6507,7577 6438,7617 5936,7617 Z"/>
     <path fill="rgb(69,69,69)" stroke="none" d="M 6438,7617 L 5936,7907 5936,7617 6438,7617 Z M 6501,7580 L 6455,7607 5936,7607 5936,7247 6501,6920 6501,7580 Z"/>
     <path fill="rgb(71,71,71)" stroke="none" d="M 6455,7607 L 5936,7907 5936,7607 6455,7607 Z M 6501,6920 L 6507,6917 6507,7577 6501,7580 6501,6920 Z M 6491,7586 L 6472,7597 5936,7597 5936,7247 6491,6926 6491,7586 Z"/>
     <path fill="rgb(73,73,73)" stroke="none" d="M 6472,7597 L 5936,7907 5936,7597 6472,7597 Z M 6491,6926 L 6507,6917 6507,7577 6491,7586 6491,6926 Z M 6481,7587 L 5936,7587 5936,7247 6481,6932 6481,7587 Z"/>
     <path fill="rgb(75,75,75)" stroke="none" d="M 6481,7587 L 6481,6932 6507,6917 6507,7577 5936,7907 5936,7587 6481,7587 Z M 6471,7577 L 5936,7577 5936,7247 6471,6938 6471,7577 Z"/>
     <path fill="rgb(78,78,78)" stroke="none" d="M 6471,7577 L 6471,6938 6507,6917 6507,7577 5936,7907 5936,7577 6471,7577 Z M 6461,7567 L 5936,7567 5936,7247 6461,6944 6461,7567 Z"/>
     <path fill="rgb(80,80,80)" stroke="none" d="M 6461,7567 L 6461,6944 6507,6917 6507,7577 5936,7907 5936,7567 6461,7567 Z M 6451,7557 L 5936,7557 5936,7247 6451,6949 6451,7557 Z"/>
     <path fill="rgb(82,82,82)" stroke="none" d="M 6451,7557 L 6451,6949 6507,6917 6507,7577 5936,7907 5936,7557 6451,7557 Z M 6440,7546 L 5936,7546 5936,7247 6440,6956 6440,7546 Z"/>
     <path fill="rgb(84,84,84)" stroke="none" d="M 6440,7546 L 6440,6956 6507,6917 6507,7577 5936,7907 5936,7546 6440,7546 Z M 6430,7536 L 5936,7536 5936,7247 6430,6962 6430,7536 Z"/>
     <path fill="rgb(86,86,86)" stroke="none" d="M 6430,7536 L 6430,6962 6507,6917 6507,7577 5936,7907 5936,7536 6430,7536 Z M 6420,7526 L 5936,7526 5936,7247 6420,6967 6420,7526 Z"/>
     <path fill="rgb(88,88,88)" stroke="none" d="M 6420,7526 L 6420,6967 6507,6917 6507,7577 5936,7907 5936,7526 6420,7526 Z M 6410,7516 L 5936,7516 5936,7247 6410,6973 6410,7516 Z"/>
     <path fill="rgb(90,90,90)" stroke="none" d="M 6410,7516 L 6410,6973 6507,6917 6507,7577 5936,7907 5936,7516 6410,7516 Z M 6400,7506 L 5936,7506 5936,7247 6400,6979 6400,7506 Z"/>
     <path fill="rgb(92,92,92)" stroke="none" d="M 6400,7506 L 6400,6979 6507,6917 6507,7577 5936,7907 5936,7506 6400,7506 Z M 6390,7496 L 5936,7496 5936,7247 6390,6985 6390,7496 Z"/>
     <path fill="rgb(94,94,94)" stroke="none" d="M 6390,7496 L 6390,6985 6507,6917 6507,7577 5936,7907 5936,7496 6390,7496 Z M 6380,7486 L 5936,7486 5936,7247 6380,6990 6380,7486 Z"/>
     <path fill="rgb(96,96,96)" stroke="none" d="M 6380,7486 L 6380,6990 6507,6917 6507,7577 5936,7907 5936,7486 6380,7486 Z M 6369,7475 L 5936,7475 5936,7247 6369,6997 6369,7475 Z"/>
     <path fill="rgb(98,98,98)" stroke="none" d="M 6369,7475 L 6369,6997 6507,6917 6507,7577 5936,7907 5936,7475 6369,7475 Z M 6359,7465 L 5936,7465 5936,7247 6359,7003 6359,7465 Z"/>
     <path fill="rgb(100,100,100)" stroke="none" d="M 6359,7465 L 6359,7003 6507,6917 6507,7577 5936,7907 5936,7465 6359,7465 Z M 6349,7455 L 5936,7455 5936,7247 6349,7008 6349,7455 Z"/>
     <path fill="rgb(103,103,103)" stroke="none" d="M 6349,7455 L 6349,7008 6507,6917 6507,7577 5936,7907 5936,7455 6349,7455 Z M 6339,7445 L 5936,7445 5936,7247 6339,7014 6339,7445 Z"/>
     <path fill="rgb(105,105,105)" stroke="none" d="M 6339,7445 L 6339,7014 6507,6917 6507,7577 5936,7907 5936,7445 6339,7445 Z M 6329,7435 L 5936,7435 5936,7247 6329,7020 6329,7435 Z"/>
     <path fill="rgb(107,107,107)" stroke="none" d="M 6329,7435 L 6329,7020 6507,6917 6507,7577 5936,7907 5936,7435 6329,7435 Z M 6319,7425 L 5936,7425 5936,7247 6319,7026 6319,7425 Z"/>
     <path fill="rgb(109,109,109)" stroke="none" d="M 6319,7425 L 6319,7026 6507,6917 6507,7577 5936,7907 5936,7425 6319,7425 Z M 6309,7415 L 5936,7415 5936,7247 6309,7031 6309,7415 Z"/>
     <path fill="rgb(111,111,111)" stroke="none" d="M 6309,7415 L 6309,7031 6507,6917 6507,7577 5936,7907 5936,7415 6309,7415 Z M 6299,7405 L 5936,7405 5936,7247 6299,7037 6299,7405 Z"/>
     <path fill="rgb(113,113,113)" stroke="none" d="M 6299,7405 L 6299,7037 6507,6917 6507,7577 5936,7907 5936,7405 6299,7405 Z M 6288,7394 L 5936,7394 5936,7247 6288,7044 6288,7394 Z"/>
     <path fill="rgb(115,115,115)" stroke="none" d="M 6288,7394 L 6288,7044 6507,6917 6507,7577 5936,7907 5936,7394 6288,7394 Z M 6278,7384 L 5936,7384 5936,7247 6278,7049 6278,7384 Z"/>
     <path fill="rgb(117,117,117)" stroke="none" d="M 6278,7384 L 6278,7049 6507,6917 6507,7577 5936,7907 5936,7384 6278,7384 Z M 6268,7374 L 5945,7374 5945,7242 6268,7055 6268,7374 Z"/>
     <path fill="rgb(119,119,119)" stroke="none" d="M 5945,7374 L 6268,7374 6268,7055 6507,6917 6507,7577 5936,7907 5936,7247 5945,7242 5945,7374 Z M 6258,7061 L 6258,7364 5955,7364 5955,7236 6258,7061 6258,7061 Z"/>
     <path fill="rgb(121,121,121)" stroke="none" d="M 5955,7364 L 6258,7364 6258,7061 6258,7061 6507,6917 6507,7577 5936,7907 5936,7247 5955,7236 5955,7364 Z M 6248,7071 L 6248,7354 5965,7354 5965,7230 6241,7071 6248,7071 Z"/>
     <path fill="rgb(123,123,123)" stroke="none" d="M 5965,7354 L 6248,7354 6248,7071 6241,7071 6507,6917 6507,7577 5936,7907 5936,7247 5965,7230 5965,7354 Z M 6238,7081 L 6238,7344 5975,7344 5975,7224 6223,7081 6238,7081 Z"/>
     <path fill="rgb(125,125,125)" stroke="none" d="M 5975,7344 L 6238,7344 6238,7081 6223,7081 6507,6917 6507,7577 5936,7907 5936,7247 5975,7224 5975,7344 Z M 6228,7091 L 6228,7334 5985,7334 5985,7219 6206,7091 6228,7091 Z"/>
     <path fill="rgb(128,128,128)" stroke="none" d="M 5985,7334 L 6228,7334 6228,7091 6206,7091 6507,6917 6507,7577 5936,7907 5936,7247 5985,7219 5985,7334 Z M 6217,7102 L 6217,7323 5996,7323 5996,7212 6187,7102 6217,7102 Z"/>
     <path fill="rgb(130,130,130)" stroke="none" d="M 5996,7323 L 6217,7323 6217,7102 6187,7102 6507,6917 6507,7577 5936,7907 5936,7247 5996,7212 5996,7323 Z M 6207,7112 L 6207,7313 6006,7313 6006,7207 6170,7112 6207,7112 Z"/>
     <path fill="rgb(132,132,132)" stroke="none" d="M 6006,7313 L 6207,7313 6207,7112 6170,7112 6507,6917 6507,7577 5936,7907 5936,7247 6006,7207 6006,7313 Z M 6197,7122 L 6197,7303 6016,7303 6016,7201 6152,7122 6197,7122 Z"/>
     <path fill="rgb(134,134,134)" stroke="none" d="M 6016,7303 L 6197,7303 6197,7122 6152,7122 6507,6917 6507,7577 5936,7907 5936,7247 6016,7201 6016,7303 Z M 6187,7132 L 6187,7293 6026,7293 6026,7195 6135,7132 6187,7132 Z"/>
     <path fill="rgb(136,136,136)" stroke="none" d="M 6026,7293 L 6187,7293 6187,7132 6135,7132 6507,6917 6507,7577 5936,7907 5936,7247 6026,7195 6026,7293 Z M 6177,7142 L 6177,7283 6036,7283 6036,7189 6118,7142 6177,7142 Z"/>
     <path fill="rgb(138,138,138)" stroke="none" d="M 6036,7283 L 6177,7283 6177,7142 6118,7142 6507,6917 6507,7577 5936,7907 5936,7247 6036,7189 6036,7283 Z M 6167,7152 L 6167,7273 6046,7273 6046,7183 6100,7152 6167,7152 Z"/>
     <path fill="rgb(140,140,140)" stroke="none" d="M 6046,7273 L 6167,7273 6167,7152 6100,7152 6507,6917 6507,7577 5936,7907 5936,7247 6046,7183 6046,7273 Z M 6157,7162 L 6157,7263 6056,7263 6056,7178 6083,7162 6157,7162 Z"/>
     <path fill="rgb(142,142,142)" stroke="none" d="M 6056,7263 L 6157,7263 6157,7162 6083,7162 6507,6917 6507,7577 5936,7907 5936,7247 6056,7178 6056,7263 Z M 6066,7172 L 6147,7172 6147,7253 6066,7253 6066,7172 Z"/>
     <path fill="rgb(144,144,144)" stroke="none" d="M 6066,7172 L 6066,7253 6147,7253 6147,7172 6066,7172 Z M 6077,7183 L 6136,7183 6136,7242 6077,7242 6077,7183 Z M 5936,7907 L 5936,7247 6507,6917 6507,7577 5936,7907 Z"/>
     <path fill="rgb(146,146,146)" stroke="none" d="M 6077,7183 L 6077,7242 6136,7242 6136,7183 6077,7183 Z M 6087,7193 L 6126,7193 6126,7232 6087,7232 6087,7193 Z M 5936,7907 L 5936,7247 6507,6917 6507,7577 5936,7907 Z"/>
     <path fill="rgb(148,148,148)" stroke="none" d="M 6087,7193 L 6087,7232 6126,7232 6126,7193 6087,7193 Z M 6097,7203 L 6116,7203 6116,7222 6097,7222 6097,7203 Z M 5936,7907 L 5936,7247 6507,6917 6507,7577 5936,7907 Z"/>
     <path fill="rgb(153,153,153)" stroke="none" d="M 6097,7203 L 6097,7222 6116,7222 6116,7203 6097,7203 Z M 5936,7907 L 5936,7247 6507,6917 6507,7577 5936,7907 Z"/>
     <path fill="none" stroke="rgb(178,178,178)" id="Drawing_5_0" stroke-width="40" stroke-linejoin="round" d="M 5936,7907 L 5936,7247 6507,6917 6507,7577 5936,7907 Z"/>
    </g>
    <g>
     <defs>
      <linearGradient id="Gradient_820" gradientUnits="userSpaceOnUse" x1="4792" y1="6833" x2="5365" y2="6834">
       <stop offset="0.1" stop-color="rgb(179,179,179)"/>
       <stop offset="1" stop-color="rgb(229,229,229)"/>
      </linearGradient>
     </defs>
     <path fill="url(#Gradient_820)" stroke="rgb(255,255,255)" id="Drawing_6_0" stroke-width="40" stroke-linejoin="round" d="M 4794,6917 L 4794,6422 5365,6752 5365,7247 4794,6917 Z"/>
    </g>
    <g>
     <defs>
      <linearGradient id="Gradient_821" gradientUnits="userSpaceOnUse" x1="5650" y1="7247" x2="5650" y2="6752">
       <stop offset="0.1" stop-color="rgb(179,179,179)"/>
       <stop offset="1" stop-color="rgb(229,229,229)"/>
      </linearGradient>
     </defs>
     <path fill="url(#Gradient_821)" stroke="rgb(255,255,255)" id="Drawing_7_0" stroke-width="40" stroke-linejoin="round" d="M 5365,7247 L 5365,6752 5936,6752 5936,7247 5365,7247 Z"/>
    </g>
    <g>
     <path fill="rgb(179,179,179)" stroke="none" d="M 5936,7071 L 5936,6752 6507,6422 6507,6917 6241,7071 5936,7071 Z"/>
     <path fill="rgb(180,180,180)" stroke="none" d="M 6241,7071 L 5936,7247 5936,7071 6241,7071 Z M 6499,6922 L 6258,7061 5936,7061 5936,6752 6499,6427 6499,6922 Z"/>
     <path fill="rgb(181,181,181)" stroke="none" d="M 6258,7061 L 5936,7247 5936,7061 6258,7061 Z M 6499,6427 L 6507,6422 6507,6917 6499,6922 6499,6427 Z M 6489,6927 L 6275,7051 5936,7051 5936,6752 6489,6432 6489,6927 Z"/>
     <path fill="rgb(182,182,182)" stroke="none" d="M 6275,7051 L 5936,7247 5936,7051 6275,7051 Z M 6489,6432 L 6507,6422 6507,6917 6489,6927 6489,6432 Z M 6479,6933 L 6292,7041 5936,7041 5936,6752 6479,6438 6479,6933 Z"/>
     <path fill="rgb(183,183,183)" stroke="none" d="M 6292,7041 L 5936,7247 5936,7041 6292,7041 Z M 6479,6438 L 6507,6422 6507,6917 6479,6933 6479,6438 Z M 6469,6939 L 6310,7031 5936,7031 5936,6752 6469,6444 6469,6939 Z"/>
     <path fill="rgb(185,185,185)" stroke="none" d="M 6310,7031 L 5936,7247 5936,7031 6310,7031 Z M 6469,6444 L 6507,6422 6507,6917 6469,6939 6469,6444 Z M 6459,6945 L 6327,7021 5936,7021 5936,6752 6459,6450 6459,6945 Z"/>
     <path fill="rgb(186,186,186)" stroke="none" d="M 6327,7021 L 5936,7247 5936,7021 6327,7021 Z M 6459,6450 L 6507,6422 6507,6917 6459,6945 6459,6450 Z M 6449,6951 L 6344,7011 5936,7011 5936,6752 6449,6456 6449,6951 Z"/>
     <path fill="rgb(187,187,187)" stroke="none" d="M 6344,7011 L 5936,7247 5936,7011 6344,7011 Z M 6449,6456 L 6507,6422 6507,6917 6449,6951 6449,6456 Z M 6439,6956 L 6362,7001 5936,7001 5936,6752 6439,6461 6439,6956 Z"/>
     <path fill="rgb(188,188,188)" stroke="none" d="M 6362,7001 L 5936,7247 5936,7001 6362,7001 Z M 6439,6461 L 6507,6422 6507,6917 6439,6956 6439,6461 Z M 6429,6962 L 6379,6991 5936,6991 5936,6752 6429,6467 6429,6962 Z"/>
     <path fill="rgb(189,189,189)" stroke="none" d="M 6379,6991 L 5936,7247 5936,6991 6379,6991 Z M 6429,6467 L 6507,6422 6507,6917 6429,6962 6429,6467 Z M 6419,6968 L 6396,6981 5936,6981 5936,6752 6419,6473 6419,6968 Z"/>
     <path fill="rgb(191,191,191)" stroke="none" d="M 6396,6981 L 5936,7247 5936,6981 6396,6981 Z M 6419,6473 L 6507,6422 6507,6917 6419,6968 6419,6473 Z M 6408,6970 L 5936,6970 5936,6752 6408,6479 6408,6970 Z"/>
     <path fill="rgb(192,192,192)" stroke="none" d="M 6408,6970 L 6408,6479 6507,6422 6507,6917 5936,7247 5936,6970 6408,6970 Z M 6398,6960 L 5936,6960 5936,6752 6398,6485 6398,6960 Z"/>
     <path fill="rgb(193,193,193)" stroke="none" d="M 6398,6960 L 6398,6485 6507,6422 6507,6917 5936,7247 5936,6960 6398,6960 Z M 6388,6950 L 5936,6950 5936,6752 6388,6491 6388,6950 Z"/>
     <path fill="rgb(194,194,194)" stroke="none" d="M 6388,6950 L 6388,6491 6507,6422 6507,6917 5936,7247 5936,6950 6388,6950 Z M 6378,6940 L 5936,6940 5936,6752 6378,6497 6378,6940 Z"/>
     <path fill="rgb(196,196,196)" stroke="none" d="M 6378,6940 L 6378,6497 6507,6422 6507,6917 5936,7247 5936,6940 6378,6940 Z M 6368,6930 L 5936,6930 5936,6752 6368,6502 6368,6930 Z"/>
     <path fill="rgb(197,197,197)" stroke="none" d="M 6368,6930 L 6368,6502 6507,6422 6507,6917 5936,7247 5936,6930 6368,6930 Z M 6358,6920 L 5936,6920 5936,6752 6358,6508 6358,6920 Z"/>
     <path fill="rgb(198,198,198)" stroke="none" d="M 6358,6920 L 6358,6508 6507,6422 6507,6917 5936,7247 5936,6920 6358,6920 Z M 6348,6910 L 5936,6910 5936,6752 6348,6514 6348,6910 Z"/>
     <path fill="rgb(199,199,199)" stroke="none" d="M 6348,6910 L 6348,6514 6507,6422 6507,6917 5936,7247 5936,6910 6348,6910 Z M 6338,6900 L 5936,6900 5936,6752 6338,6520 6338,6900 Z"/>
     <path fill="rgb(200,200,200)" stroke="none" d="M 6338,6900 L 6338,6520 6507,6422 6507,6917 5936,7247 5936,6900 6338,6900 Z M 6328,6890 L 5936,6890 5936,6752 6328,6525 6328,6890 Z"/>
     <path fill="rgb(202,202,202)" stroke="none" d="M 6328,6890 L 6328,6525 6507,6422 6507,6917 5936,7247 5936,6890 6328,6890 Z M 6318,6880 L 5936,6880 5936,6752 6318,6531 6318,6880 Z"/>
     <path fill="rgb(203,203,203)" stroke="none" d="M 6318,6880 L 6318,6531 6507,6422 6507,6917 5936,7247 5936,6880 6318,6880 Z M 6307,6869 L 5936,6869 5936,6752 6307,6538 6307,6869 Z"/>
     <path fill="rgb(204,204,204)" stroke="none" d="M 6307,6869 L 6307,6538 6507,6422 6507,6917 5936,7247 5936,6869 6307,6869 Z M 6297,6859 L 5936,6859 5936,6752 6297,6543 6297,6859 Z"/>
     <path fill="rgb(205,205,205)" stroke="none" d="M 6297,6859 L 6297,6543 6507,6422 6507,6917 5936,7247 5936,6859 6297,6859 Z M 6287,6849 L 5936,6849 5936,6752 6287,6549 6287,6849 Z"/>
     <path fill="rgb(207,207,207)" stroke="none" d="M 6287,6849 L 6287,6549 6507,6422 6507,6917 5936,7247 5936,6849 6287,6849 Z M 6277,6839 L 5936,6839 5936,6752 6277,6555 6277,6839 Z"/>
     <path fill="rgb(208,208,208)" stroke="none" d="M 6277,6839 L 6277,6555 6507,6422 6507,6917 5936,7247 5936,6839 6277,6839 Z M 6267,6829 L 5945,6829 5945,6747 6267,6561 6267,6829 Z"/>
     <path fill="rgb(209,209,209)" stroke="none" d="M 5945,6829 L 6267,6829 6267,6561 6507,6422 6507,6917 5936,7247 5936,6752 5945,6747 5945,6829 Z M 6257,6819 L 5955,6819 5955,6741 6257,6566 6257,6819 Z"/>
     <path fill="rgb(210,210,210)" stroke="none" d="M 5955,6819 L 6257,6819 6257,6566 6507,6422 6507,6917 5936,7247 5936,6752 5955,6741 5955,6819 Z M 6247,6809 L 5965,6809 5965,6735 6247,6572 6247,6809 Z"/>
     <path fill="rgb(211,211,211)" stroke="none" d="M 5965,6809 L 6247,6809 6247,6572 6507,6422 6507,6917 5936,7247 5936,6752 5965,6735 5965,6809 Z M 6237,6799 L 5975,6799 5975,6729 6237,6578 6237,6799 Z"/>
     <path fill="rgb(213,213,213)" stroke="none" d="M 5975,6799 L 6237,6799 6237,6578 6507,6422 6507,6917 5936,7247 5936,6752 5975,6729 5975,6799 Z M 6227,6789 L 5985,6789 5985,6724 6227,6584 6227,6789 Z"/>
     <path fill="rgb(214,214,214)" stroke="none" d="M 5985,6789 L 6227,6789 6227,6584 6507,6422 6507,6917 5936,7247 5936,6752 5985,6724 5985,6789 Z M 6217,6779 L 5995,6779 5995,6718 6217,6590 6217,6779 Z"/>
     <path fill="rgb(215,215,215)" stroke="none" d="M 5995,6779 L 6217,6779 6217,6590 6507,6422 6507,6917 5936,7247 5936,6752 5995,6718 5995,6779 Z M 6206,6768 L 6006,6768 6006,6712 6206,6596 6206,6768 Z"/>
     <path fill="rgb(216,216,216)" stroke="none" d="M 6006,6768 L 6206,6768 6206,6596 6507,6422 6507,6917 5936,7247 5936,6752 6006,6712 6006,6768 Z M 6196,6758 L 6016,6758 6016,6706 6196,6602 6196,6758 Z"/>
     <path fill="rgb(218,218,218)" stroke="none" d="M 6016,6758 L 6196,6758 6196,6602 6507,6422 6507,6917 5936,7247 5936,6752 6016,6706 6016,6758 Z M 6186,6748 L 6026,6748 6026,6700 6186,6608 6186,6748 Z"/>
     <path fill="rgb(219,219,219)" stroke="none" d="M 6026,6748 L 6186,6748 6186,6608 6507,6422 6507,6917 5936,7247 5936,6752 6026,6700 6026,6748 Z M 6176,6738 L 6036,6738 6036,6694 6176,6613 6176,6738 Z"/>
     <path fill="rgb(220,220,220)" stroke="none" d="M 6036,6738 L 6176,6738 6176,6613 6507,6422 6507,6917 5936,7247 5936,6752 6036,6694 6036,6738 Z M 6166,6728 L 6046,6728 6046,6688 6166,6619 6166,6728 Z"/>
     <path fill="rgb(221,221,221)" stroke="none" d="M 6046,6728 L 6166,6728 6166,6619 6507,6422 6507,6917 5936,7247 5936,6752 6046,6688 6046,6728 Z M 6156,6718 L 6056,6718 6056,6683 6156,6625 6156,6718 Z"/>
     <path fill="rgb(222,222,222)" stroke="none" d="M 6056,6718 L 6156,6718 6156,6625 6507,6422 6507,6917 5936,7247 5936,6752 6056,6683 6056,6718 Z M 6146,6708 L 6066,6708 6066,6677 6146,6631 6146,6708 Z"/>
     <path fill="rgb(224,224,224)" stroke="none" d="M 6066,6708 L 6146,6708 6146,6631 6507,6422 6507,6917 5936,7247 5936,6752 6066,6677 6066,6708 Z M 6136,6638 L 6136,6698 6076,6698 6076,6671 6133,6638 6136,6638 Z"/>
     <path fill="rgb(225,225,225)" stroke="none" d="M 6076,6698 L 6136,6698 6136,6638 6133,6638 6507,6422 6507,6917 5936,7247 5936,6752 6076,6671 6076,6698 Z M 6126,6648 L 6126,6688 6086,6688 6086,6665 6116,6648 6126,6648 Z"/>
     <path fill="rgb(226,226,226)" stroke="none" d="M 6086,6688 L 6126,6688 6126,6648 6116,6648 6507,6422 6507,6917 5936,7247 5936,6752 6086,6665 6086,6688 Z M 6116,6658 L 6116,6678 6096,6678 6096,6660 6099,6658 6116,6658 Z"/>
     <path fill="rgb(229,229,229)" stroke="none" d="M 6096,6678 L 6116,6678 6116,6658 6099,6658 6507,6422 6507,6917 5936,7247 5936,6752 6096,6660 6096,6678 Z"/>
     <path fill="none" stroke="rgb(255,255,255)" id="Drawing_8_0" stroke-width="40" stroke-linejoin="round" d="M 5936,7247 L 5936,6752 6507,6422 6507,6917 5936,7247 Z"/>
    </g>
    <g>
     <defs>
      <linearGradient id="Gradient_822" gradientUnits="userSpaceOnUse" x1="4793" y1="7824" x2="5364" y2="7824">
       <stop offset="0.1" stop-color="rgb(179,179,179)"/>
       <stop offset="1" stop-color="rgb(229,229,229)"/>
      </linearGradient>
     </defs>
     <path fill="url(#Gradient_822)" stroke="rgb(255,255,255)" id="Drawing_9_0" stroke-width="40" stroke-linejoin="round" d="M 4794,7742 L 4794,7577 5365,7907 5365,8072 4794,7742 Z"/>
    </g>
    <g>
     <defs>
      <linearGradient id="Gradient_823" gradientUnits="userSpaceOnUse" x1="5650" y1="8072" x2="5650" y2="7907">
       <stop offset="0.1" stop-color="rgb(179,179,179)"/>
       <stop offset="1" stop-color="rgb(229,229,229)"/>
      </linearGradient>
     </defs>
     <path fill="url(#Gradient_823)" stroke="rgb(255,255,255)" id="Drawing_10_0" stroke-width="40" stroke-linejoin="round" d="M 5365,8072 L 5365,7907 5936,7907 5936,8072 5365,8072 Z"/>
    </g>
    <g>
     <path fill="rgb(179,179,179)" stroke="none" d="M 6387,7811 L 6052,8005 5936,8005 5936,7907 6387,7646 6387,7811 Z"/>
     <path fill="rgb(180,180,180)" stroke="none" d="M 6052,8005 L 5936,8072 5936,8005 6052,8005 Z M 6387,7646 L 6507,7577 6507,7742 6387,7811 6387,7646 Z M 6381,7815 L 6062,7999 5936,7999 5936,7907 6381,7650 6381,7815 Z"/>
     <path fill="rgb(181,181,181)" stroke="none" d="M 6062,7999 L 5936,8072 5936,7999 6062,7999 Z M 6381,7650 L 6507,7577 6507,7742 6381,7815 6381,7650 Z M 6375,7818 L 6073,7993 5936,7993 5936,7907 6375,7653 6375,7818 Z"/>
     <path fill="rgb(182,182,182)" stroke="none" d="M 6073,7993 L 5936,8072 5936,7993 6073,7993 Z M 6375,7653 L 6507,7577 6507,7742 6375,7818 6375,7653 Z M 6370,7821 L 6081,7988 5936,7988 5936,7907 6370,7656 6370,7821 Z"/>
     <path fill="rgb(183,183,183)" stroke="none" d="M 6081,7988 L 5936,8072 5936,7988 6081,7988 Z M 6370,7656 L 6507,7577 6507,7742 6370,7821 6370,7656 Z M 6364,7825 L 6092,7982 5936,7982 5936,7907 6364,7660 6364,7825 Z"/>
     <path fill="rgb(184,184,184)" stroke="none" d="M 6092,7982 L 5936,8072 5936,7982 6092,7982 Z M 6364,7660 L 6507,7577 6507,7742 6364,7825 6364,7660 Z M 6358,7828 L 6102,7976 5936,7976 5936,7907 6358,7663 6358,7828 Z"/>
     <path fill="rgb(185,185,185)" stroke="none" d="M 6102,7976 L 5936,8072 5936,7976 6102,7976 Z M 6358,7663 L 6507,7577 6507,7742 6358,7828 6358,7663 Z M 6352,7832 L 6112,7970 5936,7970 5936,7907 6352,7667 6352,7832 Z"/>
     <path fill="rgb(186,186,186)" stroke="none" d="M 6112,7970 L 5936,8072 5936,7970 6112,7970 Z M 6352,7667 L 6507,7577 6507,7742 6352,7832 6352,7667 Z M 6347,7834 L 6121,7965 5936,7965 5936,7907 6347,7669 6347,7834 Z"/>
     <path fill="rgb(187,187,187)" stroke="none" d="M 6121,7965 L 5936,8072 5936,7965 6121,7965 Z M 6347,7669 L 6507,7577 6507,7742 6347,7834 6347,7669 Z M 6341,7838 L 6132,7959 5936,7959 5936,7907 6341,7673 6341,7838 Z"/>
     <path fill="rgb(188,188,188)" stroke="none" d="M 6132,7959 L 5936,8072 5936,7959 6132,7959 Z M 6341,7673 L 6507,7577 6507,7742 6341,7838 6341,7673 Z M 6335,7841 L 6142,7953 5936,7953 5936,7907 6335,7676 6335,7841 Z"/>
     <path fill="rgb(189,189,189)" stroke="none" d="M 6142,7953 L 5936,8072 5936,7953 6142,7953 Z M 6335,7676 L 6507,7577 6507,7742 6335,7841 6335,7676 Z M 6329,7845 L 6152,7947 5936,7947 5936,7907 6329,7680 6329,7845 Z"/>
     <path fill="rgb(190,190,190)" stroke="none" d="M 6152,7947 L 5936,8072 5936,7947 6152,7947 Z M 6329,7680 L 6507,7577 6507,7742 6329,7845 6329,7680 Z M 6324,7848 L 6161,7942 5936,7942 5936,7907 6324,7683 6324,7848 Z"/>
     <path fill="rgb(191,191,191)" stroke="none" d="M 6161,7942 L 5936,8072 5936,7942 6161,7942 Z M 6324,7683 L 6507,7577 6507,7742 6324,7848 6324,7683 Z M 6318,7851 L 6171,7936 5936,7936 5936,7907 6318,7686 6318,7851 Z"/>
     <path fill="rgb(192,192,192)" stroke="none" d="M 6171,7936 L 5936,8072 5936,7936 6171,7936 Z M 6318,7686 L 6507,7577 6507,7742 6318,7851 6318,7686 Z M 6312,7855 L 6182,7930 5936,7930 5936,7907 6312,7690 6312,7855 Z"/>
     <path fill="rgb(193,193,193)" stroke="none" d="M 6182,7930 L 5936,8072 5936,7930 6182,7930 Z M 6312,7690 L 6507,7577 6507,7742 6312,7855 6312,7690 Z M 6306,7858 L 6192,7924 5936,7924 5936,7907 6306,7693 6306,7858 Z"/>
     <path fill="rgb(194,194,194)" stroke="none" d="M 6192,7924 L 5936,8072 5936,7924 6192,7924 Z M 6306,7693 L 6507,7577 6507,7742 6306,7858 6306,7693 Z M 6301,7861 L 6201,7919 5936,7919 5936,7907 6301,7696 6301,7861 Z"/>
     <path fill="rgb(195,195,195)" stroke="none" d="M 6201,7919 L 5936,8072 5936,7919 6201,7919 Z M 6301,7696 L 6507,7577 6507,7742 6301,7861 6301,7696 Z M 6295,7865 L 6211,7913 5936,7913 5936,7907 6295,7700 6295,7865 Z"/>
     <path fill="rgb(196,196,196)" stroke="none" d="M 6211,7913 L 5936,8072 5936,7913 6211,7913 Z M 6295,7700 L 6507,7577 6507,7742 6295,7865 6295,7700 Z M 6289,7868 L 6222,7907 5936,7907 6289,7703 6289,7868 Z"/>
     <path fill="rgb(197,197,197)" stroke="none" d="M 6222,7907 L 5936,8072 5936,7907 6222,7907 Z M 6289,7703 L 6507,7577 6507,7742 6289,7868 6289,7703 Z M 6283,7871 L 6232,7901 5946,7901 6283,7706 6283,7871 Z"/>
     <path fill="rgb(198,198,198)" stroke="none" d="M 6232,7901 L 5936,8072 5936,7907 5946,7901 6232,7901 Z M 6283,7706 L 6507,7577 6507,7742 6283,7871 6283,7706 Z M 6278,7874 L 6241,7896 5955,7896 6278,7709 6278,7874 Z"/>
     <path fill="rgb(199,199,199)" stroke="none" d="M 6241,7896 L 5936,8072 5936,7907 5955,7896 6241,7896 Z M 6278,7709 L 6507,7577 6507,7742 6278,7874 6278,7709 Z M 6272,7878 L 6251,7890 5965,7890 6272,7713 6272,7878 Z"/>
     <path fill="rgb(200,200,200)" stroke="none" d="M 6251,7890 L 5936,8072 5936,7907 5965,7890 6251,7890 Z M 6272,7713 L 6507,7577 6507,7742 6272,7878 6272,7713 Z M 6266,7881 L 6261,7884 5976,7884 6266,7716 6266,7881 Z"/>
     <path fill="rgb(201,201,201)" stroke="none" d="M 6261,7884 L 5936,8072 5936,7907 5976,7884 6261,7884 Z M 6266,7716 L 6507,7577 6507,7742 6266,7881 6266,7716 Z M 6260,7878 L 5986,7878 6260,7720 6260,7878 Z"/>
     <path fill="rgb(202,202,202)" stroke="none" d="M 6260,7878 L 6260,7720 6507,7577 6507,7742 5936,8072 5936,7907 5986,7878 6260,7878 Z M 6255,7873 L 5995,7873 6255,7723 6255,7873 Z"/>
     <path fill="rgb(203,203,203)" stroke="none" d="M 6255,7873 L 6255,7723 6507,7577 6507,7742 5936,8072 5936,7907 5995,7873 6255,7873 Z M 6249,7867 L 6005,7867 6249,7726 6249,7867 Z"/>
     <path fill="rgb(204,204,204)" stroke="none" d="M 6249,7867 L 6249,7726 6507,7577 6507,7742 5936,8072 5936,7907 6005,7867 6249,7867 Z M 6243,7861 L 6016,7861 6243,7730 6243,7861 Z"/>
     <path fill="rgb(205,205,205)" stroke="none" d="M 6243,7861 L 6243,7730 6507,7577 6507,7742 5936,8072 5936,7907 6016,7861 6243,7861 Z M 6238,7856 L 6024,7856 6238,7732 6238,7856 Z"/>
     <path fill="rgb(206,206,206)" stroke="none" d="M 6238,7856 L 6238,7732 6507,7577 6507,7742 5936,8072 5936,7907 6024,7856 6238,7856 Z M 6232,7850 L 6035,7850 6232,7736 6232,7850 Z"/>
     <path fill="rgb(207,207,207)" stroke="none" d="M 6232,7850 L 6232,7736 6507,7577 6507,7742 5936,8072 5936,7907 6035,7850 6232,7850 Z M 6226,7844 L 6045,7844 6226,7739 6226,7844 Z"/>
     <path fill="rgb(208,208,208)" stroke="none" d="M 6226,7844 L 6226,7739 6507,7577 6507,7742 5936,8072 5936,7907 6045,7844 6226,7844 Z M 6220,7838 L 6055,7838 6220,7743 6220,7838 Z"/>
     <path fill="rgb(209,209,209)" stroke="none" d="M 6220,7838 L 6220,7743 6507,7577 6507,7742 5936,8072 5936,7907 6055,7838 6220,7838 Z M 6215,7833 L 6064,7833 6215,7746 6215,7833 Z"/>
     <path fill="rgb(210,210,210)" stroke="none" d="M 6215,7833 L 6215,7746 6507,7577 6507,7742 5936,8072 5936,7907 6064,7833 6215,7833 Z M 6209,7827 L 6074,7827 6209,7749 6209,7827 Z"/>
     <path fill="rgb(211,211,211)" stroke="none" d="M 6209,7827 L 6209,7749 6507,7577 6507,7742 5936,8072 5936,7907 6074,7827 6209,7827 Z M 6203,7821 L 6085,7821 6203,7753 6203,7821 Z"/>
     <path fill="rgb(212,212,212)" stroke="none" d="M 6203,7821 L 6203,7753 6507,7577 6507,7742 5936,8072 5936,7907 6085,7821 6203,7821 Z M 6197,7815 L 6095,7815 6197,7756 6197,7815 Z"/>
     <path fill="rgb(213,213,213)" stroke="none" d="M 6197,7815 L 6197,7756 6507,7577 6507,7742 5936,8072 5936,7907 6095,7815 6197,7815 Z M 6192,7810 L 6104,7810 6192,7759 6192,7810 Z"/>
     <path fill="rgb(214,214,214)" stroke="none" d="M 6192,7810 L 6192,7759 6507,7577 6507,7742 5936,8072 5936,7907 6104,7810 6192,7810 Z M 6186,7804 L 6114,7804 6186,7763 6186,7804 Z"/>
     <path fill="rgb(215,215,215)" stroke="none" d="M 6186,7804 L 6186,7763 6507,7577 6507,7742 5936,8072 5936,7907 6114,7804 6186,7804 Z M 6180,7798 L 6125,7798 6180,7766 6180,7798 Z"/>
     <path fill="rgb(216,216,216)" stroke="none" d="M 6180,7798 L 6180,7766 6507,7577 6507,7742 5936,8072 5936,7907 6125,7798 6180,7798 Z M 6174,7792 L 6135,7792 6174,7769 6174,7792 Z"/>
     <path fill="rgb(217,217,217)" stroke="none" d="M 6174,7792 L 6174,7769 6507,7577 6507,7742 5936,8072 5936,7907 6135,7792 6174,7792 Z M 6169,7787 L 6144,7787 6169,7772 6169,7787 Z"/>
     <path fill="rgb(218,218,218)" stroke="none" d="M 6169,7787 L 6169,7772 6507,7577 6507,7742 5936,8072 5936,7907 6144,7787 6169,7787 Z M 6163,7781 L 6154,7781 6163,7776 6163,7781 Z"/>
     <path fill="rgb(219,219,219)" stroke="none" d="M 6163,7781 L 6163,7776 6507,7577 6507,7742 5936,8072 5936,7907 6154,7781 6163,7781 Z"/>
     <path fill="rgb(220,220,220)" stroke="none" d="M 5936,8072 L 5936,7907 6507,7577 6507,7742 5936,8072 Z"/>
     <path fill="rgb(221,221,221)" stroke="none" d="M 5936,8072 L 5936,7907 6507,7577 6507,7742 5936,8072 Z"/>
     <path fill="rgb(222,222,222)" stroke="none" d="M 5936,8072 L 5936,7907 6507,7577 6507,7742 5936,8072 Z"/>
     <path fill="rgb(223,223,223)" stroke="none" d="M 5936,8072 L 5936,7907 6507,7577 6507,7742 5936,8072 Z"/>
     <path fill="rgb(224,224,224)" stroke="none" d="M 5936,8072 L 5936,7907 6507,7577 6507,7742 5936,8072 Z"/>
     <path fill="rgb(225,225,225)" stroke="none" d="M 5936,8072 L 5936,7907 6507,7577 6507,7742 5936,8072 Z"/>
     <path fill="rgb(226,226,226)" stroke="none" d="M 5936,8072 L 5936,7907 6507,7577 6507,7742 5936,8072 Z"/>
     <path fill="rgb(227,227,227)" stroke="none" d="M 5936,8072 L 5936,7907 6507,7577 6507,7742 5936,8072 Z"/>
     <path fill="rgb(229,229,229)" stroke="none" d="M 5936,8072 L 5936,7907 6507,7577 6507,7742 5936,8072 Z"/>
     <path fill="none" stroke="rgb(255,255,255)" id="Drawing_11_0" stroke-width="40" stroke-linejoin="round" d="M 5936,8072 L 5936,7907 6507,7577 6507,7742 5936,8072 Z"/>
    </g>
    <g>
     <path fill="none" stroke="rgb(0,0,0)" id="Drawing_12_0" stroke-width="40" stroke-linejoin="round" d="M 4794,7742 L 4794,6422 5936,5762 6507,6092 6507,7082 6507,7742 5936,8072 5365,8072 4794,7742 Z"/>
    </g>
   </g>
  </g>
 </g>
</svg>