<?xml version="1.0" encoding="UTF-8"?>

<svg version="1.2" baseProfile="tiny" width="24.02mm" height="38.5mm" viewBox="7105 13534 2402 3850" preserveAspectRatio="xMidYMid" fill-rule="evenodd" stroke-width="28.222" stroke-linejoin="round" xmlns="http://www.w3.org/2000/svg" xmlns:xlink="http://www.w3.org/1999/xlink" xml:space="preserve">
 <g visibility="visible" id="Slide_1">
  <g id="DrawingGroup_1">
   <g>
    <path fill="rgb(221,221,221)" stroke="none" d="M 8258,17365 C 8541,17365 9391,17126 9494,16948 9597,16769 9056,16412 8773,16412 8773,16591 8258,17126 8258,17365 Z"/>
    <path fill="none" stroke="rgb(221,221,221)" id="Drawing_1_0" stroke-linejoin="round" d="M 8258,17365 C 8541,17365 9391,17126 9494,16948 9597,16769 9056,16412 8773,16412 8773,16591 8258,17126 8258,17365 Z"/>
   </g>
   <g id="DrawingGroup_2">
    <g>
     <defs>
      <linearGradient id="Gradient_837" gradientUnits="userSpaceOnUse" x1="8205" y1="17365" x2="8207" y2="16693">
       <stop offset="0.1" stop-color="rgb(179,179,179)"/>
       <stop offset="1" stop-color="rgb(229,229,229)"/>
      </linearGradient>
     </defs>
     <path fill="url(#Gradient_837)" stroke="none" id="Drawing_2_0" d="M 7640,17051 L 7643,17089 7653,17124 7668,17157 7689,17188 7714,17216 7745,17242 7779,17265 7817,17286 7903,17320 7998,17344 8101,17359 8207,17364 8312,17359 8415,17344 8510,17320 8596,17286 8634,17265 8668,17242 8699,17216 8724,17188 8745,17157 8760,17124 8770,17089 8773,17051 8773,16694 8770,16737 8760,16778 8745,16815 8724,16850 8699,16882 8668,16912 8634,16938 8596,16962 8510,17001 8415,17029 8312,17045 8207,17051 8101,17045 7998,17029 7903,17001 7817,16962 7779,16938 7745,16912 7714,16882 7689,16850 7668,16815 7653,16778 7643,16737 7640,16694 7640,17051 Z"/>
     <path fill="none" stroke="rgb(127,127,127)" id="Drawing_2_1" stroke-width="40" stroke-linejoin="round" d="M 7640,17051 C 7640,17468 8773,17468 8773,17051 L 8773,16694 C 8773,17170 7640,17170 7640,16694 7640,16773 7640,17051 7640,17051 Z"/>
    </g>
    <g>
     <defs>
      <linearGradient id="Gradient_838" gradientUnits="userSpaceOnUse" x1="7638" y1="16292" x2="8773" y2="16294">
       <stop offset="0.1" stop-color="rgb(51,51,51)"/>
       <stop offset="1" stop-color="rgb(153,153,153)"/>
      </linearGradient>
     </defs>
     <path fill="url(#Gradient_838)" stroke="none" id="Drawing_3_0" d="M 7640,16754 L 7643,16792 7653,16827 7668,16860 7689,16891 7714,16919 7745,16945 7779,16968 7817,16989 7903,17023 7998,17047 8101,17062 8207,17067 8312,17062 8415,17047 8510,17023 8596,16989 8634,16968 8668,16945 8699,16919 8724,16891 8745,16860 8760,16827 8770,16792 8773,16754 8773,15519 8770,15562 8760,15603 8745,15640 8724,15675 8699,15707 8668,15737 8634,15763 8596,15787 8510,15826 8415,15854 8312,15870 8207,15876 8101,15870 7998,15854 7903,15826 7817,15787 7779,15763 7745,15737 7714,15707 7689,15675 7668,15640 7653,15603 7643,15562 7640,15519 7640,16323 7640,16748 7640,16824 7640,16824 7640,16824 7640,16824 7640,16824 7640,16822 7640,16810 7640,16754 Z"/>
     <path fill="none" stroke="rgb(255,255,255)" id="Drawing_3_1" stroke-width="40" stroke-linejoin="round" d="M 7640,16754 C 7640,17171 8773,17171 8773,16754 L 8773,15519 C 8773,15995 7640,15995 7640,15519 7640,15598 7640,17171 7640,16754 Z"/>
    </g>
    <g>
     <path fill="rgb(179,179,179)" stroke="none" d="M 8258,15713 L 8258,14864 9391,14209 9391,15459 8952,15713 8258,15713 Z"/>
     <path fill="rgb(180,180,180)" stroke="none" d="M 8952,15713 L 8258,16114 8258,15713 8952,15713 Z M 8258,15694 L 8258,14864 9391,14209 9391,15459 8985,15694 8258,15694 Z"/>
     <path fill="rgb(181,181,181)" stroke="none" d="M 8985,15694 L 8258,16114 8258,15694 8985,15694 Z M 8258,15675 L 8258,14864 9391,14209 9391,15459 9017,15675 8258,15675 Z"/>
     <path fill="rgb(182,182,182)" stroke="none" d="M 9017,15675 L 8258,16114 8258,15675 9017,15675 Z M 8258,15656 L 8258,14864 9391,14209 9391,15459 9050,15656 8258,15656 Z"/>
     <path fill="rgb(183,183,183)" stroke="none" d="M 9050,15656 L 8258,16114 8258,15656 9050,15656 Z M 8258,15637 L 8258,14864 9391,14209 9391,15459 9083,15637 8258,15637 Z"/>
     <path fill="rgb(184,184,184)" stroke="none" d="M 9083,15637 L 8258,16114 8258,15637 9083,15637 Z M 8258,15618 L 8258,14864 9391,14209 9391,15459 9116,15618 8258,15618 Z"/>
     <path fill="rgb(185,185,185)" stroke="none" d="M 9116,15618 L 8258,16114 8258,15618 9116,15618 Z M 8258,15599 L 8258,14864 9391,14209 9391,15459 9149,15599 8258,15599 Z"/>
     <path fill="rgb(186,186,186)" stroke="none" d="M 9149,15599 L 8258,16114 8258,15599 9149,15599 Z M 8258,15580 L 8258,14864 9391,14209 9391,15459 9182,15580 8258,15580 Z"/>
     <path fill="rgb(187,187,187)" stroke="none" d="M 9182,15580 L 8258,16114 8258,15580 9182,15580 Z M 9378,15467 L 9215,15561 8258,15561 8258,14864 9378,14217 9378,15467 Z"/>
     <path fill="rgb(188,188,188)" stroke="none" d="M 9215,15561 L 8258,16114 8258,15561 9215,15561 Z M 9378,14217 L 9391,14209 9391,15459 9378,15467 9378,14217 Z M 9359,15477 L 9247,15542 8258,15542 8258,14864 9359,14227 9359,15477 Z"/>
     <path fill="rgb(189,189,189)" stroke="none" d="M 9247,15542 L 8258,16114 8258,15542 9247,15542 Z M 9359,14227 L 9391,14209 9391,15459 9359,15477 9359,14227 Z M 9340,15488 L 9280,15523 8258,15523 8258,14864 9340,14238 9340,15488 Z"/>
     <path fill="rgb(190,190,190)" stroke="none" d="M 9280,15523 L 8258,16114 8258,15523 9280,15523 Z M 9340,14238 L 9391,14209 9391,15459 9340,15488 9340,14238 Z M 9321,15499 L 9313,15504 8258,15504 8258,14864 9321,14249 9321,15499 Z"/>
     <path fill="rgb(191,191,191)" stroke="none" d="M 9313,15504 L 8258,16114 8258,15504 9313,15504 Z M 9321,14249 L 9391,14209 9391,15459 9321,15499 9321,14249 Z M 9301,15484 L 8258,15484 8258,14864 9301,14261 9301,15484 Z"/>
     <path fill="rgb(192,192,192)" stroke="none" d="M 9301,15484 L 9301,14261 9391,14209 9391,15459 8258,16114 8258,15484 9301,15484 Z M 9282,15465 L 8258,15465 8258,14864 9282,14272 9282,15465 Z"/>
     <path fill="rgb(193,193,193)" stroke="none" d="M 9282,15465 L 9282,14272 9391,14209 9391,15459 8258,16114 8258,15465 9282,15465 Z M 9263,15446 L 8258,15446 8258,14864 9263,14283 9263,15446 Z"/>
     <path fill="rgb(194,194,194)" stroke="none" d="M 9263,15446 L 9263,14283 9391,14209 9391,15459 8258,16114 8258,15446 9263,15446 Z M 9244,15427 L 8258,15427 8258,14864 9244,14294 9244,15427 Z"/>
     <path fill="rgb(195,195,195)" stroke="none" d="M 9244,15427 L 9244,14294 9391,14209 9391,15459 8258,16114 8258,15427 9244,15427 Z M 9225,15408 L 8258,15408 8258,14864 9225,14305 9225,15408 Z"/>
     <path fill="rgb(196,196,196)" stroke="none" d="M 9225,15408 L 9225,14305 9391,14209 9391,15459 8258,16114 8258,15408 9225,15408 Z M 9206,15389 L 8258,15389 8258,14864 9206,14316 9206,15389 Z"/>
     <path fill="rgb(197,197,197)" stroke="none" d="M 9206,15389 L 9206,14316 9391,14209 9391,15459 8258,16114 8258,15389 9206,15389 Z M 9187,15370 L 8258,15370 8258,14864 9187,14327 9187,15370 Z"/>
     <path fill="rgb(198,198,198)" stroke="none" d="M 9187,15370 L 9187,14327 9391,14209 9391,15459 8258,16114 8258,15370 9187,15370 Z M 9168,15351 L 8258,15351 8258,14864 9168,14338 9168,15351 Z"/>
     <path fill="rgb(199,199,199)" stroke="none" d="M 9168,15351 L 9168,14338 9391,14209 9391,15459 8258,16114 8258,15351 9168,15351 Z M 9149,15332 L 8258,15332 8258,14864 9149,14349 9149,15332 Z"/>
     <path fill="rgb(200,200,200)" stroke="none" d="M 9149,15332 L 9149,14349 9391,14209 9391,15459 8258,16114 8258,15332 9149,15332 Z M 9130,15313 L 8258,15313 8258,14864 9130,14360 9130,15313 Z"/>
     <path fill="rgb(201,201,201)" stroke="none" d="M 9130,15313 L 9130,14360 9391,14209 9391,15459 8258,16114 8258,15313 9130,15313 Z M 9111,15294 L 8258,15294 8258,14864 9111,14371 9111,15294 Z"/>
     <path fill="rgb(202,202,202)" stroke="none" d="M 9111,15294 L 9111,14371 9391,14209 9391,15459 8258,16114 8258,15294 9111,15294 Z M 9092,15275 L 8258,15275 8258,14864 9092,14382 9092,15275 Z"/>
     <path fill="rgb(203,203,203)" stroke="none" d="M 9092,15275 L 9092,14382 9391,14209 9391,15459 8258,16114 8258,15275 9092,15275 Z M 9073,15256 L 8258,15256 8258,14864 9073,14393 9073,15256 Z"/>
     <path fill="rgb(204,204,204)" stroke="none" d="M 9073,15256 L 9073,14393 9391,14209 9391,15459 8258,16114 8258,15256 9073,15256 Z M 9053,15236 L 8258,15236 8258,14864 9053,14404 9053,15236 Z"/>
     <path fill="rgb(205,205,205)" stroke="none" d="M 9053,15236 L 9053,14404 9391,14209 9391,15459 8258,16114 8258,15236 9053,15236 Z M 9034,15217 L 8258,15217 8258,14864 9034,14415 9034,15217 Z"/>
     <path fill="rgb(206,206,206)" stroke="none" d="M 9034,15217 L 9034,14415 9391,14209 9391,15459 8258,16114 8258,15217 9034,15217 Z M 9015,15198 L 8258,15198 8258,14864 9015,14426 9015,15198 Z"/>
     <path fill="rgb(207,207,207)" stroke="none" d="M 9015,15198 L 9015,14426 9391,14209 9391,15459 8258,16114 8258,15198 9015,15198 Z M 8996,15179 L 8258,15179 8258,14864 8996,14437 8996,15179 Z"/>
     <path fill="rgb(208,208,208)" stroke="none" d="M 8996,15179 L 8996,14437 9391,14209 9391,15459 8258,16114 8258,15179 8996,15179 Z M 8977,15160 L 8258,15160 8258,14864 8977,14448 8977,15160 Z"/>
     <path fill="rgb(209,209,209)" stroke="none" d="M 8977,15160 L 8977,14448 9391,14209 9391,15459 8258,16114 8258,15160 8977,15160 Z M 8958,15141 L 8258,15141 8258,14864 8958,14459 8958,15141 Z"/>
     <path fill="rgb(210,210,210)" stroke="none" d="M 8958,15141 L 8958,14459 9391,14209 9391,15459 8258,16114 8258,15141 8958,15141 Z M 8939,15122 L 8258,15122 8258,14864 8939,14470 8939,15122 Z"/>
     <path fill="rgb(211,211,211)" stroke="none" d="M 8939,15122 L 8939,14470 9391,14209 9391,15459 8258,16114 8258,15122 8939,15122 Z M 8920,15103 L 8272,15103 8272,14856 8920,14481 8920,15103 Z"/>
     <path fill="rgb(212,212,212)" stroke="none" d="M 8272,15103 L 8920,15103 8920,14481 9391,14209 9391,15459 8258,16114 8258,14864 8272,14856 8272,15103 Z M 8901,15084 L 8291,15084 8291,14845 8901,14492 8901,15084 Z"/>
     <path fill="rgb(213,213,213)" stroke="none" d="M 8291,15084 L 8901,15084 8901,14492 9391,14209 9391,15459 8258,16114 8258,14864 8291,14845 8291,15084 Z M 8882,15065 L 8310,15065 8310,14834 8882,14503 8882,15065 Z"/>
     <path fill="rgb(214,214,214)" stroke="none" d="M 8310,15065 L 8882,15065 8882,14503 9391,14209 9391,15459 8258,16114 8258,14864 8310,14834 8310,15065 Z M 8863,15046 L 8329,15046 8329,14823 8863,14514 8863,15046 Z"/>
     <path fill="rgb(215,215,215)" stroke="none" d="M 8329,15046 L 8863,15046 8863,14514 9391,14209 9391,15459 8258,16114 8258,14864 8329,14823 8329,15046 Z M 8844,14531 L 8844,15027 8348,15027 8348,14812 8834,14531 8844,14531 Z"/>
     <path fill="rgb(216,216,216)" stroke="none" d="M 8348,15027 L 8844,15027 8844,14531 8834,14531 9391,14209 9391,15459 8258,16114 8258,14864 8348,14812 8348,15027 Z M 8824,14551 L 8824,15007 8368,15007 8368,14800 8799,14551 8824,14551 Z"/>
     <path fill="rgb(217,217,217)" stroke="none" d="M 8368,15007 L 8824,15007 8824,14551 8799,14551 9391,14209 9391,15459 8258,16114 8258,14864 8368,14800 8368,15007 Z M 8805,14570 L 8805,14988 8387,14988 8387,14789 8767,14570 8805,14570 Z"/>
     <path fill="rgb(218,218,218)" stroke="none" d="M 8387,14988 L 8805,14988 8805,14570 8767,14570 9391,14209 9391,15459 8258,16114 8258,14864 8387,14789 8387,14988 Z M 8786,14589 L 8786,14969 8406,14969 8406,14778 8734,14589 8786,14589 Z"/>
     <path fill="rgb(219,219,219)" stroke="none" d="M 8406,14969 L 8786,14969 8786,14589 8734,14589 9391,14209 9391,15459 8258,16114 8258,14864 8406,14778 8406,14969 Z M 8767,14608 L 8767,14950 8425,14950 8425,14767 8701,14608 8767,14608 Z"/>
     <path fill="rgb(220,220,220)" stroke="none" d="M 8425,14950 L 8767,14950 8767,14608 8701,14608 9391,14209 9391,15459 8258,16114 8258,14864 8425,14767 8425,14950 Z M 8748,14627 L 8748,14931 8444,14931 8444,14756 8668,14627 8748,14627 Z"/>
     <path fill="rgb(221,221,221)" stroke="none" d="M 8444,14931 L 8748,14931 8748,14627 8668,14627 9391,14209 9391,15459 8258,16114 8258,14864 8444,14756 8444,14931 Z M 8729,14646 L 8729,14912 8463,14912 8463,14745 8635,14646 8729,14646 Z"/>
     <path fill="rgb(222,222,222)" stroke="none" d="M 8463,14912 L 8729,14912 8729,14646 8635,14646 9391,14209 9391,15459 8258,16114 8258,14864 8463,14745 8463,14912 Z M 8710,14665 L 8710,14893 8482,14893 8482,14735 8602,14665 8710,14665 Z"/>
     <path fill="rgb(223,223,223)" stroke="none" d="M 8482,14893 L 8710,14893 8710,14665 8602,14665 9391,14209 9391,15459 8258,16114 8258,14864 8482,14735 8482,14893 Z M 8691,14684 L 8691,14874 8501,14874 8501,14724 8569,14684 8691,14684 Z"/>
     <path fill="rgb(224,224,224)" stroke="none" d="M 8501,14874 L 8691,14874 8691,14684 8569,14684 9391,14209 9391,15459 8258,16114 8258,14864 8501,14724 8501,14874 Z M 8672,14703 L 8672,14855 8520,14855 8520,14713 8536,14703 8672,14703 Z"/>
     <path fill="rgb(225,225,225)" stroke="none" d="M 8520,14855 L 8672,14855 8672,14703 8536,14703 9391,14209 9391,15459 8258,16114 8258,14864 8520,14713 8520,14855 Z M 8539,14722 L 8653,14722 8653,14836 8539,14836 8539,14722 Z"/>
     <path fill="rgb(226,226,226)" stroke="none" d="M 8539,14722 L 8539,14836 8653,14836 8653,14722 8539,14722 Z M 8558,14741 L 8634,14741 8634,14817 8558,14817 8558,14741 Z M 8258,16114 L 8258,14864 9391,14209 9391,15459 8258,16114 Z"/>
     <path fill="rgb(227,227,227)" stroke="none" d="M 8558,14741 L 8558,14817 8634,14817 8634,14741 8558,14741 Z M 8577,14760 L 8615,14760 8615,14798 8577,14798 8577,14760 Z M 8258,16114 L 8258,14864 9391,14209 9391,15459 8258,16114 Z"/>
     <path fill="rgb(229,229,229)" stroke="none" d="M 8577,14760 L 8577,14798 8615,14798 8615,14760 8577,14760 Z M 8258,16114 L 8258,14864 9391,14209 9391,15459 8258,16114 Z"/>
     <path fill="none" stroke="rgb(255,255,255)" id="Drawing_4_0" stroke-width="40" stroke-linejoin="round" d="M 8258,16114 L 8258,14864 9391,14209 9391,15459 8258,16114 Z"/>
    </g>
    <g>
     <defs>
      <linearGradient id="Gradient_839" gradientUnits="userSpaceOnUse" x1="7122" y1="15160" x2="8259" y2="15162">
       <stop offset="0.1" stop-color="rgb(179,179,179)"/>
       <stop offset="1" stop-color="rgb(229,229,229)"/>
      </linearGradient>
     </defs>
     <path fill="url(#Gradient_839)" stroke="rgb(255,255,255)" id="Drawing_5_0" stroke-width="40" stroke-linejoin="round" d="M 7125,15459 L 7125,14209 8258,14864 8258,16114 7125,15459 Z"/>
    </g>
    <g>
     <defs>
      <linearGradient id="Gradient_840" gradientUnits="userSpaceOnUse" x1="8258" y1="13554" x2="8258" y2="14864">
       <stop offset="0.1" stop-color="rgb(179,179,179)"/>
       <stop offset="1" stop-color="rgb(229,229,229)"/>
      </linearGradient>
     </defs>
     <path fill="url(#Gradient_840)" stroke="rgb(255,255,255)" id="Drawing_6_0" stroke-width="40" stroke-linejoin="round" d="M 8258,14864 L 7125,14209 8258,13554 9391,14209 8258,14864 Z"/>
    </g>
    <g>
     <path fill="rgb(255,255,255)" stroke="none" d="M 9288,14626 L 9288,14447 9185,14507 9185,14685 9288,14626 Z"/>
     <path fill="none" stroke="rgb(127,127,127)" id="Drawing_7_0" stroke-width="40" stroke-linejoin="round" d="M 9288,14626 L 9288,14447 9185,14507 9185,14685 9288,14626 Z"/>
    </g>
    <g>
     <path fill="rgb(230,230,230)" stroke="none" d="M 7434,15518 L 7434,15280 8155,15697 8155,15935 7434,15518 Z"/>
     <path fill="none" stroke="rgb(127,127,127)" id="Drawing_8_0" stroke-width="40" stroke-linejoin="round" d="M 7434,15518 L 7434,15280 8155,15697 8155,15935 7434,15518 Z"/>
    </g>
    <g>
     <path fill="none" stroke="rgb(0,0,0)" id="Drawing_9_0" stroke-width="40" stroke-linejoin="round" d="M 7640,17051 C 7640,17468 8773,17468 8773,17051 8773,17051 8773,16327 8773,15816 L 9391,15459 9391,14209 8258,13554 7125,14209 7125,15459 7640,15757 7640,17051 Z"/>
    </g>
   </g>
  </g>
 </g>
</svg>