<?xml version="1.0" encoding="UTF-8"?>

<svg version="1.2" baseProfile="tiny" width="26.02mm" height="37.5mm" viewBox="7043 7083 2602 3750" preserveAspectRatio="xMidYMid" fill-rule="evenodd" stroke-width="28.222" stroke-linejoin="round" xmlns="http://www.w3.org/2000/svg" xmlns:xlink="http://www.w3.org/1999/xlink" xml:space="preserve">
 <g visibility="visible" id="Slide_1">
  <g id="DrawingGroup_1">
   <g>
    <path fill="rgb(221,221,221)" stroke="none" d="M 8184,10813 C 8464,10813 9508,10460 9610,10283 9712,10107 9584,9871 9305,9871 9305,10048 8184,10577 8184,10813 Z"/>
    <path fill="none" stroke="rgb(221,221,221)" id="Drawing_1_0" stroke-linejoin="round" d="M 8184,10813 C 8464,10813 9508,10460 9610,10283 9712,10107 9584,9871 9305,9871 9305,10048 8184,10577 8184,10813 Z"/>
   </g>
   <g id="DrawingGroup_2">
    <g>
     <path fill="rgb(179,179,179)" stroke="none" d="M 8184,10418 L 8184,9577 9305,8929 9305,10166 8868,10418 8184,10418 Z"/>
     <path fill="rgb(180,180,180)" stroke="none" d="M 8868,10418 L 8184,10813 8184,10418 8868,10418 Z M 8184,10399 L 8184,9577 9305,8929 9305,10166 8901,10399 8184,10399 Z"/>
     <path fill="rgb(181,181,181)" stroke="none" d="M 8901,10399 L 8184,10813 8184,10399 8901,10399 Z M 8184,10380 L 8184,9577 9305,8929 9305,10166 8934,10380 8184,10380 Z"/>
     <path fill="rgb(182,182,182)" stroke="none" d="M 8934,10380 L 8184,10813 8184,10380 8934,10380 Z M 8184,10361 L 8184,9577 9305,8929 9305,10166 8967,10361 8184,10361 Z"/>
     <path fill="rgb(183,183,183)" stroke="none" d="M 8967,10361 L 8184,10813 8184,10361 8967,10361 Z M 8184,10342 L 8184,9577 9305,8929 9305,10166 9000,10342 8184,10342 Z"/>
     <path fill="rgb(184,184,184)" stroke="none" d="M 9000,10342 L 8184,10813 8184,10342 9000,10342 Z M 8184,10323 L 8184,9577 9305,8929 9305,10166 9033,10323 8184,10323 Z"/>
     <path fill="rgb(185,185,185)" stroke="none" d="M 9033,10323 L 8184,10813 8184,10323 9033,10323 Z M 8184,10304 L 8184,9577 9305,8929 9305,10166 9066,10304 8184,10304 Z"/>
     <path fill="rgb(186,186,186)" stroke="none" d="M 9066,10304 L 8184,10813 8184,10304 9066,10304 Z M 8184,10286 L 8184,9577 9305,8929 9305,10166 9097,10286 8184,10286 Z"/>
     <path fill="rgb(187,187,187)" stroke="none" d="M 9097,10286 L 8184,10813 8184,10286 9097,10286 Z M 9293,10173 L 9130,10267 8184,10267 8184,9577 9293,8936 9293,10173 Z"/>
     <path fill="rgb(188,188,188)" stroke="none" d="M 9130,10267 L 8184,10813 8184,10267 9130,10267 Z M 9293,8936 L 9305,8929 9305,10166 9293,10173 9293,8936 Z M 9274,10184 L 9163,10248 8184,10248 8184,9577 9274,8947 9274,10184 Z"/>
     <path fill="rgb(189,189,189)" stroke="none" d="M 9163,10248 L 8184,10813 8184,10248 9163,10248 Z M 9274,8947 L 9305,8929 9305,10166 9274,10184 9274,8947 Z M 9255,10195 L 9196,10229 8184,10229 8184,9577 9255,8958 9255,10195 Z"/>
     <path fill="rgb(190,190,190)" stroke="none" d="M 9196,10229 L 8184,10813 8184,10229 9196,10229 Z M 9255,8958 L 9305,8929 9305,10166 9255,10195 9255,8958 Z M 9236,10206 L 9229,10210 8184,10210 8184,9577 9236,8969 9236,10206 Z"/>
     <path fill="rgb(191,191,191)" stroke="none" d="M 9229,10210 L 8184,10813 8184,10210 9229,10210 Z M 9236,8969 L 9305,8929 9305,10166 9236,10206 9236,8969 Z M 9217,10191 L 8184,10191 8184,9577 9217,8980 9217,10191 Z"/>
     <path fill="rgb(192,192,192)" stroke="none" d="M 9217,10191 L 9217,8980 9305,8929 9305,10166 8184,10813 8184,10191 9217,10191 Z M 9198,10172 L 8184,10172 8184,9577 9198,8991 9198,10172 Z"/>
     <path fill="rgb(193,193,193)" stroke="none" d="M 9198,10172 L 9198,8991 9305,8929 9305,10166 8184,10813 8184,10172 9198,10172 Z M 9179,10153 L 8184,10153 8184,9577 9179,9002 9179,10153 Z"/>
     <path fill="rgb(194,194,194)" stroke="none" d="M 9179,10153 L 9179,9002 9305,8929 9305,10166 8184,10813 8184,10153 9179,10153 Z M 9161,10135 L 8184,10135 8184,9577 9161,9012 9161,10135 Z"/>
     <path fill="rgb(195,195,195)" stroke="none" d="M 9161,10135 L 9161,9012 9305,8929 9305,10166 8184,10813 8184,10135 9161,10135 Z M 9142,10116 L 8184,10116 8184,9577 9142,9023 9142,10116 Z"/>
     <path fill="rgb(196,196,196)" stroke="none" d="M 9142,10116 L 9142,9023 9305,8929 9305,10166 8184,10813 8184,10116 9142,10116 Z M 9123,10097 L 8184,10097 8184,9577 9123,9034 9123,10097 Z"/>
     <path fill="rgb(197,197,197)" stroke="none" d="M 9123,10097 L 9123,9034 9305,8929 9305,10166 8184,10813 8184,10097 9123,10097 Z M 9104,10078 L 8184,10078 8184,9577 9104,9045 9104,10078 Z"/>
     <path fill="rgb(198,198,198)" stroke="none" d="M 9104,10078 L 9104,9045 9305,8929 9305,10166 8184,10813 8184,10078 9104,10078 Z M 9085,10059 L 8184,10059 8184,9577 9085,9056 9085,10059 Z"/>
     <path fill="rgb(199,199,199)" stroke="none" d="M 9085,10059 L 9085,9056 9305,8929 9305,10166 8184,10813 8184,10059 9085,10059 Z M 9066,10040 L 8184,10040 8184,9577 9066,9067 9066,10040 Z"/>
     <path fill="rgb(200,200,200)" stroke="none" d="M 9066,10040 L 9066,9067 9305,8929 9305,10166 8184,10813 8184,10040 9066,10040 Z M 9047,10021 L 8184,10021 8184,9577 9047,9078 9047,10021 Z"/>
     <path fill="rgb(201,201,201)" stroke="none" d="M 9047,10021 L 9047,9078 9305,8929 9305,10166 8184,10813 8184,10021 9047,10021 Z M 9028,10002 L 8184,10002 8184,9577 9028,9089 9028,10002 Z"/>
     <path fill="rgb(202,202,202)" stroke="none" d="M 9028,10002 L 9028,9089 9305,8929 9305,10166 8184,10813 8184,10002 9028,10002 Z M 9010,9984 L 8184,9984 8184,9577 9010,9100 9010,9984 Z"/>
     <path fill="rgb(203,203,203)" stroke="none" d="M 9010,9984 L 9010,9100 9305,8929 9305,10166 8184,10813 8184,9984 9010,9984 Z M 8991,9965 L 8184,9965 8184,9577 8991,9111 8991,9965 Z"/>
     <path fill="rgb(204,204,204)" stroke="none" d="M 8991,9965 L 8991,9111 9305,8929 9305,10166 8184,10813 8184,9965 8991,9965 Z M 8972,9946 L 8184,9946 8184,9577 8972,9121 8972,9946 Z"/>
     <path fill="rgb(205,205,205)" stroke="none" d="M 8972,9946 L 8972,9121 9305,8929 9305,10166 8184,10813 8184,9946 8972,9946 Z M 8953,9927 L 8184,9927 8184,9577 8953,9132 8953,9927 Z"/>
     <path fill="rgb(206,206,206)" stroke="none" d="M 8953,9927 L 8953,9132 9305,8929 9305,10166 8184,10813 8184,9927 8953,9927 Z M 8934,9908 L 8184,9908 8184,9577 8934,9143 8934,9908 Z"/>
     <path fill="rgb(207,207,207)" stroke="none" d="M 8934,9908 L 8934,9143 9305,8929 9305,10166 8184,10813 8184,9908 8934,9908 Z M 8915,9889 L 8184,9889 8184,9577 8915,9154 8915,9889 Z"/>
     <path fill="rgb(208,208,208)" stroke="none" d="M 8915,9889 L 8915,9154 9305,8929 9305,10166 8184,10813 8184,9889 8915,9889 Z M 8896,9870 L 8184,9870 8184,9577 8896,9165 8896,9870 Z"/>
     <path fill="rgb(209,209,209)" stroke="none" d="M 8896,9870 L 8896,9165 9305,8929 9305,10166 8184,10813 8184,9870 8896,9870 Z M 8878,9852 L 8184,9852 8184,9577 8878,9176 8878,9852 Z"/>
     <path fill="rgb(210,210,210)" stroke="none" d="M 8878,9852 L 8878,9176 9305,8929 9305,10166 8184,10813 8184,9852 8878,9852 Z M 8859,9833 L 8184,9833 8184,9577 8859,9187 8859,9833 Z"/>
     <path fill="rgb(211,211,211)" stroke="none" d="M 8859,9833 L 8859,9187 9305,8929 9305,10166 8184,10813 8184,9833 8859,9833 Z M 8840,9814 L 8199,9814 8199,9568 8840,9198 8840,9814 Z"/>
     <path fill="rgb(212,212,212)" stroke="none" d="M 8199,9814 L 8840,9814 8840,9198 9305,8929 9305,10166 8184,10813 8184,9577 8199,9568 8199,9814 Z M 8821,9795 L 8218,9795 8218,9557 8821,9209 8821,9795 Z"/>
     <path fill="rgb(213,213,213)" stroke="none" d="M 8218,9795 L 8821,9795 8821,9209 9305,8929 9305,10166 8184,10813 8184,9577 8218,9557 8218,9795 Z M 8802,9776 L 8237,9776 8237,9546 8802,9220 8802,9776 Z"/>
     <path fill="rgb(214,214,214)" stroke="none" d="M 8237,9776 L 8802,9776 8802,9220 9305,8929 9305,10166 8184,10813 8184,9577 8237,9546 8237,9776 Z M 8783,9757 L 8256,9757 8256,9535 8783,9231 8783,9757 Z"/>
     <path fill="rgb(215,215,215)" stroke="none" d="M 8256,9757 L 8783,9757 8783,9231 9305,8929 9305,10166 8184,10813 8184,9577 8256,9535 8256,9757 Z M 8764,9249 L 8764,9738 8275,9738 8275,9524 8751,9249 8764,9249 Z"/>
     <path fill="rgb(216,216,216)" stroke="none" d="M 8275,9738 L 8764,9738 8764,9249 8751,9249 9305,8929 9305,10166 8184,10813 8184,9577 8275,9524 8275,9738 Z M 8745,9268 L 8745,9719 8294,9719 8294,9513 8719,9268 8745,9268 Z"/>
     <path fill="rgb(217,217,217)" stroke="none" d="M 8294,9719 L 8745,9719 8745,9268 8719,9268 9305,8929 9305,10166 8184,10813 8184,9577 8294,9513 8294,9719 Z M 8727,9286 L 8727,9701 8312,9701 8312,9503 8687,9286 8727,9286 Z"/>
     <path fill="rgb(218,218,218)" stroke="none" d="M 8312,9701 L 8727,9701 8727,9286 8687,9286 9305,8929 9305,10166 8184,10813 8184,9577 8312,9503 8312,9701 Z M 8708,9305 L 8708,9682 8331,9682 8331,9492 8655,9305 8708,9305 Z"/>
     <path fill="rgb(219,219,219)" stroke="none" d="M 8331,9682 L 8708,9682 8708,9305 8655,9305 9305,8929 9305,10166 8184,10813 8184,9577 8331,9492 8331,9682 Z M 8689,9324 L 8689,9663 8350,9663 8350,9481 8622,9324 8689,9324 Z"/>
     <path fill="rgb(220,220,220)" stroke="none" d="M 8350,9663 L 8689,9663 8689,9324 8622,9324 9305,8929 9305,10166 8184,10813 8184,9577 8350,9481 8350,9663 Z M 8670,9343 L 8670,9644 8369,9644 8369,9470 8589,9343 8670,9343 Z"/>
     <path fill="rgb(221,221,221)" stroke="none" d="M 8369,9644 L 8670,9644 8670,9343 8589,9343 9305,8929 9305,10166 8184,10813 8184,9577 8369,9470 8369,9644 Z M 8651,9362 L 8651,9625 8388,9625 8388,9459 8556,9362 8651,9362 Z"/>
     <path fill="rgb(222,222,222)" stroke="none" d="M 8388,9625 L 8651,9625 8651,9362 8556,9362 9305,8929 9305,10166 8184,10813 8184,9577 8388,9459 8388,9625 Z M 8632,9381 L 8632,9606 8407,9606 8407,9448 8523,9381 8632,9381 Z"/>
     <path fill="rgb(223,223,223)" stroke="none" d="M 8407,9606 L 8632,9606 8632,9381 8523,9381 9305,8929 9305,10166 8184,10813 8184,9577 8407,9448 8407,9606 Z M 8613,9400 L 8613,9587 8426,9587 8426,9437 8490,9400 8613,9400 Z"/>
     <path fill="rgb(224,224,224)" stroke="none" d="M 8426,9587 L 8613,9587 8613,9400 8490,9400 9305,8929 9305,10166 8184,10813 8184,9577 8426,9437 8426,9587 Z M 8594,9419 L 8594,9568 8445,9568 8445,9426 8457,9419 8594,9419 Z"/>
     <path fill="rgb(225,225,225)" stroke="none" d="M 8445,9568 L 8594,9568 8594,9419 8457,9419 9305,8929 9305,10166 8184,10813 8184,9577 8445,9426 8445,9568 Z M 8463,9437 L 8576,9437 8576,9550 8463,9550 8463,9437 Z"/>
     <path fill="rgb(226,226,226)" stroke="none" d="M 8463,9437 L 8463,9550 8576,9550 8576,9437 8463,9437 Z M 8482,9456 L 8557,9456 8557,9531 8482,9531 8482,9456 Z M 8184,10813 L 8184,9577 9305,8929 9305,10166 8184,10813 Z"/>
     <path fill="rgb(227,227,227)" stroke="none" d="M 8482,9456 L 8482,9531 8557,9531 8557,9456 8482,9456 Z M 8501,9475 L 8538,9475 8538,9512 8501,9512 8501,9475 Z M 8184,10813 L 8184,9577 9305,8929 9305,10166 8184,10813 Z"/>
     <path fill="rgb(229,229,229)" stroke="none" d="M 8501,9475 L 8501,9512 8538,9512 8538,9475 8501,9475 Z M 8184,10813 L 8184,9577 9305,8929 9305,10166 8184,10813 Z"/>
     <path fill="none" stroke="rgb(255,255,255)" id="Drawing_2_0" stroke-width="40" stroke-linejoin="round" d="M 8184,10813 L 8184,9577 9305,8929 9305,10166 8184,10813 Z"/>
    </g>
    <g>
     <defs>
      <linearGradient id="Gradient_832" gradientUnits="userSpaceOnUse" x1="7060" y1="9870" x2="8185" y2="9872">
       <stop offset="0.1" stop-color="rgb(179,179,179)"/>
       <stop offset="1" stop-color="rgb(229,229,229)"/>
      </linearGradient>
     </defs>
     <path fill="url(#Gradient_832)" stroke="rgb(255,255,255)" id="Drawing_3_0" stroke-width="40" stroke-linejoin="round" d="M 7063,10166 L 7063,8929 8184,9577 8184,10813 7063,10166 Z"/>
    </g>
    <g>
     <defs>
      <linearGradient id="Gradient_833" gradientUnits="userSpaceOnUse" x1="8183" y1="8281" x2="8183" y2="9577">
       <stop offset="0.1" stop-color="rgb(179,179,179)"/>
       <stop offset="1" stop-color="rgb(229,229,229)"/>
      </linearGradient>
     </defs>
     <path fill="url(#Gradient_833)" stroke="rgb(255,255,255)" id="Drawing_4_0" stroke-width="40" stroke-linejoin="round" d="M 8184,9577 L 7063,8929 8184,8281 9304,8929 8184,9577 Z"/>
    </g>
    <g>
     <path fill="rgb(255,255,255)" stroke="none" d="M 7165,10107 L 7165,9930 7267,9989 7267,10166 7165,10107 Z"/>
     <path fill="none" stroke="rgb(127,127,127)" id="Drawing_5_0" stroke-width="40" stroke-linejoin="round" d="M 7165,10107 L 7165,9930 7267,9989 7267,10166 7165,10107 Z"/>
    </g>
    <g>
     <path fill="none" stroke="rgb(0,0,0)" id="Drawing_6_0" stroke-width="40" stroke-linejoin="round" d="M 7063,10165 L 7063,8929 8184,8281 9304,8929 9304,10165 8184,10813 7063,10165 Z"/>
    </g>
    <g>
     <path fill="rgb(230,230,230)" stroke="none" d="M 8999,9518 L 8999,9282 8286,9694 8286,9930 8999,9518 Z"/>
     <path fill="none" stroke="rgb(127,127,127)" id="Drawing_7_0" stroke-width="40" stroke-linejoin="round" d="M 8999,9518 L 8999,9282 8286,9694 8286,9930 8999,9518 Z"/>
    </g>
    <g>
     <defs>
      <linearGradient id="Gradient_834" gradientUnits="userSpaceOnUse" x1="7672" y1="8456" x2="8795" y2="8458">
       <stop offset="0.1" stop-color="rgb(51,51,51)"/>
       <stop offset="1" stop-color="rgb(153,153,153)"/>
      </linearGradient>
     </defs>
     <path fill="url(#Gradient_834)" stroke="none" id="Drawing_8_0" d="M 7674,8914 L 7677,8951 7687,8986 7702,9019 7722,9049 7748,9077 7777,9102 7811,9125 7849,9146 7934,9180 8029,9204 8130,9218 8235,9223 8339,9218 8440,9204 8535,9180 8620,9146 8658,9125 8692,9102 8721,9077 8747,9049 8767,9019 8782,8986 8792,8951 8795,8914 8795,7692 8792,7735 8782,7775 8767,7812 8747,7847 8721,7878 8692,7907 8658,7933 8620,7957 8535,7996 8440,8023 8339,8040 8235,8045 8130,8040 8029,8023 7934,7996 7849,7957 7811,7933 7777,7907 7748,7878 7722,7847 7702,7812 7687,7775 7677,7735 7674,7692 7674,8487 7674,8908 7674,8983 7674,8983 7674,8983 7674,8983 7674,8983 7674,8981 7674,8969 7674,8914 Z"/>
     <path fill="none" stroke="rgb(255,255,255)" id="Drawing_8_1" stroke-width="40" stroke-linejoin="round" d="M 7674,8914 C 7674,9326 8795,9326 8795,8914 L 8795,7692 C 8795,8163 7674,8163 7674,7692 7674,7770 7674,9326 7674,8914 Z"/>
    </g>
    <g>
     <defs>
      <linearGradient id="Gradient_835" gradientUnits="userSpaceOnUse" x1="8233" y1="8047" x2="8235" y2="7382">
       <stop offset="0.1" stop-color="rgb(179,179,179)"/>
       <stop offset="1" stop-color="rgb(229,229,229)"/>
      </linearGradient>
     </defs>
     <path fill="url(#Gradient_835)" stroke="none" id="Drawing_9_0" d="M 7674,7736 L 7677,7774 7687,7809 7702,7841 7722,7872 7748,7899 7777,7925 7811,7948 7849,7968 7934,8002 8029,8026 8130,8041 8235,8046 8339,8041 8440,8026 8535,8002 8620,7968 8658,7948 8692,7925 8721,7899 8747,7872 8767,7841 8782,7809 8792,7774 8795,7736 8795,7383 8792,7426 8782,7466 8767,7503 8747,7538 8721,7569 8692,7598 8658,7624 8620,7648 8535,7687 8440,7714 8339,7731 8235,7736 8130,7731 8029,7714 7934,7687 7849,7648 7811,7624 7777,7598 7748,7569 7722,7538 7702,7503 7687,7466 7677,7426 7674,7383 7674,7736 Z"/>
     <path fill="none" stroke="rgb(255,255,255)" id="Drawing_9_1" stroke-width="40" stroke-linejoin="round" d="M 7674,7736 C 7674,8149 8795,8149 8795,7736 L 8795,7383 C 8795,7854 7674,7854 7674,7383 7674,7461 7674,7736 7674,7736 Z"/>
    </g>
    <g>
     <defs>
      <linearGradient id="Gradient_836" gradientUnits="userSpaceOnUse" x1="8234" y1="7103" x2="8234" y2="7750">
       <stop offset="0.1" stop-color="rgb(179,179,179)"/>
       <stop offset="1" stop-color="rgb(229,229,229)"/>
      </linearGradient>
     </defs>
     <path fill="url(#Gradient_836)" stroke="none" id="Drawing_10_0" d="M 8642,7191 L 8678,7214 8709,7240 8735,7268 8757,7298 8773,7329 8785,7361 8793,7394 8795,7427 8793,7460 8785,7492 8773,7524 8757,7555 8735,7585 8709,7613 8678,7638 8642,7662 8601,7682 8557,7700 8509,7716 8457,7728 8404,7738 8348,7745 8235,7750 8121,7745 8065,7738 8012,7728 7960,7716 7912,7700 7868,7682 7827,7662 7791,7638 7760,7613 7734,7585 7712,7555 7696,7524 7684,7492 7676,7460 7674,7427 7676,7394 7684,7361 7696,7329 7712,7298 7734,7268 7760,7240 7791,7214 7827,7191 7868,7170 7912,7152 7960,7137 8012,7125 8065,7115 8121,7108 8235,7103 8348,7108 8404,7115 8457,7125 8509,7137 8557,7152 8601,7170 8642,7191 Z"/>
     <path fill="none" stroke="rgb(255,255,255)" id="Drawing_10_1" stroke-width="40" stroke-linejoin="round" d="M 8642,7191 C 8846,7309 8846,7545 8642,7662 8438,7780 8031,7780 7827,7662 7623,7545 7623,7309 7827,7191 8031,7074 8438,7074 8642,7191 Z"/>
    </g>
    <g>
     <path fill="none" stroke="rgb(0,0,0)" id="Drawing_11_0" stroke-width="40" stroke-linejoin="round" d="M 7674,8913 C 7674,9326 8795,9326 8795,8913 L 8795,7397 C 8795,7044 7674,7044 7674,7397 7674,7475 7674,9326 7674,8913 Z"/>
    </g>
   </g>
  </g>
 </g>
</svg>