<?xml version="1.0" encoding="UTF-8"?>

<svg version="1.2" baseProfile="tiny" width="24.79mm" height="29.5mm" viewBox="3297 5706 2479 2950" preserveAspectRatio="xMidYMid" fill-rule="evenodd" stroke-width="28.222" stroke-linejoin="round" xmlns="http://www.w3.org/2000/svg" xmlns:xlink="http://www.w3.org/1999/xlink" xml:space="preserve">
 <g visibility="visible" id="Slide_1">
  <g id="DrawingGroup_1">
   <g>
    <path fill="rgb(221,221,221)" stroke="none" d="M 3329,8613 C 3542,8613 4955,8658 4955,8479 4955,8300 4393,8076 4181,8076 4181,8210 3329,8434 3329,8613 Z"/>
    <path fill="none" stroke="rgb(221,221,221)" id="Drawing_1_0" stroke-linejoin="round" d="M 3329,8613 C 3542,8613 4955,8658 4955,8479 4955,8300 4393,8076 4181,8076 4181,8210 3329,8434 3329,8613 Z"/>
   </g>
   <g id="DrawingGroup_2">
    <g>
     <path fill="rgb(179,179,179)" stroke="none" d="M 3318,8362 L 3318,7740 4092,7337 4092,8188 3791,8362 3318,8362 Z"/>
     <path fill="rgb(180,180,180)" stroke="none" d="M 3791,8362 L 3318,8635 3318,8362 3791,8362 Z M 3318,8349 L 3318,7740 4092,7337 4092,8188 3813,8349 3318,8349 Z"/>
     <path fill="rgb(181,181,181)" stroke="none" d="M 3813,8349 L 3318,8635 3318,8349 3813,8349 Z M 3318,8336 L 3318,7740 4092,7337 4092,8188 3836,8336 3318,8336 Z"/>
     <path fill="rgb(182,182,182)" stroke="none" d="M 3836,8336 L 3318,8635 3318,8336 3836,8336 Z M 3318,8323 L 3318,7740 4092,7337 4092,8188 3858,8323 3318,8323 Z"/>
     <path fill="rgb(183,183,183)" stroke="none" d="M 3858,8323 L 3318,8635 3318,8323 3858,8323 Z M 3318,8310 L 3318,7740 4092,7337 4092,8188 3881,8310 3318,8310 Z"/>
     <path fill="rgb(184,184,184)" stroke="none" d="M 3881,8310 L 3318,8635 3318,8310 3881,8310 Z M 3318,8297 L 3318,7740 4092,7337 4092,8188 3903,8297 3318,8297 Z"/>
     <path fill="rgb(185,185,185)" stroke="none" d="M 3903,8297 L 3318,8635 3318,8297 3903,8297 Z M 3318,8284 L 3318,7740 4092,7337 4092,8188 3926,8284 3318,8284 Z"/>
     <path fill="rgb(186,186,186)" stroke="none" d="M 3926,8284 L 3318,8635 3318,8284 3926,8284 Z M 3318,8271 L 3318,7740 4092,7337 4092,8188 3948,8271 3318,8271 Z"/>
     <path fill="rgb(187,187,187)" stroke="none" d="M 3948,8271 L 3318,8635 3318,8271 3948,8271 Z M 4082,8194 L 3971,8258 3318,8258 3318,7740 4082,7342 4082,8194 Z"/>
     <path fill="rgb(188,188,188)" stroke="none" d="M 3971,8258 L 3318,8635 3318,8258 3971,8258 Z M 4082,7342 L 4092,7337 4092,8188 4082,8194 4082,7342 Z M 4069,8201 L 3993,8245 3318,8245 3318,7740 4069,7349 4069,8201 Z"/>
     <path fill="rgb(189,189,189)" stroke="none" d="M 3993,8245 L 3318,8635 3318,8245 3993,8245 Z M 4069,7349 L 4092,7337 4092,8188 4069,8201 4069,7349 Z M 4056,8209 L 4016,8232 3318,8232 3318,7740 4056,7356 4056,8209 Z"/>
     <path fill="rgb(190,190,190)" stroke="none" d="M 4016,8232 L 3318,8635 3318,8232 4016,8232 Z M 4056,7356 L 4092,7337 4092,8188 4056,8209 4056,7356 Z M 4043,8216 L 4038,8219 3318,8219 3318,7740 4043,7363 4043,8216 Z"/>
     <path fill="rgb(191,191,191)" stroke="none" d="M 4038,8219 L 3318,8635 3318,8219 4038,8219 Z M 4043,7363 L 4092,7337 4092,8188 4043,8216 4043,7363 Z M 4030,8206 L 3318,8206 3318,7740 4030,7369 4030,8206 Z"/>
     <path fill="rgb(192,192,192)" stroke="none" d="M 4030,8206 L 4030,7369 4092,7337 4092,8188 3318,8635 3318,8206 4030,8206 Z M 4017,8193 L 3318,8193 3318,7740 4017,7376 4017,8193 Z"/>
     <path fill="rgb(193,193,193)" stroke="none" d="M 4017,8193 L 4017,7376 4092,7337 4092,8188 3318,8635 3318,8193 4017,8193 Z M 4004,8180 L 3318,8180 3318,7740 4004,7383 4004,8180 Z"/>
     <path fill="rgb(194,194,194)" stroke="none" d="M 4004,8180 L 4004,7383 4092,7337 4092,8188 3318,8635 3318,8180 4004,8180 Z M 3991,8167 L 3318,8167 3318,7740 3991,7390 3991,8167 Z"/>
     <path fill="rgb(195,195,195)" stroke="none" d="M 3991,8167 L 3991,7390 4092,7337 4092,8188 3318,8635 3318,8167 3991,8167 Z M 3978,8154 L 3318,8154 3318,7740 3978,7396 3978,8154 Z"/>
     <path fill="rgb(196,196,196)" stroke="none" d="M 3978,8154 L 3978,7396 4092,7337 4092,8188 3318,8635 3318,8154 3978,8154 Z M 3965,8141 L 3318,8141 3318,7740 3965,7403 3965,8141 Z"/>
     <path fill="rgb(197,197,197)" stroke="none" d="M 3965,8141 L 3965,7403 4092,7337 4092,8188 3318,8635 3318,8141 3965,8141 Z M 3952,8128 L 3318,8128 3318,7740 3952,7410 3952,8128 Z"/>
     <path fill="rgb(198,198,198)" stroke="none" d="M 3952,8128 L 3952,7410 4092,7337 4092,8188 3318,8635 3318,8128 3952,8128 Z M 3939,8115 L 3318,8115 3318,7740 3939,7417 3939,8115 Z"/>
     <path fill="rgb(199,199,199)" stroke="none" d="M 3939,8115 L 3939,7417 4092,7337 4092,8188 3318,8635 3318,8115 3939,8115 Z M 3926,8102 L 3318,8102 3318,7740 3926,7423 3926,8102 Z"/>
     <path fill="rgb(200,200,200)" stroke="none" d="M 3926,8102 L 3926,7423 4092,7337 4092,8188 3318,8635 3318,8102 3926,8102 Z M 3913,8089 L 3318,8089 3318,7740 3913,7430 3913,8089 Z"/>
     <path fill="rgb(201,201,201)" stroke="none" d="M 3913,8089 L 3913,7430 4092,7337 4092,8188 3318,8635 3318,8089 3913,8089 Z M 3900,8076 L 3318,8076 3318,7740 3900,7437 3900,8076 Z"/>
     <path fill="rgb(202,202,202)" stroke="none" d="M 3900,8076 L 3900,7437 4092,7337 4092,8188 3318,8635 3318,8076 3900,8076 Z M 3887,8063 L 3318,8063 3318,7740 3887,7444 3887,8063 Z"/>
     <path fill="rgb(203,203,203)" stroke="none" d="M 3887,8063 L 3887,7444 4092,7337 4092,8188 3318,8635 3318,8063 3887,8063 Z M 3874,8050 L 3318,8050 3318,7740 3874,7451 3874,8050 Z"/>
     <path fill="rgb(204,204,204)" stroke="none" d="M 3874,8050 L 3874,7451 4092,7337 4092,8188 3318,8635 3318,8050 3874,8050 Z M 3861,8037 L 3318,8037 3318,7740 3861,7457 3861,8037 Z"/>
     <path fill="rgb(205,205,205)" stroke="none" d="M 3861,8037 L 3861,7457 4092,7337 4092,8188 3318,8635 3318,8037 3861,8037 Z M 3848,8024 L 3318,8024 3318,7740 3848,7464 3848,8024 Z"/>
     <path fill="rgb(206,206,206)" stroke="none" d="M 3848,8024 L 3848,7464 4092,7337 4092,8188 3318,8635 3318,8024 3848,8024 Z M 3835,8011 L 3318,8011 3318,7740 3835,7471 3835,8011 Z"/>
     <path fill="rgb(207,207,207)" stroke="none" d="M 3835,8011 L 3835,7471 4092,7337 4092,8188 3318,8635 3318,8011 3835,8011 Z M 3822,7998 L 3318,7998 3318,7740 3822,7478 3822,7998 Z"/>
     <path fill="rgb(208,208,208)" stroke="none" d="M 3822,7998 L 3822,7478 4092,7337 4092,8188 3318,8635 3318,7998 3822,7998 Z M 3809,7985 L 3318,7985 3318,7740 3809,7484 3809,7985 Z"/>
     <path fill="rgb(209,209,209)" stroke="none" d="M 3809,7985 L 3809,7484 4092,7337 4092,8188 3318,8635 3318,7985 3809,7985 Z M 3796,7972 L 3318,7972 3318,7740 3796,7491 3796,7972 Z"/>
     <path fill="rgb(210,210,210)" stroke="none" d="M 3796,7972 L 3796,7491 4092,7337 4092,8188 3318,8635 3318,7972 3796,7972 Z M 3783,7959 L 3318,7959 3318,7740 3783,7498 3783,7959 Z"/>
     <path fill="rgb(211,211,211)" stroke="none" d="M 3783,7959 L 3783,7498 4092,7337 4092,8188 3318,8635 3318,7959 3783,7959 Z M 3770,7505 L 3770,7946 3329,7946 3329,7734 3769,7505 3770,7505 Z"/>
     <path fill="rgb(212,212,212)" stroke="none" d="M 3329,7946 L 3770,7946 3770,7505 3769,7505 4092,7337 4092,8188 3318,8635 3318,7740 3329,7734 3329,7946 Z M 3757,7518 L 3757,7933 3342,7933 3342,7728 3744,7518 3757,7518 Z"/>
     <path fill="rgb(213,213,213)" stroke="none" d="M 3342,7933 L 3757,7933 3757,7518 3744,7518 4092,7337 4092,8188 3318,8635 3318,7740 3342,7728 3342,7933 Z M 3744,7531 L 3744,7920 3355,7920 3355,7721 3719,7531 3744,7531 Z"/>
     <path fill="rgb(214,214,214)" stroke="none" d="M 3355,7920 L 3744,7920 3744,7531 3719,7531 4092,7337 4092,8188 3318,8635 3318,7740 3355,7721 3355,7920 Z M 3731,7544 L 3731,7907 3368,7907 3368,7714 3694,7544 3731,7544 Z"/>
     <path fill="rgb(215,215,215)" stroke="none" d="M 3368,7907 L 3731,7907 3731,7544 3694,7544 4092,7337 4092,8188 3318,8635 3318,7740 3368,7714 3368,7907 Z M 3718,7557 L 3718,7894 3381,7894 3381,7707 3669,7557 3718,7557 Z"/>
     <path fill="rgb(216,216,216)" stroke="none" d="M 3381,7894 L 3718,7894 3718,7557 3669,7557 4092,7337 4092,8188 3318,8635 3318,7740 3381,7707 3381,7894 Z M 3705,7570 L 3705,7881 3394,7881 3394,7700 3645,7570 3705,7570 Z"/>
     <path fill="rgb(217,217,217)" stroke="none" d="M 3394,7881 L 3705,7881 3705,7570 3645,7570 4092,7337 4092,8188 3318,8635 3318,7740 3394,7700 3394,7881 Z M 3692,7583 L 3692,7868 3407,7868 3407,7694 3620,7583 3692,7583 Z"/>
     <path fill="rgb(218,218,218)" stroke="none" d="M 3407,7868 L 3692,7868 3692,7583 3620,7583 4092,7337 4092,8188 3318,8635 3318,7740 3407,7694 3407,7868 Z M 3679,7596 L 3679,7855 3420,7855 3420,7687 3595,7596 3679,7596 Z"/>
     <path fill="rgb(219,219,219)" stroke="none" d="M 3420,7855 L 3679,7855 3679,7596 3595,7596 4092,7337 4092,8188 3318,8635 3318,7740 3420,7687 3420,7855 Z M 3666,7609 L 3666,7842 3433,7842 3433,7680 3570,7609 3666,7609 Z"/>
     <path fill="rgb(220,220,220)" stroke="none" d="M 3433,7842 L 3666,7842 3666,7609 3570,7609 4092,7337 4092,8188 3318,8635 3318,7740 3433,7680 3433,7842 Z M 3653,7622 L 3653,7829 3446,7829 3446,7673 3545,7622 3653,7622 Z"/>
     <path fill="rgb(221,221,221)" stroke="none" d="M 3446,7829 L 3653,7829 3653,7622 3545,7622 4092,7337 4092,8188 3318,8635 3318,7740 3446,7673 3446,7829 Z M 3640,7635 L 3640,7816 3459,7816 3459,7667 3520,7635 3640,7635 Z"/>
     <path fill="rgb(222,222,222)" stroke="none" d="M 3459,7816 L 3640,7816 3640,7635 3520,7635 4092,7337 4092,8188 3318,8635 3318,7740 3459,7667 3459,7816 Z M 3627,7648 L 3627,7803 3472,7803 3472,7660 3495,7648 3627,7648 Z"/>
     <path fill="rgb(223,223,223)" stroke="none" d="M 3472,7803 L 3627,7803 3627,7648 3495,7648 4092,7337 4092,8188 3318,8635 3318,7740 3472,7660 3472,7803 Z M 3485,7661 L 3614,7661 3614,7790 3485,7790 3485,7661 Z"/>
     <path fill="rgb(224,224,224)" stroke="none" d="M 3485,7661 L 3485,7790 3614,7790 3614,7661 3485,7661 Z M 3498,7674 L 3601,7674 3601,7777 3498,7777 3498,7674 Z M 4092,8188 L 3318,8635 3318,7740 4092,7337 4092,8188 Z"/>
     <path fill="rgb(225,225,225)" stroke="none" d="M 3498,7674 L 3498,7777 3601,7777 3601,7674 3498,7674 Z M 3511,7687 L 3588,7687 3588,7764 3511,7764 3511,7687 Z M 4092,8188 L 3318,8635 3318,7740 4092,7337 4092,8188 Z"/>
     <path fill="rgb(226,226,226)" stroke="none" d="M 3511,7687 L 3511,7764 3588,7764 3588,7687 3511,7687 Z M 3524,7700 L 3575,7700 3575,7751 3524,7751 3524,7700 Z M 4092,8188 L 3318,8635 3318,7740 4092,7337 4092,8188 Z"/>
     <path fill="rgb(227,227,227)" stroke="none" d="M 3524,7700 L 3524,7751 3575,7751 3575,7700 3524,7700 Z M 3537,7713 L 3562,7713 3562,7738 3537,7738 3537,7713 Z M 4092,8188 L 3318,8635 3318,7740 4092,7337 4092,8188 Z"/>
     <path fill="rgb(229,229,229)" stroke="none" d="M 3537,7713 L 3537,7738 3562,7738 3562,7713 3537,7713 Z M 4092,8188 L 3318,8635 3318,7740 4092,7337 4092,8188 Z"/>
     <path fill="none" stroke="rgb(255,255,255)" id="Drawing_2_0" stroke-width="40" stroke-linejoin="round" d="M 4092,8188 L 4092,7337 3318,7740 3318,8635 4092,8188 Z"/>
    </g>
    <g>
     <defs>
      <linearGradient id="Gradient_795" gradientUnits="userSpaceOnUse" x1="3898" y1="7919" x2="3898" y2="8232">
       <stop offset="0.1" stop-color="rgb(179,179,179)"/>
       <stop offset="1" stop-color="rgb(229,229,229)"/>
      </linearGradient>
     </defs>
     <path fill="url(#Gradient_795)" stroke="rgb(255,255,255)" id="Drawing_3_0" stroke-width="40" stroke-linejoin="round" d="M 4014,8232 L 4169,8143 3782,7919 3627,8009 4014,8232 Z"/>
    </g>
    <g>
     <path fill="rgb(179,179,179)" stroke="none" d="M 4169,8247 L 4169,7383 4324,7293 4324,8247 4169,8247 Z"/>
     <path fill="rgb(180,180,180)" stroke="none" d="M 4324,8247 L 4324,8412 4169,8502 4169,8247 4324,8247 Z M 4169,8235 L 4169,7383 4324,7293 4324,8235 4169,8235 Z"/>
     <path fill="rgb(181,181,181)" stroke="none" d="M 4324,8235 L 4324,8412 4169,8502 4169,8235 4324,8235 Z M 4169,8223 L 4169,7383 4324,7293 4324,8223 4169,8223 Z"/>
     <path fill="rgb(182,182,182)" stroke="none" d="M 4324,8223 L 4324,8412 4169,8502 4169,8223 4324,8223 Z M 4169,8211 L 4169,7383 4324,7293 4324,8211 4169,8211 Z"/>
     <path fill="rgb(183,183,183)" stroke="none" d="M 4324,8211 L 4324,8412 4169,8502 4169,8211 4324,8211 Z M 4169,8199 L 4169,7383 4324,7293 4324,8199 4169,8199 Z"/>
     <path fill="rgb(184,184,184)" stroke="none" d="M 4324,8199 L 4324,8412 4169,8502 4169,8199 4324,8199 Z M 4169,8187 L 4169,7383 4324,7293 4324,8187 4169,8187 Z"/>
     <path fill="rgb(185,185,185)" stroke="none" d="M 4324,8187 L 4324,8412 4169,8502 4169,8187 4324,8187 Z M 4169,8175 L 4169,7383 4324,7293 4324,8175 4169,8175 Z"/>
     <path fill="rgb(186,186,186)" stroke="none" d="M 4324,8175 L 4324,8412 4169,8502 4169,8175 4324,8175 Z M 4169,8163 L 4169,7383 4324,7293 4324,8163 4169,8163 Z"/>
     <path fill="rgb(187,187,187)" stroke="none" d="M 4324,8163 L 4324,8412 4169,8502 4169,8163 4324,8163 Z M 4169,8150 L 4169,7383 4324,7293 4324,8150 4169,8150 Z"/>
     <path fill="rgb(188,188,188)" stroke="none" d="M 4324,8150 L 4324,8412 4169,8502 4169,8150 4324,8150 Z M 4169,8138 L 4169,7383 4324,7293 4324,8138 4169,8138 Z"/>
     <path fill="rgb(189,189,189)" stroke="none" d="M 4324,8138 L 4324,8412 4169,8502 4169,8138 4324,8138 Z M 4169,8126 L 4169,7383 4324,7293 4324,8126 4169,8126 Z"/>
     <path fill="rgb(190,190,190)" stroke="none" d="M 4324,8126 L 4324,8412 4169,8502 4169,8126 4324,8126 Z M 4169,8114 L 4169,7383 4324,7293 4324,8114 4169,8114 Z"/>
     <path fill="rgb(191,191,191)" stroke="none" d="M 4324,8114 L 4324,8412 4169,8502 4169,8114 4324,8114 Z M 4169,8102 L 4169,7383 4324,7293 4324,8102 4169,8102 Z"/>
     <path fill="rgb(192,192,192)" stroke="none" d="M 4324,8102 L 4324,8412 4169,8502 4169,8102 4324,8102 Z M 4169,8090 L 4169,7383 4324,7293 4324,8090 4169,8090 Z"/>
     <path fill="rgb(193,193,193)" stroke="none" d="M 4324,8090 L 4324,8412 4169,8502 4169,8090 4324,8090 Z M 4169,8078 L 4169,7383 4324,7293 4324,8078 4169,8078 Z"/>
     <path fill="rgb(194,194,194)" stroke="none" d="M 4324,8078 L 4324,8412 4169,8502 4169,8078 4324,8078 Z M 4169,8066 L 4169,7383 4324,7293 4324,8066 4169,8066 Z"/>
     <path fill="rgb(195,195,195)" stroke="none" d="M 4324,8066 L 4324,8412 4169,8502 4169,8066 4324,8066 Z M 4169,8053 L 4169,7383 4324,7293 4324,8053 4169,8053 Z"/>
     <path fill="rgb(196,196,196)" stroke="none" d="M 4324,8053 L 4324,8412 4169,8502 4169,8053 4324,8053 Z M 4169,8041 L 4169,7383 4324,7293 4324,8041 4169,8041 Z"/>
     <path fill="rgb(197,197,197)" stroke="none" d="M 4324,8041 L 4324,8412 4169,8502 4169,8041 4324,8041 Z M 4169,8029 L 4169,7383 4324,7293 4324,8029 4169,8029 Z"/>
     <path fill="rgb(198,198,198)" stroke="none" d="M 4324,8029 L 4324,8412 4169,8502 4169,8029 4324,8029 Z M 4169,8017 L 4169,7383 4324,7293 4324,8017 4169,8017 Z"/>
     <path fill="rgb(199,199,199)" stroke="none" d="M 4324,8017 L 4324,8412 4169,8502 4169,8017 4324,8017 Z M 4324,7303 L 4324,8005 4169,8005 4169,7383 4307,7303 4324,7303 Z"/>
     <path fill="rgb(200,200,200)" stroke="none" d="M 4324,8005 L 4324,8412 4169,8502 4169,8005 4324,8005 Z M 4307,7303 L 4324,7293 4324,7303 4307,7303 Z M 4324,7315 L 4324,7993 4169,7993 4169,7383 4286,7315 4324,7315 Z"/>
     <path fill="rgb(201,201,201)" stroke="none" d="M 4324,7993 L 4324,8412 4169,8502 4169,7993 4324,7993 Z M 4286,7315 L 4324,7293 4324,7315 4286,7315 Z M 4324,7327 L 4324,7981 4169,7981 4169,7383 4265,7327 4324,7327 Z"/>
     <path fill="rgb(202,202,202)" stroke="none" d="M 4324,7981 L 4324,8412 4169,8502 4169,7981 4324,7981 Z M 4265,7327 L 4324,7293 4324,7327 4265,7327 Z M 4324,7339 L 4324,7969 4169,7969 4169,7383 4245,7339 4324,7339 Z"/>
     <path fill="rgb(203,203,203)" stroke="none" d="M 4324,7969 L 4324,8412 4169,8502 4169,7969 4324,7969 Z M 4245,7339 L 4324,7293 4324,7339 4245,7339 Z M 4324,7352 L 4324,7956 4169,7956 4169,7383 4222,7352 4324,7352 Z"/>
     <path fill="rgb(204,204,204)" stroke="none" d="M 4324,7956 L 4324,8412 4169,8502 4169,7956 4324,7956 Z M 4222,7352 L 4324,7293 4324,7352 4222,7352 Z M 4324,7364 L 4324,7944 4169,7944 4169,7383 4202,7364 4324,7364 Z"/>
     <path fill="rgb(205,205,205)" stroke="none" d="M 4324,7944 L 4324,8412 4169,8502 4169,7944 4324,7944 Z M 4202,7364 L 4324,7293 4324,7364 4202,7364 Z M 4324,7376 L 4324,7932 4169,7932 4169,7383 4181,7376 4324,7376 Z"/>
     <path fill="rgb(206,206,206)" stroke="none" d="M 4324,7932 L 4324,8412 4169,8502 4169,7932 4324,7932 Z M 4181,7376 L 4324,7293 4324,7376 4181,7376 Z M 4324,7388 L 4324,7920 4169,7920 4169,7388 4324,7388 Z"/>
     <path fill="rgb(207,207,207)" stroke="none" d="M 4324,7920 L 4324,8412 4169,8502 4169,7920 4324,7920 Z M 4169,7388 L 4169,7383 4324,7293 4324,7388 4169,7388 Z M 4324,7400 L 4324,7908 4169,7908 4169,7400 4324,7400 Z"/>
     <path fill="rgb(208,208,208)" stroke="none" d="M 4324,7908 L 4324,8412 4169,8502 4169,7908 4324,7908 Z M 4169,7400 L 4169,7383 4324,7293 4324,7400 4169,7400 Z M 4324,7412 L 4324,7896 4169,7896 4169,7412 4324,7412 Z"/>
     <path fill="rgb(209,209,209)" stroke="none" d="M 4324,7896 L 4324,8412 4169,8502 4169,7896 4324,7896 Z M 4169,7412 L 4169,7383 4324,7293 4324,7412 4169,7412 Z M 4324,7424 L 4324,7884 4169,7884 4169,7424 4324,7424 Z"/>
     <path fill="rgb(210,210,210)" stroke="none" d="M 4324,7884 L 4324,8412 4169,8502 4169,7884 4324,7884 Z M 4169,7424 L 4169,7383 4324,7293 4324,7424 4169,7424 Z M 4324,7436 L 4324,7872 4169,7872 4169,7436 4324,7436 Z"/>
     <path fill="rgb(211,211,211)" stroke="none" d="M 4324,7872 L 4324,8412 4169,8502 4169,7872 4324,7872 Z M 4169,7436 L 4169,7383 4324,7293 4324,7436 4169,7436 Z M 4324,7448 L 4324,7860 4169,7860 4169,7448 4324,7448 Z"/>
     <path fill="rgb(212,212,212)" stroke="none" d="M 4324,7860 L 4324,8412 4169,8502 4169,7860 4324,7860 Z M 4169,7448 L 4169,7383 4324,7293 4324,7448 4169,7448 Z M 4324,7461 L 4324,7847 4169,7847 4169,7461 4324,7461 Z"/>
     <path fill="rgb(213,213,213)" stroke="none" d="M 4324,7847 L 4324,8412 4169,8502 4169,7847 4324,7847 Z M 4169,7461 L 4169,7383 4324,7293 4324,7461 4169,7461 Z M 4324,7473 L 4324,7835 4169,7835 4169,7473 4324,7473 Z"/>
     <path fill="rgb(214,214,214)" stroke="none" d="M 4324,7835 L 4324,8412 4169,8502 4169,7835 4324,7835 Z M 4169,7473 L 4169,7383 4324,7293 4324,7473 4169,7473 Z M 4324,7485 L 4324,7823 4169,7823 4169,7485 4324,7485 Z"/>
     <path fill="rgb(215,215,215)" stroke="none" d="M 4324,7823 L 4324,8412 4169,8502 4169,7823 4324,7823 Z M 4169,7485 L 4169,7383 4324,7293 4324,7485 4169,7485 Z M 4324,7497 L 4324,7811 4169,7811 4169,7497 4324,7497 Z"/>
     <path fill="rgb(216,216,216)" stroke="none" d="M 4324,7811 L 4324,8412 4169,8502 4169,7811 4324,7811 Z M 4169,7497 L 4169,7383 4324,7293 4324,7497 4169,7497 Z M 4324,7509 L 4324,7799 4169,7799 4169,7509 4324,7509 Z"/>
     <path fill="rgb(217,217,217)" stroke="none" d="M 4324,7799 L 4324,8412 4169,8502 4169,7799 4324,7799 Z M 4169,7509 L 4169,7383 4324,7293 4324,7509 4169,7509 Z M 4324,7521 L 4324,7787 4169,7787 4169,7521 4324,7521 Z"/>
     <path fill="rgb(218,218,218)" stroke="none" d="M 4324,7787 L 4324,8412 4169,8502 4169,7787 4324,7787 Z M 4169,7521 L 4169,7383 4324,7293 4324,7521 4169,7521 Z M 4324,7533 L 4324,7775 4169,7775 4169,7533 4324,7533 Z"/>
     <path fill="rgb(219,219,219)" stroke="none" d="M 4324,7775 L 4324,8412 4169,8502 4169,7775 4324,7775 Z M 4169,7533 L 4169,7383 4324,7293 4324,7533 4169,7533 Z M 4323,7545 L 4323,7763 4169,7763 4169,7545 4323,7545 Z"/>
     <path fill="rgb(220,220,220)" stroke="none" d="M 4323,7763 L 4323,7545 4169,7545 4169,7383 4324,7293 4324,8412 4169,8502 4169,7763 4323,7763 Z M 4310,7558 L 4310,7750 4169,7750 4169,7558 4310,7558 Z"/>
     <path fill="rgb(221,221,221)" stroke="none" d="M 4310,7750 L 4310,7558 4169,7558 4169,7383 4324,7293 4324,8412 4169,8502 4169,7750 4310,7750 Z M 4298,7570 L 4298,7738 4169,7738 4169,7570 4298,7570 Z"/>
     <path fill="rgb(222,222,222)" stroke="none" d="M 4298,7738 L 4298,7570 4169,7570 4169,7383 4324,7293 4324,8412 4169,8502 4169,7738 4298,7738 Z M 4286,7582 L 4286,7726 4169,7726 4169,7582 4286,7582 Z"/>
     <path fill="rgb(223,223,223)" stroke="none" d="M 4286,7726 L 4286,7582 4169,7582 4169,7383 4324,7293 4324,8412 4169,8502 4169,7726 4286,7726 Z M 4274,7594 L 4274,7714 4169,7714 4169,7594 4274,7594 Z"/>
     <path fill="rgb(224,224,224)" stroke="none" d="M 4274,7714 L 4274,7594 4169,7594 4169,7383 4324,7293 4324,8412 4169,8502 4169,7714 4274,7714 Z M 4262,7606 L 4262,7702 4169,7702 4169,7606 4262,7606 Z"/>
     <path fill="rgb(225,225,225)" stroke="none" d="M 4262,7702 L 4262,7606 4169,7606 4169,7383 4324,7293 4324,8412 4169,8502 4169,7702 4262,7702 Z M 4178,7618 L 4250,7618 4250,7690 4178,7690 4178,7618 Z"/>
     <path fill="rgb(226,226,226)" stroke="none" d="M 4178,7618 L 4178,7690 4250,7690 4250,7618 4178,7618 Z M 4190,7630 L 4238,7630 4238,7678 4190,7678 4190,7630 Z M 4324,8412 L 4169,8502 4169,7383 4324,7293 4324,8412 Z"/>
     <path fill="rgb(227,227,227)" stroke="none" d="M 4190,7630 L 4190,7678 4238,7678 4238,7630 4190,7630 Z M 4202,7642 L 4226,7642 4226,7666 4202,7666 4202,7642 Z M 4324,8412 L 4169,8502 4169,7383 4324,7293 4324,8412 Z"/>
     <path fill="rgb(229,229,229)" stroke="none" d="M 4202,7642 L 4202,7666 4226,7666 4226,7642 4202,7642 Z M 4324,8412 L 4169,8502 4169,7383 4324,7293 4324,8412 Z"/>
     <path fill="none" stroke="rgb(255,255,255)" id="Drawing_4_0" stroke-width="40" stroke-linejoin="round" d="M 4324,8412 L 4324,7293 4169,7383 4169,8502 4324,8412 Z"/>
    </g>
    <g>
     <defs>
      <linearGradient id="Gradient_796" gradientUnits="userSpaceOnUse" x1="3626" y1="7897" x2="4170" y2="7897">
       <stop offset="0.1" stop-color="rgb(179,179,179)"/>
       <stop offset="1" stop-color="rgb(229,229,229)"/>
      </linearGradient>
     </defs>
     <path fill="url(#Gradient_796)" stroke="rgb(255,255,255)" id="Drawing_5_0" stroke-width="40" stroke-linejoin="round" d="M 4169,8502 L 4169,7383 4014,7293 4014,8233 3627,8009 3627,8188 4169,8502 Z"/>
    </g>
    <g>
     <path fill="rgb(179,179,179)" stroke="none" d="M 4867,7681 L 4867,7069 5641,6621 5641,7516 5356,7681 4867,7681 Z"/>
     <path fill="rgb(180,180,180)" stroke="none" d="M 5356,7681 L 4867,7964 4867,7681 5356,7681 Z M 4867,7668 L 4867,7069 5641,6621 5641,7516 5378,7668 4867,7668 Z"/>
     <path fill="rgb(181,181,181)" stroke="none" d="M 5378,7668 L 4867,7964 4867,7668 5378,7668 Z M 4867,7654 L 4867,7069 5641,6621 5641,7516 5403,7654 4867,7654 Z"/>
     <path fill="rgb(182,182,182)" stroke="none" d="M 5403,7654 L 4867,7964 4867,7654 5403,7654 Z M 4867,7641 L 4867,7069 5641,6621 5641,7516 5425,7641 4867,7641 Z"/>
     <path fill="rgb(183,183,183)" stroke="none" d="M 5425,7641 L 4867,7964 4867,7641 5425,7641 Z M 4867,7627 L 4867,7069 5641,6621 5641,7516 5449,7627 4867,7627 Z"/>
     <path fill="rgb(184,184,184)" stroke="none" d="M 5449,7627 L 4867,7964 4867,7627 5449,7627 Z M 4867,7614 L 4867,7069 5641,6621 5641,7516 5472,7614 4867,7614 Z"/>
     <path fill="rgb(185,185,185)" stroke="none" d="M 5472,7614 L 4867,7964 4867,7614 5472,7614 Z M 4867,7600 L 4867,7069 5641,6621 5641,7516 5496,7600 4867,7600 Z"/>
     <path fill="rgb(186,186,186)" stroke="none" d="M 5496,7600 L 4867,7964 4867,7600 5496,7600 Z M 4867,7587 L 4867,7069 5641,6621 5641,7516 5518,7587 4867,7587 Z"/>
     <path fill="rgb(187,187,187)" stroke="none" d="M 5518,7587 L 4867,7964 4867,7587 5518,7587 Z M 4867,7573 L 4867,7069 5641,6621 5641,7516 5543,7573 4867,7573 Z"/>
     <path fill="rgb(188,188,188)" stroke="none" d="M 5543,7573 L 4867,7964 4867,7573 5543,7573 Z M 5636,7519 L 5565,7560 4867,7560 4867,7069 5636,6624 5636,7519 Z"/>
     <path fill="rgb(189,189,189)" stroke="none" d="M 5565,7560 L 4867,7964 4867,7560 5565,7560 Z M 5636,6624 L 5641,6621 5641,7516 5636,7519 5636,6624 Z M 5622,7527 L 5589,7546 4867,7546 4867,7069 5622,6632 5622,7527 Z"/>
     <path fill="rgb(190,190,190)" stroke="none" d="M 5589,7546 L 4867,7964 4867,7546 5589,7546 Z M 5622,6632 L 5641,6621 5641,7516 5622,7527 5622,6632 Z M 5609,7533 L 4867,7533 4867,7069 5609,6640 5609,7533 Z"/>
     <path fill="rgb(191,191,191)" stroke="none" d="M 5609,7533 L 5609,6640 5641,6621 5641,7516 4867,7964 4867,7533 5609,7533 Z M 5596,7520 L 4867,7520 4867,7069 5596,6647 5596,7520 Z"/>
     <path fill="rgb(192,192,192)" stroke="none" d="M 5596,7520 L 5596,6647 5641,6621 5641,7516 4867,7964 4867,7520 5596,7520 Z M 5582,7506 L 4867,7506 4867,7069 5582,6655 5582,7506 Z"/>
     <path fill="rgb(193,193,193)" stroke="none" d="M 5582,7506 L 5582,6655 5641,6621 5641,7516 4867,7964 4867,7506 5582,7506 Z M 5569,7493 L 4867,7493 4867,7069 5569,6663 5569,7493 Z"/>
     <path fill="rgb(194,194,194)" stroke="none" d="M 5569,7493 L 5569,6663 5641,6621 5641,7516 4867,7964 4867,7493 5569,7493 Z M 5555,7479 L 4867,7479 4867,7069 5555,6671 5555,7479 Z"/>
     <path fill="rgb(195,195,195)" stroke="none" d="M 5555,7479 L 5555,6671 5641,6621 5641,7516 4867,7964 4867,7479 5555,7479 Z M 5542,7466 L 4867,7466 4867,7069 5542,6678 5542,7466 Z"/>
     <path fill="rgb(196,196,196)" stroke="none" d="M 5542,7466 L 5542,6678 5641,6621 5641,7516 4867,7964 4867,7466 5542,7466 Z M 5528,7452 L 4867,7452 4867,7069 5528,6686 5528,7452 Z"/>
     <path fill="rgb(197,197,197)" stroke="none" d="M 5528,7452 L 5528,6686 5641,6621 5641,7516 4867,7964 4867,7452 5528,7452 Z M 5515,7439 L 4867,7439 4867,7069 5515,6694 5515,7439 Z"/>
     <path fill="rgb(198,198,198)" stroke="none" d="M 5515,7439 L 5515,6694 5641,6621 5641,7516 4867,7964 4867,7439 5515,7439 Z M 5501,7425 L 4867,7425 4867,7069 5501,6702 5501,7425 Z"/>
     <path fill="rgb(199,199,199)" stroke="none" d="M 5501,7425 L 5501,6702 5641,6621 5641,7516 4867,7964 4867,7425 5501,7425 Z M 5488,7412 L 4867,7412 4867,7069 5488,6710 5488,7412 Z"/>
     <path fill="rgb(200,200,200)" stroke="none" d="M 5488,7412 L 5488,6710 5641,6621 5641,7516 4867,7964 4867,7412 5488,7412 Z M 5474,7398 L 4867,7398 4867,7069 5474,6718 5474,7398 Z"/>
     <path fill="rgb(201,201,201)" stroke="none" d="M 5474,7398 L 5474,6718 5641,6621 5641,7516 4867,7964 4867,7398 5474,7398 Z M 5461,7385 L 4867,7385 4867,7069 5461,6725 5461,7385 Z"/>
     <path fill="rgb(202,202,202)" stroke="none" d="M 5461,7385 L 5461,6725 5641,6621 5641,7516 4867,7964 4867,7385 5461,7385 Z M 5447,7371 L 4867,7371 4867,7069 5447,6733 5447,7371 Z"/>
     <path fill="rgb(203,203,203)" stroke="none" d="M 5447,7371 L 5447,6733 5641,6621 5641,7516 4867,7964 4867,7371 5447,7371 Z M 5434,7358 L 4867,7358 4867,7069 5434,6741 5434,7358 Z"/>
     <path fill="rgb(204,204,204)" stroke="none" d="M 5434,7358 L 5434,6741 5641,6621 5641,7516 4867,7964 4867,7358 5434,7358 Z M 5421,7345 L 4867,7345 4867,7069 5421,6748 5421,7345 Z"/>
     <path fill="rgb(205,205,205)" stroke="none" d="M 5421,7345 L 5421,6748 5641,6621 5641,7516 4867,7964 4867,7345 5421,7345 Z M 5407,7331 L 4867,7331 4867,7069 5407,6756 5407,7331 Z"/>
     <path fill="rgb(206,206,206)" stroke="none" d="M 5407,7331 L 5407,6756 5641,6621 5641,7516 4867,7964 4867,7331 5407,7331 Z M 5394,7318 L 4867,7318 4867,7069 5394,6764 5394,7318 Z"/>
     <path fill="rgb(207,207,207)" stroke="none" d="M 5394,7318 L 5394,6764 5641,6621 5641,7516 4867,7964 4867,7318 5394,7318 Z M 5380,7304 L 4867,7304 4867,7069 5380,6772 5380,7304 Z"/>
     <path fill="rgb(208,208,208)" stroke="none" d="M 5380,7304 L 5380,6772 5641,6621 5641,7516 4867,7964 4867,7304 5380,7304 Z M 5367,7291 L 4867,7291 4867,7069 5367,6780 5367,7291 Z"/>
     <path fill="rgb(209,209,209)" stroke="none" d="M 5367,7291 L 5367,6780 5641,6621 5641,7516 4867,7964 4867,7291 5367,7291 Z M 5353,7277 L 4867,7277 4867,7069 5353,6788 5353,7277 Z"/>
     <path fill="rgb(210,210,210)" stroke="none" d="M 5353,7277 L 5353,6788 5641,6621 5641,7516 4867,7964 4867,7277 5353,7277 Z M 5340,7264 L 4867,7264 4867,7069 5340,6795 5340,7264 Z"/>
     <path fill="rgb(211,211,211)" stroke="none" d="M 5340,7264 L 5340,6795 5641,6621 5641,7516 4867,7964 4867,7264 5340,7264 Z M 5326,7250 L 4870,7250 4870,7067 5326,6803 5326,7250 Z"/>
     <path fill="rgb(212,212,212)" stroke="none" d="M 4870,7250 L 5326,7250 5326,6803 5641,6621 5641,7516 4867,7964 4867,7069 4870,7067 4870,7250 Z M 5313,7237 L 4883,7237 4883,7060 5313,6811 5313,7237 Z"/>
     <path fill="rgb(213,213,213)" stroke="none" d="M 4883,7237 L 5313,7237 5313,6811 5641,6621 5641,7516 4867,7964 4867,7069 4883,7060 4883,7237 Z M 5299,6821 L 5299,7223 4897,7223 4897,7052 5295,6821 5299,6821 Z"/>
     <path fill="rgb(214,214,214)" stroke="none" d="M 4897,7223 L 5299,7223 5299,6821 5295,6821 5641,6621 5641,7516 4867,7964 4867,7069 4897,7052 4897,7223 Z M 5286,6834 L 5286,7210 4910,7210 4910,7044 5273,6834 5286,6834 Z"/>
     <path fill="rgb(215,215,215)" stroke="none" d="M 4910,7210 L 5286,7210 5286,6834 5273,6834 5641,6621 5641,7516 4867,7964 4867,7069 4910,7044 4910,7210 Z M 5272,6848 L 5272,7196 4924,7196 4924,7036 5249,6848 5272,6848 Z"/>
     <path fill="rgb(216,216,216)" stroke="none" d="M 4924,7196 L 5272,7196 5272,6848 5249,6848 5641,6621 5641,7516 4867,7964 4867,7069 4924,7036 4924,7196 Z M 5259,6861 L 5259,7183 4937,7183 4937,7028 5226,6861 5259,6861 Z"/>
     <path fill="rgb(217,217,217)" stroke="none" d="M 4937,7183 L 5259,7183 5259,6861 5226,6861 5641,6621 5641,7516 4867,7964 4867,7069 4937,7028 4937,7183 Z M 5246,6874 L 5246,7170 4950,7170 4950,7021 5204,6874 5246,6874 Z"/>
     <path fill="rgb(218,218,218)" stroke="none" d="M 4950,7170 L 5246,7170 5246,6874 5204,6874 5641,6621 5641,7516 4867,7964 4867,7069 4950,7021 4950,7170 Z M 5232,6888 L 5232,7156 4964,7156 4964,7013 5180,6888 5232,6888 Z"/>
     <path fill="rgb(219,219,219)" stroke="none" d="M 4964,7156 L 5232,7156 5232,6888 5180,6888 5641,6621 5641,7516 4867,7964 4867,7069 4964,7013 4964,7156 Z M 5219,6901 L 5219,7143 4977,7143 4977,7005 5157,6901 5219,6901 Z"/>
     <path fill="rgb(220,220,220)" stroke="none" d="M 4977,7143 L 5219,7143 5219,6901 5157,6901 5641,6621 5641,7516 4867,7964 4867,7069 4977,7005 4977,7143 Z M 5205,6915 L 5205,7129 4991,7129 4991,6997 5133,6915 5205,6915 Z"/>
     <path fill="rgb(221,221,221)" stroke="none" d="M 4991,7129 L 5205,7129 5205,6915 5133,6915 5641,6621 5641,7516 4867,7964 4867,7069 4991,6997 4991,7129 Z M 5192,6928 L 5192,7116 5004,7116 5004,6990 5111,6928 5192,6928 Z"/>
     <path fill="rgb(222,222,222)" stroke="none" d="M 5004,7116 L 5192,7116 5192,6928 5111,6928 5641,6621 5641,7516 4867,7964 4867,7069 5004,6990 5004,7116 Z M 5178,6942 L 5178,7102 5018,7102 5018,6982 5086,6942 5178,6942 Z"/>
     <path fill="rgb(223,223,223)" stroke="none" d="M 5018,7102 L 5178,7102 5178,6942 5086,6942 5641,6621 5641,7516 4867,7964 4867,7069 5018,6982 5018,7102 Z M 5165,6955 L 5165,7089 5031,7089 5031,6974 5064,6955 5165,6955 Z"/>
     <path fill="rgb(224,224,224)" stroke="none" d="M 5031,7089 L 5165,7089 5165,6955 5064,6955 5641,6621 5641,7516 4867,7964 4867,7069 5031,6974 5031,7089 Z M 5045,6969 L 5151,6969 5151,7075 5045,7075 5045,6969 Z"/>
     <path fill="rgb(225,225,225)" stroke="none" d="M 5045,6969 L 5045,7075 5151,7075 5151,6969 5045,6969 Z M 5058,6982 L 5138,6982 5138,7062 5058,7062 5058,6982 Z M 5641,7516 L 4867,7964 4867,7069 5641,6621 5641,7516 Z"/>
     <path fill="rgb(226,226,226)" stroke="none" d="M 5058,6982 L 5058,7062 5138,7062 5138,6982 5058,6982 Z M 5072,6996 L 5124,6996 5124,7048 5072,7048 5072,6996 Z M 5641,7516 L 4867,7964 4867,7069 5641,6621 5641,7516 Z"/>
     <path fill="rgb(227,227,227)" stroke="none" d="M 5072,6996 L 5072,7048 5124,7048 5124,6996 5072,6996 Z M 5085,7009 L 5111,7009 5111,7035 5085,7035 5085,7009 Z M 5641,7516 L 4867,7964 4867,7069 5641,6621 5641,7516 Z"/>
     <path fill="rgb(229,229,229)" stroke="none" d="M 5085,7009 L 5085,7035 5111,7035 5111,7009 5085,7009 Z M 5641,7516 L 4867,7964 4867,7069 5641,6621 5641,7516 Z"/>
     <path fill="none" stroke="rgb(255,255,255)" id="Drawing_6_0" stroke-width="40" stroke-linejoin="round" d="M 5641,7516 L 5641,6621 4867,7069 4867,7964 5641,7516 Z"/>
    </g>
    <g>
     <defs>
      <linearGradient id="Gradient_797" gradientUnits="userSpaceOnUse" x1="3314" y1="7068" x2="4867" y2="7070">
       <stop offset="0.1" stop-color="rgb(179,179,179)"/>
       <stop offset="1" stop-color="rgb(229,229,229)"/>
      </linearGradient>
     </defs>
     <path fill="url(#Gradient_797)" stroke="rgb(255,255,255)" id="Drawing_7_0" stroke-width="40" stroke-linejoin="round" d="M 4866,7965 L 4866,7069 3317,6174 3317,7069 4866,7965 Z"/>
    </g>
    <g>
     <path fill="none" stroke="rgb(127,127,127)" id="Drawing_8_0" stroke-width="40" stroke-linejoin="round" d="M 5196,7741 L 5041,7651"/>
    </g>
    <g>
     <defs>
      <linearGradient id="Gradient_798" gradientUnits="userSpaceOnUse" x1="4963" y1="7292" x2="5585" y2="7294">
       <stop offset="0.1" stop-color="rgb(179,179,179)"/>
       <stop offset="1" stop-color="rgb(229,229,229)"/>
      </linearGradient>
     </defs>
     <path fill="url(#Gradient_798)" stroke="none" id="Drawing_9_0" d="M 5274,6935 L 5245,6954 5216,6976 5188,7003 5160,7032 5133,7063 5108,7097 5061,7170 5021,7247 5005,7286 4991,7325 4979,7364 4971,7401 4966,7437 4964,7472 4966,7504 4971,7535 4979,7563 4991,7588 5005,7611 5021,7631 5040,7648 5061,7662 5084,7673 5108,7681 5133,7685 5160,7686 5188,7683 5216,7676 5245,7666 5274,7651 5303,7632 5332,7610 5360,7584 5388,7555 5415,7523 5440,7489 5487,7416 5527,7339 5543,7300 5557,7261 5569,7222 5577,7185 5582,7148 5584,7114 5582,7081 5577,7051 5569,7023 5557,6998 5543,6975 5527,6955 5508,6938 5487,6924 5464,6913 5440,6905 5415,6901 5388,6900 5360,6903 5332,6910 5303,6920 5274,6935 Z"/>
     <path fill="none" stroke="rgb(127,127,127)" id="Drawing_9_1" stroke-width="40" stroke-linejoin="round" d="M 5274,6935 C 5119,7025 4964,7293 4964,7472 4964,7651 5119,7741 5274,7651 5429,7562 5584,7293 5584,7114 5584,6935 5429,6846 5274,6935 Z"/>
    </g>
    <g>
     <path fill="rgb(147,212,240)" stroke="none" d="M 5737,7357 L 5736,7362 5711,7440 5679,7516 5660,7553 5640,7588 5617,7622 5181,7622 5178,7603 5176,7571 5178,7536 5183,7500 5191,7462 5203,7424 5217,7385 5233,7346 5273,7269 5320,7196 5345,7162 5372,7130 5400,7101 5428,7075 5457,7053 5486,7034 5515,7019 5542,7008 5568,7002 5594,6999 5617,7000 5629,7002 5640,7005 5650,7008 5660,7013 5670,7018 5679,7024 5696,7038 5711,7056 5725,7076 5736,7099 5737,7102 5737,7357 Z"/>
     <path fill="rgb(148,212,240)" stroke="none" d="M 5617,7622 L 5594,7654 5568,7682 5542,7708 5515,7731 5486,7750 5457,7764 5428,7775 5400,7782 5372,7785 5345,7784 5320,7779 5296,7772 5273,7761 5252,7747 5233,7730 5217,7710 5203,7687 5191,7661 5183,7634 5181,7622 5617,7622 Z M 5737,7102 L 5744,7125 5751,7153 5755,7183 5756,7216 5755,7250 5751,7286 5744,7324 5737,7357 5737,7102 Z M 5732,7374 L 5711,7440 5679,7516 5660,7553 5640,7588 5620,7617 5180,7617 5178,7603 5176,7571 5178,7536 5183,7500 5191,7462 5203,7424 5217,7385 5233,7346 5273,7269 5320,7196 5345,7162 5372,7130 5400,7101 5428,7075 5457,7053 5486,7034 5515,7019 5542,7008 5568,7002 5594,6999 5617,7000 5629,7002 5640,7005 5650,7008 5660,7013 5670,7018 5679,7024 5696,7038 5711,7056 5725,7076 5732,7091 5732,7374 Z"/>
     <path fill="rgb(149,212,240)" stroke="none" d="M 5620,7617 L 5617,7622 5594,7654 5568,7682 5542,7708 5515,7731 5486,7750 5457,7764 5428,7775 5400,7782 5372,7785 5345,7784 5320,7779 5296,7772 5273,7761 5252,7747 5233,7730 5217,7710 5203,7687 5191,7661 5183,7634 5180,7617 5620,7617 Z M 5732,7091 L 5736,7099 5744,7125 5751,7153 5755,7183 5756,7216 5755,7250 5751,7286 5744,7324 5736,7362 5732,7374 5732,7091 Z M 5727,7390 L 5711,7440 5679,7516 5660,7553 5640,7588 5624,7612 5179,7612 5178,7603 5176,7571 5178,7536 5183,7500 5191,7462 5203,7424 5217,7385 5233,7346 5273,7269 5320,7196 5345,7162 5372,7130 5400,7101 5428,7075 5457,7053 5486,7034 5515,7019 5542,7008 5568,7002 5594,6999 5617,7000 5629,7002 5640,7005 5650,7008 5660,7013 5670,7018 5679,7024 5696,7038 5711,7056 5725,7076 5727,7080 5727,7390 Z"/>
     <path fill="rgb(150,213,240)" stroke="none" d="M 5624,7612 L 5617,7622 5594,7654 5568,7682 5542,7708 5515,7731 5486,7750 5457,7764 5428,7775 5400,7782 5372,7785 5345,7784 5320,7779 5296,7772 5273,7761 5252,7747 5233,7730 5217,7710 5203,7687 5191,7661 5183,7634 5179,7612 5624,7612 Z M 5727,7080 L 5736,7099 5744,7125 5751,7153 5755,7183 5756,7216 5755,7250 5751,7286 5744,7324 5736,7362 5727,7390 5727,7080 Z M 5722,7406 L 5711,7440 5679,7516 5660,7553 5640,7588 5627,7607 5179,7607 5178,7603 5176,7571 5178,7536 5183,7500 5191,7462 5203,7424 5217,7385 5233,7346 5273,7269 5320,7196 5345,7162 5372,7130 5400,7101 5428,7075 5457,7053 5486,7034 5515,7019 5542,7008 5568,7002 5594,6999 5617,7000 5629,7002 5640,7005 5650,7008 5660,7013 5670,7018 5679,7024 5696,7038 5711,7056 5722,7072 5722,7406 Z"/>
     <path fill="rgb(151,213,240)" stroke="none" d="M 5627,7607 L 5617,7622 5594,7654 5568,7682 5542,7708 5515,7731 5486,7750 5457,7764 5428,7775 5400,7782 5372,7785 5345,7784 5320,7779 5296,7772 5273,7761 5252,7747 5233,7730 5217,7710 5203,7687 5191,7661 5183,7634 5179,7607 5627,7607 Z M 5722,7072 L 5725,7076 5736,7099 5744,7125 5751,7153 5755,7183 5756,7216 5755,7250 5751,7286 5744,7324 5736,7362 5722,7406 5722,7072 Z M 5717,7421 L 5711,7440 5679,7516 5660,7553 5640,7588 5631,7602 5178,7602 5176,7571 5178,7536 5183,7500 5191,7462 5203,7424 5217,7385 5233,7346 5273,7269 5320,7196 5345,7162 5372,7130 5400,7101 5428,7075 5457,7053 5486,7034 5515,7019 5542,7008 5568,7002 5594,6999 5617,7000 5629,7002 5640,7005 5650,7008 5660,7013 5670,7018 5679,7024 5696,7038 5711,7056 5717,7065 5717,7421 Z"/>
     <path fill="rgb(152,214,240)" stroke="none" d="M 5631,7602 L 5617,7622 5594,7654 5568,7682 5542,7708 5515,7731 5486,7750 5457,7764 5428,7775 5400,7782 5372,7785 5345,7784 5320,7779 5296,7772 5273,7761 5252,7747 5233,7730 5217,7710 5203,7687 5191,7661 5183,7634 5178,7603 5178,7602 5631,7602 Z M 5717,7065 L 5725,7076 5736,7099 5744,7125 5751,7153 5755,7183 5756,7216 5755,7250 5751,7286 5744,7324 5736,7362 5717,7421 5717,7065 Z M 5712,7437 L 5711,7440 5679,7516 5660,7553 5640,7588 5634,7597 5178,7597 5176,7571 5178,7536 5183,7500 5191,7462 5203,7424 5217,7385 5233,7346 5273,7269 5320,7196 5345,7162 5372,7130 5400,7101 5428,7075 5457,7053 5486,7034 5515,7019 5542,7008 5568,7002 5594,6999 5617,7000 5629,7002 5640,7005 5650,7008 5660,7013 5670,7018 5679,7024 5696,7038 5711,7056 5712,7057 5712,7437 Z"/>
     <path fill="rgb(153,214,240)" stroke="none" d="M 5634,7597 L 5617,7622 5594,7654 5568,7682 5542,7708 5515,7731 5486,7750 5457,7764 5428,7775 5400,7782 5372,7785 5345,7784 5320,7779 5296,7772 5273,7761 5252,7747 5233,7730 5217,7710 5203,7687 5191,7661 5183,7634 5178,7603 5178,7597 5634,7597 Z M 5712,7057 L 5725,7076 5736,7099 5744,7125 5751,7153 5755,7183 5756,7216 5755,7250 5751,7286 5744,7324 5736,7362 5712,7437 5712,7057 Z M 5707,7450 L 5679,7516 5660,7553 5640,7588 5637,7592 5177,7592 5176,7571 5178,7536 5183,7500 5191,7462 5203,7424 5217,7385 5233,7346 5273,7269 5320,7196 5345,7162 5372,7130 5400,7101 5428,7075 5457,7053 5486,7034 5515,7019 5542,7008 5568,7002 5594,6999 5617,7000 5629,7002 5640,7005 5650,7008 5660,7013 5670,7018 5679,7024 5696,7038 5707,7051 5707,7450 Z"/>
     <path fill="rgb(154,215,241)" stroke="none" d="M 5637,7592 L 5617,7622 5594,7654 5568,7682 5542,7708 5515,7731 5486,7750 5457,7764 5428,7775 5400,7782 5372,7785 5345,7784 5320,7779 5296,7772 5273,7761 5252,7747 5233,7730 5217,7710 5203,7687 5191,7661 5183,7634 5178,7603 5177,7592 5637,7592 Z M 5707,7051 L 5711,7056 5725,7076 5736,7099 5744,7125 5751,7153 5755,7183 5756,7216 5755,7250 5751,7286 5744,7324 5736,7362 5711,7440 5707,7450 5707,7051 Z M 5702,7461 L 5679,7516 5660,7553 5641,7587 5177,7587 5176,7571 5178,7536 5183,7500 5191,7462 5203,7424 5217,7385 5233,7346 5273,7269 5320,7196 5345,7162 5372,7130 5400,7101 5428,7075 5457,7053 5486,7034 5515,7019 5542,7008 5568,7002 5594,6999 5617,7000 5629,7002 5640,7005 5650,7008 5660,7013 5670,7018 5679,7024 5696,7038 5702,7045 5702,7461 Z"/>
     <path fill="rgb(155,215,241)" stroke="none" d="M 5641,7587 L 5640,7588 5617,7622 5594,7654 5568,7682 5542,7708 5515,7731 5486,7750 5457,7764 5428,7775 5400,7782 5372,7785 5345,7784 5320,7779 5296,7772 5273,7761 5252,7747 5233,7730 5217,7710 5203,7687 5191,7661 5183,7634 5178,7603 5177,7587 5641,7587 Z M 5702,7045 L 5711,7056 5725,7076 5736,7099 5744,7125 5751,7153 5755,7183 5756,7216 5755,7250 5751,7286 5744,7324 5736,7362 5711,7440 5702,7461 5702,7045 Z M 5697,7473 L 5679,7516 5660,7553 5643,7582 5177,7582 5176,7571 5178,7536 5183,7500 5191,7462 5203,7424 5217,7385 5233,7346 5273,7269 5320,7196 5345,7162 5372,7130 5400,7101 5428,7075 5457,7053 5486,7034 5515,7019 5542,7008 5568,7002 5594,6999 5617,7000 5629,7002 5640,7005 5650,7008 5660,7013 5670,7018 5679,7024 5696,7038 5697,7039 5697,7473 Z"/>
     <path fill="rgb(156,215,241)" stroke="none" d="M 5643,7582 L 5640,7588 5617,7622 5594,7654 5568,7682 5542,7708 5515,7731 5486,7750 5457,7764 5428,7775 5400,7782 5372,7785 5345,7784 5320,7779 5296,7772 5273,7761 5252,7747 5233,7730 5217,7710 5203,7687 5191,7661 5183,7634 5178,7603 5177,7582 5643,7582 Z M 5697,7039 L 5711,7056 5725,7076 5736,7099 5744,7125 5751,7153 5755,7183 5756,7216 5755,7250 5751,7286 5744,7324 5736,7362 5711,7440 5697,7473 5697,7039 Z M 5692,7485 L 5679,7516 5660,7553 5646,7577 5176,7577 5176,7571 5178,7536 5183,7500 5191,7462 5203,7424 5217,7385 5233,7346 5273,7269 5320,7196 5345,7162 5372,7130 5400,7101 5428,7075 5457,7053 5486,7034 5515,7019 5542,7008 5568,7002 5594,6999 5617,7000 5629,7002 5640,7005 5650,7008 5660,7013 5670,7018 5679,7024 5692,7035 5692,7485 Z"/>
     <path fill="rgb(158,216,241)" stroke="none" d="M 5646,7577 L 5640,7588 5617,7622 5594,7654 5568,7682 5542,7708 5515,7731 5486,7750 5457,7764 5428,7775 5400,7782 5372,7785 5345,7784 5320,7779 5296,7772 5273,7761 5252,7747 5233,7730 5217,7710 5203,7687 5191,7661 5183,7634 5178,7603 5176,7577 5646,7577 Z M 5692,7035 L 5696,7038 5711,7056 5725,7076 5736,7099 5744,7125 5751,7153 5755,7183 5756,7216 5755,7250 5751,7286 5744,7324 5736,7362 5711,7440 5692,7485 5692,7035 Z M 5687,7497 L 5679,7516 5660,7553 5649,7572 5176,7572 5176,7571 5178,7536 5183,7500 5191,7462 5203,7424 5217,7385 5233,7346 5273,7269 5320,7196 5345,7162 5372,7130 5400,7101 5428,7075 5457,7053 5486,7034 5515,7019 5542,7008 5568,7002 5594,6999 5617,7000 5629,7002 5640,7005 5650,7008 5660,7013 5670,7018 5679,7024 5687,7031 5687,7497 Z"/>
     <path fill="rgb(159,216,241)" stroke="none" d="M 5649,7572 L 5640,7588 5617,7622 5594,7654 5568,7682 5542,7708 5515,7731 5486,7750 5457,7764 5428,7775 5400,7782 5372,7785 5345,7784 5320,7779 5296,7772 5273,7761 5252,7747 5233,7730 5217,7710 5203,7687 5191,7661 5183,7634 5178,7603 5176,7572 5649,7572 Z M 5687,7031 L 5696,7038 5711,7056 5725,7076 5736,7099 5744,7125 5751,7153 5755,7183 5756,7216 5755,7250 5751,7286 5744,7324 5736,7362 5711,7440 5687,7497 5687,7031 Z M 5682,7509 L 5679,7516 5660,7553 5652,7567 5176,7567 5178,7536 5183,7500 5191,7462 5203,7424 5217,7385 5233,7346 5273,7269 5320,7196 5345,7162 5372,7130 5400,7101 5428,7075 5457,7053 5486,7034 5515,7019 5542,7008 5568,7002 5594,6999 5617,7000 5629,7002 5640,7005 5650,7008 5660,7013 5670,7018 5679,7024 5682,7026 5682,7509 Z"/>
     <path fill="rgb(160,217,241)" stroke="none" d="M 5652,7567 L 5640,7588 5617,7622 5594,7654 5568,7682 5542,7708 5515,7731 5486,7750 5457,7764 5428,7775 5400,7782 5372,7785 5345,7784 5320,7779 5296,7772 5273,7761 5252,7747 5233,7730 5217,7710 5203,7687 5191,7661 5183,7634 5178,7603 5176,7571 5176,7567 5652,7567 Z M 5682,7026 L 5696,7038 5711,7056 5725,7076 5736,7099 5744,7125 5751,7153 5755,7183 5756,7216 5755,7250 5751,7286 5744,7324 5736,7362 5711,7440 5682,7509 5682,7026 Z M 5677,7520 L 5660,7553 5655,7562 5177,7562 5178,7536 5183,7500 5191,7462 5203,7424 5217,7385 5233,7346 5273,7269 5320,7196 5345,7162 5372,7130 5400,7101 5428,7075 5457,7053 5486,7034 5515,7019 5542,7008 5568,7002 5594,6999 5617,7000 5629,7002 5640,7005 5650,7008 5660,7013 5670,7018 5677,7023 5677,7520 Z"/>
     <path fill="rgb(161,217,242)" stroke="none" d="M 5655,7562 L 5640,7588 5617,7622 5594,7654 5568,7682 5542,7708 5515,7731 5486,7750 5457,7764 5428,7775 5400,7782 5372,7785 5345,7784 5320,7779 5296,7772 5273,7761 5252,7747 5233,7730 5217,7710 5203,7687 5191,7661 5183,7634 5178,7603 5176,7571 5177,7562 5655,7562 Z M 5677,7023 L 5679,7024 5696,7038 5711,7056 5725,7076 5736,7099 5744,7125 5751,7153 5755,7183 5756,7216 5755,7250 5751,7286 5744,7324 5736,7362 5711,7440 5679,7516 5677,7520 5677,7023 Z M 5672,7530 L 5660,7553 5658,7557 5177,7557 5178,7536 5183,7500 5191,7462 5203,7424 5217,7385 5233,7346 5273,7269 5320,7196 5345,7162 5372,7130 5400,7101 5428,7075 5457,7053 5486,7034 5515,7019 5542,7008 5568,7002 5594,6999 5617,7000 5629,7002 5640,7005 5650,7008 5660,7013 5670,7018 5672,7019 5672,7530 Z"/>
     <path fill="rgb(162,218,242)" stroke="none" d="M 5658,7557 L 5640,7588 5617,7622 5594,7654 5568,7682 5542,7708 5515,7731 5486,7750 5457,7764 5428,7775 5400,7782 5372,7785 5345,7784 5320,7779 5296,7772 5273,7761 5252,7747 5233,7730 5217,7710 5203,7687 5191,7661 5183,7634 5178,7603 5176,7571 5177,7557 5658,7557 Z M 5672,7019 L 5679,7024 5696,7038 5711,7056 5725,7076 5736,7099 5744,7125 5751,7153 5755,7183 5756,7216 5755,7250 5751,7286 5744,7324 5736,7362 5711,7440 5679,7516 5672,7530 5672,7019 Z M 5667,7539 L 5661,7552 5177,7552 5178,7536 5183,7500 5191,7462 5203,7424 5217,7385 5233,7346 5273,7269 5320,7196 5345,7162 5372,7130 5400,7101 5428,7075 5457,7053 5486,7034 5515,7019 5542,7008 5568,7002 5594,6999 5617,7000 5629,7002 5640,7005 5650,7008 5660,7013 5667,7017 5667,7539 Z"/>
     <path fill="rgb(163,218,242)" stroke="none" d="M 5661,7552 L 5660,7553 5640,7588 5617,7622 5594,7654 5568,7682 5542,7708 5515,7731 5486,7750 5457,7764 5428,7775 5400,7782 5372,7785 5345,7784 5320,7779 5296,7772 5273,7761 5252,7747 5233,7730 5217,7710 5203,7687 5191,7661 5183,7634 5178,7603 5176,7571 5177,7552 5661,7552 Z M 5667,7017 L 5670,7018 5679,7024 5696,7038 5711,7056 5725,7076 5736,7099 5744,7125 5751,7153 5755,7183 5756,7216 5755,7250 5751,7286 5744,7324 5736,7362 5711,7440 5679,7516 5667,7539 5667,7017 Z M 5662,7547 L 5177,7547 5178,7536 5183,7500 5191,7462 5203,7424 5217,7385 5233,7346 5273,7269 5320,7196 5345,7162 5372,7130 5400,7101 5428,7075 5457,7053 5486,7034 5515,7019 5542,7008 5568,7002 5594,6999 5617,7000 5629,7002 5640,7005 5650,7008 5660,7013 5662,7014 5662,7547 Z"/>
     <path fill="rgb(164,218,242)" stroke="none" d="M 5662,7547 L 5662,7014 5670,7018 5679,7024 5696,7038 5711,7056 5725,7076 5736,7099 5744,7125 5751,7153 5755,7183 5756,7216 5755,7250 5751,7286 5744,7324 5736,7362 5711,7440 5679,7516 5660,7553 5640,7588 5617,7622 5594,7654 5568,7682 5542,7708 5515,7731 5486,7750 5457,7764 5428,7775 5400,7782 5372,7785 5345,7784 5320,7779 5296,7772 5273,7761 5252,7747 5233,7730 5217,7710 5203,7687 5191,7661 5183,7634 5178,7603 5176,7571 5177,7547 5662,7547 Z M 5657,7542 L 5178,7542 5178,7536 5183,7500 5191,7462 5203,7424 5217,7385 5233,7346 5273,7269 5320,7196 5345,7162 5372,7130 5400,7101 5428,7075 5457,7053 5486,7034 5515,7019 5542,7008 5568,7002 5594,6999 5617,7000 5629,7002 5640,7005 5650,7008 5657,7012 5657,7542 Z"/>
     <path fill="rgb(165,219,242)" stroke="none" d="M 5657,7542 L 5657,7012 5660,7013 5670,7018 5679,7024 5696,7038 5711,7056 5725,7076 5736,7099 5744,7125 5751,7153 5755,7183 5756,7216 5755,7250 5751,7286 5744,7324 5736,7362 5711,7440 5679,7516 5660,7553 5640,7588 5617,7622 5594,7654 5568,7682 5542,7708 5515,7731 5486,7750 5457,7764 5428,7775 5400,7782 5372,7785 5345,7784 5320,7779 5296,7772 5273,7761 5252,7747 5233,7730 5217,7710 5203,7687 5191,7661 5183,7634 5178,7603 5176,7571 5178,7542 5657,7542 Z M 5651,7536 L 5178,7536 5183,7500 5191,7462 5203,7424 5217,7385 5233,7346 5273,7269 5320,7196 5345,7162 5372,7130 5400,7101 5428,7075 5457,7053 5486,7034 5515,7019 5542,7008 5568,7002 5594,6999 5617,7000 5629,7002 5640,7005 5650,7008 5651,7009 5651,7536 Z"/>
     <path fill="rgb(166,219,242)" stroke="none" d="M 5651,7536 L 5651,7009 5660,7013 5670,7018 5679,7024 5696,7038 5711,7056 5725,7076 5736,7099 5744,7125 5751,7153 5755,7183 5756,7216 5755,7250 5751,7286 5744,7324 5736,7362 5711,7440 5679,7516 5660,7553 5640,7588 5617,7622 5594,7654 5568,7682 5542,7708 5515,7731 5486,7750 5457,7764 5428,7775 5400,7782 5372,7785 5345,7784 5320,7779 5296,7772 5273,7761 5252,7747 5233,7730 5217,7710 5203,7687 5191,7661 5183,7634 5178,7603 5176,7571 5178,7536 5651,7536 Z M 5646,7531 L 5179,7531 5183,7500 5191,7462 5203,7424 5217,7385 5233,7346 5273,7269 5320,7196 5345,7162 5372,7130 5400,7101 5428,7075 5457,7053 5486,7034 5515,7019 5542,7008 5568,7002 5594,6999 5617,7000 5629,7002 5640,7005 5646,7007 5646,7531 Z"/>
     <path fill="rgb(167,220,242)" stroke="none" d="M 5646,7531 L 5646,7007 5650,7008 5660,7013 5670,7018 5679,7024 5696,7038 5711,7056 5725,7076 5736,7099 5744,7125 5751,7153 5755,7183 5756,7216 5755,7250 5751,7286 5744,7324 5736,7362 5711,7440 5679,7516 5660,7553 5640,7588 5617,7622 5594,7654 5568,7682 5542,7708 5515,7731 5486,7750 5457,7764 5428,7775 5400,7782 5372,7785 5345,7784 5320,7779 5296,7772 5273,7761 5252,7747 5233,7730 5217,7710 5203,7687 5191,7661 5183,7634 5178,7603 5176,7571 5178,7536 5179,7531 5646,7531 Z M 5641,7526 L 5179,7526 5183,7500 5191,7462 5203,7424 5217,7385 5233,7346 5273,7269 5320,7196 5345,7162 5372,7130 5400,7101 5428,7075 5457,7053 5486,7034 5515,7019 5542,7008 5568,7002 5594,6999 5617,7000 5629,7002 5640,7005 5641,7005 5641,7526 Z"/>
     <path fill="rgb(169,220,243)" stroke="none" d="M 5641,7526 L 5641,7005 5650,7008 5660,7013 5670,7018 5679,7024 5696,7038 5711,7056 5725,7076 5736,7099 5744,7125 5751,7153 5755,7183 5756,7216 5755,7250 5751,7286 5744,7324 5736,7362 5711,7440 5679,7516 5660,7553 5640,7588 5617,7622 5594,7654 5568,7682 5542,7708 5515,7731 5486,7750 5457,7764 5428,7775 5400,7782 5372,7785 5345,7784 5320,7779 5296,7772 5273,7761 5252,7747 5233,7730 5217,7710 5203,7687 5191,7661 5183,7634 5178,7603 5176,7571 5178,7536 5179,7526 5641,7526 Z M 5636,7521 L 5180,7521 5183,7500 5191,7462 5203,7424 5217,7385 5233,7346 5273,7269 5320,7196 5345,7162 5372,7130 5400,7101 5428,7075 5457,7053 5486,7034 5515,7019 5542,7008 5568,7002 5594,6999 5617,7000 5629,7002 5636,7004 5636,7521 Z"/>
     <path fill="rgb(170,221,243)" stroke="none" d="M 5636,7521 L 5636,7004 5640,7005 5650,7008 5660,7013 5670,7018 5679,7024 5696,7038 5711,7056 5725,7076 5736,7099 5744,7125 5751,7153 5755,7183 5756,7216 5755,7250 5751,7286 5744,7324 5736,7362 5711,7440 5679,7516 5660,7553 5640,7588 5617,7622 5594,7654 5568,7682 5542,7708 5515,7731 5486,7750 5457,7764 5428,7775 5400,7782 5372,7785 5345,7784 5320,7779 5296,7772 5273,7761 5252,7747 5233,7730 5217,7710 5203,7687 5191,7661 5183,7634 5178,7603 5176,7571 5178,7536 5180,7521 5636,7521 Z M 5631,7516 L 5181,7516 5183,7500 5191,7462 5203,7424 5217,7385 5233,7346 5273,7269 5320,7196 5345,7162 5372,7130 5400,7101 5428,7075 5457,7053 5486,7034 5515,7019 5542,7008 5568,7002 5594,6999 5617,7000 5629,7002 5631,7003 5631,7516 Z"/>
     <path fill="rgb(171,221,243)" stroke="none" d="M 5631,7516 L 5631,7003 5640,7005 5650,7008 5660,7013 5670,7018 5679,7024 5696,7038 5711,7056 5725,7076 5736,7099 5744,7125 5751,7153 5755,7183 5756,7216 5755,7250 5751,7286 5744,7324 5736,7362 5711,7440 5679,7516 5660,7553 5640,7588 5617,7622 5594,7654 5568,7682 5542,7708 5515,7731 5486,7750 5457,7764 5428,7775 5400,7782 5372,7785 5345,7784 5320,7779 5296,7772 5273,7761 5252,7747 5233,7730 5217,7710 5203,7687 5191,7661 5183,7634 5178,7603 5176,7571 5178,7536 5181,7516 5631,7516 Z M 5626,7511 L 5181,7511 5183,7500 5191,7462 5203,7424 5217,7385 5233,7346 5273,7269 5320,7196 5345,7162 5372,7130 5400,7101 5428,7075 5457,7053 5486,7034 5515,7019 5542,7008 5568,7002 5594,6999 5617,7000 5626,7002 5626,7511 Z"/>
     <path fill="rgb(172,222,243)" stroke="none" d="M 5626,7511 L 5626,7002 5629,7002 5640,7005 5650,7008 5660,7013 5670,7018 5679,7024 5696,7038 5711,7056 5725,7076 5736,7099 5744,7125 5751,7153 5755,7183 5756,7216 5755,7250 5751,7286 5744,7324 5736,7362 5711,7440 5679,7516 5660,7553 5640,7588 5617,7622 5594,7654 5568,7682 5542,7708 5515,7731 5486,7750 5457,7764 5428,7775 5400,7782 5372,7785 5345,7784 5320,7779 5296,7772 5273,7761 5252,7747 5233,7730 5217,7710 5203,7687 5191,7661 5183,7634 5178,7603 5176,7571 5178,7536 5181,7511 5626,7511 Z M 5621,7506 L 5182,7506 5183,7500 5191,7462 5203,7424 5217,7385 5233,7346 5273,7269 5320,7196 5345,7162 5372,7130 5400,7101 5428,7075 5457,7053 5486,7034 5515,7019 5542,7008 5568,7002 5594,6999 5617,7000 5621,7001 5621,7506 Z"/>
     <path fill="rgb(173,222,243)" stroke="none" d="M 5621,7506 L 5621,7001 5629,7002 5640,7005 5650,7008 5660,7013 5670,7018 5679,7024 5696,7038 5711,7056 5725,7076 5736,7099 5744,7125 5751,7153 5755,7183 5756,7216 5755,7250 5751,7286 5744,7324 5736,7362 5711,7440 5679,7516 5660,7553 5640,7588 5617,7622 5594,7654 5568,7682 5542,7708 5515,7731 5486,7750 5457,7764 5428,7775 5400,7782 5372,7785 5345,7784 5320,7779 5296,7772 5273,7761 5252,7747 5233,7730 5217,7710 5203,7687 5191,7661 5183,7634 5178,7603 5176,7571 5178,7536 5182,7506 5621,7506 Z M 5616,7501 L 5183,7501 5183,7500 5191,7462 5203,7424 5217,7385 5233,7346 5273,7269 5320,7196 5345,7162 5372,7130 5400,7101 5428,7075 5457,7053 5486,7034 5515,7019 5542,7008 5568,7002 5594,6999 5616,7000 5616,7501 Z"/>
     <path fill="rgb(174,222,243)" stroke="none" d="M 5616,7501 L 5616,7000 5617,7000 5629,7002 5640,7005 5650,7008 5660,7013 5670,7018 5679,7024 5696,7038 5711,7056 5725,7076 5736,7099 5744,7125 5751,7153 5755,7183 5756,7216 5755,7250 5751,7286 5744,7324 5736,7362 5711,7440 5679,7516 5660,7553 5640,7588 5617,7622 5594,7654 5568,7682 5542,7708 5515,7731 5486,7750 5457,7764 5428,7775 5400,7782 5372,7785 5345,7784 5320,7779 5296,7772 5273,7761 5252,7747 5233,7730 5217,7710 5203,7687 5191,7661 5183,7634 5178,7603 5176,7571 5178,7536 5183,7501 5616,7501 Z M 5611,7496 L 5184,7496 5191,7462 5203,7424 5217,7385 5233,7346 5273,7269 5320,7196 5345,7162 5372,7130 5400,7101 5428,7075 5457,7053 5486,7034 5515,7019 5542,7008 5568,7002 5594,6999 5611,7000 5611,7496 Z"/>
     <path fill="rgb(175,223,244)" stroke="none" d="M 5611,7496 L 5611,7000 5617,7000 5629,7002 5640,7005 5650,7008 5660,7013 5670,7018 5679,7024 5696,7038 5711,7056 5725,7076 5736,7099 5744,7125 5751,7153 5755,7183 5756,7216 5755,7250 5751,7286 5744,7324 5736,7362 5711,7440 5679,7516 5660,7553 5640,7588 5617,7622 5594,7654 5568,7682 5542,7708 5515,7731 5486,7750 5457,7764 5428,7775 5400,7782 5372,7785 5345,7784 5320,7779 5296,7772 5273,7761 5252,7747 5233,7730 5217,7710 5203,7687 5191,7661 5183,7634 5178,7603 5176,7571 5178,7536 5183,7500 5184,7496 5611,7496 Z M 5606,7491 L 5185,7491 5191,7462 5203,7424 5217,7385 5233,7346 5273,7269 5320,7196 5345,7162 5372,7130 5400,7101 5428,7075 5457,7053 5486,7034 5515,7019 5542,7008 5568,7002 5594,6999 5606,7000 5606,7491 Z"/>
     <path fill="rgb(176,223,244)" stroke="none" d="M 5606,7491 L 5606,7000 5617,7000 5629,7002 5640,7005 5650,7008 5660,7013 5670,7018 5679,7024 5696,7038 5711,7056 5725,7076 5736,7099 5744,7125 5751,7153 5755,7183 5756,7216 5755,7250 5751,7286 5744,7324 5736,7362 5711,7440 5679,7516 5660,7553 5640,7588 5617,7622 5594,7654 5568,7682 5542,7708 5515,7731 5486,7750 5457,7764 5428,7775 5400,7782 5372,7785 5345,7784 5320,7779 5296,7772 5273,7761 5252,7747 5233,7730 5217,7710 5203,7687 5191,7661 5183,7634 5178,7603 5176,7571 5178,7536 5183,7500 5185,7491 5606,7491 Z M 5601,7486 L 5186,7486 5191,7462 5203,7424 5217,7385 5233,7346 5273,7269 5320,7196 5345,7162 5372,7130 5400,7101 5428,7075 5457,7053 5486,7034 5515,7019 5542,7008 5568,7002 5594,6999 5601,6999 5601,7486 Z"/>
     <path fill="rgb(177,224,244)" stroke="none" d="M 5601,7486 L 5601,6999 5617,7000 5629,7002 5640,7005 5650,7008 5660,7013 5670,7018 5679,7024 5696,7038 5711,7056 5725,7076 5736,7099 5744,7125 5751,7153 5755,7183 5756,7216 5755,7250 5751,7286 5744,7324 5736,7362 5711,7440 5679,7516 5660,7553 5640,7588 5617,7622 5594,7654 5568,7682 5542,7708 5515,7731 5486,7750 5457,7764 5428,7775 5400,7782 5372,7785 5345,7784 5320,7779 5296,7772 5273,7761 5252,7747 5233,7730 5217,7710 5203,7687 5191,7661 5183,7634 5178,7603 5176,7571 5178,7536 5183,7500 5186,7486 5601,7486 Z M 5596,7481 L 5187,7481 5191,7462 5203,7424 5217,7385 5233,7346 5273,7269 5320,7196 5345,7162 5372,7130 5400,7101 5428,7075 5457,7053 5486,7034 5515,7019 5542,7008 5568,7002 5594,6999 5596,6999 5596,7481 Z"/>
     <path fill="rgb(178,224,244)" stroke="none" d="M 5596,7481 L 5596,6999 5617,7000 5629,7002 5640,7005 5650,7008 5660,7013 5670,7018 5679,7024 5696,7038 5711,7056 5725,7076 5736,7099 5744,7125 5751,7153 5755,7183 5756,7216 5755,7250 5751,7286 5744,7324 5736,7362 5711,7440 5679,7516 5660,7553 5640,7588 5617,7622 5594,7654 5568,7682 5542,7708 5515,7731 5486,7750 5457,7764 5428,7775 5400,7782 5372,7785 5345,7784 5320,7779 5296,7772 5273,7761 5252,7747 5233,7730 5217,7710 5203,7687 5191,7661 5183,7634 5178,7603 5176,7571 5178,7536 5183,7500 5187,7481 5596,7481 Z M 5591,7476 L 5188,7476 5191,7462 5203,7424 5217,7385 5233,7346 5273,7269 5320,7196 5345,7162 5372,7130 5400,7101 5428,7075 5457,7053 5486,7034 5515,7019 5542,7008 5568,7002 5591,6999 5591,7476 Z"/>
     <path fill="rgb(180,225,244)" stroke="none" d="M 5591,7476 L 5591,6999 5594,6999 5617,7000 5629,7002 5640,7005 5650,7008 5660,7013 5670,7018 5679,7024 5696,7038 5711,7056 5725,7076 5736,7099 5744,7125 5751,7153 5755,7183 5756,7216 5755,7250 5751,7286 5744,7324 5736,7362 5711,7440 5679,7516 5660,7553 5640,7588 5617,7622 5594,7654 5568,7682 5542,7708 5515,7731 5486,7750 5457,7764 5428,7775 5400,7782 5372,7785 5345,7784 5320,7779 5296,7772 5273,7761 5252,7747 5233,7730 5217,7710 5203,7687 5191,7661 5183,7634 5178,7603 5176,7571 5178,7536 5183,7500 5188,7476 5591,7476 Z M 5586,7471 L 5189,7471 5191,7462 5203,7424 5217,7385 5233,7346 5273,7269 5320,7196 5345,7162 5372,7130 5400,7101 5428,7075 5457,7053 5486,7034 5515,7019 5542,7008 5568,7002 5586,7000 5586,7471 Z"/>
     <path fill="rgb(181,225,244)" stroke="none" d="M 5586,7471 L 5586,7000 5594,6999 5617,7000 5629,7002 5640,7005 5650,7008 5660,7013 5670,7018 5679,7024 5696,7038 5711,7056 5725,7076 5736,7099 5744,7125 5751,7153 5755,7183 5756,7216 5755,7250 5751,7286 5744,7324 5736,7362 5711,7440 5679,7516 5660,7553 5640,7588 5617,7622 5594,7654 5568,7682 5542,7708 5515,7731 5486,7750 5457,7764 5428,7775 5400,7782 5372,7785 5345,7784 5320,7779 5296,7772 5273,7761 5252,7747 5233,7730 5217,7710 5203,7687 5191,7661 5183,7634 5178,7603 5176,7571 5178,7536 5183,7500 5189,7471 5586,7471 Z M 5581,7001 L 5581,7466 5190,7466 5191,7462 5203,7424 5217,7385 5233,7346 5273,7269 5320,7196 5345,7162 5372,7130 5400,7101 5428,7075 5457,7053 5486,7034 5515,7019 5542,7008 5568,7002 5577,7001 5581,7001 Z"/>
     <path fill="rgb(182,225,244)" stroke="none" d="M 5581,7466 L 5581,7001 5577,7001 5594,6999 5617,7000 5629,7002 5640,7005 5650,7008 5660,7013 5670,7018 5679,7024 5696,7038 5711,7056 5725,7076 5736,7099 5744,7125 5751,7153 5755,7183 5756,7216 5755,7250 5751,7286 5744,7324 5736,7362 5711,7440 5679,7516 5660,7553 5640,7588 5617,7622 5594,7654 5568,7682 5542,7708 5515,7731 5486,7750 5457,7764 5428,7775 5400,7782 5372,7785 5345,7784 5320,7779 5296,7772 5273,7761 5252,7747 5233,7730 5217,7710 5203,7687 5191,7661 5183,7634 5178,7603 5176,7571 5178,7536 5183,7500 5190,7466 5581,7466 Z M 5576,7006 L 5576,7461 5191,7461 5203,7424 5217,7385 5233,7346 5273,7269 5320,7196 5345,7162 5372,7130 5400,7101 5428,7075 5457,7053 5486,7034 5515,7019 5542,7008 5551,7006 5576,7006 Z"/>
     <path fill="rgb(183,226,245)" stroke="none" d="M 5576,7461 L 5576,7006 5551,7006 5568,7002 5594,6999 5617,7000 5629,7002 5640,7005 5650,7008 5660,7013 5670,7018 5679,7024 5696,7038 5711,7056 5725,7076 5736,7099 5744,7125 5751,7153 5755,7183 5756,7216 5755,7250 5751,7286 5744,7324 5736,7362 5711,7440 5679,7516 5660,7553 5640,7588 5617,7622 5594,7654 5568,7682 5542,7708 5515,7731 5486,7750 5457,7764 5428,7775 5400,7782 5372,7785 5345,7784 5320,7779 5296,7772 5273,7761 5252,7747 5233,7730 5217,7710 5203,7687 5191,7661 5183,7634 5178,7603 5176,7571 5178,7536 5183,7500 5191,7462 5191,7461 5576,7461 Z M 5571,7011 L 5571,7456 5193,7456 5203,7424 5217,7385 5233,7346 5273,7269 5320,7196 5345,7162 5372,7130 5400,7101 5428,7075 5457,7053 5486,7034 5515,7019 5535,7011 5571,7011 Z"/>
     <path fill="rgb(184,226,245)" stroke="none" d="M 5571,7456 L 5571,7011 5535,7011 5542,7008 5568,7002 5594,6999 5617,7000 5629,7002 5640,7005 5650,7008 5660,7013 5670,7018 5679,7024 5696,7038 5711,7056 5725,7076 5736,7099 5744,7125 5751,7153 5755,7183 5756,7216 5755,7250 5751,7286 5744,7324 5736,7362 5711,7440 5679,7516 5660,7553 5640,7588 5617,7622 5594,7654 5568,7682 5542,7708 5515,7731 5486,7750 5457,7764 5428,7775 5400,7782 5372,7785 5345,7784 5320,7779 5296,7772 5273,7761 5252,7747 5233,7730 5217,7710 5203,7687 5191,7661 5183,7634 5178,7603 5176,7571 5178,7536 5183,7500 5191,7462 5193,7456 5571,7456 Z M 5565,7017 L 5565,7450 5195,7450 5203,7424 5217,7385 5233,7346 5273,7269 5320,7196 5345,7162 5372,7130 5400,7101 5428,7075 5457,7053 5486,7034 5515,7019 5520,7017 5565,7017 Z"/>
     <path fill="rgb(185,227,245)" stroke="none" d="M 5565,7450 L 5565,7017 5520,7017 5542,7008 5568,7002 5594,6999 5617,7000 5629,7002 5640,7005 5650,7008 5660,7013 5670,7018 5679,7024 5696,7038 5711,7056 5725,7076 5736,7099 5744,7125 5751,7153 5755,7183 5756,7216 5755,7250 5751,7286 5744,7324 5736,7362 5711,7440 5679,7516 5660,7553 5640,7588 5617,7622 5594,7654 5568,7682 5542,7708 5515,7731 5486,7750 5457,7764 5428,7775 5400,7782 5372,7785 5345,7784 5320,7779 5296,7772 5273,7761 5252,7747 5233,7730 5217,7710 5203,7687 5191,7661 5183,7634 5178,7603 5176,7571 5178,7536 5183,7500 5191,7462 5195,7450 5565,7450 Z M 5560,7022 L 5560,7445 5196,7445 5203,7424 5217,7385 5233,7346 5273,7269 5320,7196 5345,7162 5372,7130 5400,7101 5428,7075 5457,7053 5486,7034 5509,7022 5560,7022 Z"/>
     <path fill="rgb(186,227,245)" stroke="none" d="M 5560,7445 L 5560,7022 5509,7022 5515,7019 5542,7008 5568,7002 5594,6999 5617,7000 5629,7002 5640,7005 5650,7008 5660,7013 5670,7018 5679,7024 5696,7038 5711,7056 5725,7076 5736,7099 5744,7125 5751,7153 5755,7183 5756,7216 5755,7250 5751,7286 5744,7324 5736,7362 5711,7440 5679,7516 5660,7553 5640,7588 5617,7622 5594,7654 5568,7682 5542,7708 5515,7731 5486,7750 5457,7764 5428,7775 5400,7782 5372,7785 5345,7784 5320,7779 5296,7772 5273,7761 5252,7747 5233,7730 5217,7710 5203,7687 5191,7661 5183,7634 5178,7603 5176,7571 5178,7536 5183,7500 5191,7462 5196,7445 5560,7445 Z M 5555,7027 L 5555,7440 5198,7440 5203,7424 5217,7385 5233,7346 5273,7269 5320,7196 5345,7162 5372,7130 5400,7101 5428,7075 5457,7053 5486,7034 5500,7027 5555,7027 Z"/>
     <path fill="rgb(187,228,245)" stroke="none" d="M 5555,7440 L 5555,7027 5500,7027 5515,7019 5542,7008 5568,7002 5594,6999 5617,7000 5629,7002 5640,7005 5650,7008 5660,7013 5670,7018 5679,7024 5696,7038 5711,7056 5725,7076 5736,7099 5744,7125 5751,7153 5755,7183 5756,7216 5755,7250 5751,7286 5744,7324 5736,7362 5711,7440 5679,7516 5660,7553 5640,7588 5617,7622 5594,7654 5568,7682 5542,7708 5515,7731 5486,7750 5457,7764 5428,7775 5400,7782 5372,7785 5345,7784 5320,7779 5296,7772 5273,7761 5252,7747 5233,7730 5217,7710 5203,7687 5191,7661 5183,7634 5178,7603 5176,7571 5178,7536 5183,7500 5191,7462 5198,7440 5555,7440 Z M 5550,7032 L 5550,7435 5200,7435 5203,7424 5217,7385 5233,7346 5273,7269 5320,7196 5345,7162 5372,7130 5400,7101 5428,7075 5457,7053 5486,7034 5490,7032 5550,7032 Z"/>
     <path fill="rgb(188,228,245)" stroke="none" d="M 5550,7435 L 5550,7032 5490,7032 5515,7019 5542,7008 5568,7002 5594,6999 5617,7000 5629,7002 5640,7005 5650,7008 5660,7013 5670,7018 5679,7024 5696,7038 5711,7056 5725,7076 5736,7099 5744,7125 5751,7153 5755,7183 5756,7216 5755,7250 5751,7286 5744,7324 5736,7362 5711,7440 5679,7516 5660,7553 5640,7588 5617,7622 5594,7654 5568,7682 5542,7708 5515,7731 5486,7750 5457,7764 5428,7775 5400,7782 5372,7785 5345,7784 5320,7779 5296,7772 5273,7761 5252,7747 5233,7730 5217,7710 5203,7687 5191,7661 5183,7634 5178,7603 5176,7571 5178,7536 5183,7500 5191,7462 5200,7435 5550,7435 Z M 5545,7037 L 5545,7430 5201,7430 5203,7424 5217,7385 5233,7346 5273,7269 5320,7196 5345,7162 5372,7130 5400,7101 5428,7075 5457,7053 5481,7037 5545,7037 Z"/>
     <path fill="rgb(190,229,246)" stroke="none" d="M 5545,7430 L 5545,7037 5481,7037 5486,7034 5515,7019 5542,7008 5568,7002 5594,6999 5617,7000 5629,7002 5640,7005 5650,7008 5660,7013 5670,7018 5679,7024 5696,7038 5711,7056 5725,7076 5736,7099 5744,7125 5751,7153 5755,7183 5756,7216 5755,7250 5751,7286 5744,7324 5736,7362 5711,7440 5679,7516 5660,7553 5640,7588 5617,7622 5594,7654 5568,7682 5542,7708 5515,7731 5486,7750 5457,7764 5428,7775 5400,7782 5372,7785 5345,7784 5320,7779 5296,7772 5273,7761 5252,7747 5233,7730 5217,7710 5203,7687 5191,7661 5183,7634 5178,7603 5176,7571 5178,7536 5183,7500 5191,7462 5201,7430 5545,7430 Z M 5540,7042 L 5540,7425 5203,7425 5203,7424 5217,7385 5233,7346 5273,7269 5320,7196 5345,7162 5372,7130 5400,7101 5428,7075 5457,7053 5474,7042 5540,7042 Z"/>
     <path fill="rgb(191,229,246)" stroke="none" d="M 5540,7425 L 5540,7042 5474,7042 5486,7034 5515,7019 5542,7008 5568,7002 5594,6999 5617,7000 5629,7002 5640,7005 5650,7008 5660,7013 5670,7018 5679,7024 5696,7038 5711,7056 5725,7076 5736,7099 5744,7125 5751,7153 5755,7183 5756,7216 5755,7250 5751,7286 5744,7324 5736,7362 5711,7440 5679,7516 5660,7553 5640,7588 5617,7622 5594,7654 5568,7682 5542,7708 5515,7731 5486,7750 5457,7764 5428,7775 5400,7782 5372,7785 5345,7784 5320,7779 5296,7772 5273,7761 5252,7747 5233,7730 5217,7710 5203,7687 5191,7661 5183,7634 5178,7603 5176,7571 5178,7536 5183,7500 5191,7462 5203,7425 5540,7425 Z M 5535,7047 L 5535,7420 5204,7420 5217,7385 5233,7346 5273,7269 5320,7196 5345,7162 5372,7130 5400,7101 5428,7075 5457,7053 5466,7047 5535,7047 Z"/>
     <path fill="rgb(192,229,246)" stroke="none" d="M 5535,7420 L 5535,7047 5466,7047 5486,7034 5515,7019 5542,7008 5568,7002 5594,6999 5617,7000 5629,7002 5640,7005 5650,7008 5660,7013 5670,7018 5679,7024 5696,7038 5711,7056 5725,7076 5736,7099 5744,7125 5751,7153 5755,7183 5756,7216 5755,7250 5751,7286 5744,7324 5736,7362 5711,7440 5679,7516 5660,7553 5640,7588 5617,7622 5594,7654 5568,7682 5542,7708 5515,7731 5486,7750 5457,7764 5428,7775 5400,7782 5372,7785 5345,7784 5320,7779 5296,7772 5273,7761 5252,7747 5233,7730 5217,7710 5203,7687 5191,7661 5183,7634 5178,7603 5176,7571 5178,7536 5183,7500 5191,7462 5203,7424 5204,7420 5535,7420 Z M 5530,7052 L 5530,7415 5206,7415 5217,7385 5233,7346 5273,7269 5320,7196 5345,7162 5372,7130 5400,7101 5428,7075 5457,7053 5459,7052 5530,7052 Z"/>
     <path fill="rgb(193,230,246)" stroke="none" d="M 5530,7415 L 5530,7052 5459,7052 5486,7034 5515,7019 5542,7008 5568,7002 5594,6999 5617,7000 5629,7002 5640,7005 5650,7008 5660,7013 5670,7018 5679,7024 5696,7038 5711,7056 5725,7076 5736,7099 5744,7125 5751,7153 5755,7183 5756,7216 5755,7250 5751,7286 5744,7324 5736,7362 5711,7440 5679,7516 5660,7553 5640,7588 5617,7622 5594,7654 5568,7682 5542,7708 5515,7731 5486,7750 5457,7764 5428,7775 5400,7782 5372,7785 5345,7784 5320,7779 5296,7772 5273,7761 5252,7747 5233,7730 5217,7710 5203,7687 5191,7661 5183,7634 5178,7603 5176,7571 5178,7536 5183,7500 5191,7462 5203,7424 5206,7415 5530,7415 Z M 5525,7057 L 5525,7410 5208,7410 5217,7385 5233,7346 5273,7269 5320,7196 5345,7162 5372,7130 5400,7101 5428,7075 5452,7057 5525,7057 Z"/>
     <path fill="rgb(194,230,246)" stroke="none" d="M 5525,7410 L 5525,7057 5452,7057 5457,7053 5486,7034 5515,7019 5542,7008 5568,7002 5594,6999 5617,7000 5629,7002 5640,7005 5650,7008 5660,7013 5670,7018 5679,7024 5696,7038 5711,7056 5725,7076 5736,7099 5744,7125 5751,7153 5755,7183 5756,7216 5755,7250 5751,7286 5744,7324 5736,7362 5711,7440 5679,7516 5660,7553 5640,7588 5617,7622 5594,7654 5568,7682 5542,7708 5515,7731 5486,7750 5457,7764 5428,7775 5400,7782 5372,7785 5345,7784 5320,7779 5296,7772 5273,7761 5252,7747 5233,7730 5217,7710 5203,7687 5191,7661 5183,7634 5178,7603 5176,7571 5178,7536 5183,7500 5191,7462 5203,7424 5208,7410 5525,7410 Z M 5520,7062 L 5520,7405 5210,7405 5217,7385 5233,7346 5273,7269 5320,7196 5345,7162 5372,7130 5400,7101 5428,7075 5445,7062 5520,7062 Z"/>
     <path fill="rgb(195,231,246)" stroke="none" d="M 5520,7405 L 5520,7062 5445,7062 5457,7053 5486,7034 5515,7019 5542,7008 5568,7002 5594,6999 5617,7000 5629,7002 5640,7005 5650,7008 5660,7013 5670,7018 5679,7024 5696,7038 5711,7056 5725,7076 5736,7099 5744,7125 5751,7153 5755,7183 5756,7216 5755,7250 5751,7286 5744,7324 5736,7362 5711,7440 5679,7516 5660,7553 5640,7588 5617,7622 5594,7654 5568,7682 5542,7708 5515,7731 5486,7750 5457,7764 5428,7775 5400,7782 5372,7785 5345,7784 5320,7779 5296,7772 5273,7761 5252,7747 5233,7730 5217,7710 5203,7687 5191,7661 5183,7634 5178,7603 5176,7571 5178,7536 5183,7500 5191,7462 5203,7424 5210,7405 5520,7405 Z M 5515,7067 L 5515,7400 5212,7400 5217,7385 5233,7346 5273,7269 5320,7196 5345,7162 5372,7130 5400,7101 5428,7075 5439,7067 5515,7067 Z"/>
     <path fill="rgb(196,231,246)" stroke="none" d="M 5515,7400 L 5515,7067 5439,7067 5457,7053 5486,7034 5515,7019 5542,7008 5568,7002 5594,6999 5617,7000 5629,7002 5640,7005 5650,7008 5660,7013 5670,7018 5679,7024 5696,7038 5711,7056 5725,7076 5736,7099 5744,7125 5751,7153 5755,7183 5756,7216 5755,7250 5751,7286 5744,7324 5736,7362 5711,7440 5679,7516 5660,7553 5640,7588 5617,7622 5594,7654 5568,7682 5542,7708 5515,7731 5486,7750 5457,7764 5428,7775 5400,7782 5372,7785 5345,7784 5320,7779 5296,7772 5273,7761 5252,7747 5233,7730 5217,7710 5203,7687 5191,7661 5183,7634 5178,7603 5176,7571 5178,7536 5183,7500 5191,7462 5203,7424 5212,7400 5515,7400 Z M 5510,7072 L 5510,7395 5213,7395 5217,7385 5233,7346 5273,7269 5320,7196 5345,7162 5372,7130 5400,7101 5428,7075 5432,7072 5510,7072 Z"/>
     <path fill="rgb(197,232,247)" stroke="none" d="M 5510,7395 L 5510,7072 5432,7072 5457,7053 5486,7034 5515,7019 5542,7008 5568,7002 5594,6999 5617,7000 5629,7002 5640,7005 5650,7008 5660,7013 5670,7018 5679,7024 5696,7038 5711,7056 5725,7076 5736,7099 5744,7125 5751,7153 5755,7183 5756,7216 5755,7250 5751,7286 5744,7324 5736,7362 5711,7440 5679,7516 5660,7553 5640,7588 5617,7622 5594,7654 5568,7682 5542,7708 5515,7731 5486,7750 5457,7764 5428,7775 5400,7782 5372,7785 5345,7784 5320,7779 5296,7772 5273,7761 5252,7747 5233,7730 5217,7710 5203,7687 5191,7661 5183,7634 5178,7603 5176,7571 5178,7536 5183,7500 5191,7462 5203,7424 5213,7395 5510,7395 Z M 5505,7077 L 5505,7390 5215,7390 5217,7385 5233,7346 5273,7269 5320,7196 5345,7162 5372,7130 5400,7101 5426,7077 5505,7077 Z"/>
     <path fill="rgb(198,232,247)" stroke="none" d="M 5505,7390 L 5505,7077 5426,7077 5428,7075 5457,7053 5486,7034 5515,7019 5542,7008 5568,7002 5594,6999 5617,7000 5629,7002 5640,7005 5650,7008 5660,7013 5670,7018 5679,7024 5696,7038 5711,7056 5725,7076 5736,7099 5744,7125 5751,7153 5755,7183 5756,7216 5755,7250 5751,7286 5744,7324 5736,7362 5711,7440 5679,7516 5660,7553 5640,7588 5617,7622 5594,7654 5568,7682 5542,7708 5515,7731 5486,7750 5457,7764 5428,7775 5400,7782 5372,7785 5345,7784 5320,7779 5296,7772 5273,7761 5252,7747 5233,7730 5217,7710 5203,7687 5191,7661 5183,7634 5178,7603 5176,7571 5178,7536 5183,7500 5191,7462 5203,7424 5215,7390 5505,7390 Z M 5500,7082 L 5500,7385 5217,7385 5233,7346 5273,7269 5320,7196 5345,7162 5372,7130 5400,7101 5420,7082 5500,7082 Z"/>
     <path fill="rgb(199,232,247)" stroke="none" d="M 5500,7385 L 5500,7082 5420,7082 5428,7075 5457,7053 5486,7034 5515,7019 5542,7008 5568,7002 5594,6999 5617,7000 5629,7002 5640,7005 5650,7008 5660,7013 5670,7018 5679,7024 5696,7038 5711,7056 5725,7076 5736,7099 5744,7125 5751,7153 5755,7183 5756,7216 5755,7250 5751,7286 5744,7324 5736,7362 5711,7440 5679,7516 5660,7553 5640,7588 5617,7622 5594,7654 5568,7682 5542,7708 5515,7731 5486,7750 5457,7764 5428,7775 5400,7782 5372,7785 5345,7784 5320,7779 5296,7772 5273,7761 5252,7747 5233,7730 5217,7710 5203,7687 5191,7661 5183,7634 5178,7603 5176,7571 5178,7536 5183,7500 5191,7462 5203,7424 5217,7385 5500,7385 Z M 5495,7087 L 5495,7380 5219,7380 5233,7346 5273,7269 5320,7196 5345,7162 5372,7130 5400,7101 5415,7087 5495,7087 Z"/>
     <path fill="rgb(201,233,247)" stroke="none" d="M 5495,7380 L 5495,7087 5415,7087 5428,7075 5457,7053 5486,7034 5515,7019 5542,7008 5568,7002 5594,6999 5617,7000 5629,7002 5640,7005 5650,7008 5660,7013 5670,7018 5679,7024 5696,7038 5711,7056 5725,7076 5736,7099 5744,7125 5751,7153 5755,7183 5756,7216 5755,7250 5751,7286 5744,7324 5736,7362 5711,7440 5679,7516 5660,7553 5640,7588 5617,7622 5594,7654 5568,7682 5542,7708 5515,7731 5486,7750 5457,7764 5428,7775 5400,7782 5372,7785 5345,7784 5320,7779 5296,7772 5273,7761 5252,7747 5233,7730 5217,7710 5203,7687 5191,7661 5183,7634 5178,7603 5176,7571 5178,7536 5183,7500 5191,7462 5203,7424 5217,7385 5219,7380 5495,7380 Z M 5490,7092 L 5490,7375 5221,7375 5233,7346 5273,7269 5320,7196 5345,7162 5372,7130 5400,7101 5410,7092 5490,7092 Z"/>
     <path fill="rgb(202,233,247)" stroke="none" d="M 5490,7375 L 5490,7092 5410,7092 5428,7075 5457,7053 5486,7034 5515,7019 5542,7008 5568,7002 5594,6999 5617,7000 5629,7002 5640,7005 5650,7008 5660,7013 5670,7018 5679,7024 5696,7038 5711,7056 5725,7076 5736,7099 5744,7125 5751,7153 5755,7183 5756,7216 5755,7250 5751,7286 5744,7324 5736,7362 5711,7440 5679,7516 5660,7553 5640,7588 5617,7622 5594,7654 5568,7682 5542,7708 5515,7731 5486,7750 5457,7764 5428,7775 5400,7782 5372,7785 5345,7784 5320,7779 5296,7772 5273,7761 5252,7747 5233,7730 5217,7710 5203,7687 5191,7661 5183,7634 5178,7603 5176,7571 5178,7536 5183,7500 5191,7462 5203,7424 5217,7385 5221,7375 5490,7375 Z M 5485,7097 L 5485,7370 5223,7370 5233,7346 5273,7269 5320,7196 5345,7162 5372,7130 5400,7101 5404,7097 5485,7097 Z"/>
     <path fill="rgb(203,234,247)" stroke="none" d="M 5485,7370 L 5485,7097 5404,7097 5428,7075 5457,7053 5486,7034 5515,7019 5542,7008 5568,7002 5594,6999 5617,7000 5629,7002 5640,7005 5650,7008 5660,7013 5670,7018 5679,7024 5696,7038 5711,7056 5725,7076 5736,7099 5744,7125 5751,7153 5755,7183 5756,7216 5755,7250 5751,7286 5744,7324 5736,7362 5711,7440 5679,7516 5660,7553 5640,7588 5617,7622 5594,7654 5568,7682 5542,7708 5515,7731 5486,7750 5457,7764 5428,7775 5400,7782 5372,7785 5345,7784 5320,7779 5296,7772 5273,7761 5252,7747 5233,7730 5217,7710 5203,7687 5191,7661 5183,7634 5178,7603 5176,7571 5178,7536 5183,7500 5191,7462 5203,7424 5217,7385 5223,7370 5485,7370 Z M 5480,7102 L 5480,7365 5225,7365 5233,7346 5273,7269 5320,7196 5345,7162 5372,7130 5399,7102 5480,7102 Z"/>
     <path fill="rgb(204,234,248)" stroke="none" d="M 5480,7365 L 5480,7102 5399,7102 5400,7101 5428,7075 5457,7053 5486,7034 5515,7019 5542,7008 5568,7002 5594,6999 5617,7000 5629,7002 5640,7005 5650,7008 5660,7013 5670,7018 5679,7024 5696,7038 5711,7056 5725,7076 5736,7099 5744,7125 5751,7153 5755,7183 5756,7216 5755,7250 5751,7286 5744,7324 5736,7362 5711,7440 5679,7516 5660,7553 5640,7588 5617,7622 5594,7654 5568,7682 5542,7708 5515,7731 5486,7750 5457,7764 5428,7775 5400,7782 5372,7785 5345,7784 5320,7779 5296,7772 5273,7761 5252,7747 5233,7730 5217,7710 5203,7687 5191,7661 5183,7634 5178,7603 5176,7571 5178,7536 5183,7500 5191,7462 5203,7424 5217,7385 5225,7365 5480,7365 Z M 5474,7108 L 5474,7359 5228,7359 5233,7346 5273,7269 5320,7196 5345,7162 5372,7130 5393,7108 5474,7108 Z"/>
     <path fill="rgb(205,235,248)" stroke="none" d="M 5474,7359 L 5474,7108 5393,7108 5400,7101 5428,7075 5457,7053 5486,7034 5515,7019 5542,7008 5568,7002 5594,6999 5617,7000 5629,7002 5640,7005 5650,7008 5660,7013 5670,7018 5679,7024 5696,7038 5711,7056 5725,7076 5736,7099 5744,7125 5751,7153 5755,7183 5756,7216 5755,7250 5751,7286 5744,7324 5736,7362 5711,7440 5679,7516 5660,7553 5640,7588 5617,7622 5594,7654 5568,7682 5542,7708 5515,7731 5486,7750 5457,7764 5428,7775 5400,7782 5372,7785 5345,7784 5320,7779 5296,7772 5273,7761 5252,7747 5233,7730 5217,7710 5203,7687 5191,7661 5183,7634 5178,7603 5176,7571 5178,7536 5183,7500 5191,7462 5203,7424 5217,7385 5228,7359 5474,7359 Z M 5469,7113 L 5469,7354 5230,7354 5233,7346 5273,7269 5320,7196 5345,7162 5372,7130 5388,7113 5469,7113 Z"/>
     <path fill="rgb(206,235,248)" stroke="none" d="M 5469,7354 L 5469,7113 5388,7113 5400,7101 5428,7075 5457,7053 5486,7034 5515,7019 5542,7008 5568,7002 5594,6999 5617,7000 5629,7002 5640,7005 5650,7008 5660,7013 5670,7018 5679,7024 5696,7038 5711,7056 5725,7076 5736,7099 5744,7125 5751,7153 5755,7183 5756,7216 5755,7250 5751,7286 5744,7324 5736,7362 5711,7440 5679,7516 5660,7553 5640,7588 5617,7622 5594,7654 5568,7682 5542,7708 5515,7731 5486,7750 5457,7764 5428,7775 5400,7782 5372,7785 5345,7784 5320,7779 5296,7772 5273,7761 5252,7747 5233,7730 5217,7710 5203,7687 5191,7661 5183,7634 5178,7603 5176,7571 5178,7536 5183,7500 5191,7462 5203,7424 5217,7385 5230,7354 5469,7354 Z M 5464,7118 L 5464,7349 5233,7349 5233,7346 5273,7269 5320,7196 5345,7162 5372,7130 5384,7118 5464,7118 Z"/>
     <path fill="rgb(207,235,248)" stroke="none" d="M 5233,7349 L 5464,7349 5464,7118 5384,7118 5400,7101 5428,7075 5457,7053 5486,7034 5515,7019 5542,7008 5568,7002 5594,6999 5617,7000 5629,7002 5640,7005 5650,7008 5660,7013 5670,7018 5679,7024 5696,7038 5711,7056 5725,7076 5736,7099 5744,7125 5751,7153 5755,7183 5756,7216 5755,7250 5751,7286 5744,7324 5736,7362 5711,7440 5679,7516 5660,7553 5640,7588 5617,7622 5594,7654 5568,7682 5542,7708 5515,7731 5486,7750 5457,7764 5428,7775 5400,7782 5372,7785 5345,7784 5320,7779 5296,7772 5273,7761 5252,7747 5233,7730 5217,7710 5203,7687 5191,7661 5183,7634 5178,7603 5176,7571 5178,7536 5183,7500 5191,7462 5203,7424 5217,7385 5233,7346 5233,7349 Z M 5459,7123 L 5459,7344 5238,7344 5238,7336 5273,7269 5320,7196 5345,7162 5372,7130 5379,7123 5459,7123 Z"/>
     <path fill="rgb(208,236,248)" stroke="none" d="M 5238,7344 L 5459,7344 5459,7123 5379,7123 5400,7101 5428,7075 5457,7053 5486,7034 5515,7019 5542,7008 5568,7002 5594,6999 5617,7000 5629,7002 5640,7005 5650,7008 5660,7013 5670,7018 5679,7024 5696,7038 5711,7056 5725,7076 5736,7099 5744,7125 5751,7153 5755,7183 5756,7216 5755,7250 5751,7286 5744,7324 5736,7362 5711,7440 5679,7516 5660,7553 5640,7588 5617,7622 5594,7654 5568,7682 5542,7708 5515,7731 5486,7750 5457,7764 5428,7775 5400,7782 5372,7785 5345,7784 5320,7779 5296,7772 5273,7761 5252,7747 5233,7730 5217,7710 5203,7687 5191,7661 5183,7634 5178,7603 5176,7571 5178,7536 5183,7500 5191,7462 5203,7424 5217,7385 5233,7346 5238,7336 5238,7344 Z M 5454,7128 L 5454,7339 5243,7339 5243,7327 5273,7269 5320,7196 5345,7162 5372,7130 5374,7128 5454,7128 Z"/>
     <path fill="rgb(209,236,248)" stroke="none" d="M 5243,7339 L 5454,7339 5454,7128 5374,7128 5400,7101 5428,7075 5457,7053 5486,7034 5515,7019 5542,7008 5568,7002 5594,6999 5617,7000 5629,7002 5640,7005 5650,7008 5660,7013 5670,7018 5679,7024 5696,7038 5711,7056 5725,7076 5736,7099 5744,7125 5751,7153 5755,7183 5756,7216 5755,7250 5751,7286 5744,7324 5736,7362 5711,7440 5679,7516 5660,7553 5640,7588 5617,7622 5594,7654 5568,7682 5542,7708 5515,7731 5486,7750 5457,7764 5428,7775 5400,7782 5372,7785 5345,7784 5320,7779 5296,7772 5273,7761 5252,7747 5233,7730 5217,7710 5203,7687 5191,7661 5183,7634 5178,7603 5176,7571 5178,7536 5183,7500 5191,7462 5203,7424 5217,7385 5233,7346 5243,7327 5243,7339 Z M 5449,7133 L 5449,7334 5248,7334 5248,7317 5273,7269 5320,7196 5345,7162 5369,7133 5449,7133 Z"/>
     <path fill="rgb(210,237,248)" stroke="none" d="M 5248,7334 L 5449,7334 5449,7133 5369,7133 5372,7130 5400,7101 5428,7075 5457,7053 5486,7034 5515,7019 5542,7008 5568,7002 5594,6999 5617,7000 5629,7002 5640,7005 5650,7008 5660,7013 5670,7018 5679,7024 5696,7038 5711,7056 5725,7076 5736,7099 5744,7125 5751,7153 5755,7183 5756,7216 5755,7250 5751,7286 5744,7324 5736,7362 5711,7440 5679,7516 5660,7553 5640,7588 5617,7622 5594,7654 5568,7682 5542,7708 5515,7731 5486,7750 5457,7764 5428,7775 5400,7782 5372,7785 5345,7784 5320,7779 5296,7772 5273,7761 5252,7747 5233,7730 5217,7710 5203,7687 5191,7661 5183,7634 5178,7603 5176,7571 5178,7536 5183,7500 5191,7462 5203,7424 5217,7385 5233,7346 5248,7317 5248,7334 Z M 5444,7138 L 5444,7329 5253,7329 5253,7308 5273,7269 5320,7196 5345,7162 5365,7138 5444,7138 Z"/>
     <path fill="rgb(212,237,249)" stroke="none" d="M 5253,7329 L 5444,7329 5444,7138 5365,7138 5372,7130 5400,7101 5428,7075 5457,7053 5486,7034 5515,7019 5542,7008 5568,7002 5594,6999 5617,7000 5629,7002 5640,7005 5650,7008 5660,7013 5670,7018 5679,7024 5696,7038 5711,7056 5725,7076 5736,7099 5744,7125 5751,7153 5755,7183 5756,7216 5755,7250 5751,7286 5744,7324 5736,7362 5711,7440 5679,7516 5660,7553 5640,7588 5617,7622 5594,7654 5568,7682 5542,7708 5515,7731 5486,7750 5457,7764 5428,7775 5400,7782 5372,7785 5345,7784 5320,7779 5296,7772 5273,7761 5252,7747 5233,7730 5217,7710 5203,7687 5191,7661 5183,7634 5178,7603 5176,7571 5178,7536 5183,7500 5191,7462 5203,7424 5217,7385 5233,7346 5253,7308 5253,7329 Z M 5439,7143 L 5439,7324 5258,7324 5258,7298 5273,7269 5320,7196 5345,7162 5361,7143 5439,7143 Z"/>
     <path fill="rgb(213,238,249)" stroke="none" d="M 5258,7324 L 5439,7324 5439,7143 5361,7143 5372,7130 5400,7101 5428,7075 5457,7053 5486,7034 5515,7019 5542,7008 5568,7002 5594,6999 5617,7000 5629,7002 5640,7005 5650,7008 5660,7013 5670,7018 5679,7024 5696,7038 5711,7056 5725,7076 5736,7099 5744,7125 5751,7153 5755,7183 5756,7216 5755,7250 5751,7286 5744,7324 5736,7362 5711,7440 5679,7516 5660,7553 5640,7588 5617,7622 5594,7654 5568,7682 5542,7708 5515,7731 5486,7750 5457,7764 5428,7775 5400,7782 5372,7785 5345,7784 5320,7779 5296,7772 5273,7761 5252,7747 5233,7730 5217,7710 5203,7687 5191,7661 5183,7634 5178,7603 5176,7571 5178,7536 5183,7500 5191,7462 5203,7424 5217,7385 5233,7346 5258,7298 5258,7324 Z M 5434,7148 L 5434,7319 5263,7319 5263,7288 5273,7269 5320,7196 5345,7162 5357,7148 5434,7148 Z"/>
     <path fill="rgb(214,238,249)" stroke="none" d="M 5263,7319 L 5434,7319 5434,7148 5357,7148 5372,7130 5400,7101 5428,7075 5457,7053 5486,7034 5515,7019 5542,7008 5568,7002 5594,6999 5617,7000 5629,7002 5640,7005 5650,7008 5660,7013 5670,7018 5679,7024 5696,7038 5711,7056 5725,7076 5736,7099 5744,7125 5751,7153 5755,7183 5756,7216 5755,7250 5751,7286 5744,7324 5736,7362 5711,7440 5679,7516 5660,7553 5640,7588 5617,7622 5594,7654 5568,7682 5542,7708 5515,7731 5486,7750 5457,7764 5428,7775 5400,7782 5372,7785 5345,7784 5320,7779 5296,7772 5273,7761 5252,7747 5233,7730 5217,7710 5203,7687 5191,7661 5183,7634 5178,7603 5176,7571 5178,7536 5183,7500 5191,7462 5203,7424 5217,7385 5233,7346 5263,7288 5263,7319 Z M 5429,7153 L 5429,7314 5268,7314 5268,7279 5273,7269 5320,7196 5345,7162 5353,7153 5429,7153 Z"/>
     <path fill="rgb(215,239,249)" stroke="none" d="M 5268,7314 L 5429,7314 5429,7153 5353,7153 5372,7130 5400,7101 5428,7075 5457,7053 5486,7034 5515,7019 5542,7008 5568,7002 5594,6999 5617,7000 5629,7002 5640,7005 5650,7008 5660,7013 5670,7018 5679,7024 5696,7038 5711,7056 5725,7076 5736,7099 5744,7125 5751,7153 5755,7183 5756,7216 5755,7250 5751,7286 5744,7324 5736,7362 5711,7440 5679,7516 5660,7553 5640,7588 5617,7622 5594,7654 5568,7682 5542,7708 5515,7731 5486,7750 5457,7764 5428,7775 5400,7782 5372,7785 5345,7784 5320,7779 5296,7772 5273,7761 5252,7747 5233,7730 5217,7710 5203,7687 5191,7661 5183,7634 5178,7603 5176,7571 5178,7536 5183,7500 5191,7462 5203,7424 5217,7385 5233,7346 5268,7279 5268,7314 Z M 5424,7158 L 5424,7309 5273,7309 5273,7269 5320,7196 5345,7162 5348,7158 5424,7158 Z"/>
     <path fill="rgb(216,239,249)" stroke="none" d="M 5273,7309 L 5424,7309 5424,7158 5348,7158 5372,7130 5400,7101 5428,7075 5457,7053 5486,7034 5515,7019 5542,7008 5568,7002 5594,6999 5617,7000 5629,7002 5640,7005 5650,7008 5660,7013 5670,7018 5679,7024 5696,7038 5711,7056 5725,7076 5736,7099 5744,7125 5751,7153 5755,7183 5756,7216 5755,7250 5751,7286 5744,7324 5736,7362 5711,7440 5679,7516 5660,7553 5640,7588 5617,7622 5594,7654 5568,7682 5542,7708 5515,7731 5486,7750 5457,7764 5428,7775 5400,7782 5372,7785 5345,7784 5320,7779 5296,7772 5273,7761 5252,7747 5233,7730 5217,7710 5203,7687 5191,7661 5183,7634 5178,7603 5176,7571 5178,7536 5183,7500 5191,7462 5203,7424 5217,7385 5233,7346 5273,7269 5273,7309 Z M 5419,7163 L 5419,7304 5278,7304 5278,7261 5320,7196 5344,7163 5419,7163 Z"/>
     <path fill="rgb(217,239,249)" stroke="none" d="M 5278,7304 L 5419,7304 5419,7163 5344,7163 5345,7162 5372,7130 5400,7101 5428,7075 5457,7053 5486,7034 5515,7019 5542,7008 5568,7002 5594,6999 5617,7000 5629,7002 5640,7005 5650,7008 5660,7013 5670,7018 5679,7024 5696,7038 5711,7056 5725,7076 5736,7099 5744,7125 5751,7153 5755,7183 5756,7216 5755,7250 5751,7286 5744,7324 5736,7362 5711,7440 5679,7516 5660,7553 5640,7588 5617,7622 5594,7654 5568,7682 5542,7708 5515,7731 5486,7750 5457,7764 5428,7775 5400,7782 5372,7785 5345,7784 5320,7779 5296,7772 5273,7761 5252,7747 5233,7730 5217,7710 5203,7687 5191,7661 5183,7634 5178,7603 5176,7571 5178,7536 5183,7500 5191,7462 5203,7424 5217,7385 5233,7346 5273,7269 5278,7261 5278,7304 Z M 5414,7168 L 5414,7299 5283,7299 5283,7253 5320,7196 5341,7168 5414,7168 Z"/>
     <path fill="rgb(218,240,250)" stroke="none" d="M 5283,7299 L 5414,7299 5414,7168 5341,7168 5345,7162 5372,7130 5400,7101 5428,7075 5457,7053 5486,7034 5515,7019 5542,7008 5568,7002 5594,6999 5617,7000 5629,7002 5640,7005 5650,7008 5660,7013 5670,7018 5679,7024 5696,7038 5711,7056 5725,7076 5736,7099 5744,7125 5751,7153 5755,7183 5756,7216 5755,7250 5751,7286 5744,7324 5736,7362 5711,7440 5679,7516 5660,7553 5640,7588 5617,7622 5594,7654 5568,7682 5542,7708 5515,7731 5486,7750 5457,7764 5428,7775 5400,7782 5372,7785 5345,7784 5320,7779 5296,7772 5273,7761 5252,7747 5233,7730 5217,7710 5203,7687 5191,7661 5183,7634 5178,7603 5176,7571 5178,7536 5183,7500 5191,7462 5203,7424 5217,7385 5233,7346 5273,7269 5283,7253 5283,7299 Z M 5409,7173 L 5409,7294 5288,7294 5288,7246 5320,7196 5337,7173 5409,7173 Z"/>
     <path fill="rgb(219,240,250)" stroke="none" d="M 5288,7294 L 5409,7294 5409,7173 5337,7173 5345,7162 5372,7130 5400,7101 5428,7075 5457,7053 5486,7034 5515,7019 5542,7008 5568,7002 5594,6999 5617,7000 5629,7002 5640,7005 5650,7008 5660,7013 5670,7018 5679,7024 5696,7038 5711,7056 5725,7076 5736,7099 5744,7125 5751,7153 5755,7183 5756,7216 5755,7250 5751,7286 5744,7324 5736,7362 5711,7440 5679,7516 5660,7553 5640,7588 5617,7622 5594,7654 5568,7682 5542,7708 5515,7731 5486,7750 5457,7764 5428,7775 5400,7782 5372,7785 5345,7784 5320,7779 5296,7772 5273,7761 5252,7747 5233,7730 5217,7710 5203,7687 5191,7661 5183,7634 5178,7603 5176,7571 5178,7536 5183,7500 5191,7462 5203,7424 5217,7385 5233,7346 5273,7269 5288,7246 5288,7294 Z M 5404,7178 L 5404,7289 5293,7289 5293,7238 5320,7196 5333,7178 5404,7178 Z"/>
     <path fill="rgb(220,241,250)" stroke="none" d="M 5293,7289 L 5404,7289 5404,7178 5333,7178 5345,7162 5372,7130 5400,7101 5428,7075 5457,7053 5486,7034 5515,7019 5542,7008 5568,7002 5594,6999 5617,7000 5629,7002 5640,7005 5650,7008 5660,7013 5670,7018 5679,7024 5696,7038 5711,7056 5725,7076 5736,7099 5744,7125 5751,7153 5755,7183 5756,7216 5755,7250 5751,7286 5744,7324 5736,7362 5711,7440 5679,7516 5660,7553 5640,7588 5617,7622 5594,7654 5568,7682 5542,7708 5515,7731 5486,7750 5457,7764 5428,7775 5400,7782 5372,7785 5345,7784 5320,7779 5296,7772 5273,7761 5252,7747 5233,7730 5217,7710 5203,7687 5191,7661 5183,7634 5178,7603 5176,7571 5178,7536 5183,7500 5191,7462 5203,7424 5217,7385 5233,7346 5273,7269 5293,7238 5293,7289 Z M 5399,7183 L 5399,7284 5298,7284 5298,7230 5320,7196 5330,7183 5399,7183 Z"/>
     <path fill="rgb(221,241,250)" stroke="none" d="M 5298,7284 L 5399,7284 5399,7183 5330,7183 5345,7162 5372,7130 5400,7101 5428,7075 5457,7053 5486,7034 5515,7019 5542,7008 5568,7002 5594,6999 5617,7000 5629,7002 5640,7005 5650,7008 5660,7013 5670,7018 5679,7024 5696,7038 5711,7056 5725,7076 5736,7099 5744,7125 5751,7153 5755,7183 5756,7216 5755,7250 5751,7286 5744,7324 5736,7362 5711,7440 5679,7516 5660,7553 5640,7588 5617,7622 5594,7654 5568,7682 5542,7708 5515,7731 5486,7750 5457,7764 5428,7775 5400,7782 5372,7785 5345,7784 5320,7779 5296,7772 5273,7761 5252,7747 5233,7730 5217,7710 5203,7687 5191,7661 5183,7634 5178,7603 5176,7571 5178,7536 5183,7500 5191,7462 5203,7424 5217,7385 5233,7346 5273,7269 5298,7230 5298,7284 Z M 5394,7188 L 5394,7279 5303,7279 5303,7222 5320,7196 5326,7188 5394,7188 Z"/>
     <path fill="rgb(223,242,250)" stroke="none" d="M 5303,7279 L 5394,7279 5394,7188 5326,7188 5345,7162 5372,7130 5400,7101 5428,7075 5457,7053 5486,7034 5515,7019 5542,7008 5568,7002 5594,6999 5617,7000 5629,7002 5640,7005 5650,7008 5660,7013 5670,7018 5679,7024 5696,7038 5711,7056 5725,7076 5736,7099 5744,7125 5751,7153 5755,7183 5756,7216 5755,7250 5751,7286 5744,7324 5736,7362 5711,7440 5679,7516 5660,7553 5640,7588 5617,7622 5594,7654 5568,7682 5542,7708 5515,7731 5486,7750 5457,7764 5428,7775 5400,7782 5372,7785 5345,7784 5320,7779 5296,7772 5273,7761 5252,7747 5233,7730 5217,7710 5203,7687 5191,7661 5183,7634 5178,7603 5176,7571 5178,7536 5183,7500 5191,7462 5203,7424 5217,7385 5233,7346 5273,7269 5303,7222 5303,7279 Z M 5388,7194 L 5388,7273 5309,7273 5309,7213 5320,7196 5321,7194 5388,7194 Z"/>
     <path fill="rgb(224,242,250)" stroke="none" d="M 5309,7273 L 5388,7273 5388,7194 5321,7194 5345,7162 5372,7130 5400,7101 5428,7075 5457,7053 5486,7034 5515,7019 5542,7008 5568,7002 5594,6999 5617,7000 5629,7002 5640,7005 5650,7008 5660,7013 5670,7018 5679,7024 5696,7038 5711,7056 5725,7076 5736,7099 5744,7125 5751,7153 5755,7183 5756,7216 5755,7250 5751,7286 5744,7324 5736,7362 5711,7440 5679,7516 5660,7553 5640,7588 5617,7622 5594,7654 5568,7682 5542,7708 5515,7731 5486,7750 5457,7764 5428,7775 5400,7782 5372,7785 5345,7784 5320,7779 5296,7772 5273,7761 5252,7747 5233,7730 5217,7710 5203,7687 5191,7661 5183,7634 5178,7603 5176,7571 5178,7536 5183,7500 5191,7462 5203,7424 5217,7385 5233,7346 5273,7269 5309,7213 5309,7273 Z M 5383,7199 L 5383,7268 5314,7268 5314,7205 5318,7199 5383,7199 Z"/>
     <path fill="rgb(225,242,250)" stroke="none" d="M 5314,7268 L 5383,7268 5383,7199 5318,7199 5320,7196 5345,7162 5372,7130 5400,7101 5428,7075 5457,7053 5486,7034 5515,7019 5542,7008 5568,7002 5594,6999 5617,7000 5629,7002 5640,7005 5650,7008 5660,7013 5670,7018 5679,7024 5696,7038 5711,7056 5725,7076 5736,7099 5744,7125 5751,7153 5755,7183 5756,7216 5755,7250 5751,7286 5744,7324 5736,7362 5711,7440 5679,7516 5660,7553 5640,7588 5617,7622 5594,7654 5568,7682 5542,7708 5515,7731 5486,7750 5457,7764 5428,7775 5400,7782 5372,7785 5345,7784 5320,7779 5296,7772 5273,7761 5252,7747 5233,7730 5217,7710 5203,7687 5191,7661 5183,7634 5178,7603 5176,7571 5178,7536 5183,7500 5191,7462 5203,7424 5217,7385 5233,7346 5273,7269 5314,7205 5314,7268 Z M 5319,7204 L 5378,7204 5378,7263 5319,7263 5319,7204 Z"/>
     <path fill="rgb(226,243,251)" stroke="none" d="M 5319,7204 L 5319,7263 5378,7263 5378,7204 5319,7204 Z M 5324,7209 L 5373,7209 5373,7258 5324,7258 5324,7209 Z M 5486,7034 L 5515,7019 5542,7008 5568,7002 5594,6999 5617,7000 5629,7002 5640,7005 5650,7008 5660,7013 5670,7018 5679,7024 5696,7038 5711,7056 5725,7076 5736,7099 5744,7125 5751,7153 5755,7183 5756,7216 5755,7250 5751,7286 5744,7324 5736,7362 5711,7440 5679,7516 5660,7553 5640,7588 5617,7622 5594,7654 5568,7682 5542,7708 5515,7731 5486,7750 5457,7764 5428,7775 5400,7782 5372,7785 5345,7784 5320,7779 5296,7772 5273,7761 5252,7747 5233,7730 5217,7710 5203,7687 5191,7661 5183,7634 5178,7603 5176,7571 5178,7536 5183,7500 5191,7462 5203,7424 5217,7385 5233,7346 5273,7269 5320,7196 5345,7162 5372,7130 5400,7101 5428,7075 5457,7053 5486,7034 Z"/>
     <path fill="rgb(227,243,251)" stroke="none" d="M 5324,7209 L 5324,7258 5373,7258 5373,7209 5324,7209 Z M 5329,7214 L 5368,7214 5368,7253 5329,7253 5329,7214 Z M 5486,7034 L 5515,7019 5542,7008 5568,7002 5594,6999 5617,7000 5629,7002 5640,7005 5650,7008 5660,7013 5670,7018 5679,7024 5696,7038 5711,7056 5725,7076 5736,7099 5744,7125 5751,7153 5755,7183 5756,7216 5755,7250 5751,7286 5744,7324 5736,7362 5711,7440 5679,7516 5660,7553 5640,7588 5617,7622 5594,7654 5568,7682 5542,7708 5515,7731 5486,7750 5457,7764 5428,7775 5400,7782 5372,7785 5345,7784 5320,7779 5296,7772 5273,7761 5252,7747 5233,7730 5217,7710 5203,7687 5191,7661 5183,7634 5178,7603 5176,7571 5178,7536 5183,7500 5191,7462 5203,7424 5217,7385 5233,7346 5273,7269 5320,7196 5345,7162 5372,7130 5400,7101 5428,7075 5457,7053 5486,7034 Z"/>
     <path fill="rgb(228,244,251)" stroke="none" d="M 5329,7214 L 5329,7253 5368,7253 5368,7214 5329,7214 Z M 5334,7219 L 5363,7219 5363,7248 5334,7248 5334,7219 Z M 5486,7034 L 5515,7019 5542,7008 5568,7002 5594,6999 5617,7000 5629,7002 5640,7005 5650,7008 5660,7013 5670,7018 5679,7024 5696,7038 5711,7056 5725,7076 5736,7099 5744,7125 5751,7153 5755,7183 5756,7216 5755,7250 5751,7286 5744,7324 5736,7362 5711,7440 5679,7516 5660,7553 5640,7588 5617,7622 5594,7654 5568,7682 5542,7708 5515,7731 5486,7750 5457,7764 5428,7775 5400,7782 5372,7785 5345,7784 5320,7779 5296,7772 5273,7761 5252,7747 5233,7730 5217,7710 5203,7687 5191,7661 5183,7634 5178,7603 5176,7571 5178,7536 5183,7500 5191,7462 5203,7424 5217,7385 5233,7346 5273,7269 5320,7196 5345,7162 5372,7130 5400,7101 5428,7075 5457,7053 5486,7034 Z"/>
     <path fill="rgb(229,244,251)" stroke="none" d="M 5334,7219 L 5334,7248 5363,7248 5363,7219 5334,7219 Z M 5339,7224 L 5358,7224 5358,7243 5339,7243 5339,7224 Z M 5486,7034 L 5515,7019 5542,7008 5568,7002 5594,6999 5617,7000 5629,7002 5640,7005 5650,7008 5660,7013 5670,7018 5679,7024 5696,7038 5711,7056 5725,7076 5736,7099 5744,7125 5751,7153 5755,7183 5756,7216 5755,7250 5751,7286 5744,7324 5736,7362 5711,7440 5679,7516 5660,7553 5640,7588 5617,7622 5594,7654 5568,7682 5542,7708 5515,7731 5486,7750 5457,7764 5428,7775 5400,7782 5372,7785 5345,7784 5320,7779 5296,7772 5273,7761 5252,7747 5233,7730 5217,7710 5203,7687 5191,7661 5183,7634 5178,7603 5176,7571 5178,7536 5183,7500 5191,7462 5203,7424 5217,7385 5233,7346 5273,7269 5320,7196 5345,7162 5372,7130 5400,7101 5428,7075 5457,7053 5486,7034 Z"/>
     <path fill="rgb(230,245,251)" stroke="none" d="M 5339,7224 L 5339,7243 5358,7243 5358,7224 5339,7224 Z M 5344,7229 L 5353,7229 5353,7238 5344,7238 5344,7229 Z M 5486,7034 L 5515,7019 5542,7008 5568,7002 5594,6999 5617,7000 5629,7002 5640,7005 5650,7008 5660,7013 5670,7018 5679,7024 5696,7038 5711,7056 5725,7076 5736,7099 5744,7125 5751,7153 5755,7183 5756,7216 5755,7250 5751,7286 5744,7324 5736,7362 5711,7440 5679,7516 5660,7553 5640,7588 5617,7622 5594,7654 5568,7682 5542,7708 5515,7731 5486,7750 5457,7764 5428,7775 5400,7782 5372,7785 5345,7784 5320,7779 5296,7772 5273,7761 5252,7747 5233,7730 5217,7710 5203,7687 5191,7661 5183,7634 5178,7603 5176,7571 5178,7536 5183,7500 5191,7462 5203,7424 5217,7385 5233,7346 5273,7269 5320,7196 5345,7162 5372,7130 5400,7101 5428,7075 5457,7053 5486,7034 Z"/>
     <path fill="rgb(233,246,252)" stroke="none" d="M 5344,7229 L 5344,7238 5353,7238 5353,7229 5344,7229 Z M 5486,7034 L 5515,7019 5542,7008 5568,7002 5594,6999 5617,7000 5629,7002 5640,7005 5650,7008 5660,7013 5670,7018 5679,7024 5696,7038 5711,7056 5725,7076 5736,7099 5744,7125 5751,7153 5755,7183 5756,7216 5755,7250 5751,7286 5744,7324 5736,7362 5711,7440 5679,7516 5660,7553 5640,7588 5617,7622 5594,7654 5568,7682 5542,7708 5515,7731 5486,7750 5457,7764 5428,7775 5400,7782 5372,7785 5345,7784 5320,7779 5296,7772 5273,7761 5252,7747 5233,7730 5217,7710 5203,7687 5191,7661 5183,7634 5178,7603 5176,7571 5178,7536 5183,7500 5191,7462 5203,7424 5217,7385 5233,7346 5273,7269 5320,7196 5345,7162 5372,7130 5400,7101 5428,7075 5457,7053 5486,7034 Z"/>
     <path fill="none" stroke="rgb(255,255,255)" id="Drawing_10_0" stroke-width="40" stroke-linejoin="round" d="M 5486,7034 C 5331,7123 5176,7392 5176,7571 5176,7750 5331,7839 5486,7750 5641,7660 5756,7395 5756,7216 5756,7037 5641,6944 5486,7034 Z"/>
    </g>
    <g>
     <path fill="none" stroke="rgb(255,255,255)" id="Drawing_11_0" stroke-width="40" stroke-linejoin="round" d="M 5661,7024 L 5429,6890"/>
    </g>
    <g>
     <defs>
      <linearGradient id="Gradient_799" gradientUnits="userSpaceOnUse" x1="4479" y1="5726" x2="4479" y2="7069">
       <stop offset="0.1" stop-color="rgb(179,179,179)"/>
       <stop offset="1" stop-color="rgb(229,229,229)"/>
      </linearGradient>
     </defs>
     <path fill="url(#Gradient_799)" stroke="rgb(255,255,255)" id="Drawing_12_0" stroke-width="40" stroke-linejoin="round" d="M 4867,7069 L 5641,6621 4092,5726 3318,6174 4867,7069 Z"/>
    </g>
    <g>
     <path fill="none" stroke="rgb(0,0,0)" id="Drawing_13_0" stroke-width="40" stroke-linejoin="round" d="M 5640,6621 L 4091,5726 3317,6174 3317,7069 3936,7427 3317,7740 3317,8636 3859,8322 4169,8501 4324,8412 4324,7651 4866,7964 C 4866,7964 5124,7815 5253,7740 5563,7919 5950,7158 5640,7024 L 5640,6621 Z"/>
    </g>
   </g>
  </g>
 </g>
</svg>