<?xml version="1.0" encoding="UTF-8"?>

<svg version="1.2" baseProfile="tiny" width="49.05mm" height="38.9mm" viewBox="6314 8179 4905 3890" preserveAspectRatio="xMidYMid" fill-rule="evenodd" stroke-width="28.222" stroke-linejoin="round" xmlns="http://www.w3.org/2000/svg" xmlns:xlink="http://www.w3.org/1999/xlink" xml:space="preserve">
 <g visibility="visible" id="Slide_1">
  <g id="DrawingGroup_1">
   <g>
    <path fill="rgb(221,221,221)" stroke="none" d="M 8558,12049 C 8863,12049 11219,11087 11219,10830 11219,10573 11080,10445 10775,10445 10775,10638 8447,10638 8558,12049 Z"/>
    <path fill="none" stroke="rgb(221,221,221)" id="Drawing_1_0" stroke-linejoin="round" d="M 8558,12049 C 8863,12049 11219,11087 11219,10830 11219,10573 11080,10445 10775,10445 10775,10638 8447,10638 8558,12049 Z"/>
   </g>
   <g id="DrawingGroup_2">
    <g>
     <path fill="rgb(51,51,51)" stroke="none" d="M 10500,10924 L 9471,11523 8567,11523 8567,10830 10500,9649 10500,10924 Z"/>
     <path fill="rgb(52,52,52)" stroke="none" d="M 9471,11523 L 8567,12049 8567,11523 9471,11523 Z M 10500,9649 L 10774,9482 10774,10765 10500,10924 10500,9649 Z M 10487,10932 L 9493,11510 8567,11510 8567,10830 10487,9657 10487,10932 Z"/>
     <path fill="rgb(53,53,53)" stroke="none" d="M 9493,11510 L 8567,12049 8567,11510 9493,11510 Z M 10487,9657 L 10774,9482 10774,10765 10487,10932 10487,9657 Z M 10475,10939 L 9514,11498 8567,11498 8567,10830 10475,9665 10475,10939 Z"/>
     <path fill="rgb(54,54,54)" stroke="none" d="M 9514,11498 L 8567,12049 8567,11498 9514,11498 Z M 10475,9665 L 10774,9482 10774,10765 10475,10939 10475,9665 Z M 10462,10947 L 9536,11485 8567,11485 8567,10830 10462,9673 10462,10947 Z"/>
     <path fill="rgb(55,55,55)" stroke="none" d="M 9536,11485 L 8567,12049 8567,11485 9536,11485 Z M 10462,9673 L 10774,9482 10774,10765 10462,10947 10462,9673 Z M 10450,10953 L 9557,11473 8567,11473 8567,10830 10450,9680 10450,10953 Z"/>
     <path fill="rgb(56,56,56)" stroke="none" d="M 9557,11473 L 8567,12049 8567,11473 9557,11473 Z M 10450,9680 L 10774,9482 10774,10765 10450,10953 10450,9680 Z M 10437,10961 L 9579,11460 8567,11460 8567,10830 10437,9688 10437,10961 Z"/>
     <path fill="rgb(57,57,57)" stroke="none" d="M 9579,11460 L 8567,12049 8567,11460 9579,11460 Z M 10437,9688 L 10774,9482 10774,10765 10437,10961 10437,9688 Z M 10424,10969 L 9602,11447 8567,11447 8567,10830 10424,9696 10424,10969 Z"/>
     <path fill="rgb(58,58,58)" stroke="none" d="M 9602,11447 L 8567,12049 8567,11447 9602,11447 Z M 10424,9696 L 10774,9482 10774,10765 10424,10969 10424,9696 Z M 10412,10976 L 9622,11435 8567,11435 8567,10830 10412,9703 10412,10976 Z"/>
     <path fill="rgb(59,59,59)" stroke="none" d="M 9622,11435 L 8567,12049 8567,11435 9622,11435 Z M 10412,9703 L 10774,9482 10774,10765 10412,10976 10412,9703 Z M 10399,10983 L 9645,11422 8567,11422 8567,10830 10399,9711 10399,10983 Z"/>
     <path fill="rgb(60,60,60)" stroke="none" d="M 9645,11422 L 8567,12049 8567,11422 9645,11422 Z M 10399,9711 L 10774,9482 10774,10765 10399,10983 10399,9711 Z M 10387,10990 L 9665,11410 8567,11410 8567,10830 10387,9718 10387,10990 Z"/>
     <path fill="rgb(61,61,61)" stroke="none" d="M 9665,11410 L 8567,12049 8567,11410 9665,11410 Z M 10387,9718 L 10774,9482 10774,10765 10387,10990 10387,9718 Z M 10374,10998 L 9688,11397 8567,11397 8567,10830 10374,9726 10374,10998 Z"/>
     <path fill="rgb(62,62,62)" stroke="none" d="M 9688,11397 L 8567,12049 8567,11397 9688,11397 Z M 10374,9726 L 10774,9482 10774,10765 10374,10998 10374,9726 Z M 10361,11005 L 9710,11384 8567,11384 8567,10830 10361,9734 10361,11005 Z"/>
     <path fill="rgb(63,63,63)" stroke="none" d="M 9710,11384 L 8567,12049 8567,11384 9710,11384 Z M 10361,9734 L 10774,9482 10774,10765 10361,11005 10361,9734 Z M 10349,11012 L 9731,11372 8567,11372 8567,10830 10349,9742 10349,11012 Z"/>
     <path fill="rgb(64,64,64)" stroke="none" d="M 9731,11372 L 8567,12049 8567,11372 9731,11372 Z M 10349,9742 L 10774,9482 10774,10765 10349,11012 10349,9742 Z M 10336,11020 L 9753,11359 8567,11359 8567,10830 10336,9750 10336,11020 Z"/>
     <path fill="rgb(65,65,65)" stroke="none" d="M 9753,11359 L 8567,12049 8567,11359 9753,11359 Z M 10336,9750 L 10774,9482 10774,10765 10336,11020 10336,9750 Z M 10324,11027 L 9774,11347 8567,11347 8567,10830 10324,9757 10324,11027 Z"/>
     <path fill="rgb(66,66,66)" stroke="none" d="M 9774,11347 L 8567,12049 8567,11347 9774,11347 Z M 10324,9757 L 10774,9482 10774,10765 10324,11027 10324,9757 Z M 10311,11034 L 9796,11334 8567,11334 8567,10830 10311,9765 10311,11034 Z"/>
     <path fill="rgb(67,67,67)" stroke="none" d="M 9796,11334 L 8567,12049 8567,11334 9796,11334 Z M 10311,9765 L 10774,9482 10774,10765 10311,11034 10311,9765 Z M 10298,11042 L 9818,11321 8567,11321 8567,10830 10298,9773 10298,11042 Z"/>
     <path fill="rgb(68,68,68)" stroke="none" d="M 9818,11321 L 8567,12049 8567,11321 9818,11321 Z M 10298,9773 L 10774,9482 10774,10765 10298,11042 10298,9773 Z M 10286,11049 L 9839,11309 8567,11309 8567,10830 10286,9780 10286,11049 Z"/>
     <path fill="rgb(69,69,69)" stroke="none" d="M 9839,11309 L 8567,12049 8567,11309 9839,11309 Z M 10286,9780 L 10774,9482 10774,10765 10286,11049 10286,9780 Z M 10273,11056 L 9861,11296 8567,11296 8567,10830 10273,9788 10273,11056 Z"/>
     <path fill="rgb(70,70,70)" stroke="none" d="M 9861,11296 L 8567,12049 8567,11296 9861,11296 Z M 10273,9788 L 10774,9482 10774,10765 10273,11056 10273,9788 Z M 10261,11063 L 9882,11284 8567,11284 8567,10830 10261,9795 10261,11063 Z"/>
     <path fill="rgb(71,71,71)" stroke="none" d="M 9882,11284 L 8567,12049 8567,11284 9882,11284 Z M 10261,9795 L 10774,9482 10774,10765 10261,11063 10261,9795 Z M 10248,11071 L 9904,11271 8567,11271 8567,10830 10248,9803 10248,11071 Z"/>
     <path fill="rgb(72,72,72)" stroke="none" d="M 9904,11271 L 8567,12049 8567,11271 9904,11271 Z M 10248,9803 L 10774,9482 10774,10765 10248,11071 10248,9803 Z M 10235,11079 L 9927,11258 8567,11258 8567,10830 10235,9811 10235,11079 Z"/>
     <path fill="rgb(73,73,73)" stroke="none" d="M 9927,11258 L 8567,12049 8567,11258 9927,11258 Z M 10235,9811 L 10774,9482 10774,10765 10235,11079 10235,9811 Z M 10223,11086 L 9947,11246 8567,11246 8567,10830 10223,9819 10223,11086 Z"/>
     <path fill="rgb(74,74,74)" stroke="none" d="M 9947,11246 L 8567,12049 8567,11246 9947,11246 Z M 10223,9819 L 10774,9482 10774,10765 10223,11086 10223,9819 Z M 10210,11093 L 9970,11233 8567,11233 8567,10830 10210,9826 10210,11093 Z"/>
     <path fill="rgb(75,75,75)" stroke="none" d="M 9970,11233 L 8567,12049 8567,11233 9970,11233 Z M 10210,9826 L 10774,9482 10774,10765 10210,11093 10210,9826 Z M 10198,11100 L 9990,11221 8567,11221 8567,10830 10198,9834 10198,11100 Z"/>
     <path fill="rgb(76,76,76)" stroke="none" d="M 9990,11221 L 8567,12049 8567,11221 9990,11221 Z M 10198,9834 L 10774,9482 10774,10765 10198,11100 10198,9834 Z M 10185,11108 L 10013,11208 8567,11208 8567,10830 10185,9842 10185,11108 Z"/>
     <path fill="rgb(77,77,77)" stroke="none" d="M 10013,11208 L 8567,12049 8567,11208 10013,11208 Z M 10185,9842 L 10774,9482 10774,10765 10185,11108 10185,9842 Z M 10172,11115 L 10035,11195 8567,11195 8567,10830 10172,9850 10172,11115 Z"/>
     <path fill="rgb(78,78,78)" stroke="none" d="M 10035,11195 L 8567,12049 8567,11195 10035,11195 Z M 10172,9850 L 10774,9482 10774,10765 10172,11115 10172,9850 Z M 10160,11122 L 10056,11183 8567,11183 8567,10830 10160,9857 10160,11122 Z"/>
     <path fill="rgb(79,79,79)" stroke="none" d="M 10056,11183 L 8567,12049 8567,11183 10056,11183 Z M 10160,9857 L 10774,9482 10774,10765 10160,11122 10160,9857 Z M 10147,11130 L 10078,11170 8567,11170 8567,10830 10147,9865 10147,11130 Z"/>
     <path fill="rgb(80,80,80)" stroke="none" d="M 10078,11170 L 8567,12049 8567,11170 10078,11170 Z M 10147,9865 L 10774,9482 10774,10765 10147,11130 10147,9865 Z M 10135,11137 L 10098,11158 8567,11158 8567,10830 10135,9872 10135,11137 Z"/>
     <path fill="rgb(81,81,81)" stroke="none" d="M 10098,11158 L 8567,12049 8567,11158 10098,11158 Z M 10135,9872 L 10774,9482 10774,10765 10135,11137 10135,9872 Z M 10122,11144 L 10121,11145 8567,11145 8567,10830 10122,9880 10122,11144 Z"/>
     <path fill="rgb(82,82,82)" stroke="none" d="M 10121,11145 L 8567,12049 8567,11145 10121,11145 Z M 10122,9880 L 10774,9482 10774,10765 10122,11144 10122,9880 Z M 10109,11132 L 8567,11132 8567,10830 10109,9888 10109,11132 Z"/>
     <path fill="rgb(83,83,83)" stroke="none" d="M 10109,11132 L 10109,9888 10774,9482 10774,10765 8567,12049 8567,11132 10109,11132 Z M 10097,11120 L 8567,11120 8567,10830 10097,9896 10097,11120 Z"/>
     <path fill="rgb(84,84,84)" stroke="none" d="M 10097,11120 L 10097,9896 10774,9482 10774,10765 8567,12049 8567,11120 10097,11120 Z M 10084,11107 L 8567,11107 8567,10830 10084,9903 10084,11107 Z"/>
     <path fill="rgb(85,85,85)" stroke="none" d="M 10084,11107 L 10084,9903 10774,9482 10774,10765 8567,12049 8567,11107 10084,11107 Z M 10072,11095 L 8567,11095 8567,10830 10072,9911 10072,11095 Z"/>
     <path fill="rgb(86,86,86)" stroke="none" d="M 10072,11095 L 10072,9911 10774,9482 10774,10765 8567,12049 8567,11095 10072,11095 Z M 10059,11082 L 8567,11082 8567,10830 10059,9919 10059,11082 Z"/>
     <path fill="rgb(87,87,87)" stroke="none" d="M 10059,11082 L 10059,9919 10774,9482 10774,10765 8567,12049 8567,11082 10059,11082 Z M 10046,11069 L 8567,11069 8567,10830 10046,9927 10046,11069 Z"/>
     <path fill="rgb(88,88,88)" stroke="none" d="M 10046,11069 L 10046,9927 10774,9482 10774,10765 8567,12049 8567,11069 10046,11069 Z M 10034,11057 L 8567,11057 8567,10830 10034,9934 10034,11057 Z"/>
     <path fill="rgb(89,89,89)" stroke="none" d="M 10034,11057 L 10034,9934 10774,9482 10774,10765 8567,12049 8567,11057 10034,11057 Z M 10021,11044 L 8567,11044 8567,10830 10021,9942 10021,11044 Z"/>
     <path fill="rgb(90,90,90)" stroke="none" d="M 10021,11044 L 10021,9942 10774,9482 10774,10765 8567,12049 8567,11044 10021,11044 Z M 10009,11032 L 8567,11032 8567,10830 10009,9949 10009,11032 Z"/>
     <path fill="rgb(91,91,91)" stroke="none" d="M 10009,11032 L 10009,9949 10774,9482 10774,10765 8567,12049 8567,11032 10009,11032 Z M 9996,11019 L 8567,11019 8567,10830 9996,9957 9996,11019 Z"/>
     <path fill="rgb(92,92,92)" stroke="none" d="M 9996,11019 L 9996,9957 10774,9482 10774,10765 8567,12049 8567,11019 9996,11019 Z M 9983,11006 L 8567,11006 8567,10830 9983,9965 9983,11006 Z"/>
     <path fill="rgb(93,93,93)" stroke="none" d="M 9983,11006 L 9983,9965 10774,9482 10774,10765 8567,12049 8567,11006 9983,11006 Z M 9971,10994 L 8567,10994 8567,10830 9971,9972 9971,10994 Z"/>
     <path fill="rgb(94,94,94)" stroke="none" d="M 9971,10994 L 9971,9972 10774,9482 10774,10765 8567,12049 8567,10994 9971,10994 Z M 9958,10981 L 8567,10981 8567,10830 9958,9980 9958,10981 Z"/>
     <path fill="rgb(95,95,95)" stroke="none" d="M 9958,10981 L 9958,9980 10774,9482 10774,10765 8567,12049 8567,10981 9958,10981 Z M 9946,10969 L 8567,10969 8567,10830 9946,9988 9946,10969 Z"/>
     <path fill="rgb(96,96,96)" stroke="none" d="M 9946,10969 L 9946,9988 10774,9482 10774,10765 8567,12049 8567,10969 9946,10969 Z M 9933,10956 L 8567,10956 8567,10830 9933,9996 9933,10956 Z"/>
     <path fill="rgb(97,97,97)" stroke="none" d="M 9933,10956 L 9933,9996 10774,9482 10774,10765 8567,12049 8567,10956 9933,10956 Z M 9920,10943 L 8567,10943 8567,10830 9920,10004 9920,10943 Z"/>
     <path fill="rgb(98,98,98)" stroke="none" d="M 9920,10943 L 9920,10004 10774,9482 10774,10765 8567,12049 8567,10943 9920,10943 Z M 9908,10931 L 8567,10931 8567,10830 9908,10011 9908,10931 Z"/>
     <path fill="rgb(99,99,99)" stroke="none" d="M 9908,10931 L 9908,10011 10774,9482 10774,10765 8567,12049 8567,10931 9908,10931 Z M 9895,10918 L 8567,10918 8567,10830 9895,10019 9895,10918 Z"/>
     <path fill="rgb(100,100,100)" stroke="none" d="M 9895,10918 L 9895,10019 10774,9482 10774,10765 8567,12049 8567,10918 9895,10918 Z M 9883,10906 L 8573,10906 8573,10826 9883,10026 9883,10906 Z"/>
     <path fill="rgb(101,101,101)" stroke="none" d="M 8573,10906 L 9883,10906 9883,10026 10774,9482 10774,10765 8567,12049 8567,10830 8573,10826 8573,10906 Z M 9870,10893 L 8586,10893 8586,10818 9870,10034 9870,10893 Z"/>
     <path fill="rgb(102,102,102)" stroke="none" d="M 8586,10893 L 9870,10893 9870,10034 10774,9482 10774,10765 8567,12049 8567,10830 8586,10818 8586,10893 Z M 9857,10880 L 8599,10880 8599,10810 9857,10042 9857,10880 Z"/>
     <path fill="rgb(103,103,103)" stroke="none" d="M 8599,10880 L 9857,10880 9857,10042 10774,9482 10774,10765 8567,12049 8567,10830 8599,10810 8599,10880 Z M 9845,10868 L 8611,10868 8611,10803 9845,10049 9845,10868 Z"/>
     <path fill="rgb(104,104,104)" stroke="none" d="M 8611,10868 L 9845,10868 9845,10049 10774,9482 10774,10765 8567,12049 8567,10830 8611,10803 8611,10868 Z M 9832,10855 L 8624,10855 8624,10795 9832,10057 9832,10855 Z"/>
     <path fill="rgb(105,105,105)" stroke="none" d="M 8624,10855 L 9832,10855 9832,10057 10774,9482 10774,10765 8567,12049 8567,10830 8624,10795 8624,10855 Z M 9820,10843 L 8636,10843 8636,10788 9820,10065 9820,10843 Z"/>
     <path fill="rgb(106,106,106)" stroke="none" d="M 8636,10843 L 9820,10843 9820,10065 10774,9482 10774,10765 8567,12049 8567,10830 8636,10788 8636,10843 Z M 9807,10830 L 8649,10830 8649,10780 9807,10073 9807,10830 Z"/>
     <path fill="rgb(107,107,107)" stroke="none" d="M 8649,10830 L 9807,10830 9807,10073 10774,9482 10774,10765 8567,12049 8567,10830 8649,10780 8649,10830 Z M 9794,10817 L 8662,10817 8662,10772 9794,10081 9794,10817 Z"/>
     <path fill="rgb(108,108,108)" stroke="none" d="M 8662,10817 L 9794,10817 9794,10081 10774,9482 10774,10765 8567,12049 8567,10830 8662,10772 8662,10817 Z M 9782,10805 L 8674,10805 8674,10765 9782,10088 9782,10805 Z"/>
     <path fill="rgb(109,109,109)" stroke="none" d="M 8674,10805 L 9782,10805 9782,10088 10774,9482 10774,10765 8567,12049 8567,10830 8674,10765 8674,10805 Z M 9769,10792 L 8687,10792 8687,10757 9769,10096 9769,10792 Z"/>
     <path fill="rgb(110,110,110)" stroke="none" d="M 8687,10792 L 9769,10792 9769,10096 10774,9482 10774,10765 8567,12049 8567,10830 8687,10757 8687,10792 Z M 9757,10780 L 8699,10780 8699,10749 9757,10103 9757,10780 Z"/>
     <path fill="rgb(111,111,111)" stroke="none" d="M 8699,10780 L 9757,10780 9757,10103 10774,9482 10774,10765 8567,12049 8567,10830 8699,10749 8699,10780 Z M 9744,10767 L 8712,10767 8712,10741 9744,10111 9744,10767 Z"/>
     <path fill="rgb(112,112,112)" stroke="none" d="M 8712,10767 L 9744,10767 9744,10111 10774,9482 10774,10765 8567,12049 8567,10830 8712,10741 8712,10767 Z M 9731,10754 L 8725,10754 8725,10733 9731,10119 9731,10754 Z"/>
     <path fill="rgb(113,113,113)" stroke="none" d="M 8725,10754 L 9731,10754 9731,10119 10774,9482 10774,10765 8567,12049 8567,10830 8725,10733 8725,10754 Z M 9719,10742 L 8737,10742 8737,10726 9719,10126 9719,10742 Z"/>
     <path fill="rgb(114,114,114)" stroke="none" d="M 8737,10742 L 9719,10742 9719,10126 10774,9482 10774,10765 8567,12049 8567,10830 8737,10726 8737,10742 Z M 9706,10729 L 8750,10729 8750,10718 9706,10134 9706,10729 Z"/>
     <path fill="rgb(115,115,115)" stroke="none" d="M 8750,10729 L 9706,10729 9706,10134 10774,9482 10774,10765 8567,12049 8567,10830 8750,10718 8750,10729 Z M 9694,10717 L 8762,10717 8762,10711 9694,10142 9694,10717 Z"/>
     <path fill="rgb(116,116,116)" stroke="none" d="M 8762,10717 L 9694,10717 9694,10142 10774,9482 10774,10765 8567,12049 8567,10830 8762,10711 8762,10717 Z M 9681,10704 L 8775,10704 8775,10703 9681,10150 9681,10704 Z"/>
     <path fill="rgb(117,117,117)" stroke="none" d="M 8775,10704 L 9681,10704 9681,10150 10774,9482 10774,10765 8567,12049 8567,10830 8775,10703 8775,10704 Z M 9668,10691 L 8795,10691 9668,10158 9668,10691 Z"/>
     <path fill="rgb(118,118,118)" stroke="none" d="M 9668,10691 L 9668,10158 10774,9482 10774,10765 8567,12049 8567,10830 8795,10691 9668,10691 Z M 9656,10679 L 8814,10679 9656,10165 9656,10679 Z"/>
     <path fill="rgb(119,119,119)" stroke="none" d="M 9656,10679 L 9656,10165 10774,9482 10774,10765 8567,12049 8567,10830 8814,10679 9656,10679 Z M 9643,10666 L 8836,10666 9643,10173 9643,10666 Z"/>
     <path fill="rgb(120,120,120)" stroke="none" d="M 9643,10666 L 9643,10173 10774,9482 10774,10765 8567,12049 8567,10830 8836,10666 9643,10666 Z M 9631,10654 L 8855,10654 9631,10180 9631,10654 Z"/>
     <path fill="rgb(121,121,121)" stroke="none" d="M 9631,10654 L 9631,10180 10774,9482 10774,10765 8567,12049 8567,10830 8855,10654 9631,10654 Z M 9618,10641 L 8876,10641 9618,10188 9618,10641 Z"/>
     <path fill="rgb(122,122,122)" stroke="none" d="M 9618,10641 L 9618,10188 10774,9482 10774,10765 8567,12049 8567,10830 8876,10641 9618,10641 Z M 9605,10628 L 8898,10628 9605,10196 9605,10628 Z"/>
     <path fill="rgb(123,123,123)" stroke="none" d="M 9605,10628 L 9605,10196 10774,9482 10774,10765 8567,12049 8567,10830 8898,10628 9605,10628 Z M 9593,10616 L 8917,10616 9593,10203 9593,10616 Z"/>
     <path fill="rgb(124,124,124)" stroke="none" d="M 9593,10616 L 9593,10203 10774,9482 10774,10765 8567,12049 8567,10830 8917,10616 9593,10616 Z M 9580,10603 L 8939,10603 9580,10211 9580,10603 Z"/>
     <path fill="rgb(125,125,125)" stroke="none" d="M 9580,10603 L 9580,10211 10774,9482 10774,10765 8567,12049 8567,10830 8939,10603 9580,10603 Z M 9568,10591 L 8958,10591 9568,10219 9568,10591 Z"/>
     <path fill="rgb(126,126,126)" stroke="none" d="M 9568,10591 L 9568,10219 10774,9482 10774,10765 8567,12049 8567,10830 8958,10591 9568,10591 Z M 9555,10578 L 8980,10578 9555,10227 9555,10578 Z"/>
     <path fill="rgb(127,127,127)" stroke="none" d="M 9555,10578 L 9555,10227 10774,9482 10774,10765 8567,12049 8567,10830 8980,10578 9555,10578 Z M 9542,10565 L 9001,10565 9542,10234 9542,10565 Z"/>
     <path fill="rgb(128,128,128)" stroke="none" d="M 9542,10565 L 9542,10234 10774,9482 10774,10765 8567,12049 8567,10830 9001,10565 9542,10565 Z M 9530,10553 L 9021,10553 9530,10242 9530,10553 Z"/>
     <path fill="rgb(129,129,129)" stroke="none" d="M 9530,10553 L 9530,10242 10774,9482 10774,10765 8567,12049 8567,10830 9021,10553 9530,10553 Z M 9517,10540 L 9042,10540 9517,10250 9517,10540 Z"/>
     <path fill="rgb(130,130,130)" stroke="none" d="M 9517,10540 L 9517,10250 10774,9482 10774,10765 8567,12049 8567,10830 9042,10540 9517,10540 Z M 9505,10528 L 9061,10528 9505,10257 9505,10528 Z"/>
     <path fill="rgb(131,131,131)" stroke="none" d="M 9505,10528 L 9505,10257 10774,9482 10774,10765 8567,12049 8567,10830 9061,10528 9505,10528 Z M 9492,10515 L 9083,10515 9492,10265 9492,10515 Z"/>
     <path fill="rgb(132,132,132)" stroke="none" d="M 9492,10515 L 9492,10265 10774,9482 10774,10765 8567,12049 8567,10830 9083,10515 9492,10515 Z M 9479,10502 L 9104,10502 9479,10273 9479,10502 Z"/>
     <path fill="rgb(133,133,133)" stroke="none" d="M 9479,10502 L 9479,10273 10774,9482 10774,10765 8567,12049 8567,10830 9104,10502 9479,10502 Z M 9467,10490 L 9124,10490 9467,10280 9467,10490 Z"/>
     <path fill="rgb(134,134,134)" stroke="none" d="M 9467,10490 L 9467,10280 10774,9482 10774,10765 8567,12049 8567,10830 9124,10490 9467,10490 Z M 9454,10477 L 9145,10477 9454,10288 9454,10477 Z"/>
     <path fill="rgb(135,135,135)" stroke="none" d="M 9454,10477 L 9454,10288 10774,9482 10774,10765 8567,12049 8567,10830 9145,10477 9454,10477 Z M 9442,10465 L 9165,10465 9442,10296 9442,10465 Z"/>
     <path fill="rgb(136,136,136)" stroke="none" d="M 9442,10465 L 9442,10296 10774,9482 10774,10765 8567,12049 8567,10830 9165,10465 9442,10465 Z M 9429,10452 L 9186,10452 9429,10304 9429,10452 Z"/>
     <path fill="rgb(137,137,137)" stroke="none" d="M 9429,10452 L 9429,10304 10774,9482 10774,10765 8567,12049 8567,10830 9186,10452 9429,10452 Z M 9416,10439 L 9207,10439 9416,10311 9416,10439 Z"/>
     <path fill="rgb(138,138,138)" stroke="none" d="M 9416,10439 L 9416,10311 10774,9482 10774,10765 8567,12049 8567,10830 9207,10439 9416,10439 Z M 9404,10427 L 9227,10427 9404,10319 9404,10427 Z"/>
     <path fill="rgb(139,139,139)" stroke="none" d="M 9404,10427 L 9404,10319 10774,9482 10774,10765 8567,12049 8567,10830 9227,10427 9404,10427 Z M 9391,10414 L 9248,10414 9391,10327 9391,10414 Z"/>
     <path fill="rgb(140,140,140)" stroke="none" d="M 9391,10414 L 9391,10327 10774,9482 10774,10765 8567,12049 8567,10830 9248,10414 9391,10414 Z M 9379,10402 L 9268,10402 9379,10334 9379,10402 Z"/>
     <path fill="rgb(141,141,141)" stroke="none" d="M 9379,10402 L 9379,10334 10774,9482 10774,10765 8567,12049 8567,10830 9268,10402 9379,10402 Z M 9366,10389 L 9289,10389 9366,10342 9366,10389 Z"/>
     <path fill="rgb(142,142,142)" stroke="none" d="M 9366,10389 L 9366,10342 10774,9482 10774,10765 8567,12049 8567,10830 9289,10389 9366,10389 Z M 9353,10376 L 9310,10376 9353,10350 9353,10376 Z"/>
     <path fill="rgb(143,143,143)" stroke="none" d="M 9353,10376 L 9353,10350 10774,9482 10774,10765 8567,12049 8567,10830 9310,10376 9353,10376 Z M 9341,10364 L 9330,10364 9341,10357 9341,10364 Z"/>
     <path fill="rgb(144,144,144)" stroke="none" d="M 9341,10364 L 9341,10357 10774,9482 10774,10765 8567,12049 8567,10830 9330,10364 9341,10364 Z"/>
     <path fill="rgb(145,145,145)" stroke="none" d="M 8567,12049 L 8567,10830 10774,9482 10774,10765 8567,12049 Z"/>
     <path fill="rgb(146,146,146)" stroke="none" d="M 8567,12049 L 8567,10830 10774,9482 10774,10765 8567,12049 Z"/>
     <path fill="rgb(147,147,147)" stroke="none" d="M 8567,12049 L 8567,10830 10774,9482 10774,10765 8567,12049 Z"/>
     <path fill="rgb(148,148,148)" stroke="none" d="M 8567,12049 L 8567,10830 10774,9482 10774,10765 8567,12049 Z"/>
     <path fill="rgb(149,149,149)" stroke="none" d="M 8567,12049 L 8567,10830 10774,9482 10774,10765 8567,12049 Z"/>
     <path fill="rgb(150,150,150)" stroke="none" d="M 8567,12049 L 8567,10830 10774,9482 10774,10765 8567,12049 Z"/>
     <path fill="rgb(151,151,151)" stroke="none" d="M 8567,12049 L 8567,10830 10774,9482 10774,10765 8567,12049 Z"/>
     <path fill="rgb(153,153,153)" stroke="none" d="M 8567,12049 L 8567,10830 10774,9482 10774,10765 8567,12049 Z"/>
     <path fill="none" stroke="rgb(178,178,178)" id="Drawing_2_0" stroke-width="40" stroke-linejoin="round" d="M 8567,12049 L 8567,10830 10774,9482 10774,10765 8567,12049 Z"/>
    </g>
    <g>
     <defs>
      <linearGradient id="Gradient_768" gradientUnits="userSpaceOnUse" x1="6331" y1="10763" x2="8568" y2="10767">
       <stop offset="0.1" stop-color="rgb(51,51,51)"/>
       <stop offset="1" stop-color="rgb(153,153,153)"/>
      </linearGradient>
     </defs>
     <path fill="url(#Gradient_768)" stroke="rgb(178,178,178)" id="Drawing_3_0" stroke-width="40" stroke-linejoin="round" d="M 6347,10765 L 6334,9482 8567,10830 8567,12049 6347,10765 Z"/>
    </g>
    <g>
     <defs>
      <linearGradient id="Gradient_769" gradientUnits="userSpaceOnUse" x1="8554" y1="8199" x2="8554" y2="10830">
       <stop offset="0.1" stop-color="rgb(51,51,51)"/>
       <stop offset="1" stop-color="rgb(153,153,153)"/>
      </linearGradient>
     </defs>
     <path fill="url(#Gradient_769)" stroke="rgb(178,178,178)" id="Drawing_4_0" stroke-width="40" stroke-linejoin="round" d="M 8567,10830 L 6334,9482 8554,8199 10774,9547 8567,10830 Z"/>
    </g>
    <g>
     <path fill="rgb(178,178,178)" stroke="none" d="M 8554,9932 L 8332,9803 8554,9675 8776,9803 8554,9932 Z"/>
     <path fill="none" stroke="rgb(102,102,102)" id="Drawing_5_0" stroke-width="40" stroke-linejoin="round" d="M 8554,9932 L 8332,9803 8554,9675 8776,9803 8554,9932 Z"/>
    </g>
    <g>
     <path fill="rgb(178,178,178)" stroke="none" d="M 8221,9739 L 7999,9610 8221,9482 8443,9610 8221,9739 Z"/>
     <path fill="none" stroke="rgb(102,102,102)" id="Drawing_6_0" stroke-width="40" stroke-linejoin="round" d="M 8221,9739 L 7999,9610 8221,9482 8443,9610 8221,9739 Z"/>
    </g>
    <g>
     <path fill="rgb(178,178,178)" stroke="none" d="M 8554,9547 L 8332,9418 8554,9290 8776,9418 8554,9547 Z"/>
     <path fill="none" stroke="rgb(102,102,102)" id="Drawing_7_0" stroke-width="40" stroke-linejoin="round" d="M 8554,9547 L 8332,9418 8554,9290 8776,9418 8554,9547 Z"/>
    </g>
    <g>
     <path fill="rgb(178,178,178)" stroke="none" d="M 8887,9739 L 8665,9610 8887,9482 9109,9610 8887,9739 Z"/>
     <path fill="none" stroke="rgb(102,102,102)" id="Drawing_8_0" stroke-width="40" stroke-linejoin="round" d="M 8887,9739 L 8665,9610 8887,9482 9109,9610 8887,9739 Z"/>
    </g>
    <g>
     <path fill="none" stroke="rgb(127,127,127)" id="Drawing_9_0" stroke-width="40" stroke-linejoin="round" d="M 7555,11407 L 7777,11279"/>
    </g>
    <g>
     <path fill="none" stroke="rgb(102,102,102)" id="Drawing_10_0" stroke-width="40" stroke-linejoin="round" d="M 7111,9931 L 9220,8712"/>
    </g>
    <g>
     <path fill="none" stroke="rgb(102,102,102)" id="Drawing_11_0" stroke-width="40" stroke-linejoin="round" d="M 8776,11151 L 10552,10124"/>
    </g>
    <g>
     <path fill="none" stroke="rgb(102,102,102)" id="Drawing_12_0" stroke-width="40" stroke-linejoin="round" d="M 8776,11344 L 10552,10317"/>
    </g>
    <g>
     <path fill="none" stroke="rgb(102,102,102)" id="Drawing_13_0" stroke-width="40" stroke-linejoin="round" d="M 8776,11536 L 10552,10509"/>
    </g>
    <g>
     <path fill="none" stroke="rgb(102,102,102)" id="Drawing_14_0" stroke-width="40" stroke-linejoin="round" d="M 8776,11729 L 10552,10702"/>
    </g>
    <g>
     <path fill="none" stroke="rgb(102,102,102)" id="Drawing_15_0" stroke-width="40" stroke-linejoin="round" d="M 7999,10445 L 10108,9226"/>
    </g>
    <g>
     <path fill="none" stroke="rgb(102,102,102)" id="Drawing_16_0" stroke-width="40" stroke-linejoin="round" d="M 8776,10959 L 10552,9932"/>
    </g>
    <g>
     <path fill="none" stroke="rgb(127,127,127)" id="Drawing_17_0" stroke-width="40" stroke-linejoin="round" d="M 7888,10702 L 8443,11023"/>
    </g>
    <g>
     <path fill="none" stroke="rgb(127,127,127)" id="Drawing_18_0" stroke-width="40" stroke-linejoin="round" d="M 7999,10958 L 8443,11215"/>
    </g>
    <g>
     <path fill="none" stroke="rgb(127,127,127)" id="Drawing_19_0" stroke-width="40" stroke-linejoin="round" d="M 7999,11151 L 8443,11408"/>
    </g>
    <g>
     <path fill="none" stroke="rgb(127,127,127)" id="Drawing_20_0" stroke-width="40" stroke-linejoin="round" d="M 7888,11279 L 8443,11600"/>
    </g>
    <g>
     <path fill="none" stroke="rgb(127,127,127)" id="Drawing_21_0" stroke-width="40" stroke-linejoin="round" d="M 7777,11407 L 8443,11792"/>
    </g>
    <g>
     <path fill="none" stroke="rgb(102,102,102)" id="Drawing_22_0" stroke-width="40" stroke-linejoin="round" d="M 6445,9867 L 7111,10252"/>
    </g>
    <g>
     <path fill="none" stroke="rgb(102,102,102)" id="Drawing_23_0" stroke-width="40" stroke-linejoin="round" d="M 6445,10060 L 7111,10445"/>
    </g>
    <g>
     <path fill="none" stroke="rgb(102,102,102)" id="Drawing_24_0" stroke-width="40" stroke-linejoin="round" d="M 6445,10252 L 7111,10637"/>
    </g>
    <g>
     <path fill="none" stroke="rgb(102,102,102)" id="Drawing_25_0" stroke-width="40" stroke-linejoin="round" d="M 6445,10445 L 7111,10830"/>
    </g>
    <g>
     <path fill="none" stroke="rgb(102,102,102)" id="Drawing_26_0" stroke-width="40" stroke-linejoin="round" d="M 6445,10637 L 7111,11022"/>
    </g>
    <g>
     <path fill="rgb(51,51,51)" stroke="none" d="M 7819,11093 L 7241,11093 7206,11047 7139,10943 7082,10832 7058,10776 7038,10720 7022,10665 7010,10611 7003,10559 7000,10509 7003,10463 7010,10419 7022,10379 7038,10343 7058,10310 7082,10281 7109,10257 7139,10236 7171,10221 7206,10209 7243,10203 7281,10202 7321,10206 7361,10216 7402,10231 7444,10252 7486,10279 7527,10312 7567,10349 7607,10391 7645,10436 7682,10485 7749,10590 7806,10700 7819,10730 7819,11093 Z"/>
     <path fill="rgb(52,52,52)" stroke="none" d="M 7819,11093 L 7819,10730 7830,10756 7850,10812 7866,10867 7878,10921 7885,10973 7888,11022 7885,11069 7878,11112 7866,11152 7850,11189 7830,11221 7806,11250 7779,11275 7749,11295 7717,11311 7682,11322 7645,11328 7607,11329 7567,11325 7527,11315 7486,11300 7444,11279 7402,11252 7361,11220 7321,11183 7281,11141 7243,11096 7241,11093 7819,11093 Z M 7809,11083 L 7233,11083 7206,11047 7139,10943 7082,10832 7058,10776 7038,10720 7022,10665 7010,10611 7003,10559 7000,10509 7003,10463 7010,10419 7022,10379 7038,10343 7058,10310 7082,10281 7109,10257 7139,10236 7171,10221 7206,10209 7243,10203 7281,10202 7321,10206 7361,10216 7402,10231 7444,10252 7486,10279 7527,10312 7567,10349 7607,10391 7645,10436 7682,10485 7749,10590 7806,10700 7809,10707 7809,11083 Z"/>
     <path fill="rgb(54,54,54)" stroke="none" d="M 7809,11083 L 7809,10707 7830,10756 7850,10812 7866,10867 7878,10921 7885,10973 7888,11022 7885,11069 7878,11112 7866,11152 7850,11189 7830,11221 7806,11250 7779,11275 7749,11295 7717,11311 7682,11322 7645,11328 7607,11329 7567,11325 7527,11315 7486,11300 7444,11279 7402,11252 7361,11220 7321,11183 7281,11141 7243,11096 7233,11083 7809,11083 Z M 7799,11073 L 7226,11073 7206,11047 7139,10943 7082,10832 7058,10776 7038,10720 7022,10665 7010,10611 7003,10559 7000,10509 7003,10463 7010,10419 7022,10379 7038,10343 7058,10310 7082,10281 7109,10257 7139,10236 7171,10221 7206,10209 7243,10203 7281,10202 7321,10206 7361,10216 7402,10231 7444,10252 7486,10279 7527,10312 7567,10349 7607,10391 7645,10436 7682,10485 7749,10590 7799,10686 7799,11073 Z"/>
     <path fill="rgb(56,56,56)" stroke="none" d="M 7799,11073 L 7799,10686 7806,10700 7830,10756 7850,10812 7866,10867 7878,10921 7885,10973 7888,11022 7885,11069 7878,11112 7866,11152 7850,11189 7830,11221 7806,11250 7779,11275 7749,11295 7717,11311 7682,11322 7645,11328 7607,11329 7567,11325 7527,11315 7486,11300 7444,11279 7402,11252 7361,11220 7321,11183 7281,11141 7243,11096 7226,11073 7799,11073 Z M 7789,11063 L 7218,11063 7206,11047 7139,10943 7082,10832 7058,10776 7038,10720 7022,10665 7010,10611 7003,10559 7000,10509 7003,10463 7010,10419 7022,10379 7038,10343 7058,10310 7082,10281 7109,10257 7139,10236 7171,10221 7206,10209 7243,10203 7281,10202 7321,10206 7361,10216 7402,10231 7444,10252 7486,10279 7527,10312 7567,10349 7607,10391 7645,10436 7682,10485 7749,10590 7789,10667 7789,11063 Z"/>
     <path fill="rgb(58,58,58)" stroke="none" d="M 7789,11063 L 7789,10667 7806,10700 7830,10756 7850,10812 7866,10867 7878,10921 7885,10973 7888,11022 7885,11069 7878,11112 7866,11152 7850,11189 7830,11221 7806,11250 7779,11275 7749,11295 7717,11311 7682,11322 7645,11328 7607,11329 7567,11325 7527,11315 7486,11300 7444,11279 7402,11252 7361,11220 7321,11183 7281,11141 7243,11096 7218,11063 7789,11063 Z M 7779,11053 L 7211,11053 7206,11047 7139,10943 7082,10832 7058,10776 7038,10720 7022,10665 7010,10611 7003,10559 7000,10509 7003,10463 7010,10419 7022,10379 7038,10343 7058,10310 7082,10281 7109,10257 7139,10236 7171,10221 7206,10209 7243,10203 7281,10202 7321,10206 7361,10216 7402,10231 7444,10252 7486,10279 7527,10312 7567,10349 7607,10391 7645,10436 7682,10485 7749,10590 7779,10648 7779,11053 Z"/>
     <path fill="rgb(60,60,60)" stroke="none" d="M 7779,11053 L 7779,10648 7806,10700 7830,10756 7850,10812 7866,10867 7878,10921 7885,10973 7888,11022 7885,11069 7878,11112 7866,11152 7850,11189 7830,11221 7806,11250 7779,11275 7749,11295 7717,11311 7682,11322 7645,11328 7607,11329 7567,11325 7527,11315 7486,11300 7444,11279 7402,11252 7361,11220 7321,11183 7281,11141 7243,11096 7211,11053 7779,11053 Z M 7769,11043 L 7203,11043 7139,10943 7082,10832 7058,10776 7038,10720 7022,10665 7010,10611 7003,10559 7000,10509 7003,10463 7010,10419 7022,10379 7038,10343 7058,10310 7082,10281 7109,10257 7139,10236 7171,10221 7206,10209 7243,10203 7281,10202 7321,10206 7361,10216 7402,10231 7444,10252 7486,10279 7527,10312 7567,10349 7607,10391 7645,10436 7682,10485 7749,10590 7769,10629 7769,11043 Z"/>
     <path fill="rgb(61,61,61)" stroke="none" d="M 7769,11043 L 7769,10629 7806,10700 7830,10756 7850,10812 7866,10867 7878,10921 7885,10973 7888,11022 7885,11069 7878,11112 7866,11152 7850,11189 7830,11221 7806,11250 7779,11275 7749,11295 7717,11311 7682,11322 7645,11328 7607,11329 7567,11325 7527,11315 7486,11300 7444,11279 7402,11252 7361,11220 7321,11183 7281,11141 7243,11096 7206,11047 7203,11043 7769,11043 Z M 7759,11033 L 7197,11033 7139,10943 7082,10832 7058,10776 7038,10720 7022,10665 7010,10611 7003,10559 7000,10509 7003,10463 7010,10419 7022,10379 7038,10343 7058,10310 7082,10281 7109,10257 7139,10236 7171,10221 7206,10209 7243,10203 7281,10202 7321,10206 7361,10216 7402,10231 7444,10252 7486,10279 7527,10312 7567,10349 7607,10391 7645,10436 7682,10485 7749,10590 7759,10609 7759,11033 Z"/>
     <path fill="rgb(63,63,63)" stroke="none" d="M 7759,11033 L 7759,10609 7806,10700 7830,10756 7850,10812 7866,10867 7878,10921 7885,10973 7888,11022 7885,11069 7878,11112 7866,11152 7850,11189 7830,11221 7806,11250 7779,11275 7749,11295 7717,11311 7682,11322 7645,11328 7607,11329 7567,11325 7527,11315 7486,11300 7444,11279 7402,11252 7361,11220 7321,11183 7281,11141 7243,11096 7206,11047 7197,11033 7759,11033 Z M 7749,11023 L 7191,11023 7139,10943 7082,10832 7058,10776 7038,10720 7022,10665 7010,10611 7003,10559 7000,10509 7003,10463 7010,10419 7022,10379 7038,10343 7058,10310 7082,10281 7109,10257 7139,10236 7171,10221 7206,10209 7243,10203 7281,10202 7321,10206 7361,10216 7402,10231 7444,10252 7486,10279 7527,10312 7567,10349 7607,10391 7645,10436 7682,10485 7749,10590 7749,11023 Z"/>
     <path fill="rgb(65,65,65)" stroke="none" d="M 7749,11023 L 7749,10590 7806,10700 7830,10756 7850,10812 7866,10867 7878,10921 7885,10973 7888,11022 7885,11069 7878,11112 7866,11152 7850,11189 7830,11221 7806,11250 7779,11275 7749,11295 7717,11311 7682,11322 7645,11328 7607,11329 7567,11325 7527,11315 7486,11300 7444,11279 7402,11252 7361,11220 7321,11183 7281,11141 7243,11096 7206,11047 7191,11023 7749,11023 Z M 7739,11013 L 7184,11013 7139,10943 7082,10832 7058,10776 7038,10720 7022,10665 7010,10611 7003,10559 7000,10509 7003,10463 7010,10419 7022,10379 7038,10343 7058,10310 7082,10281 7109,10257 7139,10236 7171,10221 7206,10209 7243,10203 7281,10202 7321,10206 7361,10216 7402,10231 7444,10252 7486,10279 7527,10312 7567,10349 7607,10391 7645,10436 7682,10485 7739,10574 7739,11013 Z"/>
     <path fill="rgb(67,67,67)" stroke="none" d="M 7739,11013 L 7739,10574 7749,10590 7806,10700 7830,10756 7850,10812 7866,10867 7878,10921 7885,10973 7888,11022 7885,11069 7878,11112 7866,11152 7850,11189 7830,11221 7806,11250 7779,11275 7749,11295 7717,11311 7682,11322 7645,11328 7607,11329 7567,11325 7527,11315 7486,11300 7444,11279 7402,11252 7361,11220 7321,11183 7281,11141 7243,11096 7206,11047 7184,11013 7739,11013 Z M 7729,11003 L 7178,11003 7139,10943 7082,10832 7058,10776 7038,10720 7022,10665 7010,10611 7003,10559 7000,10509 7003,10463 7010,10419 7022,10379 7038,10343 7058,10310 7082,10281 7109,10257 7139,10236 7171,10221 7206,10209 7243,10203 7281,10202 7321,10206 7361,10216 7402,10231 7444,10252 7486,10279 7527,10312 7567,10349 7607,10391 7645,10436 7682,10485 7729,10559 7729,11003 Z"/>
     <path fill="rgb(69,69,69)" stroke="none" d="M 7729,11003 L 7729,10559 7749,10590 7806,10700 7830,10756 7850,10812 7866,10867 7878,10921 7885,10973 7888,11022 7885,11069 7878,11112 7866,11152 7850,11189 7830,11221 7806,11250 7779,11275 7749,11295 7717,11311 7682,11322 7645,11328 7607,11329 7567,11325 7527,11315 7486,11300 7444,11279 7402,11252 7361,11220 7321,11183 7281,11141 7243,11096 7206,11047 7178,11003 7729,11003 Z M 7719,10993 L 7171,10993 7139,10943 7082,10832 7058,10776 7038,10720 7022,10665 7010,10611 7003,10559 7000,10509 7003,10463 7010,10419 7022,10379 7038,10343 7058,10310 7082,10281 7109,10257 7139,10236 7171,10221 7206,10209 7243,10203 7281,10202 7321,10206 7361,10216 7402,10231 7444,10252 7486,10279 7527,10312 7567,10349 7607,10391 7645,10436 7682,10485 7719,10543 7719,10993 Z"/>
     <path fill="rgb(71,71,71)" stroke="none" d="M 7719,10993 L 7719,10543 7749,10590 7806,10700 7830,10756 7850,10812 7866,10867 7878,10921 7885,10973 7888,11022 7885,11069 7878,11112 7866,11152 7850,11189 7830,11221 7806,11250 7779,11275 7749,11295 7717,11311 7682,11322 7645,11328 7607,11329 7567,11325 7527,11315 7486,11300 7444,11279 7402,11252 7361,11220 7321,11183 7281,11141 7243,11096 7206,11047 7171,10993 7719,10993 Z M 7708,10982 L 7164,10982 7139,10943 7082,10832 7058,10776 7038,10720 7022,10665 7010,10611 7003,10559 7000,10509 7003,10463 7010,10419 7022,10379 7038,10343 7058,10310 7082,10281 7109,10257 7139,10236 7171,10221 7206,10209 7243,10203 7281,10202 7321,10206 7361,10216 7402,10231 7444,10252 7486,10279 7527,10312 7567,10349 7607,10391 7645,10436 7682,10485 7708,10526 7708,10982 Z"/>
     <path fill="rgb(72,72,72)" stroke="none" d="M 7708,10982 L 7708,10526 7749,10590 7806,10700 7830,10756 7850,10812 7866,10867 7878,10921 7885,10973 7888,11022 7885,11069 7878,11112 7866,11152 7850,11189 7830,11221 7806,11250 7779,11275 7749,11295 7717,11311 7682,11322 7645,11328 7607,11329 7567,11325 7527,11315 7486,11300 7444,11279 7402,11252 7361,11220 7321,11183 7281,11141 7243,11096 7206,11047 7164,10982 7708,10982 Z M 7698,10972 L 7158,10972 7139,10943 7082,10832 7058,10776 7038,10720 7022,10665 7010,10611 7003,10559 7000,10509 7003,10463 7010,10419 7022,10379 7038,10343 7058,10310 7082,10281 7109,10257 7139,10236 7171,10221 7206,10209 7243,10203 7281,10202 7321,10206 7361,10216 7402,10231 7444,10252 7486,10279 7527,10312 7567,10349 7607,10391 7645,10436 7682,10485 7698,10510 7698,10972 Z"/>
     <path fill="rgb(74,74,74)" stroke="none" d="M 7698,10972 L 7698,10510 7749,10590 7806,10700 7830,10756 7850,10812 7866,10867 7878,10921 7885,10973 7888,11022 7885,11069 7878,11112 7866,11152 7850,11189 7830,11221 7806,11250 7779,11275 7749,11295 7717,11311 7682,11322 7645,11328 7607,11329 7567,11325 7527,11315 7486,11300 7444,11279 7402,11252 7361,11220 7321,11183 7281,11141 7243,11096 7206,11047 7158,10972 7698,10972 Z M 7688,10962 L 7151,10962 7139,10943 7082,10832 7058,10776 7038,10720 7022,10665 7010,10611 7003,10559 7000,10509 7003,10463 7010,10419 7022,10379 7038,10343 7058,10310 7082,10281 7109,10257 7139,10236 7171,10221 7206,10209 7243,10203 7281,10202 7321,10206 7361,10216 7402,10231 7444,10252 7486,10279 7527,10312 7567,10349 7607,10391 7645,10436 7682,10485 7688,10494 7688,10962 Z"/>
     <path fill="rgb(76,76,76)" stroke="none" d="M 7688,10962 L 7688,10494 7749,10590 7806,10700 7830,10756 7850,10812 7866,10867 7878,10921 7885,10973 7888,11022 7885,11069 7878,11112 7866,11152 7850,11189 7830,11221 7806,11250 7779,11275 7749,11295 7717,11311 7682,11322 7645,11328 7607,11329 7567,11325 7527,11315 7486,11300 7444,11279 7402,11252 7361,11220 7321,11183 7281,11141 7243,11096 7206,11047 7151,10962 7688,10962 Z M 7678,10952 L 7145,10952 7139,10943 7082,10832 7058,10776 7038,10720 7022,10665 7010,10611 7003,10559 7000,10509 7003,10463 7010,10419 7022,10379 7038,10343 7058,10310 7082,10281 7109,10257 7139,10236 7171,10221 7206,10209 7243,10203 7281,10202 7321,10206 7361,10216 7402,10231 7444,10252 7486,10279 7527,10312 7567,10349 7607,10391 7645,10436 7678,10480 7678,10952 Z"/>
     <path fill="rgb(78,78,78)" stroke="none" d="M 7678,10952 L 7678,10480 7682,10485 7749,10590 7806,10700 7830,10756 7850,10812 7866,10867 7878,10921 7885,10973 7888,11022 7885,11069 7878,11112 7866,11152 7850,11189 7830,11221 7806,11250 7779,11275 7749,11295 7717,11311 7682,11322 7645,11328 7607,11329 7567,11325 7527,11315 7486,11300 7444,11279 7402,11252 7361,11220 7321,11183 7281,11141 7243,11096 7206,11047 7145,10952 7678,10952 Z M 7668,10942 L 7138,10942 7082,10832 7058,10776 7038,10720 7022,10665 7010,10611 7003,10559 7000,10509 7003,10463 7010,10419 7022,10379 7038,10343 7058,10310 7082,10281 7109,10257 7139,10236 7171,10221 7206,10209 7243,10203 7281,10202 7321,10206 7361,10216 7402,10231 7444,10252 7486,10279 7527,10312 7567,10349 7607,10391 7645,10436 7668,10466 7668,10942 Z"/>
     <path fill="rgb(80,80,80)" stroke="none" d="M 7668,10942 L 7668,10466 7682,10485 7749,10590 7806,10700 7830,10756 7850,10812 7866,10867 7878,10921 7885,10973 7888,11022 7885,11069 7878,11112 7866,11152 7850,11189 7830,11221 7806,11250 7779,11275 7749,11295 7717,11311 7682,11322 7645,11328 7607,11329 7567,11325 7527,11315 7486,11300 7444,11279 7402,11252 7361,11220 7321,11183 7281,11141 7243,11096 7206,11047 7139,10943 7138,10942 7668,10942 Z M 7658,10932 L 7133,10932 7082,10832 7058,10776 7038,10720 7022,10665 7010,10611 7003,10559 7000,10509 7003,10463 7010,10419 7022,10379 7038,10343 7058,10310 7082,10281 7109,10257 7139,10236 7171,10221 7206,10209 7243,10203 7281,10202 7321,10206 7361,10216 7402,10231 7444,10252 7486,10279 7527,10312 7567,10349 7607,10391 7645,10436 7658,10453 7658,10932 Z"/>
     <path fill="rgb(81,81,81)" stroke="none" d="M 7658,10932 L 7658,10453 7682,10485 7749,10590 7806,10700 7830,10756 7850,10812 7866,10867 7878,10921 7885,10973 7888,11022 7885,11069 7878,11112 7866,11152 7850,11189 7830,11221 7806,11250 7779,11275 7749,11295 7717,11311 7682,11322 7645,11328 7607,11329 7567,11325 7527,11315 7486,11300 7444,11279 7402,11252 7361,11220 7321,11183 7281,11141 7243,11096 7206,11047 7139,10943 7133,10932 7658,10932 Z M 7648,10922 L 7128,10922 7082,10832 7058,10776 7038,10720 7022,10665 7010,10611 7003,10559 7000,10509 7003,10463 7010,10419 7022,10379 7038,10343 7058,10310 7082,10281 7109,10257 7139,10236 7171,10221 7206,10209 7243,10203 7281,10202 7321,10206 7361,10216 7402,10231 7444,10252 7486,10279 7527,10312 7567,10349 7607,10391 7645,10436 7648,10440 7648,10922 Z"/>
     <path fill="rgb(83,83,83)" stroke="none" d="M 7648,10922 L 7648,10440 7682,10485 7749,10590 7806,10700 7830,10756 7850,10812 7866,10867 7878,10921 7885,10973 7888,11022 7885,11069 7878,11112 7866,11152 7850,11189 7830,11221 7806,11250 7779,11275 7749,11295 7717,11311 7682,11322 7645,11328 7607,11329 7567,11325 7527,11315 7486,11300 7444,11279 7402,11252 7361,11220 7321,11183 7281,11141 7243,11096 7206,11047 7139,10943 7128,10922 7648,10922 Z M 7638,10912 L 7123,10912 7082,10832 7058,10776 7038,10720 7022,10665 7010,10611 7003,10559 7000,10509 7003,10463 7010,10419 7022,10379 7038,10343 7058,10310 7082,10281 7109,10257 7139,10236 7171,10221 7206,10209 7243,10203 7281,10202 7321,10206 7361,10216 7402,10231 7444,10252 7486,10279 7527,10312 7567,10349 7607,10391 7638,10428 7638,10912 Z"/>
     <path fill="rgb(85,85,85)" stroke="none" d="M 7638,10912 L 7638,10428 7645,10436 7682,10485 7749,10590 7806,10700 7830,10756 7850,10812 7866,10867 7878,10921 7885,10973 7888,11022 7885,11069 7878,11112 7866,11152 7850,11189 7830,11221 7806,11250 7779,11275 7749,11295 7717,11311 7682,11322 7645,11328 7607,11329 7567,11325 7527,11315 7486,11300 7444,11279 7402,11252 7361,11220 7321,11183 7281,11141 7243,11096 7206,11047 7139,10943 7123,10912 7638,10912 Z M 7628,10902 L 7118,10902 7082,10832 7058,10776 7038,10720 7022,10665 7010,10611 7003,10559 7000,10509 7003,10463 7010,10419 7022,10379 7038,10343 7058,10310 7082,10281 7109,10257 7139,10236 7171,10221 7206,10209 7243,10203 7281,10202 7321,10206 7361,10216 7402,10231 7444,10252 7486,10279 7527,10312 7567,10349 7607,10391 7628,10416 7628,10902 Z"/>
     <path fill="rgb(87,87,87)" stroke="none" d="M 7628,10902 L 7628,10416 7645,10436 7682,10485 7749,10590 7806,10700 7830,10756 7850,10812 7866,10867 7878,10921 7885,10973 7888,11022 7885,11069 7878,11112 7866,11152 7850,11189 7830,11221 7806,11250 7779,11275 7749,11295 7717,11311 7682,11322 7645,11328 7607,11329 7567,11325 7527,11315 7486,11300 7444,11279 7402,11252 7361,11220 7321,11183 7281,11141 7243,11096 7206,11047 7139,10943 7118,10902 7628,10902 Z M 7618,10892 L 7113,10892 7082,10832 7058,10776 7038,10720 7022,10665 7010,10611 7003,10559 7000,10509 7003,10463 7010,10419 7022,10379 7038,10343 7058,10310 7082,10281 7109,10257 7139,10236 7171,10221 7206,10209 7243,10203 7281,10202 7321,10206 7361,10216 7402,10231 7444,10252 7486,10279 7527,10312 7567,10349 7607,10391 7618,10404 7618,10892 Z"/>
     <path fill="rgb(89,89,89)" stroke="none" d="M 7618,10892 L 7618,10404 7645,10436 7682,10485 7749,10590 7806,10700 7830,10756 7850,10812 7866,10867 7878,10921 7885,10973 7888,11022 7885,11069 7878,11112 7866,11152 7850,11189 7830,11221 7806,11250 7779,11275 7749,11295 7717,11311 7682,11322 7645,11328 7607,11329 7567,11325 7527,11315 7486,11300 7444,11279 7402,11252 7361,11220 7321,11183 7281,11141 7243,11096 7206,11047 7139,10943 7113,10892 7618,10892 Z M 7608,10882 L 7108,10882 7082,10832 7058,10776 7038,10720 7022,10665 7010,10611 7003,10559 7000,10509 7003,10463 7010,10419 7022,10379 7038,10343 7058,10310 7082,10281 7109,10257 7139,10236 7171,10221 7206,10209 7243,10203 7281,10202 7321,10206 7361,10216 7402,10231 7444,10252 7486,10279 7527,10312 7567,10349 7607,10391 7608,10392 7608,10882 Z"/>
     <path fill="rgb(91,91,91)" stroke="none" d="M 7608,10882 L 7608,10392 7645,10436 7682,10485 7749,10590 7806,10700 7830,10756 7850,10812 7866,10867 7878,10921 7885,10973 7888,11022 7885,11069 7878,11112 7866,11152 7850,11189 7830,11221 7806,11250 7779,11275 7749,11295 7717,11311 7682,11322 7645,11328 7607,11329 7567,11325 7527,11315 7486,11300 7444,11279 7402,11252 7361,11220 7321,11183 7281,11141 7243,11096 7206,11047 7139,10943 7108,10882 7608,10882 Z M 7325,10207 L 7361,10216 7402,10231 7444,10252 7486,10279 7527,10312 7567,10349 7597,10381 7597,10871 7102,10871 7082,10832 7058,10776 7038,10720 7022,10665 7010,10611 7003,10559 7000,10509 7003,10463 7010,10419 7022,10379 7038,10343 7058,10310 7082,10281 7109,10257 7139,10236 7171,10221 7206,10209 7218,10207 7325,10207 Z"/>
     <path fill="rgb(92,92,92)" stroke="none" d="M 7597,10871 L 7597,10381 7607,10391 7645,10436 7682,10485 7749,10590 7806,10700 7830,10756 7850,10812 7866,10867 7878,10921 7885,10973 7888,11022 7885,11069 7878,11112 7866,11152 7850,11189 7830,11221 7806,11250 7779,11275 7749,11295 7717,11311 7682,11322 7645,11328 7607,11329 7567,11325 7527,11315 7486,11300 7444,11279 7402,11252 7361,11220 7321,11183 7281,11141 7243,11096 7206,11047 7139,10943 7102,10871 7597,10871 Z M 7218,10207 L 7243,10203 7281,10202 7321,10206 7325,10207 7218,10207 Z M 7364,10217 L 7402,10231 7444,10252 7486,10279 7527,10312 7567,10349 7587,10370 7587,10861 7097,10861 7082,10832 7058,10776 7038,10720 7022,10665 7010,10611 7003,10559 7000,10509 7003,10463 7010,10419 7022,10379 7038,10343 7058,10310 7082,10281 7109,10257 7139,10236 7171,10221 7183,10217 7364,10217 Z"/>
     <path fill="rgb(94,94,94)" stroke="none" d="M 7587,10861 L 7587,10370 7607,10391 7645,10436 7682,10485 7749,10590 7806,10700 7830,10756 7850,10812 7866,10867 7878,10921 7885,10973 7888,11022 7885,11069 7878,11112 7866,11152 7850,11189 7830,11221 7806,11250 7779,11275 7749,11295 7717,11311 7682,11322 7645,11328 7607,11329 7567,11325 7527,11315 7486,11300 7444,11279 7402,11252 7361,11220 7321,11183 7281,11141 7243,11096 7206,11047 7139,10943 7097,10861 7587,10861 Z M 7183,10217 L 7206,10209 7243,10203 7281,10202 7321,10206 7361,10216 7364,10217 7183,10217 Z M 7391,10227 L 7402,10231 7444,10252 7486,10279 7527,10312 7567,10349 7577,10360 7577,10851 7092,10851 7082,10832 7058,10776 7038,10720 7022,10665 7010,10611 7003,10559 7000,10509 7003,10463 7010,10419 7022,10379 7038,10343 7058,10310 7082,10281 7109,10257 7139,10236 7158,10227 7391,10227 Z"/>
     <path fill="rgb(96,96,96)" stroke="none" d="M 7577,10851 L 7577,10360 7607,10391 7645,10436 7682,10485 7749,10590 7806,10700 7830,10756 7850,10812 7866,10867 7878,10921 7885,10973 7888,11022 7885,11069 7878,11112 7866,11152 7850,11189 7830,11221 7806,11250 7779,11275 7749,11295 7717,11311 7682,11322 7645,11328 7607,11329 7567,11325 7527,11315 7486,11300 7444,11279 7402,11252 7361,11220 7321,11183 7281,11141 7243,11096 7206,11047 7139,10943 7092,10851 7577,10851 Z M 7158,10227 L 7171,10221 7206,10209 7243,10203 7281,10202 7321,10206 7361,10216 7391,10227 7158,10227 Z M 7414,10237 L 7444,10252 7486,10279 7527,10312 7567,10349 7567,10841 7087,10841 7082,10832 7058,10776 7038,10720 7022,10665 7010,10611 7003,10559 7000,10509 7003,10463 7010,10419 7022,10379 7038,10343 7058,10310 7082,10281 7109,10257 7138,10237 7414,10237 Z"/>
     <path fill="rgb(98,98,98)" stroke="none" d="M 7567,10841 L 7567,10349 7607,10391 7645,10436 7682,10485 7749,10590 7806,10700 7830,10756 7850,10812 7866,10867 7878,10921 7885,10973 7888,11022 7885,11069 7878,11112 7866,11152 7850,11189 7830,11221 7806,11250 7779,11275 7749,11295 7717,11311 7682,11322 7645,11328 7607,11329 7567,11325 7527,11315 7486,11300 7444,11279 7402,11252 7361,11220 7321,11183 7281,11141 7243,11096 7206,11047 7139,10943 7087,10841 7567,10841 Z M 7138,10237 L 7139,10236 7171,10221 7206,10209 7243,10203 7281,10202 7321,10206 7361,10216 7402,10231 7414,10237 7138,10237 Z M 7434,10247 L 7444,10252 7486,10279 7527,10312 7557,10340 7557,10831 7082,10831 7058,10776 7038,10720 7022,10665 7010,10611 7003,10559 7000,10509 7003,10463 7010,10419 7022,10379 7038,10343 7058,10310 7082,10281 7109,10257 7123,10247 7434,10247 Z"/>
     <path fill="rgb(100,100,100)" stroke="none" d="M 7557,10831 L 7557,10340 7567,10349 7607,10391 7645,10436 7682,10485 7749,10590 7806,10700 7830,10756 7850,10812 7866,10867 7878,10921 7885,10973 7888,11022 7885,11069 7878,11112 7866,11152 7850,11189 7830,11221 7806,11250 7779,11275 7749,11295 7717,11311 7682,11322 7645,11328 7607,11329 7567,11325 7527,11315 7486,11300 7444,11279 7402,11252 7361,11220 7321,11183 7281,11141 7243,11096 7206,11047 7139,10943 7082,10832 7082,10831 7557,10831 Z M 7123,10247 L 7139,10236 7171,10221 7206,10209 7243,10203 7281,10202 7321,10206 7361,10216 7402,10231 7434,10247 7123,10247 Z M 7452,10257 L 7486,10279 7527,10312 7547,10331 7547,10821 7077,10821 7058,10776 7038,10720 7022,10665 7010,10611 7003,10559 7000,10509 7003,10463 7010,10419 7022,10379 7038,10343 7058,10310 7082,10281 7109,10257 7452,10257 Z"/>
     <path fill="rgb(102,102,102)" stroke="none" d="M 7547,10821 L 7547,10331 7567,10349 7607,10391 7645,10436 7682,10485 7749,10590 7806,10700 7830,10756 7850,10812 7866,10867 7878,10921 7885,10973 7888,11022 7885,11069 7878,11112 7866,11152 7850,11189 7830,11221 7806,11250 7779,11275 7749,11295 7717,11311 7682,11322 7645,11328 7607,11329 7567,11325 7527,11315 7486,11300 7444,11279 7402,11252 7361,11220 7321,11183 7281,11141 7243,11096 7206,11047 7139,10943 7082,10832 7077,10821 7547,10821 Z M 7109,10257 L 7139,10236 7171,10221 7206,10209 7243,10203 7281,10202 7321,10206 7361,10216 7402,10231 7444,10252 7452,10257 7109,10257 Z M 7467,10267 L 7486,10279 7527,10312 7537,10321 7537,10811 7073,10811 7058,10776 7038,10720 7022,10665 7010,10611 7003,10559 7000,10509 7003,10463 7010,10419 7022,10379 7038,10343 7058,10310 7082,10281 7098,10267 7467,10267 Z"/>
     <path fill="rgb(103,103,103)" stroke="none" d="M 7537,10811 L 7537,10321 7567,10349 7607,10391 7645,10436 7682,10485 7749,10590 7806,10700 7830,10756 7850,10812 7866,10867 7878,10921 7885,10973 7888,11022 7885,11069 7878,11112 7866,11152 7850,11189 7830,11221 7806,11250 7779,11275 7749,11295 7717,11311 7682,11322 7645,11328 7607,11329 7567,11325 7527,11315 7486,11300 7444,11279 7402,11252 7361,11220 7321,11183 7281,11141 7243,11096 7206,11047 7139,10943 7082,10832 7073,10811 7537,10811 Z M 7098,10267 L 7109,10257 7139,10236 7171,10221 7206,10209 7243,10203 7281,10202 7321,10206 7361,10216 7402,10231 7444,10252 7467,10267 7098,10267 Z M 7483,10277 L 7486,10279 7527,10312 7527,10801 7069,10801 7058,10776 7038,10720 7022,10665 7010,10611 7003,10559 7003,10463 7010,10419 7022,10379 7038,10343 7058,10310 7082,10281 7087,10277 7483,10277 Z"/>
     <path fill="rgb(105,105,105)" stroke="none" d="M 7003,10559 L 7000,10509 7003,10463 7003,10559 Z M 7527,10801 L 7527,10312 7567,10349 7607,10391 7645,10436 7682,10485 7749,10590 7806,10700 7830,10756 7850,10812 7866,10867 7878,10921 7885,10973 7888,11022 7885,11069 7878,11112 7866,11152 7850,11189 7830,11221 7806,11250 7779,11275 7749,11295 7717,11311 7682,11322 7645,11328 7607,11329 7567,11325 7527,11315 7486,11300 7444,11279 7402,11252 7361,11220 7321,11183 7281,11141 7243,11096 7206,11047 7139,10943 7082,10832 7069,10801 7527,10801 Z M 7087,10277 L 7109,10257 7139,10236 7171,10221 7206,10209 7243,10203 7281,10202 7321,10206 7361,10216 7402,10231 7444,10252 7483,10277 7087,10277 Z M 7496,10287 L 7517,10304 7517,10791 7064,10791 7058,10776 7038,10720 7022,10665 7013,10625 7013,10409 7022,10379 7038,10343 7058,10310 7077,10287 7496,10287 Z"/>
     <path fill="rgb(107,107,107)" stroke="none" d="M 7013,10625 L 7010,10611 7003,10559 7000,10509 7003,10463 7010,10419 7013,10409 7013,10625 Z M 7517,10791 L 7517,10304 7527,10312 7567,10349 7607,10391 7645,10436 7682,10485 7749,10590 7806,10700 7830,10756 7850,10812 7866,10867 7878,10921 7885,10973 7888,11022 7885,11069 7878,11112 7866,11152 7850,11189 7830,11221 7806,11250 7779,11275 7749,11295 7717,11311 7682,11322 7645,11328 7607,11329 7567,11325 7527,11315 7486,11300 7444,11279 7402,11252 7361,11220 7321,11183 7281,11141 7243,11096 7206,11047 7139,10943 7082,10832 7064,10791 7517,10791 Z M 7077,10287 L 7082,10281 7109,10257 7139,10236 7171,10221 7206,10209 7243,10203 7281,10202 7321,10206 7361,10216 7402,10231 7444,10252 7486,10279 7496,10287 7077,10287 Z M 7507,10297 L 7507,10781 7060,10781 7058,10776 7038,10720 7023,10668 7023,10377 7038,10343 7058,10310 7069,10297 7507,10297 Z"/>
     <path fill="rgb(109,109,109)" stroke="none" d="M 7023,10668 L 7022,10665 7010,10611 7003,10559 7000,10509 7003,10463 7010,10419 7022,10379 7023,10377 7023,10668 Z M 7507,10781 L 7507,10297 7069,10297 7082,10281 7109,10257 7139,10236 7171,10221 7206,10209 7243,10203 7281,10202 7321,10206 7361,10216 7402,10231 7444,10252 7486,10279 7527,10312 7567,10349 7607,10391 7645,10436 7682,10485 7749,10590 7806,10700 7830,10756 7850,10812 7866,10867 7878,10921 7885,10973 7888,11022 7885,11069 7878,11112 7866,11152 7850,11189 7830,11221 7806,11250 7779,11275 7749,11295 7717,11311 7682,11322 7645,11328 7607,11329 7567,11325 7527,11315 7486,11300 7444,11279 7402,11252 7361,11220 7321,11183 7281,11141 7243,11096 7206,11047 7139,10943 7082,10832 7060,10781 7507,10781 Z M 7497,10307 L 7497,10771 7056,10771 7038,10720 7033,10703 7033,10354 7038,10343 7058,10310 7060,10307 7497,10307 Z"/>
     <path fill="rgb(111,111,111)" stroke="none" d="M 7033,10703 L 7022,10665 7010,10611 7003,10559 7000,10509 7003,10463 7010,10419 7022,10379 7033,10354 7033,10703 Z M 7497,10771 L 7497,10307 7060,10307 7082,10281 7109,10257 7139,10236 7171,10221 7206,10209 7243,10203 7281,10202 7321,10206 7361,10216 7402,10231 7444,10252 7486,10279 7527,10312 7567,10349 7607,10391 7645,10436 7682,10485 7749,10590 7806,10700 7830,10756 7850,10812 7866,10867 7878,10921 7885,10973 7888,11022 7885,11069 7878,11112 7866,11152 7850,11189 7830,11221 7806,11250 7779,11275 7749,11295 7717,11311 7682,11322 7645,11328 7607,11329 7567,11325 7527,11315 7486,11300 7444,11279 7402,11252 7361,11220 7321,11183 7281,11141 7243,11096 7206,11047 7139,10943 7082,10832 7058,10776 7056,10771 7497,10771 Z M 7486,10318 L 7486,10760 7052,10760 7044,10737 7044,10333 7053,10318 7486,10318 Z"/>
     <path fill="rgb(112,112,112)" stroke="none" d="M 7044,10737 L 7038,10720 7022,10665 7010,10611 7003,10559 7000,10509 7003,10463 7010,10419 7022,10379 7038,10343 7044,10333 7044,10737 Z M 7486,10760 L 7486,10318 7053,10318 7058,10310 7082,10281 7109,10257 7139,10236 7171,10221 7206,10209 7243,10203 7281,10202 7321,10206 7361,10216 7402,10231 7444,10252 7486,10279 7527,10312 7567,10349 7607,10391 7645,10436 7682,10485 7749,10590 7806,10700 7830,10756 7850,10812 7866,10867 7878,10921 7885,10973 7888,11022 7885,11069 7878,11112 7866,11152 7850,11189 7830,11221 7806,11250 7779,11275 7749,11295 7717,11311 7682,11322 7645,11328 7607,11329 7567,11325 7527,11315 7486,11300 7444,11279 7402,11252 7361,11220 7321,11183 7281,11141 7243,11096 7206,11047 7139,10943 7082,10832 7058,10776 7052,10760 7486,10760 Z M 7054,10328 L 7476,10328 7476,10750 7054,10750 7054,10328 Z"/>
     <path fill="rgb(114,114,114)" stroke="none" d="M 7054,10328 L 7054,10750 7476,10750 7476,10328 7054,10328 Z M 7064,10338 L 7466,10338 7466,10740 7064,10740 7064,10338 Z M 7444,10252 L 7486,10279 7527,10312 7567,10349 7607,10391 7645,10436 7682,10485 7749,10590 7806,10700 7830,10756 7850,10812 7866,10867 7878,10921 7885,10973 7888,11022 7885,11069 7878,11112 7866,11152 7850,11189 7830,11221 7806,11250 7779,11275 7749,11295 7717,11311 7682,11322 7645,11328 7607,11329 7567,11325 7527,11315 7486,11300 7444,11279 7402,11252 7361,11220 7321,11183 7281,11141 7243,11096 7206,11047 7139,10943 7082,10832 7058,10776 7038,10720 7022,10665 7010,10611 7003,10559 7000,10509 7003,10463 7010,10419 7022,10379 7038,10343 7058,10310 7082,10281 7109,10257 7139,10236 7171,10221 7206,10209 7243,10203 7281,10202 7321,10206 7361,10216 7402,10231 7444,10252 Z"/>
     <path fill="rgb(116,116,116)" stroke="none" d="M 7064,10338 L 7064,10740 7466,10740 7466,10338 7064,10338 Z M 7074,10348 L 7456,10348 7456,10730 7074,10730 7074,10348 Z M 7444,10252 L 7486,10279 7527,10312 7567,10349 7607,10391 7645,10436 7682,10485 7749,10590 7806,10700 7830,10756 7850,10812 7866,10867 7878,10921 7885,10973 7888,11022 7885,11069 7878,11112 7866,11152 7850,11189 7830,11221 7806,11250 7779,11275 7749,11295 7717,11311 7682,11322 7645,11328 7607,11329 7567,11325 7527,11315 7486,11300 7444,11279 7402,11252 7361,11220 7321,11183 7281,11141 7243,11096 7206,11047 7139,10943 7082,10832 7058,10776 7038,10720 7022,10665 7010,10611 7003,10559 7000,10509 7003,10463 7010,10419 7022,10379 7038,10343 7058,10310 7082,10281 7109,10257 7139,10236 7171,10221 7206,10209 7243,10203 7281,10202 7321,10206 7361,10216 7402,10231 7444,10252 Z"/>
     <path fill="rgb(118,118,118)" stroke="none" d="M 7074,10348 L 7074,10730 7456,10730 7456,10348 7074,10348 Z M 7084,10358 L 7446,10358 7446,10720 7084,10720 7084,10358 Z M 7444,10252 L 7486,10279 7527,10312 7567,10349 7607,10391 7645,10436 7682,10485 7749,10590 7806,10700 7830,10756 7850,10812 7866,10867 7878,10921 7885,10973 7888,11022 7885,11069 7878,11112 7866,11152 7850,11189 7830,11221 7806,11250 7779,11275 7749,11295 7717,11311 7682,11322 7645,11328 7607,11329 7567,11325 7527,11315 7486,11300 7444,11279 7402,11252 7361,11220 7321,11183 7281,11141 7243,11096 7206,11047 7139,10943 7082,10832 7058,10776 7038,10720 7022,10665 7010,10611 7003,10559 7000,10509 7003,10463 7010,10419 7022,10379 7038,10343 7058,10310 7082,10281 7109,10257 7139,10236 7171,10221 7206,10209 7243,10203 7281,10202 7321,10206 7361,10216 7402,10231 7444,10252 Z"/>
     <path fill="rgb(120,120,120)" stroke="none" d="M 7084,10358 L 7084,10720 7446,10720 7446,10358 7084,10358 Z M 7094,10368 L 7436,10368 7436,10710 7094,10710 7094,10368 Z M 7444,10252 L 7486,10279 7527,10312 7567,10349 7607,10391 7645,10436 7682,10485 7749,10590 7806,10700 7830,10756 7850,10812 7866,10867 7878,10921 7885,10973 7888,11022 7885,11069 7878,11112 7866,11152 7850,11189 7830,11221 7806,11250 7779,11275 7749,11295 7717,11311 7682,11322 7645,11328 7607,11329 7567,11325 7527,11315 7486,11300 7444,11279 7402,11252 7361,11220 7321,11183 7281,11141 7243,11096 7206,11047 7139,10943 7082,10832 7058,10776 7038,10720 7022,10665 7010,10611 7003,10559 7000,10509 7003,10463 7010,10419 7022,10379 7038,10343 7058,10310 7082,10281 7109,10257 7139,10236 7171,10221 7206,10209 7243,10203 7281,10202 7321,10206 7361,10216 7402,10231 7444,10252 Z"/>
     <path fill="rgb(122,122,122)" stroke="none" d="M 7094,10368 L 7094,10710 7436,10710 7436,10368 7094,10368 Z M 7104,10378 L 7426,10378 7426,10700 7104,10700 7104,10378 Z M 7444,10252 L 7486,10279 7527,10312 7567,10349 7607,10391 7645,10436 7682,10485 7749,10590 7806,10700 7830,10756 7850,10812 7866,10867 7878,10921 7885,10973 7888,11022 7885,11069 7878,11112 7866,11152 7850,11189 7830,11221 7806,11250 7779,11275 7749,11295 7717,11311 7682,11322 7645,11328 7607,11329 7567,11325 7527,11315 7486,11300 7444,11279 7402,11252 7361,11220 7321,11183 7281,11141 7243,11096 7206,11047 7139,10943 7082,10832 7058,10776 7038,10720 7022,10665 7010,10611 7003,10559 7000,10509 7003,10463 7010,10419 7022,10379 7038,10343 7058,10310 7082,10281 7109,10257 7139,10236 7171,10221 7206,10209 7243,10203 7281,10202 7321,10206 7361,10216 7402,10231 7444,10252 Z"/>
     <path fill="rgb(123,123,123)" stroke="none" d="M 7104,10378 L 7104,10700 7426,10700 7426,10378 7104,10378 Z M 7114,10388 L 7416,10388 7416,10690 7114,10690 7114,10388 Z M 7444,10252 L 7486,10279 7527,10312 7567,10349 7607,10391 7645,10436 7682,10485 7749,10590 7806,10700 7830,10756 7850,10812 7866,10867 7878,10921 7885,10973 7888,11022 7885,11069 7878,11112 7866,11152 7850,11189 7830,11221 7806,11250 7779,11275 7749,11295 7717,11311 7682,11322 7645,11328 7607,11329 7567,11325 7527,11315 7486,11300 7444,11279 7402,11252 7361,11220 7321,11183 7281,11141 7243,11096 7206,11047 7139,10943 7082,10832 7058,10776 7038,10720 7022,10665 7010,10611 7003,10559 7000,10509 7003,10463 7010,10419 7022,10379 7038,10343 7058,10310 7082,10281 7109,10257 7139,10236 7171,10221 7206,10209 7243,10203 7281,10202 7321,10206 7361,10216 7402,10231 7444,10252 Z"/>
     <path fill="rgb(125,125,125)" stroke="none" d="M 7114,10388 L 7114,10690 7416,10690 7416,10388 7114,10388 Z M 7124,10398 L 7406,10398 7406,10680 7124,10680 7124,10398 Z M 7444,10252 L 7486,10279 7527,10312 7567,10349 7607,10391 7645,10436 7682,10485 7749,10590 7806,10700 7830,10756 7850,10812 7866,10867 7878,10921 7885,10973 7888,11022 7885,11069 7878,11112 7866,11152 7850,11189 7830,11221 7806,11250 7779,11275 7749,11295 7717,11311 7682,11322 7645,11328 7607,11329 7567,11325 7527,11315 7486,11300 7444,11279 7402,11252 7361,11220 7321,11183 7281,11141 7243,11096 7206,11047 7139,10943 7082,10832 7058,10776 7038,10720 7022,10665 7010,10611 7003,10559 7000,10509 7003,10463 7010,10419 7022,10379 7038,10343 7058,10310 7082,10281 7109,10257 7139,10236 7171,10221 7206,10209 7243,10203 7281,10202 7321,10206 7361,10216 7402,10231 7444,10252 Z"/>
     <path fill="rgb(127,127,127)" stroke="none" d="M 7124,10398 L 7124,10680 7406,10680 7406,10398 7124,10398 Z M 7134,10408 L 7396,10408 7396,10670 7134,10670 7134,10408 Z M 7444,10252 L 7486,10279 7527,10312 7567,10349 7607,10391 7645,10436 7682,10485 7749,10590 7806,10700 7830,10756 7850,10812 7866,10867 7878,10921 7885,10973 7888,11022 7885,11069 7878,11112 7866,11152 7850,11189 7830,11221 7806,11250 7779,11275 7749,11295 7717,11311 7682,11322 7645,11328 7607,11329 7567,11325 7527,11315 7486,11300 7444,11279 7402,11252 7361,11220 7321,11183 7281,11141 7243,11096 7206,11047 7139,10943 7082,10832 7058,10776 7038,10720 7022,10665 7010,10611 7003,10559 7000,10509 7003,10463 7010,10419 7022,10379 7038,10343 7058,10310 7082,10281 7109,10257 7139,10236 7171,10221 7206,10209 7243,10203 7281,10202 7321,10206 7361,10216 7402,10231 7444,10252 Z"/>
     <path fill="rgb(129,129,129)" stroke="none" d="M 7134,10408 L 7134,10670 7396,10670 7396,10408 7134,10408 Z M 7144,10418 L 7386,10418 7386,10660 7144,10660 7144,10418 Z M 7444,10252 L 7486,10279 7527,10312 7567,10349 7607,10391 7645,10436 7682,10485 7749,10590 7806,10700 7830,10756 7850,10812 7866,10867 7878,10921 7885,10973 7888,11022 7885,11069 7878,11112 7866,11152 7850,11189 7830,11221 7806,11250 7779,11275 7749,11295 7717,11311 7682,11322 7645,11328 7607,11329 7567,11325 7527,11315 7486,11300 7444,11279 7402,11252 7361,11220 7321,11183 7281,11141 7243,11096 7206,11047 7139,10943 7082,10832 7058,10776 7038,10720 7022,10665 7010,10611 7003,10559 7000,10509 7003,10463 7010,10419 7022,10379 7038,10343 7058,10310 7082,10281 7109,10257 7139,10236 7171,10221 7206,10209 7243,10203 7281,10202 7321,10206 7361,10216 7402,10231 7444,10252 Z"/>
     <path fill="rgb(131,131,131)" stroke="none" d="M 7144,10418 L 7144,10660 7386,10660 7386,10418 7144,10418 Z M 7155,10429 L 7375,10429 7375,10649 7155,10649 7155,10429 Z M 7444,10252 L 7486,10279 7527,10312 7567,10349 7607,10391 7645,10436 7682,10485 7749,10590 7806,10700 7830,10756 7850,10812 7866,10867 7878,10921 7885,10973 7888,11022 7885,11069 7878,11112 7866,11152 7850,11189 7830,11221 7806,11250 7779,11275 7749,11295 7717,11311 7682,11322 7645,11328 7607,11329 7567,11325 7527,11315 7486,11300 7444,11279 7402,11252 7361,11220 7321,11183 7281,11141 7243,11096 7206,11047 7139,10943 7082,10832 7058,10776 7038,10720 7022,10665 7010,10611 7003,10559 7000,10509 7003,10463 7010,10419 7022,10379 7038,10343 7058,10310 7082,10281 7109,10257 7139,10236 7171,10221 7206,10209 7243,10203 7281,10202 7321,10206 7361,10216 7402,10231 7444,10252 Z"/>
     <path fill="rgb(132,132,132)" stroke="none" d="M 7155,10429 L 7155,10649 7375,10649 7375,10429 7155,10429 Z M 7165,10439 L 7365,10439 7365,10639 7165,10639 7165,10439 Z M 7444,10252 L 7486,10279 7527,10312 7567,10349 7607,10391 7645,10436 7682,10485 7749,10590 7806,10700 7830,10756 7850,10812 7866,10867 7878,10921 7885,10973 7888,11022 7885,11069 7878,11112 7866,11152 7850,11189 7830,11221 7806,11250 7779,11275 7749,11295 7717,11311 7682,11322 7645,11328 7607,11329 7567,11325 7527,11315 7486,11300 7444,11279 7402,11252 7361,11220 7321,11183 7281,11141 7243,11096 7206,11047 7139,10943 7082,10832 7058,10776 7038,10720 7022,10665 7010,10611 7003,10559 7000,10509 7003,10463 7010,10419 7022,10379 7038,10343 7058,10310 7082,10281 7109,10257 7139,10236 7171,10221 7206,10209 7243,10203 7281,10202 7321,10206 7361,10216 7402,10231 7444,10252 Z"/>
     <path fill="rgb(134,134,134)" stroke="none" d="M 7165,10439 L 7165,10639 7365,10639 7365,10439 7165,10439 Z M 7175,10449 L 7355,10449 7355,10629 7175,10629 7175,10449 Z M 7444,10252 L 7486,10279 7527,10312 7567,10349 7607,10391 7645,10436 7682,10485 7749,10590 7806,10700 7830,10756 7850,10812 7866,10867 7878,10921 7885,10973 7888,11022 7885,11069 7878,11112 7866,11152 7850,11189 7830,11221 7806,11250 7779,11275 7749,11295 7717,11311 7682,11322 7645,11328 7607,11329 7567,11325 7527,11315 7486,11300 7444,11279 7402,11252 7361,11220 7321,11183 7281,11141 7243,11096 7206,11047 7139,10943 7082,10832 7058,10776 7038,10720 7022,10665 7010,10611 7003,10559 7000,10509 7003,10463 7010,10419 7022,10379 7038,10343 7058,10310 7082,10281 7109,10257 7139,10236 7171,10221 7206,10209 7243,10203 7281,10202 7321,10206 7361,10216 7402,10231 7444,10252 Z"/>
     <path fill="rgb(136,136,136)" stroke="none" d="M 7175,10449 L 7175,10629 7355,10629 7355,10449 7175,10449 Z M 7185,10459 L 7345,10459 7345,10619 7185,10619 7185,10459 Z M 7444,10252 L 7486,10279 7527,10312 7567,10349 7607,10391 7645,10436 7682,10485 7749,10590 7806,10700 7830,10756 7850,10812 7866,10867 7878,10921 7885,10973 7888,11022 7885,11069 7878,11112 7866,11152 7850,11189 7830,11221 7806,11250 7779,11275 7749,11295 7717,11311 7682,11322 7645,11328 7607,11329 7567,11325 7527,11315 7486,11300 7444,11279 7402,11252 7361,11220 7321,11183 7281,11141 7243,11096 7206,11047 7139,10943 7082,10832 7058,10776 7038,10720 7022,10665 7010,10611 7003,10559 7000,10509 7003,10463 7010,10419 7022,10379 7038,10343 7058,10310 7082,10281 7109,10257 7139,10236 7171,10221 7206,10209 7243,10203 7281,10202 7321,10206 7361,10216 7402,10231 7444,10252 Z"/>
     <path fill="rgb(138,138,138)" stroke="none" d="M 7185,10459 L 7185,10619 7345,10619 7345,10459 7185,10459 Z M 7195,10469 L 7335,10469 7335,10609 7195,10609 7195,10469 Z M 7444,10252 L 7486,10279 7527,10312 7567,10349 7607,10391 7645,10436 7682,10485 7749,10590 7806,10700 7830,10756 7850,10812 7866,10867 7878,10921 7885,10973 7888,11022 7885,11069 7878,11112 7866,11152 7850,11189 7830,11221 7806,11250 7779,11275 7749,11295 7717,11311 7682,11322 7645,11328 7607,11329 7567,11325 7527,11315 7486,11300 7444,11279 7402,11252 7361,11220 7321,11183 7281,11141 7243,11096 7206,11047 7139,10943 7082,10832 7058,10776 7038,10720 7022,10665 7010,10611 7003,10559 7000,10509 7003,10463 7010,10419 7022,10379 7038,10343 7058,10310 7082,10281 7109,10257 7139,10236 7171,10221 7206,10209 7243,10203 7281,10202 7321,10206 7361,10216 7402,10231 7444,10252 Z"/>
     <path fill="rgb(140,140,140)" stroke="none" d="M 7195,10469 L 7195,10609 7335,10609 7335,10469 7195,10469 Z M 7205,10479 L 7325,10479 7325,10599 7205,10599 7205,10479 Z M 7444,10252 L 7486,10279 7527,10312 7567,10349 7607,10391 7645,10436 7682,10485 7749,10590 7806,10700 7830,10756 7850,10812 7866,10867 7878,10921 7885,10973 7888,11022 7885,11069 7878,11112 7866,11152 7850,11189 7830,11221 7806,11250 7779,11275 7749,11295 7717,11311 7682,11322 7645,11328 7607,11329 7567,11325 7527,11315 7486,11300 7444,11279 7402,11252 7361,11220 7321,11183 7281,11141 7243,11096 7206,11047 7139,10943 7082,10832 7058,10776 7038,10720 7022,10665 7010,10611 7003,10559 7000,10509 7003,10463 7010,10419 7022,10379 7038,10343 7058,10310 7082,10281 7109,10257 7139,10236 7171,10221 7206,10209 7243,10203 7281,10202 7321,10206 7361,10216 7402,10231 7444,10252 Z"/>
     <path fill="rgb(142,142,142)" stroke="none" d="M 7205,10479 L 7205,10599 7325,10599 7325,10479 7205,10479 Z M 7215,10489 L 7315,10489 7315,10589 7215,10589 7215,10489 Z M 7444,10252 L 7486,10279 7527,10312 7567,10349 7607,10391 7645,10436 7682,10485 7749,10590 7806,10700 7830,10756 7850,10812 7866,10867 7878,10921 7885,10973 7888,11022 7885,11069 7878,11112 7866,11152 7850,11189 7830,11221 7806,11250 7779,11275 7749,11295 7717,11311 7682,11322 7645,11328 7607,11329 7567,11325 7527,11315 7486,11300 7444,11279 7402,11252 7361,11220 7321,11183 7281,11141 7243,11096 7206,11047 7139,10943 7082,10832 7058,10776 7038,10720 7022,10665 7010,10611 7003,10559 7000,10509 7003,10463 7010,10419 7022,10379 7038,10343 7058,10310 7082,10281 7109,10257 7139,10236 7171,10221 7206,10209 7243,10203 7281,10202 7321,10206 7361,10216 7402,10231 7444,10252 Z"/>
     <path fill="rgb(143,143,143)" stroke="none" d="M 7215,10489 L 7215,10589 7315,10589 7315,10489 7215,10489 Z M 7225,10499 L 7305,10499 7305,10579 7225,10579 7225,10499 Z M 7444,10252 L 7486,10279 7527,10312 7567,10349 7607,10391 7645,10436 7682,10485 7749,10590 7806,10700 7830,10756 7850,10812 7866,10867 7878,10921 7885,10973 7888,11022 7885,11069 7878,11112 7866,11152 7850,11189 7830,11221 7806,11250 7779,11275 7749,11295 7717,11311 7682,11322 7645,11328 7607,11329 7567,11325 7527,11315 7486,11300 7444,11279 7402,11252 7361,11220 7321,11183 7281,11141 7243,11096 7206,11047 7139,10943 7082,10832 7058,10776 7038,10720 7022,10665 7010,10611 7003,10559 7000,10509 7003,10463 7010,10419 7022,10379 7038,10343 7058,10310 7082,10281 7109,10257 7139,10236 7171,10221 7206,10209 7243,10203 7281,10202 7321,10206 7361,10216 7402,10231 7444,10252 Z"/>
     <path fill="rgb(145,145,145)" stroke="none" d="M 7225,10499 L 7225,10579 7305,10579 7305,10499 7225,10499 Z M 7235,10509 L 7295,10509 7295,10569 7235,10569 7235,10509 Z M 7444,10252 L 7486,10279 7527,10312 7567,10349 7607,10391 7645,10436 7682,10485 7749,10590 7806,10700 7830,10756 7850,10812 7866,10867 7878,10921 7885,10973 7888,11022 7885,11069 7878,11112 7866,11152 7850,11189 7830,11221 7806,11250 7779,11275 7749,11295 7717,11311 7682,11322 7645,11328 7607,11329 7567,11325 7527,11315 7486,11300 7444,11279 7402,11252 7361,11220 7321,11183 7281,11141 7243,11096 7206,11047 7139,10943 7082,10832 7058,10776 7038,10720 7022,10665 7010,10611 7003,10559 7000,10509 7003,10463 7010,10419 7022,10379 7038,10343 7058,10310 7082,10281 7109,10257 7139,10236 7171,10221 7206,10209 7243,10203 7281,10202 7321,10206 7361,10216 7402,10231 7444,10252 Z"/>
     <path fill="rgb(147,147,147)" stroke="none" d="M 7235,10509 L 7235,10569 7295,10569 7295,10509 7235,10509 Z M 7245,10519 L 7285,10519 7285,10559 7245,10559 7245,10519 Z M 7444,10252 L 7486,10279 7527,10312 7567,10349 7607,10391 7645,10436 7682,10485 7749,10590 7806,10700 7830,10756 7850,10812 7866,10867 7878,10921 7885,10973 7888,11022 7885,11069 7878,11112 7866,11152 7850,11189 7830,11221 7806,11250 7779,11275 7749,11295 7717,11311 7682,11322 7645,11328 7607,11329 7567,11325 7527,11315 7486,11300 7444,11279 7402,11252 7361,11220 7321,11183 7281,11141 7243,11096 7206,11047 7139,10943 7082,10832 7058,10776 7038,10720 7022,10665 7010,10611 7003,10559 7000,10509 7003,10463 7010,10419 7022,10379 7038,10343 7058,10310 7082,10281 7109,10257 7139,10236 7171,10221 7206,10209 7243,10203 7281,10202 7321,10206 7361,10216 7402,10231 7444,10252 Z"/>
     <path fill="rgb(149,149,149)" stroke="none" d="M 7245,10519 L 7245,10559 7285,10559 7285,10519 7245,10519 Z M 7255,10529 L 7275,10529 7275,10549 7255,10549 7255,10529 Z M 7444,10252 L 7486,10279 7527,10312 7567,10349 7607,10391 7645,10436 7682,10485 7749,10590 7806,10700 7830,10756 7850,10812 7866,10867 7878,10921 7885,10973 7888,11022 7885,11069 7878,11112 7866,11152 7850,11189 7830,11221 7806,11250 7779,11275 7749,11295 7717,11311 7682,11322 7645,11328 7607,11329 7567,11325 7527,11315 7486,11300 7444,11279 7402,11252 7361,11220 7321,11183 7281,11141 7243,11096 7206,11047 7139,10943 7082,10832 7058,10776 7038,10720 7022,10665 7010,10611 7003,10559 7000,10509 7003,10463 7010,10419 7022,10379 7038,10343 7058,10310 7082,10281 7109,10257 7139,10236 7171,10221 7206,10209 7243,10203 7281,10202 7321,10206 7361,10216 7402,10231 7444,10252 Z"/>
     <path fill="rgb(153,153,153)" stroke="none" d="M 7255,10529 L 7255,10549 7275,10549 7275,10529 7255,10529 Z M 7444,10252 L 7486,10279 7527,10312 7567,10349 7607,10391 7645,10436 7682,10485 7749,10590 7806,10700 7830,10756 7850,10812 7866,10867 7878,10921 7885,10973 7888,11022 7885,11069 7878,11112 7866,11152 7850,11189 7830,11221 7806,11250 7779,11275 7749,11295 7717,11311 7682,11322 7645,11328 7607,11329 7567,11325 7527,11315 7486,11300 7444,11279 7402,11252 7361,11220 7321,11183 7281,11141 7243,11096 7206,11047 7139,10943 7082,10832 7058,10776 7038,10720 7022,10665 7010,10611 7003,10559 7000,10509 7003,10463 7010,10419 7022,10379 7038,10343 7058,10310 7082,10281 7109,10257 7139,10236 7171,10221 7206,10209 7243,10203 7281,10202 7321,10206 7361,10216 7402,10231 7444,10252 Z"/>
     <path fill="none" stroke="rgb(102,102,102)" id="Drawing_27_0" stroke-width="40" stroke-linejoin="round" d="M 7444,10252 C 7666,10381 7888,10766 7888,11022 7888,11279 7666,11407 7444,11279 7222,11151 7000,10766 7000,10509 7000,10252 7222,10124 7444,10252 Z"/>
    </g>
    <g>
     <defs>
      <linearGradient id="Gradient_770" gradientUnits="userSpaceOnUse" x1="6807" y1="10879" x2="7697" y2="10881">
       <stop offset="0.1" stop-color="rgb(147,212,240)"/>
       <stop offset="1" stop-color="rgb(233,246,252)"/>
      </linearGradient>
     </defs>
     <path fill="url(#Gradient_770)" stroke="none" id="Drawing_28_0" d="M 7252,10367 L 7294,10394 7335,10427 7375,10464 7415,10506 7453,10551 7490,10600 7557,10705 7614,10815 7638,10871 7658,10927 7674,10982 7686,11036 7693,11088 7696,11137 7693,11184 7686,11227 7674,11267 7658,11304 7638,11336 7614,11365 7587,11390 7557,11410 7525,11426 7490,11437 7453,11443 7415,11444 7375,11440 7335,11430 7294,11415 7252,11394 7210,11367 7169,11335 7129,11298 7089,11256 7051,11211 7014,11162 6947,11058 6890,10947 6866,10891 6846,10835 6830,10780 6818,10726 6811,10674 6808,10624 6811,10578 6818,10534 6830,10494 6846,10458 6866,10425 6890,10396 6917,10372 6947,10351 6979,10336 7014,10324 7051,10318 7089,10317 7129,10321 7169,10331 7210,10346 7252,10367 Z"/>
     <path fill="none" stroke="rgb(178,178,178)" id="Drawing_28_1" stroke-width="40" stroke-linejoin="round" d="M 7252,10367 C 7474,10496 7696,10881 7696,11137 7696,11394 7474,11522 7252,11394 7030,11266 6808,10881 6808,10624 6808,10367 7030,10239 7252,10367 Z"/>
    </g>
    <g>
     <path fill="none" stroke="rgb(178,178,178)" id="Drawing_29_0" stroke-width="40" stroke-linejoin="round" d="M 6889,10381 L 7222,10188"/>
    </g>
    <g>
     <path fill="none" stroke="rgb(0,0,0)" id="Drawing_30_0" stroke-width="40" stroke-linejoin="round" d="M 8554,8199 L 10774,9547 10774,10766 8567,12049 C 8567,12049 7929,11664 7555,11472 7333,11407 7222,11472 7000,11151 6783,11022 6347,10766 6347,10766 L 6334,9482 8554,8199 Z"/>
    </g>
   </g>
  </g>
 </g>
</svg>