<?xml version="1.0" encoding="UTF-8"?>

<svg version="1.2" baseProfile="tiny" width="49.05mm" height="38.9mm" viewBox="2150 1834 4905 3890" preserveAspectRatio="xMidYMid" fill-rule="evenodd" stroke-width="28.222" stroke-linejoin="round" xmlns="http://www.w3.org/2000/svg" xmlns:xlink="http://www.w3.org/1999/xlink" xml:space="preserve">
 <g visibility="visible" id="Slide_1">
  <g id="DrawingGroup_1">
   <g>
    <path fill="rgb(221,221,221)" stroke="none" d="M 4394,5704 C 4699,5704 7055,4742 7055,4485 7055,4228 6916,4100 6611,4100 6611,4293 4283,4293 4394,5704 Z"/>
    <path fill="none" stroke="rgb(221,221,221)" id="Drawing_1_0" stroke-linejoin="round" d="M 4394,5704 C 4699,5704 7055,4742 7055,4485 7055,4228 6916,4100 6611,4100 6611,4293 4283,4293 4394,5704 Z"/>
   </g>
   <g id="DrawingGroup_2">
    <g>
     <path fill="rgb(179,179,179)" stroke="none" d="M 6323,4587 L 5329,5165 4403,5165 4403,4485 6323,3312 6323,4587 Z"/>
     <path fill="rgb(180,180,180)" stroke="none" d="M 5329,5165 L 4403,5704 4403,5165 5329,5165 Z M 6323,3312 L 6610,3137 6610,4420 6323,4587 6323,3312 Z M 6297,4602 L 5374,5139 4403,5139 4403,4485 6297,3328 6297,4602 Z"/>
     <path fill="rgb(181,181,181)" stroke="none" d="M 5374,5139 L 4403,5704 4403,5139 5374,5139 Z M 6297,3328 L 6610,3137 6610,4420 6297,4602 6297,3328 Z M 6271,4617 L 5419,5113 4403,5113 4403,4485 6271,3344 6271,4617 Z"/>
     <path fill="rgb(182,182,182)" stroke="none" d="M 5419,5113 L 4403,5704 4403,5113 5419,5113 Z M 6271,3344 L 6610,3137 6610,4420 6271,4617 6271,3344 Z M 6246,4632 L 5462,5088 4403,5088 4403,4485 6246,3359 6246,4632 Z"/>
     <path fill="rgb(183,183,183)" stroke="none" d="M 5462,5088 L 4403,5704 4403,5088 5462,5088 Z M 6246,3359 L 6610,3137 6610,4420 6246,4632 6246,3359 Z M 6220,4647 L 5507,5062 4403,5062 4403,4485 6220,3375 6220,4647 Z"/>
     <path fill="rgb(184,184,184)" stroke="none" d="M 5507,5062 L 4403,5704 4403,5062 5507,5062 Z M 6220,3375 L 6610,3137 6610,4420 6220,4647 6220,3375 Z M 6194,4662 L 5551,5036 4403,5036 4403,4485 6194,3391 6194,4662 Z"/>
     <path fill="rgb(185,185,185)" stroke="none" d="M 5551,5036 L 4403,5704 4403,5036 5551,5036 Z M 6194,3391 L 6610,3137 6610,4420 6194,4662 6194,3391 Z M 6169,4677 L 5594,5011 4403,5011 4403,4485 6169,3406 6169,4677 Z"/>
     <path fill="rgb(186,186,186)" stroke="none" d="M 5594,5011 L 4403,5704 4403,5011 5594,5011 Z M 6169,3406 L 6610,3137 6610,4420 6169,4677 6169,3406 Z M 6143,4692 L 5639,4985 4403,4985 4403,4485 6143,3422 6143,4692 Z"/>
     <path fill="rgb(187,187,187)" stroke="none" d="M 5639,4985 L 4403,5704 4403,4985 5639,4985 Z M 6143,3422 L 6610,3137 6610,4420 6143,4692 6143,3422 Z M 6117,4707 L 5684,4959 4403,4959 4403,4485 6117,3438 6117,4707 Z"/>
     <path fill="rgb(188,188,188)" stroke="none" d="M 5684,4959 L 4403,5704 4403,4959 5684,4959 Z M 6117,3438 L 6610,3137 6610,4420 6117,4707 6117,3438 Z M 6091,4722 L 5728,4933 4403,4933 4403,4485 6091,3454 6091,4722 Z"/>
     <path fill="rgb(189,189,189)" stroke="none" d="M 5728,4933 L 4403,5704 4403,4933 5728,4933 Z M 6091,3454 L 6610,3137 6610,4420 6091,4722 6091,3454 Z M 6066,4736 L 5771,4908 4403,4908 4403,4485 6066,3469 6066,4736 Z"/>
     <path fill="rgb(190,190,190)" stroke="none" d="M 5771,4908 L 4403,5704 4403,4908 5771,4908 Z M 6066,3469 L 6610,3137 6610,4420 6066,4736 6066,3469 Z M 6040,4752 L 5816,4882 4403,4882 4403,4485 6040,3485 6040,4752 Z"/>
     <path fill="rgb(191,191,191)" stroke="none" d="M 5816,4882 L 4403,5704 4403,4882 5816,4882 Z M 6040,3485 L 6610,3137 6610,4420 6040,4752 6040,3485 Z M 6014,4767 L 5861,4856 4403,4856 4403,4485 6014,3501 6014,4767 Z"/>
     <path fill="rgb(192,192,192)" stroke="none" d="M 5861,4856 L 4403,5704 4403,4856 5861,4856 Z M 6014,3501 L 6610,3137 6610,4420 6014,4767 6014,3501 Z M 5989,4781 L 5904,4831 4403,4831 4403,4485 5989,3516 5989,4781 Z"/>
     <path fill="rgb(193,193,193)" stroke="none" d="M 5904,4831 L 4403,5704 4403,4831 5904,4831 Z M 5989,3516 L 6610,3137 6610,4420 5989,4781 5989,3516 Z M 5963,4796 L 5948,4805 4403,4805 4403,4485 5963,3532 5963,4796 Z"/>
     <path fill="rgb(194,194,194)" stroke="none" d="M 5948,4805 L 4403,5704 4403,4805 5948,4805 Z M 5963,3532 L 6610,3137 6610,4420 5963,4796 5963,3532 Z M 5937,4779 L 4403,4779 4403,4485 5937,3548 5937,4779 Z"/>
     <path fill="rgb(195,195,195)" stroke="none" d="M 5937,4779 L 5937,3548 6610,3137 6610,4420 4403,5704 4403,4779 5937,4779 Z M 5912,4754 L 4403,4754 4403,4485 5912,3563 5912,4754 Z"/>
     <path fill="rgb(196,196,196)" stroke="none" d="M 5912,4754 L 5912,3563 6610,3137 6610,4420 4403,5704 4403,4754 5912,4754 Z M 5886,4728 L 4403,4728 4403,4485 5886,3579 5886,4728 Z"/>
     <path fill="rgb(197,197,197)" stroke="none" d="M 5886,4728 L 5886,3579 6610,3137 6610,4420 4403,5704 4403,4728 5886,4728 Z M 5860,4702 L 4403,4702 4403,4485 5860,3595 5860,4702 Z"/>
     <path fill="rgb(198,198,198)" stroke="none" d="M 5860,4702 L 5860,3595 6610,3137 6610,4420 4403,5704 4403,4702 5860,4702 Z M 5834,4676 L 4403,4676 4403,4485 5834,3611 5834,4676 Z"/>
     <path fill="rgb(199,199,199)" stroke="none" d="M 5834,4676 L 5834,3611 6610,3137 6610,4420 4403,5704 4403,4676 5834,4676 Z M 5809,4651 L 4403,4651 4403,4485 5809,3626 5809,4651 Z"/>
     <path fill="rgb(200,200,200)" stroke="none" d="M 5809,4651 L 5809,3626 6610,3137 6610,4420 4403,5704 4403,4651 5809,4651 Z M 5783,4625 L 4403,4625 4403,4485 5783,3642 5783,4625 Z"/>
     <path fill="rgb(201,201,201)" stroke="none" d="M 5783,4625 L 5783,3642 6610,3137 6610,4420 4403,5704 4403,4625 5783,4625 Z M 5757,4599 L 4403,4599 4403,4485 5757,3658 5757,4599 Z"/>
     <path fill="rgb(202,202,202)" stroke="none" d="M 5757,4599 L 5757,3658 6610,3137 6610,4420 4403,5704 4403,4599 5757,4599 Z M 5732,4574 L 4403,4574 4403,4485 5732,3673 5732,4574 Z"/>
     <path fill="rgb(203,203,203)" stroke="none" d="M 5732,4574 L 5732,3673 6610,3137 6610,4420 4403,5704 4403,4574 5732,4574 Z M 5706,4548 L 4422,4548 4422,4473 5706,3689 5706,4548 Z"/>
     <path fill="rgb(204,204,204)" stroke="none" d="M 4422,4548 L 5706,4548 5706,3689 6610,3137 6610,4420 4403,5704 4403,4485 4422,4473 4422,4548 Z M 5680,4522 L 4448,4522 4448,4458 5680,3705 5680,4522 Z"/>
     <path fill="rgb(205,205,205)" stroke="none" d="M 4448,4522 L 5680,4522 5680,3705 6610,3137 6610,4420 4403,5704 4403,4485 4448,4458 4448,4522 Z M 5655,4497 L 4473,4497 4473,4442 5655,3720 5655,4497 Z"/>
     <path fill="rgb(206,206,206)" stroke="none" d="M 4473,4497 L 5655,4497 5655,3720 6610,3137 6610,4420 4403,5704 4403,4485 4473,4442 4473,4497 Z M 5629,4471 L 4499,4471 4499,4426 5629,3736 5629,4471 Z"/>
     <path fill="rgb(207,207,207)" stroke="none" d="M 4499,4471 L 5629,4471 5629,3736 6610,3137 6610,4420 4403,5704 4403,4485 4499,4426 4499,4471 Z M 5603,4445 L 4525,4445 4525,4410 5603,3752 5603,4445 Z"/>
     <path fill="rgb(208,208,208)" stroke="none" d="M 4525,4445 L 5603,4445 5603,3752 6610,3137 6610,4420 4403,5704 4403,4485 4525,4410 4525,4445 Z M 5577,4419 L 4550,4419 4550,4395 5577,3768 5577,4419 Z"/>
     <path fill="rgb(209,209,209)" stroke="none" d="M 4550,4419 L 5577,4419 5577,3768 6610,3137 6610,4420 4403,5704 4403,4485 4550,4395 4550,4419 Z M 5552,4394 L 4576,4394 4576,4379 5552,3783 5552,4394 Z"/>
     <path fill="rgb(210,210,210)" stroke="none" d="M 4576,4394 L 5552,4394 5552,3783 6610,3137 6610,4420 4403,5704 4403,4485 4576,4379 4576,4394 Z M 5526,4368 L 4602,4368 4602,4363 5526,3799 5526,4368 Z"/>
     <path fill="rgb(211,211,211)" stroke="none" d="M 4602,4368 L 5526,4368 5526,3799 6610,3137 6610,4420 4403,5704 4403,4485 4602,4363 4602,4368 Z M 5500,4342 L 4637,4342 5500,3815 5500,4342 Z"/>
     <path fill="rgb(212,212,212)" stroke="none" d="M 5500,4342 L 5500,3815 6610,3137 6610,4420 4403,5704 4403,4485 4637,4342 5500,4342 Z M 5475,4317 L 4678,4317 5475,3830 5475,4317 Z"/>
     <path fill="rgb(213,213,213)" stroke="none" d="M 5475,4317 L 5475,3830 6610,3137 6610,4420 4403,5704 4403,4485 4678,4317 5475,4317 Z M 5449,4291 L 4721,4291 5449,3846 5449,4291 Z"/>
     <path fill="rgb(214,214,214)" stroke="none" d="M 5449,4291 L 5449,3846 6610,3137 6610,4420 4403,5704 4403,4485 4721,4291 5449,4291 Z M 5423,4265 L 4763,4265 5423,3862 5423,4265 Z"/>
     <path fill="rgb(215,215,215)" stroke="none" d="M 5423,4265 L 5423,3862 6610,3137 6610,4420 4403,5704 4403,4485 4763,4265 5423,4265 Z M 5398,4240 L 4804,4240 5398,3877 5398,4240 Z"/>
     <path fill="rgb(216,216,216)" stroke="none" d="M 5398,4240 L 5398,3877 6610,3137 6610,4420 4403,5704 4403,4485 4804,4240 5398,4240 Z M 5372,4214 L 4847,4214 5372,3893 5372,4214 Z"/>
     <path fill="rgb(217,217,217)" stroke="none" d="M 5372,4214 L 5372,3893 6610,3137 6610,4420 4403,5704 4403,4485 4847,4214 5372,4214 Z M 5346,4188 L 4889,4188 5346,3909 5346,4188 Z"/>
     <path fill="rgb(218,218,218)" stroke="none" d="M 5346,4188 L 5346,3909 6610,3137 6610,4420 4403,5704 4403,4485 4889,4188 5346,4188 Z M 5320,4162 L 4932,4162 5320,3925 5320,4162 Z"/>
     <path fill="rgb(219,219,219)" stroke="none" d="M 5320,4162 L 5320,3925 6610,3137 6610,4420 4403,5704 4403,4485 4932,4162 5320,4162 Z M 5295,4137 L 4973,4137 5295,3940 5295,4137 Z"/>
     <path fill="rgb(220,220,220)" stroke="none" d="M 5295,4137 L 5295,3940 6610,3137 6610,4420 4403,5704 4403,4485 4973,4137 5295,4137 Z M 5269,4111 L 5015,4111 5269,3956 5269,4111 Z"/>
     <path fill="rgb(221,221,221)" stroke="none" d="M 5269,4111 L 5269,3956 6610,3137 6610,4420 4403,5704 4403,4485 5015,4111 5269,4111 Z M 5243,4085 L 5058,4085 5243,3972 5243,4085 Z"/>
     <path fill="rgb(222,222,222)" stroke="none" d="M 5243,4085 L 5243,3972 6610,3137 6610,4420 4403,5704 4403,4485 5058,4085 5243,4085 Z M 5218,4060 L 5099,4060 5218,3987 5218,4060 Z"/>
     <path fill="rgb(223,223,223)" stroke="none" d="M 5218,4060 L 5218,3987 6610,3137 6610,4420 4403,5704 4403,4485 5099,4060 5218,4060 Z M 5192,4034 L 5141,4034 5192,4003 5192,4034 Z"/>
     <path fill="rgb(224,224,224)" stroke="none" d="M 5192,4034 L 5192,4003 6610,3137 6610,4420 4403,5704 4403,4485 5141,4034 5192,4034 Z"/>
     <path fill="rgb(225,225,225)" stroke="none" d="M 4403,5704 L 4403,4485 6610,3137 6610,4420 4403,5704 Z"/>
     <path fill="rgb(226,226,226)" stroke="none" d="M 4403,5704 L 4403,4485 6610,3137 6610,4420 4403,5704 Z"/>
     <path fill="rgb(227,227,227)" stroke="none" d="M 4403,5704 L 4403,4485 6610,3137 6610,4420 4403,5704 Z"/>
     <path fill="rgb(229,229,229)" stroke="none" d="M 4403,5704 L 4403,4485 6610,3137 6610,4420 4403,5704 Z"/>
     <path fill="none" stroke="rgb(255,255,255)" id="Drawing_2_0" stroke-width="40" stroke-linejoin="round" d="M 4403,5704 L 4403,4485 6610,3137 6610,4420 4403,5704 Z"/>
    </g>
    <g>
     <defs>
      <linearGradient id="Gradient_765" gradientUnits="userSpaceOnUse" x1="2167" y1="4418" x2="4404" y2="4422">
       <stop offset="0.1" stop-color="rgb(179,179,179)"/>
       <stop offset="1" stop-color="rgb(229,229,229)"/>
      </linearGradient>
     </defs>
     <path fill="url(#Gradient_765)" stroke="rgb(255,255,255)" id="Drawing_3_0" stroke-width="40" stroke-linejoin="round" d="M 2183,4420 L 2170,3137 4403,4485 4403,5704 2183,4420 Z"/>
    </g>
    <g>
     <defs>
      <linearGradient id="Gradient_766" gradientUnits="userSpaceOnUse" x1="2168" y1="3165" x2="6612" y2="3173">
       <stop offset="0.1" stop-color="rgb(179,179,179)"/>
       <stop offset="1" stop-color="rgb(229,229,229)"/>
      </linearGradient>
     </defs>
     <path fill="url(#Gradient_766)" stroke="rgb(255,255,255)" id="Drawing_4_0" stroke-width="40" stroke-linejoin="round" d="M 4403,4485 L 2170,3137 4390,1854 6610,3202 4403,4485 Z"/>
    </g>
    <g>
     <path fill="rgb(255,255,255)" stroke="none" d="M 4390,3587 L 4168,3458 4390,3330 4612,3458 4390,3587 Z"/>
     <path fill="none" stroke="rgb(127,127,127)" id="Drawing_5_0" stroke-width="40" stroke-linejoin="round" d="M 4390,3587 L 4168,3458 4390,3330 4612,3458 4390,3587 Z"/>
    </g>
    <g>
     <path fill="rgb(255,255,255)" stroke="none" d="M 4057,3394 L 3835,3265 4057,3137 4279,3265 4057,3394 Z"/>
     <path fill="none" stroke="rgb(127,127,127)" id="Drawing_6_0" stroke-width="40" stroke-linejoin="round" d="M 4057,3394 L 3835,3265 4057,3137 4279,3265 4057,3394 Z"/>
    </g>
    <g>
     <path fill="rgb(255,255,255)" stroke="none" d="M 4390,3202 L 4168,3073 4390,2945 4612,3073 4390,3202 Z"/>
     <path fill="none" stroke="rgb(127,127,127)" id="Drawing_7_0" stroke-width="40" stroke-linejoin="round" d="M 4390,3202 L 4168,3073 4390,2945 4612,3073 4390,3202 Z"/>
    </g>
    <g>
     <path fill="rgb(255,255,255)" stroke="none" d="M 4723,3394 L 4501,3265 4723,3137 4945,3265 4723,3394 Z"/>
     <path fill="none" stroke="rgb(127,127,127)" id="Drawing_8_0" stroke-width="40" stroke-linejoin="round" d="M 4723,3394 L 4501,3265 4723,3137 4945,3265 4723,3394 Z"/>
    </g>
    <g>
     <path fill="none" stroke="rgb(127,127,127)" id="Drawing_9_0" stroke-width="40" stroke-linejoin="round" d="M 3391,5062 L 3613,4934"/>
    </g>
    <g>
     <path fill="none" stroke="rgb(127,127,127)" id="Drawing_10_0" stroke-width="40" stroke-linejoin="round" d="M 2947,3586 L 5056,2367"/>
    </g>
    <g>
     <path fill="none" stroke="rgb(127,127,127)" id="Drawing_11_0" stroke-width="40" stroke-linejoin="round" d="M 4612,4806 L 6388,3779"/>
    </g>
    <g>
     <path fill="none" stroke="rgb(127,127,127)" id="Drawing_12_0" stroke-width="40" stroke-linejoin="round" d="M 4612,4999 L 6388,3972"/>
    </g>
    <g>
     <path fill="none" stroke="rgb(127,127,127)" id="Drawing_13_0" stroke-width="40" stroke-linejoin="round" d="M 4612,5191 L 6388,4164"/>
    </g>
    <g>
     <path fill="none" stroke="rgb(127,127,127)" id="Drawing_14_0" stroke-width="40" stroke-linejoin="round" d="M 4612,5384 L 6388,4357"/>
    </g>
    <g>
     <path fill="none" stroke="rgb(127,127,127)" id="Drawing_15_0" stroke-width="40" stroke-linejoin="round" d="M 3835,4100 L 5944,2881"/>
    </g>
    <g>
     <path fill="none" stroke="rgb(127,127,127)" id="Drawing_16_0" stroke-width="40" stroke-linejoin="round" d="M 4612,4614 L 6388,3587"/>
    </g>
    <g>
     <path fill="none" stroke="rgb(127,127,127)" id="Drawing_17_0" stroke-width="40" stroke-linejoin="round" d="M 3724,4357 L 4279,4678"/>
    </g>
    <g>
     <path fill="none" stroke="rgb(127,127,127)" id="Drawing_18_0" stroke-width="40" stroke-linejoin="round" d="M 3835,4613 L 4279,4870"/>
    </g>
    <g>
     <path fill="none" stroke="rgb(127,127,127)" id="Drawing_19_0" stroke-width="40" stroke-linejoin="round" d="M 3835,4806 L 4279,5063"/>
    </g>
    <g>
     <path fill="none" stroke="rgb(127,127,127)" id="Drawing_20_0" stroke-width="40" stroke-linejoin="round" d="M 3724,4934 L 4279,5255"/>
    </g>
    <g>
     <path fill="none" stroke="rgb(127,127,127)" id="Drawing_21_0" stroke-width="40" stroke-linejoin="round" d="M 3613,5062 L 4279,5447"/>
    </g>
    <g>
     <path fill="none" stroke="rgb(127,127,127)" id="Drawing_22_0" stroke-width="40" stroke-linejoin="round" d="M 2281,3522 L 2947,3907"/>
    </g>
    <g>
     <path fill="none" stroke="rgb(127,127,127)" id="Drawing_23_0" stroke-width="40" stroke-linejoin="round" d="M 2281,3715 L 2947,4100"/>
    </g>
    <g>
     <path fill="none" stroke="rgb(127,127,127)" id="Drawing_24_0" stroke-width="40" stroke-linejoin="round" d="M 2281,3907 L 2947,4292"/>
    </g>
    <g>
     <path fill="none" stroke="rgb(127,127,127)" id="Drawing_25_0" stroke-width="40" stroke-linejoin="round" d="M 2281,4100 L 2947,4485"/>
    </g>
    <g>
     <path fill="none" stroke="rgb(127,127,127)" id="Drawing_26_0" stroke-width="40" stroke-linejoin="round" d="M 2281,4292 L 2947,4677"/>
    </g>
    <g>
     <path fill="rgb(179,179,179)" stroke="none" d="M 3654,4747 L 3076,4747 3042,4702 2975,4598 2918,4487 2894,4431 2874,4375 2858,4320 2846,4266 2839,4214 2836,4164 2839,4118 2846,4074 2858,4034 2874,3998 2894,3965 2918,3936 2945,3912 2975,3891 3007,3876 3042,3864 3079,3858 3117,3857 3157,3861 3197,3871 3238,3886 3280,3907 3322,3934 3363,3967 3403,4004 3443,4046 3481,4091 3518,4140 3585,4245 3642,4355 3654,4383 3654,4747 Z"/>
     <path fill="rgb(180,180,180)" stroke="none" d="M 3654,4747 L 3654,4383 3666,4411 3686,4467 3702,4522 3714,4576 3721,4628 3724,4677 3721,4724 3714,4767 3702,4807 3686,4844 3666,4876 3642,4905 3615,4930 3585,4950 3553,4966 3518,4977 3481,4983 3443,4984 3403,4980 3363,4970 3322,4955 3280,4934 3238,4907 3197,4875 3157,4838 3117,4796 3079,4751 3076,4747 3654,4747 Z M 3643,4736 L 3068,4736 3042,4702 2975,4598 2918,4487 2894,4431 2874,4375 2858,4320 2846,4266 2839,4214 2836,4164 2839,4118 2846,4074 2858,4034 2874,3998 2894,3965 2918,3936 2945,3912 2975,3891 3007,3876 3042,3864 3079,3858 3117,3857 3157,3861 3197,3871 3238,3886 3280,3907 3322,3934 3363,3967 3403,4004 3443,4046 3481,4091 3518,4140 3585,4245 3642,4355 3643,4357 3643,4736 Z"/>
     <path fill="rgb(181,181,181)" stroke="none" d="M 3643,4736 L 3643,4357 3666,4411 3686,4467 3702,4522 3714,4576 3721,4628 3724,4677 3721,4724 3714,4767 3702,4807 3686,4844 3666,4876 3642,4905 3615,4930 3585,4950 3553,4966 3518,4977 3481,4983 3443,4984 3403,4980 3363,4970 3322,4955 3280,4934 3238,4907 3197,4875 3157,4838 3117,4796 3079,4751 3068,4736 3643,4736 Z M 3632,4725 L 3059,4725 3042,4702 2975,4598 2918,4487 2894,4431 2874,4375 2858,4320 2846,4266 2839,4214 2836,4164 2839,4118 2846,4074 2858,4034 2874,3998 2894,3965 2918,3936 2945,3912 2975,3891 3007,3876 3042,3864 3079,3858 3117,3857 3157,3861 3197,3871 3238,3886 3280,3907 3322,3934 3363,3967 3403,4004 3443,4046 3481,4091 3518,4140 3585,4245 3632,4336 3632,4725 Z"/>
     <path fill="rgb(182,182,182)" stroke="none" d="M 3632,4725 L 3632,4336 3642,4355 3666,4411 3686,4467 3702,4522 3714,4576 3721,4628 3724,4677 3721,4724 3714,4767 3702,4807 3686,4844 3666,4876 3642,4905 3615,4930 3585,4950 3553,4966 3518,4977 3481,4983 3443,4984 3403,4980 3363,4970 3322,4955 3280,4934 3238,4907 3197,4875 3157,4838 3117,4796 3079,4751 3059,4725 3632,4725 Z M 3620,4713 L 3050,4713 3042,4702 2975,4598 2918,4487 2894,4431 2874,4375 2858,4320 2846,4266 2839,4214 2836,4164 2839,4118 2846,4074 2858,4034 2874,3998 2894,3965 2918,3936 2945,3912 2975,3891 3007,3876 3042,3864 3079,3858 3117,3857 3157,3861 3197,3871 3238,3886 3280,3907 3322,3934 3363,3967 3403,4004 3443,4046 3481,4091 3518,4140 3585,4245 3620,4313 3620,4713 Z"/>
     <path fill="rgb(183,183,183)" stroke="none" d="M 3620,4713 L 3620,4313 3642,4355 3666,4411 3686,4467 3702,4522 3714,4576 3721,4628 3724,4677 3721,4724 3714,4767 3702,4807 3686,4844 3666,4876 3642,4905 3615,4930 3585,4950 3553,4966 3518,4977 3481,4983 3443,4984 3403,4980 3363,4970 3322,4955 3280,4934 3238,4907 3197,4875 3157,4838 3117,4796 3079,4751 3050,4713 3620,4713 Z M 3609,4702 L 3042,4702 2975,4598 2918,4487 2894,4431 2874,4375 2858,4320 2846,4266 2839,4214 2836,4164 2839,4118 2846,4074 2858,4034 2874,3998 2894,3965 2918,3936 2945,3912 2975,3891 3007,3876 3042,3864 3079,3858 3117,3857 3157,3861 3197,3871 3238,3886 3280,3907 3322,3934 3363,3967 3403,4004 3443,4046 3481,4091 3518,4140 3585,4245 3609,4291 3609,4702 Z"/>
     <path fill="rgb(184,184,184)" stroke="none" d="M 3609,4702 L 3609,4291 3642,4355 3666,4411 3686,4467 3702,4522 3714,4576 3721,4628 3724,4677 3721,4724 3714,4767 3702,4807 3686,4844 3666,4876 3642,4905 3615,4930 3585,4950 3553,4966 3518,4977 3481,4983 3443,4984 3403,4980 3363,4970 3322,4955 3280,4934 3238,4907 3197,4875 3157,4838 3117,4796 3079,4751 3042,4702 3609,4702 Z M 3598,4691 L 3035,4691 2975,4598 2918,4487 2894,4431 2874,4375 2858,4320 2846,4266 2839,4214 2836,4164 2839,4118 2846,4074 2858,4034 2874,3998 2894,3965 2918,3936 2945,3912 2975,3891 3007,3876 3042,3864 3079,3858 3117,3857 3157,3861 3197,3871 3238,3886 3280,3907 3322,3934 3363,3967 3403,4004 3443,4046 3481,4091 3518,4140 3585,4245 3598,4270 3598,4691 Z"/>
     <path fill="rgb(185,185,185)" stroke="none" d="M 3598,4691 L 3598,4270 3642,4355 3666,4411 3686,4467 3702,4522 3714,4576 3721,4628 3724,4677 3721,4724 3714,4767 3702,4807 3686,4844 3666,4876 3642,4905 3615,4930 3585,4950 3553,4966 3518,4977 3481,4983 3443,4984 3403,4980 3363,4970 3322,4955 3280,4934 3238,4907 3197,4875 3157,4838 3117,4796 3079,4751 3042,4702 3035,4691 3598,4691 Z M 3586,4679 L 3027,4679 2975,4598 2918,4487 2894,4431 2874,4375 2858,4320 2846,4266 2839,4214 2836,4164 2839,4118 2846,4074 2858,4034 2874,3998 2894,3965 2918,3936 2945,3912 2975,3891 3007,3876 3042,3864 3079,3858 3117,3857 3157,3861 3197,3871 3238,3886 3280,3907 3322,3934 3363,3967 3403,4004 3443,4046 3481,4091 3518,4140 3585,4245 3586,4247 3586,4679 Z"/>
     <path fill="rgb(186,186,186)" stroke="none" d="M 3586,4679 L 3586,4247 3642,4355 3666,4411 3686,4467 3702,4522 3714,4576 3721,4628 3724,4677 3721,4724 3714,4767 3702,4807 3686,4844 3666,4876 3642,4905 3615,4930 3585,4950 3553,4966 3518,4977 3481,4983 3443,4984 3403,4980 3363,4970 3322,4955 3280,4934 3238,4907 3197,4875 3157,4838 3117,4796 3079,4751 3042,4702 3027,4679 3586,4679 Z M 3575,4668 L 3020,4668 2975,4598 2918,4487 2894,4431 2874,4375 2858,4320 2846,4266 2839,4214 2836,4164 2839,4118 2846,4074 2858,4034 2874,3998 2894,3965 2918,3936 2945,3912 2975,3891 3007,3876 3042,3864 3079,3858 3117,3857 3157,3861 3197,3871 3238,3886 3280,3907 3322,3934 3363,3967 3403,4004 3443,4046 3481,4091 3518,4140 3575,4229 3575,4668 Z"/>
     <path fill="rgb(187,187,187)" stroke="none" d="M 3575,4668 L 3575,4229 3585,4245 3642,4355 3666,4411 3686,4467 3702,4522 3714,4576 3721,4628 3724,4677 3721,4724 3714,4767 3702,4807 3686,4844 3666,4876 3642,4905 3615,4930 3585,4950 3553,4966 3518,4977 3481,4983 3443,4984 3403,4980 3363,4970 3322,4955 3280,4934 3238,4907 3197,4875 3157,4838 3117,4796 3079,4751 3042,4702 3020,4668 3575,4668 Z M 3564,4657 L 3013,4657 2975,4598 2918,4487 2894,4431 2874,4375 2858,4320 2846,4266 2839,4214 2836,4164 2839,4118 2846,4074 2858,4034 2874,3998 2894,3965 2918,3936 2945,3912 2975,3891 3007,3876 3042,3864 3079,3858 3117,3857 3157,3861 3197,3871 3238,3886 3280,3907 3322,3934 3363,3967 3403,4004 3443,4046 3481,4091 3518,4140 3564,4212 3564,4657 Z"/>
     <path fill="rgb(188,188,188)" stroke="none" d="M 3564,4657 L 3564,4212 3585,4245 3642,4355 3666,4411 3686,4467 3702,4522 3714,4576 3721,4628 3724,4677 3721,4724 3714,4767 3702,4807 3686,4844 3666,4876 3642,4905 3615,4930 3585,4950 3553,4966 3518,4977 3481,4983 3443,4984 3403,4980 3363,4970 3322,4955 3280,4934 3238,4907 3197,4875 3157,4838 3117,4796 3079,4751 3042,4702 3013,4657 3564,4657 Z M 3553,4646 L 3006,4646 2975,4598 2918,4487 2894,4431 2874,4375 2858,4320 2846,4266 2839,4214 2836,4164 2839,4118 2846,4074 2858,4034 2874,3998 2894,3965 2918,3936 2945,3912 2975,3891 3007,3876 3042,3864 3079,3858 3117,3857 3157,3861 3197,3871 3238,3886 3280,3907 3322,3934 3363,3967 3403,4004 3443,4046 3481,4091 3518,4140 3553,4195 3553,4646 Z"/>
     <path fill="rgb(189,189,189)" stroke="none" d="M 3553,4646 L 3553,4195 3585,4245 3642,4355 3666,4411 3686,4467 3702,4522 3714,4576 3721,4628 3724,4677 3721,4724 3714,4767 3702,4807 3686,4844 3666,4876 3642,4905 3615,4930 3585,4950 3553,4966 3518,4977 3481,4983 3443,4984 3403,4980 3363,4970 3322,4955 3280,4934 3238,4907 3197,4875 3157,4838 3117,4796 3079,4751 3042,4702 3006,4646 3553,4646 Z M 3541,4634 L 2998,4634 2975,4598 2918,4487 2894,4431 2874,4375 2858,4320 2846,4266 2839,4214 2836,4164 2839,4118 2846,4074 2858,4034 2874,3998 2894,3965 2918,3936 2945,3912 2975,3891 3007,3876 3042,3864 3079,3858 3117,3857 3157,3861 3197,3871 3238,3886 3280,3907 3322,3934 3363,3967 3403,4004 3443,4046 3481,4091 3518,4140 3541,4176 3541,4634 Z"/>
     <path fill="rgb(190,190,190)" stroke="none" d="M 3541,4634 L 3541,4176 3585,4245 3642,4355 3666,4411 3686,4467 3702,4522 3714,4576 3721,4628 3724,4677 3721,4724 3714,4767 3702,4807 3686,4844 3666,4876 3642,4905 3615,4930 3585,4950 3553,4966 3518,4977 3481,4983 3443,4984 3403,4980 3363,4970 3322,4955 3280,4934 3238,4907 3197,4875 3157,4838 3117,4796 3079,4751 3042,4702 2998,4634 3541,4634 Z M 3530,4623 L 2991,4623 2975,4598 2918,4487 2894,4431 2874,4375 2858,4320 2846,4266 2839,4214 2836,4164 2839,4118 2846,4074 2858,4034 2874,3998 2894,3965 2918,3936 2945,3912 2975,3891 3007,3876 3042,3864 3079,3858 3117,3857 3157,3861 3197,3871 3238,3886 3280,3907 3322,3934 3363,3967 3403,4004 3443,4046 3481,4091 3518,4140 3530,4159 3530,4623 Z"/>
     <path fill="rgb(191,191,191)" stroke="none" d="M 3530,4623 L 3530,4159 3585,4245 3642,4355 3666,4411 3686,4467 3702,4522 3714,4576 3721,4628 3724,4677 3721,4724 3714,4767 3702,4807 3686,4844 3666,4876 3642,4905 3615,4930 3585,4950 3553,4966 3518,4977 3481,4983 3443,4984 3403,4980 3363,4970 3322,4955 3280,4934 3238,4907 3197,4875 3157,4838 3117,4796 3079,4751 3042,4702 2991,4623 3530,4623 Z M 3519,4612 L 2984,4612 2975,4598 2918,4487 2894,4431 2874,4375 2858,4320 2846,4266 2839,4214 2836,4164 2839,4118 2846,4074 2858,4034 2874,3998 2894,3965 2918,3936 2945,3912 2975,3891 3007,3876 3042,3864 3079,3858 3117,3857 3157,3861 3197,3871 3238,3886 3280,3907 3322,3934 3363,3967 3403,4004 3443,4046 3481,4091 3518,4140 3519,4142 3519,4612 Z"/>
     <path fill="rgb(192,192,192)" stroke="none" d="M 3519,4612 L 3519,4142 3585,4245 3642,4355 3666,4411 3686,4467 3702,4522 3714,4576 3721,4628 3724,4677 3721,4724 3714,4767 3702,4807 3686,4844 3666,4876 3642,4905 3615,4930 3585,4950 3553,4966 3518,4977 3481,4983 3443,4984 3403,4980 3363,4970 3322,4955 3280,4934 3238,4907 3197,4875 3157,4838 3117,4796 3079,4751 3042,4702 2984,4612 3519,4612 Z M 3507,4600 L 2976,4600 2975,4598 2918,4487 2894,4431 2874,4375 2858,4320 2846,4266 2839,4214 2836,4164 2839,4118 2846,4074 2858,4034 2874,3998 2894,3965 2918,3936 2945,3912 2975,3891 3007,3876 3042,3864 3079,3858 3117,3857 3157,3861 3197,3871 3238,3886 3280,3907 3322,3934 3363,3967 3403,4004 3443,4046 3481,4091 3507,4125 3507,4600 Z"/>
     <path fill="rgb(193,193,193)" stroke="none" d="M 3507,4600 L 3507,4125 3518,4140 3585,4245 3642,4355 3666,4411 3686,4467 3702,4522 3714,4576 3721,4628 3724,4677 3721,4724 3714,4767 3702,4807 3686,4844 3666,4876 3642,4905 3615,4930 3585,4950 3553,4966 3518,4977 3481,4983 3443,4984 3403,4980 3363,4970 3322,4955 3280,4934 3238,4907 3197,4875 3157,4838 3117,4796 3079,4751 3042,4702 2976,4600 3507,4600 Z M 3496,4589 L 2970,4589 2918,4487 2894,4431 2874,4375 2858,4320 2846,4266 2839,4214 2836,4164 2839,4118 2846,4074 2858,4034 2874,3998 2894,3965 2918,3936 2945,3912 2975,3891 3007,3876 3042,3864 3079,3858 3117,3857 3157,3861 3197,3871 3238,3886 3280,3907 3322,3934 3363,3967 3403,4004 3443,4046 3481,4091 3496,4111 3496,4589 Z"/>
     <path fill="rgb(194,194,194)" stroke="none" d="M 3496,4589 L 3496,4111 3518,4140 3585,4245 3642,4355 3666,4411 3686,4467 3702,4522 3714,4576 3721,4628 3724,4677 3721,4724 3714,4767 3702,4807 3686,4844 3666,4876 3642,4905 3615,4930 3585,4950 3553,4966 3518,4977 3481,4983 3443,4984 3403,4980 3363,4970 3322,4955 3280,4934 3238,4907 3197,4875 3157,4838 3117,4796 3079,4751 3042,4702 2975,4598 2970,4589 3496,4589 Z M 3485,4578 L 2965,4578 2918,4487 2894,4431 2874,4375 2858,4320 2846,4266 2839,4214 2836,4164 2839,4118 2846,4074 2858,4034 2874,3998 2894,3965 2918,3936 2945,3912 2975,3891 3007,3876 3042,3864 3079,3858 3117,3857 3157,3861 3197,3871 3238,3886 3280,3907 3322,3934 3363,3967 3403,4004 3443,4046 3481,4091 3485,4096 3485,4578 Z"/>
     <path fill="rgb(195,195,195)" stroke="none" d="M 3485,4578 L 3485,4096 3518,4140 3585,4245 3642,4355 3666,4411 3686,4467 3702,4522 3714,4576 3721,4628 3724,4677 3721,4724 3714,4767 3702,4807 3686,4844 3666,4876 3642,4905 3615,4930 3585,4950 3553,4966 3518,4977 3481,4983 3443,4984 3403,4980 3363,4970 3322,4955 3280,4934 3238,4907 3197,4875 3157,4838 3117,4796 3079,4751 3042,4702 2975,4598 2965,4578 3485,4578 Z M 3473,4566 L 2959,4566 2918,4487 2894,4431 2874,4375 2858,4320 2846,4266 2839,4214 2836,4164 2839,4118 2846,4074 2858,4034 2874,3998 2894,3965 2918,3936 2945,3912 2975,3891 3007,3876 3042,3864 3079,3858 3117,3857 3157,3861 3197,3871 3238,3886 3280,3907 3322,3934 3363,3967 3403,4004 3443,4046 3473,4082 3473,4566 Z"/>
     <path fill="rgb(196,196,196)" stroke="none" d="M 3473,4566 L 3473,4082 3481,4091 3518,4140 3585,4245 3642,4355 3666,4411 3686,4467 3702,4522 3714,4576 3721,4628 3724,4677 3721,4724 3714,4767 3702,4807 3686,4844 3666,4876 3642,4905 3615,4930 3585,4950 3553,4966 3518,4977 3481,4983 3443,4984 3403,4980 3363,4970 3322,4955 3280,4934 3238,4907 3197,4875 3157,4838 3117,4796 3079,4751 3042,4702 2975,4598 2959,4566 3473,4566 Z M 3462,4555 L 2953,4555 2918,4487 2894,4431 2874,4375 2858,4320 2846,4266 2839,4214 2836,4164 2839,4118 2846,4074 2858,4034 2874,3998 2894,3965 2918,3936 2945,3912 2975,3891 3007,3876 3042,3864 3079,3858 3117,3857 3157,3861 3197,3871 3238,3886 3280,3907 3322,3934 3363,3967 3403,4004 3443,4046 3462,4069 3462,4555 Z"/>
     <path fill="rgb(197,197,197)" stroke="none" d="M 3462,4555 L 3462,4069 3481,4091 3518,4140 3585,4245 3642,4355 3666,4411 3686,4467 3702,4522 3714,4576 3721,4628 3724,4677 3721,4724 3714,4767 3702,4807 3686,4844 3666,4876 3642,4905 3615,4930 3585,4950 3553,4966 3518,4977 3481,4983 3443,4984 3403,4980 3363,4970 3322,4955 3280,4934 3238,4907 3197,4875 3157,4838 3117,4796 3079,4751 3042,4702 2975,4598 2953,4555 3462,4555 Z M 3451,4544 L 2947,4544 2918,4487 2894,4431 2874,4375 2858,4320 2846,4266 2839,4214 2836,4164 2839,4118 2846,4074 2858,4034 2874,3998 2894,3965 2918,3936 2945,3912 2975,3891 3007,3876 3042,3864 3079,3858 3117,3857 3157,3861 3197,3871 3238,3886 3280,3907 3322,3934 3363,3967 3403,4004 3443,4046 3451,4055 3451,4544 Z"/>
     <path fill="rgb(198,198,198)" stroke="none" d="M 3451,4544 L 3451,4055 3481,4091 3518,4140 3585,4245 3642,4355 3666,4411 3686,4467 3702,4522 3714,4576 3721,4628 3724,4677 3721,4724 3714,4767 3702,4807 3686,4844 3666,4876 3642,4905 3615,4930 3585,4950 3553,4966 3518,4977 3481,4983 3443,4984 3403,4980 3363,4970 3322,4955 3280,4934 3238,4907 3197,4875 3157,4838 3117,4796 3079,4751 3042,4702 2975,4598 2947,4544 3451,4544 Z M 3440,4533 L 2942,4533 2918,4487 2894,4431 2874,4375 2858,4320 2846,4266 2839,4214 2836,4164 2839,4118 2846,4074 2858,4034 2874,3998 2894,3965 2918,3936 2945,3912 2975,3891 3007,3876 3042,3864 3079,3858 3117,3857 3157,3861 3197,3871 3238,3886 3280,3907 3322,3934 3363,3967 3403,4004 3440,4043 3440,4533 Z"/>
     <path fill="rgb(199,199,199)" stroke="none" d="M 3440,4533 L 3440,4043 3443,4046 3481,4091 3518,4140 3585,4245 3642,4355 3666,4411 3686,4467 3702,4522 3714,4576 3721,4628 3724,4677 3721,4724 3714,4767 3702,4807 3686,4844 3666,4876 3642,4905 3615,4930 3585,4950 3553,4966 3518,4977 3481,4983 3443,4984 3403,4980 3363,4970 3322,4955 3280,4934 3238,4907 3197,4875 3157,4838 3117,4796 3079,4751 3042,4702 2975,4598 2942,4533 3440,4533 Z M 3181,3867 L 3197,3871 3238,3886 3280,3907 3322,3934 3363,3967 3403,4004 3428,4030 3428,4521 2935,4521 2918,4487 2894,4431 2874,4375 2858,4320 2846,4266 2839,4214 2836,4164 2839,4118 2846,4074 2858,4034 2874,3998 2894,3965 2918,3936 2945,3912 2975,3891 3007,3876 3033,3867 3181,3867 Z"/>
     <path fill="rgb(200,200,200)" stroke="none" d="M 3428,4521 L 3428,4030 3443,4046 3481,4091 3518,4140 3585,4245 3642,4355 3666,4411 3686,4467 3702,4522 3714,4576 3721,4628 3724,4677 3721,4724 3714,4767 3702,4807 3686,4844 3666,4876 3642,4905 3615,4930 3585,4950 3553,4966 3518,4977 3481,4983 3443,4984 3403,4980 3363,4970 3322,4955 3280,4934 3238,4907 3197,4875 3157,4838 3117,4796 3079,4751 3042,4702 2975,4598 2935,4521 3428,4521 Z M 3033,3867 L 3042,3864 3079,3858 3117,3857 3157,3861 3181,3867 3033,3867 Z M 3216,3878 L 3238,3886 3280,3907 3322,3934 3363,3967 3403,4004 3417,4019 3417,4510 2930,4510 2918,4487 2894,4431 2874,4375 2858,4320 2846,4266 2839,4214 2836,4164 2839,4118 2846,4074 2858,4034 2874,3998 2894,3965 2918,3936 2945,3912 2975,3891 3003,3878 3216,3878 Z"/>
     <path fill="rgb(201,201,201)" stroke="none" d="M 3417,4510 L 3417,4019 3443,4046 3481,4091 3518,4140 3585,4245 3642,4355 3666,4411 3686,4467 3702,4522 3714,4576 3721,4628 3724,4677 3721,4724 3714,4767 3702,4807 3686,4844 3666,4876 3642,4905 3615,4930 3585,4950 3553,4966 3518,4977 3481,4983 3443,4984 3403,4980 3363,4970 3322,4955 3280,4934 3238,4907 3197,4875 3157,4838 3117,4796 3079,4751 3042,4702 2975,4598 2930,4510 3417,4510 Z M 3003,3878 L 3007,3876 3042,3864 3079,3858 3117,3857 3157,3861 3197,3871 3216,3878 3003,3878 Z M 3244,3889 L 3280,3907 3322,3934 3363,3967 3403,4004 3406,4007 3406,4499 2924,4499 2918,4487 2894,4431 2874,4375 2858,4320 2846,4266 2839,4214 2836,4164 2839,4118 2846,4074 2858,4034 2874,3998 2894,3965 2918,3936 2945,3912 2975,3891 2979,3889 3244,3889 Z"/>
     <path fill="rgb(202,202,202)" stroke="none" d="M 3406,4499 L 3406,4007 3443,4046 3481,4091 3518,4140 3585,4245 3642,4355 3666,4411 3686,4467 3702,4522 3714,4576 3721,4628 3724,4677 3721,4724 3714,4767 3702,4807 3686,4844 3666,4876 3642,4905 3615,4930 3585,4950 3553,4966 3518,4977 3481,4983 3443,4984 3403,4980 3363,4970 3322,4955 3280,4934 3238,4907 3197,4875 3157,4838 3117,4796 3079,4751 3042,4702 2975,4598 2924,4499 3406,4499 Z M 2979,3889 L 3007,3876 3042,3864 3079,3858 3117,3857 3157,3861 3197,3871 3238,3886 3244,3889 2979,3889 Z M 3268,3901 L 3280,3907 3322,3934 3363,3967 3394,3996 3394,4487 2918,4487 2894,4431 2874,4375 2858,4320 2846,4266 2839,4214 2836,4164 2839,4118 2846,4074 2858,4034 2874,3998 2894,3965 2918,3936 2945,3912 2961,3901 3268,3901 Z"/>
     <path fill="rgb(203,203,203)" stroke="none" d="M 3394,4487 L 3394,3996 3403,4004 3443,4046 3481,4091 3518,4140 3585,4245 3642,4355 3666,4411 3686,4467 3702,4522 3714,4576 3721,4628 3724,4677 3721,4724 3714,4767 3702,4807 3686,4844 3666,4876 3642,4905 3615,4930 3585,4950 3553,4966 3518,4977 3481,4983 3443,4984 3403,4980 3363,4970 3322,4955 3280,4934 3238,4907 3197,4875 3157,4838 3117,4796 3079,4751 3042,4702 2975,4598 2918,4487 3394,4487 Z M 2961,3901 L 2975,3891 3007,3876 3042,3864 3079,3858 3117,3857 3157,3861 3197,3871 3238,3886 3268,3901 2961,3901 Z M 3288,3912 L 3322,3934 3363,3967 3383,3986 3383,4476 2913,4476 2894,4431 2874,4375 2858,4320 2846,4266 2839,4214 2836,4164 2839,4118 2846,4074 2858,4034 2874,3998 2894,3965 2918,3936 2945,3912 3288,3912 Z"/>
     <path fill="rgb(204,204,204)" stroke="none" d="M 3383,4476 L 3383,3986 3403,4004 3443,4046 3481,4091 3518,4140 3585,4245 3642,4355 3666,4411 3686,4467 3702,4522 3714,4576 3721,4628 3724,4677 3721,4724 3714,4767 3702,4807 3686,4844 3666,4876 3642,4905 3615,4930 3585,4950 3553,4966 3518,4977 3481,4983 3443,4984 3403,4980 3363,4970 3322,4955 3280,4934 3238,4907 3197,4875 3157,4838 3117,4796 3079,4751 3042,4702 2975,4598 2918,4487 2913,4476 3383,4476 Z M 2945,3912 L 2975,3891 3007,3876 3042,3864 3079,3858 3117,3857 3157,3861 3197,3871 3238,3886 3280,3907 3288,3912 2945,3912 Z M 3305,3923 L 3322,3934 3363,3967 3372,3975 3372,4465 2909,4465 2894,4431 2874,4375 2858,4320 2846,4266 2839,4214 2836,4164 2839,4118 2846,4074 2858,4034 2874,3998 2894,3965 2918,3936 2933,3923 3305,3923 Z"/>
     <path fill="rgb(205,205,205)" stroke="none" d="M 3372,4465 L 3372,3975 3403,4004 3443,4046 3481,4091 3518,4140 3585,4245 3642,4355 3666,4411 3686,4467 3702,4522 3714,4576 3721,4628 3724,4677 3721,4724 3714,4767 3702,4807 3686,4844 3666,4876 3642,4905 3615,4930 3585,4950 3553,4966 3518,4977 3481,4983 3443,4984 3403,4980 3363,4970 3322,4955 3280,4934 3238,4907 3197,4875 3157,4838 3117,4796 3079,4751 3042,4702 2975,4598 2918,4487 2909,4465 3372,4465 Z M 2933,3923 L 2945,3912 2975,3891 3007,3876 3042,3864 3079,3858 3117,3857 3157,3861 3197,3871 3238,3886 3280,3907 3305,3923 2933,3923 Z M 3323,3935 L 3360,3965 3360,4453 2903,4453 2894,4431 2874,4375 2858,4320 2846,4266 2842,4236 2842,4099 2846,4074 2858,4034 2874,3998 2894,3965 2918,3936 2919,3935 3323,3935 Z"/>
     <path fill="rgb(206,206,206)" stroke="none" d="M 2842,4236 L 2839,4214 2836,4164 2839,4118 2842,4099 2842,4236 Z M 3360,4453 L 3360,3965 3363,3967 3403,4004 3443,4046 3481,4091 3518,4140 3585,4245 3642,4355 3666,4411 3686,4467 3702,4522 3714,4576 3721,4628 3724,4677 3721,4724 3714,4767 3702,4807 3686,4844 3666,4876 3642,4905 3615,4930 3585,4950 3553,4966 3518,4977 3481,4983 3443,4984 3403,4980 3363,4970 3322,4955 3280,4934 3238,4907 3197,4875 3157,4838 3117,4796 3079,4751 3042,4702 2975,4598 2918,4487 2903,4453 3360,4453 Z M 2919,3935 L 2945,3912 2975,3891 3007,3876 3042,3864 3079,3858 3117,3857 3157,3861 3197,3871 3238,3886 3280,3907 3322,3934 3323,3935 2919,3935 Z M 3337,3946 L 3349,3956 3349,4442 2899,4442 2894,4431 2874,4375 2858,4320 2853,4298 2853,4051 2858,4034 2874,3998 2894,3965 2910,3946 3337,3946 Z"/>
     <path fill="rgb(207,207,207)" stroke="none" d="M 2853,4298 L 2846,4266 2839,4214 2836,4164 2839,4118 2846,4074 2853,4051 2853,4298 Z M 3349,4442 L 3349,3956 3363,3967 3403,4004 3443,4046 3481,4091 3518,4140 3585,4245 3642,4355 3666,4411 3686,4467 3702,4522 3714,4576 3721,4628 3724,4677 3721,4724 3714,4767 3702,4807 3686,4844 3666,4876 3642,4905 3615,4930 3585,4950 3553,4966 3518,4977 3481,4983 3443,4984 3403,4980 3363,4970 3322,4955 3280,4934 3238,4907 3197,4875 3157,4838 3117,4796 3079,4751 3042,4702 2975,4598 2918,4487 2899,4442 3349,4442 Z M 2910,3946 L 2918,3936 2945,3912 2975,3891 3007,3876 3042,3864 3079,3858 3117,3857 3157,3861 3197,3871 3238,3886 3280,3907 3322,3934 3337,3946 2910,3946 Z M 3338,3957 L 3338,4431 2894,4431 2874,4375 2864,4341 2864,4021 2874,3998 2894,3965 2901,3957 3338,3957 Z"/>
     <path fill="rgb(208,208,208)" stroke="none" d="M 2864,4341 L 2858,4320 2846,4266 2839,4214 2836,4164 2839,4118 2846,4074 2858,4034 2864,4021 2864,4341 Z M 3338,4431 L 3338,3957 2901,3957 2918,3936 2945,3912 2975,3891 3007,3876 3042,3864 3079,3858 3117,3857 3157,3861 3197,3871 3238,3886 3280,3907 3322,3934 3363,3967 3403,4004 3443,4046 3481,4091 3518,4140 3585,4245 3642,4355 3666,4411 3686,4467 3702,4522 3714,4576 3721,4628 3724,4677 3721,4724 3714,4767 3702,4807 3686,4844 3666,4876 3642,4905 3615,4930 3585,4950 3553,4966 3518,4977 3481,4983 3443,4984 3403,4980 3363,4970 3322,4955 3280,4934 3238,4907 3197,4875 3157,4838 3117,4796 3079,4751 3042,4702 2975,4598 2918,4487 2894,4431 3338,4431 Z M 3327,3969 L 3327,4420 2890,4420 2876,4381 2876,3995 2892,3969 3327,3969 Z"/>
     <path fill="rgb(209,209,209)" stroke="none" d="M 2876,4381 L 2874,4375 2858,4320 2846,4266 2839,4214 2836,4164 2839,4118 2846,4074 2858,4034 2874,3998 2876,3995 2876,4381 Z M 3327,4420 L 3327,3969 2892,3969 2894,3965 2918,3936 2945,3912 2975,3891 3007,3876 3042,3864 3079,3858 3117,3857 3157,3861 3197,3871 3238,3886 3280,3907 3322,3934 3363,3967 3403,4004 3443,4046 3481,4091 3518,4140 3585,4245 3642,4355 3666,4411 3686,4467 3702,4522 3714,4576 3721,4628 3724,4677 3721,4724 3714,4767 3702,4807 3686,4844 3666,4876 3642,4905 3615,4930 3585,4950 3553,4966 3518,4977 3481,4983 3443,4984 3403,4980 3363,4970 3322,4955 3280,4934 3238,4907 3197,4875 3157,4838 3117,4796 3079,4751 3042,4702 2975,4598 2918,4487 2894,4431 2890,4420 3327,4420 Z M 2887,3980 L 3315,3980 3315,4408 2887,4408 2887,3980 Z"/>
     <path fill="rgb(210,210,210)" stroke="none" d="M 2887,3980 L 2887,4408 3315,4408 3315,3980 2887,3980 Z M 2898,3991 L 3304,3991 3304,4397 2898,4397 2898,3991 Z M 3280,3907 L 3322,3934 3363,3967 3403,4004 3443,4046 3481,4091 3518,4140 3585,4245 3642,4355 3666,4411 3686,4467 3702,4522 3714,4576 3721,4628 3724,4677 3721,4724 3714,4767 3702,4807 3686,4844 3666,4876 3642,4905 3615,4930 3585,4950 3553,4966 3518,4977 3481,4983 3443,4984 3403,4980 3363,4970 3322,4955 3280,4934 3238,4907 3197,4875 3157,4838 3117,4796 3079,4751 3042,4702 2975,4598 2918,4487 2894,4431 2874,4375 2858,4320 2846,4266 2839,4214 2836,4164 2839,4118 2846,4074 2858,4034 2874,3998 2894,3965 2918,3936 2945,3912 2975,3891 3007,3876 3042,3864 3079,3858 3117,3857 3157,3861 3197,3871 3238,3886 3280,3907 Z"/>
     <path fill="rgb(211,211,211)" stroke="none" d="M 2898,3991 L 2898,4397 3304,4397 3304,3991 2898,3991 Z M 2909,4002 L 3293,4002 3293,4386 2909,4386 2909,4002 Z M 3280,3907 L 3322,3934 3363,3967 3403,4004 3443,4046 3481,4091 3518,4140 3585,4245 3642,4355 3666,4411 3686,4467 3702,4522 3714,4576 3721,4628 3724,4677 3721,4724 3714,4767 3702,4807 3686,4844 3666,4876 3642,4905 3615,4930 3585,4950 3553,4966 3518,4977 3481,4983 3443,4984 3403,4980 3363,4970 3322,4955 3280,4934 3238,4907 3197,4875 3157,4838 3117,4796 3079,4751 3042,4702 2975,4598 2918,4487 2894,4431 2874,4375 2858,4320 2846,4266 2839,4214 2836,4164 2839,4118 2846,4074 2858,4034 2874,3998 2894,3965 2918,3936 2945,3912 2975,3891 3007,3876 3042,3864 3079,3858 3117,3857 3157,3861 3197,3871 3238,3886 3280,3907 Z"/>
     <path fill="rgb(212,212,212)" stroke="none" d="M 2909,4002 L 2909,4386 3293,4386 3293,4002 2909,4002 Z M 2921,4014 L 3281,4014 3281,4374 2921,4374 2921,4014 Z M 3280,3907 L 3322,3934 3363,3967 3403,4004 3443,4046 3481,4091 3518,4140 3585,4245 3642,4355 3666,4411 3686,4467 3702,4522 3714,4576 3721,4628 3724,4677 3721,4724 3714,4767 3702,4807 3686,4844 3666,4876 3642,4905 3615,4930 3585,4950 3553,4966 3518,4977 3481,4983 3443,4984 3403,4980 3363,4970 3322,4955 3280,4934 3238,4907 3197,4875 3157,4838 3117,4796 3079,4751 3042,4702 2975,4598 2918,4487 2894,4431 2874,4375 2858,4320 2846,4266 2839,4214 2836,4164 2839,4118 2846,4074 2858,4034 2874,3998 2894,3965 2918,3936 2945,3912 2975,3891 3007,3876 3042,3864 3079,3858 3117,3857 3157,3861 3197,3871 3238,3886 3280,3907 Z"/>
     <path fill="rgb(213,213,213)" stroke="none" d="M 2921,4014 L 2921,4374 3281,4374 3281,4014 2921,4014 Z M 2932,4025 L 3270,4025 3270,4363 2932,4363 2932,4025 Z M 3280,3907 L 3322,3934 3363,3967 3403,4004 3443,4046 3481,4091 3518,4140 3585,4245 3642,4355 3666,4411 3686,4467 3702,4522 3714,4576 3721,4628 3724,4677 3721,4724 3714,4767 3702,4807 3686,4844 3666,4876 3642,4905 3615,4930 3585,4950 3553,4966 3518,4977 3481,4983 3443,4984 3403,4980 3363,4970 3322,4955 3280,4934 3238,4907 3197,4875 3157,4838 3117,4796 3079,4751 3042,4702 2975,4598 2918,4487 2894,4431 2874,4375 2858,4320 2846,4266 2839,4214 2836,4164 2839,4118 2846,4074 2858,4034 2874,3998 2894,3965 2918,3936 2945,3912 2975,3891 3007,3876 3042,3864 3079,3858 3117,3857 3157,3861 3197,3871 3238,3886 3280,3907 Z"/>
     <path fill="rgb(214,214,214)" stroke="none" d="M 2932,4025 L 2932,4363 3270,4363 3270,4025 2932,4025 Z M 2943,4036 L 3259,4036 3259,4352 2943,4352 2943,4036 Z M 3280,3907 L 3322,3934 3363,3967 3403,4004 3443,4046 3481,4091 3518,4140 3585,4245 3642,4355 3666,4411 3686,4467 3702,4522 3714,4576 3721,4628 3724,4677 3721,4724 3714,4767 3702,4807 3686,4844 3666,4876 3642,4905 3615,4930 3585,4950 3553,4966 3518,4977 3481,4983 3443,4984 3403,4980 3363,4970 3322,4955 3280,4934 3238,4907 3197,4875 3157,4838 3117,4796 3079,4751 3042,4702 2975,4598 2918,4487 2894,4431 2874,4375 2858,4320 2846,4266 2839,4214 2836,4164 2839,4118 2846,4074 2858,4034 2874,3998 2894,3965 2918,3936 2945,3912 2975,3891 3007,3876 3042,3864 3079,3858 3117,3857 3157,3861 3197,3871 3238,3886 3280,3907 Z"/>
     <path fill="rgb(215,215,215)" stroke="none" d="M 2943,4036 L 2943,4352 3259,4352 3259,4036 2943,4036 Z M 2955,4048 L 3247,4048 3247,4340 2955,4340 2955,4048 Z M 3280,3907 L 3322,3934 3363,3967 3403,4004 3443,4046 3481,4091 3518,4140 3585,4245 3642,4355 3666,4411 3686,4467 3702,4522 3714,4576 3721,4628 3724,4677 3721,4724 3714,4767 3702,4807 3686,4844 3666,4876 3642,4905 3615,4930 3585,4950 3553,4966 3518,4977 3481,4983 3443,4984 3403,4980 3363,4970 3322,4955 3280,4934 3238,4907 3197,4875 3157,4838 3117,4796 3079,4751 3042,4702 2975,4598 2918,4487 2894,4431 2874,4375 2858,4320 2846,4266 2839,4214 2836,4164 2839,4118 2846,4074 2858,4034 2874,3998 2894,3965 2918,3936 2945,3912 2975,3891 3007,3876 3042,3864 3079,3858 3117,3857 3157,3861 3197,3871 3238,3886 3280,3907 Z"/>
     <path fill="rgb(216,216,216)" stroke="none" d="M 2955,4048 L 2955,4340 3247,4340 3247,4048 2955,4048 Z M 2966,4059 L 3236,4059 3236,4329 2966,4329 2966,4059 Z M 3280,3907 L 3322,3934 3363,3967 3403,4004 3443,4046 3481,4091 3518,4140 3585,4245 3642,4355 3666,4411 3686,4467 3702,4522 3714,4576 3721,4628 3724,4677 3721,4724 3714,4767 3702,4807 3686,4844 3666,4876 3642,4905 3615,4930 3585,4950 3553,4966 3518,4977 3481,4983 3443,4984 3403,4980 3363,4970 3322,4955 3280,4934 3238,4907 3197,4875 3157,4838 3117,4796 3079,4751 3042,4702 2975,4598 2918,4487 2894,4431 2874,4375 2858,4320 2846,4266 2839,4214 2836,4164 2839,4118 2846,4074 2858,4034 2874,3998 2894,3965 2918,3936 2945,3912 2975,3891 3007,3876 3042,3864 3079,3858 3117,3857 3157,3861 3197,3871 3238,3886 3280,3907 Z"/>
     <path fill="rgb(217,217,217)" stroke="none" d="M 2966,4059 L 2966,4329 3236,4329 3236,4059 2966,4059 Z M 2977,4070 L 3225,4070 3225,4318 2977,4318 2977,4070 Z M 3280,3907 L 3322,3934 3363,3967 3403,4004 3443,4046 3481,4091 3518,4140 3585,4245 3642,4355 3666,4411 3686,4467 3702,4522 3714,4576 3721,4628 3724,4677 3721,4724 3714,4767 3702,4807 3686,4844 3666,4876 3642,4905 3615,4930 3585,4950 3553,4966 3518,4977 3481,4983 3443,4984 3403,4980 3363,4970 3322,4955 3280,4934 3238,4907 3197,4875 3157,4838 3117,4796 3079,4751 3042,4702 2975,4598 2918,4487 2894,4431 2874,4375 2858,4320 2846,4266 2839,4214 2836,4164 2839,4118 2846,4074 2858,4034 2874,3998 2894,3965 2918,3936 2945,3912 2975,3891 3007,3876 3042,3864 3079,3858 3117,3857 3157,3861 3197,3871 3238,3886 3280,3907 Z"/>
     <path fill="rgb(218,218,218)" stroke="none" d="M 2977,4070 L 2977,4318 3225,4318 3225,4070 2977,4070 Z M 2989,4082 L 3214,4082 3214,4307 2989,4307 2989,4082 Z M 3280,3907 L 3322,3934 3363,3967 3403,4004 3443,4046 3481,4091 3518,4140 3585,4245 3642,4355 3666,4411 3686,4467 3702,4522 3714,4576 3721,4628 3724,4677 3721,4724 3714,4767 3702,4807 3686,4844 3666,4876 3642,4905 3615,4930 3585,4950 3553,4966 3518,4977 3481,4983 3443,4984 3403,4980 3363,4970 3322,4955 3280,4934 3238,4907 3197,4875 3157,4838 3117,4796 3079,4751 3042,4702 2975,4598 2918,4487 2894,4431 2874,4375 2858,4320 2846,4266 2839,4214 2836,4164 2839,4118 2846,4074 2858,4034 2874,3998 2894,3965 2918,3936 2945,3912 2975,3891 3007,3876 3042,3864 3079,3858 3117,3857 3157,3861 3197,3871 3238,3886 3280,3907 Z"/>
     <path fill="rgb(219,219,219)" stroke="none" d="M 2989,4082 L 2989,4307 3214,4307 3214,4082 2989,4082 Z M 3000,4093 L 3202,4093 3202,4295 3000,4295 3000,4093 Z M 3280,3907 L 3322,3934 3363,3967 3403,4004 3443,4046 3481,4091 3518,4140 3585,4245 3642,4355 3666,4411 3686,4467 3702,4522 3714,4576 3721,4628 3724,4677 3721,4724 3714,4767 3702,4807 3686,4844 3666,4876 3642,4905 3615,4930 3585,4950 3553,4966 3518,4977 3481,4983 3443,4984 3403,4980 3363,4970 3322,4955 3280,4934 3238,4907 3197,4875 3157,4838 3117,4796 3079,4751 3042,4702 2975,4598 2918,4487 2894,4431 2874,4375 2858,4320 2846,4266 2839,4214 2836,4164 2839,4118 2846,4074 2858,4034 2874,3998 2894,3965 2918,3936 2945,3912 2975,3891 3007,3876 3042,3864 3079,3858 3117,3857 3157,3861 3197,3871 3238,3886 3280,3907 Z"/>
     <path fill="rgb(220,220,220)" stroke="none" d="M 3000,4093 L 3000,4295 3202,4295 3202,4093 3000,4093 Z M 3011,4104 L 3191,4104 3191,4284 3011,4284 3011,4104 Z M 3280,3907 L 3322,3934 3363,3967 3403,4004 3443,4046 3481,4091 3518,4140 3585,4245 3642,4355 3666,4411 3686,4467 3702,4522 3714,4576 3721,4628 3724,4677 3721,4724 3714,4767 3702,4807 3686,4844 3666,4876 3642,4905 3615,4930 3585,4950 3553,4966 3518,4977 3481,4983 3443,4984 3403,4980 3363,4970 3322,4955 3280,4934 3238,4907 3197,4875 3157,4838 3117,4796 3079,4751 3042,4702 2975,4598 2918,4487 2894,4431 2874,4375 2858,4320 2846,4266 2839,4214 2836,4164 2839,4118 2846,4074 2858,4034 2874,3998 2894,3965 2918,3936 2945,3912 2975,3891 3007,3876 3042,3864 3079,3858 3117,3857 3157,3861 3197,3871 3238,3886 3280,3907 Z"/>
     <path fill="rgb(221,221,221)" stroke="none" d="M 3011,4104 L 3011,4284 3191,4284 3191,4104 3011,4104 Z M 3022,4115 L 3180,4115 3180,4273 3022,4273 3022,4115 Z M 3280,3907 L 3322,3934 3363,3967 3403,4004 3443,4046 3481,4091 3518,4140 3585,4245 3642,4355 3666,4411 3686,4467 3702,4522 3714,4576 3721,4628 3724,4677 3721,4724 3714,4767 3702,4807 3686,4844 3666,4876 3642,4905 3615,4930 3585,4950 3553,4966 3518,4977 3481,4983 3443,4984 3403,4980 3363,4970 3322,4955 3280,4934 3238,4907 3197,4875 3157,4838 3117,4796 3079,4751 3042,4702 2975,4598 2918,4487 2894,4431 2874,4375 2858,4320 2846,4266 2839,4214 2836,4164 2839,4118 2846,4074 2858,4034 2874,3998 2894,3965 2918,3936 2945,3912 2975,3891 3007,3876 3042,3864 3079,3858 3117,3857 3157,3861 3197,3871 3238,3886 3280,3907 Z"/>
     <path fill="rgb(222,222,222)" stroke="none" d="M 3022,4115 L 3022,4273 3180,4273 3180,4115 3022,4115 Z M 3034,4127 L 3168,4127 3168,4261 3034,4261 3034,4127 Z M 3280,3907 L 3322,3934 3363,3967 3403,4004 3443,4046 3481,4091 3518,4140 3585,4245 3642,4355 3666,4411 3686,4467 3702,4522 3714,4576 3721,4628 3724,4677 3721,4724 3714,4767 3702,4807 3686,4844 3666,4876 3642,4905 3615,4930 3585,4950 3553,4966 3518,4977 3481,4983 3443,4984 3403,4980 3363,4970 3322,4955 3280,4934 3238,4907 3197,4875 3157,4838 3117,4796 3079,4751 3042,4702 2975,4598 2918,4487 2894,4431 2874,4375 2858,4320 2846,4266 2839,4214 2836,4164 2839,4118 2846,4074 2858,4034 2874,3998 2894,3965 2918,3936 2945,3912 2975,3891 3007,3876 3042,3864 3079,3858 3117,3857 3157,3861 3197,3871 3238,3886 3280,3907 Z"/>
     <path fill="rgb(223,223,223)" stroke="none" d="M 3034,4127 L 3034,4261 3168,4261 3168,4127 3034,4127 Z M 3045,4138 L 3157,4138 3157,4250 3045,4250 3045,4138 Z M 3280,3907 L 3322,3934 3363,3967 3403,4004 3443,4046 3481,4091 3518,4140 3585,4245 3642,4355 3666,4411 3686,4467 3702,4522 3714,4576 3721,4628 3724,4677 3721,4724 3714,4767 3702,4807 3686,4844 3666,4876 3642,4905 3615,4930 3585,4950 3553,4966 3518,4977 3481,4983 3443,4984 3403,4980 3363,4970 3322,4955 3280,4934 3238,4907 3197,4875 3157,4838 3117,4796 3079,4751 3042,4702 2975,4598 2918,4487 2894,4431 2874,4375 2858,4320 2846,4266 2839,4214 2836,4164 2839,4118 2846,4074 2858,4034 2874,3998 2894,3965 2918,3936 2945,3912 2975,3891 3007,3876 3042,3864 3079,3858 3117,3857 3157,3861 3197,3871 3238,3886 3280,3907 Z"/>
     <path fill="rgb(224,224,224)" stroke="none" d="M 3045,4138 L 3045,4250 3157,4250 3157,4138 3045,4138 Z M 3056,4149 L 3146,4149 3146,4239 3056,4239 3056,4149 Z M 3280,3907 L 3322,3934 3363,3967 3403,4004 3443,4046 3481,4091 3518,4140 3585,4245 3642,4355 3666,4411 3686,4467 3702,4522 3714,4576 3721,4628 3724,4677 3721,4724 3714,4767 3702,4807 3686,4844 3666,4876 3642,4905 3615,4930 3585,4950 3553,4966 3518,4977 3481,4983 3443,4984 3403,4980 3363,4970 3322,4955 3280,4934 3238,4907 3197,4875 3157,4838 3117,4796 3079,4751 3042,4702 2975,4598 2918,4487 2894,4431 2874,4375 2858,4320 2846,4266 2839,4214 2836,4164 2839,4118 2846,4074 2858,4034 2874,3998 2894,3965 2918,3936 2945,3912 2975,3891 3007,3876 3042,3864 3079,3858 3117,3857 3157,3861 3197,3871 3238,3886 3280,3907 Z"/>
     <path fill="rgb(225,225,225)" stroke="none" d="M 3056,4149 L 3056,4239 3146,4239 3146,4149 3056,4149 Z M 3068,4161 L 3134,4161 3134,4227 3068,4227 3068,4161 Z M 3280,3907 L 3322,3934 3363,3967 3403,4004 3443,4046 3481,4091 3518,4140 3585,4245 3642,4355 3666,4411 3686,4467 3702,4522 3714,4576 3721,4628 3724,4677 3721,4724 3714,4767 3702,4807 3686,4844 3666,4876 3642,4905 3615,4930 3585,4950 3553,4966 3518,4977 3481,4983 3443,4984 3403,4980 3363,4970 3322,4955 3280,4934 3238,4907 3197,4875 3157,4838 3117,4796 3079,4751 3042,4702 2975,4598 2918,4487 2894,4431 2874,4375 2858,4320 2846,4266 2839,4214 2836,4164 2839,4118 2846,4074 2858,4034 2874,3998 2894,3965 2918,3936 2945,3912 2975,3891 3007,3876 3042,3864 3079,3858 3117,3857 3157,3861 3197,3871 3238,3886 3280,3907 Z"/>
     <path fill="rgb(226,226,226)" stroke="none" d="M 3068,4161 L 3068,4227 3134,4227 3134,4161 3068,4161 Z M 3079,4172 L 3123,4172 3123,4216 3079,4216 3079,4172 Z M 3280,3907 L 3322,3934 3363,3967 3403,4004 3443,4046 3481,4091 3518,4140 3585,4245 3642,4355 3666,4411 3686,4467 3702,4522 3714,4576 3721,4628 3724,4677 3721,4724 3714,4767 3702,4807 3686,4844 3666,4876 3642,4905 3615,4930 3585,4950 3553,4966 3518,4977 3481,4983 3443,4984 3403,4980 3363,4970 3322,4955 3280,4934 3238,4907 3197,4875 3157,4838 3117,4796 3079,4751 3042,4702 2975,4598 2918,4487 2894,4431 2874,4375 2858,4320 2846,4266 2839,4214 2836,4164 2839,4118 2846,4074 2858,4034 2874,3998 2894,3965 2918,3936 2945,3912 2975,3891 3007,3876 3042,3864 3079,3858 3117,3857 3157,3861 3197,3871 3238,3886 3280,3907 Z"/>
     <path fill="rgb(227,227,227)" stroke="none" d="M 3079,4172 L 3079,4216 3123,4216 3123,4172 3079,4172 Z M 3090,4183 L 3112,4183 3112,4205 3090,4205 3090,4183 Z M 3280,3907 L 3322,3934 3363,3967 3403,4004 3443,4046 3481,4091 3518,4140 3585,4245 3642,4355 3666,4411 3686,4467 3702,4522 3714,4576 3721,4628 3724,4677 3721,4724 3714,4767 3702,4807 3686,4844 3666,4876 3642,4905 3615,4930 3585,4950 3553,4966 3518,4977 3481,4983 3443,4984 3403,4980 3363,4970 3322,4955 3280,4934 3238,4907 3197,4875 3157,4838 3117,4796 3079,4751 3042,4702 2975,4598 2918,4487 2894,4431 2874,4375 2858,4320 2846,4266 2839,4214 2836,4164 2839,4118 2846,4074 2858,4034 2874,3998 2894,3965 2918,3936 2945,3912 2975,3891 3007,3876 3042,3864 3079,3858 3117,3857 3157,3861 3197,3871 3238,3886 3280,3907 Z"/>
     <path fill="rgb(229,229,229)" stroke="none" d="M 3090,4183 L 3090,4205 3112,4205 3112,4183 3090,4183 Z M 3280,3907 L 3322,3934 3363,3967 3403,4004 3443,4046 3481,4091 3518,4140 3585,4245 3642,4355 3666,4411 3686,4467 3702,4522 3714,4576 3721,4628 3724,4677 3721,4724 3714,4767 3702,4807 3686,4844 3666,4876 3642,4905 3615,4930 3585,4950 3553,4966 3518,4977 3481,4983 3443,4984 3403,4980 3363,4970 3322,4955 3280,4934 3238,4907 3197,4875 3157,4838 3117,4796 3079,4751 3042,4702 2975,4598 2918,4487 2894,4431 2874,4375 2858,4320 2846,4266 2839,4214 2836,4164 2839,4118 2846,4074 2858,4034 2874,3998 2894,3965 2918,3936 2945,3912 2975,3891 3007,3876 3042,3864 3079,3858 3117,3857 3157,3861 3197,3871 3238,3886 3280,3907 Z"/>
     <path fill="none" stroke="rgb(127,127,127)" id="Drawing_27_0" stroke-width="40" stroke-linejoin="round" d="M 3280,3907 C 3502,4036 3724,4421 3724,4677 3724,4934 3502,5062 3280,4934 3058,4806 2836,4421 2836,4164 2836,3907 3058,3779 3280,3907 Z"/>
    </g>
    <g>
     <defs>
      <linearGradient id="Gradient_767" gradientUnits="userSpaceOnUse" x1="2643" y1="4534" x2="3533" y2="4536">
       <stop offset="0.1" stop-color="rgb(147,212,240)"/>
       <stop offset="1" stop-color="rgb(233,246,252)"/>
      </linearGradient>
     </defs>
     <path fill="url(#Gradient_767)" stroke="none" id="Drawing_28_0" d="M 3088,4022 L 3130,4049 3171,4082 3211,4119 3251,4161 3289,4206 3326,4255 3393,4360 3450,4470 3474,4526 3494,4582 3510,4637 3522,4691 3529,4743 3532,4792 3529,4839 3522,4882 3510,4922 3494,4959 3474,4991 3450,5020 3423,5045 3393,5065 3361,5081 3326,5092 3289,5098 3251,5099 3211,5095 3171,5085 3130,5070 3088,5049 3046,5022 3005,4990 2965,4953 2925,4911 2887,4866 2850,4817 2783,4713 2726,4602 2702,4546 2682,4490 2666,4435 2654,4381 2647,4329 2644,4279 2647,4233 2654,4189 2666,4149 2682,4113 2702,4080 2726,4051 2753,4027 2783,4006 2815,3991 2850,3979 2887,3973 2925,3972 2965,3976 3005,3986 3046,4001 3088,4022 Z"/>
     <path fill="none" stroke="rgb(255,255,255)" id="Drawing_28_1" stroke-width="40" stroke-linejoin="round" d="M 3088,4022 C 3310,4151 3532,4536 3532,4792 3532,5049 3310,5177 3088,5049 2866,4921 2644,4536 2644,4279 2644,4022 2866,3894 3088,4022 Z"/>
    </g>
    <g>
     <path fill="none" stroke="rgb(255,255,255)" id="Drawing_29_0" stroke-width="40" stroke-linejoin="round" d="M 2725,4036 L 3058,3843"/>
    </g>
    <g>
     <path fill="none" stroke="rgb(0,0,0)" id="Drawing_30_0" stroke-width="40" stroke-linejoin="round" d="M 4390,1854 L 6610,3202 6610,4421 4403,5704 C 4403,5704 3765,5319 3391,5127 3169,5062 3058,5127 2836,4806 2619,4677 2183,4421 2183,4421 L 2170,3137 4390,1854 Z"/>
    </g>
   </g>
  </g>
 </g>
</svg>