<?xml version="1.0" encoding="UTF-8"?>

<svg version="1.2" baseProfile="tiny" width="54.03mm" height="74.6mm" viewBox="3488 2053 5403 7460" preserveAspectRatio="xMidYMid" fill-rule="evenodd" stroke-width="28.222" stroke-linejoin="round" xmlns="http://www.w3.org/2000/svg" xmlns:xlink="http://www.w3.org/1999/xlink" xml:space="preserve">
 <g visibility="visible" id="Slide_1">
  <g id="DrawingGroup_1">
   <g>
    <path fill="rgb(221,221,221)" stroke="none" d="M 8360,9493 C 8752,9493 8722,9493 8843,9423 8964,9353 8843,9213 8600,9213 8600,9213 8358,9493 8360,9493 Z"/>
    <path fill="none" stroke="rgb(221,221,221)" id="Drawing_1_0" stroke-linejoin="round" d="M 8360,9493 C 8752,9493 8722,9493 8843,9423 8964,9353 8843,9213 8600,9213 8600,9213 8358,9493 8360,9493 Z"/>
   </g>
   <g id="DrawingGroup_2">
    <g>
     <defs>
      <linearGradient id="Gradient_777" gradientUnits="userSpaceOnUse" x1="3502" y1="5849" x2="8364" y2="5857">
       <stop offset="0.1" stop-color="rgb(51,51,51)"/>
       <stop offset="1" stop-color="rgb(153,153,153)"/>
      </linearGradient>
     </defs>
     <path fill="url(#Gradient_777)" stroke="rgb(178,178,178)" id="Drawing_2_0" stroke-width="40" stroke-linejoin="round" d="M 3508,6693 L 3508,2213 8358,5013 8354,9493 3508,6693 Z"/>
    </g>
    <g>
     <defs>
      <linearGradient id="Gradient_778" gradientUnits="userSpaceOnUse" x1="3622" y1="5849" x2="8241" y2="5857">
       <stop offset="0.1" stop-color="rgb(147,212,240)"/>
       <stop offset="1" stop-color="rgb(233,246,252)"/>
      </linearGradient>
     </defs>
     <path fill="url(#Gradient_778)" stroke="rgb(102,102,102)" id="Drawing_3_0" stroke-width="40" stroke-linejoin="round" d="M 3629,6623 L 3629,2423 8236,5083 8236,9283 3629,6623 Z"/>
    </g>
    <g>
     <defs>
      <linearGradient id="Gradient_779" gradientUnits="userSpaceOnUse" x1="6054" y1="2073" x2="6054" y2="5013">
       <stop offset="0.1" stop-color="rgb(51,51,51)"/>
       <stop offset="1" stop-color="rgb(153,153,153)"/>
      </linearGradient>
     </defs>
     <path fill="url(#Gradient_779)" stroke="rgb(178,178,178)" id="Drawing_4_0" stroke-width="40" stroke-linejoin="round" d="M 8358,5013 L 3508,2213 3750,2073 8600,4873 8358,5013 Z"/>
    </g>
    <g>
     <path fill="rgb(51,51,51)" stroke="none" d="M 8358,8546 L 8358,5013 8600,4873 8600,8546 8358,8546 Z"/>
     <path fill="rgb(52,52,52)" stroke="none" d="M 8600,8546 L 8600,9353 8358,9493 8358,8546 8600,8546 Z M 8358,8523 L 8358,5013 8600,4873 8600,8523 8358,8523 Z"/>
     <path fill="rgb(53,53,53)" stroke="none" d="M 8600,8523 L 8600,9353 8358,9493 8358,8523 8600,8523 Z M 8358,8501 L 8358,5013 8600,4873 8600,8501 8358,8501 Z"/>
     <path fill="rgb(54,54,54)" stroke="none" d="M 8600,8501 L 8600,9353 8358,9493 8358,8501 8600,8501 Z M 8358,8478 L 8358,5013 8600,4873 8600,8478 8358,8478 Z"/>
     <path fill="rgb(55,55,55)" stroke="none" d="M 8600,8478 L 8600,9353 8358,9493 8358,8478 8600,8478 Z M 8358,8455 L 8358,5013 8600,4873 8600,8455 8358,8455 Z"/>
     <path fill="rgb(56,56,56)" stroke="none" d="M 8600,8455 L 8600,9353 8358,9493 8358,8455 8600,8455 Z M 8358,8433 L 8358,5013 8600,4873 8600,8433 8358,8433 Z"/>
     <path fill="rgb(57,57,57)" stroke="none" d="M 8600,8433 L 8600,9353 8358,9493 8358,8433 8600,8433 Z M 8358,8410 L 8358,5013 8600,4873 8600,8410 8358,8410 Z"/>
     <path fill="rgb(58,58,58)" stroke="none" d="M 8600,8410 L 8600,9353 8358,9493 8358,8410 8600,8410 Z M 8358,8387 L 8358,5013 8600,4873 8600,8387 8358,8387 Z"/>
     <path fill="rgb(59,59,59)" stroke="none" d="M 8600,8387 L 8600,9353 8358,9493 8358,8387 8600,8387 Z M 8358,8365 L 8358,5013 8600,4873 8600,8365 8358,8365 Z"/>
     <path fill="rgb(60,60,60)" stroke="none" d="M 8600,8365 L 8600,9353 8358,9493 8358,8365 8600,8365 Z M 8358,8342 L 8358,5013 8600,4873 8600,8342 8358,8342 Z"/>
     <path fill="rgb(61,61,61)" stroke="none" d="M 8600,8342 L 8600,9353 8358,9493 8358,8342 8600,8342 Z M 8358,8319 L 8358,5013 8600,4873 8600,8319 8358,8319 Z"/>
     <path fill="rgb(62,62,62)" stroke="none" d="M 8600,8319 L 8600,9353 8358,9493 8358,8319 8600,8319 Z M 8358,8297 L 8358,5013 8600,4873 8600,8297 8358,8297 Z"/>
     <path fill="rgb(63,63,63)" stroke="none" d="M 8600,8297 L 8600,9353 8358,9493 8358,8297 8600,8297 Z M 8358,8274 L 8358,5013 8600,4873 8600,8274 8358,8274 Z"/>
     <path fill="rgb(64,64,64)" stroke="none" d="M 8600,8274 L 8600,9353 8358,9493 8358,8274 8600,8274 Z M 8358,8251 L 8358,5013 8600,4873 8600,8251 8358,8251 Z"/>
     <path fill="rgb(65,65,65)" stroke="none" d="M 8600,8251 L 8600,9353 8358,9493 8358,8251 8600,8251 Z M 8358,8229 L 8358,5013 8600,4873 8600,8229 8358,8229 Z"/>
     <path fill="rgb(66,66,66)" stroke="none" d="M 8600,8229 L 8600,9353 8358,9493 8358,8229 8600,8229 Z M 8358,8206 L 8358,5013 8600,4873 8600,8206 8358,8206 Z"/>
     <path fill="rgb(67,67,67)" stroke="none" d="M 8600,8206 L 8600,9353 8358,9493 8358,8206 8600,8206 Z M 8358,8183 L 8358,5013 8600,4873 8600,8183 8358,8183 Z"/>
     <path fill="rgb(68,68,68)" stroke="none" d="M 8600,8183 L 8600,9353 8358,9493 8358,8183 8600,8183 Z M 8358,8161 L 8358,5013 8600,4873 8600,8161 8358,8161 Z"/>
     <path fill="rgb(69,69,69)" stroke="none" d="M 8600,8161 L 8600,9353 8358,9493 8358,8161 8600,8161 Z M 8358,8138 L 8358,5013 8600,4873 8600,8138 8358,8138 Z"/>
     <path fill="rgb(70,70,70)" stroke="none" d="M 8600,8138 L 8600,9353 8358,9493 8358,8138 8600,8138 Z M 8358,8115 L 8358,5013 8600,4873 8600,8115 8358,8115 Z"/>
     <path fill="rgb(71,71,71)" stroke="none" d="M 8600,8115 L 8600,9353 8358,9493 8358,8115 8600,8115 Z M 8358,8093 L 8358,5013 8600,4873 8600,8093 8358,8093 Z"/>
     <path fill="rgb(72,72,72)" stroke="none" d="M 8600,8093 L 8600,9353 8358,9493 8358,8093 8600,8093 Z M 8358,8070 L 8358,5013 8600,4873 8600,8070 8358,8070 Z"/>
     <path fill="rgb(73,73,73)" stroke="none" d="M 8600,8070 L 8600,9353 8358,9493 8358,8070 8600,8070 Z M 8358,8047 L 8358,5013 8600,4873 8600,8047 8358,8047 Z"/>
     <path fill="rgb(74,74,74)" stroke="none" d="M 8600,8047 L 8600,9353 8358,9493 8358,8047 8600,8047 Z M 8358,8025 L 8358,5013 8600,4873 8600,8025 8358,8025 Z"/>
     <path fill="rgb(75,75,75)" stroke="none" d="M 8600,8025 L 8600,9353 8358,9493 8358,8025 8600,8025 Z M 8358,8002 L 8358,5013 8600,4873 8600,8002 8358,8002 Z"/>
     <path fill="rgb(76,76,76)" stroke="none" d="M 8600,8002 L 8600,9353 8358,9493 8358,8002 8600,8002 Z M 8358,7979 L 8358,5013 8600,4873 8600,7979 8358,7979 Z"/>
     <path fill="rgb(77,77,77)" stroke="none" d="M 8600,7979 L 8600,9353 8358,9493 8358,7979 8600,7979 Z M 8358,7957 L 8358,5013 8600,4873 8600,7957 8358,7957 Z"/>
     <path fill="rgb(78,78,78)" stroke="none" d="M 8600,7957 L 8600,9353 8358,9493 8358,7957 8600,7957 Z M 8358,7934 L 8358,5013 8600,4873 8600,7934 8358,7934 Z"/>
     <path fill="rgb(79,79,79)" stroke="none" d="M 8600,7934 L 8600,9353 8358,9493 8358,7934 8600,7934 Z M 8358,7911 L 8358,5013 8600,4873 8600,7911 8358,7911 Z"/>
     <path fill="rgb(80,80,80)" stroke="none" d="M 8600,7911 L 8600,9353 8358,9493 8358,7911 8600,7911 Z M 8358,7889 L 8358,5013 8600,4873 8600,7889 8358,7889 Z"/>
     <path fill="rgb(81,81,81)" stroke="none" d="M 8600,7889 L 8600,9353 8358,9493 8358,7889 8600,7889 Z M 8358,7866 L 8358,5013 8600,4873 8600,7866 8358,7866 Z"/>
     <path fill="rgb(82,82,82)" stroke="none" d="M 8600,7866 L 8600,9353 8358,9493 8358,7866 8600,7866 Z M 8358,7843 L 8358,5013 8600,4873 8600,7843 8358,7843 Z"/>
     <path fill="rgb(83,83,83)" stroke="none" d="M 8600,7843 L 8600,9353 8358,9493 8358,7843 8600,7843 Z M 8358,7821 L 8358,5013 8600,4873 8600,7821 8358,7821 Z"/>
     <path fill="rgb(84,84,84)" stroke="none" d="M 8600,7821 L 8600,9353 8358,9493 8358,7821 8600,7821 Z M 8358,7798 L 8358,5013 8600,4873 8600,7798 8358,7798 Z"/>
     <path fill="rgb(85,85,85)" stroke="none" d="M 8600,7798 L 8600,9353 8358,9493 8358,7798 8600,7798 Z M 8358,7775 L 8358,5013 8600,4873 8600,7775 8358,7775 Z"/>
     <path fill="rgb(86,86,86)" stroke="none" d="M 8600,7775 L 8600,9353 8358,9493 8358,7775 8600,7775 Z M 8358,7753 L 8358,5013 8600,4873 8600,7753 8358,7753 Z"/>
     <path fill="rgb(87,87,87)" stroke="none" d="M 8600,7753 L 8600,9353 8358,9493 8358,7753 8600,7753 Z M 8358,7730 L 8358,5013 8600,4873 8600,7730 8358,7730 Z"/>
     <path fill="rgb(88,88,88)" stroke="none" d="M 8600,7730 L 8600,9353 8358,9493 8358,7730 8600,7730 Z M 8358,7707 L 8358,5013 8600,4873 8600,7707 8358,7707 Z"/>
     <path fill="rgb(89,89,89)" stroke="none" d="M 8600,7707 L 8600,9353 8358,9493 8358,7707 8600,7707 Z M 8358,7685 L 8358,5013 8600,4873 8600,7685 8358,7685 Z"/>
     <path fill="rgb(90,90,90)" stroke="none" d="M 8600,7685 L 8600,9353 8358,9493 8358,7685 8600,7685 Z M 8358,7662 L 8358,5013 8600,4873 8600,7662 8358,7662 Z"/>
     <path fill="rgb(91,91,91)" stroke="none" d="M 8600,7662 L 8600,9353 8358,9493 8358,7662 8600,7662 Z M 8600,4876 L 8600,7639 8358,7639 8358,5013 8595,4876 8600,4876 Z"/>
     <path fill="rgb(92,92,92)" stroke="none" d="M 8600,7639 L 8600,9353 8358,9493 8358,7639 8600,7639 Z M 8595,4876 L 8600,4873 8600,4876 8595,4876 Z M 8600,4898 L 8600,7617 8358,7617 8358,5013 8557,4898 8600,4898 Z"/>
     <path fill="rgb(93,93,93)" stroke="none" d="M 8600,7617 L 8600,9353 8358,9493 8358,7617 8600,7617 Z M 8557,4898 L 8600,4873 8600,4898 8557,4898 Z M 8600,4921 L 8600,7594 8358,7594 8358,5013 8517,4921 8600,4921 Z"/>
     <path fill="rgb(94,94,94)" stroke="none" d="M 8600,7594 L 8600,9353 8358,9493 8358,7594 8600,7594 Z M 8517,4921 L 8600,4873 8600,4921 8517,4921 Z M 8600,4944 L 8600,7571 8358,7571 8358,5013 8477,4944 8600,4944 Z"/>
     <path fill="rgb(95,95,95)" stroke="none" d="M 8600,7571 L 8600,9353 8358,9493 8358,7571 8600,7571 Z M 8477,4944 L 8600,4873 8600,4944 8477,4944 Z M 8600,4966 L 8600,7549 8358,7549 8358,5013 8439,4966 8600,4966 Z"/>
     <path fill="rgb(96,96,96)" stroke="none" d="M 8600,7549 L 8600,9353 8358,9493 8358,7549 8600,7549 Z M 8439,4966 L 8600,4873 8600,4966 8439,4966 Z M 8600,4989 L 8600,7526 8358,7526 8358,5013 8399,4989 8600,4989 Z"/>
     <path fill="rgb(97,97,97)" stroke="none" d="M 8600,7526 L 8600,9353 8358,9493 8358,7526 8600,7526 Z M 8399,4989 L 8600,4873 8600,4989 8399,4989 Z M 8600,5012 L 8600,7503 8358,7503 8358,5013 8360,5012 8600,5012 Z"/>
     <path fill="rgb(98,98,98)" stroke="none" d="M 8600,7503 L 8600,9353 8358,9493 8358,7503 8600,7503 Z M 8360,5012 L 8600,4873 8600,5012 8360,5012 Z M 8600,5034 L 8600,7481 8358,7481 8358,5034 8600,5034 Z"/>
     <path fill="rgb(99,99,99)" stroke="none" d="M 8600,7481 L 8600,9353 8358,9493 8358,7481 8600,7481 Z M 8358,5034 L 8358,5013 8600,4873 8600,5034 8358,5034 Z M 8600,5057 L 8600,7458 8358,7458 8358,5057 8600,5057 Z"/>
     <path fill="rgb(100,100,100)" stroke="none" d="M 8600,7458 L 8600,9353 8358,9493 8358,7458 8600,7458 Z M 8358,5057 L 8358,5013 8600,4873 8600,5057 8358,5057 Z M 8600,5080 L 8600,7435 8358,7435 8358,5080 8600,5080 Z"/>
     <path fill="rgb(101,101,101)" stroke="none" d="M 8600,7435 L 8600,9353 8358,9493 8358,7435 8600,7435 Z M 8358,5080 L 8358,5013 8600,4873 8600,5080 8358,5080 Z M 8600,5102 L 8600,7413 8358,7413 8358,5102 8600,5102 Z"/>
     <path fill="rgb(102,102,102)" stroke="none" d="M 8600,7413 L 8600,9353 8358,9493 8358,7413 8600,7413 Z M 8358,5102 L 8358,5013 8600,4873 8600,5102 8358,5102 Z M 8600,5125 L 8600,7390 8358,7390 8358,5125 8600,5125 Z"/>
     <path fill="rgb(103,103,103)" stroke="none" d="M 8600,7390 L 8600,9353 8358,9493 8358,7390 8600,7390 Z M 8358,5125 L 8358,5013 8600,4873 8600,5125 8358,5125 Z M 8600,5148 L 8600,7367 8358,7367 8358,5148 8600,5148 Z"/>
     <path fill="rgb(104,104,104)" stroke="none" d="M 8600,7367 L 8600,9353 8358,9493 8358,7367 8600,7367 Z M 8358,5148 L 8358,5013 8600,4873 8600,5148 8358,5148 Z M 8600,5170 L 8600,7345 8358,7345 8358,5170 8600,5170 Z"/>
     <path fill="rgb(105,105,105)" stroke="none" d="M 8600,7345 L 8600,9353 8358,9493 8358,7345 8600,7345 Z M 8358,5170 L 8358,5013 8600,4873 8600,5170 8358,5170 Z M 8600,5193 L 8600,7322 8358,7322 8358,5193 8600,5193 Z"/>
     <path fill="rgb(106,106,106)" stroke="none" d="M 8600,7322 L 8600,9353 8358,9493 8358,7322 8600,7322 Z M 8358,5193 L 8358,5013 8600,4873 8600,5193 8358,5193 Z M 8600,5216 L 8600,7299 8358,7299 8358,5216 8600,5216 Z"/>
     <path fill="rgb(107,107,107)" stroke="none" d="M 8600,7299 L 8600,9353 8358,9493 8358,7299 8600,7299 Z M 8358,5216 L 8358,5013 8600,4873 8600,5216 8358,5216 Z M 8600,5238 L 8600,7277 8358,7277 8358,5238 8600,5238 Z"/>
     <path fill="rgb(108,108,108)" stroke="none" d="M 8600,7277 L 8600,9353 8358,9493 8358,7277 8600,7277 Z M 8358,5238 L 8358,5013 8600,4873 8600,5238 8358,5238 Z M 8600,5261 L 8600,7254 8358,7254 8358,5261 8600,5261 Z"/>
     <path fill="rgb(109,109,109)" stroke="none" d="M 8600,7254 L 8600,9353 8358,9493 8358,7254 8600,7254 Z M 8358,5261 L 8358,5013 8600,4873 8600,5261 8358,5261 Z M 8600,5284 L 8600,7231 8358,7231 8358,5284 8600,5284 Z"/>
     <path fill="rgb(110,110,110)" stroke="none" d="M 8600,7231 L 8600,9353 8358,9493 8358,7231 8600,7231 Z M 8358,5284 L 8358,5013 8600,4873 8600,5284 8358,5284 Z M 8600,5306 L 8600,7209 8358,7209 8358,5306 8600,5306 Z"/>
     <path fill="rgb(111,111,111)" stroke="none" d="M 8600,7209 L 8600,9353 8358,9493 8358,7209 8600,7209 Z M 8358,5306 L 8358,5013 8600,4873 8600,5306 8358,5306 Z M 8600,5329 L 8600,7186 8358,7186 8358,5329 8600,5329 Z"/>
     <path fill="rgb(112,112,112)" stroke="none" d="M 8600,7186 L 8600,9353 8358,9493 8358,7186 8600,7186 Z M 8358,5329 L 8358,5013 8600,4873 8600,5329 8358,5329 Z M 8600,5352 L 8600,7163 8358,7163 8358,5352 8600,5352 Z"/>
     <path fill="rgb(113,113,113)" stroke="none" d="M 8600,7163 L 8600,9353 8358,9493 8358,7163 8600,7163 Z M 8358,5352 L 8358,5013 8600,4873 8600,5352 8358,5352 Z M 8600,5374 L 8600,7141 8358,7141 8358,5374 8600,5374 Z"/>
     <path fill="rgb(114,114,114)" stroke="none" d="M 8600,7141 L 8600,9353 8358,9493 8358,7141 8600,7141 Z M 8358,5374 L 8358,5013 8600,4873 8600,5374 8358,5374 Z M 8600,5397 L 8600,7118 8358,7118 8358,5397 8600,5397 Z"/>
     <path fill="rgb(115,115,115)" stroke="none" d="M 8600,7118 L 8600,9353 8358,9493 8358,7118 8600,7118 Z M 8358,5397 L 8358,5013 8600,4873 8600,5397 8358,5397 Z M 8600,5420 L 8600,7095 8358,7095 8358,5420 8600,5420 Z"/>
     <path fill="rgb(116,116,116)" stroke="none" d="M 8600,7095 L 8600,9353 8358,9493 8358,7095 8600,7095 Z M 8358,5420 L 8358,5013 8600,4873 8600,5420 8358,5420 Z M 8600,5442 L 8600,7073 8358,7073 8358,5442 8600,5442 Z"/>
     <path fill="rgb(117,117,117)" stroke="none" d="M 8600,7073 L 8600,9353 8358,9493 8358,7073 8600,7073 Z M 8358,5442 L 8358,5013 8600,4873 8600,5442 8358,5442 Z M 8600,5465 L 8600,7050 8358,7050 8358,5465 8600,5465 Z"/>
     <path fill="rgb(118,118,118)" stroke="none" d="M 8600,7050 L 8600,9353 8358,9493 8358,7050 8600,7050 Z M 8358,5465 L 8358,5013 8600,4873 8600,5465 8358,5465 Z M 8600,5487 L 8600,7027 8358,7027 8358,5487 8600,5487 Z"/>
     <path fill="rgb(119,119,119)" stroke="none" d="M 8600,7027 L 8600,9353 8358,9493 8358,7027 8600,7027 Z M 8358,5487 L 8358,5013 8600,4873 8600,5487 8358,5487 Z M 8600,5510 L 8600,7005 8358,7005 8358,5510 8600,5510 Z"/>
     <path fill="rgb(120,120,120)" stroke="none" d="M 8600,7005 L 8600,9353 8358,9493 8358,7005 8600,7005 Z M 8358,5510 L 8358,5013 8600,4873 8600,5510 8358,5510 Z M 8600,5533 L 8600,6982 8358,6982 8358,5533 8600,5533 Z"/>
     <path fill="rgb(121,121,121)" stroke="none" d="M 8600,6982 L 8600,9353 8358,9493 8358,6982 8600,6982 Z M 8358,5533 L 8358,5013 8600,4873 8600,5533 8358,5533 Z M 8600,5555 L 8600,6960 8358,6960 8358,5555 8600,5555 Z"/>
     <path fill="rgb(122,122,122)" stroke="none" d="M 8600,6960 L 8600,9353 8358,9493 8358,6960 8600,6960 Z M 8358,5555 L 8358,5013 8600,4873 8600,5555 8358,5555 Z M 8600,5578 L 8600,6937 8358,6937 8358,5578 8600,5578 Z"/>
     <path fill="rgb(123,123,123)" stroke="none" d="M 8600,6937 L 8600,9353 8358,9493 8358,6937 8600,6937 Z M 8358,5578 L 8358,5013 8600,4873 8600,5578 8358,5578 Z M 8600,5601 L 8600,6914 8358,6914 8358,5601 8600,5601 Z"/>
     <path fill="rgb(124,124,124)" stroke="none" d="M 8600,6914 L 8600,9353 8358,9493 8358,6914 8600,6914 Z M 8358,5601 L 8358,5013 8600,4873 8600,5601 8358,5601 Z M 8600,5623 L 8600,6892 8358,6892 8358,5623 8600,5623 Z"/>
     <path fill="rgb(125,125,125)" stroke="none" d="M 8600,6892 L 8600,9353 8358,9493 8358,6892 8600,6892 Z M 8358,5623 L 8358,5013 8600,4873 8600,5623 8358,5623 Z M 8600,5646 L 8600,6869 8358,6869 8358,5646 8600,5646 Z"/>
     <path fill="rgb(126,126,126)" stroke="none" d="M 8600,6869 L 8600,9353 8358,9493 8358,6869 8600,6869 Z M 8358,5646 L 8358,5013 8600,4873 8600,5646 8358,5646 Z M 8600,5669 L 8600,6846 8358,6846 8358,5669 8600,5669 Z"/>
     <path fill="rgb(127,127,127)" stroke="none" d="M 8600,6846 L 8600,9353 8358,9493 8358,6846 8600,6846 Z M 8358,5669 L 8358,5013 8600,4873 8600,5669 8358,5669 Z M 8600,5691 L 8600,6824 8358,6824 8358,5691 8600,5691 Z"/>
     <path fill="rgb(128,128,128)" stroke="none" d="M 8600,6824 L 8600,9353 8358,9493 8358,6824 8600,6824 Z M 8358,5691 L 8358,5013 8600,4873 8600,5691 8358,5691 Z M 8600,5714 L 8600,6801 8358,6801 8358,5714 8600,5714 Z"/>
     <path fill="rgb(129,129,129)" stroke="none" d="M 8600,6801 L 8600,9353 8358,9493 8358,6801 8600,6801 Z M 8358,5714 L 8358,5013 8600,4873 8600,5714 8358,5714 Z M 8600,5737 L 8600,6778 8358,6778 8358,5737 8600,5737 Z"/>
     <path fill="rgb(130,130,130)" stroke="none" d="M 8600,6778 L 8600,9353 8358,9493 8358,6778 8600,6778 Z M 8358,5737 L 8358,5013 8600,4873 8600,5737 8358,5737 Z M 8600,5759 L 8600,6756 8358,6756 8358,5759 8600,5759 Z"/>
     <path fill="rgb(131,131,131)" stroke="none" d="M 8600,6756 L 8600,9353 8358,9493 8358,6756 8600,6756 Z M 8358,5759 L 8358,5013 8600,4873 8600,5759 8358,5759 Z M 8600,5782 L 8600,6733 8358,6733 8358,5782 8600,5782 Z"/>
     <path fill="rgb(132,132,132)" stroke="none" d="M 8600,6733 L 8600,9353 8358,9493 8358,6733 8600,6733 Z M 8358,5782 L 8358,5013 8600,4873 8600,5782 8358,5782 Z M 8600,5805 L 8600,6710 8358,6710 8358,5805 8600,5805 Z"/>
     <path fill="rgb(133,133,133)" stroke="none" d="M 8600,6710 L 8600,9353 8358,9493 8358,6710 8600,6710 Z M 8358,5805 L 8358,5013 8600,4873 8600,5805 8358,5805 Z M 8600,5827 L 8600,6688 8358,6688 8358,5827 8600,5827 Z"/>
     <path fill="rgb(134,134,134)" stroke="none" d="M 8600,6688 L 8600,9353 8358,9493 8358,6688 8600,6688 Z M 8358,5827 L 8358,5013 8600,4873 8600,5827 8358,5827 Z M 8600,5850 L 8600,6665 8358,6665 8358,5850 8600,5850 Z"/>
     <path fill="rgb(135,135,135)" stroke="none" d="M 8600,6665 L 8600,9353 8358,9493 8358,6665 8600,6665 Z M 8358,5850 L 8358,5013 8600,4873 8600,5850 8358,5850 Z M 8600,5873 L 8600,6642 8358,6642 8358,5873 8600,5873 Z"/>
     <path fill="rgb(136,136,136)" stroke="none" d="M 8600,6642 L 8600,9353 8358,9493 8358,6642 8600,6642 Z M 8358,5873 L 8358,5013 8600,4873 8600,5873 8358,5873 Z M 8600,5895 L 8600,6620 8358,6620 8358,5895 8600,5895 Z"/>
     <path fill="rgb(137,137,137)" stroke="none" d="M 8600,6620 L 8600,9353 8358,9493 8358,6620 8600,6620 Z M 8358,5895 L 8358,5013 8600,4873 8600,5895 8358,5895 Z M 8600,5918 L 8600,6597 8358,6597 8358,5918 8600,5918 Z"/>
     <path fill="rgb(138,138,138)" stroke="none" d="M 8600,6597 L 8600,9353 8358,9493 8358,6597 8600,6597 Z M 8358,5918 L 8358,5013 8600,4873 8600,5918 8358,5918 Z M 8600,5941 L 8600,6574 8358,6574 8358,5941 8600,5941 Z"/>
     <path fill="rgb(139,139,139)" stroke="none" d="M 8600,6574 L 8600,9353 8358,9493 8358,6574 8600,6574 Z M 8358,5941 L 8358,5013 8600,4873 8600,5941 8358,5941 Z M 8600,5963 L 8600,6552 8358,6552 8358,5963 8600,5963 Z"/>
     <path fill="rgb(140,140,140)" stroke="none" d="M 8600,6552 L 8600,9353 8358,9493 8358,6552 8600,6552 Z M 8358,5963 L 8358,5013 8600,4873 8600,5963 8358,5963 Z M 8600,5986 L 8600,6529 8358,6529 8358,5986 8600,5986 Z"/>
     <path fill="rgb(141,141,141)" stroke="none" d="M 8600,6529 L 8600,9353 8358,9493 8358,6529 8600,6529 Z M 8358,5986 L 8358,5013 8600,4873 8600,5986 8358,5986 Z M 8600,6009 L 8600,6506 8358,6506 8358,6009 8600,6009 Z"/>
     <path fill="rgb(142,142,142)" stroke="none" d="M 8600,6506 L 8600,9353 8358,9493 8358,6506 8600,6506 Z M 8358,6009 L 8358,5013 8600,4873 8600,6009 8358,6009 Z M 8600,6031 L 8600,6484 8358,6484 8358,6031 8600,6031 Z"/>
     <path fill="rgb(143,143,143)" stroke="none" d="M 8600,6484 L 8600,9353 8358,9493 8358,6484 8600,6484 Z M 8358,6031 L 8358,5013 8600,4873 8600,6031 8358,6031 Z M 8600,6054 L 8600,6461 8358,6461 8358,6054 8600,6054 Z"/>
     <path fill="rgb(144,144,144)" stroke="none" d="M 8600,6461 L 8600,9353 8358,9493 8358,6461 8600,6461 Z M 8358,6054 L 8358,5013 8600,4873 8600,6054 8358,6054 Z M 8600,6077 L 8600,6438 8358,6438 8358,6077 8600,6077 Z"/>
     <path fill="rgb(145,145,145)" stroke="none" d="M 8600,6438 L 8600,9353 8358,9493 8358,6438 8600,6438 Z M 8358,6077 L 8358,5013 8600,4873 8600,6077 8358,6077 Z M 8588,6099 L 8588,6416 8358,6416 8358,6099 8588,6099 Z"/>
     <path fill="rgb(146,146,146)" stroke="none" d="M 8588,6416 L 8588,6099 8358,6099 8358,5013 8600,4873 8600,9353 8358,9493 8358,6416 8588,6416 Z M 8565,6122 L 8565,6393 8358,6393 8358,6122 8565,6122 Z"/>
     <path fill="rgb(147,147,147)" stroke="none" d="M 8565,6393 L 8565,6122 8358,6122 8358,5013 8600,4873 8600,9353 8358,9493 8358,6393 8565,6393 Z M 8542,6145 L 8542,6370 8358,6370 8358,6145 8542,6145 Z"/>
     <path fill="rgb(148,148,148)" stroke="none" d="M 8542,6370 L 8542,6145 8358,6145 8358,5013 8600,4873 8600,9353 8358,9493 8358,6370 8542,6370 Z M 8520,6167 L 8520,6348 8358,6348 8358,6167 8520,6167 Z"/>
     <path fill="rgb(149,149,149)" stroke="none" d="M 8520,6348 L 8520,6167 8358,6167 8358,5013 8600,4873 8600,9353 8358,9493 8358,6348 8520,6348 Z M 8362,6190 L 8497,6190 8497,6325 8362,6325 8362,6190 Z"/>
     <path fill="rgb(150,150,150)" stroke="none" d="M 8362,6190 L 8362,6325 8497,6325 8497,6190 8362,6190 Z M 8385,6213 L 8474,6213 8474,6302 8385,6302 8385,6213 Z M 8358,9493 L 8358,5013 8600,4873 8600,9353 8358,9493 Z"/>
     <path fill="rgb(151,151,151)" stroke="none" d="M 8385,6213 L 8385,6302 8474,6302 8474,6213 8385,6213 Z M 8407,6235 L 8452,6235 8452,6280 8407,6280 8407,6235 Z M 8358,9493 L 8358,5013 8600,4873 8600,9353 8358,9493 Z"/>
     <path fill="rgb(153,153,153)" stroke="none" d="M 8407,6235 L 8407,6280 8452,6280 8452,6235 8407,6235 Z M 8358,9493 L 8358,5013 8600,4873 8600,9353 8358,9493 Z"/>
     <path fill="none" stroke="rgb(178,178,178)" id="Drawing_5_0" stroke-width="40" stroke-linejoin="round" d="M 8358,9493 L 8358,5013 8600,4873 8600,9353 8358,9493 Z"/>
    </g>
    <g>
     <path fill="none" stroke="rgb(0,0,0)" id="Drawing_6_0" stroke-width="40" stroke-linejoin="round" d="M 3750,2073 L 8600,4873 8600,9353 8354,9493 3508,6693 3508,2213 3750,2073 Z"/>
    </g>
   </g>
  </g>
 </g>
</svg>