<?xml version="1.0" encoding="UTF-8"?>

<svg version="1.2" baseProfile="tiny" width="155.56mm" height="175.4mm" viewBox="3266 10023 15556 17540" preserveAspectRatio="xMidYMid" fill-rule="evenodd" stroke-width="28.222" stroke-linejoin="round" xmlns="http://www.w3.org/2000/svg" xmlns:xlink="http://www.w3.org/1999/xlink" xml:space="preserve">
 <g visibility="visible" id="Slide_1">
  <g id="DrawingGroup_1">
   <g>
    <path fill="rgb(221,221,221)" stroke="none" d="M 17836,27543 C 18228,27543 18685,27543 18806,27403 18927,27263 18321,26983 18078,26983 18078,26983 17834,27543 17836,27543 Z"/>
    <path fill="none" stroke="rgb(221,221,221)" id="Drawing_1_0" stroke-linejoin="round" d="M 17836,27543 C 18228,27543 18685,27543 18806,27403 18927,27263 18321,26983 18078,26983 18078,26983 17834,27543 17836,27543 Z"/>
   </g>
   <g id="DrawingGroup_2">
    <g>
     <defs>
      <linearGradient id="Gradient_780" gradientUnits="userSpaceOnUse" x1="12980" y1="19419" x2="17842" y2="19427">
       <stop offset="0.1" stop-color="rgb(51,51,51)"/>
       <stop offset="1" stop-color="rgb(153,153,153)"/>
      </linearGradient>
     </defs>
     <path fill="url(#Gradient_780)" stroke="rgb(178,178,178)" id="Drawing_2_0" stroke-width="40" stroke-linejoin="round" d="M 12986,20263 L 12986,15783 17836,18583 17832,23063 12986,20263 Z"/>
    </g>
    <g>
     <defs>
      <linearGradient id="Gradient_781" gradientUnits="userSpaceOnUse" x1="13100" y1="19419" x2="17719" y2="19427">
       <stop offset="0.1" stop-color="rgb(147,212,240)"/>
       <stop offset="1" stop-color="rgb(233,246,252)"/>
      </linearGradient>
     </defs>
     <path fill="url(#Gradient_781)" stroke="rgb(102,102,102)" id="Drawing_3_0" stroke-width="40" stroke-linejoin="round" d="M 13107,20193 L 13107,15993 17714,18653 17714,22853 13107,20193 Z"/>
    </g>
    <g>
     <defs>
      <linearGradient id="Gradient_782" gradientUnits="userSpaceOnUse" x1="15532" y1="15643" x2="15532" y2="18583">
       <stop offset="0.1" stop-color="rgb(51,51,51)"/>
       <stop offset="1" stop-color="rgb(153,153,153)"/>
      </linearGradient>
     </defs>
     <path fill="url(#Gradient_782)" stroke="rgb(178,178,178)" id="Drawing_4_0" stroke-width="40" stroke-linejoin="round" d="M 17836,18583 L 12986,15783 13228,15643 18078,18443 17836,18583 Z"/>
    </g>
    <g>
     <path fill="rgb(51,51,51)" stroke="none" d="M 17836,22116 L 17836,18583 18078,18443 18078,22116 17836,22116 Z"/>
     <path fill="rgb(52,52,52)" stroke="none" d="M 18078,22116 L 18078,22923 17836,23063 17836,22116 18078,22116 Z M 17836,22093 L 17836,18583 18078,18443 18078,22093 17836,22093 Z"/>
     <path fill="rgb(53,53,53)" stroke="none" d="M 18078,22093 L 18078,22923 17836,23063 17836,22093 18078,22093 Z M 17836,22071 L 17836,18583 18078,18443 18078,22071 17836,22071 Z"/>
     <path fill="rgb(54,54,54)" stroke="none" d="M 18078,22071 L 18078,22923 17836,23063 17836,22071 18078,22071 Z M 17836,22048 L 17836,18583 18078,18443 18078,22048 17836,22048 Z"/>
     <path fill="rgb(55,55,55)" stroke="none" d="M 18078,22048 L 18078,22923 17836,23063 17836,22048 18078,22048 Z M 17836,22025 L 17836,18583 18078,18443 18078,22025 17836,22025 Z"/>
     <path fill="rgb(56,56,56)" stroke="none" d="M 18078,22025 L 18078,22923 17836,23063 17836,22025 18078,22025 Z M 17836,22003 L 17836,18583 18078,18443 18078,22003 17836,22003 Z"/>
     <path fill="rgb(57,57,57)" stroke="none" d="M 18078,22003 L 18078,22923 17836,23063 17836,22003 18078,22003 Z M 17836,21980 L 17836,18583 18078,18443 18078,21980 17836,21980 Z"/>
     <path fill="rgb(58,58,58)" stroke="none" d="M 18078,21980 L 18078,22923 17836,23063 17836,21980 18078,21980 Z M 17836,21957 L 17836,18583 18078,18443 18078,21957 17836,21957 Z"/>
     <path fill="rgb(59,59,59)" stroke="none" d="M 18078,21957 L 18078,22923 17836,23063 17836,21957 18078,21957 Z M 17836,21935 L 17836,18583 18078,18443 18078,21935 17836,21935 Z"/>
     <path fill="rgb(60,60,60)" stroke="none" d="M 18078,21935 L 18078,22923 17836,23063 17836,21935 18078,21935 Z M 17836,21912 L 17836,18583 18078,18443 18078,21912 17836,21912 Z"/>
     <path fill="rgb(61,61,61)" stroke="none" d="M 18078,21912 L 18078,22923 17836,23063 17836,21912 18078,21912 Z M 17836,21889 L 17836,18583 18078,18443 18078,21889 17836,21889 Z"/>
     <path fill="rgb(62,62,62)" stroke="none" d="M 18078,21889 L 18078,22923 17836,23063 17836,21889 18078,21889 Z M 17836,21867 L 17836,18583 18078,18443 18078,21867 17836,21867 Z"/>
     <path fill="rgb(63,63,63)" stroke="none" d="M 18078,21867 L 18078,22923 17836,23063 17836,21867 18078,21867 Z M 17836,21844 L 17836,18583 18078,18443 18078,21844 17836,21844 Z"/>
     <path fill="rgb(64,64,64)" stroke="none" d="M 18078,21844 L 18078,22923 17836,23063 17836,21844 18078,21844 Z M 17836,21821 L 17836,18583 18078,18443 18078,21821 17836,21821 Z"/>
     <path fill="rgb(65,65,65)" stroke="none" d="M 18078,21821 L 18078,22923 17836,23063 17836,21821 18078,21821 Z M 17836,21799 L 17836,18583 18078,18443 18078,21799 17836,21799 Z"/>
     <path fill="rgb(66,66,66)" stroke="none" d="M 18078,21799 L 18078,22923 17836,23063 17836,21799 18078,21799 Z M 17836,21776 L 17836,18583 18078,18443 18078,21776 17836,21776 Z"/>
     <path fill="rgb(67,67,67)" stroke="none" d="M 18078,21776 L 18078,22923 17836,23063 17836,21776 18078,21776 Z M 17836,21753 L 17836,18583 18078,18443 18078,21753 17836,21753 Z"/>
     <path fill="rgb(68,68,68)" stroke="none" d="M 18078,21753 L 18078,22923 17836,23063 17836,21753 18078,21753 Z M 17836,21731 L 17836,18583 18078,18443 18078,21731 17836,21731 Z"/>
     <path fill="rgb(69,69,69)" stroke="none" d="M 18078,21731 L 18078,22923 17836,23063 17836,21731 18078,21731 Z M 17836,21708 L 17836,18583 18078,18443 18078,21708 17836,21708 Z"/>
     <path fill="rgb(70,70,70)" stroke="none" d="M 18078,21708 L 18078,22923 17836,23063 17836,21708 18078,21708 Z M 17836,21685 L 17836,18583 18078,18443 18078,21685 17836,21685 Z"/>
     <path fill="rgb(71,71,71)" stroke="none" d="M 18078,21685 L 18078,22923 17836,23063 17836,21685 18078,21685 Z M 17836,21663 L 17836,18583 18078,18443 18078,21663 17836,21663 Z"/>
     <path fill="rgb(72,72,72)" stroke="none" d="M 18078,21663 L 18078,22923 17836,23063 17836,21663 18078,21663 Z M 17836,21640 L 17836,18583 18078,18443 18078,21640 17836,21640 Z"/>
     <path fill="rgb(73,73,73)" stroke="none" d="M 18078,21640 L 18078,22923 17836,23063 17836,21640 18078,21640 Z M 17836,21617 L 17836,18583 18078,18443 18078,21617 17836,21617 Z"/>
     <path fill="rgb(74,74,74)" stroke="none" d="M 18078,21617 L 18078,22923 17836,23063 17836,21617 18078,21617 Z M 17836,21595 L 17836,18583 18078,18443 18078,21595 17836,21595 Z"/>
     <path fill="rgb(75,75,75)" stroke="none" d="M 18078,21595 L 18078,22923 17836,23063 17836,21595 18078,21595 Z M 17836,21572 L 17836,18583 18078,18443 18078,21572 17836,21572 Z"/>
     <path fill="rgb(76,76,76)" stroke="none" d="M 18078,21572 L 18078,22923 17836,23063 17836,21572 18078,21572 Z M 17836,21549 L 17836,18583 18078,18443 18078,21549 17836,21549 Z"/>
     <path fill="rgb(77,77,77)" stroke="none" d="M 18078,21549 L 18078,22923 17836,23063 17836,21549 18078,21549 Z M 17836,21527 L 17836,18583 18078,18443 18078,21527 17836,21527 Z"/>
     <path fill="rgb(78,78,78)" stroke="none" d="M 18078,21527 L 18078,22923 17836,23063 17836,21527 18078,21527 Z M 17836,21504 L 17836,18583 18078,18443 18078,21504 17836,21504 Z"/>
     <path fill="rgb(79,79,79)" stroke="none" d="M 18078,21504 L 18078,22923 17836,23063 17836,21504 18078,21504 Z M 17836,21481 L 17836,18583 18078,18443 18078,21481 17836,21481 Z"/>
     <path fill="rgb(80,80,80)" stroke="none" d="M 18078,21481 L 18078,22923 17836,23063 17836,21481 18078,21481 Z M 17836,21459 L 17836,18583 18078,18443 18078,21459 17836,21459 Z"/>
     <path fill="rgb(81,81,81)" stroke="none" d="M 18078,21459 L 18078,22923 17836,23063 17836,21459 18078,21459 Z M 17836,21436 L 17836,18583 18078,18443 18078,21436 17836,21436 Z"/>
     <path fill="rgb(82,82,82)" stroke="none" d="M 18078,21436 L 18078,22923 17836,23063 17836,21436 18078,21436 Z M 17836,21413 L 17836,18583 18078,18443 18078,21413 17836,21413 Z"/>
     <path fill="rgb(83,83,83)" stroke="none" d="M 18078,21413 L 18078,22923 17836,23063 17836,21413 18078,21413 Z M 17836,21391 L 17836,18583 18078,18443 18078,21391 17836,21391 Z"/>
     <path fill="rgb(84,84,84)" stroke="none" d="M 18078,21391 L 18078,22923 17836,23063 17836,21391 18078,21391 Z M 17836,21368 L 17836,18583 18078,18443 18078,21368 17836,21368 Z"/>
     <path fill="rgb(85,85,85)" stroke="none" d="M 18078,21368 L 18078,22923 17836,23063 17836,21368 18078,21368 Z M 17836,21345 L 17836,18583 18078,18443 18078,21345 17836,21345 Z"/>
     <path fill="rgb(86,86,86)" stroke="none" d="M 18078,21345 L 18078,22923 17836,23063 17836,21345 18078,21345 Z M 17836,21323 L 17836,18583 18078,18443 18078,21323 17836,21323 Z"/>
     <path fill="rgb(87,87,87)" stroke="none" d="M 18078,21323 L 18078,22923 17836,23063 17836,21323 18078,21323 Z M 17836,21300 L 17836,18583 18078,18443 18078,21300 17836,21300 Z"/>
     <path fill="rgb(88,88,88)" stroke="none" d="M 18078,21300 L 18078,22923 17836,23063 17836,21300 18078,21300 Z M 17836,21277 L 17836,18583 18078,18443 18078,21277 17836,21277 Z"/>
     <path fill="rgb(89,89,89)" stroke="none" d="M 18078,21277 L 18078,22923 17836,23063 17836,21277 18078,21277 Z M 17836,21255 L 17836,18583 18078,18443 18078,21255 17836,21255 Z"/>
     <path fill="rgb(90,90,90)" stroke="none" d="M 18078,21255 L 18078,22923 17836,23063 17836,21255 18078,21255 Z M 17836,21232 L 17836,18583 18078,18443 18078,21232 17836,21232 Z"/>
     <path fill="rgb(91,91,91)" stroke="none" d="M 18078,21232 L 18078,22923 17836,23063 17836,21232 18078,21232 Z M 18078,18446 L 18078,21209 17836,21209 17836,18583 18073,18446 18078,18446 Z"/>
     <path fill="rgb(92,92,92)" stroke="none" d="M 18078,21209 L 18078,22923 17836,23063 17836,21209 18078,21209 Z M 18073,18446 L 18078,18443 18078,18446 18073,18446 Z M 18078,18468 L 18078,21187 17836,21187 17836,18583 18035,18468 18078,18468 Z"/>
     <path fill="rgb(93,93,93)" stroke="none" d="M 18078,21187 L 18078,22923 17836,23063 17836,21187 18078,21187 Z M 18035,18468 L 18078,18443 18078,18468 18035,18468 Z M 18078,18491 L 18078,21164 17836,21164 17836,18583 17995,18491 18078,18491 Z"/>
     <path fill="rgb(94,94,94)" stroke="none" d="M 18078,21164 L 18078,22923 17836,23063 17836,21164 18078,21164 Z M 17995,18491 L 18078,18443 18078,18491 17995,18491 Z M 18078,18514 L 18078,21141 17836,21141 17836,18583 17955,18514 18078,18514 Z"/>
     <path fill="rgb(95,95,95)" stroke="none" d="M 18078,21141 L 18078,22923 17836,23063 17836,21141 18078,21141 Z M 17955,18514 L 18078,18443 18078,18514 17955,18514 Z M 18078,18536 L 18078,21119 17836,21119 17836,18583 17917,18536 18078,18536 Z"/>
     <path fill="rgb(96,96,96)" stroke="none" d="M 18078,21119 L 18078,22923 17836,23063 17836,21119 18078,21119 Z M 17917,18536 L 18078,18443 18078,18536 17917,18536 Z M 18078,18559 L 18078,21096 17836,21096 17836,18583 17877,18559 18078,18559 Z"/>
     <path fill="rgb(97,97,97)" stroke="none" d="M 18078,21096 L 18078,22923 17836,23063 17836,21096 18078,21096 Z M 17877,18559 L 18078,18443 18078,18559 17877,18559 Z M 18078,18582 L 18078,21073 17836,21073 17836,18583 17838,18582 18078,18582 Z"/>
     <path fill="rgb(98,98,98)" stroke="none" d="M 18078,21073 L 18078,22923 17836,23063 17836,21073 18078,21073 Z M 17838,18582 L 18078,18443 18078,18582 17838,18582 Z M 18078,18604 L 18078,21051 17836,21051 17836,18604 18078,18604 Z"/>
     <path fill="rgb(99,99,99)" stroke="none" d="M 18078,21051 L 18078,22923 17836,23063 17836,21051 18078,21051 Z M 17836,18604 L 17836,18583 18078,18443 18078,18604 17836,18604 Z M 18078,18627 L 18078,21028 17836,21028 17836,18627 18078,18627 Z"/>
     <path fill="rgb(100,100,100)" stroke="none" d="M 18078,21028 L 18078,22923 17836,23063 17836,21028 18078,21028 Z M 17836,18627 L 17836,18583 18078,18443 18078,18627 17836,18627 Z M 18078,18650 L 18078,21005 17836,21005 17836,18650 18078,18650 Z"/>
     <path fill="rgb(101,101,101)" stroke="none" d="M 18078,21005 L 18078,22923 17836,23063 17836,21005 18078,21005 Z M 17836,18650 L 17836,18583 18078,18443 18078,18650 17836,18650 Z M 18078,18672 L 18078,20983 17836,20983 17836,18672 18078,18672 Z"/>
     <path fill="rgb(102,102,102)" stroke="none" d="M 18078,20983 L 18078,22923 17836,23063 17836,20983 18078,20983 Z M 17836,18672 L 17836,18583 18078,18443 18078,18672 17836,18672 Z M 18078,18695 L 18078,20960 17836,20960 17836,18695 18078,18695 Z"/>
     <path fill="rgb(103,103,103)" stroke="none" d="M 18078,20960 L 18078,22923 17836,23063 17836,20960 18078,20960 Z M 17836,18695 L 17836,18583 18078,18443 18078,18695 17836,18695 Z M 18078,18718 L 18078,20937 17836,20937 17836,18718 18078,18718 Z"/>
     <path fill="rgb(104,104,104)" stroke="none" d="M 18078,20937 L 18078,22923 17836,23063 17836,20937 18078,20937 Z M 17836,18718 L 17836,18583 18078,18443 18078,18718 17836,18718 Z M 18078,18740 L 18078,20915 17836,20915 17836,18740 18078,18740 Z"/>
     <path fill="rgb(105,105,105)" stroke="none" d="M 18078,20915 L 18078,22923 17836,23063 17836,20915 18078,20915 Z M 17836,18740 L 17836,18583 18078,18443 18078,18740 17836,18740 Z M 18078,18763 L 18078,20892 17836,20892 17836,18763 18078,18763 Z"/>
     <path fill="rgb(106,106,106)" stroke="none" d="M 18078,20892 L 18078,22923 17836,23063 17836,20892 18078,20892 Z M 17836,18763 L 17836,18583 18078,18443 18078,18763 17836,18763 Z M 18078,18786 L 18078,20869 17836,20869 17836,18786 18078,18786 Z"/>
     <path fill="rgb(107,107,107)" stroke="none" d="M 18078,20869 L 18078,22923 17836,23063 17836,20869 18078,20869 Z M 17836,18786 L 17836,18583 18078,18443 18078,18786 17836,18786 Z M 18078,18808 L 18078,20847 17836,20847 17836,18808 18078,18808 Z"/>
     <path fill="rgb(108,108,108)" stroke="none" d="M 18078,20847 L 18078,22923 17836,23063 17836,20847 18078,20847 Z M 17836,18808 L 17836,18583 18078,18443 18078,18808 17836,18808 Z M 18078,18831 L 18078,20824 17836,20824 17836,18831 18078,18831 Z"/>
     <path fill="rgb(109,109,109)" stroke="none" d="M 18078,20824 L 18078,22923 17836,23063 17836,20824 18078,20824 Z M 17836,18831 L 17836,18583 18078,18443 18078,18831 17836,18831 Z M 18078,18854 L 18078,20801 17836,20801 17836,18854 18078,18854 Z"/>
     <path fill="rgb(110,110,110)" stroke="none" d="M 18078,20801 L 18078,22923 17836,23063 17836,20801 18078,20801 Z M 17836,18854 L 17836,18583 18078,18443 18078,18854 17836,18854 Z M 18078,18876 L 18078,20779 17836,20779 17836,18876 18078,18876 Z"/>
     <path fill="rgb(111,111,111)" stroke="none" d="M 18078,20779 L 18078,22923 17836,23063 17836,20779 18078,20779 Z M 17836,18876 L 17836,18583 18078,18443 18078,18876 17836,18876 Z M 18078,18899 L 18078,20756 17836,20756 17836,18899 18078,18899 Z"/>
     <path fill="rgb(112,112,112)" stroke="none" d="M 18078,20756 L 18078,22923 17836,23063 17836,20756 18078,20756 Z M 17836,18899 L 17836,18583 18078,18443 18078,18899 17836,18899 Z M 18078,18922 L 18078,20733 17836,20733 17836,18922 18078,18922 Z"/>
     <path fill="rgb(113,113,113)" stroke="none" d="M 18078,20733 L 18078,22923 17836,23063 17836,20733 18078,20733 Z M 17836,18922 L 17836,18583 18078,18443 18078,18922 17836,18922 Z M 18078,18944 L 18078,20711 17836,20711 17836,18944 18078,18944 Z"/>
     <path fill="rgb(114,114,114)" stroke="none" d="M 18078,20711 L 18078,22923 17836,23063 17836,20711 18078,20711 Z M 17836,18944 L 17836,18583 18078,18443 18078,18944 17836,18944 Z M 18078,18967 L 18078,20688 17836,20688 17836,18967 18078,18967 Z"/>
     <path fill="rgb(115,115,115)" stroke="none" d="M 18078,20688 L 18078,22923 17836,23063 17836,20688 18078,20688 Z M 17836,18967 L 17836,18583 18078,18443 18078,18967 17836,18967 Z M 18078,18990 L 18078,20665 17836,20665 17836,18990 18078,18990 Z"/>
     <path fill="rgb(116,116,116)" stroke="none" d="M 18078,20665 L 18078,22923 17836,23063 17836,20665 18078,20665 Z M 17836,18990 L 17836,18583 18078,18443 18078,18990 17836,18990 Z M 18078,19012 L 18078,20643 17836,20643 17836,19012 18078,19012 Z"/>
     <path fill="rgb(117,117,117)" stroke="none" d="M 18078,20643 L 18078,22923 17836,23063 17836,20643 18078,20643 Z M 17836,19012 L 17836,18583 18078,18443 18078,19012 17836,19012 Z M 18078,19035 L 18078,20620 17836,20620 17836,19035 18078,19035 Z"/>
     <path fill="rgb(118,118,118)" stroke="none" d="M 18078,20620 L 18078,22923 17836,23063 17836,20620 18078,20620 Z M 17836,19035 L 17836,18583 18078,18443 18078,19035 17836,19035 Z M 18078,19057 L 18078,20597 17836,20597 17836,19057 18078,19057 Z"/>
     <path fill="rgb(119,119,119)" stroke="none" d="M 18078,20597 L 18078,22923 17836,23063 17836,20597 18078,20597 Z M 17836,19057 L 17836,18583 18078,18443 18078,19057 17836,19057 Z M 18078,19080 L 18078,20575 17836,20575 17836,19080 18078,19080 Z"/>
     <path fill="rgb(120,120,120)" stroke="none" d="M 18078,20575 L 18078,22923 17836,23063 17836,20575 18078,20575 Z M 17836,19080 L 17836,18583 18078,18443 18078,19080 17836,19080 Z M 18078,19103 L 18078,20552 17836,20552 17836,19103 18078,19103 Z"/>
     <path fill="rgb(121,121,121)" stroke="none" d="M 18078,20552 L 18078,22923 17836,23063 17836,20552 18078,20552 Z M 17836,19103 L 17836,18583 18078,18443 18078,19103 17836,19103 Z M 18078,19125 L 18078,20530 17836,20530 17836,19125 18078,19125 Z"/>
     <path fill="rgb(122,122,122)" stroke="none" d="M 18078,20530 L 18078,22923 17836,23063 17836,20530 18078,20530 Z M 17836,19125 L 17836,18583 18078,18443 18078,19125 17836,19125 Z M 18078,19148 L 18078,20507 17836,20507 17836,19148 18078,19148 Z"/>
     <path fill="rgb(123,123,123)" stroke="none" d="M 18078,20507 L 18078,22923 17836,23063 17836,20507 18078,20507 Z M 17836,19148 L 17836,18583 18078,18443 18078,19148 17836,19148 Z M 18078,19171 L 18078,20484 17836,20484 17836,19171 18078,19171 Z"/>
     <path fill="rgb(124,124,124)" stroke="none" d="M 18078,20484 L 18078,22923 17836,23063 17836,20484 18078,20484 Z M 17836,19171 L 17836,18583 18078,18443 18078,19171 17836,19171 Z M 18078,19193 L 18078,20462 17836,20462 17836,19193 18078,19193 Z"/>
     <path fill="rgb(125,125,125)" stroke="none" d="M 18078,20462 L 18078,22923 17836,23063 17836,20462 18078,20462 Z M 17836,19193 L 17836,18583 18078,18443 18078,19193 17836,19193 Z M 18078,19216 L 18078,20439 17836,20439 17836,19216 18078,19216 Z"/>
     <path fill="rgb(126,126,126)" stroke="none" d="M 18078,20439 L 18078,22923 17836,23063 17836,20439 18078,20439 Z M 17836,19216 L 17836,18583 18078,18443 18078,19216 17836,19216 Z M 18078,19239 L 18078,20416 17836,20416 17836,19239 18078,19239 Z"/>
     <path fill="rgb(127,127,127)" stroke="none" d="M 18078,20416 L 18078,22923 17836,23063 17836,20416 18078,20416 Z M 17836,19239 L 17836,18583 18078,18443 18078,19239 17836,19239 Z M 18078,19261 L 18078,20394 17836,20394 17836,19261 18078,19261 Z"/>
     <path fill="rgb(128,128,128)" stroke="none" d="M 18078,20394 L 18078,22923 17836,23063 17836,20394 18078,20394 Z M 17836,19261 L 17836,18583 18078,18443 18078,19261 17836,19261 Z M 18078,19284 L 18078,20371 17836,20371 17836,19284 18078,19284 Z"/>
     <path fill="rgb(129,129,129)" stroke="none" d="M 18078,20371 L 18078,22923 17836,23063 17836,20371 18078,20371 Z M 17836,19284 L 17836,18583 18078,18443 18078,19284 17836,19284 Z M 18078,19307 L 18078,20348 17836,20348 17836,19307 18078,19307 Z"/>
     <path fill="rgb(130,130,130)" stroke="none" d="M 18078,20348 L 18078,22923 17836,23063 17836,20348 18078,20348 Z M 17836,19307 L 17836,18583 18078,18443 18078,19307 17836,19307 Z M 18078,19329 L 18078,20326 17836,20326 17836,19329 18078,19329 Z"/>
     <path fill="rgb(131,131,131)" stroke="none" d="M 18078,20326 L 18078,22923 17836,23063 17836,20326 18078,20326 Z M 17836,19329 L 17836,18583 18078,18443 18078,19329 17836,19329 Z M 18078,19352 L 18078,20303 17836,20303 17836,19352 18078,19352 Z"/>
     <path fill="rgb(132,132,132)" stroke="none" d="M 18078,20303 L 18078,22923 17836,23063 17836,20303 18078,20303 Z M 17836,19352 L 17836,18583 18078,18443 18078,19352 17836,19352 Z M 18078,19375 L 18078,20280 17836,20280 17836,19375 18078,19375 Z"/>
     <path fill="rgb(133,133,133)" stroke="none" d="M 18078,20280 L 18078,22923 17836,23063 17836,20280 18078,20280 Z M 17836,19375 L 17836,18583 18078,18443 18078,19375 17836,19375 Z M 18078,19397 L 18078,20258 17836,20258 17836,19397 18078,19397 Z"/>
     <path fill="rgb(134,134,134)" stroke="none" d="M 18078,20258 L 18078,22923 17836,23063 17836,20258 18078,20258 Z M 17836,19397 L 17836,18583 18078,18443 18078,19397 17836,19397 Z M 18078,19420 L 18078,20235 17836,20235 17836,19420 18078,19420 Z"/>
     <path fill="rgb(135,135,135)" stroke="none" d="M 18078,20235 L 18078,22923 17836,23063 17836,20235 18078,20235 Z M 17836,19420 L 17836,18583 18078,18443 18078,19420 17836,19420 Z M 18078,19443 L 18078,20212 17836,20212 17836,19443 18078,19443 Z"/>
     <path fill="rgb(136,136,136)" stroke="none" d="M 18078,20212 L 18078,22923 17836,23063 17836,20212 18078,20212 Z M 17836,19443 L 17836,18583 18078,18443 18078,19443 17836,19443 Z M 18078,19465 L 18078,20190 17836,20190 17836,19465 18078,19465 Z"/>
     <path fill="rgb(137,137,137)" stroke="none" d="M 18078,20190 L 18078,22923 17836,23063 17836,20190 18078,20190 Z M 17836,19465 L 17836,18583 18078,18443 18078,19465 17836,19465 Z M 18078,19488 L 18078,20167 17836,20167 17836,19488 18078,19488 Z"/>
     <path fill="rgb(138,138,138)" stroke="none" d="M 18078,20167 L 18078,22923 17836,23063 17836,20167 18078,20167 Z M 17836,19488 L 17836,18583 18078,18443 18078,19488 17836,19488 Z M 18078,19511 L 18078,20144 17836,20144 17836,19511 18078,19511 Z"/>
     <path fill="rgb(139,139,139)" stroke="none" d="M 18078,20144 L 18078,22923 17836,23063 17836,20144 18078,20144 Z M 17836,19511 L 17836,18583 18078,18443 18078,19511 17836,19511 Z M 18078,19533 L 18078,20122 17836,20122 17836,19533 18078,19533 Z"/>
     <path fill="rgb(140,140,140)" stroke="none" d="M 18078,20122 L 18078,22923 17836,23063 17836,20122 18078,20122 Z M 17836,19533 L 17836,18583 18078,18443 18078,19533 17836,19533 Z M 18078,19556 L 18078,20099 17836,20099 17836,19556 18078,19556 Z"/>
     <path fill="rgb(141,141,141)" stroke="none" d="M 18078,20099 L 18078,22923 17836,23063 17836,20099 18078,20099 Z M 17836,19556 L 17836,18583 18078,18443 18078,19556 17836,19556 Z M 18078,19579 L 18078,20076 17836,20076 17836,19579 18078,19579 Z"/>
     <path fill="rgb(142,142,142)" stroke="none" d="M 18078,20076 L 18078,22923 17836,23063 17836,20076 18078,20076 Z M 17836,19579 L 17836,18583 18078,18443 18078,19579 17836,19579 Z M 18078,19601 L 18078,20054 17836,20054 17836,19601 18078,19601 Z"/>
     <path fill="rgb(143,143,143)" stroke="none" d="M 18078,20054 L 18078,22923 17836,23063 17836,20054 18078,20054 Z M 17836,19601 L 17836,18583 18078,18443 18078,19601 17836,19601 Z M 18078,19624 L 18078,20031 17836,20031 17836,19624 18078,19624 Z"/>
     <path fill="rgb(144,144,144)" stroke="none" d="M 18078,20031 L 18078,22923 17836,23063 17836,20031 18078,20031 Z M 17836,19624 L 17836,18583 18078,18443 18078,19624 17836,19624 Z M 18078,19647 L 18078,20008 17836,20008 17836,19647 18078,19647 Z"/>
     <path fill="rgb(145,145,145)" stroke="none" d="M 18078,20008 L 18078,22923 17836,23063 17836,20008 18078,20008 Z M 17836,19647 L 17836,18583 18078,18443 18078,19647 17836,19647 Z M 18066,19669 L 18066,19986 17836,19986 17836,19669 18066,19669 Z"/>
     <path fill="rgb(146,146,146)" stroke="none" d="M 18066,19986 L 18066,19669 17836,19669 17836,18583 18078,18443 18078,22923 17836,23063 17836,19986 18066,19986 Z M 18043,19692 L 18043,19963 17836,19963 17836,19692 18043,19692 Z"/>
     <path fill="rgb(147,147,147)" stroke="none" d="M 18043,19963 L 18043,19692 17836,19692 17836,18583 18078,18443 18078,22923 17836,23063 17836,19963 18043,19963 Z M 18020,19715 L 18020,19940 17836,19940 17836,19715 18020,19715 Z"/>
     <path fill="rgb(148,148,148)" stroke="none" d="M 18020,19940 L 18020,19715 17836,19715 17836,18583 18078,18443 18078,22923 17836,23063 17836,19940 18020,19940 Z M 17998,19737 L 17998,19918 17836,19918 17836,19737 17998,19737 Z"/>
     <path fill="rgb(149,149,149)" stroke="none" d="M 17998,19918 L 17998,19737 17836,19737 17836,18583 18078,18443 18078,22923 17836,23063 17836,19918 17998,19918 Z M 17840,19760 L 17975,19760 17975,19895 17840,19895 17840,19760 Z"/>
     <path fill="rgb(150,150,150)" stroke="none" d="M 17840,19760 L 17840,19895 17975,19895 17975,19760 17840,19760 Z M 17863,19783 L 17952,19783 17952,19872 17863,19872 17863,19783 Z M 17836,23063 L 17836,18583 18078,18443 18078,22923 17836,23063 Z"/>
     <path fill="rgb(151,151,151)" stroke="none" d="M 17863,19783 L 17863,19872 17952,19872 17952,19783 17863,19783 Z M 17885,19805 L 17930,19805 17930,19850 17885,19850 17885,19805 Z M 17836,23063 L 17836,18583 18078,18443 18078,22923 17836,23063 Z"/>
     <path fill="rgb(153,153,153)" stroke="none" d="M 17885,19805 L 17885,19850 17930,19850 17930,19805 17885,19805 Z M 17836,23063 L 17836,18583 18078,18443 18078,22923 17836,23063 Z"/>
     <path fill="none" stroke="rgb(178,178,178)" id="Drawing_5_0" stroke-width="40" stroke-linejoin="round" d="M 17836,23063 L 17836,18583 18078,18443 18078,22923 17836,23063 Z"/>
    </g>
    <g>
     <defs>
      <linearGradient id="Gradient_783" gradientUnits="userSpaceOnUse" x1="8130" y1="16619" x2="12992" y2="16627">
       <stop offset="0.1" stop-color="rgb(51,51,51)"/>
       <stop offset="1" stop-color="rgb(153,153,153)"/>
      </linearGradient>
     </defs>
     <path fill="url(#Gradient_783)" stroke="rgb(178,178,178)" id="Drawing_6_0" stroke-width="40" stroke-linejoin="round" d="M 8136,17463 L 8136,12983 12986,15783 12982,20263 8136,17463 Z"/>
    </g>
    <g>
     <defs>
      <linearGradient id="Gradient_784" gradientUnits="userSpaceOnUse" x1="8250" y1="16619" x2="12869" y2="16627">
       <stop offset="0.1" stop-color="rgb(147,212,240)"/>
       <stop offset="1" stop-color="rgb(233,246,252)"/>
      </linearGradient>
     </defs>
     <path fill="url(#Gradient_784)" stroke="rgb(102,102,102)" id="Drawing_7_0" stroke-width="40" stroke-linejoin="round" d="M 8257,17393 L 8257,13193 12864,15853 12864,20053 8257,17393 Z"/>
    </g>
    <g>
     <defs>
      <linearGradient id="Gradient_785" gradientUnits="userSpaceOnUse" x1="10682" y1="12843" x2="10682" y2="15783">
       <stop offset="0.1" stop-color="rgb(51,51,51)"/>
       <stop offset="1" stop-color="rgb(153,153,153)"/>
      </linearGradient>
     </defs>
     <path fill="url(#Gradient_785)" stroke="rgb(178,178,178)" id="Drawing_8_0" stroke-width="40" stroke-linejoin="round" d="M 12986,15783 L 8136,12983 8378,12843 13228,15643 12986,15783 Z"/>
    </g>
    <g>
     <defs>
      <linearGradient id="Gradient_786" gradientUnits="userSpaceOnUse" x1="3280" y1="13819" x2="8142" y2="13827">
       <stop offset="0.1" stop-color="rgb(51,51,51)"/>
       <stop offset="1" stop-color="rgb(153,153,153)"/>
      </linearGradient>
     </defs>
     <path fill="url(#Gradient_786)" stroke="rgb(178,178,178)" id="Drawing_9_0" stroke-width="40" stroke-linejoin="round" d="M 3286,14663 L 3286,10183 8136,12983 8132,17463 3286,14663 Z"/>
    </g>
    <g>
     <defs>
      <linearGradient id="Gradient_787" gradientUnits="userSpaceOnUse" x1="3400" y1="13819" x2="8019" y2="13827">
       <stop offset="0.1" stop-color="rgb(147,212,240)"/>
       <stop offset="1" stop-color="rgb(233,246,252)"/>
      </linearGradient>
     </defs>
     <path fill="url(#Gradient_787)" stroke="rgb(102,102,102)" id="Drawing_10_0" stroke-width="40" stroke-linejoin="round" d="M 3407,14593 L 3407,10393 8014,13053 8014,17253 3407,14593 Z"/>
    </g>
    <g>
     <defs>
      <linearGradient id="Gradient_788" gradientUnits="userSpaceOnUse" x1="5832" y1="10043" x2="5832" y2="12983">
       <stop offset="0.1" stop-color="rgb(51,51,51)"/>
       <stop offset="1" stop-color="rgb(153,153,153)"/>
      </linearGradient>
     </defs>
     <path fill="url(#Gradient_788)" stroke="rgb(178,178,178)" id="Drawing_11_0" stroke-width="40" stroke-linejoin="round" d="M 8136,12983 L 3286,10183 3528,10043 8378,12843 8136,12983 Z"/>
    </g>
    <g>
     <defs>
      <linearGradient id="Gradient_789" gradientUnits="userSpaceOnUse" x1="3280" y1="18299" x2="8142" y2="18307">
       <stop offset="0.1" stop-color="rgb(51,51,51)"/>
       <stop offset="1" stop-color="rgb(153,153,153)"/>
      </linearGradient>
     </defs>
     <path fill="url(#Gradient_789)" stroke="rgb(178,178,178)" id="Drawing_12_0" stroke-width="40" stroke-linejoin="round" d="M 3286,19143 L 3286,14663 8136,17463 8132,21943 3286,19143 Z"/>
    </g>
    <g>
     <defs>
      <linearGradient id="Gradient_790" gradientUnits="userSpaceOnUse" x1="3400" y1="18299" x2="8019" y2="18307">
       <stop offset="0.1" stop-color="rgb(147,212,240)"/>
       <stop offset="1" stop-color="rgb(233,246,252)"/>
      </linearGradient>
     </defs>
     <path fill="url(#Gradient_790)" stroke="rgb(102,102,102)" id="Drawing_13_0" stroke-width="40" stroke-linejoin="round" d="M 3407,19073 L 3407,14873 8014,17533 8014,21733 3407,19073 Z"/>
    </g>
    <g>
     <defs>
      <linearGradient id="Gradient_791" gradientUnits="userSpaceOnUse" x1="8130" y1="21099" x2="12992" y2="21107">
       <stop offset="0.1" stop-color="rgb(51,51,51)"/>
       <stop offset="1" stop-color="rgb(153,153,153)"/>
      </linearGradient>
     </defs>
     <path fill="url(#Gradient_791)" stroke="rgb(178,178,178)" id="Drawing_14_0" stroke-width="40" stroke-linejoin="round" d="M 8136,21943 L 8136,17463 12986,20263 12982,24743 8136,21943 Z"/>
    </g>
    <g>
     <defs>
      <linearGradient id="Gradient_792" gradientUnits="userSpaceOnUse" x1="8250" y1="21099" x2="12869" y2="21107">
       <stop offset="0.1" stop-color="rgb(147,212,240)"/>
       <stop offset="1" stop-color="rgb(233,246,252)"/>
      </linearGradient>
     </defs>
     <path fill="url(#Gradient_792)" stroke="rgb(102,102,102)" id="Drawing_15_0" stroke-width="40" stroke-linejoin="round" d="M 8257,21873 L 8257,17673 12864,20333 12864,24533 8257,21873 Z"/>
    </g>
    <g>
     <defs>
      <linearGradient id="Gradient_793" gradientUnits="userSpaceOnUse" x1="12980" y1="23899" x2="17842" y2="23907">
       <stop offset="0.1" stop-color="rgb(51,51,51)"/>
       <stop offset="1" stop-color="rgb(153,153,153)"/>
      </linearGradient>
     </defs>
     <path fill="url(#Gradient_793)" stroke="rgb(178,178,178)" id="Drawing_16_0" stroke-width="40" stroke-linejoin="round" d="M 12986,24743 L 12986,20263 17836,23063 17832,27543 12986,24743 Z"/>
    </g>
    <g>
     <defs>
      <linearGradient id="Gradient_794" gradientUnits="userSpaceOnUse" x1="13100" y1="23899" x2="17719" y2="23907">
       <stop offset="0.1" stop-color="rgb(147,212,240)"/>
       <stop offset="1" stop-color="rgb(233,246,252)"/>
      </linearGradient>
     </defs>
     <path fill="url(#Gradient_794)" stroke="rgb(102,102,102)" id="Drawing_17_0" stroke-width="40" stroke-linejoin="round" d="M 13107,24673 L 13107,20473 17714,23133 17714,27333 13107,24673 Z"/>
    </g>
    <g>
     <path fill="rgb(51,51,51)" stroke="none" d="M 17836,26596 L 17836,23063 18078,22923 18078,26596 17836,26596 Z"/>
     <path fill="rgb(52,52,52)" stroke="none" d="M 18078,26596 L 18078,27403 17836,27543 17836,26596 18078,26596 Z M 17836,26573 L 17836,23063 18078,22923 18078,26573 17836,26573 Z"/>
     <path fill="rgb(53,53,53)" stroke="none" d="M 18078,26573 L 18078,27403 17836,27543 17836,26573 18078,26573 Z M 17836,26551 L 17836,23063 18078,22923 18078,26551 17836,26551 Z"/>
     <path fill="rgb(54,54,54)" stroke="none" d="M 18078,26551 L 18078,27403 17836,27543 17836,26551 18078,26551 Z M 17836,26528 L 17836,23063 18078,22923 18078,26528 17836,26528 Z"/>
     <path fill="rgb(55,55,55)" stroke="none" d="M 18078,26528 L 18078,27403 17836,27543 17836,26528 18078,26528 Z M 17836,26505 L 17836,23063 18078,22923 18078,26505 17836,26505 Z"/>
     <path fill="rgb(56,56,56)" stroke="none" d="M 18078,26505 L 18078,27403 17836,27543 17836,26505 18078,26505 Z M 17836,26483 L 17836,23063 18078,22923 18078,26483 17836,26483 Z"/>
     <path fill="rgb(57,57,57)" stroke="none" d="M 18078,26483 L 18078,27403 17836,27543 17836,26483 18078,26483 Z M 17836,26460 L 17836,23063 18078,22923 18078,26460 17836,26460 Z"/>
     <path fill="rgb(58,58,58)" stroke="none" d="M 18078,26460 L 18078,27403 17836,27543 17836,26460 18078,26460 Z M 17836,26437 L 17836,23063 18078,22923 18078,26437 17836,26437 Z"/>
     <path fill="rgb(59,59,59)" stroke="none" d="M 18078,26437 L 18078,27403 17836,27543 17836,26437 18078,26437 Z M 17836,26415 L 17836,23063 18078,22923 18078,26415 17836,26415 Z"/>
     <path fill="rgb(60,60,60)" stroke="none" d="M 18078,26415 L 18078,27403 17836,27543 17836,26415 18078,26415 Z M 17836,26392 L 17836,23063 18078,22923 18078,26392 17836,26392 Z"/>
     <path fill="rgb(61,61,61)" stroke="none" d="M 18078,26392 L 18078,27403 17836,27543 17836,26392 18078,26392 Z M 17836,26369 L 17836,23063 18078,22923 18078,26369 17836,26369 Z"/>
     <path fill="rgb(62,62,62)" stroke="none" d="M 18078,26369 L 18078,27403 17836,27543 17836,26369 18078,26369 Z M 17836,26347 L 17836,23063 18078,22923 18078,26347 17836,26347 Z"/>
     <path fill="rgb(63,63,63)" stroke="none" d="M 18078,26347 L 18078,27403 17836,27543 17836,26347 18078,26347 Z M 17836,26324 L 17836,23063 18078,22923 18078,26324 17836,26324 Z"/>
     <path fill="rgb(64,64,64)" stroke="none" d="M 18078,26324 L 18078,27403 17836,27543 17836,26324 18078,26324 Z M 17836,26301 L 17836,23063 18078,22923 18078,26301 17836,26301 Z"/>
     <path fill="rgb(65,65,65)" stroke="none" d="M 18078,26301 L 18078,27403 17836,27543 17836,26301 18078,26301 Z M 17836,26279 L 17836,23063 18078,22923 18078,26279 17836,26279 Z"/>
     <path fill="rgb(66,66,66)" stroke="none" d="M 18078,26279 L 18078,27403 17836,27543 17836,26279 18078,26279 Z M 17836,26256 L 17836,23063 18078,22923 18078,26256 17836,26256 Z"/>
     <path fill="rgb(67,67,67)" stroke="none" d="M 18078,26256 L 18078,27403 17836,27543 17836,26256 18078,26256 Z M 17836,26233 L 17836,23063 18078,22923 18078,26233 17836,26233 Z"/>
     <path fill="rgb(68,68,68)" stroke="none" d="M 18078,26233 L 18078,27403 17836,27543 17836,26233 18078,26233 Z M 17836,26211 L 17836,23063 18078,22923 18078,26211 17836,26211 Z"/>
     <path fill="rgb(69,69,69)" stroke="none" d="M 18078,26211 L 18078,27403 17836,27543 17836,26211 18078,26211 Z M 17836,26188 L 17836,23063 18078,22923 18078,26188 17836,26188 Z"/>
     <path fill="rgb(70,70,70)" stroke="none" d="M 18078,26188 L 18078,27403 17836,27543 17836,26188 18078,26188 Z M 17836,26165 L 17836,23063 18078,22923 18078,26165 17836,26165 Z"/>
     <path fill="rgb(71,71,71)" stroke="none" d="M 18078,26165 L 18078,27403 17836,27543 17836,26165 18078,26165 Z M 17836,26143 L 17836,23063 18078,22923 18078,26143 17836,26143 Z"/>
     <path fill="rgb(72,72,72)" stroke="none" d="M 18078,26143 L 18078,27403 17836,27543 17836,26143 18078,26143 Z M 17836,26120 L 17836,23063 18078,22923 18078,26120 17836,26120 Z"/>
     <path fill="rgb(73,73,73)" stroke="none" d="M 18078,26120 L 18078,27403 17836,27543 17836,26120 18078,26120 Z M 17836,26097 L 17836,23063 18078,22923 18078,26097 17836,26097 Z"/>
     <path fill="rgb(74,74,74)" stroke="none" d="M 18078,26097 L 18078,27403 17836,27543 17836,26097 18078,26097 Z M 17836,26075 L 17836,23063 18078,22923 18078,26075 17836,26075 Z"/>
     <path fill="rgb(75,75,75)" stroke="none" d="M 18078,26075 L 18078,27403 17836,27543 17836,26075 18078,26075 Z M 17836,26052 L 17836,23063 18078,22923 18078,26052 17836,26052 Z"/>
     <path fill="rgb(76,76,76)" stroke="none" d="M 18078,26052 L 18078,27403 17836,27543 17836,26052 18078,26052 Z M 17836,26029 L 17836,23063 18078,22923 18078,26029 17836,26029 Z"/>
     <path fill="rgb(77,77,77)" stroke="none" d="M 18078,26029 L 18078,27403 17836,27543 17836,26029 18078,26029 Z M 17836,26007 L 17836,23063 18078,22923 18078,26007 17836,26007 Z"/>
     <path fill="rgb(78,78,78)" stroke="none" d="M 18078,26007 L 18078,27403 17836,27543 17836,26007 18078,26007 Z M 17836,25984 L 17836,23063 18078,22923 18078,25984 17836,25984 Z"/>
     <path fill="rgb(79,79,79)" stroke="none" d="M 18078,25984 L 18078,27403 17836,27543 17836,25984 18078,25984 Z M 17836,25961 L 17836,23063 18078,22923 18078,25961 17836,25961 Z"/>
     <path fill="rgb(80,80,80)" stroke="none" d="M 18078,25961 L 18078,27403 17836,27543 17836,25961 18078,25961 Z M 17836,25939 L 17836,23063 18078,22923 18078,25939 17836,25939 Z"/>
     <path fill="rgb(81,81,81)" stroke="none" d="M 18078,25939 L 18078,27403 17836,27543 17836,25939 18078,25939 Z M 17836,25916 L 17836,23063 18078,22923 18078,25916 17836,25916 Z"/>
     <path fill="rgb(82,82,82)" stroke="none" d="M 18078,25916 L 18078,27403 17836,27543 17836,25916 18078,25916 Z M 17836,25893 L 17836,23063 18078,22923 18078,25893 17836,25893 Z"/>
     <path fill="rgb(83,83,83)" stroke="none" d="M 18078,25893 L 18078,27403 17836,27543 17836,25893 18078,25893 Z M 17836,25871 L 17836,23063 18078,22923 18078,25871 17836,25871 Z"/>
     <path fill="rgb(84,84,84)" stroke="none" d="M 18078,25871 L 18078,27403 17836,27543 17836,25871 18078,25871 Z M 17836,25848 L 17836,23063 18078,22923 18078,25848 17836,25848 Z"/>
     <path fill="rgb(85,85,85)" stroke="none" d="M 18078,25848 L 18078,27403 17836,27543 17836,25848 18078,25848 Z M 17836,25825 L 17836,23063 18078,22923 18078,25825 17836,25825 Z"/>
     <path fill="rgb(86,86,86)" stroke="none" d="M 18078,25825 L 18078,27403 17836,27543 17836,25825 18078,25825 Z M 17836,25803 L 17836,23063 18078,22923 18078,25803 17836,25803 Z"/>
     <path fill="rgb(87,87,87)" stroke="none" d="M 18078,25803 L 18078,27403 17836,27543 17836,25803 18078,25803 Z M 17836,25780 L 17836,23063 18078,22923 18078,25780 17836,25780 Z"/>
     <path fill="rgb(88,88,88)" stroke="none" d="M 18078,25780 L 18078,27403 17836,27543 17836,25780 18078,25780 Z M 17836,25757 L 17836,23063 18078,22923 18078,25757 17836,25757 Z"/>
     <path fill="rgb(89,89,89)" stroke="none" d="M 18078,25757 L 18078,27403 17836,27543 17836,25757 18078,25757 Z M 17836,25735 L 17836,23063 18078,22923 18078,25735 17836,25735 Z"/>
     <path fill="rgb(90,90,90)" stroke="none" d="M 18078,25735 L 18078,27403 17836,27543 17836,25735 18078,25735 Z M 17836,25712 L 17836,23063 18078,22923 18078,25712 17836,25712 Z"/>
     <path fill="rgb(91,91,91)" stroke="none" d="M 18078,25712 L 18078,27403 17836,27543 17836,25712 18078,25712 Z M 18078,22926 L 18078,25689 17836,25689 17836,23063 18073,22926 18078,22926 Z"/>
     <path fill="rgb(92,92,92)" stroke="none" d="M 18078,25689 L 18078,27403 17836,27543 17836,25689 18078,25689 Z M 18073,22926 L 18078,22923 18078,22926 18073,22926 Z M 18078,22948 L 18078,25667 17836,25667 17836,23063 18035,22948 18078,22948 Z"/>
     <path fill="rgb(93,93,93)" stroke="none" d="M 18078,25667 L 18078,27403 17836,27543 17836,25667 18078,25667 Z M 18035,22948 L 18078,22923 18078,22948 18035,22948 Z M 18078,22971 L 18078,25644 17836,25644 17836,23063 17995,22971 18078,22971 Z"/>
     <path fill="rgb(94,94,94)" stroke="none" d="M 18078,25644 L 18078,27403 17836,27543 17836,25644 18078,25644 Z M 17995,22971 L 18078,22923 18078,22971 17995,22971 Z M 18078,22994 L 18078,25621 17836,25621 17836,23063 17955,22994 18078,22994 Z"/>
     <path fill="rgb(95,95,95)" stroke="none" d="M 18078,25621 L 18078,27403 17836,27543 17836,25621 18078,25621 Z M 17955,22994 L 18078,22923 18078,22994 17955,22994 Z M 18078,23016 L 18078,25599 17836,25599 17836,23063 17917,23016 18078,23016 Z"/>
     <path fill="rgb(96,96,96)" stroke="none" d="M 18078,25599 L 18078,27403 17836,27543 17836,25599 18078,25599 Z M 17917,23016 L 18078,22923 18078,23016 17917,23016 Z M 18078,23039 L 18078,25576 17836,25576 17836,23063 17877,23039 18078,23039 Z"/>
     <path fill="rgb(97,97,97)" stroke="none" d="M 18078,25576 L 18078,27403 17836,27543 17836,25576 18078,25576 Z M 17877,23039 L 18078,22923 18078,23039 17877,23039 Z M 18078,23062 L 18078,25553 17836,25553 17836,23063 17838,23062 18078,23062 Z"/>
     <path fill="rgb(98,98,98)" stroke="none" d="M 18078,25553 L 18078,27403 17836,27543 17836,25553 18078,25553 Z M 17838,23062 L 18078,22923 18078,23062 17838,23062 Z M 18078,23084 L 18078,25531 17836,25531 17836,23084 18078,23084 Z"/>
     <path fill="rgb(99,99,99)" stroke="none" d="M 18078,25531 L 18078,27403 17836,27543 17836,25531 18078,25531 Z M 17836,23084 L 17836,23063 18078,22923 18078,23084 17836,23084 Z M 18078,23107 L 18078,25508 17836,25508 17836,23107 18078,23107 Z"/>
     <path fill="rgb(100,100,100)" stroke="none" d="M 18078,25508 L 18078,27403 17836,27543 17836,25508 18078,25508 Z M 17836,23107 L 17836,23063 18078,22923 18078,23107 17836,23107 Z M 18078,23130 L 18078,25485 17836,25485 17836,23130 18078,23130 Z"/>
     <path fill="rgb(101,101,101)" stroke="none" d="M 18078,25485 L 18078,27403 17836,27543 17836,25485 18078,25485 Z M 17836,23130 L 17836,23063 18078,22923 18078,23130 17836,23130 Z M 18078,23152 L 18078,25463 17836,25463 17836,23152 18078,23152 Z"/>
     <path fill="rgb(102,102,102)" stroke="none" d="M 18078,25463 L 18078,27403 17836,27543 17836,25463 18078,25463 Z M 17836,23152 L 17836,23063 18078,22923 18078,23152 17836,23152 Z M 18078,23175 L 18078,25440 17836,25440 17836,23175 18078,23175 Z"/>
     <path fill="rgb(103,103,103)" stroke="none" d="M 18078,25440 L 18078,27403 17836,27543 17836,25440 18078,25440 Z M 17836,23175 L 17836,23063 18078,22923 18078,23175 17836,23175 Z M 18078,23198 L 18078,25417 17836,25417 17836,23198 18078,23198 Z"/>
     <path fill="rgb(104,104,104)" stroke="none" d="M 18078,25417 L 18078,27403 17836,27543 17836,25417 18078,25417 Z M 17836,23198 L 17836,23063 18078,22923 18078,23198 17836,23198 Z M 18078,23220 L 18078,25395 17836,25395 17836,23220 18078,23220 Z"/>
     <path fill="rgb(105,105,105)" stroke="none" d="M 18078,25395 L 18078,27403 17836,27543 17836,25395 18078,25395 Z M 17836,23220 L 17836,23063 18078,22923 18078,23220 17836,23220 Z M 18078,23243 L 18078,25372 17836,25372 17836,23243 18078,23243 Z"/>
     <path fill="rgb(106,106,106)" stroke="none" d="M 18078,25372 L 18078,27403 17836,27543 17836,25372 18078,25372 Z M 17836,23243 L 17836,23063 18078,22923 18078,23243 17836,23243 Z M 18078,23266 L 18078,25349 17836,25349 17836,23266 18078,23266 Z"/>
     <path fill="rgb(107,107,107)" stroke="none" d="M 18078,25349 L 18078,27403 17836,27543 17836,25349 18078,25349 Z M 17836,23266 L 17836,23063 18078,22923 18078,23266 17836,23266 Z M 18078,23288 L 18078,25327 17836,25327 17836,23288 18078,23288 Z"/>
     <path fill="rgb(108,108,108)" stroke="none" d="M 18078,25327 L 18078,27403 17836,27543 17836,25327 18078,25327 Z M 17836,23288 L 17836,23063 18078,22923 18078,23288 17836,23288 Z M 18078,23311 L 18078,25304 17836,25304 17836,23311 18078,23311 Z"/>
     <path fill="rgb(109,109,109)" stroke="none" d="M 18078,25304 L 18078,27403 17836,27543 17836,25304 18078,25304 Z M 17836,23311 L 17836,23063 18078,22923 18078,23311 17836,23311 Z M 18078,23334 L 18078,25281 17836,25281 17836,23334 18078,23334 Z"/>
     <path fill="rgb(110,110,110)" stroke="none" d="M 18078,25281 L 18078,27403 17836,27543 17836,25281 18078,25281 Z M 17836,23334 L 17836,23063 18078,22923 18078,23334 17836,23334 Z M 18078,23356 L 18078,25259 17836,25259 17836,23356 18078,23356 Z"/>
     <path fill="rgb(111,111,111)" stroke="none" d="M 18078,25259 L 18078,27403 17836,27543 17836,25259 18078,25259 Z M 17836,23356 L 17836,23063 18078,22923 18078,23356 17836,23356 Z M 18078,23379 L 18078,25236 17836,25236 17836,23379 18078,23379 Z"/>
     <path fill="rgb(112,112,112)" stroke="none" d="M 18078,25236 L 18078,27403 17836,27543 17836,25236 18078,25236 Z M 17836,23379 L 17836,23063 18078,22923 18078,23379 17836,23379 Z M 18078,23402 L 18078,25213 17836,25213 17836,23402 18078,23402 Z"/>
     <path fill="rgb(113,113,113)" stroke="none" d="M 18078,25213 L 18078,27403 17836,27543 17836,25213 18078,25213 Z M 17836,23402 L 17836,23063 18078,22923 18078,23402 17836,23402 Z M 18078,23424 L 18078,25191 17836,25191 17836,23424 18078,23424 Z"/>
     <path fill="rgb(114,114,114)" stroke="none" d="M 18078,25191 L 18078,27403 17836,27543 17836,25191 18078,25191 Z M 17836,23424 L 17836,23063 18078,22923 18078,23424 17836,23424 Z M 18078,23447 L 18078,25168 17836,25168 17836,23447 18078,23447 Z"/>
     <path fill="rgb(115,115,115)" stroke="none" d="M 18078,25168 L 18078,27403 17836,27543 17836,25168 18078,25168 Z M 17836,23447 L 17836,23063 18078,22923 18078,23447 17836,23447 Z M 18078,23470 L 18078,25145 17836,25145 17836,23470 18078,23470 Z"/>
     <path fill="rgb(116,116,116)" stroke="none" d="M 18078,25145 L 18078,27403 17836,27543 17836,25145 18078,25145 Z M 17836,23470 L 17836,23063 18078,22923 18078,23470 17836,23470 Z M 18078,23492 L 18078,25123 17836,25123 17836,23492 18078,23492 Z"/>
     <path fill="rgb(117,117,117)" stroke="none" d="M 18078,25123 L 18078,27403 17836,27543 17836,25123 18078,25123 Z M 17836,23492 L 17836,23063 18078,22923 18078,23492 17836,23492 Z M 18078,23515 L 18078,25100 17836,25100 17836,23515 18078,23515 Z"/>
     <path fill="rgb(118,118,118)" stroke="none" d="M 18078,25100 L 18078,27403 17836,27543 17836,25100 18078,25100 Z M 17836,23515 L 17836,23063 18078,22923 18078,23515 17836,23515 Z M 18078,23537 L 18078,25077 17836,25077 17836,23537 18078,23537 Z"/>
     <path fill="rgb(119,119,119)" stroke="none" d="M 18078,25077 L 18078,27403 17836,27543 17836,25077 18078,25077 Z M 17836,23537 L 17836,23063 18078,22923 18078,23537 17836,23537 Z M 18078,23560 L 18078,25055 17836,25055 17836,23560 18078,23560 Z"/>
     <path fill="rgb(120,120,120)" stroke="none" d="M 18078,25055 L 18078,27403 17836,27543 17836,25055 18078,25055 Z M 17836,23560 L 17836,23063 18078,22923 18078,23560 17836,23560 Z M 18078,23583 L 18078,25032 17836,25032 17836,23583 18078,23583 Z"/>
     <path fill="rgb(121,121,121)" stroke="none" d="M 18078,25032 L 18078,27403 17836,27543 17836,25032 18078,25032 Z M 17836,23583 L 17836,23063 18078,22923 18078,23583 17836,23583 Z M 18078,23605 L 18078,25010 17836,25010 17836,23605 18078,23605 Z"/>
     <path fill="rgb(122,122,122)" stroke="none" d="M 18078,25010 L 18078,27403 17836,27543 17836,25010 18078,25010 Z M 17836,23605 L 17836,23063 18078,22923 18078,23605 17836,23605 Z M 18078,23628 L 18078,24987 17836,24987 17836,23628 18078,23628 Z"/>
     <path fill="rgb(123,123,123)" stroke="none" d="M 18078,24987 L 18078,27403 17836,27543 17836,24987 18078,24987 Z M 17836,23628 L 17836,23063 18078,22923 18078,23628 17836,23628 Z M 18078,23651 L 18078,24964 17836,24964 17836,23651 18078,23651 Z"/>
     <path fill="rgb(124,124,124)" stroke="none" d="M 18078,24964 L 18078,27403 17836,27543 17836,24964 18078,24964 Z M 17836,23651 L 17836,23063 18078,22923 18078,23651 17836,23651 Z M 18078,23673 L 18078,24942 17836,24942 17836,23673 18078,23673 Z"/>
     <path fill="rgb(125,125,125)" stroke="none" d="M 18078,24942 L 18078,27403 17836,27543 17836,24942 18078,24942 Z M 17836,23673 L 17836,23063 18078,22923 18078,23673 17836,23673 Z M 18078,23696 L 18078,24919 17836,24919 17836,23696 18078,23696 Z"/>
     <path fill="rgb(126,126,126)" stroke="none" d="M 18078,24919 L 18078,27403 17836,27543 17836,24919 18078,24919 Z M 17836,23696 L 17836,23063 18078,22923 18078,23696 17836,23696 Z M 18078,23719 L 18078,24896 17836,24896 17836,23719 18078,23719 Z"/>
     <path fill="rgb(127,127,127)" stroke="none" d="M 18078,24896 L 18078,27403 17836,27543 17836,24896 18078,24896 Z M 17836,23719 L 17836,23063 18078,22923 18078,23719 17836,23719 Z M 18078,23741 L 18078,24874 17836,24874 17836,23741 18078,23741 Z"/>
     <path fill="rgb(128,128,128)" stroke="none" d="M 18078,24874 L 18078,27403 17836,27543 17836,24874 18078,24874 Z M 17836,23741 L 17836,23063 18078,22923 18078,23741 17836,23741 Z M 18078,23764 L 18078,24851 17836,24851 17836,23764 18078,23764 Z"/>
     <path fill="rgb(129,129,129)" stroke="none" d="M 18078,24851 L 18078,27403 17836,27543 17836,24851 18078,24851 Z M 17836,23764 L 17836,23063 18078,22923 18078,23764 17836,23764 Z M 18078,23787 L 18078,24828 17836,24828 17836,23787 18078,23787 Z"/>
     <path fill="rgb(130,130,130)" stroke="none" d="M 18078,24828 L 18078,27403 17836,27543 17836,24828 18078,24828 Z M 17836,23787 L 17836,23063 18078,22923 18078,23787 17836,23787 Z M 18078,23809 L 18078,24806 17836,24806 17836,23809 18078,23809 Z"/>
     <path fill="rgb(131,131,131)" stroke="none" d="M 18078,24806 L 18078,27403 17836,27543 17836,24806 18078,24806 Z M 17836,23809 L 17836,23063 18078,22923 18078,23809 17836,23809 Z M 18078,23832 L 18078,24783 17836,24783 17836,23832 18078,23832 Z"/>
     <path fill="rgb(132,132,132)" stroke="none" d="M 18078,24783 L 18078,27403 17836,27543 17836,24783 18078,24783 Z M 17836,23832 L 17836,23063 18078,22923 18078,23832 17836,23832 Z M 18078,23855 L 18078,24760 17836,24760 17836,23855 18078,23855 Z"/>
     <path fill="rgb(133,133,133)" stroke="none" d="M 18078,24760 L 18078,27403 17836,27543 17836,24760 18078,24760 Z M 17836,23855 L 17836,23063 18078,22923 18078,23855 17836,23855 Z M 18078,23877 L 18078,24738 17836,24738 17836,23877 18078,23877 Z"/>
     <path fill="rgb(134,134,134)" stroke="none" d="M 18078,24738 L 18078,27403 17836,27543 17836,24738 18078,24738 Z M 17836,23877 L 17836,23063 18078,22923 18078,23877 17836,23877 Z M 18078,23900 L 18078,24715 17836,24715 17836,23900 18078,23900 Z"/>
     <path fill="rgb(135,135,135)" stroke="none" d="M 18078,24715 L 18078,27403 17836,27543 17836,24715 18078,24715 Z M 17836,23900 L 17836,23063 18078,22923 18078,23900 17836,23900 Z M 18078,23923 L 18078,24692 17836,24692 17836,23923 18078,23923 Z"/>
     <path fill="rgb(136,136,136)" stroke="none" d="M 18078,24692 L 18078,27403 17836,27543 17836,24692 18078,24692 Z M 17836,23923 L 17836,23063 18078,22923 18078,23923 17836,23923 Z M 18078,23945 L 18078,24670 17836,24670 17836,23945 18078,23945 Z"/>
     <path fill="rgb(137,137,137)" stroke="none" d="M 18078,24670 L 18078,27403 17836,27543 17836,24670 18078,24670 Z M 17836,23945 L 17836,23063 18078,22923 18078,23945 17836,23945 Z M 18078,23968 L 18078,24647 17836,24647 17836,23968 18078,23968 Z"/>
     <path fill="rgb(138,138,138)" stroke="none" d="M 18078,24647 L 18078,27403 17836,27543 17836,24647 18078,24647 Z M 17836,23968 L 17836,23063 18078,22923 18078,23968 17836,23968 Z M 18078,23991 L 18078,24624 17836,24624 17836,23991 18078,23991 Z"/>
     <path fill="rgb(139,139,139)" stroke="none" d="M 18078,24624 L 18078,27403 17836,27543 17836,24624 18078,24624 Z M 17836,23991 L 17836,23063 18078,22923 18078,23991 17836,23991 Z M 18078,24013 L 18078,24602 17836,24602 17836,24013 18078,24013 Z"/>
     <path fill="rgb(140,140,140)" stroke="none" d="M 18078,24602 L 18078,27403 17836,27543 17836,24602 18078,24602 Z M 17836,24013 L 17836,23063 18078,22923 18078,24013 17836,24013 Z M 18078,24036 L 18078,24579 17836,24579 17836,24036 18078,24036 Z"/>
     <path fill="rgb(141,141,141)" stroke="none" d="M 18078,24579 L 18078,27403 17836,27543 17836,24579 18078,24579 Z M 17836,24036 L 17836,23063 18078,22923 18078,24036 17836,24036 Z M 18078,24059 L 18078,24556 17836,24556 17836,24059 18078,24059 Z"/>
     <path fill="rgb(142,142,142)" stroke="none" d="M 18078,24556 L 18078,27403 17836,27543 17836,24556 18078,24556 Z M 17836,24059 L 17836,23063 18078,22923 18078,24059 17836,24059 Z M 18078,24081 L 18078,24534 17836,24534 17836,24081 18078,24081 Z"/>
     <path fill="rgb(143,143,143)" stroke="none" d="M 18078,24534 L 18078,27403 17836,27543 17836,24534 18078,24534 Z M 17836,24081 L 17836,23063 18078,22923 18078,24081 17836,24081 Z M 18078,24104 L 18078,24511 17836,24511 17836,24104 18078,24104 Z"/>
     <path fill="rgb(144,144,144)" stroke="none" d="M 18078,24511 L 18078,27403 17836,27543 17836,24511 18078,24511 Z M 17836,24104 L 17836,23063 18078,22923 18078,24104 17836,24104 Z M 18078,24127 L 18078,24488 17836,24488 17836,24127 18078,24127 Z"/>
     <path fill="rgb(145,145,145)" stroke="none" d="M 18078,24488 L 18078,27403 17836,27543 17836,24488 18078,24488 Z M 17836,24127 L 17836,23063 18078,22923 18078,24127 17836,24127 Z M 18066,24149 L 18066,24466 17836,24466 17836,24149 18066,24149 Z"/>
     <path fill="rgb(146,146,146)" stroke="none" d="M 18066,24466 L 18066,24149 17836,24149 17836,23063 18078,22923 18078,27403 17836,27543 17836,24466 18066,24466 Z M 18043,24172 L 18043,24443 17836,24443 17836,24172 18043,24172 Z"/>
     <path fill="rgb(147,147,147)" stroke="none" d="M 18043,24443 L 18043,24172 17836,24172 17836,23063 18078,22923 18078,27403 17836,27543 17836,24443 18043,24443 Z M 18020,24195 L 18020,24420 17836,24420 17836,24195 18020,24195 Z"/>
     <path fill="rgb(148,148,148)" stroke="none" d="M 18020,24420 L 18020,24195 17836,24195 17836,23063 18078,22923 18078,27403 17836,27543 17836,24420 18020,24420 Z M 17998,24217 L 17998,24398 17836,24398 17836,24217 17998,24217 Z"/>
     <path fill="rgb(149,149,149)" stroke="none" d="M 17998,24398 L 17998,24217 17836,24217 17836,23063 18078,22923 18078,27403 17836,27543 17836,24398 17998,24398 Z M 17840,24240 L 17975,24240 17975,24375 17840,24375 17840,24240 Z"/>
     <path fill="rgb(150,150,150)" stroke="none" d="M 17840,24240 L 17840,24375 17975,24375 17975,24240 17840,24240 Z M 17863,24263 L 17952,24263 17952,24352 17863,24352 17863,24263 Z M 17836,27543 L 17836,23063 18078,22923 18078,27403 17836,27543 Z"/>
     <path fill="rgb(151,151,151)" stroke="none" d="M 17863,24263 L 17863,24352 17952,24352 17952,24263 17863,24263 Z M 17885,24285 L 17930,24285 17930,24330 17885,24330 17885,24285 Z M 17836,27543 L 17836,23063 18078,22923 18078,27403 17836,27543 Z"/>
     <path fill="rgb(153,153,153)" stroke="none" d="M 17885,24285 L 17885,24330 17930,24330 17930,24285 17885,24285 Z M 17836,27543 L 17836,23063 18078,22923 18078,27403 17836,27543 Z"/>
     <path fill="none" stroke="rgb(178,178,178)" id="Drawing_18_0" stroke-width="40" stroke-linejoin="round" d="M 17836,27543 L 17836,23063 18078,22923 18078,27403 17836,27543 Z"/>
    </g>
    <g>
     <path fill="none" stroke="rgb(0,0,0)" id="Drawing_19_0" stroke-width="40" stroke-linejoin="round" d="M 3528,10043 L 18078,18443 18078,27403 17832,27543 3286,19143 3286,10183 3528,10043 Z"/>
    </g>
   </g>
  </g>
 </g>
</svg>