<?xml version="1.0" encoding="UTF-8"?>

<svg version="1.2" baseProfile="tiny" width="69.31mm" height="48.67mm" viewBox="4727 11514 6931 4867" preserveAspectRatio="xMidYMid" fill-rule="evenodd" stroke-width="28.222" stroke-linejoin="round" xmlns="http://www.w3.org/2000/svg" xmlns:xlink="http://www.w3.org/1999/xlink" xml:space="preserve">
 <g visibility="visible" id="Slide_1">
  <g id="DrawingGroup_1">
   <g>
    <path fill="rgb(221,221,221)" stroke="none" d="M 8491,16361 C 8754,16361 11658,15085 11658,14696 11658,14308 11250,14308 10986,14308 10986,14474 8395,15140 8491,16361 Z"/>
    <path fill="none" stroke="rgb(221,221,221)" id="Drawing_1_0" stroke-linejoin="round" d="M 8491,16361 C 8754,16361 11658,15085 11658,14696 11658,14308 11250,14308 10986,14308 10986,14474 8395,15140 8491,16361 Z"/>
   </g>
   <g id="DrawingGroup_2">
    <g>
     <defs>
      <linearGradient id="Gradient_878" gradientUnits="userSpaceOnUse" x1="4935" y1="14720" x2="8300" y2="14726">
       <stop offset="0.1" stop-color="rgb(179,179,179)"/>
       <stop offset="1" stop-color="rgb(229,229,229)"/>
      </linearGradient>
     </defs>
     <path fill="url(#Gradient_878)" stroke="rgb(255,255,255)" id="Drawing_2_0" stroke-width="40" stroke-linejoin="round" d="M 4939,14308 L 4939,13198 8298,15140 8298,16249 4939,14308 Z"/>
    </g>
    <g>
     <path fill="rgb(179,179,179)" stroke="none" d="M 10572,14936 L 9217,15719 8298,15719 8298,15140 10572,13826 10572,14936 Z"/>
     <path fill="rgb(180,180,180)" stroke="none" d="M 9217,15719 L 8298,16250 8298,15719 9217,15719 Z M 10572,13826 L 11177,13476 11177,14586 10572,14936 10572,13826 Z M 10543,14952 L 9267,15690 8298,15690 8298,15140 10543,13842 10543,14952 Z"/>
     <path fill="rgb(181,181,181)" stroke="none" d="M 9267,15690 L 8298,16250 8298,15690 9267,15690 Z M 10543,13842 L 11177,13476 11177,14586 10543,14952 10543,13842 Z M 10514,14969 L 9317,15661 8298,15661 8298,15140 10514,13859 10514,14969 Z"/>
     <path fill="rgb(182,182,182)" stroke="none" d="M 9317,15661 L 8298,16250 8298,15661 9317,15661 Z M 10514,13859 L 11177,13476 11177,14586 10514,14969 10514,13859 Z M 10485,14986 L 9367,15632 8298,15632 8298,15140 10485,13876 10485,14986 Z"/>
     <path fill="rgb(183,183,183)" stroke="none" d="M 9367,15632 L 8298,16250 8298,15632 9367,15632 Z M 10485,13876 L 11177,13476 11177,14586 10485,14986 10485,13876 Z M 10456,15003 L 9417,15603 8298,15603 8298,15140 10456,13893 10456,15003 Z"/>
     <path fill="rgb(184,184,184)" stroke="none" d="M 9417,15603 L 8298,16250 8298,15603 9417,15603 Z M 10456,13893 L 11177,13476 11177,14586 10456,15003 10456,13893 Z M 10428,15019 L 9466,15575 8298,15575 8298,15140 10428,13909 10428,15019 Z"/>
     <path fill="rgb(185,185,185)" stroke="none" d="M 9466,15575 L 8298,16250 8298,15575 9466,15575 Z M 10428,13909 L 11177,13476 11177,14586 10428,15019 10428,13909 Z M 10399,15036 L 9516,15546 8298,15546 8298,15140 10399,13926 10399,15036 Z"/>
     <path fill="rgb(186,186,186)" stroke="none" d="M 9516,15546 L 8298,16250 8298,15546 9516,15546 Z M 10399,13926 L 11177,13476 11177,14586 10399,15036 10399,13926 Z M 10370,15052 L 9566,15517 8298,15517 8298,15140 10370,13942 10370,15052 Z"/>
     <path fill="rgb(187,187,187)" stroke="none" d="M 9566,15517 L 8298,16250 8298,15517 9566,15517 Z M 10370,13942 L 11177,13476 11177,14586 10370,15052 10370,13942 Z M 10341,15069 L 9616,15488 8298,15488 8298,15140 10341,13959 10341,15069 Z"/>
     <path fill="rgb(188,188,188)" stroke="none" d="M 9616,15488 L 8298,16250 8298,15488 9616,15488 Z M 10341,13959 L 11177,13476 11177,14586 10341,15069 10341,13959 Z M 10312,15086 L 9667,15459 8298,15459 8298,15140 10312,13976 10312,15086 Z"/>
     <path fill="rgb(189,189,189)" stroke="none" d="M 9667,15459 L 8298,16250 8298,15459 9667,15459 Z M 10312,13976 L 11177,13476 11177,14586 10312,15086 10312,13976 Z M 10283,15103 L 9717,15430 8298,15430 8298,15140 10283,13993 10283,15103 Z"/>
     <path fill="rgb(190,190,190)" stroke="none" d="M 9717,15430 L 8298,16250 8298,15430 9717,15430 Z M 10283,13993 L 11177,13476 11177,14586 10283,15103 10283,13993 Z M 10255,15119 L 9765,15402 8298,15402 8298,15140 10255,14009 10255,15119 Z"/>
     <path fill="rgb(191,191,191)" stroke="none" d="M 9765,15402 L 8298,16250 8298,15402 9765,15402 Z M 10255,14009 L 11177,13476 11177,14586 10255,15119 10255,14009 Z M 10226,15136 L 9815,15373 8298,15373 8298,15140 10226,14026 10226,15136 Z"/>
     <path fill="rgb(192,192,192)" stroke="none" d="M 9815,15373 L 8298,16250 8298,15373 9815,15373 Z M 10226,14026 L 11177,13476 11177,14586 10226,15136 10226,14026 Z M 10197,15152 L 9866,15344 8298,15344 8298,15140 10197,14042 10197,15152 Z"/>
     <path fill="rgb(193,193,193)" stroke="none" d="M 9866,15344 L 8298,16250 8298,15344 9866,15344 Z M 10197,14042 L 11177,13476 11177,14586 10197,15152 10197,14042 Z M 10168,15169 L 9916,15315 8298,15315 8298,15140 10168,14059 10168,15169 Z"/>
     <path fill="rgb(194,194,194)" stroke="none" d="M 9916,15315 L 8298,16250 8298,15315 9916,15315 Z M 10168,14059 L 11177,13476 11177,14586 10168,15169 10168,14059 Z M 10139,15186 L 9966,15286 8298,15286 8298,15140 10139,14076 10139,15186 Z"/>
     <path fill="rgb(195,195,195)" stroke="none" d="M 9966,15286 L 8298,16250 8298,15286 9966,15286 Z M 10139,14076 L 11177,13476 11177,14586 10139,15186 10139,14076 Z M 10111,15202 L 10014,15258 8298,15258 8298,15140 10111,14092 10111,15202 Z"/>
     <path fill="rgb(196,196,196)" stroke="none" d="M 10014,15258 L 8298,16250 8298,15258 10014,15258 Z M 10111,14092 L 11177,13476 11177,14586 10111,15202 10111,14092 Z M 10082,15219 L 10065,15229 8298,15229 8298,15140 10082,14109 10082,15219 Z"/>
     <path fill="rgb(197,197,197)" stroke="none" d="M 10065,15229 L 8298,16250 8298,15229 10065,15229 Z M 10082,14109 L 11177,13476 11177,14586 10082,15219 10082,14109 Z M 10053,15200 L 8298,15200 8298,15140 10053,14126 10053,15200 Z"/>
     <path fill="rgb(198,198,198)" stroke="none" d="M 10053,15200 L 10053,14126 11177,13476 11177,14586 8298,16250 8298,15200 10053,15200 Z M 10024,15171 L 8298,15171 8298,15140 10024,14142 10024,15171 Z"/>
     <path fill="rgb(199,199,199)" stroke="none" d="M 10024,15171 L 10024,14142 11177,13476 11177,14586 8298,16250 8298,15171 10024,15171 Z M 9995,15142 L 8325,15142 8325,15124 9995,14159 9995,15142 Z"/>
     <path fill="rgb(200,200,200)" stroke="none" d="M 8325,15142 L 9995,15142 9995,14159 11177,13476 11177,14586 8298,16250 8298,15140 8325,15124 8325,15142 Z M 9966,15113 L 8354,15113 8354,15108 9966,14176 9966,15113 Z"/>
     <path fill="rgb(201,201,201)" stroke="none" d="M 8354,15113 L 9966,15113 9966,14176 11177,13476 11177,14586 8298,16250 8298,15140 8354,15108 8354,15113 Z M 9938,15085 L 8393,15085 9938,14192 9938,15085 Z"/>
     <path fill="rgb(202,202,202)" stroke="none" d="M 9938,15085 L 9938,14192 11177,13476 11177,14586 8298,16250 8298,15140 8393,15085 9938,15085 Z M 9909,15056 L 8443,15056 9909,14209 9909,15056 Z"/>
     <path fill="rgb(203,203,203)" stroke="none" d="M 9909,15056 L 9909,14209 11177,13476 11177,14586 8298,16250 8298,15140 8443,15056 9909,15056 Z M 9880,15027 L 8494,15027 9880,14226 9880,15027 Z"/>
     <path fill="rgb(204,204,204)" stroke="none" d="M 9880,15027 L 9880,14226 11177,13476 11177,14586 8298,16250 8298,15140 8494,15027 9880,15027 Z M 9851,14998 L 8544,14998 9851,14242 9851,14998 Z"/>
     <path fill="rgb(205,205,205)" stroke="none" d="M 9851,14998 L 9851,14242 11177,13476 11177,14586 8298,16250 8298,15140 8544,14998 9851,14998 Z M 9822,14969 L 8594,14969 9822,14259 9822,14969 Z"/>
     <path fill="rgb(206,206,206)" stroke="none" d="M 9822,14969 L 9822,14259 11177,13476 11177,14586 8298,16250 8298,15140 8594,14969 9822,14969 Z M 9794,14941 L 8642,14941 9794,14275 9794,14941 Z"/>
     <path fill="rgb(207,207,207)" stroke="none" d="M 9794,14941 L 9794,14275 11177,13476 11177,14586 8298,16250 8298,15140 8642,14941 9794,14941 Z M 9765,14912 L 8692,14912 9765,14292 9765,14912 Z"/>
     <path fill="rgb(208,208,208)" stroke="none" d="M 9765,14912 L 9765,14292 11177,13476 11177,14586 8298,16250 8298,15140 8692,14912 9765,14912 Z M 9736,14883 L 8743,14883 9736,14309 9736,14883 Z"/>
     <path fill="rgb(209,209,209)" stroke="none" d="M 9736,14883 L 9736,14309 11177,13476 11177,14586 8298,16250 8298,15140 8743,14883 9736,14883 Z M 9707,14854 L 8793,14854 9707,14326 9707,14854 Z"/>
     <path fill="rgb(210,210,210)" stroke="none" d="M 9707,14854 L 9707,14326 11177,13476 11177,14586 8298,16250 8298,15140 8793,14854 9707,14854 Z M 9678,14825 L 8843,14825 9678,14342 9678,14825 Z"/>
     <path fill="rgb(211,211,211)" stroke="none" d="M 9678,14825 L 9678,14342 11177,13476 11177,14586 8298,16250 8298,15140 8843,14825 9678,14825 Z M 9649,14796 L 8893,14796 9649,14359 9649,14796 Z"/>
     <path fill="rgb(212,212,212)" stroke="none" d="M 9649,14796 L 9649,14359 11177,13476 11177,14586 8298,16250 8298,15140 8893,14796 9649,14796 Z M 9621,14768 L 8942,14768 9621,14375 9621,14768 Z"/>
     <path fill="rgb(213,213,213)" stroke="none" d="M 9621,14768 L 9621,14375 11177,13476 11177,14586 8298,16250 8298,15140 8942,14768 9621,14768 Z M 9592,14739 L 8992,14739 9592,14392 9592,14739 Z"/>
     <path fill="rgb(214,214,214)" stroke="none" d="M 9592,14739 L 9592,14392 11177,13476 11177,14586 8298,16250 8298,15140 8992,14739 9592,14739 Z M 9563,14710 L 9042,14710 9563,14409 9563,14710 Z"/>
     <path fill="rgb(215,215,215)" stroke="none" d="M 9563,14710 L 9563,14409 11177,13476 11177,14586 8298,16250 8298,15140 9042,14710 9563,14710 Z M 9534,14681 L 9092,14681 9534,14426 9534,14681 Z"/>
     <path fill="rgb(216,216,216)" stroke="none" d="M 9534,14681 L 9534,14426 11177,13476 11177,14586 8298,16250 8298,15140 9092,14681 9534,14681 Z M 9505,14652 L 9142,14652 9505,14442 9505,14652 Z"/>
     <path fill="rgb(217,217,217)" stroke="none" d="M 9505,14652 L 9505,14442 11177,13476 11177,14586 8298,16250 8298,15140 9142,14652 9505,14652 Z M 9477,14624 L 9191,14624 9477,14459 9477,14624 Z"/>
     <path fill="rgb(218,218,218)" stroke="none" d="M 9477,14624 L 9477,14459 11177,13476 11177,14586 8298,16250 8298,15140 9191,14624 9477,14624 Z M 9448,14595 L 9241,14595 9448,14475 9448,14595 Z"/>
     <path fill="rgb(219,219,219)" stroke="none" d="M 9448,14595 L 9448,14475 11177,13476 11177,14586 8298,16250 8298,15140 9241,14595 9448,14595 Z M 9419,14566 L 9291,14566 9419,14492 9419,14566 Z"/>
     <path fill="rgb(220,220,220)" stroke="none" d="M 9419,14566 L 9419,14492 11177,13476 11177,14586 8298,16250 8298,15140 9291,14566 9419,14566 Z M 9390,14537 L 9341,14537 9390,14509 9390,14537 Z"/>
     <path fill="rgb(221,221,221)" stroke="none" d="M 9390,14537 L 9390,14509 11177,13476 11177,14586 8298,16250 8298,15140 9341,14537 9390,14537 Z"/>
     <path fill="rgb(222,222,222)" stroke="none" d="M 8298,16250 L 8298,15140 11177,13476 11177,14586 8298,16250 Z"/>
     <path fill="rgb(223,223,223)" stroke="none" d="M 8298,16250 L 8298,15140 11177,13476 11177,14586 8298,16250 Z"/>
     <path fill="rgb(224,224,224)" stroke="none" d="M 8298,16250 L 8298,15140 11177,13476 11177,14586 8298,16250 Z"/>
     <path fill="rgb(225,225,225)" stroke="none" d="M 8298,16250 L 8298,15140 11177,13476 11177,14586 8298,16250 Z"/>
     <path fill="rgb(226,226,226)" stroke="none" d="M 8298,16250 L 8298,15140 11177,13476 11177,14586 8298,16250 Z"/>
     <path fill="rgb(227,227,227)" stroke="none" d="M 8298,16250 L 8298,15140 11177,13476 11177,14586 8298,16250 Z"/>
     <path fill="rgb(229,229,229)" stroke="none" d="M 8298,16250 L 8298,15140 11177,13476 11177,14586 8298,16250 Z"/>
     <path fill="none" stroke="rgb(255,255,255)" id="Drawing_3_0" stroke-width="40" stroke-linejoin="round" d="M 8298,16250 L 8298,15140 11177,13476 11177,14586 8298,16250 Z"/>
    </g>
    <g>
     <defs>
      <linearGradient id="Gradient_879" gradientUnits="userSpaceOnUse" x1="8058" y1="11534" x2="8058" y2="15140">
       <stop offset="0.1" stop-color="rgb(179,179,179)"/>
       <stop offset="1" stop-color="rgb(229,229,229)"/>
      </linearGradient>
     </defs>
     <path fill="url(#Gradient_879)" stroke="rgb(255,255,255)" id="Drawing_4_0" stroke-width="40" stroke-linejoin="round" d="M 8298,15140 L 4939,13198 7818,11534 11178,13476 8298,15140 Z"/>
    </g>
    <g>
     <path fill="none" stroke="rgb(127,127,127)" id="Drawing_5_0" stroke-width="40" stroke-linejoin="round" d="M 6091,14086 L 6091,14752"/>
    </g>
    <g>
     <path fill="none" stroke="rgb(255,255,255)" id="Drawing_6_0" stroke-width="40" stroke-linejoin="round" d="M 8203,15507 L 6667,14619"/>
    </g>
    <g>
     <path fill="none" stroke="rgb(255,255,255)" id="Drawing_7_0" stroke-width="40" stroke-linejoin="round" d="M 6658,14419 L 6658,14641"/>
    </g>
    <g>
     <path fill="none" stroke="rgb(0,0,0)" id="Drawing_8_0" stroke-width="40" stroke-linejoin="round" d="M 8194,15307 L 8194,15529"/>
    </g>
    <g>
     <path fill="none" stroke="rgb(0,0,0)" id="Drawing_9_0" stroke-width="40" stroke-linejoin="round" d="M 8194,15307 L 6658,14419"/>
    </g>
    <g>
     <path fill="rgb(57,181,74)" stroke="none" d="M 6283,14419 L 6283,14197 6475,14308 6475,14530 6283,14419 Z"/>
     <path fill="none" stroke="rgb(0,0,0)" id="Drawing_10_0" stroke-width="40" stroke-linejoin="round" d="M 6283,14419 L 6283,14197 6475,14308 6475,14530 6283,14419 Z"/>
    </g>
    <g>
     <path fill="none" stroke="rgb(127,127,127)" id="Drawing_11_0" stroke-width="40" stroke-linejoin="round" d="M 5899,13975 L 5899,14641"/>
    </g>
    <g>
     <path fill="none" stroke="rgb(127,127,127)" id="Drawing_12_0" stroke-width="40" stroke-linejoin="round" d="M 5707,13864 L 5707,14530"/>
    </g>
    <g>
     <path fill="none" stroke="rgb(127,127,127)" id="Drawing_13_0" stroke-width="40" stroke-linejoin="round" d="M 5515,13753 L 5515,14419"/>
    </g>
    <g>
     <path fill="none" stroke="rgb(127,127,127)" id="Drawing_14_0" stroke-width="40" stroke-linejoin="round" d="M 5323,13642 L 5323,14308"/>
    </g>
    <g>
     <path fill="none" stroke="rgb(127,127,127)" id="Drawing_15_0" stroke-width="40" stroke-linejoin="round" d="M 5131,13531 L 5131,14197"/>
    </g>
    <g>
     <defs>
      <linearGradient id="Gradient_880" gradientUnits="userSpaceOnUse" x1="4746" y1="13697" x2="4940" y2="13697">
       <stop offset="0.1" stop-color="rgb(179,179,179)"/>
       <stop offset="1" stop-color="rgb(229,229,229)"/>
      </linearGradient>
     </defs>
     <path fill="url(#Gradient_880)" stroke="rgb(255,255,255)" id="Drawing_16_0" stroke-width="40" stroke-linejoin="round" d="M 4747,14197 L 4747,13087 4939,13198 4939,14308 4747,14197 Z"/>
    </g>
    <g>
     <defs>
      <linearGradient id="Gradient_881" gradientUnits="userSpaceOnUse" x1="8297" y1="15750" x2="8491" y2="15750">
       <stop offset="0.1" stop-color="rgb(179,179,179)"/>
       <stop offset="1" stop-color="rgb(229,229,229)"/>
      </linearGradient>
     </defs>
     <path fill="url(#Gradient_881)" stroke="rgb(255,255,255)" id="Drawing_17_0" stroke-width="40" stroke-linejoin="round" d="M 8298,16250 L 8298,15140 8490,15251 8490,16361 8298,16250 Z"/>
    </g>
    <g>
     <path fill="none" stroke="rgb(0,0,0)" id="Drawing_18_0" stroke-width="40" stroke-linejoin="round" d="M 4747,14197 L 4747,13087 4939,13198 7818,11534 11178,13476 11178,14585 8490,16139 8490,16361 4747,14197 Z"/>
    </g>
   </g>
  </g>
 </g>
</svg>