<?xml version="1.0" encoding="UTF-8"?>

<svg version="1.2" baseProfile="tiny" width="84.68mm" height="190.8mm" viewBox="4409 3520 8468 19080" preserveAspectRatio="xMidYMid" fill-rule="evenodd" stroke-width="28.222" stroke-linejoin="round" xmlns="http://www.w3.org/2000/svg" xmlns:xlink="http://www.w3.org/1999/xlink" xml:space="preserve">
 <g visibility="visible" id="Slide_1">
  <g id="DrawingGroup_1">
   <g>
    <path fill="rgb(221,221,221)" stroke="none" d="M 8554,22582 C 8817,22582 12191,21112 12676,20762 13012,20569 12919,19922 12451,19925 12434,19922 8554,22582 8554,22582 Z"/>
    <path fill="none" stroke="rgb(221,221,221)" id="Drawing_1_0" stroke-linejoin="round" d="M 8554,22582 C 8817,22582 12191,21112 12676,20762 13012,20569 12919,19922 12451,19925 12434,19922 8554,22582 8554,22582 Z"/>
   </g>
   <g id="DrawingGroup_2">
    <g id="DrawingGroup_3">
     <g>
      <path fill="rgb(51,51,51)" stroke="none" d="M 8552,19137 L 8552,8020 12432,5780 12432,19137 8552,19137 Z"/>
      <path fill="rgb(52,52,52)" stroke="none" d="M 12432,19137 L 12432,20340 8552,22580 8552,19137 12432,19137 Z M 8552,19055 L 8552,8020 12432,5780 12432,19055 8552,19055 Z"/>
      <path fill="rgb(53,53,53)" stroke="none" d="M 12432,19055 L 12432,20340 8552,22580 8552,19055 12432,19055 Z M 8552,18972 L 8552,8020 12432,5780 12432,18972 8552,18972 Z"/>
      <path fill="rgb(54,54,54)" stroke="none" d="M 12432,18972 L 12432,20340 8552,22580 8552,18972 12432,18972 Z M 8552,18890 L 8552,8020 12432,5780 12432,18890 8552,18890 Z"/>
      <path fill="rgb(55,55,55)" stroke="none" d="M 12432,18890 L 12432,20340 8552,22580 8552,18890 12432,18890 Z M 8552,18808 L 8552,8020 12432,5780 12432,18808 8552,18808 Z"/>
      <path fill="rgb(56,56,56)" stroke="none" d="M 12432,18808 L 12432,20340 8552,22580 8552,18808 12432,18808 Z M 8552,18725 L 8552,8020 12432,5780 12432,18725 8552,18725 Z"/>
      <path fill="rgb(57,57,57)" stroke="none" d="M 12432,18725 L 12432,20340 8552,22580 8552,18725 12432,18725 Z M 8552,18643 L 8552,8020 12432,5780 12432,18643 8552,18643 Z"/>
      <path fill="rgb(58,58,58)" stroke="none" d="M 12432,18643 L 12432,20340 8552,22580 8552,18643 12432,18643 Z M 8552,18561 L 8552,8020 12432,5780 12432,18561 8552,18561 Z"/>
      <path fill="rgb(59,59,59)" stroke="none" d="M 12432,18561 L 12432,20340 8552,22580 8552,18561 12432,18561 Z M 8552,18478 L 8552,8020 12432,5780 12432,18478 8552,18478 Z"/>
      <path fill="rgb(60,60,60)" stroke="none" d="M 12432,18478 L 12432,20340 8552,22580 8552,18478 12432,18478 Z M 8552,18396 L 8552,8020 12432,5780 12432,18396 8552,18396 Z"/>
      <path fill="rgb(61,61,61)" stroke="none" d="M 12432,18396 L 12432,20340 8552,22580 8552,18396 12432,18396 Z M 8552,18313 L 8552,8020 12432,5780 12432,18313 8552,18313 Z"/>
      <path fill="rgb(62,62,62)" stroke="none" d="M 12432,18313 L 12432,20340 8552,22580 8552,18313 12432,18313 Z M 8552,18231 L 8552,8020 12432,5780 12432,18231 8552,18231 Z"/>
      <path fill="rgb(63,63,63)" stroke="none" d="M 12432,18231 L 12432,20340 8552,22580 8552,18231 12432,18231 Z M 8552,18149 L 8552,8020 12432,5780 12432,18149 8552,18149 Z"/>
      <path fill="rgb(64,64,64)" stroke="none" d="M 12432,18149 L 12432,20340 8552,22580 8552,18149 12432,18149 Z M 8552,18066 L 8552,8020 12432,5780 12432,18066 8552,18066 Z"/>
      <path fill="rgb(65,65,65)" stroke="none" d="M 12432,18066 L 12432,20340 8552,22580 8552,18066 12432,18066 Z M 8552,17984 L 8552,8020 12432,5780 12432,17984 8552,17984 Z"/>
      <path fill="rgb(66,66,66)" stroke="none" d="M 12432,17984 L 12432,20340 8552,22580 8552,17984 12432,17984 Z M 8552,17902 L 8552,8020 12432,5780 12432,17902 8552,17902 Z"/>
      <path fill="rgb(67,67,67)" stroke="none" d="M 12432,17902 L 12432,20340 8552,22580 8552,17902 12432,17902 Z M 8552,17819 L 8552,8020 12432,5780 12432,17819 8552,17819 Z"/>
      <path fill="rgb(68,68,68)" stroke="none" d="M 12432,17819 L 12432,20340 8552,22580 8552,17819 12432,17819 Z M 8552,17737 L 8552,8020 12432,5780 12432,17737 8552,17737 Z"/>
      <path fill="rgb(69,69,69)" stroke="none" d="M 12432,17737 L 12432,20340 8552,22580 8552,17737 12432,17737 Z M 8552,17655 L 8552,8020 12432,5780 12432,17655 8552,17655 Z"/>
      <path fill="rgb(70,70,70)" stroke="none" d="M 12432,17655 L 12432,20340 8552,22580 8552,17655 12432,17655 Z M 8552,17572 L 8552,8020 12432,5780 12432,17572 8552,17572 Z"/>
      <path fill="rgb(71,71,71)" stroke="none" d="M 12432,17572 L 12432,20340 8552,22580 8552,17572 12432,17572 Z M 8552,17490 L 8552,8020 12432,5780 12432,17490 8552,17490 Z"/>
      <path fill="rgb(72,72,72)" stroke="none" d="M 12432,17490 L 12432,20340 8552,22580 8552,17490 12432,17490 Z M 8552,17407 L 8552,8020 12432,5780 12432,17407 8552,17407 Z"/>
      <path fill="rgb(73,73,73)" stroke="none" d="M 12432,17407 L 12432,20340 8552,22580 8552,17407 12432,17407 Z M 8552,17325 L 8552,8020 12432,5780 12432,17325 8552,17325 Z"/>
      <path fill="rgb(74,74,74)" stroke="none" d="M 12432,17325 L 12432,20340 8552,22580 8552,17325 12432,17325 Z M 8552,17243 L 8552,8020 12432,5780 12432,17243 8552,17243 Z"/>
      <path fill="rgb(75,75,75)" stroke="none" d="M 12432,17243 L 12432,20340 8552,22580 8552,17243 12432,17243 Z M 8552,17160 L 8552,8020 12432,5780 12432,17160 8552,17160 Z"/>
      <path fill="rgb(76,76,76)" stroke="none" d="M 12432,17160 L 12432,20340 8552,22580 8552,17160 12432,17160 Z M 8552,17078 L 8552,8020 12432,5780 12432,17078 8552,17078 Z"/>
      <path fill="rgb(77,77,77)" stroke="none" d="M 12432,17078 L 12432,20340 8552,22580 8552,17078 12432,17078 Z M 8552,16996 L 8552,8020 12432,5780 12432,16996 8552,16996 Z"/>
      <path fill="rgb(78,78,78)" stroke="none" d="M 12432,16996 L 12432,20340 8552,22580 8552,16996 12432,16996 Z M 8552,16913 L 8552,8020 12432,5780 12432,16913 8552,16913 Z"/>
      <path fill="rgb(79,79,79)" stroke="none" d="M 12432,16913 L 12432,20340 8552,22580 8552,16913 12432,16913 Z M 8552,16831 L 8552,8020 12432,5780 12432,16831 8552,16831 Z"/>
      <path fill="rgb(80,80,80)" stroke="none" d="M 12432,16831 L 12432,20340 8552,22580 8552,16831 12432,16831 Z M 8552,16748 L 8552,8020 12432,5780 12432,16748 8552,16748 Z"/>
      <path fill="rgb(81,81,81)" stroke="none" d="M 12432,16748 L 12432,20340 8552,22580 8552,16748 12432,16748 Z M 8552,16666 L 8552,8020 12432,5780 12432,16666 8552,16666 Z"/>
      <path fill="rgb(82,82,82)" stroke="none" d="M 12432,16666 L 12432,20340 8552,22580 8552,16666 12432,16666 Z M 8552,16584 L 8552,8020 12432,5780 12432,16584 8552,16584 Z"/>
      <path fill="rgb(83,83,83)" stroke="none" d="M 12432,16584 L 12432,20340 8552,22580 8552,16584 12432,16584 Z M 8552,16501 L 8552,8020 12432,5780 12432,16501 8552,16501 Z"/>
      <path fill="rgb(84,84,84)" stroke="none" d="M 12432,16501 L 12432,20340 8552,22580 8552,16501 12432,16501 Z M 8552,16419 L 8552,8020 12432,5780 12432,16419 8552,16419 Z"/>
      <path fill="rgb(85,85,85)" stroke="none" d="M 12432,16419 L 12432,20340 8552,22580 8552,16419 12432,16419 Z M 8552,16337 L 8552,8020 12432,5780 12432,16337 8552,16337 Z"/>
      <path fill="rgb(86,86,86)" stroke="none" d="M 12432,16337 L 12432,20340 8552,22580 8552,16337 12432,16337 Z M 8552,16254 L 8552,8020 12432,5780 12432,16254 8552,16254 Z"/>
      <path fill="rgb(87,87,87)" stroke="none" d="M 12432,16254 L 12432,20340 8552,22580 8552,16254 12432,16254 Z M 8552,16172 L 8552,8020 12432,5780 12432,16172 8552,16172 Z"/>
      <path fill="rgb(88,88,88)" stroke="none" d="M 12432,16172 L 12432,20340 8552,22580 8552,16172 12432,16172 Z M 8552,16090 L 8552,8020 12432,5780 12432,16090 8552,16090 Z"/>
      <path fill="rgb(89,89,89)" stroke="none" d="M 12432,16090 L 12432,20340 8552,22580 8552,16090 12432,16090 Z M 8552,16007 L 8552,8020 12432,5780 12432,16007 8552,16007 Z"/>
      <path fill="rgb(90,90,90)" stroke="none" d="M 12432,16007 L 12432,20340 8552,22580 8552,16007 12432,16007 Z M 8552,15925 L 8552,8020 12432,5780 12432,15925 8552,15925 Z"/>
      <path fill="rgb(91,91,91)" stroke="none" d="M 12432,15925 L 12432,20340 8552,22580 8552,15925 12432,15925 Z M 12432,5795 L 12432,15842 8552,15842 8552,8020 12406,5795 12432,5795 Z"/>
      <path fill="rgb(92,92,92)" stroke="none" d="M 12432,15842 L 12432,20340 8552,22580 8552,15842 12432,15842 Z M 12406,5795 L 12432,5780 12432,5795 12406,5795 Z M 12432,5877 L 12432,15760 8552,15760 8552,8020 12264,5877 12432,5877 Z"/>
      <path fill="rgb(93,93,93)" stroke="none" d="M 12432,15760 L 12432,20340 8552,22580 8552,15760 12432,15760 Z M 12264,5877 L 12432,5780 12432,5877 12264,5877 Z M 12432,5959 L 12432,15678 8552,15678 8552,8020 12122,5959 12432,5959 Z"/>
      <path fill="rgb(94,94,94)" stroke="none" d="M 12432,15678 L 12432,20340 8552,22580 8552,15678 12432,15678 Z M 12122,5959 L 12432,5780 12432,5959 12122,5959 Z M 12432,6042 L 12432,15595 8552,15595 8552,8020 11978,6042 12432,6042 Z"/>
      <path fill="rgb(95,95,95)" stroke="none" d="M 12432,15595 L 12432,20340 8552,22580 8552,15595 12432,15595 Z M 11978,6042 L 12432,5780 12432,6042 11978,6042 Z M 12432,6124 L 12432,15513 8552,15513 8552,8020 11836,6124 12432,6124 Z"/>
      <path fill="rgb(96,96,96)" stroke="none" d="M 12432,15513 L 12432,20340 8552,22580 8552,15513 12432,15513 Z M 11836,6124 L 12432,5780 12432,6124 11836,6124 Z M 12432,6206 L 12432,15431 8552,15431 8552,8020 11694,6206 12432,6206 Z"/>
      <path fill="rgb(97,97,97)" stroke="none" d="M 12432,15431 L 12432,20340 8552,22580 8552,15431 12432,15431 Z M 11694,6206 L 12432,5780 12432,6206 11694,6206 Z M 12432,6289 L 12432,15348 8552,15348 8552,8020 11550,6289 12432,6289 Z"/>
      <path fill="rgb(98,98,98)" stroke="none" d="M 12432,15348 L 12432,20340 8552,22580 8552,15348 12432,15348 Z M 11550,6289 L 12432,5780 12432,6289 11550,6289 Z M 12432,6371 L 12432,15266 8552,15266 8552,8020 11408,6371 12432,6371 Z"/>
      <path fill="rgb(99,99,99)" stroke="none" d="M 12432,15266 L 12432,20340 8552,22580 8552,15266 12432,15266 Z M 11408,6371 L 12432,5780 12432,6371 11408,6371 Z M 12432,6454 L 12432,15183 8552,15183 8552,8020 11265,6454 12432,6454 Z"/>
      <path fill="rgb(100,100,100)" stroke="none" d="M 12432,15183 L 12432,20340 8552,22580 8552,15183 12432,15183 Z M 11265,6454 L 12432,5780 12432,6454 11265,6454 Z M 12432,6536 L 12432,15101 8552,15101 8552,8020 11123,6536 12432,6536 Z"/>
      <path fill="rgb(101,101,101)" stroke="none" d="M 12432,15101 L 12432,20340 8552,22580 8552,15101 12432,15101 Z M 11123,6536 L 12432,5780 12432,6536 11123,6536 Z M 12432,6618 L 12432,15019 8552,15019 8552,8020 10980,6618 12432,6618 Z"/>
      <path fill="rgb(102,102,102)" stroke="none" d="M 12432,15019 L 12432,20340 8552,22580 8552,15019 12432,15019 Z M 10980,6618 L 12432,5780 12432,6618 10980,6618 Z M 12432,6701 L 12432,14936 8552,14936 8552,8020 10837,6701 12432,6701 Z"/>
      <path fill="rgb(103,103,103)" stroke="none" d="M 12432,14936 L 12432,20340 8552,22580 8552,14936 12432,14936 Z M 10837,6701 L 12432,5780 12432,6701 10837,6701 Z M 12432,6783 L 12432,14854 8552,14854 8552,8020 10695,6783 12432,6783 Z"/>
      <path fill="rgb(104,104,104)" stroke="none" d="M 12432,14854 L 12432,20340 8552,22580 8552,14854 12432,14854 Z M 10695,6783 L 12432,5780 12432,6783 10695,6783 Z M 12432,6865 L 12432,14772 8552,14772 8552,8020 10553,6865 12432,6865 Z"/>
      <path fill="rgb(105,105,105)" stroke="none" d="M 12432,14772 L 12432,20340 8552,22580 8552,14772 12432,14772 Z M 10553,6865 L 12432,5780 12432,6865 10553,6865 Z M 12432,6948 L 12432,14689 8552,14689 8552,8020 10409,6948 12432,6948 Z"/>
      <path fill="rgb(106,106,106)" stroke="none" d="M 12432,14689 L 12432,20340 8552,22580 8552,14689 12432,14689 Z M 10409,6948 L 12432,5780 12432,6948 10409,6948 Z M 12432,7030 L 12432,14607 8552,14607 8552,8020 10267,7030 12432,7030 Z"/>
      <path fill="rgb(107,107,107)" stroke="none" d="M 12432,14607 L 12432,20340 8552,22580 8552,14607 12432,14607 Z M 10267,7030 L 12432,5780 12432,7030 10267,7030 Z M 12432,7112 L 12432,14525 8552,14525 8552,8020 10125,7112 12432,7112 Z"/>
      <path fill="rgb(108,108,108)" stroke="none" d="M 12432,14525 L 12432,20340 8552,22580 8552,14525 12432,14525 Z M 10125,7112 L 12432,5780 12432,7112 10125,7112 Z M 12432,7195 L 12432,14442 8552,14442 8552,8020 9981,7195 12432,7195 Z"/>
      <path fill="rgb(109,109,109)" stroke="none" d="M 12432,14442 L 12432,20340 8552,22580 8552,14442 12432,14442 Z M 9981,7195 L 12432,5780 12432,7195 9981,7195 Z M 12432,7277 L 12432,14360 8552,14360 8552,8020 9839,7277 12432,7277 Z"/>
      <path fill="rgb(110,110,110)" stroke="none" d="M 12432,14360 L 12432,20340 8552,22580 8552,14360 12432,14360 Z M 9839,7277 L 12432,5780 12432,7277 9839,7277 Z M 12432,7360 L 12432,14277 8552,14277 8552,8020 9695,7360 12432,7360 Z"/>
      <path fill="rgb(111,111,111)" stroke="none" d="M 12432,14277 L 12432,20340 8552,22580 8552,14277 12432,14277 Z M 9695,7360 L 12432,5780 12432,7360 9695,7360 Z M 12432,7442 L 12432,14195 8552,14195 8552,8020 9553,7442 12432,7442 Z"/>
      <path fill="rgb(112,112,112)" stroke="none" d="M 12432,14195 L 12432,20340 8552,22580 8552,14195 12432,14195 Z M 9553,7442 L 12432,5780 12432,7442 9553,7442 Z M 12432,7524 L 12432,14113 8552,14113 8552,8020 9411,7524 12432,7524 Z"/>
      <path fill="rgb(113,113,113)" stroke="none" d="M 12432,14113 L 12432,20340 8552,22580 8552,14113 12432,14113 Z M 9411,7524 L 12432,5780 12432,7524 9411,7524 Z M 12432,7607 L 12432,14030 8552,14030 8552,8020 9267,7607 12432,7607 Z"/>
      <path fill="rgb(114,114,114)" stroke="none" d="M 12432,14030 L 12432,20340 8552,22580 8552,14030 12432,14030 Z M 9267,7607 L 12432,5780 12432,7607 9267,7607 Z M 12432,7689 L 12432,13948 8552,13948 8552,8020 9125,7689 12432,7689 Z"/>
      <path fill="rgb(115,115,115)" stroke="none" d="M 12432,13948 L 12432,20340 8552,22580 8552,13948 12432,13948 Z M 9125,7689 L 12432,5780 12432,7689 9125,7689 Z M 12432,7771 L 12432,13866 8552,13866 8552,8020 8983,7771 12432,7771 Z"/>
      <path fill="rgb(116,116,116)" stroke="none" d="M 12432,13866 L 12432,20340 8552,22580 8552,13866 12432,13866 Z M 8983,7771 L 12432,5780 12432,7771 8983,7771 Z M 12432,7854 L 12432,13783 8552,13783 8552,8020 8840,7854 12432,7854 Z"/>
      <path fill="rgb(117,117,117)" stroke="none" d="M 12432,13783 L 12432,20340 8552,22580 8552,13783 12432,13783 Z M 8840,7854 L 12432,5780 12432,7854 8840,7854 Z M 12432,7936 L 12432,13701 8552,13701 8552,8020 8698,7936 12432,7936 Z"/>
      <path fill="rgb(118,118,118)" stroke="none" d="M 12432,13701 L 12432,20340 8552,22580 8552,13701 12432,13701 Z M 8698,7936 L 12432,5780 12432,7936 8698,7936 Z M 12432,8018 L 12432,13619 8552,13619 8552,8020 8555,8018 12432,8018 Z"/>
      <path fill="rgb(119,119,119)" stroke="none" d="M 12432,13619 L 12432,20340 8552,22580 8552,13619 12432,13619 Z M 8555,8018 L 12432,5780 12432,8018 8555,8018 Z M 12432,8101 L 12432,13536 8552,13536 8552,8101 12432,8101 Z"/>
      <path fill="rgb(120,120,120)" stroke="none" d="M 12432,13536 L 12432,20340 8552,22580 8552,13536 12432,13536 Z M 8552,8101 L 8552,8020 12432,5780 12432,8101 8552,8101 Z M 12350,8183 L 12350,13454 8552,13454 8552,8183 12350,8183 Z"/>
      <path fill="rgb(121,121,121)" stroke="none" d="M 12350,13454 L 12350,8183 8552,8183 8552,8020 12432,5780 12432,20340 8552,22580 8552,13454 12350,13454 Z M 12267,8266 L 12267,13371 8552,13371 8552,8266 12267,8266 Z"/>
      <path fill="rgb(122,122,122)" stroke="none" d="M 12267,13371 L 12267,8266 8552,8266 8552,8020 12432,5780 12432,20340 8552,22580 8552,13371 12267,13371 Z M 12185,8348 L 12185,13289 8552,13289 8552,8348 12185,8348 Z"/>
      <path fill="rgb(123,123,123)" stroke="none" d="M 12185,13289 L 12185,8348 8552,8348 8552,8020 12432,5780 12432,20340 8552,22580 8552,13289 12185,13289 Z M 12103,8430 L 12103,13207 8552,13207 8552,8430 12103,8430 Z"/>
      <path fill="rgb(124,124,124)" stroke="none" d="M 12103,13207 L 12103,8430 8552,8430 8552,8020 12432,5780 12432,20340 8552,22580 8552,13207 12103,13207 Z M 12020,8513 L 12020,13124 8552,13124 8552,8513 12020,8513 Z"/>
      <path fill="rgb(125,125,125)" stroke="none" d="M 12020,13124 L 12020,8513 8552,8513 8552,8020 12432,5780 12432,20340 8552,22580 8552,13124 12020,13124 Z M 11938,8595 L 11938,13042 8552,13042 8552,8595 11938,8595 Z"/>
      <path fill="rgb(126,126,126)" stroke="none" d="M 11938,13042 L 11938,8595 8552,8595 8552,8020 12432,5780 12432,20340 8552,22580 8552,13042 11938,13042 Z M 11856,8677 L 11856,12960 8552,12960 8552,8677 11856,8677 Z"/>
      <path fill="rgb(127,127,127)" stroke="none" d="M 11856,12960 L 11856,8677 8552,8677 8552,8020 12432,5780 12432,20340 8552,22580 8552,12960 11856,12960 Z M 11773,8760 L 11773,12877 8552,12877 8552,8760 11773,8760 Z"/>
      <path fill="rgb(128,128,128)" stroke="none" d="M 11773,12877 L 11773,8760 8552,8760 8552,8020 12432,5780 12432,20340 8552,22580 8552,12877 11773,12877 Z M 11691,8842 L 11691,12795 8552,12795 8552,8842 11691,8842 Z"/>
      <path fill="rgb(129,129,129)" stroke="none" d="M 11691,12795 L 11691,8842 8552,8842 8552,8020 12432,5780 12432,20340 8552,22580 8552,12795 11691,12795 Z M 11608,8925 L 11608,12712 8552,12712 8552,8925 11608,8925 Z"/>
      <path fill="rgb(130,130,130)" stroke="none" d="M 11608,12712 L 11608,8925 8552,8925 8552,8020 12432,5780 12432,20340 8552,22580 8552,12712 11608,12712 Z M 11526,9007 L 11526,12630 8552,12630 8552,9007 11526,9007 Z"/>
      <path fill="rgb(131,131,131)" stroke="none" d="M 11526,12630 L 11526,9007 8552,9007 8552,8020 12432,5780 12432,20340 8552,22580 8552,12630 11526,12630 Z M 11444,9089 L 11444,12548 8552,12548 8552,9089 11444,9089 Z"/>
      <path fill="rgb(132,132,132)" stroke="none" d="M 11444,12548 L 11444,9089 8552,9089 8552,8020 12432,5780 12432,20340 8552,22580 8552,12548 11444,12548 Z M 11361,9172 L 11361,12465 8552,12465 8552,9172 11361,9172 Z"/>
      <path fill="rgb(133,133,133)" stroke="none" d="M 11361,12465 L 11361,9172 8552,9172 8552,8020 12432,5780 12432,20340 8552,22580 8552,12465 11361,12465 Z M 11279,9254 L 11279,12383 8552,12383 8552,9254 11279,9254 Z"/>
      <path fill="rgb(134,134,134)" stroke="none" d="M 11279,12383 L 11279,9254 8552,9254 8552,8020 12432,5780 12432,20340 8552,22580 8552,12383 11279,12383 Z M 11197,9336 L 11197,12301 8552,12301 8552,9336 11197,9336 Z"/>
      <path fill="rgb(135,135,135)" stroke="none" d="M 11197,12301 L 11197,9336 8552,9336 8552,8020 12432,5780 12432,20340 8552,22580 8552,12301 11197,12301 Z M 11114,9419 L 11114,12218 8552,12218 8552,9419 11114,9419 Z"/>
      <path fill="rgb(136,136,136)" stroke="none" d="M 11114,12218 L 11114,9419 8552,9419 8552,8020 12432,5780 12432,20340 8552,22580 8552,12218 11114,12218 Z M 11032,9501 L 11032,12136 8552,12136 8552,9501 11032,9501 Z"/>
      <path fill="rgb(137,137,137)" stroke="none" d="M 11032,12136 L 11032,9501 8552,9501 8552,8020 12432,5780 12432,20340 8552,22580 8552,12136 11032,12136 Z M 10950,9583 L 10950,12054 8552,12054 8552,9583 10950,9583 Z"/>
      <path fill="rgb(138,138,138)" stroke="none" d="M 10950,12054 L 10950,9583 8552,9583 8552,8020 12432,5780 12432,20340 8552,22580 8552,12054 10950,12054 Z M 8562,9666 L 10867,9666 10867,11971 8562,11971 8562,9666 Z"/>
      <path fill="rgb(139,139,139)" stroke="none" d="M 8562,9666 L 8562,11971 10867,11971 10867,9666 8562,9666 Z M 8644,9748 L 10785,9748 10785,11889 8644,11889 8644,9748 Z M 8552,22580 L 8552,8020 12432,5780 12432,20340 8552,22580 Z"/>
      <path fill="rgb(140,140,140)" stroke="none" d="M 8644,9748 L 8644,11889 10785,11889 10785,9748 8644,9748 Z M 8727,9831 L 10702,9831 10702,11806 8727,11806 8727,9831 Z M 8552,22580 L 8552,8020 12432,5780 12432,20340 8552,22580 Z"/>
      <path fill="rgb(141,141,141)" stroke="none" d="M 8727,9831 L 8727,11806 10702,11806 10702,9831 8727,9831 Z M 8809,9913 L 10620,9913 10620,11724 8809,11724 8809,9913 Z M 8552,22580 L 8552,8020 12432,5780 12432,20340 8552,22580 Z"/>
      <path fill="rgb(142,142,142)" stroke="none" d="M 8809,9913 L 8809,11724 10620,11724 10620,9913 8809,9913 Z M 8891,9995 L 10538,9995 10538,11642 8891,11642 8891,9995 Z M 8552,22580 L 8552,8020 12432,5780 12432,20340 8552,22580 Z"/>
      <path fill="rgb(143,143,143)" stroke="none" d="M 8891,9995 L 8891,11642 10538,11642 10538,9995 8891,9995 Z M 8974,10078 L 10455,10078 10455,11559 8974,11559 8974,10078 Z M 8552,22580 L 8552,8020 12432,5780 12432,20340 8552,22580 Z"/>
      <path fill="rgb(144,144,144)" stroke="none" d="M 8974,10078 L 8974,11559 10455,11559 10455,10078 8974,10078 Z M 9056,10160 L 10373,10160 10373,11477 9056,11477 9056,10160 Z M 8552,22580 L 8552,8020 12432,5780 12432,20340 8552,22580 Z"/>
      <path fill="rgb(145,145,145)" stroke="none" d="M 9056,10160 L 9056,11477 10373,11477 10373,10160 9056,10160 Z M 9138,10242 L 10291,10242 10291,11395 9138,11395 9138,10242 Z M 8552,22580 L 8552,8020 12432,5780 12432,20340 8552,22580 Z"/>
      <path fill="rgb(146,146,146)" stroke="none" d="M 9138,10242 L 9138,11395 10291,11395 10291,10242 9138,10242 Z M 9221,10325 L 10208,10325 10208,11312 9221,11312 9221,10325 Z M 8552,22580 L 8552,8020 12432,5780 12432,20340 8552,22580 Z"/>
      <path fill="rgb(147,147,147)" stroke="none" d="M 9221,10325 L 9221,11312 10208,11312 10208,10325 9221,10325 Z M 9303,10407 L 10126,10407 10126,11230 9303,11230 9303,10407 Z M 8552,22580 L 8552,8020 12432,5780 12432,20340 8552,22580 Z"/>
      <path fill="rgb(148,148,148)" stroke="none" d="M 9303,10407 L 9303,11230 10126,11230 10126,10407 9303,10407 Z M 9386,10490 L 10043,10490 10043,11147 9386,11147 9386,10490 Z M 8552,22580 L 8552,8020 12432,5780 12432,20340 8552,22580 Z"/>
      <path fill="rgb(149,149,149)" stroke="none" d="M 9386,10490 L 9386,11147 10043,11147 10043,10490 9386,10490 Z M 9468,10572 L 9961,10572 9961,11065 9468,11065 9468,10572 Z M 8552,22580 L 8552,8020 12432,5780 12432,20340 8552,22580 Z"/>
      <path fill="rgb(150,150,150)" stroke="none" d="M 9468,10572 L 9468,11065 9961,11065 9961,10572 9468,10572 Z M 9550,10654 L 9879,10654 9879,10983 9550,10983 9550,10654 Z M 8552,22580 L 8552,8020 12432,5780 12432,20340 8552,22580 Z"/>
      <path fill="rgb(151,151,151)" stroke="none" d="M 9550,10654 L 9550,10983 9879,10983 9879,10654 9550,10654 Z M 9633,10737 L 9796,10737 9796,10900 9633,10900 9633,10737 Z M 8552,22580 L 8552,8020 12432,5780 12432,20340 8552,22580 Z"/>
      <path fill="rgb(153,153,153)" stroke="none" d="M 9633,10737 L 9633,10900 9796,10900 9796,10737 9633,10737 Z M 8552,22580 L 8552,8020 12432,5780 12432,20340 8552,22580 Z"/>
      <path fill="none" stroke="rgb(178,178,178)" id="Drawing_2_0" stroke-width="40" stroke-linejoin="round" d="M 8552,22580 L 8552,8020 12432,5780 12432,20340 8552,22580 Z"/>
     </g>
     <g>
      <defs>
       <linearGradient id="Gradient_855" gradientUnits="userSpaceOnUse" x1="8552" y1="3540" x2="8552" y2="8020">
        <stop offset="0.1" stop-color="rgb(51,51,51)"/>
        <stop offset="1" stop-color="rgb(153,153,153)"/>
       </linearGradient>
      </defs>
      <path fill="url(#Gradient_855)" stroke="rgb(178,178,178)" id="Drawing_3_0" stroke-width="40" stroke-linejoin="round" d="M 8552,8020 L 4672,5780 8552,3540 12432,5780 8552,8020 Z"/>
     </g>
     <g>
      <defs>
       <linearGradient id="Gradient_856" gradientUnits="userSpaceOnUse" x1="4657" y1="14177" x2="8567" y2="14183">
        <stop offset="0.1" stop-color="rgb(51,51,51)"/>
        <stop offset="1" stop-color="rgb(153,153,153)"/>
       </linearGradient>
      </defs>
      <path fill="url(#Gradient_856)" stroke="rgb(178,178,178)" id="Drawing_4_0" stroke-width="40" stroke-linejoin="round" d="M 4672,20340 L 4672,5780 8552,8020 8552,22580 4672,20340 Z"/>
     </g>
     <g>
      <path fill="rgb(51,51,51)" stroke="none" d="M 8309,19373 L 8309,8160 8552,8020 8552,19373 8309,19373 Z"/>
      <path fill="rgb(52,52,52)" stroke="none" d="M 8552,19373 L 8552,22160 8309,22300 8309,19373 8552,19373 Z M 8309,19303 L 8309,8160 8552,8020 8552,19303 8309,19303 Z"/>
      <path fill="rgb(53,53,53)" stroke="none" d="M 8552,19303 L 8552,22160 8309,22300 8309,19303 8552,19303 Z M 8309,19233 L 8309,8160 8552,8020 8552,19233 8309,19233 Z"/>
      <path fill="rgb(54,54,54)" stroke="none" d="M 8552,19233 L 8552,22160 8309,22300 8309,19233 8552,19233 Z M 8309,19163 L 8309,8160 8552,8020 8552,19163 8309,19163 Z"/>
      <path fill="rgb(55,55,55)" stroke="none" d="M 8552,19163 L 8552,22160 8309,22300 8309,19163 8552,19163 Z M 8309,19093 L 8309,8160 8552,8020 8552,19093 8309,19093 Z"/>
      <path fill="rgb(56,56,56)" stroke="none" d="M 8552,19093 L 8552,22160 8309,22300 8309,19093 8552,19093 Z M 8309,19023 L 8309,8160 8552,8020 8552,19023 8309,19023 Z"/>
      <path fill="rgb(57,57,57)" stroke="none" d="M 8552,19023 L 8552,22160 8309,22300 8309,19023 8552,19023 Z M 8309,18953 L 8309,8160 8552,8020 8552,18953 8309,18953 Z"/>
      <path fill="rgb(58,58,58)" stroke="none" d="M 8552,18953 L 8552,22160 8309,22300 8309,18953 8552,18953 Z M 8309,18883 L 8309,8160 8552,8020 8552,18883 8309,18883 Z"/>
      <path fill="rgb(59,59,59)" stroke="none" d="M 8552,18883 L 8552,22160 8309,22300 8309,18883 8552,18883 Z M 8309,18813 L 8309,8160 8552,8020 8552,18813 8309,18813 Z"/>
      <path fill="rgb(60,60,60)" stroke="none" d="M 8552,18813 L 8552,22160 8309,22300 8309,18813 8552,18813 Z M 8309,18743 L 8309,8160 8552,8020 8552,18743 8309,18743 Z"/>
      <path fill="rgb(61,61,61)" stroke="none" d="M 8552,18743 L 8552,22160 8309,22300 8309,18743 8552,18743 Z M 8309,18673 L 8309,8160 8552,8020 8552,18673 8309,18673 Z"/>
      <path fill="rgb(62,62,62)" stroke="none" d="M 8552,18673 L 8552,22160 8309,22300 8309,18673 8552,18673 Z M 8309,18603 L 8309,8160 8552,8020 8552,18603 8309,18603 Z"/>
      <path fill="rgb(63,63,63)" stroke="none" d="M 8552,18603 L 8552,22160 8309,22300 8309,18603 8552,18603 Z M 8309,18533 L 8309,8160 8552,8020 8552,18533 8309,18533 Z"/>
      <path fill="rgb(64,64,64)" stroke="none" d="M 8552,18533 L 8552,22160 8309,22300 8309,18533 8552,18533 Z M 8309,18463 L 8309,8160 8552,8020 8552,18463 8309,18463 Z"/>
      <path fill="rgb(65,65,65)" stroke="none" d="M 8552,18463 L 8552,22160 8309,22300 8309,18463 8552,18463 Z M 8309,18393 L 8309,8160 8552,8020 8552,18393 8309,18393 Z"/>
      <path fill="rgb(66,66,66)" stroke="none" d="M 8552,18393 L 8552,22160 8309,22300 8309,18393 8552,18393 Z M 8309,18323 L 8309,8160 8552,8020 8552,18323 8309,18323 Z"/>
      <path fill="rgb(67,67,67)" stroke="none" d="M 8552,18323 L 8552,22160 8309,22300 8309,18323 8552,18323 Z M 8309,18253 L 8309,8160 8552,8020 8552,18253 8309,18253 Z"/>
      <path fill="rgb(68,68,68)" stroke="none" d="M 8552,18253 L 8552,22160 8309,22300 8309,18253 8552,18253 Z M 8309,18183 L 8309,8160 8552,8020 8552,18183 8309,18183 Z"/>
      <path fill="rgb(69,69,69)" stroke="none" d="M 8552,18183 L 8552,22160 8309,22300 8309,18183 8552,18183 Z M 8309,18113 L 8309,8160 8552,8020 8552,18113 8309,18113 Z"/>
      <path fill="rgb(70,70,70)" stroke="none" d="M 8552,18113 L 8552,22160 8309,22300 8309,18113 8552,18113 Z M 8309,18043 L 8309,8160 8552,8020 8552,18043 8309,18043 Z"/>
      <path fill="rgb(71,71,71)" stroke="none" d="M 8552,18043 L 8552,22160 8309,22300 8309,18043 8552,18043 Z M 8309,17973 L 8309,8160 8552,8020 8552,17973 8309,17973 Z"/>
      <path fill="rgb(72,72,72)" stroke="none" d="M 8552,17973 L 8552,22160 8309,22300 8309,17973 8552,17973 Z M 8309,17903 L 8309,8160 8552,8020 8552,17903 8309,17903 Z"/>
      <path fill="rgb(73,73,73)" stroke="none" d="M 8552,17903 L 8552,22160 8309,22300 8309,17903 8552,17903 Z M 8309,17833 L 8309,8160 8552,8020 8552,17833 8309,17833 Z"/>
      <path fill="rgb(74,74,74)" stroke="none" d="M 8552,17833 L 8552,22160 8309,22300 8309,17833 8552,17833 Z M 8309,17763 L 8309,8160 8552,8020 8552,17763 8309,17763 Z"/>
      <path fill="rgb(75,75,75)" stroke="none" d="M 8552,17763 L 8552,22160 8309,22300 8309,17763 8552,17763 Z M 8309,17693 L 8309,8160 8552,8020 8552,17693 8309,17693 Z"/>
      <path fill="rgb(76,76,76)" stroke="none" d="M 8552,17693 L 8552,22160 8309,22300 8309,17693 8552,17693 Z M 8309,17623 L 8309,8160 8552,8020 8552,17623 8309,17623 Z"/>
      <path fill="rgb(77,77,77)" stroke="none" d="M 8552,17623 L 8552,22160 8309,22300 8309,17623 8552,17623 Z M 8309,17553 L 8309,8160 8552,8020 8552,17553 8309,17553 Z"/>
      <path fill="rgb(78,78,78)" stroke="none" d="M 8552,17553 L 8552,22160 8309,22300 8309,17553 8552,17553 Z M 8309,17483 L 8309,8160 8552,8020 8552,17483 8309,17483 Z"/>
      <path fill="rgb(79,79,79)" stroke="none" d="M 8552,17483 L 8552,22160 8309,22300 8309,17483 8552,17483 Z M 8309,17413 L 8309,8160 8552,8020 8552,17413 8309,17413 Z"/>
      <path fill="rgb(80,80,80)" stroke="none" d="M 8552,17413 L 8552,22160 8309,22300 8309,17413 8552,17413 Z M 8309,17343 L 8309,8160 8552,8020 8552,17343 8309,17343 Z"/>
      <path fill="rgb(81,81,81)" stroke="none" d="M 8552,17343 L 8552,22160 8309,22300 8309,17343 8552,17343 Z M 8309,17273 L 8309,8160 8552,8020 8552,17273 8309,17273 Z"/>
      <path fill="rgb(82,82,82)" stroke="none" d="M 8552,17273 L 8552,22160 8309,22300 8309,17273 8552,17273 Z M 8309,17203 L 8309,8160 8552,8020 8552,17203 8309,17203 Z"/>
      <path fill="rgb(83,83,83)" stroke="none" d="M 8552,17203 L 8552,22160 8309,22300 8309,17203 8552,17203 Z M 8309,17133 L 8309,8160 8552,8020 8552,17133 8309,17133 Z"/>
      <path fill="rgb(84,84,84)" stroke="none" d="M 8552,17133 L 8552,22160 8309,22300 8309,17133 8552,17133 Z M 8309,17063 L 8309,8160 8552,8020 8552,17063 8309,17063 Z"/>
      <path fill="rgb(85,85,85)" stroke="none" d="M 8552,17063 L 8552,22160 8309,22300 8309,17063 8552,17063 Z M 8309,16993 L 8309,8160 8552,8020 8552,16993 8309,16993 Z"/>
      <path fill="rgb(86,86,86)" stroke="none" d="M 8552,16993 L 8552,22160 8309,22300 8309,16993 8552,16993 Z M 8309,16923 L 8309,8160 8552,8020 8552,16923 8309,16923 Z"/>
      <path fill="rgb(87,87,87)" stroke="none" d="M 8552,16923 L 8552,22160 8309,22300 8309,16923 8552,16923 Z M 8309,16853 L 8309,8160 8552,8020 8552,16853 8309,16853 Z"/>
      <path fill="rgb(88,88,88)" stroke="none" d="M 8552,16853 L 8552,22160 8309,22300 8309,16853 8552,16853 Z M 8309,16783 L 8309,8160 8552,8020 8552,16783 8309,16783 Z"/>
      <path fill="rgb(89,89,89)" stroke="none" d="M 8552,16783 L 8552,22160 8309,22300 8309,16783 8552,16783 Z M 8309,16713 L 8309,8160 8552,8020 8552,16713 8309,16713 Z"/>
      <path fill="rgb(90,90,90)" stroke="none" d="M 8552,16713 L 8552,22160 8309,22300 8309,16713 8552,16713 Z M 8309,16643 L 8309,8160 8552,8020 8552,16643 8309,16643 Z"/>
      <path fill="rgb(91,91,91)" stroke="none" d="M 8552,16643 L 8552,22160 8309,22300 8309,16643 8552,16643 Z M 8552,8032 L 8552,16573 8309,16573 8309,8160 8531,8032 8552,8032 Z"/>
      <path fill="rgb(92,92,92)" stroke="none" d="M 8552,16573 L 8552,22160 8309,22300 8309,16573 8552,16573 Z M 8531,8032 L 8552,8020 8552,8032 8531,8032 Z M 8552,8102 L 8552,16503 8309,16503 8309,8160 8410,8102 8552,8102 Z"/>
      <path fill="rgb(93,93,93)" stroke="none" d="M 8552,16503 L 8552,22160 8309,22300 8309,16503 8552,16503 Z M 8410,8102 L 8552,8020 8552,8102 8410,8102 Z M 8552,8172 L 8552,16433 8309,16433 8309,8172 8552,8172 Z"/>
      <path fill="rgb(94,94,94)" stroke="none" d="M 8552,16433 L 8552,22160 8309,22300 8309,16433 8552,16433 Z M 8309,8172 L 8309,8160 8552,8020 8552,8172 8309,8172 Z M 8552,8242 L 8552,16363 8309,16363 8309,8242 8552,8242 Z"/>
      <path fill="rgb(95,95,95)" stroke="none" d="M 8552,16363 L 8552,22160 8309,22300 8309,16363 8552,16363 Z M 8309,8242 L 8309,8160 8552,8020 8552,8242 8309,8242 Z M 8552,8312 L 8552,16293 8309,16293 8309,8312 8552,8312 Z"/>
      <path fill="rgb(96,96,96)" stroke="none" d="M 8552,16293 L 8552,22160 8309,22300 8309,16293 8552,16293 Z M 8309,8312 L 8309,8160 8552,8020 8552,8312 8309,8312 Z M 8552,8382 L 8552,16223 8309,16223 8309,8382 8552,8382 Z"/>
      <path fill="rgb(97,97,97)" stroke="none" d="M 8552,16223 L 8552,22160 8309,22300 8309,16223 8552,16223 Z M 8309,8382 L 8309,8160 8552,8020 8552,8382 8309,8382 Z M 8552,8452 L 8552,16153 8309,16153 8309,8452 8552,8452 Z"/>
      <path fill="rgb(98,98,98)" stroke="none" d="M 8552,16153 L 8552,22160 8309,22300 8309,16153 8552,16153 Z M 8309,8452 L 8309,8160 8552,8020 8552,8452 8309,8452 Z M 8552,8522 L 8552,16083 8309,16083 8309,8522 8552,8522 Z"/>
      <path fill="rgb(99,99,99)" stroke="none" d="M 8552,16083 L 8552,22160 8309,22300 8309,16083 8552,16083 Z M 8309,8522 L 8309,8160 8552,8020 8552,8522 8309,8522 Z M 8552,8592 L 8552,16013 8309,16013 8309,8592 8552,8592 Z"/>
      <path fill="rgb(100,100,100)" stroke="none" d="M 8552,16013 L 8552,22160 8309,22300 8309,16013 8552,16013 Z M 8309,8592 L 8309,8160 8552,8020 8552,8592 8309,8592 Z M 8552,8662 L 8552,15943 8309,15943 8309,8662 8552,8662 Z"/>
      <path fill="rgb(101,101,101)" stroke="none" d="M 8552,15943 L 8552,22160 8309,22300 8309,15943 8552,15943 Z M 8309,8662 L 8309,8160 8552,8020 8552,8662 8309,8662 Z M 8552,8732 L 8552,15873 8309,15873 8309,8732 8552,8732 Z"/>
      <path fill="rgb(102,102,102)" stroke="none" d="M 8552,15873 L 8552,22160 8309,22300 8309,15873 8552,15873 Z M 8309,8732 L 8309,8160 8552,8020 8552,8732 8309,8732 Z M 8552,8802 L 8552,15803 8309,15803 8309,8802 8552,8802 Z"/>
      <path fill="rgb(103,103,103)" stroke="none" d="M 8552,15803 L 8552,22160 8309,22300 8309,15803 8552,15803 Z M 8309,8802 L 8309,8160 8552,8020 8552,8802 8309,8802 Z M 8552,8872 L 8552,15733 8309,15733 8309,8872 8552,8872 Z"/>
      <path fill="rgb(104,104,104)" stroke="none" d="M 8552,15733 L 8552,22160 8309,22300 8309,15733 8552,15733 Z M 8309,8872 L 8309,8160 8552,8020 8552,8872 8309,8872 Z M 8552,8942 L 8552,15663 8309,15663 8309,8942 8552,8942 Z"/>
      <path fill="rgb(105,105,105)" stroke="none" d="M 8552,15663 L 8552,22160 8309,22300 8309,15663 8552,15663 Z M 8309,8942 L 8309,8160 8552,8020 8552,8942 8309,8942 Z M 8552,9012 L 8552,15593 8309,15593 8309,9012 8552,9012 Z"/>
      <path fill="rgb(106,106,106)" stroke="none" d="M 8552,15593 L 8552,22160 8309,22300 8309,15593 8552,15593 Z M 8309,9012 L 8309,8160 8552,8020 8552,9012 8309,9012 Z M 8552,9082 L 8552,15523 8309,15523 8309,9082 8552,9082 Z"/>
      <path fill="rgb(107,107,107)" stroke="none" d="M 8552,15523 L 8552,22160 8309,22300 8309,15523 8552,15523 Z M 8309,9082 L 8309,8160 8552,8020 8552,9082 8309,9082 Z M 8552,9152 L 8552,15453 8309,15453 8309,9152 8552,9152 Z"/>
      <path fill="rgb(108,108,108)" stroke="none" d="M 8552,15453 L 8552,22160 8309,22300 8309,15453 8552,15453 Z M 8309,9152 L 8309,8160 8552,8020 8552,9152 8309,9152 Z M 8552,9222 L 8552,15383 8309,15383 8309,9222 8552,9222 Z"/>
      <path fill="rgb(109,109,109)" stroke="none" d="M 8552,15383 L 8552,22160 8309,22300 8309,15383 8552,15383 Z M 8309,9222 L 8309,8160 8552,8020 8552,9222 8309,9222 Z M 8552,9292 L 8552,15313 8309,15313 8309,9292 8552,9292 Z"/>
      <path fill="rgb(110,110,110)" stroke="none" d="M 8552,15313 L 8552,22160 8309,22300 8309,15313 8552,15313 Z M 8309,9292 L 8309,8160 8552,8020 8552,9292 8309,9292 Z M 8552,9362 L 8552,15243 8309,15243 8309,9362 8552,9362 Z"/>
      <path fill="rgb(111,111,111)" stroke="none" d="M 8552,15243 L 8552,22160 8309,22300 8309,15243 8552,15243 Z M 8309,9362 L 8309,8160 8552,8020 8552,9362 8309,9362 Z M 8552,9432 L 8552,15173 8309,15173 8309,9432 8552,9432 Z"/>
      <path fill="rgb(112,112,112)" stroke="none" d="M 8552,15173 L 8552,22160 8309,22300 8309,15173 8552,15173 Z M 8309,9432 L 8309,8160 8552,8020 8552,9432 8309,9432 Z M 8552,9502 L 8552,15103 8309,15103 8309,9502 8552,9502 Z"/>
      <path fill="rgb(113,113,113)" stroke="none" d="M 8552,15103 L 8552,22160 8309,22300 8309,15103 8552,15103 Z M 8309,9502 L 8309,8160 8552,8020 8552,9502 8309,9502 Z M 8552,9572 L 8552,15033 8309,15033 8309,9572 8552,9572 Z"/>
      <path fill="rgb(114,114,114)" stroke="none" d="M 8552,15033 L 8552,22160 8309,22300 8309,15033 8552,15033 Z M 8309,9572 L 8309,8160 8552,8020 8552,9572 8309,9572 Z M 8552,9642 L 8552,14963 8309,14963 8309,9642 8552,9642 Z"/>
      <path fill="rgb(115,115,115)" stroke="none" d="M 8552,14963 L 8552,22160 8309,22300 8309,14963 8552,14963 Z M 8309,9642 L 8309,8160 8552,8020 8552,9642 8309,9642 Z M 8552,9712 L 8552,14893 8309,14893 8309,9712 8552,9712 Z"/>
      <path fill="rgb(116,116,116)" stroke="none" d="M 8552,14893 L 8552,22160 8309,22300 8309,14893 8552,14893 Z M 8309,9712 L 8309,8160 8552,8020 8552,9712 8309,9712 Z M 8552,9782 L 8552,14823 8309,14823 8309,9782 8552,9782 Z"/>
      <path fill="rgb(117,117,117)" stroke="none" d="M 8552,14823 L 8552,22160 8309,22300 8309,14823 8552,14823 Z M 8309,9782 L 8309,8160 8552,8020 8552,9782 8309,9782 Z M 8552,9852 L 8552,14753 8309,14753 8309,9852 8552,9852 Z"/>
      <path fill="rgb(118,118,118)" stroke="none" d="M 8552,14753 L 8552,22160 8309,22300 8309,14753 8552,14753 Z M 8309,9852 L 8309,8160 8552,8020 8552,9852 8309,9852 Z M 8552,9923 L 8552,14682 8309,14682 8309,9923 8552,9923 Z"/>
      <path fill="rgb(119,119,119)" stroke="none" d="M 8552,14682 L 8552,22160 8309,22300 8309,14682 8552,14682 Z M 8309,9923 L 8309,8160 8552,8020 8552,9923 8309,9923 Z M 8552,9993 L 8552,14612 8309,14612 8309,9993 8552,9993 Z"/>
      <path fill="rgb(120,120,120)" stroke="none" d="M 8552,14612 L 8552,22160 8309,22300 8309,14612 8552,14612 Z M 8309,9993 L 8309,8160 8552,8020 8552,9993 8309,9993 Z M 8552,10063 L 8552,14542 8309,14542 8309,10063 8552,10063 Z"/>
      <path fill="rgb(121,121,121)" stroke="none" d="M 8552,14542 L 8552,22160 8309,22300 8309,14542 8552,14542 Z M 8309,10063 L 8309,8160 8552,8020 8552,10063 8309,10063 Z M 8552,10133 L 8552,14472 8309,14472 8309,10133 8552,10133 Z"/>
      <path fill="rgb(122,122,122)" stroke="none" d="M 8552,14472 L 8552,22160 8309,22300 8309,14472 8552,14472 Z M 8309,10133 L 8309,8160 8552,8020 8552,10133 8309,10133 Z M 8552,10203 L 8552,14402 8309,14402 8309,10203 8552,10203 Z"/>
      <path fill="rgb(123,123,123)" stroke="none" d="M 8552,14402 L 8552,22160 8309,22300 8309,14402 8552,14402 Z M 8309,10203 L 8309,8160 8552,8020 8552,10203 8309,10203 Z M 8552,10273 L 8552,14332 8309,14332 8309,10273 8552,10273 Z"/>
      <path fill="rgb(124,124,124)" stroke="none" d="M 8552,14332 L 8552,22160 8309,22300 8309,14332 8552,14332 Z M 8309,10273 L 8309,8160 8552,8020 8552,10273 8309,10273 Z M 8552,10343 L 8552,14262 8309,14262 8309,10343 8552,10343 Z"/>
      <path fill="rgb(125,125,125)" stroke="none" d="M 8552,14262 L 8552,22160 8309,22300 8309,14262 8552,14262 Z M 8309,10343 L 8309,8160 8552,8020 8552,10343 8309,10343 Z M 8552,10413 L 8552,14192 8309,14192 8309,10413 8552,10413 Z"/>
      <path fill="rgb(126,126,126)" stroke="none" d="M 8552,14192 L 8552,22160 8309,22300 8309,14192 8552,14192 Z M 8309,10413 L 8309,8160 8552,8020 8552,10413 8309,10413 Z M 8552,10483 L 8552,14122 8309,14122 8309,10483 8552,10483 Z"/>
      <path fill="rgb(127,127,127)" stroke="none" d="M 8552,14122 L 8552,22160 8309,22300 8309,14122 8552,14122 Z M 8309,10483 L 8309,8160 8552,8020 8552,10483 8309,10483 Z M 8552,10553 L 8552,14052 8309,14052 8309,10553 8552,10553 Z"/>
      <path fill="rgb(128,128,128)" stroke="none" d="M 8552,14052 L 8552,22160 8309,22300 8309,14052 8552,14052 Z M 8309,10553 L 8309,8160 8552,8020 8552,10553 8309,10553 Z M 8552,10623 L 8552,13982 8309,13982 8309,10623 8552,10623 Z"/>
      <path fill="rgb(129,129,129)" stroke="none" d="M 8552,13982 L 8552,22160 8309,22300 8309,13982 8552,13982 Z M 8309,10623 L 8309,8160 8552,8020 8552,10623 8309,10623 Z M 8552,10693 L 8552,13912 8309,13912 8309,10693 8552,10693 Z"/>
      <path fill="rgb(130,130,130)" stroke="none" d="M 8552,13912 L 8552,22160 8309,22300 8309,13912 8552,13912 Z M 8309,10693 L 8309,8160 8552,8020 8552,10693 8309,10693 Z M 8552,10763 L 8552,13842 8309,13842 8309,10763 8552,10763 Z"/>
      <path fill="rgb(131,131,131)" stroke="none" d="M 8552,13842 L 8552,22160 8309,22300 8309,13842 8552,13842 Z M 8309,10763 L 8309,8160 8552,8020 8552,10763 8309,10763 Z M 8552,10833 L 8552,13772 8309,13772 8309,10833 8552,10833 Z"/>
      <path fill="rgb(132,132,132)" stroke="none" d="M 8552,13772 L 8552,22160 8309,22300 8309,13772 8552,13772 Z M 8309,10833 L 8309,8160 8552,8020 8552,10833 8309,10833 Z M 8552,10903 L 8552,13702 8309,13702 8309,10903 8552,10903 Z"/>
      <path fill="rgb(133,133,133)" stroke="none" d="M 8552,13702 L 8552,22160 8309,22300 8309,13702 8552,13702 Z M 8309,10903 L 8309,8160 8552,8020 8552,10903 8309,10903 Z M 8552,10973 L 8552,13632 8309,13632 8309,10973 8552,10973 Z"/>
      <path fill="rgb(134,134,134)" stroke="none" d="M 8552,13632 L 8552,22160 8309,22300 8309,13632 8552,13632 Z M 8309,10973 L 8309,8160 8552,8020 8552,10973 8309,10973 Z M 8552,11043 L 8552,13562 8309,13562 8309,11043 8552,11043 Z"/>
      <path fill="rgb(135,135,135)" stroke="none" d="M 8552,13562 L 8552,22160 8309,22300 8309,13562 8552,13562 Z M 8309,11043 L 8309,8160 8552,8020 8552,11043 8309,11043 Z M 8552,11113 L 8552,13492 8309,13492 8309,11113 8552,11113 Z"/>
      <path fill="rgb(136,136,136)" stroke="none" d="M 8552,13492 L 8552,22160 8309,22300 8309,13492 8552,13492 Z M 8309,11113 L 8309,8160 8552,8020 8552,11113 8309,11113 Z M 8552,11183 L 8552,13422 8309,13422 8309,11183 8552,11183 Z"/>
      <path fill="rgb(137,137,137)" stroke="none" d="M 8552,13422 L 8552,22160 8309,22300 8309,13422 8552,13422 Z M 8309,11183 L 8309,8160 8552,8020 8552,11183 8309,11183 Z M 8552,11253 L 8552,13352 8309,13352 8309,11253 8552,11253 Z"/>
      <path fill="rgb(138,138,138)" stroke="none" d="M 8552,13352 L 8552,22160 8309,22300 8309,13352 8552,13352 Z M 8309,11253 L 8309,8160 8552,8020 8552,11253 8309,11253 Z M 8552,11323 L 8552,13282 8309,13282 8309,11323 8552,11323 Z"/>
      <path fill="rgb(139,139,139)" stroke="none" d="M 8552,13282 L 8552,22160 8309,22300 8309,13282 8552,13282 Z M 8309,11323 L 8309,8160 8552,8020 8552,11323 8309,11323 Z M 8552,11393 L 8552,13212 8309,13212 8309,11393 8552,11393 Z"/>
      <path fill="rgb(140,140,140)" stroke="none" d="M 8552,13212 L 8552,22160 8309,22300 8309,13212 8552,13212 Z M 8309,11393 L 8309,8160 8552,8020 8552,11393 8309,11393 Z M 8552,11463 L 8552,13142 8309,13142 8309,11463 8552,11463 Z"/>
      <path fill="rgb(141,141,141)" stroke="none" d="M 8552,13142 L 8552,22160 8309,22300 8309,13142 8552,13142 Z M 8309,11463 L 8309,8160 8552,8020 8552,11463 8309,11463 Z M 8552,11533 L 8552,13072 8309,13072 8309,11533 8552,11533 Z"/>
      <path fill="rgb(142,142,142)" stroke="none" d="M 8552,13072 L 8552,22160 8309,22300 8309,13072 8552,13072 Z M 8309,11533 L 8309,8160 8552,8020 8552,11533 8309,11533 Z M 8552,11603 L 8552,13002 8309,13002 8309,11603 8552,11603 Z"/>
      <path fill="rgb(143,143,143)" stroke="none" d="M 8552,13002 L 8552,22160 8309,22300 8309,13002 8552,13002 Z M 8309,11603 L 8309,8160 8552,8020 8552,11603 8309,11603 Z M 8552,11673 L 8552,12932 8309,12932 8309,11673 8552,11673 Z"/>
      <path fill="rgb(144,144,144)" stroke="none" d="M 8552,12932 L 8552,22160 8309,22300 8309,12932 8552,12932 Z M 8309,11673 L 8309,8160 8552,8020 8552,11673 8309,11673 Z M 8552,11743 L 8552,12862 8309,12862 8309,11743 8552,11743 Z"/>
      <path fill="rgb(145,145,145)" stroke="none" d="M 8552,12862 L 8552,22160 8309,22300 8309,12862 8552,12862 Z M 8309,11743 L 8309,8160 8552,8020 8552,11743 8309,11743 Z M 8552,11813 L 8552,12792 8309,12792 8309,11813 8552,11813 Z"/>
      <path fill="rgb(146,146,146)" stroke="none" d="M 8552,12792 L 8552,22160 8309,22300 8309,12792 8552,12792 Z M 8309,11813 L 8309,8160 8552,8020 8552,11813 8309,11813 Z M 8552,11883 L 8552,12722 8309,12722 8309,11883 8552,11883 Z"/>
      <path fill="rgb(147,147,147)" stroke="none" d="M 8552,12722 L 8552,22160 8309,22300 8309,12722 8552,12722 Z M 8309,11883 L 8309,8160 8552,8020 8552,11883 8309,11883 Z M 8552,11953 L 8552,12652 8309,12652 8309,11953 8552,11953 Z"/>
      <path fill="rgb(148,148,148)" stroke="none" d="M 8552,12652 L 8552,22160 8309,22300 8309,12652 8552,12652 Z M 8309,11953 L 8309,8160 8552,8020 8552,11953 8309,11953 Z M 8552,12023 L 8552,12582 8309,12582 8309,12023 8552,12023 Z"/>
      <path fill="rgb(149,149,149)" stroke="none" d="M 8552,12582 L 8552,22160 8309,22300 8309,12582 8552,12582 Z M 8309,12023 L 8309,8160 8552,8020 8552,12023 8309,12023 Z M 8552,12093 L 8552,12512 8309,12512 8309,12093 8552,12093 Z"/>
      <path fill="rgb(150,150,150)" stroke="none" d="M 8552,12512 L 8552,22160 8309,22300 8309,12512 8552,12512 Z M 8309,12093 L 8309,8160 8552,8020 8552,12093 8309,12093 Z M 8520,12163 L 8520,12442 8309,12442 8309,12163 8520,12163 Z"/>
      <path fill="rgb(151,151,151)" stroke="none" d="M 8520,12442 L 8520,12163 8309,12163 8309,8160 8552,8020 8552,22160 8309,22300 8309,12442 8520,12442 Z M 8311,12233 L 8450,12233 8450,12372 8311,12372 8311,12233 Z"/>
      <path fill="rgb(153,153,153)" stroke="none" d="M 8311,12233 L 8311,12372 8450,12372 8450,12233 8311,12233 Z M 8309,22300 L 8309,8160 8552,8020 8552,22160 8309,22300 Z"/>
      <path fill="none" stroke="rgb(178,178,178)" id="Drawing_5_0" stroke-width="40" stroke-linejoin="round" d="M 8309,22300 L 8309,8160 8552,8020 8552,22160 8309,22300 Z"/>
     </g>
     <g>
      <defs>
       <linearGradient id="Gradient_857" gradientUnits="userSpaceOnUse" x1="4415" y1="14107" x2="8323" y2="14113">
        <stop offset="0.1" stop-color="rgb(51,51,51)"/>
        <stop offset="1" stop-color="rgb(153,153,153)"/>
       </linearGradient>
      </defs>
      <path fill="url(#Gradient_857)" stroke="rgb(178,178,178)" id="Drawing_6_0" stroke-width="40" stroke-linejoin="round" d="M 4429,20060 L 4429,5920 8309,8160 8309,22300 4429,20060 Z"/>
     </g>
     <g>
      <defs>
       <linearGradient id="Gradient_858" gradientUnits="userSpaceOnUse" x1="4426" y1="6966" x2="8553" y2="6974">
        <stop offset="0.1" stop-color="rgb(51,51,51)"/>
        <stop offset="1" stop-color="rgb(153,153,153)"/>
       </linearGradient>
      </defs>
      <path fill="url(#Gradient_858)" stroke="rgb(178,178,178)" id="Drawing_7_0" stroke-width="40" stroke-linejoin="round" d="M 4429,5920 L 4672,5780 8552,8020 8310,8160 4429,5920 Z"/>
     </g>
     <g>
      <path fill="none" stroke="rgb(178,178,178)" id="Drawing_8_0" stroke-width="40" stroke-linejoin="round" d="M 7824,22020 L 7824,7880"/>
     </g>
     <g>
      <path fill="none" stroke="rgb(178,178,178)" id="Drawing_9_0" stroke-width="40" stroke-linejoin="round" d="M 4914,20340 L 4914,6200"/>
     </g>
     <g>
      <path fill="none" stroke="rgb(51,51,51)" id="Drawing_10_0" stroke-width="40" stroke-linejoin="round" d="M 5035,6340 L 5035,20340"/>
     </g>
     <g>
      <path fill="none" stroke="rgb(51,51,51)" id="Drawing_11_0" stroke-width="40" stroke-linejoin="round" d="M 5157,6410 L 5157,20410"/>
     </g>
     <g>
      <path fill="none" stroke="rgb(51,51,51)" id="Drawing_12_0" stroke-width="40" stroke-linejoin="round" d="M 5278,6480 L 5278,20480"/>
     </g>
     <g>
      <path fill="none" stroke="rgb(51,51,51)" id="Drawing_13_0" stroke-width="40" stroke-linejoin="round" d="M 5399,6550 L 5399,20550"/>
     </g>
     <g>
      <path fill="none" stroke="rgb(51,51,51)" id="Drawing_14_0" stroke-width="40" stroke-linejoin="round" d="M 5520,6620 L 5520,20620"/>
     </g>
     <g>
      <path fill="none" stroke="rgb(51,51,51)" id="Drawing_15_0" stroke-width="40" stroke-linejoin="round" d="M 5642,6690 L 5642,20690"/>
     </g>
     <g>
      <path fill="none" stroke="rgb(51,51,51)" id="Drawing_16_0" stroke-width="40" stroke-linejoin="round" d="M 5763,6760 L 5763,20760"/>
     </g>
     <g>
      <path fill="none" stroke="rgb(51,51,51)" id="Drawing_17_0" stroke-width="40" stroke-linejoin="round" d="M 5884,6830 L 5884,20830"/>
     </g>
     <g>
      <path fill="none" stroke="rgb(51,51,51)" id="Drawing_18_0" stroke-width="40" stroke-linejoin="round" d="M 6005,6900 L 6005,20900"/>
     </g>
     <g>
      <path fill="none" stroke="rgb(51,51,51)" id="Drawing_19_0" stroke-width="40" stroke-linejoin="round" d="M 6127,6970 L 6127,20970"/>
     </g>
     <g>
      <path fill="none" stroke="rgb(51,51,51)" id="Drawing_20_0" stroke-width="40" stroke-linejoin="round" d="M 6248,7040 L 6248,21040"/>
     </g>
     <g>
      <path fill="none" stroke="rgb(51,51,51)" id="Drawing_21_0" stroke-width="40" stroke-linejoin="round" d="M 6369,7110 L 6369,21110"/>
     </g>
     <g>
      <path fill="none" stroke="rgb(51,51,51)" id="Drawing_22_0" stroke-width="40" stroke-linejoin="round" d="M 6490,7180 L 6490,21180"/>
     </g>
     <g>
      <path fill="none" stroke="rgb(51,51,51)" id="Drawing_23_0" stroke-width="40" stroke-linejoin="round" d="M 6612,7250 L 6612,21250"/>
     </g>
     <g>
      <path fill="none" stroke="rgb(51,51,51)" id="Drawing_24_0" stroke-width="40" stroke-linejoin="round" d="M 6733,7320 L 6733,21320"/>
     </g>
     <g>
      <path fill="none" stroke="rgb(51,51,51)" id="Drawing_25_0" stroke-width="40" stroke-linejoin="round" d="M 6854,7390 L 6854,21390"/>
     </g>
     <g>
      <path fill="none" stroke="rgb(51,51,51)" id="Drawing_26_0" stroke-width="40" stroke-linejoin="round" d="M 6975,7460 L 6975,21460"/>
     </g>
     <g>
      <path fill="none" stroke="rgb(51,51,51)" id="Drawing_27_0" stroke-width="40" stroke-linejoin="round" d="M 7097,7530 L 7097,21530"/>
     </g>
     <g>
      <path fill="none" stroke="rgb(51,51,51)" id="Drawing_28_0" stroke-width="40" stroke-linejoin="round" d="M 7218,7600 L 7218,21600"/>
     </g>
     <g>
      <path fill="none" stroke="rgb(51,51,51)" id="Drawing_29_0" stroke-width="40" stroke-linejoin="round" d="M 7339,7670 L 7339,21670"/>
     </g>
     <g>
      <path fill="none" stroke="rgb(51,51,51)" id="Drawing_30_0" stroke-width="40" stroke-linejoin="round" d="M 7460,7740 L 7460,21740"/>
     </g>
     <g>
      <path fill="none" stroke="rgb(51,51,51)" id="Drawing_31_0" stroke-width="40" stroke-linejoin="round" d="M 7582,7810 L 7582,21810"/>
     </g>
     <g>
      <path fill="none" stroke="rgb(51,51,51)" id="Drawing_32_0" stroke-width="40" stroke-linejoin="round" d="M 7703,7880 L 7703,21880"/>
     </g>
     <g id="DrawingGroup_4">
      <g>
       <path fill="none" stroke="rgb(153,153,153)" id="Drawing_33_0" stroke-width="40" stroke-linejoin="round" d="M 6005,5570 L 6975,6130"/>
      </g>
      <g>
       <path fill="none" stroke="rgb(153,153,153)" id="Drawing_34_0" stroke-width="40" stroke-linejoin="round" d="M 5883,5640 L 6854,6200"/>
      </g>
      <g>
       <path fill="none" stroke="rgb(153,153,153)" id="Drawing_35_0" stroke-width="40" stroke-linejoin="round" d="M 5763,5710 L 6733,6270"/>
      </g>
      <g>
       <path fill="none" stroke="rgb(153,153,153)" id="Drawing_36_0" stroke-width="40" stroke-linejoin="round" d="M 6612,5220 L 7582,5780 6612,6340 5642,5780 6612,5220 Z"/>
      </g>
      <g>
       <path fill="none" stroke="rgb(153,153,153)" id="Drawing_37_0" stroke-width="40" stroke-linejoin="round" d="M 6490,5290 L 7460,5850"/>
      </g>
      <g>
       <path fill="none" stroke="rgb(153,153,153)" id="Drawing_38_0" stroke-width="40" stroke-linejoin="round" d="M 6368,5360 L 7339,5920"/>
      </g>
      <g>
       <path fill="none" stroke="rgb(153,153,153)" id="Drawing_39_0" stroke-width="40" stroke-linejoin="round" d="M 6248,5430 L 7218,5990"/>
      </g>
      <g>
       <path fill="none" stroke="rgb(153,153,153)" id="Drawing_40_0" stroke-width="40" stroke-linejoin="round" d="M 6127,5500 L 7097,6060"/>
      </g>
     </g>
     <g id="DrawingGroup_5">
      <g>
       <path fill="none" stroke="rgb(153,153,153)" id="Drawing_41_0" stroke-width="40" stroke-linejoin="round" d="M 8552,4100 L 9522,4660 8552,5220 7582,4660 8552,4100 Z"/>
      </g>
      <g>
       <path fill="none" stroke="rgb(153,153,153)" id="Drawing_42_0" stroke-width="40" stroke-linejoin="round" d="M 7945,4450 L 8915,5010"/>
      </g>
      <g>
       <path fill="none" stroke="rgb(153,153,153)" id="Drawing_43_0" stroke-width="40" stroke-linejoin="round" d="M 7823,4520 L 8794,5080"/>
      </g>
      <g>
       <path fill="none" stroke="rgb(153,153,153)" id="Drawing_44_0" stroke-width="40" stroke-linejoin="round" d="M 7703,4590 L 8673,5150"/>
      </g>
      <g>
       <path fill="none" stroke="rgb(153,153,153)" id="Drawing_45_0" stroke-width="40" stroke-linejoin="round" d="M 8430,4170 L 9400,4730"/>
      </g>
      <g>
       <path fill="none" stroke="rgb(153,153,153)" id="Drawing_46_0" stroke-width="40" stroke-linejoin="round" d="M 8308,4240 L 9279,4800"/>
      </g>
      <g>
       <path fill="none" stroke="rgb(153,153,153)" id="Drawing_47_0" stroke-width="40" stroke-linejoin="round" d="M 8188,4310 L 9158,4870"/>
      </g>
      <g>
       <path fill="none" stroke="rgb(153,153,153)" id="Drawing_48_0" stroke-width="40" stroke-linejoin="round" d="M 8067,4380 L 9037,4940"/>
      </g>
     </g>
     <g id="DrawingGroup_6">
      <g>
       <path fill="none" stroke="rgb(153,153,153)" id="Drawing_49_0" stroke-width="40" stroke-linejoin="round" d="M 8552,6340 L 9522,6900 8552,7460 7582,6900 8552,6340 Z"/>
      </g>
      <g>
       <path fill="none" stroke="rgb(153,153,153)" id="Drawing_50_0" stroke-width="40" stroke-linejoin="round" d="M 7945,6690 L 8915,7250"/>
      </g>
      <g>
       <path fill="none" stroke="rgb(153,153,153)" id="Drawing_51_0" stroke-width="40" stroke-linejoin="round" d="M 7823,6760 L 8794,7320"/>
      </g>
      <g>
       <path fill="none" stroke="rgb(153,153,153)" id="Drawing_52_0" stroke-width="40" stroke-linejoin="round" d="M 7703,6830 L 8673,7390"/>
      </g>
      <g>
       <path fill="none" stroke="rgb(153,153,153)" id="Drawing_53_0" stroke-width="40" stroke-linejoin="round" d="M 8430,6410 L 9400,6970"/>
      </g>
      <g>
       <path fill="none" stroke="rgb(153,153,153)" id="Drawing_54_0" stroke-width="40" stroke-linejoin="round" d="M 8308,6480 L 9279,7040"/>
      </g>
      <g>
       <path fill="none" stroke="rgb(153,153,153)" id="Drawing_55_0" stroke-width="40" stroke-linejoin="round" d="M 8188,6550 L 9158,7110"/>
      </g>
      <g>
       <path fill="none" stroke="rgb(153,153,153)" id="Drawing_56_0" stroke-width="40" stroke-linejoin="round" d="M 8067,6620 L 9037,7180"/>
      </g>
     </g>
     <g id="DrawingGroup_7">
      <g>
       <path fill="none" stroke="rgb(153,153,153)" id="Drawing_57_0" stroke-width="40" stroke-linejoin="round" d="M 10492,5220 L 11462,5780 10492,6340 9522,5780 10492,5220 Z"/>
      </g>
      <g>
       <path fill="none" stroke="rgb(153,153,153)" id="Drawing_58_0" stroke-width="40" stroke-linejoin="round" d="M 9885,5570 L 10855,6130"/>
      </g>
      <g>
       <path fill="none" stroke="rgb(153,153,153)" id="Drawing_59_0" stroke-width="40" stroke-linejoin="round" d="M 9763,5640 L 10734,6200"/>
      </g>
      <g>
       <path fill="none" stroke="rgb(153,153,153)" id="Drawing_60_0" stroke-width="40" stroke-linejoin="round" d="M 9643,5710 L 10613,6270"/>
      </g>
      <g>
       <path fill="none" stroke="rgb(153,153,153)" id="Drawing_61_0" stroke-width="40" stroke-linejoin="round" d="M 10370,5290 L 11340,5850"/>
      </g>
      <g>
       <path fill="none" stroke="rgb(153,153,153)" id="Drawing_62_0" stroke-width="40" stroke-linejoin="round" d="M 10248,5360 L 11219,5920"/>
      </g>
      <g>
       <path fill="none" stroke="rgb(153,153,153)" id="Drawing_63_0" stroke-width="40" stroke-linejoin="round" d="M 10128,5430 L 11098,5990"/>
      </g>
      <g>
       <path fill="none" stroke="rgb(153,153,153)" id="Drawing_64_0" stroke-width="40" stroke-linejoin="round" d="M 10007,5500 L 10977,6060"/>
      </g>
     </g>
     <g>
      <defs>
       <linearGradient id="Gradient_859" gradientUnits="userSpaceOnUse" x1="7943" y1="13445" x2="8188" y2="13445">
        <stop offset="0.1" stop-color="rgb(51,51,51)"/>
        <stop offset="1" stop-color="rgb(153,153,153)"/>
       </linearGradient>
      </defs>
      <path fill="url(#Gradient_859)" stroke="rgb(178,178,178)" id="Drawing_65_0" stroke-width="40" stroke-linejoin="round" d="M 7945,13690 L 7945,13060 8188,13200 8188,13830 7945,13690 Z"/>
     </g>
     <g>
      <path fill="none" stroke="rgb(0,0,0)" id="Drawing_66_0" stroke-width="40" stroke-linejoin="round" d="M 4672,20340 L 4672,20200 4429,20060 4429,5920 8552,3540 12432,5780 12432,20340 8552,22580 4672,20340 Z"/>
     </g>
    </g>
   </g>
  </g>
 </g>
</svg>