<?xml version="1.0" encoding="UTF-8"?>

<svg version="1.2" baseProfile="tiny" width="82.44mm" height="190.83mm" viewBox="5710 3889 8244 19083" preserveAspectRatio="xMidYMid" fill-rule="evenodd" stroke-width="28.222" stroke-linejoin="round" xmlns="http://www.w3.org/2000/svg" xmlns:xlink="http://www.w3.org/1999/xlink" xml:space="preserve">
 <g visibility="visible" id="Slide_1">
  <g id="DrawingGroup_1">
   <g>
    <path fill="rgb(221,221,221)" stroke="none" d="M 9631,22971 C 9894,22971 13268,21501 13753,21151 14089,20958 13996,20311 13528,20314 13511,20311 9631,22971 9631,22971 Z"/>
    <path fill="none" stroke="rgb(221,221,221)" id="Drawing_1_0" stroke-linejoin="round" d="M 9631,22971 C 9894,22971 13268,21501 13753,21151 14089,20958 13996,20311 13528,20314 13511,20311 9631,22971 9631,22971 Z"/>
   </g>
   <g id="DrawingGroup_2">
    <g id="DrawingGroup_3">
     <g>
      <path fill="rgb(51,51,51)" stroke="none" d="M 9610,19506 L 9610,8389 13490,6149 13490,19506 9610,19506 Z"/>
      <path fill="rgb(52,52,52)" stroke="none" d="M 13490,19506 L 13490,20709 9610,22949 9610,19506 13490,19506 Z M 9610,19424 L 9610,8389 13490,6149 13490,19424 9610,19424 Z"/>
      <path fill="rgb(53,53,53)" stroke="none" d="M 13490,19424 L 13490,20709 9610,22949 9610,19424 13490,19424 Z M 9610,19341 L 9610,8389 13490,6149 13490,19341 9610,19341 Z"/>
      <path fill="rgb(54,54,54)" stroke="none" d="M 13490,19341 L 13490,20709 9610,22949 9610,19341 13490,19341 Z M 9610,19259 L 9610,8389 13490,6149 13490,19259 9610,19259 Z"/>
      <path fill="rgb(55,55,55)" stroke="none" d="M 13490,19259 L 13490,20709 9610,22949 9610,19259 13490,19259 Z M 9610,19177 L 9610,8389 13490,6149 13490,19177 9610,19177 Z"/>
      <path fill="rgb(56,56,56)" stroke="none" d="M 13490,19177 L 13490,20709 9610,22949 9610,19177 13490,19177 Z M 9610,19094 L 9610,8389 13490,6149 13490,19094 9610,19094 Z"/>
      <path fill="rgb(57,57,57)" stroke="none" d="M 13490,19094 L 13490,20709 9610,22949 9610,19094 13490,19094 Z M 9610,19012 L 9610,8389 13490,6149 13490,19012 9610,19012 Z"/>
      <path fill="rgb(58,58,58)" stroke="none" d="M 13490,19012 L 13490,20709 9610,22949 9610,19012 13490,19012 Z M 9610,18930 L 9610,8389 13490,6149 13490,18930 9610,18930 Z"/>
      <path fill="rgb(59,59,59)" stroke="none" d="M 13490,18930 L 13490,20709 9610,22949 9610,18930 13490,18930 Z M 9610,18847 L 9610,8389 13490,6149 13490,18847 9610,18847 Z"/>
      <path fill="rgb(60,60,60)" stroke="none" d="M 13490,18847 L 13490,20709 9610,22949 9610,18847 13490,18847 Z M 9610,18765 L 9610,8389 13490,6149 13490,18765 9610,18765 Z"/>
      <path fill="rgb(61,61,61)" stroke="none" d="M 13490,18765 L 13490,20709 9610,22949 9610,18765 13490,18765 Z M 9610,18682 L 9610,8389 13490,6149 13490,18682 9610,18682 Z"/>
      <path fill="rgb(62,62,62)" stroke="none" d="M 13490,18682 L 13490,20709 9610,22949 9610,18682 13490,18682 Z M 9610,18600 L 9610,8389 13490,6149 13490,18600 9610,18600 Z"/>
      <path fill="rgb(63,63,63)" stroke="none" d="M 13490,18600 L 13490,20709 9610,22949 9610,18600 13490,18600 Z M 9610,18518 L 9610,8389 13490,6149 13490,18518 9610,18518 Z"/>
      <path fill="rgb(64,64,64)" stroke="none" d="M 13490,18518 L 13490,20709 9610,22949 9610,18518 13490,18518 Z M 9610,18435 L 9610,8389 13490,6149 13490,18435 9610,18435 Z"/>
      <path fill="rgb(65,65,65)" stroke="none" d="M 13490,18435 L 13490,20709 9610,22949 9610,18435 13490,18435 Z M 9610,18353 L 9610,8389 13490,6149 13490,18353 9610,18353 Z"/>
      <path fill="rgb(66,66,66)" stroke="none" d="M 13490,18353 L 13490,20709 9610,22949 9610,18353 13490,18353 Z M 9610,18271 L 9610,8389 13490,6149 13490,18271 9610,18271 Z"/>
      <path fill="rgb(67,67,67)" stroke="none" d="M 13490,18271 L 13490,20709 9610,22949 9610,18271 13490,18271 Z M 9610,18188 L 9610,8389 13490,6149 13490,18188 9610,18188 Z"/>
      <path fill="rgb(68,68,68)" stroke="none" d="M 13490,18188 L 13490,20709 9610,22949 9610,18188 13490,18188 Z M 9610,18106 L 9610,8389 13490,6149 13490,18106 9610,18106 Z"/>
      <path fill="rgb(69,69,69)" stroke="none" d="M 13490,18106 L 13490,20709 9610,22949 9610,18106 13490,18106 Z M 9610,18024 L 9610,8389 13490,6149 13490,18024 9610,18024 Z"/>
      <path fill="rgb(70,70,70)" stroke="none" d="M 13490,18024 L 13490,20709 9610,22949 9610,18024 13490,18024 Z M 9610,17941 L 9610,8389 13490,6149 13490,17941 9610,17941 Z"/>
      <path fill="rgb(71,71,71)" stroke="none" d="M 13490,17941 L 13490,20709 9610,22949 9610,17941 13490,17941 Z M 9610,17859 L 9610,8389 13490,6149 13490,17859 9610,17859 Z"/>
      <path fill="rgb(72,72,72)" stroke="none" d="M 13490,17859 L 13490,20709 9610,22949 9610,17859 13490,17859 Z M 9610,17776 L 9610,8389 13490,6149 13490,17776 9610,17776 Z"/>
      <path fill="rgb(73,73,73)" stroke="none" d="M 13490,17776 L 13490,20709 9610,22949 9610,17776 13490,17776 Z M 9610,17694 L 9610,8389 13490,6149 13490,17694 9610,17694 Z"/>
      <path fill="rgb(74,74,74)" stroke="none" d="M 13490,17694 L 13490,20709 9610,22949 9610,17694 13490,17694 Z M 9610,17612 L 9610,8389 13490,6149 13490,17612 9610,17612 Z"/>
      <path fill="rgb(75,75,75)" stroke="none" d="M 13490,17612 L 13490,20709 9610,22949 9610,17612 13490,17612 Z M 9610,17529 L 9610,8389 13490,6149 13490,17529 9610,17529 Z"/>
      <path fill="rgb(76,76,76)" stroke="none" d="M 13490,17529 L 13490,20709 9610,22949 9610,17529 13490,17529 Z M 9610,17447 L 9610,8389 13490,6149 13490,17447 9610,17447 Z"/>
      <path fill="rgb(77,77,77)" stroke="none" d="M 13490,17447 L 13490,20709 9610,22949 9610,17447 13490,17447 Z M 9610,17365 L 9610,8389 13490,6149 13490,17365 9610,17365 Z"/>
      <path fill="rgb(78,78,78)" stroke="none" d="M 13490,17365 L 13490,20709 9610,22949 9610,17365 13490,17365 Z M 9610,17282 L 9610,8389 13490,6149 13490,17282 9610,17282 Z"/>
      <path fill="rgb(79,79,79)" stroke="none" d="M 13490,17282 L 13490,20709 9610,22949 9610,17282 13490,17282 Z M 9610,17200 L 9610,8389 13490,6149 13490,17200 9610,17200 Z"/>
      <path fill="rgb(80,80,80)" stroke="none" d="M 13490,17200 L 13490,20709 9610,22949 9610,17200 13490,17200 Z M 9610,17117 L 9610,8389 13490,6149 13490,17117 9610,17117 Z"/>
      <path fill="rgb(81,81,81)" stroke="none" d="M 13490,17117 L 13490,20709 9610,22949 9610,17117 13490,17117 Z M 9610,17035 L 9610,8389 13490,6149 13490,17035 9610,17035 Z"/>
      <path fill="rgb(82,82,82)" stroke="none" d="M 13490,17035 L 13490,20709 9610,22949 9610,17035 13490,17035 Z M 9610,16953 L 9610,8389 13490,6149 13490,16953 9610,16953 Z"/>
      <path fill="rgb(83,83,83)" stroke="none" d="M 13490,16953 L 13490,20709 9610,22949 9610,16953 13490,16953 Z M 9610,16870 L 9610,8389 13490,6149 13490,16870 9610,16870 Z"/>
      <path fill="rgb(84,84,84)" stroke="none" d="M 13490,16870 L 13490,20709 9610,22949 9610,16870 13490,16870 Z M 9610,16788 L 9610,8389 13490,6149 13490,16788 9610,16788 Z"/>
      <path fill="rgb(85,85,85)" stroke="none" d="M 13490,16788 L 13490,20709 9610,22949 9610,16788 13490,16788 Z M 9610,16706 L 9610,8389 13490,6149 13490,16706 9610,16706 Z"/>
      <path fill="rgb(86,86,86)" stroke="none" d="M 13490,16706 L 13490,20709 9610,22949 9610,16706 13490,16706 Z M 9610,16623 L 9610,8389 13490,6149 13490,16623 9610,16623 Z"/>
      <path fill="rgb(87,87,87)" stroke="none" d="M 13490,16623 L 13490,20709 9610,22949 9610,16623 13490,16623 Z M 9610,16541 L 9610,8389 13490,6149 13490,16541 9610,16541 Z"/>
      <path fill="rgb(88,88,88)" stroke="none" d="M 13490,16541 L 13490,20709 9610,22949 9610,16541 13490,16541 Z M 9610,16459 L 9610,8389 13490,6149 13490,16459 9610,16459 Z"/>
      <path fill="rgb(89,89,89)" stroke="none" d="M 13490,16459 L 13490,20709 9610,22949 9610,16459 13490,16459 Z M 9610,16376 L 9610,8389 13490,6149 13490,16376 9610,16376 Z"/>
      <path fill="rgb(90,90,90)" stroke="none" d="M 13490,16376 L 13490,20709 9610,22949 9610,16376 13490,16376 Z M 9610,16294 L 9610,8389 13490,6149 13490,16294 9610,16294 Z"/>
      <path fill="rgb(91,91,91)" stroke="none" d="M 13490,16294 L 13490,20709 9610,22949 9610,16294 13490,16294 Z M 13490,6164 L 13490,16211 9610,16211 9610,8389 13464,6164 13490,6164 Z"/>
      <path fill="rgb(92,92,92)" stroke="none" d="M 13490,16211 L 13490,20709 9610,22949 9610,16211 13490,16211 Z M 13464,6164 L 13490,6149 13490,6164 13464,6164 Z M 13490,6246 L 13490,16129 9610,16129 9610,8389 13322,6246 13490,6246 Z"/>
      <path fill="rgb(93,93,93)" stroke="none" d="M 13490,16129 L 13490,20709 9610,22949 9610,16129 13490,16129 Z M 13322,6246 L 13490,6149 13490,6246 13322,6246 Z M 13490,6328 L 13490,16047 9610,16047 9610,8389 13180,6328 13490,6328 Z"/>
      <path fill="rgb(94,94,94)" stroke="none" d="M 13490,16047 L 13490,20709 9610,22949 9610,16047 13490,16047 Z M 13180,6328 L 13490,6149 13490,6328 13180,6328 Z M 13490,6411 L 13490,15964 9610,15964 9610,8389 13036,6411 13490,6411 Z"/>
      <path fill="rgb(95,95,95)" stroke="none" d="M 13490,15964 L 13490,20709 9610,22949 9610,15964 13490,15964 Z M 13036,6411 L 13490,6149 13490,6411 13036,6411 Z M 13490,6493 L 13490,15882 9610,15882 9610,8389 12894,6493 13490,6493 Z"/>
      <path fill="rgb(96,96,96)" stroke="none" d="M 13490,15882 L 13490,20709 9610,22949 9610,15882 13490,15882 Z M 12894,6493 L 13490,6149 13490,6493 12894,6493 Z M 13490,6575 L 13490,15800 9610,15800 9610,8389 12752,6575 13490,6575 Z"/>
      <path fill="rgb(97,97,97)" stroke="none" d="M 13490,15800 L 13490,20709 9610,22949 9610,15800 13490,15800 Z M 12752,6575 L 13490,6149 13490,6575 12752,6575 Z M 13490,6658 L 13490,15717 9610,15717 9610,8389 12608,6658 13490,6658 Z"/>
      <path fill="rgb(98,98,98)" stroke="none" d="M 13490,15717 L 13490,20709 9610,22949 9610,15717 13490,15717 Z M 12608,6658 L 13490,6149 13490,6658 12608,6658 Z M 13490,6740 L 13490,15635 9610,15635 9610,8389 12466,6740 13490,6740 Z"/>
      <path fill="rgb(99,99,99)" stroke="none" d="M 13490,15635 L 13490,20709 9610,22949 9610,15635 13490,15635 Z M 12466,6740 L 13490,6149 13490,6740 12466,6740 Z M 13490,6823 L 13490,15552 9610,15552 9610,8389 12323,6823 13490,6823 Z"/>
      <path fill="rgb(100,100,100)" stroke="none" d="M 13490,15552 L 13490,20709 9610,22949 9610,15552 13490,15552 Z M 12323,6823 L 13490,6149 13490,6823 12323,6823 Z M 13490,6905 L 13490,15470 9610,15470 9610,8389 12181,6905 13490,6905 Z"/>
      <path fill="rgb(101,101,101)" stroke="none" d="M 13490,15470 L 13490,20709 9610,22949 9610,15470 13490,15470 Z M 12181,6905 L 13490,6149 13490,6905 12181,6905 Z M 13490,6987 L 13490,15388 9610,15388 9610,8389 12038,6987 13490,6987 Z"/>
      <path fill="rgb(102,102,102)" stroke="none" d="M 13490,15388 L 13490,20709 9610,22949 9610,15388 13490,15388 Z M 12038,6987 L 13490,6149 13490,6987 12038,6987 Z M 13490,7070 L 13490,15305 9610,15305 9610,8389 11895,7070 13490,7070 Z"/>
      <path fill="rgb(103,103,103)" stroke="none" d="M 13490,15305 L 13490,20709 9610,22949 9610,15305 13490,15305 Z M 11895,7070 L 13490,6149 13490,7070 11895,7070 Z M 13490,7152 L 13490,15223 9610,15223 9610,8389 11753,7152 13490,7152 Z"/>
      <path fill="rgb(104,104,104)" stroke="none" d="M 13490,15223 L 13490,20709 9610,22949 9610,15223 13490,15223 Z M 11753,7152 L 13490,6149 13490,7152 11753,7152 Z M 13490,7234 L 13490,15141 9610,15141 9610,8389 11611,7234 13490,7234 Z"/>
      <path fill="rgb(105,105,105)" stroke="none" d="M 13490,15141 L 13490,20709 9610,22949 9610,15141 13490,15141 Z M 11611,7234 L 13490,6149 13490,7234 11611,7234 Z M 13490,7317 L 13490,15058 9610,15058 9610,8389 11467,7317 13490,7317 Z"/>
      <path fill="rgb(106,106,106)" stroke="none" d="M 13490,15058 L 13490,20709 9610,22949 9610,15058 13490,15058 Z M 11467,7317 L 13490,6149 13490,7317 11467,7317 Z M 13490,7399 L 13490,14976 9610,14976 9610,8389 11325,7399 13490,7399 Z"/>
      <path fill="rgb(107,107,107)" stroke="none" d="M 13490,14976 L 13490,20709 9610,22949 9610,14976 13490,14976 Z M 11325,7399 L 13490,6149 13490,7399 11325,7399 Z M 13490,7481 L 13490,14894 9610,14894 9610,8389 11183,7481 13490,7481 Z"/>
      <path fill="rgb(108,108,108)" stroke="none" d="M 13490,14894 L 13490,20709 9610,22949 9610,14894 13490,14894 Z M 11183,7481 L 13490,6149 13490,7481 11183,7481 Z M 13490,7564 L 13490,14811 9610,14811 9610,8389 11039,7564 13490,7564 Z"/>
      <path fill="rgb(109,109,109)" stroke="none" d="M 13490,14811 L 13490,20709 9610,22949 9610,14811 13490,14811 Z M 11039,7564 L 13490,6149 13490,7564 11039,7564 Z M 13490,7646 L 13490,14729 9610,14729 9610,8389 10897,7646 13490,7646 Z"/>
      <path fill="rgb(110,110,110)" stroke="none" d="M 13490,14729 L 13490,20709 9610,22949 9610,14729 13490,14729 Z M 10897,7646 L 13490,6149 13490,7646 10897,7646 Z M 13490,7729 L 13490,14646 9610,14646 9610,8389 10753,7729 13490,7729 Z"/>
      <path fill="rgb(111,111,111)" stroke="none" d="M 13490,14646 L 13490,20709 9610,22949 9610,14646 13490,14646 Z M 10753,7729 L 13490,6149 13490,7729 10753,7729 Z M 13490,7811 L 13490,14564 9610,14564 9610,8389 10611,7811 13490,7811 Z"/>
      <path fill="rgb(112,112,112)" stroke="none" d="M 13490,14564 L 13490,20709 9610,22949 9610,14564 13490,14564 Z M 10611,7811 L 13490,6149 13490,7811 10611,7811 Z M 13490,7893 L 13490,14482 9610,14482 9610,8389 10469,7893 13490,7893 Z"/>
      <path fill="rgb(113,113,113)" stroke="none" d="M 13490,14482 L 13490,20709 9610,22949 9610,14482 13490,14482 Z M 10469,7893 L 13490,6149 13490,7893 10469,7893 Z M 13490,7976 L 13490,14399 9610,14399 9610,8389 10325,7976 13490,7976 Z"/>
      <path fill="rgb(114,114,114)" stroke="none" d="M 13490,14399 L 13490,20709 9610,22949 9610,14399 13490,14399 Z M 10325,7976 L 13490,6149 13490,7976 10325,7976 Z M 13490,8058 L 13490,14317 9610,14317 9610,8389 10183,8058 13490,8058 Z"/>
      <path fill="rgb(115,115,115)" stroke="none" d="M 13490,14317 L 13490,20709 9610,22949 9610,14317 13490,14317 Z M 10183,8058 L 13490,6149 13490,8058 10183,8058 Z M 13490,8140 L 13490,14235 9610,14235 9610,8389 10041,8140 13490,8140 Z"/>
      <path fill="rgb(116,116,116)" stroke="none" d="M 13490,14235 L 13490,20709 9610,22949 9610,14235 13490,14235 Z M 10041,8140 L 13490,6149 13490,8140 10041,8140 Z M 13490,8223 L 13490,14152 9610,14152 9610,8389 9898,8223 13490,8223 Z"/>
      <path fill="rgb(117,117,117)" stroke="none" d="M 13490,14152 L 13490,20709 9610,22949 9610,14152 13490,14152 Z M 9898,8223 L 13490,6149 13490,8223 9898,8223 Z M 13490,8305 L 13490,14070 9610,14070 9610,8389 9756,8305 13490,8305 Z"/>
      <path fill="rgb(118,118,118)" stroke="none" d="M 13490,14070 L 13490,20709 9610,22949 9610,14070 13490,14070 Z M 9756,8305 L 13490,6149 13490,8305 9756,8305 Z M 13490,8387 L 13490,13988 9610,13988 9610,8389 9613,8387 13490,8387 Z"/>
      <path fill="rgb(119,119,119)" stroke="none" d="M 13490,13988 L 13490,20709 9610,22949 9610,13988 13490,13988 Z M 9613,8387 L 13490,6149 13490,8387 9613,8387 Z M 13490,8470 L 13490,13905 9610,13905 9610,8470 13490,8470 Z"/>
      <path fill="rgb(120,120,120)" stroke="none" d="M 13490,13905 L 13490,20709 9610,22949 9610,13905 13490,13905 Z M 9610,8470 L 9610,8389 13490,6149 13490,8470 9610,8470 Z M 13408,8552 L 13408,13823 9610,13823 9610,8552 13408,8552 Z"/>
      <path fill="rgb(121,121,121)" stroke="none" d="M 13408,13823 L 13408,8552 9610,8552 9610,8389 13490,6149 13490,20709 9610,22949 9610,13823 13408,13823 Z M 13325,8635 L 13325,13740 9610,13740 9610,8635 13325,8635 Z"/>
      <path fill="rgb(122,122,122)" stroke="none" d="M 13325,13740 L 13325,8635 9610,8635 9610,8389 13490,6149 13490,20709 9610,22949 9610,13740 13325,13740 Z M 13243,8717 L 13243,13658 9610,13658 9610,8717 13243,8717 Z"/>
      <path fill="rgb(123,123,123)" stroke="none" d="M 13243,13658 L 13243,8717 9610,8717 9610,8389 13490,6149 13490,20709 9610,22949 9610,13658 13243,13658 Z M 13161,8799 L 13161,13576 9610,13576 9610,8799 13161,8799 Z"/>
      <path fill="rgb(124,124,124)" stroke="none" d="M 13161,13576 L 13161,8799 9610,8799 9610,8389 13490,6149 13490,20709 9610,22949 9610,13576 13161,13576 Z M 13078,8882 L 13078,13493 9610,13493 9610,8882 13078,8882 Z"/>
      <path fill="rgb(125,125,125)" stroke="none" d="M 13078,13493 L 13078,8882 9610,8882 9610,8389 13490,6149 13490,20709 9610,22949 9610,13493 13078,13493 Z M 12996,8964 L 12996,13411 9610,13411 9610,8964 12996,8964 Z"/>
      <path fill="rgb(126,126,126)" stroke="none" d="M 12996,13411 L 12996,8964 9610,8964 9610,8389 13490,6149 13490,20709 9610,22949 9610,13411 12996,13411 Z M 12914,9046 L 12914,13329 9610,13329 9610,9046 12914,9046 Z"/>
      <path fill="rgb(127,127,127)" stroke="none" d="M 12914,13329 L 12914,9046 9610,9046 9610,8389 13490,6149 13490,20709 9610,22949 9610,13329 12914,13329 Z M 12831,9129 L 12831,13246 9610,13246 9610,9129 12831,9129 Z"/>
      <path fill="rgb(128,128,128)" stroke="none" d="M 12831,13246 L 12831,9129 9610,9129 9610,8389 13490,6149 13490,20709 9610,22949 9610,13246 12831,13246 Z M 12749,9211 L 12749,13164 9610,13164 9610,9211 12749,9211 Z"/>
      <path fill="rgb(129,129,129)" stroke="none" d="M 12749,13164 L 12749,9211 9610,9211 9610,8389 13490,6149 13490,20709 9610,22949 9610,13164 12749,13164 Z M 12666,9294 L 12666,13081 9610,13081 9610,9294 12666,9294 Z"/>
      <path fill="rgb(130,130,130)" stroke="none" d="M 12666,13081 L 12666,9294 9610,9294 9610,8389 13490,6149 13490,20709 9610,22949 9610,13081 12666,13081 Z M 12584,9376 L 12584,12999 9610,12999 9610,9376 12584,9376 Z"/>
      <path fill="rgb(131,131,131)" stroke="none" d="M 12584,12999 L 12584,9376 9610,9376 9610,8389 13490,6149 13490,20709 9610,22949 9610,12999 12584,12999 Z M 12502,9458 L 12502,12917 9610,12917 9610,9458 12502,9458 Z"/>
      <path fill="rgb(132,132,132)" stroke="none" d="M 12502,12917 L 12502,9458 9610,9458 9610,8389 13490,6149 13490,20709 9610,22949 9610,12917 12502,12917 Z M 12419,9541 L 12419,12834 9610,12834 9610,9541 12419,9541 Z"/>
      <path fill="rgb(133,133,133)" stroke="none" d="M 12419,12834 L 12419,9541 9610,9541 9610,8389 13490,6149 13490,20709 9610,22949 9610,12834 12419,12834 Z M 12337,9623 L 12337,12752 9610,12752 9610,9623 12337,9623 Z"/>
      <path fill="rgb(134,134,134)" stroke="none" d="M 12337,12752 L 12337,9623 9610,9623 9610,8389 13490,6149 13490,20709 9610,22949 9610,12752 12337,12752 Z M 12255,9705 L 12255,12670 9610,12670 9610,9705 12255,9705 Z"/>
      <path fill="rgb(135,135,135)" stroke="none" d="M 12255,12670 L 12255,9705 9610,9705 9610,8389 13490,6149 13490,20709 9610,22949 9610,12670 12255,12670 Z M 12172,9788 L 12172,12587 9610,12587 9610,9788 12172,9788 Z"/>
      <path fill="rgb(136,136,136)" stroke="none" d="M 12172,12587 L 12172,9788 9610,9788 9610,8389 13490,6149 13490,20709 9610,22949 9610,12587 12172,12587 Z M 12090,9870 L 12090,12505 9610,12505 9610,9870 12090,9870 Z"/>
      <path fill="rgb(137,137,137)" stroke="none" d="M 12090,12505 L 12090,9870 9610,9870 9610,8389 13490,6149 13490,20709 9610,22949 9610,12505 12090,12505 Z M 12008,9952 L 12008,12423 9610,12423 9610,9952 12008,9952 Z"/>
      <path fill="rgb(138,138,138)" stroke="none" d="M 12008,12423 L 12008,9952 9610,9952 9610,8389 13490,6149 13490,20709 9610,22949 9610,12423 12008,12423 Z M 9620,10035 L 11925,10035 11925,12340 9620,12340 9620,10035 Z"/>
      <path fill="rgb(139,139,139)" stroke="none" d="M 9620,10035 L 9620,12340 11925,12340 11925,10035 9620,10035 Z M 9702,10117 L 11843,10117 11843,12258 9702,12258 9702,10117 Z M 9610,22949 L 9610,8389 13490,6149 13490,20709 9610,22949 Z"/>
      <path fill="rgb(140,140,140)" stroke="none" d="M 9702,10117 L 9702,12258 11843,12258 11843,10117 9702,10117 Z M 9785,10200 L 11760,10200 11760,12175 9785,12175 9785,10200 Z M 9610,22949 L 9610,8389 13490,6149 13490,20709 9610,22949 Z"/>
      <path fill="rgb(141,141,141)" stroke="none" d="M 9785,10200 L 9785,12175 11760,12175 11760,10200 9785,10200 Z M 9867,10282 L 11678,10282 11678,12093 9867,12093 9867,10282 Z M 9610,22949 L 9610,8389 13490,6149 13490,20709 9610,22949 Z"/>
      <path fill="rgb(142,142,142)" stroke="none" d="M 9867,10282 L 9867,12093 11678,12093 11678,10282 9867,10282 Z M 9949,10364 L 11596,10364 11596,12011 9949,12011 9949,10364 Z M 9610,22949 L 9610,8389 13490,6149 13490,20709 9610,22949 Z"/>
      <path fill="rgb(143,143,143)" stroke="none" d="M 9949,10364 L 9949,12011 11596,12011 11596,10364 9949,10364 Z M 10032,10447 L 11513,10447 11513,11928 10032,11928 10032,10447 Z M 9610,22949 L 9610,8389 13490,6149 13490,20709 9610,22949 Z"/>
      <path fill="rgb(144,144,144)" stroke="none" d="M 10032,10447 L 10032,11928 11513,11928 11513,10447 10032,10447 Z M 10114,10529 L 11431,10529 11431,11846 10114,11846 10114,10529 Z M 9610,22949 L 9610,8389 13490,6149 13490,20709 9610,22949 Z"/>
      <path fill="rgb(145,145,145)" stroke="none" d="M 10114,10529 L 10114,11846 11431,11846 11431,10529 10114,10529 Z M 10196,10611 L 11349,10611 11349,11764 10196,11764 10196,10611 Z M 9610,22949 L 9610,8389 13490,6149 13490,20709 9610,22949 Z"/>
      <path fill="rgb(146,146,146)" stroke="none" d="M 10196,10611 L 10196,11764 11349,11764 11349,10611 10196,10611 Z M 10279,10694 L 11266,10694 11266,11681 10279,11681 10279,10694 Z M 9610,22949 L 9610,8389 13490,6149 13490,20709 9610,22949 Z"/>
      <path fill="rgb(147,147,147)" stroke="none" d="M 10279,10694 L 10279,11681 11266,11681 11266,10694 10279,10694 Z M 10361,10776 L 11184,10776 11184,11599 10361,11599 10361,10776 Z M 9610,22949 L 9610,8389 13490,6149 13490,20709 9610,22949 Z"/>
      <path fill="rgb(148,148,148)" stroke="none" d="M 10361,10776 L 10361,11599 11184,11599 11184,10776 10361,10776 Z M 10444,10859 L 11101,10859 11101,11516 10444,11516 10444,10859 Z M 9610,22949 L 9610,8389 13490,6149 13490,20709 9610,22949 Z"/>
      <path fill="rgb(149,149,149)" stroke="none" d="M 10444,10859 L 10444,11516 11101,11516 11101,10859 10444,10859 Z M 10526,10941 L 11019,10941 11019,11434 10526,11434 10526,10941 Z M 9610,22949 L 9610,8389 13490,6149 13490,20709 9610,22949 Z"/>
      <path fill="rgb(150,150,150)" stroke="none" d="M 10526,10941 L 10526,11434 11019,11434 11019,10941 10526,10941 Z M 10608,11023 L 10937,11023 10937,11352 10608,11352 10608,11023 Z M 9610,22949 L 9610,8389 13490,6149 13490,20709 9610,22949 Z"/>
      <path fill="rgb(151,151,151)" stroke="none" d="M 10608,11023 L 10608,11352 10937,11352 10937,11023 10608,11023 Z M 10691,11106 L 10854,11106 10854,11269 10691,11269 10691,11106 Z M 9610,22949 L 9610,8389 13490,6149 13490,20709 9610,22949 Z"/>
      <path fill="rgb(153,153,153)" stroke="none" d="M 10691,11106 L 10691,11269 10854,11269 10854,11106 10691,11106 Z M 9610,22949 L 9610,8389 13490,6149 13490,20709 9610,22949 Z"/>
      <path fill="none" stroke="rgb(178,178,178)" id="Drawing_2_0" stroke-width="40" stroke-linejoin="round" d="M 9610,22949 L 9610,8389 13490,6149 13490,20709 9610,22949 Z"/>
     </g>
     <g>
      <defs>
       <linearGradient id="Gradient_860" gradientUnits="userSpaceOnUse" x1="9610" y1="3909" x2="9610" y2="8389">
        <stop offset="0.1" stop-color="rgb(51,51,51)"/>
        <stop offset="1" stop-color="rgb(153,153,153)"/>
       </linearGradient>
      </defs>
      <path fill="url(#Gradient_860)" stroke="rgb(178,178,178)" id="Drawing_3_0" stroke-width="40" stroke-linejoin="round" d="M 9610,8389 L 5730,6149 9610,3909 13490,6149 9610,8389 Z"/>
     </g>
     <g id="DrawingGroup_4">
      <g>
       <defs>
        <linearGradient id="Gradient_861" gradientUnits="userSpaceOnUse" x1="6333" y1="20846" x2="9248" y2="20852">
         <stop offset="0.1" stop-color="rgb(51,51,51)"/>
         <stop offset="1" stop-color="rgb(153,153,153)"/>
        </linearGradient>
       </defs>
       <path fill="url(#Gradient_861)" stroke="rgb(178,178,178)" id="Drawing_4_0" stroke-width="40" stroke-linejoin="round" d="M 6336,20569 L 6337,19449 9247,21129 9247,22249 6336,20569 Z"/>
      </g>
      <g>
       <path fill="none" stroke="rgb(153,153,153)" id="Drawing_5_0" stroke-width="40" stroke-linejoin="round" d="M 7063,20009 L 7063,20849"/>
      </g>
      <g>
       <path fill="none" stroke="rgb(178,178,178)" id="Drawing_6_0" stroke-width="40" stroke-linejoin="round" d="M 9003,21409 L 8033,20849 8033,20709"/>
      </g>
      <g>
       <path fill="none" stroke="rgb(102,102,102)" id="Drawing_7_0" stroke-width="40" stroke-linejoin="round" d="M 9003,21409 L 9003,21269 8033,20709"/>
      </g>
      <g>
       <path fill="rgb(153,255,102)" stroke="none" d="M 8882,21829 L 8882,21689 9003,21759 9003,21899 8882,21829 Z"/>
       <path fill="none" stroke="rgb(51,51,51)" id="Drawing_8_0" stroke-width="40" stroke-linejoin="round" d="M 8882,21829 L 8882,21689 9003,21759 9003,21899 8882,21829 Z"/>
      </g>
      <g>
       <path fill="none" stroke="rgb(153,153,153)" id="Drawing_9_0" stroke-width="40" stroke-linejoin="round" d="M 6942,19939 L 6942,20779"/>
      </g>
      <g>
       <path fill="none" stroke="rgb(153,153,153)" id="Drawing_10_0" stroke-width="40" stroke-linejoin="round" d="M 6821,19869 L 6821,20709"/>
      </g>
      <g>
       <path fill="none" stroke="rgb(153,153,153)" id="Drawing_11_0" stroke-width="40" stroke-linejoin="round" d="M 6700,19799 L 6700,20639"/>
      </g>
      <g>
       <path fill="none" stroke="rgb(153,153,153)" id="Drawing_12_0" stroke-width="40" stroke-linejoin="round" d="M 6578,19729 L 6578,20569"/>
      </g>
      <g>
       <path fill="none" stroke="rgb(153,153,153)" id="Drawing_13_0" stroke-width="40" stroke-linejoin="round" d="M 7185,20919 L 7185,20079"/>
      </g>
      <g>
       <path fill="none" stroke="rgb(153,153,153)" id="Drawing_14_0" stroke-width="40" stroke-linejoin="round" d="M 7548,20289 L 7548,21129"/>
      </g>
      <g>
       <path fill="none" stroke="rgb(153,153,153)" id="Drawing_15_0" stroke-width="40" stroke-linejoin="round" d="M 7427,20219 L 7427,21059"/>
      </g>
      <g>
       <path fill="none" stroke="rgb(153,153,153)" id="Drawing_16_0" stroke-width="40" stroke-linejoin="round" d="M 7306,20149 L 7306,20989"/>
      </g>
      <g>
       <path fill="none" stroke="rgb(153,153,153)" id="Drawing_17_0" stroke-width="40" stroke-linejoin="round" d="M 7670,21199 L 7670,20359"/>
      </g>
     </g>
     <g>
      <defs>
       <linearGradient id="Gradient_862" gradientUnits="userSpaceOnUse" x1="9233" y1="15564" x2="9623" y2="15564">
        <stop offset="0.1" stop-color="rgb(51,51,51)"/>
        <stop offset="1" stop-color="rgb(153,153,153)"/>
       </linearGradient>
      </defs>
      <path fill="url(#Gradient_862)" stroke="rgb(178,178,178)" id="Drawing_18_0" stroke-width="40" stroke-linejoin="round" d="M 9246,22739 L 9246,8179 9610,8389 9610,22949 9246,22739 Z"/>
     </g>
     <g>
      <defs>
       <linearGradient id="Gradient_863" gradientUnits="userSpaceOnUse" x1="5717" y1="13534" x2="6107" y2="13534">
        <stop offset="0.1" stop-color="rgb(51,51,51)"/>
        <stop offset="1" stop-color="rgb(153,153,153)"/>
       </linearGradient>
      </defs>
      <path fill="url(#Gradient_863)" stroke="rgb(178,178,178)" id="Drawing_19_0" stroke-width="40" stroke-linejoin="round" d="M 5730,20709 L 5730,6149 6094,6359 6094,20919 5730,20709 Z"/>
     </g>
     <g>
      <path fill="rgb(51,51,51)" stroke="none" d="M 6093,17768 L 6093,6359 6336,6499 6336,17768 6093,17768 Z"/>
      <path fill="rgb(52,52,52)" stroke="none" d="M 6336,17768 L 6336,20569 6093,20709 6093,17768 6336,17768 Z M 6093,17698 L 6093,6359 6336,6499 6336,17698 6093,17698 Z"/>
      <path fill="rgb(53,53,53)" stroke="none" d="M 6336,17698 L 6336,20569 6093,20709 6093,17698 6336,17698 Z M 6093,17627 L 6093,6359 6336,6499 6336,17627 6093,17627 Z"/>
      <path fill="rgb(54,54,54)" stroke="none" d="M 6336,17627 L 6336,20569 6093,20709 6093,17627 6336,17627 Z M 6093,17557 L 6093,6359 6336,6499 6336,17557 6093,17557 Z"/>
      <path fill="rgb(55,55,55)" stroke="none" d="M 6336,17557 L 6336,20569 6093,20709 6093,17557 6336,17557 Z M 6093,17487 L 6093,6359 6336,6499 6336,17487 6093,17487 Z"/>
      <path fill="rgb(56,56,56)" stroke="none" d="M 6336,17487 L 6336,20569 6093,20709 6093,17487 6336,17487 Z M 6093,17416 L 6093,6359 6336,6499 6336,17416 6093,17416 Z"/>
      <path fill="rgb(57,57,57)" stroke="none" d="M 6336,17416 L 6336,20569 6093,20709 6093,17416 6336,17416 Z M 6093,17346 L 6093,6359 6336,6499 6336,17346 6093,17346 Z"/>
      <path fill="rgb(58,58,58)" stroke="none" d="M 6336,17346 L 6336,20569 6093,20709 6093,17346 6336,17346 Z M 6093,17276 L 6093,6359 6336,6499 6336,17276 6093,17276 Z"/>
      <path fill="rgb(59,59,59)" stroke="none" d="M 6336,17276 L 6336,20569 6093,20709 6093,17276 6336,17276 Z M 6093,17205 L 6093,6359 6336,6499 6336,17205 6093,17205 Z"/>
      <path fill="rgb(60,60,60)" stroke="none" d="M 6336,17205 L 6336,20569 6093,20709 6093,17205 6336,17205 Z M 6093,17135 L 6093,6359 6336,6499 6336,17135 6093,17135 Z"/>
      <path fill="rgb(61,61,61)" stroke="none" d="M 6336,17135 L 6336,20569 6093,20709 6093,17135 6336,17135 Z M 6093,17065 L 6093,6359 6336,6499 6336,17065 6093,17065 Z"/>
      <path fill="rgb(62,62,62)" stroke="none" d="M 6336,17065 L 6336,20569 6093,20709 6093,17065 6336,17065 Z M 6093,16994 L 6093,6359 6336,6499 6336,16994 6093,16994 Z"/>
      <path fill="rgb(63,63,63)" stroke="none" d="M 6336,16994 L 6336,20569 6093,20709 6093,16994 6336,16994 Z M 6093,16924 L 6093,6359 6336,6499 6336,16924 6093,16924 Z"/>
      <path fill="rgb(64,64,64)" stroke="none" d="M 6336,16924 L 6336,20569 6093,20709 6093,16924 6336,16924 Z M 6093,16853 L 6093,6359 6336,6499 6336,16853 6093,16853 Z"/>
      <path fill="rgb(65,65,65)" stroke="none" d="M 6336,16853 L 6336,20569 6093,20709 6093,16853 6336,16853 Z M 6093,16783 L 6093,6359 6336,6499 6336,16783 6093,16783 Z"/>
      <path fill="rgb(66,66,66)" stroke="none" d="M 6336,16783 L 6336,20569 6093,20709 6093,16783 6336,16783 Z M 6093,16713 L 6093,6359 6336,6499 6336,16713 6093,16713 Z"/>
      <path fill="rgb(67,67,67)" stroke="none" d="M 6336,16713 L 6336,20569 6093,20709 6093,16713 6336,16713 Z M 6093,16642 L 6093,6359 6336,6499 6336,16642 6093,16642 Z"/>
      <path fill="rgb(68,68,68)" stroke="none" d="M 6336,16642 L 6336,20569 6093,20709 6093,16642 6336,16642 Z M 6093,16572 L 6093,6359 6336,6499 6336,16572 6093,16572 Z"/>
      <path fill="rgb(69,69,69)" stroke="none" d="M 6336,16572 L 6336,20569 6093,20709 6093,16572 6336,16572 Z M 6093,16502 L 6093,6359 6336,6499 6336,16502 6093,16502 Z"/>
      <path fill="rgb(70,70,70)" stroke="none" d="M 6336,16502 L 6336,20569 6093,20709 6093,16502 6336,16502 Z M 6093,16431 L 6093,6359 6336,6499 6336,16431 6093,16431 Z"/>
      <path fill="rgb(71,71,71)" stroke="none" d="M 6336,16431 L 6336,20569 6093,20709 6093,16431 6336,16431 Z M 6093,16361 L 6093,6359 6336,6499 6336,16361 6093,16361 Z"/>
      <path fill="rgb(72,72,72)" stroke="none" d="M 6336,16361 L 6336,20569 6093,20709 6093,16361 6336,16361 Z M 6093,16291 L 6093,6359 6336,6499 6336,16291 6093,16291 Z"/>
      <path fill="rgb(73,73,73)" stroke="none" d="M 6336,16291 L 6336,20569 6093,20709 6093,16291 6336,16291 Z M 6093,16220 L 6093,6359 6336,6499 6336,16220 6093,16220 Z"/>
      <path fill="rgb(74,74,74)" stroke="none" d="M 6336,16220 L 6336,20569 6093,20709 6093,16220 6336,16220 Z M 6093,16150 L 6093,6359 6336,6499 6336,16150 6093,16150 Z"/>
      <path fill="rgb(75,75,75)" stroke="none" d="M 6336,16150 L 6336,20569 6093,20709 6093,16150 6336,16150 Z M 6093,16080 L 6093,6359 6336,6499 6336,16080 6093,16080 Z"/>
      <path fill="rgb(76,76,76)" stroke="none" d="M 6336,16080 L 6336,20569 6093,20709 6093,16080 6336,16080 Z M 6093,16009 L 6093,6359 6336,6499 6336,16009 6093,16009 Z"/>
      <path fill="rgb(77,77,77)" stroke="none" d="M 6336,16009 L 6336,20569 6093,20709 6093,16009 6336,16009 Z M 6093,15939 L 6093,6359 6336,6499 6336,15939 6093,15939 Z"/>
      <path fill="rgb(78,78,78)" stroke="none" d="M 6336,15939 L 6336,20569 6093,20709 6093,15939 6336,15939 Z M 6093,15868 L 6093,6359 6336,6499 6336,15868 6093,15868 Z"/>
      <path fill="rgb(79,79,79)" stroke="none" d="M 6336,15868 L 6336,20569 6093,20709 6093,15868 6336,15868 Z M 6093,15798 L 6093,6359 6336,6499 6336,15798 6093,15798 Z"/>
      <path fill="rgb(80,80,80)" stroke="none" d="M 6336,15798 L 6336,20569 6093,20709 6093,15798 6336,15798 Z M 6093,15728 L 6093,6359 6336,6499 6336,15728 6093,15728 Z"/>
      <path fill="rgb(81,81,81)" stroke="none" d="M 6336,15728 L 6336,20569 6093,20709 6093,15728 6336,15728 Z M 6093,15657 L 6093,6359 6336,6499 6336,15657 6093,15657 Z"/>
      <path fill="rgb(82,82,82)" stroke="none" d="M 6336,15657 L 6336,20569 6093,20709 6093,15657 6336,15657 Z M 6093,15587 L 6093,6359 6336,6499 6336,15587 6093,15587 Z"/>
      <path fill="rgb(83,83,83)" stroke="none" d="M 6336,15587 L 6336,20569 6093,20709 6093,15587 6336,15587 Z M 6093,15517 L 6093,6359 6336,6499 6336,15517 6093,15517 Z"/>
      <path fill="rgb(84,84,84)" stroke="none" d="M 6336,15517 L 6336,20569 6093,20709 6093,15517 6336,15517 Z M 6093,15446 L 6093,6359 6336,6499 6336,15446 6093,15446 Z"/>
      <path fill="rgb(85,85,85)" stroke="none" d="M 6336,15446 L 6336,20569 6093,20709 6093,15446 6336,15446 Z M 6093,15376 L 6093,6359 6336,6499 6336,15376 6093,15376 Z"/>
      <path fill="rgb(86,86,86)" stroke="none" d="M 6336,15376 L 6336,20569 6093,20709 6093,15376 6336,15376 Z M 6093,15306 L 6093,6359 6336,6499 6336,15306 6093,15306 Z"/>
      <path fill="rgb(87,87,87)" stroke="none" d="M 6336,15306 L 6336,20569 6093,20709 6093,15306 6336,15306 Z M 6093,15235 L 6093,6359 6336,6499 6336,15235 6093,15235 Z"/>
      <path fill="rgb(88,88,88)" stroke="none" d="M 6336,15235 L 6336,20569 6093,20709 6093,15235 6336,15235 Z M 6093,15165 L 6093,6359 6336,6499 6336,15165 6093,15165 Z"/>
      <path fill="rgb(89,89,89)" stroke="none" d="M 6336,15165 L 6336,20569 6093,20709 6093,15165 6336,15165 Z M 6093,15095 L 6093,6359 6336,6499 6336,15095 6093,15095 Z"/>
      <path fill="rgb(90,90,90)" stroke="none" d="M 6336,15095 L 6336,20569 6093,20709 6093,15095 6336,15095 Z M 6093,15024 L 6093,6359 6336,6499 6336,15024 6093,15024 Z"/>
      <path fill="rgb(91,91,91)" stroke="none" d="M 6336,15024 L 6336,20569 6093,20709 6093,15024 6336,15024 Z M 6114,6371 L 6336,6499 6336,14954 6093,14954 6093,6371 6114,6371 Z"/>
      <path fill="rgb(92,92,92)" stroke="none" d="M 6336,14954 L 6336,20569 6093,20709 6093,14954 6336,14954 Z M 6093,6371 L 6093,6359 6114,6371 6093,6371 Z M 6237,6442 L 6336,6499 6336,14883 6093,14883 6093,6442 6237,6442 Z"/>
      <path fill="rgb(93,93,93)" stroke="none" d="M 6336,14883 L 6336,20569 6093,20709 6093,14883 6336,14883 Z M 6093,6442 L 6093,6359 6237,6442 6093,6442 Z M 6336,6512 L 6336,14813 6093,14813 6093,6512 6336,6512 Z"/>
      <path fill="rgb(94,94,94)" stroke="none" d="M 6336,14813 L 6336,20569 6093,20709 6093,14813 6336,14813 Z M 6093,6512 L 6093,6359 6336,6499 6336,6512 6093,6512 Z M 6336,6582 L 6336,14743 6093,14743 6093,6582 6336,6582 Z"/>
      <path fill="rgb(95,95,95)" stroke="none" d="M 6336,14743 L 6336,20569 6093,20709 6093,14743 6336,14743 Z M 6093,6582 L 6093,6359 6336,6499 6336,6582 6093,6582 Z M 6336,6653 L 6336,14672 6093,14672 6093,6653 6336,6653 Z"/>
      <path fill="rgb(96,96,96)" stroke="none" d="M 6336,14672 L 6336,20569 6093,20709 6093,14672 6336,14672 Z M 6093,6653 L 6093,6359 6336,6499 6336,6653 6093,6653 Z M 6336,6723 L 6336,14602 6093,14602 6093,6723 6336,6723 Z"/>
      <path fill="rgb(97,97,97)" stroke="none" d="M 6336,14602 L 6336,20569 6093,20709 6093,14602 6336,14602 Z M 6093,6723 L 6093,6359 6336,6499 6336,6723 6093,6723 Z M 6336,6793 L 6336,14532 6093,14532 6093,6793 6336,6793 Z"/>
      <path fill="rgb(98,98,98)" stroke="none" d="M 6336,14532 L 6336,20569 6093,20709 6093,14532 6336,14532 Z M 6093,6793 L 6093,6359 6336,6499 6336,6793 6093,6793 Z M 6336,6864 L 6336,14461 6093,14461 6093,6864 6336,6864 Z"/>
      <path fill="rgb(99,99,99)" stroke="none" d="M 6336,14461 L 6336,20569 6093,20709 6093,14461 6336,14461 Z M 6093,6864 L 6093,6359 6336,6499 6336,6864 6093,6864 Z M 6336,6934 L 6336,14391 6093,14391 6093,6934 6336,6934 Z"/>
      <path fill="rgb(100,100,100)" stroke="none" d="M 6336,14391 L 6336,20569 6093,20709 6093,14391 6336,14391 Z M 6093,6934 L 6093,6359 6336,6499 6336,6934 6093,6934 Z M 6336,7004 L 6336,14321 6093,14321 6093,7004 6336,7004 Z"/>
      <path fill="rgb(101,101,101)" stroke="none" d="M 6336,14321 L 6336,20569 6093,20709 6093,14321 6336,14321 Z M 6093,7004 L 6093,6359 6336,6499 6336,7004 6093,7004 Z M 6336,7075 L 6336,14250 6093,14250 6093,7075 6336,7075 Z"/>
      <path fill="rgb(102,102,102)" stroke="none" d="M 6336,14250 L 6336,20569 6093,20709 6093,14250 6336,14250 Z M 6093,7075 L 6093,6359 6336,6499 6336,7075 6093,7075 Z M 6336,7145 L 6336,14180 6093,14180 6093,7145 6336,7145 Z"/>
      <path fill="rgb(103,103,103)" stroke="none" d="M 6336,14180 L 6336,20569 6093,20709 6093,14180 6336,14180 Z M 6093,7145 L 6093,6359 6336,6499 6336,7145 6093,7145 Z M 6336,7215 L 6336,14110 6093,14110 6093,7215 6336,7215 Z"/>
      <path fill="rgb(104,104,104)" stroke="none" d="M 6336,14110 L 6336,20569 6093,20709 6093,14110 6336,14110 Z M 6093,7215 L 6093,6359 6336,6499 6336,7215 6093,7215 Z M 6336,7286 L 6336,14039 6093,14039 6093,7286 6336,7286 Z"/>
      <path fill="rgb(105,105,105)" stroke="none" d="M 6336,14039 L 6336,20569 6093,20709 6093,14039 6336,14039 Z M 6093,7286 L 6093,6359 6336,6499 6336,7286 6093,7286 Z M 6336,7356 L 6336,13969 6093,13969 6093,7356 6336,7356 Z"/>
      <path fill="rgb(106,106,106)" stroke="none" d="M 6336,13969 L 6336,20569 6093,20709 6093,13969 6336,13969 Z M 6093,7356 L 6093,6359 6336,6499 6336,7356 6093,7356 Z M 6336,7427 L 6336,13898 6093,13898 6093,7427 6336,7427 Z"/>
      <path fill="rgb(107,107,107)" stroke="none" d="M 6336,13898 L 6336,20569 6093,20709 6093,13898 6336,13898 Z M 6093,7427 L 6093,6359 6336,6499 6336,7427 6093,7427 Z M 6336,7497 L 6336,13828 6093,13828 6093,7497 6336,7497 Z"/>
      <path fill="rgb(108,108,108)" stroke="none" d="M 6336,13828 L 6336,20569 6093,20709 6093,13828 6336,13828 Z M 6093,7497 L 6093,6359 6336,6499 6336,7497 6093,7497 Z M 6336,7567 L 6336,13758 6093,13758 6093,7567 6336,7567 Z"/>
      <path fill="rgb(109,109,109)" stroke="none" d="M 6336,13758 L 6336,20569 6093,20709 6093,13758 6336,13758 Z M 6093,7567 L 6093,6359 6336,6499 6336,7567 6093,7567 Z M 6336,7638 L 6336,13687 6093,13687 6093,7638 6336,7638 Z"/>
      <path fill="rgb(110,110,110)" stroke="none" d="M 6336,13687 L 6336,20569 6093,20709 6093,13687 6336,13687 Z M 6093,7638 L 6093,6359 6336,6499 6336,7638 6093,7638 Z M 6336,7708 L 6336,13617 6093,13617 6093,7708 6336,7708 Z"/>
      <path fill="rgb(111,111,111)" stroke="none" d="M 6336,13617 L 6336,20569 6093,20709 6093,13617 6336,13617 Z M 6093,7708 L 6093,6359 6336,6499 6336,7708 6093,7708 Z M 6336,7778 L 6336,13547 6093,13547 6093,7778 6336,7778 Z"/>
      <path fill="rgb(112,112,112)" stroke="none" d="M 6336,13547 L 6336,20569 6093,20709 6093,13547 6336,13547 Z M 6093,7778 L 6093,6359 6336,6499 6336,7778 6093,7778 Z M 6336,7849 L 6336,13476 6093,13476 6093,7849 6336,7849 Z"/>
      <path fill="rgb(113,113,113)" stroke="none" d="M 6336,13476 L 6336,20569 6093,20709 6093,13476 6336,13476 Z M 6093,7849 L 6093,6359 6336,6499 6336,7849 6093,7849 Z M 6336,7919 L 6336,13406 6093,13406 6093,7919 6336,7919 Z"/>
      <path fill="rgb(114,114,114)" stroke="none" d="M 6336,13406 L 6336,20569 6093,20709 6093,13406 6336,13406 Z M 6093,7919 L 6093,6359 6336,6499 6336,7919 6093,7919 Z M 6336,7989 L 6336,13336 6093,13336 6093,7989 6336,7989 Z"/>
      <path fill="rgb(115,115,115)" stroke="none" d="M 6336,13336 L 6336,20569 6093,20709 6093,13336 6336,13336 Z M 6093,7989 L 6093,6359 6336,6499 6336,7989 6093,7989 Z M 6336,8060 L 6336,13265 6093,13265 6093,8060 6336,8060 Z"/>
      <path fill="rgb(116,116,116)" stroke="none" d="M 6336,13265 L 6336,20569 6093,20709 6093,13265 6336,13265 Z M 6093,8060 L 6093,6359 6336,6499 6336,8060 6093,8060 Z M 6336,8130 L 6336,13195 6093,13195 6093,8130 6336,8130 Z"/>
      <path fill="rgb(117,117,117)" stroke="none" d="M 6336,13195 L 6336,20569 6093,20709 6093,13195 6336,13195 Z M 6093,8130 L 6093,6359 6336,6499 6336,8130 6093,8130 Z M 6336,8200 L 6336,13125 6093,13125 6093,8200 6336,8200 Z"/>
      <path fill="rgb(118,118,118)" stroke="none" d="M 6336,13125 L 6336,20569 6093,20709 6093,13125 6336,13125 Z M 6093,8200 L 6093,6359 6336,6499 6336,8200 6093,8200 Z M 6336,8271 L 6336,13054 6093,13054 6093,8271 6336,8271 Z"/>
      <path fill="rgb(119,119,119)" stroke="none" d="M 6336,13054 L 6336,20569 6093,20709 6093,13054 6336,13054 Z M 6093,8271 L 6093,6359 6336,6499 6336,8271 6093,8271 Z M 6336,8341 L 6336,12984 6093,12984 6093,8341 6336,8341 Z"/>
      <path fill="rgb(120,120,120)" stroke="none" d="M 6336,12984 L 6336,20569 6093,20709 6093,12984 6336,12984 Z M 6093,8341 L 6093,6359 6336,6499 6336,8341 6093,8341 Z M 6336,8412 L 6336,12913 6093,12913 6093,8412 6336,8412 Z"/>
      <path fill="rgb(121,121,121)" stroke="none" d="M 6336,12913 L 6336,20569 6093,20709 6093,12913 6336,12913 Z M 6093,8412 L 6093,6359 6336,6499 6336,8412 6093,8412 Z M 6336,8482 L 6336,12843 6093,12843 6093,8482 6336,8482 Z"/>
      <path fill="rgb(122,122,122)" stroke="none" d="M 6336,12843 L 6336,20569 6093,20709 6093,12843 6336,12843 Z M 6093,8482 L 6093,6359 6336,6499 6336,8482 6093,8482 Z M 6336,8552 L 6336,12773 6093,12773 6093,8552 6336,8552 Z"/>
      <path fill="rgb(123,123,123)" stroke="none" d="M 6336,12773 L 6336,20569 6093,20709 6093,12773 6336,12773 Z M 6093,8552 L 6093,6359 6336,6499 6336,8552 6093,8552 Z M 6336,8623 L 6336,12702 6093,12702 6093,8623 6336,8623 Z"/>
      <path fill="rgb(124,124,124)" stroke="none" d="M 6336,12702 L 6336,20569 6093,20709 6093,12702 6336,12702 Z M 6093,8623 L 6093,6359 6336,6499 6336,8623 6093,8623 Z M 6336,8693 L 6336,12632 6093,12632 6093,8693 6336,8693 Z"/>
      <path fill="rgb(125,125,125)" stroke="none" d="M 6336,12632 L 6336,20569 6093,20709 6093,12632 6336,12632 Z M 6093,8693 L 6093,6359 6336,6499 6336,8693 6093,8693 Z M 6336,8763 L 6336,12562 6093,12562 6093,8763 6336,8763 Z"/>
      <path fill="rgb(126,126,126)" stroke="none" d="M 6336,12562 L 6336,20569 6093,20709 6093,12562 6336,12562 Z M 6093,8763 L 6093,6359 6336,6499 6336,8763 6093,8763 Z M 6336,8834 L 6336,12491 6093,12491 6093,8834 6336,8834 Z"/>
      <path fill="rgb(127,127,127)" stroke="none" d="M 6336,12491 L 6336,20569 6093,20709 6093,12491 6336,12491 Z M 6093,8834 L 6093,6359 6336,6499 6336,8834 6093,8834 Z M 6336,8904 L 6336,12421 6093,12421 6093,8904 6336,8904 Z"/>
      <path fill="rgb(128,128,128)" stroke="none" d="M 6336,12421 L 6336,20569 6093,20709 6093,12421 6336,12421 Z M 6093,8904 L 6093,6359 6336,6499 6336,8904 6093,8904 Z M 6336,8974 L 6336,12351 6093,12351 6093,8974 6336,8974 Z"/>
      <path fill="rgb(129,129,129)" stroke="none" d="M 6336,12351 L 6336,20569 6093,20709 6093,12351 6336,12351 Z M 6093,8974 L 6093,6359 6336,6499 6336,8974 6093,8974 Z M 6336,9045 L 6336,12280 6093,12280 6093,9045 6336,9045 Z"/>
      <path fill="rgb(130,130,130)" stroke="none" d="M 6336,12280 L 6336,20569 6093,20709 6093,12280 6336,12280 Z M 6093,9045 L 6093,6359 6336,6499 6336,9045 6093,9045 Z M 6336,9115 L 6336,12210 6093,12210 6093,9115 6336,9115 Z"/>
      <path fill="rgb(131,131,131)" stroke="none" d="M 6336,12210 L 6336,20569 6093,20709 6093,12210 6336,12210 Z M 6093,9115 L 6093,6359 6336,6499 6336,9115 6093,9115 Z M 6336,9185 L 6336,12140 6093,12140 6093,9185 6336,9185 Z"/>
      <path fill="rgb(132,132,132)" stroke="none" d="M 6336,12140 L 6336,20569 6093,20709 6093,12140 6336,12140 Z M 6093,9185 L 6093,6359 6336,6499 6336,9185 6093,9185 Z M 6336,9256 L 6336,12069 6093,12069 6093,9256 6336,9256 Z"/>
      <path fill="rgb(133,133,133)" stroke="none" d="M 6336,12069 L 6336,20569 6093,20709 6093,12069 6336,12069 Z M 6093,9256 L 6093,6359 6336,6499 6336,9256 6093,9256 Z M 6336,9326 L 6336,11999 6093,11999 6093,9326 6336,9326 Z"/>
      <path fill="rgb(134,134,134)" stroke="none" d="M 6336,11999 L 6336,20569 6093,20709 6093,11999 6336,11999 Z M 6093,9326 L 6093,6359 6336,6499 6336,9326 6093,9326 Z M 6336,9397 L 6336,11928 6093,11928 6093,9397 6336,9397 Z"/>
      <path fill="rgb(135,135,135)" stroke="none" d="M 6336,11928 L 6336,20569 6093,20709 6093,11928 6336,11928 Z M 6093,9397 L 6093,6359 6336,6499 6336,9397 6093,9397 Z M 6336,9467 L 6336,11858 6093,11858 6093,9467 6336,9467 Z"/>
      <path fill="rgb(136,136,136)" stroke="none" d="M 6336,11858 L 6336,20569 6093,20709 6093,11858 6336,11858 Z M 6093,9467 L 6093,6359 6336,6499 6336,9467 6093,9467 Z M 6336,9537 L 6336,11788 6093,11788 6093,9537 6336,9537 Z"/>
      <path fill="rgb(137,137,137)" stroke="none" d="M 6336,11788 L 6336,20569 6093,20709 6093,11788 6336,11788 Z M 6093,9537 L 6093,6359 6336,6499 6336,9537 6093,9537 Z M 6336,9608 L 6336,11717 6093,11717 6093,9608 6336,9608 Z"/>
      <path fill="rgb(138,138,138)" stroke="none" d="M 6336,11717 L 6336,20569 6093,20709 6093,11717 6336,11717 Z M 6093,9608 L 6093,6359 6336,6499 6336,9608 6093,9608 Z M 6336,9678 L 6336,11647 6093,11647 6093,9678 6336,9678 Z"/>
      <path fill="rgb(139,139,139)" stroke="none" d="M 6336,11647 L 6336,20569 6093,20709 6093,11647 6336,11647 Z M 6093,9678 L 6093,6359 6336,6499 6336,9678 6093,9678 Z M 6336,9748 L 6336,11577 6093,11577 6093,9748 6336,9748 Z"/>
      <path fill="rgb(140,140,140)" stroke="none" d="M 6336,11577 L 6336,20569 6093,20709 6093,11577 6336,11577 Z M 6093,9748 L 6093,6359 6336,6499 6336,9748 6093,9748 Z M 6336,9819 L 6336,11506 6093,11506 6093,9819 6336,9819 Z"/>
      <path fill="rgb(141,141,141)" stroke="none" d="M 6336,11506 L 6336,20569 6093,20709 6093,11506 6336,11506 Z M 6093,9819 L 6093,6359 6336,6499 6336,9819 6093,9819 Z M 6336,9889 L 6336,11436 6093,11436 6093,9889 6336,9889 Z"/>
      <path fill="rgb(142,142,142)" stroke="none" d="M 6336,11436 L 6336,20569 6093,20709 6093,11436 6336,11436 Z M 6093,9889 L 6093,6359 6336,6499 6336,9889 6093,9889 Z M 6336,9959 L 6336,11366 6093,11366 6093,9959 6336,9959 Z"/>
      <path fill="rgb(143,143,143)" stroke="none" d="M 6336,11366 L 6336,20569 6093,20709 6093,11366 6336,11366 Z M 6093,9959 L 6093,6359 6336,6499 6336,9959 6093,9959 Z M 6336,10030 L 6336,11295 6093,11295 6093,10030 6336,10030 Z"/>
      <path fill="rgb(144,144,144)" stroke="none" d="M 6336,11295 L 6336,20569 6093,20709 6093,11295 6336,11295 Z M 6093,10030 L 6093,6359 6336,6499 6336,10030 6093,10030 Z M 6336,10100 L 6336,11225 6093,11225 6093,10100 6336,10100 Z"/>
      <path fill="rgb(145,145,145)" stroke="none" d="M 6336,11225 L 6336,20569 6093,20709 6093,11225 6336,11225 Z M 6093,10100 L 6093,6359 6336,6499 6336,10100 6093,10100 Z M 6336,10170 L 6336,11155 6093,11155 6093,10170 6336,10170 Z"/>
      <path fill="rgb(146,146,146)" stroke="none" d="M 6336,11155 L 6336,20569 6093,20709 6093,11155 6336,11155 Z M 6093,10170 L 6093,6359 6336,6499 6336,10170 6093,10170 Z M 6336,10241 L 6336,11084 6093,11084 6093,10241 6336,10241 Z"/>
      <path fill="rgb(147,147,147)" stroke="none" d="M 6336,11084 L 6336,20569 6093,20709 6093,11084 6336,11084 Z M 6093,10241 L 6093,6359 6336,6499 6336,10241 6093,10241 Z M 6336,10311 L 6336,11014 6093,11014 6093,10311 6336,10311 Z"/>
      <path fill="rgb(148,148,148)" stroke="none" d="M 6336,11014 L 6336,20569 6093,20709 6093,11014 6336,11014 Z M 6093,10311 L 6093,6359 6336,6499 6336,10311 6093,10311 Z M 6336,10382 L 6336,10943 6093,10943 6093,10382 6336,10382 Z"/>
      <path fill="rgb(149,149,149)" stroke="none" d="M 6336,10943 L 6336,20569 6093,20709 6093,10943 6336,10943 Z M 6093,10382 L 6093,6359 6336,6499 6336,10382 6093,10382 Z M 6336,10452 L 6336,10873 6093,10873 6093,10452 6336,10452 Z"/>
      <path fill="rgb(150,150,150)" stroke="none" d="M 6336,10873 L 6336,20569 6093,20709 6093,10873 6336,10873 Z M 6093,10452 L 6093,6359 6336,6499 6336,10452 6093,10452 Z M 6305,10522 L 6305,10803 6093,10803 6093,10522 6305,10522 Z"/>
      <path fill="rgb(151,151,151)" stroke="none" d="M 6305,10803 L 6305,10522 6093,10522 6093,6359 6336,6499 6336,20569 6093,20709 6093,10803 6305,10803 Z M 6095,10593 L 6234,10593 6234,10732 6095,10732 6095,10593 Z"/>
      <path fill="rgb(153,153,153)" stroke="none" d="M 6095,10593 L 6095,10732 6234,10732 6234,10593 6095,10593 Z M 6093,20709 L 6093,6359 6336,6499 6336,20569 6093,20709 Z"/>
      <path fill="none" stroke="rgb(178,178,178)" id="Drawing_20_0" stroke-width="40" stroke-linejoin="round" d="M 6093,20709 L 6093,6359 6336,6499 6336,20569 6093,20709 Z"/>
     </g>
     <g>
      <defs>
       <linearGradient id="Gradient_864" gradientUnits="userSpaceOnUse" x1="6090" y1="21721" x2="9247" y2="21727">
        <stop offset="0.1" stop-color="rgb(51,51,51)"/>
        <stop offset="1" stop-color="rgb(153,153,153)"/>
       </linearGradient>
      </defs>
      <path fill="url(#Gradient_864)" stroke="rgb(178,178,178)" id="Drawing_21_0" stroke-width="40" stroke-linejoin="round" d="M 6093,20919 L 6093,20709 9246,22529 9246,22739 6093,20919 Z"/>
     </g>
     <g>
      <defs>
       <linearGradient id="Gradient_865" gradientUnits="userSpaceOnUse" x1="6090" y1="21546" x2="9247" y2="21552">
        <stop offset="0.1" stop-color="rgb(51,51,51)"/>
        <stop offset="1" stop-color="rgb(153,153,153)"/>
       </linearGradient>
      </defs>
      <path fill="url(#Gradient_865)" stroke="rgb(178,178,178)" id="Drawing_22_0" stroke-width="40" stroke-linejoin="round" d="M 6093,20709 L 6336,20569 9246,22249 9246,22529 6093,20709 Z"/>
     </g>
     <g id="DrawingGroup_5">
      <g>
       <defs>
        <linearGradient id="Gradient_866" gradientUnits="userSpaceOnUse" x1="6333" y1="19726" x2="9248" y2="19732">
         <stop offset="0.1" stop-color="rgb(51,51,51)"/>
         <stop offset="1" stop-color="rgb(153,153,153)"/>
        </linearGradient>
       </defs>
       <path fill="url(#Gradient_866)" stroke="rgb(178,178,178)" id="Drawing_23_0" stroke-width="40" stroke-linejoin="round" d="M 6336,19449 L 6337,18329 9247,20009 9247,21129 6336,19449 Z"/>
      </g>
      <g>
       <path fill="none" stroke="rgb(153,153,153)" id="Drawing_24_0" stroke-width="40" stroke-linejoin="round" d="M 7063,18889 L 7063,19729"/>
      </g>
      <g>
       <path fill="none" stroke="rgb(178,178,178)" id="Drawing_25_0" stroke-width="40" stroke-linejoin="round" d="M 9003,20289 L 8033,19729 8033,19589"/>
      </g>
      <g>
       <path fill="none" stroke="rgb(102,102,102)" id="Drawing_26_0" stroke-width="40" stroke-linejoin="round" d="M 9003,20289 L 9003,20149 8033,19589"/>
      </g>
      <g>
       <path fill="rgb(153,255,102)" stroke="none" d="M 8882,20709 L 8882,20569 9003,20639 9003,20779 8882,20709 Z"/>
       <path fill="none" stroke="rgb(51,51,51)" id="Drawing_27_0" stroke-width="40" stroke-linejoin="round" d="M 8882,20709 L 8882,20569 9003,20639 9003,20779 8882,20709 Z"/>
      </g>
      <g>
       <path fill="none" stroke="rgb(153,153,153)" id="Drawing_28_0" stroke-width="40" stroke-linejoin="round" d="M 6942,18819 L 6942,19659"/>
      </g>
      <g>
       <path fill="none" stroke="rgb(153,153,153)" id="Drawing_29_0" stroke-width="40" stroke-linejoin="round" d="M 6821,18749 L 6821,19589"/>
      </g>
      <g>
       <path fill="none" stroke="rgb(153,153,153)" id="Drawing_30_0" stroke-width="40" stroke-linejoin="round" d="M 6700,18679 L 6700,19519"/>
      </g>
      <g>
       <path fill="none" stroke="rgb(153,153,153)" id="Drawing_31_0" stroke-width="40" stroke-linejoin="round" d="M 6578,18609 L 6578,19449"/>
      </g>
      <g>
       <path fill="none" stroke="rgb(153,153,153)" id="Drawing_32_0" stroke-width="40" stroke-linejoin="round" d="M 7185,19799 L 7185,18959"/>
      </g>
      <g>
       <path fill="none" stroke="rgb(153,153,153)" id="Drawing_33_0" stroke-width="40" stroke-linejoin="round" d="M 7548,19169 L 7548,20009"/>
      </g>
      <g>
       <path fill="none" stroke="rgb(153,153,153)" id="Drawing_34_0" stroke-width="40" stroke-linejoin="round" d="M 7427,19099 L 7427,19939"/>
      </g>
      <g>
       <path fill="none" stroke="rgb(153,153,153)" id="Drawing_35_0" stroke-width="40" stroke-linejoin="round" d="M 7306,19029 L 7306,19869"/>
      </g>
      <g>
       <path fill="none" stroke="rgb(153,153,153)" id="Drawing_36_0" stroke-width="40" stroke-linejoin="round" d="M 7670,20079 L 7670,19239"/>
      </g>
     </g>
     <g id="DrawingGroup_6">
      <g>
       <defs>
        <linearGradient id="Gradient_867" gradientUnits="userSpaceOnUse" x1="6333" y1="18606" x2="9248" y2="18612">
         <stop offset="0.1" stop-color="rgb(51,51,51)"/>
         <stop offset="1" stop-color="rgb(153,153,153)"/>
        </linearGradient>
       </defs>
       <path fill="url(#Gradient_867)" stroke="rgb(178,178,178)" id="Drawing_37_0" stroke-width="40" stroke-linejoin="round" d="M 6336,18329 L 6337,17209 9247,18889 9247,20009 6336,18329 Z"/>
      </g>
      <g>
       <path fill="none" stroke="rgb(153,153,153)" id="Drawing_38_0" stroke-width="40" stroke-linejoin="round" d="M 7063,17769 L 7063,18609"/>
      </g>
      <g>
       <path fill="none" stroke="rgb(178,178,178)" id="Drawing_39_0" stroke-width="40" stroke-linejoin="round" d="M 9003,19169 L 8033,18609 8033,18469"/>
      </g>
      <g>
       <path fill="none" stroke="rgb(102,102,102)" id="Drawing_40_0" stroke-width="40" stroke-linejoin="round" d="M 9003,19169 L 9003,19029 8033,18469"/>
      </g>
      <g>
       <path fill="rgb(153,255,102)" stroke="none" d="M 8882,19589 L 8882,19449 9003,19519 9003,19659 8882,19589 Z"/>
       <path fill="none" stroke="rgb(51,51,51)" id="Drawing_41_0" stroke-width="40" stroke-linejoin="round" d="M 8882,19589 L 8882,19449 9003,19519 9003,19659 8882,19589 Z"/>
      </g>
      <g>
       <path fill="none" stroke="rgb(153,153,153)" id="Drawing_42_0" stroke-width="40" stroke-linejoin="round" d="M 6942,17699 L 6942,18539"/>
      </g>
      <g>
       <path fill="none" stroke="rgb(153,153,153)" id="Drawing_43_0" stroke-width="40" stroke-linejoin="round" d="M 6821,17629 L 6821,18469"/>
      </g>
      <g>
       <path fill="none" stroke="rgb(153,153,153)" id="Drawing_44_0" stroke-width="40" stroke-linejoin="round" d="M 6700,17559 L 6700,18399"/>
      </g>
      <g>
       <path fill="none" stroke="rgb(153,153,153)" id="Drawing_45_0" stroke-width="40" stroke-linejoin="round" d="M 6578,17489 L 6578,18329"/>
      </g>
      <g>
       <path fill="none" stroke="rgb(153,153,153)" id="Drawing_46_0" stroke-width="40" stroke-linejoin="round" d="M 7185,18679 L 7185,17839"/>
      </g>
      <g>
       <path fill="none" stroke="rgb(153,153,153)" id="Drawing_47_0" stroke-width="40" stroke-linejoin="round" d="M 7548,18049 L 7548,18889"/>
      </g>
      <g>
       <path fill="none" stroke="rgb(153,153,153)" id="Drawing_48_0" stroke-width="40" stroke-linejoin="round" d="M 7427,17979 L 7427,18819"/>
      </g>
      <g>
       <path fill="none" stroke="rgb(153,153,153)" id="Drawing_49_0" stroke-width="40" stroke-linejoin="round" d="M 7306,17909 L 7306,18749"/>
      </g>
      <g>
       <path fill="none" stroke="rgb(153,153,153)" id="Drawing_50_0" stroke-width="40" stroke-linejoin="round" d="M 7670,18959 L 7670,18119"/>
      </g>
     </g>
     <g id="DrawingGroup_7">
      <g>
       <defs>
        <linearGradient id="Gradient_868" gradientUnits="userSpaceOnUse" x1="6333" y1="17486" x2="9248" y2="17492">
         <stop offset="0.1" stop-color="rgb(51,51,51)"/>
         <stop offset="1" stop-color="rgb(153,153,153)"/>
        </linearGradient>
       </defs>
       <path fill="url(#Gradient_868)" stroke="rgb(178,178,178)" id="Drawing_51_0" stroke-width="40" stroke-linejoin="round" d="M 6336,17209 L 6337,16089 9247,17769 9247,18889 6336,17209 Z"/>
      </g>
      <g>
       <path fill="none" stroke="rgb(153,153,153)" id="Drawing_52_0" stroke-width="40" stroke-linejoin="round" d="M 7063,16649 L 7063,17489"/>
      </g>
      <g>
       <path fill="none" stroke="rgb(178,178,178)" id="Drawing_53_0" stroke-width="40" stroke-linejoin="round" d="M 9003,18049 L 8033,17489 8033,17349"/>
      </g>
      <g>
       <path fill="none" stroke="rgb(102,102,102)" id="Drawing_54_0" stroke-width="40" stroke-linejoin="round" d="M 9003,18049 L 9003,17909 8033,17349"/>
      </g>
      <g>
       <path fill="rgb(153,255,102)" stroke="none" d="M 8882,18469 L 8882,18329 9003,18399 9003,18539 8882,18469 Z"/>
       <path fill="none" stroke="rgb(51,51,51)" id="Drawing_55_0" stroke-width="40" stroke-linejoin="round" d="M 8882,18469 L 8882,18329 9003,18399 9003,18539 8882,18469 Z"/>
      </g>
      <g>
       <path fill="none" stroke="rgb(153,153,153)" id="Drawing_56_0" stroke-width="40" stroke-linejoin="round" d="M 6942,16579 L 6942,17419"/>
      </g>
      <g>
       <path fill="none" stroke="rgb(153,153,153)" id="Drawing_57_0" stroke-width="40" stroke-linejoin="round" d="M 6821,16509 L 6821,17349"/>
      </g>
      <g>
       <path fill="none" stroke="rgb(153,153,153)" id="Drawing_58_0" stroke-width="40" stroke-linejoin="round" d="M 6700,16439 L 6700,17279"/>
      </g>
      <g>
       <path fill="none" stroke="rgb(153,153,153)" id="Drawing_59_0" stroke-width="40" stroke-linejoin="round" d="M 6578,16369 L 6578,17209"/>
      </g>
      <g>
       <path fill="none" stroke="rgb(153,153,153)" id="Drawing_60_0" stroke-width="40" stroke-linejoin="round" d="M 7185,17559 L 7185,16719"/>
      </g>
      <g>
       <path fill="none" stroke="rgb(153,153,153)" id="Drawing_61_0" stroke-width="40" stroke-linejoin="round" d="M 7548,16929 L 7548,17769"/>
      </g>
      <g>
       <path fill="none" stroke="rgb(153,153,153)" id="Drawing_62_0" stroke-width="40" stroke-linejoin="round" d="M 7427,16859 L 7427,17699"/>
      </g>
      <g>
       <path fill="none" stroke="rgb(153,153,153)" id="Drawing_63_0" stroke-width="40" stroke-linejoin="round" d="M 7306,16789 L 7306,17629"/>
      </g>
      <g>
       <path fill="none" stroke="rgb(153,153,153)" id="Drawing_64_0" stroke-width="40" stroke-linejoin="round" d="M 7670,17839 L 7670,16999"/>
      </g>
     </g>
     <g id="DrawingGroup_8">
      <g>
       <defs>
        <linearGradient id="Gradient_869" gradientUnits="userSpaceOnUse" x1="6333" y1="16366" x2="9248" y2="16372">
         <stop offset="0.1" stop-color="rgb(51,51,51)"/>
         <stop offset="1" stop-color="rgb(153,153,153)"/>
        </linearGradient>
       </defs>
       <path fill="url(#Gradient_869)" stroke="rgb(178,178,178)" id="Drawing_65_0" stroke-width="40" stroke-linejoin="round" d="M 6336,16089 L 6337,14969 9247,16649 9247,17769 6336,16089 Z"/>
      </g>
      <g>
       <path fill="none" stroke="rgb(153,153,153)" id="Drawing_66_0" stroke-width="40" stroke-linejoin="round" d="M 7063,15529 L 7063,16369"/>
      </g>
      <g>
       <path fill="none" stroke="rgb(178,178,178)" id="Drawing_67_0" stroke-width="40" stroke-linejoin="round" d="M 9003,16929 L 8033,16369 8033,16229"/>
      </g>
      <g>
       <path fill="none" stroke="rgb(102,102,102)" id="Drawing_68_0" stroke-width="40" stroke-linejoin="round" d="M 9003,16929 L 9003,16789 8033,16229"/>
      </g>
      <g>
       <path fill="rgb(153,255,102)" stroke="none" d="M 8882,17349 L 8882,17209 9003,17279 9003,17419 8882,17349 Z"/>
       <path fill="none" stroke="rgb(51,51,51)" id="Drawing_69_0" stroke-width="40" stroke-linejoin="round" d="M 8882,17349 L 8882,17209 9003,17279 9003,17419 8882,17349 Z"/>
      </g>
      <g>
       <path fill="none" stroke="rgb(153,153,153)" id="Drawing_70_0" stroke-width="40" stroke-linejoin="round" d="M 6942,15459 L 6942,16299"/>
      </g>
      <g>
       <path fill="none" stroke="rgb(153,153,153)" id="Drawing_71_0" stroke-width="40" stroke-linejoin="round" d="M 6821,15389 L 6821,16229"/>
      </g>
      <g>
       <path fill="none" stroke="rgb(153,153,153)" id="Drawing_72_0" stroke-width="40" stroke-linejoin="round" d="M 6700,15319 L 6700,16159"/>
      </g>
      <g>
       <path fill="none" stroke="rgb(153,153,153)" id="Drawing_73_0" stroke-width="40" stroke-linejoin="round" d="M 6578,15249 L 6578,16089"/>
      </g>
      <g>
       <path fill="none" stroke="rgb(153,153,153)" id="Drawing_74_0" stroke-width="40" stroke-linejoin="round" d="M 7185,16439 L 7185,15599"/>
      </g>
      <g>
       <path fill="none" stroke="rgb(153,153,153)" id="Drawing_75_0" stroke-width="40" stroke-linejoin="round" d="M 7548,15809 L 7548,16649"/>
      </g>
      <g>
       <path fill="none" stroke="rgb(153,153,153)" id="Drawing_76_0" stroke-width="40" stroke-linejoin="round" d="M 7427,15739 L 7427,16579"/>
      </g>
      <g>
       <path fill="none" stroke="rgb(153,153,153)" id="Drawing_77_0" stroke-width="40" stroke-linejoin="round" d="M 7306,15669 L 7306,16509"/>
      </g>
      <g>
       <path fill="none" stroke="rgb(153,153,153)" id="Drawing_78_0" stroke-width="40" stroke-linejoin="round" d="M 7670,16719 L 7670,15879"/>
      </g>
     </g>
     <g id="DrawingGroup_9">
      <g>
       <defs>
        <linearGradient id="Gradient_870" gradientUnits="userSpaceOnUse" x1="6333" y1="15246" x2="9248" y2="15252">
         <stop offset="0.1" stop-color="rgb(51,51,51)"/>
         <stop offset="1" stop-color="rgb(153,153,153)"/>
        </linearGradient>
       </defs>
       <path fill="url(#Gradient_870)" stroke="rgb(178,178,178)" id="Drawing_79_0" stroke-width="40" stroke-linejoin="round" d="M 6336,14969 L 6337,13849 9247,15529 9247,16649 6336,14969 Z"/>
      </g>
      <g>
       <path fill="none" stroke="rgb(153,153,153)" id="Drawing_80_0" stroke-width="40" stroke-linejoin="round" d="M 7063,14409 L 7063,15249"/>
      </g>
      <g>
       <path fill="none" stroke="rgb(178,178,178)" id="Drawing_81_0" stroke-width="40" stroke-linejoin="round" d="M 9003,15809 L 8033,15249 8033,15109"/>
      </g>
      <g>
       <path fill="none" stroke="rgb(102,102,102)" id="Drawing_82_0" stroke-width="40" stroke-linejoin="round" d="M 9003,15809 L 9003,15669 8033,15109"/>
      </g>
      <g>
       <path fill="rgb(153,255,102)" stroke="none" d="M 8882,16229 L 8882,16089 9003,16159 9003,16299 8882,16229 Z"/>
       <path fill="none" stroke="rgb(51,51,51)" id="Drawing_83_0" stroke-width="40" stroke-linejoin="round" d="M 8882,16229 L 8882,16089 9003,16159 9003,16299 8882,16229 Z"/>
      </g>
      <g>
       <path fill="none" stroke="rgb(153,153,153)" id="Drawing_84_0" stroke-width="40" stroke-linejoin="round" d="M 6942,14339 L 6942,15179"/>
      </g>
      <g>
       <path fill="none" stroke="rgb(153,153,153)" id="Drawing_85_0" stroke-width="40" stroke-linejoin="round" d="M 6821,14269 L 6821,15109"/>
      </g>
      <g>
       <path fill="none" stroke="rgb(153,153,153)" id="Drawing_86_0" stroke-width="40" stroke-linejoin="round" d="M 6700,14199 L 6700,15039"/>
      </g>
      <g>
       <path fill="none" stroke="rgb(153,153,153)" id="Drawing_87_0" stroke-width="40" stroke-linejoin="round" d="M 6578,14129 L 6578,14969"/>
      </g>
      <g>
       <path fill="none" stroke="rgb(153,153,153)" id="Drawing_88_0" stroke-width="40" stroke-linejoin="round" d="M 7185,15319 L 7185,14479"/>
      </g>
      <g>
       <path fill="none" stroke="rgb(153,153,153)" id="Drawing_89_0" stroke-width="40" stroke-linejoin="round" d="M 7548,14689 L 7548,15529"/>
      </g>
      <g>
       <path fill="none" stroke="rgb(153,153,153)" id="Drawing_90_0" stroke-width="40" stroke-linejoin="round" d="M 7427,14619 L 7427,15459"/>
      </g>
      <g>
       <path fill="none" stroke="rgb(153,153,153)" id="Drawing_91_0" stroke-width="40" stroke-linejoin="round" d="M 7306,14549 L 7306,15389"/>
      </g>
      <g>
       <path fill="none" stroke="rgb(153,153,153)" id="Drawing_92_0" stroke-width="40" stroke-linejoin="round" d="M 7670,15599 L 7670,14759"/>
      </g>
     </g>
     <g id="DrawingGroup_10">
      <g>
       <defs>
        <linearGradient id="Gradient_871" gradientUnits="userSpaceOnUse" x1="6333" y1="14126" x2="9248" y2="14132">
         <stop offset="0.1" stop-color="rgb(51,51,51)"/>
         <stop offset="1" stop-color="rgb(153,153,153)"/>
        </linearGradient>
       </defs>
       <path fill="url(#Gradient_871)" stroke="rgb(178,178,178)" id="Drawing_93_0" stroke-width="40" stroke-linejoin="round" d="M 6336,13849 L 6337,12729 9247,14409 9247,15529 6336,13849 Z"/>
      </g>
      <g>
       <path fill="none" stroke="rgb(153,153,153)" id="Drawing_94_0" stroke-width="40" stroke-linejoin="round" d="M 7063,13289 L 7063,14129"/>
      </g>
      <g>
       <path fill="none" stroke="rgb(178,178,178)" id="Drawing_95_0" stroke-width="40" stroke-linejoin="round" d="M 9003,14689 L 8033,14129 8033,13989"/>
      </g>
      <g>
       <path fill="none" stroke="rgb(102,102,102)" id="Drawing_96_0" stroke-width="40" stroke-linejoin="round" d="M 9003,14689 L 9003,14549 8033,13989"/>
      </g>
      <g>
       <path fill="rgb(153,255,102)" stroke="none" d="M 8882,15109 L 8882,14969 9003,15039 9003,15179 8882,15109 Z"/>
       <path fill="none" stroke="rgb(51,51,51)" id="Drawing_97_0" stroke-width="40" stroke-linejoin="round" d="M 8882,15109 L 8882,14969 9003,15039 9003,15179 8882,15109 Z"/>
      </g>
      <g>
       <path fill="none" stroke="rgb(153,153,153)" id="Drawing_98_0" stroke-width="40" stroke-linejoin="round" d="M 6942,13219 L 6942,14059"/>
      </g>
      <g>
       <path fill="none" stroke="rgb(153,153,153)" id="Drawing_99_0" stroke-width="40" stroke-linejoin="round" d="M 6821,13149 L 6821,13989"/>
      </g>
      <g>
       <path fill="none" stroke="rgb(153,153,153)" id="Drawing_100_0" stroke-width="40" stroke-linejoin="round" d="M 6700,13079 L 6700,13919"/>
      </g>
      <g>
       <path fill="none" stroke="rgb(153,153,153)" id="Drawing_101_0" stroke-width="40" stroke-linejoin="round" d="M 6578,13009 L 6578,13849"/>
      </g>
      <g>
       <path fill="none" stroke="rgb(153,153,153)" id="Drawing_102_0" stroke-width="40" stroke-linejoin="round" d="M 7185,14199 L 7185,13359"/>
      </g>
      <g>
       <path fill="none" stroke="rgb(153,153,153)" id="Drawing_103_0" stroke-width="40" stroke-linejoin="round" d="M 7548,13569 L 7548,14409"/>
      </g>
      <g>
       <path fill="none" stroke="rgb(153,153,153)" id="Drawing_104_0" stroke-width="40" stroke-linejoin="round" d="M 7427,13499 L 7427,14339"/>
      </g>
      <g>
       <path fill="none" stroke="rgb(153,153,153)" id="Drawing_105_0" stroke-width="40" stroke-linejoin="round" d="M 7306,13429 L 7306,14269"/>
      </g>
      <g>
       <path fill="none" stroke="rgb(153,153,153)" id="Drawing_106_0" stroke-width="40" stroke-linejoin="round" d="M 7670,14479 L 7670,13639"/>
      </g>
     </g>
     <g id="DrawingGroup_11">
      <g>
       <defs>
        <linearGradient id="Gradient_872" gradientUnits="userSpaceOnUse" x1="6333" y1="13006" x2="9248" y2="13012">
         <stop offset="0.1" stop-color="rgb(51,51,51)"/>
         <stop offset="1" stop-color="rgb(153,153,153)"/>
        </linearGradient>
       </defs>
       <path fill="url(#Gradient_872)" stroke="rgb(178,178,178)" id="Drawing_107_0" stroke-width="40" stroke-linejoin="round" d="M 6336,12729 L 6337,11609 9247,13289 9247,14409 6336,12729 Z"/>
      </g>
      <g>
       <path fill="none" stroke="rgb(153,153,153)" id="Drawing_108_0" stroke-width="40" stroke-linejoin="round" d="M 7063,12169 L 7063,13009"/>
      </g>
      <g>
       <path fill="none" stroke="rgb(178,178,178)" id="Drawing_109_0" stroke-width="40" stroke-linejoin="round" d="M 9003,13569 L 8033,13009 8033,12869"/>
      </g>
      <g>
       <path fill="none" stroke="rgb(102,102,102)" id="Drawing_110_0" stroke-width="40" stroke-linejoin="round" d="M 9003,13569 L 9003,13429 8033,12869"/>
      </g>
      <g>
       <path fill="rgb(153,255,102)" stroke="none" d="M 8882,13989 L 8882,13849 9003,13919 9003,14059 8882,13989 Z"/>
       <path fill="none" stroke="rgb(51,51,51)" id="Drawing_111_0" stroke-width="40" stroke-linejoin="round" d="M 8882,13989 L 8882,13849 9003,13919 9003,14059 8882,13989 Z"/>
      </g>
      <g>
       <path fill="none" stroke="rgb(153,153,153)" id="Drawing_112_0" stroke-width="40" stroke-linejoin="round" d="M 6942,12099 L 6942,12939"/>
      </g>
      <g>
       <path fill="none" stroke="rgb(153,153,153)" id="Drawing_113_0" stroke-width="40" stroke-linejoin="round" d="M 6821,12029 L 6821,12869"/>
      </g>
      <g>
       <path fill="none" stroke="rgb(153,153,153)" id="Drawing_114_0" stroke-width="40" stroke-linejoin="round" d="M 6700,11959 L 6700,12799"/>
      </g>
      <g>
       <path fill="none" stroke="rgb(153,153,153)" id="Drawing_115_0" stroke-width="40" stroke-linejoin="round" d="M 6578,11889 L 6578,12729"/>
      </g>
      <g>
       <path fill="none" stroke="rgb(153,153,153)" id="Drawing_116_0" stroke-width="40" stroke-linejoin="round" d="M 7185,13079 L 7185,12239"/>
      </g>
      <g>
       <path fill="none" stroke="rgb(153,153,153)" id="Drawing_117_0" stroke-width="40" stroke-linejoin="round" d="M 7548,12449 L 7548,13289"/>
      </g>
      <g>
       <path fill="none" stroke="rgb(153,153,153)" id="Drawing_118_0" stroke-width="40" stroke-linejoin="round" d="M 7427,12379 L 7427,13219"/>
      </g>
      <g>
       <path fill="none" stroke="rgb(153,153,153)" id="Drawing_119_0" stroke-width="40" stroke-linejoin="round" d="M 7306,12309 L 7306,13149"/>
      </g>
      <g>
       <path fill="none" stroke="rgb(153,153,153)" id="Drawing_120_0" stroke-width="40" stroke-linejoin="round" d="M 7670,13359 L 7670,12519"/>
      </g>
     </g>
     <g id="DrawingGroup_12">
      <g>
       <defs>
        <linearGradient id="Gradient_873" gradientUnits="userSpaceOnUse" x1="6332" y1="11886" x2="9247" y2="11892">
         <stop offset="0.1" stop-color="rgb(51,51,51)"/>
         <stop offset="1" stop-color="rgb(153,153,153)"/>
        </linearGradient>
       </defs>
       <path fill="url(#Gradient_873)" stroke="rgb(178,178,178)" id="Drawing_121_0" stroke-width="40" stroke-linejoin="round" d="M 6335,11609 L 6336,10489 9246,12169 9246,13289 6335,11609 Z"/>
      </g>
      <g>
       <path fill="none" stroke="rgb(153,153,153)" id="Drawing_122_0" stroke-width="40" stroke-linejoin="round" d="M 7062,11049 L 7062,11889"/>
      </g>
      <g>
       <path fill="none" stroke="rgb(178,178,178)" id="Drawing_123_0" stroke-width="40" stroke-linejoin="round" d="M 9002,12449 L 8032,11889 8032,11749"/>
      </g>
      <g>
       <path fill="none" stroke="rgb(102,102,102)" id="Drawing_124_0" stroke-width="40" stroke-linejoin="round" d="M 9002,12449 L 9002,12309 8032,11749"/>
      </g>
      <g>
       <path fill="rgb(153,255,102)" stroke="none" d="M 8881,12869 L 8881,12729 9002,12799 9002,12939 8881,12869 Z"/>
       <path fill="none" stroke="rgb(51,51,51)" id="Drawing_125_0" stroke-width="40" stroke-linejoin="round" d="M 8881,12869 L 8881,12729 9002,12799 9002,12939 8881,12869 Z"/>
      </g>
      <g>
       <path fill="none" stroke="rgb(153,153,153)" id="Drawing_126_0" stroke-width="40" stroke-linejoin="round" d="M 6941,10979 L 6941,11819"/>
      </g>
      <g>
       <path fill="none" stroke="rgb(153,153,153)" id="Drawing_127_0" stroke-width="40" stroke-linejoin="round" d="M 6820,10909 L 6820,11749"/>
      </g>
      <g>
       <path fill="none" stroke="rgb(153,153,153)" id="Drawing_128_0" stroke-width="40" stroke-linejoin="round" d="M 6699,10839 L 6699,11679"/>
      </g>
      <g>
       <path fill="none" stroke="rgb(153,153,153)" id="Drawing_129_0" stroke-width="40" stroke-linejoin="round" d="M 6577,10769 L 6577,11609"/>
      </g>
      <g>
       <path fill="none" stroke="rgb(153,153,153)" id="Drawing_130_0" stroke-width="40" stroke-linejoin="round" d="M 7184,11959 L 7184,11119"/>
      </g>
      <g>
       <path fill="none" stroke="rgb(153,153,153)" id="Drawing_131_0" stroke-width="40" stroke-linejoin="round" d="M 7547,11329 L 7547,12169"/>
      </g>
      <g>
       <path fill="none" stroke="rgb(153,153,153)" id="Drawing_132_0" stroke-width="40" stroke-linejoin="round" d="M 7426,11259 L 7426,12099"/>
      </g>
      <g>
       <path fill="none" stroke="rgb(153,153,153)" id="Drawing_133_0" stroke-width="40" stroke-linejoin="round" d="M 7305,11189 L 7305,12029"/>
      </g>
      <g>
       <path fill="none" stroke="rgb(153,153,153)" id="Drawing_134_0" stroke-width="40" stroke-linejoin="round" d="M 7669,12239 L 7669,11399"/>
      </g>
     </g>
     <g id="DrawingGroup_13">
      <g>
       <defs>
        <linearGradient id="Gradient_874" gradientUnits="userSpaceOnUse" x1="6332" y1="10766" x2="9247" y2="10772">
         <stop offset="0.1" stop-color="rgb(51,51,51)"/>
         <stop offset="1" stop-color="rgb(153,153,153)"/>
        </linearGradient>
       </defs>
       <path fill="url(#Gradient_874)" stroke="rgb(178,178,178)" id="Drawing_135_0" stroke-width="40" stroke-linejoin="round" d="M 6335,10489 L 6336,9369 9246,11049 9246,12169 6335,10489 Z"/>
      </g>
      <g>
       <path fill="none" stroke="rgb(153,153,153)" id="Drawing_136_0" stroke-width="40" stroke-linejoin="round" d="M 7062,9929 L 7062,10769"/>
      </g>
      <g>
       <path fill="none" stroke="rgb(178,178,178)" id="Drawing_137_0" stroke-width="40" stroke-linejoin="round" d="M 9002,11329 L 8032,10769 8032,10629"/>
      </g>
      <g>
       <path fill="none" stroke="rgb(102,102,102)" id="Drawing_138_0" stroke-width="40" stroke-linejoin="round" d="M 9002,11329 L 9002,11189 8032,10629"/>
      </g>
      <g>
       <path fill="rgb(153,255,102)" stroke="none" d="M 8881,11749 L 8881,11609 9002,11679 9002,11819 8881,11749 Z"/>
       <path fill="none" stroke="rgb(51,51,51)" id="Drawing_139_0" stroke-width="40" stroke-linejoin="round" d="M 8881,11749 L 8881,11609 9002,11679 9002,11819 8881,11749 Z"/>
      </g>
      <g>
       <path fill="none" stroke="rgb(153,153,153)" id="Drawing_140_0" stroke-width="40" stroke-linejoin="round" d="M 6941,9859 L 6941,10699"/>
      </g>
      <g>
       <path fill="none" stroke="rgb(153,153,153)" id="Drawing_141_0" stroke-width="40" stroke-linejoin="round" d="M 6820,9789 L 6820,10629"/>
      </g>
      <g>
       <path fill="none" stroke="rgb(153,153,153)" id="Drawing_142_0" stroke-width="40" stroke-linejoin="round" d="M 6699,9719 L 6699,10559"/>
      </g>
      <g>
       <path fill="none" stroke="rgb(153,153,153)" id="Drawing_143_0" stroke-width="40" stroke-linejoin="round" d="M 6577,9649 L 6577,10489"/>
      </g>
      <g>
       <path fill="none" stroke="rgb(153,153,153)" id="Drawing_144_0" stroke-width="40" stroke-linejoin="round" d="M 7184,10839 L 7184,9999"/>
      </g>
      <g>
       <path fill="none" stroke="rgb(153,153,153)" id="Drawing_145_0" stroke-width="40" stroke-linejoin="round" d="M 7547,10209 L 7547,11049"/>
      </g>
      <g>
       <path fill="none" stroke="rgb(153,153,153)" id="Drawing_146_0" stroke-width="40" stroke-linejoin="round" d="M 7426,10139 L 7426,10979"/>
      </g>
      <g>
       <path fill="none" stroke="rgb(153,153,153)" id="Drawing_147_0" stroke-width="40" stroke-linejoin="round" d="M 7305,10069 L 7305,10909"/>
      </g>
      <g>
       <path fill="none" stroke="rgb(153,153,153)" id="Drawing_148_0" stroke-width="40" stroke-linejoin="round" d="M 7669,11119 L 7669,10279"/>
      </g>
     </g>
     <g id="DrawingGroup_14">
      <g>
       <defs>
        <linearGradient id="Gradient_875" gradientUnits="userSpaceOnUse" x1="6332" y1="9646" x2="9247" y2="9652">
         <stop offset="0.1" stop-color="rgb(51,51,51)"/>
         <stop offset="1" stop-color="rgb(153,153,153)"/>
        </linearGradient>
       </defs>
       <path fill="url(#Gradient_875)" stroke="rgb(178,178,178)" id="Drawing_149_0" stroke-width="40" stroke-linejoin="round" d="M 6335,9369 L 6336,8249 9246,9929 9246,11049 6335,9369 Z"/>
      </g>
      <g>
       <path fill="none" stroke="rgb(153,153,153)" id="Drawing_150_0" stroke-width="40" stroke-linejoin="round" d="M 7062,8809 L 7062,9649"/>
      </g>
      <g>
       <path fill="none" stroke="rgb(178,178,178)" id="Drawing_151_0" stroke-width="40" stroke-linejoin="round" d="M 9002,10209 L 8032,9649 8032,9509"/>
      </g>
      <g>
       <path fill="none" stroke="rgb(102,102,102)" id="Drawing_152_0" stroke-width="40" stroke-linejoin="round" d="M 9002,10209 L 9002,10069 8032,9509"/>
      </g>
      <g>
       <path fill="rgb(153,255,102)" stroke="none" d="M 8881,10629 L 8881,10489 9002,10559 9002,10699 8881,10629 Z"/>
       <path fill="none" stroke="rgb(51,51,51)" id="Drawing_153_0" stroke-width="40" stroke-linejoin="round" d="M 8881,10629 L 8881,10489 9002,10559 9002,10699 8881,10629 Z"/>
      </g>
      <g>
       <path fill="none" stroke="rgb(153,153,153)" id="Drawing_154_0" stroke-width="40" stroke-linejoin="round" d="M 6941,8739 L 6941,9579"/>
      </g>
      <g>
       <path fill="none" stroke="rgb(153,153,153)" id="Drawing_155_0" stroke-width="40" stroke-linejoin="round" d="M 6820,8669 L 6820,9509"/>
      </g>
      <g>
       <path fill="none" stroke="rgb(153,153,153)" id="Drawing_156_0" stroke-width="40" stroke-linejoin="round" d="M 6699,8599 L 6699,9439"/>
      </g>
      <g>
       <path fill="none" stroke="rgb(153,153,153)" id="Drawing_157_0" stroke-width="40" stroke-linejoin="round" d="M 6577,8529 L 6577,9369"/>
      </g>
      <g>
       <path fill="none" stroke="rgb(153,153,153)" id="Drawing_158_0" stroke-width="40" stroke-linejoin="round" d="M 7184,9719 L 7184,8879"/>
      </g>
      <g>
       <path fill="none" stroke="rgb(153,153,153)" id="Drawing_159_0" stroke-width="40" stroke-linejoin="round" d="M 7547,9089 L 7547,9929"/>
      </g>
      <g>
       <path fill="none" stroke="rgb(153,153,153)" id="Drawing_160_0" stroke-width="40" stroke-linejoin="round" d="M 7426,9019 L 7426,9859"/>
      </g>
      <g>
       <path fill="none" stroke="rgb(153,153,153)" id="Drawing_161_0" stroke-width="40" stroke-linejoin="round" d="M 7305,8949 L 7305,9789"/>
      </g>
      <g>
       <path fill="none" stroke="rgb(153,153,153)" id="Drawing_162_0" stroke-width="40" stroke-linejoin="round" d="M 7669,9999 L 7669,9159"/>
      </g>
     </g>
     <g id="DrawingGroup_15">
      <g>
       <defs>
        <linearGradient id="Gradient_876" gradientUnits="userSpaceOnUse" x1="6332" y1="8526" x2="9247" y2="8532">
         <stop offset="0.1" stop-color="rgb(51,51,51)"/>
         <stop offset="1" stop-color="rgb(153,153,153)"/>
        </linearGradient>
       </defs>
       <path fill="url(#Gradient_876)" stroke="rgb(178,178,178)" id="Drawing_163_0" stroke-width="40" stroke-linejoin="round" d="M 6335,8249 L 6336,7129 9246,8809 9246,9929 6335,8249 Z"/>
      </g>
      <g>
       <path fill="none" stroke="rgb(153,153,153)" id="Drawing_164_0" stroke-width="40" stroke-linejoin="round" d="M 7062,7689 L 7062,8529"/>
      </g>
      <g>
       <path fill="none" stroke="rgb(178,178,178)" id="Drawing_165_0" stroke-width="40" stroke-linejoin="round" d="M 9002,9089 L 8032,8529 8032,8389"/>
      </g>
      <g>
       <path fill="none" stroke="rgb(102,102,102)" id="Drawing_166_0" stroke-width="40" stroke-linejoin="round" d="M 9002,9089 L 9002,8949 8032,8389"/>
      </g>
      <g>
       <path fill="rgb(153,255,102)" stroke="none" d="M 8881,9509 L 8881,9369 9002,9439 9002,9579 8881,9509 Z"/>
       <path fill="none" stroke="rgb(51,51,51)" id="Drawing_167_0" stroke-width="40" stroke-linejoin="round" d="M 8881,9509 L 8881,9369 9002,9439 9002,9579 8881,9509 Z"/>
      </g>
      <g>
       <path fill="none" stroke="rgb(153,153,153)" id="Drawing_168_0" stroke-width="40" stroke-linejoin="round" d="M 6941,7619 L 6941,8459"/>
      </g>
      <g>
       <path fill="none" stroke="rgb(153,153,153)" id="Drawing_169_0" stroke-width="40" stroke-linejoin="round" d="M 6820,7549 L 6820,8389"/>
      </g>
      <g>
       <path fill="none" stroke="rgb(153,153,153)" id="Drawing_170_0" stroke-width="40" stroke-linejoin="round" d="M 6699,7479 L 6699,8319"/>
      </g>
      <g>
       <path fill="none" stroke="rgb(153,153,153)" id="Drawing_171_0" stroke-width="40" stroke-linejoin="round" d="M 6577,7409 L 6577,8249"/>
      </g>
      <g>
       <path fill="none" stroke="rgb(153,153,153)" id="Drawing_172_0" stroke-width="40" stroke-linejoin="round" d="M 7184,8599 L 7184,7759"/>
      </g>
      <g>
       <path fill="none" stroke="rgb(153,153,153)" id="Drawing_173_0" stroke-width="40" stroke-linejoin="round" d="M 7547,7969 L 7547,8809"/>
      </g>
      <g>
       <path fill="none" stroke="rgb(153,153,153)" id="Drawing_174_0" stroke-width="40" stroke-linejoin="round" d="M 7426,7899 L 7426,8739"/>
      </g>
      <g>
       <path fill="none" stroke="rgb(153,153,153)" id="Drawing_175_0" stroke-width="40" stroke-linejoin="round" d="M 7305,7829 L 7305,8669"/>
      </g>
      <g>
       <path fill="none" stroke="rgb(153,153,153)" id="Drawing_176_0" stroke-width="40" stroke-linejoin="round" d="M 7669,8879 L 7669,8039"/>
      </g>
     </g>
     <g>
      <defs>
       <linearGradient id="Gradient_877" gradientUnits="userSpaceOnUse" x1="6090" y1="7686" x2="9247" y2="7692">
        <stop offset="0.1" stop-color="rgb(51,51,51)"/>
        <stop offset="1" stop-color="rgb(153,153,153)"/>
       </linearGradient>
      </defs>
      <path fill="url(#Gradient_877)" stroke="rgb(178,178,178)" id="Drawing_177_0" stroke-width="40" stroke-linejoin="round" d="M 6093,7199 L 6093,6359 9246,8179 9246,9019 6093,7199 Z"/>
     </g>
     <g>
      <path fill="none" stroke="rgb(0,0,0)" id="Drawing_178_0" stroke-width="40" stroke-linejoin="round" d="M 5730,20709 L 5730,6149 9610,3909 13490,6149 13490,20709 9610,22949 5730,20709 Z"/>
     </g>
    </g>
    <g id="DrawingGroup_16">
     <g>
      <path fill="none" stroke="rgb(153,153,153)" id="Drawing_179_0" stroke-width="40" stroke-linejoin="round" d="M 7670,5589 L 8640,6149 7670,6709 6700,6149 7670,5589 Z"/>
     </g>
     <g>
      <path fill="none" stroke="rgb(153,153,153)" id="Drawing_180_0" stroke-width="40" stroke-linejoin="round" d="M 7063,5939 L 8033,6499"/>
     </g>
     <g>
      <path fill="none" stroke="rgb(153,153,153)" id="Drawing_181_0" stroke-width="40" stroke-linejoin="round" d="M 6941,6009 L 7912,6569"/>
     </g>
     <g>
      <path fill="none" stroke="rgb(153,153,153)" id="Drawing_182_0" stroke-width="40" stroke-linejoin="round" d="M 6821,6079 L 7791,6639"/>
     </g>
     <g>
      <path fill="none" stroke="rgb(153,153,153)" id="Drawing_183_0" stroke-width="40" stroke-linejoin="round" d="M 7548,5659 L 8518,6219"/>
     </g>
     <g>
      <path fill="none" stroke="rgb(153,153,153)" id="Drawing_184_0" stroke-width="40" stroke-linejoin="round" d="M 7426,5729 L 8397,6289"/>
     </g>
     <g>
      <path fill="none" stroke="rgb(153,153,153)" id="Drawing_185_0" stroke-width="40" stroke-linejoin="round" d="M 7306,5799 L 8276,6359"/>
     </g>
     <g>
      <path fill="none" stroke="rgb(153,153,153)" id="Drawing_186_0" stroke-width="40" stroke-linejoin="round" d="M 7185,5869 L 8155,6429"/>
     </g>
    </g>
    <g id="DrawingGroup_17">
     <g>
      <path fill="none" stroke="rgb(153,153,153)" id="Drawing_187_0" stroke-width="40" stroke-linejoin="round" d="M 9610,4469 L 10580,5029 9610,5589 8640,5029 9610,4469 Z"/>
     </g>
     <g>
      <path fill="none" stroke="rgb(153,153,153)" id="Drawing_188_0" stroke-width="40" stroke-linejoin="round" d="M 9003,4819 L 9973,5379"/>
     </g>
     <g>
      <path fill="none" stroke="rgb(153,153,153)" id="Drawing_189_0" stroke-width="40" stroke-linejoin="round" d="M 8881,4889 L 9852,5449"/>
     </g>
     <g>
      <path fill="none" stroke="rgb(153,153,153)" id="Drawing_190_0" stroke-width="40" stroke-linejoin="round" d="M 8761,4959 L 9731,5519"/>
     </g>
     <g>
      <path fill="none" stroke="rgb(153,153,153)" id="Drawing_191_0" stroke-width="40" stroke-linejoin="round" d="M 9488,4539 L 10458,5099"/>
     </g>
     <g>
      <path fill="none" stroke="rgb(153,153,153)" id="Drawing_192_0" stroke-width="40" stroke-linejoin="round" d="M 9366,4609 L 10337,5169"/>
     </g>
     <g>
      <path fill="none" stroke="rgb(153,153,153)" id="Drawing_193_0" stroke-width="40" stroke-linejoin="round" d="M 9246,4679 L 10216,5239"/>
     </g>
     <g>
      <path fill="none" stroke="rgb(153,153,153)" id="Drawing_194_0" stroke-width="40" stroke-linejoin="round" d="M 9125,4749 L 10095,5309"/>
     </g>
    </g>
    <g id="DrawingGroup_18">
     <g>
      <path fill="none" stroke="rgb(153,153,153)" id="Drawing_195_0" stroke-width="40" stroke-linejoin="round" d="M 9610,6709 L 10580,7269 9610,7829 8640,7269 9610,6709 Z"/>
     </g>
     <g>
      <path fill="none" stroke="rgb(153,153,153)" id="Drawing_196_0" stroke-width="40" stroke-linejoin="round" d="M 9003,7059 L 9973,7619"/>
     </g>
     <g>
      <path fill="none" stroke="rgb(153,153,153)" id="Drawing_197_0" stroke-width="40" stroke-linejoin="round" d="M 8881,7129 L 9852,7689"/>
     </g>
     <g>
      <path fill="none" stroke="rgb(153,153,153)" id="Drawing_198_0" stroke-width="40" stroke-linejoin="round" d="M 8761,7199 L 9731,7759"/>
     </g>
     <g>
      <path fill="none" stroke="rgb(153,153,153)" id="Drawing_199_0" stroke-width="40" stroke-linejoin="round" d="M 9488,6779 L 10458,7339"/>
     </g>
     <g>
      <path fill="none" stroke="rgb(153,153,153)" id="Drawing_200_0" stroke-width="40" stroke-linejoin="round" d="M 9366,6849 L 10337,7409"/>
     </g>
     <g>
      <path fill="none" stroke="rgb(153,153,153)" id="Drawing_201_0" stroke-width="40" stroke-linejoin="round" d="M 9246,6919 L 10216,7479"/>
     </g>
     <g>
      <path fill="none" stroke="rgb(153,153,153)" id="Drawing_202_0" stroke-width="40" stroke-linejoin="round" d="M 9125,6989 L 10095,7549"/>
     </g>
    </g>
    <g id="DrawingGroup_19">
     <g>
      <path fill="none" stroke="rgb(153,153,153)" id="Drawing_203_0" stroke-width="40" stroke-linejoin="round" d="M 11550,5589 L 12520,6149 11550,6709 10580,6149 11550,5589 Z"/>
     </g>
     <g>
      <path fill="none" stroke="rgb(153,153,153)" id="Drawing_204_0" stroke-width="40" stroke-linejoin="round" d="M 10943,5939 L 11913,6499"/>
     </g>
     <g>
      <path fill="none" stroke="rgb(153,153,153)" id="Drawing_205_0" stroke-width="40" stroke-linejoin="round" d="M 10821,6009 L 11792,6569"/>
     </g>
     <g>
      <path fill="none" stroke="rgb(153,153,153)" id="Drawing_206_0" stroke-width="40" stroke-linejoin="round" d="M 10701,6079 L 11671,6639"/>
     </g>
     <g>
      <path fill="none" stroke="rgb(153,153,153)" id="Drawing_207_0" stroke-width="40" stroke-linejoin="round" d="M 11428,5659 L 12398,6219"/>
     </g>
     <g>
      <path fill="none" stroke="rgb(153,153,153)" id="Drawing_208_0" stroke-width="40" stroke-linejoin="round" d="M 11306,5729 L 12277,6289"/>
     </g>
     <g>
      <path fill="none" stroke="rgb(153,153,153)" id="Drawing_209_0" stroke-width="40" stroke-linejoin="round" d="M 11186,5799 L 12156,6359"/>
     </g>
     <g>
      <path fill="none" stroke="rgb(153,153,153)" id="Drawing_210_0" stroke-width="40" stroke-linejoin="round" d="M 11065,5869 L 12035,6429"/>
     </g>
    </g>
   </g>
  </g>
 </g>
</svg>