<?xml version="1.0" encoding="UTF-8"?>

<svg version="1.2" baseProfile="tiny" width="37.79mm" height="30.43mm" viewBox="4588 1660 3779 3043" preserveAspectRatio="xMidYMid" fill-rule="evenodd" stroke-width="28.222" stroke-linejoin="round" xmlns="http://www.w3.org/2000/svg" xmlns:xlink="http://www.w3.org/1999/xlink" xml:space="preserve">
 <g visibility="visible" id="Slide_1">
  <g id="DrawingGroup_1">
   <g>
    <path fill="rgb(221,221,221)" stroke="none" d="M 6266,4683 C 6569,4683 8366,4108 8366,3852 8366,3597 8145,3405 7924,3405 7924,3597 6266,4363 6266,4683 Z"/>
    <path fill="none" stroke="rgb(221,221,221)" id="Drawing_1_0" stroke-linejoin="round" d="M 6266,4683 C 6569,4683 8366,4108 8366,3852 8366,3597 8145,3405 7924,3405 7924,3597 6266,4363 6266,4683 Z"/>
   </g>
   <g id="DrawingGroup_2">
    <g>
     <defs>
      <linearGradient id="Gradient_1041" gradientUnits="userSpaceOnUse" x1="4606" y1="3595" x2="6268" y2="3597">
       <stop offset="0.1" stop-color="rgb(179,179,179)"/>
       <stop offset="1" stop-color="rgb(229,229,229)"/>
      </linearGradient>
     </defs>
     <path fill="url(#Gradient_1041)" stroke="rgb(255,255,255)" id="Drawing_2_0" stroke-width="40" stroke-linejoin="round" d="M 4608,3596 L 4608,2638 6266,3596 6266,4555 4608,3596 Z"/>
    </g>
    <g>
     <path fill="rgb(179,179,179)" stroke="none" d="M 7702,3724 L 6963,4152 6266,4152 6266,3596 7702,2766 7702,3724 Z"/>
     <path fill="rgb(180,180,180)" stroke="none" d="M 6963,4152 L 6266,4555 6266,4152 6963,4152 Z M 7702,2766 L 7924,2638 7924,3596 7702,3724 7702,2766 Z M 7683,3735 L 6996,4133 6266,4133 6266,3596 7683,2777 7683,3735 Z"/>
     <path fill="rgb(181,181,181)" stroke="none" d="M 6996,4133 L 6266,4555 6266,4133 6996,4133 Z M 7683,2777 L 7924,2638 7924,3596 7683,3735 7683,2777 Z M 7664,3746 L 7028,4114 6266,4114 6266,3596 7664,2788 7664,3746 Z"/>
     <path fill="rgb(182,182,182)" stroke="none" d="M 7028,4114 L 6266,4555 6266,4114 7028,4114 Z M 7664,2788 L 7924,2638 7924,3596 7664,3746 7664,2788 Z M 7645,3757 L 7061,4095 6266,4095 6266,3596 7645,2799 7645,3757 Z"/>
     <path fill="rgb(183,183,183)" stroke="none" d="M 7061,4095 L 6266,4555 6266,4095 7061,4095 Z M 7645,2799 L 7924,2638 7924,3596 7645,3757 7645,2799 Z M 7625,3769 L 7096,4075 6266,4075 6266,3596 7625,2811 7625,3769 Z"/>
     <path fill="rgb(184,184,184)" stroke="none" d="M 7096,4075 L 6266,4555 6266,4075 7096,4075 Z M 7625,2811 L 7924,2638 7924,3596 7625,3769 7625,2811 Z M 7606,3780 L 7129,4056 6266,4056 6266,3596 7606,2822 7606,3780 Z"/>
     <path fill="rgb(185,185,185)" stroke="none" d="M 7129,4056 L 6266,4555 6266,4056 7129,4056 Z M 7606,2822 L 7924,2638 7924,3596 7606,3780 7606,2822 Z M 7587,3791 L 7162,4037 6266,4037 6266,3596 7587,2833 7587,3791 Z"/>
     <path fill="rgb(186,186,186)" stroke="none" d="M 7162,4037 L 6266,4555 6266,4037 7162,4037 Z M 7587,2833 L 7924,2638 7924,3596 7587,3791 7587,2833 Z M 7568,3802 L 7194,4018 6266,4018 6266,3596 7568,2844 7568,3802 Z"/>
     <path fill="rgb(187,187,187)" stroke="none" d="M 7194,4018 L 6266,4555 6266,4018 7194,4018 Z M 7568,2844 L 7924,2638 7924,3596 7568,3802 7568,2844 Z M 7549,3813 L 7227,3999 6266,3999 6266,3596 7549,2855 7549,3813 Z"/>
     <path fill="rgb(188,188,188)" stroke="none" d="M 7227,3999 L 6266,4555 6266,3999 7227,3999 Z M 7549,2855 L 7924,2638 7924,3596 7549,3813 7549,2855 Z M 7529,3824 L 7262,3979 6266,3979 6266,3596 7529,2866 7529,3824 Z"/>
     <path fill="rgb(189,189,189)" stroke="none" d="M 7262,3979 L 6266,4555 6266,3979 7262,3979 Z M 7529,2866 L 7924,2638 7924,3596 7529,3824 7529,2866 Z M 7510,3835 L 7295,3960 6266,3960 6266,3596 7510,2877 7510,3835 Z"/>
     <path fill="rgb(190,190,190)" stroke="none" d="M 7295,3960 L 6266,4555 6266,3960 7295,3960 Z M 7510,2877 L 7924,2638 7924,3596 7510,3835 7510,2877 Z M 7491,3846 L 7328,3941 6266,3941 6266,3596 7491,2888 7491,3846 Z"/>
     <path fill="rgb(191,191,191)" stroke="none" d="M 7328,3941 L 6266,4555 6266,3941 7328,3941 Z M 7491,2888 L 7924,2638 7924,3596 7491,3846 7491,2888 Z M 7472,3857 L 7360,3922 6266,3922 6266,3596 7472,2899 7472,3857 Z"/>
     <path fill="rgb(192,192,192)" stroke="none" d="M 7360,3922 L 6266,4555 6266,3922 7360,3922 Z M 7472,2899 L 7924,2638 7924,3596 7472,3857 7472,2899 Z M 7453,3868 L 7393,3903 6266,3903 6266,3596 7453,2910 7453,3868 Z"/>
     <path fill="rgb(193,193,193)" stroke="none" d="M 7393,3903 L 6266,4555 6266,3903 7393,3903 Z M 7453,2910 L 7924,2638 7924,3596 7453,3868 7453,2910 Z M 7433,3880 L 7428,3883 6266,3883 6266,3596 7433,2922 7433,3880 Z"/>
     <path fill="rgb(194,194,194)" stroke="none" d="M 7428,3883 L 6266,4555 6266,3883 7428,3883 Z M 7433,2922 L 7924,2638 7924,3596 7433,3880 7433,2922 Z M 7414,3864 L 6266,3864 6266,3596 7414,2933 7414,3864 Z"/>
     <path fill="rgb(195,195,195)" stroke="none" d="M 7414,3864 L 7414,2933 7924,2638 7924,3596 6266,4555 6266,3864 7414,3864 Z M 7395,3845 L 6266,3845 6266,3596 7395,2944 7395,3845 Z"/>
     <path fill="rgb(196,196,196)" stroke="none" d="M 7395,3845 L 7395,2944 7924,2638 7924,3596 6266,4555 6266,3845 7395,3845 Z M 7376,3826 L 6266,3826 6266,3596 7376,2955 7376,3826 Z"/>
     <path fill="rgb(197,197,197)" stroke="none" d="M 7376,3826 L 7376,2955 7924,2638 7924,3596 6266,4555 6266,3826 7376,3826 Z M 7357,3807 L 6266,3807 6266,3596 7357,2966 7357,3807 Z"/>
     <path fill="rgb(198,198,198)" stroke="none" d="M 7357,3807 L 7357,2966 7924,2638 7924,3596 6266,4555 6266,3807 7357,3807 Z M 7337,3787 L 6266,3787 6266,3596 7337,2977 7337,3787 Z"/>
     <path fill="rgb(199,199,199)" stroke="none" d="M 7337,3787 L 7337,2977 7924,2638 7924,3596 6266,4555 6266,3787 7337,3787 Z M 7318,3768 L 6266,3768 6266,3596 7318,2988 7318,3768 Z"/>
     <path fill="rgb(200,200,200)" stroke="none" d="M 7318,3768 L 7318,2988 7924,2638 7924,3596 6266,4555 6266,3768 7318,3768 Z M 7299,3749 L 6266,3749 6266,3596 7299,2999 7299,3749 Z"/>
     <path fill="rgb(201,201,201)" stroke="none" d="M 7299,3749 L 7299,2999 7924,2638 7924,3596 6266,4555 6266,3749 7299,3749 Z M 7280,3730 L 6266,3730 6266,3596 7280,3010 7280,3730 Z"/>
     <path fill="rgb(202,202,202)" stroke="none" d="M 7280,3730 L 7280,3010 7924,2638 7924,3596 6266,4555 6266,3730 7280,3730 Z M 7261,3711 L 6266,3711 6266,3596 7261,3021 7261,3711 Z"/>
     <path fill="rgb(203,203,203)" stroke="none" d="M 7261,3711 L 7261,3021 7924,2638 7924,3596 6266,4555 6266,3711 7261,3711 Z M 7241,3691 L 6282,3691 6282,3587 7241,3033 7241,3691 Z"/>
     <path fill="rgb(204,204,204)" stroke="none" d="M 6282,3691 L 7241,3691 7241,3033 7924,2638 7924,3596 6266,4555 6266,3596 6282,3587 6282,3691 Z M 7222,3672 L 6302,3672 6302,3575 7222,3044 7222,3672 Z"/>
     <path fill="rgb(205,205,205)" stroke="none" d="M 6302,3672 L 7222,3672 7222,3044 7924,2638 7924,3596 6266,4555 6266,3596 6302,3575 6302,3672 Z M 7203,3653 L 6321,3653 6321,3564 7203,3055 7203,3653 Z"/>
     <path fill="rgb(206,206,206)" stroke="none" d="M 6321,3653 L 7203,3653 7203,3055 7924,2638 7924,3596 6266,4555 6266,3596 6321,3564 6321,3653 Z M 7184,3634 L 6340,3634 6340,3553 7184,3066 7184,3634 Z"/>
     <path fill="rgb(207,207,207)" stroke="none" d="M 6340,3634 L 7184,3634 7184,3066 7924,2638 7924,3596 6266,4555 6266,3596 6340,3553 6340,3634 Z M 7165,3615 L 6359,3615 6359,3542 7165,3077 7165,3615 Z"/>
     <path fill="rgb(208,208,208)" stroke="none" d="M 6359,3615 L 7165,3615 7165,3077 7924,2638 7924,3596 6266,4555 6266,3596 6359,3542 6359,3615 Z M 7145,3595 L 6378,3595 6378,3531 7145,3088 7145,3595 Z"/>
     <path fill="rgb(209,209,209)" stroke="none" d="M 6378,3595 L 7145,3595 7145,3088 7924,2638 7924,3596 6266,4555 6266,3596 6378,3531 6378,3595 Z M 7126,3576 L 6398,3576 6398,3520 7126,3099 7126,3576 Z"/>
     <path fill="rgb(210,210,210)" stroke="none" d="M 6398,3576 L 7126,3576 7126,3099 7924,2638 7924,3596 6266,4555 6266,3596 6398,3520 6398,3576 Z M 7107,3557 L 6417,3557 6417,3509 7107,3110 7107,3557 Z"/>
     <path fill="rgb(211,211,211)" stroke="none" d="M 6417,3557 L 7107,3557 7107,3110 7924,2638 7924,3596 6266,4555 6266,3596 6417,3509 6417,3557 Z M 7088,3538 L 6436,3538 6436,3498 7088,3121 7088,3538 Z"/>
     <path fill="rgb(212,212,212)" stroke="none" d="M 6436,3538 L 7088,3538 7088,3121 7924,2638 7924,3596 6266,4555 6266,3596 6436,3498 6436,3538 Z M 7069,3519 L 6455,3519 6455,3487 7069,3132 7069,3519 Z"/>
     <path fill="rgb(213,213,213)" stroke="none" d="M 6455,3519 L 7069,3519 7069,3132 7924,2638 7924,3596 6266,4555 6266,3596 6455,3487 6455,3519 Z M 7049,3499 L 6474,3499 6474,3476 7049,3144 7049,3499 Z"/>
     <path fill="rgb(214,214,214)" stroke="none" d="M 6474,3499 L 7049,3499 7049,3144 7924,2638 7924,3596 6266,4555 6266,3596 6474,3476 6474,3499 Z M 7030,3480 L 6494,3480 6494,3464 7030,3155 7030,3480 Z"/>
     <path fill="rgb(215,215,215)" stroke="none" d="M 6494,3480 L 7030,3480 7030,3155 7924,2638 7924,3596 6266,4555 6266,3596 6494,3464 6494,3480 Z M 7011,3461 L 6513,3461 6513,3453 7011,3166 7011,3461 Z"/>
     <path fill="rgb(216,216,216)" stroke="none" d="M 6513,3461 L 7011,3461 7011,3166 7924,2638 7924,3596 6266,4555 6266,3596 6513,3453 6513,3461 Z M 6992,3442 L 6533,3442 6992,3177 6992,3442 Z"/>
     <path fill="rgb(217,217,217)" stroke="none" d="M 6992,3442 L 6992,3177 7924,2638 7924,3596 6266,4555 6266,3596 6533,3442 6992,3442 Z M 6973,3423 L 6565,3423 6973,3187 6973,3423 Z"/>
     <path fill="rgb(218,218,218)" stroke="none" d="M 6973,3423 L 6973,3187 7924,2638 7924,3596 6266,4555 6266,3596 6565,3423 6973,3423 Z M 6953,3403 L 6600,3403 6953,3199 6953,3403 Z"/>
     <path fill="rgb(219,219,219)" stroke="none" d="M 6953,3403 L 6953,3199 7924,2638 7924,3596 6266,4555 6266,3596 6600,3403 6953,3403 Z M 6934,3384 L 6633,3384 6934,3210 6934,3384 Z"/>
     <path fill="rgb(220,220,220)" stroke="none" d="M 6934,3384 L 6934,3210 7924,2638 7924,3596 6266,4555 6266,3596 6633,3384 6934,3384 Z M 6915,3365 L 6666,3365 6915,3221 6915,3365 Z"/>
     <path fill="rgb(221,221,221)" stroke="none" d="M 6915,3365 L 6915,3221 7924,2638 7924,3596 6266,4555 6266,3596 6666,3365 6915,3365 Z M 6896,3346 L 6699,3346 6896,3232 6896,3346 Z"/>
     <path fill="rgb(222,222,222)" stroke="none" d="M 6896,3346 L 6896,3232 7924,2638 7924,3596 6266,4555 6266,3596 6699,3346 6896,3346 Z M 6877,3327 L 6732,3327 6877,3243 6877,3327 Z"/>
     <path fill="rgb(223,223,223)" stroke="none" d="M 6877,3327 L 6877,3243 7924,2638 7924,3596 6266,4555 6266,3596 6732,3327 6877,3327 Z M 6857,3307 L 6766,3307 6857,3255 6857,3307 Z"/>
     <path fill="rgb(224,224,224)" stroke="none" d="M 6857,3307 L 6857,3255 7924,2638 7924,3596 6266,4555 6266,3596 6766,3307 6857,3307 Z M 6838,3288 L 6799,3288 6838,3265 6838,3288 Z"/>
     <path fill="rgb(225,225,225)" stroke="none" d="M 6838,3288 L 6838,3265 7924,2638 7924,3596 6266,4555 6266,3596 6799,3288 6838,3288 Z"/>
     <path fill="rgb(226,226,226)" stroke="none" d="M 6266,4555 L 6266,3596 7924,2638 7924,3596 6266,4555 Z"/>
     <path fill="rgb(227,227,227)" stroke="none" d="M 6266,4555 L 6266,3596 7924,2638 7924,3596 6266,4555 Z"/>
     <path fill="rgb(229,229,229)" stroke="none" d="M 6266,4555 L 6266,3596 7924,2638 7924,3596 6266,4555 Z"/>
     <path fill="none" stroke="rgb(255,255,255)" id="Drawing_3_0" stroke-width="40" stroke-linejoin="round" d="M 6266,4555 L 6266,3596 7924,2638 7924,3596 6266,4555 Z"/>
    </g>
    <g>
     <defs>
      <linearGradient id="Gradient_1042" gradientUnits="userSpaceOnUse" x1="6266" y1="1680" x2="6266" y2="3597">
       <stop offset="0.1" stop-color="rgb(179,179,179)"/>
       <stop offset="1" stop-color="rgb(229,229,229)"/>
      </linearGradient>
     </defs>
     <path fill="url(#Gradient_1042)" stroke="rgb(255,255,255)" id="Drawing_4_0" stroke-width="40" stroke-linejoin="round" d="M 6266,3597 L 4608,2638 6266,1680 7924,2638 6266,3597 Z"/>
    </g>
    <g>
     <path fill="rgb(57,181,74)" stroke="none" d="M 5954,3864 L 5954,3672 6065,3736 6065,3928 5954,3864 Z"/>
     <path fill="none" stroke="rgb(127,127,127)" id="Drawing_5_0" stroke-width="40" stroke-linejoin="round" d="M 5954,3864 L 5954,3672 6065,3736 6065,3928 5954,3864 Z"/>
    </g>
    <g>
     <defs>
      <linearGradient id="Gradient_1043" gradientUnits="userSpaceOnUse" x1="5824" y1="4490" x2="6266" y2="4490">
       <stop offset="0.1" stop-color="rgb(179,179,179)"/>
       <stop offset="1" stop-color="rgb(229,229,229)"/>
      </linearGradient>
     </defs>
     <path fill="url(#Gradient_1043)" stroke="rgb(255,255,255)" id="Drawing_6_0" stroke-width="40" stroke-linejoin="round" d="M 5824,4427 L 5824,4299 6266,4555 6266,4682 5824,4427 Z"/>
    </g>
    <g>
     <defs>
      <linearGradient id="Gradient_1044" gradientUnits="userSpaceOnUse" x1="4608" y1="3788" x2="5050" y2="3788">
       <stop offset="0.1" stop-color="rgb(179,179,179)"/>
       <stop offset="1" stop-color="rgb(229,229,229)"/>
      </linearGradient>
     </defs>
     <path fill="url(#Gradient_1044)" stroke="rgb(255,255,255)" id="Drawing_7_0" stroke-width="40" stroke-linejoin="round" d="M 4608,3725 L 4608,3597 5050,3853 5050,3980 4608,3725 Z"/>
    </g>
    <g>
     <path fill="rgb(179,179,179)" stroke="none" d="M 6614,4481 L 6358,4629 6266,4629 6266,4555 6614,4353 6614,4481 Z"/>
     <path fill="rgb(180,180,180)" stroke="none" d="M 6358,4629 L 6266,4682 6266,4629 6358,4629 Z M 6614,4353 L 6708,4299 6708,4427 6614,4481 6614,4353 Z M 6609,4484 L 6367,4624 6266,4624 6266,4555 6609,4356 6609,4484 Z"/>
     <path fill="rgb(181,181,181)" stroke="none" d="M 6367,4624 L 6266,4682 6266,4624 6367,4624 Z M 6609,4356 L 6708,4299 6708,4427 6609,4484 6609,4356 Z M 6604,4487 L 6375,4619 6266,4619 6266,4555 6604,4359 6604,4487 Z"/>
     <path fill="rgb(182,182,182)" stroke="none" d="M 6375,4619 L 6266,4682 6266,4619 6375,4619 Z M 6604,4359 L 6708,4299 6708,4427 6604,4487 6604,4359 Z M 6599,4490 L 6384,4614 6266,4614 6266,4555 6599,4362 6599,4490 Z"/>
     <path fill="rgb(183,183,183)" stroke="none" d="M 6384,4614 L 6266,4682 6266,4614 6384,4614 Z M 6599,4362 L 6708,4299 6708,4427 6599,4490 6599,4362 Z M 6594,4493 L 6393,4609 6266,4609 6266,4555 6594,4365 6594,4493 Z"/>
     <path fill="rgb(184,184,184)" stroke="none" d="M 6393,4609 L 6266,4682 6266,4609 6393,4609 Z M 6594,4365 L 6708,4299 6708,4427 6594,4493 6594,4365 Z M 6589,4496 L 6401,4604 6266,4604 6266,4555 6589,4368 6589,4496 Z"/>
     <path fill="rgb(185,185,185)" stroke="none" d="M 6401,4604 L 6266,4682 6266,4604 6401,4604 Z M 6589,4368 L 6708,4299 6708,4427 6589,4496 6589,4368 Z M 6584,4499 L 6410,4599 6266,4599 6266,4555 6584,4371 6584,4499 Z"/>
     <path fill="rgb(186,186,186)" stroke="none" d="M 6410,4599 L 6266,4682 6266,4599 6410,4599 Z M 6584,4371 L 6708,4299 6708,4427 6584,4499 6584,4371 Z M 6579,4501 L 6419,4594 6266,4594 6266,4555 6579,4374 6579,4501 Z"/>
     <path fill="rgb(188,188,188)" stroke="none" d="M 6419,4594 L 6266,4682 6266,4594 6419,4594 Z M 6579,4374 L 6708,4299 6708,4427 6579,4501 6579,4374 Z M 6574,4504 L 6427,4589 6266,4589 6266,4555 6574,4377 6574,4504 Z"/>
     <path fill="rgb(189,189,189)" stroke="none" d="M 6427,4589 L 6266,4682 6266,4589 6427,4589 Z M 6574,4377 L 6708,4299 6708,4427 6574,4504 6574,4377 Z M 6569,4507 L 6436,4584 6266,4584 6266,4555 6569,4380 6569,4507 Z"/>
     <path fill="rgb(190,190,190)" stroke="none" d="M 6436,4584 L 6266,4682 6266,4584 6436,4584 Z M 6569,4380 L 6708,4299 6708,4427 6569,4507 6569,4380 Z M 6564,4510 L 6445,4579 6266,4579 6266,4555 6564,4382 6564,4510 Z"/>
     <path fill="rgb(191,191,191)" stroke="none" d="M 6445,4579 L 6266,4682 6266,4579 6445,4579 Z M 6564,4382 L 6708,4299 6708,4427 6564,4510 6564,4382 Z M 6559,4513 L 6453,4574 6266,4574 6266,4555 6559,4385 6559,4513 Z"/>
     <path fill="rgb(192,192,192)" stroke="none" d="M 6453,4574 L 6266,4682 6266,4574 6453,4574 Z M 6559,4385 L 6708,4299 6708,4427 6559,4513 6559,4385 Z M 6554,4516 L 6462,4569 6266,4569 6266,4555 6554,4388 6554,4516 Z"/>
     <path fill="rgb(193,193,193)" stroke="none" d="M 6462,4569 L 6266,4682 6266,4569 6462,4569 Z M 6554,4388 L 6708,4299 6708,4427 6554,4516 6554,4388 Z M 6549,4519 L 6471,4564 6266,4564 6266,4555 6549,4391 6549,4519 Z"/>
     <path fill="rgb(194,194,194)" stroke="none" d="M 6471,4564 L 6266,4682 6266,4564 6471,4564 Z M 6549,4391 L 6708,4299 6708,4427 6549,4519 6549,4391 Z M 6544,4522 L 6479,4559 6266,4559 6266,4555 6544,4394 6544,4522 Z"/>
     <path fill="rgb(196,196,196)" stroke="none" d="M 6479,4559 L 6266,4682 6266,4559 6479,4559 Z M 6544,4394 L 6708,4299 6708,4427 6544,4522 6544,4394 Z M 6539,4525 L 6488,4554 6268,4554 6539,4397 6539,4525 Z"/>
     <path fill="rgb(197,197,197)" stroke="none" d="M 6488,4554 L 6266,4682 6266,4555 6268,4554 6488,4554 Z M 6539,4397 L 6708,4299 6708,4427 6539,4525 6539,4397 Z M 6534,4527 L 6497,4549 6276,4549 6534,4400 6534,4527 Z"/>
     <path fill="rgb(198,198,198)" stroke="none" d="M 6497,4549 L 6266,4682 6266,4555 6276,4549 6497,4549 Z M 6534,4400 L 6708,4299 6708,4427 6534,4527 6534,4400 Z M 6528,4531 L 6507,4543 6287,4543 6528,4403 6528,4531 Z"/>
     <path fill="rgb(199,199,199)" stroke="none" d="M 6507,4543 L 6266,4682 6266,4555 6287,4543 6507,4543 Z M 6528,4403 L 6708,4299 6708,4427 6528,4531 6528,4403 Z M 6523,4534 L 6516,4538 6295,4538 6523,4406 6523,4534 Z"/>
     <path fill="rgb(200,200,200)" stroke="none" d="M 6516,4538 L 6266,4682 6266,4555 6295,4538 6516,4538 Z M 6523,4406 L 6708,4299 6708,4427 6523,4534 6523,4406 Z M 6518,4533 L 6304,4533 6518,4409 6518,4533 Z"/>
     <path fill="rgb(201,201,201)" stroke="none" d="M 6518,4533 L 6518,4409 6708,4299 6708,4427 6266,4682 6266,4555 6304,4533 6518,4533 Z M 6513,4528 L 6313,4528 6513,4412 6513,4528 Z"/>
     <path fill="rgb(202,202,202)" stroke="none" d="M 6513,4528 L 6513,4412 6708,4299 6708,4427 6266,4682 6266,4555 6313,4528 6513,4528 Z M 6508,4523 L 6321,4523 6508,4415 6508,4523 Z"/>
     <path fill="rgb(204,204,204)" stroke="none" d="M 6508,4523 L 6508,4415 6708,4299 6708,4427 6266,4682 6266,4555 6321,4523 6508,4523 Z M 6503,4518 L 6330,4518 6503,4418 6503,4518 Z"/>
     <path fill="rgb(205,205,205)" stroke="none" d="M 6503,4518 L 6503,4418 6708,4299 6708,4427 6266,4682 6266,4555 6330,4518 6503,4518 Z M 6498,4513 L 6339,4513 6498,4421 6498,4513 Z"/>
     <path fill="rgb(206,206,206)" stroke="none" d="M 6498,4513 L 6498,4421 6708,4299 6708,4427 6266,4682 6266,4555 6339,4513 6498,4513 Z M 6493,4508 L 6347,4508 6493,4424 6493,4508 Z"/>
     <path fill="rgb(207,207,207)" stroke="none" d="M 6493,4508 L 6493,4424 6708,4299 6708,4427 6266,4682 6266,4555 6347,4508 6493,4508 Z M 6488,4503 L 6356,4503 6488,4426 6488,4503 Z"/>
     <path fill="rgb(208,208,208)" stroke="none" d="M 6488,4503 L 6488,4426 6708,4299 6708,4427 6266,4682 6266,4555 6356,4503 6488,4503 Z M 6483,4498 L 6364,4498 6483,4429 6483,4498 Z"/>
     <path fill="rgb(209,209,209)" stroke="none" d="M 6483,4498 L 6483,4429 6708,4299 6708,4427 6266,4682 6266,4555 6364,4498 6483,4498 Z M 6478,4493 L 6373,4493 6478,4432 6478,4493 Z"/>
     <path fill="rgb(210,210,210)" stroke="none" d="M 6478,4493 L 6478,4432 6708,4299 6708,4427 6266,4682 6266,4555 6373,4493 6478,4493 Z M 6473,4488 L 6382,4488 6473,4435 6473,4488 Z"/>
     <path fill="rgb(211,211,211)" stroke="none" d="M 6473,4488 L 6473,4435 6708,4299 6708,4427 6266,4682 6266,4555 6382,4488 6473,4488 Z M 6468,4483 L 6390,4483 6468,4438 6468,4483 Z"/>
     <path fill="rgb(213,213,213)" stroke="none" d="M 6468,4483 L 6468,4438 6708,4299 6708,4427 6266,4682 6266,4555 6390,4483 6468,4483 Z M 6463,4478 L 6399,4478 6463,4441 6463,4478 Z"/>
     <path fill="rgb(214,214,214)" stroke="none" d="M 6463,4478 L 6463,4441 6708,4299 6708,4427 6266,4682 6266,4555 6399,4478 6463,4478 Z M 6458,4473 L 6408,4473 6458,4444 6458,4473 Z"/>
     <path fill="rgb(215,215,215)" stroke="none" d="M 6458,4473 L 6458,4444 6708,4299 6708,4427 6266,4682 6266,4555 6408,4473 6458,4473 Z M 6453,4468 L 6416,4468 6453,4447 6453,4468 Z"/>
     <path fill="rgb(216,216,216)" stroke="none" d="M 6453,4468 L 6453,4447 6708,4299 6708,4427 6266,4682 6266,4555 6416,4468 6453,4468 Z M 6448,4463 L 6425,4463 6448,4450 6448,4463 Z"/>
     <path fill="rgb(217,217,217)" stroke="none" d="M 6448,4463 L 6448,4450 6708,4299 6708,4427 6266,4682 6266,4555 6425,4463 6448,4463 Z M 6443,4458 L 6433,4458 6443,4452 6443,4458 Z"/>
     <path fill="rgb(218,218,218)" stroke="none" d="M 6443,4458 L 6443,4452 6708,4299 6708,4427 6266,4682 6266,4555 6433,4458 6443,4458 Z"/>
     <path fill="rgb(219,219,219)" stroke="none" d="M 6266,4682 L 6266,4555 6708,4299 6708,4427 6266,4682 Z"/>
     <path fill="rgb(221,221,221)" stroke="none" d="M 6266,4682 L 6266,4555 6708,4299 6708,4427 6266,4682 Z"/>
     <path fill="rgb(222,222,222)" stroke="none" d="M 6266,4682 L 6266,4555 6708,4299 6708,4427 6266,4682 Z"/>
     <path fill="rgb(223,223,223)" stroke="none" d="M 6266,4682 L 6266,4555 6708,4299 6708,4427 6266,4682 Z"/>
     <path fill="rgb(224,224,224)" stroke="none" d="M 6266,4682 L 6266,4555 6708,4299 6708,4427 6266,4682 Z"/>
     <path fill="rgb(225,225,225)" stroke="none" d="M 6266,4682 L 6266,4555 6708,4299 6708,4427 6266,4682 Z"/>
     <path fill="rgb(226,226,226)" stroke="none" d="M 6266,4682 L 6266,4555 6708,4299 6708,4427 6266,4682 Z"/>
     <path fill="rgb(229,229,229)" stroke="none" d="M 6266,4682 L 6266,4555 6708,4299 6708,4427 6266,4682 Z"/>
     <path fill="none" stroke="rgb(255,255,255)" id="Drawing_8_0" stroke-width="40" stroke-linejoin="round" d="M 6266,4682 L 6266,4555 6708,4299 6708,4427 6266,4682 Z"/>
    </g>
    <g>
     <path fill="rgb(179,179,179)" stroke="none" d="M 7830,3779 L 7574,3927 7482,3927 7482,3853 7830,3651 7830,3779 Z"/>
     <path fill="rgb(180,180,180)" stroke="none" d="M 7574,3927 L 7482,3980 7482,3927 7574,3927 Z M 7830,3651 L 7924,3597 7924,3725 7830,3779 7830,3651 Z M 7825,3782 L 7583,3922 7482,3922 7482,3853 7825,3654 7825,3782 Z"/>
     <path fill="rgb(181,181,181)" stroke="none" d="M 7583,3922 L 7482,3980 7482,3922 7583,3922 Z M 7825,3654 L 7924,3597 7924,3725 7825,3782 7825,3654 Z M 7820,3785 L 7591,3917 7482,3917 7482,3853 7820,3657 7820,3785 Z"/>
     <path fill="rgb(182,182,182)" stroke="none" d="M 7591,3917 L 7482,3980 7482,3917 7591,3917 Z M 7820,3657 L 7924,3597 7924,3725 7820,3785 7820,3657 Z M 7815,3788 L 7600,3912 7482,3912 7482,3853 7815,3660 7815,3788 Z"/>
     <path fill="rgb(183,183,183)" stroke="none" d="M 7600,3912 L 7482,3980 7482,3912 7600,3912 Z M 7815,3660 L 7924,3597 7924,3725 7815,3788 7815,3660 Z M 7810,3791 L 7609,3907 7482,3907 7482,3853 7810,3663 7810,3791 Z"/>
     <path fill="rgb(184,184,184)" stroke="none" d="M 7609,3907 L 7482,3980 7482,3907 7609,3907 Z M 7810,3663 L 7924,3597 7924,3725 7810,3791 7810,3663 Z M 7805,3794 L 7617,3902 7482,3902 7482,3853 7805,3666 7805,3794 Z"/>
     <path fill="rgb(185,185,185)" stroke="none" d="M 7617,3902 L 7482,3980 7482,3902 7617,3902 Z M 7805,3666 L 7924,3597 7924,3725 7805,3794 7805,3666 Z M 7800,3797 L 7626,3897 7482,3897 7482,3853 7800,3669 7800,3797 Z"/>
     <path fill="rgb(186,186,186)" stroke="none" d="M 7626,3897 L 7482,3980 7482,3897 7626,3897 Z M 7800,3669 L 7924,3597 7924,3725 7800,3797 7800,3669 Z M 7795,3799 L 7635,3892 7482,3892 7482,3853 7795,3672 7795,3799 Z"/>
     <path fill="rgb(188,188,188)" stroke="none" d="M 7635,3892 L 7482,3980 7482,3892 7635,3892 Z M 7795,3672 L 7924,3597 7924,3725 7795,3799 7795,3672 Z M 7790,3802 L 7643,3887 7482,3887 7482,3853 7790,3675 7790,3802 Z"/>
     <path fill="rgb(189,189,189)" stroke="none" d="M 7643,3887 L 7482,3980 7482,3887 7643,3887 Z M 7790,3675 L 7924,3597 7924,3725 7790,3802 7790,3675 Z M 7785,3805 L 7652,3882 7482,3882 7482,3853 7785,3678 7785,3805 Z"/>
     <path fill="rgb(190,190,190)" stroke="none" d="M 7652,3882 L 7482,3980 7482,3882 7652,3882 Z M 7785,3678 L 7924,3597 7924,3725 7785,3805 7785,3678 Z M 7780,3808 L 7661,3877 7482,3877 7482,3853 7780,3680 7780,3808 Z"/>
     <path fill="rgb(191,191,191)" stroke="none" d="M 7661,3877 L 7482,3980 7482,3877 7661,3877 Z M 7780,3680 L 7924,3597 7924,3725 7780,3808 7780,3680 Z M 7775,3811 L 7669,3872 7482,3872 7482,3853 7775,3683 7775,3811 Z"/>
     <path fill="rgb(192,192,192)" stroke="none" d="M 7669,3872 L 7482,3980 7482,3872 7669,3872 Z M 7775,3683 L 7924,3597 7924,3725 7775,3811 7775,3683 Z M 7770,3814 L 7678,3867 7482,3867 7482,3853 7770,3686 7770,3814 Z"/>
     <path fill="rgb(193,193,193)" stroke="none" d="M 7678,3867 L 7482,3980 7482,3867 7678,3867 Z M 7770,3686 L 7924,3597 7924,3725 7770,3814 7770,3686 Z M 7765,3817 L 7687,3862 7482,3862 7482,3853 7765,3689 7765,3817 Z"/>
     <path fill="rgb(194,194,194)" stroke="none" d="M 7687,3862 L 7482,3980 7482,3862 7687,3862 Z M 7765,3689 L 7924,3597 7924,3725 7765,3817 7765,3689 Z M 7760,3820 L 7695,3857 7482,3857 7482,3853 7760,3692 7760,3820 Z"/>
     <path fill="rgb(196,196,196)" stroke="none" d="M 7695,3857 L 7482,3980 7482,3857 7695,3857 Z M 7760,3692 L 7924,3597 7924,3725 7760,3820 7760,3692 Z M 7755,3823 L 7704,3852 7484,3852 7755,3695 7755,3823 Z"/>
     <path fill="rgb(197,197,197)" stroke="none" d="M 7704,3852 L 7482,3980 7482,3853 7484,3852 7704,3852 Z M 7755,3695 L 7924,3597 7924,3725 7755,3823 7755,3695 Z M 7750,3825 L 7713,3847 7492,3847 7750,3698 7750,3825 Z"/>
     <path fill="rgb(198,198,198)" stroke="none" d="M 7713,3847 L 7482,3980 7482,3853 7492,3847 7713,3847 Z M 7750,3698 L 7924,3597 7924,3725 7750,3825 7750,3698 Z M 7744,3829 L 7723,3841 7503,3841 7744,3701 7744,3829 Z"/>
     <path fill="rgb(199,199,199)" stroke="none" d="M 7723,3841 L 7482,3980 7482,3853 7503,3841 7723,3841 Z M 7744,3701 L 7924,3597 7924,3725 7744,3829 7744,3701 Z M 7739,3832 L 7732,3836 7511,3836 7739,3704 7739,3832 Z"/>
     <path fill="rgb(200,200,200)" stroke="none" d="M 7732,3836 L 7482,3980 7482,3853 7511,3836 7732,3836 Z M 7739,3704 L 7924,3597 7924,3725 7739,3832 7739,3704 Z M 7734,3831 L 7520,3831 7734,3707 7734,3831 Z"/>
     <path fill="rgb(201,201,201)" stroke="none" d="M 7734,3831 L 7734,3707 7924,3597 7924,3725 7482,3980 7482,3853 7520,3831 7734,3831 Z M 7729,3826 L 7529,3826 7729,3710 7729,3826 Z"/>
     <path fill="rgb(202,202,202)" stroke="none" d="M 7729,3826 L 7729,3710 7924,3597 7924,3725 7482,3980 7482,3853 7529,3826 7729,3826 Z M 7724,3821 L 7537,3821 7724,3713 7724,3821 Z"/>
     <path fill="rgb(204,204,204)" stroke="none" d="M 7724,3821 L 7724,3713 7924,3597 7924,3725 7482,3980 7482,3853 7537,3821 7724,3821 Z M 7719,3816 L 7546,3816 7719,3716 7719,3816 Z"/>
     <path fill="rgb(205,205,205)" stroke="none" d="M 7719,3816 L 7719,3716 7924,3597 7924,3725 7482,3980 7482,3853 7546,3816 7719,3816 Z M 7714,3811 L 7555,3811 7714,3719 7714,3811 Z"/>
     <path fill="rgb(206,206,206)" stroke="none" d="M 7714,3811 L 7714,3719 7924,3597 7924,3725 7482,3980 7482,3853 7555,3811 7714,3811 Z M 7709,3806 L 7563,3806 7709,3722 7709,3806 Z"/>
     <path fill="rgb(207,207,207)" stroke="none" d="M 7709,3806 L 7709,3722 7924,3597 7924,3725 7482,3980 7482,3853 7563,3806 7709,3806 Z M 7704,3801 L 7572,3801 7704,3724 7704,3801 Z"/>
     <path fill="rgb(208,208,208)" stroke="none" d="M 7704,3801 L 7704,3724 7924,3597 7924,3725 7482,3980 7482,3853 7572,3801 7704,3801 Z M 7699,3796 L 7580,3796 7699,3727 7699,3796 Z"/>
     <path fill="rgb(209,209,209)" stroke="none" d="M 7699,3796 L 7699,3727 7924,3597 7924,3725 7482,3980 7482,3853 7580,3796 7699,3796 Z M 7694,3791 L 7589,3791 7694,3730 7694,3791 Z"/>
     <path fill="rgb(210,210,210)" stroke="none" d="M 7694,3791 L 7694,3730 7924,3597 7924,3725 7482,3980 7482,3853 7589,3791 7694,3791 Z M 7689,3786 L 7598,3786 7689,3733 7689,3786 Z"/>
     <path fill="rgb(211,211,211)" stroke="none" d="M 7689,3786 L 7689,3733 7924,3597 7924,3725 7482,3980 7482,3853 7598,3786 7689,3786 Z M 7684,3781 L 7606,3781 7684,3736 7684,3781 Z"/>
     <path fill="rgb(213,213,213)" stroke="none" d="M 7684,3781 L 7684,3736 7924,3597 7924,3725 7482,3980 7482,3853 7606,3781 7684,3781 Z M 7679,3776 L 7615,3776 7679,3739 7679,3776 Z"/>
     <path fill="rgb(214,214,214)" stroke="none" d="M 7679,3776 L 7679,3739 7924,3597 7924,3725 7482,3980 7482,3853 7615,3776 7679,3776 Z M 7674,3771 L 7624,3771 7674,3742 7674,3771 Z"/>
     <path fill="rgb(215,215,215)" stroke="none" d="M 7674,3771 L 7674,3742 7924,3597 7924,3725 7482,3980 7482,3853 7624,3771 7674,3771 Z M 7669,3766 L 7632,3766 7669,3745 7669,3766 Z"/>
     <path fill="rgb(216,216,216)" stroke="none" d="M 7669,3766 L 7669,3745 7924,3597 7924,3725 7482,3980 7482,3853 7632,3766 7669,3766 Z M 7664,3761 L 7641,3761 7664,3748 7664,3761 Z"/>
     <path fill="rgb(217,217,217)" stroke="none" d="M 7664,3761 L 7664,3748 7924,3597 7924,3725 7482,3980 7482,3853 7641,3761 7664,3761 Z M 7659,3756 L 7649,3756 7659,3750 7659,3756 Z"/>
     <path fill="rgb(218,218,218)" stroke="none" d="M 7659,3756 L 7659,3750 7924,3597 7924,3725 7482,3980 7482,3853 7649,3756 7659,3756 Z"/>
     <path fill="rgb(219,219,219)" stroke="none" d="M 7482,3980 L 7482,3853 7924,3597 7924,3725 7482,3980 Z"/>
     <path fill="rgb(221,221,221)" stroke="none" d="M 7482,3980 L 7482,3853 7924,3597 7924,3725 7482,3980 Z"/>
     <path fill="rgb(222,222,222)" stroke="none" d="M 7482,3980 L 7482,3853 7924,3597 7924,3725 7482,3980 Z"/>
     <path fill="rgb(223,223,223)" stroke="none" d="M 7482,3980 L 7482,3853 7924,3597 7924,3725 7482,3980 Z"/>
     <path fill="rgb(224,224,224)" stroke="none" d="M 7482,3980 L 7482,3853 7924,3597 7924,3725 7482,3980 Z"/>
     <path fill="rgb(225,225,225)" stroke="none" d="M 7482,3980 L 7482,3853 7924,3597 7924,3725 7482,3980 Z"/>
     <path fill="rgb(226,226,226)" stroke="none" d="M 7482,3980 L 7482,3853 7924,3597 7924,3725 7482,3980 Z"/>
     <path fill="rgb(229,229,229)" stroke="none" d="M 7482,3980 L 7482,3853 7924,3597 7924,3725 7482,3980 Z"/>
     <path fill="none" stroke="rgb(255,255,255)" id="Drawing_9_0" stroke-width="40" stroke-linejoin="round" d="M 7482,3980 L 7482,3853 7924,3597 7924,3725 7482,3980 Z"/>
    </g>
    <g>
     <path fill="none" stroke="rgb(0,0,0)" id="Drawing_10_0" stroke-width="40" stroke-linejoin="round" d="M 4608,3724 L 4608,2638 6266,1680 7924,2638 7924,3724 7482,3980 7482,3852 6708,4299 6708,4427 6266,4683 5824,4427 5824,4299 5050,3852 5050,3980 4608,3724 Z"/>
    </g>
   </g>
  </g>
 </g>
</svg>