<?xml version="1.0" encoding="UTF-8"?>

<svg version="1.2" baseProfile="tiny" width="37.79mm" height="30.43mm" viewBox="8271 11648 3779 3043" preserveAspectRatio="xMidYMid" fill-rule="evenodd" stroke-width="28.222" stroke-linejoin="round" xmlns="http://www.w3.org/2000/svg" xmlns:xlink="http://www.w3.org/1999/xlink" xml:space="preserve">
 <g visibility="visible" id="Slide_1">
  <g id="DrawingGroup_1">
   <g>
    <path fill="rgb(221,221,221)" stroke="none" d="M 9949,14671 C 10252,14671 12049,14096 12049,13840 12049,13585 11828,13393 11607,13393 11607,13585 9949,14351 9949,14671 Z"/>
    <path fill="none" stroke="rgb(221,221,221)" id="Drawing_1_0" stroke-linejoin="round" d="M 9949,14671 C 10252,14671 12049,14096 12049,13840 12049,13585 11828,13393 11607,13393 11607,13585 9949,14351 9949,14671 Z"/>
   </g>
   <g id="DrawingGroup_2">
    <g>
     <defs>
      <linearGradient id="Gradient_1045" gradientUnits="userSpaceOnUse" x1="8289" y1="13583" x2="9951" y2="13585">
       <stop offset="0.1" stop-color="rgb(51,51,51)"/>
       <stop offset="1" stop-color="rgb(153,153,153)"/>
      </linearGradient>
     </defs>
     <path fill="url(#Gradient_1045)" stroke="rgb(178,178,178)" id="Drawing_2_0" stroke-width="40" stroke-linejoin="round" d="M 8291,13584 L 8291,12626 9949,13584 9949,14543 8291,13584 Z"/>
    </g>
    <g>
     <path fill="rgb(51,51,51)" stroke="none" d="M 11395,13707 L 10628,14150 9949,14150 9949,13584 11395,12748 11395,13707 Z"/>
     <path fill="rgb(52,52,52)" stroke="none" d="M 10628,14150 L 9949,14543 9949,14150 10628,14150 Z M 11395,12748 L 11607,12626 11607,13584 11395,13707 11395,12748 Z M 11385,13712 L 10646,14140 9949,14140 9949,13584 11385,12754 11385,13712 Z"/>
     <path fill="rgb(53,53,53)" stroke="none" d="M 10646,14140 L 9949,14543 9949,14140 10646,14140 Z M 11385,12754 L 11607,12626 11607,13584 11385,13712 11385,12754 Z M 11375,13718 L 10663,14130 9949,14130 9949,13584 11375,12760 11375,13718 Z"/>
     <path fill="rgb(54,54,54)" stroke="none" d="M 10663,14130 L 9949,14543 9949,14130 10663,14130 Z M 11375,12760 L 11607,12626 11607,13584 11375,13718 11375,12760 Z M 11365,13724 L 10680,14120 9949,14120 9949,13584 11365,12766 11365,13724 Z"/>
     <path fill="rgb(55,55,55)" stroke="none" d="M 10680,14120 L 9949,14543 9949,14120 10680,14120 Z M 11365,12766 L 11607,12626 11607,13584 11365,13724 11365,12766 Z M 11355,13730 L 10698,14110 9949,14110 9949,13584 11355,12772 11355,13730 Z"/>
     <path fill="rgb(56,56,56)" stroke="none" d="M 10698,14110 L 9949,14543 9949,14110 10698,14110 Z M 11355,12772 L 11607,12626 11607,13584 11355,13730 11355,12772 Z M 11345,13736 L 10715,14100 9949,14100 9949,13584 11345,12777 11345,13736 Z"/>
     <path fill="rgb(57,57,57)" stroke="none" d="M 10715,14100 L 9949,14543 9949,14100 10715,14100 Z M 11345,12777 L 11607,12626 11607,13584 11345,13736 11345,12777 Z M 11335,13741 L 10732,14090 9949,14090 9949,13584 11335,12783 11335,13741 Z"/>
     <path fill="rgb(58,58,58)" stroke="none" d="M 10732,14090 L 9949,14543 9949,14090 10732,14090 Z M 11335,12783 L 11607,12626 11607,13584 11335,13741 11335,12783 Z M 11325,13747 L 10749,14080 9949,14080 9949,13584 11325,12789 11325,13747 Z"/>
     <path fill="rgb(59,59,59)" stroke="none" d="M 10749,14080 L 9949,14543 9949,14080 10749,14080 Z M 11325,12789 L 11607,12626 11607,13584 11325,13747 11325,12789 Z M 11315,13753 L 10767,14070 9949,14070 9949,13584 11315,12795 11315,13753 Z"/>
     <path fill="rgb(60,60,60)" stroke="none" d="M 10767,14070 L 9949,14543 9949,14070 10767,14070 Z M 11315,12795 L 11607,12626 11607,13584 11315,13753 11315,12795 Z M 11305,13759 L 10784,14060 9949,14060 9949,13584 11305,12800 11305,13759 Z"/>
     <path fill="rgb(61,61,61)" stroke="none" d="M 10784,14060 L 9949,14543 9949,14060 10784,14060 Z M 11305,12800 L 11607,12626 11607,13584 11305,13759 11305,12800 Z M 11295,13764 L 10801,14050 9949,14050 9949,13584 11295,12806 11295,13764 Z"/>
     <path fill="rgb(62,62,62)" stroke="none" d="M 10801,14050 L 9949,14543 9949,14050 10801,14050 Z M 11295,12806 L 11607,12626 11607,13584 11295,13764 11295,12806 Z M 11285,13770 L 10819,14040 9949,14040 9949,13584 11285,12812 11285,13770 Z"/>
     <path fill="rgb(63,63,63)" stroke="none" d="M 10819,14040 L 9949,14543 9949,14040 10819,14040 Z M 11285,12812 L 11607,12626 11607,13584 11285,13770 11285,12812 Z M 11275,13776 L 10836,14030 9949,14030 9949,13584 11275,12818 11275,13776 Z"/>
     <path fill="rgb(64,64,64)" stroke="none" d="M 10836,14030 L 9949,14543 9949,14030 10836,14030 Z M 11275,12818 L 11607,12626 11607,13584 11275,13776 11275,12818 Z M 11265,13782 L 10853,14020 9949,14020 9949,13584 11265,12824 11265,13782 Z"/>
     <path fill="rgb(65,65,65)" stroke="none" d="M 10853,14020 L 9949,14543 9949,14020 10853,14020 Z M 11265,12824 L 11607,12626 11607,13584 11265,13782 11265,12824 Z M 11255,13788 L 10870,14010 9949,14010 9949,13584 11255,12829 11255,13788 Z"/>
     <path fill="rgb(66,66,66)" stroke="none" d="M 10870,14010 L 9949,14543 9949,14010 10870,14010 Z M 11255,12829 L 11607,12626 11607,13584 11255,13788 11255,12829 Z M 11245,13793 L 10888,14000 9949,14000 9949,13584 11245,12835 11245,13793 Z"/>
     <path fill="rgb(68,68,68)" stroke="none" d="M 10888,14000 L 9949,14543 9949,14000 10888,14000 Z M 11245,12835 L 11607,12626 11607,13584 11245,13793 11245,12835 Z M 11235,13799 L 10905,13990 9949,13990 9949,13584 11235,12841 11235,13799 Z"/>
     <path fill="rgb(69,69,69)" stroke="none" d="M 10905,13990 L 9949,14543 9949,13990 10905,13990 Z M 11235,12841 L 11607,12626 11607,13584 11235,13799 11235,12841 Z M 11225,13805 L 10922,13980 9949,13980 9949,13584 11225,12847 11225,13805 Z"/>
     <path fill="rgb(70,70,70)" stroke="none" d="M 10922,13980 L 9949,14543 9949,13980 10922,13980 Z M 11225,12847 L 11607,12626 11607,13584 11225,13805 11225,12847 Z M 11215,13811 L 10940,13970 9949,13970 9949,13584 11215,12852 11215,13811 Z"/>
     <path fill="rgb(71,71,71)" stroke="none" d="M 10940,13970 L 9949,14543 9949,13970 10940,13970 Z M 11215,12852 L 11607,12626 11607,13584 11215,13811 11215,12852 Z M 11205,13817 L 10957,13960 9949,13960 9949,13584 11205,12858 11205,13817 Z"/>
     <path fill="rgb(72,72,72)" stroke="none" d="M 10957,13960 L 9949,14543 9949,13960 10957,13960 Z M 11205,12858 L 11607,12626 11607,13584 11205,13817 11205,12858 Z M 11195,13822 L 10974,13950 9949,13950 9949,13584 11195,12864 11195,13822 Z"/>
     <path fill="rgb(73,73,73)" stroke="none" d="M 10974,13950 L 9949,14543 9949,13950 10974,13950 Z M 11195,12864 L 11607,12626 11607,13584 11195,13822 11195,12864 Z M 11185,13828 L 10992,13940 9949,13940 9949,13584 11185,12870 11185,13828 Z"/>
     <path fill="rgb(74,74,74)" stroke="none" d="M 10992,13940 L 9949,14543 9949,13940 10992,13940 Z M 11185,12870 L 11607,12626 11607,13584 11185,13828 11185,12870 Z M 11175,13834 L 11009,13930 9949,13930 9949,13584 11175,12876 11175,13834 Z"/>
     <path fill="rgb(75,75,75)" stroke="none" d="M 11009,13930 L 9949,14543 9949,13930 11009,13930 Z M 11175,12876 L 11607,12626 11607,13584 11175,13834 11175,12876 Z M 11165,13840 L 11026,13920 9949,13920 9949,13584 11165,12881 11165,13840 Z"/>
     <path fill="rgb(76,76,76)" stroke="none" d="M 11026,13920 L 9949,14543 9949,13920 11026,13920 Z M 11165,12881 L 11607,12626 11607,13584 11165,13840 11165,12881 Z M 11155,13845 L 11043,13910 9949,13910 9949,13584 11155,12887 11155,13845 Z"/>
     <path fill="rgb(77,77,77)" stroke="none" d="M 11043,13910 L 9949,14543 9949,13910 11043,13910 Z M 11155,12887 L 11607,12626 11607,13584 11155,13845 11155,12887 Z M 11145,13851 L 11061,13900 9949,13900 9949,13584 11145,12893 11145,13851 Z"/>
     <path fill="rgb(78,78,78)" stroke="none" d="M 11061,13900 L 9949,14543 9949,13900 11061,13900 Z M 11145,12893 L 11607,12626 11607,13584 11145,13851 11145,12893 Z M 11135,13857 L 11078,13890 9949,13890 9949,13584 11135,12899 11135,13857 Z"/>
     <path fill="rgb(79,79,79)" stroke="none" d="M 11078,13890 L 9949,14543 9949,13890 11078,13890 Z M 11135,12899 L 11607,12626 11607,13584 11135,13857 11135,12899 Z M 11125,13863 L 11095,13880 9949,13880 9949,13584 11125,12905 11125,13863 Z"/>
     <path fill="rgb(80,80,80)" stroke="none" d="M 11095,13880 L 9949,14543 9949,13880 11095,13880 Z M 11125,12905 L 11607,12626 11607,13584 11125,13863 11125,12905 Z M 11115,13869 L 11113,13870 9949,13870 9949,13584 11115,12910 11115,13869 Z"/>
     <path fill="rgb(81,81,81)" stroke="none" d="M 11113,13870 L 9949,14543 9949,13870 11113,13870 Z M 11115,12910 L 11607,12626 11607,13584 11115,13869 11115,12910 Z M 11105,13860 L 9949,13860 9949,13584 11105,12916 11105,13860 Z"/>
     <path fill="rgb(82,82,82)" stroke="none" d="M 11105,13860 L 11105,12916 11607,12626 11607,13584 9949,14543 9949,13860 11105,13860 Z M 11095,13850 L 9949,13850 9949,13584 11095,12922 11095,13850 Z"/>
     <path fill="rgb(83,83,83)" stroke="none" d="M 11095,13850 L 11095,12922 11607,12626 11607,13584 9949,14543 9949,13850 11095,13850 Z M 11085,13840 L 9949,13840 9949,13584 11085,12928 11085,13840 Z"/>
     <path fill="rgb(85,85,85)" stroke="none" d="M 11085,13840 L 11085,12928 11607,12626 11607,13584 9949,14543 9949,13840 11085,13840 Z M 11075,13830 L 9949,13830 9949,13584 11075,12933 11075,13830 Z"/>
     <path fill="rgb(86,86,86)" stroke="none" d="M 11075,13830 L 11075,12933 11607,12626 11607,13584 9949,14543 9949,13830 11075,13830 Z M 11065,13820 L 9949,13820 9949,13584 11065,12939 11065,13820 Z"/>
     <path fill="rgb(87,87,87)" stroke="none" d="M 11065,13820 L 11065,12939 11607,12626 11607,13584 9949,14543 9949,13820 11065,13820 Z M 11055,13810 L 9949,13810 9949,13584 11055,12945 11055,13810 Z"/>
     <path fill="rgb(88,88,88)" stroke="none" d="M 11055,13810 L 11055,12945 11607,12626 11607,13584 9949,14543 9949,13810 11055,13810 Z M 11045,13800 L 9949,13800 9949,13584 11045,12951 11045,13800 Z"/>
     <path fill="rgb(89,89,89)" stroke="none" d="M 11045,13800 L 11045,12951 11607,12626 11607,13584 9949,14543 9949,13800 11045,13800 Z M 11035,13790 L 9949,13790 9949,13584 11035,12957 11035,13790 Z"/>
     <path fill="rgb(90,90,90)" stroke="none" d="M 11035,13790 L 11035,12957 11607,12626 11607,13584 9949,14543 9949,13790 11035,13790 Z M 11025,13780 L 9949,13780 9949,13584 11025,12962 11025,13780 Z"/>
     <path fill="rgb(91,91,91)" stroke="none" d="M 11025,13780 L 11025,12962 11607,12626 11607,13584 9949,14543 9949,13780 11025,13780 Z M 11015,13770 L 9949,13770 9949,13584 11015,12968 11015,13770 Z"/>
     <path fill="rgb(92,92,92)" stroke="none" d="M 11015,13770 L 11015,12968 11607,12626 11607,13584 9949,14543 9949,13770 11015,13770 Z M 11005,13760 L 9949,13760 9949,13584 11005,12974 11005,13760 Z"/>
     <path fill="rgb(93,93,93)" stroke="none" d="M 11005,13760 L 11005,12974 11607,12626 11607,13584 9949,14543 9949,13760 11005,13760 Z M 10995,13750 L 9949,13750 9949,13584 10995,12980 10995,13750 Z"/>
     <path fill="rgb(94,94,94)" stroke="none" d="M 10995,13750 L 10995,12980 11607,12626 11607,13584 9949,14543 9949,13750 10995,13750 Z M 10985,13740 L 9949,13740 9949,13584 10985,12985 10985,13740 Z"/>
     <path fill="rgb(95,95,95)" stroke="none" d="M 10985,13740 L 10985,12985 11607,12626 11607,13584 9949,14543 9949,13740 10985,13740 Z M 10975,13730 L 9949,13730 9949,13584 10975,12991 10975,13730 Z"/>
     <path fill="rgb(96,96,96)" stroke="none" d="M 10975,13730 L 10975,12991 11607,12626 11607,13584 9949,14543 9949,13730 10975,13730 Z M 10965,13720 L 9949,13720 9949,13584 10965,12997 10965,13720 Z"/>
     <path fill="rgb(97,97,97)" stroke="none" d="M 10965,13720 L 10965,12997 11607,12626 11607,13584 9949,14543 9949,13720 10965,13720 Z M 10955,13710 L 9949,13710 9949,13584 10955,13003 10955,13710 Z"/>
     <path fill="rgb(98,98,98)" stroke="none" d="M 10955,13710 L 10955,13003 11607,12626 11607,13584 9949,14543 9949,13710 10955,13710 Z M 10945,13700 L 9949,13700 9949,13584 10945,13009 10945,13700 Z"/>
     <path fill="rgb(99,99,99)" stroke="none" d="M 10945,13700 L 10945,13009 11607,12626 11607,13584 9949,14543 9949,13700 10945,13700 Z M 10935,13690 L 9956,13690 9956,13580 10935,13014 10935,13690 Z"/>
     <path fill="rgb(100,100,100)" stroke="none" d="M 9956,13690 L 10935,13690 10935,13014 11607,12626 11607,13584 9949,14543 9949,13584 9956,13580 9956,13690 Z M 10925,13680 L 9966,13680 9966,13574 10925,13020 10925,13680 Z"/>
     <path fill="rgb(102,102,102)" stroke="none" d="M 9966,13680 L 10925,13680 10925,13020 11607,12626 11607,13584 9949,14543 9949,13584 9966,13574 9966,13680 Z M 10915,13670 L 9976,13670 9976,13568 10915,13026 10915,13670 Z"/>
     <path fill="rgb(103,103,103)" stroke="none" d="M 9976,13670 L 10915,13670 10915,13026 11607,12626 11607,13584 9949,14543 9949,13584 9976,13568 9976,13670 Z M 10905,13660 L 9986,13660 9986,13563 10905,13032 10905,13660 Z"/>
     <path fill="rgb(104,104,104)" stroke="none" d="M 9986,13660 L 10905,13660 10905,13032 11607,12626 11607,13584 9949,14543 9949,13584 9986,13563 9986,13660 Z M 10895,13650 L 9996,13650 9996,13557 10895,13037 10895,13650 Z"/>
     <path fill="rgb(105,105,105)" stroke="none" d="M 9996,13650 L 10895,13650 10895,13037 11607,12626 11607,13584 9949,14543 9949,13584 9996,13557 9996,13650 Z M 10885,13640 L 10006,13640 10006,13551 10885,13043 10885,13640 Z"/>
     <path fill="rgb(106,106,106)" stroke="none" d="M 10006,13640 L 10885,13640 10885,13043 11607,12626 11607,13584 9949,14543 9949,13584 10006,13551 10006,13640 Z M 10875,13630 L 10016,13630 10016,13545 10875,13049 10875,13630 Z"/>
     <path fill="rgb(107,107,107)" stroke="none" d="M 10016,13630 L 10875,13630 10875,13049 11607,12626 11607,13584 9949,14543 9949,13584 10016,13545 10016,13630 Z M 10865,13620 L 10026,13620 10026,13540 10865,13055 10865,13620 Z"/>
     <path fill="rgb(108,108,108)" stroke="none" d="M 10026,13620 L 10865,13620 10865,13055 11607,12626 11607,13584 9949,14543 9949,13584 10026,13540 10026,13620 Z M 10855,13610 L 10036,13610 10036,13534 10855,13061 10855,13610 Z"/>
     <path fill="rgb(109,109,109)" stroke="none" d="M 10036,13610 L 10855,13610 10855,13061 11607,12626 11607,13584 9949,14543 9949,13584 10036,13534 10036,13610 Z M 10845,13600 L 10046,13600 10046,13528 10845,13066 10845,13600 Z"/>
     <path fill="rgb(110,110,110)" stroke="none" d="M 10046,13600 L 10845,13600 10845,13066 11607,12626 11607,13584 9949,14543 9949,13584 10046,13528 10046,13600 Z M 10835,13590 L 10056,13590 10056,13522 10835,13072 10835,13590 Z"/>
     <path fill="rgb(111,111,111)" stroke="none" d="M 10056,13590 L 10835,13590 10835,13072 11607,12626 11607,13584 9949,14543 9949,13584 10056,13522 10056,13590 Z M 10825,13580 L 10066,13580 10066,13516 10825,13078 10825,13580 Z"/>
     <path fill="rgb(112,112,112)" stroke="none" d="M 10066,13580 L 10825,13580 10825,13078 11607,12626 11607,13584 9949,14543 9949,13584 10066,13516 10066,13580 Z M 10815,13570 L 10076,13570 10076,13511 10815,13084 10815,13570 Z"/>
     <path fill="rgb(113,113,113)" stroke="none" d="M 10076,13570 L 10815,13570 10815,13084 11607,12626 11607,13584 9949,14543 9949,13584 10076,13511 10076,13570 Z M 10805,13560 L 10086,13560 10086,13505 10805,13089 10805,13560 Z"/>
     <path fill="rgb(114,114,114)" stroke="none" d="M 10086,13560 L 10805,13560 10805,13089 11607,12626 11607,13584 9949,14543 9949,13584 10086,13505 10086,13560 Z M 10795,13550 L 10096,13550 10096,13499 10795,13095 10795,13550 Z"/>
     <path fill="rgb(115,115,115)" stroke="none" d="M 10096,13550 L 10795,13550 10795,13095 11607,12626 11607,13584 9949,14543 9949,13584 10096,13499 10096,13550 Z M 10785,13540 L 10106,13540 10106,13493 10785,13101 10785,13540 Z"/>
     <path fill="rgb(116,116,116)" stroke="none" d="M 10106,13540 L 10785,13540 10785,13101 11607,12626 11607,13584 9949,14543 9949,13584 10106,13493 10106,13540 Z M 10775,13530 L 10116,13530 10116,13488 10775,13107 10775,13530 Z"/>
     <path fill="rgb(117,117,117)" stroke="none" d="M 10116,13530 L 10775,13530 10775,13107 11607,12626 11607,13584 9949,14543 9949,13584 10116,13488 10116,13530 Z M 10765,13520 L 10126,13520 10126,13482 10765,13113 10765,13520 Z"/>
     <path fill="rgb(119,119,119)" stroke="none" d="M 10126,13520 L 10765,13520 10765,13113 11607,12626 11607,13584 9949,14543 9949,13584 10126,13482 10126,13520 Z M 10755,13510 L 10136,13510 10136,13476 10755,13118 10755,13510 Z"/>
     <path fill="rgb(120,120,120)" stroke="none" d="M 10136,13510 L 10755,13510 10755,13118 11607,12626 11607,13584 9949,14543 9949,13584 10136,13476 10136,13510 Z M 10745,13500 L 10146,13500 10146,13470 10745,13124 10745,13500 Z"/>
     <path fill="rgb(121,121,121)" stroke="none" d="M 10146,13500 L 10745,13500 10745,13124 11607,12626 11607,13584 9949,14543 9949,13584 10146,13470 10146,13500 Z M 10735,13490 L 10156,13490 10156,13464 10735,13130 10735,13490 Z"/>
     <path fill="rgb(122,122,122)" stroke="none" d="M 10156,13490 L 10735,13490 10735,13130 11607,12626 11607,13584 9949,14543 9949,13584 10156,13464 10156,13490 Z M 10725,13480 L 10166,13480 10166,13459 10725,13136 10725,13480 Z"/>
     <path fill="rgb(123,123,123)" stroke="none" d="M 10166,13480 L 10725,13480 10725,13136 11607,12626 11607,13584 9949,14543 9949,13584 10166,13459 10166,13480 Z M 10715,13470 L 10176,13470 10176,13453 10715,13141 10715,13470 Z"/>
     <path fill="rgb(124,124,124)" stroke="none" d="M 10176,13470 L 10715,13470 10715,13141 11607,12626 11607,13584 9949,14543 9949,13584 10176,13453 10176,13470 Z M 10705,13460 L 10186,13460 10186,13447 10705,13147 10705,13460 Z"/>
     <path fill="rgb(125,125,125)" stroke="none" d="M 10186,13460 L 10705,13460 10705,13147 11607,12626 11607,13584 9949,14543 9949,13584 10186,13447 10186,13460 Z M 10695,13450 L 10196,13450 10196,13441 10695,13153 10695,13450 Z"/>
     <path fill="rgb(126,126,126)" stroke="none" d="M 10196,13450 L 10695,13450 10695,13153 11607,12626 11607,13584 9949,14543 9949,13584 10196,13441 10196,13450 Z M 10685,13440 L 10206,13440 10206,13436 10685,13159 10685,13440 Z"/>
     <path fill="rgb(127,127,127)" stroke="none" d="M 10206,13440 L 10685,13440 10685,13159 11607,12626 11607,13584 9949,14543 9949,13584 10206,13436 10206,13440 Z M 10675,13430 L 10216,13430 10216,13430 10675,13165 10675,13430 Z"/>
     <path fill="rgb(128,128,128)" stroke="none" d="M 10216,13430 L 10675,13430 10675,13165 11607,12626 11607,13584 9949,14543 9949,13584 10216,13430 10216,13430 Z M 10665,13420 L 10233,13420 10665,13170 10665,13420 Z"/>
     <path fill="rgb(129,129,129)" stroke="none" d="M 10665,13420 L 10665,13170 11607,12626 11607,13584 9949,14543 9949,13584 10233,13420 10665,13420 Z M 10655,13410 L 10250,13410 10655,13176 10655,13410 Z"/>
     <path fill="rgb(130,130,130)" stroke="none" d="M 10655,13410 L 10655,13176 11607,12626 11607,13584 9949,14543 9949,13584 10250,13410 10655,13410 Z M 10645,13400 L 10267,13400 10645,13182 10645,13400 Z"/>
     <path fill="rgb(131,131,131)" stroke="none" d="M 10645,13400 L 10645,13182 11607,12626 11607,13584 9949,14543 9949,13584 10267,13400 10645,13400 Z M 10635,13390 L 10285,13390 10635,13188 10635,13390 Z"/>
     <path fill="rgb(132,132,132)" stroke="none" d="M 10635,13390 L 10635,13188 11607,12626 11607,13584 9949,14543 9949,13584 10285,13390 10635,13390 Z M 10625,13380 L 10302,13380 10625,13193 10625,13380 Z"/>
     <path fill="rgb(133,133,133)" stroke="none" d="M 10625,13380 L 10625,13193 11607,12626 11607,13584 9949,14543 9949,13584 10302,13380 10625,13380 Z M 10615,13370 L 10319,13370 10615,13199 10615,13370 Z"/>
     <path fill="rgb(134,134,134)" stroke="none" d="M 10615,13370 L 10615,13199 11607,12626 11607,13584 9949,14543 9949,13584 10319,13370 10615,13370 Z M 10605,13360 L 10337,13360 10605,13205 10605,13360 Z"/>
     <path fill="rgb(136,136,136)" stroke="none" d="M 10605,13360 L 10605,13205 11607,12626 11607,13584 9949,14543 9949,13584 10337,13360 10605,13360 Z M 10595,13350 L 10354,13350 10595,13211 10595,13350 Z"/>
     <path fill="rgb(137,137,137)" stroke="none" d="M 10595,13350 L 10595,13211 11607,12626 11607,13584 9949,14543 9949,13584 10354,13350 10595,13350 Z M 10585,13340 L 10371,13340 10585,13217 10585,13340 Z"/>
     <path fill="rgb(138,138,138)" stroke="none" d="M 10585,13340 L 10585,13217 11607,12626 11607,13584 9949,14543 9949,13584 10371,13340 10585,13340 Z M 10575,13330 L 10389,13330 10575,13222 10575,13330 Z"/>
     <path fill="rgb(139,139,139)" stroke="none" d="M 10575,13330 L 10575,13222 11607,12626 11607,13584 9949,14543 9949,13584 10389,13330 10575,13330 Z M 10565,13320 L 10406,13320 10565,13228 10565,13320 Z"/>
     <path fill="rgb(140,140,140)" stroke="none" d="M 10565,13320 L 10565,13228 11607,12626 11607,13584 9949,14543 9949,13584 10406,13320 10565,13320 Z M 10555,13310 L 10423,13310 10555,13234 10555,13310 Z"/>
     <path fill="rgb(141,141,141)" stroke="none" d="M 10555,13310 L 10555,13234 11607,12626 11607,13584 9949,14543 9949,13584 10423,13310 10555,13310 Z M 10545,13300 L 10441,13300 10545,13240 10545,13300 Z"/>
     <path fill="rgb(142,142,142)" stroke="none" d="M 10545,13300 L 10545,13240 11607,12626 11607,13584 9949,14543 9949,13584 10441,13300 10545,13300 Z M 10535,13290 L 10458,13290 10535,13245 10535,13290 Z"/>
     <path fill="rgb(143,143,143)" stroke="none" d="M 10535,13290 L 10535,13245 11607,12626 11607,13584 9949,14543 9949,13584 10458,13290 10535,13290 Z M 10525,13280 L 10475,13280 10525,13251 10525,13280 Z"/>
     <path fill="rgb(144,144,144)" stroke="none" d="M 10525,13280 L 10525,13251 11607,12626 11607,13584 9949,14543 9949,13584 10475,13280 10525,13280 Z M 10515,13270 L 10492,13270 10515,13257 10515,13270 Z"/>
     <path fill="rgb(145,145,145)" stroke="none" d="M 10515,13270 L 10515,13257 11607,12626 11607,13584 9949,14543 9949,13584 10492,13270 10515,13270 Z"/>
     <path fill="rgb(146,146,146)" stroke="none" d="M 9949,14543 L 9949,13584 11607,12626 11607,13584 9949,14543 Z"/>
     <path fill="rgb(147,147,147)" stroke="none" d="M 9949,14543 L 9949,13584 11607,12626 11607,13584 9949,14543 Z"/>
     <path fill="rgb(148,148,148)" stroke="none" d="M 9949,14543 L 9949,13584 11607,12626 11607,13584 9949,14543 Z"/>
     <path fill="rgb(149,149,149)" stroke="none" d="M 9949,14543 L 9949,13584 11607,12626 11607,13584 9949,14543 Z"/>
     <path fill="rgb(150,150,150)" stroke="none" d="M 9949,14543 L 9949,13584 11607,12626 11607,13584 9949,14543 Z"/>
     <path fill="rgb(153,153,153)" stroke="none" d="M 9949,14543 L 9949,13584 11607,12626 11607,13584 9949,14543 Z"/>
     <path fill="none" stroke="rgb(178,178,178)" id="Drawing_3_0" stroke-width="40" stroke-linejoin="round" d="M 9949,14543 L 9949,13584 11607,12626 11607,13584 9949,14543 Z"/>
    </g>
    <g>
     <defs>
      <linearGradient id="Gradient_1046" gradientUnits="userSpaceOnUse" x1="9949" y1="11668" x2="9949" y2="13585">
       <stop offset="0.1" stop-color="rgb(51,51,51)"/>
       <stop offset="1" stop-color="rgb(153,153,153)"/>
      </linearGradient>
     </defs>
     <path fill="url(#Gradient_1046)" stroke="rgb(178,178,178)" id="Drawing_4_0" stroke-width="40" stroke-linejoin="round" d="M 9949,13585 L 8291,12626 9949,11668 11607,12626 9949,13585 Z"/>
    </g>
    <g>
     <path fill="rgb(57,181,74)" stroke="none" d="M 9637,13852 L 9637,13660 9748,13724 9748,13916 9637,13852 Z"/>
     <path fill="none" stroke="rgb(102,102,102)" id="Drawing_5_0" stroke-width="40" stroke-linejoin="round" d="M 9637,13852 L 9637,13660 9748,13724 9748,13916 9637,13852 Z"/>
    </g>
    <g>
     <defs>
      <linearGradient id="Gradient_1047" gradientUnits="userSpaceOnUse" x1="9507" y1="14478" x2="9949" y2="14478">
       <stop offset="0.1" stop-color="rgb(51,51,51)"/>
       <stop offset="1" stop-color="rgb(153,153,153)"/>
      </linearGradient>
     </defs>
     <path fill="url(#Gradient_1047)" stroke="rgb(178,178,178)" id="Drawing_6_0" stroke-width="40" stroke-linejoin="round" d="M 9507,14415 L 9507,14287 9949,14543 9949,14670 9507,14415 Z"/>
    </g>
    <g>
     <defs>
      <linearGradient id="Gradient_1048" gradientUnits="userSpaceOnUse" x1="8291" y1="13776" x2="8733" y2="13776">
       <stop offset="0.1" stop-color="rgb(51,51,51)"/>
       <stop offset="1" stop-color="rgb(153,153,153)"/>
      </linearGradient>
     </defs>
     <path fill="url(#Gradient_1048)" stroke="rgb(178,178,178)" id="Drawing_7_0" stroke-width="40" stroke-linejoin="round" d="M 8291,13713 L 8291,13585 8733,13841 8733,13968 8291,13713 Z"/>
    </g>
    <g>
     <path fill="rgb(51,51,51)" stroke="none" d="M 10297,14469 L 10041,14617 9949,14617 9949,14543 10297,14341 10297,14469 Z"/>
     <path fill="rgb(53,53,53)" stroke="none" d="M 10041,14617 L 9949,14670 9949,14617 10041,14617 Z M 10297,14341 L 10391,14287 10391,14415 10297,14469 10297,14341 Z M 10292,14472 L 10050,14612 9949,14612 9949,14543 10292,14344 10292,14472 Z"/>
     <path fill="rgb(55,55,55)" stroke="none" d="M 10050,14612 L 9949,14670 9949,14612 10050,14612 Z M 10292,14344 L 10391,14287 10391,14415 10292,14472 10292,14344 Z M 10287,14475 L 10058,14607 9949,14607 9949,14543 10287,14347 10287,14475 Z"/>
     <path fill="rgb(57,57,57)" stroke="none" d="M 10058,14607 L 9949,14670 9949,14607 10058,14607 Z M 10287,14347 L 10391,14287 10391,14415 10287,14475 10287,14347 Z M 10282,14478 L 10067,14602 9949,14602 9949,14543 10282,14350 10282,14478 Z"/>
     <path fill="rgb(60,60,60)" stroke="none" d="M 10067,14602 L 9949,14670 9949,14602 10067,14602 Z M 10282,14350 L 10391,14287 10391,14415 10282,14478 10282,14350 Z M 10277,14481 L 10076,14597 9949,14597 9949,14543 10277,14353 10277,14481 Z"/>
     <path fill="rgb(62,62,62)" stroke="none" d="M 10076,14597 L 9949,14670 9949,14597 10076,14597 Z M 10277,14353 L 10391,14287 10391,14415 10277,14481 10277,14353 Z M 10272,14484 L 10084,14592 9949,14592 9949,14543 10272,14356 10272,14484 Z"/>
     <path fill="rgb(64,64,64)" stroke="none" d="M 10084,14592 L 9949,14670 9949,14592 10084,14592 Z M 10272,14356 L 10391,14287 10391,14415 10272,14484 10272,14356 Z M 10267,14487 L 10093,14587 9949,14587 9949,14543 10267,14359 10267,14487 Z"/>
     <path fill="rgb(67,67,67)" stroke="none" d="M 10093,14587 L 9949,14670 9949,14587 10093,14587 Z M 10267,14359 L 10391,14287 10391,14415 10267,14487 10267,14359 Z M 10262,14489 L 10102,14582 9949,14582 9949,14543 10262,14362 10262,14489 Z"/>
     <path fill="rgb(69,69,69)" stroke="none" d="M 10102,14582 L 9949,14670 9949,14582 10102,14582 Z M 10262,14362 L 10391,14287 10391,14415 10262,14489 10262,14362 Z M 10257,14492 L 10110,14577 9949,14577 9949,14543 10257,14365 10257,14492 Z"/>
     <path fill="rgb(71,71,71)" stroke="none" d="M 10110,14577 L 9949,14670 9949,14577 10110,14577 Z M 10257,14365 L 10391,14287 10391,14415 10257,14492 10257,14365 Z M 10252,14495 L 10119,14572 9949,14572 9949,14543 10252,14368 10252,14495 Z"/>
     <path fill="rgb(74,74,74)" stroke="none" d="M 10119,14572 L 9949,14670 9949,14572 10119,14572 Z M 10252,14368 L 10391,14287 10391,14415 10252,14495 10252,14368 Z M 10247,14498 L 10128,14567 9949,14567 9949,14543 10247,14370 10247,14498 Z"/>
     <path fill="rgb(76,76,76)" stroke="none" d="M 10128,14567 L 9949,14670 9949,14567 10128,14567 Z M 10247,14370 L 10391,14287 10391,14415 10247,14498 10247,14370 Z M 10242,14501 L 10136,14562 9949,14562 9949,14543 10242,14373 10242,14501 Z"/>
     <path fill="rgb(78,78,78)" stroke="none" d="M 10136,14562 L 9949,14670 9949,14562 10136,14562 Z M 10242,14373 L 10391,14287 10391,14415 10242,14501 10242,14373 Z M 10237,14504 L 10145,14557 9949,14557 9949,14543 10237,14376 10237,14504 Z"/>
     <path fill="rgb(81,81,81)" stroke="none" d="M 10145,14557 L 9949,14670 9949,14557 10145,14557 Z M 10237,14376 L 10391,14287 10391,14415 10237,14504 10237,14376 Z M 10232,14507 L 10154,14552 9949,14552 9949,14543 10232,14379 10232,14507 Z"/>
     <path fill="rgb(83,83,83)" stroke="none" d="M 10154,14552 L 9949,14670 9949,14552 10154,14552 Z M 10232,14379 L 10391,14287 10391,14415 10232,14507 10232,14379 Z M 10227,14510 L 10162,14547 9949,14547 9949,14543 10227,14382 10227,14510 Z"/>
     <path fill="rgb(85,85,85)" stroke="none" d="M 10162,14547 L 9949,14670 9949,14547 10162,14547 Z M 10227,14382 L 10391,14287 10391,14415 10227,14510 10227,14382 Z M 10222,14513 L 10171,14542 9951,14542 10222,14385 10222,14513 Z"/>
     <path fill="rgb(88,88,88)" stroke="none" d="M 10171,14542 L 9949,14670 9949,14543 9951,14542 10171,14542 Z M 10222,14385 L 10391,14287 10391,14415 10222,14513 10222,14385 Z M 10217,14515 L 10180,14537 9959,14537 10217,14388 10217,14515 Z"/>
     <path fill="rgb(90,90,90)" stroke="none" d="M 10180,14537 L 9949,14670 9949,14543 9959,14537 10180,14537 Z M 10217,14388 L 10391,14287 10391,14415 10217,14515 10217,14388 Z M 10211,14519 L 10190,14531 9970,14531 10211,14391 10211,14519 Z"/>
     <path fill="rgb(92,92,92)" stroke="none" d="M 10190,14531 L 9949,14670 9949,14543 9970,14531 10190,14531 Z M 10211,14391 L 10391,14287 10391,14415 10211,14519 10211,14391 Z M 10206,14522 L 10199,14526 9978,14526 10206,14394 10206,14522 Z"/>
     <path fill="rgb(95,95,95)" stroke="none" d="M 10199,14526 L 9949,14670 9949,14543 9978,14526 10199,14526 Z M 10206,14394 L 10391,14287 10391,14415 10206,14522 10206,14394 Z M 10201,14521 L 9987,14521 10201,14397 10201,14521 Z"/>
     <path fill="rgb(97,97,97)" stroke="none" d="M 10201,14521 L 10201,14397 10391,14287 10391,14415 9949,14670 9949,14543 9987,14521 10201,14521 Z M 10196,14516 L 9996,14516 10196,14400 10196,14516 Z"/>
     <path fill="rgb(99,99,99)" stroke="none" d="M 10196,14516 L 10196,14400 10391,14287 10391,14415 9949,14670 9949,14543 9996,14516 10196,14516 Z M 10191,14511 L 10004,14511 10191,14403 10191,14511 Z"/>
     <path fill="rgb(102,102,102)" stroke="none" d="M 10191,14511 L 10191,14403 10391,14287 10391,14415 9949,14670 9949,14543 10004,14511 10191,14511 Z M 10186,14506 L 10013,14506 10186,14406 10186,14506 Z"/>
     <path fill="rgb(104,104,104)" stroke="none" d="M 10186,14506 L 10186,14406 10391,14287 10391,14415 9949,14670 9949,14543 10013,14506 10186,14506 Z M 10181,14501 L 10022,14501 10181,14409 10181,14501 Z"/>
     <path fill="rgb(106,106,106)" stroke="none" d="M 10181,14501 L 10181,14409 10391,14287 10391,14415 9949,14670 9949,14543 10022,14501 10181,14501 Z M 10176,14496 L 10030,14496 10176,14412 10176,14496 Z"/>
     <path fill="rgb(108,108,108)" stroke="none" d="M 10176,14496 L 10176,14412 10391,14287 10391,14415 9949,14670 9949,14543 10030,14496 10176,14496 Z M 10171,14491 L 10039,14491 10171,14414 10171,14491 Z"/>
     <path fill="rgb(111,111,111)" stroke="none" d="M 10171,14491 L 10171,14414 10391,14287 10391,14415 9949,14670 9949,14543 10039,14491 10171,14491 Z M 10166,14486 L 10047,14486 10166,14417 10166,14486 Z"/>
     <path fill="rgb(113,113,113)" stroke="none" d="M 10166,14486 L 10166,14417 10391,14287 10391,14415 9949,14670 9949,14543 10047,14486 10166,14486 Z M 10161,14481 L 10056,14481 10161,14420 10161,14481 Z"/>
     <path fill="rgb(115,115,115)" stroke="none" d="M 10161,14481 L 10161,14420 10391,14287 10391,14415 9949,14670 9949,14543 10056,14481 10161,14481 Z M 10156,14476 L 10065,14476 10156,14423 10156,14476 Z"/>
     <path fill="rgb(118,118,118)" stroke="none" d="M 10156,14476 L 10156,14423 10391,14287 10391,14415 9949,14670 9949,14543 10065,14476 10156,14476 Z M 10151,14471 L 10073,14471 10151,14426 10151,14471 Z"/>
     <path fill="rgb(120,120,120)" stroke="none" d="M 10151,14471 L 10151,14426 10391,14287 10391,14415 9949,14670 9949,14543 10073,14471 10151,14471 Z M 10146,14466 L 10082,14466 10146,14429 10146,14466 Z"/>
     <path fill="rgb(122,122,122)" stroke="none" d="M 10146,14466 L 10146,14429 10391,14287 10391,14415 9949,14670 9949,14543 10082,14466 10146,14466 Z M 10141,14461 L 10091,14461 10141,14432 10141,14461 Z"/>
     <path fill="rgb(125,125,125)" stroke="none" d="M 10141,14461 L 10141,14432 10391,14287 10391,14415 9949,14670 9949,14543 10091,14461 10141,14461 Z M 10136,14456 L 10099,14456 10136,14435 10136,14456 Z"/>
     <path fill="rgb(127,127,127)" stroke="none" d="M 10136,14456 L 10136,14435 10391,14287 10391,14415 9949,14670 9949,14543 10099,14456 10136,14456 Z M 10131,14451 L 10108,14451 10131,14438 10131,14451 Z"/>
     <path fill="rgb(129,129,129)" stroke="none" d="M 10131,14451 L 10131,14438 10391,14287 10391,14415 9949,14670 9949,14543 10108,14451 10131,14451 Z M 10126,14446 L 10116,14446 10126,14440 10126,14446 Z"/>
     <path fill="rgb(132,132,132)" stroke="none" d="M 10126,14446 L 10126,14440 10391,14287 10391,14415 9949,14670 9949,14543 10116,14446 10126,14446 Z"/>
     <path fill="rgb(134,134,134)" stroke="none" d="M 9949,14670 L 9949,14543 10391,14287 10391,14415 9949,14670 Z"/>
     <path fill="rgb(136,136,136)" stroke="none" d="M 9949,14670 L 9949,14543 10391,14287 10391,14415 9949,14670 Z"/>
     <path fill="rgb(139,139,139)" stroke="none" d="M 9949,14670 L 9949,14543 10391,14287 10391,14415 9949,14670 Z"/>
     <path fill="rgb(141,141,141)" stroke="none" d="M 9949,14670 L 9949,14543 10391,14287 10391,14415 9949,14670 Z"/>
     <path fill="rgb(143,143,143)" stroke="none" d="M 9949,14670 L 9949,14543 10391,14287 10391,14415 9949,14670 Z"/>
     <path fill="rgb(146,146,146)" stroke="none" d="M 9949,14670 L 9949,14543 10391,14287 10391,14415 9949,14670 Z"/>
     <path fill="rgb(148,148,148)" stroke="none" d="M 9949,14670 L 9949,14543 10391,14287 10391,14415 9949,14670 Z"/>
     <path fill="rgb(153,153,153)" stroke="none" d="M 9949,14670 L 9949,14543 10391,14287 10391,14415 9949,14670 Z"/>
     <path fill="none" stroke="rgb(178,178,178)" id="Drawing_8_0" stroke-width="40" stroke-linejoin="round" d="M 9949,14670 L 9949,14543 10391,14287 10391,14415 9949,14670 Z"/>
    </g>
    <g>
     <path fill="rgb(51,51,51)" stroke="none" d="M 11513,13767 L 11257,13915 11165,13915 11165,13841 11513,13639 11513,13767 Z"/>
     <path fill="rgb(53,53,53)" stroke="none" d="M 11257,13915 L 11165,13968 11165,13915 11257,13915 Z M 11513,13639 L 11607,13585 11607,13713 11513,13767 11513,13639 Z M 11508,13770 L 11266,13910 11165,13910 11165,13841 11508,13642 11508,13770 Z"/>
     <path fill="rgb(55,55,55)" stroke="none" d="M 11266,13910 L 11165,13968 11165,13910 11266,13910 Z M 11508,13642 L 11607,13585 11607,13713 11508,13770 11508,13642 Z M 11503,13773 L 11274,13905 11165,13905 11165,13841 11503,13645 11503,13773 Z"/>
     <path fill="rgb(57,57,57)" stroke="none" d="M 11274,13905 L 11165,13968 11165,13905 11274,13905 Z M 11503,13645 L 11607,13585 11607,13713 11503,13773 11503,13645 Z M 11498,13776 L 11283,13900 11165,13900 11165,13841 11498,13648 11498,13776 Z"/>
     <path fill="rgb(60,60,60)" stroke="none" d="M 11283,13900 L 11165,13968 11165,13900 11283,13900 Z M 11498,13648 L 11607,13585 11607,13713 11498,13776 11498,13648 Z M 11493,13779 L 11292,13895 11165,13895 11165,13841 11493,13651 11493,13779 Z"/>
     <path fill="rgb(62,62,62)" stroke="none" d="M 11292,13895 L 11165,13968 11165,13895 11292,13895 Z M 11493,13651 L 11607,13585 11607,13713 11493,13779 11493,13651 Z M 11488,13782 L 11300,13890 11165,13890 11165,13841 11488,13654 11488,13782 Z"/>
     <path fill="rgb(64,64,64)" stroke="none" d="M 11300,13890 L 11165,13968 11165,13890 11300,13890 Z M 11488,13654 L 11607,13585 11607,13713 11488,13782 11488,13654 Z M 11483,13785 L 11309,13885 11165,13885 11165,13841 11483,13657 11483,13785 Z"/>
     <path fill="rgb(67,67,67)" stroke="none" d="M 11309,13885 L 11165,13968 11165,13885 11309,13885 Z M 11483,13657 L 11607,13585 11607,13713 11483,13785 11483,13657 Z M 11478,13787 L 11318,13880 11165,13880 11165,13841 11478,13660 11478,13787 Z"/>
     <path fill="rgb(69,69,69)" stroke="none" d="M 11318,13880 L 11165,13968 11165,13880 11318,13880 Z M 11478,13660 L 11607,13585 11607,13713 11478,13787 11478,13660 Z M 11473,13790 L 11326,13875 11165,13875 11165,13841 11473,13663 11473,13790 Z"/>
     <path fill="rgb(71,71,71)" stroke="none" d="M 11326,13875 L 11165,13968 11165,13875 11326,13875 Z M 11473,13663 L 11607,13585 11607,13713 11473,13790 11473,13663 Z M 11468,13793 L 11335,13870 11165,13870 11165,13841 11468,13666 11468,13793 Z"/>
     <path fill="rgb(74,74,74)" stroke="none" d="M 11335,13870 L 11165,13968 11165,13870 11335,13870 Z M 11468,13666 L 11607,13585 11607,13713 11468,13793 11468,13666 Z M 11463,13796 L 11344,13865 11165,13865 11165,13841 11463,13668 11463,13796 Z"/>
     <path fill="rgb(76,76,76)" stroke="none" d="M 11344,13865 L 11165,13968 11165,13865 11344,13865 Z M 11463,13668 L 11607,13585 11607,13713 11463,13796 11463,13668 Z M 11458,13799 L 11352,13860 11165,13860 11165,13841 11458,13671 11458,13799 Z"/>
     <path fill="rgb(78,78,78)" stroke="none" d="M 11352,13860 L 11165,13968 11165,13860 11352,13860 Z M 11458,13671 L 11607,13585 11607,13713 11458,13799 11458,13671 Z M 11453,13802 L 11361,13855 11165,13855 11165,13841 11453,13674 11453,13802 Z"/>
     <path fill="rgb(81,81,81)" stroke="none" d="M 11361,13855 L 11165,13968 11165,13855 11361,13855 Z M 11453,13674 L 11607,13585 11607,13713 11453,13802 11453,13674 Z M 11448,13805 L 11370,13850 11165,13850 11165,13841 11448,13677 11448,13805 Z"/>
     <path fill="rgb(83,83,83)" stroke="none" d="M 11370,13850 L 11165,13968 11165,13850 11370,13850 Z M 11448,13677 L 11607,13585 11607,13713 11448,13805 11448,13677 Z M 11443,13808 L 11378,13845 11165,13845 11165,13841 11443,13680 11443,13808 Z"/>
     <path fill="rgb(85,85,85)" stroke="none" d="M 11378,13845 L 11165,13968 11165,13845 11378,13845 Z M 11443,13680 L 11607,13585 11607,13713 11443,13808 11443,13680 Z M 11438,13811 L 11387,13840 11167,13840 11438,13683 11438,13811 Z"/>
     <path fill="rgb(88,88,88)" stroke="none" d="M 11387,13840 L 11165,13968 11165,13841 11167,13840 11387,13840 Z M 11438,13683 L 11607,13585 11607,13713 11438,13811 11438,13683 Z M 11433,13813 L 11396,13835 11175,13835 11433,13686 11433,13813 Z"/>
     <path fill="rgb(90,90,90)" stroke="none" d="M 11396,13835 L 11165,13968 11165,13841 11175,13835 11396,13835 Z M 11433,13686 L 11607,13585 11607,13713 11433,13813 11433,13686 Z M 11427,13817 L 11406,13829 11186,13829 11427,13689 11427,13817 Z"/>
     <path fill="rgb(92,92,92)" stroke="none" d="M 11406,13829 L 11165,13968 11165,13841 11186,13829 11406,13829 Z M 11427,13689 L 11607,13585 11607,13713 11427,13817 11427,13689 Z M 11422,13820 L 11415,13824 11194,13824 11422,13692 11422,13820 Z"/>
     <path fill="rgb(95,95,95)" stroke="none" d="M 11415,13824 L 11165,13968 11165,13841 11194,13824 11415,13824 Z M 11422,13692 L 11607,13585 11607,13713 11422,13820 11422,13692 Z M 11417,13819 L 11203,13819 11417,13695 11417,13819 Z"/>
     <path fill="rgb(97,97,97)" stroke="none" d="M 11417,13819 L 11417,13695 11607,13585 11607,13713 11165,13968 11165,13841 11203,13819 11417,13819 Z M 11412,13814 L 11212,13814 11412,13698 11412,13814 Z"/>
     <path fill="rgb(99,99,99)" stroke="none" d="M 11412,13814 L 11412,13698 11607,13585 11607,13713 11165,13968 11165,13841 11212,13814 11412,13814 Z M 11407,13809 L 11220,13809 11407,13701 11407,13809 Z"/>
     <path fill="rgb(102,102,102)" stroke="none" d="M 11407,13809 L 11407,13701 11607,13585 11607,13713 11165,13968 11165,13841 11220,13809 11407,13809 Z M 11402,13804 L 11229,13804 11402,13704 11402,13804 Z"/>
     <path fill="rgb(104,104,104)" stroke="none" d="M 11402,13804 L 11402,13704 11607,13585 11607,13713 11165,13968 11165,13841 11229,13804 11402,13804 Z M 11397,13799 L 11238,13799 11397,13707 11397,13799 Z"/>
     <path fill="rgb(106,106,106)" stroke="none" d="M 11397,13799 L 11397,13707 11607,13585 11607,13713 11165,13968 11165,13841 11238,13799 11397,13799 Z M 11392,13794 L 11246,13794 11392,13710 11392,13794 Z"/>
     <path fill="rgb(108,108,108)" stroke="none" d="M 11392,13794 L 11392,13710 11607,13585 11607,13713 11165,13968 11165,13841 11246,13794 11392,13794 Z M 11387,13789 L 11255,13789 11387,13712 11387,13789 Z"/>
     <path fill="rgb(111,111,111)" stroke="none" d="M 11387,13789 L 11387,13712 11607,13585 11607,13713 11165,13968 11165,13841 11255,13789 11387,13789 Z M 11382,13784 L 11263,13784 11382,13715 11382,13784 Z"/>
     <path fill="rgb(113,113,113)" stroke="none" d="M 11382,13784 L 11382,13715 11607,13585 11607,13713 11165,13968 11165,13841 11263,13784 11382,13784 Z M 11377,13779 L 11272,13779 11377,13718 11377,13779 Z"/>
     <path fill="rgb(115,115,115)" stroke="none" d="M 11377,13779 L 11377,13718 11607,13585 11607,13713 11165,13968 11165,13841 11272,13779 11377,13779 Z M 11372,13774 L 11281,13774 11372,13721 11372,13774 Z"/>
     <path fill="rgb(118,118,118)" stroke="none" d="M 11372,13774 L 11372,13721 11607,13585 11607,13713 11165,13968 11165,13841 11281,13774 11372,13774 Z M 11367,13769 L 11289,13769 11367,13724 11367,13769 Z"/>
     <path fill="rgb(120,120,120)" stroke="none" d="M 11367,13769 L 11367,13724 11607,13585 11607,13713 11165,13968 11165,13841 11289,13769 11367,13769 Z M 11362,13764 L 11298,13764 11362,13727 11362,13764 Z"/>
     <path fill="rgb(122,122,122)" stroke="none" d="M 11362,13764 L 11362,13727 11607,13585 11607,13713 11165,13968 11165,13841 11298,13764 11362,13764 Z M 11357,13759 L 11307,13759 11357,13730 11357,13759 Z"/>
     <path fill="rgb(125,125,125)" stroke="none" d="M 11357,13759 L 11357,13730 11607,13585 11607,13713 11165,13968 11165,13841 11307,13759 11357,13759 Z M 11352,13754 L 11315,13754 11352,13733 11352,13754 Z"/>
     <path fill="rgb(127,127,127)" stroke="none" d="M 11352,13754 L 11352,13733 11607,13585 11607,13713 11165,13968 11165,13841 11315,13754 11352,13754 Z M 11347,13749 L 11324,13749 11347,13736 11347,13749 Z"/>
     <path fill="rgb(129,129,129)" stroke="none" d="M 11347,13749 L 11347,13736 11607,13585 11607,13713 11165,13968 11165,13841 11324,13749 11347,13749 Z M 11342,13744 L 11332,13744 11342,13738 11342,13744 Z"/>
     <path fill="rgb(132,132,132)" stroke="none" d="M 11342,13744 L 11342,13738 11607,13585 11607,13713 11165,13968 11165,13841 11332,13744 11342,13744 Z"/>
     <path fill="rgb(134,134,134)" stroke="none" d="M 11165,13968 L 11165,13841 11607,13585 11607,13713 11165,13968 Z"/>
     <path fill="rgb(136,136,136)" stroke="none" d="M 11165,13968 L 11165,13841 11607,13585 11607,13713 11165,13968 Z"/>
     <path fill="rgb(139,139,139)" stroke="none" d="M 11165,13968 L 11165,13841 11607,13585 11607,13713 11165,13968 Z"/>
     <path fill="rgb(141,141,141)" stroke="none" d="M 11165,13968 L 11165,13841 11607,13585 11607,13713 11165,13968 Z"/>
     <path fill="rgb(143,143,143)" stroke="none" d="M 11165,13968 L 11165,13841 11607,13585 11607,13713 11165,13968 Z"/>
     <path fill="rgb(146,146,146)" stroke="none" d="M 11165,13968 L 11165,13841 11607,13585 11607,13713 11165,13968 Z"/>
     <path fill="rgb(148,148,148)" stroke="none" d="M 11165,13968 L 11165,13841 11607,13585 11607,13713 11165,13968 Z"/>
     <path fill="rgb(153,153,153)" stroke="none" d="M 11165,13968 L 11165,13841 11607,13585 11607,13713 11165,13968 Z"/>
     <path fill="none" stroke="rgb(178,178,178)" id="Drawing_9_0" stroke-width="40" stroke-linejoin="round" d="M 11165,13968 L 11165,13841 11607,13585 11607,13713 11165,13968 Z"/>
    </g>
    <g>
     <path fill="none" stroke="rgb(0,0,0)" id="Drawing_10_0" stroke-width="40" stroke-linejoin="round" d="M 8291,13712 L 8291,12626 9949,11668 11607,12626 11607,13712 11165,13968 11165,13840 10391,14287 10391,14415 9949,14671 9507,14415 9507,14287 8733,13840 8733,13968 8291,13712 Z"/>
    </g>
   </g>
  </g>
 </g>
</svg>