<?xml version="1.0" encoding="UTF-8"?>

<svg version="1.2" baseProfile="tiny" width="69.31mm" height="48.67mm" viewBox="4501 6638 6931 4867" preserveAspectRatio="xMidYMid" fill-rule="evenodd" stroke-width="28.222" stroke-linejoin="round" xmlns="http://www.w3.org/2000/svg" xmlns:xlink="http://www.w3.org/1999/xlink" xml:space="preserve">
 <g visibility="visible" id="Slide_1">
  <g id="DrawingGroup_1">
   <g id="DrawingGroup_2">
    <g>
     <path fill="rgb(221,221,221)" stroke="none" d="M 8265,11485 C 8528,11485 11432,10209 11432,9820 11432,9432 11024,9432 10760,9432 10760,9598 8169,10264 8265,11485 Z"/>
     <path fill="none" stroke="rgb(221,221,221)" id="Drawing_1_0" stroke-linejoin="round" d="M 8265,11485 C 8528,11485 11432,10209 11432,9820 11432,9432 11024,9432 10760,9432 10760,9598 8169,10264 8265,11485 Z"/>
    </g>
    <g id="DrawingGroup_3">
     <g>
      <defs>
       <linearGradient id="Gradient_886" gradientUnits="userSpaceOnUse" x1="4709" y1="9844" x2="8074" y2="9850">
        <stop offset="0.1" stop-color="rgb(179,179,179)"/>
        <stop offset="1" stop-color="rgb(229,229,229)"/>
       </linearGradient>
      </defs>
      <path fill="url(#Gradient_886)" stroke="rgb(255,255,255)" id="Drawing_2_0" stroke-width="40" stroke-linejoin="round" d="M 4713,9432 L 4713,8322 8072,10264 8072,11373 4713,9432 Z"/>
     </g>
     <g>
      <path fill="rgb(179,179,179)" stroke="none" d="M 10346,10060 L 8991,10843 8072,10843 8072,10264 10346,8950 10346,10060 Z"/>
      <path fill="rgb(180,180,180)" stroke="none" d="M 8991,10843 L 8072,11374 8072,10843 8991,10843 Z M 10346,8950 L 10951,8600 10951,9710 10346,10060 10346,8950 Z M 10317,10076 L 9041,10814 8072,10814 8072,10264 10317,8966 10317,10076 Z"/>
      <path fill="rgb(181,181,181)" stroke="none" d="M 9041,10814 L 8072,11374 8072,10814 9041,10814 Z M 10317,8966 L 10951,8600 10951,9710 10317,10076 10317,8966 Z M 10288,10093 L 9091,10785 8072,10785 8072,10264 10288,8983 10288,10093 Z"/>
      <path fill="rgb(182,182,182)" stroke="none" d="M 9091,10785 L 8072,11374 8072,10785 9091,10785 Z M 10288,8983 L 10951,8600 10951,9710 10288,10093 10288,8983 Z M 10259,10110 L 9141,10756 8072,10756 8072,10264 10259,9000 10259,10110 Z"/>
      <path fill="rgb(183,183,183)" stroke="none" d="M 9141,10756 L 8072,11374 8072,10756 9141,10756 Z M 10259,9000 L 10951,8600 10951,9710 10259,10110 10259,9000 Z M 10230,10127 L 9191,10727 8072,10727 8072,10264 10230,9017 10230,10127 Z"/>
      <path fill="rgb(184,184,184)" stroke="none" d="M 9191,10727 L 8072,11374 8072,10727 9191,10727 Z M 10230,9017 L 10951,8600 10951,9710 10230,10127 10230,9017 Z M 10202,10143 L 9240,10699 8072,10699 8072,10264 10202,9033 10202,10143 Z"/>
      <path fill="rgb(185,185,185)" stroke="none" d="M 9240,10699 L 8072,11374 8072,10699 9240,10699 Z M 10202,9033 L 10951,8600 10951,9710 10202,10143 10202,9033 Z M 10173,10160 L 9290,10670 8072,10670 8072,10264 10173,9050 10173,10160 Z"/>
      <path fill="rgb(186,186,186)" stroke="none" d="M 9290,10670 L 8072,11374 8072,10670 9290,10670 Z M 10173,9050 L 10951,8600 10951,9710 10173,10160 10173,9050 Z M 10144,10176 L 9340,10641 8072,10641 8072,10264 10144,9066 10144,10176 Z"/>
      <path fill="rgb(187,187,187)" stroke="none" d="M 9340,10641 L 8072,11374 8072,10641 9340,10641 Z M 10144,9066 L 10951,8600 10951,9710 10144,10176 10144,9066 Z M 10115,10193 L 9390,10612 8072,10612 8072,10264 10115,9083 10115,10193 Z"/>
      <path fill="rgb(188,188,188)" stroke="none" d="M 9390,10612 L 8072,11374 8072,10612 9390,10612 Z M 10115,9083 L 10951,8600 10951,9710 10115,10193 10115,9083 Z M 10086,10210 L 9441,10583 8072,10583 8072,10264 10086,9100 10086,10210 Z"/>
      <path fill="rgb(189,189,189)" stroke="none" d="M 9441,10583 L 8072,11374 8072,10583 9441,10583 Z M 10086,9100 L 10951,8600 10951,9710 10086,10210 10086,9100 Z M 10057,10227 L 9491,10554 8072,10554 8072,10264 10057,9117 10057,10227 Z"/>
      <path fill="rgb(190,190,190)" stroke="none" d="M 9491,10554 L 8072,11374 8072,10554 9491,10554 Z M 10057,9117 L 10951,8600 10951,9710 10057,10227 10057,9117 Z M 10029,10243 L 9539,10526 8072,10526 8072,10264 10029,9133 10029,10243 Z"/>
      <path fill="rgb(191,191,191)" stroke="none" d="M 9539,10526 L 8072,11374 8072,10526 9539,10526 Z M 10029,9133 L 10951,8600 10951,9710 10029,10243 10029,9133 Z M 10000,10260 L 9589,10497 8072,10497 8072,10264 10000,9150 10000,10260 Z"/>
      <path fill="rgb(192,192,192)" stroke="none" d="M 9589,10497 L 8072,11374 8072,10497 9589,10497 Z M 10000,9150 L 10951,8600 10951,9710 10000,10260 10000,9150 Z M 9971,10276 L 9640,10468 8072,10468 8072,10264 9971,9166 9971,10276 Z"/>
      <path fill="rgb(193,193,193)" stroke="none" d="M 9640,10468 L 8072,11374 8072,10468 9640,10468 Z M 9971,9166 L 10951,8600 10951,9710 9971,10276 9971,9166 Z M 9942,10293 L 9690,10439 8072,10439 8072,10264 9942,9183 9942,10293 Z"/>
      <path fill="rgb(194,194,194)" stroke="none" d="M 9690,10439 L 8072,11374 8072,10439 9690,10439 Z M 9942,9183 L 10951,8600 10951,9710 9942,10293 9942,9183 Z M 9913,10310 L 9740,10410 8072,10410 8072,10264 9913,9200 9913,10310 Z"/>
      <path fill="rgb(195,195,195)" stroke="none" d="M 9740,10410 L 8072,11374 8072,10410 9740,10410 Z M 9913,9200 L 10951,8600 10951,9710 9913,10310 9913,9200 Z M 9885,10326 L 9788,10382 8072,10382 8072,10264 9885,9216 9885,10326 Z"/>
      <path fill="rgb(196,196,196)" stroke="none" d="M 9788,10382 L 8072,11374 8072,10382 9788,10382 Z M 9885,9216 L 10951,8600 10951,9710 9885,10326 9885,9216 Z M 9856,10343 L 9839,10353 8072,10353 8072,10264 9856,9233 9856,10343 Z"/>
      <path fill="rgb(197,197,197)" stroke="none" d="M 9839,10353 L 8072,11374 8072,10353 9839,10353 Z M 9856,9233 L 10951,8600 10951,9710 9856,10343 9856,9233 Z M 9827,10324 L 8072,10324 8072,10264 9827,9250 9827,10324 Z"/>
      <path fill="rgb(198,198,198)" stroke="none" d="M 9827,10324 L 9827,9250 10951,8600 10951,9710 8072,11374 8072,10324 9827,10324 Z M 9798,10295 L 8072,10295 8072,10264 9798,9266 9798,10295 Z"/>
      <path fill="rgb(199,199,199)" stroke="none" d="M 9798,10295 L 9798,9266 10951,8600 10951,9710 8072,11374 8072,10295 9798,10295 Z M 9769,10266 L 8099,10266 8099,10248 9769,9283 9769,10266 Z"/>
      <path fill="rgb(200,200,200)" stroke="none" d="M 8099,10266 L 9769,10266 9769,9283 10951,8600 10951,9710 8072,11374 8072,10264 8099,10248 8099,10266 Z M 9740,10237 L 8128,10237 8128,10232 9740,9300 9740,10237 Z"/>
      <path fill="rgb(201,201,201)" stroke="none" d="M 8128,10237 L 9740,10237 9740,9300 10951,8600 10951,9710 8072,11374 8072,10264 8128,10232 8128,10237 Z M 9712,10209 L 8167,10209 9712,9316 9712,10209 Z"/>
      <path fill="rgb(202,202,202)" stroke="none" d="M 9712,10209 L 9712,9316 10951,8600 10951,9710 8072,11374 8072,10264 8167,10209 9712,10209 Z M 9683,10180 L 8217,10180 9683,9333 9683,10180 Z"/>
      <path fill="rgb(203,203,203)" stroke="none" d="M 9683,10180 L 9683,9333 10951,8600 10951,9710 8072,11374 8072,10264 8217,10180 9683,10180 Z M 9654,10151 L 8268,10151 9654,9350 9654,10151 Z"/>
      <path fill="rgb(204,204,204)" stroke="none" d="M 9654,10151 L 9654,9350 10951,8600 10951,9710 8072,11374 8072,10264 8268,10151 9654,10151 Z M 9625,10122 L 8318,10122 9625,9366 9625,10122 Z"/>
      <path fill="rgb(205,205,205)" stroke="none" d="M 9625,10122 L 9625,9366 10951,8600 10951,9710 8072,11374 8072,10264 8318,10122 9625,10122 Z M 9596,10093 L 8368,10093 9596,9383 9596,10093 Z"/>
      <path fill="rgb(206,206,206)" stroke="none" d="M 9596,10093 L 9596,9383 10951,8600 10951,9710 8072,11374 8072,10264 8368,10093 9596,10093 Z M 9568,10065 L 8416,10065 9568,9399 9568,10065 Z"/>
      <path fill="rgb(207,207,207)" stroke="none" d="M 9568,10065 L 9568,9399 10951,8600 10951,9710 8072,11374 8072,10264 8416,10065 9568,10065 Z M 9539,10036 L 8466,10036 9539,9416 9539,10036 Z"/>
      <path fill="rgb(208,208,208)" stroke="none" d="M 9539,10036 L 9539,9416 10951,8600 10951,9710 8072,11374 8072,10264 8466,10036 9539,10036 Z M 9510,10007 L 8517,10007 9510,9433 9510,10007 Z"/>
      <path fill="rgb(209,209,209)" stroke="none" d="M 9510,10007 L 9510,9433 10951,8600 10951,9710 8072,11374 8072,10264 8517,10007 9510,10007 Z M 9481,9978 L 8567,9978 9481,9450 9481,9978 Z"/>
      <path fill="rgb(210,210,210)" stroke="none" d="M 9481,9978 L 9481,9450 10951,8600 10951,9710 8072,11374 8072,10264 8567,9978 9481,9978 Z M 9452,9949 L 8617,9949 9452,9466 9452,9949 Z"/>
      <path fill="rgb(211,211,211)" stroke="none" d="M 9452,9949 L 9452,9466 10951,8600 10951,9710 8072,11374 8072,10264 8617,9949 9452,9949 Z M 9423,9920 L 8667,9920 9423,9483 9423,9920 Z"/>
      <path fill="rgb(212,212,212)" stroke="none" d="M 9423,9920 L 9423,9483 10951,8600 10951,9710 8072,11374 8072,10264 8667,9920 9423,9920 Z M 9395,9892 L 8716,9892 9395,9499 9395,9892 Z"/>
      <path fill="rgb(213,213,213)" stroke="none" d="M 9395,9892 L 9395,9499 10951,8600 10951,9710 8072,11374 8072,10264 8716,9892 9395,9892 Z M 9366,9863 L 8766,9863 9366,9516 9366,9863 Z"/>
      <path fill="rgb(214,214,214)" stroke="none" d="M 9366,9863 L 9366,9516 10951,8600 10951,9710 8072,11374 8072,10264 8766,9863 9366,9863 Z M 9337,9834 L 8816,9834 9337,9533 9337,9834 Z"/>
      <path fill="rgb(215,215,215)" stroke="none" d="M 9337,9834 L 9337,9533 10951,8600 10951,9710 8072,11374 8072,10264 8816,9834 9337,9834 Z M 9308,9805 L 8866,9805 9308,9550 9308,9805 Z"/>
      <path fill="rgb(216,216,216)" stroke="none" d="M 9308,9805 L 9308,9550 10951,8600 10951,9710 8072,11374 8072,10264 8866,9805 9308,9805 Z M 9279,9776 L 8916,9776 9279,9566 9279,9776 Z"/>
      <path fill="rgb(217,217,217)" stroke="none" d="M 9279,9776 L 9279,9566 10951,8600 10951,9710 8072,11374 8072,10264 8916,9776 9279,9776 Z M 9251,9748 L 8965,9748 9251,9583 9251,9748 Z"/>
      <path fill="rgb(218,218,218)" stroke="none" d="M 9251,9748 L 9251,9583 10951,8600 10951,9710 8072,11374 8072,10264 8965,9748 9251,9748 Z M 9222,9719 L 9015,9719 9222,9599 9222,9719 Z"/>
      <path fill="rgb(219,219,219)" stroke="none" d="M 9222,9719 L 9222,9599 10951,8600 10951,9710 8072,11374 8072,10264 9015,9719 9222,9719 Z M 9193,9690 L 9065,9690 9193,9616 9193,9690 Z"/>
      <path fill="rgb(220,220,220)" stroke="none" d="M 9193,9690 L 9193,9616 10951,8600 10951,9710 8072,11374 8072,10264 9065,9690 9193,9690 Z M 9164,9661 L 9115,9661 9164,9633 9164,9661 Z"/>
      <path fill="rgb(221,221,221)" stroke="none" d="M 9164,9661 L 9164,9633 10951,8600 10951,9710 8072,11374 8072,10264 9115,9661 9164,9661 Z"/>
      <path fill="rgb(222,222,222)" stroke="none" d="M 8072,11374 L 8072,10264 10951,8600 10951,9710 8072,11374 Z"/>
      <path fill="rgb(223,223,223)" stroke="none" d="M 8072,11374 L 8072,10264 10951,8600 10951,9710 8072,11374 Z"/>
      <path fill="rgb(224,224,224)" stroke="none" d="M 8072,11374 L 8072,10264 10951,8600 10951,9710 8072,11374 Z"/>
      <path fill="rgb(225,225,225)" stroke="none" d="M 8072,11374 L 8072,10264 10951,8600 10951,9710 8072,11374 Z"/>
      <path fill="rgb(226,226,226)" stroke="none" d="M 8072,11374 L 8072,10264 10951,8600 10951,9710 8072,11374 Z"/>
      <path fill="rgb(227,227,227)" stroke="none" d="M 8072,11374 L 8072,10264 10951,8600 10951,9710 8072,11374 Z"/>
      <path fill="rgb(229,229,229)" stroke="none" d="M 8072,11374 L 8072,10264 10951,8600 10951,9710 8072,11374 Z"/>
      <path fill="none" stroke="rgb(255,255,255)" id="Drawing_3_0" stroke-width="40" stroke-linejoin="round" d="M 8072,11374 L 8072,10264 10951,8600 10951,9710 8072,11374 Z"/>
     </g>
     <g>
      <defs>
       <linearGradient id="Gradient_887" gradientUnits="userSpaceOnUse" x1="7832" y1="6658" x2="7832" y2="10264">
        <stop offset="0.1" stop-color="rgb(179,179,179)"/>
        <stop offset="1" stop-color="rgb(229,229,229)"/>
       </linearGradient>
      </defs>
      <path fill="url(#Gradient_887)" stroke="rgb(255,255,255)" id="Drawing_4_0" stroke-width="40" stroke-linejoin="round" d="M 8072,10264 L 4713,8322 7592,6658 10952,8600 8072,10264 Z"/>
     </g>
     <g>
      <path fill="none" stroke="rgb(127,127,127)" id="Drawing_5_0" stroke-width="40" stroke-linejoin="round" d="M 5865,9210 L 5865,9876"/>
     </g>
     <g>
      <path fill="none" stroke="rgb(255,255,255)" id="Drawing_6_0" stroke-width="40" stroke-linejoin="round" d="M 7977,10631 L 6441,9743"/>
     </g>
     <g>
      <path fill="none" stroke="rgb(255,255,255)" id="Drawing_7_0" stroke-width="40" stroke-linejoin="round" d="M 6432,9543 L 6432,9765"/>
     </g>
     <g>
      <path fill="none" stroke="rgb(0,0,0)" id="Drawing_8_0" stroke-width="40" stroke-linejoin="round" d="M 7968,10431 L 7968,10653"/>
     </g>
     <g>
      <path fill="none" stroke="rgb(0,0,0)" id="Drawing_9_0" stroke-width="40" stroke-linejoin="round" d="M 7968,10431 L 6432,9543"/>
     </g>
     <g>
      <path fill="rgb(57,181,74)" stroke="none" d="M 6057,9543 L 6057,9321 6249,9432 6249,9654 6057,9543 Z"/>
      <path fill="none" stroke="rgb(0,0,0)" id="Drawing_10_0" stroke-width="40" stroke-linejoin="round" d="M 6057,9543 L 6057,9321 6249,9432 6249,9654 6057,9543 Z"/>
     </g>
     <g>
      <path fill="none" stroke="rgb(127,127,127)" id="Drawing_11_0" stroke-width="40" stroke-linejoin="round" d="M 5673,9099 L 5673,9765"/>
     </g>
     <g>
      <path fill="none" stroke="rgb(127,127,127)" id="Drawing_12_0" stroke-width="40" stroke-linejoin="round" d="M 5481,8988 L 5481,9654"/>
     </g>
     <g>
      <path fill="none" stroke="rgb(127,127,127)" id="Drawing_13_0" stroke-width="40" stroke-linejoin="round" d="M 5289,8877 L 5289,9543"/>
     </g>
     <g>
      <path fill="none" stroke="rgb(127,127,127)" id="Drawing_14_0" stroke-width="40" stroke-linejoin="round" d="M 5097,8766 L 5097,9432"/>
     </g>
     <g>
      <path fill="none" stroke="rgb(127,127,127)" id="Drawing_15_0" stroke-width="40" stroke-linejoin="round" d="M 4905,8655 L 4905,9321"/>
     </g>
     <g>
      <defs>
       <linearGradient id="Gradient_888" gradientUnits="userSpaceOnUse" x1="4520" y1="8821" x2="4714" y2="8821">
        <stop offset="0.1" stop-color="rgb(179,179,179)"/>
        <stop offset="1" stop-color="rgb(229,229,229)"/>
       </linearGradient>
      </defs>
      <path fill="url(#Gradient_888)" stroke="rgb(255,255,255)" id="Drawing_16_0" stroke-width="40" stroke-linejoin="round" d="M 4521,9321 L 4521,8211 4713,8322 4713,9432 4521,9321 Z"/>
     </g>
     <g>
      <defs>
       <linearGradient id="Gradient_889" gradientUnits="userSpaceOnUse" x1="8071" y1="10874" x2="8265" y2="10874">
        <stop offset="0.1" stop-color="rgb(179,179,179)"/>
        <stop offset="1" stop-color="rgb(229,229,229)"/>
       </linearGradient>
      </defs>
      <path fill="url(#Gradient_889)" stroke="rgb(255,255,255)" id="Drawing_17_0" stroke-width="40" stroke-linejoin="round" d="M 8072,11374 L 8072,10264 8264,10375 8264,11485 8072,11374 Z"/>
     </g>
     <g>
      <path fill="none" stroke="rgb(0,0,0)" id="Drawing_18_0" stroke-width="40" stroke-linejoin="round" d="M 4521,9321 L 4521,8211 4713,8322 7592,6658 10952,8600 10952,9709 8264,11263 8264,11485 4521,9321 Z"/>
     </g>
    </g>
   </g>
   <g id="DrawingGroup_4">
    <g>
     <defs>
      <linearGradient id="Gradient_890" gradientUnits="userSpaceOnUse" x1="9539" y1="10077" x2="9539" y2="10722">
       <stop offset="0.1" stop-color="rgb(222,142,150)"/>
       <stop offset="1" stop-color="rgb(248,232,234)"/>
      </linearGradient>
     </defs>
     <path fill="url(#Gradient_890)" stroke="rgb(255,255,255)" id="Drawing_19_0" stroke-width="40" stroke-linejoin="round" d="M 9793,10722 L 10098,10546 9286,10077 8981,10253 9793,10722 Z"/>
    </g>
    <g>
     <defs>
      <linearGradient id="Gradient_891" gradientUnits="userSpaceOnUse" x1="9182" y1="10211" x2="9895" y2="10213">
       <stop offset="0.1" stop-color="rgb(179,179,179)"/>
       <stop offset="1" stop-color="rgb(229,229,229)"/>
      </linearGradient>
     </defs>
     <path fill="url(#Gradient_891)" stroke="none" id="Drawing_20_0" d="M 9895,10560 L 9887,10423 9864,10297 9829,10185 9784,10086 9730,10001 9670,9931 9638,9903 9606,9878 9573,9858 9540,9842 9506,9830 9473,9823 9441,9821 9409,9824 9378,9831 9349,9843 9321,9861 9295,9884 9271,9912 9250,9945 9231,9985 9215,10029 9202,10080 9192,10136 9184,10267 9218,10286 9245,10300 9256,10305 9266,10309 9276,10311 9286,10311 9295,10311 9305,10309 9316,10305 9327,10300 9353,10286 9387,10267 9390,10198 9400,10145 9407,10124 9415,10106 9424,10092 9435,10082 9446,10074 9458,10070 9470,10069 9484,10071 9497,10076 9511,10083 9525,10093 9540,10106 9568,10138 9595,10179 9621,10228 9644,10284 9664,10346 9679,10413 9689,10485 9692,10560 9726,10579 9752,10593 9763,10598 9774,10602 9784,10604 9793,10604 9803,10604 9813,10602 9823,10598 9834,10593 9861,10579 9895,10560 Z"/>
     <path fill="none" stroke="rgb(255,255,255)" id="Drawing_20_1" stroke-width="40" stroke-linejoin="round" d="M 9895,10560 C 9895,9798 9184,9504 9184,10267 9286,10326 9286,10326 9387,10267 9387,9856 9692,10150 9692,10560 9793,10619 9793,10619 9895,10560 Z"/>
    </g>
    <g>
     <path fill="none" stroke="rgb(255,255,255)" id="Drawing_21_0" stroke-width="40" stroke-linejoin="round" d="M 9693,10546 C 9692,10018 9287,9784 9286,10194"/>
    </g>
    <g>
     <defs>
      <linearGradient id="Gradient_892" gradientUnits="userSpaceOnUse" x1="8980" y1="10868" x2="9794" y2="10870">
       <stop offset="0.1" stop-color="rgb(222,142,150)"/>
       <stop offset="1" stop-color="rgb(248,232,234)"/>
      </linearGradient>
     </defs>
     <path fill="url(#Gradient_892)" stroke="rgb(255,255,255)" id="Drawing_22_0" stroke-width="40" stroke-linejoin="round" d="M 9793,11485 L 9793,10722 8981,10253 8981,11016 9793,11485 Z"/>
    </g>
    <g>
     <defs>
      <linearGradient id="Gradient_893" gradientUnits="userSpaceOnUse" x1="9400" y1="10722" x2="9400" y2="11026">
       <stop offset="0.1" stop-color="rgb(0,0,0)"/>
       <stop offset="1" stop-color="rgb(255,255,255)"/>
      </linearGradient>
     </defs>
     <path fill="url(#Gradient_893)" stroke="none" id="Drawing_23_0" d="M 9330,10850 L 9316,10802 9314,10783 9313,10766 9315,10753 9319,10742 9321,10737 9324,10733 9327,10730 9331,10727 9335,10725 9339,10724 9349,10722 9359,10722 9370,10724 9382,10728 9394,10733 9418,10748 9441,10766 9461,10787 9470,10799 9477,10810 9482,10822 9486,10834 9488,10845 9488,10857 9486,10867 9480,10878 9473,10887 9462,10896 9448,10903 9431,10909 9431,11026 9330,10968 9330,10850 Z"/>
     <path fill="none" stroke="rgb(255,255,255)" id="Drawing_23_1" stroke-width="40" stroke-linejoin="round" d="M 9330,10850 C 9228,10557 9634,10850 9431,10909 L 9431,11026 9330,10968 9330,10850 Z"/>
    </g>
    <g>
     <path fill="rgb(222,142,150)" stroke="none" d="M 9793,11286 L 9793,10722 10098,10546 10098,11286 9793,11286 Z"/>
     <path fill="rgb(222,143,151)" stroke="none" d="M 10098,11286 L 10098,11309 9793,11485 9793,11286 10098,11286 Z M 9793,11276 L 9793,10722 10098,10546 10098,11276 9793,11276 Z"/>
     <path fill="rgb(223,145,153)" stroke="none" d="M 10098,11276 L 10098,11309 9793,11485 9793,11276 10098,11276 Z M 9793,11266 L 9793,10722 10098,10546 10098,11266 9793,11266 Z"/>
     <path fill="rgb(223,147,155)" stroke="none" d="M 10098,11266 L 10098,11309 9793,11485 9793,11266 10098,11266 Z M 9793,11256 L 9793,10722 10098,10546 10098,11256 9793,11256 Z"/>
     <path fill="rgb(224,149,157)" stroke="none" d="M 10098,11256 L 10098,11309 9793,11485 9793,11256 10098,11256 Z M 9793,11246 L 9793,10722 10098,10546 10098,11246 9793,11246 Z"/>
     <path fill="rgb(224,151,158)" stroke="none" d="M 10098,11246 L 10098,11309 9793,11485 9793,11246 10098,11246 Z M 9793,11236 L 9793,10722 10098,10546 10098,11236 9793,11236 Z"/>
     <path fill="rgb(225,153,160)" stroke="none" d="M 10098,11236 L 10098,11309 9793,11485 9793,11236 10098,11236 Z M 9793,11226 L 9793,10722 10098,10546 10098,11226 9793,11226 Z"/>
     <path fill="rgb(225,155,162)" stroke="none" d="M 10098,11226 L 10098,11309 9793,11485 9793,11226 10098,11226 Z M 9793,11216 L 9793,10722 10098,10546 10098,11216 9793,11216 Z"/>
     <path fill="rgb(226,157,164)" stroke="none" d="M 10098,11216 L 10098,11309 9793,11485 9793,11216 10098,11216 Z M 9793,11206 L 9793,10722 10098,10546 10098,11206 9793,11206 Z"/>
     <path fill="rgb(226,159,166)" stroke="none" d="M 10098,11206 L 10098,11309 9793,11485 9793,11206 10098,11206 Z M 9793,11196 L 9793,10722 10098,10546 10098,11196 9793,11196 Z"/>
     <path fill="rgb(227,161,167)" stroke="none" d="M 10098,11196 L 10098,11309 9793,11485 9793,11196 10098,11196 Z M 9793,11186 L 9793,10722 10098,10546 10098,11186 9793,11186 Z"/>
     <path fill="rgb(228,163,169)" stroke="none" d="M 10098,11186 L 10098,11309 9793,11485 9793,11186 10098,11186 Z M 9793,11176 L 9793,10722 10098,10546 10098,11176 9793,11176 Z"/>
     <path fill="rgb(228,164,171)" stroke="none" d="M 10098,11176 L 10098,11309 9793,11485 9793,11176 10098,11176 Z M 9793,11166 L 9793,10722 10098,10546 10098,11166 9793,11166 Z"/>
     <path fill="rgb(229,166,173)" stroke="none" d="M 10098,11166 L 10098,11309 9793,11485 9793,11166 10098,11166 Z M 9793,11156 L 9793,10722 10098,10546 10098,11156 9793,11156 Z"/>
     <path fill="rgb(229,168,175)" stroke="none" d="M 10098,11156 L 10098,11309 9793,11485 9793,11156 10098,11156 Z M 9793,11146 L 9793,10722 10098,10546 10098,11146 9793,11146 Z"/>
     <path fill="rgb(230,170,176)" stroke="none" d="M 10098,11146 L 10098,11309 9793,11485 9793,11146 10098,11146 Z M 9793,11136 L 9793,10722 10098,10546 10098,11136 9793,11136 Z"/>
     <path fill="rgb(230,172,178)" stroke="none" d="M 10098,11136 L 10098,11309 9793,11485 9793,11136 10098,11136 Z M 9793,11126 L 9793,10722 10098,10546 10098,11126 9793,11126 Z"/>
     <path fill="rgb(231,174,180)" stroke="none" d="M 10098,11126 L 10098,11309 9793,11485 9793,11126 10098,11126 Z M 9793,11116 L 9793,10722 10098,10546 10098,11116 9793,11116 Z"/>
     <path fill="rgb(231,176,182)" stroke="none" d="M 10098,11116 L 10098,11309 9793,11485 9793,11116 10098,11116 Z M 9793,11106 L 9793,10722 10098,10546 10098,11106 9793,11106 Z"/>
     <path fill="rgb(232,178,183)" stroke="none" d="M 10098,11106 L 10098,11309 9793,11485 9793,11106 10098,11106 Z M 10098,10556 L 10098,11096 9793,11096 9793,10722 10081,10556 10098,10556 Z"/>
     <path fill="rgb(233,180,185)" stroke="none" d="M 10098,11096 L 10098,11309 9793,11485 9793,11096 10098,11096 Z M 10081,10556 L 10098,10546 10098,10556 10081,10556 Z M 10098,10566 L 10098,11086 9793,11086 9793,10722 10063,10566 10098,10566 Z"/>
     <path fill="rgb(233,182,187)" stroke="none" d="M 10098,11086 L 10098,11309 9793,11485 9793,11086 10098,11086 Z M 10063,10566 L 10098,10546 10098,10566 10063,10566 Z M 10098,10576 L 10098,11076 9793,11076 9793,10722 10046,10576 10098,10576 Z"/>
     <path fill="rgb(234,184,189)" stroke="none" d="M 10098,11076 L 10098,11309 9793,11485 9793,11076 10098,11076 Z M 10046,10576 L 10098,10546 10098,10576 10046,10576 Z M 10098,10586 L 10098,11066 9793,11066 9793,10722 10029,10586 10098,10586 Z"/>
     <path fill="rgb(234,186,191)" stroke="none" d="M 10098,11066 L 10098,11309 9793,11485 9793,11066 10098,11066 Z M 10029,10586 L 10098,10546 10098,10586 10029,10586 Z M 10098,10596 L 10098,11056 9793,11056 9793,10722 10011,10596 10098,10596 Z"/>
     <path fill="rgb(235,187,192)" stroke="none" d="M 10098,11056 L 10098,11309 9793,11485 9793,11056 10098,11056 Z M 10011,10596 L 10098,10546 10098,10596 10011,10596 Z M 10098,10606 L 10098,11046 9793,11046 9793,10722 9994,10606 10098,10606 Z"/>
     <path fill="rgb(235,189,194)" stroke="none" d="M 10098,11046 L 10098,11309 9793,11485 9793,11046 10098,11046 Z M 9994,10606 L 10098,10546 10098,10606 9994,10606 Z M 10093,10616 L 10093,11036 9793,11036 9793,10722 9977,10616 10093,10616 Z"/>
     <path fill="rgb(236,191,196)" stroke="none" d="M 10093,11036 L 10093,10616 9977,10616 10098,10546 10098,11309 9793,11485 9793,11036 10093,11036 Z M 10083,10626 L 10083,11026 9793,11026 9793,10722 9959,10626 10083,10626 Z"/>
     <path fill="rgb(236,193,198)" stroke="none" d="M 10083,11026 L 10083,10626 9959,10626 10098,10546 10098,11309 9793,11485 9793,11026 10083,11026 Z M 10073,10636 L 10073,11016 9793,11016 9793,10722 9942,10636 10073,10636 Z"/>
     <path fill="rgb(237,195,200)" stroke="none" d="M 10073,11016 L 10073,10636 9942,10636 10098,10546 10098,11309 9793,11485 9793,11016 10073,11016 Z M 10063,10646 L 10063,11006 9793,11006 9793,10722 9925,10646 10063,10646 Z"/>
     <path fill="rgb(238,197,201)" stroke="none" d="M 10063,11006 L 10063,10646 9925,10646 10098,10546 10098,11309 9793,11485 9793,11006 10063,11006 Z M 10053,10656 L 10053,10996 9793,10996 9793,10722 9907,10656 10053,10656 Z"/>
     <path fill="rgb(238,199,203)" stroke="none" d="M 10053,10996 L 10053,10656 9907,10656 10098,10546 10098,11309 9793,11485 9793,10996 10053,10996 Z M 10043,10666 L 10043,10986 9793,10986 9793,10722 9890,10666 10043,10666 Z"/>
     <path fill="rgb(239,201,205)" stroke="none" d="M 10043,10986 L 10043,10666 9890,10666 10098,10546 10098,11309 9793,11485 9793,10986 10043,10986 Z M 10033,10676 L 10033,10976 9793,10976 9793,10722 9873,10676 10033,10676 Z"/>
     <path fill="rgb(239,203,207)" stroke="none" d="M 10033,10976 L 10033,10676 9873,10676 10098,10546 10098,11309 9793,11485 9793,10976 10033,10976 Z M 10023,10686 L 10023,10966 9793,10966 9793,10722 9855,10686 10023,10686 Z"/>
     <path fill="rgb(240,205,208)" stroke="none" d="M 10023,10966 L 10023,10686 9855,10686 10098,10546 10098,11309 9793,11485 9793,10966 10023,10966 Z M 10013,10696 L 10013,10956 9793,10956 9793,10722 9838,10696 10013,10696 Z"/>
     <path fill="rgb(240,207,210)" stroke="none" d="M 10013,10956 L 10013,10696 9838,10696 10098,10546 10098,11309 9793,11485 9793,10956 10013,10956 Z M 10003,10706 L 10003,10946 9793,10946 9793,10722 9821,10706 10003,10706 Z"/>
     <path fill="rgb(241,209,212)" stroke="none" d="M 10003,10946 L 10003,10706 9821,10706 10098,10546 10098,11309 9793,11485 9793,10946 10003,10946 Z M 9993,10716 L 9993,10936 9793,10936 9793,10722 9803,10716 9993,10716 Z"/>
     <path fill="rgb(241,210,214)" stroke="none" d="M 9993,10936 L 9993,10716 9803,10716 10098,10546 10098,11309 9793,11485 9793,10936 9993,10936 Z M 9983,10726 L 9983,10926 9793,10926 9793,10726 9983,10726 Z"/>
     <path fill="rgb(242,212,216)" stroke="none" d="M 9983,10926 L 9983,10726 9793,10726 9793,10722 10098,10546 10098,11309 9793,11485 9793,10926 9983,10926 Z M 9793,10736 L 9973,10736 9973,10916 9793,10916 9793,10736 Z"/>
     <path fill="rgb(243,214,217)" stroke="none" d="M 9793,10736 L 9793,10722 10098,10546 10098,11309 9793,11485 9793,10916 9973,10916 9973,10736 9793,10736 Z M 9803,10746 L 9963,10746 9963,10906 9803,10906 9803,10746 Z"/>
     <path fill="rgb(243,216,219)" stroke="none" d="M 9803,10746 L 9803,10906 9963,10906 9963,10746 9803,10746 Z M 9813,10756 L 9953,10756 9953,10896 9813,10896 9813,10756 Z M 9793,11485 L 9793,10722 10098,10546 10098,11309 9793,11485 Z"/>
     <path fill="rgb(244,218,221)" stroke="none" d="M 9813,10756 L 9813,10896 9953,10896 9953,10756 9813,10756 Z M 9823,10766 L 9943,10766 9943,10886 9823,10886 9823,10766 Z M 9793,11485 L 9793,10722 10098,10546 10098,11309 9793,11485 Z"/>
     <path fill="rgb(244,220,223)" stroke="none" d="M 9823,10766 L 9823,10886 9943,10886 9943,10766 9823,10766 Z M 9833,10776 L 9933,10776 9933,10876 9833,10876 9833,10776 Z M 9793,11485 L 9793,10722 10098,10546 10098,11309 9793,11485 Z"/>
     <path fill="rgb(245,222,225)" stroke="none" d="M 9833,10776 L 9833,10876 9933,10876 9933,10776 9833,10776 Z M 9843,10786 L 9923,10786 9923,10866 9843,10866 9843,10786 Z M 9793,11485 L 9793,10722 10098,10546 10098,11309 9793,11485 Z"/>
     <path fill="rgb(245,224,226)" stroke="none" d="M 9843,10786 L 9843,10866 9923,10866 9923,10786 9843,10786 Z M 9853,10796 L 9913,10796 9913,10856 9853,10856 9853,10796 Z M 9793,11485 L 9793,10722 10098,10546 10098,11309 9793,11485 Z"/>
     <path fill="rgb(246,226,228)" stroke="none" d="M 9853,10796 L 9853,10856 9913,10856 9913,10796 9853,10796 Z M 9863,10806 L 9903,10806 9903,10846 9863,10846 9863,10806 Z M 9793,11485 L 9793,10722 10098,10546 10098,11309 9793,11485 Z"/>
     <path fill="rgb(246,228,230)" stroke="none" d="M 9863,10806 L 9863,10846 9903,10846 9903,10806 9863,10806 Z M 9873,10816 L 9893,10816 9893,10836 9873,10836 9873,10816 Z M 9793,11485 L 9793,10722 10098,10546 10098,11309 9793,11485 Z"/>
     <path fill="rgb(248,232,234)" stroke="none" d="M 9873,10816 L 9873,10836 9893,10836 9893,10816 9873,10816 Z M 9793,11485 L 9793,10722 10098,10546 10098,11309 9793,11485 Z"/>
     <path fill="none" stroke="rgb(255,255,255)" id="Drawing_24_0" stroke-width="40" stroke-linejoin="round" d="M 9793,11485 L 9793,10722 10098,10546 10098,11309 9793,11485 Z"/>
    </g>
    <g>
     <path fill="none" stroke="rgb(0,0,0)" id="Drawing_25_0" stroke-width="40" stroke-linejoin="round" d="M 9184,10135 C 9286,9490 9895,9901 9895,10429 L 10098,10546 10098,11309 9793,11485 8981,11015 8981,10253 9184,10135 Z"/>
    </g>
    <g>
     <path fill="none" stroke="rgb(128,128,128)" id="Drawing_26_0" stroke-width="40" stroke-linejoin="round" d="M 9411,10144 C 9460,9994 9599,10154 9613,10270 L 9411,10144 Z"/>
    </g>
   </g>
  </g>
 </g>
</svg>