<?xml version="1.0" encoding="UTF-8"?>

<svg version="1.2" baseProfile="tiny" width="69.31mm" height="48.67mm" viewBox="4879 4862 6931 4867" preserveAspectRatio="xMidYMid" fill-rule="evenodd" stroke-width="28.222" stroke-linejoin="round" xmlns="http://www.w3.org/2000/svg" xmlns:xlink="http://www.w3.org/1999/xlink" xml:space="preserve">
 <g visibility="visible" id="Slide_1">
  <g id="DrawingGroup_1">
   <g id="DrawingGroup_2">
    <g>
     <path fill="rgb(221,221,221)" stroke="none" d="M 8643,9709 C 8906,9709 11810,8433 11810,8044 11810,7656 11402,7656 11138,7656 11138,7822 8547,8488 8643,9709 Z"/>
     <path fill="none" stroke="rgb(221,221,221)" id="Drawing_1_0" stroke-linejoin="round" d="M 8643,9709 C 8906,9709 11810,8433 11810,8044 11810,7656 11402,7656 11138,7656 11138,7822 8547,8488 8643,9709 Z"/>
    </g>
    <g id="DrawingGroup_3">
     <g>
      <defs>
       <linearGradient id="Gradient_902" gradientUnits="userSpaceOnUse" x1="5087" y1="8068" x2="8452" y2="8074">
        <stop offset="0.1" stop-color="rgb(179,179,179)"/>
        <stop offset="1" stop-color="rgb(229,229,229)"/>
       </linearGradient>
      </defs>
      <path fill="url(#Gradient_902)" stroke="rgb(255,255,255)" id="Drawing_2_0" stroke-width="40" stroke-linejoin="round" d="M 5091,7656 L 5091,6546 8450,8488 8450,9597 5091,7656 Z"/>
     </g>
     <g>
      <path fill="rgb(179,179,179)" stroke="none" d="M 10724,8284 L 9369,9067 8450,9067 8450,8488 10724,7174 10724,8284 Z"/>
      <path fill="rgb(180,180,180)" stroke="none" d="M 9369,9067 L 8450,9598 8450,9067 9369,9067 Z M 10724,7174 L 11329,6824 11329,7934 10724,8284 10724,7174 Z M 10695,8300 L 9419,9038 8450,9038 8450,8488 10695,7190 10695,8300 Z"/>
      <path fill="rgb(181,181,181)" stroke="none" d="M 9419,9038 L 8450,9598 8450,9038 9419,9038 Z M 10695,7190 L 11329,6824 11329,7934 10695,8300 10695,7190 Z M 10666,8317 L 9469,9009 8450,9009 8450,8488 10666,7207 10666,8317 Z"/>
      <path fill="rgb(182,182,182)" stroke="none" d="M 9469,9009 L 8450,9598 8450,9009 9469,9009 Z M 10666,7207 L 11329,6824 11329,7934 10666,8317 10666,7207 Z M 10637,8334 L 9519,8980 8450,8980 8450,8488 10637,7224 10637,8334 Z"/>
      <path fill="rgb(183,183,183)" stroke="none" d="M 9519,8980 L 8450,9598 8450,8980 9519,8980 Z M 10637,7224 L 11329,6824 11329,7934 10637,8334 10637,7224 Z M 10608,8351 L 9569,8951 8450,8951 8450,8488 10608,7241 10608,8351 Z"/>
      <path fill="rgb(184,184,184)" stroke="none" d="M 9569,8951 L 8450,9598 8450,8951 9569,8951 Z M 10608,7241 L 11329,6824 11329,7934 10608,8351 10608,7241 Z M 10580,8367 L 9618,8923 8450,8923 8450,8488 10580,7257 10580,8367 Z"/>
      <path fill="rgb(185,185,185)" stroke="none" d="M 9618,8923 L 8450,9598 8450,8923 9618,8923 Z M 10580,7257 L 11329,6824 11329,7934 10580,8367 10580,7257 Z M 10551,8384 L 9668,8894 8450,8894 8450,8488 10551,7274 10551,8384 Z"/>
      <path fill="rgb(186,186,186)" stroke="none" d="M 9668,8894 L 8450,9598 8450,8894 9668,8894 Z M 10551,7274 L 11329,6824 11329,7934 10551,8384 10551,7274 Z M 10522,8400 L 9718,8865 8450,8865 8450,8488 10522,7290 10522,8400 Z"/>
      <path fill="rgb(187,187,187)" stroke="none" d="M 9718,8865 L 8450,9598 8450,8865 9718,8865 Z M 10522,7290 L 11329,6824 11329,7934 10522,8400 10522,7290 Z M 10493,8417 L 9768,8836 8450,8836 8450,8488 10493,7307 10493,8417 Z"/>
      <path fill="rgb(188,188,188)" stroke="none" d="M 9768,8836 L 8450,9598 8450,8836 9768,8836 Z M 10493,7307 L 11329,6824 11329,7934 10493,8417 10493,7307 Z M 10464,8434 L 9819,8807 8450,8807 8450,8488 10464,7324 10464,8434 Z"/>
      <path fill="rgb(189,189,189)" stroke="none" d="M 9819,8807 L 8450,9598 8450,8807 9819,8807 Z M 10464,7324 L 11329,6824 11329,7934 10464,8434 10464,7324 Z M 10435,8451 L 9869,8778 8450,8778 8450,8488 10435,7341 10435,8451 Z"/>
      <path fill="rgb(190,190,190)" stroke="none" d="M 9869,8778 L 8450,9598 8450,8778 9869,8778 Z M 10435,7341 L 11329,6824 11329,7934 10435,8451 10435,7341 Z M 10407,8467 L 9917,8750 8450,8750 8450,8488 10407,7357 10407,8467 Z"/>
      <path fill="rgb(191,191,191)" stroke="none" d="M 9917,8750 L 8450,9598 8450,8750 9917,8750 Z M 10407,7357 L 11329,6824 11329,7934 10407,8467 10407,7357 Z M 10378,8484 L 9967,8721 8450,8721 8450,8488 10378,7374 10378,8484 Z"/>
      <path fill="rgb(192,192,192)" stroke="none" d="M 9967,8721 L 8450,9598 8450,8721 9967,8721 Z M 10378,7374 L 11329,6824 11329,7934 10378,8484 10378,7374 Z M 10349,8500 L 10018,8692 8450,8692 8450,8488 10349,7390 10349,8500 Z"/>
      <path fill="rgb(193,193,193)" stroke="none" d="M 10018,8692 L 8450,9598 8450,8692 10018,8692 Z M 10349,7390 L 11329,6824 11329,7934 10349,8500 10349,7390 Z M 10320,8517 L 10068,8663 8450,8663 8450,8488 10320,7407 10320,8517 Z"/>
      <path fill="rgb(194,194,194)" stroke="none" d="M 10068,8663 L 8450,9598 8450,8663 10068,8663 Z M 10320,7407 L 11329,6824 11329,7934 10320,8517 10320,7407 Z M 10291,8534 L 10118,8634 8450,8634 8450,8488 10291,7424 10291,8534 Z"/>
      <path fill="rgb(195,195,195)" stroke="none" d="M 10118,8634 L 8450,9598 8450,8634 10118,8634 Z M 10291,7424 L 11329,6824 11329,7934 10291,8534 10291,7424 Z M 10263,8550 L 10166,8606 8450,8606 8450,8488 10263,7440 10263,8550 Z"/>
      <path fill="rgb(196,196,196)" stroke="none" d="M 10166,8606 L 8450,9598 8450,8606 10166,8606 Z M 10263,7440 L 11329,6824 11329,7934 10263,8550 10263,7440 Z M 10234,8567 L 10217,8577 8450,8577 8450,8488 10234,7457 10234,8567 Z"/>
      <path fill="rgb(197,197,197)" stroke="none" d="M 10217,8577 L 8450,9598 8450,8577 10217,8577 Z M 10234,7457 L 11329,6824 11329,7934 10234,8567 10234,7457 Z M 10205,8548 L 8450,8548 8450,8488 10205,7474 10205,8548 Z"/>
      <path fill="rgb(198,198,198)" stroke="none" d="M 10205,8548 L 10205,7474 11329,6824 11329,7934 8450,9598 8450,8548 10205,8548 Z M 10176,8519 L 8450,8519 8450,8488 10176,7490 10176,8519 Z"/>
      <path fill="rgb(199,199,199)" stroke="none" d="M 10176,8519 L 10176,7490 11329,6824 11329,7934 8450,9598 8450,8519 10176,8519 Z M 10147,8490 L 8477,8490 8477,8472 10147,7507 10147,8490 Z"/>
      <path fill="rgb(200,200,200)" stroke="none" d="M 8477,8490 L 10147,8490 10147,7507 11329,6824 11329,7934 8450,9598 8450,8488 8477,8472 8477,8490 Z M 10118,8461 L 8506,8461 8506,8456 10118,7524 10118,8461 Z"/>
      <path fill="rgb(201,201,201)" stroke="none" d="M 8506,8461 L 10118,8461 10118,7524 11329,6824 11329,7934 8450,9598 8450,8488 8506,8456 8506,8461 Z M 10090,8433 L 8545,8433 10090,7540 10090,8433 Z"/>
      <path fill="rgb(202,202,202)" stroke="none" d="M 10090,8433 L 10090,7540 11329,6824 11329,7934 8450,9598 8450,8488 8545,8433 10090,8433 Z M 10061,8404 L 8595,8404 10061,7557 10061,8404 Z"/>
      <path fill="rgb(203,203,203)" stroke="none" d="M 10061,8404 L 10061,7557 11329,6824 11329,7934 8450,9598 8450,8488 8595,8404 10061,8404 Z M 10032,8375 L 8646,8375 10032,7574 10032,8375 Z"/>
      <path fill="rgb(204,204,204)" stroke="none" d="M 10032,8375 L 10032,7574 11329,6824 11329,7934 8450,9598 8450,8488 8646,8375 10032,8375 Z M 10003,8346 L 8696,8346 10003,7590 10003,8346 Z"/>
      <path fill="rgb(205,205,205)" stroke="none" d="M 10003,8346 L 10003,7590 11329,6824 11329,7934 8450,9598 8450,8488 8696,8346 10003,8346 Z M 9974,8317 L 8746,8317 9974,7607 9974,8317 Z"/>
      <path fill="rgb(206,206,206)" stroke="none" d="M 9974,8317 L 9974,7607 11329,6824 11329,7934 8450,9598 8450,8488 8746,8317 9974,8317 Z M 9946,8289 L 8794,8289 9946,7623 9946,8289 Z"/>
      <path fill="rgb(207,207,207)" stroke="none" d="M 9946,8289 L 9946,7623 11329,6824 11329,7934 8450,9598 8450,8488 8794,8289 9946,8289 Z M 9917,8260 L 8844,8260 9917,7640 9917,8260 Z"/>
      <path fill="rgb(208,208,208)" stroke="none" d="M 9917,8260 L 9917,7640 11329,6824 11329,7934 8450,9598 8450,8488 8844,8260 9917,8260 Z M 9888,8231 L 8895,8231 9888,7657 9888,8231 Z"/>
      <path fill="rgb(209,209,209)" stroke="none" d="M 9888,8231 L 9888,7657 11329,6824 11329,7934 8450,9598 8450,8488 8895,8231 9888,8231 Z M 9859,8202 L 8945,8202 9859,7674 9859,8202 Z"/>
      <path fill="rgb(210,210,210)" stroke="none" d="M 9859,8202 L 9859,7674 11329,6824 11329,7934 8450,9598 8450,8488 8945,8202 9859,8202 Z M 9830,8173 L 8995,8173 9830,7690 9830,8173 Z"/>
      <path fill="rgb(211,211,211)" stroke="none" d="M 9830,8173 L 9830,7690 11329,6824 11329,7934 8450,9598 8450,8488 8995,8173 9830,8173 Z M 9801,8144 L 9045,8144 9801,7707 9801,8144 Z"/>
      <path fill="rgb(212,212,212)" stroke="none" d="M 9801,8144 L 9801,7707 11329,6824 11329,7934 8450,9598 8450,8488 9045,8144 9801,8144 Z M 9773,8116 L 9094,8116 9773,7723 9773,8116 Z"/>
      <path fill="rgb(213,213,213)" stroke="none" d="M 9773,8116 L 9773,7723 11329,6824 11329,7934 8450,9598 8450,8488 9094,8116 9773,8116 Z M 9744,8087 L 9144,8087 9744,7740 9744,8087 Z"/>
      <path fill="rgb(214,214,214)" stroke="none" d="M 9744,8087 L 9744,7740 11329,6824 11329,7934 8450,9598 8450,8488 9144,8087 9744,8087 Z M 9715,8058 L 9194,8058 9715,7757 9715,8058 Z"/>
      <path fill="rgb(215,215,215)" stroke="none" d="M 9715,8058 L 9715,7757 11329,6824 11329,7934 8450,9598 8450,8488 9194,8058 9715,8058 Z M 9686,8029 L 9244,8029 9686,7774 9686,8029 Z"/>
      <path fill="rgb(216,216,216)" stroke="none" d="M 9686,8029 L 9686,7774 11329,6824 11329,7934 8450,9598 8450,8488 9244,8029 9686,8029 Z M 9657,8000 L 9294,8000 9657,7790 9657,8000 Z"/>
      <path fill="rgb(217,217,217)" stroke="none" d="M 9657,8000 L 9657,7790 11329,6824 11329,7934 8450,9598 8450,8488 9294,8000 9657,8000 Z M 9629,7972 L 9343,7972 9629,7807 9629,7972 Z"/>
      <path fill="rgb(218,218,218)" stroke="none" d="M 9629,7972 L 9629,7807 11329,6824 11329,7934 8450,9598 8450,8488 9343,7972 9629,7972 Z M 9600,7943 L 9393,7943 9600,7823 9600,7943 Z"/>
      <path fill="rgb(219,219,219)" stroke="none" d="M 9600,7943 L 9600,7823 11329,6824 11329,7934 8450,9598 8450,8488 9393,7943 9600,7943 Z M 9571,7914 L 9443,7914 9571,7840 9571,7914 Z"/>
      <path fill="rgb(220,220,220)" stroke="none" d="M 9571,7914 L 9571,7840 11329,6824 11329,7934 8450,9598 8450,8488 9443,7914 9571,7914 Z M 9542,7885 L 9493,7885 9542,7857 9542,7885 Z"/>
      <path fill="rgb(221,221,221)" stroke="none" d="M 9542,7885 L 9542,7857 11329,6824 11329,7934 8450,9598 8450,8488 9493,7885 9542,7885 Z"/>
      <path fill="rgb(222,222,222)" stroke="none" d="M 8450,9598 L 8450,8488 11329,6824 11329,7934 8450,9598 Z"/>
      <path fill="rgb(223,223,223)" stroke="none" d="M 8450,9598 L 8450,8488 11329,6824 11329,7934 8450,9598 Z"/>
      <path fill="rgb(224,224,224)" stroke="none" d="M 8450,9598 L 8450,8488 11329,6824 11329,7934 8450,9598 Z"/>
      <path fill="rgb(225,225,225)" stroke="none" d="M 8450,9598 L 8450,8488 11329,6824 11329,7934 8450,9598 Z"/>
      <path fill="rgb(226,226,226)" stroke="none" d="M 8450,9598 L 8450,8488 11329,6824 11329,7934 8450,9598 Z"/>
      <path fill="rgb(227,227,227)" stroke="none" d="M 8450,9598 L 8450,8488 11329,6824 11329,7934 8450,9598 Z"/>
      <path fill="rgb(229,229,229)" stroke="none" d="M 8450,9598 L 8450,8488 11329,6824 11329,7934 8450,9598 Z"/>
      <path fill="none" stroke="rgb(255,255,255)" id="Drawing_3_0" stroke-width="40" stroke-linejoin="round" d="M 8450,9598 L 8450,8488 11329,6824 11329,7934 8450,9598 Z"/>
     </g>
     <g>
      <defs>
       <linearGradient id="Gradient_903" gradientUnits="userSpaceOnUse" x1="8210" y1="4882" x2="8210" y2="8488">
        <stop offset="0.1" stop-color="rgb(179,179,179)"/>
        <stop offset="1" stop-color="rgb(229,229,229)"/>
       </linearGradient>
      </defs>
      <path fill="url(#Gradient_903)" stroke="rgb(255,255,255)" id="Drawing_4_0" stroke-width="40" stroke-linejoin="round" d="M 8450,8488 L 5091,6546 7970,4882 11330,6824 8450,8488 Z"/>
     </g>
     <g>
      <path fill="none" stroke="rgb(127,127,127)" id="Drawing_5_0" stroke-width="40" stroke-linejoin="round" d="M 6243,7434 L 6243,8100"/>
     </g>
     <g>
      <path fill="none" stroke="rgb(255,255,255)" id="Drawing_6_0" stroke-width="40" stroke-linejoin="round" d="M 8355,8855 L 6819,7967"/>
     </g>
     <g>
      <path fill="none" stroke="rgb(255,255,255)" id="Drawing_7_0" stroke-width="40" stroke-linejoin="round" d="M 6810,7767 L 6810,7989"/>
     </g>
     <g>
      <path fill="none" stroke="rgb(0,0,0)" id="Drawing_8_0" stroke-width="40" stroke-linejoin="round" d="M 8346,8655 L 8346,8877"/>
     </g>
     <g>
      <path fill="none" stroke="rgb(0,0,0)" id="Drawing_9_0" stroke-width="40" stroke-linejoin="round" d="M 8346,8655 L 6810,7767"/>
     </g>
     <g>
      <path fill="rgb(57,181,74)" stroke="none" d="M 6435,7767 L 6435,7545 6627,7656 6627,7878 6435,7767 Z"/>
      <path fill="none" stroke="rgb(0,0,0)" id="Drawing_10_0" stroke-width="40" stroke-linejoin="round" d="M 6435,7767 L 6435,7545 6627,7656 6627,7878 6435,7767 Z"/>
     </g>
     <g>
      <path fill="none" stroke="rgb(127,127,127)" id="Drawing_11_0" stroke-width="40" stroke-linejoin="round" d="M 6051,7323 L 6051,7989"/>
     </g>
     <g>
      <path fill="none" stroke="rgb(127,127,127)" id="Drawing_12_0" stroke-width="40" stroke-linejoin="round" d="M 5859,7212 L 5859,7878"/>
     </g>
     <g>
      <path fill="none" stroke="rgb(127,127,127)" id="Drawing_13_0" stroke-width="40" stroke-linejoin="round" d="M 5667,7101 L 5667,7767"/>
     </g>
     <g>
      <path fill="none" stroke="rgb(127,127,127)" id="Drawing_14_0" stroke-width="40" stroke-linejoin="round" d="M 5475,6990 L 5475,7656"/>
     </g>
     <g>
      <path fill="none" stroke="rgb(127,127,127)" id="Drawing_15_0" stroke-width="40" stroke-linejoin="round" d="M 5283,6879 L 5283,7545"/>
     </g>
     <g>
      <defs>
       <linearGradient id="Gradient_904" gradientUnits="userSpaceOnUse" x1="4898" y1="7045" x2="5092" y2="7045">
        <stop offset="0.1" stop-color="rgb(179,179,179)"/>
        <stop offset="1" stop-color="rgb(229,229,229)"/>
       </linearGradient>
      </defs>
      <path fill="url(#Gradient_904)" stroke="rgb(255,255,255)" id="Drawing_16_0" stroke-width="40" stroke-linejoin="round" d="M 4899,7545 L 4899,6435 5091,6546 5091,7656 4899,7545 Z"/>
     </g>
     <g>
      <defs>
       <linearGradient id="Gradient_905" gradientUnits="userSpaceOnUse" x1="8449" y1="9098" x2="8643" y2="9098">
        <stop offset="0.1" stop-color="rgb(179,179,179)"/>
        <stop offset="1" stop-color="rgb(229,229,229)"/>
       </linearGradient>
      </defs>
      <path fill="url(#Gradient_905)" stroke="rgb(255,255,255)" id="Drawing_17_0" stroke-width="40" stroke-linejoin="round" d="M 8450,9598 L 8450,8488 8642,8599 8642,9709 8450,9598 Z"/>
     </g>
     <g>
      <path fill="none" stroke="rgb(0,0,0)" id="Drawing_18_0" stroke-width="40" stroke-linejoin="round" d="M 4899,7545 L 4899,6435 5091,6546 7970,4882 11330,6824 11330,7933 8642,9487 8642,9709 4899,7545 Z"/>
     </g>
    </g>
   </g>
   <g id="DrawingGroup_4">
    <g>
     <defs>
      <linearGradient id="Gradient_906" gradientUnits="userSpaceOnUse" x1="9504" y1="8738" x2="10439" y2="8740">
       <stop offset="0" stop-color="rgb(195,232,200)"/>
       <stop offset="0.5" stop-color="rgb(235,247,236)"/>
       <stop offset="1" stop-color="rgb(195,232,200)"/>
      </linearGradient>
     </defs>
     <path fill="url(#Gradient_906)" stroke="none" id="Drawing_19_0" d="M 9506,8266 L 9507,8256 9509,8246 9512,8235 9516,8225 9522,8215 9529,8205 9546,8186 9567,8167 9592,8149 9620,8132 9652,8117 9686,8102 9722,8089 9761,8077 9801,8068 9842,8060 9885,8054 9928,8050 9972,8049 10016,8050 10059,8054 10102,8060 10143,8068 10184,8077 10222,8089 10259,8102 10293,8117 10324,8132 10353,8149 10378,8167 10399,8186 10416,8205 10423,8215 10428,8225 10433,8235 10436,8246 10438,8256 10439,8266 10439,9212 10438,9222 10436,9232 10433,9243 10428,9253 10423,9263 10416,9273 10399,9292 10378,9311 10353,9329 10324,9346 10293,9362 10259,9377 10222,9390 10184,9401 10143,9411 10102,9419 10059,9425 10016,9429 9972,9430 9928,9429 9885,9425 9842,9419 9801,9411 9761,9401 9722,9390 9686,9377 9652,9362 9620,9346 9592,9329 9567,9311 9546,9292 9529,9273 9522,9263 9516,9253 9512,9243 9509,9232 9507,9222 9506,9212 9506,8266 Z"/>
     <path fill="none" stroke="rgb(0,0,0)" id="Drawing_19_1" stroke-width="40" stroke-linejoin="round" d="M 9506,8266 C 9506,8157 9739,8049 9972,8049 10205,8049 10439,8157 10439,8266 L 10439,9212 C 10439,9321 10205,9430 9972,9430 9739,9430 9506,9321 9506,9212 L 9506,8266 Z"/>
     <rect fill="none" stroke="none" x="9506" y="8266" width="934" height="218"/>
     <defs>
      <linearGradient id="Gradient_907" gradientUnits="userSpaceOnUse" x1="9505" y1="8373" x2="10438" y2="8375">
       <stop offset="0" stop-color="rgb(195,232,200)"/>
       <stop offset="0.5" stop-color="rgb(235,247,236)"/>
       <stop offset="1" stop-color="rgb(195,232,200)"/>
      </linearGradient>
     </defs>
     <path fill="url(#Gradient_907)" stroke="none" id="Drawing_19_2" d="M 9506,8266 L 9507,8276 9509,8286 9512,8296 9516,8306 9522,8316 9529,8326 9546,8345 9567,8364 9592,8382 9620,8399 9652,8415 9686,8430 9722,8443 9761,8454 9801,8464 9842,8472 9885,8478 9928,8482 9972,8483 10016,8482 10059,8478 10102,8472 10143,8464 10184,8454 10222,8443 10259,8430 10293,8415 10324,8399 10353,8382 10378,8364 10399,8345 10416,8326 10423,8316 10428,8306 10433,8296 10436,8286 10438,8276 10439,8266 9506,8266 Z"/>
     <path fill="none" stroke="rgb(0,0,0)" id="Drawing_19_3" stroke-width="40" stroke-linejoin="round" d="M 9506,8266 C 9506,8374 9739,8483 9972,8483 10205,8483 10439,8374 10439,8266"/>
     <rect fill="none" stroke="none" x="9506" y="8049" width="933" height="1381"/>
    </g>
    <g>
     <defs>
      <linearGradient id="Gradient_908" gradientUnits="userSpaceOnUse" x1="9972" y1="8048" x2="9972" y2="8485">
       <stop offset="0.1" stop-color="rgb(195,232,200)"/>
       <stop offset="1" stop-color="rgb(235,247,236)"/>
      </linearGradient>
     </defs>
     <path fill="url(#Gradient_908)" stroke="none" id="Drawing_20_0" d="M 9972,8048 L 10068,8052 10156,8065 10197,8074 10235,8084 10271,8097 10304,8111 10334,8126 10360,8143 10383,8160 10402,8180 10418,8200 10424,8210 10429,8221 10433,8232 10436,8243 10437,8254 10438,8266 10437,8278 10436,8289 10433,8300 10429,8311 10424,8322 10418,8332 10402,8353 10383,8372 10360,8390 10334,8407 10304,8422 10271,8436 10235,8448 10197,8459 10156,8468 10068,8481 9972,8485 9876,8481 9788,8468 9747,8459 9709,8448 9673,8436 9640,8422 9610,8407 9584,8390 9561,8372 9542,8353 9526,8332 9520,8322 9515,8311 9511,8300 9508,8289 9507,8278 9506,8266 9507,8254 9508,8243 9511,8232 9515,8221 9520,8210 9526,8200 9542,8180 9561,8160 9584,8143 9610,8126 9640,8111 9673,8097 9709,8084 9747,8074 9788,8065 9876,8052 9972,8048 Z"/>
     <path fill="none" stroke="rgb(0,0,0)" id="Drawing_20_1" stroke-width="40" stroke-linejoin="round" d="M 9972,8048 C 10236,8048 10438,8142 10438,8266 10438,8390 10236,8485 9972,8485 9708,8485 9506,8390 9506,8266 9506,8142 9708,8048 9972,8048 Z"/>
     <rect fill="none" stroke="none" x="9506" y="8049" width="933" height="438"/>
    </g>
   </g>
  </g>
 </g>
</svg>