<?xml version="1.0" encoding="UTF-8"?>

<svg version="1.2" baseProfile="tiny" width="69.31mm" height="48.67mm" viewBox="5626 7584 6931 4867" preserveAspectRatio="xMidYMid" fill-rule="evenodd" stroke-width="28.222" stroke-linejoin="round" xmlns="http://www.w3.org/2000/svg" xmlns:xlink="http://www.w3.org/1999/xlink" xml:space="preserve">
 <g visibility="visible" id="Slide_1">
  <g id="DrawingGroup_1">
   <g id="DrawingGroup_2">
    <g>
     <path fill="rgb(221,221,221)" stroke="none" d="M 9390,12431 C 9653,12431 12557,11155 12557,10766 12557,10378 12149,10378 11885,10378 11885,10544 9294,11210 9390,12431 Z"/>
     <path fill="none" stroke="rgb(221,221,221)" id="Drawing_1_0" stroke-linejoin="round" d="M 9390,12431 C 9653,12431 12557,11155 12557,10766 12557,10378 12149,10378 11885,10378 11885,10544 9294,11210 9390,12431 Z"/>
    </g>
    <g id="DrawingGroup_3">
     <g>
      <defs>
       <linearGradient id="Gradient_946" gradientUnits="userSpaceOnUse" x1="5834" y1="10790" x2="9199" y2="10796">
        <stop offset="0.1" stop-color="rgb(179,179,179)"/>
        <stop offset="1" stop-color="rgb(229,229,229)"/>
       </linearGradient>
      </defs>
      <path fill="url(#Gradient_946)" stroke="rgb(255,255,255)" id="Drawing_2_0" stroke-width="40" stroke-linejoin="round" d="M 5838,10378 L 5838,9268 9197,11210 9197,12319 5838,10378 Z"/>
     </g>
     <g>
      <path fill="rgb(179,179,179)" stroke="none" d="M 11471,11006 L 10116,11789 9197,11789 9197,11210 11471,9896 11471,11006 Z"/>
      <path fill="rgb(180,180,180)" stroke="none" d="M 10116,11789 L 9197,12320 9197,11789 10116,11789 Z M 11471,9896 L 12076,9546 12076,10656 11471,11006 11471,9896 Z M 11442,11022 L 10166,11760 9197,11760 9197,11210 11442,9912 11442,11022 Z"/>
      <path fill="rgb(181,181,181)" stroke="none" d="M 10166,11760 L 9197,12320 9197,11760 10166,11760 Z M 11442,9912 L 12076,9546 12076,10656 11442,11022 11442,9912 Z M 11413,11039 L 10216,11731 9197,11731 9197,11210 11413,9929 11413,11039 Z"/>
      <path fill="rgb(182,182,182)" stroke="none" d="M 10216,11731 L 9197,12320 9197,11731 10216,11731 Z M 11413,9929 L 12076,9546 12076,10656 11413,11039 11413,9929 Z M 11384,11056 L 10266,11702 9197,11702 9197,11210 11384,9946 11384,11056 Z"/>
      <path fill="rgb(183,183,183)" stroke="none" d="M 10266,11702 L 9197,12320 9197,11702 10266,11702 Z M 11384,9946 L 12076,9546 12076,10656 11384,11056 11384,9946 Z M 11355,11073 L 10316,11673 9197,11673 9197,11210 11355,9963 11355,11073 Z"/>
      <path fill="rgb(184,184,184)" stroke="none" d="M 10316,11673 L 9197,12320 9197,11673 10316,11673 Z M 11355,9963 L 12076,9546 12076,10656 11355,11073 11355,9963 Z M 11327,11089 L 10365,11645 9197,11645 9197,11210 11327,9979 11327,11089 Z"/>
      <path fill="rgb(185,185,185)" stroke="none" d="M 10365,11645 L 9197,12320 9197,11645 10365,11645 Z M 11327,9979 L 12076,9546 12076,10656 11327,11089 11327,9979 Z M 11298,11106 L 10415,11616 9197,11616 9197,11210 11298,9996 11298,11106 Z"/>
      <path fill="rgb(186,186,186)" stroke="none" d="M 10415,11616 L 9197,12320 9197,11616 10415,11616 Z M 11298,9996 L 12076,9546 12076,10656 11298,11106 11298,9996 Z M 11269,11122 L 10465,11587 9197,11587 9197,11210 11269,10012 11269,11122 Z"/>
      <path fill="rgb(187,187,187)" stroke="none" d="M 10465,11587 L 9197,12320 9197,11587 10465,11587 Z M 11269,10012 L 12076,9546 12076,10656 11269,11122 11269,10012 Z M 11240,11139 L 10515,11558 9197,11558 9197,11210 11240,10029 11240,11139 Z"/>
      <path fill="rgb(188,188,188)" stroke="none" d="M 10515,11558 L 9197,12320 9197,11558 10515,11558 Z M 11240,10029 L 12076,9546 12076,10656 11240,11139 11240,10029 Z M 11211,11156 L 10566,11529 9197,11529 9197,11210 11211,10046 11211,11156 Z"/>
      <path fill="rgb(189,189,189)" stroke="none" d="M 10566,11529 L 9197,12320 9197,11529 10566,11529 Z M 11211,10046 L 12076,9546 12076,10656 11211,11156 11211,10046 Z M 11182,11173 L 10616,11500 9197,11500 9197,11210 11182,10063 11182,11173 Z"/>
      <path fill="rgb(190,190,190)" stroke="none" d="M 10616,11500 L 9197,12320 9197,11500 10616,11500 Z M 11182,10063 L 12076,9546 12076,10656 11182,11173 11182,10063 Z M 11154,11189 L 10664,11472 9197,11472 9197,11210 11154,10079 11154,11189 Z"/>
      <path fill="rgb(191,191,191)" stroke="none" d="M 10664,11472 L 9197,12320 9197,11472 10664,11472 Z M 11154,10079 L 12076,9546 12076,10656 11154,11189 11154,10079 Z M 11125,11206 L 10714,11443 9197,11443 9197,11210 11125,10096 11125,11206 Z"/>
      <path fill="rgb(192,192,192)" stroke="none" d="M 10714,11443 L 9197,12320 9197,11443 10714,11443 Z M 11125,10096 L 12076,9546 12076,10656 11125,11206 11125,10096 Z M 11096,11222 L 10765,11414 9197,11414 9197,11210 11096,10112 11096,11222 Z"/>
      <path fill="rgb(193,193,193)" stroke="none" d="M 10765,11414 L 9197,12320 9197,11414 10765,11414 Z M 11096,10112 L 12076,9546 12076,10656 11096,11222 11096,10112 Z M 11067,11239 L 10815,11385 9197,11385 9197,11210 11067,10129 11067,11239 Z"/>
      <path fill="rgb(194,194,194)" stroke="none" d="M 10815,11385 L 9197,12320 9197,11385 10815,11385 Z M 11067,10129 L 12076,9546 12076,10656 11067,11239 11067,10129 Z M 11038,11256 L 10865,11356 9197,11356 9197,11210 11038,10146 11038,11256 Z"/>
      <path fill="rgb(195,195,195)" stroke="none" d="M 10865,11356 L 9197,12320 9197,11356 10865,11356 Z M 11038,10146 L 12076,9546 12076,10656 11038,11256 11038,10146 Z M 11010,11272 L 10913,11328 9197,11328 9197,11210 11010,10162 11010,11272 Z"/>
      <path fill="rgb(196,196,196)" stroke="none" d="M 10913,11328 L 9197,12320 9197,11328 10913,11328 Z M 11010,10162 L 12076,9546 12076,10656 11010,11272 11010,10162 Z M 10981,11289 L 10964,11299 9197,11299 9197,11210 10981,10179 10981,11289 Z"/>
      <path fill="rgb(197,197,197)" stroke="none" d="M 10964,11299 L 9197,12320 9197,11299 10964,11299 Z M 10981,10179 L 12076,9546 12076,10656 10981,11289 10981,10179 Z M 10952,11270 L 9197,11270 9197,11210 10952,10196 10952,11270 Z"/>
      <path fill="rgb(198,198,198)" stroke="none" d="M 10952,11270 L 10952,10196 12076,9546 12076,10656 9197,12320 9197,11270 10952,11270 Z M 10923,11241 L 9197,11241 9197,11210 10923,10212 10923,11241 Z"/>
      <path fill="rgb(199,199,199)" stroke="none" d="M 10923,11241 L 10923,10212 12076,9546 12076,10656 9197,12320 9197,11241 10923,11241 Z M 10894,11212 L 9224,11212 9224,11194 10894,10229 10894,11212 Z"/>
      <path fill="rgb(200,200,200)" stroke="none" d="M 9224,11212 L 10894,11212 10894,10229 12076,9546 12076,10656 9197,12320 9197,11210 9224,11194 9224,11212 Z M 10865,11183 L 9253,11183 9253,11178 10865,10246 10865,11183 Z"/>
      <path fill="rgb(201,201,201)" stroke="none" d="M 9253,11183 L 10865,11183 10865,10246 12076,9546 12076,10656 9197,12320 9197,11210 9253,11178 9253,11183 Z M 10837,11155 L 9292,11155 10837,10262 10837,11155 Z"/>
      <path fill="rgb(202,202,202)" stroke="none" d="M 10837,11155 L 10837,10262 12076,9546 12076,10656 9197,12320 9197,11210 9292,11155 10837,11155 Z M 10808,11126 L 9342,11126 10808,10279 10808,11126 Z"/>
      <path fill="rgb(203,203,203)" stroke="none" d="M 10808,11126 L 10808,10279 12076,9546 12076,10656 9197,12320 9197,11210 9342,11126 10808,11126 Z M 10779,11097 L 9393,11097 10779,10296 10779,11097 Z"/>
      <path fill="rgb(204,204,204)" stroke="none" d="M 10779,11097 L 10779,10296 12076,9546 12076,10656 9197,12320 9197,11210 9393,11097 10779,11097 Z M 10750,11068 L 9443,11068 10750,10312 10750,11068 Z"/>
      <path fill="rgb(205,205,205)" stroke="none" d="M 10750,11068 L 10750,10312 12076,9546 12076,10656 9197,12320 9197,11210 9443,11068 10750,11068 Z M 10721,11039 L 9493,11039 10721,10329 10721,11039 Z"/>
      <path fill="rgb(206,206,206)" stroke="none" d="M 10721,11039 L 10721,10329 12076,9546 12076,10656 9197,12320 9197,11210 9493,11039 10721,11039 Z M 10693,11011 L 9541,11011 10693,10345 10693,11011 Z"/>
      <path fill="rgb(207,207,207)" stroke="none" d="M 10693,11011 L 10693,10345 12076,9546 12076,10656 9197,12320 9197,11210 9541,11011 10693,11011 Z M 10664,10982 L 9591,10982 10664,10362 10664,10982 Z"/>
      <path fill="rgb(208,208,208)" stroke="none" d="M 10664,10982 L 10664,10362 12076,9546 12076,10656 9197,12320 9197,11210 9591,10982 10664,10982 Z M 10635,10953 L 9642,10953 10635,10379 10635,10953 Z"/>
      <path fill="rgb(209,209,209)" stroke="none" d="M 10635,10953 L 10635,10379 12076,9546 12076,10656 9197,12320 9197,11210 9642,10953 10635,10953 Z M 10606,10924 L 9692,10924 10606,10396 10606,10924 Z"/>
      <path fill="rgb(210,210,210)" stroke="none" d="M 10606,10924 L 10606,10396 12076,9546 12076,10656 9197,12320 9197,11210 9692,10924 10606,10924 Z M 10577,10895 L 9742,10895 10577,10412 10577,10895 Z"/>
      <path fill="rgb(211,211,211)" stroke="none" d="M 10577,10895 L 10577,10412 12076,9546 12076,10656 9197,12320 9197,11210 9742,10895 10577,10895 Z M 10548,10866 L 9792,10866 10548,10429 10548,10866 Z"/>
      <path fill="rgb(212,212,212)" stroke="none" d="M 10548,10866 L 10548,10429 12076,9546 12076,10656 9197,12320 9197,11210 9792,10866 10548,10866 Z M 10520,10838 L 9841,10838 10520,10445 10520,10838 Z"/>
      <path fill="rgb(213,213,213)" stroke="none" d="M 10520,10838 L 10520,10445 12076,9546 12076,10656 9197,12320 9197,11210 9841,10838 10520,10838 Z M 10491,10809 L 9891,10809 10491,10462 10491,10809 Z"/>
      <path fill="rgb(214,214,214)" stroke="none" d="M 10491,10809 L 10491,10462 12076,9546 12076,10656 9197,12320 9197,11210 9891,10809 10491,10809 Z M 10462,10780 L 9941,10780 10462,10479 10462,10780 Z"/>
      <path fill="rgb(215,215,215)" stroke="none" d="M 10462,10780 L 10462,10479 12076,9546 12076,10656 9197,12320 9197,11210 9941,10780 10462,10780 Z M 10433,10751 L 9991,10751 10433,10496 10433,10751 Z"/>
      <path fill="rgb(216,216,216)" stroke="none" d="M 10433,10751 L 10433,10496 12076,9546 12076,10656 9197,12320 9197,11210 9991,10751 10433,10751 Z M 10404,10722 L 10041,10722 10404,10512 10404,10722 Z"/>
      <path fill="rgb(217,217,217)" stroke="none" d="M 10404,10722 L 10404,10512 12076,9546 12076,10656 9197,12320 9197,11210 10041,10722 10404,10722 Z M 10376,10694 L 10090,10694 10376,10529 10376,10694 Z"/>
      <path fill="rgb(218,218,218)" stroke="none" d="M 10376,10694 L 10376,10529 12076,9546 12076,10656 9197,12320 9197,11210 10090,10694 10376,10694 Z M 10347,10665 L 10140,10665 10347,10545 10347,10665 Z"/>
      <path fill="rgb(219,219,219)" stroke="none" d="M 10347,10665 L 10347,10545 12076,9546 12076,10656 9197,12320 9197,11210 10140,10665 10347,10665 Z M 10318,10636 L 10190,10636 10318,10562 10318,10636 Z"/>
      <path fill="rgb(220,220,220)" stroke="none" d="M 10318,10636 L 10318,10562 12076,9546 12076,10656 9197,12320 9197,11210 10190,10636 10318,10636 Z M 10289,10607 L 10240,10607 10289,10579 10289,10607 Z"/>
      <path fill="rgb(221,221,221)" stroke="none" d="M 10289,10607 L 10289,10579 12076,9546 12076,10656 9197,12320 9197,11210 10240,10607 10289,10607 Z"/>
      <path fill="rgb(222,222,222)" stroke="none" d="M 9197,12320 L 9197,11210 12076,9546 12076,10656 9197,12320 Z"/>
      <path fill="rgb(223,223,223)" stroke="none" d="M 9197,12320 L 9197,11210 12076,9546 12076,10656 9197,12320 Z"/>
      <path fill="rgb(224,224,224)" stroke="none" d="M 9197,12320 L 9197,11210 12076,9546 12076,10656 9197,12320 Z"/>
      <path fill="rgb(225,225,225)" stroke="none" d="M 9197,12320 L 9197,11210 12076,9546 12076,10656 9197,12320 Z"/>
      <path fill="rgb(226,226,226)" stroke="none" d="M 9197,12320 L 9197,11210 12076,9546 12076,10656 9197,12320 Z"/>
      <path fill="rgb(227,227,227)" stroke="none" d="M 9197,12320 L 9197,11210 12076,9546 12076,10656 9197,12320 Z"/>
      <path fill="rgb(229,229,229)" stroke="none" d="M 9197,12320 L 9197,11210 12076,9546 12076,10656 9197,12320 Z"/>
      <path fill="none" stroke="rgb(255,255,255)" id="Drawing_3_0" stroke-width="40" stroke-linejoin="round" d="M 9197,12320 L 9197,11210 12076,9546 12076,10656 9197,12320 Z"/>
     </g>
     <g>
      <defs>
       <linearGradient id="Gradient_947" gradientUnits="userSpaceOnUse" x1="8957" y1="7604" x2="8957" y2="11210">
        <stop offset="0.1" stop-color="rgb(179,179,179)"/>
        <stop offset="1" stop-color="rgb(229,229,229)"/>
       </linearGradient>
      </defs>
      <path fill="url(#Gradient_947)" stroke="rgb(255,255,255)" id="Drawing_4_0" stroke-width="40" stroke-linejoin="round" d="M 9197,11210 L 5838,9268 8717,7604 12077,9546 9197,11210 Z"/>
     </g>
     <g>
      <path fill="none" stroke="rgb(127,127,127)" id="Drawing_5_0" stroke-width="40" stroke-linejoin="round" d="M 6990,10156 L 6990,10822"/>
     </g>
     <g>
      <path fill="none" stroke="rgb(255,255,255)" id="Drawing_6_0" stroke-width="40" stroke-linejoin="round" d="M 9102,11577 L 7566,10689"/>
     </g>
     <g>
      <path fill="none" stroke="rgb(255,255,255)" id="Drawing_7_0" stroke-width="40" stroke-linejoin="round" d="M 7557,10489 L 7557,10711"/>
     </g>
     <g>
      <path fill="none" stroke="rgb(0,0,0)" id="Drawing_8_0" stroke-width="40" stroke-linejoin="round" d="M 9093,11377 L 9093,11599"/>
     </g>
     <g>
      <path fill="none" stroke="rgb(0,0,0)" id="Drawing_9_0" stroke-width="40" stroke-linejoin="round" d="M 9093,11377 L 7557,10489"/>
     </g>
     <g>
      <path fill="rgb(57,181,74)" stroke="none" d="M 7182,10489 L 7182,10267 7374,10378 7374,10600 7182,10489 Z"/>
      <path fill="none" stroke="rgb(0,0,0)" id="Drawing_10_0" stroke-width="40" stroke-linejoin="round" d="M 7182,10489 L 7182,10267 7374,10378 7374,10600 7182,10489 Z"/>
     </g>
     <g>
      <path fill="none" stroke="rgb(127,127,127)" id="Drawing_11_0" stroke-width="40" stroke-linejoin="round" d="M 6798,10045 L 6798,10711"/>
     </g>
     <g>
      <path fill="none" stroke="rgb(127,127,127)" id="Drawing_12_0" stroke-width="40" stroke-linejoin="round" d="M 6606,9934 L 6606,10600"/>
     </g>
     <g>
      <path fill="none" stroke="rgb(127,127,127)" id="Drawing_13_0" stroke-width="40" stroke-linejoin="round" d="M 6414,9823 L 6414,10489"/>
     </g>
     <g>
      <path fill="none" stroke="rgb(127,127,127)" id="Drawing_14_0" stroke-width="40" stroke-linejoin="round" d="M 6222,9712 L 6222,10378"/>
     </g>
     <g>
      <path fill="none" stroke="rgb(127,127,127)" id="Drawing_15_0" stroke-width="40" stroke-linejoin="round" d="M 6030,9601 L 6030,10267"/>
     </g>
     <g>
      <defs>
       <linearGradient id="Gradient_948" gradientUnits="userSpaceOnUse" x1="5645" y1="9767" x2="5839" y2="9767">
        <stop offset="0.1" stop-color="rgb(179,179,179)"/>
        <stop offset="1" stop-color="rgb(229,229,229)"/>
       </linearGradient>
      </defs>
      <path fill="url(#Gradient_948)" stroke="rgb(255,255,255)" id="Drawing_16_0" stroke-width="40" stroke-linejoin="round" d="M 5646,10267 L 5646,9157 5838,9268 5838,10378 5646,10267 Z"/>
     </g>
     <g>
      <defs>
       <linearGradient id="Gradient_949" gradientUnits="userSpaceOnUse" x1="9196" y1="11820" x2="9390" y2="11820">
        <stop offset="0.1" stop-color="rgb(179,179,179)"/>
        <stop offset="1" stop-color="rgb(229,229,229)"/>
       </linearGradient>
      </defs>
      <path fill="url(#Gradient_949)" stroke="rgb(255,255,255)" id="Drawing_17_0" stroke-width="40" stroke-linejoin="round" d="M 9197,12320 L 9197,11210 9389,11321 9389,12431 9197,12320 Z"/>
     </g>
     <g>
      <path fill="none" stroke="rgb(0,0,0)" id="Drawing_18_0" stroke-width="40" stroke-linejoin="round" d="M 5646,10267 L 5646,9157 5838,9268 8717,7604 12077,9546 12077,10655 9389,12209 9389,12431 5646,10267 Z"/>
     </g>
    </g>
   </g>
   <g id="DrawingGroup_4">
    <g>
     <defs>
      <linearGradient id="Gradient_950" gradientUnits="userSpaceOnUse" x1="10131" y1="11631" x2="10921" y2="11633">
       <stop offset="0.1" stop-color="rgb(147,212,240)"/>
       <stop offset="1" stop-color="rgb(233,246,252)"/>
      </linearGradient>
     </defs>
     <path fill="url(#Gradient_950)" stroke="rgb(255,255,255)" id="Drawing_19_0" stroke-width="40" stroke-linejoin="round" d="M 10132,11902 L 10132,10908 10920,11363 10920,12357 10132,11902 Z"/>
    </g>
    <g>
     <path fill="rgb(147,212,240)" stroke="none" d="M 10920,12056 L 10920,11363 11708,10908 11708,11902 11441,12056 10920,12056 Z"/>
     <path fill="rgb(148,212,240)" stroke="none" d="M 11441,12056 L 10920,12357 10920,12056 11441,12056 Z M 10920,12046 L 10920,11363 11708,10908 11708,11902 11459,12046 10920,12046 Z"/>
     <path fill="rgb(149,212,240)" stroke="none" d="M 11459,12046 L 10920,12357 10920,12046 11459,12046 Z M 10920,12036 L 10920,11363 11708,10908 11708,11902 11476,12036 10920,12036 Z"/>
     <path fill="rgb(150,213,240)" stroke="none" d="M 11476,12036 L 10920,12357 10920,12036 11476,12036 Z M 10920,12026 L 10920,11363 11708,10908 11708,11902 11493,12026 10920,12026 Z"/>
     <path fill="rgb(151,213,240)" stroke="none" d="M 11493,12026 L 10920,12357 10920,12026 11493,12026 Z M 10920,12016 L 10920,11363 11708,10908 11708,11902 11511,12016 10920,12016 Z"/>
     <path fill="rgb(152,214,240)" stroke="none" d="M 11511,12016 L 10920,12357 10920,12016 11511,12016 Z M 10920,12006 L 10920,11363 11708,10908 11708,11902 11528,12006 10920,12006 Z"/>
     <path fill="rgb(154,214,241)" stroke="none" d="M 11528,12006 L 10920,12357 10920,12006 11528,12006 Z M 10920,11996 L 10920,11363 11708,10908 11708,11902 11545,11996 10920,11996 Z"/>
     <path fill="rgb(155,215,241)" stroke="none" d="M 11545,11996 L 10920,12357 10920,11996 11545,11996 Z M 10920,11986 L 10920,11363 11708,10908 11708,11902 11563,11986 10920,11986 Z"/>
     <path fill="rgb(156,215,241)" stroke="none" d="M 11563,11986 L 10920,12357 10920,11986 11563,11986 Z M 10920,11976 L 10920,11363 11708,10908 11708,11902 11580,11976 10920,11976 Z"/>
     <path fill="rgb(157,216,241)" stroke="none" d="M 11580,11976 L 10920,12357 10920,11976 11580,11976 Z M 10920,11966 L 10920,11363 11708,10908 11708,11902 11597,11966 10920,11966 Z"/>
     <path fill="rgb(158,216,241)" stroke="none" d="M 11597,11966 L 10920,12357 10920,11966 11597,11966 Z M 10920,11956 L 10920,11363 11708,10908 11708,11902 11614,11956 10920,11956 Z"/>
     <path fill="rgb(160,217,241)" stroke="none" d="M 11614,11956 L 10920,12357 10920,11956 11614,11956 Z M 10920,11946 L 10920,11363 11708,10908 11708,11902 11632,11946 10920,11946 Z"/>
     <path fill="rgb(161,217,242)" stroke="none" d="M 11632,11946 L 10920,12357 10920,11946 11632,11946 Z M 10920,11935 L 10920,11363 11708,10908 11708,11902 11651,11935 10920,11935 Z"/>
     <path fill="rgb(162,218,242)" stroke="none" d="M 11651,11935 L 10920,12357 10920,11935 11651,11935 Z M 10920,11925 L 10920,11363 11708,10908 11708,11902 11668,11925 10920,11925 Z"/>
     <path fill="rgb(163,218,242)" stroke="none" d="M 11668,11925 L 10920,12357 10920,11925 11668,11925 Z M 10920,11915 L 10920,11363 11708,10908 11708,11902 11685,11915 10920,11915 Z"/>
     <path fill="rgb(164,219,242)" stroke="none" d="M 11685,11915 L 10920,12357 10920,11915 11685,11915 Z M 10920,11905 L 10920,11363 11708,10908 11708,11902 11703,11905 10920,11905 Z"/>
     <path fill="rgb(166,219,242)" stroke="none" d="M 11703,11905 L 10920,12357 10920,11905 11703,11905 Z M 10920,11895 L 10920,11363 11708,10908 11708,11895 10920,11895 Z"/>
     <path fill="rgb(167,220,242)" stroke="none" d="M 11708,11895 L 11708,11902 10920,12357 10920,11895 11708,11895 Z M 11699,11885 L 10920,11885 10920,11363 11699,10913 11699,11885 Z"/>
     <path fill="rgb(168,220,243)" stroke="none" d="M 11699,11885 L 11699,10913 11708,10908 11708,11902 10920,12357 10920,11885 11699,11885 Z M 11689,11875 L 10920,11875 10920,11363 11689,10919 11689,11875 Z"/>
     <path fill="rgb(169,220,243)" stroke="none" d="M 11689,11875 L 11689,10919 11708,10908 11708,11902 10920,12357 10920,11875 11689,11875 Z M 11679,11865 L 10920,11865 10920,11363 11679,10925 11679,11865 Z"/>
     <path fill="rgb(170,221,243)" stroke="none" d="M 11679,11865 L 11679,10925 11708,10908 11708,11902 10920,12357 10920,11865 11679,11865 Z M 11669,11855 L 10920,11855 10920,11363 11669,10931 11669,11855 Z"/>
     <path fill="rgb(172,221,243)" stroke="none" d="M 11669,11855 L 11669,10931 11708,10908 11708,11902 10920,12357 10920,11855 11669,11855 Z M 11659,11845 L 10920,11845 10920,11363 11659,10936 11659,11845 Z"/>
     <path fill="rgb(173,222,243)" stroke="none" d="M 11659,11845 L 11659,10936 11708,10908 11708,11902 10920,12357 10920,11845 11659,11845 Z M 11649,11835 L 10920,11835 10920,11363 11649,10942 11649,11835 Z"/>
     <path fill="rgb(174,222,243)" stroke="none" d="M 11649,11835 L 11649,10942 11708,10908 11708,11902 10920,12357 10920,11835 11649,11835 Z M 11638,11825 L 10920,11825 10920,11363 11638,10948 11638,11825 Z"/>
     <path fill="rgb(175,223,244)" stroke="none" d="M 11638,11825 L 11638,10948 11708,10908 11708,11902 10920,12357 10920,11825 11638,11825 Z M 11628,11814 L 10920,11814 10920,11363 11628,10954 11628,11814 Z"/>
     <path fill="rgb(176,223,244)" stroke="none" d="M 11628,11814 L 11628,10954 11708,10908 11708,11902 10920,12357 10920,11814 11628,11814 Z M 11618,11804 L 10920,11804 10920,11363 11618,10960 11618,11804 Z"/>
     <path fill="rgb(178,224,244)" stroke="none" d="M 11618,11804 L 11618,10960 11708,10908 11708,11902 10920,12357 10920,11804 11618,11804 Z M 11608,11794 L 10920,11794 10920,11363 11608,10966 11608,11794 Z"/>
     <path fill="rgb(179,224,244)" stroke="none" d="M 11608,11794 L 11608,10966 11708,10908 11708,11902 10920,12357 10920,11794 11608,11794 Z M 11598,11784 L 10920,11784 10920,11363 11598,10972 11598,11784 Z"/>
     <path fill="rgb(180,225,244)" stroke="none" d="M 11598,11784 L 11598,10972 11708,10908 11708,11902 10920,12357 10920,11784 11598,11784 Z M 11588,11774 L 10920,11774 10920,11363 11588,10977 11588,11774 Z"/>
     <path fill="rgb(181,225,244)" stroke="none" d="M 11588,11774 L 11588,10977 11708,10908 11708,11902 10920,12357 10920,11774 11588,11774 Z M 11578,11764 L 10920,11764 10920,11363 11578,10983 11578,11764 Z"/>
     <path fill="rgb(182,226,245)" stroke="none" d="M 11578,11764 L 11578,10983 11708,10908 11708,11902 10920,12357 10920,11764 11578,11764 Z M 11568,11754 L 10920,11754 10920,11363 11568,10989 11568,11754 Z"/>
     <path fill="rgb(184,226,245)" stroke="none" d="M 11568,11754 L 11568,10989 11708,10908 11708,11902 10920,12357 10920,11754 11568,11754 Z M 11558,11744 L 10920,11744 10920,11363 11558,10995 11558,11744 Z"/>
     <path fill="rgb(185,227,245)" stroke="none" d="M 11558,11744 L 11558,10995 11708,10908 11708,11902 10920,12357 10920,11744 11558,11744 Z M 11548,11734 L 10920,11734 10920,11363 11548,11000 11548,11734 Z"/>
     <path fill="rgb(186,227,245)" stroke="none" d="M 11548,11734 L 11548,11000 11708,10908 11708,11902 10920,12357 10920,11734 11548,11734 Z M 11538,11724 L 10920,11724 10920,11363 11538,11006 11538,11724 Z"/>
     <path fill="rgb(187,228,245)" stroke="none" d="M 11538,11724 L 11538,11006 11708,10908 11708,11902 10920,12357 10920,11724 11538,11724 Z M 11528,11714 L 10920,11714 10920,11363 11528,11012 11528,11714 Z"/>
     <path fill="rgb(188,228,245)" stroke="none" d="M 11528,11714 L 11528,11012 11708,10908 11708,11902 10920,12357 10920,11714 11528,11714 Z M 11517,11704 L 10920,11704 10920,11363 11517,11018 11517,11704 Z"/>
     <path fill="rgb(190,229,246)" stroke="none" d="M 11517,11704 L 11517,11018 11708,10908 11708,11902 10920,12357 10920,11704 11517,11704 Z M 11507,11693 L 10920,11693 10920,11363 11507,11024 11507,11693 Z"/>
     <path fill="rgb(191,229,246)" stroke="none" d="M 11507,11693 L 11507,11024 11708,10908 11708,11902 10920,12357 10920,11693 11507,11693 Z M 11497,11683 L 10920,11683 10920,11363 11497,11030 11497,11683 Z"/>
     <path fill="rgb(192,229,246)" stroke="none" d="M 11497,11683 L 11497,11030 11708,10908 11708,11902 10920,12357 10920,11683 11497,11683 Z M 11487,11673 L 10920,11673 10920,11363 11487,11036 11487,11673 Z"/>
     <path fill="rgb(193,230,246)" stroke="none" d="M 11487,11673 L 11487,11036 11708,10908 11708,11902 10920,12357 10920,11673 11487,11673 Z M 11477,11663 L 10920,11663 10920,11363 11477,11041 11477,11663 Z"/>
     <path fill="rgb(194,230,246)" stroke="none" d="M 11477,11663 L 11477,11041 11708,10908 11708,11902 10920,12357 10920,11663 11477,11663 Z M 11467,11653 L 10920,11653 10920,11363 11467,11047 11467,11653 Z"/>
     <path fill="rgb(195,231,246)" stroke="none" d="M 11467,11653 L 11467,11047 11708,10908 11708,11902 10920,12357 10920,11653 11467,11653 Z M 11457,11643 L 10920,11643 10920,11363 11457,11053 11457,11643 Z"/>
     <path fill="rgb(197,231,247)" stroke="none" d="M 11457,11643 L 11457,11053 11708,10908 11708,11902 10920,12357 10920,11643 11457,11643 Z M 11447,11633 L 10920,11633 10920,11363 11447,11059 11447,11633 Z"/>
     <path fill="rgb(198,232,247)" stroke="none" d="M 11447,11633 L 11447,11059 11708,10908 11708,11902 10920,12357 10920,11633 11447,11633 Z M 11437,11623 L 10920,11623 10920,11363 11437,11064 11437,11623 Z"/>
     <path fill="rgb(199,232,247)" stroke="none" d="M 11437,11623 L 11437,11064 11708,10908 11708,11902 10920,12357 10920,11623 11437,11623 Z M 11427,11613 L 10920,11613 10920,11363 11427,11070 11427,11613 Z"/>
     <path fill="rgb(200,233,247)" stroke="none" d="M 11427,11613 L 11427,11070 11708,10908 11708,11902 10920,12357 10920,11613 11427,11613 Z M 11417,11079 L 11417,11603 10920,11603 10920,11363 11412,11079 11417,11079 Z"/>
     <path fill="rgb(201,233,247)" stroke="none" d="M 11417,11603 L 11417,11079 11412,11079 11708,10908 11708,11902 10920,12357 10920,11603 11417,11603 Z M 11407,11089 L 11407,11593 10920,11593 10920,11363 11395,11089 11407,11089 Z"/>
     <path fill="rgb(203,234,247)" stroke="none" d="M 11407,11593 L 11407,11089 11395,11089 11708,10908 11708,11902 10920,12357 10920,11593 11407,11593 Z M 11396,11100 L 11396,11582 10920,11582 10920,11363 11375,11100 11396,11100 Z"/>
     <path fill="rgb(204,234,248)" stroke="none" d="M 11396,11582 L 11396,11100 11375,11100 11708,10908 11708,11902 10920,12357 10920,11582 11396,11582 Z M 11386,11110 L 11386,11572 10924,11572 10924,11361 11358,11110 11386,11110 Z"/>
     <path fill="rgb(205,235,248)" stroke="none" d="M 10924,11572 L 11386,11572 11386,11110 11358,11110 11708,10908 11708,11902 10920,12357 10920,11363 10924,11361 10924,11572 Z M 11376,11120 L 11376,11562 10934,11562 10934,11355 11341,11120 11376,11120 Z"/>
     <path fill="rgb(206,235,248)" stroke="none" d="M 10934,11562 L 11376,11562 11376,11120 11341,11120 11708,10908 11708,11902 10920,12357 10920,11363 10934,11355 10934,11562 Z M 11366,11130 L 11366,11552 10944,11552 10944,11349 11324,11130 11366,11130 Z"/>
     <path fill="rgb(207,236,248)" stroke="none" d="M 10944,11552 L 11366,11552 11366,11130 11324,11130 11708,10908 11708,11902 10920,12357 10920,11363 10944,11349 10944,11552 Z M 11356,11140 L 11356,11542 10954,11542 10954,11343 11306,11140 11356,11140 Z"/>
     <path fill="rgb(209,236,248)" stroke="none" d="M 10954,11542 L 11356,11542 11356,11140 11306,11140 11708,10908 11708,11902 10920,12357 10920,11363 10954,11343 10954,11542 Z M 11346,11150 L 11346,11532 10964,11532 10964,11338 11289,11150 11346,11150 Z"/>
     <path fill="rgb(210,237,248)" stroke="none" d="M 10964,11532 L 11346,11532 11346,11150 11289,11150 11708,10908 11708,11902 10920,12357 10920,11363 10964,11338 10964,11532 Z M 11336,11160 L 11336,11522 10974,11522 10974,11332 11272,11160 11336,11160 Z"/>
     <path fill="rgb(211,237,249)" stroke="none" d="M 10974,11522 L 11336,11522 11336,11160 11272,11160 11708,10908 11708,11902 10920,12357 10920,11363 10974,11332 10974,11522 Z M 11326,11170 L 11326,11512 10984,11512 10984,11326 11254,11170 11326,11170 Z"/>
     <path fill="rgb(212,237,249)" stroke="none" d="M 10984,11512 L 11326,11512 11326,11170 11254,11170 11708,10908 11708,11902 10920,12357 10920,11363 10984,11326 10984,11512 Z M 11316,11180 L 11316,11502 10994,11502 10994,11320 11237,11180 11316,11180 Z"/>
     <path fill="rgb(213,238,249)" stroke="none" d="M 10994,11502 L 11316,11502 11316,11180 11237,11180 11708,10908 11708,11902 10920,12357 10920,11363 10994,11320 10994,11502 Z M 11306,11190 L 11306,11492 11004,11492 11004,11314 11220,11190 11306,11190 Z"/>
     <path fill="rgb(215,238,249)" stroke="none" d="M 11004,11492 L 11306,11492 11306,11190 11220,11190 11708,10908 11708,11902 10920,12357 10920,11363 11004,11314 11004,11492 Z M 11296,11200 L 11296,11482 11014,11482 11014,11309 11202,11200 11296,11200 Z"/>
     <path fill="rgb(216,239,249)" stroke="none" d="M 11014,11482 L 11296,11482 11296,11200 11202,11200 11708,10908 11708,11902 10920,12357 10920,11363 11014,11309 11014,11482 Z M 11286,11210 L 11286,11472 11024,11472 11024,11303 11185,11210 11286,11210 Z"/>
     <path fill="rgb(217,239,249)" stroke="none" d="M 11024,11472 L 11286,11472 11286,11210 11185,11210 11708,10908 11708,11902 10920,12357 10920,11363 11024,11303 11024,11472 Z M 11275,11221 L 11275,11461 11034,11461 11034,11297 11166,11221 11275,11221 Z"/>
     <path fill="rgb(218,240,250)" stroke="none" d="M 11034,11461 L 11275,11461 11275,11221 11166,11221 11708,10908 11708,11902 10920,12357 10920,11363 11034,11297 11034,11461 Z M 11265,11231 L 11265,11451 11045,11451 11045,11291 11149,11231 11265,11231 Z"/>
     <path fill="rgb(219,240,250)" stroke="none" d="M 11045,11451 L 11265,11451 11265,11231 11149,11231 11708,10908 11708,11902 10920,12357 10920,11363 11045,11291 11045,11451 Z M 11255,11241 L 11255,11441 11055,11441 11055,11285 11131,11241 11255,11241 Z"/>
     <path fill="rgb(221,241,250)" stroke="none" d="M 11055,11441 L 11255,11441 11255,11241 11131,11241 11708,10908 11708,11902 10920,12357 10920,11363 11055,11285 11055,11441 Z M 11245,11251 L 11245,11431 11065,11431 11065,11279 11114,11251 11245,11251 Z"/>
     <path fill="rgb(222,241,250)" stroke="none" d="M 11065,11431 L 11245,11431 11245,11251 11114,11251 11708,10908 11708,11902 10920,12357 10920,11363 11065,11279 11065,11431 Z M 11235,11261 L 11235,11421 11075,11421 11075,11274 11097,11261 11235,11261 Z"/>
     <path fill="rgb(223,242,250)" stroke="none" d="M 11075,11421 L 11235,11421 11235,11261 11097,11261 11708,10908 11708,11902 10920,12357 10920,11363 11075,11274 11075,11421 Z M 11085,11271 L 11225,11271 11225,11411 11085,11411 11085,11271 Z"/>
     <path fill="rgb(224,242,250)" stroke="none" d="M 11085,11271 L 11085,11411 11225,11411 11225,11271 11085,11271 Z M 11095,11281 L 11215,11281 11215,11401 11095,11401 11095,11281 Z M 10920,12357 L 10920,11363 11708,10908 11708,11902 10920,12357 Z"/>
     <path fill="rgb(225,243,251)" stroke="none" d="M 11095,11281 L 11095,11401 11215,11401 11215,11281 11095,11281 Z M 11105,11291 L 11205,11291 11205,11391 11105,11391 11105,11291 Z M 10920,12357 L 10920,11363 11708,10908 11708,11902 10920,12357 Z"/>
     <path fill="rgb(227,243,251)" stroke="none" d="M 11105,11291 L 11105,11391 11205,11391 11205,11291 11105,11291 Z M 11115,11301 L 11195,11301 11195,11381 11115,11381 11115,11301 Z M 10920,12357 L 10920,11363 11708,10908 11708,11902 10920,12357 Z"/>
     <path fill="rgb(228,244,251)" stroke="none" d="M 11115,11301 L 11115,11381 11195,11381 11195,11301 11115,11301 Z M 11125,11311 L 11185,11311 11185,11371 11125,11371 11125,11311 Z M 10920,12357 L 10920,11363 11708,10908 11708,11902 10920,12357 Z"/>
     <path fill="rgb(229,244,251)" stroke="none" d="M 11125,11311 L 11125,11371 11185,11371 11185,11311 11125,11311 Z M 11135,11321 L 11175,11321 11175,11361 11135,11361 11135,11321 Z M 10920,12357 L 10920,11363 11708,10908 11708,11902 10920,12357 Z"/>
     <path fill="rgb(230,245,251)" stroke="none" d="M 11135,11321 L 11135,11361 11175,11361 11175,11321 11135,11321 Z M 11145,11331 L 11165,11331 11165,11351 11145,11351 11145,11331 Z M 10920,12357 L 10920,11363 11708,10908 11708,11902 10920,12357 Z"/>
     <path fill="rgb(233,246,252)" stroke="none" d="M 11145,11331 L 11145,11351 11165,11351 11165,11331 11145,11331 Z M 10920,12357 L 10920,11363 11708,10908 11708,11902 10920,12357 Z"/>
     <path fill="none" stroke="rgb(255,255,255)" id="Drawing_20_0" stroke-width="40" stroke-linejoin="round" d="M 10920,12357 L 10920,11363 11708,10908 11708,11902 10920,12357 Z"/>
    </g>
    <g>
     <defs>
      <linearGradient id="Gradient_951" gradientUnits="userSpaceOnUse" x1="10920" y1="10453" x2="10920" y2="11364">
       <stop offset="0.1" stop-color="rgb(147,212,240)"/>
       <stop offset="1" stop-color="rgb(233,246,252)"/>
      </linearGradient>
     </defs>
     <path fill="url(#Gradient_951)" stroke="rgb(255,255,255)" id="Drawing_21_0" stroke-width="40" stroke-linejoin="round" d="M 10920,11364 L 10132,10908 10920,10453 11708,10908 10920,11364 Z"/>
    </g>
    <g>
     <path fill="none" stroke="rgb(0,0,0)" id="Drawing_22_0" stroke-width="40" stroke-linejoin="round" d="M 10132,11902 L 10132,10908 10920,10453 11708,10908 11708,11902 10920,12358 10132,11902 Z"/>
    </g>
    <g>
     <path fill="none" stroke="rgb(127,127,127)" id="Drawing_23_0" stroke-width="40" stroke-linejoin="round" d="M 10991,11447 L 11134,11364 11135,11488 11278,11405 11278,11281 11349,11240 11349,11364 11421,11323 11421,11198 11492,11157 11493,11281 11564,11240 11564,11115 11635,11074"/>
    </g>
    <g>
     <path fill="none" stroke="rgb(127,127,127)" id="Drawing_24_0" stroke-width="40" stroke-linejoin="round" d="M 10991,11654 L 11063,11613 11063,11737 11206,11654 11206,11530 11278,11488 11278,11613 11421,11530 11421,11405 11492,11364 11493,11488 11635,11405"/>
    </g>
    <g>
     <path fill="none" stroke="rgb(127,127,127)" id="Drawing_25_0" stroke-width="40" stroke-linejoin="round" d="M 10992,11986 L 11135,11903 11135,11779 11279,11696 11279,11820 11493,11696 11493,11572 11565,11530 11565,11654 11636,11613"/>
    </g>
    <g>
     <path fill="none" stroke="rgb(127,127,127)" id="Drawing_26_0" stroke-width="40" stroke-linejoin="round" d="M 10992,12192 L 11064,12150 11063,12026 11206,11943 11207,12067 11350,11985 11350,11860 11422,11819 11422,11943 11493,11902 11493,11778 11565,11736 11565,11860 11636,11819"/>
    </g>
    <g>
     <path fill="none" stroke="rgb(190,30,45)" id="Drawing_27_0" stroke-width="40" stroke-linejoin="round" d="M 10204,11778 L 10276,11819 10347,11737 10419,11405 10562,11364 10634,11530 10706,11778 10706,12027 10777,12151 10849,12192"/>
    </g>
    <g>
     <path fill="none" stroke="rgb(0,115,188)" id="Drawing_28_0" stroke-width="40" stroke-linejoin="round" d="M 10204,11696 L 10276,11737 10347,11654 10490,11613 10562,11654 10634,11779 10706,11903 10777,12027 10849,12069"/>
    </g>
    <g>
     <path fill="none" stroke="rgb(127,127,127)" id="Drawing_29_0" stroke-width="40" stroke-linejoin="round" d="M 10204,11240 L 10849,11613"/>
    </g>
    <g>
     <path fill="none" stroke="rgb(102,102,102)" id="Drawing_30_0" stroke-width="40" stroke-linejoin="round" d="M 10204,11861 L 10204,11033 10849,11406 10849,12234 10204,11861 Z"/>
    </g>
   </g>
  </g>
 </g>
</svg>