<?xml version="1.0" encoding="UTF-8"?>

<svg version="1.2" baseProfile="tiny" width="69.31mm" height="48.67mm" viewBox="6390 18015 6931 4867" preserveAspectRatio="xMidYMid" fill-rule="evenodd" stroke-width="28.222" stroke-linejoin="round" xmlns="http://www.w3.org/2000/svg" xmlns:xlink="http://www.w3.org/1999/xlink" xml:space="preserve">
 <g visibility="visible" id="Slide_1">
  <g id="DrawingGroup_1">
   <g id="DrawingGroup_2">
    <g>
     <path fill="rgb(221,221,221)" stroke="none" d="M 10154,22862 C 10417,22862 13321,21586 13321,21197 13321,20809 12913,20809 12649,20809 12649,20975 10058,21641 10154,22862 Z"/>
     <path fill="none" stroke="rgb(221,221,221)" id="Drawing_1_0" stroke-linejoin="round" d="M 10154,22862 C 10417,22862 13321,21586 13321,21197 13321,20809 12913,20809 12649,20809 12649,20975 10058,21641 10154,22862 Z"/>
    </g>
    <g id="DrawingGroup_3">
     <g>
      <defs>
       <linearGradient id="Gradient_952" gradientUnits="userSpaceOnUse" x1="6598" y1="21221" x2="9963" y2="21227">
        <stop offset="0.1" stop-color="rgb(51,51,51)"/>
        <stop offset="1" stop-color="rgb(153,153,153)"/>
       </linearGradient>
      </defs>
      <path fill="url(#Gradient_952)" stroke="rgb(178,178,178)" id="Drawing_2_0" stroke-width="40" stroke-linejoin="round" d="M 6602,20809 L 6602,19699 9961,21641 9961,22750 6602,20809 Z"/>
     </g>
     <g>
      <path fill="rgb(51,51,51)" stroke="none" d="M 12249,21429 L 10855,22234 9961,22234 9961,21641 12249,20319 12249,21429 Z"/>
      <path fill="rgb(52,52,52)" stroke="none" d="M 10855,22234 L 9961,22751 9961,22234 10855,22234 Z M 12249,20319 L 12840,19977 12840,21087 12249,21429 12249,20319 Z M 12235,21437 L 10880,22220 9961,22220 9961,21641 12235,20327 12235,21437 Z"/>
      <path fill="rgb(53,53,53)" stroke="none" d="M 10880,22220 L 9961,22751 9961,22220 10880,22220 Z M 12235,20327 L 12840,19977 12840,21087 12235,21437 12235,20327 Z M 12221,21445 L 10904,22206 9961,22206 9961,21641 12221,20335 12221,21445 Z"/>
      <path fill="rgb(54,54,54)" stroke="none" d="M 10904,22206 L 9961,22751 9961,22206 10904,22206 Z M 12221,20335 L 12840,19977 12840,21087 12221,21445 12221,20335 Z M 12207,21453 L 10928,22192 9961,22192 9961,21641 12207,20343 12207,21453 Z"/>
      <path fill="rgb(55,55,55)" stroke="none" d="M 10928,22192 L 9961,22751 9961,22192 10928,22192 Z M 12207,20343 L 12840,19977 12840,21087 12207,21453 12207,20343 Z M 12193,21461 L 10952,22178 9961,22178 9961,21641 12193,20351 12193,21461 Z"/>
      <path fill="rgb(56,56,56)" stroke="none" d="M 10952,22178 L 9961,22751 9961,22178 10952,22178 Z M 12193,20351 L 12840,19977 12840,21087 12193,21461 12193,20351 Z M 12179,21469 L 10977,22164 9961,22164 9961,21641 12179,20359 12179,21469 Z"/>
      <path fill="rgb(57,57,57)" stroke="none" d="M 10977,22164 L 9961,22751 9961,22164 10977,22164 Z M 12179,20359 L 12840,19977 12840,21087 12179,21469 12179,20359 Z M 12165,21477 L 11001,22150 9961,22150 9961,21641 12165,20367 12165,21477 Z"/>
      <path fill="rgb(58,58,58)" stroke="none" d="M 11001,22150 L 9961,22751 9961,22150 11001,22150 Z M 12165,20367 L 12840,19977 12840,21087 12165,21477 12165,20367 Z M 12150,21486 L 11027,22135 9961,22135 9961,21641 12150,20376 12150,21486 Z"/>
      <path fill="rgb(59,59,59)" stroke="none" d="M 11027,22135 L 9961,22751 9961,22135 11027,22135 Z M 12150,20376 L 12840,19977 12840,21087 12150,21486 12150,20376 Z M 12136,21494 L 11051,22121 9961,22121 9961,21641 12136,20384 12136,21494 Z"/>
      <path fill="rgb(60,60,60)" stroke="none" d="M 11051,22121 L 9961,22751 9961,22121 11051,22121 Z M 12136,20384 L 12840,19977 12840,21087 12136,21494 12136,20384 Z M 12122,21502 L 11075,22107 9961,22107 9961,21641 12122,20392 12122,21502 Z"/>
      <path fill="rgb(61,61,61)" stroke="none" d="M 11075,22107 L 9961,22751 9961,22107 11075,22107 Z M 12122,20392 L 12840,19977 12840,21087 12122,21502 12122,20392 Z M 12108,21510 L 11099,22093 9961,22093 9961,21641 12108,20400 12108,21510 Z"/>
      <path fill="rgb(62,62,62)" stroke="none" d="M 11099,22093 L 9961,22751 9961,22093 11099,22093 Z M 12108,20400 L 12840,19977 12840,21087 12108,21510 12108,20400 Z M 12094,21518 L 11124,22079 9961,22079 9961,21641 12094,20408 12094,21518 Z"/>
      <path fill="rgb(63,63,63)" stroke="none" d="M 11124,22079 L 9961,22751 9961,22079 11124,22079 Z M 12094,20408 L 12840,19977 12840,21087 12094,21518 12094,20408 Z M 12080,21526 L 11148,22065 9961,22065 9961,21641 12080,20416 12080,21526 Z"/>
      <path fill="rgb(64,64,64)" stroke="none" d="M 11148,22065 L 9961,22751 9961,22065 11148,22065 Z M 12080,20416 L 12840,19977 12840,21087 12080,21526 12080,20416 Z M 12066,21534 L 11172,22051 9961,22051 9961,21641 12066,20424 12066,21534 Z"/>
      <path fill="rgb(65,65,65)" stroke="none" d="M 11172,22051 L 9961,22751 9961,22051 11172,22051 Z M 12066,20424 L 12840,19977 12840,21087 12066,21534 12066,20424 Z M 12052,21542 L 11196,22037 9961,22037 9961,21641 12052,20432 12052,21542 Z"/>
      <path fill="rgb(66,66,66)" stroke="none" d="M 11196,22037 L 9961,22751 9961,22037 11196,22037 Z M 12052,20432 L 12840,19977 12840,21087 12052,21542 12052,20432 Z M 12037,21551 L 11222,22022 9961,22022 9961,21641 12037,20441 12037,21551 Z"/>
      <path fill="rgb(67,67,67)" stroke="none" d="M 11222,22022 L 9961,22751 9961,22022 11222,22022 Z M 12037,20441 L 12840,19977 12840,21087 12037,21551 12037,20441 Z M 12023,21559 L 11247,22008 9961,22008 9961,21641 12023,20449 12023,21559 Z"/>
      <path fill="rgb(68,68,68)" stroke="none" d="M 11247,22008 L 9961,22751 9961,22008 11247,22008 Z M 12023,20449 L 12840,19977 12840,21087 12023,21559 12023,20449 Z M 12009,21567 L 11271,21994 9961,21994 9961,21641 12009,20457 12009,21567 Z"/>
      <path fill="rgb(69,69,69)" stroke="none" d="M 11271,21994 L 9961,22751 9961,21994 11271,21994 Z M 12009,20457 L 12840,19977 12840,21087 12009,21567 12009,20457 Z M 11995,21575 L 11295,21980 9961,21980 9961,21641 11995,20465 11995,21575 Z"/>
      <path fill="rgb(70,70,70)" stroke="none" d="M 11295,21980 L 9961,22751 9961,21980 11295,21980 Z M 11995,20465 L 12840,19977 12840,21087 11995,21575 11995,20465 Z M 11981,21583 L 11319,21966 9961,21966 9961,21641 11981,20473 11981,21583 Z"/>
      <path fill="rgb(71,71,71)" stroke="none" d="M 11319,21966 L 9961,22751 9961,21966 11319,21966 Z M 11981,20473 L 12840,19977 12840,21087 11981,21583 11981,20473 Z M 11967,21592 L 11343,21952 9961,21952 9961,21641 11967,20482 11967,21592 Z"/>
      <path fill="rgb(72,72,72)" stroke="none" d="M 11343,21952 L 9961,22751 9961,21952 11343,21952 Z M 11967,20482 L 12840,19977 12840,21087 11967,21592 11967,20482 Z M 11953,21600 L 11368,21938 9961,21938 9961,21641 11953,20490 11953,21600 Z"/>
      <path fill="rgb(73,73,73)" stroke="none" d="M 11368,21938 L 9961,22751 9961,21938 11368,21938 Z M 11953,20490 L 12840,19977 12840,21087 11953,21600 11953,20490 Z M 11939,21608 L 11392,21924 9961,21924 9961,21641 11939,20498 11939,21608 Z"/>
      <path fill="rgb(74,74,74)" stroke="none" d="M 11392,21924 L 9961,22751 9961,21924 11392,21924 Z M 11939,20498 L 12840,19977 12840,21087 11939,21608 11939,20498 Z M 11924,21616 L 11418,21909 9961,21909 9961,21641 11924,20506 11924,21616 Z"/>
      <path fill="rgb(75,75,75)" stroke="none" d="M 11418,21909 L 9961,22751 9961,21909 11418,21909 Z M 11924,20506 L 12840,19977 12840,21087 11924,21616 11924,20506 Z M 11910,21625 L 11442,21895 9961,21895 9961,21641 11910,20515 11910,21625 Z"/>
      <path fill="rgb(76,76,76)" stroke="none" d="M 11442,21895 L 9961,22751 9961,21895 11442,21895 Z M 11910,20515 L 12840,19977 12840,21087 11910,21625 11910,20515 Z M 11896,21633 L 11466,21881 9961,21881 9961,21641 11896,20523 11896,21633 Z"/>
      <path fill="rgb(77,77,77)" stroke="none" d="M 11466,21881 L 9961,22751 9961,21881 11466,21881 Z M 11896,20523 L 12840,19977 12840,21087 11896,21633 11896,20523 Z M 11882,21641 L 11490,21867 9961,21867 9961,21641 11882,20531 11882,21641 Z"/>
      <path fill="rgb(78,78,78)" stroke="none" d="M 11490,21867 L 9961,22751 9961,21867 11490,21867 Z M 11882,20531 L 12840,19977 12840,21087 11882,21641 11882,20531 Z M 11868,21649 L 11515,21853 9961,21853 9961,21641 11868,20539 11868,21649 Z"/>
      <path fill="rgb(79,79,79)" stroke="none" d="M 11515,21853 L 9961,22751 9961,21853 11515,21853 Z M 11868,20539 L 12840,19977 12840,21087 11868,21649 11868,20539 Z M 11854,21657 L 11539,21839 9961,21839 9961,21641 11854,20547 11854,21657 Z"/>
      <path fill="rgb(80,80,80)" stroke="none" d="M 11539,21839 L 9961,22751 9961,21839 11539,21839 Z M 11854,20547 L 12840,19977 12840,21087 11854,21657 11854,20547 Z M 11840,21665 L 11563,21825 9961,21825 9961,21641 11840,20555 11840,21665 Z"/>
      <path fill="rgb(81,81,81)" stroke="none" d="M 11563,21825 L 9961,22751 9961,21825 11563,21825 Z M 11840,20555 L 12840,19977 12840,21087 11840,21665 11840,20555 Z M 11826,21673 L 11587,21811 9961,21811 9961,21641 11826,20563 11826,21673 Z"/>
      <path fill="rgb(82,82,82)" stroke="none" d="M 11587,21811 L 9961,22751 9961,21811 11587,21811 Z M 11826,20563 L 12840,19977 12840,21087 11826,21673 11826,20563 Z M 11811,21682 L 11613,21796 9961,21796 9961,21641 11811,20572 11811,21682 Z"/>
      <path fill="rgb(83,83,83)" stroke="none" d="M 11613,21796 L 9961,22751 9961,21796 11613,21796 Z M 11811,20572 L 12840,19977 12840,21087 11811,21682 11811,20572 Z M 11797,21690 L 11638,21782 9961,21782 9961,21641 11797,20580 11797,21690 Z"/>
      <path fill="rgb(84,84,84)" stroke="none" d="M 11638,21782 L 9961,22751 9961,21782 11638,21782 Z M 11797,20580 L 12840,19977 12840,21087 11797,21690 11797,20580 Z M 11783,21698 L 11662,21768 9961,21768 9961,21641 11783,20588 11783,21698 Z"/>
      <path fill="rgb(85,85,85)" stroke="none" d="M 11662,21768 L 9961,22751 9961,21768 11662,21768 Z M 11783,20588 L 12840,19977 12840,21087 11783,21698 11783,20588 Z M 11769,21706 L 11686,21754 9961,21754 9961,21641 11769,20596 11769,21706 Z"/>
      <path fill="rgb(86,86,86)" stroke="none" d="M 11686,21754 L 9961,22751 9961,21754 11686,21754 Z M 11769,20596 L 12840,19977 12840,21087 11769,21706 11769,20596 Z M 11755,21714 L 11710,21740 9961,21740 9961,21641 11755,20604 11755,21714 Z"/>
      <path fill="rgb(87,87,87)" stroke="none" d="M 11710,21740 L 9961,22751 9961,21740 11710,21740 Z M 11755,20604 L 12840,19977 12840,21087 11755,21714 11755,20604 Z M 11741,21722 L 11734,21726 9961,21726 9961,21641 11741,20612 11741,21722 Z"/>
      <path fill="rgb(88,88,88)" stroke="none" d="M 11734,21726 L 9961,22751 9961,21726 11734,21726 Z M 11741,20612 L 12840,19977 12840,21087 11741,21722 11741,20612 Z M 11727,21712 L 9961,21712 9961,21641 11727,20620 11727,21712 Z"/>
      <path fill="rgb(89,89,89)" stroke="none" d="M 11727,21712 L 11727,20620 12840,19977 12840,21087 9961,22751 9961,21712 11727,21712 Z M 11713,21698 L 9961,21698 9961,21641 11713,20628 11713,21698 Z"/>
      <path fill="rgb(90,90,90)" stroke="none" d="M 11713,21698 L 11713,20628 12840,19977 12840,21087 9961,22751 9961,21698 11713,21698 Z M 11698,21683 L 9961,21683 9961,21641 11698,20637 11698,21683 Z"/>
      <path fill="rgb(91,91,91)" stroke="none" d="M 11698,21683 L 11698,20637 12840,19977 12840,21087 9961,22751 9961,21683 11698,21683 Z M 11684,21669 L 9962,21669 9962,21640 11684,20645 11684,21669 Z"/>
      <path fill="rgb(92,92,92)" stroke="none" d="M 9962,21669 L 11684,21669 11684,20645 12840,19977 12840,21087 9961,22751 9961,21641 9962,21640 9962,21669 Z M 11670,21655 L 9976,21655 9976,21632 11670,20653 11670,21655 Z"/>
      <path fill="rgb(93,93,93)" stroke="none" d="M 9976,21655 L 11670,21655 11670,20653 12840,19977 12840,21087 9961,22751 9961,21641 9976,21632 9976,21655 Z M 11656,21641 L 9990,21641 9990,21624 11656,20661 11656,21641 Z"/>
      <path fill="rgb(94,94,94)" stroke="none" d="M 9990,21641 L 11656,21641 11656,20661 12840,19977 12840,21087 9961,22751 9961,21641 9990,21624 9990,21641 Z M 11642,21627 L 10004,21627 10004,21616 11642,20669 11642,21627 Z"/>
      <path fill="rgb(95,95,95)" stroke="none" d="M 10004,21627 L 11642,21627 11642,20669 12840,19977 12840,21087 9961,22751 9961,21641 10004,21616 10004,21627 Z M 11628,21613 L 10018,21613 10018,21608 11628,20678 11628,21613 Z"/>
      <path fill="rgb(96,96,96)" stroke="none" d="M 10018,21613 L 11628,21613 11628,20678 12840,19977 12840,21087 9961,22751 9961,21641 10018,21608 10018,21613 Z M 11614,21599 L 10034,21599 11614,20686 11614,21599 Z"/>
      <path fill="rgb(97,97,97)" stroke="none" d="M 11614,21599 L 11614,20686 12840,19977 12840,21087 9961,22751 9961,21641 10034,21599 11614,21599 Z M 11600,21585 L 10058,21585 11600,20694 11600,21585 Z"/>
      <path fill="rgb(98,98,98)" stroke="none" d="M 11600,21585 L 11600,20694 12840,19977 12840,21087 9961,22751 9961,21641 10058,21585 11600,21585 Z M 11585,21570 L 10084,21570 11585,20702 11585,21570 Z"/>
      <path fill="rgb(99,99,99)" stroke="none" d="M 11585,21570 L 11585,20702 12840,19977 12840,21087 9961,22751 9961,21641 10084,21570 11585,21570 Z M 11571,21556 L 10108,21556 11571,20710 11571,21556 Z"/>
      <path fill="rgb(100,100,100)" stroke="none" d="M 11571,21556 L 11571,20710 12840,19977 12840,21087 9961,22751 9961,21641 10108,21556 11571,21556 Z M 11557,21542 L 10132,21542 11557,20719 11557,21542 Z"/>
      <path fill="rgb(101,101,101)" stroke="none" d="M 11557,21542 L 11557,20719 12840,19977 12840,21087 9961,22751 9961,21641 10132,21542 11557,21542 Z M 11543,21528 L 10157,21528 11543,20727 11543,21528 Z"/>
      <path fill="rgb(102,102,102)" stroke="none" d="M 11543,21528 L 11543,20727 12840,19977 12840,21087 9961,22751 9961,21641 10157,21528 11543,21528 Z M 11529,21514 L 10181,21514 11529,20735 11529,21514 Z"/>
      <path fill="rgb(103,103,103)" stroke="none" d="M 11529,21514 L 11529,20735 12840,19977 12840,21087 9961,22751 9961,21641 10181,21514 11529,21514 Z M 11515,21500 L 10205,21500 11515,20743 11515,21500 Z"/>
      <path fill="rgb(104,104,104)" stroke="none" d="M 11515,21500 L 11515,20743 12840,19977 12840,21087 9961,22751 9961,21641 10205,21500 11515,21500 Z M 11501,21486 L 10229,21486 11501,20751 11501,21486 Z"/>
      <path fill="rgb(105,105,105)" stroke="none" d="M 11501,21486 L 11501,20751 12840,19977 12840,21087 9961,22751 9961,21641 10229,21486 11501,21486 Z M 11486,21471 L 10255,21471 11486,20760 11486,21471 Z"/>
      <path fill="rgb(106,106,106)" stroke="none" d="M 11486,21471 L 11486,20760 12840,19977 12840,21087 9961,22751 9961,21641 10255,21471 11486,21471 Z M 11472,21457 L 10279,21457 11472,20768 11472,21457 Z"/>
      <path fill="rgb(107,107,107)" stroke="none" d="M 11472,21457 L 11472,20768 12840,19977 12840,21087 9961,22751 9961,21641 10279,21457 11472,21457 Z M 11458,21443 L 10304,21443 11458,20776 11458,21443 Z"/>
      <path fill="rgb(108,108,108)" stroke="none" d="M 11458,21443 L 11458,20776 12840,19977 12840,21087 9961,22751 9961,21641 10304,21443 11458,21443 Z M 11444,21429 L 10328,21429 11444,20784 11444,21429 Z"/>
      <path fill="rgb(109,109,109)" stroke="none" d="M 11444,21429 L 11444,20784 12840,19977 12840,21087 9961,22751 9961,21641 10328,21429 11444,21429 Z M 11430,21415 L 10352,21415 11430,20792 11430,21415 Z"/>
      <path fill="rgb(110,110,110)" stroke="none" d="M 11430,21415 L 11430,20792 12840,19977 12840,21087 9961,22751 9961,21641 10352,21415 11430,21415 Z M 11416,21401 L 10376,21401 11416,20800 11416,21401 Z"/>
      <path fill="rgb(111,111,111)" stroke="none" d="M 11416,21401 L 11416,20800 12840,19977 12840,21087 9961,22751 9961,21641 10376,21401 11416,21401 Z M 11402,21387 L 10400,21387 11402,20808 11402,21387 Z"/>
      <path fill="rgb(112,112,112)" stroke="none" d="M 11402,21387 L 11402,20808 12840,19977 12840,21087 9961,22751 9961,21641 10400,21387 11402,21387 Z M 11388,21373 L 10425,21373 11388,20816 11388,21373 Z"/>
      <path fill="rgb(113,113,113)" stroke="none" d="M 11388,21373 L 11388,20816 12840,19977 12840,21087 9961,22751 9961,21641 10425,21373 11388,21373 Z M 11373,21358 L 10451,21358 11373,20825 11373,21358 Z"/>
      <path fill="rgb(114,114,114)" stroke="none" d="M 11373,21358 L 11373,20825 12840,19977 12840,21087 9961,22751 9961,21641 10451,21358 11373,21358 Z M 11359,21344 L 10475,21344 11359,20833 11359,21344 Z"/>
      <path fill="rgb(115,115,115)" stroke="none" d="M 11359,21344 L 11359,20833 12840,19977 12840,21087 9961,22751 9961,21641 10475,21344 11359,21344 Z M 11345,21330 L 10499,21330 11345,20841 11345,21330 Z"/>
      <path fill="rgb(116,116,116)" stroke="none" d="M 11345,21330 L 11345,20841 12840,19977 12840,21087 9961,22751 9961,21641 10499,21330 11345,21330 Z M 11331,21316 L 10523,21316 11331,20849 11331,21316 Z"/>
      <path fill="rgb(117,117,117)" stroke="none" d="M 11331,21316 L 11331,20849 12840,19977 12840,21087 9961,22751 9961,21641 10523,21316 11331,21316 Z M 11317,21302 L 10548,21302 11317,20857 11317,21302 Z"/>
      <path fill="rgb(118,118,118)" stroke="none" d="M 11317,21302 L 11317,20857 12840,19977 12840,21087 9961,22751 9961,21641 10548,21302 11317,21302 Z M 11303,21288 L 10572,21288 11303,20865 11303,21288 Z"/>
      <path fill="rgb(119,119,119)" stroke="none" d="M 11303,21288 L 11303,20865 12840,19977 12840,21087 9961,22751 9961,21641 10572,21288 11303,21288 Z M 11289,21274 L 10596,21274 11289,20873 11289,21274 Z"/>
      <path fill="rgb(120,120,120)" stroke="none" d="M 11289,21274 L 11289,20873 12840,19977 12840,21087 9961,22751 9961,21641 10596,21274 11289,21274 Z M 11275,21260 L 10620,21260 11275,20882 11275,21260 Z"/>
      <path fill="rgb(121,121,121)" stroke="none" d="M 11275,21260 L 11275,20882 12840,19977 12840,21087 9961,22751 9961,21641 10620,21260 11275,21260 Z M 11260,21245 L 10646,21245 11260,20890 11260,21245 Z"/>
      <path fill="rgb(122,122,122)" stroke="none" d="M 11260,21245 L 11260,20890 12840,19977 12840,21087 9961,22751 9961,21641 10646,21245 11260,21245 Z M 11246,21231 L 10670,21231 11246,20898 11246,21231 Z"/>
      <path fill="rgb(123,123,123)" stroke="none" d="M 11246,21231 L 11246,20898 12840,19977 12840,21087 9961,22751 9961,21641 10670,21231 11246,21231 Z M 11232,21217 L 10695,21217 11232,20906 11232,21217 Z"/>
      <path fill="rgb(124,124,124)" stroke="none" d="M 11232,21217 L 11232,20906 12840,19977 12840,21087 9961,22751 9961,21641 10695,21217 11232,21217 Z M 11218,21203 L 10719,21203 11218,20914 11218,21203 Z"/>
      <path fill="rgb(125,125,125)" stroke="none" d="M 11218,21203 L 11218,20914 12840,19977 12840,21087 9961,22751 9961,21641 10719,21203 11218,21203 Z M 11204,21189 L 10743,21189 11204,20923 11204,21189 Z"/>
      <path fill="rgb(126,126,126)" stroke="none" d="M 11204,21189 L 11204,20923 12840,19977 12840,21087 9961,22751 9961,21641 10743,21189 11204,21189 Z M 11190,21175 L 10767,21175 11190,20931 11190,21175 Z"/>
      <path fill="rgb(127,127,127)" stroke="none" d="M 11190,21175 L 11190,20931 12840,19977 12840,21087 9961,22751 9961,21641 10767,21175 11190,21175 Z M 11176,21161 L 10791,21161 11176,20939 11176,21161 Z"/>
      <path fill="rgb(128,128,128)" stroke="none" d="M 11176,21161 L 11176,20939 12840,19977 12840,21087 9961,22751 9961,21641 10791,21161 11176,21161 Z M 11162,21147 L 10816,21147 11162,20947 11162,21147 Z"/>
      <path fill="rgb(129,129,129)" stroke="none" d="M 11162,21147 L 11162,20947 12840,19977 12840,21087 9961,22751 9961,21641 10816,21147 11162,21147 Z M 11147,21132 L 10842,21132 11147,20956 11147,21132 Z"/>
      <path fill="rgb(130,130,130)" stroke="none" d="M 11147,21132 L 11147,20956 12840,19977 12840,21087 9961,22751 9961,21641 10842,21132 11147,21132 Z M 11133,21118 L 10866,21118 11133,20964 11133,21118 Z"/>
      <path fill="rgb(131,131,131)" stroke="none" d="M 11133,21118 L 11133,20964 12840,19977 12840,21087 9961,22751 9961,21641 10866,21118 11133,21118 Z M 11119,21104 L 10890,21104 11119,20972 11119,21104 Z"/>
      <path fill="rgb(132,132,132)" stroke="none" d="M 11119,21104 L 11119,20972 12840,19977 12840,21087 9961,22751 9961,21641 10890,21104 11119,21104 Z M 11105,21090 L 10914,21090 11105,20980 11105,21090 Z"/>
      <path fill="rgb(133,133,133)" stroke="none" d="M 11105,21090 L 11105,20980 12840,19977 12840,21087 9961,22751 9961,21641 10914,21090 11105,21090 Z M 11091,21076 L 10939,21076 11091,20988 11091,21076 Z"/>
      <path fill="rgb(134,134,134)" stroke="none" d="M 11091,21076 L 11091,20988 12840,19977 12840,21087 9961,22751 9961,21641 10939,21076 11091,21076 Z M 11077,21062 L 10963,21062 11077,20996 11077,21062 Z"/>
      <path fill="rgb(135,135,135)" stroke="none" d="M 11077,21062 L 11077,20996 12840,19977 12840,21087 9961,22751 9961,21641 10963,21062 11077,21062 Z M 11063,21048 L 10987,21048 11063,21004 11063,21048 Z"/>
      <path fill="rgb(136,136,136)" stroke="none" d="M 11063,21048 L 11063,21004 12840,19977 12840,21087 9961,22751 9961,21641 10987,21048 11063,21048 Z M 11049,21034 L 11011,21034 11049,21012 11049,21034 Z"/>
      <path fill="rgb(137,137,137)" stroke="none" d="M 11049,21034 L 11049,21012 12840,19977 12840,21087 9961,22751 9961,21641 11011,21034 11049,21034 Z"/>
      <path fill="rgb(138,138,138)" stroke="none" d="M 9961,22751 L 9961,21641 12840,19977 12840,21087 9961,22751 Z"/>
      <path fill="rgb(139,139,139)" stroke="none" d="M 9961,22751 L 9961,21641 12840,19977 12840,21087 9961,22751 Z"/>
      <path fill="rgb(140,140,140)" stroke="none" d="M 9961,22751 L 9961,21641 12840,19977 12840,21087 9961,22751 Z"/>
      <path fill="rgb(141,141,141)" stroke="none" d="M 9961,22751 L 9961,21641 12840,19977 12840,21087 9961,22751 Z"/>
      <path fill="rgb(142,142,142)" stroke="none" d="M 9961,22751 L 9961,21641 12840,19977 12840,21087 9961,22751 Z"/>
      <path fill="rgb(143,143,143)" stroke="none" d="M 9961,22751 L 9961,21641 12840,19977 12840,21087 9961,22751 Z"/>
      <path fill="rgb(144,144,144)" stroke="none" d="M 9961,22751 L 9961,21641 12840,19977 12840,21087 9961,22751 Z"/>
      <path fill="rgb(145,145,145)" stroke="none" d="M 9961,22751 L 9961,21641 12840,19977 12840,21087 9961,22751 Z"/>
      <path fill="rgb(146,146,146)" stroke="none" d="M 9961,22751 L 9961,21641 12840,19977 12840,21087 9961,22751 Z"/>
      <path fill="rgb(147,147,147)" stroke="none" d="M 9961,22751 L 9961,21641 12840,19977 12840,21087 9961,22751 Z"/>
      <path fill="rgb(148,148,148)" stroke="none" d="M 9961,22751 L 9961,21641 12840,19977 12840,21087 9961,22751 Z"/>
      <path fill="rgb(149,149,149)" stroke="none" d="M 9961,22751 L 9961,21641 12840,19977 12840,21087 9961,22751 Z"/>
      <path fill="rgb(150,150,150)" stroke="none" d="M 9961,22751 L 9961,21641 12840,19977 12840,21087 9961,22751 Z"/>
      <path fill="rgb(151,151,151)" stroke="none" d="M 9961,22751 L 9961,21641 12840,19977 12840,21087 9961,22751 Z"/>
      <path fill="rgb(153,153,153)" stroke="none" d="M 9961,22751 L 9961,21641 12840,19977 12840,21087 9961,22751 Z"/>
      <path fill="none" stroke="rgb(178,178,178)" id="Drawing_3_0" stroke-width="40" stroke-linejoin="round" d="M 9961,22751 L 9961,21641 12840,19977 12840,21087 9961,22751 Z"/>
     </g>
     <g>
      <defs>
       <linearGradient id="Gradient_953" gradientUnits="userSpaceOnUse" x1="9721" y1="18035" x2="9721" y2="21641">
        <stop offset="0.1" stop-color="rgb(51,51,51)"/>
        <stop offset="1" stop-color="rgb(153,153,153)"/>
       </linearGradient>
      </defs>
      <path fill="url(#Gradient_953)" stroke="rgb(178,178,178)" id="Drawing_4_0" stroke-width="40" stroke-linejoin="round" d="M 9961,21641 L 6602,19699 9481,18035 12841,19977 9961,21641 Z"/>
     </g>
     <g>
      <path fill="none" stroke="rgb(153,153,153)" id="Drawing_5_0" stroke-width="40" stroke-linejoin="round" d="M 7754,20587 L 7754,21253"/>
     </g>
     <g>
      <path fill="none" stroke="rgb(178,178,178)" id="Drawing_6_0" stroke-width="40" stroke-linejoin="round" d="M 9866,22008 L 8330,21120"/>
     </g>
     <g>
      <path fill="none" stroke="rgb(178,178,178)" id="Drawing_7_0" stroke-width="40" stroke-linejoin="round" d="M 8321,20920 L 8321,21142"/>
     </g>
     <g>
      <path fill="none" stroke="rgb(102,102,102)" id="Drawing_8_0" stroke-width="40" stroke-linejoin="round" d="M 9857,21808 L 9857,22030"/>
     </g>
     <g>
      <path fill="none" stroke="rgb(102,102,102)" id="Drawing_9_0" stroke-width="40" stroke-linejoin="round" d="M 9857,21808 L 8321,20920"/>
     </g>
     <g>
      <path fill="rgb(57,181,74)" stroke="none" d="M 7946,20920 L 7946,20698 8138,20809 8138,21031 7946,20920 Z"/>
      <path fill="none" stroke="rgb(102,102,102)" id="Drawing_10_0" stroke-width="40" stroke-linejoin="round" d="M 7946,20920 L 7946,20698 8138,20809 8138,21031 7946,20920 Z"/>
     </g>
     <g>
      <path fill="none" stroke="rgb(153,153,153)" id="Drawing_11_0" stroke-width="40" stroke-linejoin="round" d="M 7562,20476 L 7562,21142"/>
     </g>
     <g>
      <path fill="none" stroke="rgb(153,153,153)" id="Drawing_12_0" stroke-width="40" stroke-linejoin="round" d="M 7370,20365 L 7370,21031"/>
     </g>
     <g>
      <path fill="none" stroke="rgb(153,153,153)" id="Drawing_13_0" stroke-width="40" stroke-linejoin="round" d="M 7178,20254 L 7178,20920"/>
     </g>
     <g>
      <path fill="none" stroke="rgb(153,153,153)" id="Drawing_14_0" stroke-width="40" stroke-linejoin="round" d="M 6986,20143 L 6986,20809"/>
     </g>
     <g>
      <path fill="none" stroke="rgb(153,153,153)" id="Drawing_15_0" stroke-width="40" stroke-linejoin="round" d="M 6794,20032 L 6794,20698"/>
     </g>
     <g>
      <defs>
       <linearGradient id="Gradient_954" gradientUnits="userSpaceOnUse" x1="6409" y1="20198" x2="6603" y2="20198">
        <stop offset="0.1" stop-color="rgb(51,51,51)"/>
        <stop offset="1" stop-color="rgb(153,153,153)"/>
       </linearGradient>
      </defs>
      <path fill="url(#Gradient_954)" stroke="rgb(178,178,178)" id="Drawing_16_0" stroke-width="40" stroke-linejoin="round" d="M 6410,20698 L 6410,19588 6602,19699 6602,20809 6410,20698 Z"/>
     </g>
     <g>
      <defs>
       <linearGradient id="Gradient_955" gradientUnits="userSpaceOnUse" x1="9960" y1="22251" x2="10154" y2="22251">
        <stop offset="0.1" stop-color="rgb(51,51,51)"/>
        <stop offset="1" stop-color="rgb(153,153,153)"/>
       </linearGradient>
      </defs>
      <path fill="url(#Gradient_955)" stroke="rgb(178,178,178)" id="Drawing_17_0" stroke-width="40" stroke-linejoin="round" d="M 9961,22751 L 9961,21641 10153,21752 10153,22862 9961,22751 Z"/>
     </g>
     <g>
      <path fill="none" stroke="rgb(0,0,0)" id="Drawing_18_0" stroke-width="40" stroke-linejoin="round" d="M 6410,20698 L 6410,19588 6602,19699 9481,18035 12841,19977 12841,21086 10153,22640 10153,22862 6410,20698 Z"/>
     </g>
    </g>
   </g>
   <g id="DrawingGroup_4">
    <g>
     <defs>
      <linearGradient id="Gradient_956" gradientUnits="userSpaceOnUse" x1="10895" y1="22068" x2="11685" y2="22070">
       <stop offset="0.1" stop-color="rgb(147,212,240)"/>
       <stop offset="1" stop-color="rgb(233,246,252)"/>
      </linearGradient>
     </defs>
     <path fill="url(#Gradient_956)" stroke="rgb(255,255,255)" id="Drawing_19_0" stroke-width="40" stroke-linejoin="round" d="M 10896,22339 L 10896,21345 11684,21800 11684,22794 10896,22339 Z"/>
    </g>
    <g>
     <path fill="rgb(147,212,240)" stroke="none" d="M 11684,22493 L 11684,21800 12472,21345 12472,22339 12205,22493 11684,22493 Z"/>
     <path fill="rgb(148,212,240)" stroke="none" d="M 12205,22493 L 11684,22794 11684,22493 12205,22493 Z M 11684,22483 L 11684,21800 12472,21345 12472,22339 12223,22483 11684,22483 Z"/>
     <path fill="rgb(149,212,240)" stroke="none" d="M 12223,22483 L 11684,22794 11684,22483 12223,22483 Z M 11684,22473 L 11684,21800 12472,21345 12472,22339 12240,22473 11684,22473 Z"/>
     <path fill="rgb(150,213,240)" stroke="none" d="M 12240,22473 L 11684,22794 11684,22473 12240,22473 Z M 11684,22463 L 11684,21800 12472,21345 12472,22339 12257,22463 11684,22463 Z"/>
     <path fill="rgb(151,213,240)" stroke="none" d="M 12257,22463 L 11684,22794 11684,22463 12257,22463 Z M 11684,22453 L 11684,21800 12472,21345 12472,22339 12275,22453 11684,22453 Z"/>
     <path fill="rgb(152,214,240)" stroke="none" d="M 12275,22453 L 11684,22794 11684,22453 12275,22453 Z M 11684,22443 L 11684,21800 12472,21345 12472,22339 12292,22443 11684,22443 Z"/>
     <path fill="rgb(154,214,241)" stroke="none" d="M 12292,22443 L 11684,22794 11684,22443 12292,22443 Z M 11684,22433 L 11684,21800 12472,21345 12472,22339 12309,22433 11684,22433 Z"/>
     <path fill="rgb(155,215,241)" stroke="none" d="M 12309,22433 L 11684,22794 11684,22433 12309,22433 Z M 11684,22423 L 11684,21800 12472,21345 12472,22339 12327,22423 11684,22423 Z"/>
     <path fill="rgb(156,215,241)" stroke="none" d="M 12327,22423 L 11684,22794 11684,22423 12327,22423 Z M 11684,22413 L 11684,21800 12472,21345 12472,22339 12344,22413 11684,22413 Z"/>
     <path fill="rgb(157,216,241)" stroke="none" d="M 12344,22413 L 11684,22794 11684,22413 12344,22413 Z M 11684,22403 L 11684,21800 12472,21345 12472,22339 12361,22403 11684,22403 Z"/>
     <path fill="rgb(158,216,241)" stroke="none" d="M 12361,22403 L 11684,22794 11684,22403 12361,22403 Z M 11684,22393 L 11684,21800 12472,21345 12472,22339 12378,22393 11684,22393 Z"/>
     <path fill="rgb(160,217,241)" stroke="none" d="M 12378,22393 L 11684,22794 11684,22393 12378,22393 Z M 11684,22383 L 11684,21800 12472,21345 12472,22339 12396,22383 11684,22383 Z"/>
     <path fill="rgb(161,217,242)" stroke="none" d="M 12396,22383 L 11684,22794 11684,22383 12396,22383 Z M 11684,22372 L 11684,21800 12472,21345 12472,22339 12415,22372 11684,22372 Z"/>
     <path fill="rgb(162,218,242)" stroke="none" d="M 12415,22372 L 11684,22794 11684,22372 12415,22372 Z M 11684,22362 L 11684,21800 12472,21345 12472,22339 12432,22362 11684,22362 Z"/>
     <path fill="rgb(163,218,242)" stroke="none" d="M 12432,22362 L 11684,22794 11684,22362 12432,22362 Z M 11684,22352 L 11684,21800 12472,21345 12472,22339 12449,22352 11684,22352 Z"/>
     <path fill="rgb(164,219,242)" stroke="none" d="M 12449,22352 L 11684,22794 11684,22352 12449,22352 Z M 11684,22342 L 11684,21800 12472,21345 12472,22339 12467,22342 11684,22342 Z"/>
     <path fill="rgb(166,219,242)" stroke="none" d="M 12467,22342 L 11684,22794 11684,22342 12467,22342 Z M 11684,22332 L 11684,21800 12472,21345 12472,22332 11684,22332 Z"/>
     <path fill="rgb(167,220,242)" stroke="none" d="M 12472,22332 L 12472,22339 11684,22794 11684,22332 12472,22332 Z M 12463,22322 L 11684,22322 11684,21800 12463,21350 12463,22322 Z"/>
     <path fill="rgb(168,220,243)" stroke="none" d="M 12463,22322 L 12463,21350 12472,21345 12472,22339 11684,22794 11684,22322 12463,22322 Z M 12453,22312 L 11684,22312 11684,21800 12453,21356 12453,22312 Z"/>
     <path fill="rgb(169,220,243)" stroke="none" d="M 12453,22312 L 12453,21356 12472,21345 12472,22339 11684,22794 11684,22312 12453,22312 Z M 12443,22302 L 11684,22302 11684,21800 12443,21362 12443,22302 Z"/>
     <path fill="rgb(170,221,243)" stroke="none" d="M 12443,22302 L 12443,21362 12472,21345 12472,22339 11684,22794 11684,22302 12443,22302 Z M 12433,22292 L 11684,22292 11684,21800 12433,21368 12433,22292 Z"/>
     <path fill="rgb(172,221,243)" stroke="none" d="M 12433,22292 L 12433,21368 12472,21345 12472,22339 11684,22794 11684,22292 12433,22292 Z M 12423,22282 L 11684,22282 11684,21800 12423,21373 12423,22282 Z"/>
     <path fill="rgb(173,222,243)" stroke="none" d="M 12423,22282 L 12423,21373 12472,21345 12472,22339 11684,22794 11684,22282 12423,22282 Z M 12413,22272 L 11684,22272 11684,21800 12413,21379 12413,22272 Z"/>
     <path fill="rgb(174,222,243)" stroke="none" d="M 12413,22272 L 12413,21379 12472,21345 12472,22339 11684,22794 11684,22272 12413,22272 Z M 12402,22262 L 11684,22262 11684,21800 12402,21385 12402,22262 Z"/>
     <path fill="rgb(175,223,244)" stroke="none" d="M 12402,22262 L 12402,21385 12472,21345 12472,22339 11684,22794 11684,22262 12402,22262 Z M 12392,22251 L 11684,22251 11684,21800 12392,21391 12392,22251 Z"/>
     <path fill="rgb(176,223,244)" stroke="none" d="M 12392,22251 L 12392,21391 12472,21345 12472,22339 11684,22794 11684,22251 12392,22251 Z M 12382,22241 L 11684,22241 11684,21800 12382,21397 12382,22241 Z"/>
     <path fill="rgb(178,224,244)" stroke="none" d="M 12382,22241 L 12382,21397 12472,21345 12472,22339 11684,22794 11684,22241 12382,22241 Z M 12372,22231 L 11684,22231 11684,21800 12372,21403 12372,22231 Z"/>
     <path fill="rgb(179,224,244)" stroke="none" d="M 12372,22231 L 12372,21403 12472,21345 12472,22339 11684,22794 11684,22231 12372,22231 Z M 12362,22221 L 11684,22221 11684,21800 12362,21409 12362,22221 Z"/>
     <path fill="rgb(180,225,244)" stroke="none" d="M 12362,22221 L 12362,21409 12472,21345 12472,22339 11684,22794 11684,22221 12362,22221 Z M 12352,22211 L 11684,22211 11684,21800 12352,21414 12352,22211 Z"/>
     <path fill="rgb(181,225,244)" stroke="none" d="M 12352,22211 L 12352,21414 12472,21345 12472,22339 11684,22794 11684,22211 12352,22211 Z M 12342,22201 L 11684,22201 11684,21800 12342,21420 12342,22201 Z"/>
     <path fill="rgb(182,226,245)" stroke="none" d="M 12342,22201 L 12342,21420 12472,21345 12472,22339 11684,22794 11684,22201 12342,22201 Z M 12332,22191 L 11684,22191 11684,21800 12332,21426 12332,22191 Z"/>
     <path fill="rgb(184,226,245)" stroke="none" d="M 12332,22191 L 12332,21426 12472,21345 12472,22339 11684,22794 11684,22191 12332,22191 Z M 12322,22181 L 11684,22181 11684,21800 12322,21432 12322,22181 Z"/>
     <path fill="rgb(185,227,245)" stroke="none" d="M 12322,22181 L 12322,21432 12472,21345 12472,22339 11684,22794 11684,22181 12322,22181 Z M 12312,22171 L 11684,22171 11684,21800 12312,21437 12312,22171 Z"/>
     <path fill="rgb(186,227,245)" stroke="none" d="M 12312,22171 L 12312,21437 12472,21345 12472,22339 11684,22794 11684,22171 12312,22171 Z M 12302,22161 L 11684,22161 11684,21800 12302,21443 12302,22161 Z"/>
     <path fill="rgb(187,228,245)" stroke="none" d="M 12302,22161 L 12302,21443 12472,21345 12472,22339 11684,22794 11684,22161 12302,22161 Z M 12292,22151 L 11684,22151 11684,21800 12292,21449 12292,22151 Z"/>
     <path fill="rgb(188,228,245)" stroke="none" d="M 12292,22151 L 12292,21449 12472,21345 12472,22339 11684,22794 11684,22151 12292,22151 Z M 12281,22141 L 11684,22141 11684,21800 12281,21455 12281,22141 Z"/>
     <path fill="rgb(190,229,246)" stroke="none" d="M 12281,22141 L 12281,21455 12472,21345 12472,22339 11684,22794 11684,22141 12281,22141 Z M 12271,22130 L 11684,22130 11684,21800 12271,21461 12271,22130 Z"/>
     <path fill="rgb(191,229,246)" stroke="none" d="M 12271,22130 L 12271,21461 12472,21345 12472,22339 11684,22794 11684,22130 12271,22130 Z M 12261,22120 L 11684,22120 11684,21800 12261,21467 12261,22120 Z"/>
     <path fill="rgb(192,229,246)" stroke="none" d="M 12261,22120 L 12261,21467 12472,21345 12472,22339 11684,22794 11684,22120 12261,22120 Z M 12251,22110 L 11684,22110 11684,21800 12251,21473 12251,22110 Z"/>
     <path fill="rgb(193,230,246)" stroke="none" d="M 12251,22110 L 12251,21473 12472,21345 12472,22339 11684,22794 11684,22110 12251,22110 Z M 12241,22100 L 11684,22100 11684,21800 12241,21478 12241,22100 Z"/>
     <path fill="rgb(194,230,246)" stroke="none" d="M 12241,22100 L 12241,21478 12472,21345 12472,22339 11684,22794 11684,22100 12241,22100 Z M 12231,22090 L 11684,22090 11684,21800 12231,21484 12231,22090 Z"/>
     <path fill="rgb(195,231,246)" stroke="none" d="M 12231,22090 L 12231,21484 12472,21345 12472,22339 11684,22794 11684,22090 12231,22090 Z M 12221,22080 L 11684,22080 11684,21800 12221,21490 12221,22080 Z"/>
     <path fill="rgb(197,231,247)" stroke="none" d="M 12221,22080 L 12221,21490 12472,21345 12472,22339 11684,22794 11684,22080 12221,22080 Z M 12211,22070 L 11684,22070 11684,21800 12211,21496 12211,22070 Z"/>
     <path fill="rgb(198,232,247)" stroke="none" d="M 12211,22070 L 12211,21496 12472,21345 12472,22339 11684,22794 11684,22070 12211,22070 Z M 12201,22060 L 11684,22060 11684,21800 12201,21501 12201,22060 Z"/>
     <path fill="rgb(199,232,247)" stroke="none" d="M 12201,22060 L 12201,21501 12472,21345 12472,22339 11684,22794 11684,22060 12201,22060 Z M 12191,22050 L 11684,22050 11684,21800 12191,21507 12191,22050 Z"/>
     <path fill="rgb(200,233,247)" stroke="none" d="M 12191,22050 L 12191,21507 12472,21345 12472,22339 11684,22794 11684,22050 12191,22050 Z M 12181,21516 L 12181,22040 11684,22040 11684,21800 12176,21516 12181,21516 Z"/>
     <path fill="rgb(201,233,247)" stroke="none" d="M 12181,22040 L 12181,21516 12176,21516 12472,21345 12472,22339 11684,22794 11684,22040 12181,22040 Z M 12171,21526 L 12171,22030 11684,22030 11684,21800 12159,21526 12171,21526 Z"/>
     <path fill="rgb(203,234,247)" stroke="none" d="M 12171,22030 L 12171,21526 12159,21526 12472,21345 12472,22339 11684,22794 11684,22030 12171,22030 Z M 12160,21537 L 12160,22019 11684,22019 11684,21800 12139,21537 12160,21537 Z"/>
     <path fill="rgb(204,234,248)" stroke="none" d="M 12160,22019 L 12160,21537 12139,21537 12472,21345 12472,22339 11684,22794 11684,22019 12160,22019 Z M 12150,21547 L 12150,22009 11688,22009 11688,21798 12122,21547 12150,21547 Z"/>
     <path fill="rgb(205,235,248)" stroke="none" d="M 11688,22009 L 12150,22009 12150,21547 12122,21547 12472,21345 12472,22339 11684,22794 11684,21800 11688,21798 11688,22009 Z M 12140,21557 L 12140,21999 11698,21999 11698,21792 12105,21557 12140,21557 Z"/>
     <path fill="rgb(206,235,248)" stroke="none" d="M 11698,21999 L 12140,21999 12140,21557 12105,21557 12472,21345 12472,22339 11684,22794 11684,21800 11698,21792 11698,21999 Z M 12130,21567 L 12130,21989 11708,21989 11708,21786 12088,21567 12130,21567 Z"/>
     <path fill="rgb(207,236,248)" stroke="none" d="M 11708,21989 L 12130,21989 12130,21567 12088,21567 12472,21345 12472,22339 11684,22794 11684,21800 11708,21786 11708,21989 Z M 12120,21577 L 12120,21979 11718,21979 11718,21780 12070,21577 12120,21577 Z"/>
     <path fill="rgb(209,236,248)" stroke="none" d="M 11718,21979 L 12120,21979 12120,21577 12070,21577 12472,21345 12472,22339 11684,22794 11684,21800 11718,21780 11718,21979 Z M 12110,21587 L 12110,21969 11728,21969 11728,21775 12053,21587 12110,21587 Z"/>
     <path fill="rgb(210,237,248)" stroke="none" d="M 11728,21969 L 12110,21969 12110,21587 12053,21587 12472,21345 12472,22339 11684,22794 11684,21800 11728,21775 11728,21969 Z M 12100,21597 L 12100,21959 11738,21959 11738,21769 12036,21597 12100,21597 Z"/>
     <path fill="rgb(211,237,249)" stroke="none" d="M 11738,21959 L 12100,21959 12100,21597 12036,21597 12472,21345 12472,22339 11684,22794 11684,21800 11738,21769 11738,21959 Z M 12090,21607 L 12090,21949 11748,21949 11748,21763 12018,21607 12090,21607 Z"/>
     <path fill="rgb(212,237,249)" stroke="none" d="M 11748,21949 L 12090,21949 12090,21607 12018,21607 12472,21345 12472,22339 11684,22794 11684,21800 11748,21763 11748,21949 Z M 12080,21617 L 12080,21939 11758,21939 11758,21757 12001,21617 12080,21617 Z"/>
     <path fill="rgb(213,238,249)" stroke="none" d="M 11758,21939 L 12080,21939 12080,21617 12001,21617 12472,21345 12472,22339 11684,22794 11684,21800 11758,21757 11758,21939 Z M 12070,21627 L 12070,21929 11768,21929 11768,21751 11984,21627 12070,21627 Z"/>
     <path fill="rgb(215,238,249)" stroke="none" d="M 11768,21929 L 12070,21929 12070,21627 11984,21627 12472,21345 12472,22339 11684,22794 11684,21800 11768,21751 11768,21929 Z M 12060,21637 L 12060,21919 11778,21919 11778,21746 11966,21637 12060,21637 Z"/>
     <path fill="rgb(216,239,249)" stroke="none" d="M 11778,21919 L 12060,21919 12060,21637 11966,21637 12472,21345 12472,22339 11684,22794 11684,21800 11778,21746 11778,21919 Z M 12050,21647 L 12050,21909 11788,21909 11788,21740 11949,21647 12050,21647 Z"/>
     <path fill="rgb(217,239,249)" stroke="none" d="M 11788,21909 L 12050,21909 12050,21647 11949,21647 12472,21345 12472,22339 11684,22794 11684,21800 11788,21740 11788,21909 Z M 12039,21658 L 12039,21898 11798,21898 11798,21734 11930,21658 12039,21658 Z"/>
     <path fill="rgb(218,240,250)" stroke="none" d="M 11798,21898 L 12039,21898 12039,21658 11930,21658 12472,21345 12472,22339 11684,22794 11684,21800 11798,21734 11798,21898 Z M 12029,21668 L 12029,21888 11809,21888 11809,21728 11913,21668 12029,21668 Z"/>
     <path fill="rgb(219,240,250)" stroke="none" d="M 11809,21888 L 12029,21888 12029,21668 11913,21668 12472,21345 12472,22339 11684,22794 11684,21800 11809,21728 11809,21888 Z M 12019,21678 L 12019,21878 11819,21878 11819,21722 11895,21678 12019,21678 Z"/>
     <path fill="rgb(221,241,250)" stroke="none" d="M 11819,21878 L 12019,21878 12019,21678 11895,21678 12472,21345 12472,22339 11684,22794 11684,21800 11819,21722 11819,21878 Z M 12009,21688 L 12009,21868 11829,21868 11829,21716 11878,21688 12009,21688 Z"/>
     <path fill="rgb(222,241,250)" stroke="none" d="M 11829,21868 L 12009,21868 12009,21688 11878,21688 12472,21345 12472,22339 11684,22794 11684,21800 11829,21716 11829,21868 Z M 11999,21698 L 11999,21858 11839,21858 11839,21711 11861,21698 11999,21698 Z"/>
     <path fill="rgb(223,242,250)" stroke="none" d="M 11839,21858 L 11999,21858 11999,21698 11861,21698 12472,21345 12472,22339 11684,22794 11684,21800 11839,21711 11839,21858 Z M 11849,21708 L 11989,21708 11989,21848 11849,21848 11849,21708 Z"/>
     <path fill="rgb(224,242,250)" stroke="none" d="M 11849,21708 L 11849,21848 11989,21848 11989,21708 11849,21708 Z M 11859,21718 L 11979,21718 11979,21838 11859,21838 11859,21718 Z M 11684,22794 L 11684,21800 12472,21345 12472,22339 11684,22794 Z"/>
     <path fill="rgb(225,243,251)" stroke="none" d="M 11859,21718 L 11859,21838 11979,21838 11979,21718 11859,21718 Z M 11869,21728 L 11969,21728 11969,21828 11869,21828 11869,21728 Z M 11684,22794 L 11684,21800 12472,21345 12472,22339 11684,22794 Z"/>
     <path fill="rgb(227,243,251)" stroke="none" d="M 11869,21728 L 11869,21828 11969,21828 11969,21728 11869,21728 Z M 11879,21738 L 11959,21738 11959,21818 11879,21818 11879,21738 Z M 11684,22794 L 11684,21800 12472,21345 12472,22339 11684,22794 Z"/>
     <path fill="rgb(228,244,251)" stroke="none" d="M 11879,21738 L 11879,21818 11959,21818 11959,21738 11879,21738 Z M 11889,21748 L 11949,21748 11949,21808 11889,21808 11889,21748 Z M 11684,22794 L 11684,21800 12472,21345 12472,22339 11684,22794 Z"/>
     <path fill="rgb(229,244,251)" stroke="none" d="M 11889,21748 L 11889,21808 11949,21808 11949,21748 11889,21748 Z M 11899,21758 L 11939,21758 11939,21798 11899,21798 11899,21758 Z M 11684,22794 L 11684,21800 12472,21345 12472,22339 11684,22794 Z"/>
     <path fill="rgb(230,245,251)" stroke="none" d="M 11899,21758 L 11899,21798 11939,21798 11939,21758 11899,21758 Z M 11909,21768 L 11929,21768 11929,21788 11909,21788 11909,21768 Z M 11684,22794 L 11684,21800 12472,21345 12472,22339 11684,22794 Z"/>
     <path fill="rgb(233,246,252)" stroke="none" d="M 11909,21768 L 11909,21788 11929,21788 11929,21768 11909,21768 Z M 11684,22794 L 11684,21800 12472,21345 12472,22339 11684,22794 Z"/>
     <path fill="none" stroke="rgb(255,255,255)" id="Drawing_20_0" stroke-width="40" stroke-linejoin="round" d="M 11684,22794 L 11684,21800 12472,21345 12472,22339 11684,22794 Z"/>
    </g>
    <g>
     <defs>
      <linearGradient id="Gradient_957" gradientUnits="userSpaceOnUse" x1="11684" y1="20890" x2="11684" y2="21801">
       <stop offset="0.1" stop-color="rgb(147,212,240)"/>
       <stop offset="1" stop-color="rgb(233,246,252)"/>
      </linearGradient>
     </defs>
     <path fill="url(#Gradient_957)" stroke="rgb(255,255,255)" id="Drawing_21_0" stroke-width="40" stroke-linejoin="round" d="M 11684,21801 L 10896,21345 11684,20890 12472,21345 11684,21801 Z"/>
    </g>
    <g>
     <path fill="none" stroke="rgb(0,0,0)" id="Drawing_22_0" stroke-width="40" stroke-linejoin="round" d="M 10896,22339 L 10896,21345 11684,20890 12472,21345 12472,22339 11684,22795 10896,22339 Z"/>
    </g>
    <g>
     <path fill="none" stroke="rgb(127,127,127)" id="Drawing_23_0" stroke-width="40" stroke-linejoin="round" d="M 11755,21884 L 11898,21801 11899,21925 12042,21842 12042,21718 12113,21677 12113,21801 12185,21760 12185,21635 12256,21594 12257,21718 12328,21677 12328,21552 12399,21511"/>
    </g>
    <g>
     <path fill="none" stroke="rgb(127,127,127)" id="Drawing_24_0" stroke-width="40" stroke-linejoin="round" d="M 11755,22091 L 11827,22050 11827,22174 11970,22091 11970,21967 12042,21925 12042,22050 12185,21967 12185,21842 12256,21801 12257,21925 12399,21842"/>
    </g>
    <g>
     <path fill="none" stroke="rgb(127,127,127)" id="Drawing_25_0" stroke-width="40" stroke-linejoin="round" d="M 11756,22423 L 11899,22340 11899,22216 12043,22133 12043,22257 12257,22133 12257,22009 12329,21967 12329,22091 12400,22050"/>
    </g>
    <g>
     <path fill="none" stroke="rgb(127,127,127)" id="Drawing_26_0" stroke-width="40" stroke-linejoin="round" d="M 11756,22629 L 11828,22587 11827,22463 11970,22380 11971,22504 12114,22422 12114,22297 12186,22256 12186,22380 12257,22339 12257,22215 12329,22173 12329,22297 12400,22256"/>
    </g>
    <g>
     <path fill="none" stroke="rgb(190,30,45)" id="Drawing_27_0" stroke-width="40" stroke-linejoin="round" d="M 10968,22215 L 11040,22256 11111,22174 11183,21842 11326,21801 11398,21967 11470,22215 11470,22464 11541,22588 11613,22629"/>
    </g>
    <g>
     <path fill="none" stroke="rgb(0,115,188)" id="Drawing_28_0" stroke-width="40" stroke-linejoin="round" d="M 10968,22133 L 11040,22174 11111,22091 11254,22050 11326,22091 11398,22216 11470,22340 11541,22464 11613,22506"/>
    </g>
    <g>
     <path fill="none" stroke="rgb(127,127,127)" id="Drawing_29_0" stroke-width="40" stroke-linejoin="round" d="M 10968,21677 L 11613,22050"/>
    </g>
    <g>
     <path fill="none" stroke="rgb(102,102,102)" id="Drawing_30_0" stroke-width="40" stroke-linejoin="round" d="M 10968,22298 L 10968,21470 11613,21843 11613,22671 10968,22298 Z"/>
    </g>
   </g>
  </g>
 </g>
</svg>