<?xml version="1.0" encoding="UTF-8"?>

<svg version="1.2" baseProfile="tiny" width="69.31mm" height="48.68mm" viewBox="4803 5881 6931 4868" preserveAspectRatio="xMidYMid" fill-rule="evenodd" stroke-width="28.222" stroke-linejoin="round" xmlns="http://www.w3.org/2000/svg" xmlns:xlink="http://www.w3.org/1999/xlink" xml:space="preserve">
 <g visibility="visible" id="Slide_1">
  <g id="DrawingGroup_1">
   <g id="DrawingGroup_2">
    <g>
     <path fill="rgb(221,221,221)" stroke="none" d="M 8567,10728 C 8830,10728 11734,9452 11734,9063 11734,8675 11326,8675 11062,8675 11062,8841 8471,9507 8567,10728 Z"/>
     <path fill="none" stroke="rgb(221,221,221)" id="Drawing_1_0" stroke-linejoin="round" d="M 8567,10728 C 8830,10728 11734,9452 11734,9063 11734,8675 11326,8675 11062,8675 11062,8841 8471,9507 8567,10728 Z"/>
    </g>
    <g id="DrawingGroup_3">
     <g>
      <defs>
       <linearGradient id="Gradient_930" gradientUnits="userSpaceOnUse" x1="5011" y1="9087" x2="8376" y2="9093">
        <stop offset="0.1" stop-color="rgb(179,179,179)"/>
        <stop offset="1" stop-color="rgb(229,229,229)"/>
       </linearGradient>
      </defs>
      <path fill="url(#Gradient_930)" stroke="rgb(255,255,255)" id="Drawing_2_0" stroke-width="40" stroke-linejoin="round" d="M 5015,8675 L 5015,7565 8374,9507 8374,10616 5015,8675 Z"/>
     </g>
     <g>
      <path fill="rgb(179,179,179)" stroke="none" d="M 10648,9303 L 9293,10086 8374,10086 8374,9507 10648,8193 10648,9303 Z"/>
      <path fill="rgb(180,180,180)" stroke="none" d="M 9293,10086 L 8374,10617 8374,10086 9293,10086 Z M 10648,8193 L 11253,7843 11253,8953 10648,9303 10648,8193 Z M 10619,9319 L 9343,10057 8374,10057 8374,9507 10619,8209 10619,9319 Z"/>
      <path fill="rgb(181,181,181)" stroke="none" d="M 9343,10057 L 8374,10617 8374,10057 9343,10057 Z M 10619,8209 L 11253,7843 11253,8953 10619,9319 10619,8209 Z M 10590,9336 L 9393,10028 8374,10028 8374,9507 10590,8226 10590,9336 Z"/>
      <path fill="rgb(182,182,182)" stroke="none" d="M 9393,10028 L 8374,10617 8374,10028 9393,10028 Z M 10590,8226 L 11253,7843 11253,8953 10590,9336 10590,8226 Z M 10561,9353 L 9443,9999 8374,9999 8374,9507 10561,8243 10561,9353 Z"/>
      <path fill="rgb(183,183,183)" stroke="none" d="M 9443,9999 L 8374,10617 8374,9999 9443,9999 Z M 10561,8243 L 11253,7843 11253,8953 10561,9353 10561,8243 Z M 10532,9370 L 9493,9970 8374,9970 8374,9507 10532,8260 10532,9370 Z"/>
      <path fill="rgb(184,184,184)" stroke="none" d="M 9493,9970 L 8374,10617 8374,9970 9493,9970 Z M 10532,8260 L 11253,7843 11253,8953 10532,9370 10532,8260 Z M 10504,9386 L 9542,9942 8374,9942 8374,9507 10504,8276 10504,9386 Z"/>
      <path fill="rgb(185,185,185)" stroke="none" d="M 9542,9942 L 8374,10617 8374,9942 9542,9942 Z M 10504,8276 L 11253,7843 11253,8953 10504,9386 10504,8276 Z M 10475,9403 L 9592,9913 8374,9913 8374,9507 10475,8293 10475,9403 Z"/>
      <path fill="rgb(186,186,186)" stroke="none" d="M 9592,9913 L 8374,10617 8374,9913 9592,9913 Z M 10475,8293 L 11253,7843 11253,8953 10475,9403 10475,8293 Z M 10446,9419 L 9642,9884 8374,9884 8374,9507 10446,8309 10446,9419 Z"/>
      <path fill="rgb(187,187,187)" stroke="none" d="M 9642,9884 L 8374,10617 8374,9884 9642,9884 Z M 10446,8309 L 11253,7843 11253,8953 10446,9419 10446,8309 Z M 10417,9436 L 9692,9855 8374,9855 8374,9507 10417,8326 10417,9436 Z"/>
      <path fill="rgb(188,188,188)" stroke="none" d="M 9692,9855 L 8374,10617 8374,9855 9692,9855 Z M 10417,8326 L 11253,7843 11253,8953 10417,9436 10417,8326 Z M 10388,9453 L 9743,9826 8374,9826 8374,9507 10388,8343 10388,9453 Z"/>
      <path fill="rgb(189,189,189)" stroke="none" d="M 9743,9826 L 8374,10617 8374,9826 9743,9826 Z M 10388,8343 L 11253,7843 11253,8953 10388,9453 10388,8343 Z M 10359,9470 L 9793,9797 8374,9797 8374,9507 10359,8360 10359,9470 Z"/>
      <path fill="rgb(190,190,190)" stroke="none" d="M 9793,9797 L 8374,10617 8374,9797 9793,9797 Z M 10359,8360 L 11253,7843 11253,8953 10359,9470 10359,8360 Z M 10331,9486 L 9841,9769 8374,9769 8374,9507 10331,8376 10331,9486 Z"/>
      <path fill="rgb(191,191,191)" stroke="none" d="M 9841,9769 L 8374,10617 8374,9769 9841,9769 Z M 10331,8376 L 11253,7843 11253,8953 10331,9486 10331,8376 Z M 10302,9503 L 9891,9740 8374,9740 8374,9507 10302,8393 10302,9503 Z"/>
      <path fill="rgb(192,192,192)" stroke="none" d="M 9891,9740 L 8374,10617 8374,9740 9891,9740 Z M 10302,8393 L 11253,7843 11253,8953 10302,9503 10302,8393 Z M 10273,9519 L 9942,9711 8374,9711 8374,9507 10273,8409 10273,9519 Z"/>
      <path fill="rgb(193,193,193)" stroke="none" d="M 9942,9711 L 8374,10617 8374,9711 9942,9711 Z M 10273,8409 L 11253,7843 11253,8953 10273,9519 10273,8409 Z M 10244,9536 L 9992,9682 8374,9682 8374,9507 10244,8426 10244,9536 Z"/>
      <path fill="rgb(194,194,194)" stroke="none" d="M 9992,9682 L 8374,10617 8374,9682 9992,9682 Z M 10244,8426 L 11253,7843 11253,8953 10244,9536 10244,8426 Z M 10215,9553 L 10042,9653 8374,9653 8374,9507 10215,8443 10215,9553 Z"/>
      <path fill="rgb(195,195,195)" stroke="none" d="M 10042,9653 L 8374,10617 8374,9653 10042,9653 Z M 10215,8443 L 11253,7843 11253,8953 10215,9553 10215,8443 Z M 10187,9569 L 10090,9625 8374,9625 8374,9507 10187,8459 10187,9569 Z"/>
      <path fill="rgb(196,196,196)" stroke="none" d="M 10090,9625 L 8374,10617 8374,9625 10090,9625 Z M 10187,8459 L 11253,7843 11253,8953 10187,9569 10187,8459 Z M 10158,9586 L 10141,9596 8374,9596 8374,9507 10158,8476 10158,9586 Z"/>
      <path fill="rgb(197,197,197)" stroke="none" d="M 10141,9596 L 8374,10617 8374,9596 10141,9596 Z M 10158,8476 L 11253,7843 11253,8953 10158,9586 10158,8476 Z M 10129,9567 L 8374,9567 8374,9507 10129,8493 10129,9567 Z"/>
      <path fill="rgb(198,198,198)" stroke="none" d="M 10129,9567 L 10129,8493 11253,7843 11253,8953 8374,10617 8374,9567 10129,9567 Z M 10100,9538 L 8374,9538 8374,9507 10100,8509 10100,9538 Z"/>
      <path fill="rgb(199,199,199)" stroke="none" d="M 10100,9538 L 10100,8509 11253,7843 11253,8953 8374,10617 8374,9538 10100,9538 Z M 10071,9509 L 8401,9509 8401,9491 10071,8526 10071,9509 Z"/>
      <path fill="rgb(200,200,200)" stroke="none" d="M 8401,9509 L 10071,9509 10071,8526 11253,7843 11253,8953 8374,10617 8374,9507 8401,9491 8401,9509 Z M 10042,9480 L 8430,9480 8430,9475 10042,8543 10042,9480 Z"/>
      <path fill="rgb(201,201,201)" stroke="none" d="M 8430,9480 L 10042,9480 10042,8543 11253,7843 11253,8953 8374,10617 8374,9507 8430,9475 8430,9480 Z M 10014,9452 L 8469,9452 10014,8559 10014,9452 Z"/>
      <path fill="rgb(202,202,202)" stroke="none" d="M 10014,9452 L 10014,8559 11253,7843 11253,8953 8374,10617 8374,9507 8469,9452 10014,9452 Z M 9985,9423 L 8519,9423 9985,8576 9985,9423 Z"/>
      <path fill="rgb(203,203,203)" stroke="none" d="M 9985,9423 L 9985,8576 11253,7843 11253,8953 8374,10617 8374,9507 8519,9423 9985,9423 Z M 9956,9394 L 8570,9394 9956,8593 9956,9394 Z"/>
      <path fill="rgb(204,204,204)" stroke="none" d="M 9956,9394 L 9956,8593 11253,7843 11253,8953 8374,10617 8374,9507 8570,9394 9956,9394 Z M 9927,9365 L 8620,9365 9927,8609 9927,9365 Z"/>
      <path fill="rgb(205,205,205)" stroke="none" d="M 9927,9365 L 9927,8609 11253,7843 11253,8953 8374,10617 8374,9507 8620,9365 9927,9365 Z M 9898,9336 L 8670,9336 9898,8626 9898,9336 Z"/>
      <path fill="rgb(206,206,206)" stroke="none" d="M 9898,9336 L 9898,8626 11253,7843 11253,8953 8374,10617 8374,9507 8670,9336 9898,9336 Z M 9870,9308 L 8718,9308 9870,8642 9870,9308 Z"/>
      <path fill="rgb(207,207,207)" stroke="none" d="M 9870,9308 L 9870,8642 11253,7843 11253,8953 8374,10617 8374,9507 8718,9308 9870,9308 Z M 9841,9279 L 8768,9279 9841,8659 9841,9279 Z"/>
      <path fill="rgb(208,208,208)" stroke="none" d="M 9841,9279 L 9841,8659 11253,7843 11253,8953 8374,10617 8374,9507 8768,9279 9841,9279 Z M 9812,9250 L 8819,9250 9812,8676 9812,9250 Z"/>
      <path fill="rgb(209,209,209)" stroke="none" d="M 9812,9250 L 9812,8676 11253,7843 11253,8953 8374,10617 8374,9507 8819,9250 9812,9250 Z M 9783,9221 L 8869,9221 9783,8693 9783,9221 Z"/>
      <path fill="rgb(210,210,210)" stroke="none" d="M 9783,9221 L 9783,8693 11253,7843 11253,8953 8374,10617 8374,9507 8869,9221 9783,9221 Z M 9754,9192 L 8919,9192 9754,8709 9754,9192 Z"/>
      <path fill="rgb(211,211,211)" stroke="none" d="M 9754,9192 L 9754,8709 11253,7843 11253,8953 8374,10617 8374,9507 8919,9192 9754,9192 Z M 9725,9163 L 8969,9163 9725,8726 9725,9163 Z"/>
      <path fill="rgb(212,212,212)" stroke="none" d="M 9725,9163 L 9725,8726 11253,7843 11253,8953 8374,10617 8374,9507 8969,9163 9725,9163 Z M 9697,9135 L 9018,9135 9697,8742 9697,9135 Z"/>
      <path fill="rgb(213,213,213)" stroke="none" d="M 9697,9135 L 9697,8742 11253,7843 11253,8953 8374,10617 8374,9507 9018,9135 9697,9135 Z M 9668,9106 L 9068,9106 9668,8759 9668,9106 Z"/>
      <path fill="rgb(214,214,214)" stroke="none" d="M 9668,9106 L 9668,8759 11253,7843 11253,8953 8374,10617 8374,9507 9068,9106 9668,9106 Z M 9639,9077 L 9118,9077 9639,8776 9639,9077 Z"/>
      <path fill="rgb(215,215,215)" stroke="none" d="M 9639,9077 L 9639,8776 11253,7843 11253,8953 8374,10617 8374,9507 9118,9077 9639,9077 Z M 9610,9048 L 9168,9048 9610,8793 9610,9048 Z"/>
      <path fill="rgb(216,216,216)" stroke="none" d="M 9610,9048 L 9610,8793 11253,7843 11253,8953 8374,10617 8374,9507 9168,9048 9610,9048 Z M 9581,9019 L 9218,9019 9581,8809 9581,9019 Z"/>
      <path fill="rgb(217,217,217)" stroke="none" d="M 9581,9019 L 9581,8809 11253,7843 11253,8953 8374,10617 8374,9507 9218,9019 9581,9019 Z M 9553,8991 L 9267,8991 9553,8826 9553,8991 Z"/>
      <path fill="rgb(218,218,218)" stroke="none" d="M 9553,8991 L 9553,8826 11253,7843 11253,8953 8374,10617 8374,9507 9267,8991 9553,8991 Z M 9524,8962 L 9317,8962 9524,8842 9524,8962 Z"/>
      <path fill="rgb(219,219,219)" stroke="none" d="M 9524,8962 L 9524,8842 11253,7843 11253,8953 8374,10617 8374,9507 9317,8962 9524,8962 Z M 9495,8933 L 9367,8933 9495,8859 9495,8933 Z"/>
      <path fill="rgb(220,220,220)" stroke="none" d="M 9495,8933 L 9495,8859 11253,7843 11253,8953 8374,10617 8374,9507 9367,8933 9495,8933 Z M 9466,8904 L 9417,8904 9466,8876 9466,8904 Z"/>
      <path fill="rgb(221,221,221)" stroke="none" d="M 9466,8904 L 9466,8876 11253,7843 11253,8953 8374,10617 8374,9507 9417,8904 9466,8904 Z"/>
      <path fill="rgb(222,222,222)" stroke="none" d="M 8374,10617 L 8374,9507 11253,7843 11253,8953 8374,10617 Z"/>
      <path fill="rgb(223,223,223)" stroke="none" d="M 8374,10617 L 8374,9507 11253,7843 11253,8953 8374,10617 Z"/>
      <path fill="rgb(224,224,224)" stroke="none" d="M 8374,10617 L 8374,9507 11253,7843 11253,8953 8374,10617 Z"/>
      <path fill="rgb(225,225,225)" stroke="none" d="M 8374,10617 L 8374,9507 11253,7843 11253,8953 8374,10617 Z"/>
      <path fill="rgb(226,226,226)" stroke="none" d="M 8374,10617 L 8374,9507 11253,7843 11253,8953 8374,10617 Z"/>
      <path fill="rgb(227,227,227)" stroke="none" d="M 8374,10617 L 8374,9507 11253,7843 11253,8953 8374,10617 Z"/>
      <path fill="rgb(229,229,229)" stroke="none" d="M 8374,10617 L 8374,9507 11253,7843 11253,8953 8374,10617 Z"/>
      <path fill="none" stroke="rgb(255,255,255)" id="Drawing_3_0" stroke-width="40" stroke-linejoin="round" d="M 8374,10617 L 8374,9507 11253,7843 11253,8953 8374,10617 Z"/>
     </g>
     <g>
      <defs>
       <linearGradient id="Gradient_931" gradientUnits="userSpaceOnUse" x1="8134" y1="5901" x2="8134" y2="9507">
        <stop offset="0.1" stop-color="rgb(179,179,179)"/>
        <stop offset="1" stop-color="rgb(229,229,229)"/>
       </linearGradient>
      </defs>
      <path fill="url(#Gradient_931)" stroke="rgb(255,255,255)" id="Drawing_4_0" stroke-width="40" stroke-linejoin="round" d="M 8374,9507 L 5015,7565 7894,5901 11254,7843 8374,9507 Z"/>
     </g>
     <g>
      <path fill="none" stroke="rgb(127,127,127)" id="Drawing_5_0" stroke-width="40" stroke-linejoin="round" d="M 6167,8453 L 6167,9119"/>
     </g>
     <g>
      <path fill="none" stroke="rgb(255,255,255)" id="Drawing_6_0" stroke-width="40" stroke-linejoin="round" d="M 8279,9874 L 6743,8986"/>
     </g>
     <g>
      <path fill="none" stroke="rgb(255,255,255)" id="Drawing_7_0" stroke-width="40" stroke-linejoin="round" d="M 6734,8786 L 6734,9008"/>
     </g>
     <g>
      <path fill="none" stroke="rgb(0,0,0)" id="Drawing_8_0" stroke-width="40" stroke-linejoin="round" d="M 8270,9674 L 8270,9896"/>
     </g>
     <g>
      <path fill="none" stroke="rgb(0,0,0)" id="Drawing_9_0" stroke-width="40" stroke-linejoin="round" d="M 8270,9674 L 6734,8786"/>
     </g>
     <g>
      <path fill="rgb(57,181,74)" stroke="none" d="M 6359,8786 L 6359,8564 6551,8675 6551,8897 6359,8786 Z"/>
      <path fill="none" stroke="rgb(0,0,0)" id="Drawing_10_0" stroke-width="40" stroke-linejoin="round" d="M 6359,8786 L 6359,8564 6551,8675 6551,8897 6359,8786 Z"/>
     </g>
     <g>
      <path fill="none" stroke="rgb(127,127,127)" id="Drawing_11_0" stroke-width="40" stroke-linejoin="round" d="M 5975,8342 L 5975,9008"/>
     </g>
     <g>
      <path fill="none" stroke="rgb(127,127,127)" id="Drawing_12_0" stroke-width="40" stroke-linejoin="round" d="M 5783,8231 L 5783,8897"/>
     </g>
     <g>
      <path fill="none" stroke="rgb(127,127,127)" id="Drawing_13_0" stroke-width="40" stroke-linejoin="round" d="M 5591,8120 L 5591,8786"/>
     </g>
     <g>
      <path fill="none" stroke="rgb(127,127,127)" id="Drawing_14_0" stroke-width="40" stroke-linejoin="round" d="M 5399,8009 L 5399,8675"/>
     </g>
     <g>
      <path fill="none" stroke="rgb(127,127,127)" id="Drawing_15_0" stroke-width="40" stroke-linejoin="round" d="M 5207,7898 L 5207,8564"/>
     </g>
     <g>
      <defs>
       <linearGradient id="Gradient_932" gradientUnits="userSpaceOnUse" x1="4822" y1="8064" x2="5016" y2="8064">
        <stop offset="0.1" stop-color="rgb(179,179,179)"/>
        <stop offset="1" stop-color="rgb(229,229,229)"/>
       </linearGradient>
      </defs>
      <path fill="url(#Gradient_932)" stroke="rgb(255,255,255)" id="Drawing_16_0" stroke-width="40" stroke-linejoin="round" d="M 4823,8564 L 4823,7454 5015,7565 5015,8675 4823,8564 Z"/>
     </g>
     <g>
      <defs>
       <linearGradient id="Gradient_933" gradientUnits="userSpaceOnUse" x1="8373" y1="10117" x2="8567" y2="10117">
        <stop offset="0.1" stop-color="rgb(179,179,179)"/>
        <stop offset="1" stop-color="rgb(229,229,229)"/>
       </linearGradient>
      </defs>
      <path fill="url(#Gradient_933)" stroke="rgb(255,255,255)" id="Drawing_17_0" stroke-width="40" stroke-linejoin="round" d="M 8374,10617 L 8374,9507 8566,9618 8566,10728 8374,10617 Z"/>
     </g>
     <g>
      <path fill="none" stroke="rgb(0,0,0)" id="Drawing_18_0" stroke-width="40" stroke-linejoin="round" d="M 4823,8564 L 4823,7454 5015,7565 7894,5901 11254,7843 11254,8952 8566,10506 8566,10728 4823,8564 Z"/>
     </g>
    </g>
   </g>
   <g id="DrawingGroup_4">
    <g>
     <path fill="rgb(252,222,187)" stroke="none" d="M 9506,10141 L 9506,9407 10205,9811 10268,9701 10522,9848 10522,10729 9506,10141 Z"/>
     <path fill="none" stroke="rgb(251,201,142)" id="Drawing_19_0" stroke-width="40" stroke-linejoin="round" d="M 9506,10141 L 9506,9407 10205,9811 10268,9701 10522,9848 10522,10729 9506,10141 Z"/>
    </g>
    <g>
     <path fill="rgb(254,244,232)" stroke="none" d="M 9506,10141 L 9379,9480 10395,10067 10522,10728 9506,10141 Z"/>
     <path fill="none" stroke="rgb(251,201,142)" id="Drawing_20_0" stroke-width="40" stroke-linejoin="round" d="M 9506,10141 L 9379,9480 10395,10067 10522,10728 9506,10141 Z"/>
    </g>
    <g>
     <path fill="rgb(254,244,232)" stroke="none" d="M 9506,10141 L 9252,9590 10268,10177 10522,10728 9506,10141 Z"/>
     <path fill="none" stroke="rgb(251,201,142)" id="Drawing_21_0" stroke-width="40" stroke-linejoin="round" d="M 9506,10141 L 9252,9590 10268,10177 10522,10728 9506,10141 Z"/>
    </g>
    <g>
     <path fill="rgb(252,222,187)" stroke="none" d="M 9506,10141 L 9188,9737 10141,10251 10522,10728 9506,10141 Z"/>
     <path fill="none" stroke="rgb(251,201,142)" id="Drawing_22_0" stroke-width="40" stroke-linejoin="round" d="M 9506,10141 L 9188,9737 10141,10251 10522,10728 9506,10141 Z"/>
    </g>
    <g>
     <path fill="none" stroke="rgb(0,0,0)" id="Drawing_23_0" stroke-width="40" stroke-linejoin="round" d="M 9506,9554 L 9506,9407 10204,9811 10268,9701 10522,9848 10522,10729 9506,10141 9188,9737 9365,9830 9252,9591 9415,9687 9379,9480 9506,9554 Z"/>
    </g>
   </g>
  </g>
 </g>
</svg>