<?xml version="1.0" encoding="UTF-8"?>

<svg version="1.2" baseProfile="tiny" width="69.31mm" height="48.68mm" viewBox="6504 14801 6931 4868" preserveAspectRatio="xMidYMid" fill-rule="evenodd" stroke-width="28.222" stroke-linejoin="round" xmlns="http://www.w3.org/2000/svg" xmlns:xlink="http://www.w3.org/1999/xlink" xml:space="preserve">
 <g visibility="visible" id="Slide_1">
  <g id="DrawingGroup_1">
   <g id="DrawingGroup_2">
    <g>
     <path fill="rgb(221,221,221)" stroke="none" d="M 10268,19648 C 10531,19648 13435,18372 13435,17983 13435,17595 13027,17595 12763,17595 12763,17761 10172,18427 10268,19648 Z"/>
     <path fill="none" stroke="rgb(221,221,221)" id="Drawing_1_0" stroke-linejoin="round" d="M 10268,19648 C 10531,19648 13435,18372 13435,17983 13435,17595 13027,17595 12763,17595 12763,17761 10172,18427 10268,19648 Z"/>
    </g>
    <g id="DrawingGroup_3">
     <g>
      <defs>
       <linearGradient id="Gradient_934" gradientUnits="userSpaceOnUse" x1="6712" y1="18007" x2="10077" y2="18013">
        <stop offset="0.1" stop-color="rgb(51,51,51)"/>
        <stop offset="1" stop-color="rgb(153,153,153)"/>
       </linearGradient>
      </defs>
      <path fill="url(#Gradient_934)" stroke="rgb(178,178,178)" id="Drawing_2_0" stroke-width="40" stroke-linejoin="round" d="M 6716,17595 L 6716,16485 10075,18427 10075,19536 6716,17595 Z"/>
     </g>
     <g>
      <path fill="rgb(51,51,51)" stroke="none" d="M 12363,18215 L 10969,19020 10075,19020 10075,18427 12363,17105 12363,18215 Z"/>
      <path fill="rgb(52,52,52)" stroke="none" d="M 10969,19020 L 10075,19537 10075,19020 10969,19020 Z M 12363,17105 L 12954,16763 12954,17873 12363,18215 12363,17105 Z M 12349,18223 L 10994,19006 10075,19006 10075,18427 12349,17113 12349,18223 Z"/>
      <path fill="rgb(53,53,53)" stroke="none" d="M 10994,19006 L 10075,19537 10075,19006 10994,19006 Z M 12349,17113 L 12954,16763 12954,17873 12349,18223 12349,17113 Z M 12335,18231 L 11018,18992 10075,18992 10075,18427 12335,17121 12335,18231 Z"/>
      <path fill="rgb(54,54,54)" stroke="none" d="M 11018,18992 L 10075,19537 10075,18992 11018,18992 Z M 12335,17121 L 12954,16763 12954,17873 12335,18231 12335,17121 Z M 12321,18239 L 11042,18978 10075,18978 10075,18427 12321,17129 12321,18239 Z"/>
      <path fill="rgb(55,55,55)" stroke="none" d="M 11042,18978 L 10075,19537 10075,18978 11042,18978 Z M 12321,17129 L 12954,16763 12954,17873 12321,18239 12321,17129 Z M 12307,18247 L 11066,18964 10075,18964 10075,18427 12307,17137 12307,18247 Z"/>
      <path fill="rgb(56,56,56)" stroke="none" d="M 11066,18964 L 10075,19537 10075,18964 11066,18964 Z M 12307,17137 L 12954,16763 12954,17873 12307,18247 12307,17137 Z M 12293,18255 L 11091,18950 10075,18950 10075,18427 12293,17145 12293,18255 Z"/>
      <path fill="rgb(57,57,57)" stroke="none" d="M 11091,18950 L 10075,19537 10075,18950 11091,18950 Z M 12293,17145 L 12954,16763 12954,17873 12293,18255 12293,17145 Z M 12279,18263 L 11115,18936 10075,18936 10075,18427 12279,17153 12279,18263 Z"/>
      <path fill="rgb(58,58,58)" stroke="none" d="M 11115,18936 L 10075,19537 10075,18936 11115,18936 Z M 12279,17153 L 12954,16763 12954,17873 12279,18263 12279,17153 Z M 12264,18272 L 11141,18921 10075,18921 10075,18427 12264,17162 12264,18272 Z"/>
      <path fill="rgb(59,59,59)" stroke="none" d="M 11141,18921 L 10075,19537 10075,18921 11141,18921 Z M 12264,17162 L 12954,16763 12954,17873 12264,18272 12264,17162 Z M 12250,18280 L 11165,18907 10075,18907 10075,18427 12250,17170 12250,18280 Z"/>
      <path fill="rgb(60,60,60)" stroke="none" d="M 11165,18907 L 10075,19537 10075,18907 11165,18907 Z M 12250,17170 L 12954,16763 12954,17873 12250,18280 12250,17170 Z M 12236,18288 L 11189,18893 10075,18893 10075,18427 12236,17178 12236,18288 Z"/>
      <path fill="rgb(61,61,61)" stroke="none" d="M 11189,18893 L 10075,19537 10075,18893 11189,18893 Z M 12236,17178 L 12954,16763 12954,17873 12236,18288 12236,17178 Z M 12222,18296 L 11213,18879 10075,18879 10075,18427 12222,17186 12222,18296 Z"/>
      <path fill="rgb(62,62,62)" stroke="none" d="M 11213,18879 L 10075,19537 10075,18879 11213,18879 Z M 12222,17186 L 12954,16763 12954,17873 12222,18296 12222,17186 Z M 12208,18304 L 11238,18865 10075,18865 10075,18427 12208,17194 12208,18304 Z"/>
      <path fill="rgb(63,63,63)" stroke="none" d="M 11238,18865 L 10075,19537 10075,18865 11238,18865 Z M 12208,17194 L 12954,16763 12954,17873 12208,18304 12208,17194 Z M 12194,18312 L 11262,18851 10075,18851 10075,18427 12194,17202 12194,18312 Z"/>
      <path fill="rgb(64,64,64)" stroke="none" d="M 11262,18851 L 10075,19537 10075,18851 11262,18851 Z M 12194,17202 L 12954,16763 12954,17873 12194,18312 12194,17202 Z M 12180,18320 L 11286,18837 10075,18837 10075,18427 12180,17210 12180,18320 Z"/>
      <path fill="rgb(65,65,65)" stroke="none" d="M 11286,18837 L 10075,19537 10075,18837 11286,18837 Z M 12180,17210 L 12954,16763 12954,17873 12180,18320 12180,17210 Z M 12166,18328 L 11310,18823 10075,18823 10075,18427 12166,17218 12166,18328 Z"/>
      <path fill="rgb(66,66,66)" stroke="none" d="M 11310,18823 L 10075,19537 10075,18823 11310,18823 Z M 12166,17218 L 12954,16763 12954,17873 12166,18328 12166,17218 Z M 12151,18337 L 11336,18808 10075,18808 10075,18427 12151,17227 12151,18337 Z"/>
      <path fill="rgb(67,67,67)" stroke="none" d="M 11336,18808 L 10075,19537 10075,18808 11336,18808 Z M 12151,17227 L 12954,16763 12954,17873 12151,18337 12151,17227 Z M 12137,18345 L 11361,18794 10075,18794 10075,18427 12137,17235 12137,18345 Z"/>
      <path fill="rgb(68,68,68)" stroke="none" d="M 11361,18794 L 10075,19537 10075,18794 11361,18794 Z M 12137,17235 L 12954,16763 12954,17873 12137,18345 12137,17235 Z M 12123,18353 L 11385,18780 10075,18780 10075,18427 12123,17243 12123,18353 Z"/>
      <path fill="rgb(69,69,69)" stroke="none" d="M 11385,18780 L 10075,19537 10075,18780 11385,18780 Z M 12123,17243 L 12954,16763 12954,17873 12123,18353 12123,17243 Z M 12109,18361 L 11409,18766 10075,18766 10075,18427 12109,17251 12109,18361 Z"/>
      <path fill="rgb(70,70,70)" stroke="none" d="M 11409,18766 L 10075,19537 10075,18766 11409,18766 Z M 12109,17251 L 12954,16763 12954,17873 12109,18361 12109,17251 Z M 12095,18369 L 11433,18752 10075,18752 10075,18427 12095,17259 12095,18369 Z"/>
      <path fill="rgb(71,71,71)" stroke="none" d="M 11433,18752 L 10075,19537 10075,18752 11433,18752 Z M 12095,17259 L 12954,16763 12954,17873 12095,18369 12095,17259 Z M 12081,18378 L 11457,18738 10075,18738 10075,18427 12081,17268 12081,18378 Z"/>
      <path fill="rgb(72,72,72)" stroke="none" d="M 11457,18738 L 10075,19537 10075,18738 11457,18738 Z M 12081,17268 L 12954,16763 12954,17873 12081,18378 12081,17268 Z M 12067,18386 L 11482,18724 10075,18724 10075,18427 12067,17276 12067,18386 Z"/>
      <path fill="rgb(73,73,73)" stroke="none" d="M 11482,18724 L 10075,19537 10075,18724 11482,18724 Z M 12067,17276 L 12954,16763 12954,17873 12067,18386 12067,17276 Z M 12053,18394 L 11506,18710 10075,18710 10075,18427 12053,17284 12053,18394 Z"/>
      <path fill="rgb(74,74,74)" stroke="none" d="M 11506,18710 L 10075,19537 10075,18710 11506,18710 Z M 12053,17284 L 12954,16763 12954,17873 12053,18394 12053,17284 Z M 12038,18402 L 11532,18695 10075,18695 10075,18427 12038,17292 12038,18402 Z"/>
      <path fill="rgb(75,75,75)" stroke="none" d="M 11532,18695 L 10075,19537 10075,18695 11532,18695 Z M 12038,17292 L 12954,16763 12954,17873 12038,18402 12038,17292 Z M 12024,18411 L 11556,18681 10075,18681 10075,18427 12024,17301 12024,18411 Z"/>
      <path fill="rgb(76,76,76)" stroke="none" d="M 11556,18681 L 10075,19537 10075,18681 11556,18681 Z M 12024,17301 L 12954,16763 12954,17873 12024,18411 12024,17301 Z M 12010,18419 L 11580,18667 10075,18667 10075,18427 12010,17309 12010,18419 Z"/>
      <path fill="rgb(77,77,77)" stroke="none" d="M 11580,18667 L 10075,19537 10075,18667 11580,18667 Z M 12010,17309 L 12954,16763 12954,17873 12010,18419 12010,17309 Z M 11996,18427 L 11604,18653 10075,18653 10075,18427 11996,17317 11996,18427 Z"/>
      <path fill="rgb(78,78,78)" stroke="none" d="M 11604,18653 L 10075,19537 10075,18653 11604,18653 Z M 11996,17317 L 12954,16763 12954,17873 11996,18427 11996,17317 Z M 11982,18435 L 11629,18639 10075,18639 10075,18427 11982,17325 11982,18435 Z"/>
      <path fill="rgb(79,79,79)" stroke="none" d="M 11629,18639 L 10075,19537 10075,18639 11629,18639 Z M 11982,17325 L 12954,16763 12954,17873 11982,18435 11982,17325 Z M 11968,18443 L 11653,18625 10075,18625 10075,18427 11968,17333 11968,18443 Z"/>
      <path fill="rgb(80,80,80)" stroke="none" d="M 11653,18625 L 10075,19537 10075,18625 11653,18625 Z M 11968,17333 L 12954,16763 12954,17873 11968,18443 11968,17333 Z M 11954,18451 L 11677,18611 10075,18611 10075,18427 11954,17341 11954,18451 Z"/>
      <path fill="rgb(81,81,81)" stroke="none" d="M 11677,18611 L 10075,19537 10075,18611 11677,18611 Z M 11954,17341 L 12954,16763 12954,17873 11954,18451 11954,17341 Z M 11940,18459 L 11701,18597 10075,18597 10075,18427 11940,17349 11940,18459 Z"/>
      <path fill="rgb(82,82,82)" stroke="none" d="M 11701,18597 L 10075,19537 10075,18597 11701,18597 Z M 11940,17349 L 12954,16763 12954,17873 11940,18459 11940,17349 Z M 11925,18468 L 11727,18582 10075,18582 10075,18427 11925,17358 11925,18468 Z"/>
      <path fill="rgb(83,83,83)" stroke="none" d="M 11727,18582 L 10075,19537 10075,18582 11727,18582 Z M 11925,17358 L 12954,16763 12954,17873 11925,18468 11925,17358 Z M 11911,18476 L 11752,18568 10075,18568 10075,18427 11911,17366 11911,18476 Z"/>
      <path fill="rgb(84,84,84)" stroke="none" d="M 11752,18568 L 10075,19537 10075,18568 11752,18568 Z M 11911,17366 L 12954,16763 12954,17873 11911,18476 11911,17366 Z M 11897,18484 L 11776,18554 10075,18554 10075,18427 11897,17374 11897,18484 Z"/>
      <path fill="rgb(85,85,85)" stroke="none" d="M 11776,18554 L 10075,19537 10075,18554 11776,18554 Z M 11897,17374 L 12954,16763 12954,17873 11897,18484 11897,17374 Z M 11883,18492 L 11800,18540 10075,18540 10075,18427 11883,17382 11883,18492 Z"/>
      <path fill="rgb(86,86,86)" stroke="none" d="M 11800,18540 L 10075,19537 10075,18540 11800,18540 Z M 11883,17382 L 12954,16763 12954,17873 11883,18492 11883,17382 Z M 11869,18500 L 11824,18526 10075,18526 10075,18427 11869,17390 11869,18500 Z"/>
      <path fill="rgb(87,87,87)" stroke="none" d="M 11824,18526 L 10075,19537 10075,18526 11824,18526 Z M 11869,17390 L 12954,16763 12954,17873 11869,18500 11869,17390 Z M 11855,18508 L 11848,18512 10075,18512 10075,18427 11855,17398 11855,18508 Z"/>
      <path fill="rgb(88,88,88)" stroke="none" d="M 11848,18512 L 10075,19537 10075,18512 11848,18512 Z M 11855,17398 L 12954,16763 12954,17873 11855,18508 11855,17398 Z M 11841,18498 L 10075,18498 10075,18427 11841,17406 11841,18498 Z"/>
      <path fill="rgb(89,89,89)" stroke="none" d="M 11841,18498 L 11841,17406 12954,16763 12954,17873 10075,19537 10075,18498 11841,18498 Z M 11827,18484 L 10075,18484 10075,18427 11827,17414 11827,18484 Z"/>
      <path fill="rgb(90,90,90)" stroke="none" d="M 11827,18484 L 11827,17414 12954,16763 12954,17873 10075,19537 10075,18484 11827,18484 Z M 11812,18469 L 10075,18469 10075,18427 11812,17423 11812,18469 Z"/>
      <path fill="rgb(91,91,91)" stroke="none" d="M 11812,18469 L 11812,17423 12954,16763 12954,17873 10075,19537 10075,18469 11812,18469 Z M 11798,18455 L 10076,18455 10076,18426 11798,17431 11798,18455 Z"/>
      <path fill="rgb(92,92,92)" stroke="none" d="M 10076,18455 L 11798,18455 11798,17431 12954,16763 12954,17873 10075,19537 10075,18427 10076,18426 10076,18455 Z M 11784,18441 L 10090,18441 10090,18418 11784,17439 11784,18441 Z"/>
      <path fill="rgb(93,93,93)" stroke="none" d="M 10090,18441 L 11784,18441 11784,17439 12954,16763 12954,17873 10075,19537 10075,18427 10090,18418 10090,18441 Z M 11770,18427 L 10104,18427 10104,18410 11770,17447 11770,18427 Z"/>
      <path fill="rgb(94,94,94)" stroke="none" d="M 10104,18427 L 11770,18427 11770,17447 12954,16763 12954,17873 10075,19537 10075,18427 10104,18410 10104,18427 Z M 11756,18413 L 10118,18413 10118,18402 11756,17455 11756,18413 Z"/>
      <path fill="rgb(95,95,95)" stroke="none" d="M 10118,18413 L 11756,18413 11756,17455 12954,16763 12954,17873 10075,19537 10075,18427 10118,18402 10118,18413 Z M 11742,18399 L 10132,18399 10132,18394 11742,17464 11742,18399 Z"/>
      <path fill="rgb(96,96,96)" stroke="none" d="M 10132,18399 L 11742,18399 11742,17464 12954,16763 12954,17873 10075,19537 10075,18427 10132,18394 10132,18399 Z M 11728,18385 L 10148,18385 11728,17472 11728,18385 Z"/>
      <path fill="rgb(97,97,97)" stroke="none" d="M 11728,18385 L 11728,17472 12954,16763 12954,17873 10075,19537 10075,18427 10148,18385 11728,18385 Z M 11714,18371 L 10172,18371 11714,17480 11714,18371 Z"/>
      <path fill="rgb(98,98,98)" stroke="none" d="M 11714,18371 L 11714,17480 12954,16763 12954,17873 10075,19537 10075,18427 10172,18371 11714,18371 Z M 11699,18356 L 10198,18356 11699,17488 11699,18356 Z"/>
      <path fill="rgb(99,99,99)" stroke="none" d="M 11699,18356 L 11699,17488 12954,16763 12954,17873 10075,19537 10075,18427 10198,18356 11699,18356 Z M 11685,18342 L 10222,18342 11685,17496 11685,18342 Z"/>
      <path fill="rgb(100,100,100)" stroke="none" d="M 11685,18342 L 11685,17496 12954,16763 12954,17873 10075,19537 10075,18427 10222,18342 11685,18342 Z M 11671,18328 L 10246,18328 11671,17505 11671,18328 Z"/>
      <path fill="rgb(101,101,101)" stroke="none" d="M 11671,18328 L 11671,17505 12954,16763 12954,17873 10075,19537 10075,18427 10246,18328 11671,18328 Z M 11657,18314 L 10271,18314 11657,17513 11657,18314 Z"/>
      <path fill="rgb(102,102,102)" stroke="none" d="M 11657,18314 L 11657,17513 12954,16763 12954,17873 10075,19537 10075,18427 10271,18314 11657,18314 Z M 11643,18300 L 10295,18300 11643,17521 11643,18300 Z"/>
      <path fill="rgb(103,103,103)" stroke="none" d="M 11643,18300 L 11643,17521 12954,16763 12954,17873 10075,19537 10075,18427 10295,18300 11643,18300 Z M 11629,18286 L 10319,18286 11629,17529 11629,18286 Z"/>
      <path fill="rgb(104,104,104)" stroke="none" d="M 11629,18286 L 11629,17529 12954,16763 12954,17873 10075,19537 10075,18427 10319,18286 11629,18286 Z M 11615,18272 L 10343,18272 11615,17537 11615,18272 Z"/>
      <path fill="rgb(105,105,105)" stroke="none" d="M 11615,18272 L 11615,17537 12954,16763 12954,17873 10075,19537 10075,18427 10343,18272 11615,18272 Z M 11600,18257 L 10369,18257 11600,17546 11600,18257 Z"/>
      <path fill="rgb(106,106,106)" stroke="none" d="M 11600,18257 L 11600,17546 12954,16763 12954,17873 10075,19537 10075,18427 10369,18257 11600,18257 Z M 11586,18243 L 10393,18243 11586,17554 11586,18243 Z"/>
      <path fill="rgb(107,107,107)" stroke="none" d="M 11586,18243 L 11586,17554 12954,16763 12954,17873 10075,19537 10075,18427 10393,18243 11586,18243 Z M 11572,18229 L 10418,18229 11572,17562 11572,18229 Z"/>
      <path fill="rgb(108,108,108)" stroke="none" d="M 11572,18229 L 11572,17562 12954,16763 12954,17873 10075,19537 10075,18427 10418,18229 11572,18229 Z M 11558,18215 L 10442,18215 11558,17570 11558,18215 Z"/>
      <path fill="rgb(109,109,109)" stroke="none" d="M 11558,18215 L 11558,17570 12954,16763 12954,17873 10075,19537 10075,18427 10442,18215 11558,18215 Z M 11544,18201 L 10466,18201 11544,17578 11544,18201 Z"/>
      <path fill="rgb(110,110,110)" stroke="none" d="M 11544,18201 L 11544,17578 12954,16763 12954,17873 10075,19537 10075,18427 10466,18201 11544,18201 Z M 11530,18187 L 10490,18187 11530,17586 11530,18187 Z"/>
      <path fill="rgb(111,111,111)" stroke="none" d="M 11530,18187 L 11530,17586 12954,16763 12954,17873 10075,19537 10075,18427 10490,18187 11530,18187 Z M 11516,18173 L 10514,18173 11516,17594 11516,18173 Z"/>
      <path fill="rgb(112,112,112)" stroke="none" d="M 11516,18173 L 11516,17594 12954,16763 12954,17873 10075,19537 10075,18427 10514,18173 11516,18173 Z M 11502,18159 L 10539,18159 11502,17602 11502,18159 Z"/>
      <path fill="rgb(113,113,113)" stroke="none" d="M 11502,18159 L 11502,17602 12954,16763 12954,17873 10075,19537 10075,18427 10539,18159 11502,18159 Z M 11487,18144 L 10565,18144 11487,17611 11487,18144 Z"/>
      <path fill="rgb(114,114,114)" stroke="none" d="M 11487,18144 L 11487,17611 12954,16763 12954,17873 10075,19537 10075,18427 10565,18144 11487,18144 Z M 11473,18130 L 10589,18130 11473,17619 11473,18130 Z"/>
      <path fill="rgb(115,115,115)" stroke="none" d="M 11473,18130 L 11473,17619 12954,16763 12954,17873 10075,19537 10075,18427 10589,18130 11473,18130 Z M 11459,18116 L 10613,18116 11459,17627 11459,18116 Z"/>
      <path fill="rgb(116,116,116)" stroke="none" d="M 11459,18116 L 11459,17627 12954,16763 12954,17873 10075,19537 10075,18427 10613,18116 11459,18116 Z M 11445,18102 L 10637,18102 11445,17635 11445,18102 Z"/>
      <path fill="rgb(117,117,117)" stroke="none" d="M 11445,18102 L 11445,17635 12954,16763 12954,17873 10075,19537 10075,18427 10637,18102 11445,18102 Z M 11431,18088 L 10662,18088 11431,17643 11431,18088 Z"/>
      <path fill="rgb(118,118,118)" stroke="none" d="M 11431,18088 L 11431,17643 12954,16763 12954,17873 10075,19537 10075,18427 10662,18088 11431,18088 Z M 11417,18074 L 10686,18074 11417,17651 11417,18074 Z"/>
      <path fill="rgb(119,119,119)" stroke="none" d="M 11417,18074 L 11417,17651 12954,16763 12954,17873 10075,19537 10075,18427 10686,18074 11417,18074 Z M 11403,18060 L 10710,18060 11403,17659 11403,18060 Z"/>
      <path fill="rgb(120,120,120)" stroke="none" d="M 11403,18060 L 11403,17659 12954,16763 12954,17873 10075,19537 10075,18427 10710,18060 11403,18060 Z M 11389,18046 L 10734,18046 11389,17668 11389,18046 Z"/>
      <path fill="rgb(121,121,121)" stroke="none" d="M 11389,18046 L 11389,17668 12954,16763 12954,17873 10075,19537 10075,18427 10734,18046 11389,18046 Z M 11374,18031 L 10760,18031 11374,17676 11374,18031 Z"/>
      <path fill="rgb(122,122,122)" stroke="none" d="M 11374,18031 L 11374,17676 12954,16763 12954,17873 10075,19537 10075,18427 10760,18031 11374,18031 Z M 11360,18017 L 10784,18017 11360,17684 11360,18017 Z"/>
      <path fill="rgb(123,123,123)" stroke="none" d="M 11360,18017 L 11360,17684 12954,16763 12954,17873 10075,19537 10075,18427 10784,18017 11360,18017 Z M 11346,18003 L 10809,18003 11346,17692 11346,18003 Z"/>
      <path fill="rgb(124,124,124)" stroke="none" d="M 11346,18003 L 11346,17692 12954,16763 12954,17873 10075,19537 10075,18427 10809,18003 11346,18003 Z M 11332,17989 L 10833,17989 11332,17700 11332,17989 Z"/>
      <path fill="rgb(125,125,125)" stroke="none" d="M 11332,17989 L 11332,17700 12954,16763 12954,17873 10075,19537 10075,18427 10833,17989 11332,17989 Z M 11318,17975 L 10857,17975 11318,17709 11318,17975 Z"/>
      <path fill="rgb(126,126,126)" stroke="none" d="M 11318,17975 L 11318,17709 12954,16763 12954,17873 10075,19537 10075,18427 10857,17975 11318,17975 Z M 11304,17961 L 10881,17961 11304,17717 11304,17961 Z"/>
      <path fill="rgb(127,127,127)" stroke="none" d="M 11304,17961 L 11304,17717 12954,16763 12954,17873 10075,19537 10075,18427 10881,17961 11304,17961 Z M 11290,17947 L 10905,17947 11290,17725 11290,17947 Z"/>
      <path fill="rgb(128,128,128)" stroke="none" d="M 11290,17947 L 11290,17725 12954,16763 12954,17873 10075,19537 10075,18427 10905,17947 11290,17947 Z M 11276,17933 L 10930,17933 11276,17733 11276,17933 Z"/>
      <path fill="rgb(129,129,129)" stroke="none" d="M 11276,17933 L 11276,17733 12954,16763 12954,17873 10075,19537 10075,18427 10930,17933 11276,17933 Z M 11261,17918 L 10956,17918 11261,17742 11261,17918 Z"/>
      <path fill="rgb(130,130,130)" stroke="none" d="M 11261,17918 L 11261,17742 12954,16763 12954,17873 10075,19537 10075,18427 10956,17918 11261,17918 Z M 11247,17904 L 10980,17904 11247,17750 11247,17904 Z"/>
      <path fill="rgb(131,131,131)" stroke="none" d="M 11247,17904 L 11247,17750 12954,16763 12954,17873 10075,19537 10075,18427 10980,17904 11247,17904 Z M 11233,17890 L 11004,17890 11233,17758 11233,17890 Z"/>
      <path fill="rgb(132,132,132)" stroke="none" d="M 11233,17890 L 11233,17758 12954,16763 12954,17873 10075,19537 10075,18427 11004,17890 11233,17890 Z M 11219,17876 L 11028,17876 11219,17766 11219,17876 Z"/>
      <path fill="rgb(133,133,133)" stroke="none" d="M 11219,17876 L 11219,17766 12954,16763 12954,17873 10075,19537 10075,18427 11028,17876 11219,17876 Z M 11205,17862 L 11053,17862 11205,17774 11205,17862 Z"/>
      <path fill="rgb(134,134,134)" stroke="none" d="M 11205,17862 L 11205,17774 12954,16763 12954,17873 10075,19537 10075,18427 11053,17862 11205,17862 Z M 11191,17848 L 11077,17848 11191,17782 11191,17848 Z"/>
      <path fill="rgb(135,135,135)" stroke="none" d="M 11191,17848 L 11191,17782 12954,16763 12954,17873 10075,19537 10075,18427 11077,17848 11191,17848 Z M 11177,17834 L 11101,17834 11177,17790 11177,17834 Z"/>
      <path fill="rgb(136,136,136)" stroke="none" d="M 11177,17834 L 11177,17790 12954,16763 12954,17873 10075,19537 10075,18427 11101,17834 11177,17834 Z M 11163,17820 L 11125,17820 11163,17798 11163,17820 Z"/>
      <path fill="rgb(137,137,137)" stroke="none" d="M 11163,17820 L 11163,17798 12954,16763 12954,17873 10075,19537 10075,18427 11125,17820 11163,17820 Z"/>
      <path fill="rgb(138,138,138)" stroke="none" d="M 10075,19537 L 10075,18427 12954,16763 12954,17873 10075,19537 Z"/>
      <path fill="rgb(139,139,139)" stroke="none" d="M 10075,19537 L 10075,18427 12954,16763 12954,17873 10075,19537 Z"/>
      <path fill="rgb(140,140,140)" stroke="none" d="M 10075,19537 L 10075,18427 12954,16763 12954,17873 10075,19537 Z"/>
      <path fill="rgb(141,141,141)" stroke="none" d="M 10075,19537 L 10075,18427 12954,16763 12954,17873 10075,19537 Z"/>
      <path fill="rgb(142,142,142)" stroke="none" d="M 10075,19537 L 10075,18427 12954,16763 12954,17873 10075,19537 Z"/>
      <path fill="rgb(143,143,143)" stroke="none" d="M 10075,19537 L 10075,18427 12954,16763 12954,17873 10075,19537 Z"/>
      <path fill="rgb(144,144,144)" stroke="none" d="M 10075,19537 L 10075,18427 12954,16763 12954,17873 10075,19537 Z"/>
      <path fill="rgb(145,145,145)" stroke="none" d="M 10075,19537 L 10075,18427 12954,16763 12954,17873 10075,19537 Z"/>
      <path fill="rgb(146,146,146)" stroke="none" d="M 10075,19537 L 10075,18427 12954,16763 12954,17873 10075,19537 Z"/>
      <path fill="rgb(147,147,147)" stroke="none" d="M 10075,19537 L 10075,18427 12954,16763 12954,17873 10075,19537 Z"/>
      <path fill="rgb(148,148,148)" stroke="none" d="M 10075,19537 L 10075,18427 12954,16763 12954,17873 10075,19537 Z"/>
      <path fill="rgb(149,149,149)" stroke="none" d="M 10075,19537 L 10075,18427 12954,16763 12954,17873 10075,19537 Z"/>
      <path fill="rgb(150,150,150)" stroke="none" d="M 10075,19537 L 10075,18427 12954,16763 12954,17873 10075,19537 Z"/>
      <path fill="rgb(151,151,151)" stroke="none" d="M 10075,19537 L 10075,18427 12954,16763 12954,17873 10075,19537 Z"/>
      <path fill="rgb(153,153,153)" stroke="none" d="M 10075,19537 L 10075,18427 12954,16763 12954,17873 10075,19537 Z"/>
      <path fill="none" stroke="rgb(178,178,178)" id="Drawing_3_0" stroke-width="40" stroke-linejoin="round" d="M 10075,19537 L 10075,18427 12954,16763 12954,17873 10075,19537 Z"/>
     </g>
     <g>
      <defs>
       <linearGradient id="Gradient_935" gradientUnits="userSpaceOnUse" x1="9835" y1="14821" x2="9835" y2="18427">
        <stop offset="0.1" stop-color="rgb(51,51,51)"/>
        <stop offset="1" stop-color="rgb(153,153,153)"/>
       </linearGradient>
      </defs>
      <path fill="url(#Gradient_935)" stroke="rgb(178,178,178)" id="Drawing_4_0" stroke-width="40" stroke-linejoin="round" d="M 10075,18427 L 6716,16485 9595,14821 12955,16763 10075,18427 Z"/>
     </g>
     <g>
      <path fill="none" stroke="rgb(153,153,153)" id="Drawing_5_0" stroke-width="40" stroke-linejoin="round" d="M 7868,17373 L 7868,18039"/>
     </g>
     <g>
      <path fill="none" stroke="rgb(178,178,178)" id="Drawing_6_0" stroke-width="40" stroke-linejoin="round" d="M 9980,18794 L 8444,17906"/>
     </g>
     <g>
      <path fill="none" stroke="rgb(178,178,178)" id="Drawing_7_0" stroke-width="40" stroke-linejoin="round" d="M 8435,17706 L 8435,17928"/>
     </g>
     <g>
      <path fill="none" stroke="rgb(102,102,102)" id="Drawing_8_0" stroke-width="40" stroke-linejoin="round" d="M 9971,18594 L 9971,18816"/>
     </g>
     <g>
      <path fill="none" stroke="rgb(102,102,102)" id="Drawing_9_0" stroke-width="40" stroke-linejoin="round" d="M 9971,18594 L 8435,17706"/>
     </g>
     <g>
      <path fill="rgb(57,181,74)" stroke="none" d="M 8060,17706 L 8060,17484 8252,17595 8252,17817 8060,17706 Z"/>
      <path fill="none" stroke="rgb(102,102,102)" id="Drawing_10_0" stroke-width="40" stroke-linejoin="round" d="M 8060,17706 L 8060,17484 8252,17595 8252,17817 8060,17706 Z"/>
     </g>
     <g>
      <path fill="none" stroke="rgb(153,153,153)" id="Drawing_11_0" stroke-width="40" stroke-linejoin="round" d="M 7676,17262 L 7676,17928"/>
     </g>
     <g>
      <path fill="none" stroke="rgb(153,153,153)" id="Drawing_12_0" stroke-width="40" stroke-linejoin="round" d="M 7484,17151 L 7484,17817"/>
     </g>
     <g>
      <path fill="none" stroke="rgb(153,153,153)" id="Drawing_13_0" stroke-width="40" stroke-linejoin="round" d="M 7292,17040 L 7292,17706"/>
     </g>
     <g>
      <path fill="none" stroke="rgb(153,153,153)" id="Drawing_14_0" stroke-width="40" stroke-linejoin="round" d="M 7100,16929 L 7100,17595"/>
     </g>
     <g>
      <path fill="none" stroke="rgb(153,153,153)" id="Drawing_15_0" stroke-width="40" stroke-linejoin="round" d="M 6908,16818 L 6908,17484"/>
     </g>
     <g>
      <defs>
       <linearGradient id="Gradient_936" gradientUnits="userSpaceOnUse" x1="6523" y1="16984" x2="6717" y2="16984">
        <stop offset="0.1" stop-color="rgb(51,51,51)"/>
        <stop offset="1" stop-color="rgb(153,153,153)"/>
       </linearGradient>
      </defs>
      <path fill="url(#Gradient_936)" stroke="rgb(178,178,178)" id="Drawing_16_0" stroke-width="40" stroke-linejoin="round" d="M 6524,17484 L 6524,16374 6716,16485 6716,17595 6524,17484 Z"/>
     </g>
     <g>
      <defs>
       <linearGradient id="Gradient_937" gradientUnits="userSpaceOnUse" x1="10074" y1="19037" x2="10268" y2="19037">
        <stop offset="0.1" stop-color="rgb(51,51,51)"/>
        <stop offset="1" stop-color="rgb(153,153,153)"/>
       </linearGradient>
      </defs>
      <path fill="url(#Gradient_937)" stroke="rgb(178,178,178)" id="Drawing_17_0" stroke-width="40" stroke-linejoin="round" d="M 10075,19537 L 10075,18427 10267,18538 10267,19648 10075,19537 Z"/>
     </g>
     <g>
      <path fill="none" stroke="rgb(0,0,0)" id="Drawing_18_0" stroke-width="40" stroke-linejoin="round" d="M 6524,17484 L 6524,16374 6716,16485 9595,14821 12955,16763 12955,17872 10267,19426 10267,19648 6524,17484 Z"/>
     </g>
    </g>
   </g>
   <g id="DrawingGroup_4">
    <g>
     <path fill="rgb(252,222,187)" stroke="none" d="M 11207,19061 L 11207,18327 11906,18731 11969,18621 12223,18768 12223,19649 11207,19061 Z"/>
     <path fill="none" stroke="rgb(251,201,142)" id="Drawing_19_0" stroke-width="40" stroke-linejoin="round" d="M 11207,19061 L 11207,18327 11906,18731 11969,18621 12223,18768 12223,19649 11207,19061 Z"/>
    </g>
    <g>
     <path fill="rgb(254,244,232)" stroke="none" d="M 11207,19061 L 11080,18400 12096,18987 12223,19648 11207,19061 Z"/>
     <path fill="none" stroke="rgb(251,201,142)" id="Drawing_20_0" stroke-width="40" stroke-linejoin="round" d="M 11207,19061 L 11080,18400 12096,18987 12223,19648 11207,19061 Z"/>
    </g>
    <g>
     <path fill="rgb(254,244,232)" stroke="none" d="M 11207,19061 L 10953,18510 11969,19097 12223,19648 11207,19061 Z"/>
     <path fill="none" stroke="rgb(251,201,142)" id="Drawing_21_0" stroke-width="40" stroke-linejoin="round" d="M 11207,19061 L 10953,18510 11969,19097 12223,19648 11207,19061 Z"/>
    </g>
    <g>
     <path fill="rgb(252,222,187)" stroke="none" d="M 11207,19061 L 10889,18657 11842,19171 12223,19648 11207,19061 Z"/>
     <path fill="none" stroke="rgb(251,201,142)" id="Drawing_22_0" stroke-width="40" stroke-linejoin="round" d="M 11207,19061 L 10889,18657 11842,19171 12223,19648 11207,19061 Z"/>
    </g>
    <g>
     <path fill="none" stroke="rgb(0,0,0)" id="Drawing_23_0" stroke-width="40" stroke-linejoin="round" d="M 11207,18474 L 11207,18327 11905,18731 11969,18621 12223,18768 12223,19649 11207,19061 10889,18657 11066,18750 10953,18511 11116,18607 11080,18400 11207,18474 Z"/>
    </g>
   </g>
  </g>
 </g>
</svg>