<?xml version="1.0" encoding="UTF-8"?>

<svg version="1.2" baseProfile="tiny" width="69.31mm" height="48.67mm" viewBox="8734 14991 6931 4867" preserveAspectRatio="xMidYMid" fill-rule="evenodd" stroke-width="28.222" stroke-linejoin="round" xmlns="http://www.w3.org/2000/svg" xmlns:xlink="http://www.w3.org/1999/xlink" xml:space="preserve">
 <g visibility="visible" id="Slide_1">
  <g id="DrawingGroup_1">
   <g id="DrawingGroup_2">
    <g>
     <path fill="rgb(221,221,221)" stroke="none" d="M 12498,19838 C 12761,19838 15665,18562 15665,18173 15665,17785 15257,17785 14993,17785 14993,17951 12402,18617 12498,19838 Z"/>
     <path fill="none" stroke="rgb(221,221,221)" id="Drawing_1_0" stroke-linejoin="round" d="M 12498,19838 C 12761,19838 15665,18562 15665,18173 15665,17785 15257,17785 14993,17785 14993,17951 12402,18617 12498,19838 Z"/>
    </g>
    <g id="DrawingGroup_3">
     <g>
      <defs>
       <linearGradient id="Gradient_942" gradientUnits="userSpaceOnUse" x1="8942" y1="18197" x2="12307" y2="18203">
        <stop offset="0.1" stop-color="rgb(51,51,51)"/>
        <stop offset="1" stop-color="rgb(153,153,153)"/>
       </linearGradient>
      </defs>
      <path fill="url(#Gradient_942)" stroke="rgb(178,178,178)" id="Drawing_2_0" stroke-width="40" stroke-linejoin="round" d="M 8946,17785 L 8946,16675 12305,18617 12305,19726 8946,17785 Z"/>
     </g>
     <g>
      <path fill="rgb(51,51,51)" stroke="none" d="M 14593,18405 L 13199,19210 12305,19210 12305,18617 14593,17295 14593,18405 Z"/>
      <path fill="rgb(52,52,52)" stroke="none" d="M 13199,19210 L 12305,19727 12305,19210 13199,19210 Z M 14593,17295 L 15184,16953 15184,18063 14593,18405 14593,17295 Z M 14579,18413 L 13224,19196 12305,19196 12305,18617 14579,17303 14579,18413 Z"/>
      <path fill="rgb(53,53,53)" stroke="none" d="M 13224,19196 L 12305,19727 12305,19196 13224,19196 Z M 14579,17303 L 15184,16953 15184,18063 14579,18413 14579,17303 Z M 14565,18421 L 13248,19182 12305,19182 12305,18617 14565,17311 14565,18421 Z"/>
      <path fill="rgb(54,54,54)" stroke="none" d="M 13248,19182 L 12305,19727 12305,19182 13248,19182 Z M 14565,17311 L 15184,16953 15184,18063 14565,18421 14565,17311 Z M 14551,18429 L 13272,19168 12305,19168 12305,18617 14551,17319 14551,18429 Z"/>
      <path fill="rgb(55,55,55)" stroke="none" d="M 13272,19168 L 12305,19727 12305,19168 13272,19168 Z M 14551,17319 L 15184,16953 15184,18063 14551,18429 14551,17319 Z M 14537,18437 L 13296,19154 12305,19154 12305,18617 14537,17327 14537,18437 Z"/>
      <path fill="rgb(56,56,56)" stroke="none" d="M 13296,19154 L 12305,19727 12305,19154 13296,19154 Z M 14537,17327 L 15184,16953 15184,18063 14537,18437 14537,17327 Z M 14523,18445 L 13321,19140 12305,19140 12305,18617 14523,17335 14523,18445 Z"/>
      <path fill="rgb(57,57,57)" stroke="none" d="M 13321,19140 L 12305,19727 12305,19140 13321,19140 Z M 14523,17335 L 15184,16953 15184,18063 14523,18445 14523,17335 Z M 14509,18453 L 13345,19126 12305,19126 12305,18617 14509,17343 14509,18453 Z"/>
      <path fill="rgb(58,58,58)" stroke="none" d="M 13345,19126 L 12305,19727 12305,19126 13345,19126 Z M 14509,17343 L 15184,16953 15184,18063 14509,18453 14509,17343 Z M 14494,18462 L 13371,19111 12305,19111 12305,18617 14494,17352 14494,18462 Z"/>
      <path fill="rgb(59,59,59)" stroke="none" d="M 13371,19111 L 12305,19727 12305,19111 13371,19111 Z M 14494,17352 L 15184,16953 15184,18063 14494,18462 14494,17352 Z M 14480,18470 L 13395,19097 12305,19097 12305,18617 14480,17360 14480,18470 Z"/>
      <path fill="rgb(60,60,60)" stroke="none" d="M 13395,19097 L 12305,19727 12305,19097 13395,19097 Z M 14480,17360 L 15184,16953 15184,18063 14480,18470 14480,17360 Z M 14466,18478 L 13419,19083 12305,19083 12305,18617 14466,17368 14466,18478 Z"/>
      <path fill="rgb(61,61,61)" stroke="none" d="M 13419,19083 L 12305,19727 12305,19083 13419,19083 Z M 14466,17368 L 15184,16953 15184,18063 14466,18478 14466,17368 Z M 14452,18486 L 13443,19069 12305,19069 12305,18617 14452,17376 14452,18486 Z"/>
      <path fill="rgb(62,62,62)" stroke="none" d="M 13443,19069 L 12305,19727 12305,19069 13443,19069 Z M 14452,17376 L 15184,16953 15184,18063 14452,18486 14452,17376 Z M 14438,18494 L 13468,19055 12305,19055 12305,18617 14438,17384 14438,18494 Z"/>
      <path fill="rgb(63,63,63)" stroke="none" d="M 13468,19055 L 12305,19727 12305,19055 13468,19055 Z M 14438,17384 L 15184,16953 15184,18063 14438,18494 14438,17384 Z M 14424,18502 L 13492,19041 12305,19041 12305,18617 14424,17392 14424,18502 Z"/>
      <path fill="rgb(64,64,64)" stroke="none" d="M 13492,19041 L 12305,19727 12305,19041 13492,19041 Z M 14424,17392 L 15184,16953 15184,18063 14424,18502 14424,17392 Z M 14410,18510 L 13516,19027 12305,19027 12305,18617 14410,17400 14410,18510 Z"/>
      <path fill="rgb(65,65,65)" stroke="none" d="M 13516,19027 L 12305,19727 12305,19027 13516,19027 Z M 14410,17400 L 15184,16953 15184,18063 14410,18510 14410,17400 Z M 14396,18518 L 13540,19013 12305,19013 12305,18617 14396,17408 14396,18518 Z"/>
      <path fill="rgb(66,66,66)" stroke="none" d="M 13540,19013 L 12305,19727 12305,19013 13540,19013 Z M 14396,17408 L 15184,16953 15184,18063 14396,18518 14396,17408 Z M 14381,18527 L 13566,18998 12305,18998 12305,18617 14381,17417 14381,18527 Z"/>
      <path fill="rgb(67,67,67)" stroke="none" d="M 13566,18998 L 12305,19727 12305,18998 13566,18998 Z M 14381,17417 L 15184,16953 15184,18063 14381,18527 14381,17417 Z M 14367,18535 L 13591,18984 12305,18984 12305,18617 14367,17425 14367,18535 Z"/>
      <path fill="rgb(68,68,68)" stroke="none" d="M 13591,18984 L 12305,19727 12305,18984 13591,18984 Z M 14367,17425 L 15184,16953 15184,18063 14367,18535 14367,17425 Z M 14353,18543 L 13615,18970 12305,18970 12305,18617 14353,17433 14353,18543 Z"/>
      <path fill="rgb(69,69,69)" stroke="none" d="M 13615,18970 L 12305,19727 12305,18970 13615,18970 Z M 14353,17433 L 15184,16953 15184,18063 14353,18543 14353,17433 Z M 14339,18551 L 13639,18956 12305,18956 12305,18617 14339,17441 14339,18551 Z"/>
      <path fill="rgb(70,70,70)" stroke="none" d="M 13639,18956 L 12305,19727 12305,18956 13639,18956 Z M 14339,17441 L 15184,16953 15184,18063 14339,18551 14339,17441 Z M 14325,18559 L 13663,18942 12305,18942 12305,18617 14325,17449 14325,18559 Z"/>
      <path fill="rgb(71,71,71)" stroke="none" d="M 13663,18942 L 12305,19727 12305,18942 13663,18942 Z M 14325,17449 L 15184,16953 15184,18063 14325,18559 14325,17449 Z M 14311,18568 L 13687,18928 12305,18928 12305,18617 14311,17458 14311,18568 Z"/>
      <path fill="rgb(72,72,72)" stroke="none" d="M 13687,18928 L 12305,19727 12305,18928 13687,18928 Z M 14311,17458 L 15184,16953 15184,18063 14311,18568 14311,17458 Z M 14297,18576 L 13712,18914 12305,18914 12305,18617 14297,17466 14297,18576 Z"/>
      <path fill="rgb(73,73,73)" stroke="none" d="M 13712,18914 L 12305,19727 12305,18914 13712,18914 Z M 14297,17466 L 15184,16953 15184,18063 14297,18576 14297,17466 Z M 14283,18584 L 13736,18900 12305,18900 12305,18617 14283,17474 14283,18584 Z"/>
      <path fill="rgb(74,74,74)" stroke="none" d="M 13736,18900 L 12305,19727 12305,18900 13736,18900 Z M 14283,17474 L 15184,16953 15184,18063 14283,18584 14283,17474 Z M 14268,18592 L 13762,18885 12305,18885 12305,18617 14268,17482 14268,18592 Z"/>
      <path fill="rgb(75,75,75)" stroke="none" d="M 13762,18885 L 12305,19727 12305,18885 13762,18885 Z M 14268,17482 L 15184,16953 15184,18063 14268,18592 14268,17482 Z M 14254,18601 L 13786,18871 12305,18871 12305,18617 14254,17491 14254,18601 Z"/>
      <path fill="rgb(76,76,76)" stroke="none" d="M 13786,18871 L 12305,19727 12305,18871 13786,18871 Z M 14254,17491 L 15184,16953 15184,18063 14254,18601 14254,17491 Z M 14240,18609 L 13810,18857 12305,18857 12305,18617 14240,17499 14240,18609 Z"/>
      <path fill="rgb(77,77,77)" stroke="none" d="M 13810,18857 L 12305,19727 12305,18857 13810,18857 Z M 14240,17499 L 15184,16953 15184,18063 14240,18609 14240,17499 Z M 14226,18617 L 13834,18843 12305,18843 12305,18617 14226,17507 14226,18617 Z"/>
      <path fill="rgb(78,78,78)" stroke="none" d="M 13834,18843 L 12305,19727 12305,18843 13834,18843 Z M 14226,17507 L 15184,16953 15184,18063 14226,18617 14226,17507 Z M 14212,18625 L 13859,18829 12305,18829 12305,18617 14212,17515 14212,18625 Z"/>
      <path fill="rgb(79,79,79)" stroke="none" d="M 13859,18829 L 12305,19727 12305,18829 13859,18829 Z M 14212,17515 L 15184,16953 15184,18063 14212,18625 14212,17515 Z M 14198,18633 L 13883,18815 12305,18815 12305,18617 14198,17523 14198,18633 Z"/>
      <path fill="rgb(80,80,80)" stroke="none" d="M 13883,18815 L 12305,19727 12305,18815 13883,18815 Z M 14198,17523 L 15184,16953 15184,18063 14198,18633 14198,17523 Z M 14184,18641 L 13907,18801 12305,18801 12305,18617 14184,17531 14184,18641 Z"/>
      <path fill="rgb(81,81,81)" stroke="none" d="M 13907,18801 L 12305,19727 12305,18801 13907,18801 Z M 14184,17531 L 15184,16953 15184,18063 14184,18641 14184,17531 Z M 14170,18649 L 13931,18787 12305,18787 12305,18617 14170,17539 14170,18649 Z"/>
      <path fill="rgb(82,82,82)" stroke="none" d="M 13931,18787 L 12305,19727 12305,18787 13931,18787 Z M 14170,17539 L 15184,16953 15184,18063 14170,18649 14170,17539 Z M 14155,18658 L 13957,18772 12305,18772 12305,18617 14155,17548 14155,18658 Z"/>
      <path fill="rgb(83,83,83)" stroke="none" d="M 13957,18772 L 12305,19727 12305,18772 13957,18772 Z M 14155,17548 L 15184,16953 15184,18063 14155,18658 14155,17548 Z M 14141,18666 L 13982,18758 12305,18758 12305,18617 14141,17556 14141,18666 Z"/>
      <path fill="rgb(84,84,84)" stroke="none" d="M 13982,18758 L 12305,19727 12305,18758 13982,18758 Z M 14141,17556 L 15184,16953 15184,18063 14141,18666 14141,17556 Z M 14127,18674 L 14006,18744 12305,18744 12305,18617 14127,17564 14127,18674 Z"/>
      <path fill="rgb(85,85,85)" stroke="none" d="M 14006,18744 L 12305,19727 12305,18744 14006,18744 Z M 14127,17564 L 15184,16953 15184,18063 14127,18674 14127,17564 Z M 14113,18682 L 14030,18730 12305,18730 12305,18617 14113,17572 14113,18682 Z"/>
      <path fill="rgb(86,86,86)" stroke="none" d="M 14030,18730 L 12305,19727 12305,18730 14030,18730 Z M 14113,17572 L 15184,16953 15184,18063 14113,18682 14113,17572 Z M 14099,18690 L 14054,18716 12305,18716 12305,18617 14099,17580 14099,18690 Z"/>
      <path fill="rgb(87,87,87)" stroke="none" d="M 14054,18716 L 12305,19727 12305,18716 14054,18716 Z M 14099,17580 L 15184,16953 15184,18063 14099,18690 14099,17580 Z M 14085,18698 L 14078,18702 12305,18702 12305,18617 14085,17588 14085,18698 Z"/>
      <path fill="rgb(88,88,88)" stroke="none" d="M 14078,18702 L 12305,19727 12305,18702 14078,18702 Z M 14085,17588 L 15184,16953 15184,18063 14085,18698 14085,17588 Z M 14071,18688 L 12305,18688 12305,18617 14071,17596 14071,18688 Z"/>
      <path fill="rgb(89,89,89)" stroke="none" d="M 14071,18688 L 14071,17596 15184,16953 15184,18063 12305,19727 12305,18688 14071,18688 Z M 14057,18674 L 12305,18674 12305,18617 14057,17604 14057,18674 Z"/>
      <path fill="rgb(90,90,90)" stroke="none" d="M 14057,18674 L 14057,17604 15184,16953 15184,18063 12305,19727 12305,18674 14057,18674 Z M 14042,18659 L 12305,18659 12305,18617 14042,17613 14042,18659 Z"/>
      <path fill="rgb(91,91,91)" stroke="none" d="M 14042,18659 L 14042,17613 15184,16953 15184,18063 12305,19727 12305,18659 14042,18659 Z M 14028,18645 L 12306,18645 12306,18616 14028,17621 14028,18645 Z"/>
      <path fill="rgb(92,92,92)" stroke="none" d="M 12306,18645 L 14028,18645 14028,17621 15184,16953 15184,18063 12305,19727 12305,18617 12306,18616 12306,18645 Z M 14014,18631 L 12320,18631 12320,18608 14014,17629 14014,18631 Z"/>
      <path fill="rgb(93,93,93)" stroke="none" d="M 12320,18631 L 14014,18631 14014,17629 15184,16953 15184,18063 12305,19727 12305,18617 12320,18608 12320,18631 Z M 14000,18617 L 12334,18617 12334,18600 14000,17637 14000,18617 Z"/>
      <path fill="rgb(94,94,94)" stroke="none" d="M 12334,18617 L 14000,18617 14000,17637 15184,16953 15184,18063 12305,19727 12305,18617 12334,18600 12334,18617 Z M 13986,18603 L 12348,18603 12348,18592 13986,17645 13986,18603 Z"/>
      <path fill="rgb(95,95,95)" stroke="none" d="M 12348,18603 L 13986,18603 13986,17645 15184,16953 15184,18063 12305,19727 12305,18617 12348,18592 12348,18603 Z M 13972,18589 L 12362,18589 12362,18584 13972,17654 13972,18589 Z"/>
      <path fill="rgb(96,96,96)" stroke="none" d="M 12362,18589 L 13972,18589 13972,17654 15184,16953 15184,18063 12305,19727 12305,18617 12362,18584 12362,18589 Z M 13958,18575 L 12378,18575 13958,17662 13958,18575 Z"/>
      <path fill="rgb(97,97,97)" stroke="none" d="M 13958,18575 L 13958,17662 15184,16953 15184,18063 12305,19727 12305,18617 12378,18575 13958,18575 Z M 13944,18561 L 12402,18561 13944,17670 13944,18561 Z"/>
      <path fill="rgb(98,98,98)" stroke="none" d="M 13944,18561 L 13944,17670 15184,16953 15184,18063 12305,19727 12305,18617 12402,18561 13944,18561 Z M 13929,18546 L 12428,18546 13929,17678 13929,18546 Z"/>
      <path fill="rgb(99,99,99)" stroke="none" d="M 13929,18546 L 13929,17678 15184,16953 15184,18063 12305,19727 12305,18617 12428,18546 13929,18546 Z M 13915,18532 L 12452,18532 13915,17686 13915,18532 Z"/>
      <path fill="rgb(100,100,100)" stroke="none" d="M 13915,18532 L 13915,17686 15184,16953 15184,18063 12305,19727 12305,18617 12452,18532 13915,18532 Z M 13901,18518 L 12476,18518 13901,17695 13901,18518 Z"/>
      <path fill="rgb(101,101,101)" stroke="none" d="M 13901,18518 L 13901,17695 15184,16953 15184,18063 12305,19727 12305,18617 12476,18518 13901,18518 Z M 13887,18504 L 12501,18504 13887,17703 13887,18504 Z"/>
      <path fill="rgb(102,102,102)" stroke="none" d="M 13887,18504 L 13887,17703 15184,16953 15184,18063 12305,19727 12305,18617 12501,18504 13887,18504 Z M 13873,18490 L 12525,18490 13873,17711 13873,18490 Z"/>
      <path fill="rgb(103,103,103)" stroke="none" d="M 13873,18490 L 13873,17711 15184,16953 15184,18063 12305,19727 12305,18617 12525,18490 13873,18490 Z M 13859,18476 L 12549,18476 13859,17719 13859,18476 Z"/>
      <path fill="rgb(104,104,104)" stroke="none" d="M 13859,18476 L 13859,17719 15184,16953 15184,18063 12305,19727 12305,18617 12549,18476 13859,18476 Z M 13845,18462 L 12573,18462 13845,17727 13845,18462 Z"/>
      <path fill="rgb(105,105,105)" stroke="none" d="M 13845,18462 L 13845,17727 15184,16953 15184,18063 12305,19727 12305,18617 12573,18462 13845,18462 Z M 13830,18447 L 12599,18447 13830,17736 13830,18447 Z"/>
      <path fill="rgb(106,106,106)" stroke="none" d="M 13830,18447 L 13830,17736 15184,16953 15184,18063 12305,19727 12305,18617 12599,18447 13830,18447 Z M 13816,18433 L 12623,18433 13816,17744 13816,18433 Z"/>
      <path fill="rgb(107,107,107)" stroke="none" d="M 13816,18433 L 13816,17744 15184,16953 15184,18063 12305,19727 12305,18617 12623,18433 13816,18433 Z M 13802,18419 L 12648,18419 13802,17752 13802,18419 Z"/>
      <path fill="rgb(108,108,108)" stroke="none" d="M 13802,18419 L 13802,17752 15184,16953 15184,18063 12305,19727 12305,18617 12648,18419 13802,18419 Z M 13788,18405 L 12672,18405 13788,17760 13788,18405 Z"/>
      <path fill="rgb(109,109,109)" stroke="none" d="M 13788,18405 L 13788,17760 15184,16953 15184,18063 12305,19727 12305,18617 12672,18405 13788,18405 Z M 13774,18391 L 12696,18391 13774,17768 13774,18391 Z"/>
      <path fill="rgb(110,110,110)" stroke="none" d="M 13774,18391 L 13774,17768 15184,16953 15184,18063 12305,19727 12305,18617 12696,18391 13774,18391 Z M 13760,18377 L 12720,18377 13760,17776 13760,18377 Z"/>
      <path fill="rgb(111,111,111)" stroke="none" d="M 13760,18377 L 13760,17776 15184,16953 15184,18063 12305,19727 12305,18617 12720,18377 13760,18377 Z M 13746,18363 L 12744,18363 13746,17784 13746,18363 Z"/>
      <path fill="rgb(112,112,112)" stroke="none" d="M 13746,18363 L 13746,17784 15184,16953 15184,18063 12305,19727 12305,18617 12744,18363 13746,18363 Z M 13732,18349 L 12769,18349 13732,17792 13732,18349 Z"/>
      <path fill="rgb(113,113,113)" stroke="none" d="M 13732,18349 L 13732,17792 15184,16953 15184,18063 12305,19727 12305,18617 12769,18349 13732,18349 Z M 13717,18334 L 12795,18334 13717,17801 13717,18334 Z"/>
      <path fill="rgb(114,114,114)" stroke="none" d="M 13717,18334 L 13717,17801 15184,16953 15184,18063 12305,19727 12305,18617 12795,18334 13717,18334 Z M 13703,18320 L 12819,18320 13703,17809 13703,18320 Z"/>
      <path fill="rgb(115,115,115)" stroke="none" d="M 13703,18320 L 13703,17809 15184,16953 15184,18063 12305,19727 12305,18617 12819,18320 13703,18320 Z M 13689,18306 L 12843,18306 13689,17817 13689,18306 Z"/>
      <path fill="rgb(116,116,116)" stroke="none" d="M 13689,18306 L 13689,17817 15184,16953 15184,18063 12305,19727 12305,18617 12843,18306 13689,18306 Z M 13675,18292 L 12867,18292 13675,17825 13675,18292 Z"/>
      <path fill="rgb(117,117,117)" stroke="none" d="M 13675,18292 L 13675,17825 15184,16953 15184,18063 12305,19727 12305,18617 12867,18292 13675,18292 Z M 13661,18278 L 12892,18278 13661,17833 13661,18278 Z"/>
      <path fill="rgb(118,118,118)" stroke="none" d="M 13661,18278 L 13661,17833 15184,16953 15184,18063 12305,19727 12305,18617 12892,18278 13661,18278 Z M 13647,18264 L 12916,18264 13647,17841 13647,18264 Z"/>
      <path fill="rgb(119,119,119)" stroke="none" d="M 13647,18264 L 13647,17841 15184,16953 15184,18063 12305,19727 12305,18617 12916,18264 13647,18264 Z M 13633,18250 L 12940,18250 13633,17849 13633,18250 Z"/>
      <path fill="rgb(120,120,120)" stroke="none" d="M 13633,18250 L 13633,17849 15184,16953 15184,18063 12305,19727 12305,18617 12940,18250 13633,18250 Z M 13619,18236 L 12964,18236 13619,17858 13619,18236 Z"/>
      <path fill="rgb(121,121,121)" stroke="none" d="M 13619,18236 L 13619,17858 15184,16953 15184,18063 12305,19727 12305,18617 12964,18236 13619,18236 Z M 13604,18221 L 12990,18221 13604,17866 13604,18221 Z"/>
      <path fill="rgb(122,122,122)" stroke="none" d="M 13604,18221 L 13604,17866 15184,16953 15184,18063 12305,19727 12305,18617 12990,18221 13604,18221 Z M 13590,18207 L 13014,18207 13590,17874 13590,18207 Z"/>
      <path fill="rgb(123,123,123)" stroke="none" d="M 13590,18207 L 13590,17874 15184,16953 15184,18063 12305,19727 12305,18617 13014,18207 13590,18207 Z M 13576,18193 L 13039,18193 13576,17882 13576,18193 Z"/>
      <path fill="rgb(124,124,124)" stroke="none" d="M 13576,18193 L 13576,17882 15184,16953 15184,18063 12305,19727 12305,18617 13039,18193 13576,18193 Z M 13562,18179 L 13063,18179 13562,17890 13562,18179 Z"/>
      <path fill="rgb(125,125,125)" stroke="none" d="M 13562,18179 L 13562,17890 15184,16953 15184,18063 12305,19727 12305,18617 13063,18179 13562,18179 Z M 13548,18165 L 13087,18165 13548,17899 13548,18165 Z"/>
      <path fill="rgb(126,126,126)" stroke="none" d="M 13548,18165 L 13548,17899 15184,16953 15184,18063 12305,19727 12305,18617 13087,18165 13548,18165 Z M 13534,18151 L 13111,18151 13534,17907 13534,18151 Z"/>
      <path fill="rgb(127,127,127)" stroke="none" d="M 13534,18151 L 13534,17907 15184,16953 15184,18063 12305,19727 12305,18617 13111,18151 13534,18151 Z M 13520,18137 L 13135,18137 13520,17915 13520,18137 Z"/>
      <path fill="rgb(128,128,128)" stroke="none" d="M 13520,18137 L 13520,17915 15184,16953 15184,18063 12305,19727 12305,18617 13135,18137 13520,18137 Z M 13506,18123 L 13160,18123 13506,17923 13506,18123 Z"/>
      <path fill="rgb(129,129,129)" stroke="none" d="M 13506,18123 L 13506,17923 15184,16953 15184,18063 12305,19727 12305,18617 13160,18123 13506,18123 Z M 13491,18108 L 13186,18108 13491,17932 13491,18108 Z"/>
      <path fill="rgb(130,130,130)" stroke="none" d="M 13491,18108 L 13491,17932 15184,16953 15184,18063 12305,19727 12305,18617 13186,18108 13491,18108 Z M 13477,18094 L 13210,18094 13477,17940 13477,18094 Z"/>
      <path fill="rgb(131,131,131)" stroke="none" d="M 13477,18094 L 13477,17940 15184,16953 15184,18063 12305,19727 12305,18617 13210,18094 13477,18094 Z M 13463,18080 L 13234,18080 13463,17948 13463,18080 Z"/>
      <path fill="rgb(132,132,132)" stroke="none" d="M 13463,18080 L 13463,17948 15184,16953 15184,18063 12305,19727 12305,18617 13234,18080 13463,18080 Z M 13449,18066 L 13258,18066 13449,17956 13449,18066 Z"/>
      <path fill="rgb(133,133,133)" stroke="none" d="M 13449,18066 L 13449,17956 15184,16953 15184,18063 12305,19727 12305,18617 13258,18066 13449,18066 Z M 13435,18052 L 13283,18052 13435,17964 13435,18052 Z"/>
      <path fill="rgb(134,134,134)" stroke="none" d="M 13435,18052 L 13435,17964 15184,16953 15184,18063 12305,19727 12305,18617 13283,18052 13435,18052 Z M 13421,18038 L 13307,18038 13421,17972 13421,18038 Z"/>
      <path fill="rgb(135,135,135)" stroke="none" d="M 13421,18038 L 13421,17972 15184,16953 15184,18063 12305,19727 12305,18617 13307,18038 13421,18038 Z M 13407,18024 L 13331,18024 13407,17980 13407,18024 Z"/>
      <path fill="rgb(136,136,136)" stroke="none" d="M 13407,18024 L 13407,17980 15184,16953 15184,18063 12305,19727 12305,18617 13331,18024 13407,18024 Z M 13393,18010 L 13355,18010 13393,17988 13393,18010 Z"/>
      <path fill="rgb(137,137,137)" stroke="none" d="M 13393,18010 L 13393,17988 15184,16953 15184,18063 12305,19727 12305,18617 13355,18010 13393,18010 Z"/>
      <path fill="rgb(138,138,138)" stroke="none" d="M 12305,19727 L 12305,18617 15184,16953 15184,18063 12305,19727 Z"/>
      <path fill="rgb(139,139,139)" stroke="none" d="M 12305,19727 L 12305,18617 15184,16953 15184,18063 12305,19727 Z"/>
      <path fill="rgb(140,140,140)" stroke="none" d="M 12305,19727 L 12305,18617 15184,16953 15184,18063 12305,19727 Z"/>
      <path fill="rgb(141,141,141)" stroke="none" d="M 12305,19727 L 12305,18617 15184,16953 15184,18063 12305,19727 Z"/>
      <path fill="rgb(142,142,142)" stroke="none" d="M 12305,19727 L 12305,18617 15184,16953 15184,18063 12305,19727 Z"/>
      <path fill="rgb(143,143,143)" stroke="none" d="M 12305,19727 L 12305,18617 15184,16953 15184,18063 12305,19727 Z"/>
      <path fill="rgb(144,144,144)" stroke="none" d="M 12305,19727 L 12305,18617 15184,16953 15184,18063 12305,19727 Z"/>
      <path fill="rgb(145,145,145)" stroke="none" d="M 12305,19727 L 12305,18617 15184,16953 15184,18063 12305,19727 Z"/>
      <path fill="rgb(146,146,146)" stroke="none" d="M 12305,19727 L 12305,18617 15184,16953 15184,18063 12305,19727 Z"/>
      <path fill="rgb(147,147,147)" stroke="none" d="M 12305,19727 L 12305,18617 15184,16953 15184,18063 12305,19727 Z"/>
      <path fill="rgb(148,148,148)" stroke="none" d="M 12305,19727 L 12305,18617 15184,16953 15184,18063 12305,19727 Z"/>
      <path fill="rgb(149,149,149)" stroke="none" d="M 12305,19727 L 12305,18617 15184,16953 15184,18063 12305,19727 Z"/>
      <path fill="rgb(150,150,150)" stroke="none" d="M 12305,19727 L 12305,18617 15184,16953 15184,18063 12305,19727 Z"/>
      <path fill="rgb(151,151,151)" stroke="none" d="M 12305,19727 L 12305,18617 15184,16953 15184,18063 12305,19727 Z"/>
      <path fill="rgb(153,153,153)" stroke="none" d="M 12305,19727 L 12305,18617 15184,16953 15184,18063 12305,19727 Z"/>
      <path fill="none" stroke="rgb(178,178,178)" id="Drawing_3_0" stroke-width="40" stroke-linejoin="round" d="M 12305,19727 L 12305,18617 15184,16953 15184,18063 12305,19727 Z"/>
     </g>
     <g>
      <defs>
       <linearGradient id="Gradient_943" gradientUnits="userSpaceOnUse" x1="12065" y1="15011" x2="12065" y2="18617">
        <stop offset="0.1" stop-color="rgb(51,51,51)"/>
        <stop offset="1" stop-color="rgb(153,153,153)"/>
       </linearGradient>
      </defs>
      <path fill="url(#Gradient_943)" stroke="rgb(178,178,178)" id="Drawing_4_0" stroke-width="40" stroke-linejoin="round" d="M 12305,18617 L 8946,16675 11825,15011 15185,16953 12305,18617 Z"/>
     </g>
     <g>
      <path fill="none" stroke="rgb(153,153,153)" id="Drawing_5_0" stroke-width="40" stroke-linejoin="round" d="M 10098,17563 L 10098,18229"/>
     </g>
     <g>
      <path fill="none" stroke="rgb(178,178,178)" id="Drawing_6_0" stroke-width="40" stroke-linejoin="round" d="M 12210,18984 L 10674,18096"/>
     </g>
     <g>
      <path fill="none" stroke="rgb(178,178,178)" id="Drawing_7_0" stroke-width="40" stroke-linejoin="round" d="M 10665,17896 L 10665,18118"/>
     </g>
     <g>
      <path fill="none" stroke="rgb(102,102,102)" id="Drawing_8_0" stroke-width="40" stroke-linejoin="round" d="M 12201,18784 L 12201,19006"/>
     </g>
     <g>
      <path fill="none" stroke="rgb(102,102,102)" id="Drawing_9_0" stroke-width="40" stroke-linejoin="round" d="M 12201,18784 L 10665,17896"/>
     </g>
     <g>
      <path fill="rgb(57,181,74)" stroke="none" d="M 10290,17896 L 10290,17674 10482,17785 10482,18007 10290,17896 Z"/>
      <path fill="none" stroke="rgb(102,102,102)" id="Drawing_10_0" stroke-width="40" stroke-linejoin="round" d="M 10290,17896 L 10290,17674 10482,17785 10482,18007 10290,17896 Z"/>
     </g>
     <g>
      <path fill="none" stroke="rgb(153,153,153)" id="Drawing_11_0" stroke-width="40" stroke-linejoin="round" d="M 9906,17452 L 9906,18118"/>
     </g>
     <g>
      <path fill="none" stroke="rgb(153,153,153)" id="Drawing_12_0" stroke-width="40" stroke-linejoin="round" d="M 9714,17341 L 9714,18007"/>
     </g>
     <g>
      <path fill="none" stroke="rgb(153,153,153)" id="Drawing_13_0" stroke-width="40" stroke-linejoin="round" d="M 9522,17230 L 9522,17896"/>
     </g>
     <g>
      <path fill="none" stroke="rgb(153,153,153)" id="Drawing_14_0" stroke-width="40" stroke-linejoin="round" d="M 9330,17119 L 9330,17785"/>
     </g>
     <g>
      <path fill="none" stroke="rgb(153,153,153)" id="Drawing_15_0" stroke-width="40" stroke-linejoin="round" d="M 9138,17008 L 9138,17674"/>
     </g>
     <g>
      <defs>
       <linearGradient id="Gradient_944" gradientUnits="userSpaceOnUse" x1="8753" y1="17174" x2="8947" y2="17174">
        <stop offset="0.1" stop-color="rgb(51,51,51)"/>
        <stop offset="1" stop-color="rgb(153,153,153)"/>
       </linearGradient>
      </defs>
      <path fill="url(#Gradient_944)" stroke="rgb(178,178,178)" id="Drawing_16_0" stroke-width="40" stroke-linejoin="round" d="M 8754,17674 L 8754,16564 8946,16675 8946,17785 8754,17674 Z"/>
     </g>
     <g>
      <defs>
       <linearGradient id="Gradient_945" gradientUnits="userSpaceOnUse" x1="12304" y1="19227" x2="12498" y2="19227">
        <stop offset="0.1" stop-color="rgb(51,51,51)"/>
        <stop offset="1" stop-color="rgb(153,153,153)"/>
       </linearGradient>
      </defs>
      <path fill="url(#Gradient_945)" stroke="rgb(178,178,178)" id="Drawing_17_0" stroke-width="40" stroke-linejoin="round" d="M 12305,19727 L 12305,18617 12497,18728 12497,19838 12305,19727 Z"/>
     </g>
     <g>
      <path fill="none" stroke="rgb(0,0,0)" id="Drawing_18_0" stroke-width="40" stroke-linejoin="round" d="M 8754,17674 L 8754,16564 8946,16675 11825,15011 15185,16953 15185,18062 12497,19616 12497,19838 8754,17674 Z"/>
     </g>
    </g>
   </g>
   <g id="DrawingGroup_4">
    <g>
     <path fill="rgb(252,222,187)" stroke="none" d="M 14504,19032 L 13993,19106 14504,19771 14504,19032 Z"/>
     <path fill="none" stroke="rgb(255,255,255)" id="Drawing_19_0" stroke-width="40" stroke-linejoin="round" d="M 14504,19032 L 13993,19106 14504,19771 14504,19032 Z"/>
    </g>
    <g>
     <path fill="rgb(252,222,187)" stroke="none" d="M 13482,18441 L 13993,19106 13482,19180 13482,18441 Z"/>
     <path fill="none" stroke="rgb(255,255,255)" id="Drawing_20_0" stroke-width="40" stroke-linejoin="round" d="M 13482,18441 L 13993,19106 13482,19180 13482,18441 Z"/>
    </g>
    <g>
     <path fill="rgb(252,222,187)" stroke="none" d="M 14505,19771 L 13993,19032 13482,19180 14505,19771 Z"/>
     <path fill="none" stroke="rgb(251,201,142)" id="Drawing_21_0" stroke-width="40" stroke-linejoin="round" d="M 14505,19771 L 13993,19032 13482,19180 14505,19771 Z"/>
    </g>
    <g>
     <path fill="rgb(252,222,187)" stroke="none" d="M 14505,19032 L 13993,19180 13482,18441 14505,19032 Z"/>
     <path fill="none" stroke="rgb(251,201,142)" id="Drawing_22_0" stroke-width="40" stroke-linejoin="round" d="M 14505,19032 L 13993,19180 13482,18441 14505,19032 Z"/>
    </g>
    <g>
     <path fill="none" stroke="rgb(0,0,0)" id="Drawing_23_0" stroke-width="40" stroke-linejoin="round" d="M 13482,19180 L 13482,18441 14505,19032 14505,19771 13482,19180 Z"/>
    </g>
   </g>
  </g>
 </g>
</svg>