<?xml version="1.0" encoding="UTF-8"?>

<svg version="1.2" baseProfile="tiny" width="39.84mm" height="48.7mm" viewBox="8696 3612 3984 4870" preserveAspectRatio="xMidYMid" fill-rule="evenodd" stroke-width="28.222" stroke-linejoin="round" xmlns="http://www.w3.org/2000/svg" xmlns:xlink="http://www.w3.org/1999/xlink" xml:space="preserve">
 <g visibility="visible" id="Slide_1">
  <g id="DrawingGroup_1">
   <g>
    <path fill="rgb(221,221,221)" stroke="none" d="M 10171,8462 C 10881,8462 11994,7998 12474,7692 12954,7386 12474,6992 12232,6992 L 10171,8462 Z"/>
    <path fill="none" stroke="rgb(221,221,221)" id="Drawing_1_0" stroke-linejoin="round" d="M 10171,8462 C 10881,8462 11994,7998 12474,7692 12954,7386 12474,6992 12232,6992 L 10171,8462 Z"/>
   </g>
   <g id="DrawingGroup_2">
    <g>
     <defs>
      <linearGradient id="Gradient_850" gradientUnits="userSpaceOnUse" x1="8712" y1="6641" x2="10173" y2="6643">
       <stop offset="0.1" stop-color="rgb(51,51,51)"/>
       <stop offset="1" stop-color="rgb(153,153,153)"/>
      </linearGradient>
     </defs>
     <path fill="url(#Gradient_850)" stroke="rgb(178,178,178)" id="Drawing_2_0" stroke-width="40" stroke-linejoin="round" d="M 8716,7622 L 8716,4822 10171,5662 10171,8462 8716,7622 Z"/>
    </g>
    <g>
     <path fill="rgb(51,51,51)" stroke="none" d="M 10171,7644 L 10171,5662 12232,4472 12232,7272 11588,7644 10171,7644 Z"/>
     <path fill="rgb(52,52,52)" stroke="none" d="M 11588,7644 L 10171,8462 10171,7644 11588,7644 Z M 10171,7624 L 10171,5662 12232,4472 12232,7272 11622,7624 10171,7624 Z"/>
     <path fill="rgb(53,53,53)" stroke="none" d="M 11622,7624 L 10171,8462 10171,7624 11622,7624 Z M 10171,7605 L 10171,5662 12232,4472 12232,7272 11655,7605 10171,7605 Z"/>
     <path fill="rgb(54,54,54)" stroke="none" d="M 11655,7605 L 10171,8462 10171,7605 11655,7605 Z M 10171,7585 L 10171,5662 12232,4472 12232,7272 11690,7585 10171,7585 Z"/>
     <path fill="rgb(55,55,55)" stroke="none" d="M 11690,7585 L 10171,8462 10171,7585 11690,7585 Z M 10171,7566 L 10171,5662 12232,4472 12232,7272 11723,7566 10171,7566 Z"/>
     <path fill="rgb(56,56,56)" stroke="none" d="M 11723,7566 L 10171,8462 10171,7566 11723,7566 Z M 10171,7546 L 10171,5662 12232,4472 12232,7272 11757,7546 10171,7546 Z"/>
     <path fill="rgb(57,57,57)" stroke="none" d="M 11757,7546 L 10171,8462 10171,7546 11757,7546 Z M 10171,7526 L 10171,5662 12232,4472 12232,7272 11792,7526 10171,7526 Z"/>
     <path fill="rgb(58,58,58)" stroke="none" d="M 11792,7526 L 10171,8462 10171,7526 11792,7526 Z M 10171,7507 L 10171,5662 12232,4472 12232,7272 11825,7507 10171,7507 Z"/>
     <path fill="rgb(59,59,59)" stroke="none" d="M 11825,7507 L 10171,8462 10171,7507 11825,7507 Z M 10171,7487 L 10171,5662 12232,4472 12232,7272 11860,7487 10171,7487 Z"/>
     <path fill="rgb(60,60,60)" stroke="none" d="M 11860,7487 L 10171,8462 10171,7487 11860,7487 Z M 10171,7468 L 10171,5662 12232,4472 12232,7272 11893,7468 10171,7468 Z"/>
     <path fill="rgb(61,61,61)" stroke="none" d="M 11893,7468 L 10171,8462 10171,7468 11893,7468 Z M 10171,7448 L 10171,5662 12232,4472 12232,7272 11927,7448 10171,7448 Z"/>
     <path fill="rgb(62,62,62)" stroke="none" d="M 11927,7448 L 10171,8462 10171,7448 11927,7448 Z M 10171,7429 L 10171,5662 12232,4472 12232,7272 11960,7429 10171,7429 Z"/>
     <path fill="rgb(63,63,63)" stroke="none" d="M 11960,7429 L 10171,8462 10171,7429 11960,7429 Z M 10171,7409 L 10171,5662 12232,4472 12232,7272 11995,7409 10171,7409 Z"/>
     <path fill="rgb(64,64,64)" stroke="none" d="M 11995,7409 L 10171,8462 10171,7409 11995,7409 Z M 10171,7389 L 10171,5662 12232,4472 12232,7272 12029,7389 10171,7389 Z"/>
     <path fill="rgb(65,65,65)" stroke="none" d="M 12029,7389 L 10171,8462 10171,7389 12029,7389 Z M 10171,7370 L 10171,5662 12232,4472 12232,7272 12062,7370 10171,7370 Z"/>
     <path fill="rgb(66,66,66)" stroke="none" d="M 12062,7370 L 10171,8462 10171,7370 12062,7370 Z M 10171,7350 L 10171,5662 12232,4472 12232,7272 12097,7350 10171,7350 Z"/>
     <path fill="rgb(67,67,67)" stroke="none" d="M 12097,7350 L 10171,8462 10171,7350 12097,7350 Z M 10171,7331 L 10171,5662 12232,4472 12232,7272 12130,7331 10171,7331 Z"/>
     <path fill="rgb(68,68,68)" stroke="none" d="M 12130,7331 L 10171,8462 10171,7331 12130,7331 Z M 10171,7311 L 10171,5662 12232,4472 12232,7272 12164,7311 10171,7311 Z"/>
     <path fill="rgb(69,69,69)" stroke="none" d="M 12164,7311 L 10171,8462 10171,7311 12164,7311 Z M 10171,7292 L 10171,5662 12232,4472 12232,7272 12197,7292 10171,7292 Z"/>
     <path fill="rgb(70,70,70)" stroke="none" d="M 12197,7292 L 10171,8462 10171,7292 12197,7292 Z M 10171,7272 L 10171,5662 12232,4472 12232,7272 10171,7272 Z"/>
     <path fill="rgb(71,71,71)" stroke="none" d="M 12232,7272 L 10171,8462 10171,7272 12232,7272 Z M 10171,7252 L 10171,5662 12232,4472 12232,7252 10171,7252 Z"/>
     <path fill="rgb(72,72,72)" stroke="none" d="M 12232,7252 L 12232,7272 10171,8462 10171,7252 12232,7252 Z M 10171,7233 L 10171,5662 12232,4472 12232,7233 10171,7233 Z"/>
     <path fill="rgb(73,73,73)" stroke="none" d="M 12232,7233 L 12232,7272 10171,8462 10171,7233 12232,7233 Z M 10171,7213 L 10171,5662 12232,4472 12232,7213 10171,7213 Z"/>
     <path fill="rgb(74,74,74)" stroke="none" d="M 12232,7213 L 12232,7272 10171,8462 10171,7213 12232,7213 Z M 10171,7194 L 10171,5662 12232,4472 12232,7194 10171,7194 Z"/>
     <path fill="rgb(75,75,75)" stroke="none" d="M 12232,7194 L 12232,7272 10171,8462 10171,7194 12232,7194 Z M 10171,7174 L 10171,5662 12232,4472 12232,7174 10171,7174 Z"/>
     <path fill="rgb(76,76,76)" stroke="none" d="M 12232,7174 L 12232,7272 10171,8462 10171,7174 12232,7174 Z M 10171,7155 L 10171,5662 12232,4472 12232,7155 10171,7155 Z"/>
     <path fill="rgb(77,77,77)" stroke="none" d="M 12232,7155 L 12232,7272 10171,8462 10171,7155 12232,7155 Z M 10171,7135 L 10171,5662 12232,4472 12232,7135 10171,7135 Z"/>
     <path fill="rgb(78,78,78)" stroke="none" d="M 12232,7135 L 12232,7272 10171,8462 10171,7135 12232,7135 Z M 10171,7115 L 10171,5662 12232,4472 12232,7115 10171,7115 Z"/>
     <path fill="rgb(79,79,79)" stroke="none" d="M 12232,7115 L 12232,7272 10171,8462 10171,7115 12232,7115 Z M 12217,7096 L 10171,7096 10171,5662 12217,4481 12217,7096 Z"/>
     <path fill="rgb(80,80,80)" stroke="none" d="M 12217,7096 L 12217,4481 12232,4472 12232,7272 10171,8462 10171,7096 12217,7096 Z M 12197,7076 L 10171,7076 10171,5662 12197,4492 12197,7076 Z"/>
     <path fill="rgb(81,81,81)" stroke="none" d="M 12197,7076 L 12197,4492 12232,4472 12232,7272 10171,8462 10171,7076 12197,7076 Z M 12178,7057 L 10171,7057 10171,5662 12178,4503 12178,7057 Z"/>
     <path fill="rgb(82,82,82)" stroke="none" d="M 12178,7057 L 12178,4503 12232,4472 12232,7272 10171,8462 10171,7057 12178,7057 Z M 12158,7037 L 10171,7037 10171,5662 12158,4515 12158,7037 Z"/>
     <path fill="rgb(83,83,83)" stroke="none" d="M 12158,7037 L 12158,4515 12232,4472 12232,7272 10171,8462 10171,7037 12158,7037 Z M 12139,7018 L 10171,7018 10171,5662 12139,4526 12139,7018 Z"/>
     <path fill="rgb(84,84,84)" stroke="none" d="M 12139,7018 L 12139,4526 12232,4472 12232,7272 10171,8462 10171,7018 12139,7018 Z M 12119,6998 L 10171,6998 10171,5662 12119,4537 12119,6998 Z"/>
     <path fill="rgb(85,85,85)" stroke="none" d="M 12119,6998 L 12119,4537 12232,4472 12232,7272 10171,8462 10171,6998 12119,6998 Z M 12099,6978 L 10171,6978 10171,5662 12099,4549 12099,6978 Z"/>
     <path fill="rgb(86,86,86)" stroke="none" d="M 12099,6978 L 12099,4549 12232,4472 12232,7272 10171,8462 10171,6978 12099,6978 Z M 12080,6959 L 10171,6959 10171,5662 12080,4560 12080,6959 Z"/>
     <path fill="rgb(87,87,87)" stroke="none" d="M 12080,6959 L 12080,4560 12232,4472 12232,7272 10171,8462 10171,6959 12080,6959 Z M 12060,6939 L 10171,6939 10171,5662 12060,4571 12060,6939 Z"/>
     <path fill="rgb(88,88,88)" stroke="none" d="M 12060,6939 L 12060,4571 12232,4472 12232,7272 10171,8462 10171,6939 12060,6939 Z M 12041,6920 L 10171,6920 10171,5662 12041,4582 12041,6920 Z"/>
     <path fill="rgb(89,89,89)" stroke="none" d="M 12041,6920 L 12041,4582 12232,4472 12232,7272 10171,8462 10171,6920 12041,6920 Z M 12021,6900 L 10171,6900 10171,5662 12021,4594 12021,6900 Z"/>
     <path fill="rgb(90,90,90)" stroke="none" d="M 12021,6900 L 12021,4594 12232,4472 12232,7272 10171,8462 10171,6900 12021,6900 Z M 12002,6881 L 10171,6881 10171,5662 12002,4605 12002,6881 Z"/>
     <path fill="rgb(91,91,91)" stroke="none" d="M 12002,6881 L 12002,4605 12232,4472 12232,7272 10171,8462 10171,6881 12002,6881 Z M 11982,6861 L 10171,6861 10171,5662 11982,4616 11982,6861 Z"/>
     <path fill="rgb(92,92,92)" stroke="none" d="M 11982,6861 L 11982,4616 12232,4472 12232,7272 10171,8462 10171,6861 11982,6861 Z M 11962,6841 L 10171,6841 10171,5662 11962,4628 11962,6841 Z"/>
     <path fill="rgb(93,93,93)" stroke="none" d="M 11962,6841 L 11962,4628 12232,4472 12232,7272 10171,8462 10171,6841 11962,6841 Z M 11943,6822 L 10171,6822 10171,5662 11943,4639 11943,6822 Z"/>
     <path fill="rgb(94,94,94)" stroke="none" d="M 11943,6822 L 11943,4639 12232,4472 12232,7272 10171,8462 10171,6822 11943,6822 Z M 11923,6802 L 10171,6802 10171,5662 11923,4650 11923,6802 Z"/>
     <path fill="rgb(95,95,95)" stroke="none" d="M 11923,6802 L 11923,4650 12232,4472 12232,7272 10171,8462 10171,6802 11923,6802 Z M 11904,6783 L 10171,6783 10171,5662 11904,4661 11904,6783 Z"/>
     <path fill="rgb(96,96,96)" stroke="none" d="M 11904,6783 L 11904,4661 12232,4472 12232,7272 10171,8462 10171,6783 11904,6783 Z M 11884,6763 L 10171,6763 10171,5662 11884,4673 11884,6763 Z"/>
     <path fill="rgb(97,97,97)" stroke="none" d="M 11884,6763 L 11884,4673 12232,4472 12232,7272 10171,8462 10171,6763 11884,6763 Z M 11865,6744 L 10171,6744 10171,5662 11865,4684 11865,6744 Z"/>
     <path fill="rgb(98,98,98)" stroke="none" d="M 11865,6744 L 11865,4684 12232,4472 12232,7272 10171,8462 10171,6744 11865,6744 Z M 11845,6724 L 10171,6724 10171,5662 11845,4695 11845,6724 Z"/>
     <path fill="rgb(99,99,99)" stroke="none" d="M 11845,6724 L 11845,4695 12232,4472 12232,7272 10171,8462 10171,6724 11845,6724 Z M 11825,6704 L 10171,6704 10171,5662 11825,4707 11825,6704 Z"/>
     <path fill="rgb(100,100,100)" stroke="none" d="M 11825,6704 L 11825,4707 12232,4472 12232,7272 10171,8462 10171,6704 11825,6704 Z M 11806,6685 L 10171,6685 10171,5662 11806,4718 11806,6685 Z"/>
     <path fill="rgb(101,101,101)" stroke="none" d="M 11806,6685 L 11806,4718 12232,4472 12232,7272 10171,8462 10171,6685 11806,6685 Z M 11786,6665 L 10171,6665 10171,5662 11786,4730 11786,6665 Z"/>
     <path fill="rgb(102,102,102)" stroke="none" d="M 11786,6665 L 11786,4730 12232,4472 12232,7272 10171,8462 10171,6665 11786,6665 Z M 11767,6646 L 10171,6646 10171,5662 11767,4740 11767,6646 Z"/>
     <path fill="rgb(103,103,103)" stroke="none" d="M 11767,6646 L 11767,4740 12232,4472 12232,7272 10171,8462 10171,6646 11767,6646 Z M 11747,6626 L 10171,6626 10171,5662 11747,4752 11747,6626 Z"/>
     <path fill="rgb(104,104,104)" stroke="none" d="M 11747,6626 L 11747,4752 12232,4472 12232,7272 10171,8462 10171,6626 11747,6626 Z M 11728,6607 L 10171,6607 10171,5662 11728,4763 11728,6607 Z"/>
     <path fill="rgb(105,105,105)" stroke="none" d="M 11728,6607 L 11728,4763 12232,4472 12232,7272 10171,8462 10171,6607 11728,6607 Z M 11708,6587 L 10171,6587 10171,5662 11708,4775 11708,6587 Z"/>
     <path fill="rgb(106,106,106)" stroke="none" d="M 11708,6587 L 11708,4775 12232,4472 12232,7272 10171,8462 10171,6587 11708,6587 Z M 11688,6567 L 10171,6567 10171,5662 11688,4786 11688,6567 Z"/>
     <path fill="rgb(107,107,107)" stroke="none" d="M 11688,6567 L 11688,4786 12232,4472 12232,7272 10171,8462 10171,6567 11688,6567 Z M 11669,6548 L 10171,6548 10171,5662 11669,4797 11669,6548 Z"/>
     <path fill="rgb(108,108,108)" stroke="none" d="M 11669,6548 L 11669,4797 12232,4472 12232,7272 10171,8462 10171,6548 11669,6548 Z M 11649,6528 L 10171,6528 10171,5662 11649,4809 11649,6528 Z"/>
     <path fill="rgb(109,109,109)" stroke="none" d="M 11649,6528 L 11649,4809 12232,4472 12232,7272 10171,8462 10171,6528 11649,6528 Z M 11630,4826 L 11630,6509 10171,6509 10171,5662 11619,4826 11630,4826 Z"/>
     <path fill="rgb(110,110,110)" stroke="none" d="M 11630,6509 L 11630,4826 11619,4826 12232,4472 12232,7272 10171,8462 10171,6509 11630,6509 Z M 11610,4846 L 11610,6489 10171,6489 10171,5662 11584,4846 11610,4846 Z"/>
     <path fill="rgb(111,111,111)" stroke="none" d="M 11610,6489 L 11610,4846 11584,4846 12232,4472 12232,7272 10171,8462 10171,6489 11610,6489 Z M 11591,4865 L 11591,6470 10171,6470 10171,5662 11551,4865 11591,4865 Z"/>
     <path fill="rgb(112,112,112)" stroke="none" d="M 11591,6470 L 11591,4865 11551,4865 12232,4472 12232,7272 10171,8462 10171,6470 11591,6470 Z M 11571,4885 L 11571,6450 10171,6450 10171,5662 11517,4885 11571,4885 Z"/>
     <path fill="rgb(113,113,113)" stroke="none" d="M 11571,6450 L 11571,4885 11517,4885 12232,4472 12232,7272 10171,8462 10171,6450 11571,6450 Z M 11551,4905 L 11551,6430 10171,6430 10171,5662 11482,4905 11551,4905 Z"/>
     <path fill="rgb(114,114,114)" stroke="none" d="M 11551,6430 L 11551,4905 11482,4905 12232,4472 12232,7272 10171,8462 10171,6430 11551,6430 Z M 11532,4924 L 11532,6411 10171,6411 10171,5662 11449,4924 11532,4924 Z"/>
     <path fill="rgb(115,115,115)" stroke="none" d="M 11532,6411 L 11532,4924 11449,4924 12232,4472 12232,7272 10171,8462 10171,6411 11532,6411 Z M 11512,4944 L 11512,6391 10171,6391 10171,5662 11415,4944 11512,4944 Z"/>
     <path fill="rgb(116,116,116)" stroke="none" d="M 11512,6391 L 11512,4944 11415,4944 12232,4472 12232,7272 10171,8462 10171,6391 11512,6391 Z M 11493,4963 L 11493,6372 10171,6372 10171,5662 11382,4963 11493,4963 Z"/>
     <path fill="rgb(117,117,117)" stroke="none" d="M 11493,6372 L 11493,4963 11382,4963 12232,4472 12232,7272 10171,8462 10171,6372 11493,6372 Z M 11473,4983 L 11473,6352 10171,6352 10171,5662 11347,4983 11473,4983 Z"/>
     <path fill="rgb(118,118,118)" stroke="none" d="M 11473,6352 L 11473,4983 11347,4983 12232,4472 12232,7272 10171,8462 10171,6352 11473,6352 Z M 11453,5003 L 11453,6332 10171,6332 10171,5662 11312,5003 11453,5003 Z"/>
     <path fill="rgb(119,119,119)" stroke="none" d="M 11453,6332 L 11453,5003 11312,5003 12232,4472 12232,7272 10171,8462 10171,6332 11453,6332 Z M 11434,5022 L 11434,6313 10171,6313 10171,5662 11279,5022 11434,5022 Z"/>
     <path fill="rgb(120,120,120)" stroke="none" d="M 11434,6313 L 11434,5022 11279,5022 12232,4472 12232,7272 10171,8462 10171,6313 11434,6313 Z M 11414,5042 L 11414,6293 10171,6293 10171,5662 11245,5042 11414,5042 Z"/>
     <path fill="rgb(121,121,121)" stroke="none" d="M 11414,6293 L 11414,5042 11245,5042 12232,4472 12232,7272 10171,8462 10171,6293 11414,6293 Z M 11395,5061 L 11395,6274 10182,6274 10182,5656 11212,5061 11395,5061 Z"/>
     <path fill="rgb(122,122,122)" stroke="none" d="M 10182,6274 L 11395,6274 11395,5061 11212,5061 12232,4472 12232,7272 10171,8462 10171,5662 10182,5656 10182,6274 Z M 11375,5081 L 11375,6254 10202,6254 10202,5644 11177,5081 11375,5081 Z"/>
     <path fill="rgb(123,123,123)" stroke="none" d="M 10202,6254 L 11375,6254 11375,5081 11177,5081 12232,4472 12232,7272 10171,8462 10171,5662 10202,5644 10202,6254 Z M 11356,5100 L 11356,6235 10221,6235 10221,5633 11144,5100 11356,5100 Z"/>
     <path fill="rgb(124,124,124)" stroke="none" d="M 10221,6235 L 11356,6235 11356,5100 11144,5100 12232,4472 12232,7272 10171,8462 10171,5662 10221,5633 10221,6235 Z M 11336,5120 L 11336,6215 10241,6215 10241,5622 11110,5120 11336,5120 Z"/>
     <path fill="rgb(125,125,125)" stroke="none" d="M 10241,6215 L 11336,6215 11336,5120 11110,5120 12232,4472 12232,7272 10171,8462 10171,5662 10241,5622 10241,6215 Z M 11316,5140 L 11316,6195 10261,6195 10261,5610 11075,5140 11316,5140 Z"/>
     <path fill="rgb(126,126,126)" stroke="none" d="M 10261,6195 L 11316,6195 11316,5140 11075,5140 12232,4472 12232,7272 10171,8462 10171,5662 10261,5610 10261,6195 Z M 11297,5159 L 11297,6176 10280,6176 10280,5599 11042,5159 11297,5159 Z"/>
     <path fill="rgb(127,127,127)" stroke="none" d="M 10280,6176 L 11297,6176 11297,5159 11042,5159 12232,4472 12232,7272 10171,8462 10171,5662 10280,5599 10280,6176 Z M 11277,5179 L 11277,6156 10300,6156 10300,5588 11008,5179 11277,5179 Z"/>
     <path fill="rgb(128,128,128)" stroke="none" d="M 10300,6156 L 11277,6156 11277,5179 11008,5179 12232,4472 12232,7272 10171,8462 10171,5662 10300,5588 10300,6156 Z M 11258,5198 L 11258,6137 10319,6137 10319,5577 10975,5198 11258,5198 Z"/>
     <path fill="rgb(129,129,129)" stroke="none" d="M 10319,6137 L 11258,6137 11258,5198 10975,5198 12232,4472 12232,7272 10171,8462 10171,5662 10319,5577 10319,6137 Z M 11238,5218 L 11238,6117 10339,6117 10339,5565 10940,5218 11238,5218 Z"/>
     <path fill="rgb(130,130,130)" stroke="none" d="M 10339,6117 L 11238,6117 11238,5218 10940,5218 12232,4472 12232,7272 10171,8462 10171,5662 10339,5565 10339,6117 Z M 11219,5237 L 11219,6098 10358,6098 10358,5554 10907,5237 11219,5237 Z"/>
     <path fill="rgb(131,131,131)" stroke="none" d="M 10358,6098 L 11219,6098 11219,5237 10907,5237 12232,4472 12232,7272 10171,8462 10171,5662 10358,5554 10358,6098 Z M 11199,5257 L 11199,6078 10378,6078 10378,5542 10872,5257 11199,5257 Z"/>
     <path fill="rgb(132,132,132)" stroke="none" d="M 10378,6078 L 11199,6078 11199,5257 10872,5257 12232,4472 12232,7272 10171,8462 10171,5662 10378,5542 10378,6078 Z M 11179,5277 L 11179,6058 10398,6058 10398,5531 10838,5277 11179,5277 Z"/>
     <path fill="rgb(133,133,133)" stroke="none" d="M 10398,6058 L 11179,6058 11179,5277 10838,5277 12232,4472 12232,7272 10171,8462 10171,5662 10398,5531 10398,6058 Z M 11160,5296 L 11160,6039 10417,6039 10417,5520 10805,5296 11160,5296 Z"/>
     <path fill="rgb(134,134,134)" stroke="none" d="M 10417,6039 L 11160,6039 11160,5296 10805,5296 12232,4472 12232,7272 10171,8462 10171,5662 10417,5520 10417,6039 Z M 11140,5316 L 11140,6019 10437,6019 10437,5508 10770,5316 11140,5316 Z"/>
     <path fill="rgb(135,135,135)" stroke="none" d="M 10437,6019 L 11140,6019 11140,5316 10770,5316 12232,4472 12232,7272 10171,8462 10171,5662 10437,5508 10437,6019 Z M 11121,5335 L 11121,6000 10456,6000 10456,5497 10737,5335 11121,5335 Z"/>
     <path fill="rgb(136,136,136)" stroke="none" d="M 10456,6000 L 11121,6000 11121,5335 10737,5335 12232,4472 12232,7272 10171,8462 10171,5662 10456,5497 10456,6000 Z M 11101,5355 L 11101,5980 10476,5980 10476,5486 10703,5355 11101,5355 Z"/>
     <path fill="rgb(137,137,137)" stroke="none" d="M 10476,5980 L 11101,5980 11101,5355 10703,5355 12232,4472 12232,7272 10171,8462 10171,5662 10476,5486 10476,5980 Z M 11082,5374 L 11082,5961 10495,5961 10495,5475 10670,5374 11082,5374 Z"/>
     <path fill="rgb(138,138,138)" stroke="none" d="M 10495,5961 L 11082,5961 11082,5374 10670,5374 12232,4472 12232,7272 10171,8462 10171,5662 10495,5475 10495,5961 Z M 11062,5394 L 11062,5941 10515,5941 10515,5463 10635,5394 11062,5394 Z"/>
     <path fill="rgb(139,139,139)" stroke="none" d="M 10515,5941 L 11062,5941 11062,5394 10635,5394 12232,4472 12232,7272 10171,8462 10171,5662 10515,5463 10515,5941 Z M 11042,5414 L 11042,5921 10535,5921 10535,5452 10601,5414 11042,5414 Z"/>
     <path fill="rgb(140,140,140)" stroke="none" d="M 10535,5921 L 11042,5921 11042,5414 10601,5414 12232,4472 12232,7272 10171,8462 10171,5662 10535,5452 10535,5921 Z M 11023,5433 L 11023,5902 10554,5902 10554,5441 10568,5433 11023,5433 Z"/>
     <path fill="rgb(141,141,141)" stroke="none" d="M 10554,5902 L 11023,5902 11023,5433 10568,5433 12232,4472 12232,7272 10171,8462 10171,5662 10554,5441 10554,5902 Z M 10574,5453 L 11003,5453 11003,5882 10574,5882 10574,5453 Z"/>
     <path fill="rgb(142,142,142)" stroke="none" d="M 10574,5453 L 10574,5882 11003,5882 11003,5453 10574,5453 Z M 10593,5472 L 10984,5472 10984,5863 10593,5863 10593,5472 Z M 10171,8462 L 10171,5662 12232,4472 12232,7272 10171,8462 Z"/>
     <path fill="rgb(143,143,143)" stroke="none" d="M 10593,5472 L 10593,5863 10984,5863 10984,5472 10593,5472 Z M 10613,5492 L 10964,5492 10964,5843 10613,5843 10613,5492 Z M 10171,8462 L 10171,5662 12232,4472 12232,7272 10171,8462 Z"/>
     <path fill="rgb(144,144,144)" stroke="none" d="M 10613,5492 L 10613,5843 10964,5843 10964,5492 10613,5492 Z M 10632,5511 L 10945,5511 10945,5824 10632,5824 10632,5511 Z M 10171,8462 L 10171,5662 12232,4472 12232,7272 10171,8462 Z"/>
     <path fill="rgb(145,145,145)" stroke="none" d="M 10632,5511 L 10632,5824 10945,5824 10945,5511 10632,5511 Z M 10652,5531 L 10925,5531 10925,5804 10652,5804 10652,5531 Z M 10171,8462 L 10171,5662 12232,4472 12232,7272 10171,8462 Z"/>
     <path fill="rgb(146,146,146)" stroke="none" d="M 10652,5531 L 10652,5804 10925,5804 10925,5531 10652,5531 Z M 10672,5551 L 10905,5551 10905,5784 10672,5784 10672,5551 Z M 10171,8462 L 10171,5662 12232,4472 12232,7272 10171,8462 Z"/>
     <path fill="rgb(147,147,147)" stroke="none" d="M 10672,5551 L 10672,5784 10905,5784 10905,5551 10672,5551 Z M 10691,5570 L 10886,5570 10886,5765 10691,5765 10691,5570 Z M 10171,8462 L 10171,5662 12232,4472 12232,7272 10171,8462 Z"/>
     <path fill="rgb(148,148,148)" stroke="none" d="M 10691,5570 L 10691,5765 10886,5765 10886,5570 10691,5570 Z M 10711,5590 L 10866,5590 10866,5745 10711,5745 10711,5590 Z M 10171,8462 L 10171,5662 12232,4472 12232,7272 10171,8462 Z"/>
     <path fill="rgb(149,149,149)" stroke="none" d="M 10711,5590 L 10711,5745 10866,5745 10866,5590 10711,5590 Z M 10730,5609 L 10847,5609 10847,5726 10730,5726 10730,5609 Z M 10171,8462 L 10171,5662 12232,4472 12232,7272 10171,8462 Z"/>
     <path fill="rgb(150,150,150)" stroke="none" d="M 10730,5609 L 10730,5726 10847,5726 10847,5609 10730,5609 Z M 10750,5629 L 10827,5629 10827,5706 10750,5706 10750,5629 Z M 10171,8462 L 10171,5662 12232,4472 12232,7272 10171,8462 Z"/>
     <path fill="rgb(151,151,151)" stroke="none" d="M 10750,5629 L 10750,5706 10827,5706 10827,5629 10750,5629 Z M 10769,5648 L 10808,5648 10808,5687 10769,5687 10769,5648 Z M 10171,8462 L 10171,5662 12232,4472 12232,7272 10171,8462 Z"/>
     <path fill="rgb(153,153,153)" stroke="none" d="M 10769,5648 L 10769,5687 10808,5687 10808,5648 10769,5648 Z M 10171,8462 L 10171,5662 12232,4472 12232,7272 10171,8462 Z"/>
     <path fill="none" stroke="rgb(178,178,178)" id="Drawing_3_0" stroke-width="40" stroke-linejoin="round" d="M 10171,8462 L 10171,5662 12232,4472 12232,7272 10171,8462 Z"/>
    </g>
    <g>
     <defs>
      <linearGradient id="Gradient_851" gradientUnits="userSpaceOnUse" x1="10474" y1="3632" x2="10474" y2="5662">
       <stop offset="0.1" stop-color="rgb(51,51,51)"/>
       <stop offset="1" stop-color="rgb(153,153,153)"/>
      </linearGradient>
     </defs>
     <path fill="url(#Gradient_851)" stroke="rgb(178,178,178)" id="Drawing_4_0" stroke-width="40" stroke-linejoin="round" d="M 10171,5662 L 8716,4822 10777,3632 12232,4472 10171,5662 Z"/>
    </g>
    <g>
     <path fill="none" stroke="rgb(0,0,0)" id="Drawing_5_0" stroke-width="40" stroke-linejoin="round" d="M 8716,7622 L 8716,4822 10777,3632 12232,4472 12232,7272 10171,8462 8716,7622 Z"/>
    </g>
    <g>
     <path fill="none" stroke="rgb(178,178,178)" id="Drawing_6_0" stroke-width="40" stroke-linejoin="round" d="M 9928,7762 L 8958,7202"/>
    </g>
    <g>
     <path fill="none" stroke="rgb(178,178,178)" id="Drawing_7_0" stroke-width="40" stroke-linejoin="round" d="M 9928,8042 L 8958,7482"/>
    </g>
    <g>
     <path fill="none" stroke="rgb(178,178,178)" id="Drawing_8_0" stroke-width="40" stroke-linejoin="round" d="M 9928,7902 L 8958,7342"/>
    </g>
    <g>
     <path fill="none" stroke="rgb(178,178,178)" id="Drawing_9_0" stroke-width="40" stroke-linejoin="round" d="M 10049,6082 L 8837,5382 8837,5242"/>
    </g>
    <g>
     <path fill="none" stroke="rgb(102,102,102)" id="Drawing_10_0" stroke-width="40" stroke-linejoin="round" d="M 10049,6082 L 10049,5942 8858,5239"/>
    </g>
    <g>
     <path fill="rgb(57,181,74)" stroke="none" d="M 9286,6804 L 9286,6639 9428,6721 9428,6886 9286,6804 Z"/>
     <path fill="none" stroke="rgb(51,51,51)" id="Drawing_11_0" stroke-width="40" stroke-linejoin="round" d="M 9286,6804 L 9286,6639 9428,6721 9428,6886 9286,6804 Z"/>
    </g>
    <g>
     <path fill="none" stroke="rgb(178,178,178)" id="Drawing_12_0" stroke-width="40" stroke-linejoin="round" d="M 9928,7622 L 8958,7062"/>
    </g>
   </g>
   <g id="DrawingGroup_3">
    <g>
     <path fill="rgb(252,222,187)" stroke="none" d="M 11660,6722 L 11660,6082 12268,6434 12324,6338 12545,6466 12545,7233 11660,6722 Z"/>
     <path fill="none" stroke="rgb(251,201,142)" id="Drawing_13_0" stroke-width="40" stroke-linejoin="round" d="M 11660,6722 L 11660,6082 12268,6434 12324,6338 12545,6466 12545,7233 11660,6722 Z"/>
    </g>
    <g>
     <path fill="rgb(254,244,232)" stroke="none" d="M 11660,6722 L 11549,6146 12434,6658 12545,7233 11660,6722 Z"/>
     <path fill="none" stroke="rgb(251,201,142)" id="Drawing_14_0" stroke-width="40" stroke-linejoin="round" d="M 11660,6722 L 11549,6146 12434,6658 12545,7233 11660,6722 Z"/>
    </g>
    <g>
     <path fill="rgb(254,244,232)" stroke="none" d="M 11660,6722 L 11438,6242 12323,6754 12545,7233 11660,6722 Z"/>
     <path fill="none" stroke="rgb(251,201,142)" id="Drawing_15_0" stroke-width="40" stroke-linejoin="round" d="M 11660,6722 L 11438,6242 12323,6754 12545,7233 11660,6722 Z"/>
    </g>
    <g>
     <path fill="rgb(252,222,187)" stroke="none" d="M 11660,6722 L 11383,6370 12213,6818 12545,7233 11660,6722 Z"/>
     <path fill="none" stroke="rgb(251,201,142)" id="Drawing_16_0" stroke-width="40" stroke-linejoin="round" d="M 11660,6722 L 11383,6370 12213,6818 12545,7233 11660,6722 Z"/>
    </g>
    <g>
     <path fill="none" stroke="rgb(0,0,0)" id="Drawing_17_0" stroke-width="40" stroke-linejoin="round" d="M 11660,6210 L 11660,6082 12268,6434 12323,6338 12545,6466 12545,7233 11660,6722 11383,6370 11537,6450 11438,6242 11581,6326 11549,6146 11660,6210 Z"/>
    </g>
   </g>
   <g id="DrawingGroup_4">
    <g>
     <path fill="rgb(252,222,187)" stroke="none" d="M 12526,7544 L 12015,7618 12526,8283 12526,7544 Z"/>
     <path fill="none" stroke="rgb(255,255,255)" id="Drawing_18_0" stroke-width="40" stroke-linejoin="round" d="M 12526,7544 L 12015,7618 12526,8283 12526,7544 Z"/>
    </g>
    <g>
     <path fill="rgb(252,222,187)" stroke="none" d="M 11504,6953 L 12015,7618 11504,7692 11504,6953 Z"/>
     <path fill="none" stroke="rgb(255,255,255)" id="Drawing_19_0" stroke-width="40" stroke-linejoin="round" d="M 11504,6953 L 12015,7618 11504,7692 11504,6953 Z"/>
    </g>
    <g>
     <path fill="rgb(252,222,187)" stroke="none" d="M 12527,8283 L 12015,7544 11504,7692 12527,8283 Z"/>
     <path fill="none" stroke="rgb(251,201,142)" id="Drawing_20_0" stroke-width="40" stroke-linejoin="round" d="M 12527,8283 L 12015,7544 11504,7692 12527,8283 Z"/>
    </g>
    <g>
     <path fill="rgb(252,222,187)" stroke="none" d="M 12527,7544 L 12015,7692 11504,6953 12527,7544 Z"/>
     <path fill="none" stroke="rgb(251,201,142)" id="Drawing_21_0" stroke-width="40" stroke-linejoin="round" d="M 12527,7544 L 12015,7692 11504,6953 12527,7544 Z"/>
    </g>
    <g>
     <path fill="none" stroke="rgb(0,0,0)" id="Drawing_22_0" stroke-width="40" stroke-linejoin="round" d="M 11504,7692 L 11504,6953 12527,7544 12527,8283 11504,7692 Z"/>
    </g>
   </g>
   <g id="DrawingGroup_5">
    <g>
     <defs>
      <linearGradient id="Gradient_852" gradientUnits="userSpaceOnUse" x1="10692" y1="7732" x2="11627" y2="7734">
       <stop offset="0" stop-color="rgb(195,232,200)"/>
       <stop offset="0.5" stop-color="rgb(235,247,236)"/>
       <stop offset="1" stop-color="rgb(195,232,200)"/>
      </linearGradient>
     </defs>
     <path fill="url(#Gradient_852)" stroke="none" id="Drawing_23_0" d="M 10694,7260 L 10695,7250 10697,7240 10700,7229 10704,7219 10710,7209 10717,7199 10734,7180 10755,7161 10780,7143 10808,7126 10840,7111 10874,7096 10910,7083 10949,7071 10989,7062 11030,7054 11073,7048 11116,7044 11160,7043 11204,7044 11247,7048 11290,7054 11331,7062 11372,7071 11410,7083 11447,7096 11481,7111 11512,7126 11541,7143 11566,7161 11587,7180 11604,7199 11611,7209 11616,7219 11621,7229 11624,7240 11626,7250 11627,7260 11627,8206 11626,8216 11624,8226 11621,8237 11616,8247 11611,8257 11604,8267 11587,8286 11566,8305 11541,8323 11512,8340 11481,8356 11447,8371 11410,8384 11372,8395 11331,8405 11290,8413 11247,8419 11204,8423 11160,8424 11116,8423 11073,8419 11030,8413 10989,8405 10949,8395 10910,8384 10874,8371 10840,8356 10808,8340 10780,8323 10755,8305 10734,8286 10717,8267 10710,8257 10704,8247 10700,8237 10697,8226 10695,8216 10694,8206 10694,7260 Z"/>
     <path fill="none" stroke="rgb(0,0,0)" id="Drawing_23_1" stroke-width="40" stroke-linejoin="round" d="M 10694,7260 C 10694,7151 10927,7043 11160,7043 11393,7043 11627,7151 11627,7260 L 11627,8206 C 11627,8315 11393,8424 11160,8424 10927,8424 10694,8315 10694,8206 L 10694,7260 Z"/>
     <rect fill="none" stroke="none" x="10694" y="7260" width="934" height="218"/>
     <defs>
      <linearGradient id="Gradient_853" gradientUnits="userSpaceOnUse" x1="10693" y1="7367" x2="11626" y2="7369">
       <stop offset="0" stop-color="rgb(195,232,200)"/>
       <stop offset="0.5" stop-color="rgb(235,247,236)"/>
       <stop offset="1" stop-color="rgb(195,232,200)"/>
      </linearGradient>
     </defs>
     <path fill="url(#Gradient_853)" stroke="none" id="Drawing_23_2" d="M 10694,7260 L 10695,7270 10697,7280 10700,7290 10704,7300 10710,7310 10717,7320 10734,7339 10755,7358 10780,7376 10808,7393 10840,7409 10874,7424 10910,7437 10949,7448 10989,7458 11030,7466 11073,7472 11116,7476 11160,7477 11204,7476 11247,7472 11290,7466 11331,7458 11372,7448 11410,7437 11447,7424 11481,7409 11512,7393 11541,7376 11566,7358 11587,7339 11604,7320 11611,7310 11616,7300 11621,7290 11624,7280 11626,7270 11627,7260 10694,7260 Z"/>
     <path fill="none" stroke="rgb(0,0,0)" id="Drawing_23_3" stroke-width="40" stroke-linejoin="round" d="M 10694,7260 C 10694,7368 10927,7477 11160,7477 11393,7477 11627,7368 11627,7260"/>
     <rect fill="none" stroke="none" x="10694" y="7043" width="933" height="1381"/>
    </g>
    <g>
     <defs>
      <linearGradient id="Gradient_854" gradientUnits="userSpaceOnUse" x1="11160" y1="7042" x2="11160" y2="7479">
       <stop offset="0.1" stop-color="rgb(195,232,200)"/>
       <stop offset="1" stop-color="rgb(235,247,236)"/>
      </linearGradient>
     </defs>
     <path fill="url(#Gradient_854)" stroke="none" id="Drawing_24_0" d="M 11160,7042 L 11256,7046 11344,7059 11385,7068 11423,7078 11459,7091 11492,7105 11522,7120 11548,7137 11571,7154 11590,7174 11606,7194 11612,7204 11617,7215 11621,7226 11624,7237 11625,7248 11626,7260 11625,7272 11624,7283 11621,7294 11617,7305 11612,7316 11606,7326 11590,7347 11571,7366 11548,7384 11522,7401 11492,7416 11459,7430 11423,7442 11385,7453 11344,7462 11256,7475 11160,7479 11064,7475 10976,7462 10935,7453 10897,7442 10861,7430 10828,7416 10798,7401 10772,7384 10749,7366 10730,7347 10714,7326 10708,7316 10703,7305 10699,7294 10696,7283 10695,7272 10694,7260 10695,7248 10696,7237 10699,7226 10703,7215 10708,7204 10714,7194 10730,7174 10749,7154 10772,7137 10798,7120 10828,7105 10861,7091 10897,7078 10935,7068 10976,7059 11064,7046 11160,7042 Z"/>
     <path fill="none" stroke="rgb(0,0,0)" id="Drawing_24_1" stroke-width="40" stroke-linejoin="round" d="M 11160,7042 C 11424,7042 11626,7136 11626,7260 11626,7384 11424,7479 11160,7479 10896,7479 10694,7384 10694,7260 10694,7136 10896,7042 11160,7042 Z"/>
     <rect fill="none" stroke="none" x="10694" y="7043" width="933" height="438"/>
    </g>
   </g>
   <g id="DrawingGroup_6">
    <g>
     <path fill="rgb(0,115,188)" stroke="none" d="M 11461,7091 L 10747,7091 10740,7081 10715,7039 10694,6995 10677,6948 10665,6899 10658,6847 10655,6794 10658,6741 10665,6690 10677,6640 10694,6593 10715,6549 10740,6507 10769,6468 10802,6433 10838,6400 10877,6371 10919,6347 10963,6326 11011,6309 11060,6297 11112,6290 11165,6287 11218,6290 11270,6297 11319,6309 11367,6326 11412,6347 11454,6371 11461,6376 11461,7091 Z"/>
     <path fill="rgb(2,116,188)" stroke="none" d="M 11461,7091 L 11461,6376 11493,6400 11529,6433 11562,6468 11591,6507 11616,6549 11637,6593 11654,6640 11666,6690 11673,6741 11676,6794 11673,6847 11666,6899 11654,6948 11637,6995 11616,7039 11591,7081 11562,7120 11529,7156 11493,7188 11454,7217 11412,7242 11367,7263 11319,7280 11270,7292 11218,7299 11165,7302 11112,7299 11060,7292 11011,7280 10963,7263 10919,7242 10877,7217 10838,7188 10802,7156 10769,7120 10747,7091 11461,7091 Z M 11451,7081 L 10740,7081 10715,7039 10694,6995 10677,6948 10665,6899 10658,6847 10655,6794 10658,6741 10665,6690 10677,6640 10694,6593 10715,6549 10740,6507 10769,6468 10802,6433 10838,6400 10877,6371 10919,6347 10963,6326 11011,6309 11060,6297 11112,6290 11165,6287 11218,6290 11270,6297 11319,6309 11367,6326 11412,6347 11451,6369 11451,7081 Z"/>
     <path fill="rgb(4,117,189)" stroke="none" d="M 11451,7081 L 11451,6369 11454,6371 11493,6400 11529,6433 11562,6468 11591,6507 11616,6549 11637,6593 11654,6640 11666,6690 11673,6741 11676,6794 11673,6847 11666,6899 11654,6948 11637,6995 11616,7039 11591,7081 11562,7120 11529,7156 11493,7188 11454,7217 11412,7242 11367,7263 11319,7280 11270,7292 11218,7299 11165,7302 11112,7299 11060,7292 11011,7280 10963,7263 10919,7242 10877,7217 10838,7188 10802,7156 10769,7120 10740,7081 11451,7081 Z M 11441,7071 L 10734,7071 10715,7039 10694,6995 10677,6948 10665,6899 10658,6847 10655,6794 10658,6741 10665,6690 10677,6640 10694,6593 10715,6549 10740,6507 10769,6468 10802,6433 10838,6400 10877,6371 10919,6347 10963,6326 11011,6309 11060,6297 11112,6290 11165,6287 11218,6290 11270,6297 11319,6309 11367,6326 11412,6347 11441,6364 11441,7071 Z"/>
     <path fill="rgb(7,119,189)" stroke="none" d="M 11441,7071 L 11441,6364 11454,6371 11493,6400 11529,6433 11562,6468 11591,6507 11616,6549 11637,6593 11654,6640 11666,6690 11673,6741 11676,6794 11673,6847 11666,6899 11654,6948 11637,6995 11616,7039 11591,7081 11562,7120 11529,7156 11493,7188 11454,7217 11412,7242 11367,7263 11319,7280 11270,7292 11218,7299 11165,7302 11112,7299 11060,7292 11011,7280 10963,7263 10919,7242 10877,7217 10838,7188 10802,7156 10769,7120 10740,7081 10734,7071 11441,7071 Z M 11431,7061 L 10728,7061 10715,7039 10694,6995 10677,6948 10665,6899 10658,6847 10655,6794 10658,6741 10665,6690 10677,6640 10694,6593 10715,6549 10740,6507 10769,6468 10802,6433 10838,6400 10877,6371 10919,6347 10963,6326 11011,6309 11060,6297 11112,6290 11165,6287 11218,6290 11270,6297 11319,6309 11367,6326 11412,6347 11431,6358 11431,7061 Z"/>
     <path fill="rgb(9,120,190)" stroke="none" d="M 11431,7061 L 11431,6358 11454,6371 11493,6400 11529,6433 11562,6468 11591,6507 11616,6549 11637,6593 11654,6640 11666,6690 11673,6741 11676,6794 11673,6847 11666,6899 11654,6948 11637,6995 11616,7039 11591,7081 11562,7120 11529,7156 11493,7188 11454,7217 11412,7242 11367,7263 11319,7280 11270,7292 11218,7299 11165,7302 11112,7299 11060,7292 11011,7280 10963,7263 10919,7242 10877,7217 10838,7188 10802,7156 10769,7120 10740,7081 10728,7061 11431,7061 Z M 11421,7051 L 10722,7051 10715,7039 10694,6995 10677,6948 10665,6899 10658,6847 10655,6794 10658,6741 10665,6690 10677,6640 10694,6593 10715,6549 10740,6507 10769,6468 10802,6433 10838,6400 10877,6371 10919,6347 10963,6326 11011,6309 11060,6297 11112,6290 11165,6287 11218,6290 11270,6297 11319,6309 11367,6326 11412,6347 11421,6352 11421,7051 Z"/>
     <path fill="rgb(12,121,191)" stroke="none" d="M 11421,7051 L 11421,6352 11454,6371 11493,6400 11529,6433 11562,6468 11591,6507 11616,6549 11637,6593 11654,6640 11666,6690 11673,6741 11676,6794 11673,6847 11666,6899 11654,6948 11637,6995 11616,7039 11591,7081 11562,7120 11529,7156 11493,7188 11454,7217 11412,7242 11367,7263 11319,7280 11270,7292 11218,7299 11165,7302 11112,7299 11060,7292 11011,7280 10963,7263 10919,7242 10877,7217 10838,7188 10802,7156 10769,7120 10740,7081 10722,7051 11421,7051 Z M 11411,7041 L 10716,7041 10715,7039 10694,6995 10677,6948 10665,6899 10658,6847 10655,6794 10658,6741 10665,6690 10677,6640 10694,6593 10715,6549 10740,6507 10769,6468 10802,6433 10838,6400 10877,6371 10919,6347 10963,6326 11011,6309 11060,6297 11112,6290 11165,6287 11218,6290 11270,6297 11319,6309 11367,6326 11411,6347 11411,7041 Z"/>
     <path fill="rgb(14,123,191)" stroke="none" d="M 11411,7041 L 11411,6347 11412,6347 11454,6371 11493,6400 11529,6433 11562,6468 11591,6507 11616,6549 11637,6593 11654,6640 11666,6690 11673,6741 11676,6794 11673,6847 11666,6899 11654,6948 11637,6995 11616,7039 11591,7081 11562,7120 11529,7156 11493,7188 11454,7217 11412,7242 11367,7263 11319,7280 11270,7292 11218,7299 11165,7302 11112,7299 11060,7292 11011,7280 10963,7263 10919,7242 10877,7217 10838,7188 10802,7156 10769,7120 10740,7081 10716,7041 11411,7041 Z M 11401,7031 L 10711,7031 10694,6995 10677,6948 10665,6899 10658,6847 10655,6794 10658,6741 10665,6690 10677,6640 10694,6593 10715,6549 10740,6507 10769,6468 10802,6433 10838,6400 10877,6371 10919,6347 10963,6326 11011,6309 11060,6297 11112,6290 11165,6287 11218,6290 11270,6297 11319,6309 11367,6326 11401,6342 11401,7031 Z"/>
     <path fill="rgb(17,124,192)" stroke="none" d="M 11401,7031 L 11401,6342 11412,6347 11454,6371 11493,6400 11529,6433 11562,6468 11591,6507 11616,6549 11637,6593 11654,6640 11666,6690 11673,6741 11676,6794 11673,6847 11666,6899 11654,6948 11637,6995 11616,7039 11591,7081 11562,7120 11529,7156 11493,7188 11454,7217 11412,7242 11367,7263 11319,7280 11270,7292 11218,7299 11165,7302 11112,7299 11060,7292 11011,7280 10963,7263 10919,7242 10877,7217 10838,7188 10802,7156 10769,7120 10740,7081 10715,7039 10711,7031 11401,7031 Z M 11391,7021 L 10706,7021 10694,6995 10677,6948 10665,6899 10658,6847 10655,6794 10658,6741 10665,6690 10677,6640 10694,6593 10715,6549 10740,6507 10769,6468 10802,6433 10838,6400 10877,6371 10919,6347 10963,6326 11011,6309 11060,6297 11112,6290 11165,6287 11218,6290 11270,6297 11319,6309 11367,6326 11391,6337 11391,7021 Z"/>
     <path fill="rgb(19,125,193)" stroke="none" d="M 11391,7021 L 11391,6337 11412,6347 11454,6371 11493,6400 11529,6433 11562,6468 11591,6507 11616,6549 11637,6593 11654,6640 11666,6690 11673,6741 11676,6794 11673,6847 11666,6899 11654,6948 11637,6995 11616,7039 11591,7081 11562,7120 11529,7156 11493,7188 11454,7217 11412,7242 11367,7263 11319,7280 11270,7292 11218,7299 11165,7302 11112,7299 11060,7292 11011,7280 10963,7263 10919,7242 10877,7217 10838,7188 10802,7156 10769,7120 10740,7081 10715,7039 10706,7021 11391,7021 Z M 11381,7011 L 10702,7011 10694,6995 10677,6948 10665,6899 10658,6847 10655,6794 10658,6741 10665,6690 10677,6640 10694,6593 10715,6549 10740,6507 10769,6468 10802,6433 10838,6400 10877,6371 10919,6347 10963,6326 11011,6309 11060,6297 11112,6290 11165,6287 11218,6290 11270,6297 11319,6309 11367,6326 11381,6333 11381,7011 Z"/>
     <path fill="rgb(22,127,193)" stroke="none" d="M 11381,7011 L 11381,6333 11412,6347 11454,6371 11493,6400 11529,6433 11562,6468 11591,6507 11616,6549 11637,6593 11654,6640 11666,6690 11673,6741 11676,6794 11673,6847 11666,6899 11654,6948 11637,6995 11616,7039 11591,7081 11562,7120 11529,7156 11493,7188 11454,7217 11412,7242 11367,7263 11319,7280 11270,7292 11218,7299 11165,7302 11112,7299 11060,7292 11011,7280 10963,7263 10919,7242 10877,7217 10838,7188 10802,7156 10769,7120 10740,7081 10715,7039 10702,7011 11381,7011 Z M 11371,7001 L 10697,7001 10694,6995 10677,6948 10665,6899 10658,6847 10655,6794 10658,6741 10665,6690 10677,6640 10694,6593 10715,6549 10740,6507 10769,6468 10802,6433 10838,6400 10877,6371 10919,6347 10963,6326 11011,6309 11060,6297 11112,6290 11165,6287 11218,6290 11270,6297 11319,6309 11367,6326 11371,6328 11371,7001 Z"/>
     <path fill="rgb(24,128,194)" stroke="none" d="M 11371,7001 L 11371,6328 11412,6347 11454,6371 11493,6400 11529,6433 11562,6468 11591,6507 11616,6549 11637,6593 11654,6640 11666,6690 11673,6741 11676,6794 11673,6847 11666,6899 11654,6948 11637,6995 11616,7039 11591,7081 11562,7120 11529,7156 11493,7188 11454,7217 11412,7242 11367,7263 11319,7280 11270,7292 11218,7299 11165,7302 11112,7299 11060,7292 11011,7280 10963,7263 10919,7242 10877,7217 10838,7188 10802,7156 10769,7120 10740,7081 10715,7039 10697,7001 11371,7001 Z M 11361,6991 L 10693,6991 10677,6948 10665,6899 10658,6847 10655,6794 10658,6741 10665,6690 10677,6640 10694,6593 10715,6549 10740,6507 10769,6468 10802,6433 10838,6400 10877,6371 10919,6347 10963,6326 11011,6309 11060,6297 11112,6290 11165,6287 11218,6290 11270,6297 11319,6309 11361,6324 11361,6991 Z"/>
     <path fill="rgb(27,130,195)" stroke="none" d="M 11361,6991 L 11361,6324 11367,6326 11412,6347 11454,6371 11493,6400 11529,6433 11562,6468 11591,6507 11616,6549 11637,6593 11654,6640 11666,6690 11673,6741 11676,6794 11673,6847 11666,6899 11654,6948 11637,6995 11616,7039 11591,7081 11562,7120 11529,7156 11493,7188 11454,7217 11412,7242 11367,7263 11319,7280 11270,7292 11218,7299 11165,7302 11112,7299 11060,7292 11011,7280 10963,7263 10919,7242 10877,7217 10838,7188 10802,7156 10769,7120 10740,7081 10715,7039 10694,6995 10693,6991 11361,6991 Z M 11351,6981 L 10689,6981 10677,6948 10665,6899 10658,6847 10655,6794 10658,6741 10665,6690 10677,6640 10694,6593 10715,6549 10740,6507 10769,6468 10802,6433 10838,6400 10877,6371 10919,6347 10963,6326 11011,6309 11060,6297 11112,6290 11165,6287 11218,6290 11270,6297 11319,6309 11351,6320 11351,6981 Z"/>
     <path fill="rgb(29,131,195)" stroke="none" d="M 11351,6981 L 11351,6320 11367,6326 11412,6347 11454,6371 11493,6400 11529,6433 11562,6468 11591,6507 11616,6549 11637,6593 11654,6640 11666,6690 11673,6741 11676,6794 11673,6847 11666,6899 11654,6948 11637,6995 11616,7039 11591,7081 11562,7120 11529,7156 11493,7188 11454,7217 11412,7242 11367,7263 11319,7280 11270,7292 11218,7299 11165,7302 11112,7299 11060,7292 11011,7280 10963,7263 10919,7242 10877,7217 10838,7188 10802,7156 10769,7120 10740,7081 10715,7039 10694,6995 10689,6981 11351,6981 Z M 11341,6971 L 10685,6971 10677,6948 10665,6899 10658,6847 10655,6794 10658,6741 10665,6690 10677,6640 10694,6593 10715,6549 10740,6507 10769,6468 10802,6433 10838,6400 10877,6371 10919,6347 10963,6326 11011,6309 11060,6297 11112,6290 11165,6287 11218,6290 11270,6297 11319,6309 11341,6317 11341,6971 Z"/>
     <path fill="rgb(32,132,196)" stroke="none" d="M 11341,6971 L 11341,6317 11367,6326 11412,6347 11454,6371 11493,6400 11529,6433 11562,6468 11591,6507 11616,6549 11637,6593 11654,6640 11666,6690 11673,6741 11676,6794 11673,6847 11666,6899 11654,6948 11637,6995 11616,7039 11591,7081 11562,7120 11529,7156 11493,7188 11454,7217 11412,7242 11367,7263 11319,7280 11270,7292 11218,7299 11165,7302 11112,7299 11060,7292 11011,7280 10963,7263 10919,7242 10877,7217 10838,7188 10802,7156 10769,7120 10740,7081 10715,7039 10694,6995 10685,6971 11341,6971 Z M 11331,6961 L 10682,6961 10677,6948 10665,6899 10658,6847 10655,6794 10658,6741 10665,6690 10677,6640 10694,6593 10715,6549 10740,6507 10769,6468 10802,6433 10838,6400 10877,6371 10919,6347 10963,6326 11011,6309 11060,6297 11112,6290 11165,6287 11218,6290 11270,6297 11319,6309 11331,6313 11331,6961 Z"/>
     <path fill="rgb(34,134,197)" stroke="none" d="M 11331,6961 L 11331,6313 11367,6326 11412,6347 11454,6371 11493,6400 11529,6433 11562,6468 11591,6507 11616,6549 11637,6593 11654,6640 11666,6690 11673,6741 11676,6794 11673,6847 11666,6899 11654,6948 11637,6995 11616,7039 11591,7081 11562,7120 11529,7156 11493,7188 11454,7217 11412,7242 11367,7263 11319,7280 11270,7292 11218,7299 11165,7302 11112,7299 11060,7292 11011,7280 10963,7263 10919,7242 10877,7217 10838,7188 10802,7156 10769,7120 10740,7081 10715,7039 10694,6995 10682,6961 11331,6961 Z M 11321,6951 L 10678,6951 10677,6948 10665,6899 10658,6847 10655,6794 10658,6741 10665,6690 10677,6640 10694,6593 10715,6549 10740,6507 10769,6468 10802,6433 10838,6400 10877,6371 10919,6347 10963,6326 11011,6309 11060,6297 11112,6290 11165,6287 11218,6290 11270,6297 11319,6309 11321,6310 11321,6951 Z"/>
     <path fill="rgb(37,135,197)" stroke="none" d="M 11321,6951 L 11321,6310 11367,6326 11412,6347 11454,6371 11493,6400 11529,6433 11562,6468 11591,6507 11616,6549 11637,6593 11654,6640 11666,6690 11673,6741 11676,6794 11673,6847 11666,6899 11654,6948 11637,6995 11616,7039 11591,7081 11562,7120 11529,7156 11493,7188 11454,7217 11412,7242 11367,7263 11319,7280 11270,7292 11218,7299 11165,7302 11112,7299 11060,7292 11011,7280 10963,7263 10919,7242 10877,7217 10838,7188 10802,7156 10769,7120 10740,7081 10715,7039 10694,6995 10678,6951 11321,6951 Z M 11311,6941 L 10675,6941 10665,6899 10658,6847 10655,6794 10658,6741 10665,6690 10677,6640 10694,6593 10715,6549 10740,6507 10769,6468 10802,6433 10838,6400 10877,6371 10919,6347 10963,6326 11011,6309 11060,6297 11112,6290 11165,6287 11218,6290 11270,6297 11311,6307 11311,6941 Z"/>
     <path fill="rgb(39,136,198)" stroke="none" d="M 11311,6941 L 11311,6307 11319,6309 11367,6326 11412,6347 11454,6371 11493,6400 11529,6433 11562,6468 11591,6507 11616,6549 11637,6593 11654,6640 11666,6690 11673,6741 11676,6794 11673,6847 11666,6899 11654,6948 11637,6995 11616,7039 11591,7081 11562,7120 11529,7156 11493,7188 11454,7217 11412,7242 11367,7263 11319,7280 11270,7292 11218,7299 11165,7302 11112,7299 11060,7292 11011,7280 10963,7263 10919,7242 10877,7217 10838,7188 10802,7156 10769,7120 10740,7081 10715,7039 10694,6995 10677,6948 10675,6941 11311,6941 Z M 11301,6931 L 10673,6931 10665,6899 10658,6847 10655,6794 10658,6741 10665,6690 10677,6640 10694,6593 10715,6549 10740,6507 10769,6468 10802,6433 10838,6400 10877,6371 10919,6347 10963,6326 11011,6309 11060,6297 11112,6290 11165,6287 11218,6290 11270,6297 11301,6305 11301,6931 Z"/>
     <path fill="rgb(42,138,199)" stroke="none" d="M 11301,6931 L 11301,6305 11319,6309 11367,6326 11412,6347 11454,6371 11493,6400 11529,6433 11562,6468 11591,6507 11616,6549 11637,6593 11654,6640 11666,6690 11673,6741 11676,6794 11673,6847 11666,6899 11654,6948 11637,6995 11616,7039 11591,7081 11562,7120 11529,7156 11493,7188 11454,7217 11412,7242 11367,7263 11319,7280 11270,7292 11218,7299 11165,7302 11112,7299 11060,7292 11011,7280 10963,7263 10919,7242 10877,7217 10838,7188 10802,7156 10769,7120 10740,7081 10715,7039 10694,6995 10677,6948 10673,6931 11301,6931 Z M 11291,6921 L 10670,6921 10665,6899 10658,6847 10655,6794 10658,6741 10665,6690 10677,6640 10694,6593 10715,6549 10740,6507 10769,6468 10802,6433 10838,6400 10877,6371 10919,6347 10963,6326 11011,6309 11060,6297 11112,6290 11165,6287 11218,6290 11270,6297 11291,6302 11291,6921 Z"/>
     <path fill="rgb(44,139,199)" stroke="none" d="M 11291,6921 L 11291,6302 11319,6309 11367,6326 11412,6347 11454,6371 11493,6400 11529,6433 11562,6468 11591,6507 11616,6549 11637,6593 11654,6640 11666,6690 11673,6741 11676,6794 11673,6847 11666,6899 11654,6948 11637,6995 11616,7039 11591,7081 11562,7120 11529,7156 11493,7188 11454,7217 11412,7242 11367,7263 11319,7280 11270,7292 11218,7299 11165,7302 11112,7299 11060,7292 11011,7280 10963,7263 10919,7242 10877,7217 10838,7188 10802,7156 10769,7120 10740,7081 10715,7039 10694,6995 10677,6948 10670,6921 11291,6921 Z M 11281,6911 L 10668,6911 10665,6899 10658,6847 10655,6794 10658,6741 10665,6690 10677,6640 10694,6593 10715,6549 10740,6507 10769,6468 10802,6433 10838,6400 10877,6371 10919,6347 10963,6326 11011,6309 11060,6297 11112,6290 11165,6287 11218,6290 11270,6297 11281,6300 11281,6911 Z"/>
     <path fill="rgb(47,141,200)" stroke="none" d="M 11281,6911 L 11281,6300 11319,6309 11367,6326 11412,6347 11454,6371 11493,6400 11529,6433 11562,6468 11591,6507 11616,6549 11637,6593 11654,6640 11666,6690 11673,6741 11676,6794 11673,6847 11666,6899 11654,6948 11637,6995 11616,7039 11591,7081 11562,7120 11529,7156 11493,7188 11454,7217 11412,7242 11367,7263 11319,7280 11270,7292 11218,7299 11165,7302 11112,7299 11060,7292 11011,7280 10963,7263 10919,7242 10877,7217 10838,7188 10802,7156 10769,7120 10740,7081 10715,7039 10694,6995 10677,6948 10668,6911 11281,6911 Z M 11271,6901 L 10665,6901 10665,6899 10658,6847 10655,6794 10658,6741 10665,6690 10677,6640 10694,6593 10715,6549 10740,6507 10769,6468 10802,6433 10838,6400 10877,6371 10919,6347 10963,6326 11011,6309 11060,6297 11112,6290 11165,6287 11218,6290 11270,6297 11271,6297 11271,6901 Z"/>
     <path fill="rgb(49,142,200)" stroke="none" d="M 11271,6901 L 11271,6297 11319,6309 11367,6326 11412,6347 11454,6371 11493,6400 11529,6433 11562,6468 11591,6507 11616,6549 11637,6593 11654,6640 11666,6690 11673,6741 11676,6794 11673,6847 11666,6899 11654,6948 11637,6995 11616,7039 11591,7081 11562,7120 11529,7156 11493,7188 11454,7217 11412,7242 11367,7263 11319,7280 11270,7292 11218,7299 11165,7302 11112,7299 11060,7292 11011,7280 10963,7263 10919,7242 10877,7217 10838,7188 10802,7156 10769,7120 10740,7081 10715,7039 10694,6995 10677,6948 10665,6901 11271,6901 Z M 11200,6289 L 11218,6290 11261,6296 11261,6891 10664,6891 10659,6854 10659,6734 10665,6690 10677,6640 10694,6593 10715,6549 10740,6507 10769,6468 10802,6433 10838,6400 10877,6371 10919,6347 10963,6326 11011,6309 11060,6297 11112,6290 11130,6289 11200,6289 Z"/>
     <path fill="rgb(52,143,201)" stroke="none" d="M 10659,6854 L 10658,6847 10655,6794 10658,6741 10659,6734 10659,6854 Z M 11261,6891 L 11261,6296 11270,6297 11319,6309 11367,6326 11412,6347 11454,6371 11493,6400 11529,6433 11562,6468 11591,6507 11616,6549 11637,6593 11654,6640 11666,6690 11673,6741 11676,6794 11673,6847 11666,6899 11654,6948 11637,6995 11616,7039 11591,7081 11562,7120 11529,7156 11493,7188 11454,7217 11412,7242 11367,7263 11319,7280 11270,7292 11218,7299 11165,7302 11112,7299 11060,7292 11011,7280 10963,7263 10919,7242 10877,7217 10838,7188 10802,7156 10769,7120 10740,7081 10715,7039 10694,6995 10677,6948 10665,6899 10664,6891 11261,6891 Z M 11130,6289 L 11165,6287 11200,6289 11130,6289 Z M 11251,6299 L 11251,6881 10669,6881 10669,6673 10677,6640 10694,6593 10715,6549 10740,6507 10769,6468 10802,6433 10838,6400 10877,6371 10919,6347 10963,6326 11011,6309 11052,6299 11251,6299 Z"/>
     <path fill="rgb(54,145,202)" stroke="none" d="M 10669,6881 L 11251,6881 11251,6299 11052,6299 11060,6297 11112,6290 11165,6287 11218,6290 11270,6297 11319,6309 11367,6326 11412,6347 11454,6371 11493,6400 11529,6433 11562,6468 11591,6507 11616,6549 11637,6593 11654,6640 11666,6690 11673,6741 11676,6794 11673,6847 11666,6899 11654,6948 11637,6995 11616,7039 11591,7081 11562,7120 11529,7156 11493,7188 11454,7217 11412,7242 11367,7263 11319,7280 11270,7292 11218,7299 11165,7302 11112,7299 11060,7292 11011,7280 10963,7263 10919,7242 10877,7217 10838,7188 10802,7156 10769,7120 10740,7081 10715,7039 10694,6995 10677,6948 10665,6899 10658,6847 10655,6794 10658,6741 10665,6690 10669,6673 10669,6881 Z M 11241,6309 L 11241,6871 10679,6871 10679,6634 10694,6593 10715,6549 10740,6507 10769,6468 10802,6433 10838,6400 10877,6371 10919,6347 10963,6326 11011,6309 11241,6309 Z"/>
     <path fill="rgb(57,146,202)" stroke="none" d="M 10679,6871 L 11241,6871 11241,6309 11011,6309 11060,6297 11112,6290 11165,6287 11218,6290 11270,6297 11319,6309 11367,6326 11412,6347 11454,6371 11493,6400 11529,6433 11562,6468 11591,6507 11616,6549 11637,6593 11654,6640 11666,6690 11673,6741 11676,6794 11673,6847 11666,6899 11654,6948 11637,6995 11616,7039 11591,7081 11562,7120 11529,7156 11493,7188 11454,7217 11412,7242 11367,7263 11319,7280 11270,7292 11218,7299 11165,7302 11112,7299 11060,7292 11011,7280 10963,7263 10919,7242 10877,7217 10838,7188 10802,7156 10769,7120 10740,7081 10715,7039 10694,6995 10677,6948 10665,6899 10658,6847 10655,6794 10658,6741 10665,6690 10677,6640 10679,6634 10679,6871 Z M 11231,6319 L 11231,6861 10689,6861 10689,6607 10694,6593 10715,6549 10740,6507 10769,6468 10802,6433 10838,6400 10877,6371 10919,6347 10963,6326 10983,6319 11231,6319 Z"/>
     <path fill="rgb(59,147,203)" stroke="none" d="M 10689,6861 L 11231,6861 11231,6319 10983,6319 11011,6309 11060,6297 11112,6290 11165,6287 11218,6290 11270,6297 11319,6309 11367,6326 11412,6347 11454,6371 11493,6400 11529,6433 11562,6468 11591,6507 11616,6549 11637,6593 11654,6640 11666,6690 11673,6741 11676,6794 11673,6847 11666,6899 11654,6948 11637,6995 11616,7039 11591,7081 11562,7120 11529,7156 11493,7188 11454,7217 11412,7242 11367,7263 11319,7280 11270,7292 11218,7299 11165,7302 11112,7299 11060,7292 11011,7280 10963,7263 10919,7242 10877,7217 10838,7188 10802,7156 10769,7120 10740,7081 10715,7039 10694,6995 10677,6948 10665,6899 10658,6847 10655,6794 10658,6741 10665,6690 10677,6640 10689,6607 10689,6861 Z M 11221,6329 L 11221,6851 10699,6851 10699,6583 10715,6549 10740,6507 10769,6468 10802,6433 10838,6400 10877,6371 10919,6347 10957,6329 11221,6329 Z"/>
     <path fill="rgb(62,149,204)" stroke="none" d="M 10699,6851 L 11221,6851 11221,6329 10957,6329 10963,6326 11011,6309 11060,6297 11112,6290 11165,6287 11218,6290 11270,6297 11319,6309 11367,6326 11412,6347 11454,6371 11493,6400 11529,6433 11562,6468 11591,6507 11616,6549 11637,6593 11654,6640 11666,6690 11673,6741 11676,6794 11673,6847 11666,6899 11654,6948 11637,6995 11616,7039 11591,7081 11562,7120 11529,7156 11493,7188 11454,7217 11412,7242 11367,7263 11319,7280 11270,7292 11218,7299 11165,7302 11112,7299 11060,7292 11011,7280 10963,7263 10919,7242 10877,7217 10838,7188 10802,7156 10769,7120 10740,7081 10715,7039 10694,6995 10677,6948 10665,6899 10658,6847 10655,6794 10658,6741 10665,6690 10677,6640 10694,6593 10699,6583 10699,6851 Z M 11210,6340 L 11210,6840 10710,6840 10710,6559 10715,6549 10740,6507 10769,6468 10802,6433 10838,6400 10877,6371 10919,6347 10934,6340 11210,6340 Z"/>
     <path fill="rgb(64,150,204)" stroke="none" d="M 10710,6840 L 11210,6840 11210,6340 10934,6340 10963,6326 11011,6309 11060,6297 11112,6290 11165,6287 11218,6290 11270,6297 11319,6309 11367,6326 11412,6347 11454,6371 11493,6400 11529,6433 11562,6468 11591,6507 11616,6549 11637,6593 11654,6640 11666,6690 11673,6741 11676,6794 11673,6847 11666,6899 11654,6948 11637,6995 11616,7039 11591,7081 11562,7120 11529,7156 11493,7188 11454,7217 11412,7242 11367,7263 11319,7280 11270,7292 11218,7299 11165,7302 11112,7299 11060,7292 11011,7280 10963,7263 10919,7242 10877,7217 10838,7188 10802,7156 10769,7120 10740,7081 10715,7039 10694,6995 10677,6948 10665,6899 10658,6847 10655,6794 10658,6741 10665,6690 10677,6640 10694,6593 10710,6559 10710,6840 Z M 11200,6350 L 11200,6830 10720,6830 10720,6541 10740,6507 10769,6468 10802,6433 10838,6400 10877,6371 10914,6350 11200,6350 Z"/>
     <path fill="rgb(67,152,205)" stroke="none" d="M 10720,6830 L 11200,6830 11200,6350 10914,6350 10919,6347 10963,6326 11011,6309 11060,6297 11112,6290 11165,6287 11218,6290 11270,6297 11319,6309 11367,6326 11412,6347 11454,6371 11493,6400 11529,6433 11562,6468 11591,6507 11616,6549 11637,6593 11654,6640 11666,6690 11673,6741 11676,6794 11673,6847 11666,6899 11654,6948 11637,6995 11616,7039 11591,7081 11562,7120 11529,7156 11493,7188 11454,7217 11412,7242 11367,7263 11319,7280 11270,7292 11218,7299 11165,7302 11112,7299 11060,7292 11011,7280 10963,7263 10919,7242 10877,7217 10838,7188 10802,7156 10769,7120 10740,7081 10715,7039 10694,6995 10677,6948 10665,6899 10658,6847 10655,6794 10658,6741 10665,6690 10677,6640 10694,6593 10715,6549 10720,6541 10720,6830 Z M 11190,6360 L 11190,6820 10730,6820 10730,6524 10740,6507 10769,6468 10802,6433 10838,6400 10877,6371 10896,6360 11190,6360 Z"/>
     <path fill="rgb(69,153,206)" stroke="none" d="M 10730,6820 L 11190,6820 11190,6360 10896,6360 10919,6347 10963,6326 11011,6309 11060,6297 11112,6290 11165,6287 11218,6290 11270,6297 11319,6309 11367,6326 11412,6347 11454,6371 11493,6400 11529,6433 11562,6468 11591,6507 11616,6549 11637,6593 11654,6640 11666,6690 11673,6741 11676,6794 11673,6847 11666,6899 11654,6948 11637,6995 11616,7039 11591,7081 11562,7120 11529,7156 11493,7188 11454,7217 11412,7242 11367,7263 11319,7280 11270,7292 11218,7299 11165,7302 11112,7299 11060,7292 11011,7280 10963,7263 10919,7242 10877,7217 10838,7188 10802,7156 10769,7120 10740,7081 10715,7039 10694,6995 10677,6948 10665,6899 10658,6847 10655,6794 10658,6741 10665,6690 10677,6640 10694,6593 10715,6549 10730,6524 10730,6820 Z M 11180,6370 L 11180,6810 10740,6810 10740,6507 10769,6468 10802,6433 10838,6400 10877,6371 10879,6370 11180,6370 Z"/>
     <path fill="rgb(72,154,206)" stroke="none" d="M 10740,6810 L 11180,6810 11180,6370 10879,6370 10919,6347 10963,6326 11011,6309 11060,6297 11112,6290 11165,6287 11218,6290 11270,6297 11319,6309 11367,6326 11412,6347 11454,6371 11493,6400 11529,6433 11562,6468 11591,6507 11616,6549 11637,6593 11654,6640 11666,6690 11673,6741 11676,6794 11673,6847 11666,6899 11654,6948 11637,6995 11616,7039 11591,7081 11562,7120 11529,7156 11493,7188 11454,7217 11412,7242 11367,7263 11319,7280 11270,7292 11218,7299 11165,7302 11112,7299 11060,7292 11011,7280 10963,7263 10919,7242 10877,7217 10838,7188 10802,7156 10769,7120 10740,7081 10715,7039 10694,6995 10677,6948 10665,6899 10658,6847 10655,6794 10658,6741 10665,6690 10677,6640 10694,6593 10715,6549 10740,6507 10740,6810 Z M 11170,6380 L 11170,6800 10750,6800 10750,6494 10769,6468 10802,6433 10838,6400 10865,6380 11170,6380 Z"/>
     <path fill="rgb(74,156,207)" stroke="none" d="M 10750,6800 L 11170,6800 11170,6380 10865,6380 10877,6371 10919,6347 10963,6326 11011,6309 11060,6297 11112,6290 11165,6287 11218,6290 11270,6297 11319,6309 11367,6326 11412,6347 11454,6371 11493,6400 11529,6433 11562,6468 11591,6507 11616,6549 11637,6593 11654,6640 11666,6690 11673,6741 11676,6794 11673,6847 11666,6899 11654,6948 11637,6995 11616,7039 11591,7081 11562,7120 11529,7156 11493,7188 11454,7217 11412,7242 11367,7263 11319,7280 11270,7292 11218,7299 11165,7302 11112,7299 11060,7292 11011,7280 10963,7263 10919,7242 10877,7217 10838,7188 10802,7156 10769,7120 10740,7081 10715,7039 10694,6995 10677,6948 10665,6899 10658,6847 10655,6794 10658,6741 10665,6690 10677,6640 10694,6593 10715,6549 10740,6507 10750,6494 10750,6800 Z M 11160,6390 L 11160,6790 10760,6790 10760,6480 10769,6468 10802,6433 10838,6400 10851,6390 11160,6390 Z"/>
     <path fill="rgb(77,157,208)" stroke="none" d="M 10760,6790 L 11160,6790 11160,6390 10851,6390 10877,6371 10919,6347 10963,6326 11011,6309 11060,6297 11112,6290 11165,6287 11218,6290 11270,6297 11319,6309 11367,6326 11412,6347 11454,6371 11493,6400 11529,6433 11562,6468 11591,6507 11616,6549 11637,6593 11654,6640 11666,6690 11673,6741 11676,6794 11673,6847 11666,6899 11654,6948 11637,6995 11616,7039 11591,7081 11562,7120 11529,7156 11493,7188 11454,7217 11412,7242 11367,7263 11319,7280 11270,7292 11218,7299 11165,7302 11112,7299 11060,7292 11011,7280 10963,7263 10919,7242 10877,7217 10838,7188 10802,7156 10769,7120 10740,7081 10715,7039 10694,6995 10677,6948 10665,6899 10658,6847 10655,6794 10658,6741 10665,6690 10677,6640 10694,6593 10715,6549 10740,6507 10760,6480 10760,6790 Z M 11150,6400 L 11150,6780 10770,6780 10770,6467 10802,6433 10838,6400 11150,6400 Z"/>
     <path fill="rgb(79,158,208)" stroke="none" d="M 10770,6780 L 11150,6780 11150,6400 10838,6400 10877,6371 10919,6347 10963,6326 11011,6309 11060,6297 11112,6290 11165,6287 11218,6290 11270,6297 11319,6309 11367,6326 11412,6347 11454,6371 11493,6400 11529,6433 11562,6468 11591,6507 11616,6549 11637,6593 11654,6640 11666,6690 11673,6741 11676,6794 11673,6847 11666,6899 11654,6948 11637,6995 11616,7039 11591,7081 11562,7120 11529,7156 11493,7188 11454,7217 11412,7242 11367,7263 11319,7280 11270,7292 11218,7299 11165,7302 11112,7299 11060,7292 11011,7280 10963,7263 10919,7242 10877,7217 10838,7188 10802,7156 10769,7120 10740,7081 10715,7039 10694,6995 10677,6948 10665,6899 10658,6847 10655,6794 10658,6741 10665,6690 10677,6640 10694,6593 10715,6549 10740,6507 10769,6468 10770,6467 10770,6780 Z M 11140,6410 L 11140,6770 10780,6770 10780,6456 10802,6433 10827,6410 11140,6410 Z"/>
     <path fill="rgb(82,160,209)" stroke="none" d="M 10780,6770 L 11140,6770 11140,6410 10827,6410 10838,6400 10877,6371 10919,6347 10963,6326 11011,6309 11060,6297 11112,6290 11165,6287 11218,6290 11270,6297 11319,6309 11367,6326 11412,6347 11454,6371 11493,6400 11529,6433 11562,6468 11591,6507 11616,6549 11637,6593 11654,6640 11666,6690 11673,6741 11676,6794 11673,6847 11666,6899 11654,6948 11637,6995 11616,7039 11591,7081 11562,7120 11529,7156 11493,7188 11454,7217 11412,7242 11367,7263 11319,7280 11270,7292 11218,7299 11165,7302 11112,7299 11060,7292 11011,7280 10963,7263 10919,7242 10877,7217 10838,7188 10802,7156 10769,7120 10740,7081 10715,7039 10694,6995 10677,6948 10665,6899 10658,6847 10655,6794 10658,6741 10665,6690 10677,6640 10694,6593 10715,6549 10740,6507 10769,6468 10780,6456 10780,6770 Z M 11130,6420 L 11130,6760 10790,6760 10790,6446 10802,6433 10816,6420 11130,6420 Z"/>
     <path fill="rgb(84,161,210)" stroke="none" d="M 10790,6760 L 11130,6760 11130,6420 10816,6420 10838,6400 10877,6371 10919,6347 10963,6326 11011,6309 11060,6297 11112,6290 11165,6287 11218,6290 11270,6297 11319,6309 11367,6326 11412,6347 11454,6371 11493,6400 11529,6433 11562,6468 11591,6507 11616,6549 11637,6593 11654,6640 11666,6690 11673,6741 11676,6794 11673,6847 11666,6899 11654,6948 11637,6995 11616,7039 11591,7081 11562,7120 11529,7156 11493,7188 11454,7217 11412,7242 11367,7263 11319,7280 11270,7292 11218,7299 11165,7302 11112,7299 11060,7292 11011,7280 10963,7263 10919,7242 10877,7217 10838,7188 10802,7156 10769,7120 10740,7081 10715,7039 10694,6995 10677,6948 10665,6899 10658,6847 10655,6794 10658,6741 10665,6690 10677,6640 10694,6593 10715,6549 10740,6507 10769,6468 10790,6446 10790,6760 Z M 11120,6430 L 11120,6750 10800,6750 10800,6435 10802,6433 10805,6430 11120,6430 Z"/>
     <path fill="rgb(87,163,210)" stroke="none" d="M 10800,6750 L 11120,6750 11120,6430 10805,6430 10838,6400 10877,6371 10919,6347 10963,6326 11011,6309 11060,6297 11112,6290 11165,6287 11218,6290 11270,6297 11319,6309 11367,6326 11412,6347 11454,6371 11493,6400 11529,6433 11562,6468 11591,6507 11616,6549 11637,6593 11654,6640 11666,6690 11673,6741 11676,6794 11673,6847 11666,6899 11654,6948 11637,6995 11616,7039 11591,7081 11562,7120 11529,7156 11493,7188 11454,7217 11412,7242 11367,7263 11319,7280 11270,7292 11218,7299 11165,7302 11112,7299 11060,7292 11011,7280 10963,7263 10919,7242 10877,7217 10838,7188 10802,7156 10769,7120 10740,7081 10715,7039 10694,6995 10677,6948 10665,6899 10658,6847 10655,6794 10658,6741 10665,6690 10677,6640 10694,6593 10715,6549 10740,6507 10769,6468 10800,6435 10800,6750 Z M 10810,6440 L 11110,6440 11110,6740 10810,6740 10810,6440 Z"/>
     <path fill="rgb(89,164,211)" stroke="none" d="M 10810,6440 L 10810,6740 11110,6740 11110,6440 10810,6440 Z M 10820,6450 L 11100,6450 11100,6730 10820,6730 10820,6450 Z M 11165,6287 L 11218,6290 11270,6297 11319,6309 11367,6326 11412,6347 11454,6371 11493,6400 11529,6433 11562,6468 11591,6507 11616,6549 11637,6593 11654,6640 11666,6690 11673,6741 11676,6794 11673,6847 11666,6899 11654,6948 11637,6995 11616,7039 11591,7081 11562,7120 11529,7156 11493,7188 11454,7217 11412,7242 11367,7263 11319,7280 11270,7292 11218,7299 11165,7302 11112,7299 11060,7292 11011,7280 10963,7263 10919,7242 10877,7217 10838,7188 10802,7156 10769,7120 10740,7081 10715,7039 10694,6995 10677,6948 10665,6899 10658,6847 10655,6794 10658,6741 10665,6690 10677,6640 10694,6593 10715,6549 10740,6507 10769,6468 10802,6433 10838,6400 10877,6371 10919,6347 10963,6326 11011,6309 11060,6297 11112,6290 11165,6287 Z"/>
     <path fill="rgb(92,165,211)" stroke="none" d="M 10820,6450 L 10820,6730 11100,6730 11100,6450 10820,6450 Z M 10830,6460 L 11090,6460 11090,6720 10830,6720 10830,6460 Z M 11165,6287 L 11218,6290 11270,6297 11319,6309 11367,6326 11412,6347 11454,6371 11493,6400 11529,6433 11562,6468 11591,6507 11616,6549 11637,6593 11654,6640 11666,6690 11673,6741 11676,6794 11673,6847 11666,6899 11654,6948 11637,6995 11616,7039 11591,7081 11562,7120 11529,7156 11493,7188 11454,7217 11412,7242 11367,7263 11319,7280 11270,7292 11218,7299 11165,7302 11112,7299 11060,7292 11011,7280 10963,7263 10919,7242 10877,7217 10838,7188 10802,7156 10769,7120 10740,7081 10715,7039 10694,6995 10677,6948 10665,6899 10658,6847 10655,6794 10658,6741 10665,6690 10677,6640 10694,6593 10715,6549 10740,6507 10769,6468 10802,6433 10838,6400 10877,6371 10919,6347 10963,6326 11011,6309 11060,6297 11112,6290 11165,6287 Z"/>
     <path fill="rgb(94,167,212)" stroke="none" d="M 10830,6460 L 10830,6720 11090,6720 11090,6460 10830,6460 Z M 10840,6470 L 11080,6470 11080,6710 10840,6710 10840,6470 Z M 11165,6287 L 11218,6290 11270,6297 11319,6309 11367,6326 11412,6347 11454,6371 11493,6400 11529,6433 11562,6468 11591,6507 11616,6549 11637,6593 11654,6640 11666,6690 11673,6741 11676,6794 11673,6847 11666,6899 11654,6948 11637,6995 11616,7039 11591,7081 11562,7120 11529,7156 11493,7188 11454,7217 11412,7242 11367,7263 11319,7280 11270,7292 11218,7299 11165,7302 11112,7299 11060,7292 11011,7280 10963,7263 10919,7242 10877,7217 10838,7188 10802,7156 10769,7120 10740,7081 10715,7039 10694,6995 10677,6948 10665,6899 10658,6847 10655,6794 10658,6741 10665,6690 10677,6640 10694,6593 10715,6549 10740,6507 10769,6468 10802,6433 10838,6400 10877,6371 10919,6347 10963,6326 11011,6309 11060,6297 11112,6290 11165,6287 Z"/>
     <path fill="rgb(97,168,213)" stroke="none" d="M 10840,6470 L 10840,6710 11080,6710 11080,6470 10840,6470 Z M 10850,6480 L 11070,6480 11070,6700 10850,6700 10850,6480 Z M 11165,6287 L 11218,6290 11270,6297 11319,6309 11367,6326 11412,6347 11454,6371 11493,6400 11529,6433 11562,6468 11591,6507 11616,6549 11637,6593 11654,6640 11666,6690 11673,6741 11676,6794 11673,6847 11666,6899 11654,6948 11637,6995 11616,7039 11591,7081 11562,7120 11529,7156 11493,7188 11454,7217 11412,7242 11367,7263 11319,7280 11270,7292 11218,7299 11165,7302 11112,7299 11060,7292 11011,7280 10963,7263 10919,7242 10877,7217 10838,7188 10802,7156 10769,7120 10740,7081 10715,7039 10694,6995 10677,6948 10665,6899 10658,6847 10655,6794 10658,6741 10665,6690 10677,6640 10694,6593 10715,6549 10740,6507 10769,6468 10802,6433 10838,6400 10877,6371 10919,6347 10963,6326 11011,6309 11060,6297 11112,6290 11165,6287 Z"/>
     <path fill="rgb(99,169,213)" stroke="none" d="M 10850,6480 L 10850,6700 11070,6700 11070,6480 10850,6480 Z M 10860,6490 L 11060,6490 11060,6690 10860,6690 10860,6490 Z M 11165,6287 L 11218,6290 11270,6297 11319,6309 11367,6326 11412,6347 11454,6371 11493,6400 11529,6433 11562,6468 11591,6507 11616,6549 11637,6593 11654,6640 11666,6690 11673,6741 11676,6794 11673,6847 11666,6899 11654,6948 11637,6995 11616,7039 11591,7081 11562,7120 11529,7156 11493,7188 11454,7217 11412,7242 11367,7263 11319,7280 11270,7292 11218,7299 11165,7302 11112,7299 11060,7292 11011,7280 10963,7263 10919,7242 10877,7217 10838,7188 10802,7156 10769,7120 10740,7081 10715,7039 10694,6995 10677,6948 10665,6899 10658,6847 10655,6794 10658,6741 10665,6690 10677,6640 10694,6593 10715,6549 10740,6507 10769,6468 10802,6433 10838,6400 10877,6371 10919,6347 10963,6326 11011,6309 11060,6297 11112,6290 11165,6287 Z"/>
     <path fill="rgb(102,171,214)" stroke="none" d="M 10860,6490 L 10860,6690 11060,6690 11060,6490 10860,6490 Z M 10870,6500 L 11050,6500 11050,6680 10870,6680 10870,6500 Z M 11165,6287 L 11218,6290 11270,6297 11319,6309 11367,6326 11412,6347 11454,6371 11493,6400 11529,6433 11562,6468 11591,6507 11616,6549 11637,6593 11654,6640 11666,6690 11673,6741 11676,6794 11673,6847 11666,6899 11654,6948 11637,6995 11616,7039 11591,7081 11562,7120 11529,7156 11493,7188 11454,7217 11412,7242 11367,7263 11319,7280 11270,7292 11218,7299 11165,7302 11112,7299 11060,7292 11011,7280 10963,7263 10919,7242 10877,7217 10838,7188 10802,7156 10769,7120 10740,7081 10715,7039 10694,6995 10677,6948 10665,6899 10658,6847 10655,6794 10658,6741 10665,6690 10677,6640 10694,6593 10715,6549 10740,6507 10769,6468 10802,6433 10838,6400 10877,6371 10919,6347 10963,6326 11011,6309 11060,6297 11112,6290 11165,6287 Z"/>
     <path fill="rgb(104,172,215)" stroke="none" d="M 10870,6500 L 10870,6680 11050,6680 11050,6500 10870,6500 Z M 10880,6510 L 11040,6510 11040,6670 10880,6670 10880,6510 Z M 11165,6287 L 11218,6290 11270,6297 11319,6309 11367,6326 11412,6347 11454,6371 11493,6400 11529,6433 11562,6468 11591,6507 11616,6549 11637,6593 11654,6640 11666,6690 11673,6741 11676,6794 11673,6847 11666,6899 11654,6948 11637,6995 11616,7039 11591,7081 11562,7120 11529,7156 11493,7188 11454,7217 11412,7242 11367,7263 11319,7280 11270,7292 11218,7299 11165,7302 11112,7299 11060,7292 11011,7280 10963,7263 10919,7242 10877,7217 10838,7188 10802,7156 10769,7120 10740,7081 10715,7039 10694,6995 10677,6948 10665,6899 10658,6847 10655,6794 10658,6741 10665,6690 10677,6640 10694,6593 10715,6549 10740,6507 10769,6468 10802,6433 10838,6400 10877,6371 10919,6347 10963,6326 11011,6309 11060,6297 11112,6290 11165,6287 Z"/>
     <path fill="rgb(107,174,215)" stroke="none" d="M 10880,6510 L 10880,6670 11040,6670 11040,6510 10880,6510 Z M 10890,6520 L 11030,6520 11030,6660 10890,6660 10890,6520 Z M 11165,6287 L 11218,6290 11270,6297 11319,6309 11367,6326 11412,6347 11454,6371 11493,6400 11529,6433 11562,6468 11591,6507 11616,6549 11637,6593 11654,6640 11666,6690 11673,6741 11676,6794 11673,6847 11666,6899 11654,6948 11637,6995 11616,7039 11591,7081 11562,7120 11529,7156 11493,7188 11454,7217 11412,7242 11367,7263 11319,7280 11270,7292 11218,7299 11165,7302 11112,7299 11060,7292 11011,7280 10963,7263 10919,7242 10877,7217 10838,7188 10802,7156 10769,7120 10740,7081 10715,7039 10694,6995 10677,6948 10665,6899 10658,6847 10655,6794 10658,6741 10665,6690 10677,6640 10694,6593 10715,6549 10740,6507 10769,6468 10802,6433 10838,6400 10877,6371 10919,6347 10963,6326 11011,6309 11060,6297 11112,6290 11165,6287 Z"/>
     <path fill="rgb(109,175,216)" stroke="none" d="M 10890,6520 L 10890,6660 11030,6660 11030,6520 10890,6520 Z M 10900,6530 L 11020,6530 11020,6650 10900,6650 10900,6530 Z M 11165,6287 L 11218,6290 11270,6297 11319,6309 11367,6326 11412,6347 11454,6371 11493,6400 11529,6433 11562,6468 11591,6507 11616,6549 11637,6593 11654,6640 11666,6690 11673,6741 11676,6794 11673,6847 11666,6899 11654,6948 11637,6995 11616,7039 11591,7081 11562,7120 11529,7156 11493,7188 11454,7217 11412,7242 11367,7263 11319,7280 11270,7292 11218,7299 11165,7302 11112,7299 11060,7292 11011,7280 10963,7263 10919,7242 10877,7217 10838,7188 10802,7156 10769,7120 10740,7081 10715,7039 10694,6995 10677,6948 10665,6899 10658,6847 10655,6794 10658,6741 10665,6690 10677,6640 10694,6593 10715,6549 10740,6507 10769,6468 10802,6433 10838,6400 10877,6371 10919,6347 10963,6326 11011,6309 11060,6297 11112,6290 11165,6287 Z"/>
     <path fill="rgb(112,176,217)" stroke="none" d="M 10900,6530 L 10900,6650 11020,6650 11020,6530 10900,6530 Z M 10910,6540 L 11010,6540 11010,6640 10910,6640 10910,6540 Z M 11165,6287 L 11218,6290 11270,6297 11319,6309 11367,6326 11412,6347 11454,6371 11493,6400 11529,6433 11562,6468 11591,6507 11616,6549 11637,6593 11654,6640 11666,6690 11673,6741 11676,6794 11673,6847 11666,6899 11654,6948 11637,6995 11616,7039 11591,7081 11562,7120 11529,7156 11493,7188 11454,7217 11412,7242 11367,7263 11319,7280 11270,7292 11218,7299 11165,7302 11112,7299 11060,7292 11011,7280 10963,7263 10919,7242 10877,7217 10838,7188 10802,7156 10769,7120 10740,7081 10715,7039 10694,6995 10677,6948 10665,6899 10658,6847 10655,6794 10658,6741 10665,6690 10677,6640 10694,6593 10715,6549 10740,6507 10769,6468 10802,6433 10838,6400 10877,6371 10919,6347 10963,6326 11011,6309 11060,6297 11112,6290 11165,6287 Z"/>
     <path fill="rgb(114,178,217)" stroke="none" d="M 10910,6540 L 10910,6640 11010,6640 11010,6540 10910,6540 Z M 10920,6550 L 11000,6550 11000,6630 10920,6630 10920,6550 Z M 11165,6287 L 11218,6290 11270,6297 11319,6309 11367,6326 11412,6347 11454,6371 11493,6400 11529,6433 11562,6468 11591,6507 11616,6549 11637,6593 11654,6640 11666,6690 11673,6741 11676,6794 11673,6847 11666,6899 11654,6948 11637,6995 11616,7039 11591,7081 11562,7120 11529,7156 11493,7188 11454,7217 11412,7242 11367,7263 11319,7280 11270,7292 11218,7299 11165,7302 11112,7299 11060,7292 11011,7280 10963,7263 10919,7242 10877,7217 10838,7188 10802,7156 10769,7120 10740,7081 10715,7039 10694,6995 10677,6948 10665,6899 10658,6847 10655,6794 10658,6741 10665,6690 10677,6640 10694,6593 10715,6549 10740,6507 10769,6468 10802,6433 10838,6400 10877,6371 10919,6347 10963,6326 11011,6309 11060,6297 11112,6290 11165,6287 Z"/>
     <path fill="rgb(117,179,218)" stroke="none" d="M 10920,6550 L 10920,6630 11000,6630 11000,6550 10920,6550 Z M 10930,6560 L 10990,6560 10990,6620 10930,6620 10930,6560 Z M 11165,6287 L 11218,6290 11270,6297 11319,6309 11367,6326 11412,6347 11454,6371 11493,6400 11529,6433 11562,6468 11591,6507 11616,6549 11637,6593 11654,6640 11666,6690 11673,6741 11676,6794 11673,6847 11666,6899 11654,6948 11637,6995 11616,7039 11591,7081 11562,7120 11529,7156 11493,7188 11454,7217 11412,7242 11367,7263 11319,7280 11270,7292 11218,7299 11165,7302 11112,7299 11060,7292 11011,7280 10963,7263 10919,7242 10877,7217 10838,7188 10802,7156 10769,7120 10740,7081 10715,7039 10694,6995 10677,6948 10665,6899 10658,6847 10655,6794 10658,6741 10665,6690 10677,6640 10694,6593 10715,6549 10740,6507 10769,6468 10802,6433 10838,6400 10877,6371 10919,6347 10963,6326 11011,6309 11060,6297 11112,6290 11165,6287 Z"/>
     <path fill="rgb(119,180,219)" stroke="none" d="M 10930,6560 L 10930,6620 10990,6620 10990,6560 10930,6560 Z M 10940,6570 L 10980,6570 10980,6610 10940,6610 10940,6570 Z M 11165,6287 L 11218,6290 11270,6297 11319,6309 11367,6326 11412,6347 11454,6371 11493,6400 11529,6433 11562,6468 11591,6507 11616,6549 11637,6593 11654,6640 11666,6690 11673,6741 11676,6794 11673,6847 11666,6899 11654,6948 11637,6995 11616,7039 11591,7081 11562,7120 11529,7156 11493,7188 11454,7217 11412,7242 11367,7263 11319,7280 11270,7292 11218,7299 11165,7302 11112,7299 11060,7292 11011,7280 10963,7263 10919,7242 10877,7217 10838,7188 10802,7156 10769,7120 10740,7081 10715,7039 10694,6995 10677,6948 10665,6899 10658,6847 10655,6794 10658,6741 10665,6690 10677,6640 10694,6593 10715,6549 10740,6507 10769,6468 10802,6433 10838,6400 10877,6371 10919,6347 10963,6326 11011,6309 11060,6297 11112,6290 11165,6287 Z"/>
     <path fill="rgb(122,182,219)" stroke="none" d="M 10940,6570 L 10940,6610 10980,6610 10980,6570 10940,6570 Z M 10950,6580 L 10970,6580 10970,6600 10950,6600 10950,6580 Z M 11165,6287 L 11218,6290 11270,6297 11319,6309 11367,6326 11412,6347 11454,6371 11493,6400 11529,6433 11562,6468 11591,6507 11616,6549 11637,6593 11654,6640 11666,6690 11673,6741 11676,6794 11673,6847 11666,6899 11654,6948 11637,6995 11616,7039 11591,7081 11562,7120 11529,7156 11493,7188 11454,7217 11412,7242 11367,7263 11319,7280 11270,7292 11218,7299 11165,7302 11112,7299 11060,7292 11011,7280 10963,7263 10919,7242 10877,7217 10838,7188 10802,7156 10769,7120 10740,7081 10715,7039 10694,6995 10677,6948 10665,6899 10658,6847 10655,6794 10658,6741 10665,6690 10677,6640 10694,6593 10715,6549 10740,6507 10769,6468 10802,6433 10838,6400 10877,6371 10919,6347 10963,6326 11011,6309 11060,6297 11112,6290 11165,6287 Z"/>
     <path fill="rgb(127,185,221)" stroke="none" d="M 10950,6580 L 10950,6600 10970,6600 10970,6580 10950,6580 Z M 11165,6287 L 11218,6290 11270,6297 11319,6309 11367,6326 11412,6347 11454,6371 11493,6400 11529,6433 11562,6468 11591,6507 11616,6549 11637,6593 11654,6640 11666,6690 11673,6741 11676,6794 11673,6847 11666,6899 11654,6948 11637,6995 11616,7039 11591,7081 11562,7120 11529,7156 11493,7188 11454,7217 11412,7242 11367,7263 11319,7280 11270,7292 11218,7299 11165,7302 11112,7299 11060,7292 11011,7280 10963,7263 10919,7242 10877,7217 10838,7188 10802,7156 10769,7120 10740,7081 10715,7039 10694,6995 10677,6948 10665,6899 10658,6847 10655,6794 10658,6741 10665,6690 10677,6640 10694,6593 10715,6549 10740,6507 10769,6468 10802,6433 10838,6400 10877,6371 10919,6347 10963,6326 11011,6309 11060,6297 11112,6290 11165,6287 Z"/>
     <path fill="none" stroke="rgb(0,0,0)" id="Drawing_25_0" stroke-width="40" stroke-linejoin="round" d="M 11165,6287 C 11454,6287 11676,6506 11676,6794 11676,7082 11454,7302 11165,7302 10876,7302 10655,7082 10655,6794 10655,6506 10876,6287 11165,6287 Z"/>
     <rect fill="none" stroke="none" x="10656" y="6288" width="1022" height="1016"/>
    </g>
    <g>
     <path fill="rgb(57,181,74)" stroke="none" d="M 10883,6386 L 10996,6386 11053,6353 11166,6320 11336,6386 11223,6386 11280,6484 11110,6647 11053,6680 10996,6713 11110,6779 11166,6844 11336,6844 11506,6942 11393,7139 11223,7270 11223,7074 11110,6942 11166,6877 11053,6779 10940,6746 10883,6615 10883,6386 Z"/>
     <path fill="none" stroke="rgb(128,128,128)" id="Drawing_26_0" stroke-width="40" stroke-linejoin="round" d="M 10883,6386 L 10996,6386 11053,6353 11166,6320 11336,6386 11223,6386 11280,6484 11110,6647 11053,6680 10996,6713 11110,6779 11166,6844 11336,6844 11506,6942 11393,7139 11223,7270 11223,7074 11110,6942 11166,6877 11053,6779 10940,6746 10883,6615 10883,6386 Z"/>
    </g>
    <g>
     <path fill="rgb(57,181,74)" stroke="none" d="M 11620,6812 L 11620,6779 11563,6681 11563,6582 11506,6451 11393,6386 C 11506,6321 11733,6746 11620,6812 Z"/>
     <path fill="none" stroke="rgb(128,128,128)" id="Drawing_27_0" stroke-width="40" stroke-linejoin="round" d="M 11620,6812 L 11620,6779 11563,6681 11563,6582 11506,6451 11393,6386 C 11506,6321 11733,6746 11620,6812 Z"/>
    </g>
    <g id="DrawingGroup_7">
     <g>
      <path fill="none" stroke="rgb(255,255,255)" id="Drawing_28_0" stroke-width="40" stroke-linejoin="round" d="M 11110,6942 L 11053,6713"/>
     </g>
     <g>
      <path fill="none" stroke="rgb(255,255,255)" id="Drawing_29_0" stroke-width="40" stroke-linejoin="round" d="M 11109,6943 L 11166,6779"/>
     </g>
     <g>
      <path fill="none" stroke="rgb(255,255,255)" id="Drawing_30_0" stroke-width="40" stroke-linejoin="round" d="M 11223,6943 L 11166,6779"/>
     </g>
     <g>
      <path fill="none" stroke="rgb(255,255,255)" id="Drawing_31_0" stroke-width="40" stroke-linejoin="round" d="M 11223,6942 L 11280,6713"/>
     </g>
    </g>
    <g id="DrawingGroup_8">
     <g>
      <path fill="none" stroke="rgb(255,255,255)" id="Drawing_32_0" stroke-width="40" stroke-linejoin="round" d="M 11450,6942 L 11393,6713"/>
     </g>
     <g>
      <path fill="none" stroke="rgb(255,255,255)" id="Drawing_33_0" stroke-width="40" stroke-linejoin="round" d="M 11449,6943 L 11506,6779"/>
     </g>
     <g>
      <path fill="none" stroke="rgb(255,255,255)" id="Drawing_34_0" stroke-width="40" stroke-linejoin="round" d="M 11563,6943 L 11506,6779"/>
     </g>
     <g>
      <path fill="none" stroke="rgb(255,255,255)" id="Drawing_35_0" stroke-width="40" stroke-linejoin="round" d="M 11563,6942 L 11620,6713"/>
     </g>
    </g>
    <g id="DrawingGroup_9">
     <g>
      <path fill="none" stroke="rgb(255,255,255)" id="Drawing_36_0" stroke-width="40" stroke-linejoin="round" d="M 10770,6942 L 10713,6713"/>
     </g>
     <g>
      <path fill="none" stroke="rgb(255,255,255)" id="Drawing_37_0" stroke-width="40" stroke-linejoin="round" d="M 10769,6943 L 10826,6779"/>
     </g>
     <g>
      <path fill="none" stroke="rgb(255,255,255)" id="Drawing_38_0" stroke-width="40" stroke-linejoin="round" d="M 10883,6943 L 10826,6779"/>
     </g>
     <g>
      <path fill="none" stroke="rgb(255,255,255)" id="Drawing_39_0" stroke-width="40" stroke-linejoin="round" d="M 10883,6942 L 10940,6713"/>
     </g>
    </g>
   </g>
  </g>
 </g>
</svg>