<?xml version="1.0" encoding="UTF-8"?>

<svg version="1.2" baseProfile="tiny" width="39.84mm" height="48.7mm" viewBox="1703 2705 3984 4870" preserveAspectRatio="xMidYMid" fill-rule="evenodd" stroke-width="28.222" stroke-linejoin="round" xmlns="http://www.w3.org/2000/svg" xmlns:xlink="http://www.w3.org/1999/xlink" xml:space="preserve">
 <g visibility="visible" id="Slide_1">
  <g id="DrawingGroup_1">
   <g>
    <path fill="rgb(221,221,221)" stroke="none" d="M 3178,7555 C 3888,7555 5001,7091 5481,6785 5961,6479 5481,6085 5239,6085 L 3178,7555 Z"/>
    <path fill="none" stroke="rgb(221,221,221)" id="Drawing_1_0" stroke-linejoin="round" d="M 3178,7555 C 3888,7555 5001,7091 5481,6785 5961,6479 5481,6085 5239,6085 L 3178,7555 Z"/>
   </g>
   <g id="DrawingGroup_2">
    <g>
     <defs>
      <linearGradient id="Gradient_845" gradientUnits="userSpaceOnUse" x1="1719" y1="5734" x2="3180" y2="5736">
       <stop offset="0.1" stop-color="rgb(179,179,179)"/>
       <stop offset="1" stop-color="rgb(229,229,229)"/>
      </linearGradient>
     </defs>
     <path fill="url(#Gradient_845)" stroke="rgb(255,255,255)" id="Drawing_2_0" stroke-width="40" stroke-linejoin="round" d="M 1723,6715 L 1723,3915 3178,4755 3178,7555 1723,6715 Z"/>
    </g>
    <g>
     <path fill="rgb(179,179,179)" stroke="none" d="M 3178,6717 L 3178,4755 5239,3565 5239,6365 4629,6717 3178,6717 Z"/>
     <path fill="rgb(180,180,180)" stroke="none" d="M 4629,6717 L 3178,7555 3178,6717 4629,6717 Z M 3178,6677 L 3178,4755 5239,3565 5239,6365 4699,6677 3178,6677 Z"/>
     <path fill="rgb(181,181,181)" stroke="none" d="M 4699,6677 L 3178,7555 3178,6677 4699,6677 Z M 3178,6637 L 3178,4755 5239,3565 5239,6365 4768,6637 3178,6637 Z"/>
     <path fill="rgb(182,182,182)" stroke="none" d="M 4768,6637 L 3178,7555 3178,6637 4768,6637 Z M 3178,6597 L 3178,4755 5239,3565 5239,6365 4837,6597 3178,6597 Z"/>
     <path fill="rgb(183,183,183)" stroke="none" d="M 4837,6597 L 3178,7555 3178,6597 4837,6597 Z M 3178,6557 L 3178,4755 5239,3565 5239,6365 4906,6557 3178,6557 Z"/>
     <path fill="rgb(184,184,184)" stroke="none" d="M 4906,6557 L 3178,7555 3178,6557 4906,6557 Z M 3178,6517 L 3178,4755 5239,3565 5239,6365 4976,6517 3178,6517 Z"/>
     <path fill="rgb(185,185,185)" stroke="none" d="M 4976,6517 L 3178,7555 3178,6517 4976,6517 Z M 3178,6477 L 3178,4755 5239,3565 5239,6365 5045,6477 3178,6477 Z"/>
     <path fill="rgb(186,186,186)" stroke="none" d="M 5045,6477 L 3178,7555 3178,6477 5045,6477 Z M 3178,6437 L 3178,4755 5239,3565 5239,6365 5114,6437 3178,6437 Z"/>
     <path fill="rgb(187,187,187)" stroke="none" d="M 5114,6437 L 3178,7555 3178,6437 5114,6437 Z M 3178,6397 L 3178,4755 5239,3565 5239,6365 5184,6397 3178,6397 Z"/>
     <path fill="rgb(188,188,188)" stroke="none" d="M 5184,6397 L 3178,7555 3178,6397 5184,6397 Z M 3178,6357 L 3178,4755 5239,3565 5239,6357 3178,6357 Z"/>
     <path fill="rgb(189,189,189)" stroke="none" d="M 5239,6357 L 5239,6365 3178,7555 3178,6357 5239,6357 Z M 3178,6317 L 3178,4755 5239,3565 5239,6317 3178,6317 Z"/>
     <path fill="rgb(190,190,190)" stroke="none" d="M 5239,6317 L 5239,6365 3178,7555 3178,6317 5239,6317 Z M 3178,6277 L 3178,4755 5239,3565 5239,6277 3178,6277 Z"/>
     <path fill="rgb(191,191,191)" stroke="none" d="M 5239,6277 L 5239,6365 3178,7555 3178,6277 5239,6277 Z M 3178,6237 L 3178,4755 5239,3565 5239,6237 3178,6237 Z"/>
     <path fill="rgb(192,192,192)" stroke="none" d="M 5239,6237 L 5239,6365 3178,7555 3178,6237 5239,6237 Z M 5232,6197 L 3178,6197 3178,4755 5232,3569 5232,6197 Z"/>
     <path fill="rgb(193,193,193)" stroke="none" d="M 5232,6197 L 5232,3569 5239,3565 5239,6365 3178,7555 3178,6197 5232,6197 Z M 5193,6158 L 3178,6158 3178,4755 5193,3592 5193,6158 Z"/>
     <path fill="rgb(194,194,194)" stroke="none" d="M 5193,6158 L 5193,3592 5239,3565 5239,6365 3178,7555 3178,6158 5193,6158 Z M 5153,6118 L 3178,6118 3178,4755 5153,3615 5153,6118 Z"/>
     <path fill="rgb(195,195,195)" stroke="none" d="M 5153,6118 L 5153,3615 5239,3565 5239,6365 3178,7555 3178,6118 5153,6118 Z M 5113,6078 L 3178,6078 3178,4755 5113,3638 5113,6078 Z"/>
     <path fill="rgb(196,196,196)" stroke="none" d="M 5113,6078 L 5113,3638 5239,3565 5239,6365 3178,7555 3178,6078 5113,6078 Z M 5073,6038 L 3178,6038 3178,4755 5073,3661 5073,6038 Z"/>
     <path fill="rgb(197,197,197)" stroke="none" d="M 5073,6038 L 5073,3661 5239,3565 5239,6365 3178,7555 3178,6038 5073,6038 Z M 5033,5998 L 3178,5998 3178,4755 5033,3684 5033,5998 Z"/>
     <path fill="rgb(198,198,198)" stroke="none" d="M 5033,5998 L 5033,3684 5239,3565 5239,6365 3178,7555 3178,5998 5033,5998 Z M 4993,5958 L 3178,5958 3178,4755 4993,3707 4993,5958 Z"/>
     <path fill="rgb(199,199,199)" stroke="none" d="M 4993,5958 L 4993,3707 5239,3565 5239,6365 3178,7555 3178,5958 4993,5958 Z M 4953,5918 L 3178,5918 3178,4755 4953,3730 4953,5918 Z"/>
     <path fill="rgb(200,200,200)" stroke="none" d="M 4953,5918 L 4953,3730 5239,3565 5239,6365 3178,7555 3178,5918 4953,5918 Z M 4913,5878 L 3178,5878 3178,4755 4913,3753 4913,5878 Z"/>
     <path fill="rgb(201,201,201)" stroke="none" d="M 4913,5878 L 4913,3753 5239,3565 5239,6365 3178,7555 3178,5878 4913,5878 Z M 4873,5838 L 3178,5838 3178,4755 4873,3776 4873,5838 Z"/>
     <path fill="rgb(202,202,202)" stroke="none" d="M 4873,5838 L 4873,3776 5239,3565 5239,6365 3178,7555 3178,5838 4873,5838 Z M 4833,5798 L 3178,5798 3178,4755 4833,3799 4833,5798 Z"/>
     <path fill="rgb(203,203,203)" stroke="none" d="M 4833,5798 L 4833,3799 5239,3565 5239,6365 3178,7555 3178,5798 4833,5798 Z M 4793,5758 L 3178,5758 3178,4755 4793,3823 4793,5758 Z"/>
     <path fill="rgb(204,204,204)" stroke="none" d="M 4793,5758 L 4793,3823 5239,3565 5239,6365 3178,7555 3178,5758 4793,5758 Z M 4753,5718 L 3178,5718 3178,4755 4753,3846 4753,5718 Z"/>
     <path fill="rgb(205,205,205)" stroke="none" d="M 4753,5718 L 4753,3846 5239,3565 5239,6365 3178,7555 3178,5718 4753,5718 Z M 4713,5678 L 3178,5678 3178,4755 4713,3869 4713,5678 Z"/>
     <path fill="rgb(206,206,206)" stroke="none" d="M 4713,5678 L 4713,3869 5239,3565 5239,6365 3178,7555 3178,5678 4713,5678 Z M 4673,5638 L 3178,5638 3178,4755 4673,3892 4673,5638 Z"/>
     <path fill="rgb(207,207,207)" stroke="none" d="M 4673,5638 L 4673,3892 5239,3565 5239,6365 3178,7555 3178,5638 4673,5638 Z M 4634,3922 L 4634,5599 3178,5599 3178,4755 4621,3922 4634,3922 Z"/>
     <path fill="rgb(208,208,208)" stroke="none" d="M 4634,5599 L 4634,3922 4621,3922 5239,3565 5239,6365 3178,7555 3178,5599 4634,5599 Z M 4594,3962 L 4594,5559 3178,5559 3178,4755 4551,3962 4594,3962 Z"/>
     <path fill="rgb(209,209,209)" stroke="none" d="M 4594,5559 L 4594,3962 4551,3962 5239,3565 5239,6365 3178,7555 3178,5559 4594,5559 Z M 4554,4002 L 4554,5519 3178,5519 3178,4755 4482,4002 4554,4002 Z"/>
     <path fill="rgb(210,210,210)" stroke="none" d="M 4554,5519 L 4554,4002 4482,4002 5239,3565 5239,6365 3178,7555 3178,5519 4554,5519 Z M 4514,4042 L 4514,5479 3178,5479 3178,4755 4413,4042 4514,4042 Z"/>
     <path fill="rgb(211,211,211)" stroke="none" d="M 4514,5479 L 4514,4042 4413,4042 5239,3565 5239,6365 3178,7555 3178,5479 4514,5479 Z M 4474,4082 L 4474,5439 3178,5439 3178,4755 4344,4082 4474,4082 Z"/>
     <path fill="rgb(212,212,212)" stroke="none" d="M 4474,5439 L 4474,4082 4344,4082 5239,3565 5239,6365 3178,7555 3178,5439 4474,5439 Z M 4434,4122 L 4434,5399 3178,5399 3178,4755 4274,4122 4434,4122 Z"/>
     <path fill="rgb(213,213,213)" stroke="none" d="M 4434,5399 L 4434,4122 4274,4122 5239,3565 5239,6365 3178,7555 3178,5399 4434,5399 Z M 4394,4162 L 4394,5359 3197,5359 3197,4744 4205,4162 4394,4162 Z"/>
     <path fill="rgb(214,214,214)" stroke="none" d="M 3197,5359 L 4394,5359 4394,4162 4205,4162 5239,3565 5239,6365 3178,7555 3178,4755 3197,4744 3197,5359 Z M 4354,4202 L 4354,5319 3237,5319 3237,4721 4136,4202 4354,4202 Z"/>
     <path fill="rgb(215,215,215)" stroke="none" d="M 3237,5319 L 4354,5319 4354,4202 4136,4202 5239,3565 5239,6365 3178,7555 3178,4755 3237,4721 3237,5319 Z M 4314,4242 L 4314,5279 3277,5279 3277,4698 4066,4242 4314,4242 Z"/>
     <path fill="rgb(216,216,216)" stroke="none" d="M 3277,5279 L 4314,5279 4314,4242 4066,4242 5239,3565 5239,6365 3178,7555 3178,4755 3277,4698 3277,5279 Z M 4274,4282 L 4274,5239 3317,5239 3317,4675 3997,4282 4274,4282 Z"/>
     <path fill="rgb(217,217,217)" stroke="none" d="M 3317,5239 L 4274,5239 4274,4282 3997,4282 5239,3565 5239,6365 3178,7555 3178,4755 3317,4675 3317,5239 Z M 4234,4322 L 4234,5199 3357,5199 3357,4652 3928,4322 4234,4322 Z"/>
     <path fill="rgb(218,218,218)" stroke="none" d="M 3357,5199 L 4234,5199 4234,4322 3928,4322 5239,3565 5239,6365 3178,7555 3178,4755 3357,4652 3357,5199 Z M 4194,4362 L 4194,5159 3397,5159 3397,4629 3859,4362 4194,4362 Z"/>
     <path fill="rgb(219,219,219)" stroke="none" d="M 3397,5159 L 4194,5159 4194,4362 3859,4362 5239,3565 5239,6365 3178,7555 3178,4755 3397,4629 3397,5159 Z M 4154,4402 L 4154,5119 3437,5119 3437,4605 3789,4402 4154,4402 Z"/>
     <path fill="rgb(220,220,220)" stroke="none" d="M 3437,5119 L 4154,5119 4154,4402 3789,4402 5239,3565 5239,6365 3178,7555 3178,4755 3437,4605 3437,5119 Z M 4114,4442 L 4114,5079 3477,5079 3477,4582 3720,4442 4114,4442 Z"/>
     <path fill="rgb(221,221,221)" stroke="none" d="M 3477,5079 L 4114,5079 4114,4442 3720,4442 5239,3565 5239,6365 3178,7555 3178,4755 3477,4582 3477,5079 Z M 4075,4481 L 4075,5040 3516,5040 3516,4560 3653,4481 4075,4481 Z"/>
     <path fill="rgb(222,222,222)" stroke="none" d="M 3516,5040 L 4075,5040 4075,4481 3653,4481 5239,3565 5239,6365 3178,7555 3178,4755 3516,4560 3516,5040 Z M 4035,4521 L 4035,5000 3556,5000 3556,4537 3583,4521 4035,4521 Z"/>
     <path fill="rgb(223,223,223)" stroke="none" d="M 3556,5000 L 4035,5000 4035,4521 3583,4521 5239,3565 5239,6365 3178,7555 3178,4755 3556,4537 3556,5000 Z M 3596,4561 L 3995,4561 3995,4960 3596,4960 3596,4561 Z"/>
     <path fill="rgb(224,224,224)" stroke="none" d="M 3596,4561 L 3596,4960 3995,4960 3995,4561 3596,4561 Z M 3636,4601 L 3955,4601 3955,4920 3636,4920 3636,4601 Z M 3178,7555 L 3178,4755 5239,3565 5239,6365 3178,7555 Z"/>
     <path fill="rgb(225,225,225)" stroke="none" d="M 3636,4601 L 3636,4920 3955,4920 3955,4601 3636,4601 Z M 3676,4641 L 3915,4641 3915,4880 3676,4880 3676,4641 Z M 3178,7555 L 3178,4755 5239,3565 5239,6365 3178,7555 Z"/>
     <path fill="rgb(226,226,226)" stroke="none" d="M 3676,4641 L 3676,4880 3915,4880 3915,4641 3676,4641 Z M 3716,4681 L 3875,4681 3875,4840 3716,4840 3716,4681 Z M 3178,7555 L 3178,4755 5239,3565 5239,6365 3178,7555 Z"/>
     <path fill="rgb(227,227,227)" stroke="none" d="M 3716,4681 L 3716,4840 3875,4840 3875,4681 3716,4681 Z M 3756,4721 L 3835,4721 3835,4800 3756,4800 3756,4721 Z M 3178,7555 L 3178,4755 5239,3565 5239,6365 3178,7555 Z"/>
     <path fill="rgb(229,229,229)" stroke="none" d="M 3756,4721 L 3756,4800 3835,4800 3835,4721 3756,4721 Z M 3178,7555 L 3178,4755 5239,3565 5239,6365 3178,7555 Z"/>
     <path fill="none" stroke="rgb(255,255,255)" id="Drawing_3_0" stroke-width="40" stroke-linejoin="round" d="M 3178,7555 L 3178,4755 5239,3565 5239,6365 3178,7555 Z"/>
    </g>
    <g>
     <defs>
      <linearGradient id="Gradient_846" gradientUnits="userSpaceOnUse" x1="3479" y1="4758" x2="3483" y2="2722">
       <stop offset="0.1" stop-color="rgb(179,179,179)"/>
       <stop offset="1" stop-color="rgb(229,229,229)"/>
      </linearGradient>
     </defs>
     <path fill="url(#Gradient_846)" stroke="rgb(255,255,255)" id="Drawing_4_0" stroke-width="40" stroke-linejoin="round" d="M 3178,4755 L 1723,3915 3784,2725 5239,3565 3178,4755 Z"/>
    </g>
    <g>
     <path fill="none" stroke="rgb(0,0,0)" id="Drawing_5_0" stroke-width="40" stroke-linejoin="round" d="M 1723,6715 L 1723,3915 3784,2725 5239,3565 5239,6365 3178,7555 1723,6715 Z"/>
    </g>
    <g>
     <path fill="none" stroke="rgb(128,128,128)" id="Drawing_6_0" stroke-width="40" stroke-linejoin="round" d="M 2935,6855 L 1965,6295"/>
    </g>
    <g>
     <path fill="none" stroke="rgb(128,128,128)" id="Drawing_7_0" stroke-width="40" stroke-linejoin="round" d="M 2935,7135 L 1965,6575"/>
    </g>
    <g>
     <path fill="none" stroke="rgb(128,128,128)" id="Drawing_8_0" stroke-width="40" stroke-linejoin="round" d="M 2935,6995 L 1965,6435"/>
    </g>
    <g>
     <path fill="none" stroke="rgb(255,255,255)" id="Drawing_9_0" stroke-width="40" stroke-linejoin="round" d="M 3056,5175 L 1844,4475 1844,4335"/>
    </g>
    <g>
     <path fill="none" stroke="rgb(128,128,128)" id="Drawing_10_0" stroke-width="40" stroke-linejoin="round" d="M 3056,5175 L 3056,5035 1865,4332"/>
    </g>
    <g>
     <path fill="rgb(57,181,74)" stroke="none" d="M 2293,5897 L 2293,5732 2435,5814 2435,5979 2293,5897 Z"/>
     <path fill="none" stroke="rgb(128,128,128)" id="Drawing_11_0" stroke-width="40" stroke-linejoin="round" d="M 2293,5897 L 2293,5732 2435,5814 2435,5979 2293,5897 Z"/>
    </g>
    <g>
     <path fill="none" stroke="rgb(128,128,128)" id="Drawing_12_0" stroke-width="40" stroke-linejoin="round" d="M 2935,6715 L 1965,6155"/>
    </g>
   </g>
   <g id="DrawingGroup_3">
    <g>
     <path fill="rgb(252,222,187)" stroke="none" d="M 4667,5815 L 4667,5175 5275,5527 5331,5431 5552,5559 5552,6326 4667,5815 Z"/>
     <path fill="none" stroke="rgb(251,201,142)" id="Drawing_13_0" stroke-width="40" stroke-linejoin="round" d="M 4667,5815 L 4667,5175 5275,5527 5331,5431 5552,5559 5552,6326 4667,5815 Z"/>
    </g>
    <g>
     <path fill="rgb(254,244,232)" stroke="none" d="M 4667,5815 L 4556,5239 5441,5751 5552,6326 4667,5815 Z"/>
     <path fill="none" stroke="rgb(251,201,142)" id="Drawing_14_0" stroke-width="40" stroke-linejoin="round" d="M 4667,5815 L 4556,5239 5441,5751 5552,6326 4667,5815 Z"/>
    </g>
    <g>
     <path fill="rgb(254,244,232)" stroke="none" d="M 4667,5815 L 4445,5335 5330,5847 5552,6326 4667,5815 Z"/>
     <path fill="none" stroke="rgb(251,201,142)" id="Drawing_15_0" stroke-width="40" stroke-linejoin="round" d="M 4667,5815 L 4445,5335 5330,5847 5552,6326 4667,5815 Z"/>
    </g>
    <g>
     <path fill="rgb(252,222,187)" stroke="none" d="M 4667,5815 L 4390,5463 5220,5911 5552,6326 4667,5815 Z"/>
     <path fill="none" stroke="rgb(251,201,142)" id="Drawing_16_0" stroke-width="40" stroke-linejoin="round" d="M 4667,5815 L 4390,5463 5220,5911 5552,6326 4667,5815 Z"/>
    </g>
    <g>
     <path fill="none" stroke="rgb(0,0,0)" id="Drawing_17_0" stroke-width="40" stroke-linejoin="round" d="M 4667,5303 L 4667,5175 5275,5527 5330,5431 5552,5559 5552,6326 4667,5815 4390,5463 4544,5543 4445,5335 4588,5419 4556,5239 4667,5303 Z"/>
    </g>
   </g>
   <g id="DrawingGroup_4">
    <g>
     <path fill="rgb(252,222,187)" stroke="none" d="M 5533,6637 L 5022,6711 5533,7376 5533,6637 Z"/>
     <path fill="none" stroke="rgb(255,255,255)" id="Drawing_18_0" stroke-width="40" stroke-linejoin="round" d="M 5533,6637 L 5022,6711 5533,7376 5533,6637 Z"/>
    </g>
    <g>
     <path fill="rgb(252,222,187)" stroke="none" d="M 4511,6046 L 5022,6711 4511,6785 4511,6046 Z"/>
     <path fill="none" stroke="rgb(255,255,255)" id="Drawing_19_0" stroke-width="40" stroke-linejoin="round" d="M 4511,6046 L 5022,6711 4511,6785 4511,6046 Z"/>
    </g>
    <g>
     <path fill="rgb(252,222,187)" stroke="none" d="M 5534,7376 L 5022,6637 4511,6785 5534,7376 Z"/>
     <path fill="none" stroke="rgb(251,201,142)" id="Drawing_20_0" stroke-width="40" stroke-linejoin="round" d="M 5534,7376 L 5022,6637 4511,6785 5534,7376 Z"/>
    </g>
    <g>
     <path fill="rgb(252,222,187)" stroke="none" d="M 5534,6637 L 5022,6785 4511,6046 5534,6637 Z"/>
     <path fill="none" stroke="rgb(251,201,142)" id="Drawing_21_0" stroke-width="40" stroke-linejoin="round" d="M 5534,6637 L 5022,6785 4511,6046 5534,6637 Z"/>
    </g>
    <g>
     <path fill="none" stroke="rgb(0,0,0)" id="Drawing_22_0" stroke-width="40" stroke-linejoin="round" d="M 4511,6785 L 4511,6046 5534,6637 5534,7376 4511,6785 Z"/>
    </g>
   </g>
   <g id="DrawingGroup_5">
    <g>
     <defs>
      <linearGradient id="Gradient_847" gradientUnits="userSpaceOnUse" x1="3699" y1="6825" x2="4634" y2="6827">
       <stop offset="0" stop-color="rgb(195,232,200)"/>
       <stop offset="0.5" stop-color="rgb(235,247,236)"/>
       <stop offset="1" stop-color="rgb(195,232,200)"/>
      </linearGradient>
     </defs>
     <path fill="url(#Gradient_847)" stroke="none" id="Drawing_23_0" d="M 3701,6353 L 3702,6343 3704,6333 3707,6322 3711,6312 3717,6302 3724,6292 3741,6273 3762,6254 3787,6236 3815,6219 3847,6204 3881,6189 3917,6176 3956,6164 3996,6155 4037,6147 4080,6141 4123,6137 4167,6136 4211,6137 4254,6141 4297,6147 4338,6155 4379,6164 4417,6176 4454,6189 4488,6204 4519,6219 4548,6236 4573,6254 4594,6273 4611,6292 4618,6302 4623,6312 4628,6322 4631,6333 4633,6343 4634,6353 4634,7299 4633,7309 4631,7319 4628,7330 4623,7340 4618,7350 4611,7360 4594,7379 4573,7398 4548,7416 4519,7433 4488,7449 4454,7464 4417,7477 4379,7488 4338,7498 4297,7506 4254,7512 4211,7516 4167,7517 4123,7516 4080,7512 4037,7506 3996,7498 3956,7488 3917,7477 3881,7464 3847,7449 3815,7433 3787,7416 3762,7398 3741,7379 3724,7360 3717,7350 3711,7340 3707,7330 3704,7319 3702,7309 3701,7299 3701,6353 Z"/>
     <path fill="none" stroke="rgb(0,0,0)" id="Drawing_23_1" stroke-width="40" stroke-linejoin="round" d="M 3701,6353 C 3701,6244 3934,6136 4167,6136 4400,6136 4634,6244 4634,6353 L 4634,7299 C 4634,7408 4400,7517 4167,7517 3934,7517 3701,7408 3701,7299 L 3701,6353 Z"/>
     <rect fill="none" stroke="none" x="3701" y="6353" width="934" height="218"/>
     <defs>
      <linearGradient id="Gradient_848" gradientUnits="userSpaceOnUse" x1="3700" y1="6460" x2="4633" y2="6462">
       <stop offset="0" stop-color="rgb(195,232,200)"/>
       <stop offset="0.5" stop-color="rgb(235,247,236)"/>
       <stop offset="1" stop-color="rgb(195,232,200)"/>
      </linearGradient>
     </defs>
     <path fill="url(#Gradient_848)" stroke="none" id="Drawing_23_2" d="M 3701,6353 L 3702,6363 3704,6373 3707,6383 3711,6393 3717,6403 3724,6413 3741,6432 3762,6451 3787,6469 3815,6486 3847,6502 3881,6517 3917,6530 3956,6541 3996,6551 4037,6559 4080,6565 4123,6569 4167,6570 4211,6569 4254,6565 4297,6559 4338,6551 4379,6541 4417,6530 4454,6517 4488,6502 4519,6486 4548,6469 4573,6451 4594,6432 4611,6413 4618,6403 4623,6393 4628,6383 4631,6373 4633,6363 4634,6353 3701,6353 Z"/>
     <path fill="none" stroke="rgb(0,0,0)" id="Drawing_23_3" stroke-width="40" stroke-linejoin="round" d="M 3701,6353 C 3701,6461 3934,6570 4167,6570 4400,6570 4634,6461 4634,6353"/>
     <rect fill="none" stroke="none" x="3701" y="6136" width="933" height="1381"/>
    </g>
    <g>
     <defs>
      <linearGradient id="Gradient_849" gradientUnits="userSpaceOnUse" x1="4167" y1="6135" x2="4167" y2="6572">
       <stop offset="0.1" stop-color="rgb(195,232,200)"/>
       <stop offset="1" stop-color="rgb(235,247,236)"/>
      </linearGradient>
     </defs>
     <path fill="url(#Gradient_849)" stroke="none" id="Drawing_24_0" d="M 4167,6135 L 4263,6139 4351,6152 4392,6161 4430,6171 4466,6184 4499,6198 4529,6213 4555,6230 4578,6247 4597,6267 4613,6287 4619,6297 4624,6308 4628,6319 4631,6330 4632,6341 4633,6353 4632,6365 4631,6376 4628,6387 4624,6398 4619,6409 4613,6419 4597,6440 4578,6459 4555,6477 4529,6494 4499,6509 4466,6523 4430,6535 4392,6546 4351,6555 4263,6568 4167,6572 4071,6568 3983,6555 3942,6546 3904,6535 3868,6523 3835,6509 3805,6494 3779,6477 3756,6459 3737,6440 3721,6419 3715,6409 3710,6398 3706,6387 3703,6376 3702,6365 3701,6353 3702,6341 3703,6330 3706,6319 3710,6308 3715,6297 3721,6287 3737,6267 3756,6247 3779,6230 3805,6213 3835,6198 3868,6184 3904,6171 3942,6161 3983,6152 4071,6139 4167,6135 Z"/>
     <path fill="none" stroke="rgb(0,0,0)" id="Drawing_24_1" stroke-width="40" stroke-linejoin="round" d="M 4167,6135 C 4431,6135 4633,6229 4633,6353 4633,6477 4431,6572 4167,6572 3903,6572 3701,6477 3701,6353 3701,6229 3903,6135 4167,6135 Z"/>
     <rect fill="none" stroke="none" x="3701" y="6136" width="933" height="438"/>
    </g>
   </g>
   <g id="DrawingGroup_6">
    <g>
     <path fill="rgb(0,115,188)" stroke="none" d="M 4468,6184 L 3754,6184 3747,6174 3722,6132 3701,6088 3684,6041 3672,5992 3665,5940 3662,5887 3665,5834 3672,5783 3684,5733 3701,5686 3722,5642 3747,5600 3776,5561 3809,5526 3845,5493 3884,5464 3926,5440 3970,5419 4018,5402 4067,5390 4119,5383 4172,5380 4225,5383 4277,5390 4326,5402 4374,5419 4419,5440 4461,5464 4468,5469 4468,6184 Z"/>
     <path fill="rgb(2,116,188)" stroke="none" d="M 4468,6184 L 4468,5469 4500,5493 4536,5526 4569,5561 4598,5600 4623,5642 4644,5686 4661,5733 4673,5783 4680,5834 4683,5887 4680,5940 4673,5992 4661,6041 4644,6088 4623,6132 4598,6174 4569,6213 4536,6249 4500,6281 4461,6310 4419,6335 4374,6356 4326,6373 4277,6385 4225,6392 4172,6395 4119,6392 4067,6385 4018,6373 3970,6356 3926,6335 3884,6310 3845,6281 3809,6249 3776,6213 3754,6184 4468,6184 Z M 4458,6174 L 3747,6174 3722,6132 3701,6088 3684,6041 3672,5992 3665,5940 3662,5887 3665,5834 3672,5783 3684,5733 3701,5686 3722,5642 3747,5600 3776,5561 3809,5526 3845,5493 3884,5464 3926,5440 3970,5419 4018,5402 4067,5390 4119,5383 4172,5380 4225,5383 4277,5390 4326,5402 4374,5419 4419,5440 4458,5462 4458,6174 Z"/>
     <path fill="rgb(4,117,189)" stroke="none" d="M 4458,6174 L 4458,5462 4461,5464 4500,5493 4536,5526 4569,5561 4598,5600 4623,5642 4644,5686 4661,5733 4673,5783 4680,5834 4683,5887 4680,5940 4673,5992 4661,6041 4644,6088 4623,6132 4598,6174 4569,6213 4536,6249 4500,6281 4461,6310 4419,6335 4374,6356 4326,6373 4277,6385 4225,6392 4172,6395 4119,6392 4067,6385 4018,6373 3970,6356 3926,6335 3884,6310 3845,6281 3809,6249 3776,6213 3747,6174 4458,6174 Z M 4448,6164 L 3741,6164 3722,6132 3701,6088 3684,6041 3672,5992 3665,5940 3662,5887 3665,5834 3672,5783 3684,5733 3701,5686 3722,5642 3747,5600 3776,5561 3809,5526 3845,5493 3884,5464 3926,5440 3970,5419 4018,5402 4067,5390 4119,5383 4172,5380 4225,5383 4277,5390 4326,5402 4374,5419 4419,5440 4448,5457 4448,6164 Z"/>
     <path fill="rgb(7,119,189)" stroke="none" d="M 4448,6164 L 4448,5457 4461,5464 4500,5493 4536,5526 4569,5561 4598,5600 4623,5642 4644,5686 4661,5733 4673,5783 4680,5834 4683,5887 4680,5940 4673,5992 4661,6041 4644,6088 4623,6132 4598,6174 4569,6213 4536,6249 4500,6281 4461,6310 4419,6335 4374,6356 4326,6373 4277,6385 4225,6392 4172,6395 4119,6392 4067,6385 4018,6373 3970,6356 3926,6335 3884,6310 3845,6281 3809,6249 3776,6213 3747,6174 3741,6164 4448,6164 Z M 4438,6154 L 3735,6154 3722,6132 3701,6088 3684,6041 3672,5992 3665,5940 3662,5887 3665,5834 3672,5783 3684,5733 3701,5686 3722,5642 3747,5600 3776,5561 3809,5526 3845,5493 3884,5464 3926,5440 3970,5419 4018,5402 4067,5390 4119,5383 4172,5380 4225,5383 4277,5390 4326,5402 4374,5419 4419,5440 4438,5451 4438,6154 Z"/>
     <path fill="rgb(9,120,190)" stroke="none" d="M 4438,6154 L 4438,5451 4461,5464 4500,5493 4536,5526 4569,5561 4598,5600 4623,5642 4644,5686 4661,5733 4673,5783 4680,5834 4683,5887 4680,5940 4673,5992 4661,6041 4644,6088 4623,6132 4598,6174 4569,6213 4536,6249 4500,6281 4461,6310 4419,6335 4374,6356 4326,6373 4277,6385 4225,6392 4172,6395 4119,6392 4067,6385 4018,6373 3970,6356 3926,6335 3884,6310 3845,6281 3809,6249 3776,6213 3747,6174 3735,6154 4438,6154 Z M 4428,6144 L 3729,6144 3722,6132 3701,6088 3684,6041 3672,5992 3665,5940 3662,5887 3665,5834 3672,5783 3684,5733 3701,5686 3722,5642 3747,5600 3776,5561 3809,5526 3845,5493 3884,5464 3926,5440 3970,5419 4018,5402 4067,5390 4119,5383 4172,5380 4225,5383 4277,5390 4326,5402 4374,5419 4419,5440 4428,5445 4428,6144 Z"/>
     <path fill="rgb(12,121,191)" stroke="none" d="M 4428,6144 L 4428,5445 4461,5464 4500,5493 4536,5526 4569,5561 4598,5600 4623,5642 4644,5686 4661,5733 4673,5783 4680,5834 4683,5887 4680,5940 4673,5992 4661,6041 4644,6088 4623,6132 4598,6174 4569,6213 4536,6249 4500,6281 4461,6310 4419,6335 4374,6356 4326,6373 4277,6385 4225,6392 4172,6395 4119,6392 4067,6385 4018,6373 3970,6356 3926,6335 3884,6310 3845,6281 3809,6249 3776,6213 3747,6174 3729,6144 4428,6144 Z M 4418,6134 L 3723,6134 3722,6132 3701,6088 3684,6041 3672,5992 3665,5940 3662,5887 3665,5834 3672,5783 3684,5733 3701,5686 3722,5642 3747,5600 3776,5561 3809,5526 3845,5493 3884,5464 3926,5440 3970,5419 4018,5402 4067,5390 4119,5383 4172,5380 4225,5383 4277,5390 4326,5402 4374,5419 4418,5440 4418,6134 Z"/>
     <path fill="rgb(14,123,191)" stroke="none" d="M 4418,6134 L 4418,5440 4419,5440 4461,5464 4500,5493 4536,5526 4569,5561 4598,5600 4623,5642 4644,5686 4661,5733 4673,5783 4680,5834 4683,5887 4680,5940 4673,5992 4661,6041 4644,6088 4623,6132 4598,6174 4569,6213 4536,6249 4500,6281 4461,6310 4419,6335 4374,6356 4326,6373 4277,6385 4225,6392 4172,6395 4119,6392 4067,6385 4018,6373 3970,6356 3926,6335 3884,6310 3845,6281 3809,6249 3776,6213 3747,6174 3723,6134 4418,6134 Z M 4408,6124 L 3718,6124 3701,6088 3684,6041 3672,5992 3665,5940 3662,5887 3665,5834 3672,5783 3684,5733 3701,5686 3722,5642 3747,5600 3776,5561 3809,5526 3845,5493 3884,5464 3926,5440 3970,5419 4018,5402 4067,5390 4119,5383 4172,5380 4225,5383 4277,5390 4326,5402 4374,5419 4408,5435 4408,6124 Z"/>
     <path fill="rgb(17,124,192)" stroke="none" d="M 4408,6124 L 4408,5435 4419,5440 4461,5464 4500,5493 4536,5526 4569,5561 4598,5600 4623,5642 4644,5686 4661,5733 4673,5783 4680,5834 4683,5887 4680,5940 4673,5992 4661,6041 4644,6088 4623,6132 4598,6174 4569,6213 4536,6249 4500,6281 4461,6310 4419,6335 4374,6356 4326,6373 4277,6385 4225,6392 4172,6395 4119,6392 4067,6385 4018,6373 3970,6356 3926,6335 3884,6310 3845,6281 3809,6249 3776,6213 3747,6174 3722,6132 3718,6124 4408,6124 Z M 4398,6114 L 3713,6114 3701,6088 3684,6041 3672,5992 3665,5940 3662,5887 3665,5834 3672,5783 3684,5733 3701,5686 3722,5642 3747,5600 3776,5561 3809,5526 3845,5493 3884,5464 3926,5440 3970,5419 4018,5402 4067,5390 4119,5383 4172,5380 4225,5383 4277,5390 4326,5402 4374,5419 4398,5430 4398,6114 Z"/>
     <path fill="rgb(19,125,193)" stroke="none" d="M 4398,6114 L 4398,5430 4419,5440 4461,5464 4500,5493 4536,5526 4569,5561 4598,5600 4623,5642 4644,5686 4661,5733 4673,5783 4680,5834 4683,5887 4680,5940 4673,5992 4661,6041 4644,6088 4623,6132 4598,6174 4569,6213 4536,6249 4500,6281 4461,6310 4419,6335 4374,6356 4326,6373 4277,6385 4225,6392 4172,6395 4119,6392 4067,6385 4018,6373 3970,6356 3926,6335 3884,6310 3845,6281 3809,6249 3776,6213 3747,6174 3722,6132 3713,6114 4398,6114 Z M 4388,6104 L 3709,6104 3701,6088 3684,6041 3672,5992 3665,5940 3662,5887 3665,5834 3672,5783 3684,5733 3701,5686 3722,5642 3747,5600 3776,5561 3809,5526 3845,5493 3884,5464 3926,5440 3970,5419 4018,5402 4067,5390 4119,5383 4172,5380 4225,5383 4277,5390 4326,5402 4374,5419 4388,5426 4388,6104 Z"/>
     <path fill="rgb(22,127,193)" stroke="none" d="M 4388,6104 L 4388,5426 4419,5440 4461,5464 4500,5493 4536,5526 4569,5561 4598,5600 4623,5642 4644,5686 4661,5733 4673,5783 4680,5834 4683,5887 4680,5940 4673,5992 4661,6041 4644,6088 4623,6132 4598,6174 4569,6213 4536,6249 4500,6281 4461,6310 4419,6335 4374,6356 4326,6373 4277,6385 4225,6392 4172,6395 4119,6392 4067,6385 4018,6373 3970,6356 3926,6335 3884,6310 3845,6281 3809,6249 3776,6213 3747,6174 3722,6132 3709,6104 4388,6104 Z M 4378,6094 L 3704,6094 3701,6088 3684,6041 3672,5992 3665,5940 3662,5887 3665,5834 3672,5783 3684,5733 3701,5686 3722,5642 3747,5600 3776,5561 3809,5526 3845,5493 3884,5464 3926,5440 3970,5419 4018,5402 4067,5390 4119,5383 4172,5380 4225,5383 4277,5390 4326,5402 4374,5419 4378,5421 4378,6094 Z"/>
     <path fill="rgb(24,128,194)" stroke="none" d="M 4378,6094 L 4378,5421 4419,5440 4461,5464 4500,5493 4536,5526 4569,5561 4598,5600 4623,5642 4644,5686 4661,5733 4673,5783 4680,5834 4683,5887 4680,5940 4673,5992 4661,6041 4644,6088 4623,6132 4598,6174 4569,6213 4536,6249 4500,6281 4461,6310 4419,6335 4374,6356 4326,6373 4277,6385 4225,6392 4172,6395 4119,6392 4067,6385 4018,6373 3970,6356 3926,6335 3884,6310 3845,6281 3809,6249 3776,6213 3747,6174 3722,6132 3704,6094 4378,6094 Z M 4368,6084 L 3700,6084 3684,6041 3672,5992 3665,5940 3662,5887 3665,5834 3672,5783 3684,5733 3701,5686 3722,5642 3747,5600 3776,5561 3809,5526 3845,5493 3884,5464 3926,5440 3970,5419 4018,5402 4067,5390 4119,5383 4172,5380 4225,5383 4277,5390 4326,5402 4368,5417 4368,6084 Z"/>
     <path fill="rgb(27,130,195)" stroke="none" d="M 4368,6084 L 4368,5417 4374,5419 4419,5440 4461,5464 4500,5493 4536,5526 4569,5561 4598,5600 4623,5642 4644,5686 4661,5733 4673,5783 4680,5834 4683,5887 4680,5940 4673,5992 4661,6041 4644,6088 4623,6132 4598,6174 4569,6213 4536,6249 4500,6281 4461,6310 4419,6335 4374,6356 4326,6373 4277,6385 4225,6392 4172,6395 4119,6392 4067,6385 4018,6373 3970,6356 3926,6335 3884,6310 3845,6281 3809,6249 3776,6213 3747,6174 3722,6132 3701,6088 3700,6084 4368,6084 Z M 4358,6074 L 3696,6074 3684,6041 3672,5992 3665,5940 3662,5887 3665,5834 3672,5783 3684,5733 3701,5686 3722,5642 3747,5600 3776,5561 3809,5526 3845,5493 3884,5464 3926,5440 3970,5419 4018,5402 4067,5390 4119,5383 4172,5380 4225,5383 4277,5390 4326,5402 4358,5413 4358,6074 Z"/>
     <path fill="rgb(29,131,195)" stroke="none" d="M 4358,6074 L 4358,5413 4374,5419 4419,5440 4461,5464 4500,5493 4536,5526 4569,5561 4598,5600 4623,5642 4644,5686 4661,5733 4673,5783 4680,5834 4683,5887 4680,5940 4673,5992 4661,6041 4644,6088 4623,6132 4598,6174 4569,6213 4536,6249 4500,6281 4461,6310 4419,6335 4374,6356 4326,6373 4277,6385 4225,6392 4172,6395 4119,6392 4067,6385 4018,6373 3970,6356 3926,6335 3884,6310 3845,6281 3809,6249 3776,6213 3747,6174 3722,6132 3701,6088 3696,6074 4358,6074 Z M 4348,6064 L 3692,6064 3684,6041 3672,5992 3665,5940 3662,5887 3665,5834 3672,5783 3684,5733 3701,5686 3722,5642 3747,5600 3776,5561 3809,5526 3845,5493 3884,5464 3926,5440 3970,5419 4018,5402 4067,5390 4119,5383 4172,5380 4225,5383 4277,5390 4326,5402 4348,5410 4348,6064 Z"/>
     <path fill="rgb(32,132,196)" stroke="none" d="M 4348,6064 L 4348,5410 4374,5419 4419,5440 4461,5464 4500,5493 4536,5526 4569,5561 4598,5600 4623,5642 4644,5686 4661,5733 4673,5783 4680,5834 4683,5887 4680,5940 4673,5992 4661,6041 4644,6088 4623,6132 4598,6174 4569,6213 4536,6249 4500,6281 4461,6310 4419,6335 4374,6356 4326,6373 4277,6385 4225,6392 4172,6395 4119,6392 4067,6385 4018,6373 3970,6356 3926,6335 3884,6310 3845,6281 3809,6249 3776,6213 3747,6174 3722,6132 3701,6088 3692,6064 4348,6064 Z M 4338,6054 L 3689,6054 3684,6041 3672,5992 3665,5940 3662,5887 3665,5834 3672,5783 3684,5733 3701,5686 3722,5642 3747,5600 3776,5561 3809,5526 3845,5493 3884,5464 3926,5440 3970,5419 4018,5402 4067,5390 4119,5383 4172,5380 4225,5383 4277,5390 4326,5402 4338,5406 4338,6054 Z"/>
     <path fill="rgb(34,134,197)" stroke="none" d="M 4338,6054 L 4338,5406 4374,5419 4419,5440 4461,5464 4500,5493 4536,5526 4569,5561 4598,5600 4623,5642 4644,5686 4661,5733 4673,5783 4680,5834 4683,5887 4680,5940 4673,5992 4661,6041 4644,6088 4623,6132 4598,6174 4569,6213 4536,6249 4500,6281 4461,6310 4419,6335 4374,6356 4326,6373 4277,6385 4225,6392 4172,6395 4119,6392 4067,6385 4018,6373 3970,6356 3926,6335 3884,6310 3845,6281 3809,6249 3776,6213 3747,6174 3722,6132 3701,6088 3689,6054 4338,6054 Z M 4328,6044 L 3685,6044 3684,6041 3672,5992 3665,5940 3662,5887 3665,5834 3672,5783 3684,5733 3701,5686 3722,5642 3747,5600 3776,5561 3809,5526 3845,5493 3884,5464 3926,5440 3970,5419 4018,5402 4067,5390 4119,5383 4172,5380 4225,5383 4277,5390 4326,5402 4328,5403 4328,6044 Z"/>
     <path fill="rgb(37,135,197)" stroke="none" d="M 4328,6044 L 4328,5403 4374,5419 4419,5440 4461,5464 4500,5493 4536,5526 4569,5561 4598,5600 4623,5642 4644,5686 4661,5733 4673,5783 4680,5834 4683,5887 4680,5940 4673,5992 4661,6041 4644,6088 4623,6132 4598,6174 4569,6213 4536,6249 4500,6281 4461,6310 4419,6335 4374,6356 4326,6373 4277,6385 4225,6392 4172,6395 4119,6392 4067,6385 4018,6373 3970,6356 3926,6335 3884,6310 3845,6281 3809,6249 3776,6213 3747,6174 3722,6132 3701,6088 3685,6044 4328,6044 Z M 4318,6034 L 3682,6034 3672,5992 3665,5940 3662,5887 3665,5834 3672,5783 3684,5733 3701,5686 3722,5642 3747,5600 3776,5561 3809,5526 3845,5493 3884,5464 3926,5440 3970,5419 4018,5402 4067,5390 4119,5383 4172,5380 4225,5383 4277,5390 4318,5400 4318,6034 Z"/>
     <path fill="rgb(39,136,198)" stroke="none" d="M 4318,6034 L 4318,5400 4326,5402 4374,5419 4419,5440 4461,5464 4500,5493 4536,5526 4569,5561 4598,5600 4623,5642 4644,5686 4661,5733 4673,5783 4680,5834 4683,5887 4680,5940 4673,5992 4661,6041 4644,6088 4623,6132 4598,6174 4569,6213 4536,6249 4500,6281 4461,6310 4419,6335 4374,6356 4326,6373 4277,6385 4225,6392 4172,6395 4119,6392 4067,6385 4018,6373 3970,6356 3926,6335 3884,6310 3845,6281 3809,6249 3776,6213 3747,6174 3722,6132 3701,6088 3684,6041 3682,6034 4318,6034 Z M 4308,6024 L 3680,6024 3672,5992 3665,5940 3662,5887 3665,5834 3672,5783 3684,5733 3701,5686 3722,5642 3747,5600 3776,5561 3809,5526 3845,5493 3884,5464 3926,5440 3970,5419 4018,5402 4067,5390 4119,5383 4172,5380 4225,5383 4277,5390 4308,5398 4308,6024 Z"/>
     <path fill="rgb(42,138,199)" stroke="none" d="M 4308,6024 L 4308,5398 4326,5402 4374,5419 4419,5440 4461,5464 4500,5493 4536,5526 4569,5561 4598,5600 4623,5642 4644,5686 4661,5733 4673,5783 4680,5834 4683,5887 4680,5940 4673,5992 4661,6041 4644,6088 4623,6132 4598,6174 4569,6213 4536,6249 4500,6281 4461,6310 4419,6335 4374,6356 4326,6373 4277,6385 4225,6392 4172,6395 4119,6392 4067,6385 4018,6373 3970,6356 3926,6335 3884,6310 3845,6281 3809,6249 3776,6213 3747,6174 3722,6132 3701,6088 3684,6041 3680,6024 4308,6024 Z M 4298,6014 L 3677,6014 3672,5992 3665,5940 3662,5887 3665,5834 3672,5783 3684,5733 3701,5686 3722,5642 3747,5600 3776,5561 3809,5526 3845,5493 3884,5464 3926,5440 3970,5419 4018,5402 4067,5390 4119,5383 4172,5380 4225,5383 4277,5390 4298,5395 4298,6014 Z"/>
     <path fill="rgb(44,139,199)" stroke="none" d="M 4298,6014 L 4298,5395 4326,5402 4374,5419 4419,5440 4461,5464 4500,5493 4536,5526 4569,5561 4598,5600 4623,5642 4644,5686 4661,5733 4673,5783 4680,5834 4683,5887 4680,5940 4673,5992 4661,6041 4644,6088 4623,6132 4598,6174 4569,6213 4536,6249 4500,6281 4461,6310 4419,6335 4374,6356 4326,6373 4277,6385 4225,6392 4172,6395 4119,6392 4067,6385 4018,6373 3970,6356 3926,6335 3884,6310 3845,6281 3809,6249 3776,6213 3747,6174 3722,6132 3701,6088 3684,6041 3677,6014 4298,6014 Z M 4288,6004 L 3675,6004 3672,5992 3665,5940 3662,5887 3665,5834 3672,5783 3684,5733 3701,5686 3722,5642 3747,5600 3776,5561 3809,5526 3845,5493 3884,5464 3926,5440 3970,5419 4018,5402 4067,5390 4119,5383 4172,5380 4225,5383 4277,5390 4288,5393 4288,6004 Z"/>
     <path fill="rgb(47,141,200)" stroke="none" d="M 4288,6004 L 4288,5393 4326,5402 4374,5419 4419,5440 4461,5464 4500,5493 4536,5526 4569,5561 4598,5600 4623,5642 4644,5686 4661,5733 4673,5783 4680,5834 4683,5887 4680,5940 4673,5992 4661,6041 4644,6088 4623,6132 4598,6174 4569,6213 4536,6249 4500,6281 4461,6310 4419,6335 4374,6356 4326,6373 4277,6385 4225,6392 4172,6395 4119,6392 4067,6385 4018,6373 3970,6356 3926,6335 3884,6310 3845,6281 3809,6249 3776,6213 3747,6174 3722,6132 3701,6088 3684,6041 3675,6004 4288,6004 Z M 4278,5994 L 3672,5994 3672,5992 3665,5940 3662,5887 3665,5834 3672,5783 3684,5733 3701,5686 3722,5642 3747,5600 3776,5561 3809,5526 3845,5493 3884,5464 3926,5440 3970,5419 4018,5402 4067,5390 4119,5383 4172,5380 4225,5383 4277,5390 4278,5390 4278,5994 Z"/>
     <path fill="rgb(49,142,200)" stroke="none" d="M 4278,5994 L 4278,5390 4326,5402 4374,5419 4419,5440 4461,5464 4500,5493 4536,5526 4569,5561 4598,5600 4623,5642 4644,5686 4661,5733 4673,5783 4680,5834 4683,5887 4680,5940 4673,5992 4661,6041 4644,6088 4623,6132 4598,6174 4569,6213 4536,6249 4500,6281 4461,6310 4419,6335 4374,6356 4326,6373 4277,6385 4225,6392 4172,6395 4119,6392 4067,6385 4018,6373 3970,6356 3926,6335 3884,6310 3845,6281 3809,6249 3776,6213 3747,6174 3722,6132 3701,6088 3684,6041 3672,5994 4278,5994 Z M 4207,5382 L 4225,5383 4268,5389 4268,5984 3671,5984 3666,5947 3666,5827 3672,5783 3684,5733 3701,5686 3722,5642 3747,5600 3776,5561 3809,5526 3845,5493 3884,5464 3926,5440 3970,5419 4018,5402 4067,5390 4119,5383 4137,5382 4207,5382 Z"/>
     <path fill="rgb(52,143,201)" stroke="none" d="M 3666,5947 L 3665,5940 3662,5887 3665,5834 3666,5827 3666,5947 Z M 4268,5984 L 4268,5389 4277,5390 4326,5402 4374,5419 4419,5440 4461,5464 4500,5493 4536,5526 4569,5561 4598,5600 4623,5642 4644,5686 4661,5733 4673,5783 4680,5834 4683,5887 4680,5940 4673,5992 4661,6041 4644,6088 4623,6132 4598,6174 4569,6213 4536,6249 4500,6281 4461,6310 4419,6335 4374,6356 4326,6373 4277,6385 4225,6392 4172,6395 4119,6392 4067,6385 4018,6373 3970,6356 3926,6335 3884,6310 3845,6281 3809,6249 3776,6213 3747,6174 3722,6132 3701,6088 3684,6041 3672,5992 3671,5984 4268,5984 Z M 4137,5382 L 4172,5380 4207,5382 4137,5382 Z M 4258,5392 L 4258,5974 3676,5974 3676,5766 3684,5733 3701,5686 3722,5642 3747,5600 3776,5561 3809,5526 3845,5493 3884,5464 3926,5440 3970,5419 4018,5402 4059,5392 4258,5392 Z"/>
     <path fill="rgb(54,145,202)" stroke="none" d="M 3676,5974 L 4258,5974 4258,5392 4059,5392 4067,5390 4119,5383 4172,5380 4225,5383 4277,5390 4326,5402 4374,5419 4419,5440 4461,5464 4500,5493 4536,5526 4569,5561 4598,5600 4623,5642 4644,5686 4661,5733 4673,5783 4680,5834 4683,5887 4680,5940 4673,5992 4661,6041 4644,6088 4623,6132 4598,6174 4569,6213 4536,6249 4500,6281 4461,6310 4419,6335 4374,6356 4326,6373 4277,6385 4225,6392 4172,6395 4119,6392 4067,6385 4018,6373 3970,6356 3926,6335 3884,6310 3845,6281 3809,6249 3776,6213 3747,6174 3722,6132 3701,6088 3684,6041 3672,5992 3665,5940 3662,5887 3665,5834 3672,5783 3676,5766 3676,5974 Z M 4248,5402 L 4248,5964 3686,5964 3686,5727 3701,5686 3722,5642 3747,5600 3776,5561 3809,5526 3845,5493 3884,5464 3926,5440 3970,5419 4018,5402 4248,5402 Z"/>
     <path fill="rgb(57,146,202)" stroke="none" d="M 3686,5964 L 4248,5964 4248,5402 4018,5402 4067,5390 4119,5383 4172,5380 4225,5383 4277,5390 4326,5402 4374,5419 4419,5440 4461,5464 4500,5493 4536,5526 4569,5561 4598,5600 4623,5642 4644,5686 4661,5733 4673,5783 4680,5834 4683,5887 4680,5940 4673,5992 4661,6041 4644,6088 4623,6132 4598,6174 4569,6213 4536,6249 4500,6281 4461,6310 4419,6335 4374,6356 4326,6373 4277,6385 4225,6392 4172,6395 4119,6392 4067,6385 4018,6373 3970,6356 3926,6335 3884,6310 3845,6281 3809,6249 3776,6213 3747,6174 3722,6132 3701,6088 3684,6041 3672,5992 3665,5940 3662,5887 3665,5834 3672,5783 3684,5733 3686,5727 3686,5964 Z M 4238,5412 L 4238,5954 3696,5954 3696,5700 3701,5686 3722,5642 3747,5600 3776,5561 3809,5526 3845,5493 3884,5464 3926,5440 3970,5419 3990,5412 4238,5412 Z"/>
     <path fill="rgb(59,147,203)" stroke="none" d="M 3696,5954 L 4238,5954 4238,5412 3990,5412 4018,5402 4067,5390 4119,5383 4172,5380 4225,5383 4277,5390 4326,5402 4374,5419 4419,5440 4461,5464 4500,5493 4536,5526 4569,5561 4598,5600 4623,5642 4644,5686 4661,5733 4673,5783 4680,5834 4683,5887 4680,5940 4673,5992 4661,6041 4644,6088 4623,6132 4598,6174 4569,6213 4536,6249 4500,6281 4461,6310 4419,6335 4374,6356 4326,6373 4277,6385 4225,6392 4172,6395 4119,6392 4067,6385 4018,6373 3970,6356 3926,6335 3884,6310 3845,6281 3809,6249 3776,6213 3747,6174 3722,6132 3701,6088 3684,6041 3672,5992 3665,5940 3662,5887 3665,5834 3672,5783 3684,5733 3696,5700 3696,5954 Z M 4228,5422 L 4228,5944 3706,5944 3706,5676 3722,5642 3747,5600 3776,5561 3809,5526 3845,5493 3884,5464 3926,5440 3964,5422 4228,5422 Z"/>
     <path fill="rgb(62,149,204)" stroke="none" d="M 3706,5944 L 4228,5944 4228,5422 3964,5422 3970,5419 4018,5402 4067,5390 4119,5383 4172,5380 4225,5383 4277,5390 4326,5402 4374,5419 4419,5440 4461,5464 4500,5493 4536,5526 4569,5561 4598,5600 4623,5642 4644,5686 4661,5733 4673,5783 4680,5834 4683,5887 4680,5940 4673,5992 4661,6041 4644,6088 4623,6132 4598,6174 4569,6213 4536,6249 4500,6281 4461,6310 4419,6335 4374,6356 4326,6373 4277,6385 4225,6392 4172,6395 4119,6392 4067,6385 4018,6373 3970,6356 3926,6335 3884,6310 3845,6281 3809,6249 3776,6213 3747,6174 3722,6132 3701,6088 3684,6041 3672,5992 3665,5940 3662,5887 3665,5834 3672,5783 3684,5733 3701,5686 3706,5676 3706,5944 Z M 4217,5433 L 4217,5933 3717,5933 3717,5652 3722,5642 3747,5600 3776,5561 3809,5526 3845,5493 3884,5464 3926,5440 3941,5433 4217,5433 Z"/>
     <path fill="rgb(64,150,204)" stroke="none" d="M 3717,5933 L 4217,5933 4217,5433 3941,5433 3970,5419 4018,5402 4067,5390 4119,5383 4172,5380 4225,5383 4277,5390 4326,5402 4374,5419 4419,5440 4461,5464 4500,5493 4536,5526 4569,5561 4598,5600 4623,5642 4644,5686 4661,5733 4673,5783 4680,5834 4683,5887 4680,5940 4673,5992 4661,6041 4644,6088 4623,6132 4598,6174 4569,6213 4536,6249 4500,6281 4461,6310 4419,6335 4374,6356 4326,6373 4277,6385 4225,6392 4172,6395 4119,6392 4067,6385 4018,6373 3970,6356 3926,6335 3884,6310 3845,6281 3809,6249 3776,6213 3747,6174 3722,6132 3701,6088 3684,6041 3672,5992 3665,5940 3662,5887 3665,5834 3672,5783 3684,5733 3701,5686 3717,5652 3717,5933 Z M 4207,5443 L 4207,5923 3727,5923 3727,5634 3747,5600 3776,5561 3809,5526 3845,5493 3884,5464 3921,5443 4207,5443 Z"/>
     <path fill="rgb(67,152,205)" stroke="none" d="M 3727,5923 L 4207,5923 4207,5443 3921,5443 3926,5440 3970,5419 4018,5402 4067,5390 4119,5383 4172,5380 4225,5383 4277,5390 4326,5402 4374,5419 4419,5440 4461,5464 4500,5493 4536,5526 4569,5561 4598,5600 4623,5642 4644,5686 4661,5733 4673,5783 4680,5834 4683,5887 4680,5940 4673,5992 4661,6041 4644,6088 4623,6132 4598,6174 4569,6213 4536,6249 4500,6281 4461,6310 4419,6335 4374,6356 4326,6373 4277,6385 4225,6392 4172,6395 4119,6392 4067,6385 4018,6373 3970,6356 3926,6335 3884,6310 3845,6281 3809,6249 3776,6213 3747,6174 3722,6132 3701,6088 3684,6041 3672,5992 3665,5940 3662,5887 3665,5834 3672,5783 3684,5733 3701,5686 3722,5642 3727,5634 3727,5923 Z M 4197,5453 L 4197,5913 3737,5913 3737,5617 3747,5600 3776,5561 3809,5526 3845,5493 3884,5464 3903,5453 4197,5453 Z"/>
     <path fill="rgb(69,153,206)" stroke="none" d="M 3737,5913 L 4197,5913 4197,5453 3903,5453 3926,5440 3970,5419 4018,5402 4067,5390 4119,5383 4172,5380 4225,5383 4277,5390 4326,5402 4374,5419 4419,5440 4461,5464 4500,5493 4536,5526 4569,5561 4598,5600 4623,5642 4644,5686 4661,5733 4673,5783 4680,5834 4683,5887 4680,5940 4673,5992 4661,6041 4644,6088 4623,6132 4598,6174 4569,6213 4536,6249 4500,6281 4461,6310 4419,6335 4374,6356 4326,6373 4277,6385 4225,6392 4172,6395 4119,6392 4067,6385 4018,6373 3970,6356 3926,6335 3884,6310 3845,6281 3809,6249 3776,6213 3747,6174 3722,6132 3701,6088 3684,6041 3672,5992 3665,5940 3662,5887 3665,5834 3672,5783 3684,5733 3701,5686 3722,5642 3737,5617 3737,5913 Z M 4187,5463 L 4187,5903 3747,5903 3747,5600 3776,5561 3809,5526 3845,5493 3884,5464 3886,5463 4187,5463 Z"/>
     <path fill="rgb(72,154,206)" stroke="none" d="M 3747,5903 L 4187,5903 4187,5463 3886,5463 3926,5440 3970,5419 4018,5402 4067,5390 4119,5383 4172,5380 4225,5383 4277,5390 4326,5402 4374,5419 4419,5440 4461,5464 4500,5493 4536,5526 4569,5561 4598,5600 4623,5642 4644,5686 4661,5733 4673,5783 4680,5834 4683,5887 4680,5940 4673,5992 4661,6041 4644,6088 4623,6132 4598,6174 4569,6213 4536,6249 4500,6281 4461,6310 4419,6335 4374,6356 4326,6373 4277,6385 4225,6392 4172,6395 4119,6392 4067,6385 4018,6373 3970,6356 3926,6335 3884,6310 3845,6281 3809,6249 3776,6213 3747,6174 3722,6132 3701,6088 3684,6041 3672,5992 3665,5940 3662,5887 3665,5834 3672,5783 3684,5733 3701,5686 3722,5642 3747,5600 3747,5903 Z M 4177,5473 L 4177,5893 3757,5893 3757,5587 3776,5561 3809,5526 3845,5493 3872,5473 4177,5473 Z"/>
     <path fill="rgb(74,156,207)" stroke="none" d="M 3757,5893 L 4177,5893 4177,5473 3872,5473 3884,5464 3926,5440 3970,5419 4018,5402 4067,5390 4119,5383 4172,5380 4225,5383 4277,5390 4326,5402 4374,5419 4419,5440 4461,5464 4500,5493 4536,5526 4569,5561 4598,5600 4623,5642 4644,5686 4661,5733 4673,5783 4680,5834 4683,5887 4680,5940 4673,5992 4661,6041 4644,6088 4623,6132 4598,6174 4569,6213 4536,6249 4500,6281 4461,6310 4419,6335 4374,6356 4326,6373 4277,6385 4225,6392 4172,6395 4119,6392 4067,6385 4018,6373 3970,6356 3926,6335 3884,6310 3845,6281 3809,6249 3776,6213 3747,6174 3722,6132 3701,6088 3684,6041 3672,5992 3665,5940 3662,5887 3665,5834 3672,5783 3684,5733 3701,5686 3722,5642 3747,5600 3757,5587 3757,5893 Z M 4167,5483 L 4167,5883 3767,5883 3767,5573 3776,5561 3809,5526 3845,5493 3858,5483 4167,5483 Z"/>
     <path fill="rgb(77,157,208)" stroke="none" d="M 3767,5883 L 4167,5883 4167,5483 3858,5483 3884,5464 3926,5440 3970,5419 4018,5402 4067,5390 4119,5383 4172,5380 4225,5383 4277,5390 4326,5402 4374,5419 4419,5440 4461,5464 4500,5493 4536,5526 4569,5561 4598,5600 4623,5642 4644,5686 4661,5733 4673,5783 4680,5834 4683,5887 4680,5940 4673,5992 4661,6041 4644,6088 4623,6132 4598,6174 4569,6213 4536,6249 4500,6281 4461,6310 4419,6335 4374,6356 4326,6373 4277,6385 4225,6392 4172,6395 4119,6392 4067,6385 4018,6373 3970,6356 3926,6335 3884,6310 3845,6281 3809,6249 3776,6213 3747,6174 3722,6132 3701,6088 3684,6041 3672,5992 3665,5940 3662,5887 3665,5834 3672,5783 3684,5733 3701,5686 3722,5642 3747,5600 3767,5573 3767,5883 Z M 4157,5493 L 4157,5873 3777,5873 3777,5560 3809,5526 3845,5493 4157,5493 Z"/>
     <path fill="rgb(79,158,208)" stroke="none" d="M 3777,5873 L 4157,5873 4157,5493 3845,5493 3884,5464 3926,5440 3970,5419 4018,5402 4067,5390 4119,5383 4172,5380 4225,5383 4277,5390 4326,5402 4374,5419 4419,5440 4461,5464 4500,5493 4536,5526 4569,5561 4598,5600 4623,5642 4644,5686 4661,5733 4673,5783 4680,5834 4683,5887 4680,5940 4673,5992 4661,6041 4644,6088 4623,6132 4598,6174 4569,6213 4536,6249 4500,6281 4461,6310 4419,6335 4374,6356 4326,6373 4277,6385 4225,6392 4172,6395 4119,6392 4067,6385 4018,6373 3970,6356 3926,6335 3884,6310 3845,6281 3809,6249 3776,6213 3747,6174 3722,6132 3701,6088 3684,6041 3672,5992 3665,5940 3662,5887 3665,5834 3672,5783 3684,5733 3701,5686 3722,5642 3747,5600 3776,5561 3777,5560 3777,5873 Z M 4147,5503 L 4147,5863 3787,5863 3787,5549 3809,5526 3834,5503 4147,5503 Z"/>
     <path fill="rgb(82,160,209)" stroke="none" d="M 3787,5863 L 4147,5863 4147,5503 3834,5503 3845,5493 3884,5464 3926,5440 3970,5419 4018,5402 4067,5390 4119,5383 4172,5380 4225,5383 4277,5390 4326,5402 4374,5419 4419,5440 4461,5464 4500,5493 4536,5526 4569,5561 4598,5600 4623,5642 4644,5686 4661,5733 4673,5783 4680,5834 4683,5887 4680,5940 4673,5992 4661,6041 4644,6088 4623,6132 4598,6174 4569,6213 4536,6249 4500,6281 4461,6310 4419,6335 4374,6356 4326,6373 4277,6385 4225,6392 4172,6395 4119,6392 4067,6385 4018,6373 3970,6356 3926,6335 3884,6310 3845,6281 3809,6249 3776,6213 3747,6174 3722,6132 3701,6088 3684,6041 3672,5992 3665,5940 3662,5887 3665,5834 3672,5783 3684,5733 3701,5686 3722,5642 3747,5600 3776,5561 3787,5549 3787,5863 Z M 4137,5513 L 4137,5853 3797,5853 3797,5539 3809,5526 3823,5513 4137,5513 Z"/>
     <path fill="rgb(84,161,210)" stroke="none" d="M 3797,5853 L 4137,5853 4137,5513 3823,5513 3845,5493 3884,5464 3926,5440 3970,5419 4018,5402 4067,5390 4119,5383 4172,5380 4225,5383 4277,5390 4326,5402 4374,5419 4419,5440 4461,5464 4500,5493 4536,5526 4569,5561 4598,5600 4623,5642 4644,5686 4661,5733 4673,5783 4680,5834 4683,5887 4680,5940 4673,5992 4661,6041 4644,6088 4623,6132 4598,6174 4569,6213 4536,6249 4500,6281 4461,6310 4419,6335 4374,6356 4326,6373 4277,6385 4225,6392 4172,6395 4119,6392 4067,6385 4018,6373 3970,6356 3926,6335 3884,6310 3845,6281 3809,6249 3776,6213 3747,6174 3722,6132 3701,6088 3684,6041 3672,5992 3665,5940 3662,5887 3665,5834 3672,5783 3684,5733 3701,5686 3722,5642 3747,5600 3776,5561 3797,5539 3797,5853 Z M 4127,5523 L 4127,5843 3807,5843 3807,5528 3809,5526 3812,5523 4127,5523 Z"/>
     <path fill="rgb(87,163,210)" stroke="none" d="M 3807,5843 L 4127,5843 4127,5523 3812,5523 3845,5493 3884,5464 3926,5440 3970,5419 4018,5402 4067,5390 4119,5383 4172,5380 4225,5383 4277,5390 4326,5402 4374,5419 4419,5440 4461,5464 4500,5493 4536,5526 4569,5561 4598,5600 4623,5642 4644,5686 4661,5733 4673,5783 4680,5834 4683,5887 4680,5940 4673,5992 4661,6041 4644,6088 4623,6132 4598,6174 4569,6213 4536,6249 4500,6281 4461,6310 4419,6335 4374,6356 4326,6373 4277,6385 4225,6392 4172,6395 4119,6392 4067,6385 4018,6373 3970,6356 3926,6335 3884,6310 3845,6281 3809,6249 3776,6213 3747,6174 3722,6132 3701,6088 3684,6041 3672,5992 3665,5940 3662,5887 3665,5834 3672,5783 3684,5733 3701,5686 3722,5642 3747,5600 3776,5561 3807,5528 3807,5843 Z M 3817,5533 L 4117,5533 4117,5833 3817,5833 3817,5533 Z"/>
     <path fill="rgb(89,164,211)" stroke="none" d="M 3817,5533 L 3817,5833 4117,5833 4117,5533 3817,5533 Z M 3827,5543 L 4107,5543 4107,5823 3827,5823 3827,5543 Z M 4172,5380 L 4225,5383 4277,5390 4326,5402 4374,5419 4419,5440 4461,5464 4500,5493 4536,5526 4569,5561 4598,5600 4623,5642 4644,5686 4661,5733 4673,5783 4680,5834 4683,5887 4680,5940 4673,5992 4661,6041 4644,6088 4623,6132 4598,6174 4569,6213 4536,6249 4500,6281 4461,6310 4419,6335 4374,6356 4326,6373 4277,6385 4225,6392 4172,6395 4119,6392 4067,6385 4018,6373 3970,6356 3926,6335 3884,6310 3845,6281 3809,6249 3776,6213 3747,6174 3722,6132 3701,6088 3684,6041 3672,5992 3665,5940 3662,5887 3665,5834 3672,5783 3684,5733 3701,5686 3722,5642 3747,5600 3776,5561 3809,5526 3845,5493 3884,5464 3926,5440 3970,5419 4018,5402 4067,5390 4119,5383 4172,5380 Z"/>
     <path fill="rgb(92,165,211)" stroke="none" d="M 3827,5543 L 3827,5823 4107,5823 4107,5543 3827,5543 Z M 3837,5553 L 4097,5553 4097,5813 3837,5813 3837,5553 Z M 4172,5380 L 4225,5383 4277,5390 4326,5402 4374,5419 4419,5440 4461,5464 4500,5493 4536,5526 4569,5561 4598,5600 4623,5642 4644,5686 4661,5733 4673,5783 4680,5834 4683,5887 4680,5940 4673,5992 4661,6041 4644,6088 4623,6132 4598,6174 4569,6213 4536,6249 4500,6281 4461,6310 4419,6335 4374,6356 4326,6373 4277,6385 4225,6392 4172,6395 4119,6392 4067,6385 4018,6373 3970,6356 3926,6335 3884,6310 3845,6281 3809,6249 3776,6213 3747,6174 3722,6132 3701,6088 3684,6041 3672,5992 3665,5940 3662,5887 3665,5834 3672,5783 3684,5733 3701,5686 3722,5642 3747,5600 3776,5561 3809,5526 3845,5493 3884,5464 3926,5440 3970,5419 4018,5402 4067,5390 4119,5383 4172,5380 Z"/>
     <path fill="rgb(94,167,212)" stroke="none" d="M 3837,5553 L 3837,5813 4097,5813 4097,5553 3837,5553 Z M 3847,5563 L 4087,5563 4087,5803 3847,5803 3847,5563 Z M 4172,5380 L 4225,5383 4277,5390 4326,5402 4374,5419 4419,5440 4461,5464 4500,5493 4536,5526 4569,5561 4598,5600 4623,5642 4644,5686 4661,5733 4673,5783 4680,5834 4683,5887 4680,5940 4673,5992 4661,6041 4644,6088 4623,6132 4598,6174 4569,6213 4536,6249 4500,6281 4461,6310 4419,6335 4374,6356 4326,6373 4277,6385 4225,6392 4172,6395 4119,6392 4067,6385 4018,6373 3970,6356 3926,6335 3884,6310 3845,6281 3809,6249 3776,6213 3747,6174 3722,6132 3701,6088 3684,6041 3672,5992 3665,5940 3662,5887 3665,5834 3672,5783 3684,5733 3701,5686 3722,5642 3747,5600 3776,5561 3809,5526 3845,5493 3884,5464 3926,5440 3970,5419 4018,5402 4067,5390 4119,5383 4172,5380 Z"/>
     <path fill="rgb(97,168,213)" stroke="none" d="M 3847,5563 L 3847,5803 4087,5803 4087,5563 3847,5563 Z M 3857,5573 L 4077,5573 4077,5793 3857,5793 3857,5573 Z M 4172,5380 L 4225,5383 4277,5390 4326,5402 4374,5419 4419,5440 4461,5464 4500,5493 4536,5526 4569,5561 4598,5600 4623,5642 4644,5686 4661,5733 4673,5783 4680,5834 4683,5887 4680,5940 4673,5992 4661,6041 4644,6088 4623,6132 4598,6174 4569,6213 4536,6249 4500,6281 4461,6310 4419,6335 4374,6356 4326,6373 4277,6385 4225,6392 4172,6395 4119,6392 4067,6385 4018,6373 3970,6356 3926,6335 3884,6310 3845,6281 3809,6249 3776,6213 3747,6174 3722,6132 3701,6088 3684,6041 3672,5992 3665,5940 3662,5887 3665,5834 3672,5783 3684,5733 3701,5686 3722,5642 3747,5600 3776,5561 3809,5526 3845,5493 3884,5464 3926,5440 3970,5419 4018,5402 4067,5390 4119,5383 4172,5380 Z"/>
     <path fill="rgb(99,169,213)" stroke="none" d="M 3857,5573 L 3857,5793 4077,5793 4077,5573 3857,5573 Z M 3867,5583 L 4067,5583 4067,5783 3867,5783 3867,5583 Z M 4172,5380 L 4225,5383 4277,5390 4326,5402 4374,5419 4419,5440 4461,5464 4500,5493 4536,5526 4569,5561 4598,5600 4623,5642 4644,5686 4661,5733 4673,5783 4680,5834 4683,5887 4680,5940 4673,5992 4661,6041 4644,6088 4623,6132 4598,6174 4569,6213 4536,6249 4500,6281 4461,6310 4419,6335 4374,6356 4326,6373 4277,6385 4225,6392 4172,6395 4119,6392 4067,6385 4018,6373 3970,6356 3926,6335 3884,6310 3845,6281 3809,6249 3776,6213 3747,6174 3722,6132 3701,6088 3684,6041 3672,5992 3665,5940 3662,5887 3665,5834 3672,5783 3684,5733 3701,5686 3722,5642 3747,5600 3776,5561 3809,5526 3845,5493 3884,5464 3926,5440 3970,5419 4018,5402 4067,5390 4119,5383 4172,5380 Z"/>
     <path fill="rgb(102,171,214)" stroke="none" d="M 3867,5583 L 3867,5783 4067,5783 4067,5583 3867,5583 Z M 3877,5593 L 4057,5593 4057,5773 3877,5773 3877,5593 Z M 4172,5380 L 4225,5383 4277,5390 4326,5402 4374,5419 4419,5440 4461,5464 4500,5493 4536,5526 4569,5561 4598,5600 4623,5642 4644,5686 4661,5733 4673,5783 4680,5834 4683,5887 4680,5940 4673,5992 4661,6041 4644,6088 4623,6132 4598,6174 4569,6213 4536,6249 4500,6281 4461,6310 4419,6335 4374,6356 4326,6373 4277,6385 4225,6392 4172,6395 4119,6392 4067,6385 4018,6373 3970,6356 3926,6335 3884,6310 3845,6281 3809,6249 3776,6213 3747,6174 3722,6132 3701,6088 3684,6041 3672,5992 3665,5940 3662,5887 3665,5834 3672,5783 3684,5733 3701,5686 3722,5642 3747,5600 3776,5561 3809,5526 3845,5493 3884,5464 3926,5440 3970,5419 4018,5402 4067,5390 4119,5383 4172,5380 Z"/>
     <path fill="rgb(104,172,215)" stroke="none" d="M 3877,5593 L 3877,5773 4057,5773 4057,5593 3877,5593 Z M 3887,5603 L 4047,5603 4047,5763 3887,5763 3887,5603 Z M 4172,5380 L 4225,5383 4277,5390 4326,5402 4374,5419 4419,5440 4461,5464 4500,5493 4536,5526 4569,5561 4598,5600 4623,5642 4644,5686 4661,5733 4673,5783 4680,5834 4683,5887 4680,5940 4673,5992 4661,6041 4644,6088 4623,6132 4598,6174 4569,6213 4536,6249 4500,6281 4461,6310 4419,6335 4374,6356 4326,6373 4277,6385 4225,6392 4172,6395 4119,6392 4067,6385 4018,6373 3970,6356 3926,6335 3884,6310 3845,6281 3809,6249 3776,6213 3747,6174 3722,6132 3701,6088 3684,6041 3672,5992 3665,5940 3662,5887 3665,5834 3672,5783 3684,5733 3701,5686 3722,5642 3747,5600 3776,5561 3809,5526 3845,5493 3884,5464 3926,5440 3970,5419 4018,5402 4067,5390 4119,5383 4172,5380 Z"/>
     <path fill="rgb(107,174,215)" stroke="none" d="M 3887,5603 L 3887,5763 4047,5763 4047,5603 3887,5603 Z M 3897,5613 L 4037,5613 4037,5753 3897,5753 3897,5613 Z M 4172,5380 L 4225,5383 4277,5390 4326,5402 4374,5419 4419,5440 4461,5464 4500,5493 4536,5526 4569,5561 4598,5600 4623,5642 4644,5686 4661,5733 4673,5783 4680,5834 4683,5887 4680,5940 4673,5992 4661,6041 4644,6088 4623,6132 4598,6174 4569,6213 4536,6249 4500,6281 4461,6310 4419,6335 4374,6356 4326,6373 4277,6385 4225,6392 4172,6395 4119,6392 4067,6385 4018,6373 3970,6356 3926,6335 3884,6310 3845,6281 3809,6249 3776,6213 3747,6174 3722,6132 3701,6088 3684,6041 3672,5992 3665,5940 3662,5887 3665,5834 3672,5783 3684,5733 3701,5686 3722,5642 3747,5600 3776,5561 3809,5526 3845,5493 3884,5464 3926,5440 3970,5419 4018,5402 4067,5390 4119,5383 4172,5380 Z"/>
     <path fill="rgb(109,175,216)" stroke="none" d="M 3897,5613 L 3897,5753 4037,5753 4037,5613 3897,5613 Z M 3907,5623 L 4027,5623 4027,5743 3907,5743 3907,5623 Z M 4172,5380 L 4225,5383 4277,5390 4326,5402 4374,5419 4419,5440 4461,5464 4500,5493 4536,5526 4569,5561 4598,5600 4623,5642 4644,5686 4661,5733 4673,5783 4680,5834 4683,5887 4680,5940 4673,5992 4661,6041 4644,6088 4623,6132 4598,6174 4569,6213 4536,6249 4500,6281 4461,6310 4419,6335 4374,6356 4326,6373 4277,6385 4225,6392 4172,6395 4119,6392 4067,6385 4018,6373 3970,6356 3926,6335 3884,6310 3845,6281 3809,6249 3776,6213 3747,6174 3722,6132 3701,6088 3684,6041 3672,5992 3665,5940 3662,5887 3665,5834 3672,5783 3684,5733 3701,5686 3722,5642 3747,5600 3776,5561 3809,5526 3845,5493 3884,5464 3926,5440 3970,5419 4018,5402 4067,5390 4119,5383 4172,5380 Z"/>
     <path fill="rgb(112,176,217)" stroke="none" d="M 3907,5623 L 3907,5743 4027,5743 4027,5623 3907,5623 Z M 3917,5633 L 4017,5633 4017,5733 3917,5733 3917,5633 Z M 4172,5380 L 4225,5383 4277,5390 4326,5402 4374,5419 4419,5440 4461,5464 4500,5493 4536,5526 4569,5561 4598,5600 4623,5642 4644,5686 4661,5733 4673,5783 4680,5834 4683,5887 4680,5940 4673,5992 4661,6041 4644,6088 4623,6132 4598,6174 4569,6213 4536,6249 4500,6281 4461,6310 4419,6335 4374,6356 4326,6373 4277,6385 4225,6392 4172,6395 4119,6392 4067,6385 4018,6373 3970,6356 3926,6335 3884,6310 3845,6281 3809,6249 3776,6213 3747,6174 3722,6132 3701,6088 3684,6041 3672,5992 3665,5940 3662,5887 3665,5834 3672,5783 3684,5733 3701,5686 3722,5642 3747,5600 3776,5561 3809,5526 3845,5493 3884,5464 3926,5440 3970,5419 4018,5402 4067,5390 4119,5383 4172,5380 Z"/>
     <path fill="rgb(114,178,217)" stroke="none" d="M 3917,5633 L 3917,5733 4017,5733 4017,5633 3917,5633 Z M 3927,5643 L 4007,5643 4007,5723 3927,5723 3927,5643 Z M 4172,5380 L 4225,5383 4277,5390 4326,5402 4374,5419 4419,5440 4461,5464 4500,5493 4536,5526 4569,5561 4598,5600 4623,5642 4644,5686 4661,5733 4673,5783 4680,5834 4683,5887 4680,5940 4673,5992 4661,6041 4644,6088 4623,6132 4598,6174 4569,6213 4536,6249 4500,6281 4461,6310 4419,6335 4374,6356 4326,6373 4277,6385 4225,6392 4172,6395 4119,6392 4067,6385 4018,6373 3970,6356 3926,6335 3884,6310 3845,6281 3809,6249 3776,6213 3747,6174 3722,6132 3701,6088 3684,6041 3672,5992 3665,5940 3662,5887 3665,5834 3672,5783 3684,5733 3701,5686 3722,5642 3747,5600 3776,5561 3809,5526 3845,5493 3884,5464 3926,5440 3970,5419 4018,5402 4067,5390 4119,5383 4172,5380 Z"/>
     <path fill="rgb(117,179,218)" stroke="none" d="M 3927,5643 L 3927,5723 4007,5723 4007,5643 3927,5643 Z M 3937,5653 L 3997,5653 3997,5713 3937,5713 3937,5653 Z M 4172,5380 L 4225,5383 4277,5390 4326,5402 4374,5419 4419,5440 4461,5464 4500,5493 4536,5526 4569,5561 4598,5600 4623,5642 4644,5686 4661,5733 4673,5783 4680,5834 4683,5887 4680,5940 4673,5992 4661,6041 4644,6088 4623,6132 4598,6174 4569,6213 4536,6249 4500,6281 4461,6310 4419,6335 4374,6356 4326,6373 4277,6385 4225,6392 4172,6395 4119,6392 4067,6385 4018,6373 3970,6356 3926,6335 3884,6310 3845,6281 3809,6249 3776,6213 3747,6174 3722,6132 3701,6088 3684,6041 3672,5992 3665,5940 3662,5887 3665,5834 3672,5783 3684,5733 3701,5686 3722,5642 3747,5600 3776,5561 3809,5526 3845,5493 3884,5464 3926,5440 3970,5419 4018,5402 4067,5390 4119,5383 4172,5380 Z"/>
     <path fill="rgb(119,180,219)" stroke="none" d="M 3937,5653 L 3937,5713 3997,5713 3997,5653 3937,5653 Z M 3947,5663 L 3987,5663 3987,5703 3947,5703 3947,5663 Z M 4172,5380 L 4225,5383 4277,5390 4326,5402 4374,5419 4419,5440 4461,5464 4500,5493 4536,5526 4569,5561 4598,5600 4623,5642 4644,5686 4661,5733 4673,5783 4680,5834 4683,5887 4680,5940 4673,5992 4661,6041 4644,6088 4623,6132 4598,6174 4569,6213 4536,6249 4500,6281 4461,6310 4419,6335 4374,6356 4326,6373 4277,6385 4225,6392 4172,6395 4119,6392 4067,6385 4018,6373 3970,6356 3926,6335 3884,6310 3845,6281 3809,6249 3776,6213 3747,6174 3722,6132 3701,6088 3684,6041 3672,5992 3665,5940 3662,5887 3665,5834 3672,5783 3684,5733 3701,5686 3722,5642 3747,5600 3776,5561 3809,5526 3845,5493 3884,5464 3926,5440 3970,5419 4018,5402 4067,5390 4119,5383 4172,5380 Z"/>
     <path fill="rgb(122,182,219)" stroke="none" d="M 3947,5663 L 3947,5703 3987,5703 3987,5663 3947,5663 Z M 3957,5673 L 3977,5673 3977,5693 3957,5693 3957,5673 Z M 4172,5380 L 4225,5383 4277,5390 4326,5402 4374,5419 4419,5440 4461,5464 4500,5493 4536,5526 4569,5561 4598,5600 4623,5642 4644,5686 4661,5733 4673,5783 4680,5834 4683,5887 4680,5940 4673,5992 4661,6041 4644,6088 4623,6132 4598,6174 4569,6213 4536,6249 4500,6281 4461,6310 4419,6335 4374,6356 4326,6373 4277,6385 4225,6392 4172,6395 4119,6392 4067,6385 4018,6373 3970,6356 3926,6335 3884,6310 3845,6281 3809,6249 3776,6213 3747,6174 3722,6132 3701,6088 3684,6041 3672,5992 3665,5940 3662,5887 3665,5834 3672,5783 3684,5733 3701,5686 3722,5642 3747,5600 3776,5561 3809,5526 3845,5493 3884,5464 3926,5440 3970,5419 4018,5402 4067,5390 4119,5383 4172,5380 Z"/>
     <path fill="rgb(127,185,221)" stroke="none" d="M 3957,5673 L 3957,5693 3977,5693 3977,5673 3957,5673 Z M 4172,5380 L 4225,5383 4277,5390 4326,5402 4374,5419 4419,5440 4461,5464 4500,5493 4536,5526 4569,5561 4598,5600 4623,5642 4644,5686 4661,5733 4673,5783 4680,5834 4683,5887 4680,5940 4673,5992 4661,6041 4644,6088 4623,6132 4598,6174 4569,6213 4536,6249 4500,6281 4461,6310 4419,6335 4374,6356 4326,6373 4277,6385 4225,6392 4172,6395 4119,6392 4067,6385 4018,6373 3970,6356 3926,6335 3884,6310 3845,6281 3809,6249 3776,6213 3747,6174 3722,6132 3701,6088 3684,6041 3672,5992 3665,5940 3662,5887 3665,5834 3672,5783 3684,5733 3701,5686 3722,5642 3747,5600 3776,5561 3809,5526 3845,5493 3884,5464 3926,5440 3970,5419 4018,5402 4067,5390 4119,5383 4172,5380 Z"/>
     <path fill="none" stroke="rgb(0,0,0)" id="Drawing_25_0" stroke-width="40" stroke-linejoin="round" d="M 4172,5380 C 4461,5380 4683,5599 4683,5887 4683,6175 4461,6395 4172,6395 3883,6395 3662,6175 3662,5887 3662,5599 3883,5380 4172,5380 Z"/>
     <rect fill="none" stroke="none" x="3663" y="5381" width="1022" height="1016"/>
    </g>
    <g>
     <path fill="rgb(57,181,74)" stroke="none" d="M 3890,5479 L 4003,5479 4060,5446 4173,5413 4343,5479 4230,5479 4287,5577 4117,5740 4060,5773 4003,5806 4117,5872 4173,5937 4343,5937 4513,6035 4400,6232 4230,6363 4230,6167 4117,6035 4173,5970 4060,5872 3947,5839 3890,5708 3890,5479 Z"/>
     <path fill="none" stroke="rgb(128,128,128)" id="Drawing_26_0" stroke-width="40" stroke-linejoin="round" d="M 3890,5479 L 4003,5479 4060,5446 4173,5413 4343,5479 4230,5479 4287,5577 4117,5740 4060,5773 4003,5806 4117,5872 4173,5937 4343,5937 4513,6035 4400,6232 4230,6363 4230,6167 4117,6035 4173,5970 4060,5872 3947,5839 3890,5708 3890,5479 Z"/>
    </g>
    <g>
     <path fill="rgb(57,181,74)" stroke="none" d="M 4627,5905 L 4627,5872 4570,5774 4570,5675 4513,5544 4400,5479 C 4513,5414 4740,5839 4627,5905 Z"/>
     <path fill="none" stroke="rgb(128,128,128)" id="Drawing_27_0" stroke-width="40" stroke-linejoin="round" d="M 4627,5905 L 4627,5872 4570,5774 4570,5675 4513,5544 4400,5479 C 4513,5414 4740,5839 4627,5905 Z"/>
    </g>
    <g id="DrawingGroup_7">
     <g>
      <path fill="none" stroke="rgb(255,255,255)" id="Drawing_28_0" stroke-width="40" stroke-linejoin="round" d="M 4117,6035 L 4060,5806"/>
     </g>
     <g>
      <path fill="none" stroke="rgb(255,255,255)" id="Drawing_29_0" stroke-width="40" stroke-linejoin="round" d="M 4116,6036 L 4173,5872"/>
     </g>
     <g>
      <path fill="none" stroke="rgb(255,255,255)" id="Drawing_30_0" stroke-width="40" stroke-linejoin="round" d="M 4230,6036 L 4173,5872"/>
     </g>
     <g>
      <path fill="none" stroke="rgb(255,255,255)" id="Drawing_31_0" stroke-width="40" stroke-linejoin="round" d="M 4230,6035 L 4287,5806"/>
     </g>
    </g>
    <g id="DrawingGroup_8">
     <g>
      <path fill="none" stroke="rgb(255,255,255)" id="Drawing_32_0" stroke-width="40" stroke-linejoin="round" d="M 4457,6035 L 4400,5806"/>
     </g>
     <g>
      <path fill="none" stroke="rgb(255,255,255)" id="Drawing_33_0" stroke-width="40" stroke-linejoin="round" d="M 4456,6036 L 4513,5872"/>
     </g>
     <g>
      <path fill="none" stroke="rgb(255,255,255)" id="Drawing_34_0" stroke-width="40" stroke-linejoin="round" d="M 4570,6036 L 4513,5872"/>
     </g>
     <g>
      <path fill="none" stroke="rgb(255,255,255)" id="Drawing_35_0" stroke-width="40" stroke-linejoin="round" d="M 4570,6035 L 4627,5806"/>
     </g>
    </g>
    <g id="DrawingGroup_9">
     <g>
      <path fill="none" stroke="rgb(255,255,255)" id="Drawing_36_0" stroke-width="40" stroke-linejoin="round" d="M 3777,6035 L 3720,5806"/>
     </g>
     <g>
      <path fill="none" stroke="rgb(255,255,255)" id="Drawing_37_0" stroke-width="40" stroke-linejoin="round" d="M 3776,6036 L 3833,5872"/>
     </g>
     <g>
      <path fill="none" stroke="rgb(255,255,255)" id="Drawing_38_0" stroke-width="40" stroke-linejoin="round" d="M 3890,6036 L 3833,5872"/>
     </g>
     <g>
      <path fill="none" stroke="rgb(255,255,255)" id="Drawing_39_0" stroke-width="40" stroke-linejoin="round" d="M 3890,6035 L 3947,5806"/>
     </g>
    </g>
   </g>
  </g>
 </g>
</svg>