<?xml version="1.0" encoding="UTF-8"?>

<svg version="1.2" baseProfile="tiny" width="52.34mm" height="50.62mm" viewBox="7958 14024 5234 5062" preserveAspectRatio="xMidYMid" fill-rule="evenodd" stroke-width="28.222" stroke-linejoin="round" xmlns="http://www.w3.org/2000/svg" xmlns:xlink="http://www.w3.org/1999/xlink" xml:space="preserve">
 <g visibility="visible" id="Slide_1">
  <g id="DrawingGroup_1">
   <g>
    <path fill="rgb(221,221,221)" stroke="none" d="M 9909,19010 C 10174,19010 13191,17615 13191,17448 13191,17280 13070,17113 12805,17113 12805,17280 9909,18731 9909,19010 Z"/>
    <path fill="none" stroke="rgb(221,221,221)" id="Drawing_1_0" stroke-linejoin="round" d="M 9909,19010 C 10174,19010 13191,17615 13191,17448 13191,17280 13070,17113 12805,17113 12805,17280 9909,18731 9909,19010 Z"/>
   </g>
   <g id="DrawingGroup_2">
    <g>
     <defs>
      <linearGradient id="Gradient_1051" gradientUnits="userSpaceOnUse" x1="7974" y1="17390" x2="9911" y2="17394">
       <stop offset="0.1" stop-color="rgb(51,51,51)"/>
       <stop offset="1" stop-color="rgb(153,153,153)"/>
      </linearGradient>
     </defs>
     <path fill="url(#Gradient_1051)" stroke="rgb(178,178,178)" id="Drawing_2_0" stroke-width="40" stroke-linejoin="round" d="M 7978,17950 L 7978,15718 9909,16834 9909,19066 7978,17950 Z"/>
    </g>
    <g>
     <path fill="rgb(51,51,51)" stroke="none" d="M 12711,17446 L 11295,18265 9909,18265 9909,16834 12711,15214 12711,17446 Z"/>
     <path fill="rgb(52,52,52)" stroke="none" d="M 11295,18265 L 9909,19066 9909,18265 11295,18265 Z M 12711,15214 L 12805,15160 12805,17392 12711,17446 12711,15214 Z M 12692,17457 L 11328,18246 9909,18246 9909,16834 12692,15225 12692,17457 Z"/>
     <path fill="rgb(53,53,53)" stroke="none" d="M 11328,18246 L 9909,19066 9909,18246 11328,18246 Z M 12692,15225 L 12805,15160 12805,17392 12692,17457 12692,15225 Z M 12673,17468 L 11360,18227 9909,18227 9909,16834 12673,15236 12673,17468 Z"/>
     <path fill="rgb(54,54,54)" stroke="none" d="M 11360,18227 L 9909,19066 9909,18227 11360,18227 Z M 12673,15236 L 12805,15160 12805,17392 12673,17468 12673,15236 Z M 12654,17479 L 11393,18208 9909,18208 9909,16834 12654,15247 12654,17479 Z"/>
     <path fill="rgb(55,55,55)" stroke="none" d="M 11393,18208 L 9909,19066 9909,18208 11393,18208 Z M 12654,15247 L 12805,15160 12805,17392 12654,17479 12654,15247 Z M 12635,17490 L 11426,18189 9909,18189 9909,16834 12635,15258 12635,17490 Z"/>
     <path fill="rgb(56,56,56)" stroke="none" d="M 11426,18189 L 9909,19066 9909,18189 11426,18189 Z M 12635,15258 L 12805,15160 12805,17392 12635,17490 12635,15258 Z M 12616,17501 L 11459,18170 9909,18170 9909,16834 12616,15269 12616,17501 Z"/>
     <path fill="rgb(57,57,57)" stroke="none" d="M 11459,18170 L 9909,19066 9909,18170 11459,18170 Z M 12616,15269 L 12805,15160 12805,17392 12616,17501 12616,15269 Z M 12596,17513 L 11494,18150 9909,18150 9909,16834 12596,15281 12596,17513 Z"/>
     <path fill="rgb(58,58,58)" stroke="none" d="M 11494,18150 L 9909,19066 9909,18150 11494,18150 Z M 12596,15281 L 12805,15160 12805,17392 12596,17513 12596,15281 Z M 12577,17524 L 11527,18131 9909,18131 9909,16834 12577,15292 12577,17524 Z"/>
     <path fill="rgb(59,59,59)" stroke="none" d="M 11527,18131 L 9909,19066 9909,18131 11527,18131 Z M 12577,15292 L 12805,15160 12805,17392 12577,17524 12577,15292 Z M 12558,17535 L 11559,18112 9909,18112 9909,16834 12558,15303 12558,17535 Z"/>
     <path fill="rgb(60,60,60)" stroke="none" d="M 11559,18112 L 9909,19066 9909,18112 11559,18112 Z M 12558,15303 L 12805,15160 12805,17392 12558,17535 12558,15303 Z M 12539,17546 L 11592,18093 9909,18093 9909,16834 12539,15314 12539,17546 Z"/>
     <path fill="rgb(61,61,61)" stroke="none" d="M 11592,18093 L 9909,19066 9909,18093 11592,18093 Z M 12539,15314 L 12805,15160 12805,17392 12539,17546 12539,15314 Z M 12520,17557 L 11625,18074 9909,18074 9909,16834 12520,15325 12520,17557 Z"/>
     <path fill="rgb(62,62,62)" stroke="none" d="M 11625,18074 L 9909,19066 9909,18074 11625,18074 Z M 12520,15325 L 12805,15160 12805,17392 12520,17557 12520,15325 Z M 12501,17568 L 11658,18055 9909,18055 9909,16834 12501,15336 12501,17568 Z"/>
     <path fill="rgb(63,63,63)" stroke="none" d="M 11658,18055 L 9909,19066 9909,18055 11658,18055 Z M 12501,15336 L 12805,15160 12805,17392 12501,17568 12501,15336 Z M 12481,17579 L 11693,18035 9909,18035 9909,16834 12481,15347 12481,17579 Z"/>
     <path fill="rgb(64,64,64)" stroke="none" d="M 11693,18035 L 9909,19066 9909,18035 11693,18035 Z M 12481,15347 L 12805,15160 12805,17392 12481,17579 12481,15347 Z M 12462,17590 L 11725,18016 9909,18016 9909,16834 12462,15358 12462,17590 Z"/>
     <path fill="rgb(65,65,65)" stroke="none" d="M 11725,18016 L 9909,19066 9909,18016 11725,18016 Z M 12462,15358 L 12805,15160 12805,17392 12462,17590 12462,15358 Z M 12443,17601 L 11758,17997 9909,17997 9909,16834 12443,15369 12443,17601 Z"/>
     <path fill="rgb(66,66,66)" stroke="none" d="M 11758,17997 L 9909,19066 9909,17997 11758,17997 Z M 12443,15369 L 12805,15160 12805,17392 12443,17601 12443,15369 Z M 12424,17612 L 11791,17978 9909,17978 9909,16834 12424,15380 12424,17612 Z"/>
     <path fill="rgb(67,67,67)" stroke="none" d="M 11791,17978 L 9909,19066 9909,17978 11791,17978 Z M 12424,15380 L 12805,15160 12805,17392 12424,17612 12424,15380 Z M 12405,17623 L 11824,17959 9909,17959 9909,16834 12405,15391 12405,17623 Z"/>
     <path fill="rgb(68,68,68)" stroke="none" d="M 11824,17959 L 9909,19066 9909,17959 11824,17959 Z M 12405,15391 L 12805,15160 12805,17392 12405,17623 12405,15391 Z M 12386,17634 L 11857,17940 9909,17940 9909,16834 12386,15402 12386,17634 Z"/>
     <path fill="rgb(69,69,69)" stroke="none" d="M 11857,17940 L 9909,19066 9909,17940 11857,17940 Z M 12386,15402 L 12805,15160 12805,17392 12386,17634 12386,15402 Z M 12366,17646 L 11892,17920 9909,17920 9909,16834 12366,15414 12366,17646 Z"/>
     <path fill="rgb(70,70,70)" stroke="none" d="M 11892,17920 L 9909,19066 9909,17920 11892,17920 Z M 12366,15414 L 12805,15160 12805,17392 12366,17646 12366,15414 Z M 12347,17657 L 11924,17901 9909,17901 9909,16834 12347,15425 12347,17657 Z"/>
     <path fill="rgb(71,71,71)" stroke="none" d="M 11924,17901 L 9909,19066 9909,17901 11924,17901 Z M 12347,15425 L 12805,15160 12805,17392 12347,17657 12347,15425 Z M 12328,17668 L 11957,17882 9909,17882 9909,16834 12328,15436 12328,17668 Z"/>
     <path fill="rgb(72,72,72)" stroke="none" d="M 11957,17882 L 9909,19066 9909,17882 11957,17882 Z M 12328,15436 L 12805,15160 12805,17392 12328,17668 12328,15436 Z M 12309,17679 L 11990,17863 9909,17863 9909,16834 12309,15447 12309,17679 Z"/>
     <path fill="rgb(73,73,73)" stroke="none" d="M 11990,17863 L 9909,19066 9909,17863 11990,17863 Z M 12309,15447 L 12805,15160 12805,17392 12309,17679 12309,15447 Z M 12290,17690 L 12023,17844 9909,17844 9909,16834 12290,15458 12290,17690 Z"/>
     <path fill="rgb(74,74,74)" stroke="none" d="M 12023,17844 L 9909,19066 9909,17844 12023,17844 Z M 12290,15458 L 12805,15160 12805,17392 12290,17690 12290,15458 Z M 12271,17701 L 12056,17825 9909,17825 9909,16834 12271,15469 12271,17701 Z"/>
     <path fill="rgb(75,75,75)" stroke="none" d="M 12056,17825 L 9909,19066 9909,17825 12056,17825 Z M 12271,15469 L 12805,15160 12805,17392 12271,17701 12271,15469 Z M 12251,17712 L 12091,17805 9909,17805 9909,16834 12251,15480 12251,17712 Z"/>
     <path fill="rgb(76,76,76)" stroke="none" d="M 12091,17805 L 9909,19066 9909,17805 12091,17805 Z M 12251,15480 L 12805,15160 12805,17392 12251,17712 12251,15480 Z M 12232,17723 L 12123,17786 9909,17786 9909,16834 12232,15491 12232,17723 Z"/>
     <path fill="rgb(77,77,77)" stroke="none" d="M 12123,17786 L 9909,19066 9909,17786 12123,17786 Z M 12232,15491 L 12805,15160 12805,17392 12232,17723 12232,15491 Z M 12213,17734 L 12156,17767 9909,17767 9909,16834 12213,15502 12213,17734 Z"/>
     <path fill="rgb(78,78,78)" stroke="none" d="M 12156,17767 L 9909,19066 9909,17767 12156,17767 Z M 12213,15502 L 12805,15160 12805,17392 12213,17734 12213,15502 Z M 12194,17745 L 12189,17748 9909,17748 9909,16834 12194,15513 12194,17745 Z"/>
     <path fill="rgb(79,79,79)" stroke="none" d="M 12189,17748 L 9909,19066 9909,17748 12189,17748 Z M 12194,15513 L 12805,15160 12805,17392 12194,17745 12194,15513 Z M 12175,17729 L 9909,17729 9909,16834 12175,15524 12175,17729 Z"/>
     <path fill="rgb(80,80,80)" stroke="none" d="M 12175,17729 L 12175,15524 12805,15160 12805,17392 9909,19066 9909,17729 12175,17729 Z M 12156,17710 L 9909,17710 9909,16834 12156,15535 12156,17710 Z"/>
     <path fill="rgb(81,81,81)" stroke="none" d="M 12156,17710 L 12156,15535 12805,15160 12805,17392 9909,19066 9909,17710 12156,17710 Z M 12136,17690 L 9909,17690 9909,16834 12136,15547 12136,17690 Z"/>
     <path fill="rgb(82,82,82)" stroke="none" d="M 12136,17690 L 12136,15547 12805,15160 12805,17392 9909,19066 9909,17690 12136,17690 Z M 12117,17671 L 9909,17671 9909,16834 12117,15558 12117,17671 Z"/>
     <path fill="rgb(83,83,83)" stroke="none" d="M 12117,17671 L 12117,15558 12805,15160 12805,17392 9909,19066 9909,17671 12117,17671 Z M 12098,17652 L 9909,17652 9909,16834 12098,15569 12098,17652 Z"/>
     <path fill="rgb(84,84,84)" stroke="none" d="M 12098,17652 L 12098,15569 12805,15160 12805,17392 9909,19066 9909,17652 12098,17652 Z M 12079,17633 L 9909,17633 9909,16834 12079,15580 12079,17633 Z"/>
     <path fill="rgb(85,85,85)" stroke="none" d="M 12079,17633 L 12079,15580 12805,15160 12805,17392 9909,19066 9909,17633 12079,17633 Z M 12060,17614 L 9909,17614 9909,16834 12060,15591 12060,17614 Z"/>
     <path fill="rgb(86,86,86)" stroke="none" d="M 12060,17614 L 12060,15591 12805,15160 12805,17392 9909,19066 9909,17614 12060,17614 Z M 12041,17595 L 9909,17595 9909,16834 12041,15602 12041,17595 Z"/>
     <path fill="rgb(87,87,87)" stroke="none" d="M 12041,17595 L 12041,15602 12805,15160 12805,17392 9909,19066 9909,17595 12041,17595 Z M 12022,17576 L 9909,17576 9909,16834 12022,15613 12022,17576 Z"/>
     <path fill="rgb(88,88,88)" stroke="none" d="M 12022,17576 L 12022,15613 12805,15160 12805,17392 9909,19066 9909,17576 12022,17576 Z M 12002,17556 L 9909,17556 9909,16834 12002,15624 12002,17556 Z"/>
     <path fill="rgb(89,89,89)" stroke="none" d="M 12002,17556 L 12002,15624 12805,15160 12805,17392 9909,19066 9909,17556 12002,17556 Z M 11983,17537 L 9909,17537 9909,16834 11983,15635 11983,17537 Z"/>
     <path fill="rgb(90,90,90)" stroke="none" d="M 11983,17537 L 11983,15635 12805,15160 12805,17392 9909,19066 9909,17537 11983,17537 Z M 11964,17518 L 9909,17518 9909,16834 11964,15646 11964,17518 Z"/>
     <path fill="rgb(91,91,91)" stroke="none" d="M 11964,17518 L 11964,15646 12805,15160 12805,17392 9909,19066 9909,17518 11964,17518 Z M 11945,17499 L 9909,17499 9909,16834 11945,15657 11945,17499 Z"/>
     <path fill="rgb(92,92,92)" stroke="none" d="M 11945,17499 L 11945,15657 12805,15160 12805,17392 9909,19066 9909,17499 11945,17499 Z M 11926,17480 L 9909,17480 9909,16834 11926,15668 11926,17480 Z"/>
     <path fill="rgb(93,93,93)" stroke="none" d="M 11926,17480 L 11926,15668 12805,15160 12805,17392 9909,19066 9909,17480 11926,17480 Z M 11907,17461 L 9909,17461 9909,16834 11907,15679 11907,17461 Z"/>
     <path fill="rgb(94,94,94)" stroke="none" d="M 11907,17461 L 11907,15679 12805,15160 12805,17392 9909,19066 9909,17461 11907,17461 Z M 11887,17441 L 9909,17441 9909,16834 11887,15691 11887,17441 Z"/>
     <path fill="rgb(95,95,95)" stroke="none" d="M 11887,17441 L 11887,15691 12805,15160 12805,17392 9909,19066 9909,17441 11887,17441 Z M 11868,17422 L 9909,17422 9909,16834 11868,15702 11868,17422 Z"/>
     <path fill="rgb(96,96,96)" stroke="none" d="M 11868,17422 L 11868,15702 12805,15160 12805,17392 9909,19066 9909,17422 11868,17422 Z M 11849,17403 L 9909,17403 9909,16834 11849,15713 11849,17403 Z"/>
     <path fill="rgb(97,97,97)" stroke="none" d="M 11849,17403 L 11849,15713 12805,15160 12805,17392 9909,19066 9909,17403 11849,17403 Z M 11830,17384 L 9909,17384 9909,16834 11830,15724 11830,17384 Z"/>
     <path fill="rgb(98,98,98)" stroke="none" d="M 11830,17384 L 11830,15724 12805,15160 12805,17392 9909,19066 9909,17384 11830,17384 Z M 11811,17365 L 9909,17365 9909,16834 11811,15735 11811,17365 Z"/>
     <path fill="rgb(99,99,99)" stroke="none" d="M 11811,17365 L 11811,15735 12805,15160 12805,17392 9909,19066 9909,17365 11811,17365 Z M 11792,17346 L 9909,17346 9909,16834 11792,15746 11792,17346 Z"/>
     <path fill="rgb(100,100,100)" stroke="none" d="M 11792,17346 L 11792,15746 12805,15160 12805,17392 9909,19066 9909,17346 11792,17346 Z M 11772,17326 L 9909,17326 9909,16834 11772,15757 11772,17326 Z"/>
     <path fill="rgb(101,101,101)" stroke="none" d="M 11772,17326 L 11772,15757 12805,15160 12805,17392 9909,19066 9909,17326 11772,17326 Z M 11753,17307 L 9909,17307 9909,16834 11753,15768 11753,17307 Z"/>
     <path fill="rgb(102,102,102)" stroke="none" d="M 11753,17307 L 11753,15768 12805,15160 12805,17392 9909,19066 9909,17307 11753,17307 Z M 11734,17288 L 9909,17288 9909,16834 11734,15779 11734,17288 Z"/>
     <path fill="rgb(103,103,103)" stroke="none" d="M 11734,17288 L 11734,15779 12805,15160 12805,17392 9909,19066 9909,17288 11734,17288 Z M 11715,17269 L 9909,17269 9909,16834 11715,15790 11715,17269 Z"/>
     <path fill="rgb(104,104,104)" stroke="none" d="M 11715,17269 L 11715,15790 12805,15160 12805,17392 9909,19066 9909,17269 11715,17269 Z M 11696,17250 L 9909,17250 9909,16834 11696,15801 11696,17250 Z"/>
     <path fill="rgb(105,105,105)" stroke="none" d="M 11696,17250 L 11696,15801 12805,15160 12805,17392 9909,19066 9909,17250 11696,17250 Z M 11677,17231 L 9909,17231 9909,16834 11677,15812 11677,17231 Z"/>
     <path fill="rgb(106,106,106)" stroke="none" d="M 11677,17231 L 11677,15812 12805,15160 12805,17392 9909,19066 9909,17231 11677,17231 Z M 11657,17211 L 9909,17211 9909,16834 11657,15824 11657,17211 Z"/>
     <path fill="rgb(107,107,107)" stroke="none" d="M 11657,17211 L 11657,15824 12805,15160 12805,17392 9909,19066 9909,17211 11657,17211 Z M 11638,17192 L 9915,17192 9915,16831 11638,15835 11638,17192 Z"/>
     <path fill="rgb(108,108,108)" stroke="none" d="M 9915,17192 L 11638,17192 11638,15835 12805,15160 12805,17392 9909,19066 9909,16834 9915,16831 9915,17192 Z M 11619,17173 L 9934,17173 9934,16820 11619,15846 11619,17173 Z"/>
     <path fill="rgb(109,109,109)" stroke="none" d="M 9934,17173 L 11619,17173 11619,15846 12805,15160 12805,17392 9909,19066 9909,16834 9934,16820 9934,17173 Z M 11600,17154 L 9953,17154 9953,16809 11600,15857 11600,17154 Z"/>
     <path fill="rgb(110,110,110)" stroke="none" d="M 9953,17154 L 11600,17154 11600,15857 12805,15160 12805,17392 9909,19066 9909,16834 9953,16809 9953,17154 Z M 11581,17135 L 9972,17135 9972,16798 11581,15868 11581,17135 Z"/>
     <path fill="rgb(111,111,111)" stroke="none" d="M 9972,17135 L 11581,17135 11581,15868 12805,15160 12805,17392 9909,19066 9909,16834 9972,16798 9972,17135 Z M 11562,17116 L 9991,17116 9991,16787 11562,15879 11562,17116 Z"/>
     <path fill="rgb(112,112,112)" stroke="none" d="M 9991,17116 L 11562,17116 11562,15879 12805,15160 12805,17392 9909,19066 9909,16834 9991,16787 9991,17116 Z M 11542,17096 L 10011,17096 10011,16775 11542,15890 11542,17096 Z"/>
     <path fill="rgb(113,113,113)" stroke="none" d="M 10011,17096 L 11542,17096 11542,15890 12805,15160 12805,17392 9909,19066 9909,16834 10011,16775 10011,17096 Z M 11523,17077 L 10030,17077 10030,16764 11523,15901 11523,17077 Z"/>
     <path fill="rgb(114,114,114)" stroke="none" d="M 10030,17077 L 11523,17077 11523,15901 12805,15160 12805,17392 9909,19066 9909,16834 10030,16764 10030,17077 Z M 11504,17058 L 10049,17058 10049,16753 11504,15912 11504,17058 Z"/>
     <path fill="rgb(115,115,115)" stroke="none" d="M 10049,17058 L 11504,17058 11504,15912 12805,15160 12805,17392 9909,19066 9909,16834 10049,16753 10049,17058 Z M 11485,17039 L 10068,17039 10068,16742 11485,15923 11485,17039 Z"/>
     <path fill="rgb(116,116,116)" stroke="none" d="M 10068,17039 L 11485,17039 11485,15923 12805,15160 12805,17392 9909,19066 9909,16834 10068,16742 10068,17039 Z M 11466,17020 L 10087,17020 10087,16731 11466,15934 11466,17020 Z"/>
     <path fill="rgb(117,117,117)" stroke="none" d="M 10087,17020 L 11466,17020 11466,15934 12805,15160 12805,17392 9909,19066 9909,16834 10087,16731 10087,17020 Z M 11447,17001 L 10106,17001 10106,16720 11447,15945 11447,17001 Z"/>
     <path fill="rgb(118,118,118)" stroke="none" d="M 10106,17001 L 11447,17001 11447,15945 12805,15160 12805,17392 9909,19066 9909,16834 10106,16720 10106,17001 Z M 11427,16981 L 10125,16981 10125,16709 11427,15957 11427,16981 Z"/>
     <path fill="rgb(119,119,119)" stroke="none" d="M 10125,16981 L 11427,16981 11427,15957 12805,15160 12805,17392 9909,19066 9909,16834 10125,16709 10125,16981 Z M 11408,16962 L 10145,16962 10145,16698 11408,15968 11408,16962 Z"/>
     <path fill="rgb(120,120,120)" stroke="none" d="M 10145,16962 L 11408,16962 11408,15968 12805,15160 12805,17392 9909,19066 9909,16834 10145,16698 10145,16962 Z M 11389,16943 L 10164,16943 10164,16687 11389,15979 11389,16943 Z"/>
     <path fill="rgb(121,121,121)" stroke="none" d="M 10164,16943 L 11389,16943 11389,15979 12805,15160 12805,17392 9909,19066 9909,16834 10164,16687 10164,16943 Z M 11370,16924 L 10183,16924 10183,16676 11370,15989 11370,16924 Z"/>
     <path fill="rgb(122,122,122)" stroke="none" d="M 10183,16924 L 11370,16924 11370,15989 12805,15160 12805,17392 9909,19066 9909,16834 10183,16676 10183,16924 Z M 11351,16905 L 10202,16905 10202,16665 11351,16000 11351,16905 Z"/>
     <path fill="rgb(123,123,123)" stroke="none" d="M 10202,16905 L 11351,16905 11351,16000 12805,15160 12805,17392 9909,19066 9909,16834 10202,16665 10202,16905 Z M 11332,16886 L 10221,16886 10221,16654 11332,16011 11332,16886 Z"/>
     <path fill="rgb(124,124,124)" stroke="none" d="M 10221,16886 L 11332,16886 11332,16011 12805,15160 12805,17392 9909,19066 9909,16834 10221,16654 10221,16886 Z M 11313,16867 L 10240,16867 10240,16643 11313,16022 11313,16867 Z"/>
     <path fill="rgb(125,125,125)" stroke="none" d="M 10240,16867 L 11313,16867 11313,16022 12805,15160 12805,17392 9909,19066 9909,16834 10240,16643 10240,16867 Z M 11293,16847 L 10260,16847 10260,16631 11293,16034 11293,16847 Z"/>
     <path fill="rgb(126,126,126)" stroke="none" d="M 10260,16847 L 11293,16847 11293,16034 12805,15160 12805,17392 9909,19066 9909,16834 10260,16631 10260,16847 Z M 11274,16828 L 10279,16828 10279,16620 11274,16045 11274,16828 Z"/>
     <path fill="rgb(127,127,127)" stroke="none" d="M 10279,16828 L 11274,16828 11274,16045 12805,15160 12805,17392 9909,19066 9909,16834 10279,16620 10279,16828 Z M 11255,16809 L 10298,16809 10298,16609 11255,16056 11255,16809 Z"/>
     <path fill="rgb(128,128,128)" stroke="none" d="M 10298,16809 L 11255,16809 11255,16056 12805,15160 12805,17392 9909,19066 9909,16834 10298,16609 10298,16809 Z M 11236,16790 L 10317,16790 10317,16598 11236,16067 11236,16790 Z"/>
     <path fill="rgb(129,129,129)" stroke="none" d="M 10317,16790 L 11236,16790 11236,16067 12805,15160 12805,17392 9909,19066 9909,16834 10317,16598 10317,16790 Z M 11217,16771 L 10336,16771 10336,16587 11217,16078 11217,16771 Z"/>
     <path fill="rgb(130,130,130)" stroke="none" d="M 10336,16771 L 11217,16771 11217,16078 12805,15160 12805,17392 9909,19066 9909,16834 10336,16587 10336,16771 Z M 11198,16752 L 10355,16752 10355,16576 11198,16089 11198,16752 Z"/>
     <path fill="rgb(131,131,131)" stroke="none" d="M 10355,16752 L 11198,16752 11198,16089 12805,15160 12805,17392 9909,19066 9909,16834 10355,16576 10355,16752 Z M 11178,16732 L 10375,16732 10375,16565 11178,16100 11178,16732 Z"/>
     <path fill="rgb(132,132,132)" stroke="none" d="M 10375,16732 L 11178,16732 11178,16100 12805,15160 12805,17392 9909,19066 9909,16834 10375,16565 10375,16732 Z M 11159,16713 L 10394,16713 10394,16554 11159,16111 11159,16713 Z"/>
     <path fill="rgb(133,133,133)" stroke="none" d="M 10394,16713 L 11159,16713 11159,16111 12805,15160 12805,17392 9909,19066 9909,16834 10394,16554 10394,16713 Z M 11140,16694 L 10413,16694 10413,16543 11140,16122 11140,16694 Z"/>
     <path fill="rgb(134,134,134)" stroke="none" d="M 10413,16694 L 11140,16694 11140,16122 12805,15160 12805,17392 9909,19066 9909,16834 10413,16543 10413,16694 Z M 11121,16675 L 10432,16675 10432,16532 11121,16133 11121,16675 Z"/>
     <path fill="rgb(135,135,135)" stroke="none" d="M 10432,16675 L 11121,16675 11121,16133 12805,15160 12805,17392 9909,19066 9909,16834 10432,16532 10432,16675 Z M 11102,16656 L 10451,16656 10451,16521 11102,16144 11102,16656 Z"/>
     <path fill="rgb(136,136,136)" stroke="none" d="M 10451,16656 L 11102,16656 11102,16144 12805,15160 12805,17392 9909,19066 9909,16834 10451,16521 10451,16656 Z M 11083,16637 L 10470,16637 10470,16510 11083,16155 11083,16637 Z"/>
     <path fill="rgb(137,137,137)" stroke="none" d="M 10470,16637 L 11083,16637 11083,16155 12805,15160 12805,17392 9909,19066 9909,16834 10470,16510 10470,16637 Z M 11063,16617 L 10490,16617 10490,16498 11063,16167 11063,16617 Z"/>
     <path fill="rgb(138,138,138)" stroke="none" d="M 10490,16617 L 11063,16617 11063,16167 12805,15160 12805,17392 9909,19066 9909,16834 10490,16498 10490,16617 Z M 11044,16598 L 10509,16598 10509,16487 11044,16178 11044,16598 Z"/>
     <path fill="rgb(139,139,139)" stroke="none" d="M 10509,16598 L 11044,16598 11044,16178 12805,15160 12805,17392 9909,19066 9909,16834 10509,16487 10509,16598 Z M 11025,16579 L 10528,16579 10528,16476 11025,16189 11025,16579 Z"/>
     <path fill="rgb(140,140,140)" stroke="none" d="M 10528,16579 L 11025,16579 11025,16189 12805,15160 12805,17392 9909,19066 9909,16834 10528,16476 10528,16579 Z M 11006,16560 L 10547,16560 10547,16465 11006,16200 11006,16560 Z"/>
     <path fill="rgb(141,141,141)" stroke="none" d="M 10547,16560 L 11006,16560 11006,16200 12805,15160 12805,17392 9909,19066 9909,16834 10547,16465 10547,16560 Z M 10987,16541 L 10566,16541 10566,16454 10987,16211 10987,16541 Z"/>
     <path fill="rgb(142,142,142)" stroke="none" d="M 10566,16541 L 10987,16541 10987,16211 12805,15160 12805,17392 9909,19066 9909,16834 10566,16454 10566,16541 Z M 10968,16522 L 10585,16522 10585,16443 10968,16222 10968,16522 Z"/>
     <path fill="rgb(143,143,143)" stroke="none" d="M 10585,16522 L 10968,16522 10968,16222 12805,15160 12805,17392 9909,19066 9909,16834 10585,16443 10585,16522 Z M 10948,16502 L 10605,16502 10605,16432 10948,16233 10948,16502 Z"/>
     <path fill="rgb(144,144,144)" stroke="none" d="M 10605,16502 L 10948,16502 10948,16233 12805,15160 12805,17392 9909,19066 9909,16834 10605,16432 10605,16502 Z M 10929,16483 L 10624,16483 10624,16421 10929,16244 10929,16483 Z"/>
     <path fill="rgb(145,145,145)" stroke="none" d="M 10624,16483 L 10929,16483 10929,16244 12805,15160 12805,17392 9909,19066 9909,16834 10624,16421 10624,16483 Z M 10910,16464 L 10643,16464 10643,16410 10910,16255 10910,16464 Z"/>
     <path fill="rgb(146,146,146)" stroke="none" d="M 10643,16464 L 10910,16464 10910,16255 12805,15160 12805,17392 9909,19066 9909,16834 10643,16410 10643,16464 Z M 10891,16445 L 10662,16445 10662,16399 10891,16266 10891,16445 Z"/>
     <path fill="rgb(147,147,147)" stroke="none" d="M 10662,16445 L 10891,16445 10891,16266 12805,15160 12805,17392 9909,19066 9909,16834 10662,16399 10662,16445 Z M 10872,16426 L 10681,16426 10681,16388 10872,16277 10872,16426 Z"/>
     <path fill="rgb(148,148,148)" stroke="none" d="M 10681,16426 L 10872,16426 10872,16277 12805,15160 12805,17392 9909,19066 9909,16834 10681,16388 10681,16426 Z M 10853,16407 L 10700,16407 10700,16377 10853,16288 10853,16407 Z"/>
     <path fill="rgb(149,149,149)" stroke="none" d="M 10700,16407 L 10853,16407 10853,16288 12805,15160 12805,17392 9909,19066 9909,16834 10700,16377 10700,16407 Z M 10833,16387 L 10720,16387 10720,16365 10833,16300 10833,16387 Z"/>
     <path fill="rgb(150,150,150)" stroke="none" d="M 10720,16387 L 10833,16387 10833,16300 12805,15160 12805,17392 9909,19066 9909,16834 10720,16365 10720,16387 Z M 10814,16368 L 10739,16368 10739,16354 10814,16311 10814,16368 Z"/>
     <path fill="rgb(151,151,151)" stroke="none" d="M 10739,16368 L 10814,16368 10814,16311 12805,15160 12805,17392 9909,19066 9909,16834 10739,16354 10739,16368 Z M 10795,16349 L 10758,16349 10758,16343 10795,16322 10795,16349 Z"/>
     <path fill="rgb(153,153,153)" stroke="none" d="M 10758,16349 L 10795,16349 10795,16322 12805,15160 12805,17392 9909,19066 9909,16834 10758,16343 10758,16349 Z"/>
     <path fill="none" stroke="rgb(178,178,178)" id="Drawing_3_0" stroke-width="40" stroke-linejoin="round" d="M 9909,19066 L 9909,16834 12805,15160 12805,17392 9909,19066 Z"/>
    </g>
    <g>
     <defs>
      <linearGradient id="Gradient_1052" gradientUnits="userSpaceOnUse" x1="10391" y1="14044" x2="10391" y2="16834">
       <stop offset="0.1" stop-color="rgb(51,51,51)"/>
       <stop offset="1" stop-color="rgb(153,153,153)"/>
      </linearGradient>
     </defs>
     <path fill="url(#Gradient_1052)" stroke="rgb(178,178,178)" id="Drawing_4_0" stroke-width="40" stroke-linejoin="round" d="M 9909,16834 L 7978,15718 10874,14044 12805,15160 9909,16834 Z"/>
    </g>
    <g>
     <path fill="none" stroke="rgb(0,0,0)" id="Drawing_5_0" stroke-width="40" stroke-linejoin="round" d="M 7978,17950 L 7978,15718 10874,14044 12805,15160 12805,17392 9909,19066 7978,17950 Z"/>
    </g>
    <g>
     <path fill="rgb(57,181,74)" stroke="none" d="M 9329,17001 L 9329,16834 9426,16890 9426,17057 9329,17001 Z"/>
     <path fill="none" stroke="rgb(127,127,127)" id="Drawing_6_0" stroke-width="40" stroke-linejoin="round" d="M 9329,17001 L 9329,16834 9426,16890 9426,17057 9329,17001 Z"/>
    </g>
    <g>
     <path fill="rgb(127,127,127)" stroke="none" d="M 9523,17113 L 9523,16834 9716,16946 9716,17225 9523,17113 Z"/>
     <path fill="none" stroke="rgb(0,0,0)" id="Drawing_7_0" stroke-width="40" stroke-linejoin="round" d="M 9523,17113 L 9523,16834 9716,16946 9716,17225 9523,17113 Z"/>
    </g>
    <g>
     <path fill="none" stroke="rgb(102,102,102)" id="Drawing_8_0" stroke-width="40" stroke-linejoin="round" d="M 11936,16722 L 12708,16276"/>
    </g>
    <g id="DrawingGroup_3">
     <g>
      <path fill="none" stroke="rgb(178,178,178)" id="Drawing_9_0" stroke-width="40" stroke-linejoin="round" d="M 9136,18397 L 8943,18285"/>
     </g>
     <g>
      <path fill="none" stroke="rgb(178,178,178)" id="Drawing_10_0" stroke-width="40" stroke-linejoin="round" d="M 8943,17113 L 8943,18285"/>
     </g>
     <g>
      <path fill="none" stroke="rgb(102,102,102)" id="Drawing_11_0" stroke-width="40" stroke-linejoin="round" d="M 9136,17225 L 9136,18397"/>
     </g>
     <g>
      <path fill="none" stroke="rgb(102,102,102)" id="Drawing_12_0" stroke-width="40" stroke-linejoin="round" d="M 9136,17225 L 8943,17113"/>
     </g>
    </g>
    <g id="DrawingGroup_4">
     <g>
      <path fill="none" stroke="rgb(178,178,178)" id="Drawing_13_0" stroke-width="40" stroke-linejoin="round" d="M 8268,17895 L 8075,17783"/>
     </g>
     <g>
      <path fill="none" stroke="rgb(178,178,178)" id="Drawing_14_0" stroke-width="40" stroke-linejoin="round" d="M 8075,16611 L 8075,17783"/>
     </g>
     <g>
      <path fill="none" stroke="rgb(102,102,102)" id="Drawing_15_0" stroke-width="40" stroke-linejoin="round" d="M 8268,16722 L 8268,17894"/>
     </g>
     <g>
      <path fill="none" stroke="rgb(102,102,102)" id="Drawing_16_0" stroke-width="40" stroke-linejoin="round" d="M 8268,16723 L 8075,16611"/>
     </g>
    </g>
    <g id="DrawingGroup_5">
     <g>
      <path fill="none" stroke="rgb(178,178,178)" id="Drawing_17_0" stroke-width="40" stroke-linejoin="round" d="M 8557,18062 L 8364,17950"/>
     </g>
     <g>
      <path fill="none" stroke="rgb(178,178,178)" id="Drawing_18_0" stroke-width="40" stroke-linejoin="round" d="M 8364,16778 L 8364,17950"/>
     </g>
     <g>
      <path fill="none" stroke="rgb(102,102,102)" id="Drawing_19_0" stroke-width="40" stroke-linejoin="round" d="M 8557,16890 L 8557,18062"/>
     </g>
     <g>
      <path fill="none" stroke="rgb(102,102,102)" id="Drawing_20_0" stroke-width="40" stroke-linejoin="round" d="M 8557,16890 L 8364,16778"/>
     </g>
    </g>
    <g id="DrawingGroup_6">
     <g>
      <path fill="none" stroke="rgb(178,178,178)" id="Drawing_21_0" stroke-width="40" stroke-linejoin="round" d="M 8847,18229 L 8654,18117"/>
     </g>
     <g>
      <path fill="none" stroke="rgb(178,178,178)" id="Drawing_22_0" stroke-width="40" stroke-linejoin="round" d="M 8654,16946 L 8654,18118"/>
     </g>
     <g>
      <path fill="none" stroke="rgb(102,102,102)" id="Drawing_23_0" stroke-width="40" stroke-linejoin="round" d="M 8847,17057 L 8847,18229"/>
     </g>
     <g>
      <path fill="none" stroke="rgb(102,102,102)" id="Drawing_24_0" stroke-width="40" stroke-linejoin="round" d="M 8847,17058 L 8654,16946"/>
     </g>
    </g>
    <g id="DrawingGroup_7">
     <g>
      <path fill="none" stroke="rgb(178,178,178)" id="Drawing_25_0" stroke-width="40" stroke-linejoin="round" d="M 9426,18564 L 9233,18452"/>
     </g>
     <g>
      <path fill="none" stroke="rgb(178,178,178)" id="Drawing_26_0" stroke-width="40" stroke-linejoin="round" d="M 9233,17280 L 9233,18452"/>
     </g>
     <g>
      <path fill="none" stroke="rgb(102,102,102)" id="Drawing_27_0" stroke-width="40" stroke-linejoin="round" d="M 9426,17392 L 9426,18564"/>
     </g>
     <g>
      <path fill="none" stroke="rgb(102,102,102)" id="Drawing_28_0" stroke-width="40" stroke-linejoin="round" d="M 9426,17392 L 9233,17280"/>
     </g>
    </g>
    <g id="DrawingGroup_8">
     <g>
      <path fill="none" stroke="rgb(178,178,178)" id="Drawing_29_0" stroke-width="40" stroke-linejoin="round" d="M 9716,18732 L 9523,18620"/>
     </g>
     <g>
      <path fill="none" stroke="rgb(178,178,178)" id="Drawing_30_0" stroke-width="40" stroke-linejoin="round" d="M 9523,17448 L 9523,18620"/>
     </g>
     <g>
      <path fill="none" stroke="rgb(102,102,102)" id="Drawing_31_0" stroke-width="40" stroke-linejoin="round" d="M 9716,17559 L 9716,18731"/>
     </g>
     <g>
      <path fill="none" stroke="rgb(102,102,102)" id="Drawing_32_0" stroke-width="40" stroke-linejoin="round" d="M 9716,17560 L 9523,17448"/>
     </g>
    </g>
    <g>
     <path fill="none" stroke="rgb(102,102,102)" id="Drawing_33_0" stroke-width="40" stroke-linejoin="round" d="M 11936,16834 L 12708,16388"/>
    </g>
    <g>
     <path fill="none" stroke="rgb(102,102,102)" id="Drawing_34_0" stroke-width="40" stroke-linejoin="round" d="M 11936,16945 L 12708,16499"/>
    </g>
    <g>
     <path fill="none" stroke="rgb(102,102,102)" id="Drawing_35_0" stroke-width="40" stroke-linejoin="round" d="M 11936,17057 L 12708,16611"/>
    </g>
    <g>
     <path fill="none" stroke="rgb(102,102,102)" id="Drawing_36_0" stroke-width="40" stroke-linejoin="round" d="M 11936,17168 L 12708,16722"/>
    </g>
    <g>
     <path fill="none" stroke="rgb(102,102,102)" id="Drawing_37_0" stroke-width="40" stroke-linejoin="round" d="M 11936,17280 L 12708,16834"/>
    </g>
    <g>
     <path fill="none" stroke="rgb(102,102,102)" id="Drawing_38_0" stroke-width="40" stroke-linejoin="round" d="M 11936,17392 L 12708,16946"/>
    </g>
    <g>
     <path fill="none" stroke="rgb(102,102,102)" id="Drawing_39_0" stroke-width="40" stroke-linejoin="round" d="M 11936,17503 L 12708,17057"/>
    </g>
    <g>
     <path fill="none" stroke="rgb(102,102,102)" id="Drawing_40_0" stroke-width="40" stroke-linejoin="round" d="M 11936,17615 L 12708,17169"/>
    </g>
    <g>
     <path fill="none" stroke="rgb(102,102,102)" id="Drawing_41_0" stroke-width="40" stroke-linejoin="round" d="M 11936,17726 L 12708,17280"/>
    </g>
   </g>
  </g>
 </g>
</svg>