<?xml version="1.0" encoding="UTF-8" standalone="no"?>
<svg
   xmlns:ooo="http://xml.openoffice.org/svg/export"
   xmlns:dc="http://purl.org/dc/elements/1.1/"
   xmlns:cc="http://creativecommons.org/ns#"
   xmlns:rdf="http://www.w3.org/1999/02/22-rdf-syntax-ns#"
   xmlns:svg="http://www.w3.org/2000/svg"
   xmlns="http://www.w3.org/2000/svg"
   style="fill-rule:evenodd;stroke-width:28.22200012;stroke-linejoin:round"
   id="svg2"
   xml:space="preserve"
   preserveAspectRatio="xMidYMid"
   viewBox="0 0 1965 2365.9998"
   height="23.659998mm"
   width="19.65mm"
   version="1.2"><metadata
     id="metadata347"><rdf:RDF><cc:Work
         rdf:about=""><dc:format>image/svg+xml</dc:format><dc:type
           rdf:resource="http://purl.org/dc/dcmitype/StillImage" /><dc:title></dc:title></cc:Work></rdf:RDF></metadata><defs
     id="defs4"
     class="ClipPathGroup"><clipPath
       clipPathUnits="userSpaceOnUse"
       id="presentation_clip_path"><rect
         id="rect7"
         height="29700"
         width="21000"
         y="0"
         x="0" /></clipPath></defs><defs
     id="defs9"
     class="TextShapeIndex"><g
       id="g11"
       ooo:id-list="id3 id4 id5 id6 id7 id8 id9 id10 id11 id12 id13 id14"
       ooo:slide="id1" /></defs><defs
     id="defs13"
     class="EmbeddedBulletChars"><g
       transform="scale(4.8828125e-4,-4.8828125e-4)"
       id="bullet-char-template(57356)"><path
         id="path16"
         d="M 580,1141 1163,571 580,0 -4,571 580,1141 Z" /></g><g
       transform="scale(4.8828125e-4,-4.8828125e-4)"
       id="bullet-char-template(57354)"><path
         id="path19"
         d="m 8,1128 1129,0 L 1137,0 8,0 8,1128 Z" /></g><g
       transform="scale(4.8828125e-4,-4.8828125e-4)"
       id="bullet-char-template(10146)"><path
         id="path22"
         d="M 174,0 602,739 174,1481 1456,739 174,0 Z m 1184,739 -1049,607 350,-607 699,0 z" /></g><g
       transform="scale(4.8828125e-4,-4.8828125e-4)"
       id="bullet-char-template(10132)"><path
         id="path25"
         d="M 2015,739 1276,0 717,0 l 543,543 -1086,0 0,393 1086,0 -543,545 557,0 741,-742 z" /></g><g
       transform="scale(4.8828125e-4,-4.8828125e-4)"
       id="bullet-char-template(10007)"><path
         id="path28"
         d="m 0,-2 c -7,16 -16,29 -25,39 l 381,530 c -94,256 -141,385 -141,387 0,25 13,38 40,38 9,0 21,-2 34,-5 21,4 42,12 65,25 l 27,-13 111,-251 280,301 64,-25 24,25 c 21,-10 41,-24 62,-43 C 886,937 835,863 770,784 769,783 710,716 594,584 L 774,223 c 0,-27 -21,-55 -63,-84 l 16,-20 C 717,90 699,76 672,76 641,76 570,178 457,381 L 164,-76 c -22,-34 -53,-51 -92,-51 -42,0 -63,17 -64,51 -7,9 -10,24 -10,44 0,9 1,19 2,30 z" /></g><g
       transform="scale(4.8828125e-4,-4.8828125e-4)"
       id="bullet-char-template(10004)"><path
         id="path31"
         d="M 285,-33 C 182,-33 111,30 74,156 52,228 41,333 41,471 c 0,78 14,145 41,201 34,71 87,106 158,106 53,0 88,-31 106,-94 l 23,-176 c 8,-64 28,-97 59,-98 l 735,706 c 11,11 33,17 66,17 42,0 63,-15 63,-46 l 0,-122 c 0,-36 -10,-64 -30,-84 L 442,47 C 390,-6 338,-33 285,-33 Z" /></g><g
       transform="scale(4.8828125e-4,-4.8828125e-4)"
       id="bullet-char-template(9679)"><path
         id="path34"
         d="M 813,0 C 632,0 489,54 383,161 276,268 223,411 223,592 c 0,181 53,324 160,431 106,107 249,161 430,161 179,0 323,-54 432,-161 108,-107 162,-251 162,-431 0,-180 -54,-324 -162,-431 C 1136,54 992,0 813,0 Z" /></g><g
       transform="scale(4.8828125e-4,-4.8828125e-4)"
       id="bullet-char-template(8226)"><path
         id="path37"
         d="m 346,457 c -73,0 -137,26 -191,78 -54,51 -81,114 -81,188 0,73 27,136 81,188 54,52 118,78 191,78 73,0 134,-26 185,-79 51,-51 77,-114 77,-187 0,-75 -25,-137 -76,-188 -50,-52 -112,-78 -186,-78 z" /></g><g
       transform="scale(4.8828125e-4,-4.8828125e-4)"
       id="bullet-char-template(8211)"><path
         id="path40"
         d="m -4,459 1139,0 0,147 -1139,0 0,-147 z" /></g></defs><defs
     id="defs42"
     class="TextEmbeddedBitmaps" /><g
     transform="translate(-9501,-12081)"
     id="g44"><g
       class="Master_Slide"
       id="id2"><g
         class="Background"
         id="bg-id2" /><g
         class="BackgroundObjects"
         id="bo-id2" /></g></g><g
     transform="translate(-9501,-12081)"
     id="g49"
     class="SlideGroup"><g
       id="g51"><g
         clip-path="url(#presentation_clip_path)"
         class="Slide"
         id="id1"><g
           id="g54"
           class="Page"><g
             id="g56"
             class="Group"><g
               id="g58"
               class="com.sun.star.drawing.PolyPolygonShape"><g
                 id="id3"><rect
                   style="fill:none;stroke:none"
                   id="rect61"
                   height="1810"
                   width="1003"
                   y="12636"
                   x="9501"
                   class="BoundingBox" /><g
                   id="g63"><defs
                     id="defs65"><linearGradient
                       gradientUnits="userSpaceOnUse"
                       y2="13540"
                       x2="10484"
                       y1="13540"
                       x1="9520"
                       id="gradient1"><stop
                         id="stop68"
                         style="stop-color:rgb(147,212,240)"
                         offset="0.1" /><stop
                         id="stop70"
                         style="stop-color:rgb(233,246,252)"
                         offset="1" /></linearGradient></defs><path
                     id="path72"
                     d="m 9521,13869 0,-1213 962,555 0,1213 -962,-555 z"
                     style="fill:url(#gradient1)" /></g><path
                   style="fill:none;stroke:#ffffff;stroke-width:40;stroke-linejoin:round"
                   id="path74"
                   d="m 9521,13869 0,-1213 962,555 0,1213 -962,-555 z" /></g></g><g
               id="g76"
               class="com.sun.star.drawing.PolyPolygonShape"><g
                 id="id4"><rect
                   style="fill:none;stroke:none"
                   id="rect79"
                   height="1810"
                   width="1003"
                   y="12636"
                   x="10463"
                   class="BoundingBox" /><g
                   id="g81"><defs
                     id="defs83"><pattern
                       patternUnits="userSpaceOnUse"
                       height="1769"
                       width="963"
                       y="12656"
                       x="10483"
                       id="pattern1"><g
                         id="g86"
                         transform="translate(-10483,-12656)"><path
                           id="path88"
                           d="M 10482,12655 L 11446,12655 11446,14425 10482,14425 10482,12655 Z M 10295,12312 L 11247,12312 11247,14060 10295,14060 10295,12312 Z"
                           stroke="none"
                           fill="rgb(147,212,240)" /><path
                           id="path90"
                           d="M 10295,12312 L 11247,12312 11247,14060 10295,14060 10295,12312 Z M 10301,12322 L 11241,12322 11241,14050 10301,14050 10301,12322 Z"
                           stroke="none"
                           fill="rgb(148,212,240)" /><path
                           id="path92"
                           d="M 10301,12322 L 11241,12322 11241,14050 10301,14050 10301,12322 Z M 10306,12332 L 11236,12332 11236,14040 10306,14040 10306,12332 Z"
                           stroke="none"
                           fill="rgb(149,212,240)" /><path
                           id="path94"
                           d="M 10306,12332 L 11236,12332 11236,14040 10306,14040 10306,12332 Z M 10312,12343 L 11230,12343 11230,14029 10312,14029 10312,12343 Z"
                           stroke="none"
                           fill="rgb(150,213,240)" /><path
                           id="path96"
                           d="M 10312,12343 L 11230,12343 11230,14029 10312,14029 10312,12343 Z M 10318,12353 L 11224,12353 11224,14019 10318,14019 10318,12353 Z"
                           stroke="none"
                           fill="rgb(151,213,240)" /><path
                           id="path98"
                           d="M 10318,12353 L 11224,12353 11224,14019 10318,14019 10318,12353 Z M 10323,12363 L 11219,12363 11219,14009 10323,14009 10323,12363 Z"
                           stroke="none"
                           fill="rgb(152,213,240)" /><path
                           id="path100"
                           d="M 10323,12363 L 11219,12363 11219,14009 10323,14009 10323,12363 Z M 10329,12374 L 11213,12374 11213,13998 10329,13998 10329,12374 Z"
                           stroke="none"
                           fill="rgb(153,214,240)" /><path
                           id="path102"
                           d="M 10329,12374 L 11213,12374 11213,13998 10329,13998 10329,12374 Z M 10334,12384 L 11208,12384 11208,13988 10334,13988 10334,12384 Z"
                           stroke="none"
                           fill="rgb(154,214,240)" /><path
                           id="path104"
                           d="M 10334,12384 L 11208,12384 11208,13988 10334,13988 10334,12384 Z M 10340,12394 L 11202,12394 11202,13978 10340,13978 10340,12394 Z"
                           stroke="none"
                           fill="rgb(155,215,241)" /><path
                           id="path106"
                           d="M 10340,12394 L 11202,12394 11202,13978 10340,13978 10340,12394 Z M 10346,12404 L 11196,12404 11196,13968 10346,13968 10346,12404 Z"
                           stroke="none"
                           fill="rgb(156,215,241)" /><path
                           id="path108"
                           d="M 10346,12404 L 11196,12404 11196,13968 10346,13968 10346,12404 Z M 10351,12415 L 11191,12415 11191,13957 10351,13957 10351,12415 Z"
                           stroke="none"
                           fill="rgb(157,215,241)" /><path
                           id="path110"
                           d="M 10351,12415 L 11191,12415 11191,13957 10351,13957 10351,12415 Z M 10357,12425 L 11185,12425 11185,13947 10357,13947 10357,12425 Z"
                           stroke="none"
                           fill="rgb(158,216,241)" /><path
                           id="path112"
                           d="M 10357,12425 L 11185,12425 11185,13947 10357,13947 10357,12425 Z M 10362,12435 L 11180,12435 11180,13937 10362,13937 10362,12435 Z"
                           stroke="none"
                           fill="rgb(159,216,241)" /><path
                           id="path114"
                           d="M 10362,12435 L 11180,12435 11180,13937 10362,13937 10362,12435 Z M 10368,12446 L 11174,12446 11174,13926 10368,13926 10368,12446 Z"
                           stroke="none"
                           fill="rgb(160,217,241)" /><path
                           id="path116"
                           d="M 10368,12446 L 11174,12446 11174,13926 10368,13926 10368,12446 Z M 10374,12456 L 11168,12456 11168,13916 10374,13916 10374,12456 Z"
                           stroke="none"
                           fill="rgb(161,217,241)" /><path
                           id="path118"
                           d="M 10374,12456 L 11168,12456 11168,13916 10374,13916 10374,12456 Z M 10379,12466 L 11163,12466 11163,13906 10379,13906 10379,12466 Z"
                           stroke="none"
                           fill="rgb(162,217,242)" /><path
                           id="path120"
                           d="M 10379,12466 L 11163,12466 11163,13906 10379,13906 10379,12466 Z M 10385,12477 L 11157,12477 11157,13895 10385,13895 10385,12477 Z"
                           stroke="none"
                           fill="rgb(163,218,242)" /><path
                           id="path122"
                           d="M 10385,12477 L 11157,12477 11157,13895 10385,13895 10385,12477 Z M 10390,12487 L 11152,12487 11152,13885 10390,13885 10390,12487 Z"
                           stroke="none"
                           fill="rgb(164,218,242)" /><path
                           id="path124"
                           d="M 10390,12487 L 11152,12487 11152,13885 10390,13885 10390,12487 Z M 10396,12497 L 11146,12497 11146,13875 10396,13875 10396,12497 Z"
                           stroke="none"
                           fill="rgb(165,219,242)" /><path
                           id="path126"
                           d="M 10396,12497 L 11146,12497 11146,13875 10396,13875 10396,12497 Z M 10402,12507 L 11140,12507 11140,13865 10402,13865 10402,12507 Z"
                           stroke="none"
                           fill="rgb(166,219,242)" /><path
                           id="path128"
                           d="M 10402,12507 L 11140,12507 11140,13865 10402,13865 10402,12507 Z M 10407,12518 L 11135,12518 11135,13854 10407,13854 10407,12518 Z"
                           stroke="none"
                           fill="rgb(167,219,242)" /><path
                           id="path130"
                           d="M 10407,12518 L 11135,12518 11135,13854 10407,13854 10407,12518 Z M 10413,12528 L 11129,12528 11129,13844 10413,13844 10413,12528 Z"
                           stroke="none"
                           fill="rgb(168,220,242)" /><path
                           id="path132"
                           d="M 10413,12528 L 11129,12528 11129,13844 10413,13844 10413,12528 Z M 10419,12538 L 11123,12538 11123,13834 10419,13834 10419,12538 Z"
                           stroke="none"
                           fill="rgb(169,220,243)" /><path
                           id="path134"
                           d="M 10419,12538 L 11123,12538 11123,13834 10419,13834 10419,12538 Z M 10424,12549 L 11118,12549 11118,13823 10424,13823 10424,12549 Z"
                           stroke="none"
                           fill="rgb(170,221,243)" /><path
                           id="path136"
                           d="M 10424,12549 L 11118,12549 11118,13823 10424,13823 10424,12549 Z M 10430,12559 L 11112,12559 11112,13813 10430,13813 10430,12559 Z"
                           stroke="none"
                           fill="rgb(171,221,243)" /><path
                           id="path138"
                           d="M 10430,12559 L 11112,12559 11112,13813 10430,13813 10430,12559 Z M 10435,12569 L 11107,12569 11107,13803 10435,13803 10435,12569 Z"
                           stroke="none"
                           fill="rgb(172,221,243)" /><path
                           id="path140"
                           d="M 10435,12569 L 11107,12569 11107,13803 10435,13803 10435,12569 Z M 10441,12580 L 11101,12580 11101,13792 10441,13792 10441,12580 Z"
                           stroke="none"
                           fill="rgb(173,222,243)" /><path
                           id="path142"
                           d="M 10441,12580 L 11101,12580 11101,13792 10441,13792 10441,12580 Z M 10447,12590 L 11095,12590 11095,13782 10447,13782 10447,12590 Z"
                           stroke="none"
                           fill="rgb(174,222,243)" /><path
                           id="path144"
                           d="M 10447,12590 L 11095,12590 11095,13782 10447,13782 10447,12590 Z M 10452,12600 L 11090,12600 11090,13772 10452,13772 10452,12600 Z"
                           stroke="none"
                           fill="rgb(175,223,243)" /><path
                           id="path146"
                           d="M 10452,12600 L 11090,12600 11090,13772 10452,13772 10452,12600 Z M 10458,12610 L 11084,12610 11084,13762 10458,13762 10458,12610 Z"
                           stroke="none"
                           fill="rgb(176,223,244)" /><path
                           id="path148"
                           d="M 10458,12610 L 11084,12610 11084,13762 10458,13762 10458,12610 Z M 10463,12621 L 11079,12621 11079,13751 10463,13751 10463,12621 Z"
                           stroke="none"
                           fill="rgb(177,223,244)" /><path
                           id="path150"
                           d="M 10463,12621 L 11079,12621 11079,13751 10463,13751 10463,12621 Z M 10468,12631 L 11073,12631 11073,13741 10468,13741 10468,12631 Z"
                           stroke="none"
                           fill="rgb(178,224,244)" /><path
                           id="path152"
                           d="M 10468,12631 L 11073,12631 11073,13741 10468,13741 10468,12631 Z M 10474,12640 L 11067,12640 11067,13731 10474,13731 10474,12640 Z"
                           stroke="none"
                           fill="rgb(179,224,244)" /><path
                           id="path154"
                           d="M 10474,12640 L 11067,12640 11067,13731 10474,13731 10474,12640 Z M 10479,12651 L 11062,12651 11062,13720 10479,13720 10479,12651 Z"
                           stroke="none"
                           fill="rgb(180,225,244)" /><path
                           id="path156"
                           d="M 10479,12651 L 11062,12651 11062,13720 10479,13720 10479,12651 Z M 10485,12661 L 11056,12661 11056,13710 10485,13710 10485,12661 Z"
                           stroke="none"
                           fill="rgb(181,225,244)" /><path
                           id="path158"
                           d="M 10485,12661 L 11056,12661 11056,13710 10485,13710 10485,12661 Z M 10490,12671 L 11051,12671 11051,13700 10490,13700 10490,12671 Z"
                           stroke="none"
                           fill="rgb(182,225,244)" /><path
                           id="path160"
                           d="M 10490,12671 L 11051,12671 11051,13700 10490,13700 10490,12671 Z M 10496,12681 L 11045,12681 11045,13690 10496,13690 10496,12681 Z"
                           stroke="none"
                           fill="rgb(183,226,245)" /><path
                           id="path162"
                           d="M 10496,12681 L 11045,12681 11045,13690 10496,13690 10496,12681 Z M 10502,12692 L 11039,12692 11039,13679 10502,13679 10502,12692 Z"
                           stroke="none"
                           fill="rgb(184,226,245)" /><path
                           id="path164"
                           d="M 10502,12692 L 11039,12692 11039,13679 10502,13679 10502,12692 Z M 10507,12702 L 11034,12702 11034,13669 10507,13669 10507,12702 Z"
                           stroke="none"
                           fill="rgb(185,227,245)" /><path
                           id="path166"
                           d="M 10507,12702 L 11034,12702 11034,13669 10507,13669 10507,12702 Z M 10513,12712 L 11028,12712 11028,13659 10513,13659 10513,12712 Z"
                           stroke="none"
                           fill="rgb(186,227,245)" /><path
                           id="path168"
                           d="M 10513,12712 L 11028,12712 11028,13659 10513,13659 10513,12712 Z M 10519,12723 L 11022,12723 11022,13648 10519,13648 10519,12723 Z"
                           stroke="none"
                           fill="rgb(187,227,245)" /><path
                           id="path170"
                           d="M 10519,12723 L 11022,12723 11022,13648 10519,13648 10519,12723 Z M 10524,12733 L 11017,12733 11017,13638 10524,13638 10524,12733 Z"
                           stroke="none"
                           fill="rgb(188,228,245)" /><path
                           id="path172"
                           d="M 10524,12733 L 11017,12733 11017,13638 10524,13638 10524,12733 Z M 10530,12743 L 11011,12743 11011,13628 10530,13628 10530,12743 Z"
                           stroke="none"
                           fill="rgb(189,228,245)" /><path
                           id="path174"
                           d="M 10530,12743 L 11011,12743 11011,13628 10530,13628 10530,12743 Z M 10535,12754 L 11006,12754 11006,13617 10535,13617 10535,12754 Z"
                           stroke="none"
                           fill="rgb(190,229,246)" /><path
                           id="path176"
                           d="M 10535,12754 L 11006,12754 11006,13617 10535,13617 10535,12754 Z M 10541,12764 L 11000,12764 11000,13607 10541,13607 10541,12764 Z"
                           stroke="none"
                           fill="rgb(191,229,246)" /><path
                           id="path178"
                           d="M 10541,12764 L 11000,12764 11000,13607 10541,13607 10541,12764 Z M 10547,12774 L 10994,12774 10994,13597 10547,13597 10547,12774 Z"
                           stroke="none"
                           fill="rgb(192,229,246)" /><path
                           id="path180"
                           d="M 10547,12774 L 10994,12774 10994,13597 10547,13597 10547,12774 Z M 10552,12784 L 10989,12784 10989,13587 10552,13587 10552,12784 Z"
                           stroke="none"
                           fill="rgb(193,230,246)" /><path
                           id="path182"
                           d="M 10552,12784 L 10989,12784 10989,13587 10552,13587 10552,12784 Z M 10558,12795 L 10983,12795 10983,13576 10558,13576 10558,12795 Z"
                           stroke="none"
                           fill="rgb(194,230,246)" /><path
                           id="path184"
                           d="M 10558,12795 L 10983,12795 10983,13576 10558,13576 10558,12795 Z M 10563,12805 L 10978,12805 10978,13566 10563,13566 10563,12805 Z"
                           stroke="none"
                           fill="rgb(195,230,246)" /><path
                           id="path186"
                           d="M 10563,12805 L 10978,12805 10978,13566 10563,13566 10563,12805 Z M 10569,12815 L 10972,12815 10972,13556 10569,13556 10569,12815 Z"
                           stroke="none"
                           fill="rgb(196,231,246)" /><path
                           id="path188"
                           d="M 10569,12815 L 10972,12815 10972,13556 10569,13556 10569,12815 Z M 10575,12826 L 10966,12826 10966,13545 10575,13545 10575,12826 Z"
                           stroke="none"
                           fill="rgb(197,231,246)" /><path
                           id="path190"
                           d="M 10575,12826 L 10966,12826 10966,13545 10575,13545 10575,12826 Z M 10580,12836 L 10961,12836 10961,13535 10580,13535 10580,12836 Z"
                           stroke="none"
                           fill="rgb(198,232,247)" /><path
                           id="path192"
                           d="M 10580,12836 L 10961,12836 10961,13535 10580,13535 10580,12836 Z M 10586,12846 L 10955,12846 10955,13525 10586,13525 10586,12846 Z"
                           stroke="none"
                           fill="rgb(199,232,247)" /><path
                           id="path194"
                           d="M 10586,12846 L 10955,12846 10955,13525 10586,13525 10586,12846 Z M 10591,12857 L 10950,12857 10950,13514 10591,13514 10591,12857 Z"
                           stroke="none"
                           fill="rgb(200,232,247)" /><path
                           id="path196"
                           d="M 10591,12857 L 10950,12857 10950,13514 10591,13514 10591,12857 Z M 10597,12867 L 10944,12867 10944,13504 10597,13504 10597,12867 Z"
                           stroke="none"
                           fill="rgb(201,233,247)" /><path
                           id="path198"
                           d="M 10597,12867 L 10944,12867 10944,13504 10597,13504 10597,12867 Z M 10603,12877 L 10938,12877 10938,13494 10603,13494 10603,12877 Z"
                           stroke="none"
                           fill="rgb(202,233,247)" /><path
                           id="path200"
                           d="M 10603,12877 L 10938,12877 10938,13494 10603,13494 10603,12877 Z M 10608,12887 L 10933,12887 10933,13484 10608,13484 10608,12887 Z"
                           stroke="none"
                           fill="rgb(203,234,247)" /><path
                           id="path202"
                           d="M 10608,12887 L 10933,12887 10933,13484 10608,13484 10608,12887 Z M 10614,12898 L 10927,12898 10927,13473 10614,13473 10614,12898 Z"
                           stroke="none"
                           fill="rgb(204,234,247)" /><path
                           id="path204"
                           d="M 10614,12898 L 10927,12898 10927,13473 10614,13473 10614,12898 Z M 10620,12908 L 10921,12908 10921,13463 10620,13463 10620,12908 Z"
                           stroke="none"
                           fill="rgb(205,234,248)" /><path
                           id="path206"
                           d="M 10620,12908 L 10921,12908 10921,13463 10620,13463 10620,12908 Z M 10625,12918 L 10916,12918 10916,13453 10625,13453 10625,12918 Z"
                           stroke="none"
                           fill="rgb(206,235,248)" /><path
                           id="path208"
                           d="M 10625,12918 L 10916,12918 10916,13453 10625,13453 10625,12918 Z M 10631,12929 L 10910,12929 10910,13442 10631,13442 10631,12929 Z"
                           stroke="none"
                           fill="rgb(207,235,248)" /><path
                           id="path210"
                           d="M 10631,12929 L 10910,12929 10910,13442 10631,13442 10631,12929 Z M 10636,12939 L 10905,12939 10905,13432 10636,13432 10636,12939 Z"
                           stroke="none"
                           fill="rgb(208,236,248)" /><path
                           id="path212"
                           d="M 10636,12939 L 10905,12939 10905,13432 10636,13432 10636,12939 Z M 10642,12949 L 10899,12949 10899,13422 10642,13422 10642,12949 Z"
                           stroke="none"
                           fill="rgb(209,236,248)" /><path
                           id="path214"
                           d="M 10642,12949 L 10899,12949 10899,13422 10642,13422 10642,12949 Z M 10648,12959 L 10893,12959 10893,13412 10648,13412 10648,12959 Z"
                           stroke="none"
                           fill="rgb(210,236,248)" /><path
                           id="path216"
                           d="M 10648,12959 L 10893,12959 10893,13412 10648,13412 10648,12959 Z M 10653,12970 L 10888,12970 10888,13401 10653,13401 10653,12970 Z"
                           stroke="none"
                           fill="rgb(211,237,248)" /><path
                           id="path218"
                           d="M 10653,12970 L 10888,12970 10888,13401 10653,13401 10653,12970 Z M 10659,12980 L 10882,12980 10882,13391 10659,13391 10659,12980 Z"
                           stroke="none"
                           fill="rgb(212,237,249)" /><path
                           id="path220"
                           d="M 10659,12980 L 10882,12980 10882,13391 10659,13391 10659,12980 Z M 10664,12990 L 10877,12990 10877,13381 10664,13381 10664,12990 Z"
                           stroke="none"
                           fill="rgb(213,238,249)" /><path
                           id="path222"
                           d="M 10664,12990 L 10877,12990 10877,13381 10664,13381 10664,12990 Z M 10670,13001 L 10871,13001 10871,13370 10670,13370 10670,13001 Z"
                           stroke="none"
                           fill="rgb(214,238,249)" /><path
                           id="path224"
                           d="M 10670,13001 L 10871,13001 10871,13370 10670,13370 10670,13001 Z M 10676,13011 L 10865,13011 10865,13360 10676,13360 10676,13011 Z"
                           stroke="none"
                           fill="rgb(215,238,249)" /><path
                           id="path226"
                           d="M 10676,13011 L 10865,13011 10865,13360 10676,13360 10676,13011 Z M 10681,13021 L 10860,13021 10860,13350 10681,13350 10681,13021 Z"
                           stroke="none"
                           fill="rgb(216,239,249)" /><path
                           id="path228"
                           d="M 10681,13021 L 10860,13021 10860,13350 10681,13350 10681,13021 Z M 10687,13032 L 10854,13032 10854,13339 10687,13339 10687,13032 Z"
                           stroke="none"
                           fill="rgb(217,239,249)" /><path
                           id="path230"
                           d="M 10687,13032 L 10854,13032 10854,13339 10687,13339 10687,13032 Z M 10692,13042 L 10849,13042 10849,13329 10692,13329 10692,13042 Z"
                           stroke="none"
                           fill="rgb(218,240,249)" /><path
                           id="path232"
                           d="M 10692,13042 L 10849,13042 10849,13329 10692,13329 10692,13042 Z M 10698,13052 L 10843,13052 10843,13319 10698,13319 10698,13052 Z"
                           stroke="none"
                           fill="rgb(219,240,250)" /><path
                           id="path234"
                           d="M 10698,13052 L 10843,13052 10843,13319 10698,13319 10698,13052 Z M 10704,13062 L 10837,13062 10837,13309 10704,13309 10704,13062 Z"
                           stroke="none"
                           fill="rgb(220,240,250)" /><path
                           id="path236"
                           d="M 10704,13062 L 10837,13062 10837,13309 10704,13309 10704,13062 Z M 10709,13073 L 10832,13073 10832,13298 10709,13298 10709,13073 Z"
                           stroke="none"
                           fill="rgb(221,241,250)" /><path
                           id="path238"
                           d="M 10709,13073 L 10832,13073 10832,13298 10709,13298 10709,13073 Z M 10715,13083 L 10826,13083 10826,13288 10715,13288 10715,13083 Z"
                           stroke="none"
                           fill="rgb(222,241,250)" /><path
                           id="path240"
                           d="M 10715,13083 L 10826,13083 10826,13288 10715,13288 10715,13083 Z M 10721,13093 L 10820,13093 10820,13278 10721,13278 10721,13093 Z"
                           stroke="none"
                           fill="rgb(223,242,250)" /><path
                           id="path242"
                           d="M 10721,13093 L 10820,13093 10820,13278 10721,13278 10721,13093 Z M 10726,13104 L 10815,13104 10815,13267 10726,13267 10726,13104 Z"
                           stroke="none"
                           fill="rgb(224,242,250)" /><path
                           id="path244"
                           d="M 10726,13104 L 10815,13104 10815,13267 10726,13267 10726,13104 Z M 10732,13114 L 10809,13114 10809,13257 10732,13257 10732,13114 Z"
                           stroke="none"
                           fill="rgb(225,242,250)" /><path
                           id="path246"
                           d="M 10732,13114 L 10809,13114 10809,13257 10732,13257 10732,13114 Z M 10737,13124 L 10804,13124 10804,13247 10737,13247 10737,13124 Z"
                           stroke="none"
                           fill="rgb(226,243,251)" /><path
                           id="path248"
                           d="M 10737,13124 L 10804,13124 10804,13247 10737,13247 10737,13124 Z M 10743,13135 L 10798,13135 10798,13236 10743,13236 10743,13135 Z"
                           stroke="none"
                           fill="rgb(227,243,251)" /><path
                           id="path250"
                           d="M 10743,13135 L 10798,13135 10798,13236 10743,13236 10743,13135 Z M 10749,13145 L 10792,13145 10792,13226 10749,13226 10749,13145 Z"
                           stroke="none"
                           fill="rgb(228,244,251)" /><path
                           id="path252"
                           d="M 10749,13145 L 10792,13145 10792,13226 10749,13226 10749,13145 Z M 10754,13155 L 10787,13155 10787,13216 10754,13216 10754,13155 Z"
                           stroke="none"
                           fill="rgb(229,244,251)" /><path
                           id="path254"
                           d="M 10754,13155 L 10787,13155 10787,13216 10754,13216 10754,13155 Z M 10760,13165 L 10781,13165 10781,13206 10760,13206 10760,13165 Z"
                           stroke="none"
                           fill="rgb(230,244,251)" /><path
                           id="path256"
                           d="M 10760,13165 L 10781,13165 10781,13206 10760,13206 10760,13165 Z M 10765,13176 L 10776,13176 10776,13195 10765,13195 10765,13176 Z"
                           stroke="none"
                           fill="rgb(231,245,251)" /><path
                           id="path258"
                           d="M 10765,13176 L 10776,13176 10776,13195 10765,13195 10765,13176 Z"
                           stroke="none"
                           fill="rgb(233,246,252)" /></g></pattern></defs><path
                     id="path260"
                     d="m 10483,14424 0,-1213 962,-555 0,1213 -962,555 z"
                     style="fill:url(#pattern1)" /></g><path
                   style="fill:none;stroke:#ffffff;stroke-width:40;stroke-linejoin:round"
                   id="path262"
                   d="m 10483,14424 0,-1213 962,-555 0,1213 -962,555 z" /></g></g><g
               id="g264"
               class="com.sun.star.drawing.PolyPolygonShape"><g
                 id="id5"><rect
                   style="fill:none;stroke:none"
                   id="rect267"
                   height="1153"
                   width="1964"
                   y="12081"
                   x="9501"
                   class="BoundingBox" /><g
                   id="g269"><defs
                     id="defs271"><linearGradient
                       gradientUnits="userSpaceOnUse"
                       y2="13213"
                       x2="10482"
                       y1="12101"
                       x1="10482"
                       id="gradient2"><stop
                         id="stop274"
                         style="stop-color:rgb(147,212,240)"
                         offset="0.1" /><stop
                         id="stop276"
                         style="stop-color:rgb(233,246,252)"
                         offset="1" /></linearGradient></defs><path
                     id="path278"
                     d="m 10483,13213 -962,-557 962,-555 961,555 -961,557 z"
                     style="fill:url(#gradient2)" /></g><path
                   style="fill:none;stroke:#ffffff;stroke-width:40;stroke-linejoin:round"
                   id="path280"
                   d="m 10483,13213 -962,-557 962,-555 961,555 -961,557 z" /></g></g><g
               id="g282"
               class="com.sun.star.drawing.PolyPolygonShape"><g
                 id="id6"><rect
                   style="fill:none;stroke:none"
                   id="rect285"
                   height="2366"
                   width="1964"
                   y="12081"
                   x="9501"
                   class="BoundingBox" /><path
                   style="fill:none;stroke:#000000;stroke-width:40;stroke-linejoin:round"
                   id="path287"
                   d="m 9521,13869 0,-1213 962,-555 961,555 0,1213 -961,557 -962,-557 z" /></g></g><g
               id="g289"
               class="com.sun.star.drawing.PolyLineShape"><g
                 id="id7"><rect
                   style="fill:none;stroke:none"
                   id="rect292"
                   height="546"
                   width="827"
                   y="12839"
                   x="10549"
                   class="BoundingBox" /><path
                   style="fill:none;stroke:#7f7f7f;stroke-width:40;stroke-linejoin:round"
                   id="path294"
                   d="m 10569,13314 175,-101 1,151 174,-101 0,-151 87,-50 0,151 88,-50 0,-153 86,-50 2,152 86,-50 0,-153 87,-50" /></g></g><g
               id="g296"
               class="com.sun.star.drawing.PolyLineShape"><g
                 id="id8"><rect
                   style="fill:none;stroke:none"
                   id="rect299"
                   height="496"
                   width="827"
                   y="13193"
                   x="10549"
                   class="BoundingBox" /><path
                   style="fill:none;stroke:#7f7f7f;stroke-width:40;stroke-linejoin:round"
                   id="path301"
                   d="m 10569,13567 88,-50 0,151 174,-101 0,-151 88,-52 0,153 175,-101 0,-153 86,-50 2,151 173,-101" /></g></g><g
               id="g303"
               class="com.sun.star.drawing.PolyLineShape"><g
                 id="id9"><rect
                   style="fill:none;stroke:none"
                   id="rect306"
                   height="599"
                   width="827"
                   y="13395"
                   x="10551"
                   class="BoundingBox" /><path
                   style="fill:none;stroke:#7f7f7f;stroke-width:40;stroke-linejoin:round"
                   id="path308"
                   d="m 10571,13972 175,-102 0,-151 175,-101 0,151 261,-151 0,-152 88,-51 0,151 87,-50" /></g></g><g
               id="g310"
               class="com.sun.star.drawing.PolyLineShape"><g
                 id="id10"><rect
                   style="fill:none;stroke:none"
                   id="rect313"
                   height="599"
                   width="827"
                   y="13647"
                   x="10551"
                   class="BoundingBox" /><path
                   style="fill:none;stroke:#7f7f7f;stroke-width:40;stroke-linejoin:round"
                   id="path315"
                   d="m 10571,14224 88,-52 -1,-151 174,-101 1,151 175,-100 0,-153 88,-50 0,152 86,-50 0,-152 88,-51 0,151 87,-50" /></g></g><g
               id="g317"
               class="com.sun.star.drawing.PolyLineShape"><g
                 id="id11"><rect
                   style="fill:none;stroke:none"
                   id="rect320"
                   height="1052"
                   width="829"
                   y="13193"
                   x="9589"
                   class="BoundingBox" /><path
                   style="fill:none;stroke:#be1e2d;stroke-width:40;stroke-linejoin:round"
                   id="path322"
                   d="m 9609,13718 88,50 87,-100 87,-405 175,-50 88,203 88,302 0,304 86,152 88,50" /></g></g><g
               id="g324"
               class="com.sun.star.drawing.PolyLineShape"><g
                 id="id12"><rect
                   style="fill:none;stroke:none"
                   id="rect327"
                   height="598"
                   width="829"
                   y="13497"
                   x="9589"
                   class="BoundingBox" /><path
                   style="fill:none;stroke:#0073bc;stroke-width:40;stroke-linejoin:round"
                   id="path329"
                   d="m 9609,13618 88,50 87,-101 174,-50 88,50 88,153 88,151 86,151 88,52" /></g></g><g
               id="g331"
               class="com.sun.star.drawing.LineShape"><g
                 id="id13"><rect
                   style="fill:none;stroke:none"
                   id="rect334"
                   height="496"
                   width="828"
                   y="13042"
                   x="9589"
                   class="BoundingBox" /><path
                   style="fill:none;stroke:#7f7f7f;stroke-width:40;stroke-linejoin:round"
                   id="path336"
                   d="m 9609,13062 787,455" /></g></g><g
               id="g338"
               class="com.sun.star.drawing.PolyPolygonShape"><g
                 id="id14"><rect
                   style="fill:none;stroke:none"
                   id="rect341"
                   height="1507"
                   width="829"
                   y="12789"
                   x="9589"
                   class="BoundingBox" /><path
                   style="fill:none;stroke:#666666;stroke-width:40;stroke-linejoin:round"
                   id="path343"
                   d="m 9609,13820 0,-1011 787,455 0,1011 -787,-455 z" /></g></g></g></g></g></g></g></svg>