<?xml version="1.0" encoding="UTF-8"?>

<svg version="1.2" baseProfile="tiny" width="11.32mm" height="31.9mm" viewBox="12210 4301 1132 3190" preserveAspectRatio="xMidYMid" fill-rule="evenodd" stroke-width="28.222" stroke-linejoin="round" xmlns="http://www.w3.org/2000/svg" xmlns:xlink="http://www.w3.org/1999/xlink" xml:space="preserve">
 <g visibility="visible" id="Slide_1">
  <g id="DrawingGroup_1">
   <g>
    <path fill="rgb(0,0,0)" stroke="none" d="M 12230,6841 L 12230,4321 13322,4951 13322,7471 12230,6841 Z"/>
    <path fill="none" stroke="rgb(0,0,0)" id="Drawing_1_0" stroke-width="40" stroke-linejoin="round" d="M 12230,6841 L 12230,4321 13322,4951 13322,7471 12230,6841 Z"/>
   </g>
   <g>
    <defs>
     <linearGradient id="Gradient_1082" gradientUnits="userSpaceOnUse" x1="12472" y1="6735" x2="13080" y2="6737">
      <stop offset="0.1" stop-color="rgb(179,179,179)"/>
      <stop offset="1" stop-color="rgb(229,229,229)"/>
     </linearGradient>
    </defs>
    <path fill="url(#Gradient_1082)" stroke="rgb(238,238,238)" id="Drawing_2_0" stroke-width="40" stroke-linejoin="round" d="M 13079,6561 L 13079,7261 12473,6911 12473,6211 13079,6561 Z"/>
   </g>
   <g>
    <path fill="none" stroke="rgb(255,255,255)" id="Drawing_3_0" stroke-width="40" stroke-linejoin="round" d="M 13200,7261 L 13200,7331"/>
   </g>
   <g>
    <path fill="none" stroke="rgb(255,255,255)" id="Drawing_4_0" stroke-width="40" stroke-linejoin="round" d="M 13200,7121 L 13200,7191"/>
   </g>
   <g>
    <path fill="none" stroke="rgb(255,255,255)" id="Drawing_5_0" stroke-width="40" stroke-linejoin="round" d="M 13200,6981 L 13200,7051"/>
   </g>
   <g>
    <path fill="none" stroke="rgb(255,255,255)" id="Drawing_6_0" stroke-width="40" stroke-linejoin="round" d="M 13200,6841 L 13200,6911"/>
   </g>
   <g>
    <path fill="none" stroke="rgb(255,255,255)" id="Drawing_7_0" stroke-width="40" stroke-linejoin="round" d="M 13200,6701 L 13200,6771"/>
   </g>
   <g>
    <path fill="none" stroke="rgb(255,255,255)" id="Drawing_8_0" stroke-width="40" stroke-linejoin="round" d="M 13200,6561 L 13200,6631"/>
   </g>
   <g>
    <path fill="none" stroke="rgb(255,255,255)" id="Drawing_9_0" stroke-width="40" stroke-linejoin="round" d="M 13200,6421 L 13200,6491"/>
   </g>
   <g>
    <path fill="none" stroke="rgb(255,255,255)" id="Drawing_10_0" stroke-width="40" stroke-linejoin="round" d="M 13200,6281 L 13200,6351"/>
   </g>
   <g>
    <path fill="none" stroke="rgb(255,255,255)" id="Drawing_11_0" stroke-width="40" stroke-linejoin="round" d="M 13200,6141 L 13200,6211"/>
   </g>
   <g>
    <path fill="none" stroke="rgb(255,255,255)" id="Drawing_12_0" stroke-width="40" stroke-linejoin="round" d="M 13200,6001 L 13200,6071"/>
   </g>
   <g>
    <path fill="none" stroke="rgb(255,255,255)" id="Drawing_13_0" stroke-width="40" stroke-linejoin="round" d="M 13200,5861 L 13200,5931"/>
   </g>
   <g>
    <path fill="none" stroke="rgb(255,255,255)" id="Drawing_14_0" stroke-width="40" stroke-linejoin="round" d="M 13200,5721 L 13200,5791"/>
   </g>
   <g>
    <path fill="none" stroke="rgb(255,255,255)" id="Drawing_15_0" stroke-width="40" stroke-linejoin="round" d="M 13200,5581 L 13200,5651"/>
   </g>
   <g>
    <path fill="none" stroke="rgb(255,255,255)" id="Drawing_16_0" stroke-width="40" stroke-linejoin="round" d="M 13200,5441 L 13200,5511"/>
   </g>
   <g>
    <path fill="none" stroke="rgb(255,255,255)" id="Drawing_17_0" stroke-width="40" stroke-linejoin="round" d="M 13200,5301 L 13200,5371"/>
   </g>
   <g>
    <path fill="none" stroke="rgb(255,255,255)" id="Drawing_18_0" stroke-width="40" stroke-linejoin="round" d="M 13200,5161 L 13200,5231"/>
   </g>
   <g>
    <defs>
     <linearGradient id="Gradient_1083" gradientUnits="userSpaceOnUse" x1="12472" y1="5895" x2="13080" y2="5897">
      <stop offset="0.1" stop-color="rgb(179,179,179)"/>
      <stop offset="1" stop-color="rgb(229,229,229)"/>
     </linearGradient>
    </defs>
    <path fill="url(#Gradient_1083)" stroke="rgb(238,238,238)" id="Drawing_19_0" stroke-width="40" stroke-linejoin="round" d="M 13079,5721 L 13079,6421 12473,6071 12473,5371 13079,5721 Z"/>
   </g>
   <g>
    <defs>
     <linearGradient id="Gradient_1084" gradientUnits="userSpaceOnUse" x1="12472" y1="5055" x2="13080" y2="5057">
      <stop offset="0.1" stop-color="rgb(179,179,179)"/>
      <stop offset="1" stop-color="rgb(229,229,229)"/>
     </linearGradient>
    </defs>
    <path fill="url(#Gradient_1084)" stroke="rgb(238,238,238)" id="Drawing_20_0" stroke-width="40" stroke-linejoin="round" d="M 13079,4881 L 13079,5581 12473,5231 12473,4531 13079,4881 Z"/>
   </g>
   <g>
    <path fill="none" stroke="rgb(255,255,255)" id="Drawing_21_0" stroke-width="40" stroke-linejoin="round" d="M 13200,5021 L 13200,5091"/>
   </g>
   <g>
    <path fill="none" stroke="rgb(255,255,255)" id="Drawing_22_0" stroke-width="40" stroke-linejoin="round" d="M 13200,4881 L 13200,4951"/>
   </g>
   <g>
    <path fill="none" stroke="rgb(255,255,255)" id="Drawing_23_0" stroke-width="40" stroke-linejoin="round" d="M 13200,7401 L 13200,7471"/>
   </g>
   <g>
    <path fill="none" stroke="rgb(255,255,255)" id="Drawing_24_0" stroke-width="40" stroke-linejoin="round" d="M 12352,6771 L 12352,6841"/>
   </g>
   <g>
    <path fill="none" stroke="rgb(255,255,255)" id="Drawing_25_0" stroke-width="40" stroke-linejoin="round" d="M 12352,6631 L 12352,6701"/>
   </g>
   <g>
    <path fill="none" stroke="rgb(255,255,255)" id="Drawing_26_0" stroke-width="40" stroke-linejoin="round" d="M 12352,6491 L 12352,6561"/>
   </g>
   <g>
    <path fill="none" stroke="rgb(255,255,255)" id="Drawing_27_0" stroke-width="40" stroke-linejoin="round" d="M 12352,6351 L 12352,6421"/>
   </g>
   <g>
    <path fill="none" stroke="rgb(255,255,255)" id="Drawing_28_0" stroke-width="40" stroke-linejoin="round" d="M 12352,6211 L 12352,6281"/>
   </g>
   <g>
    <path fill="none" stroke="rgb(255,255,255)" id="Drawing_29_0" stroke-width="40" stroke-linejoin="round" d="M 12352,6071 L 12352,6141"/>
   </g>
   <g>
    <path fill="none" stroke="rgb(255,255,255)" id="Drawing_30_0" stroke-width="40" stroke-linejoin="round" d="M 12352,5931 L 12352,6001"/>
   </g>
   <g>
    <path fill="none" stroke="rgb(255,255,255)" id="Drawing_31_0" stroke-width="40" stroke-linejoin="round" d="M 12352,5791 L 12352,5861"/>
   </g>
   <g>
    <path fill="none" stroke="rgb(255,255,255)" id="Drawing_32_0" stroke-width="40" stroke-linejoin="round" d="M 12352,5651 L 12352,5721"/>
   </g>
   <g>
    <path fill="none" stroke="rgb(255,255,255)" id="Drawing_33_0" stroke-width="40" stroke-linejoin="round" d="M 12352,5511 L 12352,5581"/>
   </g>
   <g>
    <path fill="none" stroke="rgb(255,255,255)" id="Drawing_34_0" stroke-width="40" stroke-linejoin="round" d="M 12352,5371 L 12352,5441"/>
   </g>
   <g>
    <path fill="none" stroke="rgb(255,255,255)" id="Drawing_35_0" stroke-width="40" stroke-linejoin="round" d="M 12352,5231 L 12352,5301"/>
   </g>
   <g>
    <path fill="none" stroke="rgb(255,255,255)" id="Drawing_36_0" stroke-width="40" stroke-linejoin="round" d="M 12352,5091 L 12352,5161"/>
   </g>
   <g>
    <path fill="none" stroke="rgb(255,255,255)" id="Drawing_37_0" stroke-width="40" stroke-linejoin="round" d="M 12352,4951 L 12352,5021"/>
   </g>
   <g>
    <path fill="none" stroke="rgb(255,255,255)" id="Drawing_38_0" stroke-width="40" stroke-linejoin="round" d="M 12352,4811 L 12352,4881"/>
   </g>
   <g>
    <path fill="none" stroke="rgb(255,255,255)" id="Drawing_39_0" stroke-width="40" stroke-linejoin="round" d="M 12352,4671 L 12352,4741"/>
   </g>
   <g>
    <path fill="none" stroke="rgb(255,255,255)" id="Drawing_40_0" stroke-width="40" stroke-linejoin="round" d="M 12352,4531 L 12352,4601"/>
   </g>
   <g>
    <path fill="none" stroke="rgb(255,255,255)" id="Drawing_41_0" stroke-width="40" stroke-linejoin="round" d="M 12352,4391 L 12352,4461"/>
   </g>
   <g>
    <path fill="none" stroke="rgb(255,255,255)" id="Drawing_42_0" stroke-width="40" stroke-linejoin="round" d="M 12352,6911 L 12352,6981"/>
   </g>
  </g>
 </g>
</svg>