<?xml version="1.0" encoding="UTF-8"?>

<svg version="1.2" baseProfile="tiny" width="19.18mm" height="28.22mm" viewBox="8302 20851 1918 2822" preserveAspectRatio="xMidYMid" fill-rule="evenodd" stroke-width="28.222" stroke-linejoin="round" xmlns="http://www.w3.org/2000/svg" xmlns:xlink="http://www.w3.org/1999/xlink" xml:space="preserve">
 <g visibility="visible" id="Slide_1">
  <g id="DrawingGroup_1">
   <g>
    <defs>
     <linearGradient id="Gradient_1060" gradientUnits="userSpaceOnUse" x1="8320" y1="22260" x2="10202" y2="22264">
      <stop offset="0" stop-color="rgb(195,232,200)"/>
      <stop offset="0.5" stop-color="rgb(235,247,236)"/>
      <stop offset="1" stop-color="rgb(195,232,200)"/>
     </linearGradient>
    </defs>
    <path fill="url(#Gradient_1060)" stroke="none" id="Drawing_1_0" d="M 8322,21309 L 8323,21288 8327,21268 8334,21248 8343,21227 8355,21207 8368,21187 8403,21148 8445,21111 8495,21074 8552,21040 8615,21008 8684,20979 8757,20953 8835,20929 8916,20909 9000,20894 9086,20882 9173,20875 9261,20872 9349,20875 9436,20882 9522,20894 9606,20909 9687,20929 9764,20953 9838,20979 9906,21008 9970,21040 10027,21074 10077,21111 10119,21148 10154,21187 10167,21207 10179,21227 10188,21248 10195,21268 10199,21288 10200,21309 10200,23215 10199,23236 10195,23256 10188,23276 10179,23297 10167,23317 10154,23337 10119,23376 10077,23414 10027,23450 9970,23484 9906,23516 9838,23546 9764,23572 9687,23596 9606,23615 9522,23631 9436,23643 9349,23650 9261,23653 9173,23650 9086,23643 9000,23631 8916,23615 8835,23596 8757,23572 8684,23546 8615,23516 8552,23484 8495,23450 8445,23414 8403,23376 8368,23337 8355,23317 8343,23297 8334,23276 8327,23256 8323,23236 8322,23215 8322,21309 Z"/>
    <path fill="none" stroke="rgb(0,0,0)" id="Drawing_1_1" stroke-width="40" stroke-linejoin="round" d="M 8322,21309 C 8322,21090 8791,20872 9261,20872 9730,20872 10200,21090 10200,21309 L 10200,23215 C 10200,23434 9730,23653 9261,23653 8791,23653 8322,23434 8322,23215 L 8322,21309 Z"/>
    <rect fill="none" stroke="none" x="8322" y="21308" width="1880" height="440"/>
    <defs>
     <linearGradient id="Gradient_1061" gradientUnits="userSpaceOnUse" x1="8322" y1="21526" x2="10200" y2="21530">
      <stop offset="0" stop-color="rgb(195,232,200)"/>
      <stop offset="0.5" stop-color="rgb(235,247,236)"/>
      <stop offset="1" stop-color="rgb(195,232,200)"/>
     </linearGradient>
    </defs>
    <path fill="url(#Gradient_1061)" stroke="none" id="Drawing_1_2" d="M 8322,21309 L 8323,21330 8327,21350 8334,21370 8343,21391 8355,21411 8368,21431 8403,21470 8445,21508 8495,21544 8552,21578 8615,21610 8684,21640 8757,21666 8835,21690 8916,21709 9000,21725 9086,21737 9173,21744 9261,21747 9349,21744 9436,21737 9522,21725 9606,21709 9687,21690 9764,21666 9838,21640 9906,21610 9970,21578 10027,21544 10077,21508 10119,21470 10154,21431 10167,21411 10179,21391 10188,21370 10195,21350 10199,21330 10200,21309 8322,21309 Z"/>
    <path fill="none" stroke="rgb(0,0,0)" id="Drawing_1_3" stroke-width="40" stroke-linejoin="round" d="M 8322,21309 C 8322,21528 8791,21747 9261,21747 9730,21747 10200,21528 10200,21309"/>
    <rect fill="none" stroke="none" x="8323" y="20872" width="1878" height="2781"/>
   </g>
   <g>
    <defs>
     <linearGradient id="Gradient_1062" gradientUnits="userSpaceOnUse" x1="9260" y1="20871" x2="9260" y2="21752">
      <stop offset="0.1" stop-color="rgb(195,232,200)"/>
      <stop offset="1" stop-color="rgb(235,247,236)"/>
     </linearGradient>
    </defs>
    <path fill="url(#Gradient_1062)" stroke="none" id="Drawing_2_0" d="M 9260,20871 L 9453,20880 9631,20905 9714,20923 9791,20944 9863,20969 9929,20997 9989,21028 10042,21062 10088,21098 10127,21137 10158,21178 10170,21199 10180,21220 10189,21242 10194,21265 10198,21288 10199,21311 10198,21334 10194,21357 10189,21380 10180,21402 10170,21423 10158,21445 10127,21485 10088,21524 10042,21560 9989,21594 9929,21625 9863,21653 9791,21678 9714,21700 9631,21718 9453,21743 9260,21752 9067,21743 8889,21718 8807,21700 8729,21678 8658,21653 8592,21625 8532,21594 8479,21560 8432,21524 8394,21485 8363,21445 8351,21423 8340,21402 8332,21380 8327,21357 8323,21334 8322,21311 8323,21288 8327,21265 8332,21242 8340,21220 8351,21199 8363,21178 8394,21137 8432,21098 8479,21062 8532,21028 8592,20997 8658,20969 8729,20944 8807,20923 8889,20905 9067,20880 9260,20871 Z"/>
    <path fill="none" stroke="rgb(0,0,0)" id="Drawing_2_1" stroke-width="40" stroke-linejoin="round" d="M 9260,20871 C 9792,20871 10199,21061 10199,21311 10199,21561 9792,21752 9260,21752 8728,21752 8322,21561 8322,21311 8322,21061 8728,20871 9260,20871 Z"/>
    <rect fill="none" stroke="none" x="8323" y="20872" width="1878" height="882"/>
   </g>
  </g>
 </g>
</svg>