<?xml version="1.0" encoding="UTF-8"?>

<svg version="1.2" baseProfile="tiny" width="19.8mm" height="19.7mm" viewBox="11824 12621 1980 1970" preserveAspectRatio="xMidYMid" fill-rule="evenodd" stroke-width="28.222" stroke-linejoin="round" xmlns="http://www.w3.org/2000/svg" xmlns:xlink="http://www.w3.org/1999/xlink" xml:space="preserve">
 <g visibility="visible" id="Slide_1">
  <g id="DrawingGroup_1">
   <g>
    <path fill="rgb(0,115,188)" stroke="none" d="M 13385,14179 L 12026,14179 12006,14152 11958,14072 11918,13988 11886,13898 11863,13805 11849,13707 11844,13606 11849,13505 11863,13407 11886,13314 11918,13224 11958,13140 12006,13060 12061,12986 12123,12918 12191,12857 12265,12802 12345,12755 12430,12715 12520,12683 12614,12660 12712,12646 12814,12641 12916,12646 13014,12660 13108,12683 13198,12715 13283,12755 13363,12802 13385,12818 13385,14179 Z"/>
    <path fill="rgb(1,115,188)" stroke="none" d="M 13385,14179 L 13385,12818 13437,12857 13505,12918 13567,12986 13622,13060 13670,13140 13710,13224 13742,13314 13765,13407 13779,13505 13784,13606 13779,13707 13765,13805 13742,13898 13710,13988 13670,14072 13622,14152 13567,14226 13505,14294 13437,14355 13363,14410 13283,14457 13198,14497 13108,14529 13014,14552 12916,14566 12814,14571 12712,14566 12614,14552 12520,14529 12430,14497 12345,14457 12265,14410 12191,14355 12123,14294 12061,14226 12026,14179 13385,14179 Z M 13375,14169 L 12019,14169 12006,14152 11958,14072 11918,13988 11886,13898 11863,13805 11849,13707 11844,13606 11849,13505 11863,13407 11886,13314 11918,13224 11958,13140 12006,13060 12061,12986 12123,12918 12191,12857 12265,12802 12345,12755 12430,12715 12520,12683 12614,12660 12712,12646 12814,12641 12916,12646 13014,12660 13108,12683 13198,12715 13283,12755 13363,12802 13375,12811 13375,14169 Z"/>
    <path fill="rgb(2,116,188)" stroke="none" d="M 13375,14169 L 13375,12811 13437,12857 13505,12918 13567,12986 13622,13060 13670,13140 13710,13224 13742,13314 13765,13407 13779,13505 13784,13606 13779,13707 13765,13805 13742,13898 13710,13988 13670,14072 13622,14152 13567,14226 13505,14294 13437,14355 13363,14410 13283,14457 13198,14497 13108,14529 13014,14552 12916,14566 12814,14571 12712,14566 12614,14552 12520,14529 12430,14497 12345,14457 12265,14410 12191,14355 12123,14294 12061,14226 12019,14169 13375,14169 Z M 13365,14159 L 12011,14159 12006,14152 11958,14072 11918,13988 11886,13898 11863,13805 11849,13707 11844,13606 11849,13505 11863,13407 11886,13314 11918,13224 11958,13140 12006,13060 12061,12986 12123,12918 12191,12857 12265,12802 12345,12755 12430,12715 12520,12683 12614,12660 12712,12646 12814,12641 12916,12646 13014,12660 13108,12683 13198,12715 13283,12755 13363,12802 13365,12803 13365,14159 Z"/>
    <path fill="rgb(3,117,189)" stroke="none" d="M 13365,14159 L 13365,12803 13437,12857 13505,12918 13567,12986 13622,13060 13670,13140 13710,13224 13742,13314 13765,13407 13779,13505 13784,13606 13779,13707 13765,13805 13742,13898 13710,13988 13670,14072 13622,14152 13567,14226 13505,14294 13437,14355 13363,14410 13283,14457 13198,14497 13108,14529 13014,14552 12916,14566 12814,14571 12712,14566 12614,14552 12520,14529 12430,14497 12345,14457 12265,14410 12191,14355 12123,14294 12061,14226 12011,14159 13365,14159 Z M 13355,14149 L 12004,14149 11958,14072 11918,13988 11886,13898 11863,13805 11849,13707 11844,13606 11849,13505 11863,13407 11886,13314 11918,13224 11958,13140 12006,13060 12061,12986 12123,12918 12191,12857 12265,12802 12345,12755 12430,12715 12520,12683 12614,12660 12712,12646 12814,12641 12916,12646 13014,12660 13108,12683 13198,12715 13283,12755 13355,12797 13355,14149 Z"/>
    <path fill="rgb(5,117,189)" stroke="none" d="M 13355,14149 L 13355,12797 13363,12802 13437,12857 13505,12918 13567,12986 13622,13060 13670,13140 13710,13224 13742,13314 13765,13407 13779,13505 13784,13606 13779,13707 13765,13805 13742,13898 13710,13988 13670,14072 13622,14152 13567,14226 13505,14294 13437,14355 13363,14410 13283,14457 13198,14497 13108,14529 13014,14552 12916,14566 12814,14571 12712,14566 12614,14552 12520,14529 12430,14497 12345,14457 12265,14410 12191,14355 12123,14294 12061,14226 12006,14152 12004,14149 13355,14149 Z M 13345,14139 L 11998,14139 11958,14072 11918,13988 11886,13898 11863,13805 11849,13707 11844,13606 11849,13505 11863,13407 11886,13314 11918,13224 11958,13140 12006,13060 12061,12986 12123,12918 12191,12857 12265,12802 12345,12755 12430,12715 12520,12683 12614,12660 12712,12646 12814,12641 12916,12646 13014,12660 13108,12683 13198,12715 13283,12755 13345,12791 13345,14139 Z"/>
    <path fill="rgb(6,118,189)" stroke="none" d="M 13345,14139 L 13345,12791 13363,12802 13437,12857 13505,12918 13567,12986 13622,13060 13670,13140 13710,13224 13742,13314 13765,13407 13779,13505 13784,13606 13779,13707 13765,13805 13742,13898 13710,13988 13670,14072 13622,14152 13567,14226 13505,14294 13437,14355 13363,14410 13283,14457 13198,14497 13108,14529 13014,14552 12916,14566 12814,14571 12712,14566 12614,14552 12520,14529 12430,14497 12345,14457 12265,14410 12191,14355 12123,14294 12061,14226 12006,14152 11998,14139 13345,14139 Z M 13335,14129 L 11992,14129 11958,14072 11918,13988 11886,13898 11863,13805 11849,13707 11844,13606 11849,13505 11863,13407 11886,13314 11918,13224 11958,13140 12006,13060 12061,12986 12123,12918 12191,12857 12265,12802 12345,12755 12430,12715 12520,12683 12614,12660 12712,12646 12814,12641 12916,12646 13014,12660 13108,12683 13198,12715 13283,12755 13335,12786 13335,14129 Z"/>
    <path fill="rgb(7,119,190)" stroke="none" d="M 13335,14129 L 13335,12786 13363,12802 13437,12857 13505,12918 13567,12986 13622,13060 13670,13140 13710,13224 13742,13314 13765,13407 13779,13505 13784,13606 13779,13707 13765,13805 13742,13898 13710,13988 13670,14072 13622,14152 13567,14226 13505,14294 13437,14355 13363,14410 13283,14457 13198,14497 13108,14529 13014,14552 12916,14566 12814,14571 12712,14566 12614,14552 12520,14529 12430,14497 12345,14457 12265,14410 12191,14355 12123,14294 12061,14226 12006,14152 11992,14129 13335,14129 Z M 13325,14119 L 11986,14119 11958,14072 11918,13988 11886,13898 11863,13805 11849,13707 11844,13606 11849,13505 11863,13407 11886,13314 11918,13224 11958,13140 12006,13060 12061,12986 12123,12918 12191,12857 12265,12802 12345,12755 12430,12715 12520,12683 12614,12660 12712,12646 12814,12641 12916,12646 13014,12660 13108,12683 13198,12715 13283,12755 13325,12780 13325,14119 Z"/>
    <path fill="rgb(9,120,190)" stroke="none" d="M 13325,14119 L 13325,12780 13363,12802 13437,12857 13505,12918 13567,12986 13622,13060 13670,13140 13710,13224 13742,13314 13765,13407 13779,13505 13784,13606 13779,13707 13765,13805 13742,13898 13710,13988 13670,14072 13622,14152 13567,14226 13505,14294 13437,14355 13363,14410 13283,14457 13198,14497 13108,14529 13014,14552 12916,14566 12814,14571 12712,14566 12614,14552 12520,14529 12430,14497 12345,14457 12265,14410 12191,14355 12123,14294 12061,14226 12006,14152 11986,14119 13325,14119 Z M 13315,14109 L 11980,14109 11958,14072 11918,13988 11886,13898 11863,13805 11849,13707 11844,13606 11849,13505 11863,13407 11886,13314 11918,13224 11958,13140 12006,13060 12061,12986 12123,12918 12191,12857 12265,12802 12345,12755 12430,12715 12520,12683 12614,12660 12712,12646 12814,12641 12916,12646 13014,12660 13108,12683 13198,12715 13283,12755 13315,12774 13315,14109 Z"/>
    <path fill="rgb(10,120,190)" stroke="none" d="M 13315,14109 L 13315,12774 13363,12802 13437,12857 13505,12918 13567,12986 13622,13060 13670,13140 13710,13224 13742,13314 13765,13407 13779,13505 13784,13606 13779,13707 13765,13805 13742,13898 13710,13988 13670,14072 13622,14152 13567,14226 13505,14294 13437,14355 13363,14410 13283,14457 13198,14497 13108,14529 13014,14552 12916,14566 12814,14571 12712,14566 12614,14552 12520,14529 12430,14497 12345,14457 12265,14410 12191,14355 12123,14294 12061,14226 12006,14152 11980,14109 13315,14109 Z M 13305,14099 L 11974,14099 11958,14072 11918,13988 11886,13898 11863,13805 11849,13707 11844,13606 11849,13505 11863,13407 11886,13314 11918,13224 11958,13140 12006,13060 12061,12986 12123,12918 12191,12857 12265,12802 12345,12755 12430,12715 12520,12683 12614,12660 12712,12646 12814,12641 12916,12646 13014,12660 13108,12683 13198,12715 13283,12755 13305,12768 13305,14099 Z"/>
    <path fill="rgb(11,121,191)" stroke="none" d="M 13305,14099 L 13305,12768 13363,12802 13437,12857 13505,12918 13567,12986 13622,13060 13670,13140 13710,13224 13742,13314 13765,13407 13779,13505 13784,13606 13779,13707 13765,13805 13742,13898 13710,13988 13670,14072 13622,14152 13567,14226 13505,14294 13437,14355 13363,14410 13283,14457 13198,14497 13108,14529 13014,14552 12916,14566 12814,14571 12712,14566 12614,14552 12520,14529 12430,14497 12345,14457 12265,14410 12191,14355 12123,14294 12061,14226 12006,14152 11974,14099 13305,14099 Z M 13295,14089 L 11968,14089 11958,14072 11918,13988 11886,13898 11863,13805 11849,13707 11844,13606 11849,13505 11863,13407 11886,13314 11918,13224 11958,13140 12006,13060 12061,12986 12123,12918 12191,12857 12265,12802 12345,12755 12430,12715 12520,12683 12614,12660 12712,12646 12814,12641 12916,12646 13014,12660 13108,12683 13198,12715 13283,12755 13295,12762 13295,14089 Z"/>
    <path fill="rgb(13,122,191)" stroke="none" d="M 13295,14089 L 13295,12762 13363,12802 13437,12857 13505,12918 13567,12986 13622,13060 13670,13140 13710,13224 13742,13314 13765,13407 13779,13505 13784,13606 13779,13707 13765,13805 13742,13898 13710,13988 13670,14072 13622,14152 13567,14226 13505,14294 13437,14355 13363,14410 13283,14457 13198,14497 13108,14529 13014,14552 12916,14566 12814,14571 12712,14566 12614,14552 12520,14529 12430,14497 12345,14457 12265,14410 12191,14355 12123,14294 12061,14226 12006,14152 11968,14089 13295,14089 Z M 13285,14079 L 11962,14079 11958,14072 11918,13988 11886,13898 11863,13805 11849,13707 11844,13606 11849,13505 11863,13407 11886,13314 11918,13224 11958,13140 12006,13060 12061,12986 12123,12918 12191,12857 12265,12802 12345,12755 12430,12715 12520,12683 12614,12660 12712,12646 12814,12641 12916,12646 13014,12660 13108,12683 13198,12715 13283,12755 13285,12756 13285,14079 Z"/>
    <path fill="rgb(14,122,191)" stroke="none" d="M 13285,14079 L 13285,12756 13363,12802 13437,12857 13505,12918 13567,12986 13622,13060 13670,13140 13710,13224 13742,13314 13765,13407 13779,13505 13784,13606 13779,13707 13765,13805 13742,13898 13710,13988 13670,14072 13622,14152 13567,14226 13505,14294 13437,14355 13363,14410 13283,14457 13198,14497 13108,14529 13014,14552 12916,14566 12814,14571 12712,14566 12614,14552 12520,14529 12430,14497 12345,14457 12265,14410 12191,14355 12123,14294 12061,14226 12006,14152 11962,14079 13285,14079 Z M 13275,14069 L 11957,14069 11918,13988 11886,13898 11863,13805 11849,13707 11844,13606 11849,13505 11863,13407 11886,13314 11918,13224 11958,13140 12006,13060 12061,12986 12123,12918 12191,12857 12265,12802 12345,12755 12430,12715 12520,12683 12614,12660 12712,12646 12814,12641 12916,12646 13014,12660 13108,12683 13198,12715 13275,12751 13275,14069 Z"/>
    <path fill="rgb(15,123,192)" stroke="none" d="M 13275,14069 L 13275,12751 13283,12755 13363,12802 13437,12857 13505,12918 13567,12986 13622,13060 13670,13140 13710,13224 13742,13314 13765,13407 13779,13505 13784,13606 13779,13707 13765,13805 13742,13898 13710,13988 13670,14072 13622,14152 13567,14226 13505,14294 13437,14355 13363,14410 13283,14457 13198,14497 13108,14529 13014,14552 12916,14566 12814,14571 12712,14566 12614,14552 12520,14529 12430,14497 12345,14457 12265,14410 12191,14355 12123,14294 12061,14226 12006,14152 11958,14072 11957,14069 13275,14069 Z M 13265,14059 L 11952,14059 11918,13988 11886,13898 11863,13805 11849,13707 11844,13606 11849,13505 11863,13407 11886,13314 11918,13224 11958,13140 12006,13060 12061,12986 12123,12918 12191,12857 12265,12802 12345,12755 12430,12715 12520,12683 12614,12660 12712,12646 12814,12641 12916,12646 13014,12660 13108,12683 13198,12715 13265,12747 13265,14059 Z"/>
    <path fill="rgb(17,124,192)" stroke="none" d="M 13265,14059 L 13265,12747 13283,12755 13363,12802 13437,12857 13505,12918 13567,12986 13622,13060 13670,13140 13710,13224 13742,13314 13765,13407 13779,13505 13784,13606 13779,13707 13765,13805 13742,13898 13710,13988 13670,14072 13622,14152 13567,14226 13505,14294 13437,14355 13363,14410 13283,14457 13198,14497 13108,14529 13014,14552 12916,14566 12814,14571 12712,14566 12614,14552 12520,14529 12430,14497 12345,14457 12265,14410 12191,14355 12123,14294 12061,14226 12006,14152 11958,14072 11952,14059 13265,14059 Z M 13255,14049 L 11947,14049 11918,13988 11886,13898 11863,13805 11849,13707 11844,13606 11849,13505 11863,13407 11886,13314 11918,13224 11958,13140 12006,13060 12061,12986 12123,12918 12191,12857 12265,12802 12345,12755 12430,12715 12520,12683 12614,12660 12712,12646 12814,12641 12916,12646 13014,12660 13108,12683 13198,12715 13255,12742 13255,14049 Z"/>
    <path fill="rgb(18,125,192)" stroke="none" d="M 13255,14049 L 13255,12742 13283,12755 13363,12802 13437,12857 13505,12918 13567,12986 13622,13060 13670,13140 13710,13224 13742,13314 13765,13407 13779,13505 13784,13606 13779,13707 13765,13805 13742,13898 13710,13988 13670,14072 13622,14152 13567,14226 13505,14294 13437,14355 13363,14410 13283,14457 13198,14497 13108,14529 13014,14552 12916,14566 12814,14571 12712,14566 12614,14552 12520,14529 12430,14497 12345,14457 12265,14410 12191,14355 12123,14294 12061,14226 12006,14152 11958,14072 11947,14049 13255,14049 Z M 13245,14039 L 11942,14039 11918,13988 11886,13898 11863,13805 11849,13707 11844,13606 11849,13505 11863,13407 11886,13314 11918,13224 11958,13140 12006,13060 12061,12986 12123,12918 12191,12857 12265,12802 12345,12755 12430,12715 12520,12683 12614,12660 12712,12646 12814,12641 12916,12646 13014,12660 13108,12683 13198,12715 13245,12737 13245,14039 Z"/>
    <path fill="rgb(19,125,193)" stroke="none" d="M 13245,14039 L 13245,12737 13283,12755 13363,12802 13437,12857 13505,12918 13567,12986 13622,13060 13670,13140 13710,13224 13742,13314 13765,13407 13779,13505 13784,13606 13779,13707 13765,13805 13742,13898 13710,13988 13670,14072 13622,14152 13567,14226 13505,14294 13437,14355 13363,14410 13283,14457 13198,14497 13108,14529 13014,14552 12916,14566 12814,14571 12712,14566 12614,14552 12520,14529 12430,14497 12345,14457 12265,14410 12191,14355 12123,14294 12061,14226 12006,14152 11958,14072 11942,14039 13245,14039 Z M 13235,14029 L 11938,14029 11918,13988 11886,13898 11863,13805 11849,13707 11844,13606 11849,13505 11863,13407 11886,13314 11918,13224 11958,13140 12006,13060 12061,12986 12123,12918 12191,12857 12265,12802 12345,12755 12430,12715 12520,12683 12614,12660 12712,12646 12814,12641 12916,12646 13014,12660 13108,12683 13198,12715 13235,12732 13235,14029 Z"/>
    <path fill="rgb(20,126,193)" stroke="none" d="M 13235,14029 L 13235,12732 13283,12755 13363,12802 13437,12857 13505,12918 13567,12986 13622,13060 13670,13140 13710,13224 13742,13314 13765,13407 13779,13505 13784,13606 13779,13707 13765,13805 13742,13898 13710,13988 13670,14072 13622,14152 13567,14226 13505,14294 13437,14355 13363,14410 13283,14457 13198,14497 13108,14529 13014,14552 12916,14566 12814,14571 12712,14566 12614,14552 12520,14529 12430,14497 12345,14457 12265,14410 12191,14355 12123,14294 12061,14226 12006,14152 11958,14072 11938,14029 13235,14029 Z M 13225,14019 L 11933,14019 11918,13988 11886,13898 11863,13805 11849,13707 11844,13606 11849,13505 11863,13407 11886,13314 11918,13224 11958,13140 12006,13060 12061,12986 12123,12918 12191,12857 12265,12802 12345,12755 12430,12715 12520,12683 12614,12660 12712,12646 12814,12641 12916,12646 13014,12660 13108,12683 13198,12715 13225,12728 13225,14019 Z"/>
    <path fill="rgb(22,127,193)" stroke="none" d="M 13225,14019 L 13225,12728 13283,12755 13363,12802 13437,12857 13505,12918 13567,12986 13622,13060 13670,13140 13710,13224 13742,13314 13765,13407 13779,13505 13784,13606 13779,13707 13765,13805 13742,13898 13710,13988 13670,14072 13622,14152 13567,14226 13505,14294 13437,14355 13363,14410 13283,14457 13198,14497 13108,14529 13014,14552 12916,14566 12814,14571 12712,14566 12614,14552 12520,14529 12430,14497 12345,14457 12265,14410 12191,14355 12123,14294 12061,14226 12006,14152 11958,14072 11933,14019 13225,14019 Z M 13215,14009 L 11928,14009 11918,13988 11886,13898 11863,13805 11849,13707 11844,13606 11849,13505 11863,13407 11886,13314 11918,13224 11958,13140 12006,13060 12061,12986 12123,12918 12191,12857 12265,12802 12345,12755 12430,12715 12520,12683 12614,12660 12712,12646 12814,12641 12916,12646 13014,12660 13108,12683 13198,12715 13215,12723 13215,14009 Z"/>
    <path fill="rgb(23,127,194)" stroke="none" d="M 13215,14009 L 13215,12723 13283,12755 13363,12802 13437,12857 13505,12918 13567,12986 13622,13060 13670,13140 13710,13224 13742,13314 13765,13407 13779,13505 13784,13606 13779,13707 13765,13805 13742,13898 13710,13988 13670,14072 13622,14152 13567,14226 13505,14294 13437,14355 13363,14410 13283,14457 13198,14497 13108,14529 13014,14552 12916,14566 12814,14571 12712,14566 12614,14552 12520,14529 12430,14497 12345,14457 12265,14410 12191,14355 12123,14294 12061,14226 12006,14152 11958,14072 11928,14009 13215,14009 Z M 13205,13999 L 11923,13999 11918,13988 11886,13898 11863,13805 11849,13707 11844,13606 11849,13505 11863,13407 11886,13314 11918,13224 11958,13140 12006,13060 12061,12986 12123,12918 12191,12857 12265,12802 12345,12755 12430,12715 12520,12683 12614,12660 12712,12646 12814,12641 12916,12646 13014,12660 13108,12683 13198,12715 13205,12718 13205,13999 Z"/>
    <path fill="rgb(24,128,194)" stroke="none" d="M 13205,13999 L 13205,12718 13283,12755 13363,12802 13437,12857 13505,12918 13567,12986 13622,13060 13670,13140 13710,13224 13742,13314 13765,13407 13779,13505 13784,13606 13779,13707 13765,13805 13742,13898 13710,13988 13670,14072 13622,14152 13567,14226 13505,14294 13437,14355 13363,14410 13283,14457 13198,14497 13108,14529 13014,14552 12916,14566 12814,14571 12712,14566 12614,14552 12520,14529 12430,14497 12345,14457 12265,14410 12191,14355 12123,14294 12061,14226 12006,14152 11958,14072 11923,13999 13205,13999 Z M 13195,13989 L 11918,13989 11918,13988 11886,13898 11863,13805 11849,13707 11844,13606 11849,13505 11863,13407 11886,13314 11918,13224 11958,13140 12006,13060 12061,12986 12123,12918 12191,12857 12265,12802 12345,12755 12430,12715 12520,12683 12614,12660 12712,12646 12814,12641 12916,12646 13014,12660 13108,12683 13195,12714 13195,13989 Z"/>
    <path fill="rgb(26,129,194)" stroke="none" d="M 13195,13989 L 13195,12714 13198,12715 13283,12755 13363,12802 13437,12857 13505,12918 13567,12986 13622,13060 13670,13140 13710,13224 13742,13314 13765,13407 13779,13505 13784,13606 13779,13707 13765,13805 13742,13898 13710,13988 13670,14072 13622,14152 13567,14226 13505,14294 13437,14355 13363,14410 13283,14457 13198,14497 13108,14529 13014,14552 12916,14566 12814,14571 12712,14566 12614,14552 12520,14529 12430,14497 12345,14457 12265,14410 12191,14355 12123,14294 12061,14226 12006,14152 11958,14072 11918,13989 13195,13989 Z M 13185,13979 L 11915,13979 11886,13898 11863,13805 11849,13707 11844,13606 11849,13505 11863,13407 11886,13314 11918,13224 11958,13140 12006,13060 12061,12986 12123,12918 12191,12857 12265,12802 12345,12755 12430,12715 12520,12683 12614,12660 12712,12646 12814,12641 12916,12646 13014,12660 13108,12683 13185,12710 13185,13979 Z"/>
    <path fill="rgb(27,130,195)" stroke="none" d="M 13185,13979 L 13185,12710 13198,12715 13283,12755 13363,12802 13437,12857 13505,12918 13567,12986 13622,13060 13670,13140 13710,13224 13742,13314 13765,13407 13779,13505 13784,13606 13779,13707 13765,13805 13742,13898 13710,13988 13670,14072 13622,14152 13567,14226 13505,14294 13437,14355 13363,14410 13283,14457 13198,14497 13108,14529 13014,14552 12916,14566 12814,14571 12712,14566 12614,14552 12520,14529 12430,14497 12345,14457 12265,14410 12191,14355 12123,14294 12061,14226 12006,14152 11958,14072 11918,13988 11915,13979 13185,13979 Z M 13175,13969 L 11911,13969 11886,13898 11863,13805 11849,13707 11844,13606 11849,13505 11863,13407 11886,13314 11918,13224 11958,13140 12006,13060 12061,12986 12123,12918 12191,12857 12265,12802 12345,12755 12430,12715 12520,12683 12614,12660 12712,12646 12814,12641 12916,12646 13014,12660 13108,12683 13175,12707 13175,13969 Z"/>
    <path fill="rgb(28,130,195)" stroke="none" d="M 13175,13969 L 13175,12707 13198,12715 13283,12755 13363,12802 13437,12857 13505,12918 13567,12986 13622,13060 13670,13140 13710,13224 13742,13314 13765,13407 13779,13505 13784,13606 13779,13707 13765,13805 13742,13898 13710,13988 13670,14072 13622,14152 13567,14226 13505,14294 13437,14355 13363,14410 13283,14457 13198,14497 13108,14529 13014,14552 12916,14566 12814,14571 12712,14566 12614,14552 12520,14529 12430,14497 12345,14457 12265,14410 12191,14355 12123,14294 12061,14226 12006,14152 11958,14072 11918,13988 11911,13969 13175,13969 Z M 13165,13959 L 11908,13959 11886,13898 11863,13805 11849,13707 11844,13606 11849,13505 11863,13407 11886,13314 11918,13224 11958,13140 12006,13060 12061,12986 12123,12918 12191,12857 12265,12802 12345,12755 12430,12715 12520,12683 12614,12660 12712,12646 12814,12641 12916,12646 13014,12660 13108,12683 13165,12703 13165,13959 Z"/>
    <path fill="rgb(30,131,195)" stroke="none" d="M 13165,13959 L 13165,12703 13198,12715 13283,12755 13363,12802 13437,12857 13505,12918 13567,12986 13622,13060 13670,13140 13710,13224 13742,13314 13765,13407 13779,13505 13784,13606 13779,13707 13765,13805 13742,13898 13710,13988 13670,14072 13622,14152 13567,14226 13505,14294 13437,14355 13363,14410 13283,14457 13198,14497 13108,14529 13014,14552 12916,14566 12814,14571 12712,14566 12614,14552 12520,14529 12430,14497 12345,14457 12265,14410 12191,14355 12123,14294 12061,14226 12006,14152 11958,14072 11918,13988 11908,13959 13165,13959 Z M 13155,13949 L 11904,13949 11886,13898 11863,13805 11849,13707 11844,13606 11849,13505 11863,13407 11886,13314 11918,13224 11958,13140 12006,13060 12061,12986 12123,12918 12191,12857 12265,12802 12345,12755 12430,12715 12520,12683 12614,12660 12712,12646 12814,12641 12916,12646 13014,12660 13108,12683 13155,12700 13155,13949 Z"/>
    <path fill="rgb(31,132,196)" stroke="none" d="M 13155,13949 L 13155,12700 13198,12715 13283,12755 13363,12802 13437,12857 13505,12918 13567,12986 13622,13060 13670,13140 13710,13224 13742,13314 13765,13407 13779,13505 13784,13606 13779,13707 13765,13805 13742,13898 13710,13988 13670,14072 13622,14152 13567,14226 13505,14294 13437,14355 13363,14410 13283,14457 13198,14497 13108,14529 13014,14552 12916,14566 12814,14571 12712,14566 12614,14552 12520,14529 12430,14497 12345,14457 12265,14410 12191,14355 12123,14294 12061,14226 12006,14152 11958,14072 11918,13988 11904,13949 13155,13949 Z M 13145,13939 L 11901,13939 11886,13898 11863,13805 11849,13707 11844,13606 11849,13505 11863,13407 11886,13314 11918,13224 11958,13140 12006,13060 12061,12986 12123,12918 12191,12857 12265,12802 12345,12755 12430,12715 12520,12683 12614,12660 12712,12646 12814,12641 12916,12646 13014,12660 13108,12683 13145,12696 13145,13939 Z"/>
    <path fill="rgb(32,133,196)" stroke="none" d="M 13145,13939 L 13145,12696 13198,12715 13283,12755 13363,12802 13437,12857 13505,12918 13567,12986 13622,13060 13670,13140 13710,13224 13742,13314 13765,13407 13779,13505 13784,13606 13779,13707 13765,13805 13742,13898 13710,13988 13670,14072 13622,14152 13567,14226 13505,14294 13437,14355 13363,14410 13283,14457 13198,14497 13108,14529 13014,14552 12916,14566 12814,14571 12712,14566 12614,14552 12520,14529 12430,14497 12345,14457 12265,14410 12191,14355 12123,14294 12061,14226 12006,14152 11958,14072 11918,13988 11901,13939 13145,13939 Z M 13135,13929 L 11897,13929 11886,13898 11863,13805 11849,13707 11844,13606 11849,13505 11863,13407 11886,13314 11918,13224 11958,13140 12006,13060 12061,12986 12123,12918 12191,12857 12265,12802 12345,12755 12430,12715 12520,12683 12614,12660 12712,12646 12814,12641 12916,12646 13014,12660 13108,12683 13135,12693 13135,13929 Z"/>
    <path fill="rgb(34,133,196)" stroke="none" d="M 13135,13929 L 13135,12693 13198,12715 13283,12755 13363,12802 13437,12857 13505,12918 13567,12986 13622,13060 13670,13140 13710,13224 13742,13314 13765,13407 13779,13505 13784,13606 13779,13707 13765,13805 13742,13898 13710,13988 13670,14072 13622,14152 13567,14226 13505,14294 13437,14355 13363,14410 13283,14457 13198,14497 13108,14529 13014,14552 12916,14566 12814,14571 12712,14566 12614,14552 12520,14529 12430,14497 12345,14457 12265,14410 12191,14355 12123,14294 12061,14226 12006,14152 11958,14072 11918,13988 11897,13929 13135,13929 Z M 13125,13919 L 11893,13919 11886,13898 11863,13805 11849,13707 11844,13606 11849,13505 11863,13407 11886,13314 11918,13224 11958,13140 12006,13060 12061,12986 12123,12918 12191,12857 12265,12802 12345,12755 12430,12715 12520,12683 12614,12660 12712,12646 12814,12641 12916,12646 13014,12660 13108,12683 13125,12689 13125,13919 Z"/>
    <path fill="rgb(35,134,197)" stroke="none" d="M 13125,13919 L 13125,12689 13198,12715 13283,12755 13363,12802 13437,12857 13505,12918 13567,12986 13622,13060 13670,13140 13710,13224 13742,13314 13765,13407 13779,13505 13784,13606 13779,13707 13765,13805 13742,13898 13710,13988 13670,14072 13622,14152 13567,14226 13505,14294 13437,14355 13363,14410 13283,14457 13198,14497 13108,14529 13014,14552 12916,14566 12814,14571 12712,14566 12614,14552 12520,14529 12430,14497 12345,14457 12265,14410 12191,14355 12123,14294 12061,14226 12006,14152 11958,14072 11918,13988 11893,13919 13125,13919 Z M 13115,13909 L 11890,13909 11886,13898 11863,13805 11849,13707 11844,13606 11849,13505 11863,13407 11886,13314 11918,13224 11958,13140 12006,13060 12061,12986 12123,12918 12191,12857 12265,12802 12345,12755 12430,12715 12520,12683 12614,12660 12712,12646 12814,12641 12916,12646 13014,12660 13108,12683 13115,12685 13115,13909 Z"/>
    <path fill="rgb(36,135,197)" stroke="none" d="M 13115,13909 L 13115,12685 13198,12715 13283,12755 13363,12802 13437,12857 13505,12918 13567,12986 13622,13060 13670,13140 13710,13224 13742,13314 13765,13407 13779,13505 13784,13606 13779,13707 13765,13805 13742,13898 13710,13988 13670,14072 13622,14152 13567,14226 13505,14294 13437,14355 13363,14410 13283,14457 13198,14497 13108,14529 13014,14552 12916,14566 12814,14571 12712,14566 12614,14552 12520,14529 12430,14497 12345,14457 12265,14410 12191,14355 12123,14294 12061,14226 12006,14152 11958,14072 11918,13988 11890,13909 13115,13909 Z M 13105,13899 L 11886,13899 11886,13898 11863,13805 11849,13707 11844,13606 11849,13505 11863,13407 11886,13314 11918,13224 11958,13140 12006,13060 12061,12986 12123,12918 12191,12857 12265,12802 12345,12755 12430,12715 12520,12683 12614,12660 12712,12646 12814,12641 12916,12646 13014,12660 13105,12682 13105,13899 Z"/>
    <path fill="rgb(37,135,197)" stroke="none" d="M 13105,13899 L 13105,12682 13108,12683 13198,12715 13283,12755 13363,12802 13437,12857 13505,12918 13567,12986 13622,13060 13670,13140 13710,13224 13742,13314 13765,13407 13779,13505 13784,13606 13779,13707 13765,13805 13742,13898 13710,13988 13670,14072 13622,14152 13567,14226 13505,14294 13437,14355 13363,14410 13283,14457 13198,14497 13108,14529 13014,14552 12916,14566 12814,14571 12712,14566 12614,14552 12520,14529 12430,14497 12345,14457 12265,14410 12191,14355 12123,14294 12061,14226 12006,14152 11958,14072 11918,13988 11886,13899 13105,13899 Z M 13095,13889 L 11884,13889 11863,13805 11849,13707 11844,13606 11849,13505 11863,13407 11886,13314 11918,13224 11958,13140 12006,13060 12061,12986 12123,12918 12191,12857 12265,12802 12345,12755 12430,12715 12520,12683 12614,12660 12712,12646 12814,12641 12916,12646 13014,12660 13095,12680 13095,13889 Z"/>
    <path fill="rgb(39,136,198)" stroke="none" d="M 13095,13889 L 13095,12680 13108,12683 13198,12715 13283,12755 13363,12802 13437,12857 13505,12918 13567,12986 13622,13060 13670,13140 13710,13224 13742,13314 13765,13407 13779,13505 13784,13606 13779,13707 13765,13805 13742,13898 13710,13988 13670,14072 13622,14152 13567,14226 13505,14294 13437,14355 13363,14410 13283,14457 13198,14497 13108,14529 13014,14552 12916,14566 12814,14571 12712,14566 12614,14552 12520,14529 12430,14497 12345,14457 12265,14410 12191,14355 12123,14294 12061,14226 12006,14152 11958,14072 11918,13988 11886,13898 11884,13889 13095,13889 Z M 13085,13879 L 11881,13879 11863,13805 11849,13707 11844,13606 11849,13505 11863,13407 11886,13314 11918,13224 11958,13140 12006,13060 12061,12986 12123,12918 12191,12857 12265,12802 12345,12755 12430,12715 12520,12683 12614,12660 12712,12646 12814,12641 12916,12646 13014,12660 13085,12677 13085,13879 Z"/>
    <path fill="rgb(40,137,198)" stroke="none" d="M 13085,13879 L 13085,12677 13108,12683 13198,12715 13283,12755 13363,12802 13437,12857 13505,12918 13567,12986 13622,13060 13670,13140 13710,13224 13742,13314 13765,13407 13779,13505 13784,13606 13779,13707 13765,13805 13742,13898 13710,13988 13670,14072 13622,14152 13567,14226 13505,14294 13437,14355 13363,14410 13283,14457 13198,14497 13108,14529 13014,14552 12916,14566 12814,14571 12712,14566 12614,14552 12520,14529 12430,14497 12345,14457 12265,14410 12191,14355 12123,14294 12061,14226 12006,14152 11958,14072 11918,13988 11886,13898 11881,13879 13085,13879 Z M 13075,13869 L 11879,13869 11863,13805 11849,13707 11844,13606 11849,13505 11863,13407 11886,13314 11918,13224 11958,13140 12006,13060 12061,12986 12123,12918 12191,12857 12265,12802 12345,12755 12430,12715 12520,12683 12614,12660 12712,12646 12814,12641 12916,12646 13014,12660 13075,12675 13075,13869 Z"/>
    <path fill="rgb(41,138,198)" stroke="none" d="M 13075,13869 L 13075,12675 13108,12683 13198,12715 13283,12755 13363,12802 13437,12857 13505,12918 13567,12986 13622,13060 13670,13140 13710,13224 13742,13314 13765,13407 13779,13505 13784,13606 13779,13707 13765,13805 13742,13898 13710,13988 13670,14072 13622,14152 13567,14226 13505,14294 13437,14355 13363,14410 13283,14457 13198,14497 13108,14529 13014,14552 12916,14566 12814,14571 12712,14566 12614,14552 12520,14529 12430,14497 12345,14457 12265,14410 12191,14355 12123,14294 12061,14226 12006,14152 11958,14072 11918,13988 11886,13898 11879,13869 13075,13869 Z M 13065,13859 L 11876,13859 11863,13805 11849,13707 11844,13606 11849,13505 11863,13407 11886,13314 11918,13224 11958,13140 12006,13060 12061,12986 12123,12918 12191,12857 12265,12802 12345,12755 12430,12715 12520,12683 12614,12660 12712,12646 12814,12641 12916,12646 13014,12660 13065,12672 13065,13859 Z"/>
    <path fill="rgb(43,138,199)" stroke="none" d="M 13065,13859 L 13065,12672 13108,12683 13198,12715 13283,12755 13363,12802 13437,12857 13505,12918 13567,12986 13622,13060 13670,13140 13710,13224 13742,13314 13765,13407 13779,13505 13784,13606 13779,13707 13765,13805 13742,13898 13710,13988 13670,14072 13622,14152 13567,14226 13505,14294 13437,14355 13363,14410 13283,14457 13198,14497 13108,14529 13014,14552 12916,14566 12814,14571 12712,14566 12614,14552 12520,14529 12430,14497 12345,14457 12265,14410 12191,14355 12123,14294 12061,14226 12006,14152 11958,14072 11918,13988 11886,13898 11876,13859 13065,13859 Z M 13055,13849 L 11874,13849 11863,13805 11849,13707 11844,13606 11849,13505 11863,13407 11886,13314 11918,13224 11958,13140 12006,13060 12061,12986 12123,12918 12191,12857 12265,12802 12345,12755 12430,12715 12520,12683 12614,12660 12712,12646 12814,12641 12916,12646 13014,12660 13055,12670 13055,13849 Z"/>
    <path fill="rgb(44,139,199)" stroke="none" d="M 13055,13849 L 13055,12670 13108,12683 13198,12715 13283,12755 13363,12802 13437,12857 13505,12918 13567,12986 13622,13060 13670,13140 13710,13224 13742,13314 13765,13407 13779,13505 13784,13606 13779,13707 13765,13805 13742,13898 13710,13988 13670,14072 13622,14152 13567,14226 13505,14294 13437,14355 13363,14410 13283,14457 13198,14497 13108,14529 13014,14552 12916,14566 12814,14571 12712,14566 12614,14552 12520,14529 12430,14497 12345,14457 12265,14410 12191,14355 12123,14294 12061,14226 12006,14152 11958,14072 11918,13988 11886,13898 11874,13849 13055,13849 Z M 13045,13839 L 11871,13839 11863,13805 11849,13707 11844,13606 11849,13505 11863,13407 11886,13314 11918,13224 11958,13140 12006,13060 12061,12986 12123,12918 12191,12857 12265,12802 12345,12755 12430,12715 12520,12683 12614,12660 12712,12646 12814,12641 12916,12646 13014,12660 13045,12668 13045,13839 Z"/>
    <path fill="rgb(45,140,199)" stroke="none" d="M 13045,13839 L 13045,12668 13108,12683 13198,12715 13283,12755 13363,12802 13437,12857 13505,12918 13567,12986 13622,13060 13670,13140 13710,13224 13742,13314 13765,13407 13779,13505 13784,13606 13779,13707 13765,13805 13742,13898 13710,13988 13670,14072 13622,14152 13567,14226 13505,14294 13437,14355 13363,14410 13283,14457 13198,14497 13108,14529 13014,14552 12916,14566 12814,14571 12712,14566 12614,14552 12520,14529 12430,14497 12345,14457 12265,14410 12191,14355 12123,14294 12061,14226 12006,14152 11958,14072 11918,13988 11886,13898 11871,13839 13045,13839 Z M 13035,13829 L 11869,13829 11863,13805 11849,13707 11844,13606 11849,13505 11863,13407 11886,13314 11918,13224 11958,13140 12006,13060 12061,12986 12123,12918 12191,12857 12265,12802 12345,12755 12430,12715 12520,12683 12614,12660 12712,12646 12814,12641 12916,12646 13014,12660 13035,12665 13035,13829 Z"/>
    <path fill="rgb(47,140,200)" stroke="none" d="M 13035,13829 L 13035,12665 13108,12683 13198,12715 13283,12755 13363,12802 13437,12857 13505,12918 13567,12986 13622,13060 13670,13140 13710,13224 13742,13314 13765,13407 13779,13505 13784,13606 13779,13707 13765,13805 13742,13898 13710,13988 13670,14072 13622,14152 13567,14226 13505,14294 13437,14355 13363,14410 13283,14457 13198,14497 13108,14529 13014,14552 12916,14566 12814,14571 12712,14566 12614,14552 12520,14529 12430,14497 12345,14457 12265,14410 12191,14355 12123,14294 12061,14226 12006,14152 11958,14072 11918,13988 11886,13898 11869,13829 13035,13829 Z M 13025,13819 L 11866,13819 11863,13805 11849,13707 11844,13606 11849,13505 11863,13407 11886,13314 11918,13224 11958,13140 12006,13060 12061,12986 12123,12918 12191,12857 12265,12802 12345,12755 12430,12715 12520,12683 12614,12660 12712,12646 12814,12641 12916,12646 13014,12660 13025,12663 13025,13819 Z"/>
    <path fill="rgb(48,141,200)" stroke="none" d="M 13025,13819 L 13025,12663 13108,12683 13198,12715 13283,12755 13363,12802 13437,12857 13505,12918 13567,12986 13622,13060 13670,13140 13710,13224 13742,13314 13765,13407 13779,13505 13784,13606 13779,13707 13765,13805 13742,13898 13710,13988 13670,14072 13622,14152 13567,14226 13505,14294 13437,14355 13363,14410 13283,14457 13198,14497 13108,14529 13014,14552 12916,14566 12814,14571 12712,14566 12614,14552 12520,14529 12430,14497 12345,14457 12265,14410 12191,14355 12123,14294 12061,14226 12006,14152 11958,14072 11918,13988 11886,13898 11866,13819 13025,13819 Z M 13015,13809 L 11864,13809 11863,13805 11849,13707 11844,13606 11849,13505 11863,13407 11886,13314 11918,13224 11958,13140 12006,13060 12061,12986 12123,12918 12191,12857 12265,12802 12345,12755 12430,12715 12520,12683 12614,12660 12712,12646 12814,12641 12916,12646 13014,12660 13015,12660 13015,13809 Z"/>
    <path fill="rgb(49,142,200)" stroke="none" d="M 13015,13809 L 13015,12660 13108,12683 13198,12715 13283,12755 13363,12802 13437,12857 13505,12918 13567,12986 13622,13060 13670,13140 13710,13224 13742,13314 13765,13407 13779,13505 13784,13606 13779,13707 13765,13805 13742,13898 13710,13988 13670,14072 13622,14152 13567,14226 13505,14294 13437,14355 13363,14410 13283,14457 13198,14497 13108,14529 13014,14552 12916,14566 12814,14571 12712,14566 12614,14552 12520,14529 12430,14497 12345,14457 12265,14410 12191,14355 12123,14294 12061,14226 12006,14152 11958,14072 11918,13988 11886,13898 11864,13809 13015,13809 Z M 13005,13799 L 11862,13799 11849,13707 11844,13606 11849,13505 11863,13407 11886,13314 11918,13224 11958,13140 12006,13060 12061,12986 12123,12918 12191,12857 12265,12802 12345,12755 12430,12715 12520,12683 12614,12660 12712,12646 12814,12641 12916,12646 13005,12659 13005,13799 Z"/>
    <path fill="rgb(51,143,201)" stroke="none" d="M 13005,13799 L 13005,12659 13014,12660 13108,12683 13198,12715 13283,12755 13363,12802 13437,12857 13505,12918 13567,12986 13622,13060 13670,13140 13710,13224 13742,13314 13765,13407 13779,13505 13784,13606 13779,13707 13765,13805 13742,13898 13710,13988 13670,14072 13622,14152 13567,14226 13505,14294 13437,14355 13363,14410 13283,14457 13198,14497 13108,14529 13014,14552 12916,14566 12814,14571 12712,14566 12614,14552 12520,14529 12430,14497 12345,14457 12265,14410 12191,14355 12123,14294 12061,14226 12006,14152 11958,14072 11918,13988 11886,13898 11863,13805 11862,13799 13005,13799 Z M 12930,12648 L 12995,12657 12995,13789 11861,13789 11854,13742 11854,13470 11863,13407 11886,13314 11918,13224 11958,13140 12006,13060 12061,12986 12123,12918 12191,12857 12265,12802 12345,12755 12430,12715 12520,12683 12614,12660 12698,12648 12930,12648 Z"/>
    <path fill="rgb(52,143,201)" stroke="none" d="M 11854,13742 L 11849,13707 11844,13606 11849,13505 11854,13470 11854,13742 Z M 12995,13789 L 12995,12657 13014,12660 13108,12683 13198,12715 13283,12755 13363,12802 13437,12857 13505,12918 13567,12986 13622,13060 13670,13140 13710,13224 13742,13314 13765,13407 13779,13505 13784,13606 13779,13707 13765,13805 13742,13898 13710,13988 13670,14072 13622,14152 13567,14226 13505,14294 13437,14355 13363,14410 13283,14457 13198,14497 13108,14529 13014,14552 12916,14566 12814,14571 12712,14566 12614,14552 12520,14529 12430,14497 12345,14457 12265,14410 12191,14355 12123,14294 12061,14226 12006,14152 11958,14072 11918,13988 11886,13898 11863,13805 11861,13789 12995,13789 Z M 12698,12648 L 12712,12646 12814,12641 12916,12646 12930,12648 12698,12648 Z M 12985,12658 L 12985,13779 11864,13779 11864,13403 11886,13314 11918,13224 11958,13140 12006,13060 12061,12986 12123,12918 12191,12857 12265,12802 12345,12755 12430,12715 12520,12683 12614,12660 12628,12658 12985,12658 Z"/>
    <path fill="rgb(53,144,201)" stroke="none" d="M 11864,13779 L 12985,13779 12985,12658 12628,12658 12712,12646 12814,12641 12916,12646 13014,12660 13108,12683 13198,12715 13283,12755 13363,12802 13437,12857 13505,12918 13567,12986 13622,13060 13670,13140 13710,13224 13742,13314 13765,13407 13779,13505 13784,13606 13779,13707 13765,13805 13742,13898 13710,13988 13670,14072 13622,14152 13567,14226 13505,14294 13437,14355 13363,14410 13283,14457 13198,14497 13108,14529 13014,14552 12916,14566 12814,14571 12712,14566 12614,14552 12520,14529 12430,14497 12345,14457 12265,14410 12191,14355 12123,14294 12061,14226 12006,14152 11958,14072 11918,13988 11886,13898 11863,13805 11849,13707 11844,13606 11849,13505 11863,13407 11864,13403 11864,13779 Z M 12975,12668 L 12975,13769 11874,13769 11874,13363 11886,13314 11918,13224 11958,13140 12006,13060 12061,12986 12123,12918 12191,12857 12265,12802 12345,12755 12430,12715 12520,12683 12581,12668 12975,12668 Z"/>
    <path fill="rgb(54,145,202)" stroke="none" d="M 11874,13769 L 12975,13769 12975,12668 12581,12668 12614,12660 12712,12646 12814,12641 12916,12646 13014,12660 13108,12683 13198,12715 13283,12755 13363,12802 13437,12857 13505,12918 13567,12986 13622,13060 13670,13140 13710,13224 13742,13314 13765,13407 13779,13505 13784,13606 13779,13707 13765,13805 13742,13898 13710,13988 13670,14072 13622,14152 13567,14226 13505,14294 13437,14355 13363,14410 13283,14457 13198,14497 13108,14529 13014,14552 12916,14566 12814,14571 12712,14566 12614,14552 12520,14529 12430,14497 12345,14457 12265,14410 12191,14355 12123,14294 12061,14226 12006,14152 11958,14072 11918,13988 11886,13898 11863,13805 11849,13707 11844,13606 11849,13505 11863,13407 11874,13363 11874,13769 Z M 12965,12678 L 12965,13759 11884,13759 11884,13322 11886,13314 11918,13224 11958,13140 12006,13060 12061,12986 12123,12918 12191,12857 12265,12802 12345,12755 12430,12715 12520,12683 12540,12678 12965,12678 Z"/>
    <path fill="rgb(56,146,202)" stroke="none" d="M 11884,13759 L 12965,13759 12965,12678 12540,12678 12614,12660 12712,12646 12814,12641 12916,12646 13014,12660 13108,12683 13198,12715 13283,12755 13363,12802 13437,12857 13505,12918 13567,12986 13622,13060 13670,13140 13710,13224 13742,13314 13765,13407 13779,13505 13784,13606 13779,13707 13765,13805 13742,13898 13710,13988 13670,14072 13622,14152 13567,14226 13505,14294 13437,14355 13363,14410 13283,14457 13198,14497 13108,14529 13014,14552 12916,14566 12814,14571 12712,14566 12614,14552 12520,14529 12430,14497 12345,14457 12265,14410 12191,14355 12123,14294 12061,14226 12006,14152 11958,14072 11918,13988 11886,13898 11863,13805 11849,13707 11844,13606 11849,13505 11863,13407 11884,13322 11884,13759 Z M 12955,12688 L 12955,13749 11894,13749 11894,13292 11918,13224 11958,13140 12006,13060 12061,12986 12123,12918 12191,12857 12265,12802 12345,12755 12430,12715 12506,12688 12955,12688 Z"/>
    <path fill="rgb(57,146,202)" stroke="none" d="M 11894,13749 L 12955,13749 12955,12688 12506,12688 12520,12683 12614,12660 12712,12646 12814,12641 12916,12646 13014,12660 13108,12683 13198,12715 13283,12755 13363,12802 13437,12857 13505,12918 13567,12986 13622,13060 13670,13140 13710,13224 13742,13314 13765,13407 13779,13505 13784,13606 13779,13707 13765,13805 13742,13898 13710,13988 13670,14072 13622,14152 13567,14226 13505,14294 13437,14355 13363,14410 13283,14457 13198,14497 13108,14529 13014,14552 12916,14566 12814,14571 12712,14566 12614,14552 12520,14529 12430,14497 12345,14457 12265,14410 12191,14355 12123,14294 12061,14226 12006,14152 11958,14072 11918,13988 11886,13898 11863,13805 11849,13707 11844,13606 11849,13505 11863,13407 11886,13314 11894,13292 11894,13749 Z M 12945,12698 L 12945,13739 11904,13739 11904,13263 11918,13224 11958,13140 12006,13060 12061,12986 12123,12918 12191,12857 12265,12802 12345,12755 12430,12715 12478,12698 12945,12698 Z"/>
    <path fill="rgb(58,147,203)" stroke="none" d="M 11904,13739 L 12945,13739 12945,12698 12478,12698 12520,12683 12614,12660 12712,12646 12814,12641 12916,12646 13014,12660 13108,12683 13198,12715 13283,12755 13363,12802 13437,12857 13505,12918 13567,12986 13622,13060 13670,13140 13710,13224 13742,13314 13765,13407 13779,13505 13784,13606 13779,13707 13765,13805 13742,13898 13710,13988 13670,14072 13622,14152 13567,14226 13505,14294 13437,14355 13363,14410 13283,14457 13198,14497 13108,14529 13014,14552 12916,14566 12814,14571 12712,14566 12614,14552 12520,14529 12430,14497 12345,14457 12265,14410 12191,14355 12123,14294 12061,14226 12006,14152 11958,14072 11918,13988 11886,13898 11863,13805 11849,13707 11844,13606 11849,13505 11863,13407 11886,13314 11904,13263 11904,13739 Z M 12935,12708 L 12935,13729 11914,13729 11914,13235 11918,13224 11958,13140 12006,13060 12061,12986 12123,12918 12191,12857 12265,12802 12345,12755 12430,12715 12450,12708 12935,12708 Z"/>
    <path fill="rgb(60,148,203)" stroke="none" d="M 11914,13729 L 12935,13729 12935,12708 12450,12708 12520,12683 12614,12660 12712,12646 12814,12641 12916,12646 13014,12660 13108,12683 13198,12715 13283,12755 13363,12802 13437,12857 13505,12918 13567,12986 13622,13060 13670,13140 13710,13224 13742,13314 13765,13407 13779,13505 13784,13606 13779,13707 13765,13805 13742,13898 13710,13988 13670,14072 13622,14152 13567,14226 13505,14294 13437,14355 13363,14410 13283,14457 13198,14497 13108,14529 13014,14552 12916,14566 12814,14571 12712,14566 12614,14552 12520,14529 12430,14497 12345,14457 12265,14410 12191,14355 12123,14294 12061,14226 12006,14152 11958,14072 11918,13988 11886,13898 11863,13805 11849,13707 11844,13606 11849,13505 11863,13407 11886,13314 11914,13235 11914,13729 Z M 12925,12718 L 12925,13719 11924,13719 11924,13211 11958,13140 12006,13060 12061,12986 12123,12918 12191,12857 12265,12802 12345,12755 12424,12718 12925,12718 Z"/>
    <path fill="rgb(61,148,203)" stroke="none" d="M 11924,13719 L 12925,13719 12925,12718 12424,12718 12430,12715 12520,12683 12614,12660 12712,12646 12814,12641 12916,12646 13014,12660 13108,12683 13198,12715 13283,12755 13363,12802 13437,12857 13505,12918 13567,12986 13622,13060 13670,13140 13710,13224 13742,13314 13765,13407 13779,13505 13784,13606 13779,13707 13765,13805 13742,13898 13710,13988 13670,14072 13622,14152 13567,14226 13505,14294 13437,14355 13363,14410 13283,14457 13198,14497 13108,14529 13014,14552 12916,14566 12814,14571 12712,14566 12614,14552 12520,14529 12430,14497 12345,14457 12265,14410 12191,14355 12123,14294 12061,14226 12006,14152 11958,14072 11918,13988 11886,13898 11863,13805 11849,13707 11844,13606 11849,13505 11863,13407 11886,13314 11918,13224 11924,13211 11924,13719 Z M 12915,12728 L 12915,13709 11934,13709 11934,13190 11958,13140 12006,13060 12061,12986 12123,12918 12191,12857 12265,12802 12345,12755 12402,12728 12915,12728 Z"/>
    <path fill="rgb(62,149,204)" stroke="none" d="M 11934,13709 L 12915,13709 12915,12728 12402,12728 12430,12715 12520,12683 12614,12660 12712,12646 12814,12641 12916,12646 13014,12660 13108,12683 13198,12715 13283,12755 13363,12802 13437,12857 13505,12918 13567,12986 13622,13060 13670,13140 13710,13224 13742,13314 13765,13407 13779,13505 13784,13606 13779,13707 13765,13805 13742,13898 13710,13988 13670,14072 13622,14152 13567,14226 13505,14294 13437,14355 13363,14410 13283,14457 13198,14497 13108,14529 13014,14552 12916,14566 12814,14571 12712,14566 12614,14552 12520,14529 12430,14497 12345,14457 12265,14410 12191,14355 12123,14294 12061,14226 12006,14152 11958,14072 11918,13988 11886,13898 11863,13805 11849,13707 11844,13606 11849,13505 11863,13407 11886,13314 11918,13224 11934,13190 11934,13709 Z M 12905,12738 L 12905,13699 11944,13699 11944,13169 11958,13140 12006,13060 12061,12986 12123,12918 12191,12857 12265,12802 12345,12755 12381,12738 12905,12738 Z"/>
    <path fill="rgb(64,150,204)" stroke="none" d="M 11944,13699 L 12905,13699 12905,12738 12381,12738 12430,12715 12520,12683 12614,12660 12712,12646 12814,12641 12916,12646 13014,12660 13108,12683 13198,12715 13283,12755 13363,12802 13437,12857 13505,12918 13567,12986 13622,13060 13670,13140 13710,13224 13742,13314 13765,13407 13779,13505 13784,13606 13779,13707 13765,13805 13742,13898 13710,13988 13670,14072 13622,14152 13567,14226 13505,14294 13437,14355 13363,14410 13283,14457 13198,14497 13108,14529 13014,14552 12916,14566 12814,14571 12712,14566 12614,14552 12520,14529 12430,14497 12345,14457 12265,14410 12191,14355 12123,14294 12061,14226 12006,14152 11958,14072 11918,13988 11886,13898 11863,13805 11849,13707 11844,13606 11849,13505 11863,13407 11886,13314 11918,13224 11944,13169 11944,13699 Z M 12895,12748 L 12895,13689 11954,13689 11954,13148 11958,13140 12006,13060 12061,12986 12123,12918 12191,12857 12265,12802 12345,12755 12360,12748 12895,12748 Z"/>
    <path fill="rgb(65,151,205)" stroke="none" d="M 11954,13689 L 12895,13689 12895,12748 12360,12748 12430,12715 12520,12683 12614,12660 12712,12646 12814,12641 12916,12646 13014,12660 13108,12683 13198,12715 13283,12755 13363,12802 13437,12857 13505,12918 13567,12986 13622,13060 13670,13140 13710,13224 13742,13314 13765,13407 13779,13505 13784,13606 13779,13707 13765,13805 13742,13898 13710,13988 13670,14072 13622,14152 13567,14226 13505,14294 13437,14355 13363,14410 13283,14457 13198,14497 13108,14529 13014,14552 12916,14566 12814,14571 12712,14566 12614,14552 12520,14529 12430,14497 12345,14457 12265,14410 12191,14355 12123,14294 12061,14226 12006,14152 11958,14072 11918,13988 11886,13898 11863,13805 11849,13707 11844,13606 11849,13505 11863,13407 11886,13314 11918,13224 11954,13148 11954,13689 Z M 12885,12758 L 12885,13679 11964,13679 11964,13130 12006,13060 12061,12986 12123,12918 12191,12857 12265,12802 12340,12758 12885,12758 Z"/>
    <path fill="rgb(66,151,205)" stroke="none" d="M 11964,13679 L 12885,13679 12885,12758 12340,12758 12345,12755 12430,12715 12520,12683 12614,12660 12712,12646 12814,12641 12916,12646 13014,12660 13108,12683 13198,12715 13283,12755 13363,12802 13437,12857 13505,12918 13567,12986 13622,13060 13670,13140 13710,13224 13742,13314 13765,13407 13779,13505 13784,13606 13779,13707 13765,13805 13742,13898 13710,13988 13670,14072 13622,14152 13567,14226 13505,14294 13437,14355 13363,14410 13283,14457 13198,14497 13108,14529 13014,14552 12916,14566 12814,14571 12712,14566 12614,14552 12520,14529 12430,14497 12345,14457 12265,14410 12191,14355 12123,14294 12061,14226 12006,14152 11958,14072 11918,13988 11886,13898 11863,13805 11849,13707 11844,13606 11849,13505 11863,13407 11886,13314 11918,13224 11958,13140 11964,13130 11964,13679 Z M 12875,12768 L 12875,13669 11974,13669 11974,13113 12006,13060 12061,12986 12123,12918 12191,12857 12265,12802 12323,12768 12875,12768 Z"/>
    <path fill="rgb(68,152,205)" stroke="none" d="M 11974,13669 L 12875,13669 12875,12768 12323,12768 12345,12755 12430,12715 12520,12683 12614,12660 12712,12646 12814,12641 12916,12646 13014,12660 13108,12683 13198,12715 13283,12755 13363,12802 13437,12857 13505,12918 13567,12986 13622,13060 13670,13140 13710,13224 13742,13314 13765,13407 13779,13505 13784,13606 13779,13707 13765,13805 13742,13898 13710,13988 13670,14072 13622,14152 13567,14226 13505,14294 13437,14355 13363,14410 13283,14457 13198,14497 13108,14529 13014,14552 12916,14566 12814,14571 12712,14566 12614,14552 12520,14529 12430,14497 12345,14457 12265,14410 12191,14355 12123,14294 12061,14226 12006,14152 11958,14072 11918,13988 11886,13898 11863,13805 11849,13707 11844,13606 11849,13505 11863,13407 11886,13314 11918,13224 11958,13140 11974,13113 11974,13669 Z M 12865,12778 L 12865,13659 11984,13659 11984,13097 12006,13060 12061,12986 12123,12918 12191,12857 12265,12802 12306,12778 12865,12778 Z"/>
    <path fill="rgb(69,153,206)" stroke="none" d="M 11984,13659 L 12865,13659 12865,12778 12306,12778 12345,12755 12430,12715 12520,12683 12614,12660 12712,12646 12814,12641 12916,12646 13014,12660 13108,12683 13198,12715 13283,12755 13363,12802 13437,12857 13505,12918 13567,12986 13622,13060 13670,13140 13710,13224 13742,13314 13765,13407 13779,13505 13784,13606 13779,13707 13765,13805 13742,13898 13710,13988 13670,14072 13622,14152 13567,14226 13505,14294 13437,14355 13363,14410 13283,14457 13198,14497 13108,14529 13014,14552 12916,14566 12814,14571 12712,14566 12614,14552 12520,14529 12430,14497 12345,14457 12265,14410 12191,14355 12123,14294 12061,14226 12006,14152 11958,14072 11918,13988 11886,13898 11863,13805 11849,13707 11844,13606 11849,13505 11863,13407 11886,13314 11918,13224 11958,13140 11984,13097 11984,13659 Z M 12855,12788 L 12855,13649 11994,13649 11994,13080 12006,13060 12061,12986 12123,12918 12191,12857 12265,12802 12289,12788 12855,12788 Z"/>
    <path fill="rgb(70,153,206)" stroke="none" d="M 11994,13649 L 12855,13649 12855,12788 12289,12788 12345,12755 12430,12715 12520,12683 12614,12660 12712,12646 12814,12641 12916,12646 13014,12660 13108,12683 13198,12715 13283,12755 13363,12802 13437,12857 13505,12918 13567,12986 13622,13060 13670,13140 13710,13224 13742,13314 13765,13407 13779,13505 13784,13606 13779,13707 13765,13805 13742,13898 13710,13988 13670,14072 13622,14152 13567,14226 13505,14294 13437,14355 13363,14410 13283,14457 13198,14497 13108,14529 13014,14552 12916,14566 12814,14571 12712,14566 12614,14552 12520,14529 12430,14497 12345,14457 12265,14410 12191,14355 12123,14294 12061,14226 12006,14152 11958,14072 11918,13988 11886,13898 11863,13805 11849,13707 11844,13606 11849,13505 11863,13407 11886,13314 11918,13224 11958,13140 11994,13080 11994,13649 Z M 12845,12798 L 12845,13639 12004,13639 12004,13063 12006,13060 12061,12986 12123,12918 12191,12857 12265,12802 12272,12798 12845,12798 Z"/>
    <path fill="rgb(72,154,206)" stroke="none" d="M 12004,13639 L 12845,13639 12845,12798 12272,12798 12345,12755 12430,12715 12520,12683 12614,12660 12712,12646 12814,12641 12916,12646 13014,12660 13108,12683 13198,12715 13283,12755 13363,12802 13437,12857 13505,12918 13567,12986 13622,13060 13670,13140 13710,13224 13742,13314 13765,13407 13779,13505 13784,13606 13779,13707 13765,13805 13742,13898 13710,13988 13670,14072 13622,14152 13567,14226 13505,14294 13437,14355 13363,14410 13283,14457 13198,14497 13108,14529 13014,14552 12916,14566 12814,14571 12712,14566 12614,14552 12520,14529 12430,14497 12345,14457 12265,14410 12191,14355 12123,14294 12061,14226 12006,14152 11958,14072 11918,13988 11886,13898 11863,13805 11849,13707 11844,13606 11849,13505 11863,13407 11886,13314 11918,13224 11958,13140 12004,13063 12004,13639 Z M 12835,12808 L 12835,13629 12014,13629 12014,13049 12061,12986 12123,12918 12191,12857 12257,12808 12835,12808 Z"/>
    <path fill="rgb(73,155,207)" stroke="none" d="M 12014,13629 L 12835,13629 12835,12808 12257,12808 12265,12802 12345,12755 12430,12715 12520,12683 12614,12660 12712,12646 12814,12641 12916,12646 13014,12660 13108,12683 13198,12715 13283,12755 13363,12802 13437,12857 13505,12918 13567,12986 13622,13060 13670,13140 13710,13224 13742,13314 13765,13407 13779,13505 13784,13606 13779,13707 13765,13805 13742,13898 13710,13988 13670,14072 13622,14152 13567,14226 13505,14294 13437,14355 13363,14410 13283,14457 13198,14497 13108,14529 13014,14552 12916,14566 12814,14571 12712,14566 12614,14552 12520,14529 12430,14497 12345,14457 12265,14410 12191,14355 12123,14294 12061,14226 12006,14152 11958,14072 11918,13988 11886,13898 11863,13805 11849,13707 11844,13606 11849,13505 11863,13407 11886,13314 11918,13224 11958,13140 12006,13060 12014,13049 12014,13629 Z M 12825,12818 L 12825,13619 12024,13619 12024,13036 12061,12986 12123,12918 12191,12857 12243,12818 12825,12818 Z"/>
    <path fill="rgb(74,156,207)" stroke="none" d="M 12024,13619 L 12825,13619 12825,12818 12243,12818 12265,12802 12345,12755 12430,12715 12520,12683 12614,12660 12712,12646 12814,12641 12916,12646 13014,12660 13108,12683 13198,12715 13283,12755 13363,12802 13437,12857 13505,12918 13567,12986 13622,13060 13670,13140 13710,13224 13742,13314 13765,13407 13779,13505 13784,13606 13779,13707 13765,13805 13742,13898 13710,13988 13670,14072 13622,14152 13567,14226 13505,14294 13437,14355 13363,14410 13283,14457 13198,14497 13108,14529 13014,14552 12916,14566 12814,14571 12712,14566 12614,14552 12520,14529 12430,14497 12345,14457 12265,14410 12191,14355 12123,14294 12061,14226 12006,14152 11958,14072 11918,13988 11886,13898 11863,13805 11849,13707 11844,13606 11849,13505 11863,13407 11886,13314 11918,13224 11958,13140 12006,13060 12024,13036 12024,13619 Z M 12815,12828 L 12815,13609 12034,13609 12034,13022 12061,12986 12123,12918 12191,12857 12230,12828 12815,12828 Z"/>
    <path fill="rgb(75,156,207)" stroke="none" d="M 12034,13609 L 12815,13609 12815,12828 12230,12828 12265,12802 12345,12755 12430,12715 12520,12683 12614,12660 12712,12646 12814,12641 12916,12646 13014,12660 13108,12683 13198,12715 13283,12755 13363,12802 13437,12857 13505,12918 13567,12986 13622,13060 13670,13140 13710,13224 13742,13314 13765,13407 13779,13505 13784,13606 13779,13707 13765,13805 13742,13898 13710,13988 13670,14072 13622,14152 13567,14226 13505,14294 13437,14355 13363,14410 13283,14457 13198,14497 13108,14529 13014,14552 12916,14566 12814,14571 12712,14566 12614,14552 12520,14529 12430,14497 12345,14457 12265,14410 12191,14355 12123,14294 12061,14226 12006,14152 11958,14072 11918,13988 11886,13898 11863,13805 11849,13707 11844,13606 11849,13505 11863,13407 11886,13314 11918,13224 11958,13140 12006,13060 12034,13022 12034,13609 Z M 12805,12838 L 12805,13599 12044,13599 12044,13009 12061,12986 12123,12918 12191,12857 12217,12838 12805,12838 Z"/>
    <path fill="rgb(77,157,208)" stroke="none" d="M 12044,13599 L 12805,13599 12805,12838 12217,12838 12265,12802 12345,12755 12430,12715 12520,12683 12614,12660 12712,12646 12814,12641 12916,12646 13014,12660 13108,12683 13198,12715 13283,12755 13363,12802 13437,12857 13505,12918 13567,12986 13622,13060 13670,13140 13710,13224 13742,13314 13765,13407 13779,13505 13784,13606 13779,13707 13765,13805 13742,13898 13710,13988 13670,14072 13622,14152 13567,14226 13505,14294 13437,14355 13363,14410 13283,14457 13198,14497 13108,14529 13014,14552 12916,14566 12814,14571 12712,14566 12614,14552 12520,14529 12430,14497 12345,14457 12265,14410 12191,14355 12123,14294 12061,14226 12006,14152 11958,14072 11918,13988 11886,13898 11863,13805 11849,13707 11844,13606 11849,13505 11863,13407 11886,13314 11918,13224 11958,13140 12006,13060 12044,13009 12044,13599 Z M 12795,12848 L 12795,13589 12054,13589 12054,12995 12061,12986 12123,12918 12191,12857 12203,12848 12795,12848 Z"/>
    <path fill="rgb(78,158,208)" stroke="none" d="M 12054,13589 L 12795,13589 12795,12848 12203,12848 12265,12802 12345,12755 12430,12715 12520,12683 12614,12660 12712,12646 12814,12641 12916,12646 13014,12660 13108,12683 13198,12715 13283,12755 13363,12802 13437,12857 13505,12918 13567,12986 13622,13060 13670,13140 13710,13224 13742,13314 13765,13407 13779,13505 13784,13606 13779,13707 13765,13805 13742,13898 13710,13988 13670,14072 13622,14152 13567,14226 13505,14294 13437,14355 13363,14410 13283,14457 13198,14497 13108,14529 13014,14552 12916,14566 12814,14571 12712,14566 12614,14552 12520,14529 12430,14497 12345,14457 12265,14410 12191,14355 12123,14294 12061,14226 12006,14152 11958,14072 11918,13988 11886,13898 11863,13805 11849,13707 11844,13606 11849,13505 11863,13407 11886,13314 11918,13224 11958,13140 12006,13060 12054,12995 12054,13589 Z M 12785,12858 L 12785,13579 12064,13579 12064,12983 12123,12918 12190,12858 12785,12858 Z"/>
    <path fill="rgb(79,159,208)" stroke="none" d="M 12064,13579 L 12785,13579 12785,12858 12190,12858 12191,12857 12265,12802 12345,12755 12430,12715 12520,12683 12614,12660 12712,12646 12814,12641 12916,12646 13014,12660 13108,12683 13198,12715 13283,12755 13363,12802 13437,12857 13505,12918 13567,12986 13622,13060 13670,13140 13710,13224 13742,13314 13765,13407 13779,13505 13784,13606 13779,13707 13765,13805 13742,13898 13710,13988 13670,14072 13622,14152 13567,14226 13505,14294 13437,14355 13363,14410 13283,14457 13198,14497 13108,14529 13014,14552 12916,14566 12814,14571 12712,14566 12614,14552 12520,14529 12430,14497 12345,14457 12265,14410 12191,14355 12123,14294 12061,14226 12006,14152 11958,14072 11918,13988 11886,13898 11863,13805 11849,13707 11844,13606 11849,13505 11863,13407 11886,13314 11918,13224 11958,13140 12006,13060 12061,12986 12064,12983 12064,13579 Z M 12775,12868 L 12775,13569 12074,13569 12074,12972 12123,12918 12179,12868 12775,12868 Z"/>
    <path fill="rgb(81,159,209)" stroke="none" d="M 12074,13569 L 12775,13569 12775,12868 12179,12868 12191,12857 12265,12802 12345,12755 12430,12715 12520,12683 12614,12660 12712,12646 12814,12641 12916,12646 13014,12660 13108,12683 13198,12715 13283,12755 13363,12802 13437,12857 13505,12918 13567,12986 13622,13060 13670,13140 13710,13224 13742,13314 13765,13407 13779,13505 13784,13606 13779,13707 13765,13805 13742,13898 13710,13988 13670,14072 13622,14152 13567,14226 13505,14294 13437,14355 13363,14410 13283,14457 13198,14497 13108,14529 13014,14552 12916,14566 12814,14571 12712,14566 12614,14552 12520,14529 12430,14497 12345,14457 12265,14410 12191,14355 12123,14294 12061,14226 12006,14152 11958,14072 11918,13988 11886,13898 11863,13805 11849,13707 11844,13606 11849,13505 11863,13407 11886,13314 11918,13224 11958,13140 12006,13060 12061,12986 12074,12972 12074,13569 Z M 12765,12878 L 12765,13559 12084,13559 12084,12961 12123,12918 12168,12878 12765,12878 Z"/>
    <path fill="rgb(82,160,209)" stroke="none" d="M 12084,13559 L 12765,13559 12765,12878 12168,12878 12191,12857 12265,12802 12345,12755 12430,12715 12520,12683 12614,12660 12712,12646 12814,12641 12916,12646 13014,12660 13108,12683 13198,12715 13283,12755 13363,12802 13437,12857 13505,12918 13567,12986 13622,13060 13670,13140 13710,13224 13742,13314 13765,13407 13779,13505 13784,13606 13779,13707 13765,13805 13742,13898 13710,13988 13670,14072 13622,14152 13567,14226 13505,14294 13437,14355 13363,14410 13283,14457 13198,14497 13108,14529 13014,14552 12916,14566 12814,14571 12712,14566 12614,14552 12520,14529 12430,14497 12345,14457 12265,14410 12191,14355 12123,14294 12061,14226 12006,14152 11958,14072 11918,13988 11886,13898 11863,13805 11849,13707 11844,13606 11849,13505 11863,13407 11886,13314 11918,13224 11958,13140 12006,13060 12061,12986 12084,12961 12084,13559 Z M 12755,12888 L 12755,13549 12094,13549 12094,12950 12123,12918 12156,12888 12755,12888 Z"/>
    <path fill="rgb(83,161,209)" stroke="none" d="M 12094,13549 L 12755,13549 12755,12888 12156,12888 12191,12857 12265,12802 12345,12755 12430,12715 12520,12683 12614,12660 12712,12646 12814,12641 12916,12646 13014,12660 13108,12683 13198,12715 13283,12755 13363,12802 13437,12857 13505,12918 13567,12986 13622,13060 13670,13140 13710,13224 13742,13314 13765,13407 13779,13505 13784,13606 13779,13707 13765,13805 13742,13898 13710,13988 13670,14072 13622,14152 13567,14226 13505,14294 13437,14355 13363,14410 13283,14457 13198,14497 13108,14529 13014,14552 12916,14566 12814,14571 12712,14566 12614,14552 12520,14529 12430,14497 12345,14457 12265,14410 12191,14355 12123,14294 12061,14226 12006,14152 11958,14072 11918,13988 11886,13898 11863,13805 11849,13707 11844,13606 11849,13505 11863,13407 11886,13314 11918,13224 11958,13140 12006,13060 12061,12986 12094,12950 12094,13549 Z M 12744,12899 L 12744,13538 12105,13538 12105,12938 12123,12918 12144,12899 12744,12899 Z"/>
    <path fill="rgb(85,161,210)" stroke="none" d="M 12105,13538 L 12744,13538 12744,12899 12144,12899 12191,12857 12265,12802 12345,12755 12430,12715 12520,12683 12614,12660 12712,12646 12814,12641 12916,12646 13014,12660 13108,12683 13198,12715 13283,12755 13363,12802 13437,12857 13505,12918 13567,12986 13622,13060 13670,13140 13710,13224 13742,13314 13765,13407 13779,13505 13784,13606 13779,13707 13765,13805 13742,13898 13710,13988 13670,14072 13622,14152 13567,14226 13505,14294 13437,14355 13363,14410 13283,14457 13198,14497 13108,14529 13014,14552 12916,14566 12814,14571 12712,14566 12614,14552 12520,14529 12430,14497 12345,14457 12265,14410 12191,14355 12123,14294 12061,14226 12006,14152 11958,14072 11918,13988 11886,13898 11863,13805 11849,13707 11844,13606 11849,13505 11863,13407 11886,13314 11918,13224 11958,13140 12006,13060 12061,12986 12105,12938 12105,13538 Z M 12734,12909 L 12734,13528 12115,13528 12115,12927 12123,12918 12133,12909 12734,12909 Z"/>
    <path fill="rgb(86,162,210)" stroke="none" d="M 12115,13528 L 12734,13528 12734,12909 12133,12909 12191,12857 12265,12802 12345,12755 12430,12715 12520,12683 12614,12660 12712,12646 12814,12641 12916,12646 13014,12660 13108,12683 13198,12715 13283,12755 13363,12802 13437,12857 13505,12918 13567,12986 13622,13060 13670,13140 13710,13224 13742,13314 13765,13407 13779,13505 13784,13606 13779,13707 13765,13805 13742,13898 13710,13988 13670,14072 13622,14152 13567,14226 13505,14294 13437,14355 13363,14410 13283,14457 13198,14497 13108,14529 13014,14552 12916,14566 12814,14571 12712,14566 12614,14552 12520,14529 12430,14497 12345,14457 12265,14410 12191,14355 12123,14294 12061,14226 12006,14152 11958,14072 11918,13988 11886,13898 11863,13805 11849,13707 11844,13606 11849,13505 11863,13407 11886,13314 11918,13224 11958,13140 12006,13060 12061,12986 12115,12927 12115,13528 Z M 12125,12919 L 12724,12919 12724,13518 12125,13518 12125,12919 Z"/>
    <path fill="rgb(87,163,210)" stroke="none" d="M 12125,12919 L 12125,13518 12724,13518 12724,12919 12125,12919 Z M 12135,12929 L 12714,12929 12714,13508 12135,13508 12135,12929 Z M 12814,12641 L 12916,12646 13014,12660 13108,12683 13198,12715 13283,12755 13363,12802 13437,12857 13505,12918 13567,12986 13622,13060 13670,13140 13710,13224 13742,13314 13765,13407 13779,13505 13784,13606 13779,13707 13765,13805 13742,13898 13710,13988 13670,14072 13622,14152 13567,14226 13505,14294 13437,14355 13363,14410 13283,14457 13198,14497 13108,14529 13014,14552 12916,14566 12814,14571 12712,14566 12614,14552 12520,14529 12430,14497 12345,14457 12265,14410 12191,14355 12123,14294 12061,14226 12006,14152 11958,14072 11918,13988 11886,13898 11863,13805 11849,13707 11844,13606 11849,13505 11863,13407 11886,13314 11918,13224 11958,13140 12006,13060 12061,12986 12123,12918 12191,12857 12265,12802 12345,12755 12430,12715 12520,12683 12614,12660 12712,12646 12814,12641 Z"/>
    <path fill="rgb(89,164,211)" stroke="none" d="M 12135,12929 L 12135,13508 12714,13508 12714,12929 12135,12929 Z M 12145,12939 L 12704,12939 12704,13498 12145,13498 12145,12939 Z M 12814,12641 L 12916,12646 13014,12660 13108,12683 13198,12715 13283,12755 13363,12802 13437,12857 13505,12918 13567,12986 13622,13060 13670,13140 13710,13224 13742,13314 13765,13407 13779,13505 13784,13606 13779,13707 13765,13805 13742,13898 13710,13988 13670,14072 13622,14152 13567,14226 13505,14294 13437,14355 13363,14410 13283,14457 13198,14497 13108,14529 13014,14552 12916,14566 12814,14571 12712,14566 12614,14552 12520,14529 12430,14497 12345,14457 12265,14410 12191,14355 12123,14294 12061,14226 12006,14152 11958,14072 11918,13988 11886,13898 11863,13805 11849,13707 11844,13606 11849,13505 11863,13407 11886,13314 11918,13224 11958,13140 12006,13060 12061,12986 12123,12918 12191,12857 12265,12802 12345,12755 12430,12715 12520,12683 12614,12660 12712,12646 12814,12641 Z"/>
    <path fill="rgb(90,164,211)" stroke="none" d="M 12145,12939 L 12145,13498 12704,13498 12704,12939 12145,12939 Z M 12155,12949 L 12694,12949 12694,13488 12155,13488 12155,12949 Z M 12814,12641 L 12916,12646 13014,12660 13108,12683 13198,12715 13283,12755 13363,12802 13437,12857 13505,12918 13567,12986 13622,13060 13670,13140 13710,13224 13742,13314 13765,13407 13779,13505 13784,13606 13779,13707 13765,13805 13742,13898 13710,13988 13670,14072 13622,14152 13567,14226 13505,14294 13437,14355 13363,14410 13283,14457 13198,14497 13108,14529 13014,14552 12916,14566 12814,14571 12712,14566 12614,14552 12520,14529 12430,14497 12345,14457 12265,14410 12191,14355 12123,14294 12061,14226 12006,14152 11958,14072 11918,13988 11886,13898 11863,13805 11849,13707 11844,13606 11849,13505 11863,13407 11886,13314 11918,13224 11958,13140 12006,13060 12061,12986 12123,12918 12191,12857 12265,12802 12345,12755 12430,12715 12520,12683 12614,12660 12712,12646 12814,12641 Z"/>
    <path fill="rgb(91,165,211)" stroke="none" d="M 12155,12949 L 12155,13488 12694,13488 12694,12949 12155,12949 Z M 12165,12959 L 12684,12959 12684,13478 12165,13478 12165,12959 Z M 12814,12641 L 12916,12646 13014,12660 13108,12683 13198,12715 13283,12755 13363,12802 13437,12857 13505,12918 13567,12986 13622,13060 13670,13140 13710,13224 13742,13314 13765,13407 13779,13505 13784,13606 13779,13707 13765,13805 13742,13898 13710,13988 13670,14072 13622,14152 13567,14226 13505,14294 13437,14355 13363,14410 13283,14457 13198,14497 13108,14529 13014,14552 12916,14566 12814,14571 12712,14566 12614,14552 12520,14529 12430,14497 12345,14457 12265,14410 12191,14355 12123,14294 12061,14226 12006,14152 11958,14072 11918,13988 11886,13898 11863,13805 11849,13707 11844,13606 11849,13505 11863,13407 11886,13314 11918,13224 11958,13140 12006,13060 12061,12986 12123,12918 12191,12857 12265,12802 12345,12755 12430,12715 12520,12683 12614,12660 12712,12646 12814,12641 Z"/>
    <path fill="rgb(92,166,212)" stroke="none" d="M 12165,12959 L 12165,13478 12684,13478 12684,12959 12165,12959 Z M 12175,12969 L 12674,12969 12674,13468 12175,13468 12175,12969 Z M 12814,12641 L 12916,12646 13014,12660 13108,12683 13198,12715 13283,12755 13363,12802 13437,12857 13505,12918 13567,12986 13622,13060 13670,13140 13710,13224 13742,13314 13765,13407 13779,13505 13784,13606 13779,13707 13765,13805 13742,13898 13710,13988 13670,14072 13622,14152 13567,14226 13505,14294 13437,14355 13363,14410 13283,14457 13198,14497 13108,14529 13014,14552 12916,14566 12814,14571 12712,14566 12614,14552 12520,14529 12430,14497 12345,14457 12265,14410 12191,14355 12123,14294 12061,14226 12006,14152 11958,14072 11918,13988 11886,13898 11863,13805 11849,13707 11844,13606 11849,13505 11863,13407 11886,13314 11918,13224 11958,13140 12006,13060 12061,12986 12123,12918 12191,12857 12265,12802 12345,12755 12430,12715 12520,12683 12614,12660 12712,12646 12814,12641 Z"/>
    <path fill="rgb(94,166,212)" stroke="none" d="M 12175,12969 L 12175,13468 12674,13468 12674,12969 12175,12969 Z M 12185,12979 L 12664,12979 12664,13458 12185,13458 12185,12979 Z M 12814,12641 L 12916,12646 13014,12660 13108,12683 13198,12715 13283,12755 13363,12802 13437,12857 13505,12918 13567,12986 13622,13060 13670,13140 13710,13224 13742,13314 13765,13407 13779,13505 13784,13606 13779,13707 13765,13805 13742,13898 13710,13988 13670,14072 13622,14152 13567,14226 13505,14294 13437,14355 13363,14410 13283,14457 13198,14497 13108,14529 13014,14552 12916,14566 12814,14571 12712,14566 12614,14552 12520,14529 12430,14497 12345,14457 12265,14410 12191,14355 12123,14294 12061,14226 12006,14152 11958,14072 11918,13988 11886,13898 11863,13805 11849,13707 11844,13606 11849,13505 11863,13407 11886,13314 11918,13224 11958,13140 12006,13060 12061,12986 12123,12918 12191,12857 12265,12802 12345,12755 12430,12715 12520,12683 12614,12660 12712,12646 12814,12641 Z"/>
    <path fill="rgb(95,167,212)" stroke="none" d="M 12185,12979 L 12185,13458 12664,13458 12664,12979 12185,12979 Z M 12195,12989 L 12654,12989 12654,13448 12195,13448 12195,12989 Z M 12814,12641 L 12916,12646 13014,12660 13108,12683 13198,12715 13283,12755 13363,12802 13437,12857 13505,12918 13567,12986 13622,13060 13670,13140 13710,13224 13742,13314 13765,13407 13779,13505 13784,13606 13779,13707 13765,13805 13742,13898 13710,13988 13670,14072 13622,14152 13567,14226 13505,14294 13437,14355 13363,14410 13283,14457 13198,14497 13108,14529 13014,14552 12916,14566 12814,14571 12712,14566 12614,14552 12520,14529 12430,14497 12345,14457 12265,14410 12191,14355 12123,14294 12061,14226 12006,14152 11958,14072 11918,13988 11886,13898 11863,13805 11849,13707 11844,13606 11849,13505 11863,13407 11886,13314 11918,13224 11958,13140 12006,13060 12061,12986 12123,12918 12191,12857 12265,12802 12345,12755 12430,12715 12520,12683 12614,12660 12712,12646 12814,12641 Z"/>
    <path fill="rgb(96,168,213)" stroke="none" d="M 12195,12989 L 12195,13448 12654,13448 12654,12989 12195,12989 Z M 12205,12999 L 12644,12999 12644,13438 12205,13438 12205,12999 Z M 12814,12641 L 12916,12646 13014,12660 13108,12683 13198,12715 13283,12755 13363,12802 13437,12857 13505,12918 13567,12986 13622,13060 13670,13140 13710,13224 13742,13314 13765,13407 13779,13505 13784,13606 13779,13707 13765,13805 13742,13898 13710,13988 13670,14072 13622,14152 13567,14226 13505,14294 13437,14355 13363,14410 13283,14457 13198,14497 13108,14529 13014,14552 12916,14566 12814,14571 12712,14566 12614,14552 12520,14529 12430,14497 12345,14457 12265,14410 12191,14355 12123,14294 12061,14226 12006,14152 11958,14072 11918,13988 11886,13898 11863,13805 11849,13707 11844,13606 11849,13505 11863,13407 11886,13314 11918,13224 11958,13140 12006,13060 12061,12986 12123,12918 12191,12857 12265,12802 12345,12755 12430,12715 12520,12683 12614,12660 12712,12646 12814,12641 Z"/>
    <path fill="rgb(98,169,213)" stroke="none" d="M 12205,12999 L 12205,13438 12644,13438 12644,12999 12205,12999 Z M 12215,13009 L 12634,13009 12634,13428 12215,13428 12215,13009 Z M 12814,12641 L 12916,12646 13014,12660 13108,12683 13198,12715 13283,12755 13363,12802 13437,12857 13505,12918 13567,12986 13622,13060 13670,13140 13710,13224 13742,13314 13765,13407 13779,13505 13784,13606 13779,13707 13765,13805 13742,13898 13710,13988 13670,14072 13622,14152 13567,14226 13505,14294 13437,14355 13363,14410 13283,14457 13198,14497 13108,14529 13014,14552 12916,14566 12814,14571 12712,14566 12614,14552 12520,14529 12430,14497 12345,14457 12265,14410 12191,14355 12123,14294 12061,14226 12006,14152 11958,14072 11918,13988 11886,13898 11863,13805 11849,13707 11844,13606 11849,13505 11863,13407 11886,13314 11918,13224 11958,13140 12006,13060 12061,12986 12123,12918 12191,12857 12265,12802 12345,12755 12430,12715 12520,12683 12614,12660 12712,12646 12814,12641 Z"/>
    <path fill="rgb(99,169,213)" stroke="none" d="M 12215,13009 L 12215,13428 12634,13428 12634,13009 12215,13009 Z M 12225,13019 L 12624,13019 12624,13418 12225,13418 12225,13019 Z M 12814,12641 L 12916,12646 13014,12660 13108,12683 13198,12715 13283,12755 13363,12802 13437,12857 13505,12918 13567,12986 13622,13060 13670,13140 13710,13224 13742,13314 13765,13407 13779,13505 13784,13606 13779,13707 13765,13805 13742,13898 13710,13988 13670,14072 13622,14152 13567,14226 13505,14294 13437,14355 13363,14410 13283,14457 13198,14497 13108,14529 13014,14552 12916,14566 12814,14571 12712,14566 12614,14552 12520,14529 12430,14497 12345,14457 12265,14410 12191,14355 12123,14294 12061,14226 12006,14152 11958,14072 11918,13988 11886,13898 11863,13805 11849,13707 11844,13606 11849,13505 11863,13407 11886,13314 11918,13224 11958,13140 12006,13060 12061,12986 12123,12918 12191,12857 12265,12802 12345,12755 12430,12715 12520,12683 12614,12660 12712,12646 12814,12641 Z"/>
    <path fill="rgb(100,170,214)" stroke="none" d="M 12225,13019 L 12225,13418 12624,13418 12624,13019 12225,13019 Z M 12235,13029 L 12614,13029 12614,13408 12235,13408 12235,13029 Z M 12814,12641 L 12916,12646 13014,12660 13108,12683 13198,12715 13283,12755 13363,12802 13437,12857 13505,12918 13567,12986 13622,13060 13670,13140 13710,13224 13742,13314 13765,13407 13779,13505 13784,13606 13779,13707 13765,13805 13742,13898 13710,13988 13670,14072 13622,14152 13567,14226 13505,14294 13437,14355 13363,14410 13283,14457 13198,14497 13108,14529 13014,14552 12916,14566 12814,14571 12712,14566 12614,14552 12520,14529 12430,14497 12345,14457 12265,14410 12191,14355 12123,14294 12061,14226 12006,14152 11958,14072 11918,13988 11886,13898 11863,13805 11849,13707 11844,13606 11849,13505 11863,13407 11886,13314 11918,13224 11958,13140 12006,13060 12061,12986 12123,12918 12191,12857 12265,12802 12345,12755 12430,12715 12520,12683 12614,12660 12712,12646 12814,12641 Z"/>
    <path fill="rgb(102,171,214)" stroke="none" d="M 12235,13029 L 12235,13408 12614,13408 12614,13029 12235,13029 Z M 12245,13039 L 12604,13039 12604,13398 12245,13398 12245,13039 Z M 12814,12641 L 12916,12646 13014,12660 13108,12683 13198,12715 13283,12755 13363,12802 13437,12857 13505,12918 13567,12986 13622,13060 13670,13140 13710,13224 13742,13314 13765,13407 13779,13505 13784,13606 13779,13707 13765,13805 13742,13898 13710,13988 13670,14072 13622,14152 13567,14226 13505,14294 13437,14355 13363,14410 13283,14457 13198,14497 13108,14529 13014,14552 12916,14566 12814,14571 12712,14566 12614,14552 12520,14529 12430,14497 12345,14457 12265,14410 12191,14355 12123,14294 12061,14226 12006,14152 11958,14072 11918,13988 11886,13898 11863,13805 11849,13707 11844,13606 11849,13505 11863,13407 11886,13314 11918,13224 11958,13140 12006,13060 12061,12986 12123,12918 12191,12857 12265,12802 12345,12755 12430,12715 12520,12683 12614,12660 12712,12646 12814,12641 Z"/>
    <path fill="rgb(103,172,214)" stroke="none" d="M 12245,13039 L 12245,13398 12604,13398 12604,13039 12245,13039 Z M 12255,13049 L 12594,13049 12594,13388 12255,13388 12255,13049 Z M 12814,12641 L 12916,12646 13014,12660 13108,12683 13198,12715 13283,12755 13363,12802 13437,12857 13505,12918 13567,12986 13622,13060 13670,13140 13710,13224 13742,13314 13765,13407 13779,13505 13784,13606 13779,13707 13765,13805 13742,13898 13710,13988 13670,14072 13622,14152 13567,14226 13505,14294 13437,14355 13363,14410 13283,14457 13198,14497 13108,14529 13014,14552 12916,14566 12814,14571 12712,14566 12614,14552 12520,14529 12430,14497 12345,14457 12265,14410 12191,14355 12123,14294 12061,14226 12006,14152 11958,14072 11918,13988 11886,13898 11863,13805 11849,13707 11844,13606 11849,13505 11863,13407 11886,13314 11918,13224 11958,13140 12006,13060 12061,12986 12123,12918 12191,12857 12265,12802 12345,12755 12430,12715 12520,12683 12614,12660 12712,12646 12814,12641 Z"/>
    <path fill="rgb(104,172,215)" stroke="none" d="M 12255,13049 L 12255,13388 12594,13388 12594,13049 12255,13049 Z M 12265,13059 L 12584,13059 12584,13378 12265,13378 12265,13059 Z M 12814,12641 L 12916,12646 13014,12660 13108,12683 13198,12715 13283,12755 13363,12802 13437,12857 13505,12918 13567,12986 13622,13060 13670,13140 13710,13224 13742,13314 13765,13407 13779,13505 13784,13606 13779,13707 13765,13805 13742,13898 13710,13988 13670,14072 13622,14152 13567,14226 13505,14294 13437,14355 13363,14410 13283,14457 13198,14497 13108,14529 13014,14552 12916,14566 12814,14571 12712,14566 12614,14552 12520,14529 12430,14497 12345,14457 12265,14410 12191,14355 12123,14294 12061,14226 12006,14152 11958,14072 11918,13988 11886,13898 11863,13805 11849,13707 11844,13606 11849,13505 11863,13407 11886,13314 11918,13224 11958,13140 12006,13060 12061,12986 12123,12918 12191,12857 12265,12802 12345,12755 12430,12715 12520,12683 12614,12660 12712,12646 12814,12641 Z"/>
    <path fill="rgb(106,173,215)" stroke="none" d="M 12265,13059 L 12265,13378 12584,13378 12584,13059 12265,13059 Z M 12275,13069 L 12574,13069 12574,13368 12275,13368 12275,13069 Z M 12814,12641 L 12916,12646 13014,12660 13108,12683 13198,12715 13283,12755 13363,12802 13437,12857 13505,12918 13567,12986 13622,13060 13670,13140 13710,13224 13742,13314 13765,13407 13779,13505 13784,13606 13779,13707 13765,13805 13742,13898 13710,13988 13670,14072 13622,14152 13567,14226 13505,14294 13437,14355 13363,14410 13283,14457 13198,14497 13108,14529 13014,14552 12916,14566 12814,14571 12712,14566 12614,14552 12520,14529 12430,14497 12345,14457 12265,14410 12191,14355 12123,14294 12061,14226 12006,14152 11958,14072 11918,13988 11886,13898 11863,13805 11849,13707 11844,13606 11849,13505 11863,13407 11886,13314 11918,13224 11958,13140 12006,13060 12061,12986 12123,12918 12191,12857 12265,12802 12345,12755 12430,12715 12520,12683 12614,12660 12712,12646 12814,12641 Z"/>
    <path fill="rgb(107,174,215)" stroke="none" d="M 12275,13069 L 12275,13368 12574,13368 12574,13069 12275,13069 Z M 12285,13079 L 12564,13079 12564,13358 12285,13358 12285,13079 Z M 12814,12641 L 12916,12646 13014,12660 13108,12683 13198,12715 13283,12755 13363,12802 13437,12857 13505,12918 13567,12986 13622,13060 13670,13140 13710,13224 13742,13314 13765,13407 13779,13505 13784,13606 13779,13707 13765,13805 13742,13898 13710,13988 13670,14072 13622,14152 13567,14226 13505,14294 13437,14355 13363,14410 13283,14457 13198,14497 13108,14529 13014,14552 12916,14566 12814,14571 12712,14566 12614,14552 12520,14529 12430,14497 12345,14457 12265,14410 12191,14355 12123,14294 12061,14226 12006,14152 11958,14072 11918,13988 11886,13898 11863,13805 11849,13707 11844,13606 11849,13505 11863,13407 11886,13314 11918,13224 11958,13140 12006,13060 12061,12986 12123,12918 12191,12857 12265,12802 12345,12755 12430,12715 12520,12683 12614,12660 12712,12646 12814,12641 Z"/>
    <path fill="rgb(108,174,216)" stroke="none" d="M 12285,13079 L 12285,13358 12564,13358 12564,13079 12285,13079 Z M 12295,13089 L 12554,13089 12554,13348 12295,13348 12295,13089 Z M 12814,12641 L 12916,12646 13014,12660 13108,12683 13198,12715 13283,12755 13363,12802 13437,12857 13505,12918 13567,12986 13622,13060 13670,13140 13710,13224 13742,13314 13765,13407 13779,13505 13784,13606 13779,13707 13765,13805 13742,13898 13710,13988 13670,14072 13622,14152 13567,14226 13505,14294 13437,14355 13363,14410 13283,14457 13198,14497 13108,14529 13014,14552 12916,14566 12814,14571 12712,14566 12614,14552 12520,14529 12430,14497 12345,14457 12265,14410 12191,14355 12123,14294 12061,14226 12006,14152 11958,14072 11918,13988 11886,13898 11863,13805 11849,13707 11844,13606 11849,13505 11863,13407 11886,13314 11918,13224 11958,13140 12006,13060 12061,12986 12123,12918 12191,12857 12265,12802 12345,12755 12430,12715 12520,12683 12614,12660 12712,12646 12814,12641 Z"/>
    <path fill="rgb(109,175,216)" stroke="none" d="M 12295,13089 L 12295,13348 12554,13348 12554,13089 12295,13089 Z M 12305,13099 L 12544,13099 12544,13338 12305,13338 12305,13099 Z M 12814,12641 L 12916,12646 13014,12660 13108,12683 13198,12715 13283,12755 13363,12802 13437,12857 13505,12918 13567,12986 13622,13060 13670,13140 13710,13224 13742,13314 13765,13407 13779,13505 13784,13606 13779,13707 13765,13805 13742,13898 13710,13988 13670,14072 13622,14152 13567,14226 13505,14294 13437,14355 13363,14410 13283,14457 13198,14497 13108,14529 13014,14552 12916,14566 12814,14571 12712,14566 12614,14552 12520,14529 12430,14497 12345,14457 12265,14410 12191,14355 12123,14294 12061,14226 12006,14152 11958,14072 11918,13988 11886,13898 11863,13805 11849,13707 11844,13606 11849,13505 11863,13407 11886,13314 11918,13224 11958,13140 12006,13060 12061,12986 12123,12918 12191,12857 12265,12802 12345,12755 12430,12715 12520,12683 12614,12660 12712,12646 12814,12641 Z"/>
    <path fill="rgb(111,176,216)" stroke="none" d="M 12305,13099 L 12305,13338 12544,13338 12544,13099 12305,13099 Z M 12315,13109 L 12534,13109 12534,13328 12315,13328 12315,13109 Z M 12814,12641 L 12916,12646 13014,12660 13108,12683 13198,12715 13283,12755 13363,12802 13437,12857 13505,12918 13567,12986 13622,13060 13670,13140 13710,13224 13742,13314 13765,13407 13779,13505 13784,13606 13779,13707 13765,13805 13742,13898 13710,13988 13670,14072 13622,14152 13567,14226 13505,14294 13437,14355 13363,14410 13283,14457 13198,14497 13108,14529 13014,14552 12916,14566 12814,14571 12712,14566 12614,14552 12520,14529 12430,14497 12345,14457 12265,14410 12191,14355 12123,14294 12061,14226 12006,14152 11958,14072 11918,13988 11886,13898 11863,13805 11849,13707 11844,13606 11849,13505 11863,13407 11886,13314 11918,13224 11958,13140 12006,13060 12061,12986 12123,12918 12191,12857 12265,12802 12345,12755 12430,12715 12520,12683 12614,12660 12712,12646 12814,12641 Z"/>
    <path fill="rgb(112,177,217)" stroke="none" d="M 12315,13109 L 12315,13328 12534,13328 12534,13109 12315,13109 Z M 12325,13119 L 12524,13119 12524,13318 12325,13318 12325,13119 Z M 12814,12641 L 12916,12646 13014,12660 13108,12683 13198,12715 13283,12755 13363,12802 13437,12857 13505,12918 13567,12986 13622,13060 13670,13140 13710,13224 13742,13314 13765,13407 13779,13505 13784,13606 13779,13707 13765,13805 13742,13898 13710,13988 13670,14072 13622,14152 13567,14226 13505,14294 13437,14355 13363,14410 13283,14457 13198,14497 13108,14529 13014,14552 12916,14566 12814,14571 12712,14566 12614,14552 12520,14529 12430,14497 12345,14457 12265,14410 12191,14355 12123,14294 12061,14226 12006,14152 11958,14072 11918,13988 11886,13898 11863,13805 11849,13707 11844,13606 11849,13505 11863,13407 11886,13314 11918,13224 11958,13140 12006,13060 12061,12986 12123,12918 12191,12857 12265,12802 12345,12755 12430,12715 12520,12683 12614,12660 12712,12646 12814,12641 Z"/>
    <path fill="rgb(113,177,217)" stroke="none" d="M 12325,13119 L 12325,13318 12524,13318 12524,13119 12325,13119 Z M 12335,13129 L 12514,13129 12514,13308 12335,13308 12335,13129 Z M 12814,12641 L 12916,12646 13014,12660 13108,12683 13198,12715 13283,12755 13363,12802 13437,12857 13505,12918 13567,12986 13622,13060 13670,13140 13710,13224 13742,13314 13765,13407 13779,13505 13784,13606 13779,13707 13765,13805 13742,13898 13710,13988 13670,14072 13622,14152 13567,14226 13505,14294 13437,14355 13363,14410 13283,14457 13198,14497 13108,14529 13014,14552 12916,14566 12814,14571 12712,14566 12614,14552 12520,14529 12430,14497 12345,14457 12265,14410 12191,14355 12123,14294 12061,14226 12006,14152 11958,14072 11918,13988 11886,13898 11863,13805 11849,13707 11844,13606 11849,13505 11863,13407 11886,13314 11918,13224 11958,13140 12006,13060 12061,12986 12123,12918 12191,12857 12265,12802 12345,12755 12430,12715 12520,12683 12614,12660 12712,12646 12814,12641 Z"/>
    <path fill="rgb(115,178,217)" stroke="none" d="M 12335,13129 L 12335,13308 12514,13308 12514,13129 12335,13129 Z M 12345,13139 L 12504,13139 12504,13298 12345,13298 12345,13139 Z M 12814,12641 L 12916,12646 13014,12660 13108,12683 13198,12715 13283,12755 13363,12802 13437,12857 13505,12918 13567,12986 13622,13060 13670,13140 13710,13224 13742,13314 13765,13407 13779,13505 13784,13606 13779,13707 13765,13805 13742,13898 13710,13988 13670,14072 13622,14152 13567,14226 13505,14294 13437,14355 13363,14410 13283,14457 13198,14497 13108,14529 13014,14552 12916,14566 12814,14571 12712,14566 12614,14552 12520,14529 12430,14497 12345,14457 12265,14410 12191,14355 12123,14294 12061,14226 12006,14152 11958,14072 11918,13988 11886,13898 11863,13805 11849,13707 11844,13606 11849,13505 11863,13407 11886,13314 11918,13224 11958,13140 12006,13060 12061,12986 12123,12918 12191,12857 12265,12802 12345,12755 12430,12715 12520,12683 12614,12660 12712,12646 12814,12641 Z"/>
    <path fill="rgb(116,179,218)" stroke="none" d="M 12345,13139 L 12345,13298 12504,13298 12504,13139 12345,13139 Z M 12355,13149 L 12494,13149 12494,13288 12355,13288 12355,13149 Z M 12814,12641 L 12916,12646 13014,12660 13108,12683 13198,12715 13283,12755 13363,12802 13437,12857 13505,12918 13567,12986 13622,13060 13670,13140 13710,13224 13742,13314 13765,13407 13779,13505 13784,13606 13779,13707 13765,13805 13742,13898 13710,13988 13670,14072 13622,14152 13567,14226 13505,14294 13437,14355 13363,14410 13283,14457 13198,14497 13108,14529 13014,14552 12916,14566 12814,14571 12712,14566 12614,14552 12520,14529 12430,14497 12345,14457 12265,14410 12191,14355 12123,14294 12061,14226 12006,14152 11958,14072 11918,13988 11886,13898 11863,13805 11849,13707 11844,13606 11849,13505 11863,13407 11886,13314 11918,13224 11958,13140 12006,13060 12061,12986 12123,12918 12191,12857 12265,12802 12345,12755 12430,12715 12520,12683 12614,12660 12712,12646 12814,12641 Z"/>
    <path fill="rgb(117,179,218)" stroke="none" d="M 12355,13149 L 12355,13288 12494,13288 12494,13149 12355,13149 Z M 12365,13159 L 12484,13159 12484,13278 12365,13278 12365,13159 Z M 12814,12641 L 12916,12646 13014,12660 13108,12683 13198,12715 13283,12755 13363,12802 13437,12857 13505,12918 13567,12986 13622,13060 13670,13140 13710,13224 13742,13314 13765,13407 13779,13505 13784,13606 13779,13707 13765,13805 13742,13898 13710,13988 13670,14072 13622,14152 13567,14226 13505,14294 13437,14355 13363,14410 13283,14457 13198,14497 13108,14529 13014,14552 12916,14566 12814,14571 12712,14566 12614,14552 12520,14529 12430,14497 12345,14457 12265,14410 12191,14355 12123,14294 12061,14226 12006,14152 11958,14072 11918,13988 11886,13898 11863,13805 11849,13707 11844,13606 11849,13505 11863,13407 11886,13314 11918,13224 11958,13140 12006,13060 12061,12986 12123,12918 12191,12857 12265,12802 12345,12755 12430,12715 12520,12683 12614,12660 12712,12646 12814,12641 Z"/>
    <path fill="rgb(119,180,218)" stroke="none" d="M 12365,13159 L 12365,13278 12484,13278 12484,13159 12365,13159 Z M 12375,13169 L 12474,13169 12474,13268 12375,13268 12375,13169 Z M 12814,12641 L 12916,12646 13014,12660 13108,12683 13198,12715 13283,12755 13363,12802 13437,12857 13505,12918 13567,12986 13622,13060 13670,13140 13710,13224 13742,13314 13765,13407 13779,13505 13784,13606 13779,13707 13765,13805 13742,13898 13710,13988 13670,14072 13622,14152 13567,14226 13505,14294 13437,14355 13363,14410 13283,14457 13198,14497 13108,14529 13014,14552 12916,14566 12814,14571 12712,14566 12614,14552 12520,14529 12430,14497 12345,14457 12265,14410 12191,14355 12123,14294 12061,14226 12006,14152 11958,14072 11918,13988 11886,13898 11863,13805 11849,13707 11844,13606 11849,13505 11863,13407 11886,13314 11918,13224 11958,13140 12006,13060 12061,12986 12123,12918 12191,12857 12265,12802 12345,12755 12430,12715 12520,12683 12614,12660 12712,12646 12814,12641 Z"/>
    <path fill="rgb(120,181,219)" stroke="none" d="M 12375,13169 L 12375,13268 12474,13268 12474,13169 12375,13169 Z M 12385,13179 L 12464,13179 12464,13258 12385,13258 12385,13179 Z M 12814,12641 L 12916,12646 13014,12660 13108,12683 13198,12715 13283,12755 13363,12802 13437,12857 13505,12918 13567,12986 13622,13060 13670,13140 13710,13224 13742,13314 13765,13407 13779,13505 13784,13606 13779,13707 13765,13805 13742,13898 13710,13988 13670,14072 13622,14152 13567,14226 13505,14294 13437,14355 13363,14410 13283,14457 13198,14497 13108,14529 13014,14552 12916,14566 12814,14571 12712,14566 12614,14552 12520,14529 12430,14497 12345,14457 12265,14410 12191,14355 12123,14294 12061,14226 12006,14152 11958,14072 11918,13988 11886,13898 11863,13805 11849,13707 11844,13606 11849,13505 11863,13407 11886,13314 11918,13224 11958,13140 12006,13060 12061,12986 12123,12918 12191,12857 12265,12802 12345,12755 12430,12715 12520,12683 12614,12660 12712,12646 12814,12641 Z"/>
    <path fill="rgb(121,182,219)" stroke="none" d="M 12385,13179 L 12385,13258 12464,13258 12464,13179 12385,13179 Z M 12395,13189 L 12454,13189 12454,13248 12395,13248 12395,13189 Z M 12814,12641 L 12916,12646 13014,12660 13108,12683 13198,12715 13283,12755 13363,12802 13437,12857 13505,12918 13567,12986 13622,13060 13670,13140 13710,13224 13742,13314 13765,13407 13779,13505 13784,13606 13779,13707 13765,13805 13742,13898 13710,13988 13670,14072 13622,14152 13567,14226 13505,14294 13437,14355 13363,14410 13283,14457 13198,14497 13108,14529 13014,14552 12916,14566 12814,14571 12712,14566 12614,14552 12520,14529 12430,14497 12345,14457 12265,14410 12191,14355 12123,14294 12061,14226 12006,14152 11958,14072 11918,13988 11886,13898 11863,13805 11849,13707 11844,13606 11849,13505 11863,13407 11886,13314 11918,13224 11958,13140 12006,13060 12061,12986 12123,12918 12191,12857 12265,12802 12345,12755 12430,12715 12520,12683 12614,12660 12712,12646 12814,12641 Z"/>
    <path fill="rgb(123,182,219)" stroke="none" d="M 12395,13189 L 12395,13248 12454,13248 12454,13189 12395,13189 Z M 12405,13199 L 12444,13199 12444,13238 12405,13238 12405,13199 Z M 12814,12641 L 12916,12646 13014,12660 13108,12683 13198,12715 13283,12755 13363,12802 13437,12857 13505,12918 13567,12986 13622,13060 13670,13140 13710,13224 13742,13314 13765,13407 13779,13505 13784,13606 13779,13707 13765,13805 13742,13898 13710,13988 13670,14072 13622,14152 13567,14226 13505,14294 13437,14355 13363,14410 13283,14457 13198,14497 13108,14529 13014,14552 12916,14566 12814,14571 12712,14566 12614,14552 12520,14529 12430,14497 12345,14457 12265,14410 12191,14355 12123,14294 12061,14226 12006,14152 11958,14072 11918,13988 11886,13898 11863,13805 11849,13707 11844,13606 11849,13505 11863,13407 11886,13314 11918,13224 11958,13140 12006,13060 12061,12986 12123,12918 12191,12857 12265,12802 12345,12755 12430,12715 12520,12683 12614,12660 12712,12646 12814,12641 Z"/>
    <path fill="rgb(124,183,220)" stroke="none" d="M 12405,13199 L 12405,13238 12444,13238 12444,13199 12405,13199 Z M 12415,13209 L 12434,13209 12434,13228 12415,13228 12415,13209 Z M 12814,12641 L 12916,12646 13014,12660 13108,12683 13198,12715 13283,12755 13363,12802 13437,12857 13505,12918 13567,12986 13622,13060 13670,13140 13710,13224 13742,13314 13765,13407 13779,13505 13784,13606 13779,13707 13765,13805 13742,13898 13710,13988 13670,14072 13622,14152 13567,14226 13505,14294 13437,14355 13363,14410 13283,14457 13198,14497 13108,14529 13014,14552 12916,14566 12814,14571 12712,14566 12614,14552 12520,14529 12430,14497 12345,14457 12265,14410 12191,14355 12123,14294 12061,14226 12006,14152 11958,14072 11918,13988 11886,13898 11863,13805 11849,13707 11844,13606 11849,13505 11863,13407 11886,13314 11918,13224 11958,13140 12006,13060 12061,12986 12123,12918 12191,12857 12265,12802 12345,12755 12430,12715 12520,12683 12614,12660 12712,12646 12814,12641 Z"/>
    <path fill="rgb(127,185,221)" stroke="none" d="M 12415,13209 L 12415,13228 12434,13228 12434,13209 12415,13209 Z M 12814,12641 L 12916,12646 13014,12660 13108,12683 13198,12715 13283,12755 13363,12802 13437,12857 13505,12918 13567,12986 13622,13060 13670,13140 13710,13224 13742,13314 13765,13407 13779,13505 13784,13606 13779,13707 13765,13805 13742,13898 13710,13988 13670,14072 13622,14152 13567,14226 13505,14294 13437,14355 13363,14410 13283,14457 13198,14497 13108,14529 13014,14552 12916,14566 12814,14571 12712,14566 12614,14552 12520,14529 12430,14497 12345,14457 12265,14410 12191,14355 12123,14294 12061,14226 12006,14152 11958,14072 11918,13988 11886,13898 11863,13805 11849,13707 11844,13606 11849,13505 11863,13407 11886,13314 11918,13224 11958,13140 12006,13060 12061,12986 12123,12918 12191,12857 12265,12802 12345,12755 12430,12715 12520,12683 12614,12660 12712,12646 12814,12641 Z"/>
    <path fill="none" stroke="rgb(0,0,0)" id="Drawing_1_0" stroke-width="40" stroke-linejoin="round" d="M 12814,12641 C 13364,12641 13784,13059 13784,13606 13784,14153 13364,14571 12814,14571 12264,14571 11844,14153 11844,13606 11844,13059 12264,12641 12814,12641 Z"/>
    <rect fill="none" stroke="none" x="11844" y="12642" width="1941" height="1932"/>
   </g>
   <g>
    <path fill="rgb(57,181,74)" stroke="none" d="M 12275,12829 L 12491,12829 12598,12766 12814,12704 13137,12829 12922,12829 13029,13015 12706,13327 12598,13389 12491,13452 12706,13576 12814,13701 13137,13701 13461,13888 13245,14261 12922,14511 12922,14137 12706,13888 12814,13763 12598,13576 12383,13514 12275,13265 12275,12829 Z"/>
    <path fill="none" stroke="rgb(128,128,128)" id="Drawing_2_0" stroke-width="40" stroke-linejoin="round" d="M 12275,12829 L 12491,12829 12598,12766 12814,12704 13137,12829 12922,12829 13029,13015 12706,13327 12598,13389 12491,13452 12706,13576 12814,13701 13137,13701 13461,13888 13245,14261 12922,14511 12922,14137 12706,13888 12814,13763 12598,13576 12383,13514 12275,13265 12275,12829 Z"/>
   </g>
   <g>
    <path fill="rgb(57,181,74)" stroke="none" d="M 13676,13639 L 13676,13577 13568,13390 13568,13203 13461,12954 13245,12829 C 13461,12704 13892,13514 13676,13639 Z"/>
    <path fill="none" stroke="rgb(128,128,128)" id="Drawing_3_0" stroke-width="40" stroke-linejoin="round" d="M 13676,13639 L 13676,13577 13568,13390 13568,13203 13461,12954 13245,12829 C 13461,12704 13892,13514 13676,13639 Z"/>
   </g>
   <g id="DrawingGroup_2">
    <g>
     <path fill="none" stroke="rgb(255,255,255)" id="Drawing_4_0" stroke-width="40" stroke-linejoin="round" d="M 12706,13888 L 12598,13452"/>
    </g>
    <g>
     <path fill="none" stroke="rgb(255,255,255)" id="Drawing_5_0" stroke-width="40" stroke-linejoin="round" d="M 12706,13887 L 12814,13576"/>
    </g>
    <g>
     <path fill="none" stroke="rgb(255,255,255)" id="Drawing_6_0" stroke-width="40" stroke-linejoin="round" d="M 12922,13887 L 12814,13576"/>
    </g>
    <g>
     <path fill="none" stroke="rgb(255,255,255)" id="Drawing_7_0" stroke-width="40" stroke-linejoin="round" d="M 12922,13888 L 13030,13452"/>
    </g>
   </g>
   <g id="DrawingGroup_3">
    <g>
     <path fill="none" stroke="rgb(255,255,255)" id="Drawing_8_0" stroke-width="40" stroke-linejoin="round" d="M 13353,13888 L 13245,13452"/>
    </g>
    <g>
     <path fill="none" stroke="rgb(255,255,255)" id="Drawing_9_0" stroke-width="40" stroke-linejoin="round" d="M 13353,13887 L 13461,13576"/>
    </g>
    <g>
     <path fill="none" stroke="rgb(255,255,255)" id="Drawing_10_0" stroke-width="40" stroke-linejoin="round" d="M 13569,13887 L 13461,13576"/>
    </g>
    <g>
     <path fill="none" stroke="rgb(255,255,255)" id="Drawing_11_0" stroke-width="40" stroke-linejoin="round" d="M 13568,13888 L 13676,13452"/>
    </g>
   </g>
   <g id="DrawingGroup_4">
    <g>
     <path fill="none" stroke="rgb(255,255,255)" id="Drawing_12_0" stroke-width="40" stroke-linejoin="round" d="M 12060,13888 L 11952,13452"/>
    </g>
    <g>
     <path fill="none" stroke="rgb(255,255,255)" id="Drawing_13_0" stroke-width="40" stroke-linejoin="round" d="M 12060,13887 L 12168,13576"/>
    </g>
    <g>
     <path fill="none" stroke="rgb(255,255,255)" id="Drawing_14_0" stroke-width="40" stroke-linejoin="round" d="M 12275,13887 L 12167,13576"/>
    </g>
    <g>
     <path fill="none" stroke="rgb(255,255,255)" id="Drawing_15_0" stroke-width="40" stroke-linejoin="round" d="M 12275,13888 L 12383,13452"/>
    </g>
   </g>
  </g>
 </g>
</svg>