<?xml version="1.0" encoding="UTF-8"?>

<svg version="1.2" baseProfile="tiny" width="39.84mm" height="48.7mm" viewBox="7486 11210 3984 4870" preserveAspectRatio="xMidYMid" fill-rule="evenodd" stroke-width="28.222" stroke-linejoin="round" xmlns="http://www.w3.org/2000/svg" xmlns:xlink="http://www.w3.org/1999/xlink" xml:space="preserve">
 <g visibility="visible" id="Slide_1">
  <g id="DrawingGroup_1">
   <g>
    <path fill="rgb(221,221,221)" stroke="none" d="M 8961,16060 C 9671,16060 10784,15596 11264,15290 11744,14984 11264,14590 11022,14590 L 8961,16060 Z"/>
    <path fill="none" stroke="rgb(221,221,221)" id="Drawing_1_0" stroke-linejoin="round" d="M 8961,16060 C 9671,16060 10784,15596 11264,15290 11744,14984 11264,14590 11022,14590 L 8961,16060 Z"/>
   </g>
   <g id="DrawingGroup_2">
    <g>
     <defs>
      <linearGradient id="Gradient_843" gradientUnits="userSpaceOnUse" x1="7502" y1="14239" x2="8963" y2="14241">
       <stop offset="0.1" stop-color="rgb(51,51,51)"/>
       <stop offset="1" stop-color="rgb(153,153,153)"/>
      </linearGradient>
     </defs>
     <path fill="url(#Gradient_843)" stroke="rgb(178,178,178)" id="Drawing_2_0" stroke-width="40" stroke-linejoin="round" d="M 7506,15220 L 7506,12420 8961,13260 8961,16060 7506,15220 Z"/>
    </g>
    <g>
     <path fill="rgb(51,51,51)" stroke="none" d="M 8961,15242 L 8961,13260 11022,12070 11022,14870 10378,15242 8961,15242 Z"/>
     <path fill="rgb(52,52,52)" stroke="none" d="M 10378,15242 L 8961,16060 8961,15242 10378,15242 Z M 8961,15222 L 8961,13260 11022,12070 11022,14870 10412,15222 8961,15222 Z"/>
     <path fill="rgb(53,53,53)" stroke="none" d="M 10412,15222 L 8961,16060 8961,15222 10412,15222 Z M 8961,15203 L 8961,13260 11022,12070 11022,14870 10445,15203 8961,15203 Z"/>
     <path fill="rgb(54,54,54)" stroke="none" d="M 10445,15203 L 8961,16060 8961,15203 10445,15203 Z M 8961,15183 L 8961,13260 11022,12070 11022,14870 10480,15183 8961,15183 Z"/>
     <path fill="rgb(55,55,55)" stroke="none" d="M 10480,15183 L 8961,16060 8961,15183 10480,15183 Z M 8961,15164 L 8961,13260 11022,12070 11022,14870 10513,15164 8961,15164 Z"/>
     <path fill="rgb(56,56,56)" stroke="none" d="M 10513,15164 L 8961,16060 8961,15164 10513,15164 Z M 8961,15144 L 8961,13260 11022,12070 11022,14870 10547,15144 8961,15144 Z"/>
     <path fill="rgb(57,57,57)" stroke="none" d="M 10547,15144 L 8961,16060 8961,15144 10547,15144 Z M 8961,15124 L 8961,13260 11022,12070 11022,14870 10582,15124 8961,15124 Z"/>
     <path fill="rgb(58,58,58)" stroke="none" d="M 10582,15124 L 8961,16060 8961,15124 10582,15124 Z M 8961,15105 L 8961,13260 11022,12070 11022,14870 10615,15105 8961,15105 Z"/>
     <path fill="rgb(59,59,59)" stroke="none" d="M 10615,15105 L 8961,16060 8961,15105 10615,15105 Z M 8961,15085 L 8961,13260 11022,12070 11022,14870 10650,15085 8961,15085 Z"/>
     <path fill="rgb(60,60,60)" stroke="none" d="M 10650,15085 L 8961,16060 8961,15085 10650,15085 Z M 8961,15066 L 8961,13260 11022,12070 11022,14870 10683,15066 8961,15066 Z"/>
     <path fill="rgb(61,61,61)" stroke="none" d="M 10683,15066 L 8961,16060 8961,15066 10683,15066 Z M 8961,15046 L 8961,13260 11022,12070 11022,14870 10717,15046 8961,15046 Z"/>
     <path fill="rgb(62,62,62)" stroke="none" d="M 10717,15046 L 8961,16060 8961,15046 10717,15046 Z M 8961,15027 L 8961,13260 11022,12070 11022,14870 10750,15027 8961,15027 Z"/>
     <path fill="rgb(63,63,63)" stroke="none" d="M 10750,15027 L 8961,16060 8961,15027 10750,15027 Z M 8961,15007 L 8961,13260 11022,12070 11022,14870 10785,15007 8961,15007 Z"/>
     <path fill="rgb(64,64,64)" stroke="none" d="M 10785,15007 L 8961,16060 8961,15007 10785,15007 Z M 8961,14987 L 8961,13260 11022,12070 11022,14870 10819,14987 8961,14987 Z"/>
     <path fill="rgb(65,65,65)" stroke="none" d="M 10819,14987 L 8961,16060 8961,14987 10819,14987 Z M 8961,14968 L 8961,13260 11022,12070 11022,14870 10852,14968 8961,14968 Z"/>
     <path fill="rgb(66,66,66)" stroke="none" d="M 10852,14968 L 8961,16060 8961,14968 10852,14968 Z M 8961,14948 L 8961,13260 11022,12070 11022,14870 10887,14948 8961,14948 Z"/>
     <path fill="rgb(67,67,67)" stroke="none" d="M 10887,14948 L 8961,16060 8961,14948 10887,14948 Z M 8961,14929 L 8961,13260 11022,12070 11022,14870 10920,14929 8961,14929 Z"/>
     <path fill="rgb(68,68,68)" stroke="none" d="M 10920,14929 L 8961,16060 8961,14929 10920,14929 Z M 8961,14909 L 8961,13260 11022,12070 11022,14870 10954,14909 8961,14909 Z"/>
     <path fill="rgb(69,69,69)" stroke="none" d="M 10954,14909 L 8961,16060 8961,14909 10954,14909 Z M 8961,14890 L 8961,13260 11022,12070 11022,14870 10987,14890 8961,14890 Z"/>
     <path fill="rgb(70,70,70)" stroke="none" d="M 10987,14890 L 8961,16060 8961,14890 10987,14890 Z M 8961,14870 L 8961,13260 11022,12070 11022,14870 8961,14870 Z"/>
     <path fill="rgb(71,71,71)" stroke="none" d="M 11022,14870 L 8961,16060 8961,14870 11022,14870 Z M 8961,14850 L 8961,13260 11022,12070 11022,14850 8961,14850 Z"/>
     <path fill="rgb(72,72,72)" stroke="none" d="M 11022,14850 L 11022,14870 8961,16060 8961,14850 11022,14850 Z M 8961,14831 L 8961,13260 11022,12070 11022,14831 8961,14831 Z"/>
     <path fill="rgb(73,73,73)" stroke="none" d="M 11022,14831 L 11022,14870 8961,16060 8961,14831 11022,14831 Z M 8961,14811 L 8961,13260 11022,12070 11022,14811 8961,14811 Z"/>
     <path fill="rgb(74,74,74)" stroke="none" d="M 11022,14811 L 11022,14870 8961,16060 8961,14811 11022,14811 Z M 8961,14792 L 8961,13260 11022,12070 11022,14792 8961,14792 Z"/>
     <path fill="rgb(75,75,75)" stroke="none" d="M 11022,14792 L 11022,14870 8961,16060 8961,14792 11022,14792 Z M 8961,14772 L 8961,13260 11022,12070 11022,14772 8961,14772 Z"/>
     <path fill="rgb(76,76,76)" stroke="none" d="M 11022,14772 L 11022,14870 8961,16060 8961,14772 11022,14772 Z M 8961,14753 L 8961,13260 11022,12070 11022,14753 8961,14753 Z"/>
     <path fill="rgb(77,77,77)" stroke="none" d="M 11022,14753 L 11022,14870 8961,16060 8961,14753 11022,14753 Z M 8961,14733 L 8961,13260 11022,12070 11022,14733 8961,14733 Z"/>
     <path fill="rgb(78,78,78)" stroke="none" d="M 11022,14733 L 11022,14870 8961,16060 8961,14733 11022,14733 Z M 8961,14713 L 8961,13260 11022,12070 11022,14713 8961,14713 Z"/>
     <path fill="rgb(79,79,79)" stroke="none" d="M 11022,14713 L 11022,14870 8961,16060 8961,14713 11022,14713 Z M 11007,14694 L 8961,14694 8961,13260 11007,12079 11007,14694 Z"/>
     <path fill="rgb(80,80,80)" stroke="none" d="M 11007,14694 L 11007,12079 11022,12070 11022,14870 8961,16060 8961,14694 11007,14694 Z M 10987,14674 L 8961,14674 8961,13260 10987,12090 10987,14674 Z"/>
     <path fill="rgb(81,81,81)" stroke="none" d="M 10987,14674 L 10987,12090 11022,12070 11022,14870 8961,16060 8961,14674 10987,14674 Z M 10968,14655 L 8961,14655 8961,13260 10968,12101 10968,14655 Z"/>
     <path fill="rgb(82,82,82)" stroke="none" d="M 10968,14655 L 10968,12101 11022,12070 11022,14870 8961,16060 8961,14655 10968,14655 Z M 10948,14635 L 8961,14635 8961,13260 10948,12113 10948,14635 Z"/>
     <path fill="rgb(83,83,83)" stroke="none" d="M 10948,14635 L 10948,12113 11022,12070 11022,14870 8961,16060 8961,14635 10948,14635 Z M 10929,14616 L 8961,14616 8961,13260 10929,12124 10929,14616 Z"/>
     <path fill="rgb(84,84,84)" stroke="none" d="M 10929,14616 L 10929,12124 11022,12070 11022,14870 8961,16060 8961,14616 10929,14616 Z M 10909,14596 L 8961,14596 8961,13260 10909,12135 10909,14596 Z"/>
     <path fill="rgb(85,85,85)" stroke="none" d="M 10909,14596 L 10909,12135 11022,12070 11022,14870 8961,16060 8961,14596 10909,14596 Z M 10889,14576 L 8961,14576 8961,13260 10889,12147 10889,14576 Z"/>
     <path fill="rgb(86,86,86)" stroke="none" d="M 10889,14576 L 10889,12147 11022,12070 11022,14870 8961,16060 8961,14576 10889,14576 Z M 10870,14557 L 8961,14557 8961,13260 10870,12158 10870,14557 Z"/>
     <path fill="rgb(87,87,87)" stroke="none" d="M 10870,14557 L 10870,12158 11022,12070 11022,14870 8961,16060 8961,14557 10870,14557 Z M 10850,14537 L 8961,14537 8961,13260 10850,12169 10850,14537 Z"/>
     <path fill="rgb(88,88,88)" stroke="none" d="M 10850,14537 L 10850,12169 11022,12070 11022,14870 8961,16060 8961,14537 10850,14537 Z M 10831,14518 L 8961,14518 8961,13260 10831,12180 10831,14518 Z"/>
     <path fill="rgb(89,89,89)" stroke="none" d="M 10831,14518 L 10831,12180 11022,12070 11022,14870 8961,16060 8961,14518 10831,14518 Z M 10811,14498 L 8961,14498 8961,13260 10811,12192 10811,14498 Z"/>
     <path fill="rgb(90,90,90)" stroke="none" d="M 10811,14498 L 10811,12192 11022,12070 11022,14870 8961,16060 8961,14498 10811,14498 Z M 10792,14479 L 8961,14479 8961,13260 10792,12203 10792,14479 Z"/>
     <path fill="rgb(91,91,91)" stroke="none" d="M 10792,14479 L 10792,12203 11022,12070 11022,14870 8961,16060 8961,14479 10792,14479 Z M 10772,14459 L 8961,14459 8961,13260 10772,12214 10772,14459 Z"/>
     <path fill="rgb(92,92,92)" stroke="none" d="M 10772,14459 L 10772,12214 11022,12070 11022,14870 8961,16060 8961,14459 10772,14459 Z M 10752,14439 L 8961,14439 8961,13260 10752,12226 10752,14439 Z"/>
     <path fill="rgb(93,93,93)" stroke="none" d="M 10752,14439 L 10752,12226 11022,12070 11022,14870 8961,16060 8961,14439 10752,14439 Z M 10733,14420 L 8961,14420 8961,13260 10733,12237 10733,14420 Z"/>
     <path fill="rgb(94,94,94)" stroke="none" d="M 10733,14420 L 10733,12237 11022,12070 11022,14870 8961,16060 8961,14420 10733,14420 Z M 10713,14400 L 8961,14400 8961,13260 10713,12248 10713,14400 Z"/>
     <path fill="rgb(95,95,95)" stroke="none" d="M 10713,14400 L 10713,12248 11022,12070 11022,14870 8961,16060 8961,14400 10713,14400 Z M 10694,14381 L 8961,14381 8961,13260 10694,12259 10694,14381 Z"/>
     <path fill="rgb(96,96,96)" stroke="none" d="M 10694,14381 L 10694,12259 11022,12070 11022,14870 8961,16060 8961,14381 10694,14381 Z M 10674,14361 L 8961,14361 8961,13260 10674,12271 10674,14361 Z"/>
     <path fill="rgb(97,97,97)" stroke="none" d="M 10674,14361 L 10674,12271 11022,12070 11022,14870 8961,16060 8961,14361 10674,14361 Z M 10655,14342 L 8961,14342 8961,13260 10655,12282 10655,14342 Z"/>
     <path fill="rgb(98,98,98)" stroke="none" d="M 10655,14342 L 10655,12282 11022,12070 11022,14870 8961,16060 8961,14342 10655,14342 Z M 10635,14322 L 8961,14322 8961,13260 10635,12293 10635,14322 Z"/>
     <path fill="rgb(99,99,99)" stroke="none" d="M 10635,14322 L 10635,12293 11022,12070 11022,14870 8961,16060 8961,14322 10635,14322 Z M 10615,14302 L 8961,14302 8961,13260 10615,12305 10615,14302 Z"/>
     <path fill="rgb(100,100,100)" stroke="none" d="M 10615,14302 L 10615,12305 11022,12070 11022,14870 8961,16060 8961,14302 10615,14302 Z M 10596,14283 L 8961,14283 8961,13260 10596,12316 10596,14283 Z"/>
     <path fill="rgb(101,101,101)" stroke="none" d="M 10596,14283 L 10596,12316 11022,12070 11022,14870 8961,16060 8961,14283 10596,14283 Z M 10576,14263 L 8961,14263 8961,13260 10576,12328 10576,14263 Z"/>
     <path fill="rgb(102,102,102)" stroke="none" d="M 10576,14263 L 10576,12328 11022,12070 11022,14870 8961,16060 8961,14263 10576,14263 Z M 10557,14244 L 8961,14244 8961,13260 10557,12338 10557,14244 Z"/>
     <path fill="rgb(103,103,103)" stroke="none" d="M 10557,14244 L 10557,12338 11022,12070 11022,14870 8961,16060 8961,14244 10557,14244 Z M 10537,14224 L 8961,14224 8961,13260 10537,12350 10537,14224 Z"/>
     <path fill="rgb(104,104,104)" stroke="none" d="M 10537,14224 L 10537,12350 11022,12070 11022,14870 8961,16060 8961,14224 10537,14224 Z M 10518,14205 L 8961,14205 8961,13260 10518,12361 10518,14205 Z"/>
     <path fill="rgb(105,105,105)" stroke="none" d="M 10518,14205 L 10518,12361 11022,12070 11022,14870 8961,16060 8961,14205 10518,14205 Z M 10498,14185 L 8961,14185 8961,13260 10498,12373 10498,14185 Z"/>
     <path fill="rgb(106,106,106)" stroke="none" d="M 10498,14185 L 10498,12373 11022,12070 11022,14870 8961,16060 8961,14185 10498,14185 Z M 10478,14165 L 8961,14165 8961,13260 10478,12384 10478,14165 Z"/>
     <path fill="rgb(107,107,107)" stroke="none" d="M 10478,14165 L 10478,12384 11022,12070 11022,14870 8961,16060 8961,14165 10478,14165 Z M 10459,14146 L 8961,14146 8961,13260 10459,12395 10459,14146 Z"/>
     <path fill="rgb(108,108,108)" stroke="none" d="M 10459,14146 L 10459,12395 11022,12070 11022,14870 8961,16060 8961,14146 10459,14146 Z M 10439,14126 L 8961,14126 8961,13260 10439,12407 10439,14126 Z"/>
     <path fill="rgb(109,109,109)" stroke="none" d="M 10439,14126 L 10439,12407 11022,12070 11022,14870 8961,16060 8961,14126 10439,14126 Z M 10420,12424 L 10420,14107 8961,14107 8961,13260 10409,12424 10420,12424 Z"/>
     <path fill="rgb(110,110,110)" stroke="none" d="M 10420,14107 L 10420,12424 10409,12424 11022,12070 11022,14870 8961,16060 8961,14107 10420,14107 Z M 10400,12444 L 10400,14087 8961,14087 8961,13260 10374,12444 10400,12444 Z"/>
     <path fill="rgb(111,111,111)" stroke="none" d="M 10400,14087 L 10400,12444 10374,12444 11022,12070 11022,14870 8961,16060 8961,14087 10400,14087 Z M 10381,12463 L 10381,14068 8961,14068 8961,13260 10341,12463 10381,12463 Z"/>
     <path fill="rgb(112,112,112)" stroke="none" d="M 10381,14068 L 10381,12463 10341,12463 11022,12070 11022,14870 8961,16060 8961,14068 10381,14068 Z M 10361,12483 L 10361,14048 8961,14048 8961,13260 10307,12483 10361,12483 Z"/>
     <path fill="rgb(113,113,113)" stroke="none" d="M 10361,14048 L 10361,12483 10307,12483 11022,12070 11022,14870 8961,16060 8961,14048 10361,14048 Z M 10341,12503 L 10341,14028 8961,14028 8961,13260 10272,12503 10341,12503 Z"/>
     <path fill="rgb(114,114,114)" stroke="none" d="M 10341,14028 L 10341,12503 10272,12503 11022,12070 11022,14870 8961,16060 8961,14028 10341,14028 Z M 10322,12522 L 10322,14009 8961,14009 8961,13260 10239,12522 10322,12522 Z"/>
     <path fill="rgb(115,115,115)" stroke="none" d="M 10322,14009 L 10322,12522 10239,12522 11022,12070 11022,14870 8961,16060 8961,14009 10322,14009 Z M 10302,12542 L 10302,13989 8961,13989 8961,13260 10205,12542 10302,12542 Z"/>
     <path fill="rgb(116,116,116)" stroke="none" d="M 10302,13989 L 10302,12542 10205,12542 11022,12070 11022,14870 8961,16060 8961,13989 10302,13989 Z M 10283,12561 L 10283,13970 8961,13970 8961,13260 10172,12561 10283,12561 Z"/>
     <path fill="rgb(117,117,117)" stroke="none" d="M 10283,13970 L 10283,12561 10172,12561 11022,12070 11022,14870 8961,16060 8961,13970 10283,13970 Z M 10263,12581 L 10263,13950 8961,13950 8961,13260 10137,12581 10263,12581 Z"/>
     <path fill="rgb(118,118,118)" stroke="none" d="M 10263,13950 L 10263,12581 10137,12581 11022,12070 11022,14870 8961,16060 8961,13950 10263,13950 Z M 10243,12601 L 10243,13930 8961,13930 8961,13260 10102,12601 10243,12601 Z"/>
     <path fill="rgb(119,119,119)" stroke="none" d="M 10243,13930 L 10243,12601 10102,12601 11022,12070 11022,14870 8961,16060 8961,13930 10243,13930 Z M 10224,12620 L 10224,13911 8961,13911 8961,13260 10069,12620 10224,12620 Z"/>
     <path fill="rgb(120,120,120)" stroke="none" d="M 10224,13911 L 10224,12620 10069,12620 11022,12070 11022,14870 8961,16060 8961,13911 10224,13911 Z M 10204,12640 L 10204,13891 8961,13891 8961,13260 10035,12640 10204,12640 Z"/>
     <path fill="rgb(121,121,121)" stroke="none" d="M 10204,13891 L 10204,12640 10035,12640 11022,12070 11022,14870 8961,16060 8961,13891 10204,13891 Z M 10185,12659 L 10185,13872 8972,13872 8972,13254 10002,12659 10185,12659 Z"/>
     <path fill="rgb(122,122,122)" stroke="none" d="M 8972,13872 L 10185,13872 10185,12659 10002,12659 11022,12070 11022,14870 8961,16060 8961,13260 8972,13254 8972,13872 Z M 10165,12679 L 10165,13852 8992,13852 8992,13242 9967,12679 10165,12679 Z"/>
     <path fill="rgb(123,123,123)" stroke="none" d="M 8992,13852 L 10165,13852 10165,12679 9967,12679 11022,12070 11022,14870 8961,16060 8961,13260 8992,13242 8992,13852 Z M 10146,12698 L 10146,13833 9011,13833 9011,13231 9934,12698 10146,12698 Z"/>
     <path fill="rgb(124,124,124)" stroke="none" d="M 9011,13833 L 10146,13833 10146,12698 9934,12698 11022,12070 11022,14870 8961,16060 8961,13260 9011,13231 9011,13833 Z M 10126,12718 L 10126,13813 9031,13813 9031,13220 9900,12718 10126,12718 Z"/>
     <path fill="rgb(125,125,125)" stroke="none" d="M 9031,13813 L 10126,13813 10126,12718 9900,12718 11022,12070 11022,14870 8961,16060 8961,13260 9031,13220 9031,13813 Z M 10106,12738 L 10106,13793 9051,13793 9051,13208 9865,12738 10106,12738 Z"/>
     <path fill="rgb(126,126,126)" stroke="none" d="M 9051,13793 L 10106,13793 10106,12738 9865,12738 11022,12070 11022,14870 8961,16060 8961,13260 9051,13208 9051,13793 Z M 10087,12757 L 10087,13774 9070,13774 9070,13197 9832,12757 10087,12757 Z"/>
     <path fill="rgb(127,127,127)" stroke="none" d="M 9070,13774 L 10087,13774 10087,12757 9832,12757 11022,12070 11022,14870 8961,16060 8961,13260 9070,13197 9070,13774 Z M 10067,12777 L 10067,13754 9090,13754 9090,13186 9798,12777 10067,12777 Z"/>
     <path fill="rgb(128,128,128)" stroke="none" d="M 9090,13754 L 10067,13754 10067,12777 9798,12777 11022,12070 11022,14870 8961,16060 8961,13260 9090,13186 9090,13754 Z M 10048,12796 L 10048,13735 9109,13735 9109,13175 9765,12796 10048,12796 Z"/>
     <path fill="rgb(129,129,129)" stroke="none" d="M 9109,13735 L 10048,13735 10048,12796 9765,12796 11022,12070 11022,14870 8961,16060 8961,13260 9109,13175 9109,13735 Z M 10028,12816 L 10028,13715 9129,13715 9129,13163 9730,12816 10028,12816 Z"/>
     <path fill="rgb(130,130,130)" stroke="none" d="M 9129,13715 L 10028,13715 10028,12816 9730,12816 11022,12070 11022,14870 8961,16060 8961,13260 9129,13163 9129,13715 Z M 10009,12835 L 10009,13696 9148,13696 9148,13152 9697,12835 10009,12835 Z"/>
     <path fill="rgb(131,131,131)" stroke="none" d="M 9148,13696 L 10009,13696 10009,12835 9697,12835 11022,12070 11022,14870 8961,16060 8961,13260 9148,13152 9148,13696 Z M 9989,12855 L 9989,13676 9168,13676 9168,13140 9662,12855 9989,12855 Z"/>
     <path fill="rgb(132,132,132)" stroke="none" d="M 9168,13676 L 9989,13676 9989,12855 9662,12855 11022,12070 11022,14870 8961,16060 8961,13260 9168,13140 9168,13676 Z M 9969,12875 L 9969,13656 9188,13656 9188,13129 9628,12875 9969,12875 Z"/>
     <path fill="rgb(133,133,133)" stroke="none" d="M 9188,13656 L 9969,13656 9969,12875 9628,12875 11022,12070 11022,14870 8961,16060 8961,13260 9188,13129 9188,13656 Z M 9950,12894 L 9950,13637 9207,13637 9207,13118 9595,12894 9950,12894 Z"/>
     <path fill="rgb(134,134,134)" stroke="none" d="M 9207,13637 L 9950,13637 9950,12894 9595,12894 11022,12070 11022,14870 8961,16060 8961,13260 9207,13118 9207,13637 Z M 9930,12914 L 9930,13617 9227,13617 9227,13106 9560,12914 9930,12914 Z"/>
     <path fill="rgb(135,135,135)" stroke="none" d="M 9227,13617 L 9930,13617 9930,12914 9560,12914 11022,12070 11022,14870 8961,16060 8961,13260 9227,13106 9227,13617 Z M 9911,12933 L 9911,13598 9246,13598 9246,13095 9527,12933 9911,12933 Z"/>
     <path fill="rgb(136,136,136)" stroke="none" d="M 9246,13598 L 9911,13598 9911,12933 9527,12933 11022,12070 11022,14870 8961,16060 8961,13260 9246,13095 9246,13598 Z M 9891,12953 L 9891,13578 9266,13578 9266,13084 9493,12953 9891,12953 Z"/>
     <path fill="rgb(137,137,137)" stroke="none" d="M 9266,13578 L 9891,13578 9891,12953 9493,12953 11022,12070 11022,14870 8961,16060 8961,13260 9266,13084 9266,13578 Z M 9872,12972 L 9872,13559 9285,13559 9285,13073 9460,12972 9872,12972 Z"/>
     <path fill="rgb(138,138,138)" stroke="none" d="M 9285,13559 L 9872,13559 9872,12972 9460,12972 11022,12070 11022,14870 8961,16060 8961,13260 9285,13073 9285,13559 Z M 9852,12992 L 9852,13539 9305,13539 9305,13061 9425,12992 9852,12992 Z"/>
     <path fill="rgb(139,139,139)" stroke="none" d="M 9305,13539 L 9852,13539 9852,12992 9425,12992 11022,12070 11022,14870 8961,16060 8961,13260 9305,13061 9305,13539 Z M 9832,13012 L 9832,13519 9325,13519 9325,13050 9391,13012 9832,13012 Z"/>
     <path fill="rgb(140,140,140)" stroke="none" d="M 9325,13519 L 9832,13519 9832,13012 9391,13012 11022,12070 11022,14870 8961,16060 8961,13260 9325,13050 9325,13519 Z M 9813,13031 L 9813,13500 9344,13500 9344,13039 9358,13031 9813,13031 Z"/>
     <path fill="rgb(141,141,141)" stroke="none" d="M 9344,13500 L 9813,13500 9813,13031 9358,13031 11022,12070 11022,14870 8961,16060 8961,13260 9344,13039 9344,13500 Z M 9364,13051 L 9793,13051 9793,13480 9364,13480 9364,13051 Z"/>
     <path fill="rgb(142,142,142)" stroke="none" d="M 9364,13051 L 9364,13480 9793,13480 9793,13051 9364,13051 Z M 9383,13070 L 9774,13070 9774,13461 9383,13461 9383,13070 Z M 8961,16060 L 8961,13260 11022,12070 11022,14870 8961,16060 Z"/>
     <path fill="rgb(143,143,143)" stroke="none" d="M 9383,13070 L 9383,13461 9774,13461 9774,13070 9383,13070 Z M 9403,13090 L 9754,13090 9754,13441 9403,13441 9403,13090 Z M 8961,16060 L 8961,13260 11022,12070 11022,14870 8961,16060 Z"/>
     <path fill="rgb(144,144,144)" stroke="none" d="M 9403,13090 L 9403,13441 9754,13441 9754,13090 9403,13090 Z M 9422,13109 L 9735,13109 9735,13422 9422,13422 9422,13109 Z M 8961,16060 L 8961,13260 11022,12070 11022,14870 8961,16060 Z"/>
     <path fill="rgb(145,145,145)" stroke="none" d="M 9422,13109 L 9422,13422 9735,13422 9735,13109 9422,13109 Z M 9442,13129 L 9715,13129 9715,13402 9442,13402 9442,13129 Z M 8961,16060 L 8961,13260 11022,12070 11022,14870 8961,16060 Z"/>
     <path fill="rgb(146,146,146)" stroke="none" d="M 9442,13129 L 9442,13402 9715,13402 9715,13129 9442,13129 Z M 9462,13149 L 9695,13149 9695,13382 9462,13382 9462,13149 Z M 8961,16060 L 8961,13260 11022,12070 11022,14870 8961,16060 Z"/>
     <path fill="rgb(147,147,147)" stroke="none" d="M 9462,13149 L 9462,13382 9695,13382 9695,13149 9462,13149 Z M 9481,13168 L 9676,13168 9676,13363 9481,13363 9481,13168 Z M 8961,16060 L 8961,13260 11022,12070 11022,14870 8961,16060 Z"/>
     <path fill="rgb(148,148,148)" stroke="none" d="M 9481,13168 L 9481,13363 9676,13363 9676,13168 9481,13168 Z M 9501,13188 L 9656,13188 9656,13343 9501,13343 9501,13188 Z M 8961,16060 L 8961,13260 11022,12070 11022,14870 8961,16060 Z"/>
     <path fill="rgb(149,149,149)" stroke="none" d="M 9501,13188 L 9501,13343 9656,13343 9656,13188 9501,13188 Z M 9520,13207 L 9637,13207 9637,13324 9520,13324 9520,13207 Z M 8961,16060 L 8961,13260 11022,12070 11022,14870 8961,16060 Z"/>
     <path fill="rgb(150,150,150)" stroke="none" d="M 9520,13207 L 9520,13324 9637,13324 9637,13207 9520,13207 Z M 9540,13227 L 9617,13227 9617,13304 9540,13304 9540,13227 Z M 8961,16060 L 8961,13260 11022,12070 11022,14870 8961,16060 Z"/>
     <path fill="rgb(151,151,151)" stroke="none" d="M 9540,13227 L 9540,13304 9617,13304 9617,13227 9540,13227 Z M 9559,13246 L 9598,13246 9598,13285 9559,13285 9559,13246 Z M 8961,16060 L 8961,13260 11022,12070 11022,14870 8961,16060 Z"/>
     <path fill="rgb(153,153,153)" stroke="none" d="M 9559,13246 L 9559,13285 9598,13285 9598,13246 9559,13246 Z M 8961,16060 L 8961,13260 11022,12070 11022,14870 8961,16060 Z"/>
     <path fill="none" stroke="rgb(178,178,178)" id="Drawing_3_0" stroke-width="40" stroke-linejoin="round" d="M 8961,16060 L 8961,13260 11022,12070 11022,14870 8961,16060 Z"/>
    </g>
    <g>
     <defs>
      <linearGradient id="Gradient_844" gradientUnits="userSpaceOnUse" x1="9264" y1="11230" x2="9264" y2="13260">
       <stop offset="0.1" stop-color="rgb(51,51,51)"/>
       <stop offset="1" stop-color="rgb(153,153,153)"/>
      </linearGradient>
     </defs>
     <path fill="url(#Gradient_844)" stroke="rgb(178,178,178)" id="Drawing_4_0" stroke-width="40" stroke-linejoin="round" d="M 8961,13260 L 7506,12420 9567,11230 11022,12070 8961,13260 Z"/>
    </g>
    <g>
     <path fill="none" stroke="rgb(0,0,0)" id="Drawing_5_0" stroke-width="40" stroke-linejoin="round" d="M 7506,15220 L 7506,12420 9567,11230 11022,12070 11022,14870 8961,16060 7506,15220 Z"/>
    </g>
    <g>
     <path fill="none" stroke="rgb(178,178,178)" id="Drawing_6_0" stroke-width="40" stroke-linejoin="round" d="M 8718,15360 L 7748,14800"/>
    </g>
    <g>
     <path fill="none" stroke="rgb(178,178,178)" id="Drawing_7_0" stroke-width="40" stroke-linejoin="round" d="M 8718,15640 L 7748,15080"/>
    </g>
    <g>
     <path fill="none" stroke="rgb(178,178,178)" id="Drawing_8_0" stroke-width="40" stroke-linejoin="round" d="M 8718,15500 L 7748,14940"/>
    </g>
    <g>
     <path fill="none" stroke="rgb(178,178,178)" id="Drawing_9_0" stroke-width="40" stroke-linejoin="round" d="M 8839,13680 L 7627,12980 7627,12840"/>
    </g>
    <g>
     <path fill="none" stroke="rgb(102,102,102)" id="Drawing_10_0" stroke-width="40" stroke-linejoin="round" d="M 8839,13680 L 8839,13540 7648,12837"/>
    </g>
    <g>
     <path fill="rgb(57,181,74)" stroke="none" d="M 8076,14402 L 8076,14237 8218,14319 8218,14484 8076,14402 Z"/>
     <path fill="none" stroke="rgb(51,51,51)" id="Drawing_11_0" stroke-width="40" stroke-linejoin="round" d="M 8076,14402 L 8076,14237 8218,14319 8218,14484 8076,14402 Z"/>
    </g>
    <g>
     <path fill="none" stroke="rgb(178,178,178)" id="Drawing_12_0" stroke-width="40" stroke-linejoin="round" d="M 8718,15220 L 7748,14660"/>
    </g>
   </g>
  </g>
 </g>
</svg>