<?xml version="1.0" encoding="UTF-8"?>

<svg version="1.2" baseProfile="tiny" width="210mm" height="297mm" viewBox="0 0 21000 29700" preserveAspectRatio="xMidYMid" fill-rule="evenodd" stroke-width="28.222" stroke-linejoin="round" xmlns="http://www.w3.org/2000/svg" xmlns:xlink="http://www.w3.org/1999/xlink" xml:space="preserve">
 <g visibility="visible" id="MasterSlide_1_Default">
  <desc>Master slide
  </desc>
  <rect fill="none" stroke="none" x="0" y="0" width="21000" height="29700"/>
 </g>
 <g visibility="visible" id="Slide_1_page1">
  <g id="DrawingGroup_1">
   <g id="DrawingGroup_2">
    <g>
     <path fill="rgb(221,221,221)" stroke="none" d="M 8718,8423 C 8981,8423 11885,7147 11885,6758 11885,6370 11477,6370 11213,6370 11213,6536 8622,7202 8718,8423 Z"/>
     <path fill="none" stroke="rgb(221,221,221)" id="Drawing_1_0" stroke-linejoin="round" d="M 8718,8423 C 8981,8423 11885,7147 11885,6758 11885,6370 11477,6370 11213,6370 11213,6536 8622,7202 8718,8423 Z"/>
    </g>
    <g id="DrawingGroup_3">
     <g>
      <defs>
       <linearGradient id="Gradient_1019" gradientUnits="userSpaceOnUse" x1="5162" y1="6782" x2="8527" y2="6788">
        <stop offset="0.1" stop-color="rgb(179,179,179)"/>
        <stop offset="1" stop-color="rgb(229,229,229)"/>
       </linearGradient>
      </defs>
      <path fill="url(#Gradient_1019)" stroke="rgb(255,255,255)" id="Drawing_2_0" stroke-width="40" stroke-linejoin="round" d="M 5166,6370 L 5166,5260 8525,7202 8525,8311 5166,6370 Z"/>
     </g>
     <g>
      <path fill="rgb(179,179,179)" stroke="none" d="M 10799,6998 L 9444,7781 8525,7781 8525,7202 10799,5888 10799,6998 Z"/>
      <path fill="rgb(180,180,180)" stroke="none" d="M 9444,7781 L 8525,8312 8525,7781 9444,7781 Z M 10799,5888 L 11404,5538 11404,6648 10799,6998 10799,5888 Z M 10770,7014 L 9494,7752 8525,7752 8525,7202 10770,5904 10770,7014 Z"/>
      <path fill="rgb(181,181,181)" stroke="none" d="M 9494,7752 L 8525,8312 8525,7752 9494,7752 Z M 10770,5904 L 11404,5538 11404,6648 10770,7014 10770,5904 Z M 10741,7031 L 9544,7723 8525,7723 8525,7202 10741,5921 10741,7031 Z"/>
      <path fill="rgb(182,182,182)" stroke="none" d="M 9544,7723 L 8525,8312 8525,7723 9544,7723 Z M 10741,5921 L 11404,5538 11404,6648 10741,7031 10741,5921 Z M 10712,7048 L 9594,7694 8525,7694 8525,7202 10712,5938 10712,7048 Z"/>
      <path fill="rgb(183,183,183)" stroke="none" d="M 9594,7694 L 8525,8312 8525,7694 9594,7694 Z M 10712,5938 L 11404,5538 11404,6648 10712,7048 10712,5938 Z M 10683,7065 L 9644,7665 8525,7665 8525,7202 10683,5955 10683,7065 Z"/>
      <path fill="rgb(184,184,184)" stroke="none" d="M 9644,7665 L 8525,8312 8525,7665 9644,7665 Z M 10683,5955 L 11404,5538 11404,6648 10683,7065 10683,5955 Z M 10655,7081 L 9693,7637 8525,7637 8525,7202 10655,5971 10655,7081 Z"/>
      <path fill="rgb(185,185,185)" stroke="none" d="M 9693,7637 L 8525,8312 8525,7637 9693,7637 Z M 10655,5971 L 11404,5538 11404,6648 10655,7081 10655,5971 Z M 10626,7098 L 9743,7608 8525,7608 8525,7202 10626,5988 10626,7098 Z"/>
      <path fill="rgb(186,186,186)" stroke="none" d="M 9743,7608 L 8525,8312 8525,7608 9743,7608 Z M 10626,5988 L 11404,5538 11404,6648 10626,7098 10626,5988 Z M 10597,7114 L 9793,7579 8525,7579 8525,7202 10597,6004 10597,7114 Z"/>
      <path fill="rgb(187,187,187)" stroke="none" d="M 9793,7579 L 8525,8312 8525,7579 9793,7579 Z M 10597,6004 L 11404,5538 11404,6648 10597,7114 10597,6004 Z M 10568,7131 L 9843,7550 8525,7550 8525,7202 10568,6021 10568,7131 Z"/>
      <path fill="rgb(188,188,188)" stroke="none" d="M 9843,7550 L 8525,8312 8525,7550 9843,7550 Z M 10568,6021 L 11404,5538 11404,6648 10568,7131 10568,6021 Z M 10539,7148 L 9894,7521 8525,7521 8525,7202 10539,6038 10539,7148 Z"/>
      <path fill="rgb(189,189,189)" stroke="none" d="M 9894,7521 L 8525,8312 8525,7521 9894,7521 Z M 10539,6038 L 11404,5538 11404,6648 10539,7148 10539,6038 Z M 10510,7165 L 9944,7492 8525,7492 8525,7202 10510,6055 10510,7165 Z"/>
      <path fill="rgb(190,190,190)" stroke="none" d="M 9944,7492 L 8525,8312 8525,7492 9944,7492 Z M 10510,6055 L 11404,5538 11404,6648 10510,7165 10510,6055 Z M 10482,7181 L 9992,7464 8525,7464 8525,7202 10482,6071 10482,7181 Z"/>
      <path fill="rgb(191,191,191)" stroke="none" d="M 9992,7464 L 8525,8312 8525,7464 9992,7464 Z M 10482,6071 L 11404,5538 11404,6648 10482,7181 10482,6071 Z M 10453,7198 L 10042,7435 8525,7435 8525,7202 10453,6088 10453,7198 Z"/>
      <path fill="rgb(192,192,192)" stroke="none" d="M 10042,7435 L 8525,8312 8525,7435 10042,7435 Z M 10453,6088 L 11404,5538 11404,6648 10453,7198 10453,6088 Z M 10424,7214 L 10093,7406 8525,7406 8525,7202 10424,6104 10424,7214 Z"/>
      <path fill="rgb(193,193,193)" stroke="none" d="M 10093,7406 L 8525,8312 8525,7406 10093,7406 Z M 10424,6104 L 11404,5538 11404,6648 10424,7214 10424,6104 Z M 10395,7231 L 10143,7377 8525,7377 8525,7202 10395,6121 10395,7231 Z"/>
      <path fill="rgb(194,194,194)" stroke="none" d="M 10143,7377 L 8525,8312 8525,7377 10143,7377 Z M 10395,6121 L 11404,5538 11404,6648 10395,7231 10395,6121 Z M 10366,7248 L 10193,7348 8525,7348 8525,7202 10366,6138 10366,7248 Z"/>
      <path fill="rgb(195,195,195)" stroke="none" d="M 10193,7348 L 8525,8312 8525,7348 10193,7348 Z M 10366,6138 L 11404,5538 11404,6648 10366,7248 10366,6138 Z M 10338,7264 L 10241,7320 8525,7320 8525,7202 10338,6154 10338,7264 Z"/>
      <path fill="rgb(196,196,196)" stroke="none" d="M 10241,7320 L 8525,8312 8525,7320 10241,7320 Z M 10338,6154 L 11404,5538 11404,6648 10338,7264 10338,6154 Z M 10309,7281 L 10292,7291 8525,7291 8525,7202 10309,6171 10309,7281 Z"/>
      <path fill="rgb(197,197,197)" stroke="none" d="M 10292,7291 L 8525,8312 8525,7291 10292,7291 Z M 10309,6171 L 11404,5538 11404,6648 10309,7281 10309,6171 Z M 10280,7262 L 8525,7262 8525,7202 10280,6188 10280,7262 Z"/>
      <path fill="rgb(198,198,198)" stroke="none" d="M 10280,7262 L 10280,6188 11404,5538 11404,6648 8525,8312 8525,7262 10280,7262 Z M 10251,7233 L 8525,7233 8525,7202 10251,6204 10251,7233 Z"/>
      <path fill="rgb(199,199,199)" stroke="none" d="M 10251,7233 L 10251,6204 11404,5538 11404,6648 8525,8312 8525,7233 10251,7233 Z M 10222,7204 L 8552,7204 8552,7186 10222,6221 10222,7204 Z"/>
      <path fill="rgb(200,200,200)" stroke="none" d="M 8552,7204 L 10222,7204 10222,6221 11404,5538 11404,6648 8525,8312 8525,7202 8552,7186 8552,7204 Z M 10193,7175 L 8581,7175 8581,7170 10193,6238 10193,7175 Z"/>
      <path fill="rgb(201,201,201)" stroke="none" d="M 8581,7175 L 10193,7175 10193,6238 11404,5538 11404,6648 8525,8312 8525,7202 8581,7170 8581,7175 Z M 10165,7147 L 8620,7147 10165,6254 10165,7147 Z"/>
      <path fill="rgb(202,202,202)" stroke="none" d="M 10165,7147 L 10165,6254 11404,5538 11404,6648 8525,8312 8525,7202 8620,7147 10165,7147 Z M 10136,7118 L 8670,7118 10136,6271 10136,7118 Z"/>
      <path fill="rgb(203,203,203)" stroke="none" d="M 10136,7118 L 10136,6271 11404,5538 11404,6648 8525,8312 8525,7202 8670,7118 10136,7118 Z M 10107,7089 L 8721,7089 10107,6288 10107,7089 Z"/>
      <path fill="rgb(204,204,204)" stroke="none" d="M 10107,7089 L 10107,6288 11404,5538 11404,6648 8525,8312 8525,7202 8721,7089 10107,7089 Z M 10078,7060 L 8771,7060 10078,6304 10078,7060 Z"/>
      <path fill="rgb(205,205,205)" stroke="none" d="M 10078,7060 L 10078,6304 11404,5538 11404,6648 8525,8312 8525,7202 8771,7060 10078,7060 Z M 10049,7031 L 8821,7031 10049,6321 10049,7031 Z"/>
      <path fill="rgb(206,206,206)" stroke="none" d="M 10049,7031 L 10049,6321 11404,5538 11404,6648 8525,8312 8525,7202 8821,7031 10049,7031 Z M 10021,7003 L 8869,7003 10021,6337 10021,7003 Z"/>
      <path fill="rgb(207,207,207)" stroke="none" d="M 10021,7003 L 10021,6337 11404,5538 11404,6648 8525,8312 8525,7202 8869,7003 10021,7003 Z M 9992,6974 L 8919,6974 9992,6354 9992,6974 Z"/>
      <path fill="rgb(208,208,208)" stroke="none" d="M 9992,6974 L 9992,6354 11404,5538 11404,6648 8525,8312 8525,7202 8919,6974 9992,6974 Z M 9963,6945 L 8970,6945 9963,6371 9963,6945 Z"/>
      <path fill="rgb(209,209,209)" stroke="none" d="M 9963,6945 L 9963,6371 11404,5538 11404,6648 8525,8312 8525,7202 8970,6945 9963,6945 Z M 9934,6916 L 9020,6916 9934,6388 9934,6916 Z"/>
      <path fill="rgb(210,210,210)" stroke="none" d="M 9934,6916 L 9934,6388 11404,5538 11404,6648 8525,8312 8525,7202 9020,6916 9934,6916 Z M 9905,6887 L 9070,6887 9905,6404 9905,6887 Z"/>
      <path fill="rgb(211,211,211)" stroke="none" d="M 9905,6887 L 9905,6404 11404,5538 11404,6648 8525,8312 8525,7202 9070,6887 9905,6887 Z M 9876,6858 L 9120,6858 9876,6421 9876,6858 Z"/>
      <path fill="rgb(212,212,212)" stroke="none" d="M 9876,6858 L 9876,6421 11404,5538 11404,6648 8525,8312 8525,7202 9120,6858 9876,6858 Z M 9848,6830 L 9169,6830 9848,6437 9848,6830 Z"/>
      <path fill="rgb(213,213,213)" stroke="none" d="M 9848,6830 L 9848,6437 11404,5538 11404,6648 8525,8312 8525,7202 9169,6830 9848,6830 Z M 9819,6801 L 9219,6801 9819,6454 9819,6801 Z"/>
      <path fill="rgb(214,214,214)" stroke="none" d="M 9819,6801 L 9819,6454 11404,5538 11404,6648 8525,8312 8525,7202 9219,6801 9819,6801 Z M 9790,6772 L 9269,6772 9790,6471 9790,6772 Z"/>
      <path fill="rgb(215,215,215)" stroke="none" d="M 9790,6772 L 9790,6471 11404,5538 11404,6648 8525,8312 8525,7202 9269,6772 9790,6772 Z M 9761,6743 L 9319,6743 9761,6488 9761,6743 Z"/>
      <path fill="rgb(216,216,216)" stroke="none" d="M 9761,6743 L 9761,6488 11404,5538 11404,6648 8525,8312 8525,7202 9319,6743 9761,6743 Z M 9732,6714 L 9369,6714 9732,6504 9732,6714 Z"/>
      <path fill="rgb(217,217,217)" stroke="none" d="M 9732,6714 L 9732,6504 11404,5538 11404,6648 8525,8312 8525,7202 9369,6714 9732,6714 Z M 9704,6686 L 9418,6686 9704,6521 9704,6686 Z"/>
      <path fill="rgb(218,218,218)" stroke="none" d="M 9704,6686 L 9704,6521 11404,5538 11404,6648 8525,8312 8525,7202 9418,6686 9704,6686 Z M 9675,6657 L 9468,6657 9675,6537 9675,6657 Z"/>
      <path fill="rgb(219,219,219)" stroke="none" d="M 9675,6657 L 9675,6537 11404,5538 11404,6648 8525,8312 8525,7202 9468,6657 9675,6657 Z M 9646,6628 L 9518,6628 9646,6554 9646,6628 Z"/>
      <path fill="rgb(220,220,220)" stroke="none" d="M 9646,6628 L 9646,6554 11404,5538 11404,6648 8525,8312 8525,7202 9518,6628 9646,6628 Z M 9617,6599 L 9568,6599 9617,6571 9617,6599 Z"/>
      <path fill="rgb(221,221,221)" stroke="none" d="M 9617,6599 L 9617,6571 11404,5538 11404,6648 8525,8312 8525,7202 9568,6599 9617,6599 Z"/>
      <path fill="rgb(222,222,222)" stroke="none" d="M 8525,8312 L 8525,7202 11404,5538 11404,6648 8525,8312 Z"/>
      <path fill="rgb(223,223,223)" stroke="none" d="M 8525,8312 L 8525,7202 11404,5538 11404,6648 8525,8312 Z"/>
      <path fill="rgb(224,224,224)" stroke="none" d="M 8525,8312 L 8525,7202 11404,5538 11404,6648 8525,8312 Z"/>
      <path fill="rgb(225,225,225)" stroke="none" d="M 8525,8312 L 8525,7202 11404,5538 11404,6648 8525,8312 Z"/>
      <path fill="rgb(226,226,226)" stroke="none" d="M 8525,8312 L 8525,7202 11404,5538 11404,6648 8525,8312 Z"/>
      <path fill="rgb(227,227,227)" stroke="none" d="M 8525,8312 L 8525,7202 11404,5538 11404,6648 8525,8312 Z"/>
      <path fill="rgb(229,229,229)" stroke="none" d="M 8525,8312 L 8525,7202 11404,5538 11404,6648 8525,8312 Z"/>
      <path fill="none" stroke="rgb(255,255,255)" id="Drawing_3_0" stroke-width="40" stroke-linejoin="round" d="M 8525,8312 L 8525,7202 11404,5538 11404,6648 8525,8312 Z"/>
     </g>
     <g>
      <defs>
       <linearGradient id="Gradient_1020" gradientUnits="userSpaceOnUse" x1="8285" y1="3596" x2="8285" y2="7202">
        <stop offset="0.1" stop-color="rgb(179,179,179)"/>
        <stop offset="1" stop-color="rgb(229,229,229)"/>
       </linearGradient>
      </defs>
      <path fill="url(#Gradient_1020)" stroke="rgb(255,255,255)" id="Drawing_4_0" stroke-width="40" stroke-linejoin="round" d="M 8525,7202 L 5166,5260 8045,3596 11405,5538 8525,7202 Z"/>
     </g>
     <g>
      <path fill="none" stroke="rgb(127,127,127)" id="Drawing_5_0" stroke-width="40" stroke-linejoin="round" d="M 6318,6148 L 6318,6814"/>
     </g>
     <g>
      <path fill="none" stroke="rgb(255,255,255)" id="Drawing_6_0" stroke-width="40" stroke-linejoin="round" d="M 8430,7569 L 6894,6681"/>
     </g>
     <g>
      <path fill="none" stroke="rgb(255,255,255)" id="Drawing_7_0" stroke-width="40" stroke-linejoin="round" d="M 6885,6481 L 6885,6703"/>
     </g>
     <g>
      <path fill="none" stroke="rgb(0,0,0)" id="Drawing_8_0" stroke-width="40" stroke-linejoin="round" d="M 8421,7369 L 8421,7591"/>
     </g>
     <g>
      <path fill="none" stroke="rgb(0,0,0)" id="Drawing_9_0" stroke-width="40" stroke-linejoin="round" d="M 8421,7369 L 6885,6481"/>
     </g>
     <g>
      <path fill="rgb(57,181,74)" stroke="none" d="M 6510,6481 L 6510,6259 6702,6370 6702,6592 6510,6481 Z"/>
      <path fill="none" stroke="rgb(0,0,0)" id="Drawing_10_0" stroke-width="40" stroke-linejoin="round" d="M 6510,6481 L 6510,6259 6702,6370 6702,6592 6510,6481 Z"/>
     </g>
     <g>
      <path fill="none" stroke="rgb(127,127,127)" id="Drawing_11_0" stroke-width="40" stroke-linejoin="round" d="M 6126,6037 L 6126,6703"/>
     </g>
     <g>
      <path fill="none" stroke="rgb(127,127,127)" id="Drawing_12_0" stroke-width="40" stroke-linejoin="round" d="M 5934,5926 L 5934,6592"/>
     </g>
     <g>
      <path fill="none" stroke="rgb(127,127,127)" id="Drawing_13_0" stroke-width="40" stroke-linejoin="round" d="M 5742,5815 L 5742,6481"/>
     </g>
     <g>
      <path fill="none" stroke="rgb(127,127,127)" id="Drawing_14_0" stroke-width="40" stroke-linejoin="round" d="M 5550,5704 L 5550,6370"/>
     </g>
     <g>
      <path fill="none" stroke="rgb(127,127,127)" id="Drawing_15_0" stroke-width="40" stroke-linejoin="round" d="M 5358,5593 L 5358,6259"/>
     </g>
     <g>
      <defs>
       <linearGradient id="Gradient_1021" gradientUnits="userSpaceOnUse" x1="4973" y1="5759" x2="5167" y2="5759">
        <stop offset="0.1" stop-color="rgb(179,179,179)"/>
        <stop offset="1" stop-color="rgb(229,229,229)"/>
       </linearGradient>
      </defs>
      <path fill="url(#Gradient_1021)" stroke="rgb(255,255,255)" id="Drawing_16_0" stroke-width="40" stroke-linejoin="round" d="M 4974,6259 L 4974,5149 5166,5260 5166,6370 4974,6259 Z"/>
     </g>
     <g>
      <defs>
       <linearGradient id="Gradient_1022" gradientUnits="userSpaceOnUse" x1="8524" y1="7812" x2="8718" y2="7812">
        <stop offset="0.1" stop-color="rgb(179,179,179)"/>
        <stop offset="1" stop-color="rgb(229,229,229)"/>
       </linearGradient>
      </defs>
      <path fill="url(#Gradient_1022)" stroke="rgb(255,255,255)" id="Drawing_17_0" stroke-width="40" stroke-linejoin="round" d="M 8525,8312 L 8525,7202 8717,7313 8717,8423 8525,8312 Z"/>
     </g>
     <g>
      <path fill="none" stroke="rgb(0,0,0)" id="Drawing_18_0" stroke-width="40" stroke-linejoin="round" d="M 4974,6259 L 4974,5149 5166,5260 8045,3596 11405,5538 11405,6647 8717,8201 8717,8423 4974,6259 Z"/>
     </g>
    </g>
   </g>
   <g id="DrawingGroup_4">
    <g>
     <path fill="rgb(0,0,0)" stroke="none" d="M 9824,7932 L 9824,5973 10673,6463 10673,8422 9824,7932 Z"/>
     <path fill="none" stroke="rgb(0,0,0)" id="Drawing_19_0" stroke-width="40" stroke-linejoin="round" d="M 9824,7932 L 9824,5973 10673,6463 10673,8422 9824,7932 Z"/>
    </g>
    <g>
     <defs>
      <linearGradient id="Gradient_1023" gradientUnits="userSpaceOnUse" x1="10011" y1="7850" x2="10484" y2="7850">
       <stop offset="0.1" stop-color="rgb(179,179,179)"/>
       <stop offset="1" stop-color="rgb(229,229,229)"/>
      </linearGradient>
     </defs>
     <path fill="url(#Gradient_1023)" stroke="rgb(238,238,238)" id="Drawing_20_0" stroke-width="40" stroke-linejoin="round" d="M 10484,7714 L 10484,8258 10013,7986 10013,7442 10484,7714 Z"/>
    </g>
    <g>
     <path fill="none" stroke="rgb(255,255,255)" id="Drawing_21_0" stroke-width="40" stroke-linejoin="round" d="M 10578,8259 L 10578,8313"/>
    </g>
    <g>
     <path fill="none" stroke="rgb(255,255,255)" id="Drawing_22_0" stroke-width="40" stroke-linejoin="round" d="M 10578,8150 L 10578,8204"/>
    </g>
    <g>
     <path fill="none" stroke="rgb(255,255,255)" id="Drawing_23_0" stroke-width="40" stroke-linejoin="round" d="M 10578,8041 L 10578,8095"/>
    </g>
    <g>
     <path fill="none" stroke="rgb(255,255,255)" id="Drawing_24_0" stroke-width="40" stroke-linejoin="round" d="M 10578,7932 L 10578,7986"/>
    </g>
    <g>
     <path fill="none" stroke="rgb(255,255,255)" id="Drawing_25_0" stroke-width="40" stroke-linejoin="round" d="M 10578,7823 L 10578,7877"/>
    </g>
    <g>
     <path fill="none" stroke="rgb(255,255,255)" id="Drawing_26_0" stroke-width="40" stroke-linejoin="round" d="M 10578,7715 L 10578,7769"/>
    </g>
    <g>
     <path fill="none" stroke="rgb(255,255,255)" id="Drawing_27_0" stroke-width="40" stroke-linejoin="round" d="M 10578,7606 L 10578,7660"/>
    </g>
    <g>
     <path fill="none" stroke="rgb(255,255,255)" id="Drawing_28_0" stroke-width="40" stroke-linejoin="round" d="M 10578,7497 L 10578,7551"/>
    </g>
    <g>
     <path fill="none" stroke="rgb(255,255,255)" id="Drawing_29_0" stroke-width="40" stroke-linejoin="round" d="M 10578,7388 L 10578,7442"/>
    </g>
    <g>
     <path fill="none" stroke="rgb(255,255,255)" id="Drawing_30_0" stroke-width="40" stroke-linejoin="round" d="M 10578,7279 L 10578,7333"/>
    </g>
    <g>
     <path fill="none" stroke="rgb(255,255,255)" id="Drawing_31_0" stroke-width="40" stroke-linejoin="round" d="M 10578,7170 L 10578,7224"/>
    </g>
    <g>
     <path fill="none" stroke="rgb(255,255,255)" id="Drawing_32_0" stroke-width="40" stroke-linejoin="round" d="M 10578,7061 L 10578,7115"/>
    </g>
    <g>
     <path fill="none" stroke="rgb(255,255,255)" id="Drawing_33_0" stroke-width="40" stroke-linejoin="round" d="M 10578,6953 L 10578,7007"/>
    </g>
    <g>
     <path fill="none" stroke="rgb(255,255,255)" id="Drawing_34_0" stroke-width="40" stroke-linejoin="round" d="M 10578,6844 L 10578,6898"/>
    </g>
    <g>
     <path fill="none" stroke="rgb(255,255,255)" id="Drawing_35_0" stroke-width="40" stroke-linejoin="round" d="M 10578,6735 L 10578,6789"/>
    </g>
    <g>
     <path fill="none" stroke="rgb(255,255,255)" id="Drawing_36_0" stroke-width="40" stroke-linejoin="round" d="M 10578,6626 L 10578,6680"/>
    </g>
    <g>
     <defs>
      <linearGradient id="Gradient_1024" gradientUnits="userSpaceOnUse" x1="10011" y1="7197" x2="10484" y2="7197">
       <stop offset="0.1" stop-color="rgb(179,179,179)"/>
       <stop offset="1" stop-color="rgb(229,229,229)"/>
      </linearGradient>
     </defs>
     <path fill="url(#Gradient_1024)" stroke="rgb(238,238,238)" id="Drawing_37_0" stroke-width="40" stroke-linejoin="round" d="M 10484,7061 L 10484,7605 10013,7333 10013,6789 10484,7061 Z"/>
    </g>
    <g>
     <defs>
      <linearGradient id="Gradient_1025" gradientUnits="userSpaceOnUse" x1="10011" y1="6544" x2="10484" y2="6544">
       <stop offset="0.1" stop-color="rgb(179,179,179)"/>
       <stop offset="1" stop-color="rgb(229,229,229)"/>
      </linearGradient>
     </defs>
     <path fill="url(#Gradient_1025)" stroke="rgb(238,238,238)" id="Drawing_38_0" stroke-width="40" stroke-linejoin="round" d="M 10484,6408 L 10484,6952 10013,6680 10013,6136 10484,6408 Z"/>
    </g>
    <g>
     <path fill="none" stroke="rgb(255,255,255)" id="Drawing_39_0" stroke-width="40" stroke-linejoin="round" d="M 10578,6517 L 10578,6571"/>
    </g>
    <g>
     <path fill="none" stroke="rgb(255,255,255)" id="Drawing_40_0" stroke-width="40" stroke-linejoin="round" d="M 10578,6408 L 10578,6462"/>
    </g>
    <g>
     <path fill="none" stroke="rgb(255,255,255)" id="Drawing_41_0" stroke-width="40" stroke-linejoin="round" d="M 10578,8368 L 10578,8422"/>
    </g>
    <g>
     <path fill="none" stroke="rgb(255,255,255)" id="Drawing_42_0" stroke-width="40" stroke-linejoin="round" d="M 9919,7878 L 9919,7932"/>
    </g>
    <g>
     <path fill="none" stroke="rgb(255,255,255)" id="Drawing_43_0" stroke-width="40" stroke-linejoin="round" d="M 9919,7769 L 9919,7823"/>
    </g>
    <g>
     <path fill="none" stroke="rgb(255,255,255)" id="Drawing_44_0" stroke-width="40" stroke-linejoin="round" d="M 9919,7660 L 9919,7714"/>
    </g>
    <g>
     <path fill="none" stroke="rgb(255,255,255)" id="Drawing_45_0" stroke-width="40" stroke-linejoin="round" d="M 9919,7551 L 9919,7605"/>
    </g>
    <g>
     <path fill="none" stroke="rgb(255,255,255)" id="Drawing_46_0" stroke-width="40" stroke-linejoin="round" d="M 9919,7442 L 9919,7496"/>
    </g>
    <g>
     <path fill="none" stroke="rgb(255,255,255)" id="Drawing_47_0" stroke-width="40" stroke-linejoin="round" d="M 9919,7334 L 9919,7388"/>
    </g>
    <g>
     <path fill="none" stroke="rgb(255,255,255)" id="Drawing_48_0" stroke-width="40" stroke-linejoin="round" d="M 9919,7225 L 9919,7279"/>
    </g>
    <g>
     <path fill="none" stroke="rgb(255,255,255)" id="Drawing_49_0" stroke-width="40" stroke-linejoin="round" d="M 9919,7116 L 9919,7170"/>
    </g>
    <g>
     <path fill="none" stroke="rgb(255,255,255)" id="Drawing_50_0" stroke-width="40" stroke-linejoin="round" d="M 9919,7007 L 9919,7061"/>
    </g>
    <g>
     <path fill="none" stroke="rgb(255,255,255)" id="Drawing_51_0" stroke-width="40" stroke-linejoin="round" d="M 9919,6898 L 9919,6952"/>
    </g>
    <g>
     <path fill="none" stroke="rgb(255,255,255)" id="Drawing_52_0" stroke-width="40" stroke-linejoin="round" d="M 9919,6789 L 9919,6843"/>
    </g>
    <g>
     <path fill="none" stroke="rgb(255,255,255)" id="Drawing_53_0" stroke-width="40" stroke-linejoin="round" d="M 9919,6680 L 9919,6734"/>
    </g>
    <g>
     <path fill="none" stroke="rgb(255,255,255)" id="Drawing_54_0" stroke-width="40" stroke-linejoin="round" d="M 9919,6572 L 9919,6626"/>
    </g>
    <g>
     <path fill="none" stroke="rgb(255,255,255)" id="Drawing_55_0" stroke-width="40" stroke-linejoin="round" d="M 9919,6463 L 9919,6517"/>
    </g>
    <g>
     <path fill="none" stroke="rgb(255,255,255)" id="Drawing_56_0" stroke-width="40" stroke-linejoin="round" d="M 9919,6354 L 9919,6408"/>
    </g>
    <g>
     <path fill="none" stroke="rgb(255,255,255)" id="Drawing_57_0" stroke-width="40" stroke-linejoin="round" d="M 9919,6245 L 9919,6299"/>
    </g>
    <g>
     <path fill="none" stroke="rgb(255,255,255)" id="Drawing_58_0" stroke-width="40" stroke-linejoin="round" d="M 9919,6136 L 9919,6190"/>
    </g>
    <g>
     <path fill="none" stroke="rgb(255,255,255)" id="Drawing_59_0" stroke-width="40" stroke-linejoin="round" d="M 9919,6027 L 9919,6081"/>
    </g>
    <g>
     <path fill="none" stroke="rgb(255,255,255)" id="Drawing_60_0" stroke-width="40" stroke-linejoin="round" d="M 9919,7987 L 9919,8041"/>
    </g>
   </g>
  </g>
  <g id="DrawingGroup_5">
   <g id="DrawingGroup_6">
    <g>
     <path fill="rgb(221,221,221)" stroke="none" d="M 7735,19687 C 7998,19687 10902,18411 10902,18022 10902,17634 10494,17634 10230,17634 10230,17800 7639,18466 7735,19687 Z"/>
     <path fill="none" stroke="rgb(221,221,221)" id="Drawing_61_0" stroke-linejoin="round" d="M 7735,19687 C 7998,19687 10902,18411 10902,18022 10902,17634 10494,17634 10230,17634 10230,17800 7639,18466 7735,19687 Z"/>
    </g>
    <g id="DrawingGroup_7">
     <g>
      <defs>
       <linearGradient id="Gradient_1026" gradientUnits="userSpaceOnUse" x1="4179" y1="18046" x2="7544" y2="18052">
        <stop offset="0.1" stop-color="rgb(51,51,51)"/>
        <stop offset="1" stop-color="rgb(153,153,153)"/>
       </linearGradient>
      </defs>
      <path fill="url(#Gradient_1026)" stroke="rgb(178,178,178)" id="Drawing_62_0" stroke-width="40" stroke-linejoin="round" d="M 4183,17634 L 4183,16524 7542,18466 7542,19575 4183,17634 Z"/>
     </g>
     <g>
      <path fill="rgb(51,51,51)" stroke="none" d="M 9830,18254 L 8436,19059 7542,19059 7542,18466 9830,17144 9830,18254 Z"/>
      <path fill="rgb(52,52,52)" stroke="none" d="M 8436,19059 L 7542,19576 7542,19059 8436,19059 Z M 9830,17144 L 10421,16802 10421,17912 9830,18254 9830,17144 Z M 9816,18262 L 8461,19045 7542,19045 7542,18466 9816,17152 9816,18262 Z"/>
      <path fill="rgb(53,53,53)" stroke="none" d="M 8461,19045 L 7542,19576 7542,19045 8461,19045 Z M 9816,17152 L 10421,16802 10421,17912 9816,18262 9816,17152 Z M 9802,18270 L 8485,19031 7542,19031 7542,18466 9802,17160 9802,18270 Z"/>
      <path fill="rgb(54,54,54)" stroke="none" d="M 8485,19031 L 7542,19576 7542,19031 8485,19031 Z M 9802,17160 L 10421,16802 10421,17912 9802,18270 9802,17160 Z M 9788,18278 L 8509,19017 7542,19017 7542,18466 9788,17168 9788,18278 Z"/>
      <path fill="rgb(55,55,55)" stroke="none" d="M 8509,19017 L 7542,19576 7542,19017 8509,19017 Z M 9788,17168 L 10421,16802 10421,17912 9788,18278 9788,17168 Z M 9774,18286 L 8533,19003 7542,19003 7542,18466 9774,17176 9774,18286 Z"/>
      <path fill="rgb(56,56,56)" stroke="none" d="M 8533,19003 L 7542,19576 7542,19003 8533,19003 Z M 9774,17176 L 10421,16802 10421,17912 9774,18286 9774,17176 Z M 9760,18294 L 8558,18989 7542,18989 7542,18466 9760,17184 9760,18294 Z"/>
      <path fill="rgb(57,57,57)" stroke="none" d="M 8558,18989 L 7542,19576 7542,18989 8558,18989 Z M 9760,17184 L 10421,16802 10421,17912 9760,18294 9760,17184 Z M 9746,18302 L 8582,18975 7542,18975 7542,18466 9746,17192 9746,18302 Z"/>
      <path fill="rgb(58,58,58)" stroke="none" d="M 8582,18975 L 7542,19576 7542,18975 8582,18975 Z M 9746,17192 L 10421,16802 10421,17912 9746,18302 9746,17192 Z M 9731,18311 L 8608,18960 7542,18960 7542,18466 9731,17201 9731,18311 Z"/>
      <path fill="rgb(59,59,59)" stroke="none" d="M 8608,18960 L 7542,19576 7542,18960 8608,18960 Z M 9731,17201 L 10421,16802 10421,17912 9731,18311 9731,17201 Z M 9717,18319 L 8632,18946 7542,18946 7542,18466 9717,17209 9717,18319 Z"/>
      <path fill="rgb(60,60,60)" stroke="none" d="M 8632,18946 L 7542,19576 7542,18946 8632,18946 Z M 9717,17209 L 10421,16802 10421,17912 9717,18319 9717,17209 Z M 9703,18327 L 8656,18932 7542,18932 7542,18466 9703,17217 9703,18327 Z"/>
      <path fill="rgb(61,61,61)" stroke="none" d="M 8656,18932 L 7542,19576 7542,18932 8656,18932 Z M 9703,17217 L 10421,16802 10421,17912 9703,18327 9703,17217 Z M 9689,18335 L 8680,18918 7542,18918 7542,18466 9689,17225 9689,18335 Z"/>
      <path fill="rgb(62,62,62)" stroke="none" d="M 8680,18918 L 7542,19576 7542,18918 8680,18918 Z M 9689,17225 L 10421,16802 10421,17912 9689,18335 9689,17225 Z M 9675,18343 L 8705,18904 7542,18904 7542,18466 9675,17233 9675,18343 Z"/>
      <path fill="rgb(63,63,63)" stroke="none" d="M 8705,18904 L 7542,19576 7542,18904 8705,18904 Z M 9675,17233 L 10421,16802 10421,17912 9675,18343 9675,17233 Z M 9661,18351 L 8729,18890 7542,18890 7542,18466 9661,17241 9661,18351 Z"/>
      <path fill="rgb(64,64,64)" stroke="none" d="M 8729,18890 L 7542,19576 7542,18890 8729,18890 Z M 9661,17241 L 10421,16802 10421,17912 9661,18351 9661,17241 Z M 9647,18359 L 8753,18876 7542,18876 7542,18466 9647,17249 9647,18359 Z"/>
      <path fill="rgb(65,65,65)" stroke="none" d="M 8753,18876 L 7542,19576 7542,18876 8753,18876 Z M 9647,17249 L 10421,16802 10421,17912 9647,18359 9647,17249 Z M 9633,18367 L 8777,18862 7542,18862 7542,18466 9633,17257 9633,18367 Z"/>
      <path fill="rgb(66,66,66)" stroke="none" d="M 8777,18862 L 7542,19576 7542,18862 8777,18862 Z M 9633,17257 L 10421,16802 10421,17912 9633,18367 9633,17257 Z M 9618,18376 L 8803,18847 7542,18847 7542,18466 9618,17266 9618,18376 Z"/>
      <path fill="rgb(67,67,67)" stroke="none" d="M 8803,18847 L 7542,19576 7542,18847 8803,18847 Z M 9618,17266 L 10421,16802 10421,17912 9618,18376 9618,17266 Z M 9604,18384 L 8828,18833 7542,18833 7542,18466 9604,17274 9604,18384 Z"/>
      <path fill="rgb(68,68,68)" stroke="none" d="M 8828,18833 L 7542,19576 7542,18833 8828,18833 Z M 9604,17274 L 10421,16802 10421,17912 9604,18384 9604,17274 Z M 9590,18392 L 8852,18819 7542,18819 7542,18466 9590,17282 9590,18392 Z"/>
      <path fill="rgb(69,69,69)" stroke="none" d="M 8852,18819 L 7542,19576 7542,18819 8852,18819 Z M 9590,17282 L 10421,16802 10421,17912 9590,18392 9590,17282 Z M 9576,18400 L 8876,18805 7542,18805 7542,18466 9576,17290 9576,18400 Z"/>
      <path fill="rgb(70,70,70)" stroke="none" d="M 8876,18805 L 7542,19576 7542,18805 8876,18805 Z M 9576,17290 L 10421,16802 10421,17912 9576,18400 9576,17290 Z M 9562,18408 L 8900,18791 7542,18791 7542,18466 9562,17298 9562,18408 Z"/>
      <path fill="rgb(71,71,71)" stroke="none" d="M 8900,18791 L 7542,19576 7542,18791 8900,18791 Z M 9562,17298 L 10421,16802 10421,17912 9562,18408 9562,17298 Z M 9548,18417 L 8924,18777 7542,18777 7542,18466 9548,17307 9548,18417 Z"/>
      <path fill="rgb(72,72,72)" stroke="none" d="M 8924,18777 L 7542,19576 7542,18777 8924,18777 Z M 9548,17307 L 10421,16802 10421,17912 9548,18417 9548,17307 Z M 9534,18425 L 8949,18763 7542,18763 7542,18466 9534,17315 9534,18425 Z"/>
      <path fill="rgb(73,73,73)" stroke="none" d="M 8949,18763 L 7542,19576 7542,18763 8949,18763 Z M 9534,17315 L 10421,16802 10421,17912 9534,18425 9534,17315 Z M 9520,18433 L 8973,18749 7542,18749 7542,18466 9520,17323 9520,18433 Z"/>
      <path fill="rgb(74,74,74)" stroke="none" d="M 8973,18749 L 7542,19576 7542,18749 8973,18749 Z M 9520,17323 L 10421,16802 10421,17912 9520,18433 9520,17323 Z M 9505,18441 L 8999,18734 7542,18734 7542,18466 9505,17331 9505,18441 Z"/>
      <path fill="rgb(75,75,75)" stroke="none" d="M 8999,18734 L 7542,19576 7542,18734 8999,18734 Z M 9505,17331 L 10421,16802 10421,17912 9505,18441 9505,17331 Z M 9491,18450 L 9023,18720 7542,18720 7542,18466 9491,17340 9491,18450 Z"/>
      <path fill="rgb(76,76,76)" stroke="none" d="M 9023,18720 L 7542,19576 7542,18720 9023,18720 Z M 9491,17340 L 10421,16802 10421,17912 9491,18450 9491,17340 Z M 9477,18458 L 9047,18706 7542,18706 7542,18466 9477,17348 9477,18458 Z"/>
      <path fill="rgb(77,77,77)" stroke="none" d="M 9047,18706 L 7542,19576 7542,18706 9047,18706 Z M 9477,17348 L 10421,16802 10421,17912 9477,18458 9477,17348 Z M 9463,18466 L 9071,18692 7542,18692 7542,18466 9463,17356 9463,18466 Z"/>
      <path fill="rgb(78,78,78)" stroke="none" d="M 9071,18692 L 7542,19576 7542,18692 9071,18692 Z M 9463,17356 L 10421,16802 10421,17912 9463,18466 9463,17356 Z M 9449,18474 L 9096,18678 7542,18678 7542,18466 9449,17364 9449,18474 Z"/>
      <path fill="rgb(79,79,79)" stroke="none" d="M 9096,18678 L 7542,19576 7542,18678 9096,18678 Z M 9449,17364 L 10421,16802 10421,17912 9449,18474 9449,17364 Z M 9435,18482 L 9120,18664 7542,18664 7542,18466 9435,17372 9435,18482 Z"/>
      <path fill="rgb(80,80,80)" stroke="none" d="M 9120,18664 L 7542,19576 7542,18664 9120,18664 Z M 9435,17372 L 10421,16802 10421,17912 9435,18482 9435,17372 Z M 9421,18490 L 9144,18650 7542,18650 7542,18466 9421,17380 9421,18490 Z"/>
      <path fill="rgb(81,81,81)" stroke="none" d="M 9144,18650 L 7542,19576 7542,18650 9144,18650 Z M 9421,17380 L 10421,16802 10421,17912 9421,18490 9421,17380 Z M 9407,18498 L 9168,18636 7542,18636 7542,18466 9407,17388 9407,18498 Z"/>
      <path fill="rgb(82,82,82)" stroke="none" d="M 9168,18636 L 7542,19576 7542,18636 9168,18636 Z M 9407,17388 L 10421,16802 10421,17912 9407,18498 9407,17388 Z M 9392,18507 L 9194,18621 7542,18621 7542,18466 9392,17397 9392,18507 Z"/>
      <path fill="rgb(83,83,83)" stroke="none" d="M 9194,18621 L 7542,19576 7542,18621 9194,18621 Z M 9392,17397 L 10421,16802 10421,17912 9392,18507 9392,17397 Z M 9378,18515 L 9219,18607 7542,18607 7542,18466 9378,17405 9378,18515 Z"/>
      <path fill="rgb(84,84,84)" stroke="none" d="M 9219,18607 L 7542,19576 7542,18607 9219,18607 Z M 9378,17405 L 10421,16802 10421,17912 9378,18515 9378,17405 Z M 9364,18523 L 9243,18593 7542,18593 7542,18466 9364,17413 9364,18523 Z"/>
      <path fill="rgb(85,85,85)" stroke="none" d="M 9243,18593 L 7542,19576 7542,18593 9243,18593 Z M 9364,17413 L 10421,16802 10421,17912 9364,18523 9364,17413 Z M 9350,18531 L 9267,18579 7542,18579 7542,18466 9350,17421 9350,18531 Z"/>
      <path fill="rgb(86,86,86)" stroke="none" d="M 9267,18579 L 7542,19576 7542,18579 9267,18579 Z M 9350,17421 L 10421,16802 10421,17912 9350,18531 9350,17421 Z M 9336,18539 L 9291,18565 7542,18565 7542,18466 9336,17429 9336,18539 Z"/>
      <path fill="rgb(87,87,87)" stroke="none" d="M 9291,18565 L 7542,19576 7542,18565 9291,18565 Z M 9336,17429 L 10421,16802 10421,17912 9336,18539 9336,17429 Z M 9322,18547 L 9315,18551 7542,18551 7542,18466 9322,17437 9322,18547 Z"/>
      <path fill="rgb(88,88,88)" stroke="none" d="M 9315,18551 L 7542,19576 7542,18551 9315,18551 Z M 9322,17437 L 10421,16802 10421,17912 9322,18547 9322,17437 Z M 9308,18537 L 7542,18537 7542,18466 9308,17445 9308,18537 Z"/>
      <path fill="rgb(89,89,89)" stroke="none" d="M 9308,18537 L 9308,17445 10421,16802 10421,17912 7542,19576 7542,18537 9308,18537 Z M 9294,18523 L 7542,18523 7542,18466 9294,17453 9294,18523 Z"/>
      <path fill="rgb(90,90,90)" stroke="none" d="M 9294,18523 L 9294,17453 10421,16802 10421,17912 7542,19576 7542,18523 9294,18523 Z M 9279,18508 L 7542,18508 7542,18466 9279,17462 9279,18508 Z"/>
      <path fill="rgb(91,91,91)" stroke="none" d="M 9279,18508 L 9279,17462 10421,16802 10421,17912 7542,19576 7542,18508 9279,18508 Z M 9265,18494 L 7543,18494 7543,18465 9265,17470 9265,18494 Z"/>
      <path fill="rgb(92,92,92)" stroke="none" d="M 7543,18494 L 9265,18494 9265,17470 10421,16802 10421,17912 7542,19576 7542,18466 7543,18465 7543,18494 Z M 9251,18480 L 7557,18480 7557,18457 9251,17478 9251,18480 Z"/>
      <path fill="rgb(93,93,93)" stroke="none" d="M 7557,18480 L 9251,18480 9251,17478 10421,16802 10421,17912 7542,19576 7542,18466 7557,18457 7557,18480 Z M 9237,18466 L 7571,18466 7571,18449 9237,17486 9237,18466 Z"/>
      <path fill="rgb(94,94,94)" stroke="none" d="M 7571,18466 L 9237,18466 9237,17486 10421,16802 10421,17912 7542,19576 7542,18466 7571,18449 7571,18466 Z M 9223,18452 L 7585,18452 7585,18441 9223,17494 9223,18452 Z"/>
      <path fill="rgb(95,95,95)" stroke="none" d="M 7585,18452 L 9223,18452 9223,17494 10421,16802 10421,17912 7542,19576 7542,18466 7585,18441 7585,18452 Z M 9209,18438 L 7599,18438 7599,18433 9209,17503 9209,18438 Z"/>
      <path fill="rgb(96,96,96)" stroke="none" d="M 7599,18438 L 9209,18438 9209,17503 10421,16802 10421,17912 7542,19576 7542,18466 7599,18433 7599,18438 Z M 9195,18424 L 7615,18424 9195,17511 9195,18424 Z"/>
      <path fill="rgb(97,97,97)" stroke="none" d="M 9195,18424 L 9195,17511 10421,16802 10421,17912 7542,19576 7542,18466 7615,18424 9195,18424 Z M 9181,18410 L 7639,18410 9181,17519 9181,18410 Z"/>
      <path fill="rgb(98,98,98)" stroke="none" d="M 9181,18410 L 9181,17519 10421,16802 10421,17912 7542,19576 7542,18466 7639,18410 9181,18410 Z M 9166,18395 L 7665,18395 9166,17527 9166,18395 Z"/>
      <path fill="rgb(99,99,99)" stroke="none" d="M 9166,18395 L 9166,17527 10421,16802 10421,17912 7542,19576 7542,18466 7665,18395 9166,18395 Z M 9152,18381 L 7689,18381 9152,17535 9152,18381 Z"/>
      <path fill="rgb(100,100,100)" stroke="none" d="M 9152,18381 L 9152,17535 10421,16802 10421,17912 7542,19576 7542,18466 7689,18381 9152,18381 Z M 9138,18367 L 7713,18367 9138,17544 9138,18367 Z"/>
      <path fill="rgb(101,101,101)" stroke="none" d="M 9138,18367 L 9138,17544 10421,16802 10421,17912 7542,19576 7542,18466 7713,18367 9138,18367 Z M 9124,18353 L 7738,18353 9124,17552 9124,18353 Z"/>
      <path fill="rgb(102,102,102)" stroke="none" d="M 9124,18353 L 9124,17552 10421,16802 10421,17912 7542,19576 7542,18466 7738,18353 9124,18353 Z M 9110,18339 L 7762,18339 9110,17560 9110,18339 Z"/>
      <path fill="rgb(103,103,103)" stroke="none" d="M 9110,18339 L 9110,17560 10421,16802 10421,17912 7542,19576 7542,18466 7762,18339 9110,18339 Z M 9096,18325 L 7786,18325 9096,17568 9096,18325 Z"/>
      <path fill="rgb(104,104,104)" stroke="none" d="M 9096,18325 L 9096,17568 10421,16802 10421,17912 7542,19576 7542,18466 7786,18325 9096,18325 Z M 9082,18311 L 7810,18311 9082,17576 9082,18311 Z"/>
      <path fill="rgb(105,105,105)" stroke="none" d="M 9082,18311 L 9082,17576 10421,16802 10421,17912 7542,19576 7542,18466 7810,18311 9082,18311 Z M 9067,18296 L 7836,18296 9067,17585 9067,18296 Z"/>
      <path fill="rgb(106,106,106)" stroke="none" d="M 9067,18296 L 9067,17585 10421,16802 10421,17912 7542,19576 7542,18466 7836,18296 9067,18296 Z M 9053,18282 L 7860,18282 9053,17593 9053,18282 Z"/>
      <path fill="rgb(107,107,107)" stroke="none" d="M 9053,18282 L 9053,17593 10421,16802 10421,17912 7542,19576 7542,18466 7860,18282 9053,18282 Z M 9039,18268 L 7885,18268 9039,17601 9039,18268 Z"/>
      <path fill="rgb(108,108,108)" stroke="none" d="M 9039,18268 L 9039,17601 10421,16802 10421,17912 7542,19576 7542,18466 7885,18268 9039,18268 Z M 9025,18254 L 7909,18254 9025,17609 9025,18254 Z"/>
      <path fill="rgb(109,109,109)" stroke="none" d="M 9025,18254 L 9025,17609 10421,16802 10421,17912 7542,19576 7542,18466 7909,18254 9025,18254 Z M 9011,18240 L 7933,18240 9011,17617 9011,18240 Z"/>
      <path fill="rgb(110,110,110)" stroke="none" d="M 9011,18240 L 9011,17617 10421,16802 10421,17912 7542,19576 7542,18466 7933,18240 9011,18240 Z M 8997,18226 L 7957,18226 8997,17625 8997,18226 Z"/>
      <path fill="rgb(111,111,111)" stroke="none" d="M 8997,18226 L 8997,17625 10421,16802 10421,17912 7542,19576 7542,18466 7957,18226 8997,18226 Z M 8983,18212 L 7981,18212 8983,17633 8983,18212 Z"/>
      <path fill="rgb(112,112,112)" stroke="none" d="M 8983,18212 L 8983,17633 10421,16802 10421,17912 7542,19576 7542,18466 7981,18212 8983,18212 Z M 8969,18198 L 8006,18198 8969,17641 8969,18198 Z"/>
      <path fill="rgb(113,113,113)" stroke="none" d="M 8969,18198 L 8969,17641 10421,16802 10421,17912 7542,19576 7542,18466 8006,18198 8969,18198 Z M 8954,18183 L 8032,18183 8954,17650 8954,18183 Z"/>
      <path fill="rgb(114,114,114)" stroke="none" d="M 8954,18183 L 8954,17650 10421,16802 10421,17912 7542,19576 7542,18466 8032,18183 8954,18183 Z M 8940,18169 L 8056,18169 8940,17658 8940,18169 Z"/>
      <path fill="rgb(115,115,115)" stroke="none" d="M 8940,18169 L 8940,17658 10421,16802 10421,17912 7542,19576 7542,18466 8056,18169 8940,18169 Z M 8926,18155 L 8080,18155 8926,17666 8926,18155 Z"/>
      <path fill="rgb(116,116,116)" stroke="none" d="M 8926,18155 L 8926,17666 10421,16802 10421,17912 7542,19576 7542,18466 8080,18155 8926,18155 Z M 8912,18141 L 8104,18141 8912,17674 8912,18141 Z"/>
      <path fill="rgb(117,117,117)" stroke="none" d="M 8912,18141 L 8912,17674 10421,16802 10421,17912 7542,19576 7542,18466 8104,18141 8912,18141 Z M 8898,18127 L 8129,18127 8898,17682 8898,18127 Z"/>
      <path fill="rgb(118,118,118)" stroke="none" d="M 8898,18127 L 8898,17682 10421,16802 10421,17912 7542,19576 7542,18466 8129,18127 8898,18127 Z M 8884,18113 L 8153,18113 8884,17690 8884,18113 Z"/>
      <path fill="rgb(119,119,119)" stroke="none" d="M 8884,18113 L 8884,17690 10421,16802 10421,17912 7542,19576 7542,18466 8153,18113 8884,18113 Z M 8870,18099 L 8177,18099 8870,17698 8870,18099 Z"/>
      <path fill="rgb(120,120,120)" stroke="none" d="M 8870,18099 L 8870,17698 10421,16802 10421,17912 7542,19576 7542,18466 8177,18099 8870,18099 Z M 8856,18085 L 8201,18085 8856,17707 8856,18085 Z"/>
      <path fill="rgb(121,121,121)" stroke="none" d="M 8856,18085 L 8856,17707 10421,16802 10421,17912 7542,19576 7542,18466 8201,18085 8856,18085 Z M 8841,18070 L 8227,18070 8841,17715 8841,18070 Z"/>
      <path fill="rgb(122,122,122)" stroke="none" d="M 8841,18070 L 8841,17715 10421,16802 10421,17912 7542,19576 7542,18466 8227,18070 8841,18070 Z M 8827,18056 L 8251,18056 8827,17723 8827,18056 Z"/>
      <path fill="rgb(123,123,123)" stroke="none" d="M 8827,18056 L 8827,17723 10421,16802 10421,17912 7542,19576 7542,18466 8251,18056 8827,18056 Z M 8813,18042 L 8276,18042 8813,17731 8813,18042 Z"/>
      <path fill="rgb(124,124,124)" stroke="none" d="M 8813,18042 L 8813,17731 10421,16802 10421,17912 7542,19576 7542,18466 8276,18042 8813,18042 Z M 8799,18028 L 8300,18028 8799,17739 8799,18028 Z"/>
      <path fill="rgb(125,125,125)" stroke="none" d="M 8799,18028 L 8799,17739 10421,16802 10421,17912 7542,19576 7542,18466 8300,18028 8799,18028 Z M 8785,18014 L 8324,18014 8785,17748 8785,18014 Z"/>
      <path fill="rgb(126,126,126)" stroke="none" d="M 8785,18014 L 8785,17748 10421,16802 10421,17912 7542,19576 7542,18466 8324,18014 8785,18014 Z M 8771,18000 L 8348,18000 8771,17756 8771,18000 Z"/>
      <path fill="rgb(127,127,127)" stroke="none" d="M 8771,18000 L 8771,17756 10421,16802 10421,17912 7542,19576 7542,18466 8348,18000 8771,18000 Z M 8757,17986 L 8372,17986 8757,17764 8757,17986 Z"/>
      <path fill="rgb(128,128,128)" stroke="none" d="M 8757,17986 L 8757,17764 10421,16802 10421,17912 7542,19576 7542,18466 8372,17986 8757,17986 Z M 8743,17972 L 8397,17972 8743,17772 8743,17972 Z"/>
      <path fill="rgb(129,129,129)" stroke="none" d="M 8743,17972 L 8743,17772 10421,16802 10421,17912 7542,19576 7542,18466 8397,17972 8743,17972 Z M 8728,17957 L 8423,17957 8728,17781 8728,17957 Z"/>
      <path fill="rgb(130,130,130)" stroke="none" d="M 8728,17957 L 8728,17781 10421,16802 10421,17912 7542,19576 7542,18466 8423,17957 8728,17957 Z M 8714,17943 L 8447,17943 8714,17789 8714,17943 Z"/>
      <path fill="rgb(131,131,131)" stroke="none" d="M 8714,17943 L 8714,17789 10421,16802 10421,17912 7542,19576 7542,18466 8447,17943 8714,17943 Z M 8700,17929 L 8471,17929 8700,17797 8700,17929 Z"/>
      <path fill="rgb(132,132,132)" stroke="none" d="M 8700,17929 L 8700,17797 10421,16802 10421,17912 7542,19576 7542,18466 8471,17929 8700,17929 Z M 8686,17915 L 8495,17915 8686,17805 8686,17915 Z"/>
      <path fill="rgb(133,133,133)" stroke="none" d="M 8686,17915 L 8686,17805 10421,16802 10421,17912 7542,19576 7542,18466 8495,17915 8686,17915 Z M 8672,17901 L 8520,17901 8672,17813 8672,17901 Z"/>
      <path fill="rgb(134,134,134)" stroke="none" d="M 8672,17901 L 8672,17813 10421,16802 10421,17912 7542,19576 7542,18466 8520,17901 8672,17901 Z M 8658,17887 L 8544,17887 8658,17821 8658,17887 Z"/>
      <path fill="rgb(135,135,135)" stroke="none" d="M 8658,17887 L 8658,17821 10421,16802 10421,17912 7542,19576 7542,18466 8544,17887 8658,17887 Z M 8644,17873 L 8568,17873 8644,17829 8644,17873 Z"/>
      <path fill="rgb(136,136,136)" stroke="none" d="M 8644,17873 L 8644,17829 10421,16802 10421,17912 7542,19576 7542,18466 8568,17873 8644,17873 Z M 8630,17859 L 8592,17859 8630,17837 8630,17859 Z"/>
      <path fill="rgb(137,137,137)" stroke="none" d="M 8630,17859 L 8630,17837 10421,16802 10421,17912 7542,19576 7542,18466 8592,17859 8630,17859 Z"/>
      <path fill="rgb(138,138,138)" stroke="none" d="M 7542,19576 L 7542,18466 10421,16802 10421,17912 7542,19576 Z"/>
      <path fill="rgb(139,139,139)" stroke="none" d="M 7542,19576 L 7542,18466 10421,16802 10421,17912 7542,19576 Z"/>
      <path fill="rgb(140,140,140)" stroke="none" d="M 7542,19576 L 7542,18466 10421,16802 10421,17912 7542,19576 Z"/>
      <path fill="rgb(141,141,141)" stroke="none" d="M 7542,19576 L 7542,18466 10421,16802 10421,17912 7542,19576 Z"/>
      <path fill="rgb(142,142,142)" stroke="none" d="M 7542,19576 L 7542,18466 10421,16802 10421,17912 7542,19576 Z"/>
      <path fill="rgb(143,143,143)" stroke="none" d="M 7542,19576 L 7542,18466 10421,16802 10421,17912 7542,19576 Z"/>
      <path fill="rgb(144,144,144)" stroke="none" d="M 7542,19576 L 7542,18466 10421,16802 10421,17912 7542,19576 Z"/>
      <path fill="rgb(145,145,145)" stroke="none" d="M 7542,19576 L 7542,18466 10421,16802 10421,17912 7542,19576 Z"/>
      <path fill="rgb(146,146,146)" stroke="none" d="M 7542,19576 L 7542,18466 10421,16802 10421,17912 7542,19576 Z"/>
      <path fill="rgb(147,147,147)" stroke="none" d="M 7542,19576 L 7542,18466 10421,16802 10421,17912 7542,19576 Z"/>
      <path fill="rgb(148,148,148)" stroke="none" d="M 7542,19576 L 7542,18466 10421,16802 10421,17912 7542,19576 Z"/>
      <path fill="rgb(149,149,149)" stroke="none" d="M 7542,19576 L 7542,18466 10421,16802 10421,17912 7542,19576 Z"/>
      <path fill="rgb(150,150,150)" stroke="none" d="M 7542,19576 L 7542,18466 10421,16802 10421,17912 7542,19576 Z"/>
      <path fill="rgb(151,151,151)" stroke="none" d="M 7542,19576 L 7542,18466 10421,16802 10421,17912 7542,19576 Z"/>
      <path fill="rgb(153,153,153)" stroke="none" d="M 7542,19576 L 7542,18466 10421,16802 10421,17912 7542,19576 Z"/>
      <path fill="none" stroke="rgb(178,178,178)" id="Drawing_63_0" stroke-width="40" stroke-linejoin="round" d="M 7542,19576 L 7542,18466 10421,16802 10421,17912 7542,19576 Z"/>
     </g>
     <g>
      <defs>
       <linearGradient id="Gradient_1027" gradientUnits="userSpaceOnUse" x1="7302" y1="14860" x2="7302" y2="18466">
        <stop offset="0.1" stop-color="rgb(51,51,51)"/>
        <stop offset="1" stop-color="rgb(153,153,153)"/>
       </linearGradient>
      </defs>
      <path fill="url(#Gradient_1027)" stroke="rgb(178,178,178)" id="Drawing_64_0" stroke-width="40" stroke-linejoin="round" d="M 7542,18466 L 4183,16524 7062,14860 10422,16802 7542,18466 Z"/>
     </g>
     <g>
      <path fill="none" stroke="rgb(153,153,153)" id="Drawing_65_0" stroke-width="40" stroke-linejoin="round" d="M 5335,17412 L 5335,18078"/>
     </g>
     <g>
      <path fill="none" stroke="rgb(178,178,178)" id="Drawing_66_0" stroke-width="40" stroke-linejoin="round" d="M 7447,18833 L 5911,17945"/>
     </g>
     <g>
      <path fill="none" stroke="rgb(178,178,178)" id="Drawing_67_0" stroke-width="40" stroke-linejoin="round" d="M 5902,17745 L 5902,17967"/>
     </g>
     <g>
      <path fill="none" stroke="rgb(102,102,102)" id="Drawing_68_0" stroke-width="40" stroke-linejoin="round" d="M 7438,18633 L 7438,18855"/>
     </g>
     <g>
      <path fill="none" stroke="rgb(102,102,102)" id="Drawing_69_0" stroke-width="40" stroke-linejoin="round" d="M 7438,18633 L 5902,17745"/>
     </g>
     <g>
      <path fill="rgb(57,181,74)" stroke="none" d="M 5527,17745 L 5527,17523 5719,17634 5719,17856 5527,17745 Z"/>
      <path fill="none" stroke="rgb(102,102,102)" id="Drawing_70_0" stroke-width="40" stroke-linejoin="round" d="M 5527,17745 L 5527,17523 5719,17634 5719,17856 5527,17745 Z"/>
     </g>
     <g>
      <path fill="none" stroke="rgb(153,153,153)" id="Drawing_71_0" stroke-width="40" stroke-linejoin="round" d="M 5143,17301 L 5143,17967"/>
     </g>
     <g>
      <path fill="none" stroke="rgb(153,153,153)" id="Drawing_72_0" stroke-width="40" stroke-linejoin="round" d="M 4951,17190 L 4951,17856"/>
     </g>
     <g>
      <path fill="none" stroke="rgb(153,153,153)" id="Drawing_73_0" stroke-width="40" stroke-linejoin="round" d="M 4759,17079 L 4759,17745"/>
     </g>
     <g>
      <path fill="none" stroke="rgb(153,153,153)" id="Drawing_74_0" stroke-width="40" stroke-linejoin="round" d="M 4567,16968 L 4567,17634"/>
     </g>
     <g>
      <path fill="none" stroke="rgb(153,153,153)" id="Drawing_75_0" stroke-width="40" stroke-linejoin="round" d="M 4375,16857 L 4375,17523"/>
     </g>
     <g>
      <defs>
       <linearGradient id="Gradient_1028" gradientUnits="userSpaceOnUse" x1="3990" y1="17023" x2="4184" y2="17023">
        <stop offset="0.1" stop-color="rgb(51,51,51)"/>
        <stop offset="1" stop-color="rgb(153,153,153)"/>
       </linearGradient>
      </defs>
      <path fill="url(#Gradient_1028)" stroke="rgb(178,178,178)" id="Drawing_76_0" stroke-width="40" stroke-linejoin="round" d="M 3991,17523 L 3991,16413 4183,16524 4183,17634 3991,17523 Z"/>
     </g>
     <g>
      <defs>
       <linearGradient id="Gradient_1029" gradientUnits="userSpaceOnUse" x1="7541" y1="19076" x2="7735" y2="19076">
        <stop offset="0.1" stop-color="rgb(51,51,51)"/>
        <stop offset="1" stop-color="rgb(153,153,153)"/>
       </linearGradient>
      </defs>
      <path fill="url(#Gradient_1029)" stroke="rgb(178,178,178)" id="Drawing_77_0" stroke-width="40" stroke-linejoin="round" d="M 7542,19576 L 7542,18466 7734,18577 7734,19687 7542,19576 Z"/>
     </g>
     <g>
      <path fill="none" stroke="rgb(0,0,0)" id="Drawing_78_0" stroke-width="40" stroke-linejoin="round" d="M 3991,17523 L 3991,16413 4183,16524 7062,14860 10422,16802 10422,17911 7734,19465 7734,19687 3991,17523 Z"/>
     </g>
    </g>
   </g>
   <g id="DrawingGroup_8">
    <g>
     <path fill="rgb(0,0,0)" stroke="none" d="M 8841,19196 L 8841,17237 9690,17727 9690,19686 8841,19196 Z"/>
     <path fill="none" stroke="rgb(0,0,0)" id="Drawing_79_0" stroke-width="40" stroke-linejoin="round" d="M 8841,19196 L 8841,17237 9690,17727 9690,19686 8841,19196 Z"/>
    </g>
    <g>
     <defs>
      <linearGradient id="Gradient_1030" gradientUnits="userSpaceOnUse" x1="9028" y1="19114" x2="9501" y2="19114">
       <stop offset="0.1" stop-color="rgb(179,179,179)"/>
       <stop offset="1" stop-color="rgb(229,229,229)"/>
      </linearGradient>
     </defs>
     <path fill="url(#Gradient_1030)" stroke="rgb(238,238,238)" id="Drawing_80_0" stroke-width="40" stroke-linejoin="round" d="M 9501,18978 L 9501,19522 9030,19250 9030,18706 9501,18978 Z"/>
    </g>
    <g>
     <path fill="none" stroke="rgb(255,255,255)" id="Drawing_81_0" stroke-width="40" stroke-linejoin="round" d="M 9595,19523 L 9595,19577"/>
    </g>
    <g>
     <path fill="none" stroke="rgb(255,255,255)" id="Drawing_82_0" stroke-width="40" stroke-linejoin="round" d="M 9595,19414 L 9595,19468"/>
    </g>
    <g>
     <path fill="none" stroke="rgb(255,255,255)" id="Drawing_83_0" stroke-width="40" stroke-linejoin="round" d="M 9595,19305 L 9595,19359"/>
    </g>
    <g>
     <path fill="none" stroke="rgb(255,255,255)" id="Drawing_84_0" stroke-width="40" stroke-linejoin="round" d="M 9595,19196 L 9595,19250"/>
    </g>
    <g>
     <path fill="none" stroke="rgb(255,255,255)" id="Drawing_85_0" stroke-width="40" stroke-linejoin="round" d="M 9595,19087 L 9595,19141"/>
    </g>
    <g>
     <path fill="none" stroke="rgb(255,255,255)" id="Drawing_86_0" stroke-width="40" stroke-linejoin="round" d="M 9595,18979 L 9595,19033"/>
    </g>
    <g>
     <path fill="none" stroke="rgb(255,255,255)" id="Drawing_87_0" stroke-width="40" stroke-linejoin="round" d="M 9595,18870 L 9595,18924"/>
    </g>
    <g>
     <path fill="none" stroke="rgb(255,255,255)" id="Drawing_88_0" stroke-width="40" stroke-linejoin="round" d="M 9595,18761 L 9595,18815"/>
    </g>
    <g>
     <path fill="none" stroke="rgb(255,255,255)" id="Drawing_89_0" stroke-width="40" stroke-linejoin="round" d="M 9595,18652 L 9595,18706"/>
    </g>
    <g>
     <path fill="none" stroke="rgb(255,255,255)" id="Drawing_90_0" stroke-width="40" stroke-linejoin="round" d="M 9595,18543 L 9595,18597"/>
    </g>
    <g>
     <path fill="none" stroke="rgb(255,255,255)" id="Drawing_91_0" stroke-width="40" stroke-linejoin="round" d="M 9595,18434 L 9595,18488"/>
    </g>
    <g>
     <path fill="none" stroke="rgb(255,255,255)" id="Drawing_92_0" stroke-width="40" stroke-linejoin="round" d="M 9595,18325 L 9595,18379"/>
    </g>
    <g>
     <path fill="none" stroke="rgb(255,255,255)" id="Drawing_93_0" stroke-width="40" stroke-linejoin="round" d="M 9595,18217 L 9595,18271"/>
    </g>
    <g>
     <path fill="none" stroke="rgb(255,255,255)" id="Drawing_94_0" stroke-width="40" stroke-linejoin="round" d="M 9595,18108 L 9595,18162"/>
    </g>
    <g>
     <path fill="none" stroke="rgb(255,255,255)" id="Drawing_95_0" stroke-width="40" stroke-linejoin="round" d="M 9595,17999 L 9595,18053"/>
    </g>
    <g>
     <path fill="none" stroke="rgb(255,255,255)" id="Drawing_96_0" stroke-width="40" stroke-linejoin="round" d="M 9595,17890 L 9595,17944"/>
    </g>
    <g>
     <defs>
      <linearGradient id="Gradient_1031" gradientUnits="userSpaceOnUse" x1="9028" y1="18461" x2="9501" y2="18461">
       <stop offset="0.1" stop-color="rgb(179,179,179)"/>
       <stop offset="1" stop-color="rgb(229,229,229)"/>
      </linearGradient>
     </defs>
     <path fill="url(#Gradient_1031)" stroke="rgb(238,238,238)" id="Drawing_97_0" stroke-width="40" stroke-linejoin="round" d="M 9501,18325 L 9501,18869 9030,18597 9030,18053 9501,18325 Z"/>
    </g>
    <g>
     <defs>
      <linearGradient id="Gradient_1032" gradientUnits="userSpaceOnUse" x1="9028" y1="17808" x2="9501" y2="17808">
       <stop offset="0.1" stop-color="rgb(179,179,179)"/>
       <stop offset="1" stop-color="rgb(229,229,229)"/>
      </linearGradient>
     </defs>
     <path fill="url(#Gradient_1032)" stroke="rgb(238,238,238)" id="Drawing_98_0" stroke-width="40" stroke-linejoin="round" d="M 9501,17672 L 9501,18216 9030,17944 9030,17400 9501,17672 Z"/>
    </g>
    <g>
     <path fill="none" stroke="rgb(255,255,255)" id="Drawing_99_0" stroke-width="40" stroke-linejoin="round" d="M 9595,17781 L 9595,17835"/>
    </g>
    <g>
     <path fill="none" stroke="rgb(255,255,255)" id="Drawing_100_0" stroke-width="40" stroke-linejoin="round" d="M 9595,17672 L 9595,17726"/>
    </g>
    <g>
     <path fill="none" stroke="rgb(255,255,255)" id="Drawing_101_0" stroke-width="40" stroke-linejoin="round" d="M 9595,19632 L 9595,19686"/>
    </g>
    <g>
     <path fill="none" stroke="rgb(255,255,255)" id="Drawing_102_0" stroke-width="40" stroke-linejoin="round" d="M 8936,19142 L 8936,19196"/>
    </g>
    <g>
     <path fill="none" stroke="rgb(255,255,255)" id="Drawing_103_0" stroke-width="40" stroke-linejoin="round" d="M 8936,19033 L 8936,19087"/>
    </g>
    <g>
     <path fill="none" stroke="rgb(255,255,255)" id="Drawing_104_0" stroke-width="40" stroke-linejoin="round" d="M 8936,18924 L 8936,18978"/>
    </g>
    <g>
     <path fill="none" stroke="rgb(255,255,255)" id="Drawing_105_0" stroke-width="40" stroke-linejoin="round" d="M 8936,18815 L 8936,18869"/>
    </g>
    <g>
     <path fill="none" stroke="rgb(255,255,255)" id="Drawing_106_0" stroke-width="40" stroke-linejoin="round" d="M 8936,18706 L 8936,18760"/>
    </g>
    <g>
     <path fill="none" stroke="rgb(255,255,255)" id="Drawing_107_0" stroke-width="40" stroke-linejoin="round" d="M 8936,18598 L 8936,18652"/>
    </g>
    <g>
     <path fill="none" stroke="rgb(255,255,255)" id="Drawing_108_0" stroke-width="40" stroke-linejoin="round" d="M 8936,18489 L 8936,18543"/>
    </g>
    <g>
     <path fill="none" stroke="rgb(255,255,255)" id="Drawing_109_0" stroke-width="40" stroke-linejoin="round" d="M 8936,18380 L 8936,18434"/>
    </g>
    <g>
     <path fill="none" stroke="rgb(255,255,255)" id="Drawing_110_0" stroke-width="40" stroke-linejoin="round" d="M 8936,18271 L 8936,18325"/>
    </g>
    <g>
     <path fill="none" stroke="rgb(255,255,255)" id="Drawing_111_0" stroke-width="40" stroke-linejoin="round" d="M 8936,18162 L 8936,18216"/>
    </g>
    <g>
     <path fill="none" stroke="rgb(255,255,255)" id="Drawing_112_0" stroke-width="40" stroke-linejoin="round" d="M 8936,18053 L 8936,18107"/>
    </g>
    <g>
     <path fill="none" stroke="rgb(255,255,255)" id="Drawing_113_0" stroke-width="40" stroke-linejoin="round" d="M 8936,17944 L 8936,17998"/>
    </g>
    <g>
     <path fill="none" stroke="rgb(255,255,255)" id="Drawing_114_0" stroke-width="40" stroke-linejoin="round" d="M 8936,17836 L 8936,17890"/>
    </g>
    <g>
     <path fill="none" stroke="rgb(255,255,255)" id="Drawing_115_0" stroke-width="40" stroke-linejoin="round" d="M 8936,17727 L 8936,17781"/>
    </g>
    <g>
     <path fill="none" stroke="rgb(255,255,255)" id="Drawing_116_0" stroke-width="40" stroke-linejoin="round" d="M 8936,17618 L 8936,17672"/>
    </g>
    <g>
     <path fill="none" stroke="rgb(255,255,255)" id="Drawing_117_0" stroke-width="40" stroke-linejoin="round" d="M 8936,17509 L 8936,17563"/>
    </g>
    <g>
     <path fill="none" stroke="rgb(255,255,255)" id="Drawing_118_0" stroke-width="40" stroke-linejoin="round" d="M 8936,17400 L 8936,17454"/>
    </g>
    <g>
     <path fill="none" stroke="rgb(255,255,255)" id="Drawing_119_0" stroke-width="40" stroke-linejoin="round" d="M 8936,17291 L 8936,17345"/>
    </g>
    <g>
     <path fill="none" stroke="rgb(255,255,255)" id="Drawing_120_0" stroke-width="40" stroke-linejoin="round" d="M 8936,19251 L 8936,19305"/>
    </g>
   </g>
  </g>
 </g>
</svg>