<?xml version="1.0" encoding="UTF-8"?>

<svg version="1.2" baseProfile="tiny" width="69.31mm" height="48.67mm" viewBox="3782 13631 6931 4867" preserveAspectRatio="xMidYMid" fill-rule="evenodd" stroke-width="28.222" stroke-linejoin="round" xmlns="http://www.w3.org/2000/svg" xmlns:xlink="http://www.w3.org/1999/xlink" xml:space="preserve">
 <g visibility="visible" id="Slide_1">
  <g id="DrawingGroup_1">
   <g id="DrawingGroup_2">
    <g>
     <path fill="rgb(221,221,221)" stroke="none" d="M 7546,18478 C 7809,18478 10713,17202 10713,16813 10713,16425 10305,16425 10041,16425 10041,16591 7450,17257 7546,18478 Z"/>
     <path fill="none" stroke="rgb(221,221,221)" id="Drawing_1_0" stroke-linejoin="round" d="M 7546,18478 C 7809,18478 10713,17202 10713,16813 10713,16425 10305,16425 10041,16425 10041,16591 7450,17257 7546,18478 Z"/>
    </g>
    <g id="DrawingGroup_3">
     <g>
      <defs>
       <linearGradient id="Gradient_1003" gradientUnits="userSpaceOnUse" x1="3990" y1="16837" x2="7355" y2="16843">
        <stop offset="0.1" stop-color="rgb(51,51,51)"/>
        <stop offset="1" stop-color="rgb(153,153,153)"/>
       </linearGradient>
      </defs>
      <path fill="url(#Gradient_1003)" stroke="rgb(178,178,178)" id="Drawing_2_0" stroke-width="40" stroke-linejoin="round" d="M 3994,16425 L 3994,15315 7353,17257 7353,18366 3994,16425 Z"/>
     </g>
     <g>
      <path fill="rgb(51,51,51)" stroke="none" d="M 9641,17045 L 8247,17850 7353,17850 7353,17257 9641,15935 9641,17045 Z"/>
      <path fill="rgb(52,52,52)" stroke="none" d="M 8247,17850 L 7353,18367 7353,17850 8247,17850 Z M 9641,15935 L 10232,15593 10232,16703 9641,17045 9641,15935 Z M 9627,17053 L 8272,17836 7353,17836 7353,17257 9627,15943 9627,17053 Z"/>
      <path fill="rgb(53,53,53)" stroke="none" d="M 8272,17836 L 7353,18367 7353,17836 8272,17836 Z M 9627,15943 L 10232,15593 10232,16703 9627,17053 9627,15943 Z M 9613,17061 L 8296,17822 7353,17822 7353,17257 9613,15951 9613,17061 Z"/>
      <path fill="rgb(54,54,54)" stroke="none" d="M 8296,17822 L 7353,18367 7353,17822 8296,17822 Z M 9613,15951 L 10232,15593 10232,16703 9613,17061 9613,15951 Z M 9599,17069 L 8320,17808 7353,17808 7353,17257 9599,15959 9599,17069 Z"/>
      <path fill="rgb(55,55,55)" stroke="none" d="M 8320,17808 L 7353,18367 7353,17808 8320,17808 Z M 9599,15959 L 10232,15593 10232,16703 9599,17069 9599,15959 Z M 9585,17077 L 8344,17794 7353,17794 7353,17257 9585,15967 9585,17077 Z"/>
      <path fill="rgb(56,56,56)" stroke="none" d="M 8344,17794 L 7353,18367 7353,17794 8344,17794 Z M 9585,15967 L 10232,15593 10232,16703 9585,17077 9585,15967 Z M 9571,17085 L 8369,17780 7353,17780 7353,17257 9571,15975 9571,17085 Z"/>
      <path fill="rgb(57,57,57)" stroke="none" d="M 8369,17780 L 7353,18367 7353,17780 8369,17780 Z M 9571,15975 L 10232,15593 10232,16703 9571,17085 9571,15975 Z M 9557,17093 L 8393,17766 7353,17766 7353,17257 9557,15983 9557,17093 Z"/>
      <path fill="rgb(58,58,58)" stroke="none" d="M 8393,17766 L 7353,18367 7353,17766 8393,17766 Z M 9557,15983 L 10232,15593 10232,16703 9557,17093 9557,15983 Z M 9542,17102 L 8419,17751 7353,17751 7353,17257 9542,15992 9542,17102 Z"/>
      <path fill="rgb(59,59,59)" stroke="none" d="M 8419,17751 L 7353,18367 7353,17751 8419,17751 Z M 9542,15992 L 10232,15593 10232,16703 9542,17102 9542,15992 Z M 9528,17110 L 8443,17737 7353,17737 7353,17257 9528,16000 9528,17110 Z"/>
      <path fill="rgb(60,60,60)" stroke="none" d="M 8443,17737 L 7353,18367 7353,17737 8443,17737 Z M 9528,16000 L 10232,15593 10232,16703 9528,17110 9528,16000 Z M 9514,17118 L 8467,17723 7353,17723 7353,17257 9514,16008 9514,17118 Z"/>
      <path fill="rgb(61,61,61)" stroke="none" d="M 8467,17723 L 7353,18367 7353,17723 8467,17723 Z M 9514,16008 L 10232,15593 10232,16703 9514,17118 9514,16008 Z M 9500,17126 L 8491,17709 7353,17709 7353,17257 9500,16016 9500,17126 Z"/>
      <path fill="rgb(62,62,62)" stroke="none" d="M 8491,17709 L 7353,18367 7353,17709 8491,17709 Z M 9500,16016 L 10232,15593 10232,16703 9500,17126 9500,16016 Z M 9486,17134 L 8516,17695 7353,17695 7353,17257 9486,16024 9486,17134 Z"/>
      <path fill="rgb(63,63,63)" stroke="none" d="M 8516,17695 L 7353,18367 7353,17695 8516,17695 Z M 9486,16024 L 10232,15593 10232,16703 9486,17134 9486,16024 Z M 9472,17142 L 8540,17681 7353,17681 7353,17257 9472,16032 9472,17142 Z"/>
      <path fill="rgb(64,64,64)" stroke="none" d="M 8540,17681 L 7353,18367 7353,17681 8540,17681 Z M 9472,16032 L 10232,15593 10232,16703 9472,17142 9472,16032 Z M 9458,17150 L 8564,17667 7353,17667 7353,17257 9458,16040 9458,17150 Z"/>
      <path fill="rgb(65,65,65)" stroke="none" d="M 8564,17667 L 7353,18367 7353,17667 8564,17667 Z M 9458,16040 L 10232,15593 10232,16703 9458,17150 9458,16040 Z M 9444,17158 L 8588,17653 7353,17653 7353,17257 9444,16048 9444,17158 Z"/>
      <path fill="rgb(66,66,66)" stroke="none" d="M 8588,17653 L 7353,18367 7353,17653 8588,17653 Z M 9444,16048 L 10232,15593 10232,16703 9444,17158 9444,16048 Z M 9429,17167 L 8614,17638 7353,17638 7353,17257 9429,16057 9429,17167 Z"/>
      <path fill="rgb(67,67,67)" stroke="none" d="M 8614,17638 L 7353,18367 7353,17638 8614,17638 Z M 9429,16057 L 10232,15593 10232,16703 9429,17167 9429,16057 Z M 9415,17175 L 8639,17624 7353,17624 7353,17257 9415,16065 9415,17175 Z"/>
      <path fill="rgb(68,68,68)" stroke="none" d="M 8639,17624 L 7353,18367 7353,17624 8639,17624 Z M 9415,16065 L 10232,15593 10232,16703 9415,17175 9415,16065 Z M 9401,17183 L 8663,17610 7353,17610 7353,17257 9401,16073 9401,17183 Z"/>
      <path fill="rgb(69,69,69)" stroke="none" d="M 8663,17610 L 7353,18367 7353,17610 8663,17610 Z M 9401,16073 L 10232,15593 10232,16703 9401,17183 9401,16073 Z M 9387,17191 L 8687,17596 7353,17596 7353,17257 9387,16081 9387,17191 Z"/>
      <path fill="rgb(70,70,70)" stroke="none" d="M 8687,17596 L 7353,18367 7353,17596 8687,17596 Z M 9387,16081 L 10232,15593 10232,16703 9387,17191 9387,16081 Z M 9373,17199 L 8711,17582 7353,17582 7353,17257 9373,16089 9373,17199 Z"/>
      <path fill="rgb(71,71,71)" stroke="none" d="M 8711,17582 L 7353,18367 7353,17582 8711,17582 Z M 9373,16089 L 10232,15593 10232,16703 9373,17199 9373,16089 Z M 9359,17208 L 8735,17568 7353,17568 7353,17257 9359,16098 9359,17208 Z"/>
      <path fill="rgb(72,72,72)" stroke="none" d="M 8735,17568 L 7353,18367 7353,17568 8735,17568 Z M 9359,16098 L 10232,15593 10232,16703 9359,17208 9359,16098 Z M 9345,17216 L 8760,17554 7353,17554 7353,17257 9345,16106 9345,17216 Z"/>
      <path fill="rgb(73,73,73)" stroke="none" d="M 8760,17554 L 7353,18367 7353,17554 8760,17554 Z M 9345,16106 L 10232,15593 10232,16703 9345,17216 9345,16106 Z M 9331,17224 L 8784,17540 7353,17540 7353,17257 9331,16114 9331,17224 Z"/>
      <path fill="rgb(74,74,74)" stroke="none" d="M 8784,17540 L 7353,18367 7353,17540 8784,17540 Z M 9331,16114 L 10232,15593 10232,16703 9331,17224 9331,16114 Z M 9316,17232 L 8810,17525 7353,17525 7353,17257 9316,16122 9316,17232 Z"/>
      <path fill="rgb(75,75,75)" stroke="none" d="M 8810,17525 L 7353,18367 7353,17525 8810,17525 Z M 9316,16122 L 10232,15593 10232,16703 9316,17232 9316,16122 Z M 9302,17241 L 8834,17511 7353,17511 7353,17257 9302,16131 9302,17241 Z"/>
      <path fill="rgb(76,76,76)" stroke="none" d="M 8834,17511 L 7353,18367 7353,17511 8834,17511 Z M 9302,16131 L 10232,15593 10232,16703 9302,17241 9302,16131 Z M 9288,17249 L 8858,17497 7353,17497 7353,17257 9288,16139 9288,17249 Z"/>
      <path fill="rgb(77,77,77)" stroke="none" d="M 8858,17497 L 7353,18367 7353,17497 8858,17497 Z M 9288,16139 L 10232,15593 10232,16703 9288,17249 9288,16139 Z M 9274,17257 L 8882,17483 7353,17483 7353,17257 9274,16147 9274,17257 Z"/>
      <path fill="rgb(78,78,78)" stroke="none" d="M 8882,17483 L 7353,18367 7353,17483 8882,17483 Z M 9274,16147 L 10232,15593 10232,16703 9274,17257 9274,16147 Z M 9260,17265 L 8907,17469 7353,17469 7353,17257 9260,16155 9260,17265 Z"/>
      <path fill="rgb(79,79,79)" stroke="none" d="M 8907,17469 L 7353,18367 7353,17469 8907,17469 Z M 9260,16155 L 10232,15593 10232,16703 9260,17265 9260,16155 Z M 9246,17273 L 8931,17455 7353,17455 7353,17257 9246,16163 9246,17273 Z"/>
      <path fill="rgb(80,80,80)" stroke="none" d="M 8931,17455 L 7353,18367 7353,17455 8931,17455 Z M 9246,16163 L 10232,15593 10232,16703 9246,17273 9246,16163 Z M 9232,17281 L 8955,17441 7353,17441 7353,17257 9232,16171 9232,17281 Z"/>
      <path fill="rgb(81,81,81)" stroke="none" d="M 8955,17441 L 7353,18367 7353,17441 8955,17441 Z M 9232,16171 L 10232,15593 10232,16703 9232,17281 9232,16171 Z M 9218,17289 L 8979,17427 7353,17427 7353,17257 9218,16179 9218,17289 Z"/>
      <path fill="rgb(82,82,82)" stroke="none" d="M 8979,17427 L 7353,18367 7353,17427 8979,17427 Z M 9218,16179 L 10232,15593 10232,16703 9218,17289 9218,16179 Z M 9203,17298 L 9005,17412 7353,17412 7353,17257 9203,16188 9203,17298 Z"/>
      <path fill="rgb(83,83,83)" stroke="none" d="M 9005,17412 L 7353,18367 7353,17412 9005,17412 Z M 9203,16188 L 10232,15593 10232,16703 9203,17298 9203,16188 Z M 9189,17306 L 9030,17398 7353,17398 7353,17257 9189,16196 9189,17306 Z"/>
      <path fill="rgb(84,84,84)" stroke="none" d="M 9030,17398 L 7353,18367 7353,17398 9030,17398 Z M 9189,16196 L 10232,15593 10232,16703 9189,17306 9189,16196 Z M 9175,17314 L 9054,17384 7353,17384 7353,17257 9175,16204 9175,17314 Z"/>
      <path fill="rgb(85,85,85)" stroke="none" d="M 9054,17384 L 7353,18367 7353,17384 9054,17384 Z M 9175,16204 L 10232,15593 10232,16703 9175,17314 9175,16204 Z M 9161,17322 L 9078,17370 7353,17370 7353,17257 9161,16212 9161,17322 Z"/>
      <path fill="rgb(86,86,86)" stroke="none" d="M 9078,17370 L 7353,18367 7353,17370 9078,17370 Z M 9161,16212 L 10232,15593 10232,16703 9161,17322 9161,16212 Z M 9147,17330 L 9102,17356 7353,17356 7353,17257 9147,16220 9147,17330 Z"/>
      <path fill="rgb(87,87,87)" stroke="none" d="M 9102,17356 L 7353,18367 7353,17356 9102,17356 Z M 9147,16220 L 10232,15593 10232,16703 9147,17330 9147,16220 Z M 9133,17338 L 9126,17342 7353,17342 7353,17257 9133,16228 9133,17338 Z"/>
      <path fill="rgb(88,88,88)" stroke="none" d="M 9126,17342 L 7353,18367 7353,17342 9126,17342 Z M 9133,16228 L 10232,15593 10232,16703 9133,17338 9133,16228 Z M 9119,17328 L 7353,17328 7353,17257 9119,16236 9119,17328 Z"/>
      <path fill="rgb(89,89,89)" stroke="none" d="M 9119,17328 L 9119,16236 10232,15593 10232,16703 7353,18367 7353,17328 9119,17328 Z M 9105,17314 L 7353,17314 7353,17257 9105,16244 9105,17314 Z"/>
      <path fill="rgb(90,90,90)" stroke="none" d="M 9105,17314 L 9105,16244 10232,15593 10232,16703 7353,18367 7353,17314 9105,17314 Z M 9090,17299 L 7353,17299 7353,17257 9090,16253 9090,17299 Z"/>
      <path fill="rgb(91,91,91)" stroke="none" d="M 9090,17299 L 9090,16253 10232,15593 10232,16703 7353,18367 7353,17299 9090,17299 Z M 9076,17285 L 7354,17285 7354,17256 9076,16261 9076,17285 Z"/>
      <path fill="rgb(92,92,92)" stroke="none" d="M 7354,17285 L 9076,17285 9076,16261 10232,15593 10232,16703 7353,18367 7353,17257 7354,17256 7354,17285 Z M 9062,17271 L 7368,17271 7368,17248 9062,16269 9062,17271 Z"/>
      <path fill="rgb(93,93,93)" stroke="none" d="M 7368,17271 L 9062,17271 9062,16269 10232,15593 10232,16703 7353,18367 7353,17257 7368,17248 7368,17271 Z M 9048,17257 L 7382,17257 7382,17240 9048,16277 9048,17257 Z"/>
      <path fill="rgb(94,94,94)" stroke="none" d="M 7382,17257 L 9048,17257 9048,16277 10232,15593 10232,16703 7353,18367 7353,17257 7382,17240 7382,17257 Z M 9034,17243 L 7396,17243 7396,17232 9034,16285 9034,17243 Z"/>
      <path fill="rgb(95,95,95)" stroke="none" d="M 7396,17243 L 9034,17243 9034,16285 10232,15593 10232,16703 7353,18367 7353,17257 7396,17232 7396,17243 Z M 9020,17229 L 7410,17229 7410,17224 9020,16294 9020,17229 Z"/>
      <path fill="rgb(96,96,96)" stroke="none" d="M 7410,17229 L 9020,17229 9020,16294 10232,15593 10232,16703 7353,18367 7353,17257 7410,17224 7410,17229 Z M 9006,17215 L 7426,17215 9006,16302 9006,17215 Z"/>
      <path fill="rgb(97,97,97)" stroke="none" d="M 9006,17215 L 9006,16302 10232,15593 10232,16703 7353,18367 7353,17257 7426,17215 9006,17215 Z M 8992,17201 L 7450,17201 8992,16310 8992,17201 Z"/>
      <path fill="rgb(98,98,98)" stroke="none" d="M 8992,17201 L 8992,16310 10232,15593 10232,16703 7353,18367 7353,17257 7450,17201 8992,17201 Z M 8977,17186 L 7476,17186 8977,16318 8977,17186 Z"/>
      <path fill="rgb(99,99,99)" stroke="none" d="M 8977,17186 L 8977,16318 10232,15593 10232,16703 7353,18367 7353,17257 7476,17186 8977,17186 Z M 8963,17172 L 7500,17172 8963,16326 8963,17172 Z"/>
      <path fill="rgb(100,100,100)" stroke="none" d="M 8963,17172 L 8963,16326 10232,15593 10232,16703 7353,18367 7353,17257 7500,17172 8963,17172 Z M 8949,17158 L 7524,17158 8949,16335 8949,17158 Z"/>
      <path fill="rgb(101,101,101)" stroke="none" d="M 8949,17158 L 8949,16335 10232,15593 10232,16703 7353,18367 7353,17257 7524,17158 8949,17158 Z M 8935,17144 L 7549,17144 8935,16343 8935,17144 Z"/>
      <path fill="rgb(102,102,102)" stroke="none" d="M 8935,17144 L 8935,16343 10232,15593 10232,16703 7353,18367 7353,17257 7549,17144 8935,17144 Z M 8921,17130 L 7573,17130 8921,16351 8921,17130 Z"/>
      <path fill="rgb(103,103,103)" stroke="none" d="M 8921,17130 L 8921,16351 10232,15593 10232,16703 7353,18367 7353,17257 7573,17130 8921,17130 Z M 8907,17116 L 7597,17116 8907,16359 8907,17116 Z"/>
      <path fill="rgb(104,104,104)" stroke="none" d="M 8907,17116 L 8907,16359 10232,15593 10232,16703 7353,18367 7353,17257 7597,17116 8907,17116 Z M 8893,17102 L 7621,17102 8893,16367 8893,17102 Z"/>
      <path fill="rgb(105,105,105)" stroke="none" d="M 8893,17102 L 8893,16367 10232,15593 10232,16703 7353,18367 7353,17257 7621,17102 8893,17102 Z M 8878,17087 L 7647,17087 8878,16376 8878,17087 Z"/>
      <path fill="rgb(106,106,106)" stroke="none" d="M 8878,17087 L 8878,16376 10232,15593 10232,16703 7353,18367 7353,17257 7647,17087 8878,17087 Z M 8864,17073 L 7671,17073 8864,16384 8864,17073 Z"/>
      <path fill="rgb(107,107,107)" stroke="none" d="M 8864,17073 L 8864,16384 10232,15593 10232,16703 7353,18367 7353,17257 7671,17073 8864,17073 Z M 8850,17059 L 7696,17059 8850,16392 8850,17059 Z"/>
      <path fill="rgb(108,108,108)" stroke="none" d="M 8850,17059 L 8850,16392 10232,15593 10232,16703 7353,18367 7353,17257 7696,17059 8850,17059 Z M 8836,17045 L 7720,17045 8836,16400 8836,17045 Z"/>
      <path fill="rgb(109,109,109)" stroke="none" d="M 8836,17045 L 8836,16400 10232,15593 10232,16703 7353,18367 7353,17257 7720,17045 8836,17045 Z M 8822,17031 L 7744,17031 8822,16408 8822,17031 Z"/>
      <path fill="rgb(110,110,110)" stroke="none" d="M 8822,17031 L 8822,16408 10232,15593 10232,16703 7353,18367 7353,17257 7744,17031 8822,17031 Z M 8808,17017 L 7768,17017 8808,16416 8808,17017 Z"/>
      <path fill="rgb(111,111,111)" stroke="none" d="M 8808,17017 L 8808,16416 10232,15593 10232,16703 7353,18367 7353,17257 7768,17017 8808,17017 Z M 8794,17003 L 7792,17003 8794,16424 8794,17003 Z"/>
      <path fill="rgb(112,112,112)" stroke="none" d="M 8794,17003 L 8794,16424 10232,15593 10232,16703 7353,18367 7353,17257 7792,17003 8794,17003 Z M 8780,16989 L 7817,16989 8780,16432 8780,16989 Z"/>
      <path fill="rgb(113,113,113)" stroke="none" d="M 8780,16989 L 8780,16432 10232,15593 10232,16703 7353,18367 7353,17257 7817,16989 8780,16989 Z M 8765,16974 L 7843,16974 8765,16441 8765,16974 Z"/>
      <path fill="rgb(114,114,114)" stroke="none" d="M 8765,16974 L 8765,16441 10232,15593 10232,16703 7353,18367 7353,17257 7843,16974 8765,16974 Z M 8751,16960 L 7867,16960 8751,16449 8751,16960 Z"/>
      <path fill="rgb(115,115,115)" stroke="none" d="M 8751,16960 L 8751,16449 10232,15593 10232,16703 7353,18367 7353,17257 7867,16960 8751,16960 Z M 8737,16946 L 7891,16946 8737,16457 8737,16946 Z"/>
      <path fill="rgb(116,116,116)" stroke="none" d="M 8737,16946 L 8737,16457 10232,15593 10232,16703 7353,18367 7353,17257 7891,16946 8737,16946 Z M 8723,16932 L 7915,16932 8723,16465 8723,16932 Z"/>
      <path fill="rgb(117,117,117)" stroke="none" d="M 8723,16932 L 8723,16465 10232,15593 10232,16703 7353,18367 7353,17257 7915,16932 8723,16932 Z M 8709,16918 L 7940,16918 8709,16473 8709,16918 Z"/>
      <path fill="rgb(118,118,118)" stroke="none" d="M 8709,16918 L 8709,16473 10232,15593 10232,16703 7353,18367 7353,17257 7940,16918 8709,16918 Z M 8695,16904 L 7964,16904 8695,16481 8695,16904 Z"/>
      <path fill="rgb(119,119,119)" stroke="none" d="M 8695,16904 L 8695,16481 10232,15593 10232,16703 7353,18367 7353,17257 7964,16904 8695,16904 Z M 8681,16890 L 7988,16890 8681,16489 8681,16890 Z"/>
      <path fill="rgb(120,120,120)" stroke="none" d="M 8681,16890 L 8681,16489 10232,15593 10232,16703 7353,18367 7353,17257 7988,16890 8681,16890 Z M 8667,16876 L 8012,16876 8667,16498 8667,16876 Z"/>
      <path fill="rgb(121,121,121)" stroke="none" d="M 8667,16876 L 8667,16498 10232,15593 10232,16703 7353,18367 7353,17257 8012,16876 8667,16876 Z M 8652,16861 L 8038,16861 8652,16506 8652,16861 Z"/>
      <path fill="rgb(122,122,122)" stroke="none" d="M 8652,16861 L 8652,16506 10232,15593 10232,16703 7353,18367 7353,17257 8038,16861 8652,16861 Z M 8638,16847 L 8062,16847 8638,16514 8638,16847 Z"/>
      <path fill="rgb(123,123,123)" stroke="none" d="M 8638,16847 L 8638,16514 10232,15593 10232,16703 7353,18367 7353,17257 8062,16847 8638,16847 Z M 8624,16833 L 8087,16833 8624,16522 8624,16833 Z"/>
      <path fill="rgb(124,124,124)" stroke="none" d="M 8624,16833 L 8624,16522 10232,15593 10232,16703 7353,18367 7353,17257 8087,16833 8624,16833 Z M 8610,16819 L 8111,16819 8610,16530 8610,16819 Z"/>
      <path fill="rgb(125,125,125)" stroke="none" d="M 8610,16819 L 8610,16530 10232,15593 10232,16703 7353,18367 7353,17257 8111,16819 8610,16819 Z M 8596,16805 L 8135,16805 8596,16539 8596,16805 Z"/>
      <path fill="rgb(126,126,126)" stroke="none" d="M 8596,16805 L 8596,16539 10232,15593 10232,16703 7353,18367 7353,17257 8135,16805 8596,16805 Z M 8582,16791 L 8159,16791 8582,16547 8582,16791 Z"/>
      <path fill="rgb(127,127,127)" stroke="none" d="M 8582,16791 L 8582,16547 10232,15593 10232,16703 7353,18367 7353,17257 8159,16791 8582,16791 Z M 8568,16777 L 8183,16777 8568,16555 8568,16777 Z"/>
      <path fill="rgb(128,128,128)" stroke="none" d="M 8568,16777 L 8568,16555 10232,15593 10232,16703 7353,18367 7353,17257 8183,16777 8568,16777 Z M 8554,16763 L 8208,16763 8554,16563 8554,16763 Z"/>
      <path fill="rgb(129,129,129)" stroke="none" d="M 8554,16763 L 8554,16563 10232,15593 10232,16703 7353,18367 7353,17257 8208,16763 8554,16763 Z M 8539,16748 L 8234,16748 8539,16572 8539,16748 Z"/>
      <path fill="rgb(130,130,130)" stroke="none" d="M 8539,16748 L 8539,16572 10232,15593 10232,16703 7353,18367 7353,17257 8234,16748 8539,16748 Z M 8525,16734 L 8258,16734 8525,16580 8525,16734 Z"/>
      <path fill="rgb(131,131,131)" stroke="none" d="M 8525,16734 L 8525,16580 10232,15593 10232,16703 7353,18367 7353,17257 8258,16734 8525,16734 Z M 8511,16720 L 8282,16720 8511,16588 8511,16720 Z"/>
      <path fill="rgb(132,132,132)" stroke="none" d="M 8511,16720 L 8511,16588 10232,15593 10232,16703 7353,18367 7353,17257 8282,16720 8511,16720 Z M 8497,16706 L 8306,16706 8497,16596 8497,16706 Z"/>
      <path fill="rgb(133,133,133)" stroke="none" d="M 8497,16706 L 8497,16596 10232,15593 10232,16703 7353,18367 7353,17257 8306,16706 8497,16706 Z M 8483,16692 L 8331,16692 8483,16604 8483,16692 Z"/>
      <path fill="rgb(134,134,134)" stroke="none" d="M 8483,16692 L 8483,16604 10232,15593 10232,16703 7353,18367 7353,17257 8331,16692 8483,16692 Z M 8469,16678 L 8355,16678 8469,16612 8469,16678 Z"/>
      <path fill="rgb(135,135,135)" stroke="none" d="M 8469,16678 L 8469,16612 10232,15593 10232,16703 7353,18367 7353,17257 8355,16678 8469,16678 Z M 8455,16664 L 8379,16664 8455,16620 8455,16664 Z"/>
      <path fill="rgb(136,136,136)" stroke="none" d="M 8455,16664 L 8455,16620 10232,15593 10232,16703 7353,18367 7353,17257 8379,16664 8455,16664 Z M 8441,16650 L 8403,16650 8441,16628 8441,16650 Z"/>
      <path fill="rgb(137,137,137)" stroke="none" d="M 8441,16650 L 8441,16628 10232,15593 10232,16703 7353,18367 7353,17257 8403,16650 8441,16650 Z"/>
      <path fill="rgb(138,138,138)" stroke="none" d="M 7353,18367 L 7353,17257 10232,15593 10232,16703 7353,18367 Z"/>
      <path fill="rgb(139,139,139)" stroke="none" d="M 7353,18367 L 7353,17257 10232,15593 10232,16703 7353,18367 Z"/>
      <path fill="rgb(140,140,140)" stroke="none" d="M 7353,18367 L 7353,17257 10232,15593 10232,16703 7353,18367 Z"/>
      <path fill="rgb(141,141,141)" stroke="none" d="M 7353,18367 L 7353,17257 10232,15593 10232,16703 7353,18367 Z"/>
      <path fill="rgb(142,142,142)" stroke="none" d="M 7353,18367 L 7353,17257 10232,15593 10232,16703 7353,18367 Z"/>
      <path fill="rgb(143,143,143)" stroke="none" d="M 7353,18367 L 7353,17257 10232,15593 10232,16703 7353,18367 Z"/>
      <path fill="rgb(144,144,144)" stroke="none" d="M 7353,18367 L 7353,17257 10232,15593 10232,16703 7353,18367 Z"/>
      <path fill="rgb(145,145,145)" stroke="none" d="M 7353,18367 L 7353,17257 10232,15593 10232,16703 7353,18367 Z"/>
      <path fill="rgb(146,146,146)" stroke="none" d="M 7353,18367 L 7353,17257 10232,15593 10232,16703 7353,18367 Z"/>
      <path fill="rgb(147,147,147)" stroke="none" d="M 7353,18367 L 7353,17257 10232,15593 10232,16703 7353,18367 Z"/>
      <path fill="rgb(148,148,148)" stroke="none" d="M 7353,18367 L 7353,17257 10232,15593 10232,16703 7353,18367 Z"/>
      <path fill="rgb(149,149,149)" stroke="none" d="M 7353,18367 L 7353,17257 10232,15593 10232,16703 7353,18367 Z"/>
      <path fill="rgb(150,150,150)" stroke="none" d="M 7353,18367 L 7353,17257 10232,15593 10232,16703 7353,18367 Z"/>
      <path fill="rgb(151,151,151)" stroke="none" d="M 7353,18367 L 7353,17257 10232,15593 10232,16703 7353,18367 Z"/>
      <path fill="rgb(153,153,153)" stroke="none" d="M 7353,18367 L 7353,17257 10232,15593 10232,16703 7353,18367 Z"/>
      <path fill="none" stroke="rgb(178,178,178)" id="Drawing_3_0" stroke-width="40" stroke-linejoin="round" d="M 7353,18367 L 7353,17257 10232,15593 10232,16703 7353,18367 Z"/>
     </g>
     <g>
      <defs>
       <linearGradient id="Gradient_1004" gradientUnits="userSpaceOnUse" x1="7113" y1="13651" x2="7113" y2="17257">
        <stop offset="0.1" stop-color="rgb(51,51,51)"/>
        <stop offset="1" stop-color="rgb(153,153,153)"/>
       </linearGradient>
      </defs>
      <path fill="url(#Gradient_1004)" stroke="rgb(178,178,178)" id="Drawing_4_0" stroke-width="40" stroke-linejoin="round" d="M 7353,17257 L 3994,15315 6873,13651 10233,15593 7353,17257 Z"/>
     </g>
     <g>
      <path fill="none" stroke="rgb(153,153,153)" id="Drawing_5_0" stroke-width="40" stroke-linejoin="round" d="M 5146,16203 L 5146,16869"/>
     </g>
     <g>
      <path fill="none" stroke="rgb(178,178,178)" id="Drawing_6_0" stroke-width="40" stroke-linejoin="round" d="M 7258,17624 L 5722,16736"/>
     </g>
     <g>
      <path fill="none" stroke="rgb(178,178,178)" id="Drawing_7_0" stroke-width="40" stroke-linejoin="round" d="M 5713,16536 L 5713,16758"/>
     </g>
     <g>
      <path fill="none" stroke="rgb(102,102,102)" id="Drawing_8_0" stroke-width="40" stroke-linejoin="round" d="M 7249,17424 L 7249,17646"/>
     </g>
     <g>
      <path fill="none" stroke="rgb(102,102,102)" id="Drawing_9_0" stroke-width="40" stroke-linejoin="round" d="M 7249,17424 L 5713,16536"/>
     </g>
     <g>
      <path fill="rgb(57,181,74)" stroke="none" d="M 5338,16536 L 5338,16314 5530,16425 5530,16647 5338,16536 Z"/>
      <path fill="none" stroke="rgb(102,102,102)" id="Drawing_10_0" stroke-width="40" stroke-linejoin="round" d="M 5338,16536 L 5338,16314 5530,16425 5530,16647 5338,16536 Z"/>
     </g>
     <g>
      <path fill="none" stroke="rgb(153,153,153)" id="Drawing_11_0" stroke-width="40" stroke-linejoin="round" d="M 4954,16092 L 4954,16758"/>
     </g>
     <g>
      <path fill="none" stroke="rgb(153,153,153)" id="Drawing_12_0" stroke-width="40" stroke-linejoin="round" d="M 4762,15981 L 4762,16647"/>
     </g>
     <g>
      <path fill="none" stroke="rgb(153,153,153)" id="Drawing_13_0" stroke-width="40" stroke-linejoin="round" d="M 4570,15870 L 4570,16536"/>
     </g>
     <g>
      <path fill="none" stroke="rgb(153,153,153)" id="Drawing_14_0" stroke-width="40" stroke-linejoin="round" d="M 4378,15759 L 4378,16425"/>
     </g>
     <g>
      <path fill="none" stroke="rgb(153,153,153)" id="Drawing_15_0" stroke-width="40" stroke-linejoin="round" d="M 4186,15648 L 4186,16314"/>
     </g>
     <g>
      <defs>
       <linearGradient id="Gradient_1005" gradientUnits="userSpaceOnUse" x1="3801" y1="15814" x2="3995" y2="15814">
        <stop offset="0.1" stop-color="rgb(51,51,51)"/>
        <stop offset="1" stop-color="rgb(153,153,153)"/>
       </linearGradient>
      </defs>
      <path fill="url(#Gradient_1005)" stroke="rgb(178,178,178)" id="Drawing_16_0" stroke-width="40" stroke-linejoin="round" d="M 3802,16314 L 3802,15204 3994,15315 3994,16425 3802,16314 Z"/>
     </g>
     <g>
      <defs>
       <linearGradient id="Gradient_1006" gradientUnits="userSpaceOnUse" x1="7352" y1="17867" x2="7546" y2="17867">
        <stop offset="0.1" stop-color="rgb(51,51,51)"/>
        <stop offset="1" stop-color="rgb(153,153,153)"/>
       </linearGradient>
      </defs>
      <path fill="url(#Gradient_1006)" stroke="rgb(178,178,178)" id="Drawing_17_0" stroke-width="40" stroke-linejoin="round" d="M 7353,18367 L 7353,17257 7545,17368 7545,18478 7353,18367 Z"/>
     </g>
     <g>
      <path fill="none" stroke="rgb(0,0,0)" id="Drawing_18_0" stroke-width="40" stroke-linejoin="round" d="M 3802,16314 L 3802,15204 3994,15315 6873,13651 10233,15593 10233,16702 7545,18256 7545,18478 3802,16314 Z"/>
     </g>
    </g>
   </g>
   <g id="DrawingGroup_4">
    <g>
     <defs>
      <linearGradient id="Gradient_1007" gradientUnits="userSpaceOnUse" x1="9115" y1="17284" x2="9943" y2="17286">
       <stop offset="0.1" stop-color="rgb(179,179,179)"/>
       <stop offset="1" stop-color="rgb(229,229,229)"/>
      </linearGradient>
     </defs>
     <path fill="url(#Gradient_1007)" stroke="rgb(255,255,255)" id="Drawing_19_0" stroke-width="40" stroke-linejoin="round" d="M 9116,17524 L 9116,16569 9942,17046 9942,18001 9116,17524 Z"/>
    </g>
    <g>
     <defs>
      <linearGradient id="Gradient_1008" gradientUnits="userSpaceOnUse" x1="9117" y1="17286" x2="8289" y2="17284">
       <stop offset="0.1" stop-color="rgb(179,179,179)"/>
       <stop offset="1" stop-color="rgb(229,229,229)"/>
      </linearGradient>
     </defs>
     <path fill="url(#Gradient_1008)" stroke="rgb(255,255,255)" id="Drawing_20_0" stroke-width="40" stroke-linejoin="round" d="M 8290,18001 L 8290,17046 9116,16569 9116,17524 8290,18001 Z"/>
    </g>
    <g>
     <defs>
      <linearGradient id="Gradient_1009" gradientUnits="userSpaceOnUse" x1="9115" y1="17523" x2="9115" y2="18478">
       <stop offset="0.1" stop-color="rgb(179,179,179)"/>
       <stop offset="1" stop-color="rgb(229,229,229)"/>
      </linearGradient>
     </defs>
     <path fill="url(#Gradient_1009)" stroke="rgb(255,255,255)" id="Drawing_21_0" stroke-width="40" stroke-linejoin="round" d="M 9116,18478 L 8290,18000 9116,17523 9941,18000 9116,18478 Z"/>
    </g>
    <g>
     <path fill="none" stroke="rgb(255,255,255)" id="Drawing_22_0" stroke-width="40" stroke-linejoin="round" d="M 8373,17953 L 9199,18430"/>
    </g>
    <g>
     <path fill="none" stroke="rgb(255,255,255)" id="Drawing_23_0" stroke-width="40" stroke-linejoin="round" d="M 8455,17905 L 9281,18382"/>
    </g>
    <g>
     <path fill="none" stroke="rgb(255,255,255)" id="Drawing_24_0" stroke-width="40" stroke-linejoin="round" d="M 8538,17858 L 9364,18335"/>
    </g>
    <g>
     <path fill="none" stroke="rgb(255,255,255)" id="Drawing_25_0" stroke-width="40" stroke-linejoin="round" d="M 8620,17810 L 9446,18287"/>
    </g>
    <g>
     <path fill="none" stroke="rgb(255,255,255)" id="Drawing_26_0" stroke-width="40" stroke-linejoin="round" d="M 8703,17762 L 9529,18239"/>
    </g>
    <g>
     <path fill="none" stroke="rgb(255,255,255)" id="Drawing_27_0" stroke-width="40" stroke-linejoin="round" d="M 8786,17714 L 9612,18191"/>
    </g>
    <g>
     <path fill="none" stroke="rgb(255,255,255)" id="Drawing_28_0" stroke-width="40" stroke-linejoin="round" d="M 8868,17667 L 9694,18144"/>
    </g>
    <g>
     <path fill="none" stroke="rgb(255,255,255)" id="Drawing_29_0" stroke-width="40" stroke-linejoin="round" d="M 8951,17619 L 9777,18096"/>
    </g>
    <g>
     <path fill="none" stroke="rgb(255,255,255)" id="Drawing_30_0" stroke-width="40" stroke-linejoin="round" d="M 9033,17571 L 9859,18048"/>
    </g>
    <g>
     <path fill="none" stroke="rgb(255,255,255)" id="Drawing_31_0" stroke-width="40" stroke-linejoin="round" d="M 9116,17333 L 9942,17810"/>
    </g>
    <g>
     <path fill="none" stroke="rgb(255,255,255)" id="Drawing_32_0" stroke-width="40" stroke-linejoin="round" d="M 9116,17237 L 9942,17714"/>
    </g>
    <g>
     <path fill="none" stroke="rgb(255,255,255)" id="Drawing_33_0" stroke-width="40" stroke-linejoin="round" d="M 9116,17142 L 9942,17619"/>
    </g>
    <g>
     <path fill="none" stroke="rgb(255,255,255)" id="Drawing_34_0" stroke-width="40" stroke-linejoin="round" d="M 9116,17046 L 9942,17523"/>
    </g>
    <g>
     <path fill="none" stroke="rgb(255,255,255)" id="Drawing_35_0" stroke-width="40" stroke-linejoin="round" d="M 9116,16951 L 9942,17428"/>
    </g>
    <g>
     <path fill="none" stroke="rgb(255,255,255)" id="Drawing_36_0" stroke-width="40" stroke-linejoin="round" d="M 9116,16855 L 9942,17332"/>
    </g>
    <g>
     <path fill="none" stroke="rgb(255,255,255)" id="Drawing_37_0" stroke-width="40" stroke-linejoin="round" d="M 9116,16760 L 9942,17237"/>
    </g>
    <g>
     <path fill="none" stroke="rgb(255,255,255)" id="Drawing_38_0" stroke-width="40" stroke-linejoin="round" d="M 9116,16664 L 9942,17141"/>
    </g>
    <g>
     <path fill="none" stroke="rgb(255,255,255)" id="Drawing_39_0" stroke-width="40" stroke-linejoin="round" d="M 9033,18430 L 9859,17953"/>
    </g>
    <g>
     <path fill="none" stroke="rgb(255,255,255)" id="Drawing_40_0" stroke-width="40" stroke-linejoin="round" d="M 8951,18382 L 9777,17905"/>
    </g>
    <g>
     <path fill="none" stroke="rgb(255,255,255)" id="Drawing_41_0" stroke-width="40" stroke-linejoin="round" d="M 8868,18335 L 9694,17858"/>
    </g>
    <g>
     <path fill="none" stroke="rgb(255,255,255)" id="Drawing_42_0" stroke-width="40" stroke-linejoin="round" d="M 8786,18287 L 9612,17810"/>
    </g>
    <g>
     <path fill="none" stroke="rgb(255,255,255)" id="Drawing_43_0" stroke-width="40" stroke-linejoin="round" d="M 8703,18239 L 9529,17762"/>
    </g>
    <g>
     <path fill="none" stroke="rgb(255,255,255)" id="Drawing_44_0" stroke-width="40" stroke-linejoin="round" d="M 8620,18191 L 9446,17714"/>
    </g>
    <g>
     <path fill="none" stroke="rgb(255,255,255)" id="Drawing_45_0" stroke-width="40" stroke-linejoin="round" d="M 8538,18144 L 9364,17667"/>
    </g>
    <g>
     <path fill="none" stroke="rgb(255,255,255)" id="Drawing_46_0" stroke-width="40" stroke-linejoin="round" d="M 8455,18096 L 9281,17619"/>
    </g>
    <g>
     <path fill="none" stroke="rgb(255,255,255)" id="Drawing_47_0" stroke-width="40" stroke-linejoin="round" d="M 8373,18048 L 9199,17571"/>
    </g>
    <g>
     <path fill="none" stroke="rgb(255,255,255)" id="Drawing_48_0" stroke-width="40" stroke-linejoin="round" d="M 8290,17905 L 9116,17428"/>
    </g>
    <g>
     <path fill="none" stroke="rgb(255,255,255)" id="Drawing_49_0" stroke-width="40" stroke-linejoin="round" d="M 8290,17810 L 9116,17333"/>
    </g>
    <g>
     <path fill="none" stroke="rgb(255,255,255)" id="Drawing_50_0" stroke-width="40" stroke-linejoin="round" d="M 8290,17714 L 9116,17237"/>
    </g>
    <g>
     <path fill="none" stroke="rgb(255,255,255)" id="Drawing_51_0" stroke-width="40" stroke-linejoin="round" d="M 8290,17619 L 9116,17142"/>
    </g>
    <g>
     <path fill="none" stroke="rgb(255,255,255)" id="Drawing_52_0" stroke-width="40" stroke-linejoin="round" d="M 8290,17523 L 9116,17046"/>
    </g>
    <g>
     <path fill="none" stroke="rgb(255,255,255)" id="Drawing_53_0" stroke-width="40" stroke-linejoin="round" d="M 8290,17428 L 9116,16951"/>
    </g>
    <g>
     <path fill="none" stroke="rgb(255,255,255)" id="Drawing_54_0" stroke-width="40" stroke-linejoin="round" d="M 8290,17332 L 9116,16855"/>
    </g>
    <g>
     <path fill="none" stroke="rgb(255,255,255)" id="Drawing_55_0" stroke-width="40" stroke-linejoin="round" d="M 8290,17237 L 9116,16760"/>
    </g>
    <g>
     <path fill="none" stroke="rgb(255,255,255)" id="Drawing_56_0" stroke-width="40" stroke-linejoin="round" d="M 8290,17141 L 9116,16664"/>
    </g>
    <g>
     <path fill="none" stroke="rgb(255,255,255)" id="Drawing_57_0" stroke-width="40" stroke-linejoin="round" d="M 8373,17953 L 8373,16998"/>
    </g>
    <g>
     <path fill="none" stroke="rgb(255,255,255)" id="Drawing_58_0" stroke-width="40" stroke-linejoin="round" d="M 8455,17906 L 8455,16951"/>
    </g>
    <g>
     <path fill="none" stroke="rgb(255,255,255)" id="Drawing_59_0" stroke-width="40" stroke-linejoin="round" d="M 8538,17858 L 8538,16903"/>
    </g>
    <g>
     <path fill="none" stroke="rgb(255,255,255)" id="Drawing_60_0" stroke-width="40" stroke-linejoin="round" d="M 8620,17810 L 8620,16855"/>
    </g>
    <g>
     <path fill="none" stroke="rgb(255,255,255)" id="Drawing_61_0" stroke-width="40" stroke-linejoin="round" d="M 8703,17763 L 8703,16808"/>
    </g>
    <g>
     <path fill="none" stroke="rgb(255,255,255)" id="Drawing_62_0" stroke-width="40" stroke-linejoin="round" d="M 8786,17715 L 8786,16760"/>
    </g>
    <g>
     <path fill="none" stroke="rgb(255,255,255)" id="Drawing_63_0" stroke-width="40" stroke-linejoin="round" d="M 8868,17667 L 8868,16712"/>
    </g>
    <g>
     <path fill="none" stroke="rgb(255,255,255)" id="Drawing_64_0" stroke-width="40" stroke-linejoin="round" d="M 8951,17619 L 8951,16664"/>
    </g>
    <g>
     <path fill="none" stroke="rgb(255,255,255)" id="Drawing_65_0" stroke-width="40" stroke-linejoin="round" d="M 9033,17572 L 9033,16617"/>
    </g>
    <g>
     <path fill="none" stroke="rgb(255,255,255)" id="Drawing_66_0" stroke-width="40" stroke-linejoin="round" d="M 9198,17572 L 9198,16617"/>
    </g>
    <g>
     <path fill="none" stroke="rgb(255,255,255)" id="Drawing_67_0" stroke-width="40" stroke-linejoin="round" d="M 9281,17619 L 9281,16664"/>
    </g>
    <g>
     <path fill="none" stroke="rgb(255,255,255)" id="Drawing_68_0" stroke-width="40" stroke-linejoin="round" d="M 9364,17667 L 9364,16712"/>
    </g>
    <g>
     <path fill="none" stroke="rgb(255,255,255)" id="Drawing_69_0" stroke-width="40" stroke-linejoin="round" d="M 9446,17715 L 9446,16760"/>
    </g>
    <g>
     <path fill="none" stroke="rgb(255,255,255)" id="Drawing_70_0" stroke-width="40" stroke-linejoin="round" d="M 9529,17763 L 9529,16808"/>
    </g>
    <g>
     <path fill="none" stroke="rgb(255,255,255)" id="Drawing_71_0" stroke-width="40" stroke-linejoin="round" d="M 9611,17810 L 9611,16855"/>
    </g>
    <g>
     <path fill="none" stroke="rgb(255,255,255)" id="Drawing_72_0" stroke-width="40" stroke-linejoin="round" d="M 9694,17858 L 9694,16903"/>
    </g>
    <g>
     <path fill="none" stroke="rgb(255,255,255)" id="Drawing_73_0" stroke-width="40" stroke-linejoin="round" d="M 9776,17906 L 9776,16951"/>
    </g>
    <g>
     <path fill="none" stroke="rgb(255,255,255)" id="Drawing_74_0" stroke-width="40" stroke-linejoin="round" d="M 9859,17953 L 9859,16998"/>
    </g>
    <g>
     <path fill="none" stroke="rgb(0,0,0)" id="Drawing_75_0" stroke-width="40" stroke-linejoin="round" d="M 8290,18001 L 8290,17046 9116,16569 9941,17046 9941,18001 9116,18478 8290,18001 Z"/>
    </g>
    <g>
     <path fill="none" stroke="rgb(255,255,255)" id="Drawing_76_0" stroke-width="40" stroke-linejoin="round" d="M 9116,17428 L 9942,17905"/>
    </g>
    <g id="DrawingGroup_5">
     <g>
      <path fill="none" stroke="rgb(255,0,0)" id="Drawing_77_0" stroke-width="40" stroke-linejoin="round" d="M 9116,17523 L 10107,18096"/>
     </g>
     <g>
      <path fill="rgb(255,0,0)" stroke="none" d="M 9942,18096 L 10025,18048 10025,17953 10107,18096 9942,18096 Z"/>
      <path fill="none" stroke="rgb(255,0,0)" id="Drawing_78_0" stroke-width="40" stroke-linejoin="round" d="M 9942,18096 L 10025,18048 10025,17953 10107,18096 9942,18096 Z"/>
     </g>
    </g>
    <g id="DrawingGroup_6">
     <g>
      <path fill="none" stroke="rgb(0,0,255)" id="Drawing_79_0" stroke-width="40" stroke-linejoin="round" d="M 9116,16378 L 9116,17523"/>
     </g>
     <g>
      <path fill="rgb(0,0,255)" stroke="none" d="M 9116,16473 L 9033,16521 9116,16378 9198,16521 9116,16473 Z"/>
      <path fill="none" stroke="rgb(0,0,255)" id="Drawing_80_0" stroke-width="40" stroke-linejoin="round" d="M 9116,16473 L 9033,16521 9116,16378 9198,16521 9116,16473 Z"/>
     </g>
    </g>
    <g id="DrawingGroup_7">
     <g>
      <path fill="none" stroke="rgb(0,128,0)" id="Drawing_81_0" stroke-width="40" stroke-linejoin="round" d="M 9116,17523 L 8125,18096"/>
     </g>
     <g>
      <path fill="rgb(0,128,0)" stroke="none" d="M 8125,18096 L 8208,17953 8208,18048 8290,18096 8125,18096 Z"/>
      <path fill="none" stroke="rgb(0,128,0)" id="Drawing_82_0" stroke-width="40" stroke-linejoin="round" d="M 8125,18096 L 8208,17953 8208,18048 8290,18096 8125,18096 Z"/>
     </g>
    </g>
    <g>
     <defs>
      <linearGradient id="Gradient_1010" gradientUnits="userSpaceOnUse" x1="8701" y1="17570" x2="9530" y2="17572">
       <stop offset="0" stop-color="rgb(251,201,142)"/>
       <stop offset="0.5" stop-color="rgb(254,244,232)"/>
       <stop offset="1" stop-color="rgb(251,201,142)"/>
      </linearGradient>
     </defs>
     <path fill="url(#Gradient_1010)" stroke="none" id="Drawing_83_0" d="M 9116,16998 L 9074,16999 9033,17002 8994,17008 8956,17015 8920,17024 8886,17035 8854,17048 8825,17062 8798,17077 8774,17094 8753,17112 8736,17130 8722,17150 8716,17160 8711,17171 8708,17181 8705,17192 8704,17203 8703,17214 8703,17928 8704,17939 8705,17950 8708,17961 8711,17971 8716,17982 8722,17992 8736,18012 8753,18031 8774,18049 8798,18065 8825,18081 8854,18095 8886,18107 8920,18118 8956,18128 8994,18135 9033,18141 9074,18144 9116,18145 9158,18144 9199,18141 9238,18135 9276,18128 9312,18118 9346,18107 9378,18095 9408,18081 9435,18065 9459,18049 9479,18031 9497,18012 9511,17992 9517,17982 9521,17971 9525,17961 9528,17950 9529,17939 9530,17928 9530,17214 9529,17203 9528,17192 9525,17181 9521,17171 9517,17160 9511,17150 9497,17130 9479,17112 9459,17094 9435,17077 9408,17062 9378,17048 9346,17035 9312,17024 9276,17015 9238,17008 9199,17002 9158,16999 9116,16998 Z"/>
     <path fill="none" stroke="rgb(128,128,128)" id="Drawing_83_1" stroke-width="40" stroke-linejoin="round" d="M 9116,16998 C 8890,16998 8703,17096 8703,17214 L 8703,17928 C 8703,18046 8890,18145 9116,18145 9342,18145 9530,18046 9530,17928 L 9530,17214 C 9530,17096 9342,16998 9116,16998 L 9116,16998 Z"/>
     <defs>
      <linearGradient id="Gradient_1011" gradientUnits="userSpaceOnUse" x1="8702" y1="17213" x2="9529" y2="17215">
       <stop offset="0" stop-color="rgb(253,222,187)"/>
       <stop offset="0.5" stop-color="rgb(254,248,241)"/>
       <stop offset="1" stop-color="rgb(253,222,187)"/>
      </linearGradient>
     </defs>
     <path fill="url(#Gradient_1011)" stroke="none" id="Drawing_83_2" d="M 9116,16998 L 9074,16999 9033,17002 8994,17008 8956,17015 8920,17024 8886,17035 8854,17048 8825,17062 8798,17077 8774,17094 8753,17112 8736,17130 8722,17150 8716,17160 8711,17171 8708,17181 8705,17192 8704,17203 8703,17214 8704,17225 8705,17236 8708,17247 8711,17257 8716,17268 8722,17278 8736,17298 8753,17316 8774,17334 8798,17351 8825,17366 8854,17380 8886,17393 8920,17404 8956,17413 8994,17420 9033,17426 9074,17429 9116,17430 9158,17429 9199,17426 9238,17420 9276,17413 9312,17404 9346,17393 9378,17380 9408,17366 9435,17351 9459,17334 9479,17316 9497,17298 9511,17278 9517,17268 9521,17257 9525,17247 9528,17236 9529,17225 9530,17214 9529,17203 9528,17192 9525,17181 9521,17171 9517,17160 9511,17150 9497,17130 9479,17112 9459,17094 9435,17077 9408,17062 9378,17048 9346,17035 9312,17024 9276,17015 9238,17008 9199,17002 9158,16999 9116,16998 Z"/>
     <path fill="none" stroke="rgb(128,128,128)" id="Drawing_83_3" stroke-width="40" stroke-linejoin="round" d="M 9116,16998 C 8890,16998 8703,17096 8703,17214 8703,17332 8890,17430 9116,17430 9342,17430 9530,17332 9530,17214 9530,17096 9342,16998 9116,16998 L 9116,16998 Z"/>
     <rect fill="none" stroke="none" x="8703" y="16998" width="827" height="1147"/>
    </g>
   </g>
  </g>
 </g>
</svg>