<?xml version="1.0" encoding="UTF-8"?>

<svg version="1.2" baseProfile="tiny" width="69.31mm" height="48.67mm" viewBox="3934 4446 6931 4867" preserveAspectRatio="xMidYMid" fill-rule="evenodd" stroke-width="28.222" stroke-linejoin="round" xmlns="http://www.w3.org/2000/svg" xmlns:xlink="http://www.w3.org/1999/xlink" xml:space="preserve">
 <g visibility="visible" id="Slide_1">
  <g id="DrawingGroup_1">
   <g id="DrawingGroup_2">
    <g>
     <path fill="rgb(221,221,221)" stroke="none" d="M 7698,9293 C 7961,9293 10865,8017 10865,7628 10865,7240 10457,7240 10193,7240 10193,7406 7602,8072 7698,9293 Z"/>
     <path fill="none" stroke="rgb(221,221,221)" id="Drawing_1_0" stroke-linejoin="round" d="M 7698,9293 C 7961,9293 10865,8017 10865,7628 10865,7240 10457,7240 10193,7240 10193,7406 7602,8072 7698,9293 Z"/>
    </g>
    <g id="DrawingGroup_3">
     <g>
      <defs>
       <linearGradient id="Gradient_1033" gradientUnits="userSpaceOnUse" x1="4142" y1="7652" x2="7507" y2="7658">
        <stop offset="0.1" stop-color="rgb(179,179,179)"/>
        <stop offset="1" stop-color="rgb(229,229,229)"/>
       </linearGradient>
      </defs>
      <path fill="url(#Gradient_1033)" stroke="rgb(255,255,255)" id="Drawing_2_0" stroke-width="40" stroke-linejoin="round" d="M 4146,7240 L 4146,6130 7505,8072 7505,9181 4146,7240 Z"/>
     </g>
     <g>
      <path fill="rgb(179,179,179)" stroke="none" d="M 9779,7868 L 8424,8651 7505,8651 7505,8072 9779,6758 9779,7868 Z"/>
      <path fill="rgb(180,180,180)" stroke="none" d="M 8424,8651 L 7505,9182 7505,8651 8424,8651 Z M 9779,6758 L 10384,6408 10384,7518 9779,7868 9779,6758 Z M 9750,7884 L 8474,8622 7505,8622 7505,8072 9750,6774 9750,7884 Z"/>
      <path fill="rgb(181,181,181)" stroke="none" d="M 8474,8622 L 7505,9182 7505,8622 8474,8622 Z M 9750,6774 L 10384,6408 10384,7518 9750,7884 9750,6774 Z M 9721,7901 L 8524,8593 7505,8593 7505,8072 9721,6791 9721,7901 Z"/>
      <path fill="rgb(182,182,182)" stroke="none" d="M 8524,8593 L 7505,9182 7505,8593 8524,8593 Z M 9721,6791 L 10384,6408 10384,7518 9721,7901 9721,6791 Z M 9692,7918 L 8574,8564 7505,8564 7505,8072 9692,6808 9692,7918 Z"/>
      <path fill="rgb(183,183,183)" stroke="none" d="M 8574,8564 L 7505,9182 7505,8564 8574,8564 Z M 9692,6808 L 10384,6408 10384,7518 9692,7918 9692,6808 Z M 9663,7935 L 8624,8535 7505,8535 7505,8072 9663,6825 9663,7935 Z"/>
      <path fill="rgb(184,184,184)" stroke="none" d="M 8624,8535 L 7505,9182 7505,8535 8624,8535 Z M 9663,6825 L 10384,6408 10384,7518 9663,7935 9663,6825 Z M 9635,7951 L 8673,8507 7505,8507 7505,8072 9635,6841 9635,7951 Z"/>
      <path fill="rgb(185,185,185)" stroke="none" d="M 8673,8507 L 7505,9182 7505,8507 8673,8507 Z M 9635,6841 L 10384,6408 10384,7518 9635,7951 9635,6841 Z M 9606,7968 L 8723,8478 7505,8478 7505,8072 9606,6858 9606,7968 Z"/>
      <path fill="rgb(186,186,186)" stroke="none" d="M 8723,8478 L 7505,9182 7505,8478 8723,8478 Z M 9606,6858 L 10384,6408 10384,7518 9606,7968 9606,6858 Z M 9577,7984 L 8773,8449 7505,8449 7505,8072 9577,6874 9577,7984 Z"/>
      <path fill="rgb(187,187,187)" stroke="none" d="M 8773,8449 L 7505,9182 7505,8449 8773,8449 Z M 9577,6874 L 10384,6408 10384,7518 9577,7984 9577,6874 Z M 9548,8001 L 8823,8420 7505,8420 7505,8072 9548,6891 9548,8001 Z"/>
      <path fill="rgb(188,188,188)" stroke="none" d="M 8823,8420 L 7505,9182 7505,8420 8823,8420 Z M 9548,6891 L 10384,6408 10384,7518 9548,8001 9548,6891 Z M 9519,8018 L 8874,8391 7505,8391 7505,8072 9519,6908 9519,8018 Z"/>
      <path fill="rgb(189,189,189)" stroke="none" d="M 8874,8391 L 7505,9182 7505,8391 8874,8391 Z M 9519,6908 L 10384,6408 10384,7518 9519,8018 9519,6908 Z M 9490,8035 L 8924,8362 7505,8362 7505,8072 9490,6925 9490,8035 Z"/>
      <path fill="rgb(190,190,190)" stroke="none" d="M 8924,8362 L 7505,9182 7505,8362 8924,8362 Z M 9490,6925 L 10384,6408 10384,7518 9490,8035 9490,6925 Z M 9462,8051 L 8972,8334 7505,8334 7505,8072 9462,6941 9462,8051 Z"/>
      <path fill="rgb(191,191,191)" stroke="none" d="M 8972,8334 L 7505,9182 7505,8334 8972,8334 Z M 9462,6941 L 10384,6408 10384,7518 9462,8051 9462,6941 Z M 9433,8068 L 9022,8305 7505,8305 7505,8072 9433,6958 9433,8068 Z"/>
      <path fill="rgb(192,192,192)" stroke="none" d="M 9022,8305 L 7505,9182 7505,8305 9022,8305 Z M 9433,6958 L 10384,6408 10384,7518 9433,8068 9433,6958 Z M 9404,8084 L 9073,8276 7505,8276 7505,8072 9404,6974 9404,8084 Z"/>
      <path fill="rgb(193,193,193)" stroke="none" d="M 9073,8276 L 7505,9182 7505,8276 9073,8276 Z M 9404,6974 L 10384,6408 10384,7518 9404,8084 9404,6974 Z M 9375,8101 L 9123,8247 7505,8247 7505,8072 9375,6991 9375,8101 Z"/>
      <path fill="rgb(194,194,194)" stroke="none" d="M 9123,8247 L 7505,9182 7505,8247 9123,8247 Z M 9375,6991 L 10384,6408 10384,7518 9375,8101 9375,6991 Z M 9346,8118 L 9173,8218 7505,8218 7505,8072 9346,7008 9346,8118 Z"/>
      <path fill="rgb(195,195,195)" stroke="none" d="M 9173,8218 L 7505,9182 7505,8218 9173,8218 Z M 9346,7008 L 10384,6408 10384,7518 9346,8118 9346,7008 Z M 9318,8134 L 9221,8190 7505,8190 7505,8072 9318,7024 9318,8134 Z"/>
      <path fill="rgb(196,196,196)" stroke="none" d="M 9221,8190 L 7505,9182 7505,8190 9221,8190 Z M 9318,7024 L 10384,6408 10384,7518 9318,8134 9318,7024 Z M 9289,8151 L 9272,8161 7505,8161 7505,8072 9289,7041 9289,8151 Z"/>
      <path fill="rgb(197,197,197)" stroke="none" d="M 9272,8161 L 7505,9182 7505,8161 9272,8161 Z M 9289,7041 L 10384,6408 10384,7518 9289,8151 9289,7041 Z M 9260,8132 L 7505,8132 7505,8072 9260,7058 9260,8132 Z"/>
      <path fill="rgb(198,198,198)" stroke="none" d="M 9260,8132 L 9260,7058 10384,6408 10384,7518 7505,9182 7505,8132 9260,8132 Z M 9231,8103 L 7505,8103 7505,8072 9231,7074 9231,8103 Z"/>
      <path fill="rgb(199,199,199)" stroke="none" d="M 9231,8103 L 9231,7074 10384,6408 10384,7518 7505,9182 7505,8103 9231,8103 Z M 9202,8074 L 7532,8074 7532,8056 9202,7091 9202,8074 Z"/>
      <path fill="rgb(200,200,200)" stroke="none" d="M 7532,8074 L 9202,8074 9202,7091 10384,6408 10384,7518 7505,9182 7505,8072 7532,8056 7532,8074 Z M 9173,8045 L 7561,8045 7561,8040 9173,7108 9173,8045 Z"/>
      <path fill="rgb(201,201,201)" stroke="none" d="M 7561,8045 L 9173,8045 9173,7108 10384,6408 10384,7518 7505,9182 7505,8072 7561,8040 7561,8045 Z M 9145,8017 L 7600,8017 9145,7124 9145,8017 Z"/>
      <path fill="rgb(202,202,202)" stroke="none" d="M 9145,8017 L 9145,7124 10384,6408 10384,7518 7505,9182 7505,8072 7600,8017 9145,8017 Z M 9116,7988 L 7650,7988 9116,7141 9116,7988 Z"/>
      <path fill="rgb(203,203,203)" stroke="none" d="M 9116,7988 L 9116,7141 10384,6408 10384,7518 7505,9182 7505,8072 7650,7988 9116,7988 Z M 9087,7959 L 7701,7959 9087,7158 9087,7959 Z"/>
      <path fill="rgb(204,204,204)" stroke="none" d="M 9087,7959 L 9087,7158 10384,6408 10384,7518 7505,9182 7505,8072 7701,7959 9087,7959 Z M 9058,7930 L 7751,7930 9058,7174 9058,7930 Z"/>
      <path fill="rgb(205,205,205)" stroke="none" d="M 9058,7930 L 9058,7174 10384,6408 10384,7518 7505,9182 7505,8072 7751,7930 9058,7930 Z M 9029,7901 L 7801,7901 9029,7191 9029,7901 Z"/>
      <path fill="rgb(206,206,206)" stroke="none" d="M 9029,7901 L 9029,7191 10384,6408 10384,7518 7505,9182 7505,8072 7801,7901 9029,7901 Z M 9001,7873 L 7849,7873 9001,7207 9001,7873 Z"/>
      <path fill="rgb(207,207,207)" stroke="none" d="M 9001,7873 L 9001,7207 10384,6408 10384,7518 7505,9182 7505,8072 7849,7873 9001,7873 Z M 8972,7844 L 7899,7844 8972,7224 8972,7844 Z"/>
      <path fill="rgb(208,208,208)" stroke="none" d="M 8972,7844 L 8972,7224 10384,6408 10384,7518 7505,9182 7505,8072 7899,7844 8972,7844 Z M 8943,7815 L 7950,7815 8943,7241 8943,7815 Z"/>
      <path fill="rgb(209,209,209)" stroke="none" d="M 8943,7815 L 8943,7241 10384,6408 10384,7518 7505,9182 7505,8072 7950,7815 8943,7815 Z M 8914,7786 L 8000,7786 8914,7258 8914,7786 Z"/>
      <path fill="rgb(210,210,210)" stroke="none" d="M 8914,7786 L 8914,7258 10384,6408 10384,7518 7505,9182 7505,8072 8000,7786 8914,7786 Z M 8885,7757 L 8050,7757 8885,7274 8885,7757 Z"/>
      <path fill="rgb(211,211,211)" stroke="none" d="M 8885,7757 L 8885,7274 10384,6408 10384,7518 7505,9182 7505,8072 8050,7757 8885,7757 Z M 8856,7728 L 8100,7728 8856,7291 8856,7728 Z"/>
      <path fill="rgb(212,212,212)" stroke="none" d="M 8856,7728 L 8856,7291 10384,6408 10384,7518 7505,9182 7505,8072 8100,7728 8856,7728 Z M 8828,7700 L 8149,7700 8828,7307 8828,7700 Z"/>
      <path fill="rgb(213,213,213)" stroke="none" d="M 8828,7700 L 8828,7307 10384,6408 10384,7518 7505,9182 7505,8072 8149,7700 8828,7700 Z M 8799,7671 L 8199,7671 8799,7324 8799,7671 Z"/>
      <path fill="rgb(214,214,214)" stroke="none" d="M 8799,7671 L 8799,7324 10384,6408 10384,7518 7505,9182 7505,8072 8199,7671 8799,7671 Z M 8770,7642 L 8249,7642 8770,7341 8770,7642 Z"/>
      <path fill="rgb(215,215,215)" stroke="none" d="M 8770,7642 L 8770,7341 10384,6408 10384,7518 7505,9182 7505,8072 8249,7642 8770,7642 Z M 8741,7613 L 8299,7613 8741,7358 8741,7613 Z"/>
      <path fill="rgb(216,216,216)" stroke="none" d="M 8741,7613 L 8741,7358 10384,6408 10384,7518 7505,9182 7505,8072 8299,7613 8741,7613 Z M 8712,7584 L 8349,7584 8712,7374 8712,7584 Z"/>
      <path fill="rgb(217,217,217)" stroke="none" d="M 8712,7584 L 8712,7374 10384,6408 10384,7518 7505,9182 7505,8072 8349,7584 8712,7584 Z M 8684,7556 L 8398,7556 8684,7391 8684,7556 Z"/>
      <path fill="rgb(218,218,218)" stroke="none" d="M 8684,7556 L 8684,7391 10384,6408 10384,7518 7505,9182 7505,8072 8398,7556 8684,7556 Z M 8655,7527 L 8448,7527 8655,7407 8655,7527 Z"/>
      <path fill="rgb(219,219,219)" stroke="none" d="M 8655,7527 L 8655,7407 10384,6408 10384,7518 7505,9182 7505,8072 8448,7527 8655,7527 Z M 8626,7498 L 8498,7498 8626,7424 8626,7498 Z"/>
      <path fill="rgb(220,220,220)" stroke="none" d="M 8626,7498 L 8626,7424 10384,6408 10384,7518 7505,9182 7505,8072 8498,7498 8626,7498 Z M 8597,7469 L 8548,7469 8597,7441 8597,7469 Z"/>
      <path fill="rgb(221,221,221)" stroke="none" d="M 8597,7469 L 8597,7441 10384,6408 10384,7518 7505,9182 7505,8072 8548,7469 8597,7469 Z"/>
      <path fill="rgb(222,222,222)" stroke="none" d="M 7505,9182 L 7505,8072 10384,6408 10384,7518 7505,9182 Z"/>
      <path fill="rgb(223,223,223)" stroke="none" d="M 7505,9182 L 7505,8072 10384,6408 10384,7518 7505,9182 Z"/>
      <path fill="rgb(224,224,224)" stroke="none" d="M 7505,9182 L 7505,8072 10384,6408 10384,7518 7505,9182 Z"/>
      <path fill="rgb(225,225,225)" stroke="none" d="M 7505,9182 L 7505,8072 10384,6408 10384,7518 7505,9182 Z"/>
      <path fill="rgb(226,226,226)" stroke="none" d="M 7505,9182 L 7505,8072 10384,6408 10384,7518 7505,9182 Z"/>
      <path fill="rgb(227,227,227)" stroke="none" d="M 7505,9182 L 7505,8072 10384,6408 10384,7518 7505,9182 Z"/>
      <path fill="rgb(229,229,229)" stroke="none" d="M 7505,9182 L 7505,8072 10384,6408 10384,7518 7505,9182 Z"/>
      <path fill="none" stroke="rgb(255,255,255)" id="Drawing_3_0" stroke-width="40" stroke-linejoin="round" d="M 7505,9182 L 7505,8072 10384,6408 10384,7518 7505,9182 Z"/>
     </g>
     <g>
      <defs>
       <linearGradient id="Gradient_1034" gradientUnits="userSpaceOnUse" x1="7265" y1="4466" x2="7265" y2="8072">
        <stop offset="0.1" stop-color="rgb(179,179,179)"/>
        <stop offset="1" stop-color="rgb(229,229,229)"/>
       </linearGradient>
      </defs>
      <path fill="url(#Gradient_1034)" stroke="rgb(255,255,255)" id="Drawing_4_0" stroke-width="40" stroke-linejoin="round" d="M 7505,8072 L 4146,6130 7025,4466 10385,6408 7505,8072 Z"/>
     </g>
     <g>
      <path fill="none" stroke="rgb(127,127,127)" id="Drawing_5_0" stroke-width="40" stroke-linejoin="round" d="M 5298,7018 L 5298,7684"/>
     </g>
     <g>
      <path fill="none" stroke="rgb(255,255,255)" id="Drawing_6_0" stroke-width="40" stroke-linejoin="round" d="M 7410,8439 L 5874,7551"/>
     </g>
     <g>
      <path fill="none" stroke="rgb(255,255,255)" id="Drawing_7_0" stroke-width="40" stroke-linejoin="round" d="M 5865,7351 L 5865,7573"/>
     </g>
     <g>
      <path fill="none" stroke="rgb(0,0,0)" id="Drawing_8_0" stroke-width="40" stroke-linejoin="round" d="M 7401,8239 L 7401,8461"/>
     </g>
     <g>
      <path fill="none" stroke="rgb(0,0,0)" id="Drawing_9_0" stroke-width="40" stroke-linejoin="round" d="M 7401,8239 L 5865,7351"/>
     </g>
     <g>
      <path fill="rgb(57,181,74)" stroke="none" d="M 5490,7351 L 5490,7129 5682,7240 5682,7462 5490,7351 Z"/>
      <path fill="none" stroke="rgb(0,0,0)" id="Drawing_10_0" stroke-width="40" stroke-linejoin="round" d="M 5490,7351 L 5490,7129 5682,7240 5682,7462 5490,7351 Z"/>
     </g>
     <g>
      <path fill="none" stroke="rgb(127,127,127)" id="Drawing_11_0" stroke-width="40" stroke-linejoin="round" d="M 5106,6907 L 5106,7573"/>
     </g>
     <g>
      <path fill="none" stroke="rgb(127,127,127)" id="Drawing_12_0" stroke-width="40" stroke-linejoin="round" d="M 4914,6796 L 4914,7462"/>
     </g>
     <g>
      <path fill="none" stroke="rgb(127,127,127)" id="Drawing_13_0" stroke-width="40" stroke-linejoin="round" d="M 4722,6685 L 4722,7351"/>
     </g>
     <g>
      <path fill="none" stroke="rgb(127,127,127)" id="Drawing_14_0" stroke-width="40" stroke-linejoin="round" d="M 4530,6574 L 4530,7240"/>
     </g>
     <g>
      <path fill="none" stroke="rgb(127,127,127)" id="Drawing_15_0" stroke-width="40" stroke-linejoin="round" d="M 4338,6463 L 4338,7129"/>
     </g>
     <g>
      <defs>
       <linearGradient id="Gradient_1035" gradientUnits="userSpaceOnUse" x1="3953" y1="6629" x2="4147" y2="6629">
        <stop offset="0.1" stop-color="rgb(179,179,179)"/>
        <stop offset="1" stop-color="rgb(229,229,229)"/>
       </linearGradient>
      </defs>
      <path fill="url(#Gradient_1035)" stroke="rgb(255,255,255)" id="Drawing_16_0" stroke-width="40" stroke-linejoin="round" d="M 3954,7129 L 3954,6019 4146,6130 4146,7240 3954,7129 Z"/>
     </g>
     <g>
      <defs>
       <linearGradient id="Gradient_1036" gradientUnits="userSpaceOnUse" x1="7504" y1="8682" x2="7698" y2="8682">
        <stop offset="0.1" stop-color="rgb(179,179,179)"/>
        <stop offset="1" stop-color="rgb(229,229,229)"/>
       </linearGradient>
      </defs>
      <path fill="url(#Gradient_1036)" stroke="rgb(255,255,255)" id="Drawing_17_0" stroke-width="40" stroke-linejoin="round" d="M 7505,9182 L 7505,8072 7697,8183 7697,9293 7505,9182 Z"/>
     </g>
     <g>
      <path fill="none" stroke="rgb(0,0,0)" id="Drawing_18_0" stroke-width="40" stroke-linejoin="round" d="M 3954,7129 L 3954,6019 4146,6130 7025,4466 10385,6408 10385,7517 7697,9071 7697,9293 3954,7129 Z"/>
     </g>
    </g>
   </g>
   <g id="DrawingGroup_4">
    <g>
     <path fill="rgb(0,115,188)" stroke="none" d="M 9315,8839 L 8601,8839 8594,8829 8569,8787 8548,8743 8531,8696 8519,8647 8512,8595 8509,8542 8512,8489 8519,8438 8531,8388 8548,8341 8569,8297 8594,8255 8623,8216 8656,8181 8692,8148 8731,8119 8773,8095 8817,8074 8865,8057 8914,8045 8966,8038 9019,8035 9072,8038 9124,8045 9173,8057 9221,8074 9266,8095 9308,8119 9315,8124 9315,8839 Z"/>
     <path fill="rgb(2,116,188)" stroke="none" d="M 9315,8839 L 9315,8124 9347,8148 9383,8181 9416,8216 9445,8255 9470,8297 9491,8341 9508,8388 9520,8438 9527,8489 9530,8542 9527,8595 9520,8647 9508,8696 9491,8743 9470,8787 9445,8829 9416,8868 9383,8904 9347,8936 9308,8965 9266,8990 9221,9011 9173,9028 9124,9040 9072,9047 9019,9050 8966,9047 8914,9040 8865,9028 8817,9011 8773,8990 8731,8965 8692,8936 8656,8904 8623,8868 8601,8839 9315,8839 Z M 9305,8829 L 8594,8829 8569,8787 8548,8743 8531,8696 8519,8647 8512,8595 8509,8542 8512,8489 8519,8438 8531,8388 8548,8341 8569,8297 8594,8255 8623,8216 8656,8181 8692,8148 8731,8119 8773,8095 8817,8074 8865,8057 8914,8045 8966,8038 9019,8035 9072,8038 9124,8045 9173,8057 9221,8074 9266,8095 9305,8117 9305,8829 Z"/>
     <path fill="rgb(4,117,189)" stroke="none" d="M 9305,8829 L 9305,8117 9308,8119 9347,8148 9383,8181 9416,8216 9445,8255 9470,8297 9491,8341 9508,8388 9520,8438 9527,8489 9530,8542 9527,8595 9520,8647 9508,8696 9491,8743 9470,8787 9445,8829 9416,8868 9383,8904 9347,8936 9308,8965 9266,8990 9221,9011 9173,9028 9124,9040 9072,9047 9019,9050 8966,9047 8914,9040 8865,9028 8817,9011 8773,8990 8731,8965 8692,8936 8656,8904 8623,8868 8594,8829 9305,8829 Z M 9295,8819 L 8588,8819 8569,8787 8548,8743 8531,8696 8519,8647 8512,8595 8509,8542 8512,8489 8519,8438 8531,8388 8548,8341 8569,8297 8594,8255 8623,8216 8656,8181 8692,8148 8731,8119 8773,8095 8817,8074 8865,8057 8914,8045 8966,8038 9019,8035 9072,8038 9124,8045 9173,8057 9221,8074 9266,8095 9295,8112 9295,8819 Z"/>
     <path fill="rgb(7,119,189)" stroke="none" d="M 9295,8819 L 9295,8112 9308,8119 9347,8148 9383,8181 9416,8216 9445,8255 9470,8297 9491,8341 9508,8388 9520,8438 9527,8489 9530,8542 9527,8595 9520,8647 9508,8696 9491,8743 9470,8787 9445,8829 9416,8868 9383,8904 9347,8936 9308,8965 9266,8990 9221,9011 9173,9028 9124,9040 9072,9047 9019,9050 8966,9047 8914,9040 8865,9028 8817,9011 8773,8990 8731,8965 8692,8936 8656,8904 8623,8868 8594,8829 8588,8819 9295,8819 Z M 9285,8809 L 8582,8809 8569,8787 8548,8743 8531,8696 8519,8647 8512,8595 8509,8542 8512,8489 8519,8438 8531,8388 8548,8341 8569,8297 8594,8255 8623,8216 8656,8181 8692,8148 8731,8119 8773,8095 8817,8074 8865,8057 8914,8045 8966,8038 9019,8035 9072,8038 9124,8045 9173,8057 9221,8074 9266,8095 9285,8106 9285,8809 Z"/>
     <path fill="rgb(9,120,190)" stroke="none" d="M 9285,8809 L 9285,8106 9308,8119 9347,8148 9383,8181 9416,8216 9445,8255 9470,8297 9491,8341 9508,8388 9520,8438 9527,8489 9530,8542 9527,8595 9520,8647 9508,8696 9491,8743 9470,8787 9445,8829 9416,8868 9383,8904 9347,8936 9308,8965 9266,8990 9221,9011 9173,9028 9124,9040 9072,9047 9019,9050 8966,9047 8914,9040 8865,9028 8817,9011 8773,8990 8731,8965 8692,8936 8656,8904 8623,8868 8594,8829 8582,8809 9285,8809 Z M 9275,8799 L 8576,8799 8569,8787 8548,8743 8531,8696 8519,8647 8512,8595 8509,8542 8512,8489 8519,8438 8531,8388 8548,8341 8569,8297 8594,8255 8623,8216 8656,8181 8692,8148 8731,8119 8773,8095 8817,8074 8865,8057 8914,8045 8966,8038 9019,8035 9072,8038 9124,8045 9173,8057 9221,8074 9266,8095 9275,8100 9275,8799 Z"/>
     <path fill="rgb(12,121,191)" stroke="none" d="M 9275,8799 L 9275,8100 9308,8119 9347,8148 9383,8181 9416,8216 9445,8255 9470,8297 9491,8341 9508,8388 9520,8438 9527,8489 9530,8542 9527,8595 9520,8647 9508,8696 9491,8743 9470,8787 9445,8829 9416,8868 9383,8904 9347,8936 9308,8965 9266,8990 9221,9011 9173,9028 9124,9040 9072,9047 9019,9050 8966,9047 8914,9040 8865,9028 8817,9011 8773,8990 8731,8965 8692,8936 8656,8904 8623,8868 8594,8829 8576,8799 9275,8799 Z M 9265,8789 L 8570,8789 8569,8787 8548,8743 8531,8696 8519,8647 8512,8595 8509,8542 8512,8489 8519,8438 8531,8388 8548,8341 8569,8297 8594,8255 8623,8216 8656,8181 8692,8148 8731,8119 8773,8095 8817,8074 8865,8057 8914,8045 8966,8038 9019,8035 9072,8038 9124,8045 9173,8057 9221,8074 9265,8095 9265,8789 Z"/>
     <path fill="rgb(14,123,191)" stroke="none" d="M 9265,8789 L 9265,8095 9266,8095 9308,8119 9347,8148 9383,8181 9416,8216 9445,8255 9470,8297 9491,8341 9508,8388 9520,8438 9527,8489 9530,8542 9527,8595 9520,8647 9508,8696 9491,8743 9470,8787 9445,8829 9416,8868 9383,8904 9347,8936 9308,8965 9266,8990 9221,9011 9173,9028 9124,9040 9072,9047 9019,9050 8966,9047 8914,9040 8865,9028 8817,9011 8773,8990 8731,8965 8692,8936 8656,8904 8623,8868 8594,8829 8570,8789 9265,8789 Z M 9255,8779 L 8565,8779 8548,8743 8531,8696 8519,8647 8512,8595 8509,8542 8512,8489 8519,8438 8531,8388 8548,8341 8569,8297 8594,8255 8623,8216 8656,8181 8692,8148 8731,8119 8773,8095 8817,8074 8865,8057 8914,8045 8966,8038 9019,8035 9072,8038 9124,8045 9173,8057 9221,8074 9255,8090 9255,8779 Z"/>
     <path fill="rgb(17,124,192)" stroke="none" d="M 9255,8779 L 9255,8090 9266,8095 9308,8119 9347,8148 9383,8181 9416,8216 9445,8255 9470,8297 9491,8341 9508,8388 9520,8438 9527,8489 9530,8542 9527,8595 9520,8647 9508,8696 9491,8743 9470,8787 9445,8829 9416,8868 9383,8904 9347,8936 9308,8965 9266,8990 9221,9011 9173,9028 9124,9040 9072,9047 9019,9050 8966,9047 8914,9040 8865,9028 8817,9011 8773,8990 8731,8965 8692,8936 8656,8904 8623,8868 8594,8829 8569,8787 8565,8779 9255,8779 Z M 9245,8769 L 8560,8769 8548,8743 8531,8696 8519,8647 8512,8595 8509,8542 8512,8489 8519,8438 8531,8388 8548,8341 8569,8297 8594,8255 8623,8216 8656,8181 8692,8148 8731,8119 8773,8095 8817,8074 8865,8057 8914,8045 8966,8038 9019,8035 9072,8038 9124,8045 9173,8057 9221,8074 9245,8085 9245,8769 Z"/>
     <path fill="rgb(19,125,193)" stroke="none" d="M 9245,8769 L 9245,8085 9266,8095 9308,8119 9347,8148 9383,8181 9416,8216 9445,8255 9470,8297 9491,8341 9508,8388 9520,8438 9527,8489 9530,8542 9527,8595 9520,8647 9508,8696 9491,8743 9470,8787 9445,8829 9416,8868 9383,8904 9347,8936 9308,8965 9266,8990 9221,9011 9173,9028 9124,9040 9072,9047 9019,9050 8966,9047 8914,9040 8865,9028 8817,9011 8773,8990 8731,8965 8692,8936 8656,8904 8623,8868 8594,8829 8569,8787 8560,8769 9245,8769 Z M 9235,8759 L 8556,8759 8548,8743 8531,8696 8519,8647 8512,8595 8509,8542 8512,8489 8519,8438 8531,8388 8548,8341 8569,8297 8594,8255 8623,8216 8656,8181 8692,8148 8731,8119 8773,8095 8817,8074 8865,8057 8914,8045 8966,8038 9019,8035 9072,8038 9124,8045 9173,8057 9221,8074 9235,8081 9235,8759 Z"/>
     <path fill="rgb(22,127,193)" stroke="none" d="M 9235,8759 L 9235,8081 9266,8095 9308,8119 9347,8148 9383,8181 9416,8216 9445,8255 9470,8297 9491,8341 9508,8388 9520,8438 9527,8489 9530,8542 9527,8595 9520,8647 9508,8696 9491,8743 9470,8787 9445,8829 9416,8868 9383,8904 9347,8936 9308,8965 9266,8990 9221,9011 9173,9028 9124,9040 9072,9047 9019,9050 8966,9047 8914,9040 8865,9028 8817,9011 8773,8990 8731,8965 8692,8936 8656,8904 8623,8868 8594,8829 8569,8787 8556,8759 9235,8759 Z M 9225,8749 L 8551,8749 8548,8743 8531,8696 8519,8647 8512,8595 8509,8542 8512,8489 8519,8438 8531,8388 8548,8341 8569,8297 8594,8255 8623,8216 8656,8181 8692,8148 8731,8119 8773,8095 8817,8074 8865,8057 8914,8045 8966,8038 9019,8035 9072,8038 9124,8045 9173,8057 9221,8074 9225,8076 9225,8749 Z"/>
     <path fill="rgb(24,128,194)" stroke="none" d="M 9225,8749 L 9225,8076 9266,8095 9308,8119 9347,8148 9383,8181 9416,8216 9445,8255 9470,8297 9491,8341 9508,8388 9520,8438 9527,8489 9530,8542 9527,8595 9520,8647 9508,8696 9491,8743 9470,8787 9445,8829 9416,8868 9383,8904 9347,8936 9308,8965 9266,8990 9221,9011 9173,9028 9124,9040 9072,9047 9019,9050 8966,9047 8914,9040 8865,9028 8817,9011 8773,8990 8731,8965 8692,8936 8656,8904 8623,8868 8594,8829 8569,8787 8551,8749 9225,8749 Z M 9215,8739 L 8547,8739 8531,8696 8519,8647 8512,8595 8509,8542 8512,8489 8519,8438 8531,8388 8548,8341 8569,8297 8594,8255 8623,8216 8656,8181 8692,8148 8731,8119 8773,8095 8817,8074 8865,8057 8914,8045 8966,8038 9019,8035 9072,8038 9124,8045 9173,8057 9215,8072 9215,8739 Z"/>
     <path fill="rgb(27,130,195)" stroke="none" d="M 9215,8739 L 9215,8072 9221,8074 9266,8095 9308,8119 9347,8148 9383,8181 9416,8216 9445,8255 9470,8297 9491,8341 9508,8388 9520,8438 9527,8489 9530,8542 9527,8595 9520,8647 9508,8696 9491,8743 9470,8787 9445,8829 9416,8868 9383,8904 9347,8936 9308,8965 9266,8990 9221,9011 9173,9028 9124,9040 9072,9047 9019,9050 8966,9047 8914,9040 8865,9028 8817,9011 8773,8990 8731,8965 8692,8936 8656,8904 8623,8868 8594,8829 8569,8787 8548,8743 8547,8739 9215,8739 Z M 9205,8729 L 8543,8729 8531,8696 8519,8647 8512,8595 8509,8542 8512,8489 8519,8438 8531,8388 8548,8341 8569,8297 8594,8255 8623,8216 8656,8181 8692,8148 8731,8119 8773,8095 8817,8074 8865,8057 8914,8045 8966,8038 9019,8035 9072,8038 9124,8045 9173,8057 9205,8068 9205,8729 Z"/>
     <path fill="rgb(29,131,195)" stroke="none" d="M 9205,8729 L 9205,8068 9221,8074 9266,8095 9308,8119 9347,8148 9383,8181 9416,8216 9445,8255 9470,8297 9491,8341 9508,8388 9520,8438 9527,8489 9530,8542 9527,8595 9520,8647 9508,8696 9491,8743 9470,8787 9445,8829 9416,8868 9383,8904 9347,8936 9308,8965 9266,8990 9221,9011 9173,9028 9124,9040 9072,9047 9019,9050 8966,9047 8914,9040 8865,9028 8817,9011 8773,8990 8731,8965 8692,8936 8656,8904 8623,8868 8594,8829 8569,8787 8548,8743 8543,8729 9205,8729 Z M 9195,8719 L 8539,8719 8531,8696 8519,8647 8512,8595 8509,8542 8512,8489 8519,8438 8531,8388 8548,8341 8569,8297 8594,8255 8623,8216 8656,8181 8692,8148 8731,8119 8773,8095 8817,8074 8865,8057 8914,8045 8966,8038 9019,8035 9072,8038 9124,8045 9173,8057 9195,8065 9195,8719 Z"/>
     <path fill="rgb(32,132,196)" stroke="none" d="M 9195,8719 L 9195,8065 9221,8074 9266,8095 9308,8119 9347,8148 9383,8181 9416,8216 9445,8255 9470,8297 9491,8341 9508,8388 9520,8438 9527,8489 9530,8542 9527,8595 9520,8647 9508,8696 9491,8743 9470,8787 9445,8829 9416,8868 9383,8904 9347,8936 9308,8965 9266,8990 9221,9011 9173,9028 9124,9040 9072,9047 9019,9050 8966,9047 8914,9040 8865,9028 8817,9011 8773,8990 8731,8965 8692,8936 8656,8904 8623,8868 8594,8829 8569,8787 8548,8743 8539,8719 9195,8719 Z M 9185,8709 L 8536,8709 8531,8696 8519,8647 8512,8595 8509,8542 8512,8489 8519,8438 8531,8388 8548,8341 8569,8297 8594,8255 8623,8216 8656,8181 8692,8148 8731,8119 8773,8095 8817,8074 8865,8057 8914,8045 8966,8038 9019,8035 9072,8038 9124,8045 9173,8057 9185,8061 9185,8709 Z"/>
     <path fill="rgb(34,134,197)" stroke="none" d="M 9185,8709 L 9185,8061 9221,8074 9266,8095 9308,8119 9347,8148 9383,8181 9416,8216 9445,8255 9470,8297 9491,8341 9508,8388 9520,8438 9527,8489 9530,8542 9527,8595 9520,8647 9508,8696 9491,8743 9470,8787 9445,8829 9416,8868 9383,8904 9347,8936 9308,8965 9266,8990 9221,9011 9173,9028 9124,9040 9072,9047 9019,9050 8966,9047 8914,9040 8865,9028 8817,9011 8773,8990 8731,8965 8692,8936 8656,8904 8623,8868 8594,8829 8569,8787 8548,8743 8536,8709 9185,8709 Z M 9175,8699 L 8532,8699 8531,8696 8519,8647 8512,8595 8509,8542 8512,8489 8519,8438 8531,8388 8548,8341 8569,8297 8594,8255 8623,8216 8656,8181 8692,8148 8731,8119 8773,8095 8817,8074 8865,8057 8914,8045 8966,8038 9019,8035 9072,8038 9124,8045 9173,8057 9175,8058 9175,8699 Z"/>
     <path fill="rgb(37,135,197)" stroke="none" d="M 9175,8699 L 9175,8058 9221,8074 9266,8095 9308,8119 9347,8148 9383,8181 9416,8216 9445,8255 9470,8297 9491,8341 9508,8388 9520,8438 9527,8489 9530,8542 9527,8595 9520,8647 9508,8696 9491,8743 9470,8787 9445,8829 9416,8868 9383,8904 9347,8936 9308,8965 9266,8990 9221,9011 9173,9028 9124,9040 9072,9047 9019,9050 8966,9047 8914,9040 8865,9028 8817,9011 8773,8990 8731,8965 8692,8936 8656,8904 8623,8868 8594,8829 8569,8787 8548,8743 8532,8699 9175,8699 Z M 9165,8689 L 8529,8689 8519,8647 8512,8595 8509,8542 8512,8489 8519,8438 8531,8388 8548,8341 8569,8297 8594,8255 8623,8216 8656,8181 8692,8148 8731,8119 8773,8095 8817,8074 8865,8057 8914,8045 8966,8038 9019,8035 9072,8038 9124,8045 9165,8055 9165,8689 Z"/>
     <path fill="rgb(39,136,198)" stroke="none" d="M 9165,8689 L 9165,8055 9173,8057 9221,8074 9266,8095 9308,8119 9347,8148 9383,8181 9416,8216 9445,8255 9470,8297 9491,8341 9508,8388 9520,8438 9527,8489 9530,8542 9527,8595 9520,8647 9508,8696 9491,8743 9470,8787 9445,8829 9416,8868 9383,8904 9347,8936 9308,8965 9266,8990 9221,9011 9173,9028 9124,9040 9072,9047 9019,9050 8966,9047 8914,9040 8865,9028 8817,9011 8773,8990 8731,8965 8692,8936 8656,8904 8623,8868 8594,8829 8569,8787 8548,8743 8531,8696 8529,8689 9165,8689 Z M 9155,8679 L 8527,8679 8519,8647 8512,8595 8509,8542 8512,8489 8519,8438 8531,8388 8548,8341 8569,8297 8594,8255 8623,8216 8656,8181 8692,8148 8731,8119 8773,8095 8817,8074 8865,8057 8914,8045 8966,8038 9019,8035 9072,8038 9124,8045 9155,8053 9155,8679 Z"/>
     <path fill="rgb(42,138,199)" stroke="none" d="M 9155,8679 L 9155,8053 9173,8057 9221,8074 9266,8095 9308,8119 9347,8148 9383,8181 9416,8216 9445,8255 9470,8297 9491,8341 9508,8388 9520,8438 9527,8489 9530,8542 9527,8595 9520,8647 9508,8696 9491,8743 9470,8787 9445,8829 9416,8868 9383,8904 9347,8936 9308,8965 9266,8990 9221,9011 9173,9028 9124,9040 9072,9047 9019,9050 8966,9047 8914,9040 8865,9028 8817,9011 8773,8990 8731,8965 8692,8936 8656,8904 8623,8868 8594,8829 8569,8787 8548,8743 8531,8696 8527,8679 9155,8679 Z M 9145,8669 L 8524,8669 8519,8647 8512,8595 8509,8542 8512,8489 8519,8438 8531,8388 8548,8341 8569,8297 8594,8255 8623,8216 8656,8181 8692,8148 8731,8119 8773,8095 8817,8074 8865,8057 8914,8045 8966,8038 9019,8035 9072,8038 9124,8045 9145,8050 9145,8669 Z"/>
     <path fill="rgb(44,139,199)" stroke="none" d="M 9145,8669 L 9145,8050 9173,8057 9221,8074 9266,8095 9308,8119 9347,8148 9383,8181 9416,8216 9445,8255 9470,8297 9491,8341 9508,8388 9520,8438 9527,8489 9530,8542 9527,8595 9520,8647 9508,8696 9491,8743 9470,8787 9445,8829 9416,8868 9383,8904 9347,8936 9308,8965 9266,8990 9221,9011 9173,9028 9124,9040 9072,9047 9019,9050 8966,9047 8914,9040 8865,9028 8817,9011 8773,8990 8731,8965 8692,8936 8656,8904 8623,8868 8594,8829 8569,8787 8548,8743 8531,8696 8524,8669 9145,8669 Z M 9135,8659 L 8522,8659 8519,8647 8512,8595 8509,8542 8512,8489 8519,8438 8531,8388 8548,8341 8569,8297 8594,8255 8623,8216 8656,8181 8692,8148 8731,8119 8773,8095 8817,8074 8865,8057 8914,8045 8966,8038 9019,8035 9072,8038 9124,8045 9135,8048 9135,8659 Z"/>
     <path fill="rgb(47,141,200)" stroke="none" d="M 9135,8659 L 9135,8048 9173,8057 9221,8074 9266,8095 9308,8119 9347,8148 9383,8181 9416,8216 9445,8255 9470,8297 9491,8341 9508,8388 9520,8438 9527,8489 9530,8542 9527,8595 9520,8647 9508,8696 9491,8743 9470,8787 9445,8829 9416,8868 9383,8904 9347,8936 9308,8965 9266,8990 9221,9011 9173,9028 9124,9040 9072,9047 9019,9050 8966,9047 8914,9040 8865,9028 8817,9011 8773,8990 8731,8965 8692,8936 8656,8904 8623,8868 8594,8829 8569,8787 8548,8743 8531,8696 8522,8659 9135,8659 Z M 9125,8649 L 8519,8649 8519,8647 8512,8595 8509,8542 8512,8489 8519,8438 8531,8388 8548,8341 8569,8297 8594,8255 8623,8216 8656,8181 8692,8148 8731,8119 8773,8095 8817,8074 8865,8057 8914,8045 8966,8038 9019,8035 9072,8038 9124,8045 9125,8045 9125,8649 Z"/>
     <path fill="rgb(49,142,200)" stroke="none" d="M 9125,8649 L 9125,8045 9173,8057 9221,8074 9266,8095 9308,8119 9347,8148 9383,8181 9416,8216 9445,8255 9470,8297 9491,8341 9508,8388 9520,8438 9527,8489 9530,8542 9527,8595 9520,8647 9508,8696 9491,8743 9470,8787 9445,8829 9416,8868 9383,8904 9347,8936 9308,8965 9266,8990 9221,9011 9173,9028 9124,9040 9072,9047 9019,9050 8966,9047 8914,9040 8865,9028 8817,9011 8773,8990 8731,8965 8692,8936 8656,8904 8623,8868 8594,8829 8569,8787 8548,8743 8531,8696 8519,8649 9125,8649 Z M 9054,8037 L 9072,8038 9115,8044 9115,8639 8518,8639 8513,8602 8513,8482 8519,8438 8531,8388 8548,8341 8569,8297 8594,8255 8623,8216 8656,8181 8692,8148 8731,8119 8773,8095 8817,8074 8865,8057 8914,8045 8966,8038 8984,8037 9054,8037 Z"/>
     <path fill="rgb(52,143,201)" stroke="none" d="M 8513,8602 L 8512,8595 8509,8542 8512,8489 8513,8482 8513,8602 Z M 9115,8639 L 9115,8044 9124,8045 9173,8057 9221,8074 9266,8095 9308,8119 9347,8148 9383,8181 9416,8216 9445,8255 9470,8297 9491,8341 9508,8388 9520,8438 9527,8489 9530,8542 9527,8595 9520,8647 9508,8696 9491,8743 9470,8787 9445,8829 9416,8868 9383,8904 9347,8936 9308,8965 9266,8990 9221,9011 9173,9028 9124,9040 9072,9047 9019,9050 8966,9047 8914,9040 8865,9028 8817,9011 8773,8990 8731,8965 8692,8936 8656,8904 8623,8868 8594,8829 8569,8787 8548,8743 8531,8696 8519,8647 8518,8639 9115,8639 Z M 8984,8037 L 9019,8035 9054,8037 8984,8037 Z M 9105,8047 L 9105,8629 8523,8629 8523,8421 8531,8388 8548,8341 8569,8297 8594,8255 8623,8216 8656,8181 8692,8148 8731,8119 8773,8095 8817,8074 8865,8057 8906,8047 9105,8047 Z"/>
     <path fill="rgb(54,145,202)" stroke="none" d="M 8523,8629 L 9105,8629 9105,8047 8906,8047 8914,8045 8966,8038 9019,8035 9072,8038 9124,8045 9173,8057 9221,8074 9266,8095 9308,8119 9347,8148 9383,8181 9416,8216 9445,8255 9470,8297 9491,8341 9508,8388 9520,8438 9527,8489 9530,8542 9527,8595 9520,8647 9508,8696 9491,8743 9470,8787 9445,8829 9416,8868 9383,8904 9347,8936 9308,8965 9266,8990 9221,9011 9173,9028 9124,9040 9072,9047 9019,9050 8966,9047 8914,9040 8865,9028 8817,9011 8773,8990 8731,8965 8692,8936 8656,8904 8623,8868 8594,8829 8569,8787 8548,8743 8531,8696 8519,8647 8512,8595 8509,8542 8512,8489 8519,8438 8523,8421 8523,8629 Z M 9095,8057 L 9095,8619 8533,8619 8533,8382 8548,8341 8569,8297 8594,8255 8623,8216 8656,8181 8692,8148 8731,8119 8773,8095 8817,8074 8865,8057 9095,8057 Z"/>
     <path fill="rgb(57,146,202)" stroke="none" d="M 8533,8619 L 9095,8619 9095,8057 8865,8057 8914,8045 8966,8038 9019,8035 9072,8038 9124,8045 9173,8057 9221,8074 9266,8095 9308,8119 9347,8148 9383,8181 9416,8216 9445,8255 9470,8297 9491,8341 9508,8388 9520,8438 9527,8489 9530,8542 9527,8595 9520,8647 9508,8696 9491,8743 9470,8787 9445,8829 9416,8868 9383,8904 9347,8936 9308,8965 9266,8990 9221,9011 9173,9028 9124,9040 9072,9047 9019,9050 8966,9047 8914,9040 8865,9028 8817,9011 8773,8990 8731,8965 8692,8936 8656,8904 8623,8868 8594,8829 8569,8787 8548,8743 8531,8696 8519,8647 8512,8595 8509,8542 8512,8489 8519,8438 8531,8388 8533,8382 8533,8619 Z M 9085,8067 L 9085,8609 8543,8609 8543,8355 8548,8341 8569,8297 8594,8255 8623,8216 8656,8181 8692,8148 8731,8119 8773,8095 8817,8074 8837,8067 9085,8067 Z"/>
     <path fill="rgb(59,147,203)" stroke="none" d="M 8543,8609 L 9085,8609 9085,8067 8837,8067 8865,8057 8914,8045 8966,8038 9019,8035 9072,8038 9124,8045 9173,8057 9221,8074 9266,8095 9308,8119 9347,8148 9383,8181 9416,8216 9445,8255 9470,8297 9491,8341 9508,8388 9520,8438 9527,8489 9530,8542 9527,8595 9520,8647 9508,8696 9491,8743 9470,8787 9445,8829 9416,8868 9383,8904 9347,8936 9308,8965 9266,8990 9221,9011 9173,9028 9124,9040 9072,9047 9019,9050 8966,9047 8914,9040 8865,9028 8817,9011 8773,8990 8731,8965 8692,8936 8656,8904 8623,8868 8594,8829 8569,8787 8548,8743 8531,8696 8519,8647 8512,8595 8509,8542 8512,8489 8519,8438 8531,8388 8543,8355 8543,8609 Z M 9075,8077 L 9075,8599 8553,8599 8553,8331 8569,8297 8594,8255 8623,8216 8656,8181 8692,8148 8731,8119 8773,8095 8811,8077 9075,8077 Z"/>
     <path fill="rgb(62,149,204)" stroke="none" d="M 8553,8599 L 9075,8599 9075,8077 8811,8077 8817,8074 8865,8057 8914,8045 8966,8038 9019,8035 9072,8038 9124,8045 9173,8057 9221,8074 9266,8095 9308,8119 9347,8148 9383,8181 9416,8216 9445,8255 9470,8297 9491,8341 9508,8388 9520,8438 9527,8489 9530,8542 9527,8595 9520,8647 9508,8696 9491,8743 9470,8787 9445,8829 9416,8868 9383,8904 9347,8936 9308,8965 9266,8990 9221,9011 9173,9028 9124,9040 9072,9047 9019,9050 8966,9047 8914,9040 8865,9028 8817,9011 8773,8990 8731,8965 8692,8936 8656,8904 8623,8868 8594,8829 8569,8787 8548,8743 8531,8696 8519,8647 8512,8595 8509,8542 8512,8489 8519,8438 8531,8388 8548,8341 8553,8331 8553,8599 Z M 9064,8088 L 9064,8588 8564,8588 8564,8307 8569,8297 8594,8255 8623,8216 8656,8181 8692,8148 8731,8119 8773,8095 8788,8088 9064,8088 Z"/>
     <path fill="rgb(64,150,204)" stroke="none" d="M 8564,8588 L 9064,8588 9064,8088 8788,8088 8817,8074 8865,8057 8914,8045 8966,8038 9019,8035 9072,8038 9124,8045 9173,8057 9221,8074 9266,8095 9308,8119 9347,8148 9383,8181 9416,8216 9445,8255 9470,8297 9491,8341 9508,8388 9520,8438 9527,8489 9530,8542 9527,8595 9520,8647 9508,8696 9491,8743 9470,8787 9445,8829 9416,8868 9383,8904 9347,8936 9308,8965 9266,8990 9221,9011 9173,9028 9124,9040 9072,9047 9019,9050 8966,9047 8914,9040 8865,9028 8817,9011 8773,8990 8731,8965 8692,8936 8656,8904 8623,8868 8594,8829 8569,8787 8548,8743 8531,8696 8519,8647 8512,8595 8509,8542 8512,8489 8519,8438 8531,8388 8548,8341 8564,8307 8564,8588 Z M 9054,8098 L 9054,8578 8574,8578 8574,8289 8594,8255 8623,8216 8656,8181 8692,8148 8731,8119 8768,8098 9054,8098 Z"/>
     <path fill="rgb(67,152,205)" stroke="none" d="M 8574,8578 L 9054,8578 9054,8098 8768,8098 8773,8095 8817,8074 8865,8057 8914,8045 8966,8038 9019,8035 9072,8038 9124,8045 9173,8057 9221,8074 9266,8095 9308,8119 9347,8148 9383,8181 9416,8216 9445,8255 9470,8297 9491,8341 9508,8388 9520,8438 9527,8489 9530,8542 9527,8595 9520,8647 9508,8696 9491,8743 9470,8787 9445,8829 9416,8868 9383,8904 9347,8936 9308,8965 9266,8990 9221,9011 9173,9028 9124,9040 9072,9047 9019,9050 8966,9047 8914,9040 8865,9028 8817,9011 8773,8990 8731,8965 8692,8936 8656,8904 8623,8868 8594,8829 8569,8787 8548,8743 8531,8696 8519,8647 8512,8595 8509,8542 8512,8489 8519,8438 8531,8388 8548,8341 8569,8297 8574,8289 8574,8578 Z M 9044,8108 L 9044,8568 8584,8568 8584,8272 8594,8255 8623,8216 8656,8181 8692,8148 8731,8119 8750,8108 9044,8108 Z"/>
     <path fill="rgb(69,153,206)" stroke="none" d="M 8584,8568 L 9044,8568 9044,8108 8750,8108 8773,8095 8817,8074 8865,8057 8914,8045 8966,8038 9019,8035 9072,8038 9124,8045 9173,8057 9221,8074 9266,8095 9308,8119 9347,8148 9383,8181 9416,8216 9445,8255 9470,8297 9491,8341 9508,8388 9520,8438 9527,8489 9530,8542 9527,8595 9520,8647 9508,8696 9491,8743 9470,8787 9445,8829 9416,8868 9383,8904 9347,8936 9308,8965 9266,8990 9221,9011 9173,9028 9124,9040 9072,9047 9019,9050 8966,9047 8914,9040 8865,9028 8817,9011 8773,8990 8731,8965 8692,8936 8656,8904 8623,8868 8594,8829 8569,8787 8548,8743 8531,8696 8519,8647 8512,8595 8509,8542 8512,8489 8519,8438 8531,8388 8548,8341 8569,8297 8584,8272 8584,8568 Z M 9034,8118 L 9034,8558 8594,8558 8594,8255 8623,8216 8656,8181 8692,8148 8731,8119 8733,8118 9034,8118 Z"/>
     <path fill="rgb(72,154,206)" stroke="none" d="M 8594,8558 L 9034,8558 9034,8118 8733,8118 8773,8095 8817,8074 8865,8057 8914,8045 8966,8038 9019,8035 9072,8038 9124,8045 9173,8057 9221,8074 9266,8095 9308,8119 9347,8148 9383,8181 9416,8216 9445,8255 9470,8297 9491,8341 9508,8388 9520,8438 9527,8489 9530,8542 9527,8595 9520,8647 9508,8696 9491,8743 9470,8787 9445,8829 9416,8868 9383,8904 9347,8936 9308,8965 9266,8990 9221,9011 9173,9028 9124,9040 9072,9047 9019,9050 8966,9047 8914,9040 8865,9028 8817,9011 8773,8990 8731,8965 8692,8936 8656,8904 8623,8868 8594,8829 8569,8787 8548,8743 8531,8696 8519,8647 8512,8595 8509,8542 8512,8489 8519,8438 8531,8388 8548,8341 8569,8297 8594,8255 8594,8558 Z M 9024,8128 L 9024,8548 8604,8548 8604,8242 8623,8216 8656,8181 8692,8148 8719,8128 9024,8128 Z"/>
     <path fill="rgb(74,156,207)" stroke="none" d="M 8604,8548 L 9024,8548 9024,8128 8719,8128 8731,8119 8773,8095 8817,8074 8865,8057 8914,8045 8966,8038 9019,8035 9072,8038 9124,8045 9173,8057 9221,8074 9266,8095 9308,8119 9347,8148 9383,8181 9416,8216 9445,8255 9470,8297 9491,8341 9508,8388 9520,8438 9527,8489 9530,8542 9527,8595 9520,8647 9508,8696 9491,8743 9470,8787 9445,8829 9416,8868 9383,8904 9347,8936 9308,8965 9266,8990 9221,9011 9173,9028 9124,9040 9072,9047 9019,9050 8966,9047 8914,9040 8865,9028 8817,9011 8773,8990 8731,8965 8692,8936 8656,8904 8623,8868 8594,8829 8569,8787 8548,8743 8531,8696 8519,8647 8512,8595 8509,8542 8512,8489 8519,8438 8531,8388 8548,8341 8569,8297 8594,8255 8604,8242 8604,8548 Z M 9014,8138 L 9014,8538 8614,8538 8614,8228 8623,8216 8656,8181 8692,8148 8705,8138 9014,8138 Z"/>
     <path fill="rgb(77,157,208)" stroke="none" d="M 8614,8538 L 9014,8538 9014,8138 8705,8138 8731,8119 8773,8095 8817,8074 8865,8057 8914,8045 8966,8038 9019,8035 9072,8038 9124,8045 9173,8057 9221,8074 9266,8095 9308,8119 9347,8148 9383,8181 9416,8216 9445,8255 9470,8297 9491,8341 9508,8388 9520,8438 9527,8489 9530,8542 9527,8595 9520,8647 9508,8696 9491,8743 9470,8787 9445,8829 9416,8868 9383,8904 9347,8936 9308,8965 9266,8990 9221,9011 9173,9028 9124,9040 9072,9047 9019,9050 8966,9047 8914,9040 8865,9028 8817,9011 8773,8990 8731,8965 8692,8936 8656,8904 8623,8868 8594,8829 8569,8787 8548,8743 8531,8696 8519,8647 8512,8595 8509,8542 8512,8489 8519,8438 8531,8388 8548,8341 8569,8297 8594,8255 8614,8228 8614,8538 Z M 9004,8148 L 9004,8528 8624,8528 8624,8215 8656,8181 8692,8148 9004,8148 Z"/>
     <path fill="rgb(79,158,208)" stroke="none" d="M 8624,8528 L 9004,8528 9004,8148 8692,8148 8731,8119 8773,8095 8817,8074 8865,8057 8914,8045 8966,8038 9019,8035 9072,8038 9124,8045 9173,8057 9221,8074 9266,8095 9308,8119 9347,8148 9383,8181 9416,8216 9445,8255 9470,8297 9491,8341 9508,8388 9520,8438 9527,8489 9530,8542 9527,8595 9520,8647 9508,8696 9491,8743 9470,8787 9445,8829 9416,8868 9383,8904 9347,8936 9308,8965 9266,8990 9221,9011 9173,9028 9124,9040 9072,9047 9019,9050 8966,9047 8914,9040 8865,9028 8817,9011 8773,8990 8731,8965 8692,8936 8656,8904 8623,8868 8594,8829 8569,8787 8548,8743 8531,8696 8519,8647 8512,8595 8509,8542 8512,8489 8519,8438 8531,8388 8548,8341 8569,8297 8594,8255 8623,8216 8624,8215 8624,8528 Z M 8994,8158 L 8994,8518 8634,8518 8634,8204 8656,8181 8681,8158 8994,8158 Z"/>
     <path fill="rgb(82,160,209)" stroke="none" d="M 8634,8518 L 8994,8518 8994,8158 8681,8158 8692,8148 8731,8119 8773,8095 8817,8074 8865,8057 8914,8045 8966,8038 9019,8035 9072,8038 9124,8045 9173,8057 9221,8074 9266,8095 9308,8119 9347,8148 9383,8181 9416,8216 9445,8255 9470,8297 9491,8341 9508,8388 9520,8438 9527,8489 9530,8542 9527,8595 9520,8647 9508,8696 9491,8743 9470,8787 9445,8829 9416,8868 9383,8904 9347,8936 9308,8965 9266,8990 9221,9011 9173,9028 9124,9040 9072,9047 9019,9050 8966,9047 8914,9040 8865,9028 8817,9011 8773,8990 8731,8965 8692,8936 8656,8904 8623,8868 8594,8829 8569,8787 8548,8743 8531,8696 8519,8647 8512,8595 8509,8542 8512,8489 8519,8438 8531,8388 8548,8341 8569,8297 8594,8255 8623,8216 8634,8204 8634,8518 Z M 8984,8168 L 8984,8508 8644,8508 8644,8194 8656,8181 8670,8168 8984,8168 Z"/>
     <path fill="rgb(84,161,210)" stroke="none" d="M 8644,8508 L 8984,8508 8984,8168 8670,8168 8692,8148 8731,8119 8773,8095 8817,8074 8865,8057 8914,8045 8966,8038 9019,8035 9072,8038 9124,8045 9173,8057 9221,8074 9266,8095 9308,8119 9347,8148 9383,8181 9416,8216 9445,8255 9470,8297 9491,8341 9508,8388 9520,8438 9527,8489 9530,8542 9527,8595 9520,8647 9508,8696 9491,8743 9470,8787 9445,8829 9416,8868 9383,8904 9347,8936 9308,8965 9266,8990 9221,9011 9173,9028 9124,9040 9072,9047 9019,9050 8966,9047 8914,9040 8865,9028 8817,9011 8773,8990 8731,8965 8692,8936 8656,8904 8623,8868 8594,8829 8569,8787 8548,8743 8531,8696 8519,8647 8512,8595 8509,8542 8512,8489 8519,8438 8531,8388 8548,8341 8569,8297 8594,8255 8623,8216 8644,8194 8644,8508 Z M 8974,8178 L 8974,8498 8654,8498 8654,8183 8656,8181 8659,8178 8974,8178 Z"/>
     <path fill="rgb(87,163,210)" stroke="none" d="M 8654,8498 L 8974,8498 8974,8178 8659,8178 8692,8148 8731,8119 8773,8095 8817,8074 8865,8057 8914,8045 8966,8038 9019,8035 9072,8038 9124,8045 9173,8057 9221,8074 9266,8095 9308,8119 9347,8148 9383,8181 9416,8216 9445,8255 9470,8297 9491,8341 9508,8388 9520,8438 9527,8489 9530,8542 9527,8595 9520,8647 9508,8696 9491,8743 9470,8787 9445,8829 9416,8868 9383,8904 9347,8936 9308,8965 9266,8990 9221,9011 9173,9028 9124,9040 9072,9047 9019,9050 8966,9047 8914,9040 8865,9028 8817,9011 8773,8990 8731,8965 8692,8936 8656,8904 8623,8868 8594,8829 8569,8787 8548,8743 8531,8696 8519,8647 8512,8595 8509,8542 8512,8489 8519,8438 8531,8388 8548,8341 8569,8297 8594,8255 8623,8216 8654,8183 8654,8498 Z M 8664,8188 L 8964,8188 8964,8488 8664,8488 8664,8188 Z"/>
     <path fill="rgb(89,164,211)" stroke="none" d="M 8664,8188 L 8664,8488 8964,8488 8964,8188 8664,8188 Z M 8674,8198 L 8954,8198 8954,8478 8674,8478 8674,8198 Z M 9019,8035 L 9072,8038 9124,8045 9173,8057 9221,8074 9266,8095 9308,8119 9347,8148 9383,8181 9416,8216 9445,8255 9470,8297 9491,8341 9508,8388 9520,8438 9527,8489 9530,8542 9527,8595 9520,8647 9508,8696 9491,8743 9470,8787 9445,8829 9416,8868 9383,8904 9347,8936 9308,8965 9266,8990 9221,9011 9173,9028 9124,9040 9072,9047 9019,9050 8966,9047 8914,9040 8865,9028 8817,9011 8773,8990 8731,8965 8692,8936 8656,8904 8623,8868 8594,8829 8569,8787 8548,8743 8531,8696 8519,8647 8512,8595 8509,8542 8512,8489 8519,8438 8531,8388 8548,8341 8569,8297 8594,8255 8623,8216 8656,8181 8692,8148 8731,8119 8773,8095 8817,8074 8865,8057 8914,8045 8966,8038 9019,8035 Z"/>
     <path fill="rgb(92,165,211)" stroke="none" d="M 8674,8198 L 8674,8478 8954,8478 8954,8198 8674,8198 Z M 8684,8208 L 8944,8208 8944,8468 8684,8468 8684,8208 Z M 9019,8035 L 9072,8038 9124,8045 9173,8057 9221,8074 9266,8095 9308,8119 9347,8148 9383,8181 9416,8216 9445,8255 9470,8297 9491,8341 9508,8388 9520,8438 9527,8489 9530,8542 9527,8595 9520,8647 9508,8696 9491,8743 9470,8787 9445,8829 9416,8868 9383,8904 9347,8936 9308,8965 9266,8990 9221,9011 9173,9028 9124,9040 9072,9047 9019,9050 8966,9047 8914,9040 8865,9028 8817,9011 8773,8990 8731,8965 8692,8936 8656,8904 8623,8868 8594,8829 8569,8787 8548,8743 8531,8696 8519,8647 8512,8595 8509,8542 8512,8489 8519,8438 8531,8388 8548,8341 8569,8297 8594,8255 8623,8216 8656,8181 8692,8148 8731,8119 8773,8095 8817,8074 8865,8057 8914,8045 8966,8038 9019,8035 Z"/>
     <path fill="rgb(94,167,212)" stroke="none" d="M 8684,8208 L 8684,8468 8944,8468 8944,8208 8684,8208 Z M 8694,8218 L 8934,8218 8934,8458 8694,8458 8694,8218 Z M 9019,8035 L 9072,8038 9124,8045 9173,8057 9221,8074 9266,8095 9308,8119 9347,8148 9383,8181 9416,8216 9445,8255 9470,8297 9491,8341 9508,8388 9520,8438 9527,8489 9530,8542 9527,8595 9520,8647 9508,8696 9491,8743 9470,8787 9445,8829 9416,8868 9383,8904 9347,8936 9308,8965 9266,8990 9221,9011 9173,9028 9124,9040 9072,9047 9019,9050 8966,9047 8914,9040 8865,9028 8817,9011 8773,8990 8731,8965 8692,8936 8656,8904 8623,8868 8594,8829 8569,8787 8548,8743 8531,8696 8519,8647 8512,8595 8509,8542 8512,8489 8519,8438 8531,8388 8548,8341 8569,8297 8594,8255 8623,8216 8656,8181 8692,8148 8731,8119 8773,8095 8817,8074 8865,8057 8914,8045 8966,8038 9019,8035 Z"/>
     <path fill="rgb(97,168,213)" stroke="none" d="M 8694,8218 L 8694,8458 8934,8458 8934,8218 8694,8218 Z M 8704,8228 L 8924,8228 8924,8448 8704,8448 8704,8228 Z M 9019,8035 L 9072,8038 9124,8045 9173,8057 9221,8074 9266,8095 9308,8119 9347,8148 9383,8181 9416,8216 9445,8255 9470,8297 9491,8341 9508,8388 9520,8438 9527,8489 9530,8542 9527,8595 9520,8647 9508,8696 9491,8743 9470,8787 9445,8829 9416,8868 9383,8904 9347,8936 9308,8965 9266,8990 9221,9011 9173,9028 9124,9040 9072,9047 9019,9050 8966,9047 8914,9040 8865,9028 8817,9011 8773,8990 8731,8965 8692,8936 8656,8904 8623,8868 8594,8829 8569,8787 8548,8743 8531,8696 8519,8647 8512,8595 8509,8542 8512,8489 8519,8438 8531,8388 8548,8341 8569,8297 8594,8255 8623,8216 8656,8181 8692,8148 8731,8119 8773,8095 8817,8074 8865,8057 8914,8045 8966,8038 9019,8035 Z"/>
     <path fill="rgb(99,169,213)" stroke="none" d="M 8704,8228 L 8704,8448 8924,8448 8924,8228 8704,8228 Z M 8714,8238 L 8914,8238 8914,8438 8714,8438 8714,8238 Z M 9019,8035 L 9072,8038 9124,8045 9173,8057 9221,8074 9266,8095 9308,8119 9347,8148 9383,8181 9416,8216 9445,8255 9470,8297 9491,8341 9508,8388 9520,8438 9527,8489 9530,8542 9527,8595 9520,8647 9508,8696 9491,8743 9470,8787 9445,8829 9416,8868 9383,8904 9347,8936 9308,8965 9266,8990 9221,9011 9173,9028 9124,9040 9072,9047 9019,9050 8966,9047 8914,9040 8865,9028 8817,9011 8773,8990 8731,8965 8692,8936 8656,8904 8623,8868 8594,8829 8569,8787 8548,8743 8531,8696 8519,8647 8512,8595 8509,8542 8512,8489 8519,8438 8531,8388 8548,8341 8569,8297 8594,8255 8623,8216 8656,8181 8692,8148 8731,8119 8773,8095 8817,8074 8865,8057 8914,8045 8966,8038 9019,8035 Z"/>
     <path fill="rgb(102,171,214)" stroke="none" d="M 8714,8238 L 8714,8438 8914,8438 8914,8238 8714,8238 Z M 8724,8248 L 8904,8248 8904,8428 8724,8428 8724,8248 Z M 9019,8035 L 9072,8038 9124,8045 9173,8057 9221,8074 9266,8095 9308,8119 9347,8148 9383,8181 9416,8216 9445,8255 9470,8297 9491,8341 9508,8388 9520,8438 9527,8489 9530,8542 9527,8595 9520,8647 9508,8696 9491,8743 9470,8787 9445,8829 9416,8868 9383,8904 9347,8936 9308,8965 9266,8990 9221,9011 9173,9028 9124,9040 9072,9047 9019,9050 8966,9047 8914,9040 8865,9028 8817,9011 8773,8990 8731,8965 8692,8936 8656,8904 8623,8868 8594,8829 8569,8787 8548,8743 8531,8696 8519,8647 8512,8595 8509,8542 8512,8489 8519,8438 8531,8388 8548,8341 8569,8297 8594,8255 8623,8216 8656,8181 8692,8148 8731,8119 8773,8095 8817,8074 8865,8057 8914,8045 8966,8038 9019,8035 Z"/>
     <path fill="rgb(104,172,215)" stroke="none" d="M 8724,8248 L 8724,8428 8904,8428 8904,8248 8724,8248 Z M 8734,8258 L 8894,8258 8894,8418 8734,8418 8734,8258 Z M 9019,8035 L 9072,8038 9124,8045 9173,8057 9221,8074 9266,8095 9308,8119 9347,8148 9383,8181 9416,8216 9445,8255 9470,8297 9491,8341 9508,8388 9520,8438 9527,8489 9530,8542 9527,8595 9520,8647 9508,8696 9491,8743 9470,8787 9445,8829 9416,8868 9383,8904 9347,8936 9308,8965 9266,8990 9221,9011 9173,9028 9124,9040 9072,9047 9019,9050 8966,9047 8914,9040 8865,9028 8817,9011 8773,8990 8731,8965 8692,8936 8656,8904 8623,8868 8594,8829 8569,8787 8548,8743 8531,8696 8519,8647 8512,8595 8509,8542 8512,8489 8519,8438 8531,8388 8548,8341 8569,8297 8594,8255 8623,8216 8656,8181 8692,8148 8731,8119 8773,8095 8817,8074 8865,8057 8914,8045 8966,8038 9019,8035 Z"/>
     <path fill="rgb(107,174,215)" stroke="none" d="M 8734,8258 L 8734,8418 8894,8418 8894,8258 8734,8258 Z M 8744,8268 L 8884,8268 8884,8408 8744,8408 8744,8268 Z M 9019,8035 L 9072,8038 9124,8045 9173,8057 9221,8074 9266,8095 9308,8119 9347,8148 9383,8181 9416,8216 9445,8255 9470,8297 9491,8341 9508,8388 9520,8438 9527,8489 9530,8542 9527,8595 9520,8647 9508,8696 9491,8743 9470,8787 9445,8829 9416,8868 9383,8904 9347,8936 9308,8965 9266,8990 9221,9011 9173,9028 9124,9040 9072,9047 9019,9050 8966,9047 8914,9040 8865,9028 8817,9011 8773,8990 8731,8965 8692,8936 8656,8904 8623,8868 8594,8829 8569,8787 8548,8743 8531,8696 8519,8647 8512,8595 8509,8542 8512,8489 8519,8438 8531,8388 8548,8341 8569,8297 8594,8255 8623,8216 8656,8181 8692,8148 8731,8119 8773,8095 8817,8074 8865,8057 8914,8045 8966,8038 9019,8035 Z"/>
     <path fill="rgb(109,175,216)" stroke="none" d="M 8744,8268 L 8744,8408 8884,8408 8884,8268 8744,8268 Z M 8754,8278 L 8874,8278 8874,8398 8754,8398 8754,8278 Z M 9019,8035 L 9072,8038 9124,8045 9173,8057 9221,8074 9266,8095 9308,8119 9347,8148 9383,8181 9416,8216 9445,8255 9470,8297 9491,8341 9508,8388 9520,8438 9527,8489 9530,8542 9527,8595 9520,8647 9508,8696 9491,8743 9470,8787 9445,8829 9416,8868 9383,8904 9347,8936 9308,8965 9266,8990 9221,9011 9173,9028 9124,9040 9072,9047 9019,9050 8966,9047 8914,9040 8865,9028 8817,9011 8773,8990 8731,8965 8692,8936 8656,8904 8623,8868 8594,8829 8569,8787 8548,8743 8531,8696 8519,8647 8512,8595 8509,8542 8512,8489 8519,8438 8531,8388 8548,8341 8569,8297 8594,8255 8623,8216 8656,8181 8692,8148 8731,8119 8773,8095 8817,8074 8865,8057 8914,8045 8966,8038 9019,8035 Z"/>
     <path fill="rgb(112,176,217)" stroke="none" d="M 8754,8278 L 8754,8398 8874,8398 8874,8278 8754,8278 Z M 8764,8288 L 8864,8288 8864,8388 8764,8388 8764,8288 Z M 9019,8035 L 9072,8038 9124,8045 9173,8057 9221,8074 9266,8095 9308,8119 9347,8148 9383,8181 9416,8216 9445,8255 9470,8297 9491,8341 9508,8388 9520,8438 9527,8489 9530,8542 9527,8595 9520,8647 9508,8696 9491,8743 9470,8787 9445,8829 9416,8868 9383,8904 9347,8936 9308,8965 9266,8990 9221,9011 9173,9028 9124,9040 9072,9047 9019,9050 8966,9047 8914,9040 8865,9028 8817,9011 8773,8990 8731,8965 8692,8936 8656,8904 8623,8868 8594,8829 8569,8787 8548,8743 8531,8696 8519,8647 8512,8595 8509,8542 8512,8489 8519,8438 8531,8388 8548,8341 8569,8297 8594,8255 8623,8216 8656,8181 8692,8148 8731,8119 8773,8095 8817,8074 8865,8057 8914,8045 8966,8038 9019,8035 Z"/>
     <path fill="rgb(114,178,217)" stroke="none" d="M 8764,8288 L 8764,8388 8864,8388 8864,8288 8764,8288 Z M 8774,8298 L 8854,8298 8854,8378 8774,8378 8774,8298 Z M 9019,8035 L 9072,8038 9124,8045 9173,8057 9221,8074 9266,8095 9308,8119 9347,8148 9383,8181 9416,8216 9445,8255 9470,8297 9491,8341 9508,8388 9520,8438 9527,8489 9530,8542 9527,8595 9520,8647 9508,8696 9491,8743 9470,8787 9445,8829 9416,8868 9383,8904 9347,8936 9308,8965 9266,8990 9221,9011 9173,9028 9124,9040 9072,9047 9019,9050 8966,9047 8914,9040 8865,9028 8817,9011 8773,8990 8731,8965 8692,8936 8656,8904 8623,8868 8594,8829 8569,8787 8548,8743 8531,8696 8519,8647 8512,8595 8509,8542 8512,8489 8519,8438 8531,8388 8548,8341 8569,8297 8594,8255 8623,8216 8656,8181 8692,8148 8731,8119 8773,8095 8817,8074 8865,8057 8914,8045 8966,8038 9019,8035 Z"/>
     <path fill="rgb(117,179,218)" stroke="none" d="M 8774,8298 L 8774,8378 8854,8378 8854,8298 8774,8298 Z M 8784,8308 L 8844,8308 8844,8368 8784,8368 8784,8308 Z M 9019,8035 L 9072,8038 9124,8045 9173,8057 9221,8074 9266,8095 9308,8119 9347,8148 9383,8181 9416,8216 9445,8255 9470,8297 9491,8341 9508,8388 9520,8438 9527,8489 9530,8542 9527,8595 9520,8647 9508,8696 9491,8743 9470,8787 9445,8829 9416,8868 9383,8904 9347,8936 9308,8965 9266,8990 9221,9011 9173,9028 9124,9040 9072,9047 9019,9050 8966,9047 8914,9040 8865,9028 8817,9011 8773,8990 8731,8965 8692,8936 8656,8904 8623,8868 8594,8829 8569,8787 8548,8743 8531,8696 8519,8647 8512,8595 8509,8542 8512,8489 8519,8438 8531,8388 8548,8341 8569,8297 8594,8255 8623,8216 8656,8181 8692,8148 8731,8119 8773,8095 8817,8074 8865,8057 8914,8045 8966,8038 9019,8035 Z"/>
     <path fill="rgb(119,180,219)" stroke="none" d="M 8784,8308 L 8784,8368 8844,8368 8844,8308 8784,8308 Z M 8794,8318 L 8834,8318 8834,8358 8794,8358 8794,8318 Z M 9019,8035 L 9072,8038 9124,8045 9173,8057 9221,8074 9266,8095 9308,8119 9347,8148 9383,8181 9416,8216 9445,8255 9470,8297 9491,8341 9508,8388 9520,8438 9527,8489 9530,8542 9527,8595 9520,8647 9508,8696 9491,8743 9470,8787 9445,8829 9416,8868 9383,8904 9347,8936 9308,8965 9266,8990 9221,9011 9173,9028 9124,9040 9072,9047 9019,9050 8966,9047 8914,9040 8865,9028 8817,9011 8773,8990 8731,8965 8692,8936 8656,8904 8623,8868 8594,8829 8569,8787 8548,8743 8531,8696 8519,8647 8512,8595 8509,8542 8512,8489 8519,8438 8531,8388 8548,8341 8569,8297 8594,8255 8623,8216 8656,8181 8692,8148 8731,8119 8773,8095 8817,8074 8865,8057 8914,8045 8966,8038 9019,8035 Z"/>
     <path fill="rgb(122,182,219)" stroke="none" d="M 8794,8318 L 8794,8358 8834,8358 8834,8318 8794,8318 Z M 8804,8328 L 8824,8328 8824,8348 8804,8348 8804,8328 Z M 9019,8035 L 9072,8038 9124,8045 9173,8057 9221,8074 9266,8095 9308,8119 9347,8148 9383,8181 9416,8216 9445,8255 9470,8297 9491,8341 9508,8388 9520,8438 9527,8489 9530,8542 9527,8595 9520,8647 9508,8696 9491,8743 9470,8787 9445,8829 9416,8868 9383,8904 9347,8936 9308,8965 9266,8990 9221,9011 9173,9028 9124,9040 9072,9047 9019,9050 8966,9047 8914,9040 8865,9028 8817,9011 8773,8990 8731,8965 8692,8936 8656,8904 8623,8868 8594,8829 8569,8787 8548,8743 8531,8696 8519,8647 8512,8595 8509,8542 8512,8489 8519,8438 8531,8388 8548,8341 8569,8297 8594,8255 8623,8216 8656,8181 8692,8148 8731,8119 8773,8095 8817,8074 8865,8057 8914,8045 8966,8038 9019,8035 Z"/>
     <path fill="rgb(127,185,221)" stroke="none" d="M 8804,8328 L 8804,8348 8824,8348 8824,8328 8804,8328 Z M 9019,8035 L 9072,8038 9124,8045 9173,8057 9221,8074 9266,8095 9308,8119 9347,8148 9383,8181 9416,8216 9445,8255 9470,8297 9491,8341 9508,8388 9520,8438 9527,8489 9530,8542 9527,8595 9520,8647 9508,8696 9491,8743 9470,8787 9445,8829 9416,8868 9383,8904 9347,8936 9308,8965 9266,8990 9221,9011 9173,9028 9124,9040 9072,9047 9019,9050 8966,9047 8914,9040 8865,9028 8817,9011 8773,8990 8731,8965 8692,8936 8656,8904 8623,8868 8594,8829 8569,8787 8548,8743 8531,8696 8519,8647 8512,8595 8509,8542 8512,8489 8519,8438 8531,8388 8548,8341 8569,8297 8594,8255 8623,8216 8656,8181 8692,8148 8731,8119 8773,8095 8817,8074 8865,8057 8914,8045 8966,8038 9019,8035 Z"/>
     <path fill="none" stroke="rgb(0,0,0)" id="Drawing_19_0" stroke-width="40" stroke-linejoin="round" d="M 9019,8035 C 9308,8035 9530,8254 9530,8542 9530,8830 9308,9050 9019,9050 8730,9050 8509,8830 8509,8542 8509,8254 8730,8035 9019,8035 Z"/>
     <rect fill="none" stroke="none" x="8510" y="8036" width="1022" height="1016"/>
    </g>
    <g>
     <path fill="rgb(57,181,74)" stroke="none" d="M 8737,8134 L 8850,8134 8907,8101 9020,8068 9190,8134 9077,8134 9134,8232 8964,8395 8907,8428 8850,8461 8964,8527 9020,8592 9190,8592 9360,8690 9247,8887 9077,9018 9077,8822 8964,8690 9020,8625 8907,8527 8794,8494 8737,8363 8737,8134 Z"/>
     <path fill="none" stroke="rgb(128,128,128)" id="Drawing_20_0" stroke-width="40" stroke-linejoin="round" d="M 8737,8134 L 8850,8134 8907,8101 9020,8068 9190,8134 9077,8134 9134,8232 8964,8395 8907,8428 8850,8461 8964,8527 9020,8592 9190,8592 9360,8690 9247,8887 9077,9018 9077,8822 8964,8690 9020,8625 8907,8527 8794,8494 8737,8363 8737,8134 Z"/>
    </g>
    <g>
     <path fill="rgb(57,181,74)" stroke="none" d="M 9474,8560 L 9474,8527 9417,8429 9417,8330 9360,8199 9247,8134 C 9360,8069 9587,8494 9474,8560 Z"/>
     <path fill="none" stroke="rgb(128,128,128)" id="Drawing_21_0" stroke-width="40" stroke-linejoin="round" d="M 9474,8560 L 9474,8527 9417,8429 9417,8330 9360,8199 9247,8134 C 9360,8069 9587,8494 9474,8560 Z"/>
    </g>
    <g id="DrawingGroup_5">
     <g>
      <path fill="none" stroke="rgb(255,255,255)" id="Drawing_22_0" stroke-width="40" stroke-linejoin="round" d="M 8964,8690 L 8907,8461"/>
     </g>
     <g>
      <path fill="none" stroke="rgb(255,255,255)" id="Drawing_23_0" stroke-width="40" stroke-linejoin="round" d="M 8963,8691 L 9020,8527"/>
     </g>
     <g>
      <path fill="none" stroke="rgb(255,255,255)" id="Drawing_24_0" stroke-width="40" stroke-linejoin="round" d="M 9077,8691 L 9020,8527"/>
     </g>
     <g>
      <path fill="none" stroke="rgb(255,255,255)" id="Drawing_25_0" stroke-width="40" stroke-linejoin="round" d="M 9077,8690 L 9134,8461"/>
     </g>
    </g>
    <g id="DrawingGroup_6">
     <g>
      <path fill="none" stroke="rgb(255,255,255)" id="Drawing_26_0" stroke-width="40" stroke-linejoin="round" d="M 9304,8690 L 9247,8461"/>
     </g>
     <g>
      <path fill="none" stroke="rgb(255,255,255)" id="Drawing_27_0" stroke-width="40" stroke-linejoin="round" d="M 9303,8691 L 9360,8527"/>
     </g>
     <g>
      <path fill="none" stroke="rgb(255,255,255)" id="Drawing_28_0" stroke-width="40" stroke-linejoin="round" d="M 9417,8691 L 9360,8527"/>
     </g>
     <g>
      <path fill="none" stroke="rgb(255,255,255)" id="Drawing_29_0" stroke-width="40" stroke-linejoin="round" d="M 9417,8690 L 9474,8461"/>
     </g>
    </g>
    <g id="DrawingGroup_7">
     <g>
      <path fill="none" stroke="rgb(255,255,255)" id="Drawing_30_0" stroke-width="40" stroke-linejoin="round" d="M 8624,8690 L 8567,8461"/>
     </g>
     <g>
      <path fill="none" stroke="rgb(255,255,255)" id="Drawing_31_0" stroke-width="40" stroke-linejoin="round" d="M 8623,8691 L 8680,8527"/>
     </g>
     <g>
      <path fill="none" stroke="rgb(255,255,255)" id="Drawing_32_0" stroke-width="40" stroke-linejoin="round" d="M 8737,8691 L 8680,8527"/>
     </g>
     <g>
      <path fill="none" stroke="rgb(255,255,255)" id="Drawing_33_0" stroke-width="40" stroke-linejoin="round" d="M 8737,8690 L 8794,8461"/>
     </g>
    </g>
   </g>
  </g>
 </g>
</svg>