<?xml version="1.0" encoding="UTF-8"?>

<svg version="1.2" baseProfile="tiny" width="69.31mm" height="48.67mm" viewBox="4916 19943 6931 4867" preserveAspectRatio="xMidYMid" fill-rule="evenodd" stroke-width="28.222" stroke-linejoin="round" xmlns="http://www.w3.org/2000/svg" xmlns:xlink="http://www.w3.org/1999/xlink" xml:space="preserve">
 <g visibility="visible" id="Slide_1">
  <g id="DrawingGroup_1">
   <g id="DrawingGroup_2">
    <g>
     <path fill="rgb(221,221,221)" stroke="none" d="M 8680,24790 C 8943,24790 11847,23514 11847,23125 11847,22737 11439,22737 11175,22737 11175,22903 8584,23569 8680,24790 Z"/>
     <path fill="none" stroke="rgb(221,221,221)" id="Drawing_1_0" stroke-linejoin="round" d="M 8680,24790 C 8943,24790 11847,23514 11847,23125 11847,22737 11439,22737 11175,22737 11175,22903 8584,23569 8680,24790 Z"/>
    </g>
    <g id="DrawingGroup_3">
     <g>
      <defs>
       <linearGradient id="Gradient_1037" gradientUnits="userSpaceOnUse" x1="5124" y1="23149" x2="8489" y2="23155">
        <stop offset="0.1" stop-color="rgb(51,51,51)"/>
        <stop offset="1" stop-color="rgb(153,153,153)"/>
       </linearGradient>
      </defs>
      <path fill="url(#Gradient_1037)" stroke="rgb(178,178,178)" id="Drawing_2_0" stroke-width="40" stroke-linejoin="round" d="M 5128,22737 L 5128,21627 8487,23569 8487,24678 5128,22737 Z"/>
     </g>
     <g>
      <path fill="rgb(51,51,51)" stroke="none" d="M 10775,23357 L 9381,24162 8487,24162 8487,23569 10775,22247 10775,23357 Z"/>
      <path fill="rgb(52,52,52)" stroke="none" d="M 9381,24162 L 8487,24679 8487,24162 9381,24162 Z M 10775,22247 L 11366,21905 11366,23015 10775,23357 10775,22247 Z M 10761,23365 L 9406,24148 8487,24148 8487,23569 10761,22255 10761,23365 Z"/>
      <path fill="rgb(53,53,53)" stroke="none" d="M 9406,24148 L 8487,24679 8487,24148 9406,24148 Z M 10761,22255 L 11366,21905 11366,23015 10761,23365 10761,22255 Z M 10747,23373 L 9430,24134 8487,24134 8487,23569 10747,22263 10747,23373 Z"/>
      <path fill="rgb(54,54,54)" stroke="none" d="M 9430,24134 L 8487,24679 8487,24134 9430,24134 Z M 10747,22263 L 11366,21905 11366,23015 10747,23373 10747,22263 Z M 10733,23381 L 9454,24120 8487,24120 8487,23569 10733,22271 10733,23381 Z"/>
      <path fill="rgb(55,55,55)" stroke="none" d="M 9454,24120 L 8487,24679 8487,24120 9454,24120 Z M 10733,22271 L 11366,21905 11366,23015 10733,23381 10733,22271 Z M 10719,23389 L 9478,24106 8487,24106 8487,23569 10719,22279 10719,23389 Z"/>
      <path fill="rgb(56,56,56)" stroke="none" d="M 9478,24106 L 8487,24679 8487,24106 9478,24106 Z M 10719,22279 L 11366,21905 11366,23015 10719,23389 10719,22279 Z M 10705,23397 L 9503,24092 8487,24092 8487,23569 10705,22287 10705,23397 Z"/>
      <path fill="rgb(57,57,57)" stroke="none" d="M 9503,24092 L 8487,24679 8487,24092 9503,24092 Z M 10705,22287 L 11366,21905 11366,23015 10705,23397 10705,22287 Z M 10691,23405 L 9527,24078 8487,24078 8487,23569 10691,22295 10691,23405 Z"/>
      <path fill="rgb(58,58,58)" stroke="none" d="M 9527,24078 L 8487,24679 8487,24078 9527,24078 Z M 10691,22295 L 11366,21905 11366,23015 10691,23405 10691,22295 Z M 10676,23414 L 9553,24063 8487,24063 8487,23569 10676,22304 10676,23414 Z"/>
      <path fill="rgb(59,59,59)" stroke="none" d="M 9553,24063 L 8487,24679 8487,24063 9553,24063 Z M 10676,22304 L 11366,21905 11366,23015 10676,23414 10676,22304 Z M 10662,23422 L 9577,24049 8487,24049 8487,23569 10662,22312 10662,23422 Z"/>
      <path fill="rgb(60,60,60)" stroke="none" d="M 9577,24049 L 8487,24679 8487,24049 9577,24049 Z M 10662,22312 L 11366,21905 11366,23015 10662,23422 10662,22312 Z M 10648,23430 L 9601,24035 8487,24035 8487,23569 10648,22320 10648,23430 Z"/>
      <path fill="rgb(61,61,61)" stroke="none" d="M 9601,24035 L 8487,24679 8487,24035 9601,24035 Z M 10648,22320 L 11366,21905 11366,23015 10648,23430 10648,22320 Z M 10634,23438 L 9625,24021 8487,24021 8487,23569 10634,22328 10634,23438 Z"/>
      <path fill="rgb(62,62,62)" stroke="none" d="M 9625,24021 L 8487,24679 8487,24021 9625,24021 Z M 10634,22328 L 11366,21905 11366,23015 10634,23438 10634,22328 Z M 10620,23446 L 9650,24007 8487,24007 8487,23569 10620,22336 10620,23446 Z"/>
      <path fill="rgb(63,63,63)" stroke="none" d="M 9650,24007 L 8487,24679 8487,24007 9650,24007 Z M 10620,22336 L 11366,21905 11366,23015 10620,23446 10620,22336 Z M 10606,23454 L 9674,23993 8487,23993 8487,23569 10606,22344 10606,23454 Z"/>
      <path fill="rgb(64,64,64)" stroke="none" d="M 9674,23993 L 8487,24679 8487,23993 9674,23993 Z M 10606,22344 L 11366,21905 11366,23015 10606,23454 10606,22344 Z M 10592,23462 L 9698,23979 8487,23979 8487,23569 10592,22352 10592,23462 Z"/>
      <path fill="rgb(65,65,65)" stroke="none" d="M 9698,23979 L 8487,24679 8487,23979 9698,23979 Z M 10592,22352 L 11366,21905 11366,23015 10592,23462 10592,22352 Z M 10578,23470 L 9722,23965 8487,23965 8487,23569 10578,22360 10578,23470 Z"/>
      <path fill="rgb(66,66,66)" stroke="none" d="M 9722,23965 L 8487,24679 8487,23965 9722,23965 Z M 10578,22360 L 11366,21905 11366,23015 10578,23470 10578,22360 Z M 10563,23479 L 9748,23950 8487,23950 8487,23569 10563,22369 10563,23479 Z"/>
      <path fill="rgb(67,67,67)" stroke="none" d="M 9748,23950 L 8487,24679 8487,23950 9748,23950 Z M 10563,22369 L 11366,21905 11366,23015 10563,23479 10563,22369 Z M 10549,23487 L 9773,23936 8487,23936 8487,23569 10549,22377 10549,23487 Z"/>
      <path fill="rgb(68,68,68)" stroke="none" d="M 9773,23936 L 8487,24679 8487,23936 9773,23936 Z M 10549,22377 L 11366,21905 11366,23015 10549,23487 10549,22377 Z M 10535,23495 L 9797,23922 8487,23922 8487,23569 10535,22385 10535,23495 Z"/>
      <path fill="rgb(69,69,69)" stroke="none" d="M 9797,23922 L 8487,24679 8487,23922 9797,23922 Z M 10535,22385 L 11366,21905 11366,23015 10535,23495 10535,22385 Z M 10521,23503 L 9821,23908 8487,23908 8487,23569 10521,22393 10521,23503 Z"/>
      <path fill="rgb(70,70,70)" stroke="none" d="M 9821,23908 L 8487,24679 8487,23908 9821,23908 Z M 10521,22393 L 11366,21905 11366,23015 10521,23503 10521,22393 Z M 10507,23511 L 9845,23894 8487,23894 8487,23569 10507,22401 10507,23511 Z"/>
      <path fill="rgb(71,71,71)" stroke="none" d="M 9845,23894 L 8487,24679 8487,23894 9845,23894 Z M 10507,22401 L 11366,21905 11366,23015 10507,23511 10507,22401 Z M 10493,23520 L 9869,23880 8487,23880 8487,23569 10493,22410 10493,23520 Z"/>
      <path fill="rgb(72,72,72)" stroke="none" d="M 9869,23880 L 8487,24679 8487,23880 9869,23880 Z M 10493,22410 L 11366,21905 11366,23015 10493,23520 10493,22410 Z M 10479,23528 L 9894,23866 8487,23866 8487,23569 10479,22418 10479,23528 Z"/>
      <path fill="rgb(73,73,73)" stroke="none" d="M 9894,23866 L 8487,24679 8487,23866 9894,23866 Z M 10479,22418 L 11366,21905 11366,23015 10479,23528 10479,22418 Z M 10465,23536 L 9918,23852 8487,23852 8487,23569 10465,22426 10465,23536 Z"/>
      <path fill="rgb(74,74,74)" stroke="none" d="M 9918,23852 L 8487,24679 8487,23852 9918,23852 Z M 10465,22426 L 11366,21905 11366,23015 10465,23536 10465,22426 Z M 10450,23544 L 9944,23837 8487,23837 8487,23569 10450,22434 10450,23544 Z"/>
      <path fill="rgb(75,75,75)" stroke="none" d="M 9944,23837 L 8487,24679 8487,23837 9944,23837 Z M 10450,22434 L 11366,21905 11366,23015 10450,23544 10450,22434 Z M 10436,23553 L 9968,23823 8487,23823 8487,23569 10436,22443 10436,23553 Z"/>
      <path fill="rgb(76,76,76)" stroke="none" d="M 9968,23823 L 8487,24679 8487,23823 9968,23823 Z M 10436,22443 L 11366,21905 11366,23015 10436,23553 10436,22443 Z M 10422,23561 L 9992,23809 8487,23809 8487,23569 10422,22451 10422,23561 Z"/>
      <path fill="rgb(77,77,77)" stroke="none" d="M 9992,23809 L 8487,24679 8487,23809 9992,23809 Z M 10422,22451 L 11366,21905 11366,23015 10422,23561 10422,22451 Z M 10408,23569 L 10016,23795 8487,23795 8487,23569 10408,22459 10408,23569 Z"/>
      <path fill="rgb(78,78,78)" stroke="none" d="M 10016,23795 L 8487,24679 8487,23795 10016,23795 Z M 10408,22459 L 11366,21905 11366,23015 10408,23569 10408,22459 Z M 10394,23577 L 10041,23781 8487,23781 8487,23569 10394,22467 10394,23577 Z"/>
      <path fill="rgb(79,79,79)" stroke="none" d="M 10041,23781 L 8487,24679 8487,23781 10041,23781 Z M 10394,22467 L 11366,21905 11366,23015 10394,23577 10394,22467 Z M 10380,23585 L 10065,23767 8487,23767 8487,23569 10380,22475 10380,23585 Z"/>
      <path fill="rgb(80,80,80)" stroke="none" d="M 10065,23767 L 8487,24679 8487,23767 10065,23767 Z M 10380,22475 L 11366,21905 11366,23015 10380,23585 10380,22475 Z M 10366,23593 L 10089,23753 8487,23753 8487,23569 10366,22483 10366,23593 Z"/>
      <path fill="rgb(81,81,81)" stroke="none" d="M 10089,23753 L 8487,24679 8487,23753 10089,23753 Z M 10366,22483 L 11366,21905 11366,23015 10366,23593 10366,22483 Z M 10352,23601 L 10113,23739 8487,23739 8487,23569 10352,22491 10352,23601 Z"/>
      <path fill="rgb(82,82,82)" stroke="none" d="M 10113,23739 L 8487,24679 8487,23739 10113,23739 Z M 10352,22491 L 11366,21905 11366,23015 10352,23601 10352,22491 Z M 10337,23610 L 10139,23724 8487,23724 8487,23569 10337,22500 10337,23610 Z"/>
      <path fill="rgb(83,83,83)" stroke="none" d="M 10139,23724 L 8487,24679 8487,23724 10139,23724 Z M 10337,22500 L 11366,21905 11366,23015 10337,23610 10337,22500 Z M 10323,23618 L 10164,23710 8487,23710 8487,23569 10323,22508 10323,23618 Z"/>
      <path fill="rgb(84,84,84)" stroke="none" d="M 10164,23710 L 8487,24679 8487,23710 10164,23710 Z M 10323,22508 L 11366,21905 11366,23015 10323,23618 10323,22508 Z M 10309,23626 L 10188,23696 8487,23696 8487,23569 10309,22516 10309,23626 Z"/>
      <path fill="rgb(85,85,85)" stroke="none" d="M 10188,23696 L 8487,24679 8487,23696 10188,23696 Z M 10309,22516 L 11366,21905 11366,23015 10309,23626 10309,22516 Z M 10295,23634 L 10212,23682 8487,23682 8487,23569 10295,22524 10295,23634 Z"/>
      <path fill="rgb(86,86,86)" stroke="none" d="M 10212,23682 L 8487,24679 8487,23682 10212,23682 Z M 10295,22524 L 11366,21905 11366,23015 10295,23634 10295,22524 Z M 10281,23642 L 10236,23668 8487,23668 8487,23569 10281,22532 10281,23642 Z"/>
      <path fill="rgb(87,87,87)" stroke="none" d="M 10236,23668 L 8487,24679 8487,23668 10236,23668 Z M 10281,22532 L 11366,21905 11366,23015 10281,23642 10281,22532 Z M 10267,23650 L 10260,23654 8487,23654 8487,23569 10267,22540 10267,23650 Z"/>
      <path fill="rgb(88,88,88)" stroke="none" d="M 10260,23654 L 8487,24679 8487,23654 10260,23654 Z M 10267,22540 L 11366,21905 11366,23015 10267,23650 10267,22540 Z M 10253,23640 L 8487,23640 8487,23569 10253,22548 10253,23640 Z"/>
      <path fill="rgb(89,89,89)" stroke="none" d="M 10253,23640 L 10253,22548 11366,21905 11366,23015 8487,24679 8487,23640 10253,23640 Z M 10239,23626 L 8487,23626 8487,23569 10239,22556 10239,23626 Z"/>
      <path fill="rgb(90,90,90)" stroke="none" d="M 10239,23626 L 10239,22556 11366,21905 11366,23015 8487,24679 8487,23626 10239,23626 Z M 10224,23611 L 8487,23611 8487,23569 10224,22565 10224,23611 Z"/>
      <path fill="rgb(91,91,91)" stroke="none" d="M 10224,23611 L 10224,22565 11366,21905 11366,23015 8487,24679 8487,23611 10224,23611 Z M 10210,23597 L 8488,23597 8488,23568 10210,22573 10210,23597 Z"/>
      <path fill="rgb(92,92,92)" stroke="none" d="M 8488,23597 L 10210,23597 10210,22573 11366,21905 11366,23015 8487,24679 8487,23569 8488,23568 8488,23597 Z M 10196,23583 L 8502,23583 8502,23560 10196,22581 10196,23583 Z"/>
      <path fill="rgb(93,93,93)" stroke="none" d="M 8502,23583 L 10196,23583 10196,22581 11366,21905 11366,23015 8487,24679 8487,23569 8502,23560 8502,23583 Z M 10182,23569 L 8516,23569 8516,23552 10182,22589 10182,23569 Z"/>
      <path fill="rgb(94,94,94)" stroke="none" d="M 8516,23569 L 10182,23569 10182,22589 11366,21905 11366,23015 8487,24679 8487,23569 8516,23552 8516,23569 Z M 10168,23555 L 8530,23555 8530,23544 10168,22597 10168,23555 Z"/>
      <path fill="rgb(95,95,95)" stroke="none" d="M 8530,23555 L 10168,23555 10168,22597 11366,21905 11366,23015 8487,24679 8487,23569 8530,23544 8530,23555 Z M 10154,23541 L 8544,23541 8544,23536 10154,22606 10154,23541 Z"/>
      <path fill="rgb(96,96,96)" stroke="none" d="M 8544,23541 L 10154,23541 10154,22606 11366,21905 11366,23015 8487,24679 8487,23569 8544,23536 8544,23541 Z M 10140,23527 L 8560,23527 10140,22614 10140,23527 Z"/>
      <path fill="rgb(97,97,97)" stroke="none" d="M 10140,23527 L 10140,22614 11366,21905 11366,23015 8487,24679 8487,23569 8560,23527 10140,23527 Z M 10126,23513 L 8584,23513 10126,22622 10126,23513 Z"/>
      <path fill="rgb(98,98,98)" stroke="none" d="M 10126,23513 L 10126,22622 11366,21905 11366,23015 8487,24679 8487,23569 8584,23513 10126,23513 Z M 10111,23498 L 8610,23498 10111,22630 10111,23498 Z"/>
      <path fill="rgb(99,99,99)" stroke="none" d="M 10111,23498 L 10111,22630 11366,21905 11366,23015 8487,24679 8487,23569 8610,23498 10111,23498 Z M 10097,23484 L 8634,23484 10097,22638 10097,23484 Z"/>
      <path fill="rgb(100,100,100)" stroke="none" d="M 10097,23484 L 10097,22638 11366,21905 11366,23015 8487,24679 8487,23569 8634,23484 10097,23484 Z M 10083,23470 L 8658,23470 10083,22647 10083,23470 Z"/>
      <path fill="rgb(101,101,101)" stroke="none" d="M 10083,23470 L 10083,22647 11366,21905 11366,23015 8487,24679 8487,23569 8658,23470 10083,23470 Z M 10069,23456 L 8683,23456 10069,22655 10069,23456 Z"/>
      <path fill="rgb(102,102,102)" stroke="none" d="M 10069,23456 L 10069,22655 11366,21905 11366,23015 8487,24679 8487,23569 8683,23456 10069,23456 Z M 10055,23442 L 8707,23442 10055,22663 10055,23442 Z"/>
      <path fill="rgb(103,103,103)" stroke="none" d="M 10055,23442 L 10055,22663 11366,21905 11366,23015 8487,24679 8487,23569 8707,23442 10055,23442 Z M 10041,23428 L 8731,23428 10041,22671 10041,23428 Z"/>
      <path fill="rgb(104,104,104)" stroke="none" d="M 10041,23428 L 10041,22671 11366,21905 11366,23015 8487,24679 8487,23569 8731,23428 10041,23428 Z M 10027,23414 L 8755,23414 10027,22679 10027,23414 Z"/>
      <path fill="rgb(105,105,105)" stroke="none" d="M 10027,23414 L 10027,22679 11366,21905 11366,23015 8487,24679 8487,23569 8755,23414 10027,23414 Z M 10012,23399 L 8781,23399 10012,22688 10012,23399 Z"/>
      <path fill="rgb(106,106,106)" stroke="none" d="M 10012,23399 L 10012,22688 11366,21905 11366,23015 8487,24679 8487,23569 8781,23399 10012,23399 Z M 9998,23385 L 8805,23385 9998,22696 9998,23385 Z"/>
      <path fill="rgb(107,107,107)" stroke="none" d="M 9998,23385 L 9998,22696 11366,21905 11366,23015 8487,24679 8487,23569 8805,23385 9998,23385 Z M 9984,23371 L 8830,23371 9984,22704 9984,23371 Z"/>
      <path fill="rgb(108,108,108)" stroke="none" d="M 9984,23371 L 9984,22704 11366,21905 11366,23015 8487,24679 8487,23569 8830,23371 9984,23371 Z M 9970,23357 L 8854,23357 9970,22712 9970,23357 Z"/>
      <path fill="rgb(109,109,109)" stroke="none" d="M 9970,23357 L 9970,22712 11366,21905 11366,23015 8487,24679 8487,23569 8854,23357 9970,23357 Z M 9956,23343 L 8878,23343 9956,22720 9956,23343 Z"/>
      <path fill="rgb(110,110,110)" stroke="none" d="M 9956,23343 L 9956,22720 11366,21905 11366,23015 8487,24679 8487,23569 8878,23343 9956,23343 Z M 9942,23329 L 8902,23329 9942,22728 9942,23329 Z"/>
      <path fill="rgb(111,111,111)" stroke="none" d="M 9942,23329 L 9942,22728 11366,21905 11366,23015 8487,24679 8487,23569 8902,23329 9942,23329 Z M 9928,23315 L 8926,23315 9928,22736 9928,23315 Z"/>
      <path fill="rgb(112,112,112)" stroke="none" d="M 9928,23315 L 9928,22736 11366,21905 11366,23015 8487,24679 8487,23569 8926,23315 9928,23315 Z M 9914,23301 L 8951,23301 9914,22744 9914,23301 Z"/>
      <path fill="rgb(113,113,113)" stroke="none" d="M 9914,23301 L 9914,22744 11366,21905 11366,23015 8487,24679 8487,23569 8951,23301 9914,23301 Z M 9899,23286 L 8977,23286 9899,22753 9899,23286 Z"/>
      <path fill="rgb(114,114,114)" stroke="none" d="M 9899,23286 L 9899,22753 11366,21905 11366,23015 8487,24679 8487,23569 8977,23286 9899,23286 Z M 9885,23272 L 9001,23272 9885,22761 9885,23272 Z"/>
      <path fill="rgb(115,115,115)" stroke="none" d="M 9885,23272 L 9885,22761 11366,21905 11366,23015 8487,24679 8487,23569 9001,23272 9885,23272 Z M 9871,23258 L 9025,23258 9871,22769 9871,23258 Z"/>
      <path fill="rgb(116,116,116)" stroke="none" d="M 9871,23258 L 9871,22769 11366,21905 11366,23015 8487,24679 8487,23569 9025,23258 9871,23258 Z M 9857,23244 L 9049,23244 9857,22777 9857,23244 Z"/>
      <path fill="rgb(117,117,117)" stroke="none" d="M 9857,23244 L 9857,22777 11366,21905 11366,23015 8487,24679 8487,23569 9049,23244 9857,23244 Z M 9843,23230 L 9074,23230 9843,22785 9843,23230 Z"/>
      <path fill="rgb(118,118,118)" stroke="none" d="M 9843,23230 L 9843,22785 11366,21905 11366,23015 8487,24679 8487,23569 9074,23230 9843,23230 Z M 9829,23216 L 9098,23216 9829,22793 9829,23216 Z"/>
      <path fill="rgb(119,119,119)" stroke="none" d="M 9829,23216 L 9829,22793 11366,21905 11366,23015 8487,24679 8487,23569 9098,23216 9829,23216 Z M 9815,23202 L 9122,23202 9815,22801 9815,23202 Z"/>
      <path fill="rgb(120,120,120)" stroke="none" d="M 9815,23202 L 9815,22801 11366,21905 11366,23015 8487,24679 8487,23569 9122,23202 9815,23202 Z M 9801,23188 L 9146,23188 9801,22810 9801,23188 Z"/>
      <path fill="rgb(121,121,121)" stroke="none" d="M 9801,23188 L 9801,22810 11366,21905 11366,23015 8487,24679 8487,23569 9146,23188 9801,23188 Z M 9786,23173 L 9172,23173 9786,22818 9786,23173 Z"/>
      <path fill="rgb(122,122,122)" stroke="none" d="M 9786,23173 L 9786,22818 11366,21905 11366,23015 8487,24679 8487,23569 9172,23173 9786,23173 Z M 9772,23159 L 9196,23159 9772,22826 9772,23159 Z"/>
      <path fill="rgb(123,123,123)" stroke="none" d="M 9772,23159 L 9772,22826 11366,21905 11366,23015 8487,24679 8487,23569 9196,23159 9772,23159 Z M 9758,23145 L 9221,23145 9758,22834 9758,23145 Z"/>
      <path fill="rgb(124,124,124)" stroke="none" d="M 9758,23145 L 9758,22834 11366,21905 11366,23015 8487,24679 8487,23569 9221,23145 9758,23145 Z M 9744,23131 L 9245,23131 9744,22842 9744,23131 Z"/>
      <path fill="rgb(125,125,125)" stroke="none" d="M 9744,23131 L 9744,22842 11366,21905 11366,23015 8487,24679 8487,23569 9245,23131 9744,23131 Z M 9730,23117 L 9269,23117 9730,22851 9730,23117 Z"/>
      <path fill="rgb(126,126,126)" stroke="none" d="M 9730,23117 L 9730,22851 11366,21905 11366,23015 8487,24679 8487,23569 9269,23117 9730,23117 Z M 9716,23103 L 9293,23103 9716,22859 9716,23103 Z"/>
      <path fill="rgb(127,127,127)" stroke="none" d="M 9716,23103 L 9716,22859 11366,21905 11366,23015 8487,24679 8487,23569 9293,23103 9716,23103 Z M 9702,23089 L 9317,23089 9702,22867 9702,23089 Z"/>
      <path fill="rgb(128,128,128)" stroke="none" d="M 9702,23089 L 9702,22867 11366,21905 11366,23015 8487,24679 8487,23569 9317,23089 9702,23089 Z M 9688,23075 L 9342,23075 9688,22875 9688,23075 Z"/>
      <path fill="rgb(129,129,129)" stroke="none" d="M 9688,23075 L 9688,22875 11366,21905 11366,23015 8487,24679 8487,23569 9342,23075 9688,23075 Z M 9673,23060 L 9368,23060 9673,22884 9673,23060 Z"/>
      <path fill="rgb(130,130,130)" stroke="none" d="M 9673,23060 L 9673,22884 11366,21905 11366,23015 8487,24679 8487,23569 9368,23060 9673,23060 Z M 9659,23046 L 9392,23046 9659,22892 9659,23046 Z"/>
      <path fill="rgb(131,131,131)" stroke="none" d="M 9659,23046 L 9659,22892 11366,21905 11366,23015 8487,24679 8487,23569 9392,23046 9659,23046 Z M 9645,23032 L 9416,23032 9645,22900 9645,23032 Z"/>
      <path fill="rgb(132,132,132)" stroke="none" d="M 9645,23032 L 9645,22900 11366,21905 11366,23015 8487,24679 8487,23569 9416,23032 9645,23032 Z M 9631,23018 L 9440,23018 9631,22908 9631,23018 Z"/>
      <path fill="rgb(133,133,133)" stroke="none" d="M 9631,23018 L 9631,22908 11366,21905 11366,23015 8487,24679 8487,23569 9440,23018 9631,23018 Z M 9617,23004 L 9465,23004 9617,22916 9617,23004 Z"/>
      <path fill="rgb(134,134,134)" stroke="none" d="M 9617,23004 L 9617,22916 11366,21905 11366,23015 8487,24679 8487,23569 9465,23004 9617,23004 Z M 9603,22990 L 9489,22990 9603,22924 9603,22990 Z"/>
      <path fill="rgb(135,135,135)" stroke="none" d="M 9603,22990 L 9603,22924 11366,21905 11366,23015 8487,24679 8487,23569 9489,22990 9603,22990 Z M 9589,22976 L 9513,22976 9589,22932 9589,22976 Z"/>
      <path fill="rgb(136,136,136)" stroke="none" d="M 9589,22976 L 9589,22932 11366,21905 11366,23015 8487,24679 8487,23569 9513,22976 9589,22976 Z M 9575,22962 L 9537,22962 9575,22940 9575,22962 Z"/>
      <path fill="rgb(137,137,137)" stroke="none" d="M 9575,22962 L 9575,22940 11366,21905 11366,23015 8487,24679 8487,23569 9537,22962 9575,22962 Z"/>
      <path fill="rgb(138,138,138)" stroke="none" d="M 8487,24679 L 8487,23569 11366,21905 11366,23015 8487,24679 Z"/>
      <path fill="rgb(139,139,139)" stroke="none" d="M 8487,24679 L 8487,23569 11366,21905 11366,23015 8487,24679 Z"/>
      <path fill="rgb(140,140,140)" stroke="none" d="M 8487,24679 L 8487,23569 11366,21905 11366,23015 8487,24679 Z"/>
      <path fill="rgb(141,141,141)" stroke="none" d="M 8487,24679 L 8487,23569 11366,21905 11366,23015 8487,24679 Z"/>
      <path fill="rgb(142,142,142)" stroke="none" d="M 8487,24679 L 8487,23569 11366,21905 11366,23015 8487,24679 Z"/>
      <path fill="rgb(143,143,143)" stroke="none" d="M 8487,24679 L 8487,23569 11366,21905 11366,23015 8487,24679 Z"/>
      <path fill="rgb(144,144,144)" stroke="none" d="M 8487,24679 L 8487,23569 11366,21905 11366,23015 8487,24679 Z"/>
      <path fill="rgb(145,145,145)" stroke="none" d="M 8487,24679 L 8487,23569 11366,21905 11366,23015 8487,24679 Z"/>
      <path fill="rgb(146,146,146)" stroke="none" d="M 8487,24679 L 8487,23569 11366,21905 11366,23015 8487,24679 Z"/>
      <path fill="rgb(147,147,147)" stroke="none" d="M 8487,24679 L 8487,23569 11366,21905 11366,23015 8487,24679 Z"/>
      <path fill="rgb(148,148,148)" stroke="none" d="M 8487,24679 L 8487,23569 11366,21905 11366,23015 8487,24679 Z"/>
      <path fill="rgb(149,149,149)" stroke="none" d="M 8487,24679 L 8487,23569 11366,21905 11366,23015 8487,24679 Z"/>
      <path fill="rgb(150,150,150)" stroke="none" d="M 8487,24679 L 8487,23569 11366,21905 11366,23015 8487,24679 Z"/>
      <path fill="rgb(151,151,151)" stroke="none" d="M 8487,24679 L 8487,23569 11366,21905 11366,23015 8487,24679 Z"/>
      <path fill="rgb(153,153,153)" stroke="none" d="M 8487,24679 L 8487,23569 11366,21905 11366,23015 8487,24679 Z"/>
      <path fill="none" stroke="rgb(178,178,178)" id="Drawing_3_0" stroke-width="40" stroke-linejoin="round" d="M 8487,24679 L 8487,23569 11366,21905 11366,23015 8487,24679 Z"/>
     </g>
     <g>
      <defs>
       <linearGradient id="Gradient_1038" gradientUnits="userSpaceOnUse" x1="8247" y1="19963" x2="8247" y2="23569">
        <stop offset="0.1" stop-color="rgb(51,51,51)"/>
        <stop offset="1" stop-color="rgb(153,153,153)"/>
       </linearGradient>
      </defs>
      <path fill="url(#Gradient_1038)" stroke="rgb(178,178,178)" id="Drawing_4_0" stroke-width="40" stroke-linejoin="round" d="M 8487,23569 L 5128,21627 8007,19963 11367,21905 8487,23569 Z"/>
     </g>
     <g>
      <path fill="none" stroke="rgb(153,153,153)" id="Drawing_5_0" stroke-width="40" stroke-linejoin="round" d="M 6280,22515 L 6280,23181"/>
     </g>
     <g>
      <path fill="none" stroke="rgb(178,178,178)" id="Drawing_6_0" stroke-width="40" stroke-linejoin="round" d="M 8392,23936 L 6856,23048"/>
     </g>
     <g>
      <path fill="none" stroke="rgb(178,178,178)" id="Drawing_7_0" stroke-width="40" stroke-linejoin="round" d="M 6847,22848 L 6847,23070"/>
     </g>
     <g>
      <path fill="none" stroke="rgb(102,102,102)" id="Drawing_8_0" stroke-width="40" stroke-linejoin="round" d="M 8383,23736 L 8383,23958"/>
     </g>
     <g>
      <path fill="none" stroke="rgb(102,102,102)" id="Drawing_9_0" stroke-width="40" stroke-linejoin="round" d="M 8383,23736 L 6847,22848"/>
     </g>
     <g>
      <path fill="rgb(57,181,74)" stroke="none" d="M 6472,22848 L 6472,22626 6664,22737 6664,22959 6472,22848 Z"/>
      <path fill="none" stroke="rgb(102,102,102)" id="Drawing_10_0" stroke-width="40" stroke-linejoin="round" d="M 6472,22848 L 6472,22626 6664,22737 6664,22959 6472,22848 Z"/>
     </g>
     <g>
      <path fill="none" stroke="rgb(153,153,153)" id="Drawing_11_0" stroke-width="40" stroke-linejoin="round" d="M 6088,22404 L 6088,23070"/>
     </g>
     <g>
      <path fill="none" stroke="rgb(153,153,153)" id="Drawing_12_0" stroke-width="40" stroke-linejoin="round" d="M 5896,22293 L 5896,22959"/>
     </g>
     <g>
      <path fill="none" stroke="rgb(153,153,153)" id="Drawing_13_0" stroke-width="40" stroke-linejoin="round" d="M 5704,22182 L 5704,22848"/>
     </g>
     <g>
      <path fill="none" stroke="rgb(153,153,153)" id="Drawing_14_0" stroke-width="40" stroke-linejoin="round" d="M 5512,22071 L 5512,22737"/>
     </g>
     <g>
      <path fill="none" stroke="rgb(153,153,153)" id="Drawing_15_0" stroke-width="40" stroke-linejoin="round" d="M 5320,21960 L 5320,22626"/>
     </g>
     <g>
      <defs>
       <linearGradient id="Gradient_1039" gradientUnits="userSpaceOnUse" x1="4935" y1="22126" x2="5129" y2="22126">
        <stop offset="0.1" stop-color="rgb(51,51,51)"/>
        <stop offset="1" stop-color="rgb(153,153,153)"/>
       </linearGradient>
      </defs>
      <path fill="url(#Gradient_1039)" stroke="rgb(178,178,178)" id="Drawing_16_0" stroke-width="40" stroke-linejoin="round" d="M 4936,22626 L 4936,21516 5128,21627 5128,22737 4936,22626 Z"/>
     </g>
     <g>
      <defs>
       <linearGradient id="Gradient_1040" gradientUnits="userSpaceOnUse" x1="8486" y1="24179" x2="8680" y2="24179">
        <stop offset="0.1" stop-color="rgb(51,51,51)"/>
        <stop offset="1" stop-color="rgb(153,153,153)"/>
       </linearGradient>
      </defs>
      <path fill="url(#Gradient_1040)" stroke="rgb(178,178,178)" id="Drawing_17_0" stroke-width="40" stroke-linejoin="round" d="M 8487,24679 L 8487,23569 8679,23680 8679,24790 8487,24679 Z"/>
     </g>
     <g>
      <path fill="none" stroke="rgb(0,0,0)" id="Drawing_18_0" stroke-width="40" stroke-linejoin="round" d="M 4936,22626 L 4936,21516 5128,21627 8007,19963 11367,21905 11367,23014 8679,24568 8679,24790 4936,22626 Z"/>
     </g>
    </g>
   </g>
   <g id="DrawingGroup_4">
    <g>
     <path fill="rgb(0,115,188)" stroke="none" d="M 10297,24336 L 9583,24336 9576,24326 9551,24284 9530,24240 9513,24193 9501,24144 9494,24092 9491,24039 9494,23986 9501,23935 9513,23885 9530,23838 9551,23794 9576,23752 9605,23713 9638,23678 9674,23645 9713,23616 9755,23592 9799,23571 9847,23554 9896,23542 9948,23535 10001,23532 10054,23535 10106,23542 10155,23554 10203,23571 10248,23592 10290,23616 10297,23621 10297,24336 Z"/>
     <path fill="rgb(2,116,188)" stroke="none" d="M 10297,24336 L 10297,23621 10329,23645 10365,23678 10398,23713 10427,23752 10452,23794 10473,23838 10490,23885 10502,23935 10509,23986 10512,24039 10509,24092 10502,24144 10490,24193 10473,24240 10452,24284 10427,24326 10398,24365 10365,24401 10329,24433 10290,24462 10248,24487 10203,24508 10155,24525 10106,24537 10054,24544 10001,24547 9948,24544 9896,24537 9847,24525 9799,24508 9755,24487 9713,24462 9674,24433 9638,24401 9605,24365 9583,24336 10297,24336 Z M 10287,24326 L 9576,24326 9551,24284 9530,24240 9513,24193 9501,24144 9494,24092 9491,24039 9494,23986 9501,23935 9513,23885 9530,23838 9551,23794 9576,23752 9605,23713 9638,23678 9674,23645 9713,23616 9755,23592 9799,23571 9847,23554 9896,23542 9948,23535 10001,23532 10054,23535 10106,23542 10155,23554 10203,23571 10248,23592 10287,23614 10287,24326 Z"/>
     <path fill="rgb(4,117,189)" stroke="none" d="M 10287,24326 L 10287,23614 10290,23616 10329,23645 10365,23678 10398,23713 10427,23752 10452,23794 10473,23838 10490,23885 10502,23935 10509,23986 10512,24039 10509,24092 10502,24144 10490,24193 10473,24240 10452,24284 10427,24326 10398,24365 10365,24401 10329,24433 10290,24462 10248,24487 10203,24508 10155,24525 10106,24537 10054,24544 10001,24547 9948,24544 9896,24537 9847,24525 9799,24508 9755,24487 9713,24462 9674,24433 9638,24401 9605,24365 9576,24326 10287,24326 Z M 10277,24316 L 9570,24316 9551,24284 9530,24240 9513,24193 9501,24144 9494,24092 9491,24039 9494,23986 9501,23935 9513,23885 9530,23838 9551,23794 9576,23752 9605,23713 9638,23678 9674,23645 9713,23616 9755,23592 9799,23571 9847,23554 9896,23542 9948,23535 10001,23532 10054,23535 10106,23542 10155,23554 10203,23571 10248,23592 10277,23609 10277,24316 Z"/>
     <path fill="rgb(7,119,189)" stroke="none" d="M 10277,24316 L 10277,23609 10290,23616 10329,23645 10365,23678 10398,23713 10427,23752 10452,23794 10473,23838 10490,23885 10502,23935 10509,23986 10512,24039 10509,24092 10502,24144 10490,24193 10473,24240 10452,24284 10427,24326 10398,24365 10365,24401 10329,24433 10290,24462 10248,24487 10203,24508 10155,24525 10106,24537 10054,24544 10001,24547 9948,24544 9896,24537 9847,24525 9799,24508 9755,24487 9713,24462 9674,24433 9638,24401 9605,24365 9576,24326 9570,24316 10277,24316 Z M 10267,24306 L 9564,24306 9551,24284 9530,24240 9513,24193 9501,24144 9494,24092 9491,24039 9494,23986 9501,23935 9513,23885 9530,23838 9551,23794 9576,23752 9605,23713 9638,23678 9674,23645 9713,23616 9755,23592 9799,23571 9847,23554 9896,23542 9948,23535 10001,23532 10054,23535 10106,23542 10155,23554 10203,23571 10248,23592 10267,23603 10267,24306 Z"/>
     <path fill="rgb(9,120,190)" stroke="none" d="M 10267,24306 L 10267,23603 10290,23616 10329,23645 10365,23678 10398,23713 10427,23752 10452,23794 10473,23838 10490,23885 10502,23935 10509,23986 10512,24039 10509,24092 10502,24144 10490,24193 10473,24240 10452,24284 10427,24326 10398,24365 10365,24401 10329,24433 10290,24462 10248,24487 10203,24508 10155,24525 10106,24537 10054,24544 10001,24547 9948,24544 9896,24537 9847,24525 9799,24508 9755,24487 9713,24462 9674,24433 9638,24401 9605,24365 9576,24326 9564,24306 10267,24306 Z M 10257,24296 L 9558,24296 9551,24284 9530,24240 9513,24193 9501,24144 9494,24092 9491,24039 9494,23986 9501,23935 9513,23885 9530,23838 9551,23794 9576,23752 9605,23713 9638,23678 9674,23645 9713,23616 9755,23592 9799,23571 9847,23554 9896,23542 9948,23535 10001,23532 10054,23535 10106,23542 10155,23554 10203,23571 10248,23592 10257,23597 10257,24296 Z"/>
     <path fill="rgb(12,121,191)" stroke="none" d="M 10257,24296 L 10257,23597 10290,23616 10329,23645 10365,23678 10398,23713 10427,23752 10452,23794 10473,23838 10490,23885 10502,23935 10509,23986 10512,24039 10509,24092 10502,24144 10490,24193 10473,24240 10452,24284 10427,24326 10398,24365 10365,24401 10329,24433 10290,24462 10248,24487 10203,24508 10155,24525 10106,24537 10054,24544 10001,24547 9948,24544 9896,24537 9847,24525 9799,24508 9755,24487 9713,24462 9674,24433 9638,24401 9605,24365 9576,24326 9558,24296 10257,24296 Z M 10247,24286 L 9552,24286 9551,24284 9530,24240 9513,24193 9501,24144 9494,24092 9491,24039 9494,23986 9501,23935 9513,23885 9530,23838 9551,23794 9576,23752 9605,23713 9638,23678 9674,23645 9713,23616 9755,23592 9799,23571 9847,23554 9896,23542 9948,23535 10001,23532 10054,23535 10106,23542 10155,23554 10203,23571 10247,23592 10247,24286 Z"/>
     <path fill="rgb(14,123,191)" stroke="none" d="M 10247,24286 L 10247,23592 10248,23592 10290,23616 10329,23645 10365,23678 10398,23713 10427,23752 10452,23794 10473,23838 10490,23885 10502,23935 10509,23986 10512,24039 10509,24092 10502,24144 10490,24193 10473,24240 10452,24284 10427,24326 10398,24365 10365,24401 10329,24433 10290,24462 10248,24487 10203,24508 10155,24525 10106,24537 10054,24544 10001,24547 9948,24544 9896,24537 9847,24525 9799,24508 9755,24487 9713,24462 9674,24433 9638,24401 9605,24365 9576,24326 9552,24286 10247,24286 Z M 10237,24276 L 9547,24276 9530,24240 9513,24193 9501,24144 9494,24092 9491,24039 9494,23986 9501,23935 9513,23885 9530,23838 9551,23794 9576,23752 9605,23713 9638,23678 9674,23645 9713,23616 9755,23592 9799,23571 9847,23554 9896,23542 9948,23535 10001,23532 10054,23535 10106,23542 10155,23554 10203,23571 10237,23587 10237,24276 Z"/>
     <path fill="rgb(17,124,192)" stroke="none" d="M 10237,24276 L 10237,23587 10248,23592 10290,23616 10329,23645 10365,23678 10398,23713 10427,23752 10452,23794 10473,23838 10490,23885 10502,23935 10509,23986 10512,24039 10509,24092 10502,24144 10490,24193 10473,24240 10452,24284 10427,24326 10398,24365 10365,24401 10329,24433 10290,24462 10248,24487 10203,24508 10155,24525 10106,24537 10054,24544 10001,24547 9948,24544 9896,24537 9847,24525 9799,24508 9755,24487 9713,24462 9674,24433 9638,24401 9605,24365 9576,24326 9551,24284 9547,24276 10237,24276 Z M 10227,24266 L 9542,24266 9530,24240 9513,24193 9501,24144 9494,24092 9491,24039 9494,23986 9501,23935 9513,23885 9530,23838 9551,23794 9576,23752 9605,23713 9638,23678 9674,23645 9713,23616 9755,23592 9799,23571 9847,23554 9896,23542 9948,23535 10001,23532 10054,23535 10106,23542 10155,23554 10203,23571 10227,23582 10227,24266 Z"/>
     <path fill="rgb(19,125,193)" stroke="none" d="M 10227,24266 L 10227,23582 10248,23592 10290,23616 10329,23645 10365,23678 10398,23713 10427,23752 10452,23794 10473,23838 10490,23885 10502,23935 10509,23986 10512,24039 10509,24092 10502,24144 10490,24193 10473,24240 10452,24284 10427,24326 10398,24365 10365,24401 10329,24433 10290,24462 10248,24487 10203,24508 10155,24525 10106,24537 10054,24544 10001,24547 9948,24544 9896,24537 9847,24525 9799,24508 9755,24487 9713,24462 9674,24433 9638,24401 9605,24365 9576,24326 9551,24284 9542,24266 10227,24266 Z M 10217,24256 L 9538,24256 9530,24240 9513,24193 9501,24144 9494,24092 9491,24039 9494,23986 9501,23935 9513,23885 9530,23838 9551,23794 9576,23752 9605,23713 9638,23678 9674,23645 9713,23616 9755,23592 9799,23571 9847,23554 9896,23542 9948,23535 10001,23532 10054,23535 10106,23542 10155,23554 10203,23571 10217,23578 10217,24256 Z"/>
     <path fill="rgb(22,127,193)" stroke="none" d="M 10217,24256 L 10217,23578 10248,23592 10290,23616 10329,23645 10365,23678 10398,23713 10427,23752 10452,23794 10473,23838 10490,23885 10502,23935 10509,23986 10512,24039 10509,24092 10502,24144 10490,24193 10473,24240 10452,24284 10427,24326 10398,24365 10365,24401 10329,24433 10290,24462 10248,24487 10203,24508 10155,24525 10106,24537 10054,24544 10001,24547 9948,24544 9896,24537 9847,24525 9799,24508 9755,24487 9713,24462 9674,24433 9638,24401 9605,24365 9576,24326 9551,24284 9538,24256 10217,24256 Z M 10207,24246 L 9533,24246 9530,24240 9513,24193 9501,24144 9494,24092 9491,24039 9494,23986 9501,23935 9513,23885 9530,23838 9551,23794 9576,23752 9605,23713 9638,23678 9674,23645 9713,23616 9755,23592 9799,23571 9847,23554 9896,23542 9948,23535 10001,23532 10054,23535 10106,23542 10155,23554 10203,23571 10207,23573 10207,24246 Z"/>
     <path fill="rgb(24,128,194)" stroke="none" d="M 10207,24246 L 10207,23573 10248,23592 10290,23616 10329,23645 10365,23678 10398,23713 10427,23752 10452,23794 10473,23838 10490,23885 10502,23935 10509,23986 10512,24039 10509,24092 10502,24144 10490,24193 10473,24240 10452,24284 10427,24326 10398,24365 10365,24401 10329,24433 10290,24462 10248,24487 10203,24508 10155,24525 10106,24537 10054,24544 10001,24547 9948,24544 9896,24537 9847,24525 9799,24508 9755,24487 9713,24462 9674,24433 9638,24401 9605,24365 9576,24326 9551,24284 9533,24246 10207,24246 Z M 10197,24236 L 9529,24236 9513,24193 9501,24144 9494,24092 9491,24039 9494,23986 9501,23935 9513,23885 9530,23838 9551,23794 9576,23752 9605,23713 9638,23678 9674,23645 9713,23616 9755,23592 9799,23571 9847,23554 9896,23542 9948,23535 10001,23532 10054,23535 10106,23542 10155,23554 10197,23569 10197,24236 Z"/>
     <path fill="rgb(27,130,195)" stroke="none" d="M 10197,24236 L 10197,23569 10203,23571 10248,23592 10290,23616 10329,23645 10365,23678 10398,23713 10427,23752 10452,23794 10473,23838 10490,23885 10502,23935 10509,23986 10512,24039 10509,24092 10502,24144 10490,24193 10473,24240 10452,24284 10427,24326 10398,24365 10365,24401 10329,24433 10290,24462 10248,24487 10203,24508 10155,24525 10106,24537 10054,24544 10001,24547 9948,24544 9896,24537 9847,24525 9799,24508 9755,24487 9713,24462 9674,24433 9638,24401 9605,24365 9576,24326 9551,24284 9530,24240 9529,24236 10197,24236 Z M 10187,24226 L 9525,24226 9513,24193 9501,24144 9494,24092 9491,24039 9494,23986 9501,23935 9513,23885 9530,23838 9551,23794 9576,23752 9605,23713 9638,23678 9674,23645 9713,23616 9755,23592 9799,23571 9847,23554 9896,23542 9948,23535 10001,23532 10054,23535 10106,23542 10155,23554 10187,23565 10187,24226 Z"/>
     <path fill="rgb(29,131,195)" stroke="none" d="M 10187,24226 L 10187,23565 10203,23571 10248,23592 10290,23616 10329,23645 10365,23678 10398,23713 10427,23752 10452,23794 10473,23838 10490,23885 10502,23935 10509,23986 10512,24039 10509,24092 10502,24144 10490,24193 10473,24240 10452,24284 10427,24326 10398,24365 10365,24401 10329,24433 10290,24462 10248,24487 10203,24508 10155,24525 10106,24537 10054,24544 10001,24547 9948,24544 9896,24537 9847,24525 9799,24508 9755,24487 9713,24462 9674,24433 9638,24401 9605,24365 9576,24326 9551,24284 9530,24240 9525,24226 10187,24226 Z M 10177,24216 L 9521,24216 9513,24193 9501,24144 9494,24092 9491,24039 9494,23986 9501,23935 9513,23885 9530,23838 9551,23794 9576,23752 9605,23713 9638,23678 9674,23645 9713,23616 9755,23592 9799,23571 9847,23554 9896,23542 9948,23535 10001,23532 10054,23535 10106,23542 10155,23554 10177,23562 10177,24216 Z"/>
     <path fill="rgb(32,132,196)" stroke="none" d="M 10177,24216 L 10177,23562 10203,23571 10248,23592 10290,23616 10329,23645 10365,23678 10398,23713 10427,23752 10452,23794 10473,23838 10490,23885 10502,23935 10509,23986 10512,24039 10509,24092 10502,24144 10490,24193 10473,24240 10452,24284 10427,24326 10398,24365 10365,24401 10329,24433 10290,24462 10248,24487 10203,24508 10155,24525 10106,24537 10054,24544 10001,24547 9948,24544 9896,24537 9847,24525 9799,24508 9755,24487 9713,24462 9674,24433 9638,24401 9605,24365 9576,24326 9551,24284 9530,24240 9521,24216 10177,24216 Z M 10167,24206 L 9518,24206 9513,24193 9501,24144 9494,24092 9491,24039 9494,23986 9501,23935 9513,23885 9530,23838 9551,23794 9576,23752 9605,23713 9638,23678 9674,23645 9713,23616 9755,23592 9799,23571 9847,23554 9896,23542 9948,23535 10001,23532 10054,23535 10106,23542 10155,23554 10167,23558 10167,24206 Z"/>
     <path fill="rgb(34,134,197)" stroke="none" d="M 10167,24206 L 10167,23558 10203,23571 10248,23592 10290,23616 10329,23645 10365,23678 10398,23713 10427,23752 10452,23794 10473,23838 10490,23885 10502,23935 10509,23986 10512,24039 10509,24092 10502,24144 10490,24193 10473,24240 10452,24284 10427,24326 10398,24365 10365,24401 10329,24433 10290,24462 10248,24487 10203,24508 10155,24525 10106,24537 10054,24544 10001,24547 9948,24544 9896,24537 9847,24525 9799,24508 9755,24487 9713,24462 9674,24433 9638,24401 9605,24365 9576,24326 9551,24284 9530,24240 9518,24206 10167,24206 Z M 10157,24196 L 9514,24196 9513,24193 9501,24144 9494,24092 9491,24039 9494,23986 9501,23935 9513,23885 9530,23838 9551,23794 9576,23752 9605,23713 9638,23678 9674,23645 9713,23616 9755,23592 9799,23571 9847,23554 9896,23542 9948,23535 10001,23532 10054,23535 10106,23542 10155,23554 10157,23555 10157,24196 Z"/>
     <path fill="rgb(37,135,197)" stroke="none" d="M 10157,24196 L 10157,23555 10203,23571 10248,23592 10290,23616 10329,23645 10365,23678 10398,23713 10427,23752 10452,23794 10473,23838 10490,23885 10502,23935 10509,23986 10512,24039 10509,24092 10502,24144 10490,24193 10473,24240 10452,24284 10427,24326 10398,24365 10365,24401 10329,24433 10290,24462 10248,24487 10203,24508 10155,24525 10106,24537 10054,24544 10001,24547 9948,24544 9896,24537 9847,24525 9799,24508 9755,24487 9713,24462 9674,24433 9638,24401 9605,24365 9576,24326 9551,24284 9530,24240 9514,24196 10157,24196 Z M 10147,24186 L 9511,24186 9501,24144 9494,24092 9491,24039 9494,23986 9501,23935 9513,23885 9530,23838 9551,23794 9576,23752 9605,23713 9638,23678 9674,23645 9713,23616 9755,23592 9799,23571 9847,23554 9896,23542 9948,23535 10001,23532 10054,23535 10106,23542 10147,23552 10147,24186 Z"/>
     <path fill="rgb(39,136,198)" stroke="none" d="M 10147,24186 L 10147,23552 10155,23554 10203,23571 10248,23592 10290,23616 10329,23645 10365,23678 10398,23713 10427,23752 10452,23794 10473,23838 10490,23885 10502,23935 10509,23986 10512,24039 10509,24092 10502,24144 10490,24193 10473,24240 10452,24284 10427,24326 10398,24365 10365,24401 10329,24433 10290,24462 10248,24487 10203,24508 10155,24525 10106,24537 10054,24544 10001,24547 9948,24544 9896,24537 9847,24525 9799,24508 9755,24487 9713,24462 9674,24433 9638,24401 9605,24365 9576,24326 9551,24284 9530,24240 9513,24193 9511,24186 10147,24186 Z M 10137,24176 L 9509,24176 9501,24144 9494,24092 9491,24039 9494,23986 9501,23935 9513,23885 9530,23838 9551,23794 9576,23752 9605,23713 9638,23678 9674,23645 9713,23616 9755,23592 9799,23571 9847,23554 9896,23542 9948,23535 10001,23532 10054,23535 10106,23542 10137,23550 10137,24176 Z"/>
     <path fill="rgb(42,138,199)" stroke="none" d="M 10137,24176 L 10137,23550 10155,23554 10203,23571 10248,23592 10290,23616 10329,23645 10365,23678 10398,23713 10427,23752 10452,23794 10473,23838 10490,23885 10502,23935 10509,23986 10512,24039 10509,24092 10502,24144 10490,24193 10473,24240 10452,24284 10427,24326 10398,24365 10365,24401 10329,24433 10290,24462 10248,24487 10203,24508 10155,24525 10106,24537 10054,24544 10001,24547 9948,24544 9896,24537 9847,24525 9799,24508 9755,24487 9713,24462 9674,24433 9638,24401 9605,24365 9576,24326 9551,24284 9530,24240 9513,24193 9509,24176 10137,24176 Z M 10127,24166 L 9506,24166 9501,24144 9494,24092 9491,24039 9494,23986 9501,23935 9513,23885 9530,23838 9551,23794 9576,23752 9605,23713 9638,23678 9674,23645 9713,23616 9755,23592 9799,23571 9847,23554 9896,23542 9948,23535 10001,23532 10054,23535 10106,23542 10127,23547 10127,24166 Z"/>
     <path fill="rgb(44,139,199)" stroke="none" d="M 10127,24166 L 10127,23547 10155,23554 10203,23571 10248,23592 10290,23616 10329,23645 10365,23678 10398,23713 10427,23752 10452,23794 10473,23838 10490,23885 10502,23935 10509,23986 10512,24039 10509,24092 10502,24144 10490,24193 10473,24240 10452,24284 10427,24326 10398,24365 10365,24401 10329,24433 10290,24462 10248,24487 10203,24508 10155,24525 10106,24537 10054,24544 10001,24547 9948,24544 9896,24537 9847,24525 9799,24508 9755,24487 9713,24462 9674,24433 9638,24401 9605,24365 9576,24326 9551,24284 9530,24240 9513,24193 9506,24166 10127,24166 Z M 10117,24156 L 9504,24156 9501,24144 9494,24092 9491,24039 9494,23986 9501,23935 9513,23885 9530,23838 9551,23794 9576,23752 9605,23713 9638,23678 9674,23645 9713,23616 9755,23592 9799,23571 9847,23554 9896,23542 9948,23535 10001,23532 10054,23535 10106,23542 10117,23545 10117,24156 Z"/>
     <path fill="rgb(47,141,200)" stroke="none" d="M 10117,24156 L 10117,23545 10155,23554 10203,23571 10248,23592 10290,23616 10329,23645 10365,23678 10398,23713 10427,23752 10452,23794 10473,23838 10490,23885 10502,23935 10509,23986 10512,24039 10509,24092 10502,24144 10490,24193 10473,24240 10452,24284 10427,24326 10398,24365 10365,24401 10329,24433 10290,24462 10248,24487 10203,24508 10155,24525 10106,24537 10054,24544 10001,24547 9948,24544 9896,24537 9847,24525 9799,24508 9755,24487 9713,24462 9674,24433 9638,24401 9605,24365 9576,24326 9551,24284 9530,24240 9513,24193 9504,24156 10117,24156 Z M 10107,24146 L 9501,24146 9501,24144 9494,24092 9491,24039 9494,23986 9501,23935 9513,23885 9530,23838 9551,23794 9576,23752 9605,23713 9638,23678 9674,23645 9713,23616 9755,23592 9799,23571 9847,23554 9896,23542 9948,23535 10001,23532 10054,23535 10106,23542 10107,23542 10107,24146 Z"/>
     <path fill="rgb(49,142,200)" stroke="none" d="M 10107,24146 L 10107,23542 10155,23554 10203,23571 10248,23592 10290,23616 10329,23645 10365,23678 10398,23713 10427,23752 10452,23794 10473,23838 10490,23885 10502,23935 10509,23986 10512,24039 10509,24092 10502,24144 10490,24193 10473,24240 10452,24284 10427,24326 10398,24365 10365,24401 10329,24433 10290,24462 10248,24487 10203,24508 10155,24525 10106,24537 10054,24544 10001,24547 9948,24544 9896,24537 9847,24525 9799,24508 9755,24487 9713,24462 9674,24433 9638,24401 9605,24365 9576,24326 9551,24284 9530,24240 9513,24193 9501,24146 10107,24146 Z M 10036,23534 L 10054,23535 10097,23541 10097,24136 9500,24136 9495,24099 9495,23979 9501,23935 9513,23885 9530,23838 9551,23794 9576,23752 9605,23713 9638,23678 9674,23645 9713,23616 9755,23592 9799,23571 9847,23554 9896,23542 9948,23535 9966,23534 10036,23534 Z"/>
     <path fill="rgb(52,143,201)" stroke="none" d="M 9495,24099 L 9494,24092 9491,24039 9494,23986 9495,23979 9495,24099 Z M 10097,24136 L 10097,23541 10106,23542 10155,23554 10203,23571 10248,23592 10290,23616 10329,23645 10365,23678 10398,23713 10427,23752 10452,23794 10473,23838 10490,23885 10502,23935 10509,23986 10512,24039 10509,24092 10502,24144 10490,24193 10473,24240 10452,24284 10427,24326 10398,24365 10365,24401 10329,24433 10290,24462 10248,24487 10203,24508 10155,24525 10106,24537 10054,24544 10001,24547 9948,24544 9896,24537 9847,24525 9799,24508 9755,24487 9713,24462 9674,24433 9638,24401 9605,24365 9576,24326 9551,24284 9530,24240 9513,24193 9501,24144 9500,24136 10097,24136 Z M 9966,23534 L 10001,23532 10036,23534 9966,23534 Z M 10087,23544 L 10087,24126 9505,24126 9505,23918 9513,23885 9530,23838 9551,23794 9576,23752 9605,23713 9638,23678 9674,23645 9713,23616 9755,23592 9799,23571 9847,23554 9888,23544 10087,23544 Z"/>
     <path fill="rgb(54,145,202)" stroke="none" d="M 9505,24126 L 10087,24126 10087,23544 9888,23544 9896,23542 9948,23535 10001,23532 10054,23535 10106,23542 10155,23554 10203,23571 10248,23592 10290,23616 10329,23645 10365,23678 10398,23713 10427,23752 10452,23794 10473,23838 10490,23885 10502,23935 10509,23986 10512,24039 10509,24092 10502,24144 10490,24193 10473,24240 10452,24284 10427,24326 10398,24365 10365,24401 10329,24433 10290,24462 10248,24487 10203,24508 10155,24525 10106,24537 10054,24544 10001,24547 9948,24544 9896,24537 9847,24525 9799,24508 9755,24487 9713,24462 9674,24433 9638,24401 9605,24365 9576,24326 9551,24284 9530,24240 9513,24193 9501,24144 9494,24092 9491,24039 9494,23986 9501,23935 9505,23918 9505,24126 Z M 10077,23554 L 10077,24116 9515,24116 9515,23879 9530,23838 9551,23794 9576,23752 9605,23713 9638,23678 9674,23645 9713,23616 9755,23592 9799,23571 9847,23554 10077,23554 Z"/>
     <path fill="rgb(57,146,202)" stroke="none" d="M 9515,24116 L 10077,24116 10077,23554 9847,23554 9896,23542 9948,23535 10001,23532 10054,23535 10106,23542 10155,23554 10203,23571 10248,23592 10290,23616 10329,23645 10365,23678 10398,23713 10427,23752 10452,23794 10473,23838 10490,23885 10502,23935 10509,23986 10512,24039 10509,24092 10502,24144 10490,24193 10473,24240 10452,24284 10427,24326 10398,24365 10365,24401 10329,24433 10290,24462 10248,24487 10203,24508 10155,24525 10106,24537 10054,24544 10001,24547 9948,24544 9896,24537 9847,24525 9799,24508 9755,24487 9713,24462 9674,24433 9638,24401 9605,24365 9576,24326 9551,24284 9530,24240 9513,24193 9501,24144 9494,24092 9491,24039 9494,23986 9501,23935 9513,23885 9515,23879 9515,24116 Z M 10067,23564 L 10067,24106 9525,24106 9525,23852 9530,23838 9551,23794 9576,23752 9605,23713 9638,23678 9674,23645 9713,23616 9755,23592 9799,23571 9819,23564 10067,23564 Z"/>
     <path fill="rgb(59,147,203)" stroke="none" d="M 9525,24106 L 10067,24106 10067,23564 9819,23564 9847,23554 9896,23542 9948,23535 10001,23532 10054,23535 10106,23542 10155,23554 10203,23571 10248,23592 10290,23616 10329,23645 10365,23678 10398,23713 10427,23752 10452,23794 10473,23838 10490,23885 10502,23935 10509,23986 10512,24039 10509,24092 10502,24144 10490,24193 10473,24240 10452,24284 10427,24326 10398,24365 10365,24401 10329,24433 10290,24462 10248,24487 10203,24508 10155,24525 10106,24537 10054,24544 10001,24547 9948,24544 9896,24537 9847,24525 9799,24508 9755,24487 9713,24462 9674,24433 9638,24401 9605,24365 9576,24326 9551,24284 9530,24240 9513,24193 9501,24144 9494,24092 9491,24039 9494,23986 9501,23935 9513,23885 9525,23852 9525,24106 Z M 10057,23574 L 10057,24096 9535,24096 9535,23828 9551,23794 9576,23752 9605,23713 9638,23678 9674,23645 9713,23616 9755,23592 9793,23574 10057,23574 Z"/>
     <path fill="rgb(62,149,204)" stroke="none" d="M 9535,24096 L 10057,24096 10057,23574 9793,23574 9799,23571 9847,23554 9896,23542 9948,23535 10001,23532 10054,23535 10106,23542 10155,23554 10203,23571 10248,23592 10290,23616 10329,23645 10365,23678 10398,23713 10427,23752 10452,23794 10473,23838 10490,23885 10502,23935 10509,23986 10512,24039 10509,24092 10502,24144 10490,24193 10473,24240 10452,24284 10427,24326 10398,24365 10365,24401 10329,24433 10290,24462 10248,24487 10203,24508 10155,24525 10106,24537 10054,24544 10001,24547 9948,24544 9896,24537 9847,24525 9799,24508 9755,24487 9713,24462 9674,24433 9638,24401 9605,24365 9576,24326 9551,24284 9530,24240 9513,24193 9501,24144 9494,24092 9491,24039 9494,23986 9501,23935 9513,23885 9530,23838 9535,23828 9535,24096 Z M 10046,23585 L 10046,24085 9546,24085 9546,23804 9551,23794 9576,23752 9605,23713 9638,23678 9674,23645 9713,23616 9755,23592 9770,23585 10046,23585 Z"/>
     <path fill="rgb(64,150,204)" stroke="none" d="M 9546,24085 L 10046,24085 10046,23585 9770,23585 9799,23571 9847,23554 9896,23542 9948,23535 10001,23532 10054,23535 10106,23542 10155,23554 10203,23571 10248,23592 10290,23616 10329,23645 10365,23678 10398,23713 10427,23752 10452,23794 10473,23838 10490,23885 10502,23935 10509,23986 10512,24039 10509,24092 10502,24144 10490,24193 10473,24240 10452,24284 10427,24326 10398,24365 10365,24401 10329,24433 10290,24462 10248,24487 10203,24508 10155,24525 10106,24537 10054,24544 10001,24547 9948,24544 9896,24537 9847,24525 9799,24508 9755,24487 9713,24462 9674,24433 9638,24401 9605,24365 9576,24326 9551,24284 9530,24240 9513,24193 9501,24144 9494,24092 9491,24039 9494,23986 9501,23935 9513,23885 9530,23838 9546,23804 9546,24085 Z M 10036,23595 L 10036,24075 9556,24075 9556,23786 9576,23752 9605,23713 9638,23678 9674,23645 9713,23616 9750,23595 10036,23595 Z"/>
     <path fill="rgb(67,152,205)" stroke="none" d="M 9556,24075 L 10036,24075 10036,23595 9750,23595 9755,23592 9799,23571 9847,23554 9896,23542 9948,23535 10001,23532 10054,23535 10106,23542 10155,23554 10203,23571 10248,23592 10290,23616 10329,23645 10365,23678 10398,23713 10427,23752 10452,23794 10473,23838 10490,23885 10502,23935 10509,23986 10512,24039 10509,24092 10502,24144 10490,24193 10473,24240 10452,24284 10427,24326 10398,24365 10365,24401 10329,24433 10290,24462 10248,24487 10203,24508 10155,24525 10106,24537 10054,24544 10001,24547 9948,24544 9896,24537 9847,24525 9799,24508 9755,24487 9713,24462 9674,24433 9638,24401 9605,24365 9576,24326 9551,24284 9530,24240 9513,24193 9501,24144 9494,24092 9491,24039 9494,23986 9501,23935 9513,23885 9530,23838 9551,23794 9556,23786 9556,24075 Z M 10026,23605 L 10026,24065 9566,24065 9566,23769 9576,23752 9605,23713 9638,23678 9674,23645 9713,23616 9732,23605 10026,23605 Z"/>
     <path fill="rgb(69,153,206)" stroke="none" d="M 9566,24065 L 10026,24065 10026,23605 9732,23605 9755,23592 9799,23571 9847,23554 9896,23542 9948,23535 10001,23532 10054,23535 10106,23542 10155,23554 10203,23571 10248,23592 10290,23616 10329,23645 10365,23678 10398,23713 10427,23752 10452,23794 10473,23838 10490,23885 10502,23935 10509,23986 10512,24039 10509,24092 10502,24144 10490,24193 10473,24240 10452,24284 10427,24326 10398,24365 10365,24401 10329,24433 10290,24462 10248,24487 10203,24508 10155,24525 10106,24537 10054,24544 10001,24547 9948,24544 9896,24537 9847,24525 9799,24508 9755,24487 9713,24462 9674,24433 9638,24401 9605,24365 9576,24326 9551,24284 9530,24240 9513,24193 9501,24144 9494,24092 9491,24039 9494,23986 9501,23935 9513,23885 9530,23838 9551,23794 9566,23769 9566,24065 Z M 10016,23615 L 10016,24055 9576,24055 9576,23752 9605,23713 9638,23678 9674,23645 9713,23616 9715,23615 10016,23615 Z"/>
     <path fill="rgb(72,154,206)" stroke="none" d="M 9576,24055 L 10016,24055 10016,23615 9715,23615 9755,23592 9799,23571 9847,23554 9896,23542 9948,23535 10001,23532 10054,23535 10106,23542 10155,23554 10203,23571 10248,23592 10290,23616 10329,23645 10365,23678 10398,23713 10427,23752 10452,23794 10473,23838 10490,23885 10502,23935 10509,23986 10512,24039 10509,24092 10502,24144 10490,24193 10473,24240 10452,24284 10427,24326 10398,24365 10365,24401 10329,24433 10290,24462 10248,24487 10203,24508 10155,24525 10106,24537 10054,24544 10001,24547 9948,24544 9896,24537 9847,24525 9799,24508 9755,24487 9713,24462 9674,24433 9638,24401 9605,24365 9576,24326 9551,24284 9530,24240 9513,24193 9501,24144 9494,24092 9491,24039 9494,23986 9501,23935 9513,23885 9530,23838 9551,23794 9576,23752 9576,24055 Z M 10006,23625 L 10006,24045 9586,24045 9586,23739 9605,23713 9638,23678 9674,23645 9701,23625 10006,23625 Z"/>
     <path fill="rgb(74,156,207)" stroke="none" d="M 9586,24045 L 10006,24045 10006,23625 9701,23625 9713,23616 9755,23592 9799,23571 9847,23554 9896,23542 9948,23535 10001,23532 10054,23535 10106,23542 10155,23554 10203,23571 10248,23592 10290,23616 10329,23645 10365,23678 10398,23713 10427,23752 10452,23794 10473,23838 10490,23885 10502,23935 10509,23986 10512,24039 10509,24092 10502,24144 10490,24193 10473,24240 10452,24284 10427,24326 10398,24365 10365,24401 10329,24433 10290,24462 10248,24487 10203,24508 10155,24525 10106,24537 10054,24544 10001,24547 9948,24544 9896,24537 9847,24525 9799,24508 9755,24487 9713,24462 9674,24433 9638,24401 9605,24365 9576,24326 9551,24284 9530,24240 9513,24193 9501,24144 9494,24092 9491,24039 9494,23986 9501,23935 9513,23885 9530,23838 9551,23794 9576,23752 9586,23739 9586,24045 Z M 9996,23635 L 9996,24035 9596,24035 9596,23725 9605,23713 9638,23678 9674,23645 9687,23635 9996,23635 Z"/>
     <path fill="rgb(77,157,208)" stroke="none" d="M 9596,24035 L 9996,24035 9996,23635 9687,23635 9713,23616 9755,23592 9799,23571 9847,23554 9896,23542 9948,23535 10001,23532 10054,23535 10106,23542 10155,23554 10203,23571 10248,23592 10290,23616 10329,23645 10365,23678 10398,23713 10427,23752 10452,23794 10473,23838 10490,23885 10502,23935 10509,23986 10512,24039 10509,24092 10502,24144 10490,24193 10473,24240 10452,24284 10427,24326 10398,24365 10365,24401 10329,24433 10290,24462 10248,24487 10203,24508 10155,24525 10106,24537 10054,24544 10001,24547 9948,24544 9896,24537 9847,24525 9799,24508 9755,24487 9713,24462 9674,24433 9638,24401 9605,24365 9576,24326 9551,24284 9530,24240 9513,24193 9501,24144 9494,24092 9491,24039 9494,23986 9501,23935 9513,23885 9530,23838 9551,23794 9576,23752 9596,23725 9596,24035 Z M 9986,23645 L 9986,24025 9606,24025 9606,23712 9638,23678 9674,23645 9986,23645 Z"/>
     <path fill="rgb(79,158,208)" stroke="none" d="M 9606,24025 L 9986,24025 9986,23645 9674,23645 9713,23616 9755,23592 9799,23571 9847,23554 9896,23542 9948,23535 10001,23532 10054,23535 10106,23542 10155,23554 10203,23571 10248,23592 10290,23616 10329,23645 10365,23678 10398,23713 10427,23752 10452,23794 10473,23838 10490,23885 10502,23935 10509,23986 10512,24039 10509,24092 10502,24144 10490,24193 10473,24240 10452,24284 10427,24326 10398,24365 10365,24401 10329,24433 10290,24462 10248,24487 10203,24508 10155,24525 10106,24537 10054,24544 10001,24547 9948,24544 9896,24537 9847,24525 9799,24508 9755,24487 9713,24462 9674,24433 9638,24401 9605,24365 9576,24326 9551,24284 9530,24240 9513,24193 9501,24144 9494,24092 9491,24039 9494,23986 9501,23935 9513,23885 9530,23838 9551,23794 9576,23752 9605,23713 9606,23712 9606,24025 Z M 9976,23655 L 9976,24015 9616,24015 9616,23701 9638,23678 9663,23655 9976,23655 Z"/>
     <path fill="rgb(82,160,209)" stroke="none" d="M 9616,24015 L 9976,24015 9976,23655 9663,23655 9674,23645 9713,23616 9755,23592 9799,23571 9847,23554 9896,23542 9948,23535 10001,23532 10054,23535 10106,23542 10155,23554 10203,23571 10248,23592 10290,23616 10329,23645 10365,23678 10398,23713 10427,23752 10452,23794 10473,23838 10490,23885 10502,23935 10509,23986 10512,24039 10509,24092 10502,24144 10490,24193 10473,24240 10452,24284 10427,24326 10398,24365 10365,24401 10329,24433 10290,24462 10248,24487 10203,24508 10155,24525 10106,24537 10054,24544 10001,24547 9948,24544 9896,24537 9847,24525 9799,24508 9755,24487 9713,24462 9674,24433 9638,24401 9605,24365 9576,24326 9551,24284 9530,24240 9513,24193 9501,24144 9494,24092 9491,24039 9494,23986 9501,23935 9513,23885 9530,23838 9551,23794 9576,23752 9605,23713 9616,23701 9616,24015 Z M 9966,23665 L 9966,24005 9626,24005 9626,23691 9638,23678 9652,23665 9966,23665 Z"/>
     <path fill="rgb(84,161,210)" stroke="none" d="M 9626,24005 L 9966,24005 9966,23665 9652,23665 9674,23645 9713,23616 9755,23592 9799,23571 9847,23554 9896,23542 9948,23535 10001,23532 10054,23535 10106,23542 10155,23554 10203,23571 10248,23592 10290,23616 10329,23645 10365,23678 10398,23713 10427,23752 10452,23794 10473,23838 10490,23885 10502,23935 10509,23986 10512,24039 10509,24092 10502,24144 10490,24193 10473,24240 10452,24284 10427,24326 10398,24365 10365,24401 10329,24433 10290,24462 10248,24487 10203,24508 10155,24525 10106,24537 10054,24544 10001,24547 9948,24544 9896,24537 9847,24525 9799,24508 9755,24487 9713,24462 9674,24433 9638,24401 9605,24365 9576,24326 9551,24284 9530,24240 9513,24193 9501,24144 9494,24092 9491,24039 9494,23986 9501,23935 9513,23885 9530,23838 9551,23794 9576,23752 9605,23713 9626,23691 9626,24005 Z M 9956,23675 L 9956,23995 9636,23995 9636,23680 9638,23678 9641,23675 9956,23675 Z"/>
     <path fill="rgb(87,163,210)" stroke="none" d="M 9636,23995 L 9956,23995 9956,23675 9641,23675 9674,23645 9713,23616 9755,23592 9799,23571 9847,23554 9896,23542 9948,23535 10001,23532 10054,23535 10106,23542 10155,23554 10203,23571 10248,23592 10290,23616 10329,23645 10365,23678 10398,23713 10427,23752 10452,23794 10473,23838 10490,23885 10502,23935 10509,23986 10512,24039 10509,24092 10502,24144 10490,24193 10473,24240 10452,24284 10427,24326 10398,24365 10365,24401 10329,24433 10290,24462 10248,24487 10203,24508 10155,24525 10106,24537 10054,24544 10001,24547 9948,24544 9896,24537 9847,24525 9799,24508 9755,24487 9713,24462 9674,24433 9638,24401 9605,24365 9576,24326 9551,24284 9530,24240 9513,24193 9501,24144 9494,24092 9491,24039 9494,23986 9501,23935 9513,23885 9530,23838 9551,23794 9576,23752 9605,23713 9636,23680 9636,23995 Z M 9646,23685 L 9946,23685 9946,23985 9646,23985 9646,23685 Z"/>
     <path fill="rgb(89,164,211)" stroke="none" d="M 9646,23685 L 9646,23985 9946,23985 9946,23685 9646,23685 Z M 9656,23695 L 9936,23695 9936,23975 9656,23975 9656,23695 Z M 10001,23532 L 10054,23535 10106,23542 10155,23554 10203,23571 10248,23592 10290,23616 10329,23645 10365,23678 10398,23713 10427,23752 10452,23794 10473,23838 10490,23885 10502,23935 10509,23986 10512,24039 10509,24092 10502,24144 10490,24193 10473,24240 10452,24284 10427,24326 10398,24365 10365,24401 10329,24433 10290,24462 10248,24487 10203,24508 10155,24525 10106,24537 10054,24544 10001,24547 9948,24544 9896,24537 9847,24525 9799,24508 9755,24487 9713,24462 9674,24433 9638,24401 9605,24365 9576,24326 9551,24284 9530,24240 9513,24193 9501,24144 9494,24092 9491,24039 9494,23986 9501,23935 9513,23885 9530,23838 9551,23794 9576,23752 9605,23713 9638,23678 9674,23645 9713,23616 9755,23592 9799,23571 9847,23554 9896,23542 9948,23535 10001,23532 Z"/>
     <path fill="rgb(92,165,211)" stroke="none" d="M 9656,23695 L 9656,23975 9936,23975 9936,23695 9656,23695 Z M 9666,23705 L 9926,23705 9926,23965 9666,23965 9666,23705 Z M 10001,23532 L 10054,23535 10106,23542 10155,23554 10203,23571 10248,23592 10290,23616 10329,23645 10365,23678 10398,23713 10427,23752 10452,23794 10473,23838 10490,23885 10502,23935 10509,23986 10512,24039 10509,24092 10502,24144 10490,24193 10473,24240 10452,24284 10427,24326 10398,24365 10365,24401 10329,24433 10290,24462 10248,24487 10203,24508 10155,24525 10106,24537 10054,24544 10001,24547 9948,24544 9896,24537 9847,24525 9799,24508 9755,24487 9713,24462 9674,24433 9638,24401 9605,24365 9576,24326 9551,24284 9530,24240 9513,24193 9501,24144 9494,24092 9491,24039 9494,23986 9501,23935 9513,23885 9530,23838 9551,23794 9576,23752 9605,23713 9638,23678 9674,23645 9713,23616 9755,23592 9799,23571 9847,23554 9896,23542 9948,23535 10001,23532 Z"/>
     <path fill="rgb(94,167,212)" stroke="none" d="M 9666,23705 L 9666,23965 9926,23965 9926,23705 9666,23705 Z M 9676,23715 L 9916,23715 9916,23955 9676,23955 9676,23715 Z M 10001,23532 L 10054,23535 10106,23542 10155,23554 10203,23571 10248,23592 10290,23616 10329,23645 10365,23678 10398,23713 10427,23752 10452,23794 10473,23838 10490,23885 10502,23935 10509,23986 10512,24039 10509,24092 10502,24144 10490,24193 10473,24240 10452,24284 10427,24326 10398,24365 10365,24401 10329,24433 10290,24462 10248,24487 10203,24508 10155,24525 10106,24537 10054,24544 10001,24547 9948,24544 9896,24537 9847,24525 9799,24508 9755,24487 9713,24462 9674,24433 9638,24401 9605,24365 9576,24326 9551,24284 9530,24240 9513,24193 9501,24144 9494,24092 9491,24039 9494,23986 9501,23935 9513,23885 9530,23838 9551,23794 9576,23752 9605,23713 9638,23678 9674,23645 9713,23616 9755,23592 9799,23571 9847,23554 9896,23542 9948,23535 10001,23532 Z"/>
     <path fill="rgb(97,168,213)" stroke="none" d="M 9676,23715 L 9676,23955 9916,23955 9916,23715 9676,23715 Z M 9686,23725 L 9906,23725 9906,23945 9686,23945 9686,23725 Z M 10001,23532 L 10054,23535 10106,23542 10155,23554 10203,23571 10248,23592 10290,23616 10329,23645 10365,23678 10398,23713 10427,23752 10452,23794 10473,23838 10490,23885 10502,23935 10509,23986 10512,24039 10509,24092 10502,24144 10490,24193 10473,24240 10452,24284 10427,24326 10398,24365 10365,24401 10329,24433 10290,24462 10248,24487 10203,24508 10155,24525 10106,24537 10054,24544 10001,24547 9948,24544 9896,24537 9847,24525 9799,24508 9755,24487 9713,24462 9674,24433 9638,24401 9605,24365 9576,24326 9551,24284 9530,24240 9513,24193 9501,24144 9494,24092 9491,24039 9494,23986 9501,23935 9513,23885 9530,23838 9551,23794 9576,23752 9605,23713 9638,23678 9674,23645 9713,23616 9755,23592 9799,23571 9847,23554 9896,23542 9948,23535 10001,23532 Z"/>
     <path fill="rgb(99,169,213)" stroke="none" d="M 9686,23725 L 9686,23945 9906,23945 9906,23725 9686,23725 Z M 9696,23735 L 9896,23735 9896,23935 9696,23935 9696,23735 Z M 10001,23532 L 10054,23535 10106,23542 10155,23554 10203,23571 10248,23592 10290,23616 10329,23645 10365,23678 10398,23713 10427,23752 10452,23794 10473,23838 10490,23885 10502,23935 10509,23986 10512,24039 10509,24092 10502,24144 10490,24193 10473,24240 10452,24284 10427,24326 10398,24365 10365,24401 10329,24433 10290,24462 10248,24487 10203,24508 10155,24525 10106,24537 10054,24544 10001,24547 9948,24544 9896,24537 9847,24525 9799,24508 9755,24487 9713,24462 9674,24433 9638,24401 9605,24365 9576,24326 9551,24284 9530,24240 9513,24193 9501,24144 9494,24092 9491,24039 9494,23986 9501,23935 9513,23885 9530,23838 9551,23794 9576,23752 9605,23713 9638,23678 9674,23645 9713,23616 9755,23592 9799,23571 9847,23554 9896,23542 9948,23535 10001,23532 Z"/>
     <path fill="rgb(102,171,214)" stroke="none" d="M 9696,23735 L 9696,23935 9896,23935 9896,23735 9696,23735 Z M 9706,23745 L 9886,23745 9886,23925 9706,23925 9706,23745 Z M 10001,23532 L 10054,23535 10106,23542 10155,23554 10203,23571 10248,23592 10290,23616 10329,23645 10365,23678 10398,23713 10427,23752 10452,23794 10473,23838 10490,23885 10502,23935 10509,23986 10512,24039 10509,24092 10502,24144 10490,24193 10473,24240 10452,24284 10427,24326 10398,24365 10365,24401 10329,24433 10290,24462 10248,24487 10203,24508 10155,24525 10106,24537 10054,24544 10001,24547 9948,24544 9896,24537 9847,24525 9799,24508 9755,24487 9713,24462 9674,24433 9638,24401 9605,24365 9576,24326 9551,24284 9530,24240 9513,24193 9501,24144 9494,24092 9491,24039 9494,23986 9501,23935 9513,23885 9530,23838 9551,23794 9576,23752 9605,23713 9638,23678 9674,23645 9713,23616 9755,23592 9799,23571 9847,23554 9896,23542 9948,23535 10001,23532 Z"/>
     <path fill="rgb(104,172,215)" stroke="none" d="M 9706,23745 L 9706,23925 9886,23925 9886,23745 9706,23745 Z M 9716,23755 L 9876,23755 9876,23915 9716,23915 9716,23755 Z M 10001,23532 L 10054,23535 10106,23542 10155,23554 10203,23571 10248,23592 10290,23616 10329,23645 10365,23678 10398,23713 10427,23752 10452,23794 10473,23838 10490,23885 10502,23935 10509,23986 10512,24039 10509,24092 10502,24144 10490,24193 10473,24240 10452,24284 10427,24326 10398,24365 10365,24401 10329,24433 10290,24462 10248,24487 10203,24508 10155,24525 10106,24537 10054,24544 10001,24547 9948,24544 9896,24537 9847,24525 9799,24508 9755,24487 9713,24462 9674,24433 9638,24401 9605,24365 9576,24326 9551,24284 9530,24240 9513,24193 9501,24144 9494,24092 9491,24039 9494,23986 9501,23935 9513,23885 9530,23838 9551,23794 9576,23752 9605,23713 9638,23678 9674,23645 9713,23616 9755,23592 9799,23571 9847,23554 9896,23542 9948,23535 10001,23532 Z"/>
     <path fill="rgb(107,174,215)" stroke="none" d="M 9716,23755 L 9716,23915 9876,23915 9876,23755 9716,23755 Z M 9726,23765 L 9866,23765 9866,23905 9726,23905 9726,23765 Z M 10001,23532 L 10054,23535 10106,23542 10155,23554 10203,23571 10248,23592 10290,23616 10329,23645 10365,23678 10398,23713 10427,23752 10452,23794 10473,23838 10490,23885 10502,23935 10509,23986 10512,24039 10509,24092 10502,24144 10490,24193 10473,24240 10452,24284 10427,24326 10398,24365 10365,24401 10329,24433 10290,24462 10248,24487 10203,24508 10155,24525 10106,24537 10054,24544 10001,24547 9948,24544 9896,24537 9847,24525 9799,24508 9755,24487 9713,24462 9674,24433 9638,24401 9605,24365 9576,24326 9551,24284 9530,24240 9513,24193 9501,24144 9494,24092 9491,24039 9494,23986 9501,23935 9513,23885 9530,23838 9551,23794 9576,23752 9605,23713 9638,23678 9674,23645 9713,23616 9755,23592 9799,23571 9847,23554 9896,23542 9948,23535 10001,23532 Z"/>
     <path fill="rgb(109,175,216)" stroke="none" d="M 9726,23765 L 9726,23905 9866,23905 9866,23765 9726,23765 Z M 9736,23775 L 9856,23775 9856,23895 9736,23895 9736,23775 Z M 10001,23532 L 10054,23535 10106,23542 10155,23554 10203,23571 10248,23592 10290,23616 10329,23645 10365,23678 10398,23713 10427,23752 10452,23794 10473,23838 10490,23885 10502,23935 10509,23986 10512,24039 10509,24092 10502,24144 10490,24193 10473,24240 10452,24284 10427,24326 10398,24365 10365,24401 10329,24433 10290,24462 10248,24487 10203,24508 10155,24525 10106,24537 10054,24544 10001,24547 9948,24544 9896,24537 9847,24525 9799,24508 9755,24487 9713,24462 9674,24433 9638,24401 9605,24365 9576,24326 9551,24284 9530,24240 9513,24193 9501,24144 9494,24092 9491,24039 9494,23986 9501,23935 9513,23885 9530,23838 9551,23794 9576,23752 9605,23713 9638,23678 9674,23645 9713,23616 9755,23592 9799,23571 9847,23554 9896,23542 9948,23535 10001,23532 Z"/>
     <path fill="rgb(112,176,217)" stroke="none" d="M 9736,23775 L 9736,23895 9856,23895 9856,23775 9736,23775 Z M 9746,23785 L 9846,23785 9846,23885 9746,23885 9746,23785 Z M 10001,23532 L 10054,23535 10106,23542 10155,23554 10203,23571 10248,23592 10290,23616 10329,23645 10365,23678 10398,23713 10427,23752 10452,23794 10473,23838 10490,23885 10502,23935 10509,23986 10512,24039 10509,24092 10502,24144 10490,24193 10473,24240 10452,24284 10427,24326 10398,24365 10365,24401 10329,24433 10290,24462 10248,24487 10203,24508 10155,24525 10106,24537 10054,24544 10001,24547 9948,24544 9896,24537 9847,24525 9799,24508 9755,24487 9713,24462 9674,24433 9638,24401 9605,24365 9576,24326 9551,24284 9530,24240 9513,24193 9501,24144 9494,24092 9491,24039 9494,23986 9501,23935 9513,23885 9530,23838 9551,23794 9576,23752 9605,23713 9638,23678 9674,23645 9713,23616 9755,23592 9799,23571 9847,23554 9896,23542 9948,23535 10001,23532 Z"/>
     <path fill="rgb(114,178,217)" stroke="none" d="M 9746,23785 L 9746,23885 9846,23885 9846,23785 9746,23785 Z M 9756,23795 L 9836,23795 9836,23875 9756,23875 9756,23795 Z M 10001,23532 L 10054,23535 10106,23542 10155,23554 10203,23571 10248,23592 10290,23616 10329,23645 10365,23678 10398,23713 10427,23752 10452,23794 10473,23838 10490,23885 10502,23935 10509,23986 10512,24039 10509,24092 10502,24144 10490,24193 10473,24240 10452,24284 10427,24326 10398,24365 10365,24401 10329,24433 10290,24462 10248,24487 10203,24508 10155,24525 10106,24537 10054,24544 10001,24547 9948,24544 9896,24537 9847,24525 9799,24508 9755,24487 9713,24462 9674,24433 9638,24401 9605,24365 9576,24326 9551,24284 9530,24240 9513,24193 9501,24144 9494,24092 9491,24039 9494,23986 9501,23935 9513,23885 9530,23838 9551,23794 9576,23752 9605,23713 9638,23678 9674,23645 9713,23616 9755,23592 9799,23571 9847,23554 9896,23542 9948,23535 10001,23532 Z"/>
     <path fill="rgb(117,179,218)" stroke="none" d="M 9756,23795 L 9756,23875 9836,23875 9836,23795 9756,23795 Z M 9766,23805 L 9826,23805 9826,23865 9766,23865 9766,23805 Z M 10001,23532 L 10054,23535 10106,23542 10155,23554 10203,23571 10248,23592 10290,23616 10329,23645 10365,23678 10398,23713 10427,23752 10452,23794 10473,23838 10490,23885 10502,23935 10509,23986 10512,24039 10509,24092 10502,24144 10490,24193 10473,24240 10452,24284 10427,24326 10398,24365 10365,24401 10329,24433 10290,24462 10248,24487 10203,24508 10155,24525 10106,24537 10054,24544 10001,24547 9948,24544 9896,24537 9847,24525 9799,24508 9755,24487 9713,24462 9674,24433 9638,24401 9605,24365 9576,24326 9551,24284 9530,24240 9513,24193 9501,24144 9494,24092 9491,24039 9494,23986 9501,23935 9513,23885 9530,23838 9551,23794 9576,23752 9605,23713 9638,23678 9674,23645 9713,23616 9755,23592 9799,23571 9847,23554 9896,23542 9948,23535 10001,23532 Z"/>
     <path fill="rgb(119,180,219)" stroke="none" d="M 9766,23805 L 9766,23865 9826,23865 9826,23805 9766,23805 Z M 9776,23815 L 9816,23815 9816,23855 9776,23855 9776,23815 Z M 10001,23532 L 10054,23535 10106,23542 10155,23554 10203,23571 10248,23592 10290,23616 10329,23645 10365,23678 10398,23713 10427,23752 10452,23794 10473,23838 10490,23885 10502,23935 10509,23986 10512,24039 10509,24092 10502,24144 10490,24193 10473,24240 10452,24284 10427,24326 10398,24365 10365,24401 10329,24433 10290,24462 10248,24487 10203,24508 10155,24525 10106,24537 10054,24544 10001,24547 9948,24544 9896,24537 9847,24525 9799,24508 9755,24487 9713,24462 9674,24433 9638,24401 9605,24365 9576,24326 9551,24284 9530,24240 9513,24193 9501,24144 9494,24092 9491,24039 9494,23986 9501,23935 9513,23885 9530,23838 9551,23794 9576,23752 9605,23713 9638,23678 9674,23645 9713,23616 9755,23592 9799,23571 9847,23554 9896,23542 9948,23535 10001,23532 Z"/>
     <path fill="rgb(122,182,219)" stroke="none" d="M 9776,23815 L 9776,23855 9816,23855 9816,23815 9776,23815 Z M 9786,23825 L 9806,23825 9806,23845 9786,23845 9786,23825 Z M 10001,23532 L 10054,23535 10106,23542 10155,23554 10203,23571 10248,23592 10290,23616 10329,23645 10365,23678 10398,23713 10427,23752 10452,23794 10473,23838 10490,23885 10502,23935 10509,23986 10512,24039 10509,24092 10502,24144 10490,24193 10473,24240 10452,24284 10427,24326 10398,24365 10365,24401 10329,24433 10290,24462 10248,24487 10203,24508 10155,24525 10106,24537 10054,24544 10001,24547 9948,24544 9896,24537 9847,24525 9799,24508 9755,24487 9713,24462 9674,24433 9638,24401 9605,24365 9576,24326 9551,24284 9530,24240 9513,24193 9501,24144 9494,24092 9491,24039 9494,23986 9501,23935 9513,23885 9530,23838 9551,23794 9576,23752 9605,23713 9638,23678 9674,23645 9713,23616 9755,23592 9799,23571 9847,23554 9896,23542 9948,23535 10001,23532 Z"/>
     <path fill="rgb(127,185,221)" stroke="none" d="M 9786,23825 L 9786,23845 9806,23845 9806,23825 9786,23825 Z M 10001,23532 L 10054,23535 10106,23542 10155,23554 10203,23571 10248,23592 10290,23616 10329,23645 10365,23678 10398,23713 10427,23752 10452,23794 10473,23838 10490,23885 10502,23935 10509,23986 10512,24039 10509,24092 10502,24144 10490,24193 10473,24240 10452,24284 10427,24326 10398,24365 10365,24401 10329,24433 10290,24462 10248,24487 10203,24508 10155,24525 10106,24537 10054,24544 10001,24547 9948,24544 9896,24537 9847,24525 9799,24508 9755,24487 9713,24462 9674,24433 9638,24401 9605,24365 9576,24326 9551,24284 9530,24240 9513,24193 9501,24144 9494,24092 9491,24039 9494,23986 9501,23935 9513,23885 9530,23838 9551,23794 9576,23752 9605,23713 9638,23678 9674,23645 9713,23616 9755,23592 9799,23571 9847,23554 9896,23542 9948,23535 10001,23532 Z"/>
     <path fill="none" stroke="rgb(0,0,0)" id="Drawing_19_0" stroke-width="40" stroke-linejoin="round" d="M 10001,23532 C 10290,23532 10512,23751 10512,24039 10512,24327 10290,24547 10001,24547 9712,24547 9491,24327 9491,24039 9491,23751 9712,23532 10001,23532 Z"/>
     <rect fill="none" stroke="none" x="9492" y="23533" width="1022" height="1016"/>
    </g>
    <g>
     <path fill="rgb(57,181,74)" stroke="none" d="M 9719,23631 L 9832,23631 9889,23598 10002,23565 10172,23631 10059,23631 10116,23729 9946,23892 9889,23925 9832,23958 9946,24024 10002,24089 10172,24089 10342,24187 10229,24384 10059,24515 10059,24319 9946,24187 10002,24122 9889,24024 9776,23991 9719,23860 9719,23631 Z"/>
     <path fill="none" stroke="rgb(128,128,128)" id="Drawing_20_0" stroke-width="40" stroke-linejoin="round" d="M 9719,23631 L 9832,23631 9889,23598 10002,23565 10172,23631 10059,23631 10116,23729 9946,23892 9889,23925 9832,23958 9946,24024 10002,24089 10172,24089 10342,24187 10229,24384 10059,24515 10059,24319 9946,24187 10002,24122 9889,24024 9776,23991 9719,23860 9719,23631 Z"/>
    </g>
    <g>
     <path fill="rgb(57,181,74)" stroke="none" d="M 10456,24057 L 10456,24024 10399,23926 10399,23827 10342,23696 10229,23631 C 10342,23566 10569,23991 10456,24057 Z"/>
     <path fill="none" stroke="rgb(128,128,128)" id="Drawing_21_0" stroke-width="40" stroke-linejoin="round" d="M 10456,24057 L 10456,24024 10399,23926 10399,23827 10342,23696 10229,23631 C 10342,23566 10569,23991 10456,24057 Z"/>
    </g>
    <g id="DrawingGroup_5">
     <g>
      <path fill="none" stroke="rgb(255,255,255)" id="Drawing_22_0" stroke-width="40" stroke-linejoin="round" d="M 9946,24187 L 9889,23958"/>
     </g>
     <g>
      <path fill="none" stroke="rgb(255,255,255)" id="Drawing_23_0" stroke-width="40" stroke-linejoin="round" d="M 9945,24188 L 10002,24024"/>
     </g>
     <g>
      <path fill="none" stroke="rgb(255,255,255)" id="Drawing_24_0" stroke-width="40" stroke-linejoin="round" d="M 10059,24188 L 10002,24024"/>
     </g>
     <g>
      <path fill="none" stroke="rgb(255,255,255)" id="Drawing_25_0" stroke-width="40" stroke-linejoin="round" d="M 10059,24187 L 10116,23958"/>
     </g>
    </g>
    <g id="DrawingGroup_6">
     <g>
      <path fill="none" stroke="rgb(255,255,255)" id="Drawing_26_0" stroke-width="40" stroke-linejoin="round" d="M 10286,24187 L 10229,23958"/>
     </g>
     <g>
      <path fill="none" stroke="rgb(255,255,255)" id="Drawing_27_0" stroke-width="40" stroke-linejoin="round" d="M 10285,24188 L 10342,24024"/>
     </g>
     <g>
      <path fill="none" stroke="rgb(255,255,255)" id="Drawing_28_0" stroke-width="40" stroke-linejoin="round" d="M 10399,24188 L 10342,24024"/>
     </g>
     <g>
      <path fill="none" stroke="rgb(255,255,255)" id="Drawing_29_0" stroke-width="40" stroke-linejoin="round" d="M 10399,24187 L 10456,23958"/>
     </g>
    </g>
    <g id="DrawingGroup_7">
     <g>
      <path fill="none" stroke="rgb(255,255,255)" id="Drawing_30_0" stroke-width="40" stroke-linejoin="round" d="M 9606,24187 L 9549,23958"/>
     </g>
     <g>
      <path fill="none" stroke="rgb(255,255,255)" id="Drawing_31_0" stroke-width="40" stroke-linejoin="round" d="M 9605,24188 L 9662,24024"/>
     </g>
     <g>
      <path fill="none" stroke="rgb(255,255,255)" id="Drawing_32_0" stroke-width="40" stroke-linejoin="round" d="M 9719,24188 L 9662,24024"/>
     </g>
     <g>
      <path fill="none" stroke="rgb(255,255,255)" id="Drawing_33_0" stroke-width="40" stroke-linejoin="round" d="M 9719,24187 L 9776,23958"/>
     </g>
    </g>
   </g>
  </g>
 </g>
</svg>