<?xml version="1.0" encoding="UTF-8"?>

<svg version="1.2" baseProfile="tiny" width="32.34mm" height="29.5mm" viewBox="8731 6991 3234 2950" preserveAspectRatio="xMidYMid" fill-rule="evenodd" stroke-width="28.222" stroke-linejoin="round" xmlns="http://www.w3.org/2000/svg" xmlns:xlink="http://www.w3.org/1999/xlink" xml:space="preserve">
 <g visibility="visible" id="Slide_1">
  <g id="DrawingGroup_1">
   <g>
    <path fill="rgb(221,221,221)" stroke="none" d="M 10338,9786 C 10551,9786 11964,9831 11964,9652 11964,9473 11402,9249 11190,9249 11190,9383 10338,9607 10338,9786 Z"/>
    <path fill="none" stroke="rgb(221,221,221)" id="Drawing_1_0" stroke-linejoin="round" d="M 10338,9786 C 10551,9786 11964,9831 11964,9652 11964,9473 11402,9249 11190,9249 11190,9383 10338,9607 10338,9786 Z"/>
   </g>
   <g id="DrawingGroup_2">
    <g>
     <defs>
      <linearGradient id="Gradient_800" gradientUnits="userSpaceOnUse" x1="10414" y1="9270" x2="11190" y2="9272">
       <stop offset="0.1" stop-color="rgb(179,179,179)"/>
       <stop offset="1" stop-color="rgb(229,229,229)"/>
      </linearGradient>
     </defs>
     <path fill="url(#Gradient_800)" stroke="rgb(255,255,255)" id="Drawing_2_0" stroke-width="40" stroke-linejoin="round" d="M 10415,9473 L 10415,8622 11189,9025 11189,9920 10415,9473 Z"/>
    </g>
    <g>
     <defs>
      <linearGradient id="Gradient_801" gradientUnits="userSpaceOnUse" x1="10609" y1="9204" x2="10609" y2="9517">
       <stop offset="0.1" stop-color="rgb(179,179,179)"/>
       <stop offset="1" stop-color="rgb(229,229,229)"/>
      </linearGradient>
     </defs>
     <path fill="url(#Gradient_801)" stroke="rgb(255,255,255)" id="Drawing_3_0" stroke-width="40" stroke-linejoin="round" d="M 10493,9517 L 10338,9428 10725,9204 10880,9294 10493,9517 Z"/>
    </g>
    <g>
     <defs>
      <linearGradient id="Gradient_802" gradientUnits="userSpaceOnUse" x1="10181" y1="9182" x2="10338" y2="9182">
       <stop offset="0.1" stop-color="rgb(179,179,179)"/>
       <stop offset="1" stop-color="rgb(229,229,229)"/>
      </linearGradient>
     </defs>
     <path fill="url(#Gradient_802)" stroke="rgb(255,255,255)" id="Drawing_4_0" stroke-width="40" stroke-linejoin="round" d="M 10183,9697 L 10183,8578 10338,8668 10338,9787 10183,9697 Z"/>
    </g>
    <g>
     <path fill="rgb(179,179,179)" stroke="none" d="M 10338,9532 L 10338,8668 10493,8578 10493,9518 10880,9294 10880,9473 10778,9532 10338,9532 Z"/>
     <path fill="rgb(180,180,180)" stroke="none" d="M 10778,9532 L 10338,9787 10338,9532 10778,9532 Z M 10338,9520 L 10338,8668 10493,8578 10493,9518 10880,9294 10880,9473 10799,9520 10338,9520 Z"/>
     <path fill="rgb(181,181,181)" stroke="none" d="M 10799,9520 L 10338,9787 10338,9520 10799,9520 Z M 10510,9508 L 10880,9294 10880,9473 10820,9508 10510,9508 Z M 10338,9508 L 10338,8668 10493,8578 10493,9508 10338,9508 Z"/>
     <path fill="rgb(182,182,182)" stroke="none" d="M 10493,9508 L 10493,9518 10510,9508 10820,9508 10338,9787 10338,9508 10493,9508 Z M 10531,9496 L 10880,9294 10880,9473 10840,9496 10531,9496 Z M 10338,9496 L 10338,8668 10493,8578 10493,9496 10338,9496 Z"/>
     <path fill="rgb(183,183,183)" stroke="none" d="M 10493,9496 L 10493,9518 10531,9496 10840,9496 10338,9787 10338,9496 10493,9496 Z M 10552,9484 L 10880,9294 10880,9473 10861,9484 10552,9484 Z M 10338,9484 L 10338,8668 10493,8578 10493,9484 10338,9484 Z"/>
     <path fill="rgb(184,184,184)" stroke="none" d="M 10493,9484 L 10493,9518 10552,9484 10861,9484 10338,9787 10338,9484 10493,9484 Z M 10572,9472 L 10880,9294 10880,9472 10572,9472 Z M 10338,9472 L 10338,8668 10493,8578 10493,9472 10338,9472 Z"/>
     <path fill="rgb(185,185,185)" stroke="none" d="M 10493,9472 L 10493,9518 10572,9472 10880,9472 10880,9473 10338,9787 10338,9472 10493,9472 Z M 10593,9460 L 10880,9294 10880,9460 10593,9460 Z M 10338,9460 L 10338,8668 10493,8578 10493,9460 10338,9460 Z"/>
     <path fill="rgb(186,186,186)" stroke="none" d="M 10493,9460 L 10493,9518 10593,9460 10880,9460 10880,9473 10338,9787 10338,9460 10493,9460 Z M 10614,9448 L 10880,9294 10880,9448 10614,9448 Z M 10338,9448 L 10338,8668 10493,8578 10493,9448 10338,9448 Z"/>
     <path fill="rgb(187,187,187)" stroke="none" d="M 10493,9448 L 10493,9518 10614,9448 10880,9448 10880,9473 10338,9787 10338,9448 10493,9448 Z M 10636,9435 L 10880,9294 10880,9435 10636,9435 Z M 10338,9435 L 10338,8668 10493,8578 10493,9435 10338,9435 Z"/>
     <path fill="rgb(188,188,188)" stroke="none" d="M 10493,9435 L 10493,9518 10636,9435 10880,9435 10880,9473 10338,9787 10338,9435 10493,9435 Z M 10657,9423 L 10880,9294 10880,9423 10657,9423 Z M 10338,9423 L 10338,8668 10493,8578 10493,9423 10338,9423 Z"/>
     <path fill="rgb(189,189,189)" stroke="none" d="M 10493,9423 L 10493,9518 10657,9423 10880,9423 10880,9473 10338,9787 10338,9423 10493,9423 Z M 10678,9411 L 10880,9294 10880,9411 10678,9411 Z M 10338,9411 L 10338,8668 10493,8578 10493,9411 10338,9411 Z"/>
     <path fill="rgb(190,190,190)" stroke="none" d="M 10493,9411 L 10493,9518 10678,9411 10880,9411 10880,9473 10338,9787 10338,9411 10493,9411 Z M 10699,9399 L 10880,9294 10880,9399 10699,9399 Z M 10338,9399 L 10338,8668 10493,8578 10493,9399 10338,9399 Z"/>
     <path fill="rgb(191,191,191)" stroke="none" d="M 10493,9399 L 10493,9518 10699,9399 10880,9399 10880,9473 10338,9787 10338,9399 10493,9399 Z M 10719,9387 L 10880,9294 10880,9387 10719,9387 Z M 10338,9387 L 10338,8668 10493,8578 10493,9387 10338,9387 Z"/>
     <path fill="rgb(192,192,192)" stroke="none" d="M 10493,9387 L 10493,9518 10719,9387 10880,9387 10880,9473 10338,9787 10338,9387 10493,9387 Z M 10740,9375 L 10880,9294 10880,9375 10740,9375 Z M 10338,9375 L 10338,8668 10493,8578 10493,9375 10338,9375 Z"/>
     <path fill="rgb(193,193,193)" stroke="none" d="M 10493,9375 L 10493,9518 10740,9375 10880,9375 10880,9473 10338,9787 10338,9375 10493,9375 Z M 10761,9363 L 10880,9294 10880,9363 10761,9363 Z M 10338,9363 L 10338,8668 10493,8578 10493,9363 10338,9363 Z"/>
     <path fill="rgb(194,194,194)" stroke="none" d="M 10493,9363 L 10493,9518 10761,9363 10880,9363 10880,9473 10338,9787 10338,9363 10493,9363 Z M 10782,9351 L 10880,9294 10880,9351 10782,9351 Z M 10338,9351 L 10338,8668 10493,8578 10493,9351 10338,9351 Z"/>
     <path fill="rgb(195,195,195)" stroke="none" d="M 10493,9351 L 10493,9518 10782,9351 10880,9351 10880,9473 10338,9787 10338,9351 10493,9351 Z M 10804,9338 L 10880,9294 10880,9338 10804,9338 Z M 10338,9338 L 10338,8668 10493,8578 10493,9338 10338,9338 Z"/>
     <path fill="rgb(196,196,196)" stroke="none" d="M 10493,9338 L 10493,9518 10804,9338 10880,9338 10880,9473 10338,9787 10338,9338 10493,9338 Z M 10825,9326 L 10880,9294 10880,9326 10825,9326 Z M 10338,9326 L 10338,8668 10493,8578 10493,9326 10338,9326 Z"/>
     <path fill="rgb(197,197,197)" stroke="none" d="M 10493,9326 L 10493,9518 10825,9326 10880,9326 10880,9473 10338,9787 10338,9326 10493,9326 Z M 10874,9314 L 10845,9314 10874,9297 10874,9314 Z M 10338,9314 L 10338,8668 10493,8578 10493,9314 10338,9314 Z"/>
     <path fill="rgb(198,198,198)" stroke="none" d="M 10493,9314 L 10493,9518 10845,9314 10874,9314 10874,9297 10880,9294 10880,9473 10338,9787 10338,9314 10493,9314 Z M 10338,9302 L 10338,8668 10493,8578 10493,9302 10338,9302 Z"/>
     <path fill="rgb(199,199,199)" stroke="none" d="M 10493,9302 L 10493,9518 10880,9294 10880,9473 10338,9787 10338,9302 10493,9302 Z M 10493,8588 L 10493,9290 10338,9290 10338,8668 10476,8588 10493,8588 Z"/>
     <path fill="rgb(200,200,200)" stroke="none" d="M 10493,9290 L 10493,9518 10880,9294 10880,9473 10338,9787 10338,9290 10493,9290 Z M 10476,8588 L 10493,8578 10493,8588 10476,8588 Z M 10493,8600 L 10493,9278 10338,9278 10338,8668 10455,8600 10493,8600 Z"/>
     <path fill="rgb(201,201,201)" stroke="none" d="M 10493,9278 L 10493,9518 10880,9294 10880,9473 10338,9787 10338,9278 10493,9278 Z M 10455,8600 L 10493,8578 10493,8600 10455,8600 Z M 10493,8612 L 10493,9266 10338,9266 10338,8668 10434,8612 10493,8612 Z"/>
     <path fill="rgb(202,202,202)" stroke="none" d="M 10493,9266 L 10493,9518 10880,9294 10880,9473 10338,9787 10338,9266 10493,9266 Z M 10434,8612 L 10493,8578 10493,8612 10434,8612 Z M 10493,8624 L 10493,9254 10338,9254 10338,8668 10414,8624 10493,8624 Z"/>
     <path fill="rgb(203,203,203)" stroke="none" d="M 10493,9254 L 10493,9518 10880,9294 10880,9473 10338,9787 10338,9254 10493,9254 Z M 10414,8624 L 10493,8578 10493,8624 10414,8624 Z M 10493,8637 L 10493,9241 10338,9241 10338,8668 10391,8637 10493,8637 Z"/>
     <path fill="rgb(204,204,204)" stroke="none" d="M 10493,9241 L 10493,9518 10880,9294 10880,9473 10338,9787 10338,9241 10493,9241 Z M 10391,8637 L 10493,8578 10493,8637 10391,8637 Z M 10493,8649 L 10493,9229 10338,9229 10338,8668 10371,8649 10493,8649 Z"/>
     <path fill="rgb(205,205,205)" stroke="none" d="M 10493,9229 L 10493,9518 10880,9294 10880,9473 10338,9787 10338,9229 10493,9229 Z M 10371,8649 L 10493,8578 10493,8649 10371,8649 Z M 10493,8661 L 10493,9217 10338,9217 10338,8668 10350,8661 10493,8661 Z"/>
     <path fill="rgb(206,206,206)" stroke="none" d="M 10493,9217 L 10493,9518 10880,9294 10880,9473 10338,9787 10338,9217 10493,9217 Z M 10350,8661 L 10493,8578 10493,8661 10350,8661 Z M 10493,8673 L 10493,9205 10338,9205 10338,8673 10493,8673 Z"/>
     <path fill="rgb(207,207,207)" stroke="none" d="M 10493,9205 L 10493,9518 10880,9294 10880,9473 10338,9787 10338,9205 10493,9205 Z M 10338,8673 L 10338,8668 10493,8578 10493,8673 10338,8673 Z M 10493,8685 L 10493,9193 10338,9193 10338,8685 10493,8685 Z"/>
     <path fill="rgb(208,208,208)" stroke="none" d="M 10493,9193 L 10493,9518 10880,9294 10880,9473 10338,9787 10338,9193 10493,9193 Z M 10338,8685 L 10338,8668 10493,8578 10493,8685 10338,8685 Z M 10493,8697 L 10493,9181 10338,9181 10338,8697 10493,8697 Z"/>
     <path fill="rgb(209,209,209)" stroke="none" d="M 10493,9181 L 10493,9518 10880,9294 10880,9473 10338,9787 10338,9181 10493,9181 Z M 10338,8697 L 10338,8668 10493,8578 10493,8697 10338,8697 Z M 10493,8709 L 10493,9169 10338,9169 10338,8709 10493,8709 Z"/>
     <path fill="rgb(210,210,210)" stroke="none" d="M 10493,9169 L 10493,9518 10880,9294 10880,9473 10338,9787 10338,9169 10493,9169 Z M 10338,8709 L 10338,8668 10493,8578 10493,8709 10338,8709 Z M 10493,8721 L 10493,9157 10338,9157 10338,8721 10493,8721 Z"/>
     <path fill="rgb(211,211,211)" stroke="none" d="M 10493,9157 L 10493,9518 10880,9294 10880,9473 10338,9787 10338,9157 10493,9157 Z M 10338,8721 L 10338,8668 10493,8578 10493,8721 10338,8721 Z M 10493,8733 L 10493,9145 10338,9145 10338,8733 10493,8733 Z"/>
     <path fill="rgb(212,212,212)" stroke="none" d="M 10493,9145 L 10493,9518 10880,9294 10880,9473 10338,9787 10338,9145 10493,9145 Z M 10338,8733 L 10338,8668 10493,8578 10493,8733 10338,8733 Z M 10493,8746 L 10493,9132 10338,9132 10338,8746 10493,8746 Z"/>
     <path fill="rgb(213,213,213)" stroke="none" d="M 10493,9132 L 10493,9518 10880,9294 10880,9473 10338,9787 10338,9132 10493,9132 Z M 10338,8746 L 10338,8668 10493,8578 10493,8746 10338,8746 Z M 10493,8758 L 10493,9120 10338,9120 10338,8758 10493,8758 Z"/>
     <path fill="rgb(214,214,214)" stroke="none" d="M 10493,9120 L 10493,9518 10880,9294 10880,9473 10338,9787 10338,9120 10493,9120 Z M 10338,8758 L 10338,8668 10493,8578 10493,8758 10338,8758 Z M 10493,8770 L 10493,9108 10338,9108 10338,8770 10493,8770 Z"/>
     <path fill="rgb(215,215,215)" stroke="none" d="M 10493,9108 L 10493,9518 10880,9294 10880,9473 10338,9787 10338,9108 10493,9108 Z M 10338,8770 L 10338,8668 10493,8578 10493,8770 10338,8770 Z M 10342,8782 L 10493,8782 10493,9096 10342,9096 10342,8782 Z"/>
     <path fill="rgb(216,216,216)" stroke="none" d="M 10342,8782 L 10342,9096 10493,9096 10493,9518 10880,9294 10880,9473 10338,9787 10338,8668 10493,8578 10493,8782 10342,8782 Z M 10354,8794 L 10493,8794 10493,9084 10354,9084 10354,8794 Z"/>
     <path fill="rgb(217,217,217)" stroke="none" d="M 10354,8794 L 10354,9084 10493,9084 10493,9518 10880,9294 10880,9473 10338,9787 10338,8668 10493,8578 10493,8794 10354,8794 Z M 10366,8806 L 10493,8806 10493,9072 10366,9072 10366,8806 Z"/>
     <path fill="rgb(218,218,218)" stroke="none" d="M 10366,8806 L 10366,9072 10493,9072 10493,9518 10880,9294 10880,9473 10338,9787 10338,8668 10493,8578 10493,8806 10366,8806 Z M 10378,8818 L 10493,8818 10493,9060 10378,9060 10378,8818 Z"/>
     <path fill="rgb(219,219,219)" stroke="none" d="M 10378,8818 L 10378,9060 10493,9060 10493,9518 10880,9294 10880,9473 10338,9787 10338,8668 10493,8578 10493,8818 10378,8818 Z M 10390,8830 L 10493,8830 10493,9048 10390,9048 10390,8830 Z"/>
     <path fill="rgb(220,220,220)" stroke="none" d="M 10390,8830 L 10390,9048 10493,9048 10493,9518 10880,9294 10880,9473 10338,9787 10338,8668 10493,8578 10493,8830 10390,8830 Z M 10403,8843 L 10493,8843 10493,9035 10403,9035 10403,8843 Z"/>
     <path fill="rgb(221,221,221)" stroke="none" d="M 10403,8843 L 10403,9035 10493,9035 10493,9518 10880,9294 10880,9473 10338,9787 10338,8668 10493,8578 10493,8843 10403,8843 Z M 10415,8855 L 10493,8855 10493,9023 10415,9023 10415,8855 Z"/>
     <path fill="rgb(222,222,222)" stroke="none" d="M 10415,8855 L 10415,9023 10493,9023 10493,9518 10880,9294 10880,9473 10338,9787 10338,8668 10493,8578 10493,8855 10415,8855 Z M 10427,8867 L 10493,8867 10493,9011 10427,9011 10427,8867 Z"/>
     <path fill="rgb(223,223,223)" stroke="none" d="M 10427,8867 L 10427,9011 10493,9011 10493,9518 10880,9294 10880,9473 10338,9787 10338,8668 10493,8578 10493,8867 10427,8867 Z M 10439,8879 L 10493,8879 10493,8999 10439,8999 10439,8879 Z"/>
     <path fill="rgb(224,224,224)" stroke="none" d="M 10439,8879 L 10439,8999 10493,8999 10493,9518 10880,9294 10880,9473 10338,9787 10338,8668 10493,8578 10493,8879 10439,8879 Z M 10451,8891 L 10493,8891 10493,8987 10451,8987 10451,8891 Z"/>
     <path fill="rgb(225,225,225)" stroke="none" d="M 10451,8891 L 10451,8987 10493,8987 10493,9518 10880,9294 10880,9473 10338,9787 10338,8668 10493,8578 10493,8891 10451,8891 Z M 10463,8903 L 10493,8903 10493,8975 10463,8975 10463,8903 Z"/>
     <path fill="rgb(226,226,226)" stroke="none" d="M 10463,8903 L 10463,8975 10493,8975 10493,9518 10880,9294 10880,9473 10338,9787 10338,8668 10493,8578 10493,8903 10463,8903 Z M 10475,8915 L 10493,8915 10493,8963 10475,8963 10475,8915 Z"/>
     <path fill="rgb(227,227,227)" stroke="none" d="M 10475,8915 L 10475,8963 10493,8963 10493,9518 10880,9294 10880,9473 10338,9787 10338,8668 10493,8578 10493,8915 10475,8915 Z M 10487,8927 L 10493,8927 10493,8951 10487,8951 10487,8927 Z"/>
     <path fill="rgb(229,229,229)" stroke="none" d="M 10487,8927 L 10487,8951 10493,8951 10493,9518 10880,9294 10880,9473 10338,9787 10338,8668 10493,8578 10493,8927 10487,8927 Z"/>
     <path fill="none" stroke="rgb(255,255,255)" id="Drawing_5_0" stroke-width="40" stroke-linejoin="round" d="M 10338,9787 L 10338,8668 10493,8578 10493,9518 10880,9294 10880,9473 10338,9787 Z"/>
    </g>
    <g>
     <defs>
      <linearGradient id="Gradient_803" gradientUnits="userSpaceOnUse" x1="8865" y1="8576" x2="9641" y2="8578">
       <stop offset="0.1" stop-color="rgb(179,179,179)"/>
       <stop offset="1" stop-color="rgb(229,229,229)"/>
      </linearGradient>
     </defs>
     <path fill="url(#Gradient_803)" stroke="rgb(255,255,255)" id="Drawing_6_0" stroke-width="40" stroke-linejoin="round" d="M 8866,8801 L 8866,7906 9640,8354 9640,9249 8866,8801 Z"/>
    </g>
    <g>
     <path fill="rgb(179,179,179)" stroke="none" d="M 10983,8474 L 10291,8874 9641,8874 9641,8354 10983,7579 10983,8474 Z"/>
     <path fill="rgb(180,180,180)" stroke="none" d="M 10291,8874 L 9641,9250 9641,8874 10291,8874 Z M 10983,7579 L 11190,7459 11190,8354 10983,8474 10983,7579 Z M 10965,8484 L 10322,8856 9641,8856 9641,8354 10965,7589 10965,8484 Z"/>
     <path fill="rgb(181,181,181)" stroke="none" d="M 10322,8856 L 9641,9250 9641,8856 10322,8856 Z M 10965,7589 L 11190,7459 11190,8354 10965,8484 10965,7589 Z M 10947,8495 L 10353,8838 9641,8838 9641,8354 10947,7599 10947,8495 Z"/>
     <path fill="rgb(182,182,182)" stroke="none" d="M 10353,8838 L 9641,9250 9641,8838 10353,8838 Z M 10947,7599 L 11190,7459 11190,8354 10947,8495 10947,7599 Z M 10929,8505 L 10384,8820 9641,8820 9641,8354 10929,7610 10929,8505 Z"/>
     <path fill="rgb(183,183,183)" stroke="none" d="M 10384,8820 L 9641,9250 9641,8820 10384,8820 Z M 10929,7610 L 11190,7459 11190,8354 10929,8505 10929,7610 Z M 10911,8515 L 10416,8802 9641,8802 9641,8354 10911,7620 10911,8515 Z"/>
     <path fill="rgb(184,184,184)" stroke="none" d="M 10416,8802 L 9641,9250 9641,8802 10416,8802 Z M 10911,7620 L 11190,7459 11190,8354 10911,8515 10911,7620 Z M 10893,8526 L 10447,8784 9641,8784 9641,8354 10893,7631 10893,8526 Z"/>
     <path fill="rgb(185,185,185)" stroke="none" d="M 10447,8784 L 9641,9250 9641,8784 10447,8784 Z M 10893,7631 L 11190,7459 11190,8354 10893,8526 10893,7631 Z M 10875,8536 L 10478,8766 9641,8766 9641,8354 10875,7641 10875,8536 Z"/>
     <path fill="rgb(186,186,186)" stroke="none" d="M 10478,8766 L 9641,9250 9641,8766 10478,8766 Z M 10875,7641 L 11190,7459 11190,8354 10875,8536 10875,7641 Z M 10857,8547 L 10509,8748 9641,8748 9641,8354 10857,7651 10857,8547 Z"/>
     <path fill="rgb(187,187,187)" stroke="none" d="M 10509,8748 L 9641,9250 9641,8748 10509,8748 Z M 10857,7651 L 11190,7459 11190,8354 10857,8547 10857,7651 Z M 10839,8557 L 10540,8730 9641,8730 9641,8354 10839,7662 10839,8557 Z"/>
     <path fill="rgb(188,188,188)" stroke="none" d="M 10540,8730 L 9641,9250 9641,8730 10540,8730 Z M 10839,7662 L 11190,7459 11190,8354 10839,8557 10839,7662 Z M 10821,8567 L 10571,8712 9641,8712 9641,8354 10821,7672 10821,8567 Z"/>
     <path fill="rgb(189,189,189)" stroke="none" d="M 10571,8712 L 9641,9250 9641,8712 10571,8712 Z M 10821,7672 L 11190,7459 11190,8354 10821,8567 10821,7672 Z M 10803,8578 L 10602,8694 9641,8694 9641,8354 10803,7683 10803,8578 Z"/>
     <path fill="rgb(190,190,190)" stroke="none" d="M 10602,8694 L 9641,9250 9641,8694 10602,8694 Z M 10803,7683 L 11190,7459 11190,8354 10803,8578 10803,7683 Z M 10785,8588 L 10633,8676 9641,8676 9641,8354 10785,7693 10785,8588 Z"/>
     <path fill="rgb(191,191,191)" stroke="none" d="M 10633,8676 L 9641,9250 9641,8676 10633,8676 Z M 10785,7693 L 11190,7459 11190,8354 10785,8588 10785,7693 Z M 10767,8599 L 10664,8658 9641,8658 9641,8354 10767,7703 10767,8599 Z"/>
     <path fill="rgb(192,192,192)" stroke="none" d="M 10664,8658 L 9641,9250 9641,8658 10664,8658 Z M 10767,7703 L 11190,7459 11190,8354 10767,8599 10767,7703 Z M 10749,8609 L 10696,8640 9641,8640 9641,8354 10749,7714 10749,8609 Z"/>
     <path fill="rgb(193,193,193)" stroke="none" d="M 10696,8640 L 9641,9250 9641,8640 10696,8640 Z M 10749,7714 L 11190,7459 11190,8354 10749,8609 10749,7714 Z M 10731,8620 L 10727,8622 9641,8622 9641,8354 10731,7724 10731,8620 Z"/>
     <path fill="rgb(194,194,194)" stroke="none" d="M 10727,8622 L 9641,9250 9641,8622 10727,8622 Z M 10731,7724 L 11190,7459 11190,8354 10731,8620 10731,7724 Z M 10713,8604 L 9641,8604 9641,8354 10713,7735 10713,8604 Z"/>
     <path fill="rgb(195,195,195)" stroke="none" d="M 10713,8604 L 10713,7735 11190,7459 11190,8354 9641,9250 9641,8604 10713,8604 Z M 10696,8587 L 9641,8587 9641,8354 10696,7744 10696,8587 Z"/>
     <path fill="rgb(196,196,196)" stroke="none" d="M 10696,8587 L 10696,7744 11190,7459 11190,8354 9641,9250 9641,8587 10696,8587 Z M 10678,8569 L 9641,8569 9641,8354 10678,7755 10678,8569 Z"/>
     <path fill="rgb(197,197,197)" stroke="none" d="M 10678,8569 L 10678,7755 11190,7459 11190,8354 9641,9250 9641,8569 10678,8569 Z M 10660,8551 L 9641,8551 9641,8354 10660,7765 10660,8551 Z"/>
     <path fill="rgb(198,198,198)" stroke="none" d="M 10660,8551 L 10660,7765 11190,7459 11190,8354 9641,9250 9641,8551 10660,8551 Z M 10642,8533 L 9641,8533 9641,8354 10642,7776 10642,8533 Z"/>
     <path fill="rgb(199,199,199)" stroke="none" d="M 10642,8533 L 10642,7776 11190,7459 11190,8354 9641,9250 9641,8533 10642,8533 Z M 10624,8515 L 9641,8515 9641,8354 10624,7786 10624,8515 Z"/>
     <path fill="rgb(200,200,200)" stroke="none" d="M 10624,8515 L 10624,7786 11190,7459 11190,8354 9641,9250 9641,8515 10624,8515 Z M 10606,8497 L 9641,8497 9641,8354 10606,7796 10606,8497 Z"/>
     <path fill="rgb(201,201,201)" stroke="none" d="M 10606,8497 L 10606,7796 11190,7459 11190,8354 9641,9250 9641,8497 10606,8497 Z M 10588,8479 L 9641,8479 9641,8354 10588,7807 10588,8479 Z"/>
     <path fill="rgb(202,202,202)" stroke="none" d="M 10588,8479 L 10588,7807 11190,7459 11190,8354 9641,9250 9641,8479 10588,8479 Z M 10570,8461 L 9641,8461 9641,8354 10570,7817 10570,8461 Z"/>
     <path fill="rgb(203,203,203)" stroke="none" d="M 10570,8461 L 10570,7817 11190,7459 11190,8354 9641,9250 9641,8461 10570,8461 Z M 10552,8443 L 9656,8443 9656,8345 10552,7828 10552,8443 Z"/>
     <path fill="rgb(204,204,204)" stroke="none" d="M 9656,8443 L 10552,8443 10552,7828 11190,7459 11190,8354 9641,9250 9641,8354 9656,8345 9656,8443 Z M 10534,8425 L 9674,8425 9674,8335 10534,7838 10534,8425 Z"/>
     <path fill="rgb(205,205,205)" stroke="none" d="M 9674,8425 L 10534,8425 10534,7838 11190,7459 11190,8354 9641,9250 9641,8354 9674,8335 9674,8425 Z M 10516,8407 L 9692,8407 9692,8325 10516,7848 10516,8407 Z"/>
     <path fill="rgb(206,206,206)" stroke="none" d="M 9692,8407 L 10516,8407 10516,7848 11190,7459 11190,8354 9641,9250 9641,8354 9692,8325 9692,8407 Z M 10498,8389 L 9710,8389 9710,8314 10498,7859 10498,8389 Z"/>
     <path fill="rgb(207,207,207)" stroke="none" d="M 9710,8389 L 10498,8389 10498,7859 11190,7459 11190,8354 9641,9250 9641,8354 9710,8314 9710,8389 Z M 10480,8371 L 9728,8371 9728,8304 10480,7869 10480,8371 Z"/>
     <path fill="rgb(208,208,208)" stroke="none" d="M 9728,8371 L 10480,8371 10480,7869 11190,7459 11190,8354 9641,9250 9641,8354 9728,8304 9728,8371 Z M 10462,8353 L 9746,8353 9746,8293 10462,7880 10462,8353 Z"/>
     <path fill="rgb(209,209,209)" stroke="none" d="M 9746,8353 L 10462,8353 10462,7880 11190,7459 11190,8354 9641,9250 9641,8354 9746,8293 9746,8353 Z M 10444,8335 L 9764,8335 9764,8283 10444,7890 10444,8335 Z"/>
     <path fill="rgb(210,210,210)" stroke="none" d="M 9764,8335 L 10444,8335 10444,7890 11190,7459 11190,8354 9641,9250 9641,8354 9764,8283 9764,8335 Z M 10426,8317 L 9782,8317 9782,8273 10426,7900 10426,8317 Z"/>
     <path fill="rgb(211,211,211)" stroke="none" d="M 9782,8317 L 10426,8317 10426,7900 11190,7459 11190,8354 9641,9250 9641,8354 9782,8273 9782,8317 Z M 10408,8299 L 9800,8299 9800,8262 10408,7911 10408,8299 Z"/>
     <path fill="rgb(212,212,212)" stroke="none" d="M 9800,8299 L 10408,8299 10408,7911 11190,7459 11190,8354 9641,9250 9641,8354 9800,8262 9800,8299 Z M 10391,8282 L 9817,8282 9817,8252 10391,7921 10391,8282 Z"/>
     <path fill="rgb(213,213,213)" stroke="none" d="M 9817,8282 L 10391,8282 10391,7921 11190,7459 11190,8354 9641,9250 9641,8354 9817,8252 9817,8282 Z M 10373,8264 L 9835,8264 9835,8242 10373,7931 10373,8264 Z"/>
     <path fill="rgb(214,214,214)" stroke="none" d="M 9835,8264 L 10373,8264 10373,7931 11190,7459 11190,8354 9641,9250 9641,8354 9835,8242 9835,8264 Z M 10355,8246 L 9853,8246 9853,8232 10355,7941 10355,8246 Z"/>
     <path fill="rgb(215,215,215)" stroke="none" d="M 9853,8246 L 10355,8246 10355,7941 11190,7459 11190,8354 9641,9250 9641,8354 9853,8232 9853,8246 Z M 10337,8228 L 9871,8228 9871,8221 10337,7952 10337,8228 Z"/>
     <path fill="rgb(216,216,216)" stroke="none" d="M 9871,8228 L 10337,8228 10337,7952 11190,7459 11190,8354 9641,9250 9641,8354 9871,8221 9871,8228 Z M 10319,8210 L 9890,8210 10319,7962 10319,8210 Z"/>
     <path fill="rgb(217,217,217)" stroke="none" d="M 10319,8210 L 10319,7962 11190,7459 11190,8354 9641,9250 9641,8354 9890,8210 10319,8210 Z M 10301,8192 L 9921,8192 10301,7973 10301,8192 Z"/>
     <path fill="rgb(218,218,218)" stroke="none" d="M 10301,8192 L 10301,7973 11190,7459 11190,8354 9641,9250 9641,8354 9921,8192 10301,8192 Z M 10283,8174 L 9953,8174 10283,7983 10283,8174 Z"/>
     <path fill="rgb(219,219,219)" stroke="none" d="M 10283,8174 L 10283,7983 11190,7459 11190,8354 9641,9250 9641,8354 9953,8174 10283,8174 Z M 10265,8156 L 9984,8156 10265,7993 10265,8156 Z"/>
     <path fill="rgb(220,220,220)" stroke="none" d="M 10265,8156 L 10265,7993 11190,7459 11190,8354 9641,9250 9641,8354 9984,8156 10265,8156 Z M 10247,8138 L 10015,8138 10247,8004 10247,8138 Z"/>
     <path fill="rgb(221,221,221)" stroke="none" d="M 10247,8138 L 10247,8004 11190,7459 11190,8354 9641,9250 9641,8354 10015,8138 10247,8138 Z M 10229,8120 L 10046,8120 10229,8014 10229,8120 Z"/>
     <path fill="rgb(222,222,222)" stroke="none" d="M 10229,8120 L 10229,8014 11190,7459 11190,8354 9641,9250 9641,8354 10046,8120 10229,8120 Z M 10211,8102 L 10077,8102 10211,8025 10211,8102 Z"/>
     <path fill="rgb(223,223,223)" stroke="none" d="M 10211,8102 L 10211,8025 11190,7459 11190,8354 9641,9250 9641,8354 10077,8102 10211,8102 Z M 10193,8084 L 10108,8084 10193,8035 10193,8084 Z"/>
     <path fill="rgb(224,224,224)" stroke="none" d="M 10193,8084 L 10193,8035 11190,7459 11190,8354 9641,9250 9641,8354 10108,8084 10193,8084 Z M 10175,8066 L 10139,8066 10175,8045 10175,8066 Z"/>
     <path fill="rgb(225,225,225)" stroke="none" d="M 10175,8066 L 10175,8045 11190,7459 11190,8354 9641,9250 9641,8354 10139,8066 10175,8066 Z"/>
     <path fill="rgb(226,226,226)" stroke="none" d="M 9641,9250 L 9641,8354 11190,7459 11190,8354 9641,9250 Z"/>
     <path fill="rgb(227,227,227)" stroke="none" d="M 9641,9250 L 9641,8354 11190,7459 11190,8354 9641,9250 Z"/>
     <path fill="rgb(229,229,229)" stroke="none" d="M 9641,9250 L 9641,8354 11190,7459 11190,8354 9641,9250 Z"/>
     <path fill="none" stroke="rgb(255,255,255)" id="Drawing_7_0" stroke-width="40" stroke-linejoin="round" d="M 9641,9250 L 9641,8354 11190,7459 11190,8354 9641,9250 Z"/>
    </g>
    <g>
     <path fill="none" stroke="rgb(127,127,127)" id="Drawing_8_0" stroke-width="40" stroke-linejoin="round" d="M 9311,9026 L 9466,8936"/>
    </g>
    <g>
     <path fill="rgb(179,179,179)" stroke="none" d="M 9494,8806 L 9091,8806 9067,8774 9020,8701 8980,8624 8964,8585 8950,8546 8938,8507 8930,8470 8925,8433 8923,8399 8925,8366 8930,8336 8938,8308 8950,8283 8964,8260 8980,8240 8999,8223 9020,8209 9043,8198 9067,8190 9092,8186 9119,8185 9147,8188 9175,8195 9204,8205 9233,8220 9262,8239 9291,8261 9319,8288 9347,8317 9374,8348 9399,8382 9446,8455 9486,8532 9494,8552 9494,8806 Z"/>
     <path fill="rgb(180,180,180)" stroke="none" d="M 9494,8806 L 9494,8552 9502,8571 9516,8610 9528,8649 9536,8686 9541,8722 9543,8757 9541,8789 9536,8820 9528,8848 9516,8873 9502,8896 9486,8916 9467,8933 9446,8947 9423,8958 9399,8966 9374,8970 9347,8971 9319,8968 9291,8961 9262,8951 9233,8936 9204,8917 9175,8895 9147,8869 9119,8840 9092,8808 9091,8806 9494,8806 Z M 9486,8798 L 9085,8798 9067,8774 9020,8701 8980,8624 8964,8585 8950,8546 8938,8507 8930,8470 8925,8433 8923,8399 8925,8366 8930,8336 8938,8308 8950,8283 8964,8260 8980,8240 8999,8223 9020,8209 9043,8198 9067,8190 9092,8186 9119,8185 9147,8188 9175,8195 9204,8205 9233,8220 9262,8239 9291,8261 9319,8288 9347,8317 9374,8348 9399,8382 9446,8455 9486,8532 9486,8798 Z"/>
     <path fill="rgb(181,181,181)" stroke="none" d="M 9486,8798 L 9486,8532 9502,8571 9516,8610 9528,8649 9536,8686 9541,8722 9543,8757 9541,8789 9536,8820 9528,8848 9516,8873 9502,8896 9486,8916 9467,8933 9446,8947 9423,8958 9399,8966 9374,8970 9347,8971 9319,8968 9291,8961 9262,8951 9233,8936 9204,8917 9175,8895 9147,8869 9119,8840 9092,8808 9085,8798 9486,8798 Z M 9478,8790 L 9079,8790 9067,8774 9020,8701 8980,8624 8964,8585 8950,8546 8938,8507 8930,8470 8925,8433 8923,8399 8925,8366 8930,8336 8938,8308 8950,8283 8964,8260 8980,8240 8999,8223 9020,8209 9043,8198 9067,8190 9092,8186 9119,8185 9147,8188 9175,8195 9204,8205 9233,8220 9262,8239 9291,8261 9319,8288 9347,8317 9374,8348 9399,8382 9446,8455 9478,8517 9478,8790 Z"/>
     <path fill="rgb(182,182,182)" stroke="none" d="M 9478,8790 L 9478,8517 9486,8532 9502,8571 9516,8610 9528,8649 9536,8686 9541,8722 9543,8757 9541,8789 9536,8820 9528,8848 9516,8873 9502,8896 9486,8916 9467,8933 9446,8947 9423,8958 9399,8966 9374,8970 9347,8971 9319,8968 9291,8961 9262,8951 9233,8936 9204,8917 9175,8895 9147,8869 9119,8840 9092,8808 9079,8790 9478,8790 Z M 9470,8782 L 9073,8782 9067,8774 9020,8701 8980,8624 8964,8585 8950,8546 8938,8507 8930,8470 8925,8433 8923,8399 8925,8366 8930,8336 8938,8308 8950,8283 8964,8260 8980,8240 8999,8223 9020,8209 9043,8198 9067,8190 9092,8186 9119,8185 9147,8188 9175,8195 9204,8205 9233,8220 9262,8239 9291,8261 9319,8288 9347,8317 9374,8348 9399,8382 9446,8455 9470,8501 9470,8782 Z"/>
     <path fill="rgb(183,183,183)" stroke="none" d="M 9470,8782 L 9470,8501 9486,8532 9502,8571 9516,8610 9528,8649 9536,8686 9541,8722 9543,8757 9541,8789 9536,8820 9528,8848 9516,8873 9502,8896 9486,8916 9467,8933 9446,8947 9423,8958 9399,8966 9374,8970 9347,8971 9319,8968 9291,8961 9262,8951 9233,8936 9204,8917 9175,8895 9147,8869 9119,8840 9092,8808 9073,8782 9470,8782 Z M 9462,8774 L 9067,8774 9020,8701 8980,8624 8964,8585 8950,8546 8938,8507 8930,8470 8925,8433 8923,8399 8925,8366 8930,8336 8938,8308 8950,8283 8964,8260 8980,8240 8999,8223 9020,8209 9043,8198 9067,8190 9092,8186 9119,8185 9147,8188 9175,8195 9204,8205 9233,8220 9262,8239 9291,8261 9319,8288 9347,8317 9374,8348 9399,8382 9446,8455 9462,8486 9462,8774 Z"/>
     <path fill="rgb(184,184,184)" stroke="none" d="M 9462,8774 L 9462,8486 9486,8532 9502,8571 9516,8610 9528,8649 9536,8686 9541,8722 9543,8757 9541,8789 9536,8820 9528,8848 9516,8873 9502,8896 9486,8916 9467,8933 9446,8947 9423,8958 9399,8966 9374,8970 9347,8971 9319,8968 9291,8961 9262,8951 9233,8936 9204,8917 9175,8895 9147,8869 9119,8840 9092,8808 9067,8774 9462,8774 Z M 9454,8766 L 9062,8766 9020,8701 8980,8624 8964,8585 8950,8546 8938,8507 8930,8470 8925,8433 8923,8399 8925,8366 8930,8336 8938,8308 8950,8283 8964,8260 8980,8240 8999,8223 9020,8209 9043,8198 9067,8190 9092,8186 9119,8185 9147,8188 9175,8195 9204,8205 9233,8220 9262,8239 9291,8261 9319,8288 9347,8317 9374,8348 9399,8382 9446,8455 9454,8470 9454,8766 Z"/>
     <path fill="rgb(185,185,185)" stroke="none" d="M 9454,8766 L 9454,8470 9486,8532 9502,8571 9516,8610 9528,8649 9536,8686 9541,8722 9543,8757 9541,8789 9536,8820 9528,8848 9516,8873 9502,8896 9486,8916 9467,8933 9446,8947 9423,8958 9399,8966 9374,8970 9347,8971 9319,8968 9291,8961 9262,8951 9233,8936 9204,8917 9175,8895 9147,8869 9119,8840 9092,8808 9067,8774 9062,8766 9454,8766 Z M 9446,8758 L 9057,8758 9020,8701 8980,8624 8964,8585 8950,8546 8938,8507 8930,8470 8925,8433 8923,8399 8925,8366 8930,8336 8938,8308 8950,8283 8964,8260 8980,8240 8999,8223 9020,8209 9043,8198 9067,8190 9092,8186 9119,8185 9147,8188 9175,8195 9204,8205 9233,8220 9262,8239 9291,8261 9319,8288 9347,8317 9374,8348 9399,8382 9446,8455 9446,8758 Z"/>
     <path fill="rgb(186,186,186)" stroke="none" d="M 9446,8758 L 9446,8455 9486,8532 9502,8571 9516,8610 9528,8649 9536,8686 9541,8722 9543,8757 9541,8789 9536,8820 9528,8848 9516,8873 9502,8896 9486,8916 9467,8933 9446,8947 9423,8958 9399,8966 9374,8970 9347,8971 9319,8968 9291,8961 9262,8951 9233,8936 9204,8917 9175,8895 9147,8869 9119,8840 9092,8808 9067,8774 9057,8758 9446,8758 Z M 9438,8750 L 9052,8750 9020,8701 8980,8624 8964,8585 8950,8546 8938,8507 8930,8470 8925,8433 8923,8399 8925,8366 8930,8336 8938,8308 8950,8283 8964,8260 8980,8240 8999,8223 9020,8209 9043,8198 9067,8190 9092,8186 9119,8185 9147,8188 9175,8195 9204,8205 9233,8220 9262,8239 9291,8261 9319,8288 9347,8317 9374,8348 9399,8382 9438,8443 9438,8750 Z"/>
     <path fill="rgb(187,187,187)" stroke="none" d="M 9438,8750 L 9438,8443 9446,8455 9486,8532 9502,8571 9516,8610 9528,8649 9536,8686 9541,8722 9543,8757 9541,8789 9536,8820 9528,8848 9516,8873 9502,8896 9486,8916 9467,8933 9446,8947 9423,8958 9399,8966 9374,8970 9347,8971 9319,8968 9291,8961 9262,8951 9233,8936 9204,8917 9175,8895 9147,8869 9119,8840 9092,8808 9067,8774 9052,8750 9438,8750 Z M 9430,8742 L 9046,8742 9020,8701 8980,8624 8964,8585 8950,8546 8938,8507 8930,8470 8925,8433 8923,8399 8925,8366 8930,8336 8938,8308 8950,8283 8964,8260 8980,8240 8999,8223 9020,8209 9043,8198 9067,8190 9092,8186 9119,8185 9147,8188 9175,8195 9204,8205 9233,8220 9262,8239 9291,8261 9319,8288 9347,8317 9374,8348 9399,8382 9430,8430 9430,8742 Z"/>
     <path fill="rgb(188,188,188)" stroke="none" d="M 9430,8742 L 9430,8430 9446,8455 9486,8532 9502,8571 9516,8610 9528,8649 9536,8686 9541,8722 9543,8757 9541,8789 9536,8820 9528,8848 9516,8873 9502,8896 9486,8916 9467,8933 9446,8947 9423,8958 9399,8966 9374,8970 9347,8971 9319,8968 9291,8961 9262,8951 9233,8936 9204,8917 9175,8895 9147,8869 9119,8840 9092,8808 9067,8774 9046,8742 9430,8742 Z M 9423,8735 L 9042,8735 9020,8701 8980,8624 8964,8585 8950,8546 8938,8507 8930,8470 8925,8433 8923,8399 8925,8366 8930,8336 8938,8308 8950,8283 8964,8260 8980,8240 8999,8223 9020,8209 9043,8198 9067,8190 9092,8186 9119,8185 9147,8188 9175,8195 9204,8205 9233,8220 9262,8239 9291,8261 9319,8288 9347,8317 9374,8348 9399,8382 9423,8419 9423,8735 Z"/>
     <path fill="rgb(189,189,189)" stroke="none" d="M 9423,8735 L 9423,8419 9446,8455 9486,8532 9502,8571 9516,8610 9528,8649 9536,8686 9541,8722 9543,8757 9541,8789 9536,8820 9528,8848 9516,8873 9502,8896 9486,8916 9467,8933 9446,8947 9423,8958 9399,8966 9374,8970 9347,8971 9319,8968 9291,8961 9262,8951 9233,8936 9204,8917 9175,8895 9147,8869 9119,8840 9092,8808 9067,8774 9042,8735 9423,8735 Z M 9415,8727 L 9037,8727 9020,8701 8980,8624 8964,8585 8950,8546 8938,8507 8930,8470 8925,8433 8923,8399 8925,8366 8930,8336 8938,8308 8950,8283 8964,8260 8980,8240 8999,8223 9020,8209 9043,8198 9067,8190 9092,8186 9119,8185 9147,8188 9175,8195 9204,8205 9233,8220 9262,8239 9291,8261 9319,8288 9347,8317 9374,8348 9399,8382 9415,8407 9415,8727 Z"/>
     <path fill="rgb(190,190,190)" stroke="none" d="M 9415,8727 L 9415,8407 9446,8455 9486,8532 9502,8571 9516,8610 9528,8649 9536,8686 9541,8722 9543,8757 9541,8789 9536,8820 9528,8848 9516,8873 9502,8896 9486,8916 9467,8933 9446,8947 9423,8958 9399,8966 9374,8970 9347,8971 9319,8968 9291,8961 9262,8951 9233,8936 9204,8917 9175,8895 9147,8869 9119,8840 9092,8808 9067,8774 9037,8727 9415,8727 Z M 9407,8719 L 9032,8719 9020,8701 8980,8624 8964,8585 8950,8546 8938,8507 8930,8470 8925,8433 8923,8399 8925,8366 8930,8336 8938,8308 8950,8283 8964,8260 8980,8240 8999,8223 9020,8209 9043,8198 9067,8190 9092,8186 9119,8185 9147,8188 9175,8195 9204,8205 9233,8220 9262,8239 9291,8261 9319,8288 9347,8317 9374,8348 9399,8382 9407,8394 9407,8719 Z"/>
     <path fill="rgb(191,191,191)" stroke="none" d="M 9407,8719 L 9407,8394 9446,8455 9486,8532 9502,8571 9516,8610 9528,8649 9536,8686 9541,8722 9543,8757 9541,8789 9536,8820 9528,8848 9516,8873 9502,8896 9486,8916 9467,8933 9446,8947 9423,8958 9399,8966 9374,8970 9347,8971 9319,8968 9291,8961 9262,8951 9233,8936 9204,8917 9175,8895 9147,8869 9119,8840 9092,8808 9067,8774 9032,8719 9407,8719 Z M 9399,8711 L 9026,8711 9020,8701 8980,8624 8964,8585 8950,8546 8938,8507 8930,8470 8925,8433 8923,8399 8925,8366 8930,8336 8938,8308 8950,8283 8964,8260 8980,8240 8999,8223 9020,8209 9043,8198 9067,8190 9092,8186 9119,8185 9147,8188 9175,8195 9204,8205 9233,8220 9262,8239 9291,8261 9319,8288 9347,8317 9374,8348 9399,8382 9399,8711 Z"/>
     <path fill="rgb(192,192,192)" stroke="none" d="M 9399,8711 L 9399,8382 9446,8455 9486,8532 9502,8571 9516,8610 9528,8649 9536,8686 9541,8722 9543,8757 9541,8789 9536,8820 9528,8848 9516,8873 9502,8896 9486,8916 9467,8933 9446,8947 9423,8958 9399,8966 9374,8970 9347,8971 9319,8968 9291,8961 9262,8951 9233,8936 9204,8917 9175,8895 9147,8869 9119,8840 9092,8808 9067,8774 9026,8711 9399,8711 Z M 9391,8703 L 9021,8703 9020,8701 8980,8624 8964,8585 8950,8546 8938,8507 8930,8470 8925,8433 8923,8399 8925,8366 8930,8336 8938,8308 8950,8283 8964,8260 8980,8240 8999,8223 9020,8209 9043,8198 9067,8190 9092,8186 9119,8185 9147,8188 9175,8195 9204,8205 9233,8220 9262,8239 9291,8261 9319,8288 9347,8317 9374,8348 9391,8371 9391,8703 Z"/>
     <path fill="rgb(193,193,193)" stroke="none" d="M 9391,8703 L 9391,8371 9399,8382 9446,8455 9486,8532 9502,8571 9516,8610 9528,8649 9536,8686 9541,8722 9543,8757 9541,8789 9536,8820 9528,8848 9516,8873 9502,8896 9486,8916 9467,8933 9446,8947 9423,8958 9399,8966 9374,8970 9347,8971 9319,8968 9291,8961 9262,8951 9233,8936 9204,8917 9175,8895 9147,8869 9119,8840 9092,8808 9067,8774 9021,8703 9391,8703 Z M 9383,8695 L 9017,8695 8980,8624 8964,8585 8950,8546 8938,8507 8930,8470 8925,8433 8923,8399 8925,8366 8930,8336 8938,8308 8950,8283 8964,8260 8980,8240 8999,8223 9020,8209 9043,8198 9067,8190 9092,8186 9119,8185 9147,8188 9175,8195 9204,8205 9233,8220 9262,8239 9291,8261 9319,8288 9347,8317 9374,8348 9383,8360 9383,8695 Z"/>
     <path fill="rgb(194,194,194)" stroke="none" d="M 9383,8695 L 9383,8360 9399,8382 9446,8455 9486,8532 9502,8571 9516,8610 9528,8649 9536,8686 9541,8722 9543,8757 9541,8789 9536,8820 9528,8848 9516,8873 9502,8896 9486,8916 9467,8933 9446,8947 9423,8958 9399,8966 9374,8970 9347,8971 9319,8968 9291,8961 9262,8951 9233,8936 9204,8917 9175,8895 9147,8869 9119,8840 9092,8808 9067,8774 9020,8701 9017,8695 9383,8695 Z M 9375,8687 L 9013,8687 8980,8624 8964,8585 8950,8546 8938,8507 8930,8470 8925,8433 8923,8399 8925,8366 8930,8336 8938,8308 8950,8283 8964,8260 8980,8240 8999,8223 9020,8209 9043,8198 9067,8190 9092,8186 9119,8185 9147,8188 9175,8195 9204,8205 9233,8220 9262,8239 9291,8261 9319,8288 9347,8317 9374,8348 9375,8349 9375,8687 Z"/>
     <path fill="rgb(195,195,195)" stroke="none" d="M 9375,8687 L 9375,8349 9399,8382 9446,8455 9486,8532 9502,8571 9516,8610 9528,8649 9536,8686 9541,8722 9543,8757 9541,8789 9536,8820 9528,8848 9516,8873 9502,8896 9486,8916 9467,8933 9446,8947 9423,8958 9399,8966 9374,8970 9347,8971 9319,8968 9291,8961 9262,8951 9233,8936 9204,8917 9175,8895 9147,8869 9119,8840 9092,8808 9067,8774 9020,8701 9013,8687 9375,8687 Z M 9367,8679 L 9009,8679 8980,8624 8964,8585 8950,8546 8938,8507 8930,8470 8925,8433 8923,8399 8925,8366 8930,8336 8938,8308 8950,8283 8964,8260 8980,8240 8999,8223 9020,8209 9043,8198 9067,8190 9092,8186 9119,8185 9147,8188 9175,8195 9204,8205 9233,8220 9262,8239 9291,8261 9319,8288 9347,8317 9367,8340 9367,8679 Z"/>
     <path fill="rgb(196,196,196)" stroke="none" d="M 9367,8679 L 9367,8340 9374,8348 9399,8382 9446,8455 9486,8532 9502,8571 9516,8610 9528,8649 9536,8686 9541,8722 9543,8757 9541,8789 9536,8820 9528,8848 9516,8873 9502,8896 9486,8916 9467,8933 9446,8947 9423,8958 9399,8966 9374,8970 9347,8971 9319,8968 9291,8961 9262,8951 9233,8936 9204,8917 9175,8895 9147,8869 9119,8840 9092,8808 9067,8774 9020,8701 9009,8679 9367,8679 Z M 9359,8671 L 9004,8671 8980,8624 8964,8585 8950,8546 8938,8507 8930,8470 8925,8433 8923,8399 8925,8366 8930,8336 8938,8308 8950,8283 8964,8260 8980,8240 8999,8223 9020,8209 9043,8198 9067,8190 9092,8186 9119,8185 9147,8188 9175,8195 9204,8205 9233,8220 9262,8239 9291,8261 9319,8288 9347,8317 9359,8331 9359,8671 Z"/>
     <path fill="rgb(197,197,197)" stroke="none" d="M 9359,8671 L 9359,8331 9374,8348 9399,8382 9446,8455 9486,8532 9502,8571 9516,8610 9528,8649 9536,8686 9541,8722 9543,8757 9541,8789 9536,8820 9528,8848 9516,8873 9502,8896 9486,8916 9467,8933 9446,8947 9423,8958 9399,8966 9374,8970 9347,8971 9319,8968 9291,8961 9262,8951 9233,8936 9204,8917 9175,8895 9147,8869 9119,8840 9092,8808 9067,8774 9020,8701 9004,8671 9359,8671 Z M 9352,8664 L 9001,8664 8980,8624 8964,8585 8950,8546 8938,8507 8930,8470 8925,8433 8923,8399 8925,8366 8930,8336 8938,8308 8950,8283 8964,8260 8980,8240 8999,8223 9020,8209 9043,8198 9067,8190 9092,8186 9119,8185 9147,8188 9175,8195 9204,8205 9233,8220 9262,8239 9291,8261 9319,8288 9347,8317 9352,8323 9352,8664 Z"/>
     <path fill="rgb(198,198,198)" stroke="none" d="M 9352,8664 L 9352,8323 9374,8348 9399,8382 9446,8455 9486,8532 9502,8571 9516,8610 9528,8649 9536,8686 9541,8722 9543,8757 9541,8789 9536,8820 9528,8848 9516,8873 9502,8896 9486,8916 9467,8933 9446,8947 9423,8958 9399,8966 9374,8970 9347,8971 9319,8968 9291,8961 9262,8951 9233,8936 9204,8917 9175,8895 9147,8869 9119,8840 9092,8808 9067,8774 9020,8701 9001,8664 9352,8664 Z M 9344,8656 L 8997,8656 8980,8624 8964,8585 8950,8546 8938,8507 8930,8470 8925,8433 8923,8399 8925,8366 8930,8336 8938,8308 8950,8283 8964,8260 8980,8240 8999,8223 9020,8209 9043,8198 9067,8190 9092,8186 9119,8185 9147,8188 9175,8195 9204,8205 9233,8220 9262,8239 9291,8261 9319,8288 9344,8314 9344,8656 Z"/>
     <path fill="rgb(199,199,199)" stroke="none" d="M 9344,8656 L 9344,8314 9347,8317 9374,8348 9399,8382 9446,8455 9486,8532 9502,8571 9516,8610 9528,8649 9536,8686 9541,8722 9543,8757 9541,8789 9536,8820 9528,8848 9516,8873 9502,8896 9486,8916 9467,8933 9446,8947 9423,8958 9399,8966 9374,8970 9347,8971 9319,8968 9291,8961 9262,8951 9233,8936 9204,8917 9175,8895 9147,8869 9119,8840 9092,8808 9067,8774 9020,8701 8997,8656 9344,8656 Z M 9159,8191 L 9175,8195 9204,8205 9233,8220 9262,8239 9291,8261 9319,8288 9336,8306 9336,8648 8992,8648 8980,8624 8964,8585 8950,8546 8938,8507 8930,8470 8925,8433 8923,8399 8925,8366 8930,8336 8938,8308 8950,8283 8964,8260 8980,8240 8999,8223 9020,8209 9043,8198 9064,8191 9159,8191 Z"/>
     <path fill="rgb(200,200,200)" stroke="none" d="M 9336,8648 L 9336,8306 9347,8317 9374,8348 9399,8382 9446,8455 9486,8532 9502,8571 9516,8610 9528,8649 9536,8686 9541,8722 9543,8757 9541,8789 9536,8820 9528,8848 9516,8873 9502,8896 9486,8916 9467,8933 9446,8947 9423,8958 9399,8966 9374,8970 9347,8971 9319,8968 9291,8961 9262,8951 9233,8936 9204,8917 9175,8895 9147,8869 9119,8840 9092,8808 9067,8774 9020,8701 8992,8648 9336,8648 Z M 9064,8191 L 9067,8190 9092,8186 9119,8185 9147,8188 9159,8191 9064,8191 Z M 9187,8199 L 9204,8205 9233,8220 9262,8239 9291,8261 9319,8288 9328,8297 9328,8640 8988,8640 8980,8624 8964,8585 8950,8546 8938,8507 8930,8470 8925,8433 8923,8399 8925,8366 8930,8336 8938,8308 8950,8283 8964,8260 8980,8240 8999,8223 9020,8209 9041,8199 9187,8199 Z"/>
     <path fill="rgb(201,201,201)" stroke="none" d="M 9328,8640 L 9328,8297 9347,8317 9374,8348 9399,8382 9446,8455 9486,8532 9502,8571 9516,8610 9528,8649 9536,8686 9541,8722 9543,8757 9541,8789 9536,8820 9528,8848 9516,8873 9502,8896 9486,8916 9467,8933 9446,8947 9423,8958 9399,8966 9374,8970 9347,8971 9319,8968 9291,8961 9262,8951 9233,8936 9204,8917 9175,8895 9147,8869 9119,8840 9092,8808 9067,8774 9020,8701 8988,8640 9328,8640 Z M 9041,8199 L 9043,8198 9067,8190 9092,8186 9119,8185 9147,8188 9175,8195 9187,8199 9041,8199 Z M 9208,8207 L 9233,8220 9262,8239 9291,8261 9319,8288 9320,8289 9320,8632 8984,8632 8980,8624 8964,8585 8950,8546 8938,8507 8930,8470 8925,8433 8923,8399 8925,8366 8930,8336 8938,8308 8950,8283 8964,8260 8980,8240 8999,8223 9020,8209 9024,8207 9208,8207 Z"/>
     <path fill="rgb(202,202,202)" stroke="none" d="M 9320,8632 L 9320,8289 9347,8317 9374,8348 9399,8382 9446,8455 9486,8532 9502,8571 9516,8610 9528,8649 9536,8686 9541,8722 9543,8757 9541,8789 9536,8820 9528,8848 9516,8873 9502,8896 9486,8916 9467,8933 9446,8947 9423,8958 9399,8966 9374,8970 9347,8971 9319,8968 9291,8961 9262,8951 9233,8936 9204,8917 9175,8895 9147,8869 9119,8840 9092,8808 9067,8774 9020,8701 8984,8632 9320,8632 Z M 9024,8207 L 9043,8198 9067,8190 9092,8186 9119,8185 9147,8188 9175,8195 9204,8205 9208,8207 9024,8207 Z M 9223,8215 L 9233,8220 9262,8239 9291,8261 9312,8281 9312,8624 8980,8624 8964,8585 8950,8546 8938,8507 8930,8470 8925,8433 8923,8399 8925,8366 8930,8336 8938,8308 8950,8283 8964,8260 8980,8240 8999,8223 9011,8215 9223,8215 Z"/>
     <path fill="rgb(203,203,203)" stroke="none" d="M 9312,8624 L 9312,8281 9319,8288 9347,8317 9374,8348 9399,8382 9446,8455 9486,8532 9502,8571 9516,8610 9528,8649 9536,8686 9541,8722 9543,8757 9541,8789 9536,8820 9528,8848 9516,8873 9502,8896 9486,8916 9467,8933 9446,8947 9423,8958 9399,8966 9374,8970 9347,8971 9319,8968 9291,8961 9262,8951 9233,8936 9204,8917 9175,8895 9147,8869 9119,8840 9092,8808 9067,8774 9020,8701 8980,8624 9312,8624 Z M 9011,8215 L 9020,8209 9043,8198 9067,8190 9092,8186 9119,8185 9147,8188 9175,8195 9204,8205 9223,8215 9011,8215 Z M 9238,8223 L 9262,8239 9291,8261 9304,8274 9304,8616 8977,8616 8964,8585 8950,8546 8938,8507 8930,8470 8925,8433 8923,8399 8925,8366 8930,8336 8938,8308 8950,8283 8964,8260 8980,8240 8999,8223 9238,8223 Z"/>
     <path fill="rgb(204,204,204)" stroke="none" d="M 9304,8616 L 9304,8274 9319,8288 9347,8317 9374,8348 9399,8382 9446,8455 9486,8532 9502,8571 9516,8610 9528,8649 9536,8686 9541,8722 9543,8757 9541,8789 9536,8820 9528,8848 9516,8873 9502,8896 9486,8916 9467,8933 9446,8947 9423,8958 9399,8966 9374,8970 9347,8971 9319,8968 9291,8961 9262,8951 9233,8936 9204,8917 9175,8895 9147,8869 9119,8840 9092,8808 9067,8774 9020,8701 8980,8624 8977,8616 9304,8616 Z M 8999,8223 L 9020,8209 9043,8198 9067,8190 9092,8186 9119,8185 9147,8188 9175,8195 9204,8205 9233,8220 9238,8223 8999,8223 Z M 9250,8231 L 9262,8239 9291,8261 9296,8266 9296,8608 8973,8608 8964,8585 8950,8546 8938,8507 8930,8470 8925,8433 8923,8399 8925,8366 8930,8336 8938,8308 8950,8283 8964,8260 8980,8240 8990,8231 9250,8231 Z"/>
     <path fill="rgb(205,205,205)" stroke="none" d="M 9296,8608 L 9296,8266 9319,8288 9347,8317 9374,8348 9399,8382 9446,8455 9486,8532 9502,8571 9516,8610 9528,8649 9536,8686 9541,8722 9543,8757 9541,8789 9536,8820 9528,8848 9516,8873 9502,8896 9486,8916 9467,8933 9446,8947 9423,8958 9399,8966 9374,8970 9347,8971 9319,8968 9291,8961 9262,8951 9233,8936 9204,8917 9175,8895 9147,8869 9119,8840 9092,8808 9067,8774 9020,8701 8980,8624 8973,8608 9296,8608 Z M 8990,8231 L 8999,8223 9020,8209 9043,8198 9067,8190 9092,8186 9119,8185 9147,8188 9175,8195 9204,8205 9233,8220 9250,8231 8990,8231 Z M 9262,8239 L 9288,8259 9288,8600 8970,8600 8964,8585 8950,8546 8938,8507 8930,8470 8927,8448 8927,8354 8930,8336 8938,8308 8950,8283 8964,8260 8980,8240 8981,8239 9262,8239 Z"/>
     <path fill="rgb(206,206,206)" stroke="none" d="M 8927,8448 L 8925,8433 8923,8399 8925,8366 8927,8354 8927,8448 Z M 9288,8600 L 9288,8259 9291,8261 9319,8288 9347,8317 9374,8348 9399,8382 9446,8455 9486,8532 9502,8571 9516,8610 9528,8649 9536,8686 9541,8722 9543,8757 9541,8789 9536,8820 9528,8848 9516,8873 9502,8896 9486,8916 9467,8933 9446,8947 9423,8958 9399,8966 9374,8970 9347,8971 9319,8968 9291,8961 9262,8951 9233,8936 9204,8917 9175,8895 9147,8869 9119,8840 9092,8808 9067,8774 9020,8701 8980,8624 8970,8600 9288,8600 Z M 8981,8239 L 8999,8223 9020,8209 9043,8198 9067,8190 9092,8186 9119,8185 9147,8188 9175,8195 9204,8205 9233,8220 9262,8239 8981,8239 Z M 9271,8246 L 9281,8253 9281,8593 8967,8593 8964,8585 8950,8546 8938,8507 8934,8489 8934,8322 8938,8308 8950,8283 8964,8260 8975,8246 9271,8246 Z"/>
     <path fill="rgb(207,207,207)" stroke="none" d="M 8934,8489 L 8930,8470 8925,8433 8923,8399 8925,8366 8930,8336 8934,8322 8934,8489 Z M 9281,8593 L 9281,8253 9291,8261 9319,8288 9347,8317 9374,8348 9399,8382 9446,8455 9486,8532 9502,8571 9516,8610 9528,8649 9536,8686 9541,8722 9543,8757 9541,8789 9536,8820 9528,8848 9516,8873 9502,8896 9486,8916 9467,8933 9446,8947 9423,8958 9399,8966 9374,8970 9347,8971 9319,8968 9291,8961 9262,8951 9233,8936 9204,8917 9175,8895 9147,8869 9119,8840 9092,8808 9067,8774 9020,8701 8980,8624 8967,8593 9281,8593 Z M 8975,8246 L 8980,8240 8999,8223 9020,8209 9043,8198 9067,8190 9092,8186 9119,8185 9147,8188 9175,8195 9204,8205 9233,8220 9262,8239 9271,8246 8975,8246 Z M 9273,8254 L 9273,8585 8964,8585 8950,8546 8942,8520 8942,8300 8950,8283 8964,8260 8969,8254 9273,8254 Z"/>
     <path fill="rgb(208,208,208)" stroke="none" d="M 8942,8520 L 8938,8507 8930,8470 8925,8433 8923,8399 8925,8366 8930,8336 8938,8308 8942,8300 8942,8520 Z M 9273,8585 L 9273,8254 8969,8254 8980,8240 8999,8223 9020,8209 9043,8198 9067,8190 9092,8186 9119,8185 9147,8188 9175,8195 9204,8205 9233,8220 9262,8239 9291,8261 9319,8288 9347,8317 9374,8348 9399,8382 9446,8455 9486,8532 9502,8571 9516,8610 9528,8649 9536,8686 9541,8722 9543,8757 9541,8789 9536,8820 9528,8848 9516,8873 9502,8896 9486,8916 9467,8933 9446,8947 9423,8958 9399,8966 9374,8970 9347,8971 9319,8968 9291,8961 9262,8951 9233,8936 9204,8917 9175,8895 9147,8869 9119,8840 9092,8808 9067,8774 9020,8701 8980,8624 8964,8585 9273,8585 Z M 9265,8262 L 9265,8577 8961,8577 8950,8546 8950,8283 8963,8262 9265,8262 Z"/>
     <path fill="rgb(209,209,209)" stroke="none" d="M 8950,8546 L 8938,8507 8930,8470 8925,8433 8923,8399 8925,8366 8930,8336 8938,8308 8950,8283 8950,8546 Z M 9265,8577 L 9265,8262 8963,8262 8964,8260 8980,8240 8999,8223 9020,8209 9043,8198 9067,8190 9092,8186 9119,8185 9147,8188 9175,8195 9204,8205 9233,8220 9262,8239 9291,8261 9319,8288 9347,8317 9374,8348 9399,8382 9446,8455 9486,8532 9502,8571 9516,8610 9528,8649 9536,8686 9541,8722 9543,8757 9541,8789 9536,8820 9528,8848 9516,8873 9502,8896 9486,8916 9467,8933 9446,8947 9423,8958 9399,8966 9374,8970 9347,8971 9319,8968 9291,8961 9262,8951 9233,8936 9204,8917 9175,8895 9147,8869 9119,8840 9092,8808 9067,8774 9020,8701 8980,8624 8964,8585 8961,8577 9265,8577 Z M 8958,8270 L 9257,8270 9257,8569 8958,8569 8958,8568 8958,8270 Z"/>
     <path fill="rgb(210,210,210)" stroke="none" d="M 8958,8270 L 8958,8568 8950,8546 8938,8507 8930,8470 8925,8433 8923,8399 8925,8366 8930,8336 8938,8308 8950,8283 8964,8260 8980,8240 8999,8223 9020,8209 9043,8198 9067,8190 9092,8186 9119,8185 9147,8188 9175,8195 9204,8205 9233,8220 9262,8239 9291,8261 9319,8288 9347,8317 9374,8348 9399,8382 9446,8455 9486,8532 9502,8571 9516,8610 9528,8649 9536,8686 9541,8722 9543,8757 9541,8789 9536,8820 9528,8848 9516,8873 9502,8896 9486,8916 9467,8933 9446,8947 9423,8958 9399,8966 9374,8970 9347,8971 9319,8968 9291,8961 9262,8951 9233,8936 9204,8917 9175,8895 9147,8869 9119,8840 9092,8808 9067,8774 9020,8701 8980,8624 8964,8585 8958,8569 9257,8569 9257,8270 8958,8270 Z M 8966,8278 L 9249,8278 9249,8561 8966,8561 8966,8278 Z"/>
     <path fill="rgb(211,211,211)" stroke="none" d="M 8966,8278 L 8966,8561 9249,8561 9249,8278 8966,8278 Z M 8974,8286 L 9241,8286 9241,8553 8974,8553 8974,8286 Z M 9233,8220 L 9262,8239 9291,8261 9319,8288 9347,8317 9374,8348 9399,8382 9446,8455 9486,8532 9502,8571 9516,8610 9528,8649 9536,8686 9541,8722 9543,8757 9541,8789 9536,8820 9528,8848 9516,8873 9502,8896 9486,8916 9467,8933 9446,8947 9423,8958 9399,8966 9374,8970 9347,8971 9319,8968 9291,8961 9262,8951 9233,8936 9204,8917 9175,8895 9147,8869 9119,8840 9092,8808 9067,8774 9020,8701 8980,8624 8964,8585 8950,8546 8938,8507 8930,8470 8925,8433 8923,8399 8925,8366 8930,8336 8938,8308 8950,8283 8964,8260 8980,8240 8999,8223 9020,8209 9043,8198 9067,8190 9092,8186 9119,8185 9147,8188 9175,8195 9204,8205 9233,8220 Z"/>
     <path fill="rgb(212,212,212)" stroke="none" d="M 8974,8286 L 8974,8553 9241,8553 9241,8286 8974,8286 Z M 8982,8294 L 9233,8294 9233,8545 8982,8545 8982,8294 Z M 9233,8220 L 9262,8239 9291,8261 9319,8288 9347,8317 9374,8348 9399,8382 9446,8455 9486,8532 9502,8571 9516,8610 9528,8649 9536,8686 9541,8722 9543,8757 9541,8789 9536,8820 9528,8848 9516,8873 9502,8896 9486,8916 9467,8933 9446,8947 9423,8958 9399,8966 9374,8970 9347,8971 9319,8968 9291,8961 9262,8951 9233,8936 9204,8917 9175,8895 9147,8869 9119,8840 9092,8808 9067,8774 9020,8701 8980,8624 8964,8585 8950,8546 8938,8507 8930,8470 8925,8433 8923,8399 8925,8366 8930,8336 8938,8308 8950,8283 8964,8260 8980,8240 8999,8223 9020,8209 9043,8198 9067,8190 9092,8186 9119,8185 9147,8188 9175,8195 9204,8205 9233,8220 Z"/>
     <path fill="rgb(213,213,213)" stroke="none" d="M 8982,8294 L 8982,8545 9233,8545 9233,8294 8982,8294 Z M 8990,8302 L 9225,8302 9225,8537 8990,8537 8990,8302 Z M 9233,8220 L 9262,8239 9291,8261 9319,8288 9347,8317 9374,8348 9399,8382 9446,8455 9486,8532 9502,8571 9516,8610 9528,8649 9536,8686 9541,8722 9543,8757 9541,8789 9536,8820 9528,8848 9516,8873 9502,8896 9486,8916 9467,8933 9446,8947 9423,8958 9399,8966 9374,8970 9347,8971 9319,8968 9291,8961 9262,8951 9233,8936 9204,8917 9175,8895 9147,8869 9119,8840 9092,8808 9067,8774 9020,8701 8980,8624 8964,8585 8950,8546 8938,8507 8930,8470 8925,8433 8923,8399 8925,8366 8930,8336 8938,8308 8950,8283 8964,8260 8980,8240 8999,8223 9020,8209 9043,8198 9067,8190 9092,8186 9119,8185 9147,8188 9175,8195 9204,8205 9233,8220 Z"/>
     <path fill="rgb(214,214,214)" stroke="none" d="M 8990,8302 L 8990,8537 9225,8537 9225,8302 8990,8302 Z M 8998,8310 L 9217,8310 9217,8529 8998,8529 8998,8310 Z M 9233,8220 L 9262,8239 9291,8261 9319,8288 9347,8317 9374,8348 9399,8382 9446,8455 9486,8532 9502,8571 9516,8610 9528,8649 9536,8686 9541,8722 9543,8757 9541,8789 9536,8820 9528,8848 9516,8873 9502,8896 9486,8916 9467,8933 9446,8947 9423,8958 9399,8966 9374,8970 9347,8971 9319,8968 9291,8961 9262,8951 9233,8936 9204,8917 9175,8895 9147,8869 9119,8840 9092,8808 9067,8774 9020,8701 8980,8624 8964,8585 8950,8546 8938,8507 8930,8470 8925,8433 8923,8399 8925,8366 8930,8336 8938,8308 8950,8283 8964,8260 8980,8240 8999,8223 9020,8209 9043,8198 9067,8190 9092,8186 9119,8185 9147,8188 9175,8195 9204,8205 9233,8220 Z"/>
     <path fill="rgb(215,215,215)" stroke="none" d="M 8998,8310 L 8998,8529 9217,8529 9217,8310 8998,8310 Z M 9005,8317 L 9210,8317 9210,8522 9005,8522 9005,8317 Z M 9233,8220 L 9262,8239 9291,8261 9319,8288 9347,8317 9374,8348 9399,8382 9446,8455 9486,8532 9502,8571 9516,8610 9528,8649 9536,8686 9541,8722 9543,8757 9541,8789 9536,8820 9528,8848 9516,8873 9502,8896 9486,8916 9467,8933 9446,8947 9423,8958 9399,8966 9374,8970 9347,8971 9319,8968 9291,8961 9262,8951 9233,8936 9204,8917 9175,8895 9147,8869 9119,8840 9092,8808 9067,8774 9020,8701 8980,8624 8964,8585 8950,8546 8938,8507 8930,8470 8925,8433 8923,8399 8925,8366 8930,8336 8938,8308 8950,8283 8964,8260 8980,8240 8999,8223 9020,8209 9043,8198 9067,8190 9092,8186 9119,8185 9147,8188 9175,8195 9204,8205 9233,8220 Z"/>
     <path fill="rgb(216,216,216)" stroke="none" d="M 9005,8317 L 9005,8522 9210,8522 9210,8317 9005,8317 Z M 9013,8325 L 9202,8325 9202,8514 9013,8514 9013,8325 Z M 9233,8220 L 9262,8239 9291,8261 9319,8288 9347,8317 9374,8348 9399,8382 9446,8455 9486,8532 9502,8571 9516,8610 9528,8649 9536,8686 9541,8722 9543,8757 9541,8789 9536,8820 9528,8848 9516,8873 9502,8896 9486,8916 9467,8933 9446,8947 9423,8958 9399,8966 9374,8970 9347,8971 9319,8968 9291,8961 9262,8951 9233,8936 9204,8917 9175,8895 9147,8869 9119,8840 9092,8808 9067,8774 9020,8701 8980,8624 8964,8585 8950,8546 8938,8507 8930,8470 8925,8433 8923,8399 8925,8366 8930,8336 8938,8308 8950,8283 8964,8260 8980,8240 8999,8223 9020,8209 9043,8198 9067,8190 9092,8186 9119,8185 9147,8188 9175,8195 9204,8205 9233,8220 Z"/>
     <path fill="rgb(217,217,217)" stroke="none" d="M 9013,8325 L 9013,8514 9202,8514 9202,8325 9013,8325 Z M 9021,8333 L 9194,8333 9194,8506 9021,8506 9021,8333 Z M 9233,8220 L 9262,8239 9291,8261 9319,8288 9347,8317 9374,8348 9399,8382 9446,8455 9486,8532 9502,8571 9516,8610 9528,8649 9536,8686 9541,8722 9543,8757 9541,8789 9536,8820 9528,8848 9516,8873 9502,8896 9486,8916 9467,8933 9446,8947 9423,8958 9399,8966 9374,8970 9347,8971 9319,8968 9291,8961 9262,8951 9233,8936 9204,8917 9175,8895 9147,8869 9119,8840 9092,8808 9067,8774 9020,8701 8980,8624 8964,8585 8950,8546 8938,8507 8930,8470 8925,8433 8923,8399 8925,8366 8930,8336 8938,8308 8950,8283 8964,8260 8980,8240 8999,8223 9020,8209 9043,8198 9067,8190 9092,8186 9119,8185 9147,8188 9175,8195 9204,8205 9233,8220 Z"/>
     <path fill="rgb(218,218,218)" stroke="none" d="M 9021,8333 L 9021,8506 9194,8506 9194,8333 9021,8333 Z M 9029,8341 L 9186,8341 9186,8498 9029,8498 9029,8341 Z M 9233,8220 L 9262,8239 9291,8261 9319,8288 9347,8317 9374,8348 9399,8382 9446,8455 9486,8532 9502,8571 9516,8610 9528,8649 9536,8686 9541,8722 9543,8757 9541,8789 9536,8820 9528,8848 9516,8873 9502,8896 9486,8916 9467,8933 9446,8947 9423,8958 9399,8966 9374,8970 9347,8971 9319,8968 9291,8961 9262,8951 9233,8936 9204,8917 9175,8895 9147,8869 9119,8840 9092,8808 9067,8774 9020,8701 8980,8624 8964,8585 8950,8546 8938,8507 8930,8470 8925,8433 8923,8399 8925,8366 8930,8336 8938,8308 8950,8283 8964,8260 8980,8240 8999,8223 9020,8209 9043,8198 9067,8190 9092,8186 9119,8185 9147,8188 9175,8195 9204,8205 9233,8220 Z"/>
     <path fill="rgb(219,219,219)" stroke="none" d="M 9029,8341 L 9029,8498 9186,8498 9186,8341 9029,8341 Z M 9037,8349 L 9178,8349 9178,8490 9037,8490 9037,8349 Z M 9233,8220 L 9262,8239 9291,8261 9319,8288 9347,8317 9374,8348 9399,8382 9446,8455 9486,8532 9502,8571 9516,8610 9528,8649 9536,8686 9541,8722 9543,8757 9541,8789 9536,8820 9528,8848 9516,8873 9502,8896 9486,8916 9467,8933 9446,8947 9423,8958 9399,8966 9374,8970 9347,8971 9319,8968 9291,8961 9262,8951 9233,8936 9204,8917 9175,8895 9147,8869 9119,8840 9092,8808 9067,8774 9020,8701 8980,8624 8964,8585 8950,8546 8938,8507 8930,8470 8925,8433 8923,8399 8925,8366 8930,8336 8938,8308 8950,8283 8964,8260 8980,8240 8999,8223 9020,8209 9043,8198 9067,8190 9092,8186 9119,8185 9147,8188 9175,8195 9204,8205 9233,8220 Z"/>
     <path fill="rgb(220,220,220)" stroke="none" d="M 9037,8349 L 9037,8490 9178,8490 9178,8349 9037,8349 Z M 9045,8357 L 9170,8357 9170,8482 9045,8482 9045,8357 Z M 9233,8220 L 9262,8239 9291,8261 9319,8288 9347,8317 9374,8348 9399,8382 9446,8455 9486,8532 9502,8571 9516,8610 9528,8649 9536,8686 9541,8722 9543,8757 9541,8789 9536,8820 9528,8848 9516,8873 9502,8896 9486,8916 9467,8933 9446,8947 9423,8958 9399,8966 9374,8970 9347,8971 9319,8968 9291,8961 9262,8951 9233,8936 9204,8917 9175,8895 9147,8869 9119,8840 9092,8808 9067,8774 9020,8701 8980,8624 8964,8585 8950,8546 8938,8507 8930,8470 8925,8433 8923,8399 8925,8366 8930,8336 8938,8308 8950,8283 8964,8260 8980,8240 8999,8223 9020,8209 9043,8198 9067,8190 9092,8186 9119,8185 9147,8188 9175,8195 9204,8205 9233,8220 Z"/>
     <path fill="rgb(221,221,221)" stroke="none" d="M 9045,8357 L 9045,8482 9170,8482 9170,8357 9045,8357 Z M 9053,8365 L 9162,8365 9162,8474 9053,8474 9053,8365 Z M 9233,8220 L 9262,8239 9291,8261 9319,8288 9347,8317 9374,8348 9399,8382 9446,8455 9486,8532 9502,8571 9516,8610 9528,8649 9536,8686 9541,8722 9543,8757 9541,8789 9536,8820 9528,8848 9516,8873 9502,8896 9486,8916 9467,8933 9446,8947 9423,8958 9399,8966 9374,8970 9347,8971 9319,8968 9291,8961 9262,8951 9233,8936 9204,8917 9175,8895 9147,8869 9119,8840 9092,8808 9067,8774 9020,8701 8980,8624 8964,8585 8950,8546 8938,8507 8930,8470 8925,8433 8923,8399 8925,8366 8930,8336 8938,8308 8950,8283 8964,8260 8980,8240 8999,8223 9020,8209 9043,8198 9067,8190 9092,8186 9119,8185 9147,8188 9175,8195 9204,8205 9233,8220 Z"/>
     <path fill="rgb(222,222,222)" stroke="none" d="M 9053,8365 L 9053,8474 9162,8474 9162,8365 9053,8365 Z M 9061,8373 L 9154,8373 9154,8466 9061,8466 9061,8373 Z M 9233,8220 L 9262,8239 9291,8261 9319,8288 9347,8317 9374,8348 9399,8382 9446,8455 9486,8532 9502,8571 9516,8610 9528,8649 9536,8686 9541,8722 9543,8757 9541,8789 9536,8820 9528,8848 9516,8873 9502,8896 9486,8916 9467,8933 9446,8947 9423,8958 9399,8966 9374,8970 9347,8971 9319,8968 9291,8961 9262,8951 9233,8936 9204,8917 9175,8895 9147,8869 9119,8840 9092,8808 9067,8774 9020,8701 8980,8624 8964,8585 8950,8546 8938,8507 8930,8470 8925,8433 8923,8399 8925,8366 8930,8336 8938,8308 8950,8283 8964,8260 8980,8240 8999,8223 9020,8209 9043,8198 9067,8190 9092,8186 9119,8185 9147,8188 9175,8195 9204,8205 9233,8220 Z"/>
     <path fill="rgb(223,223,223)" stroke="none" d="M 9061,8373 L 9061,8466 9154,8466 9154,8373 9061,8373 Z M 9069,8381 L 9146,8381 9146,8458 9069,8458 9069,8381 Z M 9233,8220 L 9262,8239 9291,8261 9319,8288 9347,8317 9374,8348 9399,8382 9446,8455 9486,8532 9502,8571 9516,8610 9528,8649 9536,8686 9541,8722 9543,8757 9541,8789 9536,8820 9528,8848 9516,8873 9502,8896 9486,8916 9467,8933 9446,8947 9423,8958 9399,8966 9374,8970 9347,8971 9319,8968 9291,8961 9262,8951 9233,8936 9204,8917 9175,8895 9147,8869 9119,8840 9092,8808 9067,8774 9020,8701 8980,8624 8964,8585 8950,8546 8938,8507 8930,8470 8925,8433 8923,8399 8925,8366 8930,8336 8938,8308 8950,8283 8964,8260 8980,8240 8999,8223 9020,8209 9043,8198 9067,8190 9092,8186 9119,8185 9147,8188 9175,8195 9204,8205 9233,8220 Z"/>
     <path fill="rgb(224,224,224)" stroke="none" d="M 9069,8381 L 9069,8458 9146,8458 9146,8381 9069,8381 Z M 9076,8388 L 9139,8388 9139,8451 9076,8451 9076,8388 Z M 9233,8220 L 9262,8239 9291,8261 9319,8288 9347,8317 9374,8348 9399,8382 9446,8455 9486,8532 9502,8571 9516,8610 9528,8649 9536,8686 9541,8722 9543,8757 9541,8789 9536,8820 9528,8848 9516,8873 9502,8896 9486,8916 9467,8933 9446,8947 9423,8958 9399,8966 9374,8970 9347,8971 9319,8968 9291,8961 9262,8951 9233,8936 9204,8917 9175,8895 9147,8869 9119,8840 9092,8808 9067,8774 9020,8701 8980,8624 8964,8585 8950,8546 8938,8507 8930,8470 8925,8433 8923,8399 8925,8366 8930,8336 8938,8308 8950,8283 8964,8260 8980,8240 8999,8223 9020,8209 9043,8198 9067,8190 9092,8186 9119,8185 9147,8188 9175,8195 9204,8205 9233,8220 Z"/>
     <path fill="rgb(225,225,225)" stroke="none" d="M 9076,8388 L 9076,8451 9139,8451 9139,8388 9076,8388 Z M 9084,8396 L 9131,8396 9131,8443 9084,8443 9084,8396 Z M 9233,8220 L 9262,8239 9291,8261 9319,8288 9347,8317 9374,8348 9399,8382 9446,8455 9486,8532 9502,8571 9516,8610 9528,8649 9536,8686 9541,8722 9543,8757 9541,8789 9536,8820 9528,8848 9516,8873 9502,8896 9486,8916 9467,8933 9446,8947 9423,8958 9399,8966 9374,8970 9347,8971 9319,8968 9291,8961 9262,8951 9233,8936 9204,8917 9175,8895 9147,8869 9119,8840 9092,8808 9067,8774 9020,8701 8980,8624 8964,8585 8950,8546 8938,8507 8930,8470 8925,8433 8923,8399 8925,8366 8930,8336 8938,8308 8950,8283 8964,8260 8980,8240 8999,8223 9020,8209 9043,8198 9067,8190 9092,8186 9119,8185 9147,8188 9175,8195 9204,8205 9233,8220 Z"/>
     <path fill="rgb(226,226,226)" stroke="none" d="M 9084,8396 L 9084,8443 9131,8443 9131,8396 9084,8396 Z M 9092,8404 L 9123,8404 9123,8435 9092,8435 9092,8404 Z M 9233,8220 L 9262,8239 9291,8261 9319,8288 9347,8317 9374,8348 9399,8382 9446,8455 9486,8532 9502,8571 9516,8610 9528,8649 9536,8686 9541,8722 9543,8757 9541,8789 9536,8820 9528,8848 9516,8873 9502,8896 9486,8916 9467,8933 9446,8947 9423,8958 9399,8966 9374,8970 9347,8971 9319,8968 9291,8961 9262,8951 9233,8936 9204,8917 9175,8895 9147,8869 9119,8840 9092,8808 9067,8774 9020,8701 8980,8624 8964,8585 8950,8546 8938,8507 8930,8470 8925,8433 8923,8399 8925,8366 8930,8336 8938,8308 8950,8283 8964,8260 8980,8240 8999,8223 9020,8209 9043,8198 9067,8190 9092,8186 9119,8185 9147,8188 9175,8195 9204,8205 9233,8220 Z"/>
     <path fill="rgb(227,227,227)" stroke="none" d="M 9092,8404 L 9092,8435 9123,8435 9123,8404 9092,8404 Z M 9100,8412 L 9115,8412 9115,8427 9100,8427 9100,8412 Z M 9233,8220 L 9262,8239 9291,8261 9319,8288 9347,8317 9374,8348 9399,8382 9446,8455 9486,8532 9502,8571 9516,8610 9528,8649 9536,8686 9541,8722 9543,8757 9541,8789 9536,8820 9528,8848 9516,8873 9502,8896 9486,8916 9467,8933 9446,8947 9423,8958 9399,8966 9374,8970 9347,8971 9319,8968 9291,8961 9262,8951 9233,8936 9204,8917 9175,8895 9147,8869 9119,8840 9092,8808 9067,8774 9020,8701 8980,8624 8964,8585 8950,8546 8938,8507 8930,8470 8925,8433 8923,8399 8925,8366 8930,8336 8938,8308 8950,8283 8964,8260 8980,8240 8999,8223 9020,8209 9043,8198 9067,8190 9092,8186 9119,8185 9147,8188 9175,8195 9204,8205 9233,8220 Z"/>
     <path fill="rgb(229,229,229)" stroke="none" d="M 9100,8412 L 9100,8427 9115,8427 9115,8412 9100,8412 Z M 9233,8220 L 9262,8239 9291,8261 9319,8288 9347,8317 9374,8348 9399,8382 9446,8455 9486,8532 9502,8571 9516,8610 9528,8649 9536,8686 9541,8722 9543,8757 9541,8789 9536,8820 9528,8848 9516,8873 9502,8896 9486,8916 9467,8933 9446,8947 9423,8958 9399,8966 9374,8970 9347,8971 9319,8968 9291,8961 9262,8951 9233,8936 9204,8917 9175,8895 9147,8869 9119,8840 9092,8808 9067,8774 9020,8701 8980,8624 8964,8585 8950,8546 8938,8507 8930,8470 8925,8433 8923,8399 8925,8366 8930,8336 8938,8308 8950,8283 8964,8260 8980,8240 8999,8223 9020,8209 9043,8198 9067,8190 9092,8186 9119,8185 9147,8188 9175,8195 9204,8205 9233,8220 Z"/>
     <path fill="none" stroke="rgb(127,127,127)" id="Drawing_9_0" stroke-width="40" stroke-linejoin="round" d="M 9233,8220 C 9388,8310 9543,8578 9543,8757 9543,8936 9388,9026 9233,8936 9078,8847 8923,8578 8923,8399 8923,8220 9078,8131 9233,8220 Z"/>
    </g>
    <g>
     <defs>
      <linearGradient id="Gradient_804" gradientUnits="userSpaceOnUse" x1="8750" y1="8676" x2="9332" y2="8678">
       <stop offset="0.1" stop-color="rgb(147,212,240)"/>
       <stop offset="1" stop-color="rgb(233,246,252)"/>
      </linearGradient>
     </defs>
     <path fill="url(#Gradient_804)" stroke="none" id="Drawing_10_0" d="M 9021,8319 L 9050,8338 9079,8360 9107,8386 9135,8415 9162,8447 9187,8481 9234,8554 9274,8631 9290,8670 9304,8709 9316,8747 9324,8785 9329,8821 9331,8856 9329,8888 9324,8919 9316,8946 9304,8972 9290,8995 9274,9015 9255,9032 9234,9046 9211,9057 9187,9064 9162,9069 9135,9070 9107,9067 9079,9060 9050,9049 9021,9035 8992,9016 8965,8993 8939,8967 8913,8939 8890,8907 8867,8873 8847,8838 8828,8801 8796,8725 8771,8647 8763,8609 8756,8571 8752,8535 8751,8501 8752,8468 8756,8438 8763,8410 8771,8384 8782,8361 8796,8341 8811,8323 8828,8309 8837,8303 8847,8298 8857,8293 8867,8290 8878,8287 8890,8285 8913,8284 8939,8287 8965,8293 8992,8304 9021,8319 Z"/>
     <path fill="none" stroke="rgb(255,255,255)" id="Drawing_10_1" stroke-width="40" stroke-linejoin="round" d="M 9021,8319 C 9176,8408 9331,8677 9331,8856 9331,9035 9176,9124 9021,9035 8866,8945 8751,8680 8751,8501 8751,8322 8866,8229 9021,8319 Z"/>
    </g>
    <g>
     <path fill="none" stroke="rgb(255,255,255)" id="Drawing_11_0" stroke-width="40" stroke-linejoin="round" d="M 8846,8309 L 9078,8175"/>
    </g>
    <g>
     <defs>
      <linearGradient id="Gradient_805" gradientUnits="userSpaceOnUse" x1="10027" y1="7011" x2="10027" y2="8354">
       <stop offset="0.1" stop-color="rgb(179,179,179)"/>
       <stop offset="1" stop-color="rgb(229,229,229)"/>
      </linearGradient>
     </defs>
     <path fill="url(#Gradient_805)" stroke="rgb(255,255,255)" id="Drawing_12_0" stroke-width="40" stroke-linejoin="round" d="M 9640,8354 L 8866,7906 10415,7011 11189,7459 9640,8354 Z"/>
    </g>
    <g>
     <path fill="none" stroke="rgb(0,0,0)" id="Drawing_13_0" stroke-width="40" stroke-linejoin="round" d="M 8867,7906 L 10416,7011 11190,7459 11190,8354 10571,8712 11190,9025 11190,9921 10648,9607 10338,9786 10183,9697 10183,8936 9641,9249 C 9641,9249 9383,9100 9254,9025 8944,9204 8557,8443 8867,8309 L 8867,7906 Z"/>
    </g>
   </g>
  </g>
 </g>
</svg>