<?xml version="1.0" encoding="UTF-8"?>

<svg version="1.2" baseProfile="tiny" width="87.5mm" height="93.72mm" viewBox="4155 14381 8750 9372" preserveAspectRatio="xMidYMid" fill-rule="evenodd" stroke-width="28.222" stroke-linejoin="round" xmlns="http://www.w3.org/2000/svg" xmlns:xlink="http://www.w3.org/1999/xlink" xml:space="preserve">
 <g visibility="visible" id="Slide_1">
  <g id="DrawingGroup_1">
   <g>
    <path fill="rgb(221,221,221)" stroke="none" d="M 11324,23733 C 11716,23733 12747,23568 12889,23155 13032,22742 12139,22742 11747,22742 11747,22990 11175,22907 11324,23733 Z"/>
    <path fill="none" stroke="rgb(221,221,221)" id="Drawing_1_0" stroke-linejoin="round" d="M 11324,23733 C 11716,23733 12747,23568 12889,23155 13032,22742 12139,22742 11747,22742 11747,22990 11175,22907 11324,23733 Z"/>
   </g>
   <g id="DrawingGroup_2">
    <g>
     <defs>
      <linearGradient id="Gradient_771" gradientUnits="userSpaceOnUse" x1="4166" y1="19185" x2="11325" y2="19197">
       <stop offset="0.1" stop-color="rgb(179,179,179)"/>
       <stop offset="1" stop-color="rgb(229,229,229)"/>
      </linearGradient>
     </defs>
     <path fill="url(#Gradient_771)" stroke="rgb(255,255,255)" id="Drawing_2_0" stroke-width="40" stroke-linejoin="round" d="M 4175,19604 L 4175,14649 11318,18778 11318,23733 4175,19604 Z"/>
    </g>
    <g>
     <defs>
      <linearGradient id="Gradient_772" gradientUnits="userSpaceOnUse" x1="4454" y1="19019" x2="11040" y2="19031">
       <stop offset="0.1" stop-color="rgb(147,212,240)"/>
       <stop offset="1" stop-color="rgb(233,246,252)"/>
      </linearGradient>
     </defs>
     <path fill="url(#Gradient_772)" stroke="rgb(127,127,127)" id="Drawing_3_0" stroke-width="40" stroke-linejoin="round" d="M 4461,19108 L 4461,15144 11033,19025 11033,22907 4461,19108 Z"/>
    </g>
    <g>
     <defs>
      <linearGradient id="Gradient_773" gradientUnits="userSpaceOnUse" x1="7961" y1="14401" x2="7961" y2="18778">
       <stop offset="0.1" stop-color="rgb(179,179,179)"/>
       <stop offset="1" stop-color="rgb(229,229,229)"/>
      </linearGradient>
     </defs>
     <path fill="url(#Gradient_773)" stroke="rgb(255,255,255)" id="Drawing_4_0" stroke-width="40" stroke-linejoin="round" d="M 11318,18778 L 4175,14649 4604,14401 11747,18530 11318,18778 Z"/>
    </g>
    <g>
     <path fill="rgb(179,179,179)" stroke="none" d="M 11318,22639 L 11318,18778 11747,18530 11747,22639 11318,22639 Z"/>
     <path fill="rgb(180,180,180)" stroke="none" d="M 11747,22639 L 11747,23485 11318,23733 11318,22639 11747,22639 Z M 11318,22587 L 11318,18778 11747,18530 11747,22587 11318,22587 Z"/>
     <path fill="rgb(181,181,181)" stroke="none" d="M 11747,22587 L 11747,23485 11318,23733 11318,22587 11747,22587 Z M 11318,22535 L 11318,18778 11747,18530 11747,22535 11318,22535 Z"/>
     <path fill="rgb(182,182,182)" stroke="none" d="M 11747,22535 L 11747,23485 11318,23733 11318,22535 11747,22535 Z M 11318,22483 L 11318,18778 11747,18530 11747,22483 11318,22483 Z"/>
     <path fill="rgb(183,183,183)" stroke="none" d="M 11747,22483 L 11747,23485 11318,23733 11318,22483 11747,22483 Z M 11318,22431 L 11318,18778 11747,18530 11747,22431 11318,22431 Z"/>
     <path fill="rgb(184,184,184)" stroke="none" d="M 11747,22431 L 11747,23485 11318,23733 11318,22431 11747,22431 Z M 11318,22379 L 11318,18778 11747,18530 11747,22379 11318,22379 Z"/>
     <path fill="rgb(185,185,185)" stroke="none" d="M 11747,22379 L 11747,23485 11318,23733 11318,22379 11747,22379 Z M 11318,22327 L 11318,18778 11747,18530 11747,22327 11318,22327 Z"/>
     <path fill="rgb(186,186,186)" stroke="none" d="M 11747,22327 L 11747,23485 11318,23733 11318,22327 11747,22327 Z M 11318,22275 L 11318,18778 11747,18530 11747,22275 11318,22275 Z"/>
     <path fill="rgb(187,187,187)" stroke="none" d="M 11747,22275 L 11747,23485 11318,23733 11318,22275 11747,22275 Z M 11318,22223 L 11318,18778 11747,18530 11747,22223 11318,22223 Z"/>
     <path fill="rgb(188,188,188)" stroke="none" d="M 11747,22223 L 11747,23485 11318,23733 11318,22223 11747,22223 Z M 11318,22171 L 11318,18778 11747,18530 11747,22171 11318,22171 Z"/>
     <path fill="rgb(189,189,189)" stroke="none" d="M 11747,22171 L 11747,23485 11318,23733 11318,22171 11747,22171 Z M 11318,22119 L 11318,18778 11747,18530 11747,22119 11318,22119 Z"/>
     <path fill="rgb(190,190,190)" stroke="none" d="M 11747,22119 L 11747,23485 11318,23733 11318,22119 11747,22119 Z M 11318,22067 L 11318,18778 11747,18530 11747,22067 11318,22067 Z"/>
     <path fill="rgb(191,191,191)" stroke="none" d="M 11747,22067 L 11747,23485 11318,23733 11318,22067 11747,22067 Z M 11318,22015 L 11318,18778 11747,18530 11747,22015 11318,22015 Z"/>
     <path fill="rgb(192,192,192)" stroke="none" d="M 11747,22015 L 11747,23485 11318,23733 11318,22015 11747,22015 Z M 11318,21963 L 11318,18778 11747,18530 11747,21963 11318,21963 Z"/>
     <path fill="rgb(193,193,193)" stroke="none" d="M 11747,21963 L 11747,23485 11318,23733 11318,21963 11747,21963 Z M 11318,21911 L 11318,18778 11747,18530 11747,21911 11318,21911 Z"/>
     <path fill="rgb(194,194,194)" stroke="none" d="M 11747,21911 L 11747,23485 11318,23733 11318,21911 11747,21911 Z M 11318,21859 L 11318,18778 11747,18530 11747,21859 11318,21859 Z"/>
     <path fill="rgb(195,195,195)" stroke="none" d="M 11747,21859 L 11747,23485 11318,23733 11318,21859 11747,21859 Z M 11318,21806 L 11318,18778 11747,18530 11747,21806 11318,21806 Z"/>
     <path fill="rgb(196,196,196)" stroke="none" d="M 11747,21806 L 11747,23485 11318,23733 11318,21806 11747,21806 Z M 11318,21754 L 11318,18778 11747,18530 11747,21754 11318,21754 Z"/>
     <path fill="rgb(197,197,197)" stroke="none" d="M 11747,21754 L 11747,23485 11318,23733 11318,21754 11747,21754 Z M 11318,21702 L 11318,18778 11747,18530 11747,21702 11318,21702 Z"/>
     <path fill="rgb(198,198,198)" stroke="none" d="M 11747,21702 L 11747,23485 11318,23733 11318,21702 11747,21702 Z M 11318,21650 L 11318,18778 11747,18530 11747,21650 11318,21650 Z"/>
     <path fill="rgb(199,199,199)" stroke="none" d="M 11747,21650 L 11747,23485 11318,23733 11318,21650 11747,21650 Z M 11747,18580 L 11747,21598 11318,21598 11318,18778 11661,18580 11747,18580 Z"/>
     <path fill="rgb(200,200,200)" stroke="none" d="M 11747,21598 L 11747,23485 11318,23733 11318,21598 11747,21598 Z M 11661,18580 L 11747,18530 11747,18580 11661,18580 Z M 11747,18632 L 11747,21546 11318,21546 11318,18778 11571,18632 11747,18632 Z"/>
     <path fill="rgb(201,201,201)" stroke="none" d="M 11747,21546 L 11747,23485 11318,23733 11318,21546 11747,21546 Z M 11571,18632 L 11747,18530 11747,18632 11571,18632 Z M 11747,18684 L 11747,21494 11318,21494 11318,18778 11481,18684 11747,18684 Z"/>
     <path fill="rgb(202,202,202)" stroke="none" d="M 11747,21494 L 11747,23485 11318,23733 11318,21494 11747,21494 Z M 11481,18684 L 11747,18530 11747,18684 11481,18684 Z M 11747,18736 L 11747,21442 11318,21442 11318,18778 11391,18736 11747,18736 Z"/>
     <path fill="rgb(203,203,203)" stroke="none" d="M 11747,21442 L 11747,23485 11318,23733 11318,21442 11747,21442 Z M 11391,18736 L 11747,18530 11747,18736 11391,18736 Z M 11747,18788 L 11747,21390 11318,21390 11318,18788 11747,18788 Z"/>
     <path fill="rgb(204,204,204)" stroke="none" d="M 11747,21390 L 11747,23485 11318,23733 11318,21390 11747,21390 Z M 11318,18788 L 11318,18778 11747,18530 11747,18788 11318,18788 Z M 11747,18840 L 11747,21338 11318,21338 11318,18840 11747,18840 Z"/>
     <path fill="rgb(205,205,205)" stroke="none" d="M 11747,21338 L 11747,23485 11318,23733 11318,21338 11747,21338 Z M 11318,18840 L 11318,18778 11747,18530 11747,18840 11318,18840 Z M 11747,18892 L 11747,21286 11318,21286 11318,18892 11747,18892 Z"/>
     <path fill="rgb(206,206,206)" stroke="none" d="M 11747,21286 L 11747,23485 11318,23733 11318,21286 11747,21286 Z M 11318,18892 L 11318,18778 11747,18530 11747,18892 11318,18892 Z M 11747,18944 L 11747,21234 11318,21234 11318,18944 11747,18944 Z"/>
     <path fill="rgb(207,207,207)" stroke="none" d="M 11747,21234 L 11747,23485 11318,23733 11318,21234 11747,21234 Z M 11318,18944 L 11318,18778 11747,18530 11747,18944 11318,18944 Z M 11747,18996 L 11747,21182 11318,21182 11318,18996 11747,18996 Z"/>
     <path fill="rgb(208,208,208)" stroke="none" d="M 11747,21182 L 11747,23485 11318,23733 11318,21182 11747,21182 Z M 11318,18996 L 11318,18778 11747,18530 11747,18996 11318,18996 Z M 11747,19048 L 11747,21130 11318,21130 11318,19048 11747,19048 Z"/>
     <path fill="rgb(209,209,209)" stroke="none" d="M 11747,21130 L 11747,23485 11318,23733 11318,21130 11747,21130 Z M 11318,19048 L 11318,18778 11747,18530 11747,19048 11318,19048 Z M 11747,19100 L 11747,21078 11318,21078 11318,19100 11747,19100 Z"/>
     <path fill="rgb(210,210,210)" stroke="none" d="M 11747,21078 L 11747,23485 11318,23733 11318,21078 11747,21078 Z M 11318,19100 L 11318,18778 11747,18530 11747,19100 11318,19100 Z M 11747,19152 L 11747,21026 11318,21026 11318,19152 11747,19152 Z"/>
     <path fill="rgb(211,211,211)" stroke="none" d="M 11747,21026 L 11747,23485 11318,23733 11318,21026 11747,21026 Z M 11318,19152 L 11318,18778 11747,18530 11747,19152 11318,19152 Z M 11747,19204 L 11747,20974 11318,20974 11318,19204 11747,19204 Z"/>
     <path fill="rgb(212,212,212)" stroke="none" d="M 11747,20974 L 11747,23485 11318,23733 11318,20974 11747,20974 Z M 11318,19204 L 11318,18778 11747,18530 11747,19204 11318,19204 Z M 11747,19257 L 11747,20921 11318,20921 11318,19257 11747,19257 Z"/>
     <path fill="rgb(213,213,213)" stroke="none" d="M 11747,20921 L 11747,23485 11318,23733 11318,20921 11747,20921 Z M 11318,19257 L 11318,18778 11747,18530 11747,19257 11318,19257 Z M 11747,19309 L 11747,20869 11318,20869 11318,19309 11747,19309 Z"/>
     <path fill="rgb(214,214,214)" stroke="none" d="M 11747,20869 L 11747,23485 11318,23733 11318,20869 11747,20869 Z M 11318,19309 L 11318,18778 11747,18530 11747,19309 11318,19309 Z M 11747,19361 L 11747,20817 11318,20817 11318,19361 11747,19361 Z"/>
     <path fill="rgb(215,215,215)" stroke="none" d="M 11747,20817 L 11747,23485 11318,23733 11318,20817 11747,20817 Z M 11318,19361 L 11318,18778 11747,18530 11747,19361 11318,19361 Z M 11747,19413 L 11747,20765 11318,20765 11318,19413 11747,19413 Z"/>
     <path fill="rgb(216,216,216)" stroke="none" d="M 11747,20765 L 11747,23485 11318,23733 11318,20765 11747,20765 Z M 11318,19413 L 11318,18778 11747,18530 11747,19413 11318,19413 Z M 11747,19465 L 11747,20713 11318,20713 11318,19465 11747,19465 Z"/>
     <path fill="rgb(217,217,217)" stroke="none" d="M 11747,20713 L 11747,23485 11318,23733 11318,20713 11747,20713 Z M 11318,19465 L 11318,18778 11747,18530 11747,19465 11318,19465 Z M 11747,19517 L 11747,20661 11318,20661 11318,19517 11747,19517 Z"/>
     <path fill="rgb(218,218,218)" stroke="none" d="M 11747,20661 L 11747,23485 11318,23733 11318,20661 11747,20661 Z M 11318,19517 L 11318,18778 11747,18530 11747,19517 11318,19517 Z M 11747,19569 L 11747,20609 11318,20609 11318,19569 11747,19569 Z"/>
     <path fill="rgb(219,219,219)" stroke="none" d="M 11747,20609 L 11747,23485 11318,23733 11318,20609 11747,20609 Z M 11318,19569 L 11318,18778 11747,18530 11747,19569 11318,19569 Z M 11747,19621 L 11747,20557 11318,20557 11318,19621 11747,19621 Z"/>
     <path fill="rgb(220,220,220)" stroke="none" d="M 11747,20557 L 11747,23485 11318,23733 11318,20557 11747,20557 Z M 11318,19621 L 11318,18778 11747,18530 11747,19621 11318,19621 Z M 11747,19673 L 11747,20505 11318,20505 11318,19673 11747,19673 Z"/>
     <path fill="rgb(221,221,221)" stroke="none" d="M 11747,20505 L 11747,23485 11318,23733 11318,20505 11747,20505 Z M 11318,19673 L 11318,18778 11747,18530 11747,19673 11318,19673 Z M 11747,19725 L 11747,20453 11318,20453 11318,19725 11747,19725 Z"/>
     <path fill="rgb(222,222,222)" stroke="none" d="M 11747,20453 L 11747,23485 11318,23733 11318,20453 11747,20453 Z M 11318,19725 L 11318,18778 11747,18530 11747,19725 11318,19725 Z M 11747,19777 L 11747,20401 11318,20401 11318,19777 11747,19777 Z"/>
     <path fill="rgb(223,223,223)" stroke="none" d="M 11747,20401 L 11747,23485 11318,23733 11318,20401 11747,20401 Z M 11318,19777 L 11318,18778 11747,18530 11747,19777 11318,19777 Z M 11705,19829 L 11705,20349 11318,20349 11318,19829 11705,19829 Z"/>
     <path fill="rgb(224,224,224)" stroke="none" d="M 11705,20349 L 11705,19829 11318,19829 11318,18778 11747,18530 11747,23485 11318,23733 11318,20349 11705,20349 Z M 11653,19881 L 11653,20297 11318,20297 11318,19881 11653,19881 Z"/>
     <path fill="rgb(225,225,225)" stroke="none" d="M 11653,20297 L 11653,19881 11318,19881 11318,18778 11747,18530 11747,23485 11318,23733 11318,20297 11653,20297 Z M 11601,19933 L 11601,20245 11318,20245 11318,19933 11601,19933 Z"/>
     <path fill="rgb(226,226,226)" stroke="none" d="M 11601,20245 L 11601,19933 11318,19933 11318,18778 11747,18530 11747,23485 11318,23733 11318,20245 11601,20245 Z M 11341,19985 L 11549,19985 11549,20193 11341,20193 11341,19985 Z"/>
     <path fill="rgb(227,227,227)" stroke="none" d="M 11341,19985 L 11341,20193 11549,20193 11549,19985 11341,19985 Z M 11393,20037 L 11497,20037 11497,20141 11393,20141 11393,20037 Z M 11318,23733 L 11318,18778 11747,18530 11747,23485 11318,23733 Z"/>
     <path fill="rgb(229,229,229)" stroke="none" d="M 11393,20037 L 11393,20141 11497,20141 11497,20037 11393,20037 Z M 11318,23733 L 11318,18778 11747,18530 11747,23485 11318,23733 Z"/>
     <path fill="none" stroke="rgb(255,255,255)" id="Drawing_5_0" stroke-width="40" stroke-linejoin="round" d="M 11318,23733 L 11318,18778 11747,18530 11747,23485 11318,23733 Z"/>
    </g>
    <g>
     <path fill="none" stroke="rgb(0,0,0)" id="Drawing_6_0" stroke-width="40" stroke-linejoin="round" d="M 4604,14401 L 11747,18530 11747,23485 11318,23733 4175,19604 4175,14649 4604,14401 Z"/>
    </g>
    <g>
     <path fill="rgb(116,203,128)" stroke="none" d="M 7604,21338 L 7604,21173 7890,21338 7890,21503 7604,21338 Z"/>
     <path fill="none" stroke="rgb(127,127,127)" id="Drawing_7_0" stroke-width="40" stroke-linejoin="round" d="M 7604,21338 L 7604,21173 7890,21338 7890,21503 7604,21338 Z"/>
    </g>
   </g>
  </g>
 </g>
</svg>