<?xml version="1.0" encoding="UTF-8"?>

<svg version="1.2" baseProfile="tiny" width="87.59mm" height="93.8mm" viewBox="7965 3070 8759 9380" preserveAspectRatio="xMidYMid" fill-rule="evenodd" stroke-width="28.222" stroke-linejoin="round" xmlns="http://www.w3.org/2000/svg" xmlns:xlink="http://www.w3.org/1999/xlink" xml:space="preserve">
 <g visibility="visible" id="Slide_1">
  <g id="DrawingGroup_1">
   <g>
    <path fill="rgb(221,221,221)" stroke="none" d="M 15141,12430 C 15533,12430 16565,12265 16708,11851 16851,11438 15957,11438 15564,11438 15564,11686 14992,11603 15141,12430 Z"/>
    <path fill="none" stroke="rgb(221,221,221)" id="Drawing_1_0" stroke-linejoin="round" d="M 15141,12430 C 15533,12430 16565,12265 16708,11851 16851,11438 15957,11438 15564,11438 15564,11686 14992,11603 15141,12430 Z"/>
   </g>
   <g id="DrawingGroup_2">
    <g>
     <defs>
      <linearGradient id="Gradient_774" gradientUnits="userSpaceOnUse" x1="7977" y1="7878" x2="15143" y2="7890">
       <stop offset="0.1" stop-color="rgb(51,51,51)"/>
       <stop offset="1" stop-color="rgb(153,153,153)"/>
      </linearGradient>
     </defs>
     <path fill="url(#Gradient_774)" stroke="rgb(178,178,178)" id="Drawing_2_0" stroke-width="40" stroke-linejoin="round" d="M 7985,8297 L 7985,3338 15135,7471 15135,12430 7985,8297 Z"/>
    </g>
    <g>
     <defs>
      <linearGradient id="Gradient_775" gradientUnits="userSpaceOnUse" x1="8264" y1="7713" x2="14856" y2="7725">
       <stop offset="0.1" stop-color="rgb(147,212,240)"/>
       <stop offset="1" stop-color="rgb(233,246,252)"/>
      </linearGradient>
     </defs>
     <path fill="url(#Gradient_775)" stroke="rgb(102,102,102)" id="Drawing_3_0" stroke-width="40" stroke-linejoin="round" d="M 8271,7801 L 8271,3834 14849,7719 14849,11604 8271,7801 Z"/>
    </g>
    <g>
     <defs>
      <linearGradient id="Gradient_776" gradientUnits="userSpaceOnUse" x1="11774" y1="3090" x2="11774" y2="7471">
       <stop offset="0.1" stop-color="rgb(51,51,51)"/>
       <stop offset="1" stop-color="rgb(153,153,153)"/>
      </linearGradient>
     </defs>
     <path fill="url(#Gradient_776)" stroke="rgb(178,178,178)" id="Drawing_4_0" stroke-width="40" stroke-linejoin="round" d="M 15135,7471 L 7985,3338 8414,3090 15564,7223 15135,7471 Z"/>
    </g>
    <g>
     <path fill="rgb(51,51,51)" stroke="none" d="M 15135,11363 L 15135,7471 15564,7223 15564,11363 15135,11363 Z"/>
     <path fill="rgb(52,52,52)" stroke="none" d="M 15564,11363 L 15564,12182 15135,12430 15135,11363 15564,11363 Z M 15135,11337 L 15135,7471 15564,7223 15564,11337 15135,11337 Z"/>
     <path fill="rgb(53,53,53)" stroke="none" d="M 15564,11337 L 15564,12182 15135,12430 15135,11337 15564,11337 Z M 15135,11312 L 15135,7471 15564,7223 15564,11312 15135,11312 Z"/>
     <path fill="rgb(54,54,54)" stroke="none" d="M 15564,11312 L 15564,12182 15135,12430 15135,11312 15564,11312 Z M 15135,11286 L 15135,7471 15564,7223 15564,11286 15135,11286 Z"/>
     <path fill="rgb(55,55,55)" stroke="none" d="M 15564,11286 L 15564,12182 15135,12430 15135,11286 15564,11286 Z M 15135,11261 L 15135,7471 15564,7223 15564,11261 15135,11261 Z"/>
     <path fill="rgb(56,56,56)" stroke="none" d="M 15564,11261 L 15564,12182 15135,12430 15135,11261 15564,11261 Z M 15135,11235 L 15135,7471 15564,7223 15564,11235 15135,11235 Z"/>
     <path fill="rgb(57,57,57)" stroke="none" d="M 15564,11235 L 15564,12182 15135,12430 15135,11235 15564,11235 Z M 15135,11210 L 15135,7471 15564,7223 15564,11210 15135,11210 Z"/>
     <path fill="rgb(58,58,58)" stroke="none" d="M 15564,11210 L 15564,12182 15135,12430 15135,11210 15564,11210 Z M 15135,11184 L 15135,7471 15564,7223 15564,11184 15135,11184 Z"/>
     <path fill="rgb(59,59,59)" stroke="none" d="M 15564,11184 L 15564,12182 15135,12430 15135,11184 15564,11184 Z M 15135,11159 L 15135,7471 15564,7223 15564,11159 15135,11159 Z"/>
     <path fill="rgb(60,60,60)" stroke="none" d="M 15564,11159 L 15564,12182 15135,12430 15135,11159 15564,11159 Z M 15135,11133 L 15135,7471 15564,7223 15564,11133 15135,11133 Z"/>
     <path fill="rgb(61,61,61)" stroke="none" d="M 15564,11133 L 15564,12182 15135,12430 15135,11133 15564,11133 Z M 15135,11108 L 15135,7471 15564,7223 15564,11108 15135,11108 Z"/>
     <path fill="rgb(62,62,62)" stroke="none" d="M 15564,11108 L 15564,12182 15135,12430 15135,11108 15564,11108 Z M 15135,11082 L 15135,7471 15564,7223 15564,11082 15135,11082 Z"/>
     <path fill="rgb(63,63,63)" stroke="none" d="M 15564,11082 L 15564,12182 15135,12430 15135,11082 15564,11082 Z M 15135,11056 L 15135,7471 15564,7223 15564,11056 15135,11056 Z"/>
     <path fill="rgb(64,64,64)" stroke="none" d="M 15564,11056 L 15564,12182 15135,12430 15135,11056 15564,11056 Z M 15135,11031 L 15135,7471 15564,7223 15564,11031 15135,11031 Z"/>
     <path fill="rgb(65,65,65)" stroke="none" d="M 15564,11031 L 15564,12182 15135,12430 15135,11031 15564,11031 Z M 15135,11005 L 15135,7471 15564,7223 15564,11005 15135,11005 Z"/>
     <path fill="rgb(66,66,66)" stroke="none" d="M 15564,11005 L 15564,12182 15135,12430 15135,11005 15564,11005 Z M 15135,10980 L 15135,7471 15564,7223 15564,10980 15135,10980 Z"/>
     <path fill="rgb(67,67,67)" stroke="none" d="M 15564,10980 L 15564,12182 15135,12430 15135,10980 15564,10980 Z M 15135,10954 L 15135,7471 15564,7223 15564,10954 15135,10954 Z"/>
     <path fill="rgb(68,68,68)" stroke="none" d="M 15564,10954 L 15564,12182 15135,12430 15135,10954 15564,10954 Z M 15135,10929 L 15135,7471 15564,7223 15564,10929 15135,10929 Z"/>
     <path fill="rgb(69,69,69)" stroke="none" d="M 15564,10929 L 15564,12182 15135,12430 15135,10929 15564,10929 Z M 15135,10903 L 15135,7471 15564,7223 15564,10903 15135,10903 Z"/>
     <path fill="rgb(70,70,70)" stroke="none" d="M 15564,10903 L 15564,12182 15135,12430 15135,10903 15564,10903 Z M 15135,10878 L 15135,7471 15564,7223 15564,10878 15135,10878 Z"/>
     <path fill="rgb(71,71,71)" stroke="none" d="M 15564,10878 L 15564,12182 15135,12430 15135,10878 15564,10878 Z M 15135,10852 L 15135,7471 15564,7223 15564,10852 15135,10852 Z"/>
     <path fill="rgb(72,72,72)" stroke="none" d="M 15564,10852 L 15564,12182 15135,12430 15135,10852 15564,10852 Z M 15135,10827 L 15135,7471 15564,7223 15564,10827 15135,10827 Z"/>
     <path fill="rgb(73,73,73)" stroke="none" d="M 15564,10827 L 15564,12182 15135,12430 15135,10827 15564,10827 Z M 15135,10801 L 15135,7471 15564,7223 15564,10801 15135,10801 Z"/>
     <path fill="rgb(74,74,74)" stroke="none" d="M 15564,10801 L 15564,12182 15135,12430 15135,10801 15564,10801 Z M 15135,10776 L 15135,7471 15564,7223 15564,10776 15135,10776 Z"/>
     <path fill="rgb(75,75,75)" stroke="none" d="M 15564,10776 L 15564,12182 15135,12430 15135,10776 15564,10776 Z M 15135,10750 L 15135,7471 15564,7223 15564,10750 15135,10750 Z"/>
     <path fill="rgb(76,76,76)" stroke="none" d="M 15564,10750 L 15564,12182 15135,12430 15135,10750 15564,10750 Z M 15135,10724 L 15135,7471 15564,7223 15564,10724 15135,10724 Z"/>
     <path fill="rgb(77,77,77)" stroke="none" d="M 15564,10724 L 15564,12182 15135,12430 15135,10724 15564,10724 Z M 15135,10699 L 15135,7471 15564,7223 15564,10699 15135,10699 Z"/>
     <path fill="rgb(78,78,78)" stroke="none" d="M 15564,10699 L 15564,12182 15135,12430 15135,10699 15564,10699 Z M 15135,10673 L 15135,7471 15564,7223 15564,10673 15135,10673 Z"/>
     <path fill="rgb(79,79,79)" stroke="none" d="M 15564,10673 L 15564,12182 15135,12430 15135,10673 15564,10673 Z M 15135,10648 L 15135,7471 15564,7223 15564,10648 15135,10648 Z"/>
     <path fill="rgb(80,80,80)" stroke="none" d="M 15564,10648 L 15564,12182 15135,12430 15135,10648 15564,10648 Z M 15135,10622 L 15135,7471 15564,7223 15564,10622 15135,10622 Z"/>
     <path fill="rgb(81,81,81)" stroke="none" d="M 15564,10622 L 15564,12182 15135,12430 15135,10622 15564,10622 Z M 15135,10597 L 15135,7471 15564,7223 15564,10597 15135,10597 Z"/>
     <path fill="rgb(82,82,82)" stroke="none" d="M 15564,10597 L 15564,12182 15135,12430 15135,10597 15564,10597 Z M 15135,10571 L 15135,7471 15564,7223 15564,10571 15135,10571 Z"/>
     <path fill="rgb(83,83,83)" stroke="none" d="M 15564,10571 L 15564,12182 15135,12430 15135,10571 15564,10571 Z M 15135,10546 L 15135,7471 15564,7223 15564,10546 15135,10546 Z"/>
     <path fill="rgb(84,84,84)" stroke="none" d="M 15564,10546 L 15564,12182 15135,12430 15135,10546 15564,10546 Z M 15135,10520 L 15135,7471 15564,7223 15564,10520 15135,10520 Z"/>
     <path fill="rgb(85,85,85)" stroke="none" d="M 15564,10520 L 15564,12182 15135,12430 15135,10520 15564,10520 Z M 15135,10495 L 15135,7471 15564,7223 15564,10495 15135,10495 Z"/>
     <path fill="rgb(86,86,86)" stroke="none" d="M 15564,10495 L 15564,12182 15135,12430 15135,10495 15564,10495 Z M 15135,10469 L 15135,7471 15564,7223 15564,10469 15135,10469 Z"/>
     <path fill="rgb(87,87,87)" stroke="none" d="M 15564,10469 L 15564,12182 15135,12430 15135,10469 15564,10469 Z M 15135,10444 L 15135,7471 15564,7223 15564,10444 15135,10444 Z"/>
     <path fill="rgb(88,88,88)" stroke="none" d="M 15564,10444 L 15564,12182 15135,12430 15135,10444 15564,10444 Z M 15135,10418 L 15135,7471 15564,7223 15564,10418 15135,10418 Z"/>
     <path fill="rgb(89,89,89)" stroke="none" d="M 15564,10418 L 15564,12182 15135,12430 15135,10418 15564,10418 Z M 15135,10392 L 15135,7471 15564,7223 15564,10392 15135,10392 Z"/>
     <path fill="rgb(90,90,90)" stroke="none" d="M 15564,10392 L 15564,12182 15135,12430 15135,10392 15564,10392 Z M 15135,10367 L 15135,7471 15564,7223 15564,10367 15135,10367 Z"/>
     <path fill="rgb(91,91,91)" stroke="none" d="M 15564,10367 L 15564,12182 15135,12430 15135,10367 15564,10367 Z M 15564,7227 L 15564,10341 15135,10341 15135,7471 15557,7227 15564,7227 Z"/>
     <path fill="rgb(92,92,92)" stroke="none" d="M 15564,10341 L 15564,12182 15135,12430 15135,10341 15564,10341 Z M 15557,7227 L 15564,7223 15564,7227 15557,7227 Z M 15564,7252 L 15564,10316 15135,10316 15135,7471 15514,7252 15564,7252 Z"/>
     <path fill="rgb(93,93,93)" stroke="none" d="M 15564,10316 L 15564,12182 15135,12430 15135,10316 15564,10316 Z M 15514,7252 L 15564,7223 15564,7252 15514,7252 Z M 15564,7278 L 15564,10290 15135,10290 15135,7471 15469,7278 15564,7278 Z"/>
     <path fill="rgb(94,94,94)" stroke="none" d="M 15564,10290 L 15564,12182 15135,12430 15135,10290 15564,10290 Z M 15469,7278 L 15564,7223 15564,7278 15469,7278 Z M 15564,7303 L 15564,10265 15135,10265 15135,7471 15426,7303 15564,7303 Z"/>
     <path fill="rgb(95,95,95)" stroke="none" d="M 15564,10265 L 15564,12182 15135,12430 15135,10265 15564,10265 Z M 15426,7303 L 15564,7223 15564,7303 15426,7303 Z M 15564,7329 L 15564,10239 15135,10239 15135,7471 15381,7329 15564,7329 Z"/>
     <path fill="rgb(96,96,96)" stroke="none" d="M 15564,10239 L 15564,12182 15135,12430 15135,10239 15564,10239 Z M 15381,7329 L 15564,7223 15564,7329 15381,7329 Z M 15564,7354 L 15564,10214 15135,10214 15135,7471 15337,7354 15564,7354 Z"/>
     <path fill="rgb(97,97,97)" stroke="none" d="M 15564,10214 L 15564,12182 15135,12430 15135,10214 15564,10214 Z M 15337,7354 L 15564,7223 15564,7354 15337,7354 Z M 15564,7380 L 15564,10188 15135,10188 15135,7471 15292,7380 15564,7380 Z"/>
     <path fill="rgb(98,98,98)" stroke="none" d="M 15564,10188 L 15564,12182 15135,12430 15135,10188 15564,10188 Z M 15292,7380 L 15564,7223 15564,7380 15292,7380 Z M 15564,7405 L 15564,10163 15135,10163 15135,7471 15249,7405 15564,7405 Z"/>
     <path fill="rgb(99,99,99)" stroke="none" d="M 15564,10163 L 15564,12182 15135,12430 15135,10163 15564,10163 Z M 15249,7405 L 15564,7223 15564,7405 15249,7405 Z M 15564,7431 L 15564,10137 15135,10137 15135,7471 15204,7431 15564,7431 Z"/>
     <path fill="rgb(100,100,100)" stroke="none" d="M 15564,10137 L 15564,12182 15135,12430 15135,10137 15564,10137 Z M 15204,7431 L 15564,7223 15564,7431 15204,7431 Z M 15564,7456 L 15564,10112 15135,10112 15135,7471 15161,7456 15564,7456 Z"/>
     <path fill="rgb(101,101,101)" stroke="none" d="M 15564,10112 L 15564,12182 15135,12430 15135,10112 15564,10112 Z M 15161,7456 L 15564,7223 15564,7456 15161,7456 Z M 15564,7482 L 15564,10086 15135,10086 15135,7482 15564,7482 Z"/>
     <path fill="rgb(102,102,102)" stroke="none" d="M 15564,10086 L 15564,12182 15135,12430 15135,10086 15564,10086 Z M 15135,7482 L 15135,7471 15564,7223 15564,7482 15135,7482 Z M 15564,7508 L 15564,10060 15135,10060 15135,7508 15564,7508 Z"/>
     <path fill="rgb(103,103,103)" stroke="none" d="M 15564,10060 L 15564,12182 15135,12430 15135,10060 15564,10060 Z M 15135,7508 L 15135,7471 15564,7223 15564,7508 15135,7508 Z M 15564,7533 L 15564,10035 15135,10035 15135,7533 15564,7533 Z"/>
     <path fill="rgb(104,104,104)" stroke="none" d="M 15564,10035 L 15564,12182 15135,12430 15135,10035 15564,10035 Z M 15135,7533 L 15135,7471 15564,7223 15564,7533 15135,7533 Z M 15564,7559 L 15564,10009 15135,10009 15135,7559 15564,7559 Z"/>
     <path fill="rgb(105,105,105)" stroke="none" d="M 15564,10009 L 15564,12182 15135,12430 15135,10009 15564,10009 Z M 15135,7559 L 15135,7471 15564,7223 15564,7559 15135,7559 Z M 15564,7584 L 15564,9984 15135,9984 15135,7584 15564,7584 Z"/>
     <path fill="rgb(106,106,106)" stroke="none" d="M 15564,9984 L 15564,12182 15135,12430 15135,9984 15564,9984 Z M 15135,7584 L 15135,7471 15564,7223 15564,7584 15135,7584 Z M 15564,7610 L 15564,9958 15135,9958 15135,7610 15564,7610 Z"/>
     <path fill="rgb(107,107,107)" stroke="none" d="M 15564,9958 L 15564,12182 15135,12430 15135,9958 15564,9958 Z M 15135,7610 L 15135,7471 15564,7223 15564,7610 15135,7610 Z M 15564,7635 L 15564,9933 15135,9933 15135,7635 15564,7635 Z"/>
     <path fill="rgb(108,108,108)" stroke="none" d="M 15564,9933 L 15564,12182 15135,12430 15135,9933 15564,9933 Z M 15135,7635 L 15135,7471 15564,7223 15564,7635 15135,7635 Z M 15564,7661 L 15564,9907 15135,9907 15135,7661 15564,7661 Z"/>
     <path fill="rgb(109,109,109)" stroke="none" d="M 15564,9907 L 15564,12182 15135,12430 15135,9907 15564,9907 Z M 15135,7661 L 15135,7471 15564,7223 15564,7661 15135,7661 Z M 15564,7686 L 15564,9882 15135,9882 15135,7686 15564,7686 Z"/>
     <path fill="rgb(110,110,110)" stroke="none" d="M 15564,9882 L 15564,12182 15135,12430 15135,9882 15564,9882 Z M 15135,7686 L 15135,7471 15564,7223 15564,7686 15135,7686 Z M 15564,7712 L 15564,9856 15135,9856 15135,7712 15564,7712 Z"/>
     <path fill="rgb(111,111,111)" stroke="none" d="M 15564,9856 L 15564,12182 15135,12430 15135,9856 15564,9856 Z M 15135,7712 L 15135,7471 15564,7223 15564,7712 15135,7712 Z M 15564,7737 L 15564,9831 15135,9831 15135,7737 15564,7737 Z"/>
     <path fill="rgb(112,112,112)" stroke="none" d="M 15564,9831 L 15564,12182 15135,12430 15135,9831 15564,9831 Z M 15135,7737 L 15135,7471 15564,7223 15564,7737 15135,7737 Z M 15564,7763 L 15564,9805 15135,9805 15135,7763 15564,7763 Z"/>
     <path fill="rgb(113,113,113)" stroke="none" d="M 15564,9805 L 15564,12182 15135,12430 15135,9805 15564,9805 Z M 15135,7763 L 15135,7471 15564,7223 15564,7763 15135,7763 Z M 15564,7788 L 15564,9780 15135,9780 15135,7788 15564,7788 Z"/>
     <path fill="rgb(114,114,114)" stroke="none" d="M 15564,9780 L 15564,12182 15135,12430 15135,9780 15564,9780 Z M 15135,7788 L 15135,7471 15564,7223 15564,7788 15135,7788 Z M 15564,7814 L 15564,9754 15135,9754 15135,7814 15564,7814 Z"/>
     <path fill="rgb(115,115,115)" stroke="none" d="M 15564,9754 L 15564,12182 15135,12430 15135,9754 15564,9754 Z M 15135,7814 L 15135,7471 15564,7223 15564,7814 15135,7814 Z M 15564,7840 L 15564,9728 15135,9728 15135,7840 15564,7840 Z"/>
     <path fill="rgb(116,116,116)" stroke="none" d="M 15564,9728 L 15564,12182 15135,12430 15135,9728 15564,9728 Z M 15135,7840 L 15135,7471 15564,7223 15564,7840 15135,7840 Z M 15564,7865 L 15564,9703 15135,9703 15135,7865 15564,7865 Z"/>
     <path fill="rgb(117,117,117)" stroke="none" d="M 15564,9703 L 15564,12182 15135,12430 15135,9703 15564,9703 Z M 15135,7865 L 15135,7471 15564,7223 15564,7865 15135,7865 Z M 15564,7891 L 15564,9677 15135,9677 15135,7891 15564,7891 Z"/>
     <path fill="rgb(118,118,118)" stroke="none" d="M 15564,9677 L 15564,12182 15135,12430 15135,9677 15564,9677 Z M 15135,7891 L 15135,7471 15564,7223 15564,7891 15135,7891 Z M 15564,7916 L 15564,9652 15135,9652 15135,7916 15564,7916 Z"/>
     <path fill="rgb(119,119,119)" stroke="none" d="M 15564,9652 L 15564,12182 15135,12430 15135,9652 15564,9652 Z M 15135,7916 L 15135,7471 15564,7223 15564,7916 15135,7916 Z M 15564,7942 L 15564,9626 15135,9626 15135,7942 15564,7942 Z"/>
     <path fill="rgb(120,120,120)" stroke="none" d="M 15564,9626 L 15564,12182 15135,12430 15135,9626 15564,9626 Z M 15135,7942 L 15135,7471 15564,7223 15564,7942 15135,7942 Z M 15564,7967 L 15564,9601 15135,9601 15135,7967 15564,7967 Z"/>
     <path fill="rgb(121,121,121)" stroke="none" d="M 15564,9601 L 15564,12182 15135,12430 15135,9601 15564,9601 Z M 15135,7967 L 15135,7471 15564,7223 15564,7967 15135,7967 Z M 15564,7993 L 15564,9575 15135,9575 15135,7993 15564,7993 Z"/>
     <path fill="rgb(122,122,122)" stroke="none" d="M 15564,9575 L 15564,12182 15135,12430 15135,9575 15564,9575 Z M 15135,7993 L 15135,7471 15564,7223 15564,7993 15135,7993 Z M 15564,8018 L 15564,9550 15135,9550 15135,8018 15564,8018 Z"/>
     <path fill="rgb(123,123,123)" stroke="none" d="M 15564,9550 L 15564,12182 15135,12430 15135,9550 15564,9550 Z M 15135,8018 L 15135,7471 15564,7223 15564,8018 15135,8018 Z M 15564,8044 L 15564,9524 15135,9524 15135,8044 15564,8044 Z"/>
     <path fill="rgb(124,124,124)" stroke="none" d="M 15564,9524 L 15564,12182 15135,12430 15135,9524 15564,9524 Z M 15135,8044 L 15135,7471 15564,7223 15564,8044 15135,8044 Z M 15564,8069 L 15564,9499 15135,9499 15135,8069 15564,8069 Z"/>
     <path fill="rgb(125,125,125)" stroke="none" d="M 15564,9499 L 15564,12182 15135,12430 15135,9499 15564,9499 Z M 15135,8069 L 15135,7471 15564,7223 15564,8069 15135,8069 Z M 15564,8095 L 15564,9473 15135,9473 15135,8095 15564,8095 Z"/>
     <path fill="rgb(126,126,126)" stroke="none" d="M 15564,9473 L 15564,12182 15135,12430 15135,9473 15564,9473 Z M 15135,8095 L 15135,7471 15564,7223 15564,8095 15135,8095 Z M 15564,8120 L 15564,9448 15135,9448 15135,8120 15564,8120 Z"/>
     <path fill="rgb(127,127,127)" stroke="none" d="M 15564,9448 L 15564,12182 15135,12430 15135,9448 15564,9448 Z M 15135,8120 L 15135,7471 15564,7223 15564,8120 15135,8120 Z M 15564,8146 L 15564,9422 15135,9422 15135,8146 15564,8146 Z"/>
     <path fill="rgb(128,128,128)" stroke="none" d="M 15564,9422 L 15564,12182 15135,12430 15135,9422 15564,9422 Z M 15135,8146 L 15135,7471 15564,7223 15564,8146 15135,8146 Z M 15564,8172 L 15564,9396 15135,9396 15135,8172 15564,8172 Z"/>
     <path fill="rgb(129,129,129)" stroke="none" d="M 15564,9396 L 15564,12182 15135,12430 15135,9396 15564,9396 Z M 15135,8172 L 15135,7471 15564,7223 15564,8172 15135,8172 Z M 15564,8197 L 15564,9371 15135,9371 15135,8197 15564,8197 Z"/>
     <path fill="rgb(130,130,130)" stroke="none" d="M 15564,9371 L 15564,12182 15135,12430 15135,9371 15564,9371 Z M 15135,8197 L 15135,7471 15564,7223 15564,8197 15135,8197 Z M 15564,8223 L 15564,9345 15135,9345 15135,8223 15564,8223 Z"/>
     <path fill="rgb(131,131,131)" stroke="none" d="M 15564,9345 L 15564,12182 15135,12430 15135,9345 15564,9345 Z M 15135,8223 L 15135,7471 15564,7223 15564,8223 15135,8223 Z M 15564,8248 L 15564,9320 15135,9320 15135,8248 15564,8248 Z"/>
     <path fill="rgb(132,132,132)" stroke="none" d="M 15564,9320 L 15564,12182 15135,12430 15135,9320 15564,9320 Z M 15135,8248 L 15135,7471 15564,7223 15564,8248 15135,8248 Z M 15564,8274 L 15564,9294 15135,9294 15135,8274 15564,8274 Z"/>
     <path fill="rgb(133,133,133)" stroke="none" d="M 15564,9294 L 15564,12182 15135,12430 15135,9294 15564,9294 Z M 15135,8274 L 15135,7471 15564,7223 15564,8274 15135,8274 Z M 15564,8299 L 15564,9269 15135,9269 15135,8299 15564,8299 Z"/>
     <path fill="rgb(134,134,134)" stroke="none" d="M 15564,9269 L 15564,12182 15135,12430 15135,9269 15564,9269 Z M 15135,8299 L 15135,7471 15564,7223 15564,8299 15135,8299 Z M 15564,8325 L 15564,9243 15135,9243 15135,8325 15564,8325 Z"/>
     <path fill="rgb(135,135,135)" stroke="none" d="M 15564,9243 L 15564,12182 15135,12430 15135,9243 15564,9243 Z M 15135,8325 L 15135,7471 15564,7223 15564,8325 15135,8325 Z M 15564,8350 L 15564,9218 15135,9218 15135,8350 15564,8350 Z"/>
     <path fill="rgb(136,136,136)" stroke="none" d="M 15564,9218 L 15564,12182 15135,12430 15135,9218 15564,9218 Z M 15135,8350 L 15135,7471 15564,7223 15564,8350 15135,8350 Z M 15564,8376 L 15564,9192 15135,9192 15135,8376 15564,8376 Z"/>
     <path fill="rgb(137,137,137)" stroke="none" d="M 15564,9192 L 15564,12182 15135,12430 15135,9192 15564,9192 Z M 15135,8376 L 15135,7471 15564,7223 15564,8376 15135,8376 Z M 15564,8401 L 15564,9167 15135,9167 15135,8401 15564,8401 Z"/>
     <path fill="rgb(138,138,138)" stroke="none" d="M 15564,9167 L 15564,12182 15135,12430 15135,9167 15564,9167 Z M 15135,8401 L 15135,7471 15564,7223 15564,8401 15135,8401 Z M 15564,8427 L 15564,9141 15135,9141 15135,8427 15564,8427 Z"/>
     <path fill="rgb(139,139,139)" stroke="none" d="M 15564,9141 L 15564,12182 15135,12430 15135,9141 15564,9141 Z M 15135,8427 L 15135,7471 15564,7223 15564,8427 15135,8427 Z M 15564,8452 L 15564,9116 15135,9116 15135,8452 15564,8452 Z"/>
     <path fill="rgb(140,140,140)" stroke="none" d="M 15564,9116 L 15564,12182 15135,12430 15135,9116 15564,9116 Z M 15135,8452 L 15135,7471 15564,7223 15564,8452 15135,8452 Z M 15564,8478 L 15564,9090 15135,9090 15135,8478 15564,8478 Z"/>
     <path fill="rgb(141,141,141)" stroke="none" d="M 15564,9090 L 15564,12182 15135,12430 15135,9090 15564,9090 Z M 15135,8478 L 15135,7471 15564,7223 15564,8478 15135,8478 Z M 15542,8504 L 15542,9064 15135,9064 15135,8504 15542,8504 Z"/>
     <path fill="rgb(142,142,142)" stroke="none" d="M 15542,9064 L 15542,8504 15135,8504 15135,7471 15564,7223 15564,12182 15135,12430 15135,9064 15542,9064 Z M 15517,8529 L 15517,9039 15135,9039 15135,8529 15517,8529 Z"/>
     <path fill="rgb(143,143,143)" stroke="none" d="M 15517,9039 L 15517,8529 15135,8529 15135,7471 15564,7223 15564,12182 15135,12430 15135,9039 15517,9039 Z M 15491,8555 L 15491,9013 15135,9013 15135,8555 15491,8555 Z"/>
     <path fill="rgb(144,144,144)" stroke="none" d="M 15491,9013 L 15491,8555 15135,8555 15135,7471 15564,7223 15564,12182 15135,12430 15135,9013 15491,9013 Z M 15466,8580 L 15466,8988 15135,8988 15135,8580 15466,8580 Z"/>
     <path fill="rgb(145,145,145)" stroke="none" d="M 15466,8988 L 15466,8580 15135,8580 15135,7471 15564,7223 15564,12182 15135,12430 15135,8988 15466,8988 Z M 15440,8606 L 15440,8962 15135,8962 15135,8606 15440,8606 Z"/>
     <path fill="rgb(146,146,146)" stroke="none" d="M 15440,8962 L 15440,8606 15135,8606 15135,7471 15564,7223 15564,12182 15135,12430 15135,8962 15440,8962 Z M 15415,8631 L 15415,8937 15135,8937 15135,8631 15415,8631 Z"/>
     <path fill="rgb(147,147,147)" stroke="none" d="M 15415,8937 L 15415,8631 15135,8631 15135,7471 15564,7223 15564,12182 15135,12430 15135,8937 15415,8937 Z M 15135,8657 L 15389,8657 15389,8911 15135,8911 15135,8657 Z"/>
     <path fill="rgb(148,148,148)" stroke="none" d="M 15135,8657 L 15135,7471 15564,7223 15564,12182 15135,12430 15135,8911 15389,8911 15389,8657 15135,8657 Z M 15160,8682 L 15364,8682 15364,8886 15160,8886 15160,8682 Z"/>
     <path fill="rgb(149,149,149)" stroke="none" d="M 15160,8682 L 15160,8886 15364,8886 15364,8682 15160,8682 Z M 15186,8708 L 15338,8708 15338,8860 15186,8860 15186,8708 Z M 15135,12430 L 15135,7471 15564,7223 15564,12182 15135,12430 Z"/>
     <path fill="rgb(150,150,150)" stroke="none" d="M 15186,8708 L 15186,8860 15338,8860 15338,8708 15186,8708 Z M 15211,8733 L 15313,8733 15313,8835 15211,8835 15211,8733 Z M 15135,12430 L 15135,7471 15564,7223 15564,12182 15135,12430 Z"/>
     <path fill="rgb(151,151,151)" stroke="none" d="M 15211,8733 L 15211,8835 15313,8835 15313,8733 15211,8733 Z M 15237,8759 L 15287,8759 15287,8809 15237,8809 15237,8759 Z M 15135,12430 L 15135,7471 15564,7223 15564,12182 15135,12430 Z"/>
     <path fill="rgb(153,153,153)" stroke="none" d="M 15237,8759 L 15237,8809 15287,8809 15287,8759 15237,8759 Z M 15135,12430 L 15135,7471 15564,7223 15564,12182 15135,12430 Z"/>
     <path fill="none" stroke="rgb(178,178,178)" id="Drawing_5_0" stroke-width="40" stroke-linejoin="round" d="M 15135,12430 L 15135,7471 15564,7223 15564,12182 15135,12430 Z"/>
    </g>
    <g>
     <path fill="none" stroke="rgb(0,0,0)" id="Drawing_6_0" stroke-width="40" stroke-linejoin="round" d="M 8414,3090 L 15564,7223 15564,12182 15135,12430 7985,8297 7985,3338 8414,3090 Z"/>
    </g>
    <g>
     <path fill="rgb(209,97,108)" stroke="none" d="M 11417,10033 L 11417,9868 11703,10033 11703,10199 11417,10033 Z"/>
     <path fill="none" stroke="rgb(178,178,178)" id="Drawing_7_0" stroke-width="40" stroke-linejoin="round" d="M 11417,10033 L 11417,9868 11703,10033 11703,10199 11417,10033 Z"/>
    </g>
   </g>
  </g>
 </g>
</svg>