<?xml version="1.0" encoding="UTF-8"?>

<svg version="1.2" baseProfile="tiny" width="69.31mm" height="48.67mm" viewBox="5937 2178 6931 4867" preserveAspectRatio="xMidYMid" fill-rule="evenodd" stroke-width="28.222" stroke-linejoin="round" xmlns="http://www.w3.org/2000/svg" xmlns:xlink="http://www.w3.org/1999/xlink" xml:space="preserve">
 <g visibility="visible" id="Slide_1">
  <g id="DrawingGroup_1">
   <g>
    <path fill="rgb(221,221,221)" stroke="none" d="M 9701,7025 C 9964,7025 12868,5749 12868,5360 12868,4972 12460,4972 12196,4972 12196,5138 9605,5804 9701,7025 Z"/>
    <path fill="none" stroke="rgb(221,221,221)" id="Drawing_1_0" stroke-linejoin="round" d="M 9701,7025 C 9964,7025 12868,5749 12868,5360 12868,4972 12460,4972 12196,4972 12196,5138 9605,5804 9701,7025 Z"/>
   </g>
   <g id="DrawingGroup_2">
    <g>
     <defs>
      <linearGradient id="Gradient_882" gradientUnits="userSpaceOnUse" x1="6145" y1="5384" x2="9510" y2="5390">
       <stop offset="0.1" stop-color="rgb(51,51,51)"/>
       <stop offset="1" stop-color="rgb(153,153,153)"/>
      </linearGradient>
     </defs>
     <path fill="url(#Gradient_882)" stroke="rgb(178,178,178)" id="Drawing_2_0" stroke-width="40" stroke-linejoin="round" d="M 6149,4972 L 6149,3862 9508,5804 9508,6913 6149,4972 Z"/>
    </g>
    <g>
     <path fill="rgb(51,51,51)" stroke="none" d="M 11796,5592 L 10402,6397 9508,6397 9508,5804 11796,4482 11796,5592 Z"/>
     <path fill="rgb(52,52,52)" stroke="none" d="M 10402,6397 L 9508,6914 9508,6397 10402,6397 Z M 11796,4482 L 12387,4140 12387,5250 11796,5592 11796,4482 Z M 11782,5600 L 10427,6383 9508,6383 9508,5804 11782,4490 11782,5600 Z"/>
     <path fill="rgb(53,53,53)" stroke="none" d="M 10427,6383 L 9508,6914 9508,6383 10427,6383 Z M 11782,4490 L 12387,4140 12387,5250 11782,5600 11782,4490 Z M 11768,5608 L 10451,6369 9508,6369 9508,5804 11768,4498 11768,5608 Z"/>
     <path fill="rgb(54,54,54)" stroke="none" d="M 10451,6369 L 9508,6914 9508,6369 10451,6369 Z M 11768,4498 L 12387,4140 12387,5250 11768,5608 11768,4498 Z M 11754,5616 L 10475,6355 9508,6355 9508,5804 11754,4506 11754,5616 Z"/>
     <path fill="rgb(55,55,55)" stroke="none" d="M 10475,6355 L 9508,6914 9508,6355 10475,6355 Z M 11754,4506 L 12387,4140 12387,5250 11754,5616 11754,4506 Z M 11740,5624 L 10499,6341 9508,6341 9508,5804 11740,4514 11740,5624 Z"/>
     <path fill="rgb(56,56,56)" stroke="none" d="M 10499,6341 L 9508,6914 9508,6341 10499,6341 Z M 11740,4514 L 12387,4140 12387,5250 11740,5624 11740,4514 Z M 11726,5632 L 10524,6327 9508,6327 9508,5804 11726,4522 11726,5632 Z"/>
     <path fill="rgb(57,57,57)" stroke="none" d="M 10524,6327 L 9508,6914 9508,6327 10524,6327 Z M 11726,4522 L 12387,4140 12387,5250 11726,5632 11726,4522 Z M 11712,5640 L 10548,6313 9508,6313 9508,5804 11712,4530 11712,5640 Z"/>
     <path fill="rgb(58,58,58)" stroke="none" d="M 10548,6313 L 9508,6914 9508,6313 10548,6313 Z M 11712,4530 L 12387,4140 12387,5250 11712,5640 11712,4530 Z M 11697,5649 L 10574,6298 9508,6298 9508,5804 11697,4539 11697,5649 Z"/>
     <path fill="rgb(59,59,59)" stroke="none" d="M 10574,6298 L 9508,6914 9508,6298 10574,6298 Z M 11697,4539 L 12387,4140 12387,5250 11697,5649 11697,4539 Z M 11683,5657 L 10598,6284 9508,6284 9508,5804 11683,4547 11683,5657 Z"/>
     <path fill="rgb(60,60,60)" stroke="none" d="M 10598,6284 L 9508,6914 9508,6284 10598,6284 Z M 11683,4547 L 12387,4140 12387,5250 11683,5657 11683,4547 Z M 11669,5665 L 10622,6270 9508,6270 9508,5804 11669,4555 11669,5665 Z"/>
     <path fill="rgb(61,61,61)" stroke="none" d="M 10622,6270 L 9508,6914 9508,6270 10622,6270 Z M 11669,4555 L 12387,4140 12387,5250 11669,5665 11669,4555 Z M 11655,5673 L 10646,6256 9508,6256 9508,5804 11655,4563 11655,5673 Z"/>
     <path fill="rgb(62,62,62)" stroke="none" d="M 10646,6256 L 9508,6914 9508,6256 10646,6256 Z M 11655,4563 L 12387,4140 12387,5250 11655,5673 11655,4563 Z M 11641,5681 L 10671,6242 9508,6242 9508,5804 11641,4571 11641,5681 Z"/>
     <path fill="rgb(63,63,63)" stroke="none" d="M 10671,6242 L 9508,6914 9508,6242 10671,6242 Z M 11641,4571 L 12387,4140 12387,5250 11641,5681 11641,4571 Z M 11627,5689 L 10695,6228 9508,6228 9508,5804 11627,4579 11627,5689 Z"/>
     <path fill="rgb(64,64,64)" stroke="none" d="M 10695,6228 L 9508,6914 9508,6228 10695,6228 Z M 11627,4579 L 12387,4140 12387,5250 11627,5689 11627,4579 Z M 11613,5697 L 10719,6214 9508,6214 9508,5804 11613,4587 11613,5697 Z"/>
     <path fill="rgb(65,65,65)" stroke="none" d="M 10719,6214 L 9508,6914 9508,6214 10719,6214 Z M 11613,4587 L 12387,4140 12387,5250 11613,5697 11613,4587 Z M 11599,5705 L 10743,6200 9508,6200 9508,5804 11599,4595 11599,5705 Z"/>
     <path fill="rgb(66,66,66)" stroke="none" d="M 10743,6200 L 9508,6914 9508,6200 10743,6200 Z M 11599,4595 L 12387,4140 12387,5250 11599,5705 11599,4595 Z M 11584,5714 L 10769,6185 9508,6185 9508,5804 11584,4604 11584,5714 Z"/>
     <path fill="rgb(67,67,67)" stroke="none" d="M 10769,6185 L 9508,6914 9508,6185 10769,6185 Z M 11584,4604 L 12387,4140 12387,5250 11584,5714 11584,4604 Z M 11570,5722 L 10794,6171 9508,6171 9508,5804 11570,4612 11570,5722 Z"/>
     <path fill="rgb(68,68,68)" stroke="none" d="M 10794,6171 L 9508,6914 9508,6171 10794,6171 Z M 11570,4612 L 12387,4140 12387,5250 11570,5722 11570,4612 Z M 11556,5730 L 10818,6157 9508,6157 9508,5804 11556,4620 11556,5730 Z"/>
     <path fill="rgb(69,69,69)" stroke="none" d="M 10818,6157 L 9508,6914 9508,6157 10818,6157 Z M 11556,4620 L 12387,4140 12387,5250 11556,5730 11556,4620 Z M 11542,5738 L 10842,6143 9508,6143 9508,5804 11542,4628 11542,5738 Z"/>
     <path fill="rgb(70,70,70)" stroke="none" d="M 10842,6143 L 9508,6914 9508,6143 10842,6143 Z M 11542,4628 L 12387,4140 12387,5250 11542,5738 11542,4628 Z M 11528,5746 L 10866,6129 9508,6129 9508,5804 11528,4636 11528,5746 Z"/>
     <path fill="rgb(71,71,71)" stroke="none" d="M 10866,6129 L 9508,6914 9508,6129 10866,6129 Z M 11528,4636 L 12387,4140 12387,5250 11528,5746 11528,4636 Z M 11514,5755 L 10890,6115 9508,6115 9508,5804 11514,4645 11514,5755 Z"/>
     <path fill="rgb(72,72,72)" stroke="none" d="M 10890,6115 L 9508,6914 9508,6115 10890,6115 Z M 11514,4645 L 12387,4140 12387,5250 11514,5755 11514,4645 Z M 11500,5763 L 10915,6101 9508,6101 9508,5804 11500,4653 11500,5763 Z"/>
     <path fill="rgb(73,73,73)" stroke="none" d="M 10915,6101 L 9508,6914 9508,6101 10915,6101 Z M 11500,4653 L 12387,4140 12387,5250 11500,5763 11500,4653 Z M 11486,5771 L 10939,6087 9508,6087 9508,5804 11486,4661 11486,5771 Z"/>
     <path fill="rgb(74,74,74)" stroke="none" d="M 10939,6087 L 9508,6914 9508,6087 10939,6087 Z M 11486,4661 L 12387,4140 12387,5250 11486,5771 11486,4661 Z M 11471,5779 L 10965,6072 9508,6072 9508,5804 11471,4669 11471,5779 Z"/>
     <path fill="rgb(75,75,75)" stroke="none" d="M 10965,6072 L 9508,6914 9508,6072 10965,6072 Z M 11471,4669 L 12387,4140 12387,5250 11471,5779 11471,4669 Z M 11457,5788 L 10989,6058 9508,6058 9508,5804 11457,4678 11457,5788 Z"/>
     <path fill="rgb(76,76,76)" stroke="none" d="M 10989,6058 L 9508,6914 9508,6058 10989,6058 Z M 11457,4678 L 12387,4140 12387,5250 11457,5788 11457,4678 Z M 11443,5796 L 11013,6044 9508,6044 9508,5804 11443,4686 11443,5796 Z"/>
     <path fill="rgb(77,77,77)" stroke="none" d="M 11013,6044 L 9508,6914 9508,6044 11013,6044 Z M 11443,4686 L 12387,4140 12387,5250 11443,5796 11443,4686 Z M 11429,5804 L 11037,6030 9508,6030 9508,5804 11429,4694 11429,5804 Z"/>
     <path fill="rgb(78,78,78)" stroke="none" d="M 11037,6030 L 9508,6914 9508,6030 11037,6030 Z M 11429,4694 L 12387,4140 12387,5250 11429,5804 11429,4694 Z M 11415,5812 L 11062,6016 9508,6016 9508,5804 11415,4702 11415,5812 Z"/>
     <path fill="rgb(79,79,79)" stroke="none" d="M 11062,6016 L 9508,6914 9508,6016 11062,6016 Z M 11415,4702 L 12387,4140 12387,5250 11415,5812 11415,4702 Z M 11401,5820 L 11086,6002 9508,6002 9508,5804 11401,4710 11401,5820 Z"/>
     <path fill="rgb(80,80,80)" stroke="none" d="M 11086,6002 L 9508,6914 9508,6002 11086,6002 Z M 11401,4710 L 12387,4140 12387,5250 11401,5820 11401,4710 Z M 11387,5828 L 11110,5988 9508,5988 9508,5804 11387,4718 11387,5828 Z"/>
     <path fill="rgb(81,81,81)" stroke="none" d="M 11110,5988 L 9508,6914 9508,5988 11110,5988 Z M 11387,4718 L 12387,4140 12387,5250 11387,5828 11387,4718 Z M 11373,5836 L 11134,5974 9508,5974 9508,5804 11373,4726 11373,5836 Z"/>
     <path fill="rgb(82,82,82)" stroke="none" d="M 11134,5974 L 9508,6914 9508,5974 11134,5974 Z M 11373,4726 L 12387,4140 12387,5250 11373,5836 11373,4726 Z M 11358,5845 L 11160,5959 9508,5959 9508,5804 11358,4735 11358,5845 Z"/>
     <path fill="rgb(83,83,83)" stroke="none" d="M 11160,5959 L 9508,6914 9508,5959 11160,5959 Z M 11358,4735 L 12387,4140 12387,5250 11358,5845 11358,4735 Z M 11344,5853 L 11185,5945 9508,5945 9508,5804 11344,4743 11344,5853 Z"/>
     <path fill="rgb(84,84,84)" stroke="none" d="M 11185,5945 L 9508,6914 9508,5945 11185,5945 Z M 11344,4743 L 12387,4140 12387,5250 11344,5853 11344,4743 Z M 11330,5861 L 11209,5931 9508,5931 9508,5804 11330,4751 11330,5861 Z"/>
     <path fill="rgb(85,85,85)" stroke="none" d="M 11209,5931 L 9508,6914 9508,5931 11209,5931 Z M 11330,4751 L 12387,4140 12387,5250 11330,5861 11330,4751 Z M 11316,5869 L 11233,5917 9508,5917 9508,5804 11316,4759 11316,5869 Z"/>
     <path fill="rgb(86,86,86)" stroke="none" d="M 11233,5917 L 9508,6914 9508,5917 11233,5917 Z M 11316,4759 L 12387,4140 12387,5250 11316,5869 11316,4759 Z M 11302,5877 L 11257,5903 9508,5903 9508,5804 11302,4767 11302,5877 Z"/>
     <path fill="rgb(87,87,87)" stroke="none" d="M 11257,5903 L 9508,6914 9508,5903 11257,5903 Z M 11302,4767 L 12387,4140 12387,5250 11302,5877 11302,4767 Z M 11288,5885 L 11281,5889 9508,5889 9508,5804 11288,4775 11288,5885 Z"/>
     <path fill="rgb(88,88,88)" stroke="none" d="M 11281,5889 L 9508,6914 9508,5889 11281,5889 Z M 11288,4775 L 12387,4140 12387,5250 11288,5885 11288,4775 Z M 11274,5875 L 9508,5875 9508,5804 11274,4783 11274,5875 Z"/>
     <path fill="rgb(89,89,89)" stroke="none" d="M 11274,5875 L 11274,4783 12387,4140 12387,5250 9508,6914 9508,5875 11274,5875 Z M 11260,5861 L 9508,5861 9508,5804 11260,4791 11260,5861 Z"/>
     <path fill="rgb(90,90,90)" stroke="none" d="M 11260,5861 L 11260,4791 12387,4140 12387,5250 9508,6914 9508,5861 11260,5861 Z M 11245,5846 L 9508,5846 9508,5804 11245,4800 11245,5846 Z"/>
     <path fill="rgb(91,91,91)" stroke="none" d="M 11245,5846 L 11245,4800 12387,4140 12387,5250 9508,6914 9508,5846 11245,5846 Z M 11231,5832 L 9509,5832 9509,5803 11231,4808 11231,5832 Z"/>
     <path fill="rgb(92,92,92)" stroke="none" d="M 9509,5832 L 11231,5832 11231,4808 12387,4140 12387,5250 9508,6914 9508,5804 9509,5803 9509,5832 Z M 11217,5818 L 9523,5818 9523,5795 11217,4816 11217,5818 Z"/>
     <path fill="rgb(93,93,93)" stroke="none" d="M 9523,5818 L 11217,5818 11217,4816 12387,4140 12387,5250 9508,6914 9508,5804 9523,5795 9523,5818 Z M 11203,5804 L 9537,5804 9537,5787 11203,4824 11203,5804 Z"/>
     <path fill="rgb(94,94,94)" stroke="none" d="M 9537,5804 L 11203,5804 11203,4824 12387,4140 12387,5250 9508,6914 9508,5804 9537,5787 9537,5804 Z M 11189,5790 L 9551,5790 9551,5779 11189,4832 11189,5790 Z"/>
     <path fill="rgb(95,95,95)" stroke="none" d="M 9551,5790 L 11189,5790 11189,4832 12387,4140 12387,5250 9508,6914 9508,5804 9551,5779 9551,5790 Z M 11175,5776 L 9565,5776 9565,5771 11175,4841 11175,5776 Z"/>
     <path fill="rgb(96,96,96)" stroke="none" d="M 9565,5776 L 11175,5776 11175,4841 12387,4140 12387,5250 9508,6914 9508,5804 9565,5771 9565,5776 Z M 11161,5762 L 9581,5762 11161,4849 11161,5762 Z"/>
     <path fill="rgb(97,97,97)" stroke="none" d="M 11161,5762 L 11161,4849 12387,4140 12387,5250 9508,6914 9508,5804 9581,5762 11161,5762 Z M 11147,5748 L 9605,5748 11147,4857 11147,5748 Z"/>
     <path fill="rgb(98,98,98)" stroke="none" d="M 11147,5748 L 11147,4857 12387,4140 12387,5250 9508,6914 9508,5804 9605,5748 11147,5748 Z M 11132,5733 L 9631,5733 11132,4865 11132,5733 Z"/>
     <path fill="rgb(99,99,99)" stroke="none" d="M 11132,5733 L 11132,4865 12387,4140 12387,5250 9508,6914 9508,5804 9631,5733 11132,5733 Z M 11118,5719 L 9655,5719 11118,4873 11118,5719 Z"/>
     <path fill="rgb(100,100,100)" stroke="none" d="M 11118,5719 L 11118,4873 12387,4140 12387,5250 9508,6914 9508,5804 9655,5719 11118,5719 Z M 11104,5705 L 9679,5705 11104,4882 11104,5705 Z"/>
     <path fill="rgb(101,101,101)" stroke="none" d="M 11104,5705 L 11104,4882 12387,4140 12387,5250 9508,6914 9508,5804 9679,5705 11104,5705 Z M 11090,5691 L 9704,5691 11090,4890 11090,5691 Z"/>
     <path fill="rgb(102,102,102)" stroke="none" d="M 11090,5691 L 11090,4890 12387,4140 12387,5250 9508,6914 9508,5804 9704,5691 11090,5691 Z M 11076,5677 L 9728,5677 11076,4898 11076,5677 Z"/>
     <path fill="rgb(103,103,103)" stroke="none" d="M 11076,5677 L 11076,4898 12387,4140 12387,5250 9508,6914 9508,5804 9728,5677 11076,5677 Z M 11062,5663 L 9752,5663 11062,4906 11062,5663 Z"/>
     <path fill="rgb(104,104,104)" stroke="none" d="M 11062,5663 L 11062,4906 12387,4140 12387,5250 9508,6914 9508,5804 9752,5663 11062,5663 Z M 11048,5649 L 9776,5649 11048,4914 11048,5649 Z"/>
     <path fill="rgb(105,105,105)" stroke="none" d="M 11048,5649 L 11048,4914 12387,4140 12387,5250 9508,6914 9508,5804 9776,5649 11048,5649 Z M 11033,5634 L 9802,5634 11033,4923 11033,5634 Z"/>
     <path fill="rgb(106,106,106)" stroke="none" d="M 11033,5634 L 11033,4923 12387,4140 12387,5250 9508,6914 9508,5804 9802,5634 11033,5634 Z M 11019,5620 L 9826,5620 11019,4931 11019,5620 Z"/>
     <path fill="rgb(107,107,107)" stroke="none" d="M 11019,5620 L 11019,4931 12387,4140 12387,5250 9508,6914 9508,5804 9826,5620 11019,5620 Z M 11005,5606 L 9851,5606 11005,4939 11005,5606 Z"/>
     <path fill="rgb(108,108,108)" stroke="none" d="M 11005,5606 L 11005,4939 12387,4140 12387,5250 9508,6914 9508,5804 9851,5606 11005,5606 Z M 10991,5592 L 9875,5592 10991,4947 10991,5592 Z"/>
     <path fill="rgb(109,109,109)" stroke="none" d="M 10991,5592 L 10991,4947 12387,4140 12387,5250 9508,6914 9508,5804 9875,5592 10991,5592 Z M 10977,5578 L 9899,5578 10977,4955 10977,5578 Z"/>
     <path fill="rgb(110,110,110)" stroke="none" d="M 10977,5578 L 10977,4955 12387,4140 12387,5250 9508,6914 9508,5804 9899,5578 10977,5578 Z M 10963,5564 L 9923,5564 10963,4963 10963,5564 Z"/>
     <path fill="rgb(111,111,111)" stroke="none" d="M 10963,5564 L 10963,4963 12387,4140 12387,5250 9508,6914 9508,5804 9923,5564 10963,5564 Z M 10949,5550 L 9947,5550 10949,4971 10949,5550 Z"/>
     <path fill="rgb(112,112,112)" stroke="none" d="M 10949,5550 L 10949,4971 12387,4140 12387,5250 9508,6914 9508,5804 9947,5550 10949,5550 Z M 10935,5536 L 9972,5536 10935,4979 10935,5536 Z"/>
     <path fill="rgb(113,113,113)" stroke="none" d="M 10935,5536 L 10935,4979 12387,4140 12387,5250 9508,6914 9508,5804 9972,5536 10935,5536 Z M 10920,5521 L 9998,5521 10920,4988 10920,5521 Z"/>
     <path fill="rgb(114,114,114)" stroke="none" d="M 10920,5521 L 10920,4988 12387,4140 12387,5250 9508,6914 9508,5804 9998,5521 10920,5521 Z M 10906,5507 L 10022,5507 10906,4996 10906,5507 Z"/>
     <path fill="rgb(115,115,115)" stroke="none" d="M 10906,5507 L 10906,4996 12387,4140 12387,5250 9508,6914 9508,5804 10022,5507 10906,5507 Z M 10892,5493 L 10046,5493 10892,5004 10892,5493 Z"/>
     <path fill="rgb(116,116,116)" stroke="none" d="M 10892,5493 L 10892,5004 12387,4140 12387,5250 9508,6914 9508,5804 10046,5493 10892,5493 Z M 10878,5479 L 10070,5479 10878,5012 10878,5479 Z"/>
     <path fill="rgb(117,117,117)" stroke="none" d="M 10878,5479 L 10878,5012 12387,4140 12387,5250 9508,6914 9508,5804 10070,5479 10878,5479 Z M 10864,5465 L 10095,5465 10864,5020 10864,5465 Z"/>
     <path fill="rgb(118,118,118)" stroke="none" d="M 10864,5465 L 10864,5020 12387,4140 12387,5250 9508,6914 9508,5804 10095,5465 10864,5465 Z M 10850,5451 L 10119,5451 10850,5028 10850,5451 Z"/>
     <path fill="rgb(119,119,119)" stroke="none" d="M 10850,5451 L 10850,5028 12387,4140 12387,5250 9508,6914 9508,5804 10119,5451 10850,5451 Z M 10836,5437 L 10143,5437 10836,5036 10836,5437 Z"/>
     <path fill="rgb(120,120,120)" stroke="none" d="M 10836,5437 L 10836,5036 12387,4140 12387,5250 9508,6914 9508,5804 10143,5437 10836,5437 Z M 10822,5423 L 10167,5423 10822,5045 10822,5423 Z"/>
     <path fill="rgb(121,121,121)" stroke="none" d="M 10822,5423 L 10822,5045 12387,4140 12387,5250 9508,6914 9508,5804 10167,5423 10822,5423 Z M 10807,5408 L 10193,5408 10807,5053 10807,5408 Z"/>
     <path fill="rgb(122,122,122)" stroke="none" d="M 10807,5408 L 10807,5053 12387,4140 12387,5250 9508,6914 9508,5804 10193,5408 10807,5408 Z M 10793,5394 L 10217,5394 10793,5061 10793,5394 Z"/>
     <path fill="rgb(123,123,123)" stroke="none" d="M 10793,5394 L 10793,5061 12387,4140 12387,5250 9508,6914 9508,5804 10217,5394 10793,5394 Z M 10779,5380 L 10242,5380 10779,5069 10779,5380 Z"/>
     <path fill="rgb(124,124,124)" stroke="none" d="M 10779,5380 L 10779,5069 12387,4140 12387,5250 9508,6914 9508,5804 10242,5380 10779,5380 Z M 10765,5366 L 10266,5366 10765,5077 10765,5366 Z"/>
     <path fill="rgb(125,125,125)" stroke="none" d="M 10765,5366 L 10765,5077 12387,4140 12387,5250 9508,6914 9508,5804 10266,5366 10765,5366 Z M 10751,5352 L 10290,5352 10751,5086 10751,5352 Z"/>
     <path fill="rgb(126,126,126)" stroke="none" d="M 10751,5352 L 10751,5086 12387,4140 12387,5250 9508,6914 9508,5804 10290,5352 10751,5352 Z M 10737,5338 L 10314,5338 10737,5094 10737,5338 Z"/>
     <path fill="rgb(127,127,127)" stroke="none" d="M 10737,5338 L 10737,5094 12387,4140 12387,5250 9508,6914 9508,5804 10314,5338 10737,5338 Z M 10723,5324 L 10338,5324 10723,5102 10723,5324 Z"/>
     <path fill="rgb(128,128,128)" stroke="none" d="M 10723,5324 L 10723,5102 12387,4140 12387,5250 9508,6914 9508,5804 10338,5324 10723,5324 Z M 10709,5310 L 10363,5310 10709,5110 10709,5310 Z"/>
     <path fill="rgb(129,129,129)" stroke="none" d="M 10709,5310 L 10709,5110 12387,4140 12387,5250 9508,6914 9508,5804 10363,5310 10709,5310 Z M 10694,5295 L 10389,5295 10694,5119 10694,5295 Z"/>
     <path fill="rgb(130,130,130)" stroke="none" d="M 10694,5295 L 10694,5119 12387,4140 12387,5250 9508,6914 9508,5804 10389,5295 10694,5295 Z M 10680,5281 L 10413,5281 10680,5127 10680,5281 Z"/>
     <path fill="rgb(131,131,131)" stroke="none" d="M 10680,5281 L 10680,5127 12387,4140 12387,5250 9508,6914 9508,5804 10413,5281 10680,5281 Z M 10666,5267 L 10437,5267 10666,5135 10666,5267 Z"/>
     <path fill="rgb(132,132,132)" stroke="none" d="M 10666,5267 L 10666,5135 12387,4140 12387,5250 9508,6914 9508,5804 10437,5267 10666,5267 Z M 10652,5253 L 10461,5253 10652,5143 10652,5253 Z"/>
     <path fill="rgb(133,133,133)" stroke="none" d="M 10652,5253 L 10652,5143 12387,4140 12387,5250 9508,6914 9508,5804 10461,5253 10652,5253 Z M 10638,5239 L 10486,5239 10638,5151 10638,5239 Z"/>
     <path fill="rgb(134,134,134)" stroke="none" d="M 10638,5239 L 10638,5151 12387,4140 12387,5250 9508,6914 9508,5804 10486,5239 10638,5239 Z M 10624,5225 L 10510,5225 10624,5159 10624,5225 Z"/>
     <path fill="rgb(135,135,135)" stroke="none" d="M 10624,5225 L 10624,5159 12387,4140 12387,5250 9508,6914 9508,5804 10510,5225 10624,5225 Z M 10610,5211 L 10534,5211 10610,5167 10610,5211 Z"/>
     <path fill="rgb(136,136,136)" stroke="none" d="M 10610,5211 L 10610,5167 12387,4140 12387,5250 9508,6914 9508,5804 10534,5211 10610,5211 Z M 10596,5197 L 10558,5197 10596,5175 10596,5197 Z"/>
     <path fill="rgb(137,137,137)" stroke="none" d="M 10596,5197 L 10596,5175 12387,4140 12387,5250 9508,6914 9508,5804 10558,5197 10596,5197 Z"/>
     <path fill="rgb(138,138,138)" stroke="none" d="M 9508,6914 L 9508,5804 12387,4140 12387,5250 9508,6914 Z"/>
     <path fill="rgb(139,139,139)" stroke="none" d="M 9508,6914 L 9508,5804 12387,4140 12387,5250 9508,6914 Z"/>
     <path fill="rgb(140,140,140)" stroke="none" d="M 9508,6914 L 9508,5804 12387,4140 12387,5250 9508,6914 Z"/>
     <path fill="rgb(141,141,141)" stroke="none" d="M 9508,6914 L 9508,5804 12387,4140 12387,5250 9508,6914 Z"/>
     <path fill="rgb(142,142,142)" stroke="none" d="M 9508,6914 L 9508,5804 12387,4140 12387,5250 9508,6914 Z"/>
     <path fill="rgb(143,143,143)" stroke="none" d="M 9508,6914 L 9508,5804 12387,4140 12387,5250 9508,6914 Z"/>
     <path fill="rgb(144,144,144)" stroke="none" d="M 9508,6914 L 9508,5804 12387,4140 12387,5250 9508,6914 Z"/>
     <path fill="rgb(145,145,145)" stroke="none" d="M 9508,6914 L 9508,5804 12387,4140 12387,5250 9508,6914 Z"/>
     <path fill="rgb(146,146,146)" stroke="none" d="M 9508,6914 L 9508,5804 12387,4140 12387,5250 9508,6914 Z"/>
     <path fill="rgb(147,147,147)" stroke="none" d="M 9508,6914 L 9508,5804 12387,4140 12387,5250 9508,6914 Z"/>
     <path fill="rgb(148,148,148)" stroke="none" d="M 9508,6914 L 9508,5804 12387,4140 12387,5250 9508,6914 Z"/>
     <path fill="rgb(149,149,149)" stroke="none" d="M 9508,6914 L 9508,5804 12387,4140 12387,5250 9508,6914 Z"/>
     <path fill="rgb(150,150,150)" stroke="none" d="M 9508,6914 L 9508,5804 12387,4140 12387,5250 9508,6914 Z"/>
     <path fill="rgb(151,151,151)" stroke="none" d="M 9508,6914 L 9508,5804 12387,4140 12387,5250 9508,6914 Z"/>
     <path fill="rgb(153,153,153)" stroke="none" d="M 9508,6914 L 9508,5804 12387,4140 12387,5250 9508,6914 Z"/>
     <path fill="none" stroke="rgb(178,178,178)" id="Drawing_3_0" stroke-width="40" stroke-linejoin="round" d="M 9508,6914 L 9508,5804 12387,4140 12387,5250 9508,6914 Z"/>
    </g>
    <g>
     <defs>
      <linearGradient id="Gradient_883" gradientUnits="userSpaceOnUse" x1="9268" y1="2198" x2="9268" y2="5804">
       <stop offset="0.1" stop-color="rgb(51,51,51)"/>
       <stop offset="1" stop-color="rgb(153,153,153)"/>
      </linearGradient>
     </defs>
     <path fill="url(#Gradient_883)" stroke="rgb(178,178,178)" id="Drawing_4_0" stroke-width="40" stroke-linejoin="round" d="M 9508,5804 L 6149,3862 9028,2198 12388,4140 9508,5804 Z"/>
    </g>
    <g>
     <path fill="none" stroke="rgb(153,153,153)" id="Drawing_5_0" stroke-width="40" stroke-linejoin="round" d="M 7301,4750 L 7301,5416"/>
    </g>
    <g>
     <path fill="none" stroke="rgb(178,178,178)" id="Drawing_6_0" stroke-width="40" stroke-linejoin="round" d="M 9413,6171 L 7877,5283"/>
    </g>
    <g>
     <path fill="none" stroke="rgb(178,178,178)" id="Drawing_7_0" stroke-width="40" stroke-linejoin="round" d="M 7868,5083 L 7868,5305"/>
    </g>
    <g>
     <path fill="none" stroke="rgb(102,102,102)" id="Drawing_8_0" stroke-width="40" stroke-linejoin="round" d="M 9404,5971 L 9404,6193"/>
    </g>
    <g>
     <path fill="none" stroke="rgb(102,102,102)" id="Drawing_9_0" stroke-width="40" stroke-linejoin="round" d="M 9404,5971 L 7868,5083"/>
    </g>
    <g>
     <path fill="rgb(57,181,74)" stroke="none" d="M 7493,5083 L 7493,4861 7685,4972 7685,5194 7493,5083 Z"/>
     <path fill="none" stroke="rgb(102,102,102)" id="Drawing_10_0" stroke-width="40" stroke-linejoin="round" d="M 7493,5083 L 7493,4861 7685,4972 7685,5194 7493,5083 Z"/>
    </g>
    <g>
     <path fill="none" stroke="rgb(153,153,153)" id="Drawing_11_0" stroke-width="40" stroke-linejoin="round" d="M 7109,4639 L 7109,5305"/>
    </g>
    <g>
     <path fill="none" stroke="rgb(153,153,153)" id="Drawing_12_0" stroke-width="40" stroke-linejoin="round" d="M 6917,4528 L 6917,5194"/>
    </g>
    <g>
     <path fill="none" stroke="rgb(153,153,153)" id="Drawing_13_0" stroke-width="40" stroke-linejoin="round" d="M 6725,4417 L 6725,5083"/>
    </g>
    <g>
     <path fill="none" stroke="rgb(153,153,153)" id="Drawing_14_0" stroke-width="40" stroke-linejoin="round" d="M 6533,4306 L 6533,4972"/>
    </g>
    <g>
     <path fill="none" stroke="rgb(153,153,153)" id="Drawing_15_0" stroke-width="40" stroke-linejoin="round" d="M 6341,4195 L 6341,4861"/>
    </g>
    <g>
     <defs>
      <linearGradient id="Gradient_884" gradientUnits="userSpaceOnUse" x1="5956" y1="4361" x2="6150" y2="4361">
       <stop offset="0.1" stop-color="rgb(51,51,51)"/>
       <stop offset="1" stop-color="rgb(153,153,153)"/>
      </linearGradient>
     </defs>
     <path fill="url(#Gradient_884)" stroke="rgb(178,178,178)" id="Drawing_16_0" stroke-width="40" stroke-linejoin="round" d="M 5957,4861 L 5957,3751 6149,3862 6149,4972 5957,4861 Z"/>
    </g>
    <g>
     <defs>
      <linearGradient id="Gradient_885" gradientUnits="userSpaceOnUse" x1="9507" y1="6414" x2="9701" y2="6414">
       <stop offset="0.1" stop-color="rgb(51,51,51)"/>
       <stop offset="1" stop-color="rgb(153,153,153)"/>
      </linearGradient>
     </defs>
     <path fill="url(#Gradient_885)" stroke="rgb(178,178,178)" id="Drawing_17_0" stroke-width="40" stroke-linejoin="round" d="M 9508,6914 L 9508,5804 9700,5915 9700,7025 9508,6914 Z"/>
    </g>
    <g>
     <path fill="none" stroke="rgb(0,0,0)" id="Drawing_18_0" stroke-width="40" stroke-linejoin="round" d="M 5957,4861 L 5957,3751 6149,3862 9028,2198 12388,4140 12388,5249 9700,6803 9700,7025 5957,4861 Z"/>
    </g>
   </g>
  </g>
 </g>
</svg>