<?xml version="1.0" encoding="UTF-8"?>

<svg version="1.2" baseProfile="tiny" width="69.31mm" height="48.7mm" viewBox="6806 14838 6931 4870" preserveAspectRatio="xMidYMid" fill-rule="evenodd" stroke-width="28.222" stroke-linejoin="round" xmlns="http://www.w3.org/2000/svg" xmlns:xlink="http://www.w3.org/1999/xlink" xml:space="preserve">
 <g visibility="visible" id="Slide_1">
  <g id="DrawingGroup_1">
   <g id="DrawingGroup_2">
    <g>
     <path fill="rgb(221,221,221)" stroke="none" d="M 10570,19685 C 10833,19685 13737,18409 13737,18020 13737,17632 13329,17632 13065,17632 13065,17798 10474,18464 10570,19685 Z"/>
     <path fill="none" stroke="rgb(221,221,221)" id="Drawing_1_0" stroke-linejoin="round" d="M 10570,19685 C 10833,19685 13737,18409 13737,18020 13737,17632 13329,17632 13065,17632 13065,17798 10474,18464 10570,19685 Z"/>
    </g>
    <g id="DrawingGroup_3">
     <g>
      <defs>
       <linearGradient id="Gradient_894" gradientUnits="userSpaceOnUse" x1="7014" y1="18044" x2="10379" y2="18050">
        <stop offset="0.1" stop-color="rgb(51,51,51)"/>
        <stop offset="1" stop-color="rgb(153,153,153)"/>
       </linearGradient>
      </defs>
      <path fill="url(#Gradient_894)" stroke="rgb(178,178,178)" id="Drawing_2_0" stroke-width="40" stroke-linejoin="round" d="M 7018,17632 L 7018,16522 10377,18464 10377,19573 7018,17632 Z"/>
     </g>
     <g>
      <path fill="rgb(51,51,51)" stroke="none" d="M 12665,18252 L 11271,19057 10377,19057 10377,18464 12665,17142 12665,18252 Z"/>
      <path fill="rgb(52,52,52)" stroke="none" d="M 11271,19057 L 10377,19574 10377,19057 11271,19057 Z M 12665,17142 L 13256,16800 13256,17910 12665,18252 12665,17142 Z M 12651,18260 L 11296,19043 10377,19043 10377,18464 12651,17150 12651,18260 Z"/>
      <path fill="rgb(53,53,53)" stroke="none" d="M 11296,19043 L 10377,19574 10377,19043 11296,19043 Z M 12651,17150 L 13256,16800 13256,17910 12651,18260 12651,17150 Z M 12637,18268 L 11320,19029 10377,19029 10377,18464 12637,17158 12637,18268 Z"/>
      <path fill="rgb(54,54,54)" stroke="none" d="M 11320,19029 L 10377,19574 10377,19029 11320,19029 Z M 12637,17158 L 13256,16800 13256,17910 12637,18268 12637,17158 Z M 12623,18276 L 11344,19015 10377,19015 10377,18464 12623,17166 12623,18276 Z"/>
      <path fill="rgb(55,55,55)" stroke="none" d="M 11344,19015 L 10377,19574 10377,19015 11344,19015 Z M 12623,17166 L 13256,16800 13256,17910 12623,18276 12623,17166 Z M 12609,18284 L 11368,19001 10377,19001 10377,18464 12609,17174 12609,18284 Z"/>
      <path fill="rgb(56,56,56)" stroke="none" d="M 11368,19001 L 10377,19574 10377,19001 11368,19001 Z M 12609,17174 L 13256,16800 13256,17910 12609,18284 12609,17174 Z M 12595,18292 L 11393,18987 10377,18987 10377,18464 12595,17182 12595,18292 Z"/>
      <path fill="rgb(57,57,57)" stroke="none" d="M 11393,18987 L 10377,19574 10377,18987 11393,18987 Z M 12595,17182 L 13256,16800 13256,17910 12595,18292 12595,17182 Z M 12581,18300 L 11417,18973 10377,18973 10377,18464 12581,17190 12581,18300 Z"/>
      <path fill="rgb(58,58,58)" stroke="none" d="M 11417,18973 L 10377,19574 10377,18973 11417,18973 Z M 12581,17190 L 13256,16800 13256,17910 12581,18300 12581,17190 Z M 12566,18309 L 11443,18958 10377,18958 10377,18464 12566,17199 12566,18309 Z"/>
      <path fill="rgb(59,59,59)" stroke="none" d="M 11443,18958 L 10377,19574 10377,18958 11443,18958 Z M 12566,17199 L 13256,16800 13256,17910 12566,18309 12566,17199 Z M 12552,18317 L 11467,18944 10377,18944 10377,18464 12552,17207 12552,18317 Z"/>
      <path fill="rgb(60,60,60)" stroke="none" d="M 11467,18944 L 10377,19574 10377,18944 11467,18944 Z M 12552,17207 L 13256,16800 13256,17910 12552,18317 12552,17207 Z M 12538,18325 L 11491,18930 10377,18930 10377,18464 12538,17215 12538,18325 Z"/>
      <path fill="rgb(61,61,61)" stroke="none" d="M 11491,18930 L 10377,19574 10377,18930 11491,18930 Z M 12538,17215 L 13256,16800 13256,17910 12538,18325 12538,17215 Z M 12524,18333 L 11515,18916 10377,18916 10377,18464 12524,17223 12524,18333 Z"/>
      <path fill="rgb(62,62,62)" stroke="none" d="M 11515,18916 L 10377,19574 10377,18916 11515,18916 Z M 12524,17223 L 13256,16800 13256,17910 12524,18333 12524,17223 Z M 12510,18341 L 11540,18902 10377,18902 10377,18464 12510,17231 12510,18341 Z"/>
      <path fill="rgb(63,63,63)" stroke="none" d="M 11540,18902 L 10377,19574 10377,18902 11540,18902 Z M 12510,17231 L 13256,16800 13256,17910 12510,18341 12510,17231 Z M 12496,18349 L 11564,18888 10377,18888 10377,18464 12496,17239 12496,18349 Z"/>
      <path fill="rgb(64,64,64)" stroke="none" d="M 11564,18888 L 10377,19574 10377,18888 11564,18888 Z M 12496,17239 L 13256,16800 13256,17910 12496,18349 12496,17239 Z M 12482,18357 L 11588,18874 10377,18874 10377,18464 12482,17247 12482,18357 Z"/>
      <path fill="rgb(65,65,65)" stroke="none" d="M 11588,18874 L 10377,19574 10377,18874 11588,18874 Z M 12482,17247 L 13256,16800 13256,17910 12482,18357 12482,17247 Z M 12468,18365 L 11612,18860 10377,18860 10377,18464 12468,17255 12468,18365 Z"/>
      <path fill="rgb(66,66,66)" stroke="none" d="M 11612,18860 L 10377,19574 10377,18860 11612,18860 Z M 12468,17255 L 13256,16800 13256,17910 12468,18365 12468,17255 Z M 12453,18374 L 11638,18845 10377,18845 10377,18464 12453,17264 12453,18374 Z"/>
      <path fill="rgb(67,67,67)" stroke="none" d="M 11638,18845 L 10377,19574 10377,18845 11638,18845 Z M 12453,17264 L 13256,16800 13256,17910 12453,18374 12453,17264 Z M 12439,18382 L 11663,18831 10377,18831 10377,18464 12439,17272 12439,18382 Z"/>
      <path fill="rgb(68,68,68)" stroke="none" d="M 11663,18831 L 10377,19574 10377,18831 11663,18831 Z M 12439,17272 L 13256,16800 13256,17910 12439,18382 12439,17272 Z M 12425,18390 L 11687,18817 10377,18817 10377,18464 12425,17280 12425,18390 Z"/>
      <path fill="rgb(69,69,69)" stroke="none" d="M 11687,18817 L 10377,19574 10377,18817 11687,18817 Z M 12425,17280 L 13256,16800 13256,17910 12425,18390 12425,17280 Z M 12411,18398 L 11711,18803 10377,18803 10377,18464 12411,17288 12411,18398 Z"/>
      <path fill="rgb(70,70,70)" stroke="none" d="M 11711,18803 L 10377,19574 10377,18803 11711,18803 Z M 12411,17288 L 13256,16800 13256,17910 12411,18398 12411,17288 Z M 12397,18406 L 11735,18789 10377,18789 10377,18464 12397,17296 12397,18406 Z"/>
      <path fill="rgb(71,71,71)" stroke="none" d="M 11735,18789 L 10377,19574 10377,18789 11735,18789 Z M 12397,17296 L 13256,16800 13256,17910 12397,18406 12397,17296 Z M 12383,18415 L 11759,18775 10377,18775 10377,18464 12383,17305 12383,18415 Z"/>
      <path fill="rgb(72,72,72)" stroke="none" d="M 11759,18775 L 10377,19574 10377,18775 11759,18775 Z M 12383,17305 L 13256,16800 13256,17910 12383,18415 12383,17305 Z M 12369,18423 L 11784,18761 10377,18761 10377,18464 12369,17313 12369,18423 Z"/>
      <path fill="rgb(73,73,73)" stroke="none" d="M 11784,18761 L 10377,19574 10377,18761 11784,18761 Z M 12369,17313 L 13256,16800 13256,17910 12369,18423 12369,17313 Z M 12355,18431 L 11808,18747 10377,18747 10377,18464 12355,17321 12355,18431 Z"/>
      <path fill="rgb(74,74,74)" stroke="none" d="M 11808,18747 L 10377,19574 10377,18747 11808,18747 Z M 12355,17321 L 13256,16800 13256,17910 12355,18431 12355,17321 Z M 12340,18439 L 11834,18732 10377,18732 10377,18464 12340,17329 12340,18439 Z"/>
      <path fill="rgb(75,75,75)" stroke="none" d="M 11834,18732 L 10377,19574 10377,18732 11834,18732 Z M 12340,17329 L 13256,16800 13256,17910 12340,18439 12340,17329 Z M 12326,18448 L 11858,18718 10377,18718 10377,18464 12326,17338 12326,18448 Z"/>
      <path fill="rgb(76,76,76)" stroke="none" d="M 11858,18718 L 10377,19574 10377,18718 11858,18718 Z M 12326,17338 L 13256,16800 13256,17910 12326,18448 12326,17338 Z M 12312,18456 L 11882,18704 10377,18704 10377,18464 12312,17346 12312,18456 Z"/>
      <path fill="rgb(77,77,77)" stroke="none" d="M 11882,18704 L 10377,19574 10377,18704 11882,18704 Z M 12312,17346 L 13256,16800 13256,17910 12312,18456 12312,17346 Z M 12298,18464 L 11906,18690 10377,18690 10377,18464 12298,17354 12298,18464 Z"/>
      <path fill="rgb(78,78,78)" stroke="none" d="M 11906,18690 L 10377,19574 10377,18690 11906,18690 Z M 12298,17354 L 13256,16800 13256,17910 12298,18464 12298,17354 Z M 12284,18472 L 11931,18676 10377,18676 10377,18464 12284,17362 12284,18472 Z"/>
      <path fill="rgb(79,79,79)" stroke="none" d="M 11931,18676 L 10377,19574 10377,18676 11931,18676 Z M 12284,17362 L 13256,16800 13256,17910 12284,18472 12284,17362 Z M 12270,18480 L 11955,18662 10377,18662 10377,18464 12270,17370 12270,18480 Z"/>
      <path fill="rgb(80,80,80)" stroke="none" d="M 11955,18662 L 10377,19574 10377,18662 11955,18662 Z M 12270,17370 L 13256,16800 13256,17910 12270,18480 12270,17370 Z M 12256,18488 L 11979,18648 10377,18648 10377,18464 12256,17378 12256,18488 Z"/>
      <path fill="rgb(81,81,81)" stroke="none" d="M 11979,18648 L 10377,19574 10377,18648 11979,18648 Z M 12256,17378 L 13256,16800 13256,17910 12256,18488 12256,17378 Z M 12242,18496 L 12003,18634 10377,18634 10377,18464 12242,17386 12242,18496 Z"/>
      <path fill="rgb(82,82,82)" stroke="none" d="M 12003,18634 L 10377,19574 10377,18634 12003,18634 Z M 12242,17386 L 13256,16800 13256,17910 12242,18496 12242,17386 Z M 12227,18505 L 12029,18619 10377,18619 10377,18464 12227,17395 12227,18505 Z"/>
      <path fill="rgb(83,83,83)" stroke="none" d="M 12029,18619 L 10377,19574 10377,18619 12029,18619 Z M 12227,17395 L 13256,16800 13256,17910 12227,18505 12227,17395 Z M 12213,18513 L 12054,18605 10377,18605 10377,18464 12213,17403 12213,18513 Z"/>
      <path fill="rgb(84,84,84)" stroke="none" d="M 12054,18605 L 10377,19574 10377,18605 12054,18605 Z M 12213,17403 L 13256,16800 13256,17910 12213,18513 12213,17403 Z M 12199,18521 L 12078,18591 10377,18591 10377,18464 12199,17411 12199,18521 Z"/>
      <path fill="rgb(85,85,85)" stroke="none" d="M 12078,18591 L 10377,19574 10377,18591 12078,18591 Z M 12199,17411 L 13256,16800 13256,17910 12199,18521 12199,17411 Z M 12185,18529 L 12102,18577 10377,18577 10377,18464 12185,17419 12185,18529 Z"/>
      <path fill="rgb(86,86,86)" stroke="none" d="M 12102,18577 L 10377,19574 10377,18577 12102,18577 Z M 12185,17419 L 13256,16800 13256,17910 12185,18529 12185,17419 Z M 12171,18537 L 12126,18563 10377,18563 10377,18464 12171,17427 12171,18537 Z"/>
      <path fill="rgb(87,87,87)" stroke="none" d="M 12126,18563 L 10377,19574 10377,18563 12126,18563 Z M 12171,17427 L 13256,16800 13256,17910 12171,18537 12171,17427 Z M 12157,18545 L 12150,18549 10377,18549 10377,18464 12157,17435 12157,18545 Z"/>
      <path fill="rgb(88,88,88)" stroke="none" d="M 12150,18549 L 10377,19574 10377,18549 12150,18549 Z M 12157,17435 L 13256,16800 13256,17910 12157,18545 12157,17435 Z M 12143,18535 L 10377,18535 10377,18464 12143,17443 12143,18535 Z"/>
      <path fill="rgb(89,89,89)" stroke="none" d="M 12143,18535 L 12143,17443 13256,16800 13256,17910 10377,19574 10377,18535 12143,18535 Z M 12129,18521 L 10377,18521 10377,18464 12129,17451 12129,18521 Z"/>
      <path fill="rgb(90,90,90)" stroke="none" d="M 12129,18521 L 12129,17451 13256,16800 13256,17910 10377,19574 10377,18521 12129,18521 Z M 12114,18506 L 10377,18506 10377,18464 12114,17460 12114,18506 Z"/>
      <path fill="rgb(91,91,91)" stroke="none" d="M 12114,18506 L 12114,17460 13256,16800 13256,17910 10377,19574 10377,18506 12114,18506 Z M 12100,18492 L 10378,18492 10378,18463 12100,17468 12100,18492 Z"/>
      <path fill="rgb(92,92,92)" stroke="none" d="M 10378,18492 L 12100,18492 12100,17468 13256,16800 13256,17910 10377,19574 10377,18464 10378,18463 10378,18492 Z M 12086,18478 L 10392,18478 10392,18455 12086,17476 12086,18478 Z"/>
      <path fill="rgb(93,93,93)" stroke="none" d="M 10392,18478 L 12086,18478 12086,17476 13256,16800 13256,17910 10377,19574 10377,18464 10392,18455 10392,18478 Z M 12072,18464 L 10406,18464 10406,18447 12072,17484 12072,18464 Z"/>
      <path fill="rgb(94,94,94)" stroke="none" d="M 10406,18464 L 12072,18464 12072,17484 13256,16800 13256,17910 10377,19574 10377,18464 10406,18447 10406,18464 Z M 12058,18450 L 10420,18450 10420,18439 12058,17492 12058,18450 Z"/>
      <path fill="rgb(95,95,95)" stroke="none" d="M 10420,18450 L 12058,18450 12058,17492 13256,16800 13256,17910 10377,19574 10377,18464 10420,18439 10420,18450 Z M 12044,18436 L 10434,18436 10434,18431 12044,17501 12044,18436 Z"/>
      <path fill="rgb(96,96,96)" stroke="none" d="M 10434,18436 L 12044,18436 12044,17501 13256,16800 13256,17910 10377,19574 10377,18464 10434,18431 10434,18436 Z M 12030,18422 L 10450,18422 12030,17509 12030,18422 Z"/>
      <path fill="rgb(97,97,97)" stroke="none" d="M 12030,18422 L 12030,17509 13256,16800 13256,17910 10377,19574 10377,18464 10450,18422 12030,18422 Z M 12016,18408 L 10474,18408 12016,17517 12016,18408 Z"/>
      <path fill="rgb(98,98,98)" stroke="none" d="M 12016,18408 L 12016,17517 13256,16800 13256,17910 10377,19574 10377,18464 10474,18408 12016,18408 Z M 12001,18393 L 10500,18393 12001,17525 12001,18393 Z"/>
      <path fill="rgb(99,99,99)" stroke="none" d="M 12001,18393 L 12001,17525 13256,16800 13256,17910 10377,19574 10377,18464 10500,18393 12001,18393 Z M 11987,18379 L 10524,18379 11987,17533 11987,18379 Z"/>
      <path fill="rgb(100,100,100)" stroke="none" d="M 11987,18379 L 11987,17533 13256,16800 13256,17910 10377,19574 10377,18464 10524,18379 11987,18379 Z M 11973,18365 L 10548,18365 11973,17542 11973,18365 Z"/>
      <path fill="rgb(101,101,101)" stroke="none" d="M 11973,18365 L 11973,17542 13256,16800 13256,17910 10377,19574 10377,18464 10548,18365 11973,18365 Z M 11959,18351 L 10573,18351 11959,17550 11959,18351 Z"/>
      <path fill="rgb(102,102,102)" stroke="none" d="M 11959,18351 L 11959,17550 13256,16800 13256,17910 10377,19574 10377,18464 10573,18351 11959,18351 Z M 11945,18337 L 10597,18337 11945,17558 11945,18337 Z"/>
      <path fill="rgb(103,103,103)" stroke="none" d="M 11945,18337 L 11945,17558 13256,16800 13256,17910 10377,19574 10377,18464 10597,18337 11945,18337 Z M 11931,18323 L 10621,18323 11931,17566 11931,18323 Z"/>
      <path fill="rgb(104,104,104)" stroke="none" d="M 11931,18323 L 11931,17566 13256,16800 13256,17910 10377,19574 10377,18464 10621,18323 11931,18323 Z M 11917,18309 L 10645,18309 11917,17574 11917,18309 Z"/>
      <path fill="rgb(105,105,105)" stroke="none" d="M 11917,18309 L 11917,17574 13256,16800 13256,17910 10377,19574 10377,18464 10645,18309 11917,18309 Z M 11902,18294 L 10671,18294 11902,17583 11902,18294 Z"/>
      <path fill="rgb(106,106,106)" stroke="none" d="M 11902,18294 L 11902,17583 13256,16800 13256,17910 10377,19574 10377,18464 10671,18294 11902,18294 Z M 11888,18280 L 10695,18280 11888,17591 11888,18280 Z"/>
      <path fill="rgb(107,107,107)" stroke="none" d="M 11888,18280 L 11888,17591 13256,16800 13256,17910 10377,19574 10377,18464 10695,18280 11888,18280 Z M 11874,18266 L 10720,18266 11874,17599 11874,18266 Z"/>
      <path fill="rgb(108,108,108)" stroke="none" d="M 11874,18266 L 11874,17599 13256,16800 13256,17910 10377,19574 10377,18464 10720,18266 11874,18266 Z M 11860,18252 L 10744,18252 11860,17607 11860,18252 Z"/>
      <path fill="rgb(109,109,109)" stroke="none" d="M 11860,18252 L 11860,17607 13256,16800 13256,17910 10377,19574 10377,18464 10744,18252 11860,18252 Z M 11846,18238 L 10768,18238 11846,17615 11846,18238 Z"/>
      <path fill="rgb(110,110,110)" stroke="none" d="M 11846,18238 L 11846,17615 13256,16800 13256,17910 10377,19574 10377,18464 10768,18238 11846,18238 Z M 11832,18224 L 10792,18224 11832,17623 11832,18224 Z"/>
      <path fill="rgb(111,111,111)" stroke="none" d="M 11832,18224 L 11832,17623 13256,16800 13256,17910 10377,19574 10377,18464 10792,18224 11832,18224 Z M 11818,18210 L 10816,18210 11818,17631 11818,18210 Z"/>
      <path fill="rgb(112,112,112)" stroke="none" d="M 11818,18210 L 11818,17631 13256,16800 13256,17910 10377,19574 10377,18464 10816,18210 11818,18210 Z M 11804,18196 L 10841,18196 11804,17639 11804,18196 Z"/>
      <path fill="rgb(113,113,113)" stroke="none" d="M 11804,18196 L 11804,17639 13256,16800 13256,17910 10377,19574 10377,18464 10841,18196 11804,18196 Z M 11789,18181 L 10867,18181 11789,17648 11789,18181 Z"/>
      <path fill="rgb(114,114,114)" stroke="none" d="M 11789,18181 L 11789,17648 13256,16800 13256,17910 10377,19574 10377,18464 10867,18181 11789,18181 Z M 11775,18167 L 10891,18167 11775,17656 11775,18167 Z"/>
      <path fill="rgb(115,115,115)" stroke="none" d="M 11775,18167 L 11775,17656 13256,16800 13256,17910 10377,19574 10377,18464 10891,18167 11775,18167 Z M 11761,18153 L 10915,18153 11761,17664 11761,18153 Z"/>
      <path fill="rgb(116,116,116)" stroke="none" d="M 11761,18153 L 11761,17664 13256,16800 13256,17910 10377,19574 10377,18464 10915,18153 11761,18153 Z M 11747,18139 L 10939,18139 11747,17672 11747,18139 Z"/>
      <path fill="rgb(117,117,117)" stroke="none" d="M 11747,18139 L 11747,17672 13256,16800 13256,17910 10377,19574 10377,18464 10939,18139 11747,18139 Z M 11733,18125 L 10964,18125 11733,17680 11733,18125 Z"/>
      <path fill="rgb(118,118,118)" stroke="none" d="M 11733,18125 L 11733,17680 13256,16800 13256,17910 10377,19574 10377,18464 10964,18125 11733,18125 Z M 11719,18111 L 10988,18111 11719,17688 11719,18111 Z"/>
      <path fill="rgb(119,119,119)" stroke="none" d="M 11719,18111 L 11719,17688 13256,16800 13256,17910 10377,19574 10377,18464 10988,18111 11719,18111 Z M 11705,18097 L 11012,18097 11705,17696 11705,18097 Z"/>
      <path fill="rgb(120,120,120)" stroke="none" d="M 11705,18097 L 11705,17696 13256,16800 13256,17910 10377,19574 10377,18464 11012,18097 11705,18097 Z M 11691,18083 L 11036,18083 11691,17705 11691,18083 Z"/>
      <path fill="rgb(121,121,121)" stroke="none" d="M 11691,18083 L 11691,17705 13256,16800 13256,17910 10377,19574 10377,18464 11036,18083 11691,18083 Z M 11676,18068 L 11062,18068 11676,17713 11676,18068 Z"/>
      <path fill="rgb(122,122,122)" stroke="none" d="M 11676,18068 L 11676,17713 13256,16800 13256,17910 10377,19574 10377,18464 11062,18068 11676,18068 Z M 11662,18054 L 11086,18054 11662,17721 11662,18054 Z"/>
      <path fill="rgb(123,123,123)" stroke="none" d="M 11662,18054 L 11662,17721 13256,16800 13256,17910 10377,19574 10377,18464 11086,18054 11662,18054 Z M 11648,18040 L 11111,18040 11648,17729 11648,18040 Z"/>
      <path fill="rgb(124,124,124)" stroke="none" d="M 11648,18040 L 11648,17729 13256,16800 13256,17910 10377,19574 10377,18464 11111,18040 11648,18040 Z M 11634,18026 L 11135,18026 11634,17737 11634,18026 Z"/>
      <path fill="rgb(125,125,125)" stroke="none" d="M 11634,18026 L 11634,17737 13256,16800 13256,17910 10377,19574 10377,18464 11135,18026 11634,18026 Z M 11620,18012 L 11159,18012 11620,17746 11620,18012 Z"/>
      <path fill="rgb(126,126,126)" stroke="none" d="M 11620,18012 L 11620,17746 13256,16800 13256,17910 10377,19574 10377,18464 11159,18012 11620,18012 Z M 11606,17998 L 11183,17998 11606,17754 11606,17998 Z"/>
      <path fill="rgb(127,127,127)" stroke="none" d="M 11606,17998 L 11606,17754 13256,16800 13256,17910 10377,19574 10377,18464 11183,17998 11606,17998 Z M 11592,17984 L 11207,17984 11592,17762 11592,17984 Z"/>
      <path fill="rgb(128,128,128)" stroke="none" d="M 11592,17984 L 11592,17762 13256,16800 13256,17910 10377,19574 10377,18464 11207,17984 11592,17984 Z M 11578,17970 L 11232,17970 11578,17770 11578,17970 Z"/>
      <path fill="rgb(129,129,129)" stroke="none" d="M 11578,17970 L 11578,17770 13256,16800 13256,17910 10377,19574 10377,18464 11232,17970 11578,17970 Z M 11563,17955 L 11258,17955 11563,17779 11563,17955 Z"/>
      <path fill="rgb(130,130,130)" stroke="none" d="M 11563,17955 L 11563,17779 13256,16800 13256,17910 10377,19574 10377,18464 11258,17955 11563,17955 Z M 11549,17941 L 11282,17941 11549,17787 11549,17941 Z"/>
      <path fill="rgb(131,131,131)" stroke="none" d="M 11549,17941 L 11549,17787 13256,16800 13256,17910 10377,19574 10377,18464 11282,17941 11549,17941 Z M 11535,17927 L 11306,17927 11535,17795 11535,17927 Z"/>
      <path fill="rgb(132,132,132)" stroke="none" d="M 11535,17927 L 11535,17795 13256,16800 13256,17910 10377,19574 10377,18464 11306,17927 11535,17927 Z M 11521,17913 L 11330,17913 11521,17803 11521,17913 Z"/>
      <path fill="rgb(133,133,133)" stroke="none" d="M 11521,17913 L 11521,17803 13256,16800 13256,17910 10377,19574 10377,18464 11330,17913 11521,17913 Z M 11507,17899 L 11355,17899 11507,17811 11507,17899 Z"/>
      <path fill="rgb(134,134,134)" stroke="none" d="M 11507,17899 L 11507,17811 13256,16800 13256,17910 10377,19574 10377,18464 11355,17899 11507,17899 Z M 11493,17885 L 11379,17885 11493,17819 11493,17885 Z"/>
      <path fill="rgb(135,135,135)" stroke="none" d="M 11493,17885 L 11493,17819 13256,16800 13256,17910 10377,19574 10377,18464 11379,17885 11493,17885 Z M 11479,17871 L 11403,17871 11479,17827 11479,17871 Z"/>
      <path fill="rgb(136,136,136)" stroke="none" d="M 11479,17871 L 11479,17827 13256,16800 13256,17910 10377,19574 10377,18464 11403,17871 11479,17871 Z M 11465,17857 L 11427,17857 11465,17835 11465,17857 Z"/>
      <path fill="rgb(137,137,137)" stroke="none" d="M 11465,17857 L 11465,17835 13256,16800 13256,17910 10377,19574 10377,18464 11427,17857 11465,17857 Z"/>
      <path fill="rgb(138,138,138)" stroke="none" d="M 10377,19574 L 10377,18464 13256,16800 13256,17910 10377,19574 Z"/>
      <path fill="rgb(139,139,139)" stroke="none" d="M 10377,19574 L 10377,18464 13256,16800 13256,17910 10377,19574 Z"/>
      <path fill="rgb(140,140,140)" stroke="none" d="M 10377,19574 L 10377,18464 13256,16800 13256,17910 10377,19574 Z"/>
      <path fill="rgb(141,141,141)" stroke="none" d="M 10377,19574 L 10377,18464 13256,16800 13256,17910 10377,19574 Z"/>
      <path fill="rgb(142,142,142)" stroke="none" d="M 10377,19574 L 10377,18464 13256,16800 13256,17910 10377,19574 Z"/>
      <path fill="rgb(143,143,143)" stroke="none" d="M 10377,19574 L 10377,18464 13256,16800 13256,17910 10377,19574 Z"/>
      <path fill="rgb(144,144,144)" stroke="none" d="M 10377,19574 L 10377,18464 13256,16800 13256,17910 10377,19574 Z"/>
      <path fill="rgb(145,145,145)" stroke="none" d="M 10377,19574 L 10377,18464 13256,16800 13256,17910 10377,19574 Z"/>
      <path fill="rgb(146,146,146)" stroke="none" d="M 10377,19574 L 10377,18464 13256,16800 13256,17910 10377,19574 Z"/>
      <path fill="rgb(147,147,147)" stroke="none" d="M 10377,19574 L 10377,18464 13256,16800 13256,17910 10377,19574 Z"/>
      <path fill="rgb(148,148,148)" stroke="none" d="M 10377,19574 L 10377,18464 13256,16800 13256,17910 10377,19574 Z"/>
      <path fill="rgb(149,149,149)" stroke="none" d="M 10377,19574 L 10377,18464 13256,16800 13256,17910 10377,19574 Z"/>
      <path fill="rgb(150,150,150)" stroke="none" d="M 10377,19574 L 10377,18464 13256,16800 13256,17910 10377,19574 Z"/>
      <path fill="rgb(151,151,151)" stroke="none" d="M 10377,19574 L 10377,18464 13256,16800 13256,17910 10377,19574 Z"/>
      <path fill="rgb(153,153,153)" stroke="none" d="M 10377,19574 L 10377,18464 13256,16800 13256,17910 10377,19574 Z"/>
      <path fill="none" stroke="rgb(178,178,178)" id="Drawing_3_0" stroke-width="40" stroke-linejoin="round" d="M 10377,19574 L 10377,18464 13256,16800 13256,17910 10377,19574 Z"/>
     </g>
     <g>
      <defs>
       <linearGradient id="Gradient_895" gradientUnits="userSpaceOnUse" x1="10137" y1="14858" x2="10137" y2="18464">
        <stop offset="0.1" stop-color="rgb(51,51,51)"/>
        <stop offset="1" stop-color="rgb(153,153,153)"/>
       </linearGradient>
      </defs>
      <path fill="url(#Gradient_895)" stroke="rgb(178,178,178)" id="Drawing_4_0" stroke-width="40" stroke-linejoin="round" d="M 10377,18464 L 7018,16522 9897,14858 13257,16800 10377,18464 Z"/>
     </g>
     <g>
      <path fill="none" stroke="rgb(153,153,153)" id="Drawing_5_0" stroke-width="40" stroke-linejoin="round" d="M 8170,17410 L 8170,18076"/>
     </g>
     <g>
      <path fill="none" stroke="rgb(178,178,178)" id="Drawing_6_0" stroke-width="40" stroke-linejoin="round" d="M 10282,18831 L 8746,17943"/>
     </g>
     <g>
      <path fill="none" stroke="rgb(178,178,178)" id="Drawing_7_0" stroke-width="40" stroke-linejoin="round" d="M 8737,17743 L 8737,17965"/>
     </g>
     <g>
      <path fill="none" stroke="rgb(102,102,102)" id="Drawing_8_0" stroke-width="40" stroke-linejoin="round" d="M 10273,18631 L 10273,18853"/>
     </g>
     <g>
      <path fill="none" stroke="rgb(102,102,102)" id="Drawing_9_0" stroke-width="40" stroke-linejoin="round" d="M 10273,18631 L 8737,17743"/>
     </g>
     <g>
      <path fill="rgb(57,181,74)" stroke="none" d="M 8362,17743 L 8362,17521 8554,17632 8554,17854 8362,17743 Z"/>
      <path fill="none" stroke="rgb(102,102,102)" id="Drawing_10_0" stroke-width="40" stroke-linejoin="round" d="M 8362,17743 L 8362,17521 8554,17632 8554,17854 8362,17743 Z"/>
     </g>
     <g>
      <path fill="none" stroke="rgb(153,153,153)" id="Drawing_11_0" stroke-width="40" stroke-linejoin="round" d="M 7978,17299 L 7978,17965"/>
     </g>
     <g>
      <path fill="none" stroke="rgb(153,153,153)" id="Drawing_12_0" stroke-width="40" stroke-linejoin="round" d="M 7786,17188 L 7786,17854"/>
     </g>
     <g>
      <path fill="none" stroke="rgb(153,153,153)" id="Drawing_13_0" stroke-width="40" stroke-linejoin="round" d="M 7594,17077 L 7594,17743"/>
     </g>
     <g>
      <path fill="none" stroke="rgb(153,153,153)" id="Drawing_14_0" stroke-width="40" stroke-linejoin="round" d="M 7402,16966 L 7402,17632"/>
     </g>
     <g>
      <path fill="none" stroke="rgb(153,153,153)" id="Drawing_15_0" stroke-width="40" stroke-linejoin="round" d="M 7210,16855 L 7210,17521"/>
     </g>
     <g>
      <defs>
       <linearGradient id="Gradient_896" gradientUnits="userSpaceOnUse" x1="6825" y1="17021" x2="7019" y2="17021">
        <stop offset="0.1" stop-color="rgb(51,51,51)"/>
        <stop offset="1" stop-color="rgb(153,153,153)"/>
       </linearGradient>
      </defs>
      <path fill="url(#Gradient_896)" stroke="rgb(178,178,178)" id="Drawing_16_0" stroke-width="40" stroke-linejoin="round" d="M 6826,17521 L 6826,16411 7018,16522 7018,17632 6826,17521 Z"/>
     </g>
     <g>
      <defs>
       <linearGradient id="Gradient_897" gradientUnits="userSpaceOnUse" x1="10376" y1="19074" x2="10570" y2="19074">
        <stop offset="0.1" stop-color="rgb(51,51,51)"/>
        <stop offset="1" stop-color="rgb(153,153,153)"/>
       </linearGradient>
      </defs>
      <path fill="url(#Gradient_897)" stroke="rgb(178,178,178)" id="Drawing_17_0" stroke-width="40" stroke-linejoin="round" d="M 10377,19574 L 10377,18464 10569,18575 10569,19685 10377,19574 Z"/>
     </g>
     <g>
      <path fill="none" stroke="rgb(0,0,0)" id="Drawing_18_0" stroke-width="40" stroke-linejoin="round" d="M 6826,17521 L 6826,16411 7018,16522 9897,14858 13257,16800 13257,17909 10569,19463 10569,19685 6826,17521 Z"/>
     </g>
    </g>
   </g>
   <g id="DrawingGroup_4">
    <g>
     <defs>
      <linearGradient id="Gradient_898" gradientUnits="userSpaceOnUse" x1="11844" y1="18280" x2="11844" y2="18925">
       <stop offset="0.1" stop-color="rgb(222,142,150)"/>
       <stop offset="1" stop-color="rgb(248,232,234)"/>
      </linearGradient>
     </defs>
     <path fill="url(#Gradient_898)" stroke="rgb(255,255,255)" id="Drawing_19_0" stroke-width="40" stroke-linejoin="round" d="M 12098,18925 L 12403,18749 11591,18280 11286,18456 12098,18925 Z"/>
    </g>
    <g>
     <defs>
      <linearGradient id="Gradient_899" gradientUnits="userSpaceOnUse" x1="11487" y1="18414" x2="12200" y2="18416">
       <stop offset="0.1" stop-color="rgb(179,179,179)"/>
       <stop offset="1" stop-color="rgb(229,229,229)"/>
      </linearGradient>
     </defs>
     <path fill="url(#Gradient_899)" stroke="none" id="Drawing_20_0" d="M 12200,18763 L 12192,18626 12169,18500 12134,18388 12089,18289 12035,18204 11975,18134 11943,18106 11911,18081 11878,18061 11845,18045 11811,18033 11778,18026 11746,18024 11714,18027 11683,18034 11654,18046 11626,18064 11600,18087 11576,18115 11555,18148 11536,18188 11520,18232 11507,18283 11497,18339 11489,18470 11523,18489 11550,18503 11561,18508 11571,18512 11581,18514 11591,18514 11600,18514 11610,18512 11621,18508 11632,18503 11658,18489 11692,18470 11695,18401 11705,18348 11712,18327 11720,18309 11729,18295 11740,18285 11751,18277 11763,18273 11775,18272 11789,18274 11802,18279 11816,18286 11830,18296 11845,18309 11873,18341 11900,18382 11926,18431 11949,18487 11969,18549 11984,18616 11994,18688 11997,18763 12031,18782 12057,18796 12068,18801 12079,18805 12089,18807 12098,18807 12108,18807 12118,18805 12128,18801 12139,18796 12166,18782 12200,18763 Z"/>
     <path fill="none" stroke="rgb(255,255,255)" id="Drawing_20_1" stroke-width="40" stroke-linejoin="round" d="M 12200,18763 C 12200,18001 11489,17707 11489,18470 11591,18529 11591,18529 11692,18470 11692,18059 11997,18353 11997,18763 12098,18822 12098,18822 12200,18763 Z"/>
    </g>
    <g>
     <path fill="none" stroke="rgb(255,255,255)" id="Drawing_21_0" stroke-width="40" stroke-linejoin="round" d="M 11998,18749 C 11997,18221 11592,17987 11591,18397"/>
    </g>
    <g>
     <defs>
      <linearGradient id="Gradient_900" gradientUnits="userSpaceOnUse" x1="11285" y1="19071" x2="12099" y2="19073">
       <stop offset="0.1" stop-color="rgb(222,142,150)"/>
       <stop offset="1" stop-color="rgb(248,232,234)"/>
      </linearGradient>
     </defs>
     <path fill="url(#Gradient_900)" stroke="rgb(255,255,255)" id="Drawing_22_0" stroke-width="40" stroke-linejoin="round" d="M 12098,19688 L 12098,18925 11286,18456 11286,19219 12098,19688 Z"/>
    </g>
    <g>
     <defs>
      <linearGradient id="Gradient_901" gradientUnits="userSpaceOnUse" x1="11705" y1="18925" x2="11705" y2="19229">
       <stop offset="0.1" stop-color="rgb(0,0,0)"/>
       <stop offset="1" stop-color="rgb(255,255,255)"/>
      </linearGradient>
     </defs>
     <path fill="url(#Gradient_901)" stroke="none" id="Drawing_23_0" d="M 11635,19053 L 11621,19005 11619,18986 11618,18969 11620,18956 11624,18945 11626,18940 11629,18936 11632,18933 11636,18930 11640,18928 11644,18927 11654,18925 11664,18925 11675,18927 11687,18931 11699,18936 11723,18951 11746,18969 11766,18990 11775,19002 11782,19013 11787,19025 11791,19037 11793,19048 11793,19060 11791,19070 11785,19081 11778,19090 11767,19099 11753,19106 11736,19112 11736,19229 11635,19171 11635,19053 Z"/>
     <path fill="none" stroke="rgb(255,255,255)" id="Drawing_23_1" stroke-width="40" stroke-linejoin="round" d="M 11635,19053 C 11533,18760 11939,19053 11736,19112 L 11736,19229 11635,19171 11635,19053 Z"/>
    </g>
    <g>
     <path fill="rgb(222,142,150)" stroke="none" d="M 12098,19489 L 12098,18925 12403,18749 12403,19489 12098,19489 Z"/>
     <path fill="rgb(222,143,151)" stroke="none" d="M 12403,19489 L 12403,19512 12098,19688 12098,19489 12403,19489 Z M 12098,19479 L 12098,18925 12403,18749 12403,19479 12098,19479 Z"/>
     <path fill="rgb(223,145,153)" stroke="none" d="M 12403,19479 L 12403,19512 12098,19688 12098,19479 12403,19479 Z M 12098,19469 L 12098,18925 12403,18749 12403,19469 12098,19469 Z"/>
     <path fill="rgb(223,147,155)" stroke="none" d="M 12403,19469 L 12403,19512 12098,19688 12098,19469 12403,19469 Z M 12098,19459 L 12098,18925 12403,18749 12403,19459 12098,19459 Z"/>
     <path fill="rgb(224,149,157)" stroke="none" d="M 12403,19459 L 12403,19512 12098,19688 12098,19459 12403,19459 Z M 12098,19449 L 12098,18925 12403,18749 12403,19449 12098,19449 Z"/>
     <path fill="rgb(224,151,158)" stroke="none" d="M 12403,19449 L 12403,19512 12098,19688 12098,19449 12403,19449 Z M 12098,19439 L 12098,18925 12403,18749 12403,19439 12098,19439 Z"/>
     <path fill="rgb(225,153,160)" stroke="none" d="M 12403,19439 L 12403,19512 12098,19688 12098,19439 12403,19439 Z M 12098,19429 L 12098,18925 12403,18749 12403,19429 12098,19429 Z"/>
     <path fill="rgb(225,155,162)" stroke="none" d="M 12403,19429 L 12403,19512 12098,19688 12098,19429 12403,19429 Z M 12098,19419 L 12098,18925 12403,18749 12403,19419 12098,19419 Z"/>
     <path fill="rgb(226,157,164)" stroke="none" d="M 12403,19419 L 12403,19512 12098,19688 12098,19419 12403,19419 Z M 12098,19409 L 12098,18925 12403,18749 12403,19409 12098,19409 Z"/>
     <path fill="rgb(226,159,166)" stroke="none" d="M 12403,19409 L 12403,19512 12098,19688 12098,19409 12403,19409 Z M 12098,19399 L 12098,18925 12403,18749 12403,19399 12098,19399 Z"/>
     <path fill="rgb(227,161,167)" stroke="none" d="M 12403,19399 L 12403,19512 12098,19688 12098,19399 12403,19399 Z M 12098,19389 L 12098,18925 12403,18749 12403,19389 12098,19389 Z"/>
     <path fill="rgb(228,163,169)" stroke="none" d="M 12403,19389 L 12403,19512 12098,19688 12098,19389 12403,19389 Z M 12098,19379 L 12098,18925 12403,18749 12403,19379 12098,19379 Z"/>
     <path fill="rgb(228,164,171)" stroke="none" d="M 12403,19379 L 12403,19512 12098,19688 12098,19379 12403,19379 Z M 12098,19369 L 12098,18925 12403,18749 12403,19369 12098,19369 Z"/>
     <path fill="rgb(229,166,173)" stroke="none" d="M 12403,19369 L 12403,19512 12098,19688 12098,19369 12403,19369 Z M 12098,19359 L 12098,18925 12403,18749 12403,19359 12098,19359 Z"/>
     <path fill="rgb(229,168,175)" stroke="none" d="M 12403,19359 L 12403,19512 12098,19688 12098,19359 12403,19359 Z M 12098,19349 L 12098,18925 12403,18749 12403,19349 12098,19349 Z"/>
     <path fill="rgb(230,170,176)" stroke="none" d="M 12403,19349 L 12403,19512 12098,19688 12098,19349 12403,19349 Z M 12098,19339 L 12098,18925 12403,18749 12403,19339 12098,19339 Z"/>
     <path fill="rgb(230,172,178)" stroke="none" d="M 12403,19339 L 12403,19512 12098,19688 12098,19339 12403,19339 Z M 12098,19329 L 12098,18925 12403,18749 12403,19329 12098,19329 Z"/>
     <path fill="rgb(231,174,180)" stroke="none" d="M 12403,19329 L 12403,19512 12098,19688 12098,19329 12403,19329 Z M 12098,19319 L 12098,18925 12403,18749 12403,19319 12098,19319 Z"/>
     <path fill="rgb(231,176,182)" stroke="none" d="M 12403,19319 L 12403,19512 12098,19688 12098,19319 12403,19319 Z M 12098,19309 L 12098,18925 12403,18749 12403,19309 12098,19309 Z"/>
     <path fill="rgb(232,178,183)" stroke="none" d="M 12403,19309 L 12403,19512 12098,19688 12098,19309 12403,19309 Z M 12403,18759 L 12403,19299 12098,19299 12098,18925 12386,18759 12403,18759 Z"/>
     <path fill="rgb(233,180,185)" stroke="none" d="M 12403,19299 L 12403,19512 12098,19688 12098,19299 12403,19299 Z M 12386,18759 L 12403,18749 12403,18759 12386,18759 Z M 12403,18769 L 12403,19289 12098,19289 12098,18925 12368,18769 12403,18769 Z"/>
     <path fill="rgb(233,182,187)" stroke="none" d="M 12403,19289 L 12403,19512 12098,19688 12098,19289 12403,19289 Z M 12368,18769 L 12403,18749 12403,18769 12368,18769 Z M 12403,18779 L 12403,19279 12098,19279 12098,18925 12351,18779 12403,18779 Z"/>
     <path fill="rgb(234,184,189)" stroke="none" d="M 12403,19279 L 12403,19512 12098,19688 12098,19279 12403,19279 Z M 12351,18779 L 12403,18749 12403,18779 12351,18779 Z M 12403,18789 L 12403,19269 12098,19269 12098,18925 12334,18789 12403,18789 Z"/>
     <path fill="rgb(234,186,191)" stroke="none" d="M 12403,19269 L 12403,19512 12098,19688 12098,19269 12403,19269 Z M 12334,18789 L 12403,18749 12403,18789 12334,18789 Z M 12403,18799 L 12403,19259 12098,19259 12098,18925 12316,18799 12403,18799 Z"/>
     <path fill="rgb(235,187,192)" stroke="none" d="M 12403,19259 L 12403,19512 12098,19688 12098,19259 12403,19259 Z M 12316,18799 L 12403,18749 12403,18799 12316,18799 Z M 12403,18809 L 12403,19249 12098,19249 12098,18925 12299,18809 12403,18809 Z"/>
     <path fill="rgb(235,189,194)" stroke="none" d="M 12403,19249 L 12403,19512 12098,19688 12098,19249 12403,19249 Z M 12299,18809 L 12403,18749 12403,18809 12299,18809 Z M 12398,18819 L 12398,19239 12098,19239 12098,18925 12282,18819 12398,18819 Z"/>
     <path fill="rgb(236,191,196)" stroke="none" d="M 12398,19239 L 12398,18819 12282,18819 12403,18749 12403,19512 12098,19688 12098,19239 12398,19239 Z M 12388,18829 L 12388,19229 12098,19229 12098,18925 12264,18829 12388,18829 Z"/>
     <path fill="rgb(236,193,198)" stroke="none" d="M 12388,19229 L 12388,18829 12264,18829 12403,18749 12403,19512 12098,19688 12098,19229 12388,19229 Z M 12378,18839 L 12378,19219 12098,19219 12098,18925 12247,18839 12378,18839 Z"/>
     <path fill="rgb(237,195,200)" stroke="none" d="M 12378,19219 L 12378,18839 12247,18839 12403,18749 12403,19512 12098,19688 12098,19219 12378,19219 Z M 12368,18849 L 12368,19209 12098,19209 12098,18925 12230,18849 12368,18849 Z"/>
     <path fill="rgb(238,197,201)" stroke="none" d="M 12368,19209 L 12368,18849 12230,18849 12403,18749 12403,19512 12098,19688 12098,19209 12368,19209 Z M 12358,18859 L 12358,19199 12098,19199 12098,18925 12212,18859 12358,18859 Z"/>
     <path fill="rgb(238,199,203)" stroke="none" d="M 12358,19199 L 12358,18859 12212,18859 12403,18749 12403,19512 12098,19688 12098,19199 12358,19199 Z M 12348,18869 L 12348,19189 12098,19189 12098,18925 12195,18869 12348,18869 Z"/>
     <path fill="rgb(239,201,205)" stroke="none" d="M 12348,19189 L 12348,18869 12195,18869 12403,18749 12403,19512 12098,19688 12098,19189 12348,19189 Z M 12338,18879 L 12338,19179 12098,19179 12098,18925 12178,18879 12338,18879 Z"/>
     <path fill="rgb(239,203,207)" stroke="none" d="M 12338,19179 L 12338,18879 12178,18879 12403,18749 12403,19512 12098,19688 12098,19179 12338,19179 Z M 12328,18889 L 12328,19169 12098,19169 12098,18925 12160,18889 12328,18889 Z"/>
     <path fill="rgb(240,205,208)" stroke="none" d="M 12328,19169 L 12328,18889 12160,18889 12403,18749 12403,19512 12098,19688 12098,19169 12328,19169 Z M 12318,18899 L 12318,19159 12098,19159 12098,18925 12143,18899 12318,18899 Z"/>
     <path fill="rgb(240,207,210)" stroke="none" d="M 12318,19159 L 12318,18899 12143,18899 12403,18749 12403,19512 12098,19688 12098,19159 12318,19159 Z M 12308,18909 L 12308,19149 12098,19149 12098,18925 12126,18909 12308,18909 Z"/>
     <path fill="rgb(241,209,212)" stroke="none" d="M 12308,19149 L 12308,18909 12126,18909 12403,18749 12403,19512 12098,19688 12098,19149 12308,19149 Z M 12298,18919 L 12298,19139 12098,19139 12098,18925 12108,18919 12298,18919 Z"/>
     <path fill="rgb(241,210,214)" stroke="none" d="M 12298,19139 L 12298,18919 12108,18919 12403,18749 12403,19512 12098,19688 12098,19139 12298,19139 Z M 12288,18929 L 12288,19129 12098,19129 12098,18929 12288,18929 Z"/>
     <path fill="rgb(242,212,216)" stroke="none" d="M 12288,19129 L 12288,18929 12098,18929 12098,18925 12403,18749 12403,19512 12098,19688 12098,19129 12288,19129 Z M 12098,18939 L 12278,18939 12278,19119 12098,19119 12098,18939 Z"/>
     <path fill="rgb(243,214,217)" stroke="none" d="M 12098,18939 L 12098,18925 12403,18749 12403,19512 12098,19688 12098,19119 12278,19119 12278,18939 12098,18939 Z M 12108,18949 L 12268,18949 12268,19109 12108,19109 12108,18949 Z"/>
     <path fill="rgb(243,216,219)" stroke="none" d="M 12108,18949 L 12108,19109 12268,19109 12268,18949 12108,18949 Z M 12118,18959 L 12258,18959 12258,19099 12118,19099 12118,18959 Z M 12098,19688 L 12098,18925 12403,18749 12403,19512 12098,19688 Z"/>
     <path fill="rgb(244,218,221)" stroke="none" d="M 12118,18959 L 12118,19099 12258,19099 12258,18959 12118,18959 Z M 12128,18969 L 12248,18969 12248,19089 12128,19089 12128,18969 Z M 12098,19688 L 12098,18925 12403,18749 12403,19512 12098,19688 Z"/>
     <path fill="rgb(244,220,223)" stroke="none" d="M 12128,18969 L 12128,19089 12248,19089 12248,18969 12128,18969 Z M 12138,18979 L 12238,18979 12238,19079 12138,19079 12138,18979 Z M 12098,19688 L 12098,18925 12403,18749 12403,19512 12098,19688 Z"/>
     <path fill="rgb(245,222,225)" stroke="none" d="M 12138,18979 L 12138,19079 12238,19079 12238,18979 12138,18979 Z M 12148,18989 L 12228,18989 12228,19069 12148,19069 12148,18989 Z M 12098,19688 L 12098,18925 12403,18749 12403,19512 12098,19688 Z"/>
     <path fill="rgb(245,224,226)" stroke="none" d="M 12148,18989 L 12148,19069 12228,19069 12228,18989 12148,18989 Z M 12158,18999 L 12218,18999 12218,19059 12158,19059 12158,18999 Z M 12098,19688 L 12098,18925 12403,18749 12403,19512 12098,19688 Z"/>
     <path fill="rgb(246,226,228)" stroke="none" d="M 12158,18999 L 12158,19059 12218,19059 12218,18999 12158,18999 Z M 12168,19009 L 12208,19009 12208,19049 12168,19049 12168,19009 Z M 12098,19688 L 12098,18925 12403,18749 12403,19512 12098,19688 Z"/>
     <path fill="rgb(246,228,230)" stroke="none" d="M 12168,19009 L 12168,19049 12208,19049 12208,19009 12168,19009 Z M 12178,19019 L 12198,19019 12198,19039 12178,19039 12178,19019 Z M 12098,19688 L 12098,18925 12403,18749 12403,19512 12098,19688 Z"/>
     <path fill="rgb(248,232,234)" stroke="none" d="M 12178,19019 L 12178,19039 12198,19039 12198,19019 12178,19019 Z M 12098,19688 L 12098,18925 12403,18749 12403,19512 12098,19688 Z"/>
     <path fill="none" stroke="rgb(255,255,255)" id="Drawing_24_0" stroke-width="40" stroke-linejoin="round" d="M 12098,19688 L 12098,18925 12403,18749 12403,19512 12098,19688 Z"/>
    </g>
    <g>
     <path fill="none" stroke="rgb(0,0,0)" id="Drawing_25_0" stroke-width="40" stroke-linejoin="round" d="M 11489,18338 C 11591,17693 12200,18104 12200,18632 L 12403,18749 12403,19512 12098,19688 11286,19218 11286,18456 11489,18338 Z"/>
    </g>
    <g>
     <path fill="none" stroke="rgb(128,128,128)" id="Drawing_26_0" stroke-width="40" stroke-linejoin="round" d="M 11716,18347 C 11765,18197 11904,18357 11918,18473 L 11716,18347 Z"/>
    </g>
   </g>
  </g>
 </g>
</svg>