<?xml version="1.0" encoding="UTF-8"?>

<svg version="1.2" baseProfile="tiny" width="69.31mm" height="48.67mm" viewBox="6768 16806 6931 4867" preserveAspectRatio="xMidYMid" fill-rule="evenodd" stroke-width="28.222" stroke-linejoin="round" xmlns="http://www.w3.org/2000/svg" xmlns:xlink="http://www.w3.org/1999/xlink" xml:space="preserve">
 <g visibility="visible" id="Slide_1">
  <g id="DrawingGroup_1">
   <g id="DrawingGroup_2">
    <g>
     <path fill="rgb(221,221,221)" stroke="none" d="M 10532,21653 C 10795,21653 13699,20377 13699,19988 13699,19600 13291,19600 13027,19600 13027,19766 10436,20432 10532,21653 Z"/>
     <path fill="none" stroke="rgb(221,221,221)" id="Drawing_1_0" stroke-linejoin="round" d="M 10532,21653 C 10795,21653 13699,20377 13699,19988 13699,19600 13291,19600 13027,19600 13027,19766 10436,20432 10532,21653 Z"/>
    </g>
    <g id="DrawingGroup_3">
     <g>
      <defs>
       <linearGradient id="Gradient_909" gradientUnits="userSpaceOnUse" x1="6976" y1="20012" x2="10341" y2="20018">
        <stop offset="0.1" stop-color="rgb(51,51,51)"/>
        <stop offset="1" stop-color="rgb(153,153,153)"/>
       </linearGradient>
      </defs>
      <path fill="url(#Gradient_909)" stroke="rgb(178,178,178)" id="Drawing_2_0" stroke-width="40" stroke-linejoin="round" d="M 6980,19600 L 6980,18490 10339,20432 10339,21541 6980,19600 Z"/>
     </g>
     <g>
      <path fill="rgb(51,51,51)" stroke="none" d="M 12627,20220 L 11233,21025 10339,21025 10339,20432 12627,19110 12627,20220 Z"/>
      <path fill="rgb(52,52,52)" stroke="none" d="M 11233,21025 L 10339,21542 10339,21025 11233,21025 Z M 12627,19110 L 13218,18768 13218,19878 12627,20220 12627,19110 Z M 12613,20228 L 11258,21011 10339,21011 10339,20432 12613,19118 12613,20228 Z"/>
      <path fill="rgb(53,53,53)" stroke="none" d="M 11258,21011 L 10339,21542 10339,21011 11258,21011 Z M 12613,19118 L 13218,18768 13218,19878 12613,20228 12613,19118 Z M 12599,20236 L 11282,20997 10339,20997 10339,20432 12599,19126 12599,20236 Z"/>
      <path fill="rgb(54,54,54)" stroke="none" d="M 11282,20997 L 10339,21542 10339,20997 11282,20997 Z M 12599,19126 L 13218,18768 13218,19878 12599,20236 12599,19126 Z M 12585,20244 L 11306,20983 10339,20983 10339,20432 12585,19134 12585,20244 Z"/>
      <path fill="rgb(55,55,55)" stroke="none" d="M 11306,20983 L 10339,21542 10339,20983 11306,20983 Z M 12585,19134 L 13218,18768 13218,19878 12585,20244 12585,19134 Z M 12571,20252 L 11330,20969 10339,20969 10339,20432 12571,19142 12571,20252 Z"/>
      <path fill="rgb(56,56,56)" stroke="none" d="M 11330,20969 L 10339,21542 10339,20969 11330,20969 Z M 12571,19142 L 13218,18768 13218,19878 12571,20252 12571,19142 Z M 12557,20260 L 11355,20955 10339,20955 10339,20432 12557,19150 12557,20260 Z"/>
      <path fill="rgb(57,57,57)" stroke="none" d="M 11355,20955 L 10339,21542 10339,20955 11355,20955 Z M 12557,19150 L 13218,18768 13218,19878 12557,20260 12557,19150 Z M 12543,20268 L 11379,20941 10339,20941 10339,20432 12543,19158 12543,20268 Z"/>
      <path fill="rgb(58,58,58)" stroke="none" d="M 11379,20941 L 10339,21542 10339,20941 11379,20941 Z M 12543,19158 L 13218,18768 13218,19878 12543,20268 12543,19158 Z M 12528,20277 L 11405,20926 10339,20926 10339,20432 12528,19167 12528,20277 Z"/>
      <path fill="rgb(59,59,59)" stroke="none" d="M 11405,20926 L 10339,21542 10339,20926 11405,20926 Z M 12528,19167 L 13218,18768 13218,19878 12528,20277 12528,19167 Z M 12514,20285 L 11429,20912 10339,20912 10339,20432 12514,19175 12514,20285 Z"/>
      <path fill="rgb(60,60,60)" stroke="none" d="M 11429,20912 L 10339,21542 10339,20912 11429,20912 Z M 12514,19175 L 13218,18768 13218,19878 12514,20285 12514,19175 Z M 12500,20293 L 11453,20898 10339,20898 10339,20432 12500,19183 12500,20293 Z"/>
      <path fill="rgb(61,61,61)" stroke="none" d="M 11453,20898 L 10339,21542 10339,20898 11453,20898 Z M 12500,19183 L 13218,18768 13218,19878 12500,20293 12500,19183 Z M 12486,20301 L 11477,20884 10339,20884 10339,20432 12486,19191 12486,20301 Z"/>
      <path fill="rgb(62,62,62)" stroke="none" d="M 11477,20884 L 10339,21542 10339,20884 11477,20884 Z M 12486,19191 L 13218,18768 13218,19878 12486,20301 12486,19191 Z M 12472,20309 L 11502,20870 10339,20870 10339,20432 12472,19199 12472,20309 Z"/>
      <path fill="rgb(63,63,63)" stroke="none" d="M 11502,20870 L 10339,21542 10339,20870 11502,20870 Z M 12472,19199 L 13218,18768 13218,19878 12472,20309 12472,19199 Z M 12458,20317 L 11526,20856 10339,20856 10339,20432 12458,19207 12458,20317 Z"/>
      <path fill="rgb(64,64,64)" stroke="none" d="M 11526,20856 L 10339,21542 10339,20856 11526,20856 Z M 12458,19207 L 13218,18768 13218,19878 12458,20317 12458,19207 Z M 12444,20325 L 11550,20842 10339,20842 10339,20432 12444,19215 12444,20325 Z"/>
      <path fill="rgb(65,65,65)" stroke="none" d="M 11550,20842 L 10339,21542 10339,20842 11550,20842 Z M 12444,19215 L 13218,18768 13218,19878 12444,20325 12444,19215 Z M 12430,20333 L 11574,20828 10339,20828 10339,20432 12430,19223 12430,20333 Z"/>
      <path fill="rgb(66,66,66)" stroke="none" d="M 11574,20828 L 10339,21542 10339,20828 11574,20828 Z M 12430,19223 L 13218,18768 13218,19878 12430,20333 12430,19223 Z M 12415,20342 L 11600,20813 10339,20813 10339,20432 12415,19232 12415,20342 Z"/>
      <path fill="rgb(67,67,67)" stroke="none" d="M 11600,20813 L 10339,21542 10339,20813 11600,20813 Z M 12415,19232 L 13218,18768 13218,19878 12415,20342 12415,19232 Z M 12401,20350 L 11625,20799 10339,20799 10339,20432 12401,19240 12401,20350 Z"/>
      <path fill="rgb(68,68,68)" stroke="none" d="M 11625,20799 L 10339,21542 10339,20799 11625,20799 Z M 12401,19240 L 13218,18768 13218,19878 12401,20350 12401,19240 Z M 12387,20358 L 11649,20785 10339,20785 10339,20432 12387,19248 12387,20358 Z"/>
      <path fill="rgb(69,69,69)" stroke="none" d="M 11649,20785 L 10339,21542 10339,20785 11649,20785 Z M 12387,19248 L 13218,18768 13218,19878 12387,20358 12387,19248 Z M 12373,20366 L 11673,20771 10339,20771 10339,20432 12373,19256 12373,20366 Z"/>
      <path fill="rgb(70,70,70)" stroke="none" d="M 11673,20771 L 10339,21542 10339,20771 11673,20771 Z M 12373,19256 L 13218,18768 13218,19878 12373,20366 12373,19256 Z M 12359,20374 L 11697,20757 10339,20757 10339,20432 12359,19264 12359,20374 Z"/>
      <path fill="rgb(71,71,71)" stroke="none" d="M 11697,20757 L 10339,21542 10339,20757 11697,20757 Z M 12359,19264 L 13218,18768 13218,19878 12359,20374 12359,19264 Z M 12345,20383 L 11721,20743 10339,20743 10339,20432 12345,19273 12345,20383 Z"/>
      <path fill="rgb(72,72,72)" stroke="none" d="M 11721,20743 L 10339,21542 10339,20743 11721,20743 Z M 12345,19273 L 13218,18768 13218,19878 12345,20383 12345,19273 Z M 12331,20391 L 11746,20729 10339,20729 10339,20432 12331,19281 12331,20391 Z"/>
      <path fill="rgb(73,73,73)" stroke="none" d="M 11746,20729 L 10339,21542 10339,20729 11746,20729 Z M 12331,19281 L 13218,18768 13218,19878 12331,20391 12331,19281 Z M 12317,20399 L 11770,20715 10339,20715 10339,20432 12317,19289 12317,20399 Z"/>
      <path fill="rgb(74,74,74)" stroke="none" d="M 11770,20715 L 10339,21542 10339,20715 11770,20715 Z M 12317,19289 L 13218,18768 13218,19878 12317,20399 12317,19289 Z M 12302,20407 L 11796,20700 10339,20700 10339,20432 12302,19297 12302,20407 Z"/>
      <path fill="rgb(75,75,75)" stroke="none" d="M 11796,20700 L 10339,21542 10339,20700 11796,20700 Z M 12302,19297 L 13218,18768 13218,19878 12302,20407 12302,19297 Z M 12288,20416 L 11820,20686 10339,20686 10339,20432 12288,19306 12288,20416 Z"/>
      <path fill="rgb(76,76,76)" stroke="none" d="M 11820,20686 L 10339,21542 10339,20686 11820,20686 Z M 12288,19306 L 13218,18768 13218,19878 12288,20416 12288,19306 Z M 12274,20424 L 11844,20672 10339,20672 10339,20432 12274,19314 12274,20424 Z"/>
      <path fill="rgb(77,77,77)" stroke="none" d="M 11844,20672 L 10339,21542 10339,20672 11844,20672 Z M 12274,19314 L 13218,18768 13218,19878 12274,20424 12274,19314 Z M 12260,20432 L 11868,20658 10339,20658 10339,20432 12260,19322 12260,20432 Z"/>
      <path fill="rgb(78,78,78)" stroke="none" d="M 11868,20658 L 10339,21542 10339,20658 11868,20658 Z M 12260,19322 L 13218,18768 13218,19878 12260,20432 12260,19322 Z M 12246,20440 L 11893,20644 10339,20644 10339,20432 12246,19330 12246,20440 Z"/>
      <path fill="rgb(79,79,79)" stroke="none" d="M 11893,20644 L 10339,21542 10339,20644 11893,20644 Z M 12246,19330 L 13218,18768 13218,19878 12246,20440 12246,19330 Z M 12232,20448 L 11917,20630 10339,20630 10339,20432 12232,19338 12232,20448 Z"/>
      <path fill="rgb(80,80,80)" stroke="none" d="M 11917,20630 L 10339,21542 10339,20630 11917,20630 Z M 12232,19338 L 13218,18768 13218,19878 12232,20448 12232,19338 Z M 12218,20456 L 11941,20616 10339,20616 10339,20432 12218,19346 12218,20456 Z"/>
      <path fill="rgb(81,81,81)" stroke="none" d="M 11941,20616 L 10339,21542 10339,20616 11941,20616 Z M 12218,19346 L 13218,18768 13218,19878 12218,20456 12218,19346 Z M 12204,20464 L 11965,20602 10339,20602 10339,20432 12204,19354 12204,20464 Z"/>
      <path fill="rgb(82,82,82)" stroke="none" d="M 11965,20602 L 10339,21542 10339,20602 11965,20602 Z M 12204,19354 L 13218,18768 13218,19878 12204,20464 12204,19354 Z M 12189,20473 L 11991,20587 10339,20587 10339,20432 12189,19363 12189,20473 Z"/>
      <path fill="rgb(83,83,83)" stroke="none" d="M 11991,20587 L 10339,21542 10339,20587 11991,20587 Z M 12189,19363 L 13218,18768 13218,19878 12189,20473 12189,19363 Z M 12175,20481 L 12016,20573 10339,20573 10339,20432 12175,19371 12175,20481 Z"/>
      <path fill="rgb(84,84,84)" stroke="none" d="M 12016,20573 L 10339,21542 10339,20573 12016,20573 Z M 12175,19371 L 13218,18768 13218,19878 12175,20481 12175,19371 Z M 12161,20489 L 12040,20559 10339,20559 10339,20432 12161,19379 12161,20489 Z"/>
      <path fill="rgb(85,85,85)" stroke="none" d="M 12040,20559 L 10339,21542 10339,20559 12040,20559 Z M 12161,19379 L 13218,18768 13218,19878 12161,20489 12161,19379 Z M 12147,20497 L 12064,20545 10339,20545 10339,20432 12147,19387 12147,20497 Z"/>
      <path fill="rgb(86,86,86)" stroke="none" d="M 12064,20545 L 10339,21542 10339,20545 12064,20545 Z M 12147,19387 L 13218,18768 13218,19878 12147,20497 12147,19387 Z M 12133,20505 L 12088,20531 10339,20531 10339,20432 12133,19395 12133,20505 Z"/>
      <path fill="rgb(87,87,87)" stroke="none" d="M 12088,20531 L 10339,21542 10339,20531 12088,20531 Z M 12133,19395 L 13218,18768 13218,19878 12133,20505 12133,19395 Z M 12119,20513 L 12112,20517 10339,20517 10339,20432 12119,19403 12119,20513 Z"/>
      <path fill="rgb(88,88,88)" stroke="none" d="M 12112,20517 L 10339,21542 10339,20517 12112,20517 Z M 12119,19403 L 13218,18768 13218,19878 12119,20513 12119,19403 Z M 12105,20503 L 10339,20503 10339,20432 12105,19411 12105,20503 Z"/>
      <path fill="rgb(89,89,89)" stroke="none" d="M 12105,20503 L 12105,19411 13218,18768 13218,19878 10339,21542 10339,20503 12105,20503 Z M 12091,20489 L 10339,20489 10339,20432 12091,19419 12091,20489 Z"/>
      <path fill="rgb(90,90,90)" stroke="none" d="M 12091,20489 L 12091,19419 13218,18768 13218,19878 10339,21542 10339,20489 12091,20489 Z M 12076,20474 L 10339,20474 10339,20432 12076,19428 12076,20474 Z"/>
      <path fill="rgb(91,91,91)" stroke="none" d="M 12076,20474 L 12076,19428 13218,18768 13218,19878 10339,21542 10339,20474 12076,20474 Z M 12062,20460 L 10340,20460 10340,20431 12062,19436 12062,20460 Z"/>
      <path fill="rgb(92,92,92)" stroke="none" d="M 10340,20460 L 12062,20460 12062,19436 13218,18768 13218,19878 10339,21542 10339,20432 10340,20431 10340,20460 Z M 12048,20446 L 10354,20446 10354,20423 12048,19444 12048,20446 Z"/>
      <path fill="rgb(93,93,93)" stroke="none" d="M 10354,20446 L 12048,20446 12048,19444 13218,18768 13218,19878 10339,21542 10339,20432 10354,20423 10354,20446 Z M 12034,20432 L 10368,20432 10368,20415 12034,19452 12034,20432 Z"/>
      <path fill="rgb(94,94,94)" stroke="none" d="M 10368,20432 L 12034,20432 12034,19452 13218,18768 13218,19878 10339,21542 10339,20432 10368,20415 10368,20432 Z M 12020,20418 L 10382,20418 10382,20407 12020,19460 12020,20418 Z"/>
      <path fill="rgb(95,95,95)" stroke="none" d="M 10382,20418 L 12020,20418 12020,19460 13218,18768 13218,19878 10339,21542 10339,20432 10382,20407 10382,20418 Z M 12006,20404 L 10396,20404 10396,20399 12006,19469 12006,20404 Z"/>
      <path fill="rgb(96,96,96)" stroke="none" d="M 10396,20404 L 12006,20404 12006,19469 13218,18768 13218,19878 10339,21542 10339,20432 10396,20399 10396,20404 Z M 11992,20390 L 10412,20390 11992,19477 11992,20390 Z"/>
      <path fill="rgb(97,97,97)" stroke="none" d="M 11992,20390 L 11992,19477 13218,18768 13218,19878 10339,21542 10339,20432 10412,20390 11992,20390 Z M 11978,20376 L 10436,20376 11978,19485 11978,20376 Z"/>
      <path fill="rgb(98,98,98)" stroke="none" d="M 11978,20376 L 11978,19485 13218,18768 13218,19878 10339,21542 10339,20432 10436,20376 11978,20376 Z M 11963,20361 L 10462,20361 11963,19493 11963,20361 Z"/>
      <path fill="rgb(99,99,99)" stroke="none" d="M 11963,20361 L 11963,19493 13218,18768 13218,19878 10339,21542 10339,20432 10462,20361 11963,20361 Z M 11949,20347 L 10486,20347 11949,19501 11949,20347 Z"/>
      <path fill="rgb(100,100,100)" stroke="none" d="M 11949,20347 L 11949,19501 13218,18768 13218,19878 10339,21542 10339,20432 10486,20347 11949,20347 Z M 11935,20333 L 10510,20333 11935,19510 11935,20333 Z"/>
      <path fill="rgb(101,101,101)" stroke="none" d="M 11935,20333 L 11935,19510 13218,18768 13218,19878 10339,21542 10339,20432 10510,20333 11935,20333 Z M 11921,20319 L 10535,20319 11921,19518 11921,20319 Z"/>
      <path fill="rgb(102,102,102)" stroke="none" d="M 11921,20319 L 11921,19518 13218,18768 13218,19878 10339,21542 10339,20432 10535,20319 11921,20319 Z M 11907,20305 L 10559,20305 11907,19526 11907,20305 Z"/>
      <path fill="rgb(103,103,103)" stroke="none" d="M 11907,20305 L 11907,19526 13218,18768 13218,19878 10339,21542 10339,20432 10559,20305 11907,20305 Z M 11893,20291 L 10583,20291 11893,19534 11893,20291 Z"/>
      <path fill="rgb(104,104,104)" stroke="none" d="M 11893,20291 L 11893,19534 13218,18768 13218,19878 10339,21542 10339,20432 10583,20291 11893,20291 Z M 11879,20277 L 10607,20277 11879,19542 11879,20277 Z"/>
      <path fill="rgb(105,105,105)" stroke="none" d="M 11879,20277 L 11879,19542 13218,18768 13218,19878 10339,21542 10339,20432 10607,20277 11879,20277 Z M 11864,20262 L 10633,20262 11864,19551 11864,20262 Z"/>
      <path fill="rgb(106,106,106)" stroke="none" d="M 11864,20262 L 11864,19551 13218,18768 13218,19878 10339,21542 10339,20432 10633,20262 11864,20262 Z M 11850,20248 L 10657,20248 11850,19559 11850,20248 Z"/>
      <path fill="rgb(107,107,107)" stroke="none" d="M 11850,20248 L 11850,19559 13218,18768 13218,19878 10339,21542 10339,20432 10657,20248 11850,20248 Z M 11836,20234 L 10682,20234 11836,19567 11836,20234 Z"/>
      <path fill="rgb(108,108,108)" stroke="none" d="M 11836,20234 L 11836,19567 13218,18768 13218,19878 10339,21542 10339,20432 10682,20234 11836,20234 Z M 11822,20220 L 10706,20220 11822,19575 11822,20220 Z"/>
      <path fill="rgb(109,109,109)" stroke="none" d="M 11822,20220 L 11822,19575 13218,18768 13218,19878 10339,21542 10339,20432 10706,20220 11822,20220 Z M 11808,20206 L 10730,20206 11808,19583 11808,20206 Z"/>
      <path fill="rgb(110,110,110)" stroke="none" d="M 11808,20206 L 11808,19583 13218,18768 13218,19878 10339,21542 10339,20432 10730,20206 11808,20206 Z M 11794,20192 L 10754,20192 11794,19591 11794,20192 Z"/>
      <path fill="rgb(111,111,111)" stroke="none" d="M 11794,20192 L 11794,19591 13218,18768 13218,19878 10339,21542 10339,20432 10754,20192 11794,20192 Z M 11780,20178 L 10778,20178 11780,19599 11780,20178 Z"/>
      <path fill="rgb(112,112,112)" stroke="none" d="M 11780,20178 L 11780,19599 13218,18768 13218,19878 10339,21542 10339,20432 10778,20178 11780,20178 Z M 11766,20164 L 10803,20164 11766,19607 11766,20164 Z"/>
      <path fill="rgb(113,113,113)" stroke="none" d="M 11766,20164 L 11766,19607 13218,18768 13218,19878 10339,21542 10339,20432 10803,20164 11766,20164 Z M 11751,20149 L 10829,20149 11751,19616 11751,20149 Z"/>
      <path fill="rgb(114,114,114)" stroke="none" d="M 11751,20149 L 11751,19616 13218,18768 13218,19878 10339,21542 10339,20432 10829,20149 11751,20149 Z M 11737,20135 L 10853,20135 11737,19624 11737,20135 Z"/>
      <path fill="rgb(115,115,115)" stroke="none" d="M 11737,20135 L 11737,19624 13218,18768 13218,19878 10339,21542 10339,20432 10853,20135 11737,20135 Z M 11723,20121 L 10877,20121 11723,19632 11723,20121 Z"/>
      <path fill="rgb(116,116,116)" stroke="none" d="M 11723,20121 L 11723,19632 13218,18768 13218,19878 10339,21542 10339,20432 10877,20121 11723,20121 Z M 11709,20107 L 10901,20107 11709,19640 11709,20107 Z"/>
      <path fill="rgb(117,117,117)" stroke="none" d="M 11709,20107 L 11709,19640 13218,18768 13218,19878 10339,21542 10339,20432 10901,20107 11709,20107 Z M 11695,20093 L 10926,20093 11695,19648 11695,20093 Z"/>
      <path fill="rgb(118,118,118)" stroke="none" d="M 11695,20093 L 11695,19648 13218,18768 13218,19878 10339,21542 10339,20432 10926,20093 11695,20093 Z M 11681,20079 L 10950,20079 11681,19656 11681,20079 Z"/>
      <path fill="rgb(119,119,119)" stroke="none" d="M 11681,20079 L 11681,19656 13218,18768 13218,19878 10339,21542 10339,20432 10950,20079 11681,20079 Z M 11667,20065 L 10974,20065 11667,19664 11667,20065 Z"/>
      <path fill="rgb(120,120,120)" stroke="none" d="M 11667,20065 L 11667,19664 13218,18768 13218,19878 10339,21542 10339,20432 10974,20065 11667,20065 Z M 11653,20051 L 10998,20051 11653,19673 11653,20051 Z"/>
      <path fill="rgb(121,121,121)" stroke="none" d="M 11653,20051 L 11653,19673 13218,18768 13218,19878 10339,21542 10339,20432 10998,20051 11653,20051 Z M 11638,20036 L 11024,20036 11638,19681 11638,20036 Z"/>
      <path fill="rgb(122,122,122)" stroke="none" d="M 11638,20036 L 11638,19681 13218,18768 13218,19878 10339,21542 10339,20432 11024,20036 11638,20036 Z M 11624,20022 L 11048,20022 11624,19689 11624,20022 Z"/>
      <path fill="rgb(123,123,123)" stroke="none" d="M 11624,20022 L 11624,19689 13218,18768 13218,19878 10339,21542 10339,20432 11048,20022 11624,20022 Z M 11610,20008 L 11073,20008 11610,19697 11610,20008 Z"/>
      <path fill="rgb(124,124,124)" stroke="none" d="M 11610,20008 L 11610,19697 13218,18768 13218,19878 10339,21542 10339,20432 11073,20008 11610,20008 Z M 11596,19994 L 11097,19994 11596,19705 11596,19994 Z"/>
      <path fill="rgb(125,125,125)" stroke="none" d="M 11596,19994 L 11596,19705 13218,18768 13218,19878 10339,21542 10339,20432 11097,19994 11596,19994 Z M 11582,19980 L 11121,19980 11582,19714 11582,19980 Z"/>
      <path fill="rgb(126,126,126)" stroke="none" d="M 11582,19980 L 11582,19714 13218,18768 13218,19878 10339,21542 10339,20432 11121,19980 11582,19980 Z M 11568,19966 L 11145,19966 11568,19722 11568,19966 Z"/>
      <path fill="rgb(127,127,127)" stroke="none" d="M 11568,19966 L 11568,19722 13218,18768 13218,19878 10339,21542 10339,20432 11145,19966 11568,19966 Z M 11554,19952 L 11169,19952 11554,19730 11554,19952 Z"/>
      <path fill="rgb(128,128,128)" stroke="none" d="M 11554,19952 L 11554,19730 13218,18768 13218,19878 10339,21542 10339,20432 11169,19952 11554,19952 Z M 11540,19938 L 11194,19938 11540,19738 11540,19938 Z"/>
      <path fill="rgb(129,129,129)" stroke="none" d="M 11540,19938 L 11540,19738 13218,18768 13218,19878 10339,21542 10339,20432 11194,19938 11540,19938 Z M 11525,19923 L 11220,19923 11525,19747 11525,19923 Z"/>
      <path fill="rgb(130,130,130)" stroke="none" d="M 11525,19923 L 11525,19747 13218,18768 13218,19878 10339,21542 10339,20432 11220,19923 11525,19923 Z M 11511,19909 L 11244,19909 11511,19755 11511,19909 Z"/>
      <path fill="rgb(131,131,131)" stroke="none" d="M 11511,19909 L 11511,19755 13218,18768 13218,19878 10339,21542 10339,20432 11244,19909 11511,19909 Z M 11497,19895 L 11268,19895 11497,19763 11497,19895 Z"/>
      <path fill="rgb(132,132,132)" stroke="none" d="M 11497,19895 L 11497,19763 13218,18768 13218,19878 10339,21542 10339,20432 11268,19895 11497,19895 Z M 11483,19881 L 11292,19881 11483,19771 11483,19881 Z"/>
      <path fill="rgb(133,133,133)" stroke="none" d="M 11483,19881 L 11483,19771 13218,18768 13218,19878 10339,21542 10339,20432 11292,19881 11483,19881 Z M 11469,19867 L 11317,19867 11469,19779 11469,19867 Z"/>
      <path fill="rgb(134,134,134)" stroke="none" d="M 11469,19867 L 11469,19779 13218,18768 13218,19878 10339,21542 10339,20432 11317,19867 11469,19867 Z M 11455,19853 L 11341,19853 11455,19787 11455,19853 Z"/>
      <path fill="rgb(135,135,135)" stroke="none" d="M 11455,19853 L 11455,19787 13218,18768 13218,19878 10339,21542 10339,20432 11341,19853 11455,19853 Z M 11441,19839 L 11365,19839 11441,19795 11441,19839 Z"/>
      <path fill="rgb(136,136,136)" stroke="none" d="M 11441,19839 L 11441,19795 13218,18768 13218,19878 10339,21542 10339,20432 11365,19839 11441,19839 Z M 11427,19825 L 11389,19825 11427,19803 11427,19825 Z"/>
      <path fill="rgb(137,137,137)" stroke="none" d="M 11427,19825 L 11427,19803 13218,18768 13218,19878 10339,21542 10339,20432 11389,19825 11427,19825 Z"/>
      <path fill="rgb(138,138,138)" stroke="none" d="M 10339,21542 L 10339,20432 13218,18768 13218,19878 10339,21542 Z"/>
      <path fill="rgb(139,139,139)" stroke="none" d="M 10339,21542 L 10339,20432 13218,18768 13218,19878 10339,21542 Z"/>
      <path fill="rgb(140,140,140)" stroke="none" d="M 10339,21542 L 10339,20432 13218,18768 13218,19878 10339,21542 Z"/>
      <path fill="rgb(141,141,141)" stroke="none" d="M 10339,21542 L 10339,20432 13218,18768 13218,19878 10339,21542 Z"/>
      <path fill="rgb(142,142,142)" stroke="none" d="M 10339,21542 L 10339,20432 13218,18768 13218,19878 10339,21542 Z"/>
      <path fill="rgb(143,143,143)" stroke="none" d="M 10339,21542 L 10339,20432 13218,18768 13218,19878 10339,21542 Z"/>
      <path fill="rgb(144,144,144)" stroke="none" d="M 10339,21542 L 10339,20432 13218,18768 13218,19878 10339,21542 Z"/>
      <path fill="rgb(145,145,145)" stroke="none" d="M 10339,21542 L 10339,20432 13218,18768 13218,19878 10339,21542 Z"/>
      <path fill="rgb(146,146,146)" stroke="none" d="M 10339,21542 L 10339,20432 13218,18768 13218,19878 10339,21542 Z"/>
      <path fill="rgb(147,147,147)" stroke="none" d="M 10339,21542 L 10339,20432 13218,18768 13218,19878 10339,21542 Z"/>
      <path fill="rgb(148,148,148)" stroke="none" d="M 10339,21542 L 10339,20432 13218,18768 13218,19878 10339,21542 Z"/>
      <path fill="rgb(149,149,149)" stroke="none" d="M 10339,21542 L 10339,20432 13218,18768 13218,19878 10339,21542 Z"/>
      <path fill="rgb(150,150,150)" stroke="none" d="M 10339,21542 L 10339,20432 13218,18768 13218,19878 10339,21542 Z"/>
      <path fill="rgb(151,151,151)" stroke="none" d="M 10339,21542 L 10339,20432 13218,18768 13218,19878 10339,21542 Z"/>
      <path fill="rgb(153,153,153)" stroke="none" d="M 10339,21542 L 10339,20432 13218,18768 13218,19878 10339,21542 Z"/>
      <path fill="none" stroke="rgb(178,178,178)" id="Drawing_3_0" stroke-width="40" stroke-linejoin="round" d="M 10339,21542 L 10339,20432 13218,18768 13218,19878 10339,21542 Z"/>
     </g>
     <g>
      <defs>
       <linearGradient id="Gradient_910" gradientUnits="userSpaceOnUse" x1="10099" y1="16826" x2="10099" y2="20432">
        <stop offset="0.1" stop-color="rgb(51,51,51)"/>
        <stop offset="1" stop-color="rgb(153,153,153)"/>
       </linearGradient>
      </defs>
      <path fill="url(#Gradient_910)" stroke="rgb(178,178,178)" id="Drawing_4_0" stroke-width="40" stroke-linejoin="round" d="M 10339,20432 L 6980,18490 9859,16826 13219,18768 10339,20432 Z"/>
     </g>
     <g>
      <path fill="none" stroke="rgb(153,153,153)" id="Drawing_5_0" stroke-width="40" stroke-linejoin="round" d="M 8132,19378 L 8132,20044"/>
     </g>
     <g>
      <path fill="none" stroke="rgb(178,178,178)" id="Drawing_6_0" stroke-width="40" stroke-linejoin="round" d="M 10244,20799 L 8708,19911"/>
     </g>
     <g>
      <path fill="none" stroke="rgb(178,178,178)" id="Drawing_7_0" stroke-width="40" stroke-linejoin="round" d="M 8699,19711 L 8699,19933"/>
     </g>
     <g>
      <path fill="none" stroke="rgb(102,102,102)" id="Drawing_8_0" stroke-width="40" stroke-linejoin="round" d="M 10235,20599 L 10235,20821"/>
     </g>
     <g>
      <path fill="none" stroke="rgb(102,102,102)" id="Drawing_9_0" stroke-width="40" stroke-linejoin="round" d="M 10235,20599 L 8699,19711"/>
     </g>
     <g>
      <path fill="rgb(57,181,74)" stroke="none" d="M 8324,19711 L 8324,19489 8516,19600 8516,19822 8324,19711 Z"/>
      <path fill="none" stroke="rgb(102,102,102)" id="Drawing_10_0" stroke-width="40" stroke-linejoin="round" d="M 8324,19711 L 8324,19489 8516,19600 8516,19822 8324,19711 Z"/>
     </g>
     <g>
      <path fill="none" stroke="rgb(153,153,153)" id="Drawing_11_0" stroke-width="40" stroke-linejoin="round" d="M 7940,19267 L 7940,19933"/>
     </g>
     <g>
      <path fill="none" stroke="rgb(153,153,153)" id="Drawing_12_0" stroke-width="40" stroke-linejoin="round" d="M 7748,19156 L 7748,19822"/>
     </g>
     <g>
      <path fill="none" stroke="rgb(153,153,153)" id="Drawing_13_0" stroke-width="40" stroke-linejoin="round" d="M 7556,19045 L 7556,19711"/>
     </g>
     <g>
      <path fill="none" stroke="rgb(153,153,153)" id="Drawing_14_0" stroke-width="40" stroke-linejoin="round" d="M 7364,18934 L 7364,19600"/>
     </g>
     <g>
      <path fill="none" stroke="rgb(153,153,153)" id="Drawing_15_0" stroke-width="40" stroke-linejoin="round" d="M 7172,18823 L 7172,19489"/>
     </g>
     <g>
      <defs>
       <linearGradient id="Gradient_911" gradientUnits="userSpaceOnUse" x1="6787" y1="18989" x2="6981" y2="18989">
        <stop offset="0.1" stop-color="rgb(51,51,51)"/>
        <stop offset="1" stop-color="rgb(153,153,153)"/>
       </linearGradient>
      </defs>
      <path fill="url(#Gradient_911)" stroke="rgb(178,178,178)" id="Drawing_16_0" stroke-width="40" stroke-linejoin="round" d="M 6788,19489 L 6788,18379 6980,18490 6980,19600 6788,19489 Z"/>
     </g>
     <g>
      <defs>
       <linearGradient id="Gradient_912" gradientUnits="userSpaceOnUse" x1="10338" y1="21042" x2="10532" y2="21042">
        <stop offset="0.1" stop-color="rgb(51,51,51)"/>
        <stop offset="1" stop-color="rgb(153,153,153)"/>
       </linearGradient>
      </defs>
      <path fill="url(#Gradient_912)" stroke="rgb(178,178,178)" id="Drawing_17_0" stroke-width="40" stroke-linejoin="round" d="M 10339,21542 L 10339,20432 10531,20543 10531,21653 10339,21542 Z"/>
     </g>
     <g>
      <path fill="none" stroke="rgb(0,0,0)" id="Drawing_18_0" stroke-width="40" stroke-linejoin="round" d="M 6788,19489 L 6788,18379 6980,18490 9859,16826 13219,18768 13219,19877 10531,21431 10531,21653 6788,19489 Z"/>
     </g>
    </g>
   </g>
   <g id="DrawingGroup_4">
    <g>
     <defs>
      <linearGradient id="Gradient_913" gradientUnits="userSpaceOnUse" x1="11393" y1="20685" x2="12328" y2="20687">
       <stop offset="0" stop-color="rgb(195,232,200)"/>
       <stop offset="0.5" stop-color="rgb(235,247,236)"/>
       <stop offset="1" stop-color="rgb(195,232,200)"/>
      </linearGradient>
     </defs>
     <path fill="url(#Gradient_913)" stroke="none" id="Drawing_19_0" d="M 11395,20213 L 11396,20203 11398,20193 11401,20182 11405,20172 11411,20162 11418,20152 11435,20133 11456,20114 11481,20096 11509,20079 11541,20064 11575,20049 11611,20036 11650,20024 11690,20015 11731,20007 11774,20001 11817,19997 11861,19996 11905,19997 11948,20001 11991,20007 12032,20015 12073,20024 12111,20036 12148,20049 12182,20064 12213,20079 12242,20096 12267,20114 12288,20133 12305,20152 12312,20162 12317,20172 12322,20182 12325,20193 12327,20203 12328,20213 12328,21159 12327,21169 12325,21179 12322,21190 12317,21200 12312,21210 12305,21220 12288,21239 12267,21258 12242,21276 12213,21293 12182,21309 12148,21324 12111,21337 12073,21348 12032,21358 11991,21366 11948,21372 11905,21376 11861,21377 11817,21376 11774,21372 11731,21366 11690,21358 11650,21348 11611,21337 11575,21324 11541,21309 11509,21293 11481,21276 11456,21258 11435,21239 11418,21220 11411,21210 11405,21200 11401,21190 11398,21179 11396,21169 11395,21159 11395,20213 Z"/>
     <path fill="none" stroke="rgb(0,0,0)" id="Drawing_19_1" stroke-width="40" stroke-linejoin="round" d="M 11395,20213 C 11395,20104 11628,19996 11861,19996 12094,19996 12328,20104 12328,20213 L 12328,21159 C 12328,21268 12094,21377 11861,21377 11628,21377 11395,21268 11395,21159 L 11395,20213 Z"/>
     <rect fill="none" stroke="none" x="11395" y="20213" width="934" height="218"/>
     <defs>
      <linearGradient id="Gradient_914" gradientUnits="userSpaceOnUse" x1="11394" y1="20320" x2="12327" y2="20322">
       <stop offset="0" stop-color="rgb(195,232,200)"/>
       <stop offset="0.5" stop-color="rgb(235,247,236)"/>
       <stop offset="1" stop-color="rgb(195,232,200)"/>
      </linearGradient>
     </defs>
     <path fill="url(#Gradient_914)" stroke="none" id="Drawing_19_2" d="M 11395,20213 L 11396,20223 11398,20233 11401,20243 11405,20253 11411,20263 11418,20273 11435,20292 11456,20311 11481,20329 11509,20346 11541,20362 11575,20377 11611,20390 11650,20401 11690,20411 11731,20419 11774,20425 11817,20429 11861,20430 11905,20429 11948,20425 11991,20419 12032,20411 12073,20401 12111,20390 12148,20377 12182,20362 12213,20346 12242,20329 12267,20311 12288,20292 12305,20273 12312,20263 12317,20253 12322,20243 12325,20233 12327,20223 12328,20213 11395,20213 Z"/>
     <path fill="none" stroke="rgb(0,0,0)" id="Drawing_19_3" stroke-width="40" stroke-linejoin="round" d="M 11395,20213 C 11395,20321 11628,20430 11861,20430 12094,20430 12328,20321 12328,20213"/>
     <rect fill="none" stroke="none" x="11395" y="19996" width="933" height="1381"/>
    </g>
    <g>
     <defs>
      <linearGradient id="Gradient_915" gradientUnits="userSpaceOnUse" x1="11861" y1="19995" x2="11861" y2="20432">
       <stop offset="0.1" stop-color="rgb(195,232,200)"/>
       <stop offset="1" stop-color="rgb(235,247,236)"/>
      </linearGradient>
     </defs>
     <path fill="url(#Gradient_915)" stroke="none" id="Drawing_20_0" d="M 11861,19995 L 11957,19999 12045,20012 12086,20021 12124,20031 12160,20044 12193,20058 12223,20073 12249,20090 12272,20107 12291,20127 12307,20147 12313,20157 12318,20168 12322,20179 12325,20190 12326,20201 12327,20213 12326,20225 12325,20236 12322,20247 12318,20258 12313,20269 12307,20279 12291,20300 12272,20319 12249,20337 12223,20354 12193,20369 12160,20383 12124,20395 12086,20406 12045,20415 11957,20428 11861,20432 11765,20428 11677,20415 11636,20406 11598,20395 11562,20383 11529,20369 11499,20354 11473,20337 11450,20319 11431,20300 11415,20279 11409,20269 11404,20258 11400,20247 11397,20236 11396,20225 11395,20213 11396,20201 11397,20190 11400,20179 11404,20168 11409,20157 11415,20147 11431,20127 11450,20107 11473,20090 11499,20073 11529,20058 11562,20044 11598,20031 11636,20021 11677,20012 11765,19999 11861,19995 Z"/>
     <path fill="none" stroke="rgb(0,0,0)" id="Drawing_20_1" stroke-width="40" stroke-linejoin="round" d="M 11861,19995 C 12125,19995 12327,20089 12327,20213 12327,20337 12125,20432 11861,20432 11597,20432 11395,20337 11395,20213 11395,20089 11597,19995 11861,19995 Z"/>
     <rect fill="none" stroke="none" x="11395" y="19996" width="933" height="438"/>
    </g>
   </g>
  </g>
 </g>
</svg>