<?xml version="1.0" encoding="UTF-8"?>

<svg version="1.2" baseProfile="tiny" width="69.31mm" height="48.67mm" viewBox="5105 4748 6931 4867" preserveAspectRatio="xMidYMid" fill-rule="evenodd" stroke-width="28.222" stroke-linejoin="round" xmlns="http://www.w3.org/2000/svg" xmlns:xlink="http://www.w3.org/1999/xlink" xml:space="preserve">
 <g visibility="visible" id="Slide_1">
  <g id="DrawingGroup_1">
   <g id="DrawingGroup_2">
    <g>
     <path fill="rgb(221,221,221)" stroke="none" d="M 8869,9595 C 9132,9595 12036,8319 12036,7930 12036,7542 11628,7542 11364,7542 11364,7708 8773,8374 8869,9595 Z"/>
     <path fill="none" stroke="rgb(221,221,221)" id="Drawing_1_0" stroke-linejoin="round" d="M 8869,9595 C 9132,9595 12036,8319 12036,7930 12036,7542 11628,7542 11364,7542 11364,7708 8773,8374 8869,9595 Z"/>
    </g>
    <g id="DrawingGroup_3">
     <g>
      <defs>
       <linearGradient id="Gradient_938" gradientUnits="userSpaceOnUse" x1="5313" y1="7954" x2="8678" y2="7960">
        <stop offset="0.1" stop-color="rgb(179,179,179)"/>
        <stop offset="1" stop-color="rgb(229,229,229)"/>
       </linearGradient>
      </defs>
      <path fill="url(#Gradient_938)" stroke="rgb(255,255,255)" id="Drawing_2_0" stroke-width="40" stroke-linejoin="round" d="M 5317,7542 L 5317,6432 8676,8374 8676,9483 5317,7542 Z"/>
     </g>
     <g>
      <path fill="rgb(179,179,179)" stroke="none" d="M 10950,8170 L 9595,8953 8676,8953 8676,8374 10950,7060 10950,8170 Z"/>
      <path fill="rgb(180,180,180)" stroke="none" d="M 9595,8953 L 8676,9484 8676,8953 9595,8953 Z M 10950,7060 L 11555,6710 11555,7820 10950,8170 10950,7060 Z M 10921,8186 L 9645,8924 8676,8924 8676,8374 10921,7076 10921,8186 Z"/>
      <path fill="rgb(181,181,181)" stroke="none" d="M 9645,8924 L 8676,9484 8676,8924 9645,8924 Z M 10921,7076 L 11555,6710 11555,7820 10921,8186 10921,7076 Z M 10892,8203 L 9695,8895 8676,8895 8676,8374 10892,7093 10892,8203 Z"/>
      <path fill="rgb(182,182,182)" stroke="none" d="M 9695,8895 L 8676,9484 8676,8895 9695,8895 Z M 10892,7093 L 11555,6710 11555,7820 10892,8203 10892,7093 Z M 10863,8220 L 9745,8866 8676,8866 8676,8374 10863,7110 10863,8220 Z"/>
      <path fill="rgb(183,183,183)" stroke="none" d="M 9745,8866 L 8676,9484 8676,8866 9745,8866 Z M 10863,7110 L 11555,6710 11555,7820 10863,8220 10863,7110 Z M 10834,8237 L 9795,8837 8676,8837 8676,8374 10834,7127 10834,8237 Z"/>
      <path fill="rgb(184,184,184)" stroke="none" d="M 9795,8837 L 8676,9484 8676,8837 9795,8837 Z M 10834,7127 L 11555,6710 11555,7820 10834,8237 10834,7127 Z M 10806,8253 L 9844,8809 8676,8809 8676,8374 10806,7143 10806,8253 Z"/>
      <path fill="rgb(185,185,185)" stroke="none" d="M 9844,8809 L 8676,9484 8676,8809 9844,8809 Z M 10806,7143 L 11555,6710 11555,7820 10806,8253 10806,7143 Z M 10777,8270 L 9894,8780 8676,8780 8676,8374 10777,7160 10777,8270 Z"/>
      <path fill="rgb(186,186,186)" stroke="none" d="M 9894,8780 L 8676,9484 8676,8780 9894,8780 Z M 10777,7160 L 11555,6710 11555,7820 10777,8270 10777,7160 Z M 10748,8286 L 9944,8751 8676,8751 8676,8374 10748,7176 10748,8286 Z"/>
      <path fill="rgb(187,187,187)" stroke="none" d="M 9944,8751 L 8676,9484 8676,8751 9944,8751 Z M 10748,7176 L 11555,6710 11555,7820 10748,8286 10748,7176 Z M 10719,8303 L 9994,8722 8676,8722 8676,8374 10719,7193 10719,8303 Z"/>
      <path fill="rgb(188,188,188)" stroke="none" d="M 9994,8722 L 8676,9484 8676,8722 9994,8722 Z M 10719,7193 L 11555,6710 11555,7820 10719,8303 10719,7193 Z M 10690,8320 L 10045,8693 8676,8693 8676,8374 10690,7210 10690,8320 Z"/>
      <path fill="rgb(189,189,189)" stroke="none" d="M 10045,8693 L 8676,9484 8676,8693 10045,8693 Z M 10690,7210 L 11555,6710 11555,7820 10690,8320 10690,7210 Z M 10661,8337 L 10095,8664 8676,8664 8676,8374 10661,7227 10661,8337 Z"/>
      <path fill="rgb(190,190,190)" stroke="none" d="M 10095,8664 L 8676,9484 8676,8664 10095,8664 Z M 10661,7227 L 11555,6710 11555,7820 10661,8337 10661,7227 Z M 10633,8353 L 10143,8636 8676,8636 8676,8374 10633,7243 10633,8353 Z"/>
      <path fill="rgb(191,191,191)" stroke="none" d="M 10143,8636 L 8676,9484 8676,8636 10143,8636 Z M 10633,7243 L 11555,6710 11555,7820 10633,8353 10633,7243 Z M 10604,8370 L 10193,8607 8676,8607 8676,8374 10604,7260 10604,8370 Z"/>
      <path fill="rgb(192,192,192)" stroke="none" d="M 10193,8607 L 8676,9484 8676,8607 10193,8607 Z M 10604,7260 L 11555,6710 11555,7820 10604,8370 10604,7260 Z M 10575,8386 L 10244,8578 8676,8578 8676,8374 10575,7276 10575,8386 Z"/>
      <path fill="rgb(193,193,193)" stroke="none" d="M 10244,8578 L 8676,9484 8676,8578 10244,8578 Z M 10575,7276 L 11555,6710 11555,7820 10575,8386 10575,7276 Z M 10546,8403 L 10294,8549 8676,8549 8676,8374 10546,7293 10546,8403 Z"/>
      <path fill="rgb(194,194,194)" stroke="none" d="M 10294,8549 L 8676,9484 8676,8549 10294,8549 Z M 10546,7293 L 11555,6710 11555,7820 10546,8403 10546,7293 Z M 10517,8420 L 10344,8520 8676,8520 8676,8374 10517,7310 10517,8420 Z"/>
      <path fill="rgb(195,195,195)" stroke="none" d="M 10344,8520 L 8676,9484 8676,8520 10344,8520 Z M 10517,7310 L 11555,6710 11555,7820 10517,8420 10517,7310 Z M 10489,8436 L 10392,8492 8676,8492 8676,8374 10489,7326 10489,8436 Z"/>
      <path fill="rgb(196,196,196)" stroke="none" d="M 10392,8492 L 8676,9484 8676,8492 10392,8492 Z M 10489,7326 L 11555,6710 11555,7820 10489,8436 10489,7326 Z M 10460,8453 L 10443,8463 8676,8463 8676,8374 10460,7343 10460,8453 Z"/>
      <path fill="rgb(197,197,197)" stroke="none" d="M 10443,8463 L 8676,9484 8676,8463 10443,8463 Z M 10460,7343 L 11555,6710 11555,7820 10460,8453 10460,7343 Z M 10431,8434 L 8676,8434 8676,8374 10431,7360 10431,8434 Z"/>
      <path fill="rgb(198,198,198)" stroke="none" d="M 10431,8434 L 10431,7360 11555,6710 11555,7820 8676,9484 8676,8434 10431,8434 Z M 10402,8405 L 8676,8405 8676,8374 10402,7376 10402,8405 Z"/>
      <path fill="rgb(199,199,199)" stroke="none" d="M 10402,8405 L 10402,7376 11555,6710 11555,7820 8676,9484 8676,8405 10402,8405 Z M 10373,8376 L 8703,8376 8703,8358 10373,7393 10373,8376 Z"/>
      <path fill="rgb(200,200,200)" stroke="none" d="M 8703,8376 L 10373,8376 10373,7393 11555,6710 11555,7820 8676,9484 8676,8374 8703,8358 8703,8376 Z M 10344,8347 L 8732,8347 8732,8342 10344,7410 10344,8347 Z"/>
      <path fill="rgb(201,201,201)" stroke="none" d="M 8732,8347 L 10344,8347 10344,7410 11555,6710 11555,7820 8676,9484 8676,8374 8732,8342 8732,8347 Z M 10316,8319 L 8771,8319 10316,7426 10316,8319 Z"/>
      <path fill="rgb(202,202,202)" stroke="none" d="M 10316,8319 L 10316,7426 11555,6710 11555,7820 8676,9484 8676,8374 8771,8319 10316,8319 Z M 10287,8290 L 8821,8290 10287,7443 10287,8290 Z"/>
      <path fill="rgb(203,203,203)" stroke="none" d="M 10287,8290 L 10287,7443 11555,6710 11555,7820 8676,9484 8676,8374 8821,8290 10287,8290 Z M 10258,8261 L 8872,8261 10258,7460 10258,8261 Z"/>
      <path fill="rgb(204,204,204)" stroke="none" d="M 10258,8261 L 10258,7460 11555,6710 11555,7820 8676,9484 8676,8374 8872,8261 10258,8261 Z M 10229,8232 L 8922,8232 10229,7476 10229,8232 Z"/>
      <path fill="rgb(205,205,205)" stroke="none" d="M 10229,8232 L 10229,7476 11555,6710 11555,7820 8676,9484 8676,8374 8922,8232 10229,8232 Z M 10200,8203 L 8972,8203 10200,7493 10200,8203 Z"/>
      <path fill="rgb(206,206,206)" stroke="none" d="M 10200,8203 L 10200,7493 11555,6710 11555,7820 8676,9484 8676,8374 8972,8203 10200,8203 Z M 10172,8175 L 9020,8175 10172,7509 10172,8175 Z"/>
      <path fill="rgb(207,207,207)" stroke="none" d="M 10172,8175 L 10172,7509 11555,6710 11555,7820 8676,9484 8676,8374 9020,8175 10172,8175 Z M 10143,8146 L 9070,8146 10143,7526 10143,8146 Z"/>
      <path fill="rgb(208,208,208)" stroke="none" d="M 10143,8146 L 10143,7526 11555,6710 11555,7820 8676,9484 8676,8374 9070,8146 10143,8146 Z M 10114,8117 L 9121,8117 10114,7543 10114,8117 Z"/>
      <path fill="rgb(209,209,209)" stroke="none" d="M 10114,8117 L 10114,7543 11555,6710 11555,7820 8676,9484 8676,8374 9121,8117 10114,8117 Z M 10085,8088 L 9171,8088 10085,7560 10085,8088 Z"/>
      <path fill="rgb(210,210,210)" stroke="none" d="M 10085,8088 L 10085,7560 11555,6710 11555,7820 8676,9484 8676,8374 9171,8088 10085,8088 Z M 10056,8059 L 9221,8059 10056,7576 10056,8059 Z"/>
      <path fill="rgb(211,211,211)" stroke="none" d="M 10056,8059 L 10056,7576 11555,6710 11555,7820 8676,9484 8676,8374 9221,8059 10056,8059 Z M 10027,8030 L 9271,8030 10027,7593 10027,8030 Z"/>
      <path fill="rgb(212,212,212)" stroke="none" d="M 10027,8030 L 10027,7593 11555,6710 11555,7820 8676,9484 8676,8374 9271,8030 10027,8030 Z M 9999,8002 L 9320,8002 9999,7609 9999,8002 Z"/>
      <path fill="rgb(213,213,213)" stroke="none" d="M 9999,8002 L 9999,7609 11555,6710 11555,7820 8676,9484 8676,8374 9320,8002 9999,8002 Z M 9970,7973 L 9370,7973 9970,7626 9970,7973 Z"/>
      <path fill="rgb(214,214,214)" stroke="none" d="M 9970,7973 L 9970,7626 11555,6710 11555,7820 8676,9484 8676,8374 9370,7973 9970,7973 Z M 9941,7944 L 9420,7944 9941,7643 9941,7944 Z"/>
      <path fill="rgb(215,215,215)" stroke="none" d="M 9941,7944 L 9941,7643 11555,6710 11555,7820 8676,9484 8676,8374 9420,7944 9941,7944 Z M 9912,7915 L 9470,7915 9912,7660 9912,7915 Z"/>
      <path fill="rgb(216,216,216)" stroke="none" d="M 9912,7915 L 9912,7660 11555,6710 11555,7820 8676,9484 8676,8374 9470,7915 9912,7915 Z M 9883,7886 L 9520,7886 9883,7676 9883,7886 Z"/>
      <path fill="rgb(217,217,217)" stroke="none" d="M 9883,7886 L 9883,7676 11555,6710 11555,7820 8676,9484 8676,8374 9520,7886 9883,7886 Z M 9855,7858 L 9569,7858 9855,7693 9855,7858 Z"/>
      <path fill="rgb(218,218,218)" stroke="none" d="M 9855,7858 L 9855,7693 11555,6710 11555,7820 8676,9484 8676,8374 9569,7858 9855,7858 Z M 9826,7829 L 9619,7829 9826,7709 9826,7829 Z"/>
      <path fill="rgb(219,219,219)" stroke="none" d="M 9826,7829 L 9826,7709 11555,6710 11555,7820 8676,9484 8676,8374 9619,7829 9826,7829 Z M 9797,7800 L 9669,7800 9797,7726 9797,7800 Z"/>
      <path fill="rgb(220,220,220)" stroke="none" d="M 9797,7800 L 9797,7726 11555,6710 11555,7820 8676,9484 8676,8374 9669,7800 9797,7800 Z M 9768,7771 L 9719,7771 9768,7743 9768,7771 Z"/>
      <path fill="rgb(221,221,221)" stroke="none" d="M 9768,7771 L 9768,7743 11555,6710 11555,7820 8676,9484 8676,8374 9719,7771 9768,7771 Z"/>
      <path fill="rgb(222,222,222)" stroke="none" d="M 8676,9484 L 8676,8374 11555,6710 11555,7820 8676,9484 Z"/>
      <path fill="rgb(223,223,223)" stroke="none" d="M 8676,9484 L 8676,8374 11555,6710 11555,7820 8676,9484 Z"/>
      <path fill="rgb(224,224,224)" stroke="none" d="M 8676,9484 L 8676,8374 11555,6710 11555,7820 8676,9484 Z"/>
      <path fill="rgb(225,225,225)" stroke="none" d="M 8676,9484 L 8676,8374 11555,6710 11555,7820 8676,9484 Z"/>
      <path fill="rgb(226,226,226)" stroke="none" d="M 8676,9484 L 8676,8374 11555,6710 11555,7820 8676,9484 Z"/>
      <path fill="rgb(227,227,227)" stroke="none" d="M 8676,9484 L 8676,8374 11555,6710 11555,7820 8676,9484 Z"/>
      <path fill="rgb(229,229,229)" stroke="none" d="M 8676,9484 L 8676,8374 11555,6710 11555,7820 8676,9484 Z"/>
      <path fill="none" stroke="rgb(255,255,255)" id="Drawing_3_0" stroke-width="40" stroke-linejoin="round" d="M 8676,9484 L 8676,8374 11555,6710 11555,7820 8676,9484 Z"/>
     </g>
     <g>
      <defs>
       <linearGradient id="Gradient_939" gradientUnits="userSpaceOnUse" x1="8436" y1="4768" x2="8436" y2="8374">
        <stop offset="0.1" stop-color="rgb(179,179,179)"/>
        <stop offset="1" stop-color="rgb(229,229,229)"/>
       </linearGradient>
      </defs>
      <path fill="url(#Gradient_939)" stroke="rgb(255,255,255)" id="Drawing_4_0" stroke-width="40" stroke-linejoin="round" d="M 8676,8374 L 5317,6432 8196,4768 11556,6710 8676,8374 Z"/>
     </g>
     <g>
      <path fill="none" stroke="rgb(127,127,127)" id="Drawing_5_0" stroke-width="40" stroke-linejoin="round" d="M 6469,7320 L 6469,7986"/>
     </g>
     <g>
      <path fill="none" stroke="rgb(255,255,255)" id="Drawing_6_0" stroke-width="40" stroke-linejoin="round" d="M 8581,8741 L 7045,7853"/>
     </g>
     <g>
      <path fill="none" stroke="rgb(255,255,255)" id="Drawing_7_0" stroke-width="40" stroke-linejoin="round" d="M 7036,7653 L 7036,7875"/>
     </g>
     <g>
      <path fill="none" stroke="rgb(0,0,0)" id="Drawing_8_0" stroke-width="40" stroke-linejoin="round" d="M 8572,8541 L 8572,8763"/>
     </g>
     <g>
      <path fill="none" stroke="rgb(0,0,0)" id="Drawing_9_0" stroke-width="40" stroke-linejoin="round" d="M 8572,8541 L 7036,7653"/>
     </g>
     <g>
      <path fill="rgb(57,181,74)" stroke="none" d="M 6661,7653 L 6661,7431 6853,7542 6853,7764 6661,7653 Z"/>
      <path fill="none" stroke="rgb(0,0,0)" id="Drawing_10_0" stroke-width="40" stroke-linejoin="round" d="M 6661,7653 L 6661,7431 6853,7542 6853,7764 6661,7653 Z"/>
     </g>
     <g>
      <path fill="none" stroke="rgb(127,127,127)" id="Drawing_11_0" stroke-width="40" stroke-linejoin="round" d="M 6277,7209 L 6277,7875"/>
     </g>
     <g>
      <path fill="none" stroke="rgb(127,127,127)" id="Drawing_12_0" stroke-width="40" stroke-linejoin="round" d="M 6085,7098 L 6085,7764"/>
     </g>
     <g>
      <path fill="none" stroke="rgb(127,127,127)" id="Drawing_13_0" stroke-width="40" stroke-linejoin="round" d="M 5893,6987 L 5893,7653"/>
     </g>
     <g>
      <path fill="none" stroke="rgb(127,127,127)" id="Drawing_14_0" stroke-width="40" stroke-linejoin="round" d="M 5701,6876 L 5701,7542"/>
     </g>
     <g>
      <path fill="none" stroke="rgb(127,127,127)" id="Drawing_15_0" stroke-width="40" stroke-linejoin="round" d="M 5509,6765 L 5509,7431"/>
     </g>
     <g>
      <defs>
       <linearGradient id="Gradient_940" gradientUnits="userSpaceOnUse" x1="5124" y1="6931" x2="5318" y2="6931">
        <stop offset="0.1" stop-color="rgb(179,179,179)"/>
        <stop offset="1" stop-color="rgb(229,229,229)"/>
       </linearGradient>
      </defs>
      <path fill="url(#Gradient_940)" stroke="rgb(255,255,255)" id="Drawing_16_0" stroke-width="40" stroke-linejoin="round" d="M 5125,7431 L 5125,6321 5317,6432 5317,7542 5125,7431 Z"/>
     </g>
     <g>
      <defs>
       <linearGradient id="Gradient_941" gradientUnits="userSpaceOnUse" x1="8675" y1="8984" x2="8869" y2="8984">
        <stop offset="0.1" stop-color="rgb(179,179,179)"/>
        <stop offset="1" stop-color="rgb(229,229,229)"/>
       </linearGradient>
      </defs>
      <path fill="url(#Gradient_941)" stroke="rgb(255,255,255)" id="Drawing_17_0" stroke-width="40" stroke-linejoin="round" d="M 8676,9484 L 8676,8374 8868,8485 8868,9595 8676,9484 Z"/>
     </g>
     <g>
      <path fill="none" stroke="rgb(0,0,0)" id="Drawing_18_0" stroke-width="40" stroke-linejoin="round" d="M 5125,7431 L 5125,6321 5317,6432 8196,4768 11556,6710 11556,7819 8868,9373 8868,9595 5125,7431 Z"/>
     </g>
    </g>
   </g>
   <g id="DrawingGroup_4">
    <g>
     <path fill="rgb(252,222,187)" stroke="none" d="M 10875,8786 L 10364,8860 10875,9525 10875,8786 Z"/>
     <path fill="none" stroke="rgb(255,255,255)" id="Drawing_19_0" stroke-width="40" stroke-linejoin="round" d="M 10875,8786 L 10364,8860 10875,9525 10875,8786 Z"/>
    </g>
    <g>
     <path fill="rgb(252,222,187)" stroke="none" d="M 9853,8195 L 10364,8860 9853,8934 9853,8195 Z"/>
     <path fill="none" stroke="rgb(255,255,255)" id="Drawing_20_0" stroke-width="40" stroke-linejoin="round" d="M 9853,8195 L 10364,8860 9853,8934 9853,8195 Z"/>
    </g>
    <g>
     <path fill="rgb(252,222,187)" stroke="none" d="M 10876,9525 L 10364,8786 9853,8934 10876,9525 Z"/>
     <path fill="none" stroke="rgb(251,201,142)" id="Drawing_21_0" stroke-width="40" stroke-linejoin="round" d="M 10876,9525 L 10364,8786 9853,8934 10876,9525 Z"/>
    </g>
    <g>
     <path fill="rgb(252,222,187)" stroke="none" d="M 10876,8786 L 10364,8934 9853,8195 10876,8786 Z"/>
     <path fill="none" stroke="rgb(251,201,142)" id="Drawing_22_0" stroke-width="40" stroke-linejoin="round" d="M 10876,8786 L 10364,8934 9853,8195 10876,8786 Z"/>
    </g>
    <g>
     <path fill="none" stroke="rgb(0,0,0)" id="Drawing_23_0" stroke-width="40" stroke-linejoin="round" d="M 9853,8934 L 9853,8195 10876,8786 10876,9525 9853,8934 Z"/>
    </g>
   </g>
  </g>
 </g>
</svg>