<?xml version="1.0" encoding="UTF-8"?>

<svg version="1.2" baseProfile="tiny" width="19.8mm" height="29.58mm" viewBox="5474 5362 1980 2958" preserveAspectRatio="xMidYMid" fill-rule="evenodd" stroke-width="28.222" stroke-linejoin="round" xmlns="http://www.w3.org/2000/svg" xmlns:xlink="http://www.w3.org/1999/xlink" xml:space="preserve">
 <g visibility="visible" id="Slide_1">
  <g id="DrawingGroup_1">
   <g>
    <defs>
     <linearGradient id="Gradient_1053" gradientUnits="userSpaceOnUse" x1="6464" y1="5854" x2="6464" y2="6974">
      <stop offset="0.1" stop-color="rgb(222,142,150)"/>
      <stop offset="1" stop-color="rgb(248,232,234)"/>
     </linearGradient>
    </defs>
    <path fill="url(#Gradient_1053)" stroke="rgb(255,255,255)" id="Drawing_1_0" stroke-width="40" stroke-linejoin="round" d="M 6904,6974 L 7434,6669 6024,5854 5494,6160 6904,6974 Z"/>
   </g>
   <g>
    <defs>
     <linearGradient id="Gradient_1054" gradientUnits="userSpaceOnUse" x1="5845" y1="6089" x2="7082" y2="6091">
      <stop offset="0.1" stop-color="rgb(179,179,179)"/>
      <stop offset="1" stop-color="rgb(229,229,229)"/>
     </linearGradient>
    </defs>
    <path fill="url(#Gradient_1054)" stroke="none" id="Drawing_2_0" d="M 7082,6694 L 7068,6455 7029,6237 6968,6042 6889,5869 6796,5722 6691,5602 6636,5552 6580,5509 6522,5474 6464,5446 6407,5426 6349,5414 6293,5410 6238,5414 6184,5427 6133,5449 6085,5480 6040,5519 5998,5568 5961,5626 5928,5694 5900,5772 5878,5860 5861,5958 5847,6185 5906,6218 5952,6242 5972,6251 5990,6256 6007,6260 6024,6261 6041,6260 6058,6256 6076,6251 6095,6242 6142,6218 6200,6185 6206,6065 6223,5972 6235,5936 6249,5906 6265,5881 6283,5863 6302,5850 6323,5843 6345,5841 6367,5844 6391,5852 6415,5865 6440,5883 6464,5905 6514,5960 6562,6032 6606,6116 6646,6213 6680,6321 6706,6438 6723,6563 6729,6694 6787,6727 6834,6751 6853,6760 6871,6765 6888,6769 6905,6770 6922,6769 6939,6765 6957,6760 6977,6751 7023,6727 7082,6694 Z"/>
    <path fill="none" stroke="rgb(255,255,255)" id="Drawing_2_1" stroke-width="40" stroke-linejoin="round" d="M 7082,6694 C 7082,5370 5847,4860 5847,6185 6024,6287 6024,6287 6200,6185 6200,5471 6729,5982 6729,6694 6905,6796 6905,6796 7082,6694 Z"/>
   </g>
   <g>
    <path fill="none" stroke="rgb(255,255,255)" id="Drawing_3_0" stroke-width="40" stroke-linejoin="round" d="M 6731,6669 C 6729,5752 6026,5346 6024,6058"/>
   </g>
   <g>
    <defs>
     <linearGradient id="Gradient_1055" gradientUnits="userSpaceOnUse" x1="5492" y1="7229" x2="6906" y2="7231">
      <stop offset="0.1" stop-color="rgb(222,142,150)"/>
      <stop offset="1" stop-color="rgb(248,232,234)"/>
     </linearGradient>
    </defs>
    <path fill="url(#Gradient_1055)" stroke="rgb(255,255,255)" id="Drawing_4_0" stroke-width="40" stroke-linejoin="round" d="M 6904,8300 L 6904,6975 5494,6160 5494,7485 6904,8300 Z"/>
   </g>
   <g>
    <defs>
     <linearGradient id="Gradient_1056" gradientUnits="userSpaceOnUse" x1="6223" y1="6975" x2="6223" y2="7503">
      <stop offset="0.1" stop-color="rgb(0,0,0)"/>
      <stop offset="1" stop-color="rgb(255,255,255)"/>
     </linearGradient>
    </defs>
    <path fill="url(#Gradient_1056)" stroke="none" id="Drawing_5_0" d="M 6100,7198 L 6077,7114 6072,7080 6071,7052 6074,7028 6081,7009 6085,7002 6090,6995 6096,6989 6102,6984 6109,6981 6117,6978 6133,6975 6151,6976 6171,6979 6191,6986 6212,6995 6254,7019 6293,7051 6328,7088 6343,7108 6355,7128 6365,7149 6372,7169 6375,7189 6375,7209 6370,7227 6362,7245 6348,7261 6329,7276 6305,7289 6275,7300 6275,7503 6100,7402 6100,7198 Z"/>
    <path fill="none" stroke="rgb(255,255,255)" id="Drawing_5_1" stroke-width="40" stroke-linejoin="round" d="M 6100,7198 C 5923,6689 6628,7198 6275,7300 L 6275,7503 6100,7402 6100,7198 Z"/>
   </g>
   <g>
    <path fill="rgb(222,142,150)" stroke="none" d="M 6904,7963 L 6904,6975 7434,6669 7434,7963 6904,7963 Z"/>
    <path fill="rgb(222,143,151)" stroke="none" d="M 7434,7963 L 7434,7994 6904,8300 6904,7963 7434,7963 Z M 6904,7953 L 6904,6975 7434,6669 7434,7953 6904,7953 Z"/>
    <path fill="rgb(222,144,152)" stroke="none" d="M 7434,7953 L 7434,7994 6904,8300 6904,7953 7434,7953 Z M 6904,7943 L 6904,6975 7434,6669 7434,7943 6904,7943 Z"/>
    <path fill="rgb(222,145,153)" stroke="none" d="M 7434,7943 L 7434,7994 6904,8300 6904,7943 7434,7943 Z M 6904,7933 L 6904,6975 7434,6669 7434,7933 6904,7933 Z"/>
    <path fill="rgb(223,146,154)" stroke="none" d="M 7434,7933 L 7434,7994 6904,8300 6904,7933 7434,7933 Z M 6904,7923 L 6904,6975 7434,6669 7434,7923 6904,7923 Z"/>
    <path fill="rgb(223,147,155)" stroke="none" d="M 7434,7923 L 7434,7994 6904,8300 6904,7923 7434,7923 Z M 6904,7913 L 6904,6975 7434,6669 7434,7913 6904,7913 Z"/>
    <path fill="rgb(223,148,156)" stroke="none" d="M 7434,7913 L 7434,7994 6904,8300 6904,7913 7434,7913 Z M 6904,7903 L 6904,6975 7434,6669 7434,7903 6904,7903 Z"/>
    <path fill="rgb(224,149,157)" stroke="none" d="M 7434,7903 L 7434,7994 6904,8300 6904,7903 7434,7903 Z M 6904,7893 L 6904,6975 7434,6669 7434,7893 6904,7893 Z"/>
    <path fill="rgb(224,150,158)" stroke="none" d="M 7434,7893 L 7434,7994 6904,8300 6904,7893 7434,7893 Z M 6904,7883 L 6904,6975 7434,6669 7434,7883 6904,7883 Z"/>
    <path fill="rgb(224,152,159)" stroke="none" d="M 7434,7883 L 7434,7994 6904,8300 6904,7883 7434,7883 Z M 6904,7873 L 6904,6975 7434,6669 7434,7873 6904,7873 Z"/>
    <path fill="rgb(225,153,160)" stroke="none" d="M 7434,7873 L 7434,7994 6904,8300 6904,7873 7434,7873 Z M 6904,7863 L 6904,6975 7434,6669 7434,7863 6904,7863 Z"/>
    <path fill="rgb(225,154,161)" stroke="none" d="M 7434,7863 L 7434,7994 6904,8300 6904,7863 7434,7863 Z M 6904,7852 L 6904,6975 7434,6669 7434,7852 6904,7852 Z"/>
    <path fill="rgb(225,155,162)" stroke="none" d="M 7434,7852 L 7434,7994 6904,8300 6904,7852 7434,7852 Z M 6904,7842 L 6904,6975 7434,6669 7434,7842 6904,7842 Z"/>
    <path fill="rgb(226,156,163)" stroke="none" d="M 7434,7842 L 7434,7994 6904,8300 6904,7842 7434,7842 Z M 6904,7832 L 6904,6975 7434,6669 7434,7832 6904,7832 Z"/>
    <path fill="rgb(226,157,164)" stroke="none" d="M 7434,7832 L 7434,7994 6904,8300 6904,7832 7434,7832 Z M 6904,7822 L 6904,6975 7434,6669 7434,7822 6904,7822 Z"/>
    <path fill="rgb(226,158,165)" stroke="none" d="M 7434,7822 L 7434,7994 6904,8300 6904,7822 7434,7822 Z M 6904,7812 L 6904,6975 7434,6669 7434,7812 6904,7812 Z"/>
    <path fill="rgb(227,159,166)" stroke="none" d="M 7434,7812 L 7434,7994 6904,8300 6904,7812 7434,7812 Z M 6904,7802 L 6904,6975 7434,6669 7434,7802 6904,7802 Z"/>
    <path fill="rgb(227,160,167)" stroke="none" d="M 7434,7802 L 7434,7994 6904,8300 6904,7802 7434,7802 Z M 6904,7792 L 6904,6975 7434,6669 7434,7792 6904,7792 Z"/>
    <path fill="rgb(227,162,168)" stroke="none" d="M 7434,7792 L 7434,7994 6904,8300 6904,7792 7434,7792 Z M 6904,7782 L 6904,6975 7434,6669 7434,7782 6904,7782 Z"/>
    <path fill="rgb(228,163,169)" stroke="none" d="M 7434,7782 L 7434,7994 6904,8300 6904,7782 7434,7782 Z M 6904,7772 L 6904,6975 7434,6669 7434,7772 6904,7772 Z"/>
    <path fill="rgb(228,164,170)" stroke="none" d="M 7434,7772 L 7434,7994 6904,8300 6904,7772 7434,7772 Z M 6904,7762 L 6904,6975 7434,6669 7434,7762 6904,7762 Z"/>
    <path fill="rgb(228,165,171)" stroke="none" d="M 7434,7762 L 7434,7994 6904,8300 6904,7762 7434,7762 Z M 6904,7752 L 6904,6975 7434,6669 7434,7752 6904,7752 Z"/>
    <path fill="rgb(229,166,172)" stroke="none" d="M 7434,7752 L 7434,7994 6904,8300 6904,7752 7434,7752 Z M 6904,7742 L 6904,6975 7434,6669 7434,7742 6904,7742 Z"/>
    <path fill="rgb(229,167,173)" stroke="none" d="M 7434,7742 L 7434,7994 6904,8300 6904,7742 7434,7742 Z M 6904,7731 L 6904,6975 7434,6669 7434,7731 6904,7731 Z"/>
    <path fill="rgb(229,168,174)" stroke="none" d="M 7434,7731 L 7434,7994 6904,8300 6904,7731 7434,7731 Z M 6904,7721 L 6904,6975 7434,6669 7434,7721 6904,7721 Z"/>
    <path fill="rgb(230,169,175)" stroke="none" d="M 7434,7721 L 7434,7994 6904,8300 6904,7721 7434,7721 Z M 6904,7711 L 6904,6975 7434,6669 7434,7711 6904,7711 Z"/>
    <path fill="rgb(230,170,176)" stroke="none" d="M 7434,7711 L 7434,7994 6904,8300 6904,7711 7434,7711 Z M 6904,7701 L 6904,6975 7434,6669 7434,7701 6904,7701 Z"/>
    <path fill="rgb(230,172,178)" stroke="none" d="M 7434,7701 L 7434,7994 6904,8300 6904,7701 7434,7701 Z M 6904,7691 L 6904,6975 7434,6669 7434,7691 6904,7691 Z"/>
    <path fill="rgb(230,173,179)" stroke="none" d="M 7434,7691 L 7434,7994 6904,8300 6904,7691 7434,7691 Z M 6904,7681 L 6904,6975 7434,6669 7434,7681 6904,7681 Z"/>
    <path fill="rgb(231,174,180)" stroke="none" d="M 7434,7681 L 7434,7994 6904,8300 6904,7681 7434,7681 Z M 6904,7671 L 6904,6975 7434,6669 7434,7671 6904,7671 Z"/>
    <path fill="rgb(231,175,181)" stroke="none" d="M 7434,7671 L 7434,7994 6904,8300 6904,7671 7434,7671 Z M 6904,7661 L 6904,6975 7434,6669 7434,7661 6904,7661 Z"/>
    <path fill="rgb(231,176,182)" stroke="none" d="M 7434,7661 L 7434,7994 6904,8300 6904,7661 7434,7661 Z M 6904,7651 L 6904,6975 7434,6669 7434,7651 6904,7651 Z"/>
    <path fill="rgb(232,177,183)" stroke="none" d="M 7434,7651 L 7434,7994 6904,8300 6904,7651 7434,7651 Z M 7434,6673 L 7434,7641 6904,7641 6904,6975 7427,6673 7434,6673 Z"/>
    <path fill="rgb(232,178,184)" stroke="none" d="M 7434,7641 L 7434,7994 6904,8300 6904,7641 7434,7641 Z M 7427,6673 L 7434,6669 7434,6673 7427,6673 Z M 7434,6683 L 7434,7631 6904,7631 6904,6975 7410,6683 7434,6683 Z"/>
    <path fill="rgb(232,179,185)" stroke="none" d="M 7434,7631 L 7434,7994 6904,8300 6904,7631 7434,7631 Z M 7410,6683 L 7434,6669 7434,6683 7410,6683 Z M 7434,6694 L 7434,7620 6904,7620 6904,6975 7391,6694 7434,6694 Z"/>
    <path fill="rgb(233,180,186)" stroke="none" d="M 7434,7620 L 7434,7994 6904,8300 6904,7620 7434,7620 Z M 7391,6694 L 7434,6669 7434,6694 7391,6694 Z M 7434,6704 L 7434,7610 6904,7610 6904,6975 7373,6704 7434,6704 Z"/>
    <path fill="rgb(233,182,187)" stroke="none" d="M 7434,7610 L 7434,7994 6904,8300 6904,7610 7434,7610 Z M 7373,6704 L 7434,6669 7434,6704 7373,6704 Z M 7434,6714 L 7434,7600 6904,7600 6904,6975 7356,6714 7434,6714 Z"/>
    <path fill="rgb(233,183,188)" stroke="none" d="M 7434,7600 L 7434,7994 6904,8300 6904,7600 7434,7600 Z M 7356,6714 L 7434,6669 7434,6714 7356,6714 Z M 7434,6724 L 7434,7590 6904,7590 6904,6975 7339,6724 7434,6724 Z"/>
    <path fill="rgb(234,184,189)" stroke="none" d="M 7434,7590 L 7434,7994 6904,8300 6904,7590 7434,7590 Z M 7339,6724 L 7434,6669 7434,6724 7339,6724 Z M 7434,6734 L 7434,7580 6904,7580 6904,6975 7321,6734 7434,6734 Z"/>
    <path fill="rgb(234,185,190)" stroke="none" d="M 7434,7580 L 7434,7994 6904,8300 6904,7580 7434,7580 Z M 7321,6734 L 7434,6669 7434,6734 7321,6734 Z M 7434,6744 L 7434,7570 6904,7570 6904,6975 7304,6744 7434,6744 Z"/>
    <path fill="rgb(234,186,191)" stroke="none" d="M 7434,7570 L 7434,7994 6904,8300 6904,7570 7434,7570 Z M 7304,6744 L 7434,6669 7434,6744 7304,6744 Z M 7434,6754 L 7434,7560 6904,7560 6904,6975 7287,6754 7434,6754 Z"/>
    <path fill="rgb(235,187,192)" stroke="none" d="M 7434,7560 L 7434,7994 6904,8300 6904,7560 7434,7560 Z M 7287,6754 L 7434,6669 7434,6754 7287,6754 Z M 7434,6764 L 7434,7550 6904,7550 6904,6975 7269,6764 7434,6764 Z"/>
    <path fill="rgb(235,188,193)" stroke="none" d="M 7434,7550 L 7434,7994 6904,8300 6904,7550 7434,7550 Z M 7269,6764 L 7434,6669 7434,6764 7269,6764 Z M 7434,6774 L 7434,7540 6904,7540 6904,6975 7252,6774 7434,6774 Z"/>
    <path fill="rgb(235,189,194)" stroke="none" d="M 7434,7540 L 7434,7994 6904,8300 6904,7540 7434,7540 Z M 7252,6774 L 7434,6669 7434,6774 7252,6774 Z M 7434,6784 L 7434,7530 6904,7530 6904,6975 7235,6784 7434,6784 Z"/>
    <path fill="rgb(236,190,195)" stroke="none" d="M 7434,7530 L 7434,7994 6904,8300 6904,7530 7434,7530 Z M 7235,6784 L 7434,6669 7434,6784 7235,6784 Z M 7424,6794 L 7424,7520 6904,7520 6904,6975 7217,6794 7424,6794 Z"/>
    <path fill="rgb(236,192,196)" stroke="none" d="M 7424,7520 L 7424,6794 7217,6794 7434,6669 7434,7994 6904,8300 6904,7520 7424,7520 Z M 7414,6804 L 7414,7510 6904,7510 6904,6975 7200,6804 7414,6804 Z"/>
    <path fill="rgb(236,193,197)" stroke="none" d="M 7414,7510 L 7414,6804 7200,6804 7434,6669 7434,7994 6904,8300 6904,7510 7414,7510 Z M 7403,6815 L 7403,7499 6904,7499 6904,6975 7181,6815 7403,6815 Z"/>
    <path fill="rgb(237,194,198)" stroke="none" d="M 7403,7499 L 7403,6815 7181,6815 7434,6669 7434,7994 6904,8300 6904,7499 7403,7499 Z M 7393,6825 L 7393,7489 6904,7489 6904,6975 7164,6825 7393,6825 Z"/>
    <path fill="rgb(237,195,199)" stroke="none" d="M 7393,7489 L 7393,6825 7164,6825 7434,6669 7434,7994 6904,8300 6904,7489 7393,7489 Z M 7383,6835 L 7383,7479 6904,7479 6904,6975 7146,6835 7383,6835 Z"/>
    <path fill="rgb(237,196,200)" stroke="none" d="M 7383,7479 L 7383,6835 7146,6835 7434,6669 7434,7994 6904,8300 6904,7479 7383,7479 Z M 7373,6845 L 7373,7469 6904,7469 6904,6975 7129,6845 7373,6845 Z"/>
    <path fill="rgb(238,197,201)" stroke="none" d="M 7373,7469 L 7373,6845 7129,6845 7434,6669 7434,7994 6904,8300 6904,7469 7373,7469 Z M 7363,6855 L 7363,7459 6904,7459 6904,6975 7112,6855 7363,6855 Z"/>
    <path fill="rgb(238,198,202)" stroke="none" d="M 7363,7459 L 7363,6855 7112,6855 7434,6669 7434,7994 6904,8300 6904,7459 7363,7459 Z M 7353,6865 L 7353,7449 6904,7449 6904,6975 7095,6865 7353,6865 Z"/>
    <path fill="rgb(238,199,203)" stroke="none" d="M 7353,7449 L 7353,6865 7095,6865 7434,6669 7434,7994 6904,8300 6904,7449 7353,7449 Z M 7343,6875 L 7343,7439 6904,7439 6904,6975 7077,6875 7343,6875 Z"/>
    <path fill="rgb(239,200,204)" stroke="none" d="M 7343,7439 L 7343,6875 7077,6875 7434,6669 7434,7994 6904,8300 6904,7439 7343,7439 Z M 7333,6885 L 7333,7429 6904,7429 6904,6975 7060,6885 7333,6885 Z"/>
    <path fill="rgb(239,202,206)" stroke="none" d="M 7333,7429 L 7333,6885 7060,6885 7434,6669 7434,7994 6904,8300 6904,7429 7333,7429 Z M 7323,6895 L 7323,7419 6904,7419 6904,6975 7043,6895 7323,6895 Z"/>
    <path fill="rgb(239,203,207)" stroke="none" d="M 7323,7419 L 7323,6895 7043,6895 7434,6669 7434,7994 6904,8300 6904,7419 7323,7419 Z M 7313,6905 L 7313,7409 6904,7409 6904,6975 7025,6905 7313,6905 Z"/>
    <path fill="rgb(239,204,208)" stroke="none" d="M 7313,7409 L 7313,6905 7025,6905 7434,6669 7434,7994 6904,8300 6904,7409 7313,7409 Z M 7303,6915 L 7303,7399 6904,7399 6904,6975 7008,6915 7303,6915 Z"/>
    <path fill="rgb(240,205,209)" stroke="none" d="M 7303,7399 L 7303,6915 7008,6915 7434,6669 7434,7994 6904,8300 6904,7399 7303,7399 Z M 7292,6926 L 7292,7388 6904,7388 6904,6975 6989,6926 7292,6926 Z"/>
    <path fill="rgb(240,206,210)" stroke="none" d="M 7292,7388 L 7292,6926 6989,6926 7434,6669 7434,7994 6904,8300 6904,7388 7292,7388 Z M 7282,6936 L 7282,7378 6904,7378 6904,6975 6972,6936 7282,6936 Z"/>
    <path fill="rgb(240,207,211)" stroke="none" d="M 7282,7378 L 7282,6936 6972,6936 7434,6669 7434,7994 6904,8300 6904,7378 7282,7378 Z M 7272,6946 L 7272,7368 6904,7368 6904,6975 6954,6946 7272,6946 Z"/>
    <path fill="rgb(241,208,212)" stroke="none" d="M 7272,7368 L 7272,6946 6954,6946 7434,6669 7434,7994 6904,8300 6904,7368 7272,7368 Z M 7262,6956 L 7262,7358 6904,7358 6904,6975 6937,6956 7262,6956 Z"/>
    <path fill="rgb(241,209,213)" stroke="none" d="M 7262,7358 L 7262,6956 6937,6956 7434,6669 7434,7994 6904,8300 6904,7358 7262,7358 Z M 7252,6966 L 7252,7348 6904,7348 6904,6975 6920,6966 7252,6966 Z"/>
    <path fill="rgb(241,210,214)" stroke="none" d="M 7252,7348 L 7252,6966 6920,6966 7434,6669 7434,7994 6904,8300 6904,7348 7252,7348 Z M 7242,6976 L 7242,7338 6904,7338 6904,6976 7242,6976 Z"/>
    <path fill="rgb(242,212,215)" stroke="none" d="M 7242,7338 L 7242,6976 6904,6976 6904,6975 7434,6669 7434,7994 6904,8300 6904,7338 7242,7338 Z M 7232,6986 L 7232,7328 6904,7328 6904,6986 7232,6986 Z"/>
    <path fill="rgb(242,213,216)" stroke="none" d="M 7232,7328 L 7232,6986 6904,6986 6904,6975 7434,6669 7434,7994 6904,8300 6904,7328 7232,7328 Z M 7222,6996 L 7222,7318 6904,7318 6904,6996 7222,6996 Z"/>
    <path fill="rgb(242,214,217)" stroke="none" d="M 7222,7318 L 7222,6996 6904,6996 6904,6975 7434,6669 7434,7994 6904,8300 6904,7318 7222,7318 Z M 6910,7006 L 7212,7006 7212,7308 6910,7308 6910,7006 Z"/>
    <path fill="rgb(243,215,218)" stroke="none" d="M 6910,7006 L 6910,7308 7212,7308 7212,7006 6910,7006 Z M 6920,7016 L 7202,7016 7202,7298 6920,7298 6920,7016 Z M 6904,8300 L 6904,6975 7434,6669 7434,7994 6904,8300 Z"/>
    <path fill="rgb(243,216,219)" stroke="none" d="M 6920,7016 L 6920,7298 7202,7298 7202,7016 6920,7016 Z M 6930,7026 L 7192,7026 7192,7288 6930,7288 6930,7026 Z M 6904,8300 L 6904,6975 7434,6669 7434,7994 6904,8300 Z"/>
    <path fill="rgb(243,217,220)" stroke="none" d="M 6930,7026 L 6930,7288 7192,7288 7192,7026 6930,7026 Z M 6940,7036 L 7182,7036 7182,7278 6940,7278 6940,7036 Z M 6904,8300 L 6904,6975 7434,6669 7434,7994 6904,8300 Z"/>
    <path fill="rgb(244,218,221)" stroke="none" d="M 6940,7036 L 6940,7278 7182,7278 7182,7036 6940,7036 Z M 6951,7047 L 7171,7047 7171,7267 6951,7267 6951,7047 Z M 6904,8300 L 6904,6975 7434,6669 7434,7994 6904,8300 Z"/>
    <path fill="rgb(244,219,222)" stroke="none" d="M 6951,7047 L 6951,7267 7171,7267 7171,7047 6951,7047 Z M 6961,7057 L 7161,7057 7161,7257 6961,7257 6961,7057 Z M 6904,8300 L 6904,6975 7434,6669 7434,7994 6904,8300 Z"/>
    <path fill="rgb(244,220,223)" stroke="none" d="M 6961,7057 L 6961,7257 7161,7257 7161,7057 6961,7057 Z M 6971,7067 L 7151,7067 7151,7247 6971,7247 6971,7067 Z M 6904,8300 L 6904,6975 7434,6669 7434,7994 6904,8300 Z"/>
    <path fill="rgb(245,222,224)" stroke="none" d="M 6971,7067 L 6971,7247 7151,7247 7151,7067 6971,7067 Z M 6981,7077 L 7141,7077 7141,7237 6981,7237 6981,7077 Z M 6904,8300 L 6904,6975 7434,6669 7434,7994 6904,8300 Z"/>
    <path fill="rgb(245,223,225)" stroke="none" d="M 6981,7077 L 6981,7237 7141,7237 7141,7077 6981,7077 Z M 6991,7087 L 7131,7087 7131,7227 6991,7227 6991,7087 Z M 6904,8300 L 6904,6975 7434,6669 7434,7994 6904,8300 Z"/>
    <path fill="rgb(245,224,226)" stroke="none" d="M 6991,7087 L 6991,7227 7131,7227 7131,7087 6991,7087 Z M 7001,7097 L 7121,7097 7121,7217 7001,7217 7001,7097 Z M 6904,8300 L 6904,6975 7434,6669 7434,7994 6904,8300 Z"/>
    <path fill="rgb(246,225,227)" stroke="none" d="M 7001,7097 L 7001,7217 7121,7217 7121,7097 7001,7097 Z M 7011,7107 L 7111,7107 7111,7207 7011,7207 7011,7107 Z M 6904,8300 L 6904,6975 7434,6669 7434,7994 6904,8300 Z"/>
    <path fill="rgb(246,226,228)" stroke="none" d="M 7011,7107 L 7011,7207 7111,7207 7111,7107 7011,7107 Z M 7021,7117 L 7101,7117 7101,7197 7021,7197 7021,7117 Z M 6904,8300 L 6904,6975 7434,6669 7434,7994 6904,8300 Z"/>
    <path fill="rgb(246,227,229)" stroke="none" d="M 7021,7117 L 7021,7197 7101,7197 7101,7117 7021,7117 Z M 7031,7127 L 7091,7127 7091,7187 7031,7187 7031,7127 Z M 6904,8300 L 6904,6975 7434,6669 7434,7994 6904,8300 Z"/>
    <path fill="rgb(247,228,230)" stroke="none" d="M 7031,7127 L 7031,7187 7091,7187 7091,7127 7031,7127 Z M 7041,7137 L 7081,7137 7081,7177 7041,7177 7041,7137 Z M 6904,8300 L 6904,6975 7434,6669 7434,7994 6904,8300 Z"/>
    <path fill="rgb(247,229,231)" stroke="none" d="M 7041,7137 L 7041,7177 7081,7177 7081,7137 7041,7137 Z M 7051,7147 L 7071,7147 7071,7167 7051,7167 7051,7147 Z M 6904,8300 L 6904,6975 7434,6669 7434,7994 6904,8300 Z"/>
    <path fill="rgb(248,232,234)" stroke="none" d="M 7051,7147 L 7051,7167 7071,7167 7071,7147 7051,7147 Z M 6904,8300 L 6904,6975 7434,6669 7434,7994 6904,8300 Z"/>
    <path fill="none" stroke="rgb(255,255,255)" id="Drawing_6_0" stroke-width="40" stroke-linejoin="round" d="M 6904,8300 L 6904,6975 7434,6669 7434,7994 6904,8300 Z"/>
   </g>
   <g>
    <path fill="none" stroke="rgb(0,0,0)" id="Drawing_7_0" stroke-width="40" stroke-linejoin="round" d="M 5847,5955 C 6024,4835 7081,5549 7081,6466 L 7434,6669 7434,7994 6904,8300 5494,7483 5494,6160 5847,5955 Z"/>
   </g>
   <g>
    <path fill="none" stroke="rgb(128,128,128)" id="Drawing_8_0" stroke-width="40" stroke-linejoin="round" d="M 6241,5971 C 6326,5710 6568,5988 6592,6190 L 6241,5971 Z"/>
   </g>
  </g>
 </g>
</svg>