<?xml version="1.0" encoding="UTF-8"?>

<svg version="1.2" baseProfile="tiny" width="39.84mm" height="48.7mm" viewBox="5907 4786 3984 4870" preserveAspectRatio="xMidYMid" fill-rule="evenodd" stroke-width="28.222" stroke-linejoin="round" xmlns="http://www.w3.org/2000/svg" xmlns:xlink="http://www.w3.org/1999/xlink" xml:space="preserve">
 <g visibility="visible" id="Slide_1">
  <g id="DrawingGroup_1">
   <g>
    <path fill="rgb(221,221,221)" stroke="none" d="M 7382,9636 C 8092,9636 9205,9172 9685,8866 10165,8560 9685,8166 9443,8166 L 7382,9636 Z"/>
    <path fill="none" stroke="rgb(221,221,221)" id="Drawing_1_0" stroke-linejoin="round" d="M 7382,9636 C 8092,9636 9205,9172 9685,8866 10165,8560 9685,8166 9443,8166 L 7382,9636 Z"/>
   </g>
   <g id="DrawingGroup_2">
    <g>
     <defs>
      <linearGradient id="Gradient_841" gradientUnits="userSpaceOnUse" x1="5923" y1="7815" x2="7384" y2="7817">
       <stop offset="0.1" stop-color="rgb(179,179,179)"/>
       <stop offset="1" stop-color="rgb(229,229,229)"/>
      </linearGradient>
     </defs>
     <path fill="url(#Gradient_841)" stroke="rgb(255,255,255)" id="Drawing_2_0" stroke-width="40" stroke-linejoin="round" d="M 5927,8796 L 5927,5996 7382,6836 7382,9636 5927,8796 Z"/>
    </g>
    <g>
     <path fill="rgb(179,179,179)" stroke="none" d="M 7382,8798 L 7382,6836 9443,5646 9443,8446 8833,8798 7382,8798 Z"/>
     <path fill="rgb(180,180,180)" stroke="none" d="M 8833,8798 L 7382,9636 7382,8798 8833,8798 Z M 7382,8758 L 7382,6836 9443,5646 9443,8446 8903,8758 7382,8758 Z"/>
     <path fill="rgb(181,181,181)" stroke="none" d="M 8903,8758 L 7382,9636 7382,8758 8903,8758 Z M 7382,8718 L 7382,6836 9443,5646 9443,8446 8972,8718 7382,8718 Z"/>
     <path fill="rgb(182,182,182)" stroke="none" d="M 8972,8718 L 7382,9636 7382,8718 8972,8718 Z M 7382,8678 L 7382,6836 9443,5646 9443,8446 9041,8678 7382,8678 Z"/>
     <path fill="rgb(183,183,183)" stroke="none" d="M 9041,8678 L 7382,9636 7382,8678 9041,8678 Z M 7382,8638 L 7382,6836 9443,5646 9443,8446 9110,8638 7382,8638 Z"/>
     <path fill="rgb(184,184,184)" stroke="none" d="M 9110,8638 L 7382,9636 7382,8638 9110,8638 Z M 7382,8598 L 7382,6836 9443,5646 9443,8446 9180,8598 7382,8598 Z"/>
     <path fill="rgb(185,185,185)" stroke="none" d="M 9180,8598 L 7382,9636 7382,8598 9180,8598 Z M 7382,8558 L 7382,6836 9443,5646 9443,8446 9249,8558 7382,8558 Z"/>
     <path fill="rgb(186,186,186)" stroke="none" d="M 9249,8558 L 7382,9636 7382,8558 9249,8558 Z M 7382,8518 L 7382,6836 9443,5646 9443,8446 9318,8518 7382,8518 Z"/>
     <path fill="rgb(187,187,187)" stroke="none" d="M 9318,8518 L 7382,9636 7382,8518 9318,8518 Z M 7382,8478 L 7382,6836 9443,5646 9443,8446 9388,8478 7382,8478 Z"/>
     <path fill="rgb(188,188,188)" stroke="none" d="M 9388,8478 L 7382,9636 7382,8478 9388,8478 Z M 7382,8438 L 7382,6836 9443,5646 9443,8438 7382,8438 Z"/>
     <path fill="rgb(189,189,189)" stroke="none" d="M 9443,8438 L 9443,8446 7382,9636 7382,8438 9443,8438 Z M 7382,8398 L 7382,6836 9443,5646 9443,8398 7382,8398 Z"/>
     <path fill="rgb(190,190,190)" stroke="none" d="M 9443,8398 L 9443,8446 7382,9636 7382,8398 9443,8398 Z M 7382,8358 L 7382,6836 9443,5646 9443,8358 7382,8358 Z"/>
     <path fill="rgb(191,191,191)" stroke="none" d="M 9443,8358 L 9443,8446 7382,9636 7382,8358 9443,8358 Z M 7382,8318 L 7382,6836 9443,5646 9443,8318 7382,8318 Z"/>
     <path fill="rgb(192,192,192)" stroke="none" d="M 9443,8318 L 9443,8446 7382,9636 7382,8318 9443,8318 Z M 9436,8278 L 7382,8278 7382,6836 9436,5650 9436,8278 Z"/>
     <path fill="rgb(193,193,193)" stroke="none" d="M 9436,8278 L 9436,5650 9443,5646 9443,8446 7382,9636 7382,8278 9436,8278 Z M 9397,8239 L 7382,8239 7382,6836 9397,5673 9397,8239 Z"/>
     <path fill="rgb(194,194,194)" stroke="none" d="M 9397,8239 L 9397,5673 9443,5646 9443,8446 7382,9636 7382,8239 9397,8239 Z M 9357,8199 L 7382,8199 7382,6836 9357,5696 9357,8199 Z"/>
     <path fill="rgb(195,195,195)" stroke="none" d="M 9357,8199 L 9357,5696 9443,5646 9443,8446 7382,9636 7382,8199 9357,8199 Z M 9317,8159 L 7382,8159 7382,6836 9317,5719 9317,8159 Z"/>
     <path fill="rgb(196,196,196)" stroke="none" d="M 9317,8159 L 9317,5719 9443,5646 9443,8446 7382,9636 7382,8159 9317,8159 Z M 9277,8119 L 7382,8119 7382,6836 9277,5742 9277,8119 Z"/>
     <path fill="rgb(197,197,197)" stroke="none" d="M 9277,8119 L 9277,5742 9443,5646 9443,8446 7382,9636 7382,8119 9277,8119 Z M 9237,8079 L 7382,8079 7382,6836 9237,5765 9237,8079 Z"/>
     <path fill="rgb(198,198,198)" stroke="none" d="M 9237,8079 L 9237,5765 9443,5646 9443,8446 7382,9636 7382,8079 9237,8079 Z M 9197,8039 L 7382,8039 7382,6836 9197,5788 9197,8039 Z"/>
     <path fill="rgb(199,199,199)" stroke="none" d="M 9197,8039 L 9197,5788 9443,5646 9443,8446 7382,9636 7382,8039 9197,8039 Z M 9157,7999 L 7382,7999 7382,6836 9157,5811 9157,7999 Z"/>
     <path fill="rgb(200,200,200)" stroke="none" d="M 9157,7999 L 9157,5811 9443,5646 9443,8446 7382,9636 7382,7999 9157,7999 Z M 9117,7959 L 7382,7959 7382,6836 9117,5834 9117,7959 Z"/>
     <path fill="rgb(201,201,201)" stroke="none" d="M 9117,7959 L 9117,5834 9443,5646 9443,8446 7382,9636 7382,7959 9117,7959 Z M 9077,7919 L 7382,7919 7382,6836 9077,5857 9077,7919 Z"/>
     <path fill="rgb(202,202,202)" stroke="none" d="M 9077,7919 L 9077,5857 9443,5646 9443,8446 7382,9636 7382,7919 9077,7919 Z M 9037,7879 L 7382,7879 7382,6836 9037,5880 9037,7879 Z"/>
     <path fill="rgb(203,203,203)" stroke="none" d="M 9037,7879 L 9037,5880 9443,5646 9443,8446 7382,9636 7382,7879 9037,7879 Z M 8997,7839 L 7382,7839 7382,6836 8997,5904 8997,7839 Z"/>
     <path fill="rgb(204,204,204)" stroke="none" d="M 8997,7839 L 8997,5904 9443,5646 9443,8446 7382,9636 7382,7839 8997,7839 Z M 8957,7799 L 7382,7799 7382,6836 8957,5927 8957,7799 Z"/>
     <path fill="rgb(205,205,205)" stroke="none" d="M 8957,7799 L 8957,5927 9443,5646 9443,8446 7382,9636 7382,7799 8957,7799 Z M 8917,7759 L 7382,7759 7382,6836 8917,5950 8917,7759 Z"/>
     <path fill="rgb(206,206,206)" stroke="none" d="M 8917,7759 L 8917,5950 9443,5646 9443,8446 7382,9636 7382,7759 8917,7759 Z M 8877,7719 L 7382,7719 7382,6836 8877,5973 8877,7719 Z"/>
     <path fill="rgb(207,207,207)" stroke="none" d="M 8877,7719 L 8877,5973 9443,5646 9443,8446 7382,9636 7382,7719 8877,7719 Z M 8838,6003 L 8838,7680 7382,7680 7382,6836 8825,6003 8838,6003 Z"/>
     <path fill="rgb(208,208,208)" stroke="none" d="M 8838,7680 L 8838,6003 8825,6003 9443,5646 9443,8446 7382,9636 7382,7680 8838,7680 Z M 8798,6043 L 8798,7640 7382,7640 7382,6836 8755,6043 8798,6043 Z"/>
     <path fill="rgb(209,209,209)" stroke="none" d="M 8798,7640 L 8798,6043 8755,6043 9443,5646 9443,8446 7382,9636 7382,7640 8798,7640 Z M 8758,6083 L 8758,7600 7382,7600 7382,6836 8686,6083 8758,6083 Z"/>
     <path fill="rgb(210,210,210)" stroke="none" d="M 8758,7600 L 8758,6083 8686,6083 9443,5646 9443,8446 7382,9636 7382,7600 8758,7600 Z M 8718,6123 L 8718,7560 7382,7560 7382,6836 8617,6123 8718,6123 Z"/>
     <path fill="rgb(211,211,211)" stroke="none" d="M 8718,7560 L 8718,6123 8617,6123 9443,5646 9443,8446 7382,9636 7382,7560 8718,7560 Z M 8678,6163 L 8678,7520 7382,7520 7382,6836 8548,6163 8678,6163 Z"/>
     <path fill="rgb(212,212,212)" stroke="none" d="M 8678,7520 L 8678,6163 8548,6163 9443,5646 9443,8446 7382,9636 7382,7520 8678,7520 Z M 8638,6203 L 8638,7480 7382,7480 7382,6836 8478,6203 8638,6203 Z"/>
     <path fill="rgb(213,213,213)" stroke="none" d="M 8638,7480 L 8638,6203 8478,6203 9443,5646 9443,8446 7382,9636 7382,7480 8638,7480 Z M 8598,6243 L 8598,7440 7401,7440 7401,6825 8409,6243 8598,6243 Z"/>
     <path fill="rgb(214,214,214)" stroke="none" d="M 7401,7440 L 8598,7440 8598,6243 8409,6243 9443,5646 9443,8446 7382,9636 7382,6836 7401,6825 7401,7440 Z M 8558,6283 L 8558,7400 7441,7400 7441,6802 8340,6283 8558,6283 Z"/>
     <path fill="rgb(215,215,215)" stroke="none" d="M 7441,7400 L 8558,7400 8558,6283 8340,6283 9443,5646 9443,8446 7382,9636 7382,6836 7441,6802 7441,7400 Z M 8518,6323 L 8518,7360 7481,7360 7481,6779 8270,6323 8518,6323 Z"/>
     <path fill="rgb(216,216,216)" stroke="none" d="M 7481,7360 L 8518,7360 8518,6323 8270,6323 9443,5646 9443,8446 7382,9636 7382,6836 7481,6779 7481,7360 Z M 8478,6363 L 8478,7320 7521,7320 7521,6756 8201,6363 8478,6363 Z"/>
     <path fill="rgb(217,217,217)" stroke="none" d="M 7521,7320 L 8478,7320 8478,6363 8201,6363 9443,5646 9443,8446 7382,9636 7382,6836 7521,6756 7521,7320 Z M 8438,6403 L 8438,7280 7561,7280 7561,6733 8132,6403 8438,6403 Z"/>
     <path fill="rgb(218,218,218)" stroke="none" d="M 7561,7280 L 8438,7280 8438,6403 8132,6403 9443,5646 9443,8446 7382,9636 7382,6836 7561,6733 7561,7280 Z M 8398,6443 L 8398,7240 7601,7240 7601,6710 8063,6443 8398,6443 Z"/>
     <path fill="rgb(219,219,219)" stroke="none" d="M 7601,7240 L 8398,7240 8398,6443 8063,6443 9443,5646 9443,8446 7382,9636 7382,6836 7601,6710 7601,7240 Z M 8358,6483 L 8358,7200 7641,7200 7641,6686 7993,6483 8358,6483 Z"/>
     <path fill="rgb(220,220,220)" stroke="none" d="M 7641,7200 L 8358,7200 8358,6483 7993,6483 9443,5646 9443,8446 7382,9636 7382,6836 7641,6686 7641,7200 Z M 8318,6523 L 8318,7160 7681,7160 7681,6663 7924,6523 8318,6523 Z"/>
     <path fill="rgb(221,221,221)" stroke="none" d="M 7681,7160 L 8318,7160 8318,6523 7924,6523 9443,5646 9443,8446 7382,9636 7382,6836 7681,6663 7681,7160 Z M 8279,6562 L 8279,7121 7720,7121 7720,6641 7857,6562 8279,6562 Z"/>
     <path fill="rgb(222,222,222)" stroke="none" d="M 7720,7121 L 8279,7121 8279,6562 7857,6562 9443,5646 9443,8446 7382,9636 7382,6836 7720,6641 7720,7121 Z M 8239,6602 L 8239,7081 7760,7081 7760,6618 7787,6602 8239,6602 Z"/>
     <path fill="rgb(223,223,223)" stroke="none" d="M 7760,7081 L 8239,7081 8239,6602 7787,6602 9443,5646 9443,8446 7382,9636 7382,6836 7760,6618 7760,7081 Z M 7800,6642 L 8199,6642 8199,7041 7800,7041 7800,6642 Z"/>
     <path fill="rgb(224,224,224)" stroke="none" d="M 7800,6642 L 7800,7041 8199,7041 8199,6642 7800,6642 Z M 7840,6682 L 8159,6682 8159,7001 7840,7001 7840,6682 Z M 7382,9636 L 7382,6836 9443,5646 9443,8446 7382,9636 Z"/>
     <path fill="rgb(225,225,225)" stroke="none" d="M 7840,6682 L 7840,7001 8159,7001 8159,6682 7840,6682 Z M 7880,6722 L 8119,6722 8119,6961 7880,6961 7880,6722 Z M 7382,9636 L 7382,6836 9443,5646 9443,8446 7382,9636 Z"/>
     <path fill="rgb(226,226,226)" stroke="none" d="M 7880,6722 L 7880,6961 8119,6961 8119,6722 7880,6722 Z M 7920,6762 L 8079,6762 8079,6921 7920,6921 7920,6762 Z M 7382,9636 L 7382,6836 9443,5646 9443,8446 7382,9636 Z"/>
     <path fill="rgb(227,227,227)" stroke="none" d="M 7920,6762 L 7920,6921 8079,6921 8079,6762 7920,6762 Z M 7960,6802 L 8039,6802 8039,6881 7960,6881 7960,6802 Z M 7382,9636 L 7382,6836 9443,5646 9443,8446 7382,9636 Z"/>
     <path fill="rgb(229,229,229)" stroke="none" d="M 7960,6802 L 7960,6881 8039,6881 8039,6802 7960,6802 Z M 7382,9636 L 7382,6836 9443,5646 9443,8446 7382,9636 Z"/>
     <path fill="none" stroke="rgb(255,255,255)" id="Drawing_3_0" stroke-width="40" stroke-linejoin="round" d="M 7382,9636 L 7382,6836 9443,5646 9443,8446 7382,9636 Z"/>
    </g>
    <g>
     <defs>
      <linearGradient id="Gradient_842" gradientUnits="userSpaceOnUse" x1="7685" y1="4806" x2="7685" y2="6836">
       <stop offset="0.1" stop-color="rgb(179,179,179)"/>
       <stop offset="1" stop-color="rgb(229,229,229)"/>
      </linearGradient>
     </defs>
     <path fill="url(#Gradient_842)" stroke="rgb(255,255,255)" id="Drawing_4_0" stroke-width="40" stroke-linejoin="round" d="M 7382,6836 L 5927,5996 7988,4806 9443,5646 7382,6836 Z"/>
    </g>
    <g>
     <path fill="none" stroke="rgb(0,0,0)" id="Drawing_5_0" stroke-width="40" stroke-linejoin="round" d="M 5927,8796 L 5927,5996 7988,4806 9443,5646 9443,8446 7382,9636 5927,8796 Z"/>
    </g>
    <g>
     <path fill="none" stroke="rgb(128,128,128)" id="Drawing_6_0" stroke-width="40" stroke-linejoin="round" d="M 7139,8936 L 6169,8376"/>
    </g>
    <g>
     <path fill="none" stroke="rgb(128,128,128)" id="Drawing_7_0" stroke-width="40" stroke-linejoin="round" d="M 7139,9216 L 6169,8656"/>
    </g>
    <g>
     <path fill="none" stroke="rgb(128,128,128)" id="Drawing_8_0" stroke-width="40" stroke-linejoin="round" d="M 7139,9076 L 6169,8516"/>
    </g>
    <g>
     <path fill="none" stroke="rgb(255,255,255)" id="Drawing_9_0" stroke-width="40" stroke-linejoin="round" d="M 7260,7256 L 6048,6556 6048,6416"/>
    </g>
    <g>
     <path fill="none" stroke="rgb(128,128,128)" id="Drawing_10_0" stroke-width="40" stroke-linejoin="round" d="M 7260,7256 L 7260,7116 6069,6413"/>
    </g>
    <g>
     <path fill="rgb(57,181,74)" stroke="none" d="M 6497,7978 L 6497,7813 6639,7895 6639,8060 6497,7978 Z"/>
     <path fill="none" stroke="rgb(128,128,128)" id="Drawing_11_0" stroke-width="40" stroke-linejoin="round" d="M 6497,7978 L 6497,7813 6639,7895 6639,8060 6497,7978 Z"/>
    </g>
    <g>
     <path fill="none" stroke="rgb(128,128,128)" id="Drawing_12_0" stroke-width="40" stroke-linejoin="round" d="M 7139,8796 L 6169,8236"/>
    </g>
   </g>
  </g>
 </g>
</svg>