<?xml version="1.0" encoding="UTF-8"?>

<svg version="1.2" baseProfile="tiny" width="69.31mm" height="48.67mm" viewBox="3649 1740 6931 4867" preserveAspectRatio="xMidYMid" fill-rule="evenodd" stroke-width="28.222" stroke-linejoin="round" xmlns="http://www.w3.org/2000/svg" xmlns:xlink="http://www.w3.org/1999/xlink" xml:space="preserve">
 <g visibility="visible" id="Slide_1">
  <g id="DrawingGroup_1">
   <g id="DrawingGroup_2">
    <g>
     <path fill="rgb(221,221,221)" stroke="none" d="M 7413,6587 C 7676,6587 10580,5311 10580,4922 10580,4534 10172,4534 9908,4534 9908,4700 7317,5366 7413,6587 Z"/>
     <path fill="none" stroke="rgb(221,221,221)" id="Drawing_1_0" stroke-linejoin="round" d="M 7413,6587 C 7676,6587 10580,5311 10580,4922 10580,4534 10172,4534 9908,4534 9908,4700 7317,5366 7413,6587 Z"/>
    </g>
    <g id="DrawingGroup_3">
     <g>
      <defs>
       <linearGradient id="Gradient_22" gradientUnits="userSpaceOnUse" x1="3857" y1="4946" x2="7222" y2="4952">
        <stop offset="0.1" stop-color="rgb(51,51,51)"/>
        <stop offset="1" stop-color="rgb(153,153,153)"/>
       </linearGradient>
      </defs>
      <path fill="url(#Gradient_22)" stroke="rgb(178,178,178)" id="Drawing_2_0" stroke-width="40" stroke-linejoin="round" d="M 3861,4534 L 3861,3424 7220,5366 7220,6475 3861,4534 Z"/>
     </g>
     <g>
      <path fill="rgb(51,51,51)" stroke="none" d="M 9508,5154 L 8114,5959 7220,5959 7220,5366 9508,4044 9508,5154 Z"/>
      <path fill="rgb(52,52,52)" stroke="none" d="M 8114,5959 L 7220,6476 7220,5959 8114,5959 Z M 9508,4044 L 10099,3702 10099,4812 9508,5154 9508,4044 Z M 9494,5162 L 8139,5945 7220,5945 7220,5366 9494,4052 9494,5162 Z"/>
      <path fill="rgb(53,53,53)" stroke="none" d="M 8139,5945 L 7220,6476 7220,5945 8139,5945 Z M 9494,4052 L 10099,3702 10099,4812 9494,5162 9494,4052 Z M 9480,5170 L 8163,5931 7220,5931 7220,5366 9480,4060 9480,5170 Z"/>
      <path fill="rgb(54,54,54)" stroke="none" d="M 8163,5931 L 7220,6476 7220,5931 8163,5931 Z M 9480,4060 L 10099,3702 10099,4812 9480,5170 9480,4060 Z M 9466,5178 L 8187,5917 7220,5917 7220,5366 9466,4068 9466,5178 Z"/>
      <path fill="rgb(55,55,55)" stroke="none" d="M 8187,5917 L 7220,6476 7220,5917 8187,5917 Z M 9466,4068 L 10099,3702 10099,4812 9466,5178 9466,4068 Z M 9452,5186 L 8211,5903 7220,5903 7220,5366 9452,4076 9452,5186 Z"/>
      <path fill="rgb(56,56,56)" stroke="none" d="M 8211,5903 L 7220,6476 7220,5903 8211,5903 Z M 9452,4076 L 10099,3702 10099,4812 9452,5186 9452,4076 Z M 9438,5194 L 8236,5889 7220,5889 7220,5366 9438,4084 9438,5194 Z"/>
      <path fill="rgb(57,57,57)" stroke="none" d="M 8236,5889 L 7220,6476 7220,5889 8236,5889 Z M 9438,4084 L 10099,3702 10099,4812 9438,5194 9438,4084 Z M 9424,5202 L 8260,5875 7220,5875 7220,5366 9424,4092 9424,5202 Z"/>
      <path fill="rgb(58,58,58)" stroke="none" d="M 8260,5875 L 7220,6476 7220,5875 8260,5875 Z M 9424,4092 L 10099,3702 10099,4812 9424,5202 9424,4092 Z M 9409,5211 L 8286,5860 7220,5860 7220,5366 9409,4101 9409,5211 Z"/>
      <path fill="rgb(59,59,59)" stroke="none" d="M 8286,5860 L 7220,6476 7220,5860 8286,5860 Z M 9409,4101 L 10099,3702 10099,4812 9409,5211 9409,4101 Z M 9395,5219 L 8310,5846 7220,5846 7220,5366 9395,4109 9395,5219 Z"/>
      <path fill="rgb(60,60,60)" stroke="none" d="M 8310,5846 L 7220,6476 7220,5846 8310,5846 Z M 9395,4109 L 10099,3702 10099,4812 9395,5219 9395,4109 Z M 9381,5227 L 8334,5832 7220,5832 7220,5366 9381,4117 9381,5227 Z"/>
      <path fill="rgb(61,61,61)" stroke="none" d="M 8334,5832 L 7220,6476 7220,5832 8334,5832 Z M 9381,4117 L 10099,3702 10099,4812 9381,5227 9381,4117 Z M 9367,5235 L 8358,5818 7220,5818 7220,5366 9367,4125 9367,5235 Z"/>
      <path fill="rgb(62,62,62)" stroke="none" d="M 8358,5818 L 7220,6476 7220,5818 8358,5818 Z M 9367,4125 L 10099,3702 10099,4812 9367,5235 9367,4125 Z M 9353,5243 L 8383,5804 7220,5804 7220,5366 9353,4133 9353,5243 Z"/>
      <path fill="rgb(63,63,63)" stroke="none" d="M 8383,5804 L 7220,6476 7220,5804 8383,5804 Z M 9353,4133 L 10099,3702 10099,4812 9353,5243 9353,4133 Z M 9339,5251 L 8407,5790 7220,5790 7220,5366 9339,4141 9339,5251 Z"/>
      <path fill="rgb(64,64,64)" stroke="none" d="M 8407,5790 L 7220,6476 7220,5790 8407,5790 Z M 9339,4141 L 10099,3702 10099,4812 9339,5251 9339,4141 Z M 9325,5259 L 8431,5776 7220,5776 7220,5366 9325,4149 9325,5259 Z"/>
      <path fill="rgb(65,65,65)" stroke="none" d="M 8431,5776 L 7220,6476 7220,5776 8431,5776 Z M 9325,4149 L 10099,3702 10099,4812 9325,5259 9325,4149 Z M 9311,5267 L 8455,5762 7220,5762 7220,5366 9311,4157 9311,5267 Z"/>
      <path fill="rgb(66,66,66)" stroke="none" d="M 8455,5762 L 7220,6476 7220,5762 8455,5762 Z M 9311,4157 L 10099,3702 10099,4812 9311,5267 9311,4157 Z M 9296,5276 L 8481,5747 7220,5747 7220,5366 9296,4166 9296,5276 Z"/>
      <path fill="rgb(67,67,67)" stroke="none" d="M 8481,5747 L 7220,6476 7220,5747 8481,5747 Z M 9296,4166 L 10099,3702 10099,4812 9296,5276 9296,4166 Z M 9282,5284 L 8506,5733 7220,5733 7220,5366 9282,4174 9282,5284 Z"/>
      <path fill="rgb(68,68,68)" stroke="none" d="M 8506,5733 L 7220,6476 7220,5733 8506,5733 Z M 9282,4174 L 10099,3702 10099,4812 9282,5284 9282,4174 Z M 9268,5292 L 8530,5719 7220,5719 7220,5366 9268,4182 9268,5292 Z"/>
      <path fill="rgb(69,69,69)" stroke="none" d="M 8530,5719 L 7220,6476 7220,5719 8530,5719 Z M 9268,4182 L 10099,3702 10099,4812 9268,5292 9268,4182 Z M 9254,5300 L 8554,5705 7220,5705 7220,5366 9254,4190 9254,5300 Z"/>
      <path fill="rgb(70,70,70)" stroke="none" d="M 8554,5705 L 7220,6476 7220,5705 8554,5705 Z M 9254,4190 L 10099,3702 10099,4812 9254,5300 9254,4190 Z M 9240,5308 L 8578,5691 7220,5691 7220,5366 9240,4198 9240,5308 Z"/>
      <path fill="rgb(71,71,71)" stroke="none" d="M 8578,5691 L 7220,6476 7220,5691 8578,5691 Z M 9240,4198 L 10099,3702 10099,4812 9240,5308 9240,4198 Z M 9226,5317 L 8602,5677 7220,5677 7220,5366 9226,4207 9226,5317 Z"/>
      <path fill="rgb(72,72,72)" stroke="none" d="M 8602,5677 L 7220,6476 7220,5677 8602,5677 Z M 9226,4207 L 10099,3702 10099,4812 9226,5317 9226,4207 Z M 9212,5325 L 8627,5663 7220,5663 7220,5366 9212,4215 9212,5325 Z"/>
      <path fill="rgb(73,73,73)" stroke="none" d="M 8627,5663 L 7220,6476 7220,5663 8627,5663 Z M 9212,4215 L 10099,3702 10099,4812 9212,5325 9212,4215 Z M 9198,5333 L 8651,5649 7220,5649 7220,5366 9198,4223 9198,5333 Z"/>
      <path fill="rgb(74,74,74)" stroke="none" d="M 8651,5649 L 7220,6476 7220,5649 8651,5649 Z M 9198,4223 L 10099,3702 10099,4812 9198,5333 9198,4223 Z M 9183,5341 L 8677,5634 7220,5634 7220,5366 9183,4231 9183,5341 Z"/>
      <path fill="rgb(75,75,75)" stroke="none" d="M 8677,5634 L 7220,6476 7220,5634 8677,5634 Z M 9183,4231 L 10099,3702 10099,4812 9183,5341 9183,4231 Z M 9169,5350 L 8701,5620 7220,5620 7220,5366 9169,4240 9169,5350 Z"/>
      <path fill="rgb(76,76,76)" stroke="none" d="M 8701,5620 L 7220,6476 7220,5620 8701,5620 Z M 9169,4240 L 10099,3702 10099,4812 9169,5350 9169,4240 Z M 9155,5358 L 8725,5606 7220,5606 7220,5366 9155,4248 9155,5358 Z"/>
      <path fill="rgb(77,77,77)" stroke="none" d="M 8725,5606 L 7220,6476 7220,5606 8725,5606 Z M 9155,4248 L 10099,3702 10099,4812 9155,5358 9155,4248 Z M 9141,5366 L 8749,5592 7220,5592 7220,5366 9141,4256 9141,5366 Z"/>
      <path fill="rgb(78,78,78)" stroke="none" d="M 8749,5592 L 7220,6476 7220,5592 8749,5592 Z M 9141,4256 L 10099,3702 10099,4812 9141,5366 9141,4256 Z M 9127,5374 L 8774,5578 7220,5578 7220,5366 9127,4264 9127,5374 Z"/>
      <path fill="rgb(79,79,79)" stroke="none" d="M 8774,5578 L 7220,6476 7220,5578 8774,5578 Z M 9127,4264 L 10099,3702 10099,4812 9127,5374 9127,4264 Z M 9113,5382 L 8798,5564 7220,5564 7220,5366 9113,4272 9113,5382 Z"/>
      <path fill="rgb(80,80,80)" stroke="none" d="M 8798,5564 L 7220,6476 7220,5564 8798,5564 Z M 9113,4272 L 10099,3702 10099,4812 9113,5382 9113,4272 Z M 9099,5390 L 8822,5550 7220,5550 7220,5366 9099,4280 9099,5390 Z"/>
      <path fill="rgb(81,81,81)" stroke="none" d="M 8822,5550 L 7220,6476 7220,5550 8822,5550 Z M 9099,4280 L 10099,3702 10099,4812 9099,5390 9099,4280 Z M 9085,5398 L 8846,5536 7220,5536 7220,5366 9085,4288 9085,5398 Z"/>
      <path fill="rgb(82,82,82)" stroke="none" d="M 8846,5536 L 7220,6476 7220,5536 8846,5536 Z M 9085,4288 L 10099,3702 10099,4812 9085,5398 9085,4288 Z M 9070,5407 L 8872,5521 7220,5521 7220,5366 9070,4297 9070,5407 Z"/>
      <path fill="rgb(83,83,83)" stroke="none" d="M 8872,5521 L 7220,6476 7220,5521 8872,5521 Z M 9070,4297 L 10099,3702 10099,4812 9070,5407 9070,4297 Z M 9056,5415 L 8897,5507 7220,5507 7220,5366 9056,4305 9056,5415 Z"/>
      <path fill="rgb(84,84,84)" stroke="none" d="M 8897,5507 L 7220,6476 7220,5507 8897,5507 Z M 9056,4305 L 10099,3702 10099,4812 9056,5415 9056,4305 Z M 9042,5423 L 8921,5493 7220,5493 7220,5366 9042,4313 9042,5423 Z"/>
      <path fill="rgb(85,85,85)" stroke="none" d="M 8921,5493 L 7220,6476 7220,5493 8921,5493 Z M 9042,4313 L 10099,3702 10099,4812 9042,5423 9042,4313 Z M 9028,5431 L 8945,5479 7220,5479 7220,5366 9028,4321 9028,5431 Z"/>
      <path fill="rgb(86,86,86)" stroke="none" d="M 8945,5479 L 7220,6476 7220,5479 8945,5479 Z M 9028,4321 L 10099,3702 10099,4812 9028,5431 9028,4321 Z M 9014,5439 L 8969,5465 7220,5465 7220,5366 9014,4329 9014,5439 Z"/>
      <path fill="rgb(87,87,87)" stroke="none" d="M 8969,5465 L 7220,6476 7220,5465 8969,5465 Z M 9014,4329 L 10099,3702 10099,4812 9014,5439 9014,4329 Z M 9000,5447 L 8993,5451 7220,5451 7220,5366 9000,4337 9000,5447 Z"/>
      <path fill="rgb(88,88,88)" stroke="none" d="M 8993,5451 L 7220,6476 7220,5451 8993,5451 Z M 9000,4337 L 10099,3702 10099,4812 9000,5447 9000,4337 Z M 8986,5437 L 7220,5437 7220,5366 8986,4345 8986,5437 Z"/>
      <path fill="rgb(89,89,89)" stroke="none" d="M 8986,5437 L 8986,4345 10099,3702 10099,4812 7220,6476 7220,5437 8986,5437 Z M 8972,5423 L 7220,5423 7220,5366 8972,4353 8972,5423 Z"/>
      <path fill="rgb(90,90,90)" stroke="none" d="M 8972,5423 L 8972,4353 10099,3702 10099,4812 7220,6476 7220,5423 8972,5423 Z M 8957,5408 L 7220,5408 7220,5366 8957,4362 8957,5408 Z"/>
      <path fill="rgb(91,91,91)" stroke="none" d="M 8957,5408 L 8957,4362 10099,3702 10099,4812 7220,6476 7220,5408 8957,5408 Z M 8943,5394 L 7221,5394 7221,5365 8943,4370 8943,5394 Z"/>
      <path fill="rgb(92,92,92)" stroke="none" d="M 7221,5394 L 8943,5394 8943,4370 10099,3702 10099,4812 7220,6476 7220,5366 7221,5365 7221,5394 Z M 8929,5380 L 7235,5380 7235,5357 8929,4378 8929,5380 Z"/>
      <path fill="rgb(93,93,93)" stroke="none" d="M 7235,5380 L 8929,5380 8929,4378 10099,3702 10099,4812 7220,6476 7220,5366 7235,5357 7235,5380 Z M 8915,5366 L 7249,5366 7249,5349 8915,4386 8915,5366 Z"/>
      <path fill="rgb(94,94,94)" stroke="none" d="M 7249,5366 L 8915,5366 8915,4386 10099,3702 10099,4812 7220,6476 7220,5366 7249,5349 7249,5366 Z M 8901,5352 L 7263,5352 7263,5341 8901,4394 8901,5352 Z"/>
      <path fill="rgb(95,95,95)" stroke="none" d="M 7263,5352 L 8901,5352 8901,4394 10099,3702 10099,4812 7220,6476 7220,5366 7263,5341 7263,5352 Z M 8887,5338 L 7277,5338 7277,5333 8887,4403 8887,5338 Z"/>
      <path fill="rgb(96,96,96)" stroke="none" d="M 7277,5338 L 8887,5338 8887,4403 10099,3702 10099,4812 7220,6476 7220,5366 7277,5333 7277,5338 Z M 8873,5324 L 7293,5324 8873,4411 8873,5324 Z"/>
      <path fill="rgb(97,97,97)" stroke="none" d="M 8873,5324 L 8873,4411 10099,3702 10099,4812 7220,6476 7220,5366 7293,5324 8873,5324 Z M 8859,5310 L 7317,5310 8859,4419 8859,5310 Z"/>
      <path fill="rgb(98,98,98)" stroke="none" d="M 8859,5310 L 8859,4419 10099,3702 10099,4812 7220,6476 7220,5366 7317,5310 8859,5310 Z M 8844,5295 L 7343,5295 8844,4427 8844,5295 Z"/>
      <path fill="rgb(99,99,99)" stroke="none" d="M 8844,5295 L 8844,4427 10099,3702 10099,4812 7220,6476 7220,5366 7343,5295 8844,5295 Z M 8830,5281 L 7367,5281 8830,4435 8830,5281 Z"/>
      <path fill="rgb(100,100,100)" stroke="none" d="M 8830,5281 L 8830,4435 10099,3702 10099,4812 7220,6476 7220,5366 7367,5281 8830,5281 Z M 8816,5267 L 7391,5267 8816,4444 8816,5267 Z"/>
      <path fill="rgb(101,101,101)" stroke="none" d="M 8816,5267 L 8816,4444 10099,3702 10099,4812 7220,6476 7220,5366 7391,5267 8816,5267 Z M 8802,5253 L 7416,5253 8802,4452 8802,5253 Z"/>
      <path fill="rgb(102,102,102)" stroke="none" d="M 8802,5253 L 8802,4452 10099,3702 10099,4812 7220,6476 7220,5366 7416,5253 8802,5253 Z M 8788,5239 L 7440,5239 8788,4460 8788,5239 Z"/>
      <path fill="rgb(103,103,103)" stroke="none" d="M 8788,5239 L 8788,4460 10099,3702 10099,4812 7220,6476 7220,5366 7440,5239 8788,5239 Z M 8774,5225 L 7464,5225 8774,4468 8774,5225 Z"/>
      <path fill="rgb(104,104,104)" stroke="none" d="M 8774,5225 L 8774,4468 10099,3702 10099,4812 7220,6476 7220,5366 7464,5225 8774,5225 Z M 8760,5211 L 7488,5211 8760,4476 8760,5211 Z"/>
      <path fill="rgb(105,105,105)" stroke="none" d="M 8760,5211 L 8760,4476 10099,3702 10099,4812 7220,6476 7220,5366 7488,5211 8760,5211 Z M 8745,5196 L 7514,5196 8745,4485 8745,5196 Z"/>
      <path fill="rgb(106,106,106)" stroke="none" d="M 8745,5196 L 8745,4485 10099,3702 10099,4812 7220,6476 7220,5366 7514,5196 8745,5196 Z M 8731,5182 L 7538,5182 8731,4493 8731,5182 Z"/>
      <path fill="rgb(107,107,107)" stroke="none" d="M 8731,5182 L 8731,4493 10099,3702 10099,4812 7220,6476 7220,5366 7538,5182 8731,5182 Z M 8717,5168 L 7563,5168 8717,4501 8717,5168 Z"/>
      <path fill="rgb(108,108,108)" stroke="none" d="M 8717,5168 L 8717,4501 10099,3702 10099,4812 7220,6476 7220,5366 7563,5168 8717,5168 Z M 8703,5154 L 7587,5154 8703,4509 8703,5154 Z"/>
      <path fill="rgb(109,109,109)" stroke="none" d="M 8703,5154 L 8703,4509 10099,3702 10099,4812 7220,6476 7220,5366 7587,5154 8703,5154 Z M 8689,5140 L 7611,5140 8689,4517 8689,5140 Z"/>
      <path fill="rgb(110,110,110)" stroke="none" d="M 8689,5140 L 8689,4517 10099,3702 10099,4812 7220,6476 7220,5366 7611,5140 8689,5140 Z M 8675,5126 L 7635,5126 8675,4525 8675,5126 Z"/>
      <path fill="rgb(111,111,111)" stroke="none" d="M 8675,5126 L 8675,4525 10099,3702 10099,4812 7220,6476 7220,5366 7635,5126 8675,5126 Z M 8661,5112 L 7659,5112 8661,4533 8661,5112 Z"/>
      <path fill="rgb(112,112,112)" stroke="none" d="M 8661,5112 L 8661,4533 10099,3702 10099,4812 7220,6476 7220,5366 7659,5112 8661,5112 Z M 8647,5098 L 7684,5098 8647,4541 8647,5098 Z"/>
      <path fill="rgb(113,113,113)" stroke="none" d="M 8647,5098 L 8647,4541 10099,3702 10099,4812 7220,6476 7220,5366 7684,5098 8647,5098 Z M 8632,5083 L 7710,5083 8632,4550 8632,5083 Z"/>
      <path fill="rgb(114,114,114)" stroke="none" d="M 8632,5083 L 8632,4550 10099,3702 10099,4812 7220,6476 7220,5366 7710,5083 8632,5083 Z M 8618,5069 L 7734,5069 8618,4558 8618,5069 Z"/>
      <path fill="rgb(115,115,115)" stroke="none" d="M 8618,5069 L 8618,4558 10099,3702 10099,4812 7220,6476 7220,5366 7734,5069 8618,5069 Z M 8604,5055 L 7758,5055 8604,4566 8604,5055 Z"/>
      <path fill="rgb(116,116,116)" stroke="none" d="M 8604,5055 L 8604,4566 10099,3702 10099,4812 7220,6476 7220,5366 7758,5055 8604,5055 Z M 8590,5041 L 7782,5041 8590,4574 8590,5041 Z"/>
      <path fill="rgb(117,117,117)" stroke="none" d="M 8590,5041 L 8590,4574 10099,3702 10099,4812 7220,6476 7220,5366 7782,5041 8590,5041 Z M 8576,5027 L 7807,5027 8576,4582 8576,5027 Z"/>
      <path fill="rgb(118,118,118)" stroke="none" d="M 8576,5027 L 8576,4582 10099,3702 10099,4812 7220,6476 7220,5366 7807,5027 8576,5027 Z M 8562,5013 L 7831,5013 8562,4590 8562,5013 Z"/>
      <path fill="rgb(119,119,119)" stroke="none" d="M 8562,5013 L 8562,4590 10099,3702 10099,4812 7220,6476 7220,5366 7831,5013 8562,5013 Z M 8548,4999 L 7855,4999 8548,4598 8548,4999 Z"/>
      <path fill="rgb(120,120,120)" stroke="none" d="M 8548,4999 L 8548,4598 10099,3702 10099,4812 7220,6476 7220,5366 7855,4999 8548,4999 Z M 8534,4985 L 7879,4985 8534,4607 8534,4985 Z"/>
      <path fill="rgb(121,121,121)" stroke="none" d="M 8534,4985 L 8534,4607 10099,3702 10099,4812 7220,6476 7220,5366 7879,4985 8534,4985 Z M 8519,4970 L 7905,4970 8519,4615 8519,4970 Z"/>
      <path fill="rgb(122,122,122)" stroke="none" d="M 8519,4970 L 8519,4615 10099,3702 10099,4812 7220,6476 7220,5366 7905,4970 8519,4970 Z M 8505,4956 L 7929,4956 8505,4623 8505,4956 Z"/>
      <path fill="rgb(123,123,123)" stroke="none" d="M 8505,4956 L 8505,4623 10099,3702 10099,4812 7220,6476 7220,5366 7929,4956 8505,4956 Z M 8491,4942 L 7954,4942 8491,4631 8491,4942 Z"/>
      <path fill="rgb(124,124,124)" stroke="none" d="M 8491,4942 L 8491,4631 10099,3702 10099,4812 7220,6476 7220,5366 7954,4942 8491,4942 Z M 8477,4928 L 7978,4928 8477,4639 8477,4928 Z"/>
      <path fill="rgb(125,125,125)" stroke="none" d="M 8477,4928 L 8477,4639 10099,3702 10099,4812 7220,6476 7220,5366 7978,4928 8477,4928 Z M 8463,4914 L 8002,4914 8463,4648 8463,4914 Z"/>
      <path fill="rgb(126,126,126)" stroke="none" d="M 8463,4914 L 8463,4648 10099,3702 10099,4812 7220,6476 7220,5366 8002,4914 8463,4914 Z M 8449,4900 L 8026,4900 8449,4656 8449,4900 Z"/>
      <path fill="rgb(127,127,127)" stroke="none" d="M 8449,4900 L 8449,4656 10099,3702 10099,4812 7220,6476 7220,5366 8026,4900 8449,4900 Z M 8435,4886 L 8050,4886 8435,4664 8435,4886 Z"/>
      <path fill="rgb(128,128,128)" stroke="none" d="M 8435,4886 L 8435,4664 10099,3702 10099,4812 7220,6476 7220,5366 8050,4886 8435,4886 Z M 8421,4872 L 8075,4872 8421,4672 8421,4872 Z"/>
      <path fill="rgb(129,129,129)" stroke="none" d="M 8421,4872 L 8421,4672 10099,3702 10099,4812 7220,6476 7220,5366 8075,4872 8421,4872 Z M 8406,4857 L 8101,4857 8406,4681 8406,4857 Z"/>
      <path fill="rgb(130,130,130)" stroke="none" d="M 8406,4857 L 8406,4681 10099,3702 10099,4812 7220,6476 7220,5366 8101,4857 8406,4857 Z M 8392,4843 L 8125,4843 8392,4689 8392,4843 Z"/>
      <path fill="rgb(131,131,131)" stroke="none" d="M 8392,4843 L 8392,4689 10099,3702 10099,4812 7220,6476 7220,5366 8125,4843 8392,4843 Z M 8378,4829 L 8149,4829 8378,4697 8378,4829 Z"/>
      <path fill="rgb(132,132,132)" stroke="none" d="M 8378,4829 L 8378,4697 10099,3702 10099,4812 7220,6476 7220,5366 8149,4829 8378,4829 Z M 8364,4815 L 8173,4815 8364,4705 8364,4815 Z"/>
      <path fill="rgb(133,133,133)" stroke="none" d="M 8364,4815 L 8364,4705 10099,3702 10099,4812 7220,6476 7220,5366 8173,4815 8364,4815 Z M 8350,4801 L 8198,4801 8350,4713 8350,4801 Z"/>
      <path fill="rgb(134,134,134)" stroke="none" d="M 8350,4801 L 8350,4713 10099,3702 10099,4812 7220,6476 7220,5366 8198,4801 8350,4801 Z M 8336,4787 L 8222,4787 8336,4721 8336,4787 Z"/>
      <path fill="rgb(135,135,135)" stroke="none" d="M 8336,4787 L 8336,4721 10099,3702 10099,4812 7220,6476 7220,5366 8222,4787 8336,4787 Z M 8322,4773 L 8246,4773 8322,4729 8322,4773 Z"/>
      <path fill="rgb(136,136,136)" stroke="none" d="M 8322,4773 L 8322,4729 10099,3702 10099,4812 7220,6476 7220,5366 8246,4773 8322,4773 Z M 8308,4759 L 8270,4759 8308,4737 8308,4759 Z"/>
      <path fill="rgb(137,137,137)" stroke="none" d="M 8308,4759 L 8308,4737 10099,3702 10099,4812 7220,6476 7220,5366 8270,4759 8308,4759 Z"/>
      <path fill="rgb(138,138,138)" stroke="none" d="M 7220,6476 L 7220,5366 10099,3702 10099,4812 7220,6476 Z"/>
      <path fill="rgb(139,139,139)" stroke="none" d="M 7220,6476 L 7220,5366 10099,3702 10099,4812 7220,6476 Z"/>
      <path fill="rgb(140,140,140)" stroke="none" d="M 7220,6476 L 7220,5366 10099,3702 10099,4812 7220,6476 Z"/>
      <path fill="rgb(141,141,141)" stroke="none" d="M 7220,6476 L 7220,5366 10099,3702 10099,4812 7220,6476 Z"/>
      <path fill="rgb(142,142,142)" stroke="none" d="M 7220,6476 L 7220,5366 10099,3702 10099,4812 7220,6476 Z"/>
      <path fill="rgb(143,143,143)" stroke="none" d="M 7220,6476 L 7220,5366 10099,3702 10099,4812 7220,6476 Z"/>
      <path fill="rgb(144,144,144)" stroke="none" d="M 7220,6476 L 7220,5366 10099,3702 10099,4812 7220,6476 Z"/>
      <path fill="rgb(145,145,145)" stroke="none" d="M 7220,6476 L 7220,5366 10099,3702 10099,4812 7220,6476 Z"/>
      <path fill="rgb(146,146,146)" stroke="none" d="M 7220,6476 L 7220,5366 10099,3702 10099,4812 7220,6476 Z"/>
      <path fill="rgb(147,147,147)" stroke="none" d="M 7220,6476 L 7220,5366 10099,3702 10099,4812 7220,6476 Z"/>
      <path fill="rgb(148,148,148)" stroke="none" d="M 7220,6476 L 7220,5366 10099,3702 10099,4812 7220,6476 Z"/>
      <path fill="rgb(149,149,149)" stroke="none" d="M 7220,6476 L 7220,5366 10099,3702 10099,4812 7220,6476 Z"/>
      <path fill="rgb(150,150,150)" stroke="none" d="M 7220,6476 L 7220,5366 10099,3702 10099,4812 7220,6476 Z"/>
      <path fill="rgb(151,151,151)" stroke="none" d="M 7220,6476 L 7220,5366 10099,3702 10099,4812 7220,6476 Z"/>
      <path fill="rgb(153,153,153)" stroke="none" d="M 7220,6476 L 7220,5366 10099,3702 10099,4812 7220,6476 Z"/>
      <path fill="none" stroke="rgb(178,178,178)" id="Drawing_3_0" stroke-width="40" stroke-linejoin="round" d="M 7220,6476 L 7220,5366 10099,3702 10099,4812 7220,6476 Z"/>
     </g>
     <g>
      <defs>
       <linearGradient id="Gradient_23" gradientUnits="userSpaceOnUse" x1="6980" y1="1760" x2="6980" y2="5366">
        <stop offset="0.1" stop-color="rgb(51,51,51)"/>
        <stop offset="1" stop-color="rgb(153,153,153)"/>
       </linearGradient>
      </defs>
      <path fill="url(#Gradient_23)" stroke="rgb(178,178,178)" id="Drawing_4_0" stroke-width="40" stroke-linejoin="round" d="M 7220,5366 L 3861,3424 6740,1760 10100,3702 7220,5366 Z"/>
     </g>
     <g>
      <path fill="none" stroke="rgb(153,153,153)" id="Drawing_5_0" stroke-width="40" stroke-linejoin="round" d="M 5013,4312 L 5013,4978"/>
     </g>
     <g>
      <path fill="none" stroke="rgb(178,178,178)" id="Drawing_6_0" stroke-width="40" stroke-linejoin="round" d="M 7125,5733 L 5589,4845"/>
     </g>
     <g>
      <path fill="none" stroke="rgb(178,178,178)" id="Drawing_7_0" stroke-width="40" stroke-linejoin="round" d="M 5580,4645 L 5580,4867"/>
     </g>
     <g>
      <path fill="none" stroke="rgb(102,102,102)" id="Drawing_8_0" stroke-width="40" stroke-linejoin="round" d="M 7116,5533 L 7116,5755"/>
     </g>
     <g>
      <path fill="none" stroke="rgb(102,102,102)" id="Drawing_9_0" stroke-width="40" stroke-linejoin="round" d="M 7116,5533 L 5580,4645"/>
     </g>
     <g>
      <path fill="rgb(57,181,74)" stroke="none" d="M 5205,4645 L 5205,4423 5397,4534 5397,4756 5205,4645 Z"/>
      <path fill="none" stroke="rgb(102,102,102)" id="Drawing_10_0" stroke-width="40" stroke-linejoin="round" d="M 5205,4645 L 5205,4423 5397,4534 5397,4756 5205,4645 Z"/>
     </g>
     <g>
      <path fill="none" stroke="rgb(153,153,153)" id="Drawing_11_0" stroke-width="40" stroke-linejoin="round" d="M 4821,4201 L 4821,4867"/>
     </g>
     <g>
      <path fill="none" stroke="rgb(153,153,153)" id="Drawing_12_0" stroke-width="40" stroke-linejoin="round" d="M 4629,4090 L 4629,4756"/>
     </g>
     <g>
      <path fill="none" stroke="rgb(153,153,153)" id="Drawing_13_0" stroke-width="40" stroke-linejoin="round" d="M 4437,3979 L 4437,4645"/>
     </g>
     <g>
      <path fill="none" stroke="rgb(153,153,153)" id="Drawing_14_0" stroke-width="40" stroke-linejoin="round" d="M 4245,3868 L 4245,4534"/>
     </g>
     <g>
      <path fill="none" stroke="rgb(153,153,153)" id="Drawing_15_0" stroke-width="40" stroke-linejoin="round" d="M 4053,3757 L 4053,4423"/>
     </g>
     <g>
      <defs>
       <linearGradient id="Gradient_24" gradientUnits="userSpaceOnUse" x1="3668" y1="3923" x2="3862" y2="3923">
        <stop offset="0.1" stop-color="rgb(51,51,51)"/>
        <stop offset="1" stop-color="rgb(153,153,153)"/>
       </linearGradient>
      </defs>
      <path fill="url(#Gradient_24)" stroke="rgb(178,178,178)" id="Drawing_16_0" stroke-width="40" stroke-linejoin="round" d="M 3669,4423 L 3669,3313 3861,3424 3861,4534 3669,4423 Z"/>
     </g>
     <g>
      <defs>
       <linearGradient id="Gradient_25" gradientUnits="userSpaceOnUse" x1="7219" y1="5976" x2="7413" y2="5976">
        <stop offset="0.1" stop-color="rgb(51,51,51)"/>
        <stop offset="1" stop-color="rgb(153,153,153)"/>
       </linearGradient>
      </defs>
      <path fill="url(#Gradient_25)" stroke="rgb(178,178,178)" id="Drawing_17_0" stroke-width="40" stroke-linejoin="round" d="M 7220,6476 L 7220,5366 7412,5477 7412,6587 7220,6476 Z"/>
     </g>
     <g>
      <path fill="none" stroke="rgb(0,0,0)" id="Drawing_18_0" stroke-width="40" stroke-linejoin="round" d="M 3669,4423 L 3669,3313 3861,3424 6740,1760 10100,3702 10100,4811 7412,6365 7412,6587 3669,4423 Z"/>
     </g>
    </g>
   </g>
   <g id="DrawingGroup_4">
    <g>
     <path fill="rgb(0,0,0)" stroke="none" d="M 8519,6096 L 8519,4137 9368,4627 9368,6586 8519,6096 Z"/>
     <path fill="none" stroke="rgb(0,0,0)" id="Drawing_19_0" stroke-width="40" stroke-linejoin="round" d="M 8519,6096 L 8519,4137 9368,4627 9368,6586 8519,6096 Z"/>
    </g>
    <g>
     <defs>
      <linearGradient id="Gradient_26" gradientUnits="userSpaceOnUse" x1="8706" y1="6014" x2="9179" y2="6014">
       <stop offset="0.1" stop-color="rgb(179,179,179)"/>
       <stop offset="1" stop-color="rgb(229,229,229)"/>
      </linearGradient>
     </defs>
     <path fill="url(#Gradient_26)" stroke="rgb(238,238,238)" id="Drawing_20_0" stroke-width="40" stroke-linejoin="round" d="M 9179,5878 L 9179,6422 8708,6150 8708,5606 9179,5878 Z"/>
    </g>
    <g>
     <path fill="none" stroke="rgb(255,255,255)" id="Drawing_21_0" stroke-width="40" stroke-linejoin="round" d="M 9273,6423 L 9273,6477"/>
    </g>
    <g>
     <path fill="none" stroke="rgb(255,255,255)" id="Drawing_22_0" stroke-width="40" stroke-linejoin="round" d="M 9273,6314 L 9273,6368"/>
    </g>
    <g>
     <path fill="none" stroke="rgb(255,255,255)" id="Drawing_23_0" stroke-width="40" stroke-linejoin="round" d="M 9273,6205 L 9273,6259"/>
    </g>
    <g>
     <path fill="none" stroke="rgb(255,255,255)" id="Drawing_24_0" stroke-width="40" stroke-linejoin="round" d="M 9273,6096 L 9273,6150"/>
    </g>
    <g>
     <path fill="none" stroke="rgb(255,255,255)" id="Drawing_25_0" stroke-width="40" stroke-linejoin="round" d="M 9273,5987 L 9273,6041"/>
    </g>
    <g>
     <path fill="none" stroke="rgb(255,255,255)" id="Drawing_26_0" stroke-width="40" stroke-linejoin="round" d="M 9273,5879 L 9273,5933"/>
    </g>
    <g>
     <path fill="none" stroke="rgb(255,255,255)" id="Drawing_27_0" stroke-width="40" stroke-linejoin="round" d="M 9273,5770 L 9273,5824"/>
    </g>
    <g>
     <path fill="none" stroke="rgb(255,255,255)" id="Drawing_28_0" stroke-width="40" stroke-linejoin="round" d="M 9273,5661 L 9273,5715"/>
    </g>
    <g>
     <path fill="none" stroke="rgb(255,255,255)" id="Drawing_29_0" stroke-width="40" stroke-linejoin="round" d="M 9273,5552 L 9273,5606"/>
    </g>
    <g>
     <path fill="none" stroke="rgb(255,255,255)" id="Drawing_30_0" stroke-width="40" stroke-linejoin="round" d="M 9273,5443 L 9273,5497"/>
    </g>
    <g>
     <path fill="none" stroke="rgb(255,255,255)" id="Drawing_31_0" stroke-width="40" stroke-linejoin="round" d="M 9273,5334 L 9273,5388"/>
    </g>
    <g>
     <path fill="none" stroke="rgb(255,255,255)" id="Drawing_32_0" stroke-width="40" stroke-linejoin="round" d="M 9273,5225 L 9273,5279"/>
    </g>
    <g>
     <path fill="none" stroke="rgb(255,255,255)" id="Drawing_33_0" stroke-width="40" stroke-linejoin="round" d="M 9273,5117 L 9273,5171"/>
    </g>
    <g>
     <path fill="none" stroke="rgb(255,255,255)" id="Drawing_34_0" stroke-width="40" stroke-linejoin="round" d="M 9273,5008 L 9273,5062"/>
    </g>
    <g>
     <path fill="none" stroke="rgb(255,255,255)" id="Drawing_35_0" stroke-width="40" stroke-linejoin="round" d="M 9273,4899 L 9273,4953"/>
    </g>
    <g>
     <path fill="none" stroke="rgb(255,255,255)" id="Drawing_36_0" stroke-width="40" stroke-linejoin="round" d="M 9273,4790 L 9273,4844"/>
    </g>
    <g>
     <defs>
      <linearGradient id="Gradient_27" gradientUnits="userSpaceOnUse" x1="8706" y1="5361" x2="9179" y2="5361">
       <stop offset="0.1" stop-color="rgb(179,179,179)"/>
       <stop offset="1" stop-color="rgb(229,229,229)"/>
      </linearGradient>
     </defs>
     <path fill="url(#Gradient_27)" stroke="rgb(238,238,238)" id="Drawing_37_0" stroke-width="40" stroke-linejoin="round" d="M 9179,5225 L 9179,5769 8708,5497 8708,4953 9179,5225 Z"/>
    </g>
    <g>
     <defs>
      <linearGradient id="Gradient_28" gradientUnits="userSpaceOnUse" x1="8706" y1="4708" x2="9179" y2="4708">
       <stop offset="0.1" stop-color="rgb(179,179,179)"/>
       <stop offset="1" stop-color="rgb(229,229,229)"/>
      </linearGradient>
     </defs>
     <path fill="url(#Gradient_28)" stroke="rgb(238,238,238)" id="Drawing_38_0" stroke-width="40" stroke-linejoin="round" d="M 9179,4572 L 9179,5116 8708,4844 8708,4300 9179,4572 Z"/>
    </g>
    <g>
     <path fill="none" stroke="rgb(255,255,255)" id="Drawing_39_0" stroke-width="40" stroke-linejoin="round" d="M 9273,4681 L 9273,4735"/>
    </g>
    <g>
     <path fill="none" stroke="rgb(255,255,255)" id="Drawing_40_0" stroke-width="40" stroke-linejoin="round" d="M 9273,4572 L 9273,4626"/>
    </g>
    <g>
     <path fill="none" stroke="rgb(255,255,255)" id="Drawing_41_0" stroke-width="40" stroke-linejoin="round" d="M 9273,6532 L 9273,6586"/>
    </g>
    <g>
     <path fill="none" stroke="rgb(255,255,255)" id="Drawing_42_0" stroke-width="40" stroke-linejoin="round" d="M 8614,6042 L 8614,6096"/>
    </g>
    <g>
     <path fill="none" stroke="rgb(255,255,255)" id="Drawing_43_0" stroke-width="40" stroke-linejoin="round" d="M 8614,5933 L 8614,5987"/>
    </g>
    <g>
     <path fill="none" stroke="rgb(255,255,255)" id="Drawing_44_0" stroke-width="40" stroke-linejoin="round" d="M 8614,5824 L 8614,5878"/>
    </g>
    <g>
     <path fill="none" stroke="rgb(255,255,255)" id="Drawing_45_0" stroke-width="40" stroke-linejoin="round" d="M 8614,5715 L 8614,5769"/>
    </g>
    <g>
     <path fill="none" stroke="rgb(255,255,255)" id="Drawing_46_0" stroke-width="40" stroke-linejoin="round" d="M 8614,5606 L 8614,5660"/>
    </g>
    <g>
     <path fill="none" stroke="rgb(255,255,255)" id="Drawing_47_0" stroke-width="40" stroke-linejoin="round" d="M 8614,5498 L 8614,5552"/>
    </g>
    <g>
     <path fill="none" stroke="rgb(255,255,255)" id="Drawing_48_0" stroke-width="40" stroke-linejoin="round" d="M 8614,5389 L 8614,5443"/>
    </g>
    <g>
     <path fill="none" stroke="rgb(255,255,255)" id="Drawing_49_0" stroke-width="40" stroke-linejoin="round" d="M 8614,5280 L 8614,5334"/>
    </g>
    <g>
     <path fill="none" stroke="rgb(255,255,255)" id="Drawing_50_0" stroke-width="40" stroke-linejoin="round" d="M 8614,5171 L 8614,5225"/>
    </g>
    <g>
     <path fill="none" stroke="rgb(255,255,255)" id="Drawing_51_0" stroke-width="40" stroke-linejoin="round" d="M 8614,5062 L 8614,5116"/>
    </g>
    <g>
     <path fill="none" stroke="rgb(255,255,255)" id="Drawing_52_0" stroke-width="40" stroke-linejoin="round" d="M 8614,4953 L 8614,5007"/>
    </g>
    <g>
     <path fill="none" stroke="rgb(255,255,255)" id="Drawing_53_0" stroke-width="40" stroke-linejoin="round" d="M 8614,4844 L 8614,4898"/>
    </g>
    <g>
     <path fill="none" stroke="rgb(255,255,255)" id="Drawing_54_0" stroke-width="40" stroke-linejoin="round" d="M 8614,4736 L 8614,4790"/>
    </g>
    <g>
     <path fill="none" stroke="rgb(255,255,255)" id="Drawing_55_0" stroke-width="40" stroke-linejoin="round" d="M 8614,4627 L 8614,4681"/>
    </g>
    <g>
     <path fill="none" stroke="rgb(255,255,255)" id="Drawing_56_0" stroke-width="40" stroke-linejoin="round" d="M 8614,4518 L 8614,4572"/>
    </g>
    <g>
     <path fill="none" stroke="rgb(255,255,255)" id="Drawing_57_0" stroke-width="40" stroke-linejoin="round" d="M 8614,4409 L 8614,4463"/>
    </g>
    <g>
     <path fill="none" stroke="rgb(255,255,255)" id="Drawing_58_0" stroke-width="40" stroke-linejoin="round" d="M 8614,4300 L 8614,4354"/>
    </g>
    <g>
     <path fill="none" stroke="rgb(255,255,255)" id="Drawing_59_0" stroke-width="40" stroke-linejoin="round" d="M 8614,4191 L 8614,4245"/>
    </g>
    <g>
     <path fill="none" stroke="rgb(255,255,255)" id="Drawing_60_0" stroke-width="40" stroke-linejoin="round" d="M 8614,6151 L 8614,6205"/>
    </g>
   </g>
  </g>
 </g>
</svg>