<?xml version="1.0" encoding="UTF-8"?>

<svg version="1.2" baseProfile="tiny" width="18.13mm" height="32.68mm" viewBox="2713 9365 1813 3268" preserveAspectRatio="xMidYMid" fill-rule="evenodd" stroke-width="28.222" stroke-linejoin="round" xmlns="http://www.w3.org/2000/svg" xmlns:xlink="http://www.w3.org/1999/xlink" xml:space="preserve">
 <g visibility="visible" id="Slide_1">
  <g id="DrawingGroup_1">
   <g>
    <path fill="rgb(221,221,221)" stroke="none" d="M 3629,12613 C 3980,12613 4525,12539 4525,12243 4525,11947 4269,11947 4141,11947 4141,12169 3629,12316 3629,12613 Z"/>
    <path fill="none" stroke="rgb(221,221,221)" id="Drawing_1_0" stroke-linejoin="round" d="M 3629,12613 C 3980,12613 4525,12539 4525,12243 4525,11947 4269,11947 4141,11947 4141,12169 3629,12316 3629,12613 Z"/>
   </g>
   <g id="DrawingGroup_2">
    <g>
     <defs>
      <linearGradient id="Gradient_613" gradientUnits="userSpaceOnUse" x1="2731" y1="11650" x2="4143" y2="11652">
       <stop offset="0.1" stop-color="rgb(179,179,179)"/>
       <stop offset="1" stop-color="rgb(229,229,229)"/>
      </linearGradient>
     </defs>
     <path fill="url(#Gradient_613)" stroke="none" id="Drawing_2_0" d="M 2733,12225 L 2737,12272 2749,12316 2768,12357 2794,12395 2825,12430 2863,12462 2906,12491 2953,12516 3060,12559 3179,12589 3306,12607 3437,12613 3568,12607 3696,12589 3814,12559 3921,12516 3968,12491 4011,12462 4049,12430 4081,12395 4106,12357 4125,12316 4137,12272 4141,12225 4141,10690 4137,10744 4125,10794 4106,10841 4081,10884 4049,10924 4011,10961 3968,10994 3921,11023 3814,11072 3696,11106 3568,11127 3437,11134 3306,11127 3179,11106 3060,11072 2953,11023 2906,10994 2863,10961 2825,10924 2794,10884 2768,10841 2749,10794 2737,10744 2733,10690 2733,11688 2733,12217 2733,12312 2733,12312 2733,12312 2733,12312 2733,12312 2733,12309 2733,12294 2733,12225 Z"/>
     <path fill="none" stroke="rgb(255,255,255)" id="Drawing_2_1" stroke-width="40" stroke-linejoin="round" d="M 2733,12225 C 2733,12743 4141,12743 4141,12225 L 4141,10690 C 4141,11282 2733,11282 2733,10690 2733,10788 2733,12743 2733,12225 Z"/>
    </g>
    <g>
     <defs>
      <linearGradient id="Gradient_614" gradientUnits="userSpaceOnUse" x1="3436" y1="11135" x2="3438" y2="10300">
       <stop offset="0.1" stop-color="rgb(179,179,179)"/>
       <stop offset="1" stop-color="rgb(229,229,229)"/>
      </linearGradient>
     </defs>
     <path fill="url(#Gradient_614)" stroke="none" id="Drawing_3_0" d="M 2733,10745 L 2737,10792 2749,10836 2768,10877 2794,10915 2825,10950 2863,10982 2906,11011 2953,11036 3060,11079 3179,11109 3306,11127 3437,11134 3568,11127 3696,11109 3814,11079 3921,11036 3968,11011 4011,10982 4049,10950 4081,10915 4106,10877 4125,10836 4137,10792 4141,10745 4141,10301 4137,10355 4125,10405 4106,10452 4081,10495 4049,10535 4011,10572 3968,10605 3921,10634 3814,10683 3696,10717 3568,10738 3437,10745 3306,10738 3179,10717 3060,10683 2953,10634 2906,10605 2863,10572 2825,10535 2794,10495 2768,10452 2749,10405 2737,10355 2733,10301 2733,10745 Z"/>
     <path fill="none" stroke="rgb(127,127,127)" id="Drawing_3_1" stroke-width="40" stroke-linejoin="round" d="M 2733,10745 C 2733,11263 4141,11263 4141,10745 L 4141,10301 C 4141,10893 2733,10893 2733,10301 2733,10399 2733,10745 2733,10745 Z"/>
    </g>
    <g>
     <defs>
      <linearGradient id="Gradient_615" gradientUnits="userSpaceOnUse" x1="3437" y1="9950" x2="3437" y2="10764">
       <stop offset="0.1" stop-color="rgb(179,179,179)"/>
       <stop offset="1" stop-color="rgb(229,229,229)"/>
      </linearGradient>
     </defs>
     <path fill="url(#Gradient_615)" stroke="none" id="Drawing_4_0" d="M 3949,10061 L 3994,10090 4033,10123 4066,10158 4093,10195 4114,10234 4129,10274 4138,10315 4141,10357 4138,10399 4129,10440 4114,10480 4093,10519 4066,10556 4033,10591 3994,10624 3949,10653 3898,10679 3842,10702 3781,10721 3717,10736 3650,10748 3580,10757 3437,10764 3294,10757 3224,10748 3157,10736 3093,10721 3032,10702 2976,10679 2925,10653 2880,10624 2841,10591 2808,10556 2781,10519 2760,10480 2745,10440 2736,10399 2733,10357 2736,10315 2745,10274 2760,10234 2781,10195 2808,10158 2841,10123 2880,10090 2925,10061 2976,10035 3032,10012 3093,9993 3157,9978 3225,9966 3294,9957 3437,9950 3580,9957 3650,9966 3717,9978 3781,9993 3842,10012 3898,10035 3949,10061 Z"/>
     <path fill="none" stroke="rgb(255,255,255)" id="Drawing_4_1" stroke-width="40" stroke-linejoin="round" d="M 3949,10061 C 4205,10209 4205,10505 3949,10653 3693,10801 3181,10801 2925,10653 2669,10505 2669,10209 2925,10061 3182,9913 3693,9913 3949,10061 Z"/>
    </g>
    <g>
     <defs>
      <linearGradient id="Gradient_616" gradientUnits="userSpaceOnUse" x1="3629" y1="10361" x2="3999" y2="10361">
       <stop offset="0.1" stop-color="rgb(179,179,179)"/>
       <stop offset="1" stop-color="rgb(229,229,229)"/>
      </linearGradient>
     </defs>
     <path fill="url(#Gradient_616)" stroke="none" id="Drawing_5_0" d="M 3942,10287 L 3963,10301 3979,10314 3985,10321 3989,10328 3993,10335 3996,10341 3998,10348 3999,10354 3999,10360 3998,10366 3997,10372 3995,10378 3993,10383 3990,10389 3983,10399 3976,10408 3968,10415 3960,10422 3947,10432 3942,10435 3918,10447 3894,10456 3871,10462 3848,10466 3826,10468 3805,10467 3785,10466 3766,10463 3749,10459 3733,10454 3708,10445 3692,10438 3686,10435 3665,10421 3649,10407 3643,10400 3638,10394 3635,10387 3632,10381 3630,10374 3629,10368 3629,10362 3630,10356 3631,10350 3633,10344 3635,10338 3638,10333 3645,10323 3652,10314 3660,10306 3668,10300 3681,10290 3686,10287 3710,10275 3734,10266 3757,10259 3780,10256 3802,10254 3823,10254 3843,10256 3862,10259 3879,10263 3895,10267 3920,10276 3936,10284 3942,10287 Z"/>
     <path fill="none" stroke="rgb(255,255,255)" id="Drawing_5_1" stroke-width="40" stroke-linejoin="round" d="M 3942,10287 C 4070,10361 3942,10435 3942,10435 3814,10509 3686,10435 3686,10435 3558,10361 3686,10287 3686,10287 3814,10213 3942,10287 3942,10287 Z"/>
    </g>
    <g>
     <path fill="none" stroke="rgb(0,0,0)" id="Drawing_6_0" stroke-width="40" stroke-linejoin="round" d="M 2733,12225 C 2733,12742 4141,12742 4141,12225 L 4141,10320 C 4141,9876 2733,9876 2733,10320 2733,10418 2733,12742 2733,12225 Z"/>
    </g>
    <g>
     <path fill="rgb(204,204,204)" stroke="none" d="M 3757,10319 L 3757,9385 3885,9385 3885,10319 3757,10319 Z"/>
     <path fill="none" stroke="rgb(0,0,0)" id="Drawing_7_0" stroke-width="40" stroke-linejoin="round" d="M 3757,10319 L 3757,9385 3885,9385 3885,10319 3757,10319 Z"/>
    </g>
    <g>
     <defs>
      <linearGradient id="Gradient_617" gradientUnits="userSpaceOnUse" x1="3245" y1="10139" x2="3615" y2="10139">
       <stop offset="0.1" stop-color="rgb(179,179,179)"/>
       <stop offset="1" stop-color="rgb(229,229,229)"/>
      </linearGradient>
     </defs>
     <path fill="url(#Gradient_617)" stroke="none" id="Drawing_8_0" d="M 3558,10065 L 3579,10079 3595,10092 3601,10099 3605,10106 3609,10113 3612,10119 3614,10126 3615,10132 3615,10138 3614,10144 3613,10150 3611,10156 3609,10161 3606,10167 3599,10177 3592,10186 3584,10193 3576,10200 3563,10210 3558,10213 3534,10225 3510,10234 3487,10240 3464,10244 3442,10246 3421,10245 3401,10244 3382,10241 3365,10237 3349,10232 3324,10223 3308,10216 3302,10213 3281,10199 3265,10185 3259,10178 3254,10172 3251,10165 3248,10159 3246,10152 3245,10146 3245,10140 3246,10134 3247,10128 3249,10122 3251,10116 3254,10111 3261,10101 3268,10092 3276,10084 3284,10078 3297,10068 3302,10065 3326,10053 3350,10044 3373,10037 3396,10034 3418,10032 3439,10032 3459,10034 3478,10037 3495,10041 3511,10045 3536,10054 3552,10062 3558,10065 Z"/>
     <path fill="none" stroke="rgb(255,255,255)" id="Drawing_8_1" stroke-width="40" stroke-linejoin="round" d="M 3558,10065 C 3686,10139 3558,10213 3558,10213 3430,10287 3302,10213 3302,10213 3174,10139 3302,10065 3302,10065 3430,9991 3558,10065 3558,10065 Z"/>
    </g>
    <g>
     <defs>
      <linearGradient id="Gradient_618" gradientUnits="userSpaceOnUse" x1="3117" y1="10394" x2="3629" y2="10394">
       <stop offset="0.1" stop-color="rgb(147,212,240)"/>
       <stop offset="1" stop-color="rgb(233,246,252)"/>
      </linearGradient>
     </defs>
     <path fill="url(#Gradient_618)" stroke="rgb(127,127,127)" id="Drawing_9_0" stroke-width="40" stroke-linejoin="round" d="M 3117,10320 L 3245,10246 3629,10468 3501,10542 3117,10320 Z"/>
    </g>
   </g>
  </g>
 </g>
</svg>