<?xml version="1.0" encoding="UTF-8"?>

<svg version="1.2" baseProfile="tiny" width="45.06mm" height="47.94mm" viewBox="3559 3915 4506 4794" preserveAspectRatio="xMidYMid" fill-rule="evenodd" stroke-width="28.222" stroke-linejoin="round" xmlns="http://www.w3.org/2000/svg" xmlns:xlink="http://www.w3.org/1999/xlink" xml:space="preserve">
 <g visibility="visible" id="Slide_1">
  <g id="DrawingGroup_1">
   <g>
    <path fill="rgb(221,221,221)" stroke="none" d="M 6569,8689 C 6980,8689 8064,8516 8064,8256 8064,7997 7877,7565 7466,7565 7466,7824 6569,8256 6569,8689 Z"/>
    <path fill="none" stroke="rgb(221,221,221)" id="Drawing_1_0" stroke-linejoin="round" d="M 6569,8689 C 6980,8689 8064,8516 8064,8256 8064,7997 7877,7565 7466,7565 7466,7824 6569,8256 6569,8689 Z"/>
   </g>
   <g id="DrawingGroup_2">
    <g>
     <defs>
      <linearGradient id="Gradient_375" gradientUnits="userSpaceOnUse" x1="3575" y1="6525" x2="6573" y2="6531">
       <stop offset="0.1" stop-color="rgb(179,179,179)"/>
       <stop offset="1" stop-color="rgb(229,229,229)"/>
      </linearGradient>
     </defs>
     <path fill="url(#Gradient_375)" stroke="rgb(255,255,255)" id="Drawing_2_0" stroke-width="40" stroke-linejoin="round" d="M 3579,6961 L 3579,4368 6569,6097 6569,8689 3579,6961 Z"/>
    </g>
    <g>
     <path fill="rgb(179,179,179)" stroke="none" d="M 6569,8053 L 6569,6096 7317,5664 7317,8053 6569,8053 Z"/>
     <path fill="rgb(180,180,180)" stroke="none" d="M 7317,8053 L 7317,8257 6569,8689 6569,8053 7317,8053 Z M 6569,8023 L 6569,6096 7317,5664 7317,8023 6569,8023 Z"/>
     <path fill="rgb(181,181,181)" stroke="none" d="M 7317,8023 L 7317,8257 6569,8689 6569,8023 7317,8023 Z M 6569,7993 L 6569,6096 7317,5664 7317,7993 6569,7993 Z"/>
     <path fill="rgb(182,182,182)" stroke="none" d="M 7317,7993 L 7317,8257 6569,8689 6569,7993 7317,7993 Z M 6569,7962 L 6569,6096 7317,5664 7317,7962 6569,7962 Z"/>
     <path fill="rgb(183,183,183)" stroke="none" d="M 7317,7962 L 7317,8257 6569,8689 6569,7962 7317,7962 Z M 6569,7932 L 6569,6096 7317,5664 7317,7932 6569,7932 Z"/>
     <path fill="rgb(184,184,184)" stroke="none" d="M 7317,7932 L 7317,8257 6569,8689 6569,7932 7317,7932 Z M 6569,7902 L 6569,6096 7317,5664 7317,7902 6569,7902 Z"/>
     <path fill="rgb(185,185,185)" stroke="none" d="M 7317,7902 L 7317,8257 6569,8689 6569,7902 7317,7902 Z M 6569,7872 L 6569,6096 7317,5664 7317,7872 6569,7872 Z"/>
     <path fill="rgb(186,186,186)" stroke="none" d="M 7317,7872 L 7317,8257 6569,8689 6569,7872 7317,7872 Z M 6569,7841 L 6569,6096 7317,5664 7317,7841 6569,7841 Z"/>
     <path fill="rgb(187,187,187)" stroke="none" d="M 7317,7841 L 7317,8257 6569,8689 6569,7841 7317,7841 Z M 6569,7811 L 6569,6096 7317,5664 7317,7811 6569,7811 Z"/>
     <path fill="rgb(188,188,188)" stroke="none" d="M 7317,7811 L 7317,8257 6569,8689 6569,7811 7317,7811 Z M 6569,7781 L 6569,6096 7317,5664 7317,7781 6569,7781 Z"/>
     <path fill="rgb(189,189,189)" stroke="none" d="M 7317,7781 L 7317,8257 6569,8689 6569,7781 7317,7781 Z M 6569,7750 L 6569,6096 7317,5664 7317,7750 6569,7750 Z"/>
     <path fill="rgb(190,190,190)" stroke="none" d="M 7317,7750 L 7317,8257 6569,8689 6569,7750 7317,7750 Z M 6569,7720 L 6569,6096 7317,5664 7317,7720 6569,7720 Z"/>
     <path fill="rgb(191,191,191)" stroke="none" d="M 7317,7720 L 7317,8257 6569,8689 6569,7720 7317,7720 Z M 6569,7690 L 6569,6096 7317,5664 7317,7690 6569,7690 Z"/>
     <path fill="rgb(192,192,192)" stroke="none" d="M 7317,7690 L 7317,8257 6569,8689 6569,7690 7317,7690 Z M 6569,7660 L 6569,6096 7317,5664 7317,7660 6569,7660 Z"/>
     <path fill="rgb(193,193,193)" stroke="none" d="M 7317,7660 L 7317,8257 6569,8689 6569,7660 7317,7660 Z M 6569,7629 L 6569,6096 7317,5664 7317,7629 6569,7629 Z"/>
     <path fill="rgb(194,194,194)" stroke="none" d="M 7317,7629 L 7317,8257 6569,8689 6569,7629 7317,7629 Z M 6569,7599 L 6569,6096 7317,5664 7317,7599 6569,7599 Z"/>
     <path fill="rgb(195,195,195)" stroke="none" d="M 7317,7599 L 7317,8257 6569,8689 6569,7599 7317,7599 Z M 6569,7569 L 6569,6096 7317,5664 7317,7569 6569,7569 Z"/>
     <path fill="rgb(196,196,196)" stroke="none" d="M 7317,7569 L 7317,8257 6569,8689 6569,7569 7317,7569 Z M 6569,7538 L 6569,6096 7317,5664 7317,7538 6569,7538 Z"/>
     <path fill="rgb(197,197,197)" stroke="none" d="M 7317,7538 L 7317,8257 6569,8689 6569,7538 7317,7538 Z M 6569,7508 L 6569,6096 7317,5664 7317,7508 6569,7508 Z"/>
     <path fill="rgb(198,198,198)" stroke="none" d="M 7317,7508 L 7317,8257 6569,8689 6569,7508 7317,7508 Z M 6569,7478 L 6569,6096 7317,5664 7317,7478 6569,7478 Z"/>
     <path fill="rgb(199,199,199)" stroke="none" d="M 7317,7478 L 7317,8257 6569,8689 6569,7478 7317,7478 Z M 7317,5692 L 7317,7448 6569,7448 6569,6096 7269,5692 7317,5692 Z"/>
     <path fill="rgb(200,200,200)" stroke="none" d="M 7317,7448 L 7317,8257 6569,8689 6569,7448 7317,7448 Z M 7269,5692 L 7317,5664 7317,5692 7269,5692 Z M 7317,5723 L 7317,7417 6569,7417 6569,6096 7215,5723 7317,5723 Z"/>
     <path fill="rgb(201,201,201)" stroke="none" d="M 7317,7417 L 7317,8257 6569,8689 6569,7417 7317,7417 Z M 7215,5723 L 7317,5664 7317,5723 7215,5723 Z M 7317,5753 L 7317,7387 6569,7387 6569,6096 7163,5753 7317,5753 Z"/>
     <path fill="rgb(202,202,202)" stroke="none" d="M 7317,7387 L 7317,8257 6569,8689 6569,7387 7317,7387 Z M 7163,5753 L 7317,5664 7317,5753 7163,5753 Z M 7317,5783 L 7317,7357 6569,7357 6569,6096 7111,5783 7317,5783 Z"/>
     <path fill="rgb(203,203,203)" stroke="none" d="M 7317,7357 L 7317,8257 6569,8689 6569,7357 7317,7357 Z M 7111,5783 L 7317,5664 7317,5783 7111,5783 Z M 7317,5813 L 7317,7326 6569,7326 6569,6096 7059,5813 7317,5813 Z"/>
     <path fill="rgb(204,204,204)" stroke="none" d="M 7317,7326 L 7317,8257 6569,8689 6569,7326 7317,7326 Z M 7059,5813 L 7317,5664 7317,5813 7059,5813 Z M 7317,5844 L 7317,7296 6569,7296 6569,6096 7005,5844 7317,5844 Z"/>
     <path fill="rgb(205,205,205)" stroke="none" d="M 7317,7296 L 7317,8257 6569,8689 6569,7296 7317,7296 Z M 7005,5844 L 7317,5664 7317,5844 7005,5844 Z M 7317,5874 L 7317,7266 6569,7266 6569,6096 6953,5874 7317,5874 Z"/>
     <path fill="rgb(206,206,206)" stroke="none" d="M 7317,7266 L 7317,8257 6569,8689 6569,7266 7317,7266 Z M 6953,5874 L 7317,5664 7317,5874 6953,5874 Z M 7317,5904 L 7317,7236 6569,7236 6569,6096 6901,5904 7317,5904 Z"/>
     <path fill="rgb(207,207,207)" stroke="none" d="M 7317,7236 L 7317,8257 6569,8689 6569,7236 7317,7236 Z M 6901,5904 L 7317,5664 7317,5904 6901,5904 Z M 7317,5935 L 7317,7205 6569,7205 6569,6096 6848,5935 7317,5935 Z"/>
     <path fill="rgb(208,208,208)" stroke="none" d="M 7317,7205 L 7317,8257 6569,8689 6569,7205 7317,7205 Z M 6848,5935 L 7317,5664 7317,5935 6848,5935 Z M 7317,5965 L 7317,7175 6569,7175 6569,6096 6796,5965 7317,5965 Z"/>
     <path fill="rgb(209,209,209)" stroke="none" d="M 7317,7175 L 7317,8257 6569,8689 6569,7175 7317,7175 Z M 6796,5965 L 7317,5664 7317,5965 6796,5965 Z M 7317,5995 L 7317,7145 6569,7145 6569,6096 6744,5995 7317,5995 Z"/>
     <path fill="rgb(210,210,210)" stroke="none" d="M 7317,7145 L 7317,8257 6569,8689 6569,7145 7317,7145 Z M 6744,5995 L 7317,5664 7317,5995 6744,5995 Z M 7317,6025 L 7317,7115 6569,7115 6569,6096 6692,6025 7317,6025 Z"/>
     <path fill="rgb(211,211,211)" stroke="none" d="M 7317,7115 L 7317,8257 6569,8689 6569,7115 7317,7115 Z M 6692,6025 L 7317,5664 7317,6025 6692,6025 Z M 7306,6056 L 7306,7084 6569,7084 6569,6096 6638,6056 7306,6056 Z"/>
     <path fill="rgb(212,212,212)" stroke="none" d="M 7306,7084 L 7306,6056 6638,6056 7317,5664 7317,8257 6569,8689 6569,7084 7306,7084 Z M 7276,6086 L 7276,7054 6569,7054 6569,6096 6586,6086 7276,6086 Z"/>
     <path fill="rgb(213,213,213)" stroke="none" d="M 7276,7054 L 7276,6086 6586,6086 7317,5664 7317,8257 6569,8689 6569,7054 7276,7054 Z M 7246,6116 L 7246,7024 6569,7024 6569,6116 7246,6116 Z"/>
     <path fill="rgb(214,214,214)" stroke="none" d="M 7246,7024 L 7246,6116 6569,6116 6569,6096 7317,5664 7317,8257 6569,8689 6569,7024 7246,7024 Z M 7215,6147 L 7215,6993 6569,6993 6569,6147 7215,6147 Z"/>
     <path fill="rgb(215,215,215)" stroke="none" d="M 7215,6993 L 7215,6147 6569,6147 6569,6096 7317,5664 7317,8257 6569,8689 6569,6993 7215,6993 Z M 7185,6177 L 7185,6963 6569,6963 6569,6177 7185,6177 Z"/>
     <path fill="rgb(216,216,216)" stroke="none" d="M 7185,6963 L 7185,6177 6569,6177 6569,6096 7317,5664 7317,8257 6569,8689 6569,6963 7185,6963 Z M 7155,6207 L 7155,6933 6569,6933 6569,6207 7155,6207 Z"/>
     <path fill="rgb(217,217,217)" stroke="none" d="M 7155,6933 L 7155,6207 6569,6207 6569,6096 7317,5664 7317,8257 6569,8689 6569,6933 7155,6933 Z M 7125,6237 L 7125,6903 6569,6903 6569,6237 7125,6237 Z"/>
     <path fill="rgb(218,218,218)" stroke="none" d="M 7125,6903 L 7125,6237 6569,6237 6569,6096 7317,5664 7317,8257 6569,8689 6569,6903 7125,6903 Z M 7094,6268 L 7094,6872 6569,6872 6569,6268 7094,6268 Z"/>
     <path fill="rgb(219,219,219)" stroke="none" d="M 7094,6872 L 7094,6268 6569,6268 6569,6096 7317,5664 7317,8257 6569,8689 6569,6872 7094,6872 Z M 7064,6298 L 7064,6842 6569,6842 6569,6298 7064,6298 Z"/>
     <path fill="rgb(220,220,220)" stroke="none" d="M 7064,6842 L 7064,6298 6569,6298 6569,6096 7317,5664 7317,8257 6569,8689 6569,6842 7064,6842 Z M 7034,6328 L 7034,6812 6569,6812 6569,6328 7034,6328 Z"/>
     <path fill="rgb(221,221,221)" stroke="none" d="M 7034,6812 L 7034,6328 6569,6328 6569,6096 7317,5664 7317,8257 6569,8689 6569,6812 7034,6812 Z M 6581,6359 L 7003,6359 7003,6781 6581,6781 6581,6359 Z"/>
     <path fill="rgb(222,222,222)" stroke="none" d="M 6581,6359 L 6581,6781 7003,6781 7003,6359 6581,6359 Z M 6611,6389 L 6973,6389 6973,6751 6611,6751 6611,6389 Z M 6569,8689 L 6569,6096 7317,5664 7317,8257 6569,8689 Z"/>
     <path fill="rgb(223,223,223)" stroke="none" d="M 6611,6389 L 6611,6751 6973,6751 6973,6389 6611,6389 Z M 6641,6419 L 6943,6419 6943,6721 6641,6721 6641,6419 Z M 6569,8689 L 6569,6096 7317,5664 7317,8257 6569,8689 Z"/>
     <path fill="rgb(224,224,224)" stroke="none" d="M 6641,6419 L 6641,6721 6943,6721 6943,6419 6641,6419 Z M 6671,6449 L 6913,6449 6913,6691 6671,6691 6671,6449 Z M 6569,8689 L 6569,6096 7317,5664 7317,8257 6569,8689 Z"/>
     <path fill="rgb(225,225,225)" stroke="none" d="M 6671,6449 L 6671,6691 6913,6691 6913,6449 6671,6449 Z M 6702,6480 L 6882,6480 6882,6660 6702,6660 6702,6480 Z M 6569,8689 L 6569,6096 7317,5664 7317,8257 6569,8689 Z"/>
     <path fill="rgb(226,226,226)" stroke="none" d="M 6702,6480 L 6702,6660 6882,6660 6882,6480 6702,6480 Z M 6732,6510 L 6852,6510 6852,6630 6732,6630 6732,6510 Z M 6569,8689 L 6569,6096 7317,5664 7317,8257 6569,8689 Z"/>
     <path fill="rgb(227,227,227)" stroke="none" d="M 6732,6510 L 6732,6630 6852,6630 6852,6510 6732,6510 Z M 6762,6540 L 6822,6540 6822,6600 6762,6600 6762,6540 Z M 6569,8689 L 6569,6096 7317,5664 7317,8257 6569,8689 Z"/>
     <path fill="rgb(229,229,229)" stroke="none" d="M 6762,6540 L 6762,6600 6822,6600 6822,6540 6762,6540 Z M 6569,8689 L 6569,6096 7317,5664 7317,8257 6569,8689 Z"/>
     <path fill="none" stroke="rgb(255,255,255)" id="Drawing_3_0" stroke-width="40" stroke-linejoin="round" d="M 6569,8689 L 6569,6096 7317,5664 7317,8257 6569,8689 Z"/>
    </g>
    <g>
     <defs>
      <linearGradient id="Gradient_376" gradientUnits="userSpaceOnUse" x1="5448" y1="3935" x2="5448" y2="6096">
       <stop offset="0.1" stop-color="rgb(179,179,179)"/>
       <stop offset="1" stop-color="rgb(229,229,229)"/>
      </linearGradient>
     </defs>
     <path fill="url(#Gradient_376)" stroke="rgb(255,255,255)" id="Drawing_4_0" stroke-width="40" stroke-linejoin="round" d="M 6569,6096 L 3579,4367 4327,3935 7317,5664 6569,6096 Z"/>
    </g>
    <g>
     <path fill="rgb(255,255,255)" stroke="none" d="M 3729,6961 L 3729,6788 4327,7134 4327,7307 3729,6961 Z"/>
     <path fill="none" stroke="rgb(221,221,221)" id="Drawing_5_0" stroke-width="40" stroke-linejoin="round" d="M 3729,6961 L 3729,6788 4327,7134 4327,7307 3729,6961 Z"/>
    </g>
    <g>
     <path fill="rgb(57,181,74)" stroke="none" d="M 6270,6442 L 6270,6269 6420,6355 6420,6528 6270,6442 Z"/>
     <path fill="none" stroke="rgb(127,127,127)" id="Drawing_6_0" stroke-width="40" stroke-linejoin="round" d="M 6270,6442 L 6270,6269 6420,6355 6420,6528 6270,6442 Z"/>
    </g>
    <g>
     <path fill="rgb(127,127,127)" stroke="none" d="M 4626,4627 L 4028,4281 3878,4367 4476,4713 4626,4627 Z"/>
     <path fill="none" stroke="rgb(0,0,0)" id="Drawing_7_0" stroke-width="40" stroke-linejoin="round" d="M 4626,4627 L 4028,4281 3878,4367 4476,4713 4626,4627 Z"/>
    </g>
    <g>
     <defs>
      <linearGradient id="Gradient_377" gradientUnits="userSpaceOnUse" x1="7315" y1="7003" x2="7469" y2="7003">
       <stop offset="0.1" stop-color="rgb(179,179,179)"/>
       <stop offset="1" stop-color="rgb(229,229,229)"/>
      </linearGradient>
     </defs>
     <path fill="url(#Gradient_377)" stroke="rgb(255,255,255)" id="Drawing_8_0" stroke-width="40" stroke-linejoin="round" d="M 7317,7825 L 7317,6096 7467,6182 7467,7911 7317,7825 Z"/>
    </g>
    <g>
     <path fill="rgb(255,255,255)" stroke="none" d="M 4626,7479 L 4626,7306 5224,7652 5224,7825 4626,7479 Z"/>
     <path fill="none" stroke="rgb(221,221,221)" id="Drawing_9_0" stroke-width="40" stroke-linejoin="round" d="M 4626,7479 L 4626,7306 5224,7652 5224,7825 4626,7479 Z"/>
    </g>
    <g>
     <path fill="rgb(255,255,255)" stroke="none" d="M 3729,6701 L 3729,6528 4327,6874 4327,7047 3729,6701 Z"/>
     <path fill="none" stroke="rgb(221,221,221)" id="Drawing_10_0" stroke-width="40" stroke-linejoin="round" d="M 3729,6701 L 3729,6528 4327,6874 4327,7047 3729,6701 Z"/>
    </g>
    <g>
     <path fill="rgb(255,255,255)" stroke="none" d="M 4626,7220 L 4626,7047 5224,7393 5224,7566 4626,7220 Z"/>
     <path fill="none" stroke="rgb(221,221,221)" id="Drawing_11_0" stroke-width="40" stroke-linejoin="round" d="M 4626,7220 L 4626,7047 5224,7393 5224,7566 4626,7220 Z"/>
    </g>
    <g>
     <path fill="none" stroke="rgb(0,0,0)" id="Drawing_12_0" stroke-width="40" stroke-linejoin="round" d="M 3579,6960 L 3579,4367 4327,3935 7317,5664 7317,6096 7467,6182 7467,7911 7317,7824 7317,8256 6569,8689 3579,6960 Z"/>
    </g>
    <g>
     <path fill="rgb(255,255,255)" stroke="none" d="M 5523,7998 L 5523,7825 6420,8344 6420,8516 5523,7998 Z"/>
     <path fill="none" stroke="rgb(221,221,221)" id="Drawing_13_0" stroke-width="40" stroke-linejoin="round" d="M 5523,7998 L 5523,7825 6420,8344 6420,8516 5523,7998 Z"/>
    </g>
    <g>
     <path fill="rgb(255,255,255)" stroke="none" d="M 5523,7738 L 5523,7565 6420,8084 6420,8256 5523,7738 Z"/>
     <path fill="none" stroke="rgb(221,221,221)" id="Drawing_14_0" stroke-width="40" stroke-linejoin="round" d="M 5523,7738 L 5523,7565 6420,8084 6420,8256 5523,7738 Z"/>
    </g>
    <g>
     <path fill="rgb(255,255,255)" stroke="none" d="M 3729,4713 L 3729,4540 4327,4886 4327,5059 3729,4713 Z"/>
     <path fill="none" stroke="rgb(221,221,221)" id="Drawing_15_0" stroke-width="40" stroke-linejoin="round" d="M 3729,4713 L 3729,4540 4327,4886 4327,5059 3729,4713 Z"/>
    </g>
    <g>
     <path fill="rgb(255,255,255)" stroke="none" d="M 3729,4973 L 3729,4800 4327,5146 4327,5319 3729,4973 Z"/>
     <path fill="none" stroke="rgb(221,221,221)" id="Drawing_16_0" stroke-width="40" stroke-linejoin="round" d="M 3729,4973 L 3729,4800 4327,5146 4327,5319 3729,4973 Z"/>
    </g>
    <g>
     <path fill="rgb(255,255,255)" stroke="none" d="M 4626,5232 L 4626,5059 5523,5578 5523,5750 4626,5232 Z"/>
     <path fill="none" stroke="rgb(221,221,221)" id="Drawing_17_0" stroke-width="40" stroke-linejoin="round" d="M 4626,5232 L 4626,5059 5523,5578 5523,5750 4626,5232 Z"/>
    </g>
    <g>
     <path fill="rgb(255,255,255)" stroke="none" d="M 4626,5491 L 4626,5318 5075,5577 5075,5750 4626,5491 Z"/>
     <path fill="none" stroke="rgb(221,221,221)" id="Drawing_18_0" stroke-width="40" stroke-linejoin="round" d="M 4626,5491 L 4626,5318 5075,5577 5075,5750 4626,5491 Z"/>
    </g>
    <g>
     <path fill="rgb(209,97,108)" stroke="none" d="M 6270,6701 L 6270,6528 6420,6614 6420,6787 6270,6701 Z"/>
     <path fill="none" stroke="rgb(127,127,127)" id="Drawing_19_0" stroke-width="40" stroke-linejoin="round" d="M 6270,6701 L 6270,6528 6420,6614 6420,6787 6270,6701 Z"/>
    </g>
    <g>
     <path fill="rgb(127,127,127)" stroke="none" d="M 4925,4454 L 4327,4108 4177,4194 4775,4540 4925,4454 Z"/>
     <path fill="none" stroke="rgb(0,0,0)" id="Drawing_20_0" stroke-width="40" stroke-linejoin="round" d="M 4925,4454 L 4327,4108 4177,4194 4775,4540 4925,4454 Z"/>
    </g>
    <g>
     <path fill="rgb(127,127,127)" stroke="none" d="M 5373,5059 L 4925,4800 4775,4886 5224,5146 5373,5059 Z"/>
     <path fill="none" stroke="rgb(0,0,0)" id="Drawing_21_0" stroke-width="40" stroke-linejoin="round" d="M 5373,5059 L 4925,4800 4775,4886 5224,5146 5373,5059 Z"/>
    </g>
    <g>
     <path fill="rgb(127,127,127)" stroke="none" d="M 6121,5146 L 5224,4627 5074,4713 5971,5232 6121,5146 Z"/>
     <path fill="none" stroke="rgb(0,0,0)" id="Drawing_22_0" stroke-width="40" stroke-linejoin="round" d="M 6121,5146 L 5224,4627 5074,4713 5971,5232 6121,5146 Z"/>
    </g>
    <g>
     <path fill="rgb(255,255,255)" stroke="none" d="M 5224,5837 L 5224,5664 5523,5837 5523,6010 5224,5837 Z"/>
     <path fill="none" stroke="rgb(221,221,221)" id="Drawing_23_0" stroke-width="40" stroke-linejoin="round" d="M 5224,5837 L 5224,5664 5523,5837 5523,6010 5224,5837 Z"/>
    </g>
    <g>
     <path fill="rgb(127,127,127)" stroke="none" d="M 5822,5318 L 5523,5145 5373,5231 5672,5404 5822,5318 Z"/>
     <path fill="none" stroke="rgb(0,0,0)" id="Drawing_24_0" stroke-width="40" stroke-linejoin="round" d="M 5822,5318 L 5523,5145 5373,5231 5672,5404 5822,5318 Z"/>
    </g>
    <g>
     <path fill="rgb(127,127,127)" stroke="none" d="M 6270,5577 L 6121,5491 5971,5577 6121,5664 6270,5577 Z"/>
     <path fill="none" stroke="rgb(0,0,0)" id="Drawing_25_0" stroke-width="40" stroke-linejoin="round" d="M 6270,5577 L 6121,5491 5971,5577 6121,5664 6270,5577 Z"/>
    </g>
    <g>
     <path fill="rgb(255,255,255)" stroke="none" d="M 5822,5923 L 5822,5750 5972,5836 5972,6009 5822,5923 Z"/>
     <path fill="none" stroke="rgb(127,127,127)" id="Drawing_26_0" stroke-width="40" stroke-linejoin="round" d="M 5822,5923 L 5822,5750 5972,5836 5972,6009 5822,5923 Z"/>
    </g>
    <g>
     <path fill="rgb(255,255,255)" stroke="none" d="M 5822,6183 L 5822,6010 5972,6096 5972,6269 5822,6183 Z"/>
     <path fill="none" stroke="rgb(127,127,127)" id="Drawing_27_0" stroke-width="40" stroke-linejoin="round" d="M 5822,6183 L 5822,6010 5972,6096 5972,6269 5822,6183 Z"/>
    </g>
    <g>
     <path fill="rgb(127,127,127)" stroke="none" d="M 6569,5404 L 6420,5318 6270,5404 6420,5491 6569,5404 Z"/>
     <path fill="none" stroke="rgb(0,0,0)" id="Drawing_28_0" stroke-width="40" stroke-linejoin="round" d="M 6569,5404 L 6420,5318 6270,5404 6420,5491 6569,5404 Z"/>
    </g>
   </g>
  </g>
 </g>
</svg>