<?xml version="1.0" encoding="UTF-8"?>

<svg version="1.2" baseProfile="tiny" width="28.09mm" height="32.63mm" viewBox="3878 6873 2809 3263" preserveAspectRatio="xMidYMid" fill-rule="evenodd" stroke-width="28.222" stroke-linejoin="round" xmlns="http://www.w3.org/2000/svg" xmlns:xlink="http://www.w3.org/1999/xlink" xml:space="preserve">
 <g visibility="visible" id="Slide_1">
  <g id="DrawingGroup_1">
   <g>
    <path fill="rgb(221,221,221)" stroke="none" d="M 4874,10116 C 5257,10116 6686,9713 6686,9391 6686,9069 6547,8988 6268,8988 6268,9230 4874,9793 4874,10116 Z"/>
    <path fill="none" stroke="rgb(221,221,221)" id="Drawing_1_0" stroke-linejoin="round" d="M 4874,10116 C 5257,10116 6686,9713 6686,9391 6686,9069 6547,8988 6268,8988 6268,9230 4874,9793 4874,10116 Z"/>
   </g>
   <g id="DrawingGroup_2">
    <g>
     <path fill="rgb(179,179,179)" stroke="none" d="M 5976,9479 L 5351,9840 4874,9840 4874,9552 5976,8915 5976,9479 Z"/>
     <path fill="rgb(180,180,180)" stroke="none" d="M 5351,9840 L 4874,10116 4874,9840 5351,9840 Z M 5976,8915 L 6268,8746 6268,9310 5976,9479 5976,8915 Z M 5962,9487 L 5376,9826 4874,9826 4874,9552 5962,8923 5962,9487 Z"/>
     <path fill="rgb(181,181,181)" stroke="none" d="M 5376,9826 L 4874,10116 4874,9826 5376,9826 Z M 5962,8923 L 6268,8746 6268,9310 5962,9487 5962,8923 Z M 5948,9495 L 5400,9812 4874,9812 4874,9552 5948,8931 5948,9495 Z"/>
     <path fill="rgb(182,182,182)" stroke="none" d="M 5400,9812 L 4874,10116 4874,9812 5400,9812 Z M 5948,8931 L 6268,8746 6268,9310 5948,9495 5948,8931 Z M 5934,9503 L 5424,9798 4874,9798 4874,9552 5934,8939 5934,9503 Z"/>
     <path fill="rgb(183,183,183)" stroke="none" d="M 5424,9798 L 4874,10116 4874,9798 5424,9798 Z M 5934,8939 L 6268,8746 6268,9310 5934,9503 5934,8939 Z M 5920,9511 L 5448,9784 4874,9784 4874,9552 5920,8947 5920,9511 Z"/>
     <path fill="rgb(184,184,184)" stroke="none" d="M 5448,9784 L 4874,10116 4874,9784 5448,9784 Z M 5920,8947 L 6268,8746 6268,9310 5920,9511 5920,8947 Z M 5906,9519 L 5472,9770 4874,9770 4874,9552 5906,8955 5906,9519 Z"/>
     <path fill="rgb(185,185,185)" stroke="none" d="M 5472,9770 L 4874,10116 4874,9770 5472,9770 Z M 5906,8955 L 6268,8746 6268,9310 5906,9519 5906,8955 Z M 5892,9527 L 5497,9756 4874,9756 4874,9552 5892,8963 5892,9527 Z"/>
     <path fill="rgb(186,186,186)" stroke="none" d="M 5497,9756 L 4874,10116 4874,9756 5497,9756 Z M 5892,8963 L 6268,8746 6268,9310 5892,9527 5892,8963 Z M 5878,9535 L 5521,9742 4874,9742 4874,9552 5878,8971 5878,9535 Z"/>
     <path fill="rgb(187,187,187)" stroke="none" d="M 5521,9742 L 4874,10116 4874,9742 5521,9742 Z M 5878,8971 L 6268,8746 6268,9310 5878,9535 5878,8971 Z M 5864,9544 L 5545,9728 4874,9728 4874,9552 5864,8980 5864,9544 Z"/>
     <path fill="rgb(188,188,188)" stroke="none" d="M 5545,9728 L 4874,10116 4874,9728 5545,9728 Z M 5864,8980 L 6268,8746 6268,9310 5864,9544 5864,8980 Z M 5850,9552 L 5569,9714 4874,9714 4874,9552 5850,8988 5850,9552 Z"/>
     <path fill="rgb(189,189,189)" stroke="none" d="M 5569,9714 L 4874,10116 4874,9714 5569,9714 Z M 5850,8988 L 6268,8746 6268,9310 5850,9552 5850,8988 Z M 5836,9560 L 5593,9700 4874,9700 4874,9552 5836,8996 5836,9560 Z"/>
     <path fill="rgb(190,190,190)" stroke="none" d="M 5593,9700 L 4874,10116 4874,9700 5593,9700 Z M 5836,8996 L 6268,8746 6268,9310 5836,9560 5836,8996 Z M 5822,9568 L 5618,9686 4874,9686 4874,9552 5822,9004 5822,9568 Z"/>
     <path fill="rgb(191,191,191)" stroke="none" d="M 5618,9686 L 4874,10116 4874,9686 5618,9686 Z M 5822,9004 L 6268,8746 6268,9310 5822,9568 5822,9004 Z M 5808,9576 L 5642,9672 4874,9672 4874,9552 5808,9012 5808,9576 Z"/>
     <path fill="rgb(192,192,192)" stroke="none" d="M 5642,9672 L 4874,10116 4874,9672 5642,9672 Z M 5808,9012 L 6268,8746 6268,9310 5808,9576 5808,9012 Z M 5794,9584 L 5666,9658 4874,9658 4874,9552 5794,9020 5794,9584 Z"/>
     <path fill="rgb(193,193,193)" stroke="none" d="M 5666,9658 L 4874,10116 4874,9658 5666,9658 Z M 5794,9020 L 6268,8746 6268,9310 5794,9584 5794,9020 Z M 5780,9592 L 5690,9644 4874,9644 4874,9552 5780,9028 5780,9592 Z"/>
     <path fill="rgb(194,194,194)" stroke="none" d="M 5690,9644 L 4874,10116 4874,9644 5690,9644 Z M 5780,9028 L 6268,8746 6268,9310 5780,9592 5780,9028 Z M 5766,9600 L 5715,9630 4874,9630 4874,9552 5766,9036 5766,9600 Z"/>
     <path fill="rgb(195,195,195)" stroke="none" d="M 5715,9630 L 4874,10116 4874,9630 5715,9630 Z M 5766,9036 L 6268,8746 6268,9310 5766,9600 5766,9036 Z M 5752,9608 L 5739,9616 4874,9616 4874,9552 5752,9044 5752,9608 Z"/>
     <path fill="rgb(196,196,196)" stroke="none" d="M 5739,9616 L 4874,10116 4874,9616 5739,9616 Z M 5752,9044 L 6268,8746 6268,9310 5752,9608 5752,9044 Z M 5738,9602 L 4874,9602 4874,9552 5738,9052 5738,9602 Z"/>
     <path fill="rgb(197,197,197)" stroke="none" d="M 5738,9602 L 5738,9052 6268,8746 6268,9310 4874,10116 4874,9602 5738,9602 Z M 5724,9588 L 4874,9588 4874,9552 5724,9061 5724,9588 Z"/>
     <path fill="rgb(198,198,198)" stroke="none" d="M 5724,9588 L 5724,9061 6268,8746 6268,9310 4874,10116 4874,9588 5724,9588 Z M 5710,9574 L 4874,9574 4874,9552 5710,9069 5710,9574 Z"/>
     <path fill="rgb(199,199,199)" stroke="none" d="M 5710,9574 L 5710,9069 6268,8746 6268,9310 4874,10116 4874,9574 5710,9574 Z M 5696,9560 L 4887,9560 4887,9544 5696,9077 5696,9560 Z"/>
     <path fill="rgb(200,200,200)" stroke="none" d="M 4887,9560 L 5696,9560 5696,9077 6268,8746 6268,9310 4874,10116 4874,9552 4887,9544 4887,9560 Z M 5682,9546 L 4901,9546 4901,9536 5682,9085 5682,9546 Z"/>
     <path fill="rgb(201,201,201)" stroke="none" d="M 4901,9546 L 5682,9546 5682,9085 6268,8746 6268,9310 4874,10116 4874,9552 4901,9536 4901,9546 Z M 5668,9532 L 4915,9532 4915,9528 5668,9093 5668,9532 Z"/>
     <path fill="rgb(202,202,202)" stroke="none" d="M 4915,9532 L 5668,9532 5668,9093 6268,8746 6268,9310 4874,10116 4874,9552 4915,9528 4915,9532 Z M 5654,9518 L 4933,9518 5654,9101 5654,9518 Z"/>
     <path fill="rgb(203,203,203)" stroke="none" d="M 5654,9518 L 5654,9101 6268,8746 6268,9310 4874,10116 4874,9552 4933,9518 5654,9518 Z M 5640,9504 L 4957,9504 5640,9109 5640,9504 Z"/>
     <path fill="rgb(204,204,204)" stroke="none" d="M 5640,9504 L 5640,9109 6268,8746 6268,9310 4874,10116 4874,9552 4957,9504 5640,9504 Z M 5626,9490 L 4981,9490 5626,9117 5626,9490 Z"/>
     <path fill="rgb(205,205,205)" stroke="none" d="M 5626,9490 L 5626,9117 6268,8746 6268,9310 4874,10116 4874,9552 4981,9490 5626,9490 Z M 5612,9476 L 5005,9476 5612,9125 5612,9476 Z"/>
     <path fill="rgb(206,206,206)" stroke="none" d="M 5612,9476 L 5612,9125 6268,8746 6268,9310 4874,10116 4874,9552 5005,9476 5612,9476 Z M 5598,9462 L 5030,9462 5598,9133 5598,9462 Z"/>
     <path fill="rgb(207,207,207)" stroke="none" d="M 5598,9462 L 5598,9133 6268,8746 6268,9310 4874,10116 4874,9552 5030,9462 5598,9462 Z M 5584,9448 L 5054,9448 5584,9141 5584,9448 Z"/>
     <path fill="rgb(208,208,208)" stroke="none" d="M 5584,9448 L 5584,9141 6268,8746 6268,9310 4874,10116 4874,9552 5054,9448 5584,9448 Z M 5570,9434 L 5078,9434 5570,9150 5570,9434 Z"/>
     <path fill="rgb(209,209,209)" stroke="none" d="M 5570,9434 L 5570,9150 6268,8746 6268,9310 4874,10116 4874,9552 5078,9434 5570,9434 Z M 5556,9420 L 5102,9420 5556,9158 5556,9420 Z"/>
     <path fill="rgb(210,210,210)" stroke="none" d="M 5556,9420 L 5556,9158 6268,8746 6268,9310 4874,10116 4874,9552 5102,9420 5556,9420 Z M 5542,9406 L 5127,9406 5542,9166 5542,9406 Z"/>
     <path fill="rgb(211,211,211)" stroke="none" d="M 5542,9406 L 5542,9166 6268,8746 6268,9310 4874,10116 4874,9552 5127,9406 5542,9406 Z M 5528,9392 L 5151,9392 5528,9174 5528,9392 Z"/>
     <path fill="rgb(212,212,212)" stroke="none" d="M 5528,9392 L 5528,9174 6268,8746 6268,9310 4874,10116 4874,9552 5151,9392 5528,9392 Z M 5515,9379 L 5173,9379 5515,9181 5515,9379 Z"/>
     <path fill="rgb(213,213,213)" stroke="none" d="M 5515,9379 L 5515,9181 6268,8746 6268,9310 4874,10116 4874,9552 5173,9379 5515,9379 Z M 5501,9365 L 5197,9365 5501,9189 5501,9365 Z"/>
     <path fill="rgb(214,214,214)" stroke="none" d="M 5501,9365 L 5501,9189 6268,8746 6268,9310 4874,10116 4874,9552 5197,9365 5501,9365 Z M 5487,9351 L 5222,9351 5487,9198 5487,9351 Z"/>
     <path fill="rgb(215,215,215)" stroke="none" d="M 5487,9351 L 5487,9198 6268,8746 6268,9310 4874,10116 4874,9552 5222,9351 5487,9351 Z M 5473,9337 L 5246,9337 5473,9206 5473,9337 Z"/>
     <path fill="rgb(216,216,216)" stroke="none" d="M 5473,9337 L 5473,9206 6268,8746 6268,9310 4874,10116 4874,9552 5246,9337 5473,9337 Z M 5459,9323 L 5270,9323 5459,9214 5459,9323 Z"/>
     <path fill="rgb(217,217,217)" stroke="none" d="M 5459,9323 L 5459,9214 6268,8746 6268,9310 4874,10116 4874,9552 5270,9323 5459,9323 Z M 5445,9309 L 5294,9309 5445,9222 5445,9309 Z"/>
     <path fill="rgb(218,218,218)" stroke="none" d="M 5445,9309 L 5445,9222 6268,8746 6268,9310 4874,10116 4874,9552 5294,9309 5445,9309 Z M 5431,9295 L 5318,9295 5431,9230 5431,9295 Z"/>
     <path fill="rgb(219,219,219)" stroke="none" d="M 5431,9295 L 5431,9230 6268,8746 6268,9310 4874,10116 4874,9552 5318,9295 5431,9295 Z M 5417,9281 L 5343,9281 5417,9238 5417,9281 Z"/>
     <path fill="rgb(220,220,220)" stroke="none" d="M 5417,9281 L 5417,9238 6268,8746 6268,9310 4874,10116 4874,9552 5343,9281 5417,9281 Z M 5403,9267 L 5367,9267 5403,9246 5403,9267 Z"/>
     <path fill="rgb(221,221,221)" stroke="none" d="M 5403,9267 L 5403,9246 6268,8746 6268,9310 4874,10116 4874,9552 5367,9267 5403,9267 Z"/>
     <path fill="rgb(222,222,222)" stroke="none" d="M 4874,10116 L 4874,9552 6268,8746 6268,9310 4874,10116 Z"/>
     <path fill="rgb(223,223,223)" stroke="none" d="M 4874,10116 L 4874,9552 6268,8746 6268,9310 4874,10116 Z"/>
     <path fill="rgb(224,224,224)" stroke="none" d="M 4874,10116 L 4874,9552 6268,8746 6268,9310 4874,10116 Z"/>
     <path fill="rgb(225,225,225)" stroke="none" d="M 4874,10116 L 4874,9552 6268,8746 6268,9310 4874,10116 Z"/>
     <path fill="rgb(226,226,226)" stroke="none" d="M 4874,10116 L 4874,9552 6268,8746 6268,9310 4874,10116 Z"/>
     <path fill="rgb(227,227,227)" stroke="none" d="M 4874,10116 L 4874,9552 6268,8746 6268,9310 4874,10116 Z"/>
     <path fill="rgb(229,229,229)" stroke="none" d="M 4874,10116 L 4874,9552 6268,8746 6268,9310 4874,10116 Z"/>
     <path fill="none" stroke="rgb(255,255,255)" id="Drawing_2_0" stroke-width="40" stroke-linejoin="round" d="M 4874,10116 L 4874,9552 6268,8746 6268,9310 4874,10116 Z"/>
    </g>
    <g>
     <defs>
      <linearGradient id="Gradient_624" gradientUnits="userSpaceOnUse" x1="5082" y1="8182" x2="5082" y2="9552">
       <stop offset="0.1" stop-color="rgb(179,179,179)"/>
       <stop offset="1" stop-color="rgb(229,229,229)"/>
      </linearGradient>
     </defs>
     <path fill="url(#Gradient_624)" stroke="rgb(255,255,255)" id="Drawing_3_0" stroke-width="40" stroke-linejoin="round" d="M 4874,9552 L 3898,8988 5292,8182 6267,8746 4874,9552 Z"/>
    </g>
    <g>
     <defs>
      <linearGradient id="Gradient_625" gradientUnits="userSpaceOnUse" x1="3897" y1="9551" x2="4875" y2="9553">
       <stop offset="0.1" stop-color="rgb(179,179,179)"/>
       <stop offset="1" stop-color="rgb(229,229,229)"/>
      </linearGradient>
     </defs>
     <path fill="url(#Gradient_625)" stroke="rgb(255,255,255)" id="Drawing_4_0" stroke-width="40" stroke-linejoin="round" d="M 3898,9552 L 3898,8988 4874,9552 4874,10116 3898,9552 Z"/>
    </g>
    <g>
     <path fill="none" stroke="rgb(0,0,0)" id="Drawing_5_0" stroke-width="40" stroke-linejoin="round" d="M 3898,9552 L 3898,8988 5292,8182 6267,8746 6267,9310 4874,10116 3898,9552 Z"/>
    </g>
    <g>
     <path fill="rgb(204,204,204)" stroke="none" d="M 5013,8827 L 5013,6893 5152,6893 5152,8827 5013,8827 Z"/>
     <path fill="none" stroke="rgb(0,0,0)" id="Drawing_6_0" stroke-width="40" stroke-linejoin="round" d="M 5013,8827 L 5013,6893 5152,6893 5152,8827 5013,8827 Z"/>
    </g>
    <g>
     <path fill="rgb(127,127,127)" stroke="none" d="M 4456,9713 L 4456,9471 4595,9552 4595,9793 4456,9713 Z"/>
     <path fill="none" stroke="rgb(0,0,0)" id="Drawing_7_0" stroke-width="40" stroke-linejoin="round" d="M 4456,9713 L 4456,9471 4595,9552 4595,9793 4456,9713 Z"/>
    </g>
   </g>
  </g>
 </g>
</svg>