<?xml version="1.0" encoding="UTF-8"?>

<svg version="1.2" baseProfile="tiny" width="47.9mm" height="52.53mm" viewBox="2510 11547 4790 5253" preserveAspectRatio="xMidYMid" fill-rule="evenodd" stroke-width="28.222" stroke-linejoin="round" xmlns="http://www.w3.org/2000/svg" xmlns:xlink="http://www.w3.org/1999/xlink" xml:space="preserve">
 <g visibility="visible" id="Slide_1">
  <g id="DrawingGroup_1">
   <g>
    <path fill="rgb(221,221,221)" stroke="none" d="M 5366,16782 C 5720,16782 7299,16409 7299,16111 7299,15813 6783,15739 6655,15739 6655,15962 5366,16483 5366,16782 Z"/>
    <path fill="none" stroke="rgb(221,221,221)" id="Drawing_1_0" stroke-linejoin="round" d="M 5366,16782 C 5720,16782 7299,16409 7299,16111 7299,15813 6783,15739 6655,15739 6655,15962 5366,16483 5366,16782 Z"/>
   </g>
   <g id="DrawingGroup_2">
    <g>
     <path fill="rgb(179,179,179)" stroke="none" d="M 5363,16326 L 5364,15365 6652,14620 6652,16035 6149,16326 5363,16326 Z"/>
     <path fill="rgb(180,180,180)" stroke="none" d="M 6149,16326 L 5363,16780 5363,16326 6149,16326 Z M 5363,16304 L 5364,15365 6652,14620 6652,16035 6187,16304 5363,16304 Z"/>
     <path fill="rgb(181,181,181)" stroke="none" d="M 6187,16304 L 5363,16780 5363,16304 6187,16304 Z M 5363,16283 L 5364,15365 6652,14620 6652,16035 6223,16283 5363,16283 Z"/>
     <path fill="rgb(182,182,182)" stroke="none" d="M 6223,16283 L 5363,16780 5363,16283 6223,16283 Z M 5363,16261 L 5364,15365 6652,14620 6652,16035 6261,16261 5363,16261 Z"/>
     <path fill="rgb(183,183,183)" stroke="none" d="M 6261,16261 L 5363,16780 5363,16261 6261,16261 Z M 5363,16239 L 5364,15365 6652,14620 6652,16035 6299,16239 5363,16239 Z"/>
     <path fill="rgb(184,184,184)" stroke="none" d="M 6299,16239 L 5363,16780 5363,16239 6299,16239 Z M 5363,16218 L 5364,15365 6652,14620 6652,16035 6335,16218 5363,16218 Z"/>
     <path fill="rgb(185,185,185)" stroke="none" d="M 6335,16218 L 5363,16780 5363,16218 6335,16218 Z M 5363,16196 L 5364,15365 6652,14620 6652,16035 6373,16196 5363,16196 Z"/>
     <path fill="rgb(186,186,186)" stroke="none" d="M 6373,16196 L 5363,16780 5363,16196 6373,16196 Z M 5363,16174 L 5364,15365 6652,14620 6652,16035 6412,16174 5363,16174 Z"/>
     <path fill="rgb(187,187,187)" stroke="none" d="M 6412,16174 L 5363,16780 5363,16174 6412,16174 Z M 6635,16045 L 6448,16153 5363,16153 5364,15365 6635,14630 6635,16045 Z"/>
     <path fill="rgb(188,188,188)" stroke="none" d="M 6448,16153 L 5363,16780 5363,16153 6448,16153 Z M 6635,14630 L 6652,14620 6652,16035 6635,16045 6635,14630 Z M 6613,16058 L 6486,16131 5363,16131 5364,15365 6613,14643 6613,16058 Z"/>
     <path fill="rgb(189,189,189)" stroke="none" d="M 6486,16131 L 5363,16780 5363,16131 6486,16131 Z M 6613,14643 L 6652,14620 6652,16035 6613,16058 6613,14643 Z M 6592,16070 L 6522,16110 5363,16110 5364,15365 6592,14655 6592,16070 Z"/>
     <path fill="rgb(190,190,190)" stroke="none" d="M 6522,16110 L 5363,16780 5363,16110 6522,16110 Z M 6592,14655 L 6652,14620 6652,16035 6592,16070 6592,14655 Z M 6570,16082 L 6560,16088 5363,16088 5364,15365 6570,14667 6570,16082 Z"/>
     <path fill="rgb(191,191,191)" stroke="none" d="M 6560,16088 L 5363,16780 5363,16088 6560,16088 Z M 6570,14667 L 6652,14620 6652,16035 6570,16082 6570,14667 Z M 6548,16066 L 5364,16066 5364,15365 6548,14680 6548,16066 Z"/>
     <path fill="rgb(192,192,192)" stroke="none" d="M 6548,16066 L 6548,14680 6652,14620 6652,16035 5363,16780 5364,16066 6548,16066 Z M 6527,16045 L 5364,16045 5364,15365 6527,14692 6527,16045 Z"/>
     <path fill="rgb(193,193,193)" stroke="none" d="M 6527,16045 L 6527,14692 6652,14620 6652,16035 5363,16780 5364,16045 6527,16045 Z M 6505,16023 L 5364,16023 5364,15365 6505,14705 6505,16023 Z"/>
     <path fill="rgb(194,194,194)" stroke="none" d="M 6505,16023 L 6505,14705 6652,14620 6652,16035 5363,16780 5364,16023 6505,16023 Z M 6483,16001 L 5364,16001 5364,15365 6483,14718 6483,16001 Z"/>
     <path fill="rgb(195,195,195)" stroke="none" d="M 6483,16001 L 6483,14718 6652,14620 6652,16035 5363,16780 5364,16001 6483,16001 Z M 6462,15980 L 5364,15980 5364,15365 6462,14730 6462,15980 Z"/>
     <path fill="rgb(196,196,196)" stroke="none" d="M 6462,15980 L 6462,14730 6652,14620 6652,16035 5363,16780 5364,15980 6462,15980 Z M 6440,15958 L 5364,15958 5364,15365 6440,14743 6440,15958 Z"/>
     <path fill="rgb(197,197,197)" stroke="none" d="M 6440,15958 L 6440,14743 6652,14620 6652,16035 5363,16780 5364,15958 6440,15958 Z M 6419,15937 L 5364,15937 5364,15365 6419,14755 6419,15937 Z"/>
     <path fill="rgb(198,198,198)" stroke="none" d="M 6419,15937 L 6419,14755 6652,14620 6652,16035 5363,16780 5364,15937 6419,15937 Z M 6397,15915 L 5364,15915 5364,15365 6397,14767 6397,15915 Z"/>
     <path fill="rgb(199,199,199)" stroke="none" d="M 6397,15915 L 6397,14767 6652,14620 6652,16035 5363,16780 5364,15915 6397,15915 Z M 6375,15893 L 5364,15893 5364,15365 6375,14780 6375,15893 Z"/>
     <path fill="rgb(200,200,200)" stroke="none" d="M 6375,15893 L 6375,14780 6652,14620 6652,16035 5363,16780 5364,15893 6375,15893 Z M 6354,15872 L 5364,15872 5364,15365 6354,14792 6354,15872 Z"/>
     <path fill="rgb(201,201,201)" stroke="none" d="M 6354,15872 L 6354,14792 6652,14620 6652,16035 5363,16780 5364,15872 6354,15872 Z M 6332,15850 L 5364,15850 5364,15365 6332,14805 6332,15850 Z"/>
     <path fill="rgb(202,202,202)" stroke="none" d="M 6332,15850 L 6332,14805 6652,14620 6652,16035 5363,16780 5364,15850 6332,15850 Z M 6310,15828 L 5364,15828 5364,15365 6310,14818 6310,15828 Z"/>
     <path fill="rgb(203,203,203)" stroke="none" d="M 6310,15828 L 6310,14818 6652,14620 6652,16035 5363,16780 5364,15828 6310,15828 Z M 6289,15807 L 5364,15807 5364,15365 6289,14830 6289,15807 Z"/>
     <path fill="rgb(204,204,204)" stroke="none" d="M 6289,15807 L 6289,14830 6652,14620 6652,16035 5363,16780 5364,15807 6289,15807 Z M 6267,15785 L 5364,15785 5364,15365 6267,14843 6267,15785 Z"/>
     <path fill="rgb(205,205,205)" stroke="none" d="M 6267,15785 L 6267,14843 6652,14620 6652,16035 5363,16780 5364,15785 6267,15785 Z M 6245,15763 L 5364,15763 5364,15365 6245,14855 6245,15763 Z"/>
     <path fill="rgb(206,206,206)" stroke="none" d="M 6245,15763 L 6245,14855 6652,14620 6652,16035 5363,16780 5364,15763 6245,15763 Z M 6224,15742 L 5364,15742 5364,15365 6224,14868 6224,15742 Z"/>
     <path fill="rgb(207,207,207)" stroke="none" d="M 6224,15742 L 6224,14868 6652,14620 6652,16035 5363,16780 5364,15742 6224,15742 Z M 6202,15720 L 5364,15720 5364,15365 6202,14880 6202,15720 Z"/>
     <path fill="rgb(208,208,208)" stroke="none" d="M 6202,15720 L 6202,14880 6652,14620 6652,16035 5363,16780 5364,15720 6202,15720 Z M 6181,15699 L 5364,15699 5364,15365 6181,14892 6181,15699 Z"/>
     <path fill="rgb(209,209,209)" stroke="none" d="M 6181,15699 L 6181,14892 6652,14620 6652,16035 5363,16780 5364,15699 6181,15699 Z M 6159,15677 L 5364,15677 5364,15365 6159,14905 6159,15677 Z"/>
     <path fill="rgb(210,210,210)" stroke="none" d="M 6159,15677 L 6159,14905 6652,14620 6652,16035 5363,16780 5364,15677 6159,15677 Z M 6137,15655 L 5364,15655 5364,15365 6137,14918 6137,15655 Z"/>
     <path fill="rgb(211,211,211)" stroke="none" d="M 6137,15655 L 6137,14918 6652,14620 6652,16035 5363,16780 5364,15655 6137,15655 Z M 6116,15634 L 5381,15634 5381,15355 6116,14930 6116,15634 Z"/>
     <path fill="rgb(212,212,212)" stroke="none" d="M 5381,15634 L 6116,15634 6116,14930 6652,14620 6652,16035 5363,16780 5364,15365 5381,15355 5381,15634 Z M 6094,15612 L 5403,15612 5403,15342 6094,14943 6094,15612 Z"/>
     <path fill="rgb(213,213,213)" stroke="none" d="M 5403,15612 L 6094,15612 6094,14943 6652,14620 6652,16035 5363,16780 5364,15365 5403,15342 5403,15612 Z M 6072,15590 L 5425,15590 5425,15330 6072,14955 6072,15590 Z"/>
     <path fill="rgb(214,214,214)" stroke="none" d="M 5425,15590 L 6072,15590 6072,14955 6652,14620 6652,16035 5363,16780 5364,15365 5425,15330 5425,15590 Z M 6051,15569 L 5446,15569 5446,15318 6051,14968 6051,15569 Z"/>
     <path fill="rgb(215,215,215)" stroke="none" d="M 5446,15569 L 6051,15569 6051,14968 6652,14620 6652,16035 5363,16780 5364,15365 5446,15318 5446,15569 Z M 6029,14986 L 6029,15547 5468,15547 5468,15305 6019,14986 6029,14986 Z"/>
     <path fill="rgb(216,216,216)" stroke="none" d="M 5468,15547 L 6029,15547 6029,14986 6019,14986 6652,14620 6652,16035 5363,16780 5364,15365 5468,15305 5468,15547 Z M 6008,15007 L 6008,15526 5489,15526 5489,15293 5983,15007 6008,15007 Z"/>
     <path fill="rgb(217,217,217)" stroke="none" d="M 5489,15526 L 6008,15526 6008,15007 5983,15007 6652,14620 6652,16035 5363,16780 5364,15365 5489,15293 5489,15526 Z M 5986,15029 L 5986,15504 5511,15504 5511,15280 5945,15029 5986,15029 Z"/>
     <path fill="rgb(218,218,218)" stroke="none" d="M 5511,15504 L 5986,15504 5986,15029 5945,15029 6652,14620 6652,16035 5363,16780 5364,15365 5511,15280 5511,15504 Z M 5964,15051 L 5964,15482 5533,15482 5533,15267 5907,15051 5964,15051 Z"/>
     <path fill="rgb(219,219,219)" stroke="none" d="M 5533,15482 L 5964,15482 5964,15051 5907,15051 6652,14620 6652,16035 5363,16780 5364,15365 5533,15267 5533,15482 Z M 5943,15072 L 5943,15461 5554,15461 5554,15255 5871,15072 5943,15072 Z"/>
     <path fill="rgb(220,220,220)" stroke="none" d="M 5554,15461 L 5943,15461 5943,15072 5871,15072 6652,14620 6652,16035 5363,16780 5364,15365 5554,15255 5554,15461 Z M 5921,15094 L 5921,15439 5576,15439 5576,15242 5833,15094 5921,15094 Z"/>
     <path fill="rgb(221,221,221)" stroke="none" d="M 5576,15439 L 5921,15439 5921,15094 5833,15094 6652,14620 6652,16035 5363,16780 5364,15365 5576,15242 5576,15439 Z M 5899,15116 L 5899,15417 5598,15417 5598,15230 5794,15116 5899,15116 Z"/>
     <path fill="rgb(222,222,222)" stroke="none" d="M 5598,15417 L 5899,15417 5899,15116 5794,15116 6652,14620 6652,16035 5363,16780 5364,15365 5598,15230 5598,15417 Z M 5878,15137 L 5878,15396 5619,15396 5619,15218 5758,15137 5878,15137 Z"/>
     <path fill="rgb(223,223,223)" stroke="none" d="M 5619,15396 L 5878,15396 5878,15137 5758,15137 6652,14620 6652,16035 5363,16780 5364,15365 5619,15218 5619,15396 Z M 5856,15159 L 5856,15374 5641,15374 5641,15205 5720,15159 5856,15159 Z"/>
     <path fill="rgb(224,224,224)" stroke="none" d="M 5641,15374 L 5856,15374 5856,15159 5720,15159 6652,14620 6652,16035 5363,16780 5364,15365 5641,15205 5641,15374 Z M 5835,15180 L 5835,15353 5662,15353 5662,15193 5684,15180 5835,15180 Z"/>
     <path fill="rgb(225,225,225)" stroke="none" d="M 5662,15353 L 5835,15353 5835,15180 5684,15180 6652,14620 6652,16035 5363,16780 5364,15365 5662,15193 5662,15353 Z M 5684,15202 L 5813,15202 5813,15331 5684,15331 5684,15202 Z"/>
     <path fill="rgb(226,226,226)" stroke="none" d="M 5684,15202 L 5684,15331 5813,15331 5813,15202 5684,15202 Z M 5706,15224 L 5791,15224 5791,15309 5706,15309 5706,15224 Z M 5363,16780 L 5364,15365 6652,14620 6652,16035 5363,16780 Z"/>
     <path fill="rgb(227,227,227)" stroke="none" d="M 5706,15224 L 5706,15309 5791,15309 5791,15224 5706,15224 Z M 5727,15245 L 5770,15245 5770,15288 5727,15288 5727,15245 Z M 5363,16780 L 5364,15365 6652,14620 6652,16035 5363,16780 Z"/>
     <path fill="rgb(229,229,229)" stroke="none" d="M 5727,15245 L 5727,15288 5770,15288 5770,15245 5727,15245 Z M 5363,16780 L 5364,15365 6652,14620 6652,16035 5363,16780 Z"/>
     <path fill="none" stroke="rgb(255,255,255)" id="Drawing_2_0" stroke-width="40" stroke-linejoin="round" d="M 5363,16780 L 5364,15365 6652,14620 6652,16035 5363,16780 Z"/>
    </g>
    <g>
     <path fill="rgb(179,179,179)" stroke="none" d="M 5364,14821 L 5365,13726 6653,13056 6653,14545 6175,14821 5364,14821 Z"/>
     <path fill="rgb(180,180,180)" stroke="none" d="M 6175,14821 L 5364,15290 5364,14821 6175,14821 Z M 5364,14799 L 5365,13726 6653,13056 6653,14545 6214,14799 5364,14799 Z"/>
     <path fill="rgb(181,181,181)" stroke="none" d="M 6214,14799 L 5364,15290 5364,14799 6214,14799 Z M 5364,14776 L 5365,13726 6653,13056 6653,14545 6253,14776 5364,14776 Z"/>
     <path fill="rgb(182,182,182)" stroke="none" d="M 6253,14776 L 5364,15290 5364,14776 6253,14776 Z M 5364,14754 L 5365,13726 6653,13056 6653,14545 6291,14754 5364,14754 Z"/>
     <path fill="rgb(183,183,183)" stroke="none" d="M 6291,14754 L 5364,15290 5364,14754 6291,14754 Z M 5364,14732 L 5365,13726 6653,13056 6653,14545 6329,14732 5364,14732 Z"/>
     <path fill="rgb(184,184,184)" stroke="none" d="M 6329,14732 L 5364,15290 5364,14732 6329,14732 Z M 5364,14709 L 5365,13726 6653,13056 6653,14545 6369,14709 5364,14709 Z"/>
     <path fill="rgb(185,185,185)" stroke="none" d="M 6369,14709 L 5364,15290 5364,14709 6369,14709 Z M 5364,14687 L 5365,13726 6653,13056 6653,14545 6407,14687 5364,14687 Z"/>
     <path fill="rgb(186,186,186)" stroke="none" d="M 6407,14687 L 5364,15290 5364,14687 6407,14687 Z M 5364,14665 L 5365,13726 6653,13056 6653,14545 6445,14665 5364,14665 Z"/>
     <path fill="rgb(187,187,187)" stroke="none" d="M 6445,14665 L 5364,15290 5364,14665 6445,14665 Z M 5364,14642 L 5365,13726 6653,13056 6653,14545 6485,14642 5364,14642 Z"/>
     <path fill="rgb(188,188,188)" stroke="none" d="M 6485,14642 L 5364,15290 5364,14642 6485,14642 Z M 6644,14550 L 6523,14620 5364,14620 5365,13726 6644,13061 6644,14550 Z"/>
     <path fill="rgb(189,189,189)" stroke="none" d="M 6523,14620 L 5364,15290 5364,14620 6523,14620 Z M 6644,13061 L 6653,13056 6653,14545 6644,14550 6644,13061 Z M 6621,14563 L 6563,14597 5364,14597 5365,13726 6621,13073 6621,14563 Z"/>
     <path fill="rgb(190,190,190)" stroke="none" d="M 6563,14597 L 5364,15290 5364,14597 6563,14597 Z M 6621,13073 L 6653,13056 6653,14545 6621,14563 6621,13073 Z M 6599,14575 L 5364,14575 5365,13726 6599,13084 6599,14575 Z"/>
     <path fill="rgb(191,191,191)" stroke="none" d="M 6599,14575 L 6599,13084 6653,13056 6653,14545 5364,15290 5364,14575 6599,14575 Z M 6577,14553 L 5364,14553 5365,13726 6577,13096 6577,14553 Z"/>
     <path fill="rgb(192,192,192)" stroke="none" d="M 6577,14553 L 6577,13096 6653,13056 6653,14545 5364,15290 5364,14553 6577,14553 Z M 6554,14530 L 5364,14530 5365,13726 6554,13107 6554,14530 Z"/>
     <path fill="rgb(193,193,193)" stroke="none" d="M 6554,14530 L 6554,13107 6653,13056 6653,14545 5364,15290 5364,14530 6554,14530 Z M 6532,14508 L 5365,14508 5365,13726 6532,13119 6532,14508 Z"/>
     <path fill="rgb(194,194,194)" stroke="none" d="M 6532,14508 L 6532,13119 6653,13056 6653,14545 5364,15290 5365,14508 6532,14508 Z M 6510,14486 L 5365,14486 5365,13726 6510,13130 6510,14486 Z"/>
     <path fill="rgb(195,195,195)" stroke="none" d="M 6510,14486 L 6510,13130 6653,13056 6653,14545 5364,15290 5365,14486 6510,14486 Z M 6487,14463 L 5365,14463 5365,13726 6487,13142 6487,14463 Z"/>
     <path fill="rgb(196,196,196)" stroke="none" d="M 6487,14463 L 6487,13142 6653,13056 6653,14545 5364,15290 5365,14463 6487,14463 Z M 6465,14441 L 5365,14441 5365,13726 6465,13154 6465,14441 Z"/>
     <path fill="rgb(197,197,197)" stroke="none" d="M 6465,14441 L 6465,13154 6653,13056 6653,14545 5364,15290 5365,14441 6465,14441 Z M 6442,14418 L 5365,14418 5365,13726 6442,13166 6442,14418 Z"/>
     <path fill="rgb(198,198,198)" stroke="none" d="M 6442,14418 L 6442,13166 6653,13056 6653,14545 5364,15290 5365,14418 6442,14418 Z M 6420,14396 L 5365,14396 5365,13726 6420,13177 6420,14396 Z"/>
     <path fill="rgb(199,199,199)" stroke="none" d="M 6420,14396 L 6420,13177 6653,13056 6653,14545 5364,15290 5365,14396 6420,14396 Z M 6398,14374 L 5365,14374 5365,13726 6398,13189 6398,14374 Z"/>
     <path fill="rgb(200,200,200)" stroke="none" d="M 6398,14374 L 6398,13189 6653,13056 6653,14545 5364,15290 5365,14374 6398,14374 Z M 6375,14351 L 5365,14351 5365,13726 6375,13201 6375,14351 Z"/>
     <path fill="rgb(201,201,201)" stroke="none" d="M 6375,14351 L 6375,13201 6653,13056 6653,14545 5364,15290 5365,14351 6375,14351 Z M 6353,14329 L 5365,14329 5365,13726 6353,13212 6353,14329 Z"/>
     <path fill="rgb(202,202,202)" stroke="none" d="M 6353,14329 L 6353,13212 6653,13056 6653,14545 5364,15290 5365,14329 6353,14329 Z M 6331,14307 L 5365,14307 5365,13726 6331,13224 6331,14307 Z"/>
     <path fill="rgb(203,203,203)" stroke="none" d="M 6331,14307 L 6331,13224 6653,13056 6653,14545 5364,15290 5365,14307 6331,14307 Z M 6308,14284 L 5365,14284 5365,13726 6308,13235 6308,14284 Z"/>
     <path fill="rgb(204,204,204)" stroke="none" d="M 6308,14284 L 6308,13235 6653,13056 6653,14545 5364,15290 5365,14284 6308,14284 Z M 6286,14262 L 5365,14262 5365,13726 6286,13247 6286,14262 Z"/>
     <path fill="rgb(205,205,205)" stroke="none" d="M 6286,14262 L 6286,13247 6653,13056 6653,14545 5364,15290 5365,14262 6286,14262 Z M 6264,14240 L 5365,14240 5365,13726 6264,13258 6264,14240 Z"/>
     <path fill="rgb(206,206,206)" stroke="none" d="M 6264,14240 L 6264,13258 6653,13056 6653,14545 5364,15290 5365,14240 6264,14240 Z M 6241,14217 L 5365,14217 5365,13726 6241,13270 6241,14217 Z"/>
     <path fill="rgb(207,207,207)" stroke="none" d="M 6241,14217 L 6241,13270 6653,13056 6653,14545 5364,15290 5365,14217 6241,14217 Z M 6219,14195 L 5365,14195 5365,13726 6219,13282 6219,14195 Z"/>
     <path fill="rgb(208,208,208)" stroke="none" d="M 6219,14195 L 6219,13282 6653,13056 6653,14545 5364,15290 5365,14195 6219,14195 Z M 6196,14172 L 5365,14172 5365,13726 6196,13294 6196,14172 Z"/>
     <path fill="rgb(209,209,209)" stroke="none" d="M 6196,14172 L 6196,13294 6653,13056 6653,14545 5364,15290 5365,14172 6196,14172 Z M 6174,14150 L 5365,14150 5365,13726 6174,13305 6174,14150 Z"/>
     <path fill="rgb(210,210,210)" stroke="none" d="M 6174,14150 L 6174,13305 6653,13056 6653,14545 5364,15290 5365,14150 6174,14150 Z M 6152,13323 L 6152,14128 5365,14128 5365,13726 6140,13323 6152,13323 Z"/>
     <path fill="rgb(211,211,211)" stroke="none" d="M 6152,14128 L 6152,13323 6140,13323 6653,13056 6653,14545 5364,15290 5365,14128 6152,14128 Z M 6129,13346 L 6129,14105 5370,14105 5370,13723 6096,13346 6129,13346 Z"/>
     <path fill="rgb(212,212,212)" stroke="none" d="M 5370,14105 L 6129,14105 6129,13346 6096,13346 6653,13056 6653,14545 5364,15290 5365,13726 5370,13723 5370,14105 Z M 6107,13368 L 6107,14083 5392,14083 5392,13712 6053,13368 6107,13368 Z"/>
     <path fill="rgb(213,213,213)" stroke="none" d="M 5392,14083 L 6107,14083 6107,13368 6053,13368 6653,13056 6653,14545 5364,15290 5365,13726 5392,13712 5392,14083 Z M 6085,13390 L 6085,14061 5414,14061 5414,13701 6011,13390 6085,13390 Z"/>
     <path fill="rgb(214,214,214)" stroke="none" d="M 5414,14061 L 6085,14061 6085,13390 6011,13390 6653,13056 6653,14545 5364,15290 5365,13726 5414,13701 5414,14061 Z M 6062,13413 L 6062,14038 5437,14038 5437,13689 5967,13413 6062,13413 Z"/>
     <path fill="rgb(215,215,215)" stroke="none" d="M 5437,14038 L 6062,14038 6062,13413 5967,13413 6653,13056 6653,14545 5364,15290 5365,13726 5437,13689 5437,14038 Z M 6040,13435 L 6040,14016 5459,14016 5459,13677 5924,13435 6040,13435 Z"/>
     <path fill="rgb(216,216,216)" stroke="none" d="M 5459,14016 L 6040,14016 6040,13435 5924,13435 6653,13056 6653,14545 5364,15290 5365,13726 5459,13677 5459,14016 Z M 6017,13458 L 6017,13993 5482,13993 5482,13665 5880,13458 6017,13458 Z"/>
     <path fill="rgb(217,217,217)" stroke="none" d="M 5482,13993 L 6017,13993 6017,13458 5880,13458 6653,13056 6653,14545 5364,15290 5365,13726 5482,13665 5482,13993 Z M 5995,13480 L 5995,13971 5504,13971 5504,13654 5838,13480 5995,13480 Z"/>
     <path fill="rgb(218,218,218)" stroke="none" d="M 5504,13971 L 5995,13971 5995,13480 5838,13480 6653,13056 6653,14545 5364,15290 5365,13726 5504,13654 5504,13971 Z M 5973,13502 L 5973,13949 5526,13949 5526,13642 5796,13502 5973,13502 Z"/>
     <path fill="rgb(219,219,219)" stroke="none" d="M 5526,13949 L 5973,13949 5973,13502 5796,13502 6653,13056 6653,14545 5364,15290 5365,13726 5526,13642 5526,13949 Z M 5950,13525 L 5950,13926 5549,13926 5549,13630 5751,13525 5950,13525 Z"/>
     <path fill="rgb(220,220,220)" stroke="none" d="M 5549,13926 L 5950,13926 5950,13525 5751,13525 6653,13056 6653,14545 5364,15290 5365,13726 5549,13630 5549,13926 Z M 5928,13547 L 5928,13904 5571,13904 5571,13619 5709,13547 5928,13547 Z"/>
     <path fill="rgb(221,221,221)" stroke="none" d="M 5571,13904 L 5928,13904 5928,13547 5709,13547 6653,13056 6653,14545 5364,15290 5365,13726 5571,13619 5571,13904 Z M 5906,13569 L 5906,13882 5593,13882 5593,13607 5667,13569 5906,13569 Z"/>
     <path fill="rgb(222,222,222)" stroke="none" d="M 5593,13882 L 5906,13882 5906,13569 5667,13569 6653,13056 6653,14545 5364,15290 5365,13726 5593,13607 5593,13882 Z M 5883,13592 L 5883,13859 5616,13859 5616,13595 5623,13592 5883,13592 Z"/>
     <path fill="rgb(223,223,223)" stroke="none" d="M 5616,13859 L 5883,13859 5883,13592 5623,13592 6653,13056 6653,14545 5364,15290 5365,13726 5616,13595 5616,13859 Z M 5638,13614 L 5861,13614 5861,13837 5638,13837 5638,13614 Z"/>
     <path fill="rgb(224,224,224)" stroke="none" d="M 5638,13614 L 5638,13837 5861,13837 5861,13614 5638,13614 Z M 5661,13637 L 5838,13637 5838,13814 5661,13814 5661,13637 Z M 5364,15290 L 5365,13726 6653,13056 6653,14545 5364,15290 Z"/>
     <path fill="rgb(225,225,225)" stroke="none" d="M 5661,13637 L 5661,13814 5838,13814 5838,13637 5661,13637 Z M 5683,13659 L 5816,13659 5816,13792 5683,13792 5683,13659 Z M 5364,15290 L 5365,13726 6653,13056 6653,14545 5364,15290 Z"/>
     <path fill="rgb(226,226,226)" stroke="none" d="M 5683,13659 L 5683,13792 5816,13792 5816,13659 5683,13659 Z M 5705,13681 L 5794,13681 5794,13770 5705,13770 5705,13681 Z M 5364,15290 L 5365,13726 6653,13056 6653,14545 5364,15290 Z"/>
     <path fill="rgb(227,227,227)" stroke="none" d="M 5705,13681 L 5705,13770 5794,13770 5794,13681 5705,13681 Z M 5728,13704 L 5771,13704 5771,13747 5728,13747 5728,13704 Z M 5364,15290 L 5365,13726 6653,13056 6653,14545 5364,15290 Z"/>
     <path fill="rgb(229,229,229)" stroke="none" d="M 5728,13704 L 5728,13747 5771,13747 5771,13704 5728,13704 Z M 5364,15290 L 5365,13726 6653,13056 6653,14545 5364,15290 Z"/>
     <path fill="none" stroke="rgb(255,255,255)" id="Drawing_3_0" stroke-width="40" stroke-linejoin="round" d="M 5364,15290 L 5365,13726 6653,13056 6653,14545 5364,15290 Z"/>
    </g>
    <g>
     <defs>
      <linearGradient id="Gradient_591" gradientUnits="userSpaceOnUse" x1="2785" y1="15325" x2="5367" y2="15329">
       <stop offset="0.1" stop-color="rgb(179,179,179)"/>
       <stop offset="1" stop-color="rgb(229,229,229)"/>
      </linearGradient>
     </defs>
     <path fill="url(#Gradient_591)" stroke="rgb(255,255,255)" id="Drawing_4_0" stroke-width="40" stroke-linejoin="round" d="M 2788,15290 L 2788,13875 5364,15364 5363,16779 2788,15290 Z"/>
    </g>
    <g>
     <defs>
      <linearGradient id="Gradient_592" gradientUnits="userSpaceOnUse" x1="2785" y1="13799" x2="5367" y2="13803">
       <stop offset="0.1" stop-color="rgb(179,179,179)"/>
       <stop offset="1" stop-color="rgb(229,229,229)"/>
      </linearGradient>
     </defs>
     <path fill="url(#Gradient_592)" stroke="rgb(255,255,255)" id="Drawing_5_0" stroke-width="40" stroke-linejoin="round" d="M 2788,13801 L 2788,12312 5364,13801 5364,15291 2788,13801 Z"/>
    </g>
    <g>
     <defs>
      <linearGradient id="Gradient_593" gradientUnits="userSpaceOnUse" x1="4720" y1="11567" x2="4720" y2="13801">
       <stop offset="0.1" stop-color="rgb(179,179,179)"/>
       <stop offset="1" stop-color="rgb(229,229,229)"/>
      </linearGradient>
     </defs>
     <path fill="url(#Gradient_593)" stroke="rgb(255,255,255)" id="Drawing_6_0" stroke-width="40" stroke-linejoin="round" d="M 2788,12312 L 4077,11567 6653,13056 5364,13801 2788,12312 Z"/>
    </g>
    <g>
     <defs>
      <linearGradient id="Gradient_594" gradientUnits="userSpaceOnUse" x1="4720" y1="13652" x2="4720" y2="15439">
       <stop offset="0.1" stop-color="rgb(179,179,179)"/>
       <stop offset="1" stop-color="rgb(229,229,229)"/>
      </linearGradient>
     </defs>
     <path fill="url(#Gradient_594)" stroke="rgb(255,255,255)" id="Drawing_7_0" stroke-width="40" stroke-linejoin="round" d="M 2530,13801 L 2788,13652 2788,13801 5365,15290 6652,14546 6652,14397 6910,14546 5365,15439 2530,13801 Z"/>
    </g>
    <g>
     <defs>
      <linearGradient id="Gradient_595" gradientUnits="userSpaceOnUse" x1="3744" y1="12310" x2="4452" y2="12312">
       <stop offset="0.1" stop-color="rgb(179,179,179)"/>
       <stop offset="1" stop-color="rgb(229,229,229)"/>
      </linearGradient>
     </defs>
     <path fill="url(#Gradient_595)" stroke="none" id="Drawing_8_0" d="M 4356,12162 L 4379,12177 4398,12193 4415,12211 4428,12230 4439,12249 4446,12270 4451,12290 4452,12311 4451,12332 4446,12353 4439,12373 4428,12392 4415,12411 4398,12429 4379,12445 4356,12460 4330,12473 4302,12484 4272,12494 4239,12501 4205,12507 4170,12512 4098,12515 4026,12512 3991,12507 3957,12501 3924,12494 3894,12484 3866,12473 3840,12460 3817,12445 3798,12429 3781,12411 3768,12392 3757,12373 3750,12353 3745,12332 3744,12311 3745,12290 3750,12270 3757,12249 3768,12230 3781,12211 3798,12193 3817,12177 3840,12162 3866,12149 3894,12138 3924,12128 3957,12121 3991,12115 4026,12110 4098,12107 4170,12110 4205,12115 4239,12121 4272,12128 4302,12138 4330,12149 4356,12162 Z"/>
     <path fill="none" stroke="rgb(255,255,255)" id="Drawing_8_1" stroke-width="40" stroke-linejoin="round" d="M 4356,12162 C 4484,12238 4484,12385 4356,12460 4227,12534 3969,12534 3840,12460 3712,12385 3712,12238 3840,12162 3969,12089 4227,12089 4356,12162 Z"/>
    </g>
    <g>
     <defs>
      <linearGradient id="Gradient_596" gradientUnits="userSpaceOnUse" x1="5010" y1="13054" x2="5718" y2="13056">
       <stop offset="0.1" stop-color="rgb(179,179,179)"/>
       <stop offset="1" stop-color="rgb(229,229,229)"/>
      </linearGradient>
     </defs>
     <path fill="url(#Gradient_596)" stroke="none" id="Drawing_9_0" d="M 5622,12906 L 5645,12921 5664,12937 5681,12955 5694,12974 5705,12993 5712,13014 5717,13034 5718,13055 5717,13076 5712,13097 5705,13117 5694,13136 5681,13155 5664,13173 5645,13189 5622,13204 5596,13217 5568,13228 5538,13238 5505,13245 5471,13251 5436,13256 5364,13259 5292,13256 5257,13251 5223,13245 5190,13238 5160,13228 5132,13217 5106,13204 5084,13189 5064,13173 5048,13155 5034,13136 5024,13117 5016,13097 5012,13076 5010,13055 5012,13034 5016,13014 5024,12993 5034,12974 5048,12955 5064,12937 5084,12921 5106,12906 5132,12893 5160,12882 5190,12872 5223,12865 5257,12859 5292,12854 5364,12851 5436,12854 5471,12859 5505,12865 5538,12872 5568,12882 5596,12893 5622,12906 Z"/>
     <path fill="none" stroke="rgb(255,255,255)" id="Drawing_9_1" stroke-width="40" stroke-linejoin="round" d="M 5622,12906 C 5750,12982 5750,13129 5622,13204 5493,13278 5235,13278 5106,13204 4978,13129 4978,12982 5106,12906 5235,12833 5493,12833 5622,12906 Z"/>
    </g>
    <g>
     <defs>
      <linearGradient id="Gradient_597" gradientUnits="userSpaceOnUse" x1="4099" y1="12293" x2="4099" y2="11883">
       <stop offset="0.1" stop-color="rgb(0,0,0)"/>
       <stop offset="1" stop-color="rgb(255,255,255)"/>
      </linearGradient>
     </defs>
     <path fill="url(#Gradient_597)" stroke="none" id="Drawing_10_0" d="M 4357,11939 L 4380,11954 4399,11970 4416,11988 4429,12007 4440,12026 4447,12047 4452,12067 4453,12088 4452,12109 4447,12130 4440,12150 4429,12169 4416,12188 4399,12206 4380,12222 4357,12237 4331,12250 4303,12261 4273,12271 4240,12278 4206,12284 4171,12289 4099,12292 4027,12289 3992,12284 3958,12278 3925,12271 3895,12261 3867,12250 3841,12237 3818,12222 3799,12206 3782,12188 3769,12169 3758,12150 3751,12130 3746,12109 3745,12088 3746,12067 3751,12047 3758,12026 3769,12007 3782,11988 3799,11970 3818,11954 3841,11939 3867,11926 3895,11915 3925,11905 3958,11898 3992,11892 4027,11887 4099,11884 4171,11887 4206,11892 4240,11898 4273,11905 4303,11915 4331,11926 4357,11939 Z"/>
     <path fill="none" stroke="rgb(255,255,255)" id="Drawing_10_1" stroke-width="40" stroke-linejoin="round" d="M 4357,11939 C 4485,12015 4485,12162 4357,12237 4228,12311 3970,12311 3841,12237 3713,12162 3713,12015 3841,11939 3970,11866 4228,11866 4357,11939 Z"/>
    </g>
    <g>
     <path fill="none" stroke="rgb(255,255,255)" id="Drawing_11_0" stroke-width="40" stroke-linejoin="round" d="M 4464,12089 L 4464,12312"/>
    </g>
    <g>
     <path fill="none" stroke="rgb(255,255,255)" id="Drawing_12_0" stroke-width="40" stroke-linejoin="round" d="M 3745,12089 L 3745,12312"/>
    </g>
    <g>
     <defs>
      <linearGradient id="Gradient_598" gradientUnits="userSpaceOnUse" x1="5364" y1="13037" x2="5364" y2="12627">
       <stop offset="0.1" stop-color="rgb(0,0,0)"/>
       <stop offset="1" stop-color="rgb(255,255,255)"/>
      </linearGradient>
     </defs>
     <path fill="url(#Gradient_598)" stroke="none" id="Drawing_13_0" d="M 5622,12683 L 5645,12698 5664,12714 5681,12732 5694,12751 5705,12770 5712,12791 5717,12811 5718,12832 5717,12853 5712,12874 5705,12894 5694,12913 5681,12932 5664,12950 5645,12966 5622,12981 5596,12994 5568,13005 5538,13015 5505,13022 5471,13028 5436,13033 5364,13036 5292,13033 5257,13028 5223,13022 5190,13015 5160,13005 5132,12994 5106,12981 5084,12966 5064,12950 5048,12932 5034,12913 5024,12894 5016,12874 5012,12853 5010,12832 5012,12811 5016,12791 5024,12770 5034,12751 5048,12732 5064,12714 5084,12698 5106,12683 5132,12670 5160,12659 5190,12649 5223,12642 5257,12636 5292,12631 5364,12628 5436,12631 5471,12636 5505,12642 5538,12649 5568,12659 5596,12670 5622,12683 Z"/>
     <path fill="none" stroke="rgb(255,255,255)" id="Drawing_13_1" stroke-width="40" stroke-linejoin="round" d="M 5622,12683 C 5750,12759 5750,12906 5622,12981 5493,13055 5235,13055 5106,12981 4978,12906 4978,12759 5106,12683 5235,12610 5493,12610 5622,12683 Z"/>
    </g>
    <g>
     <path fill="none" stroke="rgb(255,255,255)" id="Drawing_14_0" stroke-width="40" stroke-linejoin="round" d="M 5728,12833 L 5728,13056"/>
    </g>
    <g>
     <path fill="none" stroke="rgb(255,255,255)" id="Drawing_15_0" stroke-width="40" stroke-linejoin="round" d="M 5010,12833 L 5010,13056"/>
    </g>
    <g>
     <path fill="rgb(179,179,179)" stroke="none" d="M 4462,14416 L 4462,13801 4720,13652 4720,14416 4462,14416 Z"/>
     <path fill="rgb(180,180,180)" stroke="none" d="M 4720,14416 L 4720,14471 4462,14620 4462,14416 4720,14416 Z M 4462,14406 L 4462,13801 4720,13652 4720,14406 4462,14406 Z"/>
     <path fill="rgb(181,181,181)" stroke="none" d="M 4720,14406 L 4720,14471 4462,14620 4462,14406 4720,14406 Z M 4462,14396 L 4462,13801 4720,13652 4720,14396 4462,14396 Z"/>
     <path fill="rgb(182,182,182)" stroke="none" d="M 4720,14396 L 4720,14471 4462,14620 4462,14396 4720,14396 Z M 4462,14386 L 4462,13801 4720,13652 4720,14386 4462,14386 Z"/>
     <path fill="rgb(183,183,183)" stroke="none" d="M 4720,14386 L 4720,14471 4462,14620 4462,14386 4720,14386 Z M 4462,14376 L 4462,13801 4720,13652 4720,14376 4462,14376 Z"/>
     <path fill="rgb(184,184,184)" stroke="none" d="M 4720,14376 L 4720,14471 4462,14620 4462,14376 4720,14376 Z M 4462,14366 L 4462,13801 4720,13652 4720,14366 4462,14366 Z"/>
     <path fill="rgb(185,185,185)" stroke="none" d="M 4720,14366 L 4720,14471 4462,14620 4462,14366 4720,14366 Z M 4462,14356 L 4462,13801 4720,13652 4720,14356 4462,14356 Z"/>
     <path fill="rgb(186,186,186)" stroke="none" d="M 4720,14356 L 4720,14471 4462,14620 4462,14356 4720,14356 Z M 4462,14346 L 4462,13801 4720,13652 4720,14346 4462,14346 Z"/>
     <path fill="rgb(187,187,187)" stroke="none" d="M 4720,14346 L 4720,14471 4462,14620 4462,14346 4720,14346 Z M 4462,14335 L 4462,13801 4720,13652 4720,14335 4462,14335 Z"/>
     <path fill="rgb(188,188,188)" stroke="none" d="M 4720,14335 L 4720,14471 4462,14620 4462,14335 4720,14335 Z M 4462,14325 L 4462,13801 4720,13652 4720,14325 4462,14325 Z"/>
     <path fill="rgb(189,189,189)" stroke="none" d="M 4720,14325 L 4720,14471 4462,14620 4462,14325 4720,14325 Z M 4462,14315 L 4462,13801 4720,13652 4720,14315 4462,14315 Z"/>
     <path fill="rgb(190,190,190)" stroke="none" d="M 4720,14315 L 4720,14471 4462,14620 4462,14315 4720,14315 Z M 4462,14305 L 4462,13801 4720,13652 4720,14305 4462,14305 Z"/>
     <path fill="rgb(191,191,191)" stroke="none" d="M 4720,14305 L 4720,14471 4462,14620 4462,14305 4720,14305 Z M 4462,14295 L 4462,13801 4720,13652 4720,14295 4462,14295 Z"/>
     <path fill="rgb(192,192,192)" stroke="none" d="M 4720,14295 L 4720,14471 4462,14620 4462,14295 4720,14295 Z M 4462,14285 L 4462,13801 4720,13652 4720,14285 4462,14285 Z"/>
     <path fill="rgb(193,193,193)" stroke="none" d="M 4720,14285 L 4720,14471 4462,14620 4462,14285 4720,14285 Z M 4462,14275 L 4462,13801 4720,13652 4720,14275 4462,14275 Z"/>
     <path fill="rgb(194,194,194)" stroke="none" d="M 4720,14275 L 4720,14471 4462,14620 4462,14275 4720,14275 Z M 4462,14265 L 4462,13801 4720,13652 4720,14265 4462,14265 Z"/>
     <path fill="rgb(195,195,195)" stroke="none" d="M 4720,14265 L 4720,14471 4462,14620 4462,14265 4720,14265 Z M 4462,14255 L 4462,13801 4720,13652 4720,14255 4462,14255 Z"/>
     <path fill="rgb(196,196,196)" stroke="none" d="M 4720,14255 L 4720,14471 4462,14620 4462,14255 4720,14255 Z M 4462,14244 L 4462,13801 4720,13652 4720,14244 4462,14244 Z"/>
     <path fill="rgb(197,197,197)" stroke="none" d="M 4720,14244 L 4720,14471 4462,14620 4462,14244 4720,14244 Z M 4462,14234 L 4462,13801 4720,13652 4720,14234 4462,14234 Z"/>
     <path fill="rgb(198,198,198)" stroke="none" d="M 4720,14234 L 4720,14471 4462,14620 4462,14234 4720,14234 Z M 4720,13659 L 4720,14224 4462,14224 4462,13801 4708,13659 4720,13659 Z"/>
     <path fill="rgb(199,199,199)" stroke="none" d="M 4720,14224 L 4720,14471 4462,14620 4462,14224 4720,14224 Z M 4708,13659 L 4720,13652 4720,13659 4708,13659 Z M 4720,13669 L 4720,14214 4462,14214 4462,13801 4691,13669 4720,13669 Z"/>
     <path fill="rgb(200,200,200)" stroke="none" d="M 4720,14214 L 4720,14471 4462,14620 4462,14214 4720,14214 Z M 4691,13669 L 4720,13652 4720,13669 4691,13669 Z M 4720,13679 L 4720,14204 4462,14204 4462,13801 4673,13679 4720,13679 Z"/>
     <path fill="rgb(201,201,201)" stroke="none" d="M 4720,14204 L 4720,14471 4462,14620 4462,14204 4720,14204 Z M 4673,13679 L 4720,13652 4720,13679 4673,13679 Z M 4720,13689 L 4720,14194 4462,14194 4462,13801 4656,13689 4720,13689 Z"/>
     <path fill="rgb(202,202,202)" stroke="none" d="M 4720,14194 L 4720,14471 4462,14620 4462,14194 4720,14194 Z M 4656,13689 L 4720,13652 4720,13689 4656,13689 Z M 4720,13699 L 4720,14184 4462,14184 4462,13801 4639,13699 4720,13699 Z"/>
     <path fill="rgb(204,204,204)" stroke="none" d="M 4720,14184 L 4720,14471 4462,14620 4462,14184 4720,14184 Z M 4639,13699 L 4720,13652 4720,13699 4639,13699 Z M 4720,13709 L 4720,14174 4462,14174 4462,13801 4621,13709 4720,13709 Z"/>
     <path fill="rgb(205,205,205)" stroke="none" d="M 4720,14174 L 4720,14471 4462,14620 4462,14174 4720,14174 Z M 4621,13709 L 4720,13652 4720,13709 4621,13709 Z M 4720,13719 L 4720,14164 4462,14164 4462,13801 4604,13719 4720,13719 Z"/>
     <path fill="rgb(206,206,206)" stroke="none" d="M 4720,14164 L 4720,14471 4462,14620 4462,14164 4720,14164 Z M 4604,13719 L 4720,13652 4720,13719 4604,13719 Z M 4720,13730 L 4720,14153 4462,14153 4462,13801 4585,13730 4720,13730 Z"/>
     <path fill="rgb(207,207,207)" stroke="none" d="M 4720,14153 L 4720,14471 4462,14620 4462,14153 4720,14153 Z M 4585,13730 L 4720,13652 4720,13730 4585,13730 Z M 4720,13740 L 4720,14143 4462,14143 4462,13801 4568,13740 4720,13740 Z"/>
     <path fill="rgb(208,208,208)" stroke="none" d="M 4720,14143 L 4720,14471 4462,14620 4462,14143 4720,14143 Z M 4568,13740 L 4720,13652 4720,13740 4568,13740 Z M 4720,13750 L 4720,14133 4462,14133 4462,13801 4550,13750 4720,13750 Z"/>
     <path fill="rgb(209,209,209)" stroke="none" d="M 4720,14133 L 4720,14471 4462,14620 4462,14133 4720,14133 Z M 4550,13750 L 4720,13652 4720,13750 4550,13750 Z M 4720,13760 L 4720,14123 4462,14123 4462,13801 4533,13760 4720,13760 Z"/>
     <path fill="rgb(210,210,210)" stroke="none" d="M 4720,14123 L 4720,14471 4462,14620 4462,14123 4720,14123 Z M 4533,13760 L 4720,13652 4720,13760 4533,13760 Z M 4710,13770 L 4710,14113 4462,14113 4462,13801 4516,13770 4710,13770 Z"/>
     <path fill="rgb(211,211,211)" stroke="none" d="M 4710,14113 L 4710,13770 4516,13770 4720,13652 4720,14471 4462,14620 4462,14113 4710,14113 Z M 4700,13780 L 4700,14103 4462,14103 4462,13801 4498,13780 4700,13780 Z"/>
     <path fill="rgb(212,212,212)" stroke="none" d="M 4700,14103 L 4700,13780 4498,13780 4720,13652 4720,14471 4462,14620 4462,14103 4700,14103 Z M 4690,13790 L 4690,14093 4462,14093 4462,13801 4481,13790 4690,13790 Z"/>
     <path fill="rgb(213,213,213)" stroke="none" d="M 4690,14093 L 4690,13790 4481,13790 4720,13652 4720,14471 4462,14620 4462,14093 4690,14093 Z M 4680,13800 L 4680,14083 4462,14083 4462,13801 4464,13800 4680,13800 Z"/>
     <path fill="rgb(214,214,214)" stroke="none" d="M 4680,14083 L 4680,13800 4464,13800 4720,13652 4720,14471 4462,14620 4462,14083 4680,14083 Z M 4669,13811 L 4669,14072 4462,14072 4462,13811 4669,13811 Z"/>
     <path fill="rgb(215,215,215)" stroke="none" d="M 4669,14072 L 4669,13811 4462,13811 4462,13801 4720,13652 4720,14471 4462,14620 4462,14072 4669,14072 Z M 4659,13821 L 4659,14062 4462,14062 4462,13821 4659,13821 Z"/>
     <path fill="rgb(216,216,216)" stroke="none" d="M 4659,14062 L 4659,13821 4462,13821 4462,13801 4720,13652 4720,14471 4462,14620 4462,14062 4659,14062 Z M 4649,13831 L 4649,14052 4462,14052 4462,13831 4649,13831 Z"/>
     <path fill="rgb(217,217,217)" stroke="none" d="M 4649,14052 L 4649,13831 4462,13831 4462,13801 4720,13652 4720,14471 4462,14620 4462,14052 4649,14052 Z M 4639,13841 L 4639,14042 4462,14042 4462,13841 4639,13841 Z"/>
     <path fill="rgb(218,218,218)" stroke="none" d="M 4639,14042 L 4639,13841 4462,13841 4462,13801 4720,13652 4720,14471 4462,14620 4462,14042 4639,14042 Z M 4629,13851 L 4629,14032 4462,14032 4462,13851 4629,13851 Z"/>
     <path fill="rgb(219,219,219)" stroke="none" d="M 4629,14032 L 4629,13851 4462,13851 4462,13801 4720,13652 4720,14471 4462,14620 4462,14032 4629,14032 Z M 4619,13861 L 4619,14022 4462,14022 4462,13861 4619,13861 Z"/>
     <path fill="rgb(220,220,220)" stroke="none" d="M 4619,14022 L 4619,13861 4462,13861 4462,13801 4720,13652 4720,14471 4462,14620 4462,14022 4619,14022 Z M 4468,13871 L 4609,13871 4609,14012 4468,14012 4468,13871 Z"/>
     <path fill="rgb(221,221,221)" stroke="none" d="M 4468,13871 L 4468,14012 4609,14012 4609,13871 4468,13871 Z M 4478,13881 L 4599,13881 4599,14002 4478,14002 4478,13881 Z M 4462,14620 L 4462,13801 4720,13652 4720,14471 4462,14620 Z"/>
     <path fill="rgb(222,222,222)" stroke="none" d="M 4478,13881 L 4478,14002 4599,14002 4599,13881 4478,13881 Z M 4488,13891 L 4589,13891 4589,13992 4488,13992 4488,13891 Z M 4462,14620 L 4462,13801 4720,13652 4720,14471 4462,14620 Z"/>
     <path fill="rgb(223,223,223)" stroke="none" d="M 4488,13891 L 4488,13992 4589,13992 4589,13891 4488,13891 Z M 4499,13902 L 4578,13902 4578,13981 4499,13981 4499,13902 Z M 4462,14620 L 4462,13801 4720,13652 4720,14471 4462,14620 Z"/>
     <path fill="rgb(224,224,224)" stroke="none" d="M 4499,13902 L 4499,13981 4578,13981 4578,13902 4499,13902 Z M 4509,13912 L 4568,13912 4568,13971 4509,13971 4509,13912 Z M 4462,14620 L 4462,13801 4720,13652 4720,14471 4462,14620 Z"/>
     <path fill="rgb(225,225,225)" stroke="none" d="M 4509,13912 L 4509,13971 4568,13971 4568,13912 4509,13912 Z M 4519,13922 L 4558,13922 4558,13961 4519,13961 4519,13922 Z M 4462,14620 L 4462,13801 4720,13652 4720,14471 4462,14620 Z"/>
     <path fill="rgb(226,226,226)" stroke="none" d="M 4519,13922 L 4519,13961 4558,13961 4558,13922 4519,13922 Z M 4529,13932 L 4548,13932 4548,13951 4529,13951 4529,13932 Z M 4462,14620 L 4462,13801 4720,13652 4720,14471 4462,14620 Z"/>
     <path fill="rgb(229,229,229)" stroke="none" d="M 4529,13932 L 4529,13951 4548,13951 4548,13932 4529,13932 Z M 4462,14620 L 4462,13801 4720,13652 4720,14471 4462,14620 Z"/>
     <path fill="none" stroke="rgb(255,255,255)" id="Drawing_16_0" stroke-width="40" stroke-linejoin="round" d="M 4462,14620 L 4462,13801 4720,13652 4720,14471 4462,14620 Z"/>
    </g>
    <g>
     <defs>
      <linearGradient id="Gradient_599" gradientUnits="userSpaceOnUse" x1="3301" y1="13874" x2="4462" y2="13876">
       <stop offset="0.1" stop-color="rgb(179,179,179)"/>
       <stop offset="1" stop-color="rgb(229,229,229)"/>
      </linearGradient>
     </defs>
     <path fill="url(#Gradient_599)" stroke="rgb(255,255,255)" id="Drawing_17_0" stroke-width="40" stroke-linejoin="round" d="M 3303,13950 L 3303,13131 4462,13801 4462,14620 3303,13950 Z"/>
    </g>
    <g>
     <defs>
      <linearGradient id="Gradient_600" gradientUnits="userSpaceOnUse" x1="4011" y1="12982" x2="4011" y2="13801">
       <stop offset="0.1" stop-color="rgb(179,179,179)"/>
       <stop offset="1" stop-color="rgb(229,229,229)"/>
      </linearGradient>
     </defs>
     <path fill="url(#Gradient_600)" stroke="rgb(255,255,255)" id="Drawing_18_0" stroke-width="40" stroke-linejoin="round" d="M 4462,13801 L 3303,13131 3561,12982 4720,13652 4462,13801 Z"/>
    </g>
    <g>
     <path fill="none" stroke="rgb(0,0,0)" id="Drawing_19_0" stroke-width="40" stroke-linejoin="round" d="M 2788,15290 L 2788,13950 2530,13801 2788,13652 2788,12312 4076,11567 6652,13056 6652,14397 6910,14546 6652,14695 6652,16035 5365,16780 2788,15290 Z"/>
    </g>
    <g>
     <defs>
      <linearGradient id="Gradient_601" gradientUnits="userSpaceOnUse" x1="3431" y1="13837" x2="4335" y2="13839">
       <stop offset="0.1" stop-color="rgb(147,212,240)"/>
       <stop offset="1" stop-color="rgb(233,246,252)"/>
      </linearGradient>
     </defs>
     <path fill="url(#Gradient_601)" stroke="rgb(127,127,127)" id="Drawing_20_0" stroke-width="40" stroke-linejoin="round" d="M 3432,13801 L 3432,13354 4334,13875 4334,14322 3432,13801 Z"/>
    </g>
    <g>
     <path fill="none" stroke="rgb(127,127,127)" id="Drawing_21_0" stroke-width="40" stroke-linejoin="round" d="M 2788,13801 L 5364,15290 6653,14546"/>
    </g>
   </g>
  </g>
 </g>
</svg>