<?xml version="1.0" encoding="UTF-8"?>

<svg version="1.2" baseProfile="tiny" width="47.48mm" height="42.23mm" viewBox="5629 7300 4748 4223" preserveAspectRatio="xMidYMid" fill-rule="evenodd" stroke-width="28.222" stroke-linejoin="round" xmlns="http://www.w3.org/2000/svg" xmlns:xlink="http://www.w3.org/1999/xlink" xml:space="preserve">
 <g visibility="visible" id="Slide_1">
  <g id="DrawingGroup_1">
   <g>
    <path fill="rgb(221,221,221)" stroke="none" d="M 8544,11503 C 8809,11503 10377,10778 10377,10611 10377,10443 10256,10276 9991,10276 9991,10443 8544,11224 8544,11503 Z"/>
    <path fill="none" stroke="rgb(221,221,221)" id="Drawing_1_0" stroke-linejoin="round" d="M 8544,11503 C 8809,11503 10377,10778 10377,10611 10377,10443 10256,10276 9991,10276 9991,10443 8544,11224 8544,11503 Z"/>
   </g>
   <g id="DrawingGroup_2">
    <g>
     <defs>
      <linearGradient id="Gradient_626" gradientUnits="userSpaceOnUse" x1="5645" y1="9827" x2="8546" y2="9833">
       <stop offset="0.1" stop-color="rgb(179,179,179)"/>
       <stop offset="1" stop-color="rgb(229,229,229)"/>
      </linearGradient>
     </defs>
     <path fill="url(#Gradient_626)" stroke="rgb(255,255,255)" id="Drawing_2_0" stroke-width="40" stroke-linejoin="round" d="M 5649,9830 L 5649,8157 8544,9830 8544,11503 5649,9830 Z"/>
    </g>
    <g>
     <path fill="rgb(179,179,179)" stroke="none" d="M 8544,10975 L 8544,9830 9991,8993 9991,10666 9457,10975 8544,10975 Z"/>
     <path fill="rgb(180,180,180)" stroke="none" d="M 9457,10975 L 8544,11503 8544,10975 9457,10975 Z M 8544,10950 L 8544,9830 9991,8993 9991,10666 9500,10950 8544,10950 Z"/>
     <path fill="rgb(181,181,181)" stroke="none" d="M 9500,10950 L 8544,11503 8544,10950 9500,10950 Z M 8544,10925 L 8544,9830 9991,8993 9991,10666 9543,10925 8544,10925 Z"/>
     <path fill="rgb(182,182,182)" stroke="none" d="M 9543,10925 L 8544,11503 8544,10925 9543,10925 Z M 8544,10900 L 8544,9830 9991,8993 9991,10666 9586,10900 8544,10900 Z"/>
     <path fill="rgb(183,183,183)" stroke="none" d="M 9586,10900 L 8544,11503 8544,10900 9586,10900 Z M 8544,10875 L 8544,9830 9991,8993 9991,10666 9630,10875 8544,10875 Z"/>
     <path fill="rgb(184,184,184)" stroke="none" d="M 9630,10875 L 8544,11503 8544,10875 9630,10875 Z M 8544,10850 L 8544,9830 9991,8993 9991,10666 9673,10850 8544,10850 Z"/>
     <path fill="rgb(185,185,185)" stroke="none" d="M 9673,10850 L 8544,11503 8544,10850 9673,10850 Z M 8544,10825 L 8544,9830 9991,8993 9991,10666 9716,10825 8544,10825 Z"/>
     <path fill="rgb(186,186,186)" stroke="none" d="M 9716,10825 L 8544,11503 8544,10825 9716,10825 Z M 8544,10799 L 8544,9830 9991,8993 9991,10666 9761,10799 8544,10799 Z"/>
     <path fill="rgb(187,187,187)" stroke="none" d="M 9761,10799 L 8544,11503 8544,10799 9761,10799 Z M 8544,10774 L 8544,9830 9991,8993 9991,10666 9804,10774 8544,10774 Z"/>
     <path fill="rgb(188,188,188)" stroke="none" d="M 9804,10774 L 8544,11503 8544,10774 9804,10774 Z M 9982,10671 L 9848,10749 8544,10749 8544,9830 9982,8998 9982,10671 Z"/>
     <path fill="rgb(189,189,189)" stroke="none" d="M 9848,10749 L 8544,11503 8544,10749 9848,10749 Z M 9982,8998 L 9991,8993 9991,10666 9982,10671 9982,8998 Z M 9957,10686 L 9891,10724 8544,10724 8544,9830 9957,9013 9957,10686 Z"/>
     <path fill="rgb(190,190,190)" stroke="none" d="M 9891,10724 L 8544,11503 8544,10724 9891,10724 Z M 9957,9013 L 9991,8993 9991,10666 9957,10686 9957,9013 Z M 9932,10699 L 8544,10699 8544,9830 9932,9027 9932,10699 Z"/>
     <path fill="rgb(191,191,191)" stroke="none" d="M 9932,10699 L 9932,9027 9991,8993 9991,10666 8544,11503 8544,10699 9932,10699 Z M 9907,10674 L 8544,10674 8544,9830 9907,9042 9907,10674 Z"/>
     <path fill="rgb(192,192,192)" stroke="none" d="M 9907,10674 L 9907,9042 9991,8993 9991,10666 8544,11503 8544,10674 9907,10674 Z M 9882,10649 L 8544,10649 8544,9830 9882,9056 9882,10649 Z"/>
     <path fill="rgb(193,193,193)" stroke="none" d="M 9882,10649 L 9882,9056 9991,8993 9991,10666 8544,11503 8544,10649 9882,10649 Z M 9857,10624 L 8544,10624 8544,9830 9857,9071 9857,10624 Z"/>
     <path fill="rgb(194,194,194)" stroke="none" d="M 9857,10624 L 9857,9071 9991,8993 9991,10666 8544,11503 8544,10624 9857,10624 Z M 9831,10598 L 8544,10598 8544,9830 9831,9086 9831,10598 Z"/>
     <path fill="rgb(195,195,195)" stroke="none" d="M 9831,10598 L 9831,9086 9991,8993 9991,10666 8544,11503 8544,10598 9831,10598 Z M 9806,10573 L 8544,10573 8544,9830 9806,9100 9806,10573 Z"/>
     <path fill="rgb(196,196,196)" stroke="none" d="M 9806,10573 L 9806,9100 9991,8993 9991,10666 8544,11503 8544,10573 9806,10573 Z M 9781,10548 L 8544,10548 8544,9830 9781,9114 9781,10548 Z"/>
     <path fill="rgb(197,197,197)" stroke="none" d="M 9781,10548 L 9781,9114 9991,8993 9991,10666 8544,11503 8544,10548 9781,10548 Z M 9756,10523 L 8544,10523 8544,9830 9756,9129 9756,10523 Z"/>
     <path fill="rgb(198,198,198)" stroke="none" d="M 9756,10523 L 9756,9129 9991,8993 9991,10666 8544,11503 8544,10523 9756,10523 Z M 9731,10498 L 8544,10498 8544,9830 9731,9143 9731,10498 Z"/>
     <path fill="rgb(199,199,199)" stroke="none" d="M 9731,10498 L 9731,9143 9991,8993 9991,10666 8544,11503 8544,10498 9731,10498 Z M 9706,10473 L 8544,10473 8544,9830 9706,9158 9706,10473 Z"/>
     <path fill="rgb(200,200,200)" stroke="none" d="M 9706,10473 L 9706,9158 9991,8993 9991,10666 8544,11503 8544,10473 9706,10473 Z M 9681,10448 L 8544,10448 8544,9830 9681,9172 9681,10448 Z"/>
     <path fill="rgb(201,201,201)" stroke="none" d="M 9681,10448 L 9681,9172 9991,8993 9991,10666 8544,11503 8544,10448 9681,10448 Z M 9656,10423 L 8544,10423 8544,9830 9656,9187 9656,10423 Z"/>
     <path fill="rgb(202,202,202)" stroke="none" d="M 9656,10423 L 9656,9187 9991,8993 9991,10666 8544,11503 8544,10423 9656,10423 Z M 9630,10397 L 8544,10397 8544,9830 9630,9202 9630,10397 Z"/>
     <path fill="rgb(203,203,203)" stroke="none" d="M 9630,10397 L 9630,9202 9991,8993 9991,10666 8544,11503 8544,10397 9630,10397 Z M 9605,10372 L 8544,10372 8544,9830 9605,9216 9605,10372 Z"/>
     <path fill="rgb(204,204,204)" stroke="none" d="M 9605,10372 L 9605,9216 9991,8993 9991,10666 8544,11503 8544,10372 9605,10372 Z M 9580,10347 L 8544,10347 8544,9830 9580,9231 9580,10347 Z"/>
     <path fill="rgb(205,205,205)" stroke="none" d="M 9580,10347 L 9580,9231 9991,8993 9991,10666 8544,11503 8544,10347 9580,10347 Z M 9555,10322 L 8544,10322 8544,9830 9555,9245 9555,10322 Z"/>
     <path fill="rgb(206,206,206)" stroke="none" d="M 9555,10322 L 9555,9245 9991,8993 9991,10666 8544,11503 8544,10322 9555,10322 Z M 9530,10297 L 8544,10297 8544,9830 9530,9260 9530,10297 Z"/>
     <path fill="rgb(207,207,207)" stroke="none" d="M 9530,10297 L 9530,9260 9991,8993 9991,10666 8544,11503 8544,10297 9530,10297 Z M 9505,10272 L 8544,10272 8544,9830 9505,9274 9505,10272 Z"/>
     <path fill="rgb(208,208,208)" stroke="none" d="M 9505,10272 L 9505,9274 9991,8993 9991,10666 8544,11503 8544,10272 9505,10272 Z M 9480,10247 L 8544,10247 8544,9830 9480,9289 9480,10247 Z"/>
     <path fill="rgb(209,209,209)" stroke="none" d="M 9480,10247 L 9480,9289 9991,8993 9991,10666 8544,11503 8544,10247 9480,10247 Z M 9454,10221 L 8544,10221 8544,9830 9454,9304 9454,10221 Z"/>
     <path fill="rgb(210,210,210)" stroke="none" d="M 9454,10221 L 9454,9304 9991,8993 9991,10666 8544,11503 8544,10221 9454,10221 Z M 9429,10196 L 8544,10196 8544,9830 9429,9318 9429,10196 Z"/>
     <path fill="rgb(211,211,211)" stroke="none" d="M 9429,10196 L 9429,9318 9991,8993 9991,10666 8544,11503 8544,10196 9429,10196 Z M 9404,10171 L 8551,10171 8551,9826 9404,9333 9404,10171 Z"/>
     <path fill="rgb(212,212,212)" stroke="none" d="M 8551,10171 L 9404,10171 9404,9333 9991,8993 9991,10666 8544,11503 8544,9830 8551,9826 8551,10171 Z M 9379,10146 L 8576,10146 8576,9811 9379,9347 9379,10146 Z"/>
     <path fill="rgb(213,213,213)" stroke="none" d="M 8576,10146 L 9379,10146 9379,9347 9991,8993 9991,10666 8544,11503 8544,9830 8576,9811 8576,10146 Z M 9354,9368 L 9354,10121 8601,10121 8601,9797 9343,9368 9354,9368 Z"/>
     <path fill="rgb(214,214,214)" stroke="none" d="M 8601,10121 L 9354,10121 9354,9368 9343,9368 9991,8993 9991,10666 8544,11503 8544,9830 8601,9797 8601,10121 Z M 9329,9393 L 9329,10096 8626,10096 8626,9783 9299,9393 9329,9393 Z"/>
     <path fill="rgb(215,215,215)" stroke="none" d="M 8626,10096 L 9329,10096 9329,9393 9299,9393 9991,8993 9991,10666 8544,11503 8544,9830 8626,9783 8626,10096 Z M 9304,9418 L 9304,10071 8651,10071 8651,9768 9256,9418 9304,9418 Z"/>
     <path fill="rgb(216,216,216)" stroke="none" d="M 8651,10071 L 9304,10071 9304,9418 9256,9418 9991,8993 9991,10666 8544,11503 8544,9830 8651,9768 8651,10071 Z M 9279,9443 L 9279,10046 8676,10046 8676,9754 9213,9443 9279,9443 Z"/>
     <path fill="rgb(217,217,217)" stroke="none" d="M 8676,10046 L 9279,10046 9279,9443 9213,9443 9991,8993 9991,10666 8544,11503 8544,9830 8676,9754 8676,10046 Z M 9253,9469 L 9253,10020 8702,10020 8702,9739 9168,9469 9253,9469 Z"/>
     <path fill="rgb(218,218,218)" stroke="none" d="M 8702,10020 L 9253,10020 9253,9469 9168,9469 9991,8993 9991,10666 8544,11503 8544,9830 8702,9739 8702,10020 Z M 9228,9494 L 9228,9995 8727,9995 8727,9724 9125,9494 9228,9494 Z"/>
     <path fill="rgb(219,219,219)" stroke="none" d="M 8727,9995 L 9228,9995 9228,9494 9125,9494 9991,8993 9991,10666 8544,11503 8544,9830 8727,9724 8727,9995 Z M 9203,9519 L 9203,9970 8752,9970 8752,9710 9082,9519 9203,9519 Z"/>
     <path fill="rgb(220,220,220)" stroke="none" d="M 8752,9970 L 9203,9970 9203,9519 9082,9519 9991,8993 9991,10666 8544,11503 8544,9830 8752,9710 8752,9970 Z M 9178,9544 L 9178,9945 8777,9945 8777,9695 9038,9544 9178,9544 Z"/>
     <path fill="rgb(221,221,221)" stroke="none" d="M 8777,9945 L 9178,9945 9178,9544 9038,9544 9991,8993 9991,10666 8544,11503 8544,9830 8777,9695 8777,9945 Z M 9153,9569 L 9153,9920 8802,9920 8802,9681 8995,9569 9153,9569 Z"/>
     <path fill="rgb(222,222,222)" stroke="none" d="M 8802,9920 L 9153,9920 9153,9569 8995,9569 9991,8993 9991,10666 8544,11503 8544,9830 8802,9681 8802,9920 Z M 9128,9594 L 9128,9895 8827,9895 8827,9666 8952,9594 9128,9594 Z"/>
     <path fill="rgb(223,223,223)" stroke="none" d="M 8827,9895 L 9128,9895 9128,9594 8952,9594 9991,8993 9991,10666 8544,11503 8544,9830 8827,9666 8827,9895 Z M 9103,9619 L 9103,9870 8852,9870 8852,9652 8909,9619 9103,9619 Z"/>
     <path fill="rgb(224,224,224)" stroke="none" d="M 8852,9870 L 9103,9870 9103,9619 8909,9619 9991,8993 9991,10666 8544,11503 8544,9830 8852,9652 8852,9870 Z M 8877,9644 L 9078,9644 9078,9845 8877,9845 8877,9644 Z"/>
     <path fill="rgb(225,225,225)" stroke="none" d="M 8877,9644 L 8877,9845 9078,9845 9078,9644 8877,9644 Z M 8903,9670 L 9052,9670 9052,9819 8903,9819 8903,9670 Z M 8544,11503 L 8544,9830 9991,8993 9991,10666 8544,11503 Z"/>
     <path fill="rgb(226,226,226)" stroke="none" d="M 8903,9670 L 8903,9819 9052,9819 9052,9670 8903,9670 Z M 8928,9695 L 9027,9695 9027,9794 8928,9794 8928,9695 Z M 8544,11503 L 8544,9830 9991,8993 9991,10666 8544,11503 Z"/>
     <path fill="rgb(227,227,227)" stroke="none" d="M 8928,9695 L 8928,9794 9027,9794 9027,9695 8928,9695 Z M 8953,9720 L 9002,9720 9002,9769 8953,9769 8953,9720 Z M 8544,11503 L 8544,9830 9991,8993 9991,10666 8544,11503 Z"/>
     <path fill="rgb(229,229,229)" stroke="none" d="M 8953,9720 L 8953,9769 9002,9769 9002,9720 8953,9720 Z M 8544,11503 L 8544,9830 9991,8993 9991,10666 8544,11503 Z"/>
     <path fill="none" stroke="rgb(255,255,255)" id="Drawing_3_0" stroke-width="40" stroke-linejoin="round" d="M 8544,11503 L 8544,9830 9991,8993 9991,10666 8544,11503 Z"/>
    </g>
    <g>
     <defs>
      <linearGradient id="Gradient_627" gradientUnits="userSpaceOnUse" x1="7820" y1="7320" x2="7820" y2="9830">
       <stop offset="0.1" stop-color="rgb(179,179,179)"/>
       <stop offset="1" stop-color="rgb(229,229,229)"/>
      </linearGradient>
     </defs>
     <path fill="url(#Gradient_627)" stroke="rgb(255,255,255)" id="Drawing_4_0" stroke-width="40" stroke-linejoin="round" d="M 8544,9830 L 5649,8157 7096,7320 9991,8993 8544,9830 Z"/>
    </g>
    <g>
     <path fill="none" stroke="rgb(0,0,0)" id="Drawing_5_0" stroke-width="40" stroke-linejoin="round" d="M 5649,9830 L 5649,8157 7096,7320 9991,8993 9991,10666 8544,11503 5649,9830 Z"/>
    </g>
    <g>
     <path fill="rgb(230,230,230)" stroke="none" d="M 5842,8993 L 5842,8491 6614,8937 6614,9439 5842,8993 Z"/>
     <path fill="none" stroke="rgb(255,255,255)" id="Drawing_6_0" stroke-width="40" stroke-linejoin="round" d="M 5842,8993 L 5842,8491 6614,8937 6614,9439 5842,8993 Z"/>
    </g>
    <g>
     <path fill="rgb(0,0,0)" stroke="none" d="M 8544,9662 L 8158,9439 8447,9272 8833,9495 8544,9662 Z"/>
     <path fill="none" stroke="rgb(127,127,127)" id="Drawing_7_0" stroke-width="40" stroke-linejoin="round" d="M 8544,9662 L 8158,9439 8447,9272 8833,9495 8544,9662 Z"/>
    </g>
    <g>
     <path fill="rgb(127,127,127)" stroke="none" d="M 8351,9440 L 8351,9161 8544,9273 8544,9551 8351,9440 Z"/>
     <path fill="none" stroke="rgb(255,255,255)" id="Drawing_8_0" stroke-width="40" stroke-linejoin="round" d="M 8351,9440 L 8351,9161 8544,9273 8544,9551 8351,9440 Z"/>
    </g>
    <g>
     <path fill="rgb(127,127,127)" stroke="none" d="M 8544,9551 L 8544,9272 8640,9216 8640,9495 8544,9551 Z"/>
     <path fill="none" stroke="rgb(255,255,255)" id="Drawing_9_0" stroke-width="40" stroke-linejoin="round" d="M 8544,9551 L 8544,9272 8640,9216 8640,9495 8544,9551 Z"/>
    </g>
    <g>
     <path fill="rgb(127,127,127)" stroke="none" d="M 8351,9161 L 8447,9105 8640,9217 8544,9272 8351,9161 Z"/>
     <path fill="none" stroke="rgb(255,255,255)" id="Drawing_10_0" stroke-width="40" stroke-linejoin="round" d="M 8351,9161 L 8447,9105 8640,9217 8544,9272 8351,9161 Z"/>
    </g>
    <g>
     <path fill="rgb(190,30,45)" stroke="none" d="M 6324,8379 L 5938,8156 6227,7989 6613,8212 6324,8379 Z"/>
     <path fill="none" stroke="rgb(127,127,127)" id="Drawing_11_0" stroke-width="40" stroke-linejoin="round" d="M 6324,8379 L 5938,8156 6227,7989 6613,8212 6324,8379 Z"/>
    </g>
    <g>
     <path fill="rgb(127,127,127)" stroke="none" d="M 6131,8157 L 6131,7878 6324,7990 6324,8268 6131,8157 Z"/>
     <path fill="none" stroke="rgb(255,255,255)" id="Drawing_12_0" stroke-width="40" stroke-linejoin="round" d="M 6131,8157 L 6131,7878 6324,7990 6324,8268 6131,8157 Z"/>
    </g>
    <g>
     <path fill="rgb(127,127,127)" stroke="none" d="M 6324,8269 L 6324,7990 6420,7934 6420,8213 6324,8269 Z"/>
     <path fill="none" stroke="rgb(255,255,255)" id="Drawing_13_0" stroke-width="40" stroke-linejoin="round" d="M 6324,8269 L 6324,7990 6420,7934 6420,8213 6324,8269 Z"/>
    </g>
    <g>
     <path fill="rgb(127,127,127)" stroke="none" d="M 6131,7878 L 6227,7822 6420,7934 6324,7989 6131,7878 Z"/>
     <path fill="none" stroke="rgb(255,255,255)" id="Drawing_14_0" stroke-width="40" stroke-linejoin="round" d="M 6131,7878 L 6227,7822 6420,7934 6324,7989 6131,7878 Z"/>
    </g>
   </g>
  </g>
 </g>
</svg>