<?xml version="1.0" encoding="UTF-8"?>

<svg version="1.2" baseProfile="tiny" width="22.31mm" height="21.4mm" viewBox="4961 4675 2231 2140" preserveAspectRatio="xMidYMid" fill-rule="evenodd" stroke-width="28.222" stroke-linejoin="round" xmlns="http://www.w3.org/2000/svg" xmlns:xlink="http://www.w3.org/1999/xlink" xml:space="preserve">
 <g visibility="visible" id="Slide_1">
  <g id="DrawingGroup_1">
   <g>
    <path fill="rgb(221,221,221)" stroke="none" d="M 6315,6655 C 6790,6655 7043,6515 7164,6305 7285,6095 6973,5955 6800,5955 6800,6255 6315,6254 6315,6655 Z"/>
    <path fill="none" stroke="rgb(221,221,221)" id="Drawing_1_0" stroke-linejoin="round" d="M 6315,6655 C 6790,6655 7043,6515 7164,6305 7285,6095 6973,5955 6800,5955 6800,6255 6315,6254 6315,6655 Z"/>
   </g>
   <g id="DrawingGroup_2">
    <g>
     <path fill="rgb(179,179,179)" stroke="none" d="M 6073,6305 L 6073,5675 6800,5255 6800,6165 6558,6305 6073,6305 Z"/>
     <path fill="rgb(180,180,180)" stroke="none" d="M 6558,6305 L 6073,6585 6073,6305 6558,6305 Z M 6073,6292 L 6073,5675 6800,5255 6800,6165 6580,6292 6073,6292 Z"/>
     <path fill="rgb(181,181,181)" stroke="none" d="M 6580,6292 L 6073,6585 6073,6292 6580,6292 Z M 6073,6279 L 6073,5675 6800,5255 6800,6165 6603,6279 6073,6279 Z"/>
     <path fill="rgb(182,182,182)" stroke="none" d="M 6603,6279 L 6073,6585 6073,6279 6603,6279 Z M 6073,6265 L 6073,5675 6800,5255 6800,6165 6627,6265 6073,6265 Z"/>
     <path fill="rgb(183,183,183)" stroke="none" d="M 6627,6265 L 6073,6585 6073,6265 6627,6265 Z M 6073,6252 L 6073,5675 6800,5255 6800,6165 6649,6252 6073,6252 Z"/>
     <path fill="rgb(184,184,184)" stroke="none" d="M 6649,6252 L 6073,6585 6073,6252 6649,6252 Z M 6073,6239 L 6073,5675 6800,5255 6800,6165 6672,6239 6073,6239 Z"/>
     <path fill="rgb(185,185,185)" stroke="none" d="M 6672,6239 L 6073,6585 6073,6239 6672,6239 Z M 6073,6225 L 6073,5675 6800,5255 6800,6165 6696,6225 6073,6225 Z"/>
     <path fill="rgb(186,186,186)" stroke="none" d="M 6696,6225 L 6073,6585 6073,6225 6696,6225 Z M 6073,6212 L 6073,5675 6800,5255 6800,6165 6719,6212 6073,6212 Z"/>
     <path fill="rgb(187,187,187)" stroke="none" d="M 6719,6212 L 6073,6585 6073,6212 6719,6212 Z M 6073,6199 L 6073,5675 6800,5255 6800,6165 6741,6199 6073,6199 Z"/>
     <path fill="rgb(188,188,188)" stroke="none" d="M 6741,6199 L 6073,6585 6073,6199 6741,6199 Z M 6073,6185 L 6073,5675 6800,5255 6800,6165 6765,6185 6073,6185 Z"/>
     <path fill="rgb(189,189,189)" stroke="none" d="M 6765,6185 L 6073,6585 6073,6185 6765,6185 Z M 6073,6172 L 6073,5675 6800,5255 6800,6165 6788,6172 6073,6172 Z"/>
     <path fill="rgb(190,190,190)" stroke="none" d="M 6788,6172 L 6073,6585 6073,6172 6788,6172 Z M 6797,6159 L 6073,6159 6073,5675 6797,5257 6797,6159 Z"/>
     <path fill="rgb(191,191,191)" stroke="none" d="M 6797,6159 L 6797,5257 6800,5255 6800,6165 6073,6585 6073,6159 6797,6159 Z M 6783,6145 L 6073,6145 6073,5675 6783,5265 6783,6145 Z"/>
     <path fill="rgb(192,192,192)" stroke="none" d="M 6783,6145 L 6783,5265 6800,5255 6800,6165 6073,6585 6073,6145 6783,6145 Z M 6770,6132 L 6073,6132 6073,5675 6770,5272 6770,6132 Z"/>
     <path fill="rgb(193,193,193)" stroke="none" d="M 6770,6132 L 6770,5272 6800,5255 6800,6165 6073,6585 6073,6132 6770,6132 Z M 6757,6119 L 6073,6119 6073,5675 6757,5280 6757,6119 Z"/>
     <path fill="rgb(194,194,194)" stroke="none" d="M 6757,6119 L 6757,5280 6800,5255 6800,6165 6073,6585 6073,6119 6757,6119 Z M 6743,6105 L 6073,6105 6073,5675 6743,5288 6743,6105 Z"/>
     <path fill="rgb(195,195,195)" stroke="none" d="M 6743,6105 L 6743,5288 6800,5255 6800,6165 6073,6585 6073,6105 6743,6105 Z M 6730,6092 L 6073,6092 6073,5675 6730,5295 6730,6092 Z"/>
     <path fill="rgb(196,196,196)" stroke="none" d="M 6730,6092 L 6730,5295 6800,5255 6800,6165 6073,6585 6073,6092 6730,6092 Z M 6717,6079 L 6073,6079 6073,5675 6717,5303 6717,6079 Z"/>
     <path fill="rgb(197,197,197)" stroke="none" d="M 6717,6079 L 6717,5303 6800,5255 6800,6165 6073,6585 6073,6079 6717,6079 Z M 6703,6065 L 6073,6065 6073,5675 6703,5311 6703,6065 Z"/>
     <path fill="rgb(198,198,198)" stroke="none" d="M 6703,6065 L 6703,5311 6800,5255 6800,6165 6073,6585 6073,6065 6703,6065 Z M 6690,6052 L 6073,6052 6073,5675 6690,5319 6690,6052 Z"/>
     <path fill="rgb(199,199,199)" stroke="none" d="M 6690,6052 L 6690,5319 6800,5255 6800,6165 6073,6585 6073,6052 6690,6052 Z M 6677,6039 L 6073,6039 6073,5675 6677,5326 6677,6039 Z"/>
     <path fill="rgb(200,200,200)" stroke="none" d="M 6677,6039 L 6677,5326 6800,5255 6800,6165 6073,6585 6073,6039 6677,6039 Z M 6663,6025 L 6073,6025 6073,5675 6663,5334 6663,6025 Z"/>
     <path fill="rgb(201,201,201)" stroke="none" d="M 6663,6025 L 6663,5334 6800,5255 6800,6165 6073,6585 6073,6025 6663,6025 Z M 6650,6012 L 6073,6012 6073,5675 6650,5342 6650,6012 Z"/>
     <path fill="rgb(202,202,202)" stroke="none" d="M 6650,6012 L 6650,5342 6800,5255 6800,6165 6073,6585 6073,6012 6650,6012 Z M 6637,5999 L 6073,5999 6073,5675 6637,5349 6637,5999 Z"/>
     <path fill="rgb(203,203,203)" stroke="none" d="M 6637,5999 L 6637,5349 6800,5255 6800,6165 6073,6585 6073,5999 6637,5999 Z M 6623,5985 L 6073,5985 6073,5675 6623,5357 6623,5985 Z"/>
     <path fill="rgb(204,204,204)" stroke="none" d="M 6623,5985 L 6623,5357 6800,5255 6800,6165 6073,6585 6073,5985 6623,5985 Z M 6610,5972 L 6073,5972 6073,5675 6610,5365 6610,5972 Z"/>
     <path fill="rgb(205,205,205)" stroke="none" d="M 6610,5972 L 6610,5365 6800,5255 6800,6165 6073,6585 6073,5972 6610,5972 Z M 6597,5959 L 6073,5959 6073,5675 6597,5372 6597,5959 Z"/>
     <path fill="rgb(206,206,206)" stroke="none" d="M 6597,5959 L 6597,5372 6800,5255 6800,6165 6073,6585 6073,5959 6597,5959 Z M 6583,5945 L 6073,5945 6073,5675 6583,5380 6583,5945 Z"/>
     <path fill="rgb(207,207,207)" stroke="none" d="M 6583,5945 L 6583,5380 6800,5255 6800,6165 6073,6585 6073,5945 6583,5945 Z M 6570,5932 L 6073,5932 6073,5675 6570,5388 6570,5932 Z"/>
     <path fill="rgb(208,208,208)" stroke="none" d="M 6570,5932 L 6570,5388 6800,5255 6800,6165 6073,6585 6073,5932 6570,5932 Z M 6557,5919 L 6073,5919 6073,5675 6557,5395 6557,5919 Z"/>
     <path fill="rgb(209,209,209)" stroke="none" d="M 6557,5919 L 6557,5395 6800,5255 6800,6165 6073,6585 6073,5919 6557,5919 Z M 6543,5905 L 6073,5905 6073,5675 6543,5403 6543,5905 Z"/>
     <path fill="rgb(210,210,210)" stroke="none" d="M 6543,5905 L 6543,5403 6800,5255 6800,6165 6073,6585 6073,5905 6543,5905 Z M 6530,5413 L 6530,5892 6073,5892 6073,5675 6527,5413 6530,5413 Z"/>
     <path fill="rgb(211,211,211)" stroke="none" d="M 6530,5892 L 6530,5413 6527,5413 6800,5255 6800,6165 6073,6585 6073,5892 6530,5892 Z M 6517,5426 L 6517,5879 6073,5879 6073,5675 6504,5426 6517,5426 Z"/>
     <path fill="rgb(212,212,212)" stroke="none" d="M 6517,5879 L 6517,5426 6504,5426 6800,5255 6800,6165 6073,6585 6073,5879 6517,5879 Z M 6503,5440 L 6503,5865 6078,5865 6078,5672 6480,5440 6503,5440 Z"/>
     <path fill="rgb(213,213,213)" stroke="none" d="M 6078,5865 L 6503,5865 6503,5440 6480,5440 6800,5255 6800,6165 6073,6585 6073,5675 6078,5672 6078,5865 Z M 6490,5453 L 6490,5852 6091,5852 6091,5665 6457,5453 6490,5453 Z"/>
     <path fill="rgb(214,214,214)" stroke="none" d="M 6091,5852 L 6490,5852 6490,5453 6457,5453 6800,5255 6800,6165 6073,6585 6073,5675 6091,5665 6091,5852 Z M 6477,5466 L 6477,5839 6104,5839 6104,5657 6435,5466 6477,5466 Z"/>
     <path fill="rgb(215,215,215)" stroke="none" d="M 6104,5839 L 6477,5839 6477,5466 6435,5466 6800,5255 6800,6165 6073,6585 6073,5675 6104,5657 6104,5839 Z M 6463,5480 L 6463,5825 6118,5825 6118,5649 6411,5480 6463,5480 Z"/>
     <path fill="rgb(216,216,216)" stroke="none" d="M 6118,5825 L 6463,5825 6463,5480 6411,5480 6800,5255 6800,6165 6073,6585 6073,5675 6118,5649 6118,5825 Z M 6450,5493 L 6450,5812 6131,5812 6131,5641 6388,5493 6450,5493 Z"/>
     <path fill="rgb(217,217,217)" stroke="none" d="M 6131,5812 L 6450,5812 6450,5493 6388,5493 6800,5255 6800,6165 6073,6585 6073,5675 6131,5641 6131,5812 Z M 6437,5506 L 6437,5799 6144,5799 6144,5634 6366,5506 6437,5506 Z"/>
     <path fill="rgb(218,218,218)" stroke="none" d="M 6144,5799 L 6437,5799 6437,5506 6366,5506 6800,5255 6800,6165 6073,6585 6073,5675 6144,5634 6144,5799 Z M 6423,5520 L 6423,5785 6158,5785 6158,5626 6341,5520 6423,5520 Z"/>
     <path fill="rgb(219,219,219)" stroke="none" d="M 6158,5785 L 6423,5785 6423,5520 6341,5520 6800,5255 6800,6165 6073,6585 6073,5675 6158,5626 6158,5785 Z M 6410,5533 L 6410,5772 6171,5772 6171,5618 6319,5533 6410,5533 Z"/>
     <path fill="rgb(220,220,220)" stroke="none" d="M 6171,5772 L 6410,5772 6410,5533 6319,5533 6800,5255 6800,6165 6073,6585 6073,5675 6171,5618 6171,5772 Z M 6397,5546 L 6397,5759 6184,5759 6184,5611 6296,5546 6397,5546 Z"/>
     <path fill="rgb(221,221,221)" stroke="none" d="M 6184,5759 L 6397,5759 6397,5546 6296,5546 6800,5255 6800,6165 6073,6585 6073,5675 6184,5611 6184,5759 Z M 6383,5560 L 6383,5745 6198,5745 6198,5603 6272,5560 6383,5560 Z"/>
     <path fill="rgb(222,222,222)" stroke="none" d="M 6198,5745 L 6383,5745 6383,5560 6272,5560 6800,5255 6800,6165 6073,6585 6073,5675 6198,5603 6198,5745 Z M 6370,5573 L 6370,5732 6211,5732 6211,5595 6250,5573 6370,5573 Z"/>
     <path fill="rgb(223,223,223)" stroke="none" d="M 6211,5732 L 6370,5732 6370,5573 6250,5573 6800,5255 6800,6165 6073,6585 6073,5675 6211,5595 6211,5732 Z M 6357,5586 L 6357,5719 6224,5719 6224,5588 6227,5586 6357,5586 Z"/>
     <path fill="rgb(224,224,224)" stroke="none" d="M 6224,5719 L 6357,5719 6357,5586 6227,5586 6800,5255 6800,6165 6073,6585 6073,5675 6224,5588 6224,5719 Z M 6238,5600 L 6343,5600 6343,5705 6238,5705 6238,5600 Z"/>
     <path fill="rgb(225,225,225)" stroke="none" d="M 6238,5600 L 6238,5705 6343,5705 6343,5600 6238,5600 Z M 6251,5613 L 6330,5613 6330,5692 6251,5692 6251,5613 Z M 6073,6585 L 6073,5675 6800,5255 6800,6165 6073,6585 Z"/>
     <path fill="rgb(226,226,226)" stroke="none" d="M 6251,5613 L 6251,5692 6330,5692 6330,5613 6251,5613 Z M 6264,5626 L 6317,5626 6317,5679 6264,5679 6264,5626 Z M 6073,6585 L 6073,5675 6800,5255 6800,6165 6073,6585 Z"/>
     <path fill="rgb(227,227,227)" stroke="none" d="M 6264,5626 L 6264,5679 6317,5679 6317,5626 6264,5626 Z M 6278,5640 L 6303,5640 6303,5665 6278,5665 6278,5640 Z M 6073,6585 L 6073,5675 6800,5255 6800,6165 6073,6585 Z"/>
     <path fill="rgb(229,229,229)" stroke="none" d="M 6278,5640 L 6278,5665 6303,5665 6303,5640 6278,5640 Z M 6073,6585 L 6073,5675 6800,5255 6800,6165 6073,6585 Z"/>
     <path fill="none" stroke="rgb(255,255,255)" id="Drawing_2_0" stroke-width="40" stroke-linejoin="round" d="M 6073,6585 L 6073,5675 6800,5255 6800,6165 6073,6585 Z"/>
    </g>
    <g>
     <defs>
      <linearGradient id="Gradient_343" gradientUnits="userSpaceOnUse" x1="5951" y1="4695" x2="5951" y2="5675">
       <stop offset="0.1" stop-color="rgb(179,179,179)"/>
       <stop offset="1" stop-color="rgb(229,229,229)"/>
      </linearGradient>
     </defs>
     <path fill="url(#Gradient_343)" stroke="rgb(255,255,255)" id="Drawing_3_0" stroke-width="40" stroke-linejoin="round" d="M 6073,5675 L 5103,5115 5831,4695 6800,5255 6073,5675 Z"/>
    </g>
    <g>
     <path fill="rgb(179,179,179)" stroke="none" d="M 6194,6530 L 6194,5605 6315,5535 6315,6530 6194,6530 Z"/>
     <path fill="rgb(180,180,180)" stroke="none" d="M 6315,6530 L 6315,6725 6194,6795 6194,6530 6315,6530 Z M 6194,6517 L 6194,5605 6315,5535 6315,6517 6194,6517 Z"/>
     <path fill="rgb(181,181,181)" stroke="none" d="M 6315,6517 L 6315,6725 6194,6795 6194,6517 6315,6517 Z M 6194,6505 L 6194,5605 6315,5535 6315,6505 6194,6505 Z"/>
     <path fill="rgb(182,182,182)" stroke="none" d="M 6315,6505 L 6315,6725 6194,6795 6194,6505 6315,6505 Z M 6194,6492 L 6194,5605 6315,5535 6315,6492 6194,6492 Z"/>
     <path fill="rgb(183,183,183)" stroke="none" d="M 6315,6492 L 6315,6725 6194,6795 6194,6492 6315,6492 Z M 6194,6479 L 6194,5605 6315,5535 6315,6479 6194,6479 Z"/>
     <path fill="rgb(184,184,184)" stroke="none" d="M 6315,6479 L 6315,6725 6194,6795 6194,6479 6315,6479 Z M 6194,6467 L 6194,5605 6315,5535 6315,6467 6194,6467 Z"/>
     <path fill="rgb(185,185,185)" stroke="none" d="M 6315,6467 L 6315,6725 6194,6795 6194,6467 6315,6467 Z M 6194,6454 L 6194,5605 6315,5535 6315,6454 6194,6454 Z"/>
     <path fill="rgb(186,186,186)" stroke="none" d="M 6315,6454 L 6315,6725 6194,6795 6194,6454 6315,6454 Z M 6194,6441 L 6194,5605 6315,5535 6315,6441 6194,6441 Z"/>
     <path fill="rgb(187,187,187)" stroke="none" d="M 6315,6441 L 6315,6725 6194,6795 6194,6441 6315,6441 Z M 6194,6429 L 6194,5605 6315,5535 6315,6429 6194,6429 Z"/>
     <path fill="rgb(188,188,188)" stroke="none" d="M 6315,6429 L 6315,6725 6194,6795 6194,6429 6315,6429 Z M 6194,6416 L 6194,5605 6315,5535 6315,6416 6194,6416 Z"/>
     <path fill="rgb(189,189,189)" stroke="none" d="M 6315,6416 L 6315,6725 6194,6795 6194,6416 6315,6416 Z M 6194,6404 L 6194,5605 6315,5535 6315,6404 6194,6404 Z"/>
     <path fill="rgb(190,190,190)" stroke="none" d="M 6315,6404 L 6315,6725 6194,6795 6194,6404 6315,6404 Z M 6194,6391 L 6194,5605 6315,5535 6315,6391 6194,6391 Z"/>
     <path fill="rgb(191,191,191)" stroke="none" d="M 6315,6391 L 6315,6725 6194,6795 6194,6391 6315,6391 Z M 6194,6378 L 6194,5605 6315,5535 6315,6378 6194,6378 Z"/>
     <path fill="rgb(192,192,192)" stroke="none" d="M 6315,6378 L 6315,6725 6194,6795 6194,6378 6315,6378 Z M 6194,6366 L 6194,5605 6315,5535 6315,6366 6194,6366 Z"/>
     <path fill="rgb(193,193,193)" stroke="none" d="M 6315,6366 L 6315,6725 6194,6795 6194,6366 6315,6366 Z M 6194,6353 L 6194,5605 6315,5535 6315,6353 6194,6353 Z"/>
     <path fill="rgb(194,194,194)" stroke="none" d="M 6315,6353 L 6315,6725 6194,6795 6194,6353 6315,6353 Z M 6194,6340 L 6194,5605 6315,5535 6315,6340 6194,6340 Z"/>
     <path fill="rgb(195,195,195)" stroke="none" d="M 6315,6340 L 6315,6725 6194,6795 6194,6340 6315,6340 Z M 6194,6328 L 6194,5605 6315,5535 6315,6328 6194,6328 Z"/>
     <path fill="rgb(196,196,196)" stroke="none" d="M 6315,6328 L 6315,6725 6194,6795 6194,6328 6315,6328 Z M 6194,6315 L 6194,5605 6315,5535 6315,6315 6194,6315 Z"/>
     <path fill="rgb(197,197,197)" stroke="none" d="M 6315,6315 L 6315,6725 6194,6795 6194,6315 6315,6315 Z M 6194,6303 L 6194,5605 6315,5535 6315,6303 6194,6303 Z"/>
     <path fill="rgb(198,198,198)" stroke="none" d="M 6315,6303 L 6315,6725 6194,6795 6194,6303 6315,6303 Z M 6194,6290 L 6194,5605 6315,5535 6315,6290 6194,6290 Z"/>
     <path fill="rgb(199,199,199)" stroke="none" d="M 6315,6290 L 6315,6725 6194,6795 6194,6290 6315,6290 Z M 6315,5546 L 6315,6277 6194,6277 6194,5605 6296,5546 6315,5546 Z"/>
     <path fill="rgb(200,200,200)" stroke="none" d="M 6315,6277 L 6315,6725 6194,6795 6194,6277 6315,6277 Z M 6296,5546 L 6315,5535 6315,5546 6296,5546 Z M 6315,5558 L 6315,6265 6194,6265 6194,5605 6275,5558 6315,5558 Z"/>
     <path fill="rgb(201,201,201)" stroke="none" d="M 6315,6265 L 6315,6725 6194,6795 6194,6265 6315,6265 Z M 6275,5558 L 6315,5535 6315,5558 6275,5558 Z M 6315,5571 L 6315,6252 6194,6252 6194,5605 6253,5571 6315,5571 Z"/>
     <path fill="rgb(202,202,202)" stroke="none" d="M 6315,6252 L 6315,6725 6194,6795 6194,6252 6315,6252 Z M 6253,5571 L 6315,5535 6315,5571 6253,5571 Z M 6315,5584 L 6315,6239 6194,6239 6194,5605 6230,5584 6315,5584 Z"/>
     <path fill="rgb(203,203,203)" stroke="none" d="M 6315,6239 L 6315,6725 6194,6795 6194,6239 6315,6239 Z M 6230,5584 L 6315,5535 6315,5584 6230,5584 Z M 6315,5596 L 6315,6227 6194,6227 6194,5605 6210,5596 6315,5596 Z"/>
     <path fill="rgb(204,204,204)" stroke="none" d="M 6315,6227 L 6315,6725 6194,6795 6194,6227 6315,6227 Z M 6210,5596 L 6315,5535 6315,5596 6210,5596 Z M 6315,5609 L 6315,6214 6194,6214 6194,5609 6315,5609 Z"/>
     <path fill="rgb(205,205,205)" stroke="none" d="M 6315,6214 L 6315,6725 6194,6795 6194,6214 6315,6214 Z M 6194,5609 L 6194,5605 6315,5535 6315,5609 6194,5609 Z M 6315,5622 L 6315,6201 6194,6201 6194,5622 6315,5622 Z"/>
     <path fill="rgb(206,206,206)" stroke="none" d="M 6315,6201 L 6315,6725 6194,6795 6194,6201 6315,6201 Z M 6194,5622 L 6194,5605 6315,5535 6315,5622 6194,5622 Z M 6315,5634 L 6315,6189 6194,6189 6194,5634 6315,5634 Z"/>
     <path fill="rgb(207,207,207)" stroke="none" d="M 6315,6189 L 6315,6725 6194,6795 6194,6189 6315,6189 Z M 6194,5634 L 6194,5605 6315,5535 6315,5634 6194,5634 Z M 6315,5647 L 6315,6176 6194,6176 6194,5647 6315,5647 Z"/>
     <path fill="rgb(208,208,208)" stroke="none" d="M 6315,6176 L 6315,6725 6194,6795 6194,6176 6315,6176 Z M 6194,5647 L 6194,5605 6315,5535 6315,5647 6194,5647 Z M 6315,5659 L 6315,6164 6194,6164 6194,5659 6315,5659 Z"/>
     <path fill="rgb(209,209,209)" stroke="none" d="M 6315,6164 L 6315,6725 6194,6795 6194,6164 6315,6164 Z M 6194,5659 L 6194,5605 6315,5535 6315,5659 6194,5659 Z M 6315,5672 L 6315,6151 6194,6151 6194,5672 6315,5672 Z"/>
     <path fill="rgb(210,210,210)" stroke="none" d="M 6315,6151 L 6315,6725 6194,6795 6194,6151 6315,6151 Z M 6194,5672 L 6194,5605 6315,5535 6315,5672 6194,5672 Z M 6315,5685 L 6315,6138 6194,6138 6194,5685 6315,5685 Z"/>
     <path fill="rgb(211,211,211)" stroke="none" d="M 6315,6138 L 6315,6725 6194,6795 6194,6138 6315,6138 Z M 6194,5685 L 6194,5605 6315,5535 6315,5685 6194,5685 Z M 6315,5697 L 6315,6126 6194,6126 6194,5697 6315,5697 Z"/>
     <path fill="rgb(212,212,212)" stroke="none" d="M 6315,6126 L 6315,6725 6194,6795 6194,6126 6315,6126 Z M 6194,5697 L 6194,5605 6315,5535 6315,5697 6194,5697 Z M 6315,5710 L 6315,6113 6194,6113 6194,5710 6315,5710 Z"/>
     <path fill="rgb(213,213,213)" stroke="none" d="M 6315,6113 L 6315,6725 6194,6795 6194,6113 6315,6113 Z M 6194,5710 L 6194,5605 6315,5535 6315,5710 6194,5710 Z M 6315,5723 L 6315,6100 6194,6100 6194,5723 6315,5723 Z"/>
     <path fill="rgb(214,214,214)" stroke="none" d="M 6315,6100 L 6315,6725 6194,6795 6194,6100 6315,6100 Z M 6194,5723 L 6194,5605 6315,5535 6315,5723 6194,5723 Z M 6315,5735 L 6315,6088 6194,6088 6194,5735 6315,5735 Z"/>
     <path fill="rgb(215,215,215)" stroke="none" d="M 6315,6088 L 6315,6725 6194,6795 6194,6088 6315,6088 Z M 6194,5735 L 6194,5605 6315,5535 6315,5735 6194,5735 Z M 6315,5748 L 6315,6075 6194,6075 6194,5748 6315,5748 Z"/>
     <path fill="rgb(216,216,216)" stroke="none" d="M 6315,6075 L 6315,6725 6194,6795 6194,6075 6315,6075 Z M 6194,5748 L 6194,5605 6315,5535 6315,5748 6194,5748 Z M 6315,5760 L 6315,6063 6194,6063 6194,5760 6315,5760 Z"/>
     <path fill="rgb(217,217,217)" stroke="none" d="M 6315,6063 L 6315,6725 6194,6795 6194,6063 6315,6063 Z M 6194,5760 L 6194,5605 6315,5535 6315,5760 6194,5760 Z M 6315,5773 L 6315,6050 6194,6050 6194,5773 6315,5773 Z"/>
     <path fill="rgb(218,218,218)" stroke="none" d="M 6315,6050 L 6315,6725 6194,6795 6194,6050 6315,6050 Z M 6194,5773 L 6194,5605 6315,5535 6315,5773 6194,5773 Z M 6315,5786 L 6315,6037 6194,6037 6194,5786 6315,5786 Z"/>
     <path fill="rgb(219,219,219)" stroke="none" d="M 6315,6037 L 6315,6725 6194,6795 6194,6037 6315,6037 Z M 6194,5786 L 6194,5605 6315,5535 6315,5786 6194,5786 Z M 6315,5798 L 6315,6025 6194,6025 6194,5798 6315,5798 Z"/>
     <path fill="rgb(220,220,220)" stroke="none" d="M 6315,6025 L 6315,6725 6194,6795 6194,6025 6315,6025 Z M 6194,5798 L 6194,5605 6315,5535 6315,5798 6194,5798 Z M 6315,5811 L 6315,6012 6194,6012 6194,5811 6315,5811 Z"/>
     <path fill="rgb(221,221,221)" stroke="none" d="M 6315,6012 L 6315,6725 6194,6795 6194,6012 6315,6012 Z M 6194,5811 L 6194,5605 6315,5535 6315,5811 6194,5811 Z M 6315,5824 L 6315,5999 6194,5999 6194,5824 6315,5824 Z"/>
     <path fill="rgb(222,222,222)" stroke="none" d="M 6315,5999 L 6315,6725 6194,6795 6194,5999 6315,5999 Z M 6194,5824 L 6194,5605 6315,5535 6315,5824 6194,5824 Z M 6305,5836 L 6305,5987 6194,5987 6194,5836 6305,5836 Z"/>
     <path fill="rgb(223,223,223)" stroke="none" d="M 6305,5987 L 6305,5836 6194,5836 6194,5605 6315,5535 6315,6725 6194,6795 6194,5987 6305,5987 Z M 6292,5849 L 6292,5974 6194,5974 6194,5849 6292,5849 Z"/>
     <path fill="rgb(224,224,224)" stroke="none" d="M 6292,5974 L 6292,5849 6194,5849 6194,5605 6315,5535 6315,6725 6194,6795 6194,5974 6292,5974 Z M 6280,5861 L 6280,5962 6194,5962 6194,5861 6280,5861 Z"/>
     <path fill="rgb(225,225,225)" stroke="none" d="M 6280,5962 L 6280,5861 6194,5861 6194,5605 6315,5535 6315,6725 6194,6795 6194,5962 6280,5962 Z M 6267,5874 L 6267,5949 6194,5949 6194,5874 6267,5874 Z"/>
     <path fill="rgb(226,226,226)" stroke="none" d="M 6267,5949 L 6267,5874 6194,5874 6194,5605 6315,5535 6315,6725 6194,6795 6194,5949 6267,5949 Z M 6205,5887 L 6254,5887 6254,5936 6205,5936 6205,5887 Z"/>
     <path fill="rgb(227,227,227)" stroke="none" d="M 6205,5887 L 6205,5936 6254,5936 6254,5887 6205,5887 Z M 6217,5899 L 6242,5899 6242,5924 6217,5924 6217,5899 Z M 6194,6795 L 6194,5605 6315,5535 6315,6725 6194,6795 Z"/>
     <path fill="rgb(229,229,229)" stroke="none" d="M 6217,5899 L 6217,5924 6242,5924 6242,5899 6217,5899 Z M 6194,6795 L 6194,5605 6315,5535 6315,6725 6194,6795 Z"/>
     <path fill="none" stroke="rgb(255,255,255)" id="Drawing_4_0" stroke-width="40" stroke-linejoin="round" d="M 6194,6795 L 6194,5605 6315,5535 6315,6725 6194,6795 Z"/>
    </g>
    <g>
     <defs>
      <linearGradient id="Gradient_344" gradientUnits="userSpaceOnUse" x1="4978" y1="5849" x2="6195" y2="5851">
       <stop offset="0.1" stop-color="rgb(179,179,179)"/>
       <stop offset="1" stop-color="rgb(229,229,229)"/>
      </linearGradient>
     </defs>
     <path fill="url(#Gradient_344)" stroke="rgb(255,255,255)" id="Drawing_5_0" stroke-width="40" stroke-linejoin="round" d="M 4981,6095 L 4981,4905 6194,5605 6194,6795 4981,6095 Z"/>
    </g>
    <g>
     <defs>
      <linearGradient id="Gradient_345" gradientUnits="userSpaceOnUse" x1="5648" y1="4835" x2="5648" y2="5605">
       <stop offset="0.1" stop-color="rgb(179,179,179)"/>
       <stop offset="1" stop-color="rgb(229,229,229)"/>
      </linearGradient>
     </defs>
     <path fill="url(#Gradient_345)" stroke="rgb(255,255,255)" id="Drawing_6_0" stroke-width="40" stroke-linejoin="round" d="M 6194,5605 L 4981,4905 5103,4835 6315,5535 6194,5605 Z"/>
    </g>
    <g>
     <path fill="rgb(255,255,255)" stroke="none" d="M 5103,6025 L 5103,5885 5224,5955 5224,6095 5103,6025 Z"/>
     <path fill="none" stroke="rgb(127,127,127)" id="Drawing_7_0" stroke-width="40" stroke-linejoin="round" d="M 5103,6025 L 5103,5885 5224,5955 5224,6095 5103,6025 Z"/>
    </g>
    <g>
     <path fill="rgb(127,127,127)" stroke="none" d="M 5951,6515 L 5951,6375 6073,6445 6073,6585 5951,6515 Z"/>
     <path fill="none" stroke="rgb(178,178,178)" id="Drawing_8_0" stroke-width="40" stroke-linejoin="round" d="M 5951,6515 L 5951,6375 6073,6445 6073,6585 5951,6515 Z"/>
    </g>
    <g>
     <path fill="none" stroke="rgb(0,0,0)" id="Drawing_9_0" stroke-width="40" stroke-linejoin="round" d="M 4981,6095 L 4981,4905 5103,4835 5345,4975 5830,4695 6800,5255 6800,6165 6315,6445 6315,6725 6194,6795 4981,6095 Z"/>
    </g>
    <g>
     <defs>
      <linearGradient id="Gradient_346" gradientUnits="userSpaceOnUse" x1="5102" y1="5744" x2="6074" y2="5746">
       <stop offset="0.1" stop-color="rgb(147,212,240)"/>
       <stop offset="1" stop-color="rgb(233,246,252)"/>
      </linearGradient>
     </defs>
     <path fill="url(#Gradient_346)" stroke="rgb(102,102,102)" id="Drawing_10_0" stroke-width="40" stroke-linejoin="round" d="M 5103,5745 L 5103,5185 6073,5745 6073,6305 5103,5745 Z"/>
    </g>
    <g>
     <path fill="rgb(255,255,255)" stroke="none" d="M 5345,6165 L 5345,6025 5466,6095 5466,6235 5345,6165 Z"/>
     <path fill="none" stroke="rgb(127,127,127)" id="Drawing_11_0" stroke-width="40" stroke-linejoin="round" d="M 5345,6165 L 5345,6025 5466,6095 5466,6235 5345,6165 Z"/>
    </g>
   </g>
  </g>
 </g>
</svg>