<?xml version="1.0" encoding="UTF-8"?>

<svg version="1.2" baseProfile="tiny" width="22.31mm" height="21.4mm" viewBox="11726 3843 2231 2140" preserveAspectRatio="xMidYMid" fill-rule="evenodd" stroke-width="28.222" stroke-linejoin="round" xmlns="http://www.w3.org/2000/svg" xmlns:xlink="http://www.w3.org/1999/xlink" xml:space="preserve">
 <g visibility="visible" id="Slide_1">
  <g id="DrawingGroup_1">
   <g>
    <path fill="rgb(221,221,221)" stroke="none" d="M 13080,5823 C 13555,5823 13808,5683 13929,5473 14050,5263 13738,5123 13565,5123 13565,5423 13080,5422 13080,5823 Z"/>
    <path fill="none" stroke="rgb(221,221,221)" id="Drawing_1_0" stroke-linejoin="round" d="M 13080,5823 C 13555,5823 13808,5683 13929,5473 14050,5263 13738,5123 13565,5123 13565,5423 13080,5422 13080,5823 Z"/>
   </g>
   <g id="DrawingGroup_2">
    <g>
     <path fill="rgb(51,51,51)" stroke="none" d="M 12838,5476 L 12838,4843 13565,4423 13565,5333 13317,5476 12838,5476 Z"/>
     <path fill="rgb(52,52,52)" stroke="none" d="M 13317,5476 L 12838,5753 12838,5476 13317,5476 Z M 12838,5466 L 12838,4843 13565,4423 13565,5333 13335,5466 12838,5466 Z"/>
     <path fill="rgb(54,54,54)" stroke="none" d="M 13335,5466 L 12838,5753 12838,5466 13335,5466 Z M 12838,5456 L 12838,4843 13565,4423 13565,5333 13352,5456 12838,5456 Z"/>
     <path fill="rgb(55,55,55)" stroke="none" d="M 13352,5456 L 12838,5753 12838,5456 13352,5456 Z M 12838,5446 L 12838,4843 13565,4423 13565,5333 13369,5446 12838,5446 Z"/>
     <path fill="rgb(57,57,57)" stroke="none" d="M 13369,5446 L 12838,5753 12838,5446 13369,5446 Z M 12838,5436 L 12838,4843 13565,4423 13565,5333 13387,5436 12838,5436 Z"/>
     <path fill="rgb(58,58,58)" stroke="none" d="M 13387,5436 L 12838,5753 12838,5436 13387,5436 Z M 12838,5426 L 12838,4843 13565,4423 13565,5333 13404,5426 12838,5426 Z"/>
     <path fill="rgb(60,60,60)" stroke="none" d="M 13404,5426 L 12838,5753 12838,5426 13404,5426 Z M 12838,5416 L 12838,4843 13565,4423 13565,5333 13421,5416 12838,5416 Z"/>
     <path fill="rgb(61,61,61)" stroke="none" d="M 13421,5416 L 12838,5753 12838,5416 13421,5416 Z M 12838,5406 L 12838,4843 13565,4423 13565,5333 13439,5406 12838,5406 Z"/>
     <path fill="rgb(63,63,63)" stroke="none" d="M 13439,5406 L 12838,5753 12838,5406 13439,5406 Z M 12838,5396 L 12838,4843 13565,4423 13565,5333 13456,5396 12838,5396 Z"/>
     <path fill="rgb(64,64,64)" stroke="none" d="M 13456,5396 L 12838,5753 12838,5396 13456,5396 Z M 12838,5386 L 12838,4843 13565,4423 13565,5333 13473,5386 12838,5386 Z"/>
     <path fill="rgb(66,66,66)" stroke="none" d="M 13473,5386 L 12838,5753 12838,5386 13473,5386 Z M 12838,5375 L 12838,4843 13565,4423 13565,5333 13492,5375 12838,5375 Z"/>
     <path fill="rgb(68,68,68)" stroke="none" d="M 13492,5375 L 12838,5753 12838,5375 13492,5375 Z M 12838,5365 L 12838,4843 13565,4423 13565,5333 13510,5365 12838,5365 Z"/>
     <path fill="rgb(69,69,69)" stroke="none" d="M 13510,5365 L 12838,5753 12838,5365 13510,5365 Z M 12838,5355 L 12838,4843 13565,4423 13565,5333 13527,5355 12838,5355 Z"/>
     <path fill="rgb(71,71,71)" stroke="none" d="M 13527,5355 L 12838,5753 12838,5355 13527,5355 Z M 12838,5345 L 12838,4843 13565,4423 13565,5333 13544,5345 12838,5345 Z"/>
     <path fill="rgb(72,72,72)" stroke="none" d="M 13544,5345 L 12838,5753 12838,5345 13544,5345 Z M 12838,5335 L 12838,4843 13565,4423 13565,5333 13562,5335 12838,5335 Z"/>
     <path fill="rgb(74,74,74)" stroke="none" d="M 13562,5335 L 12838,5753 12838,5335 13562,5335 Z M 13560,5325 L 12838,5325 12838,4843 13560,4426 13560,5325 Z"/>
     <path fill="rgb(75,75,75)" stroke="none" d="M 13560,5325 L 13560,4426 13565,4423 13565,5333 12838,5753 12838,5325 13560,5325 Z M 13550,5315 L 12838,5315 12838,4843 13550,4432 13550,5315 Z"/>
     <path fill="rgb(77,77,77)" stroke="none" d="M 13550,5315 L 13550,4432 13565,4423 13565,5333 12838,5753 12838,5315 13550,5315 Z M 13540,5305 L 12838,5305 12838,4843 13540,4437 13540,5305 Z"/>
     <path fill="rgb(78,78,78)" stroke="none" d="M 13540,5305 L 13540,4437 13565,4423 13565,5333 12838,5753 12838,5305 13540,5305 Z M 13530,5295 L 12838,5295 12838,4843 13530,4443 13530,5295 Z"/>
     <path fill="rgb(80,80,80)" stroke="none" d="M 13530,5295 L 13530,4443 13565,4423 13565,5333 12838,5753 12838,5295 13530,5295 Z M 13520,5285 L 12838,5285 12838,4843 13520,4449 13520,5285 Z"/>
     <path fill="rgb(81,81,81)" stroke="none" d="M 13520,5285 L 13520,4449 13565,4423 13565,5333 12838,5753 12838,5285 13520,5285 Z M 13509,5274 L 12838,5274 12838,4843 13509,4455 13509,5274 Z"/>
     <path fill="rgb(83,83,83)" stroke="none" d="M 13509,5274 L 13509,4455 13565,4423 13565,5333 12838,5753 12838,5274 13509,5274 Z M 13499,5264 L 12838,5264 12838,4843 13499,4461 13499,5264 Z"/>
     <path fill="rgb(85,85,85)" stroke="none" d="M 13499,5264 L 13499,4461 13565,4423 13565,5333 12838,5753 12838,5264 13499,5264 Z M 13489,5254 L 12838,5254 12838,4843 13489,4467 13489,5254 Z"/>
     <path fill="rgb(86,86,86)" stroke="none" d="M 13489,5254 L 13489,4467 13565,4423 13565,5333 12838,5753 12838,5254 13489,5254 Z M 13479,5244 L 12838,5244 12838,4843 13479,4473 13479,5244 Z"/>
     <path fill="rgb(88,88,88)" stroke="none" d="M 13479,5244 L 13479,4473 13565,4423 13565,5333 12838,5753 12838,5244 13479,5244 Z M 13469,5234 L 12838,5234 12838,4843 13469,4478 13469,5234 Z"/>
     <path fill="rgb(89,89,89)" stroke="none" d="M 13469,5234 L 13469,4478 13565,4423 13565,5333 12838,5753 12838,5234 13469,5234 Z M 13459,5224 L 12838,5224 12838,4843 13459,4484 13459,5224 Z"/>
     <path fill="rgb(91,91,91)" stroke="none" d="M 13459,5224 L 13459,4484 13565,4423 13565,5333 12838,5753 12838,5224 13459,5224 Z M 13449,5214 L 12838,5214 12838,4843 13449,4490 13449,5214 Z"/>
     <path fill="rgb(92,92,92)" stroke="none" d="M 13449,5214 L 13449,4490 13565,4423 13565,5333 12838,5753 12838,5214 13449,5214 Z M 13439,5204 L 12838,5204 12838,4843 13439,4496 13439,5204 Z"/>
     <path fill="rgb(94,94,94)" stroke="none" d="M 13439,5204 L 13439,4496 13565,4423 13565,5333 12838,5753 12838,5204 13439,5204 Z M 13429,5194 L 12838,5194 12838,4843 13429,4502 13429,5194 Z"/>
     <path fill="rgb(95,95,95)" stroke="none" d="M 13429,5194 L 13429,4502 13565,4423 13565,5333 12838,5753 12838,5194 13429,5194 Z M 13419,5184 L 12838,5184 12838,4843 13419,4507 13419,5184 Z"/>
     <path fill="rgb(97,97,97)" stroke="none" d="M 13419,5184 L 13419,4507 13565,4423 13565,5333 12838,5753 12838,5184 13419,5184 Z M 13408,5173 L 12838,5173 12838,4843 13408,4514 13408,5173 Z"/>
     <path fill="rgb(98,98,98)" stroke="none" d="M 13408,5173 L 13408,4514 13565,4423 13565,5333 12838,5753 12838,5173 13408,5173 Z M 13398,5163 L 12838,5163 12838,4843 13398,4519 13398,5163 Z"/>
     <path fill="rgb(100,100,100)" stroke="none" d="M 13398,5163 L 13398,4519 13565,4423 13565,5333 12838,5753 12838,5163 13398,5163 Z M 13388,5153 L 12838,5153 12838,4843 13388,4525 13388,5153 Z"/>
     <path fill="rgb(102,102,102)" stroke="none" d="M 13388,5153 L 13388,4525 13565,4423 13565,5333 12838,5753 12838,5153 13388,5153 Z M 13378,5143 L 12838,5143 12838,4843 13378,4531 13378,5143 Z"/>
     <path fill="rgb(103,103,103)" stroke="none" d="M 13378,5143 L 13378,4531 13565,4423 13565,5333 12838,5753 12838,5143 13378,5143 Z M 13368,5133 L 12838,5133 12838,4843 13368,4537 13368,5133 Z"/>
     <path fill="rgb(105,105,105)" stroke="none" d="M 13368,5133 L 13368,4537 13565,4423 13565,5333 12838,5753 12838,5133 13368,5133 Z M 13358,5123 L 12838,5123 12838,4843 13358,4543 13358,5123 Z"/>
     <path fill="rgb(106,106,106)" stroke="none" d="M 13358,5123 L 13358,4543 13565,4423 13565,5333 12838,5753 12838,5123 13358,5123 Z M 13348,5113 L 12838,5113 12838,4843 13348,4548 13348,5113 Z"/>
     <path fill="rgb(108,108,108)" stroke="none" d="M 13348,5113 L 13348,4548 13565,4423 13565,5333 12838,5753 12838,5113 13348,5113 Z M 13338,5103 L 12838,5103 12838,4843 13338,4554 13338,5103 Z"/>
     <path fill="rgb(109,109,109)" stroke="none" d="M 13338,5103 L 13338,4554 13565,4423 13565,5333 12838,5753 12838,5103 13338,5103 Z M 13328,5093 L 12838,5093 12838,4843 13328,4560 13328,5093 Z"/>
     <path fill="rgb(111,111,111)" stroke="none" d="M 13328,5093 L 13328,4560 13565,4423 13565,5333 12838,5753 12838,5093 13328,5093 Z M 13318,5083 L 12838,5083 12838,4843 13318,4566 13318,5083 Z"/>
     <path fill="rgb(112,112,112)" stroke="none" d="M 13318,5083 L 13318,4566 13565,4423 13565,5333 12838,5753 12838,5083 13318,5083 Z M 13307,5072 L 12838,5072 12838,4843 13307,4572 13307,5072 Z"/>
     <path fill="rgb(114,114,114)" stroke="none" d="M 13307,5072 L 13307,4572 13565,4423 13565,5333 12838,5753 12838,5072 13307,5072 Z M 13297,4579 L 13297,5062 12838,5062 12838,4843 13295,4579 13297,4579 Z"/>
     <path fill="rgb(115,115,115)" stroke="none" d="M 13297,5062 L 13297,4579 13295,4579 13565,4423 13565,5333 12838,5753 12838,5062 13297,5062 Z M 13287,4589 L 13287,5052 12838,5052 12838,4843 13278,4589 13287,4589 Z"/>
     <path fill="rgb(117,117,117)" stroke="none" d="M 13287,5052 L 13287,4589 13278,4589 13565,4423 13565,5333 12838,5753 12838,5052 13287,5052 Z M 13277,4599 L 13277,5042 12838,5042 12838,4843 13260,4599 13277,4599 Z"/>
     <path fill="rgb(119,119,119)" stroke="none" d="M 13277,5042 L 13277,4599 13260,4599 13565,4423 13565,5333 12838,5753 12838,5042 13277,5042 Z M 13267,4609 L 13267,5032 12844,5032 12844,4840 13243,4609 13267,4609 Z"/>
     <path fill="rgb(120,120,120)" stroke="none" d="M 12844,5032 L 13267,5032 13267,4609 13243,4609 13565,4423 13565,5333 12838,5753 12838,4843 12844,4840 12844,5032 Z M 13257,4619 L 13257,5022 12854,5022 12854,4834 13226,4619 13257,4619 Z"/>
     <path fill="rgb(122,122,122)" stroke="none" d="M 12854,5022 L 13257,5022 13257,4619 13226,4619 13565,4423 13565,5333 12838,5753 12838,4843 12854,4834 12854,5022 Z M 13247,4629 L 13247,5012 12864,5012 12864,4828 13208,4629 13247,4629 Z"/>
     <path fill="rgb(123,123,123)" stroke="none" d="M 12864,5012 L 13247,5012 13247,4629 13208,4629 13565,4423 13565,5333 12838,5753 12838,4843 12864,4828 12864,5012 Z M 13237,4639 L 13237,5002 12874,5002 12874,4822 13191,4639 13237,4639 Z"/>
     <path fill="rgb(125,125,125)" stroke="none" d="M 12874,5002 L 13237,5002 13237,4639 13191,4639 13565,4423 13565,5333 12838,5753 12838,4843 12874,4822 12874,5002 Z M 13227,4649 L 13227,4992 12884,4992 12884,4816 13174,4649 13227,4649 Z"/>
     <path fill="rgb(126,126,126)" stroke="none" d="M 12884,4992 L 13227,4992 13227,4649 13174,4649 13565,4423 13565,5333 12838,5753 12838,4843 12884,4816 12884,4992 Z M 13217,4659 L 13217,4982 12894,4982 12894,4811 13156,4659 13217,4659 Z"/>
     <path fill="rgb(128,128,128)" stroke="none" d="M 12894,4982 L 13217,4982 13217,4659 13156,4659 13565,4423 13565,5333 12838,5753 12838,4843 12894,4811 12894,4982 Z M 13206,4670 L 13206,4971 12905,4971 12905,4804 13137,4670 13206,4670 Z"/>
     <path fill="rgb(129,129,129)" stroke="none" d="M 12905,4971 L 13206,4971 13206,4670 13137,4670 13565,4423 13565,5333 12838,5753 12838,4843 12905,4804 12905,4971 Z M 13196,4680 L 13196,4961 12915,4961 12915,4799 13120,4680 13196,4680 Z"/>
     <path fill="rgb(131,131,131)" stroke="none" d="M 12915,4961 L 13196,4961 13196,4680 13120,4680 13565,4423 13565,5333 12838,5753 12838,4843 12915,4799 12915,4961 Z M 13186,4690 L 13186,4951 12925,4951 12925,4793 13103,4690 13186,4690 Z"/>
     <path fill="rgb(132,132,132)" stroke="none" d="M 12925,4951 L 13186,4951 13186,4690 13103,4690 13565,4423 13565,5333 12838,5753 12838,4843 12925,4793 12925,4951 Z M 13176,4700 L 13176,4941 12935,4941 12935,4787 13086,4700 13176,4700 Z"/>
     <path fill="rgb(134,134,134)" stroke="none" d="M 12935,4941 L 13176,4941 13176,4700 13086,4700 13565,4423 13565,5333 12838,5753 12838,4843 12935,4787 12935,4941 Z M 13166,4710 L 13166,4931 12945,4931 12945,4781 13068,4710 13166,4710 Z"/>
     <path fill="rgb(136,136,136)" stroke="none" d="M 12945,4931 L 13166,4931 13166,4710 13068,4710 13565,4423 13565,5333 12838,5753 12838,4843 12945,4781 12945,4931 Z M 13156,4720 L 13156,4921 12955,4921 12955,4775 13051,4720 13156,4720 Z"/>
     <path fill="rgb(137,137,137)" stroke="none" d="M 12955,4921 L 13156,4921 13156,4720 13051,4720 13565,4423 13565,5333 12838,5753 12838,4843 12955,4775 12955,4921 Z M 13146,4730 L 13146,4911 12965,4911 12965,4770 13034,4730 13146,4730 Z"/>
     <path fill="rgb(139,139,139)" stroke="none" d="M 12965,4911 L 13146,4911 13146,4730 13034,4730 13565,4423 13565,5333 12838,5753 12838,4843 12965,4770 12965,4911 Z M 13136,4740 L 13136,4901 12975,4901 12975,4764 13016,4740 13136,4740 Z"/>
     <path fill="rgb(140,140,140)" stroke="none" d="M 12975,4901 L 13136,4901 13136,4740 13016,4740 13565,4423 13565,5333 12838,5753 12838,4843 12975,4764 12975,4901 Z M 13126,4750 L 13126,4891 12985,4891 12985,4758 12999,4750 13126,4750 Z"/>
     <path fill="rgb(142,142,142)" stroke="none" d="M 12985,4891 L 13126,4891 13126,4750 12999,4750 13565,4423 13565,5333 12838,5753 12838,4843 12985,4758 12985,4891 Z M 12995,4760 L 13116,4760 13116,4881 12995,4881 12995,4760 Z"/>
     <path fill="rgb(143,143,143)" stroke="none" d="M 12995,4760 L 12995,4881 13116,4881 13116,4760 12995,4760 Z M 13006,4771 L 13105,4771 13105,4870 13006,4870 13006,4771 Z M 12838,5753 L 12838,4843 13565,4423 13565,5333 12838,5753 Z"/>
     <path fill="rgb(145,145,145)" stroke="none" d="M 13006,4771 L 13006,4870 13105,4870 13105,4771 13006,4771 Z M 13016,4781 L 13095,4781 13095,4860 13016,4860 13016,4781 Z M 12838,5753 L 12838,4843 13565,4423 13565,5333 12838,5753 Z"/>
     <path fill="rgb(146,146,146)" stroke="none" d="M 13016,4781 L 13016,4860 13095,4860 13095,4781 13016,4781 Z M 13026,4791 L 13085,4791 13085,4850 13026,4850 13026,4791 Z M 12838,5753 L 12838,4843 13565,4423 13565,5333 12838,5753 Z"/>
     <path fill="rgb(148,148,148)" stroke="none" d="M 13026,4791 L 13026,4850 13085,4850 13085,4791 13026,4791 Z M 13036,4801 L 13075,4801 13075,4840 13036,4840 13036,4801 Z M 12838,5753 L 12838,4843 13565,4423 13565,5333 12838,5753 Z"/>
     <path fill="rgb(149,149,149)" stroke="none" d="M 13036,4801 L 13036,4840 13075,4840 13075,4801 13036,4801 Z M 13046,4811 L 13065,4811 13065,4830 13046,4830 13046,4811 Z M 12838,5753 L 12838,4843 13565,4423 13565,5333 12838,5753 Z"/>
     <path fill="rgb(153,153,153)" stroke="none" d="M 13046,4811 L 13046,4830 13065,4830 13065,4811 13046,4811 Z M 12838,5753 L 12838,4843 13565,4423 13565,5333 12838,5753 Z"/>
     <path fill="none" stroke="rgb(178,178,178)" id="Drawing_2_0" stroke-width="40" stroke-linejoin="round" d="M 12838,5753 L 12838,4843 13565,4423 13565,5333 12838,5753 Z"/>
    </g>
    <g>
     <defs>
      <linearGradient id="Gradient_347" gradientUnits="userSpaceOnUse" x1="12716" y1="3863" x2="12716" y2="4843">
       <stop offset="0.1" stop-color="rgb(51,51,51)"/>
       <stop offset="1" stop-color="rgb(153,153,153)"/>
      </linearGradient>
     </defs>
     <path fill="url(#Gradient_347)" stroke="rgb(178,178,178)" id="Drawing_3_0" stroke-width="40" stroke-linejoin="round" d="M 12838,4843 L 11868,4283 12596,3863 13565,4423 12838,4843 Z"/>
    </g>
    <g>
     <path fill="rgb(51,51,51)" stroke="none" d="M 12959,5700 L 12959,4773 13080,4703 13080,5700 12959,5700 Z"/>
     <path fill="rgb(52,52,52)" stroke="none" d="M 13080,5700 L 13080,5893 12959,5963 12959,5700 13080,5700 Z M 12959,5690 L 12959,4773 13080,4703 13080,5690 12959,5690 Z"/>
     <path fill="rgb(54,54,54)" stroke="none" d="M 13080,5690 L 13080,5893 12959,5963 12959,5690 13080,5690 Z M 12959,5680 L 12959,4773 13080,4703 13080,5680 12959,5680 Z"/>
     <path fill="rgb(55,55,55)" stroke="none" d="M 13080,5680 L 13080,5893 12959,5963 12959,5680 13080,5680 Z M 12959,5670 L 12959,4773 13080,4703 13080,5670 12959,5670 Z"/>
     <path fill="rgb(57,57,57)" stroke="none" d="M 13080,5670 L 13080,5893 12959,5963 12959,5670 13080,5670 Z M 12959,5660 L 12959,4773 13080,4703 13080,5660 12959,5660 Z"/>
     <path fill="rgb(59,59,59)" stroke="none" d="M 13080,5660 L 13080,5893 12959,5963 12959,5660 13080,5660 Z M 12959,5650 L 12959,4773 13080,4703 13080,5650 12959,5650 Z"/>
     <path fill="rgb(60,60,60)" stroke="none" d="M 13080,5650 L 13080,5893 12959,5963 12959,5650 13080,5650 Z M 12959,5640 L 12959,4773 13080,4703 13080,5640 12959,5640 Z"/>
     <path fill="rgb(62,62,62)" stroke="none" d="M 13080,5640 L 13080,5893 12959,5963 12959,5640 13080,5640 Z M 12959,5630 L 12959,4773 13080,4703 13080,5630 12959,5630 Z"/>
     <path fill="rgb(63,63,63)" stroke="none" d="M 13080,5630 L 13080,5893 12959,5963 12959,5630 13080,5630 Z M 12959,5620 L 12959,4773 13080,4703 13080,5620 12959,5620 Z"/>
     <path fill="rgb(65,65,65)" stroke="none" d="M 13080,5620 L 13080,5893 12959,5963 12959,5620 13080,5620 Z M 12959,5610 L 12959,4773 13080,4703 13080,5610 12959,5610 Z"/>
     <path fill="rgb(67,67,67)" stroke="none" d="M 13080,5610 L 13080,5893 12959,5963 12959,5610 13080,5610 Z M 12959,5600 L 12959,4773 13080,4703 13080,5600 12959,5600 Z"/>
     <path fill="rgb(68,68,68)" stroke="none" d="M 13080,5600 L 13080,5893 12959,5963 12959,5600 13080,5600 Z M 12959,5590 L 12959,4773 13080,4703 13080,5590 12959,5590 Z"/>
     <path fill="rgb(70,70,70)" stroke="none" d="M 13080,5590 L 13080,5893 12959,5963 12959,5590 13080,5590 Z M 12959,5580 L 12959,4773 13080,4703 13080,5580 12959,5580 Z"/>
     <path fill="rgb(72,72,72)" stroke="none" d="M 13080,5580 L 13080,5893 12959,5963 12959,5580 13080,5580 Z M 12959,5570 L 12959,4773 13080,4703 13080,5570 12959,5570 Z"/>
     <path fill="rgb(73,73,73)" stroke="none" d="M 13080,5570 L 13080,5893 12959,5963 12959,5570 13080,5570 Z M 12959,5560 L 12959,4773 13080,4703 13080,5560 12959,5560 Z"/>
     <path fill="rgb(75,75,75)" stroke="none" d="M 13080,5560 L 13080,5893 12959,5963 12959,5560 13080,5560 Z M 12959,5550 L 12959,4773 13080,4703 13080,5550 12959,5550 Z"/>
     <path fill="rgb(76,76,76)" stroke="none" d="M 13080,5550 L 13080,5893 12959,5963 12959,5550 13080,5550 Z M 12959,5540 L 12959,4773 13080,4703 13080,5540 12959,5540 Z"/>
     <path fill="rgb(78,78,78)" stroke="none" d="M 13080,5540 L 13080,5893 12959,5963 12959,5540 13080,5540 Z M 12959,5530 L 12959,4773 13080,4703 13080,5530 12959,5530 Z"/>
     <path fill="rgb(80,80,80)" stroke="none" d="M 13080,5530 L 13080,5893 12959,5963 12959,5530 13080,5530 Z M 12959,5520 L 12959,4773 13080,4703 13080,5520 12959,5520 Z"/>
     <path fill="rgb(81,81,81)" stroke="none" d="M 13080,5520 L 13080,5893 12959,5963 12959,5520 13080,5520 Z M 12959,5510 L 12959,4773 13080,4703 13080,5510 12959,5510 Z"/>
     <path fill="rgb(83,83,83)" stroke="none" d="M 13080,5510 L 13080,5893 12959,5963 12959,5510 13080,5510 Z M 12959,5500 L 12959,4773 13080,4703 13080,5500 12959,5500 Z"/>
     <path fill="rgb(85,85,85)" stroke="none" d="M 13080,5500 L 13080,5893 12959,5963 12959,5500 13080,5500 Z M 12959,5490 L 12959,4773 13080,4703 13080,5490 12959,5490 Z"/>
     <path fill="rgb(86,86,86)" stroke="none" d="M 13080,5490 L 13080,5893 12959,5963 12959,5490 13080,5490 Z M 12959,5480 L 12959,4773 13080,4703 13080,5480 12959,5480 Z"/>
     <path fill="rgb(88,88,88)" stroke="none" d="M 13080,5480 L 13080,5893 12959,5963 12959,5480 13080,5480 Z M 12959,5470 L 12959,4773 13080,4703 13080,5470 12959,5470 Z"/>
     <path fill="rgb(89,89,89)" stroke="none" d="M 13080,5470 L 13080,5893 12959,5963 12959,5470 13080,5470 Z M 12959,5460 L 12959,4773 13080,4703 13080,5460 12959,5460 Z"/>
     <path fill="rgb(91,91,91)" stroke="none" d="M 13080,5460 L 13080,5893 12959,5963 12959,5460 13080,5460 Z M 13080,4709 L 13080,5450 12959,5450 12959,4773 13070,4709 13080,4709 Z"/>
     <path fill="rgb(93,93,93)" stroke="none" d="M 13080,5450 L 13080,5893 12959,5963 12959,5450 13080,5450 Z M 13070,4709 L 13080,4703 13080,4709 13070,4709 Z M 13080,4719 L 13080,5440 12959,5440 12959,4773 13052,4719 13080,4719 Z"/>
     <path fill="rgb(94,94,94)" stroke="none" d="M 13080,5440 L 13080,5893 12959,5963 12959,5440 13080,5440 Z M 13052,4719 L 13080,4703 13080,4719 13052,4719 Z M 13080,4729 L 13080,5430 12959,5430 12959,4773 13035,4729 13080,4729 Z"/>
     <path fill="rgb(96,96,96)" stroke="none" d="M 13080,5430 L 13080,5893 12959,5963 12959,5430 13080,5430 Z M 13035,4729 L 13080,4703 13080,4729 13035,4729 Z M 13080,4739 L 13080,5420 12959,5420 12959,4773 13018,4739 13080,4739 Z"/>
     <path fill="rgb(97,97,97)" stroke="none" d="M 13080,5420 L 13080,5893 12959,5963 12959,5420 13080,5420 Z M 13018,4739 L 13080,4703 13080,4739 13018,4739 Z M 13080,4749 L 13080,5410 12959,5410 12959,4773 13000,4749 13080,4749 Z"/>
     <path fill="rgb(99,99,99)" stroke="none" d="M 13080,5410 L 13080,5893 12959,5963 12959,5410 13080,5410 Z M 13000,4749 L 13080,4703 13080,4749 13000,4749 Z M 13080,4759 L 13080,5400 12959,5400 12959,4773 12983,4759 13080,4759 Z"/>
     <path fill="rgb(101,101,101)" stroke="none" d="M 13080,5400 L 13080,5893 12959,5963 12959,5400 13080,5400 Z M 12983,4759 L 13080,4703 13080,4759 12983,4759 Z M 13080,4769 L 13080,5390 12959,5390 12959,4773 12966,4769 13080,4769 Z"/>
     <path fill="rgb(102,102,102)" stroke="none" d="M 13080,5390 L 13080,5893 12959,5963 12959,5390 13080,5390 Z M 12966,4769 L 13080,4703 13080,4769 12966,4769 Z M 13080,4779 L 13080,5380 12959,5380 12959,4779 13080,4779 Z"/>
     <path fill="rgb(104,104,104)" stroke="none" d="M 13080,5380 L 13080,5893 12959,5963 12959,5380 13080,5380 Z M 12959,4779 L 12959,4773 13080,4703 13080,4779 12959,4779 Z M 13080,4789 L 13080,5370 12959,5370 12959,4789 13080,4789 Z"/>
     <path fill="rgb(106,106,106)" stroke="none" d="M 13080,5370 L 13080,5893 12959,5963 12959,5370 13080,5370 Z M 12959,4789 L 12959,4773 13080,4703 13080,4789 12959,4789 Z M 13080,4799 L 13080,5360 12959,5360 12959,4799 13080,4799 Z"/>
     <path fill="rgb(107,107,107)" stroke="none" d="M 13080,5360 L 13080,5893 12959,5963 12959,5360 13080,5360 Z M 12959,4799 L 12959,4773 13080,4703 13080,4799 12959,4799 Z M 13080,4809 L 13080,5350 12959,5350 12959,4809 13080,4809 Z"/>
     <path fill="rgb(109,109,109)" stroke="none" d="M 13080,5350 L 13080,5893 12959,5963 12959,5350 13080,5350 Z M 12959,4809 L 12959,4773 13080,4703 13080,4809 12959,4809 Z M 13080,4819 L 13080,5340 12959,5340 12959,4819 13080,4819 Z"/>
     <path fill="rgb(110,110,110)" stroke="none" d="M 13080,5340 L 13080,5893 12959,5963 12959,5340 13080,5340 Z M 12959,4819 L 12959,4773 13080,4703 13080,4819 12959,4819 Z M 13080,4829 L 13080,5330 12959,5330 12959,4829 13080,4829 Z"/>
     <path fill="rgb(112,112,112)" stroke="none" d="M 13080,5330 L 13080,5893 12959,5963 12959,5330 13080,5330 Z M 12959,4829 L 12959,4773 13080,4703 13080,4829 12959,4829 Z M 13080,4839 L 13080,5320 12959,5320 12959,4839 13080,4839 Z"/>
     <path fill="rgb(114,114,114)" stroke="none" d="M 13080,5320 L 13080,5893 12959,5963 12959,5320 13080,5320 Z M 12959,4839 L 12959,4773 13080,4703 13080,4839 12959,4839 Z M 13080,4849 L 13080,5310 12959,5310 12959,4849 13080,4849 Z"/>
     <path fill="rgb(115,115,115)" stroke="none" d="M 13080,5310 L 13080,5893 12959,5963 12959,5310 13080,5310 Z M 12959,4849 L 12959,4773 13080,4703 13080,4849 12959,4849 Z M 13080,4859 L 13080,5300 12959,5300 12959,4859 13080,4859 Z"/>
     <path fill="rgb(117,117,117)" stroke="none" d="M 13080,5300 L 13080,5893 12959,5963 12959,5300 13080,5300 Z M 12959,4859 L 12959,4773 13080,4703 13080,4859 12959,4859 Z M 13080,4869 L 13080,5290 12959,5290 12959,4869 13080,4869 Z"/>
     <path fill="rgb(119,119,119)" stroke="none" d="M 13080,5290 L 13080,5893 12959,5963 12959,5290 13080,5290 Z M 12959,4869 L 12959,4773 13080,4703 13080,4869 12959,4869 Z M 13080,4880 L 13080,5279 12959,5279 12959,4880 13080,4880 Z"/>
     <path fill="rgb(120,120,120)" stroke="none" d="M 13080,5279 L 13080,5893 12959,5963 12959,5279 13080,5279 Z M 12959,4880 L 12959,4773 13080,4703 13080,4880 12959,4880 Z M 13080,4890 L 13080,5269 12959,5269 12959,4890 13080,4890 Z"/>
     <path fill="rgb(122,122,122)" stroke="none" d="M 13080,5269 L 13080,5893 12959,5963 12959,5269 13080,5269 Z M 12959,4890 L 12959,4773 13080,4703 13080,4890 12959,4890 Z M 13080,4900 L 13080,5259 12959,5259 12959,4900 13080,4900 Z"/>
     <path fill="rgb(123,123,123)" stroke="none" d="M 13080,5259 L 13080,5893 12959,5963 12959,5259 13080,5259 Z M 12959,4900 L 12959,4773 13080,4703 13080,4900 12959,4900 Z M 13080,4910 L 13080,5249 12959,5249 12959,4910 13080,4910 Z"/>
     <path fill="rgb(125,125,125)" stroke="none" d="M 13080,5249 L 13080,5893 12959,5963 12959,5249 13080,5249 Z M 12959,4910 L 12959,4773 13080,4703 13080,4910 12959,4910 Z M 13080,4920 L 13080,5239 12959,5239 12959,4920 13080,4920 Z"/>
     <path fill="rgb(127,127,127)" stroke="none" d="M 13080,5239 L 13080,5893 12959,5963 12959,5239 13080,5239 Z M 12959,4920 L 12959,4773 13080,4703 13080,4920 12959,4920 Z M 13080,4930 L 13080,5229 12959,5229 12959,4930 13080,4930 Z"/>
     <path fill="rgb(128,128,128)" stroke="none" d="M 13080,5229 L 13080,5893 12959,5963 12959,5229 13080,5229 Z M 12959,4930 L 12959,4773 13080,4703 13080,4930 12959,4930 Z M 13080,4940 L 13080,5219 12959,5219 12959,4940 13080,4940 Z"/>
     <path fill="rgb(130,130,130)" stroke="none" d="M 13080,5219 L 13080,5893 12959,5963 12959,5219 13080,5219 Z M 12959,4940 L 12959,4773 13080,4703 13080,4940 12959,4940 Z M 13080,4950 L 13080,5209 12959,5209 12959,4950 13080,4950 Z"/>
     <path fill="rgb(131,131,131)" stroke="none" d="M 13080,5209 L 13080,5893 12959,5963 12959,5209 13080,5209 Z M 12959,4950 L 12959,4773 13080,4703 13080,4950 12959,4950 Z M 13080,4960 L 13080,5199 12959,5199 12959,4960 13080,4960 Z"/>
     <path fill="rgb(133,133,133)" stroke="none" d="M 13080,5199 L 13080,5893 12959,5963 12959,5199 13080,5199 Z M 12959,4960 L 12959,4773 13080,4703 13080,4960 12959,4960 Z M 13080,4970 L 13080,5189 12959,5189 12959,4970 13080,4970 Z"/>
     <path fill="rgb(135,135,135)" stroke="none" d="M 13080,5189 L 13080,5893 12959,5963 12959,5189 13080,5189 Z M 12959,4970 L 12959,4773 13080,4703 13080,4970 12959,4970 Z M 13080,4980 L 13080,5179 12959,5179 12959,4980 13080,4980 Z"/>
     <path fill="rgb(136,136,136)" stroke="none" d="M 13080,5179 L 13080,5893 12959,5963 12959,5179 13080,5179 Z M 12959,4980 L 12959,4773 13080,4703 13080,4980 12959,4980 Z M 13080,4990 L 13080,5169 12959,5169 12959,4990 13080,4990 Z"/>
     <path fill="rgb(138,138,138)" stroke="none" d="M 13080,5169 L 13080,5893 12959,5963 12959,5169 13080,5169 Z M 12959,4990 L 12959,4773 13080,4703 13080,4990 12959,4990 Z M 13074,5000 L 13074,5159 12959,5159 12959,5000 13074,5000 Z"/>
     <path fill="rgb(140,140,140)" stroke="none" d="M 13074,5159 L 13074,5000 12959,5000 12959,4773 13080,4703 13080,5893 12959,5963 12959,5159 13074,5159 Z M 13064,5010 L 13064,5149 12959,5149 12959,5010 13064,5010 Z"/>
     <path fill="rgb(141,141,141)" stroke="none" d="M 13064,5149 L 13064,5010 12959,5010 12959,4773 13080,4703 13080,5893 12959,5963 12959,5149 13064,5149 Z M 13054,5020 L 13054,5139 12959,5139 12959,5020 13054,5020 Z"/>
     <path fill="rgb(143,143,143)" stroke="none" d="M 13054,5139 L 13054,5020 12959,5020 12959,4773 13080,4703 13080,5893 12959,5963 12959,5139 13054,5139 Z M 13044,5030 L 13044,5129 12959,5129 12959,5030 13044,5030 Z"/>
     <path fill="rgb(144,144,144)" stroke="none" d="M 13044,5129 L 13044,5030 12959,5030 12959,4773 13080,4703 13080,5893 12959,5963 12959,5129 13044,5129 Z M 13034,5040 L 13034,5119 12959,5119 12959,5040 13034,5040 Z"/>
     <path fill="rgb(146,146,146)" stroke="none" d="M 13034,5119 L 13034,5040 12959,5040 12959,4773 13080,4703 13080,5893 12959,5963 12959,5119 13034,5119 Z M 12965,5050 L 13024,5050 13024,5109 12965,5109 12965,5050 Z"/>
     <path fill="rgb(148,148,148)" stroke="none" d="M 12965,5050 L 12965,5109 13024,5109 13024,5050 12965,5050 Z M 12975,5060 L 13014,5060 13014,5099 12975,5099 12975,5060 Z M 12959,5963 L 12959,4773 13080,4703 13080,5893 12959,5963 Z"/>
     <path fill="rgb(149,149,149)" stroke="none" d="M 12975,5060 L 12975,5099 13014,5099 13014,5060 12975,5060 Z M 12985,5070 L 13004,5070 13004,5089 12985,5089 12985,5070 Z M 12959,5963 L 12959,4773 13080,4703 13080,5893 12959,5963 Z"/>
     <path fill="rgb(153,153,153)" stroke="none" d="M 12985,5070 L 12985,5089 13004,5089 13004,5070 12985,5070 Z M 12959,5963 L 12959,4773 13080,4703 13080,5893 12959,5963 Z"/>
     <path fill="none" stroke="rgb(178,178,178)" id="Drawing_4_0" stroke-width="40" stroke-linejoin="round" d="M 12959,5963 L 12959,4773 13080,4703 13080,5893 12959,5963 Z"/>
    </g>
    <g>
     <defs>
      <linearGradient id="Gradient_348" gradientUnits="userSpaceOnUse" x1="11743" y1="5017" x2="12960" y2="5019">
       <stop offset="0.1" stop-color="rgb(51,51,51)"/>
       <stop offset="1" stop-color="rgb(153,153,153)"/>
      </linearGradient>
     </defs>
     <path fill="url(#Gradient_348)" stroke="rgb(178,178,178)" id="Drawing_5_0" stroke-width="40" stroke-linejoin="round" d="M 11746,5263 L 11746,4073 12959,4773 12959,5963 11746,5263 Z"/>
    </g>
    <g>
     <defs>
      <linearGradient id="Gradient_349" gradientUnits="userSpaceOnUse" x1="12413" y1="4003" x2="12413" y2="4773">
       <stop offset="0.1" stop-color="rgb(51,51,51)"/>
       <stop offset="1" stop-color="rgb(153,153,153)"/>
      </linearGradient>
     </defs>
     <path fill="url(#Gradient_349)" stroke="rgb(178,178,178)" id="Drawing_6_0" stroke-width="40" stroke-linejoin="round" d="M 12959,4773 L 11746,4073 11868,4003 13080,4703 12959,4773 Z"/>
    </g>
    <g>
     <path fill="rgb(255,255,255)" stroke="none" d="M 11868,5193 L 11868,5053 11989,5123 11989,5263 11868,5193 Z"/>
     <path fill="none" stroke="rgb(178,178,178)" id="Drawing_7_0" stroke-width="40" stroke-linejoin="round" d="M 11868,5193 L 11868,5053 11989,5123 11989,5263 11868,5193 Z"/>
    </g>
    <g>
     <path fill="rgb(127,127,127)" stroke="none" d="M 12716,5683 L 12716,5543 12838,5613 12838,5753 12716,5683 Z"/>
     <path fill="none" stroke="rgb(178,178,178)" id="Drawing_8_0" stroke-width="40" stroke-linejoin="round" d="M 12716,5683 L 12716,5543 12838,5613 12838,5753 12716,5683 Z"/>
    </g>
    <g>
     <path fill="none" stroke="rgb(0,0,0)" id="Drawing_9_0" stroke-width="40" stroke-linejoin="round" d="M 11746,5263 L 11746,4073 11868,4003 12110,4143 12595,3863 13565,4423 13565,5333 13080,5613 13080,5893 12959,5963 11746,5263 Z"/>
    </g>
    <g>
     <defs>
      <linearGradient id="Gradient_350" gradientUnits="userSpaceOnUse" x1="11867" y1="4912" x2="12839" y2="4914">
       <stop offset="0.1" stop-color="rgb(147,212,240)"/>
       <stop offset="1" stop-color="rgb(233,246,252)"/>
      </linearGradient>
     </defs>
     <path fill="url(#Gradient_350)" stroke="rgb(51,51,51)" id="Drawing_10_0" stroke-width="40" stroke-linejoin="round" d="M 11868,4913 L 11868,4353 12838,4913 12838,5473 11868,4913 Z"/>
    </g>
    <g>
     <path fill="rgb(255,255,255)" stroke="none" d="M 12110,5333 L 12110,5193 12231,5263 12231,5403 12110,5333 Z"/>
     <path fill="none" stroke="rgb(178,178,178)" id="Drawing_11_0" stroke-width="40" stroke-linejoin="round" d="M 12110,5333 L 12110,5193 12231,5263 12231,5403 12110,5333 Z"/>
    </g>
   </g>
  </g>
 </g>
</svg>