<?xml version="1.0" encoding="UTF-8"?>

<svg version="1.2" baseProfile="tiny" width="14.76mm" height="24.23mm" viewBox="4999 5403 1476 2423" preserveAspectRatio="xMidYMid" fill-rule="evenodd" stroke-width="28.222" stroke-linejoin="round" xmlns="http://www.w3.org/2000/svg" xmlns:xlink="http://www.w3.org/1999/xlink" xml:space="preserve">
 <g visibility="visible" id="Slide_1">
  <g id="DrawingGroup_1">
   <g>
    <path fill="rgb(221,221,221)" stroke="none" d="M 5868,7806 C 6201,7806 6474,7736 6474,7525 6474,7315 6353,7315 6232,7315 6232,7525 5868,7525 5868,7806 Z"/>
    <path fill="none" stroke="rgb(221,221,221)" id="Drawing_1_0" stroke-linejoin="round" d="M 5868,7806 C 6201,7806 6474,7736 6474,7525 6474,7315 6353,7315 6232,7315 6232,7525 5868,7525 5868,7806 Z"/>
   </g>
   <g id="DrawingGroup_2">
    <g>
     <defs>
      <linearGradient id="Gradient_563" gradientUnits="userSpaceOnUse" x1="5322" y1="6334" x2="5322" y2="6684">
       <stop offset="0.1" stop-color="rgb(179,179,179)"/>
       <stop offset="1" stop-color="rgb(229,229,229)"/>
      </linearGradient>
     </defs>
     <path fill="url(#Gradient_563)" stroke="rgb(255,255,255)" id="Drawing_2_0" stroke-width="40" stroke-linejoin="round" d="M 5383,6684 L 5019,6474 5262,6334 5625,6544 5383,6684 Z"/>
    </g>
    <g>
     <defs>
      <linearGradient id="Gradient_564" gradientUnits="userSpaceOnUse" x1="5868" y1="5423" x2="5868" y2="5844">
       <stop offset="0.1" stop-color="rgb(179,179,179)"/>
       <stop offset="1" stop-color="rgb(229,229,229)"/>
      </linearGradient>
     </defs>
     <path fill="url(#Gradient_564)" stroke="rgb(255,255,255)" id="Drawing_3_0" stroke-width="40" stroke-linejoin="round" d="M 5868,5844 L 5504,5633 5868,5423 6232,5633 5868,5844 Z"/>
    </g>
    <g>
     <defs>
      <linearGradient id="Gradient_565" gradientUnits="userSpaceOnUse" x1="5262" y1="6299" x2="5626" y2="6299">
       <stop offset="0.1" stop-color="rgb(179,179,179)"/>
       <stop offset="1" stop-color="rgb(229,229,229)"/>
      </linearGradient>
     </defs>
     <path fill="url(#Gradient_565)" stroke="rgb(255,255,255)" id="Drawing_4_0" stroke-width="40" stroke-linejoin="round" d="M 5262,6334 L 5262,6054 5626,6264 5626,6545 5262,6334 Z"/>
    </g>
    <g>
     <defs>
      <linearGradient id="Gradient_566" gradientUnits="userSpaceOnUse" x1="5565" y1="5914" x2="5565" y2="6264">
       <stop offset="0.1" stop-color="rgb(179,179,179)"/>
       <stop offset="1" stop-color="rgb(229,229,229)"/>
      </linearGradient>
     </defs>
     <path fill="url(#Gradient_566)" stroke="rgb(255,255,255)" id="Drawing_5_0" stroke-width="40" stroke-linejoin="round" d="M 5626,6264 L 5262,6054 5505,5914 5868,6124 5626,6264 Z"/>
    </g>
    <g>
     <defs>
      <linearGradient id="Gradient_567" gradientUnits="userSpaceOnUse" x1="5498" y1="5878" x2="5868" y2="5878">
       <stop offset="0.1" stop-color="rgb(179,179,179)"/>
       <stop offset="1" stop-color="rgb(229,229,229)"/>
      </linearGradient>
     </defs>
     <path fill="url(#Gradient_567)" stroke="rgb(255,255,255)" id="Drawing_6_0" stroke-width="40" stroke-linejoin="round" d="M 5498,5913 L 5498,5633 5868,5850 5862,6124 5498,5913 Z"/>
    </g>
    <g>
     <path fill="rgb(127,127,127)" stroke="none" d="M 5747,5984 L 5747,5844 5868,5914 5868,6054 5747,5984 Z"/>
     <path fill="none" stroke="rgb(0,0,0)" id="Drawing_7_0" stroke-width="40" stroke-linejoin="round" d="M 5747,5984 L 5747,5844 5868,5914 5868,6054 5747,5984 Z"/>
    </g>
    <g>
     <path fill="rgb(127,127,127)" stroke="none" d="M 5504,5843 L 5504,5703 5625,5773 5625,5913 5504,5843 Z"/>
     <path fill="none" stroke="rgb(0,0,0)" id="Drawing_8_0" stroke-width="40" stroke-linejoin="round" d="M 5504,5843 L 5504,5703 5625,5773 5625,5913 5504,5843 Z"/>
    </g>
    <g>
     <path fill="rgb(127,127,127)" stroke="none" d="M 5504,6404 L 5504,6264 5625,6334 5625,6474 5504,6404 Z"/>
     <path fill="none" stroke="rgb(0,0,0)" id="Drawing_9_0" stroke-width="40" stroke-linejoin="round" d="M 5504,6404 L 5504,6264 5625,6334 5625,6474 5504,6404 Z"/>
    </g>
    <g>
     <path fill="rgb(127,127,127)" stroke="none" d="M 5262,6264 L 5262,6124 5383,6194 5383,6334 5262,6264 Z"/>
     <path fill="none" stroke="rgb(0,0,0)" id="Drawing_10_0" stroke-width="40" stroke-linejoin="round" d="M 5262,6264 L 5262,6124 5383,6194 5383,6334 5262,6264 Z"/>
    </g>
    <g>
     <defs>
      <linearGradient id="Gradient_568" gradientUnits="userSpaceOnUse" x1="5504" y1="7560" x2="5868" y2="7560">
       <stop offset="0.1" stop-color="rgb(179,179,179)"/>
       <stop offset="1" stop-color="rgb(229,229,229)"/>
      </linearGradient>
     </defs>
     <path fill="url(#Gradient_568)" stroke="rgb(255,255,255)" id="Drawing_11_0" stroke-width="40" stroke-linejoin="round" d="M 5504,7595 L 5504,7315 5868,7525 5868,7806 5504,7595 Z"/>
    </g>
    <g>
     <path fill="rgb(127,127,127)" stroke="none" d="M 5747,7666 L 5747,7526 5868,7596 5868,7736 5747,7666 Z"/>
     <path fill="none" stroke="rgb(0,0,0)" id="Drawing_12_0" stroke-width="40" stroke-linejoin="round" d="M 5747,7666 L 5747,7526 5868,7596 5868,7736 5747,7666 Z"/>
    </g>
    <g>
     <defs>
      <linearGradient id="Gradient_569" gradientUnits="userSpaceOnUse" x1="5262" y1="7420" x2="5626" y2="7420">
       <stop offset="0.1" stop-color="rgb(179,179,179)"/>
       <stop offset="1" stop-color="rgb(229,229,229)"/>
      </linearGradient>
     </defs>
     <path fill="url(#Gradient_569)" stroke="rgb(255,255,255)" id="Drawing_13_0" stroke-width="40" stroke-linejoin="round" d="M 5262,7455 L 5262,7175 5626,7385 5626,7666 5262,7455 Z"/>
    </g>
    <g>
     <path fill="rgb(127,127,127)" stroke="none" d="M 5504,7525 L 5504,7385 5625,7455 5625,7595 5504,7525 Z"/>
     <path fill="none" stroke="rgb(0,0,0)" id="Drawing_14_0" stroke-width="40" stroke-linejoin="round" d="M 5504,7525 L 5504,7385 5625,7455 5625,7595 5504,7525 Z"/>
    </g>
    <g>
     <path fill="rgb(179,179,179)" stroke="none" d="M 5383,7349 L 5383,6684 5626,6544 5626,6264 5868,6124 5868,5843 6232,5633 6232,7349 5383,7349 Z"/>
     <path fill="rgb(180,180,180)" stroke="none" d="M 6232,7349 L 6232,7595 5868,7806 5868,7525 5626,7666 5626,7385 5383,7525 5383,7349 6232,7349 Z M 5383,7327 L 5383,6684 5626,6544 5626,6264 5868,6124 5868,5843 6232,5633 6232,7327 5383,7327 Z"/>
     <path fill="rgb(181,181,181)" stroke="none" d="M 6232,7327 L 6232,7595 5868,7806 5868,7525 5626,7666 5626,7385 5383,7525 5383,7327 6232,7327 Z M 5383,7305 L 5383,6684 5626,6544 5626,6264 5868,6124 5868,5843 6232,5633 6232,7305 5383,7305 Z"/>
     <path fill="rgb(182,182,182)" stroke="none" d="M 6232,7305 L 6232,7595 5868,7806 5868,7525 5626,7666 5626,7385 5383,7525 5383,7305 6232,7305 Z M 5383,7283 L 5383,6684 5626,6544 5626,6264 5868,6124 5868,5843 6232,5633 6232,7283 5383,7283 Z"/>
     <path fill="rgb(183,183,183)" stroke="none" d="M 6232,7283 L 6232,7595 5868,7806 5868,7525 5626,7666 5626,7385 5383,7525 5383,7283 6232,7283 Z M 5383,7262 L 5383,6684 5626,6544 5626,6264 5868,6124 5868,5843 6232,5633 6232,7262 5383,7262 Z"/>
     <path fill="rgb(184,184,184)" stroke="none" d="M 6232,7262 L 6232,7595 5868,7806 5868,7525 5626,7666 5626,7385 5383,7525 5383,7262 6232,7262 Z M 5383,7240 L 5383,6684 5626,6544 5626,6264 5868,6124 5868,5843 6232,5633 6232,7240 5383,7240 Z"/>
     <path fill="rgb(185,185,185)" stroke="none" d="M 6232,7240 L 6232,7595 5868,7806 5868,7525 5626,7666 5626,7385 5383,7525 5383,7240 6232,7240 Z M 5383,7218 L 5383,6684 5626,6544 5626,6264 5868,6124 5868,5843 6232,5633 6232,7218 5383,7218 Z"/>
     <path fill="rgb(186,186,186)" stroke="none" d="M 6232,7218 L 6232,7595 5868,7806 5868,7525 5626,7666 5626,7385 5383,7525 5383,7218 6232,7218 Z M 5383,7196 L 5383,6684 5626,6544 5626,6264 5868,6124 5868,5843 6232,5633 6232,7196 5383,7196 Z"/>
     <path fill="rgb(187,187,187)" stroke="none" d="M 6232,7196 L 6232,7595 5868,7806 5868,7525 5626,7666 5626,7385 5383,7525 5383,7196 6232,7196 Z M 5383,7175 L 5383,6684 5626,6544 5626,6264 5868,6124 5868,5843 6232,5633 6232,7175 5383,7175 Z"/>
     <path fill="rgb(188,188,188)" stroke="none" d="M 6232,7175 L 6232,7595 5868,7806 5868,7525 5626,7666 5626,7385 5383,7525 5383,7175 6232,7175 Z M 5383,7153 L 5383,6684 5626,6544 5626,6264 5868,6124 5868,5843 6232,5633 6232,7153 5383,7153 Z"/>
     <path fill="rgb(189,189,189)" stroke="none" d="M 6232,7153 L 6232,7595 5868,7806 5868,7525 5626,7666 5626,7385 5383,7525 5383,7153 6232,7153 Z M 5383,7131 L 5383,6684 5626,6544 5626,6264 5868,6124 5868,5843 6232,5633 6232,7131 5383,7131 Z"/>
     <path fill="rgb(190,190,190)" stroke="none" d="M 6232,7131 L 6232,7595 5868,7806 5868,7525 5626,7666 5626,7385 5383,7525 5383,7131 6232,7131 Z M 5383,7109 L 5383,6684 5626,6544 5626,6264 5868,6124 5868,5843 6232,5633 6232,7109 5383,7109 Z"/>
     <path fill="rgb(191,191,191)" stroke="none" d="M 6232,7109 L 6232,7595 5868,7806 5868,7525 5626,7666 5626,7385 5383,7525 5383,7109 6232,7109 Z M 5383,7088 L 5383,6684 5626,6544 5626,6264 5868,6124 5868,5843 6232,5633 6232,7088 5383,7088 Z"/>
     <path fill="rgb(192,192,192)" stroke="none" d="M 6232,7088 L 6232,7595 5868,7806 5868,7525 5626,7666 5626,7385 5383,7525 5383,7088 6232,7088 Z M 5383,7066 L 5383,6684 5626,6544 5626,6264 5868,6124 5868,5843 6232,5633 6232,7066 5383,7066 Z"/>
     <path fill="rgb(193,193,193)" stroke="none" d="M 6232,7066 L 6232,7595 5868,7806 5868,7525 5626,7666 5626,7385 5383,7525 5383,7066 6232,7066 Z M 5383,7044 L 5383,6684 5626,6544 5626,6264 5868,6124 5868,5843 6232,5633 6232,7044 5383,7044 Z"/>
     <path fill="rgb(194,194,194)" stroke="none" d="M 6232,7044 L 6232,7595 5868,7806 5868,7525 5626,7666 5626,7385 5383,7525 5383,7044 6232,7044 Z M 5383,7022 L 5383,6684 5626,6544 5626,6264 5868,6124 5868,5843 6232,5633 6232,7022 5383,7022 Z"/>
     <path fill="rgb(195,195,195)" stroke="none" d="M 6232,7022 L 6232,7595 5868,7806 5868,7525 5626,7666 5626,7385 5383,7525 5383,7022 6232,7022 Z M 5383,7001 L 5383,6684 5626,6544 5626,6264 5868,6124 5868,5843 6232,5633 6232,7001 5383,7001 Z"/>
     <path fill="rgb(196,196,196)" stroke="none" d="M 6232,7001 L 6232,7595 5868,7806 5868,7525 5626,7666 5626,7385 5383,7525 5383,7001 6232,7001 Z M 5383,6979 L 5383,6684 5626,6544 5626,6264 5868,6124 5868,5843 6232,5633 6232,6979 5383,6979 Z"/>
     <path fill="rgb(197,197,197)" stroke="none" d="M 6232,6979 L 6232,7595 5868,7806 5868,7525 5626,7666 5626,7385 5383,7525 5383,6979 6232,6979 Z M 5383,6957 L 5383,6684 5626,6544 5626,6264 5868,6124 5868,5843 6232,5633 6232,6957 5383,6957 Z"/>
     <path fill="rgb(198,198,198)" stroke="none" d="M 6232,6957 L 6232,7595 5868,7806 5868,7525 5626,7666 5626,7385 5383,7525 5383,6957 6232,6957 Z M 5383,6935 L 5383,6684 5626,6544 5626,6264 5868,6124 5868,5843 6232,5633 6232,6935 5383,6935 Z"/>
     <path fill="rgb(199,199,199)" stroke="none" d="M 6232,6935 L 6232,7595 5868,7806 5868,7525 5626,7666 5626,7385 5383,7525 5383,6935 6232,6935 Z M 6232,5652 L 6232,6914 5383,6914 5383,6684 5626,6544 5626,6264 5868,6124 5868,5843 6199,5652 6232,5652 Z"/>
     <path fill="rgb(200,200,200)" stroke="none" d="M 6232,6914 L 6232,7595 5868,7806 5868,7525 5626,7666 5626,7385 5383,7525 5383,6914 6232,6914 Z M 6199,5652 L 6232,5633 6232,5652 6199,5652 Z M 6232,5674 L 6232,6892 5383,6892 5383,6684 5626,6544 5626,6264 5868,6124 5868,5843 6161,5674 6232,5674 Z"/>
     <path fill="rgb(201,201,201)" stroke="none" d="M 6232,6892 L 6232,7595 5868,7806 5868,7525 5626,7666 5626,7385 5383,7525 5383,6892 6232,6892 Z M 6161,5674 L 6232,5633 6232,5674 6161,5674 Z M 6223,5696 L 6223,6870 5383,6870 5383,6684 5626,6544 5626,6264 5868,6124 5868,5843 6123,5696 6223,5696 Z"/>
     <path fill="rgb(202,202,202)" stroke="none" d="M 6223,6870 L 6223,5696 6123,5696 6232,5633 6232,7595 5868,7806 5868,7525 5626,7666 5626,7385 5383,7525 5383,6870 6223,6870 Z M 6201,5718 L 6201,6848 5383,6848 5383,6684 5626,6544 5626,6264 5868,6124 5868,5843 6085,5718 6201,5718 Z"/>
     <path fill="rgb(203,203,203)" stroke="none" d="M 6201,6848 L 6201,5718 6085,5718 6232,5633 6232,7595 5868,7806 5868,7525 5626,7666 5626,7385 5383,7525 5383,6848 6201,6848 Z M 6180,5739 L 6180,6827 5383,6827 5383,6684 5626,6544 5626,6264 5868,6124 5868,5843 6048,5739 6180,5739 Z"/>
     <path fill="rgb(204,204,204)" stroke="none" d="M 6180,6827 L 6180,5739 6048,5739 6232,5633 6232,7595 5868,7806 5868,7525 5626,7666 5626,7385 5383,7525 5383,6827 6180,6827 Z M 6158,5761 L 6158,6805 5383,6805 5383,6684 5626,6544 5626,6264 5868,6124 5868,5843 6010,5761 6158,5761 Z"/>
     <path fill="rgb(205,205,205)" stroke="none" d="M 6158,6805 L 6158,5761 6010,5761 6232,5633 6232,7595 5868,7806 5868,7525 5626,7666 5626,7385 5383,7525 5383,6805 6158,6805 Z M 6136,5783 L 6136,6783 5383,6783 5383,6684 5626,6544 5626,6264 5868,6124 5868,5843 5972,5783 6136,5783 Z"/>
     <path fill="rgb(206,206,206)" stroke="none" d="M 6136,6783 L 6136,5783 5972,5783 6232,5633 6232,7595 5868,7806 5868,7525 5626,7666 5626,7385 5383,7525 5383,6783 6136,6783 Z M 6114,5805 L 6114,6761 5383,6761 5383,6684 5626,6544 5626,6264 5868,6124 5868,5843 5934,5805 6114,5805 Z"/>
     <path fill="rgb(207,207,207)" stroke="none" d="M 6114,6761 L 6114,5805 5934,5805 6232,5633 6232,7595 5868,7806 5868,7525 5626,7666 5626,7385 5383,7525 5383,6761 6114,6761 Z M 6092,5827 L 6092,6739 5383,6739 5383,6684 5626,6544 5626,6264 5868,6124 5868,5843 5896,5827 6092,5827 Z"/>
     <path fill="rgb(208,208,208)" stroke="none" d="M 6092,6739 L 6092,5827 5896,5827 6232,5633 6232,7595 5868,7806 5868,7525 5626,7666 5626,7385 5383,7525 5383,6739 6092,6739 Z M 6071,5848 L 6071,6718 5383,6718 5383,6684 5626,6544 5626,6264 5868,6124 5868,5848 6071,5848 Z"/>
     <path fill="rgb(209,209,209)" stroke="none" d="M 6071,6718 L 6071,5848 5868,5848 5868,5843 6232,5633 6232,7595 5868,7806 5868,7525 5626,7666 5626,7385 5383,7525 5383,6718 6071,6718 Z M 6049,5870 L 6049,6696 5383,6696 5383,6684 5626,6544 5626,6264 5868,6124 5868,5870 6049,5870 Z"/>
     <path fill="rgb(210,210,210)" stroke="none" d="M 6049,6696 L 6049,5870 5868,5870 5868,5843 6232,5633 6232,7595 5868,7806 5868,7525 5626,7666 5626,7385 5383,7525 5383,6696 6049,6696 Z M 6027,5892 L 6027,6674 5400,6674 5626,6544 5626,6264 5868,6124 5868,5892 6027,5892 Z"/>
     <path fill="rgb(211,211,211)" stroke="none" d="M 6027,6674 L 6027,5892 5868,5892 5868,5843 6232,5633 6232,7595 5868,7806 5868,7525 5626,7666 5626,7385 5383,7525 5383,6684 5400,6674 6027,6674 Z M 6005,5914 L 6005,6652 5439,6652 5626,6544 5626,6264 5868,6124 5868,5914 6005,5914 Z"/>
     <path fill="rgb(212,212,212)" stroke="none" d="M 6005,6652 L 6005,5914 5868,5914 5868,5843 6232,5633 6232,7595 5868,7806 5868,7525 5626,7666 5626,7385 5383,7525 5383,6684 5439,6652 6005,6652 Z M 5984,5935 L 5984,6631 5475,6631 5626,6544 5626,6264 5868,6124 5868,5935 5984,5935 Z"/>
     <path fill="rgb(213,213,213)" stroke="none" d="M 5984,6631 L 5984,5935 5868,5935 5868,5843 6232,5633 6232,7595 5868,7806 5868,7525 5626,7666 5626,7385 5383,7525 5383,6684 5475,6631 5984,6631 Z M 5962,5957 L 5962,6609 5513,6609 5626,6544 5626,6264 5868,6124 5868,5957 5962,5957 Z"/>
     <path fill="rgb(214,214,214)" stroke="none" d="M 5962,6609 L 5962,5957 5868,5957 5868,5843 6232,5633 6232,7595 5868,7806 5868,7525 5626,7666 5626,7385 5383,7525 5383,6684 5513,6609 5962,6609 Z M 5940,5979 L 5940,6587 5551,6587 5626,6544 5626,6264 5868,6124 5868,5979 5940,5979 Z"/>
     <path fill="rgb(215,215,215)" stroke="none" d="M 5940,6587 L 5940,5979 5868,5979 5868,5843 6232,5633 6232,7595 5868,7806 5868,7525 5626,7666 5626,7385 5383,7525 5383,6684 5551,6587 5940,6587 Z M 5918,6001 L 5918,6565 5590,6565 5626,6544 5626,6264 5868,6124 5868,6001 5918,6001 Z"/>
     <path fill="rgb(216,216,216)" stroke="none" d="M 5918,6565 L 5918,6001 5868,6001 5868,5843 6232,5633 6232,7595 5868,7806 5868,7525 5626,7666 5626,7385 5383,7525 5383,6684 5590,6565 5918,6565 Z M 5897,6022 L 5897,6544 5626,6544 5626,6264 5868,6124 5868,6022 5897,6022 Z"/>
     <path fill="rgb(217,217,217)" stroke="none" d="M 5897,6544 L 5897,6022 5868,6022 5868,5843 6232,5633 6232,7595 5868,7806 5868,7525 5626,7666 5626,7385 5383,7525 5383,6684 5626,6544 5897,6544 Z M 5875,6044 L 5875,6522 5626,6522 5626,6264 5868,6124 5868,6044 5875,6044 Z"/>
     <path fill="rgb(218,218,218)" stroke="none" d="M 5875,6522 L 5875,6044 5868,6044 5868,5843 6232,5633 6232,7595 5868,7806 5868,7525 5626,7666 5626,7385 5383,7525 5383,6684 5626,6544 5626,6522 5875,6522 Z M 5853,6500 L 5626,6500 5626,6264 5853,6133 5853,6500 Z"/>
     <path fill="rgb(219,219,219)" stroke="none" d="M 5853,6500 L 5853,6133 5868,6124 5868,5843 6232,5633 6232,7595 5868,7806 5868,7525 5626,7666 5626,7385 5383,7525 5383,6684 5626,6544 5626,6500 5853,6500 Z M 5831,6478 L 5626,6478 5626,6264 5831,6145 5831,6478 Z"/>
     <path fill="rgb(220,220,220)" stroke="none" d="M 5831,6478 L 5831,6145 5868,6124 5868,5843 6232,5633 6232,7595 5868,7806 5868,7525 5626,7666 5626,7385 5383,7525 5383,6684 5626,6544 5626,6478 5831,6478 Z M 5810,6457 L 5626,6457 5626,6264 5810,6158 5810,6457 Z"/>
     <path fill="rgb(221,221,221)" stroke="none" d="M 5810,6457 L 5810,6158 5868,6124 5868,5843 6232,5633 6232,7595 5868,7806 5868,7525 5626,7666 5626,7385 5383,7525 5383,6684 5626,6544 5626,6457 5810,6457 Z M 5788,6435 L 5626,6435 5626,6264 5788,6170 5788,6435 Z"/>
     <path fill="rgb(222,222,222)" stroke="none" d="M 5788,6435 L 5788,6170 5868,6124 5868,5843 6232,5633 6232,7595 5868,7806 5868,7525 5626,7666 5626,7385 5383,7525 5383,6684 5626,6544 5626,6435 5788,6435 Z M 5766,6413 L 5626,6413 5626,6264 5766,6183 5766,6413 Z"/>
     <path fill="rgb(223,223,223)" stroke="none" d="M 5766,6413 L 5766,6183 5868,6124 5868,5843 6232,5633 6232,7595 5868,7806 5868,7525 5626,7666 5626,7385 5383,7525 5383,6684 5626,6544 5626,6413 5766,6413 Z M 5744,6391 L 5626,6391 5626,6264 5744,6196 5744,6391 Z"/>
     <path fill="rgb(224,224,224)" stroke="none" d="M 5744,6391 L 5744,6196 5868,6124 5868,5843 6232,5633 6232,7595 5868,7806 5868,7525 5626,7666 5626,7385 5383,7525 5383,6684 5626,6544 5626,6391 5744,6391 Z M 5723,6370 L 5626,6370 5626,6264 5723,6208 5723,6370 Z"/>
     <path fill="rgb(225,225,225)" stroke="none" d="M 5723,6370 L 5723,6208 5868,6124 5868,5843 6232,5633 6232,7595 5868,7806 5868,7525 5626,7666 5626,7385 5383,7525 5383,6684 5626,6544 5626,6370 5723,6370 Z M 5701,6348 L 5626,6348 5626,6264 5701,6221 5701,6348 Z"/>
     <path fill="rgb(226,226,226)" stroke="none" d="M 5701,6348 L 5701,6221 5868,6124 5868,5843 6232,5633 6232,7595 5868,7806 5868,7525 5626,7666 5626,7385 5383,7525 5383,6684 5626,6544 5626,6348 5701,6348 Z M 5679,6240 L 5679,6326 5626,6326 5626,6264 5667,6240 5679,6240 Z"/>
     <path fill="rgb(227,227,227)" stroke="none" d="M 5679,6326 L 5679,6240 5667,6240 5868,6124 5868,5843 6232,5633 6232,7595 5868,7806 5868,7525 5626,7666 5626,7385 5383,7525 5383,6684 5626,6544 5626,6326 5679,6326 Z M 5657,6262 L 5657,6304 5626,6304 5626,6264 5629,6262 5657,6262 Z"/>
     <path fill="rgb(229,229,229)" stroke="none" d="M 5657,6304 L 5657,6262 5629,6262 5868,6124 5868,5843 6232,5633 6232,7595 5868,7806 5868,7525 5626,7666 5626,7385 5383,7525 5383,6684 5626,6544 5626,6304 5657,6304 Z"/>
     <path fill="none" stroke="rgb(255,255,255)" id="Drawing_15_0" stroke-width="40" stroke-linejoin="round" d="M 5868,7525 L 5626,7666 5626,7385 5383,7525 5383,6684 5626,6544 5626,6264 5868,6124 5868,5843 6232,5633 6232,7595 5868,7806 5868,7525 Z"/>
    </g>
    <g>
     <defs>
      <linearGradient id="Gradient_570" gradientUnits="userSpaceOnUse" x1="5018" y1="6999" x2="5384" y2="6999">
       <stop offset="0.1" stop-color="rgb(179,179,179)"/>
       <stop offset="1" stop-color="rgb(229,229,229)"/>
      </linearGradient>
     </defs>
     <path fill="url(#Gradient_570)" stroke="rgb(255,255,255)" id="Drawing_16_0" stroke-width="40" stroke-linejoin="round" d="M 5019,7315 L 5019,6474 5383,6684 5383,7525 5019,7315 Z"/>
    </g>
    <g>
     <defs>
      <linearGradient id="Gradient_571" gradientUnits="userSpaceOnUse" x1="5138" y1="7000" x2="5261" y2="7000">
       <stop offset="0.1" stop-color="rgb(147,212,240)"/>
       <stop offset="1" stop-color="rgb(233,246,252)"/>
      </linearGradient>
     </defs>
     <path fill="url(#Gradient_571)" stroke="rgb(127,127,127)" id="Drawing_17_0" stroke-width="40" stroke-linejoin="round" d="M 5140,7246 L 5140,6685 5261,6755 5261,7316 5140,7246 Z"/>
    </g>
    <g>
     <path fill="none" stroke="rgb(0,0,0)" id="Drawing_18_0" stroke-width="40" stroke-linejoin="round" d="M 5019,7315 L 5019,6474 5262,6334 5262,6054 5504,5914 5504,5633 5868,5423 6232,5633 6232,7596 5868,7806 5019,7315 Z"/>
    </g>
   </g>
  </g>
 </g>
</svg>