<?xml version="1.0" encoding="UTF-8"?>

<svg version="1.2" baseProfile="tiny" width="40.51mm" height="45.2mm" viewBox="9834 8701 4051 4520" preserveAspectRatio="xMidYMid" fill-rule="evenodd" stroke-width="28.222" stroke-linejoin="round" xmlns="http://www.w3.org/2000/svg" xmlns:xlink="http://www.w3.org/1999/xlink" xml:space="preserve">
 <g visibility="visible" id="Slide_1">
  <g id="DrawingGroup_1">
   <g>
    <path fill="rgb(221,221,221)" stroke="none" d="M 12038,12921 C 12513,12921 13736,12431 13857,12221 13978,12011 13666,11731 13493,11731 13493,12031 12038,12520 12038,12921 Z"/>
    <path fill="none" stroke="rgb(221,221,221)" id="Drawing_1_0" stroke-linejoin="round" d="M 12038,12921 C 12513,12921 13736,12431 13857,12221 13978,12011 13666,11731 13493,11731 13493,12031 12038,12520 12038,12921 Z"/>
   </g>
   <g id="DrawingGroup_2">
    <g>
     <path fill="rgb(51,51,51)" stroke="none" d="M 11797,12331 L 11797,10751 13493,9771 13493,12011 12939,12331 11797,12331 Z"/>
     <path fill="rgb(52,52,52)" stroke="none" d="M 12939,12331 L 11797,12991 11797,12331 12939,12331 Z M 11797,12315 L 11797,10751 13493,9771 13493,12011 12967,12315 11797,12315 Z"/>
     <path fill="rgb(53,53,53)" stroke="none" d="M 12967,12315 L 11797,12991 11797,12315 12967,12315 Z M 11797,12299 L 11797,10751 13493,9771 13493,12011 12995,12299 11797,12299 Z"/>
     <path fill="rgb(54,54,54)" stroke="none" d="M 12995,12299 L 11797,12991 11797,12299 12995,12299 Z M 11797,12283 L 11797,10751 13493,9771 13493,12011 13022,12283 11797,12283 Z"/>
     <path fill="rgb(55,55,55)" stroke="none" d="M 13022,12283 L 11797,12991 11797,12283 13022,12283 Z M 11797,12268 L 11797,10751 13493,9771 13493,12011 13048,12268 11797,12268 Z"/>
     <path fill="rgb(56,56,56)" stroke="none" d="M 13048,12268 L 11797,12991 11797,12268 13048,12268 Z M 11797,12252 L 11797,10751 13493,9771 13493,12011 13076,12252 11797,12252 Z"/>
     <path fill="rgb(57,57,57)" stroke="none" d="M 13076,12252 L 11797,12991 11797,12252 13076,12252 Z M 11797,12236 L 11797,10751 13493,9771 13493,12011 13104,12236 11797,12236 Z"/>
     <path fill="rgb(58,58,58)" stroke="none" d="M 13104,12236 L 11797,12991 11797,12236 13104,12236 Z M 11797,12220 L 11797,10751 13493,9771 13493,12011 13131,12220 11797,12220 Z"/>
     <path fill="rgb(59,59,59)" stroke="none" d="M 13131,12220 L 11797,12991 11797,12220 13131,12220 Z M 11797,12204 L 11797,10751 13493,9771 13493,12011 13159,12204 11797,12204 Z"/>
     <path fill="rgb(60,60,60)" stroke="none" d="M 13159,12204 L 11797,12991 11797,12204 13159,12204 Z M 11797,12189 L 11797,10751 13493,9771 13493,12011 13185,12189 11797,12189 Z"/>
     <path fill="rgb(61,61,61)" stroke="none" d="M 13185,12189 L 11797,12991 11797,12189 13185,12189 Z M 11797,12173 L 11797,10751 13493,9771 13493,12011 13213,12173 11797,12173 Z"/>
     <path fill="rgb(62,62,62)" stroke="none" d="M 13213,12173 L 11797,12991 11797,12173 13213,12173 Z M 11797,12157 L 11797,10751 13493,9771 13493,12011 13240,12157 11797,12157 Z"/>
     <path fill="rgb(63,63,63)" stroke="none" d="M 13240,12157 L 11797,12991 11797,12157 13240,12157 Z M 11797,12141 L 11797,10751 13493,9771 13493,12011 13268,12141 11797,12141 Z"/>
     <path fill="rgb(64,64,64)" stroke="none" d="M 13268,12141 L 11797,12991 11797,12141 13268,12141 Z M 11797,12125 L 11797,10751 13493,9771 13493,12011 13296,12125 11797,12125 Z"/>
     <path fill="rgb(65,65,65)" stroke="none" d="M 13296,12125 L 11797,12991 11797,12125 13296,12125 Z M 11797,12110 L 11797,10751 13493,9771 13493,12011 13322,12110 11797,12110 Z"/>
     <path fill="rgb(66,66,66)" stroke="none" d="M 13322,12110 L 11797,12991 11797,12110 13322,12110 Z M 11797,12094 L 11797,10751 13493,9771 13493,12011 13349,12094 11797,12094 Z"/>
     <path fill="rgb(67,67,67)" stroke="none" d="M 13349,12094 L 11797,12991 11797,12094 13349,12094 Z M 11797,12078 L 11797,10751 13493,9771 13493,12011 13377,12078 11797,12078 Z"/>
     <path fill="rgb(68,68,68)" stroke="none" d="M 13377,12078 L 11797,12991 11797,12078 13377,12078 Z M 11797,12062 L 11797,10751 13493,9771 13493,12011 13405,12062 11797,12062 Z"/>
     <path fill="rgb(69,69,69)" stroke="none" d="M 13405,12062 L 11797,12991 11797,12062 13405,12062 Z M 11797,12046 L 11797,10751 13493,9771 13493,12011 13432,12046 11797,12046 Z"/>
     <path fill="rgb(70,70,70)" stroke="none" d="M 13432,12046 L 11797,12991 11797,12046 13432,12046 Z M 11797,12031 L 11797,10751 13493,9771 13493,12011 13458,12031 11797,12031 Z"/>
     <path fill="rgb(71,71,71)" stroke="none" d="M 13458,12031 L 11797,12991 11797,12031 13458,12031 Z M 11797,12015 L 11797,10751 13493,9771 13493,12011 13486,12015 11797,12015 Z"/>
     <path fill="rgb(72,72,72)" stroke="none" d="M 13486,12015 L 11797,12991 11797,12015 13486,12015 Z M 11797,11999 L 11797,10751 13493,9771 13493,11999 11797,11999 Z"/>
     <path fill="rgb(73,73,73)" stroke="none" d="M 13493,11999 L 13493,12011 11797,12991 11797,11999 13493,11999 Z M 11797,11983 L 11797,10751 13493,9771 13493,11983 11797,11983 Z"/>
     <path fill="rgb(74,74,74)" stroke="none" d="M 13493,11983 L 13493,12011 11797,12991 11797,11983 13493,11983 Z M 11797,11967 L 11797,10751 13493,9771 13493,11967 11797,11967 Z"/>
     <path fill="rgb(75,75,75)" stroke="none" d="M 13493,11967 L 13493,12011 11797,12991 11797,11967 13493,11967 Z M 11797,11952 L 11797,10751 13493,9771 13493,11952 11797,11952 Z"/>
     <path fill="rgb(76,76,76)" stroke="none" d="M 13493,11952 L 13493,12011 11797,12991 11797,11952 13493,11952 Z M 11797,11936 L 11797,10751 13493,9771 13493,11936 11797,11936 Z"/>
     <path fill="rgb(77,77,77)" stroke="none" d="M 13493,11936 L 13493,12011 11797,12991 11797,11936 13493,11936 Z M 13489,11920 L 11797,11920 11797,10751 13489,9773 13489,11920 Z"/>
     <path fill="rgb(78,78,78)" stroke="none" d="M 13489,11920 L 13489,9773 13493,9771 13493,12011 11797,12991 11797,11920 13489,11920 Z M 13473,11904 L 11797,11904 11797,10751 13473,9783 13473,11904 Z"/>
     <path fill="rgb(79,79,79)" stroke="none" d="M 13473,11904 L 13473,9783 13493,9771 13493,12011 11797,12991 11797,11904 13473,11904 Z M 13457,11888 L 11797,11888 11797,10751 13457,9792 13457,11888 Z"/>
     <path fill="rgb(80,80,80)" stroke="none" d="M 13457,11888 L 13457,9792 13493,9771 13493,12011 11797,12991 11797,11888 13457,11888 Z M 13442,11873 L 11797,11873 11797,10751 13442,9800 13442,11873 Z"/>
     <path fill="rgb(81,81,81)" stroke="none" d="M 13442,11873 L 13442,9800 13493,9771 13493,12011 11797,12991 11797,11873 13442,11873 Z M 13426,11857 L 11797,11857 11797,10751 13426,9810 13426,11857 Z"/>
     <path fill="rgb(82,82,82)" stroke="none" d="M 13426,11857 L 13426,9810 13493,9771 13493,12011 11797,12991 11797,11857 13426,11857 Z M 13410,11841 L 11797,11841 11797,10751 13410,9819 13410,11841 Z"/>
     <path fill="rgb(83,83,83)" stroke="none" d="M 13410,11841 L 13410,9819 13493,9771 13493,12011 11797,12991 11797,11841 13410,11841 Z M 13394,11825 L 11797,11825 11797,10751 13394,9828 13394,11825 Z"/>
     <path fill="rgb(84,84,84)" stroke="none" d="M 13394,11825 L 13394,9828 13493,9771 13493,12011 11797,12991 11797,11825 13394,11825 Z M 13378,11809 L 11797,11809 11797,10751 13378,9837 13378,11809 Z"/>
     <path fill="rgb(85,85,85)" stroke="none" d="M 13378,11809 L 13378,9837 13493,9771 13493,12011 11797,12991 11797,11809 13378,11809 Z M 13363,11794 L 11797,11794 11797,10751 13363,9846 13363,11794 Z"/>
     <path fill="rgb(86,86,86)" stroke="none" d="M 13363,11794 L 13363,9846 13493,9771 13493,12011 11797,12991 11797,11794 13363,11794 Z M 13347,11778 L 11797,11778 11797,10751 13347,9855 13347,11778 Z"/>
     <path fill="rgb(87,87,87)" stroke="none" d="M 13347,11778 L 13347,9855 13493,9771 13493,12011 11797,12991 11797,11778 13347,11778 Z M 13331,11762 L 11797,11762 11797,10751 13331,9865 13331,11762 Z"/>
     <path fill="rgb(88,88,88)" stroke="none" d="M 13331,11762 L 13331,9865 13493,9771 13493,12011 11797,12991 11797,11762 13331,11762 Z M 13315,11746 L 11797,11746 11797,10751 13315,9874 13315,11746 Z"/>
     <path fill="rgb(89,89,89)" stroke="none" d="M 13315,11746 L 13315,9874 13493,9771 13493,12011 11797,12991 11797,11746 13315,11746 Z M 13299,11730 L 11797,11730 11797,10751 13299,9883 13299,11730 Z"/>
     <path fill="rgb(90,90,90)" stroke="none" d="M 13299,11730 L 13299,9883 13493,9771 13493,12011 11797,12991 11797,11730 13299,11730 Z M 13284,11715 L 11797,11715 11797,10751 13284,9892 13284,11715 Z"/>
     <path fill="rgb(91,91,91)" stroke="none" d="M 13284,11715 L 13284,9892 13493,9771 13493,12011 11797,12991 11797,11715 13284,11715 Z M 13268,11699 L 11797,11699 11797,10751 13268,9901 13268,11699 Z"/>
     <path fill="rgb(92,92,92)" stroke="none" d="M 13268,11699 L 13268,9901 13493,9771 13493,12011 11797,12991 11797,11699 13268,11699 Z M 13252,11683 L 11797,11683 11797,10751 13252,9910 13252,11683 Z"/>
     <path fill="rgb(93,93,93)" stroke="none" d="M 13252,11683 L 13252,9910 13493,9771 13493,12011 11797,12991 11797,11683 13252,11683 Z M 13236,11667 L 11797,11667 11797,10751 13236,9920 13236,11667 Z"/>
     <path fill="rgb(94,94,94)" stroke="none" d="M 13236,11667 L 13236,9920 13493,9771 13493,12011 11797,12991 11797,11667 13236,11667 Z M 13220,11651 L 11797,11651 11797,10751 13220,9929 13220,11651 Z"/>
     <path fill="rgb(95,95,95)" stroke="none" d="M 13220,11651 L 13220,9929 13493,9771 13493,12011 11797,12991 11797,11651 13220,11651 Z M 13205,11636 L 11797,11636 11797,10751 13205,9937 13205,11636 Z"/>
     <path fill="rgb(96,96,96)" stroke="none" d="M 13205,11636 L 13205,9937 13493,9771 13493,12011 11797,12991 11797,11636 13205,11636 Z M 13189,11620 L 11797,11620 11797,10751 13189,9947 13189,11620 Z"/>
     <path fill="rgb(97,97,97)" stroke="none" d="M 13189,11620 L 13189,9947 13493,9771 13493,12011 11797,12991 11797,11620 13189,11620 Z M 13173,11604 L 11797,11604 11797,10751 13173,9956 13173,11604 Z"/>
     <path fill="rgb(98,98,98)" stroke="none" d="M 13173,11604 L 13173,9956 13493,9771 13493,12011 11797,12991 11797,11604 13173,11604 Z M 13157,11588 L 11797,11588 11797,10751 13157,9965 13157,11588 Z"/>
     <path fill="rgb(99,99,99)" stroke="none" d="M 13157,11588 L 13157,9965 13493,9771 13493,12011 11797,12991 11797,11588 13157,11588 Z M 13141,11572 L 11797,11572 11797,10751 13141,9974 13141,11572 Z"/>
     <path fill="rgb(100,100,100)" stroke="none" d="M 13141,11572 L 13141,9974 13493,9771 13493,12011 11797,12991 11797,11572 13141,11572 Z M 13126,11557 L 11797,11557 11797,10751 13126,9983 13126,11557 Z"/>
     <path fill="rgb(101,101,101)" stroke="none" d="M 13126,11557 L 13126,9983 13493,9771 13493,12011 11797,12991 11797,11557 13126,11557 Z M 13110,11541 L 11797,11541 11797,10751 13110,9992 13110,11541 Z"/>
     <path fill="rgb(102,102,102)" stroke="none" d="M 13110,11541 L 13110,9992 13493,9771 13493,12011 11797,12991 11797,11541 13110,11541 Z M 13094,11525 L 11797,11525 11797,10751 13094,10002 13094,11525 Z"/>
     <path fill="rgb(103,103,103)" stroke="none" d="M 13094,11525 L 13094,10002 13493,9771 13493,12011 11797,12991 11797,11525 13094,11525 Z M 13078,11509 L 11797,11509 11797,10751 13078,10011 13078,11509 Z"/>
     <path fill="rgb(104,104,104)" stroke="none" d="M 13078,11509 L 13078,10011 13493,9771 13493,12011 11797,12991 11797,11509 13078,11509 Z M 13062,11493 L 11797,11493 11797,10751 13062,10020 13062,11493 Z"/>
     <path fill="rgb(105,105,105)" stroke="none" d="M 13062,11493 L 13062,10020 13493,9771 13493,12011 11797,12991 11797,11493 13062,11493 Z M 13047,11478 L 11797,11478 11797,10751 13047,10029 13047,11478 Z"/>
     <path fill="rgb(106,106,106)" stroke="none" d="M 13047,11478 L 13047,10029 13493,9771 13493,12011 11797,12991 11797,11478 13047,11478 Z M 13031,11462 L 11797,11462 11797,10751 13031,10038 13031,11462 Z"/>
     <path fill="rgb(107,107,107)" stroke="none" d="M 13031,11462 L 13031,10038 13493,9771 13493,12011 11797,12991 11797,11462 13031,11462 Z M 13015,11446 L 11797,11446 11797,10751 13015,10047 13015,11446 Z"/>
     <path fill="rgb(108,108,108)" stroke="none" d="M 13015,11446 L 13015,10047 13493,9771 13493,12011 11797,12991 11797,11446 13015,11446 Z M 12999,11430 L 11797,11430 11797,10751 12999,10056 12999,11430 Z"/>
     <path fill="rgb(109,109,109)" stroke="none" d="M 12999,11430 L 12999,10056 13493,9771 13493,12011 11797,12991 11797,11430 12999,11430 Z M 12983,11414 L 11797,11414 11797,10751 12983,10066 12983,11414 Z"/>
     <path fill="rgb(110,110,110)" stroke="none" d="M 12983,11414 L 12983,10066 13493,9771 13493,12011 11797,12991 11797,11414 12983,11414 Z M 12968,11399 L 11797,11399 11797,10751 12968,10074 12968,11399 Z"/>
     <path fill="rgb(111,111,111)" stroke="none" d="M 12968,11399 L 12968,10074 13493,9771 13493,12011 11797,12991 11797,11399 12968,11399 Z M 12952,10088 L 12952,11383 11797,11383 11797,10751 12944,10088 12952,10088 Z"/>
     <path fill="rgb(112,112,112)" stroke="none" d="M 12952,11383 L 12952,10088 12944,10088 13493,9771 13493,12011 11797,12991 11797,11383 12952,11383 Z M 12936,10104 L 12936,11367 11797,11367 11797,10751 12917,10104 12936,10104 Z"/>
     <path fill="rgb(113,113,113)" stroke="none" d="M 12936,11367 L 12936,10104 12917,10104 13493,9771 13493,12011 11797,12991 11797,11367 12936,11367 Z M 12920,10120 L 12920,11351 11797,11351 11797,10751 12889,10120 12920,10120 Z"/>
     <path fill="rgb(114,114,114)" stroke="none" d="M 12920,11351 L 12920,10120 12889,10120 13493,9771 13493,12011 11797,12991 11797,11351 12920,11351 Z M 12904,10136 L 12904,11335 11797,11335 11797,10751 12861,10136 12904,10136 Z"/>
     <path fill="rgb(115,115,115)" stroke="none" d="M 12904,11335 L 12904,10136 12861,10136 13493,9771 13493,12011 11797,12991 11797,11335 12904,11335 Z M 12889,10151 L 12889,11320 11797,11320 11797,10751 12835,10151 12889,10151 Z"/>
     <path fill="rgb(116,116,116)" stroke="none" d="M 12889,11320 L 12889,10151 12835,10151 13493,9771 13493,12011 11797,12991 11797,11320 12889,11320 Z M 12873,10167 L 12873,11304 11797,11304 11797,10751 12808,10167 12873,10167 Z"/>
     <path fill="rgb(117,117,117)" stroke="none" d="M 12873,11304 L 12873,10167 12808,10167 13493,9771 13493,12011 11797,12991 11797,11304 12873,11304 Z M 12857,10183 L 12857,11288 11797,11288 11797,10751 12780,10183 12857,10183 Z"/>
     <path fill="rgb(118,118,118)" stroke="none" d="M 12857,11288 L 12857,10183 12780,10183 13493,9771 13493,12011 11797,12991 11797,11288 12857,11288 Z M 12841,10199 L 12841,11272 11797,11272 11797,10751 12752,10199 12841,10199 Z"/>
     <path fill="rgb(119,119,119)" stroke="none" d="M 12841,11272 L 12841,10199 12752,10199 13493,9771 13493,12011 11797,12991 11797,11272 12841,11272 Z M 12825,10215 L 12825,11256 11797,11256 11797,10751 12725,10215 12825,10215 Z"/>
     <path fill="rgb(120,120,120)" stroke="none" d="M 12825,11256 L 12825,10215 12725,10215 13493,9771 13493,12011 11797,12991 11797,11256 12825,11256 Z M 12810,10230 L 12810,11241 11799,11241 11799,10750 12699,10230 12810,10230 Z"/>
     <path fill="rgb(121,121,121)" stroke="none" d="M 11799,11241 L 12810,11241 12810,10230 12699,10230 13493,9771 13493,12011 11797,12991 11797,10751 11799,10750 11799,11241 Z M 12794,10246 L 12794,11225 11815,11225 11815,10741 12671,10246 12794,10246 Z"/>
     <path fill="rgb(122,122,122)" stroke="none" d="M 11815,11225 L 12794,11225 12794,10246 12671,10246 13493,9771 13493,12011 11797,12991 11797,10751 11815,10741 11815,11225 Z M 12778,10262 L 12778,11209 11831,11209 11831,10731 12643,10262 12778,10262 Z"/>
     <path fill="rgb(123,123,123)" stroke="none" d="M 11831,11209 L 12778,11209 12778,10262 12643,10262 13493,9771 13493,12011 11797,12991 11797,10751 11831,10731 11831,11209 Z M 12762,10278 L 12762,11193 11847,11193 11847,10722 12616,10278 12762,10278 Z"/>
     <path fill="rgb(124,124,124)" stroke="none" d="M 11847,11193 L 12762,11193 12762,10278 12616,10278 13493,9771 13493,12011 11797,12991 11797,10751 11847,10722 11847,11193 Z M 12746,10294 L 12746,11177 11863,11177 11863,10713 12588,10294 12746,10294 Z"/>
     <path fill="rgb(125,125,125)" stroke="none" d="M 11863,11177 L 12746,11177 12746,10294 12588,10294 13493,9771 13493,12011 11797,12991 11797,10751 11863,10713 11863,11177 Z M 12731,10309 L 12731,11162 11878,11162 11878,10704 12562,10309 12731,10309 Z"/>
     <path fill="rgb(126,126,126)" stroke="none" d="M 11878,11162 L 12731,11162 12731,10309 12562,10309 13493,9771 13493,12011 11797,12991 11797,10751 11878,10704 11878,11162 Z M 12715,10325 L 12715,11146 11894,11146 11894,10695 12534,10325 12715,10325 Z"/>
     <path fill="rgb(127,127,127)" stroke="none" d="M 11894,11146 L 12715,11146 12715,10325 12534,10325 13493,9771 13493,12011 11797,12991 11797,10751 11894,10695 11894,11146 Z M 12699,10341 L 12699,11130 11910,11130 11910,10686 12507,10341 12699,10341 Z"/>
     <path fill="rgb(128,128,128)" stroke="none" d="M 11910,11130 L 12699,11130 12699,10341 12507,10341 13493,9771 13493,12011 11797,12991 11797,10751 11910,10686 11910,11130 Z M 12683,10357 L 12683,11114 11926,11114 11926,10676 12479,10357 12683,10357 Z"/>
     <path fill="rgb(129,129,129)" stroke="none" d="M 11926,11114 L 12683,11114 12683,10357 12479,10357 13493,9771 13493,12011 11797,12991 11797,10751 11926,10676 11926,11114 Z M 12667,10373 L 12667,11098 11942,11098 11942,10667 12451,10373 12667,10373 Z"/>
     <path fill="rgb(130,130,130)" stroke="none" d="M 11942,11098 L 12667,11098 12667,10373 12451,10373 13493,9771 13493,12011 11797,12991 11797,10751 11942,10667 11942,11098 Z M 12652,10388 L 12652,11083 11957,11083 11957,10659 12425,10388 12652,10388 Z"/>
     <path fill="rgb(131,131,131)" stroke="none" d="M 11957,11083 L 12652,11083 12652,10388 12425,10388 13493,9771 13493,12011 11797,12991 11797,10751 11957,10659 11957,11083 Z M 12636,10404 L 12636,11067 11973,11067 11973,10649 12398,10404 12636,10404 Z"/>
     <path fill="rgb(132,132,132)" stroke="none" d="M 11973,11067 L 12636,11067 12636,10404 12398,10404 13493,9771 13493,12011 11797,12991 11797,10751 11973,10649 11973,11067 Z M 12620,10420 L 12620,11051 11989,11051 11989,10640 12370,10420 12620,10420 Z"/>
     <path fill="rgb(133,133,133)" stroke="none" d="M 11989,11051 L 12620,11051 12620,10420 12370,10420 13493,9771 13493,12011 11797,12991 11797,10751 11989,10640 11989,11051 Z M 12604,10436 L 12604,11035 12005,11035 12005,10631 12342,10436 12604,10436 Z"/>
     <path fill="rgb(134,134,134)" stroke="none" d="M 12005,11035 L 12604,11035 12604,10436 12342,10436 13493,9771 13493,12011 11797,12991 11797,10751 12005,10631 12005,11035 Z M 12588,10452 L 12588,11019 12021,11019 12021,10622 12314,10452 12588,10452 Z"/>
     <path fill="rgb(135,135,135)" stroke="none" d="M 12021,11019 L 12588,11019 12588,10452 12314,10452 13493,9771 13493,12011 11797,12991 11797,10751 12021,10622 12021,11019 Z M 12573,10467 L 12573,11004 12036,11004 12036,10613 12288,10467 12573,10467 Z"/>
     <path fill="rgb(136,136,136)" stroke="none" d="M 12036,11004 L 12573,11004 12573,10467 12288,10467 13493,9771 13493,12011 11797,12991 11797,10751 12036,10613 12036,11004 Z M 12557,10483 L 12557,10988 12052,10988 12052,10604 12261,10483 12557,10483 Z"/>
     <path fill="rgb(137,137,137)" stroke="none" d="M 12052,10988 L 12557,10988 12557,10483 12261,10483 13493,9771 13493,12011 11797,12991 11797,10751 12052,10604 12052,10988 Z M 12541,10499 L 12541,10972 12068,10972 12068,10594 12233,10499 12541,10499 Z"/>
     <path fill="rgb(138,138,138)" stroke="none" d="M 12068,10972 L 12541,10972 12541,10499 12233,10499 13493,9771 13493,12011 11797,12991 11797,10751 12068,10594 12068,10972 Z M 12525,10515 L 12525,10956 12084,10956 12084,10585 12205,10515 12525,10515 Z"/>
     <path fill="rgb(139,139,139)" stroke="none" d="M 12084,10956 L 12525,10956 12525,10515 12205,10515 13493,9771 13493,12011 11797,12991 11797,10751 12084,10585 12084,10956 Z M 12509,10531 L 12509,10940 12100,10940 12100,10576 12178,10531 12509,10531 Z"/>
     <path fill="rgb(140,140,140)" stroke="none" d="M 12100,10940 L 12509,10940 12509,10531 12178,10531 13493,9771 13493,12011 11797,12991 11797,10751 12100,10576 12100,10940 Z M 12494,10546 L 12494,10925 12115,10925 12115,10567 12152,10546 12494,10546 Z"/>
     <path fill="rgb(141,141,141)" stroke="none" d="M 12115,10925 L 12494,10925 12494,10546 12152,10546 13493,9771 13493,12011 11797,12991 11797,10751 12115,10567 12115,10925 Z M 12131,10562 L 12478,10562 12478,10909 12131,10909 12131,10562 Z"/>
     <path fill="rgb(142,142,142)" stroke="none" d="M 12131,10562 L 12131,10909 12478,10909 12478,10562 12131,10562 Z M 12147,10578 L 12462,10578 12462,10893 12147,10893 12147,10578 Z M 11797,12991 L 11797,10751 13493,9771 13493,12011 11797,12991 Z"/>
     <path fill="rgb(143,143,143)" stroke="none" d="M 12147,10578 L 12147,10893 12462,10893 12462,10578 12147,10578 Z M 12163,10594 L 12446,10594 12446,10877 12163,10877 12163,10594 Z M 11797,12991 L 11797,10751 13493,9771 13493,12011 11797,12991 Z"/>
     <path fill="rgb(144,144,144)" stroke="none" d="M 12163,10594 L 12163,10877 12446,10877 12446,10594 12163,10594 Z M 12179,10610 L 12430,10610 12430,10861 12179,10861 12179,10610 Z M 11797,12991 L 11797,10751 13493,9771 13493,12011 11797,12991 Z"/>
     <path fill="rgb(145,145,145)" stroke="none" d="M 12179,10610 L 12179,10861 12430,10861 12430,10610 12179,10610 Z M 12194,10625 L 12415,10625 12415,10846 12194,10846 12194,10625 Z M 11797,12991 L 11797,10751 13493,9771 13493,12011 11797,12991 Z"/>
     <path fill="rgb(146,146,146)" stroke="none" d="M 12194,10625 L 12194,10846 12415,10846 12415,10625 12194,10625 Z M 12210,10641 L 12399,10641 12399,10830 12210,10830 12210,10641 Z M 11797,12991 L 11797,10751 13493,9771 13493,12011 11797,12991 Z"/>
     <path fill="rgb(147,147,147)" stroke="none" d="M 12210,10641 L 12210,10830 12399,10830 12399,10641 12210,10641 Z M 12226,10657 L 12383,10657 12383,10814 12226,10814 12226,10657 Z M 11797,12991 L 11797,10751 13493,9771 13493,12011 11797,12991 Z"/>
     <path fill="rgb(148,148,148)" stroke="none" d="M 12226,10657 L 12226,10814 12383,10814 12383,10657 12226,10657 Z M 12242,10673 L 12367,10673 12367,10798 12242,10798 12242,10673 Z M 11797,12991 L 11797,10751 13493,9771 13493,12011 11797,12991 Z"/>
     <path fill="rgb(149,149,149)" stroke="none" d="M 12242,10673 L 12242,10798 12367,10798 12367,10673 12242,10673 Z M 12258,10689 L 12351,10689 12351,10782 12258,10782 12258,10689 Z M 11797,12991 L 11797,10751 13493,9771 13493,12011 11797,12991 Z"/>
     <path fill="rgb(150,150,150)" stroke="none" d="M 12258,10689 L 12258,10782 12351,10782 12351,10689 12258,10689 Z M 12273,10704 L 12336,10704 12336,10767 12273,10767 12273,10704 Z M 11797,12991 L 11797,10751 13493,9771 13493,12011 11797,12991 Z"/>
     <path fill="rgb(151,151,151)" stroke="none" d="M 12273,10704 L 12273,10767 12336,10767 12336,10704 12273,10704 Z M 12289,10720 L 12320,10720 12320,10751 12289,10751 12289,10720 Z M 11797,12991 L 11797,10751 13493,9771 13493,12011 11797,12991 Z"/>
     <path fill="rgb(153,153,153)" stroke="none" d="M 12289,10720 L 12289,10751 12320,10751 12320,10720 12289,10720 Z M 11797,12991 L 11797,10751 13493,9771 13493,12011 11797,12991 Z"/>
     <path fill="none" stroke="rgb(178,178,178)" id="Drawing_2_0" stroke-width="40" stroke-linejoin="round" d="M 11797,12991 L 11797,10751 13493,9771 13493,12011 11797,12991 Z"/>
    </g>
    <g>
     <defs>
      <linearGradient id="Gradient_371" gradientUnits="userSpaceOnUse" x1="11735" y1="8721" x2="11735" y2="10751">
       <stop offset="0.1" stop-color="rgb(51,51,51)"/>
       <stop offset="1" stop-color="rgb(153,153,153)"/>
      </linearGradient>
     </defs>
     <path fill="url(#Gradient_371)" stroke="rgb(178,178,178)" id="Drawing_3_0" stroke-width="40" stroke-linejoin="round" d="M 11795,10751 L 9977,9701 11676,8721 13493,9771 11795,10751 Z"/>
    </g>
    <g>
     <path fill="rgb(51,51,51)" stroke="none" d="M 11918,12670 L 11917,10681 12038,10611 12039,12670 11918,12670 Z"/>
     <path fill="rgb(52,52,52)" stroke="none" d="M 12039,12670 L 12039,13131 11918,13201 11918,12670 12039,12670 Z M 11918,12657 L 11917,10681 12038,10611 12039,12657 11918,12657 Z"/>
     <path fill="rgb(53,53,53)" stroke="none" d="M 12039,12657 L 12039,13131 11918,13201 11918,12657 12039,12657 Z M 11918,12644 L 11917,10681 12038,10611 12039,12644 11918,12644 Z"/>
     <path fill="rgb(54,54,54)" stroke="none" d="M 12039,12644 L 12039,13131 11918,13201 11918,12644 12039,12644 Z M 11918,12632 L 11917,10681 12038,10611 12039,12632 11918,12632 Z"/>
     <path fill="rgb(55,55,55)" stroke="none" d="M 12039,12632 L 12039,13131 11918,13201 11918,12632 12039,12632 Z M 11918,12619 L 11917,10681 12038,10611 12039,12619 11918,12619 Z"/>
     <path fill="rgb(56,56,56)" stroke="none" d="M 12039,12619 L 12039,13131 11918,13201 11918,12619 12039,12619 Z M 11918,12606 L 11917,10681 12038,10611 12039,12606 11918,12606 Z"/>
     <path fill="rgb(57,57,57)" stroke="none" d="M 12039,12606 L 12039,13131 11918,13201 11918,12606 12039,12606 Z M 11918,12594 L 11917,10681 12038,10611 12039,12594 11918,12594 Z"/>
     <path fill="rgb(58,58,58)" stroke="none" d="M 12039,12594 L 12039,13131 11918,13201 11918,12594 12039,12594 Z M 11918,12581 L 11917,10681 12038,10611 12039,12581 11918,12581 Z"/>
     <path fill="rgb(59,59,59)" stroke="none" d="M 12039,12581 L 12039,13131 11918,13201 11918,12581 12039,12581 Z M 11918,12568 L 11917,10681 12038,10611 12039,12568 11918,12568 Z"/>
     <path fill="rgb(60,60,60)" stroke="none" d="M 12039,12568 L 12039,13131 11918,13201 11918,12568 12039,12568 Z M 11918,12555 L 11917,10681 12038,10611 12039,12555 11918,12555 Z"/>
     <path fill="rgb(61,61,61)" stroke="none" d="M 12039,12555 L 12039,13131 11918,13201 11918,12555 12039,12555 Z M 11918,12543 L 11917,10681 12038,10611 12039,12543 11918,12543 Z"/>
     <path fill="rgb(62,62,62)" stroke="none" d="M 12039,12543 L 12039,13131 11918,13201 11918,12543 12039,12543 Z M 11918,12530 L 11917,10681 12038,10611 12039,12530 11918,12530 Z"/>
     <path fill="rgb(63,63,63)" stroke="none" d="M 12039,12530 L 12039,13131 11918,13201 11918,12530 12039,12530 Z M 11918,12517 L 11917,10681 12038,10611 12039,12517 11918,12517 Z"/>
     <path fill="rgb(64,64,64)" stroke="none" d="M 12039,12517 L 12039,13131 11918,13201 11918,12517 12039,12517 Z M 11918,12505 L 11917,10681 12038,10611 12039,12505 11918,12505 Z"/>
     <path fill="rgb(65,65,65)" stroke="none" d="M 12039,12505 L 12039,13131 11918,13201 11918,12505 12039,12505 Z M 11918,12492 L 11917,10681 12038,10611 12039,12492 11918,12492 Z"/>
     <path fill="rgb(66,66,66)" stroke="none" d="M 12039,12492 L 12039,13131 11918,13201 11918,12492 12039,12492 Z M 11918,12479 L 11917,10681 12038,10611 12039,12479 11918,12479 Z"/>
     <path fill="rgb(67,67,67)" stroke="none" d="M 12039,12479 L 12039,13131 11918,13201 11918,12479 12039,12479 Z M 11918,12466 L 11917,10681 12038,10611 12039,12466 11918,12466 Z"/>
     <path fill="rgb(68,68,68)" stroke="none" d="M 12039,12466 L 12039,13131 11918,13201 11918,12466 12039,12466 Z M 11918,12454 L 11917,10681 12038,10611 12039,12454 11918,12454 Z"/>
     <path fill="rgb(69,69,69)" stroke="none" d="M 12039,12454 L 12039,13131 11918,13201 11918,12454 12039,12454 Z M 11918,12441 L 11917,10681 12038,10611 12039,12441 11918,12441 Z"/>
     <path fill="rgb(70,70,70)" stroke="none" d="M 12039,12441 L 12039,13131 11918,13201 11918,12441 12039,12441 Z M 11918,12428 L 11917,10681 12038,10611 12039,12428 11918,12428 Z"/>
     <path fill="rgb(71,71,71)" stroke="none" d="M 12039,12428 L 12039,13131 11918,13201 11918,12428 12039,12428 Z M 11918,12416 L 11917,10681 12038,10611 12039,12416 11918,12416 Z"/>
     <path fill="rgb(72,72,72)" stroke="none" d="M 12039,12416 L 12039,13131 11918,13201 11918,12416 12039,12416 Z M 11918,12403 L 11917,10681 12038,10611 12039,12403 11918,12403 Z"/>
     <path fill="rgb(73,73,73)" stroke="none" d="M 12039,12403 L 12039,13131 11918,13201 11918,12403 12039,12403 Z M 11918,12390 L 11917,10681 12038,10611 12039,12390 11918,12390 Z"/>
     <path fill="rgb(74,74,74)" stroke="none" d="M 12039,12390 L 12039,13131 11918,13201 11918,12390 12039,12390 Z M 11918,12377 L 11917,10681 12038,10611 12039,12377 11918,12377 Z"/>
     <path fill="rgb(75,75,75)" stroke="none" d="M 12039,12377 L 12039,13131 11918,13201 11918,12377 12039,12377 Z M 11918,12365 L 11917,10681 12038,10611 12039,12365 11918,12365 Z"/>
     <path fill="rgb(76,76,76)" stroke="none" d="M 12039,12365 L 12039,13131 11918,13201 11918,12365 12039,12365 Z M 11918,12352 L 11917,10681 12038,10611 12039,12352 11918,12352 Z"/>
     <path fill="rgb(77,77,77)" stroke="none" d="M 12039,12352 L 12039,13131 11918,13201 11918,12352 12039,12352 Z M 11918,12339 L 11917,10681 12038,10611 12039,12339 11918,12339 Z"/>
     <path fill="rgb(78,78,78)" stroke="none" d="M 12039,12339 L 12039,13131 11918,13201 11918,12339 12039,12339 Z M 11918,12327 L 11917,10681 12038,10611 12039,12327 11918,12327 Z"/>
     <path fill="rgb(79,79,79)" stroke="none" d="M 12039,12327 L 12039,13131 11918,13201 11918,12327 12039,12327 Z M 11918,12314 L 11917,10681 12038,10611 12039,12314 11918,12314 Z"/>
     <path fill="rgb(80,80,80)" stroke="none" d="M 12039,12314 L 12039,13131 11918,13201 11918,12314 12039,12314 Z M 11918,12301 L 11917,10681 12038,10611 12039,12301 11918,12301 Z"/>
     <path fill="rgb(81,81,81)" stroke="none" d="M 12039,12301 L 12039,13131 11918,13201 11918,12301 12039,12301 Z M 11918,12288 L 11917,10681 12038,10611 12039,12288 11918,12288 Z"/>
     <path fill="rgb(82,82,82)" stroke="none" d="M 12039,12288 L 12039,13131 11918,13201 11918,12288 12039,12288 Z M 11918,12276 L 11917,10681 12038,10611 12039,12276 11918,12276 Z"/>
     <path fill="rgb(83,83,83)" stroke="none" d="M 12039,12276 L 12039,13131 11918,13201 11918,12276 12039,12276 Z M 11918,12263 L 11917,10681 12038,10611 12039,12263 11918,12263 Z"/>
     <path fill="rgb(84,84,84)" stroke="none" d="M 12039,12263 L 12039,13131 11918,13201 11918,12263 12039,12263 Z M 11918,12250 L 11917,10681 12038,10611 12039,12250 11918,12250 Z"/>
     <path fill="rgb(85,85,85)" stroke="none" d="M 12039,12250 L 12039,13131 11918,13201 11918,12250 12039,12250 Z M 11918,12238 L 11917,10681 12038,10611 12039,12238 11918,12238 Z"/>
     <path fill="rgb(86,86,86)" stroke="none" d="M 12039,12238 L 12039,13131 11918,13201 11918,12238 12039,12238 Z M 11918,12225 L 11917,10681 12038,10611 12039,12225 11918,12225 Z"/>
     <path fill="rgb(87,87,87)" stroke="none" d="M 12039,12225 L 12039,13131 11918,13201 11918,12225 12039,12225 Z M 11918,12212 L 11917,10681 12038,10611 12039,12212 11918,12212 Z"/>
     <path fill="rgb(88,88,88)" stroke="none" d="M 12039,12212 L 12039,13131 11918,13201 11918,12212 12039,12212 Z M 11918,12199 L 11917,10681 12038,10611 12039,12199 11918,12199 Z"/>
     <path fill="rgb(89,89,89)" stroke="none" d="M 12039,12199 L 12039,13131 11918,13201 11918,12199 12039,12199 Z M 11918,12187 L 11917,10681 12038,10611 12039,12187 11918,12187 Z"/>
     <path fill="rgb(90,90,90)" stroke="none" d="M 12039,12187 L 12039,13131 11918,13201 11918,12187 12039,12187 Z M 11918,12174 L 11917,10681 12038,10611 12039,12174 11918,12174 Z"/>
     <path fill="rgb(91,91,91)" stroke="none" d="M 12039,12174 L 12039,13131 11918,13201 11918,12174 12039,12174 Z M 12038,10612 L 12039,12161 11918,12161 11917,10681 12036,10612 12038,10612 Z"/>
     <path fill="rgb(92,92,92)" stroke="none" d="M 12039,12161 L 12039,13131 11918,13201 11918,12161 12039,12161 Z M 12036,10612 L 12038,10611 12038,10612 12036,10612 Z M 12038,10624 L 12039,12149 11918,12149 11917,10681 12016,10624 12038,10624 Z"/>
     <path fill="rgb(93,93,93)" stroke="none" d="M 12039,12149 L 12039,13131 11918,13201 11918,12149 12039,12149 Z M 12016,10624 L 12038,10611 12038,10624 12016,10624 Z M 12038,10637 L 12039,12136 11918,12136 11917,10681 11993,10637 12038,10637 Z"/>
     <path fill="rgb(94,94,94)" stroke="none" d="M 12039,12136 L 12039,13131 11918,13201 11918,12136 12039,12136 Z M 11993,10637 L 12038,10611 12038,10637 11993,10637 Z M 12038,10650 L 12039,12123 11918,12123 11917,10681 11971,10650 12038,10650 Z"/>
     <path fill="rgb(95,95,95)" stroke="none" d="M 12039,12123 L 12039,13131 11918,13201 11918,12123 12039,12123 Z M 11971,10650 L 12038,10611 12038,10650 11971,10650 Z M 12038,10662 L 12039,12111 11918,12111 11917,10681 11950,10662 12038,10662 Z"/>
     <path fill="rgb(96,96,96)" stroke="none" d="M 12039,12111 L 12039,13131 11918,13201 11918,12111 12039,12111 Z M 11950,10662 L 12038,10611 12038,10662 11950,10662 Z M 12038,10675 L 12039,12098 11918,12098 11917,10681 11927,10675 12038,10675 Z"/>
     <path fill="rgb(97,97,97)" stroke="none" d="M 12039,12098 L 12039,13131 11918,13201 11918,12098 12039,12098 Z M 11927,10675 L 12038,10611 12038,10675 11927,10675 Z M 12038,10688 L 12039,12085 11918,12085 11917,10688 12038,10688 Z"/>
     <path fill="rgb(98,98,98)" stroke="none" d="M 12039,12085 L 12039,13131 11918,13201 11918,12085 12039,12085 Z M 11917,10688 L 11917,10681 12038,10611 12038,10688 11917,10688 Z M 12038,10701 L 12039,12072 11918,12072 11917,10701 12038,10701 Z"/>
     <path fill="rgb(99,99,99)" stroke="none" d="M 12039,12072 L 12039,13131 11918,13201 11918,12072 12039,12072 Z M 11917,10701 L 11917,10681 12038,10611 12038,10701 11917,10701 Z M 12038,10713 L 12039,12060 11918,12060 11917,10713 12038,10713 Z"/>
     <path fill="rgb(100,100,100)" stroke="none" d="M 12039,12060 L 12039,13131 11918,13201 11918,12060 12039,12060 Z M 11917,10713 L 11917,10681 12038,10611 12038,10713 11917,10713 Z M 12038,10726 L 12039,12047 11918,12047 11917,10726 12038,10726 Z"/>
     <path fill="rgb(101,101,101)" stroke="none" d="M 12039,12047 L 12039,13131 11918,13201 11918,12047 12039,12047 Z M 11917,10726 L 11917,10681 12038,10611 12038,10726 11917,10726 Z M 12038,10739 L 12039,12034 11918,12034 11917,10739 12038,10739 Z"/>
     <path fill="rgb(102,102,102)" stroke="none" d="M 12039,12034 L 12039,13131 11918,13201 11918,12034 12039,12034 Z M 11917,10739 L 11917,10681 12038,10611 12038,10739 11917,10739 Z M 12038,10751 L 12039,12022 11918,12022 11917,10751 12038,10751 Z"/>
     <path fill="rgb(103,103,103)" stroke="none" d="M 12039,12022 L 12039,13131 11918,13201 11918,12022 12039,12022 Z M 11917,10751 L 11917,10681 12038,10611 12038,10751 11917,10751 Z M 12038,10764 L 12039,12009 11918,12009 11917,10764 12038,10764 Z"/>
     <path fill="rgb(104,104,104)" stroke="none" d="M 12039,12009 L 12039,13131 11918,13201 11918,12009 12039,12009 Z M 11917,10764 L 11917,10681 12038,10611 12038,10764 11917,10764 Z M 12038,10777 L 12039,11996 11918,11996 11917,10777 12038,10777 Z"/>
     <path fill="rgb(105,105,105)" stroke="none" d="M 12039,11996 L 12039,13131 11918,13201 11918,11996 12039,11996 Z M 11917,10777 L 11917,10681 12038,10611 12038,10777 11917,10777 Z M 12038,10790 L 12039,11983 11918,11983 11917,10790 12038,10790 Z"/>
     <path fill="rgb(106,106,106)" stroke="none" d="M 12039,11983 L 12039,13131 11918,13201 11918,11983 12039,11983 Z M 11917,10790 L 11917,10681 12038,10611 12038,10790 11917,10790 Z M 12038,10802 L 12039,11971 11918,11971 11917,10802 12038,10802 Z"/>
     <path fill="rgb(107,107,107)" stroke="none" d="M 12039,11971 L 12039,13131 11918,13201 11918,11971 12039,11971 Z M 11917,10802 L 11917,10681 12038,10611 12038,10802 11917,10802 Z M 12038,10815 L 12039,11958 11918,11958 11917,10815 12038,10815 Z"/>
     <path fill="rgb(108,108,108)" stroke="none" d="M 12039,11958 L 12039,13131 11918,13201 11918,11958 12039,11958 Z M 11917,10815 L 11917,10681 12038,10611 12038,10815 11917,10815 Z M 12038,10828 L 12039,11945 11918,11945 11917,10828 12038,10828 Z"/>
     <path fill="rgb(109,109,109)" stroke="none" d="M 12039,11945 L 12039,13131 11918,13201 11918,11945 12039,11945 Z M 11917,10828 L 11917,10681 12038,10611 12038,10828 11917,10828 Z M 12038,10840 L 12039,11933 11917,11933 11917,10840 12038,10840 Z"/>
     <path fill="rgb(110,110,110)" stroke="none" d="M 12039,11933 L 12039,13131 11918,13201 11917,11933 12039,11933 Z M 11917,10840 L 11917,10681 12038,10611 12038,10840 11917,10840 Z M 12038,10853 L 12039,11920 11917,11920 11917,10853 12038,10853 Z"/>
     <path fill="rgb(111,111,111)" stroke="none" d="M 12039,11920 L 12039,13131 11918,13201 11917,11920 12039,11920 Z M 11917,10853 L 11917,10681 12038,10611 12038,10853 11917,10853 Z M 12038,10866 L 12039,11907 11917,11907 11917,10866 12038,10866 Z"/>
     <path fill="rgb(112,112,112)" stroke="none" d="M 12039,11907 L 12039,13131 11918,13201 11917,11907 12039,11907 Z M 11917,10866 L 11917,10681 12038,10611 12038,10866 11917,10866 Z M 12038,10879 L 12039,11894 11917,11894 11917,10879 12038,10879 Z"/>
     <path fill="rgb(113,113,113)" stroke="none" d="M 12039,11894 L 12039,13131 11918,13201 11917,11894 12039,11894 Z M 11917,10879 L 11917,10681 12038,10611 12038,10879 11917,10879 Z M 12038,10891 L 12039,11882 11917,11882 11917,10891 12038,10891 Z"/>
     <path fill="rgb(114,114,114)" stroke="none" d="M 12039,11882 L 12039,13131 11918,13201 11917,11882 12039,11882 Z M 11917,10891 L 11917,10681 12038,10611 12038,10891 11917,10891 Z M 12038,10904 L 12038,11869 11917,11869 11917,10904 12038,10904 Z"/>
     <path fill="rgb(115,115,115)" stroke="none" d="M 12038,11869 L 12039,13131 11918,13201 11917,11869 12038,11869 Z M 11917,10904 L 11917,10681 12038,10611 12038,10904 11917,10904 Z M 12038,10917 L 12038,11856 11917,11856 11917,10917 12038,10917 Z"/>
     <path fill="rgb(116,116,116)" stroke="none" d="M 12038,11856 L 12039,13131 11918,13201 11917,11856 12038,11856 Z M 11917,10917 L 11917,10681 12038,10611 12038,10917 11917,10917 Z M 12038,10929 L 12038,11844 11917,11844 11917,10929 12038,10929 Z"/>
     <path fill="rgb(117,117,117)" stroke="none" d="M 12038,11844 L 12039,13131 11918,13201 11917,11844 12038,11844 Z M 11917,10929 L 11917,10681 12038,10611 12038,10929 11917,10929 Z M 12038,10942 L 12038,11831 11917,11831 11917,10942 12038,10942 Z"/>
     <path fill="rgb(118,118,118)" stroke="none" d="M 12038,11831 L 12039,13131 11918,13201 11917,11831 12038,11831 Z M 11917,10942 L 11917,10681 12038,10611 12038,10942 11917,10942 Z M 12038,10955 L 12038,11818 11917,11818 11917,10955 12038,10955 Z"/>
     <path fill="rgb(119,119,119)" stroke="none" d="M 12038,11818 L 12039,13131 11918,13201 11917,11818 12038,11818 Z M 11917,10955 L 11917,10681 12038,10611 12038,10955 11917,10955 Z M 12038,10968 L 12038,11805 11917,11805 11917,10968 12038,10968 Z"/>
     <path fill="rgb(120,120,120)" stroke="none" d="M 12038,11805 L 12039,13131 11918,13201 11917,11805 12038,11805 Z M 11917,10968 L 11917,10681 12038,10611 12038,10968 11917,10968 Z M 12038,10980 L 12038,11793 11917,11793 11917,10980 12038,10980 Z"/>
     <path fill="rgb(121,121,121)" stroke="none" d="M 12038,11793 L 12039,13131 11918,13201 11917,11793 12038,11793 Z M 11917,10980 L 11917,10681 12038,10611 12038,10980 11917,10980 Z M 12038,10993 L 12038,11780 11917,11780 11917,10993 12038,10993 Z"/>
     <path fill="rgb(122,122,122)" stroke="none" d="M 12038,11780 L 12039,13131 11918,13201 11917,11780 12038,11780 Z M 11917,10993 L 11917,10681 12038,10611 12038,10993 11917,10993 Z M 12038,11006 L 12038,11767 11917,11767 11917,11006 12038,11006 Z"/>
     <path fill="rgb(123,123,123)" stroke="none" d="M 12038,11767 L 12039,13131 11918,13201 11917,11767 12038,11767 Z M 11917,11006 L 11917,10681 12038,10611 12038,11006 11917,11006 Z M 12038,11018 L 12038,11755 11917,11755 11917,11018 12038,11018 Z"/>
     <path fill="rgb(124,124,124)" stroke="none" d="M 12038,11755 L 12039,13131 11918,13201 11917,11755 12038,11755 Z M 11917,11018 L 11917,10681 12038,10611 12038,11018 11917,11018 Z M 12038,11031 L 12038,11742 11917,11742 11917,11031 12038,11031 Z"/>
     <path fill="rgb(125,125,125)" stroke="none" d="M 12038,11742 L 12039,13131 11918,13201 11917,11742 12038,11742 Z M 11917,11031 L 11917,10681 12038,10611 12038,11031 11917,11031 Z M 12038,11044 L 12038,11729 11917,11729 11917,11044 12038,11044 Z"/>
     <path fill="rgb(126,126,126)" stroke="none" d="M 12038,11729 L 12039,13131 11918,13201 11917,11729 12038,11729 Z M 11917,11044 L 11917,10681 12038,10611 12038,11044 11917,11044 Z M 12038,11057 L 12038,11716 11917,11716 11917,11057 12038,11057 Z"/>
     <path fill="rgb(127,127,127)" stroke="none" d="M 12038,11716 L 12039,13131 11918,13201 11917,11716 12038,11716 Z M 11917,11057 L 11917,10681 12038,10611 12038,11057 11917,11057 Z M 12038,11069 L 12038,11704 11917,11704 11917,11069 12038,11069 Z"/>
     <path fill="rgb(128,128,128)" stroke="none" d="M 12038,11704 L 12039,13131 11918,13201 11917,11704 12038,11704 Z M 11917,11069 L 11917,10681 12038,10611 12038,11069 11917,11069 Z M 12038,11082 L 12038,11691 11917,11691 11917,11082 12038,11082 Z"/>
     <path fill="rgb(129,129,129)" stroke="none" d="M 12038,11691 L 12039,13131 11918,13201 11917,11691 12038,11691 Z M 11917,11082 L 11917,10681 12038,10611 12038,11082 11917,11082 Z M 12038,11095 L 12038,11678 11917,11678 11917,11095 12038,11095 Z"/>
     <path fill="rgb(130,130,130)" stroke="none" d="M 12038,11678 L 12039,13131 11918,13201 11917,11678 12038,11678 Z M 11917,11095 L 11917,10681 12038,10611 12038,11095 11917,11095 Z M 12038,11107 L 12038,11666 11917,11666 11917,11107 12038,11107 Z"/>
     <path fill="rgb(131,131,131)" stroke="none" d="M 12038,11666 L 12039,13131 11918,13201 11917,11666 12038,11666 Z M 11917,11107 L 11917,10681 12038,10611 12038,11107 11917,11107 Z M 12038,11120 L 12038,11653 11917,11653 11917,11120 12038,11120 Z"/>
     <path fill="rgb(132,132,132)" stroke="none" d="M 12038,11653 L 12039,13131 11918,13201 11917,11653 12038,11653 Z M 11917,11120 L 11917,10681 12038,10611 12038,11120 11917,11120 Z M 12038,11133 L 12038,11640 11917,11640 11917,11133 12038,11133 Z"/>
     <path fill="rgb(133,133,133)" stroke="none" d="M 12038,11640 L 12039,13131 11918,13201 11917,11640 12038,11640 Z M 11917,11133 L 11917,10681 12038,10611 12038,11133 11917,11133 Z M 12038,11145 L 12038,11628 11917,11628 11917,11145 12038,11145 Z"/>
     <path fill="rgb(134,134,134)" stroke="none" d="M 12038,11628 L 12039,13131 11918,13201 11917,11628 12038,11628 Z M 11917,11145 L 11917,10681 12038,10611 12038,11145 11917,11145 Z M 12038,11158 L 12038,11615 11917,11615 11917,11158 12038,11158 Z"/>
     <path fill="rgb(135,135,135)" stroke="none" d="M 12038,11615 L 12039,13131 11918,13201 11917,11615 12038,11615 Z M 11917,11158 L 11917,10681 12038,10611 12038,11158 11917,11158 Z M 12038,11171 L 12038,11602 11917,11602 11917,11171 12038,11171 Z"/>
     <path fill="rgb(136,136,136)" stroke="none" d="M 12038,11602 L 12039,13131 11918,13201 11917,11602 12038,11602 Z M 11917,11171 L 11917,10681 12038,10611 12038,11171 11917,11171 Z M 12038,11184 L 12038,11589 11917,11589 11917,11184 12038,11184 Z"/>
     <path fill="rgb(137,137,137)" stroke="none" d="M 12038,11589 L 12039,13131 11918,13201 11917,11589 12038,11589 Z M 11917,11184 L 11917,10681 12038,10611 12038,11184 11917,11184 Z M 12038,11196 L 12038,11577 11917,11577 11917,11196 12038,11196 Z"/>
     <path fill="rgb(138,138,138)" stroke="none" d="M 12038,11577 L 12039,13131 11918,13201 11917,11577 12038,11577 Z M 11917,11196 L 11917,10681 12038,10611 12038,11196 11917,11196 Z M 12038,11209 L 12038,11564 11917,11564 11917,11209 12038,11209 Z"/>
     <path fill="rgb(139,139,139)" stroke="none" d="M 12038,11564 L 12039,13131 11918,13201 11917,11564 12038,11564 Z M 11917,11209 L 11917,10681 12038,10611 12038,11209 11917,11209 Z M 12038,11222 L 12038,11551 11917,11551 11917,11222 12038,11222 Z"/>
     <path fill="rgb(140,140,140)" stroke="none" d="M 12038,11551 L 12039,13131 11918,13201 11917,11551 12038,11551 Z M 11917,11222 L 11917,10681 12038,10611 12038,11222 11917,11222 Z M 12038,11234 L 12038,11539 11917,11539 11917,11234 12038,11234 Z"/>
     <path fill="rgb(141,141,141)" stroke="none" d="M 12038,11539 L 12039,13131 11918,13201 11917,11539 12038,11539 Z M 11917,11234 L 11917,10681 12038,10611 12038,11234 11917,11234 Z M 12038,11247 L 12038,11526 11917,11526 11917,11247 12038,11247 Z"/>
     <path fill="rgb(142,142,142)" stroke="none" d="M 12038,11526 L 12039,13131 11918,13201 11917,11526 12038,11526 Z M 11917,11247 L 11917,10681 12038,10611 12038,11247 11917,11247 Z M 12038,11260 L 12038,11513 11917,11513 11917,11260 12038,11260 Z"/>
     <path fill="rgb(143,143,143)" stroke="none" d="M 12038,11513 L 12039,13131 11918,13201 11917,11513 12038,11513 Z M 11917,11260 L 11917,10681 12038,10611 12038,11260 11917,11260 Z M 12038,11273 L 12038,11500 11917,11500 11917,11273 12038,11273 Z"/>
     <path fill="rgb(144,144,144)" stroke="none" d="M 12038,11500 L 12039,13131 11918,13201 11917,11500 12038,11500 Z M 11917,11273 L 11917,10681 12038,10611 12038,11273 11917,11273 Z M 12038,11285 L 12038,11488 11917,11488 11917,11285 12038,11285 Z"/>
     <path fill="rgb(145,145,145)" stroke="none" d="M 12038,11488 L 12039,13131 11918,13201 11917,11488 12038,11488 Z M 11917,11285 L 11917,10681 12038,10611 12038,11285 11917,11285 Z M 12038,11298 L 12038,11475 11917,11475 11917,11298 12038,11298 Z"/>
     <path fill="rgb(146,146,146)" stroke="none" d="M 12038,11475 L 12039,13131 11918,13201 11917,11475 12038,11475 Z M 11917,11298 L 11917,10681 12038,10611 12038,11298 11917,11298 Z M 12028,11311 L 12028,11462 11917,11462 11917,11311 12028,11311 Z"/>
     <path fill="rgb(147,147,147)" stroke="none" d="M 12028,11462 L 12028,11311 11917,11311 11917,10681 12038,10611 12039,13131 11918,13201 11917,11462 12028,11462 Z M 12016,11323 L 12016,11450 11917,11450 11917,11323 12016,11323 Z"/>
     <path fill="rgb(148,148,148)" stroke="none" d="M 12016,11450 L 12016,11323 11917,11323 11917,10681 12038,10611 12039,13131 11918,13201 11917,11450 12016,11450 Z M 12003,11336 L 12003,11437 11917,11437 11917,11336 12003,11336 Z"/>
     <path fill="rgb(149,149,149)" stroke="none" d="M 12003,11437 L 12003,11336 11917,11336 11917,10681 12038,10611 12039,13131 11918,13201 11917,11437 12003,11437 Z M 11990,11349 L 11990,11424 11917,11424 11917,11349 11990,11349 Z"/>
     <path fill="rgb(150,150,150)" stroke="none" d="M 11990,11424 L 11990,11349 11917,11349 11917,10681 12038,10611 12039,13131 11918,13201 11917,11424 11990,11424 Z M 11928,11362 L 11977,11362 11977,11411 11928,11411 11928,11362 Z"/>
     <path fill="rgb(151,151,151)" stroke="none" d="M 11928,11362 L 11928,11411 11977,11411 11977,11362 11928,11362 Z M 11940,11374 L 11965,11374 11965,11399 11940,11399 11940,11374 Z M 11918,13201 L 11917,10681 12038,10611 12039,13131 11918,13201 Z"/>
     <path fill="rgb(153,153,153)" stroke="none" d="M 11940,11374 L 11940,11399 11965,11399 11965,11374 11940,11374 Z M 11918,13201 L 11917,10681 12038,10611 12039,13131 11918,13201 Z"/>
     <path fill="none" stroke="rgb(178,178,178)" id="Drawing_4_0" stroke-width="40" stroke-linejoin="round" d="M 11918,13201 L 11917,10681 12038,10611 12039,13131 11918,13201 Z"/>
    </g>
    <g>
     <defs>
      <linearGradient id="Gradient_372" gradientUnits="userSpaceOnUse" x1="9851" y1="11344" x2="11921" y2="11348">
       <stop offset="0.1" stop-color="rgb(51,51,51)"/>
       <stop offset="1" stop-color="rgb(153,153,153)"/>
      </linearGradient>
     </defs>
     <path fill="url(#Gradient_372)" stroke="rgb(178,178,178)" id="Drawing_5_0" stroke-width="40" stroke-linejoin="round" d="M 9855,12011 L 9854,9491 11917,10681 11918,13201 9855,12011 Z"/>
    </g>
    <g>
     <defs>
      <linearGradient id="Gradient_373" gradientUnits="userSpaceOnUse" x1="10946" y1="9421" x2="10946" y2="10681">
       <stop offset="0.1" stop-color="rgb(51,51,51)"/>
       <stop offset="1" stop-color="rgb(153,153,153)"/>
      </linearGradient>
     </defs>
     <path fill="url(#Gradient_373)" stroke="rgb(178,178,178)" id="Drawing_6_0" stroke-width="40" stroke-linejoin="round" d="M 11917,10681 L 9855,9491 9977,9421 12038,10611 11917,10681 Z"/>
    </g>
    <g>
     <path fill="rgb(255,255,255)" stroke="none" d="M 11310,12641 L 11310,12501 11431,12571 11431,12711 11310,12641 Z"/>
     <path fill="none" stroke="rgb(178,178,178)" id="Drawing_7_0" stroke-width="40" stroke-linejoin="round" d="M 11310,12641 L 11310,12501 11431,12571 11431,12711 11310,12641 Z"/>
    </g>
    <g>
     <path fill="none" stroke="rgb(0,0,0)" id="Drawing_8_0" stroke-width="40" stroke-linejoin="round" d="M 9855,12011 L 9855,9491 9977,9421 10219,9561 11673,8721 13493,9771 13493,12011 12039,12851 12039,13131 11918,13201 9855,12011 Z"/>
    </g>
    <g>
     <defs>
      <linearGradient id="Gradient_374" gradientUnits="userSpaceOnUse" x1="10094" y1="11065" x2="11675" y2="11067">
       <stop offset="0.1" stop-color="rgb(147,212,240)"/>
       <stop offset="1" stop-color="rgb(233,246,252)"/>
      </linearGradient>
     </defs>
     <path fill="url(#Gradient_374)" stroke="rgb(51,51,51)" id="Drawing_9_0" stroke-width="40" stroke-linejoin="round" d="M 10097,11241 L 10099,9981 11674,10891 11674,12151 10097,11241 Z"/>
    </g>
    <g>
     <path fill="rgb(255,255,255)" stroke="none" d="M 11311,12291 L 11311,12151 11432,12221 11432,12361 11311,12291 Z"/>
     <path fill="none" stroke="rgb(178,178,178)" id="Drawing_10_0" stroke-width="40" stroke-linejoin="round" d="M 11311,12291 L 11311,12151 11432,12221 11432,12361 11311,12291 Z"/>
    </g>
    <g>
     <path fill="rgb(255,255,255)" stroke="none" d="M 10583,12081 L 10583,11941 10704,12011 10704,12151 10583,12081 Z"/>
     <path fill="none" stroke="rgb(178,178,178)" id="Drawing_11_0" stroke-width="40" stroke-linejoin="round" d="M 10583,12081 L 10583,11941 10704,12011 10704,12151 10583,12081 Z"/>
    </g>
    <g>
     <path fill="rgb(255,255,255)" stroke="none" d="M 10948,12431 L 10948,12291 11069,12361 11069,12501 10948,12431 Z"/>
     <path fill="none" stroke="rgb(178,178,178)" id="Drawing_12_0" stroke-width="40" stroke-linejoin="round" d="M 10948,12431 L 10948,12291 11069,12361 11069,12501 10948,12431 Z"/>
    </g>
    <g>
     <path fill="rgb(255,255,255)" stroke="none" d="M 10947,12291 L 10947,12151 11068,12221 11068,12361 10947,12291 Z"/>
     <path fill="none" stroke="rgb(178,178,178)" id="Drawing_13_0" stroke-width="40" stroke-linejoin="round" d="M 10947,12291 L 10947,12151 11068,12221 11068,12361 10947,12291 Z"/>
    </g>
    <g>
     <path fill="rgb(255,255,255)" stroke="none" d="M 10947,12151 L 10947,12011 11068,12081 11068,12221 10947,12151 Z"/>
     <path fill="none" stroke="rgb(178,178,178)" id="Drawing_14_0" stroke-width="40" stroke-linejoin="round" d="M 10947,12151 L 10947,12011 11068,12081 11068,12221 10947,12151 Z"/>
    </g>
    <g>
     <path fill="rgb(255,255,255)" stroke="none" d="M 10825,12221 L 10825,12081 10946,12151 10946,12291 10825,12221 Z"/>
     <path fill="none" stroke="rgb(178,178,178)" id="Drawing_15_0" stroke-width="40" stroke-linejoin="round" d="M 10825,12221 L 10825,12081 10946,12151 10946,12291 10825,12221 Z"/>
    </g>
    <g>
     <path fill="rgb(255,255,255)" stroke="none" d="M 11068,12361 L 11068,12221 11189,12291 11189,12431 11068,12361 Z"/>
     <path fill="none" stroke="rgb(178,178,178)" id="Drawing_16_0" stroke-width="40" stroke-linejoin="round" d="M 11068,12361 L 11068,12221 11189,12291 11189,12431 11068,12361 Z"/>
    </g>
   </g>
  </g>
 </g>
</svg>