<?xml version="1.0" encoding="UTF-8"?>

<svg version="1.2" baseProfile="tiny" width="24.73mm" height="24.9mm" viewBox="8733 11303 2473 2490" preserveAspectRatio="xMidYMid" fill-rule="evenodd" stroke-width="28.222" stroke-linejoin="round" xmlns="http://www.w3.org/2000/svg" xmlns:xlink="http://www.w3.org/1999/xlink" xml:space="preserve">
 <g visibility="visible" id="Slide_1">
  <g id="DrawingGroup_1">
   <g>
    <path fill="rgb(221,221,221)" stroke="none" d="M 10087,13633 C 10562,13633 11057,13353 11178,13143 11299,12933 10987,12793 10814,12793 10814,13093 10087,13232 10087,13633 Z"/>
    <path fill="none" stroke="rgb(221,221,221)" id="Drawing_1_0" stroke-linejoin="round" d="M 10087,13633 C 10562,13633 11057,13353 11178,13143 11299,12933 10987,12793 10814,12793 10814,13093 10087,13232 10087,13633 Z"/>
   </g>
   <g id="DrawingGroup_2">
    <g>
     <path fill="rgb(179,179,179)" stroke="none" d="M 9845,13210 L 9845,12443 10814,11883 10814,13003 10456,13210 9845,13210 Z"/>
     <path fill="rgb(180,180,180)" stroke="none" d="M 10456,13210 L 9845,13563 9845,13210 10456,13210 Z M 9845,13193 L 9845,12443 10814,11883 10814,13003 10485,13193 9845,13193 Z"/>
     <path fill="rgb(181,181,181)" stroke="none" d="M 10485,13193 L 9845,13563 9845,13193 10485,13193 Z M 9845,13176 L 9845,12443 10814,11883 10814,13003 10515,13176 9845,13176 Z"/>
     <path fill="rgb(182,182,182)" stroke="none" d="M 10515,13176 L 9845,13563 9845,13176 10515,13176 Z M 9845,13159 L 9845,12443 10814,11883 10814,13003 10544,13159 9845,13159 Z"/>
     <path fill="rgb(183,183,183)" stroke="none" d="M 10544,13159 L 9845,13563 9845,13159 10544,13159 Z M 9845,13142 L 9845,12443 10814,11883 10814,13003 10573,13142 9845,13142 Z"/>
     <path fill="rgb(184,184,184)" stroke="none" d="M 10573,13142 L 9845,13563 9845,13142 10573,13142 Z M 9845,13126 L 9845,12443 10814,11883 10814,13003 10601,13126 9845,13126 Z"/>
     <path fill="rgb(185,185,185)" stroke="none" d="M 10601,13126 L 9845,13563 9845,13126 10601,13126 Z M 9845,13109 L 9845,12443 10814,11883 10814,13003 10631,13109 9845,13109 Z"/>
     <path fill="rgb(186,186,186)" stroke="none" d="M 10631,13109 L 9845,13563 9845,13109 10631,13109 Z M 9845,13092 L 9845,12443 10814,11883 10814,13003 10660,13092 9845,13092 Z"/>
     <path fill="rgb(187,187,187)" stroke="none" d="M 10660,13092 L 9845,13563 9845,13092 10660,13092 Z M 9845,13075 L 9845,12443 10814,11883 10814,13003 10689,13075 9845,13075 Z"/>
     <path fill="rgb(188,188,188)" stroke="none" d="M 10689,13075 L 9845,13563 9845,13075 10689,13075 Z M 10807,13007 L 10719,13058 9845,13058 9845,12443 10807,11887 10807,13007 Z"/>
     <path fill="rgb(189,189,189)" stroke="none" d="M 10719,13058 L 9845,13563 9845,13058 10719,13058 Z M 10807,11887 L 10814,11883 10814,13003 10807,13007 10807,11887 Z M 10790,13017 L 10748,13041 9845,13041 9845,12443 10790,11897 10790,13017 Z"/>
     <path fill="rgb(190,190,190)" stroke="none" d="M 10748,13041 L 9845,13563 9845,13041 10748,13041 Z M 10790,11897 L 10814,11883 10814,13003 10790,13017 10790,11897 Z M 10774,13025 L 9845,13025 9845,12443 10774,11906 10774,13025 Z"/>
     <path fill="rgb(191,191,191)" stroke="none" d="M 10774,13025 L 10774,11906 10814,11883 10814,13003 9845,13563 9845,13025 10774,13025 Z M 10757,13008 L 9845,13008 9845,12443 10757,11916 10757,13008 Z"/>
     <path fill="rgb(192,192,192)" stroke="none" d="M 10757,13008 L 10757,11916 10814,11883 10814,13003 9845,13563 9845,13008 10757,13008 Z M 10740,12991 L 9845,12991 9845,12443 10740,11926 10740,12991 Z"/>
     <path fill="rgb(193,193,193)" stroke="none" d="M 10740,12991 L 10740,11926 10814,11883 10814,13003 9845,13563 9845,12991 10740,12991 Z M 10723,12974 L 9845,12974 9845,12443 10723,11936 10723,12974 Z"/>
     <path fill="rgb(194,194,194)" stroke="none" d="M 10723,12974 L 10723,11936 10814,11883 10814,13003 9845,13563 9845,12974 10723,12974 Z M 10706,12957 L 9845,12957 9845,12443 10706,11945 10706,12957 Z"/>
     <path fill="rgb(195,195,195)" stroke="none" d="M 10706,12957 L 10706,11945 10814,11883 10814,13003 9845,13563 9845,12957 10706,12957 Z M 10689,12940 L 9845,12940 9845,12443 10689,11955 10689,12940 Z"/>
     <path fill="rgb(196,196,196)" stroke="none" d="M 10689,12940 L 10689,11955 10814,11883 10814,13003 9845,13563 9845,12940 10689,12940 Z M 10673,12924 L 9845,12924 9845,12443 10673,11964 10673,12924 Z"/>
     <path fill="rgb(197,197,197)" stroke="none" d="M 10673,12924 L 10673,11964 10814,11883 10814,13003 9845,13563 9845,12924 10673,12924 Z M 10656,12907 L 9845,12907 9845,12443 10656,11974 10656,12907 Z"/>
     <path fill="rgb(198,198,198)" stroke="none" d="M 10656,12907 L 10656,11974 10814,11883 10814,13003 9845,13563 9845,12907 10656,12907 Z M 10639,12890 L 9845,12890 9845,12443 10639,11984 10639,12890 Z"/>
     <path fill="rgb(199,199,199)" stroke="none" d="M 10639,12890 L 10639,11984 10814,11883 10814,13003 9845,13563 9845,12890 10639,12890 Z M 10622,12873 L 9845,12873 9845,12443 10622,11994 10622,12873 Z"/>
     <path fill="rgb(200,200,200)" stroke="none" d="M 10622,12873 L 10622,11994 10814,11883 10814,13003 9845,13563 9845,12873 10622,12873 Z M 10605,12856 L 9845,12856 9845,12443 10605,12004 10605,12856 Z"/>
     <path fill="rgb(201,201,201)" stroke="none" d="M 10605,12856 L 10605,12004 10814,11883 10814,13003 9845,13563 9845,12856 10605,12856 Z M 10588,12839 L 9845,12839 9845,12443 10588,12014 10588,12839 Z"/>
     <path fill="rgb(202,202,202)" stroke="none" d="M 10588,12839 L 10588,12014 10814,11883 10814,13003 9845,13563 9845,12839 10588,12839 Z M 10572,12823 L 9845,12823 9845,12443 10572,12023 10572,12823 Z"/>
     <path fill="rgb(203,203,203)" stroke="none" d="M 10572,12823 L 10572,12023 10814,11883 10814,13003 9845,13563 9845,12823 10572,12823 Z M 10555,12806 L 9845,12806 9845,12443 10555,12033 10555,12806 Z"/>
     <path fill="rgb(204,204,204)" stroke="none" d="M 10555,12806 L 10555,12033 10814,11883 10814,13003 9845,13563 9845,12806 10555,12806 Z M 10538,12789 L 9845,12789 9845,12443 10538,12043 10538,12789 Z"/>
     <path fill="rgb(205,205,205)" stroke="none" d="M 10538,12789 L 10538,12043 10814,11883 10814,13003 9845,13563 9845,12789 10538,12789 Z M 10521,12772 L 9845,12772 9845,12443 10521,12052 10521,12772 Z"/>
     <path fill="rgb(206,206,206)" stroke="none" d="M 10521,12772 L 10521,12052 10814,11883 10814,13003 9845,13563 9845,12772 10521,12772 Z M 10504,12755 L 9845,12755 9845,12443 10504,12062 10504,12755 Z"/>
     <path fill="rgb(207,207,207)" stroke="none" d="M 10504,12755 L 10504,12062 10814,11883 10814,13003 9845,13563 9845,12755 10504,12755 Z M 10487,12738 L 9845,12738 9845,12443 10487,12072 10487,12738 Z"/>
     <path fill="rgb(208,208,208)" stroke="none" d="M 10487,12738 L 10487,12072 10814,11883 10814,13003 9845,13563 9845,12738 10487,12738 Z M 10471,12722 L 9845,12722 9845,12443 10471,12081 10471,12722 Z"/>
     <path fill="rgb(209,209,209)" stroke="none" d="M 10471,12722 L 10471,12081 10814,11883 10814,13003 9845,13563 9845,12722 10471,12722 Z M 10454,12705 L 9845,12705 9845,12443 10454,12091 10454,12705 Z"/>
     <path fill="rgb(210,210,210)" stroke="none" d="M 10454,12705 L 10454,12091 10814,11883 10814,13003 9845,13563 9845,12705 10454,12705 Z M 10437,12688 L 9845,12688 9845,12443 10437,12101 10437,12688 Z"/>
     <path fill="rgb(211,211,211)" stroke="none" d="M 10437,12688 L 10437,12101 10814,11883 10814,13003 9845,13563 9845,12688 10437,12688 Z M 10420,12671 L 9849,12671 9849,12441 10420,12111 10420,12671 Z"/>
     <path fill="rgb(212,212,212)" stroke="none" d="M 9849,12671 L 10420,12671 10420,12111 10814,11883 10814,13003 9845,13563 9845,12443 9849,12441 9849,12671 Z M 10403,12654 L 9866,12654 9866,12431 10403,12121 10403,12654 Z"/>
     <path fill="rgb(213,213,213)" stroke="none" d="M 9866,12654 L 10403,12654 10403,12121 10814,11883 10814,13003 9845,13563 9845,12443 9866,12431 9866,12654 Z M 10386,12134 L 10386,12637 9883,12637 9883,12421 10380,12134 10386,12134 Z"/>
     <path fill="rgb(214,214,214)" stroke="none" d="M 9883,12637 L 10386,12637 10386,12134 10380,12134 10814,11883 10814,13003 9845,13563 9845,12443 9883,12421 9883,12637 Z M 10370,12150 L 10370,12621 9899,12621 9899,12412 10352,12150 10370,12150 Z"/>
     <path fill="rgb(215,215,215)" stroke="none" d="M 9899,12621 L 10370,12621 10370,12150 10352,12150 10814,11883 10814,13003 9845,13563 9845,12443 9899,12412 9899,12621 Z M 10353,12167 L 10353,12604 9916,12604 9916,12402 10323,12167 10353,12167 Z"/>
     <path fill="rgb(216,216,216)" stroke="none" d="M 9916,12604 L 10353,12604 10353,12167 10323,12167 10814,11883 10814,13003 9845,13563 9845,12443 9916,12402 9916,12604 Z M 10336,12184 L 10336,12587 9933,12587 9933,12392 10293,12184 10336,12184 Z"/>
     <path fill="rgb(217,217,217)" stroke="none" d="M 9933,12587 L 10336,12587 10336,12184 10293,12184 10814,11883 10814,13003 9845,13563 9845,12443 9933,12392 9933,12587 Z M 10319,12201 L 10319,12570 9950,12570 9950,12382 10264,12201 10319,12201 Z"/>
     <path fill="rgb(218,218,218)" stroke="none" d="M 9950,12570 L 10319,12570 10319,12201 10264,12201 10814,11883 10814,13003 9845,13563 9845,12443 9950,12382 9950,12570 Z M 10302,12218 L 10302,12553 9967,12553 9967,12372 10234,12218 10302,12218 Z"/>
     <path fill="rgb(219,219,219)" stroke="none" d="M 9967,12553 L 10302,12553 10302,12218 10234,12218 10814,11883 10814,13003 9845,13563 9845,12443 9967,12372 9967,12553 Z M 10285,12235 L 10285,12536 9984,12536 9984,12363 10205,12235 10285,12235 Z"/>
     <path fill="rgb(220,220,220)" stroke="none" d="M 9984,12536 L 10285,12536 10285,12235 10205,12235 10814,11883 10814,13003 9845,13563 9845,12443 9984,12363 9984,12536 Z M 10269,12251 L 10269,12520 10000,12520 10000,12353 10177,12251 10269,12251 Z"/>
     <path fill="rgb(221,221,221)" stroke="none" d="M 10000,12520 L 10269,12520 10269,12251 10177,12251 10814,11883 10814,13003 9845,13563 9845,12443 10000,12353 10000,12520 Z M 10252,12268 L 10252,12503 10017,12503 10017,12344 10148,12268 10252,12268 Z"/>
     <path fill="rgb(222,222,222)" stroke="none" d="M 10017,12503 L 10252,12503 10252,12268 10148,12268 10814,11883 10814,13003 9845,13563 9845,12443 10017,12344 10017,12503 Z M 10235,12285 L 10235,12486 10034,12486 10034,12334 10118,12285 10235,12285 Z"/>
     <path fill="rgb(223,223,223)" stroke="none" d="M 10034,12486 L 10235,12486 10235,12285 10118,12285 10814,11883 10814,13003 9845,13563 9845,12443 10034,12334 10034,12486 Z M 10218,12302 L 10218,12469 10051,12469 10051,12324 10089,12302 10218,12302 Z"/>
     <path fill="rgb(224,224,224)" stroke="none" d="M 10051,12469 L 10218,12469 10218,12302 10089,12302 10814,11883 10814,13003 9845,13563 9845,12443 10051,12324 10051,12469 Z M 10068,12319 L 10201,12319 10201,12452 10068,12452 10068,12319 Z"/>
     <path fill="rgb(225,225,225)" stroke="none" d="M 10068,12319 L 10068,12452 10201,12452 10201,12319 10068,12319 Z M 10085,12336 L 10184,12336 10184,12435 10085,12435 10085,12336 Z M 9845,13563 L 9845,12443 10814,11883 10814,13003 9845,13563 Z"/>
     <path fill="rgb(226,226,226)" stroke="none" d="M 10085,12336 L 10085,12435 10184,12435 10184,12336 10085,12336 Z M 10101,12352 L 10168,12352 10168,12419 10101,12419 10101,12352 Z M 9845,13563 L 9845,12443 10814,11883 10814,13003 9845,13563 Z"/>
     <path fill="rgb(227,227,227)" stroke="none" d="M 10101,12352 L 10101,12419 10168,12419 10168,12352 10101,12352 Z M 10118,12369 L 10151,12369 10151,12402 10118,12402 10118,12369 Z M 9845,13563 L 9845,12443 10814,11883 10814,13003 9845,13563 Z"/>
     <path fill="rgb(229,229,229)" stroke="none" d="M 10118,12369 L 10118,12402 10151,12402 10151,12369 10118,12369 Z M 9845,13563 L 9845,12443 10814,11883 10814,13003 9845,13563 Z"/>
     <path fill="none" stroke="rgb(255,255,255)" id="Drawing_2_0" stroke-width="40" stroke-linejoin="round" d="M 9845,13563 L 9845,12443 10814,11883 10814,13003 9845,13563 Z"/>
    </g>
    <g>
     <defs>
      <linearGradient id="Gradient_351" gradientUnits="userSpaceOnUse" x1="9844" y1="11323" x2="9844" y2="12443">
       <stop offset="0.1" stop-color="rgb(179,179,179)"/>
       <stop offset="1" stop-color="rgb(229,229,229)"/>
      </linearGradient>
     </defs>
     <path fill="url(#Gradient_351)" stroke="rgb(255,255,255)" id="Drawing_3_0" stroke-width="40" stroke-linejoin="round" d="M 9844,12443 L 8874,11883 9845,11323 10814,11883 9844,12443 Z"/>
    </g>
    <g>
     <path fill="rgb(179,179,179)" stroke="none" d="M 9966,13464 L 9966,12373 10087,12303 10087,13464 9966,13464 Z"/>
     <path fill="rgb(180,180,180)" stroke="none" d="M 10087,13464 L 10087,13703 9966,13773 9966,13464 10087,13464 Z M 9966,13449 L 9966,12373 10087,12303 10087,13449 9966,13449 Z"/>
     <path fill="rgb(181,181,181)" stroke="none" d="M 10087,13449 L 10087,13703 9966,13773 9966,13449 10087,13449 Z M 9966,13434 L 9966,12373 10087,12303 10087,13434 9966,13434 Z"/>
     <path fill="rgb(182,182,182)" stroke="none" d="M 10087,13434 L 10087,13703 9966,13773 9966,13434 10087,13434 Z M 9966,13420 L 9966,12373 10087,12303 10087,13420 9966,13420 Z"/>
     <path fill="rgb(183,183,183)" stroke="none" d="M 10087,13420 L 10087,13703 9966,13773 9966,13420 10087,13420 Z M 9966,13405 L 9966,12373 10087,12303 10087,13405 9966,13405 Z"/>
     <path fill="rgb(184,184,184)" stroke="none" d="M 10087,13405 L 10087,13703 9966,13773 9966,13405 10087,13405 Z M 9966,13390 L 9966,12373 10087,12303 10087,13390 9966,13390 Z"/>
     <path fill="rgb(185,185,185)" stroke="none" d="M 10087,13390 L 10087,13703 9966,13773 9966,13390 10087,13390 Z M 9966,13375 L 9966,12373 10087,12303 10087,13375 9966,13375 Z"/>
     <path fill="rgb(186,186,186)" stroke="none" d="M 10087,13375 L 10087,13703 9966,13773 9966,13375 10087,13375 Z M 9966,13361 L 9966,12373 10087,12303 10087,13361 9966,13361 Z"/>
     <path fill="rgb(187,187,187)" stroke="none" d="M 10087,13361 L 10087,13703 9966,13773 9966,13361 10087,13361 Z M 9966,13346 L 9966,12373 10087,12303 10087,13346 9966,13346 Z"/>
     <path fill="rgb(188,188,188)" stroke="none" d="M 10087,13346 L 10087,13703 9966,13773 9966,13346 10087,13346 Z M 9966,13331 L 9966,12373 10087,12303 10087,13331 9966,13331 Z"/>
     <path fill="rgb(189,189,189)" stroke="none" d="M 10087,13331 L 10087,13703 9966,13773 9966,13331 10087,13331 Z M 9966,13316 L 9966,12373 10087,12303 10087,13316 9966,13316 Z"/>
     <path fill="rgb(190,190,190)" stroke="none" d="M 10087,13316 L 10087,13703 9966,13773 9966,13316 10087,13316 Z M 9966,13302 L 9966,12373 10087,12303 10087,13302 9966,13302 Z"/>
     <path fill="rgb(191,191,191)" stroke="none" d="M 10087,13302 L 10087,13703 9966,13773 9966,13302 10087,13302 Z M 9966,13287 L 9966,12373 10087,12303 10087,13287 9966,13287 Z"/>
     <path fill="rgb(192,192,192)" stroke="none" d="M 10087,13287 L 10087,13703 9966,13773 9966,13287 10087,13287 Z M 9966,13272 L 9966,12373 10087,12303 10087,13272 9966,13272 Z"/>
     <path fill="rgb(193,193,193)" stroke="none" d="M 10087,13272 L 10087,13703 9966,13773 9966,13272 10087,13272 Z M 9966,13258 L 9966,12373 10087,12303 10087,13258 9966,13258 Z"/>
     <path fill="rgb(194,194,194)" stroke="none" d="M 10087,13258 L 10087,13703 9966,13773 9966,13258 10087,13258 Z M 9966,13243 L 9966,12373 10087,12303 10087,13243 9966,13243 Z"/>
     <path fill="rgb(195,195,195)" stroke="none" d="M 10087,13243 L 10087,13703 9966,13773 9966,13243 10087,13243 Z M 9966,13228 L 9966,12373 10087,12303 10087,13228 9966,13228 Z"/>
     <path fill="rgb(196,196,196)" stroke="none" d="M 10087,13228 L 10087,13703 9966,13773 9966,13228 10087,13228 Z M 9966,13213 L 9966,12373 10087,12303 10087,13213 9966,13213 Z"/>
     <path fill="rgb(197,197,197)" stroke="none" d="M 10087,13213 L 10087,13703 9966,13773 9966,13213 10087,13213 Z M 9966,13199 L 9966,12373 10087,12303 10087,13199 9966,13199 Z"/>
     <path fill="rgb(198,198,198)" stroke="none" d="M 10087,13199 L 10087,13703 9966,13773 9966,13199 10087,13199 Z M 9966,13184 L 9966,12373 10087,12303 10087,13184 9966,13184 Z"/>
     <path fill="rgb(199,199,199)" stroke="none" d="M 10087,13184 L 10087,13703 9966,13773 9966,13184 10087,13184 Z M 10087,12316 L 10087,13169 9966,13169 9966,12373 10065,12316 10087,12316 Z"/>
     <path fill="rgb(200,200,200)" stroke="none" d="M 10087,13169 L 10087,13703 9966,13773 9966,13169 10087,13169 Z M 10065,12316 L 10087,12303 10087,12316 10065,12316 Z M 10087,12331 L 10087,13154 9966,13154 9966,12373 10039,12331 10087,12331 Z"/>
     <path fill="rgb(201,201,201)" stroke="none" d="M 10087,13154 L 10087,13703 9966,13773 9966,13154 10087,13154 Z M 10039,12331 L 10087,12303 10087,12331 10039,12331 Z M 10087,12345 L 10087,13140 9966,13140 9966,12373 10014,12345 10087,12345 Z"/>
     <path fill="rgb(202,202,202)" stroke="none" d="M 10087,13140 L 10087,13703 9966,13773 9966,13140 10087,13140 Z M 10014,12345 L 10087,12303 10087,12345 10014,12345 Z M 10087,12360 L 10087,13125 9966,13125 9966,12373 9988,12360 10087,12360 Z"/>
     <path fill="rgb(203,203,203)" stroke="none" d="M 10087,13125 L 10087,13703 9966,13773 9966,13125 10087,13125 Z M 9988,12360 L 10087,12303 10087,12360 9988,12360 Z M 10087,12375 L 10087,13110 9966,13110 9966,12375 10087,12375 Z"/>
     <path fill="rgb(204,204,204)" stroke="none" d="M 10087,13110 L 10087,13703 9966,13773 9966,13110 10087,13110 Z M 9966,12375 L 9966,12373 10087,12303 10087,12375 9966,12375 Z M 10087,12389 L 10087,13096 9966,13096 9966,12389 10087,12389 Z"/>
     <path fill="rgb(205,205,205)" stroke="none" d="M 10087,13096 L 10087,13703 9966,13773 9966,13096 10087,13096 Z M 9966,12389 L 9966,12373 10087,12303 10087,12389 9966,12389 Z M 10087,12404 L 10087,13081 9966,13081 9966,12404 10087,12404 Z"/>
     <path fill="rgb(206,206,206)" stroke="none" d="M 10087,13081 L 10087,13703 9966,13773 9966,13081 10087,13081 Z M 9966,12404 L 9966,12373 10087,12303 10087,12404 9966,12404 Z M 10087,12419 L 10087,13066 9966,13066 9966,12419 10087,12419 Z"/>
     <path fill="rgb(207,207,207)" stroke="none" d="M 10087,13066 L 10087,13703 9966,13773 9966,13066 10087,13066 Z M 9966,12419 L 9966,12373 10087,12303 10087,12419 9966,12419 Z M 10087,12434 L 10087,13051 9966,13051 9966,12434 10087,12434 Z"/>
     <path fill="rgb(208,208,208)" stroke="none" d="M 10087,13051 L 10087,13703 9966,13773 9966,13051 10087,13051 Z M 9966,12434 L 9966,12373 10087,12303 10087,12434 9966,12434 Z M 10087,12448 L 10087,13037 9966,13037 9966,12448 10087,12448 Z"/>
     <path fill="rgb(209,209,209)" stroke="none" d="M 10087,13037 L 10087,13703 9966,13773 9966,13037 10087,13037 Z M 9966,12448 L 9966,12373 10087,12303 10087,12448 9966,12448 Z M 10087,12463 L 10087,13022 9966,13022 9966,12463 10087,12463 Z"/>
     <path fill="rgb(210,210,210)" stroke="none" d="M 10087,13022 L 10087,13703 9966,13773 9966,13022 10087,13022 Z M 9966,12463 L 9966,12373 10087,12303 10087,12463 9966,12463 Z M 10087,12478 L 10087,13007 9966,13007 9966,12478 10087,12478 Z"/>
     <path fill="rgb(211,211,211)" stroke="none" d="M 10087,13007 L 10087,13703 9966,13773 9966,13007 10087,13007 Z M 9966,12478 L 9966,12373 10087,12303 10087,12478 9966,12478 Z M 10087,12493 L 10087,12992 9966,12992 9966,12493 10087,12493 Z"/>
     <path fill="rgb(212,212,212)" stroke="none" d="M 10087,12992 L 10087,13703 9966,13773 9966,12992 10087,12992 Z M 9966,12493 L 9966,12373 10087,12303 10087,12493 9966,12493 Z M 10087,12507 L 10087,12978 9966,12978 9966,12507 10087,12507 Z"/>
     <path fill="rgb(213,213,213)" stroke="none" d="M 10087,12978 L 10087,13703 9966,13773 9966,12978 10087,12978 Z M 9966,12507 L 9966,12373 10087,12303 10087,12507 9966,12507 Z M 10087,12522 L 10087,12963 9966,12963 9966,12522 10087,12522 Z"/>
     <path fill="rgb(214,214,214)" stroke="none" d="M 10087,12963 L 10087,13703 9966,13773 9966,12963 10087,12963 Z M 9966,12522 L 9966,12373 10087,12303 10087,12522 9966,12522 Z M 10087,12537 L 10087,12948 9966,12948 9966,12537 10087,12537 Z"/>
     <path fill="rgb(215,215,215)" stroke="none" d="M 10087,12948 L 10087,13703 9966,13773 9966,12948 10087,12948 Z M 9966,12537 L 9966,12373 10087,12303 10087,12537 9966,12537 Z M 10087,12552 L 10087,12933 9966,12933 9966,12552 10087,12552 Z"/>
     <path fill="rgb(216,216,216)" stroke="none" d="M 10087,12933 L 10087,13703 9966,13773 9966,12933 10087,12933 Z M 9966,12552 L 9966,12373 10087,12303 10087,12552 9966,12552 Z M 10087,12566 L 10087,12919 9966,12919 9966,12566 10087,12566 Z"/>
     <path fill="rgb(217,217,217)" stroke="none" d="M 10087,12919 L 10087,13703 9966,13773 9966,12919 10087,12919 Z M 9966,12566 L 9966,12373 10087,12303 10087,12566 9966,12566 Z M 10087,12581 L 10087,12904 9966,12904 9966,12581 10087,12581 Z"/>
     <path fill="rgb(218,218,218)" stroke="none" d="M 10087,12904 L 10087,13703 9966,13773 9966,12904 10087,12904 Z M 9966,12581 L 9966,12373 10087,12303 10087,12581 9966,12581 Z M 10087,12596 L 10087,12889 9966,12889 9966,12596 10087,12596 Z"/>
     <path fill="rgb(219,219,219)" stroke="none" d="M 10087,12889 L 10087,13703 9966,13773 9966,12889 10087,12889 Z M 9966,12596 L 9966,12373 10087,12303 10087,12596 9966,12596 Z M 10087,12610 L 10087,12875 9966,12875 9966,12610 10087,12610 Z"/>
     <path fill="rgb(220,220,220)" stroke="none" d="M 10087,12875 L 10087,13703 9966,13773 9966,12875 10087,12875 Z M 9966,12610 L 9966,12373 10087,12303 10087,12610 9966,12610 Z M 10087,12625 L 10087,12860 9966,12860 9966,12625 10087,12625 Z"/>
     <path fill="rgb(221,221,221)" stroke="none" d="M 10087,12860 L 10087,13703 9966,13773 9966,12860 10087,12860 Z M 9966,12625 L 9966,12373 10087,12303 10087,12625 9966,12625 Z M 10087,12640 L 10087,12845 9966,12845 9966,12640 10087,12640 Z"/>
     <path fill="rgb(222,222,222)" stroke="none" d="M 10087,12845 L 10087,13703 9966,13773 9966,12845 10087,12845 Z M 9966,12640 L 9966,12373 10087,12303 10087,12640 9966,12640 Z M 10087,12655 L 10087,12830 9966,12830 9966,12655 10087,12655 Z"/>
     <path fill="rgb(223,223,223)" stroke="none" d="M 10087,12830 L 10087,13703 9966,13773 9966,12830 10087,12830 Z M 9966,12655 L 9966,12373 10087,12303 10087,12655 9966,12655 Z M 10075,12669 L 10075,12816 9966,12816 9966,12669 10075,12669 Z"/>
     <path fill="rgb(224,224,224)" stroke="none" d="M 10075,12816 L 10075,12669 9966,12669 9966,12373 10087,12303 10087,13703 9966,13773 9966,12816 10075,12816 Z M 10060,12684 L 10060,12801 9966,12801 9966,12684 10060,12684 Z"/>
     <path fill="rgb(225,225,225)" stroke="none" d="M 10060,12801 L 10060,12684 9966,12684 9966,12373 10087,12303 10087,13703 9966,13773 9966,12801 10060,12801 Z M 10045,12699 L 10045,12786 9966,12786 9966,12699 10045,12699 Z"/>
     <path fill="rgb(226,226,226)" stroke="none" d="M 10045,12786 L 10045,12699 9966,12699 9966,12373 10087,12303 10087,13703 9966,13773 9966,12786 10045,12786 Z M 9973,12714 L 10030,12714 10030,12771 9973,12771 9973,12714 Z"/>
     <path fill="rgb(227,227,227)" stroke="none" d="M 9973,12714 L 9973,12771 10030,12771 10030,12714 9973,12714 Z M 9987,12728 L 10016,12728 10016,12757 9987,12757 9987,12728 Z M 9966,13773 L 9966,12373 10087,12303 10087,13703 9966,13773 Z"/>
     <path fill="rgb(229,229,229)" stroke="none" d="M 9987,12728 L 9987,12757 10016,12757 10016,12728 9987,12728 Z M 9966,13773 L 9966,12373 10087,12303 10087,13703 9966,13773 Z"/>
     <path fill="none" stroke="rgb(255,255,255)" id="Drawing_4_0" stroke-width="40" stroke-linejoin="round" d="M 9966,13773 L 9966,12373 10087,12303 10087,13703 9966,13773 Z"/>
    </g>
    <g>
     <defs>
      <linearGradient id="Gradient_352" gradientUnits="userSpaceOnUse" x1="8750" y1="12722" x2="9967" y2="12724">
       <stop offset="0.1" stop-color="rgb(179,179,179)"/>
       <stop offset="1" stop-color="rgb(229,229,229)"/>
      </linearGradient>
     </defs>
     <path fill="url(#Gradient_352)" stroke="rgb(255,255,255)" id="Drawing_5_0" stroke-width="40" stroke-linejoin="round" d="M 8753,13073 L 8753,11673 9966,12373 9966,13773 8753,13073 Z"/>
    </g>
    <g>
     <defs>
      <linearGradient id="Gradient_353" gradientUnits="userSpaceOnUse" x1="9420" y1="11603" x2="9420" y2="12373">
       <stop offset="0.1" stop-color="rgb(179,179,179)"/>
       <stop offset="1" stop-color="rgb(229,229,229)"/>
      </linearGradient>
     </defs>
     <path fill="url(#Gradient_353)" stroke="rgb(255,255,255)" id="Drawing_6_0" stroke-width="40" stroke-linejoin="round" d="M 9966,12373 L 8753,11673 8875,11603 10087,12303 9966,12373 Z"/>
    </g>
    <g>
     <path fill="rgb(255,255,255)" stroke="none" d="M 8875,13003 L 8875,12863 8996,12933 8996,13073 8875,13003 Z"/>
     <path fill="none" stroke="rgb(127,127,127)" id="Drawing_7_0" stroke-width="40" stroke-linejoin="round" d="M 8875,13003 L 8875,12863 8996,12933 8996,13073 8875,13003 Z"/>
    </g>
    <g>
     <path fill="none" stroke="rgb(0,0,0)" id="Drawing_8_0" stroke-width="40" stroke-linejoin="round" d="M 8753,13073 L 8753,11673 8875,11603 9117,11743 9844,11323 10814,11883 10814,13003 10087,13423 10087,13703 9966,13773 8753,13073 Z"/>
    </g>
    <g>
     <defs>
      <linearGradient id="Gradient_354" gradientUnits="userSpaceOnUse" x1="8872" y1="12617" x2="9846" y2="12619">
       <stop offset="0.1" stop-color="rgb(147,212,240)"/>
       <stop offset="1" stop-color="rgb(233,246,252)"/>
      </linearGradient>
     </defs>
     <path fill="url(#Gradient_354)" stroke="rgb(102,102,102)" id="Drawing_9_0" stroke-width="40" stroke-linejoin="round" d="M 8873,12723 L 8874,11953 9844,12513 9845,13283 8873,12723 Z"/>
    </g>
    <g>
     <path fill="rgb(255,255,255)" stroke="none" d="M 9117,13143 L 9117,13003 9238,13073 9238,13213 9117,13143 Z"/>
     <path fill="none" stroke="rgb(127,127,127)" id="Drawing_10_0" stroke-width="40" stroke-linejoin="round" d="M 9117,13143 L 9117,13003 9238,13073 9238,13213 9117,13143 Z"/>
    </g>
    <g>
     <path fill="rgb(255,255,255)" stroke="none" d="M 9360,13283 L 9360,13143 9481,13213 9481,13353 9360,13283 Z"/>
     <path fill="none" stroke="rgb(127,127,127)" id="Drawing_11_0" stroke-width="40" stroke-linejoin="round" d="M 9360,13283 L 9360,13143 9481,13213 9481,13353 9360,13283 Z"/>
    </g>
   </g>
  </g>
 </g>
</svg>