<?xml version="1.0" encoding="UTF-8"?>

<svg version="1.2" baseProfile="tiny" width="24.73mm" height="24.9mm" viewBox="13231 9905 2473 2490" preserveAspectRatio="xMidYMid" fill-rule="evenodd" stroke-width="28.222" stroke-linejoin="round" xmlns="http://www.w3.org/2000/svg" xmlns:xlink="http://www.w3.org/1999/xlink" xml:space="preserve">
 <g visibility="visible" id="Slide_1">
  <g id="DrawingGroup_1">
   <g>
    <path fill="rgb(221,221,221)" stroke="none" d="M 14585,12235 C 15060,12235 15555,11955 15676,11745 15797,11535 15485,11395 15312,11395 15312,11695 14585,11834 14585,12235 Z"/>
    <path fill="none" stroke="rgb(221,221,221)" id="Drawing_1_0" stroke-linejoin="round" d="M 14585,12235 C 15060,12235 15555,11955 15676,11745 15797,11535 15485,11395 15312,11395 15312,11695 14585,11834 14585,12235 Z"/>
   </g>
   <g id="DrawingGroup_2">
    <g>
     <path fill="rgb(51,51,51)" stroke="none" d="M 14343,11818 L 14343,11045 15312,10485 15312,11605 14943,11818 14343,11818 Z"/>
     <path fill="rgb(52,52,52)" stroke="none" d="M 14943,11818 L 14343,12165 14343,11818 14943,11818 Z M 14343,11808 L 14343,11045 15312,10485 15312,11605 14961,11808 14343,11808 Z"/>
     <path fill="rgb(53,53,53)" stroke="none" d="M 14961,11808 L 14343,12165 14343,11808 14961,11808 Z M 14343,11798 L 14343,11045 15312,10485 15312,11605 14978,11798 14343,11798 Z"/>
     <path fill="rgb(54,54,54)" stroke="none" d="M 14978,11798 L 14343,12165 14343,11798 14978,11798 Z M 14343,11788 L 14343,11045 15312,10485 15312,11605 14995,11788 14343,11788 Z"/>
     <path fill="rgb(55,55,55)" stroke="none" d="M 14995,11788 L 14343,12165 14343,11788 14995,11788 Z M 14343,11778 L 14343,11045 15312,10485 15312,11605 15013,11778 14343,11778 Z"/>
     <path fill="rgb(57,57,57)" stroke="none" d="M 15013,11778 L 14343,12165 14343,11778 15013,11778 Z M 14343,11768 L 14343,11045 15312,10485 15312,11605 15030,11768 14343,11768 Z"/>
     <path fill="rgb(58,58,58)" stroke="none" d="M 15030,11768 L 14343,12165 14343,11768 15030,11768 Z M 14343,11758 L 14343,11045 15312,10485 15312,11605 15047,11758 14343,11758 Z"/>
     <path fill="rgb(59,59,59)" stroke="none" d="M 15047,11758 L 14343,12165 14343,11758 15047,11758 Z M 14343,11748 L 14343,11045 15312,10485 15312,11605 15065,11748 14343,11748 Z"/>
     <path fill="rgb(60,60,60)" stroke="none" d="M 15065,11748 L 14343,12165 14343,11748 15065,11748 Z M 14343,11738 L 14343,11045 15312,10485 15312,11605 15082,11738 14343,11738 Z"/>
     <path fill="rgb(61,61,61)" stroke="none" d="M 15082,11738 L 14343,12165 14343,11738 15082,11738 Z M 14343,11728 L 14343,11045 15312,10485 15312,11605 15099,11728 14343,11728 Z"/>
     <path fill="rgb(63,63,63)" stroke="none" d="M 15099,11728 L 14343,12165 14343,11728 15099,11728 Z M 14343,11718 L 14343,11045 15312,10485 15312,11605 15116,11718 14343,11718 Z"/>
     <path fill="rgb(64,64,64)" stroke="none" d="M 15116,11718 L 14343,12165 14343,11718 15116,11718 Z M 14343,11708 L 14343,11045 15312,10485 15312,11605 15134,11708 14343,11708 Z"/>
     <path fill="rgb(65,65,65)" stroke="none" d="M 15134,11708 L 14343,12165 14343,11708 15134,11708 Z M 14343,11698 L 14343,11045 15312,10485 15312,11605 15151,11698 14343,11698 Z"/>
     <path fill="rgb(66,66,66)" stroke="none" d="M 15151,11698 L 14343,12165 14343,11698 15151,11698 Z M 14343,11688 L 14343,11045 15312,10485 15312,11605 15168,11688 14343,11688 Z"/>
     <path fill="rgb(68,68,68)" stroke="none" d="M 15168,11688 L 14343,12165 14343,11688 15168,11688 Z M 14343,11678 L 14343,11045 15312,10485 15312,11605 15186,11678 14343,11678 Z"/>
     <path fill="rgb(69,69,69)" stroke="none" d="M 15186,11678 L 14343,12165 14343,11678 15186,11678 Z M 14343,11668 L 14343,11045 15312,10485 15312,11605 15203,11668 14343,11668 Z"/>
     <path fill="rgb(70,70,70)" stroke="none" d="M 15203,11668 L 14343,12165 14343,11668 15203,11668 Z M 15303,11610 L 15220,11658 14343,11658 14343,11045 15303,10490 15303,11610 Z"/>
     <path fill="rgb(71,71,71)" stroke="none" d="M 15220,11658 L 14343,12165 14343,11658 15220,11658 Z M 15303,10490 L 15312,10485 15312,11605 15303,11610 15303,10490 Z M 15293,11616 L 15238,11648 14343,11648 14343,11045 15293,10496 15293,11616 Z"/>
     <path fill="rgb(72,72,72)" stroke="none" d="M 15238,11648 L 14343,12165 14343,11648 15238,11648 Z M 15293,10496 L 15312,10485 15312,11605 15293,11616 15293,10496 Z M 15283,11622 L 15255,11638 14343,11638 14343,11045 15283,10502 15283,11622 Z"/>
     <path fill="rgb(74,74,74)" stroke="none" d="M 15255,11638 L 14343,12165 14343,11638 15255,11638 Z M 15283,10502 L 15312,10485 15312,11605 15283,11622 15283,10502 Z M 15273,11628 L 15272,11628 14343,11628 14343,11045 15273,10508 15273,11628 Z"/>
     <path fill="rgb(75,75,75)" stroke="none" d="M 15272,11628 L 14343,12165 14343,11628 15272,11628 Z M 15273,10508 L 15312,10485 15312,11605 15273,11628 15273,10508 Z M 15263,11618 L 14343,11618 14343,11045 15263,10513 15263,11618 Z"/>
     <path fill="rgb(76,76,76)" stroke="none" d="M 15263,11618 L 15263,10513 15312,10485 15312,11605 14343,12165 14343,11618 15263,11618 Z M 15253,11608 L 14343,11608 14343,11045 15253,10519 15253,11608 Z"/>
     <path fill="rgb(77,77,77)" stroke="none" d="M 15253,11608 L 15253,10519 15312,10485 15312,11605 14343,12165 14343,11608 15253,11608 Z M 15243,11598 L 14343,11598 14343,11045 15243,10525 15243,11598 Z"/>
     <path fill="rgb(78,78,78)" stroke="none" d="M 15243,11598 L 15243,10525 15312,10485 15312,11605 14343,12165 14343,11598 15243,11598 Z M 15233,11588 L 14343,11588 14343,11045 15233,10531 15233,11588 Z"/>
     <path fill="rgb(80,80,80)" stroke="none" d="M 15233,11588 L 15233,10531 15312,10485 15312,11605 14343,12165 14343,11588 15233,11588 Z M 15223,11578 L 14343,11578 14343,11045 15223,10536 15223,11578 Z"/>
     <path fill="rgb(81,81,81)" stroke="none" d="M 15223,11578 L 15223,10536 15312,10485 15312,11605 14343,12165 14343,11578 15223,11578 Z M 15213,11568 L 14343,11568 14343,11045 15213,10542 15213,11568 Z"/>
     <path fill="rgb(82,82,82)" stroke="none" d="M 15213,11568 L 15213,10542 15312,10485 15312,11605 14343,12165 14343,11568 15213,11568 Z M 15203,11558 L 14343,11558 14343,11045 15203,10548 15203,11558 Z"/>
     <path fill="rgb(83,83,83)" stroke="none" d="M 15203,11558 L 15203,10548 15312,10485 15312,11605 14343,12165 14343,11558 15203,11558 Z M 15193,11548 L 14343,11548 14343,11045 15193,10554 15193,11548 Z"/>
     <path fill="rgb(85,85,85)" stroke="none" d="M 15193,11548 L 15193,10554 15312,10485 15312,11605 14343,12165 14343,11548 15193,11548 Z M 15183,11538 L 14343,11538 14343,11045 15183,10560 15183,11538 Z"/>
     <path fill="rgb(86,86,86)" stroke="none" d="M 15183,11538 L 15183,10560 15312,10485 15312,11605 14343,12165 14343,11538 15183,11538 Z M 15173,11528 L 14343,11528 14343,11045 15173,10565 15173,11528 Z"/>
     <path fill="rgb(87,87,87)" stroke="none" d="M 15173,11528 L 15173,10565 15312,10485 15312,11605 14343,12165 14343,11528 15173,11528 Z M 15163,11518 L 14343,11518 14343,11045 15163,10571 15163,11518 Z"/>
     <path fill="rgb(88,88,88)" stroke="none" d="M 15163,11518 L 15163,10571 15312,10485 15312,11605 14343,12165 14343,11518 15163,11518 Z M 15153,11508 L 14343,11508 14343,11045 15153,10577 15153,11508 Z"/>
     <path fill="rgb(89,89,89)" stroke="none" d="M 15153,11508 L 15153,10577 15312,10485 15312,11605 14343,12165 14343,11508 15153,11508 Z M 15143,11498 L 14343,11498 14343,11045 15143,10583 15143,11498 Z"/>
     <path fill="rgb(91,91,91)" stroke="none" d="M 15143,11498 L 15143,10583 15312,10485 15312,11605 14343,12165 14343,11498 15143,11498 Z M 15133,11488 L 14343,11488 14343,11045 15133,10588 15133,11488 Z"/>
     <path fill="rgb(92,92,92)" stroke="none" d="M 15133,11488 L 15133,10588 15312,10485 15312,11605 14343,12165 14343,11488 15133,11488 Z M 15123,11478 L 14343,11478 14343,11045 15123,10594 15123,11478 Z"/>
     <path fill="rgb(93,93,93)" stroke="none" d="M 15123,11478 L 15123,10594 15312,10485 15312,11605 14343,12165 14343,11478 15123,11478 Z M 15113,11468 L 14343,11468 14343,11045 15113,10600 15113,11468 Z"/>
     <path fill="rgb(94,94,94)" stroke="none" d="M 15113,11468 L 15113,10600 15312,10485 15312,11605 14343,12165 14343,11468 15113,11468 Z M 15103,11458 L 14343,11458 14343,11045 15103,10606 15103,11458 Z"/>
     <path fill="rgb(95,95,95)" stroke="none" d="M 15103,11458 L 15103,10606 15312,10485 15312,11605 14343,12165 14343,11458 15103,11458 Z M 15093,11448 L 14343,11448 14343,11045 15093,10612 15093,11448 Z"/>
     <path fill="rgb(97,97,97)" stroke="none" d="M 15093,11448 L 15093,10612 15312,10485 15312,11605 14343,12165 14343,11448 15093,11448 Z M 15083,11438 L 14343,11438 14343,11045 15083,10617 15083,11438 Z"/>
     <path fill="rgb(98,98,98)" stroke="none" d="M 15083,11438 L 15083,10617 15312,10485 15312,11605 14343,12165 14343,11438 15083,11438 Z M 15073,11428 L 14343,11428 14343,11045 15073,10623 15073,11428 Z"/>
     <path fill="rgb(99,99,99)" stroke="none" d="M 15073,11428 L 15073,10623 15312,10485 15312,11605 14343,12165 14343,11428 15073,11428 Z M 15063,11418 L 14343,11418 14343,11045 15063,10629 15063,11418 Z"/>
     <path fill="rgb(100,100,100)" stroke="none" d="M 15063,11418 L 15063,10629 15312,10485 15312,11605 14343,12165 14343,11418 15063,11418 Z M 15053,11408 L 14343,11408 14343,11045 15053,10635 15053,11408 Z"/>
     <path fill="rgb(102,102,102)" stroke="none" d="M 15053,11408 L 15053,10635 15312,10485 15312,11605 14343,12165 14343,11408 15053,11408 Z M 15043,11398 L 14343,11398 14343,11045 15043,10640 15043,11398 Z"/>
     <path fill="rgb(103,103,103)" stroke="none" d="M 15043,11398 L 15043,10640 15312,10485 15312,11605 14343,12165 14343,11398 15043,11398 Z M 15033,11388 L 14343,11388 14343,11045 15033,10646 15033,11388 Z"/>
     <path fill="rgb(104,104,104)" stroke="none" d="M 15033,11388 L 15033,10646 15312,10485 15312,11605 14343,12165 14343,11388 15033,11388 Z M 15023,11378 L 14343,11378 14343,11045 15023,10652 15023,11378 Z"/>
     <path fill="rgb(105,105,105)" stroke="none" d="M 15023,11378 L 15023,10652 15312,10485 15312,11605 14343,12165 14343,11378 15023,11378 Z M 15013,11368 L 14343,11368 14343,11045 15013,10658 15013,11368 Z"/>
     <path fill="rgb(106,106,106)" stroke="none" d="M 15013,11368 L 15013,10658 15312,10485 15312,11605 14343,12165 14343,11368 15013,11368 Z M 15003,11358 L 14343,11358 14343,11045 15003,10664 15003,11358 Z"/>
     <path fill="rgb(108,108,108)" stroke="none" d="M 15003,11358 L 15003,10664 15312,10485 15312,11605 14343,12165 14343,11358 15003,11358 Z M 14993,11348 L 14343,11348 14343,11045 14993,10669 14993,11348 Z"/>
     <path fill="rgb(109,109,109)" stroke="none" d="M 14993,11348 L 14993,10669 15312,10485 15312,11605 14343,12165 14343,11348 14993,11348 Z M 14983,11338 L 14343,11338 14343,11045 14983,10675 14983,11338 Z"/>
     <path fill="rgb(110,110,110)" stroke="none" d="M 14983,11338 L 14983,10675 15312,10485 15312,11605 14343,12165 14343,11338 14983,11338 Z M 14973,11328 L 14343,11328 14343,11045 14973,10681 14973,11328 Z"/>
     <path fill="rgb(111,111,111)" stroke="none" d="M 14973,11328 L 14973,10681 15312,10485 15312,11605 14343,12165 14343,11328 14973,11328 Z M 14963,11318 L 14343,11318 14343,11045 14963,10687 14963,11318 Z"/>
     <path fill="rgb(112,112,112)" stroke="none" d="M 14963,11318 L 14963,10687 15312,10485 15312,11605 14343,12165 14343,11318 14963,11318 Z M 14953,11308 L 14343,11308 14343,11045 14953,10692 14953,11308 Z"/>
     <path fill="rgb(114,114,114)" stroke="none" d="M 14953,11308 L 14953,10692 15312,10485 15312,11605 14343,12165 14343,11308 14953,11308 Z M 14943,11298 L 14343,11298 14343,11045 14943,10698 14943,11298 Z"/>
     <path fill="rgb(115,115,115)" stroke="none" d="M 14943,11298 L 14943,10698 15312,10485 15312,11605 14343,12165 14343,11298 14943,11298 Z M 14933,11288 L 14343,11288 14343,11045 14933,10704 14933,11288 Z"/>
     <path fill="rgb(116,116,116)" stroke="none" d="M 14933,11288 L 14933,10704 15312,10485 15312,11605 14343,12165 14343,11288 14933,11288 Z M 14923,11278 L 14343,11278 14343,11045 14923,10710 14923,11278 Z"/>
     <path fill="rgb(117,117,117)" stroke="none" d="M 14923,11278 L 14923,10710 15312,10485 15312,11605 14343,12165 14343,11278 14923,11278 Z M 14913,11268 L 14353,11268 14353,11039 14913,10716 14913,11268 Z"/>
     <path fill="rgb(119,119,119)" stroke="none" d="M 14353,11268 L 14913,11268 14913,10716 15312,10485 15312,11605 14343,12165 14343,11045 14353,11039 14353,11268 Z M 14902,11257 L 14363,11257 14363,11033 14902,10722 14902,11257 Z"/>
     <path fill="rgb(120,120,120)" stroke="none" d="M 14363,11257 L 14902,11257 14902,10722 15312,10485 15312,11605 14343,12165 14343,11045 14363,11033 14363,11257 Z M 14892,10728 L 14892,11247 14373,11247 14373,11028 14892,10728 14892,10728 Z"/>
     <path fill="rgb(121,121,121)" stroke="none" d="M 14373,11247 L 14892,11247 14892,10728 14892,10728 15312,10485 15312,11605 14343,12165 14343,11045 14373,11028 14373,11247 Z M 14882,10738 L 14882,11237 14383,11237 14383,11022 14874,10738 14882,10738 Z"/>
     <path fill="rgb(122,122,122)" stroke="none" d="M 14383,11237 L 14882,11237 14882,10738 14874,10738 15312,10485 15312,11605 14343,12165 14343,11045 14383,11022 14383,11237 Z M 14872,10748 L 14872,11227 14393,11227 14393,11016 14857,10748 14872,10748 Z"/>
     <path fill="rgb(123,123,123)" stroke="none" d="M 14393,11227 L 14872,11227 14872,10748 14857,10748 15312,10485 15312,11605 14343,12165 14343,11045 14393,11016 14393,11227 Z M 14862,10758 L 14862,11217 14403,11217 14403,11010 14840,10758 14862,10758 Z"/>
     <path fill="rgb(125,125,125)" stroke="none" d="M 14403,11217 L 14862,11217 14862,10758 14840,10758 15312,10485 15312,11605 14343,12165 14343,11045 14403,11010 14403,11217 Z M 14852,10768 L 14852,11207 14413,11207 14413,11005 14822,10768 14852,10768 Z"/>
     <path fill="rgb(126,126,126)" stroke="none" d="M 14413,11207 L 14852,11207 14852,10768 14822,10768 15312,10485 15312,11605 14343,12165 14343,11045 14413,11005 14413,11207 Z M 14842,10778 L 14842,11197 14423,11197 14423,10999 14805,10778 14842,10778 Z"/>
     <path fill="rgb(127,127,127)" stroke="none" d="M 14423,11197 L 14842,11197 14842,10778 14805,10778 15312,10485 15312,11605 14343,12165 14343,11045 14423,10999 14423,11197 Z M 14832,10788 L 14832,11187 14433,11187 14433,10993 14788,10788 14832,10788 Z"/>
     <path fill="rgb(128,128,128)" stroke="none" d="M 14433,11187 L 14832,11187 14832,10788 14788,10788 15312,10485 15312,11605 14343,12165 14343,11045 14433,10993 14433,11187 Z M 14822,10798 L 14822,11177 14443,11177 14443,10987 14770,10798 14822,10798 Z"/>
     <path fill="rgb(129,129,129)" stroke="none" d="M 14443,11177 L 14822,11177 14822,10798 14770,10798 15312,10485 15312,11605 14343,12165 14343,11045 14443,10987 14443,11177 Z M 14812,10808 L 14812,11167 14453,11167 14453,10981 14753,10808 14812,10808 Z"/>
     <path fill="rgb(131,131,131)" stroke="none" d="M 14453,11167 L 14812,11167 14812,10808 14753,10808 15312,10485 15312,11605 14343,12165 14343,11045 14453,10981 14453,11167 Z M 14802,10818 L 14802,11157 14463,11157 14463,10976 14736,10818 14802,10818 Z"/>
     <path fill="rgb(132,132,132)" stroke="none" d="M 14463,11157 L 14802,11157 14802,10818 14736,10818 15312,10485 15312,11605 14343,12165 14343,11045 14463,10976 14463,11157 Z M 14792,10828 L 14792,11147 14473,11147 14473,10970 14718,10828 14792,10828 Z"/>
     <path fill="rgb(133,133,133)" stroke="none" d="M 14473,11147 L 14792,11147 14792,10828 14718,10828 15312,10485 15312,11605 14343,12165 14343,11045 14473,10970 14473,11147 Z M 14782,10838 L 14782,11137 14483,11137 14483,10964 14701,10838 14782,10838 Z"/>
     <path fill="rgb(134,134,134)" stroke="none" d="M 14483,11137 L 14782,11137 14782,10838 14701,10838 15312,10485 15312,11605 14343,12165 14343,11045 14483,10964 14483,11137 Z M 14772,10848 L 14772,11127 14493,11127 14493,10958 14684,10848 14772,10848 Z"/>
     <path fill="rgb(136,136,136)" stroke="none" d="M 14493,11127 L 14772,11127 14772,10848 14684,10848 15312,10485 15312,11605 14343,12165 14343,11045 14493,10958 14493,11127 Z M 14762,10858 L 14762,11117 14503,11117 14503,10953 14667,10858 14762,10858 Z"/>
     <path fill="rgb(137,137,137)" stroke="none" d="M 14503,11117 L 14762,11117 14762,10858 14667,10858 15312,10485 15312,11605 14343,12165 14343,11045 14503,10953 14503,11117 Z M 14752,10868 L 14752,11107 14513,11107 14513,10947 14649,10868 14752,10868 Z"/>
     <path fill="rgb(138,138,138)" stroke="none" d="M 14513,11107 L 14752,11107 14752,10868 14649,10868 15312,10485 15312,11605 14343,12165 14343,11045 14513,10947 14513,11107 Z M 14742,10878 L 14742,11097 14523,11097 14523,10941 14632,10878 14742,10878 Z"/>
     <path fill="rgb(139,139,139)" stroke="none" d="M 14523,11097 L 14742,11097 14742,10878 14632,10878 15312,10485 15312,11605 14343,12165 14343,11045 14523,10941 14523,11097 Z M 14732,10888 L 14732,11087 14533,11087 14533,10935 14615,10888 14732,10888 Z"/>
     <path fill="rgb(140,140,140)" stroke="none" d="M 14533,11087 L 14732,11087 14732,10888 14615,10888 15312,10485 15312,11605 14343,12165 14343,11045 14533,10935 14533,11087 Z M 14722,10898 L 14722,11077 14543,11077 14543,10929 14597,10898 14722,10898 Z"/>
     <path fill="rgb(142,142,142)" stroke="none" d="M 14543,11077 L 14722,11077 14722,10898 14597,10898 15312,10485 15312,11605 14343,12165 14343,11045 14543,10929 14543,11077 Z M 14712,10908 L 14712,11067 14553,11067 14553,10924 14580,10908 14712,10908 Z"/>
     <path fill="rgb(143,143,143)" stroke="none" d="M 14553,11067 L 14712,11067 14712,10908 14580,10908 15312,10485 15312,11605 14343,12165 14343,11045 14553,10924 14553,11067 Z M 14563,10918 L 14702,10918 14702,11057 14563,11057 14563,10918 Z"/>
     <path fill="rgb(144,144,144)" stroke="none" d="M 14563,10918 L 14563,11057 14702,11057 14702,10918 14563,10918 Z M 14573,10928 L 14692,10928 14692,11047 14573,11047 14573,10928 Z M 14343,12165 L 14343,11045 15312,10485 15312,11605 14343,12165 Z"/>
     <path fill="rgb(145,145,145)" stroke="none" d="M 14573,10928 L 14573,11047 14692,11047 14692,10928 14573,10928 Z M 14583,10938 L 14682,10938 14682,11037 14583,11037 14583,10938 Z M 14343,12165 L 14343,11045 15312,10485 15312,11605 14343,12165 Z"/>
     <path fill="rgb(146,146,146)" stroke="none" d="M 14583,10938 L 14583,11037 14682,11037 14682,10938 14583,10938 Z M 14593,10948 L 14672,10948 14672,11027 14593,11027 14593,10948 Z M 14343,12165 L 14343,11045 15312,10485 15312,11605 14343,12165 Z"/>
     <path fill="rgb(148,148,148)" stroke="none" d="M 14593,10948 L 14593,11027 14672,11027 14672,10948 14593,10948 Z M 14603,10958 L 14662,10958 14662,11017 14603,11017 14603,10958 Z M 14343,12165 L 14343,11045 15312,10485 15312,11605 14343,12165 Z"/>
     <path fill="rgb(149,149,149)" stroke="none" d="M 14603,10958 L 14603,11017 14662,11017 14662,10958 14603,10958 Z M 14613,10968 L 14652,10968 14652,11007 14613,11007 14613,10968 Z M 14343,12165 L 14343,11045 15312,10485 15312,11605 14343,12165 Z"/>
     <path fill="rgb(150,150,150)" stroke="none" d="M 14613,10968 L 14613,11007 14652,11007 14652,10968 14613,10968 Z M 14623,10978 L 14642,10978 14642,10997 14623,10997 14623,10978 Z M 14343,12165 L 14343,11045 15312,10485 15312,11605 14343,12165 Z"/>
     <path fill="rgb(153,153,153)" stroke="none" d="M 14623,10978 L 14623,10997 14642,10997 14642,10978 14623,10978 Z M 14343,12165 L 14343,11045 15312,10485 15312,11605 14343,12165 Z"/>
     <path fill="none" stroke="rgb(178,178,178)" id="Drawing_2_0" stroke-width="40" stroke-linejoin="round" d="M 14343,12165 L 14343,11045 15312,10485 15312,11605 14343,12165 Z"/>
    </g>
    <g>
     <defs>
      <linearGradient id="Gradient_355" gradientUnits="userSpaceOnUse" x1="14342" y1="9925" x2="14342" y2="11045">
       <stop offset="0.1" stop-color="rgb(51,51,51)"/>
       <stop offset="1" stop-color="rgb(153,153,153)"/>
      </linearGradient>
     </defs>
     <path fill="url(#Gradient_355)" stroke="rgb(178,178,178)" id="Drawing_3_0" stroke-width="40" stroke-linejoin="round" d="M 14342,11045 L 13372,10485 14343,9925 15312,10485 14342,11045 Z"/>
    </g>
    <g>
     <path fill="rgb(51,51,51)" stroke="none" d="M 14464,12070 L 14464,10975 14585,10905 14585,12070 14464,12070 Z"/>
     <path fill="rgb(52,52,52)" stroke="none" d="M 14585,12070 L 14585,12305 14464,12375 14464,12070 14585,12070 Z M 14464,12060 L 14464,10975 14585,10905 14585,12060 14464,12060 Z"/>
     <path fill="rgb(53,53,53)" stroke="none" d="M 14585,12060 L 14585,12305 14464,12375 14464,12060 14585,12060 Z M 14464,12050 L 14464,10975 14585,10905 14585,12050 14464,12050 Z"/>
     <path fill="rgb(55,55,55)" stroke="none" d="M 14585,12050 L 14585,12305 14464,12375 14464,12050 14585,12050 Z M 14464,12040 L 14464,10975 14585,10905 14585,12040 14464,12040 Z"/>
     <path fill="rgb(56,56,56)" stroke="none" d="M 14585,12040 L 14585,12305 14464,12375 14464,12040 14585,12040 Z M 14464,12030 L 14464,10975 14585,10905 14585,12030 14464,12030 Z"/>
     <path fill="rgb(57,57,57)" stroke="none" d="M 14585,12030 L 14585,12305 14464,12375 14464,12030 14585,12030 Z M 14464,12020 L 14464,10975 14585,10905 14585,12020 14464,12020 Z"/>
     <path fill="rgb(59,59,59)" stroke="none" d="M 14585,12020 L 14585,12305 14464,12375 14464,12020 14585,12020 Z M 14464,12010 L 14464,10975 14585,10905 14585,12010 14464,12010 Z"/>
     <path fill="rgb(60,60,60)" stroke="none" d="M 14585,12010 L 14585,12305 14464,12375 14464,12010 14585,12010 Z M 14464,12000 L 14464,10975 14585,10905 14585,12000 14464,12000 Z"/>
     <path fill="rgb(62,62,62)" stroke="none" d="M 14585,12000 L 14585,12305 14464,12375 14464,12000 14585,12000 Z M 14464,11990 L 14464,10975 14585,10905 14585,11990 14464,11990 Z"/>
     <path fill="rgb(63,63,63)" stroke="none" d="M 14585,11990 L 14585,12305 14464,12375 14464,11990 14585,11990 Z M 14464,11980 L 14464,10975 14585,10905 14585,11980 14464,11980 Z"/>
     <path fill="rgb(64,64,64)" stroke="none" d="M 14585,11980 L 14585,12305 14464,12375 14464,11980 14585,11980 Z M 14464,11970 L 14464,10975 14585,10905 14585,11970 14464,11970 Z"/>
     <path fill="rgb(66,66,66)" stroke="none" d="M 14585,11970 L 14585,12305 14464,12375 14464,11970 14585,11970 Z M 14464,11959 L 14464,10975 14585,10905 14585,11959 14464,11959 Z"/>
     <path fill="rgb(67,67,67)" stroke="none" d="M 14585,11959 L 14585,12305 14464,12375 14464,11959 14585,11959 Z M 14464,11949 L 14464,10975 14585,10905 14585,11949 14464,11949 Z"/>
     <path fill="rgb(69,69,69)" stroke="none" d="M 14585,11949 L 14585,12305 14464,12375 14464,11949 14585,11949 Z M 14464,11939 L 14464,10975 14585,10905 14585,11939 14464,11939 Z"/>
     <path fill="rgb(70,70,70)" stroke="none" d="M 14585,11939 L 14585,12305 14464,12375 14464,11939 14585,11939 Z M 14464,11929 L 14464,10975 14585,10905 14585,11929 14464,11929 Z"/>
     <path fill="rgb(71,71,71)" stroke="none" d="M 14585,11929 L 14585,12305 14464,12375 14464,11929 14585,11929 Z M 14464,11919 L 14464,10975 14585,10905 14585,11919 14464,11919 Z"/>
     <path fill="rgb(73,73,73)" stroke="none" d="M 14585,11919 L 14585,12305 14464,12375 14464,11919 14585,11919 Z M 14464,11909 L 14464,10975 14585,10905 14585,11909 14464,11909 Z"/>
     <path fill="rgb(74,74,74)" stroke="none" d="M 14585,11909 L 14585,12305 14464,12375 14464,11909 14585,11909 Z M 14464,11899 L 14464,10975 14585,10905 14585,11899 14464,11899 Z"/>
     <path fill="rgb(76,76,76)" stroke="none" d="M 14585,11899 L 14585,12305 14464,12375 14464,11899 14585,11899 Z M 14464,11889 L 14464,10975 14585,10905 14585,11889 14464,11889 Z"/>
     <path fill="rgb(77,77,77)" stroke="none" d="M 14585,11889 L 14585,12305 14464,12375 14464,11889 14585,11889 Z M 14464,11879 L 14464,10975 14585,10905 14585,11879 14464,11879 Z"/>
     <path fill="rgb(78,78,78)" stroke="none" d="M 14585,11879 L 14585,12305 14464,12375 14464,11879 14585,11879 Z M 14464,11869 L 14464,10975 14585,10905 14585,11869 14464,11869 Z"/>
     <path fill="rgb(80,80,80)" stroke="none" d="M 14585,11869 L 14585,12305 14464,12375 14464,11869 14585,11869 Z M 14464,11859 L 14464,10975 14585,10905 14585,11859 14464,11859 Z"/>
     <path fill="rgb(81,81,81)" stroke="none" d="M 14585,11859 L 14585,12305 14464,12375 14464,11859 14585,11859 Z M 14464,11848 L 14464,10975 14585,10905 14585,11848 14464,11848 Z"/>
     <path fill="rgb(83,83,83)" stroke="none" d="M 14585,11848 L 14585,12305 14464,12375 14464,11848 14585,11848 Z M 14464,11838 L 14464,10975 14585,10905 14585,11838 14464,11838 Z"/>
     <path fill="rgb(84,84,84)" stroke="none" d="M 14585,11838 L 14585,12305 14464,12375 14464,11838 14585,11838 Z M 14464,11828 L 14464,10975 14585,10905 14585,11828 14464,11828 Z"/>
     <path fill="rgb(85,85,85)" stroke="none" d="M 14585,11828 L 14585,12305 14464,12375 14464,11828 14585,11828 Z M 14464,11818 L 14464,10975 14585,10905 14585,11818 14464,11818 Z"/>
     <path fill="rgb(87,87,87)" stroke="none" d="M 14585,11818 L 14585,12305 14464,12375 14464,11818 14585,11818 Z M 14464,11808 L 14464,10975 14585,10905 14585,11808 14464,11808 Z"/>
     <path fill="rgb(88,88,88)" stroke="none" d="M 14585,11808 L 14585,12305 14464,12375 14464,11808 14585,11808 Z M 14464,11798 L 14464,10975 14585,10905 14585,11798 14464,11798 Z"/>
     <path fill="rgb(90,90,90)" stroke="none" d="M 14585,11798 L 14585,12305 14464,12375 14464,11798 14585,11798 Z M 14464,11788 L 14464,10975 14585,10905 14585,11788 14464,11788 Z"/>
     <path fill="rgb(91,91,91)" stroke="none" d="M 14585,11788 L 14585,12305 14464,12375 14464,11788 14585,11788 Z M 14585,10911 L 14585,11778 14464,11778 14464,10975 14575,10911 14585,10911 Z"/>
     <path fill="rgb(92,92,92)" stroke="none" d="M 14585,11778 L 14585,12305 14464,12375 14464,11778 14585,11778 Z M 14575,10911 L 14585,10905 14585,10911 14575,10911 Z M 14585,10921 L 14585,11768 14464,11768 14464,10975 14557,10921 14585,10921 Z"/>
     <path fill="rgb(94,94,94)" stroke="none" d="M 14585,11768 L 14585,12305 14464,12375 14464,11768 14585,11768 Z M 14557,10921 L 14585,10905 14585,10921 14557,10921 Z M 14585,10931 L 14585,11758 14464,11758 14464,10975 14540,10931 14585,10931 Z"/>
     <path fill="rgb(95,95,95)" stroke="none" d="M 14585,11758 L 14585,12305 14464,12375 14464,11758 14585,11758 Z M 14540,10931 L 14585,10905 14585,10931 14540,10931 Z M 14585,10941 L 14585,11748 14464,11748 14464,10975 14523,10941 14585,10941 Z"/>
     <path fill="rgb(97,97,97)" stroke="none" d="M 14585,11748 L 14585,12305 14464,12375 14464,11748 14585,11748 Z M 14523,10941 L 14585,10905 14585,10941 14523,10941 Z M 14585,10952 L 14585,11737 14464,11737 14464,10975 14504,10952 14585,10952 Z"/>
     <path fill="rgb(98,98,98)" stroke="none" d="M 14585,11737 L 14585,12305 14464,12375 14464,11737 14585,11737 Z M 14504,10952 L 14585,10905 14585,10952 14504,10952 Z M 14585,10962 L 14585,11727 14464,11727 14464,10975 14486,10962 14585,10962 Z"/>
     <path fill="rgb(99,99,99)" stroke="none" d="M 14585,11727 L 14585,12305 14464,12375 14464,11727 14585,11727 Z M 14486,10962 L 14585,10905 14585,10962 14486,10962 Z M 14585,10972 L 14585,11717 14464,11717 14464,10975 14469,10972 14585,10972 Z"/>
     <path fill="rgb(101,101,101)" stroke="none" d="M 14585,11717 L 14585,12305 14464,12375 14464,11717 14585,11717 Z M 14469,10972 L 14585,10905 14585,10972 14469,10972 Z M 14585,10982 L 14585,11707 14464,11707 14464,10982 14585,10982 Z"/>
     <path fill="rgb(102,102,102)" stroke="none" d="M 14585,11707 L 14585,12305 14464,12375 14464,11707 14585,11707 Z M 14464,10982 L 14464,10975 14585,10905 14585,10982 14464,10982 Z M 14585,10992 L 14585,11697 14464,11697 14464,10992 14585,10992 Z"/>
     <path fill="rgb(104,104,104)" stroke="none" d="M 14585,11697 L 14585,12305 14464,12375 14464,11697 14585,11697 Z M 14464,10992 L 14464,10975 14585,10905 14585,10992 14464,10992 Z M 14585,11002 L 14585,11687 14464,11687 14464,11002 14585,11002 Z"/>
     <path fill="rgb(105,105,105)" stroke="none" d="M 14585,11687 L 14585,12305 14464,12375 14464,11687 14585,11687 Z M 14464,11002 L 14464,10975 14585,10905 14585,11002 14464,11002 Z M 14585,11012 L 14585,11677 14464,11677 14464,11012 14585,11012 Z"/>
     <path fill="rgb(106,106,106)" stroke="none" d="M 14585,11677 L 14585,12305 14464,12375 14464,11677 14585,11677 Z M 14464,11012 L 14464,10975 14585,10905 14585,11012 14464,11012 Z M 14585,11022 L 14585,11667 14464,11667 14464,11022 14585,11022 Z"/>
     <path fill="rgb(108,108,108)" stroke="none" d="M 14585,11667 L 14585,12305 14464,12375 14464,11667 14585,11667 Z M 14464,11022 L 14464,10975 14585,10905 14585,11022 14464,11022 Z M 14585,11032 L 14585,11657 14464,11657 14464,11032 14585,11032 Z"/>
     <path fill="rgb(109,109,109)" stroke="none" d="M 14585,11657 L 14585,12305 14464,12375 14464,11657 14585,11657 Z M 14464,11032 L 14464,10975 14585,10905 14585,11032 14464,11032 Z M 14585,11042 L 14585,11647 14464,11647 14464,11042 14585,11042 Z"/>
     <path fill="rgb(111,111,111)" stroke="none" d="M 14585,11647 L 14585,12305 14464,12375 14464,11647 14585,11647 Z M 14464,11042 L 14464,10975 14585,10905 14585,11042 14464,11042 Z M 14585,11052 L 14585,11637 14464,11637 14464,11052 14585,11052 Z"/>
     <path fill="rgb(112,112,112)" stroke="none" d="M 14585,11637 L 14585,12305 14464,12375 14464,11637 14585,11637 Z M 14464,11052 L 14464,10975 14585,10905 14585,11052 14464,11052 Z M 14585,11063 L 14585,11626 14464,11626 14464,11063 14585,11063 Z"/>
     <path fill="rgb(113,113,113)" stroke="none" d="M 14585,11626 L 14585,12305 14464,12375 14464,11626 14585,11626 Z M 14464,11063 L 14464,10975 14585,10905 14585,11063 14464,11063 Z M 14585,11073 L 14585,11616 14464,11616 14464,11073 14585,11073 Z"/>
     <path fill="rgb(115,115,115)" stroke="none" d="M 14585,11616 L 14585,12305 14464,12375 14464,11616 14585,11616 Z M 14464,11073 L 14464,10975 14585,10905 14585,11073 14464,11073 Z M 14585,11083 L 14585,11606 14464,11606 14464,11083 14585,11083 Z"/>
     <path fill="rgb(116,116,116)" stroke="none" d="M 14585,11606 L 14585,12305 14464,12375 14464,11606 14585,11606 Z M 14464,11083 L 14464,10975 14585,10905 14585,11083 14464,11083 Z M 14585,11093 L 14585,11596 14464,11596 14464,11093 14585,11093 Z"/>
     <path fill="rgb(118,118,118)" stroke="none" d="M 14585,11596 L 14585,12305 14464,12375 14464,11596 14585,11596 Z M 14464,11093 L 14464,10975 14585,10905 14585,11093 14464,11093 Z M 14585,11103 L 14585,11586 14464,11586 14464,11103 14585,11103 Z"/>
     <path fill="rgb(119,119,119)" stroke="none" d="M 14585,11586 L 14585,12305 14464,12375 14464,11586 14585,11586 Z M 14464,11103 L 14464,10975 14585,10905 14585,11103 14464,11103 Z M 14585,11113 L 14585,11576 14464,11576 14464,11113 14585,11113 Z"/>
     <path fill="rgb(120,120,120)" stroke="none" d="M 14585,11576 L 14585,12305 14464,12375 14464,11576 14585,11576 Z M 14464,11113 L 14464,10975 14585,10905 14585,11113 14464,11113 Z M 14585,11123 L 14585,11566 14464,11566 14464,11123 14585,11123 Z"/>
     <path fill="rgb(122,122,122)" stroke="none" d="M 14585,11566 L 14585,12305 14464,12375 14464,11566 14585,11566 Z M 14464,11123 L 14464,10975 14585,10905 14585,11123 14464,11123 Z M 14585,11133 L 14585,11556 14464,11556 14464,11133 14585,11133 Z"/>
     <path fill="rgb(123,123,123)" stroke="none" d="M 14585,11556 L 14585,12305 14464,12375 14464,11556 14585,11556 Z M 14464,11133 L 14464,10975 14585,10905 14585,11133 14464,11133 Z M 14585,11143 L 14585,11546 14464,11546 14464,11143 14585,11143 Z"/>
     <path fill="rgb(125,125,125)" stroke="none" d="M 14585,11546 L 14585,12305 14464,12375 14464,11546 14585,11546 Z M 14464,11143 L 14464,10975 14585,10905 14585,11143 14464,11143 Z M 14585,11153 L 14585,11536 14464,11536 14464,11153 14585,11153 Z"/>
     <path fill="rgb(126,126,126)" stroke="none" d="M 14585,11536 L 14585,12305 14464,12375 14464,11536 14585,11536 Z M 14464,11153 L 14464,10975 14585,10905 14585,11153 14464,11153 Z M 14585,11163 L 14585,11526 14464,11526 14464,11163 14585,11163 Z"/>
     <path fill="rgb(127,127,127)" stroke="none" d="M 14585,11526 L 14585,12305 14464,12375 14464,11526 14585,11526 Z M 14464,11163 L 14464,10975 14585,10905 14585,11163 14464,11163 Z M 14585,11173 L 14585,11516 14464,11516 14464,11173 14585,11173 Z"/>
     <path fill="rgb(129,129,129)" stroke="none" d="M 14585,11516 L 14585,12305 14464,12375 14464,11516 14585,11516 Z M 14464,11173 L 14464,10975 14585,10905 14585,11173 14464,11173 Z M 14585,11184 L 14585,11505 14464,11505 14464,11184 14585,11184 Z"/>
     <path fill="rgb(130,130,130)" stroke="none" d="M 14585,11505 L 14585,12305 14464,12375 14464,11505 14585,11505 Z M 14464,11184 L 14464,10975 14585,10905 14585,11184 14464,11184 Z M 14585,11194 L 14585,11495 14464,11495 14464,11194 14585,11194 Z"/>
     <path fill="rgb(132,132,132)" stroke="none" d="M 14585,11495 L 14585,12305 14464,12375 14464,11495 14585,11495 Z M 14464,11194 L 14464,10975 14585,10905 14585,11194 14464,11194 Z M 14585,11204 L 14585,11485 14464,11485 14464,11204 14585,11204 Z"/>
     <path fill="rgb(133,133,133)" stroke="none" d="M 14585,11485 L 14585,12305 14464,12375 14464,11485 14585,11485 Z M 14464,11204 L 14464,10975 14585,10905 14585,11204 14464,11204 Z M 14585,11214 L 14585,11475 14464,11475 14464,11214 14585,11214 Z"/>
     <path fill="rgb(134,134,134)" stroke="none" d="M 14585,11475 L 14585,12305 14464,12375 14464,11475 14585,11475 Z M 14464,11214 L 14464,10975 14585,10905 14585,11214 14464,11214 Z M 14585,11224 L 14585,11465 14464,11465 14464,11224 14585,11224 Z"/>
     <path fill="rgb(136,136,136)" stroke="none" d="M 14585,11465 L 14585,12305 14464,12375 14464,11465 14585,11465 Z M 14464,11224 L 14464,10975 14585,10905 14585,11224 14464,11224 Z M 14585,11234 L 14585,11455 14464,11455 14464,11234 14585,11234 Z"/>
     <path fill="rgb(137,137,137)" stroke="none" d="M 14585,11455 L 14585,12305 14464,12375 14464,11455 14585,11455 Z M 14464,11234 L 14464,10975 14585,10905 14585,11234 14464,11234 Z M 14585,11244 L 14585,11445 14464,11445 14464,11244 14585,11244 Z"/>
     <path fill="rgb(139,139,139)" stroke="none" d="M 14585,11445 L 14585,12305 14464,12375 14464,11445 14585,11445 Z M 14464,11244 L 14464,10975 14585,10905 14585,11244 14464,11244 Z M 14585,11254 L 14585,11435 14464,11435 14464,11254 14585,11254 Z"/>
     <path fill="rgb(140,140,140)" stroke="none" d="M 14585,11435 L 14585,12305 14464,12375 14464,11435 14585,11435 Z M 14464,11254 L 14464,10975 14585,10905 14585,11254 14464,11254 Z M 14580,11264 L 14580,11425 14464,11425 14464,11264 14580,11264 Z"/>
     <path fill="rgb(141,141,141)" stroke="none" d="M 14580,11425 L 14580,11264 14464,11264 14464,10975 14585,10905 14585,12305 14464,12375 14464,11425 14580,11425 Z M 14570,11274 L 14570,11415 14464,11415 14464,11274 14570,11274 Z"/>
     <path fill="rgb(143,143,143)" stroke="none" d="M 14570,11415 L 14570,11274 14464,11274 14464,10975 14585,10905 14585,12305 14464,12375 14464,11415 14570,11415 Z M 14560,11284 L 14560,11405 14464,11405 14464,11284 14560,11284 Z"/>
     <path fill="rgb(144,144,144)" stroke="none" d="M 14560,11405 L 14560,11284 14464,11284 14464,10975 14585,10905 14585,12305 14464,12375 14464,11405 14560,11405 Z M 14549,11295 L 14549,11394 14464,11394 14464,11295 14549,11295 Z"/>
     <path fill="rgb(146,146,146)" stroke="none" d="M 14549,11394 L 14549,11295 14464,11295 14464,10975 14585,10905 14585,12305 14464,12375 14464,11394 14549,11394 Z M 14539,11305 L 14539,11384 14464,11384 14464,11305 14539,11305 Z"/>
     <path fill="rgb(147,147,147)" stroke="none" d="M 14539,11384 L 14539,11305 14464,11305 14464,10975 14585,10905 14585,12305 14464,12375 14464,11384 14539,11384 Z M 14470,11315 L 14529,11315 14529,11374 14470,11374 14470,11315 Z"/>
     <path fill="rgb(148,148,148)" stroke="none" d="M 14470,11315 L 14470,11374 14529,11374 14529,11315 14470,11315 Z M 14480,11325 L 14519,11325 14519,11364 14480,11364 14480,11325 Z M 14464,12375 L 14464,10975 14585,10905 14585,12305 14464,12375 Z"/>
     <path fill="rgb(150,150,150)" stroke="none" d="M 14480,11325 L 14480,11364 14519,11364 14519,11325 14480,11325 Z M 14490,11335 L 14509,11335 14509,11354 14490,11354 14490,11335 Z M 14464,12375 L 14464,10975 14585,10905 14585,12305 14464,12375 Z"/>
     <path fill="rgb(153,153,153)" stroke="none" d="M 14490,11335 L 14490,11354 14509,11354 14509,11335 14490,11335 Z M 14464,12375 L 14464,10975 14585,10905 14585,12305 14464,12375 Z"/>
     <path fill="none" stroke="rgb(178,178,178)" id="Drawing_4_0" stroke-width="40" stroke-linejoin="round" d="M 14464,12375 L 14464,10975 14585,10905 14585,12305 14464,12375 Z"/>
    </g>
    <g>
     <defs>
      <linearGradient id="Gradient_356" gradientUnits="userSpaceOnUse" x1="13248" y1="11324" x2="14465" y2="11326">
       <stop offset="0.1" stop-color="rgb(51,51,51)"/>
       <stop offset="1" stop-color="rgb(153,153,153)"/>
      </linearGradient>
     </defs>
     <path fill="url(#Gradient_356)" stroke="rgb(178,178,178)" id="Drawing_5_0" stroke-width="40" stroke-linejoin="round" d="M 13251,11675 L 13251,10275 14464,10975 14464,12375 13251,11675 Z"/>
    </g>
    <g>
     <defs>
      <linearGradient id="Gradient_357" gradientUnits="userSpaceOnUse" x1="13918" y1="10205" x2="13918" y2="10975">
       <stop offset="0.1" stop-color="rgb(51,51,51)"/>
       <stop offset="1" stop-color="rgb(153,153,153)"/>
      </linearGradient>
     </defs>
     <path fill="url(#Gradient_357)" stroke="rgb(178,178,178)" id="Drawing_6_0" stroke-width="40" stroke-linejoin="round" d="M 14464,10975 L 13251,10275 13373,10205 14585,10905 14464,10975 Z"/>
    </g>
    <g>
     <path fill="rgb(255,255,255)" stroke="none" d="M 13373,11605 L 13373,11465 13494,11535 13494,11675 13373,11605 Z"/>
     <path fill="none" stroke="rgb(178,178,178)" id="Drawing_7_0" stroke-width="40" stroke-linejoin="round" d="M 13373,11605 L 13373,11465 13494,11535 13494,11675 13373,11605 Z"/>
    </g>
    <g>
     <path fill="none" stroke="rgb(0,0,0)" id="Drawing_8_0" stroke-width="40" stroke-linejoin="round" d="M 13251,11675 L 13251,10275 13373,10205 13615,10345 14342,9925 15312,10485 15312,11605 14585,12025 14585,12305 14464,12375 13251,11675 Z"/>
    </g>
    <g>
     <defs>
      <linearGradient id="Gradient_358" gradientUnits="userSpaceOnUse" x1="13370" y1="11219" x2="14344" y2="11221">
       <stop offset="0.1" stop-color="rgb(147,212,240)"/>
       <stop offset="1" stop-color="rgb(233,246,252)"/>
      </linearGradient>
     </defs>
     <path fill="url(#Gradient_358)" stroke="rgb(51,51,51)" id="Drawing_9_0" stroke-width="40" stroke-linejoin="round" d="M 13371,11325 L 13372,10555 14342,11115 14343,11885 13371,11325 Z"/>
    </g>
    <g>
     <path fill="rgb(255,255,255)" stroke="none" d="M 13615,11745 L 13615,11605 13736,11675 13736,11815 13615,11745 Z"/>
     <path fill="none" stroke="rgb(178,178,178)" id="Drawing_10_0" stroke-width="40" stroke-linejoin="round" d="M 13615,11745 L 13615,11605 13736,11675 13736,11815 13615,11745 Z"/>
    </g>
    <g>
     <path fill="rgb(255,255,255)" stroke="none" d="M 13858,11885 L 13858,11745 13979,11815 13979,11955 13858,11885 Z"/>
     <path fill="none" stroke="rgb(178,178,178)" id="Drawing_11_0" stroke-width="40" stroke-linejoin="round" d="M 13858,11885 L 13858,11745 13979,11815 13979,11955 13858,11885 Z"/>
    </g>
   </g>
  </g>
 </g>
</svg>