<?xml version="1.0" encoding="UTF-8"?>

<svg version="1.2" baseProfile="tiny" width="30.38mm" height="34mm" viewBox="10114 6653 3038 3400" preserveAspectRatio="xMidYMid" fill-rule="evenodd" stroke-width="28.222" stroke-linejoin="round" xmlns="http://www.w3.org/2000/svg" xmlns:xlink="http://www.w3.org/1999/xlink" xml:space="preserve">
 <g visibility="visible" id="Slide_1">
  <g id="DrawingGroup_1">
   <g>
    <path fill="rgb(221,221,221)" stroke="none" d="M 12074,10033 C 12426,10033 13151,9784 13151,9660 13151,9535 12936,9224 12720,9224 12720,9446 12074,9736 12074,10033 Z"/>
    <path fill="none" stroke="rgb(221,221,221)" id="Drawing_1_0" stroke-linejoin="round" d="M 12074,10033 C 12426,10033 13151,9784 13151,9660 13151,9535 12936,9224 12720,9224 12720,9446 12074,9736 12074,10033 Z"/>
   </g>
   <g id="DrawingGroup_2">
    <g>
     <defs>
      <linearGradient id="Gradient_572" gradientUnits="userSpaceOnUse" x1="10345" y1="9215" x2="12074" y2="9219">
       <stop offset="0.1" stop-color="rgb(179,179,179)"/>
       <stop offset="1" stop-color="rgb(229,229,229)"/>
      </linearGradient>
     </defs>
     <path fill="url(#Gradient_572)" stroke="rgb(255,255,255)" id="Drawing_2_0" stroke-width="40" stroke-linejoin="round" d="M 10347,8995 L 10347,8402 12074,9411 12074,10033 10347,8995 Z"/>
    </g>
    <g>
     <path fill="rgb(127,127,127)" stroke="none" d="M 11858,9784 L 11858,9535 11966,9597 11966,9846 11858,9784 Z"/>
     <path fill="none" stroke="rgb(0,0,0)" id="Drawing_3_0" stroke-width="40" stroke-linejoin="round" d="M 11858,9784 L 11858,9535 11966,9597 11966,9846 11858,9784 Z"/>
    </g>
    <g>
     <path fill="rgb(127,127,127)" stroke="none" d="M 11643,9660 L 11643,9411 11751,9473 11751,9722 11643,9660 Z"/>
     <path fill="none" stroke="rgb(0,0,0)" id="Drawing_4_0" stroke-width="40" stroke-linejoin="round" d="M 11643,9660 L 11643,9411 11751,9473 11751,9722 11643,9660 Z"/>
    </g>
    <g>
     <path fill="rgb(127,127,127)" stroke="none" d="M 11427,9535 L 11427,9286 11535,9348 11535,9597 11427,9535 Z"/>
     <path fill="none" stroke="rgb(0,0,0)" id="Drawing_5_0" stroke-width="40" stroke-linejoin="round" d="M 11427,9535 L 11427,9286 11535,9348 11535,9597 11427,9535 Z"/>
    </g>
    <g>
     <path fill="rgb(127,127,127)" stroke="none" d="M 11212,9411 L 11212,9162 11320,9224 11320,9473 11212,9411 Z"/>
     <path fill="none" stroke="rgb(0,0,0)" id="Drawing_6_0" stroke-width="40" stroke-linejoin="round" d="M 11212,9411 L 11212,9162 11320,9224 11320,9473 11212,9411 Z"/>
    </g>
    <g>
     <path fill="rgb(127,127,127)" stroke="none" d="M 10996,9286 L 10996,9037 11104,9099 11104,9348 10996,9286 Z"/>
     <path fill="none" stroke="rgb(0,0,0)" id="Drawing_7_0" stroke-width="40" stroke-linejoin="round" d="M 10996,9286 L 10996,9037 11104,9099 11104,9348 10996,9286 Z"/>
    </g>
    <g>
     <path fill="rgb(127,127,127)" stroke="none" d="M 10781,9162 L 10781,8913 10889,8975 10889,9224 10781,9162 Z"/>
     <path fill="none" stroke="rgb(0,0,0)" id="Drawing_8_0" stroke-width="40" stroke-linejoin="round" d="M 10781,9162 L 10781,8913 10889,8975 10889,9224 10781,9162 Z"/>
    </g>
    <g>
     <defs>
      <linearGradient id="Gradient_573" gradientUnits="userSpaceOnUse" x1="11104" y1="7482" x2="11104" y2="8602">
       <stop offset="0.1" stop-color="rgb(179,179,179)"/>
       <stop offset="1" stop-color="rgb(229,229,229)"/>
      </linearGradient>
     </defs>
     <path fill="url(#Gradient_573)" stroke="rgb(255,255,255)" id="Drawing_9_0" stroke-width="40" stroke-linejoin="round" d="M 11858,8602 L 10134,7606 10350,7482 12074,8478 11858,8602 Z"/>
    </g>
    <g>
     <defs>
      <linearGradient id="Gradient_574" gradientUnits="userSpaceOnUse" x1="10132" y1="8568" x2="11860" y2="8572">
       <stop offset="0.1" stop-color="rgb(179,179,179)"/>
       <stop offset="1" stop-color="rgb(229,229,229)"/>
      </linearGradient>
     </defs>
     <path fill="url(#Gradient_574)" stroke="rgb(255,255,255)" id="Drawing_10_0" stroke-width="40" stroke-linejoin="round" d="M 10134,8539 L 10134,7606 11858,8602 11858,9535 10134,8539 Z"/>
    </g>
    <g>
     <path fill="rgb(179,179,179)" stroke="none" d="M 12074,9537 L 12074,9411 11858,9536 11858,8602 12074,8478 12074,8042 12720,7669 12720,9537 12074,9537 Z"/>
     <path fill="rgb(180,180,180)" stroke="none" d="M 12720,9537 L 12720,9660 12074,10033 12074,9537 12720,9537 Z M 12074,9513 L 12074,9411 11898,9513 11858,9513 11858,8602 12074,8478 12074,8042 12720,7669 12720,9513 12074,9513 Z"/>
     <path fill="rgb(181,181,181)" stroke="none" d="M 11898,9513 L 11858,9536 11858,9513 11898,9513 Z M 12720,9513 L 12720,9660 12074,10033 12074,9513 12720,9513 Z M 12074,9489 L 12074,9411 11939,9489 11858,9489 11858,8602 12074,8478 12074,8042 12720,7669 12720,9489 12074,9489 Z"/>
     <path fill="rgb(182,182,182)" stroke="none" d="M 11939,9489 L 11858,9536 11858,9489 11939,9489 Z M 12720,9489 L 12720,9660 12074,10033 12074,9489 12720,9489 Z M 12074,9466 L 12074,9411 11979,9466 11858,9466 11858,8602 12074,8478 12074,8042 12720,7669 12720,9466 12074,9466 Z"/>
     <path fill="rgb(183,183,183)" stroke="none" d="M 11979,9466 L 11858,9536 11858,9466 11979,9466 Z M 12720,9466 L 12720,9660 12074,10033 12074,9466 12720,9466 Z M 12074,9442 L 12074,9411 12020,9442 11858,9442 11858,8602 12074,8478 12074,8042 12720,7669 12720,9442 12074,9442 Z"/>
     <path fill="rgb(184,184,184)" stroke="none" d="M 12020,9442 L 11858,9536 11858,9442 12020,9442 Z M 12720,9442 L 12720,9660 12074,10033 12074,9442 12720,9442 Z M 12074,9418 L 12074,9411 12062,9418 11858,9418 11858,8602 12074,8478 12074,8042 12720,7669 12720,9418 12074,9418 Z"/>
     <path fill="rgb(185,185,185)" stroke="none" d="M 12062,9418 L 11858,9536 11858,9418 12062,9418 Z M 12720,9418 L 12720,9660 12074,10033 12074,9418 12720,9418 Z M 11858,9395 L 11858,8602 12074,8478 12074,8042 12720,7669 12720,9395 11858,9395 Z"/>
     <path fill="rgb(186,186,186)" stroke="none" d="M 12720,9395 L 12720,9660 12074,10033 12074,9411 11858,9536 11858,9395 12720,9395 Z M 11858,9371 L 11858,8602 12074,8478 12074,8042 12720,7669 12720,9371 11858,9371 Z"/>
     <path fill="rgb(187,187,187)" stroke="none" d="M 12720,9371 L 12720,9660 12074,10033 12074,9411 11858,9536 11858,9371 12720,9371 Z M 11858,9347 L 11858,8602 12074,8478 12074,8042 12720,7669 12720,9347 11858,9347 Z"/>
     <path fill="rgb(188,188,188)" stroke="none" d="M 12720,9347 L 12720,9660 12074,10033 12074,9411 11858,9536 11858,9347 12720,9347 Z M 11858,9324 L 11858,8602 12074,8478 12074,8042 12720,7669 12720,9324 11858,9324 Z"/>
     <path fill="rgb(189,189,189)" stroke="none" d="M 12720,9324 L 12720,9660 12074,10033 12074,9411 11858,9536 11858,9324 12720,9324 Z M 11858,9300 L 11858,8602 12074,8478 12074,8042 12720,7669 12720,9300 11858,9300 Z"/>
     <path fill="rgb(190,190,190)" stroke="none" d="M 12720,9300 L 12720,9660 12074,10033 12074,9411 11858,9536 11858,9300 12720,9300 Z M 11858,9276 L 11858,8602 12074,8478 12074,8042 12720,7669 12720,9276 11858,9276 Z"/>
     <path fill="rgb(191,191,191)" stroke="none" d="M 12720,9276 L 12720,9660 12074,10033 12074,9411 11858,9536 11858,9276 12720,9276 Z M 11858,9253 L 11858,8602 12074,8478 12074,8042 12720,7669 12720,9253 11858,9253 Z"/>
     <path fill="rgb(192,192,192)" stroke="none" d="M 12720,9253 L 12720,9660 12074,10033 12074,9411 11858,9536 11858,9253 12720,9253 Z M 11858,9229 L 11858,8602 12074,8478 12074,8042 12720,7669 12720,9229 11858,9229 Z"/>
     <path fill="rgb(193,193,193)" stroke="none" d="M 12720,9229 L 12720,9660 12074,10033 12074,9411 11858,9536 11858,9229 12720,9229 Z M 11858,9205 L 11858,8602 12074,8478 12074,8042 12720,7669 12720,9205 11858,9205 Z"/>
     <path fill="rgb(194,194,194)" stroke="none" d="M 12720,9205 L 12720,9660 12074,10033 12074,9411 11858,9536 11858,9205 12720,9205 Z M 11858,9182 L 11858,8602 12074,8478 12074,8042 12720,7669 12720,9182 11858,9182 Z"/>
     <path fill="rgb(195,195,195)" stroke="none" d="M 12720,9182 L 12720,9660 12074,10033 12074,9411 11858,9536 11858,9182 12720,9182 Z M 11858,9158 L 11858,8602 12074,8478 12074,8042 12720,7669 12720,9158 11858,9158 Z"/>
     <path fill="rgb(196,196,196)" stroke="none" d="M 12720,9158 L 12720,9660 12074,10033 12074,9411 11858,9536 11858,9158 12720,9158 Z M 11858,9134 L 11858,8602 12074,8478 12074,8042 12720,7669 12720,9134 11858,9134 Z"/>
     <path fill="rgb(197,197,197)" stroke="none" d="M 12720,9134 L 12720,9660 12074,10033 12074,9411 11858,9536 11858,9134 12720,9134 Z M 11858,9111 L 11858,8602 12074,8478 12074,8042 12720,7669 12720,9111 11858,9111 Z"/>
     <path fill="rgb(198,198,198)" stroke="none" d="M 12720,9111 L 12720,9660 12074,10033 12074,9411 11858,9536 11858,9111 12720,9111 Z M 11858,9087 L 11858,8602 12074,8478 12074,8042 12720,7669 12720,9087 11858,9087 Z"/>
     <path fill="rgb(199,199,199)" stroke="none" d="M 12720,9087 L 12720,9660 12074,10033 12074,9411 11858,9536 11858,9087 12720,9087 Z M 12720,7692 L 12720,9063 11858,9063 11858,8602 12074,8478 12074,8042 12680,7692 12720,7692 Z"/>
     <path fill="rgb(200,200,200)" stroke="none" d="M 12720,9063 L 12720,9660 12074,10033 12074,9411 11858,9536 11858,9063 12720,9063 Z M 12680,7692 L 12720,7669 12720,7692 12680,7692 Z M 12720,7715 L 12720,9040 11858,9040 11858,8602 12074,8478 12074,8042 12640,7715 12720,7715 Z"/>
     <path fill="rgb(201,201,201)" stroke="none" d="M 12720,9040 L 12720,9660 12074,10033 12074,9411 11858,9536 11858,9040 12720,9040 Z M 12640,7715 L 12720,7669 12720,7715 12640,7715 Z M 12720,7739 L 12720,9016 11858,9016 11858,8602 12074,8478 12074,8042 12599,7739 12720,7739 Z"/>
     <path fill="rgb(202,202,202)" stroke="none" d="M 12720,9016 L 12720,9660 12074,10033 12074,9411 11858,9536 11858,9016 12720,9016 Z M 12599,7739 L 12720,7669 12720,7739 12599,7739 Z M 12720,7763 L 12720,8992 11858,8992 11858,8602 12074,8478 12074,8042 12557,7763 12720,7763 Z"/>
     <path fill="rgb(203,203,203)" stroke="none" d="M 12720,8992 L 12720,9660 12074,10033 12074,9411 11858,9536 11858,8992 12720,8992 Z M 12557,7763 L 12720,7669 12720,7763 12557,7763 Z M 12707,7786 L 12707,8969 11858,8969 11858,8602 12074,8478 12074,8042 12517,7786 12707,7786 Z"/>
     <path fill="rgb(204,204,204)" stroke="none" d="M 12707,8969 L 12707,7786 12517,7786 12720,7669 12720,9660 12074,10033 12074,9411 11858,9536 11858,8969 12707,8969 Z M 12683,7810 L 12683,8945 11858,8945 11858,8602 12074,8478 12074,8042 12476,7810 12683,7810 Z"/>
     <path fill="rgb(205,205,205)" stroke="none" d="M 12683,8945 L 12683,7810 12476,7810 12720,7669 12720,9660 12074,10033 12074,9411 11858,9536 11858,8945 12683,8945 Z M 12659,7834 L 12659,8921 11858,8921 11858,8602 12074,8478 12074,8042 12434,7834 12659,7834 Z"/>
     <path fill="rgb(206,206,206)" stroke="none" d="M 12659,8921 L 12659,7834 12434,7834 12720,7669 12720,9660 12074,10033 12074,9411 11858,9536 11858,8921 12659,8921 Z M 12636,7857 L 12636,8898 11858,8898 11858,8602 12074,8478 12074,8042 12394,7857 12636,7857 Z"/>
     <path fill="rgb(207,207,207)" stroke="none" d="M 12636,8898 L 12636,7857 12394,7857 12720,7669 12720,9660 12074,10033 12074,9411 11858,9536 11858,8898 12636,8898 Z M 12612,7881 L 12612,8874 11858,8874 11858,8602 12074,8478 12074,8042 12353,7881 12612,7881 Z"/>
     <path fill="rgb(208,208,208)" stroke="none" d="M 12612,8874 L 12612,7881 12353,7881 12720,7669 12720,9660 12074,10033 12074,9411 11858,9536 11858,8874 12612,8874 Z M 12588,7905 L 12588,8850 11858,8850 11858,8602 12074,8478 12074,8042 12311,7905 12588,7905 Z"/>
     <path fill="rgb(209,209,209)" stroke="none" d="M 12588,8850 L 12588,7905 12311,7905 12720,7669 12720,9660 12074,10033 12074,9411 11858,9536 11858,8850 12588,8850 Z M 12565,7928 L 12565,8827 11858,8827 11858,8602 12074,8478 12074,8042 12271,7928 12565,7928 Z"/>
     <path fill="rgb(210,210,210)" stroke="none" d="M 12565,8827 L 12565,7928 12271,7928 12720,7669 12720,9660 12074,10033 12074,9411 11858,9536 11858,8827 12565,8827 Z M 12541,7952 L 12541,8803 11858,8803 11858,8602 12074,8478 12074,8042 12230,7952 12541,7952 Z"/>
     <path fill="rgb(211,211,211)" stroke="none" d="M 12541,8803 L 12541,7952 12230,7952 12720,7669 12720,9660 12074,10033 12074,9411 11858,9536 11858,8803 12541,8803 Z M 12517,7976 L 12517,8779 11858,8779 11858,8602 12074,8478 12074,8042 12188,7976 12517,7976 Z"/>
     <path fill="rgb(212,212,212)" stroke="none" d="M 12517,8779 L 12517,7976 12188,7976 12720,7669 12720,9660 12074,10033 12074,9411 11858,9536 11858,8779 12517,8779 Z M 12494,7999 L 12494,8756 11858,8756 11858,8602 12074,8478 12074,8042 12148,7999 12494,7999 Z"/>
     <path fill="rgb(213,213,213)" stroke="none" d="M 12494,8756 L 12494,7999 12148,7999 12720,7669 12720,9660 12074,10033 12074,9411 11858,9536 11858,8756 12494,8756 Z M 12470,8023 L 12470,8732 11858,8732 11858,8602 12074,8478 12074,8042 12107,8023 12470,8023 Z"/>
     <path fill="rgb(214,214,214)" stroke="none" d="M 12470,8732 L 12470,8023 12107,8023 12720,7669 12720,9660 12074,10033 12074,9411 11858,9536 11858,8732 12470,8732 Z M 12446,8047 L 12446,8708 11858,8708 11858,8602 12074,8478 12074,8047 12446,8047 Z"/>
     <path fill="rgb(215,215,215)" stroke="none" d="M 12446,8708 L 12446,8047 12074,8047 12074,8042 12720,7669 12720,9660 12074,10033 12074,9411 11858,9536 11858,8708 12446,8708 Z M 12423,8070 L 12423,8685 11858,8685 11858,8602 12074,8478 12074,8070 12423,8070 Z"/>
     <path fill="rgb(216,216,216)" stroke="none" d="M 12423,8685 L 12423,8070 12074,8070 12074,8042 12720,7669 12720,9660 12074,10033 12074,9411 11858,9536 11858,8685 12423,8685 Z M 12399,8094 L 12399,8661 11858,8661 11858,8602 12074,8478 12074,8094 12399,8094 Z"/>
     <path fill="rgb(217,217,217)" stroke="none" d="M 12399,8661 L 12399,8094 12074,8094 12074,8042 12720,7669 12720,9660 12074,10033 12074,9411 11858,9536 11858,8661 12399,8661 Z M 12375,8118 L 12375,8637 11858,8637 11858,8602 12074,8478 12074,8118 12375,8118 Z"/>
     <path fill="rgb(218,218,218)" stroke="none" d="M 12375,8637 L 12375,8118 12074,8118 12074,8042 12720,7669 12720,9660 12074,10033 12074,9411 11858,9536 11858,8637 12375,8637 Z M 12352,8141 L 12352,8614 11879,8614 11879,8590 12074,8478 12074,8141 12352,8141 Z"/>
     <path fill="rgb(219,219,219)" stroke="none" d="M 11879,8614 L 12352,8614 12352,8141 12074,8141 12074,8042 12720,7669 12720,9660 12074,10033 12074,9411 11858,9536 11858,8602 11879,8590 11879,8614 Z M 12328,8165 L 12328,8590 11903,8590 11903,8576 12074,8478 12074,8165 12328,8165 Z"/>
     <path fill="rgb(220,220,220)" stroke="none" d="M 11903,8590 L 12328,8590 12328,8165 12074,8165 12074,8042 12720,7669 12720,9660 12074,10033 12074,9411 11858,9536 11858,8602 11903,8576 11903,8590 Z M 12304,8189 L 12304,8566 11927,8566 11927,8562 12074,8478 12074,8189 12304,8189 Z"/>
     <path fill="rgb(221,221,221)" stroke="none" d="M 11927,8566 L 12304,8566 12304,8189 12074,8189 12074,8042 12720,7669 12720,9660 12074,10033 12074,9411 11858,9536 11858,8602 11927,8562 11927,8566 Z M 12281,8212 L 12281,8543 11961,8543 12074,8478 12074,8212 12281,8212 Z"/>
     <path fill="rgb(222,222,222)" stroke="none" d="M 12281,8543 L 12281,8212 12074,8212 12074,8042 12720,7669 12720,9660 12074,10033 12074,9411 11858,9536 11858,8602 11961,8543 12281,8543 Z M 12257,8236 L 12257,8519 12003,8519 12074,8478 12074,8236 12257,8236 Z"/>
     <path fill="rgb(223,223,223)" stroke="none" d="M 12257,8519 L 12257,8236 12074,8236 12074,8042 12720,7669 12720,9660 12074,10033 12074,9411 11858,9536 11858,8602 12003,8519 12257,8519 Z M 12233,8260 L 12233,8495 12044,8495 12074,8478 12074,8260 12233,8260 Z"/>
     <path fill="rgb(224,224,224)" stroke="none" d="M 12233,8495 L 12233,8260 12074,8260 12074,8042 12720,7669 12720,9660 12074,10033 12074,9411 11858,9536 11858,8602 12044,8495 12233,8495 Z M 12210,8283 L 12210,8472 12074,8472 12074,8283 12210,8283 Z"/>
     <path fill="rgb(225,225,225)" stroke="none" d="M 12210,8472 L 12210,8283 12074,8283 12074,8042 12720,7669 12720,9660 12074,10033 12074,9411 11858,9536 11858,8602 12074,8478 12074,8472 12210,8472 Z M 12186,8307 L 12186,8448 12074,8448 12074,8307 12186,8307 Z"/>
     <path fill="rgb(226,226,226)" stroke="none" d="M 12186,8448 L 12186,8307 12074,8307 12074,8042 12720,7669 12720,9660 12074,10033 12074,9411 11858,9536 11858,8602 12074,8478 12074,8448 12186,8448 Z M 12162,8331 L 12162,8424 12074,8424 12074,8331 12162,8331 Z"/>
     <path fill="rgb(227,227,227)" stroke="none" d="M 12162,8424 L 12162,8331 12074,8331 12074,8042 12720,7669 12720,9660 12074,10033 12074,9411 11858,9536 11858,8602 12074,8478 12074,8424 12162,8424 Z M 12092,8354 L 12139,8354 12139,8401 12092,8401 12092,8354 Z"/>
     <path fill="rgb(229,229,229)" stroke="none" d="M 12092,8354 L 12092,8401 12139,8401 12139,8354 12092,8354 Z M 12074,10033 L 12074,9411 11858,9536 11858,8602 12074,8478 12074,8042 12720,7669 12720,9660 12074,10033 Z"/>
     <path fill="none" stroke="rgb(255,255,255)" id="Drawing_11_0" stroke-width="40" stroke-linejoin="round" d="M 12074,10033 L 12074,9411 11858,9536 11858,8602 12074,8478 12074,8042 12720,7669 12720,9660 12074,10033 Z"/>
    </g>
    <g>
     <defs>
      <linearGradient id="Gradient_575" gradientUnits="userSpaceOnUse" x1="11535" y1="6673" x2="11535" y2="8042">
       <stop offset="0.1" stop-color="rgb(179,179,179)"/>
       <stop offset="1" stop-color="rgb(229,229,229)"/>
      </linearGradient>
     </defs>
     <path fill="url(#Gradient_575)" stroke="rgb(255,255,255)" id="Drawing_12_0" stroke-width="40" stroke-linejoin="round" d="M 12074,8042 L 10350,7046 10996,6673 12721,7669 12074,8042 Z"/>
    </g>
    <g>
     <defs>
      <linearGradient id="Gradient_576" gradientUnits="userSpaceOnUse" x1="10349" y1="7759" x2="12075" y2="7763">
       <stop offset="0.1" stop-color="rgb(179,179,179)"/>
       <stop offset="1" stop-color="rgb(229,229,229)"/>
      </linearGradient>
     </defs>
     <path fill="url(#Gradient_576)" stroke="rgb(255,255,255)" id="Drawing_13_0" stroke-width="40" stroke-linejoin="round" d="M 10350,7482 L 10350,7046 12074,8042 12074,8477 10350,7482 Z"/>
    </g>
    <g>
     <path fill="none" stroke="rgb(0,0,0)" id="Drawing_14_0" stroke-width="40" stroke-linejoin="round" d="M 10347,8995 L 10350,8664 10134,8540 10134,7606 10350,7482 10350,7046 10996,6673 12721,7669 12721,9660 12074,10033 10347,8995 Z"/>
    </g>
    <g>
     <path fill="rgb(255,255,255)" stroke="none" d="M 10781,8788 L 10781,8664 10889,8726 10889,8851 10781,8788 Z"/>
     <path fill="none" stroke="rgb(127,127,127)" id="Drawing_15_0" stroke-width="40" stroke-linejoin="round" d="M 10781,8788 L 10781,8664 10889,8726 10889,8851 10781,8788 Z"/>
    </g>
    <g>
     <path fill="rgb(255,255,255)" stroke="none" d="M 11104,8975 L 11104,8851 11212,8913 11212,9038 11104,8975 Z"/>
     <path fill="none" stroke="rgb(127,127,127)" id="Drawing_16_0" stroke-width="40" stroke-linejoin="round" d="M 11104,8975 L 11104,8851 11212,8913 11212,9038 11104,8975 Z"/>
    </g>
    <g>
     <defs>
      <linearGradient id="Gradient_577" gradientUnits="userSpaceOnUse" x1="10239" y1="8383" x2="11534" y2="8385">
       <stop offset="0.1" stop-color="rgb(147,212,240)"/>
       <stop offset="1" stop-color="rgb(233,246,252)"/>
      </linearGradient>
     </defs>
     <path fill="url(#Gradient_577)" stroke="rgb(127,127,127)" id="Drawing_17_0" stroke-width="40" stroke-linejoin="round" d="M 10241,8229 L 10241,7793 11534,8540 11534,8975 10241,8229 Z"/>
    </g>
    <g>
     <path fill="rgb(116,203,128)" stroke="none" d="M 11643,8726 L 11643,8602 11751,8664 11751,8789 11643,8726 Z"/>
     <path fill="none" stroke="rgb(127,127,127)" id="Drawing_18_0" stroke-width="40" stroke-linejoin="round" d="M 11643,8726 L 11643,8602 11751,8664 11751,8789 11643,8726 Z"/>
    </g>
    <g>
     <path fill="rgb(0,0,0)" stroke="none" d="M 10457,7420 L 10457,7233 10565,7295 10565,7482 10457,7420 Z"/>
     <path fill="none" stroke="rgb(127,127,127)" id="Drawing_19_0" stroke-width="40" stroke-linejoin="round" d="M 10457,7420 L 10457,7233 10565,7295 10565,7482 10457,7420 Z"/>
    </g>
    <g>
     <path fill="rgb(0,0,0)" stroke="none" d="M 10672,7544 L 10672,7357 10780,7419 10780,7606 10672,7544 Z"/>
     <path fill="none" stroke="rgb(127,127,127)" id="Drawing_20_0" stroke-width="40" stroke-linejoin="round" d="M 10672,7544 L 10672,7357 10780,7419 10780,7606 10672,7544 Z"/>
    </g>
    <g>
     <path fill="rgb(0,0,0)" stroke="none" d="M 10888,7669 L 10888,7482 10996,7544 10996,7731 10888,7669 Z"/>
     <path fill="none" stroke="rgb(127,127,127)" id="Drawing_21_0" stroke-width="40" stroke-linejoin="round" d="M 10888,7669 L 10888,7482 10996,7544 10996,7731 10888,7669 Z"/>
    </g>
    <g>
     <path fill="rgb(255,255,255)" stroke="none" d="M 11427,9161 L 11427,9037 11535,9099 11535,9224 11427,9161 Z"/>
     <path fill="none" stroke="rgb(127,127,127)" id="Drawing_22_0" stroke-width="40" stroke-linejoin="round" d="M 11427,9161 L 11427,9037 11535,9099 11535,9224 11427,9161 Z"/>
    </g>
   </g>
  </g>
 </g>
</svg>