<?xml version="1.0" encoding="UTF-8"?>

<svg version="1.2" baseProfile="tiny" width="25.95mm" height="27mm" viewBox="6404 13731 2595 2700" preserveAspectRatio="xMidYMid" fill-rule="evenodd" stroke-width="28.222" stroke-linejoin="round" xmlns="http://www.w3.org/2000/svg" xmlns:xlink="http://www.w3.org/1999/xlink" xml:space="preserve">
 <g visibility="visible" id="Slide_1">
  <g id="DrawingGroup_1">
   <g>
    <path fill="rgb(221,221,221)" stroke="none" d="M 7880,16271 C 8355,16271 8850,15991 8971,15781 9092,15571 8780,15431 8607,15431 8607,15731 7880,15870 7880,16271 Z"/>
    <path fill="none" stroke="rgb(221,221,221)" id="Drawing_1_0" stroke-linejoin="round" d="M 7880,16271 C 8355,16271 8850,15991 8971,15781 9092,15571 8780,15431 8607,15431 8607,15731 7880,15870 7880,16271 Z"/>
   </g>
   <g id="DrawingGroup_2">
    <g>
     <path fill="rgb(179,179,179)" stroke="none" d="M 7638,15818 L 7638,14941 8607,14381 8607,15641 8301,15818 7638,15818 Z"/>
     <path fill="rgb(180,180,180)" stroke="none" d="M 8301,15818 L 7638,16201 7638,15818 8301,15818 Z M 7638,15800 L 7638,14941 8607,14381 8607,15641 8332,15800 7638,15800 Z"/>
     <path fill="rgb(181,181,181)" stroke="none" d="M 8332,15800 L 7638,16201 7638,15800 8332,15800 Z M 7638,15782 L 7638,14941 8607,14381 8607,15641 8363,15782 7638,15782 Z"/>
     <path fill="rgb(182,182,182)" stroke="none" d="M 8363,15782 L 7638,16201 7638,15782 8363,15782 Z M 7638,15764 L 7638,14941 8607,14381 8607,15641 8394,15764 7638,15764 Z"/>
     <path fill="rgb(183,183,183)" stroke="none" d="M 8394,15764 L 7638,16201 7638,15764 8394,15764 Z M 7638,15745 L 7638,14941 8607,14381 8607,15641 8427,15745 7638,15745 Z"/>
     <path fill="rgb(184,184,184)" stroke="none" d="M 8427,15745 L 7638,16201 7638,15745 8427,15745 Z M 7638,15727 L 7638,14941 8607,14381 8607,15641 8458,15727 7638,15727 Z"/>
     <path fill="rgb(185,185,185)" stroke="none" d="M 8458,15727 L 7638,16201 7638,15727 8458,15727 Z M 7638,15709 L 7638,14941 8607,14381 8607,15641 8489,15709 7638,15709 Z"/>
     <path fill="rgb(186,186,186)" stroke="none" d="M 8489,15709 L 7638,16201 7638,15709 8489,15709 Z M 7638,15691 L 7638,14941 8607,14381 8607,15641 8520,15691 7638,15691 Z"/>
     <path fill="rgb(187,187,187)" stroke="none" d="M 8520,15691 L 7638,16201 7638,15691 8520,15691 Z M 7638,15672 L 7638,14941 8607,14381 8607,15641 8553,15672 7638,15672 Z"/>
     <path fill="rgb(188,188,188)" stroke="none" d="M 8553,15672 L 7638,16201 7638,15672 8553,15672 Z M 7638,15654 L 7638,14941 8607,14381 8607,15641 8585,15654 7638,15654 Z"/>
     <path fill="rgb(189,189,189)" stroke="none" d="M 8585,15654 L 7638,16201 7638,15654 8585,15654 Z M 7638,15636 L 7638,14941 8607,14381 8607,15636 7638,15636 Z"/>
     <path fill="rgb(190,190,190)" stroke="none" d="M 8607,15636 L 8607,15641 7638,16201 7638,15636 8607,15636 Z M 7638,15618 L 7638,14941 8607,14381 8607,15618 7638,15618 Z"/>
     <path fill="rgb(191,191,191)" stroke="none" d="M 8607,15618 L 8607,15641 7638,16201 7638,15618 8607,15618 Z M 8602,15600 L 7638,15600 7638,14941 8602,14384 8602,15600 Z"/>
     <path fill="rgb(192,192,192)" stroke="none" d="M 8602,15600 L 8602,14384 8607,14381 8607,15641 7638,16201 7638,15600 8602,15600 Z M 8583,15581 L 7638,15581 7638,14941 8583,14395 8583,15581 Z"/>
     <path fill="rgb(193,193,193)" stroke="none" d="M 8583,15581 L 8583,14395 8607,14381 8607,15641 7638,16201 7638,15581 8583,15581 Z M 8565,15563 L 7638,15563 7638,14941 8565,14405 8565,15563 Z"/>
     <path fill="rgb(194,194,194)" stroke="none" d="M 8565,15563 L 8565,14405 8607,14381 8607,15641 7638,16201 7638,15563 8565,15563 Z M 8547,15545 L 7638,15545 7638,14941 8547,14416 8547,15545 Z"/>
     <path fill="rgb(195,195,195)" stroke="none" d="M 8547,15545 L 8547,14416 8607,14381 8607,15641 7638,16201 7638,15545 8547,15545 Z M 8529,15527 L 7638,15527 7638,14941 8529,14426 8529,15527 Z"/>
     <path fill="rgb(196,196,196)" stroke="none" d="M 8529,15527 L 8529,14426 8607,14381 8607,15641 7638,16201 7638,15527 8529,15527 Z M 8510,15508 L 7638,15508 7638,14941 8510,14437 8510,15508 Z"/>
     <path fill="rgb(197,197,197)" stroke="none" d="M 8510,15508 L 8510,14437 8607,14381 8607,15641 7638,16201 7638,15508 8510,15508 Z M 8492,15490 L 7638,15490 7638,14941 8492,14447 8492,15490 Z"/>
     <path fill="rgb(198,198,198)" stroke="none" d="M 8492,15490 L 8492,14447 8607,14381 8607,15641 7638,16201 7638,15490 8492,15490 Z M 8474,15472 L 7638,15472 7638,14941 8474,14458 8474,15472 Z"/>
     <path fill="rgb(199,199,199)" stroke="none" d="M 8474,15472 L 8474,14458 8607,14381 8607,15641 7638,16201 7638,15472 8474,15472 Z M 8456,15454 L 7638,15454 7638,14941 8456,14468 8456,15454 Z"/>
     <path fill="rgb(200,200,200)" stroke="none" d="M 8456,15454 L 8456,14468 8607,14381 8607,15641 7638,16201 7638,15454 8456,15454 Z M 8437,15435 L 7638,15435 7638,14941 8437,14479 8437,15435 Z"/>
     <path fill="rgb(201,201,201)" stroke="none" d="M 8437,15435 L 8437,14479 8607,14381 8607,15641 7638,16201 7638,15435 8437,15435 Z M 8419,15417 L 7638,15417 7638,14941 8419,14490 8419,15417 Z"/>
     <path fill="rgb(202,202,202)" stroke="none" d="M 8419,15417 L 8419,14490 8607,14381 8607,15641 7638,16201 7638,15417 8419,15417 Z M 8401,15399 L 7638,15399 7638,14941 8401,14500 8401,15399 Z"/>
     <path fill="rgb(203,203,203)" stroke="none" d="M 8401,15399 L 8401,14500 8607,14381 8607,15641 7638,16201 7638,15399 8401,15399 Z M 8383,15381 L 7638,15381 7638,14941 8383,14510 8383,15381 Z"/>
     <path fill="rgb(204,204,204)" stroke="none" d="M 8383,15381 L 8383,14510 8607,14381 8607,15641 7638,16201 7638,15381 8383,15381 Z M 8365,15363 L 7638,15363 7638,14941 8365,14521 8365,15363 Z"/>
     <path fill="rgb(205,205,205)" stroke="none" d="M 8365,15363 L 8365,14521 8607,14381 8607,15641 7638,16201 7638,15363 8365,15363 Z M 8346,15344 L 7638,15344 7638,14941 8346,14532 8346,15344 Z"/>
     <path fill="rgb(206,206,206)" stroke="none" d="M 8346,15344 L 8346,14532 8607,14381 8607,15641 7638,16201 7638,15344 8346,15344 Z M 8328,15326 L 7638,15326 7638,14941 8328,14542 8328,15326 Z"/>
     <path fill="rgb(207,207,207)" stroke="none" d="M 8328,15326 L 8328,14542 8607,14381 8607,15641 7638,16201 7638,15326 8328,15326 Z M 8310,15308 L 7638,15308 7638,14941 8310,14553 8310,15308 Z"/>
     <path fill="rgb(208,208,208)" stroke="none" d="M 8310,15308 L 8310,14553 8607,14381 8607,15641 7638,16201 7638,15308 8310,15308 Z M 8292,15290 L 7638,15290 7638,14941 8292,14563 8292,15290 Z"/>
     <path fill="rgb(209,209,209)" stroke="none" d="M 8292,15290 L 8292,14563 8607,14381 8607,15641 7638,16201 7638,15290 8292,15290 Z M 8273,14580 L 8273,15271 7638,15271 7638,14941 8263,14580 8273,14580 Z"/>
     <path fill="rgb(210,210,210)" stroke="none" d="M 8273,15271 L 8273,14580 8263,14580 8607,14381 8607,15641 7638,16201 7638,15271 8273,15271 Z M 8255,14598 L 8255,15253 7638,15253 7638,14941 8232,14598 8255,14598 Z"/>
     <path fill="rgb(211,211,211)" stroke="none" d="M 8255,15253 L 8255,14598 8232,14598 8607,14381 8607,15641 7638,16201 7638,15253 8255,15253 Z M 8237,14616 L 8237,15235 7638,15235 7638,14941 8200,14616 8237,14616 Z"/>
     <path fill="rgb(212,212,212)" stroke="none" d="M 8237,15235 L 8237,14616 8200,14616 8607,14381 8607,15641 7638,16201 7638,15235 8237,15235 Z M 8219,14634 L 8219,15217 7638,15217 7638,14941 8169,14634 8219,14634 Z"/>
     <path fill="rgb(213,213,213)" stroke="none" d="M 8219,15217 L 8219,14634 8169,14634 8607,14381 8607,15641 7638,16201 7638,15217 8219,15217 Z M 8200,14653 L 8200,15198 7655,15198 7655,14931 8136,14653 8200,14653 Z"/>
     <path fill="rgb(214,214,214)" stroke="none" d="M 7655,15198 L 8200,15198 8200,14653 8136,14653 8607,14381 8607,15641 7638,16201 7638,14941 7655,14931 7655,15198 Z M 8182,14671 L 8182,15180 7673,15180 7673,14921 8105,14671 8182,14671 Z"/>
     <path fill="rgb(215,215,215)" stroke="none" d="M 7673,15180 L 8182,15180 8182,14671 8105,14671 8607,14381 8607,15641 7638,16201 7638,14941 7673,14921 7673,15180 Z M 8164,14689 L 8164,15162 7691,15162 7691,14910 8074,14689 8164,14689 Z"/>
     <path fill="rgb(216,216,216)" stroke="none" d="M 7691,15162 L 8164,15162 8164,14689 8074,14689 8607,14381 8607,15641 7638,16201 7638,14941 7691,14910 7691,15162 Z M 8146,14707 L 8146,15144 7709,15144 7709,14900 8043,14707 8146,14707 Z"/>
     <path fill="rgb(217,217,217)" stroke="none" d="M 7709,15144 L 8146,15144 8146,14707 8043,14707 8607,14381 8607,15641 7638,16201 7638,14941 7709,14900 7709,15144 Z M 8128,14725 L 8128,15126 7727,15126 7727,14890 8012,14725 8128,14725 Z"/>
     <path fill="rgb(218,218,218)" stroke="none" d="M 7727,15126 L 8128,15126 8128,14725 8012,14725 8607,14381 8607,15641 7638,16201 7638,14941 7727,14890 7727,15126 Z M 8109,14744 L 8109,15107 7746,15107 7746,14879 7979,14744 8109,14744 Z"/>
     <path fill="rgb(219,219,219)" stroke="none" d="M 7746,15107 L 8109,15107 8109,14744 7979,14744 8607,14381 8607,15641 7638,16201 7638,14941 7746,14879 7746,15107 Z M 8091,14762 L 8091,15089 7764,15089 7764,14868 7948,14762 8091,14762 Z"/>
     <path fill="rgb(220,220,220)" stroke="none" d="M 7764,15089 L 8091,15089 8091,14762 7948,14762 8607,14381 8607,15641 7638,16201 7638,14941 7764,14868 7764,15089 Z M 8073,14780 L 8073,15071 7782,15071 7782,14858 7917,14780 8073,14780 Z"/>
     <path fill="rgb(221,221,221)" stroke="none" d="M 7782,15071 L 8073,15071 8073,14780 7917,14780 8607,14381 8607,15641 7638,16201 7638,14941 7782,14858 7782,15071 Z M 8055,14798 L 8055,15053 7800,15053 7800,14847 7885,14798 8055,14798 Z"/>
     <path fill="rgb(222,222,222)" stroke="none" d="M 7800,15053 L 8055,15053 8055,14798 7885,14798 8607,14381 8607,15641 7638,16201 7638,14941 7800,14847 7800,15053 Z M 8036,14817 L 8036,15034 7819,15034 7819,14836 7853,14817 8036,14817 Z"/>
     <path fill="rgb(223,223,223)" stroke="none" d="M 7819,15034 L 8036,15034 8036,14817 7853,14817 8607,14381 8607,15641 7638,16201 7638,14941 7819,14836 7819,15034 Z M 7837,14835 L 8018,14835 8018,15016 7837,15016 7837,14835 Z"/>
     <path fill="rgb(224,224,224)" stroke="none" d="M 7837,14835 L 7837,15016 8018,15016 8018,14835 7837,14835 Z M 7855,14853 L 8000,14853 8000,14998 7855,14998 7855,14853 Z M 7638,16201 L 7638,14941 8607,14381 8607,15641 7638,16201 Z"/>
     <path fill="rgb(225,225,225)" stroke="none" d="M 7855,14853 L 7855,14998 8000,14998 8000,14853 7855,14853 Z M 7873,14871 L 7982,14871 7982,14980 7873,14980 7873,14871 Z M 7638,16201 L 7638,14941 8607,14381 8607,15641 7638,16201 Z"/>
     <path fill="rgb(226,226,226)" stroke="none" d="M 7873,14871 L 7873,14980 7982,14980 7982,14871 7873,14871 Z M 7892,14890 L 7963,14890 7963,14961 7892,14961 7892,14890 Z M 7638,16201 L 7638,14941 8607,14381 8607,15641 7638,16201 Z"/>
     <path fill="rgb(227,227,227)" stroke="none" d="M 7892,14890 L 7892,14961 7963,14961 7963,14890 7892,14890 Z M 7910,14908 L 7945,14908 7945,14943 7910,14943 7910,14908 Z M 7638,16201 L 7638,14941 8607,14381 8607,15641 7638,16201 Z"/>
     <path fill="rgb(229,229,229)" stroke="none" d="M 7910,14908 L 7910,14943 7945,14943 7945,14908 7910,14908 Z M 7638,16201 L 7638,14941 8607,14381 8607,15641 7638,16201 Z"/>
     <path fill="none" stroke="rgb(255,255,255)" id="Drawing_2_0" stroke-width="40" stroke-linejoin="round" d="M 7638,16201 L 7638,14941 8607,14381 8607,15641 7638,16201 Z"/>
    </g>
    <g>
     <defs>
      <linearGradient id="Gradient_359" gradientUnits="userSpaceOnUse" x1="7576" y1="13751" x2="7576" y2="14941">
       <stop offset="0.1" stop-color="rgb(179,179,179)"/>
       <stop offset="1" stop-color="rgb(229,229,229)"/>
      </linearGradient>
     </defs>
     <path fill="url(#Gradient_359)" stroke="rgb(255,255,255)" id="Drawing_3_0" stroke-width="40" stroke-linejoin="round" d="M 7637,14941 L 6545,14311 7516,13751 8607,14381 7637,14941 Z"/>
    </g>
    <g>
     <path fill="rgb(179,179,179)" stroke="none" d="M 7759,16072 L 7759,14871 7880,14801 7880,16072 7759,16072 Z"/>
     <path fill="rgb(180,180,180)" stroke="none" d="M 7880,16072 L 7880,16341 7759,16411 7759,16072 7880,16072 Z M 7759,16056 L 7759,14871 7880,14801 7880,16056 7759,16056 Z"/>
     <path fill="rgb(181,181,181)" stroke="none" d="M 7880,16056 L 7880,16341 7759,16411 7759,16056 7880,16056 Z M 7759,16040 L 7759,14871 7880,14801 7880,16040 7759,16040 Z"/>
     <path fill="rgb(182,182,182)" stroke="none" d="M 7880,16040 L 7880,16341 7759,16411 7759,16040 7880,16040 Z M 7759,16024 L 7759,14871 7880,14801 7880,16024 7759,16024 Z"/>
     <path fill="rgb(183,183,183)" stroke="none" d="M 7880,16024 L 7880,16341 7759,16411 7759,16024 7880,16024 Z M 7759,16008 L 7759,14871 7880,14801 7880,16008 7759,16008 Z"/>
     <path fill="rgb(184,184,184)" stroke="none" d="M 7880,16008 L 7880,16341 7759,16411 7759,16008 7880,16008 Z M 7759,15992 L 7759,14871 7880,14801 7880,15992 7759,15992 Z"/>
     <path fill="rgb(185,185,185)" stroke="none" d="M 7880,15992 L 7880,16341 7759,16411 7759,15992 7880,15992 Z M 7759,15976 L 7759,14871 7880,14801 7880,15976 7759,15976 Z"/>
     <path fill="rgb(186,186,186)" stroke="none" d="M 7880,15976 L 7880,16341 7759,16411 7759,15976 7880,15976 Z M 7759,15959 L 7759,14871 7880,14801 7880,15959 7759,15959 Z"/>
     <path fill="rgb(187,187,187)" stroke="none" d="M 7880,15959 L 7880,16341 7759,16411 7759,15959 7880,15959 Z M 7759,15943 L 7759,14871 7880,14801 7880,15943 7759,15943 Z"/>
     <path fill="rgb(188,188,188)" stroke="none" d="M 7880,15943 L 7880,16341 7759,16411 7759,15943 7880,15943 Z M 7759,15927 L 7759,14871 7880,14801 7880,15927 7759,15927 Z"/>
     <path fill="rgb(189,189,189)" stroke="none" d="M 7880,15927 L 7880,16341 7759,16411 7759,15927 7880,15927 Z M 7759,15911 L 7759,14871 7880,14801 7880,15911 7759,15911 Z"/>
     <path fill="rgb(190,190,190)" stroke="none" d="M 7880,15911 L 7880,16341 7759,16411 7759,15911 7880,15911 Z M 7759,15895 L 7759,14871 7880,14801 7880,15895 7759,15895 Z"/>
     <path fill="rgb(191,191,191)" stroke="none" d="M 7880,15895 L 7880,16341 7759,16411 7759,15895 7880,15895 Z M 7759,15879 L 7759,14871 7880,14801 7880,15879 7759,15879 Z"/>
     <path fill="rgb(192,192,192)" stroke="none" d="M 7880,15879 L 7880,16341 7759,16411 7759,15879 7880,15879 Z M 7759,15863 L 7759,14871 7880,14801 7880,15863 7759,15863 Z"/>
     <path fill="rgb(193,193,193)" stroke="none" d="M 7880,15863 L 7880,16341 7759,16411 7759,15863 7880,15863 Z M 7759,15847 L 7759,14871 7880,14801 7880,15847 7759,15847 Z"/>
     <path fill="rgb(194,194,194)" stroke="none" d="M 7880,15847 L 7880,16341 7759,16411 7759,15847 7880,15847 Z M 7759,15830 L 7759,14871 7880,14801 7880,15830 7759,15830 Z"/>
     <path fill="rgb(195,195,195)" stroke="none" d="M 7880,15830 L 7880,16341 7759,16411 7759,15830 7880,15830 Z M 7759,15814 L 7759,14871 7880,14801 7880,15814 7759,15814 Z"/>
     <path fill="rgb(196,196,196)" stroke="none" d="M 7880,15814 L 7880,16341 7759,16411 7759,15814 7880,15814 Z M 7759,15798 L 7759,14871 7880,14801 7880,15798 7759,15798 Z"/>
     <path fill="rgb(197,197,197)" stroke="none" d="M 7880,15798 L 7880,16341 7759,16411 7759,15798 7880,15798 Z M 7759,15782 L 7759,14871 7880,14801 7880,15782 7759,15782 Z"/>
     <path fill="rgb(198,198,198)" stroke="none" d="M 7880,15782 L 7880,16341 7759,16411 7759,15782 7880,15782 Z M 7759,15766 L 7759,14871 7880,14801 7880,15766 7759,15766 Z"/>
     <path fill="rgb(199,199,199)" stroke="none" d="M 7880,15766 L 7880,16341 7759,16411 7759,15766 7880,15766 Z M 7880,14815 L 7880,15750 7759,15750 7759,14871 7856,14815 7880,14815 Z"/>
     <path fill="rgb(200,200,200)" stroke="none" d="M 7880,15750 L 7880,16341 7759,16411 7759,15750 7880,15750 Z M 7856,14815 L 7880,14801 7880,14815 7856,14815 Z M 7880,14831 L 7880,15734 7759,15734 7759,14871 7828,14831 7880,14831 Z"/>
     <path fill="rgb(201,201,201)" stroke="none" d="M 7880,15734 L 7880,16341 7759,16411 7759,15734 7880,15734 Z M 7828,14831 L 7880,14801 7880,14831 7828,14831 Z M 7880,14847 L 7880,15718 7759,15718 7759,14871 7800,14847 7880,14847 Z"/>
     <path fill="rgb(202,202,202)" stroke="none" d="M 7880,15718 L 7880,16341 7759,16411 7759,15718 7880,15718 Z M 7800,14847 L 7880,14801 7880,14847 7800,14847 Z M 7880,14864 L 7880,15701 7759,15701 7759,14871 7771,14864 7880,14864 Z"/>
     <path fill="rgb(203,203,203)" stroke="none" d="M 7880,15701 L 7880,16341 7759,16411 7759,15701 7880,15701 Z M 7771,14864 L 7880,14801 7880,14864 7771,14864 Z M 7880,14880 L 7880,15685 7759,15685 7759,14880 7880,14880 Z"/>
     <path fill="rgb(204,204,204)" stroke="none" d="M 7880,15685 L 7880,16341 7759,16411 7759,15685 7880,15685 Z M 7759,14880 L 7759,14871 7880,14801 7880,14880 7759,14880 Z M 7880,14896 L 7880,15669 7759,15669 7759,14896 7880,14896 Z"/>
     <path fill="rgb(205,205,205)" stroke="none" d="M 7880,15669 L 7880,16341 7759,16411 7759,15669 7880,15669 Z M 7759,14896 L 7759,14871 7880,14801 7880,14896 7759,14896 Z M 7880,14912 L 7880,15653 7759,15653 7759,14912 7880,14912 Z"/>
     <path fill="rgb(206,206,206)" stroke="none" d="M 7880,15653 L 7880,16341 7759,16411 7759,15653 7880,15653 Z M 7759,14912 L 7759,14871 7880,14801 7880,14912 7759,14912 Z M 7880,14928 L 7880,15637 7759,15637 7759,14928 7880,14928 Z"/>
     <path fill="rgb(207,207,207)" stroke="none" d="M 7880,15637 L 7880,16341 7759,16411 7759,15637 7880,15637 Z M 7759,14928 L 7759,14871 7880,14801 7880,14928 7759,14928 Z M 7880,14944 L 7880,15621 7759,15621 7759,14944 7880,14944 Z"/>
     <path fill="rgb(208,208,208)" stroke="none" d="M 7880,15621 L 7880,16341 7759,16411 7759,15621 7880,15621 Z M 7759,14944 L 7759,14871 7880,14801 7880,14944 7759,14944 Z M 7880,14960 L 7880,15605 7759,15605 7759,14960 7880,14960 Z"/>
     <path fill="rgb(209,209,209)" stroke="none" d="M 7880,15605 L 7880,16341 7759,16411 7759,15605 7880,15605 Z M 7759,14960 L 7759,14871 7880,14801 7880,14960 7759,14960 Z M 7880,14977 L 7880,15588 7759,15588 7759,14977 7880,14977 Z"/>
     <path fill="rgb(210,210,210)" stroke="none" d="M 7880,15588 L 7880,16341 7759,16411 7759,15588 7880,15588 Z M 7759,14977 L 7759,14871 7880,14801 7880,14977 7759,14977 Z M 7880,14993 L 7880,15572 7759,15572 7759,14993 7880,14993 Z"/>
     <path fill="rgb(211,211,211)" stroke="none" d="M 7880,15572 L 7880,16341 7759,16411 7759,15572 7880,15572 Z M 7759,14993 L 7759,14871 7880,14801 7880,14993 7759,14993 Z M 7880,15009 L 7880,15556 7759,15556 7759,15009 7880,15009 Z"/>
     <path fill="rgb(212,212,212)" stroke="none" d="M 7880,15556 L 7880,16341 7759,16411 7759,15556 7880,15556 Z M 7759,15009 L 7759,14871 7880,14801 7880,15009 7759,15009 Z M 7880,15025 L 7880,15540 7759,15540 7759,15025 7880,15025 Z"/>
     <path fill="rgb(213,213,213)" stroke="none" d="M 7880,15540 L 7880,16341 7759,16411 7759,15540 7880,15540 Z M 7759,15025 L 7759,14871 7880,14801 7880,15025 7759,15025 Z M 7880,15041 L 7880,15524 7759,15524 7759,15041 7880,15041 Z"/>
     <path fill="rgb(214,214,214)" stroke="none" d="M 7880,15524 L 7880,16341 7759,16411 7759,15524 7880,15524 Z M 7759,15041 L 7759,14871 7880,14801 7880,15041 7759,15041 Z M 7880,15057 L 7880,15508 7759,15508 7759,15057 7880,15057 Z"/>
     <path fill="rgb(215,215,215)" stroke="none" d="M 7880,15508 L 7880,16341 7759,16411 7759,15508 7880,15508 Z M 7759,15057 L 7759,14871 7880,14801 7880,15057 7759,15057 Z M 7880,15073 L 7880,15492 7759,15492 7759,15073 7880,15073 Z"/>
     <path fill="rgb(216,216,216)" stroke="none" d="M 7880,15492 L 7880,16341 7759,16411 7759,15492 7880,15492 Z M 7759,15073 L 7759,14871 7880,14801 7880,15073 7759,15073 Z M 7880,15089 L 7880,15476 7759,15476 7759,15089 7880,15089 Z"/>
     <path fill="rgb(217,217,217)" stroke="none" d="M 7880,15476 L 7880,16341 7759,16411 7759,15476 7880,15476 Z M 7759,15089 L 7759,14871 7880,14801 7880,15089 7759,15089 Z M 7880,15106 L 7880,15459 7759,15459 7759,15106 7880,15106 Z"/>
     <path fill="rgb(218,218,218)" stroke="none" d="M 7880,15459 L 7880,16341 7759,16411 7759,15459 7880,15459 Z M 7759,15106 L 7759,14871 7880,14801 7880,15106 7759,15106 Z M 7880,15122 L 7880,15443 7759,15443 7759,15122 7880,15122 Z"/>
     <path fill="rgb(219,219,219)" stroke="none" d="M 7880,15443 L 7880,16341 7759,16411 7759,15443 7880,15443 Z M 7759,15122 L 7759,14871 7880,14801 7880,15122 7759,15122 Z M 7880,15138 L 7880,15427 7759,15427 7759,15138 7880,15138 Z"/>
     <path fill="rgb(220,220,220)" stroke="none" d="M 7880,15427 L 7880,16341 7759,16411 7759,15427 7880,15427 Z M 7759,15138 L 7759,14871 7880,14801 7880,15138 7759,15138 Z M 7880,15154 L 7880,15411 7759,15411 7759,15154 7880,15154 Z"/>
     <path fill="rgb(221,221,221)" stroke="none" d="M 7880,15411 L 7880,16341 7759,16411 7759,15411 7880,15411 Z M 7759,15154 L 7759,14871 7880,14801 7880,15154 7759,15154 Z M 7880,15170 L 7880,15395 7759,15395 7759,15170 7880,15170 Z"/>
     <path fill="rgb(222,222,222)" stroke="none" d="M 7880,15395 L 7880,16341 7759,16411 7759,15395 7880,15395 Z M 7759,15170 L 7759,14871 7880,14801 7880,15170 7759,15170 Z M 7880,15186 L 7880,15379 7759,15379 7759,15186 7880,15186 Z"/>
     <path fill="rgb(223,223,223)" stroke="none" d="M 7880,15379 L 7880,16341 7759,16411 7759,15379 7880,15379 Z M 7759,15186 L 7759,14871 7880,14801 7880,15186 7759,15186 Z M 7875,15202 L 7875,15363 7759,15363 7759,15202 7875,15202 Z"/>
     <path fill="rgb(224,224,224)" stroke="none" d="M 7875,15363 L 7875,15202 7759,15202 7759,14871 7880,14801 7880,16341 7759,16411 7759,15363 7875,15363 Z M 7859,15218 L 7859,15347 7759,15347 7759,15218 7859,15218 Z"/>
     <path fill="rgb(225,225,225)" stroke="none" d="M 7859,15347 L 7859,15218 7759,15218 7759,14871 7880,14801 7880,16341 7759,16411 7759,15347 7859,15347 Z M 7842,15235 L 7842,15330 7759,15330 7759,15235 7842,15235 Z"/>
     <path fill="rgb(226,226,226)" stroke="none" d="M 7842,15330 L 7842,15235 7759,15235 7759,14871 7880,14801 7880,16341 7759,16411 7759,15330 7842,15330 Z M 7763,15251 L 7826,15251 7826,15314 7763,15314 7763,15251 Z"/>
     <path fill="rgb(227,227,227)" stroke="none" d="M 7763,15251 L 7763,15314 7826,15314 7826,15251 7763,15251 Z M 7779,15267 L 7810,15267 7810,15298 7779,15298 7779,15267 Z M 7759,16411 L 7759,14871 7880,14801 7880,16341 7759,16411 Z"/>
     <path fill="rgb(229,229,229)" stroke="none" d="M 7779,15267 L 7779,15298 7810,15298 7810,15267 7779,15267 Z M 7759,16411 L 7759,14871 7880,14801 7880,16341 7759,16411 Z"/>
     <path fill="none" stroke="rgb(255,255,255)" id="Drawing_4_0" stroke-width="40" stroke-linejoin="round" d="M 7759,16411 L 7759,14871 7880,14801 7880,16341 7759,16411 Z"/>
    </g>
    <g>
     <defs>
      <linearGradient id="Gradient_360" gradientUnits="userSpaceOnUse" x1="6423" y1="15255" x2="7761" y2="15257">
       <stop offset="0.1" stop-color="rgb(179,179,179)"/>
       <stop offset="1" stop-color="rgb(229,229,229)"/>
      </linearGradient>
     </defs>
     <path fill="url(#Gradient_360)" stroke="rgb(255,255,255)" id="Drawing_5_0" stroke-width="40" stroke-linejoin="round" d="M 6425,15641 L 6425,14101 7759,14871 7759,16411 6425,15641 Z"/>
    </g>
    <g>
     <defs>
      <linearGradient id="Gradient_361" gradientUnits="userSpaceOnUse" x1="7152" y1="14031" x2="7152" y2="14871">
       <stop offset="0.1" stop-color="rgb(179,179,179)"/>
       <stop offset="1" stop-color="rgb(229,229,229)"/>
      </linearGradient>
     </defs>
     <path fill="url(#Gradient_361)" stroke="rgb(255,255,255)" id="Drawing_6_0" stroke-width="40" stroke-linejoin="round" d="M 7759,14871 L 6424,14101 6546,14031 7880,14801 7759,14871 Z"/>
    </g>
    <g>
     <path fill="rgb(255,255,255)" stroke="none" d="M 7031,15851 L 7031,15711 7152,15781 7152,15921 7031,15851 Z"/>
     <path fill="none" stroke="rgb(127,127,127)" id="Drawing_7_0" stroke-width="40" stroke-linejoin="round" d="M 7031,15851 L 7031,15711 7152,15781 7152,15921 7031,15851 Z"/>
    </g>
    <g>
     <path fill="none" stroke="rgb(0,0,0)" id="Drawing_8_0" stroke-width="40" stroke-linejoin="round" d="M 6425,15641 L 6425,14101 6547,14031 6789,14171 7516,13751 8607,14381 8607,15641 7880,16061 7880,16341 7759,16411 6425,15641 Z"/>
    </g>
    <g>
     <defs>
      <linearGradient id="Gradient_362" gradientUnits="userSpaceOnUse" x1="6545" y1="15150" x2="7639" y2="15152">
       <stop offset="0.1" stop-color="rgb(147,212,240)"/>
       <stop offset="1" stop-color="rgb(233,246,252)"/>
      </linearGradient>
     </defs>
     <path fill="url(#Gradient_362)" stroke="rgb(102,102,102)" id="Drawing_9_0" stroke-width="40" stroke-linejoin="round" d="M 6546,15291 L 6547,14381 7637,15011 7638,15921 6546,15291 Z"/>
    </g>
    <g>
     <path fill="rgb(255,255,255)" stroke="none" d="M 7273,15991 L 7273,15851 7394,15921 7394,16061 7273,15991 Z"/>
     <path fill="none" stroke="rgb(127,127,127)" id="Drawing_10_0" stroke-width="40" stroke-linejoin="round" d="M 7273,15991 L 7273,15851 7394,15921 7394,16061 7273,15991 Z"/>
    </g>
    <g>
     <path fill="rgb(255,255,255)" stroke="none" d="M 7516,16131 L 7516,15991 7637,16061 7637,16201 7516,16131 Z"/>
     <path fill="none" stroke="rgb(127,127,127)" id="Drawing_11_0" stroke-width="40" stroke-linejoin="round" d="M 7516,16131 L 7516,15991 7637,16061 7637,16201 7516,16131 Z"/>
    </g>
    <g>
     <path fill="rgb(255,255,255)" stroke="none" d="M 6789,15711 L 6789,15571 6910,15641 6910,15781 6789,15711 Z"/>
     <path fill="none" stroke="rgb(127,127,127)" id="Drawing_12_0" stroke-width="40" stroke-linejoin="round" d="M 6789,15711 L 6789,15571 6910,15641 6910,15781 6789,15711 Z"/>
    </g>
   </g>
  </g>
 </g>
</svg>