<?xml version="1.0" encoding="UTF-8"?>

<svg version="1.2" baseProfile="tiny" width="62.04mm" height="56.4mm" viewBox="4033 3945 6204 5640" preserveAspectRatio="xMidYMid" fill-rule="evenodd" stroke-width="28.222" stroke-linejoin="round" xmlns="http://www.w3.org/2000/svg" xmlns:xlink="http://www.w3.org/1999/xlink" xml:space="preserve">
 <g visibility="visible" id="Slide_1">
  <g id="DrawingGroup_1">
   <g>
    <path fill="rgb(221,221,221)" stroke="none" d="M 5985,9511 C 6250,9511 10236,7584 10236,7423 10236,7263 10114,7102 9849,7102 9849,7263 5985,9244 5985,9511 Z"/>
    <path fill="none" stroke="rgb(221,221,221)" id="Drawing_1_0" stroke-linejoin="round" d="M 5985,9511 C 6250,9511 10236,7584 10236,7423 10236,7263 10114,7102 9849,7102 9849,7263 5985,9244 5985,9511 Z"/>
   </g>
   <g id="DrawingGroup_2">
    <g>
     <defs>
      <linearGradient id="Gradient_634" gradientUnits="userSpaceOnUse" x1="4050" y1="7883" x2="5996" y2="7887">
       <stop offset="0.1" stop-color="rgb(179,179,179)"/>
       <stop offset="1" stop-color="rgb(229,229,229)"/>
      </linearGradient>
     </defs>
     <path fill="url(#Gradient_634)" stroke="rgb(255,255,255)" id="Drawing_2_0" stroke-width="40" stroke-linejoin="round" d="M 4053,8445 L 4053,6205 5993,7325 5985,9565 4053,8445 Z"/>
    </g>
    <g>
     <path fill="rgb(179,179,179)" stroke="none" d="M 9347,7628 L 7618,8624 5988,8624 5993,7325 9347,5389 9347,7628 Z"/>
     <path fill="rgb(180,180,180)" stroke="none" d="M 7618,8624 L 5985,9565 5988,8624 7618,8624 Z M 9347,5389 L 9873,5085 9873,7325 9347,7628 9347,5389 Z M 9302,7654 L 7696,8579 5989,8579 5993,7325 9302,5415 9302,7654 Z"/>
     <path fill="rgb(181,181,181)" stroke="none" d="M 7696,8579 L 5985,9565 5989,8579 7696,8579 Z M 9302,5415 L 9873,5085 9873,7325 9302,7654 9302,5415 Z M 9257,7680 L 7775,8534 5989,8534 5993,7325 9257,5441 9257,7680 Z"/>
     <path fill="rgb(182,182,182)" stroke="none" d="M 7775,8534 L 5985,9565 5989,8534 7775,8534 Z M 9257,5441 L 9873,5085 9873,7325 9257,7680 9257,5441 Z M 9212,7706 L 7853,8489 5989,8489 5993,7325 9212,5467 9212,7706 Z"/>
     <path fill="rgb(183,183,183)" stroke="none" d="M 7853,8489 L 5985,9565 5989,8489 7853,8489 Z M 9212,5467 L 9873,5085 9873,7325 9212,7706 9212,5467 Z M 9167,7732 L 7931,8444 5989,8444 5993,7325 9167,5493 9167,7732 Z"/>
     <path fill="rgb(184,184,184)" stroke="none" d="M 7931,8444 L 5985,9565 5989,8444 7931,8444 Z M 9167,5493 L 9873,5085 9873,7325 9167,7732 9167,5493 Z M 9123,7757 L 8007,8400 5989,8400 5993,7325 9123,5518 9123,7757 Z"/>
     <path fill="rgb(185,185,185)" stroke="none" d="M 8007,8400 L 5985,9565 5989,8400 8007,8400 Z M 9123,5518 L 9873,5085 9873,7325 9123,7757 9123,5518 Z M 9078,7783 L 8085,8355 5989,8355 5993,7325 9078,5544 9078,7783 Z"/>
     <path fill="rgb(186,186,186)" stroke="none" d="M 8085,8355 L 5985,9565 5989,8355 8085,8355 Z M 9078,5544 L 9873,5085 9873,7325 9078,7783 9078,5544 Z M 9033,7809 L 8163,8310 5989,8310 5993,7325 9033,5570 9033,7809 Z"/>
     <path fill="rgb(187,187,187)" stroke="none" d="M 8163,8310 L 5985,9565 5989,8310 8163,8310 Z M 9033,5570 L 9873,5085 9873,7325 9033,7809 9033,5570 Z M 8988,7835 L 8241,8265 5990,8265 5993,7325 8988,5596 8988,7835 Z"/>
     <path fill="rgb(188,188,188)" stroke="none" d="M 8241,8265 L 5985,9565 5990,8265 8241,8265 Z M 8988,5596 L 9873,5085 9873,7325 8988,7835 8988,5596 Z M 8943,7861 L 8320,8220 5990,8220 5993,7325 8943,5622 8943,7861 Z"/>
     <path fill="rgb(189,189,189)" stroke="none" d="M 8320,8220 L 5985,9565 5990,8220 8320,8220 Z M 8943,5622 L 9873,5085 9873,7325 8943,7861 8943,5622 Z M 8898,7887 L 8398,8175 5990,8175 5993,7325 8898,5648 8898,7887 Z"/>
     <path fill="rgb(190,190,190)" stroke="none" d="M 8398,8175 L 5985,9565 5990,8175 8398,8175 Z M 8898,5648 L 9873,5085 9873,7325 8898,7887 8898,5648 Z M 8854,7912 L 8474,8131 5990,8131 5993,7325 8854,5673 8854,7912 Z"/>
     <path fill="rgb(191,191,191)" stroke="none" d="M 8474,8131 L 5985,9565 5990,8131 8474,8131 Z M 8854,5673 L 9873,5085 9873,7325 8854,7912 8854,5673 Z M 8809,7938 L 8552,8086 5990,8086 5993,7325 8809,5699 8809,7938 Z"/>
     <path fill="rgb(192,192,192)" stroke="none" d="M 8552,8086 L 5985,9565 5990,8086 8552,8086 Z M 8809,5699 L 9873,5085 9873,7325 8809,7938 8809,5699 Z M 8764,7964 L 8630,8041 5990,8041 5993,7325 8764,5725 8764,7964 Z"/>
     <path fill="rgb(193,193,193)" stroke="none" d="M 8630,8041 L 5985,9565 5990,8041 8630,8041 Z M 8764,5725 L 9873,5085 9873,7325 8764,7964 8764,5725 Z M 8719,7990 L 8708,7996 5991,7996 5993,7325 8719,5751 8719,7990 Z"/>
     <path fill="rgb(194,194,194)" stroke="none" d="M 8708,7996 L 5985,9565 5991,7996 8708,7996 Z M 8719,5751 L 9873,5085 9873,7325 8719,7990 8719,5751 Z M 8674,7951 L 5991,7951 5993,7325 8674,5777 8674,7951 Z"/>
     <path fill="rgb(195,195,195)" stroke="none" d="M 8674,7951 L 8674,5777 9873,5085 9873,7325 5985,9565 5991,7951 8674,7951 Z M 8629,7906 L 5991,7906 5993,7325 8629,5803 8629,7906 Z"/>
     <path fill="rgb(196,196,196)" stroke="none" d="M 8629,7906 L 8629,5803 9873,5085 9873,7325 5985,9565 5991,7906 8629,7906 Z M 8585,7862 L 5991,7862 5993,7325 8585,5829 8585,7862 Z"/>
     <path fill="rgb(197,197,197)" stroke="none" d="M 8585,7862 L 8585,5829 9873,5085 9873,7325 5985,9565 5991,7862 8585,7862 Z M 8540,7817 L 5991,7817 5993,7325 8540,5855 8540,7817 Z"/>
     <path fill="rgb(198,198,198)" stroke="none" d="M 8540,7817 L 8540,5855 9873,5085 9873,7325 5985,9565 5991,7817 8540,7817 Z M 8495,7772 L 5991,7772 5993,7325 8495,5881 8495,7772 Z"/>
     <path fill="rgb(199,199,199)" stroke="none" d="M 8495,7772 L 8495,5881 9873,5085 9873,7325 5985,9565 5991,7772 8495,7772 Z M 8450,7727 L 5992,7727 5993,7325 8450,5907 8450,7727 Z"/>
     <path fill="rgb(200,200,200)" stroke="none" d="M 8450,7727 L 8450,5907 9873,5085 9873,7325 5985,9565 5992,7727 8450,7727 Z M 8405,7682 L 5992,7682 5993,7325 8405,5933 8405,7682 Z"/>
     <path fill="rgb(201,201,201)" stroke="none" d="M 8405,7682 L 8405,5933 9873,5085 9873,7325 5985,9565 5992,7682 8405,7682 Z M 8360,7637 L 5992,7637 5993,7325 8360,5958 8360,7637 Z"/>
     <path fill="rgb(202,202,202)" stroke="none" d="M 8360,7637 L 8360,5958 9873,5085 9873,7325 5985,9565 5992,7637 8360,7637 Z M 8316,7593 L 5992,7593 5993,7325 8316,5984 8316,7593 Z"/>
     <path fill="rgb(203,203,203)" stroke="none" d="M 8316,7593 L 8316,5984 9873,5085 9873,7325 5985,9565 5992,7593 8316,7593 Z M 8271,7548 L 6030,7548 6030,7304 8271,6010 8271,7548 Z"/>
     <path fill="rgb(204,204,204)" stroke="none" d="M 6030,7548 L 8271,7548 8271,6010 9873,5085 9873,7325 5985,9565 5993,7325 6030,7304 6030,7548 Z M 8226,7503 L 6075,7503 6075,7278 8226,6036 8226,7503 Z"/>
     <path fill="rgb(205,205,205)" stroke="none" d="M 6075,7503 L 8226,7503 8226,6036 9873,5085 9873,7325 5985,9565 5993,7325 6075,7278 6075,7503 Z M 8181,7458 L 6120,7458 6120,7252 8181,6062 8181,7458 Z"/>
     <path fill="rgb(206,206,206)" stroke="none" d="M 6120,7458 L 8181,7458 8181,6062 9873,5085 9873,7325 5985,9565 5993,7325 6120,7252 6120,7458 Z M 8136,7413 L 6165,7413 6165,7226 8136,6088 8136,7413 Z"/>
     <path fill="rgb(207,207,207)" stroke="none" d="M 6165,7413 L 8136,7413 8136,6088 9873,5085 9873,7325 5985,9565 5993,7325 6165,7226 6165,7413 Z M 8091,7368 L 6210,7368 6210,7200 8091,6114 8091,7368 Z"/>
     <path fill="rgb(208,208,208)" stroke="none" d="M 6210,7368 L 8091,7368 8091,6114 9873,5085 9873,7325 5985,9565 5993,7325 6210,7200 6210,7368 Z M 8047,7324 L 6254,7324 6254,7174 8047,6139 8047,7324 Z"/>
     <path fill="rgb(209,209,209)" stroke="none" d="M 6254,7324 L 8047,7324 8047,6139 9873,5085 9873,7325 5985,9565 5993,7325 6254,7174 6254,7324 Z M 8002,7279 L 6299,7279 6299,7148 8002,6165 8002,7279 Z"/>
     <path fill="rgb(210,210,210)" stroke="none" d="M 6299,7279 L 8002,7279 8002,6165 9873,5085 9873,7325 5985,9565 5993,7325 6299,7148 6299,7279 Z M 7957,7234 L 6344,7234 6344,7122 7957,6191 7957,7234 Z"/>
     <path fill="rgb(211,211,211)" stroke="none" d="M 6344,7234 L 7957,7234 7957,6191 9873,5085 9873,7325 5985,9565 5993,7325 6344,7122 6344,7234 Z M 7912,7189 L 6389,7189 6389,7096 7912,6217 7912,7189 Z"/>
     <path fill="rgb(212,212,212)" stroke="none" d="M 6389,7189 L 7912,7189 7912,6217 9873,5085 9873,7325 5985,9565 5993,7325 6389,7096 6389,7189 Z M 7867,7144 L 6434,7144 6434,7070 7867,6243 7867,7144 Z"/>
     <path fill="rgb(213,213,213)" stroke="none" d="M 6434,7144 L 7867,7144 7867,6243 9873,5085 9873,7325 5985,9565 5993,7325 6434,7070 6434,7144 Z M 7822,7099 L 6479,7099 6479,7044 7822,6269 7822,7099 Z"/>
     <path fill="rgb(214,214,214)" stroke="none" d="M 6479,7099 L 7822,7099 7822,6269 9873,5085 9873,7325 5985,9565 5993,7325 6479,7044 6479,7099 Z M 7778,7055 L 6523,7055 6523,7019 7778,6294 7778,7055 Z"/>
     <path fill="rgb(215,215,215)" stroke="none" d="M 6523,7055 L 7778,7055 7778,6294 9873,5085 9873,7325 5985,9565 5993,7325 6523,7019 6523,7055 Z M 7733,7010 L 6568,7010 6568,6993 7733,6320 7733,7010 Z"/>
     <path fill="rgb(216,216,216)" stroke="none" d="M 6568,7010 L 7733,7010 7733,6320 9873,5085 9873,7325 5985,9565 5993,7325 6568,6993 6568,7010 Z M 7688,6965 L 6617,6965 7688,6346 7688,6965 Z"/>
     <path fill="rgb(217,217,217)" stroke="none" d="M 7688,6965 L 7688,6346 9873,5085 9873,7325 5985,9565 5993,7325 6617,6965 7688,6965 Z M 7643,6920 L 6695,6920 7643,6372 7643,6920 Z"/>
     <path fill="rgb(218,218,218)" stroke="none" d="M 7643,6920 L 7643,6372 9873,5085 9873,7325 5985,9565 5993,7325 6695,6920 7643,6920 Z M 7598,6875 L 6772,6875 7598,6398 7598,6875 Z"/>
     <path fill="rgb(219,219,219)" stroke="none" d="M 7598,6875 L 7598,6398 9873,5085 9873,7325 5985,9565 5993,7325 6772,6875 7598,6875 Z M 7553,6830 L 6850,6830 7553,6424 7553,6830 Z"/>
     <path fill="rgb(220,220,220)" stroke="none" d="M 7553,6830 L 7553,6424 9873,5085 9873,7325 5985,9565 5993,7325 6850,6830 7553,6830 Z M 7509,6786 L 6927,6786 7509,6450 7509,6786 Z"/>
     <path fill="rgb(221,221,221)" stroke="none" d="M 7509,6786 L 7509,6450 9873,5085 9873,7325 5985,9565 5993,7325 6927,6786 7509,6786 Z M 7464,6741 L 7005,6741 7464,6476 7464,6741 Z"/>
     <path fill="rgb(222,222,222)" stroke="none" d="M 7464,6741 L 7464,6476 9873,5085 9873,7325 5985,9565 5993,7325 7005,6741 7464,6741 Z M 7419,6696 L 7083,6696 7419,6502 7419,6696 Z"/>
     <path fill="rgb(223,223,223)" stroke="none" d="M 7419,6696 L 7419,6502 9873,5085 9873,7325 5985,9565 5993,7325 7083,6696 7419,6696 Z M 7374,6651 L 7160,6651 7374,6528 7374,6651 Z"/>
     <path fill="rgb(224,224,224)" stroke="none" d="M 7374,6651 L 7374,6528 9873,5085 9873,7325 5985,9565 5993,7325 7160,6651 7374,6651 Z M 7329,6606 L 7238,6606 7329,6554 7329,6606 Z"/>
     <path fill="rgb(225,225,225)" stroke="none" d="M 7329,6606 L 7329,6554 9873,5085 9873,7325 5985,9565 5993,7325 7238,6606 7329,6606 Z"/>
     <path fill="rgb(226,226,226)" stroke="none" d="M 5985,9565 L 5993,7325 9873,5085 9873,7325 5985,9565 Z"/>
     <path fill="rgb(227,227,227)" stroke="none" d="M 5985,9565 L 5993,7325 9873,5085 9873,7325 5985,9565 Z"/>
     <path fill="rgb(229,229,229)" stroke="none" d="M 5985,9565 L 5993,7325 9873,5085 9873,7325 5985,9565 Z"/>
     <path fill="none" stroke="rgb(255,255,255)" id="Drawing_3_0" stroke-width="40" stroke-linejoin="round" d="M 5985,9565 L 5993,7325 9873,5085 9873,7325 5985,9565 Z"/>
    </g>
    <g>
     <defs>
      <linearGradient id="Gradient_635" gradientUnits="userSpaceOnUse" x1="6963" y1="3965" x2="6963" y2="7325">
       <stop offset="0.1" stop-color="rgb(179,179,179)"/>
       <stop offset="1" stop-color="rgb(229,229,229)"/>
      </linearGradient>
     </defs>
     <path fill="url(#Gradient_635)" stroke="rgb(255,255,255)" id="Drawing_4_0" stroke-width="40" stroke-linejoin="round" d="M 5993,7325 L 4053,6205 7933,3965 9873,5085 5993,7325 Z"/>
    </g>
    <g>
     <path fill="rgb(153,255,102)" stroke="none" d="M 5212,8066 L 5212,7905 5309,7959 5309,8119 5212,8066 Z"/>
     <path fill="none" stroke="rgb(51,51,51)" id="Drawing_5_0" stroke-width="40" stroke-linejoin="round" d="M 5212,8066 L 5212,7905 5309,7959 5309,8119 5212,8066 Z"/>
    </g>
    <g>
     <path fill="rgb(255,51,51)" stroke="none" d="M 4729,7798 L 4729,7637 4826,7691 4826,7851 4729,7798 Z"/>
     <path fill="none" stroke="rgb(51,51,51)" id="Drawing_6_0" stroke-width="40" stroke-linejoin="round" d="M 4729,7798 L 4729,7637 4826,7691 4826,7851 4729,7798 Z"/>
    </g>
    <g>
     <path fill="rgb(102,102,102)" stroke="none" d="M 4922,8013 L 4922,7745 5115,7852 5115,8120 4922,8013 Z"/>
     <path fill="none" stroke="rgb(255,255,255)" id="Drawing_7_0" stroke-width="40" stroke-linejoin="round" d="M 4922,8013 L 4922,7745 5115,7852 5115,8120 4922,8013 Z"/>
    </g>
    <g>
     <defs>
      <linearGradient id="Gradient_636" gradientUnits="userSpaceOnUse" x1="4631" y1="7556" x2="5406" y2="7558">
       <stop offset="0.1" stop-color="rgb(147,212,240)"/>
       <stop offset="1" stop-color="rgb(233,246,252)"/>
      </linearGradient>
     </defs>
     <path fill="url(#Gradient_636)" stroke="rgb(127,127,127)" id="Drawing_8_0" stroke-width="40" stroke-linejoin="round" d="M 4633,7477 L 4633,7209 5406,7637 5406,7905 4633,7477 Z"/>
    </g>
    <g>
     <path fill="none" stroke="rgb(255,255,255)" id="Drawing_9_0" stroke-width="40" stroke-linejoin="round" d="M 4538,6485 L 4536,8762"/>
    </g>
    <g>
     <path fill="none" stroke="rgb(255,255,255)" id="Drawing_10_0" stroke-width="40" stroke-linejoin="round" d="M 5508,7045 L 5502,9297"/>
    </g>
    <g>
     <path fill="none" stroke="rgb(127,127,127)" id="Drawing_11_0" stroke-width="40" stroke-linejoin="round" d="M 9630,6345 L 9630,7325"/>
    </g>
    <g>
     <path fill="none" stroke="rgb(127,127,127)" id="Drawing_12_0" stroke-width="40" stroke-linejoin="round" d="M 9509,6415 L 9509,7395"/>
    </g>
    <g>
     <path fill="none" stroke="rgb(127,127,127)" id="Drawing_13_0" stroke-width="40" stroke-linejoin="round" d="M 9388,6485 L 9388,7465"/>
    </g>
    <g>
     <path fill="none" stroke="rgb(127,127,127)" id="Drawing_14_0" stroke-width="40" stroke-linejoin="round" d="M 9266,6555 L 9266,7535"/>
    </g>
    <g>
     <path fill="none" stroke="rgb(127,127,127)" id="Drawing_15_0" stroke-width="40" stroke-linejoin="round" d="M 9145,6625 L 9145,7605"/>
    </g>
    <g>
     <path fill="none" stroke="rgb(127,127,127)" id="Drawing_16_0" stroke-width="40" stroke-linejoin="round" d="M 9751,7255 L 9751,6275"/>
    </g>
    <g>
     <path fill="none" stroke="rgb(127,127,127)" id="Drawing_17_0" stroke-width="40" stroke-linejoin="round" d="M 9024,6695 L 9024,7675"/>
    </g>
    <g>
     <path fill="none" stroke="rgb(0,0,0)" id="Drawing_18_0" stroke-width="40" stroke-linejoin="round" d="M 4053,8445 L 4053,6205 7933,3965 9873,5085 9873,7325 5985,9565 4053,8445 Z"/>
    </g>
   </g>
  </g>
 </g>
</svg>