<?xml version="1.0" encoding="UTF-8"?>

<svg version="1.2" baseProfile="tiny" width="31.19mm" height="30.5mm" viewBox="5375 7223 3119 3050" preserveAspectRatio="xMidYMid" fill-rule="evenodd" stroke-width="28.222" stroke-linejoin="round" xmlns="http://www.w3.org/2000/svg" xmlns:xlink="http://www.w3.org/1999/xlink" xml:space="preserve">
 <g visibility="visible" id="Slide_1">
  <g id="DrawingGroup_1">
   <g>
    <path fill="rgb(221,221,221)" stroke="none" d="M 7819,10253 C 8066,10253 8184,10323 8427,10183 8669,10043 8178,9890 8088,9890 8088,10046 7819,10045 7819,10253 Z"/>
    <path fill="none" stroke="rgb(221,221,221)" id="Drawing_1_0" stroke-linejoin="round" d="M 7819,10253 C 8066,10253 8184,10323 8427,10183 8669,10043 8178,9890 8088,9890 8088,10046 7819,10045 7819,10253 Z"/>
   </g>
   <g id="DrawingGroup_2">
    <g>
     <defs>
      <linearGradient id="Gradient_760" gradientUnits="userSpaceOnUse" x1="5932" y1="9576" x2="7819" y2="9580">
       <stop offset="0.1" stop-color="rgb(179,179,179)"/>
       <stop offset="1" stop-color="rgb(229,229,229)"/>
      </linearGradient>
     </defs>
     <path fill="url(#Gradient_760)" stroke="rgb(255,255,255)" id="Drawing_2_0" stroke-width="40" stroke-linejoin="round" d="M 5934,9163 L 5934,8904 7819,9994 7819,10253 5934,9163 Z"/>
    </g>
    <g>
     <defs>
      <linearGradient id="Gradient_761" gradientUnits="userSpaceOnUse" x1="5752" y1="9420" x2="7639" y2="9424">
       <stop offset="0.1" stop-color="rgb(179,179,179)"/>
       <stop offset="1" stop-color="rgb(229,229,229)"/>
      </linearGradient>
     </defs>
     <path fill="url(#Gradient_761)" stroke="rgb(255,255,255)" id="Drawing_3_0" stroke-width="40" stroke-linejoin="round" d="M 5754,9007 L 5754,8748 7639,9838 7639,10097 5754,9007 Z"/>
    </g>
    <g>
     <defs>
      <linearGradient id="Gradient_762" gradientUnits="userSpaceOnUse" x1="5573" y1="9264" x2="7460" y2="9268">
       <stop offset="0.1" stop-color="rgb(179,179,179)"/>
       <stop offset="1" stop-color="rgb(229,229,229)"/>
      </linearGradient>
     </defs>
     <path fill="url(#Gradient_762)" stroke="rgb(255,255,255)" id="Drawing_4_0" stroke-width="40" stroke-linejoin="round" d="M 5575,8851 L 5575,8592 7460,9682 7460,9941 5575,8851 Z"/>
    </g>
    <g>
     <defs>
      <linearGradient id="Gradient_763" gradientUnits="userSpaceOnUse" x1="6741" y1="7243" x2="6741" y2="8800">
       <stop offset="0.1" stop-color="rgb(179,179,179)"/>
       <stop offset="1" stop-color="rgb(229,229,229)"/>
      </linearGradient>
     </defs>
     <path fill="url(#Gradient_763)" stroke="rgb(255,255,255)" id="Drawing_5_0" stroke-width="40" stroke-linejoin="round" d="M 7280,8800 L 5395,7710 6203,7243 8088,8333 7280,8800 Z"/>
    </g>
    <g>
     <path fill="rgb(127,127,127)" stroke="none" d="M 7640,10098 L 7640,9994 7730,10046 7730,10150 7640,10098 Z"/>
     <path fill="none" stroke="rgb(0,0,0)" id="Drawing_6_0" stroke-width="40" stroke-linejoin="round" d="M 7640,10098 L 7640,9994 7730,10046 7730,10150 7640,10098 Z"/>
    </g>
    <g>
     <path fill="rgb(127,127,127)" stroke="none" d="M 7460,9942 L 7460,9838 7550,9890 7550,9994 7460,9942 Z"/>
     <path fill="none" stroke="rgb(0,0,0)" id="Drawing_7_0" stroke-width="40" stroke-linejoin="round" d="M 7460,9942 L 7460,9838 7550,9890 7550,9994 7460,9942 Z"/>
    </g>
    <g>
     <defs>
      <linearGradient id="Gradient_764" gradientUnits="userSpaceOnUse" x1="5392" y1="8746" x2="7281" y2="8750">
       <stop offset="0.1" stop-color="rgb(179,179,179)"/>
       <stop offset="1" stop-color="rgb(229,229,229)"/>
      </linearGradient>
     </defs>
     <path fill="url(#Gradient_764)" stroke="rgb(255,255,255)" id="Drawing_8_0" stroke-width="40" stroke-linejoin="round" d="M 5395,8696 L 5395,7710 7280,8800 7280,9786 5395,8696 Z"/>
    </g>
    <g>
     <path fill="rgb(127,127,127)" stroke="none" d="M 7280,9786 L 7280,9682 7370,9734 7370,9838 7280,9786 Z"/>
     <path fill="none" stroke="rgb(0,0,0)" id="Drawing_9_0" stroke-width="40" stroke-linejoin="round" d="M 7280,9786 L 7280,9682 7370,9734 7370,9838 7280,9786 Z"/>
    </g>
    <g>
     <path fill="rgb(179,179,179)" stroke="none" d="M 7639,9849 L 7639,9838 7620,9849 7460,9849 7460,9682 7280,9786 7280,8800 8088,8333 8088,9849 7639,9849 Z"/>
     <path fill="rgb(180,180,180)" stroke="none" d="M 7620,9849 L 7460,9942 7460,9849 7620,9849 Z M 8088,9849 L 8088,10097 7819,10253 7819,9994 7639,10097 7639,9849 8088,9849 Z M 7460,9830 L 7460,9682 7280,9786 7280,8800 8088,8333 8088,9830 7460,9830 Z"/>
     <path fill="rgb(181,181,181)" stroke="none" d="M 8088,9830 L 8088,10097 7819,10253 7819,9994 7639,10097 7639,9838 7460,9942 7460,9830 8088,9830 Z M 7460,9811 L 7460,9682 7280,9786 7280,8800 8088,8333 8088,9811 7460,9811 Z"/>
     <path fill="rgb(182,182,182)" stroke="none" d="M 8088,9811 L 8088,10097 7819,10253 7819,9994 7639,10097 7639,9838 7460,9942 7460,9811 8088,9811 Z M 7460,9792 L 7460,9682 7280,9786 7280,8800 8088,8333 8088,9792 7460,9792 Z"/>
     <path fill="rgb(183,183,183)" stroke="none" d="M 8088,9792 L 8088,10097 7819,10253 7819,9994 7639,10097 7639,9838 7460,9942 7460,9792 8088,9792 Z M 7460,9772 L 7460,9682 7304,9772 7280,9772 7280,8800 8088,8333 8088,9772 7460,9772 Z"/>
     <path fill="rgb(184,184,184)" stroke="none" d="M 7304,9772 L 7280,9786 7280,9772 7304,9772 Z M 8088,9772 L 8088,10097 7819,10253 7819,9994 7639,10097 7639,9838 7460,9942 7460,9772 8088,9772 Z M 7460,9753 L 7460,9682 7337,9753 7280,9753 7280,8800 8088,8333 8088,9753 7460,9753 Z"/>
     <path fill="rgb(185,185,185)" stroke="none" d="M 7337,9753 L 7280,9786 7280,9753 7337,9753 Z M 8088,9753 L 8088,10097 7819,10253 7819,9994 7639,10097 7639,9838 7460,9942 7460,9753 8088,9753 Z M 7460,9734 L 7460,9682 7370,9734 7280,9734 7280,8800 8088,8333 8088,9734 7460,9734 Z"/>
     <path fill="rgb(186,186,186)" stroke="none" d="M 7370,9734 L 7280,9786 7280,9734 7370,9734 Z M 8088,9734 L 8088,10097 7819,10253 7819,9994 7639,10097 7639,9838 7460,9942 7460,9734 8088,9734 Z M 7460,9715 L 7460,9682 7403,9715 7280,9715 7280,8800 8088,8333 8088,9715 7460,9715 Z"/>
     <path fill="rgb(187,187,187)" stroke="none" d="M 7403,9715 L 7280,9786 7280,9715 7403,9715 Z M 8088,9715 L 8088,10097 7819,10253 7819,9994 7639,10097 7639,9838 7460,9942 7460,9715 8088,9715 Z M 7460,9695 L 7460,9682 7438,9695 7280,9695 7280,8800 8088,8333 8088,9695 7460,9695 Z"/>
     <path fill="rgb(188,188,188)" stroke="none" d="M 7438,9695 L 7280,9786 7280,9695 7438,9695 Z M 8088,9695 L 8088,10097 7819,10253 7819,9994 7639,10097 7639,9838 7460,9942 7460,9695 8088,9695 Z M 7280,9676 L 7280,8800 8088,8333 8088,9676 7280,9676 Z"/>
     <path fill="rgb(189,189,189)" stroke="none" d="M 8088,9676 L 8088,10097 7819,10253 7819,9994 7639,10097 7639,9838 7460,9942 7460,9682 7280,9786 7280,9676 8088,9676 Z M 7280,9657 L 7280,8800 8088,8333 8088,9657 7280,9657 Z"/>
     <path fill="rgb(190,190,190)" stroke="none" d="M 8088,9657 L 8088,10097 7819,10253 7819,9994 7639,10097 7639,9838 7460,9942 7460,9682 7280,9786 7280,9657 8088,9657 Z M 7280,9638 L 7280,8800 8088,8333 8088,9638 7280,9638 Z"/>
     <path fill="rgb(191,191,191)" stroke="none" d="M 8088,9638 L 8088,10097 7819,10253 7819,9994 7639,10097 7639,9838 7460,9942 7460,9682 7280,9786 7280,9638 8088,9638 Z M 7280,9619 L 7280,8800 8088,8333 8088,9619 7280,9619 Z"/>
     <path fill="rgb(192,192,192)" stroke="none" d="M 8088,9619 L 8088,10097 7819,10253 7819,9994 7639,10097 7639,9838 7460,9942 7460,9682 7280,9786 7280,9619 8088,9619 Z M 7280,9599 L 7280,8800 8088,8333 8088,9599 7280,9599 Z"/>
     <path fill="rgb(193,193,193)" stroke="none" d="M 8088,9599 L 8088,10097 7819,10253 7819,9994 7639,10097 7639,9838 7460,9942 7460,9682 7280,9786 7280,9599 8088,9599 Z M 7280,9580 L 7280,8800 8088,8333 8088,9580 7280,9580 Z"/>
     <path fill="rgb(194,194,194)" stroke="none" d="M 8088,9580 L 8088,10097 7819,10253 7819,9994 7639,10097 7639,9838 7460,9942 7460,9682 7280,9786 7280,9580 8088,9580 Z M 7280,9561 L 7280,8800 8088,8333 8088,9561 7280,9561 Z"/>
     <path fill="rgb(195,195,195)" stroke="none" d="M 8088,9561 L 8088,10097 7819,10253 7819,9994 7639,10097 7639,9838 7460,9942 7460,9682 7280,9786 7280,9561 8088,9561 Z M 7280,9542 L 7280,8800 8088,8333 8088,9542 7280,9542 Z"/>
     <path fill="rgb(196,196,196)" stroke="none" d="M 8088,9542 L 8088,10097 7819,10253 7819,9994 7639,10097 7639,9838 7460,9942 7460,9682 7280,9786 7280,9542 8088,9542 Z M 7280,9522 L 7280,8800 8088,8333 8088,9522 7280,9522 Z"/>
     <path fill="rgb(197,197,197)" stroke="none" d="M 8088,9522 L 8088,10097 7819,10253 7819,9994 7639,10097 7639,9838 7460,9942 7460,9682 7280,9786 7280,9522 8088,9522 Z M 7280,9503 L 7280,8800 8088,8333 8088,9503 7280,9503 Z"/>
     <path fill="rgb(198,198,198)" stroke="none" d="M 8088,9503 L 8088,10097 7819,10253 7819,9994 7639,10097 7639,9838 7460,9942 7460,9682 7280,9786 7280,9503 8088,9503 Z M 7280,9484 L 7280,8800 8088,8333 8088,9484 7280,9484 Z"/>
     <path fill="rgb(199,199,199)" stroke="none" d="M 8088,9484 L 8088,10097 7819,10253 7819,9994 7639,10097 7639,9838 7460,9942 7460,9682 7280,9786 7280,9484 8088,9484 Z M 8079,8350 L 8079,9465 7280,9465 7280,8800 8059,8350 8079,8350 Z"/>
     <path fill="rgb(200,200,200)" stroke="none" d="M 8079,9465 L 8079,8350 8059,8350 8088,8333 8088,10097 7819,10253 7819,9994 7639,10097 7639,9838 7460,9942 7460,9682 7280,9786 7280,9465 8079,9465 Z M 8059,8370 L 8059,9445 7280,9445 7280,8800 8024,8370 8059,8370 Z"/>
     <path fill="rgb(201,201,201)" stroke="none" d="M 8059,9445 L 8059,8370 8024,8370 8088,8333 8088,10097 7819,10253 7819,9994 7639,10097 7639,9838 7460,9942 7460,9682 7280,9786 7280,9445 8059,9445 Z M 8040,8389 L 8040,9426 7280,9426 7280,8800 7991,8389 8040,8389 Z"/>
     <path fill="rgb(202,202,202)" stroke="none" d="M 8040,9426 L 8040,8389 7991,8389 8088,8333 8088,10097 7819,10253 7819,9994 7639,10097 7639,9838 7460,9942 7460,9682 7280,9786 7280,9426 8040,9426 Z M 8021,8408 L 8021,9407 7280,9407 7280,8800 7958,8408 8021,8408 Z"/>
     <path fill="rgb(203,203,203)" stroke="none" d="M 8021,9407 L 8021,8408 7958,8408 8088,8333 8088,10097 7819,10253 7819,9994 7639,10097 7639,9838 7460,9942 7460,9682 7280,9786 7280,9407 8021,9407 Z M 8002,8427 L 8002,9388 7280,9388 7280,8800 7925,8427 8002,8427 Z"/>
     <path fill="rgb(204,204,204)" stroke="none" d="M 8002,9388 L 8002,8427 7925,8427 8088,8333 8088,10097 7819,10253 7819,9994 7639,10097 7639,9838 7460,9942 7460,9682 7280,9786 7280,9388 8002,9388 Z M 7983,8446 L 7983,9369 7280,9369 7280,8800 7892,8446 7983,8446 Z"/>
     <path fill="rgb(205,205,205)" stroke="none" d="M 7983,9369 L 7983,8446 7892,8446 8088,8333 8088,10097 7819,10253 7819,9994 7639,10097 7639,9838 7460,9942 7460,9682 7280,9786 7280,9369 7983,9369 Z M 7963,8466 L 7963,9349 7280,9349 7280,8800 7858,8466 7963,8466 Z"/>
     <path fill="rgb(206,206,206)" stroke="none" d="M 7963,9349 L 7963,8466 7858,8466 8088,8333 8088,10097 7819,10253 7819,9994 7639,10097 7639,9838 7460,9942 7460,9682 7280,9786 7280,9349 7963,9349 Z M 7944,8485 L 7944,9330 7280,9330 7280,8800 7825,8485 7944,8485 Z"/>
     <path fill="rgb(207,207,207)" stroke="none" d="M 7944,9330 L 7944,8485 7825,8485 8088,8333 8088,10097 7819,10253 7819,9994 7639,10097 7639,9838 7460,9942 7460,9682 7280,9786 7280,9330 7944,9330 Z M 7925,8504 L 7925,9311 7280,9311 7280,8800 7792,8504 7925,8504 Z"/>
     <path fill="rgb(208,208,208)" stroke="none" d="M 7925,9311 L 7925,8504 7792,8504 8088,8333 8088,10097 7819,10253 7819,9994 7639,10097 7639,9838 7460,9942 7460,9682 7280,9786 7280,9311 7925,9311 Z M 7906,8523 L 7906,9292 7280,9292 7280,8800 7759,8523 7906,8523 Z"/>
     <path fill="rgb(209,209,209)" stroke="none" d="M 7906,9292 L 7906,8523 7759,8523 8088,8333 8088,10097 7819,10253 7819,9994 7639,10097 7639,9838 7460,9942 7460,9682 7280,9786 7280,9292 7906,9292 Z M 7886,8543 L 7886,9272 7280,9272 7280,8800 7725,8543 7886,8543 Z"/>
     <path fill="rgb(210,210,210)" stroke="none" d="M 7886,9272 L 7886,8543 7725,8543 8088,8333 8088,10097 7819,10253 7819,9994 7639,10097 7639,9838 7460,9942 7460,9682 7280,9786 7280,9272 7886,9272 Z M 7867,8562 L 7867,9253 7280,9253 7280,8800 7692,8562 7867,8562 Z"/>
     <path fill="rgb(211,211,211)" stroke="none" d="M 7867,9253 L 7867,8562 7692,8562 8088,8333 8088,10097 7819,10253 7819,9994 7639,10097 7639,9838 7460,9942 7460,9682 7280,9786 7280,9253 7867,9253 Z M 7848,8581 L 7848,9234 7280,9234 7280,8800 7659,8581 7848,8581 Z"/>
     <path fill="rgb(212,212,212)" stroke="none" d="M 7848,9234 L 7848,8581 7659,8581 8088,8333 8088,10097 7819,10253 7819,9994 7639,10097 7639,9838 7460,9942 7460,9682 7280,9786 7280,9234 7848,9234 Z M 7829,8600 L 7829,9215 7280,9215 7280,8800 7626,8600 7829,8600 Z"/>
     <path fill="rgb(213,213,213)" stroke="none" d="M 7829,9215 L 7829,8600 7626,8600 8088,8333 8088,10097 7819,10253 7819,9994 7639,10097 7639,9838 7460,9942 7460,9682 7280,9786 7280,9215 7829,9215 Z M 7809,8620 L 7809,9195 7280,9195 7280,8800 7591,8620 7809,8620 Z"/>
     <path fill="rgb(214,214,214)" stroke="none" d="M 7809,9195 L 7809,8620 7591,8620 8088,8333 8088,10097 7819,10253 7819,9994 7639,10097 7639,9838 7460,9942 7460,9682 7280,9786 7280,9195 7809,9195 Z M 7790,8639 L 7790,9176 7280,9176 7280,8800 7559,8639 7790,8639 Z"/>
     <path fill="rgb(215,215,215)" stroke="none" d="M 7790,9176 L 7790,8639 7559,8639 8088,8333 8088,10097 7819,10253 7819,9994 7639,10097 7639,9838 7460,9942 7460,9682 7280,9786 7280,9176 7790,9176 Z M 7771,8658 L 7771,9157 7280,9157 7280,8800 7526,8658 7771,8658 Z"/>
     <path fill="rgb(216,216,216)" stroke="none" d="M 7771,9157 L 7771,8658 7526,8658 8088,8333 8088,10097 7819,10253 7819,9994 7639,10097 7639,9838 7460,9942 7460,9682 7280,9786 7280,9157 7771,9157 Z M 7752,8677 L 7752,9138 7291,9138 7291,8794 7493,8677 7752,8677 Z"/>
     <path fill="rgb(217,217,217)" stroke="none" d="M 7291,9138 L 7752,9138 7752,8677 7493,8677 8088,8333 8088,10097 7819,10253 7819,9994 7639,10097 7639,9838 7460,9942 7460,9682 7280,9786 7280,8800 7291,8794 7291,9138 Z M 7733,8696 L 7733,9119 7310,9119 7310,8783 7460,8696 7733,8696 Z"/>
     <path fill="rgb(218,218,218)" stroke="none" d="M 7310,9119 L 7733,9119 7733,8696 7460,8696 8088,8333 8088,10097 7819,10253 7819,9994 7639,10097 7639,9838 7460,9942 7460,9682 7280,9786 7280,8800 7310,8783 7310,9119 Z M 7713,8716 L 7713,9099 7330,9099 7330,8771 7425,8716 7713,8716 Z"/>
     <path fill="rgb(219,219,219)" stroke="none" d="M 7330,9099 L 7713,9099 7713,8716 7425,8716 8088,8333 8088,10097 7819,10253 7819,9994 7639,10097 7639,9838 7460,9942 7460,9682 7280,9786 7280,8800 7330,8771 7330,9099 Z M 7694,8735 L 7694,9080 7349,9080 7349,8760 7392,8735 7694,8735 Z"/>
     <path fill="rgb(220,220,220)" stroke="none" d="M 7349,9080 L 7694,9080 7694,8735 7392,8735 8088,8333 8088,10097 7819,10253 7819,9994 7639,10097 7639,9838 7460,9942 7460,9682 7280,9786 7280,8800 7349,8760 7349,9080 Z M 7368,8754 L 7675,8754 7675,9061 7368,9061 7368,8754 Z"/>
     <path fill="rgb(221,221,221)" stroke="none" d="M 7368,8754 L 7368,9061 7675,9061 7675,8754 7368,8754 Z M 7387,8773 L 7656,8773 7656,9042 7387,9042 7387,8773 Z M 7819,9994 L 7639,10097 7639,9838 7460,9942 7460,9682 7280,9786 7280,8800 8088,8333 8088,10097 7819,10253 7819,9994 Z"/>
     <path fill="rgb(222,222,222)" stroke="none" d="M 7387,8773 L 7387,9042 7656,9042 7656,8773 7387,8773 Z M 7407,8793 L 7636,8793 7636,9022 7407,9022 7407,8793 Z M 7819,9994 L 7639,10097 7639,9838 7460,9942 7460,9682 7280,9786 7280,8800 8088,8333 8088,10097 7819,10253 7819,9994 Z"/>
     <path fill="rgb(223,223,223)" stroke="none" d="M 7407,8793 L 7407,9022 7636,9022 7636,8793 7407,8793 Z M 7426,8812 L 7617,8812 7617,9003 7426,9003 7426,8812 Z M 7819,9994 L 7639,10097 7639,9838 7460,9942 7460,9682 7280,9786 7280,8800 8088,8333 8088,10097 7819,10253 7819,9994 Z"/>
     <path fill="rgb(224,224,224)" stroke="none" d="M 7426,8812 L 7426,9003 7617,9003 7617,8812 7426,8812 Z M 7445,8831 L 7598,8831 7598,8984 7445,8984 7445,8831 Z M 7819,9994 L 7639,10097 7639,9838 7460,9942 7460,9682 7280,9786 7280,8800 8088,8333 8088,10097 7819,10253 7819,9994 Z"/>
     <path fill="rgb(225,225,225)" stroke="none" d="M 7445,8831 L 7445,8984 7598,8984 7598,8831 7445,8831 Z M 7464,8850 L 7579,8850 7579,8965 7464,8965 7464,8850 Z M 7819,9994 L 7639,10097 7639,9838 7460,9942 7460,9682 7280,9786 7280,8800 8088,8333 8088,10097 7819,10253 7819,9994 Z"/>
     <path fill="rgb(226,226,226)" stroke="none" d="M 7464,8850 L 7464,8965 7579,8965 7579,8850 7464,8850 Z M 7484,8870 L 7559,8870 7559,8945 7484,8945 7484,8870 Z M 7819,9994 L 7639,10097 7639,9838 7460,9942 7460,9682 7280,9786 7280,8800 8088,8333 8088,10097 7819,10253 7819,9994 Z"/>
     <path fill="rgb(227,227,227)" stroke="none" d="M 7484,8870 L 7484,8945 7559,8945 7559,8870 7484,8870 Z M 7503,8889 L 7540,8889 7540,8926 7503,8926 7503,8889 Z M 7819,9994 L 7639,10097 7639,9838 7460,9942 7460,9682 7280,9786 7280,8800 8088,8333 8088,10097 7819,10253 7819,9994 Z"/>
     <path fill="rgb(229,229,229)" stroke="none" d="M 7503,8889 L 7503,8926 7540,8926 7540,8889 7503,8889 Z M 7819,9994 L 7639,10097 7639,9838 7460,9942 7460,9682 7280,9786 7280,8800 8088,8333 8088,10097 7819,10253 7819,9994 Z"/>
     <path fill="none" stroke="rgb(255,255,255)" id="Drawing_10_0" stroke-width="40" stroke-linejoin="round" d="M 7819,9994 L 7639,10097 7639,9838 7460,9942 7460,9682 7280,9786 7280,8800 8088,8333 8088,10097 7819,10253 7819,9994 Z"/>
    </g>
    <g>
     <path fill="none" stroke="rgb(0,0,0)" id="Drawing_11_0" stroke-width="40" stroke-linejoin="round" d="M 5934,9163 L 5934,9111 5754,9007 5754,8956 5575,8852 5575,8800 5395,8696 5395,7710 6203,7243 8088,8333 8088,10097 7819,10253 5934,9163 Z"/>
    </g>
    <g>
     <path fill="rgb(230,230,230)" stroke="none" d="M 5485,8592 L 5485,8073 7191,9059 7191,9578 5485,8592 Z"/>
     <path fill="none" stroke="rgb(153,153,153)" id="Drawing_12_0" stroke-width="40" stroke-linejoin="round" d="M 5485,8592 L 5485,8073 7191,9059 7191,9578 5485,8592 Z"/>
    </g>
    <g>
     <path fill="rgb(127,127,127)" stroke="none" d="M 5485,8022 L 5485,7918 5575,7970 5575,8074 5485,8022 Z"/>
     <path fill="none" stroke="rgb(0,0,0)" id="Drawing_13_0" stroke-width="40" stroke-linejoin="round" d="M 5485,8022 L 5485,7918 5575,7970 5575,8074 5485,8022 Z"/>
    </g>
   </g>
  </g>
 </g>
</svg>