<?xml version="1.0" encoding="UTF-8"?>

<svg version="1.2" baseProfile="tiny" width="32.34mm" height="28.54mm" viewBox="7024 14652 3234 2854" preserveAspectRatio="xMidYMid" fill-rule="evenodd" stroke-width="28.222" stroke-linejoin="round" xmlns="http://www.w3.org/2000/svg" xmlns:xlink="http://www.w3.org/1999/xlink" xml:space="preserve">
 <g visibility="visible" id="Slide_1">
  <g id="DrawingGroup_1">
   <g>
    <path fill="rgb(221,221,221)" stroke="none" d="M 8991,17486 C 9258,17486 10257,17205 10257,16980 10257,16755 10232,16642 9965,16642 9965,16811 8991,17260 8991,17486 Z"/>
    <path fill="none" stroke="rgb(221,221,221)" id="Drawing_1_0" stroke-linejoin="round" d="M 8991,17486 C 9258,17486 10257,17205 10257,16980 10257,16755 10232,16642 9965,16642 9965,16811 8991,17260 8991,17486 Z"/>
   </g>
   <g id="DrawingGroup_2">
    <g>
     <defs>
      <linearGradient id="Gradient_12" gradientUnits="userSpaceOnUse" x1="7042" y1="16022" x2="7823" y2="16024">
       <stop offset="0.1" stop-color="rgb(51,51,51)"/>
       <stop offset="1" stop-color="rgb(153,153,153)"/>
      </linearGradient>
     </defs>
     <path fill="url(#Gradient_12)" stroke="rgb(178,178,178)" id="Drawing_2_0" stroke-width="40" stroke-linejoin="round" d="M 7044,16361 L 7044,15235 7823,15685 7823,16811 7044,16361 Z"/>
    </g>
    <g>
     <path fill="rgb(51,51,51)" stroke="none" d="M 8991,17138 L 8991,16361 9965,15798 9965,16924 9594,17138 8991,17138 Z"/>
     <path fill="rgb(52,52,52)" stroke="none" d="M 9594,17138 L 8991,17486 8991,17138 9594,17138 Z M 8991,17128 L 8991,16361 9965,15798 9965,16924 9611,17128 8991,17128 Z"/>
     <path fill="rgb(53,53,53)" stroke="none" d="M 9611,17128 L 8991,17486 8991,17128 9611,17128 Z M 8991,17118 L 8991,16361 9965,15798 9965,16924 9629,17118 8991,17118 Z"/>
     <path fill="rgb(54,54,54)" stroke="none" d="M 9629,17118 L 8991,17486 8991,17118 9629,17118 Z M 8991,17108 L 8991,16361 9965,15798 9965,16924 9646,17108 8991,17108 Z"/>
     <path fill="rgb(55,55,55)" stroke="none" d="M 9646,17108 L 8991,17486 8991,17108 9646,17108 Z M 8991,17098 L 8991,16361 9965,15798 9965,16924 9663,17098 8991,17098 Z"/>
     <path fill="rgb(57,57,57)" stroke="none" d="M 9663,17098 L 8991,17486 8991,17098 9663,17098 Z M 8991,17088 L 8991,16361 9965,15798 9965,16924 9681,17088 8991,17088 Z"/>
     <path fill="rgb(58,58,58)" stroke="none" d="M 9681,17088 L 8991,17486 8991,17088 9681,17088 Z M 8991,17078 L 8991,16361 9965,15798 9965,16924 9698,17078 8991,17078 Z"/>
     <path fill="rgb(59,59,59)" stroke="none" d="M 9698,17078 L 8991,17486 8991,17078 9698,17078 Z M 8991,17068 L 8991,16361 9965,15798 9965,16924 9715,17068 8991,17068 Z"/>
     <path fill="rgb(60,60,60)" stroke="none" d="M 9715,17068 L 8991,17486 8991,17068 9715,17068 Z M 8991,17058 L 8991,16361 9965,15798 9965,16924 9733,17058 8991,17058 Z"/>
     <path fill="rgb(61,61,61)" stroke="none" d="M 9733,17058 L 8991,17486 8991,17058 9733,17058 Z M 8991,17048 L 8991,16361 9965,15798 9965,16924 9750,17048 8991,17048 Z"/>
     <path fill="rgb(63,63,63)" stroke="none" d="M 9750,17048 L 8991,17486 8991,17048 9750,17048 Z M 8991,17038 L 8991,16361 9965,15798 9965,16924 9767,17038 8991,17038 Z"/>
     <path fill="rgb(64,64,64)" stroke="none" d="M 9767,17038 L 8991,17486 8991,17038 9767,17038 Z M 8991,17028 L 8991,16361 9965,15798 9965,16924 9785,17028 8991,17028 Z"/>
     <path fill="rgb(65,65,65)" stroke="none" d="M 9785,17028 L 8991,17486 8991,17028 9785,17028 Z M 8991,17018 L 8991,16361 9965,15798 9965,16924 9802,17018 8991,17018 Z"/>
     <path fill="rgb(66,66,66)" stroke="none" d="M 9802,17018 L 8991,17486 8991,17018 9802,17018 Z M 8991,17008 L 8991,16361 9965,15798 9965,16924 9819,17008 8991,17008 Z"/>
     <path fill="rgb(68,68,68)" stroke="none" d="M 9819,17008 L 8991,17486 8991,17008 9819,17008 Z M 8991,16998 L 8991,16361 9965,15798 9965,16924 9837,16998 8991,16998 Z"/>
     <path fill="rgb(69,69,69)" stroke="none" d="M 9837,16998 L 8991,17486 8991,16998 9837,16998 Z M 8991,16987 L 8991,16361 9965,15798 9965,16924 9856,16987 8991,16987 Z"/>
     <path fill="rgb(70,70,70)" stroke="none" d="M 9856,16987 L 8991,17486 8991,16987 9856,16987 Z M 9956,16929 L 9873,16977 8991,16977 8991,16361 9956,15803 9956,16929 Z"/>
     <path fill="rgb(71,71,71)" stroke="none" d="M 9873,16977 L 8991,17486 8991,16977 9873,16977 Z M 9956,15803 L 9965,15798 9965,16924 9956,16929 9956,15803 Z M 9946,16935 L 9890,16967 8991,16967 8991,16361 9946,15809 9946,16935 Z"/>
     <path fill="rgb(72,72,72)" stroke="none" d="M 9890,16967 L 8991,17486 8991,16967 9890,16967 Z M 9946,15809 L 9965,15798 9965,16924 9946,16935 9946,15809 Z M 9936,16941 L 9908,16957 8991,16957 8991,16361 9936,15815 9936,16941 Z"/>
     <path fill="rgb(74,74,74)" stroke="none" d="M 9908,16957 L 8991,17486 8991,16957 9908,16957 Z M 9936,15815 L 9965,15798 9965,16924 9936,16941 9936,15815 Z M 9926,16947 L 9925,16947 8991,16947 8991,16361 9926,15821 9926,16947 Z"/>
     <path fill="rgb(75,75,75)" stroke="none" d="M 9925,16947 L 8991,17486 8991,16947 9925,16947 Z M 9926,15821 L 9965,15798 9965,16924 9926,16947 9926,15821 Z M 9916,16937 L 8991,16937 8991,16361 9916,15826 9916,16937 Z"/>
     <path fill="rgb(76,76,76)" stroke="none" d="M 9916,16937 L 9916,15826 9965,15798 9965,16924 8991,17486 8991,16937 9916,16937 Z M 9906,16927 L 8991,16927 8991,16361 9906,15832 9906,16927 Z"/>
     <path fill="rgb(77,77,77)" stroke="none" d="M 9906,16927 L 9906,15832 9965,15798 9965,16924 8991,17486 8991,16927 9906,16927 Z M 9896,16917 L 8991,16917 8991,16361 9896,15838 9896,16917 Z"/>
     <path fill="rgb(78,78,78)" stroke="none" d="M 9896,16917 L 9896,15838 9965,15798 9965,16924 8991,17486 8991,16917 9896,16917 Z M 9886,16907 L 8991,16907 8991,16361 9886,15844 9886,16907 Z"/>
     <path fill="rgb(80,80,80)" stroke="none" d="M 9886,16907 L 9886,15844 9965,15798 9965,16924 8991,17486 8991,16907 9886,16907 Z M 9876,16897 L 8991,16897 8991,16361 9876,15849 9876,16897 Z"/>
     <path fill="rgb(81,81,81)" stroke="none" d="M 9876,16897 L 9876,15849 9965,15798 9965,16924 8991,17486 8991,16897 9876,16897 Z M 9866,16887 L 8991,16887 8991,16361 9866,15855 9866,16887 Z"/>
     <path fill="rgb(82,82,82)" stroke="none" d="M 9866,16887 L 9866,15855 9965,15798 9965,16924 8991,17486 8991,16887 9866,16887 Z M 9856,16877 L 8991,16877 8991,16361 9856,15861 9856,16877 Z"/>
     <path fill="rgb(83,83,83)" stroke="none" d="M 9856,16877 L 9856,15861 9965,15798 9965,16924 8991,17486 8991,16877 9856,16877 Z M 9846,16867 L 8991,16867 8991,16361 9846,15867 9846,16867 Z"/>
     <path fill="rgb(85,85,85)" stroke="none" d="M 9846,16867 L 9846,15867 9965,15798 9965,16924 8991,17486 8991,16867 9846,16867 Z M 9836,16857 L 8991,16857 8991,16361 9836,15873 9836,16857 Z"/>
     <path fill="rgb(86,86,86)" stroke="none" d="M 9836,16857 L 9836,15873 9965,15798 9965,16924 8991,17486 8991,16857 9836,16857 Z M 9826,16847 L 8991,16847 8991,16361 9826,15878 9826,16847 Z"/>
     <path fill="rgb(87,87,87)" stroke="none" d="M 9826,16847 L 9826,15878 9965,15798 9965,16924 8991,17486 8991,16847 9826,16847 Z M 9815,16836 L 8991,16836 8991,16361 9815,15885 9815,16836 Z"/>
     <path fill="rgb(88,88,88)" stroke="none" d="M 9815,16836 L 9815,15885 9965,15798 9965,16924 8991,17486 8991,16836 9815,16836 Z M 9805,16826 L 8991,16826 8991,16361 9805,15890 9805,16826 Z"/>
     <path fill="rgb(89,89,89)" stroke="none" d="M 9805,16826 L 9805,15890 9965,15798 9965,16924 8991,17486 8991,16826 9805,16826 Z M 9795,16816 L 8991,16816 8991,16361 9795,15896 9795,16816 Z"/>
     <path fill="rgb(91,91,91)" stroke="none" d="M 9795,16816 L 9795,15896 9965,15798 9965,16924 8991,17486 8991,16816 9795,16816 Z M 9785,16806 L 8991,16806 8991,16361 9785,15902 9785,16806 Z"/>
     <path fill="rgb(92,92,92)" stroke="none" d="M 9785,16806 L 9785,15902 9965,15798 9965,16924 8991,17486 8991,16806 9785,16806 Z M 9775,16796 L 8991,16796 8991,16361 9775,15908 9775,16796 Z"/>
     <path fill="rgb(93,93,93)" stroke="none" d="M 9775,16796 L 9775,15908 9965,15798 9965,16924 8991,17486 8991,16796 9775,16796 Z M 9765,16786 L 8991,16786 8991,16361 9765,15914 9765,16786 Z"/>
     <path fill="rgb(94,94,94)" stroke="none" d="M 9765,16786 L 9765,15914 9965,15798 9965,16924 8991,17486 8991,16786 9765,16786 Z M 9755,16776 L 8991,16776 8991,16361 9755,15919 9755,16776 Z"/>
     <path fill="rgb(95,95,95)" stroke="none" d="M 9755,16776 L 9755,15919 9965,15798 9965,16924 8991,17486 8991,16776 9755,16776 Z M 9745,16766 L 8991,16766 8991,16361 9745,15925 9745,16766 Z"/>
     <path fill="rgb(97,97,97)" stroke="none" d="M 9745,16766 L 9745,15925 9965,15798 9965,16924 8991,17486 8991,16766 9745,16766 Z M 9735,16756 L 8991,16756 8991,16361 9735,15931 9735,16756 Z"/>
     <path fill="rgb(98,98,98)" stroke="none" d="M 9735,16756 L 9735,15931 9965,15798 9965,16924 8991,17486 8991,16756 9735,16756 Z M 9725,16746 L 8991,16746 8991,16361 9725,15937 9725,16746 Z"/>
     <path fill="rgb(99,99,99)" stroke="none" d="M 9725,16746 L 9725,15937 9965,15798 9965,16924 8991,17486 8991,16746 9725,16746 Z M 9715,16736 L 8991,16736 8991,16361 9715,15943 9715,16736 Z"/>
     <path fill="rgb(100,100,100)" stroke="none" d="M 9715,16736 L 9715,15943 9965,15798 9965,16924 8991,17486 8991,16736 9715,16736 Z M 9705,16726 L 8991,16726 8991,16361 9705,15948 9705,16726 Z"/>
     <path fill="rgb(102,102,102)" stroke="none" d="M 9705,16726 L 9705,15948 9965,15798 9965,16924 8991,17486 8991,16726 9705,16726 Z M 9695,16716 L 8991,16716 8991,16361 9695,15954 9695,16716 Z"/>
     <path fill="rgb(103,103,103)" stroke="none" d="M 9695,16716 L 9695,15954 9965,15798 9965,16924 8991,17486 8991,16716 9695,16716 Z M 9685,16706 L 8991,16706 8991,16361 9685,15960 9685,16706 Z"/>
     <path fill="rgb(104,104,104)" stroke="none" d="M 9685,16706 L 9685,15960 9965,15798 9965,16924 8991,17486 8991,16706 9685,16706 Z M 9675,16696 L 8991,16696 8991,16361 9675,15966 9675,16696 Z"/>
     <path fill="rgb(105,105,105)" stroke="none" d="M 9675,16696 L 9675,15966 9965,15798 9965,16924 8991,17486 8991,16696 9675,16696 Z M 9664,16685 L 8991,16685 8991,16361 9664,15972 9664,16685 Z"/>
     <path fill="rgb(106,106,106)" stroke="none" d="M 9664,16685 L 9664,15972 9965,15798 9965,16924 8991,17486 8991,16685 9664,16685 Z M 9654,16675 L 8991,16675 8991,16361 9654,15978 9654,16675 Z"/>
     <path fill="rgb(108,108,108)" stroke="none" d="M 9654,16675 L 9654,15978 9965,15798 9965,16924 8991,17486 8991,16675 9654,16675 Z M 9644,16665 L 8991,16665 8991,16361 9644,15984 9644,16665 Z"/>
     <path fill="rgb(109,109,109)" stroke="none" d="M 9644,16665 L 9644,15984 9965,15798 9965,16924 8991,17486 8991,16665 9644,16665 Z M 9634,16655 L 8991,16655 8991,16361 9634,15989 9634,16655 Z"/>
     <path fill="rgb(110,110,110)" stroke="none" d="M 9634,16655 L 9634,15989 9965,15798 9965,16924 8991,17486 8991,16655 9634,16655 Z M 9624,16645 L 8991,16645 8991,16361 9624,15995 9624,16645 Z"/>
     <path fill="rgb(111,111,111)" stroke="none" d="M 9624,16645 L 9624,15995 9965,15798 9965,16924 8991,17486 8991,16645 9624,16645 Z M 9614,16635 L 8991,16635 8991,16361 9614,16001 9614,16635 Z"/>
     <path fill="rgb(112,112,112)" stroke="none" d="M 9614,16635 L 9614,16001 9965,15798 9965,16924 8991,17486 8991,16635 9614,16635 Z M 9604,16625 L 8991,16625 8991,16361 9604,16007 9604,16625 Z"/>
     <path fill="rgb(114,114,114)" stroke="none" d="M 9604,16625 L 9604,16007 9965,15798 9965,16924 8991,17486 8991,16625 9604,16625 Z M 9594,16615 L 8991,16615 8991,16361 9594,16012 9594,16615 Z"/>
     <path fill="rgb(115,115,115)" stroke="none" d="M 9594,16615 L 9594,16012 9965,15798 9965,16924 8991,17486 8991,16615 9594,16615 Z M 9584,16605 L 8991,16605 8991,16361 9584,16018 9584,16605 Z"/>
     <path fill="rgb(116,116,116)" stroke="none" d="M 9584,16605 L 9584,16018 9965,15798 9965,16924 8991,17486 8991,16605 9584,16605 Z M 9574,16595 L 8991,16595 8991,16361 9574,16024 9574,16595 Z"/>
     <path fill="rgb(117,117,117)" stroke="none" d="M 9574,16595 L 9574,16024 9965,15798 9965,16924 8991,17486 8991,16595 9574,16595 Z M 9564,16585 L 9001,16585 9001,16355 9564,16030 9564,16585 Z"/>
     <path fill="rgb(119,119,119)" stroke="none" d="M 9001,16585 L 9564,16585 9564,16030 9965,15798 9965,16924 8991,17486 8991,16361 9001,16355 9001,16585 Z M 9554,16575 L 9011,16575 9011,16349 9554,16036 9554,16575 Z"/>
     <path fill="rgb(120,120,120)" stroke="none" d="M 9011,16575 L 9554,16575 9554,16036 9965,15798 9965,16924 8991,17486 8991,16361 9011,16349 9011,16575 Z M 9544,16042 L 9544,16565 9021,16565 9021,16344 9543,16042 9544,16042 Z"/>
     <path fill="rgb(121,121,121)" stroke="none" d="M 9021,16565 L 9544,16565 9544,16042 9543,16042 9965,15798 9965,16924 8991,17486 8991,16361 9021,16344 9021,16565 Z M 9534,16052 L 9534,16555 9031,16555 9031,16338 9526,16052 9534,16052 Z"/>
     <path fill="rgb(122,122,122)" stroke="none" d="M 9031,16555 L 9534,16555 9534,16052 9526,16052 9965,15798 9965,16924 8991,17486 8991,16361 9031,16338 9031,16555 Z M 9524,16062 L 9524,16545 9041,16545 9041,16332 9508,16062 9524,16062 Z"/>
     <path fill="rgb(123,123,123)" stroke="none" d="M 9041,16545 L 9524,16545 9524,16062 9508,16062 9965,15798 9965,16924 8991,17486 8991,16361 9041,16332 9041,16545 Z M 9514,16072 L 9514,16535 9051,16535 9051,16326 9491,16072 9514,16072 Z"/>
     <path fill="rgb(125,125,125)" stroke="none" d="M 9051,16535 L 9514,16535 9514,16072 9491,16072 9965,15798 9965,16924 8991,17486 8991,16361 9051,16326 9051,16535 Z M 9503,16083 L 9503,16524 9062,16524 9062,16320 9472,16083 9503,16083 Z"/>
     <path fill="rgb(126,126,126)" stroke="none" d="M 9062,16524 L 9503,16524 9503,16083 9472,16083 9965,15798 9965,16924 8991,17486 8991,16361 9062,16320 9062,16524 Z M 9493,16093 L 9493,16514 9072,16514 9072,16314 9455,16093 9493,16093 Z"/>
     <path fill="rgb(127,127,127)" stroke="none" d="M 9072,16514 L 9493,16514 9493,16093 9455,16093 9965,15798 9965,16924 8991,17486 8991,16361 9072,16314 9072,16514 Z M 9483,16103 L 9483,16504 9082,16504 9082,16308 9437,16103 9483,16103 Z"/>
     <path fill="rgb(128,128,128)" stroke="none" d="M 9082,16504 L 9483,16504 9483,16103 9437,16103 9965,15798 9965,16924 8991,17486 8991,16361 9082,16308 9082,16504 Z M 9473,16113 L 9473,16494 9092,16494 9092,16303 9420,16113 9473,16113 Z"/>
     <path fill="rgb(129,129,129)" stroke="none" d="M 9092,16494 L 9473,16494 9473,16113 9420,16113 9965,15798 9965,16924 8991,17486 8991,16361 9092,16303 9092,16494 Z M 9463,16123 L 9463,16484 9102,16484 9102,16297 9403,16123 9463,16123 Z"/>
     <path fill="rgb(131,131,131)" stroke="none" d="M 9102,16484 L 9463,16484 9463,16123 9403,16123 9965,15798 9965,16924 8991,17486 8991,16361 9102,16297 9102,16484 Z M 9453,16133 L 9453,16474 9112,16474 9112,16291 9385,16133 9453,16133 Z"/>
     <path fill="rgb(132,132,132)" stroke="none" d="M 9112,16474 L 9453,16474 9453,16133 9385,16133 9965,15798 9965,16924 8991,17486 8991,16361 9112,16291 9112,16474 Z M 9443,16143 L 9443,16464 9122,16464 9122,16285 9368,16143 9443,16143 Z"/>
     <path fill="rgb(133,133,133)" stroke="none" d="M 9122,16464 L 9443,16464 9443,16143 9368,16143 9965,15798 9965,16924 8991,17486 8991,16361 9122,16285 9122,16464 Z M 9433,16153 L 9433,16454 9132,16454 9132,16279 9351,16153 9433,16153 Z"/>
     <path fill="rgb(134,134,134)" stroke="none" d="M 9132,16454 L 9433,16454 9433,16153 9351,16153 9965,15798 9965,16924 8991,17486 8991,16361 9132,16279 9132,16454 Z M 9423,16163 L 9423,16444 9142,16444 9142,16274 9334,16163 9423,16163 Z"/>
     <path fill="rgb(136,136,136)" stroke="none" d="M 9142,16444 L 9423,16444 9423,16163 9334,16163 9965,15798 9965,16924 8991,17486 8991,16361 9142,16274 9142,16444 Z M 9413,16173 L 9413,16434 9152,16434 9152,16268 9316,16173 9413,16173 Z"/>
     <path fill="rgb(137,137,137)" stroke="none" d="M 9152,16434 L 9413,16434 9413,16173 9316,16173 9965,15798 9965,16924 8991,17486 8991,16361 9152,16268 9152,16434 Z M 9403,16183 L 9403,16424 9162,16424 9162,16262 9299,16183 9403,16183 Z"/>
     <path fill="rgb(138,138,138)" stroke="none" d="M 9162,16424 L 9403,16424 9403,16183 9299,16183 9965,15798 9965,16924 8991,17486 8991,16361 9162,16262 9162,16424 Z M 9393,16193 L 9393,16414 9172,16414 9172,16256 9282,16193 9393,16193 Z"/>
     <path fill="rgb(139,139,139)" stroke="none" d="M 9172,16414 L 9393,16414 9393,16193 9282,16193 9965,15798 9965,16924 8991,17486 8991,16361 9172,16256 9172,16414 Z M 9383,16203 L 9383,16404 9182,16404 9182,16251 9264,16203 9383,16203 Z"/>
     <path fill="rgb(140,140,140)" stroke="none" d="M 9182,16404 L 9383,16404 9383,16203 9264,16203 9965,15798 9965,16924 8991,17486 8991,16361 9182,16251 9182,16404 Z M 9373,16213 L 9373,16394 9192,16394 9192,16245 9247,16213 9373,16213 Z"/>
     <path fill="rgb(142,142,142)" stroke="none" d="M 9192,16394 L 9373,16394 9373,16213 9247,16213 9965,15798 9965,16924 8991,17486 8991,16361 9192,16245 9192,16394 Z M 9363,16223 L 9363,16384 9202,16384 9202,16239 9230,16223 9363,16223 Z"/>
     <path fill="rgb(143,143,143)" stroke="none" d="M 9202,16384 L 9363,16384 9363,16223 9230,16223 9965,15798 9965,16924 8991,17486 8991,16361 9202,16239 9202,16384 Z M 9213,16234 L 9352,16234 9352,16373 9213,16373 9213,16234 Z"/>
     <path fill="rgb(144,144,144)" stroke="none" d="M 9213,16234 L 9213,16373 9352,16373 9352,16234 9213,16234 Z M 9223,16244 L 9342,16244 9342,16363 9223,16363 9223,16244 Z M 8991,17486 L 8991,16361 9965,15798 9965,16924 8991,17486 Z"/>
     <path fill="rgb(145,145,145)" stroke="none" d="M 9223,16244 L 9223,16363 9342,16363 9342,16244 9223,16244 Z M 9233,16254 L 9332,16254 9332,16353 9233,16353 9233,16254 Z M 8991,17486 L 8991,16361 9965,15798 9965,16924 8991,17486 Z"/>
     <path fill="rgb(146,146,146)" stroke="none" d="M 9233,16254 L 9233,16353 9332,16353 9332,16254 9233,16254 Z M 9243,16264 L 9322,16264 9322,16343 9243,16343 9243,16264 Z M 8991,17486 L 8991,16361 9965,15798 9965,16924 8991,17486 Z"/>
     <path fill="rgb(148,148,148)" stroke="none" d="M 9243,16264 L 9243,16343 9322,16343 9322,16264 9243,16264 Z M 9253,16274 L 9312,16274 9312,16333 9253,16333 9253,16274 Z M 8991,17486 L 8991,16361 9965,15798 9965,16924 8991,17486 Z"/>
     <path fill="rgb(149,149,149)" stroke="none" d="M 9253,16274 L 9253,16333 9312,16333 9312,16274 9253,16274 Z M 9263,16284 L 9302,16284 9302,16323 9263,16323 9263,16284 Z M 8991,17486 L 8991,16361 9965,15798 9965,16924 8991,17486 Z"/>
     <path fill="rgb(150,150,150)" stroke="none" d="M 9263,16284 L 9263,16323 9302,16323 9302,16284 9263,16284 Z M 9273,16294 L 9292,16294 9292,16313 9273,16313 9273,16294 Z M 8991,17486 L 8991,16361 9965,15798 9965,16924 8991,17486 Z"/>
     <path fill="rgb(153,153,153)" stroke="none" d="M 9273,16294 L 9273,16313 9292,16313 9292,16294 9273,16294 Z M 8991,17486 L 8991,16361 9965,15798 9965,16924 8991,17486 Z"/>
     <path fill="none" stroke="rgb(178,178,178)" id="Drawing_3_0" stroke-width="40" stroke-linejoin="round" d="M 8991,17486 L 8991,16361 9965,15798 9965,16924 8991,17486 Z"/>
    </g>
    <g>
     <defs>
      <linearGradient id="Gradient_13" gradientUnits="userSpaceOnUse" x1="7920" y1="14672" x2="7920" y2="15685">
       <stop offset="0.1" stop-color="rgb(51,51,51)"/>
       <stop offset="1" stop-color="rgb(153,153,153)"/>
      </linearGradient>
     </defs>
     <path fill="url(#Gradient_13)" stroke="rgb(178,178,178)" id="Drawing_4_0" stroke-width="40" stroke-linejoin="round" d="M 7823,15685 L 7044,15235 8018,14672 8796,15122 7823,15685 Z"/>
    </g>
    <g>
     <path fill="rgb(127,127,127)" stroke="none" d="M 7531,16416 L 7531,16135 7628,16191 7628,16473 7531,16416 Z"/>
     <path fill="none" stroke="rgb(51,51,51)" id="Drawing_5_0" stroke-width="40" stroke-linejoin="round" d="M 7531,16416 L 7531,16135 7628,16191 7628,16473 7531,16416 Z"/>
    </g>
    <g>
     <path fill="rgb(127,127,127)" stroke="none" d="M 7336,16304 L 7336,16023 7433,16079 7433,16361 7336,16304 Z"/>
     <path fill="none" stroke="rgb(51,51,51)" id="Drawing_6_0" stroke-width="40" stroke-linejoin="round" d="M 7336,16304 L 7336,16023 7433,16079 7433,16361 7336,16304 Z"/>
    </g>
    <g>
     <defs>
      <linearGradient id="Gradient_14" gradientUnits="userSpaceOnUse" x1="8698" y1="16838" x2="8992" y2="16838">
       <stop offset="0.1" stop-color="rgb(51,51,51)"/>
       <stop offset="1" stop-color="rgb(153,153,153)"/>
      </linearGradient>
     </defs>
     <path fill="url(#Gradient_14)" stroke="rgb(178,178,178)" id="Drawing_7_0" stroke-width="40" stroke-linejoin="round" d="M 8699,17317 L 8699,16191 8991,16360 8991,17485 8699,17317 Z"/>
    </g>
    <g>
     <path fill="rgb(57,181,74)" stroke="none" d="M 7531,15910 L 7531,15741 7628,15797 7628,15966 7531,15910 Z"/>
     <path fill="none" stroke="rgb(51,51,51)" id="Drawing_8_0" stroke-width="40" stroke-linejoin="round" d="M 7531,15910 L 7531,15741 7628,15797 7628,15966 7531,15910 Z"/>
    </g>
    <g>
     <defs>
      <linearGradient id="Gradient_15" gradientUnits="userSpaceOnUse" x1="8406" y1="16670" x2="8700" y2="16670">
       <stop offset="0.1" stop-color="rgb(51,51,51)"/>
       <stop offset="1" stop-color="rgb(153,153,153)"/>
      </linearGradient>
     </defs>
     <path fill="url(#Gradient_15)" stroke="rgb(178,178,178)" id="Drawing_9_0" stroke-width="40" stroke-linejoin="round" d="M 8407,17149 L 8407,16023 8699,16192 8699,17317 8407,17149 Z"/>
    </g>
    <g>
     <defs>
      <linearGradient id="Gradient_16" gradientUnits="userSpaceOnUse" x1="8114" y1="16501" x2="8408" y2="16501">
       <stop offset="0.1" stop-color="rgb(51,51,51)"/>
       <stop offset="1" stop-color="rgb(153,153,153)"/>
      </linearGradient>
     </defs>
     <path fill="url(#Gradient_16)" stroke="rgb(178,178,178)" id="Drawing_10_0" stroke-width="40" stroke-linejoin="round" d="M 8115,16980 L 8115,15854 8407,16023 8407,17148 8115,16980 Z"/>
    </g>
    <g>
     <defs>
      <linearGradient id="Gradient_17" gradientUnits="userSpaceOnUse" x1="7822" y1="16332" x2="8116" y2="16332">
       <stop offset="0.1" stop-color="rgb(51,51,51)"/>
       <stop offset="1" stop-color="rgb(153,153,153)"/>
      </linearGradient>
     </defs>
     <path fill="url(#Gradient_17)" stroke="rgb(178,178,178)" id="Drawing_11_0" stroke-width="40" stroke-linejoin="round" d="M 7823,16811 L 7823,15685 8115,15854 8115,16979 7823,16811 Z"/>
    </g>
    <g>
     <defs>
      <linearGradient id="Gradient_18" gradientUnits="userSpaceOnUse" x1="8456" y1="15122" x2="8456" y2="15854">
       <stop offset="0.1" stop-color="rgb(51,51,51)"/>
       <stop offset="1" stop-color="rgb(153,153,153)"/>
      </linearGradient>
     </defs>
     <path fill="url(#Gradient_18)" stroke="rgb(178,178,178)" id="Drawing_12_0" stroke-width="40" stroke-linejoin="round" d="M 8115,15854 L 7823,15685 8797,15122 9089,15291 8115,15854 Z"/>
    </g>
    <g>
     <defs>
      <linearGradient id="Gradient_19" gradientUnits="userSpaceOnUse" x1="8748" y1="15291" x2="8748" y2="16023">
       <stop offset="0.1" stop-color="rgb(51,51,51)"/>
       <stop offset="1" stop-color="rgb(153,153,153)"/>
      </linearGradient>
     </defs>
     <path fill="url(#Gradient_19)" stroke="rgb(178,178,178)" id="Drawing_13_0" stroke-width="40" stroke-linejoin="round" d="M 8407,16023 L 8115,15854 9089,15291 9381,15460 8407,16023 Z"/>
    </g>
    <g>
     <defs>
      <linearGradient id="Gradient_20" gradientUnits="userSpaceOnUse" x1="9040" y1="15460" x2="9040" y2="16192">
       <stop offset="0.1" stop-color="rgb(51,51,51)"/>
       <stop offset="1" stop-color="rgb(153,153,153)"/>
      </linearGradient>
     </defs>
     <path fill="url(#Gradient_20)" stroke="rgb(178,178,178)" id="Drawing_14_0" stroke-width="40" stroke-linejoin="round" d="M 8699,16192 L 8407,16023 9381,15460 9673,15629 8699,16192 Z"/>
    </g>
    <g>
     <defs>
      <linearGradient id="Gradient_21" gradientUnits="userSpaceOnUse" x1="9332" y1="15629" x2="9332" y2="16361">
       <stop offset="0.1" stop-color="rgb(51,51,51)"/>
       <stop offset="1" stop-color="rgb(153,153,153)"/>
      </linearGradient>
     </defs>
     <path fill="url(#Gradient_21)" stroke="rgb(178,178,178)" id="Drawing_15_0" stroke-width="40" stroke-linejoin="round" d="M 8991,16361 L 8699,16192 9673,15629 9965,15798 8991,16361 Z"/>
    </g>
    <g>
     <path fill="rgb(0,0,0)" stroke="none" d="M 7920,16023 L 7920,15854 8017,15910 8017,16079 7920,16023 Z"/>
     <path fill="none" stroke="rgb(51,51,51)" id="Drawing_16_0" stroke-width="40" stroke-linejoin="round" d="M 7920,16023 L 7920,15854 8017,15910 8017,16079 7920,16023 Z"/>
    </g>
    <g>
     <path fill="rgb(0,0,0)" stroke="none" d="M 7920,16360 L 7920,16191 8017,16247 8017,16416 7920,16360 Z"/>
     <path fill="none" stroke="rgb(51,51,51)" id="Drawing_17_0" stroke-width="40" stroke-linejoin="round" d="M 7920,16360 L 7920,16191 8017,16247 8017,16416 7920,16360 Z"/>
    </g>
    <g>
     <path fill="rgb(0,0,0)" stroke="none" d="M 7920,16698 L 7920,16529 8017,16585 8017,16754 7920,16698 Z"/>
     <path fill="none" stroke="rgb(51,51,51)" id="Drawing_18_0" stroke-width="40" stroke-linejoin="round" d="M 7920,16698 L 7920,16529 8017,16585 8017,16754 7920,16698 Z"/>
    </g>
    <g>
     <path fill="rgb(0,0,0)" stroke="none" d="M 8212,16192 L 8212,16023 8309,16079 8309,16248 8212,16192 Z"/>
     <path fill="none" stroke="rgb(51,51,51)" id="Drawing_19_0" stroke-width="40" stroke-linejoin="round" d="M 8212,16192 L 8212,16023 8309,16079 8309,16248 8212,16192 Z"/>
    </g>
    <g>
     <path fill="rgb(0,0,0)" stroke="none" d="M 8504,16417 L 8504,16248 8601,16304 8601,16473 8504,16417 Z"/>
     <path fill="none" stroke="rgb(51,51,51)" id="Drawing_20_0" stroke-width="40" stroke-linejoin="round" d="M 8504,16417 L 8504,16248 8601,16304 8601,16473 8504,16417 Z"/>
    </g>
    <g>
     <path fill="rgb(0,0,0)" stroke="none" d="M 8504,17036 L 8504,16867 8601,16923 8601,17092 8504,17036 Z"/>
     <path fill="none" stroke="rgb(51,51,51)" id="Drawing_21_0" stroke-width="40" stroke-linejoin="round" d="M 8504,17036 L 8504,16867 8601,16923 8601,17092 8504,17036 Z"/>
    </g>
    <g>
     <path fill="none" stroke="rgb(0,0,0)" id="Drawing_22_0" stroke-width="40" stroke-linejoin="round" d="M 7044,16360 L 7044,15235 8018,14672 9965,15798 9965,16923 8991,17486 7044,16360 Z"/>
    </g>
   </g>
  </g>
 </g>
</svg>