<?xml version="1.0" encoding="UTF-8"?>

<svg version="1.2" baseProfile="tiny" width="32.34mm" height="28.54mm" viewBox="1474 4582 3234 2854" preserveAspectRatio="xMidYMid" fill-rule="evenodd" stroke-width="28.222" stroke-linejoin="round" xmlns="http://www.w3.org/2000/svg" xmlns:xlink="http://www.w3.org/1999/xlink" xml:space="preserve">
 <g visibility="visible" id="Slide_1">
  <g id="DrawingGroup_1">
   <g>
    <path fill="rgb(221,221,221)" stroke="none" d="M 3441,7416 C 3708,7416 4707,7135 4707,6910 4707,6685 4682,6572 4415,6572 4415,6741 3441,7190 3441,7416 Z"/>
    <path fill="none" stroke="rgb(221,221,221)" id="Drawing_1_0" stroke-linejoin="round" d="M 3441,7416 C 3708,7416 4707,7135 4707,6910 4707,6685 4682,6572 4415,6572 4415,6741 3441,7190 3441,7416 Z"/>
   </g>
   <g id="DrawingGroup_2">
    <g>
     <defs>
      <linearGradient id="Gradient_652" gradientUnits="userSpaceOnUse" x1="1492" y1="5952" x2="2273" y2="5954">
       <stop offset="0.1" stop-color="rgb(179,179,179)"/>
       <stop offset="1" stop-color="rgb(229,229,229)"/>
      </linearGradient>
     </defs>
     <path fill="url(#Gradient_652)" stroke="rgb(255,255,255)" id="Drawing_2_0" stroke-width="40" stroke-linejoin="round" d="M 1494,6291 L 1494,5165 2273,5615 2273,6741 1494,6291 Z"/>
    </g>
    <g>
     <path fill="rgb(179,179,179)" stroke="none" d="M 3441,7062 L 3441,6291 4415,5728 4415,6854 4055,7062 3441,7062 Z"/>
     <path fill="rgb(180,180,180)" stroke="none" d="M 4055,7062 L 3441,7416 3441,7062 4055,7062 Z M 3441,7045 L 3441,6291 4415,5728 4415,6854 4084,7045 3441,7045 Z"/>
     <path fill="rgb(181,181,181)" stroke="none" d="M 4084,7045 L 3441,7416 3441,7045 4084,7045 Z M 3441,7028 L 3441,6291 4415,5728 4415,6854 4113,7028 3441,7028 Z"/>
     <path fill="rgb(182,182,182)" stroke="none" d="M 4113,7028 L 3441,7416 3441,7028 4113,7028 Z M 3441,7011 L 3441,6291 4415,5728 4415,6854 4143,7011 3441,7011 Z"/>
     <path fill="rgb(183,183,183)" stroke="none" d="M 4143,7011 L 3441,7416 3441,7011 4143,7011 Z M 3441,6994 L 3441,6291 4415,5728 4415,6854 4172,6994 3441,6994 Z"/>
     <path fill="rgb(184,184,184)" stroke="none" d="M 4172,6994 L 3441,7416 3441,6994 4172,6994 Z M 3441,6977 L 3441,6291 4415,5728 4415,6854 4202,6977 3441,6977 Z"/>
     <path fill="rgb(185,185,185)" stroke="none" d="M 4202,6977 L 3441,7416 3441,6977 4202,6977 Z M 3441,6960 L 3441,6291 4415,5728 4415,6854 4231,6960 3441,6960 Z"/>
     <path fill="rgb(186,186,186)" stroke="none" d="M 4231,6960 L 3441,7416 3441,6960 4231,6960 Z M 3441,6943 L 3441,6291 4415,5728 4415,6854 4261,6943 3441,6943 Z"/>
     <path fill="rgb(187,187,187)" stroke="none" d="M 4261,6943 L 3441,7416 3441,6943 4261,6943 Z M 3441,6926 L 3441,6291 4415,5728 4415,6854 4290,6926 3441,6926 Z"/>
     <path fill="rgb(188,188,188)" stroke="none" d="M 4290,6926 L 3441,7416 3441,6926 4290,6926 Z M 4408,6858 L 4320,6909 3441,6909 3441,6291 4408,5732 4408,6858 Z"/>
     <path fill="rgb(189,189,189)" stroke="none" d="M 4320,6909 L 3441,7416 3441,6909 4320,6909 Z M 4408,5732 L 4415,5728 4415,6854 4408,6858 4408,5732 Z M 4391,6868 L 4349,6892 3441,6892 3441,6291 4391,5742 4391,6868 Z"/>
     <path fill="rgb(190,190,190)" stroke="none" d="M 4349,6892 L 3441,7416 3441,6892 4349,6892 Z M 4391,5742 L 4415,5728 4415,6854 4391,6868 4391,5742 Z M 4375,6876 L 3441,6876 3441,6291 4375,5751 4375,6876 Z"/>
     <path fill="rgb(191,191,191)" stroke="none" d="M 4375,6876 L 4375,5751 4415,5728 4415,6854 3441,7416 3441,6876 4375,6876 Z M 4358,6859 L 3441,6859 3441,6291 4358,5761 4358,6859 Z"/>
     <path fill="rgb(192,192,192)" stroke="none" d="M 4358,6859 L 4358,5761 4415,5728 4415,6854 3441,7416 3441,6859 4358,6859 Z M 4341,6842 L 3441,6842 3441,6291 4341,5771 4341,6842 Z"/>
     <path fill="rgb(193,193,193)" stroke="none" d="M 4341,6842 L 4341,5771 4415,5728 4415,6854 3441,7416 3441,6842 4341,6842 Z M 4324,6825 L 3441,6825 3441,6291 4324,5781 4324,6825 Z"/>
     <path fill="rgb(194,194,194)" stroke="none" d="M 4324,6825 L 4324,5781 4415,5728 4415,6854 3441,7416 3441,6825 4324,6825 Z M 4307,6808 L 3441,6808 3441,6291 4307,5790 4307,6808 Z"/>
     <path fill="rgb(195,195,195)" stroke="none" d="M 4307,6808 L 4307,5790 4415,5728 4415,6854 3441,7416 3441,6808 4307,6808 Z M 4290,6791 L 3441,6791 3441,6291 4290,5800 4290,6791 Z"/>
     <path fill="rgb(196,196,196)" stroke="none" d="M 4290,6791 L 4290,5800 4415,5728 4415,6854 3441,7416 3441,6791 4290,6791 Z M 4273,6774 L 3441,6774 3441,6291 4273,5810 4273,6774 Z"/>
     <path fill="rgb(197,197,197)" stroke="none" d="M 4273,6774 L 4273,5810 4415,5728 4415,6854 3441,7416 3441,6774 4273,6774 Z M 4256,6757 L 3441,6757 3441,6291 4256,5820 4256,6757 Z"/>
     <path fill="rgb(198,198,198)" stroke="none" d="M 4256,6757 L 4256,5820 4415,5728 4415,6854 3441,7416 3441,6757 4256,6757 Z M 4239,6740 L 3441,6740 3441,6291 4239,5830 4239,6740 Z"/>
     <path fill="rgb(199,199,199)" stroke="none" d="M 4239,6740 L 4239,5830 4415,5728 4415,6854 3441,7416 3441,6740 4239,6740 Z M 4222,6723 L 3441,6723 3441,6291 4222,5840 4222,6723 Z"/>
     <path fill="rgb(200,200,200)" stroke="none" d="M 4222,6723 L 4222,5840 4415,5728 4415,6854 3441,7416 3441,6723 4222,6723 Z M 4205,6706 L 3441,6706 3441,6291 4205,5849 4205,6706 Z"/>
     <path fill="rgb(201,201,201)" stroke="none" d="M 4205,6706 L 4205,5849 4415,5728 4415,6854 3441,7416 3441,6706 4205,6706 Z M 4189,6690 L 3441,6690 3441,6291 4189,5859 4189,6690 Z"/>
     <path fill="rgb(202,202,202)" stroke="none" d="M 4189,6690 L 4189,5859 4415,5728 4415,6854 3441,7416 3441,6690 4189,6690 Z M 4172,6673 L 3441,6673 3441,6291 4172,5868 4172,6673 Z"/>
     <path fill="rgb(203,203,203)" stroke="none" d="M 4172,6673 L 4172,5868 4415,5728 4415,6854 3441,7416 3441,6673 4172,6673 Z M 4155,6656 L 3441,6656 3441,6291 4155,5878 4155,6656 Z"/>
     <path fill="rgb(204,204,204)" stroke="none" d="M 4155,6656 L 4155,5878 4415,5728 4415,6854 3441,7416 3441,6656 4155,6656 Z M 4138,6639 L 3441,6639 3441,6291 4138,5888 4138,6639 Z"/>
     <path fill="rgb(205,205,205)" stroke="none" d="M 4138,6639 L 4138,5888 4415,5728 4415,6854 3441,7416 3441,6639 4138,6639 Z M 4121,6622 L 3441,6622 3441,6291 4121,5898 4121,6622 Z"/>
     <path fill="rgb(206,206,206)" stroke="none" d="M 4121,6622 L 4121,5898 4415,5728 4415,6854 3441,7416 3441,6622 4121,6622 Z M 4104,6605 L 3441,6605 3441,6291 4104,5908 4104,6605 Z"/>
     <path fill="rgb(207,207,207)" stroke="none" d="M 4104,6605 L 4104,5908 4415,5728 4415,6854 3441,7416 3441,6605 4104,6605 Z M 4087,6588 L 3441,6588 3441,6291 4087,5918 4087,6588 Z"/>
     <path fill="rgb(208,208,208)" stroke="none" d="M 4087,6588 L 4087,5918 4415,5728 4415,6854 3441,7416 3441,6588 4087,6588 Z M 4070,6571 L 3441,6571 3441,6291 4070,5927 4070,6571 Z"/>
     <path fill="rgb(209,209,209)" stroke="none" d="M 4070,6571 L 4070,5927 4415,5728 4415,6854 3441,7416 3441,6571 4070,6571 Z M 4053,6554 L 3441,6554 3441,6291 4053,5937 4053,6554 Z"/>
     <path fill="rgb(210,210,210)" stroke="none" d="M 4053,6554 L 4053,5937 4415,5728 4415,6854 3441,7416 3441,6554 4053,6554 Z M 4036,6537 L 3441,6537 3441,6291 4036,5947 4036,6537 Z"/>
     <path fill="rgb(211,211,211)" stroke="none" d="M 4036,6537 L 4036,5947 4415,5728 4415,6854 3441,7416 3441,6537 4036,6537 Z M 4019,6520 L 3446,6520 3446,6288 4019,5957 4019,6520 Z"/>
     <path fill="rgb(212,212,212)" stroke="none" d="M 3446,6520 L 4019,6520 4019,5957 4415,5728 4415,6854 3441,7416 3441,6291 3446,6288 3446,6520 Z M 4003,6504 L 3462,6504 3462,6279 4003,5966 4003,6504 Z"/>
     <path fill="rgb(213,213,213)" stroke="none" d="M 3462,6504 L 4003,6504 4003,5966 4415,5728 4415,6854 3441,7416 3441,6291 3462,6279 3462,6504 Z M 3986,5980 L 3986,6487 3479,6487 3479,6269 3979,5980 3986,5980 Z"/>
     <path fill="rgb(214,214,214)" stroke="none" d="M 3479,6487 L 3986,6487 3986,5980 3979,5980 4415,5728 4415,6854 3441,7416 3441,6291 3479,6269 3479,6487 Z M 3969,5997 L 3969,6470 3496,6470 3496,6259 3950,5997 3969,5997 Z"/>
     <path fill="rgb(215,215,215)" stroke="none" d="M 3496,6470 L 3969,6470 3969,5997 3950,5997 4415,5728 4415,6854 3441,7416 3441,6291 3496,6259 3496,6470 Z M 3952,6014 L 3952,6453 3513,6453 3513,6249 3920,6014 3952,6014 Z"/>
     <path fill="rgb(216,216,216)" stroke="none" d="M 3513,6453 L 3952,6453 3952,6014 3920,6014 4415,5728 4415,6854 3441,7416 3441,6291 3513,6249 3513,6453 Z M 3935,6031 L 3935,6436 3530,6436 3530,6240 3891,6031 3935,6031 Z"/>
     <path fill="rgb(217,217,217)" stroke="none" d="M 3530,6436 L 3935,6436 3935,6031 3891,6031 4415,5728 4415,6854 3441,7416 3441,6291 3530,6240 3530,6436 Z M 3918,6048 L 3918,6419 3547,6419 3547,6230 3861,6048 3918,6048 Z"/>
     <path fill="rgb(218,218,218)" stroke="none" d="M 3547,6419 L 3918,6419 3918,6048 3861,6048 4415,5728 4415,6854 3441,7416 3441,6291 3547,6230 3547,6419 Z M 3901,6065 L 3901,6402 3564,6402 3564,6220 3832,6065 3901,6065 Z"/>
     <path fill="rgb(219,219,219)" stroke="none" d="M 3564,6402 L 3901,6402 3901,6065 3832,6065 4415,5728 4415,6854 3441,7416 3441,6291 3564,6220 3564,6402 Z M 3884,6082 L 3884,6385 3581,6385 3581,6210 3803,6082 3884,6082 Z"/>
     <path fill="rgb(220,220,220)" stroke="none" d="M 3581,6385 L 3884,6385 3884,6082 3803,6082 4415,5728 4415,6854 3441,7416 3441,6291 3581,6210 3581,6385 Z M 3867,6099 L 3867,6368 3598,6368 3598,6200 3773,6099 3867,6099 Z"/>
     <path fill="rgb(221,221,221)" stroke="none" d="M 3598,6368 L 3867,6368 3867,6099 3773,6099 4415,5728 4415,6854 3441,7416 3441,6291 3598,6200 3598,6368 Z M 3850,6116 L 3850,6351 3615,6351 3615,6190 3744,6116 3850,6116 Z"/>
     <path fill="rgb(222,222,222)" stroke="none" d="M 3615,6351 L 3850,6351 3850,6116 3744,6116 4415,5728 4415,6854 3441,7416 3441,6291 3615,6190 3615,6351 Z M 3833,6133 L 3833,6334 3632,6334 3632,6181 3714,6133 3833,6133 Z"/>
     <path fill="rgb(223,223,223)" stroke="none" d="M 3632,6334 L 3833,6334 3833,6133 3714,6133 4415,5728 4415,6854 3441,7416 3441,6291 3632,6181 3632,6334 Z M 3817,6149 L 3817,6318 3648,6318 3648,6171 3687,6149 3817,6149 Z"/>
     <path fill="rgb(224,224,224)" stroke="none" d="M 3648,6318 L 3817,6318 3817,6149 3687,6149 4415,5728 4415,6854 3441,7416 3441,6291 3648,6171 3648,6318 Z M 3665,6166 L 3800,6166 3800,6301 3665,6301 3665,6166 Z"/>
     <path fill="rgb(225,225,225)" stroke="none" d="M 3665,6166 L 3665,6301 3800,6301 3800,6166 3665,6166 Z M 3682,6183 L 3783,6183 3783,6284 3682,6284 3682,6183 Z M 3441,7416 L 3441,6291 4415,5728 4415,6854 3441,7416 Z"/>
     <path fill="rgb(226,226,226)" stroke="none" d="M 3682,6183 L 3682,6284 3783,6284 3783,6183 3682,6183 Z M 3699,6200 L 3766,6200 3766,6267 3699,6267 3699,6200 Z M 3441,7416 L 3441,6291 4415,5728 4415,6854 3441,7416 Z"/>
     <path fill="rgb(227,227,227)" stroke="none" d="M 3699,6200 L 3699,6267 3766,6267 3766,6200 3699,6200 Z M 3716,6217 L 3749,6217 3749,6250 3716,6250 3716,6217 Z M 3441,7416 L 3441,6291 4415,5728 4415,6854 3441,7416 Z"/>
     <path fill="rgb(229,229,229)" stroke="none" d="M 3716,6217 L 3716,6250 3749,6250 3749,6217 3716,6217 Z M 3441,7416 L 3441,6291 4415,5728 4415,6854 3441,7416 Z"/>
     <path fill="none" stroke="rgb(255,255,255)" id="Drawing_3_0" stroke-width="40" stroke-linejoin="round" d="M 3441,7416 L 3441,6291 4415,5728 4415,6854 3441,7416 Z"/>
    </g>
    <g>
     <defs>
      <linearGradient id="Gradient_653" gradientUnits="userSpaceOnUse" x1="2370" y1="4602" x2="2370" y2="5615">
       <stop offset="0.1" stop-color="rgb(179,179,179)"/>
       <stop offset="1" stop-color="rgb(229,229,229)"/>
      </linearGradient>
     </defs>
     <path fill="url(#Gradient_653)" stroke="rgb(255,255,255)" id="Drawing_4_0" stroke-width="40" stroke-linejoin="round" d="M 2273,5615 L 1494,5165 2468,4602 3246,5052 2273,5615 Z"/>
    </g>
    <g>
     <path fill="rgb(127,127,127)" stroke="none" d="M 1981,6346 L 1981,6065 2078,6121 2078,6403 1981,6346 Z"/>
     <path fill="none" stroke="rgb(0,0,0)" id="Drawing_5_0" stroke-width="40" stroke-linejoin="round" d="M 1981,6346 L 1981,6065 2078,6121 2078,6403 1981,6346 Z"/>
    </g>
    <g>
     <path fill="rgb(127,127,127)" stroke="none" d="M 1786,6234 L 1786,5953 1883,6009 1883,6291 1786,6234 Z"/>
     <path fill="none" stroke="rgb(0,0,0)" id="Drawing_6_0" stroke-width="40" stroke-linejoin="round" d="M 1786,6234 L 1786,5953 1883,6009 1883,6291 1786,6234 Z"/>
    </g>
    <g>
     <defs>
      <linearGradient id="Gradient_654" gradientUnits="userSpaceOnUse" x1="3148" y1="6768" x2="3442" y2="6768">
       <stop offset="0.1" stop-color="rgb(179,179,179)"/>
       <stop offset="1" stop-color="rgb(229,229,229)"/>
      </linearGradient>
     </defs>
     <path fill="url(#Gradient_654)" stroke="rgb(255,255,255)" id="Drawing_7_0" stroke-width="40" stroke-linejoin="round" d="M 3149,7247 L 3149,6121 3441,6290 3441,7415 3149,7247 Z"/>
    </g>
    <g>
     <path fill="rgb(57,181,74)" stroke="none" d="M 1981,5840 L 1981,5671 2078,5727 2078,5896 1981,5840 Z"/>
     <path fill="none" stroke="rgb(127,127,127)" id="Drawing_8_0" stroke-width="40" stroke-linejoin="round" d="M 1981,5840 L 1981,5671 2078,5727 2078,5896 1981,5840 Z"/>
    </g>
    <g>
     <defs>
      <linearGradient id="Gradient_655" gradientUnits="userSpaceOnUse" x1="2856" y1="6600" x2="3150" y2="6600">
       <stop offset="0.1" stop-color="rgb(179,179,179)"/>
       <stop offset="1" stop-color="rgb(229,229,229)"/>
      </linearGradient>
     </defs>
     <path fill="url(#Gradient_655)" stroke="rgb(255,255,255)" id="Drawing_9_0" stroke-width="40" stroke-linejoin="round" d="M 2857,7079 L 2857,5953 3149,6122 3149,7247 2857,7079 Z"/>
    </g>
    <g>
     <defs>
      <linearGradient id="Gradient_656" gradientUnits="userSpaceOnUse" x1="2564" y1="6431" x2="2858" y2="6431">
       <stop offset="0.1" stop-color="rgb(179,179,179)"/>
       <stop offset="1" stop-color="rgb(229,229,229)"/>
      </linearGradient>
     </defs>
     <path fill="url(#Gradient_656)" stroke="rgb(255,255,255)" id="Drawing_10_0" stroke-width="40" stroke-linejoin="round" d="M 2565,6910 L 2565,5784 2857,5953 2857,7078 2565,6910 Z"/>
    </g>
    <g>
     <defs>
      <linearGradient id="Gradient_657" gradientUnits="userSpaceOnUse" x1="2272" y1="6262" x2="2566" y2="6262">
       <stop offset="0.1" stop-color="rgb(179,179,179)"/>
       <stop offset="1" stop-color="rgb(229,229,229)"/>
      </linearGradient>
     </defs>
     <path fill="url(#Gradient_657)" stroke="rgb(255,255,255)" id="Drawing_11_0" stroke-width="40" stroke-linejoin="round" d="M 2273,6741 L 2273,5615 2565,5784 2565,6909 2273,6741 Z"/>
    </g>
    <g>
     <defs>
      <linearGradient id="Gradient_658" gradientUnits="userSpaceOnUse" x1="2906" y1="5052" x2="2906" y2="5784">
       <stop offset="0.1" stop-color="rgb(179,179,179)"/>
       <stop offset="1" stop-color="rgb(229,229,229)"/>
      </linearGradient>
     </defs>
     <path fill="url(#Gradient_658)" stroke="rgb(255,255,255)" id="Drawing_12_0" stroke-width="40" stroke-linejoin="round" d="M 2565,5784 L 2273,5615 3247,5052 3539,5221 2565,5784 Z"/>
    </g>
    <g>
     <defs>
      <linearGradient id="Gradient_659" gradientUnits="userSpaceOnUse" x1="3198" y1="5221" x2="3198" y2="5953">
       <stop offset="0.1" stop-color="rgb(179,179,179)"/>
       <stop offset="1" stop-color="rgb(229,229,229)"/>
      </linearGradient>
     </defs>
     <path fill="url(#Gradient_659)" stroke="rgb(255,255,255)" id="Drawing_13_0" stroke-width="40" stroke-linejoin="round" d="M 2857,5953 L 2565,5784 3539,5221 3831,5390 2857,5953 Z"/>
    </g>
    <g>
     <defs>
      <linearGradient id="Gradient_660" gradientUnits="userSpaceOnUse" x1="3490" y1="5390" x2="3490" y2="6122">
       <stop offset="0.1" stop-color="rgb(179,179,179)"/>
       <stop offset="1" stop-color="rgb(229,229,229)"/>
      </linearGradient>
     </defs>
     <path fill="url(#Gradient_660)" stroke="rgb(255,255,255)" id="Drawing_14_0" stroke-width="40" stroke-linejoin="round" d="M 3149,6122 L 2857,5953 3831,5390 4123,5559 3149,6122 Z"/>
    </g>
    <g>
     <defs>
      <linearGradient id="Gradient_661" gradientUnits="userSpaceOnUse" x1="3782" y1="5559" x2="3782" y2="6291">
       <stop offset="0.1" stop-color="rgb(179,179,179)"/>
       <stop offset="1" stop-color="rgb(229,229,229)"/>
      </linearGradient>
     </defs>
     <path fill="url(#Gradient_661)" stroke="rgb(255,255,255)" id="Drawing_15_0" stroke-width="40" stroke-linejoin="round" d="M 3441,6291 L 3149,6122 4123,5559 4415,5728 3441,6291 Z"/>
    </g>
    <g>
     <path fill="rgb(127,127,127)" stroke="none" d="M 2370,5953 L 2370,5784 2467,5840 2467,6009 2370,5953 Z"/>
     <path fill="none" stroke="rgb(0,0,0)" id="Drawing_16_0" stroke-width="40" stroke-linejoin="round" d="M 2370,5953 L 2370,5784 2467,5840 2467,6009 2370,5953 Z"/>
    </g>
    <g>
     <path fill="rgb(127,127,127)" stroke="none" d="M 2370,6290 L 2370,6121 2467,6177 2467,6346 2370,6290 Z"/>
     <path fill="none" stroke="rgb(0,0,0)" id="Drawing_17_0" stroke-width="40" stroke-linejoin="round" d="M 2370,6290 L 2370,6121 2467,6177 2467,6346 2370,6290 Z"/>
    </g>
    <g>
     <path fill="rgb(127,127,127)" stroke="none" d="M 2370,6628 L 2370,6459 2467,6515 2467,6684 2370,6628 Z"/>
     <path fill="none" stroke="rgb(0,0,0)" id="Drawing_18_0" stroke-width="40" stroke-linejoin="round" d="M 2370,6628 L 2370,6459 2467,6515 2467,6684 2370,6628 Z"/>
    </g>
    <g>
     <path fill="rgb(127,127,127)" stroke="none" d="M 2662,6122 L 2662,5953 2759,6009 2759,6178 2662,6122 Z"/>
     <path fill="none" stroke="rgb(0,0,0)" id="Drawing_19_0" stroke-width="40" stroke-linejoin="round" d="M 2662,6122 L 2662,5953 2759,6009 2759,6178 2662,6122 Z"/>
    </g>
    <g>
     <path fill="rgb(127,127,127)" stroke="none" d="M 2954,6347 L 2954,6178 3051,6234 3051,6403 2954,6347 Z"/>
     <path fill="none" stroke="rgb(0,0,0)" id="Drawing_20_0" stroke-width="40" stroke-linejoin="round" d="M 2954,6347 L 2954,6178 3051,6234 3051,6403 2954,6347 Z"/>
    </g>
    <g>
     <path fill="rgb(127,127,127)" stroke="none" d="M 2954,6966 L 2954,6797 3051,6853 3051,7022 2954,6966 Z"/>
     <path fill="none" stroke="rgb(0,0,0)" id="Drawing_21_0" stroke-width="40" stroke-linejoin="round" d="M 2954,6966 L 2954,6797 3051,6853 3051,7022 2954,6966 Z"/>
    </g>
    <g>
     <path fill="none" stroke="rgb(0,0,0)" id="Drawing_22_0" stroke-width="40" stroke-linejoin="round" d="M 1494,6290 L 1494,5165 2468,4602 4415,5728 4415,6853 3441,7416 1494,6290 Z"/>
    </g>
   </g>
  </g>
 </g>
</svg>