<?xml version="1.0" encoding="UTF-8"?>

<svg version="1.2" baseProfile="tiny" width="24.4mm" height="26.37mm" viewBox="6898 11268 2440 2637" preserveAspectRatio="xMidYMid" fill-rule="evenodd" stroke-width="28.222" stroke-linejoin="round" xmlns="http://www.w3.org/2000/svg" xmlns:xlink="http://www.w3.org/1999/xlink" xml:space="preserve">
 <g visibility="visible" id="Slide_1">
  <g id="DrawingGroup_1">
   <g>
    <path fill="rgb(221,221,221)" stroke="none" d="M 8559,13884 C 8796,13884 9337,13784 9337,13635 9337,13485 9228,13335 8991,13335 8991,13485 8559,13684 8559,13884 Z"/>
    <path fill="none" stroke="rgb(221,221,221)" id="Drawing_1_0" stroke-linejoin="round" d="M 8559,13884 C 8796,13884 9337,13784 9337,13635 9337,13485 9228,13335 8991,13335 8991,13485 8559,13684 8559,13884 Z"/>
   </g>
   <g id="DrawingGroup_2">
    <g>
     <defs>
      <linearGradient id="Gradient_688" gradientUnits="userSpaceOnUse" x1="7089" y1="13259" x2="8560" y2="13261">
       <stop offset="0.1" stop-color="rgb(51,51,51)"/>
       <stop offset="1" stop-color="rgb(153,153,153)"/>
      </linearGradient>
     </defs>
     <path fill="url(#Gradient_688)" stroke="rgb(178,178,178)" id="Drawing_2_0" stroke-width="40" stroke-linejoin="round" d="M 7091,13036 L 7091,12636 8560,13485 8560,13884 7091,13036 Z"/>
    </g>
    <g>
     <defs>
      <linearGradient id="Gradient_689" gradientUnits="userSpaceOnUse" x1="7738" y1="11837" x2="7738" y2="12786">
       <stop offset="0.1" stop-color="rgb(51,51,51)"/>
       <stop offset="1" stop-color="rgb(153,153,153)"/>
      </linearGradient>
     </defs>
     <path fill="url(#Gradient_689)" stroke="rgb(178,178,178)" id="Drawing_3_0" stroke-width="40" stroke-linejoin="round" d="M 8387,12786 L 6918,11937 7091,11837 8559,12686 8387,12786 Z"/>
    </g>
    <g>
     <path fill="rgb(0,0,0)" stroke="none" d="M 7177,12986 L 7177,12836 7263,12886 7263,13036 7177,12986 Z"/>
     <path fill="none" stroke="rgb(51,51,51)" id="Drawing_4_0" stroke-width="40" stroke-linejoin="round" d="M 7177,12986 L 7177,12836 7263,12886 7263,13036 7177,12986 Z"/>
    </g>
    <g>
     <path fill="rgb(0,0,0)" stroke="none" d="M 7350,13086 L 7350,12936 7436,12986 7436,13136 7350,13086 Z"/>
     <path fill="none" stroke="rgb(51,51,51)" id="Drawing_5_0" stroke-width="40" stroke-linejoin="round" d="M 7350,13086 L 7350,12936 7436,12986 7436,13136 7350,13086 Z"/>
    </g>
    <g>
     <path fill="rgb(0,0,0)" stroke="none" d="M 7868,13386 L 7868,13236 7954,13286 7954,13436 7868,13386 Z"/>
     <path fill="none" stroke="rgb(51,51,51)" id="Drawing_6_0" stroke-width="40" stroke-linejoin="round" d="M 7868,13386 L 7868,13236 7954,13286 7954,13436 7868,13386 Z"/>
    </g>
    <g>
     <path fill="rgb(0,0,0)" stroke="none" d="M 8042,13485 L 8042,13335 8128,13385 8128,13535 8042,13485 Z"/>
     <path fill="none" stroke="rgb(51,51,51)" id="Drawing_7_0" stroke-width="40" stroke-linejoin="round" d="M 8042,13485 L 8042,13335 8128,13385 8128,13535 8042,13485 Z"/>
    </g>
    <g>
     <path fill="rgb(0,0,0)" stroke="none" d="M 8214,13585 L 8214,13435 8300,13485 8300,13635 8214,13585 Z"/>
     <path fill="none" stroke="rgb(51,51,51)" id="Drawing_8_0" stroke-width="40" stroke-linejoin="round" d="M 8214,13585 L 8214,13435 8300,13485 8300,13635 8214,13585 Z"/>
    </g>
    <g>
     <path fill="rgb(0,0,0)" stroke="none" d="M 8387,13685 L 8387,13535 8473,13585 8473,13735 8387,13685 Z"/>
     <path fill="none" stroke="rgb(51,51,51)" id="Drawing_9_0" stroke-width="40" stroke-linejoin="round" d="M 8387,13685 L 8387,13535 8473,13585 8473,13735 8387,13685 Z"/>
    </g>
    <g>
     <path fill="rgb(0,0,0)" stroke="none" d="M 7523,13186 L 7523,13036 7609,13086 7609,13236 7523,13186 Z"/>
     <path fill="none" stroke="rgb(51,51,51)" id="Drawing_10_0" stroke-width="40" stroke-linejoin="round" d="M 7523,13186 L 7523,13036 7609,13086 7609,13236 7523,13186 Z"/>
    </g>
    <g>
     <path fill="rgb(0,0,0)" stroke="none" d="M 7696,13286 L 7696,13136 7782,13186 7782,13336 7696,13286 Z"/>
     <path fill="none" stroke="rgb(51,51,51)" id="Drawing_11_0" stroke-width="40" stroke-linejoin="round" d="M 7696,13286 L 7696,13136 7782,13186 7782,13336 7696,13286 Z"/>
    </g>
    <g>
     <defs>
      <linearGradient id="Gradient_690" gradientUnits="userSpaceOnUse" x1="6916" y1="12760" x2="8387" y2="12762">
       <stop offset="0.1" stop-color="rgb(51,51,51)"/>
       <stop offset="1" stop-color="rgb(153,153,153)"/>
      </linearGradient>
     </defs>
     <path fill="url(#Gradient_690)" stroke="rgb(178,178,178)" id="Drawing_12_0" stroke-width="40" stroke-linejoin="round" d="M 6918,12736 L 6918,11937 8387,12786 8387,13585 6918,12736 Z"/>
    </g>
    <g>
     <path fill="rgb(51,51,51)" stroke="none" d="M 8560,13525 L 8560,13485 8491,13525 8387,13525 8387,12786 8560,12686 8560,12387 8992,12137 8992,13525 8560,13525 Z"/>
     <path fill="rgb(52,52,52)" stroke="none" d="M 8491,13525 L 8387,13585 8387,13525 8491,13525 Z M 8992,13525 L 8992,13635 8560,13885 8560,13525 8992,13525 Z M 8560,13515 L 8560,13485 8508,13515 8387,13515 8387,12786 8560,12686 8560,12387 8992,12137 8992,13515 8560,13515 Z"/>
     <path fill="rgb(53,53,53)" stroke="none" d="M 8508,13515 L 8387,13585 8387,13515 8508,13515 Z M 8992,13515 L 8992,13635 8560,13885 8560,13515 8992,13515 Z M 8560,13505 L 8560,13485 8525,13505 8387,13505 8387,12786 8560,12686 8560,12387 8992,12137 8992,13505 8560,13505 Z"/>
     <path fill="rgb(54,54,54)" stroke="none" d="M 8525,13505 L 8387,13585 8387,13505 8525,13505 Z M 8992,13505 L 8992,13635 8560,13885 8560,13505 8992,13505 Z M 8560,13495 L 8560,13485 8543,13495 8387,13495 8387,12786 8560,12686 8560,12387 8992,12137 8992,13495 8560,13495 Z"/>
     <path fill="rgb(55,55,55)" stroke="none" d="M 8543,13495 L 8387,13585 8387,13495 8543,13495 Z M 8992,13495 L 8992,13635 8560,13885 8560,13495 8992,13495 Z M 8560,13485 L 8387,13485 8387,12786 8560,12686 8560,12387 8992,12137 8992,13485 8560,13485 Z"/>
     <path fill="rgb(56,56,56)" stroke="none" d="M 8560,13485 L 8992,13485 8992,13635 8560,13885 8560,13485 8387,13585 8387,13485 8560,13485 Z M 8387,13475 L 8387,12786 8560,12686 8560,12387 8992,12137 8992,13475 8387,13475 Z"/>
     <path fill="rgb(58,58,58)" stroke="none" d="M 8992,13475 L 8992,13635 8560,13885 8560,13485 8387,13585 8387,13475 8992,13475 Z M 8387,13465 L 8387,12786 8560,12686 8560,12387 8992,12137 8992,13465 8387,13465 Z"/>
     <path fill="rgb(59,59,59)" stroke="none" d="M 8992,13465 L 8992,13635 8560,13885 8560,13485 8387,13585 8387,13465 8992,13465 Z M 8387,13455 L 8387,12786 8560,12686 8560,12387 8992,12137 8992,13455 8387,13455 Z"/>
     <path fill="rgb(60,60,60)" stroke="none" d="M 8992,13455 L 8992,13635 8560,13885 8560,13485 8387,13585 8387,13455 8992,13455 Z M 8387,13445 L 8387,12786 8560,12686 8560,12387 8992,12137 8992,13445 8387,13445 Z"/>
     <path fill="rgb(61,61,61)" stroke="none" d="M 8992,13445 L 8992,13635 8560,13885 8560,13485 8387,13585 8387,13445 8992,13445 Z M 8387,13435 L 8387,12786 8560,12686 8560,12387 8992,12137 8992,13435 8387,13435 Z"/>
     <path fill="rgb(62,62,62)" stroke="none" d="M 8992,13435 L 8992,13635 8560,13885 8560,13485 8387,13585 8387,13435 8992,13435 Z M 8387,13425 L 8387,12786 8560,12686 8560,12387 8992,12137 8992,13425 8387,13425 Z"/>
     <path fill="rgb(63,63,63)" stroke="none" d="M 8992,13425 L 8992,13635 8560,13885 8560,13485 8387,13585 8387,13425 8992,13425 Z M 8387,13415 L 8387,12786 8560,12686 8560,12387 8992,12137 8992,13415 8387,13415 Z"/>
     <path fill="rgb(65,65,65)" stroke="none" d="M 8992,13415 L 8992,13635 8560,13885 8560,13485 8387,13585 8387,13415 8992,13415 Z M 8387,13405 L 8387,12786 8560,12686 8560,12387 8992,12137 8992,13405 8387,13405 Z"/>
     <path fill="rgb(66,66,66)" stroke="none" d="M 8992,13405 L 8992,13635 8560,13885 8560,13485 8387,13585 8387,13405 8992,13405 Z M 8387,13395 L 8387,12786 8560,12686 8560,12387 8992,12137 8992,13395 8387,13395 Z"/>
     <path fill="rgb(67,67,67)" stroke="none" d="M 8992,13395 L 8992,13635 8560,13885 8560,13485 8387,13585 8387,13395 8992,13395 Z M 8387,13385 L 8387,12786 8560,12686 8560,12387 8992,12137 8992,13385 8387,13385 Z"/>
     <path fill="rgb(68,68,68)" stroke="none" d="M 8992,13385 L 8992,13635 8560,13885 8560,13485 8387,13585 8387,13385 8992,13385 Z M 8387,13374 L 8387,12786 8560,12686 8560,12387 8992,12137 8992,13374 8387,13374 Z"/>
     <path fill="rgb(69,69,69)" stroke="none" d="M 8992,13374 L 8992,13635 8560,13885 8560,13485 8387,13585 8387,13374 8992,13374 Z M 8387,13364 L 8387,12786 8560,12686 8560,12387 8992,12137 8992,13364 8387,13364 Z"/>
     <path fill="rgb(70,70,70)" stroke="none" d="M 8992,13364 L 8992,13635 8560,13885 8560,13485 8387,13585 8387,13364 8992,13364 Z M 8387,13354 L 8387,12786 8560,12686 8560,12387 8992,12137 8992,13354 8387,13354 Z"/>
     <path fill="rgb(72,72,72)" stroke="none" d="M 8992,13354 L 8992,13635 8560,13885 8560,13485 8387,13585 8387,13354 8992,13354 Z M 8387,13344 L 8387,12786 8560,12686 8560,12387 8992,12137 8992,13344 8387,13344 Z"/>
     <path fill="rgb(73,73,73)" stroke="none" d="M 8992,13344 L 8992,13635 8560,13885 8560,13485 8387,13585 8387,13344 8992,13344 Z M 8387,13334 L 8387,12786 8560,12686 8560,12387 8992,12137 8992,13334 8387,13334 Z"/>
     <path fill="rgb(74,74,74)" stroke="none" d="M 8992,13334 L 8992,13635 8560,13885 8560,13485 8387,13585 8387,13334 8992,13334 Z M 8387,13324 L 8387,12786 8560,12686 8560,12387 8992,12137 8992,13324 8387,13324 Z"/>
     <path fill="rgb(75,75,75)" stroke="none" d="M 8992,13324 L 8992,13635 8560,13885 8560,13485 8387,13585 8387,13324 8992,13324 Z M 8387,13314 L 8387,12786 8560,12686 8560,12387 8992,12137 8992,13314 8387,13314 Z"/>
     <path fill="rgb(76,76,76)" stroke="none" d="M 8992,13314 L 8992,13635 8560,13885 8560,13485 8387,13585 8387,13314 8992,13314 Z M 8387,13304 L 8387,12786 8560,12686 8560,12387 8992,12137 8992,13304 8387,13304 Z"/>
     <path fill="rgb(77,77,77)" stroke="none" d="M 8992,13304 L 8992,13635 8560,13885 8560,13485 8387,13585 8387,13304 8992,13304 Z M 8387,13294 L 8387,12786 8560,12686 8560,12387 8992,12137 8992,13294 8387,13294 Z"/>
     <path fill="rgb(79,79,79)" stroke="none" d="M 8992,13294 L 8992,13635 8560,13885 8560,13485 8387,13585 8387,13294 8992,13294 Z M 8387,13284 L 8387,12786 8560,12686 8560,12387 8992,12137 8992,13284 8387,13284 Z"/>
     <path fill="rgb(80,80,80)" stroke="none" d="M 8992,13284 L 8992,13635 8560,13885 8560,13485 8387,13585 8387,13284 8992,13284 Z M 8387,13274 L 8387,12786 8560,12686 8560,12387 8992,12137 8992,13274 8387,13274 Z"/>
     <path fill="rgb(81,81,81)" stroke="none" d="M 8992,13274 L 8992,13635 8560,13885 8560,13485 8387,13585 8387,13274 8992,13274 Z M 8387,13264 L 8387,12786 8560,12686 8560,12387 8992,12137 8992,13264 8387,13264 Z"/>
     <path fill="rgb(82,82,82)" stroke="none" d="M 8992,13264 L 8992,13635 8560,13885 8560,13485 8387,13585 8387,13264 8992,13264 Z M 8387,13254 L 8387,12786 8560,12686 8560,12387 8992,12137 8992,13254 8387,13254 Z"/>
     <path fill="rgb(83,83,83)" stroke="none" d="M 8992,13254 L 8992,13635 8560,13885 8560,13485 8387,13585 8387,13254 8992,13254 Z M 8387,13244 L 8387,12786 8560,12686 8560,12387 8992,12137 8992,13244 8387,13244 Z"/>
     <path fill="rgb(85,85,85)" stroke="none" d="M 8992,13244 L 8992,13635 8560,13885 8560,13485 8387,13585 8387,13244 8992,13244 Z M 8387,13234 L 8387,12786 8560,12686 8560,12387 8992,12137 8992,13234 8387,13234 Z"/>
     <path fill="rgb(86,86,86)" stroke="none" d="M 8992,13234 L 8992,13635 8560,13885 8560,13485 8387,13585 8387,13234 8992,13234 Z M 8387,13224 L 8387,12786 8560,12686 8560,12387 8992,12137 8992,13224 8387,13224 Z"/>
     <path fill="rgb(87,87,87)" stroke="none" d="M 8992,13224 L 8992,13635 8560,13885 8560,13485 8387,13585 8387,13224 8992,13224 Z M 8387,13213 L 8387,12786 8560,12686 8560,12387 8992,12137 8992,13213 8387,13213 Z"/>
     <path fill="rgb(88,88,88)" stroke="none" d="M 8992,13213 L 8992,13635 8560,13885 8560,13485 8387,13585 8387,13213 8992,13213 Z M 8387,13203 L 8387,12786 8560,12686 8560,12387 8992,12137 8992,13203 8387,13203 Z"/>
     <path fill="rgb(89,89,89)" stroke="none" d="M 8992,13203 L 8992,13635 8560,13885 8560,13485 8387,13585 8387,13203 8992,13203 Z M 8387,13193 L 8387,12786 8560,12686 8560,12387 8992,12137 8992,13193 8387,13193 Z"/>
     <path fill="rgb(90,90,90)" stroke="none" d="M 8992,13193 L 8992,13635 8560,13885 8560,13485 8387,13585 8387,13193 8992,13193 Z M 8992,12138 L 8992,13183 8387,13183 8387,12786 8560,12686 8560,12387 8990,12138 8992,12138 Z"/>
     <path fill="rgb(92,92,92)" stroke="none" d="M 8992,13183 L 8992,13635 8560,13885 8560,13485 8387,13585 8387,13183 8992,13183 Z M 8990,12138 L 8992,12137 8992,12138 8990,12138 Z M 8992,12148 L 8992,13173 8387,13173 8387,12786 8560,12686 8560,12387 8973,12148 8992,12148 Z"/>
     <path fill="rgb(93,93,93)" stroke="none" d="M 8992,13173 L 8992,13635 8560,13885 8560,13485 8387,13585 8387,13173 8992,13173 Z M 8973,12148 L 8992,12137 8992,12148 8973,12148 Z M 8992,12158 L 8992,13163 8387,13163 8387,12786 8560,12686 8560,12387 8956,12158 8992,12158 Z"/>
     <path fill="rgb(94,94,94)" stroke="none" d="M 8992,13163 L 8992,13635 8560,13885 8560,13485 8387,13585 8387,13163 8992,13163 Z M 8956,12158 L 8992,12137 8992,12158 8956,12158 Z M 8992,12168 L 8992,13153 8387,13153 8387,12786 8560,12686 8560,12387 8938,12168 8992,12168 Z"/>
     <path fill="rgb(95,95,95)" stroke="none" d="M 8992,13153 L 8992,13635 8560,13885 8560,13485 8387,13585 8387,13153 8992,13153 Z M 8938,12168 L 8992,12137 8992,12168 8938,12168 Z M 8992,12178 L 8992,13143 8387,13143 8387,12786 8560,12686 8560,12387 8921,12178 8992,12178 Z"/>
     <path fill="rgb(96,96,96)" stroke="none" d="M 8992,13143 L 8992,13635 8560,13885 8560,13485 8387,13585 8387,13143 8992,13143 Z M 8921,12178 L 8992,12137 8992,12178 8921,12178 Z M 8992,12188 L 8992,13133 8387,13133 8387,12786 8560,12686 8560,12387 8904,12188 8992,12188 Z"/>
     <path fill="rgb(97,97,97)" stroke="none" d="M 8992,13133 L 8992,13635 8560,13885 8560,13485 8387,13585 8387,13133 8992,13133 Z M 8904,12188 L 8992,12137 8992,12188 8904,12188 Z M 8992,12198 L 8992,13123 8387,13123 8387,12786 8560,12686 8560,12387 8887,12198 8992,12198 Z"/>
     <path fill="rgb(99,99,99)" stroke="none" d="M 8992,13123 L 8992,13635 8560,13885 8560,13485 8387,13585 8387,13123 8992,13123 Z M 8887,12198 L 8992,12137 8992,12198 8887,12198 Z M 8992,12208 L 8992,13113 8387,13113 8387,12786 8560,12686 8560,12387 8869,12208 8992,12208 Z"/>
     <path fill="rgb(100,100,100)" stroke="none" d="M 8992,13113 L 8992,13635 8560,13885 8560,13485 8387,13585 8387,13113 8992,13113 Z M 8869,12208 L 8992,12137 8992,12208 8869,12208 Z M 8992,12218 L 8992,13103 8387,13103 8387,12786 8560,12686 8560,12387 8852,12218 8992,12218 Z"/>
     <path fill="rgb(101,101,101)" stroke="none" d="M 8992,13103 L 8992,13635 8560,13885 8560,13485 8387,13585 8387,13103 8992,13103 Z M 8852,12218 L 8992,12137 8992,12218 8852,12218 Z M 8992,12228 L 8992,13093 8387,13093 8387,12786 8560,12686 8560,12387 8835,12228 8992,12228 Z"/>
     <path fill="rgb(102,102,102)" stroke="none" d="M 8992,13093 L 8992,13635 8560,13885 8560,13485 8387,13585 8387,13093 8992,13093 Z M 8835,12228 L 8992,12137 8992,12228 8835,12228 Z M 8990,12238 L 8990,13083 8387,13083 8387,12786 8560,12686 8560,12387 8817,12238 8990,12238 Z"/>
     <path fill="rgb(103,103,103)" stroke="none" d="M 8990,13083 L 8990,12238 8817,12238 8992,12137 8992,13635 8560,13885 8560,13485 8387,13585 8387,13083 8990,13083 Z M 8980,12248 L 8980,13073 8387,13073 8387,12786 8560,12686 8560,12387 8800,12248 8980,12248 Z"/>
     <path fill="rgb(104,104,104)" stroke="none" d="M 8980,13073 L 8980,12248 8800,12248 8992,12137 8992,13635 8560,13885 8560,13485 8387,13585 8387,13073 8980,13073 Z M 8970,12258 L 8970,13063 8387,13063 8387,12786 8560,12686 8560,12387 8783,12258 8970,12258 Z"/>
     <path fill="rgb(106,106,106)" stroke="none" d="M 8970,13063 L 8970,12258 8783,12258 8992,12137 8992,13635 8560,13885 8560,13485 8387,13585 8387,13063 8970,13063 Z M 8959,12269 L 8959,13052 8387,13052 8387,12786 8560,12686 8560,12387 8764,12269 8959,12269 Z"/>
     <path fill="rgb(107,107,107)" stroke="none" d="M 8959,13052 L 8959,12269 8764,12269 8992,12137 8992,13635 8560,13885 8560,13485 8387,13585 8387,13052 8959,13052 Z M 8949,12279 L 8949,13042 8387,13042 8387,12786 8560,12686 8560,12387 8747,12279 8949,12279 Z"/>
     <path fill="rgb(108,108,108)" stroke="none" d="M 8949,13042 L 8949,12279 8747,12279 8992,12137 8992,13635 8560,13885 8560,13485 8387,13585 8387,13042 8949,13042 Z M 8939,12289 L 8939,13032 8387,13032 8387,12786 8560,12686 8560,12387 8729,12289 8939,12289 Z"/>
     <path fill="rgb(109,109,109)" stroke="none" d="M 8939,13032 L 8939,12289 8729,12289 8992,12137 8992,13635 8560,13885 8560,13485 8387,13585 8387,13032 8939,13032 Z M 8929,12299 L 8929,13022 8387,13022 8387,12786 8560,12686 8560,12387 8712,12299 8929,12299 Z"/>
     <path fill="rgb(110,110,110)" stroke="none" d="M 8929,13022 L 8929,12299 8712,12299 8992,12137 8992,13635 8560,13885 8560,13485 8387,13585 8387,13022 8929,13022 Z M 8919,12309 L 8919,13012 8387,13012 8387,12786 8560,12686 8560,12387 8695,12309 8919,12309 Z"/>
     <path fill="rgb(111,111,111)" stroke="none" d="M 8919,13012 L 8919,12309 8695,12309 8992,12137 8992,13635 8560,13885 8560,13485 8387,13585 8387,13012 8919,13012 Z M 8909,12319 L 8909,13002 8387,13002 8387,12786 8560,12686 8560,12387 8678,12319 8909,12319 Z"/>
     <path fill="rgb(113,113,113)" stroke="none" d="M 8909,13002 L 8909,12319 8678,12319 8992,12137 8992,13635 8560,13885 8560,13485 8387,13585 8387,13002 8909,13002 Z M 8899,12329 L 8899,12992 8387,12992 8387,12786 8560,12686 8560,12387 8660,12329 8899,12329 Z"/>
     <path fill="rgb(114,114,114)" stroke="none" d="M 8899,12992 L 8899,12329 8660,12329 8992,12137 8992,13635 8560,13885 8560,13485 8387,13585 8387,12992 8899,12992 Z M 8889,12339 L 8889,12982 8387,12982 8387,12786 8560,12686 8560,12387 8643,12339 8889,12339 Z"/>
     <path fill="rgb(115,115,115)" stroke="none" d="M 8889,12982 L 8889,12339 8643,12339 8992,12137 8992,13635 8560,13885 8560,13485 8387,13585 8387,12982 8889,12982 Z M 8879,12349 L 8879,12972 8387,12972 8387,12786 8560,12686 8560,12387 8626,12349 8879,12349 Z"/>
     <path fill="rgb(116,116,116)" stroke="none" d="M 8879,12972 L 8879,12349 8626,12349 8992,12137 8992,13635 8560,13885 8560,13485 8387,13585 8387,12972 8879,12972 Z M 8869,12359 L 8869,12962 8387,12962 8387,12786 8560,12686 8560,12387 8608,12359 8869,12359 Z"/>
     <path fill="rgb(117,117,117)" stroke="none" d="M 8869,12962 L 8869,12359 8608,12359 8992,12137 8992,13635 8560,13885 8560,13485 8387,13585 8387,12962 8869,12962 Z M 8859,12369 L 8859,12952 8387,12952 8387,12786 8560,12686 8560,12387 8591,12369 8859,12369 Z"/>
     <path fill="rgb(119,119,119)" stroke="none" d="M 8859,12952 L 8859,12369 8591,12369 8992,12137 8992,13635 8560,13885 8560,13485 8387,13585 8387,12952 8859,12952 Z M 8849,12379 L 8849,12942 8387,12942 8387,12786 8560,12686 8560,12387 8574,12379 8849,12379 Z"/>
     <path fill="rgb(120,120,120)" stroke="none" d="M 8849,12942 L 8849,12379 8574,12379 8992,12137 8992,13635 8560,13885 8560,13485 8387,13585 8387,12942 8849,12942 Z M 8839,12389 L 8839,12932 8387,12932 8387,12786 8560,12686 8560,12389 8839,12389 Z"/>
     <path fill="rgb(121,121,121)" stroke="none" d="M 8839,12932 L 8839,12389 8560,12389 8560,12387 8992,12137 8992,13635 8560,13885 8560,13485 8387,13585 8387,12932 8839,12932 Z M 8829,12399 L 8829,12922 8387,12922 8387,12786 8560,12686 8560,12399 8829,12399 Z"/>
     <path fill="rgb(122,122,122)" stroke="none" d="M 8829,12922 L 8829,12399 8560,12399 8560,12387 8992,12137 8992,13635 8560,13885 8560,13485 8387,13585 8387,12922 8829,12922 Z M 8819,12409 L 8819,12912 8387,12912 8387,12786 8560,12686 8560,12409 8819,12409 Z"/>
     <path fill="rgb(123,123,123)" stroke="none" d="M 8819,12912 L 8819,12409 8560,12409 8560,12387 8992,12137 8992,13635 8560,13885 8560,13485 8387,13585 8387,12912 8819,12912 Z M 8809,12419 L 8809,12902 8387,12902 8387,12786 8560,12686 8560,12419 8809,12419 Z"/>
     <path fill="rgb(124,124,124)" stroke="none" d="M 8809,12902 L 8809,12419 8560,12419 8560,12387 8992,12137 8992,13635 8560,13885 8560,13485 8387,13585 8387,12902 8809,12902 Z M 8798,12430 L 8798,12891 8387,12891 8387,12786 8560,12686 8560,12430 8798,12430 Z"/>
     <path fill="rgb(126,126,126)" stroke="none" d="M 8798,12891 L 8798,12430 8560,12430 8560,12387 8992,12137 8992,13635 8560,13885 8560,13485 8387,13585 8387,12891 8798,12891 Z M 8788,12440 L 8788,12881 8387,12881 8387,12786 8560,12686 8560,12440 8788,12440 Z"/>
     <path fill="rgb(127,127,127)" stroke="none" d="M 8788,12881 L 8788,12440 8560,12440 8560,12387 8992,12137 8992,13635 8560,13885 8560,13485 8387,13585 8387,12881 8788,12881 Z M 8778,12450 L 8778,12871 8387,12871 8387,12786 8560,12686 8560,12450 8778,12450 Z"/>
     <path fill="rgb(128,128,128)" stroke="none" d="M 8778,12871 L 8778,12450 8560,12450 8560,12387 8992,12137 8992,13635 8560,13885 8560,13485 8387,13585 8387,12871 8778,12871 Z M 8768,12460 L 8768,12861 8387,12861 8387,12786 8560,12686 8560,12460 8768,12460 Z"/>
     <path fill="rgb(129,129,129)" stroke="none" d="M 8768,12861 L 8768,12460 8560,12460 8560,12387 8992,12137 8992,13635 8560,13885 8560,13485 8387,13585 8387,12861 8768,12861 Z M 8758,12470 L 8758,12851 8387,12851 8387,12786 8560,12686 8560,12470 8758,12470 Z"/>
     <path fill="rgb(130,130,130)" stroke="none" d="M 8758,12851 L 8758,12470 8560,12470 8560,12387 8992,12137 8992,13635 8560,13885 8560,13485 8387,13585 8387,12851 8758,12851 Z M 8748,12480 L 8748,12841 8387,12841 8387,12786 8560,12686 8560,12480 8748,12480 Z"/>
     <path fill="rgb(131,131,131)" stroke="none" d="M 8748,12841 L 8748,12480 8560,12480 8560,12387 8992,12137 8992,13635 8560,13885 8560,13485 8387,13585 8387,12841 8748,12841 Z M 8738,12490 L 8738,12831 8397,12831 8397,12780 8560,12686 8560,12490 8738,12490 Z"/>
     <path fill="rgb(133,133,133)" stroke="none" d="M 8397,12831 L 8738,12831 8738,12490 8560,12490 8560,12387 8992,12137 8992,13635 8560,13885 8560,13485 8387,13585 8387,12786 8397,12780 8397,12831 Z M 8728,12500 L 8728,12821 8407,12821 8407,12774 8560,12686 8560,12500 8728,12500 Z"/>
     <path fill="rgb(134,134,134)" stroke="none" d="M 8407,12821 L 8728,12821 8728,12500 8560,12500 8560,12387 8992,12137 8992,13635 8560,13885 8560,13485 8387,13585 8387,12786 8407,12774 8407,12821 Z M 8718,12510 L 8718,12811 8417,12811 8417,12769 8560,12686 8560,12510 8718,12510 Z"/>
     <path fill="rgb(135,135,135)" stroke="none" d="M 8417,12811 L 8718,12811 8718,12510 8560,12510 8560,12387 8992,12137 8992,13635 8560,13885 8560,13485 8387,13585 8387,12786 8417,12769 8417,12811 Z M 8708,12520 L 8708,12801 8427,12801 8427,12763 8560,12686 8560,12520 8708,12520 Z"/>
     <path fill="rgb(136,136,136)" stroke="none" d="M 8427,12801 L 8708,12801 8708,12520 8560,12520 8560,12387 8992,12137 8992,13635 8560,13885 8560,13485 8387,13585 8387,12786 8427,12763 8427,12801 Z M 8698,12530 L 8698,12791 8437,12791 8437,12757 8560,12686 8560,12530 8698,12530 Z"/>
     <path fill="rgb(137,137,137)" stroke="none" d="M 8437,12791 L 8698,12791 8698,12530 8560,12530 8560,12387 8992,12137 8992,13635 8560,13885 8560,13485 8387,13585 8387,12786 8437,12757 8437,12791 Z M 8688,12540 L 8688,12781 8447,12781 8447,12751 8560,12686 8560,12540 8688,12540 Z"/>
     <path fill="rgb(138,138,138)" stroke="none" d="M 8447,12781 L 8688,12781 8688,12540 8560,12540 8560,12387 8992,12137 8992,13635 8560,13885 8560,13485 8387,13585 8387,12786 8447,12751 8447,12781 Z M 8678,12550 L 8678,12771 8457,12771 8457,12746 8560,12686 8560,12550 8678,12550 Z"/>
     <path fill="rgb(140,140,140)" stroke="none" d="M 8457,12771 L 8678,12771 8678,12550 8560,12550 8560,12387 8992,12137 8992,13635 8560,13885 8560,13485 8387,13585 8387,12786 8457,12746 8457,12771 Z M 8668,12560 L 8668,12761 8467,12761 8467,12740 8560,12686 8560,12560 8668,12560 Z"/>
     <path fill="rgb(141,141,141)" stroke="none" d="M 8467,12761 L 8668,12761 8668,12560 8560,12560 8560,12387 8992,12137 8992,13635 8560,13885 8560,13485 8387,13585 8387,12786 8467,12740 8467,12761 Z M 8658,12570 L 8658,12751 8477,12751 8477,12734 8560,12686 8560,12570 8658,12570 Z"/>
     <path fill="rgb(142,142,142)" stroke="none" d="M 8477,12751 L 8658,12751 8658,12570 8560,12570 8560,12387 8992,12137 8992,13635 8560,13885 8560,13485 8387,13585 8387,12786 8477,12734 8477,12751 Z M 8648,12580 L 8648,12741 8487,12741 8487,12728 8560,12686 8560,12580 8648,12580 Z"/>
     <path fill="rgb(143,143,143)" stroke="none" d="M 8487,12741 L 8648,12741 8648,12580 8560,12580 8560,12387 8992,12137 8992,13635 8560,13885 8560,13485 8387,13585 8387,12786 8487,12728 8487,12741 Z M 8637,12591 L 8637,12730 8498,12730 8498,12722 8560,12686 8560,12591 8637,12591 Z"/>
     <path fill="rgb(144,144,144)" stroke="none" d="M 8498,12730 L 8637,12730 8637,12591 8560,12591 8560,12387 8992,12137 8992,13635 8560,13885 8560,13485 8387,13585 8387,12786 8498,12722 8498,12730 Z M 8627,12601 L 8627,12720 8508,12720 8508,12716 8560,12686 8560,12601 8627,12601 Z"/>
     <path fill="rgb(145,145,145)" stroke="none" d="M 8508,12720 L 8627,12720 8627,12601 8560,12601 8560,12387 8992,12137 8992,13635 8560,13885 8560,13485 8387,13585 8387,12786 8508,12716 8508,12720 Z M 8617,12611 L 8617,12710 8518,12710 8560,12686 8560,12611 8617,12611 Z"/>
     <path fill="rgb(147,147,147)" stroke="none" d="M 8617,12710 L 8617,12611 8560,12611 8560,12387 8992,12137 8992,13635 8560,13885 8560,13485 8387,13585 8387,12786 8518,12710 8617,12710 Z M 8607,12621 L 8607,12700 8536,12700 8560,12686 8560,12621 8607,12621 Z"/>
     <path fill="rgb(148,148,148)" stroke="none" d="M 8607,12700 L 8607,12621 8560,12621 8560,12387 8992,12137 8992,13635 8560,13885 8560,13485 8387,13585 8387,12786 8536,12700 8607,12700 Z M 8597,12631 L 8597,12690 8553,12690 8560,12686 8560,12631 8597,12631 Z"/>
     <path fill="rgb(149,149,149)" stroke="none" d="M 8597,12690 L 8597,12631 8560,12631 8560,12387 8992,12137 8992,13635 8560,13885 8560,13485 8387,13585 8387,12786 8553,12690 8597,12690 Z M 8587,12641 L 8587,12680 8560,12680 8560,12641 8587,12641 Z"/>
     <path fill="rgb(150,150,150)" stroke="none" d="M 8587,12680 L 8587,12641 8560,12641 8560,12387 8992,12137 8992,13635 8560,13885 8560,13485 8387,13585 8387,12786 8560,12686 8560,12680 8587,12680 Z M 8577,12651 L 8577,12670 8560,12670 8560,12651 8577,12651 Z"/>
     <path fill="rgb(153,153,153)" stroke="none" d="M 8577,12670 L 8577,12651 8560,12651 8560,12387 8992,12137 8992,13635 8560,13885 8560,13485 8387,13585 8387,12786 8560,12686 8560,12670 8577,12670 Z"/>
     <path fill="none" stroke="rgb(178,178,178)" id="Drawing_13_0" stroke-width="40" stroke-linejoin="round" d="M 8560,13885 L 8560,13485 8387,13585 8387,12786 8560,12686 8560,12387 8992,12137 8992,13635 8560,13885 Z"/>
    </g>
    <g>
     <defs>
      <linearGradient id="Gradient_691" gradientUnits="userSpaceOnUse" x1="8041" y1="11288" x2="8041" y2="12387">
       <stop offset="0.1" stop-color="rgb(51,51,51)"/>
       <stop offset="1" stop-color="rgb(153,153,153)"/>
      </linearGradient>
     </defs>
     <path fill="url(#Gradient_691)" stroke="rgb(178,178,178)" id="Drawing_14_0" stroke-width="40" stroke-linejoin="round" d="M 8560,12387 L 7091,11538 7523,11288 8992,12137 8560,12387 Z"/>
    </g>
    <g>
     <defs>
      <linearGradient id="Gradient_692" gradientUnits="userSpaceOnUse" x1="7089" y1="12111" x2="8560" y2="12113">
       <stop offset="0.1" stop-color="rgb(51,51,51)"/>
       <stop offset="1" stop-color="rgb(153,153,153)"/>
      </linearGradient>
     </defs>
     <path fill="url(#Gradient_692)" stroke="rgb(178,178,178)" id="Drawing_15_0" stroke-width="40" stroke-linejoin="round" d="M 7091,11838 L 7091,11538 8560,12387 8560,12687 7091,11838 Z"/>
    </g>
    <g>
     <path fill="none" stroke="rgb(0,0,0)" id="Drawing_16_0" stroke-width="40" stroke-linejoin="round" d="M 7091,13036 L 7091,12836 6918,12736 6918,11937 7091,11837 7091,11538 7523,11288 8991,12137 8991,13635 8559,13885 7091,13036 Z"/>
    </g>
    <g>
     <path fill="rgb(178,178,178)" stroke="none" d="M 7177,12786 L 7177,12636 7263,12686 7263,12836 7177,12786 Z"/>
     <path fill="none" stroke="rgb(153,153,153)" id="Drawing_17_0" stroke-width="40" stroke-linejoin="round" d="M 7177,12786 L 7177,12636 7263,12686 7263,12836 7177,12786 Z"/>
    </g>
    <g>
     <path fill="rgb(178,178,178)" stroke="none" d="M 7436,12936 L 7436,12786 7522,12836 7522,12986 7436,12936 Z"/>
     <path fill="none" stroke="rgb(153,153,153)" id="Drawing_18_0" stroke-width="40" stroke-linejoin="round" d="M 7436,12936 L 7436,12786 7522,12836 7522,12986 7436,12936 Z"/>
    </g>
    <g>
     <path fill="rgb(178,178,178)" stroke="none" d="M 7696,13086 L 7696,12936 7782,12986 7782,13136 7696,13086 Z"/>
     <path fill="none" stroke="rgb(153,153,153)" id="Drawing_19_0" stroke-width="40" stroke-linejoin="round" d="M 7696,13086 L 7696,12936 7782,12986 7782,13136 7696,13086 Z"/>
    </g>
    <g>
     <path fill="rgb(178,178,178)" stroke="none" d="M 7955,13236 L 7955,13086 8041,13136 8041,13286 7955,13236 Z"/>
     <path fill="none" stroke="rgb(153,153,153)" id="Drawing_20_0" stroke-width="40" stroke-linejoin="round" d="M 7955,13236 L 7955,13086 8041,13136 8041,13286 7955,13236 Z"/>
    </g>
    <g>
     <defs>
      <linearGradient id="Gradient_693" gradientUnits="userSpaceOnUse" x1="7176" y1="12610" x2="8042" y2="12612">
       <stop offset="0.1" stop-color="rgb(147,212,240)"/>
       <stop offset="1" stop-color="rgb(233,246,252)"/>
      </linearGradient>
     </defs>
     <path fill="url(#Gradient_693)" stroke="rgb(102,102,102)" id="Drawing_21_0" stroke-width="40" stroke-linejoin="round" d="M 7177,12537 L 7177,12187 8041,12686 8041,13036 7177,12537 Z"/>
    </g>
    <g>
     <path fill="rgb(116,203,128)" stroke="none" d="M 8128,12886 L 8128,12736 8301,12836 8301,12986 8128,12886 Z"/>
     <path fill="none" stroke="rgb(102,102,102)" id="Drawing_22_0" stroke-width="40" stroke-linejoin="round" d="M 8128,12886 L 8128,12736 8301,12836 8301,12986 8128,12886 Z"/>
    </g>
    <g>
     <path fill="rgb(209,97,108)" stroke="none" d="M 8128,13086 L 8128,12936 8301,13036 8301,13186 8128,13086 Z"/>
     <path fill="none" stroke="rgb(102,102,102)" id="Drawing_23_0" stroke-width="40" stroke-linejoin="round" d="M 8128,13086 L 8128,12936 8301,13036 8301,13186 8128,13086 Z"/>
    </g>
    <g>
     <path fill="rgb(0,0,0)" stroke="none" d="M 7350,11887 L 7350,11787 7436,11837 7436,11937 7350,11887 Z"/>
     <path fill="none" stroke="rgb(51,51,51)" id="Drawing_24_0" stroke-width="40" stroke-linejoin="round" d="M 7350,11887 L 7350,11787 7436,11837 7436,11937 7350,11887 Z"/>
    </g>
    <g>
     <path fill="rgb(0,0,0)" stroke="none" d="M 7523,11987 L 7523,11887 7609,11937 7609,12037 7523,11987 Z"/>
     <path fill="none" stroke="rgb(51,51,51)" id="Drawing_25_0" stroke-width="40" stroke-linejoin="round" d="M 7523,11987 L 7523,11887 7609,11937 7609,12037 7523,11987 Z"/>
    </g>
    <g>
     <path fill="rgb(0,0,0)" stroke="none" d="M 7696,12087 L 7696,11987 7782,12037 7782,12137 7696,12087 Z"/>
     <path fill="none" stroke="rgb(51,51,51)" id="Drawing_26_0" stroke-width="40" stroke-linejoin="round" d="M 7696,12087 L 7696,11987 7782,12037 7782,12137 7696,12087 Z"/>
    </g>
    <g>
     <path fill="rgb(0,0,0)" stroke="none" d="M 7178,11788 L 7178,11688 7264,11738 7264,11838 7178,11788 Z"/>
     <path fill="none" stroke="rgb(51,51,51)" id="Drawing_27_0" stroke-width="40" stroke-linejoin="round" d="M 7178,11788 L 7178,11688 7264,11738 7264,11838 7178,11788 Z"/>
    </g>
   </g>
  </g>
 </g>
</svg>