<?xml version="1.0" encoding="UTF-8"?>

<svg version="1.2" baseProfile="tiny" width="24.39mm" height="26.37mm" viewBox="3950 2575 2439 2637" preserveAspectRatio="xMidYMid" fill-rule="evenodd" stroke-width="28.222" stroke-linejoin="round" xmlns="http://www.w3.org/2000/svg" xmlns:xlink="http://www.w3.org/1999/xlink" xml:space="preserve">
 <g visibility="visible" id="Slide_1">
  <g id="DrawingGroup_1">
   <g>
    <path fill="rgb(221,221,221)" stroke="none" d="M 5611,5191 C 5848,5191 6389,5091 6389,4942 6389,4792 6280,4642 6043,4642 6043,4792 5611,4991 5611,5191 Z"/>
    <path fill="none" stroke="rgb(221,221,221)" id="Drawing_1_0" stroke-linejoin="round" d="M 5611,5191 C 5848,5191 6389,5091 6389,4942 6389,4792 6280,4642 6043,4642 6043,4792 5611,4991 5611,5191 Z"/>
   </g>
   <g id="DrawingGroup_2">
    <g>
     <defs>
      <linearGradient id="Gradient_682" gradientUnits="userSpaceOnUse" x1="4141" y1="4566" x2="5612" y2="4568">
       <stop offset="0.1" stop-color="rgb(179,179,179)"/>
       <stop offset="1" stop-color="rgb(229,229,229)"/>
      </linearGradient>
     </defs>
     <path fill="url(#Gradient_682)" stroke="rgb(255,255,255)" id="Drawing_2_0" stroke-width="40" stroke-linejoin="round" d="M 4143,4343 L 4143,3943 5612,4792 5612,5191 4143,4343 Z"/>
    </g>
    <g>
     <defs>
      <linearGradient id="Gradient_683" gradientUnits="userSpaceOnUse" x1="4790" y1="3144" x2="4790" y2="4093">
       <stop offset="0.1" stop-color="rgb(179,179,179)"/>
       <stop offset="1" stop-color="rgb(229,229,229)"/>
      </linearGradient>
     </defs>
     <path fill="url(#Gradient_683)" stroke="rgb(255,255,255)" id="Drawing_3_0" stroke-width="40" stroke-linejoin="round" d="M 5439,4093 L 3970,3244 4143,3144 5611,3993 5439,4093 Z"/>
    </g>
    <g>
     <path fill="rgb(127,127,127)" stroke="none" d="M 4229,4293 L 4229,4143 4315,4193 4315,4343 4229,4293 Z"/>
     <path fill="none" stroke="rgb(0,0,0)" id="Drawing_4_0" stroke-width="40" stroke-linejoin="round" d="M 4229,4293 L 4229,4143 4315,4193 4315,4343 4229,4293 Z"/>
    </g>
    <g>
     <path fill="rgb(127,127,127)" stroke="none" d="M 4402,4393 L 4402,4243 4488,4293 4488,4443 4402,4393 Z"/>
     <path fill="none" stroke="rgb(0,0,0)" id="Drawing_5_0" stroke-width="40" stroke-linejoin="round" d="M 4402,4393 L 4402,4243 4488,4293 4488,4443 4402,4393 Z"/>
    </g>
    <g>
     <path fill="rgb(127,127,127)" stroke="none" d="M 4920,4693 L 4920,4543 5006,4593 5006,4743 4920,4693 Z"/>
     <path fill="none" stroke="rgb(0,0,0)" id="Drawing_6_0" stroke-width="40" stroke-linejoin="round" d="M 4920,4693 L 4920,4543 5006,4593 5006,4743 4920,4693 Z"/>
    </g>
    <g>
     <path fill="rgb(127,127,127)" stroke="none" d="M 5094,4792 L 5094,4642 5180,4692 5180,4842 5094,4792 Z"/>
     <path fill="none" stroke="rgb(0,0,0)" id="Drawing_7_0" stroke-width="40" stroke-linejoin="round" d="M 5094,4792 L 5094,4642 5180,4692 5180,4842 5094,4792 Z"/>
    </g>
    <g>
     <path fill="rgb(127,127,127)" stroke="none" d="M 5266,4892 L 5266,4742 5352,4792 5352,4942 5266,4892 Z"/>
     <path fill="none" stroke="rgb(0,0,0)" id="Drawing_8_0" stroke-width="40" stroke-linejoin="round" d="M 5266,4892 L 5266,4742 5352,4792 5352,4942 5266,4892 Z"/>
    </g>
    <g>
     <path fill="rgb(127,127,127)" stroke="none" d="M 5439,4992 L 5439,4842 5525,4892 5525,5042 5439,4992 Z"/>
     <path fill="none" stroke="rgb(0,0,0)" id="Drawing_9_0" stroke-width="40" stroke-linejoin="round" d="M 5439,4992 L 5439,4842 5525,4892 5525,5042 5439,4992 Z"/>
    </g>
    <g>
     <path fill="rgb(127,127,127)" stroke="none" d="M 4575,4493 L 4575,4343 4661,4393 4661,4543 4575,4493 Z"/>
     <path fill="none" stroke="rgb(0,0,0)" id="Drawing_10_0" stroke-width="40" stroke-linejoin="round" d="M 4575,4493 L 4575,4343 4661,4393 4661,4543 4575,4493 Z"/>
    </g>
    <g>
     <path fill="rgb(127,127,127)" stroke="none" d="M 4748,4593 L 4748,4443 4834,4493 4834,4643 4748,4593 Z"/>
     <path fill="none" stroke="rgb(0,0,0)" id="Drawing_11_0" stroke-width="40" stroke-linejoin="round" d="M 4748,4593 L 4748,4443 4834,4493 4834,4643 4748,4593 Z"/>
    </g>
    <g>
     <defs>
      <linearGradient id="Gradient_684" gradientUnits="userSpaceOnUse" x1="3968" y1="4067" x2="5439" y2="4069">
       <stop offset="0.1" stop-color="rgb(179,179,179)"/>
       <stop offset="1" stop-color="rgb(229,229,229)"/>
      </linearGradient>
     </defs>
     <path fill="url(#Gradient_684)" stroke="rgb(255,255,255)" id="Drawing_12_0" stroke-width="40" stroke-linejoin="round" d="M 3970,4043 L 3970,3244 5439,4093 5439,4892 3970,4043 Z"/>
    </g>
    <g>
     <path fill="rgb(179,179,179)" stroke="none" d="M 5612,4825 L 5612,4792 5555,4825 5439,4825 5439,4093 5612,3993 5612,3694 6044,3444 6044,4825 5612,4825 Z"/>
     <path fill="rgb(180,180,180)" stroke="none" d="M 5555,4825 L 5439,4892 5439,4825 5555,4825 Z M 6044,4825 L 6044,4942 5612,5192 5612,4825 6044,4825 Z M 5612,4807 L 5612,4792 5586,4807 5439,4807 5439,4093 5612,3993 5612,3694 6044,3444 6044,4807 5612,4807 Z"/>
     <path fill="rgb(181,181,181)" stroke="none" d="M 5586,4807 L 5439,4892 5439,4807 5586,4807 Z M 6044,4807 L 6044,4942 5612,5192 5612,4807 6044,4807 Z M 5439,4790 L 5439,4093 5612,3993 5612,3694 6044,3444 6044,4790 5439,4790 Z"/>
     <path fill="rgb(182,182,182)" stroke="none" d="M 6044,4790 L 6044,4942 5612,5192 5612,4792 5439,4892 5439,4790 6044,4790 Z M 5439,4772 L 5439,4093 5612,3993 5612,3694 6044,3444 6044,4772 5439,4772 Z"/>
     <path fill="rgb(183,183,183)" stroke="none" d="M 6044,4772 L 6044,4942 5612,5192 5612,4792 5439,4892 5439,4772 6044,4772 Z M 5439,4755 L 5439,4093 5612,3993 5612,3694 6044,3444 6044,4755 5439,4755 Z"/>
     <path fill="rgb(184,184,184)" stroke="none" d="M 6044,4755 L 6044,4942 5612,5192 5612,4792 5439,4892 5439,4755 6044,4755 Z M 5439,4737 L 5439,4093 5612,3993 5612,3694 6044,3444 6044,4737 5439,4737 Z"/>
     <path fill="rgb(185,185,185)" stroke="none" d="M 6044,4737 L 6044,4942 5612,5192 5612,4792 5439,4892 5439,4737 6044,4737 Z M 5439,4720 L 5439,4093 5612,3993 5612,3694 6044,3444 6044,4720 5439,4720 Z"/>
     <path fill="rgb(186,186,186)" stroke="none" d="M 6044,4720 L 6044,4942 5612,5192 5612,4792 5439,4892 5439,4720 6044,4720 Z M 5439,4702 L 5439,4093 5612,3993 5612,3694 6044,3444 6044,4702 5439,4702 Z"/>
     <path fill="rgb(187,187,187)" stroke="none" d="M 6044,4702 L 6044,4942 5612,5192 5612,4792 5439,4892 5439,4702 6044,4702 Z M 5439,4685 L 5439,4093 5612,3993 5612,3694 6044,3444 6044,4685 5439,4685 Z"/>
     <path fill="rgb(188,188,188)" stroke="none" d="M 6044,4685 L 6044,4942 5612,5192 5612,4792 5439,4892 5439,4685 6044,4685 Z M 5439,4667 L 5439,4093 5612,3993 5612,3694 6044,3444 6044,4667 5439,4667 Z"/>
     <path fill="rgb(189,189,189)" stroke="none" d="M 6044,4667 L 6044,4942 5612,5192 5612,4792 5439,4892 5439,4667 6044,4667 Z M 5439,4650 L 5439,4093 5612,3993 5612,3694 6044,3444 6044,4650 5439,4650 Z"/>
     <path fill="rgb(190,190,190)" stroke="none" d="M 6044,4650 L 6044,4942 5612,5192 5612,4792 5439,4892 5439,4650 6044,4650 Z M 5439,4632 L 5439,4093 5612,3993 5612,3694 6044,3444 6044,4632 5439,4632 Z"/>
     <path fill="rgb(191,191,191)" stroke="none" d="M 6044,4632 L 6044,4942 5612,5192 5612,4792 5439,4892 5439,4632 6044,4632 Z M 5439,4615 L 5439,4093 5612,3993 5612,3694 6044,3444 6044,4615 5439,4615 Z"/>
     <path fill="rgb(192,192,192)" stroke="none" d="M 6044,4615 L 6044,4942 5612,5192 5612,4792 5439,4892 5439,4615 6044,4615 Z M 5439,4597 L 5439,4093 5612,3993 5612,3694 6044,3444 6044,4597 5439,4597 Z"/>
     <path fill="rgb(193,193,193)" stroke="none" d="M 6044,4597 L 6044,4942 5612,5192 5612,4792 5439,4892 5439,4597 6044,4597 Z M 5439,4580 L 5439,4093 5612,3993 5612,3694 6044,3444 6044,4580 5439,4580 Z"/>
     <path fill="rgb(194,194,194)" stroke="none" d="M 6044,4580 L 6044,4942 5612,5192 5612,4792 5439,4892 5439,4580 6044,4580 Z M 5439,4562 L 5439,4093 5612,3993 5612,3694 6044,3444 6044,4562 5439,4562 Z"/>
     <path fill="rgb(195,195,195)" stroke="none" d="M 6044,4562 L 6044,4942 5612,5192 5612,4792 5439,4892 5439,4562 6044,4562 Z M 5439,4545 L 5439,4093 5612,3993 5612,3694 6044,3444 6044,4545 5439,4545 Z"/>
     <path fill="rgb(196,196,196)" stroke="none" d="M 6044,4545 L 6044,4942 5612,5192 5612,4792 5439,4892 5439,4545 6044,4545 Z M 5439,4527 L 5439,4093 5612,3993 5612,3694 6044,3444 6044,4527 5439,4527 Z"/>
     <path fill="rgb(197,197,197)" stroke="none" d="M 6044,4527 L 6044,4942 5612,5192 5612,4792 5439,4892 5439,4527 6044,4527 Z M 5439,4510 L 5439,4093 5612,3993 5612,3694 6044,3444 6044,4510 5439,4510 Z"/>
     <path fill="rgb(198,198,198)" stroke="none" d="M 6044,4510 L 6044,4942 5612,5192 5612,4792 5439,4892 5439,4510 6044,4510 Z M 5439,4492 L 5439,4093 5612,3993 5612,3694 6044,3444 6044,4492 5439,4492 Z"/>
     <path fill="rgb(199,199,199)" stroke="none" d="M 6044,4492 L 6044,4942 5612,5192 5612,4792 5439,4892 5439,4492 6044,4492 Z M 6044,3460 L 6044,4475 5439,4475 5439,4093 5612,3993 5612,3694 6016,3460 6044,3460 Z"/>
     <path fill="rgb(200,200,200)" stroke="none" d="M 6044,4475 L 6044,4942 5612,5192 5612,4792 5439,4892 5439,4475 6044,4475 Z M 6016,3460 L 6044,3444 6044,3460 6016,3460 Z M 6044,3478 L 6044,4457 5439,4457 5439,4093 5612,3993 5612,3694 5985,3478 6044,3478 Z"/>
     <path fill="rgb(201,201,201)" stroke="none" d="M 6044,4457 L 6044,4942 5612,5192 5612,4792 5439,4892 5439,4457 6044,4457 Z M 5985,3478 L 6044,3444 6044,3478 5985,3478 Z M 6044,3495 L 6044,4440 5439,4440 5439,4093 5612,3993 5612,3694 5956,3495 6044,3495 Z"/>
     <path fill="rgb(202,202,202)" stroke="none" d="M 6044,4440 L 6044,4942 5612,5192 5612,4792 5439,4892 5439,4440 6044,4440 Z M 5956,3495 L 6044,3444 6044,3495 5956,3495 Z M 6044,3513 L 6044,4422 5439,4422 5439,4093 5612,3993 5612,3694 5925,3513 6044,3513 Z"/>
     <path fill="rgb(203,203,203)" stroke="none" d="M 6044,4422 L 6044,4942 5612,5192 5612,4792 5439,4892 5439,4422 6044,4422 Z M 5925,3513 L 6044,3444 6044,3513 5925,3513 Z M 6044,3530 L 6044,4405 5439,4405 5439,4093 5612,3993 5612,3694 5895,3530 6044,3530 Z"/>
     <path fill="rgb(204,204,204)" stroke="none" d="M 6044,4405 L 6044,4942 5612,5192 5612,4792 5439,4892 5439,4405 6044,4405 Z M 5895,3530 L 6044,3444 6044,3530 5895,3530 Z M 6039,3548 L 6039,4387 5439,4387 5439,4093 5612,3993 5612,3694 5864,3548 6039,3548 Z"/>
     <path fill="rgb(205,205,205)" stroke="none" d="M 6039,4387 L 6039,3548 5864,3548 6044,3444 6044,4942 5612,5192 5612,4792 5439,4892 5439,4387 6039,4387 Z M 6022,3565 L 6022,4370 5439,4370 5439,4093 5612,3993 5612,3694 5835,3565 6022,3565 Z"/>
     <path fill="rgb(206,206,206)" stroke="none" d="M 6022,4370 L 6022,3565 5835,3565 6044,3444 6044,4942 5612,5192 5612,4792 5439,4892 5439,4370 6022,4370 Z M 6004,3583 L 6004,4352 5439,4352 5439,4093 5612,3993 5612,3694 5804,3583 6004,3583 Z"/>
     <path fill="rgb(207,207,207)" stroke="none" d="M 6004,4352 L 6004,3583 5804,3583 6044,3444 6044,4942 5612,5192 5612,4792 5439,4892 5439,4352 6004,4352 Z M 5987,3600 L 5987,4335 5439,4335 5439,4093 5612,3993 5612,3694 5774,3600 5987,3600 Z"/>
     <path fill="rgb(208,208,208)" stroke="none" d="M 5987,4335 L 5987,3600 5774,3600 6044,3444 6044,4942 5612,5192 5612,4792 5439,4892 5439,4335 5987,4335 Z M 5969,3618 L 5969,4317 5439,4317 5439,4093 5612,3993 5612,3694 5743,3618 5969,3618 Z"/>
     <path fill="rgb(209,209,209)" stroke="none" d="M 5969,4317 L 5969,3618 5743,3618 6044,3444 6044,4942 5612,5192 5612,4792 5439,4892 5439,4317 5969,4317 Z M 5952,3635 L 5952,4300 5439,4300 5439,4093 5612,3993 5612,3694 5714,3635 5952,3635 Z"/>
     <path fill="rgb(210,210,210)" stroke="none" d="M 5952,4300 L 5952,3635 5714,3635 6044,3444 6044,4942 5612,5192 5612,4792 5439,4892 5439,4300 5952,4300 Z M 5934,3653 L 5934,4282 5439,4282 5439,4093 5612,3993 5612,3694 5683,3653 5934,3653 Z"/>
     <path fill="rgb(211,211,211)" stroke="none" d="M 5934,4282 L 5934,3653 5683,3653 6044,3444 6044,4942 5612,5192 5612,4792 5439,4892 5439,4282 5934,4282 Z M 5917,3670 L 5917,4265 5439,4265 5439,4093 5612,3993 5612,3694 5653,3670 5917,3670 Z"/>
     <path fill="rgb(212,212,212)" stroke="none" d="M 5917,4265 L 5917,3670 5653,3670 6044,3444 6044,4942 5612,5192 5612,4792 5439,4892 5439,4265 5917,4265 Z M 5899,3688 L 5899,4247 5439,4247 5439,4093 5612,3993 5612,3694 5622,3688 5899,3688 Z"/>
     <path fill="rgb(213,213,213)" stroke="none" d="M 5899,4247 L 5899,3688 5622,3688 6044,3444 6044,4942 5612,5192 5612,4792 5439,4892 5439,4247 5899,4247 Z M 5882,3705 L 5882,4230 5439,4230 5439,4093 5612,3993 5612,3705 5882,3705 Z"/>
     <path fill="rgb(214,214,214)" stroke="none" d="M 5882,4230 L 5882,3705 5612,3705 5612,3694 6044,3444 6044,4942 5612,5192 5612,4792 5439,4892 5439,4230 5882,4230 Z M 5864,3723 L 5864,4212 5439,4212 5439,4093 5612,3993 5612,3723 5864,3723 Z"/>
     <path fill="rgb(215,215,215)" stroke="none" d="M 5864,4212 L 5864,3723 5612,3723 5612,3694 6044,3444 6044,4942 5612,5192 5612,4792 5439,4892 5439,4212 5864,4212 Z M 5847,3740 L 5847,4195 5439,4195 5439,4093 5612,3993 5612,3740 5847,3740 Z"/>
     <path fill="rgb(216,216,216)" stroke="none" d="M 5847,4195 L 5847,3740 5612,3740 5612,3694 6044,3444 6044,4942 5612,5192 5612,4792 5439,4892 5439,4195 5847,4195 Z M 5829,3758 L 5829,4177 5439,4177 5439,4093 5612,3993 5612,3758 5829,3758 Z"/>
     <path fill="rgb(217,217,217)" stroke="none" d="M 5829,4177 L 5829,3758 5612,3758 5612,3694 6044,3444 6044,4942 5612,5192 5612,4792 5439,4892 5439,4177 5829,4177 Z M 5812,3775 L 5812,4160 5439,4160 5439,4093 5612,3993 5612,3775 5812,3775 Z"/>
     <path fill="rgb(218,218,218)" stroke="none" d="M 5812,4160 L 5812,3775 5612,3775 5612,3694 6044,3444 6044,4942 5612,5192 5612,4792 5439,4892 5439,4160 5812,4160 Z M 5794,3793 L 5794,4142 5445,4142 5445,4090 5612,3993 5612,3793 5794,3793 Z"/>
     <path fill="rgb(219,219,219)" stroke="none" d="M 5445,4142 L 5794,4142 5794,3793 5612,3793 5612,3694 6044,3444 6044,4942 5612,5192 5612,4792 5439,4892 5439,4093 5445,4090 5445,4142 Z M 5777,3810 L 5777,4125 5462,4125 5462,4080 5612,3993 5612,3810 5777,3810 Z"/>
     <path fill="rgb(220,220,220)" stroke="none" d="M 5462,4125 L 5777,4125 5777,3810 5612,3810 5612,3694 6044,3444 6044,4942 5612,5192 5612,4792 5439,4892 5439,4093 5462,4080 5462,4125 Z M 5759,3828 L 5759,4107 5480,4107 5480,4069 5612,3993 5612,3828 5759,3828 Z"/>
     <path fill="rgb(221,221,221)" stroke="none" d="M 5480,4107 L 5759,4107 5759,3828 5612,3828 5612,3694 6044,3444 6044,4942 5612,5192 5612,4792 5439,4892 5439,4093 5480,4069 5480,4107 Z M 5742,3845 L 5742,4090 5497,4090 5497,4059 5612,3993 5612,3845 5742,3845 Z"/>
     <path fill="rgb(222,222,222)" stroke="none" d="M 5497,4090 L 5742,4090 5742,3845 5612,3845 5612,3694 6044,3444 6044,4942 5612,5192 5612,4792 5439,4892 5439,4093 5497,4059 5497,4090 Z M 5724,3863 L 5724,4072 5515,4072 5515,4049 5612,3993 5612,3863 5724,3863 Z"/>
     <path fill="rgb(223,223,223)" stroke="none" d="M 5515,4072 L 5724,4072 5724,3863 5612,3863 5612,3694 6044,3444 6044,4942 5612,5192 5612,4792 5439,4892 5439,4093 5515,4049 5515,4072 Z M 5707,3880 L 5707,4055 5532,4055 5532,4039 5612,3993 5612,3880 5707,3880 Z"/>
     <path fill="rgb(224,224,224)" stroke="none" d="M 5532,4055 L 5707,4055 5707,3880 5612,3880 5612,3694 6044,3444 6044,4942 5612,5192 5612,4792 5439,4892 5439,4093 5532,4039 5532,4055 Z M 5689,3898 L 5689,4037 5550,4037 5550,4029 5612,3993 5612,3898 5689,3898 Z"/>
     <path fill="rgb(225,225,225)" stroke="none" d="M 5550,4037 L 5689,4037 5689,3898 5612,3898 5612,3694 6044,3444 6044,4942 5612,5192 5612,4792 5439,4892 5439,4093 5550,4029 5550,4037 Z M 5672,3915 L 5672,4020 5567,4020 5567,4019 5612,3993 5612,3915 5672,3915 Z"/>
     <path fill="rgb(226,226,226)" stroke="none" d="M 5567,4020 L 5672,4020 5672,3915 5612,3915 5612,3694 6044,3444 6044,4942 5612,5192 5612,4792 5439,4892 5439,4093 5567,4019 5567,4020 Z M 5654,3933 L 5654,4002 5596,4002 5612,3993 5612,3933 5654,3933 Z"/>
     <path fill="rgb(227,227,227)" stroke="none" d="M 5654,4002 L 5654,3933 5612,3933 5612,3694 6044,3444 6044,4942 5612,5192 5612,4792 5439,4892 5439,4093 5596,4002 5654,4002 Z M 5637,3950 L 5637,3985 5612,3985 5612,3950 5637,3950 Z"/>
     <path fill="rgb(229,229,229)" stroke="none" d="M 5637,3985 L 5637,3950 5612,3950 5612,3694 6044,3444 6044,4942 5612,5192 5612,4792 5439,4892 5439,4093 5612,3993 5612,3985 5637,3985 Z"/>
     <path fill="none" stroke="rgb(255,255,255)" id="Drawing_13_0" stroke-width="40" stroke-linejoin="round" d="M 5612,5192 L 5612,4792 5439,4892 5439,4093 5612,3993 5612,3694 6044,3444 6044,4942 5612,5192 Z"/>
    </g>
    <g>
     <defs>
      <linearGradient id="Gradient_685" gradientUnits="userSpaceOnUse" x1="5093" y1="2595" x2="5093" y2="3694">
       <stop offset="0.1" stop-color="rgb(179,179,179)"/>
       <stop offset="1" stop-color="rgb(229,229,229)"/>
      </linearGradient>
     </defs>
     <path fill="url(#Gradient_685)" stroke="rgb(255,255,255)" id="Drawing_14_0" stroke-width="40" stroke-linejoin="round" d="M 5612,3694 L 4143,2845 4575,2595 6044,3444 5612,3694 Z"/>
    </g>
    <g>
     <defs>
      <linearGradient id="Gradient_686" gradientUnits="userSpaceOnUse" x1="4141" y1="3418" x2="5612" y2="3420">
       <stop offset="0.1" stop-color="rgb(179,179,179)"/>
       <stop offset="1" stop-color="rgb(229,229,229)"/>
      </linearGradient>
     </defs>
     <path fill="url(#Gradient_686)" stroke="rgb(255,255,255)" id="Drawing_15_0" stroke-width="40" stroke-linejoin="round" d="M 4143,3145 L 4143,2845 5612,3694 5612,3994 4143,3145 Z"/>
    </g>
    <g>
     <path fill="none" stroke="rgb(0,0,0)" id="Drawing_16_0" stroke-width="40" stroke-linejoin="round" d="M 4143,4343 L 4143,4143 3970,4043 3970,3244 4143,3144 4143,2845 4575,2595 6043,3444 6043,4942 5611,5192 4143,4343 Z"/>
    </g>
    <g>
     <path fill="rgb(255,255,255)" stroke="none" d="M 4229,4093 L 4229,3943 4315,3993 4315,4143 4229,4093 Z"/>
     <path fill="none" stroke="rgb(127,127,127)" id="Drawing_17_0" stroke-width="40" stroke-linejoin="round" d="M 4229,4093 L 4229,3943 4315,3993 4315,4143 4229,4093 Z"/>
    </g>
    <g>
     <path fill="rgb(255,255,255)" stroke="none" d="M 4488,4243 L 4488,4093 4574,4143 4574,4293 4488,4243 Z"/>
     <path fill="none" stroke="rgb(127,127,127)" id="Drawing_18_0" stroke-width="40" stroke-linejoin="round" d="M 4488,4243 L 4488,4093 4574,4143 4574,4293 4488,4243 Z"/>
    </g>
    <g>
     <path fill="rgb(255,255,255)" stroke="none" d="M 4748,4393 L 4748,4243 4834,4293 4834,4443 4748,4393 Z"/>
     <path fill="none" stroke="rgb(127,127,127)" id="Drawing_19_0" stroke-width="40" stroke-linejoin="round" d="M 4748,4393 L 4748,4243 4834,4293 4834,4443 4748,4393 Z"/>
    </g>
    <g>
     <path fill="rgb(255,255,255)" stroke="none" d="M 5007,4543 L 5007,4393 5093,4443 5093,4593 5007,4543 Z"/>
     <path fill="none" stroke="rgb(127,127,127)" id="Drawing_20_0" stroke-width="40" stroke-linejoin="round" d="M 5007,4543 L 5007,4393 5093,4443 5093,4593 5007,4543 Z"/>
    </g>
    <g>
     <defs>
      <linearGradient id="Gradient_687" gradientUnits="userSpaceOnUse" x1="4228" y1="3917" x2="5094" y2="3919">
       <stop offset="0.1" stop-color="rgb(147,212,240)"/>
       <stop offset="1" stop-color="rgb(233,246,252)"/>
      </linearGradient>
     </defs>
     <path fill="url(#Gradient_687)" stroke="rgb(127,127,127)" id="Drawing_21_0" stroke-width="40" stroke-linejoin="round" d="M 4229,3844 L 4229,3494 5093,3993 5093,4343 4229,3844 Z"/>
    </g>
    <g>
     <path fill="rgb(116,203,128)" stroke="none" d="M 5180,4193 L 5180,4043 5353,4143 5353,4293 5180,4193 Z"/>
     <path fill="none" stroke="rgb(127,127,127)" id="Drawing_22_0" stroke-width="40" stroke-linejoin="round" d="M 5180,4193 L 5180,4043 5353,4143 5353,4293 5180,4193 Z"/>
    </g>
    <g>
     <path fill="rgb(209,97,108)" stroke="none" d="M 5180,4393 L 5180,4243 5353,4343 5353,4493 5180,4393 Z"/>
     <path fill="none" stroke="rgb(127,127,127)" id="Drawing_23_0" stroke-width="40" stroke-linejoin="round" d="M 5180,4393 L 5180,4243 5353,4343 5353,4493 5180,4393 Z"/>
    </g>
    <g>
     <path fill="rgb(0,0,0)" stroke="none" d="M 4402,3194 L 4402,3094 4488,3144 4488,3244 4402,3194 Z"/>
     <path fill="none" stroke="rgb(127,127,127)" id="Drawing_24_0" stroke-width="40" stroke-linejoin="round" d="M 4402,3194 L 4402,3094 4488,3144 4488,3244 4402,3194 Z"/>
    </g>
    <g>
     <path fill="rgb(0,0,0)" stroke="none" d="M 4575,3294 L 4575,3194 4661,3244 4661,3344 4575,3294 Z"/>
     <path fill="none" stroke="rgb(127,127,127)" id="Drawing_25_0" stroke-width="40" stroke-linejoin="round" d="M 4575,3294 L 4575,3194 4661,3244 4661,3344 4575,3294 Z"/>
    </g>
    <g>
     <path fill="rgb(0,0,0)" stroke="none" d="M 4748,3394 L 4748,3294 4834,3344 4834,3444 4748,3394 Z"/>
     <path fill="none" stroke="rgb(127,127,127)" id="Drawing_26_0" stroke-width="40" stroke-linejoin="round" d="M 4748,3394 L 4748,3294 4834,3344 4834,3444 4748,3394 Z"/>
    </g>
    <g>
     <path fill="rgb(0,0,0)" stroke="none" d="M 4230,3095 L 4230,2995 4316,3045 4316,3145 4230,3095 Z"/>
     <path fill="none" stroke="rgb(127,127,127)" id="Drawing_27_0" stroke-width="40" stroke-linejoin="round" d="M 4230,3095 L 4230,2995 4316,3045 4316,3145 4230,3095 Z"/>
    </g>
   </g>
  </g>
 </g>
</svg>