<?xml version="1.0" encoding="UTF-8"?>

<svg version="1.2" baseProfile="tiny" width="13.65mm" height="17.5mm" viewBox="5583 5437 1365 1750" preserveAspectRatio="xMidYMid" fill-rule="evenodd" stroke-width="28.222" stroke-linejoin="round" xmlns="http://www.w3.org/2000/svg" xmlns:xlink="http://www.w3.org/1999/xlink" xml:space="preserve">
 <g visibility="visible" id="Slide_1">
  <g id="DrawingGroup_1">
   <g>
    <path fill="rgb(221,221,221)" stroke="none" d="M 6275,7167 C 6644,7167 6947,7011 6947,6933 6947,6856 6947,6778 6678,6778 6678,7011 6275,6855 6275,7167 Z"/>
    <path fill="none" stroke="rgb(221,221,221)" id="Drawing_1_0" stroke-linejoin="round" d="M 6275,7167 C 6644,7167 6947,7011 6947,6933 6947,6856 6947,6778 6678,6778 6678,7011 6275,6855 6275,7167 Z"/>
   </g>
   <g id="DrawingGroup_2">
    <g>
     <path fill="rgb(179,179,179)" stroke="none" d="M 6275,6889 L 6275,6079 6678,5846 6678,6889 6275,6889 Z"/>
     <path fill="rgb(180,180,180)" stroke="none" d="M 6678,6889 L 6678,6934 6275,7167 6275,6889 6678,6889 Z M 6275,6876 L 6275,6079 6678,5846 6678,6876 6275,6876 Z"/>
     <path fill="rgb(181,181,181)" stroke="none" d="M 6678,6876 L 6678,6934 6275,7167 6275,6876 6678,6876 Z M 6275,6863 L 6275,6079 6678,5846 6678,6863 6275,6863 Z"/>
     <path fill="rgb(182,182,182)" stroke="none" d="M 6678,6863 L 6678,6934 6275,7167 6275,6863 6678,6863 Z M 6275,6850 L 6275,6079 6678,5846 6678,6850 6275,6850 Z"/>
     <path fill="rgb(183,183,183)" stroke="none" d="M 6678,6850 L 6678,6934 6275,7167 6275,6850 6678,6850 Z M 6275,6836 L 6275,6079 6678,5846 6678,6836 6275,6836 Z"/>
     <path fill="rgb(184,184,184)" stroke="none" d="M 6678,6836 L 6678,6934 6275,7167 6275,6836 6678,6836 Z M 6275,6823 L 6275,6079 6678,5846 6678,6823 6275,6823 Z"/>
     <path fill="rgb(185,185,185)" stroke="none" d="M 6678,6823 L 6678,6934 6275,7167 6275,6823 6678,6823 Z M 6275,6810 L 6275,6079 6678,5846 6678,6810 6275,6810 Z"/>
     <path fill="rgb(186,186,186)" stroke="none" d="M 6678,6810 L 6678,6934 6275,7167 6275,6810 6678,6810 Z M 6275,6797 L 6275,6079 6678,5846 6678,6797 6275,6797 Z"/>
     <path fill="rgb(187,187,187)" stroke="none" d="M 6678,6797 L 6678,6934 6275,7167 6275,6797 6678,6797 Z M 6275,6783 L 6275,6079 6678,5846 6678,6783 6275,6783 Z"/>
     <path fill="rgb(188,188,188)" stroke="none" d="M 6678,6783 L 6678,6934 6275,7167 6275,6783 6678,6783 Z M 6275,6770 L 6275,6079 6678,5846 6678,6770 6275,6770 Z"/>
     <path fill="rgb(189,189,189)" stroke="none" d="M 6678,6770 L 6678,6934 6275,7167 6275,6770 6678,6770 Z M 6275,6757 L 6275,6079 6678,5846 6678,6757 6275,6757 Z"/>
     <path fill="rgb(190,190,190)" stroke="none" d="M 6678,6757 L 6678,6934 6275,7167 6275,6757 6678,6757 Z M 6275,6744 L 6275,6079 6678,5846 6678,6744 6275,6744 Z"/>
     <path fill="rgb(191,191,191)" stroke="none" d="M 6678,6744 L 6678,6934 6275,7167 6275,6744 6678,6744 Z M 6275,6730 L 6275,6079 6678,5846 6678,6730 6275,6730 Z"/>
     <path fill="rgb(192,192,192)" stroke="none" d="M 6678,6730 L 6678,6934 6275,7167 6275,6730 6678,6730 Z M 6275,6717 L 6275,6079 6678,5846 6678,6717 6275,6717 Z"/>
     <path fill="rgb(193,193,193)" stroke="none" d="M 6678,6717 L 6678,6934 6275,7167 6275,6717 6678,6717 Z M 6275,6704 L 6275,6079 6678,5846 6678,6704 6275,6704 Z"/>
     <path fill="rgb(194,194,194)" stroke="none" d="M 6678,6704 L 6678,6934 6275,7167 6275,6704 6678,6704 Z M 6275,6691 L 6275,6079 6678,5846 6678,6691 6275,6691 Z"/>
     <path fill="rgb(195,195,195)" stroke="none" d="M 6678,6691 L 6678,6934 6275,7167 6275,6691 6678,6691 Z M 6275,6677 L 6275,6079 6678,5846 6678,6677 6275,6677 Z"/>
     <path fill="rgb(196,196,196)" stroke="none" d="M 6678,6677 L 6678,6934 6275,7167 6275,6677 6678,6677 Z M 6275,6664 L 6275,6079 6678,5846 6678,6664 6275,6664 Z"/>
     <path fill="rgb(197,197,197)" stroke="none" d="M 6678,6664 L 6678,6934 6275,7167 6275,6664 6678,6664 Z M 6275,6651 L 6275,6079 6678,5846 6678,6651 6275,6651 Z"/>
     <path fill="rgb(198,198,198)" stroke="none" d="M 6678,6651 L 6678,6934 6275,7167 6275,6651 6678,6651 Z M 6275,6638 L 6275,6079 6678,5846 6678,6638 6275,6638 Z"/>
     <path fill="rgb(199,199,199)" stroke="none" d="M 6678,6638 L 6678,6934 6275,7167 6275,6638 6678,6638 Z M 6678,5858 L 6678,6624 6275,6624 6275,6079 6657,5858 6678,5858 Z"/>
     <path fill="rgb(200,200,200)" stroke="none" d="M 6678,6624 L 6678,6934 6275,7167 6275,6624 6678,6624 Z M 6657,5858 L 6678,5846 6678,5858 6657,5858 Z M 6678,5871 L 6678,6611 6275,6611 6275,6079 6635,5871 6678,5871 Z"/>
     <path fill="rgb(201,201,201)" stroke="none" d="M 6678,6611 L 6678,6934 6275,7167 6275,6611 6678,6611 Z M 6635,5871 L 6678,5846 6678,5871 6635,5871 Z M 6678,5884 L 6678,6598 6275,6598 6275,6079 6612,5884 6678,5884 Z"/>
     <path fill="rgb(202,202,202)" stroke="none" d="M 6678,6598 L 6678,6934 6275,7167 6275,6598 6678,6598 Z M 6612,5884 L 6678,5846 6678,5884 6612,5884 Z M 6678,5897 L 6678,6585 6275,6585 6275,6079 6590,5897 6678,5897 Z"/>
     <path fill="rgb(203,203,203)" stroke="none" d="M 6678,6585 L 6678,6934 6275,7167 6275,6585 6678,6585 Z M 6590,5897 L 6678,5846 6678,5897 6590,5897 Z M 6678,5911 L 6678,6571 6275,6571 6275,6079 6566,5911 6678,5911 Z"/>
     <path fill="rgb(204,204,204)" stroke="none" d="M 6678,6571 L 6678,6934 6275,7167 6275,6571 6678,6571 Z M 6566,5911 L 6678,5846 6678,5911 6566,5911 Z M 6678,5924 L 6678,6558 6275,6558 6275,6079 6543,5924 6678,5924 Z"/>
     <path fill="rgb(205,205,205)" stroke="none" d="M 6678,6558 L 6678,6934 6275,7167 6275,6558 6678,6558 Z M 6543,5924 L 6678,5846 6678,5924 6543,5924 Z M 6678,5937 L 6678,6545 6275,6545 6275,6079 6521,5937 6678,5937 Z"/>
     <path fill="rgb(206,206,206)" stroke="none" d="M 6678,6545 L 6678,6934 6275,7167 6275,6545 6678,6545 Z M 6521,5937 L 6678,5846 6678,5937 6521,5937 Z M 6678,5950 L 6678,6532 6275,6532 6275,6079 6498,5950 6678,5950 Z"/>
     <path fill="rgb(207,207,207)" stroke="none" d="M 6678,6532 L 6678,6934 6275,7167 6275,6532 6678,6532 Z M 6498,5950 L 6678,5846 6678,5950 6498,5950 Z M 6672,5963 L 6672,6519 6275,6519 6275,6079 6476,5963 6672,5963 Z"/>
     <path fill="rgb(208,208,208)" stroke="none" d="M 6672,6519 L 6672,5963 6476,5963 6678,5846 6678,6934 6275,7167 6275,6519 6672,6519 Z M 6658,5977 L 6658,6505 6275,6505 6275,6079 6451,5977 6658,5977 Z"/>
     <path fill="rgb(209,209,209)" stroke="none" d="M 6658,6505 L 6658,5977 6451,5977 6678,5846 6678,6934 6275,7167 6275,6505 6658,6505 Z M 6645,5990 L 6645,6492 6275,6492 6275,6079 6429,5990 6645,5990 Z"/>
     <path fill="rgb(210,210,210)" stroke="none" d="M 6645,6492 L 6645,5990 6429,5990 6678,5846 6678,6934 6275,7167 6275,6492 6645,6492 Z M 6632,6003 L 6632,6479 6275,6479 6275,6079 6406,6003 6632,6003 Z"/>
     <path fill="rgb(211,211,211)" stroke="none" d="M 6632,6479 L 6632,6003 6406,6003 6678,5846 6678,6934 6275,7167 6275,6479 6632,6479 Z M 6619,6016 L 6619,6466 6275,6466 6275,6079 6384,6016 6619,6016 Z"/>
     <path fill="rgb(212,212,212)" stroke="none" d="M 6619,6466 L 6619,6016 6384,6016 6678,5846 6678,6934 6275,7167 6275,6466 6619,6466 Z M 6605,6030 L 6605,6452 6275,6452 6275,6079 6360,6030 6605,6030 Z"/>
     <path fill="rgb(213,213,213)" stroke="none" d="M 6605,6452 L 6605,6030 6360,6030 6678,5846 6678,6934 6275,7167 6275,6452 6605,6452 Z M 6592,6043 L 6592,6439 6275,6439 6275,6079 6337,6043 6592,6043 Z"/>
     <path fill="rgb(214,214,214)" stroke="none" d="M 6592,6439 L 6592,6043 6337,6043 6678,5846 6678,6934 6275,7167 6275,6439 6592,6439 Z M 6579,6056 L 6579,6426 6275,6426 6275,6079 6315,6056 6579,6056 Z"/>
     <path fill="rgb(215,215,215)" stroke="none" d="M 6579,6426 L 6579,6056 6315,6056 6678,5846 6678,6934 6275,7167 6275,6426 6579,6426 Z M 6566,6069 L 6566,6413 6275,6413 6275,6079 6292,6069 6566,6069 Z"/>
     <path fill="rgb(216,216,216)" stroke="none" d="M 6566,6413 L 6566,6069 6292,6069 6678,5846 6678,6934 6275,7167 6275,6413 6566,6413 Z M 6552,6083 L 6552,6399 6275,6399 6275,6083 6552,6083 Z"/>
     <path fill="rgb(217,217,217)" stroke="none" d="M 6552,6399 L 6552,6083 6275,6083 6275,6079 6678,5846 6678,6934 6275,7167 6275,6399 6552,6399 Z M 6539,6096 L 6539,6386 6275,6386 6275,6096 6539,6096 Z"/>
     <path fill="rgb(218,218,218)" stroke="none" d="M 6539,6386 L 6539,6096 6275,6096 6275,6079 6678,5846 6678,6934 6275,7167 6275,6386 6539,6386 Z M 6526,6109 L 6526,6373 6275,6373 6275,6109 6526,6109 Z"/>
     <path fill="rgb(219,219,219)" stroke="none" d="M 6526,6373 L 6526,6109 6275,6109 6275,6079 6678,5846 6678,6934 6275,7167 6275,6373 6526,6373 Z M 6275,6122 L 6513,6122 6513,6360 6275,6360 6275,6122 Z"/>
     <path fill="rgb(220,220,220)" stroke="none" d="M 6275,6122 L 6275,6079 6678,5846 6678,6934 6275,7167 6275,6360 6513,6360 6513,6122 6275,6122 Z M 6289,6136 L 6499,6136 6499,6346 6289,6346 6289,6136 Z"/>
     <path fill="rgb(221,221,221)" stroke="none" d="M 6289,6136 L 6289,6346 6499,6346 6499,6136 6289,6136 Z M 6302,6149 L 6486,6149 6486,6333 6302,6333 6302,6149 Z M 6275,7167 L 6275,6079 6678,5846 6678,6934 6275,7167 Z"/>
     <path fill="rgb(222,222,222)" stroke="none" d="M 6302,6149 L 6302,6333 6486,6333 6486,6149 6302,6149 Z M 6315,6162 L 6473,6162 6473,6320 6315,6320 6315,6162 Z M 6275,7167 L 6275,6079 6678,5846 6678,6934 6275,7167 Z"/>
     <path fill="rgb(223,223,223)" stroke="none" d="M 6315,6162 L 6315,6320 6473,6320 6473,6162 6315,6162 Z M 6328,6175 L 6460,6175 6460,6307 6328,6307 6328,6175 Z M 6275,7167 L 6275,6079 6678,5846 6678,6934 6275,7167 Z"/>
     <path fill="rgb(224,224,224)" stroke="none" d="M 6328,6175 L 6328,6307 6460,6307 6460,6175 6328,6175 Z M 6342,6189 L 6446,6189 6446,6293 6342,6293 6342,6189 Z M 6275,7167 L 6275,6079 6678,5846 6678,6934 6275,7167 Z"/>
     <path fill="rgb(225,225,225)" stroke="none" d="M 6342,6189 L 6342,6293 6446,6293 6446,6189 6342,6189 Z M 6355,6202 L 6433,6202 6433,6280 6355,6280 6355,6202 Z M 6275,7167 L 6275,6079 6678,5846 6678,6934 6275,7167 Z"/>
     <path fill="rgb(226,226,226)" stroke="none" d="M 6355,6202 L 6355,6280 6433,6280 6433,6202 6355,6202 Z M 6368,6215 L 6420,6215 6420,6267 6368,6267 6368,6215 Z M 6275,7167 L 6275,6079 6678,5846 6678,6934 6275,7167 Z"/>
     <path fill="rgb(227,227,227)" stroke="none" d="M 6368,6215 L 6368,6267 6420,6267 6420,6215 6368,6215 Z M 6381,6228 L 6407,6228 6407,6254 6381,6254 6381,6228 Z M 6275,7167 L 6275,6079 6678,5846 6678,6934 6275,7167 Z"/>
     <path fill="rgb(229,229,229)" stroke="none" d="M 6381,6228 L 6381,6254 6407,6254 6407,6228 6381,6228 Z M 6275,7167 L 6275,6079 6678,5846 6678,6934 6275,7167 Z"/>
     <path fill="none" stroke="rgb(255,255,255)" id="Drawing_2_0" stroke-width="40" stroke-linejoin="round" d="M 6275,7167 L 6275,6079 6678,5846 6678,6934 6275,7167 Z"/>
    </g>
    <g>
     <defs>
      <linearGradient id="Gradient_704" gradientUnits="userSpaceOnUse" x1="6141" y1="5457" x2="6141" y2="6079">
       <stop offset="0.1" stop-color="rgb(179,179,179)"/>
       <stop offset="1" stop-color="rgb(229,229,229)"/>
      </linearGradient>
     </defs>
     <path fill="url(#Gradient_704)" stroke="rgb(255,255,255)" id="Drawing_3_0" stroke-width="40" stroke-linejoin="round" d="M 6275,6079 L 5603,5690 6006,5457 6679,5846 6275,6079 Z"/>
    </g>
    <g>
     <defs>
      <linearGradient id="Gradient_705" gradientUnits="userSpaceOnUse" x1="5602" y1="6427" x2="6276" y2="6429">
       <stop offset="0.1" stop-color="rgb(179,179,179)"/>
       <stop offset="1" stop-color="rgb(229,229,229)"/>
      </linearGradient>
     </defs>
     <path fill="url(#Gradient_705)" stroke="rgb(255,255,255)" id="Drawing_4_0" stroke-width="40" stroke-linejoin="round" d="M 5603,6778 L 5603,5690 6275,6079 6275,7167 5603,6778 Z"/>
    </g>
    <g>
     <path fill="none" stroke="rgb(0,0,0)" id="Drawing_5_0" stroke-width="40" stroke-linejoin="round" d="M 5603,6778 L 5603,5690 6006,5457 6679,5846 6679,6934 6275,7167 5603,6778 Z"/>
    </g>
   </g>
  </g>
 </g>
</svg>