<?xml version="1.0" encoding="UTF-8"?>

<svg version="1.2" baseProfile="tiny" width="49.91mm" height="58.2mm" viewBox="4374 11339 4991 5820" preserveAspectRatio="xMidYMid" fill-rule="evenodd" stroke-width="28.222" stroke-linejoin="round" xmlns="http://www.w3.org/2000/svg" xmlns:xlink="http://www.w3.org/1999/xlink" xml:space="preserve">
 <g visibility="visible" id="Slide_1">
  <g id="DrawingGroup_1">
   <g>
    <path fill="rgb(221,221,221)" stroke="none" d="M 8242,17139 C 8573,17139 9214,17070 9335,16721 9455,16373 9183,16373 8853,16373 8853,16582 8117,16442 8242,17139 Z"/>
    <path fill="none" stroke="rgb(221,221,221)" id="Drawing_1_0" stroke-linejoin="round" d="M 8242,17139 C 8573,17139 9214,17070 9335,16721 9455,16373 9183,16373 8853,16373 8853,16582 8117,16442 8242,17139 Z"/>
   </g>
   <g id="DrawingGroup_2">
    <g>
     <defs>
      <linearGradient id="Gradient_712" gradientUnits="userSpaceOnUse" x1="4389" y1="14280" x2="8255" y2="14286">
       <stop offset="0.1" stop-color="rgb(51,51,51)"/>
       <stop offset="1" stop-color="rgb(153,153,153)"/>
      </linearGradient>
     </defs>
     <path fill="url(#Gradient_712)" stroke="rgb(178,178,178)" id="Drawing_2_0" stroke-width="40" stroke-linejoin="round" d="M 4394,14910 L 4394,11428 8250,13656 8238,17138 4394,14910 Z"/>
    </g>
    <g>
     <defs>
      <linearGradient id="Gradient_713" gradientUnits="userSpaceOnUse" x1="4630" y1="14072" x2="7771" y2="14078">
       <stop offset="0.1" stop-color="rgb(147,212,240)"/>
       <stop offset="1" stop-color="rgb(233,246,252)"/>
      </linearGradient>
     </defs>
     <path fill="url(#Gradient_713)" stroke="rgb(102,102,102)" id="Drawing_3_0" stroke-width="40" stroke-linejoin="round" d="M 4635,14493 L 4635,11847 7768,13658 7768,16304 4635,14493 Z"/>
    </g>
    <g>
     <path fill="rgb(116,203,128)" stroke="none" d="M 7407,16443 L 7407,16303 7648,16443 7648,16581 7407,16443 Z"/>
     <path fill="none" stroke="rgb(102,102,102)" id="Drawing_4_0" stroke-width="40" stroke-linejoin="round" d="M 7407,16443 L 7407,16303 7648,16443 7648,16581 7407,16443 Z"/>
    </g>
    <g>
     <path fill="rgb(51,51,51)" stroke="none" d="M 8362,16161 L 8372,13726 8854,13448 8854,16161 8362,16161 Z"/>
     <path fill="rgb(52,52,52)" stroke="none" d="M 8854,16161 L 8854,16582 8359,16860 8362,16161 8854,16161 Z M 8362,16144 L 8372,13726 8854,13448 8854,16144 8362,16144 Z"/>
     <path fill="rgb(53,53,53)" stroke="none" d="M 8854,16144 L 8854,16582 8359,16860 8362,16144 8854,16144 Z M 8362,16127 L 8372,13726 8854,13448 8854,16127 8362,16127 Z"/>
     <path fill="rgb(54,54,54)" stroke="none" d="M 8854,16127 L 8854,16582 8359,16860 8362,16127 8854,16127 Z M 8362,16111 L 8372,13726 8854,13448 8854,16111 8362,16111 Z"/>
     <path fill="rgb(55,55,55)" stroke="none" d="M 8854,16111 L 8854,16582 8359,16860 8362,16111 8854,16111 Z M 8362,16094 L 8372,13726 8854,13448 8854,16094 8362,16094 Z"/>
     <path fill="rgb(56,56,56)" stroke="none" d="M 8854,16094 L 8854,16582 8359,16860 8362,16094 8854,16094 Z M 8362,16077 L 8372,13726 8854,13448 8854,16077 8362,16077 Z"/>
     <path fill="rgb(57,57,57)" stroke="none" d="M 8854,16077 L 8854,16582 8359,16860 8362,16077 8854,16077 Z M 8362,16060 L 8372,13726 8854,13448 8854,16060 8362,16060 Z"/>
     <path fill="rgb(58,58,58)" stroke="none" d="M 8854,16060 L 8854,16582 8359,16860 8362,16060 8854,16060 Z M 8362,16044 L 8372,13726 8854,13448 8854,16044 8362,16044 Z"/>
     <path fill="rgb(59,59,59)" stroke="none" d="M 8854,16044 L 8854,16582 8359,16860 8362,16044 8854,16044 Z M 8362,16027 L 8372,13726 8854,13448 8854,16027 8362,16027 Z"/>
     <path fill="rgb(60,60,60)" stroke="none" d="M 8854,16027 L 8854,16582 8359,16860 8362,16027 8854,16027 Z M 8363,16010 L 8372,13726 8854,13448 8854,16010 8363,16010 Z"/>
     <path fill="rgb(61,61,61)" stroke="none" d="M 8854,16010 L 8854,16582 8359,16860 8363,16010 8854,16010 Z M 8363,15993 L 8372,13726 8854,13448 8854,15993 8363,15993 Z"/>
     <path fill="rgb(62,62,62)" stroke="none" d="M 8854,15993 L 8854,16582 8359,16860 8363,15993 8854,15993 Z M 8363,15977 L 8372,13726 8854,13448 8854,15977 8363,15977 Z"/>
     <path fill="rgb(63,63,63)" stroke="none" d="M 8854,15977 L 8854,16582 8359,16860 8363,15977 8854,15977 Z M 8363,15960 L 8372,13726 8854,13448 8854,15960 8363,15960 Z"/>
     <path fill="rgb(64,64,64)" stroke="none" d="M 8854,15960 L 8854,16582 8359,16860 8363,15960 8854,15960 Z M 8363,15943 L 8372,13726 8854,13448 8854,15943 8363,15943 Z"/>
     <path fill="rgb(65,65,65)" stroke="none" d="M 8854,15943 L 8854,16582 8359,16860 8363,15943 8854,15943 Z M 8363,15926 L 8372,13726 8854,13448 8854,15926 8363,15926 Z"/>
     <path fill="rgb(66,66,66)" stroke="none" d="M 8854,15926 L 8854,16582 8359,16860 8363,15926 8854,15926 Z M 8363,15910 L 8372,13726 8854,13448 8854,15910 8363,15910 Z"/>
     <path fill="rgb(67,67,67)" stroke="none" d="M 8854,15910 L 8854,16582 8359,16860 8363,15910 8854,15910 Z M 8363,15893 L 8372,13726 8854,13448 8854,15893 8363,15893 Z"/>
     <path fill="rgb(68,68,68)" stroke="none" d="M 8854,15893 L 8854,16582 8359,16860 8363,15893 8854,15893 Z M 8363,15876 L 8372,13726 8854,13448 8854,15876 8363,15876 Z"/>
     <path fill="rgb(69,69,69)" stroke="none" d="M 8854,15876 L 8854,16582 8359,16860 8363,15876 8854,15876 Z M 8363,15859 L 8372,13726 8854,13448 8854,15859 8363,15859 Z"/>
     <path fill="rgb(70,70,70)" stroke="none" d="M 8854,15859 L 8854,16582 8359,16860 8363,15859 8854,15859 Z M 8363,15843 L 8372,13726 8854,13448 8854,15843 8363,15843 Z"/>
     <path fill="rgb(71,71,71)" stroke="none" d="M 8854,15843 L 8854,16582 8359,16860 8363,15843 8854,15843 Z M 8363,15826 L 8372,13726 8854,13448 8854,15826 8363,15826 Z"/>
     <path fill="rgb(72,72,72)" stroke="none" d="M 8854,15826 L 8854,16582 8359,16860 8363,15826 8854,15826 Z M 8363,15809 L 8372,13726 8854,13448 8854,15809 8363,15809 Z"/>
     <path fill="rgb(73,73,73)" stroke="none" d="M 8854,15809 L 8854,16582 8359,16860 8363,15809 8854,15809 Z M 8363,15792 L 8372,13726 8854,13448 8854,15792 8363,15792 Z"/>
     <path fill="rgb(74,74,74)" stroke="none" d="M 8854,15792 L 8854,16582 8359,16860 8363,15792 8854,15792 Z M 8363,15776 L 8372,13726 8854,13448 8854,15776 8363,15776 Z"/>
     <path fill="rgb(75,75,75)" stroke="none" d="M 8854,15776 L 8854,16582 8359,16860 8363,15776 8854,15776 Z M 8364,15759 L 8372,13726 8854,13448 8854,15759 8364,15759 Z"/>
     <path fill="rgb(76,76,76)" stroke="none" d="M 8854,15759 L 8854,16582 8359,16860 8364,15759 8854,15759 Z M 8364,15742 L 8372,13726 8854,13448 8854,15742 8364,15742 Z"/>
     <path fill="rgb(77,77,77)" stroke="none" d="M 8854,15742 L 8854,16582 8359,16860 8364,15742 8854,15742 Z M 8364,15726 L 8372,13726 8854,13448 8854,15726 8364,15726 Z"/>
     <path fill="rgb(78,78,78)" stroke="none" d="M 8854,15726 L 8854,16582 8359,16860 8364,15726 8854,15726 Z M 8364,15709 L 8372,13726 8854,13448 8854,15709 8364,15709 Z"/>
     <path fill="rgb(79,79,79)" stroke="none" d="M 8854,15709 L 8854,16582 8359,16860 8364,15709 8854,15709 Z M 8364,15692 L 8372,13726 8854,13448 8854,15692 8364,15692 Z"/>
     <path fill="rgb(80,80,80)" stroke="none" d="M 8854,15692 L 8854,16582 8359,16860 8364,15692 8854,15692 Z M 8364,15675 L 8372,13726 8854,13448 8854,15675 8364,15675 Z"/>
     <path fill="rgb(81,81,81)" stroke="none" d="M 8854,15675 L 8854,16582 8359,16860 8364,15675 8854,15675 Z M 8364,15659 L 8372,13726 8854,13448 8854,15659 8364,15659 Z"/>
     <path fill="rgb(82,82,82)" stroke="none" d="M 8854,15659 L 8854,16582 8359,16860 8364,15659 8854,15659 Z M 8364,15642 L 8372,13726 8854,13448 8854,15642 8364,15642 Z"/>
     <path fill="rgb(83,83,83)" stroke="none" d="M 8854,15642 L 8854,16582 8359,16860 8364,15642 8854,15642 Z M 8364,15625 L 8372,13726 8854,13448 8854,15625 8364,15625 Z"/>
     <path fill="rgb(84,84,84)" stroke="none" d="M 8854,15625 L 8854,16582 8359,16860 8364,15625 8854,15625 Z M 8364,15608 L 8372,13726 8854,13448 8854,15608 8364,15608 Z"/>
     <path fill="rgb(85,85,85)" stroke="none" d="M 8854,15608 L 8854,16582 8359,16860 8364,15608 8854,15608 Z M 8364,15592 L 8372,13726 8854,13448 8854,15592 8364,15592 Z"/>
     <path fill="rgb(86,86,86)" stroke="none" d="M 8854,15592 L 8854,16582 8359,16860 8364,15592 8854,15592 Z M 8364,15575 L 8372,13726 8854,13448 8854,15575 8364,15575 Z"/>
     <path fill="rgb(87,87,87)" stroke="none" d="M 8854,15575 L 8854,16582 8359,16860 8364,15575 8854,15575 Z M 8364,15558 L 8372,13726 8854,13448 8854,15558 8364,15558 Z"/>
     <path fill="rgb(88,88,88)" stroke="none" d="M 8854,15558 L 8854,16582 8359,16860 8364,15558 8854,15558 Z M 8364,15541 L 8372,13726 8854,13448 8854,15541 8364,15541 Z"/>
     <path fill="rgb(89,89,89)" stroke="none" d="M 8854,15541 L 8854,16582 8359,16860 8364,15541 8854,15541 Z M 8365,15525 L 8372,13726 8854,13448 8854,15525 8365,15525 Z"/>
     <path fill="rgb(90,90,90)" stroke="none" d="M 8854,15525 L 8854,16582 8359,16860 8365,15525 8854,15525 Z M 8365,15508 L 8372,13726 8854,13448 8854,15508 8365,15508 Z"/>
     <path fill="rgb(91,91,91)" stroke="none" d="M 8854,15508 L 8854,16582 8359,16860 8365,15508 8854,15508 Z M 8854,13450 L 8854,15491 8365,15491 8372,13726 8851,13450 8854,13450 Z"/>
     <path fill="rgb(92,92,92)" stroke="none" d="M 8854,15491 L 8854,16582 8359,16860 8365,15491 8854,15491 Z M 8851,13450 L 8854,13448 8854,13450 8851,13450 Z M 8854,13467 L 8854,15474 8365,15474 8372,13726 8821,13467 8854,13467 Z"/>
     <path fill="rgb(93,93,93)" stroke="none" d="M 8854,15474 L 8854,16582 8359,16860 8365,15474 8854,15474 Z M 8821,13467 L 8854,13448 8854,13467 8821,13467 Z M 8854,13483 L 8854,15458 8365,15458 8372,13726 8793,13483 8854,13483 Z"/>
     <path fill="rgb(94,94,94)" stroke="none" d="M 8854,15458 L 8854,16582 8359,16860 8365,15458 8854,15458 Z M 8793,13483 L 8854,13448 8854,13483 8793,13483 Z M 8854,13500 L 8854,15441 8365,15441 8372,13726 8764,13500 8854,13500 Z"/>
     <path fill="rgb(95,95,95)" stroke="none" d="M 8854,15441 L 8854,16582 8359,16860 8365,15441 8854,15441 Z M 8764,13500 L 8854,13448 8854,13500 8764,13500 Z M 8854,13517 L 8854,15424 8365,15424 8372,13726 8734,13517 8854,13517 Z"/>
     <path fill="rgb(96,96,96)" stroke="none" d="M 8854,15424 L 8854,16582 8359,16860 8365,15424 8854,15424 Z M 8734,13517 L 8854,13448 8854,13517 8734,13517 Z M 8854,13534 L 8854,15407 8365,15407 8372,13726 8705,13534 8854,13534 Z"/>
     <path fill="rgb(97,97,97)" stroke="none" d="M 8854,15407 L 8854,16582 8359,16860 8365,15407 8854,15407 Z M 8705,13534 L 8854,13448 8854,13534 8705,13534 Z M 8854,13550 L 8854,15391 8365,15391 8372,13726 8677,13550 8854,13550 Z"/>
     <path fill="rgb(98,98,98)" stroke="none" d="M 8854,15391 L 8854,16582 8359,16860 8365,15391 8854,15391 Z M 8677,13550 L 8854,13448 8854,13550 8677,13550 Z M 8854,13567 L 8854,15374 8365,15374 8372,13726 8648,13567 8854,13567 Z"/>
     <path fill="rgb(99,99,99)" stroke="none" d="M 8854,15374 L 8854,16582 8359,16860 8365,15374 8854,15374 Z M 8648,13567 L 8854,13448 8854,13567 8648,13567 Z M 8854,13584 L 8854,15357 8365,15357 8372,13726 8618,13584 8854,13584 Z"/>
     <path fill="rgb(100,100,100)" stroke="none" d="M 8854,15357 L 8854,16582 8359,16860 8365,15357 8854,15357 Z M 8618,13584 L 8854,13448 8854,13584 8618,13584 Z M 8854,13601 L 8854,15340 8365,15340 8372,13726 8589,13601 8854,13601 Z"/>
     <path fill="rgb(101,101,101)" stroke="none" d="M 8854,15340 L 8854,16582 8359,16860 8365,15340 8854,15340 Z M 8589,13601 L 8854,13448 8854,13601 8589,13601 Z M 8854,13617 L 8854,15324 8365,15324 8372,13726 8561,13617 8854,13617 Z"/>
     <path fill="rgb(102,102,102)" stroke="none" d="M 8854,15324 L 8854,16582 8359,16860 8365,15324 8854,15324 Z M 8561,13617 L 8854,13448 8854,13617 8561,13617 Z M 8854,13634 L 8854,15307 8365,15307 8372,13726 8532,13634 8854,13634 Z"/>
     <path fill="rgb(103,103,103)" stroke="none" d="M 8854,15307 L 8854,16582 8359,16860 8365,15307 8854,15307 Z M 8532,13634 L 8854,13448 8854,13634 8532,13634 Z M 8854,13651 L 8854,15290 8366,15290 8372,13726 8502,13651 8854,13651 Z"/>
     <path fill="rgb(104,104,104)" stroke="none" d="M 8854,15290 L 8854,16582 8359,16860 8366,15290 8854,15290 Z M 8502,13651 L 8854,13448 8854,13651 8502,13651 Z M 8854,13667 L 8854,15274 8366,15274 8372,13726 8474,13667 8854,13667 Z"/>
     <path fill="rgb(105,105,105)" stroke="none" d="M 8854,15274 L 8854,16582 8359,16860 8366,15274 8854,15274 Z M 8474,13667 L 8854,13448 8854,13667 8474,13667 Z M 8854,13684 L 8854,15257 8366,15257 8372,13726 8445,13684 8854,13684 Z"/>
     <path fill="rgb(106,106,106)" stroke="none" d="M 8854,15257 L 8854,16582 8359,16860 8366,15257 8854,15257 Z M 8445,13684 L 8854,13448 8854,13684 8445,13684 Z M 8854,13701 L 8854,15240 8366,15240 8372,13726 8415,13701 8854,13701 Z"/>
     <path fill="rgb(107,107,107)" stroke="none" d="M 8854,15240 L 8854,16582 8359,16860 8366,15240 8854,15240 Z M 8415,13701 L 8854,13448 8854,13701 8415,13701 Z M 8854,13718 L 8854,15223 8366,15223 8372,13726 8386,13718 8854,13718 Z"/>
     <path fill="rgb(108,108,108)" stroke="none" d="M 8854,15223 L 8854,16582 8359,16860 8366,15223 8854,15223 Z M 8386,13718 L 8854,13448 8854,13718 8386,13718 Z M 8854,13734 L 8854,15207 8366,15207 8372,13734 8854,13734 Z"/>
     <path fill="rgb(109,109,109)" stroke="none" d="M 8854,15207 L 8854,16582 8359,16860 8366,15207 8854,15207 Z M 8372,13734 L 8372,13726 8854,13448 8854,13734 8372,13734 Z M 8854,13751 L 8854,15190 8366,15190 8372,13751 8854,13751 Z"/>
     <path fill="rgb(110,110,110)" stroke="none" d="M 8854,15190 L 8854,16582 8359,16860 8366,15190 8854,15190 Z M 8372,13751 L 8372,13726 8854,13448 8854,13751 8372,13751 Z M 8854,13768 L 8854,15173 8366,15173 8372,13768 8854,13768 Z"/>
     <path fill="rgb(111,111,111)" stroke="none" d="M 8854,15173 L 8854,16582 8359,16860 8366,15173 8854,15173 Z M 8372,13768 L 8372,13726 8854,13448 8854,13768 8372,13768 Z M 8854,13785 L 8854,15156 8366,15156 8372,13785 8854,13785 Z"/>
     <path fill="rgb(112,112,112)" stroke="none" d="M 8854,15156 L 8854,16582 8359,16860 8366,15156 8854,15156 Z M 8372,13785 L 8372,13726 8854,13448 8854,13785 8372,13785 Z M 8854,13801 L 8854,15140 8366,15140 8372,13801 8854,13801 Z"/>
     <path fill="rgb(113,113,113)" stroke="none" d="M 8854,15140 L 8854,16582 8359,16860 8366,15140 8854,15140 Z M 8372,13801 L 8372,13726 8854,13448 8854,13801 8372,13801 Z M 8854,13818 L 8854,15123 8366,15123 8372,13818 8854,13818 Z"/>
     <path fill="rgb(114,114,114)" stroke="none" d="M 8854,15123 L 8854,16582 8359,16860 8366,15123 8854,15123 Z M 8372,13818 L 8372,13726 8854,13448 8854,13818 8372,13818 Z M 8854,13835 L 8854,15106 8366,15106 8372,13835 8854,13835 Z"/>
     <path fill="rgb(115,115,115)" stroke="none" d="M 8854,15106 L 8854,16582 8359,16860 8366,15106 8854,15106 Z M 8372,13835 L 8372,13726 8854,13448 8854,13835 8372,13835 Z M 8854,13852 L 8854,15089 8366,15089 8371,13852 8854,13852 Z"/>
     <path fill="rgb(116,116,116)" stroke="none" d="M 8854,15089 L 8854,16582 8359,16860 8366,15089 8854,15089 Z M 8371,13852 L 8372,13726 8854,13448 8854,13852 8371,13852 Z M 8854,13868 L 8854,15073 8366,15073 8371,13868 8854,13868 Z"/>
     <path fill="rgb(117,117,117)" stroke="none" d="M 8854,15073 L 8854,16582 8359,16860 8366,15073 8854,15073 Z M 8371,13868 L 8372,13726 8854,13448 8854,13868 8371,13868 Z M 8854,13885 L 8854,15056 8366,15056 8371,13885 8854,13885 Z"/>
     <path fill="rgb(118,118,118)" stroke="none" d="M 8854,15056 L 8854,16582 8359,16860 8366,15056 8854,15056 Z M 8371,13885 L 8372,13726 8854,13448 8854,13885 8371,13885 Z M 8854,13902 L 8854,15039 8367,15039 8371,13902 8854,13902 Z"/>
     <path fill="rgb(119,119,119)" stroke="none" d="M 8854,15039 L 8854,16582 8359,16860 8367,15039 8854,15039 Z M 8371,13902 L 8372,13726 8854,13448 8854,13902 8371,13902 Z M 8854,13919 L 8854,15022 8367,15022 8371,13919 8854,13919 Z"/>
     <path fill="rgb(120,120,120)" stroke="none" d="M 8854,15022 L 8854,16582 8359,16860 8367,15022 8854,15022 Z M 8371,13919 L 8372,13726 8854,13448 8854,13919 8371,13919 Z M 8854,13935 L 8854,15006 8367,15006 8371,13935 8854,13935 Z"/>
     <path fill="rgb(121,121,121)" stroke="none" d="M 8854,15006 L 8854,16582 8359,16860 8367,15006 8854,15006 Z M 8371,13935 L 8372,13726 8854,13448 8854,13935 8371,13935 Z M 8854,13952 L 8854,14989 8367,14989 8371,13952 8854,13952 Z"/>
     <path fill="rgb(122,122,122)" stroke="none" d="M 8854,14989 L 8854,16582 8359,16860 8367,14989 8854,14989 Z M 8371,13952 L 8372,13726 8854,13448 8854,13952 8371,13952 Z M 8854,13969 L 8854,14972 8367,14972 8371,13969 8854,13969 Z"/>
     <path fill="rgb(123,123,123)" stroke="none" d="M 8854,14972 L 8854,16582 8359,16860 8367,14972 8854,14972 Z M 8371,13969 L 8372,13726 8854,13448 8854,13969 8371,13969 Z M 8854,13986 L 8854,14955 8367,14955 8371,13986 8854,13986 Z"/>
     <path fill="rgb(124,124,124)" stroke="none" d="M 8854,14955 L 8854,16582 8359,16860 8367,14955 8854,14955 Z M 8371,13986 L 8372,13726 8854,13448 8854,13986 8371,13986 Z M 8854,14002 L 8854,14939 8367,14939 8371,14002 8854,14002 Z"/>
     <path fill="rgb(125,125,125)" stroke="none" d="M 8854,14939 L 8854,16582 8359,16860 8367,14939 8854,14939 Z M 8371,14002 L 8372,13726 8854,13448 8854,14002 8371,14002 Z M 8854,14019 L 8854,14922 8367,14922 8371,14019 8854,14019 Z"/>
     <path fill="rgb(126,126,126)" stroke="none" d="M 8854,14922 L 8854,16582 8359,16860 8367,14922 8854,14922 Z M 8371,14019 L 8372,13726 8854,13448 8854,14019 8371,14019 Z M 8854,14036 L 8854,14905 8367,14905 8371,14036 8854,14036 Z"/>
     <path fill="rgb(127,127,127)" stroke="none" d="M 8854,14905 L 8854,16582 8359,16860 8367,14905 8854,14905 Z M 8371,14036 L 8372,13726 8854,13448 8854,14036 8371,14036 Z M 8854,14052 L 8854,14889 8367,14889 8371,14052 8854,14052 Z"/>
     <path fill="rgb(128,128,128)" stroke="none" d="M 8854,14889 L 8854,16582 8359,16860 8367,14889 8854,14889 Z M 8371,14052 L 8372,13726 8854,13448 8854,14052 8371,14052 Z M 8854,14069 L 8854,14872 8367,14872 8371,14069 8854,14069 Z"/>
     <path fill="rgb(129,129,129)" stroke="none" d="M 8854,14872 L 8854,16582 8359,16860 8367,14872 8854,14872 Z M 8371,14069 L 8372,13726 8854,13448 8854,14069 8371,14069 Z M 8854,14086 L 8854,14855 8367,14855 8371,14086 8854,14086 Z"/>
     <path fill="rgb(130,130,130)" stroke="none" d="M 8854,14855 L 8854,16582 8359,16860 8367,14855 8854,14855 Z M 8371,14086 L 8372,13726 8854,13448 8854,14086 8371,14086 Z M 8854,14103 L 8854,14838 8367,14838 8370,14103 8854,14103 Z"/>
     <path fill="rgb(131,131,131)" stroke="none" d="M 8854,14838 L 8854,16582 8359,16860 8367,14838 8854,14838 Z M 8370,14103 L 8372,13726 8854,13448 8854,14103 8370,14103 Z M 8854,14119 L 8854,14822 8367,14822 8370,14119 8854,14119 Z"/>
     <path fill="rgb(132,132,132)" stroke="none" d="M 8854,14822 L 8854,16582 8359,16860 8367,14822 8854,14822 Z M 8370,14119 L 8372,13726 8854,13448 8854,14119 8370,14119 Z M 8841,14136 L 8841,14805 8368,14805 8370,14136 8841,14136 Z"/>
     <path fill="rgb(133,133,133)" stroke="none" d="M 8841,14805 L 8841,14136 8370,14136 8372,13726 8854,13448 8854,16582 8359,16860 8368,14805 8841,14805 Z M 8824,14153 L 8824,14788 8368,14788 8370,14153 8824,14153 Z"/>
     <path fill="rgb(134,134,134)" stroke="none" d="M 8824,14788 L 8824,14153 8370,14153 8372,13726 8854,13448 8854,16582 8359,16860 8368,14788 8824,14788 Z M 8807,14170 L 8807,14771 8368,14771 8370,14170 8807,14170 Z"/>
     <path fill="rgb(135,135,135)" stroke="none" d="M 8807,14771 L 8807,14170 8370,14170 8372,13726 8854,13448 8854,16582 8359,16860 8368,14771 8807,14771 Z M 8791,14186 L 8791,14755 8368,14755 8370,14186 8791,14186 Z"/>
     <path fill="rgb(136,136,136)" stroke="none" d="M 8791,14755 L 8791,14186 8370,14186 8372,13726 8854,13448 8854,16582 8359,16860 8368,14755 8791,14755 Z M 8774,14203 L 8774,14738 8368,14738 8370,14203 8774,14203 Z"/>
     <path fill="rgb(137,137,137)" stroke="none" d="M 8774,14738 L 8774,14203 8370,14203 8372,13726 8854,13448 8854,16582 8359,16860 8368,14738 8774,14738 Z M 8757,14220 L 8757,14721 8368,14721 8370,14220 8757,14220 Z"/>
     <path fill="rgb(138,138,138)" stroke="none" d="M 8757,14721 L 8757,14220 8370,14220 8372,13726 8854,13448 8854,16582 8359,16860 8368,14721 8757,14721 Z M 8740,14237 L 8740,14704 8368,14704 8370,14237 8740,14237 Z"/>
     <path fill="rgb(139,139,139)" stroke="none" d="M 8740,14704 L 8740,14237 8370,14237 8372,13726 8854,13448 8854,16582 8359,16860 8368,14704 8740,14704 Z M 8724,14253 L 8724,14688 8368,14688 8370,14253 8724,14253 Z"/>
     <path fill="rgb(140,140,140)" stroke="none" d="M 8724,14688 L 8724,14253 8370,14253 8372,13726 8854,13448 8854,16582 8359,16860 8368,14688 8724,14688 Z M 8707,14270 L 8707,14671 8368,14671 8370,14270 8707,14270 Z"/>
     <path fill="rgb(141,141,141)" stroke="none" d="M 8707,14671 L 8707,14270 8370,14270 8372,13726 8854,13448 8854,16582 8359,16860 8368,14671 8707,14671 Z M 8690,14287 L 8690,14654 8368,14654 8370,14287 8690,14287 Z"/>
     <path fill="rgb(142,142,142)" stroke="none" d="M 8690,14654 L 8690,14287 8370,14287 8372,13726 8854,13448 8854,16582 8359,16860 8368,14654 8690,14654 Z M 8673,14304 L 8673,14637 8368,14637 8370,14304 8673,14304 Z"/>
     <path fill="rgb(143,143,143)" stroke="none" d="M 8673,14637 L 8673,14304 8370,14304 8372,13726 8854,13448 8854,16582 8359,16860 8368,14637 8673,14637 Z M 8657,14320 L 8657,14621 8368,14621 8370,14320 8657,14320 Z"/>
     <path fill="rgb(144,144,144)" stroke="none" d="M 8657,14621 L 8657,14320 8370,14320 8372,13726 8854,13448 8854,16582 8359,16860 8368,14621 8657,14621 Z M 8373,14337 L 8640,14337 8640,14604 8373,14604 8373,14337 Z"/>
     <path fill="rgb(145,145,145)" stroke="none" d="M 8373,14337 L 8373,14604 8640,14604 8640,14337 8373,14337 Z M 8390,14354 L 8623,14354 8623,14587 8390,14587 8390,14354 Z M 8359,16860 L 8372,13726 8854,13448 8854,16582 8359,16860 Z"/>
     <path fill="rgb(146,146,146)" stroke="none" d="M 8390,14354 L 8390,14587 8623,14587 8623,14354 8390,14354 Z M 8407,14371 L 8606,14371 8606,14570 8407,14570 8407,14371 Z M 8359,16860 L 8372,13726 8854,13448 8854,16582 8359,16860 Z"/>
     <path fill="rgb(147,147,147)" stroke="none" d="M 8407,14371 L 8407,14570 8606,14570 8606,14371 8407,14371 Z M 8423,14387 L 8590,14387 8590,14554 8423,14554 8423,14387 Z M 8359,16860 L 8372,13726 8854,13448 8854,16582 8359,16860 Z"/>
     <path fill="rgb(148,148,148)" stroke="none" d="M 8423,14387 L 8423,14554 8590,14554 8590,14387 8423,14387 Z M 8440,14404 L 8573,14404 8573,14537 8440,14537 8440,14404 Z M 8359,16860 L 8372,13726 8854,13448 8854,16582 8359,16860 Z"/>
     <path fill="rgb(149,149,149)" stroke="none" d="M 8440,14404 L 8440,14537 8573,14537 8573,14404 8440,14404 Z M 8457,14421 L 8556,14421 8556,14520 8457,14520 8457,14421 Z M 8359,16860 L 8372,13726 8854,13448 8854,16582 8359,16860 Z"/>
     <path fill="rgb(150,150,150)" stroke="none" d="M 8457,14421 L 8457,14520 8556,14520 8556,14421 8457,14421 Z M 8474,14438 L 8539,14438 8539,14503 8474,14503 8474,14438 Z M 8359,16860 L 8372,13726 8854,13448 8854,16582 8359,16860 Z"/>
     <path fill="rgb(151,151,151)" stroke="none" d="M 8474,14438 L 8474,14503 8539,14503 8539,14438 8474,14438 Z M 8490,14454 L 8523,14454 8523,14487 8490,14487 8490,14454 Z M 8359,16860 L 8372,13726 8854,13448 8854,16582 8359,16860 Z"/>
     <path fill="rgb(153,153,153)" stroke="none" d="M 8490,14454 L 8490,14487 8523,14487 8523,14454 8490,14454 Z M 8359,16860 L 8372,13726 8854,13448 8854,16582 8359,16860 Z"/>
     <path fill="none" stroke="rgb(178,178,178)" id="Drawing_5_0" stroke-width="40" stroke-linejoin="round" d="M 8359,16860 L 8372,13726 8854,13448 8854,16582 8359,16860 Z"/>
    </g>
    <g>
     <defs>
      <linearGradient id="Gradient_714" gradientUnits="userSpaceOnUse" x1="6803" y1="11359" x2="6803" y2="13727">
       <stop offset="0.1" stop-color="rgb(51,51,51)"/>
       <stop offset="1" stop-color="rgb(153,153,153)"/>
      </linearGradient>
     </defs>
     <path fill="url(#Gradient_714)" stroke="rgb(178,178,178)" id="Drawing_6_0" stroke-width="40" stroke-linejoin="round" d="M 8370,13727 L 4755,11637 5237,11359 8852,13448 8370,13727 Z"/>
    </g>
    <g>
     <defs>
      <linearGradient id="Gradient_715" gradientUnits="userSpaceOnUse" x1="6382" y1="11359" x2="6382" y2="13657">
       <stop offset="0.1" stop-color="rgb(51,51,51)"/>
       <stop offset="1" stop-color="rgb(153,153,153)"/>
      </linearGradient>
     </defs>
     <path fill="url(#Gradient_715)" stroke="rgb(178,178,178)" id="Drawing_7_0" stroke-width="40" stroke-linejoin="round" d="M 8250,13657 L 4394,11428 4514,11359 8371,13587 8250,13657 Z"/>
    </g>
    <g>
     <path fill="rgb(51,51,51)" stroke="none" d="M 8241,16411 L 8251,13656 8371,13587 8371,16411 8241,16411 Z"/>
     <path fill="rgb(52,52,52)" stroke="none" d="M 8371,16411 L 8371,17069 8238,17139 8241,16411 8371,16411 Z M 8241,16394 L 8251,13656 8371,13587 8371,16394 8241,16394 Z"/>
     <path fill="rgb(53,53,53)" stroke="none" d="M 8371,16394 L 8371,17069 8238,17139 8241,16394 8371,16394 Z M 8241,16376 L 8251,13656 8371,13587 8371,16376 8241,16376 Z"/>
     <path fill="rgb(54,54,54)" stroke="none" d="M 8371,16376 L 8371,17069 8238,17139 8241,16376 8371,16376 Z M 8241,16359 L 8251,13656 8371,13587 8371,16359 8241,16359 Z"/>
     <path fill="rgb(55,55,55)" stroke="none" d="M 8371,16359 L 8371,17069 8238,17139 8241,16359 8371,16359 Z M 8241,16341 L 8251,13656 8371,13587 8371,16341 8241,16341 Z"/>
     <path fill="rgb(56,56,56)" stroke="none" d="M 8371,16341 L 8371,17069 8238,17139 8241,16341 8371,16341 Z M 8241,16324 L 8251,13656 8371,13587 8371,16324 8241,16324 Z"/>
     <path fill="rgb(57,57,57)" stroke="none" d="M 8371,16324 L 8371,17069 8238,17139 8241,16324 8371,16324 Z M 8241,16307 L 8251,13656 8371,13587 8371,16307 8241,16307 Z"/>
     <path fill="rgb(58,58,58)" stroke="none" d="M 8371,16307 L 8371,17069 8238,17139 8241,16307 8371,16307 Z M 8241,16289 L 8251,13656 8371,13587 8371,16289 8241,16289 Z"/>
     <path fill="rgb(59,59,59)" stroke="none" d="M 8371,16289 L 8371,17069 8238,17139 8241,16289 8371,16289 Z M 8241,16272 L 8251,13656 8371,13587 8371,16272 8241,16272 Z"/>
     <path fill="rgb(60,60,60)" stroke="none" d="M 8371,16272 L 8371,17069 8238,17139 8241,16272 8371,16272 Z M 8241,16254 L 8251,13656 8371,13587 8371,16254 8241,16254 Z"/>
     <path fill="rgb(61,61,61)" stroke="none" d="M 8371,16254 L 8371,17069 8238,17139 8241,16254 8371,16254 Z M 8241,16237 L 8251,13656 8371,13587 8371,16237 8241,16237 Z"/>
     <path fill="rgb(62,62,62)" stroke="none" d="M 8371,16237 L 8371,17069 8238,17139 8241,16237 8371,16237 Z M 8241,16219 L 8251,13656 8371,13587 8371,16219 8241,16219 Z"/>
     <path fill="rgb(63,63,63)" stroke="none" d="M 8371,16219 L 8371,17069 8238,17139 8241,16219 8371,16219 Z M 8241,16202 L 8251,13656 8371,13587 8371,16202 8241,16202 Z"/>
     <path fill="rgb(64,64,64)" stroke="none" d="M 8371,16202 L 8371,17069 8238,17139 8241,16202 8371,16202 Z M 8242,16185 L 8251,13656 8371,13587 8371,16185 8242,16185 Z"/>
     <path fill="rgb(65,65,65)" stroke="none" d="M 8371,16185 L 8371,17069 8238,17139 8242,16185 8371,16185 Z M 8242,16167 L 8251,13656 8371,13587 8371,16167 8242,16167 Z"/>
     <path fill="rgb(66,66,66)" stroke="none" d="M 8371,16167 L 8371,17069 8238,17139 8242,16167 8371,16167 Z M 8242,16150 L 8251,13656 8371,13587 8371,16150 8242,16150 Z"/>
     <path fill="rgb(67,67,67)" stroke="none" d="M 8371,16150 L 8371,17069 8238,17139 8242,16150 8371,16150 Z M 8242,16132 L 8251,13656 8371,13587 8371,16132 8242,16132 Z"/>
     <path fill="rgb(68,68,68)" stroke="none" d="M 8371,16132 L 8371,17069 8238,17139 8242,16132 8371,16132 Z M 8242,16115 L 8251,13656 8371,13587 8371,16115 8242,16115 Z"/>
     <path fill="rgb(69,69,69)" stroke="none" d="M 8371,16115 L 8371,17069 8238,17139 8242,16115 8371,16115 Z M 8242,16097 L 8251,13656 8371,13587 8371,16097 8242,16097 Z"/>
     <path fill="rgb(70,70,70)" stroke="none" d="M 8371,16097 L 8371,17069 8238,17139 8242,16097 8371,16097 Z M 8242,16080 L 8251,13656 8371,13587 8371,16080 8242,16080 Z"/>
     <path fill="rgb(71,71,71)" stroke="none" d="M 8371,16080 L 8371,17069 8238,17139 8242,16080 8371,16080 Z M 8242,16063 L 8251,13656 8371,13587 8371,16063 8242,16063 Z"/>
     <path fill="rgb(72,72,72)" stroke="none" d="M 8371,16063 L 8371,17069 8238,17139 8242,16063 8371,16063 Z M 8242,16045 L 8251,13656 8371,13587 8371,16045 8242,16045 Z"/>
     <path fill="rgb(73,73,73)" stroke="none" d="M 8371,16045 L 8371,17069 8238,17139 8242,16045 8371,16045 Z M 8242,16028 L 8251,13656 8371,13587 8371,16028 8242,16028 Z"/>
     <path fill="rgb(74,74,74)" stroke="none" d="M 8371,16028 L 8371,17069 8238,17139 8242,16028 8371,16028 Z M 8242,16010 L 8251,13656 8371,13587 8371,16010 8242,16010 Z"/>
     <path fill="rgb(75,75,75)" stroke="none" d="M 8371,16010 L 8371,17069 8238,17139 8242,16010 8371,16010 Z M 8242,15993 L 8251,13656 8371,13587 8371,15993 8242,15993 Z"/>
     <path fill="rgb(76,76,76)" stroke="none" d="M 8371,15993 L 8371,17069 8238,17139 8242,15993 8371,15993 Z M 8242,15975 L 8251,13656 8371,13587 8371,15975 8242,15975 Z"/>
     <path fill="rgb(77,77,77)" stroke="none" d="M 8371,15975 L 8371,17069 8238,17139 8242,15975 8371,15975 Z M 8242,15958 L 8251,13656 8371,13587 8371,15958 8242,15958 Z"/>
     <path fill="rgb(78,78,78)" stroke="none" d="M 8371,15958 L 8371,17069 8238,17139 8242,15958 8371,15958 Z M 8242,15941 L 8251,13656 8371,13587 8371,15941 8242,15941 Z"/>
     <path fill="rgb(79,79,79)" stroke="none" d="M 8371,15941 L 8371,17069 8238,17139 8242,15941 8371,15941 Z M 8243,15923 L 8251,13656 8371,13587 8371,15923 8243,15923 Z"/>
     <path fill="rgb(80,80,80)" stroke="none" d="M 8371,15923 L 8371,17069 8238,17139 8243,15923 8371,15923 Z M 8243,15906 L 8251,13656 8371,13587 8371,15906 8243,15906 Z"/>
     <path fill="rgb(81,81,81)" stroke="none" d="M 8371,15906 L 8371,17069 8238,17139 8243,15906 8371,15906 Z M 8243,15888 L 8251,13656 8371,13587 8371,15888 8243,15888 Z"/>
     <path fill="rgb(82,82,82)" stroke="none" d="M 8371,15888 L 8371,17069 8238,17139 8243,15888 8371,15888 Z M 8243,15871 L 8251,13656 8371,13587 8371,15871 8243,15871 Z"/>
     <path fill="rgb(83,83,83)" stroke="none" d="M 8371,15871 L 8371,17069 8238,17139 8243,15871 8371,15871 Z M 8243,15853 L 8251,13656 8371,13587 8371,15853 8243,15853 Z"/>
     <path fill="rgb(84,84,84)" stroke="none" d="M 8371,15853 L 8371,17069 8238,17139 8243,15853 8371,15853 Z M 8243,15836 L 8251,13656 8371,13587 8371,15836 8243,15836 Z"/>
     <path fill="rgb(85,85,85)" stroke="none" d="M 8371,15836 L 8371,17069 8238,17139 8243,15836 8371,15836 Z M 8243,15819 L 8251,13656 8371,13587 8371,15819 8243,15819 Z"/>
     <path fill="rgb(86,86,86)" stroke="none" d="M 8371,15819 L 8371,17069 8238,17139 8243,15819 8371,15819 Z M 8243,15801 L 8251,13656 8371,13587 8371,15801 8243,15801 Z"/>
     <path fill="rgb(87,87,87)" stroke="none" d="M 8371,15801 L 8371,17069 8238,17139 8243,15801 8371,15801 Z M 8243,15784 L 8251,13656 8371,13587 8371,15784 8243,15784 Z"/>
     <path fill="rgb(88,88,88)" stroke="none" d="M 8371,15784 L 8371,17069 8238,17139 8243,15784 8371,15784 Z M 8243,15766 L 8251,13656 8371,13587 8371,15766 8243,15766 Z"/>
     <path fill="rgb(89,89,89)" stroke="none" d="M 8371,15766 L 8371,17069 8238,17139 8243,15766 8371,15766 Z M 8243,15749 L 8251,13656 8371,13587 8371,15749 8243,15749 Z"/>
     <path fill="rgb(90,90,90)" stroke="none" d="M 8371,15749 L 8371,17069 8238,17139 8243,15749 8371,15749 Z M 8243,15731 L 8251,13656 8371,13587 8371,15731 8243,15731 Z"/>
     <path fill="rgb(91,91,91)" stroke="none" d="M 8371,15731 L 8371,17069 8238,17139 8243,15731 8371,15731 Z M 8371,13589 L 8371,15714 8243,15714 8251,13656 8368,13589 8371,13589 Z"/>
     <path fill="rgb(92,92,92)" stroke="none" d="M 8371,15714 L 8371,17069 8238,17139 8243,15714 8371,15714 Z M 8368,13589 L 8371,13587 8371,13589 8368,13589 Z M 8371,13606 L 8371,15697 8243,15697 8251,13656 8338,13606 8371,13606 Z"/>
     <path fill="rgb(93,93,93)" stroke="none" d="M 8371,15697 L 8371,17069 8238,17139 8243,15697 8371,15697 Z M 8338,13606 L 8371,13587 8371,13606 8338,13606 Z M 8371,13624 L 8371,15679 8243,15679 8251,13656 8307,13624 8371,13624 Z"/>
     <path fill="rgb(94,94,94)" stroke="none" d="M 8371,15679 L 8371,17069 8238,17139 8243,15679 8371,15679 Z M 8307,13624 L 8371,13587 8371,13624 8307,13624 Z M 8371,13641 L 8371,15662 8244,15662 8251,13656 8277,13641 8371,13641 Z"/>
     <path fill="rgb(95,95,95)" stroke="none" d="M 8371,15662 L 8371,17069 8238,17139 8244,15662 8371,15662 Z M 8277,13641 L 8371,13587 8371,13641 8277,13641 Z M 8371,13659 L 8371,15644 8244,15644 8251,13659 8371,13659 Z"/>
     <path fill="rgb(96,96,96)" stroke="none" d="M 8371,15644 L 8371,17069 8238,17139 8244,15644 8371,15644 Z M 8251,13659 L 8251,13656 8371,13587 8371,13659 8251,13659 Z M 8371,13676 L 8371,15627 8244,15627 8251,13676 8371,13676 Z"/>
     <path fill="rgb(97,97,97)" stroke="none" d="M 8371,15627 L 8371,17069 8238,17139 8244,15627 8371,15627 Z M 8251,13676 L 8251,13656 8371,13587 8371,13676 8251,13676 Z M 8371,13694 L 8371,15609 8244,15609 8251,13694 8371,13694 Z"/>
     <path fill="rgb(98,98,98)" stroke="none" d="M 8371,15609 L 8371,17069 8238,17139 8244,15609 8371,15609 Z M 8251,13694 L 8251,13656 8371,13587 8371,13694 8251,13694 Z M 8371,13711 L 8371,15592 8244,15592 8251,13711 8371,13711 Z"/>
     <path fill="rgb(99,99,99)" stroke="none" d="M 8371,15592 L 8371,17069 8238,17139 8244,15592 8371,15592 Z M 8251,13711 L 8251,13656 8371,13587 8371,13711 8251,13711 Z M 8371,13728 L 8371,15575 8244,15575 8251,13728 8371,13728 Z"/>
     <path fill="rgb(100,100,100)" stroke="none" d="M 8371,15575 L 8371,17069 8238,17139 8244,15575 8371,15575 Z M 8251,13728 L 8251,13656 8371,13587 8371,13728 8251,13728 Z M 8371,13746 L 8371,15557 8244,15557 8251,13746 8371,13746 Z"/>
     <path fill="rgb(101,101,101)" stroke="none" d="M 8371,15557 L 8371,17069 8238,17139 8244,15557 8371,15557 Z M 8251,13746 L 8251,13656 8371,13587 8371,13746 8251,13746 Z M 8371,13763 L 8371,15540 8244,15540 8251,13763 8371,13763 Z"/>
     <path fill="rgb(102,102,102)" stroke="none" d="M 8371,15540 L 8371,17069 8238,17139 8244,15540 8371,15540 Z M 8251,13763 L 8251,13656 8371,13587 8371,13763 8251,13763 Z M 8371,13781 L 8371,15522 8244,15522 8251,13781 8371,13781 Z"/>
     <path fill="rgb(103,103,103)" stroke="none" d="M 8371,15522 L 8371,17069 8238,17139 8244,15522 8371,15522 Z M 8251,13781 L 8251,13656 8371,13587 8371,13781 8251,13781 Z M 8371,13798 L 8371,15505 8244,15505 8250,13798 8371,13798 Z"/>
     <path fill="rgb(104,104,104)" stroke="none" d="M 8371,15505 L 8371,17069 8238,17139 8244,15505 8371,15505 Z M 8250,13798 L 8251,13656 8371,13587 8371,13798 8250,13798 Z M 8371,13816 L 8371,15487 8244,15487 8250,13816 8371,13816 Z"/>
     <path fill="rgb(105,105,105)" stroke="none" d="M 8371,15487 L 8371,17069 8238,17139 8244,15487 8371,15487 Z M 8250,13816 L 8251,13656 8371,13587 8371,13816 8250,13816 Z M 8371,13833 L 8371,15470 8244,15470 8250,13833 8371,13833 Z"/>
     <path fill="rgb(106,106,106)" stroke="none" d="M 8371,15470 L 8371,17069 8238,17139 8244,15470 8371,15470 Z M 8250,13833 L 8251,13656 8371,13587 8371,13833 8250,13833 Z M 8371,13850 L 8371,15453 8244,15453 8250,13850 8371,13850 Z"/>
     <path fill="rgb(107,107,107)" stroke="none" d="M 8371,15453 L 8371,17069 8238,17139 8244,15453 8371,15453 Z M 8250,13850 L 8251,13656 8371,13587 8371,13850 8250,13850 Z M 8371,13868 L 8371,15435 8244,15435 8250,13868 8371,13868 Z"/>
     <path fill="rgb(108,108,108)" stroke="none" d="M 8371,15435 L 8371,17069 8238,17139 8244,15435 8371,15435 Z M 8250,13868 L 8251,13656 8371,13587 8371,13868 8250,13868 Z M 8371,13885 L 8371,15418 8244,15418 8250,13885 8371,13885 Z"/>
     <path fill="rgb(109,109,109)" stroke="none" d="M 8371,15418 L 8371,17069 8238,17139 8244,15418 8371,15418 Z M 8250,13885 L 8251,13656 8371,13587 8371,13885 8250,13885 Z M 8371,13903 L 8371,15400 8244,15400 8250,13903 8371,13903 Z"/>
     <path fill="rgb(110,110,110)" stroke="none" d="M 8371,15400 L 8371,17069 8238,17139 8244,15400 8371,15400 Z M 8250,13903 L 8251,13656 8371,13587 8371,13903 8250,13903 Z M 8371,13920 L 8371,15383 8245,15383 8250,13920 8371,13920 Z"/>
     <path fill="rgb(111,111,111)" stroke="none" d="M 8371,15383 L 8371,17069 8238,17139 8245,15383 8371,15383 Z M 8250,13920 L 8251,13656 8371,13587 8371,13920 8250,13920 Z M 8371,13938 L 8371,15365 8245,15365 8250,13938 8371,13938 Z"/>
     <path fill="rgb(112,112,112)" stroke="none" d="M 8371,15365 L 8371,17069 8238,17139 8245,15365 8371,15365 Z M 8250,13938 L 8251,13656 8371,13587 8371,13938 8250,13938 Z M 8371,13955 L 8371,15348 8245,15348 8250,13955 8371,13955 Z"/>
     <path fill="rgb(113,113,113)" stroke="none" d="M 8371,15348 L 8371,17069 8238,17139 8245,15348 8371,15348 Z M 8250,13955 L 8251,13656 8371,13587 8371,13955 8250,13955 Z M 8371,13972 L 8371,15331 8245,15331 8250,13972 8371,13972 Z"/>
     <path fill="rgb(114,114,114)" stroke="none" d="M 8371,15331 L 8371,17069 8238,17139 8245,15331 8371,15331 Z M 8250,13972 L 8251,13656 8371,13587 8371,13972 8250,13972 Z M 8371,13990 L 8371,15313 8245,15313 8250,13990 8371,13990 Z"/>
     <path fill="rgb(115,115,115)" stroke="none" d="M 8371,15313 L 8371,17069 8238,17139 8245,15313 8371,15313 Z M 8250,13990 L 8251,13656 8371,13587 8371,13990 8250,13990 Z M 8371,14007 L 8371,15296 8245,15296 8250,14007 8371,14007 Z"/>
     <path fill="rgb(116,116,116)" stroke="none" d="M 8371,15296 L 8371,17069 8238,17139 8245,15296 8371,15296 Z M 8250,14007 L 8251,13656 8371,13587 8371,14007 8250,14007 Z M 8371,14025 L 8371,15278 8245,15278 8250,14025 8371,14025 Z"/>
     <path fill="rgb(117,117,117)" stroke="none" d="M 8371,15278 L 8371,17069 8238,17139 8245,15278 8371,15278 Z M 8250,14025 L 8251,13656 8371,13587 8371,14025 8250,14025 Z M 8371,14042 L 8371,15261 8245,15261 8250,14042 8371,14042 Z"/>
     <path fill="rgb(118,118,118)" stroke="none" d="M 8371,15261 L 8371,17069 8238,17139 8245,15261 8371,15261 Z M 8250,14042 L 8251,13656 8371,13587 8371,14042 8250,14042 Z M 8371,14059 L 8371,15244 8245,15244 8249,14059 8371,14059 Z"/>
     <path fill="rgb(119,119,119)" stroke="none" d="M 8371,15244 L 8371,17069 8238,17139 8245,15244 8371,15244 Z M 8249,14059 L 8251,13656 8371,13587 8371,14059 8249,14059 Z M 8371,14077 L 8371,15226 8245,15226 8249,14077 8371,14077 Z"/>
     <path fill="rgb(120,120,120)" stroke="none" d="M 8371,15226 L 8371,17069 8238,17139 8245,15226 8371,15226 Z M 8249,14077 L 8251,13656 8371,13587 8371,14077 8249,14077 Z M 8371,14094 L 8371,15209 8245,15209 8249,14094 8371,14094 Z"/>
     <path fill="rgb(121,121,121)" stroke="none" d="M 8371,15209 L 8371,17069 8238,17139 8245,15209 8371,15209 Z M 8249,14094 L 8251,13656 8371,13587 8371,14094 8249,14094 Z M 8371,14112 L 8371,15191 8245,15191 8249,14112 8371,14112 Z"/>
     <path fill="rgb(122,122,122)" stroke="none" d="M 8371,15191 L 8371,17069 8238,17139 8245,15191 8371,15191 Z M 8249,14112 L 8251,13656 8371,13587 8371,14112 8249,14112 Z M 8371,14129 L 8371,15174 8245,15174 8249,14129 8371,14129 Z"/>
     <path fill="rgb(123,123,123)" stroke="none" d="M 8371,15174 L 8371,17069 8238,17139 8245,15174 8371,15174 Z M 8249,14129 L 8251,13656 8371,13587 8371,14129 8249,14129 Z M 8371,14147 L 8371,15156 8245,15156 8249,14147 8371,14147 Z"/>
     <path fill="rgb(124,124,124)" stroke="none" d="M 8371,15156 L 8371,17069 8238,17139 8245,15156 8371,15156 Z M 8249,14147 L 8251,13656 8371,13587 8371,14147 8249,14147 Z M 8371,14164 L 8371,15139 8245,15139 8249,14164 8371,14164 Z"/>
     <path fill="rgb(125,125,125)" stroke="none" d="M 8371,15139 L 8371,17069 8238,17139 8245,15139 8371,15139 Z M 8249,14164 L 8251,13656 8371,13587 8371,14164 8249,14164 Z M 8371,14181 L 8371,15122 8246,15122 8249,14181 8371,14181 Z"/>
     <path fill="rgb(126,126,126)" stroke="none" d="M 8371,15122 L 8371,17069 8238,17139 8246,15122 8371,15122 Z M 8249,14181 L 8251,13656 8371,13587 8371,14181 8249,14181 Z M 8371,14199 L 8371,15104 8246,15104 8249,14199 8371,14199 Z"/>
     <path fill="rgb(127,127,127)" stroke="none" d="M 8371,15104 L 8371,17069 8238,17139 8246,15104 8371,15104 Z M 8249,14199 L 8251,13656 8371,13587 8371,14199 8249,14199 Z M 8371,14216 L 8371,15087 8246,15087 8249,14216 8371,14216 Z"/>
     <path fill="rgb(128,128,128)" stroke="none" d="M 8371,15087 L 8371,17069 8238,17139 8246,15087 8371,15087 Z M 8249,14216 L 8251,13656 8371,13587 8371,14216 8249,14216 Z M 8371,14234 L 8371,15069 8246,15069 8249,14234 8371,14234 Z"/>
     <path fill="rgb(129,129,129)" stroke="none" d="M 8371,15069 L 8371,17069 8238,17139 8246,15069 8371,15069 Z M 8249,14234 L 8251,13656 8371,13587 8371,14234 8249,14234 Z M 8371,14251 L 8371,15052 8246,15052 8249,14251 8371,14251 Z"/>
     <path fill="rgb(130,130,130)" stroke="none" d="M 8371,15052 L 8371,17069 8238,17139 8246,15052 8371,15052 Z M 8249,14251 L 8251,13656 8371,13587 8371,14251 8249,14251 Z M 8371,14269 L 8371,15034 8246,15034 8249,14269 8371,14269 Z"/>
     <path fill="rgb(131,131,131)" stroke="none" d="M 8371,15034 L 8371,17069 8238,17139 8246,15034 8371,15034 Z M 8249,14269 L 8251,13656 8371,13587 8371,14269 8249,14269 Z M 8371,14286 L 8371,15017 8246,15017 8249,14286 8371,14286 Z"/>
     <path fill="rgb(132,132,132)" stroke="none" d="M 8371,15017 L 8371,17069 8238,17139 8246,15017 8371,15017 Z M 8249,14286 L 8251,13656 8371,13587 8371,14286 8249,14286 Z M 8371,14303 L 8371,15000 8246,15000 8249,14303 8371,14303 Z"/>
     <path fill="rgb(133,133,133)" stroke="none" d="M 8371,15000 L 8371,17069 8238,17139 8246,15000 8371,15000 Z M 8249,14303 L 8251,13656 8371,13587 8371,14303 8249,14303 Z M 8371,14321 L 8371,14982 8246,14982 8249,14321 8371,14321 Z"/>
     <path fill="rgb(134,134,134)" stroke="none" d="M 8371,14982 L 8371,17069 8238,17139 8246,14982 8371,14982 Z M 8249,14321 L 8251,13656 8371,13587 8371,14321 8249,14321 Z M 8371,14338 L 8371,14965 8246,14965 8248,14338 8371,14338 Z"/>
     <path fill="rgb(135,135,135)" stroke="none" d="M 8371,14965 L 8371,17069 8238,17139 8246,14965 8371,14965 Z M 8248,14338 L 8251,13656 8371,13587 8371,14338 8248,14338 Z M 8371,14356 L 8371,14947 8246,14947 8248,14356 8371,14356 Z"/>
     <path fill="rgb(136,136,136)" stroke="none" d="M 8371,14947 L 8371,17069 8238,17139 8246,14947 8371,14947 Z M 8248,14356 L 8251,13656 8371,13587 8371,14356 8248,14356 Z M 8371,14373 L 8371,14930 8246,14930 8248,14373 8371,14373 Z"/>
     <path fill="rgb(137,137,137)" stroke="none" d="M 8371,14930 L 8371,17069 8238,17139 8246,14930 8371,14930 Z M 8248,14373 L 8251,13656 8371,13587 8371,14373 8248,14373 Z M 8371,14391 L 8371,14912 8246,14912 8248,14391 8371,14391 Z"/>
     <path fill="rgb(138,138,138)" stroke="none" d="M 8371,14912 L 8371,17069 8238,17139 8246,14912 8371,14912 Z M 8248,14391 L 8251,13656 8371,13587 8371,14391 8248,14391 Z M 8371,14408 L 8371,14895 8246,14895 8248,14408 8371,14408 Z"/>
     <path fill="rgb(139,139,139)" stroke="none" d="M 8371,14895 L 8371,17069 8238,17139 8246,14895 8371,14895 Z M 8248,14408 L 8251,13656 8371,13587 8371,14408 8248,14408 Z M 8371,14425 L 8371,14878 8246,14878 8248,14425 8371,14425 Z"/>
     <path fill="rgb(140,140,140)" stroke="none" d="M 8371,14878 L 8371,17069 8238,17139 8246,14878 8371,14878 Z M 8248,14425 L 8251,13656 8371,13587 8371,14425 8248,14425 Z M 8371,14443 L 8371,14860 8247,14860 8248,14443 8371,14443 Z"/>
     <path fill="rgb(141,141,141)" stroke="none" d="M 8371,14860 L 8371,17069 8238,17139 8247,14860 8371,14860 Z M 8248,14443 L 8251,13656 8371,13587 8371,14443 8248,14443 Z M 8371,14460 L 8371,14843 8247,14843 8248,14460 8371,14460 Z"/>
     <path fill="rgb(142,142,142)" stroke="none" d="M 8371,14843 L 8371,17069 8238,17139 8247,14843 8371,14843 Z M 8248,14460 L 8251,13656 8371,13587 8371,14460 8248,14460 Z M 8371,14478 L 8371,14825 8247,14825 8248,14478 8371,14478 Z"/>
     <path fill="rgb(143,143,143)" stroke="none" d="M 8371,14825 L 8371,17069 8238,17139 8247,14825 8371,14825 Z M 8248,14478 L 8251,13656 8371,13587 8371,14478 8248,14478 Z M 8371,14495 L 8371,14808 8247,14808 8248,14495 8371,14495 Z"/>
     <path fill="rgb(144,144,144)" stroke="none" d="M 8371,14808 L 8371,17069 8238,17139 8247,14808 8371,14808 Z M 8248,14495 L 8251,13656 8371,13587 8371,14495 8248,14495 Z M 8371,14513 L 8371,14790 8247,14790 8248,14513 8371,14513 Z"/>
     <path fill="rgb(145,145,145)" stroke="none" d="M 8371,14790 L 8371,17069 8238,17139 8247,14790 8371,14790 Z M 8248,14513 L 8251,13656 8371,13587 8371,14513 8248,14513 Z M 8371,14530 L 8371,14773 8247,14773 8248,14530 8371,14530 Z"/>
     <path fill="rgb(146,146,146)" stroke="none" d="M 8371,14773 L 8371,17069 8238,17139 8247,14773 8371,14773 Z M 8248,14530 L 8251,13656 8371,13587 8371,14530 8248,14530 Z M 8371,14547 L 8371,14756 8247,14756 8248,14547 8371,14547 Z"/>
     <path fill="rgb(147,147,147)" stroke="none" d="M 8371,14756 L 8371,17069 8238,17139 8247,14756 8371,14756 Z M 8248,14547 L 8251,13656 8371,13587 8371,14547 8248,14547 Z M 8363,14565 L 8363,14738 8247,14738 8248,14565 8363,14565 Z"/>
     <path fill="rgb(148,148,148)" stroke="none" d="M 8363,14738 L 8363,14565 8248,14565 8251,13656 8371,13587 8371,17069 8238,17139 8247,14738 8363,14738 Z M 8346,14582 L 8346,14721 8247,14721 8248,14582 8346,14582 Z"/>
     <path fill="rgb(149,149,149)" stroke="none" d="M 8346,14721 L 8346,14582 8248,14582 8251,13656 8371,13587 8371,17069 8238,17139 8247,14721 8346,14721 Z M 8328,14600 L 8328,14703 8247,14703 8247,14600 8328,14600 Z"/>
     <path fill="rgb(150,150,150)" stroke="none" d="M 8328,14703 L 8328,14600 8247,14600 8251,13656 8371,13587 8371,17069 8238,17139 8247,14703 8328,14703 Z M 8311,14617 L 8311,14686 8247,14686 8247,14617 8311,14617 Z"/>
     <path fill="rgb(151,151,151)" stroke="none" d="M 8311,14686 L 8311,14617 8247,14617 8251,13656 8371,13587 8371,17069 8238,17139 8247,14686 8311,14686 Z M 8260,14635 L 8293,14635 8293,14668 8260,14668 8260,14635 Z"/>
     <path fill="rgb(153,153,153)" stroke="none" d="M 8260,14635 L 8260,14668 8293,14668 8293,14635 8260,14635 Z M 8238,17139 L 8251,13656 8371,13587 8371,17069 8238,17139 Z"/>
     <path fill="none" stroke="rgb(178,178,178)" id="Drawing_8_0" stroke-width="40" stroke-linejoin="round" d="M 8238,17139 L 8251,13656 8371,13587 8371,17069 8238,17139 Z"/>
    </g>
    <g>
     <path fill="none" stroke="rgb(102,102,102)" id="Drawing_9_0" stroke-width="40" stroke-linejoin="round" d="M 4996,11568 L 8491,13588"/>
    </g>
    <g>
     <path fill="none" stroke="rgb(102,102,102)" id="Drawing_10_0" stroke-width="40" stroke-linejoin="round" d="M 5237,11428 L 8732,13448"/>
    </g>
    <g>
     <path fill="none" stroke="rgb(102,102,102)" id="Drawing_11_0" stroke-width="40" stroke-linejoin="round" d="M 5117,11499 L 8612,13519"/>
    </g>
    <g>
     <path fill="rgb(102,102,102)" stroke="none" d="M 4635,14702 L 4635,14562 4876,14702 4876,14840 4635,14702 Z"/>
     <path fill="none" stroke="rgb(178,178,178)" id="Drawing_12_0" stroke-width="40" stroke-linejoin="round" d="M 4635,14702 L 4635,14562 4876,14702 4876,14840 4635,14702 Z"/>
    </g>
    <g>
     <path fill="rgb(102,102,102)" stroke="none" d="M 4996,14911 L 4996,14771 5237,14911 5237,15049 4996,14911 Z"/>
     <path fill="none" stroke="rgb(178,178,178)" id="Drawing_13_0" stroke-width="40" stroke-linejoin="round" d="M 4996,14911 L 4996,14771 5237,14911 5237,15049 4996,14911 Z"/>
    </g>
    <g>
     <path fill="rgb(102,102,102)" stroke="none" d="M 5358,15120 L 5358,14980 5599,15120 5599,15258 5358,15120 Z"/>
     <path fill="none" stroke="rgb(178,178,178)" id="Drawing_14_0" stroke-width="40" stroke-linejoin="round" d="M 5358,15120 L 5358,14980 5599,15120 5599,15258 5358,15120 Z"/>
    </g>
    <g>
     <path fill="rgb(102,102,102)" stroke="none" d="M 5719,15329 L 5719,15189 5960,15329 5960,15467 5719,15329 Z"/>
     <path fill="none" stroke="rgb(178,178,178)" id="Drawing_15_0" stroke-width="40" stroke-linejoin="round" d="M 5719,15329 L 5719,15189 5960,15329 5960,15467 5719,15329 Z"/>
    </g>
    <g>
     <path fill="rgb(102,102,102)" stroke="none" d="M 6082,15538 L 6082,15398 6323,15538 6323,15676 6082,15538 Z"/>
     <path fill="none" stroke="rgb(178,178,178)" id="Drawing_16_0" stroke-width="40" stroke-linejoin="round" d="M 6082,15538 L 6082,15398 6323,15538 6323,15676 6082,15538 Z"/>
    </g>
    <g>
     <path fill="rgb(102,102,102)" stroke="none" d="M 6443,15747 L 6443,15607 6684,15747 6684,15885 6443,15747 Z"/>
     <path fill="none" stroke="rgb(178,178,178)" id="Drawing_17_0" stroke-width="40" stroke-linejoin="round" d="M 6443,15747 L 6443,15607 6684,15747 6684,15885 6443,15747 Z"/>
    </g>
    <g>
     <path fill="rgb(102,102,102)" stroke="none" d="M 6804,15956 L 6804,15816 7045,15956 7045,16094 6804,15956 Z"/>
     <path fill="none" stroke="rgb(178,178,178)" id="Drawing_18_0" stroke-width="40" stroke-linejoin="round" d="M 6804,15956 L 6804,15816 7045,15956 7045,16094 6804,15956 Z"/>
    </g>
    <g>
     <path fill="rgb(178,178,178)" stroke="none" d="M 7407,16304 L 7407,16164 7648,16304 7648,16442 7407,16304 Z"/>
     <path fill="none" stroke="rgb(102,102,102)" id="Drawing_19_0" stroke-width="40" stroke-linejoin="round" d="M 7407,16304 L 7407,16164 7648,16304 7648,16442 7407,16304 Z"/>
    </g>
    <g>
     <path fill="rgb(178,178,178)" stroke="none" d="M 7889,13867 L 7889,13727 8130,13867 8130,14005 7889,13867 Z"/>
     <path fill="none" stroke="rgb(102,102,102)" id="Drawing_20_0" stroke-width="40" stroke-linejoin="round" d="M 7889,13867 L 7889,13727 8130,13867 8130,14005 7889,13867 Z"/>
    </g>
    <g>
     <path fill="rgb(178,178,178)" stroke="none" d="M 7889,14076 L 7889,13936 8130,14076 8130,14214 7889,14076 Z"/>
     <path fill="none" stroke="rgb(102,102,102)" id="Drawing_21_0" stroke-width="40" stroke-linejoin="round" d="M 7889,14076 L 7889,13936 8130,14076 8130,14214 7889,14076 Z"/>
    </g>
    <g>
     <path fill="rgb(178,178,178)" stroke="none" d="M 7889,14285 L 7889,14145 8130,14285 8130,14423 7889,14285 Z"/>
     <path fill="none" stroke="rgb(102,102,102)" id="Drawing_22_0" stroke-width="40" stroke-linejoin="round" d="M 7889,14285 L 7889,14145 8130,14285 8130,14423 7889,14285 Z"/>
    </g>
    <g>
     <path fill="rgb(178,178,178)" stroke="none" d="M 7889,14493 L 7889,14353 8130,14493 8130,14631 7889,14493 Z"/>
     <path fill="none" stroke="rgb(102,102,102)" id="Drawing_23_0" stroke-width="40" stroke-linejoin="round" d="M 7889,14493 L 7889,14353 8130,14493 8130,14631 7889,14493 Z"/>
    </g>
    <g>
     <path fill="rgb(178,178,178)" stroke="none" d="M 7889,14702 L 7889,14562 8130,14702 8130,14840 7889,14702 Z"/>
     <path fill="none" stroke="rgb(102,102,102)" id="Drawing_24_0" stroke-width="40" stroke-linejoin="round" d="M 7889,14702 L 7889,14562 8130,14702 8130,14840 7889,14702 Z"/>
    </g>
    <g>
     <path fill="rgb(178,178,178)" stroke="none" d="M 7889,14911 L 7889,14771 8130,14911 8130,15049 7889,14911 Z"/>
     <path fill="none" stroke="rgb(102,102,102)" id="Drawing_25_0" stroke-width="40" stroke-linejoin="round" d="M 7889,14911 L 7889,14771 8130,14911 8130,15049 7889,14911 Z"/>
    </g>
    <g>
     <path fill="rgb(178,178,178)" stroke="none" d="M 7889,15120 L 7889,14980 8130,15120 8130,15258 7889,15120 Z"/>
     <path fill="none" stroke="rgb(102,102,102)" id="Drawing_26_0" stroke-width="40" stroke-linejoin="round" d="M 7889,15120 L 7889,14980 8130,15120 8130,15258 7889,15120 Z"/>
    </g>
    <g>
     <path fill="rgb(178,178,178)" stroke="none" d="M 7889,15329 L 7889,15189 8130,15329 8130,15467 7889,15329 Z"/>
     <path fill="none" stroke="rgb(102,102,102)" id="Drawing_27_0" stroke-width="40" stroke-linejoin="round" d="M 7889,15329 L 7889,15189 8130,15329 8130,15467 7889,15329 Z"/>
    </g>
    <g>
     <path fill="rgb(178,178,178)" stroke="none" d="M 7889,15538 L 7889,15398 8130,15538 8130,15676 7889,15538 Z"/>
     <path fill="none" stroke="rgb(102,102,102)" id="Drawing_28_0" stroke-width="40" stroke-linejoin="round" d="M 7889,15538 L 7889,15398 8130,15538 8130,15676 7889,15538 Z"/>
    </g>
    <g>
     <path fill="rgb(127,127,127)" stroke="none" d="M 8009,16653 L 8009,16513 8129,16582 8129,16722 8009,16653 Z"/>
     <path fill="none" stroke="rgb(102,102,102)" id="Drawing_29_0" stroke-width="40" stroke-linejoin="round" d="M 8009,16653 L 8009,16513 8129,16582 8129,16722 8009,16653 Z"/>
    </g>
    <g>
     <path fill="rgb(178,178,178)" stroke="none" d="M 7889,15747 L 7889,15607 8130,15747 8130,15885 7889,15747 Z"/>
     <path fill="none" stroke="rgb(102,102,102)" id="Drawing_30_0" stroke-width="40" stroke-linejoin="round" d="M 7889,15747 L 7889,15607 8130,15747 8130,15885 7889,15747 Z"/>
    </g>
    <g>
     <path fill="rgb(178,178,178)" stroke="none" d="M 7889,15956 L 7889,15816 8130,15956 8130,16094 7889,15956 Z"/>
     <path fill="none" stroke="rgb(102,102,102)" id="Drawing_31_0" stroke-width="40" stroke-linejoin="round" d="M 7889,15956 L 7889,15816 8130,15956 8130,16094 7889,15956 Z"/>
    </g>
    <g>
     <path fill="rgb(178,178,178)" stroke="none" d="M 7889,16165 L 7889,16025 8130,16165 8130,16303 7889,16165 Z"/>
     <path fill="none" stroke="rgb(102,102,102)" id="Drawing_32_0" stroke-width="40" stroke-linejoin="round" d="M 7889,16165 L 7889,16025 8130,16165 8130,16303 7889,16165 Z"/>
    </g>
    <g>
     <path fill="rgb(178,178,178)" stroke="none" d="M 7889,16374 L 7889,16234 8130,16374 8130,16512 7889,16374 Z"/>
     <path fill="none" stroke="rgb(102,102,102)" id="Drawing_33_0" stroke-width="40" stroke-linejoin="round" d="M 7889,16374 L 7889,16234 8130,16374 8130,16512 7889,16374 Z"/>
    </g>
    <g>
     <path fill="none" stroke="rgb(0,0,0)" id="Drawing_34_0" stroke-width="40" stroke-linejoin="round" d="M 4514,11359 L 4876,11568 5237,11359 8854,13448 8854,16582 8371,16860 8371,17069 8238,17139 4394,14911 4394,11428 4514,11359 Z"/>
    </g>
    <g>
     <path fill="rgb(178,178,178)" stroke="none" d="M 7407,16582 L 7407,16442 7648,16582 7648,16720 7407,16582 Z"/>
     <path fill="none" stroke="rgb(102,102,102)" id="Drawing_35_0" stroke-width="40" stroke-linejoin="round" d="M 7407,16582 L 7407,16442 7648,16582 7648,16720 7407,16582 Z"/>
    </g>
    <g>
     <path fill="rgb(178,178,178)" stroke="none" d="M 7166,16304 L 7166,16164 7407,16304 7407,16442 7166,16304 Z"/>
     <path fill="none" stroke="rgb(102,102,102)" id="Drawing_36_0" stroke-width="40" stroke-linejoin="round" d="M 7166,16304 L 7166,16164 7407,16304 7407,16442 7166,16304 Z"/>
    </g>
    <g>
     <path fill="rgb(178,178,178)" stroke="none" d="M 7648,16582 L 7648,16442 7889,16582 7889,16720 7648,16582 Z"/>
     <path fill="none" stroke="rgb(102,102,102)" id="Drawing_37_0" stroke-width="40" stroke-linejoin="round" d="M 7648,16582 L 7648,16442 7889,16582 7889,16720 7648,16582 Z"/>
    </g>
    <g>
     <path fill="rgb(255,0,0)" stroke="none" d="M 8009,16861 L 8009,16721 8129,16790 8129,16930 8009,16861 Z"/>
     <path fill="none" stroke="rgb(102,102,102)" id="Drawing_38_0" stroke-width="40" stroke-linejoin="round" d="M 8009,16861 L 8009,16721 8129,16790 8129,16930 8009,16861 Z"/>
    </g>
   </g>
  </g>
 </g>
</svg>