<?xml version="1.0" encoding="UTF-8"?>

<svg version="1.2" baseProfile="tiny" width="31.71mm" height="33.9mm" viewBox="13222 2954 3171 3390" preserveAspectRatio="xMidYMid" fill-rule="evenodd" stroke-width="28.222" stroke-linejoin="round" xmlns="http://www.w3.org/2000/svg" xmlns:xlink="http://www.w3.org/1999/xlink" xml:space="preserve">
 <g visibility="visible" id="Slide_1">
  <g id="DrawingGroup_1">
   <g>
    <path fill="rgb(221,221,221)" stroke="none" d="M 15376,6324 C 15722,6324 16392,6105 16392,5887 16392,5669 16360,5523 16014,5523 16014,5741 15245,5596 15376,6324 Z"/>
    <path fill="none" stroke="rgb(221,221,221)" id="Drawing_1_0" stroke-linejoin="round" d="M 15376,6324 C 15722,6324 16392,6105 16392,5887 16392,5669 16360,5523 16014,5523 16014,5741 15245,5596 15376,6324 Z"/>
   </g>
   <g id="DrawingGroup_2">
    <g>
     <defs>
      <linearGradient id="Gradient_724" gradientUnits="userSpaceOnUse" x1="14817" y1="2974" x2="14817" y2="4358">
       <stop offset="0.1" stop-color="rgb(179,179,179)"/>
       <stop offset="1" stop-color="rgb(229,229,229)"/>
      </linearGradient>
     </defs>
     <path fill="url(#Gradient_724)" stroke="rgb(255,255,255)" id="Drawing_2_0" stroke-width="40" stroke-linejoin="round" d="M 15510,4358 L 13620,3265 14124,2974 16014,4067 15510,4358 Z"/>
    </g>
    <g>
     <defs>
      <linearGradient id="Gradient_725" gradientUnits="userSpaceOnUse" x1="13239" y1="4683" x2="15387" y2="4687">
       <stop offset="0.1" stop-color="rgb(179,179,179)"/>
       <stop offset="1" stop-color="rgb(229,229,229)"/>
      </linearGradient>
     </defs>
     <path fill="url(#Gradient_725)" stroke="rgb(255,255,255)" id="Drawing_3_0" stroke-width="40" stroke-linejoin="round" d="M 13242,5086 L 13242,3047 15384,4285 15384,6324 13242,5086 Z"/>
    </g>
    <g>
     <defs>
      <linearGradient id="Gradient_726" gradientUnits="userSpaceOnUse" x1="13492" y1="4683" x2="15134" y2="4685">
       <stop offset="0.1" stop-color="rgb(147,212,240)"/>
       <stop offset="1" stop-color="rgb(233,246,252)"/>
      </linearGradient>
     </defs>
     <path fill="url(#Gradient_726)" stroke="rgb(127,127,127)" id="Drawing_4_0" stroke-width="40" stroke-linejoin="round" d="M 13494,4940 L 13494,3483 15132,4430 15132,5886 13494,4940 Z"/>
    </g>
    <g>
     <path fill="rgb(179,179,179)" stroke="none" d="M 15500,5677 L 15510,4358 16015,4067 16015,5677 15500,5677 Z"/>
     <path fill="rgb(180,180,180)" stroke="none" d="M 16015,5677 L 16015,5815 15497,6106 15500,5677 16015,5677 Z M 15500,5657 L 15510,4358 16015,4067 16015,5657 15500,5657 Z"/>
     <path fill="rgb(181,181,181)" stroke="none" d="M 16015,5657 L 16015,5815 15497,6106 15500,5657 16015,5657 Z M 15500,5636 L 15510,4358 16015,4067 16015,5636 15500,5636 Z"/>
     <path fill="rgb(182,182,182)" stroke="none" d="M 16015,5636 L 16015,5815 15497,6106 15500,5636 16015,5636 Z M 15501,5616 L 15510,4358 16015,4067 16015,5616 15501,5616 Z"/>
     <path fill="rgb(183,183,183)" stroke="none" d="M 16015,5616 L 16015,5815 15497,6106 15501,5616 16015,5616 Z M 15501,5595 L 15510,4358 16015,4067 16015,5595 15501,5595 Z"/>
     <path fill="rgb(184,184,184)" stroke="none" d="M 16015,5595 L 16015,5815 15497,6106 15501,5595 16015,5595 Z M 15501,5575 L 15510,4358 16015,4067 16015,5575 15501,5575 Z"/>
     <path fill="rgb(185,185,185)" stroke="none" d="M 16015,5575 L 16015,5815 15497,6106 15501,5575 16015,5575 Z M 15501,5555 L 15510,4358 16015,4067 16015,5555 15501,5555 Z"/>
     <path fill="rgb(186,186,186)" stroke="none" d="M 16015,5555 L 16015,5815 15497,6106 15501,5555 16015,5555 Z M 15501,5534 L 15510,4358 16015,4067 16015,5534 15501,5534 Z"/>
     <path fill="rgb(187,187,187)" stroke="none" d="M 16015,5534 L 16015,5815 15497,6106 15501,5534 16015,5534 Z M 15501,5514 L 15510,4358 16015,4067 16015,5514 15501,5514 Z"/>
     <path fill="rgb(188,188,188)" stroke="none" d="M 16015,5514 L 16015,5815 15497,6106 15501,5514 16015,5514 Z M 15502,5493 L 15510,4358 16015,4067 16015,5493 15502,5493 Z"/>
     <path fill="rgb(189,189,189)" stroke="none" d="M 16015,5493 L 16015,5815 15497,6106 15502,5493 16015,5493 Z M 15502,5473 L 15510,4358 16015,4067 16015,5473 15502,5473 Z"/>
     <path fill="rgb(190,190,190)" stroke="none" d="M 16015,5473 L 16015,5815 15497,6106 15502,5473 16015,5473 Z M 15502,5452 L 15510,4358 16015,4067 16015,5452 15502,5452 Z"/>
     <path fill="rgb(191,191,191)" stroke="none" d="M 16015,5452 L 16015,5815 15497,6106 15502,5452 16015,5452 Z M 15502,5432 L 15510,4358 16015,4067 16015,5432 15502,5432 Z"/>
     <path fill="rgb(192,192,192)" stroke="none" d="M 16015,5432 L 16015,5815 15497,6106 15502,5432 16015,5432 Z M 15502,5412 L 15510,4358 16015,4067 16015,5412 15502,5412 Z"/>
     <path fill="rgb(193,193,193)" stroke="none" d="M 16015,5412 L 16015,5815 15497,6106 15502,5412 16015,5412 Z M 15502,5391 L 15510,4358 16015,4067 16015,5391 15502,5391 Z"/>
     <path fill="rgb(194,194,194)" stroke="none" d="M 16015,5391 L 16015,5815 15497,6106 15502,5391 16015,5391 Z M 15502,5371 L 15510,4358 16015,4067 16015,5371 15502,5371 Z"/>
     <path fill="rgb(195,195,195)" stroke="none" d="M 16015,5371 L 16015,5815 15497,6106 15502,5371 16015,5371 Z M 15503,5350 L 15510,4358 16015,4067 16015,5350 15503,5350 Z"/>
     <path fill="rgb(196,196,196)" stroke="none" d="M 16015,5350 L 16015,5815 15497,6106 15503,5350 16015,5350 Z M 15503,5330 L 15510,4358 16015,4067 16015,5330 15503,5330 Z"/>
     <path fill="rgb(197,197,197)" stroke="none" d="M 16015,5330 L 16015,5815 15497,6106 15503,5330 16015,5330 Z M 15503,5310 L 15510,4358 16015,4067 16015,5310 15503,5310 Z"/>
     <path fill="rgb(198,198,198)" stroke="none" d="M 16015,5310 L 16015,5815 15497,6106 15503,5310 16015,5310 Z M 15503,5289 L 15510,4358 16015,4067 16015,5289 15503,5289 Z"/>
     <path fill="rgb(199,199,199)" stroke="none" d="M 16015,5289 L 16015,5815 15497,6106 15503,5289 16015,5289 Z M 16015,4085 L 16015,5269 15503,5269 15510,4358 15984,4085 16015,4085 Z"/>
     <path fill="rgb(200,200,200)" stroke="none" d="M 16015,5269 L 16015,5815 15497,6106 15503,5269 16015,5269 Z M 15984,4085 L 16015,4067 16015,4085 15984,4085 Z M 16015,4106 L 16015,5248 15503,5248 15510,4358 15947,4106 16015,4106 Z"/>
     <path fill="rgb(201,201,201)" stroke="none" d="M 16015,5248 L 16015,5815 15497,6106 15503,5248 16015,5248 Z M 15947,4106 L 16015,4067 16015,4106 15947,4106 Z M 16015,4126 L 16015,5228 15504,5228 15510,4358 15913,4126 16015,4126 Z"/>
     <path fill="rgb(202,202,202)" stroke="none" d="M 16015,5228 L 16015,5815 15497,6106 15504,5228 16015,5228 Z M 15913,4126 L 16015,4067 16015,4126 15913,4126 Z M 16015,4147 L 16015,5207 15504,5207 15510,4358 15876,4147 16015,4147 Z"/>
     <path fill="rgb(203,203,203)" stroke="none" d="M 16015,5207 L 16015,5815 15497,6106 15504,5207 16015,5207 Z M 15876,4147 L 16015,4067 16015,4147 15876,4147 Z M 16015,4167 L 16015,5187 15504,5187 15510,4358 15841,4167 16015,4167 Z"/>
     <path fill="rgb(204,204,204)" stroke="none" d="M 16015,5187 L 16015,5815 15497,6106 15504,5187 16015,5187 Z M 15841,4167 L 16015,4067 16015,4167 15841,4167 Z M 16015,4187 L 16015,5167 15504,5167 15510,4358 15807,4187 16015,4187 Z"/>
     <path fill="rgb(205,205,205)" stroke="none" d="M 16015,5167 L 16015,5815 15497,6106 15504,5167 16015,5167 Z M 15807,4187 L 16015,4067 16015,4187 15807,4187 Z M 16015,4208 L 16015,5146 15504,5146 15510,4358 15770,4208 16015,4208 Z"/>
     <path fill="rgb(206,206,206)" stroke="none" d="M 16015,5146 L 16015,5815 15497,6106 15504,5146 16015,5146 Z M 15770,4208 L 16015,4067 16015,4208 15770,4208 Z M 16015,4228 L 16015,5126 15504,5126 15510,4358 15736,4228 16015,4228 Z"/>
     <path fill="rgb(207,207,207)" stroke="none" d="M 16015,5126 L 16015,5815 15497,6106 15504,5126 16015,5126 Z M 15736,4228 L 16015,4067 16015,4228 15736,4228 Z M 16015,4249 L 16015,5105 15504,5105 15510,4358 15699,4249 16015,4249 Z"/>
     <path fill="rgb(208,208,208)" stroke="none" d="M 16015,5105 L 16015,5815 15497,6106 15504,5105 16015,5105 Z M 15699,4249 L 16015,4067 16015,4249 15699,4249 Z M 16015,4269 L 16015,5085 15505,5085 15510,4358 15664,4269 16015,4269 Z"/>
     <path fill="rgb(209,209,209)" stroke="none" d="M 16015,5085 L 16015,5815 15497,6106 15505,5085 16015,5085 Z M 15664,4269 L 16015,4067 16015,4269 15664,4269 Z M 16015,4290 L 16015,5064 15505,5064 15510,4358 15628,4290 16015,4290 Z"/>
     <path fill="rgb(210,210,210)" stroke="none" d="M 16015,5064 L 16015,5815 15497,6106 15505,5064 16015,5064 Z M 15628,4290 L 16015,4067 16015,4290 15628,4290 Z M 16015,4310 L 16015,5044 15505,5044 15510,4358 15593,4310 16015,4310 Z"/>
     <path fill="rgb(211,211,211)" stroke="none" d="M 16015,5044 L 16015,5815 15497,6106 15505,5044 16015,5044 Z M 15593,4310 L 16015,4067 16015,4310 15593,4310 Z M 15998,4330 L 15998,5024 15505,5024 15510,4358 15559,4330 15998,4330 Z"/>
     <path fill="rgb(212,212,212)" stroke="none" d="M 15998,5024 L 15998,4330 15559,4330 16015,4067 16015,5815 15497,6106 15505,5024 15998,5024 Z M 15977,4351 L 15977,5003 15505,5003 15510,4358 15522,4351 15977,4351 Z"/>
     <path fill="rgb(213,213,213)" stroke="none" d="M 15977,5003 L 15977,4351 15522,4351 16015,4067 16015,5815 15497,6106 15505,5003 15977,5003 Z M 15957,4371 L 15957,4983 15505,4983 15510,4371 15957,4371 Z"/>
     <path fill="rgb(214,214,214)" stroke="none" d="M 15957,4983 L 15957,4371 15510,4371 15510,4358 16015,4067 16015,5815 15497,6106 15505,4983 15957,4983 Z M 15936,4392 L 15936,4962 15506,4962 15510,4392 15936,4392 Z"/>
     <path fill="rgb(215,215,215)" stroke="none" d="M 15936,4962 L 15936,4392 15510,4392 15510,4358 16015,4067 16015,5815 15497,6106 15506,4962 15936,4962 Z M 15916,4412 L 15916,4942 15506,4942 15510,4412 15916,4412 Z"/>
     <path fill="rgb(216,216,216)" stroke="none" d="M 15916,4942 L 15916,4412 15510,4412 15510,4358 16015,4067 16015,5815 15497,6106 15506,4942 15916,4942 Z M 15896,4432 L 15896,4922 15506,4922 15509,4432 15896,4432 Z"/>
     <path fill="rgb(217,217,217)" stroke="none" d="M 15896,4922 L 15896,4432 15509,4432 15510,4358 16015,4067 16015,5815 15497,6106 15506,4922 15896,4922 Z M 15875,4453 L 15875,4901 15506,4901 15509,4453 15875,4453 Z"/>
     <path fill="rgb(218,218,218)" stroke="none" d="M 15875,4901 L 15875,4453 15509,4453 15510,4358 16015,4067 16015,5815 15497,6106 15506,4901 15875,4901 Z M 15855,4473 L 15855,4881 15506,4881 15509,4473 15855,4473 Z"/>
     <path fill="rgb(219,219,219)" stroke="none" d="M 15855,4881 L 15855,4473 15509,4473 15510,4358 16015,4067 16015,5815 15497,6106 15506,4881 15855,4881 Z M 15834,4494 L 15834,4860 15506,4860 15509,4494 15834,4494 Z"/>
     <path fill="rgb(220,220,220)" stroke="none" d="M 15834,4860 L 15834,4494 15509,4494 15510,4358 16015,4067 16015,5815 15497,6106 15506,4860 15834,4860 Z M 15814,4514 L 15814,4840 15506,4840 15509,4514 15814,4514 Z"/>
     <path fill="rgb(221,221,221)" stroke="none" d="M 15814,4840 L 15814,4514 15509,4514 15510,4358 16015,4067 16015,5815 15497,6106 15506,4840 15814,4840 Z M 15509,4535 L 15793,4535 15793,4819 15509,4819 15509,4535 Z"/>
     <path fill="rgb(222,222,222)" stroke="none" d="M 15509,4535 L 15509,4819 15793,4819 15793,4535 15509,4535 Z M 15529,4555 L 15773,4555 15773,4799 15529,4799 15529,4555 Z M 15497,6106 L 15510,4358 16015,4067 16015,5815 15497,6106 Z"/>
     <path fill="rgb(223,223,223)" stroke="none" d="M 15529,4555 L 15529,4799 15773,4799 15773,4555 15529,4555 Z M 15549,4575 L 15753,4575 15753,4779 15549,4779 15549,4575 Z M 15497,6106 L 15510,4358 16015,4067 16015,5815 15497,6106 Z"/>
     <path fill="rgb(224,224,224)" stroke="none" d="M 15549,4575 L 15549,4779 15753,4779 15753,4575 15549,4575 Z M 15570,4596 L 15732,4596 15732,4758 15570,4758 15570,4596 Z M 15497,6106 L 15510,4358 16015,4067 16015,5815 15497,6106 Z"/>
     <path fill="rgb(225,225,225)" stroke="none" d="M 15570,4596 L 15570,4758 15732,4758 15732,4596 15570,4596 Z M 15590,4616 L 15712,4616 15712,4738 15590,4738 15590,4616 Z M 15497,6106 L 15510,4358 16015,4067 16015,5815 15497,6106 Z"/>
     <path fill="rgb(226,226,226)" stroke="none" d="M 15590,4616 L 15590,4738 15712,4738 15712,4616 15590,4616 Z M 15611,4637 L 15691,4637 15691,4717 15611,4717 15611,4637 Z M 15497,6106 L 15510,4358 16015,4067 16015,5815 15497,6106 Z"/>
     <path fill="rgb(227,227,227)" stroke="none" d="M 15611,4637 L 15611,4717 15691,4717 15691,4637 15611,4637 Z M 15631,4657 L 15671,4657 15671,4697 15631,4697 15631,4657 Z M 15497,6106 L 15510,4358 16015,4067 16015,5815 15497,6106 Z"/>
     <path fill="rgb(229,229,229)" stroke="none" d="M 15631,4657 L 15631,4697 15671,4697 15671,4657 15631,4657 Z M 15497,6106 L 15510,4358 16015,4067 16015,5815 15497,6106 Z"/>
     <path fill="none" stroke="rgb(255,255,255)" id="Drawing_5_0" stroke-width="40" stroke-linejoin="round" d="M 15497,6106 L 15510,4358 16015,4067 16015,5815 15497,6106 Z"/>
    </g>
    <g>
     <defs>
      <linearGradient id="Gradient_727" gradientUnits="userSpaceOnUse" x1="14376" y1="2974" x2="14376" y2="4285">
       <stop offset="0.1" stop-color="rgb(179,179,179)"/>
       <stop offset="1" stop-color="rgb(229,229,229)"/>
      </linearGradient>
     </defs>
     <path fill="url(#Gradient_727)" stroke="rgb(255,255,255)" id="Drawing_6_0" stroke-width="40" stroke-linejoin="round" d="M 15384,4285 L 13242,3047 13368,2974 15511,4212 15384,4285 Z"/>
    </g>
    <g>
     <path fill="none" stroke="rgb(127,127,127)" id="Drawing_7_0" stroke-width="40" stroke-linejoin="round" d="M 15511,4503 L 15889,4285"/>
    </g>
    <g>
     <path fill="none" stroke="rgb(127,127,127)" id="Drawing_8_0" stroke-width="40" stroke-linejoin="round" d="M 15511,4576 L 15889,4358"/>
    </g>
    <g>
     <path fill="none" stroke="rgb(127,127,127)" id="Drawing_9_0" stroke-width="40" stroke-linejoin="round" d="M 15511,4649 L 15889,4431"/>
    </g>
    <g>
     <path fill="none" stroke="rgb(127,127,127)" id="Drawing_10_0" stroke-width="40" stroke-linejoin="round" d="M 15511,4721 L 15889,4503"/>
    </g>
    <g>
     <path fill="none" stroke="rgb(127,127,127)" id="Drawing_11_0" stroke-width="40" stroke-linejoin="round" d="M 15511,4794 L 15889,4576"/>
    </g>
    <g>
     <path fill="none" stroke="rgb(127,127,127)" id="Drawing_12_0" stroke-width="40" stroke-linejoin="round" d="M 15511,4867 L 15889,4649"/>
    </g>
    <g>
     <path fill="none" stroke="rgb(127,127,127)" id="Drawing_13_0" stroke-width="40" stroke-linejoin="round" d="M 15511,4940 L 15889,4722"/>
    </g>
    <g>
     <path fill="none" stroke="rgb(127,127,127)" id="Drawing_14_0" stroke-width="40" stroke-linejoin="round" d="M 15511,5013 L 15889,4795"/>
    </g>
    <g>
     <path fill="none" stroke="rgb(127,127,127)" id="Drawing_15_0" stroke-width="40" stroke-linejoin="round" d="M 15511,5085 L 15889,4867"/>
    </g>
    <g>
     <path fill="none" stroke="rgb(127,127,127)" id="Drawing_16_0" stroke-width="40" stroke-linejoin="round" d="M 15511,5158 L 15889,4940"/>
    </g>
    <g>
     <path fill="none" stroke="rgb(127,127,127)" id="Drawing_17_0" stroke-width="40" stroke-linejoin="round" d="M 15511,5231 L 15889,5013"/>
    </g>
    <g>
     <path fill="none" stroke="rgb(127,127,127)" id="Drawing_18_0" stroke-width="40" stroke-linejoin="round" d="M 15511,5304 L 15889,5086"/>
    </g>
    <g>
     <path fill="none" stroke="rgb(127,127,127)" id="Drawing_19_0" stroke-width="40" stroke-linejoin="round" d="M 15511,5376 L 15889,5158"/>
    </g>
    <g>
     <path fill="none" stroke="rgb(127,127,127)" id="Drawing_20_0" stroke-width="40" stroke-linejoin="round" d="M 15511,5449 L 15889,5231"/>
    </g>
    <g>
     <path fill="none" stroke="rgb(127,127,127)" id="Drawing_21_0" stroke-width="40" stroke-linejoin="round" d="M 15511,5522 L 15889,5304"/>
    </g>
    <g>
     <path fill="none" stroke="rgb(127,127,127)" id="Drawing_22_0" stroke-width="40" stroke-linejoin="round" d="M 15511,5595 L 15889,5377"/>
    </g>
    <g>
     <path fill="none" stroke="rgb(127,127,127)" id="Drawing_23_0" stroke-width="40" stroke-linejoin="round" d="M 15511,5668 L 15889,5450"/>
    </g>
    <g>
     <path fill="none" stroke="rgb(127,127,127)" id="Drawing_24_0" stroke-width="40" stroke-linejoin="round" d="M 15511,5741 L 15889,5523"/>
    </g>
    <g>
     <path fill="rgb(179,179,179)" stroke="none" d="M 15384,5880 L 15384,4285 15510,4212 15521,5880 15384,5880 Z"/>
     <path fill="rgb(180,180,180)" stroke="none" d="M 15521,5880 L 15524,6251 15384,6324 15384,5880 15521,5880 Z M 15384,5859 L 15384,4285 15510,4212 15521,5859 15384,5859 Z"/>
     <path fill="rgb(181,181,181)" stroke="none" d="M 15521,5859 L 15524,6251 15384,6324 15384,5859 15521,5859 Z M 15384,5838 L 15384,4285 15510,4212 15521,5838 15384,5838 Z"/>
     <path fill="rgb(182,182,182)" stroke="none" d="M 15521,5838 L 15524,6251 15384,6324 15384,5838 15521,5838 Z M 15384,5817 L 15384,4285 15510,4212 15521,5817 15384,5817 Z"/>
     <path fill="rgb(183,183,183)" stroke="none" d="M 15521,5817 L 15524,6251 15384,6324 15384,5817 15521,5817 Z M 15384,5796 L 15384,4285 15510,4212 15521,5796 15384,5796 Z"/>
     <path fill="rgb(184,184,184)" stroke="none" d="M 15521,5796 L 15524,6251 15384,6324 15384,5796 15521,5796 Z M 15384,5775 L 15384,4285 15510,4212 15521,5775 15384,5775 Z"/>
     <path fill="rgb(185,185,185)" stroke="none" d="M 15521,5775 L 15524,6251 15384,6324 15384,5775 15521,5775 Z M 15384,5753 L 15384,4285 15510,4212 15521,5753 15384,5753 Z"/>
     <path fill="rgb(186,186,186)" stroke="none" d="M 15521,5753 L 15524,6251 15384,6324 15384,5753 15521,5753 Z M 15384,5732 L 15384,4285 15510,4212 15520,5732 15384,5732 Z"/>
     <path fill="rgb(187,187,187)" stroke="none" d="M 15520,5732 L 15524,6251 15384,6324 15384,5732 15520,5732 Z M 15384,5711 L 15384,4285 15510,4212 15520,5711 15384,5711 Z"/>
     <path fill="rgb(188,188,188)" stroke="none" d="M 15520,5711 L 15524,6251 15384,6324 15384,5711 15520,5711 Z M 15384,5690 L 15384,4285 15510,4212 15520,5690 15384,5690 Z"/>
     <path fill="rgb(189,189,189)" stroke="none" d="M 15520,5690 L 15524,6251 15384,6324 15384,5690 15520,5690 Z M 15384,5669 L 15384,4285 15510,4212 15520,5669 15384,5669 Z"/>
     <path fill="rgb(190,190,190)" stroke="none" d="M 15520,5669 L 15524,6251 15384,6324 15384,5669 15520,5669 Z M 15384,5648 L 15384,4285 15510,4212 15520,5648 15384,5648 Z"/>
     <path fill="rgb(191,191,191)" stroke="none" d="M 15520,5648 L 15524,6251 15384,6324 15384,5648 15520,5648 Z M 15384,5627 L 15384,4285 15510,4212 15520,5627 15384,5627 Z"/>
     <path fill="rgb(192,192,192)" stroke="none" d="M 15520,5627 L 15524,6251 15384,6324 15384,5627 15520,5627 Z M 15384,5605 L 15384,4285 15510,4212 15520,5605 15384,5605 Z"/>
     <path fill="rgb(193,193,193)" stroke="none" d="M 15520,5605 L 15524,6251 15384,6324 15384,5605 15520,5605 Z M 15384,5584 L 15384,4285 15510,4212 15519,5584 15384,5584 Z"/>
     <path fill="rgb(194,194,194)" stroke="none" d="M 15519,5584 L 15524,6251 15384,6324 15384,5584 15519,5584 Z M 15384,5563 L 15384,4285 15510,4212 15519,5563 15384,5563 Z"/>
     <path fill="rgb(195,195,195)" stroke="none" d="M 15519,5563 L 15524,6251 15384,6324 15384,5563 15519,5563 Z M 15384,5542 L 15384,4285 15510,4212 15519,5542 15384,5542 Z"/>
     <path fill="rgb(196,196,196)" stroke="none" d="M 15519,5542 L 15524,6251 15384,6324 15384,5542 15519,5542 Z M 15384,5521 L 15384,4285 15510,4212 15519,5521 15384,5521 Z"/>
     <path fill="rgb(197,197,197)" stroke="none" d="M 15519,5521 L 15524,6251 15384,6324 15384,5521 15519,5521 Z M 15384,5500 L 15384,4285 15510,4212 15519,5500 15384,5500 Z"/>
     <path fill="rgb(198,198,198)" stroke="none" d="M 15519,5500 L 15524,6251 15384,6324 15384,5500 15519,5500 Z M 15384,5478 L 15384,4285 15510,4212 15519,5478 15384,5478 Z"/>
     <path fill="rgb(199,199,199)" stroke="none" d="M 15519,5478 L 15524,6251 15384,6324 15384,5478 15519,5478 Z M 15510,4232 L 15519,5457 15384,5457 15384,4285 15475,4232 15510,4232 Z"/>
     <path fill="rgb(200,200,200)" stroke="none" d="M 15519,5457 L 15524,6251 15384,6324 15384,5457 15519,5457 Z M 15475,4232 L 15510,4212 15510,4232 15475,4232 Z M 15510,4253 L 15518,5436 15384,5436 15384,4285 15439,4253 15510,4253 Z"/>
     <path fill="rgb(201,201,201)" stroke="none" d="M 15518,5436 L 15524,6251 15384,6324 15384,5436 15518,5436 Z M 15439,4253 L 15510,4212 15510,4253 15439,4253 Z M 15510,4274 L 15518,5415 15384,5415 15384,4285 15403,4274 15510,4274 Z"/>
     <path fill="rgb(202,202,202)" stroke="none" d="M 15518,5415 L 15524,6251 15384,6324 15384,5415 15518,5415 Z M 15403,4274 L 15510,4212 15510,4274 15403,4274 Z M 15511,4295 L 15518,5394 15384,5394 15384,4295 15511,4295 Z"/>
     <path fill="rgb(203,203,203)" stroke="none" d="M 15518,5394 L 15524,6251 15384,6324 15384,5394 15518,5394 Z M 15384,4295 L 15384,4285 15510,4212 15511,4295 15384,4295 Z M 15511,4316 L 15518,5373 15384,5373 15384,4316 15511,4316 Z"/>
     <path fill="rgb(204,204,204)" stroke="none" d="M 15518,5373 L 15524,6251 15384,6324 15384,5373 15518,5373 Z M 15384,4316 L 15384,4285 15510,4212 15511,4316 15384,4316 Z M 15511,4337 L 15518,5352 15384,5352 15384,4337 15511,4337 Z"/>
     <path fill="rgb(205,205,205)" stroke="none" d="M 15518,5352 L 15524,6251 15384,6324 15384,5352 15518,5352 Z M 15384,4337 L 15384,4285 15510,4212 15511,4337 15384,4337 Z M 15511,4359 L 15518,5330 15384,5330 15384,4359 15511,4359 Z"/>
     <path fill="rgb(206,206,206)" stroke="none" d="M 15518,5330 L 15524,6251 15384,6324 15384,5330 15518,5330 Z M 15384,4359 L 15384,4285 15510,4212 15511,4359 15384,4359 Z M 15511,4380 L 15518,5309 15384,5309 15384,4380 15511,4380 Z"/>
     <path fill="rgb(207,207,207)" stroke="none" d="M 15518,5309 L 15524,6251 15384,6324 15384,5309 15518,5309 Z M 15384,4380 L 15384,4285 15510,4212 15511,4380 15384,4380 Z M 15511,4401 L 15517,5288 15384,5288 15384,4401 15511,4401 Z"/>
     <path fill="rgb(208,208,208)" stroke="none" d="M 15517,5288 L 15524,6251 15384,6324 15384,5288 15517,5288 Z M 15384,4401 L 15384,4285 15510,4212 15511,4401 15384,4401 Z M 15511,4422 L 15517,5267 15384,5267 15384,4422 15511,4422 Z"/>
     <path fill="rgb(209,209,209)" stroke="none" d="M 15517,5267 L 15524,6251 15384,6324 15384,5267 15517,5267 Z M 15384,4422 L 15384,4285 15510,4212 15511,4422 15384,4422 Z M 15512,4443 L 15517,5246 15384,5246 15384,4443 15512,4443 Z"/>
     <path fill="rgb(210,210,210)" stroke="none" d="M 15517,5246 L 15524,6251 15384,6324 15384,5246 15517,5246 Z M 15384,4443 L 15384,4285 15510,4212 15512,4443 15384,4443 Z M 15512,4464 L 15517,5225 15384,5225 15384,4464 15512,4464 Z"/>
     <path fill="rgb(211,211,211)" stroke="none" d="M 15517,5225 L 15524,6251 15384,6324 15384,5225 15517,5225 Z M 15384,4464 L 15384,4285 15510,4212 15512,4464 15384,4464 Z M 15512,4485 L 15517,5204 15384,5204 15384,4485 15512,4485 Z"/>
     <path fill="rgb(212,212,212)" stroke="none" d="M 15517,5204 L 15524,6251 15384,6324 15384,5204 15517,5204 Z M 15384,4485 L 15384,4285 15510,4212 15512,4485 15384,4485 Z M 15512,4507 L 15517,5182 15384,5182 15384,4507 15512,4507 Z"/>
     <path fill="rgb(213,213,213)" stroke="none" d="M 15517,5182 L 15524,6251 15384,6324 15384,5182 15517,5182 Z M 15384,4507 L 15384,4285 15510,4212 15512,4507 15384,4507 Z M 15512,4528 L 15517,5161 15384,5161 15384,4528 15512,4528 Z"/>
     <path fill="rgb(214,214,214)" stroke="none" d="M 15517,5161 L 15524,6251 15384,6324 15384,5161 15517,5161 Z M 15384,4528 L 15384,4285 15510,4212 15512,4528 15384,4528 Z M 15512,4549 L 15516,5140 15384,5140 15384,4549 15512,4549 Z"/>
     <path fill="rgb(215,215,215)" stroke="none" d="M 15516,5140 L 15524,6251 15384,6324 15384,5140 15516,5140 Z M 15384,4549 L 15384,4285 15510,4212 15512,4549 15384,4549 Z M 15512,4570 L 15516,5119 15384,5119 15384,4570 15512,4570 Z"/>
     <path fill="rgb(216,216,216)" stroke="none" d="M 15516,5119 L 15524,6251 15384,6324 15384,5119 15516,5119 Z M 15384,4570 L 15384,4285 15510,4212 15512,4570 15384,4570 Z M 15513,4591 L 15516,5098 15384,5098 15384,4591 15513,4591 Z"/>
     <path fill="rgb(217,217,217)" stroke="none" d="M 15516,5098 L 15524,6251 15384,6324 15384,5098 15516,5098 Z M 15384,4591 L 15384,4285 15510,4212 15513,4591 15384,4591 Z M 15513,4612 L 15516,5077 15384,5077 15384,4612 15513,4612 Z"/>
     <path fill="rgb(218,218,218)" stroke="none" d="M 15516,5077 L 15524,6251 15384,6324 15384,5077 15516,5077 Z M 15384,4612 L 15384,4285 15510,4212 15513,4612 15384,4612 Z M 15513,4633 L 15516,5055 15384,5055 15384,4633 15513,4633 Z"/>
     <path fill="rgb(219,219,219)" stroke="none" d="M 15516,5055 L 15524,6251 15384,6324 15384,5055 15516,5055 Z M 15384,4633 L 15384,4285 15510,4212 15513,4633 15384,4633 Z M 15513,4655 L 15516,5034 15384,5034 15384,4655 15513,4655 Z"/>
     <path fill="rgb(220,220,220)" stroke="none" d="M 15516,5034 L 15524,6251 15384,6324 15384,5034 15516,5034 Z M 15384,4655 L 15384,4285 15510,4212 15513,4655 15384,4655 Z M 15513,4676 L 15515,5013 15384,5013 15384,4676 15513,4676 Z"/>
     <path fill="rgb(221,221,221)" stroke="none" d="M 15515,5013 L 15524,6251 15384,6324 15384,5013 15515,5013 Z M 15384,4676 L 15384,4285 15510,4212 15513,4676 15384,4676 Z M 15513,4697 L 15515,4992 15384,4992 15384,4697 15513,4697 Z"/>
     <path fill="rgb(222,222,222)" stroke="none" d="M 15515,4992 L 15524,6251 15384,6324 15384,4992 15515,4992 Z M 15384,4697 L 15384,4285 15510,4212 15513,4697 15384,4697 Z M 15513,4718 L 15515,4971 15384,4971 15384,4718 15513,4718 Z"/>
     <path fill="rgb(223,223,223)" stroke="none" d="M 15515,4971 L 15524,6251 15384,6324 15384,4971 15515,4971 Z M 15384,4718 L 15384,4285 15510,4212 15513,4718 15384,4718 Z M 15514,4739 L 15515,4950 15384,4950 15384,4739 15514,4739 Z"/>
     <path fill="rgb(224,224,224)" stroke="none" d="M 15515,4950 L 15524,6251 15384,6324 15384,4950 15515,4950 Z M 15384,4739 L 15384,4285 15510,4212 15514,4739 15384,4739 Z M 15509,4760 L 15509,4929 15384,4929 15384,4760 15509,4760 Z"/>
     <path fill="rgb(225,225,225)" stroke="none" d="M 15509,4929 L 15509,4760 15384,4760 15384,4285 15510,4212 15524,6251 15384,6324 15384,4929 15509,4929 Z M 15487,4782 L 15487,4907 15384,4907 15384,4782 15487,4782 Z"/>
     <path fill="rgb(226,226,226)" stroke="none" d="M 15487,4907 L 15487,4782 15384,4782 15384,4285 15510,4212 15524,6251 15384,6324 15384,4907 15487,4907 Z M 15466,4803 L 15466,4886 15384,4886 15384,4803 15466,4803 Z"/>
     <path fill="rgb(227,227,227)" stroke="none" d="M 15466,4886 L 15466,4803 15384,4803 15384,4285 15510,4212 15524,6251 15384,6324 15384,4886 15466,4886 Z M 15404,4824 L 15445,4824 15445,4865 15404,4865 15404,4824 Z"/>
     <path fill="rgb(229,229,229)" stroke="none" d="M 15404,4824 L 15404,4865 15445,4865 15445,4824 15404,4824 Z M 15384,6324 L 15384,4285 15510,4212 15524,6251 15384,6324 Z"/>
     <path fill="none" stroke="rgb(255,255,255)" id="Drawing_25_0" stroke-width="40" stroke-linejoin="round" d="M 15384,6324 L 15384,4285 15510,4212 15524,6251 15384,6324 Z"/>
    </g>
    <g>
     <path fill="none" stroke="rgb(0,0,0)" id="Drawing_26_0" stroke-width="40" stroke-linejoin="round" d="M 13368,2974 L 13746,3192 14124,2974 16014,4067 16014,5815 15511,6106 15523,6251 15384,6324 13242,5086 13242,3047 13368,2974 Z"/>
    </g>
   </g>
  </g>
 </g>
</svg>