<?xml version="1.0" encoding="UTF-8"?>

<svg version="1.2" baseProfile="tiny" width="31.71mm" height="33.9mm" viewBox="12617 7414 3171 3390" preserveAspectRatio="xMidYMid" fill-rule="evenodd" stroke-width="28.222" stroke-linejoin="round" xmlns="http://www.w3.org/2000/svg" xmlns:xlink="http://www.w3.org/1999/xlink" xml:space="preserve">
 <g visibility="visible" id="Slide_1">
  <g id="DrawingGroup_1">
   <g>
    <path fill="rgb(221,221,221)" stroke="none" d="M 14771,10784 C 15117,10784 15787,10565 15787,10347 15787,10129 15755,9983 15409,9983 15409,10201 14640,10056 14771,10784 Z"/>
    <path fill="none" stroke="rgb(221,221,221)" id="Drawing_1_0" stroke-linejoin="round" d="M 14771,10784 C 15117,10784 15787,10565 15787,10347 15787,10129 15755,9983 15409,9983 15409,10201 14640,10056 14771,10784 Z"/>
   </g>
   <g id="DrawingGroup_2">
    <g>
     <defs>
      <linearGradient id="Gradient_728" gradientUnits="userSpaceOnUse" x1="14212" y1="7434" x2="14212" y2="8818">
       <stop offset="0.1" stop-color="rgb(51,51,51)"/>
       <stop offset="1" stop-color="rgb(153,153,153)"/>
      </linearGradient>
     </defs>
     <path fill="url(#Gradient_728)" stroke="rgb(178,178,178)" id="Drawing_2_0" stroke-width="40" stroke-linejoin="round" d="M 14905,8818 L 13015,7725 13519,7434 15409,8527 14905,8818 Z"/>
    </g>
    <g>
     <defs>
      <linearGradient id="Gradient_729" gradientUnits="userSpaceOnUse" x1="12634" y1="9143" x2="14782" y2="9147">
       <stop offset="0.1" stop-color="rgb(51,51,51)"/>
       <stop offset="1" stop-color="rgb(153,153,153)"/>
      </linearGradient>
     </defs>
     <path fill="url(#Gradient_729)" stroke="rgb(178,178,178)" id="Drawing_3_0" stroke-width="40" stroke-linejoin="round" d="M 12637,9546 L 12637,7507 14779,8745 14779,10784 12637,9546 Z"/>
    </g>
    <g>
     <defs>
      <linearGradient id="Gradient_730" gradientUnits="userSpaceOnUse" x1="12887" y1="9143" x2="14529" y2="9145">
       <stop offset="0.1" stop-color="rgb(147,212,240)"/>
       <stop offset="1" stop-color="rgb(233,246,252)"/>
      </linearGradient>
     </defs>
     <path fill="url(#Gradient_730)" stroke="rgb(102,102,102)" id="Drawing_4_0" stroke-width="40" stroke-linejoin="round" d="M 12889,9400 L 12889,7943 14527,8890 14527,10346 12889,9400 Z"/>
    </g>
    <g>
     <path fill="rgb(51,51,51)" stroke="none" d="M 14895,10147 L 14905,8818 15410,8527 15410,10147 14895,10147 Z"/>
     <path fill="rgb(52,52,52)" stroke="none" d="M 15410,10147 L 15410,10275 14892,10566 14895,10147 15410,10147 Z M 14895,10137 L 14905,8818 15410,8527 15410,10137 14895,10137 Z"/>
     <path fill="rgb(53,53,53)" stroke="none" d="M 15410,10137 L 15410,10275 14892,10566 14895,10137 15410,10137 Z M 14895,10127 L 14905,8818 15410,8527 15410,10127 14895,10127 Z"/>
     <path fill="rgb(54,54,54)" stroke="none" d="M 15410,10127 L 15410,10275 14892,10566 14895,10127 15410,10127 Z M 14895,10117 L 14905,8818 15410,8527 15410,10117 14895,10117 Z"/>
     <path fill="rgb(55,55,55)" stroke="none" d="M 15410,10117 L 15410,10275 14892,10566 14895,10117 15410,10117 Z M 14895,10107 L 14905,8818 15410,8527 15410,10107 14895,10107 Z"/>
     <path fill="rgb(56,56,56)" stroke="none" d="M 15410,10107 L 15410,10275 14892,10566 14895,10107 15410,10107 Z M 14895,10097 L 14905,8818 15410,8527 15410,10097 14895,10097 Z"/>
     <path fill="rgb(57,57,57)" stroke="none" d="M 15410,10097 L 15410,10275 14892,10566 14895,10097 15410,10097 Z M 14896,10087 L 14905,8818 15410,8527 15410,10087 14896,10087 Z"/>
     <path fill="rgb(58,58,58)" stroke="none" d="M 15410,10087 L 15410,10275 14892,10566 14896,10087 15410,10087 Z M 14896,10077 L 14905,8818 15410,8527 15410,10077 14896,10077 Z"/>
     <path fill="rgb(59,59,59)" stroke="none" d="M 15410,10077 L 15410,10275 14892,10566 14896,10077 15410,10077 Z M 14896,10067 L 14905,8818 15410,8527 15410,10067 14896,10067 Z"/>
     <path fill="rgb(60,60,60)" stroke="none" d="M 15410,10067 L 15410,10275 14892,10566 14896,10067 15410,10067 Z M 14896,10057 L 14905,8818 15410,8527 15410,10057 14896,10057 Z"/>
     <path fill="rgb(61,61,61)" stroke="none" d="M 15410,10057 L 15410,10275 14892,10566 14896,10057 15410,10057 Z M 14896,10047 L 14905,8818 15410,8527 15410,10047 14896,10047 Z"/>
     <path fill="rgb(62,62,62)" stroke="none" d="M 15410,10047 L 15410,10275 14892,10566 14896,10047 15410,10047 Z M 14896,10037 L 14905,8818 15410,8527 15410,10037 14896,10037 Z"/>
     <path fill="rgb(63,63,63)" stroke="none" d="M 15410,10037 L 15410,10275 14892,10566 14896,10037 15410,10037 Z M 14896,10027 L 14905,8818 15410,8527 15410,10027 14896,10027 Z"/>
     <path fill="rgb(64,64,64)" stroke="none" d="M 15410,10027 L 15410,10275 14892,10566 14896,10027 15410,10027 Z M 14896,10017 L 14905,8818 15410,8527 15410,10017 14896,10017 Z"/>
     <path fill="rgb(65,65,65)" stroke="none" d="M 15410,10017 L 15410,10275 14892,10566 14896,10017 15410,10017 Z M 14896,10007 L 14905,8818 15410,8527 15410,10007 14896,10007 Z"/>
     <path fill="rgb(66,66,66)" stroke="none" d="M 15410,10007 L 15410,10275 14892,10566 14896,10007 15410,10007 Z M 14896,9997 L 14905,8818 15410,8527 15410,9997 14896,9997 Z"/>
     <path fill="rgb(67,67,67)" stroke="none" d="M 15410,9997 L 15410,10275 14892,10566 14896,9997 15410,9997 Z M 14896,9987 L 14905,8818 15410,8527 15410,9987 14896,9987 Z"/>
     <path fill="rgb(68,68,68)" stroke="none" d="M 15410,9987 L 15410,10275 14892,10566 14896,9987 15410,9987 Z M 14896,9977 L 14905,8818 15410,8527 15410,9977 14896,9977 Z"/>
     <path fill="rgb(69,69,69)" stroke="none" d="M 15410,9977 L 15410,10275 14892,10566 14896,9977 15410,9977 Z M 14896,9967 L 14905,8818 15410,8527 15410,9967 14896,9967 Z"/>
     <path fill="rgb(70,70,70)" stroke="none" d="M 15410,9967 L 15410,10275 14892,10566 14896,9967 15410,9967 Z M 14897,9957 L 14905,8818 15410,8527 15410,9957 14897,9957 Z"/>
     <path fill="rgb(71,71,71)" stroke="none" d="M 15410,9957 L 15410,10275 14892,10566 14897,9957 15410,9957 Z M 14897,9947 L 14905,8818 15410,8527 15410,9947 14897,9947 Z"/>
     <path fill="rgb(72,72,72)" stroke="none" d="M 15410,9947 L 15410,10275 14892,10566 14897,9947 15410,9947 Z M 14897,9937 L 14905,8818 15410,8527 15410,9937 14897,9937 Z"/>
     <path fill="rgb(73,73,73)" stroke="none" d="M 15410,9937 L 15410,10275 14892,10566 14897,9937 15410,9937 Z M 14897,9927 L 14905,8818 15410,8527 15410,9927 14897,9927 Z"/>
     <path fill="rgb(74,74,74)" stroke="none" d="M 15410,9927 L 15410,10275 14892,10566 14897,9927 15410,9927 Z M 14897,9917 L 14905,8818 15410,8527 15410,9917 14897,9917 Z"/>
     <path fill="rgb(75,75,75)" stroke="none" d="M 15410,9917 L 15410,10275 14892,10566 14897,9917 15410,9917 Z M 14897,9907 L 14905,8818 15410,8527 15410,9907 14897,9907 Z"/>
     <path fill="rgb(76,76,76)" stroke="none" d="M 15410,9907 L 15410,10275 14892,10566 14897,9907 15410,9907 Z M 14897,9897 L 14905,8818 15410,8527 15410,9897 14897,9897 Z"/>
     <path fill="rgb(77,77,77)" stroke="none" d="M 15410,9897 L 15410,10275 14892,10566 14897,9897 15410,9897 Z M 14897,9887 L 14905,8818 15410,8527 15410,9887 14897,9887 Z"/>
     <path fill="rgb(78,78,78)" stroke="none" d="M 15410,9887 L 15410,10275 14892,10566 14897,9887 15410,9887 Z M 14897,9877 L 14905,8818 15410,8527 15410,9877 14897,9877 Z"/>
     <path fill="rgb(79,79,79)" stroke="none" d="M 15410,9877 L 15410,10275 14892,10566 14897,9877 15410,9877 Z M 14897,9867 L 14905,8818 15410,8527 15410,9867 14897,9867 Z"/>
     <path fill="rgb(80,80,80)" stroke="none" d="M 15410,9867 L 15410,10275 14892,10566 14897,9867 15410,9867 Z M 14897,9857 L 14905,8818 15410,8527 15410,9857 14897,9857 Z"/>
     <path fill="rgb(81,81,81)" stroke="none" d="M 15410,9857 L 15410,10275 14892,10566 14897,9857 15410,9857 Z M 14897,9847 L 14905,8818 15410,8527 15410,9847 14897,9847 Z"/>
     <path fill="rgb(82,82,82)" stroke="none" d="M 15410,9847 L 15410,10275 14892,10566 14897,9847 15410,9847 Z M 14897,9837 L 14905,8818 15410,8527 15410,9837 14897,9837 Z"/>
     <path fill="rgb(83,83,83)" stroke="none" d="M 15410,9837 L 15410,10275 14892,10566 14897,9837 15410,9837 Z M 14897,9827 L 14905,8818 15410,8527 15410,9827 14897,9827 Z"/>
     <path fill="rgb(84,84,84)" stroke="none" d="M 15410,9827 L 15410,10275 14892,10566 14897,9827 15410,9827 Z M 14898,9817 L 14905,8818 15410,8527 15410,9817 14898,9817 Z"/>
     <path fill="rgb(85,85,85)" stroke="none" d="M 15410,9817 L 15410,10275 14892,10566 14898,9817 15410,9817 Z M 14898,9807 L 14905,8818 15410,8527 15410,9807 14898,9807 Z"/>
     <path fill="rgb(86,86,86)" stroke="none" d="M 15410,9807 L 15410,10275 14892,10566 14898,9807 15410,9807 Z M 14898,9797 L 14905,8818 15410,8527 15410,9797 14898,9797 Z"/>
     <path fill="rgb(87,87,87)" stroke="none" d="M 15410,9797 L 15410,10275 14892,10566 14898,9797 15410,9797 Z M 14898,9787 L 14905,8818 15410,8527 15410,9787 14898,9787 Z"/>
     <path fill="rgb(88,88,88)" stroke="none" d="M 15410,9787 L 15410,10275 14892,10566 14898,9787 15410,9787 Z M 14898,9777 L 14905,8818 15410,8527 15410,9777 14898,9777 Z"/>
     <path fill="rgb(89,89,89)" stroke="none" d="M 15410,9777 L 15410,10275 14892,10566 14898,9777 15410,9777 Z M 14898,9767 L 14905,8818 15410,8527 15410,9767 14898,9767 Z"/>
     <path fill="rgb(90,90,90)" stroke="none" d="M 15410,9767 L 15410,10275 14892,10566 14898,9767 15410,9767 Z M 14898,9757 L 14905,8818 15410,8527 15410,9757 14898,9757 Z"/>
     <path fill="rgb(91,91,91)" stroke="none" d="M 15410,9757 L 15410,10275 14892,10566 14898,9757 15410,9757 Z M 14898,9747 L 14905,8818 15410,8527 15410,9747 14898,9747 Z"/>
     <path fill="rgb(92,92,92)" stroke="none" d="M 15410,9747 L 15410,10275 14892,10566 14898,9747 15410,9747 Z M 15410,8537 L 15410,9737 14898,9737 14905,8818 15393,8537 15410,8537 Z"/>
     <path fill="rgb(93,93,93)" stroke="none" d="M 15410,9737 L 15410,10275 14892,10566 14898,9737 15410,9737 Z M 15393,8537 L 15410,8527 15410,8537 15393,8537 Z M 15410,8547 L 15410,9727 14898,9727 14905,8818 15375,8547 15410,8547 Z"/>
     <path fill="rgb(94,94,94)" stroke="none" d="M 15410,9727 L 15410,10275 14892,10566 14898,9727 15410,9727 Z M 15375,8547 L 15410,8527 15410,8547 15375,8547 Z M 15410,8557 L 15410,9717 14898,9717 14905,8818 15358,8557 15410,8557 Z"/>
     <path fill="rgb(95,95,95)" stroke="none" d="M 15410,9717 L 15410,10275 14892,10566 14898,9717 15410,9717 Z M 15358,8557 L 15410,8527 15410,8557 15358,8557 Z M 15410,8567 L 15410,9707 14898,9707 14905,8818 15341,8567 15410,8567 Z"/>
     <path fill="rgb(96,96,96)" stroke="none" d="M 15410,9707 L 15410,10275 14892,10566 14898,9707 15410,9707 Z M 15341,8567 L 15410,8527 15410,8567 15341,8567 Z M 15410,8577 L 15410,9697 14898,9697 14905,8818 15323,8577 15410,8577 Z"/>
     <path fill="rgb(97,97,97)" stroke="none" d="M 15410,9697 L 15410,10275 14892,10566 14898,9697 15410,9697 Z M 15323,8577 L 15410,8527 15410,8577 15323,8577 Z M 15410,8587 L 15410,9687 14899,9687 14905,8818 15306,8587 15410,8587 Z"/>
     <path fill="rgb(98,98,98)" stroke="none" d="M 15410,9687 L 15410,10275 14892,10566 14899,9687 15410,9687 Z M 15306,8587 L 15410,8527 15410,8587 15306,8587 Z M 15410,8597 L 15410,9677 14899,9677 14905,8818 15289,8597 15410,8597 Z"/>
     <path fill="rgb(99,99,99)" stroke="none" d="M 15410,9677 L 15410,10275 14892,10566 14899,9677 15410,9677 Z M 15289,8597 L 15410,8527 15410,8597 15289,8597 Z M 15410,8607 L 15410,9667 14899,9667 14905,8818 15271,8607 15410,8607 Z"/>
     <path fill="rgb(100,100,100)" stroke="none" d="M 15410,9667 L 15410,10275 14892,10566 14899,9667 15410,9667 Z M 15271,8607 L 15410,8527 15410,8607 15271,8607 Z M 15410,8617 L 15410,9657 14899,9657 14905,8818 15254,8617 15410,8617 Z"/>
     <path fill="rgb(101,101,101)" stroke="none" d="M 15410,9657 L 15410,10275 14892,10566 14899,9657 15410,9657 Z M 15254,8617 L 15410,8527 15410,8617 15254,8617 Z M 15410,8627 L 15410,9647 14899,9647 14905,8818 15236,8627 15410,8627 Z"/>
     <path fill="rgb(102,102,102)" stroke="none" d="M 15410,9647 L 15410,10275 14892,10566 14899,9647 15410,9647 Z M 15236,8627 L 15410,8527 15410,8627 15236,8627 Z M 15410,8637 L 15410,9637 14899,9637 14905,8818 15219,8637 15410,8637 Z"/>
     <path fill="rgb(103,103,103)" stroke="none" d="M 15410,9637 L 15410,10275 14892,10566 14899,9637 15410,9637 Z M 15219,8637 L 15410,8527 15410,8637 15219,8637 Z M 15410,8647 L 15410,9627 14899,9627 14905,8818 15202,8647 15410,8647 Z"/>
     <path fill="rgb(104,104,104)" stroke="none" d="M 15410,9627 L 15410,10275 14892,10566 14899,9627 15410,9627 Z M 15202,8647 L 15410,8527 15410,8647 15202,8647 Z M 15410,8657 L 15410,9617 14899,9617 14905,8818 15184,8657 15410,8657 Z"/>
     <path fill="rgb(105,105,105)" stroke="none" d="M 15410,9617 L 15410,10275 14892,10566 14899,9617 15410,9617 Z M 15184,8657 L 15410,8527 15410,8657 15184,8657 Z M 15410,8667 L 15410,9607 14899,9607 14905,8818 15167,8667 15410,8667 Z"/>
     <path fill="rgb(106,106,106)" stroke="none" d="M 15410,9607 L 15410,10275 14892,10566 14899,9607 15410,9607 Z M 15167,8667 L 15410,8527 15410,8667 15167,8667 Z M 15410,8677 L 15410,9597 14899,9597 14905,8818 15150,8677 15410,8677 Z"/>
     <path fill="rgb(107,107,107)" stroke="none" d="M 15410,9597 L 15410,10275 14892,10566 14899,9597 15410,9597 Z M 15150,8677 L 15410,8527 15410,8677 15150,8677 Z M 15410,8687 L 15410,9587 14899,9587 14905,8818 15132,8687 15410,8687 Z"/>
     <path fill="rgb(108,108,108)" stroke="none" d="M 15410,9587 L 15410,10275 14892,10566 14899,9587 15410,9587 Z M 15132,8687 L 15410,8527 15410,8687 15132,8687 Z M 15410,8697 L 15410,9577 14899,9577 14905,8818 15115,8697 15410,8697 Z"/>
     <path fill="rgb(109,109,109)" stroke="none" d="M 15410,9577 L 15410,10275 14892,10566 14899,9577 15410,9577 Z M 15115,8697 L 15410,8527 15410,8697 15115,8697 Z M 15410,8707 L 15410,9567 14899,9567 14905,8818 15098,8707 15410,8707 Z"/>
     <path fill="rgb(110,110,110)" stroke="none" d="M 15410,9567 L 15410,10275 14892,10566 14899,9567 15410,9567 Z M 15098,8707 L 15410,8527 15410,8707 15098,8707 Z M 15410,8717 L 15410,9557 14900,9557 14905,8818 15080,8717 15410,8717 Z"/>
     <path fill="rgb(111,111,111)" stroke="none" d="M 15410,9557 L 15410,10275 14892,10566 14900,9557 15410,9557 Z M 15080,8717 L 15410,8527 15410,8717 15080,8717 Z M 15410,8727 L 15410,9547 14900,9547 14905,8818 15063,8727 15410,8727 Z"/>
     <path fill="rgb(112,112,112)" stroke="none" d="M 15410,9547 L 15410,10275 14892,10566 14900,9547 15410,9547 Z M 15063,8727 L 15410,8527 15410,8727 15063,8727 Z M 15410,8737 L 15410,9537 14900,9537 14905,8818 15046,8737 15410,8737 Z"/>
     <path fill="rgb(113,113,113)" stroke="none" d="M 15410,9537 L 15410,10275 14892,10566 14900,9537 15410,9537 Z M 15046,8737 L 15410,8527 15410,8737 15046,8737 Z M 15410,8747 L 15410,9527 14900,9527 14905,8818 15028,8747 15410,8747 Z"/>
     <path fill="rgb(114,114,114)" stroke="none" d="M 15410,9527 L 15410,10275 14892,10566 14900,9527 15410,9527 Z M 15028,8747 L 15410,8527 15410,8747 15028,8747 Z M 15410,8757 L 15410,9517 14900,9517 14905,8818 15011,8757 15410,8757 Z"/>
     <path fill="rgb(115,115,115)" stroke="none" d="M 15410,9517 L 15410,10275 14892,10566 14900,9517 15410,9517 Z M 15011,8757 L 15410,8527 15410,8757 15011,8757 Z M 15410,8767 L 15410,9507 14900,9507 14905,8818 14994,8767 15410,8767 Z"/>
     <path fill="rgb(116,116,116)" stroke="none" d="M 15410,9507 L 15410,10275 14892,10566 14900,9507 15410,9507 Z M 14994,8767 L 15410,8527 15410,8767 14994,8767 Z M 15406,8777 L 15406,9497 14900,9497 14905,8818 14976,8777 15406,8777 Z"/>
     <path fill="rgb(117,117,117)" stroke="none" d="M 15406,9497 L 15406,8777 14976,8777 15410,8527 15410,10275 14892,10566 14900,9497 15406,9497 Z M 15396,8787 L 15396,9487 14900,9487 14905,8818 14959,8787 15396,8787 Z"/>
     <path fill="rgb(118,118,118)" stroke="none" d="M 15396,9487 L 15396,8787 14959,8787 15410,8527 15410,10275 14892,10566 14900,9487 15396,9487 Z M 15386,8797 L 15386,9477 14900,9477 14905,8818 14941,8797 15386,8797 Z"/>
     <path fill="rgb(119,119,119)" stroke="none" d="M 15386,9477 L 15386,8797 14941,8797 15410,8527 15410,10275 14892,10566 14900,9477 15386,9477 Z M 15376,8807 L 15376,9467 14900,9467 14905,8818 14924,8807 15376,8807 Z"/>
     <path fill="rgb(120,120,120)" stroke="none" d="M 15376,9467 L 15376,8807 14924,8807 15410,8527 15410,10275 14892,10566 14900,9467 15376,9467 Z M 15366,8817 L 15366,9457 14900,9457 14905,8818 14907,8817 15366,8817 Z"/>
     <path fill="rgb(121,121,121)" stroke="none" d="M 15366,9457 L 15366,8817 14907,8817 15410,8527 15410,10275 14892,10566 14900,9457 15366,9457 Z M 15356,8827 L 15356,9447 14900,9447 14905,8827 15356,8827 Z"/>
     <path fill="rgb(122,122,122)" stroke="none" d="M 15356,9447 L 15356,8827 14905,8827 14905,8818 15410,8527 15410,10275 14892,10566 14900,9447 15356,9447 Z M 15346,8837 L 15346,9437 14900,9437 14905,8837 15346,8837 Z"/>
     <path fill="rgb(123,123,123)" stroke="none" d="M 15346,9437 L 15346,8837 14905,8837 14905,8818 15410,8527 15410,10275 14892,10566 14900,9437 15346,9437 Z M 15336,8847 L 15336,9427 14900,9427 14905,8847 15336,8847 Z"/>
     <path fill="rgb(124,124,124)" stroke="none" d="M 15336,9427 L 15336,8847 14905,8847 14905,8818 15410,8527 15410,10275 14892,10566 14900,9427 15336,9427 Z M 15326,8857 L 15326,9417 14901,9417 14905,8857 15326,8857 Z"/>
     <path fill="rgb(125,125,125)" stroke="none" d="M 15326,9417 L 15326,8857 14905,8857 14905,8818 15410,8527 15410,10275 14892,10566 14901,9417 15326,9417 Z M 15316,8867 L 15316,9407 14901,9407 14905,8867 15316,8867 Z"/>
     <path fill="rgb(126,126,126)" stroke="none" d="M 15316,9407 L 15316,8867 14905,8867 14905,8818 15410,8527 15410,10275 14892,10566 14901,9407 15316,9407 Z M 15306,8877 L 15306,9397 14901,9397 14905,8877 15306,8877 Z"/>
     <path fill="rgb(127,127,127)" stroke="none" d="M 15306,9397 L 15306,8877 14905,8877 14905,8818 15410,8527 15410,10275 14892,10566 14901,9397 15306,9397 Z M 15296,8887 L 15296,9387 14901,9387 14904,8887 15296,8887 Z"/>
     <path fill="rgb(128,128,128)" stroke="none" d="M 15296,9387 L 15296,8887 14904,8887 14905,8818 15410,8527 15410,10275 14892,10566 14901,9387 15296,9387 Z M 15286,8897 L 15286,9377 14901,9377 14904,8897 15286,8897 Z"/>
     <path fill="rgb(129,129,129)" stroke="none" d="M 15286,9377 L 15286,8897 14904,8897 14905,8818 15410,8527 15410,10275 14892,10566 14901,9377 15286,9377 Z M 15276,8907 L 15276,9367 14901,9367 14904,8907 15276,8907 Z"/>
     <path fill="rgb(130,130,130)" stroke="none" d="M 15276,9367 L 15276,8907 14904,8907 14905,8818 15410,8527 15410,10275 14892,10566 14901,9367 15276,9367 Z M 15266,8917 L 15266,9357 14901,9357 14904,8917 15266,8917 Z"/>
     <path fill="rgb(131,131,131)" stroke="none" d="M 15266,9357 L 15266,8917 14904,8917 14905,8818 15410,8527 15410,10275 14892,10566 14901,9357 15266,9357 Z M 15256,8927 L 15256,9347 14901,9347 14904,8927 15256,8927 Z"/>
     <path fill="rgb(132,132,132)" stroke="none" d="M 15256,9347 L 15256,8927 14904,8927 14905,8818 15410,8527 15410,10275 14892,10566 14901,9347 15256,9347 Z M 15246,8937 L 15246,9337 14901,9337 14904,8937 15246,8937 Z"/>
     <path fill="rgb(133,133,133)" stroke="none" d="M 15246,9337 L 15246,8937 14904,8937 14905,8818 15410,8527 15410,10275 14892,10566 14901,9337 15246,9337 Z M 15236,8947 L 15236,9327 14901,9327 14904,8947 15236,8947 Z"/>
     <path fill="rgb(134,134,134)" stroke="none" d="M 15236,9327 L 15236,8947 14904,8947 14905,8818 15410,8527 15410,10275 14892,10566 14901,9327 15236,9327 Z M 15226,8957 L 15226,9317 14901,9317 14904,8957 15226,8957 Z"/>
     <path fill="rgb(135,135,135)" stroke="none" d="M 15226,9317 L 15226,8957 14904,8957 14905,8818 15410,8527 15410,10275 14892,10566 14901,9317 15226,9317 Z M 15216,8967 L 15216,9307 14901,9307 14904,8967 15216,8967 Z"/>
     <path fill="rgb(136,136,136)" stroke="none" d="M 15216,9307 L 15216,8967 14904,8967 14905,8818 15410,8527 15410,10275 14892,10566 14901,9307 15216,9307 Z M 15206,8977 L 15206,9297 14901,9297 14904,8977 15206,8977 Z"/>
     <path fill="rgb(137,137,137)" stroke="none" d="M 15206,9297 L 15206,8977 14904,8977 14905,8818 15410,8527 15410,10275 14892,10566 14901,9297 15206,9297 Z M 15196,8987 L 15196,9287 14902,9287 14904,8987 15196,8987 Z"/>
     <path fill="rgb(138,138,138)" stroke="none" d="M 15196,9287 L 15196,8987 14904,8987 14905,8818 15410,8527 15410,10275 14892,10566 14902,9287 15196,9287 Z M 14906,8997 L 15186,8997 15186,9277 14906,9277 14906,8997 Z"/>
     <path fill="rgb(139,139,139)" stroke="none" d="M 14906,8997 L 14906,9277 15186,9277 15186,8997 14906,8997 Z M 14916,9007 L 15176,9007 15176,9267 14916,9267 14916,9007 Z M 14892,10566 L 14905,8818 15410,8527 15410,10275 14892,10566 Z"/>
     <path fill="rgb(140,140,140)" stroke="none" d="M 14916,9007 L 14916,9267 15176,9267 15176,9007 14916,9007 Z M 14926,9017 L 15166,9017 15166,9257 14926,9257 14926,9017 Z M 14892,10566 L 14905,8818 15410,8527 15410,10275 14892,10566 Z"/>
     <path fill="rgb(141,141,141)" stroke="none" d="M 14926,9017 L 14926,9257 15166,9257 15166,9017 14926,9017 Z M 14936,9027 L 15156,9027 15156,9247 14936,9247 14936,9027 Z M 14892,10566 L 14905,8818 15410,8527 15410,10275 14892,10566 Z"/>
     <path fill="rgb(142,142,142)" stroke="none" d="M 14936,9027 L 14936,9247 15156,9247 15156,9027 14936,9027 Z M 14946,9037 L 15146,9037 15146,9237 14946,9237 14946,9037 Z M 14892,10566 L 14905,8818 15410,8527 15410,10275 14892,10566 Z"/>
     <path fill="rgb(143,143,143)" stroke="none" d="M 14946,9037 L 14946,9237 15146,9237 15146,9037 14946,9037 Z M 14956,9047 L 15136,9047 15136,9227 14956,9227 14956,9047 Z M 14892,10566 L 14905,8818 15410,8527 15410,10275 14892,10566 Z"/>
     <path fill="rgb(144,144,144)" stroke="none" d="M 14956,9047 L 14956,9227 15136,9227 15136,9047 14956,9047 Z M 14966,9057 L 15126,9057 15126,9217 14966,9217 14966,9057 Z M 14892,10566 L 14905,8818 15410,8527 15410,10275 14892,10566 Z"/>
     <path fill="rgb(145,145,145)" stroke="none" d="M 14966,9057 L 14966,9217 15126,9217 15126,9057 14966,9057 Z M 14976,9067 L 15116,9067 15116,9207 14976,9207 14976,9067 Z M 14892,10566 L 14905,8818 15410,8527 15410,10275 14892,10566 Z"/>
     <path fill="rgb(146,146,146)" stroke="none" d="M 14976,9067 L 14976,9207 15116,9207 15116,9067 14976,9067 Z M 14986,9077 L 15106,9077 15106,9197 14986,9197 14986,9077 Z M 14892,10566 L 14905,8818 15410,8527 15410,10275 14892,10566 Z"/>
     <path fill="rgb(147,147,147)" stroke="none" d="M 14986,9077 L 14986,9197 15106,9197 15106,9077 14986,9077 Z M 14996,9087 L 15096,9087 15096,9187 14996,9187 14996,9087 Z M 14892,10566 L 14905,8818 15410,8527 15410,10275 14892,10566 Z"/>
     <path fill="rgb(148,148,148)" stroke="none" d="M 14996,9087 L 14996,9187 15096,9187 15096,9087 14996,9087 Z M 15006,9097 L 15086,9097 15086,9177 15006,9177 15006,9097 Z M 14892,10566 L 14905,8818 15410,8527 15410,10275 14892,10566 Z"/>
     <path fill="rgb(149,149,149)" stroke="none" d="M 15006,9097 L 15006,9177 15086,9177 15086,9097 15006,9097 Z M 15016,9107 L 15076,9107 15076,9167 15016,9167 15016,9107 Z M 14892,10566 L 14905,8818 15410,8527 15410,10275 14892,10566 Z"/>
     <path fill="rgb(150,150,150)" stroke="none" d="M 15016,9107 L 15016,9167 15076,9167 15076,9107 15016,9107 Z M 15026,9117 L 15066,9117 15066,9157 15026,9157 15026,9117 Z M 14892,10566 L 14905,8818 15410,8527 15410,10275 14892,10566 Z"/>
     <path fill="rgb(151,151,151)" stroke="none" d="M 15026,9117 L 15026,9157 15066,9157 15066,9117 15026,9117 Z M 15036,9127 L 15056,9127 15056,9147 15036,9147 15036,9127 Z M 14892,10566 L 14905,8818 15410,8527 15410,10275 14892,10566 Z"/>
     <path fill="rgb(153,153,153)" stroke="none" d="M 15036,9127 L 15036,9147 15056,9147 15056,9127 15036,9127 Z M 14892,10566 L 14905,8818 15410,8527 15410,10275 14892,10566 Z"/>
     <path fill="none" stroke="rgb(178,178,178)" id="Drawing_5_0" stroke-width="40" stroke-linejoin="round" d="M 14892,10566 L 14905,8818 15410,8527 15410,10275 14892,10566 Z"/>
    </g>
    <g>
     <defs>
      <linearGradient id="Gradient_731" gradientUnits="userSpaceOnUse" x1="13771" y1="7434" x2="13771" y2="8745">
       <stop offset="0.1" stop-color="rgb(51,51,51)"/>
       <stop offset="1" stop-color="rgb(153,153,153)"/>
      </linearGradient>
     </defs>
     <path fill="url(#Gradient_731)" stroke="rgb(178,178,178)" id="Drawing_6_0" stroke-width="40" stroke-linejoin="round" d="M 14779,8745 L 12637,7507 12763,7434 14906,8672 14779,8745 Z"/>
    </g>
    <g>
     <path fill="none" stroke="rgb(102,102,102)" id="Drawing_7_0" stroke-width="40" stroke-linejoin="round" d="M 14906,8963 L 15284,8745"/>
    </g>
    <g>
     <path fill="none" stroke="rgb(102,102,102)" id="Drawing_8_0" stroke-width="40" stroke-linejoin="round" d="M 14906,9036 L 15284,8818"/>
    </g>
    <g>
     <path fill="none" stroke="rgb(102,102,102)" id="Drawing_9_0" stroke-width="40" stroke-linejoin="round" d="M 14906,9109 L 15284,8891"/>
    </g>
    <g>
     <path fill="none" stroke="rgb(102,102,102)" id="Drawing_10_0" stroke-width="40" stroke-linejoin="round" d="M 14906,9181 L 15284,8963"/>
    </g>
    <g>
     <path fill="none" stroke="rgb(102,102,102)" id="Drawing_11_0" stroke-width="40" stroke-linejoin="round" d="M 14906,9254 L 15284,9036"/>
    </g>
    <g>
     <path fill="none" stroke="rgb(102,102,102)" id="Drawing_12_0" stroke-width="40" stroke-linejoin="round" d="M 14906,9327 L 15284,9109"/>
    </g>
    <g>
     <path fill="none" stroke="rgb(102,102,102)" id="Drawing_13_0" stroke-width="40" stroke-linejoin="round" d="M 14906,9400 L 15284,9182"/>
    </g>
    <g>
     <path fill="none" stroke="rgb(102,102,102)" id="Drawing_14_0" stroke-width="40" stroke-linejoin="round" d="M 14906,9473 L 15284,9255"/>
    </g>
    <g>
     <path fill="none" stroke="rgb(102,102,102)" id="Drawing_15_0" stroke-width="40" stroke-linejoin="round" d="M 14906,9545 L 15284,9327"/>
    </g>
    <g>
     <path fill="none" stroke="rgb(102,102,102)" id="Drawing_16_0" stroke-width="40" stroke-linejoin="round" d="M 14906,9618 L 15284,9400"/>
    </g>
    <g>
     <path fill="none" stroke="rgb(102,102,102)" id="Drawing_17_0" stroke-width="40" stroke-linejoin="round" d="M 14906,9691 L 15284,9473"/>
    </g>
    <g>
     <path fill="none" stroke="rgb(102,102,102)" id="Drawing_18_0" stroke-width="40" stroke-linejoin="round" d="M 14906,9764 L 15284,9546"/>
    </g>
    <g>
     <path fill="none" stroke="rgb(102,102,102)" id="Drawing_19_0" stroke-width="40" stroke-linejoin="round" d="M 14906,9836 L 15284,9618"/>
    </g>
    <g>
     <path fill="none" stroke="rgb(102,102,102)" id="Drawing_20_0" stroke-width="40" stroke-linejoin="round" d="M 14906,9909 L 15284,9691"/>
    </g>
    <g>
     <path fill="none" stroke="rgb(102,102,102)" id="Drawing_21_0" stroke-width="40" stroke-linejoin="round" d="M 14906,9982 L 15284,9764"/>
    </g>
    <g>
     <path fill="none" stroke="rgb(102,102,102)" id="Drawing_22_0" stroke-width="40" stroke-linejoin="round" d="M 14906,10055 L 15284,9837"/>
    </g>
    <g>
     <path fill="none" stroke="rgb(102,102,102)" id="Drawing_23_0" stroke-width="40" stroke-linejoin="round" d="M 14906,10128 L 15284,9910"/>
    </g>
    <g>
     <path fill="none" stroke="rgb(102,102,102)" id="Drawing_24_0" stroke-width="40" stroke-linejoin="round" d="M 14906,10201 L 15284,9983"/>
    </g>
    <g>
     <path fill="rgb(51,51,51)" stroke="none" d="M 14779,10351 L 14779,8745 14905,8672 14917,10351 14779,10351 Z"/>
     <path fill="rgb(52,52,52)" stroke="none" d="M 14917,10351 L 14919,10711 14779,10784 14779,10351 14917,10351 Z M 14779,10341 L 14779,8745 14905,8672 14916,10341 14779,10341 Z"/>
     <path fill="rgb(53,53,53)" stroke="none" d="M 14916,10341 L 14919,10711 14779,10784 14779,10341 14916,10341 Z M 14779,10330 L 14779,8745 14905,8672 14916,10330 14779,10330 Z"/>
     <path fill="rgb(54,54,54)" stroke="none" d="M 14916,10330 L 14919,10711 14779,10784 14779,10330 14916,10330 Z M 14779,10320 L 14779,8745 14905,8672 14916,10320 14779,10320 Z"/>
     <path fill="rgb(55,55,55)" stroke="none" d="M 14916,10320 L 14919,10711 14779,10784 14779,10320 14916,10320 Z M 14779,10310 L 14779,8745 14905,8672 14916,10310 14779,10310 Z"/>
     <path fill="rgb(56,56,56)" stroke="none" d="M 14916,10310 L 14919,10711 14779,10784 14779,10310 14916,10310 Z M 14779,10299 L 14779,8745 14905,8672 14916,10299 14779,10299 Z"/>
     <path fill="rgb(57,57,57)" stroke="none" d="M 14916,10299 L 14919,10711 14779,10784 14779,10299 14916,10299 Z M 14779,10289 L 14779,8745 14905,8672 14916,10289 14779,10289 Z"/>
     <path fill="rgb(58,58,58)" stroke="none" d="M 14916,10289 L 14919,10711 14779,10784 14779,10289 14916,10289 Z M 14779,10279 L 14779,8745 14905,8672 14916,10279 14779,10279 Z"/>
     <path fill="rgb(59,59,59)" stroke="none" d="M 14916,10279 L 14919,10711 14779,10784 14779,10279 14916,10279 Z M 14779,10268 L 14779,8745 14905,8672 14916,10268 14779,10268 Z"/>
     <path fill="rgb(60,60,60)" stroke="none" d="M 14916,10268 L 14919,10711 14779,10784 14779,10268 14916,10268 Z M 14779,10258 L 14779,8745 14905,8672 14916,10258 14779,10258 Z"/>
     <path fill="rgb(61,61,61)" stroke="none" d="M 14916,10258 L 14919,10711 14779,10784 14779,10258 14916,10258 Z M 14779,10247 L 14779,8745 14905,8672 14916,10247 14779,10247 Z"/>
     <path fill="rgb(62,62,62)" stroke="none" d="M 14916,10247 L 14919,10711 14779,10784 14779,10247 14916,10247 Z M 14779,10237 L 14779,8745 14905,8672 14916,10237 14779,10237 Z"/>
     <path fill="rgb(63,63,63)" stroke="none" d="M 14916,10237 L 14919,10711 14779,10784 14779,10237 14916,10237 Z M 14779,10227 L 14779,8745 14905,8672 14916,10227 14779,10227 Z"/>
     <path fill="rgb(64,64,64)" stroke="none" d="M 14916,10227 L 14919,10711 14779,10784 14779,10227 14916,10227 Z M 14779,10216 L 14779,8745 14905,8672 14916,10216 14779,10216 Z"/>
     <path fill="rgb(65,65,65)" stroke="none" d="M 14916,10216 L 14919,10711 14779,10784 14779,10216 14916,10216 Z M 14779,10206 L 14779,8745 14905,8672 14916,10206 14779,10206 Z"/>
     <path fill="rgb(66,66,66)" stroke="none" d="M 14916,10206 L 14919,10711 14779,10784 14779,10206 14916,10206 Z M 14779,10196 L 14779,8745 14905,8672 14915,10196 14779,10196 Z"/>
     <path fill="rgb(67,67,67)" stroke="none" d="M 14915,10196 L 14919,10711 14779,10784 14779,10196 14915,10196 Z M 14779,10185 L 14779,8745 14905,8672 14915,10185 14779,10185 Z"/>
     <path fill="rgb(68,68,68)" stroke="none" d="M 14915,10185 L 14919,10711 14779,10784 14779,10185 14915,10185 Z M 14779,10175 L 14779,8745 14905,8672 14915,10175 14779,10175 Z"/>
     <path fill="rgb(69,69,69)" stroke="none" d="M 14915,10175 L 14919,10711 14779,10784 14779,10175 14915,10175 Z M 14779,10165 L 14779,8745 14905,8672 14915,10165 14779,10165 Z"/>
     <path fill="rgb(70,70,70)" stroke="none" d="M 14915,10165 L 14919,10711 14779,10784 14779,10165 14915,10165 Z M 14779,10154 L 14779,8745 14905,8672 14915,10154 14779,10154 Z"/>
     <path fill="rgb(71,71,71)" stroke="none" d="M 14915,10154 L 14919,10711 14779,10784 14779,10154 14915,10154 Z M 14779,10144 L 14779,8745 14905,8672 14915,10144 14779,10144 Z"/>
     <path fill="rgb(72,72,72)" stroke="none" d="M 14915,10144 L 14919,10711 14779,10784 14779,10144 14915,10144 Z M 14779,10133 L 14779,8745 14905,8672 14915,10133 14779,10133 Z"/>
     <path fill="rgb(73,73,73)" stroke="none" d="M 14915,10133 L 14919,10711 14779,10784 14779,10133 14915,10133 Z M 14779,10123 L 14779,8745 14905,8672 14915,10123 14779,10123 Z"/>
     <path fill="rgb(74,74,74)" stroke="none" d="M 14915,10123 L 14919,10711 14779,10784 14779,10123 14915,10123 Z M 14779,10113 L 14779,8745 14905,8672 14915,10113 14779,10113 Z"/>
     <path fill="rgb(75,75,75)" stroke="none" d="M 14915,10113 L 14919,10711 14779,10784 14779,10113 14915,10113 Z M 14779,10102 L 14779,8745 14905,8672 14915,10102 14779,10102 Z"/>
     <path fill="rgb(76,76,76)" stroke="none" d="M 14915,10102 L 14919,10711 14779,10784 14779,10102 14915,10102 Z M 14779,10092 L 14779,8745 14905,8672 14915,10092 14779,10092 Z"/>
     <path fill="rgb(77,77,77)" stroke="none" d="M 14915,10092 L 14919,10711 14779,10784 14779,10092 14915,10092 Z M 14779,10082 L 14779,8745 14905,8672 14915,10082 14779,10082 Z"/>
     <path fill="rgb(78,78,78)" stroke="none" d="M 14915,10082 L 14919,10711 14779,10784 14779,10082 14915,10082 Z M 14779,10071 L 14779,8745 14905,8672 14915,10071 14779,10071 Z"/>
     <path fill="rgb(79,79,79)" stroke="none" d="M 14915,10071 L 14919,10711 14779,10784 14779,10071 14915,10071 Z M 14779,10061 L 14779,8745 14905,8672 14915,10061 14779,10061 Z"/>
     <path fill="rgb(80,80,80)" stroke="none" d="M 14915,10061 L 14919,10711 14779,10784 14779,10061 14915,10061 Z M 14779,10050 L 14779,8745 14905,8672 14914,10050 14779,10050 Z"/>
     <path fill="rgb(81,81,81)" stroke="none" d="M 14914,10050 L 14919,10711 14779,10784 14779,10050 14914,10050 Z M 14779,10040 L 14779,8745 14905,8672 14914,10040 14779,10040 Z"/>
     <path fill="rgb(82,82,82)" stroke="none" d="M 14914,10040 L 14919,10711 14779,10784 14779,10040 14914,10040 Z M 14779,10030 L 14779,8745 14905,8672 14914,10030 14779,10030 Z"/>
     <path fill="rgb(83,83,83)" stroke="none" d="M 14914,10030 L 14919,10711 14779,10784 14779,10030 14914,10030 Z M 14779,10019 L 14779,8745 14905,8672 14914,10019 14779,10019 Z"/>
     <path fill="rgb(84,84,84)" stroke="none" d="M 14914,10019 L 14919,10711 14779,10784 14779,10019 14914,10019 Z M 14779,10009 L 14779,8745 14905,8672 14914,10009 14779,10009 Z"/>
     <path fill="rgb(85,85,85)" stroke="none" d="M 14914,10009 L 14919,10711 14779,10784 14779,10009 14914,10009 Z M 14779,9999 L 14779,8745 14905,8672 14914,9999 14779,9999 Z"/>
     <path fill="rgb(86,86,86)" stroke="none" d="M 14914,9999 L 14919,10711 14779,10784 14779,9999 14914,9999 Z M 14779,9988 L 14779,8745 14905,8672 14914,9988 14779,9988 Z"/>
     <path fill="rgb(87,87,87)" stroke="none" d="M 14914,9988 L 14919,10711 14779,10784 14779,9988 14914,9988 Z M 14779,9978 L 14779,8745 14905,8672 14914,9978 14779,9978 Z"/>
     <path fill="rgb(88,88,88)" stroke="none" d="M 14914,9978 L 14919,10711 14779,10784 14779,9978 14914,9978 Z M 14779,9968 L 14779,8745 14905,8672 14914,9968 14779,9968 Z"/>
     <path fill="rgb(89,89,89)" stroke="none" d="M 14914,9968 L 14919,10711 14779,10784 14779,9968 14914,9968 Z M 14779,9957 L 14779,8745 14905,8672 14914,9957 14779,9957 Z"/>
     <path fill="rgb(90,90,90)" stroke="none" d="M 14914,9957 L 14919,10711 14779,10784 14779,9957 14914,9957 Z M 14779,9947 L 14779,8745 14905,8672 14914,9947 14779,9947 Z"/>
     <path fill="rgb(91,91,91)" stroke="none" d="M 14914,9947 L 14919,10711 14779,10784 14779,9947 14914,9947 Z M 14905,8673 L 14914,9936 14779,9936 14779,8745 14903,8673 14905,8673 Z"/>
     <path fill="rgb(92,92,92)" stroke="none" d="M 14914,9936 L 14919,10711 14779,10784 14779,9936 14914,9936 Z M 14903,8673 L 14905,8672 14905,8673 14903,8673 Z M 14905,8683 L 14914,9926 14779,9926 14779,8745 14886,8683 14905,8683 Z"/>
     <path fill="rgb(93,93,93)" stroke="none" d="M 14914,9926 L 14919,10711 14779,10784 14779,9926 14914,9926 Z M 14886,8683 L 14905,8672 14905,8683 14886,8683 Z M 14905,8693 L 14914,9916 14779,9916 14779,8745 14869,8693 14905,8693 Z"/>
     <path fill="rgb(94,94,94)" stroke="none" d="M 14914,9916 L 14919,10711 14779,10784 14779,9916 14914,9916 Z M 14869,8693 L 14905,8672 14905,8693 14869,8693 Z M 14905,8704 L 14913,9905 14779,9905 14779,8745 14850,8704 14905,8704 Z"/>
     <path fill="rgb(95,95,95)" stroke="none" d="M 14913,9905 L 14919,10711 14779,10784 14779,9905 14913,9905 Z M 14850,8704 L 14905,8672 14905,8704 14850,8704 Z M 14905,8714 L 14913,9895 14779,9895 14779,8745 14833,8714 14905,8714 Z"/>
     <path fill="rgb(96,96,96)" stroke="none" d="M 14913,9895 L 14919,10711 14779,10784 14779,9895 14913,9895 Z M 14833,8714 L 14905,8672 14905,8714 14833,8714 Z M 14905,8724 L 14913,9885 14779,9885 14779,8745 14815,8724 14905,8724 Z"/>
     <path fill="rgb(97,97,97)" stroke="none" d="M 14913,9885 L 14919,10711 14779,10784 14779,9885 14913,9885 Z M 14815,8724 L 14905,8672 14905,8724 14815,8724 Z M 14905,8735 L 14913,9874 14779,9874 14779,8745 14796,8735 14905,8735 Z"/>
     <path fill="rgb(98,98,98)" stroke="none" d="M 14913,9874 L 14919,10711 14779,10784 14779,9874 14913,9874 Z M 14796,8735 L 14905,8672 14905,8735 14796,8735 Z M 14906,8745 L 14913,9864 14779,9864 14779,8745 14906,8745 Z"/>
     <path fill="rgb(99,99,99)" stroke="none" d="M 14913,9864 L 14919,10711 14779,10784 14779,9864 14913,9864 Z M 14779,8745 L 14905,8672 14906,8745 14779,8745 Z M 14906,8756 L 14913,9853 14779,9853 14779,8756 14906,8756 Z"/>
     <path fill="rgb(100,100,100)" stroke="none" d="M 14913,9853 L 14919,10711 14779,10784 14779,9853 14913,9853 Z M 14779,8756 L 14779,8745 14905,8672 14906,8756 14779,8756 Z M 14906,8766 L 14913,9843 14779,9843 14779,8766 14906,8766 Z"/>
     <path fill="rgb(101,101,101)" stroke="none" d="M 14913,9843 L 14919,10711 14779,10784 14779,9843 14913,9843 Z M 14779,8766 L 14779,8745 14905,8672 14906,8766 14779,8766 Z M 14906,8776 L 14913,9833 14779,9833 14779,8776 14906,8776 Z"/>
     <path fill="rgb(102,102,102)" stroke="none" d="M 14913,9833 L 14919,10711 14779,10784 14779,9833 14913,9833 Z M 14779,8776 L 14779,8745 14905,8672 14906,8776 14779,8776 Z M 14906,8787 L 14913,9822 14779,9822 14779,8787 14906,8787 Z"/>
     <path fill="rgb(103,103,103)" stroke="none" d="M 14913,9822 L 14919,10711 14779,10784 14779,9822 14913,9822 Z M 14779,8787 L 14779,8745 14905,8672 14906,8787 14779,8787 Z M 14906,8797 L 14913,9812 14779,9812 14779,8797 14906,8797 Z"/>
     <path fill="rgb(104,104,104)" stroke="none" d="M 14913,9812 L 14919,10711 14779,10784 14779,9812 14913,9812 Z M 14779,8797 L 14779,8745 14905,8672 14906,8797 14779,8797 Z M 14906,8807 L 14913,9802 14779,9802 14779,8807 14906,8807 Z"/>
     <path fill="rgb(105,105,105)" stroke="none" d="M 14913,9802 L 14919,10711 14779,10784 14779,9802 14913,9802 Z M 14779,8807 L 14779,8745 14905,8672 14906,8807 14779,8807 Z M 14906,8818 L 14913,9791 14779,9791 14779,8818 14906,8818 Z"/>
     <path fill="rgb(106,106,106)" stroke="none" d="M 14913,9791 L 14919,10711 14779,10784 14779,9791 14913,9791 Z M 14779,8818 L 14779,8745 14905,8672 14906,8818 14779,8818 Z M 14906,8828 L 14913,9781 14779,9781 14779,8828 14906,8828 Z"/>
     <path fill="rgb(107,107,107)" stroke="none" d="M 14913,9781 L 14919,10711 14779,10784 14779,9781 14913,9781 Z M 14779,8828 L 14779,8745 14905,8672 14906,8828 14779,8828 Z M 14906,8838 L 14913,9771 14779,9771 14779,8838 14906,8838 Z"/>
     <path fill="rgb(108,108,108)" stroke="none" d="M 14913,9771 L 14919,10711 14779,10784 14779,9771 14913,9771 Z M 14779,8838 L 14779,8745 14905,8672 14906,8838 14779,8838 Z M 14906,8849 L 14912,9760 14779,9760 14779,8849 14906,8849 Z"/>
     <path fill="rgb(109,109,109)" stroke="none" d="M 14912,9760 L 14919,10711 14779,10784 14779,9760 14912,9760 Z M 14779,8849 L 14779,8745 14905,8672 14906,8849 14779,8849 Z M 14906,8859 L 14912,9750 14779,9750 14779,8859 14906,8859 Z"/>
     <path fill="rgb(110,110,110)" stroke="none" d="M 14912,9750 L 14919,10711 14779,10784 14779,9750 14912,9750 Z M 14779,8859 L 14779,8745 14905,8672 14906,8859 14779,8859 Z M 14906,8870 L 14912,9739 14779,9739 14779,8870 14906,8870 Z"/>
     <path fill="rgb(111,111,111)" stroke="none" d="M 14912,9739 L 14919,10711 14779,10784 14779,9739 14912,9739 Z M 14779,8870 L 14779,8745 14905,8672 14906,8870 14779,8870 Z M 14906,8880 L 14912,9729 14779,9729 14779,8880 14906,8880 Z"/>
     <path fill="rgb(112,112,112)" stroke="none" d="M 14912,9729 L 14919,10711 14779,10784 14779,9729 14912,9729 Z M 14779,8880 L 14779,8745 14905,8672 14906,8880 14779,8880 Z M 14906,8890 L 14912,9719 14779,9719 14779,8890 14906,8890 Z"/>
     <path fill="rgb(113,113,113)" stroke="none" d="M 14912,9719 L 14919,10711 14779,10784 14779,9719 14912,9719 Z M 14779,8890 L 14779,8745 14905,8672 14906,8890 14779,8890 Z M 14907,8901 L 14912,9708 14779,9708 14779,8901 14907,8901 Z"/>
     <path fill="rgb(114,114,114)" stroke="none" d="M 14912,9708 L 14919,10711 14779,10784 14779,9708 14912,9708 Z M 14779,8901 L 14779,8745 14905,8672 14907,8901 14779,8901 Z M 14907,8911 L 14912,9698 14779,9698 14779,8911 14907,8911 Z"/>
     <path fill="rgb(115,115,115)" stroke="none" d="M 14912,9698 L 14919,10711 14779,10784 14779,9698 14912,9698 Z M 14779,8911 L 14779,8745 14905,8672 14907,8911 14779,8911 Z M 14907,8921 L 14912,9688 14779,9688 14779,8921 14907,8921 Z"/>
     <path fill="rgb(116,116,116)" stroke="none" d="M 14912,9688 L 14919,10711 14779,10784 14779,9688 14912,9688 Z M 14779,8921 L 14779,8745 14905,8672 14907,8921 14779,8921 Z M 14907,8932 L 14912,9677 14779,9677 14779,8932 14907,8932 Z"/>
     <path fill="rgb(117,117,117)" stroke="none" d="M 14912,9677 L 14919,10711 14779,10784 14779,9677 14912,9677 Z M 14779,8932 L 14779,8745 14905,8672 14907,8932 14779,8932 Z M 14907,8942 L 14912,9667 14779,9667 14779,8942 14907,8942 Z"/>
     <path fill="rgb(118,118,118)" stroke="none" d="M 14912,9667 L 14919,10711 14779,10784 14779,9667 14912,9667 Z M 14779,8942 L 14779,8745 14905,8672 14907,8942 14779,8942 Z M 14907,8953 L 14912,9657 14779,9657 14779,8953 14907,8953 Z"/>
     <path fill="rgb(119,119,119)" stroke="none" d="M 14912,9657 L 14919,10711 14779,10784 14779,9657 14912,9657 Z M 14779,8953 L 14779,8745 14905,8672 14907,8953 14779,8953 Z M 14907,8963 L 14912,9646 14779,9646 14779,8963 14907,8963 Z"/>
     <path fill="rgb(120,120,120)" stroke="none" d="M 14912,9646 L 14919,10711 14779,10784 14779,9646 14912,9646 Z M 14779,8963 L 14779,8745 14905,8672 14907,8963 14779,8963 Z M 14907,8973 L 14912,9636 14779,9636 14779,8973 14907,8973 Z"/>
     <path fill="rgb(121,121,121)" stroke="none" d="M 14912,9636 L 14919,10711 14779,10784 14779,9636 14912,9636 Z M 14779,8973 L 14779,8745 14905,8672 14907,8973 14779,8973 Z M 14907,8984 L 14912,9625 14779,9625 14779,8984 14907,8984 Z"/>
     <path fill="rgb(122,122,122)" stroke="none" d="M 14912,9625 L 14919,10711 14779,10784 14779,9625 14912,9625 Z M 14779,8984 L 14779,8745 14905,8672 14907,8984 14779,8984 Z M 14907,8994 L 14911,9615 14779,9615 14779,8994 14907,8994 Z"/>
     <path fill="rgb(123,123,123)" stroke="none" d="M 14911,9615 L 14919,10711 14779,10784 14779,9615 14911,9615 Z M 14779,8994 L 14779,8745 14905,8672 14907,8994 14779,8994 Z M 14907,9004 L 14911,9605 14779,9605 14779,9004 14907,9004 Z"/>
     <path fill="rgb(124,124,124)" stroke="none" d="M 14911,9605 L 14919,10711 14779,10784 14779,9605 14911,9605 Z M 14779,9004 L 14779,8745 14905,8672 14907,9004 14779,9004 Z M 14907,9015 L 14911,9594 14779,9594 14779,9015 14907,9015 Z"/>
     <path fill="rgb(125,125,125)" stroke="none" d="M 14911,9594 L 14919,10711 14779,10784 14779,9594 14911,9594 Z M 14779,9015 L 14779,8745 14905,8672 14907,9015 14779,9015 Z M 14907,9025 L 14911,9584 14779,9584 14779,9025 14907,9025 Z"/>
     <path fill="rgb(126,126,126)" stroke="none" d="M 14911,9584 L 14919,10711 14779,10784 14779,9584 14911,9584 Z M 14779,9025 L 14779,8745 14905,8672 14907,9025 14779,9025 Z M 14907,9035 L 14911,9574 14779,9574 14779,9035 14907,9035 Z"/>
     <path fill="rgb(127,127,127)" stroke="none" d="M 14911,9574 L 14919,10711 14779,10784 14779,9574 14911,9574 Z M 14779,9035 L 14779,8745 14905,8672 14907,9035 14779,9035 Z M 14908,9046 L 14911,9563 14779,9563 14779,9046 14908,9046 Z"/>
     <path fill="rgb(128,128,128)" stroke="none" d="M 14911,9563 L 14919,10711 14779,10784 14779,9563 14911,9563 Z M 14779,9046 L 14779,8745 14905,8672 14908,9046 14779,9046 Z M 14908,9056 L 14911,9553 14779,9553 14779,9056 14908,9056 Z"/>
     <path fill="rgb(129,129,129)" stroke="none" d="M 14911,9553 L 14919,10711 14779,10784 14779,9553 14911,9553 Z M 14779,9056 L 14779,8745 14905,8672 14908,9056 14779,9056 Z M 14908,9067 L 14911,9542 14779,9542 14779,9067 14908,9067 Z"/>
     <path fill="rgb(130,130,130)" stroke="none" d="M 14911,9542 L 14919,10711 14779,10784 14779,9542 14911,9542 Z M 14779,9067 L 14779,8745 14905,8672 14908,9067 14779,9067 Z M 14908,9077 L 14911,9532 14779,9532 14779,9077 14908,9077 Z"/>
     <path fill="rgb(131,131,131)" stroke="none" d="M 14911,9532 L 14919,10711 14779,10784 14779,9532 14911,9532 Z M 14779,9077 L 14779,8745 14905,8672 14908,9077 14779,9077 Z M 14908,9087 L 14911,9522 14779,9522 14779,9087 14908,9087 Z"/>
     <path fill="rgb(132,132,132)" stroke="none" d="M 14911,9522 L 14919,10711 14779,10784 14779,9522 14911,9522 Z M 14779,9087 L 14779,8745 14905,8672 14908,9087 14779,9087 Z M 14908,9098 L 14911,9511 14779,9511 14779,9098 14908,9098 Z"/>
     <path fill="rgb(133,133,133)" stroke="none" d="M 14911,9511 L 14919,10711 14779,10784 14779,9511 14911,9511 Z M 14779,9098 L 14779,8745 14905,8672 14908,9098 14779,9098 Z M 14908,9108 L 14911,9501 14779,9501 14779,9108 14908,9108 Z"/>
     <path fill="rgb(134,134,134)" stroke="none" d="M 14911,9501 L 14919,10711 14779,10784 14779,9501 14911,9501 Z M 14779,9108 L 14779,8745 14905,8672 14908,9108 14779,9108 Z M 14908,9118 L 14911,9491 14779,9491 14779,9118 14908,9118 Z"/>
     <path fill="rgb(135,135,135)" stroke="none" d="M 14911,9491 L 14919,10711 14779,10784 14779,9491 14911,9491 Z M 14779,9118 L 14779,8745 14905,8672 14908,9118 14779,9118 Z M 14908,9129 L 14911,9480 14779,9480 14779,9129 14908,9129 Z"/>
     <path fill="rgb(136,136,136)" stroke="none" d="M 14911,9480 L 14919,10711 14779,10784 14779,9480 14911,9480 Z M 14779,9129 L 14779,8745 14905,8672 14908,9129 14779,9129 Z M 14908,9139 L 14910,9470 14779,9470 14779,9139 14908,9139 Z"/>
     <path fill="rgb(137,137,137)" stroke="none" d="M 14910,9470 L 14919,10711 14779,10784 14779,9470 14910,9470 Z M 14779,9139 L 14779,8745 14905,8672 14908,9139 14779,9139 Z M 14908,9149 L 14910,9460 14779,9460 14779,9149 14908,9149 Z"/>
     <path fill="rgb(138,138,138)" stroke="none" d="M 14910,9460 L 14919,10711 14779,10784 14779,9460 14910,9460 Z M 14779,9149 L 14779,8745 14905,8672 14908,9149 14779,9149 Z M 14908,9160 L 14910,9449 14779,9449 14779,9160 14908,9160 Z"/>
     <path fill="rgb(139,139,139)" stroke="none" d="M 14910,9449 L 14919,10711 14779,10784 14779,9449 14910,9449 Z M 14779,9160 L 14779,8745 14905,8672 14908,9160 14779,9160 Z M 14908,9170 L 14910,9439 14779,9439 14779,9170 14908,9170 Z"/>
     <path fill="rgb(140,140,140)" stroke="none" d="M 14910,9439 L 14919,10711 14779,10784 14779,9439 14910,9439 Z M 14779,9170 L 14779,8745 14905,8672 14908,9170 14779,9170 Z M 14908,9181 L 14910,9428 14779,9428 14779,9181 14908,9181 Z"/>
     <path fill="rgb(141,141,141)" stroke="none" d="M 14910,9428 L 14919,10711 14779,10784 14779,9428 14910,9428 Z M 14779,9181 L 14779,8745 14905,8672 14908,9181 14779,9181 Z M 14909,9191 L 14910,9418 14779,9418 14779,9191 14909,9191 Z"/>
     <path fill="rgb(142,142,142)" stroke="none" d="M 14910,9418 L 14919,10711 14779,10784 14779,9418 14910,9418 Z M 14779,9191 L 14779,8745 14905,8672 14909,9191 14779,9191 Z M 14909,9201 L 14910,9408 14779,9408 14779,9201 14909,9201 Z"/>
     <path fill="rgb(143,143,143)" stroke="none" d="M 14910,9408 L 14919,10711 14779,10784 14779,9408 14910,9408 Z M 14779,9201 L 14779,8745 14905,8672 14909,9201 14779,9201 Z M 14909,9212 L 14910,9397 14779,9397 14779,9212 14909,9212 Z"/>
     <path fill="rgb(144,144,144)" stroke="none" d="M 14910,9397 L 14919,10711 14779,10784 14779,9397 14910,9397 Z M 14779,9212 L 14779,8745 14905,8672 14909,9212 14779,9212 Z M 14902,9222 L 14902,9387 14779,9387 14779,9222 14902,9222 Z"/>
     <path fill="rgb(145,145,145)" stroke="none" d="M 14902,9387 L 14902,9222 14779,9222 14779,8745 14905,8672 14919,10711 14779,10784 14779,9387 14902,9387 Z M 14892,9232 L 14892,9377 14779,9377 14779,9232 14892,9232 Z"/>
     <path fill="rgb(146,146,146)" stroke="none" d="M 14892,9377 L 14892,9232 14779,9232 14779,8745 14905,8672 14919,10711 14779,10784 14779,9377 14892,9377 Z M 14881,9243 L 14881,9366 14779,9366 14779,9243 14881,9243 Z"/>
     <path fill="rgb(147,147,147)" stroke="none" d="M 14881,9366 L 14881,9243 14779,9243 14779,8745 14905,8672 14919,10711 14779,10784 14779,9366 14881,9366 Z M 14871,9253 L 14871,9356 14779,9356 14779,9253 14871,9253 Z"/>
     <path fill="rgb(148,148,148)" stroke="none" d="M 14871,9356 L 14871,9253 14779,9253 14779,8745 14905,8672 14919,10711 14779,10784 14779,9356 14871,9356 Z M 14779,9264 L 14860,9264 14860,9345 14779,9345 14779,9264 Z"/>
     <path fill="rgb(149,149,149)" stroke="none" d="M 14779,9264 L 14779,8745 14905,8672 14919,10711 14779,10784 14779,9345 14860,9345 14860,9264 14779,9264 Z M 14789,9274 L 14850,9274 14850,9335 14789,9335 14789,9274 Z"/>
     <path fill="rgb(150,150,150)" stroke="none" d="M 14789,9274 L 14789,9335 14850,9335 14850,9274 14789,9274 Z M 14799,9284 L 14840,9284 14840,9325 14799,9325 14799,9284 Z M 14779,10784 L 14779,8745 14905,8672 14919,10711 14779,10784 Z"/>
     <path fill="rgb(151,151,151)" stroke="none" d="M 14799,9284 L 14799,9325 14840,9325 14840,9284 14799,9284 Z M 14810,9295 L 14829,9295 14829,9314 14810,9314 14810,9295 Z M 14779,10784 L 14779,8745 14905,8672 14919,10711 14779,10784 Z"/>
     <path fill="rgb(153,153,153)" stroke="none" d="M 14810,9295 L 14810,9314 14829,9314 14829,9295 14810,9295 Z M 14779,10784 L 14779,8745 14905,8672 14919,10711 14779,10784 Z"/>
     <path fill="none" stroke="rgb(178,178,178)" id="Drawing_25_0" stroke-width="40" stroke-linejoin="round" d="M 14779,10784 L 14779,8745 14905,8672 14919,10711 14779,10784 Z"/>
    </g>
    <g>
     <path fill="none" stroke="rgb(0,0,0)" id="Drawing_26_0" stroke-width="40" stroke-linejoin="round" d="M 12763,7434 L 13141,7652 13519,7434 15409,8527 15409,10275 14906,10566 14918,10711 14779,10784 12637,9546 12637,7507 12763,7434 Z"/>
    </g>
   </g>
  </g>
 </g>
</svg>