<?xml version="1.0" encoding="UTF-8"?>

<svg version="1.2" baseProfile="tiny" width="52.53mm" height="61.44mm" viewBox="2137 13181 5253 6144" preserveAspectRatio="xMidYMid" fill-rule="evenodd" stroke-width="28.222" stroke-linejoin="round" xmlns="http://www.w3.org/2000/svg" xmlns:xlink="http://www.w3.org/1999/xlink" xml:space="preserve">
 <g visibility="visible" id="Slide_1">
  <g id="DrawingGroup_1">
   <g id="DrawingGroup_2">
    <g>
     <path fill="rgb(179,179,179)" stroke="none" d="M 7310,17176 L 7204,17237 6987,17237 6930,17039 7282,16836 7310,16933 7310,17176 Z"/>
     <path fill="rgb(180,180,180)" stroke="none" d="M 7204,17237 L 7018,17345 6987,17237 7204,17237 Z M 7310,16933 L 7370,17141 7310,17176 7310,16933 Z M 7305,17179 L 7213,17232 6986,17232 6930,17039 7282,16836 7305,16916 7305,17179 Z"/>
     <path fill="rgb(181,181,181)" stroke="none" d="M 7213,17232 L 7018,17345 6986,17232 7213,17232 Z M 7305,16916 L 7370,17141 7305,17179 7305,16916 Z M 7300,17182 L 7222,17227 6984,17227 6930,17039 7282,16836 7300,16898 7300,17182 Z"/>
     <path fill="rgb(182,182,182)" stroke="none" d="M 7222,17227 L 7018,17345 6984,17227 7222,17227 Z M 7300,16898 L 7370,17141 7300,17182 7300,16898 Z M 7295,17184 L 7230,17222 6983,17222 6930,17039 7282,16836 7295,16881 7295,17184 Z"/>
     <path fill="rgb(183,183,183)" stroke="none" d="M 7230,17222 L 7018,17345 6983,17222 7230,17222 Z M 7295,16881 L 7370,17141 7295,17184 7295,16881 Z M 7290,17187 L 7239,17217 6981,17217 6930,17039 7282,16836 7290,16864 7290,17187 Z"/>
     <path fill="rgb(184,184,184)" stroke="none" d="M 7239,17217 L 7018,17345 6981,17217 7239,17217 Z M 7290,16864 L 7370,17141 7290,17187 7290,16864 Z M 7285,17190 L 7247,17212 6980,17212 6930,17039 7282,16836 7285,16846 7285,17190 Z"/>
     <path fill="rgb(185,185,185)" stroke="none" d="M 7247,17212 L 7018,17345 6980,17212 7247,17212 Z M 7285,16846 L 7370,17141 7285,17190 7285,16846 Z M 7280,17193 L 7256,17207 6978,17207 6930,17039 7280,16837 7280,17193 Z"/>
     <path fill="rgb(186,186,186)" stroke="none" d="M 7256,17207 L 7018,17345 6978,17207 7256,17207 Z M 7280,16837 L 7282,16836 7370,17141 7280,17193 7280,16837 Z M 7275,17196 L 7265,17202 6977,17202 6930,17039 7275,16840 7275,17196 Z"/>
     <path fill="rgb(187,187,187)" stroke="none" d="M 7265,17202 L 7018,17345 6977,17202 7265,17202 Z M 7275,16840 L 7282,16836 7370,17141 7275,17196 7275,16840 Z M 7269,17196 L 6975,17196 6930,17039 7269,16843 7269,17196 Z"/>
     <path fill="rgb(188,188,188)" stroke="none" d="M 7269,17196 L 7269,16843 7282,16836 7370,17141 7018,17345 6975,17196 7269,17196 Z M 7264,17191 L 6974,17191 6930,17039 7264,16846 7264,17191 Z"/>
     <path fill="rgb(189,189,189)" stroke="none" d="M 7264,17191 L 7264,16846 7282,16836 7370,17141 7018,17345 6974,17191 7264,17191 Z M 7259,17186 L 6972,17186 6930,17039 7259,16849 7259,17186 Z"/>
     <path fill="rgb(190,190,190)" stroke="none" d="M 7259,17186 L 7259,16849 7282,16836 7370,17141 7018,17345 6972,17186 7259,17186 Z M 7254,17181 L 6971,17181 6930,17039 7254,16852 7254,17181 Z"/>
     <path fill="rgb(191,191,191)" stroke="none" d="M 7254,17181 L 7254,16852 7282,16836 7370,17141 7018,17345 6971,17181 7254,17181 Z M 7249,17176 L 6969,17176 6930,17039 7249,16855 7249,17176 Z"/>
     <path fill="rgb(192,192,192)" stroke="none" d="M 7249,17176 L 7249,16855 7282,16836 7370,17141 7018,17345 6969,17176 7249,17176 Z M 7244,17171 L 6968,17171 6930,17039 7244,16858 7244,17171 Z"/>
     <path fill="rgb(193,193,193)" stroke="none" d="M 7244,17171 L 7244,16858 7282,16836 7370,17141 7018,17345 6968,17171 7244,17171 Z M 7239,17166 L 6967,17166 6930,17039 7239,16861 7239,17166 Z"/>
     <path fill="rgb(194,194,194)" stroke="none" d="M 7239,17166 L 7239,16861 7282,16836 7370,17141 7018,17345 6967,17166 7239,17166 Z M 7234,17161 L 6965,17161 6930,17039 7234,16864 7234,17161 Z"/>
     <path fill="rgb(195,195,195)" stroke="none" d="M 7234,17161 L 7234,16864 7282,16836 7370,17141 7018,17345 6965,17161 7234,17161 Z M 7228,17155 L 6963,17155 6930,17039 7228,16867 7228,17155 Z"/>
     <path fill="rgb(196,196,196)" stroke="none" d="M 7228,17155 L 7228,16867 7282,16836 7370,17141 7018,17345 6963,17155 7228,17155 Z M 7223,17150 L 6962,17150 6930,17039 7223,16870 7223,17150 Z"/>
     <path fill="rgb(197,197,197)" stroke="none" d="M 7223,17150 L 7223,16870 7282,16836 7370,17141 7018,17345 6962,17150 7223,17150 Z M 7218,17145 L 6960,17145 6930,17039 7218,16873 7218,17145 Z"/>
     <path fill="rgb(198,198,198)" stroke="none" d="M 7218,17145 L 7218,16873 7282,16836 7370,17141 7018,17345 6960,17145 7218,17145 Z M 7213,17140 L 6959,17140 6930,17039 7213,16876 7213,17140 Z"/>
     <path fill="rgb(199,199,199)" stroke="none" d="M 7213,17140 L 7213,16876 7282,16836 7370,17141 7018,17345 6959,17140 7213,17140 Z M 7208,17135 L 6958,17135 6930,17039 7208,16879 7208,17135 Z"/>
     <path fill="rgb(200,200,200)" stroke="none" d="M 7208,17135 L 7208,16879 7282,16836 7370,17141 7018,17345 6958,17135 7208,17135 Z M 7203,17130 L 6956,17130 6930,17039 7203,16882 7203,17130 Z"/>
     <path fill="rgb(201,201,201)" stroke="none" d="M 7203,17130 L 7203,16882 7282,16836 7370,17141 7018,17345 6956,17130 7203,17130 Z M 7198,17125 L 6955,17125 6930,17039 7198,16884 7198,17125 Z"/>
     <path fill="rgb(202,202,202)" stroke="none" d="M 7198,17125 L 7198,16884 7282,16836 7370,17141 7018,17345 6955,17125 7198,17125 Z M 7193,17120 L 6953,17120 6930,17039 7193,16887 7193,17120 Z"/>
     <path fill="rgb(203,203,203)" stroke="none" d="M 7193,17120 L 7193,16887 7282,16836 7370,17141 7018,17345 6953,17120 7193,17120 Z M 7187,17114 L 6952,17114 6933,17049 6933,17037 7187,16891 7187,17114 Z"/>
     <path fill="rgb(204,204,204)" stroke="none" d="M 6933,17049 L 6930,17039 6933,17037 6933,17049 Z M 7187,17114 L 7187,16891 7282,16836 7370,17141 7018,17345 6952,17114 7187,17114 Z M 7182,17109 L 6950,17109 6938,17067 6938,17034 7182,16894 7182,17109 Z"/>
     <path fill="rgb(205,205,205)" stroke="none" d="M 6938,17067 L 6930,17039 6938,17034 6938,17067 Z M 7182,17109 L 7182,16894 7282,16836 7370,17141 7018,17345 6950,17109 7182,17109 Z M 7177,17104 L 6949,17104 6943,17084 6943,17032 7177,16897 7177,17104 Z"/>
     <path fill="rgb(206,206,206)" stroke="none" d="M 6943,17084 L 6930,17039 6943,17032 6943,17084 Z M 7177,17104 L 7177,16897 7282,16836 7370,17141 7018,17345 6949,17104 7177,17104 Z M 7172,17099 L 6948,17099 6948,17029 7172,16899 7172,17099 Z"/>
     <path fill="rgb(207,207,207)" stroke="none" d="M 6948,17099 L 7172,17099 7172,16899 7282,16836 7370,17141 7018,17345 6930,17039 6948,17029 6948,17099 Z M 7167,17094 L 6953,17094 6953,17026 7167,16902 7167,17094 Z"/>
     <path fill="rgb(208,208,208)" stroke="none" d="M 6953,17094 L 7167,17094 7167,16902 7282,16836 7370,17141 7018,17345 6930,17039 6953,17026 6953,17094 Z M 7162,17089 L 6958,17089 6958,17023 7162,16905 7162,17089 Z"/>
     <path fill="rgb(209,209,209)" stroke="none" d="M 6958,17089 L 7162,17089 7162,16905 7282,16836 7370,17141 7018,17345 6930,17039 6958,17023 6958,17089 Z M 7157,17084 L 6963,17084 6963,17020 7157,16908 7157,17084 Z"/>
     <path fill="rgb(210,210,210)" stroke="none" d="M 6963,17084 L 7157,17084 7157,16908 7282,16836 7370,17141 7018,17345 6930,17039 6963,17020 6963,17084 Z M 7152,17079 L 6968,17079 6968,17017 7152,16911 7152,17079 Z"/>
     <path fill="rgb(211,211,211)" stroke="none" d="M 6968,17079 L 7152,17079 7152,16911 7282,16836 7370,17141 7018,17345 6930,17039 6968,17017 6968,17079 Z M 7147,17074 L 6973,17074 6973,17014 7147,16914 7147,17074 Z"/>
     <path fill="rgb(212,212,212)" stroke="none" d="M 6973,17074 L 7147,17074 7147,16914 7282,16836 7370,17141 7018,17345 6930,17039 6973,17014 6973,17074 Z M 7141,17068 L 6979,17068 6979,17011 7141,16917 7141,17068 Z"/>
     <path fill="rgb(213,213,213)" stroke="none" d="M 6979,17068 L 7141,17068 7141,16917 7282,16836 7370,17141 7018,17345 6930,17039 6979,17011 6979,17068 Z M 7136,17063 L 6984,17063 6984,17008 7136,16920 7136,17063 Z"/>
     <path fill="rgb(214,214,214)" stroke="none" d="M 6984,17063 L 7136,17063 7136,16920 7282,16836 7370,17141 7018,17345 6930,17039 6984,17008 6984,17063 Z M 7131,17058 L 6989,17058 6989,17005 7131,16923 7131,17058 Z"/>
     <path fill="rgb(215,215,215)" stroke="none" d="M 6989,17058 L 7131,17058 7131,16923 7282,16836 7370,17141 7018,17345 6930,17039 6989,17005 6989,17058 Z M 7126,17053 L 6994,17053 6994,17002 7126,16926 7126,17053 Z"/>
     <path fill="rgb(216,216,216)" stroke="none" d="M 6994,17053 L 7126,17053 7126,16926 7282,16836 7370,17141 7018,17345 6930,17039 6994,17002 6994,17053 Z M 7121,17048 L 6999,17048 6999,16999 7121,16929 7121,17048 Z"/>
     <path fill="rgb(217,217,217)" stroke="none" d="M 6999,17048 L 7121,17048 7121,16929 7282,16836 7370,17141 7018,17345 6930,17039 6999,16999 6999,17048 Z M 7116,17043 L 7004,17043 7004,16996 7116,16932 7116,17043 Z"/>
     <path fill="rgb(218,218,218)" stroke="none" d="M 7004,17043 L 7116,17043 7116,16932 7282,16836 7370,17141 7018,17345 6930,17039 7004,16996 7004,17043 Z M 7111,16936 L 7111,17038 7009,17038 7009,16993 7109,16936 7111,16936 Z"/>
     <path fill="rgb(219,219,219)" stroke="none" d="M 7009,17038 L 7111,17038 7111,16936 7109,16936 7282,16836 7370,17141 7018,17345 6930,17039 7009,16993 7009,17038 Z M 7106,16941 L 7106,17033 7014,17033 7014,16991 7100,16941 7106,16941 Z"/>
     <path fill="rgb(220,220,220)" stroke="none" d="M 7014,17033 L 7106,17033 7106,16941 7100,16941 7282,16836 7370,17141 7018,17345 6930,17039 7014,16991 7014,17033 Z M 7100,16947 L 7100,17027 7020,17027 7020,16987 7090,16947 7100,16947 Z"/>
     <path fill="rgb(221,221,221)" stroke="none" d="M 7020,17027 L 7100,17027 7100,16947 7090,16947 7282,16836 7370,17141 7018,17345 6930,17039 7020,16987 7020,17027 Z M 7095,16952 L 7095,17022 7025,17022 7025,16984 7081,16952 7095,16952 Z"/>
     <path fill="rgb(222,222,222)" stroke="none" d="M 7025,17022 L 7095,17022 7095,16952 7081,16952 7282,16836 7370,17141 7018,17345 6930,17039 7025,16984 7025,17022 Z M 7090,16957 L 7090,17017 7030,17017 7030,16981 7072,16957 7090,16957 Z"/>
     <path fill="rgb(223,223,223)" stroke="none" d="M 7030,17017 L 7090,17017 7090,16957 7072,16957 7282,16836 7370,17141 7018,17345 6930,17039 7030,16981 7030,17017 Z M 7085,16962 L 7085,17012 7035,17012 7035,16978 7064,16962 7085,16962 Z"/>
     <path fill="rgb(224,224,224)" stroke="none" d="M 7035,17012 L 7085,17012 7085,16962 7064,16962 7282,16836 7370,17141 7018,17345 6930,17039 7035,16978 7035,17012 Z M 7080,16967 L 7080,17007 7040,17007 7040,16976 7055,16967 7080,16967 Z"/>
     <path fill="rgb(225,225,225)" stroke="none" d="M 7040,17007 L 7080,17007 7080,16967 7055,16967 7282,16836 7370,17141 7018,17345 6930,17039 7040,16976 7040,17007 Z M 7075,16972 L 7075,17002 7045,17002 7045,16973 7046,16972 7075,16972 Z"/>
     <path fill="rgb(226,226,226)" stroke="none" d="M 7045,17002 L 7075,17002 7075,16972 7046,16972 7282,16836 7370,17141 7018,17345 6930,17039 7045,16973 7045,17002 Z M 7050,16977 L 7070,16977 7070,16997 7050,16997 7050,16977 Z"/>
     <path fill="rgb(227,227,227)" stroke="none" d="M 7050,16977 L 7050,16997 7070,16997 7070,16977 7050,16977 Z M 7055,16982 L 7065,16982 7065,16992 7055,16992 7055,16982 Z M 7370,17141 L 7018,17345 6930,17039 7282,16836 7370,17141 Z"/>
     <path fill="rgb(229,229,229)" stroke="none" d="M 7055,16982 L 7055,16992 7065,16992 7065,16982 7055,16982 Z M 7370,17141 L 7018,17345 6930,17039 7282,16836 7370,17141 Z"/>
     <path fill="none" stroke="rgb(178,178,178)" id="Drawing_1_0" stroke-width="40" stroke-linejoin="round" d="M 7370,17141 L 7282,16836 6930,17039 7018,17345 7370,17141 Z"/>
    </g>
    <g>
     <defs>
      <linearGradient id="Gradient_79" gradientUnits="userSpaceOnUse" x1="6798" y1="16480" x2="6798" y2="17039">
       <stop offset="0.1" stop-color="rgb(179,179,179)"/>
       <stop offset="1" stop-color="rgb(229,229,229)"/>
      </linearGradient>
     </defs>
     <path fill="url(#Gradient_79)" stroke="rgb(255,255,255)" id="Drawing_2_0" stroke-width="40" stroke-linejoin="round" d="M 7282,16836 L 7106,16683 6842,16531 6666,16480 6314,16683 6490,16734 6754,16887 6930,17039 7282,16836 Z"/>
    </g>
    <g>
     <defs>
      <linearGradient id="Gradient_80" gradientUnits="userSpaceOnUse" x1="6225" y1="17012" x2="7019" y2="17014">
       <stop offset="0.1" stop-color="rgb(179,179,179)"/>
       <stop offset="1" stop-color="rgb(229,229,229)"/>
      </linearGradient>
     </defs>
     <path fill="url(#Gradient_80)" stroke="none" id="Drawing_3_0" d="M 6226,16886 L 6228,16834 6234,16790 6243,16755 6249,16740 6256,16727 6264,16716 6272,16707 6281,16699 6291,16693 6301,16689 6312,16685 6324,16684 6336,16683 6349,16684 6362,16685 6389,16692 6418,16702 6449,16715 6512,16748 6578,16785 6709,16851 6740,16867 6771,16886 6802,16907 6831,16931 6859,16959 6887,16993 6912,17032 6937,17078 6960,17131 6981,17193 7000,17263 7018,17344 6226,16886 Z"/>
     <path fill="none" stroke="rgb(255,255,255)" id="Drawing_3_1" stroke-width="40" stroke-linejoin="round" d="M 6226,16886 C 6226,16581 6402,16683 6578,16785 6754,16886 6930,16886 7018,17344 7018,17344 6666,17141 6226,16886 Z"/>
    </g>
    <g>
     <path fill="none" stroke="rgb(0,0,0)" id="Drawing_4_0" stroke-width="40" stroke-linejoin="round" d="M 6666,16480 C 6842,16531 6842,16531 7018,16633 7106,16683 7282,16734 7370,17141 7194,17243 7194,17243 7018,17345 6917,17298 6402,16989 6226,16887 6226,16633 6402,16633 6666,16480 Z"/>
    </g>
   </g>
   <g id="DrawingGroup_3">
    <g>
     <path fill="rgb(221,221,221)" stroke="none" d="M 3450,17810 C 3691,17810 4299,17530 4420,17460 4541,17390 4419,17180 4178,17180 4178,17333 3450,17810 3450,17810 Z"/>
     <path fill="none" stroke="rgb(221,221,221)" id="Drawing_5_0" stroke-width="40" stroke-linejoin="round" d="M 3450,17810 C 3691,17810 4299,17530 4420,17460 4541,17390 4419,17180 4178,17180 4178,17333 3450,17810 3450,17810 Z"/>
    </g>
    <g id="DrawingGroup_4">
     <g>
      <path fill="rgb(179,179,179)" stroke="none" d="M 3994,17479 L 3420,17811 3301,17811 3301,17677 3994,17276 3994,17479 Z"/>
      <path fill="rgb(180,180,180)" stroke="none" d="M 3420,17811 L 3301,17880 3301,17811 3420,17811 Z M 3994,17276 L 4181,17168 4181,17371 3994,17479 3994,17276 Z M 3984,17485 L 3438,17801 3301,17801 3301,17677 3984,17282 3984,17485 Z"/>
      <path fill="rgb(181,181,181)" stroke="none" d="M 3438,17801 L 3301,17880 3301,17801 3438,17801 Z M 3984,17282 L 4181,17168 4181,17371 3984,17485 3984,17282 Z M 3974,17491 L 3455,17791 3301,17791 3301,17677 3974,17288 3974,17491 Z"/>
      <path fill="rgb(182,182,182)" stroke="none" d="M 3455,17791 L 3301,17880 3301,17791 3455,17791 Z M 3974,17288 L 4181,17168 4181,17371 3974,17491 3974,17288 Z M 3964,17497 L 3472,17781 3301,17781 3301,17677 3964,17294 3964,17497 Z"/>
      <path fill="rgb(183,183,183)" stroke="none" d="M 3472,17781 L 3301,17880 3301,17781 3472,17781 Z M 3964,17294 L 4181,17168 4181,17371 3964,17497 3964,17294 Z M 3954,17502 L 3489,17771 3301,17771 3301,17677 3954,17299 3954,17502 Z"/>
      <path fill="rgb(184,184,184)" stroke="none" d="M 3489,17771 L 3301,17880 3301,17771 3489,17771 Z M 3954,17299 L 4181,17168 4181,17371 3954,17502 3954,17299 Z M 3944,17508 L 3507,17761 3301,17761 3301,17677 3944,17305 3944,17508 Z"/>
      <path fill="rgb(185,185,185)" stroke="none" d="M 3507,17761 L 3301,17880 3301,17761 3507,17761 Z M 3944,17305 L 4181,17168 4181,17371 3944,17508 3944,17305 Z M 3934,17514 L 3524,17751 3301,17751 3301,17677 3934,17311 3934,17514 Z"/>
      <path fill="rgb(186,186,186)" stroke="none" d="M 3524,17751 L 3301,17880 3301,17751 3524,17751 Z M 3934,17311 L 4181,17168 4181,17371 3934,17514 3934,17311 Z M 3924,17520 L 3541,17741 3301,17741 3301,17677 3924,17317 3924,17520 Z"/>
      <path fill="rgb(188,188,188)" stroke="none" d="M 3541,17741 L 3301,17880 3301,17741 3541,17741 Z M 3924,17317 L 4181,17168 4181,17371 3924,17520 3924,17317 Z M 3914,17525 L 3559,17731 3301,17731 3301,17677 3914,17322 3914,17525 Z"/>
      <path fill="rgb(189,189,189)" stroke="none" d="M 3559,17731 L 3301,17880 3301,17731 3559,17731 Z M 3914,17322 L 4181,17168 4181,17371 3914,17525 3914,17322 Z M 3904,17531 L 3576,17721 3301,17721 3301,17677 3904,17328 3904,17531 Z"/>
      <path fill="rgb(190,190,190)" stroke="none" d="M 3576,17721 L 3301,17880 3301,17721 3576,17721 Z M 3904,17328 L 4181,17168 4181,17371 3904,17531 3904,17328 Z M 3894,17537 L 3593,17711 3301,17711 3301,17677 3894,17334 3894,17537 Z"/>
      <path fill="rgb(191,191,191)" stroke="none" d="M 3593,17711 L 3301,17880 3301,17711 3593,17711 Z M 3894,17334 L 4181,17168 4181,17371 3894,17537 3894,17334 Z M 3884,17543 L 3610,17701 3301,17701 3301,17677 3884,17340 3884,17543 Z"/>
      <path fill="rgb(192,192,192)" stroke="none" d="M 3610,17701 L 3301,17880 3301,17701 3610,17701 Z M 3884,17340 L 4181,17168 4181,17371 3884,17543 3884,17340 Z M 3874,17549 L 3628,17691 3301,17691 3301,17677 3874,17346 3874,17549 Z"/>
      <path fill="rgb(193,193,193)" stroke="none" d="M 3628,17691 L 3301,17880 3301,17691 3628,17691 Z M 3874,17346 L 4181,17168 4181,17371 3874,17549 3874,17346 Z M 3864,17554 L 3645,17681 3301,17681 3301,17677 3864,17351 3864,17554 Z"/>
      <path fill="rgb(194,194,194)" stroke="none" d="M 3645,17681 L 3301,17880 3301,17681 3645,17681 Z M 3864,17351 L 4181,17168 4181,17371 3864,17554 3864,17351 Z M 3854,17560 L 3662,17671 3311,17671 3854,17357 3854,17560 Z"/>
      <path fill="rgb(196,196,196)" stroke="none" d="M 3662,17671 L 3301,17880 3301,17677 3311,17671 3662,17671 Z M 3854,17357 L 4181,17168 4181,17371 3854,17560 3854,17357 Z M 3844,17566 L 3680,17661 3329,17661 3844,17363 3844,17566 Z"/>
      <path fill="rgb(197,197,197)" stroke="none" d="M 3680,17661 L 3301,17880 3301,17677 3329,17661 3680,17661 Z M 3844,17363 L 4181,17168 4181,17371 3844,17566 3844,17363 Z M 3834,17572 L 3697,17651 3346,17651 3834,17369 3834,17572 Z"/>
      <path fill="rgb(198,198,198)" stroke="none" d="M 3697,17651 L 3301,17880 3301,17677 3346,17651 3697,17651 Z M 3834,17369 L 4181,17168 4181,17371 3834,17572 3834,17369 Z M 3824,17577 L 3714,17641 3363,17641 3824,17374 3824,17577 Z"/>
      <path fill="rgb(199,199,199)" stroke="none" d="M 3714,17641 L 3301,17880 3301,17677 3363,17641 3714,17641 Z M 3824,17374 L 4181,17168 4181,17371 3824,17577 3824,17374 Z M 3814,17583 L 3731,17631 3381,17631 3814,17380 3814,17583 Z"/>
      <path fill="rgb(200,200,200)" stroke="none" d="M 3731,17631 L 3301,17880 3301,17677 3381,17631 3731,17631 Z M 3814,17380 L 4181,17168 4181,17371 3814,17583 3814,17380 Z M 3804,17589 L 3749,17621 3398,17621 3804,17386 3804,17589 Z"/>
      <path fill="rgb(201,201,201)" stroke="none" d="M 3749,17621 L 3301,17880 3301,17677 3398,17621 3749,17621 Z M 3804,17386 L 4181,17168 4181,17371 3804,17589 3804,17386 Z M 3794,17595 L 3766,17611 3415,17611 3794,17392 3794,17595 Z"/>
      <path fill="rgb(202,202,202)" stroke="none" d="M 3766,17611 L 3301,17880 3301,17677 3415,17611 3766,17611 Z M 3794,17392 L 4181,17168 4181,17371 3794,17595 3794,17392 Z M 3784,17601 L 3783,17601 3432,17601 3784,17398 3784,17601 Z"/>
      <path fill="rgb(204,204,204)" stroke="none" d="M 3783,17601 L 3301,17880 3301,17677 3432,17601 3783,17601 Z M 3784,17398 L 4181,17168 4181,17371 3784,17601 3784,17398 Z M 3774,17591 L 3450,17591 3774,17403 3774,17591 Z"/>
      <path fill="rgb(205,205,205)" stroke="none" d="M 3774,17591 L 3774,17403 4181,17168 4181,17371 3301,17880 3301,17677 3450,17591 3774,17591 Z M 3764,17581 L 3467,17581 3764,17409 3764,17581 Z"/>
      <path fill="rgb(206,206,206)" stroke="none" d="M 3764,17581 L 3764,17409 4181,17168 4181,17371 3301,17880 3301,17677 3467,17581 3764,17581 Z M 3754,17571 L 3484,17571 3754,17415 3754,17571 Z"/>
      <path fill="rgb(207,207,207)" stroke="none" d="M 3754,17571 L 3754,17415 4181,17168 4181,17371 3301,17880 3301,17677 3484,17571 3754,17571 Z M 3744,17561 L 3502,17561 3744,17421 3744,17561 Z"/>
      <path fill="rgb(208,208,208)" stroke="none" d="M 3744,17561 L 3744,17421 4181,17168 4181,17371 3301,17880 3301,17677 3502,17561 3744,17561 Z M 3734,17551 L 3519,17551 3734,17427 3734,17551 Z"/>
      <path fill="rgb(209,209,209)" stroke="none" d="M 3734,17551 L 3734,17427 4181,17168 4181,17371 3301,17880 3301,17677 3519,17551 3734,17551 Z M 3724,17541 L 3536,17541 3724,17432 3724,17541 Z"/>
      <path fill="rgb(210,210,210)" stroke="none" d="M 3724,17541 L 3724,17432 4181,17168 4181,17371 3301,17880 3301,17677 3536,17541 3724,17541 Z M 3714,17531 L 3553,17531 3714,17438 3714,17531 Z"/>
      <path fill="rgb(211,211,211)" stroke="none" d="M 3714,17531 L 3714,17438 4181,17168 4181,17371 3301,17880 3301,17677 3553,17531 3714,17531 Z M 3703,17520 L 3572,17520 3703,17444 3703,17520 Z"/>
      <path fill="rgb(213,213,213)" stroke="none" d="M 3703,17520 L 3703,17444 4181,17168 4181,17371 3301,17880 3301,17677 3572,17520 3703,17520 Z M 3693,17510 L 3590,17510 3693,17450 3693,17510 Z"/>
      <path fill="rgb(214,214,214)" stroke="none" d="M 3693,17510 L 3693,17450 4181,17168 4181,17371 3301,17880 3301,17677 3590,17510 3693,17510 Z M 3683,17500 L 3607,17500 3683,17456 3683,17500 Z"/>
      <path fill="rgb(215,215,215)" stroke="none" d="M 3683,17500 L 3683,17456 4181,17168 4181,17371 3301,17880 3301,17677 3607,17500 3683,17500 Z M 3673,17490 L 3624,17490 3673,17462 3673,17490 Z"/>
      <path fill="rgb(216,216,216)" stroke="none" d="M 3673,17490 L 3673,17462 4181,17168 4181,17371 3301,17880 3301,17677 3624,17490 3673,17490 Z M 3663,17480 L 3642,17480 3663,17468 3663,17480 Z"/>
      <path fill="rgb(217,217,217)" stroke="none" d="M 3663,17480 L 3663,17468 4181,17168 4181,17371 3301,17880 3301,17677 3642,17480 3663,17480 Z"/>
      <path fill="rgb(218,218,218)" stroke="none" d="M 4181,17371 L 3301,17880 3301,17677 4181,17168 4181,17371 Z"/>
      <path fill="rgb(219,219,219)" stroke="none" d="M 4181,17371 L 3301,17880 3301,17677 4181,17168 4181,17371 Z"/>
      <path fill="rgb(221,221,221)" stroke="none" d="M 4181,17371 L 3301,17880 3301,17677 4181,17168 4181,17371 Z"/>
      <path fill="rgb(222,222,222)" stroke="none" d="M 4181,17371 L 3301,17880 3301,17677 4181,17168 4181,17371 Z"/>
      <path fill="rgb(223,223,223)" stroke="none" d="M 4181,17371 L 3301,17880 3301,17677 4181,17168 4181,17371 Z"/>
      <path fill="rgb(224,224,224)" stroke="none" d="M 4181,17371 L 3301,17880 3301,17677 4181,17168 4181,17371 Z"/>
      <path fill="rgb(225,225,225)" stroke="none" d="M 4181,17371 L 3301,17880 3301,17677 4181,17168 4181,17371 Z"/>
      <path fill="rgb(226,226,226)" stroke="none" d="M 4181,17371 L 3301,17880 3301,17677 4181,17168 4181,17371 Z"/>
      <path fill="rgb(229,229,229)" stroke="none" d="M 4181,17371 L 3301,17880 3301,17677 4181,17168 4181,17371 Z"/>
      <path fill="none" stroke="rgb(255,255,255)" id="Drawing_6_0" stroke-width="40" stroke-linejoin="round" d="M 4181,17371 L 4181,17168 3301,17677 3301,17880 4181,17371 Z"/>
     </g>
     <g>
      <path fill="rgb(179,179,179)" stroke="none" d="M 3290,16869 L 2901,17094 2597,17094 2597,16914 3290,16513 3290,16869 Z"/>
      <path fill="rgb(180,180,180)" stroke="none" d="M 2901,17094 L 2597,17270 2597,17094 2901,17094 Z M 3290,16513 L 3477,16405 3477,16761 3290,16869 3290,16513 Z M 3280,16875 L 2919,17084 2597,17084 2597,16914 3280,16519 3280,16875 Z"/>
      <path fill="rgb(181,181,181)" stroke="none" d="M 2919,17084 L 2597,17270 2597,17084 2919,17084 Z M 3280,16519 L 3477,16405 3477,16761 3280,16875 3280,16519 Z M 3270,16881 L 2936,17074 2597,17074 2597,16914 3270,16525 3270,16881 Z"/>
      <path fill="rgb(182,182,182)" stroke="none" d="M 2936,17074 L 2597,17270 2597,17074 2936,17074 Z M 3270,16525 L 3477,16405 3477,16761 3270,16881 3270,16525 Z M 3260,16887 L 2953,17064 2597,17064 2597,16914 3260,16531 3260,16887 Z"/>
      <path fill="rgb(183,183,183)" stroke="none" d="M 2953,17064 L 2597,17270 2597,17064 2953,17064 Z M 3260,16531 L 3477,16405 3477,16761 3260,16887 3260,16531 Z M 3250,16892 L 2970,17054 2597,17054 2597,16914 3250,16536 3250,16892 Z"/>
      <path fill="rgb(184,184,184)" stroke="none" d="M 2970,17054 L 2597,17270 2597,17054 2970,17054 Z M 3250,16536 L 3477,16405 3477,16761 3250,16892 3250,16536 Z M 3240,16898 L 2988,17044 2597,17044 2597,16914 3240,16542 3240,16898 Z"/>
      <path fill="rgb(185,185,185)" stroke="none" d="M 2988,17044 L 2597,17270 2597,17044 2988,17044 Z M 3240,16542 L 3477,16405 3477,16761 3240,16898 3240,16542 Z M 3230,16904 L 3005,17034 2597,17034 2597,16914 3230,16548 3230,16904 Z"/>
      <path fill="rgb(186,186,186)" stroke="none" d="M 3005,17034 L 2597,17270 2597,17034 3005,17034 Z M 3230,16548 L 3477,16405 3477,16761 3230,16904 3230,16548 Z M 3220,16910 L 3022,17024 2597,17024 2597,16914 3220,16554 3220,16910 Z"/>
      <path fill="rgb(188,188,188)" stroke="none" d="M 3022,17024 L 2597,17270 2597,17024 3022,17024 Z M 3220,16554 L 3477,16405 3477,16761 3220,16910 3220,16554 Z M 3210,16915 L 3040,17014 2597,17014 2597,16914 3210,16559 3210,16915 Z"/>
      <path fill="rgb(189,189,189)" stroke="none" d="M 3040,17014 L 2597,17270 2597,17014 3040,17014 Z M 3210,16559 L 3477,16405 3477,16761 3210,16915 3210,16559 Z M 3200,16921 L 3057,17004 2597,17004 2597,16914 3200,16565 3200,16921 Z"/>
      <path fill="rgb(190,190,190)" stroke="none" d="M 3057,17004 L 2597,17270 2597,17004 3057,17004 Z M 3200,16565 L 3477,16405 3477,16761 3200,16921 3200,16565 Z M 3190,16927 L 3074,16994 2597,16994 2597,16914 3190,16571 3190,16927 Z"/>
      <path fill="rgb(191,191,191)" stroke="none" d="M 3074,16994 L 2597,17270 2597,16994 3074,16994 Z M 3190,16571 L 3477,16405 3477,16761 3190,16927 3190,16571 Z M 3180,16933 L 3091,16984 2597,16984 2597,16914 3180,16577 3180,16933 Z"/>
      <path fill="rgb(192,192,192)" stroke="none" d="M 3091,16984 L 2597,17270 2597,16984 3091,16984 Z M 3180,16577 L 3477,16405 3477,16761 3180,16933 3180,16577 Z M 3170,16939 L 3109,16974 2597,16974 2597,16914 3170,16583 3170,16939 Z"/>
      <path fill="rgb(193,193,193)" stroke="none" d="M 3109,16974 L 2597,17270 2597,16974 3109,16974 Z M 3170,16583 L 3477,16405 3477,16761 3170,16939 3170,16583 Z M 3160,16944 L 3126,16964 2597,16964 2597,16914 3160,16588 3160,16944 Z"/>
      <path fill="rgb(194,194,194)" stroke="none" d="M 3126,16964 L 2597,17270 2597,16964 3126,16964 Z M 3160,16588 L 3477,16405 3477,16761 3160,16944 3160,16588 Z M 3150,16950 L 3143,16954 2597,16954 2597,16914 3150,16594 3150,16950 Z"/>
      <path fill="rgb(196,196,196)" stroke="none" d="M 3143,16954 L 2597,17270 2597,16954 3143,16954 Z M 3150,16594 L 3477,16405 3477,16761 3150,16950 3150,16594 Z M 3140,16944 L 2597,16944 2597,16914 3140,16600 3140,16944 Z"/>
      <path fill="rgb(197,197,197)" stroke="none" d="M 3140,16944 L 3140,16600 3477,16405 3477,16761 2597,17270 2597,16944 3140,16944 Z M 3130,16934 L 2597,16934 2597,16914 3130,16606 3130,16934 Z"/>
      <path fill="rgb(198,198,198)" stroke="none" d="M 3130,16934 L 3130,16606 3477,16405 3477,16761 2597,17270 2597,16934 3130,16934 Z M 3120,16924 L 2599,16924 2599,16913 3120,16611 3120,16924 Z"/>
      <path fill="rgb(199,199,199)" stroke="none" d="M 2599,16924 L 3120,16924 3120,16611 3477,16405 3477,16761 2597,17270 2597,16914 2599,16913 2599,16924 Z M 3110,16914 L 2609,16914 2609,16907 3110,16617 3110,16914 Z"/>
      <path fill="rgb(200,200,200)" stroke="none" d="M 2609,16914 L 3110,16914 3110,16617 3477,16405 3477,16761 2597,17270 2597,16914 2609,16907 2609,16914 Z M 3100,16904 L 2619,16904 2619,16901 3100,16623 3100,16904 Z"/>
      <path fill="rgb(201,201,201)" stroke="none" d="M 2619,16904 L 3100,16904 3100,16623 3477,16405 3477,16761 2597,17270 2597,16914 2619,16901 2619,16904 Z M 3090,16894 L 2632,16894 3090,16629 3090,16894 Z"/>
      <path fill="rgb(202,202,202)" stroke="none" d="M 3090,16894 L 3090,16629 3477,16405 3477,16761 2597,17270 2597,16914 2632,16894 3090,16894 Z M 3080,16884 L 2649,16884 3080,16635 3080,16884 Z"/>
      <path fill="rgb(204,204,204)" stroke="none" d="M 3080,16884 L 3080,16635 3477,16405 3477,16761 2597,17270 2597,16914 2649,16884 3080,16884 Z M 3070,16874 L 2666,16874 3070,16640 3070,16874 Z"/>
      <path fill="rgb(205,205,205)" stroke="none" d="M 3070,16874 L 3070,16640 3477,16405 3477,16761 2597,17270 2597,16914 2666,16874 3070,16874 Z M 3060,16864 L 2683,16864 3060,16646 3060,16864 Z"/>
      <path fill="rgb(206,206,206)" stroke="none" d="M 3060,16864 L 3060,16646 3477,16405 3477,16761 2597,17270 2597,16914 2683,16864 3060,16864 Z M 3050,16854 L 2701,16854 3050,16652 3050,16854 Z"/>
      <path fill="rgb(207,207,207)" stroke="none" d="M 3050,16854 L 3050,16652 3477,16405 3477,16761 2597,17270 2597,16914 2701,16854 3050,16854 Z M 3040,16844 L 2718,16844 3040,16658 3040,16844 Z"/>
      <path fill="rgb(208,208,208)" stroke="none" d="M 3040,16844 L 3040,16658 3477,16405 3477,16761 2597,17270 2597,16914 2718,16844 3040,16844 Z M 3030,16834 L 2735,16834 3030,16664 3030,16834 Z"/>
      <path fill="rgb(209,209,209)" stroke="none" d="M 3030,16834 L 3030,16664 3477,16405 3477,16761 2597,17270 2597,16914 2735,16834 3030,16834 Z M 3020,16824 L 2753,16824 3020,16669 3020,16824 Z"/>
      <path fill="rgb(210,210,210)" stroke="none" d="M 3020,16824 L 3020,16669 3477,16405 3477,16761 2597,17270 2597,16914 2753,16824 3020,16824 Z M 3010,16814 L 2770,16814 3010,16675 3010,16814 Z"/>
      <path fill="rgb(211,211,211)" stroke="none" d="M 3010,16814 L 3010,16675 3477,16405 3477,16761 2597,17270 2597,16914 2770,16814 3010,16814 Z M 2999,16803 L 2789,16803 2999,16681 2999,16803 Z"/>
      <path fill="rgb(213,213,213)" stroke="none" d="M 2999,16803 L 2999,16681 3477,16405 3477,16761 2597,17270 2597,16914 2789,16803 2999,16803 Z M 2989,16793 L 2806,16793 2989,16687 2989,16793 Z"/>
      <path fill="rgb(214,214,214)" stroke="none" d="M 2989,16793 L 2989,16687 3477,16405 3477,16761 2597,17270 2597,16914 2806,16793 2989,16793 Z M 2979,16783 L 2823,16783 2979,16693 2979,16783 Z"/>
      <path fill="rgb(215,215,215)" stroke="none" d="M 2979,16783 L 2979,16693 3477,16405 3477,16761 2597,17270 2597,16914 2823,16783 2979,16783 Z M 2969,16773 L 2841,16773 2969,16699 2969,16773 Z"/>
      <path fill="rgb(216,216,216)" stroke="none" d="M 2969,16773 L 2969,16699 3477,16405 3477,16761 2597,17270 2597,16914 2841,16773 2969,16773 Z M 2959,16763 L 2858,16763 2959,16705 2959,16763 Z"/>
      <path fill="rgb(217,217,217)" stroke="none" d="M 2959,16763 L 2959,16705 3477,16405 3477,16761 2597,17270 2597,16914 2858,16763 2959,16763 Z M 2949,16753 L 2875,16753 2949,16710 2949,16753 Z"/>
      <path fill="rgb(218,218,218)" stroke="none" d="M 2949,16753 L 2949,16710 3477,16405 3477,16761 2597,17270 2597,16914 2875,16753 2949,16753 Z M 2939,16743 L 2893,16743 2939,16716 2939,16743 Z"/>
      <path fill="rgb(219,219,219)" stroke="none" d="M 2939,16743 L 2939,16716 3477,16405 3477,16761 2597,17270 2597,16914 2893,16743 2939,16743 Z M 2929,16733 L 2910,16733 2929,16722 2929,16733 Z"/>
      <path fill="rgb(221,221,221)" stroke="none" d="M 2929,16733 L 2929,16722 3477,16405 3477,16761 2597,17270 2597,16914 2910,16733 2929,16733 Z"/>
      <path fill="rgb(222,222,222)" stroke="none" d="M 3477,16761 L 2597,17270 2597,16914 3477,16405 3477,16761 Z"/>
      <path fill="rgb(223,223,223)" stroke="none" d="M 3477,16761 L 2597,17270 2597,16914 3477,16405 3477,16761 Z"/>
      <path fill="rgb(224,224,224)" stroke="none" d="M 3477,16761 L 2597,17270 2597,16914 3477,16405 3477,16761 Z"/>
      <path fill="rgb(225,225,225)" stroke="none" d="M 3477,16761 L 2597,17270 2597,16914 3477,16405 3477,16761 Z"/>
      <path fill="rgb(226,226,226)" stroke="none" d="M 3477,16761 L 2597,17270 2597,16914 3477,16405 3477,16761 Z"/>
      <path fill="rgb(229,229,229)" stroke="none" d="M 3477,16761 L 2597,17270 2597,16914 3477,16405 3477,16761 Z"/>
      <path fill="none" stroke="rgb(255,255,255)" id="Drawing_7_0" stroke-width="40" stroke-linejoin="round" d="M 3477,16761 L 3477,16405 2597,16914 2597,17270 3477,16761 Z"/>
     </g>
     <g>
      <defs>
       <linearGradient id="Gradient_81" gradientUnits="userSpaceOnUse" x1="3389" y1="16761" x2="3389" y2="17676">
        <stop offset="0.1" stop-color="rgb(179,179,179)"/>
        <stop offset="1" stop-color="rgb(229,229,229)"/>
       </linearGradient>
      </defs>
      <path fill="url(#Gradient_81)" stroke="rgb(255,255,255)" id="Drawing_8_0" stroke-width="40" stroke-linejoin="round" d="M 4181,17168 L 3477,16761 2597,17270 3301,17676 4181,17168 Z"/>
     </g>
     <g>
      <defs>
       <linearGradient id="Gradient_82" gradientUnits="userSpaceOnUse" x1="2420" y1="17446" x2="3302" y2="17448">
        <stop offset="0.1" stop-color="rgb(179,179,179)"/>
        <stop offset="1" stop-color="rgb(229,229,229)"/>
       </linearGradient>
      </defs>
      <path fill="url(#Gradient_82)" stroke="rgb(255,255,255)" id="Drawing_9_0" stroke-width="40" stroke-linejoin="round" d="M 3301,17880 L 3301,17676 2597,17269 2597,17015 2421,17117 2421,17371 3301,17880 Z"/>
     </g>
     <g>
      <path fill="rgb(179,179,179)" stroke="none" d="M 5071,15586 L 3738,16356 2333,16356 2333,14930 5071,13348 5071,15586 Z"/>
      <path fill="rgb(180,180,180)" stroke="none" d="M 3738,16356 L 2333,17168 2333,16356 3738,16356 Z M 5071,13348 L 5148,13303 5148,15541 5071,15586 5071,13348 Z M 5032,15608 L 3805,16317 2333,16317 2333,14930 5032,13370 5032,15608 Z"/>
      <path fill="rgb(181,181,181)" stroke="none" d="M 3805,16317 L 2333,17168 2333,16317 3805,16317 Z M 5032,13370 L 5148,13303 5148,15541 5032,15608 5032,13370 Z M 4993,15631 L 3873,16278 2333,16278 2333,14930 4993,13393 4993,15631 Z"/>
      <path fill="rgb(182,182,182)" stroke="none" d="M 3873,16278 L 2333,17168 2333,16278 3873,16278 Z M 4993,13393 L 5148,13303 5148,15541 4993,15631 4993,13393 Z M 4955,15653 L 3939,16240 2333,16240 2333,14930 4955,13415 4955,15653 Z"/>
      <path fill="rgb(183,183,183)" stroke="none" d="M 3939,16240 L 2333,17168 2333,16240 3939,16240 Z M 4955,13415 L 5148,13303 5148,15541 4955,15653 4955,13415 Z M 4916,15675 L 4006,16201 2333,16201 2333,14930 4916,13437 4916,15675 Z"/>
      <path fill="rgb(184,184,184)" stroke="none" d="M 4006,16201 L 2333,17168 2333,16201 4006,16201 Z M 4916,13437 L 5148,13303 5148,15541 4916,15675 4916,13437 Z M 4877,15698 L 4074,16162 2333,16162 2333,14930 4877,13460 4877,15698 Z"/>
      <path fill="rgb(185,185,185)" stroke="none" d="M 4074,16162 L 2333,17168 2333,16162 4074,16162 Z M 4877,13460 L 5148,13303 5148,15541 4877,15698 4877,13460 Z M 4839,15720 L 4139,16124 2333,16124 2333,14930 4839,13482 4839,15720 Z"/>
      <path fill="rgb(186,186,186)" stroke="none" d="M 4139,16124 L 2333,17168 2333,16124 4139,16124 Z M 4839,13482 L 5148,13303 5148,15541 4839,15720 4839,13482 Z M 4800,15742 L 4207,16085 2333,16085 2333,14930 4800,13504 4800,15742 Z"/>
      <path fill="rgb(187,187,187)" stroke="none" d="M 4207,16085 L 2333,17168 2333,16085 4207,16085 Z M 4800,13504 L 5148,13303 5148,15541 4800,15742 4800,13504 Z M 4761,15765 L 4274,16046 2333,16046 2333,14930 4761,13527 4761,15765 Z"/>
      <path fill="rgb(188,188,188)" stroke="none" d="M 4274,16046 L 2333,17168 2333,16046 4274,16046 Z M 4761,13527 L 5148,13303 5148,15541 4761,15765 4761,13527 Z M 4723,15787 L 4340,16008 2333,16008 2333,14930 4723,13549 4723,15787 Z"/>
      <path fill="rgb(189,189,189)" stroke="none" d="M 4340,16008 L 2333,17168 2333,16008 4340,16008 Z M 4723,13549 L 5148,13303 5148,15541 4723,15787 4723,13549 Z M 4684,15809 L 4407,15969 2333,15969 2333,14930 4684,13571 4684,15809 Z"/>
      <path fill="rgb(190,190,190)" stroke="none" d="M 4407,15969 L 2333,17168 2333,15969 4407,15969 Z M 4684,13571 L 5148,13303 5148,15541 4684,15809 4684,13571 Z M 4645,15832 L 4475,15930 2333,15930 2333,14930 4645,13594 4645,15832 Z"/>
      <path fill="rgb(191,191,191)" stroke="none" d="M 4475,15930 L 2333,17168 2333,15930 4475,15930 Z M 4645,13594 L 5148,13303 5148,15541 4645,15832 4645,13594 Z M 4607,15854 L 4541,15892 2333,15892 2333,14930 4607,13616 4607,15854 Z"/>
      <path fill="rgb(192,192,192)" stroke="none" d="M 4541,15892 L 2333,17168 2333,15892 4541,15892 Z M 4607,13616 L 5148,13303 5148,15541 4607,15854 4607,13616 Z M 4568,15853 L 2333,15853 2333,14930 4568,13638 4568,15853 Z"/>
      <path fill="rgb(193,193,193)" stroke="none" d="M 4568,15853 L 4568,13638 5148,13303 5148,15541 2333,17168 2333,15853 4568,15853 Z M 4529,15814 L 2333,15814 2333,14930 4529,13661 4529,15814 Z"/>
      <path fill="rgb(194,194,194)" stroke="none" d="M 4529,15814 L 4529,13661 5148,13303 5148,15541 2333,17168 2333,15814 4529,15814 Z M 4491,15776 L 2333,15776 2333,14930 4491,13683 4491,15776 Z"/>
      <path fill="rgb(195,195,195)" stroke="none" d="M 4491,15776 L 4491,13683 5148,13303 5148,15541 2333,17168 2333,15776 4491,15776 Z M 4452,15737 L 2333,15737 2333,14930 4452,13705 4452,15737 Z"/>
      <path fill="rgb(196,196,196)" stroke="none" d="M 4452,15737 L 4452,13705 5148,13303 5148,15541 2333,17168 2333,15737 4452,15737 Z M 4413,15698 L 2333,15698 2333,14930 4413,13728 4413,15698 Z"/>
      <path fill="rgb(197,197,197)" stroke="none" d="M 4413,15698 L 4413,13728 5148,13303 5148,15541 2333,17168 2333,15698 4413,15698 Z M 4375,15660 L 2333,15660 2333,14930 4375,13750 4375,15660 Z"/>
      <path fill="rgb(198,198,198)" stroke="none" d="M 4375,15660 L 4375,13750 5148,13303 5148,15541 2333,17168 2333,15660 4375,15660 Z M 4336,15621 L 2333,15621 2333,14930 4336,13772 4336,15621 Z"/>
      <path fill="rgb(199,199,199)" stroke="none" d="M 4336,15621 L 4336,13772 5148,13303 5148,15541 2333,17168 2333,15621 4336,15621 Z M 4297,15582 L 2333,15582 2333,14930 4297,13795 4297,15582 Z"/>
      <path fill="rgb(200,200,200)" stroke="none" d="M 4297,15582 L 4297,13795 5148,13303 5148,15541 2333,17168 2333,15582 4297,15582 Z M 4259,15544 L 2333,15544 2333,14930 4259,13817 4259,15544 Z"/>
      <path fill="rgb(201,201,201)" stroke="none" d="M 4259,15544 L 4259,13817 5148,13303 5148,15541 2333,17168 2333,15544 4259,15544 Z M 4220,15505 L 2333,15505 2333,14930 4220,13839 4220,15505 Z"/>
      <path fill="rgb(202,202,202)" stroke="none" d="M 4220,15505 L 4220,13839 5148,13303 5148,15541 2333,17168 2333,15505 4220,15505 Z M 4181,15466 L 2333,15466 2333,14930 4181,13862 4181,15466 Z"/>
      <path fill="rgb(203,203,203)" stroke="none" d="M 4181,15466 L 4181,13862 5148,13303 5148,15541 2333,17168 2333,15466 4181,15466 Z M 4143,15428 L 2333,15428 2333,14930 4143,13884 4143,15428 Z"/>
      <path fill="rgb(204,204,204)" stroke="none" d="M 4143,15428 L 4143,13884 5148,13303 5148,15541 2333,17168 2333,15428 4143,15428 Z M 4104,15389 L 2333,15389 2333,14930 4104,13906 4104,15389 Z"/>
      <path fill="rgb(205,205,205)" stroke="none" d="M 4104,15389 L 4104,13906 5148,13303 5148,15541 2333,17168 2333,15389 4104,15389 Z M 4065,15350 L 2333,15350 2333,14930 4065,13929 4065,15350 Z"/>
      <path fill="rgb(206,206,206)" stroke="none" d="M 4065,15350 L 4065,13929 5148,13303 5148,15541 2333,17168 2333,15350 4065,15350 Z M 4026,15311 L 2333,15311 2333,14930 4026,13951 4026,15311 Z"/>
      <path fill="rgb(207,207,207)" stroke="none" d="M 4026,15311 L 4026,13951 5148,13303 5148,15541 2333,17168 2333,15311 4026,15311 Z M 3988,15273 L 2364,15273 2364,14912 3988,13973 3988,15273 Z"/>
      <path fill="rgb(208,208,208)" stroke="none" d="M 2364,15273 L 3988,15273 3988,13973 5148,13303 5148,15541 2333,17168 2333,14930 2364,14912 2364,15273 Z M 3949,15234 L 2403,15234 2403,14890 3949,13996 3949,15234 Z"/>
      <path fill="rgb(209,209,209)" stroke="none" d="M 2403,15234 L 3949,15234 3949,13996 5148,13303 5148,15541 2333,17168 2333,14930 2403,14890 2403,15234 Z M 3910,15195 L 2442,15195 2442,14867 3910,14019 3910,15195 Z"/>
      <path fill="rgb(210,210,210)" stroke="none" d="M 2442,15195 L 3910,15195 3910,14019 5148,13303 5148,15541 2333,17168 2333,14930 2442,14867 2442,15195 Z M 3872,15157 L 2480,15157 2480,14845 3872,14040 3872,15157 Z"/>
      <path fill="rgb(211,211,211)" stroke="none" d="M 2480,15157 L 3872,15157 3872,14040 5148,13303 5148,15541 2333,17168 2333,14930 2480,14845 2480,15157 Z M 3833,15118 L 2519,15118 2519,14822 3833,14063 3833,15118 Z"/>
      <path fill="rgb(212,212,212)" stroke="none" d="M 2519,15118 L 3833,15118 3833,14063 5148,13303 5148,15541 2333,17168 2333,14930 2519,14822 2519,15118 Z M 3794,15079 L 2558,15079 2558,14800 3794,14086 3794,15079 Z"/>
      <path fill="rgb(213,213,213)" stroke="none" d="M 2558,15079 L 3794,15079 3794,14086 5148,13303 5148,15541 2333,17168 2333,14930 2558,14800 2558,15079 Z M 3756,15041 L 2596,15041 2596,14778 3756,14108 3756,15041 Z"/>
      <path fill="rgb(214,214,214)" stroke="none" d="M 2596,15041 L 3756,15041 3756,14108 5148,13303 5148,15541 2333,17168 2333,14930 2596,14778 2596,15041 Z M 3717,15002 L 2635,15002 2635,14755 3717,14130 3717,15002 Z"/>
      <path fill="rgb(215,215,215)" stroke="none" d="M 2635,15002 L 3717,15002 3717,14130 5148,13303 5148,15541 2333,17168 2333,14930 2635,14755 2635,15002 Z M 3678,14963 L 2674,14963 2674,14733 3678,14153 3678,14963 Z"/>
      <path fill="rgb(216,216,216)" stroke="none" d="M 2674,14963 L 3678,14963 3678,14153 5148,13303 5148,15541 2333,17168 2333,14930 2674,14733 2674,14963 Z M 3640,14925 L 2712,14925 2712,14711 3640,14175 3640,14925 Z"/>
      <path fill="rgb(217,217,217)" stroke="none" d="M 2712,14925 L 3640,14925 3640,14175 5148,13303 5148,15541 2333,17168 2333,14930 2712,14711 2712,14925 Z M 3601,14886 L 2751,14886 2751,14688 3601,14197 3601,14886 Z"/>
      <path fill="rgb(218,218,218)" stroke="none" d="M 2751,14886 L 3601,14886 3601,14197 5148,13303 5148,15541 2333,17168 2333,14930 2751,14688 2751,14886 Z M 3562,14847 L 2790,14847 2790,14666 3562,14220 3562,14847 Z"/>
      <path fill="rgb(219,219,219)" stroke="none" d="M 2790,14847 L 3562,14847 3562,14220 5148,13303 5148,15541 2333,17168 2333,14930 2790,14666 2790,14847 Z M 3524,14809 L 2828,14809 2828,14644 3524,14242 3524,14809 Z"/>
      <path fill="rgb(220,220,220)" stroke="none" d="M 2828,14809 L 3524,14809 3524,14242 5148,13303 5148,15541 2333,17168 2333,14930 2828,14644 2828,14809 Z M 3485,14770 L 2867,14770 2867,14621 3485,14264 3485,14770 Z"/>
      <path fill="rgb(221,221,221)" stroke="none" d="M 2867,14770 L 3485,14770 3485,14264 5148,13303 5148,15541 2333,17168 2333,14930 2867,14621 2867,14770 Z M 3446,14731 L 2906,14731 2906,14599 3446,14287 3446,14731 Z"/>
      <path fill="rgb(222,222,222)" stroke="none" d="M 2906,14731 L 3446,14731 3446,14287 5148,13303 5148,15541 2333,17168 2333,14930 2906,14599 2906,14731 Z M 3408,14693 L 2944,14693 2944,14577 3408,14309 3408,14693 Z"/>
      <path fill="rgb(223,223,223)" stroke="none" d="M 2944,14693 L 3408,14693 3408,14309 5148,13303 5148,15541 2333,17168 2333,14930 2944,14577 2944,14693 Z M 3369,14654 L 2983,14654 2983,14554 3369,14331 3369,14654 Z"/>
      <path fill="rgb(224,224,224)" stroke="none" d="M 2983,14654 L 3369,14654 3369,14331 5148,13303 5148,15541 2333,17168 2333,14930 2983,14554 2983,14654 Z M 3330,14615 L 3022,14615 3022,14532 3330,14354 3330,14615 Z"/>
      <path fill="rgb(225,225,225)" stroke="none" d="M 3022,14615 L 3330,14615 3330,14354 5148,13303 5148,15541 2333,17168 2333,14930 3022,14532 3022,14615 Z M 3292,14577 L 3060,14577 3060,14510 3292,14376 3292,14577 Z"/>
      <path fill="rgb(226,226,226)" stroke="none" d="M 3060,14577 L 3292,14577 3292,14376 5148,13303 5148,15541 2333,17168 2333,14930 3060,14510 3060,14577 Z M 3253,14538 L 3099,14538 3099,14487 3253,14398 3253,14538 Z"/>
      <path fill="rgb(227,227,227)" stroke="none" d="M 3099,14538 L 3253,14538 3253,14398 5148,13303 5148,15541 2333,17168 2333,14930 3099,14487 3099,14538 Z M 3214,14423 L 3214,14499 3138,14499 3138,14465 3210,14423 3214,14423 Z"/>
      <path fill="rgb(229,229,229)" stroke="none" d="M 3138,14499 L 3214,14499 3214,14423 3210,14423 5148,13303 5148,15541 2333,17168 2333,14930 3138,14465 3138,14499 Z"/>
      <path fill="none" stroke="rgb(255,255,255)" id="Drawing_10_0" stroke-width="40" stroke-linejoin="round" d="M 5148,15541 L 5148,13303 2333,14930 2333,17168 5148,15541 Z"/>
     </g>
     <g>
      <defs>
       <linearGradient id="Gradient_83" gradientUnits="userSpaceOnUse" x1="2417" y1="15233" x2="5062" y2="15237">
        <stop offset="0.1" stop-color="rgb(147,212,240)"/>
        <stop offset="1" stop-color="rgb(233,246,252)"/>
       </linearGradient>
      </defs>
      <path fill="url(#Gradient_83)" stroke="rgb(102,102,102)" id="Drawing_11_0" stroke-width="40" stroke-linejoin="round" d="M 5060,15489 L 5060,13455 2421,14981 2421,17015 5060,15489 Z"/>
     </g>
     <g>
      <defs>
       <linearGradient id="Gradient_84" gradientUnits="userSpaceOnUse" x1="3652" y1="13201" x2="3652" y2="14930">
        <stop offset="0.1" stop-color="rgb(179,179,179)"/>
        <stop offset="1" stop-color="rgb(229,229,229)"/>
       </linearGradient>
      </defs>
      <path fill="url(#Gradient_84)" stroke="rgb(255,255,255)" id="Drawing_12_0" stroke-width="40" stroke-linejoin="round" d="M 2333,14930 L 5148,13303 4972,13201 2157,14828 2333,14930 Z"/>
     </g>
     <g>
      <defs>
       <linearGradient id="Gradient_85" gradientUnits="userSpaceOnUse" x1="2155" y1="15997" x2="2335" y2="15997">
        <stop offset="0.1" stop-color="rgb(179,179,179)"/>
        <stop offset="1" stop-color="rgb(229,229,229)"/>
       </linearGradient>
      </defs>
      <path fill="url(#Gradient_85)" stroke="rgb(255,255,255)" id="Drawing_13_0" stroke-width="40" stroke-linejoin="round" d="M 2333,17167 L 2333,14930 2157,14828 2157,17066 2333,17167 Z"/>
     </g>
     <g>
      <path fill="none" stroke="rgb(0,0,0)" id="Drawing_14_0" stroke-width="40" stroke-linejoin="round" d="M 4972,13201 L 2157,14828 2157,17066 2333,17168 2421,17117 2421,17371 3300,17880 4180,17371 4180,17168 3476,16761 3476,16507 5148,15540 5148,13303 4972,13201 Z"/>
     </g>
    </g>
   </g>
   <g id="DrawingGroup_5">
    <g>
     <path fill="rgb(221,221,221)" stroke="none" d="M 5887,18045 C 5887,18045 6372,17905 6493,17835 6624,17759 6735,17555 6493,17555 6493,17708 5887,18045 5887,18045 Z"/>
     <path fill="none" stroke="rgb(221,221,221)" id="Drawing_15_0" stroke-width="40" stroke-linejoin="round" d="M 5887,18045 C 5887,18045 6372,17905 6493,17835 6624,17759 6735,17555 6493,17555 6493,17708 5887,18045 5887,18045 Z"/>
    </g>
    <g id="DrawingGroup_6">
     <g>
      <defs>
       <linearGradient id="Gradient_86" gradientUnits="userSpaceOnUse" x1="4601" y1="16915" x2="4601" y2="19102">
        <stop offset="0.1" stop-color="rgb(179,179,179)"/>
        <stop offset="1" stop-color="rgb(229,229,229)"/>
       </linearGradient>
      </defs>
      <path fill="url(#Gradient_86)" stroke="rgb(255,255,255)" id="Drawing_16_0" stroke-width="40" stroke-linejoin="round" d="M 3678,19102 L 6493,17474 5525,16915 2710,18542 3678,19102 Z"/>
     </g>
     <g>
      <defs>
       <linearGradient id="Gradient_87" gradientUnits="userSpaceOnUse" x1="2709" y1="18922" x2="3679" y2="18924">
        <stop offset="0.1" stop-color="rgb(179,179,179)"/>
        <stop offset="1" stop-color="rgb(229,229,229)"/>
       </linearGradient>
      </defs>
      <path fill="url(#Gradient_87)" stroke="rgb(255,255,255)" id="Drawing_17_0" stroke-width="40" stroke-linejoin="round" d="M 3678,19305 L 3678,19101 2710,18542 2710,18745 3678,19305 Z"/>
     </g>
     <g>
      <path fill="rgb(179,179,179)" stroke="none" d="M 5901,18019 L 3678,19305 3678,19101 5901,17816 5901,18019 Z"/>
      <path fill="rgb(180,180,180)" stroke="none" d="M 5901,17816 L 6493,17474 6493,17677 5901,18019 5901,17816 Z M 5873,18036 L 3678,19305 3678,19101 5873,17832 5873,18036 Z"/>
      <path fill="rgb(181,181,181)" stroke="none" d="M 5873,17832 L 6493,17474 6493,17677 5873,18036 5873,17832 Z M 5845,18052 L 3678,19305 3678,19101 5845,17849 5845,18052 Z"/>
      <path fill="rgb(182,182,182)" stroke="none" d="M 5845,17849 L 6493,17474 6493,17677 5845,18052 5845,17849 Z M 5817,18068 L 3678,19305 3678,19101 5817,17865 5817,18068 Z"/>
      <path fill="rgb(183,183,183)" stroke="none" d="M 5817,17865 L 6493,17474 6493,17677 5817,18068 5817,17865 Z M 5789,18084 L 3704,19290 3678,19290 3678,19101 5789,17881 5789,18084 Z"/>
      <path fill="rgb(184,184,184)" stroke="none" d="M 3704,19290 L 3678,19305 3678,19290 3704,19290 Z M 5789,17881 L 6493,17474 6493,17677 5789,18084 5789,17881 Z M 5760,18101 L 3754,19261 3678,19261 3678,19101 5760,17898 5760,18101 Z"/>
      <path fill="rgb(185,185,185)" stroke="none" d="M 3754,19261 L 3678,19305 3678,19261 3754,19261 Z M 5760,17898 L 6493,17474 6493,17677 5760,18101 5760,17898 Z M 5732,18117 L 3802,19233 3678,19233 3678,19101 5732,17914 5732,18117 Z"/>
      <path fill="rgb(186,186,186)" stroke="none" d="M 3802,19233 L 3678,19305 3678,19233 3802,19233 Z M 5732,17914 L 6493,17474 6493,17677 5732,18117 5732,17914 Z M 5704,18133 L 3851,19205 3678,19205 3678,19101 5704,17930 5704,18133 Z"/>
      <path fill="rgb(187,187,187)" stroke="none" d="M 3851,19205 L 3678,19305 3678,19205 3851,19205 Z M 5704,17930 L 6493,17474 6493,17677 5704,18133 5704,17930 Z M 5676,18149 L 3899,19177 3678,19177 3678,19101 5676,17946 5676,18149 Z"/>
      <path fill="rgb(188,188,188)" stroke="none" d="M 3899,19177 L 3678,19305 3678,19177 3899,19177 Z M 5676,17946 L 6493,17474 6493,17677 5676,18149 5676,17946 Z M 5648,18166 L 3948,19149 3678,19149 3678,19101 5648,17962 5648,18166 Z"/>
      <path fill="rgb(189,189,189)" stroke="none" d="M 3948,19149 L 3678,19305 3678,19149 3948,19149 Z M 5648,17962 L 6493,17474 6493,17677 5648,18166 5648,17962 Z M 5620,18182 L 3996,19121 3678,19121 3678,19101 5620,17979 5620,18182 Z"/>
      <path fill="rgb(190,190,190)" stroke="none" d="M 3996,19121 L 3678,19305 3678,19121 3996,19121 Z M 5620,17979 L 6493,17474 6493,17677 5620,18182 5620,17979 Z M 5591,18199 L 4046,19092 3694,19092 5591,17995 5591,18199 Z"/>
      <path fill="rgb(191,191,191)" stroke="none" d="M 4046,19092 L 3678,19305 3678,19101 3694,19092 4046,19092 Z M 5591,17995 L 6493,17474 6493,17677 5591,18199 5591,17995 Z M 5563,18215 L 4095,19064 3742,19064 5563,18012 5563,18215 Z"/>
      <path fill="rgb(192,192,192)" stroke="none" d="M 4095,19064 L 3678,19305 3678,19101 3742,19064 4095,19064 Z M 5563,18012 L 6493,17474 6493,17677 5563,18215 5563,18012 Z M 5535,18231 L 4143,19036 3790,19036 5535,18028 5535,18231 Z"/>
      <path fill="rgb(193,193,193)" stroke="none" d="M 4143,19036 L 3678,19305 3678,19101 3790,19036 4143,19036 Z M 5535,18028 L 6493,17474 6493,17677 5535,18231 5535,18028 Z M 5507,18247 L 4192,19008 3839,19008 5507,18044 5507,18247 Z"/>
      <path fill="rgb(194,194,194)" stroke="none" d="M 4192,19008 L 3678,19305 3678,19101 3839,19008 4192,19008 Z M 5507,18044 L 6493,17474 6493,17677 5507,18247 5507,18044 Z M 5479,18263 L 4240,18980 3887,18980 5479,18060 5479,18263 Z"/>
      <path fill="rgb(195,195,195)" stroke="none" d="M 4240,18980 L 3678,19305 3678,19101 3887,18980 4240,18980 Z M 5479,18060 L 6493,17474 6493,17677 5479,18263 5479,18060 Z M 5450,18280 L 4290,18951 3938,18951 5450,18077 5450,18280 Z"/>
      <path fill="rgb(196,196,196)" stroke="none" d="M 4290,18951 L 3678,19305 3678,19101 3938,18951 4290,18951 Z M 5450,18077 L 6493,17474 6493,17677 5450,18280 5450,18077 Z M 5422,18296 L 4339,18923 3986,18923 5422,18093 5422,18296 Z"/>
      <path fill="rgb(197,197,197)" stroke="none" d="M 4339,18923 L 3678,19305 3678,19101 3986,18923 4339,18923 Z M 5422,18093 L 6493,17474 6493,17677 5422,18296 5422,18093 Z M 5394,18313 L 4387,18895 4034,18895 5394,18109 5394,18313 Z"/>
      <path fill="rgb(198,198,198)" stroke="none" d="M 4387,18895 L 3678,19305 3678,19101 4034,18895 4387,18895 Z M 5394,18109 L 6493,17474 6493,17677 5394,18313 5394,18109 Z M 5366,18329 L 4435,18867 4083,18867 5366,18125 5366,18329 Z"/>
      <path fill="rgb(199,199,199)" stroke="none" d="M 4435,18867 L 3678,19305 3678,19101 4083,18867 4435,18867 Z M 5366,18125 L 6493,17474 6493,17677 5366,18329 5366,18125 Z M 5338,18345 L 4484,18839 4131,18839 5338,18142 5338,18345 Z"/>
      <path fill="rgb(200,200,200)" stroke="none" d="M 4484,18839 L 3678,19305 3678,19101 4131,18839 4484,18839 Z M 5338,18142 L 6493,17474 6493,17677 5338,18345 5338,18142 Z M 5310,18361 L 4532,18811 4180,18811 5310,18158 5310,18361 Z"/>
      <path fill="rgb(201,201,201)" stroke="none" d="M 4532,18811 L 3678,19305 3678,19101 4180,18811 4532,18811 Z M 5310,18158 L 6493,17474 6493,17677 5310,18361 5310,18158 Z M 5281,18378 L 4582,18782 4230,18782 5281,18175 5281,18378 Z"/>
      <path fill="rgb(202,202,202)" stroke="none" d="M 4582,18782 L 3678,19305 3678,19101 4230,18782 4582,18782 Z M 5281,18175 L 6493,17474 6493,17677 5281,18378 5281,18175 Z M 5253,18394 L 4631,18754 4278,18754 5253,18191 5253,18394 Z"/>
      <path fill="rgb(203,203,203)" stroke="none" d="M 4631,18754 L 3678,19305 3678,19101 4278,18754 4631,18754 Z M 5253,18191 L 6493,17474 6493,17677 5253,18394 5253,18191 Z M 5225,18410 L 4679,18726 4327,18726 5225,18207 5225,18410 Z"/>
      <path fill="rgb(204,204,204)" stroke="none" d="M 4679,18726 L 3678,19305 3678,19101 4327,18726 4679,18726 Z M 5225,18207 L 6493,17474 6493,17677 5225,18410 5225,18207 Z M 5197,18427 L 4728,18698 4375,18698 5197,18223 5197,18427 Z"/>
      <path fill="rgb(205,205,205)" stroke="none" d="M 4728,18698 L 3678,19305 3678,19101 4375,18698 4728,18698 Z M 5197,18223 L 6493,17474 6493,17677 5197,18427 5197,18223 Z M 5169,18443 L 4776,18670 4424,18670 5169,18239 5169,18443 Z"/>
      <path fill="rgb(206,206,206)" stroke="none" d="M 4776,18670 L 3678,19305 3678,19101 4424,18670 4776,18670 Z M 5169,18239 L 6493,17474 6493,17677 5169,18443 5169,18239 Z M 5140,18459 L 4826,18641 4474,18641 5140,18256 5140,18459 Z"/>
      <path fill="rgb(207,207,207)" stroke="none" d="M 4826,18641 L 3678,19305 3678,19101 4474,18641 4826,18641 Z M 5140,18256 L 6493,17474 6493,17677 5140,18459 5140,18256 Z M 5112,18476 L 4875,18613 4522,18613 5112,18272 5112,18476 Z"/>
      <path fill="rgb(208,208,208)" stroke="none" d="M 4875,18613 L 3678,19305 3678,19101 4522,18613 4875,18613 Z M 5112,18272 L 6493,17474 6493,17677 5112,18476 5112,18272 Z M 5084,18492 L 4923,18585 4571,18585 5084,18288 5084,18492 Z"/>
      <path fill="rgb(209,209,209)" stroke="none" d="M 4923,18585 L 3678,19305 3678,19101 4571,18585 4923,18585 Z M 5084,18288 L 6493,17474 6493,17677 5084,18492 5084,18288 Z M 5056,18508 L 4971,18557 4619,18557 5056,18305 5056,18508 Z"/>
      <path fill="rgb(210,210,210)" stroke="none" d="M 4971,18557 L 3678,19305 3678,19101 4619,18557 4971,18557 Z M 5056,18305 L 6493,17474 6493,17677 5056,18508 5056,18305 Z M 5028,18524 L 5020,18529 4668,18529 5028,18321 5028,18524 Z"/>
      <path fill="rgb(211,211,211)" stroke="none" d="M 5020,18529 L 3678,19305 3678,19101 4668,18529 5020,18529 Z M 5028,18321 L 6493,17474 6493,17677 5028,18524 5028,18321 Z M 5000,18501 L 4716,18501 5000,18337 5000,18501 Z"/>
      <path fill="rgb(212,212,212)" stroke="none" d="M 5000,18501 L 5000,18337 6493,17474 6493,17677 3678,19305 3678,19101 4716,18501 5000,18501 Z M 4971,18472 L 4766,18472 4971,18354 4971,18472 Z"/>
      <path fill="rgb(213,213,213)" stroke="none" d="M 4971,18472 L 4971,18354 6493,17474 6493,17677 3678,19305 3678,19101 4766,18472 4971,18472 Z M 4943,18444 L 4815,18444 4943,18370 4943,18444 Z"/>
      <path fill="rgb(214,214,214)" stroke="none" d="M 4943,18444 L 4943,18370 6493,17474 6493,17677 3678,19305 3678,19101 4815,18444 4943,18444 Z M 4915,18416 L 4863,18416 4915,18386 4915,18416 Z"/>
      <path fill="rgb(215,215,215)" stroke="none" d="M 4915,18416 L 4915,18386 6493,17474 6493,17677 3678,19305 3678,19101 4863,18416 4915,18416 Z"/>
      <path fill="rgb(216,216,216)" stroke="none" d="M 6493,17677 L 3678,19305 3678,19101 6493,17474 6493,17677 Z"/>
      <path fill="rgb(217,217,217)" stroke="none" d="M 6493,17677 L 3678,19305 3678,19101 6493,17474 6493,17677 Z"/>
      <path fill="rgb(218,218,218)" stroke="none" d="M 6493,17677 L 3678,19305 3678,19101 6493,17474 6493,17677 Z"/>
      <path fill="rgb(219,219,219)" stroke="none" d="M 6493,17677 L 3678,19305 3678,19101 6493,17474 6493,17677 Z"/>
      <path fill="rgb(220,220,220)" stroke="none" d="M 6493,17677 L 3678,19305 3678,19101 6493,17474 6493,17677 Z"/>
      <path fill="rgb(221,221,221)" stroke="none" d="M 6493,17677 L 3678,19305 3678,19101 6493,17474 6493,17677 Z"/>
      <path fill="rgb(222,222,222)" stroke="none" d="M 6493,17677 L 3678,19305 3678,19101 6493,17474 6493,17677 Z"/>
      <path fill="rgb(223,223,223)" stroke="none" d="M 6493,17677 L 3678,19305 3678,19101 6493,17474 6493,17677 Z"/>
      <path fill="rgb(224,224,224)" stroke="none" d="M 6493,17677 L 3678,19305 3678,19101 6493,17474 6493,17677 Z"/>
      <path fill="rgb(225,225,225)" stroke="none" d="M 6493,17677 L 3678,19305 3678,19101 6493,17474 6493,17677 Z"/>
      <path fill="rgb(226,226,226)" stroke="none" d="M 6493,17677 L 3678,19305 3678,19101 6493,17474 6493,17677 Z"/>
      <path fill="rgb(227,227,227)" stroke="none" d="M 6493,17677 L 3678,19305 3678,19101 6493,17474 6493,17677 Z"/>
      <path fill="rgb(229,229,229)" stroke="none" d="M 6493,17677 L 3678,19305 3678,19101 6493,17474 6493,17677 Z"/>
      <path fill="none" stroke="rgb(255,255,255)" id="Drawing_18_0" stroke-width="40" stroke-linejoin="round" d="M 6493,17677 L 6493,17474 3678,19101 3678,19305 6493,17677 Z"/>
     </g>
     <g>
      <path fill="none" stroke="rgb(0,0,0)" id="Drawing_19_0" stroke-width="40" stroke-linejoin="round" d="M 5525,16915 L 2710,18542 2710,18746 3678,19305 6493,17678 6493,17474 5525,16915 Z"/>
     </g>
     <g id="DrawingGroup_7">
      <g>
       <path fill="rgb(153,153,153)" stroke="none" d="M 6270,17460 L 5566,17053 5038,17358 5742,17765 6270,17460 Z"/>
       <path fill="none" stroke="rgb(255,255,255)" id="Drawing_20_0" stroke-width="40" stroke-linejoin="round" d="M 6270,17460 L 5566,17053 5038,17358 5742,17765 6270,17460 Z"/>
      </g>
      <g>
       <path fill="none" stroke="rgb(255,255,255)" id="Drawing_21_0" stroke-width="40" stroke-linejoin="round" d="M 6094,17562 L 5390,17155"/>
      </g>
      <g>
       <path fill="none" stroke="rgb(255,255,255)" id="Drawing_22_0" stroke-width="40" stroke-linejoin="round" d="M 5918,17663 L 5214,17256"/>
      </g>
      <g>
       <path fill="none" stroke="rgb(255,255,255)" id="Drawing_23_0" stroke-width="40" stroke-linejoin="round" d="M 5742,17155 L 5214,17460"/>
      </g>
      <g>
       <path fill="none" stroke="rgb(255,255,255)" id="Drawing_24_0" stroke-width="40" stroke-linejoin="round" d="M 5918,17256 L 5390,17561"/>
      </g>
      <g>
       <path fill="none" stroke="rgb(255,255,255)" id="Drawing_25_0" stroke-width="40" stroke-linejoin="round" d="M 6094,17358 L 5742,17561"/>
      </g>
     </g>
     <g id="DrawingGroup_8">
      <g>
       <path fill="rgb(153,153,153)" stroke="none" d="M 5528,17887 L 4824,17480 2977,18548 3680,18955 5528,17887 Z"/>
       <path fill="none" stroke="rgb(255,255,255)" id="Drawing_26_0" stroke-width="40" stroke-linejoin="round" d="M 5528,17887 L 4824,17480 2977,18548 3680,18955 5528,17887 Z"/>
      </g>
      <g>
       <path fill="none" stroke="rgb(255,255,255)" id="Drawing_27_0" stroke-width="40" stroke-linejoin="round" d="M 5352,17785 L 3504,18853"/>
      </g>
      <g>
       <path fill="none" stroke="rgb(255,255,255)" id="Drawing_28_0" stroke-width="40" stroke-linejoin="round" d="M 5176,17684 L 3328,18752"/>
      </g>
      <g>
       <path fill="none" stroke="rgb(255,255,255)" id="Drawing_29_0" stroke-width="40" stroke-linejoin="round" d="M 5000,17582 L 3152,18650"/>
      </g>
      <g>
       <path fill="none" stroke="rgb(255,255,255)" id="Drawing_30_0" stroke-width="40" stroke-linejoin="round" d="M 3329,18549 L 3153,18447"/>
      </g>
      <g>
       <path fill="none" stroke="rgb(255,255,255)" id="Drawing_31_0" stroke-width="40" stroke-linejoin="round" d="M 3505,18447 L 3329,18345"/>
      </g>
      <g>
       <path fill="none" stroke="rgb(255,255,255)" id="Drawing_32_0" stroke-width="40" stroke-linejoin="round" d="M 3681,18345 L 3505,18243"/>
      </g>
      <g>
       <path fill="none" stroke="rgb(255,255,255)" id="Drawing_33_0" stroke-width="40" stroke-linejoin="round" d="M 3593,18599 L 3417,18497"/>
      </g>
      <g>
       <path fill="none" stroke="rgb(255,255,255)" id="Drawing_34_0" stroke-width="40" stroke-linejoin="round" d="M 3768,18498 L 3592,18396"/>
      </g>
      <g>
       <path fill="none" stroke="rgb(255,255,255)" id="Drawing_35_0" stroke-width="40" stroke-linejoin="round" d="M 3944,18396 L 3768,18294"/>
      </g>
      <g>
       <path fill="none" stroke="rgb(255,255,255)" id="Drawing_36_0" stroke-width="40" stroke-linejoin="round" d="M 3856,18243 L 3680,18141"/>
      </g>
      <g>
       <path fill="none" stroke="rgb(255,255,255)" id="Drawing_37_0" stroke-width="40" stroke-linejoin="round" d="M 4120,18294 L 3944,18192"/>
      </g>
      <g>
       <path fill="none" stroke="rgb(255,255,255)" id="Drawing_38_0" stroke-width="40" stroke-linejoin="round" d="M 4032,18142 L 3856,18040"/>
      </g>
      <g>
       <path fill="none" stroke="rgb(255,255,255)" id="Drawing_39_0" stroke-width="40" stroke-linejoin="round" d="M 4208,18040 L 4032,17938"/>
      </g>
      <g>
       <path fill="none" stroke="rgb(255,255,255)" id="Drawing_40_0" stroke-width="40" stroke-linejoin="round" d="M 4384,17938 L 4208,17836"/>
      </g>
      <g>
       <path fill="none" stroke="rgb(255,255,255)" id="Drawing_41_0" stroke-width="40" stroke-linejoin="round" d="M 4296,18193 L 4120,18091"/>
      </g>
      <g>
       <path fill="none" stroke="rgb(255,255,255)" id="Drawing_42_0" stroke-width="40" stroke-linejoin="round" d="M 4472,18091 L 4296,17989"/>
      </g>
      <g>
       <path fill="none" stroke="rgb(255,255,255)" id="Drawing_43_0" stroke-width="40" stroke-linejoin="round" d="M 4648,17989 L 4472,17887"/>
      </g>
      <g>
       <path fill="none" stroke="rgb(255,255,255)" id="Drawing_44_0" stroke-width="40" stroke-linejoin="round" d="M 4560,17837 L 4384,17735"/>
      </g>
      <g>
       <path fill="none" stroke="rgb(255,255,255)" id="Drawing_45_0" stroke-width="40" stroke-linejoin="round" d="M 4824,17887 L 4648,17785"/>
      </g>
      <g>
       <path fill="none" stroke="rgb(255,255,255)" id="Drawing_46_0" stroke-width="40" stroke-linejoin="round" d="M 4736,17735 L 4560,17633"/>
      </g>
      <g>
       <path fill="none" stroke="rgb(255,255,255)" id="Drawing_47_0" stroke-width="40" stroke-linejoin="round" d="M 4912,17633 L 4736,17531"/>
      </g>
      <g>
       <path fill="none" stroke="rgb(255,255,255)" id="Drawing_48_0" stroke-width="40" stroke-linejoin="round" d="M 5000,17786 L 4824,17684"/>
      </g>
      <g>
       <path fill="none" stroke="rgb(255,255,255)" id="Drawing_49_0" stroke-width="40" stroke-linejoin="round" d="M 3856,18650 L 3680,18548"/>
      </g>
      <g>
       <path fill="none" stroke="rgb(255,255,255)" id="Drawing_50_0" stroke-width="40" stroke-linejoin="round" d="M 4032,18549 L 3856,18447"/>
      </g>
      <g>
       <path fill="none" stroke="rgb(255,255,255)" id="Drawing_51_0" stroke-width="40" stroke-linejoin="round" d="M 4208,18447 L 4032,18345"/>
      </g>
      <g>
       <path fill="none" stroke="rgb(255,255,255)" id="Drawing_52_0" stroke-width="40" stroke-linejoin="round" d="M 4296,18599 L 4120,18497"/>
      </g>
      <g>
       <path fill="none" stroke="rgb(255,255,255)" id="Drawing_53_0" stroke-width="40" stroke-linejoin="round" d="M 4472,18498 L 4296,18396"/>
      </g>
      <g>
       <path fill="none" stroke="rgb(255,255,255)" id="Drawing_54_0" stroke-width="40" stroke-linejoin="round" d="M 4384,18345 L 4208,18243"/>
      </g>
      <g>
       <path fill="none" stroke="rgb(255,255,255)" id="Drawing_55_0" stroke-width="40" stroke-linejoin="round" d="M 4560,18243 L 4384,18141"/>
      </g>
      <g>
       <path fill="none" stroke="rgb(255,255,255)" id="Drawing_56_0" stroke-width="40" stroke-linejoin="round" d="M 4736,18142 L 4560,18040"/>
      </g>
      <g>
       <path fill="none" stroke="rgb(255,255,255)" id="Drawing_57_0" stroke-width="40" stroke-linejoin="round" d="M 4912,18040 L 4736,17938"/>
      </g>
      <g>
       <path fill="none" stroke="rgb(255,255,255)" id="Drawing_58_0" stroke-width="40" stroke-linejoin="round" d="M 5176,18091 L 5000,17989"/>
      </g>
      <g>
       <path fill="none" stroke="rgb(255,255,255)" id="Drawing_59_0" stroke-width="40" stroke-linejoin="round" d="M 5088,17938 L 4912,17836"/>
      </g>
      <g>
       <path fill="none" stroke="rgb(255,255,255)" id="Drawing_60_0" stroke-width="40" stroke-linejoin="round" d="M 5352,17989 L 5176,17887"/>
      </g>
      <g>
       <path fill="none" stroke="rgb(255,255,255)" id="Drawing_61_0" stroke-width="40" stroke-linejoin="round" d="M 3944,18803 L 3768,18701"/>
      </g>
      <g>
       <path fill="none" stroke="rgb(255,255,255)" id="Drawing_62_0" stroke-width="40" stroke-linejoin="round" d="M 4120,18701 L 3944,18599"/>
      </g>
     </g>
    </g>
   </g>
  </g>
 </g>
</svg>