<?xml version="1.0" encoding="UTF-8"?>

<svg version="1.2" baseProfile="tiny" width="49.28mm" height="64.99mm" viewBox="4000 3252 4928 6499" preserveAspectRatio="xMidYMid" fill-rule="evenodd" stroke-width="28.222" stroke-linejoin="round" xmlns="http://www.w3.org/2000/svg" xmlns:xlink="http://www.w3.org/1999/xlink" xml:space="preserve">
 <g visibility="visible" id="Slide_1">
  <g id="DrawingGroup_1">
   <g id="DrawingGroup_2">
    <g>
     <path fill="rgb(221,221,221)" stroke="none" d="M 7951,9730 C 8191,9730 8908,9529 8908,9377 8908,9226 8885,9125 8646,9125 8646,9276 7947,9276 7951,9730 Z"/>
     <path fill="none" stroke="rgb(221,221,221)" id="Drawing_1_0" stroke-width="40" stroke-linejoin="round" d="M 7951,9730 C 8191,9730 8908,9529 8908,9377 8908,9226 8885,9125 8646,9125 8646,9276 7947,9276 7951,9730 Z"/>
    </g>
    <g id="DrawingGroup_3">
     <g>
      <defs>
       <linearGradient id="Gradient_1" gradientUnits="userSpaceOnUse" x1="7599" y1="9478" x2="8035" y2="9478">
        <stop offset="0.1" stop-color="rgb(179,179,179)"/>
        <stop offset="1" stop-color="rgb(229,229,229)"/>
       </linearGradient>
      </defs>
      <path fill="url(#Gradient_1)" stroke="rgb(255,255,255)" id="Drawing_2_0" stroke-width="40" stroke-linejoin="round" d="M 7599,9529 L 7686,9226 8035,9428 7948,9731 7599,9529 Z"/>
     </g>
     <g>
      <defs>
       <linearGradient id="Gradient_2" gradientUnits="userSpaceOnUse" x1="8166" y1="8873" x2="8166" y2="9428">
        <stop offset="0.1" stop-color="rgb(179,179,179)"/>
        <stop offset="1" stop-color="rgb(229,229,229)"/>
       </linearGradient>
      </defs>
      <path fill="url(#Gradient_2)" stroke="rgb(255,255,255)" id="Drawing_3_0" stroke-width="40" stroke-linejoin="round" d="M 7686,9226 L 7861,9075 8122,8923 8297,8873 8646,9075 8472,9125 8210,9277 8035,9428 7686,9226 Z"/>
     </g>
     <g>
      <path fill="rgb(179,179,179)" stroke="none" d="M 8569,9371 L 8076,9656 7964,9656 7965,9650 7985,9580 8006,9519 8028,9466 8053,9420 8078,9382 8105,9348 8133,9320 8163,9296 8193,9275 8255,9240 8384,9175 8449,9138 8513,9106 8543,9093 8569,9084 8569,9371 Z"/>
      <path fill="rgb(180,180,180)" stroke="none" d="M 8076,9656 L 7948,9730 7964,9656 8076,9656 Z M 8569,9084 L 8572,9083 8599,9076 8612,9075 8625,9074 8637,9075 8648,9076 8659,9080 8669,9084 8679,9090 8688,9098 8696,9107 8704,9118 8711,9131 8717,9146 8726,9181 8732,9224 8734,9276 8569,9371 8569,9084 Z M 8561,9376 L 8090,9648 7966,9648 7985,9580 8006,9519 8028,9466 8053,9420 8078,9382 8105,9348 8133,9320 8163,9296 8193,9275 8255,9240 8384,9175 8449,9138 8513,9106 8543,9093 8561,9087 8561,9376 Z"/>
      <path fill="rgb(181,181,181)" stroke="none" d="M 8090,9648 L 7948,9730 7965,9650 7966,9648 8090,9648 Z M 8561,9087 L 8572,9083 8599,9076 8612,9075 8625,9074 8637,9075 8648,9076 8659,9080 8669,9084 8679,9090 8688,9098 8696,9107 8704,9118 8711,9131 8717,9146 8726,9181 8732,9224 8734,9276 8561,9376 8561,9087 Z M 8553,9381 L 8104,9640 7968,9640 7985,9580 8006,9519 8028,9466 8053,9420 8078,9382 8105,9348 8133,9320 8163,9296 8193,9275 8255,9240 8384,9175 8449,9138 8513,9106 8543,9093 8553,9090 8553,9381 Z"/>
      <path fill="rgb(182,182,182)" stroke="none" d="M 8104,9640 L 7948,9730 7965,9650 7968,9640 8104,9640 Z M 8553,9090 L 8572,9083 8599,9076 8612,9075 8625,9074 8637,9075 8648,9076 8659,9080 8669,9084 8679,9090 8688,9098 8696,9107 8704,9118 8711,9131 8717,9146 8726,9181 8732,9224 8734,9276 8553,9381 8553,9090 Z M 8545,9385 L 8118,9632 7970,9632 7985,9580 8006,9519 8028,9466 8053,9420 8078,9382 8105,9348 8133,9320 8163,9296 8193,9275 8255,9240 8384,9175 8449,9138 8513,9106 8543,9093 8545,9092 8545,9385 Z"/>
      <path fill="rgb(183,183,183)" stroke="none" d="M 8118,9632 L 7948,9730 7965,9650 7970,9632 8118,9632 Z M 8545,9092 L 8572,9083 8599,9076 8612,9075 8625,9074 8637,9075 8648,9076 8659,9080 8669,9084 8679,9090 8688,9098 8696,9107 8704,9118 8711,9131 8717,9146 8726,9181 8732,9224 8734,9276 8545,9385 8545,9092 Z M 8537,9390 L 8132,9624 7972,9624 7985,9580 8006,9519 8028,9466 8053,9420 8078,9382 8105,9348 8133,9320 8163,9296 8193,9275 8255,9240 8384,9175 8449,9138 8513,9106 8537,9096 8537,9390 Z"/>
      <path fill="rgb(184,184,184)" stroke="none" d="M 8132,9624 L 7948,9730 7965,9650 7972,9624 8132,9624 Z M 8537,9096 L 8543,9093 8572,9083 8599,9076 8612,9075 8625,9074 8637,9075 8648,9076 8659,9080 8669,9084 8679,9090 8688,9098 8696,9107 8704,9118 8711,9131 8717,9146 8726,9181 8732,9224 8734,9276 8537,9390 8537,9096 Z M 8529,9394 L 8145,9616 7975,9616 7985,9580 8006,9519 8028,9466 8053,9420 8078,9382 8105,9348 8133,9320 8163,9296 8193,9275 8255,9240 8384,9175 8449,9138 8513,9106 8529,9099 8529,9394 Z"/>
      <path fill="rgb(185,185,185)" stroke="none" d="M 8145,9616 L 7948,9730 7965,9650 7975,9616 8145,9616 Z M 8529,9099 L 8543,9093 8572,9083 8599,9076 8612,9075 8625,9074 8637,9075 8648,9076 8659,9080 8669,9084 8679,9090 8688,9098 8696,9107 8704,9118 8711,9131 8717,9146 8726,9181 8732,9224 8734,9276 8529,9394 8529,9099 Z M 8521,9399 L 8159,9608 7977,9608 7985,9580 8006,9519 8028,9466 8053,9420 8078,9382 8105,9348 8133,9320 8163,9296 8193,9275 8255,9240 8384,9175 8449,9138 8513,9106 8521,9103 8521,9399 Z"/>
      <path fill="rgb(186,186,186)" stroke="none" d="M 8159,9608 L 7948,9730 7965,9650 7977,9608 8159,9608 Z M 8521,9103 L 8543,9093 8572,9083 8599,9076 8612,9075 8625,9074 8637,9075 8648,9076 8659,9080 8669,9084 8679,9090 8688,9098 8696,9107 8704,9118 8711,9131 8717,9146 8726,9181 8732,9224 8734,9276 8521,9399 8521,9103 Z M 8513,9404 L 8173,9600 7979,9600 7985,9580 8006,9519 8028,9466 8053,9420 8078,9382 8105,9348 8133,9320 8163,9296 8193,9275 8255,9240 8384,9175 8449,9138 8513,9106 8513,9404 Z"/>
      <path fill="rgb(187,187,187)" stroke="none" d="M 8173,9600 L 7948,9730 7965,9650 7979,9600 8173,9600 Z M 8513,9106 L 8543,9093 8572,9083 8599,9076 8612,9075 8625,9074 8637,9075 8648,9076 8659,9080 8669,9084 8679,9090 8688,9098 8696,9107 8704,9118 8711,9131 8717,9146 8726,9181 8732,9224 8734,9276 8513,9404 8513,9106 Z M 8505,9408 L 8187,9592 7982,9592 7985,9580 8006,9519 8028,9466 8053,9420 8078,9382 8105,9348 8133,9320 8163,9296 8193,9275 8255,9240 8384,9175 8449,9138 8505,9110 8505,9408 Z"/>
      <path fill="rgb(188,188,188)" stroke="none" d="M 8187,9592 L 7948,9730 7965,9650 7982,9592 8187,9592 Z M 8505,9110 L 8513,9106 8543,9093 8572,9083 8599,9076 8612,9075 8625,9074 8637,9075 8648,9076 8659,9080 8669,9084 8679,9090 8688,9098 8696,9107 8704,9118 8711,9131 8717,9146 8726,9181 8732,9224 8734,9276 8505,9408 8505,9110 Z M 8498,9412 L 8199,9585 7984,9585 7985,9580 8006,9519 8028,9466 8053,9420 8078,9382 8105,9348 8133,9320 8163,9296 8193,9275 8255,9240 8384,9175 8449,9138 8498,9114 8498,9412 Z"/>
      <path fill="rgb(189,189,189)" stroke="none" d="M 8199,9585 L 7948,9730 7965,9650 7984,9585 8199,9585 Z M 8498,9114 L 8513,9106 8543,9093 8572,9083 8599,9076 8612,9075 8625,9074 8637,9075 8648,9076 8659,9080 8669,9084 8679,9090 8688,9098 8696,9107 8704,9118 8711,9131 8717,9146 8726,9181 8732,9224 8734,9276 8498,9412 8498,9114 Z M 8490,9417 L 8213,9577 7986,9577 8006,9519 8028,9466 8053,9420 8078,9382 8105,9348 8133,9320 8163,9296 8193,9275 8255,9240 8384,9175 8449,9138 8490,9118 8490,9417 Z"/>
      <path fill="rgb(190,190,190)" stroke="none" d="M 8213,9577 L 7948,9730 7965,9650 7985,9580 7986,9577 8213,9577 Z M 8490,9118 L 8513,9106 8543,9093 8572,9083 8599,9076 8612,9075 8625,9074 8637,9075 8648,9076 8659,9080 8669,9084 8679,9090 8688,9098 8696,9107 8704,9118 8711,9131 8717,9146 8726,9181 8732,9224 8734,9276 8490,9417 8490,9118 Z M 8482,9422 L 8227,9569 7989,9569 8006,9519 8028,9466 8053,9420 8078,9382 8105,9348 8133,9320 8163,9296 8193,9275 8255,9240 8384,9175 8449,9138 8482,9122 8482,9422 Z"/>
      <path fill="rgb(191,191,191)" stroke="none" d="M 8227,9569 L 7948,9730 7965,9650 7985,9580 7989,9569 8227,9569 Z M 8482,9122 L 8513,9106 8543,9093 8572,9083 8599,9076 8612,9075 8625,9074 8637,9075 8648,9076 8659,9080 8669,9084 8679,9090 8688,9098 8696,9107 8704,9118 8711,9131 8717,9146 8726,9181 8732,9224 8734,9276 8482,9422 8482,9122 Z M 8474,9426 L 8241,9561 7992,9561 8006,9519 8028,9466 8053,9420 8078,9382 8105,9348 8133,9320 8163,9296 8193,9275 8255,9240 8384,9175 8449,9138 8474,9126 8474,9426 Z"/>
      <path fill="rgb(192,192,192)" stroke="none" d="M 8241,9561 L 7948,9730 7965,9650 7985,9580 7992,9561 8241,9561 Z M 8474,9126 L 8513,9106 8543,9093 8572,9083 8599,9076 8612,9075 8625,9074 8637,9075 8648,9076 8659,9080 8669,9084 8679,9090 8688,9098 8696,9107 8704,9118 8711,9131 8717,9146 8726,9181 8732,9224 8734,9276 8474,9426 8474,9126 Z M 8466,9431 L 8254,9553 7994,9553 8006,9519 8028,9466 8053,9420 8078,9382 8105,9348 8133,9320 8163,9296 8193,9275 8255,9240 8384,9175 8449,9138 8466,9130 8466,9431 Z"/>
      <path fill="rgb(193,193,193)" stroke="none" d="M 8254,9553 L 7948,9730 7965,9650 7985,9580 7994,9553 8254,9553 Z M 8466,9130 L 8513,9106 8543,9093 8572,9083 8599,9076 8612,9075 8625,9074 8637,9075 8648,9076 8659,9080 8669,9084 8679,9090 8688,9098 8696,9107 8704,9118 8711,9131 8717,9146 8726,9181 8732,9224 8734,9276 8466,9431 8466,9130 Z M 8458,9435 L 8268,9545 7997,9545 8006,9519 8028,9466 8053,9420 8078,9382 8105,9348 8133,9320 8163,9296 8193,9275 8255,9240 8384,9175 8449,9138 8458,9134 8458,9435 Z"/>
      <path fill="rgb(194,194,194)" stroke="none" d="M 8268,9545 L 7948,9730 7965,9650 7985,9580 7997,9545 8268,9545 Z M 8458,9134 L 8513,9106 8543,9093 8572,9083 8599,9076 8612,9075 8625,9074 8637,9075 8648,9076 8659,9080 8669,9084 8679,9090 8688,9098 8696,9107 8704,9118 8711,9131 8717,9146 8726,9181 8732,9224 8734,9276 8458,9435 8458,9134 Z M 8450,9440 L 8282,9537 8000,9537 8006,9519 8028,9466 8053,9420 8078,9382 8105,9348 8133,9320 8163,9296 8193,9275 8255,9240 8384,9175 8449,9138 8450,9138 8450,9440 Z"/>
      <path fill="rgb(195,195,195)" stroke="none" d="M 8282,9537 L 7948,9730 7965,9650 7985,9580 8000,9537 8282,9537 Z M 8450,9138 L 8513,9106 8543,9093 8572,9083 8599,9076 8612,9075 8625,9074 8637,9075 8648,9076 8659,9080 8669,9084 8679,9090 8688,9098 8696,9107 8704,9118 8711,9131 8717,9146 8726,9181 8732,9224 8734,9276 8450,9440 8450,9138 Z M 8442,9445 L 8296,9529 8003,9529 8006,9519 8028,9466 8053,9420 8078,9382 8105,9348 8133,9320 8163,9296 8193,9275 8255,9240 8384,9175 8442,9142 8442,9445 Z"/>
      <path fill="rgb(196,196,196)" stroke="none" d="M 8296,9529 L 7948,9730 7965,9650 7985,9580 8003,9529 8296,9529 Z M 8442,9142 L 8449,9138 8513,9106 8543,9093 8572,9083 8599,9076 8612,9075 8625,9074 8637,9075 8648,9076 8659,9080 8669,9084 8679,9090 8688,9098 8696,9107 8704,9118 8711,9131 8717,9146 8726,9181 8732,9224 8734,9276 8442,9445 8442,9142 Z M 8434,9449 L 8310,9521 8005,9521 8006,9519 8028,9466 8053,9420 8078,9382 8105,9348 8133,9320 8163,9296 8193,9275 8255,9240 8384,9175 8434,9147 8434,9449 Z"/>
      <path fill="rgb(197,197,197)" stroke="none" d="M 8310,9521 L 7948,9730 7965,9650 7985,9580 8005,9521 8310,9521 Z M 8434,9147 L 8449,9138 8513,9106 8543,9093 8572,9083 8599,9076 8612,9075 8625,9074 8637,9075 8648,9076 8659,9080 8669,9084 8679,9090 8688,9098 8696,9107 8704,9118 8711,9131 8717,9146 8726,9181 8732,9224 8734,9276 8434,9449 8434,9147 Z M 8427,9453 L 8322,9514 8008,9514 8028,9466 8053,9420 8078,9382 8105,9348 8133,9320 8163,9296 8193,9275 8255,9240 8384,9175 8427,9151 8427,9453 Z"/>
      <path fill="rgb(198,198,198)" stroke="none" d="M 8322,9514 L 7948,9730 7965,9650 7985,9580 8006,9519 8008,9514 8322,9514 Z M 8427,9151 L 8449,9138 8513,9106 8543,9093 8572,9083 8599,9076 8612,9075 8625,9074 8637,9075 8648,9076 8659,9080 8669,9084 8679,9090 8688,9098 8696,9107 8704,9118 8711,9131 8717,9146 8726,9181 8732,9224 8734,9276 8427,9453 8427,9151 Z M 8419,9458 L 8336,9506 8011,9506 8028,9466 8053,9420 8078,9382 8105,9348 8133,9320 8163,9296 8193,9275 8255,9240 8384,9175 8419,9155 8419,9458 Z"/>
      <path fill="rgb(199,199,199)" stroke="none" d="M 8336,9506 L 7948,9730 7965,9650 7985,9580 8006,9519 8011,9506 8336,9506 Z M 8419,9155 L 8449,9138 8513,9106 8543,9093 8572,9083 8599,9076 8612,9075 8625,9074 8637,9075 8648,9076 8659,9080 8669,9084 8679,9090 8688,9098 8696,9107 8704,9118 8711,9131 8717,9146 8726,9181 8732,9224 8734,9276 8419,9458 8419,9155 Z M 8411,9463 L 8350,9498 8015,9498 8028,9466 8053,9420 8078,9382 8105,9348 8133,9320 8163,9296 8193,9275 8255,9240 8384,9175 8411,9160 8411,9463 Z"/>
      <path fill="rgb(200,200,200)" stroke="none" d="M 8350,9498 L 7948,9730 7965,9650 7985,9580 8006,9519 8015,9498 8350,9498 Z M 8411,9160 L 8449,9138 8513,9106 8543,9093 8572,9083 8599,9076 8612,9075 8625,9074 8637,9075 8648,9076 8659,9080 8669,9084 8679,9090 8688,9098 8696,9107 8704,9118 8711,9131 8717,9146 8726,9181 8732,9224 8734,9276 8411,9463 8411,9160 Z M 8403,9467 L 8364,9490 8018,9490 8028,9466 8053,9420 8078,9382 8105,9348 8133,9320 8163,9296 8193,9275 8255,9240 8384,9175 8403,9164 8403,9467 Z"/>
      <path fill="rgb(201,201,201)" stroke="none" d="M 8364,9490 L 7948,9730 7965,9650 7985,9580 8006,9519 8018,9490 8364,9490 Z M 8403,9164 L 8449,9138 8513,9106 8543,9093 8572,9083 8599,9076 8612,9075 8625,9074 8637,9075 8648,9076 8659,9080 8669,9084 8679,9090 8688,9098 8696,9107 8704,9118 8711,9131 8717,9146 8726,9181 8732,9224 8734,9276 8403,9467 8403,9164 Z M 8395,9472 L 8377,9482 8021,9482 8028,9466 8053,9420 8078,9382 8105,9348 8133,9320 8163,9296 8193,9275 8255,9240 8384,9175 8395,9169 8395,9472 Z"/>
      <path fill="rgb(202,202,202)" stroke="none" d="M 8377,9482 L 7948,9730 7965,9650 7985,9580 8006,9519 8021,9482 8377,9482 Z M 8395,9169 L 8449,9138 8513,9106 8543,9093 8572,9083 8599,9076 8612,9075 8625,9074 8637,9075 8648,9076 8659,9080 8669,9084 8679,9090 8688,9098 8696,9107 8704,9118 8711,9131 8717,9146 8726,9181 8732,9224 8734,9276 8395,9472 8395,9169 Z M 8387,9474 L 8025,9474 8028,9466 8053,9420 8078,9382 8105,9348 8133,9320 8163,9296 8193,9275 8255,9240 8384,9175 8387,9173 8387,9474 Z"/>
      <path fill="rgb(203,203,203)" stroke="none" d="M 8387,9474 L 8387,9173 8449,9138 8513,9106 8543,9093 8572,9083 8599,9076 8612,9075 8625,9074 8637,9075 8648,9076 8659,9080 8669,9084 8679,9090 8688,9098 8696,9107 8704,9118 8711,9131 8717,9146 8726,9181 8732,9224 8734,9276 7948,9730 7965,9650 7985,9580 8006,9519 8025,9474 8387,9474 Z M 8379,9466 L 8028,9466 8053,9420 8078,9382 8105,9348 8133,9320 8163,9296 8193,9275 8255,9240 8379,9178 8379,9466 Z"/>
      <path fill="rgb(204,204,204)" stroke="none" d="M 8379,9466 L 8379,9178 8384,9175 8449,9138 8513,9106 8543,9093 8572,9083 8599,9076 8612,9075 8625,9074 8637,9075 8648,9076 8659,9080 8669,9084 8679,9090 8688,9098 8696,9107 8704,9118 8711,9131 8717,9146 8726,9181 8732,9224 8734,9276 7948,9730 7965,9650 7985,9580 8006,9519 8028,9466 8379,9466 Z M 8371,9458 L 8032,9458 8053,9420 8078,9382 8105,9348 8133,9320 8163,9296 8193,9275 8255,9240 8371,9182 8371,9458 Z"/>
      <path fill="rgb(205,205,205)" stroke="none" d="M 8371,9458 L 8371,9182 8384,9175 8449,9138 8513,9106 8543,9093 8572,9083 8599,9076 8612,9075 8625,9074 8637,9075 8648,9076 8659,9080 8669,9084 8679,9090 8688,9098 8696,9107 8704,9118 8711,9131 8717,9146 8726,9181 8732,9224 8734,9276 7948,9730 7965,9650 7985,9580 8006,9519 8028,9466 8032,9458 8371,9458 Z M 8363,9450 L 8037,9450 8053,9420 8078,9382 8105,9348 8133,9320 8163,9296 8193,9275 8255,9240 8363,9186 8363,9450 Z"/>
      <path fill="rgb(206,206,206)" stroke="none" d="M 8363,9450 L 8363,9186 8384,9175 8449,9138 8513,9106 8543,9093 8572,9083 8599,9076 8612,9075 8625,9074 8637,9075 8648,9076 8659,9080 8669,9084 8679,9090 8688,9098 8696,9107 8704,9118 8711,9131 8717,9146 8726,9181 8732,9224 8734,9276 7948,9730 7965,9650 7985,9580 8006,9519 8028,9466 8037,9450 8363,9450 Z M 8356,9443 L 8041,9443 8053,9420 8078,9382 8105,9348 8133,9320 8163,9296 8193,9275 8255,9240 8356,9189 8356,9443 Z"/>
      <path fill="rgb(207,207,207)" stroke="none" d="M 8356,9443 L 8356,9189 8384,9175 8449,9138 8513,9106 8543,9093 8572,9083 8599,9076 8612,9075 8625,9074 8637,9075 8648,9076 8659,9080 8669,9084 8679,9090 8688,9098 8696,9107 8704,9118 8711,9131 8717,9146 8726,9181 8732,9224 8734,9276 7948,9730 7965,9650 7985,9580 8006,9519 8028,9466 8041,9443 8356,9443 Z M 8348,9435 L 8045,9435 8053,9420 8078,9382 8105,9348 8133,9320 8163,9296 8193,9275 8255,9240 8348,9193 8348,9435 Z"/>
      <path fill="rgb(208,208,208)" stroke="none" d="M 8348,9435 L 8348,9193 8384,9175 8449,9138 8513,9106 8543,9093 8572,9083 8599,9076 8612,9075 8625,9074 8637,9075 8648,9076 8659,9080 8669,9084 8679,9090 8688,9098 8696,9107 8704,9118 8711,9131 8717,9146 8726,9181 8732,9224 8734,9276 7948,9730 7965,9650 7985,9580 8006,9519 8028,9466 8045,9435 8348,9435 Z M 8340,9427 L 8049,9427 8053,9420 8078,9382 8105,9348 8133,9320 8163,9296 8193,9275 8255,9240 8340,9197 8340,9427 Z"/>
      <path fill="rgb(209,209,209)" stroke="none" d="M 8340,9427 L 8340,9197 8384,9175 8449,9138 8513,9106 8543,9093 8572,9083 8599,9076 8612,9075 8625,9074 8637,9075 8648,9076 8659,9080 8669,9084 8679,9090 8688,9098 8696,9107 8704,9118 8711,9131 8717,9146 8726,9181 8732,9224 8734,9276 7948,9730 7965,9650 7985,9580 8006,9519 8028,9466 8049,9427 8340,9427 Z M 8332,9419 L 8054,9419 8078,9382 8105,9348 8133,9320 8163,9296 8193,9275 8255,9240 8332,9201 8332,9419 Z"/>
      <path fill="rgb(210,210,210)" stroke="none" d="M 8332,9419 L 8332,9201 8384,9175 8449,9138 8513,9106 8543,9093 8572,9083 8599,9076 8612,9075 8625,9074 8637,9075 8648,9076 8659,9080 8669,9084 8679,9090 8688,9098 8696,9107 8704,9118 8711,9131 8717,9146 8726,9181 8732,9224 8734,9276 7948,9730 7965,9650 7985,9580 8006,9519 8028,9466 8053,9420 8054,9419 8332,9419 Z M 8324,9411 L 8059,9411 8078,9382 8105,9348 8133,9320 8163,9296 8193,9275 8255,9240 8324,9205 8324,9411 Z"/>
      <path fill="rgb(211,211,211)" stroke="none" d="M 8324,9411 L 8324,9205 8384,9175 8449,9138 8513,9106 8543,9093 8572,9083 8599,9076 8612,9075 8625,9074 8637,9075 8648,9076 8659,9080 8669,9084 8679,9090 8688,9098 8696,9107 8704,9118 8711,9131 8717,9146 8726,9181 8732,9224 8734,9276 7948,9730 7965,9650 7985,9580 8006,9519 8028,9466 8053,9420 8059,9411 8324,9411 Z M 8316,9403 L 8064,9403 8078,9382 8105,9348 8133,9320 8163,9296 8193,9275 8255,9240 8316,9209 8316,9403 Z"/>
      <path fill="rgb(212,212,212)" stroke="none" d="M 8316,9403 L 8316,9209 8384,9175 8449,9138 8513,9106 8543,9093 8572,9083 8599,9076 8612,9075 8625,9074 8637,9075 8648,9076 8659,9080 8669,9084 8679,9090 8688,9098 8696,9107 8704,9118 8711,9131 8717,9146 8726,9181 8732,9224 8734,9276 7948,9730 7965,9650 7985,9580 8006,9519 8028,9466 8053,9420 8064,9403 8316,9403 Z M 8308,9395 L 8069,9395 8078,9382 8105,9348 8133,9320 8163,9296 8193,9275 8255,9240 8308,9213 8308,9395 Z"/>
      <path fill="rgb(213,213,213)" stroke="none" d="M 8308,9395 L 8308,9213 8384,9175 8449,9138 8513,9106 8543,9093 8572,9083 8599,9076 8612,9075 8625,9074 8637,9075 8648,9076 8659,9080 8669,9084 8679,9090 8688,9098 8696,9107 8704,9118 8711,9131 8717,9146 8726,9181 8732,9224 8734,9276 7948,9730 7965,9650 7985,9580 8006,9519 8028,9466 8053,9420 8069,9395 8308,9395 Z M 8300,9387 L 8075,9387 8078,9382 8105,9348 8133,9320 8163,9296 8193,9275 8255,9240 8300,9217 8300,9387 Z"/>
      <path fill="rgb(214,214,214)" stroke="none" d="M 8300,9387 L 8300,9217 8384,9175 8449,9138 8513,9106 8543,9093 8572,9083 8599,9076 8612,9075 8625,9074 8637,9075 8648,9076 8659,9080 8669,9084 8679,9090 8688,9098 8696,9107 8704,9118 8711,9131 8717,9146 8726,9181 8732,9224 8734,9276 7948,9730 7965,9650 7985,9580 8006,9519 8028,9466 8053,9420 8075,9387 8300,9387 Z M 8292,9379 L 8080,9379 8105,9348 8133,9320 8163,9296 8193,9275 8255,9240 8292,9221 8292,9379 Z"/>
      <path fill="rgb(215,215,215)" stroke="none" d="M 8292,9379 L 8292,9221 8384,9175 8449,9138 8513,9106 8543,9093 8572,9083 8599,9076 8612,9075 8625,9074 8637,9075 8648,9076 8659,9080 8669,9084 8679,9090 8688,9098 8696,9107 8704,9118 8711,9131 8717,9146 8726,9181 8732,9224 8734,9276 7948,9730 7965,9650 7985,9580 8006,9519 8028,9466 8053,9420 8078,9382 8080,9379 8292,9379 Z M 8285,9372 L 8086,9372 8105,9348 8133,9320 8163,9296 8193,9275 8255,9240 8285,9225 8285,9372 Z"/>
      <path fill="rgb(216,216,216)" stroke="none" d="M 8285,9372 L 8285,9225 8384,9175 8449,9138 8513,9106 8543,9093 8572,9083 8599,9076 8612,9075 8625,9074 8637,9075 8648,9076 8659,9080 8669,9084 8679,9090 8688,9098 8696,9107 8704,9118 8711,9131 8717,9146 8726,9181 8732,9224 8734,9276 7948,9730 7965,9650 7985,9580 8006,9519 8028,9466 8053,9420 8078,9382 8086,9372 8285,9372 Z M 8277,9364 L 8092,9364 8105,9348 8133,9320 8163,9296 8193,9275 8255,9240 8277,9229 8277,9364 Z"/>
      <path fill="rgb(217,217,217)" stroke="none" d="M 8277,9364 L 8277,9229 8384,9175 8449,9138 8513,9106 8543,9093 8572,9083 8599,9076 8612,9075 8625,9074 8637,9075 8648,9076 8659,9080 8669,9084 8679,9090 8688,9098 8696,9107 8704,9118 8711,9131 8717,9146 8726,9181 8732,9224 8734,9276 7948,9730 7965,9650 7985,9580 8006,9519 8028,9466 8053,9420 8078,9382 8092,9364 8277,9364 Z M 8269,9356 L 8099,9356 8105,9348 8133,9320 8163,9296 8193,9275 8255,9240 8269,9233 8269,9356 Z"/>
      <path fill="rgb(218,218,218)" stroke="none" d="M 8269,9356 L 8269,9233 8384,9175 8449,9138 8513,9106 8543,9093 8572,9083 8599,9076 8612,9075 8625,9074 8637,9075 8648,9076 8659,9080 8669,9084 8679,9090 8688,9098 8696,9107 8704,9118 8711,9131 8717,9146 8726,9181 8732,9224 8734,9276 7948,9730 7965,9650 7985,9580 8006,9519 8028,9466 8053,9420 8078,9382 8099,9356 8269,9356 Z M 8261,9348 L 8105,9348 8133,9320 8163,9296 8193,9275 8255,9240 8261,9237 8261,9348 Z"/>
      <path fill="rgb(219,219,219)" stroke="none" d="M 8261,9348 L 8261,9237 8384,9175 8449,9138 8513,9106 8543,9093 8572,9083 8599,9076 8612,9075 8625,9074 8637,9075 8648,9076 8659,9080 8669,9084 8679,9090 8688,9098 8696,9107 8704,9118 8711,9131 8717,9146 8726,9181 8732,9224 8734,9276 7948,9730 7965,9650 7985,9580 8006,9519 8028,9466 8053,9420 8078,9382 8105,9348 8261,9348 Z M 8253,9340 L 8113,9340 8133,9320 8163,9296 8193,9275 8253,9241 8253,9340 Z"/>
      <path fill="rgb(220,220,220)" stroke="none" d="M 8253,9340 L 8253,9241 8255,9240 8384,9175 8449,9138 8513,9106 8543,9093 8572,9083 8599,9076 8612,9075 8625,9074 8637,9075 8648,9076 8659,9080 8669,9084 8679,9090 8688,9098 8696,9107 8704,9118 8711,9131 8717,9146 8726,9181 8732,9224 8734,9276 7948,9730 7965,9650 7985,9580 8006,9519 8028,9466 8053,9420 8078,9382 8105,9348 8113,9340 8253,9340 Z M 8245,9332 L 8121,9332 8133,9320 8163,9296 8193,9275 8245,9246 8245,9332 Z"/>
      <path fill="rgb(221,221,221)" stroke="none" d="M 8245,9332 L 8245,9246 8255,9240 8384,9175 8449,9138 8513,9106 8543,9093 8572,9083 8599,9076 8612,9075 8625,9074 8637,9075 8648,9076 8659,9080 8669,9084 8679,9090 8688,9098 8696,9107 8704,9118 8711,9131 8717,9146 8726,9181 8732,9224 8734,9276 7948,9730 7965,9650 7985,9580 8006,9519 8028,9466 8053,9420 8078,9382 8105,9348 8121,9332 8245,9332 Z M 8237,9324 L 8129,9324 8133,9320 8163,9296 8193,9275 8237,9250 8237,9324 Z"/>
      <path fill="rgb(222,222,222)" stroke="none" d="M 8237,9324 L 8237,9250 8255,9240 8384,9175 8449,9138 8513,9106 8543,9093 8572,9083 8599,9076 8612,9075 8625,9074 8637,9075 8648,9076 8659,9080 8669,9084 8679,9090 8688,9098 8696,9107 8704,9118 8711,9131 8717,9146 8726,9181 8732,9224 8734,9276 7948,9730 7965,9650 7985,9580 8006,9519 8028,9466 8053,9420 8078,9382 8105,9348 8129,9324 8237,9324 Z M 8229,9316 L 8138,9316 8163,9296 8193,9275 8229,9255 8229,9316 Z"/>
      <path fill="rgb(223,223,223)" stroke="none" d="M 8229,9316 L 8229,9255 8255,9240 8384,9175 8449,9138 8513,9106 8543,9093 8572,9083 8599,9076 8612,9075 8625,9074 8637,9075 8648,9076 8659,9080 8669,9084 8679,9090 8688,9098 8696,9107 8704,9118 8711,9131 8717,9146 8726,9181 8732,9224 8734,9276 7948,9730 7965,9650 7985,9580 8006,9519 8028,9466 8053,9420 8078,9382 8105,9348 8133,9320 8138,9316 8229,9316 Z M 8221,9308 L 8148,9308 8163,9296 8193,9275 8221,9259 8221,9308 Z"/>
      <path fill="rgb(224,224,224)" stroke="none" d="M 8221,9308 L 8221,9259 8255,9240 8384,9175 8449,9138 8513,9106 8543,9093 8572,9083 8599,9076 8612,9075 8625,9074 8637,9075 8648,9076 8659,9080 8669,9084 8679,9090 8688,9098 8696,9107 8704,9118 8711,9131 8717,9146 8726,9181 8732,9224 8734,9276 7948,9730 7965,9650 7985,9580 8006,9519 8028,9466 8053,9420 8078,9382 8105,9348 8133,9320 8148,9308 8221,9308 Z M 8214,9301 L 8157,9301 8163,9296 8193,9275 8214,9263 8214,9301 Z"/>
      <path fill="rgb(225,225,225)" stroke="none" d="M 8214,9301 L 8214,9263 8255,9240 8384,9175 8449,9138 8513,9106 8543,9093 8572,9083 8599,9076 8612,9075 8625,9074 8637,9075 8648,9076 8659,9080 8669,9084 8679,9090 8688,9098 8696,9107 8704,9118 8711,9131 8717,9146 8726,9181 8732,9224 8734,9276 7948,9730 7965,9650 7985,9580 8006,9519 8028,9466 8053,9420 8078,9382 8105,9348 8133,9320 8157,9301 8214,9301 Z M 8206,9293 L 8167,9293 8193,9275 8206,9268 8206,9293 Z"/>
      <path fill="rgb(226,226,226)" stroke="none" d="M 8206,9293 L 8206,9268 8255,9240 8384,9175 8449,9138 8513,9106 8543,9093 8572,9083 8599,9076 8612,9075 8625,9074 8637,9075 8648,9076 8659,9080 8669,9084 8679,9090 8688,9098 8696,9107 8704,9118 8711,9131 8717,9146 8726,9181 8732,9224 8734,9276 7948,9730 7965,9650 7985,9580 8006,9519 8028,9466 8053,9420 8078,9382 8105,9348 8133,9320 8163,9296 8167,9293 8206,9293 Z M 8198,9285 L 8179,9285 8193,9275 8198,9272 8198,9285 Z"/>
      <path fill="rgb(227,227,227)" stroke="none" d="M 8198,9285 L 8198,9272 8255,9240 8384,9175 8449,9138 8513,9106 8543,9093 8572,9083 8599,9076 8612,9075 8625,9074 8637,9075 8648,9076 8659,9080 8669,9084 8679,9090 8688,9098 8696,9107 8704,9118 8711,9131 8717,9146 8726,9181 8732,9224 8734,9276 7948,9730 7965,9650 7985,9580 8006,9519 8028,9466 8053,9420 8078,9382 8105,9348 8133,9320 8163,9296 8179,9285 8198,9285 Z"/>
      <path fill="rgb(229,229,229)" stroke="none" d="M 8734,9276 L 7948,9730 7965,9650 7985,9580 8006,9519 8028,9466 8053,9420 8078,9382 8105,9348 8133,9320 8163,9296 8193,9275 8255,9240 8384,9175 8449,9138 8513,9106 8543,9093 8572,9083 8599,9076 8612,9075 8625,9074 8637,9075 8648,9076 8659,9080 8669,9084 8679,9090 8688,9098 8696,9107 8704,9118 8711,9131 8717,9146 8726,9181 8732,9224 8734,9276 Z"/>
      <path fill="none" stroke="rgb(255,255,255)" id="Drawing_4_0" stroke-width="40" stroke-linejoin="round" d="M 8734,9276 C 8734,8973 8559,9074 8384,9175 8210,9276 8035,9276 7948,9730 7948,9730 8297,9528 8734,9276 Z"/>
     </g>
     <g>
      <path fill="none" stroke="rgb(0,0,0)" id="Drawing_5_0" stroke-width="40" stroke-linejoin="round" d="M 8297,8873 C 8123,8923 8123,8923 7948,9024 7861,9075 7686,9125 7599,9529 7774,9630 7774,9630 7948,9731 8048,9685 8559,9378 8734,9277 8734,9024 8559,9024 8297,8873 Z"/>
     </g>
    </g>
   </g>
   <g id="DrawingGroup_4">
    <g>
     <path fill="rgb(221,221,221)" stroke="none" d="M 7168,7914 C 7407,7914 8733,7863 8733,7409 8733,6955 8278,6703 8038,6703 8038,6854 7080,6804 7168,7914 Z"/>
     <path fill="none" stroke="rgb(221,221,221)" id="Drawing_6_0" stroke-width="40" stroke-linejoin="round" d="M 7168,7914 C 7407,7914 8733,7863 8733,7409 8733,6955 8278,6703 8038,6703 8038,6854 7080,6804 7168,7914 Z"/>
    </g>
    <g id="DrawingGroup_5">
     <g>
      <defs>
       <linearGradient id="Gradient_3" gradientUnits="userSpaceOnUse" x1="6287" y1="7559" x2="7162" y2="7561">
        <stop offset="0.1" stop-color="rgb(179,179,179)"/>
        <stop offset="1" stop-color="rgb(229,229,229)"/>
       </linearGradient>
      </defs>
      <path fill="url(#Gradient_3)" stroke="rgb(255,255,255)" id="Drawing_7_0" stroke-width="40" stroke-linejoin="round" d="M 6289,7409 L 6289,7207 7162,7712 7162,7913 6289,7409 Z"/>
     </g>
     <g>
      <defs>
       <linearGradient id="Gradient_4" gradientUnits="userSpaceOnUse" x1="6986" y1="6879" x2="7861" y2="6881">
        <stop offset="0.1" stop-color="rgb(179,179,179)"/>
        <stop offset="1" stop-color="rgb(229,229,229)"/>
       </linearGradient>
      </defs>
      <path fill="url(#Gradient_4)" stroke="rgb(255,255,255)" id="Drawing_8_0" stroke-width="40" stroke-linejoin="round" d="M 6988,6804 L 6988,6451 7861,6956 7861,7309 6988,6804 Z"/>
     </g>
     <g>
      <defs>
       <linearGradient id="Gradient_5" gradientUnits="userSpaceOnUse" x1="7074" y1="6804" x2="7074" y2="7712">
        <stop offset="0.1" stop-color="rgb(179,179,179)"/>
        <stop offset="1" stop-color="rgb(229,229,229)"/>
       </linearGradient>
      </defs>
      <path fill="url(#Gradient_5)" stroke="rgb(255,255,255)" id="Drawing_9_0" stroke-width="40" stroke-linejoin="round" d="M 6289,7208 L 6987,6804 7860,7309 7162,7712 6289,7208 Z"/>
     </g>
     <g>
      <path fill="none" stroke="rgb(127,127,127)" id="Drawing_10_0" stroke-width="40" stroke-linejoin="round" d="M 6988,6804 L 7861,7309"/>
     </g>
     <g>
      <path fill="rgb(179,179,179)" stroke="none" d="M 7849,7517 L 7465,7739 7162,7739 7162,7712 7849,7314 7849,7517 Z"/>
      <path fill="rgb(180,180,180)" stroke="none" d="M 7465,7739 L 7162,7914 7162,7739 7465,7739 Z M 7849,7314 L 7860,7308 7860,7056 8035,7157 8035,7409 7849,7517 7849,7314 Z M 7839,7522 L 7482,7729 7162,7729 7162,7712 7839,7320 7839,7522 Z"/>
      <path fill="rgb(181,181,181)" stroke="none" d="M 7482,7729 L 7162,7914 7162,7729 7482,7729 Z M 7839,7320 L 7860,7308 7860,7056 8035,7157 8035,7409 7839,7522 7839,7320 Z M 7829,7528 L 7499,7719 7162,7719 7162,7712 7829,7326 7829,7528 Z"/>
      <path fill="rgb(182,182,182)" stroke="none" d="M 7499,7719 L 7162,7914 7162,7719 7499,7719 Z M 7829,7326 L 7860,7308 7860,7056 8035,7157 8035,7409 7829,7528 7829,7326 Z M 7819,7534 L 7516,7709 7167,7709 7819,7332 7819,7534 Z"/>
      <path fill="rgb(183,183,183)" stroke="none" d="M 7516,7709 L 7162,7914 7162,7712 7167,7709 7516,7709 Z M 7819,7332 L 7860,7308 7860,7056 8035,7157 8035,7409 7819,7534 7819,7332 Z M 7809,7540 L 7534,7699 7184,7699 7809,7338 7809,7540 Z"/>
      <path fill="rgb(184,184,184)" stroke="none" d="M 7534,7699 L 7162,7914 7162,7712 7184,7699 7534,7699 Z M 7809,7338 L 7860,7308 7860,7056 8035,7157 8035,7409 7809,7540 7809,7338 Z M 7798,7546 L 7553,7688 7203,7688 7798,7344 7798,7546 Z"/>
      <path fill="rgb(185,185,185)" stroke="none" d="M 7553,7688 L 7162,7914 7162,7712 7203,7688 7553,7688 Z M 7798,7344 L 7860,7308 7860,7056 8035,7157 8035,7409 7798,7546 7798,7344 Z M 7788,7552 L 7570,7678 7221,7678 7788,7350 7788,7552 Z"/>
      <path fill="rgb(187,187,187)" stroke="none" d="M 7570,7678 L 7162,7914 7162,7712 7221,7678 7570,7678 Z M 7788,7350 L 7860,7308 7860,7056 8035,7157 8035,7409 7788,7552 7788,7350 Z M 7778,7558 L 7587,7668 7238,7668 7778,7355 7778,7558 Z"/>
      <path fill="rgb(188,188,188)" stroke="none" d="M 7587,7668 L 7162,7914 7162,7712 7238,7668 7587,7668 Z M 7778,7355 L 7860,7308 7860,7056 8035,7157 8035,7409 7778,7558 7778,7355 Z M 7768,7563 L 7605,7658 7255,7658 7768,7361 7768,7563 Z"/>
      <path fill="rgb(189,189,189)" stroke="none" d="M 7605,7658 L 7162,7914 7162,7712 7255,7658 7605,7658 Z M 7768,7361 L 7860,7308 7860,7056 8035,7157 8035,7409 7768,7563 7768,7361 Z M 7758,7569 L 7622,7648 7273,7648 7758,7367 7758,7569 Z"/>
      <path fill="rgb(190,190,190)" stroke="none" d="M 7622,7648 L 7162,7914 7162,7712 7273,7648 7622,7648 Z M 7758,7367 L 7860,7308 7860,7056 8035,7157 8035,7409 7758,7569 7758,7367 Z M 7747,7576 L 7641,7637 7292,7637 7747,7373 7747,7576 Z"/>
      <path fill="rgb(191,191,191)" stroke="none" d="M 7641,7637 L 7162,7914 7162,7712 7292,7637 7641,7637 Z M 7747,7373 L 7860,7308 7860,7056 8035,7157 8035,7409 7747,7576 7747,7373 Z M 7737,7581 L 7658,7627 7309,7627 7737,7379 7737,7581 Z"/>
      <path fill="rgb(192,192,192)" stroke="none" d="M 7658,7627 L 7162,7914 7162,7712 7309,7627 7658,7627 Z M 7737,7379 L 7860,7308 7860,7056 8035,7157 8035,7409 7737,7581 7737,7379 Z M 7727,7587 L 7675,7617 7326,7617 7727,7385 7727,7587 Z"/>
      <path fill="rgb(194,194,194)" stroke="none" d="M 7675,7617 L 7162,7914 7162,7712 7326,7617 7675,7617 Z M 7727,7385 L 7860,7308 7860,7056 8035,7157 8035,7409 7727,7587 7727,7385 Z M 7717,7593 L 7693,7607 7343,7607 7717,7391 7717,7593 Z"/>
      <path fill="rgb(195,195,195)" stroke="none" d="M 7693,7607 L 7162,7914 7162,7712 7343,7607 7693,7607 Z M 7717,7391 L 7860,7308 7860,7056 8035,7157 8035,7409 7717,7593 7717,7391 Z M 7707,7597 L 7361,7597 7707,7397 7707,7597 Z"/>
      <path fill="rgb(196,196,196)" stroke="none" d="M 7707,7597 L 7707,7397 7860,7308 7860,7056 8035,7157 8035,7409 7162,7914 7162,7712 7361,7597 7707,7597 Z M 7697,7587 L 7378,7587 7697,7402 7697,7587 Z"/>
      <path fill="rgb(197,197,197)" stroke="none" d="M 7697,7587 L 7697,7402 7860,7308 7860,7056 8035,7157 8035,7409 7162,7914 7162,7712 7378,7587 7697,7587 Z M 7686,7576 L 7397,7576 7686,7409 7686,7576 Z"/>
      <path fill="rgb(198,198,198)" stroke="none" d="M 7686,7576 L 7686,7409 7860,7308 7860,7056 8035,7157 8035,7409 7162,7914 7162,7712 7397,7576 7686,7576 Z M 7676,7566 L 7414,7566 7676,7414 7676,7566 Z"/>
      <path fill="rgb(199,199,199)" stroke="none" d="M 7676,7566 L 7676,7414 7860,7308 7860,7056 8035,7157 8035,7409 7162,7914 7162,7712 7414,7566 7676,7566 Z M 7666,7556 L 7432,7556 7666,7420 7666,7556 Z"/>
      <path fill="rgb(201,201,201)" stroke="none" d="M 7666,7556 L 7666,7420 7860,7308 7860,7056 8035,7157 8035,7409 7162,7914 7162,7712 7432,7556 7666,7556 Z M 7656,7546 L 7449,7546 7656,7426 7656,7546 Z"/>
      <path fill="rgb(202,202,202)" stroke="none" d="M 7656,7546 L 7656,7426 7860,7308 7860,7056 8035,7157 8035,7409 7162,7914 7162,7712 7449,7546 7656,7546 Z M 7646,7536 L 7466,7536 7646,7432 7646,7536 Z"/>
      <path fill="rgb(203,203,203)" stroke="none" d="M 7646,7536 L 7646,7432 7860,7308 7860,7056 8035,7157 8035,7409 7162,7914 7162,7712 7466,7536 7646,7536 Z M 7635,7525 L 7485,7525 7635,7438 7635,7525 Z"/>
      <path fill="rgb(204,204,204)" stroke="none" d="M 7635,7525 L 7635,7438 7860,7308 7860,7056 8035,7157 8035,7409 7162,7914 7162,7712 7485,7525 7635,7525 Z M 7625,7515 L 7502,7515 7625,7444 7625,7515 Z"/>
      <path fill="rgb(205,205,205)" stroke="none" d="M 7625,7515 L 7625,7444 7860,7308 7860,7056 8035,7157 8035,7409 7162,7914 7162,7712 7502,7515 7625,7515 Z M 7615,7505 L 7520,7505 7615,7450 7615,7505 Z"/>
      <path fill="rgb(206,206,206)" stroke="none" d="M 7615,7505 L 7615,7450 7860,7308 7860,7056 8035,7157 8035,7409 7162,7914 7162,7712 7520,7505 7615,7505 Z M 7605,7495 L 7537,7495 7605,7456 7605,7495 Z"/>
      <path fill="rgb(208,208,208)" stroke="none" d="M 7605,7495 L 7605,7456 7860,7308 7860,7056 8035,7157 8035,7409 7162,7914 7162,7712 7537,7495 7605,7495 Z M 7595,7485 L 7554,7485 7595,7461 7595,7485 Z"/>
      <path fill="rgb(209,209,209)" stroke="none" d="M 7595,7485 L 7595,7461 7860,7308 7860,7056 8035,7157 8035,7409 7162,7914 7162,7712 7554,7485 7595,7485 Z M 7584,7474 L 7573,7474 7584,7468 7584,7474 Z"/>
      <path fill="rgb(210,210,210)" stroke="none" d="M 7584,7474 L 7584,7468 7860,7308 7860,7056 8035,7157 8035,7409 7162,7914 7162,7712 7573,7474 7584,7474 Z"/>
      <path fill="rgb(211,211,211)" stroke="none" d="M 7162,7914 L 7162,7712 7860,7308 7860,7056 8035,7157 8035,7409 7162,7914 Z"/>
      <path fill="rgb(212,212,212)" stroke="none" d="M 7162,7914 L 7162,7712 7860,7308 7860,7056 8035,7157 8035,7409 7162,7914 Z"/>
      <path fill="rgb(213,213,213)" stroke="none" d="M 7162,7914 L 7162,7712 7860,7308 7860,7056 8035,7157 8035,7409 7162,7914 Z"/>
      <path fill="rgb(215,215,215)" stroke="none" d="M 7162,7914 L 7162,7712 7860,7308 7860,7056 8035,7157 8035,7409 7162,7914 Z"/>
      <path fill="rgb(216,216,216)" stroke="none" d="M 7162,7914 L 7162,7712 7860,7308 7860,7056 8035,7157 8035,7409 7162,7914 Z"/>
      <path fill="rgb(217,217,217)" stroke="none" d="M 7162,7914 L 7162,7712 7860,7308 7860,7056 8035,7157 8035,7409 7162,7914 Z"/>
      <path fill="rgb(218,218,218)" stroke="none" d="M 7162,7914 L 7162,7712 7860,7308 7860,7056 8035,7157 8035,7409 7162,7914 Z"/>
      <path fill="rgb(219,219,219)" stroke="none" d="M 7162,7914 L 7162,7712 7860,7308 7860,7056 8035,7157 8035,7409 7162,7914 Z"/>
      <path fill="rgb(220,220,220)" stroke="none" d="M 7162,7914 L 7162,7712 7860,7308 7860,7056 8035,7157 8035,7409 7162,7914 Z"/>
      <path fill="rgb(222,222,222)" stroke="none" d="M 7162,7914 L 7162,7712 7860,7308 7860,7056 8035,7157 8035,7409 7162,7914 Z"/>
      <path fill="rgb(223,223,223)" stroke="none" d="M 7162,7914 L 7162,7712 7860,7308 7860,7056 8035,7157 8035,7409 7162,7914 Z"/>
      <path fill="rgb(224,224,224)" stroke="none" d="M 7162,7914 L 7162,7712 7860,7308 7860,7056 8035,7157 8035,7409 7162,7914 Z"/>
      <path fill="rgb(225,225,225)" stroke="none" d="M 7162,7914 L 7162,7712 7860,7308 7860,7056 8035,7157 8035,7409 7162,7914 Z"/>
      <path fill="rgb(226,226,226)" stroke="none" d="M 7162,7914 L 7162,7712 7860,7308 7860,7056 8035,7157 8035,7409 7162,7914 Z"/>
      <path fill="rgb(229,229,229)" stroke="none" d="M 7162,7914 L 7162,7712 7860,7308 7860,7056 8035,7157 8035,7409 7162,7914 Z"/>
      <path fill="none" stroke="rgb(255,255,255)" id="Drawing_11_0" stroke-width="40" stroke-linejoin="round" d="M 7162,7914 L 7162,7712 7860,7308 7860,7056 8035,7157 8035,7409 7162,7914 Z"/>
     </g>
     <g>
      <defs>
       <linearGradient id="Gradient_6" gradientUnits="userSpaceOnUse" x1="5325" y1="5288" x2="8124" y2="5292">
        <stop offset="0.1" stop-color="rgb(179,179,179)"/>
        <stop offset="1" stop-color="rgb(229,229,229)"/>
       </linearGradient>
      </defs>
      <path fill="url(#Gradient_6)" stroke="rgb(255,255,255)" id="Drawing_12_0" stroke-width="40" stroke-linejoin="round" d="M 5329,5593 L 5329,3373 8122,4988 8122,7208 5329,5593 Z"/>
     </g>
     <g>
      <defs>
       <linearGradient id="Gradient_7" gradientUnits="userSpaceOnUse" x1="5413" y1="5288" x2="8038" y2="5292">
        <stop offset="0.1" stop-color="rgb(147,212,240)"/>
        <stop offset="1" stop-color="rgb(233,246,252)"/>
       </linearGradient>
      </defs>
      <path fill="url(#Gradient_7)" stroke="rgb(127,127,127)" id="Drawing_13_0" stroke-width="40" stroke-linejoin="round" d="M 5417,5542 L 5417,3524 8036,5038 8036,7056 5417,5542 Z"/>
     </g>
     <g>
      <defs>
       <linearGradient id="Gradient_8" gradientUnits="userSpaceOnUse" x1="6813" y1="3272" x2="6813" y2="4987">
        <stop offset="0.1" stop-color="rgb(179,179,179)"/>
        <stop offset="1" stop-color="rgb(229,229,229)"/>
       </linearGradient>
      </defs>
      <path fill="url(#Gradient_8)" stroke="rgb(255,255,255)" id="Drawing_14_0" stroke-width="40" stroke-linejoin="round" d="M 8122,4987 L 5329,3373 5504,3272 8297,4887 8122,4987 Z"/>
     </g>
     <g>
      <path fill="rgb(179,179,179)" stroke="none" d="M 8123,6720 L 8123,4988 8298,4887 8298,6720 8123,6720 Z"/>
      <path fill="rgb(180,180,180)" stroke="none" d="M 8298,6720 L 8298,7107 8123,7208 8123,6720 8298,6720 Z M 8123,6697 L 8123,4988 8298,4887 8298,6697 8123,6697 Z"/>
      <path fill="rgb(181,181,181)" stroke="none" d="M 8298,6697 L 8298,7107 8123,7208 8123,6697 8298,6697 Z M 8123,6674 L 8123,4988 8298,4887 8298,6674 8123,6674 Z"/>
      <path fill="rgb(182,182,182)" stroke="none" d="M 8298,6674 L 8298,7107 8123,7208 8123,6674 8298,6674 Z M 8123,6651 L 8123,4988 8298,4887 8298,6651 8123,6651 Z"/>
      <path fill="rgb(183,183,183)" stroke="none" d="M 8298,6651 L 8298,7107 8123,7208 8123,6651 8298,6651 Z M 8123,6627 L 8123,4988 8298,4887 8298,6627 8123,6627 Z"/>
      <path fill="rgb(184,184,184)" stroke="none" d="M 8298,6627 L 8298,7107 8123,7208 8123,6627 8298,6627 Z M 8123,6604 L 8123,4988 8298,4887 8298,6604 8123,6604 Z"/>
      <path fill="rgb(185,185,185)" stroke="none" d="M 8298,6604 L 8298,7107 8123,7208 8123,6604 8298,6604 Z M 8123,6581 L 8123,4988 8298,4887 8298,6581 8123,6581 Z"/>
      <path fill="rgb(186,186,186)" stroke="none" d="M 8298,6581 L 8298,7107 8123,7208 8123,6581 8298,6581 Z M 8123,6558 L 8123,4988 8298,4887 8298,6558 8123,6558 Z"/>
      <path fill="rgb(187,187,187)" stroke="none" d="M 8298,6558 L 8298,7107 8123,7208 8123,6558 8298,6558 Z M 8123,6534 L 8123,4988 8298,4887 8298,6534 8123,6534 Z"/>
      <path fill="rgb(188,188,188)" stroke="none" d="M 8298,6534 L 8298,7107 8123,7208 8123,6534 8298,6534 Z M 8123,6511 L 8123,4988 8298,4887 8298,6511 8123,6511 Z"/>
      <path fill="rgb(189,189,189)" stroke="none" d="M 8298,6511 L 8298,7107 8123,7208 8123,6511 8298,6511 Z M 8123,6488 L 8123,4988 8298,4887 8298,6488 8123,6488 Z"/>
      <path fill="rgb(190,190,190)" stroke="none" d="M 8298,6488 L 8298,7107 8123,7208 8123,6488 8298,6488 Z M 8123,6465 L 8123,4988 8298,4887 8298,6465 8123,6465 Z"/>
      <path fill="rgb(191,191,191)" stroke="none" d="M 8298,6465 L 8298,7107 8123,7208 8123,6465 8298,6465 Z M 8123,6441 L 8123,4988 8298,4887 8298,6441 8123,6441 Z"/>
      <path fill="rgb(192,192,192)" stroke="none" d="M 8298,6441 L 8298,7107 8123,7208 8123,6441 8298,6441 Z M 8123,6418 L 8123,4988 8298,4887 8298,6418 8123,6418 Z"/>
      <path fill="rgb(193,193,193)" stroke="none" d="M 8298,6418 L 8298,7107 8123,7208 8123,6418 8298,6418 Z M 8123,6395 L 8123,4988 8298,4887 8298,6395 8123,6395 Z"/>
      <path fill="rgb(194,194,194)" stroke="none" d="M 8298,6395 L 8298,7107 8123,7208 8123,6395 8298,6395 Z M 8123,6372 L 8123,4988 8298,4887 8298,6372 8123,6372 Z"/>
      <path fill="rgb(195,195,195)" stroke="none" d="M 8298,6372 L 8298,7107 8123,7208 8123,6372 8298,6372 Z M 8123,6348 L 8123,4988 8298,4887 8298,6348 8123,6348 Z"/>
      <path fill="rgb(196,196,196)" stroke="none" d="M 8298,6348 L 8298,7107 8123,7208 8123,6348 8298,6348 Z M 8123,6325 L 8123,4988 8298,4887 8298,6325 8123,6325 Z"/>
      <path fill="rgb(197,197,197)" stroke="none" d="M 8298,6325 L 8298,7107 8123,7208 8123,6325 8298,6325 Z M 8123,6302 L 8123,4988 8298,4887 8298,6302 8123,6302 Z"/>
      <path fill="rgb(198,198,198)" stroke="none" d="M 8298,6302 L 8298,7107 8123,7208 8123,6302 8298,6302 Z M 8123,6279 L 8123,4988 8298,4887 8298,6279 8123,6279 Z"/>
      <path fill="rgb(199,199,199)" stroke="none" d="M 8298,6279 L 8298,7107 8123,7208 8123,6279 8298,6279 Z M 8298,4909 L 8298,6255 8123,6255 8123,4988 8260,4909 8298,4909 Z"/>
      <path fill="rgb(200,200,200)" stroke="none" d="M 8298,6255 L 8298,7107 8123,7208 8123,6255 8298,6255 Z M 8260,4909 L 8298,4887 8298,4909 8260,4909 Z M 8298,4932 L 8298,6232 8123,6232 8123,4988 8220,4932 8298,4932 Z"/>
      <path fill="rgb(201,201,201)" stroke="none" d="M 8298,6232 L 8298,7107 8123,7208 8123,6232 8298,6232 Z M 8220,4932 L 8298,4887 8298,4932 8220,4932 Z M 8298,4955 L 8298,6209 8123,6209 8123,4988 8180,4955 8298,4955 Z"/>
      <path fill="rgb(202,202,202)" stroke="none" d="M 8298,6209 L 8298,7107 8123,7208 8123,6209 8298,6209 Z M 8180,4955 L 8298,4887 8298,4955 8180,4955 Z M 8298,4978 L 8298,6186 8123,6186 8123,4988 8140,4978 8298,4978 Z"/>
      <path fill="rgb(203,203,203)" stroke="none" d="M 8298,6186 L 8298,7107 8123,7208 8123,6186 8298,6186 Z M 8140,4978 L 8298,4887 8298,4978 8140,4978 Z M 8298,5002 L 8298,6162 8123,6162 8123,5002 8298,5002 Z"/>
      <path fill="rgb(204,204,204)" stroke="none" d="M 8298,6162 L 8298,7107 8123,7208 8123,6162 8298,6162 Z M 8123,5002 L 8123,4988 8298,4887 8298,5002 8123,5002 Z M 8298,5025 L 8298,6139 8123,6139 8123,5025 8298,5025 Z"/>
      <path fill="rgb(205,205,205)" stroke="none" d="M 8298,6139 L 8298,7107 8123,7208 8123,6139 8298,6139 Z M 8123,5025 L 8123,4988 8298,4887 8298,5025 8123,5025 Z M 8298,5048 L 8298,6116 8123,6116 8123,5048 8298,5048 Z"/>
      <path fill="rgb(206,206,206)" stroke="none" d="M 8298,6116 L 8298,7107 8123,7208 8123,6116 8298,6116 Z M 8123,5048 L 8123,4988 8298,4887 8298,5048 8123,5048 Z M 8298,5071 L 8298,6093 8123,6093 8123,5071 8298,5071 Z"/>
      <path fill="rgb(207,207,207)" stroke="none" d="M 8298,6093 L 8298,7107 8123,7208 8123,6093 8298,6093 Z M 8123,5071 L 8123,4988 8298,4887 8298,5071 8123,5071 Z M 8298,5094 L 8298,6070 8123,6070 8123,5094 8298,5094 Z"/>
      <path fill="rgb(208,208,208)" stroke="none" d="M 8298,6070 L 8298,7107 8123,7208 8123,6070 8298,6070 Z M 8123,5094 L 8123,4988 8298,4887 8298,5094 8123,5094 Z M 8298,5118 L 8298,6046 8123,6046 8123,5118 8298,5118 Z"/>
      <path fill="rgb(209,209,209)" stroke="none" d="M 8298,6046 L 8298,7107 8123,7208 8123,6046 8298,6046 Z M 8123,5118 L 8123,4988 8298,4887 8298,5118 8123,5118 Z M 8298,5141 L 8298,6023 8123,6023 8123,5141 8298,5141 Z"/>
      <path fill="rgb(210,210,210)" stroke="none" d="M 8298,6023 L 8298,7107 8123,7208 8123,6023 8298,6023 Z M 8123,5141 L 8123,4988 8298,4887 8298,5141 8123,5141 Z M 8298,5164 L 8298,6000 8123,6000 8123,5164 8298,5164 Z"/>
      <path fill="rgb(211,211,211)" stroke="none" d="M 8298,6000 L 8298,7107 8123,7208 8123,6000 8298,6000 Z M 8123,5164 L 8123,4988 8298,4887 8298,5164 8123,5164 Z M 8298,5187 L 8298,5977 8123,5977 8123,5187 8298,5187 Z"/>
      <path fill="rgb(212,212,212)" stroke="none" d="M 8298,5977 L 8298,7107 8123,7208 8123,5977 8298,5977 Z M 8123,5187 L 8123,4988 8298,4887 8298,5187 8123,5187 Z M 8298,5211 L 8298,5953 8123,5953 8123,5211 8298,5211 Z"/>
      <path fill="rgb(213,213,213)" stroke="none" d="M 8298,5953 L 8298,7107 8123,7208 8123,5953 8298,5953 Z M 8123,5211 L 8123,4988 8298,4887 8298,5211 8123,5211 Z M 8298,5234 L 8298,5930 8123,5930 8123,5234 8298,5234 Z"/>
      <path fill="rgb(214,214,214)" stroke="none" d="M 8298,5930 L 8298,7107 8123,7208 8123,5930 8298,5930 Z M 8123,5234 L 8123,4988 8298,4887 8298,5234 8123,5234 Z M 8298,5257 L 8298,5907 8123,5907 8123,5257 8298,5257 Z"/>
      <path fill="rgb(215,215,215)" stroke="none" d="M 8298,5907 L 8298,7107 8123,7208 8123,5907 8298,5907 Z M 8123,5257 L 8123,4988 8298,4887 8298,5257 8123,5257 Z M 8298,5280 L 8298,5884 8123,5884 8123,5280 8298,5280 Z"/>
      <path fill="rgb(216,216,216)" stroke="none" d="M 8298,5884 L 8298,7107 8123,7208 8123,5884 8298,5884 Z M 8123,5280 L 8123,4988 8298,4887 8298,5280 8123,5280 Z M 8298,5304 L 8298,5860 8123,5860 8123,5304 8298,5304 Z"/>
      <path fill="rgb(217,217,217)" stroke="none" d="M 8298,5860 L 8298,7107 8123,7208 8123,5860 8298,5860 Z M 8123,5304 L 8123,4988 8298,4887 8298,5304 8123,5304 Z M 8298,5327 L 8298,5837 8123,5837 8123,5327 8298,5327 Z"/>
      <path fill="rgb(218,218,218)" stroke="none" d="M 8298,5837 L 8298,7107 8123,7208 8123,5837 8298,5837 Z M 8123,5327 L 8123,4988 8298,4887 8298,5327 8123,5327 Z M 8298,5350 L 8298,5814 8123,5814 8123,5350 8298,5350 Z"/>
      <path fill="rgb(219,219,219)" stroke="none" d="M 8298,5814 L 8298,7107 8123,7208 8123,5814 8298,5814 Z M 8123,5350 L 8123,4988 8298,4887 8298,5350 8123,5350 Z M 8298,5373 L 8298,5791 8123,5791 8123,5373 8298,5373 Z"/>
      <path fill="rgb(220,220,220)" stroke="none" d="M 8298,5791 L 8298,7107 8123,7208 8123,5791 8298,5791 Z M 8123,5373 L 8123,4988 8298,4887 8298,5373 8123,5373 Z M 8298,5397 L 8298,5767 8123,5767 8123,5397 8298,5397 Z"/>
      <path fill="rgb(221,221,221)" stroke="none" d="M 8298,5767 L 8298,7107 8123,7208 8123,5767 8298,5767 Z M 8123,5397 L 8123,4988 8298,4887 8298,5397 8123,5397 Z M 8298,5420 L 8298,5744 8123,5744 8123,5420 8298,5420 Z"/>
      <path fill="rgb(222,222,222)" stroke="none" d="M 8298,5744 L 8298,7107 8123,7208 8123,5744 8298,5744 Z M 8123,5420 L 8123,4988 8298,4887 8298,5420 8123,5420 Z M 8298,5443 L 8298,5721 8123,5721 8123,5443 8298,5443 Z"/>
      <path fill="rgb(223,223,223)" stroke="none" d="M 8298,5721 L 8298,7107 8123,7208 8123,5721 8298,5721 Z M 8123,5443 L 8123,4988 8298,4887 8298,5443 8123,5443 Z M 8290,5466 L 8290,5698 8123,5698 8123,5466 8290,5466 Z"/>
      <path fill="rgb(224,224,224)" stroke="none" d="M 8290,5698 L 8290,5466 8123,5466 8123,4988 8298,4887 8298,7107 8123,7208 8123,5698 8290,5698 Z M 8266,5490 L 8266,5674 8123,5674 8123,5490 8266,5490 Z"/>
      <path fill="rgb(225,225,225)" stroke="none" d="M 8266,5674 L 8266,5490 8123,5490 8123,4988 8298,4887 8298,7107 8123,7208 8123,5674 8266,5674 Z M 8243,5513 L 8243,5651 8123,5651 8123,5513 8243,5513 Z"/>
      <path fill="rgb(226,226,226)" stroke="none" d="M 8243,5651 L 8243,5513 8123,5513 8123,4988 8298,4887 8298,7107 8123,7208 8123,5651 8243,5651 Z M 8128,5536 L 8220,5536 8220,5628 8128,5628 8128,5536 Z"/>
      <path fill="rgb(227,227,227)" stroke="none" d="M 8128,5536 L 8128,5628 8220,5628 8220,5536 8128,5536 Z M 8151,5559 L 8197,5559 8197,5605 8151,5605 8151,5559 Z M 8123,7208 L 8123,4988 8298,4887 8298,7107 8123,7208 Z"/>
      <path fill="rgb(229,229,229)" stroke="none" d="M 8151,5559 L 8151,5605 8197,5605 8197,5559 8151,5559 Z M 8123,7208 L 8123,4988 8298,4887 8298,7107 8123,7208 Z"/>
      <path fill="none" stroke="rgb(255,255,255)" id="Drawing_15_0" stroke-width="40" stroke-linejoin="round" d="M 8123,7208 L 8123,4988 8298,4887 8298,7107 8123,7208 Z"/>
     </g>
     <g>
      <path fill="none" stroke="rgb(0,0,0)" id="Drawing_16_0" stroke-width="40" stroke-linejoin="round" d="M 5504,3272 L 8297,4887 8297,7107 8122,7207 8035,7157 8035,7409 7162,7914 6289,7409 6289,7207 6987,6804 6987,6552 5329,5593 5329,3373 5504,3272 Z"/>
     </g>
    </g>
   </g>
   <g id="DrawingGroup_6">
    <g>
     <path fill="rgb(221,221,221)" stroke="none" d="M 6817,9175 C 7057,9175 7948,8923 7948,8772 7948,8620 7926,8570 7686,8570 7686,8721 6726,8671 6817,9175 Z"/>
     <path fill="none" stroke="rgb(221,221,221)" id="Drawing_17_0" stroke-width="40" stroke-linejoin="round" d="M 6817,9175 C 7057,9175 7948,8923 7948,8772 7948,8620 7926,8570 7686,8570 7686,8721 6726,8671 6817,9175 Z"/>
    </g>
    <g id="DrawingGroup_7">
     <g>
      <defs>
       <linearGradient id="Gradient_9" gradientUnits="userSpaceOnUse" x1="5896" y1="6854" x2="5896" y2="9024">
        <stop offset="0.1" stop-color="rgb(179,179,179)"/>
        <stop offset="1" stop-color="rgb(229,229,229)"/>
       </linearGradient>
      </defs>
      <path fill="url(#Gradient_9)" stroke="rgb(255,255,255)" id="Drawing_18_0" stroke-width="40" stroke-linejoin="round" d="M 6813,9024 L 4020,7409 4980,6854 7773,8469 6813,9024 Z"/>
     </g>
     <g>
      <path fill="rgb(127,127,127)" stroke="none" d="M 4282,7410 L 4980,7006 6813,8066 6115,8469 4282,7410 Z"/>
      <path fill="none" stroke="rgb(255,255,255)" id="Drawing_19_0" stroke-width="40" stroke-linejoin="round" d="M 4282,7410 L 4980,7006 6813,8066 6115,8469 4282,7410 Z"/>
     </g>
     <g>
      <path fill="rgb(127,127,127)" stroke="none" d="M 6289,8570 L 6987,8166 7511,8469 6813,8872 6289,8570 Z"/>
      <path fill="none" stroke="rgb(255,255,255)" id="Drawing_20_0" stroke-width="40" stroke-linejoin="round" d="M 6289,8570 L 6987,8166 7511,8469 6813,8872 6289,8570 Z"/>
     </g>
     <g>
      <path fill="rgb(179,179,179)" stroke="none" d="M 7570,8788 L 6917,9166 6813,9166 6813,9024 7570,8586 7570,8788 Z"/>
      <path fill="rgb(180,180,180)" stroke="none" d="M 6917,9166 L 6813,9226 6813,9166 6917,9166 Z M 7570,8586 L 7773,8469 7773,8671 7570,8788 7570,8586 Z M 7560,8794 L 6934,9156 6813,9156 6813,9024 7560,8592 7560,8794 Z"/>
      <path fill="rgb(181,181,181)" stroke="none" d="M 6934,9156 L 6813,9226 6813,9156 6934,9156 Z M 7560,8592 L 7773,8469 7773,8671 7560,8794 7560,8592 Z M 7550,8800 L 6951,9146 6813,9146 6813,9024 7550,8598 7550,8800 Z"/>
      <path fill="rgb(182,182,182)" stroke="none" d="M 6951,9146 L 6813,9226 6813,9146 6951,9146 Z M 7550,8598 L 7773,8469 7773,8671 7550,8800 7550,8598 Z M 7540,8806 L 6969,9136 6813,9136 6813,9024 7540,8604 7540,8806 Z"/>
      <path fill="rgb(183,183,183)" stroke="none" d="M 6969,9136 L 6813,9226 6813,9136 6969,9136 Z M 7540,8604 L 7773,8469 7773,8671 7540,8806 7540,8604 Z M 7530,8811 L 6986,9126 6813,9126 6813,9024 7530,8609 7530,8811 Z"/>
      <path fill="rgb(184,184,184)" stroke="none" d="M 6986,9126 L 6813,9226 6813,9126 6986,9126 Z M 7530,8609 L 7773,8469 7773,8671 7530,8811 7530,8609 Z M 7520,8817 L 7003,9116 6813,9116 6813,9024 7520,8615 7520,8817 Z"/>
      <path fill="rgb(185,185,185)" stroke="none" d="M 7003,9116 L 6813,9226 6813,9116 7003,9116 Z M 7520,8615 L 7773,8469 7773,8671 7520,8817 7520,8615 Z M 7510,8823 L 7021,9106 6813,9106 6813,9024 7510,8621 7510,8823 Z"/>
      <path fill="rgb(186,186,186)" stroke="none" d="M 7021,9106 L 6813,9226 6813,9106 7021,9106 Z M 7510,8621 L 7773,8469 7773,8671 7510,8823 7510,8621 Z M 7500,8829 L 7038,9096 6813,9096 6813,9024 7500,8627 7500,8829 Z"/>
      <path fill="rgb(187,187,187)" stroke="none" d="M 7038,9096 L 6813,9226 6813,9096 7038,9096 Z M 7500,8627 L 7773,8469 7773,8671 7500,8829 7500,8627 Z M 7490,8835 L 7055,9086 6813,9086 6813,9024 7490,8633 7490,8835 Z"/>
      <path fill="rgb(188,188,188)" stroke="none" d="M 7055,9086 L 6813,9226 6813,9086 7055,9086 Z M 7490,8633 L 7773,8469 7773,8671 7490,8835 7490,8633 Z M 7480,8840 L 7072,9076 6813,9076 6813,9024 7480,8638 7480,8840 Z"/>
      <path fill="rgb(189,189,189)" stroke="none" d="M 7072,9076 L 6813,9226 6813,9076 7072,9076 Z M 7480,8638 L 7773,8469 7773,8671 7480,8840 7480,8638 Z M 7470,8846 L 7090,9066 6813,9066 6813,9024 7470,8644 7470,8846 Z"/>
      <path fill="rgb(190,190,190)" stroke="none" d="M 7090,9066 L 6813,9226 6813,9066 7090,9066 Z M 7470,8644 L 7773,8469 7773,8671 7470,8846 7470,8644 Z M 7460,8852 L 7107,9056 6813,9056 6813,9024 7460,8650 7460,8852 Z"/>
      <path fill="rgb(191,191,191)" stroke="none" d="M 7107,9056 L 6813,9226 6813,9056 7107,9056 Z M 7460,8650 L 7773,8469 7773,8671 7460,8852 7460,8650 Z M 7450,8858 L 7124,9046 6813,9046 6813,9024 7450,8656 7450,8858 Z"/>
      <path fill="rgb(192,192,192)" stroke="none" d="M 7124,9046 L 6813,9226 6813,9046 7124,9046 Z M 7450,8656 L 7773,8469 7773,8671 7450,8858 7450,8656 Z M 7440,8864 L 7142,9036 6813,9036 6813,9024 7440,8662 7440,8864 Z"/>
      <path fill="rgb(193,193,193)" stroke="none" d="M 7142,9036 L 6813,9226 6813,9036 7142,9036 Z M 7440,8662 L 7773,8469 7773,8671 7440,8864 7440,8662 Z M 7430,8869 L 7159,9026 6813,9026 6813,9024 7430,8667 7430,8869 Z"/>
      <path fill="rgb(194,194,194)" stroke="none" d="M 7159,9026 L 6813,9226 6813,9026 7159,9026 Z M 7430,8667 L 7773,8469 7773,8671 7430,8869 7430,8667 Z M 7420,8875 L 7176,9016 6827,9016 7420,8673 7420,8875 Z"/>
      <path fill="rgb(195,195,195)" stroke="none" d="M 7176,9016 L 6813,9226 6813,9024 6827,9016 7176,9016 Z M 7420,8673 L 7773,8469 7773,8671 7420,8875 7420,8673 Z M 7410,8881 L 7194,9006 6844,9006 7410,8679 7410,8881 Z"/>
      <path fill="rgb(196,196,196)" stroke="none" d="M 7194,9006 L 6813,9226 6813,9024 6844,9006 7194,9006 Z M 7410,8679 L 7773,8469 7773,8671 7410,8881 7410,8679 Z M 7400,8887 L 7211,8996 6861,8996 7400,8685 7400,8887 Z"/>
      <path fill="rgb(197,197,197)" stroke="none" d="M 7211,8996 L 6813,9226 6813,9024 6861,8996 7211,8996 Z M 7400,8685 L 7773,8469 7773,8671 7400,8887 7400,8685 Z M 7390,8892 L 7228,8986 6879,8986 7390,8690 7390,8892 Z"/>
      <path fill="rgb(198,198,198)" stroke="none" d="M 7228,8986 L 6813,9226 6813,9024 6879,8986 7228,8986 Z M 7390,8690 L 7773,8469 7773,8671 7390,8892 7390,8690 Z M 7380,8898 L 7245,8976 6896,8976 7380,8696 7380,8898 Z"/>
      <path fill="rgb(199,199,199)" stroke="none" d="M 7245,8976 L 6813,9226 6813,9024 6896,8976 7245,8976 Z M 7380,8696 L 7773,8469 7773,8671 7380,8898 7380,8696 Z M 7370,8904 L 7263,8966 6913,8966 7370,8702 7370,8904 Z"/>
      <path fill="rgb(200,200,200)" stroke="none" d="M 7263,8966 L 6813,9226 6813,9024 6913,8966 7263,8966 Z M 7370,8702 L 7773,8469 7773,8671 7370,8904 7370,8702 Z M 7360,8910 L 7280,8956 6931,8956 7360,8708 7360,8910 Z"/>
      <path fill="rgb(201,201,201)" stroke="none" d="M 7280,8956 L 6813,9226 6813,9024 6931,8956 7280,8956 Z M 7360,8708 L 7773,8469 7773,8671 7360,8910 7360,8708 Z M 7350,8916 L 7297,8946 6948,8946 7350,8714 7350,8916 Z"/>
      <path fill="rgb(202,202,202)" stroke="none" d="M 7297,8946 L 6813,9226 6813,9024 6948,8946 7297,8946 Z M 7350,8714 L 7773,8469 7773,8671 7350,8916 7350,8714 Z M 7340,8921 L 7315,8936 6965,8936 7340,8719 7340,8921 Z"/>
      <path fill="rgb(204,204,204)" stroke="none" d="M 7315,8936 L 6813,9226 6813,9024 6965,8936 7315,8936 Z M 7340,8719 L 7773,8469 7773,8671 7340,8921 7340,8719 Z M 7330,8926 L 6983,8926 7330,8725 7330,8926 Z"/>
      <path fill="rgb(205,205,205)" stroke="none" d="M 7330,8926 L 7330,8725 7773,8469 7773,8671 6813,9226 6813,9024 6983,8926 7330,8926 Z M 7320,8916 L 7000,8916 7320,8731 7320,8916 Z"/>
      <path fill="rgb(206,206,206)" stroke="none" d="M 7320,8916 L 7320,8731 7773,8469 7773,8671 6813,9226 6813,9024 7000,8916 7320,8916 Z M 7310,8906 L 7017,8906 7310,8737 7310,8906 Z"/>
      <path fill="rgb(207,207,207)" stroke="none" d="M 7310,8906 L 7310,8737 7773,8469 7773,8671 6813,9226 6813,9024 7017,8906 7310,8906 Z M 7300,8896 L 7034,8896 7300,8742 7300,8896 Z"/>
      <path fill="rgb(208,208,208)" stroke="none" d="M 7300,8896 L 7300,8742 7773,8469 7773,8671 6813,9226 6813,9024 7034,8896 7300,8896 Z M 7290,8886 L 7052,8886 7290,8748 7290,8886 Z"/>
      <path fill="rgb(209,209,209)" stroke="none" d="M 7290,8886 L 7290,8748 7773,8469 7773,8671 6813,9226 6813,9024 7052,8886 7290,8886 Z M 7280,8876 L 7069,8876 7280,8754 7280,8876 Z"/>
      <path fill="rgb(210,210,210)" stroke="none" d="M 7280,8876 L 7280,8754 7773,8469 7773,8671 6813,9226 6813,9024 7069,8876 7280,8876 Z M 7270,8866 L 7086,8866 7270,8760 7270,8866 Z"/>
      <path fill="rgb(211,211,211)" stroke="none" d="M 7270,8866 L 7270,8760 7773,8469 7773,8671 6813,9226 6813,9024 7086,8866 7270,8866 Z M 7260,8856 L 7104,8856 7260,8766 7260,8856 Z"/>
      <path fill="rgb(212,212,212)" stroke="none" d="M 7260,8856 L 7260,8766 7773,8469 7773,8671 6813,9226 6813,9024 7104,8856 7260,8856 Z M 7249,8845 L 7123,8845 7249,8772 7249,8845 Z"/>
      <path fill="rgb(213,213,213)" stroke="none" d="M 7249,8845 L 7249,8772 7773,8469 7773,8671 6813,9226 6813,9024 7123,8845 7249,8845 Z M 7239,8835 L 7140,8835 7239,8778 7239,8835 Z"/>
      <path fill="rgb(214,214,214)" stroke="none" d="M 7239,8835 L 7239,8778 7773,8469 7773,8671 6813,9226 6813,9024 7140,8835 7239,8835 Z M 7229,8825 L 7157,8825 7229,8784 7229,8825 Z"/>
      <path fill="rgb(215,215,215)" stroke="none" d="M 7229,8825 L 7229,8784 7773,8469 7773,8671 6813,9226 6813,9024 7157,8825 7229,8825 Z M 7219,8815 L 7175,8815 7219,8789 7219,8815 Z"/>
      <path fill="rgb(216,216,216)" stroke="none" d="M 7219,8815 L 7219,8789 7773,8469 7773,8671 6813,9226 6813,9024 7175,8815 7219,8815 Z M 7209,8805 L 7192,8805 7209,8795 7209,8805 Z"/>
      <path fill="rgb(217,217,217)" stroke="none" d="M 7209,8805 L 7209,8795 7773,8469 7773,8671 6813,9226 6813,9024 7192,8805 7209,8805 Z"/>
      <path fill="rgb(218,218,218)" stroke="none" d="M 6813,9226 L 6813,9024 7773,8469 7773,8671 6813,9226 Z"/>
      <path fill="rgb(219,219,219)" stroke="none" d="M 6813,9226 L 6813,9024 7773,8469 7773,8671 6813,9226 Z"/>
      <path fill="rgb(220,220,220)" stroke="none" d="M 6813,9226 L 6813,9024 7773,8469 7773,8671 6813,9226 Z"/>
      <path fill="rgb(221,221,221)" stroke="none" d="M 6813,9226 L 6813,9024 7773,8469 7773,8671 6813,9226 Z"/>
      <path fill="rgb(222,222,222)" stroke="none" d="M 6813,9226 L 6813,9024 7773,8469 7773,8671 6813,9226 Z"/>
      <path fill="rgb(223,223,223)" stroke="none" d="M 6813,9226 L 6813,9024 7773,8469 7773,8671 6813,9226 Z"/>
      <path fill="rgb(224,224,224)" stroke="none" d="M 6813,9226 L 6813,9024 7773,8469 7773,8671 6813,9226 Z"/>
      <path fill="rgb(225,225,225)" stroke="none" d="M 6813,9226 L 6813,9024 7773,8469 7773,8671 6813,9226 Z"/>
      <path fill="rgb(226,226,226)" stroke="none" d="M 6813,9226 L 6813,9024 7773,8469 7773,8671 6813,9226 Z"/>
      <path fill="rgb(229,229,229)" stroke="none" d="M 6813,9226 L 6813,9024 7773,8469 7773,8671 6813,9226 Z"/>
      <path fill="none" stroke="rgb(255,255,255)" id="Drawing_21_0" stroke-width="40" stroke-linejoin="round" d="M 6813,9226 L 6813,9024 7773,8469 7773,8671 6813,9226 Z"/>
     </g>
     <g>
      <path fill="none" stroke="rgb(229,229,229)" id="Drawing_22_0" stroke-width="40" stroke-linejoin="round" d="M 4456,7308 L 6289,8368"/>
     </g>
     <g>
      <path fill="none" stroke="rgb(229,229,229)" id="Drawing_23_0" stroke-width="40" stroke-linejoin="round" d="M 4631,7207 L 6464,8267"/>
     </g>
     <g>
      <path fill="none" stroke="rgb(229,229,229)" id="Drawing_24_0" stroke-width="40" stroke-linejoin="round" d="M 4806,7107 L 6639,8167"/>
     </g>
     <g>
      <path fill="none" stroke="rgb(229,229,229)" id="Drawing_25_0" stroke-width="40" stroke-linejoin="round" d="M 6464,8065 L 6639,7964"/>
     </g>
     <g>
      <path fill="none" stroke="rgb(229,229,229)" id="Drawing_26_0" stroke-width="40" stroke-linejoin="round" d="M 6289,7964 L 6464,7863"/>
     </g>
     <g>
      <path fill="none" stroke="rgb(229,229,229)" id="Drawing_27_0" stroke-width="40" stroke-linejoin="round" d="M 6115,7864 L 6290,7763"/>
     </g>
     <g>
      <path fill="none" stroke="rgb(229,229,229)" id="Drawing_28_0" stroke-width="40" stroke-linejoin="round" d="M 6202,8116 L 6377,8015"/>
     </g>
     <g>
      <path fill="none" stroke="rgb(229,229,229)" id="Drawing_29_0" stroke-width="40" stroke-linejoin="round" d="M 6028,8015 L 6203,7914"/>
     </g>
     <g>
      <path fill="none" stroke="rgb(229,229,229)" id="Drawing_30_0" stroke-width="40" stroke-linejoin="round" d="M 5853,7914 L 6028,7813"/>
     </g>
     <g>
      <path fill="none" stroke="rgb(229,229,229)" id="Drawing_31_0" stroke-width="40" stroke-linejoin="round" d="M 5940,7763 L 6115,7662"/>
     </g>
     <g>
      <path fill="none" stroke="rgb(229,229,229)" id="Drawing_32_0" stroke-width="40" stroke-linejoin="round" d="M 5678,7813 L 5853,7712"/>
     </g>
     <g>
      <path fill="none" stroke="rgb(229,229,229)" id="Drawing_33_0" stroke-width="40" stroke-linejoin="round" d="M 5766,7662 L 5941,7561"/>
     </g>
     <g>
      <path fill="none" stroke="rgb(229,229,229)" id="Drawing_34_0" stroke-width="40" stroke-linejoin="round" d="M 5591,7561 L 5766,7460"/>
     </g>
     <g>
      <path fill="none" stroke="rgb(229,229,229)" id="Drawing_35_0" stroke-width="40" stroke-linejoin="round" d="M 5417,7460 L 5592,7359"/>
     </g>
     <g>
      <path fill="none" stroke="rgb(229,229,229)" id="Drawing_36_0" stroke-width="40" stroke-linejoin="round" d="M 5504,7712 L 5679,7611"/>
     </g>
     <g>
      <path fill="none" stroke="rgb(229,229,229)" id="Drawing_37_0" stroke-width="40" stroke-linejoin="round" d="M 5329,7611 L 5504,7510"/>
     </g>
     <g>
      <path fill="none" stroke="rgb(229,229,229)" id="Drawing_38_0" stroke-width="40" stroke-linejoin="round" d="M 5155,7510 L 5330,7409"/>
     </g>
     <g>
      <path fill="none" stroke="rgb(229,229,229)" id="Drawing_39_0" stroke-width="40" stroke-linejoin="round" d="M 5242,7359 L 5417,7258"/>
     </g>
     <g>
      <path fill="none" stroke="rgb(229,229,229)" id="Drawing_40_0" stroke-width="40" stroke-linejoin="round" d="M 4980,7409 L 5155,7308"/>
     </g>
     <g>
      <path fill="none" stroke="rgb(229,229,229)" id="Drawing_41_0" stroke-width="40" stroke-linejoin="round" d="M 5067,7258 L 5242,7157"/>
     </g>
     <g>
      <path fill="none" stroke="rgb(229,229,229)" id="Drawing_42_0" stroke-width="40" stroke-linejoin="round" d="M 4893,7157 L 5068,7056"/>
     </g>
     <g>
      <path fill="none" stroke="rgb(229,229,229)" id="Drawing_43_0" stroke-width="40" stroke-linejoin="round" d="M 4806,7308 L 4981,7207"/>
     </g>
     <g>
      <path fill="none" stroke="rgb(229,229,229)" id="Drawing_44_0" stroke-width="40" stroke-linejoin="round" d="M 5940,8166 L 6115,8065"/>
     </g>
     <g>
      <path fill="none" stroke="rgb(229,229,229)" id="Drawing_45_0" stroke-width="40" stroke-linejoin="round" d="M 5766,8065 L 5941,7964"/>
     </g>
     <g>
      <path fill="none" stroke="rgb(229,229,229)" id="Drawing_46_0" stroke-width="40" stroke-linejoin="round" d="M 5591,7964 L 5766,7863"/>
     </g>
     <g>
      <path fill="none" stroke="rgb(229,229,229)" id="Drawing_47_0" stroke-width="40" stroke-linejoin="round" d="M 5504,8116 L 5679,8015"/>
     </g>
     <g>
      <path fill="none" stroke="rgb(229,229,229)" id="Drawing_48_0" stroke-width="40" stroke-linejoin="round" d="M 5329,8015 L 5504,7914"/>
     </g>
     <g>
      <path fill="none" stroke="rgb(229,229,229)" id="Drawing_49_0" stroke-width="40" stroke-linejoin="round" d="M 5417,7864 L 5592,7763"/>
     </g>
     <g>
      <path fill="none" stroke="rgb(229,229,229)" id="Drawing_50_0" stroke-width="40" stroke-linejoin="round" d="M 5242,7763 L 5417,7662"/>
     </g>
     <g>
      <path fill="none" stroke="rgb(229,229,229)" id="Drawing_51_0" stroke-width="40" stroke-linejoin="round" d="M 5067,7662 L 5242,7561"/>
     </g>
     <g>
      <path fill="none" stroke="rgb(229,229,229)" id="Drawing_52_0" stroke-width="40" stroke-linejoin="round" d="M 4893,7561 L 5068,7460"/>
     </g>
     <g>
      <path fill="none" stroke="rgb(229,229,229)" id="Drawing_53_0" stroke-width="40" stroke-linejoin="round" d="M 4631,7611 L 4806,7510"/>
     </g>
     <g>
      <path fill="none" stroke="rgb(229,229,229)" id="Drawing_54_0" stroke-width="40" stroke-linejoin="round" d="M 4718,7460 L 4893,7359"/>
     </g>
     <g>
      <path fill="none" stroke="rgb(229,229,229)" id="Drawing_55_0" stroke-width="40" stroke-linejoin="round" d="M 4456,7510 L 4631,7409"/>
     </g>
     <g>
      <path fill="none" stroke="rgb(229,229,229)" id="Drawing_56_0" stroke-width="40" stroke-linejoin="round" d="M 5853,8318 L 6028,8217"/>
     </g>
     <g>
      <path fill="none" stroke="rgb(229,229,229)" id="Drawing_57_0" stroke-width="40" stroke-linejoin="round" d="M 5678,8217 L 5853,8116"/>
     </g>
     <g>
      <path fill="none" stroke="rgb(229,229,229)" id="Drawing_58_0" stroke-width="40" stroke-linejoin="round" d="M 6464,8671 L 7162,8267"/>
     </g>
     <g>
      <path fill="none" stroke="rgb(229,229,229)" id="Drawing_59_0" stroke-width="40" stroke-linejoin="round" d="M 6639,8772 L 7337,8368"/>
     </g>
     <g>
      <path fill="none" stroke="rgb(229,229,229)" id="Drawing_60_0" stroke-width="40" stroke-linejoin="round" d="M 6813,8267 L 7337,8570"/>
     </g>
     <g>
      <path fill="none" stroke="rgb(229,229,229)" id="Drawing_61_0" stroke-width="40" stroke-linejoin="round" d="M 6639,8368 L 7163,8671"/>
     </g>
     <g>
      <path fill="none" stroke="rgb(229,229,229)" id="Drawing_62_0" stroke-width="40" stroke-linejoin="round" d="M 6464,8469 L 6813,8671"/>
     </g>
     <g>
      <defs>
       <linearGradient id="Gradient_10" gradientUnits="userSpaceOnUse" x1="4017" y1="8315" x2="6814" y2="8319">
        <stop offset="0.1" stop-color="rgb(179,179,179)"/>
        <stop offset="1" stop-color="rgb(229,229,229)"/>
       </linearGradient>
      </defs>
      <path fill="url(#Gradient_10)" stroke="rgb(255,255,255)" id="Drawing_63_0" stroke-width="40" stroke-linejoin="round" d="M 4020,7611 L 4020,7409 6813,9024 6813,9225 4020,7611 Z"/>
     </g>
     <g>
      <path fill="none" stroke="rgb(0,0,0)" id="Drawing_64_0" stroke-width="40" stroke-linejoin="round" d="M 4980,6854 L 7773,8469 7773,8670 6813,9225 4020,7611 4020,7409 4980,6854 Z"/>
     </g>
    </g>
   </g>
  </g>
 </g>
</svg>