<?xml version="1.0" encoding="UTF-8"?>

<svg version="1.2" baseProfile="tiny" width="49.67mm" height="65.5mm" viewBox="11691 1978 4967 6550" preserveAspectRatio="xMidYMid" fill-rule="evenodd" stroke-width="28.222" stroke-linejoin="round" xmlns="http://www.w3.org/2000/svg" xmlns:xlink="http://www.w3.org/1999/xlink" xml:space="preserve">
 <g visibility="visible" id="Slide_1">
  <g id="DrawingGroup_1">
   <g id="DrawingGroup_2">
    <g>
     <path fill="rgb(221,221,221)" stroke="none" d="M 15674,8507 C 15916,8507 16638,8304 16638,8151 16638,7999 16616,7897 16374,7897 16374,8050 15670,8050 15674,8507 Z"/>
     <path fill="none" stroke="rgb(221,221,221)" id="Drawing_1_0" stroke-width="40" stroke-linejoin="round" d="M 15674,8507 C 15916,8507 16638,8304 16638,8151 16638,7999 16616,7897 16374,7897 16374,8050 15670,8050 15674,8507 Z"/>
    </g>
    <g id="DrawingGroup_3">
     <g>
      <defs>
       <linearGradient id="Gradient_69" gradientUnits="userSpaceOnUse" x1="15318" y1="8253" x2="15758" y2="8253">
        <stop offset="0.1" stop-color="rgb(51,51,51)"/>
        <stop offset="1" stop-color="rgb(153,153,153)"/>
       </linearGradient>
      </defs>
      <path fill="url(#Gradient_69)" stroke="rgb(178,178,178)" id="Drawing_2_0" stroke-width="40" stroke-linejoin="round" d="M 15318,8304 L 15406,7999 15758,8202 15670,8508 15318,8304 Z"/>
     </g>
     <g>
      <defs>
       <linearGradient id="Gradient_70" gradientUnits="userSpaceOnUse" x1="15890" y1="7643" x2="15890" y2="8202">
        <stop offset="0.1" stop-color="rgb(51,51,51)"/>
        <stop offset="1" stop-color="rgb(153,153,153)"/>
       </linearGradient>
      </defs>
      <path fill="url(#Gradient_70)" stroke="rgb(178,178,178)" id="Drawing_3_0" stroke-width="40" stroke-linejoin="round" d="M 15406,7999 L 15582,7846 15846,7694 16022,7643 16374,7846 16198,7897 15934,8050 15758,8202 15406,7999 Z"/>
     </g>
     <g>
      <path fill="rgb(51,51,51)" stroke="none" d="M 16298,8144 L 15795,8435 15686,8435 15688,8426 15707,8356 15728,8294 15751,8241 15776,8195 15801,8156 15829,8122 15857,8094 15886,8070 15917,8049 15948,8030 15979,8014 16110,7948 16176,7911 16239,7878 16270,7865 16298,7855 16298,8144 Z"/>
      <path fill="rgb(52,52,52)" stroke="none" d="M 15795,8435 L 15670,8507 15686,8435 15795,8435 Z M 16298,7855 L 16299,7855 16326,7848 16339,7847 16352,7846 16364,7847 16376,7848 16387,7852 16397,7856 16407,7862 16416,7870 16424,7879 16432,7890 16439,7903 16445,7918 16454,7953 16460,7997 16462,8049 16298,8144 16298,7855 Z M 16293,8147 L 15803,8430 15687,8430 15688,8426 15707,8356 15728,8294 15751,8241 15776,8195 15801,8156 15829,8122 15857,8094 15886,8070 15917,8049 15948,8030 15979,8014 16110,7948 16176,7911 16239,7878 16270,7865 16293,7857 16293,8147 Z"/>
      <path fill="rgb(53,53,53)" stroke="none" d="M 15803,8430 L 15670,8507 15687,8430 15803,8430 Z M 16293,7857 L 16299,7855 16326,7848 16339,7847 16352,7846 16364,7847 16376,7848 16387,7852 16397,7856 16407,7862 16416,7870 16424,7879 16432,7890 16439,7903 16445,7918 16454,7953 16460,7997 16462,8049 16293,8147 16293,7857 Z M 16288,8150 L 15812,8425 15688,8425 15707,8356 15728,8294 15751,8241 15776,8195 15801,8156 15829,8122 15857,8094 15886,8070 15917,8049 15948,8030 15979,8014 16110,7948 16176,7911 16239,7878 16270,7865 16288,7859 16288,8150 Z"/>
      <path fill="rgb(54,54,54)" stroke="none" d="M 15812,8425 L 15670,8507 15688,8426 15688,8425 15812,8425 Z M 16288,7859 L 16299,7855 16326,7848 16339,7847 16352,7846 16364,7847 16376,7848 16387,7852 16397,7856 16407,7862 16416,7870 16424,7879 16432,7890 16439,7903 16445,7918 16454,7953 16460,7997 16462,8049 16288,8150 16288,7859 Z M 16283,8153 L 15820,8420 15690,8420 15707,8356 15728,8294 15751,8241 15776,8195 15801,8156 15829,8122 15857,8094 15886,8070 15917,8049 15948,8030 15979,8014 16110,7948 16176,7911 16239,7878 16270,7865 16283,7861 16283,8153 Z"/>
      <path fill="rgb(56,56,56)" stroke="none" d="M 15820,8420 L 15670,8507 15688,8426 15690,8420 15820,8420 Z M 16283,7861 L 16299,7855 16326,7848 16339,7847 16352,7846 16364,7847 16376,7848 16387,7852 16397,7856 16407,7862 16416,7870 16424,7879 16432,7890 16439,7903 16445,7918 16454,7953 16460,7997 16462,8049 16283,8153 16283,7861 Z M 16278,8155 L 15829,8415 15691,8415 15707,8356 15728,8294 15751,8241 15776,8195 15801,8156 15829,8122 15857,8094 15886,8070 15917,8049 15948,8030 15979,8014 16110,7948 16176,7911 16239,7878 16270,7865 16278,7862 16278,8155 Z"/>
      <path fill="rgb(57,57,57)" stroke="none" d="M 15829,8415 L 15670,8507 15688,8426 15691,8415 15829,8415 Z M 16278,7862 L 16299,7855 16326,7848 16339,7847 16352,7846 16364,7847 16376,7848 16387,7852 16397,7856 16407,7862 16416,7870 16424,7879 16432,7890 16439,7903 16445,7918 16454,7953 16460,7997 16462,8049 16278,8155 16278,7862 Z M 16273,8158 L 15838,8410 15692,8410 15707,8356 15728,8294 15751,8241 15776,8195 15801,8156 15829,8122 15857,8094 15886,8070 15917,8049 15948,8030 15979,8014 16110,7948 16176,7911 16239,7878 16270,7865 16273,7864 16273,8158 Z"/>
      <path fill="rgb(58,58,58)" stroke="none" d="M 15838,8410 L 15670,8507 15688,8426 15692,8410 15838,8410 Z M 16273,7864 L 16299,7855 16326,7848 16339,7847 16352,7846 16364,7847 16376,7848 16387,7852 16397,7856 16407,7862 16416,7870 16424,7879 16432,7890 16439,7903 16445,7918 16454,7953 16460,7997 16462,8049 16273,8158 16273,7864 Z M 16268,8161 L 15846,8405 15694,8405 15707,8356 15728,8294 15751,8241 15776,8195 15801,8156 15829,8122 15857,8094 15886,8070 15917,8049 15948,8030 15979,8014 16110,7948 16176,7911 16239,7878 16268,7866 16268,8161 Z"/>
      <path fill="rgb(60,60,60)" stroke="none" d="M 15846,8405 L 15670,8507 15688,8426 15694,8405 15846,8405 Z M 16268,7866 L 16270,7865 16299,7855 16326,7848 16339,7847 16352,7846 16364,7847 16376,7848 16387,7852 16397,7856 16407,7862 16416,7870 16424,7879 16432,7890 16439,7903 16445,7918 16454,7953 16460,7997 16462,8049 16268,8161 16268,7866 Z M 16263,8164 L 15855,8400 15695,8400 15707,8356 15728,8294 15751,8241 15776,8195 15801,8156 15829,8122 15857,8094 15886,8070 15917,8049 15948,8030 15979,8014 16110,7948 16176,7911 16239,7878 16263,7868 16263,8164 Z"/>
      <path fill="rgb(61,61,61)" stroke="none" d="M 15855,8400 L 15670,8507 15688,8426 15695,8400 15855,8400 Z M 16263,7868 L 16270,7865 16299,7855 16326,7848 16339,7847 16352,7846 16364,7847 16376,7848 16387,7852 16397,7856 16407,7862 16416,7870 16424,7879 16432,7890 16439,7903 16445,7918 16454,7953 16460,7997 16462,8049 16263,8164 16263,7868 Z M 16258,8167 L 15864,8395 15696,8395 15707,8356 15728,8294 15751,8241 15776,8195 15801,8156 15829,8122 15857,8094 15886,8070 15917,8049 15948,8030 15979,8014 16110,7948 16176,7911 16239,7878 16258,7870 16258,8167 Z"/>
      <path fill="rgb(62,62,62)" stroke="none" d="M 15864,8395 L 15670,8507 15688,8426 15696,8395 15864,8395 Z M 16258,7870 L 16270,7865 16299,7855 16326,7848 16339,7847 16352,7846 16364,7847 16376,7848 16387,7852 16397,7856 16407,7862 16416,7870 16424,7879 16432,7890 16439,7903 16445,7918 16454,7953 16460,7997 16462,8049 16258,8167 16258,7870 Z M 16253,8170 L 15872,8390 15698,8390 15707,8356 15728,8294 15751,8241 15776,8195 15801,8156 15829,8122 15857,8094 15886,8070 15917,8049 15948,8030 15979,8014 16110,7948 16176,7911 16239,7878 16253,7872 16253,8170 Z"/>
      <path fill="rgb(63,63,63)" stroke="none" d="M 15872,8390 L 15670,8507 15688,8426 15698,8390 15872,8390 Z M 16253,7872 L 16270,7865 16299,7855 16326,7848 16339,7847 16352,7846 16364,7847 16376,7848 16387,7852 16397,7856 16407,7862 16416,7870 16424,7879 16432,7890 16439,7903 16445,7918 16454,7953 16460,7997 16462,8049 16253,8170 16253,7872 Z M 16248,8173 L 15881,8385 15699,8385 15707,8356 15728,8294 15751,8241 15776,8195 15801,8156 15829,8122 15857,8094 15886,8070 15917,8049 15948,8030 15979,8014 16110,7948 16176,7911 16239,7878 16248,7874 16248,8173 Z"/>
      <path fill="rgb(65,65,65)" stroke="none" d="M 15881,8385 L 15670,8507 15688,8426 15699,8385 15881,8385 Z M 16248,7874 L 16270,7865 16299,7855 16326,7848 16339,7847 16352,7846 16364,7847 16376,7848 16387,7852 16397,7856 16407,7862 16416,7870 16424,7879 16432,7890 16439,7903 16445,7918 16454,7953 16460,7997 16462,8049 16248,8173 16248,7874 Z M 16243,8176 L 15890,8380 15700,8380 15707,8356 15728,8294 15751,8241 15776,8195 15801,8156 15829,8122 15857,8094 15886,8070 15917,8049 15948,8030 15979,8014 16110,7948 16176,7911 16239,7878 16243,7876 16243,8176 Z"/>
      <path fill="rgb(66,66,66)" stroke="none" d="M 15890,8380 L 15670,8507 15688,8426 15700,8380 15890,8380 Z M 16243,7876 L 16270,7865 16299,7855 16326,7848 16339,7847 16352,7846 16364,7847 16376,7848 16387,7852 16397,7856 16407,7862 16416,7870 16424,7879 16432,7890 16439,7903 16445,7918 16454,7953 16460,7997 16462,8049 16243,8176 16243,7876 Z M 16238,8179 L 15898,8375 15702,8375 15707,8356 15728,8294 15751,8241 15776,8195 15801,8156 15829,8122 15857,8094 15886,8070 15917,8049 15948,8030 15979,8014 16110,7948 16176,7911 16238,7879 16238,8179 Z"/>
      <path fill="rgb(67,67,67)" stroke="none" d="M 15898,8375 L 15670,8507 15688,8426 15702,8375 15898,8375 Z M 16238,7879 L 16239,7878 16270,7865 16299,7855 16326,7848 16339,7847 16352,7846 16364,7847 16376,7848 16387,7852 16397,7856 16407,7862 16416,7870 16424,7879 16432,7890 16439,7903 16445,7918 16454,7953 16460,7997 16462,8049 16238,8179 16238,7879 Z M 16233,8181 L 15907,8370 15703,8370 15707,8356 15728,8294 15751,8241 15776,8195 15801,8156 15829,8122 15857,8094 15886,8070 15917,8049 15948,8030 15979,8014 16110,7948 16176,7911 16233,7881 16233,8181 Z"/>
      <path fill="rgb(69,69,69)" stroke="none" d="M 15907,8370 L 15670,8507 15688,8426 15703,8370 15907,8370 Z M 16233,7881 L 16239,7878 16270,7865 16299,7855 16326,7848 16339,7847 16352,7846 16364,7847 16376,7848 16387,7852 16397,7856 16407,7862 16416,7870 16424,7879 16432,7890 16439,7903 16445,7918 16454,7953 16460,7997 16462,8049 16233,8181 16233,7881 Z M 16228,8184 L 15916,8365 15705,8365 15707,8356 15728,8294 15751,8241 15776,8195 15801,8156 15829,8122 15857,8094 15886,8070 15917,8049 15948,8030 15979,8014 16110,7948 16176,7911 16228,7884 16228,8184 Z"/>
      <path fill="rgb(70,70,70)" stroke="none" d="M 15916,8365 L 15670,8507 15688,8426 15705,8365 15916,8365 Z M 16228,7884 L 16239,7878 16270,7865 16299,7855 16326,7848 16339,7847 16352,7846 16364,7847 16376,7848 16387,7852 16397,7856 16407,7862 16416,7870 16424,7879 16432,7890 16439,7903 16445,7918 16454,7953 16460,7997 16462,8049 16228,8184 16228,7884 Z M 16223,8187 L 15924,8360 15706,8360 15707,8356 15728,8294 15751,8241 15776,8195 15801,8156 15829,8122 15857,8094 15886,8070 15917,8049 15948,8030 15979,8014 16110,7948 16176,7911 16223,7886 16223,8187 Z"/>
      <path fill="rgb(71,71,71)" stroke="none" d="M 15924,8360 L 15670,8507 15688,8426 15706,8360 15924,8360 Z M 16223,7886 L 16239,7878 16270,7865 16299,7855 16326,7848 16339,7847 16352,7846 16364,7847 16376,7848 16387,7852 16397,7856 16407,7862 16416,7870 16424,7879 16432,7890 16439,7903 16445,7918 16454,7953 16460,7997 16462,8049 16223,8187 16223,7886 Z M 16218,8190 L 15933,8355 15707,8355 15728,8294 15751,8241 15776,8195 15801,8156 15829,8122 15857,8094 15886,8070 15917,8049 15948,8030 15979,8014 16110,7948 16176,7911 16218,7889 16218,8190 Z"/>
      <path fill="rgb(72,72,72)" stroke="none" d="M 15933,8355 L 15670,8507 15688,8426 15707,8356 15707,8355 15933,8355 Z M 16218,7889 L 16239,7878 16270,7865 16299,7855 16326,7848 16339,7847 16352,7846 16364,7847 16376,7848 16387,7852 16397,7856 16407,7862 16416,7870 16424,7879 16432,7890 16439,7903 16445,7918 16454,7953 16460,7997 16462,8049 16218,8190 16218,7889 Z M 16213,8193 L 15941,8350 15709,8350 15728,8294 15751,8241 15776,8195 15801,8156 15829,8122 15857,8094 15886,8070 15917,8049 15948,8030 15979,8014 16110,7948 16176,7911 16213,7892 16213,8193 Z"/>
      <path fill="rgb(74,74,74)" stroke="none" d="M 15941,8350 L 15670,8507 15688,8426 15707,8356 15709,8350 15941,8350 Z M 16213,7892 L 16239,7878 16270,7865 16299,7855 16326,7848 16339,7847 16352,7846 16364,7847 16376,7848 16387,7852 16397,7856 16407,7862 16416,7870 16424,7879 16432,7890 16439,7903 16445,7918 16454,7953 16460,7997 16462,8049 16213,8193 16213,7892 Z M 16208,8196 L 15950,8345 15711,8345 15728,8294 15751,8241 15776,8195 15801,8156 15829,8122 15857,8094 15886,8070 15917,8049 15948,8030 15979,8014 16110,7948 16176,7911 16208,7894 16208,8196 Z"/>
      <path fill="rgb(75,75,75)" stroke="none" d="M 15950,8345 L 15670,8507 15688,8426 15707,8356 15711,8345 15950,8345 Z M 16208,7894 L 16239,7878 16270,7865 16299,7855 16326,7848 16339,7847 16352,7846 16364,7847 16376,7848 16387,7852 16397,7856 16407,7862 16416,7870 16424,7879 16432,7890 16439,7903 16445,7918 16454,7953 16460,7997 16462,8049 16208,8196 16208,7894 Z M 16203,8199 L 15959,8340 15712,8340 15728,8294 15751,8241 15776,8195 15801,8156 15829,8122 15857,8094 15886,8070 15917,8049 15948,8030 15979,8014 16110,7948 16176,7911 16203,7897 16203,8199 Z"/>
      <path fill="rgb(76,76,76)" stroke="none" d="M 15959,8340 L 15670,8507 15688,8426 15707,8356 15712,8340 15959,8340 Z M 16203,7897 L 16239,7878 16270,7865 16299,7855 16326,7848 16339,7847 16352,7846 16364,7847 16376,7848 16387,7852 16397,7856 16407,7862 16416,7870 16424,7879 16432,7890 16439,7903 16445,7918 16454,7953 16460,7997 16462,8049 16203,8199 16203,7897 Z M 16198,8202 L 15967,8335 15714,8335 15728,8294 15751,8241 15776,8195 15801,8156 15829,8122 15857,8094 15886,8070 15917,8049 15948,8030 15979,8014 16110,7948 16176,7911 16198,7899 16198,8202 Z"/>
      <path fill="rgb(78,78,78)" stroke="none" d="M 15967,8335 L 15670,8507 15688,8426 15707,8356 15714,8335 15967,8335 Z M 16198,7899 L 16239,7878 16270,7865 16299,7855 16326,7848 16339,7847 16352,7846 16364,7847 16376,7848 16387,7852 16397,7856 16407,7862 16416,7870 16424,7879 16432,7890 16439,7903 16445,7918 16454,7953 16460,7997 16462,8049 16198,8202 16198,7899 Z M 16193,8205 L 15976,8330 15716,8330 15728,8294 15751,8241 15776,8195 15801,8156 15829,8122 15857,8094 15886,8070 15917,8049 15948,8030 15979,8014 16110,7948 16176,7911 16193,7902 16193,8205 Z"/>
      <path fill="rgb(79,79,79)" stroke="none" d="M 15976,8330 L 15670,8507 15688,8426 15707,8356 15716,8330 15976,8330 Z M 16193,7902 L 16239,7878 16270,7865 16299,7855 16326,7848 16339,7847 16352,7846 16364,7847 16376,7848 16387,7852 16397,7856 16407,7862 16416,7870 16424,7879 16432,7890 16439,7903 16445,7918 16454,7953 16460,7997 16462,8049 16193,8205 16193,7902 Z M 16188,8207 L 15985,8325 15718,8325 15728,8294 15751,8241 15776,8195 15801,8156 15829,8122 15857,8094 15886,8070 15917,8049 15948,8030 15979,8014 16110,7948 16176,7911 16188,7905 16188,8207 Z"/>
      <path fill="rgb(80,80,80)" stroke="none" d="M 15985,8325 L 15670,8507 15688,8426 15707,8356 15718,8325 15985,8325 Z M 16188,7905 L 16239,7878 16270,7865 16299,7855 16326,7848 16339,7847 16352,7846 16364,7847 16376,7848 16387,7852 16397,7856 16407,7862 16416,7870 16424,7879 16432,7890 16439,7903 16445,7918 16454,7953 16460,7997 16462,8049 16188,8207 16188,7905 Z M 16183,8210 L 15993,8320 15719,8320 15728,8294 15751,8241 15776,8195 15801,8156 15829,8122 15857,8094 15886,8070 15917,8049 15948,8030 15979,8014 16110,7948 16176,7911 16183,7907 16183,8210 Z"/>
      <path fill="rgb(81,81,81)" stroke="none" d="M 15993,8320 L 15670,8507 15688,8426 15707,8356 15719,8320 15993,8320 Z M 16183,7907 L 16239,7878 16270,7865 16299,7855 16326,7848 16339,7847 16352,7846 16364,7847 16376,7848 16387,7852 16397,7856 16407,7862 16416,7870 16424,7879 16432,7890 16439,7903 16445,7918 16454,7953 16460,7997 16462,8049 16183,8210 16183,7907 Z M 16178,8213 L 16002,8315 15721,8315 15728,8294 15751,8241 15776,8195 15801,8156 15829,8122 15857,8094 15886,8070 15917,8049 15948,8030 15979,8014 16110,7948 16176,7911 16178,7910 16178,8213 Z"/>
      <path fill="rgb(83,83,83)" stroke="none" d="M 16002,8315 L 15670,8507 15688,8426 15707,8356 15721,8315 16002,8315 Z M 16178,7910 L 16239,7878 16270,7865 16299,7855 16326,7848 16339,7847 16352,7846 16364,7847 16376,7848 16387,7852 16397,7856 16407,7862 16416,7870 16424,7879 16432,7890 16439,7903 16445,7918 16454,7953 16460,7997 16462,8049 16178,8213 16178,7910 Z M 16173,8216 L 16011,8310 15723,8310 15728,8294 15751,8241 15776,8195 15801,8156 15829,8122 15857,8094 15886,8070 15917,8049 15948,8030 15979,8014 16110,7948 16173,7913 16173,8216 Z"/>
      <path fill="rgb(84,84,84)" stroke="none" d="M 16011,8310 L 15670,8507 15688,8426 15707,8356 15723,8310 16011,8310 Z M 16173,7913 L 16176,7911 16239,7878 16270,7865 16299,7855 16326,7848 16339,7847 16352,7846 16364,7847 16376,7848 16387,7852 16397,7856 16407,7862 16416,7870 16424,7879 16432,7890 16439,7903 16445,7918 16454,7953 16460,7997 16462,8049 16173,8216 16173,7913 Z M 16168,8219 L 16019,8305 15724,8305 15728,8294 15751,8241 15776,8195 15801,8156 15829,8122 15857,8094 15886,8070 15917,8049 15948,8030 15979,8014 16110,7948 16168,7915 16168,8219 Z"/>
      <path fill="rgb(85,85,85)" stroke="none" d="M 16019,8305 L 15670,8507 15688,8426 15707,8356 15724,8305 16019,8305 Z M 16168,7915 L 16176,7911 16239,7878 16270,7865 16299,7855 16326,7848 16339,7847 16352,7846 16364,7847 16376,7848 16387,7852 16397,7856 16407,7862 16416,7870 16424,7879 16432,7890 16439,7903 16445,7918 16454,7953 16460,7997 16462,8049 16168,8219 16168,7915 Z M 16163,8222 L 16028,8300 15726,8300 15728,8294 15751,8241 15776,8195 15801,8156 15829,8122 15857,8094 15886,8070 15917,8049 15948,8030 15979,8014 16110,7948 16163,7918 16163,8222 Z"/>
      <path fill="rgb(87,87,87)" stroke="none" d="M 16028,8300 L 15670,8507 15688,8426 15707,8356 15726,8300 16028,8300 Z M 16163,7918 L 16176,7911 16239,7878 16270,7865 16299,7855 16326,7848 16339,7847 16352,7846 16364,7847 16376,7848 16387,7852 16397,7856 16407,7862 16416,7870 16424,7879 16432,7890 16439,7903 16445,7918 16454,7953 16460,7997 16462,8049 16163,8222 16163,7918 Z M 16158,8225 L 16037,8295 15728,8295 15728,8294 15751,8241 15776,8195 15801,8156 15829,8122 15857,8094 15886,8070 15917,8049 15948,8030 15979,8014 16110,7948 16158,7921 16158,8225 Z"/>
      <path fill="rgb(88,88,88)" stroke="none" d="M 16037,8295 L 15670,8507 15688,8426 15707,8356 15728,8295 16037,8295 Z M 16158,7921 L 16176,7911 16239,7878 16270,7865 16299,7855 16326,7848 16339,7847 16352,7846 16364,7847 16376,7848 16387,7852 16397,7856 16407,7862 16416,7870 16424,7879 16432,7890 16439,7903 16445,7918 16454,7953 16460,7997 16462,8049 16158,8225 16158,7921 Z M 16153,8228 L 16045,8290 15730,8290 15751,8241 15776,8195 15801,8156 15829,8122 15857,8094 15886,8070 15917,8049 15948,8030 15979,8014 16110,7948 16153,7924 16153,8228 Z"/>
      <path fill="rgb(89,89,89)" stroke="none" d="M 16045,8290 L 15670,8507 15688,8426 15707,8356 15728,8294 15730,8290 16045,8290 Z M 16153,7924 L 16176,7911 16239,7878 16270,7865 16299,7855 16326,7848 16339,7847 16352,7846 16364,7847 16376,7848 16387,7852 16397,7856 16407,7862 16416,7870 16424,7879 16432,7890 16439,7903 16445,7918 16454,7953 16460,7997 16462,8049 16153,8228 16153,7924 Z M 16148,8231 L 16054,8285 15732,8285 15751,8241 15776,8195 15801,8156 15829,8122 15857,8094 15886,8070 15917,8049 15948,8030 15979,8014 16110,7948 16148,7927 16148,8231 Z"/>
      <path fill="rgb(91,91,91)" stroke="none" d="M 16054,8285 L 15670,8507 15688,8426 15707,8356 15728,8294 15732,8285 16054,8285 Z M 16148,7927 L 16176,7911 16239,7878 16270,7865 16299,7855 16326,7848 16339,7847 16352,7846 16364,7847 16376,7848 16387,7852 16397,7856 16407,7862 16416,7870 16424,7879 16432,7890 16439,7903 16445,7918 16454,7953 16460,7997 16462,8049 16148,8231 16148,7927 Z M 16142,8234 L 16064,8279 15735,8279 15751,8241 15776,8195 15801,8156 15829,8122 15857,8094 15886,8070 15917,8049 15948,8030 15979,8014 16110,7948 16142,7930 16142,8234 Z"/>
      <path fill="rgb(92,92,92)" stroke="none" d="M 16064,8279 L 15670,8507 15688,8426 15707,8356 15728,8294 15735,8279 16064,8279 Z M 16142,7930 L 16176,7911 16239,7878 16270,7865 16299,7855 16326,7848 16339,7847 16352,7846 16364,7847 16376,7848 16387,7852 16397,7856 16407,7862 16416,7870 16424,7879 16432,7890 16439,7903 16445,7918 16454,7953 16460,7997 16462,8049 16142,8234 16142,7930 Z M 16137,8237 L 16073,8274 15737,8274 15751,8241 15776,8195 15801,8156 15829,8122 15857,8094 15886,8070 15917,8049 15948,8030 15979,8014 16110,7948 16137,7933 16137,8237 Z"/>
      <path fill="rgb(93,93,93)" stroke="none" d="M 16073,8274 L 15670,8507 15688,8426 15707,8356 15728,8294 15737,8274 16073,8274 Z M 16137,7933 L 16176,7911 16239,7878 16270,7865 16299,7855 16326,7848 16339,7847 16352,7846 16364,7847 16376,7848 16387,7852 16397,7856 16407,7862 16416,7870 16424,7879 16432,7890 16439,7903 16445,7918 16454,7953 16460,7997 16462,8049 16137,8237 16137,7933 Z M 16132,8240 L 16082,8269 15739,8269 15751,8241 15776,8195 15801,8156 15829,8122 15857,8094 15886,8070 15917,8049 15948,8030 15979,8014 16110,7948 16132,7936 16132,8240 Z"/>
      <path fill="rgb(94,94,94)" stroke="none" d="M 16082,8269 L 15670,8507 15688,8426 15707,8356 15728,8294 15739,8269 16082,8269 Z M 16132,7936 L 16176,7911 16239,7878 16270,7865 16299,7855 16326,7848 16339,7847 16352,7846 16364,7847 16376,7848 16387,7852 16397,7856 16407,7862 16416,7870 16424,7879 16432,7890 16439,7903 16445,7918 16454,7953 16460,7997 16462,8049 16132,8240 16132,7936 Z M 16127,8243 L 16090,8264 15741,8264 15751,8241 15776,8195 15801,8156 15829,8122 15857,8094 15886,8070 15917,8049 15948,8030 15979,8014 16110,7948 16127,7938 16127,8243 Z"/>
      <path fill="rgb(96,96,96)" stroke="none" d="M 16090,8264 L 15670,8507 15688,8426 15707,8356 15728,8294 15741,8264 16090,8264 Z M 16127,7938 L 16176,7911 16239,7878 16270,7865 16299,7855 16326,7848 16339,7847 16352,7846 16364,7847 16376,7848 16387,7852 16397,7856 16407,7862 16416,7870 16424,7879 16432,7890 16439,7903 16445,7918 16454,7953 16460,7997 16462,8049 16127,8243 16127,7938 Z M 16122,8246 L 16099,8259 15743,8259 15751,8241 15776,8195 15801,8156 15829,8122 15857,8094 15886,8070 15917,8049 15948,8030 15979,8014 16110,7948 16122,7941 16122,8246 Z"/>
      <path fill="rgb(97,97,97)" stroke="none" d="M 16099,8259 L 15670,8507 15688,8426 15707,8356 15728,8294 15743,8259 16099,8259 Z M 16122,7941 L 16176,7911 16239,7878 16270,7865 16299,7855 16326,7848 16339,7847 16352,7846 16364,7847 16376,7848 16387,7852 16397,7856 16407,7862 16416,7870 16424,7879 16432,7890 16439,7903 16445,7918 16454,7953 16460,7997 16462,8049 16122,8246 16122,7941 Z M 16117,8249 L 16108,8254 15745,8254 15751,8241 15776,8195 15801,8156 15829,8122 15857,8094 15886,8070 15917,8049 15948,8030 15979,8014 16110,7948 16117,7944 16117,8249 Z"/>
      <path fill="rgb(98,98,98)" stroke="none" d="M 16108,8254 L 15670,8507 15688,8426 15707,8356 15728,8294 15745,8254 16108,8254 Z M 16117,7944 L 16176,7911 16239,7878 16270,7865 16299,7855 16326,7848 16339,7847 16352,7846 16364,7847 16376,7848 16387,7852 16397,7856 16407,7862 16416,7870 16424,7879 16432,7890 16439,7903 16445,7918 16454,7953 16460,7997 16462,8049 16117,8249 16117,7944 Z M 16112,8249 L 15748,8249 15751,8241 15776,8195 15801,8156 15829,8122 15857,8094 15886,8070 15917,8049 15948,8030 15979,8014 16110,7948 16112,7947 16112,8249 Z"/>
      <path fill="rgb(100,100,100)" stroke="none" d="M 16112,8249 L 16112,7947 16176,7911 16239,7878 16270,7865 16299,7855 16326,7848 16339,7847 16352,7846 16364,7847 16376,7848 16387,7852 16397,7856 16407,7862 16416,7870 16424,7879 16432,7890 16439,7903 16445,7918 16454,7953 16460,7997 16462,8049 15670,8507 15688,8426 15707,8356 15728,8294 15748,8249 16112,8249 Z M 16107,8244 L 15750,8244 15751,8241 15776,8195 15801,8156 15829,8122 15857,8094 15886,8070 15917,8049 15948,8030 15979,8014 16107,7950 16107,8244 Z"/>
      <path fill="rgb(101,101,101)" stroke="none" d="M 16107,8244 L 16107,7950 16110,7948 16176,7911 16239,7878 16270,7865 16299,7855 16326,7848 16339,7847 16352,7846 16364,7847 16376,7848 16387,7852 16397,7856 16407,7862 16416,7870 16424,7879 16432,7890 16439,7903 16445,7918 16454,7953 16460,7997 16462,8049 15670,8507 15688,8426 15707,8356 15728,8294 15750,8244 16107,8244 Z M 16102,8239 L 15752,8239 15776,8195 15801,8156 15829,8122 15857,8094 15886,8070 15917,8049 15948,8030 15979,8014 16102,7952 16102,8239 Z"/>
      <path fill="rgb(102,102,102)" stroke="none" d="M 16102,8239 L 16102,7952 16110,7948 16176,7911 16239,7878 16270,7865 16299,7855 16326,7848 16339,7847 16352,7846 16364,7847 16376,7848 16387,7852 16397,7856 16407,7862 16416,7870 16424,7879 16432,7890 16439,7903 16445,7918 16454,7953 16460,7997 16462,8049 15670,8507 15688,8426 15707,8356 15728,8294 15751,8241 15752,8239 16102,8239 Z M 16097,8234 L 15755,8234 15776,8195 15801,8156 15829,8122 15857,8094 15886,8070 15917,8049 15948,8030 15979,8014 16097,7955 16097,8234 Z"/>
      <path fill="rgb(103,103,103)" stroke="none" d="M 16097,8234 L 16097,7955 16110,7948 16176,7911 16239,7878 16270,7865 16299,7855 16326,7848 16339,7847 16352,7846 16364,7847 16376,7848 16387,7852 16397,7856 16407,7862 16416,7870 16424,7879 16432,7890 16439,7903 16445,7918 16454,7953 16460,7997 16462,8049 15670,8507 15688,8426 15707,8356 15728,8294 15751,8241 15755,8234 16097,8234 Z M 16092,8229 L 15758,8229 15776,8195 15801,8156 15829,8122 15857,8094 15886,8070 15917,8049 15948,8030 15979,8014 16092,7957 16092,8229 Z"/>
      <path fill="rgb(105,105,105)" stroke="none" d="M 16092,8229 L 16092,7957 16110,7948 16176,7911 16239,7878 16270,7865 16299,7855 16326,7848 16339,7847 16352,7846 16364,7847 16376,7848 16387,7852 16397,7856 16407,7862 16416,7870 16424,7879 16432,7890 16439,7903 16445,7918 16454,7953 16460,7997 16462,8049 15670,8507 15688,8426 15707,8356 15728,8294 15751,8241 15758,8229 16092,8229 Z M 16087,8224 L 15760,8224 15776,8195 15801,8156 15829,8122 15857,8094 15886,8070 15917,8049 15948,8030 15979,8014 16087,7960 16087,8224 Z"/>
      <path fill="rgb(106,106,106)" stroke="none" d="M 16087,8224 L 16087,7960 16110,7948 16176,7911 16239,7878 16270,7865 16299,7855 16326,7848 16339,7847 16352,7846 16364,7847 16376,7848 16387,7852 16397,7856 16407,7862 16416,7870 16424,7879 16432,7890 16439,7903 16445,7918 16454,7953 16460,7997 16462,8049 15670,8507 15688,8426 15707,8356 15728,8294 15751,8241 15760,8224 16087,8224 Z M 16082,8219 L 15763,8219 15776,8195 15801,8156 15829,8122 15857,8094 15886,8070 15917,8049 15948,8030 15979,8014 16082,7962 16082,8219 Z"/>
      <path fill="rgb(107,107,107)" stroke="none" d="M 16082,8219 L 16082,7962 16110,7948 16176,7911 16239,7878 16270,7865 16299,7855 16326,7848 16339,7847 16352,7846 16364,7847 16376,7848 16387,7852 16397,7856 16407,7862 16416,7870 16424,7879 16432,7890 16439,7903 16445,7918 16454,7953 16460,7997 16462,8049 15670,8507 15688,8426 15707,8356 15728,8294 15751,8241 15763,8219 16082,8219 Z M 16077,8214 L 15766,8214 15776,8195 15801,8156 15829,8122 15857,8094 15886,8070 15917,8049 15948,8030 15979,8014 16077,7965 16077,8214 Z"/>
      <path fill="rgb(109,109,109)" stroke="none" d="M 16077,8214 L 16077,7965 16110,7948 16176,7911 16239,7878 16270,7865 16299,7855 16326,7848 16339,7847 16352,7846 16364,7847 16376,7848 16387,7852 16397,7856 16407,7862 16416,7870 16424,7879 16432,7890 16439,7903 16445,7918 16454,7953 16460,7997 16462,8049 15670,8507 15688,8426 15707,8356 15728,8294 15751,8241 15766,8214 16077,8214 Z M 16072,8209 L 15768,8209 15776,8195 15801,8156 15829,8122 15857,8094 15886,8070 15917,8049 15948,8030 15979,8014 16072,7967 16072,8209 Z"/>
      <path fill="rgb(110,110,110)" stroke="none" d="M 16072,8209 L 16072,7967 16110,7948 16176,7911 16239,7878 16270,7865 16299,7855 16326,7848 16339,7847 16352,7846 16364,7847 16376,7848 16387,7852 16397,7856 16407,7862 16416,7870 16424,7879 16432,7890 16439,7903 16445,7918 16454,7953 16460,7997 16462,8049 15670,8507 15688,8426 15707,8356 15728,8294 15751,8241 15768,8209 16072,8209 Z M 16067,8204 L 15771,8204 15776,8195 15801,8156 15829,8122 15857,8094 15886,8070 15917,8049 15948,8030 15979,8014 16067,7970 16067,8204 Z"/>
      <path fill="rgb(111,111,111)" stroke="none" d="M 16067,8204 L 16067,7970 16110,7948 16176,7911 16239,7878 16270,7865 16299,7855 16326,7848 16339,7847 16352,7846 16364,7847 16376,7848 16387,7852 16397,7856 16407,7862 16416,7870 16424,7879 16432,7890 16439,7903 16445,7918 16454,7953 16460,7997 16462,8049 15670,8507 15688,8426 15707,8356 15728,8294 15751,8241 15771,8204 16067,8204 Z M 16062,8199 L 15774,8199 15776,8195 15801,8156 15829,8122 15857,8094 15886,8070 15917,8049 15948,8030 15979,8014 16062,7972 16062,8199 Z"/>
      <path fill="rgb(112,112,112)" stroke="none" d="M 16062,8199 L 16062,7972 16110,7948 16176,7911 16239,7878 16270,7865 16299,7855 16326,7848 16339,7847 16352,7846 16364,7847 16376,7848 16387,7852 16397,7856 16407,7862 16416,7870 16424,7879 16432,7890 16439,7903 16445,7918 16454,7953 16460,7997 16462,8049 15670,8507 15688,8426 15707,8356 15728,8294 15751,8241 15774,8199 16062,8199 Z M 16057,8194 L 15777,8194 15801,8156 15829,8122 15857,8094 15886,8070 15917,8049 15948,8030 15979,8014 16057,7975 16057,8194 Z"/>
      <path fill="rgb(114,114,114)" stroke="none" d="M 16057,8194 L 16057,7975 16110,7948 16176,7911 16239,7878 16270,7865 16299,7855 16326,7848 16339,7847 16352,7846 16364,7847 16376,7848 16387,7852 16397,7856 16407,7862 16416,7870 16424,7879 16432,7890 16439,7903 16445,7918 16454,7953 16460,7997 16462,8049 15670,8507 15688,8426 15707,8356 15728,8294 15751,8241 15776,8195 15777,8194 16057,8194 Z M 16052,8189 L 15780,8189 15801,8156 15829,8122 15857,8094 15886,8070 15917,8049 15948,8030 15979,8014 16052,7977 16052,8189 Z"/>
      <path fill="rgb(115,115,115)" stroke="none" d="M 16052,8189 L 16052,7977 16110,7948 16176,7911 16239,7878 16270,7865 16299,7855 16326,7848 16339,7847 16352,7846 16364,7847 16376,7848 16387,7852 16397,7856 16407,7862 16416,7870 16424,7879 16432,7890 16439,7903 16445,7918 16454,7953 16460,7997 16462,8049 15670,8507 15688,8426 15707,8356 15728,8294 15751,8241 15776,8195 15780,8189 16052,8189 Z M 16047,8184 L 15783,8184 15801,8156 15829,8122 15857,8094 15886,8070 15917,8049 15948,8030 15979,8014 16047,7980 16047,8184 Z"/>
      <path fill="rgb(116,116,116)" stroke="none" d="M 16047,8184 L 16047,7980 16110,7948 16176,7911 16239,7878 16270,7865 16299,7855 16326,7848 16339,7847 16352,7846 16364,7847 16376,7848 16387,7852 16397,7856 16407,7862 16416,7870 16424,7879 16432,7890 16439,7903 16445,7918 16454,7953 16460,7997 16462,8049 15670,8507 15688,8426 15707,8356 15728,8294 15751,8241 15776,8195 15783,8184 16047,8184 Z M 16042,8179 L 15786,8179 15801,8156 15829,8122 15857,8094 15886,8070 15917,8049 15948,8030 15979,8014 16042,7982 16042,8179 Z"/>
      <path fill="rgb(118,118,118)" stroke="none" d="M 16042,8179 L 16042,7982 16110,7948 16176,7911 16239,7878 16270,7865 16299,7855 16326,7848 16339,7847 16352,7846 16364,7847 16376,7848 16387,7852 16397,7856 16407,7862 16416,7870 16424,7879 16432,7890 16439,7903 16445,7918 16454,7953 16460,7997 16462,8049 15670,8507 15688,8426 15707,8356 15728,8294 15751,8241 15776,8195 15786,8179 16042,8179 Z M 16037,8174 L 15789,8174 15801,8156 15829,8122 15857,8094 15886,8070 15917,8049 15948,8030 15979,8014 16037,7985 16037,8174 Z"/>
      <path fill="rgb(119,119,119)" stroke="none" d="M 16037,8174 L 16037,7985 16110,7948 16176,7911 16239,7878 16270,7865 16299,7855 16326,7848 16339,7847 16352,7846 16364,7847 16376,7848 16387,7852 16397,7856 16407,7862 16416,7870 16424,7879 16432,7890 16439,7903 16445,7918 16454,7953 16460,7997 16462,8049 15670,8507 15688,8426 15707,8356 15728,8294 15751,8241 15776,8195 15789,8174 16037,8174 Z M 16032,8169 L 15793,8169 15801,8156 15829,8122 15857,8094 15886,8070 15917,8049 15948,8030 15979,8014 16032,7987 16032,8169 Z"/>
      <path fill="rgb(120,120,120)" stroke="none" d="M 16032,8169 L 16032,7987 16110,7948 16176,7911 16239,7878 16270,7865 16299,7855 16326,7848 16339,7847 16352,7846 16364,7847 16376,7848 16387,7852 16397,7856 16407,7862 16416,7870 16424,7879 16432,7890 16439,7903 16445,7918 16454,7953 16460,7997 16462,8049 15670,8507 15688,8426 15707,8356 15728,8294 15751,8241 15776,8195 15793,8169 16032,8169 Z M 16027,8164 L 15796,8164 15801,8156 15829,8122 15857,8094 15886,8070 15917,8049 15948,8030 15979,8014 16027,7990 16027,8164 Z"/>
      <path fill="rgb(122,122,122)" stroke="none" d="M 16027,8164 L 16027,7990 16110,7948 16176,7911 16239,7878 16270,7865 16299,7855 16326,7848 16339,7847 16352,7846 16364,7847 16376,7848 16387,7852 16397,7856 16407,7862 16416,7870 16424,7879 16432,7890 16439,7903 16445,7918 16454,7953 16460,7997 16462,8049 15670,8507 15688,8426 15707,8356 15728,8294 15751,8241 15776,8195 15796,8164 16027,8164 Z M 16022,8159 L 15799,8159 15801,8156 15829,8122 15857,8094 15886,8070 15917,8049 15948,8030 15979,8014 16022,7992 16022,8159 Z"/>
      <path fill="rgb(123,123,123)" stroke="none" d="M 16022,8159 L 16022,7992 16110,7948 16176,7911 16239,7878 16270,7865 16299,7855 16326,7848 16339,7847 16352,7846 16364,7847 16376,7848 16387,7852 16397,7856 16407,7862 16416,7870 16424,7879 16432,7890 16439,7903 16445,7918 16454,7953 16460,7997 16462,8049 15670,8507 15688,8426 15707,8356 15728,8294 15751,8241 15776,8195 15799,8159 16022,8159 Z M 16017,8154 L 15803,8154 15829,8122 15857,8094 15886,8070 15917,8049 15948,8030 15979,8014 16017,7995 16017,8154 Z"/>
      <path fill="rgb(124,124,124)" stroke="none" d="M 16017,8154 L 16017,7995 16110,7948 16176,7911 16239,7878 16270,7865 16299,7855 16326,7848 16339,7847 16352,7846 16364,7847 16376,7848 16387,7852 16397,7856 16407,7862 16416,7870 16424,7879 16432,7890 16439,7903 16445,7918 16454,7953 16460,7997 16462,8049 15670,8507 15688,8426 15707,8356 15728,8294 15751,8241 15776,8195 15801,8156 15803,8154 16017,8154 Z M 16012,8149 L 15807,8149 15829,8122 15857,8094 15886,8070 15917,8049 15948,8030 15979,8014 16012,7997 16012,8149 Z"/>
      <path fill="rgb(125,125,125)" stroke="none" d="M 16012,8149 L 16012,7997 16110,7948 16176,7911 16239,7878 16270,7865 16299,7855 16326,7848 16339,7847 16352,7846 16364,7847 16376,7848 16387,7852 16397,7856 16407,7862 16416,7870 16424,7879 16432,7890 16439,7903 16445,7918 16454,7953 16460,7997 16462,8049 15670,8507 15688,8426 15707,8356 15728,8294 15751,8241 15776,8195 15801,8156 15807,8149 16012,8149 Z M 16007,8144 L 15811,8144 15829,8122 15857,8094 15886,8070 15917,8049 15948,8030 15979,8014 16007,8000 16007,8144 Z"/>
      <path fill="rgb(127,127,127)" stroke="none" d="M 16007,8144 L 16007,8000 16110,7948 16176,7911 16239,7878 16270,7865 16299,7855 16326,7848 16339,7847 16352,7846 16364,7847 16376,7848 16387,7852 16397,7856 16407,7862 16416,7870 16424,7879 16432,7890 16439,7903 16445,7918 16454,7953 16460,7997 16462,8049 15670,8507 15688,8426 15707,8356 15728,8294 15751,8241 15776,8195 15801,8156 15811,8144 16007,8144 Z M 16002,8139 L 15815,8139 15829,8122 15857,8094 15886,8070 15917,8049 15948,8030 15979,8014 16002,8002 16002,8139 Z"/>
      <path fill="rgb(128,128,128)" stroke="none" d="M 16002,8139 L 16002,8002 16110,7948 16176,7911 16239,7878 16270,7865 16299,7855 16326,7848 16339,7847 16352,7846 16364,7847 16376,7848 16387,7852 16397,7856 16407,7862 16416,7870 16424,7879 16432,7890 16439,7903 16445,7918 16454,7953 16460,7997 16462,8049 15670,8507 15688,8426 15707,8356 15728,8294 15751,8241 15776,8195 15801,8156 15815,8139 16002,8139 Z M 15997,8134 L 15819,8134 15829,8122 15857,8094 15886,8070 15917,8049 15948,8030 15979,8014 15997,8005 15997,8134 Z"/>
      <path fill="rgb(129,129,129)" stroke="none" d="M 15997,8134 L 15997,8005 16110,7948 16176,7911 16239,7878 16270,7865 16299,7855 16326,7848 16339,7847 16352,7846 16364,7847 16376,7848 16387,7852 16397,7856 16407,7862 16416,7870 16424,7879 16432,7890 16439,7903 16445,7918 16454,7953 16460,7997 16462,8049 15670,8507 15688,8426 15707,8356 15728,8294 15751,8241 15776,8195 15801,8156 15819,8134 15997,8134 Z M 15992,8129 L 15823,8129 15829,8122 15857,8094 15886,8070 15917,8049 15948,8030 15979,8014 15992,8007 15992,8129 Z"/>
      <path fill="rgb(131,131,131)" stroke="none" d="M 15992,8129 L 15992,8007 16110,7948 16176,7911 16239,7878 16270,7865 16299,7855 16326,7848 16339,7847 16352,7846 16364,7847 16376,7848 16387,7852 16397,7856 16407,7862 16416,7870 16424,7879 16432,7890 16439,7903 16445,7918 16454,7953 16460,7997 16462,8049 15670,8507 15688,8426 15707,8356 15728,8294 15751,8241 15776,8195 15801,8156 15823,8129 15992,8129 Z M 15987,8124 L 15827,8124 15829,8122 15857,8094 15886,8070 15917,8049 15948,8030 15979,8014 15987,8010 15987,8124 Z"/>
      <path fill="rgb(132,132,132)" stroke="none" d="M 15987,8124 L 15987,8010 16110,7948 16176,7911 16239,7878 16270,7865 16299,7855 16326,7848 16339,7847 16352,7846 16364,7847 16376,7848 16387,7852 16397,7856 16407,7862 16416,7870 16424,7879 16432,7890 16439,7903 16445,7918 16454,7953 16460,7997 16462,8049 15670,8507 15688,8426 15707,8356 15728,8294 15751,8241 15776,8195 15801,8156 15827,8124 15987,8124 Z M 15981,8118 L 15833,8118 15857,8094 15886,8070 15917,8049 15948,8030 15979,8014 15981,8013 15981,8118 Z"/>
      <path fill="rgb(133,133,133)" stroke="none" d="M 15981,8118 L 15981,8013 16110,7948 16176,7911 16239,7878 16270,7865 16299,7855 16326,7848 16339,7847 16352,7846 16364,7847 16376,7848 16387,7852 16397,7856 16407,7862 16416,7870 16424,7879 16432,7890 16439,7903 16445,7918 16454,7953 16460,7997 16462,8049 15670,8507 15688,8426 15707,8356 15728,8294 15751,8241 15776,8195 15801,8156 15829,8122 15833,8118 15981,8118 Z M 15976,8113 L 15838,8113 15857,8094 15886,8070 15917,8049 15948,8030 15976,8016 15976,8113 Z"/>
      <path fill="rgb(134,134,134)" stroke="none" d="M 15976,8113 L 15976,8016 15979,8014 16110,7948 16176,7911 16239,7878 16270,7865 16299,7855 16326,7848 16339,7847 16352,7846 16364,7847 16376,7848 16387,7852 16397,7856 16407,7862 16416,7870 16424,7879 16432,7890 16439,7903 16445,7918 16454,7953 16460,7997 16462,8049 15670,8507 15688,8426 15707,8356 15728,8294 15751,8241 15776,8195 15801,8156 15829,8122 15838,8113 15976,8113 Z M 15971,8108 L 15843,8108 15857,8094 15886,8070 15917,8049 15948,8030 15971,8018 15971,8108 Z"/>
      <path fill="rgb(136,136,136)" stroke="none" d="M 15971,8108 L 15971,8018 15979,8014 16110,7948 16176,7911 16239,7878 16270,7865 16299,7855 16326,7848 16339,7847 16352,7846 16364,7847 16376,7848 16387,7852 16397,7856 16407,7862 16416,7870 16424,7879 16432,7890 16439,7903 16445,7918 16454,7953 16460,7997 16462,8049 15670,8507 15688,8426 15707,8356 15728,8294 15751,8241 15776,8195 15801,8156 15829,8122 15843,8108 15971,8108 Z M 15966,8103 L 15848,8103 15857,8094 15886,8070 15917,8049 15948,8030 15966,8021 15966,8103 Z"/>
      <path fill="rgb(137,137,137)" stroke="none" d="M 15966,8103 L 15966,8021 15979,8014 16110,7948 16176,7911 16239,7878 16270,7865 16299,7855 16326,7848 16339,7847 16352,7846 16364,7847 16376,7848 16387,7852 16397,7856 16407,7862 16416,7870 16424,7879 16432,7890 16439,7903 16445,7918 16454,7953 16460,7997 16462,8049 15670,8507 15688,8426 15707,8356 15728,8294 15751,8241 15776,8195 15801,8156 15829,8122 15848,8103 15966,8103 Z M 15961,8098 L 15853,8098 15857,8094 15886,8070 15917,8049 15948,8030 15961,8023 15961,8098 Z"/>
      <path fill="rgb(138,138,138)" stroke="none" d="M 15961,8098 L 15961,8023 15979,8014 16110,7948 16176,7911 16239,7878 16270,7865 16299,7855 16326,7848 16339,7847 16352,7846 16364,7847 16376,7848 16387,7852 16397,7856 16407,7862 16416,7870 16424,7879 16432,7890 16439,7903 16445,7918 16454,7953 16460,7997 16462,8049 15670,8507 15688,8426 15707,8356 15728,8294 15751,8241 15776,8195 15801,8156 15829,8122 15853,8098 15961,8098 Z M 15956,8093 L 15858,8093 15886,8070 15917,8049 15948,8030 15956,8026 15956,8093 Z"/>
      <path fill="rgb(140,140,140)" stroke="none" d="M 15956,8093 L 15956,8026 15979,8014 16110,7948 16176,7911 16239,7878 16270,7865 16299,7855 16326,7848 16339,7847 16352,7846 16364,7847 16376,7848 16387,7852 16397,7856 16407,7862 16416,7870 16424,7879 16432,7890 16439,7903 16445,7918 16454,7953 16460,7997 16462,8049 15670,8507 15688,8426 15707,8356 15728,8294 15751,8241 15776,8195 15801,8156 15829,8122 15857,8094 15858,8093 15956,8093 Z M 15951,8088 L 15864,8088 15886,8070 15917,8049 15948,8030 15951,8028 15951,8088 Z"/>
      <path fill="rgb(141,141,141)" stroke="none" d="M 15951,8088 L 15951,8028 15979,8014 16110,7948 16176,7911 16239,7878 16270,7865 16299,7855 16326,7848 16339,7847 16352,7846 16364,7847 16376,7848 16387,7852 16397,7856 16407,7862 16416,7870 16424,7879 16432,7890 16439,7903 16445,7918 16454,7953 16460,7997 16462,8049 15670,8507 15688,8426 15707,8356 15728,8294 15751,8241 15776,8195 15801,8156 15829,8122 15857,8094 15864,8088 15951,8088 Z M 15946,8083 L 15870,8083 15886,8070 15917,8049 15946,8031 15946,8083 Z"/>
      <path fill="rgb(142,142,142)" stroke="none" d="M 15946,8083 L 15946,8031 15948,8030 15979,8014 16110,7948 16176,7911 16239,7878 16270,7865 16299,7855 16326,7848 16339,7847 16352,7846 16364,7847 16376,7848 16387,7852 16397,7856 16407,7862 16416,7870 16424,7879 16432,7890 16439,7903 16445,7918 16454,7953 16460,7997 16462,8049 15670,8507 15688,8426 15707,8356 15728,8294 15751,8241 15776,8195 15801,8156 15829,8122 15857,8094 15870,8083 15946,8083 Z M 15941,8078 L 15876,8078 15886,8070 15917,8049 15941,8034 15941,8078 Z"/>
      <path fill="rgb(143,143,143)" stroke="none" d="M 15941,8078 L 15941,8034 15948,8030 15979,8014 16110,7948 16176,7911 16239,7878 16270,7865 16299,7855 16326,7848 16339,7847 16352,7846 16364,7847 16376,7848 16387,7852 16397,7856 16407,7862 16416,7870 16424,7879 16432,7890 16439,7903 16445,7918 16454,7953 16460,7997 16462,8049 15670,8507 15688,8426 15707,8356 15728,8294 15751,8241 15776,8195 15801,8156 15829,8122 15857,8094 15876,8078 15941,8078 Z M 15936,8073 L 15882,8073 15886,8070 15917,8049 15936,8037 15936,8073 Z"/>
      <path fill="rgb(145,145,145)" stroke="none" d="M 15936,8073 L 15936,8037 15948,8030 15979,8014 16110,7948 16176,7911 16239,7878 16270,7865 16299,7855 16326,7848 16339,7847 16352,7846 16364,7847 16376,7848 16387,7852 16397,7856 16407,7862 16416,7870 16424,7879 16432,7890 16439,7903 16445,7918 16454,7953 16460,7997 16462,8049 15670,8507 15688,8426 15707,8356 15728,8294 15751,8241 15776,8195 15801,8156 15829,8122 15857,8094 15882,8073 15936,8073 Z M 15931,8068 L 15889,8068 15917,8049 15931,8040 15931,8068 Z"/>
      <path fill="rgb(146,146,146)" stroke="none" d="M 15931,8068 L 15931,8040 15948,8030 15979,8014 16110,7948 16176,7911 16239,7878 16270,7865 16299,7855 16326,7848 16339,7847 16352,7846 16364,7847 16376,7848 16387,7852 16397,7856 16407,7862 16416,7870 16424,7879 16432,7890 16439,7903 16445,7918 16454,7953 16460,7997 16462,8049 15670,8507 15688,8426 15707,8356 15728,8294 15751,8241 15776,8195 15801,8156 15829,8122 15857,8094 15886,8070 15889,8068 15931,8068 Z M 15926,8063 L 15896,8063 15917,8049 15926,8043 15926,8063 Z"/>
      <path fill="rgb(147,147,147)" stroke="none" d="M 15926,8063 L 15926,8043 15948,8030 15979,8014 16110,7948 16176,7911 16239,7878 16270,7865 16299,7855 16326,7848 16339,7847 16352,7846 16364,7847 16376,7848 16387,7852 16397,7856 16407,7862 16416,7870 16424,7879 16432,7890 16439,7903 16445,7918 16454,7953 16460,7997 16462,8049 15670,8507 15688,8426 15707,8356 15728,8294 15751,8241 15776,8195 15801,8156 15829,8122 15857,8094 15886,8070 15896,8063 15926,8063 Z M 15921,8058 L 15904,8058 15917,8049 15921,8047 15921,8058 Z"/>
      <path fill="rgb(149,149,149)" stroke="none" d="M 15921,8058 L 15921,8047 15948,8030 15979,8014 16110,7948 16176,7911 16239,7878 16270,7865 16299,7855 16326,7848 16339,7847 16352,7846 16364,7847 16376,7848 16387,7852 16397,7856 16407,7862 16416,7870 16424,7879 16432,7890 16439,7903 16445,7918 16454,7953 16460,7997 16462,8049 15670,8507 15688,8426 15707,8356 15728,8294 15751,8241 15776,8195 15801,8156 15829,8122 15857,8094 15886,8070 15904,8058 15921,8058 Z M 15916,8053 L 15911,8053 15916,8050 15916,8053 Z"/>
      <path fill="rgb(150,150,150)" stroke="none" d="M 15916,8053 L 15916,8050 15917,8049 15948,8030 15979,8014 16110,7948 16176,7911 16239,7878 16270,7865 16299,7855 16326,7848 16339,7847 16352,7846 16364,7847 16376,7848 16387,7852 16397,7856 16407,7862 16416,7870 16424,7879 16432,7890 16439,7903 16445,7918 16454,7953 16460,7997 16462,8049 15670,8507 15688,8426 15707,8356 15728,8294 15751,8241 15776,8195 15801,8156 15829,8122 15857,8094 15886,8070 15911,8053 15916,8053 Z"/>
      <path fill="rgb(153,153,153)" stroke="none" d="M 16462,8049 L 15670,8507 15688,8426 15707,8356 15728,8294 15751,8241 15776,8195 15801,8156 15829,8122 15857,8094 15886,8070 15917,8049 15948,8030 15979,8014 16110,7948 16176,7911 16239,7878 16270,7865 16299,7855 16326,7848 16339,7847 16352,7846 16364,7847 16376,7848 16387,7852 16397,7856 16407,7862 16416,7870 16424,7879 16432,7890 16439,7903 16445,7918 16454,7953 16460,7997 16462,8049 Z"/>
      <path fill="none" stroke="rgb(178,178,178)" id="Drawing_4_0" stroke-width="40" stroke-linejoin="round" d="M 16462,8049 C 16462,7744 16286,7846 16110,7948 15934,8049 15758,8049 15670,8507 15670,8507 16022,8304 16462,8049 Z"/>
     </g>
     <g>
      <path fill="none" stroke="rgb(0,0,0)" id="Drawing_5_0" stroke-width="40" stroke-linejoin="round" d="M 16022,7643 C 15846,7694 15846,7694 15670,7796 15582,7846 15406,7897 15318,8304 15494,8406 15494,8406 15670,8508 15771,8461 16286,8152 16462,8050 16462,7796 16286,7796 16022,7643 Z"/>
     </g>
    </g>
   </g>
   <g id="DrawingGroup_4">
    <g>
     <path fill="rgb(221,221,221)" stroke="none" d="M 14884,6677 C 15125,6677 16462,6626 16462,6168 16462,5710 16002,5456 15761,5456 15761,5609 14796,5558 14884,6677 Z"/>
     <path fill="none" stroke="rgb(221,221,221)" id="Drawing_6_0" stroke-width="40" stroke-linejoin="round" d="M 14884,6677 C 15125,6677 16462,6626 16462,6168 16462,5710 16002,5456 15761,5456 15761,5609 14796,5558 14884,6677 Z"/>
    </g>
    <g id="DrawingGroup_5">
     <g>
      <defs>
       <linearGradient id="Gradient_71" gradientUnits="userSpaceOnUse" x1="13997" y1="6320" x2="14879" y2="6322">
        <stop offset="0.1" stop-color="rgb(51,51,51)"/>
        <stop offset="1" stop-color="rgb(153,153,153)"/>
       </linearGradient>
      </defs>
      <path fill="url(#Gradient_71)" stroke="rgb(178,178,178)" id="Drawing_7_0" stroke-width="40" stroke-linejoin="round" d="M 13998,6168 L 13998,5965 14878,6474 14878,6677 13998,6168 Z"/>
     </g>
     <g>
      <defs>
       <linearGradient id="Gradient_72" gradientUnits="userSpaceOnUse" x1="14701" y1="5633" x2="15583" y2="5635">
        <stop offset="0.1" stop-color="rgb(51,51,51)"/>
        <stop offset="1" stop-color="rgb(153,153,153)"/>
       </linearGradient>
      </defs>
      <path fill="url(#Gradient_72)" stroke="rgb(178,178,178)" id="Drawing_8_0" stroke-width="40" stroke-linejoin="round" d="M 14702,5558 L 14702,5202 15582,5711 15582,6067 14702,5558 Z"/>
     </g>
     <g>
      <defs>
       <linearGradient id="Gradient_73" gradientUnits="userSpaceOnUse" x1="14790" y1="5558" x2="14790" y2="6473">
        <stop offset="0.1" stop-color="rgb(51,51,51)"/>
        <stop offset="1" stop-color="rgb(153,153,153)"/>
       </linearGradient>
      </defs>
      <path fill="url(#Gradient_73)" stroke="rgb(178,178,178)" id="Drawing_9_0" stroke-width="40" stroke-linejoin="round" d="M 13998,5965 L 14702,5558 15582,6067 14878,6473 13998,5965 Z"/>
     </g>
     <g>
      <path fill="rgb(51,51,51)" stroke="none" d="M 15571,6276 L 15182,6501 14878,6501 14878,6473 15571,6072 15571,6276 Z"/>
      <path fill="rgb(53,53,53)" stroke="none" d="M 15182,6501 L 14878,6677 14878,6501 15182,6501 Z M 15571,6072 L 15582,6066 15582,5812 15758,5914 15758,6168 15571,6276 15571,6072 Z M 15561,6282 L 15200,6491 14878,6491 14878,6473 15561,6078 15561,6282 Z"/>
      <path fill="rgb(55,55,55)" stroke="none" d="M 15200,6491 L 14878,6677 14878,6491 15200,6491 Z M 15561,6078 L 15582,6066 15582,5812 15758,5914 15758,6168 15561,6282 15561,6078 Z M 15551,6288 L 15217,6481 14878,6481 14878,6473 15551,6084 15551,6288 Z"/>
      <path fill="rgb(57,57,57)" stroke="none" d="M 15217,6481 L 14878,6677 14878,6481 15217,6481 Z M 15551,6084 L 15582,6066 15582,5812 15758,5914 15758,6168 15551,6288 15551,6084 Z M 15541,6294 L 15234,6471 14881,6471 15541,6090 15541,6294 Z"/>
      <path fill="rgb(60,60,60)" stroke="none" d="M 15234,6471 L 14878,6677 14878,6473 14881,6471 15234,6471 Z M 15541,6090 L 15582,6066 15582,5812 15758,5914 15758,6168 15541,6294 15541,6090 Z M 15531,6299 L 15251,6461 14899,6461 15531,6095 15531,6299 Z"/>
      <path fill="rgb(62,62,62)" stroke="none" d="M 15251,6461 L 14878,6677 14878,6473 14899,6461 15251,6461 Z M 15531,6095 L 15582,6066 15582,5812 15758,5914 15758,6168 15531,6299 15531,6095 Z M 15521,6305 L 15269,6451 14916,6451 15521,6101 15521,6305 Z"/>
      <path fill="rgb(64,64,64)" stroke="none" d="M 15269,6451 L 14878,6677 14878,6473 14916,6451 15269,6451 Z M 15521,6101 L 15582,6066 15582,5812 15758,5914 15758,6168 15521,6305 15521,6101 Z M 15511,6311 L 15286,6441 14933,6441 15511,6107 15511,6311 Z"/>
      <path fill="rgb(67,67,67)" stroke="none" d="M 15286,6441 L 14878,6677 14878,6473 14933,6441 15286,6441 Z M 15511,6107 L 15582,6066 15582,5812 15758,5914 15758,6168 15511,6311 15511,6107 Z M 15501,6317 L 15303,6431 14951,6431 15501,6113 15501,6317 Z"/>
      <path fill="rgb(69,69,69)" stroke="none" d="M 15303,6431 L 14878,6677 14878,6473 14951,6431 15303,6431 Z M 15501,6113 L 15582,6066 15582,5812 15758,5914 15758,6168 15501,6317 15501,6113 Z M 15491,6322 L 15321,6421 14968,6421 15491,6119 15491,6322 Z"/>
      <path fill="rgb(71,71,71)" stroke="none" d="M 15321,6421 L 14878,6677 14878,6473 14968,6421 15321,6421 Z M 15491,6119 L 15582,6066 15582,5812 15758,5914 15758,6168 15491,6322 15491,6119 Z M 15481,6328 L 15338,6411 14985,6411 15481,6124 15481,6328 Z"/>
      <path fill="rgb(74,74,74)" stroke="none" d="M 15338,6411 L 14878,6677 14878,6473 14985,6411 15338,6411 Z M 15481,6124 L 15582,6066 15582,5812 15758,5914 15758,6168 15481,6328 15481,6124 Z M 15471,6334 L 15355,6401 15003,6401 15471,6130 15471,6334 Z"/>
      <path fill="rgb(76,76,76)" stroke="none" d="M 15355,6401 L 14878,6677 14878,6473 15003,6401 15355,6401 Z M 15471,6130 L 15582,6066 15582,5812 15758,5914 15758,6168 15471,6334 15471,6130 Z M 15461,6340 L 15372,6391 15020,6391 15461,6136 15461,6340 Z"/>
      <path fill="rgb(78,78,78)" stroke="none" d="M 15372,6391 L 14878,6677 14878,6473 15020,6391 15372,6391 Z M 15461,6136 L 15582,6066 15582,5812 15758,5914 15758,6168 15461,6340 15461,6136 Z M 15451,6346 L 15390,6381 15037,6381 15451,6142 15451,6346 Z"/>
      <path fill="rgb(81,81,81)" stroke="none" d="M 15390,6381 L 14878,6677 14878,6473 15037,6381 15390,6381 Z M 15451,6142 L 15582,6066 15582,5812 15758,5914 15758,6168 15451,6346 15451,6142 Z M 15441,6351 L 15407,6371 15054,6371 15441,6148 15441,6351 Z"/>
      <path fill="rgb(83,83,83)" stroke="none" d="M 15407,6371 L 14878,6677 14878,6473 15054,6371 15407,6371 Z M 15441,6148 L 15582,6066 15582,5812 15758,5914 15758,6168 15441,6351 15441,6148 Z M 15431,6357 L 15424,6361 15072,6361 15431,6153 15431,6357 Z"/>
      <path fill="rgb(85,85,85)" stroke="none" d="M 15424,6361 L 14878,6677 14878,6473 15072,6361 15424,6361 Z M 15431,6153 L 15582,6066 15582,5812 15758,5914 15758,6168 15431,6357 15431,6153 Z M 15421,6351 L 15089,6351 15421,6159 15421,6351 Z"/>
      <path fill="rgb(88,88,88)" stroke="none" d="M 15421,6351 L 15421,6159 15582,6066 15582,5812 15758,5914 15758,6168 14878,6677 14878,6473 15089,6351 15421,6351 Z M 15411,6341 L 15106,6341 15411,6165 15411,6341 Z"/>
      <path fill="rgb(90,90,90)" stroke="none" d="M 15411,6341 L 15411,6165 15582,6066 15582,5812 15758,5914 15758,6168 14878,6677 14878,6473 15106,6341 15411,6341 Z M 15401,6331 L 15124,6331 15401,6171 15401,6331 Z"/>
      <path fill="rgb(92,92,92)" stroke="none" d="M 15401,6331 L 15401,6171 15582,6066 15582,5812 15758,5914 15758,6168 14878,6677 14878,6473 15124,6331 15401,6331 Z M 15391,6321 L 15141,6321 15391,6176 15391,6321 Z"/>
      <path fill="rgb(95,95,95)" stroke="none" d="M 15391,6321 L 15391,6176 15582,6066 15582,5812 15758,5914 15758,6168 14878,6677 14878,6473 15141,6321 15391,6321 Z M 15381,6311 L 15158,6311 15381,6182 15381,6311 Z"/>
      <path fill="rgb(97,97,97)" stroke="none" d="M 15381,6311 L 15381,6182 15582,6066 15582,5812 15758,5914 15758,6168 14878,6677 14878,6473 15158,6311 15381,6311 Z M 15371,6301 L 15176,6301 15371,6188 15371,6301 Z"/>
      <path fill="rgb(99,99,99)" stroke="none" d="M 15371,6301 L 15371,6188 15582,6066 15582,5812 15758,5914 15758,6168 14878,6677 14878,6473 15176,6301 15371,6301 Z M 15361,6291 L 15193,6291 15361,6194 15361,6291 Z"/>
      <path fill="rgb(102,102,102)" stroke="none" d="M 15361,6291 L 15361,6194 15582,6066 15582,5812 15758,5914 15758,6168 14878,6677 14878,6473 15193,6291 15361,6291 Z M 15351,6281 L 15210,6281 15351,6200 15351,6281 Z"/>
      <path fill="rgb(104,104,104)" stroke="none" d="M 15351,6281 L 15351,6200 15582,6066 15582,5812 15758,5914 15758,6168 14878,6677 14878,6473 15210,6281 15351,6281 Z M 15341,6271 L 15227,6271 15341,6205 15341,6271 Z"/>
      <path fill="rgb(106,106,106)" stroke="none" d="M 15341,6271 L 15341,6205 15582,6066 15582,5812 15758,5914 15758,6168 14878,6677 14878,6473 15227,6271 15341,6271 Z M 15331,6261 L 15245,6261 15331,6211 15331,6261 Z"/>
      <path fill="rgb(108,108,108)" stroke="none" d="M 15331,6261 L 15331,6211 15582,6066 15582,5812 15758,5914 15758,6168 14878,6677 14878,6473 15245,6261 15331,6261 Z M 15321,6251 L 15262,6251 15321,6217 15321,6251 Z"/>
      <path fill="rgb(111,111,111)" stroke="none" d="M 15321,6251 L 15321,6217 15582,6066 15582,5812 15758,5914 15758,6168 14878,6677 14878,6473 15262,6251 15321,6251 Z M 15311,6241 L 15279,6241 15311,6223 15311,6241 Z"/>
      <path fill="rgb(113,113,113)" stroke="none" d="M 15311,6241 L 15311,6223 15582,6066 15582,5812 15758,5914 15758,6168 14878,6677 14878,6473 15279,6241 15311,6241 Z M 15301,6231 L 15297,6231 15301,6228 15301,6231 Z"/>
      <path fill="rgb(115,115,115)" stroke="none" d="M 15301,6231 L 15301,6228 15582,6066 15582,5812 15758,5914 15758,6168 14878,6677 14878,6473 15297,6231 15301,6231 Z"/>
      <path fill="rgb(118,118,118)" stroke="none" d="M 14878,6677 L 14878,6473 15582,6066 15582,5812 15758,5914 15758,6168 14878,6677 Z"/>
      <path fill="rgb(120,120,120)" stroke="none" d="M 14878,6677 L 14878,6473 15582,6066 15582,5812 15758,5914 15758,6168 14878,6677 Z"/>
      <path fill="rgb(122,122,122)" stroke="none" d="M 14878,6677 L 14878,6473 15582,6066 15582,5812 15758,5914 15758,6168 14878,6677 Z"/>
      <path fill="rgb(125,125,125)" stroke="none" d="M 14878,6677 L 14878,6473 15582,6066 15582,5812 15758,5914 15758,6168 14878,6677 Z"/>
      <path fill="rgb(127,127,127)" stroke="none" d="M 14878,6677 L 14878,6473 15582,6066 15582,5812 15758,5914 15758,6168 14878,6677 Z"/>
      <path fill="rgb(129,129,129)" stroke="none" d="M 14878,6677 L 14878,6473 15582,6066 15582,5812 15758,5914 15758,6168 14878,6677 Z"/>
      <path fill="rgb(132,132,132)" stroke="none" d="M 14878,6677 L 14878,6473 15582,6066 15582,5812 15758,5914 15758,6168 14878,6677 Z"/>
      <path fill="rgb(134,134,134)" stroke="none" d="M 14878,6677 L 14878,6473 15582,6066 15582,5812 15758,5914 15758,6168 14878,6677 Z"/>
      <path fill="rgb(136,136,136)" stroke="none" d="M 14878,6677 L 14878,6473 15582,6066 15582,5812 15758,5914 15758,6168 14878,6677 Z"/>
      <path fill="rgb(139,139,139)" stroke="none" d="M 14878,6677 L 14878,6473 15582,6066 15582,5812 15758,5914 15758,6168 14878,6677 Z"/>
      <path fill="rgb(141,141,141)" stroke="none" d="M 14878,6677 L 14878,6473 15582,6066 15582,5812 15758,5914 15758,6168 14878,6677 Z"/>
      <path fill="rgb(143,143,143)" stroke="none" d="M 14878,6677 L 14878,6473 15582,6066 15582,5812 15758,5914 15758,6168 14878,6677 Z"/>
      <path fill="rgb(146,146,146)" stroke="none" d="M 14878,6677 L 14878,6473 15582,6066 15582,5812 15758,5914 15758,6168 14878,6677 Z"/>
      <path fill="rgb(148,148,148)" stroke="none" d="M 14878,6677 L 14878,6473 15582,6066 15582,5812 15758,5914 15758,6168 14878,6677 Z"/>
      <path fill="rgb(153,153,153)" stroke="none" d="M 14878,6677 L 14878,6473 15582,6066 15582,5812 15758,5914 15758,6168 14878,6677 Z"/>
      <path fill="none" stroke="rgb(178,178,178)" id="Drawing_10_0" stroke-width="40" stroke-linejoin="round" d="M 14878,6677 L 14878,6473 15582,6066 15582,5812 15758,5914 15758,6168 14878,6677 Z"/>
     </g>
     <g>
      <defs>
       <linearGradient id="Gradient_74" gradientUnits="userSpaceOnUse" x1="13027" y1="4030" x2="15848" y2="4034">
        <stop offset="0.1" stop-color="rgb(51,51,51)"/>
        <stop offset="1" stop-color="rgb(153,153,153)"/>
       </linearGradient>
      </defs>
      <path fill="url(#Gradient_74)" stroke="rgb(178,178,178)" id="Drawing_11_0" stroke-width="40" stroke-linejoin="round" d="M 13031,4338 L 13031,2100 15846,3727 15846,5965 13031,4338 Z"/>
     </g>
     <g>
      <defs>
       <linearGradient id="Gradient_75" gradientUnits="userSpaceOnUse" x1="13115" y1="4030" x2="15760" y2="4034">
        <stop offset="0.1" stop-color="rgb(147,212,240)"/>
        <stop offset="1" stop-color="rgb(233,246,252)"/>
       </linearGradient>
      </defs>
      <path fill="url(#Gradient_75)" stroke="rgb(102,102,102)" id="Drawing_12_0" stroke-width="40" stroke-linejoin="round" d="M 13119,4286 L 13119,2252 15758,3778 15758,5812 13119,4286 Z"/>
     </g>
     <g>
      <defs>
       <linearGradient id="Gradient_76" gradientUnits="userSpaceOnUse" x1="14526" y1="1998" x2="14526" y2="3727">
        <stop offset="0.1" stop-color="rgb(51,51,51)"/>
        <stop offset="1" stop-color="rgb(153,153,153)"/>
       </linearGradient>
      </defs>
      <path fill="url(#Gradient_76)" stroke="rgb(178,178,178)" id="Drawing_13_0" stroke-width="40" stroke-linejoin="round" d="M 15846,3727 L 13031,2100 13207,1998 16022,3625 15846,3727 Z"/>
     </g>
     <g>
      <path fill="rgb(51,51,51)" stroke="none" d="M 15846,5484 L 15846,3727 16022,3625 16022,5484 15846,5484 Z"/>
      <path fill="rgb(52,52,52)" stroke="none" d="M 16022,5484 L 16022,5863 15846,5964 15846,5484 16022,5484 Z M 15846,5473 L 15846,3727 16022,3625 16022,5473 15846,5473 Z"/>
      <path fill="rgb(53,53,53)" stroke="none" d="M 16022,5473 L 16022,5863 15846,5964 15846,5473 16022,5473 Z M 15846,5461 L 15846,3727 16022,3625 16022,5461 15846,5461 Z"/>
      <path fill="rgb(54,54,54)" stroke="none" d="M 16022,5461 L 16022,5863 15846,5964 15846,5461 16022,5461 Z M 15846,5450 L 15846,3727 16022,3625 16022,5450 15846,5450 Z"/>
      <path fill="rgb(55,55,55)" stroke="none" d="M 16022,5450 L 16022,5863 15846,5964 15846,5450 16022,5450 Z M 15846,5438 L 15846,3727 16022,3625 16022,5438 15846,5438 Z"/>
      <path fill="rgb(56,56,56)" stroke="none" d="M 16022,5438 L 16022,5863 15846,5964 15846,5438 16022,5438 Z M 15846,5427 L 15846,3727 16022,3625 16022,5427 15846,5427 Z"/>
      <path fill="rgb(57,57,57)" stroke="none" d="M 16022,5427 L 16022,5863 15846,5964 15846,5427 16022,5427 Z M 15846,5415 L 15846,3727 16022,3625 16022,5415 15846,5415 Z"/>
      <path fill="rgb(58,58,58)" stroke="none" d="M 16022,5415 L 16022,5863 15846,5964 15846,5415 16022,5415 Z M 15846,5404 L 15846,3727 16022,3625 16022,5404 15846,5404 Z"/>
      <path fill="rgb(59,59,59)" stroke="none" d="M 16022,5404 L 16022,5863 15846,5964 15846,5404 16022,5404 Z M 15846,5392 L 15846,3727 16022,3625 16022,5392 15846,5392 Z"/>
      <path fill="rgb(60,60,60)" stroke="none" d="M 16022,5392 L 16022,5863 15846,5964 15846,5392 16022,5392 Z M 15846,5381 L 15846,3727 16022,3625 16022,5381 15846,5381 Z"/>
      <path fill="rgb(61,61,61)" stroke="none" d="M 16022,5381 L 16022,5863 15846,5964 15846,5381 16022,5381 Z M 15846,5369 L 15846,3727 16022,3625 16022,5369 15846,5369 Z"/>
      <path fill="rgb(62,62,62)" stroke="none" d="M 16022,5369 L 16022,5863 15846,5964 15846,5369 16022,5369 Z M 15846,5358 L 15846,3727 16022,3625 16022,5358 15846,5358 Z"/>
      <path fill="rgb(63,63,63)" stroke="none" d="M 16022,5358 L 16022,5863 15846,5964 15846,5358 16022,5358 Z M 15846,5346 L 15846,3727 16022,3625 16022,5346 15846,5346 Z"/>
      <path fill="rgb(64,64,64)" stroke="none" d="M 16022,5346 L 16022,5863 15846,5964 15846,5346 16022,5346 Z M 15846,5335 L 15846,3727 16022,3625 16022,5335 15846,5335 Z"/>
      <path fill="rgb(65,65,65)" stroke="none" d="M 16022,5335 L 16022,5863 15846,5964 15846,5335 16022,5335 Z M 15846,5323 L 15846,3727 16022,3625 16022,5323 15846,5323 Z"/>
      <path fill="rgb(66,66,66)" stroke="none" d="M 16022,5323 L 16022,5863 15846,5964 15846,5323 16022,5323 Z M 15846,5312 L 15846,3727 16022,3625 16022,5312 15846,5312 Z"/>
      <path fill="rgb(67,67,67)" stroke="none" d="M 16022,5312 L 16022,5863 15846,5964 15846,5312 16022,5312 Z M 15846,5300 L 15846,3727 16022,3625 16022,5300 15846,5300 Z"/>
      <path fill="rgb(68,68,68)" stroke="none" d="M 16022,5300 L 16022,5863 15846,5964 15846,5300 16022,5300 Z M 15846,5289 L 15846,3727 16022,3625 16022,5289 15846,5289 Z"/>
      <path fill="rgb(69,69,69)" stroke="none" d="M 16022,5289 L 16022,5863 15846,5964 15846,5289 16022,5289 Z M 15846,5277 L 15846,3727 16022,3625 16022,5277 15846,5277 Z"/>
      <path fill="rgb(70,70,70)" stroke="none" d="M 16022,5277 L 16022,5863 15846,5964 15846,5277 16022,5277 Z M 15846,5266 L 15846,3727 16022,3625 16022,5266 15846,5266 Z"/>
      <path fill="rgb(71,71,71)" stroke="none" d="M 16022,5266 L 16022,5863 15846,5964 15846,5266 16022,5266 Z M 15846,5254 L 15846,3727 16022,3625 16022,5254 15846,5254 Z"/>
      <path fill="rgb(72,72,72)" stroke="none" d="M 16022,5254 L 16022,5863 15846,5964 15846,5254 16022,5254 Z M 15846,5243 L 15846,3727 16022,3625 16022,5243 15846,5243 Z"/>
      <path fill="rgb(73,73,73)" stroke="none" d="M 16022,5243 L 16022,5863 15846,5964 15846,5243 16022,5243 Z M 15846,5231 L 15846,3727 16022,3625 16022,5231 15846,5231 Z"/>
      <path fill="rgb(74,74,74)" stroke="none" d="M 16022,5231 L 16022,5863 15846,5964 15846,5231 16022,5231 Z M 15846,5220 L 15846,3727 16022,3625 16022,5220 15846,5220 Z"/>
      <path fill="rgb(75,75,75)" stroke="none" d="M 16022,5220 L 16022,5863 15846,5964 15846,5220 16022,5220 Z M 15846,5208 L 15846,3727 16022,3625 16022,5208 15846,5208 Z"/>
      <path fill="rgb(76,76,76)" stroke="none" d="M 16022,5208 L 16022,5863 15846,5964 15846,5208 16022,5208 Z M 15846,5197 L 15846,3727 16022,3625 16022,5197 15846,5197 Z"/>
      <path fill="rgb(77,77,77)" stroke="none" d="M 16022,5197 L 16022,5863 15846,5964 15846,5197 16022,5197 Z M 15846,5186 L 15846,3727 16022,3625 16022,5186 15846,5186 Z"/>
      <path fill="rgb(78,78,78)" stroke="none" d="M 16022,5186 L 16022,5863 15846,5964 15846,5186 16022,5186 Z M 15846,5174 L 15846,3727 16022,3625 16022,5174 15846,5174 Z"/>
      <path fill="rgb(79,79,79)" stroke="none" d="M 16022,5174 L 16022,5863 15846,5964 15846,5174 16022,5174 Z M 15846,5163 L 15846,3727 16022,3625 16022,5163 15846,5163 Z"/>
      <path fill="rgb(80,80,80)" stroke="none" d="M 16022,5163 L 16022,5863 15846,5964 15846,5163 16022,5163 Z M 15846,5151 L 15846,3727 16022,3625 16022,5151 15846,5151 Z"/>
      <path fill="rgb(81,81,81)" stroke="none" d="M 16022,5151 L 16022,5863 15846,5964 15846,5151 16022,5151 Z M 15846,5140 L 15846,3727 16022,3625 16022,5140 15846,5140 Z"/>
      <path fill="rgb(82,82,82)" stroke="none" d="M 16022,5140 L 16022,5863 15846,5964 15846,5140 16022,5140 Z M 15846,5128 L 15846,3727 16022,3625 16022,5128 15846,5128 Z"/>
      <path fill="rgb(83,83,83)" stroke="none" d="M 16022,5128 L 16022,5863 15846,5964 15846,5128 16022,5128 Z M 15846,5117 L 15846,3727 16022,3625 16022,5117 15846,5117 Z"/>
      <path fill="rgb(84,84,84)" stroke="none" d="M 16022,5117 L 16022,5863 15846,5964 15846,5117 16022,5117 Z M 15846,5105 L 15846,3727 16022,3625 16022,5105 15846,5105 Z"/>
      <path fill="rgb(85,85,85)" stroke="none" d="M 16022,5105 L 16022,5863 15846,5964 15846,5105 16022,5105 Z M 15846,5094 L 15846,3727 16022,3625 16022,5094 15846,5094 Z"/>
      <path fill="rgb(86,86,86)" stroke="none" d="M 16022,5094 L 16022,5863 15846,5964 15846,5094 16022,5094 Z M 15846,5082 L 15846,3727 16022,3625 16022,5082 15846,5082 Z"/>
      <path fill="rgb(87,87,87)" stroke="none" d="M 16022,5082 L 16022,5863 15846,5964 15846,5082 16022,5082 Z M 15846,5071 L 15846,3727 16022,3625 16022,5071 15846,5071 Z"/>
      <path fill="rgb(88,88,88)" stroke="none" d="M 16022,5071 L 16022,5863 15846,5964 15846,5071 16022,5071 Z M 15846,5059 L 15846,3727 16022,3625 16022,5059 15846,5059 Z"/>
      <path fill="rgb(89,89,89)" stroke="none" d="M 16022,5059 L 16022,5863 15846,5964 15846,5059 16022,5059 Z M 15846,5048 L 15846,3727 16022,3625 16022,5048 15846,5048 Z"/>
      <path fill="rgb(90,90,90)" stroke="none" d="M 16022,5048 L 16022,5863 15846,5964 15846,5048 16022,5048 Z M 15846,5036 L 15846,3727 16022,3625 16022,5036 15846,5036 Z"/>
      <path fill="rgb(91,91,91)" stroke="none" d="M 16022,5036 L 16022,5863 15846,5964 15846,5036 16022,5036 Z M 15846,5025 L 15846,3727 16022,3625 16022,5025 15846,5025 Z"/>
      <path fill="rgb(92,92,92)" stroke="none" d="M 16022,5025 L 16022,5863 15846,5964 15846,5025 16022,5025 Z M 16022,3637 L 16022,5013 15846,5013 15846,3727 16001,3637 16022,3637 Z"/>
      <path fill="rgb(93,93,93)" stroke="none" d="M 16022,5013 L 16022,5863 15846,5964 15846,5013 16022,5013 Z M 16001,3637 L 16022,3625 16022,3637 16001,3637 Z M 16022,3648 L 16022,5002 15846,5002 15846,3727 15982,3648 16022,3648 Z"/>
      <path fill="rgb(94,94,94)" stroke="none" d="M 16022,5002 L 16022,5863 15846,5964 15846,5002 16022,5002 Z M 15982,3648 L 16022,3625 16022,3648 15982,3648 Z M 16022,3660 L 16022,4990 15846,4990 15846,3727 15962,3660 16022,3660 Z"/>
      <path fill="rgb(95,95,95)" stroke="none" d="M 16022,4990 L 16022,5863 15846,5964 15846,4990 16022,4990 Z M 15962,3660 L 16022,3625 16022,3660 15962,3660 Z M 16022,3671 L 16022,4979 15846,4979 15846,3727 15943,3671 16022,3671 Z"/>
      <path fill="rgb(96,96,96)" stroke="none" d="M 16022,4979 L 16022,5863 15846,5964 15846,4979 16022,4979 Z M 15943,3671 L 16022,3625 16022,3671 15943,3671 Z M 16022,3683 L 16022,4967 15846,4967 15846,3727 15922,3683 16022,3683 Z"/>
      <path fill="rgb(97,97,97)" stroke="none" d="M 16022,4967 L 16022,5863 15846,5964 15846,4967 16022,4967 Z M 15922,3683 L 16022,3625 16022,3683 15922,3683 Z M 16022,3694 L 16022,4956 15846,4956 15846,3727 15903,3694 16022,3694 Z"/>
      <path fill="rgb(98,98,98)" stroke="none" d="M 16022,4956 L 16022,5863 15846,5964 15846,4956 16022,4956 Z M 15903,3694 L 16022,3625 16022,3694 15903,3694 Z M 16022,3706 L 16022,4944 15846,4944 15846,3727 15882,3706 16022,3706 Z"/>
      <path fill="rgb(99,99,99)" stroke="none" d="M 16022,4944 L 16022,5863 15846,5964 15846,4944 16022,4944 Z M 15882,3706 L 16022,3625 16022,3706 15882,3706 Z M 16022,3717 L 16022,4933 15846,4933 15846,3727 15863,3717 16022,3717 Z"/>
      <path fill="rgb(100,100,100)" stroke="none" d="M 16022,4933 L 16022,5863 15846,5964 15846,4933 16022,4933 Z M 15863,3717 L 16022,3625 16022,3717 15863,3717 Z M 16022,3729 L 16022,4921 15846,4921 15846,3729 16022,3729 Z"/>
      <path fill="rgb(101,101,101)" stroke="none" d="M 16022,4921 L 16022,5863 15846,5964 15846,4921 16022,4921 Z M 15846,3729 L 15846,3727 16022,3625 16022,3729 15846,3729 Z M 16022,3740 L 16022,4910 15846,4910 15846,3740 16022,3740 Z"/>
      <path fill="rgb(102,102,102)" stroke="none" d="M 16022,4910 L 16022,5863 15846,5964 15846,4910 16022,4910 Z M 15846,3740 L 15846,3727 16022,3625 16022,3740 15846,3740 Z M 16022,3751 L 16022,4899 15846,4899 15846,3751 16022,3751 Z"/>
      <path fill="rgb(103,103,103)" stroke="none" d="M 16022,4899 L 16022,5863 15846,5964 15846,4899 16022,4899 Z M 15846,3751 L 15846,3727 16022,3625 16022,3751 15846,3751 Z M 16022,3763 L 16022,4887 15846,4887 15846,3763 16022,3763 Z"/>
      <path fill="rgb(104,104,104)" stroke="none" d="M 16022,4887 L 16022,5863 15846,5964 15846,4887 16022,4887 Z M 15846,3763 L 15846,3727 16022,3625 16022,3763 15846,3763 Z M 16022,3774 L 16022,4876 15846,4876 15846,3774 16022,3774 Z"/>
      <path fill="rgb(105,105,105)" stroke="none" d="M 16022,4876 L 16022,5863 15846,5964 15846,4876 16022,4876 Z M 15846,3774 L 15846,3727 16022,3625 16022,3774 15846,3774 Z M 16022,3786 L 16022,4864 15846,4864 15846,3786 16022,3786 Z"/>
      <path fill="rgb(106,106,106)" stroke="none" d="M 16022,4864 L 16022,5863 15846,5964 15846,4864 16022,4864 Z M 15846,3786 L 15846,3727 16022,3625 16022,3786 15846,3786 Z M 16022,3797 L 16022,4853 15846,4853 15846,3797 16022,3797 Z"/>
      <path fill="rgb(107,107,107)" stroke="none" d="M 16022,4853 L 16022,5863 15846,5964 15846,4853 16022,4853 Z M 15846,3797 L 15846,3727 16022,3625 16022,3797 15846,3797 Z M 16022,3809 L 16022,4841 15846,4841 15846,3809 16022,3809 Z"/>
      <path fill="rgb(108,108,108)" stroke="none" d="M 16022,4841 L 16022,5863 15846,5964 15846,4841 16022,4841 Z M 15846,3809 L 15846,3727 16022,3625 16022,3809 15846,3809 Z M 16022,3820 L 16022,4830 15846,4830 15846,3820 16022,3820 Z"/>
      <path fill="rgb(109,109,109)" stroke="none" d="M 16022,4830 L 16022,5863 15846,5964 15846,4830 16022,4830 Z M 15846,3820 L 15846,3727 16022,3625 16022,3820 15846,3820 Z M 16022,3832 L 16022,4818 15846,4818 15846,3832 16022,3832 Z"/>
      <path fill="rgb(110,110,110)" stroke="none" d="M 16022,4818 L 16022,5863 15846,5964 15846,4818 16022,4818 Z M 15846,3832 L 15846,3727 16022,3625 16022,3832 15846,3832 Z M 16022,3843 L 16022,4807 15846,4807 15846,3843 16022,3843 Z"/>
      <path fill="rgb(111,111,111)" stroke="none" d="M 16022,4807 L 16022,5863 15846,5964 15846,4807 16022,4807 Z M 15846,3843 L 15846,3727 16022,3625 16022,3843 15846,3843 Z M 16022,3855 L 16022,4795 15846,4795 15846,3855 16022,3855 Z"/>
      <path fill="rgb(112,112,112)" stroke="none" d="M 16022,4795 L 16022,5863 15846,5964 15846,4795 16022,4795 Z M 15846,3855 L 15846,3727 16022,3625 16022,3855 15846,3855 Z M 16022,3866 L 16022,4784 15846,4784 15846,3866 16022,3866 Z"/>
      <path fill="rgb(113,113,113)" stroke="none" d="M 16022,4784 L 16022,5863 15846,5964 15846,4784 16022,4784 Z M 15846,3866 L 15846,3727 16022,3625 16022,3866 15846,3866 Z M 16022,3878 L 16022,4772 15846,4772 15846,3878 16022,3878 Z"/>
      <path fill="rgb(114,114,114)" stroke="none" d="M 16022,4772 L 16022,5863 15846,5964 15846,4772 16022,4772 Z M 15846,3878 L 15846,3727 16022,3625 16022,3878 15846,3878 Z M 16022,3889 L 16022,4761 15846,4761 15846,3889 16022,3889 Z"/>
      <path fill="rgb(115,115,115)" stroke="none" d="M 16022,4761 L 16022,5863 15846,5964 15846,4761 16022,4761 Z M 15846,3889 L 15846,3727 16022,3625 16022,3889 15846,3889 Z M 16022,3901 L 16022,4749 15846,4749 15846,3901 16022,3901 Z"/>
      <path fill="rgb(116,116,116)" stroke="none" d="M 16022,4749 L 16022,5863 15846,5964 15846,4749 16022,4749 Z M 15846,3901 L 15846,3727 16022,3625 16022,3901 15846,3901 Z M 16022,3912 L 16022,4738 15846,4738 15846,3912 16022,3912 Z"/>
      <path fill="rgb(117,117,117)" stroke="none" d="M 16022,4738 L 16022,5863 15846,5964 15846,4738 16022,4738 Z M 15846,3912 L 15846,3727 16022,3625 16022,3912 15846,3912 Z M 16022,3924 L 16022,4726 15846,4726 15846,3924 16022,3924 Z"/>
      <path fill="rgb(118,118,118)" stroke="none" d="M 16022,4726 L 16022,5863 15846,5964 15846,4726 16022,4726 Z M 15846,3924 L 15846,3727 16022,3625 16022,3924 15846,3924 Z M 16022,3935 L 16022,4715 15846,4715 15846,3935 16022,3935 Z"/>
      <path fill="rgb(119,119,119)" stroke="none" d="M 16022,4715 L 16022,5863 15846,5964 15846,4715 16022,4715 Z M 15846,3935 L 15846,3727 16022,3625 16022,3935 15846,3935 Z M 16022,3947 L 16022,4703 15846,4703 15846,3947 16022,3947 Z"/>
      <path fill="rgb(120,120,120)" stroke="none" d="M 16022,4703 L 16022,5863 15846,5964 15846,4703 16022,4703 Z M 15846,3947 L 15846,3727 16022,3625 16022,3947 15846,3947 Z M 16022,3958 L 16022,4692 15846,4692 15846,3958 16022,3958 Z"/>
      <path fill="rgb(121,121,121)" stroke="none" d="M 16022,4692 L 16022,5863 15846,5964 15846,4692 16022,4692 Z M 15846,3958 L 15846,3727 16022,3625 16022,3958 15846,3958 Z M 16022,3970 L 16022,4680 15846,4680 15846,3970 16022,3970 Z"/>
      <path fill="rgb(122,122,122)" stroke="none" d="M 16022,4680 L 16022,5863 15846,5964 15846,4680 16022,4680 Z M 15846,3970 L 15846,3727 16022,3625 16022,3970 15846,3970 Z M 16022,3981 L 16022,4669 15846,4669 15846,3981 16022,3981 Z"/>
      <path fill="rgb(123,123,123)" stroke="none" d="M 16022,4669 L 16022,5863 15846,5964 15846,4669 16022,4669 Z M 15846,3981 L 15846,3727 16022,3625 16022,3981 15846,3981 Z M 16022,3993 L 16022,4657 15846,4657 15846,3993 16022,3993 Z"/>
      <path fill="rgb(124,124,124)" stroke="none" d="M 16022,4657 L 16022,5863 15846,5964 15846,4657 16022,4657 Z M 15846,3993 L 15846,3727 16022,3625 16022,3993 15846,3993 Z M 16022,4004 L 16022,4646 15846,4646 15846,4004 16022,4004 Z"/>
      <path fill="rgb(125,125,125)" stroke="none" d="M 16022,4646 L 16022,5863 15846,5964 15846,4646 16022,4646 Z M 15846,4004 L 15846,3727 16022,3625 16022,4004 15846,4004 Z M 16022,4016 L 16022,4634 15846,4634 15846,4016 16022,4016 Z"/>
      <path fill="rgb(126,126,126)" stroke="none" d="M 16022,4634 L 16022,5863 15846,5964 15846,4634 16022,4634 Z M 15846,4016 L 15846,3727 16022,3625 16022,4016 15846,4016 Z M 16022,4027 L 16022,4623 15846,4623 15846,4027 16022,4027 Z"/>
      <path fill="rgb(127,127,127)" stroke="none" d="M 16022,4623 L 16022,5863 15846,5964 15846,4623 16022,4623 Z M 15846,4027 L 15846,3727 16022,3625 16022,4027 15846,4027 Z M 16022,4038 L 16022,4612 15846,4612 15846,4038 16022,4038 Z"/>
      <path fill="rgb(128,128,128)" stroke="none" d="M 16022,4612 L 16022,5863 15846,5964 15846,4612 16022,4612 Z M 15846,4038 L 15846,3727 16022,3625 16022,4038 15846,4038 Z M 16022,4050 L 16022,4600 15846,4600 15846,4050 16022,4050 Z"/>
      <path fill="rgb(129,129,129)" stroke="none" d="M 16022,4600 L 16022,5863 15846,5964 15846,4600 16022,4600 Z M 15846,4050 L 15846,3727 16022,3625 16022,4050 15846,4050 Z M 16022,4061 L 16022,4589 15846,4589 15846,4061 16022,4061 Z"/>
      <path fill="rgb(130,130,130)" stroke="none" d="M 16022,4589 L 16022,5863 15846,5964 15846,4589 16022,4589 Z M 15846,4061 L 15846,3727 16022,3625 16022,4061 15846,4061 Z M 16022,4073 L 16022,4577 15846,4577 15846,4073 16022,4073 Z"/>
      <path fill="rgb(131,131,131)" stroke="none" d="M 16022,4577 L 16022,5863 15846,5964 15846,4577 16022,4577 Z M 15846,4073 L 15846,3727 16022,3625 16022,4073 15846,4073 Z M 16022,4084 L 16022,4566 15846,4566 15846,4084 16022,4084 Z"/>
      <path fill="rgb(132,132,132)" stroke="none" d="M 16022,4566 L 16022,5863 15846,5964 15846,4566 16022,4566 Z M 15846,4084 L 15846,3727 16022,3625 16022,4084 15846,4084 Z M 16022,4096 L 16022,4554 15846,4554 15846,4096 16022,4096 Z"/>
      <path fill="rgb(133,133,133)" stroke="none" d="M 16022,4554 L 16022,5863 15846,5964 15846,4554 16022,4554 Z M 15846,4096 L 15846,3727 16022,3625 16022,4096 15846,4096 Z M 16022,4107 L 16022,4543 15846,4543 15846,4107 16022,4107 Z"/>
      <path fill="rgb(134,134,134)" stroke="none" d="M 16022,4543 L 16022,5863 15846,5964 15846,4543 16022,4543 Z M 15846,4107 L 15846,3727 16022,3625 16022,4107 15846,4107 Z M 16022,4119 L 16022,4531 15846,4531 15846,4119 16022,4119 Z"/>
      <path fill="rgb(135,135,135)" stroke="none" d="M 16022,4531 L 16022,5863 15846,5964 15846,4531 16022,4531 Z M 15846,4119 L 15846,3727 16022,3625 16022,4119 15846,4119 Z M 16022,4130 L 16022,4520 15846,4520 15846,4130 16022,4130 Z"/>
      <path fill="rgb(136,136,136)" stroke="none" d="M 16022,4520 L 16022,5863 15846,5964 15846,4520 16022,4520 Z M 15846,4130 L 15846,3727 16022,3625 16022,4130 15846,4130 Z M 16022,4142 L 16022,4508 15846,4508 15846,4142 16022,4142 Z"/>
      <path fill="rgb(137,137,137)" stroke="none" d="M 16022,4508 L 16022,5863 15846,5964 15846,4508 16022,4508 Z M 15846,4142 L 15846,3727 16022,3625 16022,4142 15846,4142 Z M 16022,4153 L 16022,4497 15846,4497 15846,4153 16022,4153 Z"/>
      <path fill="rgb(138,138,138)" stroke="none" d="M 16022,4497 L 16022,5863 15846,5964 15846,4497 16022,4497 Z M 15846,4153 L 15846,3727 16022,3625 16022,4153 15846,4153 Z M 16022,4165 L 16022,4485 15846,4485 15846,4165 16022,4165 Z"/>
      <path fill="rgb(139,139,139)" stroke="none" d="M 16022,4485 L 16022,5863 15846,5964 15846,4485 16022,4485 Z M 15846,4165 L 15846,3727 16022,3625 16022,4165 15846,4165 Z M 16022,4176 L 16022,4474 15846,4474 15846,4176 16022,4176 Z"/>
      <path fill="rgb(140,140,140)" stroke="none" d="M 16022,4474 L 16022,5863 15846,5964 15846,4474 16022,4474 Z M 15846,4176 L 15846,3727 16022,3625 16022,4176 15846,4176 Z M 16022,4188 L 16022,4462 15846,4462 15846,4188 16022,4188 Z"/>
      <path fill="rgb(141,141,141)" stroke="none" d="M 16022,4462 L 16022,5863 15846,5964 15846,4462 16022,4462 Z M 15846,4188 L 15846,3727 16022,3625 16022,4188 15846,4188 Z M 16022,4199 L 16022,4451 15846,4451 15846,4199 16022,4199 Z"/>
      <path fill="rgb(142,142,142)" stroke="none" d="M 16022,4451 L 16022,5863 15846,5964 15846,4451 16022,4451 Z M 15846,4199 L 15846,3727 16022,3625 16022,4199 15846,4199 Z M 16011,4211 L 16011,4439 15846,4439 15846,4211 16011,4211 Z"/>
      <path fill="rgb(143,143,143)" stroke="none" d="M 16011,4439 L 16011,4211 15846,4211 15846,3727 16022,3625 16022,5863 15846,5964 15846,4439 16011,4439 Z M 16000,4222 L 16000,4428 15846,4428 15846,4222 16000,4222 Z"/>
      <path fill="rgb(144,144,144)" stroke="none" d="M 16000,4428 L 16000,4222 15846,4222 15846,3727 16022,3625 16022,5863 15846,5964 15846,4428 16000,4428 Z M 15988,4234 L 15988,4416 15846,4416 15846,4234 15988,4234 Z"/>
      <path fill="rgb(145,145,145)" stroke="none" d="M 15988,4416 L 15988,4234 15846,4234 15846,3727 16022,3625 16022,5863 15846,5964 15846,4416 15988,4416 Z M 15977,4245 L 15977,4405 15846,4405 15846,4245 15977,4245 Z"/>
      <path fill="rgb(146,146,146)" stroke="none" d="M 15977,4405 L 15977,4245 15846,4245 15846,3727 16022,3625 16022,5863 15846,5964 15846,4405 15977,4405 Z M 15965,4257 L 15965,4393 15846,4393 15846,4257 15965,4257 Z"/>
      <path fill="rgb(147,147,147)" stroke="none" d="M 15965,4393 L 15965,4257 15846,4257 15846,3727 16022,3625 16022,5863 15846,5964 15846,4393 15965,4393 Z M 15954,4268 L 15954,4382 15846,4382 15846,4268 15954,4268 Z"/>
      <path fill="rgb(148,148,148)" stroke="none" d="M 15954,4382 L 15954,4268 15846,4268 15846,3727 16022,3625 16022,5863 15846,5964 15846,4382 15954,4382 Z M 15852,4280 L 15942,4280 15942,4370 15852,4370 15852,4280 Z"/>
      <path fill="rgb(149,149,149)" stroke="none" d="M 15852,4280 L 15852,4370 15942,4370 15942,4280 15852,4280 Z M 15863,4291 L 15931,4291 15931,4359 15863,4359 15863,4291 Z M 15846,5964 L 15846,3727 16022,3625 16022,5863 15846,5964 Z"/>
      <path fill="rgb(150,150,150)" stroke="none" d="M 15863,4291 L 15863,4359 15931,4359 15931,4291 15863,4291 Z M 15875,4303 L 15919,4303 15919,4347 15875,4347 15875,4303 Z M 15846,5964 L 15846,3727 16022,3625 16022,5863 15846,5964 Z"/>
      <path fill="rgb(151,151,151)" stroke="none" d="M 15875,4303 L 15875,4347 15919,4347 15919,4303 15875,4303 Z M 15886,4314 L 15908,4314 15908,4336 15886,4336 15886,4314 Z M 15846,5964 L 15846,3727 16022,3625 16022,5863 15846,5964 Z"/>
      <path fill="rgb(153,153,153)" stroke="none" d="M 15886,4314 L 15886,4336 15908,4336 15908,4314 15886,4314 Z M 15846,5964 L 15846,3727 16022,3625 16022,5863 15846,5964 Z"/>
      <path fill="none" stroke="rgb(178,178,178)" id="Drawing_14_0" stroke-width="40" stroke-linejoin="round" d="M 15846,5964 L 15846,3727 16022,3625 16022,5863 15846,5964 Z"/>
     </g>
     <g>
      <path fill="none" stroke="rgb(0,0,0)" id="Drawing_15_0" stroke-width="40" stroke-linejoin="round" d="M 13207,1998 L 16022,3625 16022,5863 15846,5965 15758,5914 15758,6168 14879,6677 13999,6168 13999,5965 14703,5558 14703,5304 13031,4337 13031,2100 13207,1998 Z"/>
     </g>
    </g>
   </g>
   <g id="DrawingGroup_6">
    <g>
     <path fill="rgb(221,221,221)" stroke="none" d="M 14530,7948 C 14772,7948 15670,7694 15670,7541 15670,7389 15648,7338 15406,7338 15406,7491 14439,7440 14530,7948 Z"/>
     <path fill="none" stroke="rgb(221,221,221)" id="Drawing_16_0" stroke-width="40" stroke-linejoin="round" d="M 14530,7948 C 14772,7948 15670,7694 15670,7541 15670,7389 15648,7338 15406,7338 15406,7491 14439,7440 14530,7948 Z"/>
    </g>
    <g id="DrawingGroup_7">
     <g>
      <defs>
       <linearGradient id="Gradient_77" gradientUnits="userSpaceOnUse" x1="13602" y1="5609" x2="13602" y2="7796">
        <stop offset="0.1" stop-color="rgb(51,51,51)"/>
        <stop offset="1" stop-color="rgb(153,153,153)"/>
       </linearGradient>
      </defs>
      <path fill="url(#Gradient_77)" stroke="rgb(178,178,178)" id="Drawing_17_0" stroke-width="40" stroke-linejoin="round" d="M 14526,7796 L 11711,6168 12679,5609 15494,7236 14526,7796 Z"/>
     </g>
     <g>
      <path fill="rgb(127,127,127)" stroke="none" d="M 11975,6168 L 12679,5761 14526,6829 13823,7236 11975,6168 Z"/>
      <path fill="none" stroke="rgb(178,178,178)" id="Drawing_18_0" stroke-width="40" stroke-linejoin="round" d="M 11975,6168 L 12679,5761 14526,6829 13823,7236 11975,6168 Z"/>
     </g>
     <g>
      <path fill="rgb(127,127,127)" stroke="none" d="M 13998,7338 L 14702,6931 15230,7236 14526,7643 13998,7338 Z"/>
      <path fill="none" stroke="rgb(178,178,178)" id="Drawing_19_0" stroke-width="40" stroke-linejoin="round" d="M 13998,7338 L 14702,6931 15230,7236 14526,7643 13998,7338 Z"/>
     </g>
     <g>
      <path fill="rgb(51,51,51)" stroke="none" d="M 15290,7557 L 14631,7938 14526,7938 14526,7795 15290,7354 15290,7557 Z"/>
      <path fill="rgb(53,53,53)" stroke="none" d="M 14631,7938 L 14526,7999 14526,7938 14631,7938 Z M 15290,7354 L 15494,7236 15494,7439 15290,7557 15290,7354 Z M 15280,7563 L 14649,7928 14526,7928 14526,7795 15280,7360 15280,7563 Z"/>
      <path fill="rgb(55,55,55)" stroke="none" d="M 14649,7928 L 14526,7999 14526,7928 14649,7928 Z M 15280,7360 L 15494,7236 15494,7439 15280,7563 15280,7360 Z M 15270,7569 L 14666,7918 14526,7918 14526,7795 15270,7365 15270,7569 Z"/>
      <path fill="rgb(57,57,57)" stroke="none" d="M 14666,7918 L 14526,7999 14526,7918 14666,7918 Z M 15270,7365 L 15494,7236 15494,7439 15270,7569 15270,7365 Z M 15260,7574 L 14683,7908 14526,7908 14526,7795 15260,7371 15260,7574 Z"/>
      <path fill="rgb(59,59,59)" stroke="none" d="M 14683,7908 L 14526,7999 14526,7908 14683,7908 Z M 15260,7371 L 15494,7236 15494,7439 15260,7574 15260,7371 Z M 15250,7580 L 14701,7898 14526,7898 14526,7795 15250,7377 15250,7580 Z"/>
      <path fill="rgb(61,61,61)" stroke="none" d="M 14701,7898 L 14526,7999 14526,7898 14701,7898 Z M 15250,7377 L 15494,7236 15494,7439 15250,7580 15250,7377 Z M 15240,7586 L 14718,7888 14526,7888 14526,7795 15240,7383 15240,7586 Z"/>
      <path fill="rgb(63,63,63)" stroke="none" d="M 14718,7888 L 14526,7999 14526,7888 14718,7888 Z M 15240,7383 L 15494,7236 15494,7439 15240,7586 15240,7383 Z M 15230,7592 L 14735,7878 14526,7878 14526,7795 15230,7388 15230,7592 Z"/>
      <path fill="rgb(65,65,65)" stroke="none" d="M 14735,7878 L 14526,7999 14526,7878 14735,7878 Z M 15230,7388 L 15494,7236 15494,7439 15230,7592 15230,7388 Z M 15220,7598 L 14752,7868 14526,7868 14526,7795 15220,7394 15220,7598 Z"/>
      <path fill="rgb(68,68,68)" stroke="none" d="M 14752,7868 L 14526,7999 14526,7868 14752,7868 Z M 15220,7394 L 15494,7236 15494,7439 15220,7598 15220,7394 Z M 15209,7604 L 14771,7857 14526,7857 14526,7795 15209,7401 15209,7604 Z"/>
      <path fill="rgb(70,70,70)" stroke="none" d="M 14771,7857 L 14526,7999 14526,7857 14771,7857 Z M 15209,7401 L 15494,7236 15494,7439 15209,7604 15209,7401 Z M 15199,7610 L 14789,7847 14526,7847 14526,7795 15199,7406 15199,7610 Z"/>
      <path fill="rgb(72,72,72)" stroke="none" d="M 14789,7847 L 14526,7999 14526,7847 14789,7847 Z M 15199,7406 L 15494,7236 15494,7439 15199,7610 15199,7406 Z M 15189,7615 L 14806,7837 14526,7837 14526,7795 15189,7412 15189,7615 Z"/>
      <path fill="rgb(74,74,74)" stroke="none" d="M 14806,7837 L 14526,7999 14526,7837 14806,7837 Z M 15189,7412 L 15494,7236 15494,7439 15189,7615 15189,7412 Z M 15179,7621 L 14823,7827 14526,7827 14526,7795 15179,7418 15179,7621 Z"/>
      <path fill="rgb(76,76,76)" stroke="none" d="M 14823,7827 L 14526,7999 14526,7827 14823,7827 Z M 15179,7418 L 15494,7236 15494,7439 15179,7621 15179,7418 Z M 15169,7627 L 14841,7817 14526,7817 14526,7795 15169,7424 15169,7627 Z"/>
      <path fill="rgb(78,78,78)" stroke="none" d="M 14841,7817 L 14526,7999 14526,7817 14841,7817 Z M 15169,7424 L 15494,7236 15494,7439 15169,7627 15169,7424 Z M 15159,7633 L 14858,7807 14526,7807 14526,7795 15159,7429 15159,7633 Z"/>
      <path fill="rgb(80,80,80)" stroke="none" d="M 14858,7807 L 14526,7999 14526,7807 14858,7807 Z M 15159,7429 L 15494,7236 15494,7439 15159,7633 15159,7429 Z M 15149,7639 L 14875,7797 14526,7797 14526,7795 15149,7435 15149,7639 Z"/>
      <path fill="rgb(82,82,82)" stroke="none" d="M 14875,7797 L 14526,7999 14526,7797 14875,7797 Z M 15149,7435 L 15494,7236 15494,7439 15149,7639 15149,7435 Z M 15139,7644 L 14892,7787 14540,7787 15139,7441 15139,7644 Z"/>
      <path fill="rgb(85,85,85)" stroke="none" d="M 14892,7787 L 14526,7999 14526,7795 14540,7787 14892,7787 Z M 15139,7441 L 15494,7236 15494,7439 15139,7644 15139,7441 Z M 15129,7650 L 14910,7777 14557,7777 15129,7447 15129,7650 Z"/>
      <path fill="rgb(87,87,87)" stroke="none" d="M 14910,7777 L 14526,7999 14526,7795 14557,7777 14910,7777 Z M 15129,7447 L 15494,7236 15494,7439 15129,7650 15129,7447 Z M 15118,7657 L 14929,7766 14576,7766 15118,7453 15118,7657 Z"/>
      <path fill="rgb(89,89,89)" stroke="none" d="M 14929,7766 L 14526,7999 14526,7795 14576,7766 14929,7766 Z M 15118,7453 L 15494,7236 15494,7439 15118,7657 15118,7453 Z M 15108,7662 L 14946,7756 14594,7756 15108,7459 15108,7662 Z"/>
      <path fill="rgb(91,91,91)" stroke="none" d="M 14946,7756 L 14526,7999 14526,7795 14594,7756 14946,7756 Z M 15108,7459 L 15494,7236 15494,7439 15108,7662 15108,7459 Z M 15098,7668 L 14963,7746 14611,7746 15098,7465 15098,7668 Z"/>
      <path fill="rgb(93,93,93)" stroke="none" d="M 14963,7746 L 14526,7999 14526,7795 14611,7746 14963,7746 Z M 15098,7465 L 15494,7236 15494,7439 15098,7668 15098,7465 Z M 15088,7674 L 14981,7736 14628,7736 15088,7470 15088,7674 Z"/>
      <path fill="rgb(95,95,95)" stroke="none" d="M 14981,7736 L 14526,7999 14526,7795 14628,7736 14981,7736 Z M 15088,7470 L 15494,7236 15494,7439 15088,7674 15088,7470 Z M 15078,7680 L 14998,7726 14645,7726 15078,7476 15078,7680 Z"/>
      <path fill="rgb(97,97,97)" stroke="none" d="M 14998,7726 L 14526,7999 14526,7795 14645,7726 14998,7726 Z M 15078,7476 L 15494,7236 15494,7439 15078,7680 15078,7476 Z M 15068,7685 L 15015,7716 14663,7716 15068,7482 15068,7685 Z"/>
      <path fill="rgb(99,99,99)" stroke="none" d="M 15015,7716 L 14526,7999 14526,7795 14663,7716 15015,7716 Z M 15068,7482 L 15494,7236 15494,7439 15068,7685 15068,7482 Z M 15058,7691 L 15032,7706 14680,7706 15058,7488 15058,7691 Z"/>
      <path fill="rgb(102,102,102)" stroke="none" d="M 15032,7706 L 14526,7999 14526,7795 14680,7706 15032,7706 Z M 15058,7488 L 15494,7236 15494,7439 15058,7691 15058,7488 Z M 15048,7696 L 14697,7696 15048,7494 15048,7696 Z"/>
      <path fill="rgb(104,104,104)" stroke="none" d="M 15048,7696 L 15048,7494 15494,7236 15494,7439 14526,7999 14526,7795 14697,7696 15048,7696 Z M 15038,7686 L 14715,7686 15038,7499 15038,7686 Z"/>
      <path fill="rgb(106,106,106)" stroke="none" d="M 15038,7686 L 15038,7499 15494,7236 15494,7439 14526,7999 14526,7795 14715,7686 15038,7686 Z M 15027,7675 L 14734,7675 15027,7506 15027,7675 Z"/>
      <path fill="rgb(108,108,108)" stroke="none" d="M 15027,7675 L 15027,7506 15494,7236 15494,7439 14526,7999 14526,7795 14734,7675 15027,7675 Z M 15017,7665 L 14751,7665 15017,7511 15017,7665 Z"/>
      <path fill="rgb(110,110,110)" stroke="none" d="M 15017,7665 L 15017,7511 15494,7236 15494,7439 14526,7999 14526,7795 14751,7665 15017,7665 Z M 15007,7655 L 14768,7655 15007,7517 15007,7655 Z"/>
      <path fill="rgb(112,112,112)" stroke="none" d="M 15007,7655 L 15007,7517 15494,7236 15494,7439 14526,7999 14526,7795 14768,7655 15007,7655 Z M 14997,7645 L 14786,7645 14997,7523 14997,7645 Z"/>
      <path fill="rgb(114,114,114)" stroke="none" d="M 14997,7645 L 14997,7523 15494,7236 15494,7439 14526,7999 14526,7795 14786,7645 14997,7645 Z M 14987,7635 L 14803,7635 14987,7529 14987,7635 Z"/>
      <path fill="rgb(116,116,116)" stroke="none" d="M 14987,7635 L 14987,7529 15494,7236 15494,7439 14526,7999 14526,7795 14803,7635 14987,7635 Z M 14977,7625 L 14820,7625 14977,7535 14977,7625 Z"/>
      <path fill="rgb(119,119,119)" stroke="none" d="M 14977,7625 L 14977,7535 15494,7236 15494,7439 14526,7999 14526,7795 14820,7625 14977,7625 Z M 14967,7615 L 14838,7615 14967,7540 14967,7615 Z"/>
      <path fill="rgb(121,121,121)" stroke="none" d="M 14967,7615 L 14967,7540 15494,7236 15494,7439 14526,7999 14526,7795 14838,7615 14967,7615 Z M 14957,7605 L 14855,7605 14957,7546 14957,7605 Z"/>
      <path fill="rgb(123,123,123)" stroke="none" d="M 14957,7605 L 14957,7546 15494,7236 15494,7439 14526,7999 14526,7795 14855,7605 14957,7605 Z M 14946,7594 L 14874,7594 14946,7552 14946,7594 Z"/>
      <path fill="rgb(125,125,125)" stroke="none" d="M 14946,7594 L 14946,7552 15494,7236 15494,7439 14526,7999 14526,7795 14874,7594 14946,7594 Z M 14936,7584 L 14891,7584 14936,7558 14936,7584 Z"/>
      <path fill="rgb(127,127,127)" stroke="none" d="M 14936,7584 L 14936,7558 15494,7236 15494,7439 14526,7999 14526,7795 14891,7584 14936,7584 Z M 14926,7574 L 14909,7574 14926,7564 14926,7574 Z"/>
      <path fill="rgb(129,129,129)" stroke="none" d="M 14926,7574 L 14926,7564 15494,7236 15494,7439 14526,7999 14526,7795 14909,7574 14926,7574 Z"/>
      <path fill="rgb(131,131,131)" stroke="none" d="M 14526,7999 L 14526,7795 15494,7236 15494,7439 14526,7999 Z"/>
      <path fill="rgb(133,133,133)" stroke="none" d="M 14526,7999 L 14526,7795 15494,7236 15494,7439 14526,7999 Z"/>
      <path fill="rgb(136,136,136)" stroke="none" d="M 14526,7999 L 14526,7795 15494,7236 15494,7439 14526,7999 Z"/>
      <path fill="rgb(138,138,138)" stroke="none" d="M 14526,7999 L 14526,7795 15494,7236 15494,7439 14526,7999 Z"/>
      <path fill="rgb(140,140,140)" stroke="none" d="M 14526,7999 L 14526,7795 15494,7236 15494,7439 14526,7999 Z"/>
      <path fill="rgb(142,142,142)" stroke="none" d="M 14526,7999 L 14526,7795 15494,7236 15494,7439 14526,7999 Z"/>
      <path fill="rgb(144,144,144)" stroke="none" d="M 14526,7999 L 14526,7795 15494,7236 15494,7439 14526,7999 Z"/>
      <path fill="rgb(146,146,146)" stroke="none" d="M 14526,7999 L 14526,7795 15494,7236 15494,7439 14526,7999 Z"/>
      <path fill="rgb(148,148,148)" stroke="none" d="M 14526,7999 L 14526,7795 15494,7236 15494,7439 14526,7999 Z"/>
      <path fill="rgb(153,153,153)" stroke="none" d="M 14526,7999 L 14526,7795 15494,7236 15494,7439 14526,7999 Z"/>
      <path fill="none" stroke="rgb(178,178,178)" id="Drawing_20_0" stroke-width="40" stroke-linejoin="round" d="M 14526,7999 L 14526,7795 15494,7236 15494,7439 14526,7999 Z"/>
     </g>
     <g>
      <path fill="none" stroke="rgb(178,178,178)" id="Drawing_21_0" stroke-width="40" stroke-linejoin="round" d="M 12151,6066 L 13999,7134"/>
     </g>
     <g>
      <path fill="none" stroke="rgb(178,178,178)" id="Drawing_22_0" stroke-width="40" stroke-linejoin="round" d="M 12327,5965 L 14175,7033"/>
     </g>
     <g>
      <path fill="none" stroke="rgb(178,178,178)" id="Drawing_23_0" stroke-width="40" stroke-linejoin="round" d="M 12503,5863 L 14351,6931"/>
     </g>
     <g>
      <path fill="none" stroke="rgb(178,178,178)" id="Drawing_24_0" stroke-width="40" stroke-linejoin="round" d="M 14174,6830 L 14350,6728"/>
     </g>
     <g>
      <path fill="none" stroke="rgb(178,178,178)" id="Drawing_25_0" stroke-width="40" stroke-linejoin="round" d="M 13998,6728 L 14174,6626"/>
     </g>
     <g>
      <path fill="none" stroke="rgb(178,178,178)" id="Drawing_26_0" stroke-width="40" stroke-linejoin="round" d="M 13822,6626 L 13998,6524"/>
     </g>
     <g>
      <path fill="none" stroke="rgb(178,178,178)" id="Drawing_27_0" stroke-width="40" stroke-linejoin="round" d="M 13910,6880 L 14086,6778"/>
     </g>
     <g>
      <path fill="none" stroke="rgb(178,178,178)" id="Drawing_28_0" stroke-width="40" stroke-linejoin="round" d="M 13735,6779 L 13911,6677"/>
     </g>
     <g>
      <path fill="none" stroke="rgb(178,178,178)" id="Drawing_29_0" stroke-width="40" stroke-linejoin="round" d="M 13559,6677 L 13735,6575"/>
     </g>
     <g>
      <path fill="none" stroke="rgb(178,178,178)" id="Drawing_30_0" stroke-width="40" stroke-linejoin="round" d="M 13647,6524 L 13823,6422"/>
     </g>
     <g>
      <path fill="none" stroke="rgb(178,178,178)" id="Drawing_31_0" stroke-width="40" stroke-linejoin="round" d="M 13383,6575 L 13559,6473"/>
     </g>
     <g>
      <path fill="none" stroke="rgb(178,178,178)" id="Drawing_32_0" stroke-width="40" stroke-linejoin="round" d="M 13471,6423 L 13647,6321"/>
     </g>
     <g>
      <path fill="none" stroke="rgb(178,178,178)" id="Drawing_33_0" stroke-width="40" stroke-linejoin="round" d="M 13295,6321 L 13471,6219"/>
     </g>
     <g>
      <path fill="none" stroke="rgb(178,178,178)" id="Drawing_34_0" stroke-width="40" stroke-linejoin="round" d="M 13119,6219 L 13295,6117"/>
     </g>
     <g>
      <path fill="none" stroke="rgb(178,178,178)" id="Drawing_35_0" stroke-width="40" stroke-linejoin="round" d="M 13207,6474 L 13383,6372"/>
     </g>
     <g>
      <path fill="none" stroke="rgb(178,178,178)" id="Drawing_36_0" stroke-width="40" stroke-linejoin="round" d="M 13031,6372 L 13207,6270"/>
     </g>
     <g>
      <path fill="none" stroke="rgb(178,178,178)" id="Drawing_37_0" stroke-width="40" stroke-linejoin="round" d="M 12855,6270 L 13031,6168"/>
     </g>
     <g>
      <path fill="none" stroke="rgb(178,178,178)" id="Drawing_38_0" stroke-width="40" stroke-linejoin="round" d="M 12943,6118 L 13119,6016"/>
     </g>
     <g>
      <path fill="none" stroke="rgb(178,178,178)" id="Drawing_39_0" stroke-width="40" stroke-linejoin="round" d="M 12679,6168 L 12855,6066"/>
     </g>
     <g>
      <path fill="none" stroke="rgb(178,178,178)" id="Drawing_40_0" stroke-width="40" stroke-linejoin="round" d="M 12767,6016 L 12943,5914"/>
     </g>
     <g>
      <path fill="none" stroke="rgb(178,178,178)" id="Drawing_41_0" stroke-width="40" stroke-linejoin="round" d="M 12591,5914 L 12767,5812"/>
     </g>
     <g>
      <path fill="none" stroke="rgb(178,178,178)" id="Drawing_42_0" stroke-width="40" stroke-linejoin="round" d="M 12503,6067 L 12679,5965"/>
     </g>
     <g>
      <path fill="none" stroke="rgb(178,178,178)" id="Drawing_43_0" stroke-width="40" stroke-linejoin="round" d="M 13647,6931 L 13823,6829"/>
     </g>
     <g>
      <path fill="none" stroke="rgb(178,178,178)" id="Drawing_44_0" stroke-width="40" stroke-linejoin="round" d="M 13471,6830 L 13647,6728"/>
     </g>
     <g>
      <path fill="none" stroke="rgb(178,178,178)" id="Drawing_45_0" stroke-width="40" stroke-linejoin="round" d="M 13295,6728 L 13471,6626"/>
     </g>
     <g>
      <path fill="none" stroke="rgb(178,178,178)" id="Drawing_46_0" stroke-width="40" stroke-linejoin="round" d="M 13207,6880 L 13383,6778"/>
     </g>
     <g>
      <path fill="none" stroke="rgb(178,178,178)" id="Drawing_47_0" stroke-width="40" stroke-linejoin="round" d="M 13031,6779 L 13207,6677"/>
     </g>
     <g>
      <path fill="none" stroke="rgb(178,178,178)" id="Drawing_48_0" stroke-width="40" stroke-linejoin="round" d="M 13119,6626 L 13295,6524"/>
     </g>
     <g>
      <path fill="none" stroke="rgb(178,178,178)" id="Drawing_49_0" stroke-width="40" stroke-linejoin="round" d="M 12943,6524 L 13119,6422"/>
     </g>
     <g>
      <path fill="none" stroke="rgb(178,178,178)" id="Drawing_50_0" stroke-width="40" stroke-linejoin="round" d="M 12767,6423 L 12943,6321"/>
     </g>
     <g>
      <path fill="none" stroke="rgb(178,178,178)" id="Drawing_51_0" stroke-width="40" stroke-linejoin="round" d="M 12591,6321 L 12767,6219"/>
     </g>
     <g>
      <path fill="none" stroke="rgb(178,178,178)" id="Drawing_52_0" stroke-width="40" stroke-linejoin="round" d="M 12327,6372 L 12503,6270"/>
     </g>
     <g>
      <path fill="none" stroke="rgb(178,178,178)" id="Drawing_53_0" stroke-width="40" stroke-linejoin="round" d="M 12415,6219 L 12591,6117"/>
     </g>
     <g>
      <path fill="none" stroke="rgb(178,178,178)" id="Drawing_54_0" stroke-width="40" stroke-linejoin="round" d="M 12151,6270 L 12327,6168"/>
     </g>
     <g>
      <path fill="none" stroke="rgb(178,178,178)" id="Drawing_55_0" stroke-width="40" stroke-linejoin="round" d="M 13559,7084 L 13735,6982"/>
     </g>
     <g>
      <path fill="none" stroke="rgb(178,178,178)" id="Drawing_56_0" stroke-width="40" stroke-linejoin="round" d="M 13383,6982 L 13559,6880"/>
     </g>
     <g>
      <path fill="none" stroke="rgb(178,178,178)" id="Drawing_57_0" stroke-width="40" stroke-linejoin="round" d="M 14174,7440 L 14878,7033"/>
     </g>
     <g>
      <path fill="none" stroke="rgb(178,178,178)" id="Drawing_58_0" stroke-width="40" stroke-linejoin="round" d="M 14350,7541 L 15054,7134"/>
     </g>
     <g>
      <path fill="none" stroke="rgb(178,178,178)" id="Drawing_59_0" stroke-width="40" stroke-linejoin="round" d="M 14526,7033 L 15054,7338"/>
     </g>
     <g>
      <path fill="none" stroke="rgb(178,178,178)" id="Drawing_60_0" stroke-width="40" stroke-linejoin="round" d="M 14350,7134 L 14878,7439"/>
     </g>
     <g>
      <path fill="none" stroke="rgb(178,178,178)" id="Drawing_61_0" stroke-width="40" stroke-linejoin="round" d="M 14174,7236 L 14526,7439"/>
     </g>
     <g>
      <defs>
       <linearGradient id="Gradient_78" gradientUnits="userSpaceOnUse" x1="11708" y1="7081" x2="14527" y2="7085">
        <stop offset="0.1" stop-color="rgb(51,51,51)"/>
        <stop offset="1" stop-color="rgb(153,153,153)"/>
       </linearGradient>
      </defs>
      <path fill="url(#Gradient_78)" stroke="rgb(178,178,178)" id="Drawing_62_0" stroke-width="40" stroke-linejoin="round" d="M 11711,6371 L 11711,6168 14526,7795 14526,7999 11711,6371 Z"/>
     </g>
     <g>
      <path fill="none" stroke="rgb(0,0,0)" id="Drawing_63_0" stroke-width="40" stroke-linejoin="round" d="M 12679,5609 L 15494,7236 15494,7440 14526,7999 11711,6372 11711,6168 12679,5609 Z"/>
     </g>
    </g>
   </g>
  </g>
 </g>
</svg>