<?xml version="1.0" encoding="UTF-8"?>

<svg version="1.2" baseProfile="tiny" width="50.75mm" height="30.5mm" viewBox="10995 12195 5075 3050" preserveAspectRatio="xMidYMid" fill-rule="evenodd" stroke-width="28.222" stroke-linejoin="round" xmlns="http://www.w3.org/2000/svg" xmlns:xlink="http://www.w3.org/1999/xlink" xml:space="preserve">
 <g visibility="visible" id="Slide_1">
  <g id="DrawingGroup_1">
   <g>
    <path fill="rgb(221,221,221)" stroke="none" d="M 14595,14805 C 14852,14805 15865,14315 15986,14245 16107,14175 16052,13965 15865,13965 L 14595,14805 Z"/>
    <path fill="none" stroke="rgb(221,221,221)" id="Drawing_1_0" stroke-width="40" stroke-linejoin="round" d="M 14595,14805 C 14852,14805 15865,14315 15986,14245 16107,14175 16052,13965 15865,13965 L 14595,14805 Z"/>
   </g>
   <g id="DrawingGroup_2">
    <g>
     <path fill="rgb(102,102,102)" stroke="none" d="M 15457,14341 L 13925,15225 13925,15015 15457,14131 15457,14341 Z"/>
     <path fill="rgb(103,103,103)" stroke="none" d="M 15457,14131 L 15865,13895 15865,14105 15457,14341 15457,14131 Z M 15438,14352 L 13925,15225 13925,15015 15438,14142 15438,14352 Z"/>
     <path fill="rgb(104,104,104)" stroke="none" d="M 15438,14142 L 15865,13895 15865,14105 15438,14352 15438,14142 Z M 15419,14362 L 13958,15206 13925,15206 13925,15015 15419,14152 15419,14362 Z"/>
     <path fill="rgb(105,105,105)" stroke="none" d="M 13958,15206 L 13925,15225 13925,15206 13958,15206 Z M 15419,14152 L 15865,13895 15865,14105 15419,14362 15419,14152 Z M 15400,14373 L 13991,15187 13925,15187 13925,15015 15400,14163 15400,14373 Z"/>
     <path fill="rgb(106,106,106)" stroke="none" d="M 13991,15187 L 13925,15225 13925,15187 13991,15187 Z M 15400,14163 L 15865,13895 15865,14105 15400,14373 15400,14163 Z M 15381,14384 L 14024,15168 13925,15168 13925,15015 15381,14174 15381,14384 Z"/>
     <path fill="rgb(107,107,107)" stroke="none" d="M 14024,15168 L 13925,15225 13925,15168 14024,15168 Z M 15381,14174 L 15865,13895 15865,14105 15381,14384 15381,14174 Z M 15362,14395 L 14057,15149 13925,15149 13925,15015 15362,14185 15362,14395 Z"/>
     <path fill="rgb(108,108,108)" stroke="none" d="M 14057,15149 L 13925,15225 13925,15149 14057,15149 Z M 15362,14185 L 15865,13895 15865,14105 15362,14395 15362,14185 Z M 15343,14406 L 14090,15130 13925,15130 13925,15015 15343,14196 15343,14406 Z"/>
     <path fill="rgb(109,109,109)" stroke="none" d="M 14090,15130 L 13925,15225 13925,15130 14090,15130 Z M 15343,14196 L 15865,13895 15865,14105 15343,14406 15343,14196 Z M 15324,14417 L 14122,15111 13925,15111 13925,15015 15324,14207 15324,14417 Z"/>
     <path fill="rgb(110,110,110)" stroke="none" d="M 14122,15111 L 13925,15225 13925,15111 14122,15111 Z M 15324,14207 L 15865,13895 15865,14105 15324,14417 15324,14207 Z M 15305,14428 L 14155,15092 13925,15092 13925,15015 15305,14218 15305,14428 Z"/>
     <path fill="rgb(111,111,111)" stroke="none" d="M 14155,15092 L 13925,15225 13925,15092 14155,15092 Z M 15305,14218 L 15865,13895 15865,14105 15305,14428 15305,14218 Z M 15286,14439 L 14188,15073 13925,15073 13925,15015 15286,14229 15286,14439 Z"/>
     <path fill="rgb(112,112,112)" stroke="none" d="M 14188,15073 L 13925,15225 13925,15073 14188,15073 Z M 15286,14229 L 15865,13895 15865,14105 15286,14439 15286,14229 Z M 15267,14450 L 14221,15054 13925,15054 13925,15015 15267,14240 15267,14450 Z"/>
     <path fill="rgb(113,113,113)" stroke="none" d="M 14221,15054 L 13925,15225 13925,15054 14221,15054 Z M 15267,14240 L 15865,13895 15865,14105 15267,14450 15267,14240 Z M 15248,14461 L 14254,15035 13925,15035 13925,15015 15248,14251 15248,14461 Z"/>
     <path fill="rgb(114,114,114)" stroke="none" d="M 14254,15035 L 13925,15225 13925,15035 14254,15035 Z M 15248,14251 L 15865,13895 15865,14105 15248,14461 15248,14251 Z M 15229,14472 L 14287,15016 13925,15016 13925,15015 15229,14262 15229,14472 Z"/>
     <path fill="rgb(115,115,115)" stroke="none" d="M 14287,15016 L 13925,15225 13925,15016 14287,15016 Z M 15229,14262 L 15865,13895 15865,14105 15229,14472 15229,14262 Z M 15210,14483 L 14320,14997 13956,14997 15210,14273 15210,14483 Z"/>
     <path fill="rgb(116,116,116)" stroke="none" d="M 14320,14997 L 13925,15225 13925,15015 13956,14997 14320,14997 Z M 15210,14273 L 15865,13895 15865,14105 15210,14483 15210,14273 Z M 15191,14494 L 14353,14978 13989,14978 15191,14284 15191,14494 Z"/>
     <path fill="rgb(117,117,117)" stroke="none" d="M 14353,14978 L 13925,15225 13925,15015 13989,14978 14353,14978 Z M 15191,14284 L 15865,13895 15865,14105 15191,14494 15191,14284 Z M 15172,14505 L 14386,14959 14022,14959 15172,14295 15172,14505 Z"/>
     <path fill="rgb(118,118,118)" stroke="none" d="M 14386,14959 L 13925,15225 13925,15015 14022,14959 14386,14959 Z M 15172,14295 L 15865,13895 15865,14105 15172,14505 15172,14295 Z M 15153,14516 L 14419,14940 14055,14940 15153,14306 15153,14516 Z"/>
     <path fill="rgb(119,119,119)" stroke="none" d="M 14419,14940 L 13925,15225 13925,15015 14055,14940 14419,14940 Z M 15153,14306 L 15865,13895 15865,14105 15153,14516 15153,14306 Z M 15134,14527 L 14452,14921 14088,14921 15134,14317 15134,14527 Z"/>
     <path fill="rgb(120,120,120)" stroke="none" d="M 14452,14921 L 13925,15225 13925,15015 14088,14921 14452,14921 Z M 15134,14317 L 15865,13895 15865,14105 15134,14527 15134,14317 Z M 15115,14538 L 14484,14902 14121,14902 15115,14328 15115,14538 Z"/>
     <path fill="rgb(121,121,121)" stroke="none" d="M 14484,14902 L 13925,15225 13925,15015 14121,14902 14484,14902 Z M 15115,14328 L 15865,13895 15865,14105 15115,14538 15115,14328 Z M 15096,14549 L 14517,14883 14154,14883 15096,14339 15096,14549 Z"/>
     <path fill="rgb(122,122,122)" stroke="none" d="M 14517,14883 L 13925,15225 13925,15015 14154,14883 14517,14883 Z M 15096,14339 L 15865,13895 15865,14105 15096,14549 15096,14339 Z M 15076,14561 L 14552,14863 14188,14863 15076,14351 15076,14561 Z"/>
     <path fill="rgb(123,123,123)" stroke="none" d="M 14552,14863 L 13925,15225 13925,15015 14188,14863 14552,14863 Z M 15076,14351 L 15865,13895 15865,14105 15076,14561 15076,14351 Z M 15057,14571 L 14585,14844 14221,14844 15057,14361 15057,14571 Z"/>
     <path fill="rgb(124,124,124)" stroke="none" d="M 14585,14844 L 13925,15225 13925,15015 14221,14844 14585,14844 Z M 15057,14361 L 15865,13895 15865,14105 15057,14571 15057,14361 Z M 15038,14582 L 14618,14825 14254,14825 15038,14372 15038,14582 Z"/>
     <path fill="rgb(125,125,125)" stroke="none" d="M 14618,14825 L 13925,15225 13925,15015 14254,14825 14618,14825 Z M 15038,14372 L 15865,13895 15865,14105 15038,14582 15038,14372 Z M 15019,14593 L 14651,14806 14287,14806 15019,14383 15019,14593 Z"/>
     <path fill="rgb(126,126,126)" stroke="none" d="M 14651,14806 L 13925,15225 13925,15015 14287,14806 14651,14806 Z M 15019,14383 L 15865,13895 15865,14105 15019,14593 15019,14383 Z M 15000,14604 L 14684,14787 14320,14787 15000,14394 15000,14604 Z"/>
     <path fill="rgb(127,127,127)" stroke="none" d="M 14684,14787 L 13925,15225 13925,15015 14320,14787 14684,14787 Z M 15000,14394 L 15865,13895 15865,14105 15000,14604 15000,14394 Z M 14981,14615 L 14717,14768 14353,14768 14981,14405 14981,14615 Z"/>
     <path fill="rgb(128,128,128)" stroke="none" d="M 14717,14768 L 13925,15225 13925,15015 14353,14768 14717,14768 Z M 14981,14405 L 15865,13895 15865,14105 14981,14615 14981,14405 Z M 14962,14626 L 14750,14749 14386,14749 14962,14416 14962,14626 Z"/>
     <path fill="rgb(129,129,129)" stroke="none" d="M 14750,14749 L 13925,15225 13925,15015 14386,14749 14750,14749 Z M 14962,14416 L 15865,13895 15865,14105 14962,14626 14962,14416 Z M 14943,14637 L 14782,14730 14419,14730 14943,14427 14943,14637 Z"/>
     <path fill="rgb(130,130,130)" stroke="none" d="M 14782,14730 L 13925,15225 13925,15015 14419,14730 14782,14730 Z M 14943,14427 L 15865,13895 15865,14105 14943,14637 14943,14427 Z M 14924,14648 L 14815,14711 14452,14711 14924,14438 14924,14648 Z"/>
     <path fill="rgb(131,131,131)" stroke="none" d="M 14815,14711 L 13925,15225 13925,15015 14452,14711 14815,14711 Z M 14924,14438 L 15865,13895 15865,14105 14924,14648 14924,14438 Z M 14905,14659 L 14848,14692 14484,14692 14905,14449 14905,14659 Z"/>
     <path fill="rgb(132,132,132)" stroke="none" d="M 14848,14692 L 13925,15225 13925,15015 14484,14692 14848,14692 Z M 14905,14449 L 15865,13895 15865,14105 14905,14659 14905,14449 Z M 14886,14670 L 14881,14673 14517,14673 14886,14460 14886,14670 Z"/>
     <path fill="rgb(133,133,133)" stroke="none" d="M 14881,14673 L 13925,15225 13925,15015 14517,14673 14881,14673 Z M 14886,14460 L 15865,13895 15865,14105 14886,14670 14886,14460 Z M 14867,14654 L 14550,14654 14867,14471 14867,14654 Z"/>
     <path fill="rgb(134,134,134)" stroke="none" d="M 14867,14654 L 14867,14471 15865,13895 15865,14105 13925,15225 13925,15015 14550,14654 14867,14654 Z M 14848,14635 L 14583,14635 14848,14482 14848,14635 Z"/>
     <path fill="rgb(135,135,135)" stroke="none" d="M 14848,14635 L 14848,14482 15865,13895 15865,14105 13925,15225 13925,15015 14583,14635 14848,14635 Z M 14829,14616 L 14616,14616 14829,14493 14829,14616 Z"/>
     <path fill="rgb(136,136,136)" stroke="none" d="M 14829,14616 L 14829,14493 15865,13895 15865,14105 13925,15225 13925,15015 14616,14616 14829,14616 Z M 14810,14597 L 14649,14597 14810,14504 14810,14597 Z"/>
     <path fill="rgb(137,137,137)" stroke="none" d="M 14810,14597 L 14810,14504 15865,13895 15865,14105 13925,15225 13925,15015 14649,14597 14810,14597 Z M 14791,14578 L 14682,14578 14791,14515 14791,14578 Z"/>
     <path fill="rgb(138,138,138)" stroke="none" d="M 14791,14578 L 14791,14515 15865,13895 15865,14105 13925,15225 13925,15015 14682,14578 14791,14578 Z M 14772,14559 L 14715,14559 14772,14526 14772,14559 Z"/>
     <path fill="rgb(139,139,139)" stroke="none" d="M 14772,14559 L 14772,14526 15865,13895 15865,14105 13925,15225 13925,15015 14715,14559 14772,14559 Z M 14753,14540 L 14748,14540 14753,14537 14753,14540 Z"/>
     <path fill="rgb(140,140,140)" stroke="none" d="M 14753,14540 L 14753,14537 15865,13895 15865,14105 13925,15225 13925,15015 14748,14540 14753,14540 Z"/>
     <path fill="rgb(141,141,141)" stroke="none" d="M 15865,14105 L 13925,15225 13925,15015 15865,13895 15865,14105 Z"/>
     <path fill="rgb(142,142,142)" stroke="none" d="M 15865,14105 L 13925,15225 13925,15015 15865,13895 15865,14105 Z"/>
     <path fill="rgb(143,143,143)" stroke="none" d="M 15865,14105 L 13925,15225 13925,15015 15865,13895 15865,14105 Z"/>
     <path fill="rgb(144,144,144)" stroke="none" d="M 15865,14105 L 13925,15225 13925,15015 15865,13895 15865,14105 Z"/>
     <path fill="rgb(145,145,145)" stroke="none" d="M 15865,14105 L 13925,15225 13925,15015 15865,13895 15865,14105 Z"/>
     <path fill="rgb(146,146,146)" stroke="none" d="M 15865,14105 L 13925,15225 13925,15015 15865,13895 15865,14105 Z"/>
     <path fill="rgb(147,147,147)" stroke="none" d="M 15865,14105 L 13925,15225 13925,15015 15865,13895 15865,14105 Z"/>
     <path fill="rgb(148,148,148)" stroke="none" d="M 15865,14105 L 13925,15225 13925,15015 15865,13895 15865,14105 Z"/>
     <path fill="rgb(149,149,149)" stroke="none" d="M 15865,14105 L 13925,15225 13925,15015 15865,13895 15865,14105 Z"/>
     <path fill="rgb(150,150,150)" stroke="none" d="M 15865,14105 L 13925,15225 13925,15015 15865,13895 15865,14105 Z"/>
     <path fill="rgb(151,151,151)" stroke="none" d="M 15865,14105 L 13925,15225 13925,15015 15865,13895 15865,14105 Z"/>
     <path fill="rgb(153,153,153)" stroke="none" d="M 15865,14105 L 13925,15225 13925,15015 15865,13895 15865,14105 Z"/>
     <path fill="none" stroke="rgb(178,178,178)" id="Drawing_2_0" stroke-width="40" stroke-linejoin="round" d="M 15865,14105 L 15865,13895 13925,15015 13925,15225 15865,14105 Z"/>
    </g>
    <g>
     <defs>
      <linearGradient id="Gradient_226" gradientUnits="userSpaceOnUse" x1="13440" y1="12215" x2="13440" y2="15015">
       <stop offset="0.1" stop-color="rgb(51,51,51)"/>
       <stop offset="1" stop-color="rgb(153,153,153)"/>
      </linearGradient>
     </defs>
     <path fill="url(#Gradient_226)" stroke="rgb(178,178,178)" id="Drawing_3_0" stroke-width="40" stroke-linejoin="round" d="M 13925,15015 L 15865,13895 12955,12215 11015,13335 13925,15015 Z"/>
    </g>
    <g>
     <defs>
      <linearGradient id="Gradient_227" gradientUnits="userSpaceOnUse" x1="11013" y1="14277" x2="13927" y2="14283">
       <stop offset="0.1" stop-color="rgb(102,102,102)"/>
       <stop offset="1" stop-color="rgb(153,153,153)"/>
      </linearGradient>
     </defs>
     <path fill="url(#Gradient_227)" stroke="rgb(178,178,178)" id="Drawing_4_0" stroke-width="40" stroke-linejoin="round" d="M 13925,15225 L 13925,15015 11015,13335 11015,13545 13925,15225 Z"/>
    </g>
    <g>
     <defs>
      <linearGradient id="Gradient_228" gradientUnits="userSpaceOnUse" x1="13440" y1="12215" x2="13440" y2="14875">
       <stop offset="0.1" stop-color="rgb(51,51,51)"/>
       <stop offset="1" stop-color="rgb(153,153,153)"/>
      </linearGradient>
     </defs>
     <path fill="url(#Gradient_228)" stroke="rgb(178,178,178)" id="Drawing_5_0" stroke-width="40" stroke-linejoin="round" d="M 13804,14875 L 15744,13755 13077,12215 11137,13335 13804,14875 Z"/>
    </g>
    <g>
     <path fill="none" stroke="rgb(0,0,0)" id="Drawing_6_0" stroke-width="40" stroke-linejoin="round" d="M 12955,12215 L 11015,13335 11015,13545 13925,15225 15865,14105 15865,13895 15744,13825 15744,13755 13077,12215 12955,12215 Z"/>
    </g>
   </g>
  </g>
 </g>
</svg>