<?xml version="1.0" encoding="UTF-8"?>

<svg version="1.2" baseProfile="tiny" width="50.56mm" height="30.5mm" viewBox="1848 3237 5056 3050" preserveAspectRatio="xMidYMid" fill-rule="evenodd" stroke-width="28.222" stroke-linejoin="round" xmlns="http://www.w3.org/2000/svg" xmlns:xlink="http://www.w3.org/1999/xlink" xml:space="preserve">
 <g visibility="visible" id="Slide_1">
  <g id="DrawingGroup_1">
   <g>
    <path fill="rgb(221,221,221)" stroke="none" d="M 4778,5707 C 5035,5707 6718,4797 6839,4727 6960,4657 6905,4447 6718,4447 L 4778,5707 Z"/>
    <path fill="none" stroke="rgb(221,221,221)" id="Drawing_1_0" stroke-linejoin="round" d="M 4778,5707 C 5035,5707 6718,4797 6839,4727 6960,4657 6905,4447 6718,4447 L 4778,5707 Z"/>
   </g>
   <g id="DrawingGroup_2">
    <g>
     <defs>
      <linearGradient id="Gradient_217" gradientUnits="userSpaceOnUse" x1="1867" y1="5600" x2="3809" y2="5604">
       <stop offset="0.1" stop-color="rgb(179,179,179)"/>
       <stop offset="1" stop-color="rgb(229,229,229)"/>
      </linearGradient>
     </defs>
     <path fill="url(#Gradient_217)" stroke="rgb(255,255,255)" id="Drawing_2_0" stroke-width="40" stroke-linejoin="round" d="M 1868,5147 L 1868,4937 3808,6057 3808,6267 1868,5147 Z"/>
    </g>
    <g>
     <defs>
      <linearGradient id="Gradient_218" gradientUnits="userSpaceOnUse" x1="4293" y1="3257" x2="4293" y2="6057">
       <stop offset="0.1" stop-color="rgb(179,179,179)"/>
       <stop offset="1" stop-color="rgb(229,229,229)"/>
      </linearGradient>
     </defs>
     <path fill="url(#Gradient_218)" stroke="rgb(255,255,255)" id="Drawing_3_0" stroke-width="40" stroke-linejoin="round" d="M 3808,6057 L 1868,4937 4778,3257 6718,4377 3808,6057 Z"/>
    </g>
    <g>
     <path fill="rgb(179,179,179)" stroke="none" d="M 6106,4940 L 3808,6267 3808,6057 6106,4730 6106,4940 Z"/>
     <path fill="rgb(180,180,180)" stroke="none" d="M 6106,4730 L 6718,4377 6718,4587 6106,4940 6106,4730 Z M 6077,4957 L 3808,6267 3808,6057 6077,4747 6077,4957 Z"/>
     <path fill="rgb(181,181,181)" stroke="none" d="M 6077,4747 L 6718,4377 6718,4587 6077,4957 6077,4747 Z M 6048,4974 L 3808,6267 3808,6057 6048,4764 6048,4974 Z"/>
     <path fill="rgb(182,182,182)" stroke="none" d="M 6048,4764 L 6718,4377 6718,4587 6048,4974 6048,4764 Z M 6019,4991 L 3808,6267 3808,6057 6019,4781 6019,4991 Z"/>
     <path fill="rgb(183,183,183)" stroke="none" d="M 6019,4781 L 6718,4377 6718,4587 6019,4991 6019,4781 Z M 5990,5007 L 3832,6253 3808,6253 3808,6057 5990,4797 5990,5007 Z"/>
     <path fill="rgb(184,184,184)" stroke="none" d="M 3832,6253 L 3808,6267 3808,6253 3832,6253 Z M 5990,4797 L 6718,4377 6718,4587 5990,5007 5990,4797 Z M 5961,5024 L 3882,6224 3808,6224 3808,6057 5961,4814 5961,5024 Z"/>
     <path fill="rgb(185,185,185)" stroke="none" d="M 3882,6224 L 3808,6267 3808,6224 3882,6224 Z M 5961,4814 L 6718,4377 6718,4587 5961,5024 5961,4814 Z M 5932,5041 L 3933,6195 3808,6195 3808,6057 5932,4831 5932,5041 Z"/>
     <path fill="rgb(186,186,186)" stroke="none" d="M 3933,6195 L 3808,6267 3808,6195 3933,6195 Z M 5932,4831 L 6718,4377 6718,4587 5932,5041 5932,4831 Z M 5902,5058 L 3985,6165 3808,6165 3808,6057 5902,4848 5902,5058 Z"/>
     <path fill="rgb(187,187,187)" stroke="none" d="M 3985,6165 L 3808,6267 3808,6165 3985,6165 Z M 5902,4848 L 6718,4377 6718,4587 5902,5058 5902,4848 Z M 5873,5075 L 4035,6136 3808,6136 3808,6057 5873,4865 5873,5075 Z"/>
     <path fill="rgb(188,188,188)" stroke="none" d="M 4035,6136 L 3808,6267 3808,6136 4035,6136 Z M 5873,4865 L 6718,4377 6718,4587 5873,5075 5873,4865 Z M 5844,5092 L 4085,6107 3808,6107 3808,6057 5844,4882 5844,5092 Z"/>
     <path fill="rgb(189,189,189)" stroke="none" d="M 4085,6107 L 3808,6267 3808,6107 4085,6107 Z M 5844,4882 L 6718,4377 6718,4587 5844,5092 5844,4882 Z M 5815,5108 L 4135,6078 3808,6078 3808,6057 5815,4898 5815,5108 Z"/>
     <path fill="rgb(190,190,190)" stroke="none" d="M 4135,6078 L 3808,6267 3808,6078 4135,6078 Z M 5815,4898 L 6718,4377 6718,4587 5815,5108 5815,4898 Z M 5786,5125 L 4186,6049 3822,6049 5786,4915 5786,5125 Z"/>
     <path fill="rgb(191,191,191)" stroke="none" d="M 4186,6049 L 3808,6267 3808,6057 3822,6049 4186,6049 Z M 5786,4915 L 6718,4377 6718,4587 5786,5125 5786,4915 Z M 5757,5142 L 4236,6020 3872,6020 5757,4932 5757,5142 Z"/>
     <path fill="rgb(192,192,192)" stroke="none" d="M 4236,6020 L 3808,6267 3808,6057 3872,6020 4236,6020 Z M 5757,4932 L 6718,4377 6718,4587 5757,5142 5757,4932 Z M 5728,5159 L 4286,5991 3922,5991 5728,4949 5728,5159 Z"/>
     <path fill="rgb(193,193,193)" stroke="none" d="M 4286,5991 L 3808,6267 3808,6057 3922,5991 4286,5991 Z M 5728,4949 L 6718,4377 6718,4587 5728,5159 5728,4949 Z M 5699,5175 L 4336,5962 3973,5962 5699,4965 5699,5175 Z"/>
     <path fill="rgb(194,194,194)" stroke="none" d="M 4336,5962 L 3808,6267 3808,6057 3973,5962 4336,5962 Z M 5699,4965 L 6718,4377 6718,4587 5699,5175 5699,4965 Z M 5669,5193 L 4388,5932 4025,5932 5669,4983 5669,5193 Z"/>
     <path fill="rgb(195,195,195)" stroke="none" d="M 4388,5932 L 3808,6267 3808,6057 4025,5932 4388,5932 Z M 5669,4983 L 6718,4377 6718,4587 5669,5193 5669,4983 Z M 5640,5209 L 4439,5903 4075,5903 5640,4999 5640,5209 Z"/>
     <path fill="rgb(196,196,196)" stroke="none" d="M 4439,5903 L 3808,6267 3808,6057 4075,5903 4439,5903 Z M 5640,4999 L 6718,4377 6718,4587 5640,5209 5640,4999 Z M 5611,5226 L 4489,5874 4125,5874 5611,5016 5611,5226 Z"/>
     <path fill="rgb(197,197,197)" stroke="none" d="M 4489,5874 L 3808,6267 3808,6057 4125,5874 4489,5874 Z M 5611,5016 L 6718,4377 6718,4587 5611,5226 5611,5016 Z M 5582,5243 L 4539,5845 4175,5845 5582,5033 5582,5243 Z"/>
     <path fill="rgb(198,198,198)" stroke="none" d="M 4539,5845 L 3808,6267 3808,6057 4175,5845 4539,5845 Z M 5582,5033 L 6718,4377 6718,4587 5582,5243 5582,5033 Z M 5553,5260 L 4589,5816 4225,5816 5553,5050 5553,5260 Z"/>
     <path fill="rgb(199,199,199)" stroke="none" d="M 4589,5816 L 3808,6267 3808,6057 4225,5816 4589,5816 Z M 5553,5050 L 6718,4377 6718,4587 5553,5260 5553,5050 Z M 5524,5276 L 4639,5787 4276,5787 5524,5066 5524,5276 Z"/>
     <path fill="rgb(200,200,200)" stroke="none" d="M 4639,5787 L 3808,6267 3808,6057 4276,5787 4639,5787 Z M 5524,5066 L 6718,4377 6718,4587 5524,5276 5524,5066 Z M 5495,5293 L 4690,5758 4326,5758 5495,5083 5495,5293 Z"/>
     <path fill="rgb(201,201,201)" stroke="none" d="M 4690,5758 L 3808,6267 3808,6057 4326,5758 4690,5758 Z M 5495,5083 L 6718,4377 6718,4587 5495,5293 5495,5083 Z M 5466,5310 L 4740,5729 4376,5729 5466,5100 5466,5310 Z"/>
     <path fill="rgb(202,202,202)" stroke="none" d="M 4740,5729 L 3808,6267 3808,6057 4376,5729 4740,5729 Z M 5466,5100 L 6718,4377 6718,4587 5466,5310 5466,5100 Z M 5436,5327 L 4792,5699 4428,5699 5436,5117 5436,5327 Z"/>
     <path fill="rgb(203,203,203)" stroke="none" d="M 4792,5699 L 3808,6267 3808,6057 4428,5699 4792,5699 Z M 5436,5117 L 6718,4377 6718,4587 5436,5327 5436,5117 Z M 5407,5344 L 4842,5670 4478,5670 5407,5134 5407,5344 Z"/>
     <path fill="rgb(204,204,204)" stroke="none" d="M 4842,5670 L 3808,6267 3808,6057 4478,5670 4842,5670 Z M 5407,5134 L 6718,4377 6718,4587 5407,5344 5407,5134 Z M 5378,5361 L 4892,5641 4529,5641 5378,5151 5378,5361 Z"/>
     <path fill="rgb(205,205,205)" stroke="none" d="M 4892,5641 L 3808,6267 3808,6057 4529,5641 4892,5641 Z M 5378,5151 L 6718,4377 6718,4587 5378,5361 5378,5151 Z M 5349,5377 L 4943,5612 4579,5612 5349,5167 5349,5377 Z"/>
     <path fill="rgb(206,206,206)" stroke="none" d="M 4943,5612 L 3808,6267 3808,6057 4579,5612 4943,5612 Z M 5349,5167 L 6718,4377 6718,4587 5349,5377 5349,5167 Z M 5320,5394 L 4993,5583 4629,5583 5320,5184 5320,5394 Z"/>
     <path fill="rgb(207,207,207)" stroke="none" d="M 4993,5583 L 3808,6267 3808,6057 4629,5583 4993,5583 Z M 5320,5184 L 6718,4377 6718,4587 5320,5394 5320,5184 Z M 5291,5411 L 5043,5554 4679,5554 5291,5201 5291,5411 Z"/>
     <path fill="rgb(208,208,208)" stroke="none" d="M 5043,5554 L 3808,6267 3808,6057 4679,5554 5043,5554 Z M 5291,5201 L 6718,4377 6718,4587 5291,5411 5291,5201 Z M 5262,5428 L 5093,5525 4730,5525 5262,5218 5262,5428 Z"/>
     <path fill="rgb(209,209,209)" stroke="none" d="M 5093,5525 L 3808,6267 3808,6057 4730,5525 5093,5525 Z M 5262,5218 L 6718,4377 6718,4587 5262,5428 5262,5218 Z M 5232,5445 L 5145,5495 4781,5495 5232,5235 5232,5445 Z"/>
     <path fill="rgb(210,210,210)" stroke="none" d="M 5145,5495 L 3808,6267 3808,6057 4781,5495 5145,5495 Z M 5232,5235 L 6718,4377 6718,4587 5232,5445 5232,5235 Z M 5203,5462 L 5195,5466 4832,5466 5203,5252 5203,5462 Z"/>
     <path fill="rgb(211,211,211)" stroke="none" d="M 5195,5466 L 3808,6267 3808,6057 4832,5466 5195,5466 Z M 5203,5252 L 6718,4377 6718,4587 5203,5462 5203,5252 Z M 5174,5437 L 4882,5437 5174,5268 5174,5437 Z"/>
     <path fill="rgb(212,212,212)" stroke="none" d="M 5174,5437 L 5174,5268 6718,4377 6718,4587 3808,6267 3808,6057 4882,5437 5174,5437 Z M 5145,5408 L 4932,5408 5145,5285 5145,5408 Z"/>
     <path fill="rgb(213,213,213)" stroke="none" d="M 5145,5408 L 5145,5285 6718,4377 6718,4587 3808,6267 3808,6057 4932,5408 5145,5408 Z M 5116,5379 L 4982,5379 5116,5302 5116,5379 Z"/>
     <path fill="rgb(214,214,214)" stroke="none" d="M 5116,5379 L 5116,5302 6718,4377 6718,4587 3808,6267 3808,6057 4982,5379 5116,5379 Z M 5087,5350 L 5033,5350 5087,5319 5087,5350 Z"/>
     <path fill="rgb(215,215,215)" stroke="none" d="M 5087,5350 L 5087,5319 6718,4377 6718,4587 3808,6267 3808,6057 5033,5350 5087,5350 Z"/>
     <path fill="rgb(216,216,216)" stroke="none" d="M 3808,6267 L 3808,6057 6718,4377 6718,4587 3808,6267 Z"/>
     <path fill="rgb(217,217,217)" stroke="none" d="M 3808,6267 L 3808,6057 6718,4377 6718,4587 3808,6267 Z"/>
     <path fill="rgb(218,218,218)" stroke="none" d="M 3808,6267 L 3808,6057 6718,4377 6718,4587 3808,6267 Z"/>
     <path fill="rgb(219,219,219)" stroke="none" d="M 3808,6267 L 3808,6057 6718,4377 6718,4587 3808,6267 Z"/>
     <path fill="rgb(220,220,220)" stroke="none" d="M 3808,6267 L 3808,6057 6718,4377 6718,4587 3808,6267 Z"/>
     <path fill="rgb(221,221,221)" stroke="none" d="M 3808,6267 L 3808,6057 6718,4377 6718,4587 3808,6267 Z"/>
     <path fill="rgb(222,222,222)" stroke="none" d="M 3808,6267 L 3808,6057 6718,4377 6718,4587 3808,6267 Z"/>
     <path fill="rgb(223,223,223)" stroke="none" d="M 3808,6267 L 3808,6057 6718,4377 6718,4587 3808,6267 Z"/>
     <path fill="rgb(224,224,224)" stroke="none" d="M 3808,6267 L 3808,6057 6718,4377 6718,4587 3808,6267 Z"/>
     <path fill="rgb(225,225,225)" stroke="none" d="M 3808,6267 L 3808,6057 6718,4377 6718,4587 3808,6267 Z"/>
     <path fill="rgb(226,226,226)" stroke="none" d="M 3808,6267 L 3808,6057 6718,4377 6718,4587 3808,6267 Z"/>
     <path fill="rgb(227,227,227)" stroke="none" d="M 3808,6267 L 3808,6057 6718,4377 6718,4587 3808,6267 Z"/>
     <path fill="rgb(229,229,229)" stroke="none" d="M 3808,6267 L 3808,6057 6718,4377 6718,4587 3808,6267 Z"/>
     <path fill="none" stroke="rgb(255,255,255)" id="Drawing_4_0" stroke-width="40" stroke-linejoin="round" d="M 3808,6267 L 3808,6057 6718,4377 6718,4587 3808,6267 Z"/>
    </g>
    <g>
     <defs>
      <linearGradient id="Gradient_219" gradientUnits="userSpaceOnUse" x1="4292" y1="3257" x2="4292" y2="5917">
       <stop offset="0.1" stop-color="rgb(179,179,179)"/>
       <stop offset="1" stop-color="rgb(229,229,229)"/>
      </linearGradient>
     </defs>
     <path fill="url(#Gradient_219)" stroke="rgb(255,255,255)" id="Drawing_5_0" stroke-width="40" stroke-linejoin="round" d="M 3929,5917 L 1989,4797 4656,3257 6596,4377 3929,5917 Z"/>
    </g>
    <g>
     <path fill="none" stroke="rgb(0,0,0)" id="Drawing_6_0" stroke-width="40" stroke-linejoin="round" d="M 4778,3257 L 6718,4377 6718,4587 3808,6267 1868,5147 1868,4937 1989,4867 1989,4797 4656,3257 4778,3257 Z"/>
    </g>
   </g>
  </g>
 </g>
</svg>