<?xml version="1.0" encoding="UTF-8"?>

<svg version="1.2" baseProfile="tiny" width="50.75mm" height="30.5mm" viewBox="2123 9743 5075 3050" preserveAspectRatio="xMidYMid" fill-rule="evenodd" stroke-width="28.222" stroke-linejoin="round" xmlns="http://www.w3.org/2000/svg" xmlns:xlink="http://www.w3.org/1999/xlink" xml:space="preserve">
 <g visibility="visible" id="Slide_1">
  <g id="DrawingGroup_1">
   <g>
    <path fill="rgb(221,221,221)" stroke="none" d="M 5538,12493 C 5795,12493 6993,11863 7114,11793 7235,11723 7180,11513 6993,11513 L 5538,12493 Z"/>
    <path fill="none" stroke="rgb(221,221,221)" id="Drawing_1_0" stroke-width="40" stroke-linejoin="round" d="M 5538,12493 C 5795,12493 6993,11863 7114,11793 7235,11723 7180,11513 6993,11513 L 5538,12493 Z"/>
   </g>
   <g id="DrawingGroup_2">
    <g>
     <path fill="rgb(179,179,179)" stroke="none" d="M 6585,11889 L 5053,12773 5053,12563 6585,11679 6585,11889 Z"/>
     <path fill="rgb(180,180,180)" stroke="none" d="M 6585,11679 L 6993,11443 6993,11653 6585,11889 6585,11679 Z M 6566,11900 L 5053,12773 5053,12563 6566,11690 6566,11900 Z"/>
     <path fill="rgb(181,181,181)" stroke="none" d="M 6566,11690 L 6993,11443 6993,11653 6566,11900 6566,11690 Z M 6546,11911 L 5088,12753 5053,12753 5053,12563 6546,11701 6546,11911 Z"/>
     <path fill="rgb(182,182,182)" stroke="none" d="M 5088,12753 L 5053,12773 5053,12753 5088,12753 Z M 6546,11701 L 6993,11443 6993,11653 6546,11911 6546,11701 Z M 6527,11922 L 5121,12734 5053,12734 5053,12563 6527,11712 6527,11922 Z"/>
     <path fill="rgb(183,183,183)" stroke="none" d="M 5121,12734 L 5053,12773 5053,12734 5121,12734 Z M 6527,11712 L 6993,11443 6993,11653 6527,11922 6527,11712 Z M 6507,11934 L 5155,12714 5053,12714 5053,12563 6507,11724 6507,11934 Z"/>
     <path fill="rgb(184,184,184)" stroke="none" d="M 5155,12714 L 5053,12773 5053,12714 5155,12714 Z M 6507,11724 L 6993,11443 6993,11653 6507,11934 6507,11724 Z M 6488,11945 L 5188,12695 5053,12695 5053,12563 6488,11735 6488,11945 Z"/>
     <path fill="rgb(185,185,185)" stroke="none" d="M 5188,12695 L 5053,12773 5053,12695 5188,12695 Z M 6488,11735 L 6993,11443 6993,11653 6488,11945 6488,11735 Z M 6468,11956 L 5223,12675 5053,12675 5053,12563 6468,11746 6468,11956 Z"/>
     <path fill="rgb(186,186,186)" stroke="none" d="M 5223,12675 L 5053,12773 5053,12675 5223,12675 Z M 6468,11746 L 6993,11443 6993,11653 6468,11956 6468,11746 Z M 6449,11967 L 5256,12656 5053,12656 5053,12563 6449,11757 6449,11967 Z"/>
     <path fill="rgb(187,187,187)" stroke="none" d="M 5256,12656 L 5053,12773 5053,12656 5256,12656 Z M 6449,11757 L 6993,11443 6993,11653 6449,11967 6449,11757 Z M 6430,11978 L 5289,12637 5053,12637 5053,12563 6430,11768 6430,11978 Z"/>
     <path fill="rgb(188,188,188)" stroke="none" d="M 5289,12637 L 5053,12773 5053,12637 5289,12637 Z M 6430,11768 L 6993,11443 6993,11653 6430,11978 6430,11768 Z M 6410,11990 L 5323,12617 5053,12617 5053,12563 6410,11780 6410,11990 Z"/>
     <path fill="rgb(189,189,189)" stroke="none" d="M 5323,12617 L 5053,12773 5053,12617 5323,12617 Z M 6410,11780 L 6993,11443 6993,11653 6410,11990 6410,11780 Z M 6391,12001 L 5356,12598 5053,12598 5053,12563 6391,11791 6391,12001 Z"/>
     <path fill="rgb(190,190,190)" stroke="none" d="M 5356,12598 L 5053,12773 5053,12598 5356,12598 Z M 6391,11791 L 6993,11443 6993,11653 6391,12001 6391,11791 Z M 6371,12012 L 5391,12578 5053,12578 5053,12563 6371,11802 6371,12012 Z"/>
     <path fill="rgb(191,191,191)" stroke="none" d="M 5391,12578 L 5053,12773 5053,12578 5391,12578 Z M 6371,11802 L 6993,11443 6993,11653 6371,12012 6371,11802 Z M 6352,12023 L 5424,12559 5060,12559 6352,11813 6352,12023 Z"/>
     <path fill="rgb(192,192,192)" stroke="none" d="M 5424,12559 L 5053,12773 5053,12563 5060,12559 5424,12559 Z M 6352,11813 L 6993,11443 6993,11653 6352,12023 6352,11813 Z M 6332,12035 L 5458,12539 5095,12539 6332,11825 6332,12035 Z"/>
     <path fill="rgb(193,193,193)" stroke="none" d="M 5458,12539 L 5053,12773 5053,12563 5095,12539 5458,12539 Z M 6332,11825 L 6993,11443 6993,11653 6332,12035 6332,11825 Z M 6313,12046 L 5491,12520 5127,12520 6313,11836 6313,12046 Z"/>
     <path fill="rgb(194,194,194)" stroke="none" d="M 5491,12520 L 5053,12773 5053,12563 5127,12520 5491,12520 Z M 6313,11836 L 6993,11443 6993,11653 6313,12046 6313,11836 Z M 6294,12057 L 5524,12501 5160,12501 6294,11847 6294,12057 Z"/>
     <path fill="rgb(195,195,195)" stroke="none" d="M 5524,12501 L 5053,12773 5053,12563 5160,12501 5524,12501 Z M 6294,11847 L 6993,11443 6993,11653 6294,12057 6294,11847 Z M 6274,12068 L 5559,12481 5195,12481 6274,11858 6274,12068 Z"/>
     <path fill="rgb(196,196,196)" stroke="none" d="M 5559,12481 L 5053,12773 5053,12563 5195,12481 5559,12481 Z M 6274,11858 L 6993,11443 6993,11653 6274,12068 6274,11858 Z M 6255,12079 L 5592,12462 5228,12462 6255,11869 6255,12079 Z"/>
     <path fill="rgb(197,197,197)" stroke="none" d="M 5592,12462 L 5053,12773 5053,12563 5228,12462 5592,12462 Z M 6255,11869 L 6993,11443 6993,11653 6255,12079 6255,11869 Z M 6235,12091 L 5626,12442 5263,12442 6235,11881 6235,12091 Z"/>
     <path fill="rgb(198,198,198)" stroke="none" d="M 5626,12442 L 5053,12773 5053,12563 5263,12442 5626,12442 Z M 6235,11881 L 6993,11443 6993,11653 6235,12091 6235,11881 Z M 6216,12102 L 5659,12423 5296,12423 6216,11892 6216,12102 Z"/>
     <path fill="rgb(199,199,199)" stroke="none" d="M 5659,12423 L 5053,12773 5053,12563 5296,12423 5659,12423 Z M 6216,11892 L 6993,11443 6993,11653 6216,12102 6216,11892 Z M 6196,12113 L 5694,12403 5330,12403 6196,11903 6196,12113 Z"/>
     <path fill="rgb(200,200,200)" stroke="none" d="M 5694,12403 L 5053,12773 5053,12563 5330,12403 5694,12403 Z M 6196,11903 L 6993,11443 6993,11653 6196,12113 6196,11903 Z M 6177,12124 L 5727,12384 5363,12384 6177,11914 6177,12124 Z"/>
     <path fill="rgb(201,201,201)" stroke="none" d="M 5727,12384 L 5053,12773 5053,12563 5363,12384 5727,12384 Z M 6177,11914 L 6993,11443 6993,11653 6177,12124 6177,11914 Z M 6158,12135 L 5760,12365 5396,12365 6158,11925 6158,12135 Z"/>
     <path fill="rgb(202,202,202)" stroke="none" d="M 5760,12365 L 5053,12773 5053,12563 5396,12365 5760,12365 Z M 6158,11925 L 6993,11443 6993,11653 6158,12135 6158,11925 Z M 6138,12147 L 5794,12345 5431,12345 6138,11937 6138,12147 Z"/>
     <path fill="rgb(203,203,203)" stroke="none" d="M 5794,12345 L 5053,12773 5053,12563 5431,12345 5794,12345 Z M 6138,11937 L 6993,11443 6993,11653 6138,12147 6138,11937 Z M 6119,12158 L 5827,12326 5464,12326 6119,11948 6119,12158 Z"/>
     <path fill="rgb(204,204,204)" stroke="none" d="M 5827,12326 L 5053,12773 5053,12563 5464,12326 5827,12326 Z M 6119,11948 L 6993,11443 6993,11653 6119,12158 6119,11948 Z M 6099,12169 L 5862,12306 5498,12306 6099,11959 6099,12169 Z"/>
     <path fill="rgb(205,205,205)" stroke="none" d="M 5862,12306 L 5053,12773 5053,12563 5498,12306 5862,12306 Z M 6099,11959 L 6993,11443 6993,11653 6099,12169 6099,11959 Z M 6080,12180 L 5895,12287 5531,12287 6080,11970 6080,12180 Z"/>
     <path fill="rgb(206,206,206)" stroke="none" d="M 5895,12287 L 5053,12773 5053,12563 5531,12287 5895,12287 Z M 6080,11970 L 6993,11443 6993,11653 6080,12180 6080,11970 Z M 6060,12192 L 5929,12267 5566,12267 6060,11982 6060,12192 Z"/>
     <path fill="rgb(207,207,207)" stroke="none" d="M 5929,12267 L 5053,12773 5053,12563 5566,12267 5929,12267 Z M 6060,11982 L 6993,11443 6993,11653 6060,12192 6060,11982 Z M 6041,12203 L 5962,12248 5599,12248 6041,11993 6041,12203 Z"/>
     <path fill="rgb(208,208,208)" stroke="none" d="M 5962,12248 L 5053,12773 5053,12563 5599,12248 5962,12248 Z M 6041,11993 L 6993,11443 6993,11653 6041,12203 6041,11993 Z M 6022,12214 L 5995,12229 5632,12229 6022,12004 6022,12214 Z"/>
     <path fill="rgb(209,209,209)" stroke="none" d="M 5995,12229 L 5053,12773 5053,12563 5632,12229 5995,12229 Z M 6022,12004 L 6993,11443 6993,11653 6022,12214 6022,12004 Z M 6002,12209 L 5666,12209 6002,12015 6002,12209 Z"/>
     <path fill="rgb(210,210,210)" stroke="none" d="M 6002,12209 L 6002,12015 6993,11443 6993,11653 5053,12773 5053,12563 5666,12209 6002,12209 Z M 5983,12190 L 5699,12190 5983,12026 5983,12190 Z"/>
     <path fill="rgb(211,211,211)" stroke="none" d="M 5983,12190 L 5983,12026 6993,11443 6993,11653 5053,12773 5053,12563 5699,12190 5983,12190 Z M 5963,12170 L 5734,12170 5963,12038 5963,12170 Z"/>
     <path fill="rgb(212,212,212)" stroke="none" d="M 5963,12170 L 5963,12038 6993,11443 6993,11653 5053,12773 5053,12563 5734,12170 5963,12170 Z M 5944,12151 L 5767,12151 5944,12049 5944,12151 Z"/>
     <path fill="rgb(213,213,213)" stroke="none" d="M 5944,12151 L 5944,12049 6993,11443 6993,11653 5053,12773 5053,12563 5767,12151 5944,12151 Z M 5924,12131 L 5801,12131 5924,12060 5924,12131 Z"/>
     <path fill="rgb(214,214,214)" stroke="none" d="M 5924,12131 L 5924,12060 6993,11443 6993,11653 5053,12773 5053,12563 5801,12131 5924,12131 Z M 5905,12112 L 5834,12112 5905,12071 5905,12112 Z"/>
     <path fill="rgb(215,215,215)" stroke="none" d="M 5905,12112 L 5905,12071 6993,11443 6993,11653 5053,12773 5053,12563 5834,12112 5905,12112 Z M 5886,12093 L 5867,12093 5886,12082 5886,12093 Z"/>
     <path fill="rgb(216,216,216)" stroke="none" d="M 5886,12093 L 5886,12082 6993,11443 6993,11653 5053,12773 5053,12563 5867,12093 5886,12093 Z"/>
     <path fill="rgb(217,217,217)" stroke="none" d="M 6993,11653 L 5053,12773 5053,12563 6993,11443 6993,11653 Z"/>
     <path fill="rgb(218,218,218)" stroke="none" d="M 6993,11653 L 5053,12773 5053,12563 6993,11443 6993,11653 Z"/>
     <path fill="rgb(219,219,219)" stroke="none" d="M 6993,11653 L 5053,12773 5053,12563 6993,11443 6993,11653 Z"/>
     <path fill="rgb(220,220,220)" stroke="none" d="M 6993,11653 L 5053,12773 5053,12563 6993,11443 6993,11653 Z"/>
     <path fill="rgb(221,221,221)" stroke="none" d="M 6993,11653 L 5053,12773 5053,12563 6993,11443 6993,11653 Z"/>
     <path fill="rgb(222,222,222)" stroke="none" d="M 6993,11653 L 5053,12773 5053,12563 6993,11443 6993,11653 Z"/>
     <path fill="rgb(223,223,223)" stroke="none" d="M 6993,11653 L 5053,12773 5053,12563 6993,11443 6993,11653 Z"/>
     <path fill="rgb(224,224,224)" stroke="none" d="M 6993,11653 L 5053,12773 5053,12563 6993,11443 6993,11653 Z"/>
     <path fill="rgb(225,225,225)" stroke="none" d="M 6993,11653 L 5053,12773 5053,12563 6993,11443 6993,11653 Z"/>
     <path fill="rgb(226,226,226)" stroke="none" d="M 6993,11653 L 5053,12773 5053,12563 6993,11443 6993,11653 Z"/>
     <path fill="rgb(227,227,227)" stroke="none" d="M 6993,11653 L 5053,12773 5053,12563 6993,11443 6993,11653 Z"/>
     <path fill="rgb(229,229,229)" stroke="none" d="M 6993,11653 L 5053,12773 5053,12563 6993,11443 6993,11653 Z"/>
     <path fill="none" stroke="rgb(255,255,255)" id="Drawing_2_0" stroke-width="40" stroke-linejoin="round" d="M 6993,11653 L 6993,11443 5053,12563 5053,12773 6993,11653 Z"/>
    </g>
    <g>
     <defs>
      <linearGradient id="Gradient_223" gradientUnits="userSpaceOnUse" x1="4568" y1="9763" x2="4568" y2="12563">
       <stop offset="0.1" stop-color="rgb(179,179,179)"/>
       <stop offset="1" stop-color="rgb(229,229,229)"/>
      </linearGradient>
     </defs>
     <path fill="url(#Gradient_223)" stroke="rgb(255,255,255)" id="Drawing_3_0" stroke-width="40" stroke-linejoin="round" d="M 5053,12563 L 6993,11443 4083,9763 2143,10883 5053,12563 Z"/>
    </g>
    <g>
     <defs>
      <linearGradient id="Gradient_224" gradientUnits="userSpaceOnUse" x1="2141" y1="11825" x2="5055" y2="11831">
       <stop offset="0.1" stop-color="rgb(179,179,179)"/>
       <stop offset="1" stop-color="rgb(229,229,229)"/>
      </linearGradient>
     </defs>
     <path fill="url(#Gradient_224)" stroke="rgb(255,255,255)" id="Drawing_4_0" stroke-width="40" stroke-linejoin="round" d="M 5053,12773 L 5053,12563 2143,10883 2143,11093 5053,12773 Z"/>
    </g>
    <g>
     <defs>
      <linearGradient id="Gradient_225" gradientUnits="userSpaceOnUse" x1="4568" y1="9763" x2="4568" y2="12423">
       <stop offset="0.1" stop-color="rgb(179,179,179)"/>
       <stop offset="1" stop-color="rgb(229,229,229)"/>
      </linearGradient>
     </defs>
     <path fill="url(#Gradient_225)" stroke="rgb(255,255,255)" id="Drawing_5_0" stroke-width="40" stroke-linejoin="round" d="M 4932,12423 L 6872,11303 4205,9763 2265,10883 4932,12423 Z"/>
    </g>
    <g>
     <path fill="none" stroke="rgb(0,0,0)" id="Drawing_6_0" stroke-width="40" stroke-linejoin="round" d="M 4083,9763 L 2143,10883 2143,11093 5053,12773 6993,11653 6993,11443 6872,11373 6872,11303 4205,9763 4083,9763 Z"/>
    </g>
   </g>
  </g>
 </g>
</svg>