<?xml version="1.0" encoding="UTF-8"?>

<svg version="1.2" baseProfile="tiny" width="50.56mm" height="61.3mm" viewBox="13414 7253 5056 6130" preserveAspectRatio="xMidYMid" fill-rule="evenodd" stroke-width="28.222" stroke-linejoin="round" xmlns="http://www.w3.org/2000/svg" xmlns:xlink="http://www.w3.org/1999/xlink" xml:space="preserve">
 <g visibility="visible" id="Slide_1">
  <g id="DrawingGroup_1">
   <g>
    <path fill="rgb(221,221,221)" stroke="none" d="M 16344,12803 C 16601,12803 18284,11893 18405,11823 18526,11753 18471,11543 18284,11543 L 16344,12803 Z"/>
    <path fill="none" stroke="rgb(221,221,221)" id="Drawing_1_0" stroke-linejoin="round" d="M 16344,12803 C 16601,12803 18284,11893 18405,11823 18526,11753 18471,11543 18284,11543 L 16344,12803 Z"/>
   </g>
   <g id="DrawingGroup_2">
    <g>
     <defs>
      <linearGradient id="Gradient_233" gradientUnits="userSpaceOnUse" x1="13433" y1="12696" x2="15375" y2="12700">
       <stop offset="0.1" stop-color="rgb(51,51,51)"/>
       <stop offset="1" stop-color="rgb(153,153,153)"/>
      </linearGradient>
     </defs>
     <path fill="url(#Gradient_233)" stroke="rgb(178,178,178)" id="Drawing_2_0" stroke-width="40" stroke-linejoin="round" d="M 13434,12243 L 13434,12033 15374,13153 15374,13363 13434,12243 Z"/>
    </g>
    <g>
     <defs>
      <linearGradient id="Gradient_234" gradientUnits="userSpaceOnUse" x1="15859" y1="10353" x2="15859" y2="13153">
       <stop offset="0.1" stop-color="rgb(51,51,51)"/>
       <stop offset="1" stop-color="rgb(153,153,153)"/>
      </linearGradient>
     </defs>
     <path fill="url(#Gradient_234)" stroke="rgb(178,178,178)" id="Drawing_3_0" stroke-width="40" stroke-linejoin="round" d="M 15374,13153 L 13434,12033 16344,10353 18284,11473 15374,13153 Z"/>
    </g>
    <g>
     <path fill="rgb(51,51,51)" stroke="none" d="M 17687,12028 L 15374,13363 15374,13153 17687,11818 17687,12028 Z"/>
     <path fill="rgb(52,52,52)" stroke="none" d="M 17687,11818 L 18284,11473 18284,11683 17687,12028 17687,11818 Z M 17673,12036 L 15374,13363 15374,13153 17673,11826 17673,12036 Z"/>
     <path fill="rgb(53,53,53)" stroke="none" d="M 17673,11826 L 18284,11473 18284,11683 17673,12036 17673,11826 Z M 17659,12044 L 15374,13363 15374,13153 17659,11834 17659,12044 Z"/>
     <path fill="rgb(54,54,54)" stroke="none" d="M 17659,11834 L 18284,11473 18284,11683 17659,12044 17659,11834 Z M 17644,12052 L 15374,13363 15374,13153 17644,11842 17644,12052 Z"/>
     <path fill="rgb(55,55,55)" stroke="none" d="M 17644,11842 L 18284,11473 18284,11683 17644,12052 17644,11842 Z M 17630,12061 L 15374,13363 15374,13153 17630,11851 17630,12061 Z"/>
     <path fill="rgb(56,56,56)" stroke="none" d="M 17630,11851 L 18284,11473 18284,11683 17630,12061 17630,11851 Z M 17616,12069 L 15374,13363 15374,13153 17616,11859 17616,12069 Z"/>
     <path fill="rgb(57,57,57)" stroke="none" d="M 17616,11859 L 18284,11473 18284,11683 17616,12069 17616,11859 Z M 17602,12077 L 15374,13363 15374,13153 17602,11867 17602,12077 Z"/>
     <path fill="rgb(58,58,58)" stroke="none" d="M 17602,11867 L 18284,11473 18284,11683 17602,12077 17602,11867 Z M 17587,12085 L 15374,13363 15374,13153 17587,11875 17587,12085 Z"/>
     <path fill="rgb(59,59,59)" stroke="none" d="M 17587,11875 L 18284,11473 18284,11683 17587,12085 17587,11875 Z M 17573,12093 L 15374,13363 15374,13153 17573,11883 17573,12093 Z"/>
     <path fill="rgb(60,60,60)" stroke="none" d="M 17573,11883 L 18284,11473 18284,11683 17573,12093 17573,11883 Z M 17559,12102 L 15393,13352 15374,13352 15374,13153 17559,11892 17559,12102 Z"/>
     <path fill="rgb(61,61,61)" stroke="none" d="M 15393,13352 L 15374,13363 15374,13352 15393,13352 Z M 17559,11892 L 18284,11473 18284,11683 17559,12102 17559,11892 Z M 17544,12110 L 15419,13337 15374,13337 15374,13153 17544,11900 17544,12110 Z"/>
     <path fill="rgb(62,62,62)" stroke="none" d="M 15419,13337 L 15374,13363 15374,13337 15419,13337 Z M 17544,11900 L 18284,11473 18284,11683 17544,12110 17544,11900 Z M 17530,12118 L 15443,13323 15374,13323 15374,13153 17530,11908 17530,12118 Z"/>
     <path fill="rgb(63,63,63)" stroke="none" d="M 15443,13323 L 15374,13363 15374,13323 15443,13323 Z M 17530,11908 L 18284,11473 18284,11683 17530,12118 17530,11908 Z M 17516,12126 L 15468,13309 15374,13309 15374,13153 17516,11916 17516,12126 Z"/>
     <path fill="rgb(64,64,64)" stroke="none" d="M 15468,13309 L 15374,13363 15374,13309 15468,13309 Z M 17516,11916 L 18284,11473 18284,11683 17516,12126 17516,11916 Z M 17502,12134 L 15492,13295 15374,13295 15374,13153 17502,11924 17502,12134 Z"/>
     <path fill="rgb(65,65,65)" stroke="none" d="M 15492,13295 L 15374,13363 15374,13295 15492,13295 Z M 17502,11924 L 18284,11473 18284,11683 17502,12134 17502,11924 Z M 17487,12143 L 15518,13280 15374,13280 15374,13153 17487,11933 17487,12143 Z"/>
     <path fill="rgb(66,66,66)" stroke="none" d="M 15518,13280 L 15374,13363 15374,13280 15518,13280 Z M 17487,11933 L 18284,11473 18284,11683 17487,12143 17487,11933 Z M 17473,12151 L 15542,13266 15374,13266 15374,13153 17473,11941 17473,12151 Z"/>
     <path fill="rgb(67,67,67)" stroke="none" d="M 15542,13266 L 15374,13363 15374,13266 15542,13266 Z M 17473,11941 L 18284,11473 18284,11683 17473,12151 17473,11941 Z M 17459,12159 L 15566,13252 15374,13252 15374,13153 17459,11949 17459,12159 Z"/>
     <path fill="rgb(68,68,68)" stroke="none" d="M 15566,13252 L 15374,13363 15374,13252 15566,13252 Z M 17459,11949 L 18284,11473 18284,11683 17459,12159 17459,11949 Z M 17444,12168 L 15592,13237 15374,13237 15374,13153 17444,11958 17444,12168 Z"/>
     <path fill="rgb(69,69,69)" stroke="none" d="M 15592,13237 L 15374,13363 15374,13237 15592,13237 Z M 17444,11958 L 18284,11473 18284,11683 17444,12168 17444,11958 Z M 17430,12176 L 15617,13223 15374,13223 15374,13153 17430,11966 17430,12176 Z"/>
     <path fill="rgb(70,70,70)" stroke="none" d="M 15617,13223 L 15374,13363 15374,13223 15617,13223 Z M 17430,11966 L 18284,11473 18284,11683 17430,12176 17430,11966 Z M 17416,12184 L 15641,13209 15374,13209 15374,13153 17416,11974 17416,12184 Z"/>
     <path fill="rgb(71,71,71)" stroke="none" d="M 15641,13209 L 15374,13363 15374,13209 15641,13209 Z M 17416,11974 L 18284,11473 18284,11683 17416,12184 17416,11974 Z M 17402,12192 L 15665,13195 15374,13195 15374,13153 17402,11982 17402,12192 Z"/>
     <path fill="rgb(72,72,72)" stroke="none" d="M 15665,13195 L 15374,13363 15374,13195 15665,13195 Z M 17402,11982 L 18284,11473 18284,11683 17402,12192 17402,11982 Z M 17387,12201 L 15691,13180 15374,13180 15374,13153 17387,11991 17387,12201 Z"/>
     <path fill="rgb(73,73,73)" stroke="none" d="M 15691,13180 L 15374,13363 15374,13180 15691,13180 Z M 17387,11991 L 18284,11473 18284,11683 17387,12201 17387,11991 Z M 17373,12209 L 15715,13166 15374,13166 15374,13153 17373,11999 17373,12209 Z"/>
     <path fill="rgb(74,74,74)" stroke="none" d="M 15715,13166 L 15374,13363 15374,13166 15715,13166 Z M 17373,11999 L 18284,11473 18284,11683 17373,12209 17373,11999 Z M 17359,12217 L 15739,13152 15376,13152 17359,12007 17359,12217 Z"/>
     <path fill="rgb(75,75,75)" stroke="none" d="M 15739,13152 L 15374,13363 15374,13153 15376,13152 15739,13152 Z M 17359,12007 L 18284,11473 18284,11683 17359,12217 17359,12007 Z M 17345,12225 L 15764,13138 15400,13138 17345,12015 17345,12225 Z"/>
     <path fill="rgb(76,76,76)" stroke="none" d="M 15764,13138 L 15374,13363 15374,13153 15400,13138 15764,13138 Z M 17345,12015 L 18284,11473 18284,11683 17345,12225 17345,12015 Z M 17330,12234 L 15790,13123 15426,13123 17330,12024 17330,12234 Z"/>
     <path fill="rgb(77,77,77)" stroke="none" d="M 15790,13123 L 15374,13363 15374,13153 15426,13123 15790,13123 Z M 17330,12024 L 18284,11473 18284,11683 17330,12234 17330,12024 Z M 17316,12242 L 15814,13109 15450,13109 17316,12032 17316,12242 Z"/>
     <path fill="rgb(78,78,78)" stroke="none" d="M 15814,13109 L 15374,13363 15374,13153 15450,13109 15814,13109 Z M 17316,12032 L 18284,11473 18284,11683 17316,12242 17316,12032 Z M 17302,12250 L 15838,13095 15474,13095 17302,12040 17302,12250 Z"/>
     <path fill="rgb(79,79,79)" stroke="none" d="M 15838,13095 L 15374,13363 15374,13153 15474,13095 15838,13095 Z M 17302,12040 L 18284,11473 18284,11683 17302,12250 17302,12040 Z M 17287,12259 L 15864,13080 15500,13080 17287,12049 17287,12259 Z"/>
     <path fill="rgb(80,80,80)" stroke="none" d="M 15864,13080 L 15374,13363 15374,13153 15500,13080 15864,13080 Z M 17287,12049 L 18284,11473 18284,11683 17287,12259 17287,12049 Z M 17273,12267 L 15888,13066 15525,13066 17273,12057 17273,12267 Z"/>
     <path fill="rgb(81,81,81)" stroke="none" d="M 15888,13066 L 15374,13363 15374,13153 15525,13066 15888,13066 Z M 17273,12057 L 18284,11473 18284,11683 17273,12267 17273,12057 Z M 17259,12275 L 15913,13052 15549,13052 17259,12065 17259,12275 Z"/>
     <path fill="rgb(82,82,82)" stroke="none" d="M 15913,13052 L 15374,13363 15374,13153 15549,13052 15913,13052 Z M 17259,12065 L 18284,11473 18284,11683 17259,12275 17259,12065 Z M 17245,12283 L 15937,13038 15573,13038 17245,12073 17245,12283 Z"/>
     <path fill="rgb(83,83,83)" stroke="none" d="M 15937,13038 L 15374,13363 15374,13153 15573,13038 15937,13038 Z M 17245,12073 L 18284,11473 18284,11683 17245,12283 17245,12073 Z M 17230,12291 L 15963,13023 15599,13023 17230,12081 17230,12291 Z"/>
     <path fill="rgb(84,84,84)" stroke="none" d="M 15963,13023 L 15374,13363 15374,13153 15599,13023 15963,13023 Z M 17230,12081 L 18284,11473 18284,11683 17230,12291 17230,12081 Z M 17216,12300 L 15987,13009 15623,13009 17216,12090 17216,12300 Z"/>
     <path fill="rgb(85,85,85)" stroke="none" d="M 15987,13009 L 15374,13363 15374,13153 15623,13009 15987,13009 Z M 17216,12090 L 18284,11473 18284,11683 17216,12300 17216,12090 Z M 17202,12308 L 16011,12995 15648,12995 17202,12098 17202,12308 Z"/>
     <path fill="rgb(86,86,86)" stroke="none" d="M 16011,12995 L 15374,13363 15374,13153 15648,12995 16011,12995 Z M 17202,12098 L 18284,11473 18284,11683 17202,12308 17202,12098 Z M 17187,12316 L 16037,12980 15674,12980 17187,12106 17187,12316 Z"/>
     <path fill="rgb(87,87,87)" stroke="none" d="M 16037,12980 L 15374,13363 15374,13153 15674,12980 16037,12980 Z M 17187,12106 L 18284,11473 18284,11683 17187,12316 17187,12106 Z M 17173,12324 L 16062,12966 15698,12966 17173,12114 17173,12324 Z"/>
     <path fill="rgb(88,88,88)" stroke="none" d="M 16062,12966 L 15374,13363 15374,13153 15698,12966 16062,12966 Z M 17173,12114 L 18284,11473 18284,11683 17173,12324 17173,12114 Z M 17159,12332 L 16086,12952 15722,12952 17159,12122 17159,12332 Z"/>
     <path fill="rgb(89,89,89)" stroke="none" d="M 16086,12952 L 15374,13363 15374,13153 15722,12952 16086,12952 Z M 17159,12122 L 18284,11473 18284,11683 17159,12332 17159,12122 Z M 17145,12341 L 16110,12938 15746,12938 17145,12131 17145,12341 Z"/>
     <path fill="rgb(90,90,90)" stroke="none" d="M 16110,12938 L 15374,13363 15374,13153 15746,12938 16110,12938 Z M 17145,12131 L 18284,11473 18284,11683 17145,12341 17145,12131 Z M 17130,12349 L 16136,12923 15772,12923 17130,12139 17130,12349 Z"/>
     <path fill="rgb(91,91,91)" stroke="none" d="M 16136,12923 L 15374,13363 15374,13153 15772,12923 16136,12923 Z M 17130,12139 L 18284,11473 18284,11683 17130,12349 17130,12139 Z M 17116,12357 L 16160,12909 15797,12909 17116,12147 17116,12357 Z"/>
     <path fill="rgb(92,92,92)" stroke="none" d="M 16160,12909 L 15374,13363 15374,13153 15797,12909 16160,12909 Z M 17116,12147 L 18284,11473 18284,11683 17116,12357 17116,12147 Z M 17102,12365 L 16185,12895 15821,12895 17102,12155 17102,12365 Z"/>
     <path fill="rgb(93,93,93)" stroke="none" d="M 16185,12895 L 15374,13363 15374,13153 15821,12895 16185,12895 Z M 17102,12155 L 18284,11473 18284,11683 17102,12365 17102,12155 Z M 17087,12374 L 16211,12880 15847,12880 17087,12164 17087,12374 Z"/>
     <path fill="rgb(94,94,94)" stroke="none" d="M 16211,12880 L 15374,13363 15374,13153 15847,12880 16211,12880 Z M 17087,12164 L 18284,11473 18284,11683 17087,12374 17087,12164 Z M 17073,12382 L 16235,12866 15871,12866 17073,12172 17073,12382 Z"/>
     <path fill="rgb(95,95,95)" stroke="none" d="M 16235,12866 L 15374,13363 15374,13153 15871,12866 16235,12866 Z M 17073,12172 L 18284,11473 18284,11683 17073,12382 17073,12172 Z M 17059,12390 L 16259,12852 15895,12852 17059,12180 17059,12390 Z"/>
     <path fill="rgb(96,96,96)" stroke="none" d="M 16259,12852 L 15374,13363 15374,13153 15895,12852 16259,12852 Z M 17059,12180 L 18284,11473 18284,11683 17059,12390 17059,12180 Z M 17045,12398 L 16283,12838 15920,12838 17045,12188 17045,12398 Z"/>
     <path fill="rgb(97,97,97)" stroke="none" d="M 16283,12838 L 15374,13363 15374,13153 15920,12838 16283,12838 Z M 17045,12188 L 18284,11473 18284,11683 17045,12398 17045,12188 Z M 17030,12407 L 16309,12823 15946,12823 17030,12197 17030,12407 Z"/>
     <path fill="rgb(98,98,98)" stroke="none" d="M 16309,12823 L 15374,13363 15374,13153 15946,12823 16309,12823 Z M 17030,12197 L 18284,11473 18284,11683 17030,12407 17030,12197 Z M 17016,12415 L 16334,12809 15970,12809 17016,12205 17016,12415 Z"/>
     <path fill="rgb(99,99,99)" stroke="none" d="M 16334,12809 L 15374,13363 15374,13153 15970,12809 16334,12809 Z M 17016,12205 L 18284,11473 18284,11683 17016,12415 17016,12205 Z M 17002,12423 L 16358,12795 15994,12795 17002,12213 17002,12423 Z"/>
     <path fill="rgb(100,100,100)" stroke="none" d="M 16358,12795 L 15374,13363 15374,13153 15994,12795 16358,12795 Z M 17002,12213 L 18284,11473 18284,11683 17002,12423 17002,12213 Z M 16988,12431 L 16382,12781 16018,12781 16988,12221 16988,12431 Z"/>
     <path fill="rgb(101,101,101)" stroke="none" d="M 16382,12781 L 15374,13363 15374,13153 16018,12781 16382,12781 Z M 16988,12221 L 18284,11473 18284,11683 16988,12431 16988,12221 Z M 16973,12440 L 16408,12766 16044,12766 16973,12230 16973,12440 Z"/>
     <path fill="rgb(102,102,102)" stroke="none" d="M 16408,12766 L 15374,13363 15374,13153 16044,12766 16408,12766 Z M 16973,12230 L 18284,11473 18284,11683 16973,12440 16973,12230 Z M 16959,12448 L 16432,12752 16069,12752 16959,12238 16959,12448 Z"/>
     <path fill="rgb(103,103,103)" stroke="none" d="M 16432,12752 L 15374,13363 15374,13153 16069,12752 16432,12752 Z M 16959,12238 L 18284,11473 18284,11683 16959,12448 16959,12238 Z M 16945,12456 L 16457,12738 16093,12738 16945,12246 16945,12456 Z"/>
     <path fill="rgb(104,104,104)" stroke="none" d="M 16457,12738 L 15374,13363 15374,13153 16093,12738 16457,12738 Z M 16945,12246 L 18284,11473 18284,11683 16945,12456 16945,12246 Z M 16930,12465 L 16483,12723 16119,12723 16930,12255 16930,12465 Z"/>
     <path fill="rgb(105,105,105)" stroke="none" d="M 16483,12723 L 15374,13363 15374,13153 16119,12723 16483,12723 Z M 16930,12255 L 18284,11473 18284,11683 16930,12465 16930,12255 Z M 16916,12473 L 16507,12709 16143,12709 16916,12263 16916,12473 Z"/>
     <path fill="rgb(106,106,106)" stroke="none" d="M 16507,12709 L 15374,13363 15374,13153 16143,12709 16507,12709 Z M 16916,12263 L 18284,11473 18284,11683 16916,12473 16916,12263 Z M 16902,12481 L 16531,12695 16167,12695 16902,12271 16902,12481 Z"/>
     <path fill="rgb(107,107,107)" stroke="none" d="M 16531,12695 L 15374,13363 15374,13153 16167,12695 16531,12695 Z M 16902,12271 L 18284,11473 18284,11683 16902,12481 16902,12271 Z M 16888,12489 L 16555,12681 16192,12681 16888,12279 16888,12489 Z"/>
     <path fill="rgb(108,108,108)" stroke="none" d="M 16555,12681 L 15374,13363 15374,13153 16192,12681 16555,12681 Z M 16888,12279 L 18284,11473 18284,11683 16888,12489 16888,12279 Z M 16873,12498 L 16581,12666 16218,12666 16873,12288 16873,12498 Z"/>
     <path fill="rgb(109,109,109)" stroke="none" d="M 16581,12666 L 15374,13363 15374,13153 16218,12666 16581,12666 Z M 16873,12288 L 18284,11473 18284,11683 16873,12498 16873,12288 Z M 16859,12506 L 16606,12652 16242,12652 16859,12296 16859,12506 Z"/>
     <path fill="rgb(110,110,110)" stroke="none" d="M 16606,12652 L 15374,13363 15374,13153 16242,12652 16606,12652 Z M 16859,12296 L 18284,11473 18284,11683 16859,12506 16859,12296 Z M 16845,12514 L 16630,12638 16266,12638 16845,12304 16845,12514 Z"/>
     <path fill="rgb(111,111,111)" stroke="none" d="M 16630,12638 L 15374,13363 15374,13153 16266,12638 16630,12638 Z M 16845,12304 L 18284,11473 18284,11683 16845,12514 16845,12304 Z M 16830,12522 L 16656,12623 16292,12623 16830,12312 16830,12522 Z"/>
     <path fill="rgb(112,112,112)" stroke="none" d="M 16656,12623 L 15374,13363 15374,13153 16292,12623 16656,12623 Z M 16830,12312 L 18284,11473 18284,11683 16830,12522 16830,12312 Z M 16816,12531 L 16680,12609 16316,12609 16816,12321 16816,12531 Z"/>
     <path fill="rgb(113,113,113)" stroke="none" d="M 16680,12609 L 15374,13363 15374,13153 16316,12609 16680,12609 Z M 16816,12321 L 18284,11473 18284,11683 16816,12531 16816,12321 Z M 16802,12539 L 16704,12595 16341,12595 16802,12329 16802,12539 Z"/>
     <path fill="rgb(114,114,114)" stroke="none" d="M 16704,12595 L 15374,13363 15374,13153 16341,12595 16704,12595 Z M 16802,12329 L 18284,11473 18284,11683 16802,12539 16802,12329 Z M 16788,12547 L 16729,12581 16365,12581 16788,12337 16788,12547 Z"/>
     <path fill="rgb(115,115,115)" stroke="none" d="M 16729,12581 L 15374,13363 15374,13153 16365,12581 16729,12581 Z M 16788,12337 L 18284,11473 18284,11683 16788,12547 16788,12337 Z M 16773,12555 L 16755,12566 16391,12566 16773,12345 16773,12555 Z"/>
     <path fill="rgb(116,116,116)" stroke="none" d="M 16755,12566 L 15374,13363 15374,13153 16391,12566 16755,12566 Z M 16773,12345 L 18284,11473 18284,11683 16773,12555 16773,12345 Z M 16759,12552 L 16415,12552 16759,12353 16759,12552 Z"/>
     <path fill="rgb(117,117,117)" stroke="none" d="M 16759,12552 L 16759,12353 18284,11473 18284,11683 15374,13363 15374,13153 16415,12552 16759,12552 Z M 16745,12538 L 16439,12538 16745,12361 16745,12538 Z"/>
     <path fill="rgb(118,118,118)" stroke="none" d="M 16745,12538 L 16745,12361 18284,11473 18284,11683 15374,13363 15374,13153 16439,12538 16745,12538 Z M 16731,12524 L 16464,12524 16731,12370 16731,12524 Z"/>
     <path fill="rgb(119,119,119)" stroke="none" d="M 16731,12524 L 16731,12370 18284,11473 18284,11683 15374,13363 15374,13153 16464,12524 16731,12524 Z M 16716,12509 L 16490,12509 16716,12378 16716,12509 Z"/>
     <path fill="rgb(120,120,120)" stroke="none" d="M 16716,12509 L 16716,12378 18284,11473 18284,11683 15374,13363 15374,13153 16490,12509 16716,12509 Z M 16702,12495 L 16514,12495 16702,12386 16702,12495 Z"/>
     <path fill="rgb(121,121,121)" stroke="none" d="M 16702,12495 L 16702,12386 18284,11473 18284,11683 15374,13363 15374,13153 16514,12495 16702,12495 Z M 16688,12481 L 16538,12481 16688,12394 16688,12481 Z"/>
     <path fill="rgb(122,122,122)" stroke="none" d="M 16688,12481 L 16688,12394 18284,11473 18284,11683 15374,13363 15374,13153 16538,12481 16688,12481 Z M 16673,12466 L 16564,12466 16673,12403 16673,12466 Z"/>
     <path fill="rgb(123,123,123)" stroke="none" d="M 16673,12466 L 16673,12403 18284,11473 18284,11683 15374,13363 15374,13153 16564,12466 16673,12466 Z M 16659,12452 L 16588,12452 16659,12411 16659,12452 Z"/>
     <path fill="rgb(124,124,124)" stroke="none" d="M 16659,12452 L 16659,12411 18284,11473 18284,11683 15374,13363 15374,13153 16588,12452 16659,12452 Z M 16645,12438 L 16612,12438 16645,12419 16645,12438 Z"/>
     <path fill="rgb(125,125,125)" stroke="none" d="M 16645,12438 L 16645,12419 18284,11473 18284,11683 15374,13363 15374,13153 16612,12438 16645,12438 Z"/>
     <path fill="rgb(126,126,126)" stroke="none" d="M 15374,13363 L 15374,13153 18284,11473 18284,11683 15374,13363 Z"/>
     <path fill="rgb(127,127,127)" stroke="none" d="M 15374,13363 L 15374,13153 18284,11473 18284,11683 15374,13363 Z"/>
     <path fill="rgb(128,128,128)" stroke="none" d="M 15374,13363 L 15374,13153 18284,11473 18284,11683 15374,13363 Z"/>
     <path fill="rgb(129,129,129)" stroke="none" d="M 15374,13363 L 15374,13153 18284,11473 18284,11683 15374,13363 Z"/>
     <path fill="rgb(130,130,130)" stroke="none" d="M 15374,13363 L 15374,13153 18284,11473 18284,11683 15374,13363 Z"/>
     <path fill="rgb(131,131,131)" stroke="none" d="M 15374,13363 L 15374,13153 18284,11473 18284,11683 15374,13363 Z"/>
     <path fill="rgb(132,132,132)" stroke="none" d="M 15374,13363 L 15374,13153 18284,11473 18284,11683 15374,13363 Z"/>
     <path fill="rgb(133,133,133)" stroke="none" d="M 15374,13363 L 15374,13153 18284,11473 18284,11683 15374,13363 Z"/>
     <path fill="rgb(134,134,134)" stroke="none" d="M 15374,13363 L 15374,13153 18284,11473 18284,11683 15374,13363 Z"/>
     <path fill="rgb(135,135,135)" stroke="none" d="M 15374,13363 L 15374,13153 18284,11473 18284,11683 15374,13363 Z"/>
     <path fill="rgb(136,136,136)" stroke="none" d="M 15374,13363 L 15374,13153 18284,11473 18284,11683 15374,13363 Z"/>
     <path fill="rgb(137,137,137)" stroke="none" d="M 15374,13363 L 15374,13153 18284,11473 18284,11683 15374,13363 Z"/>
     <path fill="rgb(138,138,138)" stroke="none" d="M 15374,13363 L 15374,13153 18284,11473 18284,11683 15374,13363 Z"/>
     <path fill="rgb(139,139,139)" stroke="none" d="M 15374,13363 L 15374,13153 18284,11473 18284,11683 15374,13363 Z"/>
     <path fill="rgb(140,140,140)" stroke="none" d="M 15374,13363 L 15374,13153 18284,11473 18284,11683 15374,13363 Z"/>
     <path fill="rgb(141,141,141)" stroke="none" d="M 15374,13363 L 15374,13153 18284,11473 18284,11683 15374,13363 Z"/>
     <path fill="rgb(142,142,142)" stroke="none" d="M 15374,13363 L 15374,13153 18284,11473 18284,11683 15374,13363 Z"/>
     <path fill="rgb(143,143,143)" stroke="none" d="M 15374,13363 L 15374,13153 18284,11473 18284,11683 15374,13363 Z"/>
     <path fill="rgb(144,144,144)" stroke="none" d="M 15374,13363 L 15374,13153 18284,11473 18284,11683 15374,13363 Z"/>
     <path fill="rgb(145,145,145)" stroke="none" d="M 15374,13363 L 15374,13153 18284,11473 18284,11683 15374,13363 Z"/>
     <path fill="rgb(146,146,146)" stroke="none" d="M 15374,13363 L 15374,13153 18284,11473 18284,11683 15374,13363 Z"/>
     <path fill="rgb(147,147,147)" stroke="none" d="M 15374,13363 L 15374,13153 18284,11473 18284,11683 15374,13363 Z"/>
     <path fill="rgb(148,148,148)" stroke="none" d="M 15374,13363 L 15374,13153 18284,11473 18284,11683 15374,13363 Z"/>
     <path fill="rgb(149,149,149)" stroke="none" d="M 15374,13363 L 15374,13153 18284,11473 18284,11683 15374,13363 Z"/>
     <path fill="rgb(150,150,150)" stroke="none" d="M 15374,13363 L 15374,13153 18284,11473 18284,11683 15374,13363 Z"/>
     <path fill="rgb(151,151,151)" stroke="none" d="M 15374,13363 L 15374,13153 18284,11473 18284,11683 15374,13363 Z"/>
     <path fill="rgb(153,153,153)" stroke="none" d="M 15374,13363 L 15374,13153 18284,11473 18284,11683 15374,13363 Z"/>
     <path fill="none" stroke="rgb(178,178,178)" id="Drawing_4_0" stroke-width="40" stroke-linejoin="round" d="M 15374,13363 L 15374,13153 18284,11473 18284,11683 15374,13363 Z"/>
    </g>
    <g>
     <defs>
      <linearGradient id="Gradient_235" gradientUnits="userSpaceOnUse" x1="15858" y1="10563" x2="15858" y2="12943">
       <stop offset="0.1" stop-color="rgb(147,212,240)"/>
       <stop offset="1" stop-color="rgb(233,246,252)"/>
      </linearGradient>
     </defs>
     <path fill="url(#Gradient_235)" stroke="rgb(51,51,51)" id="Drawing_5_0" stroke-width="40" stroke-linejoin="round" d="M 15495,12943 L 13797,11963 16222,10563 17920,11543 15495,12943 Z"/>
    </g>
    <g>
     <defs>
      <linearGradient id="Gradient_236" gradientUnits="userSpaceOnUse" x1="16340" y1="9371" x2="18166" y2="9375">
       <stop offset="0.1" stop-color="rgb(51,51,51)"/>
       <stop offset="1" stop-color="rgb(153,153,153)"/>
      </linearGradient>
     </defs>
     <path fill="url(#Gradient_236)" stroke="rgb(178,178,178)" id="Drawing_6_0" stroke-width="40" stroke-linejoin="round" d="M 16344,10423 L 16344,7273 18162,8323 18162,11473 16344,10423 Z"/>
    </g>
    <g>
     <path fill="rgb(238,238,238)" stroke="none" d="M 16465,10283 L 16465,7553 18041,8463 18041,11193 16465,10283 Z"/>
     <path fill="none" stroke="rgb(51,51,51)" id="Drawing_7_0" stroke-width="40" stroke-linejoin="round" d="M 16465,10283 L 16465,7553 18041,8463 18041,11193 16465,10283 Z"/>
    </g>
    <g>
     <path fill="rgb(255,255,255)" stroke="none" d="M 15980,12663 C 15535,12406 14889,12033 14767,11613 15010,11683 15239,11551 15374,11473 15886,11178 16078,11074 16586,10773 17031,11030 17475,11286 17920,11543 17273,11916 16627,12290 15980,12663 Z"/>
     <path fill="none" stroke="rgb(51,51,51)" id="Drawing_8_0" stroke-width="40" stroke-linejoin="round" d="M 15980,12663 C 15535,12406 14889,12033 14767,11613 15010,11683 15239,11551 15374,11473 15886,11178 16078,11074 16586,10773 17031,11030 17475,11286 17920,11543 17273,11916 16627,12290 15980,12663 Z"/>
    </g>
    <g>
     <path fill="none" stroke="rgb(0,0,0)" id="Drawing_9_0" stroke-width="40" stroke-linejoin="round" d="M 18162,11403 L 18284,11473 18284,11683 15374,13363 13434,12243 13434,12033 16344,10353 16344,7273 18162,8323 18162,11403 Z"/>
    </g>
   </g>
  </g>
 </g>
</svg>