<?xml version="1.0" encoding="UTF-8"?>

<svg version="1.2" baseProfile="tiny" width="50.56mm" height="30.5mm" viewBox="8614 4598 5056 3050" preserveAspectRatio="xMidYMid" fill-rule="evenodd" stroke-width="28.222" stroke-linejoin="round" xmlns="http://www.w3.org/2000/svg" xmlns:xlink="http://www.w3.org/1999/xlink" xml:space="preserve">
 <g visibility="visible" id="Slide_1">
  <g id="DrawingGroup_1">
   <g>
    <path fill="rgb(221,221,221)" stroke="none" d="M 11544,7068 C 11801,7068 13484,6158 13605,6088 13726,6018 13671,5808 13484,5808 L 11544,7068 Z"/>
    <path fill="none" stroke="rgb(221,221,221)" id="Drawing_1_0" stroke-linejoin="round" d="M 11544,7068 C 11801,7068 13484,6158 13605,6088 13726,6018 13671,5808 13484,5808 L 11544,7068 Z"/>
   </g>
   <g id="DrawingGroup_2">
    <g>
     <defs>
      <linearGradient id="Gradient_220" gradientUnits="userSpaceOnUse" x1="8633" y1="6961" x2="10575" y2="6965">
       <stop offset="0.1" stop-color="rgb(51,51,51)"/>
       <stop offset="1" stop-color="rgb(153,153,153)"/>
      </linearGradient>
     </defs>
     <path fill="url(#Gradient_220)" stroke="rgb(178,178,178)" id="Drawing_2_0" stroke-width="40" stroke-linejoin="round" d="M 8634,6508 L 8634,6298 10574,7418 10574,7628 8634,6508 Z"/>
    </g>
    <g>
     <defs>
      <linearGradient id="Gradient_221" gradientUnits="userSpaceOnUse" x1="11059" y1="4618" x2="11059" y2="7418">
       <stop offset="0.1" stop-color="rgb(51,51,51)"/>
       <stop offset="1" stop-color="rgb(153,153,153)"/>
      </linearGradient>
     </defs>
     <path fill="url(#Gradient_221)" stroke="rgb(178,178,178)" id="Drawing_3_0" stroke-width="40" stroke-linejoin="round" d="M 10574,7418 L 8634,6298 11544,4618 13484,5738 10574,7418 Z"/>
    </g>
    <g>
     <path fill="rgb(51,51,51)" stroke="none" d="M 12887,6293 L 10574,7628 10574,7418 12887,6083 12887,6293 Z"/>
     <path fill="rgb(52,52,52)" stroke="none" d="M 12887,6083 L 13484,5738 13484,5948 12887,6293 12887,6083 Z M 12873,6301 L 10574,7628 10574,7418 12873,6091 12873,6301 Z"/>
     <path fill="rgb(53,53,53)" stroke="none" d="M 12873,6091 L 13484,5738 13484,5948 12873,6301 12873,6091 Z M 12859,6309 L 10574,7628 10574,7418 12859,6099 12859,6309 Z"/>
     <path fill="rgb(54,54,54)" stroke="none" d="M 12859,6099 L 13484,5738 13484,5948 12859,6309 12859,6099 Z M 12844,6317 L 10574,7628 10574,7418 12844,6107 12844,6317 Z"/>
     <path fill="rgb(55,55,55)" stroke="none" d="M 12844,6107 L 13484,5738 13484,5948 12844,6317 12844,6107 Z M 12830,6326 L 10574,7628 10574,7418 12830,6116 12830,6326 Z"/>
     <path fill="rgb(56,56,56)" stroke="none" d="M 12830,6116 L 13484,5738 13484,5948 12830,6326 12830,6116 Z M 12816,6334 L 10574,7628 10574,7418 12816,6124 12816,6334 Z"/>
     <path fill="rgb(57,57,57)" stroke="none" d="M 12816,6124 L 13484,5738 13484,5948 12816,6334 12816,6124 Z M 12802,6342 L 10574,7628 10574,7418 12802,6132 12802,6342 Z"/>
     <path fill="rgb(58,58,58)" stroke="none" d="M 12802,6132 L 13484,5738 13484,5948 12802,6342 12802,6132 Z M 12787,6350 L 10574,7628 10574,7418 12787,6140 12787,6350 Z"/>
     <path fill="rgb(59,59,59)" stroke="none" d="M 12787,6140 L 13484,5738 13484,5948 12787,6350 12787,6140 Z M 12773,6358 L 10574,7628 10574,7418 12773,6148 12773,6358 Z"/>
     <path fill="rgb(60,60,60)" stroke="none" d="M 12773,6148 L 13484,5738 13484,5948 12773,6358 12773,6148 Z M 12759,6367 L 10593,7617 10574,7617 10574,7418 12759,6157 12759,6367 Z"/>
     <path fill="rgb(61,61,61)" stroke="none" d="M 10593,7617 L 10574,7628 10574,7617 10593,7617 Z M 12759,6157 L 13484,5738 13484,5948 12759,6367 12759,6157 Z M 12744,6375 L 10619,7602 10574,7602 10574,7418 12744,6165 12744,6375 Z"/>
     <path fill="rgb(62,62,62)" stroke="none" d="M 10619,7602 L 10574,7628 10574,7602 10619,7602 Z M 12744,6165 L 13484,5738 13484,5948 12744,6375 12744,6165 Z M 12730,6383 L 10643,7588 10574,7588 10574,7418 12730,6173 12730,6383 Z"/>
     <path fill="rgb(63,63,63)" stroke="none" d="M 10643,7588 L 10574,7628 10574,7588 10643,7588 Z M 12730,6173 L 13484,5738 13484,5948 12730,6383 12730,6173 Z M 12716,6391 L 10668,7574 10574,7574 10574,7418 12716,6181 12716,6391 Z"/>
     <path fill="rgb(64,64,64)" stroke="none" d="M 10668,7574 L 10574,7628 10574,7574 10668,7574 Z M 12716,6181 L 13484,5738 13484,5948 12716,6391 12716,6181 Z M 12702,6399 L 10692,7560 10574,7560 10574,7418 12702,6189 12702,6399 Z"/>
     <path fill="rgb(65,65,65)" stroke="none" d="M 10692,7560 L 10574,7628 10574,7560 10692,7560 Z M 12702,6189 L 13484,5738 13484,5948 12702,6399 12702,6189 Z M 12687,6408 L 10718,7545 10574,7545 10574,7418 12687,6198 12687,6408 Z"/>
     <path fill="rgb(66,66,66)" stroke="none" d="M 10718,7545 L 10574,7628 10574,7545 10718,7545 Z M 12687,6198 L 13484,5738 13484,5948 12687,6408 12687,6198 Z M 12673,6416 L 10742,7531 10574,7531 10574,7418 12673,6206 12673,6416 Z"/>
     <path fill="rgb(67,67,67)" stroke="none" d="M 10742,7531 L 10574,7628 10574,7531 10742,7531 Z M 12673,6206 L 13484,5738 13484,5948 12673,6416 12673,6206 Z M 12659,6424 L 10766,7517 10574,7517 10574,7418 12659,6214 12659,6424 Z"/>
     <path fill="rgb(68,68,68)" stroke="none" d="M 10766,7517 L 10574,7628 10574,7517 10766,7517 Z M 12659,6214 L 13484,5738 13484,5948 12659,6424 12659,6214 Z M 12644,6433 L 10792,7502 10574,7502 10574,7418 12644,6223 12644,6433 Z"/>
     <path fill="rgb(69,69,69)" stroke="none" d="M 10792,7502 L 10574,7628 10574,7502 10792,7502 Z M 12644,6223 L 13484,5738 13484,5948 12644,6433 12644,6223 Z M 12630,6441 L 10817,7488 10574,7488 10574,7418 12630,6231 12630,6441 Z"/>
     <path fill="rgb(70,70,70)" stroke="none" d="M 10817,7488 L 10574,7628 10574,7488 10817,7488 Z M 12630,6231 L 13484,5738 13484,5948 12630,6441 12630,6231 Z M 12616,6449 L 10841,7474 10574,7474 10574,7418 12616,6239 12616,6449 Z"/>
     <path fill="rgb(71,71,71)" stroke="none" d="M 10841,7474 L 10574,7628 10574,7474 10841,7474 Z M 12616,6239 L 13484,5738 13484,5948 12616,6449 12616,6239 Z M 12602,6457 L 10865,7460 10574,7460 10574,7418 12602,6247 12602,6457 Z"/>
     <path fill="rgb(72,72,72)" stroke="none" d="M 10865,7460 L 10574,7628 10574,7460 10865,7460 Z M 12602,6247 L 13484,5738 13484,5948 12602,6457 12602,6247 Z M 12587,6466 L 10891,7445 10574,7445 10574,7418 12587,6256 12587,6466 Z"/>
     <path fill="rgb(73,73,73)" stroke="none" d="M 10891,7445 L 10574,7628 10574,7445 10891,7445 Z M 12587,6256 L 13484,5738 13484,5948 12587,6466 12587,6256 Z M 12573,6474 L 10915,7431 10574,7431 10574,7418 12573,6264 12573,6474 Z"/>
     <path fill="rgb(74,74,74)" stroke="none" d="M 10915,7431 L 10574,7628 10574,7431 10915,7431 Z M 12573,6264 L 13484,5738 13484,5948 12573,6474 12573,6264 Z M 12559,6482 L 10939,7417 10576,7417 12559,6272 12559,6482 Z"/>
     <path fill="rgb(75,75,75)" stroke="none" d="M 10939,7417 L 10574,7628 10574,7418 10576,7417 10939,7417 Z M 12559,6272 L 13484,5738 13484,5948 12559,6482 12559,6272 Z M 12545,6490 L 10964,7403 10600,7403 12545,6280 12545,6490 Z"/>
     <path fill="rgb(76,76,76)" stroke="none" d="M 10964,7403 L 10574,7628 10574,7418 10600,7403 10964,7403 Z M 12545,6280 L 13484,5738 13484,5948 12545,6490 12545,6280 Z M 12530,6499 L 10990,7388 10626,7388 12530,6289 12530,6499 Z"/>
     <path fill="rgb(77,77,77)" stroke="none" d="M 10990,7388 L 10574,7628 10574,7418 10626,7388 10990,7388 Z M 12530,6289 L 13484,5738 13484,5948 12530,6499 12530,6289 Z M 12516,6507 L 11014,7374 10650,7374 12516,6297 12516,6507 Z"/>
     <path fill="rgb(78,78,78)" stroke="none" d="M 11014,7374 L 10574,7628 10574,7418 10650,7374 11014,7374 Z M 12516,6297 L 13484,5738 13484,5948 12516,6507 12516,6297 Z M 12502,6515 L 11038,7360 10674,7360 12502,6305 12502,6515 Z"/>
     <path fill="rgb(79,79,79)" stroke="none" d="M 11038,7360 L 10574,7628 10574,7418 10674,7360 11038,7360 Z M 12502,6305 L 13484,5738 13484,5948 12502,6515 12502,6305 Z M 12487,6524 L 11064,7345 10700,7345 12487,6314 12487,6524 Z"/>
     <path fill="rgb(80,80,80)" stroke="none" d="M 11064,7345 L 10574,7628 10574,7418 10700,7345 11064,7345 Z M 12487,6314 L 13484,5738 13484,5948 12487,6524 12487,6314 Z M 12473,6532 L 11088,7331 10725,7331 12473,6322 12473,6532 Z"/>
     <path fill="rgb(81,81,81)" stroke="none" d="M 11088,7331 L 10574,7628 10574,7418 10725,7331 11088,7331 Z M 12473,6322 L 13484,5738 13484,5948 12473,6532 12473,6322 Z M 12459,6540 L 11113,7317 10749,7317 12459,6330 12459,6540 Z"/>
     <path fill="rgb(82,82,82)" stroke="none" d="M 11113,7317 L 10574,7628 10574,7418 10749,7317 11113,7317 Z M 12459,6330 L 13484,5738 13484,5948 12459,6540 12459,6330 Z M 12445,6548 L 11137,7303 10773,7303 12445,6338 12445,6548 Z"/>
     <path fill="rgb(83,83,83)" stroke="none" d="M 11137,7303 L 10574,7628 10574,7418 10773,7303 11137,7303 Z M 12445,6338 L 13484,5738 13484,5948 12445,6548 12445,6338 Z M 12430,6556 L 11163,7288 10799,7288 12430,6346 12430,6556 Z"/>
     <path fill="rgb(84,84,84)" stroke="none" d="M 11163,7288 L 10574,7628 10574,7418 10799,7288 11163,7288 Z M 12430,6346 L 13484,5738 13484,5948 12430,6556 12430,6346 Z M 12416,6565 L 11187,7274 10823,7274 12416,6355 12416,6565 Z"/>
     <path fill="rgb(85,85,85)" stroke="none" d="M 11187,7274 L 10574,7628 10574,7418 10823,7274 11187,7274 Z M 12416,6355 L 13484,5738 13484,5948 12416,6565 12416,6355 Z M 12402,6573 L 11211,7260 10848,7260 12402,6363 12402,6573 Z"/>
     <path fill="rgb(86,86,86)" stroke="none" d="M 11211,7260 L 10574,7628 10574,7418 10848,7260 11211,7260 Z M 12402,6363 L 13484,5738 13484,5948 12402,6573 12402,6363 Z M 12387,6581 L 11237,7245 10874,7245 12387,6371 12387,6581 Z"/>
     <path fill="rgb(87,87,87)" stroke="none" d="M 11237,7245 L 10574,7628 10574,7418 10874,7245 11237,7245 Z M 12387,6371 L 13484,5738 13484,5948 12387,6581 12387,6371 Z M 12373,6589 L 11262,7231 10898,7231 12373,6379 12373,6589 Z"/>
     <path fill="rgb(88,88,88)" stroke="none" d="M 11262,7231 L 10574,7628 10574,7418 10898,7231 11262,7231 Z M 12373,6379 L 13484,5738 13484,5948 12373,6589 12373,6379 Z M 12359,6597 L 11286,7217 10922,7217 12359,6387 12359,6597 Z"/>
     <path fill="rgb(89,89,89)" stroke="none" d="M 11286,7217 L 10574,7628 10574,7418 10922,7217 11286,7217 Z M 12359,6387 L 13484,5738 13484,5948 12359,6597 12359,6387 Z M 12345,6606 L 11310,7203 10946,7203 12345,6396 12345,6606 Z"/>
     <path fill="rgb(90,90,90)" stroke="none" d="M 11310,7203 L 10574,7628 10574,7418 10946,7203 11310,7203 Z M 12345,6396 L 13484,5738 13484,5948 12345,6606 12345,6396 Z M 12330,6614 L 11336,7188 10972,7188 12330,6404 12330,6614 Z"/>
     <path fill="rgb(91,91,91)" stroke="none" d="M 11336,7188 L 10574,7628 10574,7418 10972,7188 11336,7188 Z M 12330,6404 L 13484,5738 13484,5948 12330,6614 12330,6404 Z M 12316,6622 L 11360,7174 10997,7174 12316,6412 12316,6622 Z"/>
     <path fill="rgb(92,92,92)" stroke="none" d="M 11360,7174 L 10574,7628 10574,7418 10997,7174 11360,7174 Z M 12316,6412 L 13484,5738 13484,5948 12316,6622 12316,6412 Z M 12302,6630 L 11385,7160 11021,7160 12302,6420 12302,6630 Z"/>
     <path fill="rgb(93,93,93)" stroke="none" d="M 11385,7160 L 10574,7628 10574,7418 11021,7160 11385,7160 Z M 12302,6420 L 13484,5738 13484,5948 12302,6630 12302,6420 Z M 12287,6639 L 11411,7145 11047,7145 12287,6429 12287,6639 Z"/>
     <path fill="rgb(94,94,94)" stroke="none" d="M 11411,7145 L 10574,7628 10574,7418 11047,7145 11411,7145 Z M 12287,6429 L 13484,5738 13484,5948 12287,6639 12287,6429 Z M 12273,6647 L 11435,7131 11071,7131 12273,6437 12273,6647 Z"/>
     <path fill="rgb(95,95,95)" stroke="none" d="M 11435,7131 L 10574,7628 10574,7418 11071,7131 11435,7131 Z M 12273,6437 L 13484,5738 13484,5948 12273,6647 12273,6437 Z M 12259,6655 L 11459,7117 11095,7117 12259,6445 12259,6655 Z"/>
     <path fill="rgb(96,96,96)" stroke="none" d="M 11459,7117 L 10574,7628 10574,7418 11095,7117 11459,7117 Z M 12259,6445 L 13484,5738 13484,5948 12259,6655 12259,6445 Z M 12245,6663 L 11483,7103 11120,7103 12245,6453 12245,6663 Z"/>
     <path fill="rgb(97,97,97)" stroke="none" d="M 11483,7103 L 10574,7628 10574,7418 11120,7103 11483,7103 Z M 12245,6453 L 13484,5738 13484,5948 12245,6663 12245,6453 Z M 12230,6672 L 11509,7088 11146,7088 12230,6462 12230,6672 Z"/>
     <path fill="rgb(98,98,98)" stroke="none" d="M 11509,7088 L 10574,7628 10574,7418 11146,7088 11509,7088 Z M 12230,6462 L 13484,5738 13484,5948 12230,6672 12230,6462 Z M 12216,6680 L 11534,7074 11170,7074 12216,6470 12216,6680 Z"/>
     <path fill="rgb(99,99,99)" stroke="none" d="M 11534,7074 L 10574,7628 10574,7418 11170,7074 11534,7074 Z M 12216,6470 L 13484,5738 13484,5948 12216,6680 12216,6470 Z M 12202,6688 L 11558,7060 11194,7060 12202,6478 12202,6688 Z"/>
     <path fill="rgb(100,100,100)" stroke="none" d="M 11558,7060 L 10574,7628 10574,7418 11194,7060 11558,7060 Z M 12202,6478 L 13484,5738 13484,5948 12202,6688 12202,6478 Z M 12188,6696 L 11582,7046 11218,7046 12188,6486 12188,6696 Z"/>
     <path fill="rgb(101,101,101)" stroke="none" d="M 11582,7046 L 10574,7628 10574,7418 11218,7046 11582,7046 Z M 12188,6486 L 13484,5738 13484,5948 12188,6696 12188,6486 Z M 12173,6705 L 11608,7031 11244,7031 12173,6495 12173,6705 Z"/>
     <path fill="rgb(102,102,102)" stroke="none" d="M 11608,7031 L 10574,7628 10574,7418 11244,7031 11608,7031 Z M 12173,6495 L 13484,5738 13484,5948 12173,6705 12173,6495 Z M 12159,6713 L 11632,7017 11269,7017 12159,6503 12159,6713 Z"/>
     <path fill="rgb(103,103,103)" stroke="none" d="M 11632,7017 L 10574,7628 10574,7418 11269,7017 11632,7017 Z M 12159,6503 L 13484,5738 13484,5948 12159,6713 12159,6503 Z M 12145,6721 L 11657,7003 11293,7003 12145,6511 12145,6721 Z"/>
     <path fill="rgb(104,104,104)" stroke="none" d="M 11657,7003 L 10574,7628 10574,7418 11293,7003 11657,7003 Z M 12145,6511 L 13484,5738 13484,5948 12145,6721 12145,6511 Z M 12130,6730 L 11683,6988 11319,6988 12130,6520 12130,6730 Z"/>
     <path fill="rgb(105,105,105)" stroke="none" d="M 11683,6988 L 10574,7628 10574,7418 11319,6988 11683,6988 Z M 12130,6520 L 13484,5738 13484,5948 12130,6730 12130,6520 Z M 12116,6738 L 11707,6974 11343,6974 12116,6528 12116,6738 Z"/>
     <path fill="rgb(106,106,106)" stroke="none" d="M 11707,6974 L 10574,7628 10574,7418 11343,6974 11707,6974 Z M 12116,6528 L 13484,5738 13484,5948 12116,6738 12116,6528 Z M 12102,6746 L 11731,6960 11367,6960 12102,6536 12102,6746 Z"/>
     <path fill="rgb(107,107,107)" stroke="none" d="M 11731,6960 L 10574,7628 10574,7418 11367,6960 11731,6960 Z M 12102,6536 L 13484,5738 13484,5948 12102,6746 12102,6536 Z M 12088,6754 L 11755,6946 11392,6946 12088,6544 12088,6754 Z"/>
     <path fill="rgb(108,108,108)" stroke="none" d="M 11755,6946 L 10574,7628 10574,7418 11392,6946 11755,6946 Z M 12088,6544 L 13484,5738 13484,5948 12088,6754 12088,6544 Z M 12073,6763 L 11781,6931 11418,6931 12073,6553 12073,6763 Z"/>
     <path fill="rgb(109,109,109)" stroke="none" d="M 11781,6931 L 10574,7628 10574,7418 11418,6931 11781,6931 Z M 12073,6553 L 13484,5738 13484,5948 12073,6763 12073,6553 Z M 12059,6771 L 11806,6917 11442,6917 12059,6561 12059,6771 Z"/>
     <path fill="rgb(110,110,110)" stroke="none" d="M 11806,6917 L 10574,7628 10574,7418 11442,6917 11806,6917 Z M 12059,6561 L 13484,5738 13484,5948 12059,6771 12059,6561 Z M 12045,6779 L 11830,6903 11466,6903 12045,6569 12045,6779 Z"/>
     <path fill="rgb(111,111,111)" stroke="none" d="M 11830,6903 L 10574,7628 10574,7418 11466,6903 11830,6903 Z M 12045,6569 L 13484,5738 13484,5948 12045,6779 12045,6569 Z M 12030,6787 L 11856,6888 11492,6888 12030,6577 12030,6787 Z"/>
     <path fill="rgb(112,112,112)" stroke="none" d="M 11856,6888 L 10574,7628 10574,7418 11492,6888 11856,6888 Z M 12030,6577 L 13484,5738 13484,5948 12030,6787 12030,6577 Z M 12016,6796 L 11880,6874 11516,6874 12016,6586 12016,6796 Z"/>
     <path fill="rgb(113,113,113)" stroke="none" d="M 11880,6874 L 10574,7628 10574,7418 11516,6874 11880,6874 Z M 12016,6586 L 13484,5738 13484,5948 12016,6796 12016,6586 Z M 12002,6804 L 11904,6860 11541,6860 12002,6594 12002,6804 Z"/>
     <path fill="rgb(114,114,114)" stroke="none" d="M 11904,6860 L 10574,7628 10574,7418 11541,6860 11904,6860 Z M 12002,6594 L 13484,5738 13484,5948 12002,6804 12002,6594 Z M 11988,6812 L 11929,6846 11565,6846 11988,6602 11988,6812 Z"/>
     <path fill="rgb(115,115,115)" stroke="none" d="M 11929,6846 L 10574,7628 10574,7418 11565,6846 11929,6846 Z M 11988,6602 L 13484,5738 13484,5948 11988,6812 11988,6602 Z M 11973,6820 L 11955,6831 11591,6831 11973,6610 11973,6820 Z"/>
     <path fill="rgb(116,116,116)" stroke="none" d="M 11955,6831 L 10574,7628 10574,7418 11591,6831 11955,6831 Z M 11973,6610 L 13484,5738 13484,5948 11973,6820 11973,6610 Z M 11959,6817 L 11615,6817 11959,6618 11959,6817 Z"/>
     <path fill="rgb(117,117,117)" stroke="none" d="M 11959,6817 L 11959,6618 13484,5738 13484,5948 10574,7628 10574,7418 11615,6817 11959,6817 Z M 11945,6803 L 11639,6803 11945,6626 11945,6803 Z"/>
     <path fill="rgb(118,118,118)" stroke="none" d="M 11945,6803 L 11945,6626 13484,5738 13484,5948 10574,7628 10574,7418 11639,6803 11945,6803 Z M 11931,6789 L 11664,6789 11931,6635 11931,6789 Z"/>
     <path fill="rgb(119,119,119)" stroke="none" d="M 11931,6789 L 11931,6635 13484,5738 13484,5948 10574,7628 10574,7418 11664,6789 11931,6789 Z M 11916,6774 L 11690,6774 11916,6643 11916,6774 Z"/>
     <path fill="rgb(120,120,120)" stroke="none" d="M 11916,6774 L 11916,6643 13484,5738 13484,5948 10574,7628 10574,7418 11690,6774 11916,6774 Z M 11902,6760 L 11714,6760 11902,6651 11902,6760 Z"/>
     <path fill="rgb(121,121,121)" stroke="none" d="M 11902,6760 L 11902,6651 13484,5738 13484,5948 10574,7628 10574,7418 11714,6760 11902,6760 Z M 11888,6746 L 11738,6746 11888,6659 11888,6746 Z"/>
     <path fill="rgb(122,122,122)" stroke="none" d="M 11888,6746 L 11888,6659 13484,5738 13484,5948 10574,7628 10574,7418 11738,6746 11888,6746 Z M 11873,6731 L 11764,6731 11873,6668 11873,6731 Z"/>
     <path fill="rgb(123,123,123)" stroke="none" d="M 11873,6731 L 11873,6668 13484,5738 13484,5948 10574,7628 10574,7418 11764,6731 11873,6731 Z M 11859,6717 L 11788,6717 11859,6676 11859,6717 Z"/>
     <path fill="rgb(124,124,124)" stroke="none" d="M 11859,6717 L 11859,6676 13484,5738 13484,5948 10574,7628 10574,7418 11788,6717 11859,6717 Z M 11845,6703 L 11812,6703 11845,6684 11845,6703 Z"/>
     <path fill="rgb(125,125,125)" stroke="none" d="M 11845,6703 L 11845,6684 13484,5738 13484,5948 10574,7628 10574,7418 11812,6703 11845,6703 Z"/>
     <path fill="rgb(126,126,126)" stroke="none" d="M 10574,7628 L 10574,7418 13484,5738 13484,5948 10574,7628 Z"/>
     <path fill="rgb(127,127,127)" stroke="none" d="M 10574,7628 L 10574,7418 13484,5738 13484,5948 10574,7628 Z"/>
     <path fill="rgb(128,128,128)" stroke="none" d="M 10574,7628 L 10574,7418 13484,5738 13484,5948 10574,7628 Z"/>
     <path fill="rgb(129,129,129)" stroke="none" d="M 10574,7628 L 10574,7418 13484,5738 13484,5948 10574,7628 Z"/>
     <path fill="rgb(130,130,130)" stroke="none" d="M 10574,7628 L 10574,7418 13484,5738 13484,5948 10574,7628 Z"/>
     <path fill="rgb(131,131,131)" stroke="none" d="M 10574,7628 L 10574,7418 13484,5738 13484,5948 10574,7628 Z"/>
     <path fill="rgb(132,132,132)" stroke="none" d="M 10574,7628 L 10574,7418 13484,5738 13484,5948 10574,7628 Z"/>
     <path fill="rgb(133,133,133)" stroke="none" d="M 10574,7628 L 10574,7418 13484,5738 13484,5948 10574,7628 Z"/>
     <path fill="rgb(134,134,134)" stroke="none" d="M 10574,7628 L 10574,7418 13484,5738 13484,5948 10574,7628 Z"/>
     <path fill="rgb(135,135,135)" stroke="none" d="M 10574,7628 L 10574,7418 13484,5738 13484,5948 10574,7628 Z"/>
     <path fill="rgb(136,136,136)" stroke="none" d="M 10574,7628 L 10574,7418 13484,5738 13484,5948 10574,7628 Z"/>
     <path fill="rgb(137,137,137)" stroke="none" d="M 10574,7628 L 10574,7418 13484,5738 13484,5948 10574,7628 Z"/>
     <path fill="rgb(138,138,138)" stroke="none" d="M 10574,7628 L 10574,7418 13484,5738 13484,5948 10574,7628 Z"/>
     <path fill="rgb(139,139,139)" stroke="none" d="M 10574,7628 L 10574,7418 13484,5738 13484,5948 10574,7628 Z"/>
     <path fill="rgb(140,140,140)" stroke="none" d="M 10574,7628 L 10574,7418 13484,5738 13484,5948 10574,7628 Z"/>
     <path fill="rgb(141,141,141)" stroke="none" d="M 10574,7628 L 10574,7418 13484,5738 13484,5948 10574,7628 Z"/>
     <path fill="rgb(142,142,142)" stroke="none" d="M 10574,7628 L 10574,7418 13484,5738 13484,5948 10574,7628 Z"/>
     <path fill="rgb(143,143,143)" stroke="none" d="M 10574,7628 L 10574,7418 13484,5738 13484,5948 10574,7628 Z"/>
     <path fill="rgb(144,144,144)" stroke="none" d="M 10574,7628 L 10574,7418 13484,5738 13484,5948 10574,7628 Z"/>
     <path fill="rgb(145,145,145)" stroke="none" d="M 10574,7628 L 10574,7418 13484,5738 13484,5948 10574,7628 Z"/>
     <path fill="rgb(146,146,146)" stroke="none" d="M 10574,7628 L 10574,7418 13484,5738 13484,5948 10574,7628 Z"/>
     <path fill="rgb(147,147,147)" stroke="none" d="M 10574,7628 L 10574,7418 13484,5738 13484,5948 10574,7628 Z"/>
     <path fill="rgb(148,148,148)" stroke="none" d="M 10574,7628 L 10574,7418 13484,5738 13484,5948 10574,7628 Z"/>
     <path fill="rgb(149,149,149)" stroke="none" d="M 10574,7628 L 10574,7418 13484,5738 13484,5948 10574,7628 Z"/>
     <path fill="rgb(150,150,150)" stroke="none" d="M 10574,7628 L 10574,7418 13484,5738 13484,5948 10574,7628 Z"/>
     <path fill="rgb(151,151,151)" stroke="none" d="M 10574,7628 L 10574,7418 13484,5738 13484,5948 10574,7628 Z"/>
     <path fill="rgb(153,153,153)" stroke="none" d="M 10574,7628 L 10574,7418 13484,5738 13484,5948 10574,7628 Z"/>
     <path fill="none" stroke="rgb(178,178,178)" id="Drawing_4_0" stroke-width="40" stroke-linejoin="round" d="M 10574,7628 L 10574,7418 13484,5738 13484,5948 10574,7628 Z"/>
    </g>
    <g>
     <defs>
      <linearGradient id="Gradient_222" gradientUnits="userSpaceOnUse" x1="11058" y1="4618" x2="11058" y2="7278">
       <stop offset="0.1" stop-color="rgb(51,51,51)"/>
       <stop offset="1" stop-color="rgb(153,153,153)"/>
      </linearGradient>
     </defs>
     <path fill="url(#Gradient_222)" stroke="rgb(178,178,178)" id="Drawing_5_0" stroke-width="40" stroke-linejoin="round" d="M 10695,7278 L 8755,6158 11422,4618 13362,5738 10695,7278 Z"/>
    </g>
    <g>
     <path fill="none" stroke="rgb(0,0,0)" id="Drawing_6_0" stroke-width="40" stroke-linejoin="round" d="M 11544,4618 L 13484,5738 13484,5948 10574,7628 8634,6508 8634,6298 8755,6228 8755,6158 11422,4618 11544,4618 Z"/>
    </g>
   </g>
  </g>
 </g>
</svg>