<?xml version="1.0" encoding="UTF-8"?>

<svg version="1.2" baseProfile="tiny" width="55.4mm" height="50.4mm" viewBox="11934 2129 5540 5040" preserveAspectRatio="xMidYMid" fill-rule="evenodd" stroke-width="28.222" stroke-linejoin="round" xmlns="http://www.w3.org/2000/svg" xmlns:xlink="http://www.w3.org/1999/xlink" xml:space="preserve">
 <g visibility="visible" id="Slide_1">
  <g id="DrawingGroup_1">
   <g>
    <path fill="rgb(221,221,221)" stroke="none" d="M 14412,7149 C 14682,7149 17454,6353 17454,5842 17454,5331 17135,5274 16865,5274 16865,5444 14314,5899 14412,7149 Z"/>
    <path fill="none" stroke="rgb(221,221,221)" id="Drawing_1_0" stroke-width="40" stroke-linejoin="round" d="M 14412,7149 C 14682,7149 17454,6353 17454,5842 17454,5331 17135,5274 16865,5274 16865,5444 14314,5899 14412,7149 Z"/>
   </g>
   <g id="DrawingGroup_2">
    <g>
     <defs>
      <linearGradient id="Gradient_175" gradientUnits="userSpaceOnUse" x1="15489" y1="3115" x2="15489" y2="4706">
       <stop offset="0.1" stop-color="rgb(51,51,51)"/>
       <stop offset="1" stop-color="rgb(153,153,153)"/>
      </linearGradient>
     </defs>
     <path fill="url(#Gradient_175)" stroke="rgb(178,178,178)" id="Drawing_2_0" stroke-width="40" stroke-linejoin="round" d="M 16078,4706 L 14114,3570 14900,3115 16864,4251 16078,4706 Z"/>
    </g>
    <g>
     <path fill="rgb(51,51,51)" stroke="none" d="M 13514,4158 L 12679,4835 12347,4835 12347,4762 13329,3967 13514,3860 13514,4158 Z"/>
     <path fill="rgb(52,52,52)" stroke="none" d="M 12679,4835 L 12347,5104 12347,4835 12679,4835 Z M 13514,3860 L 13820,3683 13820,3910 13514,4158 13514,3860 Z M 13504,4166 L 12691,4825 12347,4825 12347,4762 13329,3967 13504,3866 13504,4166 Z"/>
     <path fill="rgb(53,53,53)" stroke="none" d="M 12691,4825 L 12347,5104 12347,4825 12691,4825 Z M 13504,3866 L 13820,3683 13820,3910 13504,4166 13504,3866 Z M 13494,4174 L 12704,4815 12347,4815 12347,4762 13329,3967 13494,3872 13494,4174 Z"/>
     <path fill="rgb(55,55,55)" stroke="none" d="M 12704,4815 L 12347,5104 12347,4815 12704,4815 Z M 13494,3872 L 13820,3683 13820,3910 13494,4174 13494,3872 Z M 13484,4182 L 12716,4805 12347,4805 12347,4762 13329,3967 13484,3877 13484,4182 Z"/>
     <path fill="rgb(56,56,56)" stroke="none" d="M 12716,4805 L 12347,5104 12347,4805 12716,4805 Z M 13484,3877 L 13820,3683 13820,3910 13484,4182 13484,3877 Z M 13474,4190 L 12728,4795 12347,4795 12347,4762 13329,3967 13474,3883 13474,4190 Z"/>
     <path fill="rgb(57,57,57)" stroke="none" d="M 12728,4795 L 12347,5104 12347,4795 12728,4795 Z M 13474,3883 L 13820,3683 13820,3910 13474,4190 13474,3883 Z M 13464,4199 L 12741,4785 12347,4785 12347,4762 13329,3967 13464,3889 13464,4199 Z"/>
     <path fill="rgb(59,59,59)" stroke="none" d="M 12741,4785 L 12347,5104 12347,4785 12741,4785 Z M 13464,3889 L 13820,3683 13820,3910 13464,4199 13464,3889 Z M 13454,4207 L 12753,4775 12347,4775 12347,4762 13329,3967 13454,3895 13454,4207 Z"/>
     <path fill="rgb(60,60,60)" stroke="none" d="M 12753,4775 L 12347,5104 12347,4775 12753,4775 Z M 13454,3895 L 13820,3683 13820,3910 13454,4207 13454,3895 Z M 13444,4215 L 12765,4765 12347,4765 12347,4762 13329,3967 13444,3900 13444,4215 Z"/>
     <path fill="rgb(62,62,62)" stroke="none" d="M 12765,4765 L 12347,5104 12347,4765 12765,4765 Z M 13444,3900 L 13820,3683 13820,3910 13444,4215 13444,3900 Z M 13434,4223 L 12778,4755 12356,4755 13329,3967 13434,3906 13434,4223 Z"/>
     <path fill="rgb(63,63,63)" stroke="none" d="M 12778,4755 L 12347,5104 12347,4762 12356,4755 12778,4755 Z M 13434,3906 L 13820,3683 13820,3910 13434,4223 13434,3906 Z M 13423,4232 L 12791,4744 12369,4744 13329,3967 13423,3913 13423,4232 Z"/>
     <path fill="rgb(64,64,64)" stroke="none" d="M 12791,4744 L 12347,5104 12347,4762 12369,4744 12791,4744 Z M 13423,3913 L 13820,3683 13820,3910 13423,4232 13423,3913 Z M 13413,4240 L 12803,4734 12382,4734 13329,3967 13413,3918 13413,4240 Z"/>
     <path fill="rgb(66,66,66)" stroke="none" d="M 12803,4734 L 12347,5104 12347,4762 12382,4734 12803,4734 Z M 13413,3918 L 13820,3683 13820,3910 13413,4240 13413,3918 Z M 13403,4248 L 12816,4724 12394,4724 13329,3967 13403,3924 13403,4248 Z"/>
     <path fill="rgb(67,67,67)" stroke="none" d="M 12816,4724 L 12347,5104 12347,4762 12394,4724 12816,4724 Z M 13403,3924 L 13820,3683 13820,3910 13403,4248 13403,3924 Z M 13393,4256 L 12828,4714 12406,4714 13329,3967 13393,3930 13393,4256 Z"/>
     <path fill="rgb(69,69,69)" stroke="none" d="M 12828,4714 L 12347,5104 12347,4762 12406,4714 12828,4714 Z M 13393,3930 L 13820,3683 13820,3910 13393,4256 13393,3930 Z M 13383,4264 L 12840,4704 12419,4704 13329,3967 13383,3936 13383,4264 Z"/>
     <path fill="rgb(70,70,70)" stroke="none" d="M 12840,4704 L 12347,5104 12347,4762 12419,4704 12840,4704 Z M 13383,3936 L 13820,3683 13820,3910 13383,4264 13383,3936 Z M 13373,4272 L 12853,4694 12431,4694 13329,3967 13373,3942 13373,4272 Z"/>
     <path fill="rgb(71,71,71)" stroke="none" d="M 12853,4694 L 12347,5104 12347,4762 12431,4694 12853,4694 Z M 13373,3942 L 13820,3683 13820,3910 13373,4272 13373,3942 Z M 13363,4280 L 12865,4684 12443,4684 13329,3967 13363,3947 13363,4280 Z"/>
     <path fill="rgb(73,73,73)" stroke="none" d="M 12865,4684 L 12347,5104 12347,4762 12443,4684 12865,4684 Z M 13363,3947 L 13820,3683 13820,3910 13363,4280 13363,3947 Z M 13353,4289 L 12877,4674 12456,4674 13329,3967 13353,3953 13353,4289 Z"/>
     <path fill="rgb(74,74,74)" stroke="none" d="M 12877,4674 L 12347,5104 12347,4762 12456,4674 12877,4674 Z M 13353,3953 L 13820,3683 13820,3910 13353,4289 13353,3953 Z M 13343,4297 L 12890,4664 12468,4664 13329,3967 13343,3959 13343,4297 Z"/>
     <path fill="rgb(76,76,76)" stroke="none" d="M 12890,4664 L 12347,5104 12347,4762 12468,4664 12890,4664 Z M 13343,3959 L 13820,3683 13820,3910 13343,4297 13343,3959 Z M 13332,4306 L 12903,4653 12482,4653 13329,3967 13332,3965 13332,4306 Z"/>
     <path fill="rgb(77,77,77)" stroke="none" d="M 12903,4653 L 12347,5104 12347,4762 12482,4653 12903,4653 Z M 13332,3965 L 13820,3683 13820,3910 13332,4306 13332,3965 Z M 13322,4314 L 12916,4643 12494,4643 13322,3973 13322,4314 Z"/>
     <path fill="rgb(78,78,78)" stroke="none" d="M 12916,4643 L 12347,5104 12347,4762 12494,4643 12916,4643 Z M 13322,3973 L 13329,3967 13820,3683 13820,3910 13322,4314 13322,3973 Z M 13312,4322 L 12928,4633 12506,4633 13312,3981 13312,4322 Z"/>
     <path fill="rgb(80,80,80)" stroke="none" d="M 12928,4633 L 12347,5104 12347,4762 12506,4633 12928,4633 Z M 13312,3981 L 13329,3967 13820,3683 13820,3910 13312,4322 13312,3981 Z M 13302,4330 L 12940,4623 12519,4623 13302,3989 13302,4330 Z"/>
     <path fill="rgb(81,81,81)" stroke="none" d="M 12940,4623 L 12347,5104 12347,4762 12519,4623 12940,4623 Z M 13302,3989 L 13329,3967 13820,3683 13820,3910 13302,4330 13302,3989 Z M 13292,4338 L 12953,4613 12531,4613 13292,3997 13292,4338 Z"/>
     <path fill="rgb(83,83,83)" stroke="none" d="M 12953,4613 L 12347,5104 12347,4762 12531,4613 12953,4613 Z M 13292,3997 L 13329,3967 13820,3683 13820,3910 13292,4338 13292,3997 Z M 13282,4346 L 12965,4603 12543,4603 13282,4005 13282,4346 Z"/>
     <path fill="rgb(84,84,84)" stroke="none" d="M 12965,4603 L 12347,5104 12347,4762 12543,4603 12965,4603 Z M 13282,4005 L 13329,3967 13820,3683 13820,3910 13282,4346 13282,4005 Z M 13272,4354 L 12977,4593 12556,4593 13272,4013 13272,4354 Z"/>
     <path fill="rgb(85,85,85)" stroke="none" d="M 12977,4593 L 12347,5104 12347,4762 12556,4593 12977,4593 Z M 13272,4013 L 13329,3967 13820,3683 13820,3910 13272,4354 13272,4013 Z M 13262,4362 L 12990,4583 12568,4583 13262,4021 13262,4362 Z"/>
     <path fill="rgb(87,87,87)" stroke="none" d="M 12990,4583 L 12347,5104 12347,4762 12568,4583 12990,4583 Z M 13262,4021 L 13329,3967 13820,3683 13820,3910 13262,4362 13262,4021 Z M 13252,4370 L 13002,4573 12580,4573 13252,4029 13252,4370 Z"/>
     <path fill="rgb(88,88,88)" stroke="none" d="M 13002,4573 L 12347,5104 12347,4762 12580,4573 13002,4573 Z M 13252,4029 L 13329,3967 13820,3683 13820,3910 13252,4370 13252,4029 Z M 13241,4379 L 13016,4562 12594,4562 13241,4038 13241,4379 Z"/>
     <path fill="rgb(90,90,90)" stroke="none" d="M 13016,4562 L 12347,5104 12347,4762 12594,4562 13016,4562 Z M 13241,4038 L 13329,3967 13820,3683 13820,3910 13241,4379 13241,4038 Z M 13231,4387 L 13028,4552 12606,4552 13231,4046 13231,4387 Z"/>
     <path fill="rgb(91,91,91)" stroke="none" d="M 13028,4552 L 12347,5104 12347,4762 12606,4552 13028,4552 Z M 13231,4046 L 13329,3967 13820,3683 13820,3910 13231,4387 13231,4046 Z M 13221,4396 L 13040,4542 12619,4542 13221,4054 13221,4396 Z"/>
     <path fill="rgb(92,92,92)" stroke="none" d="M 13040,4542 L 12347,5104 12347,4762 12619,4542 13040,4542 Z M 13221,4054 L 13329,3967 13820,3683 13820,3910 13221,4396 13221,4054 Z M 13211,4404 L 13053,4532 12631,4532 13211,4063 13211,4404 Z"/>
     <path fill="rgb(94,94,94)" stroke="none" d="M 13053,4532 L 12347,5104 12347,4762 12631,4532 13053,4532 Z M 13211,4063 L 13329,3967 13820,3683 13820,3910 13211,4404 13211,4063 Z M 13201,4412 L 13065,4522 12643,4522 13201,4071 13201,4412 Z"/>
     <path fill="rgb(95,95,95)" stroke="none" d="M 13065,4522 L 12347,5104 12347,4762 12643,4522 13065,4522 Z M 13201,4071 L 13329,3967 13820,3683 13820,3910 13201,4412 13201,4071 Z M 13191,4420 L 13077,4512 12656,4512 13191,4079 13191,4420 Z"/>
     <path fill="rgb(97,97,97)" stroke="none" d="M 13077,4512 L 12347,5104 12347,4762 12656,4512 13077,4512 Z M 13191,4079 L 13329,3967 13820,3683 13820,3910 13191,4420 13191,4079 Z M 13181,4428 L 13090,4502 12668,4502 13181,4087 13181,4428 Z"/>
     <path fill="rgb(98,98,98)" stroke="none" d="M 13090,4502 L 12347,5104 12347,4762 12668,4502 13090,4502 Z M 13181,4087 L 13329,3967 13820,3683 13820,3910 13181,4428 13181,4087 Z M 13171,4436 L 13102,4492 12681,4492 13171,4095 13171,4436 Z"/>
     <path fill="rgb(99,99,99)" stroke="none" d="M 13102,4492 L 12347,5104 12347,4762 12681,4492 13102,4492 Z M 13171,4095 L 13329,3967 13820,3683 13820,3910 13171,4436 13171,4095 Z M 13161,4444 L 13114,4482 12693,4482 13161,4103 13161,4444 Z"/>
     <path fill="rgb(101,101,101)" stroke="none" d="M 13114,4482 L 12347,5104 12347,4762 12693,4482 13114,4482 Z M 13161,4103 L 13329,3967 13820,3683 13820,3910 13161,4444 13161,4103 Z M 13150,4453 L 13128,4471 12706,4471 13150,4112 13150,4453 Z"/>
     <path fill="rgb(102,102,102)" stroke="none" d="M 13128,4471 L 12347,5104 12347,4762 12706,4471 13128,4471 Z M 13150,4112 L 13329,3967 13820,3683 13820,3910 13150,4453 13150,4112 Z M 13140,4461 L 12719,4461 13140,4120 13140,4461 Z"/>
     <path fill="rgb(104,104,104)" stroke="none" d="M 13140,4461 L 13140,4120 13329,3967 13820,3683 13820,3910 12347,5104 12347,4762 12719,4461 13140,4461 Z M 13130,4451 L 12731,4451 13130,4128 13130,4451 Z"/>
     <path fill="rgb(105,105,105)" stroke="none" d="M 13130,4451 L 13130,4128 13329,3967 13820,3683 13820,3910 12347,5104 12347,4762 12731,4451 13130,4451 Z M 13120,4441 L 12744,4441 13120,4136 13120,4441 Z"/>
     <path fill="rgb(106,106,106)" stroke="none" d="M 13120,4441 L 13120,4136 13329,3967 13820,3683 13820,3910 12347,5104 12347,4762 12744,4441 13120,4441 Z M 13110,4431 L 12756,4431 13110,4144 13110,4431 Z"/>
     <path fill="rgb(108,108,108)" stroke="none" d="M 13110,4431 L 13110,4144 13329,3967 13820,3683 13820,3910 12347,5104 12347,4762 12756,4431 13110,4431 Z M 13100,4421 L 12768,4421 13100,4152 13100,4421 Z"/>
     <path fill="rgb(109,109,109)" stroke="none" d="M 13100,4421 L 13100,4152 13329,3967 13820,3683 13820,3910 12347,5104 12347,4762 12768,4421 13100,4421 Z M 13090,4411 L 12781,4411 13090,4160 13090,4411 Z"/>
     <path fill="rgb(111,111,111)" stroke="none" d="M 13090,4411 L 13090,4160 13329,3967 13820,3683 13820,3910 12347,5104 12347,4762 12781,4411 13090,4411 Z M 13080,4401 L 12793,4401 13080,4169 13080,4401 Z"/>
     <path fill="rgb(112,112,112)" stroke="none" d="M 13080,4401 L 13080,4169 13329,3967 13820,3683 13820,3910 12347,5104 12347,4762 12793,4401 13080,4401 Z M 13070,4391 L 12805,4391 13070,4177 13070,4391 Z"/>
     <path fill="rgb(113,113,113)" stroke="none" d="M 13070,4391 L 13070,4177 13329,3967 13820,3683 13820,3910 12347,5104 12347,4762 12805,4391 13070,4391 Z M 13059,4380 L 12819,4380 13059,4186 13059,4380 Z"/>
     <path fill="rgb(115,115,115)" stroke="none" d="M 13059,4380 L 13059,4186 13329,3967 13820,3683 13820,3910 12347,5104 12347,4762 12819,4380 13059,4380 Z M 13049,4370 L 12831,4370 13049,4194 13049,4370 Z"/>
     <path fill="rgb(116,116,116)" stroke="none" d="M 13049,4370 L 13049,4194 13329,3967 13820,3683 13820,3910 12347,5104 12347,4762 12831,4370 13049,4370 Z M 13039,4360 L 12844,4360 13039,4202 13039,4360 Z"/>
     <path fill="rgb(118,118,118)" stroke="none" d="M 13039,4360 L 13039,4202 13329,3967 13820,3683 13820,3910 12347,5104 12347,4762 12844,4360 13039,4360 Z M 13029,4350 L 12856,4350 13029,4210 13029,4350 Z"/>
     <path fill="rgb(119,119,119)" stroke="none" d="M 13029,4350 L 13029,4210 13329,3967 13820,3683 13820,3910 12347,5104 12347,4762 12856,4350 13029,4350 Z M 13019,4340 L 12868,4340 13019,4218 13019,4340 Z"/>
     <path fill="rgb(120,120,120)" stroke="none" d="M 13019,4340 L 13019,4218 13329,3967 13820,3683 13820,3910 12347,5104 12347,4762 12868,4340 13019,4340 Z M 13009,4330 L 12881,4330 13009,4226 13009,4330 Z"/>
     <path fill="rgb(122,122,122)" stroke="none" d="M 13009,4330 L 13009,4226 13329,3967 13820,3683 13820,3910 12347,5104 12347,4762 12881,4330 13009,4330 Z M 12999,4320 L 12893,4320 12999,4234 12999,4320 Z"/>
     <path fill="rgb(123,123,123)" stroke="none" d="M 12999,4320 L 12999,4234 13329,3967 13820,3683 13820,3910 12347,5104 12347,4762 12893,4320 12999,4320 Z M 12989,4310 L 12905,4310 12989,4242 12989,4310 Z"/>
     <path fill="rgb(125,125,125)" stroke="none" d="M 12989,4310 L 12989,4242 13329,3967 13820,3683 13820,3910 12347,5104 12347,4762 12905,4310 12989,4310 Z M 12979,4300 L 12918,4300 12979,4250 12979,4300 Z"/>
     <path fill="rgb(126,126,126)" stroke="none" d="M 12979,4300 L 12979,4250 13329,3967 13820,3683 13820,3910 12347,5104 12347,4762 12918,4300 12979,4300 Z M 12968,4289 L 12931,4289 12968,4259 12968,4289 Z"/>
     <path fill="rgb(127,127,127)" stroke="none" d="M 12968,4289 L 12968,4259 13329,3967 13820,3683 13820,3910 12347,5104 12347,4762 12931,4289 12968,4289 Z M 12958,4279 L 12944,4279 12958,4267 12958,4279 Z"/>
     <path fill="rgb(129,129,129)" stroke="none" d="M 12958,4279 L 12958,4267 13329,3967 13820,3683 13820,3910 12347,5104 12347,4762 12944,4279 12958,4279 Z"/>
     <path fill="rgb(130,130,130)" stroke="none" d="M 12347,5104 L 12347,4762 13329,3967 13820,3683 13820,3910 12347,5104 Z"/>
     <path fill="rgb(132,132,132)" stroke="none" d="M 12347,5104 L 12347,4762 13329,3967 13820,3683 13820,3910 12347,5104 Z"/>
     <path fill="rgb(133,133,133)" stroke="none" d="M 12347,5104 L 12347,4762 13329,3967 13820,3683 13820,3910 12347,5104 Z"/>
     <path fill="rgb(134,134,134)" stroke="none" d="M 12347,5104 L 12347,4762 13329,3967 13820,3683 13820,3910 12347,5104 Z"/>
     <path fill="rgb(136,136,136)" stroke="none" d="M 12347,5104 L 12347,4762 13329,3967 13820,3683 13820,3910 12347,5104 Z"/>
     <path fill="rgb(137,137,137)" stroke="none" d="M 12347,5104 L 12347,4762 13329,3967 13820,3683 13820,3910 12347,5104 Z"/>
     <path fill="rgb(139,139,139)" stroke="none" d="M 12347,5104 L 12347,4762 13329,3967 13820,3683 13820,3910 12347,5104 Z"/>
     <path fill="rgb(140,140,140)" stroke="none" d="M 12347,5104 L 12347,4762 13329,3967 13820,3683 13820,3910 12347,5104 Z"/>
     <path fill="rgb(141,141,141)" stroke="none" d="M 12347,5104 L 12347,4762 13329,3967 13820,3683 13820,3910 12347,5104 Z"/>
     <path fill="rgb(143,143,143)" stroke="none" d="M 12347,5104 L 12347,4762 13329,3967 13820,3683 13820,3910 12347,5104 Z"/>
     <path fill="rgb(144,144,144)" stroke="none" d="M 12347,5104 L 12347,4762 13329,3967 13820,3683 13820,3910 12347,5104 Z"/>
     <path fill="rgb(146,146,146)" stroke="none" d="M 12347,5104 L 12347,4762 13329,3967 13820,3683 13820,3910 12347,5104 Z"/>
     <path fill="rgb(147,147,147)" stroke="none" d="M 12347,5104 L 12347,4762 13329,3967 13820,3683 13820,3910 12347,5104 Z"/>
     <path fill="rgb(148,148,148)" stroke="none" d="M 12347,5104 L 12347,4762 13329,3967 13820,3683 13820,3910 12347,5104 Z"/>
     <path fill="rgb(150,150,150)" stroke="none" d="M 12347,5104 L 12347,4762 13329,3967 13820,3683 13820,3910 12347,5104 Z"/>
     <path fill="rgb(153,153,153)" stroke="none" d="M 12347,5104 L 12347,4762 13329,3967 13820,3683 13820,3910 12347,5104 Z"/>
     <path fill="none" stroke="rgb(178,178,178)" id="Drawing_3_0" stroke-width="40" stroke-linejoin="round" d="M 12347,5104 L 12347,4762 13329,3967 13820,3683 13820,3910 12347,5104 Z"/>
    </g>
    <g>
     <path fill="rgb(51,51,51)" stroke="none" d="M 16580,5892 L 15435,6555 14409,6555 14409,6069 16078,4706 16580,4415 16580,5892 Z"/>
     <path fill="rgb(52,52,52)" stroke="none" d="M 15435,6555 L 14409,7149 14409,6555 15435,6555 Z M 16580,4415 L 16864,4251 16864,5728 16580,5892 16580,4415 Z M 16566,5900 L 15459,6541 14409,6541 14409,6069 16078,4706 16566,4424 16566,5900 Z"/>
     <path fill="rgb(53,53,53)" stroke="none" d="M 15459,6541 L 14409,7149 14409,6541 15459,6541 Z M 16566,4424 L 16864,4251 16864,5728 16566,5900 16566,4424 Z M 16552,5909 L 15484,6527 14409,6527 14409,6069 16078,4706 16552,4432 16552,5909 Z"/>
     <path fill="rgb(54,54,54)" stroke="none" d="M 15484,6527 L 14409,7149 14409,6527 15484,6527 Z M 16552,4432 L 16864,4251 16864,5728 16552,5909 16552,4432 Z M 16538,5917 L 15508,6513 14409,6513 14409,6069 16078,4706 16538,4440 16538,5917 Z"/>
     <path fill="rgb(55,55,55)" stroke="none" d="M 15508,6513 L 14409,7149 14409,6513 15508,6513 Z M 16538,4440 L 16864,4251 16864,5728 16538,5917 16538,4440 Z M 16523,5925 L 15534,6498 14409,6498 14409,6069 16078,4706 16523,4448 16523,5925 Z"/>
     <path fill="rgb(56,56,56)" stroke="none" d="M 15534,6498 L 14409,7149 14409,6498 15534,6498 Z M 16523,4448 L 16864,4251 16864,5728 16523,5925 16523,4448 Z M 16509,5933 L 15558,6484 14409,6484 14409,6069 16078,4706 16509,4457 16509,5933 Z"/>
     <path fill="rgb(57,57,57)" stroke="none" d="M 15558,6484 L 14409,7149 14409,6484 15558,6484 Z M 16509,4457 L 16864,4251 16864,5728 16509,5933 16509,4457 Z M 16495,5942 L 15582,6470 14409,6470 14409,6069 16078,4706 16495,4465 16495,5942 Z"/>
     <path fill="rgb(58,58,58)" stroke="none" d="M 15582,6470 L 14409,7149 14409,6470 15582,6470 Z M 16495,4465 L 16864,4251 16864,5728 16495,5942 16495,4465 Z M 16481,5950 L 15606,6456 14409,6456 14409,6069 16078,4706 16481,4473 16481,5950 Z"/>
     <path fill="rgb(59,59,59)" stroke="none" d="M 15606,6456 L 14409,7149 14409,6456 15606,6456 Z M 16481,4473 L 16864,4251 16864,5728 16481,5950 16481,4473 Z M 16467,5958 L 15630,6442 14409,6442 14409,6069 16078,4706 16467,4481 16467,5958 Z"/>
     <path fill="rgb(60,60,60)" stroke="none" d="M 15630,6442 L 14409,7149 14409,6442 15630,6442 Z M 16467,4481 L 16864,4251 16864,5728 16467,5958 16467,4481 Z M 16452,5966 L 15656,6427 14409,6427 14409,6069 16078,4706 16452,4489 16452,5966 Z"/>
     <path fill="rgb(61,61,61)" stroke="none" d="M 15656,6427 L 14409,7149 14409,6427 15656,6427 Z M 16452,4489 L 16864,4251 16864,5728 16452,5966 16452,4489 Z M 16438,5975 L 15681,6413 14409,6413 14409,6069 16078,4706 16438,4498 16438,5975 Z"/>
     <path fill="rgb(62,62,62)" stroke="none" d="M 15681,6413 L 14409,7149 14409,6413 15681,6413 Z M 16438,4498 L 16864,4251 16864,5728 16438,5975 16438,4498 Z M 16424,5983 L 15705,6399 14409,6399 14409,6069 16078,4706 16424,4506 16424,5983 Z"/>
     <path fill="rgb(63,63,63)" stroke="none" d="M 15705,6399 L 14409,7149 14409,6399 15705,6399 Z M 16424,4506 L 16864,4251 16864,5728 16424,5983 16424,4506 Z M 16410,5991 L 15729,6385 14409,6385 14409,6069 16078,4706 16410,4514 16410,5991 Z"/>
     <path fill="rgb(64,64,64)" stroke="none" d="M 15729,6385 L 14409,7149 14409,6385 15729,6385 Z M 16410,4514 L 16864,4251 16864,5728 16410,5991 16410,4514 Z M 16395,5999 L 15755,6370 14409,6370 14409,6069 16078,4706 16395,4522 16395,5999 Z"/>
     <path fill="rgb(65,65,65)" stroke="none" d="M 15755,6370 L 14409,7149 14409,6370 15755,6370 Z M 16395,4522 L 16864,4251 16864,5728 16395,5999 16395,4522 Z M 16381,6008 L 15779,6356 14409,6356 14409,6069 16078,4706 16381,4531 16381,6008 Z"/>
     <path fill="rgb(66,66,66)" stroke="none" d="M 15779,6356 L 14409,7149 14409,6356 15779,6356 Z M 16381,4531 L 16864,4251 16864,5728 16381,6008 16381,4531 Z M 16367,6016 L 15803,6342 14409,6342 14409,6069 16078,4706 16367,4539 16367,6016 Z"/>
     <path fill="rgb(67,67,67)" stroke="none" d="M 15803,6342 L 14409,7149 14409,6342 15803,6342 Z M 16367,4539 L 16864,4251 16864,5728 16367,6016 16367,4539 Z M 16353,6024 L 15827,6328 14409,6328 14409,6069 16078,4706 16353,4547 16353,6024 Z"/>
     <path fill="rgb(68,68,68)" stroke="none" d="M 15827,6328 L 14409,7149 14409,6328 15827,6328 Z M 16353,4547 L 16864,4251 16864,5728 16353,6024 16353,4547 Z M 16339,6032 L 15852,6314 14409,6314 14409,6069 16078,4706 16339,4555 16339,6032 Z"/>
     <path fill="rgb(69,69,69)" stroke="none" d="M 15852,6314 L 14409,7149 14409,6314 15852,6314 Z M 16339,4555 L 16864,4251 16864,5728 16339,6032 16339,4555 Z M 16324,6041 L 15878,6299 14409,6299 14409,6069 16078,4706 16324,4564 16324,6041 Z"/>
     <path fill="rgb(70,70,70)" stroke="none" d="M 15878,6299 L 14409,7149 14409,6299 15878,6299 Z M 16324,4564 L 16864,4251 16864,5728 16324,6041 16324,4564 Z M 16310,6049 L 15902,6285 14409,6285 14409,6069 16078,4706 16310,4572 16310,6049 Z"/>
     <path fill="rgb(71,71,71)" stroke="none" d="M 15902,6285 L 14409,7149 14409,6285 15902,6285 Z M 16310,4572 L 16864,4251 16864,5728 16310,6049 16310,4572 Z M 16296,6057 L 15926,6271 14409,6271 14409,6069 16078,4706 16296,4580 16296,6057 Z"/>
     <path fill="rgb(72,72,72)" stroke="none" d="M 15926,6271 L 14409,7149 14409,6271 15926,6271 Z M 16296,4580 L 16864,4251 16864,5728 16296,6057 16296,4580 Z M 16282,6065 L 15950,6257 14409,6257 14409,6069 16078,4706 16282,4588 16282,6065 Z"/>
     <path fill="rgb(73,73,73)" stroke="none" d="M 15950,6257 L 14409,7149 14409,6257 15950,6257 Z M 16282,4588 L 16864,4251 16864,5728 16282,6065 16282,4588 Z M 16267,6074 L 15976,6242 14409,6242 14409,6069 16078,4706 16267,4597 16267,6074 Z"/>
     <path fill="rgb(74,74,74)" stroke="none" d="M 15976,6242 L 14409,7149 14409,6242 15976,6242 Z M 16267,4597 L 16864,4251 16864,5728 16267,6074 16267,4597 Z M 16253,6082 L 16000,6228 14409,6228 14409,6069 16078,4706 16253,4605 16253,6082 Z"/>
     <path fill="rgb(75,75,75)" stroke="none" d="M 16000,6228 L 14409,7149 14409,6228 16000,6228 Z M 16253,4605 L 16864,4251 16864,5728 16253,6082 16253,4605 Z M 16239,6090 L 16024,6214 14409,6214 14409,6069 16078,4706 16239,4613 16239,6090 Z"/>
     <path fill="rgb(76,76,76)" stroke="none" d="M 16024,6214 L 14409,7149 14409,6214 16024,6214 Z M 16239,4613 L 16864,4251 16864,5728 16239,6090 16239,4613 Z M 16225,6098 L 16049,6200 14409,6200 14409,6069 16078,4706 16225,4621 16225,6098 Z"/>
     <path fill="rgb(77,77,77)" stroke="none" d="M 16049,6200 L 14409,7149 14409,6200 16049,6200 Z M 16225,4621 L 16864,4251 16864,5728 16225,6098 16225,4621 Z M 16211,6106 L 16073,6186 14409,6186 14409,6069 16078,4706 16211,4629 16211,6106 Z"/>
     <path fill="rgb(78,78,78)" stroke="none" d="M 16073,6186 L 14409,7149 14409,6186 16073,6186 Z M 16211,4629 L 16864,4251 16864,5728 16211,6106 16211,4629 Z M 16196,6115 L 16099,6171 14409,6171 14409,6069 16078,4706 16196,4638 16196,6115 Z"/>
     <path fill="rgb(79,79,79)" stroke="none" d="M 16099,6171 L 14409,7149 14409,6171 16099,6171 Z M 16196,4638 L 16864,4251 16864,5728 16196,6115 16196,4638 Z M 16182,6123 L 16123,6157 14409,6157 14409,6069 16078,4706 16182,4646 16182,6123 Z"/>
     <path fill="rgb(80,80,80)" stroke="none" d="M 16123,6157 L 14409,7149 14409,6157 16123,6157 Z M 16182,4646 L 16864,4251 16864,5728 16182,6123 16182,4646 Z M 16168,6131 L 16147,6143 14409,6143 14409,6069 16078,4706 16168,4654 16168,6131 Z"/>
     <path fill="rgb(81,81,81)" stroke="none" d="M 16147,6143 L 14409,7149 14409,6143 16147,6143 Z M 16168,4654 L 16864,4251 16864,5728 16168,6131 16168,4654 Z M 16154,6129 L 14409,6129 14409,6069 16078,4706 16154,4662 16154,6129 Z"/>
     <path fill="rgb(82,82,82)" stroke="none" d="M 16154,6129 L 16154,4662 16864,4251 16864,5728 14409,7149 14409,6129 16154,6129 Z M 16139,6114 L 14409,6114 14409,6069 16078,4706 16139,4671 16139,6114 Z"/>
     <path fill="rgb(83,83,83)" stroke="none" d="M 16139,6114 L 16139,4671 16864,4251 16864,5728 14409,7149 14409,6114 16139,6114 Z M 16125,6100 L 14409,6100 14409,6069 16078,4706 16125,4679 16125,6100 Z"/>
     <path fill="rgb(84,84,84)" stroke="none" d="M 16125,6100 L 16125,4679 16864,4251 16864,5728 14409,7149 14409,6100 16125,6100 Z M 16111,6086 L 14409,6086 14409,6069 16078,4706 16111,4687 16111,6086 Z"/>
     <path fill="rgb(85,85,85)" stroke="none" d="M 16111,6086 L 16111,4687 16864,4251 16864,5728 14409,7149 14409,6086 16111,6086 Z M 16097,6072 L 14409,6072 14409,6069 16078,4706 16097,4695 16097,6072 Z"/>
     <path fill="rgb(86,86,86)" stroke="none" d="M 16097,6072 L 16097,4695 16864,4251 16864,5728 14409,7149 14409,6072 16097,6072 Z M 16083,6058 L 14422,6058 16078,4706 16083,4703 16083,6058 Z"/>
     <path fill="rgb(87,87,87)" stroke="none" d="M 16083,6058 L 16083,4703 16864,4251 16864,5728 14409,7149 14409,6069 14422,6058 16083,6058 Z M 16068,6043 L 14441,6043 16068,4714 16068,6043 Z"/>
     <path fill="rgb(88,88,88)" stroke="none" d="M 16068,6043 L 16068,4714 16078,4706 16864,4251 16864,5728 14409,7149 14409,6069 14441,6043 16068,6043 Z M 16054,6029 L 14458,6029 16054,4726 16054,6029 Z"/>
     <path fill="rgb(89,89,89)" stroke="none" d="M 16054,6029 L 16054,4726 16078,4706 16864,4251 16864,5728 14409,7149 14409,6069 14458,6029 16054,6029 Z M 16040,6015 L 14475,6015 16040,4737 16040,6015 Z"/>
     <path fill="rgb(90,90,90)" stroke="none" d="M 16040,6015 L 16040,4737 16078,4706 16864,4251 16864,5728 14409,7149 14409,6069 14475,6015 16040,6015 Z M 16026,6001 L 14492,6001 16026,4748 16026,6001 Z"/>
     <path fill="rgb(91,91,91)" stroke="none" d="M 16026,6001 L 16026,4748 16078,4706 16864,4251 16864,5728 14409,7149 14409,6069 14492,6001 16026,6001 Z M 16011,5986 L 14511,5986 16011,4761 16011,5986 Z"/>
     <path fill="rgb(92,92,92)" stroke="none" d="M 16011,5986 L 16011,4761 16078,4706 16864,4251 16864,5728 14409,7149 14409,6069 14511,5986 16011,5986 Z M 15997,5972 L 14528,5972 15997,4772 15997,5972 Z"/>
     <path fill="rgb(93,93,93)" stroke="none" d="M 15997,5972 L 15997,4772 16078,4706 16864,4251 16864,5728 14409,7149 14409,6069 14528,5972 15997,5972 Z M 15983,5958 L 14545,5958 15983,4784 15983,5958 Z"/>
     <path fill="rgb(94,94,94)" stroke="none" d="M 15983,5958 L 15983,4784 16078,4706 16864,4251 16864,5728 14409,7149 14409,6069 14545,5958 15983,5958 Z M 15969,5944 L 14562,5944 15969,4795 15969,5944 Z"/>
     <path fill="rgb(95,95,95)" stroke="none" d="M 15969,5944 L 15969,4795 16078,4706 16864,4251 16864,5728 14409,7149 14409,6069 14562,5944 15969,5944 Z M 15955,5930 L 14579,5930 15955,4806 15955,5930 Z"/>
     <path fill="rgb(96,96,96)" stroke="none" d="M 15955,5930 L 15955,4806 16078,4706 16864,4251 16864,5728 14409,7149 14409,6069 14579,5930 15955,5930 Z M 15940,5915 L 14598,5915 15940,4819 15940,5915 Z"/>
     <path fill="rgb(97,97,97)" stroke="none" d="M 15940,5915 L 15940,4819 16078,4706 16864,4251 16864,5728 14409,7149 14409,6069 14598,5915 15940,5915 Z M 15926,5901 L 14615,5901 15926,4830 15926,5901 Z"/>
     <path fill="rgb(98,98,98)" stroke="none" d="M 15926,5901 L 15926,4830 16078,4706 16864,4251 16864,5728 14409,7149 14409,6069 14615,5901 15926,5901 Z M 15912,5887 L 14632,5887 15912,4842 15912,5887 Z"/>
     <path fill="rgb(99,99,99)" stroke="none" d="M 15912,5887 L 15912,4842 16078,4706 16864,4251 16864,5728 14409,7149 14409,6069 14632,5887 15912,5887 Z M 15898,5873 L 14649,5873 15898,4853 15898,5873 Z"/>
     <path fill="rgb(100,100,100)" stroke="none" d="M 15898,5873 L 15898,4853 16078,4706 16864,4251 16864,5728 14409,7149 14409,6069 14649,5873 15898,5873 Z M 15883,5858 L 14667,5858 15883,4865 15883,5858 Z"/>
     <path fill="rgb(101,101,101)" stroke="none" d="M 15883,5858 L 15883,4865 16078,4706 16864,4251 16864,5728 14409,7149 14409,6069 14667,5858 15883,5858 Z M 15869,5844 L 14685,5844 15869,4877 15869,5844 Z"/>
     <path fill="rgb(102,102,102)" stroke="none" d="M 15869,5844 L 15869,4877 16078,4706 16864,4251 16864,5728 14409,7149 14409,6069 14685,5844 15869,5844 Z M 15855,5830 L 14702,5830 15855,4888 15855,5830 Z"/>
     <path fill="rgb(103,103,103)" stroke="none" d="M 15855,5830 L 15855,4888 16078,4706 16864,4251 16864,5728 14409,7149 14409,6069 14702,5830 15855,5830 Z M 15841,5816 L 14719,5816 15841,4900 15841,5816 Z"/>
     <path fill="rgb(104,104,104)" stroke="none" d="M 15841,5816 L 15841,4900 16078,4706 16864,4251 16864,5728 14409,7149 14409,6069 14719,5816 15841,5816 Z M 15827,5802 L 14736,5802 15827,4911 15827,5802 Z"/>
     <path fill="rgb(105,105,105)" stroke="none" d="M 15827,5802 L 15827,4911 16078,4706 16864,4251 16864,5728 14409,7149 14409,6069 14736,5802 15827,5802 Z M 15812,5787 L 14754,5787 15812,4923 15812,5787 Z"/>
     <path fill="rgb(106,106,106)" stroke="none" d="M 15812,5787 L 15812,4923 16078,4706 16864,4251 16864,5728 14409,7149 14409,6069 14754,5787 15812,5787 Z M 15798,5773 L 14771,5773 15798,4935 15798,5773 Z"/>
     <path fill="rgb(107,107,107)" stroke="none" d="M 15798,5773 L 15798,4935 16078,4706 16864,4251 16864,5728 14409,7149 14409,6069 14771,5773 15798,5773 Z M 15784,5759 L 14789,5759 15784,4946 15784,5759 Z"/>
     <path fill="rgb(108,108,108)" stroke="none" d="M 15784,5759 L 15784,4946 16078,4706 16864,4251 16864,5728 14409,7149 14409,6069 14789,5759 15784,5759 Z M 15770,5745 L 14806,5745 15770,4958 15770,5745 Z"/>
     <path fill="rgb(109,109,109)" stroke="none" d="M 15770,5745 L 15770,4958 16078,4706 16864,4251 16864,5728 14409,7149 14409,6069 14806,5745 15770,5745 Z M 15755,5730 L 14824,5730 15755,4970 15755,5730 Z"/>
     <path fill="rgb(110,110,110)" stroke="none" d="M 15755,5730 L 15755,4970 16078,4706 16864,4251 16864,5728 14409,7149 14409,6069 14824,5730 15755,5730 Z M 15741,5716 L 14841,5716 15741,4981 15741,5716 Z"/>
     <path fill="rgb(111,111,111)" stroke="none" d="M 15741,5716 L 15741,4981 16078,4706 16864,4251 16864,5728 14409,7149 14409,6069 14841,5716 15741,5716 Z M 15727,5702 L 14858,5702 15727,4993 15727,5702 Z"/>
     <path fill="rgb(112,112,112)" stroke="none" d="M 15727,5702 L 15727,4993 16078,4706 16864,4251 16864,5728 14409,7149 14409,6069 14858,5702 15727,5702 Z M 15713,5688 L 14876,5688 15713,5004 15713,5688 Z"/>
     <path fill="rgb(113,113,113)" stroke="none" d="M 15713,5688 L 15713,5004 16078,4706 16864,4251 16864,5728 14409,7149 14409,6069 14876,5688 15713,5688 Z M 15699,5674 L 14893,5674 15699,5016 15699,5674 Z"/>
     <path fill="rgb(114,114,114)" stroke="none" d="M 15699,5674 L 15699,5016 16078,4706 16864,4251 16864,5728 14409,7149 14409,6069 14893,5674 15699,5674 Z M 15684,5659 L 14911,5659 15684,5028 15684,5659 Z"/>
     <path fill="rgb(115,115,115)" stroke="none" d="M 15684,5659 L 15684,5028 16078,4706 16864,4251 16864,5728 14409,7149 14409,6069 14911,5659 15684,5659 Z M 15670,5645 L 14928,5645 15670,5039 15670,5645 Z"/>
     <path fill="rgb(116,116,116)" stroke="none" d="M 15670,5645 L 15670,5039 16078,4706 16864,4251 16864,5728 14409,7149 14409,6069 14928,5645 15670,5645 Z M 15656,5631 L 14945,5631 15656,5051 15656,5631 Z"/>
     <path fill="rgb(117,117,117)" stroke="none" d="M 15656,5631 L 15656,5051 16078,4706 16864,4251 16864,5728 14409,7149 14409,6069 14945,5631 15656,5631 Z M 15642,5617 L 14962,5617 15642,5062 15642,5617 Z"/>
     <path fill="rgb(118,118,118)" stroke="none" d="M 15642,5617 L 15642,5062 16078,4706 16864,4251 16864,5728 14409,7149 14409,6069 14962,5617 15642,5617 Z M 15627,5602 L 14981,5602 15627,5074 15627,5602 Z"/>
     <path fill="rgb(119,119,119)" stroke="none" d="M 15627,5602 L 15627,5074 16078,4706 16864,4251 16864,5728 14409,7149 14409,6069 14981,5602 15627,5602 Z M 15613,5588 L 14998,5588 15613,5086 15613,5588 Z"/>
     <path fill="rgb(120,120,120)" stroke="none" d="M 15613,5588 L 15613,5086 16078,4706 16864,4251 16864,5728 14409,7149 14409,6069 14998,5588 15613,5588 Z M 15599,5574 L 15015,5574 15599,5097 15599,5574 Z"/>
     <path fill="rgb(121,121,121)" stroke="none" d="M 15599,5574 L 15599,5097 16078,4706 16864,4251 16864,5728 14409,7149 14409,6069 15015,5574 15599,5574 Z M 15585,5560 L 15032,5560 15585,5109 15585,5560 Z"/>
     <path fill="rgb(122,122,122)" stroke="none" d="M 15585,5560 L 15585,5109 16078,4706 16864,4251 16864,5728 14409,7149 14409,6069 15032,5560 15585,5560 Z M 15571,5546 L 15049,5546 15571,5120 15571,5546 Z"/>
     <path fill="rgb(123,123,123)" stroke="none" d="M 15571,5546 L 15571,5120 16078,4706 16864,4251 16864,5728 14409,7149 14409,6069 15049,5546 15571,5546 Z M 15556,5531 L 15068,5531 15556,5132 15556,5531 Z"/>
     <path fill="rgb(124,124,124)" stroke="none" d="M 15556,5531 L 15556,5132 16078,4706 16864,4251 16864,5728 14409,7149 14409,6069 15068,5531 15556,5531 Z M 15542,5517 L 15085,5517 15542,5144 15542,5517 Z"/>
     <path fill="rgb(125,125,125)" stroke="none" d="M 15542,5517 L 15542,5144 16078,4706 16864,4251 16864,5728 14409,7149 14409,6069 15085,5517 15542,5517 Z M 15528,5503 L 15102,5503 15528,5155 15528,5503 Z"/>
     <path fill="rgb(126,126,126)" stroke="none" d="M 15528,5503 L 15528,5155 16078,4706 16864,4251 16864,5728 14409,7149 14409,6069 15102,5503 15528,5503 Z M 15514,5489 L 15119,5489 15514,5167 15514,5489 Z"/>
     <path fill="rgb(127,127,127)" stroke="none" d="M 15514,5489 L 15514,5167 16078,4706 16864,4251 16864,5728 14409,7149 14409,6069 15119,5489 15514,5489 Z M 15500,5475 L 15136,5475 15500,5178 15500,5475 Z"/>
     <path fill="rgb(128,128,128)" stroke="none" d="M 15500,5475 L 15500,5178 16078,4706 16864,4251 16864,5728 14409,7149 14409,6069 15136,5475 15500,5475 Z M 15485,5460 L 15155,5460 15485,5190 15485,5460 Z"/>
     <path fill="rgb(129,129,129)" stroke="none" d="M 15485,5460 L 15485,5190 16078,4706 16864,4251 16864,5728 14409,7149 14409,6069 15155,5460 15485,5460 Z M 15471,5446 L 15172,5446 15471,5202 15471,5446 Z"/>
     <path fill="rgb(130,130,130)" stroke="none" d="M 15471,5446 L 15471,5202 16078,4706 16864,4251 16864,5728 14409,7149 14409,6069 15172,5446 15471,5446 Z M 15457,5432 L 15189,5432 15457,5213 15457,5432 Z"/>
     <path fill="rgb(131,131,131)" stroke="none" d="M 15457,5432 L 15457,5213 16078,4706 16864,4251 16864,5728 14409,7149 14409,6069 15189,5432 15457,5432 Z M 15443,5418 L 15206,5418 15443,5225 15443,5418 Z"/>
     <path fill="rgb(132,132,132)" stroke="none" d="M 15443,5418 L 15443,5225 16078,4706 16864,4251 16864,5728 14409,7149 14409,6069 15206,5418 15443,5418 Z M 15428,5403 L 15225,5403 15428,5237 15428,5403 Z"/>
     <path fill="rgb(133,133,133)" stroke="none" d="M 15428,5403 L 15428,5237 16078,4706 16864,4251 16864,5728 14409,7149 14409,6069 15225,5403 15428,5403 Z M 15414,5389 L 15242,5389 15414,5248 15414,5389 Z"/>
     <path fill="rgb(134,134,134)" stroke="none" d="M 15414,5389 L 15414,5248 16078,4706 16864,4251 16864,5728 14409,7149 14409,6069 15242,5389 15414,5389 Z M 15400,5375 L 15259,5375 15400,5260 15400,5375 Z"/>
     <path fill="rgb(135,135,135)" stroke="none" d="M 15400,5375 L 15400,5260 16078,4706 16864,4251 16864,5728 14409,7149 14409,6069 15259,5375 15400,5375 Z M 15386,5361 L 15276,5361 15386,5271 15386,5361 Z"/>
     <path fill="rgb(136,136,136)" stroke="none" d="M 15386,5361 L 15386,5271 16078,4706 16864,4251 16864,5728 14409,7149 14409,6069 15276,5361 15386,5361 Z M 15372,5347 L 15293,5347 15372,5283 15372,5347 Z"/>
     <path fill="rgb(137,137,137)" stroke="none" d="M 15372,5347 L 15372,5283 16078,4706 16864,4251 16864,5728 14409,7149 14409,6069 15293,5347 15372,5347 Z M 15357,5332 L 15311,5332 15357,5295 15357,5332 Z"/>
     <path fill="rgb(138,138,138)" stroke="none" d="M 15357,5332 L 15357,5295 16078,4706 16864,4251 16864,5728 14409,7149 14409,6069 15311,5332 15357,5332 Z M 15343,5318 L 15329,5318 15343,5306 15343,5318 Z"/>
     <path fill="rgb(139,139,139)" stroke="none" d="M 15343,5318 L 15343,5306 16078,4706 16864,4251 16864,5728 14409,7149 14409,6069 15329,5318 15343,5318 Z"/>
     <path fill="rgb(140,140,140)" stroke="none" d="M 14409,7149 L 14409,6069 16078,4706 16864,4251 16864,5728 14409,7149 Z"/>
     <path fill="rgb(141,141,141)" stroke="none" d="M 14409,7149 L 14409,6069 16078,4706 16864,4251 16864,5728 14409,7149 Z"/>
     <path fill="rgb(142,142,142)" stroke="none" d="M 14409,7149 L 14409,6069 16078,4706 16864,4251 16864,5728 14409,7149 Z"/>
     <path fill="rgb(143,143,143)" stroke="none" d="M 14409,7149 L 14409,6069 16078,4706 16864,4251 16864,5728 14409,7149 Z"/>
     <path fill="rgb(144,144,144)" stroke="none" d="M 14409,7149 L 14409,6069 16078,4706 16864,4251 16864,5728 14409,7149 Z"/>
     <path fill="rgb(145,145,145)" stroke="none" d="M 14409,7149 L 14409,6069 16078,4706 16864,4251 16864,5728 14409,7149 Z"/>
     <path fill="rgb(146,146,146)" stroke="none" d="M 14409,7149 L 14409,6069 16078,4706 16864,4251 16864,5728 14409,7149 Z"/>
     <path fill="rgb(147,147,147)" stroke="none" d="M 14409,7149 L 14409,6069 16078,4706 16864,4251 16864,5728 14409,7149 Z"/>
     <path fill="rgb(148,148,148)" stroke="none" d="M 14409,7149 L 14409,6069 16078,4706 16864,4251 16864,5728 14409,7149 Z"/>
     <path fill="rgb(149,149,149)" stroke="none" d="M 14409,7149 L 14409,6069 16078,4706 16864,4251 16864,5728 14409,7149 Z"/>
     <path fill="rgb(150,150,150)" stroke="none" d="M 14409,7149 L 14409,6069 16078,4706 16864,4251 16864,5728 14409,7149 Z"/>
     <path fill="rgb(151,151,151)" stroke="none" d="M 14409,7149 L 14409,6069 16078,4706 16864,4251 16864,5728 14409,7149 Z"/>
     <path fill="rgb(153,153,153)" stroke="none" d="M 14409,7149 L 14409,6069 16078,4706 16864,4251 16864,5728 14409,7149 Z"/>
     <path fill="none" stroke="rgb(178,178,178)" id="Drawing_4_0" stroke-width="40" stroke-linejoin="round" d="M 14409,7149 L 14409,6069 16078,4706 16864,4251 16864,5728 14409,7149 Z"/>
    </g>
    <g>
     <defs>
      <linearGradient id="Gradient_176" gradientUnits="userSpaceOnUse" x1="12443" y1="6038" x2="14411" y2="6042">
       <stop offset="0.1" stop-color="rgb(51,51,51)"/>
       <stop offset="1" stop-color="rgb(153,153,153)"/>
      </linearGradient>
     </defs>
     <path fill="url(#Gradient_176)" stroke="rgb(178,178,178)" id="Drawing_5_0" stroke-width="40" stroke-linejoin="round" d="M 12445,6011 L 12445,4932 14409,6068 14409,7148 12445,6011 Z"/>
    </g>
    <g>
     <defs>
      <linearGradient id="Gradient_177" gradientUnits="userSpaceOnUse" x1="12443" y1="4817" x2="16081" y2="4823">
       <stop offset="0.1" stop-color="rgb(51,51,51)"/>
       <stop offset="1" stop-color="rgb(153,153,153)"/>
      </linearGradient>
     </defs>
     <path fill="url(#Gradient_177)" stroke="rgb(178,178,178)" id="Drawing_6_0" stroke-width="40" stroke-linejoin="round" d="M 14409,6070 L 12445,4934 14114,3570 16079,4706 14409,6070 Z"/>
    </g>
    <g>
     <path fill="rgb(178,178,178)" stroke="none" d="M 13527,5160 L 13625,5047 13723,5104 13625,5217 13527,5160 Z"/>
     <path fill="none" stroke="rgb(51,51,51)" id="Drawing_7_0" stroke-width="40" stroke-linejoin="round" d="M 13527,5160 L 13625,5047 13723,5104 13625,5217 13527,5160 Z"/>
    </g>
    <g>
     <defs>
      <linearGradient id="Gradient_178" gradientUnits="userSpaceOnUse" x1="14113" y1="4505" x2="15293" y2="4507">
       <stop offset="0.1" stop-color="rgb(147,212,240)"/>
       <stop offset="1" stop-color="rgb(233,246,252)"/>
      </linearGradient>
     </defs>
     <path fill="url(#Gradient_178)" stroke="rgb(51,51,51)" id="Drawing_8_0" stroke-width="40" stroke-linejoin="round" d="M 14114,4307 L 14310,4137 15292,4705 15096,4876 14114,4307 Z"/>
    </g>
    <g>
     <path fill="rgb(178,178,178)" stroke="none" d="M 13724,4989 L 13822,4876 13920,4933 13822,5046 13724,4989 Z"/>
     <path fill="none" stroke="rgb(51,51,51)" id="Drawing_9_0" stroke-width="40" stroke-linejoin="round" d="M 13724,4989 L 13822,4876 13920,4933 13822,5046 13724,4989 Z"/>
    </g>
    <g>
     <path fill="rgb(178,178,178)" stroke="none" d="M 13920,4818 L 14018,4705 14116,4762 14018,4875 13920,4818 Z"/>
     <path fill="none" stroke="rgb(51,51,51)" id="Drawing_10_0" stroke-width="40" stroke-linejoin="round" d="M 13920,4818 L 14018,4705 14116,4762 14018,4875 13920,4818 Z"/>
    </g>
    <g>
     <path fill="rgb(178,178,178)" stroke="none" d="M 14116,4648 L 14214,4535 14312,4592 14214,4705 14116,4648 Z"/>
     <path fill="none" stroke="rgb(51,51,51)" id="Drawing_11_0" stroke-width="40" stroke-linejoin="round" d="M 14116,4648 L 14214,4535 14312,4592 14214,4705 14116,4648 Z"/>
    </g>
    <g>
     <path fill="rgb(178,178,178)" stroke="none" d="M 13724,5273 L 13822,5160 13920,5217 13822,5330 13724,5273 Z"/>
     <path fill="none" stroke="rgb(51,51,51)" id="Drawing_12_0" stroke-width="40" stroke-linejoin="round" d="M 13724,5273 L 13822,5160 13920,5217 13822,5330 13724,5273 Z"/>
    </g>
    <g>
     <path fill="rgb(178,178,178)" stroke="none" d="M 13919,5102 L 14017,4989 14115,5046 14017,5159 13919,5102 Z"/>
     <path fill="none" stroke="rgb(51,51,51)" id="Drawing_13_0" stroke-width="40" stroke-linejoin="round" d="M 13919,5102 L 14017,4989 14115,5046 14017,5159 13919,5102 Z"/>
    </g>
    <g>
     <path fill="rgb(178,178,178)" stroke="none" d="M 14116,4932 L 14214,4819 14312,4876 14214,4989 14116,4932 Z"/>
     <path fill="none" stroke="rgb(51,51,51)" id="Drawing_14_0" stroke-width="40" stroke-linejoin="round" d="M 14116,4932 L 14214,4819 14312,4876 14214,4989 14116,4932 Z"/>
    </g>
    <g>
     <path fill="rgb(178,178,178)" stroke="none" d="M 14311,4762 L 14409,4649 14507,4706 14409,4819 14311,4762 Z"/>
     <path fill="none" stroke="rgb(51,51,51)" id="Drawing_15_0" stroke-width="40" stroke-linejoin="round" d="M 14311,4762 L 14409,4649 14507,4706 14409,4819 14311,4762 Z"/>
    </g>
    <g>
     <path fill="rgb(57,181,74)" stroke="none" d="M 13919,5387 L 14017,5274 14115,5331 14017,5444 13919,5387 Z"/>
     <path fill="none" stroke="rgb(51,51,51)" id="Drawing_16_0" stroke-width="40" stroke-linejoin="round" d="M 13919,5387 L 14017,5274 14115,5331 14017,5444 13919,5387 Z"/>
    </g>
    <g>
     <path fill="rgb(222,142,150)" stroke="none" d="M 14116,5217 L 14214,5104 14312,5161 14214,5274 14116,5217 Z"/>
     <path fill="none" stroke="rgb(51,51,51)" id="Drawing_17_0" stroke-width="40" stroke-linejoin="round" d="M 14116,5217 L 14214,5104 14312,5161 14214,5274 14116,5217 Z"/>
    </g>
    <g>
     <path fill="rgb(0,0,0)" stroke="none" d="M 14312,5045 L 14410,4932 14508,4989 14410,5102 14312,5045 Z"/>
     <path fill="none" stroke="rgb(51,51,51)" id="Drawing_18_0" stroke-width="40" stroke-linejoin="round" d="M 14312,5045 L 14410,4932 14508,4989 14410,5102 14312,5045 Z"/>
    </g>
    <g>
     <path fill="rgb(178,178,178)" stroke="none" d="M 14508,4875 L 14606,4762 14704,4819 14606,4932 14508,4875 Z"/>
     <path fill="none" stroke="rgb(51,51,51)" id="Drawing_19_0" stroke-width="40" stroke-linejoin="round" d="M 14508,4875 L 14606,4762 14704,4819 14606,4932 14508,4875 Z"/>
    </g>
    <g>
     <path fill="none" stroke="rgb(178,178,178)" id="Drawing_20_0" stroke-width="40" stroke-linejoin="round" d="M 12641,5671 L 12641,5558"/>
    </g>
    <g>
     <path fill="none" stroke="rgb(178,178,178)" id="Drawing_21_0" stroke-width="40" stroke-linejoin="round" d="M 12641,5671 L 14212,6580"/>
    </g>
    <g>
     <path fill="none" stroke="rgb(102,102,102)" id="Drawing_22_0" stroke-width="40" stroke-linejoin="round" d="M 12641,5558 L 14212,6467"/>
    </g>
    <g>
     <path fill="none" stroke="rgb(102,102,102)" id="Drawing_23_0" stroke-width="40" stroke-linejoin="round" d="M 14213,6580 L 14213,6467"/>
    </g>
    <g>
     <defs>
      <linearGradient id="Gradient_179" gradientUnits="userSpaceOnUse" x1="11953" y1="4819" x2="12346" y2="4819">
       <stop offset="0.1" stop-color="rgb(51,51,51)"/>
       <stop offset="1" stop-color="rgb(153,153,153)"/>
      </linearGradient>
     </defs>
     <path fill="url(#Gradient_179)" stroke="rgb(178,178,178)" id="Drawing_24_0" stroke-width="40" stroke-linejoin="round" d="M 11954,4875 L 11954,4535 12347,4762 12347,5103 11954,4875 Z"/>
    </g>
    <g>
     <defs>
      <linearGradient id="Gradient_180" gradientUnits="userSpaceOnUse" x1="11952" y1="4250" x2="13329" y2="4252">
       <stop offset="0.1" stop-color="rgb(51,51,51)"/>
       <stop offset="1" stop-color="rgb(153,153,153)"/>
      </linearGradient>
     </defs>
     <path fill="url(#Gradient_180)" stroke="rgb(178,178,178)" id="Drawing_25_0" stroke-width="40" stroke-linejoin="round" d="M 12347,4762 L 11954,4535 12936,3740 13329,3967 12347,4762 Z"/>
    </g>
    <g>
     <defs>
      <linearGradient id="Gradient_181" gradientUnits="userSpaceOnUse" x1="13378" y1="3456" x2="13378" y2="3968">
       <stop offset="0.1" stop-color="rgb(51,51,51)"/>
       <stop offset="1" stop-color="rgb(153,153,153)"/>
      </linearGradient>
     </defs>
     <path fill="url(#Gradient_181)" stroke="rgb(178,178,178)" id="Drawing_26_0" stroke-width="40" stroke-linejoin="round" d="M 13329,3968 L 12936,3740 13427,3456 13820,3683 13329,3968 Z"/>
    </g>
    <g>
     <path fill="none" stroke="rgb(178,178,178)" id="Drawing_27_0" stroke-width="40" stroke-linejoin="round" d="M 14704,3456 L 14802,3399"/>
    </g>
    <g>
     <path fill="none" stroke="rgb(102,102,102)" id="Drawing_28_0" stroke-width="40" stroke-linejoin="round" d="M 14704,3456 L 16275,4365"/>
    </g>
    <g>
     <path fill="none" stroke="rgb(178,178,178)" id="Drawing_29_0" stroke-width="40" stroke-linejoin="round" d="M 14802,3399 L 16373,4308"/>
    </g>
    <g>
     <path fill="none" stroke="rgb(102,102,102)" id="Drawing_30_0" stroke-width="40" stroke-linejoin="round" d="M 16276,4365 L 16374,4308"/>
    </g>
    <g>
     <path fill="none" stroke="rgb(0,0,0)" id="Drawing_31_0" stroke-width="40" stroke-linejoin="round" d="M 11954,4876 L 11954,4536 12936,3740 13427,3455 13820,3683 13820,3797 14114,3570 14901,3115 16865,4251 16865,5728 14409,7149 12445,6013 12445,5160 11954,4876 Z"/>
    </g>
    <g>
     <path fill="rgb(178,178,178)" stroke="none" d="M 13330,5045 L 13428,4932 13526,4989 13428,5102 13330,5045 Z"/>
     <path fill="none" stroke="rgb(51,51,51)" id="Drawing_32_0" stroke-width="40" stroke-linejoin="round" d="M 13330,5045 L 13428,4932 13526,4989 13428,5102 13330,5045 Z"/>
    </g>
    <g>
     <path fill="rgb(178,178,178)" stroke="none" d="M 13526,4875 L 13624,4762 13722,4819 13624,4932 13526,4875 Z"/>
     <path fill="none" stroke="rgb(51,51,51)" id="Drawing_33_0" stroke-width="40" stroke-linejoin="round" d="M 13526,4875 L 13624,4762 13722,4819 13624,4932 13526,4875 Z"/>
    </g>
    <g>
     <path fill="rgb(178,178,178)" stroke="none" d="M 13723,4705 L 13821,4592 13919,4649 13821,4762 13723,4705 Z"/>
     <path fill="none" stroke="rgb(51,51,51)" id="Drawing_34_0" stroke-width="40" stroke-linejoin="round" d="M 13723,4705 L 13821,4592 13919,4649 13821,4762 13723,4705 Z"/>
    </g>
    <g>
     <path fill="rgb(178,178,178)" stroke="none" d="M 13919,4535 L 14017,4422 14115,4479 14017,4592 13919,4535 Z"/>
     <path fill="none" stroke="rgb(51,51,51)" id="Drawing_35_0" stroke-width="40" stroke-linejoin="round" d="M 13919,4535 L 14017,4422 14115,4479 14017,4592 13919,4535 Z"/>
    </g>
    <g>
     <path fill="rgb(255,255,255)" stroke="none" d="M 16178,4251 C 15785,4024 15294,3740 14901,3513 15196,3228 15327,2149 15981,2149 16374,2376 16865,2661 17356,2944 16702,2944 16472,3740 16178,4251 Z"/>
     <path fill="none" stroke="rgb(0,0,0)" id="Drawing_36_0" stroke-width="40" stroke-linejoin="round" d="M 16178,4251 C 15785,4024 15294,3740 14901,3513 15196,3228 15327,2149 15981,2149 16374,2376 16865,2661 17356,2944 16702,2944 16472,3740 16178,4251 Z"/>
    </g>
   </g>
  </g>
 </g>
</svg>