<?xml version="1.0" encoding="UTF-8"?>

<svg version="1.2" baseProfile="tiny" width="54.45mm" height="50.4mm" viewBox="5405 15055 5445 5040" preserveAspectRatio="xMidYMid" fill-rule="evenodd" stroke-width="28.222" stroke-linejoin="round" xmlns="http://www.w3.org/2000/svg" xmlns:xlink="http://www.w3.org/1999/xlink" xml:space="preserve">
 <g visibility="visible" id="Slide_1">
  <g id="DrawingGroup_1">
   <g>
    <path fill="rgb(221,221,221)" stroke="none" d="M 8820,19835 C 9090,19835 10154,19532 10639,19205 11124,18878 10562,18590 10292,18590 10292,18760 8820,19765 8820,19835 Z"/>
    <path fill="none" stroke="rgb(221,221,221)" id="Drawing_1_0" stroke-width="40" stroke-linejoin="round" d="M 8820,19835 C 9090,19835 10154,19532 10639,19205 11124,18878 10562,18590 10292,18590 10292,18760 8820,19765 8820,19835 Z"/>
   </g>
   <g id="DrawingGroup_2">
    <g>
     <defs>
      <linearGradient id="Gradient_210" gradientUnits="userSpaceOnUse" x1="7292" y1="16041" x2="7292" y2="17632">
       <stop offset="0.1" stop-color="rgb(179,179,179)"/>
       <stop offset="1" stop-color="rgb(229,229,229)"/>
      </linearGradient>
     </defs>
     <path fill="url(#Gradient_210)" stroke="rgb(255,255,255)" id="Drawing_2_0" stroke-width="40" stroke-linejoin="round" d="M 6703,17632 L 8667,16496 7881,16041 5917,17177 6703,17632 Z"/>
    </g>
    <g>
     <defs>
      <linearGradient id="Gradient_211" gradientUnits="userSpaceOnUse" x1="8959" y1="17318" x2="10434" y2="17320">
       <stop offset="0.1" stop-color="rgb(179,179,179)"/>
       <stop offset="1" stop-color="rgb(229,229,229)"/>
      </linearGradient>
     </defs>
     <path fill="url(#Gradient_211)" stroke="rgb(255,255,255)" id="Drawing_3_0" stroke-width="40" stroke-linejoin="round" d="M 10434,18030 L 10434,17688 9452,16893 8961,16609 8961,16836 10434,18030 Z"/>
    </g>
    <g>
     <defs>
      <linearGradient id="Gradient_212" gradientUnits="userSpaceOnUse" x1="5913" y1="18624" x2="8374" y2="18628">
       <stop offset="0.1" stop-color="rgb(179,179,179)"/>
       <stop offset="1" stop-color="rgb(229,229,229)"/>
      </linearGradient>
     </defs>
     <path fill="url(#Gradient_212)" stroke="rgb(255,255,255)" id="Drawing_4_0" stroke-width="40" stroke-linejoin="round" d="M 8372,20075 L 8372,18995 6703,17632 5917,17177 5917,18654 8372,20075 Z"/>
    </g>
    <g>
     <path fill="rgb(179,179,179)" stroke="none" d="M 10047,19104 L 9177,19608 8372,19608 8372,18994 10047,18025 10047,19104 Z"/>
     <path fill="rgb(180,180,180)" stroke="none" d="M 9177,19608 L 8372,20074 8372,19608 9177,19608 Z M 10047,18025 L 10336,17858 10336,18937 10047,19104 10047,18025 Z M 10025,19117 L 9215,19586 8372,19586 8372,18994 10025,18038 10025,19117 Z"/>
     <path fill="rgb(181,181,181)" stroke="none" d="M 9215,19586 L 8372,20074 8372,19586 9215,19586 Z M 10025,18038 L 10336,17858 10336,18937 10025,19117 10025,18038 Z M 10003,19130 L 9253,19564 8372,19564 8372,18994 10003,18051 10003,19130 Z"/>
     <path fill="rgb(182,182,182)" stroke="none" d="M 9253,19564 L 8372,20074 8372,19564 9253,19564 Z M 10003,18051 L 10336,17858 10336,18937 10003,19130 10003,18051 Z M 9981,19143 L 9291,19542 8372,19542 8372,18994 9981,18063 9981,19143 Z"/>
     <path fill="rgb(183,183,183)" stroke="none" d="M 9291,19542 L 8372,20074 8372,19542 9291,19542 Z M 9981,18063 L 10336,17858 10336,18937 9981,19143 9981,18063 Z M 9959,19155 L 9329,19520 8372,19520 8372,18994 9959,18076 9959,19155 Z"/>
     <path fill="rgb(184,184,184)" stroke="none" d="M 9329,19520 L 8372,20074 8372,19520 9329,19520 Z M 9959,18076 L 10336,17858 10336,18937 9959,19155 9959,18076 Z M 9936,19169 L 9369,19497 8372,19497 8372,18994 9936,18089 9936,19169 Z"/>
     <path fill="rgb(185,185,185)" stroke="none" d="M 9369,19497 L 8372,20074 8372,19497 9369,19497 Z M 9936,18089 L 10336,17858 10336,18937 9936,19169 9936,18089 Z M 9914,19181 L 9407,19475 8372,19475 8372,18994 9914,18102 9914,19181 Z"/>
     <path fill="rgb(186,186,186)" stroke="none" d="M 9407,19475 L 8372,20074 8372,19475 9407,19475 Z M 9914,18102 L 10336,17858 10336,18937 9914,19181 9914,18102 Z M 9892,19194 L 9445,19453 8372,19453 8372,18994 9892,18115 9892,19194 Z"/>
     <path fill="rgb(187,187,187)" stroke="none" d="M 9445,19453 L 8372,20074 8372,19453 9445,19453 Z M 9892,18115 L 10336,17858 10336,18937 9892,19194 9892,18115 Z M 9870,19207 L 9483,19431 8372,19431 8372,18994 9870,18128 9870,19207 Z"/>
     <path fill="rgb(188,188,188)" stroke="none" d="M 9483,19431 L 8372,20074 8372,19431 9483,19431 Z M 9870,18128 L 10336,17858 10336,18937 9870,19207 9870,18128 Z M 9848,19220 L 9521,19409 8372,19409 8372,18994 9848,18140 9848,19220 Z"/>
     <path fill="rgb(189,189,189)" stroke="none" d="M 9521,19409 L 8372,20074 8372,19409 9521,19409 Z M 9848,18140 L 10336,17858 10336,18937 9848,19220 9848,18140 Z M 9825,19233 L 9560,19386 8372,19386 8372,18994 9825,18154 9825,19233 Z"/>
     <path fill="rgb(190,190,190)" stroke="none" d="M 9560,19386 L 8372,20074 8372,19386 9560,19386 Z M 9825,18154 L 10336,17858 10336,18937 9825,19233 9825,18154 Z M 9803,19246 L 9598,19364 8372,19364 8372,18994 9803,18166 9803,19246 Z"/>
     <path fill="rgb(191,191,191)" stroke="none" d="M 9598,19364 L 8372,20074 8372,19364 9598,19364 Z M 9803,18166 L 10336,17858 10336,18937 9803,19246 9803,18166 Z M 9781,19258 L 9636,19342 8372,19342 8372,18994 9781,18179 9781,19258 Z"/>
     <path fill="rgb(192,192,192)" stroke="none" d="M 9636,19342 L 8372,20074 8372,19342 9636,19342 Z M 9781,18179 L 10336,17858 10336,18937 9781,19258 9781,18179 Z M 9759,19271 L 9674,19320 8372,19320 8372,18994 9759,18192 9759,19271 Z"/>
     <path fill="rgb(193,193,193)" stroke="none" d="M 9674,19320 L 8372,20074 8372,19320 9674,19320 Z M 9759,18192 L 10336,17858 10336,18937 9759,19271 9759,18192 Z M 9737,19284 L 9712,19298 8372,19298 8372,18994 9737,18204 9737,19284 Z"/>
     <path fill="rgb(194,194,194)" stroke="none" d="M 9712,19298 L 8372,20074 8372,19298 9712,19298 Z M 9737,18204 L 10336,17858 10336,18937 9737,19284 9737,18204 Z M 9714,19275 L 8372,19275 8372,18994 9714,18218 9714,19275 Z"/>
     <path fill="rgb(195,195,195)" stroke="none" d="M 9714,19275 L 9714,18218 10336,17858 10336,18937 8372,20074 8372,19275 9714,19275 Z M 9692,19253 L 8372,19253 8372,18994 9692,18230 9692,19253 Z"/>
     <path fill="rgb(196,196,196)" stroke="none" d="M 9692,19253 L 9692,18230 10336,17858 10336,18937 8372,20074 8372,19253 9692,19253 Z M 9670,19231 L 8372,19231 8372,18994 9670,18243 9670,19231 Z"/>
     <path fill="rgb(197,197,197)" stroke="none" d="M 9670,19231 L 9670,18243 10336,17858 10336,18937 8372,20074 8372,19231 9670,19231 Z M 9648,19209 L 8372,19209 8372,18994 9648,18256 9648,19209 Z"/>
     <path fill="rgb(198,198,198)" stroke="none" d="M 9648,19209 L 9648,18256 10336,17858 10336,18937 8372,20074 8372,19209 9648,19209 Z M 9626,19187 L 8372,19187 8372,18994 9626,18269 9626,19187 Z"/>
     <path fill="rgb(199,199,199)" stroke="none" d="M 9626,19187 L 9626,18269 10336,17858 10336,18937 8372,20074 8372,19187 9626,19187 Z M 9604,19165 L 8372,19165 8372,18994 9604,18281 9604,19165 Z"/>
     <path fill="rgb(200,200,200)" stroke="none" d="M 9604,19165 L 9604,18281 10336,17858 10336,18937 8372,20074 8372,19165 9604,19165 Z M 9581,19142 L 8372,19142 8372,18994 9581,18295 9581,19142 Z"/>
     <path fill="rgb(201,201,201)" stroke="none" d="M 9581,19142 L 9581,18295 10336,17858 10336,18937 8372,20074 8372,19142 9581,19142 Z M 9559,19120 L 8372,19120 8372,18994 9559,18307 9559,19120 Z"/>
     <path fill="rgb(202,202,202)" stroke="none" d="M 9559,19120 L 9559,18307 10336,17858 10336,18937 8372,20074 8372,19120 9559,19120 Z M 9537,19098 L 8384,19098 8384,18987 9537,18320 9537,19098 Z"/>
     <path fill="rgb(203,203,203)" stroke="none" d="M 8384,19098 L 9537,19098 9537,18320 10336,17858 10336,18937 8372,20074 8372,18994 8384,18987 8384,19098 Z M 9515,19076 L 8406,19076 8406,18974 9515,18333 9515,19076 Z"/>
     <path fill="rgb(204,204,204)" stroke="none" d="M 8406,19076 L 9515,19076 9515,18333 10336,17858 10336,18937 8372,20074 8372,18994 8406,18974 8406,19076 Z M 9493,19054 L 8428,19054 8428,18962 9493,18346 9493,19054 Z"/>
     <path fill="rgb(205,205,205)" stroke="none" d="M 8428,19054 L 9493,19054 9493,18346 10336,17858 10336,18937 8372,20074 8372,18994 8428,18962 8428,19054 Z M 9470,19031 L 8451,19031 8451,18948 9470,18359 9470,19031 Z"/>
     <path fill="rgb(206,206,206)" stroke="none" d="M 8451,19031 L 9470,19031 9470,18359 10336,17858 10336,18937 8372,20074 8372,18994 8451,18948 8451,19031 Z M 9448,19009 L 8473,19009 8473,18936 9448,18372 9448,19009 Z"/>
     <path fill="rgb(207,207,207)" stroke="none" d="M 8473,19009 L 9448,19009 9448,18372 10336,17858 10336,18937 8372,20074 8372,18994 8473,18936 8473,19009 Z M 9426,18987 L 8495,18987 8495,18923 9426,18384 9426,18987 Z"/>
     <path fill="rgb(208,208,208)" stroke="none" d="M 8495,18987 L 9426,18987 9426,18384 10336,17858 10336,18937 8372,20074 8372,18994 8495,18923 8495,18987 Z M 9404,18965 L 8517,18965 8517,18910 9404,18397 9404,18965 Z"/>
     <path fill="rgb(209,209,209)" stroke="none" d="M 8517,18965 L 9404,18965 9404,18397 10336,17858 10336,18937 8372,20074 8372,18994 8517,18910 8517,18965 Z M 9382,18943 L 8539,18943 8539,18897 9382,18410 9382,18943 Z"/>
     <path fill="rgb(210,210,210)" stroke="none" d="M 8539,18943 L 9382,18943 9382,18410 10336,17858 10336,18937 8372,20074 8372,18994 8539,18897 8539,18943 Z M 9359,18920 L 8562,18920 8562,18884 9359,18423 9359,18920 Z"/>
     <path fill="rgb(211,211,211)" stroke="none" d="M 8562,18920 L 9359,18920 9359,18423 10336,17858 10336,18937 8372,20074 8372,18994 8562,18884 8562,18920 Z M 9337,18898 L 8584,18898 8584,18871 9337,18436 9337,18898 Z"/>
     <path fill="rgb(212,212,212)" stroke="none" d="M 8584,18898 L 9337,18898 9337,18436 10336,17858 10336,18937 8372,20074 8372,18994 8584,18871 8584,18898 Z M 9315,18876 L 8606,18876 8606,18859 9315,18449 9315,18876 Z"/>
     <path fill="rgb(213,213,213)" stroke="none" d="M 8606,18876 L 9315,18876 9315,18449 10336,17858 10336,18937 8372,20074 8372,18994 8606,18859 8606,18876 Z M 9293,18854 L 8628,18854 8628,18846 9293,18461 9293,18854 Z"/>
     <path fill="rgb(214,214,214)" stroke="none" d="M 8628,18854 L 9293,18854 9293,18461 10336,17858 10336,18937 8372,20074 8372,18994 8628,18846 8628,18854 Z M 9271,18832 L 8652,18832 9271,18474 9271,18832 Z"/>
     <path fill="rgb(215,215,215)" stroke="none" d="M 9271,18832 L 9271,18474 10336,17858 10336,18937 8372,20074 8372,18994 8652,18832 9271,18832 Z M 9248,18809 L 8692,18809 9248,18487 9248,18809 Z"/>
     <path fill="rgb(216,216,216)" stroke="none" d="M 9248,18809 L 9248,18487 10336,17858 10336,18937 8372,20074 8372,18994 8692,18809 9248,18809 Z M 9226,18787 L 8730,18787 9226,18500 9226,18787 Z"/>
     <path fill="rgb(217,217,217)" stroke="none" d="M 9226,18787 L 9226,18500 10336,17858 10336,18937 8372,20074 8372,18994 8730,18787 9226,18787 Z M 9204,18765 L 8768,18765 9204,18513 9204,18765 Z"/>
     <path fill="rgb(218,218,218)" stroke="none" d="M 9204,18765 L 9204,18513 10336,17858 10336,18937 8372,20074 8372,18994 8768,18765 9204,18765 Z M 9182,18743 L 8806,18743 9182,18525 9182,18743 Z"/>
     <path fill="rgb(219,219,219)" stroke="none" d="M 9182,18743 L 9182,18525 10336,17858 10336,18937 8372,20074 8372,18994 8806,18743 9182,18743 Z M 9160,18721 L 8844,18721 9160,18538 9160,18721 Z"/>
     <path fill="rgb(220,220,220)" stroke="none" d="M 9160,18721 L 9160,18538 10336,17858 10336,18937 8372,20074 8372,18994 8844,18721 9160,18721 Z M 9138,18699 L 8882,18699 9138,18551 9138,18699 Z"/>
     <path fill="rgb(221,221,221)" stroke="none" d="M 9138,18699 L 9138,18551 10336,17858 10336,18937 8372,20074 8372,18994 8882,18699 9138,18699 Z M 9115,18676 L 8922,18676 9115,18564 9115,18676 Z"/>
     <path fill="rgb(222,222,222)" stroke="none" d="M 9115,18676 L 9115,18564 10336,17858 10336,18937 8372,20074 8372,18994 8922,18676 9115,18676 Z M 9093,18654 L 8960,18654 9093,18577 9093,18654 Z"/>
     <path fill="rgb(223,223,223)" stroke="none" d="M 9093,18654 L 9093,18577 10336,17858 10336,18937 8372,20074 8372,18994 8960,18654 9093,18654 Z M 9071,18632 L 8998,18632 9071,18590 9071,18632 Z"/>
     <path fill="rgb(224,224,224)" stroke="none" d="M 9071,18632 L 9071,18590 10336,17858 10336,18937 8372,20074 8372,18994 8998,18632 9071,18632 Z M 9049,18610 L 9036,18610 9049,18602 9049,18610 Z"/>
     <path fill="rgb(225,225,225)" stroke="none" d="M 9049,18610 L 9049,18602 10336,17858 10336,18937 8372,20074 8372,18994 9036,18610 9049,18610 Z"/>
     <path fill="rgb(226,226,226)" stroke="none" d="M 10336,18937 L 8372,20074 8372,18994 10336,17858 10336,18937 Z"/>
     <path fill="rgb(227,227,227)" stroke="none" d="M 10336,18937 L 8372,20074 8372,18994 10336,17858 10336,18937 Z"/>
     <path fill="rgb(229,229,229)" stroke="none" d="M 10336,18937 L 8372,20074 8372,18994 10336,17858 10336,18937 Z"/>
     <path fill="none" stroke="rgb(255,255,255)" id="Drawing_5_0" stroke-width="40" stroke-linejoin="round" d="M 10336,18937 L 10336,17858 8372,18994 8372,20074 10336,18937 Z"/>
    </g>
    <g>
     <defs>
      <linearGradient id="Gradient_213" gradientUnits="userSpaceOnUse" x1="10338" y1="17749" x2="6700" y2="17743">
       <stop offset="0.1" stop-color="rgb(179,179,179)"/>
       <stop offset="1" stop-color="rgb(229,229,229)"/>
      </linearGradient>
     </defs>
     <path fill="url(#Gradient_213)" stroke="rgb(255,255,255)" id="Drawing_6_0" stroke-width="40" stroke-linejoin="round" d="M 8372,18996 L 10336,17860 8667,16496 6702,17632 8372,18996 Z"/>
    </g>
    <g>
     <path fill="rgb(255,255,255)" stroke="none" d="M 9254,18086 L 9156,17973 9058,18030 9156,18143 9254,18086 Z"/>
     <path fill="none" stroke="rgb(128,128,128)" id="Drawing_7_0" stroke-width="40" stroke-linejoin="round" d="M 9254,18086 L 9156,17973 9058,18030 9156,18143 9254,18086 Z"/>
    </g>
    <g>
     <defs>
      <linearGradient id="Gradient_214" gradientUnits="userSpaceOnUse" x1="7488" y1="17431" x2="8668" y2="17433">
       <stop offset="0.1" stop-color="rgb(147,212,240)"/>
       <stop offset="1" stop-color="rgb(233,246,252)"/>
      </linearGradient>
     </defs>
     <path fill="url(#Gradient_214)" stroke="rgb(128,128,128)" id="Drawing_8_0" stroke-width="40" stroke-linejoin="round" d="M 8667,17233 L 8471,17063 7489,17631 7685,17802 8667,17233 Z"/>
    </g>
    <g>
     <path fill="rgb(255,255,255)" stroke="none" d="M 9057,17915 L 8959,17802 8861,17859 8959,17972 9057,17915 Z"/>
     <path fill="none" stroke="rgb(128,128,128)" id="Drawing_9_0" stroke-width="40" stroke-linejoin="round" d="M 9057,17915 L 8959,17802 8861,17859 8959,17972 9057,17915 Z"/>
    </g>
    <g>
     <path fill="rgb(255,255,255)" stroke="none" d="M 8861,17744 L 8763,17631 8665,17688 8763,17801 8861,17744 Z"/>
     <path fill="none" stroke="rgb(128,128,128)" id="Drawing_10_0" stroke-width="40" stroke-linejoin="round" d="M 8861,17744 L 8763,17631 8665,17688 8763,17801 8861,17744 Z"/>
    </g>
    <g>
     <path fill="rgb(255,255,255)" stroke="none" d="M 8665,17574 L 8567,17461 8469,17518 8567,17631 8665,17574 Z"/>
     <path fill="none" stroke="rgb(128,128,128)" id="Drawing_11_0" stroke-width="40" stroke-linejoin="round" d="M 8665,17574 L 8567,17461 8469,17518 8567,17631 8665,17574 Z"/>
    </g>
    <g>
     <path fill="rgb(255,255,255)" stroke="none" d="M 9057,18199 L 8959,18086 8861,18143 8959,18256 9057,18199 Z"/>
     <path fill="none" stroke="rgb(128,128,128)" id="Drawing_12_0" stroke-width="40" stroke-linejoin="round" d="M 9057,18199 L 8959,18086 8861,18143 8959,18256 9057,18199 Z"/>
    </g>
    <g>
     <path fill="rgb(255,255,255)" stroke="none" d="M 8862,18028 L 8764,17915 8666,17972 8764,18085 8862,18028 Z"/>
     <path fill="none" stroke="rgb(128,128,128)" id="Drawing_13_0" stroke-width="40" stroke-linejoin="round" d="M 8862,18028 L 8764,17915 8666,17972 8764,18085 8862,18028 Z"/>
    </g>
    <g>
     <path fill="rgb(255,255,255)" stroke="none" d="M 8665,17858 L 8567,17745 8469,17802 8567,17915 8665,17858 Z"/>
     <path fill="none" stroke="rgb(128,128,128)" id="Drawing_14_0" stroke-width="40" stroke-linejoin="round" d="M 8665,17858 L 8567,17745 8469,17802 8567,17915 8665,17858 Z"/>
    </g>
    <g>
     <path fill="rgb(255,255,255)" stroke="none" d="M 8470,17688 L 8372,17575 8274,17632 8372,17745 8470,17688 Z"/>
     <path fill="none" stroke="rgb(128,128,128)" id="Drawing_15_0" stroke-width="40" stroke-linejoin="round" d="M 8470,17688 L 8372,17575 8274,17632 8372,17745 8470,17688 Z"/>
    </g>
    <g>
     <path fill="rgb(57,181,74)" stroke="none" d="M 8862,18313 L 8764,18200 8666,18257 8764,18370 8862,18313 Z"/>
     <path fill="none" stroke="rgb(128,128,128)" id="Drawing_16_0" stroke-width="40" stroke-linejoin="round" d="M 8862,18313 L 8764,18200 8666,18257 8764,18370 8862,18313 Z"/>
    </g>
    <g>
     <path fill="rgb(222,142,150)" stroke="none" d="M 8665,18143 L 8567,18030 8469,18087 8567,18200 8665,18143 Z"/>
     <path fill="none" stroke="rgb(128,128,128)" id="Drawing_17_0" stroke-width="40" stroke-linejoin="round" d="M 8665,18143 L 8567,18030 8469,18087 8567,18200 8665,18143 Z"/>
    </g>
    <g>
     <path fill="rgb(0,0,0)" stroke="none" d="M 8469,17971 L 8371,17858 8273,17915 8371,18028 8469,17971 Z"/>
     <path fill="none" stroke="rgb(128,128,128)" id="Drawing_18_0" stroke-width="40" stroke-linejoin="round" d="M 8469,17971 L 8371,17858 8273,17915 8371,18028 8469,17971 Z"/>
    </g>
    <g>
     <path fill="rgb(255,255,255)" stroke="none" d="M 8273,17801 L 8175,17688 8077,17745 8175,17858 8273,17801 Z"/>
     <path fill="none" stroke="rgb(128,128,128)" id="Drawing_19_0" stroke-width="40" stroke-linejoin="round" d="M 8273,17801 L 8175,17688 8077,17745 8175,17858 8273,17801 Z"/>
    </g>
    <g>
     <path fill="none" stroke="rgb(255,255,255)" id="Drawing_20_0" stroke-width="40" stroke-linejoin="round" d="M 10140,18597 L 10140,18484"/>
    </g>
    <g>
     <path fill="none" stroke="rgb(255,255,255)" id="Drawing_21_0" stroke-width="40" stroke-linejoin="round" d="M 10140,18597 L 8569,19506"/>
    </g>
    <g>
     <path fill="none" stroke="rgb(102,102,102)" id="Drawing_22_0" stroke-width="40" stroke-linejoin="round" d="M 10140,18484 L 8569,19393"/>
    </g>
    <g>
     <path fill="none" stroke="rgb(102,102,102)" id="Drawing_23_0" stroke-width="40" stroke-linejoin="round" d="M 8568,19506 L 8568,19393"/>
    </g>
    <g>
     <path fill="rgb(179,179,179)" stroke="none" d="M 10434,17910 L 10434,17688 10827,17461 10827,17801 10639,17910 10434,17910 Z"/>
     <path fill="rgb(180,180,180)" stroke="none" d="M 10639,17910 L 10434,18029 10434,17910 10639,17910 Z M 10824,17803 L 10649,17904 10434,17904 10434,17688 10824,17463 10824,17803 Z"/>
     <path fill="rgb(181,181,181)" stroke="none" d="M 10649,17904 L 10434,18029 10434,17904 10649,17904 Z M 10824,17463 L 10827,17461 10827,17801 10824,17803 10824,17463 Z M 10818,17806 L 10660,17898 10434,17898 10434,17688 10818,17466 10818,17806 Z"/>
     <path fill="rgb(182,182,182)" stroke="none" d="M 10660,17898 L 10434,18029 10434,17898 10660,17898 Z M 10818,17466 L 10827,17461 10827,17801 10818,17806 10818,17466 Z M 10813,17809 L 10668,17893 10434,17893 10434,17688 10813,17469 10813,17809 Z"/>
     <path fill="rgb(183,183,183)" stroke="none" d="M 10668,17893 L 10434,18029 10434,17893 10668,17893 Z M 10813,17469 L 10827,17461 10827,17801 10813,17809 10813,17469 Z M 10807,17813 L 10679,17887 10434,17887 10434,17688 10807,17473 10807,17813 Z"/>
     <path fill="rgb(184,184,184)" stroke="none" d="M 10679,17887 L 10434,18029 10434,17887 10679,17887 Z M 10807,17473 L 10827,17461 10827,17801 10807,17813 10807,17473 Z M 10801,17816 L 10689,17881 10434,17881 10434,17688 10801,17476 10801,17816 Z"/>
     <path fill="rgb(185,185,185)" stroke="none" d="M 10689,17881 L 10434,18029 10434,17881 10689,17881 Z M 10801,17476 L 10827,17461 10827,17801 10801,17816 10801,17476 Z M 10796,17819 L 10698,17876 10434,17876 10434,17688 10796,17479 10796,17819 Z"/>
     <path fill="rgb(186,186,186)" stroke="none" d="M 10698,17876 L 10434,18029 10434,17876 10698,17876 Z M 10796,17479 L 10827,17461 10827,17801 10796,17819 10796,17479 Z M 10790,17822 L 10708,17870 10434,17870 10434,17688 10790,17482 10790,17822 Z"/>
     <path fill="rgb(187,187,187)" stroke="none" d="M 10708,17870 L 10434,18029 10434,17870 10708,17870 Z M 10790,17482 L 10827,17461 10827,17801 10790,17822 10790,17482 Z M 10784,17826 L 10718,17864 10434,17864 10434,17688 10784,17486 10784,17826 Z"/>
     <path fill="rgb(188,188,188)" stroke="none" d="M 10718,17864 L 10434,18029 10434,17864 10718,17864 Z M 10784,17486 L 10827,17461 10827,17801 10784,17826 10784,17486 Z M 10778,17829 L 10729,17858 10434,17858 10434,17688 10778,17489 10778,17829 Z"/>
     <path fill="rgb(189,189,189)" stroke="none" d="M 10729,17858 L 10434,18029 10434,17858 10729,17858 Z M 10778,17489 L 10827,17461 10827,17801 10778,17829 10778,17489 Z M 10773,17832 L 10737,17853 10434,17853 10434,17688 10773,17492 10773,17832 Z"/>
     <path fill="rgb(190,190,190)" stroke="none" d="M 10737,17853 L 10434,18029 10434,17853 10737,17853 Z M 10773,17492 L 10827,17461 10827,17801 10773,17832 10773,17492 Z M 10767,17836 L 10748,17847 10434,17847 10434,17688 10767,17496 10767,17836 Z"/>
     <path fill="rgb(191,191,191)" stroke="none" d="M 10748,17847 L 10434,18029 10434,17847 10748,17847 Z M 10767,17496 L 10827,17461 10827,17801 10767,17836 10767,17496 Z M 10761,17839 L 10758,17841 10434,17841 10434,17688 10761,17499 10761,17839 Z"/>
     <path fill="rgb(192,192,192)" stroke="none" d="M 10758,17841 L 10434,18029 10434,17841 10758,17841 Z M 10761,17499 L 10827,17461 10827,17801 10761,17839 10761,17499 Z M 10756,17836 L 10434,17836 10434,17688 10756,17502 10756,17836 Z"/>
     <path fill="rgb(193,193,193)" stroke="none" d="M 10756,17836 L 10756,17502 10827,17461 10827,17801 10434,18029 10434,17836 10756,17836 Z M 10750,17830 L 10434,17830 10434,17688 10750,17505 10750,17830 Z"/>
     <path fill="rgb(194,194,194)" stroke="none" d="M 10750,17830 L 10750,17505 10827,17461 10827,17801 10434,18029 10434,17830 10750,17830 Z M 10744,17824 L 10434,17824 10434,17688 10744,17509 10744,17824 Z"/>
     <path fill="rgb(195,195,195)" stroke="none" d="M 10744,17824 L 10744,17509 10827,17461 10827,17801 10434,18029 10434,17824 10744,17824 Z M 10738,17818 L 10434,17818 10434,17688 10738,17512 10738,17818 Z"/>
     <path fill="rgb(196,196,196)" stroke="none" d="M 10738,17818 L 10738,17512 10827,17461 10827,17801 10434,18029 10434,17818 10738,17818 Z M 10733,17813 L 10434,17813 10434,17688 10733,17515 10733,17813 Z"/>
     <path fill="rgb(197,197,197)" stroke="none" d="M 10733,17813 L 10733,17515 10827,17461 10827,17801 10434,18029 10434,17813 10733,17813 Z M 10727,17807 L 10434,17807 10434,17688 10727,17519 10727,17807 Z"/>
     <path fill="rgb(198,198,198)" stroke="none" d="M 10727,17807 L 10727,17519 10827,17461 10827,17801 10434,18029 10434,17807 10727,17807 Z M 10721,17801 L 10434,17801 10434,17688 10721,17522 10721,17801 Z"/>
     <path fill="rgb(199,199,199)" stroke="none" d="M 10721,17801 L 10721,17522 10827,17461 10827,17801 10434,18029 10434,17801 10721,17801 Z M 10716,17796 L 10434,17796 10434,17688 10716,17525 10716,17796 Z"/>
     <path fill="rgb(200,200,200)" stroke="none" d="M 10716,17796 L 10716,17525 10827,17461 10827,17801 10434,18029 10434,17796 10716,17796 Z M 10710,17790 L 10434,17790 10434,17688 10710,17529 10710,17790 Z"/>
     <path fill="rgb(201,201,201)" stroke="none" d="M 10710,17790 L 10710,17529 10827,17461 10827,17801 10434,18029 10434,17790 10710,17790 Z M 10704,17784 L 10434,17784 10434,17688 10704,17532 10704,17784 Z"/>
     <path fill="rgb(202,202,202)" stroke="none" d="M 10704,17784 L 10704,17532 10827,17461 10827,17801 10434,18029 10434,17784 10704,17784 Z M 10698,17778 L 10434,17778 10434,17688 10698,17536 10698,17778 Z"/>
     <path fill="rgb(203,203,203)" stroke="none" d="M 10698,17778 L 10698,17536 10827,17461 10827,17801 10434,18029 10434,17778 10698,17778 Z M 10693,17773 L 10434,17773 10434,17688 10693,17538 10693,17773 Z"/>
     <path fill="rgb(204,204,204)" stroke="none" d="M 10693,17773 L 10693,17538 10827,17461 10827,17801 10434,18029 10434,17773 10693,17773 Z M 10687,17767 L 10434,17767 10434,17688 10687,17542 10687,17767 Z"/>
     <path fill="rgb(205,205,205)" stroke="none" d="M 10687,17767 L 10687,17542 10827,17461 10827,17801 10434,18029 10434,17767 10687,17767 Z M 10681,17761 L 10434,17761 10434,17688 10681,17545 10681,17761 Z"/>
     <path fill="rgb(206,206,206)" stroke="none" d="M 10681,17761 L 10681,17545 10827,17461 10827,17801 10434,18029 10434,17761 10681,17761 Z M 10676,17756 L 10434,17756 10434,17688 10676,17548 10676,17756 Z"/>
     <path fill="rgb(207,207,207)" stroke="none" d="M 10676,17756 L 10676,17548 10827,17461 10827,17801 10434,18029 10434,17756 10676,17756 Z M 10670,17750 L 10434,17750 10434,17688 10670,17552 10670,17750 Z"/>
     <path fill="rgb(208,208,208)" stroke="none" d="M 10670,17750 L 10670,17552 10827,17461 10827,17801 10434,18029 10434,17750 10670,17750 Z M 10664,17744 L 10437,17744 10437,17686 10664,17555 10664,17744 Z"/>
     <path fill="rgb(209,209,209)" stroke="none" d="M 10437,17744 L 10664,17744 10664,17555 10827,17461 10827,17801 10434,18029 10434,17688 10437,17686 10437,17744 Z M 10658,17738 L 10443,17738 10443,17683 10658,17559 10658,17738 Z"/>
     <path fill="rgb(210,210,210)" stroke="none" d="M 10443,17738 L 10658,17738 10658,17559 10827,17461 10827,17801 10434,18029 10434,17688 10443,17683 10443,17738 Z M 10653,17733 L 10448,17733 10448,17680 10653,17562 10653,17733 Z"/>
     <path fill="rgb(211,211,211)" stroke="none" d="M 10448,17733 L 10653,17733 10653,17562 10827,17461 10827,17801 10434,18029 10434,17688 10448,17680 10448,17733 Z M 10647,17727 L 10454,17727 10454,17676 10647,17565 10647,17727 Z"/>
     <path fill="rgb(212,212,212)" stroke="none" d="M 10454,17727 L 10647,17727 10647,17565 10827,17461 10827,17801 10434,18029 10434,17688 10454,17676 10454,17727 Z M 10641,17721 L 10460,17721 10460,17673 10641,17568 10641,17721 Z"/>
     <path fill="rgb(213,213,213)" stroke="none" d="M 10460,17721 L 10641,17721 10641,17568 10827,17461 10827,17801 10434,18029 10434,17688 10460,17673 10460,17721 Z M 10636,17716 L 10465,17716 10465,17670 10636,17571 10636,17716 Z"/>
     <path fill="rgb(214,214,214)" stroke="none" d="M 10465,17716 L 10636,17716 10636,17571 10827,17461 10827,17801 10434,18029 10434,17688 10465,17670 10465,17716 Z M 10630,17710 L 10471,17710 10471,17667 10630,17575 10630,17710 Z"/>
     <path fill="rgb(215,215,215)" stroke="none" d="M 10471,17710 L 10630,17710 10630,17575 10827,17461 10827,17801 10434,18029 10434,17688 10471,17667 10471,17710 Z M 10624,17704 L 10477,17704 10477,17663 10624,17578 10624,17704 Z"/>
     <path fill="rgb(216,216,216)" stroke="none" d="M 10477,17704 L 10624,17704 10624,17578 10827,17461 10827,17801 10434,18029 10434,17688 10477,17663 10477,17704 Z M 10619,17699 L 10482,17699 10482,17660 10619,17581 10619,17699 Z"/>
     <path fill="rgb(217,217,217)" stroke="none" d="M 10482,17699 L 10619,17699 10619,17581 10827,17461 10827,17801 10434,18029 10434,17688 10482,17660 10482,17699 Z M 10613,17693 L 10488,17693 10488,17657 10613,17585 10613,17693 Z"/>
     <path fill="rgb(218,218,218)" stroke="none" d="M 10488,17693 L 10613,17693 10613,17585 10827,17461 10827,17801 10434,18029 10434,17688 10488,17657 10488,17693 Z M 10607,17687 L 10494,17687 10494,17653 10607,17588 10607,17687 Z"/>
     <path fill="rgb(219,219,219)" stroke="none" d="M 10494,17687 L 10607,17687 10607,17588 10827,17461 10827,17801 10434,18029 10434,17688 10494,17653 10494,17687 Z M 10601,17681 L 10500,17681 10500,17650 10601,17592 10601,17681 Z"/>
     <path fill="rgb(220,220,220)" stroke="none" d="M 10500,17681 L 10601,17681 10601,17592 10827,17461 10827,17801 10434,18029 10434,17688 10500,17650 10500,17681 Z M 10596,17676 L 10505,17676 10505,17647 10596,17594 10596,17676 Z"/>
     <path fill="rgb(221,221,221)" stroke="none" d="M 10505,17676 L 10596,17676 10596,17594 10827,17461 10827,17801 10434,18029 10434,17688 10505,17647 10505,17676 Z M 10590,17670 L 10511,17670 10511,17644 10590,17598 10590,17670 Z"/>
     <path fill="rgb(222,222,222)" stroke="none" d="M 10511,17670 L 10590,17670 10590,17598 10827,17461 10827,17801 10434,18029 10434,17688 10511,17644 10511,17670 Z M 10584,17664 L 10517,17664 10517,17640 10584,17601 10584,17664 Z"/>
     <path fill="rgb(223,223,223)" stroke="none" d="M 10517,17664 L 10584,17664 10584,17601 10827,17461 10827,17801 10434,18029 10434,17688 10517,17640 10517,17664 Z M 10579,17659 L 10522,17659 10522,17637 10579,17604 10579,17659 Z"/>
     <path fill="rgb(224,224,224)" stroke="none" d="M 10522,17659 L 10579,17659 10579,17604 10827,17461 10827,17801 10434,18029 10434,17688 10522,17637 10522,17659 Z M 10573,17608 L 10573,17653 10528,17653 10528,17634 10573,17608 10573,17608 Z"/>
     <path fill="rgb(225,225,225)" stroke="none" d="M 10528,17653 L 10573,17653 10573,17608 10573,17608 10827,17461 10827,17801 10434,18029 10434,17688 10528,17634 10528,17653 Z M 10567,17614 L 10567,17647 10534,17647 10534,17630 10562,17614 10567,17614 Z"/>
     <path fill="rgb(226,226,226)" stroke="none" d="M 10534,17647 L 10567,17647 10567,17614 10562,17614 10827,17461 10827,17801 10434,18029 10434,17688 10534,17630 10534,17647 Z M 10561,17620 L 10561,17641 10540,17641 10540,17627 10552,17620 10561,17620 Z"/>
     <path fill="rgb(227,227,227)" stroke="none" d="M 10540,17641 L 10561,17641 10561,17620 10552,17620 10827,17461 10827,17801 10434,18029 10434,17688 10540,17627 10540,17641 Z M 10545,17625 L 10556,17625 10556,17636 10545,17636 10545,17625 Z"/>
     <path fill="rgb(229,229,229)" stroke="none" d="M 10545,17625 L 10545,17636 10556,17636 10556,17625 10545,17625 Z M 10827,17801 L 10434,18029 10434,17688 10827,17461 10827,17801 Z"/>
     <path fill="none" stroke="rgb(255,255,255)" id="Drawing_24_0" stroke-width="40" stroke-linejoin="round" d="M 10827,17801 L 10827,17461 10434,17688 10434,18029 10827,17801 Z"/>
    </g>
    <g>
     <defs>
      <linearGradient id="Gradient_215" gradientUnits="userSpaceOnUse" x1="10827" y1="17178" x2="9450" y2="17176">
       <stop offset="0.1" stop-color="rgb(179,179,179)"/>
       <stop offset="1" stop-color="rgb(229,229,229)"/>
      </linearGradient>
     </defs>
     <path fill="url(#Gradient_215)" stroke="rgb(255,255,255)" id="Drawing_25_0" stroke-width="40" stroke-linejoin="round" d="M 10434,17688 L 10827,17461 9845,16666 9452,16893 10434,17688 Z"/>
    </g>
    <g>
     <defs>
      <linearGradient id="Gradient_216" gradientUnits="userSpaceOnUse" x1="9403" y1="16382" x2="9403" y2="16894">
       <stop offset="0.1" stop-color="rgb(179,179,179)"/>
       <stop offset="1" stop-color="rgb(229,229,229)"/>
      </linearGradient>
     </defs>
     <path fill="url(#Gradient_216)" stroke="rgb(255,255,255)" id="Drawing_26_0" stroke-width="40" stroke-linejoin="round" d="M 9452,16894 L 9845,16666 9354,16382 8961,16609 9452,16894 Z"/>
    </g>
    <g>
     <path fill="none" stroke="rgb(255,255,255)" id="Drawing_27_0" stroke-width="40" stroke-linejoin="round" d="M 8077,16382 L 7979,16325"/>
    </g>
    <g>
     <path fill="none" stroke="rgb(102,102,102)" id="Drawing_28_0" stroke-width="40" stroke-linejoin="round" d="M 8077,16382 L 6506,17291"/>
    </g>
    <g>
     <path fill="none" stroke="rgb(255,255,255)" id="Drawing_29_0" stroke-width="40" stroke-linejoin="round" d="M 7979,16325 L 6408,17234"/>
    </g>
    <g>
     <path fill="none" stroke="rgb(102,102,102)" id="Drawing_30_0" stroke-width="40" stroke-linejoin="round" d="M 6505,17291 L 6407,17234"/>
    </g>
    <g>
     <path fill="none" stroke="rgb(0,0,0)" id="Drawing_31_0" stroke-width="40" stroke-linejoin="round" d="M 10827,17802 L 10827,17462 9845,16666 9354,16381 8961,16609 8961,16723 8667,16496 7880,16041 5916,17177 5916,18654 8372,20075 10336,18939 10336,18086 10827,17802 Z"/>
    </g>
    <g>
     <path fill="rgb(255,255,255)" stroke="none" d="M 9451,17971 L 9353,17858 9255,17915 9353,18028 9451,17971 Z"/>
     <path fill="none" stroke="rgb(128,128,128)" id="Drawing_32_0" stroke-width="40" stroke-linejoin="round" d="M 9451,17971 L 9353,17858 9255,17915 9353,18028 9451,17971 Z"/>
    </g>
    <g>
     <path fill="rgb(255,255,255)" stroke="none" d="M 9255,17801 L 9157,17688 9059,17745 9157,17858 9255,17801 Z"/>
     <path fill="none" stroke="rgb(128,128,128)" id="Drawing_33_0" stroke-width="40" stroke-linejoin="round" d="M 9255,17801 L 9157,17688 9059,17745 9157,17858 9255,17801 Z"/>
    </g>
    <g>
     <path fill="rgb(255,255,255)" stroke="none" d="M 9058,17631 L 8960,17518 8862,17575 8960,17688 9058,17631 Z"/>
     <path fill="none" stroke="rgb(128,128,128)" id="Drawing_34_0" stroke-width="40" stroke-linejoin="round" d="M 9058,17631 L 8960,17518 8862,17575 8960,17688 9058,17631 Z"/>
    </g>
    <g>
     <path fill="rgb(255,255,255)" stroke="none" d="M 8862,17461 L 8764,17348 8666,17405 8764,17518 8862,17461 Z"/>
     <path fill="none" stroke="rgb(128,128,128)" id="Drawing_35_0" stroke-width="40" stroke-linejoin="round" d="M 8862,17461 L 8764,17348 8666,17405 8764,17518 8862,17461 Z"/>
    </g>
    <g>
     <path fill="rgb(255,255,255)" stroke="none" d="M 6603,17177 C 6996,16950 7487,16666 7880,16439 7585,16154 7454,15075 6800,15075 6407,15302 5916,15587 5425,15870 6079,15870 6309,16666 6603,17177 Z"/>
     <path fill="none" stroke="rgb(0,0,0)" id="Drawing_36_0" stroke-width="40" stroke-linejoin="round" d="M 6603,17177 C 6996,16950 7487,16666 7880,16439 7585,16154 7454,15075 6800,15075 6407,15302 5916,15587 5425,15870 6079,15870 6309,16666 6603,17177 Z"/>
    </g>
   </g>
  </g>
 </g>
</svg>