<?xml version="1.0" encoding="UTF-8"?>

<svg version="1.2" baseProfile="tiny" width="210mm" height="297mm" viewBox="0 0 21000 29700" preserveAspectRatio="xMidYMid" fill-rule="evenodd" stroke-width="28.222" stroke-linejoin="round" xmlns="http://www.w3.org/2000/svg" xmlns:xlink="http://www.w3.org/1999/xlink" xml:space="preserve">
 <g visibility="visible" id="MasterSlide_1_Default">
  <desc>Master slide
  </desc>
  <rect fill="none" stroke="none" x="0" y="0" width="21000" height="29700"/>
 </g>
 <g visibility="visible" id="Slide_1_page1">
  <g id="DrawingGroup_1">
   <g>
    <path fill="rgb(221,221,221)" stroke="none" d="M 5605,9643 C 5875,9643 8647,8847 8647,8336 8647,7825 8328,7768 8058,7768 8058,7938 5507,8393 5605,9643 Z"/>
    <path fill="none" stroke="rgb(221,221,221)" id="Drawing_1_0" stroke-width="40" stroke-linejoin="round" d="M 5605,9643 C 5875,9643 8647,8847 8647,8336 8647,7825 8328,7768 8058,7768 8058,7938 5507,8393 5605,9643 Z"/>
   </g>
   <g id="DrawingGroup_2">
    <g>
     <defs>
      <linearGradient id="Gradient_168" gradientUnits="userSpaceOnUse" x1="6682" y1="5609" x2="6682" y2="7200">
       <stop offset="0.1" stop-color="rgb(179,179,179)"/>
       <stop offset="1" stop-color="rgb(229,229,229)"/>
      </linearGradient>
     </defs>
     <path fill="url(#Gradient_168)" stroke="rgb(255,255,255)" id="Drawing_2_0" stroke-width="40" stroke-linejoin="round" d="M 7271,7200 L 5307,6064 6093,5609 8057,6745 7271,7200 Z"/>
    </g>
    <g>
     <path fill="rgb(179,179,179)" stroke="none" d="M 4703,6655 L 3877,7325 3540,7325 3540,7256 4522,6461 4703,6356 4703,6655 Z"/>
     <path fill="rgb(180,180,180)" stroke="none" d="M 3877,7325 L 3540,7598 3540,7325 3877,7325 Z M 4703,6356 L 5013,6177 5013,6404 4703,6655 4703,6356 Z M 4688,6667 L 3895,7310 3540,7310 3540,7256 4522,6461 4688,6365 4688,6667 Z"/>
     <path fill="rgb(181,181,181)" stroke="none" d="M 3895,7310 L 3540,7598 3540,7310 3895,7310 Z M 4688,6365 L 5013,6177 5013,6404 4688,6667 4688,6365 Z M 4673,6680 L 3914,7295 3540,7295 3540,7256 4522,6461 4673,6374 4673,6680 Z"/>
     <path fill="rgb(182,182,182)" stroke="none" d="M 3914,7295 L 3540,7598 3540,7295 3914,7295 Z M 4673,6374 L 5013,6177 5013,6404 4673,6680 4673,6374 Z M 4658,6692 L 3932,7280 3540,7280 3540,7256 4522,6461 4658,6382 4658,6692 Z"/>
     <path fill="rgb(183,183,183)" stroke="none" d="M 3932,7280 L 3540,7598 3540,7280 3932,7280 Z M 4658,6382 L 5013,6177 5013,6404 4658,6692 4658,6382 Z M 4644,6703 L 3950,7266 3540,7266 3540,7256 4522,6461 4644,6390 4644,6703 Z"/>
     <path fill="rgb(184,184,184)" stroke="none" d="M 3950,7266 L 3540,7598 3540,7266 3950,7266 Z M 4644,6390 L 5013,6177 5013,6404 4644,6703 4644,6390 Z M 4629,6715 L 3968,7251 3546,7251 4522,6461 4629,6399 4629,6715 Z"/>
     <path fill="rgb(185,185,185)" stroke="none" d="M 3968,7251 L 3540,7598 3540,7256 3546,7251 3968,7251 Z M 4629,6399 L 5013,6177 5013,6404 4629,6715 4629,6399 Z M 4614,6727 L 3987,7236 3565,7236 4522,6461 4614,6408 4614,6727 Z"/>
     <path fill="rgb(186,186,186)" stroke="none" d="M 3987,7236 L 3540,7598 3540,7256 3565,7236 3987,7236 Z M 4614,6408 L 5013,6177 5013,6404 4614,6727 4614,6408 Z M 4599,6740 L 4005,7221 3583,7221 4522,6461 4599,6416 4599,6740 Z"/>
     <path fill="rgb(187,187,187)" stroke="none" d="M 4005,7221 L 3540,7598 3540,7256 3583,7221 4005,7221 Z M 4599,6416 L 5013,6177 5013,6404 4599,6740 4599,6416 Z M 4585,6751 L 4022,7207 3601,7207 4522,6461 4585,6425 4585,6751 Z"/>
     <path fill="rgb(188,188,188)" stroke="none" d="M 4022,7207 L 3540,7598 3540,7256 3601,7207 4022,7207 Z M 4585,6425 L 5013,6177 5013,6404 4585,6751 4585,6425 Z M 4570,6763 L 4041,7192 3619,7192 4522,6461 4570,6433 4570,6763 Z"/>
     <path fill="rgb(189,189,189)" stroke="none" d="M 4041,7192 L 3540,7598 3540,7256 3619,7192 4041,7192 Z M 4570,6433 L 5013,6177 5013,6404 4570,6763 4570,6433 Z M 4555,6775 L 4059,7177 3638,7177 4522,6461 4555,6442 4555,6775 Z"/>
     <path fill="rgb(190,190,190)" stroke="none" d="M 4059,7177 L 3540,7598 3540,7256 3638,7177 4059,7177 Z M 4555,6442 L 5013,6177 5013,6404 4555,6775 4555,6442 Z M 4540,6787 L 4078,7162 3656,7162 4522,6461 4540,6451 4540,6787 Z"/>
     <path fill="rgb(191,191,191)" stroke="none" d="M 4078,7162 L 3540,7598 3540,7256 3656,7162 4078,7162 Z M 4540,6451 L 5013,6177 5013,6404 4540,6787 4540,6451 Z M 4526,6799 L 4095,7148 3673,7148 4522,6461 4526,6459 4526,6799 Z"/>
     <path fill="rgb(192,192,192)" stroke="none" d="M 4095,7148 L 3540,7598 3540,7256 3673,7148 4095,7148 Z M 4526,6459 L 5013,6177 5013,6404 4526,6799 4526,6459 Z M 4511,6811 L 4114,7133 3692,7133 4511,6470 4511,6811 Z"/>
     <path fill="rgb(193,193,193)" stroke="none" d="M 4114,7133 L 3540,7598 3540,7256 3692,7133 4114,7133 Z M 4511,6470 L 4522,6461 5013,6177 5013,6404 4511,6811 4511,6470 Z M 4496,6823 L 4132,7118 3710,7118 4496,6482 4496,6823 Z"/>
     <path fill="rgb(194,194,194)" stroke="none" d="M 4132,7118 L 3540,7598 3540,7256 3710,7118 4132,7118 Z M 4496,6482 L 4522,6461 5013,6177 5013,6404 4496,6823 4496,6482 Z M 4481,6835 L 4151,7103 3729,7103 4481,6494 4481,6835 Z"/>
     <path fill="rgb(195,195,195)" stroke="none" d="M 4151,7103 L 3540,7598 3540,7256 3729,7103 4151,7103 Z M 4481,6494 L 4522,6461 5013,6177 5013,6404 4481,6835 4481,6494 Z M 4467,6847 L 4168,7089 3746,7089 4467,6506 4467,6847 Z"/>
     <path fill="rgb(196,196,196)" stroke="none" d="M 4168,7089 L 3540,7598 3540,7256 3746,7089 4168,7089 Z M 4467,6506 L 4522,6461 5013,6177 5013,6404 4467,6847 4467,6506 Z M 4452,6859 L 4186,7074 3765,7074 4452,6518 4452,6859 Z"/>
     <path fill="rgb(197,197,197)" stroke="none" d="M 4186,7074 L 3540,7598 3540,7256 3765,7074 4186,7074 Z M 4452,6518 L 4522,6461 5013,6177 5013,6404 4452,6859 4452,6518 Z M 4437,6871 L 4205,7059 3783,7059 4437,6530 4437,6871 Z"/>
     <path fill="rgb(198,198,198)" stroke="none" d="M 4205,7059 L 3540,7598 3540,7256 3783,7059 4205,7059 Z M 4437,6530 L 4522,6461 5013,6177 5013,6404 4437,6871 4437,6530 Z M 4422,6883 L 4223,7044 3802,7044 4422,6542 4422,6883 Z"/>
     <path fill="rgb(199,199,199)" stroke="none" d="M 4223,7044 L 3540,7598 3540,7256 3802,7044 4223,7044 Z M 4422,6542 L 4522,6461 5013,6177 5013,6404 4422,6883 4422,6542 Z M 4408,6894 L 4241,7030 3819,7030 4408,6553 4408,6894 Z"/>
     <path fill="rgb(200,200,200)" stroke="none" d="M 4241,7030 L 3540,7598 3540,7256 3819,7030 4241,7030 Z M 4408,6553 L 4522,6461 5013,6177 5013,6404 4408,6894 4408,6553 Z M 4393,6907 L 4259,7015 3838,7015 4393,6565 4393,6907 Z"/>
     <path fill="rgb(201,201,201)" stroke="none" d="M 4259,7015 L 3540,7598 3540,7256 3838,7015 4259,7015 Z M 4393,6565 L 4522,6461 5013,6177 5013,6404 4393,6907 4393,6565 Z M 4378,6919 L 4278,7000 3856,7000 4378,6578 4378,6919 Z"/>
     <path fill="rgb(202,202,202)" stroke="none" d="M 4278,7000 L 3540,7598 3540,7256 3856,7000 4278,7000 Z M 4378,6578 L 4522,6461 5013,6177 5013,6404 4378,6919 4378,6578 Z M 4363,6931 L 4296,6985 3875,6985 4363,6590 4363,6931 Z"/>
     <path fill="rgb(203,203,203)" stroke="none" d="M 4296,6985 L 3540,7598 3540,7256 3875,6985 4296,6985 Z M 4363,6590 L 4522,6461 5013,6177 5013,6404 4363,6931 4363,6590 Z M 4349,6942 L 4314,6971 3892,6971 4349,6601 4349,6942 Z"/>
     <path fill="rgb(204,204,204)" stroke="none" d="M 4314,6971 L 3540,7598 3540,7256 3892,6971 4314,6971 Z M 4349,6601 L 4522,6461 5013,6177 5013,6404 4349,6942 4349,6601 Z M 4334,6954 L 4332,6956 3911,6956 4334,6613 4334,6954 Z"/>
     <path fill="rgb(205,205,205)" stroke="none" d="M 4332,6956 L 3540,7598 3540,7256 3911,6956 4332,6956 Z M 4334,6613 L 4522,6461 5013,6177 5013,6404 4334,6954 4334,6613 Z M 4319,6941 L 3929,6941 4319,6625 4319,6941 Z"/>
     <path fill="rgb(206,206,206)" stroke="none" d="M 4319,6941 L 4319,6625 4522,6461 5013,6177 5013,6404 3540,7598 3540,7256 3929,6941 4319,6941 Z M 4304,6926 L 3948,6926 4304,6637 4304,6926 Z"/>
     <path fill="rgb(207,207,207)" stroke="none" d="M 4304,6926 L 4304,6637 4522,6461 5013,6177 5013,6404 3540,7598 3540,7256 3948,6926 4304,6926 Z M 4289,6911 L 3966,6911 4289,6650 4289,6911 Z"/>
     <path fill="rgb(208,208,208)" stroke="none" d="M 4289,6911 L 4289,6650 4522,6461 5013,6177 5013,6404 3540,7598 3540,7256 3966,6911 4289,6911 Z M 4275,6897 L 3983,6897 4275,6661 4275,6897 Z"/>
     <path fill="rgb(209,209,209)" stroke="none" d="M 4275,6897 L 4275,6661 4522,6461 5013,6177 5013,6404 3540,7598 3540,7256 3983,6897 4275,6897 Z M 4260,6882 L 4002,6882 4260,6673 4260,6882 Z"/>
     <path fill="rgb(210,210,210)" stroke="none" d="M 4260,6882 L 4260,6673 4522,6461 5013,6177 5013,6404 3540,7598 3540,7256 4002,6882 4260,6882 Z M 4245,6867 L 4021,6867 4245,6685 4245,6867 Z"/>
     <path fill="rgb(211,211,211)" stroke="none" d="M 4245,6867 L 4245,6685 4522,6461 5013,6177 5013,6404 3540,7598 3540,7256 4021,6867 4245,6867 Z M 4230,6852 L 4039,6852 4230,6697 4230,6852 Z"/>
     <path fill="rgb(212,212,212)" stroke="none" d="M 4230,6852 L 4230,6697 4522,6461 5013,6177 5013,6404 3540,7598 3540,7256 4039,6852 4230,6852 Z M 4216,6838 L 4056,6838 4216,6709 4216,6838 Z"/>
     <path fill="rgb(213,213,213)" stroke="none" d="M 4216,6838 L 4216,6709 4522,6461 5013,6177 5013,6404 3540,7598 3540,7256 4056,6838 4216,6838 Z M 4201,6823 L 4075,6823 4201,6721 4201,6823 Z"/>
     <path fill="rgb(214,214,214)" stroke="none" d="M 4201,6823 L 4201,6721 4522,6461 5013,6177 5013,6404 3540,7598 3540,7256 4075,6823 4201,6823 Z M 4186,6808 L 4093,6808 4186,6733 4186,6808 Z"/>
     <path fill="rgb(215,215,215)" stroke="none" d="M 4186,6808 L 4186,6733 4522,6461 5013,6177 5013,6404 3540,7598 3540,7256 4093,6808 4186,6808 Z M 4171,6793 L 4112,6793 4171,6745 4171,6793 Z"/>
     <path fill="rgb(216,216,216)" stroke="none" d="M 4171,6793 L 4171,6745 4522,6461 5013,6177 5013,6404 3540,7598 3540,7256 4112,6793 4171,6793 Z M 4157,6779 L 4129,6779 4157,6756 4157,6779 Z"/>
     <path fill="rgb(217,217,217)" stroke="none" d="M 4157,6779 L 4157,6756 4522,6461 5013,6177 5013,6404 3540,7598 3540,7256 4129,6779 4157,6779 Z"/>
     <path fill="rgb(218,218,218)" stroke="none" d="M 3540,7598 L 3540,7256 4522,6461 5013,6177 5013,6404 3540,7598 Z"/>
     <path fill="rgb(219,219,219)" stroke="none" d="M 3540,7598 L 3540,7256 4522,6461 5013,6177 5013,6404 3540,7598 Z"/>
     <path fill="rgb(220,220,220)" stroke="none" d="M 3540,7598 L 3540,7256 4522,6461 5013,6177 5013,6404 3540,7598 Z"/>
     <path fill="rgb(221,221,221)" stroke="none" d="M 3540,7598 L 3540,7256 4522,6461 5013,6177 5013,6404 3540,7598 Z"/>
     <path fill="rgb(222,222,222)" stroke="none" d="M 3540,7598 L 3540,7256 4522,6461 5013,6177 5013,6404 3540,7598 Z"/>
     <path fill="rgb(223,223,223)" stroke="none" d="M 3540,7598 L 3540,7256 4522,6461 5013,6177 5013,6404 3540,7598 Z"/>
     <path fill="rgb(224,224,224)" stroke="none" d="M 3540,7598 L 3540,7256 4522,6461 5013,6177 5013,6404 3540,7598 Z"/>
     <path fill="rgb(225,225,225)" stroke="none" d="M 3540,7598 L 3540,7256 4522,6461 5013,6177 5013,6404 3540,7598 Z"/>
     <path fill="rgb(226,226,226)" stroke="none" d="M 3540,7598 L 3540,7256 4522,6461 5013,6177 5013,6404 3540,7598 Z"/>
     <path fill="rgb(227,227,227)" stroke="none" d="M 3540,7598 L 3540,7256 4522,6461 5013,6177 5013,6404 3540,7598 Z"/>
     <path fill="rgb(229,229,229)" stroke="none" d="M 3540,7598 L 3540,7256 4522,6461 5013,6177 5013,6404 3540,7598 Z"/>
     <path fill="none" stroke="rgb(255,255,255)" id="Drawing_3_0" stroke-width="40" stroke-linejoin="round" d="M 3540,7598 L 3540,7256 4522,6461 5013,6177 5013,6404 3540,7598 Z"/>
    </g>
    <g>
     <path fill="rgb(179,179,179)" stroke="none" d="M 7758,8395 L 6654,9034 5602,9034 5602,8563 7271,7200 7758,6918 7758,8395 Z"/>
     <path fill="rgb(180,180,180)" stroke="none" d="M 6654,9034 L 5602,9643 5602,9034 6654,9034 Z M 7758,6918 L 8057,6745 8057,8222 7758,8395 7758,6918 Z M 7729,8412 L 6704,9005 5602,9005 5602,8563 7271,7200 7729,6935 7729,8412 Z"/>
     <path fill="rgb(181,181,181)" stroke="none" d="M 6704,9005 L 5602,9643 5602,9005 6704,9005 Z M 7729,6935 L 8057,6745 8057,8222 7729,8412 7729,6935 Z M 7700,8429 L 6754,8976 5602,8976 5602,8563 7271,7200 7700,6952 7700,8429 Z"/>
     <path fill="rgb(182,182,182)" stroke="none" d="M 6754,8976 L 5602,9643 5602,8976 6754,8976 Z M 7700,6952 L 8057,6745 8057,8222 7700,8429 7700,6952 Z M 7671,8445 L 6804,8947 5602,8947 5602,8563 7271,7200 7671,6968 7671,8445 Z"/>
     <path fill="rgb(183,183,183)" stroke="none" d="M 6804,8947 L 5602,9643 5602,8947 6804,8947 Z M 7671,6968 L 8057,6745 8057,8222 7671,8445 7671,6968 Z M 7642,8462 L 6855,8918 5602,8918 5602,8563 7271,7200 7642,6985 7642,8462 Z"/>
     <path fill="rgb(184,184,184)" stroke="none" d="M 6855,8918 L 5602,9643 5602,8918 6855,8918 Z M 7642,6985 L 8057,6745 8057,8222 7642,8462 7642,6985 Z M 7613,8479 L 6905,8889 5602,8889 5602,8563 7271,7200 7613,7002 7613,8479 Z"/>
     <path fill="rgb(185,185,185)" stroke="none" d="M 6905,8889 L 5602,9643 5602,8889 6905,8889 Z M 7613,7002 L 8057,6745 8057,8222 7613,8479 7613,7002 Z M 7584,8496 L 6955,8860 5602,8860 5602,8563 7271,7200 7584,7019 7584,8496 Z"/>
     <path fill="rgb(186,186,186)" stroke="none" d="M 6955,8860 L 5602,9643 5602,8860 6955,8860 Z M 7584,7019 L 8057,6745 8057,8222 7584,8496 7584,7019 Z M 7555,8513 L 7005,8831 5602,8831 5602,8563 7271,7200 7555,7036 7555,8513 Z"/>
     <path fill="rgb(187,187,187)" stroke="none" d="M 7005,8831 L 5602,9643 5602,8831 7005,8831 Z M 7555,7036 L 8057,6745 8057,8222 7555,8513 7555,7036 Z M 7526,8529 L 7055,8802 5602,8802 5602,8563 7271,7200 7526,7052 7526,8529 Z"/>
     <path fill="rgb(188,188,188)" stroke="none" d="M 7055,8802 L 5602,9643 5602,8802 7055,8802 Z M 7526,7052 L 8057,6745 8057,8222 7526,8529 7526,7052 Z M 7497,8546 L 7105,8773 5602,8773 5602,8563 7271,7200 7497,7069 7497,8546 Z"/>
     <path fill="rgb(189,189,189)" stroke="none" d="M 7105,8773 L 5602,9643 5602,8773 7105,8773 Z M 7497,7069 L 8057,6745 8057,8222 7497,8546 7497,7069 Z M 7468,8563 L 7155,8744 5602,8744 5602,8563 7271,7200 7468,7086 7468,8563 Z"/>
     <path fill="rgb(190,190,190)" stroke="none" d="M 7155,8744 L 5602,9643 5602,8744 7155,8744 Z M 7468,7086 L 8057,6745 8057,8222 7468,8563 7468,7086 Z M 7439,8580 L 7205,8715 5602,8715 5602,8563 7271,7200 7439,7103 7439,8580 Z"/>
     <path fill="rgb(191,191,191)" stroke="none" d="M 7205,8715 L 5602,9643 5602,8715 7205,8715 Z M 7439,7103 L 8057,6745 8057,8222 7439,8580 7439,7103 Z M 7410,8596 L 7255,8686 5602,8686 5602,8563 7271,7200 7410,7120 7410,8596 Z"/>
     <path fill="rgb(192,192,192)" stroke="none" d="M 7255,8686 L 5602,9643 5602,8686 7255,8686 Z M 7410,7120 L 8057,6745 8057,8222 7410,8596 7410,7120 Z M 7381,8613 L 7305,8657 5602,8657 5602,8563 7271,7200 7381,7136 7381,8613 Z"/>
     <path fill="rgb(193,193,193)" stroke="none" d="M 7305,8657 L 5602,9643 5602,8657 7305,8657 Z M 7381,7136 L 8057,6745 8057,8222 7381,8613 7381,7136 Z M 7352,8628 L 5602,8628 5602,8563 7271,7200 7352,7153 7352,8628 Z"/>
     <path fill="rgb(194,194,194)" stroke="none" d="M 7352,8628 L 7352,7153 8057,6745 8057,8222 5602,9643 5602,8628 7352,8628 Z M 7323,8599 L 5602,8599 5602,8563 7271,7200 7323,7170 7323,8599 Z"/>
     <path fill="rgb(195,195,195)" stroke="none" d="M 7323,8599 L 7323,7170 8057,6745 8057,8222 5602,9643 5602,8599 7323,8599 Z M 7294,8570 L 5602,8570 5602,8563 7271,7200 7294,7187 7294,8570 Z"/>
     <path fill="rgb(196,196,196)" stroke="none" d="M 7294,8570 L 7294,7187 8057,6745 8057,8222 5602,9643 5602,8570 7294,8570 Z M 7265,8541 L 5629,8541 7265,7205 7265,8541 Z"/>
     <path fill="rgb(197,197,197)" stroke="none" d="M 7265,8541 L 7265,7205 7271,7200 8057,6745 8057,8222 5602,9643 5602,8563 5629,8541 7265,8541 Z M 7236,8512 L 5664,8512 7236,7229 7236,8512 Z"/>
     <path fill="rgb(198,198,198)" stroke="none" d="M 7236,8512 L 7236,7229 7271,7200 8057,6745 8057,8222 5602,9643 5602,8563 5664,8512 7236,8512 Z M 7207,8483 L 5700,8483 7207,7252 7207,8483 Z"/>
     <path fill="rgb(199,199,199)" stroke="none" d="M 7207,8483 L 7207,7252 7271,7200 8057,6745 8057,8222 5602,9643 5602,8563 5700,8483 7207,8483 Z M 7178,8454 L 5735,8454 7178,7276 7178,8454 Z"/>
     <path fill="rgb(200,200,200)" stroke="none" d="M 7178,8454 L 7178,7276 7271,7200 8057,6745 8057,8222 5602,9643 5602,8563 5735,8454 7178,8454 Z M 7149,8425 L 5771,8425 7149,7300 7149,8425 Z"/>
     <path fill="rgb(201,201,201)" stroke="none" d="M 7149,8425 L 7149,7300 7271,7200 8057,6745 8057,8222 5602,9643 5602,8563 5771,8425 7149,8425 Z M 7120,8396 L 5806,8396 7120,7323 7120,8396 Z"/>
     <path fill="rgb(202,202,202)" stroke="none" d="M 7120,8396 L 7120,7323 7271,7200 8057,6745 8057,8222 5602,9643 5602,8563 5806,8396 7120,8396 Z M 7091,8367 L 5842,8367 7091,7347 7091,8367 Z"/>
     <path fill="rgb(203,203,203)" stroke="none" d="M 7091,8367 L 7091,7347 7271,7200 8057,6745 8057,8222 5602,9643 5602,8563 5842,8367 7091,8367 Z M 7062,8338 L 5878,8338 7062,7371 7062,8338 Z"/>
     <path fill="rgb(204,204,204)" stroke="none" d="M 7062,8338 L 7062,7371 7271,7200 8057,6745 8057,8222 5602,9643 5602,8563 5878,8338 7062,8338 Z M 7033,8309 L 5913,8309 7033,7394 7033,8309 Z"/>
     <path fill="rgb(205,205,205)" stroke="none" d="M 7033,8309 L 7033,7394 7271,7200 8057,6745 8057,8222 5602,9643 5602,8563 5913,8309 7033,8309 Z M 7004,8280 L 5949,8280 7004,7418 7004,8280 Z"/>
     <path fill="rgb(206,206,206)" stroke="none" d="M 7004,8280 L 7004,7418 7271,7200 8057,6745 8057,8222 5602,9643 5602,8563 5949,8280 7004,8280 Z M 6975,8251 L 5984,8251 6975,7442 6975,8251 Z"/>
     <path fill="rgb(207,207,207)" stroke="none" d="M 6975,8251 L 6975,7442 7271,7200 8057,6745 8057,8222 5602,9643 5602,8563 5984,8251 6975,8251 Z M 6946,8222 L 6020,8222 6946,7465 6946,8222 Z"/>
     <path fill="rgb(208,208,208)" stroke="none" d="M 6946,8222 L 6946,7465 7271,7200 8057,6745 8057,8222 5602,9643 5602,8563 6020,8222 6946,8222 Z M 6917,8193 L 6055,8193 6917,7489 6917,8193 Z"/>
     <path fill="rgb(209,209,209)" stroke="none" d="M 6917,8193 L 6917,7489 7271,7200 8057,6745 8057,8222 5602,9643 5602,8563 6055,8193 6917,8193 Z M 6888,8164 L 6091,8164 6888,7513 6888,8164 Z"/>
     <path fill="rgb(210,210,210)" stroke="none" d="M 6888,8164 L 6888,7513 7271,7200 8057,6745 8057,8222 5602,9643 5602,8563 6091,8164 6888,8164 Z M 6859,8135 L 6126,8135 6859,7536 6859,8135 Z"/>
     <path fill="rgb(211,211,211)" stroke="none" d="M 6859,8135 L 6859,7536 7271,7200 8057,6745 8057,8222 5602,9643 5602,8563 6126,8135 6859,8135 Z M 6830,8106 L 6162,8106 6830,7560 6830,8106 Z"/>
     <path fill="rgb(212,212,212)" stroke="none" d="M 6830,8106 L 6830,7560 7271,7200 8057,6745 8057,8222 5602,9643 5602,8563 6162,8106 6830,8106 Z M 6801,8077 L 6197,8077 6801,7584 6801,8077 Z"/>
     <path fill="rgb(213,213,213)" stroke="none" d="M 6801,8077 L 6801,7584 7271,7200 8057,6745 8057,8222 5602,9643 5602,8563 6197,8077 6801,8077 Z M 6772,8048 L 6233,8048 6772,7608 6772,8048 Z"/>
     <path fill="rgb(214,214,214)" stroke="none" d="M 6772,8048 L 6772,7608 7271,7200 8057,6745 8057,8222 5602,9643 5602,8563 6233,8048 6772,8048 Z M 6743,8019 L 6268,8019 6743,7631 6743,8019 Z"/>
     <path fill="rgb(215,215,215)" stroke="none" d="M 6743,8019 L 6743,7631 7271,7200 8057,6745 8057,8222 5602,9643 5602,8563 6268,8019 6743,8019 Z M 6714,7990 L 6304,7990 6714,7655 6714,7990 Z"/>
     <path fill="rgb(216,216,216)" stroke="none" d="M 6714,7990 L 6714,7655 7271,7200 8057,6745 8057,8222 5602,9643 5602,8563 6304,7990 6714,7990 Z M 6685,7961 L 6339,7961 6685,7679 6685,7961 Z"/>
     <path fill="rgb(217,217,217)" stroke="none" d="M 6685,7961 L 6685,7679 7271,7200 8057,6745 8057,8222 5602,9643 5602,8563 6339,7961 6685,7961 Z M 6656,7932 L 6375,7932 6656,7702 6656,7932 Z"/>
     <path fill="rgb(218,218,218)" stroke="none" d="M 6656,7932 L 6656,7702 7271,7200 8057,6745 8057,8222 5602,9643 5602,8563 6375,7932 6656,7932 Z M 6627,7903 L 6410,7903 6627,7726 6627,7903 Z"/>
     <path fill="rgb(219,219,219)" stroke="none" d="M 6627,7903 L 6627,7726 7271,7200 8057,6745 8057,8222 5602,9643 5602,8563 6410,7903 6627,7903 Z M 6598,7874 L 6446,7874 6598,7750 6598,7874 Z"/>
     <path fill="rgb(220,220,220)" stroke="none" d="M 6598,7874 L 6598,7750 7271,7200 8057,6745 8057,8222 5602,9643 5602,8563 6446,7874 6598,7874 Z M 6569,7845 L 6481,7845 6569,7773 6569,7845 Z"/>
     <path fill="rgb(221,221,221)" stroke="none" d="M 6569,7845 L 6569,7773 7271,7200 8057,6745 8057,8222 5602,9643 5602,8563 6481,7845 6569,7845 Z M 6540,7816 L 6517,7816 6540,7797 6540,7816 Z"/>
     <path fill="rgb(222,222,222)" stroke="none" d="M 6540,7816 L 6540,7797 7271,7200 8057,6745 8057,8222 5602,9643 5602,8563 6517,7816 6540,7816 Z"/>
     <path fill="rgb(223,223,223)" stroke="none" d="M 5602,9643 L 5602,8563 7271,7200 8057,6745 8057,8222 5602,9643 Z"/>
     <path fill="rgb(224,224,224)" stroke="none" d="M 5602,9643 L 5602,8563 7271,7200 8057,6745 8057,8222 5602,9643 Z"/>
     <path fill="rgb(225,225,225)" stroke="none" d="M 5602,9643 L 5602,8563 7271,7200 8057,6745 8057,8222 5602,9643 Z"/>
     <path fill="rgb(226,226,226)" stroke="none" d="M 5602,9643 L 5602,8563 7271,7200 8057,6745 8057,8222 5602,9643 Z"/>
     <path fill="rgb(227,227,227)" stroke="none" d="M 5602,9643 L 5602,8563 7271,7200 8057,6745 8057,8222 5602,9643 Z"/>
     <path fill="rgb(229,229,229)" stroke="none" d="M 5602,9643 L 5602,8563 7271,7200 8057,6745 8057,8222 5602,9643 Z"/>
     <path fill="none" stroke="rgb(255,255,255)" id="Drawing_4_0" stroke-width="40" stroke-linejoin="round" d="M 5602,9643 L 5602,8563 7271,7200 8057,6745 8057,8222 5602,9643 Z"/>
    </g>
    <g>
     <defs>
      <linearGradient id="Gradient_169" gradientUnits="userSpaceOnUse" x1="3636" y1="8532" x2="5604" y2="8536">
       <stop offset="0.1" stop-color="rgb(179,179,179)"/>
       <stop offset="1" stop-color="rgb(229,229,229)"/>
      </linearGradient>
     </defs>
     <path fill="url(#Gradient_169)" stroke="rgb(255,255,255)" id="Drawing_5_0" stroke-width="40" stroke-linejoin="round" d="M 3638,8505 L 3638,7426 5602,8562 5602,9642 3638,8505 Z"/>
    </g>
    <g>
     <defs>
      <linearGradient id="Gradient_170" gradientUnits="userSpaceOnUse" x1="3636" y1="7311" x2="7274" y2="7317">
       <stop offset="0.1" stop-color="rgb(179,179,179)"/>
       <stop offset="1" stop-color="rgb(229,229,229)"/>
      </linearGradient>
     </defs>
     <path fill="url(#Gradient_170)" stroke="rgb(255,255,255)" id="Drawing_6_0" stroke-width="40" stroke-linejoin="round" d="M 5602,8564 L 3638,7428 5307,6064 7272,7200 5602,8564 Z"/>
    </g>
    <g>
     <path fill="rgb(255,255,255)" stroke="none" d="M 4720,7654 L 4818,7541 4916,7598 4818,7711 4720,7654 Z"/>
     <path fill="none" stroke="rgb(128,128,128)" id="Drawing_7_0" stroke-width="40" stroke-linejoin="round" d="M 4720,7654 L 4818,7541 4916,7598 4818,7711 4720,7654 Z"/>
    </g>
    <g>
     <defs>
      <linearGradient id="Gradient_171" gradientUnits="userSpaceOnUse" x1="5306" y1="6999" x2="6486" y2="7001">
       <stop offset="0.1" stop-color="rgb(147,212,240)"/>
       <stop offset="1" stop-color="rgb(233,246,252)"/>
      </linearGradient>
     </defs>
     <path fill="url(#Gradient_171)" stroke="rgb(128,128,128)" id="Drawing_8_0" stroke-width="40" stroke-linejoin="round" d="M 5307,6801 L 5503,6631 6485,7199 6289,7370 5307,6801 Z"/>
    </g>
    <g>
     <path fill="rgb(255,255,255)" stroke="none" d="M 4917,7483 L 5015,7370 5113,7427 5015,7540 4917,7483 Z"/>
     <path fill="none" stroke="rgb(128,128,128)" id="Drawing_9_0" stroke-width="40" stroke-linejoin="round" d="M 4917,7483 L 5015,7370 5113,7427 5015,7540 4917,7483 Z"/>
    </g>
    <g>
     <path fill="rgb(255,255,255)" stroke="none" d="M 5113,7312 L 5211,7199 5309,7256 5211,7369 5113,7312 Z"/>
     <path fill="none" stroke="rgb(128,128,128)" id="Drawing_10_0" stroke-width="40" stroke-linejoin="round" d="M 5113,7312 L 5211,7199 5309,7256 5211,7369 5113,7312 Z"/>
    </g>
    <g>
     <path fill="rgb(255,255,255)" stroke="none" d="M 5309,7142 L 5407,7029 5505,7086 5407,7199 5309,7142 Z"/>
     <path fill="none" stroke="rgb(128,128,128)" id="Drawing_11_0" stroke-width="40" stroke-linejoin="round" d="M 5309,7142 L 5407,7029 5505,7086 5407,7199 5309,7142 Z"/>
    </g>
    <g>
     <path fill="rgb(255,255,255)" stroke="none" d="M 4917,7767 L 5015,7654 5113,7711 5015,7824 4917,7767 Z"/>
     <path fill="none" stroke="rgb(128,128,128)" id="Drawing_12_0" stroke-width="40" stroke-linejoin="round" d="M 4917,7767 L 5015,7654 5113,7711 5015,7824 4917,7767 Z"/>
    </g>
    <g>
     <path fill="rgb(255,255,255)" stroke="none" d="M 5112,7596 L 5210,7483 5308,7540 5210,7653 5112,7596 Z"/>
     <path fill="none" stroke="rgb(128,128,128)" id="Drawing_13_0" stroke-width="40" stroke-linejoin="round" d="M 5112,7596 L 5210,7483 5308,7540 5210,7653 5112,7596 Z"/>
    </g>
    <g>
     <path fill="rgb(255,255,255)" stroke="none" d="M 5309,7426 L 5407,7313 5505,7370 5407,7483 5309,7426 Z"/>
     <path fill="none" stroke="rgb(128,128,128)" id="Drawing_14_0" stroke-width="40" stroke-linejoin="round" d="M 5309,7426 L 5407,7313 5505,7370 5407,7483 5309,7426 Z"/>
    </g>
    <g>
     <path fill="rgb(255,255,255)" stroke="none" d="M 5504,7256 L 5602,7143 5700,7200 5602,7313 5504,7256 Z"/>
     <path fill="none" stroke="rgb(128,128,128)" id="Drawing_15_0" stroke-width="40" stroke-linejoin="round" d="M 5504,7256 L 5602,7143 5700,7200 5602,7313 5504,7256 Z"/>
    </g>
    <g>
     <path fill="rgb(57,181,74)" stroke="none" d="M 5112,7881 L 5210,7768 5308,7825 5210,7938 5112,7881 Z"/>
     <path fill="none" stroke="rgb(128,128,128)" id="Drawing_16_0" stroke-width="40" stroke-linejoin="round" d="M 5112,7881 L 5210,7768 5308,7825 5210,7938 5112,7881 Z"/>
    </g>
    <g>
     <path fill="rgb(222,142,150)" stroke="none" d="M 5309,7711 L 5407,7598 5505,7655 5407,7768 5309,7711 Z"/>
     <path fill="none" stroke="rgb(128,128,128)" id="Drawing_17_0" stroke-width="40" stroke-linejoin="round" d="M 5309,7711 L 5407,7598 5505,7655 5407,7768 5309,7711 Z"/>
    </g>
    <g>
     <path fill="rgb(0,0,0)" stroke="none" d="M 5505,7539 L 5603,7426 5701,7483 5603,7596 5505,7539 Z"/>
     <path fill="none" stroke="rgb(128,128,128)" id="Drawing_18_0" stroke-width="40" stroke-linejoin="round" d="M 5505,7539 L 5603,7426 5701,7483 5603,7596 5505,7539 Z"/>
    </g>
    <g>
     <path fill="rgb(255,255,255)" stroke="none" d="M 5701,7369 L 5799,7256 5897,7313 5799,7426 5701,7369 Z"/>
     <path fill="none" stroke="rgb(128,128,128)" id="Drawing_19_0" stroke-width="40" stroke-linejoin="round" d="M 5701,7369 L 5799,7256 5897,7313 5799,7426 5701,7369 Z"/>
    </g>
    <g>
     <path fill="none" stroke="rgb(255,255,255)" id="Drawing_20_0" stroke-width="40" stroke-linejoin="round" d="M 3834,8165 L 3834,8052"/>
    </g>
    <g>
     <path fill="none" stroke="rgb(255,255,255)" id="Drawing_21_0" stroke-width="40" stroke-linejoin="round" d="M 3834,8165 L 5405,9074"/>
    </g>
    <g>
     <path fill="none" stroke="rgb(102,102,102)" id="Drawing_22_0" stroke-width="40" stroke-linejoin="round" d="M 3834,8052 L 5405,8961"/>
    </g>
    <g>
     <path fill="none" stroke="rgb(102,102,102)" id="Drawing_23_0" stroke-width="40" stroke-linejoin="round" d="M 5406,9074 L 5406,8961"/>
    </g>
    <g>
     <defs>
      <linearGradient id="Gradient_172" gradientUnits="userSpaceOnUse" x1="3146" y1="7313" x2="3539" y2="7313">
       <stop offset="0.1" stop-color="rgb(179,179,179)"/>
       <stop offset="1" stop-color="rgb(229,229,229)"/>
      </linearGradient>
     </defs>
     <path fill="url(#Gradient_172)" stroke="rgb(255,255,255)" id="Drawing_24_0" stroke-width="40" stroke-linejoin="round" d="M 3147,7369 L 3147,7029 3540,7256 3540,7597 3147,7369 Z"/>
    </g>
    <g>
     <defs>
      <linearGradient id="Gradient_173" gradientUnits="userSpaceOnUse" x1="3145" y1="6744" x2="4522" y2="6746">
       <stop offset="0.1" stop-color="rgb(179,179,179)"/>
       <stop offset="1" stop-color="rgb(229,229,229)"/>
      </linearGradient>
     </defs>
     <path fill="url(#Gradient_173)" stroke="rgb(255,255,255)" id="Drawing_25_0" stroke-width="40" stroke-linejoin="round" d="M 3540,7256 L 3147,7029 4129,6234 4522,6461 3540,7256 Z"/>
    </g>
    <g>
     <defs>
      <linearGradient id="Gradient_174" gradientUnits="userSpaceOnUse" x1="4571" y1="5950" x2="4571" y2="6462">
       <stop offset="0.1" stop-color="rgb(179,179,179)"/>
       <stop offset="1" stop-color="rgb(229,229,229)"/>
      </linearGradient>
     </defs>
     <path fill="url(#Gradient_174)" stroke="rgb(255,255,255)" id="Drawing_26_0" stroke-width="40" stroke-linejoin="round" d="M 4522,6462 L 4129,6234 4620,5950 5013,6177 4522,6462 Z"/>
    </g>
    <g>
     <path fill="none" stroke="rgb(255,255,255)" id="Drawing_27_0" stroke-width="40" stroke-linejoin="round" d="M 5897,5950 L 5995,5893"/>
    </g>
    <g>
     <path fill="none" stroke="rgb(102,102,102)" id="Drawing_28_0" stroke-width="40" stroke-linejoin="round" d="M 5897,5950 L 7468,6859"/>
    </g>
    <g>
     <path fill="none" stroke="rgb(255,255,255)" id="Drawing_29_0" stroke-width="40" stroke-linejoin="round" d="M 5995,5893 L 7566,6802"/>
    </g>
    <g>
     <path fill="none" stroke="rgb(102,102,102)" id="Drawing_30_0" stroke-width="40" stroke-linejoin="round" d="M 7469,6859 L 7567,6802"/>
    </g>
    <g>
     <path fill="none" stroke="rgb(0,0,0)" id="Drawing_31_0" stroke-width="40" stroke-linejoin="round" d="M 3147,7370 L 3147,7030 4129,6234 4620,5949 5013,6177 5013,6291 5307,6064 6094,5609 8058,6745 8058,8222 5602,9643 3638,8507 3638,7654 3147,7370 Z"/>
    </g>
    <g>
     <path fill="rgb(255,255,255)" stroke="none" d="M 4523,7539 L 4621,7426 4719,7483 4621,7596 4523,7539 Z"/>
     <path fill="none" stroke="rgb(128,128,128)" id="Drawing_32_0" stroke-width="40" stroke-linejoin="round" d="M 4523,7539 L 4621,7426 4719,7483 4621,7596 4523,7539 Z"/>
    </g>
    <g>
     <path fill="rgb(255,255,255)" stroke="none" d="M 4719,7369 L 4817,7256 4915,7313 4817,7426 4719,7369 Z"/>
     <path fill="none" stroke="rgb(128,128,128)" id="Drawing_33_0" stroke-width="40" stroke-linejoin="round" d="M 4719,7369 L 4817,7256 4915,7313 4817,7426 4719,7369 Z"/>
    </g>
    <g>
     <path fill="rgb(255,255,255)" stroke="none" d="M 4916,7199 L 5014,7086 5112,7143 5014,7256 4916,7199 Z"/>
     <path fill="none" stroke="rgb(128,128,128)" id="Drawing_34_0" stroke-width="40" stroke-linejoin="round" d="M 4916,7199 L 5014,7086 5112,7143 5014,7256 4916,7199 Z"/>
    </g>
    <g>
     <path fill="rgb(255,255,255)" stroke="none" d="M 5112,7029 L 5210,6916 5308,6973 5210,7086 5112,7029 Z"/>
     <path fill="none" stroke="rgb(128,128,128)" id="Drawing_35_0" stroke-width="40" stroke-linejoin="round" d="M 5112,7029 L 5210,6916 5308,6973 5210,7086 5112,7029 Z"/>
    </g>
    <g>
     <path fill="rgb(255,255,255)" stroke="none" d="M 7371,6745 C 6978,6518 6487,6234 6094,6007 6389,5722 6520,4643 7174,4643 7567,4870 8058,5155 8549,5438 7895,5438 7665,6234 7371,6745 Z"/>
     <path fill="none" stroke="rgb(0,0,0)" id="Drawing_36_0" stroke-width="40" stroke-linejoin="round" d="M 7371,6745 C 6978,6518 6487,6234 6094,6007 6389,5722 6520,4643 7174,4643 7567,4870 8058,5155 8549,5438 7895,5438 7665,6234 7371,6745 Z"/>
    </g>
   </g>
  </g>
 </g>
</svg>