<?xml version="1.0" encoding="UTF-8"?>

<svg version="1.2" baseProfile="tiny" width="33.13mm" height="28.43mm" viewBox="8890 3228 3313 2843" preserveAspectRatio="xMidYMid" fill-rule="evenodd" stroke-width="28.222" stroke-linejoin="round" xmlns="http://www.w3.org/2000/svg" xmlns:xlink="http://www.w3.org/1999/xlink" xml:space="preserve">
 <g visibility="visible" id="Slide_1">
  <g id="DrawingGroup_1">
   <g>
    <path fill="rgb(221,221,221)" stroke="none" d="M 10369,6051 C 10703,6051 11698,5701 11819,5281 11940,4860 11546,4720 11214,4720 11214,4930 10249,4510 10369,6051 Z"/>
    <path fill="none" stroke="rgb(221,221,221)" id="Drawing_1_0" stroke-width="40" stroke-linejoin="round" d="M 10369,6051 C 10703,6051 11698,5701 11819,5281 11940,4860 11546,4720 11214,4720 11214,4930 10249,4510 10369,6051 Z"/>
   </g>
   <g id="DrawingGroup_2">
    <g>
     <defs>
      <linearGradient id="Gradient_294" gradientUnits="userSpaceOnUse" x1="9998" y1="5104" x2="10851" y2="5106">
       <stop offset="0.1" stop-color="rgb(51,51,51)"/>
       <stop offset="1" stop-color="rgb(153,153,153)"/>
      </linearGradient>
     </defs>
     <path fill="url(#Gradient_294)" stroke="rgb(178,178,178)" id="Drawing_2_0" stroke-width="40" stroke-linejoin="round" d="M 10001,5841 L 10486,4159 10850,4369 10365,6051 10001,5841 Z"/>
    </g>
    <g>
     <path fill="rgb(51,51,51)" stroke="none" d="M 10452,5732 L 10729,4720 11093,4510 10759,5732 10452,5732 Z"/>
     <path fill="rgb(52,52,52)" stroke="none" d="M 10759,5732 L 10729,5841 10365,6051 10452,5732 10759,5732 Z M 10455,5722 L 10729,4720 11093,4510 10762,5722 10455,5722 Z"/>
     <path fill="rgb(53,53,53)" stroke="none" d="M 10762,5722 L 10729,5841 10365,6051 10455,5722 10762,5722 Z M 10458,5712 L 10729,4720 11093,4510 10764,5712 10458,5712 Z"/>
     <path fill="rgb(54,54,54)" stroke="none" d="M 10764,5712 L 10729,5841 10365,6051 10458,5712 10764,5712 Z M 10460,5702 L 10729,4720 11093,4510 10767,5702 10460,5702 Z"/>
     <path fill="rgb(56,56,56)" stroke="none" d="M 10767,5702 L 10729,5841 10365,6051 10460,5702 10767,5702 Z M 10463,5692 L 10729,4720 11093,4510 10770,5692 10463,5692 Z"/>
     <path fill="rgb(57,57,57)" stroke="none" d="M 10770,5692 L 10729,5841 10365,6051 10463,5692 10770,5692 Z M 10466,5682 L 10729,4720 11093,4510 10772,5682 10466,5682 Z"/>
     <path fill="rgb(58,58,58)" stroke="none" d="M 10772,5682 L 10729,5841 10365,6051 10466,5682 10772,5682 Z M 10469,5672 L 10729,4720 11093,4510 10775,5672 10469,5672 Z"/>
     <path fill="rgb(60,60,60)" stroke="none" d="M 10775,5672 L 10729,5841 10365,6051 10469,5672 10775,5672 Z M 10471,5662 L 10729,4720 11093,4510 10778,5662 10471,5662 Z"/>
     <path fill="rgb(61,61,61)" stroke="none" d="M 10778,5662 L 10729,5841 10365,6051 10471,5662 10778,5662 Z M 10474,5652 L 10729,4720 11093,4510 10781,5652 10474,5652 Z"/>
     <path fill="rgb(62,62,62)" stroke="none" d="M 10781,5652 L 10729,5841 10365,6051 10474,5652 10781,5652 Z M 10477,5642 L 10729,4720 11093,4510 10783,5642 10477,5642 Z"/>
     <path fill="rgb(64,64,64)" stroke="none" d="M 10783,5642 L 10729,5841 10365,6051 10477,5642 10783,5642 Z M 10480,5632 L 10729,4720 11093,4510 10786,5632 10480,5632 Z"/>
     <path fill="rgb(65,65,65)" stroke="none" d="M 10786,5632 L 10729,5841 10365,6051 10480,5632 10786,5632 Z M 10482,5622 L 10729,4720 11093,4510 10789,5622 10482,5622 Z"/>
     <path fill="rgb(66,66,66)" stroke="none" d="M 10789,5622 L 10729,5841 10365,6051 10482,5622 10789,5622 Z M 10485,5612 L 10729,4720 11093,4510 10792,5612 10485,5612 Z"/>
     <path fill="rgb(68,68,68)" stroke="none" d="M 10792,5612 L 10729,5841 10365,6051 10485,5612 10792,5612 Z M 10488,5602 L 10729,4720 11093,4510 10794,5602 10488,5602 Z"/>
     <path fill="rgb(69,69,69)" stroke="none" d="M 10794,5602 L 10729,5841 10365,6051 10488,5602 10794,5602 Z M 10491,5592 L 10729,4720 11093,4510 10797,5592 10491,5592 Z"/>
     <path fill="rgb(70,70,70)" stroke="none" d="M 10797,5592 L 10729,5841 10365,6051 10491,5592 10797,5592 Z M 10493,5582 L 10729,4720 11093,4510 10800,5582 10493,5582 Z"/>
     <path fill="rgb(72,72,72)" stroke="none" d="M 10800,5582 L 10729,5841 10365,6051 10493,5582 10800,5582 Z M 10496,5572 L 10729,4720 11093,4510 10803,5572 10496,5572 Z"/>
     <path fill="rgb(73,73,73)" stroke="none" d="M 10803,5572 L 10729,5841 10365,6051 10496,5572 10803,5572 Z M 10499,5562 L 10729,4720 11093,4510 10805,5562 10499,5562 Z"/>
     <path fill="rgb(74,74,74)" stroke="none" d="M 10805,5562 L 10729,5841 10365,6051 10499,5562 10805,5562 Z M 10501,5552 L 10729,4720 11093,4510 10808,5552 10501,5552 Z"/>
     <path fill="rgb(76,76,76)" stroke="none" d="M 10808,5552 L 10729,5841 10365,6051 10501,5552 10808,5552 Z M 10504,5542 L 10729,4720 11093,4510 10811,5542 10504,5542 Z"/>
     <path fill="rgb(77,77,77)" stroke="none" d="M 10811,5542 L 10729,5841 10365,6051 10504,5542 10811,5542 Z M 10507,5532 L 10729,4720 11093,4510 10814,5532 10507,5532 Z"/>
     <path fill="rgb(78,78,78)" stroke="none" d="M 10814,5532 L 10729,5841 10365,6051 10507,5532 10814,5532 Z M 10510,5522 L 10729,4720 11093,4510 10816,5522 10510,5522 Z"/>
     <path fill="rgb(80,80,80)" stroke="none" d="M 10816,5522 L 10729,5841 10365,6051 10510,5522 10816,5522 Z M 10512,5512 L 10729,4720 11093,4510 10819,5512 10512,5512 Z"/>
     <path fill="rgb(81,81,81)" stroke="none" d="M 10819,5512 L 10729,5841 10365,6051 10512,5512 10819,5512 Z M 10515,5502 L 10729,4720 11093,4510 10822,5502 10515,5502 Z"/>
     <path fill="rgb(82,82,82)" stroke="none" d="M 10822,5502 L 10729,5841 10365,6051 10515,5502 10822,5502 Z M 10518,5492 L 10729,4720 11093,4510 10824,5492 10518,5492 Z"/>
     <path fill="rgb(84,84,84)" stroke="none" d="M 10824,5492 L 10729,5841 10365,6051 10518,5492 10824,5492 Z M 10521,5482 L 10729,4720 11093,4510 10827,5482 10521,5482 Z"/>
     <path fill="rgb(85,85,85)" stroke="none" d="M 10827,5482 L 10729,5841 10365,6051 10521,5482 10827,5482 Z M 11083,4547 L 10830,5472 10523,5472 10729,4720 11083,4516 11083,4547 Z"/>
     <path fill="rgb(86,86,86)" stroke="none" d="M 10830,5472 L 10729,5841 10365,6051 10523,5472 10830,5472 Z M 11083,4516 L 11093,4510 11083,4547 11083,4516 Z M 11073,4583 L 10833,5462 10526,5462 10729,4720 11073,4522 11073,4583 Z"/>
     <path fill="rgb(88,88,88)" stroke="none" d="M 10833,5462 L 10729,5841 10365,6051 10526,5462 10833,5462 Z M 11073,4522 L 11093,4510 11073,4583 11073,4522 Z M 11063,4620 L 10835,5452 10529,5452 10729,4720 11063,4527 11063,4620 Z"/>
     <path fill="rgb(89,89,89)" stroke="none" d="M 10835,5452 L 10729,5841 10365,6051 10529,5452 10835,5452 Z M 11063,4527 L 11093,4510 11063,4620 11063,4527 Z M 11053,4656 L 10838,5442 10532,5442 10729,4720 11053,4533 11053,4656 Z"/>
     <path fill="rgb(90,90,90)" stroke="none" d="M 10838,5442 L 10729,5841 10365,6051 10532,5442 10838,5442 Z M 11053,4533 L 11093,4510 11053,4656 11053,4533 Z M 11043,4693 L 10841,5432 10534,5432 10729,4720 11043,4539 11043,4693 Z"/>
     <path fill="rgb(92,92,92)" stroke="none" d="M 10841,5432 L 10729,5841 10365,6051 10534,5432 10841,5432 Z M 11043,4539 L 11093,4510 11043,4693 11043,4539 Z M 11033,4729 L 10844,5422 10537,5422 10729,4720 11033,4545 11033,4729 Z"/>
     <path fill="rgb(93,93,93)" stroke="none" d="M 10844,5422 L 10729,5841 10365,6051 10537,5422 10844,5422 Z M 11033,4545 L 11093,4510 11033,4729 11033,4545 Z M 11023,4766 L 10846,5412 10540,5412 10729,4720 11023,4550 11023,4766 Z"/>
     <path fill="rgb(94,94,94)" stroke="none" d="M 10846,5412 L 10729,5841 10365,6051 10540,5412 10846,5412 Z M 11023,4550 L 11093,4510 11023,4766 11023,4550 Z M 11013,4803 L 10849,5402 10542,5402 10729,4720 11013,4556 11013,4803 Z"/>
     <path fill="rgb(96,96,96)" stroke="none" d="M 10849,5402 L 10729,5841 10365,6051 10542,5402 10849,5402 Z M 11013,4556 L 11093,4510 11013,4803 11013,4556 Z M 11003,4839 L 10852,5392 10545,5392 10729,4720 11003,4562 11003,4839 Z"/>
     <path fill="rgb(97,97,97)" stroke="none" d="M 10852,5392 L 10729,5841 10365,6051 10545,5392 10852,5392 Z M 11003,4562 L 11093,4510 11003,4839 11003,4562 Z M 10993,4876 L 10855,5382 10548,5382 10729,4720 10993,4568 10993,4876 Z"/>
     <path fill="rgb(98,98,98)" stroke="none" d="M 10855,5382 L 10729,5841 10365,6051 10548,5382 10855,5382 Z M 10993,4568 L 11093,4510 10993,4876 10993,4568 Z M 10983,4912 L 10857,5372 10551,5372 10729,4720 10983,4573 10983,4912 Z"/>
     <path fill="rgb(100,100,100)" stroke="none" d="M 10857,5372 L 10729,5841 10365,6051 10551,5372 10857,5372 Z M 10983,4573 L 11093,4510 10983,4912 10983,4573 Z M 10973,4580 L 10973,4949 10860,5362 10553,5362 10729,4720 10972,4580 10973,4580 Z"/>
     <path fill="rgb(101,101,101)" stroke="none" d="M 10860,5362 L 10729,5841 10365,6051 10553,5362 10860,5362 Z M 10973,4580 L 10972,4580 11093,4510 10973,4949 10973,4580 Z M 10962,4591 L 10962,4989 10863,5351 10556,5351 10729,4720 10953,4591 10962,4591 Z"/>
     <path fill="rgb(102,102,102)" stroke="none" d="M 10863,5351 L 10729,5841 10365,6051 10556,5351 10863,5351 Z M 10962,4591 L 10953,4591 11093,4510 10962,4989 10962,4591 Z M 10952,4601 L 10952,5026 10866,5341 10559,5341 10729,4720 10935,4601 10952,4601 Z"/>
     <path fill="rgb(103,103,103)" stroke="none" d="M 10866,5341 L 10729,5841 10365,6051 10559,5341 10866,5341 Z M 10952,4601 L 10935,4601 11093,4510 10952,5026 10952,4601 Z M 10942,4611 L 10942,5062 10868,5331 10562,5331 10729,4720 10918,4611 10942,4611 Z"/>
     <path fill="rgb(105,105,105)" stroke="none" d="M 10868,5331 L 10729,5841 10365,6051 10562,5331 10868,5331 Z M 10942,4611 L 10918,4611 11093,4510 10942,5062 10942,4611 Z M 10932,4621 L 10932,5099 10871,5321 10565,5321 10729,4720 10901,4621 10932,4621 Z"/>
     <path fill="rgb(106,106,106)" stroke="none" d="M 10871,5321 L 10729,5841 10365,6051 10565,5321 10871,5321 Z M 10932,4621 L 10901,4621 11093,4510 10932,5099 10932,4621 Z M 10922,4631 L 10922,5135 10874,5311 10567,5311 10729,4720 10883,4631 10922,4631 Z"/>
     <path fill="rgb(107,107,107)" stroke="none" d="M 10874,5311 L 10729,5841 10365,6051 10567,5311 10874,5311 Z M 10922,4631 L 10883,4631 11093,4510 10922,5135 10922,4631 Z M 10912,4641 L 10912,5172 10877,5301 10570,5301 10729,4720 10866,4641 10912,4641 Z"/>
     <path fill="rgb(109,109,109)" stroke="none" d="M 10877,5301 L 10729,5841 10365,6051 10570,5301 10877,5301 Z M 10912,4641 L 10866,4641 11093,4510 10912,5172 10912,4641 Z M 10902,4651 L 10902,5208 10879,5291 10573,5291 10729,4720 10849,4651 10902,4651 Z"/>
     <path fill="rgb(110,110,110)" stroke="none" d="M 10879,5291 L 10729,5841 10365,6051 10573,5291 10879,5291 Z M 10902,4651 L 10849,4651 11093,4510 10902,5208 10902,4651 Z M 10892,4661 L 10892,5245 10882,5281 10576,5281 10729,4720 10831,4661 10892,4661 Z"/>
     <path fill="rgb(111,111,111)" stroke="none" d="M 10882,5281 L 10729,5841 10365,6051 10576,5281 10882,5281 Z M 10892,4661 L 10831,4661 11093,4510 10892,5245 10892,4661 Z M 10882,4671 L 10882,5271 10578,5271 10729,4720 10814,4671 10882,4671 Z"/>
     <path fill="rgb(113,113,113)" stroke="none" d="M 10882,5271 L 10882,4671 10814,4671 11093,4510 10729,5841 10365,6051 10578,5271 10882,5271 Z M 10872,4681 L 10872,5261 10581,5261 10729,4720 10797,4681 10872,4681 Z"/>
     <path fill="rgb(114,114,114)" stroke="none" d="M 10872,5261 L 10872,4681 10797,4681 11093,4510 10729,5841 10365,6051 10581,5261 10872,5261 Z M 10862,4691 L 10862,5251 10584,5251 10729,4720 10779,4691 10862,4691 Z"/>
     <path fill="rgb(115,115,115)" stroke="none" d="M 10862,5251 L 10862,4691 10779,4691 11093,4510 10729,5841 10365,6051 10584,5251 10862,5251 Z M 10852,4701 L 10852,5241 10587,5241 10729,4720 10762,4701 10852,4701 Z"/>
     <path fill="rgb(117,117,117)" stroke="none" d="M 10852,5241 L 10852,4701 10762,4701 11093,4510 10729,5841 10365,6051 10587,5241 10852,5241 Z M 10842,4711 L 10842,5231 10589,5231 10729,4720 10745,4711 10842,4711 Z"/>
     <path fill="rgb(118,118,118)" stroke="none" d="M 10842,5231 L 10842,4711 10745,4711 11093,4510 10729,5841 10365,6051 10589,5231 10842,5231 Z M 10832,4721 L 10832,5221 10592,5221 10729,4721 10832,4721 Z"/>
     <path fill="rgb(119,119,119)" stroke="none" d="M 10832,5221 L 10832,4721 10729,4721 10729,4720 11093,4510 10729,5841 10365,6051 10592,5221 10832,5221 Z M 10822,4731 L 10822,5211 10595,5211 10726,4731 10822,4731 Z"/>
     <path fill="rgb(121,121,121)" stroke="none" d="M 10822,5211 L 10822,4731 10726,4731 10729,4720 11093,4510 10729,5841 10365,6051 10595,5211 10822,5211 Z M 10812,4741 L 10812,5201 10597,5201 10723,4741 10812,4741 Z"/>
     <path fill="rgb(122,122,122)" stroke="none" d="M 10812,5201 L 10812,4741 10723,4741 10729,4720 11093,4510 10729,5841 10365,6051 10597,5201 10812,5201 Z M 10802,4751 L 10802,5191 10600,5191 10721,4751 10802,4751 Z"/>
     <path fill="rgb(123,123,123)" stroke="none" d="M 10802,5191 L 10802,4751 10721,4751 10729,4720 11093,4510 10729,5841 10365,6051 10600,5191 10802,5191 Z M 10792,4761 L 10792,5181 10603,5181 10718,4761 10792,4761 Z"/>
     <path fill="rgb(125,125,125)" stroke="none" d="M 10792,5181 L 10792,4761 10718,4761 10729,4720 11093,4510 10729,5841 10365,6051 10603,5181 10792,5181 Z M 10782,4771 L 10782,5171 10606,5171 10715,4771 10782,4771 Z"/>
     <path fill="rgb(126,126,126)" stroke="none" d="M 10782,5171 L 10782,4771 10715,4771 10729,4720 11093,4510 10729,5841 10365,6051 10606,5171 10782,5171 Z M 10772,4781 L 10772,5161 10608,5161 10712,4781 10772,4781 Z"/>
     <path fill="rgb(127,127,127)" stroke="none" d="M 10772,5161 L 10772,4781 10712,4781 10729,4720 11093,4510 10729,5841 10365,6051 10608,5161 10772,5161 Z M 10762,4791 L 10762,5151 10611,5151 10710,4791 10762,4791 Z"/>
     <path fill="rgb(129,129,129)" stroke="none" d="M 10762,5151 L 10762,4791 10710,4791 10729,4720 11093,4510 10729,5841 10365,6051 10611,5151 10762,5151 Z M 10752,4801 L 10752,5141 10614,5141 10707,4801 10752,4801 Z"/>
     <path fill="rgb(130,130,130)" stroke="none" d="M 10752,5141 L 10752,4801 10707,4801 10729,4720 11093,4510 10729,5841 10365,6051 10614,5141 10752,5141 Z M 10742,4811 L 10742,5131 10617,5131 10704,4811 10742,4811 Z"/>
     <path fill="rgb(131,131,131)" stroke="none" d="M 10742,5131 L 10742,4811 10704,4811 10729,4720 11093,4510 10729,5841 10365,6051 10617,5131 10742,5131 Z M 10732,4821 L 10732,5121 10619,5121 10701,4821 10732,4821 Z"/>
     <path fill="rgb(133,133,133)" stroke="none" d="M 10732,5121 L 10732,4821 10701,4821 10729,4720 11093,4510 10729,5841 10365,6051 10619,5121 10732,5121 Z M 10722,4831 L 10722,5111 10622,5111 10699,4831 10722,4831 Z"/>
     <path fill="rgb(134,134,134)" stroke="none" d="M 10722,5111 L 10722,4831 10699,4831 10729,4720 11093,4510 10729,5841 10365,6051 10622,5111 10722,5111 Z M 10712,4841 L 10712,5101 10625,5101 10696,4841 10712,4841 Z"/>
     <path fill="rgb(135,135,135)" stroke="none" d="M 10712,5101 L 10712,4841 10696,4841 10729,4720 11093,4510 10729,5841 10365,6051 10625,5101 10712,5101 Z M 10702,4851 L 10702,5091 10628,5091 10693,4851 10702,4851 Z"/>
     <path fill="rgb(137,137,137)" stroke="none" d="M 10702,5091 L 10702,4851 10693,4851 10729,4720 11093,4510 10729,5841 10365,6051 10628,5091 10702,5091 Z M 10692,4861 L 10692,5081 10630,5081 10690,4861 10692,4861 Z"/>
     <path fill="rgb(138,138,138)" stroke="none" d="M 10692,5081 L 10692,4861 10690,4861 10729,4720 11093,4510 10729,5841 10365,6051 10630,5081 10692,5081 Z M 10682,5071 L 10633,5071 10682,4892 10682,5071 Z"/>
     <path fill="rgb(139,139,139)" stroke="none" d="M 10682,5071 L 10682,4892 10729,4720 11093,4510 10729,5841 10365,6051 10633,5071 10682,5071 Z M 10672,5061 L 10636,5061 10672,4928 10672,5061 Z"/>
     <path fill="rgb(141,141,141)" stroke="none" d="M 10672,5061 L 10672,4928 10729,4720 11093,4510 10729,5841 10365,6051 10636,5061 10672,5061 Z M 10662,5051 L 10638,5051 10662,4965 10662,5051 Z"/>
     <path fill="rgb(142,142,142)" stroke="none" d="M 10662,5051 L 10662,4965 10729,4720 11093,4510 10729,5841 10365,6051 10638,5051 10662,5051 Z M 10652,5041 L 10641,5041 10652,5002 10652,5041 Z"/>
     <path fill="rgb(143,143,143)" stroke="none" d="M 10652,5041 L 10652,5002 10729,4720 11093,4510 10729,5841 10365,6051 10641,5041 10652,5041 Z"/>
     <path fill="rgb(145,145,145)" stroke="none" d="M 10365,6051 L 10729,4720 11093,4510 10729,5841 10365,6051 Z"/>
     <path fill="rgb(146,146,146)" stroke="none" d="M 10365,6051 L 10729,4720 11093,4510 10729,5841 10365,6051 Z"/>
     <path fill="rgb(147,147,147)" stroke="none" d="M 10365,6051 L 10729,4720 11093,4510 10729,5841 10365,6051 Z"/>
     <path fill="rgb(149,149,149)" stroke="none" d="M 10365,6051 L 10729,4720 11093,4510 10729,5841 10365,6051 Z"/>
     <path fill="rgb(150,150,150)" stroke="none" d="M 10365,6051 L 10729,4720 11093,4510 10729,5841 10365,6051 Z"/>
     <path fill="rgb(153,153,153)" stroke="none" d="M 10365,6051 L 10729,4720 11093,4510 10729,5841 10365,6051 Z"/>
     <path fill="none" stroke="rgb(178,178,178)" id="Drawing_3_0" stroke-width="40" stroke-linejoin="round" d="M 10365,6051 L 10729,4720 11093,4510 10729,5841 10365,6051 Z"/>
    </g>
    <g>
     <defs>
      <linearGradient id="Gradient_295" gradientUnits="userSpaceOnUse" x1="10546" y1="3248" x2="10546" y2="5140">
       <stop offset="0.1" stop-color="rgb(51,51,51)"/>
       <stop offset="1" stop-color="rgb(153,153,153)"/>
      </linearGradient>
     </defs>
     <path fill="url(#Gradient_295)" stroke="rgb(178,178,178)" id="Drawing_4_0" stroke-width="40" stroke-linejoin="round" d="M 9880,5140 L 8910,4579 11213,3248 12183,3809 9880,5140 Z"/>
    </g>
    <g>
     <path fill="rgb(51,51,51)" stroke="none" d="M 9153,4510 L 10123,3949 10971,4440 10002,5000 9153,4510 Z"/>
     <path fill="none" stroke="rgb(178,178,178)" id="Drawing_5_0" stroke-width="40" stroke-linejoin="round" d="M 9153,4510 L 10123,3949 10971,4440 10002,5000 9153,4510 Z"/>
    </g>
    <g>
     <defs>
      <linearGradient id="Gradient_296" gradientUnits="userSpaceOnUse" x1="10242" y1="3912" x2="11821" y2="3914">
       <stop offset="0.1" stop-color="rgb(147,212,240)"/>
       <stop offset="1" stop-color="rgb(233,246,252)"/>
      </linearGradient>
     </defs>
     <path fill="url(#Gradient_296)" stroke="rgb(51,51,51)" id="Drawing_6_0" stroke-width="40" stroke-linejoin="round" d="M 10244,3878 L 10972,3458 11821,3949 11093,4369 10244,3878 Z"/>
    </g>
    <g>
     <path fill="rgb(51,51,51)" stroke="none" d="M 11710,4433 L 9946,5453 9880,5453 9880,5140 11710,4082 11710,4433 Z"/>
     <path fill="rgb(52,52,52)" stroke="none" d="M 9946,5453 L 9880,5491 9880,5453 9946,5453 Z M 11710,4082 L 12183,3809 12183,4159 11710,4433 11710,4082 Z M 11699,4439 L 9965,5442 9880,5442 9880,5140 11699,4089 11699,4439 Z"/>
     <path fill="rgb(53,53,53)" stroke="none" d="M 9965,5442 L 9880,5491 9880,5442 9965,5442 Z M 11699,4089 L 12183,3809 12183,4159 11699,4439 11699,4089 Z M 11688,4445 L 9984,5431 9880,5431 9880,5140 11688,4095 11688,4445 Z"/>
     <path fill="rgb(54,54,54)" stroke="none" d="M 9984,5431 L 9880,5491 9880,5431 9984,5431 Z M 11688,4095 L 12183,3809 12183,4159 11688,4445 11688,4095 Z M 11676,4452 L 10004,5419 9880,5419 9880,5140 11676,4102 11676,4452 Z"/>
     <path fill="rgb(55,55,55)" stroke="none" d="M 10004,5419 L 9880,5491 9880,5419 10004,5419 Z M 11676,4102 L 12183,3809 12183,4159 11676,4452 11676,4102 Z M 11665,4459 L 10024,5408 9880,5408 9880,5140 11665,4108 11665,4459 Z"/>
     <path fill="rgb(56,56,56)" stroke="none" d="M 10024,5408 L 9880,5491 9880,5408 10024,5408 Z M 11665,4108 L 12183,3809 12183,4159 11665,4459 11665,4108 Z M 11654,4465 L 10043,5397 9880,5397 9880,5140 11654,4115 11654,4465 Z"/>
     <path fill="rgb(57,57,57)" stroke="none" d="M 10043,5397 L 9880,5491 9880,5397 10043,5397 Z M 11654,4115 L 12183,3809 12183,4159 11654,4465 11654,4115 Z M 11642,4472 L 10063,5385 9880,5385 9880,5140 11642,4122 11642,4472 Z"/>
     <path fill="rgb(58,58,58)" stroke="none" d="M 10063,5385 L 9880,5491 9880,5385 10063,5385 Z M 11642,4122 L 12183,3809 12183,4159 11642,4472 11642,4122 Z M 11631,4478 L 10082,5374 9880,5374 9880,5140 11631,4128 11631,4478 Z"/>
     <path fill="rgb(59,59,59)" stroke="none" d="M 10082,5374 L 9880,5491 9880,5374 10082,5374 Z M 11631,4128 L 12183,3809 12183,4159 11631,4478 11631,4128 Z M 11620,4485 L 10101,5363 9880,5363 9880,5140 11620,4134 11620,4485 Z"/>
     <path fill="rgb(60,60,60)" stroke="none" d="M 10101,5363 L 9880,5491 9880,5363 10101,5363 Z M 11620,4134 L 12183,3809 12183,4159 11620,4485 11620,4134 Z M 11608,4492 L 10122,5351 9880,5351 9880,5140 11608,4141 11608,4492 Z"/>
     <path fill="rgb(61,61,61)" stroke="none" d="M 10122,5351 L 9880,5491 9880,5351 10122,5351 Z M 11608,4141 L 12183,3809 12183,4159 11608,4492 11608,4141 Z M 11597,4498 L 10141,5340 9880,5340 9880,5140 11597,4148 11597,4498 Z"/>
     <path fill="rgb(62,62,62)" stroke="none" d="M 10141,5340 L 9880,5491 9880,5340 10141,5340 Z M 11597,4148 L 12183,3809 12183,4159 11597,4498 11597,4148 Z M 11586,4504 L 10160,5329 9880,5329 9880,5140 11586,4154 11586,4504 Z"/>
     <path fill="rgb(63,63,63)" stroke="none" d="M 10160,5329 L 9880,5491 9880,5329 10160,5329 Z M 11586,4154 L 12183,3809 12183,4159 11586,4504 11586,4154 Z M 11575,4511 L 10179,5318 9880,5318 9880,5140 11575,4160 11575,4511 Z"/>
     <path fill="rgb(64,64,64)" stroke="none" d="M 10179,5318 L 9880,5491 9880,5318 10179,5318 Z M 11575,4160 L 12183,3809 12183,4159 11575,4511 11575,4160 Z M 11563,4518 L 10200,5306 9880,5306 9880,5140 11563,4167 11563,4518 Z"/>
     <path fill="rgb(65,65,65)" stroke="none" d="M 10200,5306 L 9880,5491 9880,5306 10200,5306 Z M 11563,4167 L 12183,3809 12183,4159 11563,4518 11563,4167 Z M 11552,4524 L 10219,5295 9880,5295 9880,5140 11552,4174 11552,4524 Z"/>
     <path fill="rgb(66,66,66)" stroke="none" d="M 10219,5295 L 9880,5491 9880,5295 10219,5295 Z M 11552,4174 L 12183,3809 12183,4159 11552,4524 11552,4174 Z M 11541,4530 L 10238,5284 9880,5284 9880,5140 11541,4180 11541,4530 Z"/>
     <path fill="rgb(67,67,67)" stroke="none" d="M 10238,5284 L 9880,5491 9880,5284 10238,5284 Z M 11541,4180 L 12183,3809 12183,4159 11541,4530 11541,4180 Z M 11529,4537 L 10259,5272 9880,5272 9880,5140 11529,4187 11529,4537 Z"/>
     <path fill="rgb(68,68,68)" stroke="none" d="M 10259,5272 L 9880,5491 9880,5272 10259,5272 Z M 11529,4187 L 12183,3809 12183,4159 11529,4537 11529,4187 Z M 11518,4544 L 10278,5261 9880,5261 9880,5140 11518,4193 11518,4544 Z"/>
     <path fill="rgb(69,69,69)" stroke="none" d="M 10278,5261 L 9880,5491 9880,5261 10278,5261 Z M 11518,4193 L 12183,3809 12183,4159 11518,4544 11518,4193 Z M 11507,4550 L 10297,5250 9880,5250 9880,5140 11507,4200 11507,4550 Z"/>
     <path fill="rgb(70,70,70)" stroke="none" d="M 10297,5250 L 9880,5491 9880,5250 10297,5250 Z M 11507,4200 L 12183,3809 12183,4159 11507,4550 11507,4200 Z M 11495,4557 L 10317,5238 9880,5238 9880,5140 11495,4207 11495,4557 Z"/>
     <path fill="rgb(71,71,71)" stroke="none" d="M 10317,5238 L 9880,5491 9880,5238 10317,5238 Z M 11495,4207 L 12183,3809 12183,4159 11495,4557 11495,4207 Z M 11484,4563 L 10336,5227 9880,5227 9880,5140 11484,4213 11484,4563 Z"/>
     <path fill="rgb(72,72,72)" stroke="none" d="M 10336,5227 L 9880,5491 9880,5227 10336,5227 Z M 11484,4213 L 12183,3809 12183,4159 11484,4563 11484,4213 Z M 11473,4570 L 10355,5216 9880,5216 9880,5140 11473,4219 11473,4570 Z"/>
     <path fill="rgb(73,73,73)" stroke="none" d="M 10355,5216 L 9880,5491 9880,5216 10355,5216 Z M 11473,4219 L 12183,3809 12183,4159 11473,4570 11473,4219 Z M 11462,4576 L 10374,5205 9880,5205 9880,5140 11462,4226 11462,4576 Z"/>
     <path fill="rgb(74,74,74)" stroke="none" d="M 10374,5205 L 9880,5491 9880,5205 10374,5205 Z M 11462,4226 L 12183,3809 12183,4159 11462,4576 11462,4226 Z M 11450,4583 L 10395,5193 9880,5193 9880,5140 11450,4233 11450,4583 Z"/>
     <path fill="rgb(75,75,75)" stroke="none" d="M 10395,5193 L 9880,5491 9880,5193 10395,5193 Z M 11450,4233 L 12183,3809 12183,4159 11450,4583 11450,4233 Z M 11439,4589 L 10414,5182 9880,5182 9880,5140 11439,4239 11439,4589 Z"/>
     <path fill="rgb(76,76,76)" stroke="none" d="M 10414,5182 L 9880,5491 9880,5182 10414,5182 Z M 11439,4239 L 12183,3809 12183,4159 11439,4589 11439,4239 Z M 11428,4596 L 10433,5171 9880,5171 9880,5140 11428,4245 11428,4596 Z"/>
     <path fill="rgb(77,77,77)" stroke="none" d="M 10433,5171 L 9880,5491 9880,5171 10433,5171 Z M 11428,4245 L 12183,3809 12183,4159 11428,4596 11428,4245 Z M 11416,4603 L 10454,5159 9880,5159 9880,5140 11416,4252 11416,4603 Z"/>
     <path fill="rgb(78,78,78)" stroke="none" d="M 10454,5159 L 9880,5491 9880,5159 10454,5159 Z M 11416,4252 L 12183,3809 12183,4159 11416,4603 11416,4252 Z M 11405,4609 L 10473,5148 9880,5148 9880,5140 11405,4259 11405,4609 Z"/>
     <path fill="rgb(79,79,79)" stroke="none" d="M 10473,5148 L 9880,5491 9880,5148 10473,5148 Z M 11405,4259 L 12183,3809 12183,4159 11405,4609 11405,4259 Z M 11394,4615 L 10492,5137 9885,5137 11394,4265 11394,4615 Z"/>
     <path fill="rgb(80,80,80)" stroke="none" d="M 10492,5137 L 9880,5491 9880,5140 9885,5137 10492,5137 Z M 11394,4265 L 12183,3809 12183,4159 11394,4615 11394,4265 Z M 11382,4622 L 10513,5125 9906,5125 11382,4272 11382,4622 Z"/>
     <path fill="rgb(81,81,81)" stroke="none" d="M 10513,5125 L 9880,5491 9880,5140 9906,5125 10513,5125 Z M 11382,4272 L 12183,3809 12183,4159 11382,4622 11382,4272 Z M 11371,4629 L 10532,5114 9925,5114 11371,4278 11371,4629 Z"/>
     <path fill="rgb(82,82,82)" stroke="none" d="M 10532,5114 L 9880,5491 9880,5140 9925,5114 10532,5114 Z M 11371,4278 L 12183,3809 12183,4159 11371,4629 11371,4278 Z M 11360,4635 L 10551,5103 9944,5103 11360,4285 11360,4635 Z"/>
     <path fill="rgb(83,83,83)" stroke="none" d="M 10551,5103 L 9880,5491 9880,5140 9944,5103 10551,5103 Z M 11360,4285 L 12183,3809 12183,4159 11360,4635 11360,4285 Z M 11348,4642 L 10572,5091 9965,5091 11348,4292 11348,4642 Z"/>
     <path fill="rgb(84,84,84)" stroke="none" d="M 10572,5091 L 9880,5491 9880,5140 9965,5091 10572,5091 Z M 11348,4292 L 12183,3809 12183,4159 11348,4642 11348,4292 Z M 11337,4648 L 10591,5080 9984,5080 11337,4298 11337,4648 Z"/>
     <path fill="rgb(85,85,85)" stroke="none" d="M 10591,5080 L 9880,5491 9880,5140 9984,5080 10591,5080 Z M 11337,4298 L 12183,3809 12183,4159 11337,4648 11337,4298 Z M 11326,4655 L 10610,5069 10003,5069 11326,4304 11326,4655 Z"/>
     <path fill="rgb(86,86,86)" stroke="none" d="M 10610,5069 L 9880,5491 9880,5140 10003,5069 10610,5069 Z M 11326,4304 L 12183,3809 12183,4159 11326,4655 11326,4304 Z M 11315,4661 L 10629,5058 10022,5058 11315,4311 11315,4661 Z"/>
     <path fill="rgb(87,87,87)" stroke="none" d="M 10629,5058 L 9880,5491 9880,5140 10022,5058 10629,5058 Z M 11315,4311 L 12183,3809 12183,4159 11315,4661 11315,4311 Z M 11303,4668 L 10649,5046 10043,5046 11303,4318 11303,4668 Z"/>
     <path fill="rgb(88,88,88)" stroke="none" d="M 10649,5046 L 9880,5491 9880,5140 10043,5046 10649,5046 Z M 11303,4318 L 12183,3809 12183,4159 11303,4668 11303,4318 Z M 11292,4674 L 10668,5035 10062,5035 11292,4324 11292,4674 Z"/>
     <path fill="rgb(89,89,89)" stroke="none" d="M 10668,5035 L 9880,5491 9880,5140 10062,5035 10668,5035 Z M 11292,4324 L 12183,3809 12183,4159 11292,4674 11292,4324 Z M 11281,4681 L 10687,5024 10081,5024 11281,4330 11281,4681 Z"/>
     <path fill="rgb(90,90,90)" stroke="none" d="M 10687,5024 L 9880,5491 9880,5140 10081,5024 10687,5024 Z M 11281,4330 L 12183,3809 12183,4159 11281,4681 11281,4330 Z M 11269,4688 L 10708,5012 10101,5012 11269,4337 11269,4688 Z"/>
     <path fill="rgb(91,91,91)" stroke="none" d="M 10708,5012 L 9880,5491 9880,5140 10101,5012 10708,5012 Z M 11269,4337 L 12183,3809 12183,4159 11269,4688 11269,4337 Z M 11258,4694 L 10727,5001 10121,5001 11258,4344 11258,4694 Z"/>
     <path fill="rgb(92,92,92)" stroke="none" d="M 10727,5001 L 9880,5491 9880,5140 10121,5001 10727,5001 Z M 11258,4344 L 12183,3809 12183,4159 11258,4694 11258,4344 Z M 11247,4700 L 10746,4990 10140,4990 11247,4350 11247,4700 Z"/>
     <path fill="rgb(93,93,93)" stroke="none" d="M 10746,4990 L 9880,5491 9880,5140 10140,4990 10746,4990 Z M 11247,4350 L 12183,3809 12183,4159 11247,4700 11247,4350 Z M 11235,4707 L 10767,4978 10160,4978 11235,4357 11235,4707 Z"/>
     <path fill="rgb(94,94,94)" stroke="none" d="M 10767,4978 L 9880,5491 9880,5140 10160,4978 10767,4978 Z M 11235,4357 L 12183,3809 12183,4159 11235,4707 11235,4357 Z M 11224,4714 L 10786,4967 10179,4967 11224,4363 11224,4714 Z"/>
     <path fill="rgb(95,95,95)" stroke="none" d="M 10786,4967 L 9880,5491 9880,5140 10179,4967 10786,4967 Z M 11224,4363 L 12183,3809 12183,4159 11224,4714 11224,4363 Z M 11213,4720 L 10805,4956 10198,4956 11213,4370 11213,4720 Z"/>
     <path fill="rgb(96,96,96)" stroke="none" d="M 10805,4956 L 9880,5491 9880,5140 10198,4956 10805,4956 Z M 11213,4370 L 12183,3809 12183,4159 11213,4720 11213,4370 Z M 11202,4726 L 10824,4945 10217,4945 11202,4376 11202,4726 Z"/>
     <path fill="rgb(97,97,97)" stroke="none" d="M 10824,4945 L 9880,5491 9880,5140 10217,4945 10824,4945 Z M 11202,4376 L 12183,3809 12183,4159 11202,4726 11202,4376 Z M 11190,4733 L 10845,4933 10238,4933 11190,4383 11190,4733 Z"/>
     <path fill="rgb(98,98,98)" stroke="none" d="M 10845,4933 L 9880,5491 9880,5140 10238,4933 10845,4933 Z M 11190,4383 L 12183,3809 12183,4159 11190,4733 11190,4383 Z M 11179,4740 L 10864,4922 10257,4922 11179,4389 11179,4740 Z"/>
     <path fill="rgb(99,99,99)" stroke="none" d="M 10864,4922 L 9880,5491 9880,5140 10257,4922 10864,4922 Z M 11179,4389 L 12183,3809 12183,4159 11179,4740 11179,4389 Z M 11168,4746 L 10883,4911 10276,4911 11168,4396 11168,4746 Z"/>
     <path fill="rgb(100,100,100)" stroke="none" d="M 10883,4911 L 9880,5491 9880,5140 10276,4911 10883,4911 Z M 11168,4396 L 12183,3809 12183,4159 11168,4746 11168,4396 Z M 11156,4753 L 10904,4899 10297,4899 11156,4403 11156,4753 Z"/>
     <path fill="rgb(101,101,101)" stroke="none" d="M 10904,4899 L 9880,5491 9880,5140 10297,4899 10904,4899 Z M 11156,4403 L 12183,3809 12183,4159 11156,4753 11156,4403 Z M 11145,4759 L 10923,4888 10316,4888 11145,4409 11145,4759 Z"/>
     <path fill="rgb(102,102,102)" stroke="none" d="M 10923,4888 L 9880,5491 9880,5140 10316,4888 10923,4888 Z M 11145,4409 L 12183,3809 12183,4159 11145,4759 11145,4409 Z M 11134,4766 L 10942,4877 10335,4877 11134,4415 11134,4766 Z"/>
     <path fill="rgb(103,103,103)" stroke="none" d="M 10942,4877 L 9880,5491 9880,5140 10335,4877 10942,4877 Z M 11134,4415 L 12183,3809 12183,4159 11134,4766 11134,4415 Z M 11122,4773 L 10962,4865 10356,4865 11122,4422 11122,4773 Z"/>
     <path fill="rgb(104,104,104)" stroke="none" d="M 10962,4865 L 9880,5491 9880,5140 10356,4865 10962,4865 Z M 11122,4422 L 12183,3809 12183,4159 11122,4773 11122,4422 Z M 11111,4779 L 10981,4854 10375,4854 11111,4429 11111,4779 Z"/>
     <path fill="rgb(105,105,105)" stroke="none" d="M 10981,4854 L 9880,5491 9880,5140 10375,4854 10981,4854 Z M 11111,4429 L 12183,3809 12183,4159 11111,4779 11111,4429 Z M 11100,4785 L 11000,4843 10394,4843 11100,4435 11100,4785 Z"/>
     <path fill="rgb(106,106,106)" stroke="none" d="M 11000,4843 L 9880,5491 9880,5140 10394,4843 11000,4843 Z M 11100,4435 L 12183,3809 12183,4159 11100,4785 11100,4435 Z M 11088,4792 L 11021,4831 10415,4831 11088,4442 11088,4792 Z"/>
     <path fill="rgb(107,107,107)" stroke="none" d="M 11021,4831 L 9880,5491 9880,5140 10415,4831 11021,4831 Z M 11088,4442 L 12183,3809 12183,4159 11088,4792 11088,4442 Z M 11077,4799 L 11040,4820 10434,4820 11077,4448 11077,4799 Z"/>
     <path fill="rgb(108,108,108)" stroke="none" d="M 11040,4820 L 9880,5491 9880,5140 10434,4820 11040,4820 Z M 11077,4448 L 12183,3809 12183,4159 11077,4799 11077,4448 Z M 11066,4805 L 11059,4809 10453,4809 11066,4455 11066,4805 Z"/>
     <path fill="rgb(109,109,109)" stroke="none" d="M 11059,4809 L 9880,5491 9880,5140 10453,4809 11059,4809 Z M 11066,4455 L 12183,3809 12183,4159 11066,4805 11066,4455 Z M 11055,4798 L 10472,4798 11055,4461 11055,4798 Z"/>
     <path fill="rgb(110,110,110)" stroke="none" d="M 11055,4798 L 11055,4461 12183,3809 12183,4159 9880,5491 9880,5140 10472,4798 11055,4798 Z M 11043,4786 L 10493,4786 11043,4468 11043,4786 Z"/>
     <path fill="rgb(111,111,111)" stroke="none" d="M 11043,4786 L 11043,4468 12183,3809 12183,4159 9880,5491 9880,5140 10493,4786 11043,4786 Z M 11032,4775 L 10512,4775 11032,4474 11032,4775 Z"/>
     <path fill="rgb(112,112,112)" stroke="none" d="M 11032,4775 L 11032,4474 12183,3809 12183,4159 9880,5491 9880,5140 10512,4775 11032,4775 Z M 11021,4764 L 10531,4764 11021,4481 11021,4764 Z"/>
     <path fill="rgb(113,113,113)" stroke="none" d="M 11021,4764 L 11021,4481 12183,3809 12183,4159 9880,5491 9880,5140 10531,4764 11021,4764 Z M 11009,4752 L 10551,4752 11009,4488 11009,4752 Z"/>
     <path fill="rgb(114,114,114)" stroke="none" d="M 11009,4752 L 11009,4488 12183,3809 12183,4159 9880,5491 9880,5140 10551,4752 11009,4752 Z M 10998,4741 L 10570,4741 10998,4494 10998,4741 Z"/>
     <path fill="rgb(115,115,115)" stroke="none" d="M 10998,4741 L 10998,4494 12183,3809 12183,4159 9880,5491 9880,5140 10570,4741 10998,4741 Z M 10987,4730 L 10589,4730 10987,4500 10987,4730 Z"/>
     <path fill="rgb(116,116,116)" stroke="none" d="M 10987,4730 L 10987,4500 12183,3809 12183,4159 9880,5491 9880,5140 10589,4730 10987,4730 Z M 10975,4718 L 10610,4718 10975,4507 10975,4718 Z"/>
     <path fill="rgb(117,117,117)" stroke="none" d="M 10975,4718 L 10975,4507 12183,3809 12183,4159 9880,5491 9880,5140 10610,4718 10975,4718 Z M 10964,4707 L 10629,4707 10964,4514 10964,4707 Z"/>
     <path fill="rgb(118,118,118)" stroke="none" d="M 10964,4707 L 10964,4514 12183,3809 12183,4159 9880,5491 9880,5140 10629,4707 10964,4707 Z M 10953,4696 L 10648,4696 10953,4520 10953,4696 Z"/>
     <path fill="rgb(119,119,119)" stroke="none" d="M 10953,4696 L 10953,4520 12183,3809 12183,4159 9880,5491 9880,5140 10648,4696 10953,4696 Z M 10942,4685 L 10667,4685 10942,4526 10942,4685 Z"/>
     <path fill="rgb(120,120,120)" stroke="none" d="M 10942,4685 L 10942,4526 12183,3809 12183,4159 9880,5491 9880,5140 10667,4685 10942,4685 Z M 10930,4673 L 10688,4673 10930,4533 10930,4673 Z"/>
     <path fill="rgb(121,121,121)" stroke="none" d="M 10930,4673 L 10930,4533 12183,3809 12183,4159 9880,5491 9880,5140 10688,4673 10930,4673 Z M 10919,4662 L 10707,4662 10919,4540 10919,4662 Z"/>
     <path fill="rgb(122,122,122)" stroke="none" d="M 10919,4662 L 10919,4540 12183,3809 12183,4159 9880,5491 9880,5140 10707,4662 10919,4662 Z M 10908,4651 L 10726,4651 10908,4546 10908,4651 Z"/>
     <path fill="rgb(123,123,123)" stroke="none" d="M 10908,4651 L 10908,4546 12183,3809 12183,4159 9880,5491 9880,5140 10726,4651 10908,4651 Z M 10896,4639 L 10747,4639 10896,4553 10896,4639 Z"/>
     <path fill="rgb(124,124,124)" stroke="none" d="M 10896,4639 L 10896,4553 12183,3809 12183,4159 9880,5491 9880,5140 10747,4639 10896,4639 Z M 10885,4628 L 10766,4628 10885,4559 10885,4628 Z"/>
     <path fill="rgb(125,125,125)" stroke="none" d="M 10885,4628 L 10885,4559 12183,3809 12183,4159 9880,5491 9880,5140 10766,4628 10885,4628 Z M 10874,4617 L 10785,4617 10874,4566 10874,4617 Z"/>
     <path fill="rgb(126,126,126)" stroke="none" d="M 10874,4617 L 10874,4566 12183,3809 12183,4159 9880,5491 9880,5140 10785,4617 10874,4617 Z M 10862,4605 L 10806,4605 10862,4572 10862,4605 Z"/>
     <path fill="rgb(127,127,127)" stroke="none" d="M 10862,4605 L 10862,4572 12183,3809 12183,4159 9880,5491 9880,5140 10806,4605 10862,4605 Z M 10851,4594 L 10825,4594 10851,4579 10851,4594 Z"/>
     <path fill="rgb(128,128,128)" stroke="none" d="M 10851,4594 L 10851,4579 12183,3809 12183,4159 9880,5491 9880,5140 10825,4594 10851,4594 Z"/>
     <path fill="rgb(129,129,129)" stroke="none" d="M 9880,5491 L 9880,5140 12183,3809 12183,4159 9880,5491 Z"/>
     <path fill="rgb(130,130,130)" stroke="none" d="M 9880,5491 L 9880,5140 12183,3809 12183,4159 9880,5491 Z"/>
     <path fill="rgb(131,131,131)" stroke="none" d="M 9880,5491 L 9880,5140 12183,3809 12183,4159 9880,5491 Z"/>
     <path fill="rgb(132,132,132)" stroke="none" d="M 9880,5491 L 9880,5140 12183,3809 12183,4159 9880,5491 Z"/>
     <path fill="rgb(133,133,133)" stroke="none" d="M 9880,5491 L 9880,5140 12183,3809 12183,4159 9880,5491 Z"/>
     <path fill="rgb(134,134,134)" stroke="none" d="M 9880,5491 L 9880,5140 12183,3809 12183,4159 9880,5491 Z"/>
     <path fill="rgb(135,135,135)" stroke="none" d="M 9880,5491 L 9880,5140 12183,3809 12183,4159 9880,5491 Z"/>
     <path fill="rgb(136,136,136)" stroke="none" d="M 9880,5491 L 9880,5140 12183,3809 12183,4159 9880,5491 Z"/>
     <path fill="rgb(137,137,137)" stroke="none" d="M 9880,5491 L 9880,5140 12183,3809 12183,4159 9880,5491 Z"/>
     <path fill="rgb(138,138,138)" stroke="none" d="M 9880,5491 L 9880,5140 12183,3809 12183,4159 9880,5491 Z"/>
     <path fill="rgb(139,139,139)" stroke="none" d="M 9880,5491 L 9880,5140 12183,3809 12183,4159 9880,5491 Z"/>
     <path fill="rgb(140,140,140)" stroke="none" d="M 9880,5491 L 9880,5140 12183,3809 12183,4159 9880,5491 Z"/>
     <path fill="rgb(141,141,141)" stroke="none" d="M 9880,5491 L 9880,5140 12183,3809 12183,4159 9880,5491 Z"/>
     <path fill="rgb(142,142,142)" stroke="none" d="M 9880,5491 L 9880,5140 12183,3809 12183,4159 9880,5491 Z"/>
     <path fill="rgb(143,143,143)" stroke="none" d="M 9880,5491 L 9880,5140 12183,3809 12183,4159 9880,5491 Z"/>
     <path fill="rgb(144,144,144)" stroke="none" d="M 9880,5491 L 9880,5140 12183,3809 12183,4159 9880,5491 Z"/>
     <path fill="rgb(145,145,145)" stroke="none" d="M 9880,5491 L 9880,5140 12183,3809 12183,4159 9880,5491 Z"/>
     <path fill="rgb(146,146,146)" stroke="none" d="M 9880,5491 L 9880,5140 12183,3809 12183,4159 9880,5491 Z"/>
     <path fill="rgb(147,147,147)" stroke="none" d="M 9880,5491 L 9880,5140 12183,3809 12183,4159 9880,5491 Z"/>
     <path fill="rgb(148,148,148)" stroke="none" d="M 9880,5491 L 9880,5140 12183,3809 12183,4159 9880,5491 Z"/>
     <path fill="rgb(149,149,149)" stroke="none" d="M 9880,5491 L 9880,5140 12183,3809 12183,4159 9880,5491 Z"/>
     <path fill="rgb(150,150,150)" stroke="none" d="M 9880,5491 L 9880,5140 12183,3809 12183,4159 9880,5491 Z"/>
     <path fill="rgb(151,151,151)" stroke="none" d="M 9880,5491 L 9880,5140 12183,3809 12183,4159 9880,5491 Z"/>
     <path fill="rgb(153,153,153)" stroke="none" d="M 9880,5491 L 9880,5140 12183,3809 12183,4159 9880,5491 Z"/>
     <path fill="none" stroke="rgb(178,178,178)" id="Drawing_7_0" stroke-width="40" stroke-linejoin="round" d="M 9880,5491 L 9880,5140 12183,3809 12183,4159 9880,5491 Z"/>
    </g>
    <g>
     <path fill="none" stroke="rgb(178,178,178)" id="Drawing_8_0" stroke-width="40" stroke-linejoin="round" d="M 9880,4090 L 10729,4581"/>
    </g>
    <g>
     <path fill="none" stroke="rgb(178,178,178)" id="Drawing_9_0" stroke-width="40" stroke-linejoin="round" d="M 10001,4860 L 10850,4369"/>
    </g>
    <g>
     <path fill="none" stroke="rgb(178,178,178)" id="Drawing_10_0" stroke-width="40" stroke-linejoin="round" d="M 9274,4580 L 10244,4019"/>
    </g>
    <g>
     <path fill="none" stroke="rgb(178,178,178)" id="Drawing_11_0" stroke-width="40" stroke-linejoin="round" d="M 9395,4651 L 10365,4090"/>
    </g>
    <g>
     <path fill="none" stroke="rgb(178,178,178)" id="Drawing_12_0" stroke-width="40" stroke-linejoin="round" d="M 9516,4720 L 10365,4229"/>
    </g>
    <g>
     <defs>
      <linearGradient id="Gradient_297" gradientUnits="userSpaceOnUse" x1="8909" y1="5033" x2="9881" y2="5035">
       <stop offset="0.1" stop-color="rgb(51,51,51)"/>
       <stop offset="1" stop-color="rgb(153,153,153)"/>
      </linearGradient>
     </defs>
     <path fill="url(#Gradient_297)" stroke="rgb(178,178,178)" id="Drawing_13_0" stroke-width="40" stroke-linejoin="round" d="M 8910,4929 L 8910,4579 9880,5140 9880,5490 8910,4929 Z"/>
    </g>
    <g>
     <path fill="none" stroke="rgb(0,0,0)" id="Drawing_14_0" stroke-width="40" stroke-linejoin="round" d="M 8910,4579 L 11213,3248 12183,3809 12183,4159 10971,4860 10728,5841 10365,6051 10001,5841 10123,5351 9880,5490 8910,4930 8910,4579 Z"/>
    </g>
    <g>
     <path fill="none" stroke="rgb(178,178,178)" id="Drawing_15_0" stroke-width="40" stroke-linejoin="round" d="M 9759,4861 L 10729,4300"/>
    </g>
    <g>
     <path fill="none" stroke="rgb(178,178,178)" id="Drawing_16_0" stroke-width="40" stroke-linejoin="round" d="M 9638,4791 L 10487,4300"/>
    </g>
    <g>
     <path fill="none" stroke="rgb(178,178,178)" id="Drawing_17_0" stroke-width="40" stroke-linejoin="round" d="M 10001,4019 L 10850,4510"/>
    </g>
    <g>
     <path fill="none" stroke="rgb(178,178,178)" id="Drawing_18_0" stroke-width="40" stroke-linejoin="round" d="M 9759,4159 L 10608,4650"/>
    </g>
    <g>
     <path fill="none" stroke="rgb(178,178,178)" id="Drawing_19_0" stroke-width="40" stroke-linejoin="round" d="M 9638,4229 L 10487,4720"/>
    </g>
    <g>
     <path fill="none" stroke="rgb(178,178,178)" id="Drawing_20_0" stroke-width="40" stroke-linejoin="round" d="M 9516,4300 L 10365,4791"/>
    </g>
    <g>
     <path fill="none" stroke="rgb(178,178,178)" id="Drawing_21_0" stroke-width="40" stroke-linejoin="round" d="M 9274,4440 L 10123,4931"/>
    </g>
    <g>
     <path fill="none" stroke="rgb(178,178,178)" id="Drawing_22_0" stroke-width="40" stroke-linejoin="round" d="M 9395,4369 L 10244,4860"/>
    </g>
   </g>
  </g>
 </g>
</svg>