<?xml version="1.0" encoding="UTF-8"?>

<svg version="1.2" baseProfile="tiny" width="33.13mm" height="28.43mm" viewBox="3598 3114 3313 2843" preserveAspectRatio="xMidYMid" fill-rule="evenodd" stroke-width="28.222" stroke-linejoin="round" xmlns="http://www.w3.org/2000/svg" xmlns:xlink="http://www.w3.org/1999/xlink" xml:space="preserve">
 <g visibility="visible" id="Slide_1">
  <g id="DrawingGroup_1">
   <g>
    <path fill="rgb(221,221,221)" stroke="none" d="M 5077,5937 C 5411,5937 6406,5587 6527,5167 6648,4746 6254,4606 5922,4606 5922,4816 4957,4396 5077,5937 Z"/>
    <path fill="none" stroke="rgb(221,221,221)" id="Drawing_1_0" stroke-width="40" stroke-linejoin="round" d="M 5077,5937 C 5411,5937 6406,5587 6527,5167 6648,4746 6254,4606 5922,4606 5922,4816 4957,4396 5077,5937 Z"/>
   </g>
   <g id="DrawingGroup_2">
    <g>
     <defs>
      <linearGradient id="Gradient_290" gradientUnits="userSpaceOnUse" x1="4706" y1="4990" x2="5559" y2="4992">
       <stop offset="0.1" stop-color="rgb(179,179,179)"/>
       <stop offset="1" stop-color="rgb(229,229,229)"/>
      </linearGradient>
     </defs>
     <path fill="url(#Gradient_290)" stroke="rgb(255,255,255)" id="Drawing_2_0" stroke-width="40" stroke-linejoin="round" d="M 4709,5727 L 5194,4045 5558,4255 5073,5937 4709,5727 Z"/>
    </g>
    <g>
     <path fill="rgb(179,179,179)" stroke="none" d="M 5162,5613 L 5437,4606 5801,4396 5468,5613 5162,5613 Z"/>
     <path fill="rgb(180,180,180)" stroke="none" d="M 5468,5613 L 5437,5727 5073,5937 5162,5613 5468,5613 Z M 5166,5598 L 5437,4606 5801,4396 5472,5598 5166,5598 Z"/>
     <path fill="rgb(181,181,181)" stroke="none" d="M 5472,5598 L 5437,5727 5073,5937 5166,5598 5472,5598 Z M 5170,5582 L 5437,4606 5801,4396 5477,5582 5170,5582 Z"/>
     <path fill="rgb(182,182,182)" stroke="none" d="M 5477,5582 L 5437,5727 5073,5937 5170,5582 5477,5582 Z M 5174,5567 L 5437,4606 5801,4396 5481,5567 5174,5567 Z"/>
     <path fill="rgb(183,183,183)" stroke="none" d="M 5481,5567 L 5437,5727 5073,5937 5174,5567 5481,5567 Z M 5179,5551 L 5437,4606 5801,4396 5485,5551 5179,5551 Z"/>
     <path fill="rgb(184,184,184)" stroke="none" d="M 5485,5551 L 5437,5727 5073,5937 5179,5551 5485,5551 Z M 5183,5536 L 5437,4606 5801,4396 5489,5536 5183,5536 Z"/>
     <path fill="rgb(185,185,185)" stroke="none" d="M 5489,5536 L 5437,5727 5073,5937 5183,5536 5489,5536 Z M 5187,5520 L 5437,4606 5801,4396 5494,5520 5187,5520 Z"/>
     <path fill="rgb(186,186,186)" stroke="none" d="M 5494,5520 L 5437,5727 5073,5937 5187,5520 5494,5520 Z M 5191,5505 L 5437,4606 5801,4396 5498,5505 5191,5505 Z"/>
     <path fill="rgb(187,187,187)" stroke="none" d="M 5498,5505 L 5437,5727 5073,5937 5191,5505 5498,5505 Z M 5195,5490 L 5437,4606 5801,4396 5502,5490 5195,5490 Z"/>
     <path fill="rgb(188,188,188)" stroke="none" d="M 5502,5490 L 5437,5727 5073,5937 5195,5490 5502,5490 Z M 5200,5474 L 5437,4606 5801,4396 5506,5474 5200,5474 Z"/>
     <path fill="rgb(189,189,189)" stroke="none" d="M 5506,5474 L 5437,5727 5073,5937 5200,5474 5506,5474 Z M 5204,5459 L 5437,4606 5801,4396 5510,5459 5204,5459 Z"/>
     <path fill="rgb(190,190,190)" stroke="none" d="M 5510,5459 L 5437,5727 5073,5937 5204,5459 5510,5459 Z M 5208,5443 L 5437,4606 5801,4396 5515,5443 5208,5443 Z"/>
     <path fill="rgb(191,191,191)" stroke="none" d="M 5515,5443 L 5437,5727 5073,5937 5208,5443 5515,5443 Z M 5212,5428 L 5437,4606 5801,4396 5519,5428 5212,5428 Z"/>
     <path fill="rgb(192,192,192)" stroke="none" d="M 5519,5428 L 5437,5727 5073,5937 5212,5428 5519,5428 Z M 5217,5412 L 5437,4606 5801,4396 5523,5412 5217,5412 Z"/>
     <path fill="rgb(193,193,193)" stroke="none" d="M 5523,5412 L 5437,5727 5073,5937 5217,5412 5523,5412 Z M 5221,5397 L 5437,4606 5801,4396 5527,5397 5221,5397 Z"/>
     <path fill="rgb(194,194,194)" stroke="none" d="M 5527,5397 L 5437,5727 5073,5937 5221,5397 5527,5397 Z M 5225,5381 L 5437,4606 5801,4396 5532,5381 5225,5381 Z"/>
     <path fill="rgb(195,195,195)" stroke="none" d="M 5532,5381 L 5437,5727 5073,5937 5225,5381 5532,5381 Z M 5799,4403 L 5536,5366 5229,5366 5437,4606 5799,4397 5799,4403 Z"/>
     <path fill="rgb(196,196,196)" stroke="none" d="M 5536,5366 L 5437,5727 5073,5937 5229,5366 5536,5366 Z M 5799,4397 L 5801,4396 5799,4403 5799,4397 Z M 5784,4458 L 5540,5351 5233,5351 5437,4606 5784,4406 5784,4458 Z"/>
     <path fill="rgb(197,197,197)" stroke="none" d="M 5540,5351 L 5437,5727 5073,5937 5233,5351 5540,5351 Z M 5784,4406 L 5801,4396 5784,4458 5784,4406 Z M 5768,4517 L 5544,5335 5238,5335 5437,4606 5768,4415 5768,4517 Z"/>
     <path fill="rgb(198,198,198)" stroke="none" d="M 5544,5335 L 5437,5727 5073,5937 5238,5335 5544,5335 Z M 5768,4415 L 5801,4396 5768,4517 5768,4415 Z M 5753,4572 L 5548,5320 5242,5320 5437,4606 5753,4424 5753,4572 Z"/>
     <path fill="rgb(199,199,199)" stroke="none" d="M 5548,5320 L 5437,5727 5073,5937 5242,5320 5548,5320 Z M 5753,4424 L 5801,4396 5753,4572 5753,4424 Z M 5737,4630 L 5553,5304 5246,5304 5437,4606 5737,4433 5737,4630 Z"/>
     <path fill="rgb(200,200,200)" stroke="none" d="M 5553,5304 L 5437,5727 5073,5937 5246,5304 5553,5304 Z M 5737,4433 L 5801,4396 5737,4630 5737,4433 Z M 5722,4685 L 5557,5289 5250,5289 5437,4606 5722,4442 5722,4685 Z"/>
     <path fill="rgb(201,201,201)" stroke="none" d="M 5557,5289 L 5437,5727 5073,5937 5250,5289 5557,5289 Z M 5722,4442 L 5801,4396 5722,4685 5722,4442 Z M 5706,4743 L 5561,5273 5255,5273 5437,4606 5706,4451 5706,4743 Z"/>
     <path fill="rgb(202,202,202)" stroke="none" d="M 5561,5273 L 5437,5727 5073,5937 5255,5273 5561,5273 Z M 5706,4451 L 5801,4396 5706,4743 5706,4451 Z M 5691,4798 L 5565,5258 5259,5258 5437,4606 5691,4459 5691,4798 Z"/>
     <path fill="rgb(203,203,203)" stroke="none" d="M 5565,5258 L 5437,5727 5073,5937 5259,5258 5565,5258 Z M 5691,4459 L 5801,4396 5691,4798 5691,4459 Z M 5675,4471 L 5675,4857 5570,5242 5263,5242 5437,4606 5671,4471 5675,4471 Z"/>
     <path fill="rgb(204,204,204)" stroke="none" d="M 5570,5242 L 5437,5727 5073,5937 5263,5242 5570,5242 Z M 5675,4471 L 5671,4471 5801,4396 5675,4857 5675,4471 Z M 5660,4487 L 5660,4912 5574,5227 5267,5227 5437,4606 5643,4487 5660,4487 Z"/>
     <path fill="rgb(205,205,205)" stroke="none" d="M 5574,5227 L 5437,5727 5073,5937 5267,5227 5574,5227 Z M 5660,4487 L 5643,4487 5801,4396 5660,4912 5660,4487 Z M 5645,4502 L 5645,4966 5578,5212 5271,5212 5437,4606 5617,4502 5645,4502 Z"/>
     <path fill="rgb(206,206,206)" stroke="none" d="M 5578,5212 L 5437,5727 5073,5937 5271,5212 5578,5212 Z M 5645,4502 L 5617,4502 5801,4396 5645,4966 5645,4502 Z M 5629,4518 L 5629,5025 5582,5196 5276,5196 5437,4606 5590,4518 5629,4518 Z"/>
     <path fill="rgb(207,207,207)" stroke="none" d="M 5582,5196 L 5437,5727 5073,5937 5276,5196 5582,5196 Z M 5629,4518 L 5590,4518 5801,4396 5629,5025 5629,4518 Z M 5614,4533 L 5614,5080 5586,5181 5280,5181 5437,4606 5564,4533 5614,4533 Z"/>
     <path fill="rgb(208,208,208)" stroke="none" d="M 5586,5181 L 5437,5727 5073,5937 5280,5181 5586,5181 Z M 5614,4533 L 5564,4533 5801,4396 5614,5080 5614,4533 Z M 5598,4549 L 5598,5138 5591,5165 5284,5165 5437,4606 5536,4549 5598,4549 Z"/>
     <path fill="rgb(209,209,209)" stroke="none" d="M 5591,5165 L 5437,5727 5073,5937 5284,5165 5591,5165 Z M 5598,4549 L 5536,4549 5801,4396 5598,5138 5598,4549 Z M 5583,4564 L 5583,5150 5288,5150 5437,4606 5510,4564 5583,4564 Z"/>
     <path fill="rgb(210,210,210)" stroke="none" d="M 5583,5150 L 5583,4564 5510,4564 5801,4396 5437,5727 5073,5937 5288,5150 5583,5150 Z M 5567,4580 L 5567,5134 5293,5134 5437,4606 5482,4580 5567,4580 Z"/>
     <path fill="rgb(211,211,211)" stroke="none" d="M 5567,5134 L 5567,4580 5482,4580 5801,4396 5437,5727 5073,5937 5293,5134 5567,5134 Z M 5552,4595 L 5552,5119 5297,5119 5437,4606 5456,4595 5552,4595 Z"/>
     <path fill="rgb(212,212,212)" stroke="none" d="M 5552,5119 L 5552,4595 5456,4595 5801,4396 5437,5727 5073,5937 5297,5119 5552,5119 Z M 5537,4610 L 5537,5104 5301,5104 5436,4610 5537,4610 Z"/>
     <path fill="rgb(213,213,213)" stroke="none" d="M 5537,5104 L 5537,4610 5436,4610 5437,4606 5801,4396 5437,5727 5073,5937 5301,5104 5537,5104 Z M 5521,4626 L 5521,5088 5305,5088 5432,4626 5521,4626 Z"/>
     <path fill="rgb(214,214,214)" stroke="none" d="M 5521,5088 L 5521,4626 5432,4626 5437,4606 5801,4396 5437,5727 5073,5937 5305,5088 5521,5088 Z M 5506,4641 L 5506,5073 5309,5073 5427,4641 5506,4641 Z"/>
     <path fill="rgb(215,215,215)" stroke="none" d="M 5506,5073 L 5506,4641 5427,4641 5437,4606 5801,4396 5437,5727 5073,5937 5309,5073 5506,5073 Z M 5490,4657 L 5490,5057 5314,5057 5423,4657 5490,4657 Z"/>
     <path fill="rgb(216,216,216)" stroke="none" d="M 5490,5057 L 5490,4657 5423,4657 5437,4606 5801,4396 5437,5727 5073,5937 5314,5057 5490,5057 Z M 5475,4672 L 5475,5042 5318,5042 5419,4672 5475,4672 Z"/>
     <path fill="rgb(217,217,217)" stroke="none" d="M 5475,5042 L 5475,4672 5419,4672 5437,4606 5801,4396 5437,5727 5073,5937 5318,5042 5475,5042 Z M 5459,4688 L 5459,5026 5322,5026 5415,4688 5459,4688 Z"/>
     <path fill="rgb(218,218,218)" stroke="none" d="M 5459,5026 L 5459,4688 5415,4688 5437,4606 5801,4396 5437,5727 5073,5937 5322,5026 5459,5026 Z M 5444,4703 L 5444,5011 5326,5011 5410,4703 5444,4703 Z"/>
     <path fill="rgb(219,219,219)" stroke="none" d="M 5444,5011 L 5444,4703 5410,4703 5437,4606 5801,4396 5437,5727 5073,5937 5326,5011 5444,5011 Z M 5428,4719 L 5428,4995 5331,4995 5406,4719 5428,4719 Z"/>
     <path fill="rgb(220,220,220)" stroke="none" d="M 5428,4995 L 5428,4719 5406,4719 5437,4606 5801,4396 5437,5727 5073,5937 5331,4995 5428,4995 Z M 5413,4734 L 5413,4980 5335,4980 5402,4734 5413,4734 Z"/>
     <path fill="rgb(221,221,221)" stroke="none" d="M 5413,4980 L 5413,4734 5402,4734 5437,4606 5801,4396 5437,5727 5073,5937 5335,4980 5413,4980 Z M 5398,4749 L 5398,4965 5339,4965 5398,4749 5398,4749 Z"/>
     <path fill="rgb(222,222,222)" stroke="none" d="M 5398,4965 L 5398,4749 5398,4749 5437,4606 5801,4396 5437,5727 5073,5937 5339,4965 5398,4965 Z M 5382,4949 L 5343,4949 5382,4807 5382,4949 Z"/>
     <path fill="rgb(223,223,223)" stroke="none" d="M 5382,4949 L 5382,4807 5437,4606 5801,4396 5437,5727 5073,5937 5343,4949 5382,4949 Z M 5367,4934 L 5347,4934 5367,4862 5367,4934 Z"/>
     <path fill="rgb(224,224,224)" stroke="none" d="M 5367,4934 L 5367,4862 5437,4606 5801,4396 5437,5727 5073,5937 5347,4934 5367,4934 Z"/>
     <path fill="rgb(225,225,225)" stroke="none" d="M 5073,5937 L 5437,4606 5801,4396 5437,5727 5073,5937 Z"/>
     <path fill="rgb(226,226,226)" stroke="none" d="M 5073,5937 L 5437,4606 5801,4396 5437,5727 5073,5937 Z"/>
     <path fill="rgb(227,227,227)" stroke="none" d="M 5073,5937 L 5437,4606 5801,4396 5437,5727 5073,5937 Z"/>
     <path fill="rgb(229,229,229)" stroke="none" d="M 5073,5937 L 5437,4606 5801,4396 5437,5727 5073,5937 Z"/>
     <path fill="none" stroke="rgb(255,255,255)" id="Drawing_3_0" stroke-width="40" stroke-linejoin="round" d="M 5073,5937 L 5437,4606 5801,4396 5437,5727 5073,5937 Z"/>
    </g>
    <g>
     <defs>
      <linearGradient id="Gradient_291" gradientUnits="userSpaceOnUse" x1="5254" y1="3134" x2="5254" y2="5026">
       <stop offset="0.1" stop-color="rgb(179,179,179)"/>
       <stop offset="1" stop-color="rgb(229,229,229)"/>
      </linearGradient>
     </defs>
     <path fill="url(#Gradient_291)" stroke="rgb(255,255,255)" id="Drawing_4_0" stroke-width="40" stroke-linejoin="round" d="M 4588,5026 L 3618,4465 5921,3134 6891,3695 4588,5026 Z"/>
    </g>
    <g>
     <path fill="rgb(127,127,127)" stroke="none" d="M 3861,4396 L 4831,3835 5679,4326 4710,4886 3861,4396 Z"/>
     <path fill="none" stroke="rgb(255,255,255)" id="Drawing_5_0" stroke-width="40" stroke-linejoin="round" d="M 3861,4396 L 4831,3835 5679,4326 4710,4886 3861,4396 Z"/>
    </g>
    <g>
     <defs>
      <linearGradient id="Gradient_292" gradientUnits="userSpaceOnUse" x1="4950" y1="3798" x2="6529" y2="3800">
       <stop offset="0.1" stop-color="rgb(147,212,240)"/>
       <stop offset="1" stop-color="rgb(233,246,252)"/>
      </linearGradient>
     </defs>
     <path fill="url(#Gradient_292)" stroke="rgb(127,127,127)" id="Drawing_6_0" stroke-width="40" stroke-linejoin="round" d="M 4952,3764 L 5680,3344 6529,3835 5801,4255 4952,3764 Z"/>
    </g>
    <g>
     <path fill="rgb(179,179,179)" stroke="none" d="M 6406,4326 L 4674,5327 4588,5327 4588,5026 6406,3975 6406,4326 Z"/>
     <path fill="rgb(180,180,180)" stroke="none" d="M 4674,5327 L 4588,5377 4588,5327 4674,5327 Z M 6406,3975 L 6891,3695 6891,4045 6406,4326 6406,3975 Z M 6383,4339 L 4714,5304 4588,5304 4588,5026 6383,3989 6383,4339 Z"/>
     <path fill="rgb(181,181,181)" stroke="none" d="M 4714,5304 L 4588,5377 4588,5304 4714,5304 Z M 6383,3989 L 6891,3695 6891,4045 6383,4339 6383,3989 Z M 6360,4352 L 4754,5281 4588,5281 4588,5026 6360,4002 6360,4352 Z"/>
     <path fill="rgb(182,182,182)" stroke="none" d="M 4754,5281 L 4588,5377 4588,5281 4754,5281 Z M 6360,4002 L 6891,3695 6891,4045 6360,4352 6360,4002 Z M 6337,4365 L 4794,5258 4588,5258 4588,5026 6337,4015 6337,4365 Z"/>
     <path fill="rgb(183,183,183)" stroke="none" d="M 4794,5258 L 4588,5377 4588,5258 4794,5258 Z M 6337,4015 L 6891,3695 6891,4045 6337,4365 6337,4015 Z M 6314,4379 L 4834,5235 4588,5235 4588,5026 6314,4028 6314,4379 Z"/>
     <path fill="rgb(184,184,184)" stroke="none" d="M 4834,5235 L 4588,5377 4588,5235 4834,5235 Z M 6314,4028 L 6891,3695 6891,4045 6314,4379 6314,4028 Z M 6291,4392 L 4873,5212 4588,5212 4588,5026 6291,4042 6291,4392 Z"/>
     <path fill="rgb(185,185,185)" stroke="none" d="M 4873,5212 L 4588,5377 4588,5212 4873,5212 Z M 6291,4042 L 6891,3695 6891,4045 6291,4392 6291,4042 Z M 6268,4405 L 4913,5189 4588,5189 4588,5026 6268,4055 6268,4405 Z"/>
     <path fill="rgb(186,186,186)" stroke="none" d="M 4913,5189 L 4588,5377 4588,5189 4913,5189 Z M 6268,4055 L 6891,3695 6891,4045 6268,4405 6268,4055 Z M 6245,4419 L 4953,5166 4588,5166 4588,5026 6245,4068 6245,4419 Z"/>
     <path fill="rgb(187,187,187)" stroke="none" d="M 4953,5166 L 4588,5377 4588,5166 4953,5166 Z M 6245,4068 L 6891,3695 6891,4045 6245,4419 6245,4068 Z M 6222,4432 L 4993,5143 4588,5143 4588,5026 6222,4082 6222,4432 Z"/>
     <path fill="rgb(188,188,188)" stroke="none" d="M 4993,5143 L 4588,5377 4588,5143 4993,5143 Z M 6222,4082 L 6891,3695 6891,4045 6222,4432 6222,4082 Z M 6199,4445 L 5032,5120 4588,5120 4588,5026 6199,4095 6199,4445 Z"/>
     <path fill="rgb(189,189,189)" stroke="none" d="M 5032,5120 L 4588,5377 4588,5120 5032,5120 Z M 6199,4095 L 6891,3695 6891,4045 6199,4445 6199,4095 Z M 6176,4459 L 5072,5097 4588,5097 4588,5026 6176,4108 6176,4459 Z"/>
     <path fill="rgb(190,190,190)" stroke="none" d="M 5072,5097 L 4588,5377 4588,5097 5072,5097 Z M 6176,4108 L 6891,3695 6891,4045 6176,4459 6176,4108 Z M 6153,4472 L 5112,5074 4588,5074 4588,5026 6153,4122 6153,4472 Z"/>
     <path fill="rgb(191,191,191)" stroke="none" d="M 5112,5074 L 4588,5377 4588,5074 5112,5074 Z M 6153,4122 L 6891,3695 6891,4045 6153,4472 6153,4122 Z M 6130,4485 L 5152,5051 4588,5051 4588,5026 6130,4135 6130,4485 Z"/>
     <path fill="rgb(192,192,192)" stroke="none" d="M 5152,5051 L 4588,5377 4588,5051 5152,5051 Z M 6130,4135 L 6891,3695 6891,4045 6130,4485 6130,4135 Z M 6107,4498 L 5191,5028 4588,5028 4588,5026 6107,4148 6107,4498 Z"/>
     <path fill="rgb(193,193,193)" stroke="none" d="M 5191,5028 L 4588,5377 4588,5028 5191,5028 Z M 6107,4148 L 6891,3695 6891,4045 6107,4498 6107,4148 Z M 6084,4512 L 5231,5005 4624,5005 6084,4161 6084,4512 Z"/>
     <path fill="rgb(194,194,194)" stroke="none" d="M 5231,5005 L 4588,5377 4588,5026 4624,5005 5231,5005 Z M 6084,4161 L 6891,3695 6891,4045 6084,4512 6084,4161 Z M 6061,4525 L 5271,4982 4664,4982 6061,4175 6061,4525 Z"/>
     <path fill="rgb(195,195,195)" stroke="none" d="M 5271,4982 L 4588,5377 4588,5026 4664,4982 5271,4982 Z M 6061,4175 L 6891,3695 6891,4045 6061,4525 6061,4175 Z M 6037,4539 L 5312,4958 4706,4958 6037,4189 6037,4539 Z"/>
     <path fill="rgb(196,196,196)" stroke="none" d="M 5312,4958 L 4588,5377 4588,5026 4706,4958 5312,4958 Z M 6037,4189 L 6891,3695 6891,4045 6037,4539 6037,4189 Z M 6014,4552 L 5352,4935 4745,4935 6014,4202 6014,4552 Z"/>
     <path fill="rgb(197,197,197)" stroke="none" d="M 5352,4935 L 4588,5377 4588,5026 4745,4935 5352,4935 Z M 6014,4202 L 6891,3695 6891,4045 6014,4552 6014,4202 Z M 5991,4566 L 5392,4912 4785,4912 5991,4215 5991,4566 Z"/>
     <path fill="rgb(198,198,198)" stroke="none" d="M 5392,4912 L 4588,5377 4588,5026 4785,4912 5392,4912 Z M 5991,4215 L 6891,3695 6891,4045 5991,4566 5991,4215 Z M 5968,4579 L 5432,4889 4825,4889 5968,4228 5968,4579 Z"/>
     <path fill="rgb(199,199,199)" stroke="none" d="M 5432,4889 L 4588,5377 4588,5026 4825,4889 5432,4889 Z M 5968,4228 L 6891,3695 6891,4045 5968,4579 5968,4228 Z M 5945,4592 L 5472,4866 4865,4866 5945,4242 5945,4592 Z"/>
     <path fill="rgb(200,200,200)" stroke="none" d="M 5472,4866 L 4588,5377 4588,5026 4865,4866 5472,4866 Z M 5945,4242 L 6891,3695 6891,4045 5945,4592 5945,4242 Z M 5922,4605 L 5511,4843 4905,4843 5922,4255 5922,4605 Z"/>
     <path fill="rgb(201,201,201)" stroke="none" d="M 5511,4843 L 4588,5377 4588,5026 4905,4843 5511,4843 Z M 5922,4255 L 6891,3695 6891,4045 5922,4605 5922,4255 Z M 5899,4619 L 5551,4820 4944,4820 5899,4268 5899,4619 Z"/>
     <path fill="rgb(202,202,202)" stroke="none" d="M 5551,4820 L 4588,5377 4588,5026 4944,4820 5551,4820 Z M 5899,4268 L 6891,3695 6891,4045 5899,4619 5899,4268 Z M 5876,4632 L 5591,4797 4984,4797 5876,4282 5876,4632 Z"/>
     <path fill="rgb(203,203,203)" stroke="none" d="M 5591,4797 L 4588,5377 4588,5026 4984,4797 5591,4797 Z M 5876,4282 L 6891,3695 6891,4045 5876,4632 5876,4282 Z M 5853,4645 L 5631,4774 5024,4774 5853,4295 5853,4645 Z"/>
     <path fill="rgb(204,204,204)" stroke="none" d="M 5631,4774 L 4588,5377 4588,5026 5024,4774 5631,4774 Z M 5853,4295 L 6891,3695 6891,4045 5853,4645 5853,4295 Z M 5830,4659 L 5670,4751 5064,4751 5830,4308 5830,4659 Z"/>
     <path fill="rgb(205,205,205)" stroke="none" d="M 5670,4751 L 4588,5377 4588,5026 5064,4751 5670,4751 Z M 5830,4308 L 6891,3695 6891,4045 5830,4659 5830,4308 Z M 5807,4672 L 5710,4728 5104,4728 5807,4321 5807,4672 Z"/>
     <path fill="rgb(206,206,206)" stroke="none" d="M 5710,4728 L 4588,5377 4588,5026 5104,4728 5710,4728 Z M 5807,4321 L 6891,3695 6891,4045 5807,4672 5807,4321 Z M 5784,4685 L 5750,4705 5143,4705 5784,4335 5784,4685 Z"/>
     <path fill="rgb(207,207,207)" stroke="none" d="M 5750,4705 L 4588,5377 4588,5026 5143,4705 5750,4705 Z M 5784,4335 L 6891,3695 6891,4045 5784,4685 5784,4335 Z M 5761,4682 L 5183,4682 5761,4348 5761,4682 Z"/>
     <path fill="rgb(208,208,208)" stroke="none" d="M 5761,4682 L 5761,4348 6891,3695 6891,4045 4588,5377 4588,5026 5183,4682 5761,4682 Z M 5738,4659 L 5223,4659 5738,4361 5738,4659 Z"/>
     <path fill="rgb(209,209,209)" stroke="none" d="M 5738,4659 L 5738,4361 6891,3695 6891,4045 4588,5377 4588,5026 5223,4659 5738,4659 Z M 5715,4636 L 5263,4636 5715,4375 5715,4636 Z"/>
     <path fill="rgb(210,210,210)" stroke="none" d="M 5715,4636 L 5715,4375 6891,3695 6891,4045 4588,5377 4588,5026 5263,4636 5715,4636 Z M 5692,4613 L 5303,4613 5692,4388 5692,4613 Z"/>
     <path fill="rgb(211,211,211)" stroke="none" d="M 5692,4613 L 5692,4388 6891,3695 6891,4045 4588,5377 4588,5026 5303,4613 5692,4613 Z M 5669,4590 L 5342,4590 5669,4401 5669,4590 Z"/>
     <path fill="rgb(212,212,212)" stroke="none" d="M 5669,4590 L 5669,4401 6891,3695 6891,4045 4588,5377 4588,5026 5342,4590 5669,4590 Z M 5645,4566 L 5384,4566 5645,4415 5645,4566 Z"/>
     <path fill="rgb(213,213,213)" stroke="none" d="M 5645,4566 L 5645,4415 6891,3695 6891,4045 4588,5377 4588,5026 5384,4566 5645,4566 Z M 5622,4543 L 5424,4543 5622,4428 5622,4543 Z"/>
     <path fill="rgb(214,214,214)" stroke="none" d="M 5622,4543 L 5622,4428 6891,3695 6891,4045 4588,5377 4588,5026 5424,4543 5622,4543 Z M 5599,4520 L 5464,4520 5599,4442 5599,4520 Z"/>
     <path fill="rgb(215,215,215)" stroke="none" d="M 5599,4520 L 5599,4442 6891,3695 6891,4045 4588,5377 4588,5026 5464,4520 5599,4520 Z M 5576,4497 L 5503,4497 5576,4455 5576,4497 Z"/>
     <path fill="rgb(216,216,216)" stroke="none" d="M 5576,4497 L 5576,4455 6891,3695 6891,4045 4588,5377 4588,5026 5503,4497 5576,4497 Z M 5553,4474 L 5543,4474 5553,4468 5553,4474 Z"/>
     <path fill="rgb(217,217,217)" stroke="none" d="M 5553,4474 L 5553,4468 6891,3695 6891,4045 4588,5377 4588,5026 5543,4474 5553,4474 Z"/>
     <path fill="rgb(218,218,218)" stroke="none" d="M 4588,5377 L 4588,5026 6891,3695 6891,4045 4588,5377 Z"/>
     <path fill="rgb(219,219,219)" stroke="none" d="M 4588,5377 L 4588,5026 6891,3695 6891,4045 4588,5377 Z"/>
     <path fill="rgb(220,220,220)" stroke="none" d="M 4588,5377 L 4588,5026 6891,3695 6891,4045 4588,5377 Z"/>
     <path fill="rgb(221,221,221)" stroke="none" d="M 4588,5377 L 4588,5026 6891,3695 6891,4045 4588,5377 Z"/>
     <path fill="rgb(222,222,222)" stroke="none" d="M 4588,5377 L 4588,5026 6891,3695 6891,4045 4588,5377 Z"/>
     <path fill="rgb(223,223,223)" stroke="none" d="M 4588,5377 L 4588,5026 6891,3695 6891,4045 4588,5377 Z"/>
     <path fill="rgb(224,224,224)" stroke="none" d="M 4588,5377 L 4588,5026 6891,3695 6891,4045 4588,5377 Z"/>
     <path fill="rgb(225,225,225)" stroke="none" d="M 4588,5377 L 4588,5026 6891,3695 6891,4045 4588,5377 Z"/>
     <path fill="rgb(226,226,226)" stroke="none" d="M 4588,5377 L 4588,5026 6891,3695 6891,4045 4588,5377 Z"/>
     <path fill="rgb(227,227,227)" stroke="none" d="M 4588,5377 L 4588,5026 6891,3695 6891,4045 4588,5377 Z"/>
     <path fill="rgb(229,229,229)" stroke="none" d="M 4588,5377 L 4588,5026 6891,3695 6891,4045 4588,5377 Z"/>
     <path fill="none" stroke="rgb(255,255,255)" id="Drawing_7_0" stroke-width="40" stroke-linejoin="round" d="M 4588,5377 L 4588,5026 6891,3695 6891,4045 4588,5377 Z"/>
    </g>
    <g>
     <path fill="none" stroke="rgb(229,229,229)" id="Drawing_8_0" stroke-width="40" stroke-linejoin="round" d="M 4588,3976 L 5437,4467"/>
    </g>
    <g>
     <path fill="none" stroke="rgb(229,229,229)" id="Drawing_9_0" stroke-width="40" stroke-linejoin="round" d="M 4709,4746 L 5558,4255"/>
    </g>
    <g>
     <path fill="none" stroke="rgb(229,229,229)" id="Drawing_10_0" stroke-width="40" stroke-linejoin="round" d="M 3982,4466 L 4952,3905"/>
    </g>
    <g>
     <path fill="none" stroke="rgb(229,229,229)" id="Drawing_11_0" stroke-width="40" stroke-linejoin="round" d="M 4103,4537 L 5073,3976"/>
    </g>
    <g>
     <path fill="none" stroke="rgb(229,229,229)" id="Drawing_12_0" stroke-width="40" stroke-linejoin="round" d="M 4224,4606 L 5073,4115"/>
    </g>
    <g>
     <defs>
      <linearGradient id="Gradient_293" gradientUnits="userSpaceOnUse" x1="3617" y1="4919" x2="4589" y2="4921">
       <stop offset="0.1" stop-color="rgb(179,179,179)"/>
       <stop offset="1" stop-color="rgb(229,229,229)"/>
      </linearGradient>
     </defs>
     <path fill="url(#Gradient_293)" stroke="rgb(255,255,255)" id="Drawing_13_0" stroke-width="40" stroke-linejoin="round" d="M 3618,4815 L 3618,4465 4588,5026 4588,5376 3618,4815 Z"/>
    </g>
    <g>
     <path fill="none" stroke="rgb(0,0,0)" id="Drawing_14_0" stroke-width="40" stroke-linejoin="round" d="M 3618,4465 L 5921,3134 6891,3695 6891,4045 5679,4746 5436,5727 5073,5937 4709,5727 4831,5237 4588,5376 3618,4816 3618,4465 Z"/>
    </g>
    <g>
     <path fill="none" stroke="rgb(229,229,229)" id="Drawing_15_0" stroke-width="40" stroke-linejoin="round" d="M 4467,4747 L 5437,4186"/>
    </g>
    <g>
     <path fill="none" stroke="rgb(229,229,229)" id="Drawing_16_0" stroke-width="40" stroke-linejoin="round" d="M 4346,4677 L 5195,4186"/>
    </g>
    <g>
     <path fill="none" stroke="rgb(229,229,229)" id="Drawing_17_0" stroke-width="40" stroke-linejoin="round" d="M 4709,3905 L 5558,4396"/>
    </g>
    <g>
     <path fill="none" stroke="rgb(229,229,229)" id="Drawing_18_0" stroke-width="40" stroke-linejoin="round" d="M 4467,4045 L 5316,4536"/>
    </g>
    <g>
     <path fill="none" stroke="rgb(229,229,229)" id="Drawing_19_0" stroke-width="40" stroke-linejoin="round" d="M 4346,4115 L 5195,4606"/>
    </g>
    <g>
     <path fill="none" stroke="rgb(229,229,229)" id="Drawing_20_0" stroke-width="40" stroke-linejoin="round" d="M 4224,4186 L 5073,4677"/>
    </g>
    <g>
     <path fill="none" stroke="rgb(229,229,229)" id="Drawing_21_0" stroke-width="40" stroke-linejoin="round" d="M 3982,4326 L 4831,4817"/>
    </g>
    <g>
     <path fill="none" stroke="rgb(229,229,229)" id="Drawing_22_0" stroke-width="40" stroke-linejoin="round" d="M 4103,4255 L 4952,4746"/>
    </g>
   </g>
  </g>
 </g>
</svg>