<?xml version="1.0" encoding="UTF-8"?>

<svg version="1.2" baseProfile="tiny" width="33.13mm" height="28.43mm" viewBox="4354 9086 3313 2843" preserveAspectRatio="xMidYMid" fill-rule="evenodd" stroke-width="28.222" stroke-linejoin="round" xmlns="http://www.w3.org/2000/svg" xmlns:xlink="http://www.w3.org/1999/xlink" xml:space="preserve">
 <g visibility="visible" id="Slide_1">
  <g id="DrawingGroup_1">
   <g>
    <path fill="rgb(221,221,221)" stroke="none" d="M 6193,11906 C 6527,11906 7043,11765 7405,11486 7767,11207 7235,10663 7043,10855 6851,11047 6073,10365 6193,11906 Z"/>
    <path fill="none" stroke="rgb(221,221,221)" id="Drawing_1_0" stroke-width="40" stroke-linejoin="round" d="M 6193,11906 C 6527,11906 7043,11765 7405,11486 7767,11207 7235,10663 7043,10855 6851,11047 6073,10365 6193,11906 Z"/>
   </g>
   <g id="DrawingGroup_2">
    <g>
     <path fill="rgb(179,179,179)" stroke="none" d="M 6078,11512 L 5707,10227 6071,10017 6502,11512 6078,11512 Z"/>
     <path fill="rgb(180,180,180)" stroke="none" d="M 6502,11512 L 6556,11699 6192,11909 6078,11512 6502,11512 Z M 6072,11493 L 5707,10227 6071,10017 6497,11493 6072,11493 Z"/>
     <path fill="rgb(181,181,181)" stroke="none" d="M 6497,11493 L 6556,11699 6192,11909 6072,11493 6497,11493 Z M 6067,11474 L 5707,10227 6071,10017 6491,11474 6067,11474 Z"/>
     <path fill="rgb(182,182,182)" stroke="none" d="M 6491,11474 L 6556,11699 6192,11909 6067,11474 6491,11474 Z M 6061,11455 L 5707,10227 6071,10017 6486,11455 6061,11455 Z"/>
     <path fill="rgb(183,183,183)" stroke="none" d="M 6486,11455 L 6556,11699 6192,11909 6061,11455 6486,11455 Z M 6056,11436 L 5707,10227 6071,10017 6480,11436 6056,11436 Z"/>
     <path fill="rgb(184,184,184)" stroke="none" d="M 6480,11436 L 6556,11699 6192,11909 6056,11436 6480,11436 Z M 6050,11417 L 5707,10227 6071,10017 6475,11417 6050,11417 Z"/>
     <path fill="rgb(185,185,185)" stroke="none" d="M 6475,11417 L 6556,11699 6192,11909 6050,11417 6475,11417 Z M 6045,11398 L 5707,10227 6071,10017 6469,11398 6045,11398 Z"/>
     <path fill="rgb(186,186,186)" stroke="none" d="M 6469,11398 L 6556,11699 6192,11909 6045,11398 6469,11398 Z M 6039,11379 L 5707,10227 6071,10017 6464,11379 6039,11379 Z"/>
     <path fill="rgb(187,187,187)" stroke="none" d="M 6464,11379 L 6556,11699 6192,11909 6039,11379 6464,11379 Z M 6034,11360 L 5707,10227 6071,10017 6458,11360 6034,11360 Z"/>
     <path fill="rgb(188,188,188)" stroke="none" d="M 6458,11360 L 6556,11699 6192,11909 6034,11360 6458,11360 Z M 6028,11341 L 5707,10227 6071,10017 6453,11341 6028,11341 Z"/>
     <path fill="rgb(189,189,189)" stroke="none" d="M 6453,11341 L 6556,11699 6192,11909 6028,11341 6453,11341 Z M 6023,11322 L 5707,10227 6071,10017 6447,11322 6023,11322 Z"/>
     <path fill="rgb(190,190,190)" stroke="none" d="M 6447,11322 L 6556,11699 6192,11909 6023,11322 6447,11322 Z M 6017,11303 L 5707,10227 6071,10017 6442,11303 6017,11303 Z"/>
     <path fill="rgb(191,191,191)" stroke="none" d="M 6442,11303 L 6556,11699 6192,11909 6017,11303 6442,11303 Z M 6012,11284 L 5707,10227 6071,10017 6436,11284 6012,11284 Z"/>
     <path fill="rgb(192,192,192)" stroke="none" d="M 6436,11284 L 6556,11699 6192,11909 6012,11284 6436,11284 Z M 6006,11265 L 5707,10227 6071,10017 6431,11265 6006,11265 Z"/>
     <path fill="rgb(193,193,193)" stroke="none" d="M 6431,11265 L 6556,11699 6192,11909 6006,11265 6431,11265 Z M 6001,11246 L 5707,10227 6071,10017 6425,11246 6001,11246 Z"/>
     <path fill="rgb(194,194,194)" stroke="none" d="M 6425,11246 L 6556,11699 6192,11909 6001,11246 6425,11246 Z M 5995,11227 L 5707,10227 6071,10017 6420,11227 5995,11227 Z"/>
     <path fill="rgb(195,195,195)" stroke="none" d="M 6420,11227 L 6556,11699 6192,11909 5995,11227 6420,11227 Z M 5990,11208 L 5707,10227 6071,10017 6414,11208 5990,11208 Z"/>
     <path fill="rgb(196,196,196)" stroke="none" d="M 6414,11208 L 6556,11699 6192,11909 5990,11208 6414,11208 Z M 5984,11189 L 5707,10227 6071,10017 6409,11189 5984,11189 Z"/>
     <path fill="rgb(197,197,197)" stroke="none" d="M 6409,11189 L 6556,11699 6192,11909 5984,11189 6409,11189 Z M 5979,11170 L 5707,10227 6071,10017 6403,11170 5979,11170 Z"/>
     <path fill="rgb(198,198,198)" stroke="none" d="M 6403,11170 L 6556,11699 6192,11909 5979,11170 6403,11170 Z M 5973,11151 L 5707,10227 6071,10017 6398,11151 5973,11151 Z"/>
     <path fill="rgb(199,199,199)" stroke="none" d="M 6398,11151 L 6556,11699 6192,11909 5973,11151 6398,11151 Z M 6076,10034 L 6393,11133 5968,11133 5707,10227 6042,10034 6076,10034 Z"/>
     <path fill="rgb(200,200,200)" stroke="none" d="M 6393,11133 L 6556,11699 6192,11909 5968,11133 6393,11133 Z M 6042,10034 L 6071,10017 6076,10034 6042,10034 Z M 6081,10053 L 6387,11114 5963,11114 5707,10227 6009,10053 6081,10053 Z"/>
     <path fill="rgb(201,201,201)" stroke="none" d="M 6387,11114 L 6556,11699 6192,11909 5963,11114 6387,11114 Z M 6009,10053 L 6071,10017 6081,10053 6009,10053 Z M 6087,10072 L 6382,11095 5957,11095 5707,10227 5976,10072 6087,10072 Z"/>
     <path fill="rgb(202,202,202)" stroke="none" d="M 6382,11095 L 6556,11699 6192,11909 5957,11095 6382,11095 Z M 5976,10072 L 6071,10017 6087,10072 5976,10072 Z M 6092,10091 L 6376,11076 5952,11076 5707,10227 5943,10091 6092,10091 Z"/>
     <path fill="rgb(203,203,203)" stroke="none" d="M 6376,11076 L 6556,11699 6192,11909 5952,11076 6376,11076 Z M 5943,10091 L 6071,10017 6092,10091 5943,10091 Z M 6098,10110 L 6371,11057 5946,11057 5707,10227 5910,10110 6098,10110 Z"/>
     <path fill="rgb(204,204,204)" stroke="none" d="M 6371,11057 L 6556,11699 6192,11909 5946,11057 6371,11057 Z M 5910,10110 L 6071,10017 6098,10110 5910,10110 Z M 6103,10129 L 6365,11038 5941,11038 5707,10227 5877,10129 6103,10129 Z"/>
     <path fill="rgb(205,205,205)" stroke="none" d="M 6365,11038 L 6556,11699 6192,11909 5941,11038 6365,11038 Z M 5877,10129 L 6071,10017 6103,10129 5877,10129 Z M 6109,10148 L 6360,11019 5935,11019 5707,10227 5844,10148 6109,10148 Z"/>
     <path fill="rgb(206,206,206)" stroke="none" d="M 6360,11019 L 6556,11699 6192,11909 5935,11019 6360,11019 Z M 5844,10148 L 6071,10017 6109,10148 5844,10148 Z M 6114,10167 L 6354,11000 5930,11000 5707,10227 5811,10167 6114,10167 Z"/>
     <path fill="rgb(207,207,207)" stroke="none" d="M 6354,11000 L 6556,11699 6192,11909 5930,11000 6354,11000 Z M 5811,10167 L 6071,10017 6114,10167 5811,10167 Z M 6120,10186 L 6349,10981 5924,10981 5707,10227 5778,10186 6120,10186 Z"/>
     <path fill="rgb(208,208,208)" stroke="none" d="M 6349,10981 L 6556,11699 6192,11909 5924,10981 6349,10981 Z M 5778,10186 L 6071,10017 6120,10186 5778,10186 Z M 6125,10205 L 6339,10946 6339,10962 5919,10962 5707,10227 5745,10205 6125,10205 Z"/>
     <path fill="rgb(209,209,209)" stroke="none" d="M 6339,10962 L 6339,10946 6556,11699 6192,11909 5919,10962 6339,10962 Z M 5745,10205 L 6071,10017 6125,10205 5745,10205 Z M 6131,10224 L 6320,10881 6320,10943 5913,10943 5707,10227 5712,10224 6131,10224 Z"/>
     <path fill="rgb(210,210,210)" stroke="none" d="M 6320,10943 L 6320,10881 6556,11699 6192,11909 5913,10943 6320,10943 Z M 5712,10224 L 6071,10017 6131,10224 5712,10224 Z M 6136,10243 L 6301,10815 6301,10924 5908,10924 5712,10243 6136,10243 Z"/>
     <path fill="rgb(211,211,211)" stroke="none" d="M 6301,10924 L 6301,10815 6556,11699 6192,11909 5908,10924 6301,10924 Z M 5712,10243 L 5707,10227 6071,10017 6136,10243 5712,10243 Z M 6142,10262 L 6282,10749 6282,10905 5902,10905 5717,10262 6142,10262 Z"/>
     <path fill="rgb(212,212,212)" stroke="none" d="M 6282,10905 L 6282,10749 6556,11699 6192,11909 5902,10905 6282,10905 Z M 5717,10262 L 5707,10227 6071,10017 6142,10262 5717,10262 Z M 6147,10281 L 6263,10683 6263,10886 5897,10886 5723,10281 6147,10281 Z"/>
     <path fill="rgb(213,213,213)" stroke="none" d="M 6263,10886 L 6263,10683 6556,11699 6192,11909 5897,10886 6263,10886 Z M 5723,10281 L 5707,10227 6071,10017 6147,10281 5723,10281 Z M 6153,10300 L 6244,10617 6244,10867 5892,10867 5728,10300 6153,10300 Z"/>
     <path fill="rgb(214,214,214)" stroke="none" d="M 6244,10867 L 6244,10617 6556,11699 6192,11909 5892,10867 6244,10867 Z M 5728,10300 L 5707,10227 6071,10017 6153,10300 5728,10300 Z M 6158,10319 L 6225,10551 6225,10848 5886,10848 5734,10319 6158,10319 Z"/>
     <path fill="rgb(215,215,215)" stroke="none" d="M 6225,10848 L 6225,10551 6556,11699 6192,11909 5886,10848 6225,10848 Z M 5734,10319 L 5707,10227 6071,10017 6158,10319 5734,10319 Z M 6164,10338 L 6206,10485 6206,10829 5881,10829 5739,10338 6164,10338 Z"/>
     <path fill="rgb(216,216,216)" stroke="none" d="M 6206,10829 L 6206,10485 6556,11699 6192,11909 5881,10829 6206,10829 Z M 5739,10338 L 5707,10227 6071,10017 6164,10338 5739,10338 Z M 6169,10357 L 6187,10419 6187,10810 5875,10810 5744,10357 6169,10357 Z"/>
     <path fill="rgb(217,217,217)" stroke="none" d="M 6187,10810 L 6187,10419 6556,11699 6192,11909 5875,10810 6187,10810 Z M 5744,10357 L 5707,10227 6071,10017 6169,10357 5744,10357 Z M 5753,10376 L 6168,10376 6168,10791 5870,10791 5753,10387 5753,10376 Z"/>
     <path fill="rgb(218,218,218)" stroke="none" d="M 5753,10376 L 5753,10387 5707,10227 6071,10017 6556,11699 6192,11909 5870,10791 6168,10791 6168,10376 5753,10376 Z M 5772,10394 L 6149,10394 6149,10772 5864,10772 5772,10452 5772,10394 Z"/>
     <path fill="rgb(219,219,219)" stroke="none" d="M 5772,10394 L 5772,10452 5707,10227 6071,10017 6556,11699 6192,11909 5864,10772 6149,10772 6149,10394 5772,10394 Z M 5790,10413 L 6131,10413 6131,10754 5859,10754 5790,10515 5790,10413 Z"/>
     <path fill="rgb(220,220,220)" stroke="none" d="M 5790,10413 L 5790,10515 5707,10227 6071,10017 6556,11699 6192,11909 5859,10754 6131,10754 6131,10413 5790,10413 Z M 5809,10432 L 6112,10432 6112,10735 5853,10735 5809,10581 5809,10432 Z"/>
     <path fill="rgb(221,221,221)" stroke="none" d="M 5809,10432 L 5809,10581 5707,10227 6071,10017 6556,11699 6192,11909 5853,10735 6112,10735 6112,10432 5809,10432 Z M 5828,10451 L 6093,10451 6093,10716 5848,10716 5828,10647 5828,10451 Z"/>
     <path fill="rgb(222,222,222)" stroke="none" d="M 5828,10451 L 5828,10647 5707,10227 6071,10017 6556,11699 6192,11909 5848,10716 6093,10716 6093,10451 5828,10451 Z M 5847,10470 L 6074,10470 6074,10697 5847,10697 5847,10470 Z"/>
     <path fill="rgb(223,223,223)" stroke="none" d="M 5847,10470 L 5847,10697 6074,10697 6074,10470 5847,10470 Z M 5866,10489 L 6055,10489 6055,10678 5866,10678 5866,10489 Z M 6556,11699 L 6192,11909 5707,10227 6071,10017 6556,11699 Z"/>
     <path fill="rgb(224,224,224)" stroke="none" d="M 5866,10489 L 5866,10678 6055,10678 6055,10489 5866,10489 Z M 5885,10508 L 6036,10508 6036,10659 5885,10659 5885,10508 Z M 6556,11699 L 6192,11909 5707,10227 6071,10017 6556,11699 Z"/>
     <path fill="rgb(225,225,225)" stroke="none" d="M 5885,10508 L 5885,10659 6036,10659 6036,10508 5885,10508 Z M 5904,10527 L 6017,10527 6017,10640 5904,10640 5904,10527 Z M 6556,11699 L 6192,11909 5707,10227 6071,10017 6556,11699 Z"/>
     <path fill="rgb(226,226,226)" stroke="none" d="M 5904,10527 L 5904,10640 6017,10640 6017,10527 5904,10527 Z M 5923,10546 L 5998,10546 5998,10621 5923,10621 5923,10546 Z M 6556,11699 L 6192,11909 5707,10227 6071,10017 6556,11699 Z"/>
     <path fill="rgb(227,227,227)" stroke="none" d="M 5923,10546 L 5923,10621 5998,10621 5998,10546 5923,10546 Z M 5942,10565 L 5979,10565 5979,10602 5942,10602 5942,10565 Z M 6556,11699 L 6192,11909 5707,10227 6071,10017 6556,11699 Z"/>
     <path fill="rgb(229,229,229)" stroke="none" d="M 5942,10565 L 5942,10602 5979,10602 5979,10565 5942,10565 Z M 6556,11699 L 6192,11909 5707,10227 6071,10017 6556,11699 Z"/>
     <path fill="none" stroke="rgb(255,255,255)" id="Drawing_2_0" stroke-width="40" stroke-linejoin="round" d="M 6556,11699 L 6071,10017 5707,10227 6192,11909 6556,11699 Z"/>
    </g>
    <g>
     <defs>
      <linearGradient id="Gradient_298" gradientUnits="userSpaceOnUse" x1="5463" y1="11137" x2="6193" y2="11139">
       <stop offset="0.1" stop-color="rgb(179,179,179)"/>
       <stop offset="1" stop-color="rgb(229,229,229)"/>
      </linearGradient>
     </defs>
     <path fill="url(#Gradient_298)" stroke="rgb(255,255,255)" id="Drawing_3_0" stroke-width="40" stroke-linejoin="round" d="M 6192,11909 L 5828,10578 5464,10368 5828,11699 6192,11909 Z"/>
    </g>
    <g>
     <defs>
      <linearGradient id="Gradient_299" gradientUnits="userSpaceOnUse" x1="6010" y1="9106" x2="6010" y2="10998">
       <stop offset="0.1" stop-color="rgb(179,179,179)"/>
       <stop offset="1" stop-color="rgb(229,229,229)"/>
      </linearGradient>
     </defs>
     <path fill="url(#Gradient_299)" stroke="rgb(255,255,255)" id="Drawing_4_0" stroke-width="40" stroke-linejoin="round" d="M 6677,10998 L 7647,10437 5344,9106 4374,9667 6677,10998 Z"/>
    </g>
    <g>
     <path fill="rgb(127,127,127)" stroke="none" d="M 7404,10368 L 6434,9807 5586,10298 6555,10858 7404,10368 Z"/>
     <path fill="none" stroke="rgb(255,255,255)" id="Drawing_5_0" stroke-width="40" stroke-linejoin="round" d="M 7404,10368 L 6434,9807 5586,10298 6555,10858 7404,10368 Z"/>
    </g>
    <g>
     <defs>
      <linearGradient id="Gradient_300" gradientUnits="userSpaceOnUse" x1="4734" y1="9770" x2="6313" y2="9772">
       <stop offset="0.1" stop-color="rgb(147,212,240)"/>
       <stop offset="1" stop-color="rgb(233,246,252)"/>
      </linearGradient>
     </defs>
     <path fill="url(#Gradient_300)" stroke="rgb(127,127,127)" id="Drawing_6_0" stroke-width="40" stroke-linejoin="round" d="M 6313,9736 L 5585,9316 4736,9807 5464,10227 6313,9736 Z"/>
    </g>
    <g>
     <defs>
      <linearGradient id="Gradient_301" gradientUnits="userSpaceOnUse" x1="4372" y1="10506" x2="6677" y2="10510">
       <stop offset="0.1" stop-color="rgb(179,179,179)"/>
       <stop offset="1" stop-color="rgb(229,229,229)"/>
      </linearGradient>
     </defs>
     <path fill="url(#Gradient_301)" stroke="rgb(255,255,255)" id="Drawing_7_0" stroke-width="40" stroke-linejoin="round" d="M 6677,11349 L 6677,10998 4374,9667 4374,10017 6677,11349 Z"/>
    </g>
    <g>
     <path fill="none" stroke="rgb(229,229,229)" id="Drawing_8_0" stroke-width="40" stroke-linejoin="round" d="M 6677,9948 L 5828,10439"/>
    </g>
    <g>
     <path fill="none" stroke="rgb(229,229,229)" id="Drawing_9_0" stroke-width="40" stroke-linejoin="round" d="M 6556,10718 L 5707,10227"/>
    </g>
    <g>
     <path fill="none" stroke="rgb(229,229,229)" id="Drawing_10_0" stroke-width="40" stroke-linejoin="round" d="M 7283,10438 L 6313,9877"/>
    </g>
    <g>
     <path fill="none" stroke="rgb(229,229,229)" id="Drawing_11_0" stroke-width="40" stroke-linejoin="round" d="M 7162,10509 L 6192,9948"/>
    </g>
    <g>
     <path fill="none" stroke="rgb(229,229,229)" id="Drawing_12_0" stroke-width="40" stroke-linejoin="round" d="M 7041,10578 L 6192,10087"/>
    </g>
    <g>
     <path fill="rgb(179,179,179)" stroke="none" d="M 7442,10906 L 6959,11185 6677,11185 6677,10998 7442,10556 7442,10906 Z"/>
     <path fill="rgb(180,180,180)" stroke="none" d="M 6959,11185 L 6677,11348 6677,11185 6959,11185 Z M 7442,10556 L 7647,10437 7647,10787 7442,10906 7442,10556 Z M 7432,10911 L 6976,11175 6677,11175 6677,10998 7432,10561 7432,10911 Z"/>
     <path fill="rgb(181,181,181)" stroke="none" d="M 6976,11175 L 6677,11348 6677,11175 6976,11175 Z M 7432,10561 L 7647,10437 7647,10787 7432,10911 7432,10561 Z M 7422,10917 L 6993,11165 6677,11165 6677,10998 7422,10567 7422,10917 Z"/>
     <path fill="rgb(182,182,182)" stroke="none" d="M 6993,11165 L 6677,11348 6677,11165 6993,11165 Z M 7422,10567 L 7647,10437 7647,10787 7422,10917 7422,10567 Z M 7412,10923 L 7011,11155 6677,11155 6677,10998 7412,10573 7412,10923 Z"/>
     <path fill="rgb(183,183,183)" stroke="none" d="M 7011,11155 L 6677,11348 6677,11155 7011,11155 Z M 7412,10573 L 7647,10437 7647,10787 7412,10923 7412,10573 Z M 7402,10929 L 7028,11145 6677,11145 6677,10998 7402,10579 7402,10929 Z"/>
     <path fill="rgb(184,184,184)" stroke="none" d="M 7028,11145 L 6677,11348 6677,11145 7028,11145 Z M 7402,10579 L 7647,10437 7647,10787 7402,10929 7402,10579 Z M 7392,10934 L 7045,11135 6677,11135 6677,10998 7392,10584 7392,10934 Z"/>
     <path fill="rgb(185,185,185)" stroke="none" d="M 7045,11135 L 6677,11348 6677,11135 7045,11135 Z M 7392,10584 L 7647,10437 7647,10787 7392,10934 7392,10584 Z M 7382,10940 L 7063,11125 6677,11125 6677,10998 7382,10590 7382,10940 Z"/>
     <path fill="rgb(186,186,186)" stroke="none" d="M 7063,11125 L 6677,11348 6677,11125 7063,11125 Z M 7382,10590 L 7647,10437 7647,10787 7382,10940 7382,10590 Z M 7371,10947 L 7082,11114 6677,11114 6677,10998 7371,10597 7371,10947 Z"/>
     <path fill="rgb(187,187,187)" stroke="none" d="M 7082,11114 L 6677,11348 6677,11114 7082,11114 Z M 7371,10597 L 7647,10437 7647,10787 7371,10947 7371,10597 Z M 7361,10952 L 7099,11104 6677,11104 6677,10998 7361,10602 7361,10952 Z"/>
     <path fill="rgb(188,188,188)" stroke="none" d="M 7099,11104 L 6677,11348 6677,11104 7099,11104 Z M 7361,10602 L 7647,10437 7647,10787 7361,10952 7361,10602 Z M 7351,10958 L 7116,11094 6677,11094 6677,10998 7351,10608 7351,10958 Z"/>
     <path fill="rgb(189,189,189)" stroke="none" d="M 7116,11094 L 6677,11348 6677,11094 7116,11094 Z M 7351,10608 L 7647,10437 7647,10787 7351,10958 7351,10608 Z M 7341,10964 L 7133,11084 6677,11084 6677,10998 7341,10614 7341,10964 Z"/>
     <path fill="rgb(190,190,190)" stroke="none" d="M 7133,11084 L 6677,11348 6677,11084 7133,11084 Z M 7341,10614 L 7647,10437 7647,10787 7341,10964 7341,10614 Z M 7331,10970 L 7151,11074 6677,11074 6677,10998 7331,10620 7331,10970 Z"/>
     <path fill="rgb(191,191,191)" stroke="none" d="M 7151,11074 L 6677,11348 6677,11074 7151,11074 Z M 7331,10620 L 7647,10437 7647,10787 7331,10970 7331,10620 Z M 7321,10976 L 7168,11064 6677,11064 6677,10998 7321,10626 7321,10976 Z"/>
     <path fill="rgb(192,192,192)" stroke="none" d="M 7168,11064 L 6677,11348 6677,11064 7168,11064 Z M 7321,10626 L 7647,10437 7647,10787 7321,10976 7321,10626 Z M 7311,10981 L 7185,11054 6677,11054 6677,10998 7311,10631 7311,10981 Z"/>
     <path fill="rgb(193,193,193)" stroke="none" d="M 7185,11054 L 6677,11348 6677,11054 7185,11054 Z M 7311,10631 L 7647,10437 7647,10787 7311,10981 7311,10631 Z M 7300,10988 L 7204,11043 6677,11043 6677,10998 7300,10638 7300,10988 Z"/>
     <path fill="rgb(194,194,194)" stroke="none" d="M 7204,11043 L 6677,11348 6677,11043 7204,11043 Z M 7300,10638 L 7647,10437 7647,10787 7300,10988 7300,10638 Z M 7290,10993 L 7222,11033 6677,11033 6677,10998 7290,10643 7290,10993 Z"/>
     <path fill="rgb(195,195,195)" stroke="none" d="M 7222,11033 L 6677,11348 6677,11033 7222,11033 Z M 7290,10643 L 7647,10437 7647,10787 7290,10993 7290,10643 Z M 7280,10999 L 7239,11023 6677,11023 6677,10998 7280,10649 7280,10999 Z"/>
     <path fill="rgb(196,196,196)" stroke="none" d="M 7239,11023 L 6677,11348 6677,11023 7239,11023 Z M 7280,10649 L 7647,10437 7647,10787 7280,10999 7280,10649 Z M 7270,11005 L 7256,11013 6677,11013 6677,10998 7270,10655 7270,11005 Z"/>
     <path fill="rgb(197,197,197)" stroke="none" d="M 7256,11013 L 6677,11348 6677,11013 7256,11013 Z M 7270,10655 L 7647,10437 7647,10787 7270,11005 7270,10655 Z M 7260,11003 L 6677,11003 6677,10998 7260,10661 7260,11003 Z"/>
     <path fill="rgb(198,198,198)" stroke="none" d="M 7260,11003 L 7260,10661 7647,10437 7647,10787 6677,11348 6677,11003 7260,11003 Z M 7250,10993 L 6686,10993 7250,10667 7250,10993 Z"/>
     <path fill="rgb(199,199,199)" stroke="none" d="M 7250,10993 L 7250,10667 7647,10437 7647,10787 6677,11348 6677,10998 6686,10993 7250,10993 Z M 7240,10983 L 6703,10983 7240,10672 7240,10983 Z"/>
     <path fill="rgb(200,200,200)" stroke="none" d="M 7240,10983 L 7240,10672 7647,10437 7647,10787 6677,11348 6677,10998 6703,10983 7240,10983 Z M 7230,10973 L 6720,10973 7230,10678 7230,10973 Z"/>
     <path fill="rgb(201,201,201)" stroke="none" d="M 7230,10973 L 7230,10678 7647,10437 7647,10787 6677,11348 6677,10998 6720,10973 7230,10973 Z M 7219,10962 L 6739,10962 7219,10685 7219,10962 Z"/>
     <path fill="rgb(202,202,202)" stroke="none" d="M 7219,10962 L 7219,10685 7647,10437 7647,10787 6677,11348 6677,10998 6739,10962 7219,10962 Z M 7209,10952 L 6757,10952 7209,10690 7209,10952 Z"/>
     <path fill="rgb(204,204,204)" stroke="none" d="M 7209,10952 L 7209,10690 7647,10437 7647,10787 6677,11348 6677,10998 6757,10952 7209,10952 Z M 7199,10942 L 6774,10942 7199,10696 7199,10942 Z"/>
     <path fill="rgb(205,205,205)" stroke="none" d="M 7199,10942 L 7199,10696 7647,10437 7647,10787 6677,11348 6677,10998 6774,10942 7199,10942 Z M 7189,10932 L 6791,10932 7189,10702 7189,10932 Z"/>
     <path fill="rgb(206,206,206)" stroke="none" d="M 7189,10932 L 7189,10702 7647,10437 7647,10787 6677,11348 6677,10998 6791,10932 7189,10932 Z M 7179,10922 L 6808,10922 7179,10708 7179,10922 Z"/>
     <path fill="rgb(207,207,207)" stroke="none" d="M 7179,10922 L 7179,10708 7647,10437 7647,10787 6677,11348 6677,10998 6808,10922 7179,10922 Z M 7169,10912 L 6826,10912 7169,10713 7169,10912 Z"/>
     <path fill="rgb(208,208,208)" stroke="none" d="M 7169,10912 L 7169,10713 7647,10437 7647,10787 6677,11348 6677,10998 6826,10912 7169,10912 Z M 7159,10902 L 6843,10902 7159,10719 7159,10902 Z"/>
     <path fill="rgb(209,209,209)" stroke="none" d="M 7159,10902 L 7159,10719 7647,10437 7647,10787 6677,11348 6677,10998 6843,10902 7159,10902 Z M 7148,10891 L 6862,10891 7148,10726 7148,10891 Z"/>
     <path fill="rgb(210,210,210)" stroke="none" d="M 7148,10891 L 7148,10726 7647,10437 7647,10787 6677,11348 6677,10998 6862,10891 7148,10891 Z M 7138,10881 L 6879,10881 7138,10731 7138,10881 Z"/>
     <path fill="rgb(211,211,211)" stroke="none" d="M 7138,10881 L 7138,10731 7647,10437 7647,10787 6677,11348 6677,10998 6879,10881 7138,10881 Z M 7128,10871 L 6897,10871 7128,10737 7128,10871 Z"/>
     <path fill="rgb(212,212,212)" stroke="none" d="M 7128,10871 L 7128,10737 7647,10437 7647,10787 6677,11348 6677,10998 6897,10871 7128,10871 Z M 7118,10861 L 6914,10861 7118,10743 7118,10861 Z"/>
     <path fill="rgb(213,213,213)" stroke="none" d="M 7118,10861 L 7118,10743 7647,10437 7647,10787 6677,11348 6677,10998 6914,10861 7118,10861 Z M 7108,10851 L 6931,10851 7108,10749 7108,10851 Z"/>
     <path fill="rgb(214,214,214)" stroke="none" d="M 7108,10851 L 7108,10749 7647,10437 7647,10787 6677,11348 6677,10998 6931,10851 7108,10851 Z M 7098,10841 L 6948,10841 7098,10755 7098,10841 Z"/>
     <path fill="rgb(215,215,215)" stroke="none" d="M 7098,10841 L 7098,10755 7647,10437 7647,10787 6677,11348 6677,10998 6948,10841 7098,10841 Z M 7088,10831 L 6966,10831 7088,10760 7088,10831 Z"/>
     <path fill="rgb(216,216,216)" stroke="none" d="M 7088,10831 L 7088,10760 7647,10437 7647,10787 6677,11348 6677,10998 6966,10831 7088,10831 Z M 7077,10820 L 6985,10820 7077,10767 7077,10820 Z"/>
     <path fill="rgb(217,217,217)" stroke="none" d="M 7077,10820 L 7077,10767 7647,10437 7647,10787 6677,11348 6677,10998 6985,10820 7077,10820 Z M 7067,10810 L 7002,10810 7067,10772 7067,10810 Z"/>
     <path fill="rgb(218,218,218)" stroke="none" d="M 7067,10810 L 7067,10772 7647,10437 7647,10787 6677,11348 6677,10998 7002,10810 7067,10810 Z M 7057,10800 L 7019,10800 7057,10778 7057,10800 Z"/>
     <path fill="rgb(219,219,219)" stroke="none" d="M 7057,10800 L 7057,10778 7647,10437 7647,10787 6677,11348 6677,10998 7019,10800 7057,10800 Z M 7047,10790 L 7037,10790 7047,10784 7047,10790 Z"/>
     <path fill="rgb(220,220,220)" stroke="none" d="M 7047,10790 L 7047,10784 7647,10437 7647,10787 6677,11348 6677,10998 7037,10790 7047,10790 Z"/>
     <path fill="rgb(221,221,221)" stroke="none" d="M 7647,10787 L 6677,11348 6677,10998 7647,10437 7647,10787 Z"/>
     <path fill="rgb(222,222,222)" stroke="none" d="M 7647,10787 L 6677,11348 6677,10998 7647,10437 7647,10787 Z"/>
     <path fill="rgb(223,223,223)" stroke="none" d="M 7647,10787 L 6677,11348 6677,10998 7647,10437 7647,10787 Z"/>
     <path fill="rgb(224,224,224)" stroke="none" d="M 7647,10787 L 6677,11348 6677,10998 7647,10437 7647,10787 Z"/>
     <path fill="rgb(225,225,225)" stroke="none" d="M 7647,10787 L 6677,11348 6677,10998 7647,10437 7647,10787 Z"/>
     <path fill="rgb(226,226,226)" stroke="none" d="M 7647,10787 L 6677,11348 6677,10998 7647,10437 7647,10787 Z"/>
     <path fill="rgb(229,229,229)" stroke="none" d="M 7647,10787 L 6677,11348 6677,10998 7647,10437 7647,10787 Z"/>
     <path fill="none" stroke="rgb(255,255,255)" id="Drawing_13_0" stroke-width="40" stroke-linejoin="round" d="M 7647,10787 L 7647,10437 6677,10998 6677,11348 7647,10787 Z"/>
    </g>
    <g>
     <path fill="none" stroke="rgb(0,0,0)" id="Drawing_14_0" stroke-width="40" stroke-linejoin="round" d="M 7647,10437 L 5344,9106 4374,9667 4374,10017 5586,10718 5829,11699 6192,11909 6556,11699 6434,11209 6677,11348 7647,10788 7647,10437 Z"/>
    </g>
    <g>
     <path fill="none" stroke="rgb(229,229,229)" id="Drawing_15_0" stroke-width="40" stroke-linejoin="round" d="M 6798,10719 L 5828,10158"/>
    </g>
    <g>
     <path fill="none" stroke="rgb(229,229,229)" id="Drawing_16_0" stroke-width="40" stroke-linejoin="round" d="M 6919,10649 L 6070,10158"/>
    </g>
    <g>
     <path fill="none" stroke="rgb(229,229,229)" id="Drawing_17_0" stroke-width="40" stroke-linejoin="round" d="M 6556,9877 L 5707,10368"/>
    </g>
    <g>
     <path fill="none" stroke="rgb(229,229,229)" id="Drawing_18_0" stroke-width="40" stroke-linejoin="round" d="M 6798,10017 L 5949,10508"/>
    </g>
    <g>
     <path fill="none" stroke="rgb(229,229,229)" id="Drawing_19_0" stroke-width="40" stroke-linejoin="round" d="M 6919,10087 L 6070,10578"/>
    </g>
    <g>
     <path fill="none" stroke="rgb(229,229,229)" id="Drawing_20_0" stroke-width="40" stroke-linejoin="round" d="M 7041,10158 L 6192,10649"/>
    </g>
    <g>
     <path fill="none" stroke="rgb(229,229,229)" id="Drawing_21_0" stroke-width="40" stroke-linejoin="round" d="M 7283,10298 L 6434,10789"/>
    </g>
    <g>
     <path fill="none" stroke="rgb(229,229,229)" id="Drawing_22_0" stroke-width="40" stroke-linejoin="round" d="M 7162,10227 L 6313,10718"/>
    </g>
   </g>
  </g>
 </g>
</svg>