<?xml version="1.0" encoding="UTF-8"?>

<svg version="1.2" baseProfile="tiny" width="60.95mm" height="45.4mm" viewBox="4399 11186 6095 4540" preserveAspectRatio="xMidYMid" fill-rule="evenodd" stroke-width="28.222" stroke-linejoin="round" xmlns="http://www.w3.org/2000/svg" xmlns:xlink="http://www.w3.org/1999/xlink" xml:space="preserve">
 <g visibility="visible" id="Slide_1">
  <g id="DrawingGroup_1">
   <g>
    <path fill="rgb(221,221,221)" stroke="none" d="M 7899,14646 C 8137,14646 9467,14151 9788,13903 10064,13690 9864,13446 9626,13446 9626,13596 7813,13546 7899,14646 Z"/>
    <path fill="none" stroke="rgb(221,221,221)" id="Drawing_1_0" stroke-width="40" stroke-linejoin="round" d="M 7899,14646 C 8137,14646 9467,14151 9788,13903 10064,13690 9864,13446 9626,13446 9626,13596 7813,13546 7899,14646 Z"/>
   </g>
   <g id="DrawingGroup_2">
    <g>
     <path fill="rgb(179,179,179)" stroke="none" d="M 8901,14115 L 7422,14970 6149,14970 6149,14206 8901,12615 8901,14115 Z"/>
     <path fill="rgb(180,180,180)" stroke="none" d="M 7422,14970 L 6149,15706 6149,14970 7422,14970 Z M 8901,12615 L 9609,12206 9609,13706 8901,14115 8901,12615 Z M 8866,14135 L 7483,14935 6149,14935 6149,14206 8866,12635 8866,14135 Z"/>
     <path fill="rgb(181,181,181)" stroke="none" d="M 7483,14935 L 6149,15706 6149,14935 7483,14935 Z M 8866,12635 L 9609,12206 9609,13706 8866,14135 8866,12635 Z M 8831,14156 L 7543,14900 6149,14900 6149,14206 8831,12656 8831,14156 Z"/>
     <path fill="rgb(182,182,182)" stroke="none" d="M 7543,14900 L 6149,15706 6149,14900 7543,14900 Z M 8831,12656 L 9609,12206 9609,13706 8831,14156 8831,12656 Z M 8796,14176 L 7604,14865 6149,14865 6149,14206 8796,12676 8796,14176 Z"/>
     <path fill="rgb(183,183,183)" stroke="none" d="M 7604,14865 L 6149,15706 6149,14865 7604,14865 Z M 8796,12676 L 9609,12206 9609,13706 8796,14176 8796,12676 Z M 8761,14196 L 7664,14830 6149,14830 6149,14206 8761,12696 8761,14196 Z"/>
     <path fill="rgb(184,184,184)" stroke="none" d="M 7664,14830 L 6149,15706 6149,14830 7664,14830 Z M 8761,12696 L 9609,12206 9609,13706 8761,14196 8761,12696 Z M 8726,14216 L 7725,14795 6149,14795 6149,14206 8726,12716 8726,14216 Z"/>
     <path fill="rgb(185,185,185)" stroke="none" d="M 7725,14795 L 6149,15706 6149,14795 7725,14795 Z M 8726,12716 L 9609,12206 9609,13706 8726,14216 8726,12716 Z M 8691,14237 L 7786,14760 6149,14760 6149,14206 8691,12737 8691,14237 Z"/>
     <path fill="rgb(186,186,186)" stroke="none" d="M 7786,14760 L 6149,15706 6149,14760 7786,14760 Z M 8691,12737 L 9609,12206 9609,13706 8691,14237 8691,12737 Z M 8656,14257 L 7846,14725 6149,14725 6149,14206 8656,12757 8656,14257 Z"/>
     <path fill="rgb(187,187,187)" stroke="none" d="M 7846,14725 L 6149,15706 6149,14725 7846,14725 Z M 8656,12757 L 9609,12206 9609,13706 8656,14257 8656,12757 Z M 8621,14277 L 7907,14690 6149,14690 6149,14206 8621,12777 8621,14277 Z"/>
     <path fill="rgb(188,188,188)" stroke="none" d="M 7907,14690 L 6149,15706 6149,14690 7907,14690 Z M 8621,12777 L 9609,12206 9609,13706 8621,14277 8621,12777 Z M 8586,14297 L 7967,14655 6149,14655 6149,14206 8586,12797 8586,14297 Z"/>
     <path fill="rgb(189,189,189)" stroke="none" d="M 7967,14655 L 6149,15706 6149,14655 7967,14655 Z M 8586,12797 L 9609,12206 9609,13706 8586,14297 8586,12797 Z M 8551,14318 L 8028,14620 6149,14620 6149,14206 8551,12818 8551,14318 Z"/>
     <path fill="rgb(190,190,190)" stroke="none" d="M 8028,14620 L 6149,15706 6149,14620 8028,14620 Z M 8551,12818 L 9609,12206 9609,13706 8551,14318 8551,12818 Z M 8516,14338 L 8088,14585 6149,14585 6149,14206 8516,12838 8516,14338 Z"/>
     <path fill="rgb(191,191,191)" stroke="none" d="M 8088,14585 L 6149,15706 6149,14585 8088,14585 Z M 8516,12838 L 9609,12206 9609,13706 8516,14338 8516,12838 Z M 8481,14358 L 8149,14550 6149,14550 6149,14206 8481,12858 8481,14358 Z"/>
     <path fill="rgb(192,192,192)" stroke="none" d="M 8149,14550 L 6149,15706 6149,14550 8149,14550 Z M 8481,12858 L 9609,12206 9609,13706 8481,14358 8481,12858 Z M 8446,14378 L 8209,14515 6149,14515 6149,14206 8446,12878 8446,14378 Z"/>
     <path fill="rgb(193,193,193)" stroke="none" d="M 8209,14515 L 6149,15706 6149,14515 8209,14515 Z M 8446,12878 L 9609,12206 9609,13706 8446,14378 8446,12878 Z M 8411,14398 L 8270,14480 6149,14480 6149,14206 8411,12898 8411,14398 Z"/>
     <path fill="rgb(194,194,194)" stroke="none" d="M 8270,14480 L 6149,15706 6149,14480 8270,14480 Z M 8411,12898 L 9609,12206 9609,13706 8411,14398 8411,12898 Z M 8376,14419 L 8331,14445 6149,14445 6149,14206 8376,12919 8376,14419 Z"/>
     <path fill="rgb(195,195,195)" stroke="none" d="M 8331,14445 L 6149,15706 6149,14445 8331,14445 Z M 8376,12919 L 9609,12206 9609,13706 8376,14419 8376,12919 Z M 8341,14410 L 6149,14410 6149,14206 8341,12939 8341,14410 Z"/>
     <path fill="rgb(196,196,196)" stroke="none" d="M 8341,14410 L 8341,12939 9609,12206 9609,13706 6149,15706 6149,14410 8341,14410 Z M 8306,14375 L 6149,14375 6149,14206 8306,12959 8306,14375 Z"/>
     <path fill="rgb(197,197,197)" stroke="none" d="M 8306,14375 L 8306,12959 9609,12206 9609,13706 6149,15706 6149,14375 8306,14375 Z M 8271,14340 L 6149,14340 6149,14206 8271,12979 8271,14340 Z"/>
     <path fill="rgb(198,198,198)" stroke="none" d="M 8271,14340 L 8271,12979 9609,12206 9609,13706 6149,15706 6149,14340 8271,14340 Z M 8236,14305 L 6149,14305 6149,14206 8236,13000 8236,14305 Z"/>
     <path fill="rgb(199,199,199)" stroke="none" d="M 8236,14305 L 8236,13000 9609,12206 9609,13706 6149,15706 6149,14305 8236,14305 Z M 8201,14270 L 6170,14270 6170,14194 8201,13020 8201,14270 Z"/>
     <path fill="rgb(200,200,200)" stroke="none" d="M 6170,14270 L 8201,14270 8201,13020 9609,12206 9609,13706 6149,15706 6149,14206 6170,14194 6170,14270 Z M 8166,14235 L 6205,14235 6205,14174 8166,13040 8166,14235 Z"/>
     <path fill="rgb(201,201,201)" stroke="none" d="M 6205,14235 L 8166,14235 8166,13040 9609,12206 9609,13706 6149,15706 6149,14206 6205,14174 6205,14235 Z M 8131,14200 L 6240,14200 6240,14153 8131,13060 8131,14200 Z"/>
     <path fill="rgb(202,202,202)" stroke="none" d="M 6240,14200 L 8131,14200 8131,13060 9609,12206 9609,13706 6149,15706 6149,14206 6240,14153 6240,14200 Z M 8096,14165 L 6275,14165 6275,14133 8096,13081 8096,14165 Z"/>
     <path fill="rgb(203,203,203)" stroke="none" d="M 6275,14165 L 8096,14165 8096,13081 9609,12206 9609,13706 6149,15706 6149,14206 6275,14133 6275,14165 Z M 8061,14130 L 6310,14130 6310,14113 8061,13101 8061,14130 Z"/>
     <path fill="rgb(204,204,204)" stroke="none" d="M 6310,14130 L 8061,14130 8061,13101 9609,12206 9609,13706 6149,15706 6149,14206 6310,14113 6310,14130 Z M 8026,14095 L 6345,14095 6345,14093 8026,13121 8026,14095 Z"/>
     <path fill="rgb(205,205,205)" stroke="none" d="M 6345,14095 L 8026,14095 8026,13121 9609,12206 9609,13706 6149,15706 6149,14206 6345,14093 6345,14095 Z M 7991,14060 L 6402,14060 7991,13141 7991,14060 Z"/>
     <path fill="rgb(206,206,206)" stroke="none" d="M 7991,14060 L 7991,13141 9609,12206 9609,13706 6149,15706 6149,14206 6402,14060 7991,14060 Z M 7956,14025 L 6462,14025 7956,13161 7956,14025 Z"/>
     <path fill="rgb(207,207,207)" stroke="none" d="M 7956,14025 L 7956,13161 9609,12206 9609,13706 6149,15706 6149,14206 6462,14025 7956,14025 Z M 7921,13990 L 6523,13990 7921,13182 7921,13990 Z"/>
     <path fill="rgb(208,208,208)" stroke="none" d="M 7921,13990 L 7921,13182 9609,12206 9609,13706 6149,15706 6149,14206 6523,13990 7921,13990 Z M 7886,13955 L 6583,13955 7886,13202 7886,13955 Z"/>
     <path fill="rgb(209,209,209)" stroke="none" d="M 7886,13955 L 7886,13202 9609,12206 9609,13706 6149,15706 6149,14206 6583,13955 7886,13955 Z M 7851,13920 L 6644,13920 7851,13222 7851,13920 Z"/>
     <path fill="rgb(210,210,210)" stroke="none" d="M 7851,13920 L 7851,13222 9609,12206 9609,13706 6149,15706 6149,14206 6644,13920 7851,13920 Z M 7816,13885 L 6704,13885 7816,13242 7816,13885 Z"/>
     <path fill="rgb(211,211,211)" stroke="none" d="M 7816,13885 L 7816,13242 9609,12206 9609,13706 6149,15706 6149,14206 6704,13885 7816,13885 Z M 7781,13850 L 6765,13850 7781,13263 7781,13850 Z"/>
     <path fill="rgb(212,212,212)" stroke="none" d="M 7781,13850 L 7781,13263 9609,12206 9609,13706 6149,15706 6149,14206 6765,13850 7781,13850 Z M 7745,13814 L 6827,13814 7745,13283 7745,13814 Z"/>
     <path fill="rgb(213,213,213)" stroke="none" d="M 7745,13814 L 7745,13283 9609,12206 9609,13706 6149,15706 6149,14206 6827,13814 7745,13814 Z M 7710,13779 L 6888,13779 7710,13304 7710,13779 Z"/>
     <path fill="rgb(214,214,214)" stroke="none" d="M 7710,13779 L 7710,13304 9609,12206 9609,13706 6149,15706 6149,14206 6888,13779 7710,13779 Z M 7675,13744 L 6948,13744 7675,13324 7675,13744 Z"/>
     <path fill="rgb(215,215,215)" stroke="none" d="M 7675,13744 L 7675,13324 9609,12206 9609,13706 6149,15706 6149,14206 6948,13744 7675,13744 Z M 7640,13709 L 7009,13709 7640,13344 7640,13709 Z"/>
     <path fill="rgb(216,216,216)" stroke="none" d="M 7640,13709 L 7640,13344 9609,12206 9609,13706 6149,15706 6149,14206 7009,13709 7640,13709 Z M 7605,13674 L 7069,13674 7605,13364 7605,13674 Z"/>
     <path fill="rgb(217,217,217)" stroke="none" d="M 7605,13674 L 7605,13364 9609,12206 9609,13706 6149,15706 6149,14206 7069,13674 7605,13674 Z M 7570,13639 L 7130,13639 7570,13385 7570,13639 Z"/>
     <path fill="rgb(218,218,218)" stroke="none" d="M 7570,13639 L 7570,13385 9609,12206 9609,13706 6149,15706 6149,14206 7130,13639 7570,13639 Z M 7535,13604 L 7190,13604 7535,13405 7535,13604 Z"/>
     <path fill="rgb(219,219,219)" stroke="none" d="M 7535,13604 L 7535,13405 9609,12206 9609,13706 6149,15706 6149,14206 7190,13604 7535,13604 Z M 7500,13569 L 7251,13569 7500,13425 7500,13569 Z"/>
     <path fill="rgb(220,220,220)" stroke="none" d="M 7500,13569 L 7500,13425 9609,12206 9609,13706 6149,15706 6149,14206 7251,13569 7500,13569 Z M 7465,13534 L 7312,13534 7465,13445 7465,13534 Z"/>
     <path fill="rgb(221,221,221)" stroke="none" d="M 7465,13534 L 7465,13445 9609,12206 9609,13706 6149,15706 6149,14206 7312,13534 7465,13534 Z M 7430,13499 L 7372,13499 7430,13466 7430,13499 Z"/>
     <path fill="rgb(222,222,222)" stroke="none" d="M 7430,13499 L 7430,13466 9609,12206 9609,13706 6149,15706 6149,14206 7372,13499 7430,13499 Z"/>
     <path fill="rgb(223,223,223)" stroke="none" d="M 9609,13706 L 6149,15706 6149,14206 9609,12206 9609,13706 Z"/>
     <path fill="rgb(224,224,224)" stroke="none" d="M 9609,13706 L 6149,15706 6149,14206 9609,12206 9609,13706 Z"/>
     <path fill="rgb(225,225,225)" stroke="none" d="M 9609,13706 L 6149,15706 6149,14206 9609,12206 9609,13706 Z"/>
     <path fill="rgb(226,226,226)" stroke="none" d="M 9609,13706 L 6149,15706 6149,14206 9609,12206 9609,13706 Z"/>
     <path fill="rgb(227,227,227)" stroke="none" d="M 9609,13706 L 6149,15706 6149,14206 9609,12206 9609,13706 Z"/>
     <path fill="rgb(229,229,229)" stroke="none" d="M 9609,13706 L 6149,15706 6149,14206 9609,12206 9609,13706 Z"/>
     <path fill="none" stroke="rgb(255,255,255)" id="Drawing_2_0" stroke-width="40" stroke-linejoin="round" d="M 9609,13706 L 9609,12206 6149,14206 6149,15706 9609,13706 Z"/>
    </g>
    <g>
     <defs>
      <linearGradient id="Gradient_260" gradientUnits="userSpaceOnUse" x1="4417" y1="14454" x2="6151" y2="14458">
       <stop offset="0.1" stop-color="rgb(179,179,179)"/>
       <stop offset="1" stop-color="rgb(229,229,229)"/>
      </linearGradient>
     </defs>
     <path fill="url(#Gradient_260)" stroke="rgb(255,255,255)" id="Drawing_3_0" stroke-width="40" stroke-linejoin="round" d="M 6149,15706 L 6149,14206 4419,13206 4419,14706 6149,15706 Z"/>
    </g>
    <g>
     <defs>
      <linearGradient id="Gradient_261" gradientUnits="userSpaceOnUse" x1="7014" y1="11206" x2="7014" y2="14206">
       <stop offset="0.1" stop-color="rgb(179,179,179)"/>
       <stop offset="1" stop-color="rgb(229,229,229)"/>
      </linearGradient>
     </defs>
     <path fill="url(#Gradient_261)" stroke="rgb(255,255,255)" id="Drawing_4_0" stroke-width="40" stroke-linejoin="round" d="M 6149,14206 L 9609,12206 7879,11206 4419,13206 6149,14206 Z"/>
    </g>
    <g>
     <path fill="rgb(57,181,74)" stroke="none" d="M 9315,12806 L 9315,12606 9142,12706 9142,12906 9315,12806 Z"/>
     <path fill="none" stroke="rgb(0,0,0)" id="Drawing_5_0" stroke-width="40" stroke-linejoin="round" d="M 9315,12806 L 9315,12606 9142,12706 9142,12906 9315,12806 Z"/>
    </g>
    <g>
     <defs>
      <linearGradient id="Gradient_262" gradientUnits="userSpaceOnUse" x1="7013" y1="15129" x2="8745" y2="15133">
       <stop offset="0.1" stop-color="rgb(179,179,179)"/>
       <stop offset="1" stop-color="rgb(229,229,229)"/>
      </linearGradient>
     </defs>
     <path fill="url(#Gradient_262)" stroke="rgb(255,255,255)" id="Drawing_6_0" stroke-width="40" stroke-linejoin="round" d="M 8744,15356 L 7014,14656 7014,15056 8744,15606 8744,15356 Z"/>
    </g>
    <g>
     <defs>
      <linearGradient id="Gradient_263" gradientUnits="userSpaceOnUse" x1="8744" y1="13656" x2="8744" y2="15356">
       <stop offset="0.1" stop-color="rgb(179,179,179)"/>
       <stop offset="1" stop-color="rgb(229,229,229)"/>
      </linearGradient>
     </defs>
     <path fill="url(#Gradient_263)" stroke="rgb(255,255,255)" id="Drawing_7_0" stroke-width="40" stroke-linejoin="round" d="M 8744,15356 L 10474,14356 8744,13656 7014,14656 8744,15356 Z"/>
    </g>
    <g>
     <path fill="rgb(179,179,179)" stroke="none" d="M 10110,14816 L 8792,15578 8744,15578 8744,15356 10110,14566 10110,14816 Z"/>
     <path fill="rgb(180,180,180)" stroke="none" d="M 8792,15578 L 8744,15606 8744,15578 8792,15578 Z M 10110,14566 L 10474,14356 10474,14606 10110,14816 10110,14566 Z M 10093,14826 L 8822,15561 8744,15561 8744,15356 10093,14576 10093,14826 Z"/>
     <path fill="rgb(181,181,181)" stroke="none" d="M 8822,15561 L 8744,15606 8744,15561 8822,15561 Z M 10093,14576 L 10474,14356 10474,14606 10093,14826 10093,14576 Z M 10076,14836 L 8851,15544 8744,15544 8744,15356 10076,14586 10076,14836 Z"/>
     <path fill="rgb(182,182,182)" stroke="none" d="M 8851,15544 L 8744,15606 8744,15544 8851,15544 Z M 10076,14586 L 10474,14356 10474,14606 10076,14836 10076,14586 Z M 10058,14846 L 8882,15526 8744,15526 8744,15356 10058,14596 10058,14846 Z"/>
     <path fill="rgb(183,183,183)" stroke="none" d="M 8882,15526 L 8744,15606 8744,15526 8882,15526 Z M 10058,14596 L 10474,14356 10474,14606 10058,14846 10058,14596 Z M 10041,14856 L 8912,15509 8744,15509 8744,15356 10041,14606 10041,14856 Z"/>
     <path fill="rgb(184,184,184)" stroke="none" d="M 8912,15509 L 8744,15606 8744,15509 8912,15509 Z M 10041,14606 L 10474,14356 10474,14606 10041,14856 10041,14606 Z M 10024,14866 L 8941,15492 8744,15492 8744,15356 10024,14616 10024,14866 Z"/>
     <path fill="rgb(185,185,185)" stroke="none" d="M 8941,15492 L 8744,15606 8744,15492 8941,15492 Z M 10024,14616 L 10474,14356 10474,14606 10024,14866 10024,14616 Z M 10006,14877 L 8972,15474 8744,15474 8744,15356 10006,14627 10006,14877 Z"/>
     <path fill="rgb(186,186,186)" stroke="none" d="M 8972,15474 L 8744,15606 8744,15474 8972,15474 Z M 10006,14627 L 10474,14356 10474,14606 10006,14877 10006,14627 Z M 9989,14886 L 9002,15457 8744,15457 8744,15356 9989,14636 9989,14886 Z"/>
     <path fill="rgb(187,187,187)" stroke="none" d="M 9002,15457 L 8744,15606 8744,15457 9002,15457 Z M 9989,14636 L 10474,14356 10474,14606 9989,14886 9989,14636 Z M 9972,14896 L 9031,15440 8744,15440 8744,15356 9972,14646 9972,14896 Z"/>
     <path fill="rgb(188,188,188)" stroke="none" d="M 9031,15440 L 8744,15606 8744,15440 9031,15440 Z M 9972,14646 L 10474,14356 10474,14606 9972,14896 9972,14646 Z M 9954,14907 L 9062,15422 8744,15422 8744,15356 9954,14657 9954,14907 Z"/>
     <path fill="rgb(189,189,189)" stroke="none" d="M 9062,15422 L 8744,15606 8744,15422 9062,15422 Z M 9954,14657 L 10474,14356 10474,14606 9954,14907 9954,14657 Z M 9937,14916 L 9092,15405 8744,15405 8744,15356 9937,14666 9937,14916 Z"/>
     <path fill="rgb(190,190,190)" stroke="none" d="M 9092,15405 L 8744,15606 8744,15405 9092,15405 Z M 9937,14666 L 10474,14356 10474,14606 9937,14916 9937,14666 Z M 9920,14926 L 9121,15388 8744,15388 8744,15356 9920,14676 9920,14926 Z"/>
     <path fill="rgb(191,191,191)" stroke="none" d="M 9121,15388 L 8744,15606 8744,15388 9121,15388 Z M 9920,14676 L 10474,14356 10474,14606 9920,14926 9920,14676 Z M 9902,14937 L 9152,15370 8744,15370 8744,15356 9902,14687 9902,14937 Z"/>
     <path fill="rgb(192,192,192)" stroke="none" d="M 9152,15370 L 8744,15606 8744,15370 9152,15370 Z M 9902,14687 L 10474,14356 10474,14606 9902,14937 9902,14687 Z M 9885,14946 L 9182,15353 8749,15353 9885,14696 9885,14946 Z"/>
     <path fill="rgb(193,193,193)" stroke="none" d="M 9182,15353 L 8744,15606 8744,15356 8749,15353 9182,15353 Z M 9885,14696 L 10474,14356 10474,14606 9885,14946 9885,14696 Z M 9868,14956 L 9211,15336 8779,15336 9868,14706 9868,14956 Z"/>
     <path fill="rgb(194,194,194)" stroke="none" d="M 9211,15336 L 8744,15606 8744,15356 8779,15336 9211,15336 Z M 9868,14706 L 10474,14356 10474,14606 9868,14956 9868,14706 Z M 9850,14967 L 9242,15318 8810,15318 9850,14717 9850,14967 Z"/>
     <path fill="rgb(195,195,195)" stroke="none" d="M 9242,15318 L 8744,15606 8744,15356 8810,15318 9242,15318 Z M 9850,14717 L 10474,14356 10474,14606 9850,14967 9850,14717 Z M 9833,14977 L 9272,15301 8839,15301 9833,14727 9833,14977 Z"/>
     <path fill="rgb(196,196,196)" stroke="none" d="M 9272,15301 L 8744,15606 8744,15356 8839,15301 9272,15301 Z M 9833,14727 L 10474,14356 10474,14606 9833,14977 9833,14727 Z M 9816,14986 L 9301,15284 8869,15284 9816,14736 9816,14986 Z"/>
     <path fill="rgb(197,197,197)" stroke="none" d="M 9301,15284 L 8744,15606 8744,15356 8869,15284 9301,15284 Z M 9816,14736 L 10474,14356 10474,14606 9816,14986 9816,14736 Z M 9798,14997 L 9332,15266 8900,15266 9798,14747 9798,14997 Z"/>
     <path fill="rgb(198,198,198)" stroke="none" d="M 9332,15266 L 8744,15606 8744,15356 8900,15266 9332,15266 Z M 9798,14747 L 10474,14356 10474,14606 9798,14997 9798,14747 Z M 9781,15007 L 9362,15249 8929,15249 9781,14757 9781,15007 Z"/>
     <path fill="rgb(199,199,199)" stroke="none" d="M 9362,15249 L 8744,15606 8744,15356 8929,15249 9362,15249 Z M 9781,14757 L 10474,14356 10474,14606 9781,15007 9781,14757 Z M 9764,15016 L 9391,15232 8959,15232 9764,14766 9764,15016 Z"/>
     <path fill="rgb(200,200,200)" stroke="none" d="M 9391,15232 L 8744,15606 8744,15356 8959,15232 9391,15232 Z M 9764,14766 L 10474,14356 10474,14606 9764,15016 9764,14766 Z M 9746,15027 L 9422,15214 8990,15214 9746,14777 9746,15027 Z"/>
     <path fill="rgb(201,201,201)" stroke="none" d="M 9422,15214 L 8744,15606 8744,15356 8990,15214 9422,15214 Z M 9746,14777 L 10474,14356 10474,14606 9746,15027 9746,14777 Z M 9729,15037 L 9452,15197 9019,15197 9729,14787 9729,15037 Z"/>
     <path fill="rgb(202,202,202)" stroke="none" d="M 9452,15197 L 8744,15606 8744,15356 9019,15197 9452,15197 Z M 9729,14787 L 10474,14356 10474,14606 9729,15037 9729,14787 Z M 9712,15046 L 9481,15180 9048,15180 9712,14796 9712,15046 Z"/>
     <path fill="rgb(203,203,203)" stroke="none" d="M 9481,15180 L 8744,15606 8744,15356 9048,15180 9481,15180 Z M 9712,14796 L 10474,14356 10474,14606 9712,15046 9712,14796 Z M 9694,15057 L 9512,15162 9080,15162 9694,14807 9694,15057 Z"/>
     <path fill="rgb(204,204,204)" stroke="none" d="M 9512,15162 L 8744,15606 8744,15356 9080,15162 9512,15162 Z M 9694,14807 L 10474,14356 10474,14606 9694,15057 9694,14807 Z M 9677,15067 L 9542,15145 9109,15145 9677,14817 9677,15067 Z"/>
     <path fill="rgb(205,205,205)" stroke="none" d="M 9542,15145 L 8744,15606 8744,15356 9109,15145 9542,15145 Z M 9677,14817 L 10474,14356 10474,14606 9677,15067 9677,14817 Z M 9660,15077 L 9571,15128 9138,15128 9660,14827 9660,15077 Z"/>
     <path fill="rgb(206,206,206)" stroke="none" d="M 9571,15128 L 8744,15606 8744,15356 9138,15128 9571,15128 Z M 9660,14827 L 10474,14356 10474,14606 9660,15077 9660,14827 Z M 9642,15087 L 9602,15110 9170,15110 9642,14837 9642,15087 Z"/>
     <path fill="rgb(207,207,207)" stroke="none" d="M 9602,15110 L 8744,15606 8744,15356 9170,15110 9602,15110 Z M 9642,14837 L 10474,14356 10474,14606 9642,15087 9642,14837 Z M 9625,15093 L 9199,15093 9625,14847 9625,15093 Z"/>
     <path fill="rgb(208,208,208)" stroke="none" d="M 9625,15093 L 9625,14847 10474,14356 10474,14606 8744,15606 8744,15356 9199,15093 9625,15093 Z M 9608,15076 L 9228,15076 9608,14857 9608,15076 Z"/>
     <path fill="rgb(209,209,209)" stroke="none" d="M 9608,15076 L 9608,14857 10474,14356 10474,14606 8744,15606 8744,15356 9228,15076 9608,15076 Z M 9590,15058 L 9260,15058 9590,14867 9590,15058 Z"/>
     <path fill="rgb(210,210,210)" stroke="none" d="M 9590,15058 L 9590,14867 10474,14356 10474,14606 8744,15606 8744,15356 9260,15058 9590,15058 Z M 9573,15041 L 9289,15041 9573,14877 9573,15041 Z"/>
     <path fill="rgb(211,211,211)" stroke="none" d="M 9573,15041 L 9573,14877 10474,14356 10474,14606 8744,15606 8744,15356 9289,15041 9573,15041 Z M 9556,15024 L 9318,15024 9556,14887 9556,15024 Z"/>
     <path fill="rgb(212,212,212)" stroke="none" d="M 9556,15024 L 9556,14887 10474,14356 10474,14606 8744,15606 8744,15356 9318,15024 9556,15024 Z M 9538,15006 L 9350,15006 9538,14897 9538,15006 Z"/>
     <path fill="rgb(213,213,213)" stroke="none" d="M 9538,15006 L 9538,14897 10474,14356 10474,14606 8744,15606 8744,15356 9350,15006 9538,15006 Z M 9521,14989 L 9379,14989 9521,14907 9521,14989 Z"/>
     <path fill="rgb(214,214,214)" stroke="none" d="M 9521,14989 L 9521,14907 10474,14356 10474,14606 8744,15606 8744,15356 9379,14989 9521,14989 Z M 9504,14972 L 9408,14972 9504,14917 9504,14972 Z"/>
     <path fill="rgb(215,215,215)" stroke="none" d="M 9504,14972 L 9504,14917 10474,14356 10474,14606 8744,15606 8744,15356 9408,14972 9504,14972 Z M 9486,14954 L 9439,14954 9486,14927 9486,14954 Z"/>
     <path fill="rgb(216,216,216)" stroke="none" d="M 9486,14954 L 9486,14927 10474,14356 10474,14606 8744,15606 8744,15356 9439,14954 9486,14954 Z M 9469,14937 L 9469,14937 9469,14937 9469,14937 Z"/>
     <path fill="rgb(217,217,217)" stroke="none" d="M 9469,14937 L 9469,14937 10474,14356 10474,14606 8744,15606 8744,15356 9469,14937 9469,14937 Z"/>
     <path fill="rgb(218,218,218)" stroke="none" d="M 10474,14606 L 8744,15606 8744,15356 10474,14356 10474,14606 Z"/>
     <path fill="rgb(219,219,219)" stroke="none" d="M 10474,14606 L 8744,15606 8744,15356 10474,14356 10474,14606 Z"/>
     <path fill="rgb(220,220,220)" stroke="none" d="M 10474,14606 L 8744,15606 8744,15356 10474,14356 10474,14606 Z"/>
     <path fill="rgb(221,221,221)" stroke="none" d="M 10474,14606 L 8744,15606 8744,15356 10474,14356 10474,14606 Z"/>
     <path fill="rgb(222,222,222)" stroke="none" d="M 10474,14606 L 8744,15606 8744,15356 10474,14356 10474,14606 Z"/>
     <path fill="rgb(223,223,223)" stroke="none" d="M 10474,14606 L 8744,15606 8744,15356 10474,14356 10474,14606 Z"/>
     <path fill="rgb(224,224,224)" stroke="none" d="M 10474,14606 L 8744,15606 8744,15356 10474,14356 10474,14606 Z"/>
     <path fill="rgb(225,225,225)" stroke="none" d="M 10474,14606 L 8744,15606 8744,15356 10474,14356 10474,14606 Z"/>
     <path fill="rgb(226,226,226)" stroke="none" d="M 10474,14606 L 8744,15606 8744,15356 10474,14356 10474,14606 Z"/>
     <path fill="rgb(227,227,227)" stroke="none" d="M 10474,14606 L 8744,15606 8744,15356 10474,14356 10474,14606 Z"/>
     <path fill="rgb(229,229,229)" stroke="none" d="M 10474,14606 L 8744,15606 8744,15356 10474,14356 10474,14606 Z"/>
     <path fill="none" stroke="rgb(255,255,255)" id="Drawing_8_0" stroke-width="40" stroke-linejoin="round" d="M 10474,14606 L 10474,14356 8744,15356 8744,15606 10474,14606 Z"/>
    </g>
    <g>
     <path fill="none" stroke="rgb(0,0,0)" id="Drawing_9_0" stroke-width="40" stroke-linejoin="round" d="M 9609,13706 L 9609,12206 7879,11206 4419,13206 4419,14706 6149,15706 7187,15106 8744,15606 10474,14606 10474,14356 9263,13856 9609,13706 Z"/>
    </g>
    <g>
     <path fill="rgb(255,255,255)" stroke="none" d="M 9176,15256 C 9523,15056 10042,14756 10388,14556 9955,14306 9090,13956 8484,13806 8139,14006 7706,14256 7274,14506 7793,14656 8658,15006 9176,15256 Z"/>
     <path fill="none" stroke="rgb(128,128,128)" id="Drawing_10_0" stroke-width="40" stroke-linejoin="round" d="M 9176,15256 C 9523,15056 10042,14756 10388,14556 9955,14306 9090,13956 8484,13806 8139,14006 7706,14256 7274,14506 7793,14656 8658,15006 9176,15256 Z"/>
    </g>
    <g>
     <path fill="none" stroke="rgb(127,127,127)" id="Drawing_11_0" stroke-width="40" stroke-linejoin="round" d="M 8744,13656 L 8744,13456 7014,14456 7014,14606"/>
    </g>
    <g>
     <defs>
      <linearGradient id="Gradient_264" gradientUnits="userSpaceOnUse" x1="7100" y1="11806" x2="7100" y2="13706">
       <stop offset="0.1" stop-color="rgb(179,179,179)"/>
       <stop offset="1" stop-color="rgb(229,229,229)"/>
      </linearGradient>
     </defs>
     <path fill="url(#Gradient_264)" stroke="rgb(255,255,255)" id="Drawing_12_0" stroke-width="40" stroke-linejoin="round" d="M 7014,13706 L 8744,12706 7187,11806 5457,12806 7014,13706 Z"/>
    </g>
    <g>
     <path fill="rgb(179,179,179)" stroke="none" d="M 8380,13416 L 7365,14003 7014,14003 7014,13706 8380,12916 8380,13416 Z"/>
     <path fill="rgb(180,180,180)" stroke="none" d="M 7365,14003 L 7014,14206 7014,14003 7365,14003 Z M 8380,12916 L 8744,12706 8744,13206 8380,13416 8380,12916 Z M 8363,13426 L 7395,13986 7014,13986 7014,13706 8363,12926 8363,13426 Z"/>
     <path fill="rgb(181,181,181)" stroke="none" d="M 7395,13986 L 7014,14206 7014,13986 7395,13986 Z M 8363,12926 L 8744,12706 8744,13206 8363,13426 8363,12926 Z M 8346,13436 L 7424,13969 7014,13969 7014,13706 8346,12936 8346,13436 Z"/>
     <path fill="rgb(182,182,182)" stroke="none" d="M 7424,13969 L 7014,14206 7014,13969 7424,13969 Z M 8346,12936 L 8744,12706 8744,13206 8346,13436 8346,12936 Z M 8328,13446 L 7455,13951 7014,13951 7014,13706 8328,12946 8328,13446 Z"/>
     <path fill="rgb(183,183,183)" stroke="none" d="M 7455,13951 L 7014,14206 7014,13951 7455,13951 Z M 8328,12946 L 8744,12706 8744,13206 8328,13446 8328,12946 Z M 8311,13456 L 7485,13934 7014,13934 7014,13706 8311,12956 8311,13456 Z"/>
     <path fill="rgb(184,184,184)" stroke="none" d="M 7485,13934 L 7014,14206 7014,13934 7485,13934 Z M 8311,12956 L 8744,12706 8744,13206 8311,13456 8311,12956 Z M 8294,13466 L 7514,13917 7014,13917 7014,13706 8294,12966 8294,13466 Z"/>
     <path fill="rgb(185,185,185)" stroke="none" d="M 7514,13917 L 7014,14206 7014,13917 7514,13917 Z M 8294,12966 L 8744,12706 8744,13206 8294,13466 8294,12966 Z M 8276,13477 L 7545,13899 7014,13899 7014,13706 8276,12977 8276,13477 Z"/>
     <path fill="rgb(186,186,186)" stroke="none" d="M 7545,13899 L 7014,14206 7014,13899 7545,13899 Z M 8276,12977 L 8744,12706 8744,13206 8276,13477 8276,12977 Z M 8259,13486 L 7575,13882 7014,13882 7014,13706 8259,12986 8259,13486 Z"/>
     <path fill="rgb(187,187,187)" stroke="none" d="M 7575,13882 L 7014,14206 7014,13882 7575,13882 Z M 8259,12986 L 8744,12706 8744,13206 8259,13486 8259,12986 Z M 8242,13496 L 7604,13865 7014,13865 7014,13706 8242,12996 8242,13496 Z"/>
     <path fill="rgb(188,188,188)" stroke="none" d="M 7604,13865 L 7014,14206 7014,13865 7604,13865 Z M 8242,12996 L 8744,12706 8744,13206 8242,13496 8242,12996 Z M 8224,13507 L 7635,13847 7014,13847 7014,13706 8224,13007 8224,13507 Z"/>
     <path fill="rgb(189,189,189)" stroke="none" d="M 7635,13847 L 7014,14206 7014,13847 7635,13847 Z M 8224,13007 L 8744,12706 8744,13206 8224,13507 8224,13007 Z M 8207,13516 L 7664,13830 7014,13830 7014,13706 8207,13016 8207,13516 Z"/>
     <path fill="rgb(190,190,190)" stroke="none" d="M 7664,13830 L 7014,14206 7014,13830 7664,13830 Z M 8207,13016 L 8744,12706 8744,13206 8207,13516 8207,13016 Z M 8190,13526 L 7694,13813 7014,13813 7014,13706 8190,13026 8190,13526 Z"/>
     <path fill="rgb(191,191,191)" stroke="none" d="M 7694,13813 L 7014,14206 7014,13813 7694,13813 Z M 8190,13026 L 8744,12706 8744,13206 8190,13526 8190,13026 Z M 8172,13537 L 7725,13795 7014,13795 7014,13706 8172,13037 8172,13537 Z"/>
     <path fill="rgb(192,192,192)" stroke="none" d="M 7725,13795 L 7014,14206 7014,13795 7725,13795 Z M 8172,13037 L 8744,12706 8744,13206 8172,13537 8172,13037 Z M 8155,13546 L 7754,13778 7014,13778 7014,13706 8155,13046 8155,13546 Z"/>
     <path fill="rgb(193,193,193)" stroke="none" d="M 7754,13778 L 7014,14206 7014,13778 7754,13778 Z M 8155,13046 L 8744,12706 8744,13206 8155,13546 8155,13046 Z M 8138,13556 L 7784,13761 7014,13761 7014,13706 8138,13056 8138,13556 Z"/>
     <path fill="rgb(194,194,194)" stroke="none" d="M 7784,13761 L 7014,14206 7014,13761 7784,13761 Z M 8138,13056 L 8744,12706 8744,13206 8138,13556 8138,13056 Z M 8120,13567 L 7815,13743 7014,13743 7014,13706 8120,13067 8120,13567 Z"/>
     <path fill="rgb(195,195,195)" stroke="none" d="M 7815,13743 L 7014,14206 7014,13743 7815,13743 Z M 8120,13067 L 8744,12706 8744,13206 8120,13567 8120,13067 Z M 8103,13577 L 7844,13726 7014,13726 7014,13706 8103,13077 8103,13577 Z"/>
     <path fill="rgb(196,196,196)" stroke="none" d="M 7844,13726 L 7014,14206 7014,13726 7844,13726 Z M 8103,13077 L 8744,12706 8744,13206 8103,13577 8103,13077 Z M 8086,13586 L 7874,13709 7014,13709 7014,13706 8086,13086 8086,13586 Z"/>
     <path fill="rgb(197,197,197)" stroke="none" d="M 7874,13709 L 7014,14206 7014,13709 7874,13709 Z M 8086,13086 L 8744,12706 8744,13206 8086,13586 8086,13086 Z M 8068,13597 L 7905,13691 7040,13691 8068,13097 8068,13597 Z"/>
     <path fill="rgb(198,198,198)" stroke="none" d="M 7905,13691 L 7014,14206 7014,13706 7040,13691 7905,13691 Z M 8068,13097 L 8744,12706 8744,13206 8068,13597 8068,13097 Z M 8051,13607 L 7934,13674 7069,13674 8051,13107 8051,13607 Z"/>
     <path fill="rgb(199,199,199)" stroke="none" d="M 7934,13674 L 7014,14206 7014,13706 7069,13674 7934,13674 Z M 8051,13107 L 8744,12706 8744,13206 8051,13607 8051,13107 Z M 8034,13616 L 7964,13657 7099,13657 8034,13116 8034,13616 Z"/>
     <path fill="rgb(200,200,200)" stroke="none" d="M 7964,13657 L 7014,14206 7014,13706 7099,13657 7964,13657 Z M 8034,13116 L 8744,12706 8744,13206 8034,13616 8034,13116 Z M 8016,13627 L 7995,13639 7130,13639 8016,13127 8016,13627 Z"/>
     <path fill="rgb(201,201,201)" stroke="none" d="M 7995,13639 L 7014,14206 7014,13706 7130,13639 7995,13639 Z M 8016,13127 L 8744,12706 8744,13206 8016,13627 8016,13127 Z M 7999,13622 L 7159,13622 7999,13137 7999,13622 Z"/>
     <path fill="rgb(202,202,202)" stroke="none" d="M 7999,13622 L 7999,13137 8744,12706 8744,13206 7014,14206 7014,13706 7159,13622 7999,13622 Z M 7982,13605 L 7189,13605 7982,13146 7982,13605 Z"/>
     <path fill="rgb(203,203,203)" stroke="none" d="M 7982,13605 L 7982,13146 8744,12706 8744,13206 7014,14206 7014,13706 7189,13605 7982,13605 Z M 7964,13587 L 7220,13587 7964,13157 7964,13587 Z"/>
     <path fill="rgb(204,204,204)" stroke="none" d="M 7964,13587 L 7964,13157 8744,12706 8744,13206 7014,14206 7014,13706 7220,13587 7964,13587 Z M 7947,13570 L 7249,13570 7947,13167 7947,13570 Z"/>
     <path fill="rgb(205,205,205)" stroke="none" d="M 7947,13570 L 7947,13167 8744,12706 8744,13206 7014,14206 7014,13706 7249,13570 7947,13570 Z M 7930,13553 L 7279,13553 7930,13177 7930,13553 Z"/>
     <path fill="rgb(206,206,206)" stroke="none" d="M 7930,13553 L 7930,13177 8744,12706 8744,13206 7014,14206 7014,13706 7279,13553 7930,13553 Z M 7912,13535 L 7310,13535 7912,13187 7912,13535 Z"/>
     <path fill="rgb(207,207,207)" stroke="none" d="M 7912,13535 L 7912,13187 8744,12706 8744,13206 7014,14206 7014,13706 7310,13535 7912,13535 Z M 7895,13518 L 7339,13518 7895,13197 7895,13518 Z"/>
     <path fill="rgb(208,208,208)" stroke="none" d="M 7895,13518 L 7895,13197 8744,12706 8744,13206 7014,14206 7014,13706 7339,13518 7895,13518 Z M 7878,13501 L 7369,13501 7878,13207 7878,13501 Z"/>
     <path fill="rgb(209,209,209)" stroke="none" d="M 7878,13501 L 7878,13207 8744,12706 8744,13206 7014,14206 7014,13706 7369,13501 7878,13501 Z M 7860,13483 L 7400,13483 7860,13217 7860,13483 Z"/>
     <path fill="rgb(210,210,210)" stroke="none" d="M 7860,13483 L 7860,13217 8744,12706 8744,13206 7014,14206 7014,13706 7400,13483 7860,13483 Z M 7843,13466 L 7429,13466 7843,13227 7843,13466 Z"/>
     <path fill="rgb(211,211,211)" stroke="none" d="M 7843,13466 L 7843,13227 8744,12706 8744,13206 7014,14206 7014,13706 7429,13466 7843,13466 Z M 7826,13449 L 7459,13449 7826,13237 7826,13449 Z"/>
     <path fill="rgb(212,212,212)" stroke="none" d="M 7826,13449 L 7826,13237 8744,12706 8744,13206 7014,14206 7014,13706 7459,13449 7826,13449 Z M 7808,13431 L 7490,13431 7808,13247 7808,13431 Z"/>
     <path fill="rgb(213,213,213)" stroke="none" d="M 7808,13431 L 7808,13247 8744,12706 8744,13206 7014,14206 7014,13706 7490,13431 7808,13431 Z M 7791,13414 L 7519,13414 7791,13257 7791,13414 Z"/>
     <path fill="rgb(214,214,214)" stroke="none" d="M 7791,13414 L 7791,13257 8744,12706 8744,13206 7014,14206 7014,13706 7519,13414 7791,13414 Z M 7774,13397 L 7549,13397 7774,13267 7774,13397 Z"/>
     <path fill="rgb(215,215,215)" stroke="none" d="M 7774,13397 L 7774,13267 8744,12706 8744,13206 7014,14206 7014,13706 7549,13397 7774,13397 Z M 7756,13379 L 7580,13379 7756,13277 7756,13379 Z"/>
     <path fill="rgb(216,216,216)" stroke="none" d="M 7756,13379 L 7756,13277 8744,12706 8744,13206 7014,14206 7014,13706 7580,13379 7756,13379 Z M 7739,13362 L 7609,13362 7739,13287 7739,13362 Z"/>
     <path fill="rgb(217,217,217)" stroke="none" d="M 7739,13362 L 7739,13287 8744,12706 8744,13206 7014,14206 7014,13706 7609,13362 7739,13362 Z M 7722,13345 L 7639,13345 7722,13297 7722,13345 Z"/>
     <path fill="rgb(218,218,218)" stroke="none" d="M 7722,13345 L 7722,13297 8744,12706 8744,13206 7014,14206 7014,13706 7639,13345 7722,13345 Z M 7704,13327 L 7670,13327 7704,13307 7704,13327 Z"/>
     <path fill="rgb(219,219,219)" stroke="none" d="M 7704,13327 L 7704,13307 8744,12706 8744,13206 7014,14206 7014,13706 7670,13327 7704,13327 Z"/>
     <path fill="rgb(220,220,220)" stroke="none" d="M 8744,13206 L 7014,14206 7014,13706 8744,12706 8744,13206 Z"/>
     <path fill="rgb(221,221,221)" stroke="none" d="M 8744,13206 L 7014,14206 7014,13706 8744,12706 8744,13206 Z"/>
     <path fill="rgb(222,222,222)" stroke="none" d="M 8744,13206 L 7014,14206 7014,13706 8744,12706 8744,13206 Z"/>
     <path fill="rgb(223,223,223)" stroke="none" d="M 8744,13206 L 7014,14206 7014,13706 8744,12706 8744,13206 Z"/>
     <path fill="rgb(224,224,224)" stroke="none" d="M 8744,13206 L 7014,14206 7014,13706 8744,12706 8744,13206 Z"/>
     <path fill="rgb(225,225,225)" stroke="none" d="M 8744,13206 L 7014,14206 7014,13706 8744,12706 8744,13206 Z"/>
     <path fill="rgb(226,226,226)" stroke="none" d="M 8744,13206 L 7014,14206 7014,13706 8744,12706 8744,13206 Z"/>
     <path fill="rgb(227,227,227)" stroke="none" d="M 8744,13206 L 7014,14206 7014,13706 8744,12706 8744,13206 Z"/>
     <path fill="rgb(229,229,229)" stroke="none" d="M 8744,13206 L 7014,14206 7014,13706 8744,12706 8744,13206 Z"/>
     <path fill="none" stroke="rgb(255,255,255)" id="Drawing_13_0" stroke-width="40" stroke-linejoin="round" d="M 8744,13206 L 8744,12706 7014,13706 7014,14206 8744,13206 Z"/>
    </g>
   </g>
  </g>
 </g>
</svg>