<?xml version="1.0" encoding="UTF-8"?>

<svg version="1.2" baseProfile="tiny" width="63.91mm" height="45.4mm" viewBox="3344 5591 6391 4540" preserveAspectRatio="xMidYMid" fill-rule="evenodd" stroke-width="28.222" stroke-linejoin="round" xmlns="http://www.w3.org/2000/svg" xmlns:xlink="http://www.w3.org/1999/xlink" xml:space="preserve">
 <g visibility="visible" id="Slide_1">
  <g id="DrawingGroup_1">
   <g>
    <path fill="rgb(221,221,221)" stroke="none" d="M 7692,10111 C 7930,10111 9260,9616 9581,9368 9857,9155 9657,8911 9419,8911 9419,9061 7606,9011 7692,10111 Z"/>
    <path fill="none" stroke="rgb(221,221,221)" id="Drawing_1_0" stroke-width="40" stroke-linejoin="round" d="M 7692,10111 C 7930,10111 9260,9616 9581,9368 9857,9155 9657,8911 9419,8911 9419,9061 7606,9011 7692,10111 Z"/>
   </g>
   <g id="DrawingGroup_2">
    <g>
     <defs>
      <linearGradient id="Gradient_243" gradientUnits="userSpaceOnUse" x1="4226" y1="8358" x2="7692" y2="8364">
       <stop offset="0.1" stop-color="rgb(179,179,179)"/>
       <stop offset="1" stop-color="rgb(229,229,229)"/>
      </linearGradient>
     </defs>
     <path fill="url(#Gradient_243)" stroke="rgb(255,255,255)" id="Drawing_2_0" stroke-width="40" stroke-linejoin="round" d="M 4229,8111 L 4229,6611 7689,8611 7689,10111 4229,8111 Z"/>
    </g>
    <g>
     <path fill="rgb(179,179,179)" stroke="none" d="M 7689,9585 L 7689,8611 9419,7611 9419,9111 8599,9585 7689,9585 Z"/>
     <path fill="rgb(180,180,180)" stroke="none" d="M 8599,9585 L 7689,10111 7689,9585 8599,9585 Z M 9407,9118 L 8642,9560 7689,9560 7689,8611 9407,7618 9407,9118 Z"/>
     <path fill="rgb(181,181,181)" stroke="none" d="M 8642,9560 L 7689,10111 7689,9560 8642,9560 Z M 9407,7618 L 9419,7611 9419,9111 9407,9118 9407,7618 Z M 9382,9132 L 8685,9535 7689,9535 7689,8611 9382,7632 9382,9132 Z"/>
     <path fill="rgb(182,182,182)" stroke="none" d="M 8685,9535 L 7689,10111 7689,9535 8685,9535 Z M 9382,7632 L 9419,7611 9419,9111 9382,9132 9382,7632 Z M 9357,9147 L 8729,9510 7689,9510 7689,8611 9357,7647 9357,9147 Z"/>
     <path fill="rgb(183,183,183)" stroke="none" d="M 8729,9510 L 7689,10111 7689,9510 8729,9510 Z M 9357,7647 L 9419,7611 9419,9111 9357,9147 9357,7647 Z M 9332,9161 L 8772,9485 7689,9485 7689,8611 9332,7661 9332,9161 Z"/>
     <path fill="rgb(184,184,184)" stroke="none" d="M 8772,9485 L 7689,10111 7689,9485 8772,9485 Z M 9332,7661 L 9419,7611 9419,9111 9332,9161 9332,7661 Z M 9307,9176 L 8815,9460 7689,9460 7689,8611 9307,7676 9307,9176 Z"/>
     <path fill="rgb(185,185,185)" stroke="none" d="M 8815,9460 L 7689,10111 7689,9460 8815,9460 Z M 9307,7676 L 9419,7611 9419,9111 9307,9176 9307,7676 Z M 9282,9190 L 8858,9435 7689,9435 7689,8611 9282,7690 9282,9190 Z"/>
     <path fill="rgb(186,186,186)" stroke="none" d="M 8858,9435 L 7689,10111 7689,9435 8858,9435 Z M 9282,7690 L 9419,7611 9419,9111 9282,9190 9282,7690 Z M 9257,9205 L 8902,9410 7689,9410 7689,8611 9257,7705 9257,9205 Z"/>
     <path fill="rgb(187,187,187)" stroke="none" d="M 8902,9410 L 7689,10111 7689,9410 8902,9410 Z M 9257,7705 L 9419,7611 9419,9111 9257,9205 9257,7705 Z M 9232,9219 L 8945,9385 7689,9385 7689,8611 9232,7719 9232,9219 Z"/>
     <path fill="rgb(188,188,188)" stroke="none" d="M 8945,9385 L 7689,10111 7689,9385 8945,9385 Z M 9232,7719 L 9419,7611 9419,9111 9232,9219 9232,7719 Z M 9207,9234 L 8988,9360 7689,9360 7689,8611 9207,7734 9207,9234 Z"/>
     <path fill="rgb(189,189,189)" stroke="none" d="M 8988,9360 L 7689,10111 7689,9360 8988,9360 Z M 9207,7734 L 9419,7611 9419,9111 9207,9234 9207,7734 Z M 9182,9248 L 9031,9335 7689,9335 7689,8611 9182,7748 9182,9248 Z"/>
     <path fill="rgb(190,190,190)" stroke="none" d="M 9031,9335 L 7689,10111 7689,9335 9031,9335 Z M 9182,7748 L 9419,7611 9419,9111 9182,9248 9182,7748 Z M 9157,9262 L 9075,9310 7689,9310 7689,8611 9157,7762 9157,9262 Z"/>
     <path fill="rgb(191,191,191)" stroke="none" d="M 9075,9310 L 7689,10111 7689,9310 9075,9310 Z M 9157,7762 L 9419,7611 9419,9111 9157,9262 9157,7762 Z M 9132,9277 L 9118,9285 7689,9285 7689,8611 9132,7777 9132,9277 Z"/>
     <path fill="rgb(192,192,192)" stroke="none" d="M 9118,9285 L 7689,10111 7689,9285 9118,9285 Z M 9132,7777 L 9419,7611 9419,9111 9132,9277 9132,7777 Z M 9107,9260 L 7689,9260 7689,8611 9107,7791 9107,9260 Z"/>
     <path fill="rgb(193,193,193)" stroke="none" d="M 9107,9260 L 9107,7791 9419,7611 9419,9111 7689,10111 7689,9260 9107,9260 Z M 9082,9235 L 7689,9235 7689,8611 9082,7806 9082,9235 Z"/>
     <path fill="rgb(194,194,194)" stroke="none" d="M 9082,9235 L 9082,7806 9419,7611 9419,9111 7689,10111 7689,9235 9082,9235 Z M 9057,9210 L 7689,9210 7689,8611 9057,7820 9057,9210 Z"/>
     <path fill="rgb(195,195,195)" stroke="none" d="M 9057,9210 L 9057,7820 9419,7611 9419,9111 7689,10111 7689,9210 9057,9210 Z M 9032,9185 L 7689,9185 7689,8611 9032,7835 9032,9185 Z"/>
     <path fill="rgb(196,196,196)" stroke="none" d="M 9032,9185 L 9032,7835 9419,7611 9419,9111 7689,10111 7689,9185 9032,9185 Z M 9007,9160 L 7689,9160 7689,8611 9007,7849 9007,9160 Z"/>
     <path fill="rgb(197,197,197)" stroke="none" d="M 9007,9160 L 9007,7849 9419,7611 9419,9111 7689,10111 7689,9160 9007,9160 Z M 8982,9135 L 7689,9135 7689,8611 8982,7864 8982,9135 Z"/>
     <path fill="rgb(198,198,198)" stroke="none" d="M 8982,9135 L 8982,7864 9419,7611 9419,9111 7689,10111 7689,9135 8982,9135 Z M 8957,9110 L 7689,9110 7689,8611 8957,7878 8957,9110 Z"/>
     <path fill="rgb(199,199,199)" stroke="none" d="M 8957,9110 L 8957,7878 9419,7611 9419,9111 7689,10111 7689,9110 8957,9110 Z M 8932,9085 L 7689,9085 7689,8611 8932,7893 8932,9085 Z"/>
     <path fill="rgb(200,200,200)" stroke="none" d="M 8932,9085 L 8932,7893 9419,7611 9419,9111 7689,10111 7689,9085 8932,9085 Z M 8907,9060 L 7689,9060 7689,8611 8907,7907 8907,9060 Z"/>
     <path fill="rgb(201,201,201)" stroke="none" d="M 8907,9060 L 8907,7907 9419,7611 9419,9111 7689,10111 7689,9060 8907,9060 Z M 8882,9035 L 7689,9035 7689,8611 8882,7921 8882,9035 Z"/>
     <path fill="rgb(202,202,202)" stroke="none" d="M 8882,9035 L 8882,7921 9419,7611 9419,9111 7689,10111 7689,9035 8882,9035 Z M 8857,9010 L 7689,9010 7689,8611 8857,7936 8857,9010 Z"/>
     <path fill="rgb(203,203,203)" stroke="none" d="M 8857,9010 L 8857,7936 9419,7611 9419,9111 7689,10111 7689,9010 8857,9010 Z M 8832,8985 L 7689,8985 7689,8611 8832,7950 8832,8985 Z"/>
     <path fill="rgb(204,204,204)" stroke="none" d="M 8832,8985 L 8832,7950 9419,7611 9419,9111 7689,10111 7689,8985 8832,8985 Z M 8807,8960 L 7689,8960 7689,8611 8807,7965 8807,8960 Z"/>
     <path fill="rgb(205,205,205)" stroke="none" d="M 8807,8960 L 8807,7965 9419,7611 9419,9111 7689,10111 7689,8960 8807,8960 Z M 8782,8935 L 7689,8935 7689,8611 8782,7979 8782,8935 Z"/>
     <path fill="rgb(206,206,206)" stroke="none" d="M 8782,8935 L 8782,7979 9419,7611 9419,9111 7689,10111 7689,8935 8782,8935 Z M 8757,8910 L 7689,8910 7689,8611 8757,7994 8757,8910 Z"/>
     <path fill="rgb(207,207,207)" stroke="none" d="M 8757,8910 L 8757,7994 9419,7611 9419,9111 7689,10111 7689,8910 8757,8910 Z M 8732,8885 L 7689,8885 7689,8611 8732,8008 8732,8885 Z"/>
     <path fill="rgb(208,208,208)" stroke="none" d="M 8732,8885 L 8732,8008 9419,7611 9419,9111 7689,10111 7689,8885 8732,8885 Z M 8707,8860 L 7706,8860 7706,8601 8707,8023 8707,8860 Z"/>
     <path fill="rgb(209,209,209)" stroke="none" d="M 7706,8860 L 8707,8860 8707,8023 9419,7611 9419,9111 7689,10111 7689,8611 7706,8601 7706,8860 Z M 8682,8835 L 7731,8835 7731,8587 8682,8037 8682,8835 Z"/>
     <path fill="rgb(210,210,210)" stroke="none" d="M 7731,8835 L 8682,8835 8682,8037 9419,7611 9419,9111 7689,10111 7689,8611 7731,8587 7731,8835 Z M 8657,8810 L 7756,8810 7756,8572 8657,8051 8657,8810 Z"/>
     <path fill="rgb(211,211,211)" stroke="none" d="M 7756,8810 L 8657,8810 8657,8051 9419,7611 9419,9111 7689,10111 7689,8611 7756,8572 7756,8810 Z M 8632,8785 L 7781,8785 7781,8558 8632,8066 8632,8785 Z"/>
     <path fill="rgb(212,212,212)" stroke="none" d="M 7781,8785 L 8632,8785 8632,8066 9419,7611 9419,9111 7689,10111 7689,8611 7781,8558 7781,8785 Z M 8606,8759 L 7807,8759 7807,8543 8606,8081 8606,8759 Z"/>
     <path fill="rgb(213,213,213)" stroke="none" d="M 7807,8759 L 8606,8759 8606,8081 9419,7611 9419,9111 7689,10111 7689,8611 7807,8543 7807,8759 Z M 8581,8734 L 7832,8734 7832,8528 8581,8095 8581,8734 Z"/>
     <path fill="rgb(214,214,214)" stroke="none" d="M 7832,8734 L 8581,8734 8581,8095 9419,7611 9419,9111 7689,10111 7689,8611 7832,8528 7832,8734 Z M 8556,8709 L 7857,8709 7857,8514 8556,8110 8556,8709 Z"/>
     <path fill="rgb(215,215,215)" stroke="none" d="M 7857,8709 L 8556,8709 8556,8110 9419,7611 9419,9111 7689,10111 7689,8611 7857,8514 7857,8709 Z M 8531,8684 L 7882,8684 7882,8499 8531,8124 8531,8684 Z"/>
     <path fill="rgb(216,216,216)" stroke="none" d="M 7882,8684 L 8531,8684 8531,8124 9419,7611 9419,9111 7689,10111 7689,8611 7882,8499 7882,8684 Z M 8506,8659 L 7907,8659 7907,8485 8506,8139 8506,8659 Z"/>
     <path fill="rgb(217,217,217)" stroke="none" d="M 7907,8659 L 8506,8659 8506,8139 9419,7611 9419,9111 7689,10111 7689,8611 7907,8485 7907,8659 Z M 8481,8634 L 7932,8634 7932,8471 8481,8153 8481,8634 Z"/>
     <path fill="rgb(218,218,218)" stroke="none" d="M 7932,8634 L 8481,8634 8481,8153 9419,7611 9419,9111 7689,10111 7689,8611 7932,8471 7932,8634 Z M 8456,8609 L 7957,8609 7957,8456 8456,8168 8456,8609 Z"/>
     <path fill="rgb(219,219,219)" stroke="none" d="M 7957,8609 L 8456,8609 8456,8168 9419,7611 9419,9111 7689,10111 7689,8611 7957,8456 7957,8609 Z M 8431,8584 L 7982,8584 7982,8442 8431,8182 8431,8584 Z"/>
     <path fill="rgb(220,220,220)" stroke="none" d="M 7982,8584 L 8431,8584 8431,8182 9419,7611 9419,9111 7689,10111 7689,8611 7982,8442 7982,8584 Z M 8406,8559 L 8007,8559 8007,8427 8406,8197 8406,8559 Z"/>
     <path fill="rgb(221,221,221)" stroke="none" d="M 8007,8559 L 8406,8559 8406,8197 9419,7611 9419,9111 7689,10111 7689,8611 8007,8427 8007,8559 Z M 8381,8534 L 8032,8534 8032,8413 8381,8211 8381,8534 Z"/>
     <path fill="rgb(222,222,222)" stroke="none" d="M 8032,8534 L 8381,8534 8381,8211 9419,7611 9419,9111 7689,10111 7689,8611 8032,8413 8032,8534 Z M 8356,8509 L 8057,8509 8057,8398 8356,8225 8356,8509 Z"/>
     <path fill="rgb(223,223,223)" stroke="none" d="M 8057,8509 L 8356,8509 8356,8225 9419,7611 9419,9111 7689,10111 7689,8611 8057,8398 8057,8509 Z M 8331,8484 L 8082,8484 8082,8384 8331,8240 8331,8484 Z"/>
     <path fill="rgb(224,224,224)" stroke="none" d="M 8082,8484 L 8331,8484 8331,8240 9419,7611 9419,9111 7689,10111 7689,8611 8082,8384 8082,8484 Z M 8306,8260 L 8306,8459 8107,8459 8107,8369 8296,8260 8306,8260 Z"/>
     <path fill="rgb(225,225,225)" stroke="none" d="M 8107,8459 L 8306,8459 8306,8260 8296,8260 9419,7611 9419,9111 7689,10111 7689,8611 8107,8369 8107,8459 Z M 8281,8285 L 8281,8434 8132,8434 8132,8355 8253,8285 8281,8285 Z"/>
     <path fill="rgb(226,226,226)" stroke="none" d="M 8132,8434 L 8281,8434 8281,8285 8253,8285 9419,7611 9419,9111 7689,10111 7689,8611 8132,8355 8132,8434 Z M 8256,8310 L 8256,8409 8157,8409 8157,8340 8210,8310 8256,8310 Z"/>
     <path fill="rgb(227,227,227)" stroke="none" d="M 8157,8409 L 8256,8409 8256,8310 8210,8310 9419,7611 9419,9111 7689,10111 7689,8611 8157,8340 8157,8409 Z M 8182,8335 L 8231,8335 8231,8384 8182,8384 8182,8335 Z"/>
     <path fill="rgb(229,229,229)" stroke="none" d="M 8182,8335 L 8182,8384 8231,8384 8231,8335 8182,8335 Z M 7689,10111 L 7689,8611 9419,7611 9419,9111 7689,10111 Z"/>
     <path fill="none" stroke="rgb(255,255,255)" id="Drawing_3_0" stroke-width="40" stroke-linejoin="round" d="M 7689,10111 L 7689,8611 9419,7611 9419,9111 7689,10111 Z"/>
    </g>
    <g>
     <defs>
      <linearGradient id="Gradient_244" gradientUnits="userSpaceOnUse" x1="6824" y1="5611" x2="6824" y2="8611">
       <stop offset="0.1" stop-color="rgb(179,179,179)"/>
       <stop offset="1" stop-color="rgb(229,229,229)"/>
      </linearGradient>
     </defs>
     <path fill="url(#Gradient_244)" stroke="rgb(255,255,255)" id="Drawing_4_0" stroke-width="40" stroke-linejoin="round" d="M 7689,8611 L 4229,6611 5959,5611 9419,7611 7689,8611 Z"/>
    </g>
    <g>
     <path fill="rgb(57,181,74)" stroke="none" d="M 7343,8861 L 7343,8661 7516,8761 7516,8961 7343,8861 Z"/>
     <path fill="none" stroke="rgb(0,0,0)" id="Drawing_5_0" stroke-width="40" stroke-linejoin="round" d="M 7343,8861 L 7343,8661 7516,8761 7516,8961 7343,8861 Z"/>
    </g>
    <g>
     <path fill="rgb(179,179,179)" stroke="none" d="M 6460,9577 L 5094,10011 5094,9761 6460,9208 6460,9577 Z"/>
     <path fill="rgb(180,180,180)" stroke="none" d="M 6460,9208 L 6824,9061 6824,9461 6460,9577 6460,9208 Z M 6443,9582 L 5094,10011 5094,9761 6443,9215 6443,9582 Z"/>
     <path fill="rgb(181,181,181)" stroke="none" d="M 6443,9215 L 6824,9061 6824,9461 6443,9582 6443,9215 Z M 6426,9588 L 5094,10011 5094,9761 6426,9222 6426,9588 Z"/>
     <path fill="rgb(182,182,182)" stroke="none" d="M 6426,9222 L 6824,9061 6824,9461 6426,9588 6426,9222 Z M 6408,9593 L 5094,10011 5094,9761 6408,9229 6408,9593 Z"/>
     <path fill="rgb(183,183,183)" stroke="none" d="M 6408,9229 L 6824,9061 6824,9461 6408,9593 6408,9229 Z M 6391,9599 L 5094,10011 5094,9761 6391,9236 6391,9599 Z"/>
     <path fill="rgb(184,184,184)" stroke="none" d="M 6391,9236 L 6824,9061 6824,9461 6391,9599 6391,9236 Z M 6374,9604 L 5094,10011 5094,9761 6374,9243 6374,9604 Z"/>
     <path fill="rgb(185,185,185)" stroke="none" d="M 6374,9243 L 6824,9061 6824,9461 6374,9604 6374,9243 Z M 6356,9610 L 5094,10011 5094,9761 6356,9250 6356,9610 Z"/>
     <path fill="rgb(186,186,186)" stroke="none" d="M 6356,9250 L 6824,9061 6824,9461 6356,9610 6356,9250 Z M 6339,9615 L 5094,10011 5094,9761 6339,9257 6339,9615 Z"/>
     <path fill="rgb(187,187,187)" stroke="none" d="M 6339,9257 L 6824,9061 6824,9461 6339,9615 6339,9257 Z M 6322,9621 L 5094,10011 5094,9761 6322,9264 6322,9621 Z"/>
     <path fill="rgb(188,188,188)" stroke="none" d="M 6322,9264 L 6824,9061 6824,9461 6322,9621 6322,9264 Z M 6304,9626 L 5094,10011 5094,9761 6304,9271 6304,9626 Z"/>
     <path fill="rgb(189,189,189)" stroke="none" d="M 6304,9271 L 6824,9061 6824,9461 6304,9626 6304,9271 Z M 6287,9632 L 5094,10011 5094,9761 6287,9278 6287,9632 Z"/>
     <path fill="rgb(190,190,190)" stroke="none" d="M 6287,9278 L 6824,9061 6824,9461 6287,9632 6287,9278 Z M 6270,9637 L 5119,10003 5094,10003 5094,9761 6270,9285 6270,9637 Z"/>
     <path fill="rgb(191,191,191)" stroke="none" d="M 5119,10003 L 5094,10011 5094,10003 5119,10003 Z M 6270,9285 L 6824,9061 6824,9461 6270,9637 6270,9285 Z M 6252,9643 L 5176,9985 5094,9985 5094,9761 6252,9292 6252,9643 Z"/>
     <path fill="rgb(192,192,192)" stroke="none" d="M 5176,9985 L 5094,10011 5094,9985 5176,9985 Z M 6252,9292 L 6824,9061 6824,9461 6252,9643 6252,9292 Z M 6235,9648 L 5229,9968 5094,9968 5094,9761 6235,9299 6235,9648 Z"/>
     <path fill="rgb(193,193,193)" stroke="none" d="M 5229,9968 L 5094,10011 5094,9968 5229,9968 Z M 6235,9299 L 6824,9061 6824,9461 6235,9648 6235,9299 Z M 6218,9654 L 5283,9951 5094,9951 5094,9761 6218,9306 6218,9654 Z"/>
     <path fill="rgb(194,194,194)" stroke="none" d="M 5283,9951 L 5094,10011 5094,9951 5283,9951 Z M 6218,9306 L 6824,9061 6824,9461 6218,9654 6218,9306 Z M 6200,9659 L 5339,9933 5094,9933 5094,9761 6200,9313 6200,9659 Z"/>
     <path fill="rgb(195,195,195)" stroke="none" d="M 5339,9933 L 5094,10011 5094,9933 5339,9933 Z M 6200,9313 L 6824,9061 6824,9461 6200,9659 6200,9313 Z M 6183,9665 L 5393,9916 5094,9916 5094,9761 6183,9320 6183,9665 Z"/>
     <path fill="rgb(196,196,196)" stroke="none" d="M 5393,9916 L 5094,10011 5094,9916 5393,9916 Z M 6183,9320 L 6824,9061 6824,9461 6183,9665 6183,9320 Z M 6166,9670 L 5446,9899 5094,9899 5094,9761 6166,9327 6166,9670 Z"/>
     <path fill="rgb(197,197,197)" stroke="none" d="M 5446,9899 L 5094,10011 5094,9899 5446,9899 Z M 6166,9327 L 6824,9061 6824,9461 6166,9670 6166,9327 Z M 6148,9676 L 5503,9881 5094,9881 5094,9761 6148,9335 6148,9676 Z"/>
     <path fill="rgb(198,198,198)" stroke="none" d="M 5503,9881 L 5094,10011 5094,9881 5503,9881 Z M 6148,9335 L 6824,9061 6824,9461 6148,9676 6148,9335 Z M 6131,9681 L 5556,9864 5094,9864 5094,9761 6131,9341 6131,9681 Z"/>
     <path fill="rgb(199,199,199)" stroke="none" d="M 5556,9864 L 5094,10011 5094,9864 5556,9864 Z M 6131,9341 L 6824,9061 6824,9461 6131,9681 6131,9341 Z M 6114,9687 L 5610,9847 5109,9847 5109,9755 6114,9348 6114,9687 Z"/>
     <path fill="rgb(200,200,200)" stroke="none" d="M 5109,9847 L 5610,9847 5094,10011 5094,9761 5109,9755 5109,9847 Z M 6114,9348 L 6824,9061 6824,9461 6114,9687 6114,9348 Z M 6096,9692 L 5666,9829 5127,9829 5127,9748 6096,9356 6096,9692 Z"/>
     <path fill="rgb(201,201,201)" stroke="none" d="M 5127,9829 L 5666,9829 5094,10011 5094,9761 5127,9748 5127,9829 Z M 6096,9356 L 6824,9061 6824,9461 6096,9692 6096,9356 Z M 6079,9698 L 5720,9812 5144,9812 5144,9741 6079,9362 6079,9698 Z"/>
     <path fill="rgb(202,202,202)" stroke="none" d="M 5144,9812 L 5720,9812 5094,10011 5094,9761 5144,9741 5144,9812 Z M 6079,9362 L 6824,9061 6824,9461 6079,9698 6079,9362 Z M 6062,9703 L 5773,9795 5161,9795 5161,9734 6062,9369 6062,9703 Z"/>
     <path fill="rgb(203,203,203)" stroke="none" d="M 5161,9795 L 5773,9795 5094,10011 5094,9761 5161,9734 5161,9795 Z M 6062,9369 L 6824,9061 6824,9461 6062,9703 6062,9369 Z M 6044,9709 L 5830,9777 5179,9777 5179,9727 6044,9377 6044,9709 Z"/>
     <path fill="rgb(204,204,204)" stroke="none" d="M 5179,9777 L 5830,9777 5094,10011 5094,9761 5179,9727 5179,9777 Z M 6044,9377 L 6824,9061 6824,9461 6044,9709 6044,9377 Z M 6027,9714 L 5884,9760 5196,9760 5196,9720 6027,9383 6027,9714 Z"/>
     <path fill="rgb(205,205,205)" stroke="none" d="M 5196,9760 L 5884,9760 5094,10011 5094,9761 5196,9720 5196,9760 Z M 6027,9383 L 6824,9061 6824,9461 6027,9714 6027,9383 Z M 6010,9720 L 5937,9743 5213,9743 5213,9713 6010,9390 6010,9720 Z"/>
     <path fill="rgb(206,206,206)" stroke="none" d="M 5213,9743 L 5937,9743 5094,10011 5094,9761 5213,9713 5213,9743 Z M 6010,9390 L 6824,9061 6824,9461 6010,9720 6010,9390 Z M 5992,9725 L 5231,9725 5231,9706 5992,9398 5992,9725 Z"/>
     <path fill="rgb(207,207,207)" stroke="none" d="M 5231,9725 L 5992,9725 5992,9398 6824,9061 6824,9461 5094,10011 5094,9761 5231,9706 5231,9725 Z M 5975,9708 L 5248,9708 5248,9699 5975,9405 5975,9708 Z"/>
     <path fill="rgb(208,208,208)" stroke="none" d="M 5248,9708 L 5975,9708 5975,9405 6824,9061 6824,9461 5094,10011 5094,9761 5248,9699 5248,9708 Z M 5958,9691 L 5267,9691 5958,9411 5958,9691 Z"/>
     <path fill="rgb(209,209,209)" stroke="none" d="M 5958,9691 L 5958,9411 6824,9061 6824,9461 5094,10011 5094,9761 5267,9691 5958,9691 Z M 5940,9673 L 5311,9673 5940,9419 5940,9673 Z"/>
     <path fill="rgb(210,210,210)" stroke="none" d="M 5940,9673 L 5940,9419 6824,9061 6824,9461 5094,10011 5094,9761 5311,9673 5940,9673 Z M 5923,9656 L 5354,9656 5923,9426 5923,9656 Z"/>
     <path fill="rgb(211,211,211)" stroke="none" d="M 5923,9656 L 5923,9426 6824,9061 6824,9461 5094,10011 5094,9761 5354,9656 5923,9656 Z M 5906,9639 L 5396,9639 5906,9432 5906,9639 Z"/>
     <path fill="rgb(212,212,212)" stroke="none" d="M 5906,9639 L 5906,9432 6824,9061 6824,9461 5094,10011 5094,9761 5396,9639 5906,9639 Z M 5888,9621 L 5440,9621 5888,9440 5888,9621 Z"/>
     <path fill="rgb(213,213,213)" stroke="none" d="M 5888,9621 L 5888,9440 6824,9061 6824,9461 5094,10011 5094,9761 5440,9621 5888,9621 Z M 5871,9604 L 5482,9604 5871,9447 5871,9604 Z"/>
     <path fill="rgb(214,214,214)" stroke="none" d="M 5871,9604 L 5871,9447 6824,9061 6824,9461 5094,10011 5094,9761 5482,9604 5871,9604 Z M 5854,9587 L 5524,9587 5854,9453 5854,9587 Z"/>
     <path fill="rgb(215,215,215)" stroke="none" d="M 5854,9587 L 5854,9453 6824,9061 6824,9461 5094,10011 5094,9761 5524,9587 5854,9587 Z M 5836,9569 L 5569,9569 5836,9461 5836,9569 Z"/>
     <path fill="rgb(216,216,216)" stroke="none" d="M 5836,9569 L 5836,9461 6824,9061 6824,9461 5094,10011 5094,9761 5569,9569 5836,9569 Z M 5819,9552 L 5611,9552 5819,9468 5819,9552 Z"/>
     <path fill="rgb(217,217,217)" stroke="none" d="M 5819,9552 L 5819,9468 6824,9061 6824,9461 5094,10011 5094,9761 5611,9552 5819,9552 Z M 5802,9535 L 5653,9535 5802,9475 5802,9535 Z"/>
     <path fill="rgb(218,218,218)" stroke="none" d="M 5802,9535 L 5802,9475 6824,9061 6824,9461 5094,10011 5094,9761 5653,9535 5802,9535 Z M 5784,9517 L 5697,9517 5784,9482 5784,9517 Z"/>
     <path fill="rgb(219,219,219)" stroke="none" d="M 5784,9517 L 5784,9482 6824,9061 6824,9461 5094,10011 5094,9761 5697,9517 5784,9517 Z M 5767,9500 L 5739,9500 5767,9489 5767,9500 Z"/>
     <path fill="rgb(220,220,220)" stroke="none" d="M 5767,9500 L 5767,9489 6824,9061 6824,9461 5094,10011 5094,9761 5739,9500 5767,9500 Z"/>
     <path fill="rgb(221,221,221)" stroke="none" d="M 5094,9761 L 6824,9061 6824,9461 5094,10011 5094,9761 Z"/>
     <path fill="rgb(222,222,222)" stroke="none" d="M 5094,9761 L 6824,9061 6824,9461 5094,10011 5094,9761 Z"/>
     <path fill="rgb(223,223,223)" stroke="none" d="M 5094,9761 L 6824,9061 6824,9461 5094,10011 5094,9761 Z"/>
     <path fill="rgb(224,224,224)" stroke="none" d="M 5094,9761 L 6824,9061 6824,9461 5094,10011 5094,9761 Z"/>
     <path fill="rgb(225,225,225)" stroke="none" d="M 5094,9761 L 6824,9061 6824,9461 5094,10011 5094,9761 Z"/>
     <path fill="rgb(226,226,226)" stroke="none" d="M 5094,9761 L 6824,9061 6824,9461 5094,10011 5094,9761 Z"/>
     <path fill="rgb(227,227,227)" stroke="none" d="M 5094,9761 L 6824,9061 6824,9461 5094,10011 5094,9761 Z"/>
     <path fill="rgb(229,229,229)" stroke="none" d="M 5094,9761 L 6824,9061 6824,9461 5094,10011 5094,9761 Z"/>
     <path fill="none" stroke="rgb(255,255,255)" id="Drawing_6_0" stroke-width="40" stroke-linejoin="round" d="M 5094,9761 L 6824,9061 6824,9461 5094,10011 5094,9761 Z"/>
    </g>
    <g>
     <defs>
      <linearGradient id="Gradient_245" gradientUnits="userSpaceOnUse" x1="5094" y1="8061" x2="5094" y2="9761">
       <stop offset="0.1" stop-color="rgb(179,179,179)"/>
       <stop offset="1" stop-color="rgb(229,229,229)"/>
      </linearGradient>
     </defs>
     <path fill="url(#Gradient_245)" stroke="rgb(255,255,255)" id="Drawing_7_0" stroke-width="40" stroke-linejoin="round" d="M 5094,9761 L 3364,8761 5094,8061 6824,9061 5094,9761 Z"/>
    </g>
    <g>
     <defs>
      <linearGradient id="Gradient_246" gradientUnits="userSpaceOnUse" x1="3363" y1="9384" x2="5095" y2="9388">
       <stop offset="0.1" stop-color="rgb(179,179,179)"/>
       <stop offset="1" stop-color="rgb(229,229,229)"/>
      </linearGradient>
     </defs>
     <path fill="url(#Gradient_246)" stroke="rgb(255,255,255)" id="Drawing_8_0" stroke-width="40" stroke-linejoin="round" d="M 3364,9011 L 3364,8761 5094,9761 5094,10011 3364,9011 Z"/>
    </g>
    <g>
     <path fill="none" stroke="rgb(0,0,0)" id="Drawing_9_0" stroke-width="40" stroke-linejoin="round" d="M 4229,8111 L 4229,6611 5959,5611 9419,7611 9419,9111 7689,10111 6651,9511 5094,10011 3364,9011 3364,8761 4575,8261 4229,8111 Z"/>
    </g>
    <g>
     <path fill="rgb(255,255,255)" stroke="none" d="M 4662,9661 C 4316,9461 3797,9161 3451,8961 3883,8711 4749,8361 5354,8211 5700,8411 6132,8661 6565,8911 6046,9061 5181,9411 4662,9661 Z"/>
     <path fill="none" stroke="rgb(128,128,128)" id="Drawing_10_0" stroke-width="40" stroke-linejoin="round" d="M 4662,9661 C 4316,9461 3797,9161 3451,8961 3883,8711 4749,8361 5354,8211 5700,8411 6132,8661 6565,8911 6046,9061 5181,9411 4662,9661 Z"/>
    </g>
    <g>
     <path fill="none" stroke="rgb(127,127,127)" id="Drawing_11_0" stroke-width="40" stroke-linejoin="round" d="M 5094,8061 L 5094,7861 6824,8861 6824,9011"/>
    </g>
    <g>
     <defs>
      <linearGradient id="Gradient_247" gradientUnits="userSpaceOnUse" x1="6737" y1="6211" x2="6737" y2="8111">
       <stop offset="0.1" stop-color="rgb(179,179,179)"/>
       <stop offset="1" stop-color="rgb(229,229,229)"/>
      </linearGradient>
     </defs>
     <path fill="url(#Gradient_247)" stroke="rgb(255,255,255)" id="Drawing_12_0" stroke-width="40" stroke-linejoin="round" d="M 6824,8111 L 5094,7111 6651,6211 8381,7211 6824,8111 Z"/>
    </g>
    <g>
     <defs>
      <linearGradient id="Gradient_248" gradientUnits="userSpaceOnUse" x1="5093" y1="7859" x2="6825" y2="7863">
       <stop offset="0.1" stop-color="rgb(179,179,179)"/>
       <stop offset="1" stop-color="rgb(229,229,229)"/>
      </linearGradient>
     </defs>
     <path fill="url(#Gradient_248)" stroke="rgb(255,255,255)" id="Drawing_13_0" stroke-width="40" stroke-linejoin="round" d="M 5094,7611 L 5094,7111 6824,8111 6824,8611 5094,7611 Z"/>
    </g>
   </g>
  </g>
 </g>
</svg>