<?xml version="1.0" encoding="UTF-8"?>

<svg version="1.2" baseProfile="tiny" width="60.92mm" height="45.4mm" viewBox="10939 11337 6092 4540" preserveAspectRatio="xMidYMid" fill-rule="evenodd" stroke-width="28.222" stroke-linejoin="round" xmlns="http://www.w3.org/2000/svg" xmlns:xlink="http://www.w3.org/1999/xlink" xml:space="preserve">
 <g visibility="visible" id="Slide_1">
  <g id="DrawingGroup_1">
   <g>
    <path fill="rgb(221,221,221)" stroke="none" d="M 14434,14817 C 14672,14817 15909,14414 16337,14092 16616,13882 16398,13617 16161,13617 16161,13767 14348,13717 14434,14817 Z"/>
    <path fill="none" stroke="rgb(221,221,221)" id="Drawing_1_0" stroke-width="40" stroke-linejoin="round" d="M 14434,14817 C 14672,14817 15909,14414 16337,14092 16616,13882 16398,13617 16161,13617 16161,13767 14348,13717 14434,14817 Z"/>
   </g>
   <g id="DrawingGroup_2">
    <g>
     <path fill="rgb(102,102,102)" stroke="none" d="M 15441,14265 L 13959,15122 12688,15122 12688,14357 15441,12765 15441,14265 Z"/>
     <path fill="rgb(103,103,103)" stroke="none" d="M 13959,15122 L 12688,15857 12688,15122 13959,15122 Z M 15441,12765 L 16147,12357 16147,13857 15441,14265 15441,12765 Z M 15407,14285 L 14018,15088 12688,15088 12688,14357 15407,12785 15407,14285 Z"/>
     <path fill="rgb(104,104,104)" stroke="none" d="M 14018,15088 L 12688,15857 12688,15088 14018,15088 Z M 15407,12785 L 16147,12357 16147,13857 15407,14285 15407,12785 Z M 15372,14305 L 14079,15053 12688,15053 12688,14357 15372,12805 15372,14305 Z"/>
     <path fill="rgb(105,105,105)" stroke="none" d="M 14079,15053 L 12688,15857 12688,15053 14079,15053 Z M 15372,12805 L 16147,12357 16147,13857 15372,14305 15372,12805 Z M 15338,14325 L 14137,15019 12688,15019 12688,14357 15338,12825 15338,14325 Z"/>
     <path fill="rgb(106,106,106)" stroke="none" d="M 14137,15019 L 12688,15857 12688,15019 14137,15019 Z M 15338,12825 L 16147,12357 16147,13857 15338,14325 15338,12825 Z M 15304,14344 L 14196,14985 12688,14985 12688,14357 15304,12844 15304,14344 Z"/>
     <path fill="rgb(107,107,107)" stroke="none" d="M 14196,14985 L 12688,15857 12688,14985 14196,14985 Z M 15304,12844 L 16147,12357 16147,13857 15304,14344 15304,12844 Z M 15269,14365 L 14257,14950 12688,14950 12688,14357 15269,12865 15269,14365 Z"/>
     <path fill="rgb(108,108,108)" stroke="none" d="M 14257,14950 L 12688,15857 12688,14950 14257,14950 Z M 15269,12865 L 16147,12357 16147,13857 15269,14365 15269,12865 Z M 15235,14384 L 14315,14916 12688,14916 12688,14357 15235,12884 15235,14384 Z"/>
     <path fill="rgb(109,109,109)" stroke="none" d="M 14315,14916 L 12688,15857 12688,14916 14315,14916 Z M 15235,12884 L 16147,12357 16147,13857 15235,14384 15235,12884 Z M 15201,14404 L 14374,14882 12688,14882 12688,14357 15201,12904 15201,14404 Z"/>
     <path fill="rgb(110,110,110)" stroke="none" d="M 14374,14882 L 12688,15857 12688,14882 14374,14882 Z M 15201,12904 L 16147,12357 16147,13857 15201,14404 15201,12904 Z M 15166,14424 L 14435,14847 12688,14847 12688,14357 15166,12924 15166,14424 Z"/>
     <path fill="rgb(111,111,111)" stroke="none" d="M 14435,14847 L 12688,15857 12688,14847 14435,14847 Z M 15166,12924 L 16147,12357 16147,13857 15166,14424 15166,12924 Z M 15132,14444 L 14494,14813 12688,14813 12688,14357 15132,12944 15132,14444 Z"/>
     <path fill="rgb(112,112,112)" stroke="none" d="M 14494,14813 L 12688,15857 12688,14813 14494,14813 Z M 15132,12944 L 16147,12357 16147,13857 15132,14444 15132,12944 Z M 15098,14464 L 14552,14779 12688,14779 12688,14357 15098,12964 15098,14464 Z"/>
     <path fill="rgb(113,113,113)" stroke="none" d="M 14552,14779 L 12688,15857 12688,14779 14552,14779 Z M 15098,12964 L 16147,12357 16147,13857 15098,14464 15098,12964 Z M 15063,14484 L 14613,14744 12688,14744 12688,14357 15063,12984 15063,14484 Z"/>
     <path fill="rgb(114,114,114)" stroke="none" d="M 14613,14744 L 12688,15857 12688,14744 14613,14744 Z M 15063,12984 L 16147,12357 16147,13857 15063,14484 15063,12984 Z M 15029,14503 L 14672,14710 12688,14710 12688,14357 15029,13003 15029,14503 Z"/>
     <path fill="rgb(115,115,115)" stroke="none" d="M 14672,14710 L 12688,15857 12688,14710 14672,14710 Z M 15029,13003 L 16147,12357 16147,13857 15029,14503 15029,13003 Z M 14995,14523 L 14731,14676 12688,14676 12688,14357 14995,13023 14995,14523 Z"/>
     <path fill="rgb(116,116,116)" stroke="none" d="M 14731,14676 L 12688,15857 12688,14676 14731,14676 Z M 14995,13023 L 16147,12357 16147,13857 14995,14523 14995,13023 Z M 14960,14543 L 14791,14641 12688,14641 12688,14357 14960,13043 14960,14543 Z"/>
     <path fill="rgb(117,117,117)" stroke="none" d="M 14791,14641 L 12688,15857 12688,14641 14791,14641 Z M 14960,13043 L 16147,12357 16147,13857 14960,14543 14960,13043 Z M 14926,14563 L 14850,14607 12688,14607 12688,14357 14926,13063 14926,14563 Z"/>
     <path fill="rgb(118,118,118)" stroke="none" d="M 14850,14607 L 12688,15857 12688,14607 14850,14607 Z M 14926,13063 L 16147,12357 16147,13857 14926,14563 14926,13063 Z M 14892,14573 L 12688,14573 12688,14357 14892,13083 14892,14573 Z"/>
     <path fill="rgb(119,119,119)" stroke="none" d="M 14892,14573 L 14892,13083 16147,12357 16147,13857 12688,15857 12688,14573 14892,14573 Z M 14857,14538 L 12688,14538 12688,14357 14857,13103 14857,14538 Z"/>
     <path fill="rgb(120,120,120)" stroke="none" d="M 14857,14538 L 14857,13103 16147,12357 16147,13857 12688,15857 12688,14538 14857,14538 Z M 14823,14504 L 12688,14504 12688,14357 14823,13123 14823,14504 Z"/>
     <path fill="rgb(121,121,121)" stroke="none" d="M 14823,14504 L 14823,13123 16147,12357 16147,13857 12688,15857 12688,14504 14823,14504 Z M 14789,14470 L 12688,14470 12688,14357 14789,13142 14789,14470 Z"/>
     <path fill="rgb(122,122,122)" stroke="none" d="M 14789,14470 L 14789,13142 16147,12357 16147,13857 12688,15857 12688,14470 14789,14470 Z M 14754,14435 L 12695,14435 12695,14353 14754,13162 14754,14435 Z"/>
     <path fill="rgb(123,123,123)" stroke="none" d="M 12695,14435 L 14754,14435 14754,13162 16147,12357 16147,13857 12688,15857 12688,14357 12695,14353 12695,14435 Z M 14720,14401 L 12729,14401 12729,14333 14720,13182 14720,14401 Z"/>
     <path fill="rgb(124,124,124)" stroke="none" d="M 12729,14401 L 14720,14401 14720,13182 16147,12357 16147,13857 12688,15857 12688,14357 12729,14333 12729,14401 Z M 14686,14367 L 12763,14367 12763,14314 14686,13202 14686,14367 Z"/>
     <path fill="rgb(125,125,125)" stroke="none" d="M 12763,14367 L 14686,14367 14686,13202 16147,12357 16147,13857 12688,15857 12688,14357 12763,14314 12763,14367 Z M 14651,14332 L 12798,14332 12798,14293 14651,13222 14651,14332 Z"/>
     <path fill="rgb(126,126,126)" stroke="none" d="M 12798,14332 L 14651,14332 14651,13222 16147,12357 16147,13857 12688,15857 12688,14357 12798,14293 12798,14332 Z M 14617,14298 L 12832,14298 12832,14274 14617,13242 14617,14298 Z"/>
     <path fill="rgb(127,127,127)" stroke="none" d="M 12832,14298 L 14617,14298 14617,13242 16147,12357 16147,13857 12688,15857 12688,14357 12832,14274 12832,14298 Z M 14583,14264 L 12866,14264 12866,14254 14583,13261 14583,14264 Z"/>
     <path fill="rgb(128,128,128)" stroke="none" d="M 12866,14264 L 14583,14264 14583,13261 16147,12357 16147,13857 12688,15857 12688,14357 12866,14254 12866,14264 Z M 14548,14229 L 12909,14229 14548,13282 14548,14229 Z"/>
     <path fill="rgb(129,129,129)" stroke="none" d="M 14548,14229 L 14548,13282 16147,12357 16147,13857 12688,15857 12688,14357 12909,14229 14548,14229 Z M 14514,14195 L 12968,14195 14514,13301 14514,14195 Z"/>
     <path fill="rgb(130,130,130)" stroke="none" d="M 14514,14195 L 14514,13301 16147,12357 16147,13857 12688,15857 12688,14357 12968,14195 14514,14195 Z M 14480,14161 L 13027,14161 14480,13321 14480,14161 Z"/>
     <path fill="rgb(131,131,131)" stroke="none" d="M 14480,14161 L 14480,13321 16147,12357 16147,13857 12688,15857 12688,14357 13027,14161 14480,14161 Z M 14445,14126 L 13088,14126 14445,13341 14445,14126 Z"/>
     <path fill="rgb(132,132,132)" stroke="none" d="M 14445,14126 L 14445,13341 16147,12357 16147,13857 12688,15857 12688,14357 13088,14126 14445,14126 Z M 14411,14092 L 13146,14092 14411,13361 14411,14092 Z"/>
     <path fill="rgb(133,133,133)" stroke="none" d="M 14411,14092 L 14411,13361 16147,12357 16147,13857 12688,15857 12688,14357 13146,14092 14411,14092 Z M 14377,14058 L 13205,14058 14377,13380 14377,14058 Z"/>
     <path fill="rgb(134,134,134)" stroke="none" d="M 14377,14058 L 14377,13380 16147,12357 16147,13857 12688,15857 12688,14357 13205,14058 14377,14058 Z M 14342,14023 L 13266,14023 14342,13401 14342,14023 Z"/>
     <path fill="rgb(135,135,135)" stroke="none" d="M 14342,14023 L 14342,13401 16147,12357 16147,13857 12688,15857 12688,14357 13266,14023 14342,14023 Z M 14308,13989 L 13324,13989 14308,13420 14308,13989 Z"/>
     <path fill="rgb(136,136,136)" stroke="none" d="M 14308,13989 L 14308,13420 16147,12357 16147,13857 12688,15857 12688,14357 13324,13989 14308,13989 Z M 14273,13954 L 13385,13954 14273,13441 14273,13954 Z"/>
     <path fill="rgb(137,137,137)" stroke="none" d="M 14273,13954 L 14273,13441 16147,12357 16147,13857 12688,15857 12688,14357 13385,13954 14273,13954 Z M 14239,13920 L 13444,13920 14239,13460 14239,13920 Z"/>
     <path fill="rgb(138,138,138)" stroke="none" d="M 14239,13920 L 14239,13460 16147,12357 16147,13857 12688,15857 12688,14357 13444,13920 14239,13920 Z M 14205,13886 L 13503,13886 14205,13480 14205,13886 Z"/>
     <path fill="rgb(139,139,139)" stroke="none" d="M 14205,13886 L 14205,13480 16147,12357 16147,13857 12688,15857 12688,14357 13503,13886 14205,13886 Z M 14170,13851 L 13563,13851 14170,13500 14170,13851 Z"/>
     <path fill="rgb(140,140,140)" stroke="none" d="M 14170,13851 L 14170,13500 16147,12357 16147,13857 12688,15857 12688,14357 13563,13851 14170,13851 Z M 14136,13817 L 13622,13817 14136,13520 14136,13817 Z"/>
     <path fill="rgb(141,141,141)" stroke="none" d="M 14136,13817 L 14136,13520 16147,12357 16147,13857 12688,15857 12688,14357 13622,13817 14136,13817 Z M 14102,13783 L 13681,13783 14102,13539 14102,13783 Z"/>
     <path fill="rgb(142,142,142)" stroke="none" d="M 14102,13783 L 14102,13539 16147,12357 16147,13857 12688,15857 12688,14357 13681,13783 14102,13783 Z M 14067,13748 L 13741,13748 14067,13560 14067,13748 Z"/>
     <path fill="rgb(143,143,143)" stroke="none" d="M 14067,13748 L 14067,13560 16147,12357 16147,13857 12688,15857 12688,14357 13741,13748 14067,13748 Z M 14033,13714 L 13800,13714 14033,13579 14033,13714 Z"/>
     <path fill="rgb(144,144,144)" stroke="none" d="M 14033,13714 L 14033,13579 16147,12357 16147,13857 12688,15857 12688,14357 13800,13714 14033,13714 Z M 13999,13680 L 13859,13680 13999,13599 13999,13680 Z"/>
     <path fill="rgb(145,145,145)" stroke="none" d="M 13999,13680 L 13999,13599 16147,12357 16147,13857 12688,15857 12688,14357 13859,13680 13999,13680 Z M 13964,13645 L 13919,13645 13964,13619 13964,13645 Z"/>
     <path fill="rgb(146,146,146)" stroke="none" d="M 13964,13645 L 13964,13619 16147,12357 16147,13857 12688,15857 12688,14357 13919,13645 13964,13645 Z"/>
     <path fill="rgb(147,147,147)" stroke="none" d="M 16147,13857 L 12688,15857 12688,14357 16147,12357 16147,13857 Z"/>
     <path fill="rgb(148,148,148)" stroke="none" d="M 16147,13857 L 12688,15857 12688,14357 16147,12357 16147,13857 Z"/>
     <path fill="rgb(149,149,149)" stroke="none" d="M 16147,13857 L 12688,15857 12688,14357 16147,12357 16147,13857 Z"/>
     <path fill="rgb(150,150,150)" stroke="none" d="M 16147,13857 L 12688,15857 12688,14357 16147,12357 16147,13857 Z"/>
     <path fill="rgb(151,151,151)" stroke="none" d="M 16147,13857 L 12688,15857 12688,14357 16147,12357 16147,13857 Z"/>
     <path fill="rgb(153,153,153)" stroke="none" d="M 16147,13857 L 12688,15857 12688,14357 16147,12357 16147,13857 Z"/>
     <path fill="none" stroke="rgb(178,178,178)" id="Drawing_2_0" stroke-width="40" stroke-linejoin="round" d="M 16147,13857 L 16147,12357 12688,14357 12688,15857 16147,13857 Z"/>
    </g>
    <g>
     <defs>
      <linearGradient id="Gradient_265" gradientUnits="userSpaceOnUse" x1="10956" y1="14605" x2="12689" y2="14609">
       <stop offset="0.1" stop-color="rgb(102,102,102)"/>
       <stop offset="1" stop-color="rgb(153,153,153)"/>
      </linearGradient>
     </defs>
     <path fill="url(#Gradient_265)" stroke="rgb(178,178,178)" id="Drawing_3_0" stroke-width="40" stroke-linejoin="round" d="M 12688,15857 L 12688,14357 10959,13357 10959,14857 12688,15857 Z"/>
    </g>
    <g>
     <defs>
      <linearGradient id="Gradient_266" gradientUnits="userSpaceOnUse" x1="13553" y1="11357" x2="13553" y2="14357">
       <stop offset="0.1" stop-color="rgb(51,51,51)"/>
       <stop offset="1" stop-color="rgb(153,153,153)"/>
      </linearGradient>
     </defs>
     <path fill="url(#Gradient_266)" stroke="rgb(178,178,178)" id="Drawing_4_0" stroke-width="40" stroke-linejoin="round" d="M 12688,14357 L 16147,12357 14418,11357 10959,13357 12688,14357 Z"/>
    </g>
    <g>
     <path fill="rgb(57,181,74)" stroke="none" d="M 15937,12887 L 15937,12687 15764,12787 15764,12987 15937,12887 Z"/>
     <path fill="none" stroke="rgb(51,51,51)" id="Drawing_5_0" stroke-width="40" stroke-linejoin="round" d="M 15937,12887 L 15937,12687 15764,12787 15764,12987 15937,12887 Z"/>
    </g>
    <g>
     <defs>
      <linearGradient id="Gradient_267" gradientUnits="userSpaceOnUse" x1="13550" y1="15280" x2="15281" y2="15284">
       <stop offset="0.1" stop-color="rgb(102,102,102)"/>
       <stop offset="1" stop-color="rgb(153,153,153)"/>
      </linearGradient>
     </defs>
     <path fill="url(#Gradient_267)" stroke="rgb(178,178,178)" id="Drawing_6_0" stroke-width="40" stroke-linejoin="round" d="M 15281,15507 L 13552,14807 13552,15207 15281,15757 15281,15507 Z"/>
    </g>
    <g>
     <defs>
      <linearGradient id="Gradient_268" gradientUnits="userSpaceOnUse" x1="15281" y1="13807" x2="15281" y2="15507">
       <stop offset="0.1" stop-color="rgb(51,51,51)"/>
       <stop offset="1" stop-color="rgb(153,153,153)"/>
      </linearGradient>
     </defs>
     <path fill="url(#Gradient_268)" stroke="rgb(178,178,178)" id="Drawing_7_0" stroke-width="40" stroke-linejoin="round" d="M 15281,15507 L 17011,14507 15281,13807 13552,14807 15281,15507 Z"/>
    </g>
    <g>
     <path fill="rgb(102,102,102)" stroke="none" d="M 16648,14967 L 15330,15729 15282,15729 15282,15507 16648,14717 16648,14967 Z"/>
     <path fill="rgb(103,103,103)" stroke="none" d="M 15330,15729 L 15282,15757 15282,15729 15330,15729 Z M 16648,14717 L 17011,14507 17011,14757 16648,14967 16648,14717 Z M 16631,14977 L 15360,15712 15282,15712 15282,15507 16631,14727 16631,14977 Z"/>
     <path fill="rgb(104,104,104)" stroke="none" d="M 15360,15712 L 15282,15757 15282,15712 15360,15712 Z M 16631,14727 L 17011,14507 17011,14757 16631,14977 16631,14727 Z M 16614,14987 L 15389,15695 15282,15695 15282,15507 16614,14737 16614,14987 Z"/>
     <path fill="rgb(105,105,105)" stroke="none" d="M 15389,15695 L 15282,15757 15282,15695 15389,15695 Z M 16614,14737 L 17011,14507 17011,14757 16614,14987 16614,14737 Z M 16597,14996 L 15419,15678 15282,15678 15282,15507 16597,14746 16597,14996 Z"/>
     <path fill="rgb(106,106,106)" stroke="none" d="M 15419,15678 L 15282,15757 15282,15678 15419,15678 Z M 16597,14746 L 17011,14507 17011,14757 16597,14996 16597,14746 Z M 16580,15006 L 15448,15661 15282,15661 15282,15507 16580,14756 16580,15006 Z"/>
     <path fill="rgb(107,107,107)" stroke="none" d="M 15448,15661 L 15282,15757 15282,15661 15448,15661 Z M 16580,14756 L 17011,14507 17011,14757 16580,15006 16580,14756 Z M 16563,15016 L 15477,15644 15282,15644 15282,15507 16563,14766 16563,15016 Z"/>
     <path fill="rgb(108,108,108)" stroke="none" d="M 15477,15644 L 15282,15757 15282,15644 15477,15644 Z M 16563,14766 L 17011,14507 17011,14757 16563,15016 16563,14766 Z M 16546,15026 L 15507,15627 15282,15627 15282,15507 16546,14776 16546,15026 Z"/>
     <path fill="rgb(109,109,109)" stroke="none" d="M 15507,15627 L 15282,15757 15282,15627 15507,15627 Z M 16546,14776 L 17011,14507 17011,14757 16546,15026 16546,14776 Z M 16529,15036 L 15536,15610 15282,15610 15282,15507 16529,14786 16529,15036 Z"/>
     <path fill="rgb(110,110,110)" stroke="none" d="M 15536,15610 L 15282,15757 15282,15610 15536,15610 Z M 16529,14786 L 17011,14507 17011,14757 16529,15036 16529,14786 Z M 16512,15046 L 15566,15593 15282,15593 15282,15507 16512,14796 16512,15046 Z"/>
     <path fill="rgb(111,111,111)" stroke="none" d="M 15566,15593 L 15282,15757 15282,15593 15566,15593 Z M 16512,14796 L 17011,14507 17011,14757 16512,15046 16512,14796 Z M 16495,15055 L 15595,15576 15282,15576 15282,15507 16495,14805 16495,15055 Z"/>
     <path fill="rgb(112,112,112)" stroke="none" d="M 15595,15576 L 15282,15757 15282,15576 15595,15576 Z M 16495,14805 L 17011,14507 17011,14757 16495,15055 16495,14805 Z M 16478,15065 L 15624,15559 15282,15559 15282,15507 16478,14815 16478,15065 Z"/>
     <path fill="rgb(113,113,113)" stroke="none" d="M 15624,15559 L 15282,15757 15282,15559 15624,15559 Z M 16478,14815 L 17011,14507 17011,14757 16478,15065 16478,14815 Z M 16461,15075 L 15654,15542 15282,15542 15282,15507 16461,14825 16461,15075 Z"/>
     <path fill="rgb(114,114,114)" stroke="none" d="M 15654,15542 L 15282,15757 15282,15542 15654,15542 Z M 16461,14825 L 17011,14507 17011,14757 16461,15075 16461,14825 Z M 16444,15085 L 15683,15525 15282,15525 15282,15507 16444,14835 16444,15085 Z"/>
     <path fill="rgb(115,115,115)" stroke="none" d="M 15683,15525 L 15282,15757 15282,15525 15683,15525 Z M 16444,14835 L 17011,14507 17011,14757 16444,15085 16444,14835 Z M 16427,15095 L 15713,15508 15282,15508 15282,15507 16427,14845 16427,15095 Z"/>
     <path fill="rgb(116,116,116)" stroke="none" d="M 15713,15508 L 15282,15757 15282,15508 15713,15508 Z M 16427,14845 L 17011,14507 17011,14757 16427,15095 16427,14845 Z M 16410,15105 L 15742,15491 15310,15491 16410,14855 16410,15105 Z"/>
     <path fill="rgb(117,117,117)" stroke="none" d="M 15742,15491 L 15282,15757 15282,15507 15310,15491 15742,15491 Z M 16410,14855 L 17011,14507 17011,14757 16410,15105 16410,14855 Z M 16393,15114 L 15771,15474 15339,15474 16393,14864 16393,15114 Z"/>
     <path fill="rgb(118,118,118)" stroke="none" d="M 15771,15474 L 15282,15757 15282,15507 15339,15474 15771,15474 Z M 16393,14864 L 17011,14507 17011,14757 16393,15114 16393,14864 Z M 16376,15124 L 15801,15457 15368,15457 16376,14874 16376,15124 Z"/>
     <path fill="rgb(119,119,119)" stroke="none" d="M 15801,15457 L 15282,15757 15282,15507 15368,15457 15801,15457 Z M 16376,14874 L 17011,14507 17011,14757 16376,15124 16376,14874 Z M 16359,15134 L 15830,15440 15398,15440 16359,14884 16359,15134 Z"/>
     <path fill="rgb(120,120,120)" stroke="none" d="M 15830,15440 L 15282,15757 15282,15507 15398,15440 15830,15440 Z M 16359,14884 L 17011,14507 17011,14757 16359,15134 16359,14884 Z M 16342,15144 L 15859,15423 15427,15423 16342,14894 16342,15144 Z"/>
     <path fill="rgb(121,121,121)" stroke="none" d="M 15859,15423 L 15282,15757 15282,15507 15427,15423 15859,15423 Z M 16342,14894 L 17011,14507 17011,14757 16342,15144 16342,14894 Z M 16325,15154 L 15889,15406 15457,15406 16325,14904 16325,15154 Z"/>
     <path fill="rgb(122,122,122)" stroke="none" d="M 15889,15406 L 15282,15757 15282,15507 15457,15406 15889,15406 Z M 16325,14904 L 17011,14507 17011,14757 16325,15154 16325,14904 Z M 16308,15164 L 15918,15389 15486,15389 16308,14914 16308,15164 Z"/>
     <path fill="rgb(123,123,123)" stroke="none" d="M 15918,15389 L 15282,15757 15282,15507 15486,15389 15918,15389 Z M 16308,14914 L 17011,14507 17011,14757 16308,15164 16308,14914 Z M 16291,15173 L 15948,15372 15515,15372 16291,14923 16291,15173 Z"/>
     <path fill="rgb(124,124,124)" stroke="none" d="M 15948,15372 L 15282,15757 15282,15507 15515,15372 15948,15372 Z M 16291,14923 L 17011,14507 17011,14757 16291,15173 16291,14923 Z M 16274,15183 L 15977,15355 15545,15355 16274,14933 16274,15183 Z"/>
     <path fill="rgb(125,125,125)" stroke="none" d="M 15977,15355 L 15282,15757 15282,15507 15545,15355 15977,15355 Z M 16274,14933 L 17011,14507 17011,14757 16274,15183 16274,14933 Z M 16257,15193 L 16006,15338 15574,15338 16257,14943 16257,15193 Z"/>
     <path fill="rgb(126,126,126)" stroke="none" d="M 16006,15338 L 15282,15757 15282,15507 15574,15338 16006,15338 Z M 16257,14943 L 17011,14507 17011,14757 16257,15193 16257,14943 Z M 16240,15203 L 16036,15321 15604,15321 16240,14953 16240,15203 Z"/>
     <path fill="rgb(127,127,127)" stroke="none" d="M 16036,15321 L 15282,15757 15282,15507 15604,15321 16036,15321 Z M 16240,14953 L 17011,14507 17011,14757 16240,15203 16240,14953 Z M 16223,15213 L 16065,15304 15633,15304 16223,14963 16223,15213 Z"/>
     <path fill="rgb(128,128,128)" stroke="none" d="M 16065,15304 L 15282,15757 15282,15507 15633,15304 16065,15304 Z M 16223,14963 L 17011,14507 17011,14757 16223,15213 16223,14963 Z M 16206,15223 L 16095,15287 15662,15287 16206,14973 16206,15223 Z"/>
     <path fill="rgb(129,129,129)" stroke="none" d="M 16095,15287 L 15282,15757 15282,15507 15662,15287 16095,15287 Z M 16206,14973 L 17011,14507 17011,14757 16206,15223 16206,14973 Z M 16189,15232 L 16124,15270 15692,15270 16189,14982 16189,15232 Z"/>
     <path fill="rgb(130,130,130)" stroke="none" d="M 16124,15270 L 15282,15757 15282,15507 15692,15270 16124,15270 Z M 16189,14982 L 17011,14507 17011,14757 16189,15232 16189,14982 Z M 16172,15242 L 16153,15253 15721,15253 16172,14992 16172,15242 Z"/>
     <path fill="rgb(131,131,131)" stroke="none" d="M 16153,15253 L 15282,15757 15282,15507 15721,15253 16153,15253 Z M 16172,14992 L 17011,14507 17011,14757 16172,15242 16172,14992 Z M 16155,15236 L 15751,15236 16155,15002 16155,15236 Z"/>
     <path fill="rgb(132,132,132)" stroke="none" d="M 16155,15236 L 16155,15002 17011,14507 17011,14757 15282,15757 15282,15507 15751,15236 16155,15236 Z M 16138,15219 L 15780,15219 16138,15012 16138,15219 Z"/>
     <path fill="rgb(133,133,133)" stroke="none" d="M 16138,15219 L 16138,15012 17011,14507 17011,14757 15282,15757 15282,15507 15780,15219 16138,15219 Z M 16121,15202 L 15809,15202 16121,15022 16121,15202 Z"/>
     <path fill="rgb(134,134,134)" stroke="none" d="M 16121,15202 L 16121,15022 17011,14507 17011,14757 15282,15757 15282,15507 15809,15202 16121,15202 Z M 16104,15185 L 15839,15185 16104,15032 16104,15185 Z"/>
     <path fill="rgb(135,135,135)" stroke="none" d="M 16104,15185 L 16104,15032 17011,14507 17011,14757 15282,15757 15282,15507 15839,15185 16104,15185 Z M 16087,15168 L 15868,15168 16087,15041 16087,15168 Z"/>
     <path fill="rgb(136,136,136)" stroke="none" d="M 16087,15168 L 16087,15041 17011,14507 17011,14757 15282,15757 15282,15507 15868,15168 16087,15168 Z M 16070,15151 L 15898,15151 16070,15051 16070,15151 Z"/>
     <path fill="rgb(137,137,137)" stroke="none" d="M 16070,15151 L 16070,15051 17011,14507 17011,14757 15282,15757 15282,15507 15898,15151 16070,15151 Z M 16053,15134 L 15927,15134 16053,15061 16053,15134 Z"/>
     <path fill="rgb(138,138,138)" stroke="none" d="M 16053,15134 L 16053,15061 17011,14507 17011,14757 15282,15757 15282,15507 15927,15134 16053,15134 Z M 16036,15117 L 15956,15117 16036,15071 16036,15117 Z"/>
     <path fill="rgb(139,139,139)" stroke="none" d="M 16036,15117 L 16036,15071 17011,14507 17011,14757 15282,15757 15282,15507 15956,15117 16036,15117 Z M 16019,15100 L 15986,15100 16019,15081 16019,15100 Z"/>
     <path fill="rgb(140,140,140)" stroke="none" d="M 16019,15100 L 16019,15081 17011,14507 17011,14757 15282,15757 15282,15507 15986,15100 16019,15100 Z"/>
     <path fill="rgb(141,141,141)" stroke="none" d="M 17011,14757 L 15282,15757 15282,15507 17011,14507 17011,14757 Z"/>
     <path fill="rgb(142,142,142)" stroke="none" d="M 17011,14757 L 15282,15757 15282,15507 17011,14507 17011,14757 Z"/>
     <path fill="rgb(143,143,143)" stroke="none" d="M 17011,14757 L 15282,15757 15282,15507 17011,14507 17011,14757 Z"/>
     <path fill="rgb(144,144,144)" stroke="none" d="M 17011,14757 L 15282,15757 15282,15507 17011,14507 17011,14757 Z"/>
     <path fill="rgb(145,145,145)" stroke="none" d="M 17011,14757 L 15282,15757 15282,15507 17011,14507 17011,14757 Z"/>
     <path fill="rgb(146,146,146)" stroke="none" d="M 17011,14757 L 15282,15757 15282,15507 17011,14507 17011,14757 Z"/>
     <path fill="rgb(147,147,147)" stroke="none" d="M 17011,14757 L 15282,15757 15282,15507 17011,14507 17011,14757 Z"/>
     <path fill="rgb(148,148,148)" stroke="none" d="M 17011,14757 L 15282,15757 15282,15507 17011,14507 17011,14757 Z"/>
     <path fill="rgb(149,149,149)" stroke="none" d="M 17011,14757 L 15282,15757 15282,15507 17011,14507 17011,14757 Z"/>
     <path fill="rgb(150,150,150)" stroke="none" d="M 17011,14757 L 15282,15757 15282,15507 17011,14507 17011,14757 Z"/>
     <path fill="rgb(151,151,151)" stroke="none" d="M 17011,14757 L 15282,15757 15282,15507 17011,14507 17011,14757 Z"/>
     <path fill="rgb(153,153,153)" stroke="none" d="M 17011,14757 L 15282,15757 15282,15507 17011,14507 17011,14757 Z"/>
     <path fill="none" stroke="rgb(178,178,178)" id="Drawing_8_0" stroke-width="40" stroke-linejoin="round" d="M 17011,14757 L 17011,14507 15282,15507 15282,15757 17011,14757 Z"/>
    </g>
    <g>
     <path fill="none" stroke="rgb(0,0,0)" id="Drawing_9_0" stroke-width="40" stroke-linejoin="round" d="M 16147,13857 L 16147,12357 14418,11357 10959,13357 10959,14857 12688,15857 13726,15257 15282,15757 17011,14757 17011,14507 15801,14007 16147,13857 Z"/>
    </g>
    <g>
     <path fill="rgb(255,255,255)" stroke="none" d="M 15714,15407 C 16060,15207 16579,14907 16924,14707 16492,14457 15627,14107 15022,13957 14676,14157 14244,14407 13812,14657 14331,14807 15195,15157 15714,15407 Z"/>
     <path fill="none" stroke="rgb(102,102,102)" id="Drawing_10_0" stroke-width="40" stroke-linejoin="round" d="M 15714,15407 C 16060,15207 16579,14907 16924,14707 16492,14457 15627,14107 15022,13957 14676,14157 14244,14407 13812,14657 14331,14807 15195,15157 15714,15407 Z"/>
    </g>
    <g>
     <path fill="none" stroke="rgb(102,102,102)" id="Drawing_11_0" stroke-width="40" stroke-linejoin="round" d="M 15281,13807 L 15281,13607 13552,14607 13552,14757"/>
    </g>
    <g>
     <defs>
      <linearGradient id="Gradient_269" gradientUnits="userSpaceOnUse" x1="13639" y1="11957" x2="13639" y2="13857">
       <stop offset="0.1" stop-color="rgb(51,51,51)"/>
       <stop offset="1" stop-color="rgb(153,153,153)"/>
      </linearGradient>
     </defs>
     <path fill="url(#Gradient_269)" stroke="rgb(178,178,178)" id="Drawing_12_0" stroke-width="40" stroke-linejoin="round" d="M 13552,13857 L 15282,12857 13725,11957 11996,12957 13552,13857 Z"/>
    </g>
    <g>
     <path fill="rgb(102,102,102)" stroke="none" d="M 14918,13567 L 13903,14154 13552,14154 13552,13857 14918,13067 14918,13567 Z"/>
     <path fill="rgb(103,103,103)" stroke="none" d="M 13903,14154 L 13552,14357 13552,14154 13903,14154 Z M 14918,13067 L 15281,12857 15281,13357 14918,13567 14918,13067 Z M 14901,13577 L 13932,14137 13552,14137 13552,13857 14901,13077 14901,13577 Z"/>
     <path fill="rgb(104,104,104)" stroke="none" d="M 13932,14137 L 13552,14357 13552,14137 13932,14137 Z M 14901,13077 L 15281,12857 15281,13357 14901,13577 14901,13077 Z M 14884,13587 L 13962,14120 13552,14120 13552,13857 14884,13087 14884,13587 Z"/>
     <path fill="rgb(105,105,105)" stroke="none" d="M 13962,14120 L 13552,14357 13552,14120 13962,14120 Z M 14884,13087 L 15281,12857 15281,13357 14884,13587 14884,13087 Z M 14867,13596 L 13991,14103 13552,14103 13552,13857 14867,13096 14867,13596 Z"/>
     <path fill="rgb(106,106,106)" stroke="none" d="M 13991,14103 L 13552,14357 13552,14103 13991,14103 Z M 14867,13096 L 15281,12857 15281,13357 14867,13596 14867,13096 Z M 14850,13606 L 14021,14086 13552,14086 13552,13857 14850,13106 14850,13606 Z"/>
     <path fill="rgb(107,107,107)" stroke="none" d="M 14021,14086 L 13552,14357 13552,14086 14021,14086 Z M 14850,13106 L 15281,12857 15281,13357 14850,13606 14850,13106 Z M 14833,13616 L 14050,14069 13552,14069 13552,13857 14833,13116 14833,13616 Z"/>
     <path fill="rgb(108,108,108)" stroke="none" d="M 14050,14069 L 13552,14357 13552,14069 14050,14069 Z M 14833,13116 L 15281,12857 15281,13357 14833,13616 14833,13116 Z M 14816,13626 L 14079,14052 13552,14052 13552,13857 14816,13126 14816,13626 Z"/>
     <path fill="rgb(109,109,109)" stroke="none" d="M 14079,14052 L 13552,14357 13552,14052 14079,14052 Z M 14816,13126 L 15281,12857 15281,13357 14816,13626 14816,13126 Z M 14799,13636 L 14109,14035 13552,14035 13552,13857 14799,13136 14799,13636 Z"/>
     <path fill="rgb(110,110,110)" stroke="none" d="M 14109,14035 L 13552,14357 13552,14035 14109,14035 Z M 14799,13136 L 15281,12857 15281,13357 14799,13636 14799,13136 Z M 14782,13646 L 14138,14018 13552,14018 13552,13857 14782,13146 14782,13646 Z"/>
     <path fill="rgb(111,111,111)" stroke="none" d="M 14138,14018 L 13552,14357 13552,14018 14138,14018 Z M 14782,13146 L 15281,12857 15281,13357 14782,13646 14782,13146 Z M 14765,13655 L 14168,14001 13552,14001 13552,13857 14765,13155 14765,13655 Z"/>
     <path fill="rgb(112,112,112)" stroke="none" d="M 14168,14001 L 13552,14357 13552,14001 14168,14001 Z M 14765,13155 L 15281,12857 15281,13357 14765,13655 14765,13155 Z M 14748,13665 L 14197,13984 13552,13984 13552,13857 14748,13165 14748,13665 Z"/>
     <path fill="rgb(113,113,113)" stroke="none" d="M 14197,13984 L 13552,14357 13552,13984 14197,13984 Z M 14748,13165 L 15281,12857 15281,13357 14748,13665 14748,13165 Z M 14731,13675 L 14226,13967 13552,13967 13552,13857 14731,13175 14731,13675 Z"/>
     <path fill="rgb(114,114,114)" stroke="none" d="M 14226,13967 L 13552,14357 13552,13967 14226,13967 Z M 14731,13175 L 15281,12857 15281,13357 14731,13675 14731,13175 Z M 14714,13685 L 14256,13950 13552,13950 13552,13857 14714,13185 14714,13685 Z"/>
     <path fill="rgb(115,115,115)" stroke="none" d="M 14256,13950 L 13552,14357 13552,13950 14256,13950 Z M 14714,13185 L 15281,12857 15281,13357 14714,13685 14714,13185 Z M 14697,13695 L 14285,13933 13552,13933 13552,13857 14697,13195 14697,13695 Z"/>
     <path fill="rgb(116,116,116)" stroke="none" d="M 14285,13933 L 13552,14357 13552,13933 14285,13933 Z M 14697,13195 L 15281,12857 15281,13357 14697,13695 14697,13195 Z M 14680,13705 L 14314,13916 13552,13916 13552,13857 14680,13205 14680,13705 Z"/>
     <path fill="rgb(117,117,117)" stroke="none" d="M 14314,13916 L 13552,14357 13552,13916 14314,13916 Z M 14680,13205 L 15281,12857 15281,13357 14680,13705 14680,13205 Z M 14663,13714 L 14344,13899 13552,13899 13552,13857 14663,13214 14663,13714 Z"/>
     <path fill="rgb(118,118,118)" stroke="none" d="M 14344,13899 L 13552,14357 13552,13899 14344,13899 Z M 14663,13214 L 15281,12857 15281,13357 14663,13714 14663,13214 Z M 14646,13724 L 14373,13882 13552,13882 13552,13857 14646,13224 14646,13724 Z"/>
     <path fill="rgb(119,119,119)" stroke="none" d="M 14373,13882 L 13552,14357 13552,13882 14373,13882 Z M 14646,13224 L 15281,12857 15281,13357 14646,13724 14646,13224 Z M 14629,13734 L 14403,13865 13552,13865 13552,13857 14629,13234 14629,13734 Z"/>
     <path fill="rgb(120,120,120)" stroke="none" d="M 14403,13865 L 13552,14357 13552,13865 14403,13865 Z M 14629,13234 L 15281,12857 15281,13357 14629,13734 14629,13234 Z M 14612,13744 L 14432,13848 13568,13848 14612,13244 14612,13744 Z"/>
     <path fill="rgb(121,121,121)" stroke="none" d="M 14432,13848 L 13552,14357 13552,13857 13568,13848 14432,13848 Z M 14612,13244 L 15281,12857 15281,13357 14612,13744 14612,13244 Z M 14595,13754 L 14461,13831 13597,13831 14595,13254 14595,13754 Z"/>
     <path fill="rgb(122,122,122)" stroke="none" d="M 14461,13831 L 13552,14357 13552,13857 13597,13831 14461,13831 Z M 14595,13254 L 15281,12857 15281,13357 14595,13754 14595,13254 Z M 14578,13764 L 14491,13814 13626,13814 14578,13264 14578,13764 Z"/>
     <path fill="rgb(123,123,123)" stroke="none" d="M 14491,13814 L 13552,14357 13552,13857 13626,13814 14491,13814 Z M 14578,13264 L 15281,12857 15281,13357 14578,13764 14578,13264 Z M 14561,13773 L 14520,13797 13656,13797 14561,13273 14561,13773 Z"/>
     <path fill="rgb(124,124,124)" stroke="none" d="M 14520,13797 L 13552,14357 13552,13857 13656,13797 14520,13797 Z M 14561,13273 L 15281,12857 15281,13357 14561,13773 14561,13273 Z M 14544,13780 L 13685,13780 14544,13283 14544,13780 Z"/>
     <path fill="rgb(125,125,125)" stroke="none" d="M 14544,13780 L 14544,13283 15281,12857 15281,13357 13552,14357 13552,13857 13685,13780 14544,13780 Z M 14527,13763 L 13715,13763 14527,13293 14527,13763 Z"/>
     <path fill="rgb(126,126,126)" stroke="none" d="M 14527,13763 L 14527,13293 15281,12857 15281,13357 13552,14357 13552,13857 13715,13763 14527,13763 Z M 14510,13746 L 13744,13746 14510,13303 14510,13746 Z"/>
     <path fill="rgb(127,127,127)" stroke="none" d="M 14510,13746 L 14510,13303 15281,12857 15281,13357 13552,14357 13552,13857 13744,13746 14510,13746 Z M 14493,13729 L 13773,13729 14493,13313 14493,13729 Z"/>
     <path fill="rgb(128,128,128)" stroke="none" d="M 14493,13729 L 14493,13313 15281,12857 15281,13357 13552,14357 13552,13857 13773,13729 14493,13729 Z M 14476,13712 L 13803,13712 14476,13323 14476,13712 Z"/>
     <path fill="rgb(129,129,129)" stroke="none" d="M 14476,13712 L 14476,13323 15281,12857 15281,13357 13552,14357 13552,13857 13803,13712 14476,13712 Z M 14459,13695 L 13832,13695 14459,13332 14459,13695 Z"/>
     <path fill="rgb(130,130,130)" stroke="none" d="M 14459,13695 L 14459,13332 15281,12857 15281,13357 13552,14357 13552,13857 13832,13695 14459,13695 Z M 14442,13678 L 13861,13678 14442,13342 14442,13678 Z"/>
     <path fill="rgb(131,131,131)" stroke="none" d="M 14442,13678 L 14442,13342 15281,12857 15281,13357 13552,14357 13552,13857 13861,13678 14442,13678 Z M 14425,13661 L 13891,13661 14425,13352 14425,13661 Z"/>
     <path fill="rgb(132,132,132)" stroke="none" d="M 14425,13661 L 14425,13352 15281,12857 15281,13357 13552,14357 13552,13857 13891,13661 14425,13661 Z M 14408,13644 L 13920,13644 14408,13362 14408,13644 Z"/>
     <path fill="rgb(133,133,133)" stroke="none" d="M 14408,13644 L 14408,13362 15281,12857 15281,13357 13552,14357 13552,13857 13920,13644 14408,13644 Z M 14391,13627 L 13950,13627 14391,13372 14391,13627 Z"/>
     <path fill="rgb(134,134,134)" stroke="none" d="M 14391,13627 L 14391,13372 15281,12857 15281,13357 13552,14357 13552,13857 13950,13627 14391,13627 Z M 14374,13610 L 13979,13610 14374,13382 14374,13610 Z"/>
     <path fill="rgb(135,135,135)" stroke="none" d="M 14374,13610 L 14374,13382 15281,12857 15281,13357 13552,14357 13552,13857 13979,13610 14374,13610 Z M 14357,13593 L 14008,13593 14357,13391 14357,13593 Z"/>
     <path fill="rgb(136,136,136)" stroke="none" d="M 14357,13593 L 14357,13391 15281,12857 15281,13357 13552,14357 13552,13857 14008,13593 14357,13593 Z M 14340,13576 L 14038,13576 14340,13401 14340,13576 Z"/>
     <path fill="rgb(137,137,137)" stroke="none" d="M 14340,13576 L 14340,13401 15281,12857 15281,13357 13552,14357 13552,13857 14038,13576 14340,13576 Z M 14323,13559 L 14067,13559 14323,13411 14323,13559 Z"/>
     <path fill="rgb(138,138,138)" stroke="none" d="M 14323,13559 L 14323,13411 15281,12857 15281,13357 13552,14357 13552,13857 14067,13559 14323,13559 Z M 14306,13542 L 14097,13542 14306,13421 14306,13542 Z"/>
     <path fill="rgb(139,139,139)" stroke="none" d="M 14306,13542 L 14306,13421 15281,12857 15281,13357 13552,14357 13552,13857 14097,13542 14306,13542 Z M 14289,13525 L 14126,13525 14289,13431 14289,13525 Z"/>
     <path fill="rgb(140,140,140)" stroke="none" d="M 14289,13525 L 14289,13431 15281,12857 15281,13357 13552,14357 13552,13857 14126,13525 14289,13525 Z M 14272,13508 L 14155,13508 14272,13441 14272,13508 Z"/>
     <path fill="rgb(141,141,141)" stroke="none" d="M 14272,13508 L 14272,13441 15281,12857 15281,13357 13552,14357 13552,13857 14155,13508 14272,13508 Z M 14255,13491 L 14185,13491 14255,13450 14255,13491 Z"/>
     <path fill="rgb(142,142,142)" stroke="none" d="M 14255,13491 L 14255,13450 15281,12857 15281,13357 13552,14357 13552,13857 14185,13491 14255,13491 Z M 14238,13474 L 14214,13474 14238,13460 14238,13474 Z"/>
     <path fill="rgb(143,143,143)" stroke="none" d="M 14238,13474 L 14238,13460 15281,12857 15281,13357 13552,14357 13552,13857 14214,13474 14238,13474 Z"/>
     <path fill="rgb(144,144,144)" stroke="none" d="M 15281,13357 L 13552,14357 13552,13857 15281,12857 15281,13357 Z"/>
     <path fill="rgb(145,145,145)" stroke="none" d="M 15281,13357 L 13552,14357 13552,13857 15281,12857 15281,13357 Z"/>
     <path fill="rgb(146,146,146)" stroke="none" d="M 15281,13357 L 13552,14357 13552,13857 15281,12857 15281,13357 Z"/>
     <path fill="rgb(147,147,147)" stroke="none" d="M 15281,13357 L 13552,14357 13552,13857 15281,12857 15281,13357 Z"/>
     <path fill="rgb(148,148,148)" stroke="none" d="M 15281,13357 L 13552,14357 13552,13857 15281,12857 15281,13357 Z"/>
     <path fill="rgb(149,149,149)" stroke="none" d="M 15281,13357 L 13552,14357 13552,13857 15281,12857 15281,13357 Z"/>
     <path fill="rgb(150,150,150)" stroke="none" d="M 15281,13357 L 13552,14357 13552,13857 15281,12857 15281,13357 Z"/>
     <path fill="rgb(151,151,151)" stroke="none" d="M 15281,13357 L 13552,14357 13552,13857 15281,12857 15281,13357 Z"/>
     <path fill="rgb(153,153,153)" stroke="none" d="M 15281,13357 L 13552,14357 13552,13857 15281,12857 15281,13357 Z"/>
     <path fill="none" stroke="rgb(178,178,178)" id="Drawing_13_0" stroke-width="40" stroke-linejoin="round" d="M 15281,13357 L 15281,12857 13552,13857 13552,14357 15281,13357 Z"/>
    </g>
   </g>
  </g>
 </g>
</svg>