<?xml version="1.0" encoding="UTF-8"?>

<svg version="1.2" baseProfile="tiny" width="46.38mm" height="49.4mm" viewBox="4510 10812 4638 4940" preserveAspectRatio="xMidYMid" fill-rule="evenodd" stroke-width="28.222" stroke-linejoin="round" xmlns="http://www.w3.org/2000/svg" xmlns:xlink="http://www.w3.org/1999/xlink" xml:space="preserve">
 <g visibility="visible" id="Slide_1">
  <g id="DrawingGroup_1">
   <g>
    <path fill="rgb(221,221,221)" stroke="none" d="M 7047,15312 C 7047,15312 8624,14874 8987,14542 9322,14235 8985,14122 8744,14122 8744,14274 7047,15242 7047,15312 Z"/>
    <path fill="none" stroke="rgb(221,221,221)" id="Drawing_1_0" stroke-width="40" stroke-linejoin="round" d="M 7047,15312 C 7047,15312 8624,14874 8987,14542 9322,14235 8985,14122 8744,14122 8744,14274 7047,15242 7047,15312 Z"/>
   </g>
   <g id="DrawingGroup_2">
    <g>
     <defs>
      <linearGradient id="Gradient_114" gradientUnits="userSpaceOnUse" x1="6671" y1="13105" x2="6671" y2="15479">
       <stop offset="0.1" stop-color="rgb(179,179,179)"/>
       <stop offset="1" stop-color="rgb(229,229,229)"/>
      </linearGradient>
     </defs>
     <path fill="url(#Gradient_114)" stroke="rgb(255,255,255)" id="Drawing_2_0" stroke-width="40" stroke-linejoin="round" d="M 6278,15479 L 8725,14065 7065,13105 4618,14519 6278,15479 Z"/>
    </g>
    <g>
     <path fill="rgb(127,127,127)" stroke="none" d="M 7764,13762 L 7065,13358 5055,14520 5754,14924 7764,13762 Z"/>
     <path fill="none" stroke="rgb(255,255,255)" id="Drawing_3_0" stroke-width="40" stroke-linejoin="round" d="M 7764,13762 L 7065,13358 5055,14520 5754,14924 7764,13762 Z"/>
    </g>
    <g>
     <path fill="rgb(179,179,179)" stroke="none" d="M 4618,13756 L 4618,12297 7065,10883 7065,13106 5940,13756 4618,13756 Z"/>
     <path fill="rgb(180,180,180)" stroke="none" d="M 5940,13756 L 4618,14520 4618,13756 5940,13756 Z M 4618,13720 L 4618,12297 7065,10883 7065,13106 6002,13720 4618,13720 Z"/>
     <path fill="rgb(181,181,181)" stroke="none" d="M 6002,13720 L 4618,14520 4618,13720 6002,13720 Z M 7061,13108 L 6066,13683 4618,13683 4618,12297 7061,10885 7061,13108 Z"/>
     <path fill="rgb(182,182,182)" stroke="none" d="M 6066,13683 L 4618,14520 4618,13683 6066,13683 Z M 7061,10885 L 7065,10883 7065,13106 7061,13108 7061,10885 Z M 7025,13129 L 6129,13647 4618,13647 4618,12297 7025,10906 7025,13129 Z"/>
     <path fill="rgb(183,183,183)" stroke="none" d="M 6129,13647 L 4618,14520 4618,13647 6129,13647 Z M 7025,10906 L 7065,10883 7065,13106 7025,13129 7025,10906 Z M 6988,13150 L 6193,13610 4618,13610 4618,12297 6988,10927 6988,13150 Z"/>
     <path fill="rgb(184,184,184)" stroke="none" d="M 6193,13610 L 4618,14520 4618,13610 6193,13610 Z M 6988,10927 L 7065,10883 7065,13106 6988,13150 6988,10927 Z M 6952,13171 L 6255,13574 4618,13574 4618,12297 6952,10948 6952,13171 Z"/>
     <path fill="rgb(185,185,185)" stroke="none" d="M 6255,13574 L 4618,14520 4618,13574 6255,13574 Z M 6952,10948 L 7065,10883 7065,13106 6952,13171 6952,10948 Z M 6916,13192 L 6317,13538 4618,13538 4618,12297 6916,10969 6916,13192 Z"/>
     <path fill="rgb(186,186,186)" stroke="none" d="M 6317,13538 L 4618,14520 4618,13538 6317,13538 Z M 6916,10969 L 7065,10883 7065,13106 6916,13192 6916,10969 Z M 6879,13213 L 6381,13501 4618,13501 4618,12297 6879,10990 6879,13213 Z"/>
     <path fill="rgb(187,187,187)" stroke="none" d="M 6381,13501 L 4618,14520 4618,13501 6381,13501 Z M 6879,10990 L 7065,10883 7065,13106 6879,13213 6879,10990 Z M 6843,13234 L 6444,13465 4618,13465 4618,12297 6843,11011 6843,13234 Z"/>
     <path fill="rgb(188,188,188)" stroke="none" d="M 6444,13465 L 4618,14520 4618,13465 6444,13465 Z M 6843,11011 L 7065,10883 7065,13106 6843,13234 6843,11011 Z M 6806,13256 L 6508,13428 4618,13428 4618,12297 6806,11033 6806,13256 Z"/>
     <path fill="rgb(189,189,189)" stroke="none" d="M 6508,13428 L 4618,14520 4618,13428 6508,13428 Z M 6806,11033 L 7065,10883 7065,13106 6806,13256 6806,11033 Z M 6770,13276 L 6570,13392 4618,13392 4618,12297 6770,11053 6770,13276 Z"/>
     <path fill="rgb(190,190,190)" stroke="none" d="M 6570,13392 L 4618,14520 4618,13392 6570,13392 Z M 6770,11053 L 7065,10883 7065,13106 6770,13276 6770,11053 Z M 6734,13297 L 6632,13356 4618,13356 4618,12297 6734,11074 6734,13297 Z"/>
     <path fill="rgb(191,191,191)" stroke="none" d="M 6632,13356 L 4618,14520 4618,13356 6632,13356 Z M 6734,11074 L 7065,10883 7065,13106 6734,13297 6734,11074 Z M 6697,13319 L 6696,13319 4618,13319 4618,12297 6697,11096 6697,13319 Z"/>
     <path fill="rgb(192,192,192)" stroke="none" d="M 6696,13319 L 4618,14520 4618,13319 6696,13319 Z M 6697,11096 L 7065,10883 7065,13106 6697,13319 6697,11096 Z M 6661,13283 L 4618,13283 4618,12297 6661,11116 6661,13283 Z"/>
     <path fill="rgb(193,193,193)" stroke="none" d="M 6661,13283 L 6661,11116 7065,10883 7065,13106 4618,14520 4618,13283 6661,13283 Z M 6624,13246 L 4618,13246 4618,12297 6624,11138 6624,13246 Z"/>
     <path fill="rgb(194,194,194)" stroke="none" d="M 6624,13246 L 6624,11138 7065,10883 7065,13106 4618,14520 4618,13246 6624,13246 Z M 6588,13210 L 4618,13210 4618,12297 6588,11159 6588,13210 Z"/>
     <path fill="rgb(195,195,195)" stroke="none" d="M 6588,13210 L 6588,11159 7065,10883 7065,13106 4618,14520 4618,13210 6588,13210 Z M 6552,13174 L 4618,13174 4618,12297 6552,11179 6552,13174 Z"/>
     <path fill="rgb(196,196,196)" stroke="none" d="M 6552,13174 L 6552,11179 7065,10883 7065,13106 4618,14520 4618,13174 6552,13174 Z M 6515,13137 L 4618,13137 4618,12297 6515,11201 6515,13137 Z"/>
     <path fill="rgb(197,197,197)" stroke="none" d="M 6515,13137 L 6515,11201 7065,10883 7065,13106 4618,14520 4618,13137 6515,13137 Z M 6479,13101 L 4618,13101 4618,12297 6479,11222 6479,13101 Z"/>
     <path fill="rgb(198,198,198)" stroke="none" d="M 6479,13101 L 6479,11222 7065,10883 7065,13106 4618,14520 4618,13101 6479,13101 Z M 6442,13064 L 4618,13064 4618,12297 6442,11243 6442,13064 Z"/>
     <path fill="rgb(199,199,199)" stroke="none" d="M 6442,13064 L 6442,11243 7065,10883 7065,13106 4618,14520 4618,13064 6442,13064 Z M 6406,13028 L 4618,13028 4618,12297 6406,11264 6406,13028 Z"/>
     <path fill="rgb(200,200,200)" stroke="none" d="M 6406,13028 L 6406,11264 7065,10883 7065,13106 4618,14520 4618,13028 6406,13028 Z M 6370,12992 L 4618,12992 4618,12297 6370,11285 6370,12992 Z"/>
     <path fill="rgb(201,201,201)" stroke="none" d="M 6370,12992 L 6370,11285 7065,10883 7065,13106 4618,14520 4618,12992 6370,12992 Z M 6333,12955 L 4618,12955 4618,12297 6333,11306 6333,12955 Z"/>
     <path fill="rgb(202,202,202)" stroke="none" d="M 6333,12955 L 6333,11306 7065,10883 7065,13106 4618,14520 4618,12955 6333,12955 Z M 6297,12919 L 4618,12919 4618,12297 6297,11327 6297,12919 Z"/>
     <path fill="rgb(203,203,203)" stroke="none" d="M 6297,12919 L 6297,11327 7065,10883 7065,13106 4618,14520 4618,12919 6297,12919 Z M 6260,12882 L 4618,12882 4618,12297 6260,11348 6260,12882 Z"/>
     <path fill="rgb(204,204,204)" stroke="none" d="M 6260,12882 L 6260,11348 7065,10883 7065,13106 4618,14520 4618,12882 6260,12882 Z M 6224,12846 L 4618,12846 4618,12297 6224,11369 6224,12846 Z"/>
     <path fill="rgb(205,205,205)" stroke="none" d="M 6224,12846 L 6224,11369 7065,10883 7065,13106 4618,14520 4618,12846 6224,12846 Z M 6188,12810 L 4618,12810 4618,12297 6188,11390 6188,12810 Z"/>
     <path fill="rgb(206,206,206)" stroke="none" d="M 6188,12810 L 6188,11390 7065,10883 7065,13106 4618,14520 4618,12810 6188,12810 Z M 6151,12773 L 4618,12773 4618,12297 6151,11411 6151,12773 Z"/>
     <path fill="rgb(207,207,207)" stroke="none" d="M 6151,12773 L 6151,11411 7065,10883 7065,13106 4618,14520 4618,12773 6151,12773 Z M 6115,12737 L 4618,12737 4618,12297 6115,11432 6115,12737 Z"/>
     <path fill="rgb(208,208,208)" stroke="none" d="M 6115,12737 L 6115,11432 7065,10883 7065,13106 4618,14520 4618,12737 6115,12737 Z M 6078,12700 L 4623,12700 4623,12294 6078,11453 6078,12700 Z"/>
     <path fill="rgb(209,209,209)" stroke="none" d="M 4623,12700 L 6078,12700 6078,11453 7065,10883 7065,13106 4618,14520 4618,12297 4623,12294 4623,12700 Z M 6042,12664 L 4660,12664 4660,12273 6042,11474 6042,12664 Z"/>
     <path fill="rgb(210,210,210)" stroke="none" d="M 4660,12664 L 6042,12664 6042,11474 7065,10883 7065,13106 4618,14520 4618,12297 4660,12273 4660,12664 Z M 6006,12628 L 4696,12628 4696,12252 6006,11495 6006,12628 Z"/>
     <path fill="rgb(211,211,211)" stroke="none" d="M 4696,12628 L 6006,12628 6006,11495 7065,10883 7065,13106 4618,14520 4618,12297 4696,12252 4696,12628 Z M 5969,12591 L 4733,12591 4733,12231 5969,11516 5969,12591 Z"/>
     <path fill="rgb(212,212,212)" stroke="none" d="M 4733,12591 L 5969,12591 5969,11516 7065,10883 7065,13106 4618,14520 4618,12297 4733,12231 4733,12591 Z M 5933,12555 L 4769,12555 4769,12210 5933,11537 5933,12555 Z"/>
     <path fill="rgb(213,213,213)" stroke="none" d="M 4769,12555 L 5933,12555 5933,11537 7065,10883 7065,13106 4618,14520 4618,12297 4769,12210 4769,12555 Z M 5896,12518 L 4805,12518 4805,12189 5896,11559 5896,12518 Z"/>
     <path fill="rgb(214,214,214)" stroke="none" d="M 4805,12518 L 5896,12518 5896,11559 7065,10883 7065,13106 4618,14520 4618,12297 4805,12189 4805,12518 Z M 5860,12482 L 4842,12482 4842,12168 5860,11579 5860,12482 Z"/>
     <path fill="rgb(215,215,215)" stroke="none" d="M 4842,12482 L 5860,12482 5860,11579 7065,10883 7065,13106 4618,14520 4618,12297 4842,12168 4842,12482 Z M 5824,12446 L 4878,12446 4878,12147 5824,11600 5824,12446 Z"/>
     <path fill="rgb(216,216,216)" stroke="none" d="M 4878,12446 L 5824,12446 5824,11600 7065,10883 7065,13106 4618,14520 4618,12297 4878,12147 4878,12446 Z M 5787,12409 L 4915,12409 4915,12125 5787,11621 5787,12409 Z"/>
     <path fill="rgb(217,217,217)" stroke="none" d="M 4915,12409 L 5787,12409 5787,11621 7065,10883 7065,13106 4618,14520 4618,12297 4915,12125 4915,12409 Z M 5751,12373 L 4951,12373 4951,12105 5751,11642 5751,12373 Z"/>
     <path fill="rgb(218,218,218)" stroke="none" d="M 4951,12373 L 5751,12373 5751,11642 7065,10883 7065,13106 4618,14520 4618,12297 4951,12105 4951,12373 Z M 5714,12336 L 4987,12336 4987,12084 5714,11664 5714,12336 Z"/>
     <path fill="rgb(219,219,219)" stroke="none" d="M 4987,12336 L 5714,12336 5714,11664 7065,10883 7065,13106 4618,14520 4618,12297 4987,12084 4987,12336 Z M 5678,12300 L 5024,12300 5024,12062 5678,11684 5678,12300 Z"/>
     <path fill="rgb(220,220,220)" stroke="none" d="M 5024,12300 L 5678,12300 5678,11684 7065,10883 7065,13106 4618,14520 4618,12297 5024,12062 5024,12300 Z M 5642,12264 L 5060,12264 5060,12042 5642,11705 5642,12264 Z"/>
     <path fill="rgb(221,221,221)" stroke="none" d="M 5060,12264 L 5642,12264 5642,11705 7065,10883 7065,13106 4618,14520 4618,12297 5060,12042 5060,12264 Z M 5605,12227 L 5097,12227 5097,12020 5605,11727 5605,12227 Z"/>
     <path fill="rgb(222,222,222)" stroke="none" d="M 5097,12227 L 5605,12227 5605,11727 7065,10883 7065,13106 4618,14520 4618,12297 5097,12020 5097,12227 Z M 5569,11755 L 5569,12191 5133,12191 5133,11999 5556,11755 5569,11755 Z"/>
     <path fill="rgb(223,223,223)" stroke="none" d="M 5133,12191 L 5569,12191 5569,11755 5556,11755 7065,10883 7065,13106 4618,14520 4618,12297 5133,11999 5133,12191 Z M 5532,11791 L 5532,12154 5169,12154 5169,11979 5494,11791 5532,11791 Z"/>
     <path fill="rgb(224,224,224)" stroke="none" d="M 5169,12154 L 5532,12154 5532,11791 5494,11791 7065,10883 7065,13106 4618,14520 4618,12297 5169,11979 5169,12154 Z M 5496,11828 L 5496,12118 5206,12118 5206,11957 5430,11828 5496,11828 Z"/>
     <path fill="rgb(225,225,225)" stroke="none" d="M 5206,12118 L 5496,12118 5496,11828 5430,11828 7065,10883 7065,13106 4618,14520 4618,12297 5206,11957 5206,12118 Z M 5460,11864 L 5460,12082 5242,12082 5242,11936 5367,11864 5460,11864 Z"/>
     <path fill="rgb(226,226,226)" stroke="none" d="M 5242,12082 L 5460,12082 5460,11864 5367,11864 7065,10883 7065,13106 4618,14520 4618,12297 5242,11936 5242,12082 Z M 5423,11901 L 5423,12045 5279,12045 5279,11915 5303,11901 5423,11901 Z"/>
     <path fill="rgb(227,227,227)" stroke="none" d="M 5279,12045 L 5423,12045 5423,11901 5303,11901 7065,10883 7065,13106 4618,14520 4618,12297 5279,11915 5279,12045 Z M 5315,11937 L 5387,11937 5387,12009 5315,12009 5315,11937 Z"/>
     <path fill="rgb(229,229,229)" stroke="none" d="M 5315,11937 L 5315,12009 5387,12009 5387,11937 5315,11937 Z M 7065,13106 L 4618,14520 4618,12297 7065,10883 7065,13106 Z"/>
     <path fill="none" stroke="rgb(255,255,255)" id="Drawing_4_0" stroke-width="40" stroke-linejoin="round" d="M 7065,13106 L 7065,10883 4618,12297 4618,14520 7065,13106 Z"/>
    </g>
    <g>
     <defs>
      <linearGradient id="Gradient_115" gradientUnits="userSpaceOnUse" x1="4702" y1="12623" x2="6980" y2="12627">
       <stop offset="0.1" stop-color="rgb(147,212,240)"/>
       <stop offset="1" stop-color="rgb(233,246,252)"/>
      </linearGradient>
     </defs>
     <path fill="url(#Gradient_115)" stroke="rgb(127,127,127)" id="Drawing_5_0" stroke-width="40" stroke-linejoin="round" d="M 6977,12903 L 6977,11034 4705,12347 4705,14216 6977,12903 Z"/>
    </g>
    <g>
     <defs>
      <linearGradient id="Gradient_116" gradientUnits="userSpaceOnUse" x1="5798" y1="10832" x2="5798" y2="12297">
       <stop offset="0.1" stop-color="rgb(179,179,179)"/>
       <stop offset="1" stop-color="rgb(229,229,229)"/>
      </linearGradient>
     </defs>
     <path fill="url(#Gradient_116)" stroke="rgb(255,255,255)" id="Drawing_6_0" stroke-width="40" stroke-linejoin="round" d="M 4618,12297 L 7065,10883 6978,10832 4531,12246 4618,12297 Z"/>
    </g>
    <g>
     <defs>
      <linearGradient id="Gradient_117" gradientUnits="userSpaceOnUse" x1="4528" y1="13382" x2="4619" y2="13382">
       <stop offset="0.1" stop-color="rgb(179,179,179)"/>
       <stop offset="1" stop-color="rgb(229,229,229)"/>
      </linearGradient>
     </defs>
     <path fill="url(#Gradient_117)" stroke="rgb(255,255,255)" id="Drawing_7_0" stroke-width="40" stroke-linejoin="round" d="M 4618,14519 L 4618,12297 4531,12246 4531,14469 4618,14519 Z"/>
    </g>
    <g>
     <defs>
      <linearGradient id="Gradient_118" gradientUnits="userSpaceOnUse" x1="4617" y1="15124" x2="6279" y2="15126">
       <stop offset="0.1" stop-color="rgb(179,179,179)"/>
       <stop offset="1" stop-color="rgb(229,229,229)"/>
      </linearGradient>
     </defs>
     <path fill="url(#Gradient_118)" stroke="rgb(255,255,255)" id="Drawing_8_0" stroke-width="40" stroke-linejoin="round" d="M 6278,15731 L 6278,15479 4618,14519 4618,14772 6278,15731 Z"/>
    </g>
    <g>
     <path fill="none" stroke="rgb(229,229,229)" id="Drawing_9_0" stroke-width="40" stroke-linejoin="round" d="M 7589,13661 L 5579,14823"/>
    </g>
    <g>
     <path fill="none" stroke="rgb(229,229,229)" id="Drawing_10_0" stroke-width="40" stroke-linejoin="round" d="M 7414,13560 L 5404,14722"/>
    </g>
    <g>
     <path fill="none" stroke="rgb(229,229,229)" id="Drawing_11_0" stroke-width="40" stroke-linejoin="round" d="M 7239,13459 L 5229,14621"/>
    </g>
    <g>
     <path fill="none" stroke="rgb(229,229,229)" id="Drawing_12_0" stroke-width="40" stroke-linejoin="round" d="M 5492,14469 L 5317,14368"/>
    </g>
    <g>
     <path fill="none" stroke="rgb(229,229,229)" id="Drawing_13_0" stroke-width="40" stroke-linejoin="round" d="M 5666,14368 L 5491,14267"/>
    </g>
    <g>
     <path fill="none" stroke="rgb(229,229,229)" id="Drawing_14_0" stroke-width="40" stroke-linejoin="round" d="M 5841,14267 L 5666,14166"/>
    </g>
    <g>
     <path fill="none" stroke="rgb(229,229,229)" id="Drawing_15_0" stroke-width="40" stroke-linejoin="round" d="M 5754,14519 L 5579,14418"/>
    </g>
    <g>
     <path fill="none" stroke="rgb(229,229,229)" id="Drawing_16_0" stroke-width="40" stroke-linejoin="round" d="M 5929,14418 L 5754,14317"/>
    </g>
    <g>
     <path fill="none" stroke="rgb(229,229,229)" id="Drawing_17_0" stroke-width="40" stroke-linejoin="round" d="M 6103,14317 L 5928,14216"/>
    </g>
    <g>
     <path fill="none" stroke="rgb(229,229,229)" id="Drawing_18_0" stroke-width="40" stroke-linejoin="round" d="M 6016,14166 L 5841,14065"/>
    </g>
    <g>
     <path fill="none" stroke="rgb(229,229,229)" id="Drawing_19_0" stroke-width="40" stroke-linejoin="round" d="M 6278,14216 L 6103,14115"/>
    </g>
    <g>
     <path fill="none" stroke="rgb(229,229,229)" id="Drawing_20_0" stroke-width="40" stroke-linejoin="round" d="M 6191,14065 L 6016,13964"/>
    </g>
    <g>
     <path fill="none" stroke="rgb(229,229,229)" id="Drawing_21_0" stroke-width="40" stroke-linejoin="round" d="M 6366,13964 L 6191,13863"/>
    </g>
    <g>
     <path fill="none" stroke="rgb(229,229,229)" id="Drawing_22_0" stroke-width="40" stroke-linejoin="round" d="M 6540,13863 L 6365,13762"/>
    </g>
    <g>
     <path fill="none" stroke="rgb(229,229,229)" id="Drawing_23_0" stroke-width="40" stroke-linejoin="round" d="M 6453,14115 L 6278,14014"/>
    </g>
    <g>
     <path fill="none" stroke="rgb(229,229,229)" id="Drawing_24_0" stroke-width="40" stroke-linejoin="round" d="M 6628,14014 L 6453,13913"/>
    </g>
    <g>
     <path fill="none" stroke="rgb(229,229,229)" id="Drawing_25_0" stroke-width="40" stroke-linejoin="round" d="M 6802,13913 L 6627,13812"/>
    </g>
    <g>
     <path fill="none" stroke="rgb(229,229,229)" id="Drawing_26_0" stroke-width="40" stroke-linejoin="round" d="M 6715,13762 L 6540,13661"/>
    </g>
    <g>
     <path fill="none" stroke="rgb(229,229,229)" id="Drawing_27_0" stroke-width="40" stroke-linejoin="round" d="M 6977,13812 L 6802,13711"/>
    </g>
    <g>
     <path fill="none" stroke="rgb(229,229,229)" id="Drawing_28_0" stroke-width="40" stroke-linejoin="round" d="M 6890,13661 L 6715,13560"/>
    </g>
    <g>
     <path fill="none" stroke="rgb(229,229,229)" id="Drawing_29_0" stroke-width="40" stroke-linejoin="round" d="M 7065,13560 L 6890,13459"/>
    </g>
    <g>
     <path fill="none" stroke="rgb(229,229,229)" id="Drawing_30_0" stroke-width="40" stroke-linejoin="round" d="M 7152,13711 L 6977,13610"/>
    </g>
    <g>
     <path fill="none" stroke="rgb(229,229,229)" id="Drawing_31_0" stroke-width="40" stroke-linejoin="round" d="M 6016,14570 L 5841,14469"/>
    </g>
    <g>
     <path fill="none" stroke="rgb(229,229,229)" id="Drawing_32_0" stroke-width="40" stroke-linejoin="round" d="M 6191,14469 L 6016,14368"/>
    </g>
    <g>
     <path fill="none" stroke="rgb(229,229,229)" id="Drawing_33_0" stroke-width="40" stroke-linejoin="round" d="M 6366,14368 L 6191,14267"/>
    </g>
    <g>
     <path fill="none" stroke="rgb(229,229,229)" id="Drawing_34_0" stroke-width="40" stroke-linejoin="round" d="M 6453,14519 L 6278,14418"/>
    </g>
    <g>
     <path fill="none" stroke="rgb(229,229,229)" id="Drawing_35_0" stroke-width="40" stroke-linejoin="round" d="M 6628,14418 L 6453,14317"/>
    </g>
    <g>
     <path fill="none" stroke="rgb(229,229,229)" id="Drawing_36_0" stroke-width="40" stroke-linejoin="round" d="M 6540,14267 L 6365,14166"/>
    </g>
    <g>
     <path fill="none" stroke="rgb(229,229,229)" id="Drawing_37_0" stroke-width="40" stroke-linejoin="round" d="M 6715,14166 L 6540,14065"/>
    </g>
    <g>
     <path fill="none" stroke="rgb(229,229,229)" id="Drawing_38_0" stroke-width="40" stroke-linejoin="round" d="M 6890,14065 L 6715,13964"/>
    </g>
    <g>
     <path fill="none" stroke="rgb(229,229,229)" id="Drawing_39_0" stroke-width="40" stroke-linejoin="round" d="M 7065,13964 L 6890,13863"/>
    </g>
    <g>
     <path fill="none" stroke="rgb(229,229,229)" id="Drawing_40_0" stroke-width="40" stroke-linejoin="round" d="M 7327,14014 L 7152,13913"/>
    </g>
    <g>
     <path fill="none" stroke="rgb(229,229,229)" id="Drawing_41_0" stroke-width="40" stroke-linejoin="round" d="M 7239,13863 L 7064,13762"/>
    </g>
    <g>
     <path fill="none" stroke="rgb(229,229,229)" id="Drawing_42_0" stroke-width="40" stroke-linejoin="round" d="M 7502,13913 L 7327,13812"/>
    </g>
    <g>
     <path fill="none" stroke="rgb(229,229,229)" id="Drawing_43_0" stroke-width="40" stroke-linejoin="round" d="M 6103,14722 L 5928,14621"/>
    </g>
    <g>
     <path fill="none" stroke="rgb(229,229,229)" id="Drawing_44_0" stroke-width="40" stroke-linejoin="round" d="M 6278,14620 L 6103,14519"/>
    </g>
    <g>
     <path fill="rgb(179,179,179)" stroke="none" d="M 8211,14615 L 6278,15732 6278,15479 8211,14362 8211,14615 Z"/>
     <path fill="rgb(180,180,180)" stroke="none" d="M 8211,14362 L 8725,14065 8725,14318 8211,14615 8211,14362 Z M 8187,14629 L 6278,15732 6278,15479 8187,14376 8187,14629 Z"/>
     <path fill="rgb(181,181,181)" stroke="none" d="M 8187,14376 L 8725,14065 8725,14318 8187,14629 8187,14376 Z M 8162,14643 L 6307,15715 6278,15715 6278,15479 8162,14390 8162,14643 Z"/>
     <path fill="rgb(182,182,182)" stroke="none" d="M 6307,15715 L 6278,15732 6278,15715 6307,15715 Z M 8162,14390 L 8725,14065 8725,14318 8162,14643 8162,14390 Z M 8138,14657 L 6349,15691 6278,15691 6278,15479 8138,14404 8138,14657 Z"/>
     <path fill="rgb(183,183,183)" stroke="none" d="M 6349,15691 L 6278,15732 6278,15691 6349,15691 Z M 8138,14404 L 8725,14065 8725,14318 8138,14657 8138,14404 Z M 8113,14672 L 6392,15666 6278,15666 6278,15479 8113,14419 8113,14672 Z"/>
     <path fill="rgb(184,184,184)" stroke="none" d="M 6392,15666 L 6278,15732 6278,15666 6392,15666 Z M 8113,14419 L 8725,14065 8725,14318 8113,14672 8113,14419 Z M 8089,14686 L 6434,15642 6278,15642 6278,15479 8089,14433 8089,14686 Z"/>
     <path fill="rgb(185,185,185)" stroke="none" d="M 6434,15642 L 6278,15732 6278,15642 6434,15642 Z M 8089,14433 L 8725,14065 8725,14318 8089,14686 8089,14433 Z M 8064,14700 L 6477,15617 6278,15617 6278,15479 8064,14447 8064,14700 Z"/>
     <path fill="rgb(186,186,186)" stroke="none" d="M 6477,15617 L 6278,15732 6278,15617 6477,15617 Z M 8064,14447 L 8725,14065 8725,14318 8064,14700 8064,14447 Z M 8040,14714 L 6519,15593 6278,15593 6278,15479 8040,14461 8040,14714 Z"/>
     <path fill="rgb(187,187,187)" stroke="none" d="M 6519,15593 L 6278,15732 6278,15593 6519,15593 Z M 8040,14461 L 8725,14065 8725,14318 8040,14714 8040,14461 Z M 8015,14728 L 6562,15568 6278,15568 6278,15479 8015,14475 8015,14728 Z"/>
     <path fill="rgb(188,188,188)" stroke="none" d="M 6562,15568 L 6278,15732 6278,15568 6562,15568 Z M 8015,14475 L 8725,14065 8725,14318 8015,14728 8015,14475 Z M 7991,14742 L 6603,15544 6278,15544 6278,15479 7991,14489 7991,14742 Z"/>
     <path fill="rgb(189,189,189)" stroke="none" d="M 6603,15544 L 6278,15732 6278,15544 6603,15544 Z M 7991,14489 L 8725,14065 8725,14318 7991,14742 7991,14489 Z M 7966,14757 L 6647,15519 6278,15519 6278,15479 7966,14504 7966,14757 Z"/>
     <path fill="rgb(190,190,190)" stroke="none" d="M 6647,15519 L 6278,15732 6278,15519 6647,15519 Z M 7966,14504 L 8725,14065 8725,14318 7966,14757 7966,14504 Z M 7942,14770 L 6688,15495 6278,15495 6278,15479 7942,14517 7942,14770 Z"/>
     <path fill="rgb(191,191,191)" stroke="none" d="M 6688,15495 L 6278,15732 6278,15495 6688,15495 Z M 7942,14517 L 8725,14065 8725,14318 7942,14770 7942,14517 Z M 7917,14785 L 6731,15470 6294,15470 7917,14532 7917,14785 Z"/>
     <path fill="rgb(192,192,192)" stroke="none" d="M 6731,15470 L 6278,15732 6278,15479 6294,15470 6731,15470 Z M 7917,14532 L 8725,14065 8725,14318 7917,14785 7917,14532 Z M 7893,14799 L 6773,15446 6335,15446 7893,14546 7893,14799 Z"/>
     <path fill="rgb(193,193,193)" stroke="none" d="M 6773,15446 L 6278,15732 6278,15479 6335,15446 6773,15446 Z M 7893,14546 L 8725,14065 8725,14318 7893,14799 7893,14546 Z M 7868,14813 L 6816,15421 6378,15421 7868,14560 7868,14813 Z"/>
     <path fill="rgb(194,194,194)" stroke="none" d="M 6816,15421 L 6278,15732 6278,15479 6378,15421 6816,15421 Z M 7868,14560 L 8725,14065 8725,14318 7868,14813 7868,14560 Z M 7844,14827 L 6858,15397 6420,15397 7844,14574 7844,14827 Z"/>
     <path fill="rgb(195,195,195)" stroke="none" d="M 6858,15397 L 6278,15732 6278,15479 6420,15397 6858,15397 Z M 7844,14574 L 8725,14065 8725,14318 7844,14827 7844,14574 Z M 7819,14842 L 6901,15372 6463,15372 7819,14589 7819,14842 Z"/>
     <path fill="rgb(196,196,196)" stroke="none" d="M 6901,15372 L 6278,15732 6278,15479 6463,15372 6901,15372 Z M 7819,14589 L 8725,14065 8725,14318 7819,14842 7819,14589 Z M 7795,14855 L 6943,15348 6505,15348 7795,14602 7795,14855 Z"/>
     <path fill="rgb(197,197,197)" stroke="none" d="M 6943,15348 L 6278,15732 6278,15479 6505,15348 6943,15348 Z M 7795,14602 L 8725,14065 8725,14318 7795,14855 7795,14602 Z M 7770,14870 L 6986,15323 6548,15323 7770,14617 7770,14870 Z"/>
     <path fill="rgb(198,198,198)" stroke="none" d="M 6986,15323 L 6278,15732 6278,15479 6548,15323 6986,15323 Z M 7770,14617 L 8725,14065 8725,14318 7770,14870 7770,14617 Z M 7746,14884 L 7027,15299 6589,15299 7746,14631 7746,14884 Z"/>
     <path fill="rgb(199,199,199)" stroke="none" d="M 7027,15299 L 6278,15732 6278,15479 6589,15299 7027,15299 Z M 7746,14631 L 8725,14065 8725,14318 7746,14884 7746,14631 Z M 7721,14898 L 7071,15274 6633,15274 7721,14645 7721,14898 Z"/>
     <path fill="rgb(200,200,200)" stroke="none" d="M 7071,15274 L 6278,15732 6278,15479 6633,15274 7071,15274 Z M 7721,14645 L 8725,14065 8725,14318 7721,14898 7721,14645 Z M 7697,14912 L 7112,15250 6674,15250 7697,14659 7697,14912 Z"/>
     <path fill="rgb(201,201,201)" stroke="none" d="M 7112,15250 L 6278,15732 6278,15479 6674,15250 7112,15250 Z M 7697,14659 L 8725,14065 8725,14318 7697,14912 7697,14659 Z M 7672,14926 L 7155,15225 6718,15225 7672,14673 7672,14926 Z"/>
     <path fill="rgb(202,202,202)" stroke="none" d="M 7155,15225 L 6278,15732 6278,15479 6718,15225 7155,15225 Z M 7672,14673 L 8725,14065 8725,14318 7672,14926 7672,14673 Z M 7648,14940 L 7197,15201 6759,15201 7648,14687 7648,14940 Z"/>
     <path fill="rgb(203,203,203)" stroke="none" d="M 7197,15201 L 6278,15732 6278,15479 6759,15201 7197,15201 Z M 7648,14687 L 8725,14065 8725,14318 7648,14940 7648,14687 Z M 7623,14955 L 7240,15176 6802,15176 7623,14702 7623,14955 Z"/>
     <path fill="rgb(204,204,204)" stroke="none" d="M 7240,15176 L 6278,15732 6278,15479 6802,15176 7240,15176 Z M 7623,14702 L 8725,14065 8725,14318 7623,14955 7623,14702 Z M 7599,14969 L 7282,15152 6844,15152 7599,14716 7599,14969 Z"/>
     <path fill="rgb(205,205,205)" stroke="none" d="M 7282,15152 L 6278,15732 6278,15479 6844,15152 7282,15152 Z M 7599,14716 L 8725,14065 8725,14318 7599,14969 7599,14716 Z M 7574,14983 L 7325,15127 6887,15127 7574,14730 7574,14983 Z"/>
     <path fill="rgb(206,206,206)" stroke="none" d="M 7325,15127 L 6278,15732 6278,15479 6887,15127 7325,15127 Z M 7574,14730 L 8725,14065 8725,14318 7574,14983 7574,14730 Z M 7550,14997 L 7367,15103 6929,15103 7550,14744 7550,14997 Z"/>
     <path fill="rgb(207,207,207)" stroke="none" d="M 7367,15103 L 6278,15732 6278,15479 6929,15103 7367,15103 Z M 7550,14744 L 8725,14065 8725,14318 7550,14997 7550,14744 Z M 7525,15011 L 7410,15078 6972,15078 7525,14758 7525,15011 Z"/>
     <path fill="rgb(208,208,208)" stroke="none" d="M 7410,15078 L 6278,15732 6278,15479 6972,15078 7410,15078 Z M 7525,14758 L 8725,14065 8725,14318 7525,15011 7525,14758 Z M 7501,15025 L 7451,15054 7013,15054 7501,14772 7501,15025 Z"/>
     <path fill="rgb(209,209,209)" stroke="none" d="M 7451,15054 L 6278,15732 6278,15479 7013,15054 7451,15054 Z M 7501,14772 L 8725,14065 8725,14318 7501,15025 7501,14772 Z M 7476,15029 L 7057,15029 7476,14787 7476,15029 Z"/>
     <path fill="rgb(210,210,210)" stroke="none" d="M 7476,15029 L 7476,14787 8725,14065 8725,14318 6278,15732 6278,15479 7057,15029 7476,15029 Z M 7452,15005 L 7098,15005 7452,14801 7452,15005 Z"/>
     <path fill="rgb(211,211,211)" stroke="none" d="M 7452,15005 L 7452,14801 8725,14065 8725,14318 6278,15732 6278,15479 7098,15005 7452,15005 Z M 7427,14980 L 7142,14980 7427,14815 7427,14980 Z"/>
     <path fill="rgb(212,212,212)" stroke="none" d="M 7427,14980 L 7427,14815 8725,14065 8725,14318 6278,15732 6278,15479 7142,14980 7427,14980 Z M 7403,14956 L 7183,14956 7403,14829 7403,14956 Z"/>
     <path fill="rgb(213,213,213)" stroke="none" d="M 7403,14956 L 7403,14829 8725,14065 8725,14318 6278,15732 6278,15479 7183,14956 7403,14956 Z M 7378,14931 L 7226,14931 7378,14843 7378,14931 Z"/>
     <path fill="rgb(214,214,214)" stroke="none" d="M 7378,14931 L 7378,14843 8725,14065 8725,14318 6278,15732 6278,15479 7226,14931 7378,14931 Z M 7354,14907 L 7268,14907 7354,14857 7354,14907 Z"/>
     <path fill="rgb(215,215,215)" stroke="none" d="M 7354,14907 L 7354,14857 8725,14065 8725,14318 6278,15732 6278,15479 7268,14907 7354,14907 Z M 7329,14882 L 7311,14882 7329,14872 7329,14882 Z"/>
     <path fill="rgb(216,216,216)" stroke="none" d="M 7329,14882 L 7329,14872 8725,14065 8725,14318 6278,15732 6278,15479 7311,14882 7329,14882 Z"/>
     <path fill="rgb(217,217,217)" stroke="none" d="M 8725,14318 L 6278,15732 6278,15479 8725,14065 8725,14318 Z"/>
     <path fill="rgb(218,218,218)" stroke="none" d="M 8725,14318 L 6278,15732 6278,15479 8725,14065 8725,14318 Z"/>
     <path fill="rgb(219,219,219)" stroke="none" d="M 8725,14318 L 6278,15732 6278,15479 8725,14065 8725,14318 Z"/>
     <path fill="rgb(220,220,220)" stroke="none" d="M 8725,14318 L 6278,15732 6278,15479 8725,14065 8725,14318 Z"/>
     <path fill="rgb(221,221,221)" stroke="none" d="M 8725,14318 L 6278,15732 6278,15479 8725,14065 8725,14318 Z"/>
     <path fill="rgb(222,222,222)" stroke="none" d="M 8725,14318 L 6278,15732 6278,15479 8725,14065 8725,14318 Z"/>
     <path fill="rgb(223,223,223)" stroke="none" d="M 8725,14318 L 6278,15732 6278,15479 8725,14065 8725,14318 Z"/>
     <path fill="rgb(224,224,224)" stroke="none" d="M 8725,14318 L 6278,15732 6278,15479 8725,14065 8725,14318 Z"/>
     <path fill="rgb(225,225,225)" stroke="none" d="M 8725,14318 L 6278,15732 6278,15479 8725,14065 8725,14318 Z"/>
     <path fill="rgb(226,226,226)" stroke="none" d="M 8725,14318 L 6278,15732 6278,15479 8725,14065 8725,14318 Z"/>
     <path fill="rgb(227,227,227)" stroke="none" d="M 8725,14318 L 6278,15732 6278,15479 8725,14065 8725,14318 Z"/>
     <path fill="rgb(229,229,229)" stroke="none" d="M 8725,14318 L 6278,15732 6278,15479 8725,14065 8725,14318 Z"/>
     <path fill="none" stroke="rgb(255,255,255)" id="Drawing_45_0" stroke-width="40" stroke-linejoin="round" d="M 8725,14318 L 8725,14065 6278,15479 6278,15732 8725,14318 Z"/>
    </g>
    <g>
     <path fill="none" stroke="rgb(0,0,0)" id="Drawing_46_0" stroke-width="40" stroke-linejoin="round" d="M 6977,10832 L 4530,12246 4530,14469 4618,14519 4618,14772 6278,15732 8725,14317 8725,14065 7065,13105 7065,10883 6977,10832 Z"/>
    </g>
    <g>
     <path fill="rgb(179,179,179)" stroke="none" d="M 7676,14469 L 7239,14216 6627,14570 7064,14822 7676,14469 Z"/>
     <path fill="none" stroke="rgb(255,255,255)" id="Drawing_47_0" stroke-width="40" stroke-linejoin="round" d="M 7676,14469 L 7239,14216 6627,14570 7064,14822 7676,14469 Z"/>
    </g>
    <g>
     <path fill="none" stroke="rgb(229,229,229)" id="Drawing_48_0" stroke-width="40" stroke-linejoin="round" d="M 5579,14620 L 5404,14519"/>
    </g>
    <g>
     <path fill="none" stroke="rgb(229,229,229)" id="Drawing_49_0" stroke-width="40" stroke-linejoin="round" d="M 5841,14671 L 5666,14570"/>
    </g>
   </g>
  </g>
 </g>
</svg>