<?xml version="1.0" encoding="UTF-8"?>

<svg version="1.2" baseProfile="tiny" width="47.59mm" height="49.4mm" viewBox="2535 3124 4759 4940" preserveAspectRatio="xMidYMid" fill-rule="evenodd" stroke-width="28.222" stroke-linejoin="round" xmlns="http://www.w3.org/2000/svg" xmlns:xlink="http://www.w3.org/1999/xlink" xml:space="preserve">
 <g visibility="visible" id="Slide_1">
  <g id="DrawingGroup_1">
   <g>
    <path fill="rgb(221,221,221)" stroke="none" d="M 5005,8043 C 5244,8043 7274,7538 7274,7084 7274,6629 6728,6629 6488,6629 6488,6781 4917,6932 5005,8043 Z"/>
    <path fill="none" stroke="rgb(221,221,221)" id="Drawing_1_0" stroke-width="40" stroke-linejoin="round" d="M 5005,8043 C 5244,8043 7274,7538 7274,7084 7274,6629 6728,6629 6488,6629 6488,6781 4917,6932 5005,8043 Z"/>
   </g>
   <g id="DrawingGroup_2">
    <g>
     <defs>
      <linearGradient id="Gradient_104" gradientUnits="userSpaceOnUse" x1="4608" y1="5417" x2="4608" y2="7791">
       <stop offset="0.1" stop-color="rgb(179,179,179)"/>
       <stop offset="1" stop-color="rgb(229,229,229)"/>
      </linearGradient>
     </defs>
     <path fill="url(#Gradient_104)" stroke="rgb(255,255,255)" id="Drawing_2_0" stroke-width="40" stroke-linejoin="round" d="M 5002,7791 L 2555,6377 4215,5417 6662,6831 5002,7791 Z"/>
    </g>
    <g>
     <path fill="rgb(127,127,127)" stroke="none" d="M 3516,6074 L 4215,5670 6225,6832 5526,7236 3516,6074 Z"/>
     <path fill="none" stroke="rgb(255,255,255)" id="Drawing_3_0" stroke-width="40" stroke-linejoin="round" d="M 3516,6074 L 4215,5670 6225,6832 5526,7236 3516,6074 Z"/>
    </g>
    <g>
     <defs>
      <linearGradient id="Gradient_105" gradientUnits="userSpaceOnUse" x1="4211" y1="5011" x2="6664" y2="5015">
       <stop offset="0.1" stop-color="rgb(179,179,179)"/>
       <stop offset="1" stop-color="rgb(229,229,229)"/>
      </linearGradient>
     </defs>
     <path fill="url(#Gradient_105)" stroke="rgb(255,255,255)" id="Drawing_4_0" stroke-width="40" stroke-linejoin="round" d="M 4215,5418 L 4215,3195 6662,4609 6662,6832 4215,5418 Z"/>
    </g>
    <g>
     <defs>
      <linearGradient id="Gradient_106" gradientUnits="userSpaceOnUse" x1="4300" y1="4935" x2="6578" y2="4939">
       <stop offset="0.1" stop-color="rgb(147,212,240)"/>
       <stop offset="1" stop-color="rgb(233,246,252)"/>
      </linearGradient>
     </defs>
     <path fill="url(#Gradient_106)" stroke="rgb(127,127,127)" id="Drawing_5_0" stroke-width="40" stroke-linejoin="round" d="M 4303,5215 L 4303,3346 6575,4659 6575,6528 4303,5215 Z"/>
    </g>
    <g>
     <defs>
      <linearGradient id="Gradient_107" gradientUnits="userSpaceOnUse" x1="5482" y1="3144" x2="5482" y2="4609">
       <stop offset="0.1" stop-color="rgb(179,179,179)"/>
       <stop offset="1" stop-color="rgb(229,229,229)"/>
      </linearGradient>
     </defs>
     <path fill="url(#Gradient_107)" stroke="rgb(255,255,255)" id="Drawing_6_0" stroke-width="40" stroke-linejoin="round" d="M 6662,4609 L 4215,3195 4302,3144 6749,4558 6662,4609 Z"/>
    </g>
    <g>
     <path fill="rgb(179,179,179)" stroke="none" d="M 6662,6353 L 6662,4609 6749,4558 6749,6353 6662,6353 Z"/>
     <path fill="rgb(180,180,180)" stroke="none" d="M 6749,6353 L 6749,6781 6662,6831 6662,6353 6749,6353 Z M 6662,6330 L 6662,4609 6749,4558 6749,6330 6662,6330 Z"/>
     <path fill="rgb(181,181,181)" stroke="none" d="M 6749,6330 L 6749,6781 6662,6831 6662,6330 6749,6330 Z M 6662,6307 L 6662,4609 6749,4558 6749,6307 6662,6307 Z"/>
     <path fill="rgb(182,182,182)" stroke="none" d="M 6749,6307 L 6749,6781 6662,6831 6662,6307 6749,6307 Z M 6662,6284 L 6662,4609 6749,4558 6749,6284 6662,6284 Z"/>
     <path fill="rgb(183,183,183)" stroke="none" d="M 6749,6284 L 6749,6781 6662,6831 6662,6284 6749,6284 Z M 6662,6262 L 6662,4609 6749,4558 6749,6262 6662,6262 Z"/>
     <path fill="rgb(184,184,184)" stroke="none" d="M 6749,6262 L 6749,6781 6662,6831 6662,6262 6749,6262 Z M 6662,6239 L 6662,4609 6749,4558 6749,6239 6662,6239 Z"/>
     <path fill="rgb(185,185,185)" stroke="none" d="M 6749,6239 L 6749,6781 6662,6831 6662,6239 6749,6239 Z M 6662,6216 L 6662,4609 6749,4558 6749,6216 6662,6216 Z"/>
     <path fill="rgb(186,186,186)" stroke="none" d="M 6749,6216 L 6749,6781 6662,6831 6662,6216 6749,6216 Z M 6662,6193 L 6662,4609 6749,4558 6749,6193 6662,6193 Z"/>
     <path fill="rgb(187,187,187)" stroke="none" d="M 6749,6193 L 6749,6781 6662,6831 6662,6193 6749,6193 Z M 6662,6171 L 6662,4609 6749,4558 6749,6171 6662,6171 Z"/>
     <path fill="rgb(188,188,188)" stroke="none" d="M 6749,6171 L 6749,6781 6662,6831 6662,6171 6749,6171 Z M 6662,6148 L 6662,4609 6749,4558 6749,6148 6662,6148 Z"/>
     <path fill="rgb(189,189,189)" stroke="none" d="M 6749,6148 L 6749,6781 6662,6831 6662,6148 6749,6148 Z M 6662,6125 L 6662,4609 6749,4558 6749,6125 6662,6125 Z"/>
     <path fill="rgb(190,190,190)" stroke="none" d="M 6749,6125 L 6749,6781 6662,6831 6662,6125 6749,6125 Z M 6662,6102 L 6662,4609 6749,4558 6749,6102 6662,6102 Z"/>
     <path fill="rgb(191,191,191)" stroke="none" d="M 6749,6102 L 6749,6781 6662,6831 6662,6102 6749,6102 Z M 6662,6080 L 6662,4609 6749,4558 6749,6080 6662,6080 Z"/>
     <path fill="rgb(192,192,192)" stroke="none" d="M 6749,6080 L 6749,6781 6662,6831 6662,6080 6749,6080 Z M 6662,6057 L 6662,4609 6749,4558 6749,6057 6662,6057 Z"/>
     <path fill="rgb(193,193,193)" stroke="none" d="M 6749,6057 L 6749,6781 6662,6831 6662,6057 6749,6057 Z M 6662,6034 L 6662,4609 6749,4558 6749,6034 6662,6034 Z"/>
     <path fill="rgb(194,194,194)" stroke="none" d="M 6749,6034 L 6749,6781 6662,6831 6662,6034 6749,6034 Z M 6662,6011 L 6662,4609 6749,4558 6749,6011 6662,6011 Z"/>
     <path fill="rgb(195,195,195)" stroke="none" d="M 6749,6011 L 6749,6781 6662,6831 6662,6011 6749,6011 Z M 6662,5989 L 6662,4609 6749,4558 6749,5989 6662,5989 Z"/>
     <path fill="rgb(196,196,196)" stroke="none" d="M 6749,5989 L 6749,6781 6662,6831 6662,5989 6749,5989 Z M 6662,5966 L 6662,4609 6749,4558 6749,5966 6662,5966 Z"/>
     <path fill="rgb(197,197,197)" stroke="none" d="M 6749,5966 L 6749,6781 6662,6831 6662,5966 6749,5966 Z M 6662,5943 L 6662,4609 6749,4558 6749,5943 6662,5943 Z"/>
     <path fill="rgb(198,198,198)" stroke="none" d="M 6749,5943 L 6749,6781 6662,6831 6662,5943 6749,5943 Z M 6662,5920 L 6662,4609 6749,4558 6749,5920 6662,5920 Z"/>
     <path fill="rgb(199,199,199)" stroke="none" d="M 6749,5920 L 6749,6781 6662,6831 6662,5920 6749,5920 Z M 6749,4578 L 6749,5898 6662,5898 6662,4609 6715,4578 6749,4578 Z"/>
     <path fill="rgb(200,200,200)" stroke="none" d="M 6749,5898 L 6749,6781 6662,6831 6662,5898 6749,5898 Z M 6715,4578 L 6749,4558 6749,4578 6715,4578 Z M 6749,4601 L 6749,5875 6662,5875 6662,4609 6676,4601 6749,4601 Z"/>
     <path fill="rgb(201,201,201)" stroke="none" d="M 6749,5875 L 6749,6781 6662,6831 6662,5875 6749,5875 Z M 6676,4601 L 6749,4558 6749,4601 6676,4601 Z M 6749,4624 L 6749,5852 6662,5852 6662,4624 6749,4624 Z"/>
     <path fill="rgb(202,202,202)" stroke="none" d="M 6749,5852 L 6749,6781 6662,6831 6662,5852 6749,5852 Z M 6662,4624 L 6662,4609 6749,4558 6749,4624 6662,4624 Z M 6749,4647 L 6749,5829 6662,5829 6662,4647 6749,4647 Z"/>
     <path fill="rgb(203,203,203)" stroke="none" d="M 6749,5829 L 6749,6781 6662,6831 6662,5829 6749,5829 Z M 6662,4647 L 6662,4609 6749,4558 6749,4647 6662,4647 Z M 6749,4669 L 6749,5807 6662,5807 6662,4669 6749,4669 Z"/>
     <path fill="rgb(204,204,204)" stroke="none" d="M 6749,5807 L 6749,6781 6662,6831 6662,5807 6749,5807 Z M 6662,4669 L 6662,4609 6749,4558 6749,4669 6662,4669 Z M 6749,4692 L 6749,5784 6662,5784 6662,4692 6749,4692 Z"/>
     <path fill="rgb(205,205,205)" stroke="none" d="M 6749,5784 L 6749,6781 6662,6831 6662,5784 6749,5784 Z M 6662,4692 L 6662,4609 6749,4558 6749,4692 6662,4692 Z M 6749,4715 L 6749,5761 6662,5761 6662,4715 6749,4715 Z"/>
     <path fill="rgb(206,206,206)" stroke="none" d="M 6749,5761 L 6749,6781 6662,6831 6662,5761 6749,5761 Z M 6662,4715 L 6662,4609 6749,4558 6749,4715 6662,4715 Z M 6749,4738 L 6749,5738 6662,5738 6662,4738 6749,4738 Z"/>
     <path fill="rgb(207,207,207)" stroke="none" d="M 6749,5738 L 6749,6781 6662,6831 6662,5738 6749,5738 Z M 6662,4738 L 6662,4609 6749,4558 6749,4738 6662,4738 Z M 6749,4761 L 6749,5715 6662,5715 6662,4761 6749,4761 Z"/>
     <path fill="rgb(208,208,208)" stroke="none" d="M 6749,5715 L 6749,6781 6662,6831 6662,5715 6749,5715 Z M 6662,4761 L 6662,4609 6749,4558 6749,4761 6662,4761 Z M 6749,4783 L 6749,5693 6662,5693 6662,4783 6749,4783 Z"/>
     <path fill="rgb(209,209,209)" stroke="none" d="M 6749,5693 L 6749,6781 6662,6831 6662,5693 6749,5693 Z M 6662,4783 L 6662,4609 6749,4558 6749,4783 6662,4783 Z M 6749,4806 L 6749,5670 6662,5670 6662,4806 6749,4806 Z"/>
     <path fill="rgb(210,210,210)" stroke="none" d="M 6749,5670 L 6749,6781 6662,6831 6662,5670 6749,5670 Z M 6662,4806 L 6662,4609 6749,4558 6749,4806 6662,4806 Z M 6749,4829 L 6749,5647 6662,5647 6662,4829 6749,4829 Z"/>
     <path fill="rgb(211,211,211)" stroke="none" d="M 6749,5647 L 6749,6781 6662,6831 6662,5647 6749,5647 Z M 6662,4829 L 6662,4609 6749,4558 6749,4829 6662,4829 Z M 6749,4852 L 6749,5624 6662,5624 6662,4852 6749,4852 Z"/>
     <path fill="rgb(212,212,212)" stroke="none" d="M 6749,5624 L 6749,6781 6662,6831 6662,5624 6749,5624 Z M 6662,4852 L 6662,4609 6749,4558 6749,4852 6662,4852 Z M 6749,4874 L 6749,5602 6662,5602 6662,4874 6749,4874 Z"/>
     <path fill="rgb(213,213,213)" stroke="none" d="M 6749,5602 L 6749,6781 6662,6831 6662,5602 6749,5602 Z M 6662,4874 L 6662,4609 6749,4558 6749,4874 6662,4874 Z M 6749,4897 L 6749,5579 6662,5579 6662,4897 6749,4897 Z"/>
     <path fill="rgb(214,214,214)" stroke="none" d="M 6749,5579 L 6749,6781 6662,6831 6662,5579 6749,5579 Z M 6662,4897 L 6662,4609 6749,4558 6749,4897 6662,4897 Z M 6749,4920 L 6749,5556 6662,5556 6662,4920 6749,4920 Z"/>
     <path fill="rgb(215,215,215)" stroke="none" d="M 6749,5556 L 6749,6781 6662,6831 6662,5556 6749,5556 Z M 6662,4920 L 6662,4609 6749,4558 6749,4920 6662,4920 Z M 6749,4943 L 6749,5533 6662,5533 6662,4943 6749,4943 Z"/>
     <path fill="rgb(216,216,216)" stroke="none" d="M 6749,5533 L 6749,6781 6662,6831 6662,5533 6749,5533 Z M 6662,4943 L 6662,4609 6749,4558 6749,4943 6662,4943 Z M 6749,4965 L 6749,5511 6662,5511 6662,4965 6749,4965 Z"/>
     <path fill="rgb(217,217,217)" stroke="none" d="M 6749,5511 L 6749,6781 6662,6831 6662,5511 6749,5511 Z M 6662,4965 L 6662,4609 6749,4558 6749,4965 6662,4965 Z M 6749,4988 L 6749,5488 6662,5488 6662,4988 6749,4988 Z"/>
     <path fill="rgb(218,218,218)" stroke="none" d="M 6749,5488 L 6749,6781 6662,6831 6662,5488 6749,5488 Z M 6662,4988 L 6662,4609 6749,4558 6749,4988 6662,4988 Z M 6749,5011 L 6749,5465 6662,5465 6662,5011 6749,5011 Z"/>
     <path fill="rgb(219,219,219)" stroke="none" d="M 6749,5465 L 6749,6781 6662,6831 6662,5465 6749,5465 Z M 6662,5011 L 6662,4609 6749,4558 6749,5011 6662,5011 Z M 6749,5034 L 6749,5442 6662,5442 6662,5034 6749,5034 Z"/>
     <path fill="rgb(220,220,220)" stroke="none" d="M 6749,5442 L 6749,6781 6662,6831 6662,5442 6749,5442 Z M 6662,5034 L 6662,4609 6749,4558 6749,5034 6662,5034 Z M 6749,5056 L 6749,5420 6662,5420 6662,5056 6749,5056 Z"/>
     <path fill="rgb(221,221,221)" stroke="none" d="M 6749,5420 L 6749,6781 6662,6831 6662,5420 6749,5420 Z M 6662,5056 L 6662,4609 6749,4558 6749,5056 6662,5056 Z M 6749,5079 L 6749,5397 6662,5397 6662,5079 6749,5079 Z"/>
     <path fill="rgb(222,222,222)" stroke="none" d="M 6749,5397 L 6749,6781 6662,6831 6662,5397 6749,5397 Z M 6662,5079 L 6662,4609 6749,4558 6749,5079 6662,5079 Z M 6749,5102 L 6749,5374 6662,5374 6662,5102 6749,5102 Z"/>
     <path fill="rgb(223,223,223)" stroke="none" d="M 6749,5374 L 6749,6781 6662,6831 6662,5374 6749,5374 Z M 6662,5102 L 6662,4609 6749,4558 6749,5102 6662,5102 Z M 6749,5125 L 6749,5351 6662,5351 6662,5125 6749,5125 Z"/>
     <path fill="rgb(224,224,224)" stroke="none" d="M 6749,5351 L 6749,6781 6662,6831 6662,5351 6749,5351 Z M 6662,5125 L 6662,4609 6749,4558 6749,5125 6662,5125 Z M 6749,5147 L 6749,5329 6662,5329 6662,5147 6749,5147 Z"/>
     <path fill="rgb(225,225,225)" stroke="none" d="M 6749,5329 L 6749,6781 6662,6831 6662,5329 6749,5329 Z M 6662,5147 L 6662,4609 6749,4558 6749,5147 6662,5147 Z M 6749,5170 L 6749,5306 6662,5306 6662,5170 6749,5170 Z"/>
     <path fill="rgb(226,226,226)" stroke="none" d="M 6749,5306 L 6749,6781 6662,6831 6662,5306 6749,5306 Z M 6662,5170 L 6662,4609 6749,4558 6749,5170 6662,5170 Z M 6732,5193 L 6732,5283 6662,5283 6662,5193 6732,5193 Z"/>
     <path fill="rgb(227,227,227)" stroke="none" d="M 6732,5283 L 6732,5193 6662,5193 6662,4609 6749,4558 6749,6781 6662,6831 6662,5283 6732,5283 Z M 6665,5216 L 6709,5216 6709,5260 6665,5260 6665,5216 Z"/>
     <path fill="rgb(229,229,229)" stroke="none" d="M 6665,5216 L 6665,5260 6709,5260 6709,5216 6665,5216 Z M 6662,6831 L 6662,4609 6749,4558 6749,6781 6662,6831 Z"/>
     <path fill="none" stroke="rgb(255,255,255)" id="Drawing_7_0" stroke-width="40" stroke-linejoin="round" d="M 6662,6831 L 6662,4609 6749,4558 6749,6781 6662,6831 Z"/>
    </g>
    <g>
     <path fill="rgb(179,179,179)" stroke="none" d="M 6313,7286 L 5063,8008 5002,8008 5002,7791 6313,7033 6313,7286 Z"/>
     <path fill="rgb(180,180,180)" stroke="none" d="M 5063,8008 L 5002,8043 5002,8008 5063,8008 Z M 6313,7033 L 6662,6831 6662,7084 6313,7286 6313,7033 Z M 6296,7295 L 5092,7991 5002,7991 5002,7791 6296,7043 6296,7295 Z"/>
     <path fill="rgb(181,181,181)" stroke="none" d="M 5092,7991 L 5002,8043 5002,7991 5092,7991 Z M 6296,7043 L 6662,6831 6662,7084 6296,7295 6296,7043 Z M 6280,7305 L 5120,7975 5002,7975 5002,7791 6280,7052 6280,7305 Z"/>
     <path fill="rgb(182,182,182)" stroke="none" d="M 5120,7975 L 5002,8043 5002,7975 5120,7975 Z M 6280,7052 L 6662,6831 6662,7084 6280,7305 6280,7052 Z M 6263,7315 L 5149,7958 5002,7958 5002,7791 6263,7062 6263,7315 Z"/>
     <path fill="rgb(183,183,183)" stroke="none" d="M 5149,7958 L 5002,8043 5002,7958 5149,7958 Z M 6263,7062 L 6662,6831 6662,7084 6263,7315 6263,7062 Z M 6246,7324 L 5179,7941 5002,7941 5002,7791 6246,7072 6246,7324 Z"/>
     <path fill="rgb(184,184,184)" stroke="none" d="M 5179,7941 L 5002,8043 5002,7941 5179,7941 Z M 6246,7072 L 6662,6831 6662,7084 6246,7324 6246,7072 Z M 6230,7334 L 5206,7925 5002,7925 5002,7791 6230,7081 6230,7334 Z"/>
     <path fill="rgb(185,185,185)" stroke="none" d="M 5206,7925 L 5002,8043 5002,7925 5206,7925 Z M 6230,7081 L 6662,6831 6662,7084 6230,7334 6230,7081 Z M 6213,7343 L 5236,7908 5002,7908 5002,7791 6213,7091 6213,7343 Z"/>
     <path fill="rgb(186,186,186)" stroke="none" d="M 5236,7908 L 5002,8043 5002,7908 5236,7908 Z M 6213,7091 L 6662,6831 6662,7084 6213,7343 6213,7091 Z M 6196,7353 L 5265,7891 5002,7891 5002,7791 6196,7100 6196,7353 Z"/>
     <path fill="rgb(187,187,187)" stroke="none" d="M 5265,7891 L 5002,8043 5002,7891 5265,7891 Z M 6196,7100 L 6662,6831 6662,7084 6196,7353 6196,7100 Z M 6180,7362 L 5293,7875 5002,7875 5002,7791 6180,7110 6180,7362 Z"/>
     <path fill="rgb(188,188,188)" stroke="none" d="M 5293,7875 L 5002,8043 5002,7875 5293,7875 Z M 6180,7110 L 6662,6831 6662,7084 6180,7362 6180,7110 Z M 6163,7372 L 5322,7858 5002,7858 5002,7791 6163,7120 6163,7372 Z"/>
     <path fill="rgb(189,189,189)" stroke="none" d="M 5322,7858 L 5002,8043 5002,7858 5322,7858 Z M 6163,7120 L 6662,6831 6662,7084 6163,7372 6163,7120 Z M 6147,7382 L 5350,7842 5002,7842 5002,7791 6147,7129 6147,7382 Z"/>
     <path fill="rgb(190,190,190)" stroke="none" d="M 5350,7842 L 5002,8043 5002,7842 5350,7842 Z M 6147,7129 L 6662,6831 6662,7084 6147,7382 6147,7129 Z M 6130,7391 L 5379,7825 5002,7825 5002,7791 6130,7139 6130,7391 Z"/>
     <path fill="rgb(191,191,191)" stroke="none" d="M 5379,7825 L 5002,8043 5002,7825 5379,7825 Z M 6130,7139 L 6662,6831 6662,7084 6130,7391 6130,7139 Z M 6113,7401 L 5409,7808 5002,7808 5002,7791 6113,7148 6113,7401 Z"/>
     <path fill="rgb(192,192,192)" stroke="none" d="M 5409,7808 L 5002,8043 5002,7808 5409,7808 Z M 6113,7148 L 6662,6831 6662,7084 6113,7401 6113,7148 Z M 6097,7410 L 5436,7792 5002,7792 5002,7791 6097,7158 6097,7410 Z"/>
     <path fill="rgb(193,193,193)" stroke="none" d="M 5436,7792 L 5002,8043 5002,7792 5436,7792 Z M 6097,7158 L 6662,6831 6662,7084 6097,7410 6097,7158 Z M 6080,7420 L 5466,7775 5030,7775 6080,7168 6080,7420 Z"/>
     <path fill="rgb(194,194,194)" stroke="none" d="M 5466,7775 L 5002,8043 5002,7791 5030,7775 5466,7775 Z M 6080,7168 L 6662,6831 6662,7084 6080,7420 6080,7168 Z M 6063,7430 L 5495,7758 5059,7758 6063,7177 6063,7430 Z"/>
     <path fill="rgb(195,195,195)" stroke="none" d="M 5495,7758 L 5002,8043 5002,7791 5059,7758 5495,7758 Z M 6063,7177 L 6662,6831 6662,7084 6063,7430 6063,7177 Z M 6047,7439 L 5523,7742 5087,7742 6047,7187 6047,7439 Z"/>
     <path fill="rgb(196,196,196)" stroke="none" d="M 5523,7742 L 5002,8043 5002,7791 5087,7742 5523,7742 Z M 6047,7187 L 6662,6831 6662,7084 6047,7439 6047,7187 Z M 6030,7449 L 5552,7725 5116,7725 6030,7196 6030,7449 Z"/>
     <path fill="rgb(197,197,197)" stroke="none" d="M 5552,7725 L 5002,8043 5002,7791 5116,7725 5552,7725 Z M 6030,7196 L 6662,6831 6662,7084 6030,7449 6030,7196 Z M 6014,7458 L 5580,7709 5144,7709 6014,7206 6014,7458 Z"/>
     <path fill="rgb(198,198,198)" stroke="none" d="M 5580,7709 L 5002,8043 5002,7791 5144,7709 5580,7709 Z M 6014,7206 L 6662,6831 6662,7084 6014,7458 6014,7206 Z M 5997,7468 L 5610,7692 5173,7692 5997,7216 5997,7468 Z"/>
     <path fill="rgb(199,199,199)" stroke="none" d="M 5610,7692 L 5002,8043 5002,7791 5173,7692 5610,7692 Z M 5997,7216 L 6662,6831 6662,7084 5997,7468 5997,7216 Z M 5980,7478 L 5639,7675 5203,7675 5980,7225 5980,7478 Z"/>
     <path fill="rgb(200,200,200)" stroke="none" d="M 5639,7675 L 5002,8043 5002,7791 5203,7675 5639,7675 Z M 5980,7225 L 6662,6831 6662,7084 5980,7478 5980,7225 Z M 5964,7487 L 5667,7659 5230,7659 5964,7235 5964,7487 Z"/>
     <path fill="rgb(201,201,201)" stroke="none" d="M 5667,7659 L 5002,8043 5002,7791 5230,7659 5667,7659 Z M 5964,7235 L 6662,6831 6662,7084 5964,7487 5964,7235 Z M 5947,7497 L 5696,7642 5260,7642 5947,7244 5947,7497 Z"/>
     <path fill="rgb(202,202,202)" stroke="none" d="M 5696,7642 L 5002,8043 5002,7791 5260,7642 5696,7642 Z M 5947,7244 L 6662,6831 6662,7084 5947,7497 5947,7244 Z M 5930,7507 L 5726,7625 5289,7625 5930,7254 5930,7507 Z"/>
     <path fill="rgb(203,203,203)" stroke="none" d="M 5726,7625 L 5002,8043 5002,7791 5289,7625 5726,7625 Z M 5930,7254 L 6662,6831 6662,7084 5930,7507 5930,7254 Z M 5914,7516 L 5753,7609 5317,7609 5914,7264 5914,7516 Z"/>
     <path fill="rgb(204,204,204)" stroke="none" d="M 5753,7609 L 5002,8043 5002,7791 5317,7609 5753,7609 Z M 5914,7264 L 6662,6831 6662,7084 5914,7516 5914,7264 Z M 5897,7526 L 5783,7592 5346,7592 5897,7273 5897,7526 Z"/>
     <path fill="rgb(205,205,205)" stroke="none" d="M 5783,7592 L 5002,8043 5002,7791 5346,7592 5783,7592 Z M 5897,7273 L 6662,6831 6662,7084 5897,7526 5897,7273 Z M 5880,7536 L 5812,7575 5376,7575 5880,7283 5880,7536 Z"/>
     <path fill="rgb(206,206,206)" stroke="none" d="M 5812,7575 L 5002,8043 5002,7791 5376,7575 5812,7575 Z M 5880,7283 L 6662,6831 6662,7084 5880,7536 5880,7283 Z M 5864,7545 L 5840,7559 5403,7559 5864,7292 5864,7545 Z"/>
     <path fill="rgb(207,207,207)" stroke="none" d="M 5840,7559 L 5002,8043 5002,7791 5403,7559 5840,7559 Z M 5864,7292 L 6662,6831 6662,7084 5864,7545 5864,7292 Z M 5847,7542 L 5433,7542 5847,7302 5847,7542 Z"/>
     <path fill="rgb(208,208,208)" stroke="none" d="M 5847,7542 L 5847,7302 6662,6831 6662,7084 5002,8043 5002,7791 5433,7542 5847,7542 Z M 5831,7526 L 5460,7526 5831,7312 5831,7526 Z"/>
     <path fill="rgb(209,209,209)" stroke="none" d="M 5831,7526 L 5831,7312 6662,6831 6662,7084 5002,8043 5002,7791 5460,7526 5831,7526 Z M 5814,7509 L 5490,7509 5814,7321 5814,7509 Z"/>
     <path fill="rgb(210,210,210)" stroke="none" d="M 5814,7509 L 5814,7321 6662,6831 6662,7084 5002,8043 5002,7791 5490,7509 5814,7509 Z M 5797,7492 L 5519,7492 5797,7331 5797,7492 Z"/>
     <path fill="rgb(211,211,211)" stroke="none" d="M 5797,7492 L 5797,7331 6662,6831 6662,7084 5002,8043 5002,7791 5519,7492 5797,7492 Z M 5781,7476 L 5547,7476 5781,7340 5781,7476 Z"/>
     <path fill="rgb(212,212,212)" stroke="none" d="M 5781,7476 L 5781,7340 6662,6831 6662,7084 5002,8043 5002,7791 5547,7476 5781,7476 Z M 5764,7459 L 5576,7459 5764,7350 5764,7459 Z"/>
     <path fill="rgb(213,213,213)" stroke="none" d="M 5764,7459 L 5764,7350 6662,6831 6662,7084 5002,8043 5002,7791 5576,7459 5764,7459 Z M 5747,7442 L 5605,7442 5747,7360 5747,7442 Z"/>
     <path fill="rgb(214,214,214)" stroke="none" d="M 5747,7442 L 5747,7360 6662,6831 6662,7084 5002,8043 5002,7791 5605,7442 5747,7442 Z M 5731,7426 L 5633,7426 5731,7369 5731,7426 Z"/>
     <path fill="rgb(215,215,215)" stroke="none" d="M 5731,7426 L 5731,7369 6662,6831 6662,7084 5002,8043 5002,7791 5633,7426 5731,7426 Z M 5714,7409 L 5663,7409 5714,7379 5714,7409 Z"/>
     <path fill="rgb(216,216,216)" stroke="none" d="M 5714,7409 L 5714,7379 6662,6831 6662,7084 5002,8043 5002,7791 5663,7409 5714,7409 Z M 5698,7393 L 5690,7393 5698,7388 5698,7393 Z"/>
     <path fill="rgb(217,217,217)" stroke="none" d="M 5698,7393 L 5698,7388 6662,6831 6662,7084 5002,8043 5002,7791 5690,7393 5698,7393 Z"/>
     <path fill="rgb(218,218,218)" stroke="none" d="M 5002,8043 L 5002,7791 6662,6831 6662,7084 5002,8043 Z"/>
     <path fill="rgb(219,219,219)" stroke="none" d="M 5002,8043 L 5002,7791 6662,6831 6662,7084 5002,8043 Z"/>
     <path fill="rgb(220,220,220)" stroke="none" d="M 5002,8043 L 5002,7791 6662,6831 6662,7084 5002,8043 Z"/>
     <path fill="rgb(221,221,221)" stroke="none" d="M 5002,8043 L 5002,7791 6662,6831 6662,7084 5002,8043 Z"/>
     <path fill="rgb(222,222,222)" stroke="none" d="M 5002,8043 L 5002,7791 6662,6831 6662,7084 5002,8043 Z"/>
     <path fill="rgb(223,223,223)" stroke="none" d="M 5002,8043 L 5002,7791 6662,6831 6662,7084 5002,8043 Z"/>
     <path fill="rgb(224,224,224)" stroke="none" d="M 5002,8043 L 5002,7791 6662,6831 6662,7084 5002,8043 Z"/>
     <path fill="rgb(225,225,225)" stroke="none" d="M 5002,8043 L 5002,7791 6662,6831 6662,7084 5002,8043 Z"/>
     <path fill="rgb(226,226,226)" stroke="none" d="M 5002,8043 L 5002,7791 6662,6831 6662,7084 5002,8043 Z"/>
     <path fill="rgb(227,227,227)" stroke="none" d="M 5002,8043 L 5002,7791 6662,6831 6662,7084 5002,8043 Z"/>
     <path fill="rgb(229,229,229)" stroke="none" d="M 5002,8043 L 5002,7791 6662,6831 6662,7084 5002,8043 Z"/>
     <path fill="none" stroke="rgb(255,255,255)" id="Drawing_8_0" stroke-width="40" stroke-linejoin="round" d="M 5002,8043 L 5002,7791 6662,6831 6662,7084 5002,8043 Z"/>
    </g>
    <g>
     <path fill="none" stroke="rgb(229,229,229)" id="Drawing_9_0" stroke-width="40" stroke-linejoin="round" d="M 3691,5973 L 5701,7135"/>
    </g>
    <g>
     <path fill="none" stroke="rgb(229,229,229)" id="Drawing_10_0" stroke-width="40" stroke-linejoin="round" d="M 3866,5872 L 5876,7034"/>
    </g>
    <g>
     <path fill="none" stroke="rgb(229,229,229)" id="Drawing_11_0" stroke-width="40" stroke-linejoin="round" d="M 4041,5771 L 6051,6933"/>
    </g>
    <g>
     <path fill="none" stroke="rgb(229,229,229)" id="Drawing_12_0" stroke-width="40" stroke-linejoin="round" d="M 5788,6781 L 5963,6680"/>
    </g>
    <g>
     <path fill="none" stroke="rgb(229,229,229)" id="Drawing_13_0" stroke-width="40" stroke-linejoin="round" d="M 5614,6680 L 5789,6579"/>
    </g>
    <g>
     <path fill="none" stroke="rgb(229,229,229)" id="Drawing_14_0" stroke-width="40" stroke-linejoin="round" d="M 5439,6579 L 5614,6478"/>
    </g>
    <g>
     <path fill="none" stroke="rgb(229,229,229)" id="Drawing_15_0" stroke-width="40" stroke-linejoin="round" d="M 5526,6831 L 5701,6730"/>
    </g>
    <g>
     <path fill="none" stroke="rgb(229,229,229)" id="Drawing_16_0" stroke-width="40" stroke-linejoin="round" d="M 5351,6730 L 5526,6629"/>
    </g>
    <g>
     <path fill="none" stroke="rgb(229,229,229)" id="Drawing_17_0" stroke-width="40" stroke-linejoin="round" d="M 5177,6629 L 5352,6528"/>
    </g>
    <g>
     <path fill="none" stroke="rgb(229,229,229)" id="Drawing_18_0" stroke-width="40" stroke-linejoin="round" d="M 5264,6478 L 5439,6377"/>
    </g>
    <g>
     <path fill="none" stroke="rgb(229,229,229)" id="Drawing_19_0" stroke-width="40" stroke-linejoin="round" d="M 5002,6528 L 5177,6427"/>
    </g>
    <g>
     <path fill="none" stroke="rgb(229,229,229)" id="Drawing_20_0" stroke-width="40" stroke-linejoin="round" d="M 5089,6377 L 5264,6276"/>
    </g>
    <g>
     <path fill="none" stroke="rgb(229,229,229)" id="Drawing_21_0" stroke-width="40" stroke-linejoin="round" d="M 4914,6276 L 5089,6175"/>
    </g>
    <g>
     <path fill="none" stroke="rgb(229,229,229)" id="Drawing_22_0" stroke-width="40" stroke-linejoin="round" d="M 4740,6175 L 4915,6074"/>
    </g>
    <g>
     <path fill="none" stroke="rgb(229,229,229)" id="Drawing_23_0" stroke-width="40" stroke-linejoin="round" d="M 4827,6427 L 5002,6326"/>
    </g>
    <g>
     <path fill="none" stroke="rgb(229,229,229)" id="Drawing_24_0" stroke-width="40" stroke-linejoin="round" d="M 4652,6326 L 4827,6225"/>
    </g>
    <g>
     <path fill="none" stroke="rgb(229,229,229)" id="Drawing_25_0" stroke-width="40" stroke-linejoin="round" d="M 4478,6225 L 4653,6124"/>
    </g>
    <g>
     <path fill="none" stroke="rgb(229,229,229)" id="Drawing_26_0" stroke-width="40" stroke-linejoin="round" d="M 4565,6074 L 4740,5973"/>
    </g>
    <g>
     <path fill="none" stroke="rgb(229,229,229)" id="Drawing_27_0" stroke-width="40" stroke-linejoin="round" d="M 4303,6124 L 4478,6023"/>
    </g>
    <g>
     <path fill="none" stroke="rgb(229,229,229)" id="Drawing_28_0" stroke-width="40" stroke-linejoin="round" d="M 4390,5973 L 4565,5872"/>
    </g>
    <g>
     <path fill="none" stroke="rgb(229,229,229)" id="Drawing_29_0" stroke-width="40" stroke-linejoin="round" d="M 4215,5872 L 4390,5771"/>
    </g>
    <g>
     <path fill="none" stroke="rgb(229,229,229)" id="Drawing_30_0" stroke-width="40" stroke-linejoin="round" d="M 4128,6023 L 4303,5922"/>
    </g>
    <g>
     <path fill="none" stroke="rgb(229,229,229)" id="Drawing_31_0" stroke-width="40" stroke-linejoin="round" d="M 5264,6882 L 5439,6781"/>
    </g>
    <g>
     <path fill="none" stroke="rgb(229,229,229)" id="Drawing_32_0" stroke-width="40" stroke-linejoin="round" d="M 5089,6781 L 5264,6680"/>
    </g>
    <g>
     <path fill="none" stroke="rgb(229,229,229)" id="Drawing_33_0" stroke-width="40" stroke-linejoin="round" d="M 4914,6680 L 5089,6579"/>
    </g>
    <g>
     <path fill="none" stroke="rgb(229,229,229)" id="Drawing_34_0" stroke-width="40" stroke-linejoin="round" d="M 4827,6831 L 5002,6730"/>
    </g>
    <g>
     <path fill="none" stroke="rgb(229,229,229)" id="Drawing_35_0" stroke-width="40" stroke-linejoin="round" d="M 4652,6730 L 4827,6629"/>
    </g>
    <g>
     <path fill="none" stroke="rgb(229,229,229)" id="Drawing_36_0" stroke-width="40" stroke-linejoin="round" d="M 4740,6579 L 4915,6478"/>
    </g>
    <g>
     <path fill="none" stroke="rgb(229,229,229)" id="Drawing_37_0" stroke-width="40" stroke-linejoin="round" d="M 4565,6478 L 4740,6377"/>
    </g>
    <g>
     <path fill="none" stroke="rgb(229,229,229)" id="Drawing_38_0" stroke-width="40" stroke-linejoin="round" d="M 4390,6377 L 4565,6276"/>
    </g>
    <g>
     <path fill="none" stroke="rgb(229,229,229)" id="Drawing_39_0" stroke-width="40" stroke-linejoin="round" d="M 4215,6276 L 4390,6175"/>
    </g>
    <g>
     <path fill="none" stroke="rgb(229,229,229)" id="Drawing_40_0" stroke-width="40" stroke-linejoin="round" d="M 3953,6326 L 4128,6225"/>
    </g>
    <g>
     <path fill="none" stroke="rgb(229,229,229)" id="Drawing_41_0" stroke-width="40" stroke-linejoin="round" d="M 4041,6175 L 4216,6074"/>
    </g>
    <g>
     <path fill="none" stroke="rgb(229,229,229)" id="Drawing_42_0" stroke-width="40" stroke-linejoin="round" d="M 3778,6225 L 3953,6124"/>
    </g>
    <g>
     <path fill="none" stroke="rgb(229,229,229)" id="Drawing_43_0" stroke-width="40" stroke-linejoin="round" d="M 5177,7034 L 5352,6933"/>
    </g>
    <g>
     <path fill="none" stroke="rgb(229,229,229)" id="Drawing_44_0" stroke-width="40" stroke-linejoin="round" d="M 5002,6932 L 5177,6831"/>
    </g>
    <g>
     <defs>
      <linearGradient id="Gradient_108" gradientUnits="userSpaceOnUse" x1="2553" y1="7208" x2="5002" y2="7212">
       <stop offset="0.1" stop-color="rgb(179,179,179)"/>
       <stop offset="1" stop-color="rgb(229,229,229)"/>
      </linearGradient>
     </defs>
     <path fill="url(#Gradient_108)" stroke="rgb(255,255,255)" id="Drawing_45_0" stroke-width="40" stroke-linejoin="round" d="M 2555,6630 L 2555,6377 5002,7791 5002,8044 2555,6630 Z"/>
    </g>
    <g>
     <path fill="none" stroke="rgb(0,0,0)" id="Drawing_46_0" stroke-width="40" stroke-linejoin="round" d="M 4303,3144 L 6750,4558 6750,6781 6662,6831 6662,7084 5002,8044 2555,6629 2555,6377 4215,5417 4215,3195 4303,3144 Z"/>
    </g>
    <g>
     <path fill="rgb(179,179,179)" stroke="none" d="M 3604,6781 L 4041,6528 4653,6882 4216,7134 3604,6781 Z"/>
     <path fill="none" stroke="rgb(255,255,255)" id="Drawing_47_0" stroke-width="40" stroke-linejoin="round" d="M 3604,6781 L 4041,6528 4653,6882 4216,7134 3604,6781 Z"/>
    </g>
    <g>
     <path fill="none" stroke="rgb(229,229,229)" id="Drawing_48_0" stroke-width="40" stroke-linejoin="round" d="M 5701,6932 L 5876,6831"/>
    </g>
    <g>
     <path fill="none" stroke="rgb(229,229,229)" id="Drawing_49_0" stroke-width="40" stroke-linejoin="round" d="M 5439,6983 L 5614,6882"/>
    </g>
   </g>
  </g>
 </g>
</svg>