<?xml version="1.0" encoding="UTF-8"?>

<svg version="1.2" baseProfile="tiny" width="45.46mm" height="49.49mm" viewBox="13678 12153 4546 4949" preserveAspectRatio="xMidYMid" fill-rule="evenodd" stroke-width="28.222" stroke-linejoin="round" xmlns="http://www.w3.org/2000/svg" xmlns:xlink="http://www.w3.org/1999/xlink" xml:space="preserve">
 <g visibility="visible" id="Slide_1">
  <g id="DrawingGroup_1">
   <g>
    <path fill="rgb(221,221,221)" stroke="none" d="M 16123,16662 C 16123,16662 17700,16224 18063,15892 18398,15585 18061,15472 17820,15472 17820,15624 16123,16592 16123,16662 Z"/>
    <path fill="none" stroke="rgb(221,221,221)" id="Drawing_1_0" stroke-width="40" stroke-linejoin="round" d="M 16123,16662 C 16123,16662 17700,16224 18063,15892 18398,15585 18061,15472 17820,15472 17820,15624 16123,16592 16123,16662 Z"/>
   </g>
   <g id="DrawingGroup_2">
    <g>
     <defs>
      <linearGradient id="Gradient_119" gradientUnits="userSpaceOnUse" x1="15843" y1="14450" x2="15843" y2="16829">
       <stop offset="0.1" stop-color="rgb(51,51,51)"/>
       <stop offset="1" stop-color="rgb(153,153,153)"/>
      </linearGradient>
     </defs>
     <path fill="url(#Gradient_119)" stroke="rgb(178,178,178)" id="Drawing_2_0" stroke-width="40" stroke-linejoin="round" d="M 15450,16829 L 17901,15412 16238,14450 13786,15867 15450,16829 Z"/>
    </g>
    <g>
     <path fill="rgb(102,102,102)" stroke="none" d="M 16938,15108 L 16238,14703 14224,15867 14924,16272 16938,15108 Z"/>
     <path fill="none" stroke="rgb(178,178,178)" id="Drawing_3_0" stroke-width="40" stroke-linejoin="round" d="M 16938,15108 L 16238,14703 14224,15867 14924,16272 16938,15108 Z"/>
    </g>
    <g>
     <path fill="rgb(102,102,102)" stroke="none" d="M 13787,15104 L 13787,13641 16238,12224 16238,14451 15108,15104 13787,15104 Z"/>
     <path fill="rgb(103,103,103)" stroke="none" d="M 15108,15104 L 13787,15868 13787,15104 15108,15104 Z M 13787,15068 L 13787,13641 16238,12224 16238,14451 15171,15068 13787,15068 Z"/>
     <path fill="rgb(104,104,104)" stroke="none" d="M 15171,15068 L 13787,15868 13787,15068 15171,15068 Z M 16237,14452 L 15233,15032 13787,15032 13787,13641 16237,12225 16237,14452 Z"/>
     <path fill="rgb(105,105,105)" stroke="none" d="M 15233,15032 L 13787,15868 13787,15032 15233,15032 Z M 16237,12225 L 16238,12224 16238,14451 16237,14452 16237,12225 Z M 16201,14472 L 15295,14996 13787,14996 13787,13641 16201,12245 16201,14472 Z"/>
     <path fill="rgb(106,106,106)" stroke="none" d="M 15295,14996 L 13787,15868 13787,14996 15295,14996 Z M 16201,12245 L 16238,12224 16238,14451 16201,14472 16201,12245 Z M 16166,14493 L 15356,14961 13787,14961 13787,13641 16166,12266 16166,14493 Z"/>
     <path fill="rgb(107,107,107)" stroke="none" d="M 15356,14961 L 13787,15868 13787,14961 15356,14961 Z M 16166,12266 L 16238,12224 16238,14451 16166,14493 16166,12266 Z M 16130,14513 L 15418,14925 13787,14925 13787,13641 16130,12286 16130,14513 Z"/>
     <path fill="rgb(108,108,108)" stroke="none" d="M 15418,14925 L 13787,15868 13787,14925 15418,14925 Z M 16130,12286 L 16238,12224 16238,14451 16130,14513 16130,12286 Z M 16094,14534 L 15480,14889 13787,14889 13787,13641 16094,12307 16094,14534 Z"/>
     <path fill="rgb(109,109,109)" stroke="none" d="M 15480,14889 L 13787,15868 13787,14889 15480,14889 Z M 16094,12307 L 16238,12224 16238,14451 16094,14534 16094,12307 Z M 16058,14555 L 15543,14853 13787,14853 13787,13641 16058,12328 16058,14555 Z"/>
     <path fill="rgb(110,110,110)" stroke="none" d="M 15543,14853 L 13787,15868 13787,14853 15543,14853 Z M 16058,12328 L 16238,12224 16238,14451 16058,14555 16058,12328 Z M 16023,14575 L 15603,14818 13787,14818 13787,13641 16023,12348 16023,14575 Z"/>
     <path fill="rgb(111,111,111)" stroke="none" d="M 15603,14818 L 13787,15868 13787,14818 15603,14818 Z M 16023,12348 L 16238,12224 16238,14451 16023,14575 16023,12348 Z M 15987,14596 L 15665,14782 13787,14782 13787,13641 15987,12369 15987,14596 Z"/>
     <path fill="rgb(112,112,112)" stroke="none" d="M 15665,14782 L 13787,15868 13787,14782 15665,14782 Z M 15987,12369 L 16238,12224 16238,14451 15987,14596 15987,12369 Z M 15951,14617 L 15728,14746 13787,14746 13787,13641 15951,12390 15951,14617 Z"/>
     <path fill="rgb(113,113,113)" stroke="none" d="M 15728,14746 L 13787,15868 13787,14746 15728,14746 Z M 15951,12390 L 16238,12224 16238,14451 15951,14617 15951,12390 Z M 15915,14638 L 15790,14710 13787,14710 13787,13641 15915,12411 15915,14638 Z"/>
     <path fill="rgb(114,114,114)" stroke="none" d="M 15790,14710 L 13787,15868 13787,14710 15790,14710 Z M 15915,12411 L 16238,12224 16238,14451 15915,14638 15915,12411 Z M 15880,14658 L 15851,14675 13787,14675 13787,13641 15880,12431 15880,14658 Z"/>
     <path fill="rgb(115,115,115)" stroke="none" d="M 15851,14675 L 13787,15868 13787,14675 15851,14675 Z M 15880,12431 L 16238,12224 16238,14451 15880,14658 15880,12431 Z M 15844,14639 L 13787,14639 13787,13641 15844,12452 15844,14639 Z"/>
     <path fill="rgb(116,116,116)" stroke="none" d="M 15844,14639 L 15844,12452 16238,12224 16238,14451 13787,15868 13787,14639 15844,14639 Z M 15808,14603 L 13787,14603 13787,13641 15808,12473 15808,14603 Z"/>
     <path fill="rgb(117,117,117)" stroke="none" d="M 15808,14603 L 15808,12473 16238,12224 16238,14451 13787,15868 13787,14603 15808,14603 Z M 15772,14567 L 13787,14567 13787,13641 15772,12493 15772,14567 Z"/>
     <path fill="rgb(118,118,118)" stroke="none" d="M 15772,14567 L 15772,12493 16238,12224 16238,14451 13787,15868 13787,14567 15772,14567 Z M 15737,14532 L 13787,14532 13787,13641 15737,12514 15737,14532 Z"/>
     <path fill="rgb(119,119,119)" stroke="none" d="M 15737,14532 L 15737,12514 16238,12224 16238,14451 13787,15868 13787,14532 15737,14532 Z M 15701,14496 L 13787,14496 13787,13641 15701,12534 15701,14496 Z"/>
     <path fill="rgb(120,120,120)" stroke="none" d="M 15701,14496 L 15701,12534 16238,12224 16238,14451 13787,15868 13787,14496 15701,14496 Z M 15665,14460 L 13787,14460 13787,13641 15665,12555 15665,14460 Z"/>
     <path fill="rgb(121,121,121)" stroke="none" d="M 15665,14460 L 15665,12555 16238,12224 16238,14451 13787,15868 13787,14460 15665,14460 Z M 15629,14424 L 13787,14424 13787,13641 15629,12576 15629,14424 Z"/>
     <path fill="rgb(122,122,122)" stroke="none" d="M 15629,14424 L 15629,12576 16238,12224 16238,14451 13787,15868 13787,14424 15629,14424 Z M 15594,14389 L 13787,14389 13787,13641 15594,12596 15594,14389 Z"/>
     <path fill="rgb(123,123,123)" stroke="none" d="M 15594,14389 L 15594,12596 16238,12224 16238,14451 13787,15868 13787,14389 15594,14389 Z M 15558,14353 L 13787,14353 13787,13641 15558,12617 15558,14353 Z"/>
     <path fill="rgb(124,124,124)" stroke="none" d="M 15558,14353 L 15558,12617 16238,12224 16238,14451 13787,15868 13787,14353 15558,14353 Z M 15522,14317 L 13787,14317 13787,13641 15522,12638 15522,14317 Z"/>
     <path fill="rgb(125,125,125)" stroke="none" d="M 15522,14317 L 15522,12638 16238,12224 16238,14451 13787,15868 13787,14317 15522,14317 Z M 15486,14281 L 13787,14281 13787,13641 15486,12659 15486,14281 Z"/>
     <path fill="rgb(126,126,126)" stroke="none" d="M 15486,14281 L 15486,12659 16238,12224 16238,14451 13787,15868 13787,14281 15486,14281 Z M 15451,14246 L 13787,14246 13787,13641 15451,12679 15451,14246 Z"/>
     <path fill="rgb(127,127,127)" stroke="none" d="M 15451,14246 L 15451,12679 16238,12224 16238,14451 13787,15868 13787,14246 15451,14246 Z M 15415,14210 L 13787,14210 13787,13641 15415,12700 15415,14210 Z"/>
     <path fill="rgb(128,128,128)" stroke="none" d="M 15415,14210 L 15415,12700 16238,12224 16238,14451 13787,15868 13787,14210 15415,14210 Z M 15379,14174 L 13787,14174 13787,13641 15379,12721 15379,14174 Z"/>
     <path fill="rgb(129,129,129)" stroke="none" d="M 15379,14174 L 15379,12721 16238,12224 16238,14451 13787,15868 13787,14174 15379,14174 Z M 15343,14138 L 13787,14138 13787,13641 15343,12741 15343,14138 Z"/>
     <path fill="rgb(130,130,130)" stroke="none" d="M 15343,14138 L 15343,12741 16238,12224 16238,14451 13787,15868 13787,14138 15343,14138 Z M 15308,14103 L 13787,14103 13787,13641 15308,12762 15308,14103 Z"/>
     <path fill="rgb(131,131,131)" stroke="none" d="M 15308,14103 L 15308,12762 16238,12224 16238,14451 13787,15868 13787,14103 15308,14103 Z M 15272,14067 L 13787,14067 13787,13641 15272,12782 15272,14067 Z"/>
     <path fill="rgb(132,132,132)" stroke="none" d="M 15272,14067 L 15272,12782 16238,12224 16238,14451 13787,15868 13787,14067 15272,14067 Z M 15236,14031 L 13807,14031 13807,13629 15236,12803 15236,14031 Z"/>
     <path fill="rgb(133,133,133)" stroke="none" d="M 13807,14031 L 15236,14031 15236,12803 16238,12224 16238,14451 13787,15868 13787,13641 13807,13629 13807,14031 Z M 15200,13995 L 13843,13995 13843,13609 15200,12824 15200,13995 Z"/>
     <path fill="rgb(134,134,134)" stroke="none" d="M 13843,13995 L 15200,13995 15200,12824 16238,12224 16238,14451 13787,15868 13787,13641 13843,13609 13843,13995 Z M 15165,13960 L 13878,13960 13878,13588 15165,12844 15165,13960 Z"/>
     <path fill="rgb(135,135,135)" stroke="none" d="M 13878,13960 L 15165,13960 15165,12844 16238,12224 16238,14451 13787,15868 13787,13641 13878,13588 13878,13960 Z M 15129,13924 L 13914,13924 13914,13568 15129,12865 15129,13924 Z"/>
     <path fill="rgb(136,136,136)" stroke="none" d="M 13914,13924 L 15129,13924 15129,12865 16238,12224 16238,14451 13787,15868 13787,13641 13914,13568 13914,13924 Z M 15093,13888 L 13950,13888 13950,13547 15093,12886 15093,13888 Z"/>
     <path fill="rgb(137,137,137)" stroke="none" d="M 13950,13888 L 15093,13888 15093,12886 16238,12224 16238,14451 13787,15868 13787,13641 13950,13547 13950,13888 Z M 15057,13852 L 13986,13852 13986,13526 15057,12907 15057,13852 Z"/>
     <path fill="rgb(138,138,138)" stroke="none" d="M 13986,13852 L 15057,13852 15057,12907 16238,12224 16238,14451 13787,15868 13787,13641 13986,13526 13986,13852 Z M 15022,13817 L 14021,13817 14021,13506 15022,12927 15022,13817 Z"/>
     <path fill="rgb(139,139,139)" stroke="none" d="M 14021,13817 L 15022,13817 15022,12927 16238,12224 16238,14451 13787,15868 13787,13641 14021,13506 14021,13817 Z M 14986,13781 L 14057,13781 14057,13485 14986,12948 14986,13781 Z"/>
     <path fill="rgb(140,140,140)" stroke="none" d="M 14057,13781 L 14986,13781 14986,12948 16238,12224 16238,14451 13787,15868 13787,13641 14057,13485 14057,13781 Z M 14950,13745 L 14093,13745 14093,13464 14950,12969 14950,13745 Z"/>
     <path fill="rgb(141,141,141)" stroke="none" d="M 14093,13745 L 14950,13745 14950,12969 16238,12224 16238,14451 13787,15868 13787,13641 14093,13464 14093,13745 Z M 14914,13709 L 14129,13709 14129,13443 14914,12989 14914,13709 Z"/>
     <path fill="rgb(142,142,142)" stroke="none" d="M 14129,13709 L 14914,13709 14914,12989 16238,12224 16238,14451 13787,15868 13787,13641 14129,13443 14129,13709 Z M 14879,13674 L 14164,13674 14164,13423 14879,13010 14879,13674 Z"/>
     <path fill="rgb(143,143,143)" stroke="none" d="M 14164,13674 L 14879,13674 14879,13010 16238,12224 16238,14451 13787,15868 13787,13641 14164,13423 14164,13674 Z M 14843,13638 L 14200,13638 14200,13402 14843,13030 14843,13638 Z"/>
     <path fill="rgb(144,144,144)" stroke="none" d="M 14200,13638 L 14843,13638 14843,13030 16238,12224 16238,14451 13787,15868 13787,13641 14200,13402 14200,13638 Z M 14807,13602 L 14236,13602 14236,13381 14807,13051 14807,13602 Z"/>
     <path fill="rgb(145,145,145)" stroke="none" d="M 14236,13602 L 14807,13602 14807,13051 16238,12224 16238,14451 13787,15868 13787,13641 14236,13381 14236,13602 Z M 14771,13566 L 14272,13566 14272,13361 14771,13072 14771,13566 Z"/>
     <path fill="rgb(146,146,146)" stroke="none" d="M 14272,13566 L 14771,13566 14771,13072 16238,12224 16238,14451 13787,15868 13787,13641 14272,13361 14272,13566 Z M 14736,13102 L 14736,13531 14307,13531 14307,13340 14719,13102 14736,13102 Z"/>
     <path fill="rgb(147,147,147)" stroke="none" d="M 14307,13531 L 14736,13531 14736,13102 14719,13102 16238,12224 16238,14451 13787,15868 13787,13641 14307,13340 14307,13531 Z M 14700,13138 L 14700,13495 14343,13495 14343,13320 14657,13138 14700,13138 Z"/>
     <path fill="rgb(148,148,148)" stroke="none" d="M 14343,13495 L 14700,13495 14700,13138 14657,13138 16238,12224 16238,14451 13787,15868 13787,13641 14343,13320 14343,13495 Z M 14664,13174 L 14664,13459 14379,13459 14379,13299 14595,13174 14664,13174 Z"/>
     <path fill="rgb(149,149,149)" stroke="none" d="M 14379,13459 L 14664,13459 14664,13174 14595,13174 16238,12224 16238,14451 13787,15868 13787,13641 14379,13299 14379,13459 Z M 14628,13210 L 14628,13423 14415,13423 14415,13278 14533,13210 14628,13210 Z"/>
     <path fill="rgb(150,150,150)" stroke="none" d="M 14415,13423 L 14628,13423 14628,13210 14533,13210 16238,12224 16238,14451 13787,15868 13787,13641 14415,13278 14415,13423 Z M 14593,13245 L 14593,13388 14450,13388 14450,13258 14472,13245 14593,13245 Z"/>
     <path fill="rgb(151,151,151)" stroke="none" d="M 14450,13388 L 14593,13388 14593,13245 14472,13245 16238,12224 16238,14451 13787,15868 13787,13641 14450,13258 14450,13388 Z M 14486,13281 L 14557,13281 14557,13352 14486,13352 14486,13281 Z"/>
     <path fill="rgb(153,153,153)" stroke="none" d="M 14486,13281 L 14486,13352 14557,13352 14557,13281 14486,13281 Z M 16238,14451 L 13787,15868 13787,13641 16238,12224 16238,14451 Z"/>
     <path fill="none" stroke="rgb(178,178,178)" id="Drawing_4_0" stroke-width="40" stroke-linejoin="round" d="M 16238,14451 L 16238,12224 13787,13641 13787,15868 16238,14451 Z"/>
    </g>
    <g>
     <defs>
      <linearGradient id="Gradient_120" gradientUnits="userSpaceOnUse" x1="13871" y1="13967" x2="16153" y2="13971">
       <stop offset="0.1" stop-color="rgb(147,212,240)"/>
       <stop offset="1" stop-color="rgb(233,246,252)"/>
      </linearGradient>
     </defs>
     <path fill="url(#Gradient_120)" stroke="rgb(102,102,102)" id="Drawing_5_0" stroke-width="40" stroke-linejoin="round" d="M 16150,14247 L 16150,12375 13874,13691 13874,15563 16150,14247 Z"/>
    </g>
    <g>
     <defs>
      <linearGradient id="Gradient_121" gradientUnits="userSpaceOnUse" x1="14968" y1="12173" x2="14968" y2="13641">
       <stop offset="0.1" stop-color="rgb(51,51,51)"/>
       <stop offset="1" stop-color="rgb(153,153,153)"/>
      </linearGradient>
     </defs>
     <path fill="url(#Gradient_121)" stroke="rgb(178,178,178)" id="Drawing_6_0" stroke-width="40" stroke-linejoin="round" d="M 13787,13641 L 16238,12224 16150,12173 13699,13590 13787,13641 Z"/>
    </g>
    <g>
     <defs>
      <linearGradient id="Gradient_122" gradientUnits="userSpaceOnUse" x1="13696" y1="14728" x2="13788" y2="14728">
       <stop offset="0.1" stop-color="rgb(102,102,102)"/>
       <stop offset="1" stop-color="rgb(153,153,153)"/>
      </linearGradient>
     </defs>
     <path fill="url(#Gradient_122)" stroke="rgb(178,178,178)" id="Drawing_7_0" stroke-width="40" stroke-linejoin="round" d="M 13786,15867 L 13786,13641 13698,13590 13698,15817 13786,15867 Z"/>
    </g>
    <g>
     <defs>
      <linearGradient id="Gradient_123" gradientUnits="userSpaceOnUse" x1="13785" y1="16473" x2="15450" y2="16475">
       <stop offset="0.1" stop-color="rgb(102,102,102)"/>
       <stop offset="1" stop-color="rgb(153,153,153)"/>
      </linearGradient>
     </defs>
     <path fill="url(#Gradient_123)" stroke="rgb(178,178,178)" id="Drawing_8_0" stroke-width="40" stroke-linejoin="round" d="M 15450,17082 L 15450,16829 13787,15867 13787,16120 15450,17082 Z"/>
    </g>
    <g>
     <path fill="none" stroke="rgb(178,178,178)" id="Drawing_9_0" stroke-width="40" stroke-linejoin="round" d="M 16763,15007 L 14749,16171"/>
    </g>
    <g>
     <path fill="none" stroke="rgb(178,178,178)" id="Drawing_10_0" stroke-width="40" stroke-linejoin="round" d="M 16588,14906 L 14574,16070"/>
    </g>
    <g>
     <path fill="none" stroke="rgb(178,178,178)" id="Drawing_11_0" stroke-width="40" stroke-linejoin="round" d="M 16413,14805 L 14399,15969"/>
    </g>
    <g>
     <path fill="none" stroke="rgb(178,178,178)" id="Drawing_12_0" stroke-width="40" stroke-linejoin="round" d="M 14662,15817 L 14487,15716"/>
    </g>
    <g>
     <path fill="none" stroke="rgb(178,178,178)" id="Drawing_13_0" stroke-width="40" stroke-linejoin="round" d="M 14837,15715 L 14662,15614"/>
    </g>
    <g>
     <path fill="none" stroke="rgb(178,178,178)" id="Drawing_14_0" stroke-width="40" stroke-linejoin="round" d="M 15012,15614 L 14837,15513"/>
    </g>
    <g>
     <path fill="none" stroke="rgb(178,178,178)" id="Drawing_15_0" stroke-width="40" stroke-linejoin="round" d="M 14924,15867 L 14749,15766"/>
    </g>
    <g>
     <path fill="none" stroke="rgb(178,178,178)" id="Drawing_16_0" stroke-width="40" stroke-linejoin="round" d="M 15099,15766 L 14924,15665"/>
    </g>
    <g>
     <path fill="none" stroke="rgb(178,178,178)" id="Drawing_17_0" stroke-width="40" stroke-linejoin="round" d="M 15274,15665 L 15099,15564"/>
    </g>
    <g>
     <path fill="none" stroke="rgb(178,178,178)" id="Drawing_18_0" stroke-width="40" stroke-linejoin="round" d="M 15187,15513 L 15012,15412"/>
    </g>
    <g>
     <path fill="none" stroke="rgb(178,178,178)" id="Drawing_19_0" stroke-width="40" stroke-linejoin="round" d="M 15450,15563 L 15275,15462"/>
    </g>
    <g>
     <path fill="none" stroke="rgb(178,178,178)" id="Drawing_20_0" stroke-width="40" stroke-linejoin="round" d="M 15362,15412 L 15187,15311"/>
    </g>
    <g>
     <path fill="none" stroke="rgb(178,178,178)" id="Drawing_21_0" stroke-width="40" stroke-linejoin="round" d="M 15537,15310 L 15362,15209"/>
    </g>
    <g>
     <path fill="none" stroke="rgb(178,178,178)" id="Drawing_22_0" stroke-width="40" stroke-linejoin="round" d="M 15712,15209 L 15537,15108"/>
    </g>
    <g>
     <path fill="none" stroke="rgb(178,178,178)" id="Drawing_23_0" stroke-width="40" stroke-linejoin="round" d="M 15625,15462 L 15450,15361"/>
    </g>
    <g>
     <path fill="none" stroke="rgb(178,178,178)" id="Drawing_24_0" stroke-width="40" stroke-linejoin="round" d="M 15800,15361 L 15625,15260"/>
    </g>
    <g>
     <path fill="none" stroke="rgb(178,178,178)" id="Drawing_25_0" stroke-width="40" stroke-linejoin="round" d="M 15975,15260 L 15800,15159"/>
    </g>
    <g>
     <path fill="none" stroke="rgb(178,178,178)" id="Drawing_26_0" stroke-width="40" stroke-linejoin="round" d="M 15887,15108 L 15712,15007"/>
    </g>
    <g>
     <path fill="none" stroke="rgb(178,178,178)" id="Drawing_27_0" stroke-width="40" stroke-linejoin="round" d="M 16150,15159 L 15975,15058"/>
    </g>
    <g>
     <path fill="none" stroke="rgb(178,178,178)" id="Drawing_28_0" stroke-width="40" stroke-linejoin="round" d="M 16062,15007 L 15887,14906"/>
    </g>
    <g>
     <path fill="none" stroke="rgb(178,178,178)" id="Drawing_29_0" stroke-width="40" stroke-linejoin="round" d="M 16238,14906 L 16063,14805"/>
    </g>
    <g>
     <path fill="none" stroke="rgb(178,178,178)" id="Drawing_30_0" stroke-width="40" stroke-linejoin="round" d="M 16325,15057 L 16150,14956"/>
    </g>
    <g>
     <path fill="none" stroke="rgb(178,178,178)" id="Drawing_31_0" stroke-width="40" stroke-linejoin="round" d="M 15187,15918 L 15012,15817"/>
    </g>
    <g>
     <path fill="none" stroke="rgb(178,178,178)" id="Drawing_32_0" stroke-width="40" stroke-linejoin="round" d="M 15362,15817 L 15187,15716"/>
    </g>
    <g>
     <path fill="none" stroke="rgb(178,178,178)" id="Drawing_33_0" stroke-width="40" stroke-linejoin="round" d="M 15537,15715 L 15362,15614"/>
    </g>
    <g>
     <path fill="none" stroke="rgb(178,178,178)" id="Drawing_34_0" stroke-width="40" stroke-linejoin="round" d="M 15625,15867 L 15450,15766"/>
    </g>
    <g>
     <path fill="none" stroke="rgb(178,178,178)" id="Drawing_35_0" stroke-width="40" stroke-linejoin="round" d="M 15800,15766 L 15625,15665"/>
    </g>
    <g>
     <path fill="none" stroke="rgb(178,178,178)" id="Drawing_36_0" stroke-width="40" stroke-linejoin="round" d="M 15712,15614 L 15537,15513"/>
    </g>
    <g>
     <path fill="none" stroke="rgb(178,178,178)" id="Drawing_37_0" stroke-width="40" stroke-linejoin="round" d="M 15887,15513 L 15712,15412"/>
    </g>
    <g>
     <path fill="none" stroke="rgb(178,178,178)" id="Drawing_38_0" stroke-width="40" stroke-linejoin="round" d="M 16062,15412 L 15887,15311"/>
    </g>
    <g>
     <path fill="none" stroke="rgb(178,178,178)" id="Drawing_39_0" stroke-width="40" stroke-linejoin="round" d="M 16238,15310 L 16063,15209"/>
    </g>
    <g>
     <path fill="none" stroke="rgb(178,178,178)" id="Drawing_40_0" stroke-width="40" stroke-linejoin="round" d="M 16500,15361 L 16325,15260"/>
    </g>
    <g>
     <path fill="none" stroke="rgb(178,178,178)" id="Drawing_41_0" stroke-width="40" stroke-linejoin="round" d="M 16413,15209 L 16238,15108"/>
    </g>
    <g>
     <path fill="none" stroke="rgb(178,178,178)" id="Drawing_42_0" stroke-width="40" stroke-linejoin="round" d="M 16675,15260 L 16500,15159"/>
    </g>
    <g>
     <path fill="none" stroke="rgb(178,178,178)" id="Drawing_43_0" stroke-width="40" stroke-linejoin="round" d="M 15274,16070 L 15099,15969"/>
    </g>
    <g>
     <path fill="none" stroke="rgb(178,178,178)" id="Drawing_44_0" stroke-width="40" stroke-linejoin="round" d="M 15450,15968 L 15275,15867"/>
    </g>
    <g>
     <path fill="rgb(102,102,102)" stroke="none" d="M 17386,15963 L 15450,17082 15450,16829 17386,15710 17386,15963 Z"/>
     <path fill="rgb(103,103,103)" stroke="none" d="M 17386,15710 L 17901,15412 17901,15665 17386,15963 17386,15710 Z M 17362,15977 L 15450,17082 15450,16829 17362,15724 17362,15977 Z"/>
     <path fill="rgb(104,104,104)" stroke="none" d="M 17362,15724 L 17901,15412 17901,15665 17362,15977 17362,15724 Z M 17338,15990 L 15479,17065 15450,17065 15450,16829 17338,15737 17338,15990 Z"/>
     <path fill="rgb(105,105,105)" stroke="none" d="M 15479,17065 L 15450,17082 15450,17065 15479,17065 Z M 17338,15737 L 17901,15412 17901,15665 17338,15990 17338,15737 Z M 17314,16004 L 15521,17041 15450,17041 15450,16829 17314,15751 17314,16004 Z"/>
     <path fill="rgb(106,106,106)" stroke="none" d="M 15521,17041 L 15450,17082 15450,17041 15521,17041 Z M 17314,15751 L 17901,15412 17901,15665 17314,16004 17314,15751 Z M 17290,16018 L 15562,17017 15450,17017 15450,16829 17290,15765 17290,16018 Z"/>
     <path fill="rgb(107,107,107)" stroke="none" d="M 15562,17017 L 15450,17082 15450,17017 15562,17017 Z M 17290,15765 L 17901,15412 17901,15665 17290,16018 17290,15765 Z M 17266,16032 L 15604,16993 15450,16993 15450,16829 17266,15779 17266,16032 Z"/>
     <path fill="rgb(108,108,108)" stroke="none" d="M 15604,16993 L 15450,17082 15450,16993 15604,16993 Z M 17266,15779 L 17901,15412 17901,15665 17266,16032 17266,15779 Z M 17242,16046 L 15645,16969 15450,16969 15450,16829 17242,15793 17242,16046 Z"/>
     <path fill="rgb(109,109,109)" stroke="none" d="M 15645,16969 L 15450,17082 15450,16969 15645,16969 Z M 17242,15793 L 17901,15412 17901,15665 17242,16046 17242,15793 Z M 17218,16060 L 15687,16945 15450,16945 15450,16829 17218,15807 17218,16060 Z"/>
     <path fill="rgb(110,110,110)" stroke="none" d="M 15687,16945 L 15450,17082 15450,16945 15687,16945 Z M 17218,15807 L 17901,15412 17901,15665 17218,16060 17218,15807 Z M 17194,16074 L 15728,16921 15450,16921 15450,16829 17194,15821 17194,16074 Z"/>
     <path fill="rgb(111,111,111)" stroke="none" d="M 15728,16921 L 15450,17082 15450,16921 15728,16921 Z M 17194,15821 L 17901,15412 17901,15665 17194,16074 17194,15821 Z M 17170,16088 L 15770,16897 15450,16897 15450,16829 17170,15835 17170,16088 Z"/>
     <path fill="rgb(112,112,112)" stroke="none" d="M 15770,16897 L 15450,17082 15450,16897 15770,16897 Z M 17170,15835 L 17901,15412 17901,15665 17170,16088 17170,15835 Z M 17146,16101 L 15812,16873 15450,16873 15450,16829 17146,15848 17146,16101 Z"/>
     <path fill="rgb(113,113,113)" stroke="none" d="M 15812,16873 L 15450,17082 15450,16873 15812,16873 Z M 17146,15848 L 17901,15412 17901,15665 17146,16101 17146,15848 Z M 17122,16115 L 15853,16849 15450,16849 15450,16829 17122,15862 17122,16115 Z"/>
     <path fill="rgb(114,114,114)" stroke="none" d="M 15853,16849 L 15450,17082 15450,16849 15853,16849 Z M 17122,15862 L 17901,15412 17901,15665 17122,16115 17122,15862 Z M 17098,16129 L 15895,16825 15457,16825 17098,15876 17098,16129 Z"/>
     <path fill="rgb(115,115,115)" stroke="none" d="M 15895,16825 L 15450,17082 15450,16829 15457,16825 15895,16825 Z M 17098,15876 L 17901,15412 17901,15665 17098,16129 17098,15876 Z M 17074,16143 L 15936,16801 15498,16801 17074,15890 17074,16143 Z"/>
     <path fill="rgb(116,116,116)" stroke="none" d="M 15936,16801 L 15450,17082 15450,16829 15498,16801 15936,16801 Z M 17074,15890 L 17901,15412 17901,15665 17074,16143 17074,15890 Z M 17050,16157 L 15978,16777 15540,16777 17050,15904 17050,16157 Z"/>
     <path fill="rgb(117,117,117)" stroke="none" d="M 15978,16777 L 15450,17082 15450,16829 15540,16777 15978,16777 Z M 17050,15904 L 17901,15412 17901,15665 17050,16157 17050,15904 Z M 17026,16171 L 16019,16753 15581,16753 17026,15918 17026,16171 Z"/>
     <path fill="rgb(118,118,118)" stroke="none" d="M 16019,16753 L 15450,17082 15450,16829 15581,16753 16019,16753 Z M 17026,15918 L 17901,15412 17901,15665 17026,16171 17026,15918 Z M 17002,16185 L 16061,16729 15623,16729 17002,15932 17002,16185 Z"/>
     <path fill="rgb(119,119,119)" stroke="none" d="M 16061,16729 L 15450,17082 15450,16829 15623,16729 16061,16729 Z M 17002,15932 L 17901,15412 17901,15665 17002,16185 17002,15932 Z M 16977,16199 L 16104,16704 15666,16704 16977,15946 16977,16199 Z"/>
     <path fill="rgb(120,120,120)" stroke="none" d="M 16104,16704 L 15450,17082 15450,16829 15666,16704 16104,16704 Z M 16977,15946 L 17901,15412 17901,15665 16977,16199 16977,15946 Z M 16953,16213 L 16145,16680 15708,16680 16953,15960 16953,16213 Z"/>
     <path fill="rgb(121,121,121)" stroke="none" d="M 16145,16680 L 15450,17082 15450,16829 15708,16680 16145,16680 Z M 16953,15960 L 17901,15412 17901,15665 16953,16213 16953,15960 Z M 16929,16227 L 16187,16656 15749,16656 16929,15974 16929,16227 Z"/>
     <path fill="rgb(122,122,122)" stroke="none" d="M 16187,16656 L 15450,17082 15450,16829 15749,16656 16187,16656 Z M 16929,15974 L 17901,15412 17901,15665 16929,16227 16929,15974 Z M 16905,16241 L 16228,16632 15791,16632 16905,15988 16905,16241 Z"/>
     <path fill="rgb(123,123,123)" stroke="none" d="M 16228,16632 L 15450,17082 15450,16829 15791,16632 16228,16632 Z M 16905,15988 L 17901,15412 17901,15665 16905,16241 16905,15988 Z M 16881,16255 L 16270,16608 15832,16608 16881,16002 16881,16255 Z"/>
     <path fill="rgb(124,124,124)" stroke="none" d="M 16270,16608 L 15450,17082 15450,16829 15832,16608 16270,16608 Z M 16881,16002 L 17901,15412 17901,15665 16881,16255 16881,16002 Z M 16857,16269 L 16311,16584 15874,16584 16857,16016 16857,16269 Z"/>
     <path fill="rgb(125,125,125)" stroke="none" d="M 16311,16584 L 15450,17082 15450,16829 15874,16584 16311,16584 Z M 16857,16016 L 17901,15412 17901,15665 16857,16269 16857,16016 Z M 16833,16282 L 16353,16560 15915,16560 16833,16029 16833,16282 Z"/>
     <path fill="rgb(126,126,126)" stroke="none" d="M 16353,16560 L 15450,17082 15450,16829 15915,16560 16353,16560 Z M 16833,16029 L 17901,15412 17901,15665 16833,16282 16833,16029 Z M 16809,16296 L 16394,16536 15957,16536 16809,16043 16809,16296 Z"/>
     <path fill="rgb(127,127,127)" stroke="none" d="M 16394,16536 L 15450,17082 15450,16829 15957,16536 16394,16536 Z M 16809,16043 L 17901,15412 17901,15665 16809,16296 16809,16043 Z M 16785,16310 L 16436,16512 15998,16512 16785,16057 16785,16310 Z"/>
     <path fill="rgb(128,128,128)" stroke="none" d="M 16436,16512 L 15450,17082 15450,16829 15998,16512 16436,16512 Z M 16785,16057 L 17901,15412 17901,15665 16785,16310 16785,16057 Z M 16761,16324 L 16477,16488 16040,16488 16761,16071 16761,16324 Z"/>
     <path fill="rgb(129,129,129)" stroke="none" d="M 16477,16488 L 15450,17082 15450,16829 16040,16488 16477,16488 Z M 16761,16071 L 17901,15412 17901,15665 16761,16324 16761,16071 Z M 16737,16338 L 16519,16464 16081,16464 16737,16085 16737,16338 Z"/>
     <path fill="rgb(130,130,130)" stroke="none" d="M 16519,16464 L 15450,17082 15450,16829 16081,16464 16519,16464 Z M 16737,16085 L 17901,15412 17901,15665 16737,16338 16737,16085 Z M 16713,16352 L 16560,16440 16123,16440 16713,16099 16713,16352 Z"/>
     <path fill="rgb(131,131,131)" stroke="none" d="M 16560,16440 L 15450,17082 15450,16829 16123,16440 16560,16440 Z M 16713,16099 L 17901,15412 17901,15665 16713,16352 16713,16099 Z M 16689,16366 L 16602,16416 16164,16416 16689,16113 16689,16366 Z"/>
     <path fill="rgb(132,132,132)" stroke="none" d="M 16602,16416 L 15450,17082 15450,16829 16164,16416 16602,16416 Z M 16689,16113 L 17901,15412 17901,15665 16689,16366 16689,16113 Z M 16665,16380 L 16644,16392 16206,16392 16665,16127 16665,16380 Z"/>
     <path fill="rgb(133,133,133)" stroke="none" d="M 16644,16392 L 15450,17082 15450,16829 16206,16392 16644,16392 Z M 16665,16127 L 17901,15412 17901,15665 16665,16380 16665,16127 Z M 16641,16368 L 16247,16368 16641,16140 16641,16368 Z"/>
     <path fill="rgb(134,134,134)" stroke="none" d="M 16641,16368 L 16641,16140 17901,15412 17901,15665 15450,17082 15450,16829 16247,16368 16641,16368 Z M 16617,16344 L 16289,16344 16617,16154 16617,16344 Z"/>
     <path fill="rgb(135,135,135)" stroke="none" d="M 16617,16344 L 16617,16154 17901,15412 17901,15665 15450,17082 15450,16829 16289,16344 16617,16344 Z M 16593,16320 L 16330,16320 16593,16168 16593,16320 Z"/>
     <path fill="rgb(136,136,136)" stroke="none" d="M 16593,16320 L 16593,16168 17901,15412 17901,15665 15450,17082 15450,16829 16330,16320 16593,16320 Z M 16568,16295 L 16374,16295 16568,16183 16568,16295 Z"/>
     <path fill="rgb(137,137,137)" stroke="none" d="M 16568,16295 L 16568,16183 17901,15412 17901,15665 15450,17082 15450,16829 16374,16295 16568,16295 Z M 16544,16271 L 16415,16271 16544,16197 16544,16271 Z"/>
     <path fill="rgb(138,138,138)" stroke="none" d="M 16544,16271 L 16544,16197 17901,15412 17901,15665 15450,17082 15450,16829 16415,16271 16544,16271 Z M 16520,16247 L 16457,16247 16520,16210 16520,16247 Z"/>
     <path fill="rgb(139,139,139)" stroke="none" d="M 16520,16247 L 16520,16210 17901,15412 17901,15665 15450,17082 15450,16829 16457,16247 16520,16247 Z"/>
     <path fill="rgb(140,140,140)" stroke="none" d="M 17901,15665 L 15450,17082 15450,16829 17901,15412 17901,15665 Z"/>
     <path fill="rgb(141,141,141)" stroke="none" d="M 17901,15665 L 15450,17082 15450,16829 17901,15412 17901,15665 Z"/>
     <path fill="rgb(142,142,142)" stroke="none" d="M 17901,15665 L 15450,17082 15450,16829 17901,15412 17901,15665 Z"/>
     <path fill="rgb(143,143,143)" stroke="none" d="M 17901,15665 L 15450,17082 15450,16829 17901,15412 17901,15665 Z"/>
     <path fill="rgb(144,144,144)" stroke="none" d="M 17901,15665 L 15450,17082 15450,16829 17901,15412 17901,15665 Z"/>
     <path fill="rgb(145,145,145)" stroke="none" d="M 17901,15665 L 15450,17082 15450,16829 17901,15412 17901,15665 Z"/>
     <path fill="rgb(146,146,146)" stroke="none" d="M 17901,15665 L 15450,17082 15450,16829 17901,15412 17901,15665 Z"/>
     <path fill="rgb(147,147,147)" stroke="none" d="M 17901,15665 L 15450,17082 15450,16829 17901,15412 17901,15665 Z"/>
     <path fill="rgb(148,148,148)" stroke="none" d="M 17901,15665 L 15450,17082 15450,16829 17901,15412 17901,15665 Z"/>
     <path fill="rgb(149,149,149)" stroke="none" d="M 17901,15665 L 15450,17082 15450,16829 17901,15412 17901,15665 Z"/>
     <path fill="rgb(150,150,150)" stroke="none" d="M 17901,15665 L 15450,17082 15450,16829 17901,15412 17901,15665 Z"/>
     <path fill="rgb(151,151,151)" stroke="none" d="M 17901,15665 L 15450,17082 15450,16829 17901,15412 17901,15665 Z"/>
     <path fill="rgb(153,153,153)" stroke="none" d="M 17901,15665 L 15450,17082 15450,16829 17901,15412 17901,15665 Z"/>
     <path fill="none" stroke="rgb(178,178,178)" id="Drawing_45_0" stroke-width="40" stroke-linejoin="round" d="M 17901,15665 L 17901,15412 15450,16829 15450,17082 17901,15665 Z"/>
    </g>
    <g>
     <path fill="none" stroke="rgb(0,0,0)" id="Drawing_46_0" stroke-width="40" stroke-linejoin="round" d="M 16150,12173 L 13699,13590 13699,15817 13786,15867 13786,16120 15450,17082 17901,15665 17901,15412 16238,14450 16238,12224 16150,12173 Z"/>
    </g>
    <g>
     <path fill="rgb(102,102,102)" stroke="none" d="M 16850,15817 L 16412,15564 15799,15918 16237,16171 16850,15817 Z"/>
     <path fill="none" stroke="rgb(178,178,178)" id="Drawing_47_0" stroke-width="40" stroke-linejoin="round" d="M 16850,15817 L 16412,15564 15799,15918 16237,16171 16850,15817 Z"/>
    </g>
    <g>
     <path fill="none" stroke="rgb(178,178,178)" id="Drawing_48_0" stroke-width="40" stroke-linejoin="round" d="M 14749,15968 L 14574,15867"/>
    </g>
    <g>
     <path fill="none" stroke="rgb(178,178,178)" id="Drawing_49_0" stroke-width="40" stroke-linejoin="round" d="M 15012,16019 L 14837,15918"/>
    </g>
   </g>
  </g>
 </g>
</svg>