<?xml version="1.0" encoding="UTF-8"?>

<svg version="1.2" baseProfile="tiny" width="58.76mm" height="45.4mm" viewBox="3110 11941 5876 4540" preserveAspectRatio="xMidYMid" fill-rule="evenodd" stroke-width="28.222" stroke-linejoin="round" xmlns="http://www.w3.org/2000/svg" xmlns:xlink="http://www.w3.org/1999/xlink" xml:space="preserve">
 <g visibility="visible" id="Slide_1">
  <g id="DrawingGroup_1">
   <g>
    <path fill="rgb(221,221,221)" stroke="none" d="M 5709,16351 C 5923,16351 8586,15766 8586,15226 8586,14686 7943,14551 7730,14551 7730,14686 5632,15361 5709,16351 Z"/>
    <path fill="none" stroke="rgb(221,221,221)" id="Drawing_1_0" stroke-width="40" stroke-linejoin="round" d="M 5709,16351 C 5923,16351 8586,15766 8586,15226 8586,14686 7943,14551 7730,14551 7730,14686 5632,15361 5709,16351 Z"/>
   </g>
   <g id="DrawingGroup_2">
    <g>
     <path fill="rgb(179,179,179)" stroke="none" d="M 7709,15163 L 6610,15799 5465,15799 5465,14661 7709,13363 7709,15163 Z"/>
     <path fill="rgb(180,180,180)" stroke="none" d="M 6610,15799 L 5465,16461 5465,15799 6610,15799 Z M 7709,13363 L 7799,13311 7799,15111 7709,15163 7709,13363 Z M 7677,15182 L 6665,15767 5465,15767 5465,14661 7677,13382 7677,15182 Z"/>
     <path fill="rgb(181,181,181)" stroke="none" d="M 6665,15767 L 5465,16461 5465,15767 6665,15767 Z M 7677,13382 L 7799,13311 7799,15111 7677,15182 7677,13382 Z M 7646,15199 L 6718,15736 5465,15736 5465,14661 7646,13399 7646,15199 Z"/>
     <path fill="rgb(182,182,182)" stroke="none" d="M 6718,15736 L 5465,16461 5465,15736 6718,15736 Z M 7646,13399 L 7799,13311 7799,15111 7646,15199 7646,13399 Z M 7614,15218 L 6774,15704 5465,15704 5465,14661 7614,13418 7614,15218 Z"/>
     <path fill="rgb(183,183,183)" stroke="none" d="M 6774,15704 L 5465,16461 5465,15704 6774,15704 Z M 7614,13418 L 7799,13311 7799,15111 7614,15218 7614,13418 Z M 7583,15236 L 6827,15673 5465,15673 5465,14661 7583,13436 7583,15236 Z"/>
     <path fill="rgb(184,184,184)" stroke="none" d="M 6827,15673 L 5465,16461 5465,15673 6827,15673 Z M 7583,13436 L 7799,13311 7799,15111 7583,15236 7583,13436 Z M 7551,15254 L 6883,15641 5465,15641 5465,14661 7551,13454 7551,15254 Z"/>
     <path fill="rgb(185,185,185)" stroke="none" d="M 6883,15641 L 5465,16461 5465,15641 6883,15641 Z M 7551,13454 L 7799,13311 7799,15111 7551,15254 7551,13454 Z M 7520,15272 L 6936,15610 5465,15610 5465,14661 7520,13472 7520,15272 Z"/>
     <path fill="rgb(186,186,186)" stroke="none" d="M 6936,15610 L 5465,16461 5465,15610 6936,15610 Z M 7520,13472 L 7799,13311 7799,15111 7520,15272 7520,13472 Z M 7488,15291 L 6992,15578 5465,15578 5465,14661 7488,13491 7488,15291 Z"/>
     <path fill="rgb(187,187,187)" stroke="none" d="M 6992,15578 L 5465,16461 5465,15578 6992,15578 Z M 7488,13491 L 7799,13311 7799,15111 7488,15291 7488,13491 Z M 7457,15309 L 7045,15547 5465,15547 5465,14661 7457,13509 7457,15309 Z"/>
     <path fill="rgb(188,188,188)" stroke="none" d="M 7045,15547 L 5465,16461 5465,15547 7045,15547 Z M 7457,13509 L 7799,13311 7799,15111 7457,15309 7457,13509 Z M 7425,15327 L 7101,15515 5465,15515 5465,14661 7425,13527 7425,15327 Z"/>
     <path fill="rgb(189,189,189)" stroke="none" d="M 7101,15515 L 5465,16461 5465,15515 7101,15515 Z M 7425,13527 L 7799,13311 7799,15111 7425,15327 7425,13527 Z M 7394,15345 L 7154,15484 5465,15484 5465,14661 7394,13545 7394,15345 Z"/>
     <path fill="rgb(190,190,190)" stroke="none" d="M 7154,15484 L 5465,16461 5465,15484 7154,15484 Z M 7394,13545 L 7799,13311 7799,15111 7394,15345 7394,13545 Z M 7362,15364 L 7209,15452 5465,15452 5465,14661 7362,13564 7362,15364 Z"/>
     <path fill="rgb(191,191,191)" stroke="none" d="M 7209,15452 L 5465,16461 5465,15452 7209,15452 Z M 7362,13564 L 7799,13311 7799,15111 7362,15364 7362,13564 Z M 7331,15382 L 7263,15421 5465,15421 5465,14661 7331,13582 7331,15382 Z"/>
     <path fill="rgb(192,192,192)" stroke="none" d="M 7263,15421 L 5465,16461 5465,15421 7263,15421 Z M 7331,13582 L 7799,13311 7799,15111 7331,15382 7331,13582 Z M 7299,15389 L 5465,15389 5465,14661 7299,13600 7299,15389 Z"/>
     <path fill="rgb(193,193,193)" stroke="none" d="M 7299,15389 L 7299,13600 7799,13311 7799,15111 5465,16461 5465,15389 7299,15389 Z M 7268,15358 L 5465,15358 5465,14661 7268,13618 7268,15358 Z"/>
     <path fill="rgb(194,194,194)" stroke="none" d="M 7268,15358 L 7268,13618 7799,13311 7799,15111 5465,16461 5465,15358 7268,15358 Z M 7236,15326 L 5465,15326 5465,14661 7236,13637 7236,15326 Z"/>
     <path fill="rgb(195,195,195)" stroke="none" d="M 7236,15326 L 7236,13637 7799,13311 7799,15111 5465,16461 5465,15326 7236,15326 Z M 7204,15294 L 5465,15294 5465,14661 7204,13655 7204,15294 Z"/>
     <path fill="rgb(196,196,196)" stroke="none" d="M 7204,15294 L 7204,13655 7799,13311 7799,15111 5465,16461 5465,15294 7204,15294 Z M 7173,15263 L 5465,15263 5465,14661 7173,13673 7173,15263 Z"/>
     <path fill="rgb(197,197,197)" stroke="none" d="M 7173,15263 L 7173,13673 7799,13311 7799,15111 5465,16461 5465,15263 7173,15263 Z M 7141,15231 L 5465,15231 5465,14661 7141,13692 7141,15231 Z"/>
     <path fill="rgb(198,198,198)" stroke="none" d="M 7141,15231 L 7141,13692 7799,13311 7799,15111 5465,16461 5465,15231 7141,15231 Z M 7110,15200 L 5465,15200 5465,14661 7110,13710 7110,15200 Z"/>
     <path fill="rgb(199,199,199)" stroke="none" d="M 7110,15200 L 7110,13710 7799,13311 7799,15111 5465,16461 5465,15200 7110,15200 Z M 7078,15168 L 5465,15168 5465,14661 7078,13728 7078,15168 Z"/>
     <path fill="rgb(200,200,200)" stroke="none" d="M 7078,15168 L 7078,13728 7799,13311 7799,15111 5465,16461 5465,15168 7078,15168 Z M 7047,15137 L 5465,15137 5465,14661 7047,13746 7047,15137 Z"/>
     <path fill="rgb(201,201,201)" stroke="none" d="M 7047,15137 L 7047,13746 7799,13311 7799,15111 5465,16461 5465,15137 7047,15137 Z M 7015,15105 L 5465,15105 5465,14661 7015,13764 7015,15105 Z"/>
     <path fill="rgb(202,202,202)" stroke="none" d="M 7015,15105 L 7015,13764 7799,13311 7799,15111 5465,16461 5465,15105 7015,15105 Z M 6984,15074 L 5465,15074 5465,14661 6984,13782 6984,15074 Z"/>
     <path fill="rgb(203,203,203)" stroke="none" d="M 6984,15074 L 6984,13782 7799,13311 7799,15111 5465,16461 5465,15074 6984,15074 Z M 6952,15042 L 5465,15042 5465,14661 6952,13801 6952,15042 Z"/>
     <path fill="rgb(204,204,204)" stroke="none" d="M 6952,15042 L 6952,13801 7799,13311 7799,15111 5465,16461 5465,15042 6952,15042 Z M 6921,15011 L 5465,15011 5465,14661 6921,13819 6921,15011 Z"/>
     <path fill="rgb(205,205,205)" stroke="none" d="M 6921,15011 L 6921,13819 7799,13311 7799,15111 5465,16461 5465,15011 6921,15011 Z M 6889,14979 L 5465,14979 5465,14661 6889,13837 6889,14979 Z"/>
     <path fill="rgb(206,206,206)" stroke="none" d="M 6889,14979 L 6889,13837 7799,13311 7799,15111 5465,16461 5465,14979 6889,14979 Z M 6858,14948 L 5471,14948 5471,14658 6858,13855 6858,14948 Z"/>
     <path fill="rgb(207,207,207)" stroke="none" d="M 5471,14948 L 6858,14948 6858,13855 7799,13311 7799,15111 5465,16461 5465,14661 5471,14658 5471,14948 Z M 6826,14916 L 5503,14916 5503,14639 6826,13874 6826,14916 Z"/>
     <path fill="rgb(208,208,208)" stroke="none" d="M 5503,14916 L 6826,14916 6826,13874 7799,13311 7799,15111 5465,16461 5465,14661 5503,14639 5503,14916 Z M 6795,14885 L 5534,14885 5534,14621 6795,13892 6795,14885 Z"/>
     <path fill="rgb(209,209,209)" stroke="none" d="M 5534,14885 L 6795,14885 6795,13892 7799,13311 7799,15111 5465,16461 5465,14661 5534,14621 5534,14885 Z M 6763,14853 L 5566,14853 5566,14603 6763,13910 6763,14853 Z"/>
     <path fill="rgb(210,210,210)" stroke="none" d="M 5566,14853 L 6763,14853 6763,13910 7799,13311 7799,15111 5465,16461 5465,14661 5566,14603 5566,14853 Z M 6732,14822 L 5597,14822 5597,14585 6732,13928 6732,14822 Z"/>
     <path fill="rgb(211,211,211)" stroke="none" d="M 5597,14822 L 6732,14822 6732,13928 7799,13311 7799,15111 5465,16461 5465,14661 5597,14585 5597,14822 Z M 6700,14790 L 5629,14790 5629,14566 6700,13947 6700,14790 Z"/>
     <path fill="rgb(212,212,212)" stroke="none" d="M 5629,14790 L 6700,14790 6700,13947 7799,13311 7799,15111 5465,16461 5465,14661 5629,14566 5629,14790 Z M 6668,14758 L 5661,14758 5661,14548 6668,13965 6668,14758 Z"/>
     <path fill="rgb(213,213,213)" stroke="none" d="M 5661,14758 L 6668,14758 6668,13965 7799,13311 7799,15111 5465,16461 5465,14661 5661,14548 5661,14758 Z M 6637,14727 L 5692,14727 5692,14530 6637,13983 6637,14727 Z"/>
     <path fill="rgb(214,214,214)" stroke="none" d="M 5692,14727 L 6637,14727 6637,13983 7799,13311 7799,15111 5465,16461 5465,14661 5692,14530 5692,14727 Z M 6605,14695 L 5724,14695 5724,14511 6605,14002 6605,14695 Z"/>
     <path fill="rgb(215,215,215)" stroke="none" d="M 5724,14695 L 6605,14695 6605,14002 7799,13311 7799,15111 5465,16461 5465,14661 5724,14511 5724,14695 Z M 6574,14664 L 5755,14664 5755,14493 6574,14020 6574,14664 Z"/>
     <path fill="rgb(216,216,216)" stroke="none" d="M 5755,14664 L 6574,14664 6574,14020 7799,13311 7799,15111 5465,16461 5465,14661 5755,14493 5755,14664 Z M 6542,14632 L 5787,14632 5787,14475 6542,14038 6542,14632 Z"/>
     <path fill="rgb(217,217,217)" stroke="none" d="M 5787,14632 L 6542,14632 6542,14038 7799,13311 7799,15111 5465,16461 5465,14661 5787,14475 5787,14632 Z M 6511,14601 L 5818,14601 5818,14457 6511,14056 6511,14601 Z"/>
     <path fill="rgb(218,218,218)" stroke="none" d="M 5818,14601 L 6511,14601 6511,14056 7799,13311 7799,15111 5465,16461 5465,14661 5818,14457 5818,14601 Z M 6479,14569 L 5850,14569 5850,14438 6479,14074 6479,14569 Z"/>
     <path fill="rgb(219,219,219)" stroke="none" d="M 5850,14569 L 6479,14569 6479,14074 7799,13311 7799,15111 5465,16461 5465,14661 5850,14438 5850,14569 Z M 6448,14538 L 5881,14538 5881,14420 6448,14092 6448,14538 Z"/>
     <path fill="rgb(220,220,220)" stroke="none" d="M 5881,14538 L 6448,14538 6448,14092 7799,13311 7799,15111 5465,16461 5465,14661 5881,14420 5881,14538 Z M 6416,14506 L 5913,14506 5913,14402 6416,14111 6416,14506 Z"/>
     <path fill="rgb(221,221,221)" stroke="none" d="M 5913,14506 L 6416,14506 6416,14111 7799,13311 7799,15111 5465,16461 5465,14661 5913,14402 5913,14506 Z M 6385,14475 L 5944,14475 5944,14384 6385,14129 6385,14475 Z"/>
     <path fill="rgb(222,222,222)" stroke="none" d="M 5944,14475 L 6385,14475 6385,14129 7799,13311 7799,15111 5465,16461 5465,14661 5944,14384 5944,14475 Z M 6353,14443 L 5976,14443 5976,14365 6353,14147 6353,14443 Z"/>
     <path fill="rgb(223,223,223)" stroke="none" d="M 5976,14443 L 6353,14443 6353,14147 7799,13311 7799,15111 5465,16461 5465,14661 5976,14365 5976,14443 Z M 6322,14412 L 6007,14412 6007,14348 6322,14165 6322,14412 Z"/>
     <path fill="rgb(224,224,224)" stroke="none" d="M 6007,14412 L 6322,14412 6322,14165 7799,13311 7799,15111 5465,16461 5465,14661 6007,14348 6007,14412 Z M 6290,14380 L 6039,14380 6039,14329 6290,14184 6290,14380 Z"/>
     <path fill="rgb(225,225,225)" stroke="none" d="M 6039,14380 L 6290,14380 6290,14184 7799,13311 7799,15111 5465,16461 5465,14661 6039,14329 6039,14380 Z M 6259,14349 L 6070,14349 6070,14311 6259,14202 6259,14349 Z"/>
     <path fill="rgb(226,226,226)" stroke="none" d="M 6070,14349 L 6259,14349 6259,14202 7799,13311 7799,15111 5465,16461 5465,14661 6070,14311 6070,14349 Z M 6227,14317 L 6102,14317 6102,14293 6227,14220 6227,14317 Z"/>
     <path fill="rgb(227,227,227)" stroke="none" d="M 6102,14317 L 6227,14317 6227,14220 7799,13311 7799,15111 5465,16461 5465,14661 6102,14293 6102,14317 Z M 6196,14286 L 6133,14286 6133,14275 6196,14238 6196,14286 Z"/>
     <path fill="rgb(229,229,229)" stroke="none" d="M 6133,14286 L 6196,14286 6196,14238 7799,13311 7799,15111 5465,16461 5465,14661 6133,14275 6133,14286 Z"/>
     <path fill="none" stroke="rgb(255,255,255)" id="Drawing_2_0" stroke-width="40" stroke-linejoin="round" d="M 7799,15111 L 7799,13311 5465,14661 5465,16461 7799,15111 Z"/>
    </g>
    <g>
     <defs>
      <linearGradient id="Gradient_280" gradientUnits="userSpaceOnUse" x1="3127" y1="14884" x2="5467" y2="14888">
       <stop offset="0.1" stop-color="rgb(179,179,179)"/>
       <stop offset="1" stop-color="rgb(229,229,229)"/>
      </linearGradient>
     </defs>
     <path fill="url(#Gradient_280)" stroke="rgb(255,255,255)" id="Drawing_3_0" stroke-width="40" stroke-linejoin="round" d="M 5464,16461 L 5464,14661 3130,13311 3130,15111 5464,16461 Z"/>
    </g>
    <g>
     <defs>
      <linearGradient id="Gradient_281" gradientUnits="userSpaceOnUse" x1="5464" y1="11961" x2="5464" y2="14661">
       <stop offset="0.1" stop-color="rgb(179,179,179)"/>
       <stop offset="1" stop-color="rgb(229,229,229)"/>
      </linearGradient>
     </defs>
     <path fill="url(#Gradient_281)" stroke="rgb(255,255,255)" id="Drawing_4_0" stroke-width="40" stroke-linejoin="round" d="M 5464,14661 L 7798,13311 5464,11961 3130,13311 5464,14661 Z"/>
    </g>
    <g>
     <path fill="rgb(57,181,74)" stroke="none" d="M 7651,13751 L 7651,13571 7495,13661 7495,13841 7651,13751 Z"/>
     <path fill="none" stroke="rgb(0,0,0)" id="Drawing_5_0" stroke-width="40" stroke-linejoin="round" d="M 7651,13751 L 7651,13571 7495,13661 7495,13841 7651,13751 Z"/>
    </g>
    <g>
     <defs>
      <linearGradient id="Gradient_282" gradientUnits="userSpaceOnUse" x1="5464" y1="12860" x2="7022" y2="12862">
       <stop offset="0.1" stop-color="rgb(179,179,179)"/>
       <stop offset="1" stop-color="rgb(229,229,229)"/>
      </linearGradient>
     </defs>
     <path fill="url(#Gradient_282)" stroke="rgb(127,127,127)" id="Drawing_6_0" stroke-width="40" stroke-linejoin="round" d="M 7021,13311 L 5465,12411 5465,12771 7021,13311 Z"/>
    </g>
    <g>
     <path fill="rgb(179,179,179)" stroke="none" d="M 5138,12960 L 4219,13491 3909,13311 5138,12600 5138,12960 Z"/>
     <path fill="rgb(180,180,180)" stroke="none" d="M 5138,12600 L 5465,12411 5465,12771 5138,12960 5138,12600 Z M 5122,12969 L 4236,13481 4202,13481 3909,13311 5122,12609 5122,12969 Z"/>
     <path fill="rgb(181,181,181)" stroke="none" d="M 4236,13481 L 4219,13491 4202,13481 4236,13481 Z M 5122,12609 L 5465,12411 5465,12771 5122,12969 5122,12609 Z M 5107,12978 L 4262,13466 4176,13466 3909,13311 5107,12618 5107,12978 Z"/>
     <path fill="rgb(182,182,182)" stroke="none" d="M 4262,13466 L 4219,13491 4176,13466 4262,13466 Z M 5107,12618 L 5465,12411 5465,12771 5107,12978 5107,12618 Z M 5091,12987 L 4290,13450 4148,13450 3909,13311 5091,12627 5091,12987 Z"/>
     <path fill="rgb(183,183,183)" stroke="none" d="M 4290,13450 L 4219,13491 4148,13450 4290,13450 Z M 5091,12627 L 5465,12411 5465,12771 5091,12987 5091,12627 Z M 5076,12996 L 4316,13435 4123,13435 3909,13311 5076,12636 5076,12996 Z"/>
     <path fill="rgb(184,184,184)" stroke="none" d="M 4316,13435 L 4219,13491 4123,13435 4316,13435 Z M 5076,12636 L 5465,12411 5465,12771 5076,12996 5076,12636 Z M 5060,13005 L 4344,13419 4095,13419 3909,13311 5060,12645 5060,13005 Z"/>
     <path fill="rgb(185,185,185)" stroke="none" d="M 4344,13419 L 4219,13491 4095,13419 4344,13419 Z M 5060,12645 L 5465,12411 5465,12771 5060,13005 5060,12645 Z M 5044,13014 L 4371,13403 4067,13403 3909,13311 5044,12655 5044,13014 Z"/>
     <path fill="rgb(186,186,186)" stroke="none" d="M 4371,13403 L 4219,13491 4067,13403 4371,13403 Z M 5044,12655 L 5465,12411 5465,12771 5044,13014 5044,12655 Z M 5029,13023 L 4397,13388 4042,13388 3909,13311 5029,12663 5029,13023 Z"/>
     <path fill="rgb(187,187,187)" stroke="none" d="M 4397,13388 L 4219,13491 4042,13388 4397,13388 Z M 5029,12663 L 5465,12411 5465,12771 5029,13023 5029,12663 Z M 5013,13032 L 4425,13372 4014,13372 3909,13311 5013,12672 5013,13032 Z"/>
     <path fill="rgb(188,188,188)" stroke="none" d="M 4425,13372 L 4219,13491 4014,13372 4425,13372 Z M 5013,12672 L 5465,12411 5465,12771 5013,13032 5013,12672 Z M 4998,13041 L 4451,13357 3988,13357 3909,13311 4998,12681 4998,13041 Z"/>
     <path fill="rgb(189,189,189)" stroke="none" d="M 4451,13357 L 4219,13491 3988,13357 4451,13357 Z M 4998,12681 L 5465,12411 5465,12771 4998,13041 4998,12681 Z M 4982,13050 L 4479,13341 3961,13341 3909,13311 4982,12690 4982,13050 Z"/>
     <path fill="rgb(190,190,190)" stroke="none" d="M 4479,13341 L 4219,13491 3961,13341 4479,13341 Z M 4982,12690 L 5465,12411 5465,12771 4982,13050 4982,12690 Z M 4966,13059 L 4506,13325 3933,13325 3909,13311 4966,12700 4966,13059 Z"/>
     <path fill="rgb(191,191,191)" stroke="none" d="M 4506,13325 L 4219,13491 3933,13325 4506,13325 Z M 4966,12700 L 5465,12411 5465,12771 4966,13059 4966,12700 Z M 4951,13068 L 4532,13310 3911,13310 4951,12708 4951,13068 Z"/>
     <path fill="rgb(192,192,192)" stroke="none" d="M 4532,13310 L 4219,13491 3909,13311 3911,13310 4532,13310 Z M 4951,12708 L 5465,12411 5465,12771 4951,13068 4951,12708 Z M 4935,13077 L 4560,13294 3938,13294 4935,12718 4935,13077 Z"/>
     <path fill="rgb(193,193,193)" stroke="none" d="M 4560,13294 L 4219,13491 3909,13311 3938,13294 4560,13294 Z M 4935,12718 L 5465,12411 5465,12771 4935,13077 4935,12718 Z M 4920,13086 L 4586,13279 3964,13279 4920,12726 4920,13086 Z"/>
     <path fill="rgb(194,194,194)" stroke="none" d="M 4586,13279 L 4219,13491 3909,13311 3964,13279 4586,13279 Z M 4920,12726 L 5465,12411 5465,12771 4920,13086 4920,12726 Z M 4904,13095 L 4614,13263 3992,13263 4904,12735 4904,13095 Z"/>
     <path fill="rgb(195,195,195)" stroke="none" d="M 4614,13263 L 4219,13491 3909,13311 3992,13263 4614,13263 Z M 4904,12735 L 5465,12411 5465,12771 4904,13095 4904,12735 Z M 4888,13104 L 4641,13247 4020,13247 4888,12745 4888,13104 Z"/>
     <path fill="rgb(196,196,196)" stroke="none" d="M 4641,13247 L 4219,13491 3909,13311 4020,13247 4641,13247 Z M 4888,12745 L 5465,12411 5465,12771 4888,13104 4888,12745 Z M 4873,13113 L 4667,13232 4046,13232 4873,12753 4873,13113 Z"/>
     <path fill="rgb(197,197,197)" stroke="none" d="M 4667,13232 L 4219,13491 3909,13311 4046,13232 4667,13232 Z M 4873,12753 L 5465,12411 5465,12771 4873,13113 4873,12753 Z M 4857,13122 L 4695,13216 4073,13216 4857,12763 4857,13122 Z"/>
     <path fill="rgb(198,198,198)" stroke="none" d="M 4695,13216 L 4219,13491 3909,13311 4073,13216 4695,13216 Z M 4857,12763 L 5465,12411 5465,12771 4857,13122 4857,12763 Z M 4842,13131 L 4721,13201 4099,13201 4842,12771 4842,13131 Z"/>
     <path fill="rgb(199,199,199)" stroke="none" d="M 4721,13201 L 4219,13491 3909,13311 4099,13201 4721,13201 Z M 4842,12771 L 5465,12411 5465,12771 4842,13131 4842,12771 Z M 4826,13140 L 4749,13185 4127,13185 4826,12781 4826,13140 Z"/>
     <path fill="rgb(200,200,200)" stroke="none" d="M 4749,13185 L 4219,13491 3909,13311 4127,13185 4749,13185 Z M 4826,12781 L 5465,12411 5465,12771 4826,13140 4826,12781 Z M 4811,13149 L 4775,13170 4153,13170 4811,12789 4811,13149 Z"/>
     <path fill="rgb(201,201,201)" stroke="none" d="M 4775,13170 L 4219,13491 3909,13311 4153,13170 4775,13170 Z M 4811,12789 L 5465,12411 5465,12771 4811,13149 4811,12789 Z M 4795,13154 L 4180,13154 4795,12799 4795,13154 Z"/>
     <path fill="rgb(202,202,202)" stroke="none" d="M 4795,13154 L 4795,12799 5465,12411 5465,12771 4219,13491 3909,13311 4180,13154 4795,13154 Z M 4779,13138 L 4208,13138 4779,12808 4779,13138 Z"/>
     <path fill="rgb(203,203,203)" stroke="none" d="M 4779,13138 L 4779,12808 5465,12411 5465,12771 4219,13491 3909,13311 4208,13138 4779,13138 Z M 4764,13123 L 4234,13123 4764,12816 4764,13123 Z"/>
     <path fill="rgb(204,204,204)" stroke="none" d="M 4764,13123 L 4764,12816 5465,12411 5465,12771 4219,13491 3909,13311 4234,13123 4764,13123 Z M 4748,13107 L 4262,13107 4748,12826 4748,13107 Z"/>
     <path fill="rgb(205,205,205)" stroke="none" d="M 4748,13107 L 4748,12826 5465,12411 5465,12771 4219,13491 3909,13311 4262,13107 4748,13107 Z M 4733,13092 L 4288,13092 4733,12834 4733,13092 Z"/>
     <path fill="rgb(206,206,206)" stroke="none" d="M 4733,13092 L 4733,12834 5465,12411 5465,12771 4219,13491 3909,13311 4288,13092 4733,13092 Z M 4717,13076 L 4315,13076 4717,12844 4717,13076 Z"/>
     <path fill="rgb(207,207,207)" stroke="none" d="M 4717,13076 L 4717,12844 5465,12411 5465,12771 4219,13491 3909,13311 4315,13076 4717,13076 Z M 4701,13060 L 4343,13060 4701,12853 4701,13060 Z"/>
     <path fill="rgb(208,208,208)" stroke="none" d="M 4701,13060 L 4701,12853 5465,12411 5465,12771 4219,13491 3909,13311 4343,13060 4701,13060 Z M 4686,13045 L 4369,13045 4686,12862 4686,13045 Z"/>
     <path fill="rgb(209,209,209)" stroke="none" d="M 4686,13045 L 4686,12862 5465,12411 5465,12771 4219,13491 3909,13311 4369,13045 4686,13045 Z M 4670,13029 L 4397,13029 4670,12871 4670,13029 Z"/>
     <path fill="rgb(210,210,210)" stroke="none" d="M 4670,13029 L 4670,12871 5465,12411 5465,12771 4219,13491 3909,13311 4397,13029 4670,13029 Z M 4655,13014 L 4422,13014 4655,12880 4655,13014 Z"/>
     <path fill="rgb(211,211,211)" stroke="none" d="M 4655,13014 L 4655,12880 5465,12411 5465,12771 4219,13491 3909,13311 4422,13014 4655,13014 Z M 4639,12998 L 4450,12998 4639,12889 4639,12998 Z"/>
     <path fill="rgb(212,212,212)" stroke="none" d="M 4639,12998 L 4639,12889 5465,12411 5465,12771 4219,13491 3909,13311 4450,12998 4639,12998 Z M 4623,12982 L 4478,12982 4623,12898 4623,12982 Z"/>
     <path fill="rgb(213,213,213)" stroke="none" d="M 4623,12982 L 4623,12898 5465,12411 5465,12771 4219,13491 3909,13311 4478,12982 4623,12982 Z M 4608,12967 L 4504,12967 4608,12907 4608,12967 Z"/>
     <path fill="rgb(214,214,214)" stroke="none" d="M 4608,12967 L 4608,12907 5465,12411 5465,12771 4219,13491 3909,13311 4504,12967 4608,12967 Z M 4592,12951 L 4531,12951 4592,12916 4592,12951 Z"/>
     <path fill="rgb(215,215,215)" stroke="none" d="M 4592,12951 L 4592,12916 5465,12411 5465,12771 4219,13491 3909,13311 4531,12951 4592,12951 Z M 4577,12936 L 4557,12936 4577,12925 4577,12936 Z"/>
     <path fill="rgb(216,216,216)" stroke="none" d="M 4577,12936 L 4577,12925 5465,12411 5465,12771 4219,13491 3909,13311 4557,12936 4577,12936 Z"/>
     <path fill="rgb(217,217,217)" stroke="none" d="M 5465,12771 L 4219,13491 3909,13311 5465,12411 5465,12771 Z"/>
     <path fill="rgb(218,218,218)" stroke="none" d="M 5465,12771 L 4219,13491 3909,13311 5465,12411 5465,12771 Z"/>
     <path fill="rgb(219,219,219)" stroke="none" d="M 5465,12771 L 4219,13491 3909,13311 5465,12411 5465,12771 Z"/>
     <path fill="rgb(220,220,220)" stroke="none" d="M 5465,12771 L 4219,13491 3909,13311 5465,12411 5465,12771 Z"/>
     <path fill="rgb(221,221,221)" stroke="none" d="M 5465,12771 L 4219,13491 3909,13311 5465,12411 5465,12771 Z"/>
     <path fill="rgb(222,222,222)" stroke="none" d="M 5465,12771 L 4219,13491 3909,13311 5465,12411 5465,12771 Z"/>
     <path fill="rgb(223,223,223)" stroke="none" d="M 5465,12771 L 4219,13491 3909,13311 5465,12411 5465,12771 Z"/>
     <path fill="rgb(224,224,224)" stroke="none" d="M 5465,12771 L 4219,13491 3909,13311 5465,12411 5465,12771 Z"/>
     <path fill="rgb(225,225,225)" stroke="none" d="M 5465,12771 L 4219,13491 3909,13311 5465,12411 5465,12771 Z"/>
     <path fill="rgb(226,226,226)" stroke="none" d="M 5465,12771 L 4219,13491 3909,13311 5465,12411 5465,12771 Z"/>
     <path fill="rgb(227,227,227)" stroke="none" d="M 5465,12771 L 4219,13491 3909,13311 5465,12411 5465,12771 Z"/>
     <path fill="rgb(229,229,229)" stroke="none" d="M 5465,12771 L 4219,13491 3909,13311 5465,12411 5465,12771 Z"/>
     <path fill="none" stroke="rgb(127,127,127)" id="Drawing_7_0" stroke-width="40" stroke-linejoin="round" d="M 5465,12771 L 5465,12411 3909,13311 4219,13491 5465,12771 Z"/>
    </g>
    <g>
     <path fill="none" stroke="rgb(0,0,0)" id="Drawing_8_0" stroke-width="40" stroke-linejoin="round" d="M 4064,13401 L 5309,12681"/>
    </g>
    <g>
     <defs>
      <linearGradient id="Gradient_283" gradientUnits="userSpaceOnUse" x1="5853" y1="15537" x2="7411" y2="15539">
       <stop offset="0.1" stop-color="rgb(179,179,179)"/>
       <stop offset="1" stop-color="rgb(229,229,229)"/>
      </linearGradient>
     </defs>
     <path fill="url(#Gradient_283)" stroke="rgb(255,255,255)" id="Drawing_9_0" stroke-width="40" stroke-linejoin="round" d="M 7410,15741 L 5854,15111 5854,15471 7410,15966 7410,15741 Z"/>
    </g>
    <g>
     <path fill="none" stroke="rgb(255,255,255)" id="Drawing_10_0" stroke-width="40" stroke-linejoin="round" d="M 7021,13311 L 5465,12411 3908,13311 5465,14211 7021,13311 Z"/>
    </g>
    <g>
     <path fill="rgb(179,179,179)" stroke="none" d="M 8639,15255 L 7453,15941 7410,15941 7410,15741 8639,15030 8639,15255 Z"/>
     <path fill="rgb(180,180,180)" stroke="none" d="M 7453,15941 L 7410,15966 7410,15941 7453,15941 Z M 8639,15030 L 8966,14841 8966,15066 8639,15255 8639,15030 Z M 8623,15264 L 7481,15925 7410,15925 7410,15741 8623,15039 8623,15264 Z"/>
     <path fill="rgb(181,181,181)" stroke="none" d="M 7481,15925 L 7410,15966 7410,15925 7481,15925 Z M 8623,15039 L 8966,14841 8966,15066 8623,15264 8623,15039 Z M 8608,15273 L 7507,15910 7410,15910 7410,15741 8608,15048 8608,15273 Z"/>
     <path fill="rgb(182,182,182)" stroke="none" d="M 7507,15910 L 7410,15966 7410,15910 7507,15910 Z M 8608,15048 L 8966,14841 8966,15066 8608,15273 8608,15048 Z M 8592,15282 L 7534,15894 7410,15894 7410,15741 8592,15057 8592,15282 Z"/>
     <path fill="rgb(183,183,183)" stroke="none" d="M 7534,15894 L 7410,15966 7410,15894 7534,15894 Z M 8592,15057 L 8966,14841 8966,15066 8592,15282 8592,15057 Z M 8577,15291 L 7560,15879 7410,15879 7410,15741 8577,15066 8577,15291 Z"/>
     <path fill="rgb(184,184,184)" stroke="none" d="M 7560,15879 L 7410,15966 7410,15879 7560,15879 Z M 8577,15066 L 8966,14841 8966,15066 8577,15291 8577,15066 Z M 8561,15300 L 7588,15863 7410,15863 7410,15741 8561,15075 8561,15300 Z"/>
     <path fill="rgb(185,185,185)" stroke="none" d="M 7588,15863 L 7410,15966 7410,15863 7588,15863 Z M 8561,15075 L 8966,14841 8966,15066 8561,15300 8561,15075 Z M 8545,15310 L 7616,15847 7410,15847 7410,15741 8545,15085 8545,15310 Z"/>
     <path fill="rgb(186,186,186)" stroke="none" d="M 7616,15847 L 7410,15966 7410,15847 7616,15847 Z M 8545,15085 L 8966,14841 8966,15066 8545,15310 8545,15085 Z M 8530,15318 L 7642,15832 7410,15832 7410,15741 8530,15093 8530,15318 Z"/>
     <path fill="rgb(187,187,187)" stroke="none" d="M 7642,15832 L 7410,15966 7410,15832 7642,15832 Z M 8530,15093 L 8966,14841 8966,15066 8530,15318 8530,15093 Z M 8514,15327 L 7669,15816 7410,15816 7410,15741 8514,15102 8514,15327 Z"/>
     <path fill="rgb(188,188,188)" stroke="none" d="M 7669,15816 L 7410,15966 7410,15816 7669,15816 Z M 8514,15102 L 8966,14841 8966,15066 8514,15327 8514,15102 Z M 8499,15336 L 7695,15801 7410,15801 7410,15741 8499,15111 8499,15336 Z"/>
     <path fill="rgb(189,189,189)" stroke="none" d="M 7695,15801 L 7410,15966 7410,15801 7695,15801 Z M 8499,15111 L 8966,14841 8966,15066 8499,15336 8499,15111 Z M 8483,15345 L 7723,15785 7410,15785 7410,15741 8483,15120 8483,15345 Z"/>
     <path fill="rgb(190,190,190)" stroke="none" d="M 7723,15785 L 7410,15966 7410,15785 7723,15785 Z M 8483,15120 L 8966,14841 8966,15066 8483,15345 8483,15120 Z M 8467,15355 L 7751,15769 7410,15769 7410,15741 8467,15130 8467,15355 Z"/>
     <path fill="rgb(191,191,191)" stroke="none" d="M 7751,15769 L 7410,15966 7410,15769 7751,15769 Z M 8467,15130 L 8966,14841 8966,15066 8467,15355 8467,15130 Z M 8452,15363 L 7777,15754 7410,15754 7410,15741 8452,15138 8452,15363 Z"/>
     <path fill="rgb(192,192,192)" stroke="none" d="M 7777,15754 L 7410,15966 7410,15754 7777,15754 Z M 8452,15138 L 8966,14841 8966,15066 8452,15363 8452,15138 Z M 8436,15373 L 7804,15738 7415,15738 8436,15148 8436,15373 Z"/>
     <path fill="rgb(193,193,193)" stroke="none" d="M 7804,15738 L 7410,15966 7410,15741 7415,15738 7804,15738 Z M 8436,15148 L 8966,14841 8966,15066 8436,15373 8436,15148 Z M 8421,15381 L 7830,15723 7441,15723 8421,15156 8421,15381 Z"/>
     <path fill="rgb(194,194,194)" stroke="none" d="M 7830,15723 L 7410,15966 7410,15741 7441,15723 7830,15723 Z M 8421,15156 L 8966,14841 8966,15066 8421,15381 8421,15156 Z M 8405,15390 L 7858,15707 7469,15707 8405,15165 8405,15390 Z"/>
     <path fill="rgb(195,195,195)" stroke="none" d="M 7858,15707 L 7410,15966 7410,15741 7469,15707 7858,15707 Z M 8405,15165 L 8966,14841 8966,15066 8405,15390 8405,15165 Z M 8389,15400 L 7885,15691 7496,15691 8389,15175 8389,15400 Z"/>
     <path fill="rgb(196,196,196)" stroke="none" d="M 7885,15691 L 7410,15966 7410,15741 7496,15691 7885,15691 Z M 8389,15175 L 8966,14841 8966,15066 8389,15400 8389,15175 Z M 8374,15408 L 7911,15676 7522,15676 8374,15183 8374,15408 Z"/>
     <path fill="rgb(197,197,197)" stroke="none" d="M 7911,15676 L 7410,15966 7410,15741 7522,15676 7911,15676 Z M 8374,15183 L 8966,14841 8966,15066 8374,15408 8374,15183 Z M 8358,15418 L 7939,15660 7550,15660 8358,15193 8358,15418 Z"/>
     <path fill="rgb(198,198,198)" stroke="none" d="M 7939,15660 L 7410,15966 7410,15741 7550,15660 7939,15660 Z M 8358,15193 L 8966,14841 8966,15066 8358,15418 8358,15193 Z M 8343,15426 L 7965,15645 7576,15645 8343,15201 8343,15426 Z"/>
     <path fill="rgb(199,199,199)" stroke="none" d="M 7965,15645 L 7410,15966 7410,15741 7576,15645 7965,15645 Z M 8343,15201 L 8966,14841 8966,15066 8343,15426 8343,15201 Z M 8327,15436 L 7993,15629 7604,15629 8327,15211 8327,15436 Z"/>
     <path fill="rgb(200,200,200)" stroke="none" d="M 7993,15629 L 7410,15966 7410,15741 7604,15629 7993,15629 Z M 8327,15211 L 8966,14841 8966,15066 8327,15436 8327,15211 Z M 8312,15444 L 8019,15614 7630,15614 8312,15219 8312,15444 Z"/>
     <path fill="rgb(201,201,201)" stroke="none" d="M 8019,15614 L 7410,15966 7410,15741 7630,15614 8019,15614 Z M 8312,15219 L 8966,14841 8966,15066 8312,15444 8312,15219 Z M 8296,15454 L 8046,15598 7657,15598 8296,15229 8296,15454 Z"/>
     <path fill="rgb(202,202,202)" stroke="none" d="M 8046,15598 L 7410,15966 7410,15741 7657,15598 8046,15598 Z M 8296,15229 L 8966,14841 8966,15066 8296,15454 8296,15229 Z M 8280,15463 L 8074,15582 7685,15582 8280,15238 8280,15463 Z"/>
     <path fill="rgb(203,203,203)" stroke="none" d="M 8074,15582 L 7410,15966 7410,15741 7685,15582 8074,15582 Z M 8280,15238 L 8966,14841 8966,15066 8280,15463 8280,15238 Z M 8265,15471 L 8100,15567 7711,15567 8265,15246 8265,15471 Z"/>
     <path fill="rgb(204,204,204)" stroke="none" d="M 8100,15567 L 7410,15966 7410,15741 7711,15567 8100,15567 Z M 8265,15246 L 8966,14841 8966,15066 8265,15471 8265,15246 Z M 8249,15481 L 8127,15551 7738,15551 8249,15256 8249,15481 Z"/>
     <path fill="rgb(205,205,205)" stroke="none" d="M 8127,15551 L 7410,15966 7410,15741 7738,15551 8127,15551 Z M 8249,15256 L 8966,14841 8966,15066 8249,15481 8249,15256 Z M 8234,15489 L 8153,15536 7764,15536 8234,15264 8234,15489 Z"/>
     <path fill="rgb(206,206,206)" stroke="none" d="M 8153,15536 L 7410,15966 7410,15741 7764,15536 8153,15536 Z M 8234,15264 L 8966,14841 8966,15066 8234,15489 8234,15264 Z M 8218,15499 L 8181,15520 7792,15520 8218,15274 8218,15499 Z"/>
     <path fill="rgb(207,207,207)" stroke="none" d="M 8181,15520 L 7410,15966 7410,15741 7792,15520 8181,15520 Z M 8218,15274 L 8966,14841 8966,15066 8218,15499 8218,15274 Z M 8202,15504 L 7820,15504 8202,15283 8202,15504 Z"/>
     <path fill="rgb(208,208,208)" stroke="none" d="M 8202,15504 L 8202,15283 8966,14841 8966,15066 7410,15966 7410,15741 7820,15504 8202,15504 Z M 8187,15489 L 7846,15489 8187,15292 8187,15489 Z"/>
     <path fill="rgb(209,209,209)" stroke="none" d="M 8187,15489 L 8187,15292 8966,14841 8966,15066 7410,15966 7410,15741 7846,15489 8187,15489 Z M 8171,15473 L 7873,15473 8171,15301 8171,15473 Z"/>
     <path fill="rgb(210,210,210)" stroke="none" d="M 8171,15473 L 8171,15301 8966,14841 8966,15066 7410,15966 7410,15741 7873,15473 8171,15473 Z M 8156,15458 L 7899,15458 8156,15310 8156,15458 Z"/>
     <path fill="rgb(211,211,211)" stroke="none" d="M 8156,15458 L 8156,15310 8966,14841 8966,15066 7410,15966 7410,15741 7899,15458 8156,15458 Z M 8140,15442 L 7927,15442 8140,15319 8140,15442 Z"/>
     <path fill="rgb(212,212,212)" stroke="none" d="M 8140,15442 L 8140,15319 8966,14841 8966,15066 7410,15966 7410,15741 7927,15442 8140,15442 Z M 8124,15426 L 7955,15426 8124,15328 8124,15426 Z"/>
     <path fill="rgb(213,213,213)" stroke="none" d="M 8124,15426 L 8124,15328 8966,14841 8966,15066 7410,15966 7410,15741 7955,15426 8124,15426 Z M 8109,15411 L 7981,15411 8109,15337 8109,15411 Z"/>
     <path fill="rgb(214,214,214)" stroke="none" d="M 8109,15411 L 8109,15337 8966,14841 8966,15066 7410,15966 7410,15741 7981,15411 8109,15411 Z M 8093,15395 L 8008,15395 8093,15346 8093,15395 Z"/>
     <path fill="rgb(215,215,215)" stroke="none" d="M 8093,15395 L 8093,15346 8966,14841 8966,15066 7410,15966 7410,15741 8008,15395 8093,15395 Z M 8078,15380 L 8034,15380 8078,15355 8078,15380 Z"/>
     <path fill="rgb(216,216,216)" stroke="none" d="M 8078,15380 L 8078,15355 8966,14841 8966,15066 7410,15966 7410,15741 8034,15380 8078,15380 Z M 8062,15364 L 8062,15364 8062,15364 8062,15364 Z"/>
     <path fill="rgb(217,217,217)" stroke="none" d="M 8062,15364 L 8062,15364 8966,14841 8966,15066 7410,15966 7410,15741 8062,15364 8062,15364 Z"/>
     <path fill="rgb(218,218,218)" stroke="none" d="M 8966,15066 L 7410,15966 7410,15741 8966,14841 8966,15066 Z"/>
     <path fill="rgb(219,219,219)" stroke="none" d="M 8966,15066 L 7410,15966 7410,15741 8966,14841 8966,15066 Z"/>
     <path fill="rgb(220,220,220)" stroke="none" d="M 8966,15066 L 7410,15966 7410,15741 8966,14841 8966,15066 Z"/>
     <path fill="rgb(221,221,221)" stroke="none" d="M 8966,15066 L 7410,15966 7410,15741 8966,14841 8966,15066 Z"/>
     <path fill="rgb(222,222,222)" stroke="none" d="M 8966,15066 L 7410,15966 7410,15741 8966,14841 8966,15066 Z"/>
     <path fill="rgb(223,223,223)" stroke="none" d="M 8966,15066 L 7410,15966 7410,15741 8966,14841 8966,15066 Z"/>
     <path fill="rgb(224,224,224)" stroke="none" d="M 8966,15066 L 7410,15966 7410,15741 8966,14841 8966,15066 Z"/>
     <path fill="rgb(225,225,225)" stroke="none" d="M 8966,15066 L 7410,15966 7410,15741 8966,14841 8966,15066 Z"/>
     <path fill="rgb(226,226,226)" stroke="none" d="M 8966,15066 L 7410,15966 7410,15741 8966,14841 8966,15066 Z"/>
     <path fill="rgb(227,227,227)" stroke="none" d="M 8966,15066 L 7410,15966 7410,15741 8966,14841 8966,15066 Z"/>
     <path fill="rgb(229,229,229)" stroke="none" d="M 8966,15066 L 7410,15966 7410,15741 8966,14841 8966,15066 Z"/>
     <path fill="none" stroke="rgb(255,255,255)" id="Drawing_11_0" stroke-width="40" stroke-linejoin="round" d="M 8966,15066 L 8966,14841 7410,15741 7410,15966 8966,15066 Z"/>
    </g>
    <g>
     <path fill="none" stroke="rgb(127,127,127)" id="Drawing_12_0" stroke-width="40" stroke-linejoin="round" d="M 7411,14211 L 7411,14031 5855,14931 5855,15066"/>
    </g>
    <g>
     <defs>
      <linearGradient id="Gradient_284" gradientUnits="userSpaceOnUse" x1="7409" y1="14211" x2="7409" y2="15741">
       <stop offset="0.1" stop-color="rgb(179,179,179)"/>
       <stop offset="1" stop-color="rgb(229,229,229)"/>
      </linearGradient>
     </defs>
     <path fill="url(#Gradient_284)" stroke="rgb(255,255,255)" id="Drawing_13_0" stroke-width="40" stroke-linejoin="round" d="M 7410,15741 L 8966,14841 7410,14211 5853,15111 7410,15741 Z"/>
    </g>
    <g>
     <path fill="rgb(255,255,255)" stroke="none" d="M 7798,15651 C 8109,15471 8576,15201 8887,15021 8498,14796 7720,14481 7176,14346 6864,14526 6476,14751 6086,14976 6553,15111 7331,15426 7798,15651 Z"/>
     <path fill="none" stroke="rgb(128,128,128)" id="Drawing_14_0" stroke-width="40" stroke-linejoin="round" d="M 7798,15651 C 8109,15471 8576,15201 8887,15021 8498,14796 7720,14481 7176,14346 6864,14526 6476,14751 6086,14976 6553,15111 7331,15426 7798,15651 Z"/>
    </g>
    <g>
     <path fill="none" stroke="rgb(0,0,0)" id="Drawing_15_0" stroke-width="40" stroke-linejoin="round" d="M 7798,14391 L 7798,13311 5464,11961 3130,13311 3130,15111 5464,16461 6709,15741 7410,15966 8966,15066 8966,14841 7798,14391 Z"/>
    </g>
   </g>
  </g>
 </g>
</svg>