<?xml version="1.0" encoding="UTF-8"?>

<svg version="1.2" baseProfile="tiny" width="10.57mm" height="16.55mm" viewBox="11038 5371 1057 1655" preserveAspectRatio="xMidYMid" fill-rule="evenodd" stroke-width="28.222" stroke-linejoin="round" xmlns="http://www.w3.org/2000/svg" xmlns:xlink="http://www.w3.org/1999/xlink" xml:space="preserve">
 <g visibility="visible" id="Slide_1">
  <g id="DrawingGroup_1">
   <g>
    <path fill="rgb(221,221,221)" stroke="none" d="M 11714,7006 C 11800,7001 11921,7001 12042,6931 12163,6861 11921,6651 11800,6651 11800,6651 11679,7008 11714,7006 Z"/>
    <path fill="none" stroke="rgb(221,221,221)" id="Drawing_1_0" stroke-width="40" stroke-linejoin="round" d="M 11714,7006 C 11800,7001 11921,7001 12042,6931 12163,6861 11921,6651 11800,6651 11800,6651 11679,7008 11714,7006 Z"/>
   </g>
   <g id="DrawingGroup_2">
    <g>
     <defs>
      <linearGradient id="Gradient_151" gradientUnits="userSpaceOnUse" x1="11056" y1="6221" x2="11687" y2="6223">
       <stop offset="0.1" stop-color="rgb(51,51,51)"/>
       <stop offset="1" stop-color="rgb(153,153,153)"/>
      </linearGradient>
     </defs>
     <path fill="url(#Gradient_151)" stroke="rgb(178,178,178)" id="Drawing_2_0" stroke-width="40" stroke-linejoin="round" d="M 11058,6638 L 11058,5443 11687,5807 11687,7001 11058,6638 Z"/>
    </g>
    <g>
     <defs>
      <linearGradient id="Gradient_152" gradientUnits="userSpaceOnUse" x1="11146" y1="6144" x2="11597" y2="6144">
       <stop offset="0.1" stop-color="rgb(147,212,240)"/>
       <stop offset="1" stop-color="rgb(233,246,252)"/>
      </linearGradient>
     </defs>
     <path fill="url(#Gradient_152)" stroke="rgb(102,102,102)" id="Drawing_3_0" stroke-width="40" stroke-linejoin="round" d="M 11148,6430 L 11148,5599 11597,5859 11597,6690 11148,6430 Z"/>
    </g>
    <g>
     <defs>
      <linearGradient id="Gradient_153" gradientUnits="userSpaceOnUse" x1="11417" y1="5391" x2="11417" y2="5806">
       <stop offset="0.1" stop-color="rgb(51,51,51)"/>
       <stop offset="1" stop-color="rgb(153,153,153)"/>
      </linearGradient>
     </defs>
     <path fill="url(#Gradient_153)" stroke="rgb(178,178,178)" id="Drawing_4_0" stroke-width="40" stroke-linejoin="round" d="M 11687,5806 L 11058,5443 11148,5391 11777,5755 11687,5806 Z"/>
    </g>
    <g>
     <path fill="rgb(51,51,51)" stroke="none" d="M 11687,6741 L 11687,5807 11777,5755 11777,6741 11687,6741 Z"/>
     <path fill="rgb(52,52,52)" stroke="none" d="M 11777,6741 L 11777,6950 11687,7001 11687,6741 11777,6741 Z M 11687,6731 L 11687,5807 11777,5755 11777,6731 11687,6731 Z"/>
     <path fill="rgb(54,54,54)" stroke="none" d="M 11777,6731 L 11777,6950 11687,7001 11687,6731 11777,6731 Z M 11687,6721 L 11687,5807 11777,5755 11777,6721 11687,6721 Z"/>
     <path fill="rgb(55,55,55)" stroke="none" d="M 11777,6721 L 11777,6950 11687,7001 11687,6721 11777,6721 Z M 11687,6711 L 11687,5807 11777,5755 11777,6711 11687,6711 Z"/>
     <path fill="rgb(57,57,57)" stroke="none" d="M 11777,6711 L 11777,6950 11687,7001 11687,6711 11777,6711 Z M 11687,6701 L 11687,5807 11777,5755 11777,6701 11687,6701 Z"/>
     <path fill="rgb(59,59,59)" stroke="none" d="M 11777,6701 L 11777,6950 11687,7001 11687,6701 11777,6701 Z M 11687,6691 L 11687,5807 11777,5755 11777,6691 11687,6691 Z"/>
     <path fill="rgb(60,60,60)" stroke="none" d="M 11777,6691 L 11777,6950 11687,7001 11687,6691 11777,6691 Z M 11687,6681 L 11687,5807 11777,5755 11777,6681 11687,6681 Z"/>
     <path fill="rgb(62,62,62)" stroke="none" d="M 11777,6681 L 11777,6950 11687,7001 11687,6681 11777,6681 Z M 11687,6671 L 11687,5807 11777,5755 11777,6671 11687,6671 Z"/>
     <path fill="rgb(64,64,64)" stroke="none" d="M 11777,6671 L 11777,6950 11687,7001 11687,6671 11777,6671 Z M 11687,6661 L 11687,5807 11777,5755 11777,6661 11687,6661 Z"/>
     <path fill="rgb(65,65,65)" stroke="none" d="M 11777,6661 L 11777,6950 11687,7001 11687,6661 11777,6661 Z M 11687,6651 L 11687,5807 11777,5755 11777,6651 11687,6651 Z"/>
     <path fill="rgb(67,67,67)" stroke="none" d="M 11777,6651 L 11777,6950 11687,7001 11687,6651 11777,6651 Z M 11687,6641 L 11687,5807 11777,5755 11777,6641 11687,6641 Z"/>
     <path fill="rgb(69,69,69)" stroke="none" d="M 11777,6641 L 11777,6950 11687,7001 11687,6641 11777,6641 Z M 11687,6631 L 11687,5807 11777,5755 11777,6631 11687,6631 Z"/>
     <path fill="rgb(70,70,70)" stroke="none" d="M 11777,6631 L 11777,6950 11687,7001 11687,6631 11777,6631 Z M 11687,6621 L 11687,5807 11777,5755 11777,6621 11687,6621 Z"/>
     <path fill="rgb(72,72,72)" stroke="none" d="M 11777,6621 L 11777,6950 11687,7001 11687,6621 11777,6621 Z M 11687,6610 L 11687,5807 11777,5755 11777,6610 11687,6610 Z"/>
     <path fill="rgb(74,74,74)" stroke="none" d="M 11777,6610 L 11777,6950 11687,7001 11687,6610 11777,6610 Z M 11687,6600 L 11687,5807 11777,5755 11777,6600 11687,6600 Z"/>
     <path fill="rgb(75,75,75)" stroke="none" d="M 11777,6600 L 11777,6950 11687,7001 11687,6600 11777,6600 Z M 11687,6590 L 11687,5807 11777,5755 11777,6590 11687,6590 Z"/>
     <path fill="rgb(77,77,77)" stroke="none" d="M 11777,6590 L 11777,6950 11687,7001 11687,6590 11777,6590 Z M 11687,6580 L 11687,5807 11777,5755 11777,6580 11687,6580 Z"/>
     <path fill="rgb(78,78,78)" stroke="none" d="M 11777,6580 L 11777,6950 11687,7001 11687,6580 11777,6580 Z M 11687,6570 L 11687,5807 11777,5755 11777,6570 11687,6570 Z"/>
     <path fill="rgb(80,80,80)" stroke="none" d="M 11777,6570 L 11777,6950 11687,7001 11687,6570 11777,6570 Z M 11687,6560 L 11687,5807 11777,5755 11777,6560 11687,6560 Z"/>
     <path fill="rgb(82,82,82)" stroke="none" d="M 11777,6560 L 11777,6950 11687,7001 11687,6560 11777,6560 Z M 11687,6550 L 11687,5807 11777,5755 11777,6550 11687,6550 Z"/>
     <path fill="rgb(83,83,83)" stroke="none" d="M 11777,6550 L 11777,6950 11687,7001 11687,6550 11777,6550 Z M 11687,6540 L 11687,5807 11777,5755 11777,6540 11687,6540 Z"/>
     <path fill="rgb(85,85,85)" stroke="none" d="M 11777,6540 L 11777,6950 11687,7001 11687,6540 11777,6540 Z M 11687,6530 L 11687,5807 11777,5755 11777,6530 11687,6530 Z"/>
     <path fill="rgb(87,87,87)" stroke="none" d="M 11777,6530 L 11777,6950 11687,7001 11687,6530 11777,6530 Z M 11687,6520 L 11687,5807 11777,5755 11777,6520 11687,6520 Z"/>
     <path fill="rgb(88,88,88)" stroke="none" d="M 11777,6520 L 11777,6950 11687,7001 11687,6520 11777,6520 Z M 11687,6510 L 11687,5807 11777,5755 11777,6510 11687,6510 Z"/>
     <path fill="rgb(90,90,90)" stroke="none" d="M 11777,6510 L 11777,6950 11687,7001 11687,6510 11777,6510 Z M 11687,6500 L 11687,5807 11777,5755 11777,6500 11687,6500 Z"/>
     <path fill="rgb(92,92,92)" stroke="none" d="M 11777,6500 L 11777,6950 11687,7001 11687,6500 11777,6500 Z M 11777,5765 L 11777,6490 11687,6490 11687,5807 11760,5765 11777,5765 Z"/>
     <path fill="rgb(93,93,93)" stroke="none" d="M 11777,6490 L 11777,6950 11687,7001 11687,6490 11777,6490 Z M 11760,5765 L 11777,5755 11777,5765 11760,5765 Z M 11777,5775 L 11777,6480 11687,6480 11687,5807 11742,5775 11777,5775 Z"/>
     <path fill="rgb(95,95,95)" stroke="none" d="M 11777,6480 L 11777,6950 11687,7001 11687,6480 11777,6480 Z M 11742,5775 L 11777,5755 11777,5775 11742,5775 Z M 11777,5786 L 11777,6469 11687,6469 11687,5807 11723,5786 11777,5786 Z"/>
     <path fill="rgb(97,97,97)" stroke="none" d="M 11777,6469 L 11777,6950 11687,7001 11687,6469 11777,6469 Z M 11723,5786 L 11777,5755 11777,5786 11723,5786 Z M 11777,5796 L 11777,6459 11687,6459 11687,5807 11706,5796 11777,5796 Z"/>
     <path fill="rgb(98,98,98)" stroke="none" d="M 11777,6459 L 11777,6950 11687,7001 11687,6459 11777,6459 Z M 11706,5796 L 11777,5755 11777,5796 11706,5796 Z M 11777,5806 L 11777,6449 11687,6449 11687,5807 11689,5806 11777,5806 Z"/>
     <path fill="rgb(100,100,100)" stroke="none" d="M 11777,6449 L 11777,6950 11687,7001 11687,6449 11777,6449 Z M 11689,5806 L 11777,5755 11777,5806 11689,5806 Z M 11777,5816 L 11777,6439 11687,6439 11687,5816 11777,5816 Z"/>
     <path fill="rgb(102,102,102)" stroke="none" d="M 11777,6439 L 11777,6950 11687,7001 11687,6439 11777,6439 Z M 11687,5816 L 11687,5807 11777,5755 11777,5816 11687,5816 Z M 11777,5826 L 11777,6429 11687,6429 11687,5826 11777,5826 Z"/>
     <path fill="rgb(103,103,103)" stroke="none" d="M 11777,6429 L 11777,6950 11687,7001 11687,6429 11777,6429 Z M 11687,5826 L 11687,5807 11777,5755 11777,5826 11687,5826 Z M 11777,5836 L 11777,6419 11687,6419 11687,5836 11777,5836 Z"/>
     <path fill="rgb(105,105,105)" stroke="none" d="M 11777,6419 L 11777,6950 11687,7001 11687,6419 11777,6419 Z M 11687,5836 L 11687,5807 11777,5755 11777,5836 11687,5836 Z M 11777,5846 L 11777,6409 11687,6409 11687,5846 11777,5846 Z"/>
     <path fill="rgb(106,106,106)" stroke="none" d="M 11777,6409 L 11777,6950 11687,7001 11687,6409 11777,6409 Z M 11687,5846 L 11687,5807 11777,5755 11777,5846 11687,5846 Z M 11777,5856 L 11777,6399 11687,6399 11687,5856 11777,5856 Z"/>
     <path fill="rgb(108,108,108)" stroke="none" d="M 11777,6399 L 11777,6950 11687,7001 11687,6399 11777,6399 Z M 11687,5856 L 11687,5807 11777,5755 11777,5856 11687,5856 Z M 11777,5866 L 11777,6389 11687,6389 11687,5866 11777,5866 Z"/>
     <path fill="rgb(110,110,110)" stroke="none" d="M 11777,6389 L 11777,6950 11687,7001 11687,6389 11777,6389 Z M 11687,5866 L 11687,5807 11777,5755 11777,5866 11687,5866 Z M 11777,5876 L 11777,6379 11687,6379 11687,5876 11777,5876 Z"/>
     <path fill="rgb(111,111,111)" stroke="none" d="M 11777,6379 L 11777,6950 11687,7001 11687,6379 11777,6379 Z M 11687,5876 L 11687,5807 11777,5755 11777,5876 11687,5876 Z M 11777,5886 L 11777,6369 11687,6369 11687,5886 11777,5886 Z"/>
     <path fill="rgb(113,113,113)" stroke="none" d="M 11777,6369 L 11777,6950 11687,7001 11687,6369 11777,6369 Z M 11687,5886 L 11687,5807 11777,5755 11777,5886 11687,5886 Z M 11777,5896 L 11777,6359 11687,6359 11687,5896 11777,5896 Z"/>
     <path fill="rgb(115,115,115)" stroke="none" d="M 11777,6359 L 11777,6950 11687,7001 11687,6359 11777,6359 Z M 11687,5896 L 11687,5807 11777,5755 11777,5896 11687,5896 Z M 11777,5906 L 11777,6349 11687,6349 11687,5906 11777,5906 Z"/>
     <path fill="rgb(116,116,116)" stroke="none" d="M 11777,6349 L 11777,6950 11687,7001 11687,6349 11777,6349 Z M 11687,5906 L 11687,5807 11777,5755 11777,5906 11687,5906 Z M 11777,5916 L 11777,6339 11687,6339 11687,5916 11777,5916 Z"/>
     <path fill="rgb(118,118,118)" stroke="none" d="M 11777,6339 L 11777,6950 11687,7001 11687,6339 11777,6339 Z M 11687,5916 L 11687,5807 11777,5755 11777,5916 11687,5916 Z M 11777,5927 L 11777,6328 11687,6328 11687,5927 11777,5927 Z"/>
     <path fill="rgb(120,120,120)" stroke="none" d="M 11777,6328 L 11777,6950 11687,7001 11687,6328 11777,6328 Z M 11687,5927 L 11687,5807 11777,5755 11777,5927 11687,5927 Z M 11777,5937 L 11777,6318 11687,6318 11687,5937 11777,5937 Z"/>
     <path fill="rgb(121,121,121)" stroke="none" d="M 11777,6318 L 11777,6950 11687,7001 11687,6318 11777,6318 Z M 11687,5937 L 11687,5807 11777,5755 11777,5937 11687,5937 Z M 11777,5947 L 11777,6308 11687,6308 11687,5947 11777,5947 Z"/>
     <path fill="rgb(123,123,123)" stroke="none" d="M 11777,6308 L 11777,6950 11687,7001 11687,6308 11777,6308 Z M 11687,5947 L 11687,5807 11777,5755 11777,5947 11687,5947 Z M 11777,5957 L 11777,6298 11687,6298 11687,5957 11777,5957 Z"/>
     <path fill="rgb(125,125,125)" stroke="none" d="M 11777,6298 L 11777,6950 11687,7001 11687,6298 11777,6298 Z M 11687,5957 L 11687,5807 11777,5755 11777,5957 11687,5957 Z M 11777,5967 L 11777,6288 11687,6288 11687,5967 11777,5967 Z"/>
     <path fill="rgb(126,126,126)" stroke="none" d="M 11777,6288 L 11777,6950 11687,7001 11687,6288 11777,6288 Z M 11687,5967 L 11687,5807 11777,5755 11777,5967 11687,5967 Z M 11777,5977 L 11777,6278 11687,6278 11687,5977 11777,5977 Z"/>
     <path fill="rgb(128,128,128)" stroke="none" d="M 11777,6278 L 11777,6950 11687,7001 11687,6278 11777,6278 Z M 11687,5977 L 11687,5807 11777,5755 11777,5977 11687,5977 Z M 11777,5987 L 11777,6268 11687,6268 11687,5987 11777,5987 Z"/>
     <path fill="rgb(129,129,129)" stroke="none" d="M 11777,6268 L 11777,6950 11687,7001 11687,6268 11777,6268 Z M 11687,5987 L 11687,5807 11777,5755 11777,5987 11687,5987 Z M 11777,5997 L 11777,6258 11687,6258 11687,5997 11777,5997 Z"/>
     <path fill="rgb(131,131,131)" stroke="none" d="M 11777,6258 L 11777,6950 11687,7001 11687,6258 11777,6258 Z M 11687,5997 L 11687,5807 11777,5755 11777,5997 11687,5997 Z M 11777,6007 L 11777,6248 11687,6248 11687,6007 11777,6007 Z"/>
     <path fill="rgb(133,133,133)" stroke="none" d="M 11777,6248 L 11777,6950 11687,7001 11687,6248 11777,6248 Z M 11687,6007 L 11687,5807 11777,5755 11777,6007 11687,6007 Z M 11777,6017 L 11777,6238 11687,6238 11687,6017 11777,6017 Z"/>
     <path fill="rgb(134,134,134)" stroke="none" d="M 11777,6238 L 11777,6950 11687,7001 11687,6238 11777,6238 Z M 11687,6017 L 11687,5807 11777,5755 11777,6017 11687,6017 Z M 11777,6027 L 11777,6228 11687,6228 11687,6027 11777,6027 Z"/>
     <path fill="rgb(136,136,136)" stroke="none" d="M 11777,6228 L 11777,6950 11687,7001 11687,6228 11777,6228 Z M 11687,6027 L 11687,5807 11777,5755 11777,6027 11687,6027 Z M 11777,6037 L 11777,6218 11687,6218 11687,6037 11777,6037 Z"/>
     <path fill="rgb(138,138,138)" stroke="none" d="M 11777,6218 L 11777,6950 11687,7001 11687,6218 11777,6218 Z M 11687,6037 L 11687,5807 11777,5755 11777,6037 11687,6037 Z M 11777,6047 L 11777,6208 11687,6208 11687,6047 11777,6047 Z"/>
     <path fill="rgb(139,139,139)" stroke="none" d="M 11777,6208 L 11777,6950 11687,7001 11687,6208 11777,6208 Z M 11687,6047 L 11687,5807 11777,5755 11777,6047 11687,6047 Z M 11777,6057 L 11777,6198 11687,6198 11687,6057 11777,6057 Z"/>
     <path fill="rgb(141,141,141)" stroke="none" d="M 11777,6198 L 11777,6950 11687,7001 11687,6198 11777,6198 Z M 11687,6057 L 11687,5807 11777,5755 11777,6057 11687,6057 Z M 11772,6068 L 11772,6187 11687,6187 11687,6068 11772,6068 Z"/>
     <path fill="rgb(143,143,143)" stroke="none" d="M 11772,6187 L 11772,6068 11687,6068 11687,5807 11777,5755 11777,6950 11687,7001 11687,6187 11772,6187 Z M 11762,6078 L 11762,6177 11687,6177 11687,6078 11762,6078 Z"/>
     <path fill="rgb(144,144,144)" stroke="none" d="M 11762,6177 L 11762,6078 11687,6078 11687,5807 11777,5755 11777,6950 11687,7001 11687,6177 11762,6177 Z M 11752,6088 L 11752,6167 11687,6167 11687,6088 11752,6088 Z"/>
     <path fill="rgb(146,146,146)" stroke="none" d="M 11752,6167 L 11752,6088 11687,6088 11687,5807 11777,5755 11777,6950 11687,7001 11687,6167 11752,6167 Z M 11742,6098 L 11742,6157 11687,6157 11687,6098 11742,6098 Z"/>
     <path fill="rgb(148,148,148)" stroke="none" d="M 11742,6157 L 11742,6098 11687,6098 11687,5807 11777,5755 11777,6950 11687,7001 11687,6157 11742,6157 Z M 11693,6108 L 11732,6108 11732,6147 11693,6147 11693,6108 Z"/>
     <path fill="rgb(149,149,149)" stroke="none" d="M 11693,6108 L 11693,6147 11732,6147 11732,6108 11693,6108 Z M 11703,6118 L 11722,6118 11722,6137 11703,6137 11703,6118 Z M 11687,7001 L 11687,5807 11777,5755 11777,6950 11687,7001 Z"/>
     <path fill="rgb(153,153,153)" stroke="none" d="M 11703,6118 L 11703,6137 11722,6137 11722,6118 11703,6118 Z M 11687,7001 L 11687,5807 11777,5755 11777,6950 11687,7001 Z"/>
     <path fill="none" stroke="rgb(178,178,178)" id="Drawing_5_0" stroke-width="40" stroke-linejoin="round" d="M 11687,7001 L 11687,5807 11777,5755 11777,6950 11687,7001 Z"/>
    </g>
    <g>
     <path fill="none" stroke="rgb(0,0,0)" id="Drawing_6_0" stroke-width="40" stroke-linejoin="round" d="M 11148,5391 L 11777,5755 11777,6949 11687,7001 11058,6637 11058,5443 11148,5391 Z"/>
    </g>
    <g>
     <path fill="none" stroke="rgb(102,102,102)" id="Drawing_7_0" stroke-width="40" stroke-linejoin="round" d="M 11238,6586 L 11508,6742"/>
    </g>
   </g>
  </g>
 </g>
</svg>