<?xml version="1.0" encoding="UTF-8"?>

<svg version="1.2" baseProfile="tiny" width="9.67mm" height="16.5mm" viewBox="4318 10211 967 1650" preserveAspectRatio="xMidYMid" fill-rule="evenodd" stroke-width="28.222" stroke-linejoin="round" xmlns="http://www.w3.org/2000/svg" xmlns:xlink="http://www.w3.org/1999/xlink" xml:space="preserve">
 <g visibility="visible" id="Slide_1">
  <g id="DrawingGroup_1">
   <g>
    <path fill="rgb(221,221,221)" stroke="none" d="M 4582,11701 C 4828,11701 5067,11631 5188,11561 5309,11491 5304,11374 5058,11374 5067,11421 4582,11701 4582,11701 Z"/>
    <path fill="none" stroke="rgb(221,221,221)" id="Drawing_1_0" stroke-width="40" stroke-linejoin="round" d="M 4582,11701 C 4828,11701 5067,11631 5188,11561 5309,11491 5304,11374 5058,11374 5067,11421 4582,11701 4582,11701 Z"/>
   </g>
   <g id="DrawingGroup_2">
    <g>
     <path fill="rgb(179,179,179)" stroke="none" d="M 4428,11514 L 4428,10647 5057,10283 5057,11478 4995,11514 4428,11514 Z"/>
     <path fill="rgb(180,180,180)" stroke="none" d="M 4995,11514 L 4428,11841 4428,11514 4995,11514 Z M 4428,11498 L 4428,10647 5057,10283 5057,11478 5022,11498 4428,11498 Z"/>
     <path fill="rgb(181,181,181)" stroke="none" d="M 5022,11498 L 4428,11841 4428,11498 5022,11498 Z M 4428,11483 L 4428,10647 5057,10283 5057,11478 5048,11483 4428,11483 Z"/>
     <path fill="rgb(182,182,182)" stroke="none" d="M 5048,11483 L 4428,11841 4428,11483 5048,11483 Z M 4428,11467 L 4428,10647 5057,10283 5057,11467 4428,11467 Z"/>
     <path fill="rgb(183,183,183)" stroke="none" d="M 5057,11467 L 5057,11478 4428,11841 4428,11467 5057,11467 Z M 4428,11451 L 4428,10647 5057,10283 5057,11451 4428,11451 Z"/>
     <path fill="rgb(184,184,184)" stroke="none" d="M 5057,11451 L 5057,11478 4428,11841 4428,11451 5057,11451 Z M 4428,11436 L 4428,10647 5057,10283 5057,11436 4428,11436 Z"/>
     <path fill="rgb(185,185,185)" stroke="none" d="M 5057,11436 L 5057,11478 4428,11841 4428,11436 5057,11436 Z M 4428,11420 L 4428,10647 5057,10283 5057,11420 4428,11420 Z"/>
     <path fill="rgb(186,186,186)" stroke="none" d="M 5057,11420 L 5057,11478 4428,11841 4428,11420 5057,11420 Z M 4428,11405 L 4428,10647 5057,10283 5057,11405 4428,11405 Z"/>
     <path fill="rgb(187,187,187)" stroke="none" d="M 5057,11405 L 5057,11478 4428,11841 4428,11405 5057,11405 Z M 4428,11389 L 4428,10647 5057,10283 5057,11389 4428,11389 Z"/>
     <path fill="rgb(188,188,188)" stroke="none" d="M 5057,11389 L 5057,11478 4428,11841 4428,11389 5057,11389 Z M 4428,11373 L 4428,10647 5057,10283 5057,11373 4428,11373 Z"/>
     <path fill="rgb(189,189,189)" stroke="none" d="M 5057,11373 L 5057,11478 4428,11841 4428,11373 5057,11373 Z M 4428,11358 L 4428,10647 5057,10283 5057,11358 4428,11358 Z"/>
     <path fill="rgb(190,190,190)" stroke="none" d="M 5057,11358 L 5057,11478 4428,11841 4428,11358 5057,11358 Z M 4428,11342 L 4428,10647 5057,10283 5057,11342 4428,11342 Z"/>
     <path fill="rgb(191,191,191)" stroke="none" d="M 5057,11342 L 5057,11478 4428,11841 4428,11342 5057,11342 Z M 4428,11327 L 4428,10647 5057,10283 5057,11327 4428,11327 Z"/>
     <path fill="rgb(192,192,192)" stroke="none" d="M 5057,11327 L 5057,11478 4428,11841 4428,11327 5057,11327 Z M 4428,11311 L 4428,10647 5057,10283 5057,11311 4428,11311 Z"/>
     <path fill="rgb(193,193,193)" stroke="none" d="M 5057,11311 L 5057,11478 4428,11841 4428,11311 5057,11311 Z M 4428,11295 L 4428,10647 5057,10283 5057,11295 4428,11295 Z"/>
     <path fill="rgb(194,194,194)" stroke="none" d="M 5057,11295 L 5057,11478 4428,11841 4428,11295 5057,11295 Z M 4428,11280 L 4428,10647 5057,10283 5057,11280 4428,11280 Z"/>
     <path fill="rgb(195,195,195)" stroke="none" d="M 5057,11280 L 5057,11478 4428,11841 4428,11280 5057,11280 Z M 4428,11264 L 4428,10647 5057,10283 5057,11264 4428,11264 Z"/>
     <path fill="rgb(196,196,196)" stroke="none" d="M 5057,11264 L 5057,11478 4428,11841 4428,11264 5057,11264 Z M 4428,11249 L 4428,10647 5057,10283 5057,11249 4428,11249 Z"/>
     <path fill="rgb(197,197,197)" stroke="none" d="M 5057,11249 L 5057,11478 4428,11841 4428,11249 5057,11249 Z M 4428,11233 L 4428,10647 5057,10283 5057,11233 4428,11233 Z"/>
     <path fill="rgb(198,198,198)" stroke="none" d="M 5057,11233 L 5057,11478 4428,11841 4428,11233 5057,11233 Z M 4428,11217 L 4428,10647 5057,10283 5057,11217 4428,11217 Z"/>
     <path fill="rgb(199,199,199)" stroke="none" d="M 5057,11217 L 5057,11478 4428,11841 4428,11217 5057,11217 Z M 5057,10297 L 5057,11202 4428,11202 4428,10647 5033,10297 5057,10297 Z"/>
     <path fill="rgb(200,200,200)" stroke="none" d="M 5057,11202 L 5057,11478 4428,11841 4428,11202 5057,11202 Z M 5033,10297 L 5057,10283 5057,10297 5033,10297 Z M 5052,10313 L 5052,11186 4428,11186 4428,10647 5005,10313 5052,10313 Z"/>
     <path fill="rgb(201,201,201)" stroke="none" d="M 5052,11186 L 5052,10313 5005,10313 5057,10283 5057,11478 4428,11841 4428,11186 5052,11186 Z M 5036,10329 L 5036,11170 4428,11170 4428,10647 4978,10329 5036,10329 Z"/>
     <path fill="rgb(202,202,202)" stroke="none" d="M 5036,11170 L 5036,10329 4978,10329 5057,10283 5057,11478 4428,11841 4428,11170 5036,11170 Z M 5021,10344 L 5021,11155 4428,11155 4428,10647 4952,10344 5021,10344 Z"/>
     <path fill="rgb(203,203,203)" stroke="none" d="M 5021,11155 L 5021,10344 4952,10344 5057,10283 5057,11478 4428,11841 4428,11155 5021,11155 Z M 5005,10360 L 5005,11139 4428,11139 4428,10647 4924,10360 5005,10360 Z"/>
     <path fill="rgb(204,204,204)" stroke="none" d="M 5005,11139 L 5005,10360 4924,10360 5057,10283 5057,11478 4428,11841 4428,11139 5005,11139 Z M 4990,10375 L 4990,11124 4428,11124 4428,10647 4898,10375 4990,10375 Z"/>
     <path fill="rgb(205,205,205)" stroke="none" d="M 4990,11124 L 4990,10375 4898,10375 5057,10283 5057,11478 4428,11841 4428,11124 4990,11124 Z M 4974,10391 L 4974,11108 4428,11108 4428,10647 4870,10391 4974,10391 Z"/>
     <path fill="rgb(206,206,206)" stroke="none" d="M 4974,11108 L 4974,10391 4870,10391 5057,10283 5057,11478 4428,11841 4428,11108 4974,11108 Z M 4958,10407 L 4958,11092 4428,11092 4428,10647 4843,10407 4958,10407 Z"/>
     <path fill="rgb(207,207,207)" stroke="none" d="M 4958,11092 L 4958,10407 4843,10407 5057,10283 5057,11478 4428,11841 4428,11092 4958,11092 Z M 4943,10422 L 4943,11077 4428,11077 4428,10647 4817,10422 4943,10422 Z"/>
     <path fill="rgb(208,208,208)" stroke="none" d="M 4943,11077 L 4943,10422 4817,10422 5057,10283 5057,11478 4428,11841 4428,11077 4943,11077 Z M 4927,10438 L 4927,11061 4428,11061 4428,10647 4789,10438 4927,10438 Z"/>
     <path fill="rgb(209,209,209)" stroke="none" d="M 4927,11061 L 4927,10438 4789,10438 5057,10283 5057,11478 4428,11841 4428,11061 4927,11061 Z M 4912,10453 L 4912,11046 4428,11046 4428,10647 4763,10453 4912,10453 Z"/>
     <path fill="rgb(210,210,210)" stroke="none" d="M 4912,11046 L 4912,10453 4763,10453 5057,10283 5057,11478 4428,11841 4428,11046 4912,11046 Z M 4896,10469 L 4896,11030 4428,11030 4428,10647 4736,10469 4896,10469 Z"/>
     <path fill="rgb(211,211,211)" stroke="none" d="M 4896,11030 L 4896,10469 4736,10469 5057,10283 5057,11478 4428,11841 4428,11030 4896,11030 Z M 4880,10485 L 4880,11014 4428,11014 4428,10647 4708,10485 4880,10485 Z"/>
     <path fill="rgb(212,212,212)" stroke="none" d="M 4880,11014 L 4880,10485 4708,10485 5057,10283 5057,11478 4428,11841 4428,11014 4880,11014 Z M 4865,10500 L 4865,10999 4428,10999 4428,10647 4682,10500 4865,10500 Z"/>
     <path fill="rgb(213,213,213)" stroke="none" d="M 4865,10999 L 4865,10500 4682,10500 5057,10283 5057,11478 4428,11841 4428,10999 4865,10999 Z M 4849,10516 L 4849,10983 4428,10983 4428,10647 4654,10516 4849,10516 Z"/>
     <path fill="rgb(214,214,214)" stroke="none" d="M 4849,10983 L 4849,10516 4654,10516 5057,10283 5057,11478 4428,11841 4428,10983 4849,10983 Z M 4834,10531 L 4834,10968 4428,10968 4428,10647 4628,10531 4834,10531 Z"/>
     <path fill="rgb(215,215,215)" stroke="none" d="M 4834,10968 L 4834,10531 4628,10531 5057,10283 5057,11478 4428,11841 4428,10968 4834,10968 Z M 4818,10547 L 4818,10952 4428,10952 4428,10647 4601,10547 4818,10547 Z"/>
     <path fill="rgb(216,216,216)" stroke="none" d="M 4818,10952 L 4818,10547 4601,10547 5057,10283 5057,11478 4428,11841 4428,10952 4818,10952 Z M 4802,10563 L 4802,10936 4429,10936 4429,10646 4573,10563 4802,10563 Z"/>
     <path fill="rgb(217,217,217)" stroke="none" d="M 4429,10936 L 4802,10936 4802,10563 4573,10563 5057,10283 5057,11478 4428,11841 4428,10647 4429,10646 4429,10936 Z M 4787,10578 L 4787,10921 4444,10921 4444,10638 4547,10578 4787,10578 Z"/>
     <path fill="rgb(218,218,218)" stroke="none" d="M 4444,10921 L 4787,10921 4787,10578 4547,10578 5057,10283 5057,11478 4428,11841 4428,10647 4444,10638 4444,10921 Z M 4771,10594 L 4771,10905 4460,10905 4460,10628 4520,10594 4771,10594 Z"/>
     <path fill="rgb(219,219,219)" stroke="none" d="M 4460,10905 L 4771,10905 4771,10594 4520,10594 5057,10283 5057,11478 4428,11841 4428,10647 4460,10628 4460,10905 Z M 4755,10610 L 4755,10889 4476,10889 4476,10619 4492,10610 4755,10610 Z"/>
     <path fill="rgb(220,220,220)" stroke="none" d="M 4476,10889 L 4755,10889 4755,10610 4492,10610 5057,10283 5057,11478 4428,11841 4428,10647 4476,10619 4476,10889 Z M 4491,10625 L 4740,10625 4740,10874 4491,10874 4491,10625 Z"/>
     <path fill="rgb(221,221,221)" stroke="none" d="M 4491,10625 L 4491,10874 4740,10874 4740,10625 4491,10625 Z M 4507,10641 L 4724,10641 4724,10858 4507,10858 4507,10641 Z M 5057,11478 L 4428,11841 4428,10647 5057,10283 5057,11478 Z"/>
     <path fill="rgb(222,222,222)" stroke="none" d="M 4507,10641 L 4507,10858 4724,10858 4724,10641 4507,10641 Z M 4522,10656 L 4709,10656 4709,10843 4522,10843 4522,10656 Z M 5057,11478 L 4428,11841 4428,10647 5057,10283 5057,11478 Z"/>
     <path fill="rgb(223,223,223)" stroke="none" d="M 4522,10656 L 4522,10843 4709,10843 4709,10656 4522,10656 Z M 4538,10672 L 4693,10672 4693,10827 4538,10827 4538,10672 Z M 5057,11478 L 4428,11841 4428,10647 5057,10283 5057,11478 Z"/>
     <path fill="rgb(224,224,224)" stroke="none" d="M 4538,10672 L 4538,10827 4693,10827 4693,10672 4538,10672 Z M 4554,10688 L 4677,10688 4677,10811 4554,10811 4554,10688 Z M 5057,11478 L 4428,11841 4428,10647 5057,10283 5057,11478 Z"/>
     <path fill="rgb(225,225,225)" stroke="none" d="M 4554,10688 L 4554,10811 4677,10811 4677,10688 4554,10688 Z M 4569,10703 L 4662,10703 4662,10796 4569,10796 4569,10703 Z M 5057,11478 L 4428,11841 4428,10647 5057,10283 5057,11478 Z"/>
     <path fill="rgb(226,226,226)" stroke="none" d="M 4569,10703 L 4569,10796 4662,10796 4662,10703 4569,10703 Z M 4585,10719 L 4646,10719 4646,10780 4585,10780 4585,10719 Z M 5057,11478 L 4428,11841 4428,10647 5057,10283 5057,11478 Z"/>
     <path fill="rgb(227,227,227)" stroke="none" d="M 4585,10719 L 4585,10780 4646,10780 4646,10719 4585,10719 Z M 4600,10734 L 4631,10734 4631,10765 4600,10765 4600,10734 Z M 5057,11478 L 4428,11841 4428,10647 5057,10283 5057,11478 Z"/>
     <path fill="rgb(229,229,229)" stroke="none" d="M 4600,10734 L 4600,10765 4631,10765 4631,10734 4600,10734 Z M 5057,11478 L 4428,11841 4428,10647 5057,10283 5057,11478 Z"/>
     <path fill="none" stroke="rgb(255,255,255)" id="Drawing_2_0" stroke-width="40" stroke-linejoin="round" d="M 5057,11478 L 5057,10283 4428,10647 4428,11841 5057,11478 Z"/>
    </g>
    <g>
     <defs>
      <linearGradient id="Gradient_145" gradientUnits="userSpaceOnUse" x1="4516" y1="10984" x2="4967" y2="10984">
       <stop offset="0.1" stop-color="rgb(147,212,240)"/>
       <stop offset="1" stop-color="rgb(233,246,252)"/>
      </linearGradient>
     </defs>
     <path fill="url(#Gradient_145)" stroke="rgb(127,127,127)" id="Drawing_3_0" stroke-width="40" stroke-linejoin="round" d="M 4967,11270 L 4967,10439 4518,10699 4518,11530 4967,11270 Z"/>
    </g>
    <g>
     <defs>
      <linearGradient id="Gradient_146" gradientUnits="userSpaceOnUse" x1="4697" y1="10231" x2="4697" y2="10646">
       <stop offset="0.1" stop-color="rgb(179,179,179)"/>
       <stop offset="1" stop-color="rgb(229,229,229)"/>
      </linearGradient>
     </defs>
     <path fill="url(#Gradient_146)" stroke="rgb(255,255,255)" id="Drawing_4_0" stroke-width="40" stroke-linejoin="round" d="M 4428,10646 L 5057,10283 4967,10231 4338,10595 4428,10646 Z"/>
    </g>
    <g>
     <defs>
      <linearGradient id="Gradient_147" gradientUnits="userSpaceOnUse" x1="4337" y1="11218" x2="4429" y2="11218">
       <stop offset="0.1" stop-color="rgb(179,179,179)"/>
       <stop offset="1" stop-color="rgb(229,229,229)"/>
      </linearGradient>
     </defs>
     <path fill="url(#Gradient_147)" stroke="rgb(255,255,255)" id="Drawing_5_0" stroke-width="40" stroke-linejoin="round" d="M 4428,11841 L 4428,10647 4338,10595 4338,11790 4428,11841 Z"/>
    </g>
    <g>
     <path fill="none" stroke="rgb(0,0,0)" id="Drawing_6_0" stroke-width="40" stroke-linejoin="round" d="M 4967,10231 L 4338,10595 4338,11789 4428,11841 5057,11477 5057,10283 4967,10231 Z"/>
    </g>
    <g>
     <path fill="none" stroke="rgb(127,127,127)" id="Drawing_7_0" stroke-width="40" stroke-linejoin="round" d="M 4877,11426 L 4607,11582"/>
    </g>
   </g>
  </g>
 </g>
</svg>