<?xml version="1.0" encoding="UTF-8"?>

<svg version="1.2" baseProfile="tiny" width="9.65mm" height="16.5mm" viewBox="8401 9947 965 1650" preserveAspectRatio="xMidYMid" fill-rule="evenodd" stroke-width="28.222" stroke-linejoin="round" xmlns="http://www.w3.org/2000/svg" xmlns:xlink="http://www.w3.org/1999/xlink" xml:space="preserve">
 <g visibility="visible" id="Slide_1">
  <g id="DrawingGroup_1">
   <g>
    <path fill="rgb(221,221,221)" stroke="none" d="M 8712,11442 C 8798,11437 9168,11367 9289,11297 9410,11227 9318,11022 9197,11022 9076,11022 8677,11444 8712,11442 Z"/>
    <path fill="none" stroke="rgb(221,221,221)" id="Drawing_1_0" stroke-width="40" stroke-linejoin="round" d="M 8712,11442 C 8798,11437 9168,11367 9289,11297 9410,11227 9318,11022 9197,11022 9076,11022 8677,11444 8712,11442 Z"/>
   </g>
   <g id="DrawingGroup_2">
    <g>
     <path fill="rgb(102,102,102)" stroke="none" d="M 8511,11250 L 8511,10383 9140,10019 9140,11214 9078,11250 8511,11250 Z"/>
     <path fill="rgb(103,103,103)" stroke="none" d="M 9078,11250 L 8511,11577 8511,11250 9078,11250 Z M 8511,11235 L 8511,10383 9140,10019 9140,11214 9104,11235 8511,11235 Z"/>
     <path fill="rgb(104,104,104)" stroke="none" d="M 9104,11235 L 8511,11577 8511,11235 9104,11235 Z M 8511,11220 L 8511,10383 9140,10019 9140,11214 9130,11220 8511,11220 Z"/>
     <path fill="rgb(105,105,105)" stroke="none" d="M 9130,11220 L 8511,11577 8511,11220 9130,11220 Z M 8511,11204 L 8511,10383 9140,10019 9140,11204 8511,11204 Z"/>
     <path fill="rgb(106,106,106)" stroke="none" d="M 9140,11204 L 9140,11214 8511,11577 8511,11204 9140,11204 Z M 8511,11189 L 8511,10383 9140,10019 9140,11189 8511,11189 Z"/>
     <path fill="rgb(107,107,107)" stroke="none" d="M 9140,11189 L 9140,11214 8511,11577 8511,11189 9140,11189 Z M 8511,11174 L 8511,10383 9140,10019 9140,11174 8511,11174 Z"/>
     <path fill="rgb(108,108,108)" stroke="none" d="M 9140,11174 L 9140,11214 8511,11577 8511,11174 9140,11174 Z M 8511,11158 L 8511,10383 9140,10019 9140,11158 8511,11158 Z"/>
     <path fill="rgb(109,109,109)" stroke="none" d="M 9140,11158 L 9140,11214 8511,11577 8511,11158 9140,11158 Z M 8511,11143 L 8511,10383 9140,10019 9140,11143 8511,11143 Z"/>
     <path fill="rgb(110,110,110)" stroke="none" d="M 9140,11143 L 9140,11214 8511,11577 8511,11143 9140,11143 Z M 8511,11128 L 8511,10383 9140,10019 9140,11128 8511,11128 Z"/>
     <path fill="rgb(111,111,111)" stroke="none" d="M 9140,11128 L 9140,11214 8511,11577 8511,11128 9140,11128 Z M 8511,11112 L 8511,10383 9140,10019 9140,11112 8511,11112 Z"/>
     <path fill="rgb(112,112,112)" stroke="none" d="M 9140,11112 L 9140,11214 8511,11577 8511,11112 9140,11112 Z M 8511,11097 L 8511,10383 9140,10019 9140,11097 8511,11097 Z"/>
     <path fill="rgb(113,113,113)" stroke="none" d="M 9140,11097 L 9140,11214 8511,11577 8511,11097 9140,11097 Z M 8511,11082 L 8511,10383 9140,10019 9140,11082 8511,11082 Z"/>
     <path fill="rgb(114,114,114)" stroke="none" d="M 9140,11082 L 9140,11214 8511,11577 8511,11082 9140,11082 Z M 8511,11067 L 8511,10383 9140,10019 9140,11067 8511,11067 Z"/>
     <path fill="rgb(115,115,115)" stroke="none" d="M 9140,11067 L 9140,11214 8511,11577 8511,11067 9140,11067 Z M 8511,11051 L 8511,10383 9140,10019 9140,11051 8511,11051 Z"/>
     <path fill="rgb(116,116,116)" stroke="none" d="M 9140,11051 L 9140,11214 8511,11577 8511,11051 9140,11051 Z M 8511,11036 L 8511,10383 9140,10019 9140,11036 8511,11036 Z"/>
     <path fill="rgb(117,117,117)" stroke="none" d="M 9140,11036 L 9140,11214 8511,11577 8511,11036 9140,11036 Z M 8511,11021 L 8511,10383 9140,10019 9140,11021 8511,11021 Z"/>
     <path fill="rgb(118,118,118)" stroke="none" d="M 9140,11021 L 9140,11214 8511,11577 8511,11021 9140,11021 Z M 8511,11005 L 8511,10383 9140,10019 9140,11005 8511,11005 Z"/>
     <path fill="rgb(119,119,119)" stroke="none" d="M 9140,11005 L 9140,11214 8511,11577 8511,11005 9140,11005 Z M 8511,10990 L 8511,10383 9140,10019 9140,10990 8511,10990 Z"/>
     <path fill="rgb(120,120,120)" stroke="none" d="M 9140,10990 L 9140,11214 8511,11577 8511,10990 9140,10990 Z M 8511,10975 L 8511,10383 9140,10019 9140,10975 8511,10975 Z"/>
     <path fill="rgb(121,121,121)" stroke="none" d="M 9140,10975 L 9140,11214 8511,11577 8511,10975 9140,10975 Z M 8511,10959 L 8511,10383 9140,10019 9140,10959 8511,10959 Z"/>
     <path fill="rgb(122,122,122)" stroke="none" d="M 9140,10959 L 9140,11214 8511,11577 8511,10959 9140,10959 Z M 9140,10027 L 9140,10944 8511,10944 8511,10383 9126,10027 9140,10027 Z"/>
     <path fill="rgb(123,123,123)" stroke="none" d="M 9140,10944 L 9140,11214 8511,11577 8511,10944 9140,10944 Z M 9126,10027 L 9140,10019 9140,10027 9126,10027 Z M 9140,10042 L 9140,10929 8511,10929 8511,10383 9100,10042 9140,10042 Z"/>
     <path fill="rgb(124,124,124)" stroke="none" d="M 9140,10929 L 9140,11214 8511,11577 8511,10929 9140,10929 Z M 9100,10042 L 9140,10019 9140,10042 9100,10042 Z M 9127,10057 L 9127,10914 8511,10914 8511,10383 9074,10057 9127,10057 Z"/>
     <path fill="rgb(125,125,125)" stroke="none" d="M 9127,10914 L 9127,10057 9074,10057 9140,10019 9140,11214 8511,11577 8511,10914 9127,10914 Z M 9111,10073 L 9111,10898 8511,10898 8511,10383 9047,10073 9111,10073 Z"/>
     <path fill="rgb(126,126,126)" stroke="none" d="M 9111,10898 L 9111,10073 9047,10073 9140,10019 9140,11214 8511,11577 8511,10898 9111,10898 Z M 9096,10088 L 9096,10883 8511,10883 8511,10383 9021,10088 9096,10088 Z"/>
     <path fill="rgb(127,127,127)" stroke="none" d="M 9096,10883 L 9096,10088 9021,10088 9140,10019 9140,11214 8511,11577 8511,10883 9096,10883 Z M 9081,10103 L 9081,10868 8511,10868 8511,10383 8995,10103 9081,10103 Z"/>
     <path fill="rgb(128,128,128)" stroke="none" d="M 9081,10868 L 9081,10103 8995,10103 9140,10019 9140,11214 8511,11577 8511,10868 9081,10868 Z M 9065,10119 L 9065,10852 8511,10852 8511,10383 8967,10119 9065,10119 Z"/>
     <path fill="rgb(129,129,129)" stroke="none" d="M 9065,10852 L 9065,10119 8967,10119 9140,10019 9140,11214 8511,11577 8511,10852 9065,10852 Z M 9050,10134 L 9050,10837 8511,10837 8511,10383 8941,10134 9050,10134 Z"/>
     <path fill="rgb(130,130,130)" stroke="none" d="M 9050,10837 L 9050,10134 8941,10134 9140,10019 9140,11214 8511,11577 8511,10837 9050,10837 Z M 9035,10149 L 9035,10822 8511,10822 8511,10383 8915,10149 9035,10149 Z"/>
     <path fill="rgb(131,131,131)" stroke="none" d="M 9035,10822 L 9035,10149 8915,10149 9140,10019 9140,11214 8511,11577 8511,10822 9035,10822 Z M 9019,10165 L 9019,10806 8511,10806 8511,10383 8888,10165 9019,10165 Z"/>
     <path fill="rgb(132,132,132)" stroke="none" d="M 9019,10806 L 9019,10165 8888,10165 9140,10019 9140,11214 8511,11577 8511,10806 9019,10806 Z M 9004,10180 L 9004,10791 8511,10791 8511,10383 8862,10180 9004,10180 Z"/>
     <path fill="rgb(133,133,133)" stroke="none" d="M 9004,10791 L 9004,10180 8862,10180 9140,10019 9140,11214 8511,11577 8511,10791 9004,10791 Z M 8989,10195 L 8989,10776 8511,10776 8511,10383 8836,10195 8989,10195 Z"/>
     <path fill="rgb(134,134,134)" stroke="none" d="M 8989,10776 L 8989,10195 8836,10195 9140,10019 9140,11214 8511,11577 8511,10776 8989,10776 Z M 8973,10211 L 8973,10760 8511,10760 8511,10383 8808,10211 8973,10211 Z"/>
     <path fill="rgb(135,135,135)" stroke="none" d="M 8973,10760 L 8973,10211 8808,10211 9140,10019 9140,11214 8511,11577 8511,10760 8973,10760 Z M 8958,10226 L 8958,10745 8511,10745 8511,10383 8782,10226 8958,10226 Z"/>
     <path fill="rgb(136,136,136)" stroke="none" d="M 8958,10745 L 8958,10226 8782,10226 9140,10019 9140,11214 8511,11577 8511,10745 8958,10745 Z M 8943,10241 L 8943,10730 8511,10730 8511,10383 8756,10241 8943,10241 Z"/>
     <path fill="rgb(137,137,137)" stroke="none" d="M 8943,10730 L 8943,10241 8756,10241 9140,10019 9140,11214 8511,11577 8511,10730 8943,10730 Z M 8928,10256 L 8928,10715 8511,10715 8511,10383 8730,10256 8928,10256 Z"/>
     <path fill="rgb(138,138,138)" stroke="none" d="M 8928,10715 L 8928,10256 8730,10256 9140,10019 9140,11214 8511,11577 8511,10715 8928,10715 Z M 8912,10272 L 8912,10699 8511,10699 8511,10383 8703,10272 8912,10272 Z"/>
     <path fill="rgb(139,139,139)" stroke="none" d="M 8912,10699 L 8912,10272 8703,10272 9140,10019 9140,11214 8511,11577 8511,10699 8912,10699 Z M 8897,10287 L 8897,10684 8511,10684 8511,10383 8677,10287 8897,10287 Z"/>
     <path fill="rgb(140,140,140)" stroke="none" d="M 8897,10684 L 8897,10287 8677,10287 9140,10019 9140,11214 8511,11577 8511,10684 8897,10684 Z M 8882,10302 L 8882,10669 8515,10669 8515,10381 8651,10302 8882,10302 Z"/>
     <path fill="rgb(141,141,141)" stroke="none" d="M 8515,10669 L 8882,10669 8882,10302 8651,10302 9140,10019 9140,11214 8511,11577 8511,10383 8515,10381 8515,10669 Z M 8866,10318 L 8866,10653 8531,10653 8531,10371 8623,10318 8866,10318 Z"/>
     <path fill="rgb(142,142,142)" stroke="none" d="M 8531,10653 L 8866,10653 8866,10318 8623,10318 9140,10019 9140,11214 8511,11577 8511,10383 8531,10371 8531,10653 Z M 8851,10333 L 8851,10638 8546,10638 8546,10363 8597,10333 8851,10333 Z"/>
     <path fill="rgb(143,143,143)" stroke="none" d="M 8546,10638 L 8851,10638 8851,10333 8597,10333 9140,10019 9140,11214 8511,11577 8511,10383 8546,10363 8546,10638 Z M 8836,10348 L 8836,10623 8561,10623 8561,10354 8571,10348 8836,10348 Z"/>
     <path fill="rgb(144,144,144)" stroke="none" d="M 8561,10623 L 8836,10623 8836,10348 8571,10348 9140,10019 9140,11214 8511,11577 8511,10383 8561,10354 8561,10623 Z M 8577,10364 L 8820,10364 8820,10607 8577,10607 8577,10364 Z"/>
     <path fill="rgb(145,145,145)" stroke="none" d="M 8577,10364 L 8577,10607 8820,10607 8820,10364 8577,10364 Z M 8592,10379 L 8805,10379 8805,10592 8592,10592 8592,10379 Z M 9140,11214 L 8511,11577 8511,10383 9140,10019 9140,11214 Z"/>
     <path fill="rgb(146,146,146)" stroke="none" d="M 8592,10379 L 8592,10592 8805,10592 8805,10379 8592,10379 Z M 8607,10394 L 8790,10394 8790,10577 8607,10577 8607,10394 Z M 9140,11214 L 8511,11577 8511,10383 9140,10019 9140,11214 Z"/>
     <path fill="rgb(147,147,147)" stroke="none" d="M 8607,10394 L 8607,10577 8790,10577 8790,10394 8607,10394 Z M 8622,10409 L 8775,10409 8775,10562 8622,10562 8622,10409 Z M 9140,11214 L 8511,11577 8511,10383 9140,10019 9140,11214 Z"/>
     <path fill="rgb(148,148,148)" stroke="none" d="M 8622,10409 L 8622,10562 8775,10562 8775,10409 8622,10409 Z M 8638,10425 L 8759,10425 8759,10546 8638,10546 8638,10425 Z M 9140,11214 L 8511,11577 8511,10383 9140,10019 9140,11214 Z"/>
     <path fill="rgb(149,149,149)" stroke="none" d="M 8638,10425 L 8638,10546 8759,10546 8759,10425 8638,10425 Z M 8653,10440 L 8744,10440 8744,10531 8653,10531 8653,10440 Z M 9140,11214 L 8511,11577 8511,10383 9140,10019 9140,11214 Z"/>
     <path fill="rgb(150,150,150)" stroke="none" d="M 8653,10440 L 8653,10531 8744,10531 8744,10440 8653,10440 Z M 8668,10455 L 8729,10455 8729,10516 8668,10516 8668,10455 Z M 9140,11214 L 8511,11577 8511,10383 9140,10019 9140,11214 Z"/>
     <path fill="rgb(151,151,151)" stroke="none" d="M 8668,10455 L 8668,10516 8729,10516 8729,10455 8668,10455 Z M 8684,10471 L 8713,10471 8713,10500 8684,10500 8684,10471 Z M 9140,11214 L 8511,11577 8511,10383 9140,10019 9140,11214 Z"/>
     <path fill="rgb(153,153,153)" stroke="none" d="M 8684,10471 L 8684,10500 8713,10500 8713,10471 8684,10471 Z M 9140,11214 L 8511,11577 8511,10383 9140,10019 9140,11214 Z"/>
     <path fill="none" stroke="rgb(178,178,178)" id="Drawing_2_0" stroke-width="40" stroke-linejoin="round" d="M 9140,11214 L 9140,10019 8511,10383 8511,11577 9140,11214 Z"/>
    </g>
    <g>
     <defs>
      <linearGradient id="Gradient_148" gradientUnits="userSpaceOnUse" x1="8599" y1="10720" x2="9050" y2="10720">
       <stop offset="0.1" stop-color="rgb(147,212,240)"/>
       <stop offset="1" stop-color="rgb(233,246,252)"/>
      </linearGradient>
     </defs>
     <path fill="url(#Gradient_148)" stroke="rgb(102,102,102)" id="Drawing_3_0" stroke-width="40" stroke-linejoin="round" d="M 9050,11006 L 9050,10175 8601,10435 8601,11266 9050,11006 Z"/>
    </g>
    <g>
     <defs>
      <linearGradient id="Gradient_149" gradientUnits="userSpaceOnUse" x1="8780" y1="9967" x2="8780" y2="10382">
       <stop offset="0.1" stop-color="rgb(51,51,51)"/>
       <stop offset="1" stop-color="rgb(153,153,153)"/>
      </linearGradient>
     </defs>
     <path fill="url(#Gradient_149)" stroke="rgb(178,178,178)" id="Drawing_4_0" stroke-width="40" stroke-linejoin="round" d="M 8511,10382 L 9140,10019 9050,9967 8421,10331 8511,10382 Z"/>
    </g>
    <g>
     <defs>
      <linearGradient id="Gradient_150" gradientUnits="userSpaceOnUse" x1="8420" y1="10954" x2="8512" y2="10954">
       <stop offset="0.1" stop-color="rgb(102,102,102)"/>
       <stop offset="1" stop-color="rgb(153,153,153)"/>
      </linearGradient>
     </defs>
     <path fill="url(#Gradient_150)" stroke="rgb(178,178,178)" id="Drawing_5_0" stroke-width="40" stroke-linejoin="round" d="M 8511,11577 L 8511,10383 8421,10331 8421,11526 8511,11577 Z"/>
    </g>
    <g>
     <path fill="none" stroke="rgb(0,0,0)" id="Drawing_6_0" stroke-width="40" stroke-linejoin="round" d="M 9050,9967 L 8421,10331 8421,11525 8511,11577 9140,11213 9140,10019 9050,9967 Z"/>
    </g>
    <g>
     <path fill="none" stroke="rgb(102,102,102)" id="Drawing_7_0" stroke-width="40" stroke-linejoin="round" d="M 8960,11162 L 8690,11318"/>
    </g>
   </g>
  </g>
 </g>
</svg>