<?xml version="1.0" encoding="UTF-8"?>

<svg version="1.2" baseProfile="tiny" width="11.45mm" height="16.5mm" viewBox="2830 6092 1145 1650" preserveAspectRatio="xMidYMid" fill-rule="evenodd" stroke-width="28.222" stroke-linejoin="round" xmlns="http://www.w3.org/2000/svg" xmlns:xlink="http://www.w3.org/1999/xlink" xml:space="preserve">
 <g visibility="visible" id="Slide_1">
  <g id="DrawingGroup_1">
   <g>
    <path fill="rgb(221,221,221)" stroke="none" d="M 3506,7722 C 3752,7722 4028,7670 3938,7463 3849,7255 3815,7255 3569,7255 3569,7411 3412,7203 3506,7722 Z"/>
    <path fill="none" stroke="rgb(221,221,221)" id="Drawing_1_0" stroke-width="40" stroke-linejoin="round" d="M 3506,7722 C 3752,7722 4028,7670 3938,7463 3849,7255 3815,7255 3569,7255 3569,7411 3412,7203 3506,7722 Z"/>
   </g>
   <g id="DrawingGroup_2">
    <g>
     <defs>
      <linearGradient id="Gradient_136" gradientUnits="userSpaceOnUse" x1="2848" y1="6942" x2="3479" y2="6944">
       <stop offset="0.1" stop-color="rgb(179,179,179)"/>
       <stop offset="1" stop-color="rgb(229,229,229)"/>
      </linearGradient>
     </defs>
     <path fill="url(#Gradient_136)" stroke="rgb(255,255,255)" id="Drawing_2_0" stroke-width="40" stroke-linejoin="round" d="M 2850,7359 L 2850,6164 3479,6528 3479,7722 2850,7359 Z"/>
    </g>
    <g>
     <defs>
      <linearGradient id="Gradient_137" gradientUnits="userSpaceOnUse" x1="2938" y1="6865" x2="3389" y2="6865">
       <stop offset="0.1" stop-color="rgb(147,212,240)"/>
       <stop offset="1" stop-color="rgb(233,246,252)"/>
      </linearGradient>
     </defs>
     <path fill="url(#Gradient_137)" stroke="rgb(127,127,127)" id="Drawing_3_0" stroke-width="40" stroke-linejoin="round" d="M 2940,7151 L 2940,6320 3389,6580 3389,7411 2940,7151 Z"/>
    </g>
    <g>
     <defs>
      <linearGradient id="Gradient_138" gradientUnits="userSpaceOnUse" x1="3209" y1="6112" x2="3209" y2="6527">
       <stop offset="0.1" stop-color="rgb(179,179,179)"/>
       <stop offset="1" stop-color="rgb(229,229,229)"/>
      </linearGradient>
     </defs>
     <path fill="url(#Gradient_138)" stroke="rgb(255,255,255)" id="Drawing_4_0" stroke-width="40" stroke-linejoin="round" d="M 3479,6527 L 2850,6164 2940,6112 3569,6476 3479,6527 Z"/>
    </g>
    <g>
     <path fill="rgb(179,179,179)" stroke="none" d="M 3479,7460 L 3479,6528 3569,6476 3569,7460 3479,7460 Z"/>
     <path fill="rgb(180,180,180)" stroke="none" d="M 3569,7460 L 3569,7671 3479,7722 3479,7460 3569,7460 Z M 3479,7448 L 3479,6528 3569,6476 3569,7448 3479,7448 Z"/>
     <path fill="rgb(181,181,181)" stroke="none" d="M 3569,7448 L 3569,7671 3479,7722 3479,7448 3569,7448 Z M 3479,7435 L 3479,6528 3569,6476 3569,7435 3479,7435 Z"/>
     <path fill="rgb(182,182,182)" stroke="none" d="M 3569,7435 L 3569,7671 3479,7722 3479,7435 3569,7435 Z M 3479,7423 L 3479,6528 3569,6476 3569,7423 3479,7423 Z"/>
     <path fill="rgb(183,183,183)" stroke="none" d="M 3569,7423 L 3569,7671 3479,7722 3479,7423 3569,7423 Z M 3479,7410 L 3479,6528 3569,6476 3569,7410 3479,7410 Z"/>
     <path fill="rgb(184,184,184)" stroke="none" d="M 3569,7410 L 3569,7671 3479,7722 3479,7410 3569,7410 Z M 3479,7398 L 3479,6528 3569,6476 3569,7398 3479,7398 Z"/>
     <path fill="rgb(185,185,185)" stroke="none" d="M 3569,7398 L 3569,7671 3479,7722 3479,7398 3569,7398 Z M 3479,7385 L 3479,6528 3569,6476 3569,7385 3479,7385 Z"/>
     <path fill="rgb(186,186,186)" stroke="none" d="M 3569,7385 L 3569,7671 3479,7722 3479,7385 3569,7385 Z M 3479,7373 L 3479,6528 3569,6476 3569,7373 3479,7373 Z"/>
     <path fill="rgb(187,187,187)" stroke="none" d="M 3569,7373 L 3569,7671 3479,7722 3479,7373 3569,7373 Z M 3479,7360 L 3479,6528 3569,6476 3569,7360 3479,7360 Z"/>
     <path fill="rgb(188,188,188)" stroke="none" d="M 3569,7360 L 3569,7671 3479,7722 3479,7360 3569,7360 Z M 3479,7348 L 3479,6528 3569,6476 3569,7348 3479,7348 Z"/>
     <path fill="rgb(189,189,189)" stroke="none" d="M 3569,7348 L 3569,7671 3479,7722 3479,7348 3569,7348 Z M 3479,7335 L 3479,6528 3569,6476 3569,7335 3479,7335 Z"/>
     <path fill="rgb(190,190,190)" stroke="none" d="M 3569,7335 L 3569,7671 3479,7722 3479,7335 3569,7335 Z M 3479,7323 L 3479,6528 3569,6476 3569,7323 3479,7323 Z"/>
     <path fill="rgb(191,191,191)" stroke="none" d="M 3569,7323 L 3569,7671 3479,7722 3479,7323 3569,7323 Z M 3479,7310 L 3479,6528 3569,6476 3569,7310 3479,7310 Z"/>
     <path fill="rgb(192,192,192)" stroke="none" d="M 3569,7310 L 3569,7671 3479,7722 3479,7310 3569,7310 Z M 3479,7298 L 3479,6528 3569,6476 3569,7298 3479,7298 Z"/>
     <path fill="rgb(193,193,193)" stroke="none" d="M 3569,7298 L 3569,7671 3479,7722 3479,7298 3569,7298 Z M 3479,7285 L 3479,6528 3569,6476 3569,7285 3479,7285 Z"/>
     <path fill="rgb(194,194,194)" stroke="none" d="M 3569,7285 L 3569,7671 3479,7722 3479,7285 3569,7285 Z M 3479,7273 L 3479,6528 3569,6476 3569,7273 3479,7273 Z"/>
     <path fill="rgb(195,195,195)" stroke="none" d="M 3569,7273 L 3569,7671 3479,7722 3479,7273 3569,7273 Z M 3479,7260 L 3479,6528 3569,6476 3569,7260 3479,7260 Z"/>
     <path fill="rgb(196,196,196)" stroke="none" d="M 3569,7260 L 3569,7671 3479,7722 3479,7260 3569,7260 Z M 3479,7248 L 3479,6528 3569,6476 3569,7248 3479,7248 Z"/>
     <path fill="rgb(197,197,197)" stroke="none" d="M 3569,7248 L 3569,7671 3479,7722 3479,7248 3569,7248 Z M 3479,7235 L 3479,6528 3569,6476 3569,7235 3479,7235 Z"/>
     <path fill="rgb(198,198,198)" stroke="none" d="M 3569,7235 L 3569,7671 3479,7722 3479,7235 3569,7235 Z M 3479,7223 L 3479,6528 3569,6476 3569,7223 3479,7223 Z"/>
     <path fill="rgb(199,199,199)" stroke="none" d="M 3569,7223 L 3569,7671 3479,7722 3479,7223 3569,7223 Z M 3569,6487 L 3569,7210 3479,7210 3479,6528 3550,6487 3569,6487 Z"/>
     <path fill="rgb(200,200,200)" stroke="none" d="M 3569,7210 L 3569,7671 3479,7722 3479,7210 3569,7210 Z M 3550,6487 L 3569,6476 3569,6487 3550,6487 Z M 3569,6499 L 3569,7198 3479,7198 3479,6528 3529,6499 3569,6499 Z"/>
     <path fill="rgb(201,201,201)" stroke="none" d="M 3569,7198 L 3569,7671 3479,7722 3479,7198 3569,7198 Z M 3529,6499 L 3569,6476 3569,6499 3529,6499 Z M 3569,6512 L 3569,7185 3479,7185 3479,6528 3507,6512 3569,6512 Z"/>
     <path fill="rgb(202,202,202)" stroke="none" d="M 3569,7185 L 3569,7671 3479,7722 3479,7185 3569,7185 Z M 3507,6512 L 3569,6476 3569,6512 3507,6512 Z M 3569,6524 L 3569,7173 3479,7173 3479,6528 3486,6524 3569,6524 Z"/>
     <path fill="rgb(203,203,203)" stroke="none" d="M 3569,7173 L 3569,7671 3479,7722 3479,7173 3569,7173 Z M 3486,6524 L 3569,6476 3569,6524 3486,6524 Z M 3569,6537 L 3569,7160 3479,7160 3479,6537 3569,6537 Z"/>
     <path fill="rgb(204,204,204)" stroke="none" d="M 3569,7160 L 3569,7671 3479,7722 3479,7160 3569,7160 Z M 3479,6537 L 3479,6528 3569,6476 3569,6537 3479,6537 Z M 3569,6549 L 3569,7148 3479,7148 3479,6549 3569,6549 Z"/>
     <path fill="rgb(205,205,205)" stroke="none" d="M 3569,7148 L 3569,7671 3479,7722 3479,7148 3569,7148 Z M 3479,6549 L 3479,6528 3569,6476 3569,6549 3479,6549 Z M 3569,6562 L 3569,7135 3479,7135 3479,6562 3569,6562 Z"/>
     <path fill="rgb(206,206,206)" stroke="none" d="M 3569,7135 L 3569,7671 3479,7722 3479,7135 3569,7135 Z M 3479,6562 L 3479,6528 3569,6476 3569,6562 3479,6562 Z M 3569,6574 L 3569,7123 3479,7123 3479,6574 3569,6574 Z"/>
     <path fill="rgb(207,207,207)" stroke="none" d="M 3569,7123 L 3569,7671 3479,7722 3479,7123 3569,7123 Z M 3479,6574 L 3479,6528 3569,6476 3569,6574 3479,6574 Z M 3569,6587 L 3569,7110 3479,7110 3479,6587 3569,6587 Z"/>
     <path fill="rgb(208,208,208)" stroke="none" d="M 3569,7110 L 3569,7671 3479,7722 3479,7110 3569,7110 Z M 3479,6587 L 3479,6528 3569,6476 3569,6587 3479,6587 Z M 3569,6599 L 3569,7098 3479,7098 3479,6599 3569,6599 Z"/>
     <path fill="rgb(209,209,209)" stroke="none" d="M 3569,7098 L 3569,7671 3479,7722 3479,7098 3569,7098 Z M 3479,6599 L 3479,6528 3569,6476 3569,6599 3479,6599 Z M 3569,6612 L 3569,7085 3479,7085 3479,6612 3569,6612 Z"/>
     <path fill="rgb(210,210,210)" stroke="none" d="M 3569,7085 L 3569,7671 3479,7722 3479,7085 3569,7085 Z M 3479,6612 L 3479,6528 3569,6476 3569,6612 3479,6612 Z M 3569,6624 L 3569,7073 3479,7073 3479,6624 3569,6624 Z"/>
     <path fill="rgb(211,211,211)" stroke="none" d="M 3569,7073 L 3569,7671 3479,7722 3479,7073 3569,7073 Z M 3479,6624 L 3479,6528 3569,6476 3569,6624 3479,6624 Z M 3569,6637 L 3569,7060 3479,7060 3479,6637 3569,6637 Z"/>
     <path fill="rgb(212,212,212)" stroke="none" d="M 3569,7060 L 3569,7671 3479,7722 3479,7060 3569,7060 Z M 3479,6637 L 3479,6528 3569,6476 3569,6637 3479,6637 Z M 3569,6649 L 3569,7048 3479,7048 3479,6649 3569,6649 Z"/>
     <path fill="rgb(213,213,213)" stroke="none" d="M 3569,7048 L 3569,7671 3479,7722 3479,7048 3569,7048 Z M 3479,6649 L 3479,6528 3569,6476 3569,6649 3479,6649 Z M 3569,6662 L 3569,7035 3479,7035 3479,6662 3569,6662 Z"/>
     <path fill="rgb(214,214,214)" stroke="none" d="M 3569,7035 L 3569,7671 3479,7722 3479,7035 3569,7035 Z M 3479,6662 L 3479,6528 3569,6476 3569,6662 3479,6662 Z M 3569,6674 L 3569,7023 3479,7023 3479,6674 3569,6674 Z"/>
     <path fill="rgb(215,215,215)" stroke="none" d="M 3569,7023 L 3569,7671 3479,7722 3479,7023 3569,7023 Z M 3479,6674 L 3479,6528 3569,6476 3569,6674 3479,6674 Z M 3569,6687 L 3569,7010 3479,7010 3479,6687 3569,6687 Z"/>
     <path fill="rgb(216,216,216)" stroke="none" d="M 3569,7010 L 3569,7671 3479,7722 3479,7010 3569,7010 Z M 3479,6687 L 3479,6528 3569,6476 3569,6687 3479,6687 Z M 3569,6699 L 3569,6998 3479,6998 3479,6699 3569,6699 Z"/>
     <path fill="rgb(217,217,217)" stroke="none" d="M 3569,6998 L 3569,7671 3479,7722 3479,6998 3569,6998 Z M 3479,6699 L 3479,6528 3569,6476 3569,6699 3479,6699 Z M 3569,6712 L 3569,6985 3479,6985 3479,6712 3569,6712 Z"/>
     <path fill="rgb(218,218,218)" stroke="none" d="M 3569,6985 L 3569,7671 3479,7722 3479,6985 3569,6985 Z M 3479,6712 L 3479,6528 3569,6476 3569,6712 3479,6712 Z M 3569,6724 L 3569,6973 3479,6973 3479,6724 3569,6724 Z"/>
     <path fill="rgb(219,219,219)" stroke="none" d="M 3569,6973 L 3569,7671 3479,7722 3479,6973 3569,6973 Z M 3479,6724 L 3479,6528 3569,6476 3569,6724 3479,6724 Z M 3569,6737 L 3569,6960 3479,6960 3479,6737 3569,6737 Z"/>
     <path fill="rgb(220,220,220)" stroke="none" d="M 3569,6960 L 3569,7671 3479,7722 3479,6960 3569,6960 Z M 3479,6737 L 3479,6528 3569,6476 3569,6737 3479,6737 Z M 3569,6749 L 3569,6948 3479,6948 3479,6749 3569,6749 Z"/>
     <path fill="rgb(221,221,221)" stroke="none" d="M 3569,6948 L 3569,7671 3479,7722 3479,6948 3569,6948 Z M 3479,6749 L 3479,6528 3569,6476 3569,6749 3479,6749 Z M 3569,6762 L 3569,6935 3479,6935 3479,6762 3569,6762 Z"/>
     <path fill="rgb(222,222,222)" stroke="none" d="M 3569,6935 L 3569,7671 3479,7722 3479,6935 3569,6935 Z M 3479,6762 L 3479,6528 3569,6476 3569,6762 3479,6762 Z M 3569,6774 L 3569,6923 3479,6923 3479,6774 3569,6774 Z"/>
     <path fill="rgb(223,223,223)" stroke="none" d="M 3569,6923 L 3569,7671 3479,7722 3479,6923 3569,6923 Z M 3479,6774 L 3479,6528 3569,6476 3569,6774 3479,6774 Z M 3566,6787 L 3566,6910 3479,6910 3479,6787 3566,6787 Z"/>
     <path fill="rgb(224,224,224)" stroke="none" d="M 3566,6910 L 3566,6787 3479,6787 3479,6528 3569,6476 3569,7671 3479,7722 3479,6910 3566,6910 Z M 3554,6799 L 3554,6898 3479,6898 3479,6799 3554,6799 Z"/>
     <path fill="rgb(225,225,225)" stroke="none" d="M 3554,6898 L 3554,6799 3479,6799 3479,6528 3569,6476 3569,7671 3479,7722 3479,6898 3554,6898 Z M 3541,6812 L 3541,6885 3479,6885 3479,6812 3541,6812 Z"/>
     <path fill="rgb(226,226,226)" stroke="none" d="M 3541,6885 L 3541,6812 3479,6812 3479,6528 3569,6476 3569,7671 3479,7722 3479,6885 3541,6885 Z M 3480,6824 L 3529,6824 3529,6873 3480,6873 3480,6824 Z"/>
     <path fill="rgb(227,227,227)" stroke="none" d="M 3480,6824 L 3480,6873 3529,6873 3529,6824 3480,6824 Z M 3493,6837 L 3516,6837 3516,6860 3493,6860 3493,6837 Z M 3479,7722 L 3479,6528 3569,6476 3569,7671 3479,7722 Z"/>
     <path fill="rgb(229,229,229)" stroke="none" d="M 3493,6837 L 3493,6860 3516,6860 3516,6837 3493,6837 Z M 3479,7722 L 3479,6528 3569,6476 3569,7671 3479,7722 Z"/>
     <path fill="none" stroke="rgb(255,255,255)" id="Drawing_5_0" stroke-width="40" stroke-linejoin="round" d="M 3479,7722 L 3479,6528 3569,6476 3569,7671 3479,7722 Z"/>
    </g>
    <g>
     <path fill="none" stroke="rgb(0,0,0)" id="Drawing_6_0" stroke-width="40" stroke-linejoin="round" d="M 2940,6112 L 3569,6476 3569,7670 3479,7722 2850,7358 2850,6164 2940,6112 Z"/>
    </g>
    <g>
     <path fill="none" stroke="rgb(127,127,127)" id="Drawing_7_0" stroke-width="40" stroke-linejoin="round" d="M 3030,7307 L 3300,7463"/>
    </g>
   </g>
  </g>
 </g>
</svg>