<?xml version="1.0" encoding="UTF-8"?>

<svg version="1.2" baseProfile="tiny" width="15.46mm" height="31.2mm" viewBox="12986 5357 1546 3120" preserveAspectRatio="xMidYMid" fill-rule="evenodd" stroke-width="28.222" stroke-linejoin="round" xmlns="http://www.w3.org/2000/svg" xmlns:xlink="http://www.w3.org/1999/xlink" xml:space="preserve">
 <g visibility="visible" id="Slide_1">
  <g id="DrawingGroup_1">
   <g>
    <path fill="rgb(221,221,221)" stroke="none" d="M 13906,8037 C 14163,8037 14512,7859 14512,7751 14512,7643 14419,7589 14232,7589 14232,7751 13906,8037 13906,8037 Z"/>
    <path fill="none" stroke="rgb(221,221,221)" id="Drawing_1_0" stroke-width="40" stroke-linejoin="round" d="M 13906,8037 C 14163,8037 14512,7859 14512,7751 14512,7643 14419,7589 14232,7589 14232,7751 13906,8037 13906,8037 Z"/>
   </g>
   <g id="DrawingGroup_2">
    <g>
     <path fill="rgb(179,179,179)" stroke="none" d="M 13110,7821 L 13110,6079 14232,5431 14232,7809 14211,7821 13110,7821 Z"/>
     <path fill="rgb(180,180,180)" stroke="none" d="M 14211,7821 L 13110,8457 13110,7821 14211,7821 Z M 13110,7791 L 13110,6079 14232,5431 14232,7791 13110,7791 Z"/>
     <path fill="rgb(181,181,181)" stroke="none" d="M 14232,7791 L 14232,7809 13110,8457 13110,7791 14232,7791 Z M 13110,7761 L 13110,6079 14232,5431 14232,7761 13110,7761 Z"/>
     <path fill="rgb(182,182,182)" stroke="none" d="M 14232,7761 L 14232,7809 13110,8457 13110,7761 14232,7761 Z M 13110,7730 L 13110,6079 14232,5431 14232,7730 13110,7730 Z"/>
     <path fill="rgb(183,183,183)" stroke="none" d="M 14232,7730 L 14232,7809 13110,8457 13110,7730 14232,7730 Z M 13110,7700 L 13110,6079 14232,5431 14232,7700 13110,7700 Z"/>
     <path fill="rgb(184,184,184)" stroke="none" d="M 14232,7700 L 14232,7809 13110,8457 13110,7700 14232,7700 Z M 13110,7670 L 13110,6079 14232,5431 14232,7670 13110,7670 Z"/>
     <path fill="rgb(185,185,185)" stroke="none" d="M 14232,7670 L 14232,7809 13110,8457 13110,7670 14232,7670 Z M 13110,7639 L 13110,6079 14232,5431 14232,7639 13110,7639 Z"/>
     <path fill="rgb(186,186,186)" stroke="none" d="M 14232,7639 L 14232,7809 13110,8457 13110,7639 14232,7639 Z M 13110,7609 L 13110,6079 14232,5431 14232,7609 13110,7609 Z"/>
     <path fill="rgb(187,187,187)" stroke="none" d="M 14232,7609 L 14232,7809 13110,8457 13110,7609 14232,7609 Z M 13110,7579 L 13110,6079 14232,5431 14232,7579 13110,7579 Z"/>
     <path fill="rgb(188,188,188)" stroke="none" d="M 14232,7579 L 14232,7809 13110,8457 13110,7579 14232,7579 Z M 13110,7549 L 13110,6079 14232,5431 14232,7549 13110,7549 Z"/>
     <path fill="rgb(189,189,189)" stroke="none" d="M 14232,7549 L 14232,7809 13110,8457 13110,7549 14232,7549 Z M 13110,7518 L 13110,6079 14232,5431 14232,7518 13110,7518 Z"/>
     <path fill="rgb(190,190,190)" stroke="none" d="M 14232,7518 L 14232,7809 13110,8457 13110,7518 14232,7518 Z M 13110,7488 L 13110,6079 14232,5431 14232,7488 13110,7488 Z"/>
     <path fill="rgb(191,191,191)" stroke="none" d="M 14232,7488 L 14232,7809 13110,8457 13110,7488 14232,7488 Z M 13110,7458 L 13110,6079 14232,5431 14232,7458 13110,7458 Z"/>
     <path fill="rgb(192,192,192)" stroke="none" d="M 14232,7458 L 14232,7809 13110,8457 13110,7458 14232,7458 Z M 13110,7427 L 13110,6079 14232,5431 14232,7427 13110,7427 Z"/>
     <path fill="rgb(193,193,193)" stroke="none" d="M 14232,7427 L 14232,7809 13110,8457 13110,7427 14232,7427 Z M 13110,7397 L 13110,6079 14232,5431 14232,7397 13110,7397 Z"/>
     <path fill="rgb(194,194,194)" stroke="none" d="M 14232,7397 L 14232,7809 13110,8457 13110,7397 14232,7397 Z M 13110,7367 L 13110,6079 14232,5431 14232,7367 13110,7367 Z"/>
     <path fill="rgb(195,195,195)" stroke="none" d="M 14232,7367 L 14232,7809 13110,8457 13110,7367 14232,7367 Z M 13110,7337 L 13110,6079 14232,5431 14232,7337 13110,7337 Z"/>
     <path fill="rgb(196,196,196)" stroke="none" d="M 14232,7337 L 14232,7809 13110,8457 13110,7337 14232,7337 Z M 13110,7306 L 13110,6079 14232,5431 14232,7306 13110,7306 Z"/>
     <path fill="rgb(197,197,197)" stroke="none" d="M 14232,7306 L 14232,7809 13110,8457 13110,7306 14232,7306 Z M 13110,7276 L 13110,6079 14232,5431 14232,7276 13110,7276 Z"/>
     <path fill="rgb(198,198,198)" stroke="none" d="M 14232,7276 L 14232,7809 13110,8457 13110,7276 14232,7276 Z M 13110,7246 L 13110,6079 14232,5431 14232,7246 13110,7246 Z"/>
     <path fill="rgb(199,199,199)" stroke="none" d="M 14232,7246 L 14232,7809 13110,8457 13110,7246 14232,7246 Z M 14232,5460 L 14232,7215 13110,7215 13110,6079 14182,5460 14232,5460 Z"/>
     <path fill="rgb(200,200,200)" stroke="none" d="M 14232,7215 L 14232,7809 13110,8457 13110,7215 14232,7215 Z M 14182,5460 L 14232,5431 14232,5460 14182,5460 Z M 14232,5490 L 14232,7185 13110,7185 13110,6079 14130,5490 14232,5490 Z"/>
     <path fill="rgb(201,201,201)" stroke="none" d="M 14232,7185 L 14232,7809 13110,8457 13110,7185 14232,7185 Z M 14130,5490 L 14232,5431 14232,5490 14130,5490 Z M 14232,5520 L 14232,7155 13110,7155 13110,6079 14078,5520 14232,5520 Z"/>
     <path fill="rgb(202,202,202)" stroke="none" d="M 14232,7155 L 14232,7809 13110,8457 13110,7155 14232,7155 Z M 14078,5520 L 14232,5431 14232,5520 14078,5520 Z M 14232,5550 L 14232,7125 13110,7125 13110,6079 14026,5550 14232,5550 Z"/>
     <path fill="rgb(203,203,203)" stroke="none" d="M 14232,7125 L 14232,7809 13110,8457 13110,7125 14232,7125 Z M 14026,5550 L 14232,5431 14232,5550 14026,5550 Z M 14202,5581 L 14202,7094 13110,7094 13110,6079 13972,5581 14202,5581 Z"/>
     <path fill="rgb(204,204,204)" stroke="none" d="M 14202,7094 L 14202,5581 13972,5581 14232,5431 14232,7809 13110,8457 13110,7094 14202,7094 Z M 14172,5611 L 14172,7064 13110,7064 13110,6079 13920,5611 14172,5611 Z"/>
     <path fill="rgb(205,205,205)" stroke="none" d="M 14172,7064 L 14172,5611 13920,5611 14232,5431 14232,7809 13110,8457 13110,7064 14172,7064 Z M 14142,5641 L 14142,7034 13110,7034 13110,6079 13868,5641 14142,5641 Z"/>
     <path fill="rgb(206,206,206)" stroke="none" d="M 14142,7034 L 14142,5641 13868,5641 14232,5431 14232,7809 13110,8457 13110,7034 14142,7034 Z M 14111,5672 L 14111,7003 13110,7003 13110,6079 13815,5672 14111,5672 Z"/>
     <path fill="rgb(207,207,207)" stroke="none" d="M 14111,7003 L 14111,5672 13815,5672 14232,5431 14232,7809 13110,8457 13110,7003 14111,7003 Z M 14081,5702 L 14081,6973 13110,6973 13110,6079 13763,5702 14081,5702 Z"/>
     <path fill="rgb(208,208,208)" stroke="none" d="M 14081,6973 L 14081,5702 13763,5702 14232,5431 14232,7809 13110,8457 13110,6973 14081,6973 Z M 14051,5732 L 14051,6943 13110,6943 13110,6079 13711,5732 14051,5732 Z"/>
     <path fill="rgb(209,209,209)" stroke="none" d="M 14051,6943 L 14051,5732 13711,5732 14232,5431 14232,7809 13110,8457 13110,6943 14051,6943 Z M 14021,5762 L 14021,6913 13110,6913 13110,6079 13659,5762 14021,5762 Z"/>
     <path fill="rgb(210,210,210)" stroke="none" d="M 14021,6913 L 14021,5762 13659,5762 14232,5431 14232,7809 13110,8457 13110,6913 14021,6913 Z M 13990,5793 L 13990,6882 13110,6882 13110,6079 13605,5793 13990,5793 Z"/>
     <path fill="rgb(211,211,211)" stroke="none" d="M 13990,6882 L 13990,5793 13605,5793 14232,5431 14232,7809 13110,8457 13110,6882 13990,6882 Z M 13960,5823 L 13960,6852 13110,6852 13110,6079 13553,5823 13960,5823 Z"/>
     <path fill="rgb(212,212,212)" stroke="none" d="M 13960,6852 L 13960,5823 13553,5823 14232,5431 14232,7809 13110,8457 13110,6852 13960,6852 Z M 13930,5853 L 13930,6822 13110,6822 13110,6079 13501,5853 13930,5853 Z"/>
     <path fill="rgb(213,213,213)" stroke="none" d="M 13930,6822 L 13930,5853 13501,5853 14232,5431 14232,7809 13110,8457 13110,6822 13930,6822 Z M 13899,5884 L 13899,6791 13110,6791 13110,6079 13448,5884 13899,5884 Z"/>
     <path fill="rgb(214,214,214)" stroke="none" d="M 13899,6791 L 13899,5884 13448,5884 14232,5431 14232,7809 13110,8457 13110,6791 13899,6791 Z M 13869,5914 L 13869,6761 13110,6761 13110,6079 13396,5914 13869,5914 Z"/>
     <path fill="rgb(215,215,215)" stroke="none" d="M 13869,6761 L 13869,5914 13396,5914 14232,5431 14232,7809 13110,8457 13110,6761 13869,6761 Z M 13839,5944 L 13839,6731 13110,6731 13110,6079 13344,5944 13839,5944 Z"/>
     <path fill="rgb(216,216,216)" stroke="none" d="M 13839,6731 L 13839,5944 13344,5944 14232,5431 14232,7809 13110,8457 13110,6731 13839,6731 Z M 13808,5975 L 13808,6700 13110,6700 13110,6079 13290,5975 13808,5975 Z"/>
     <path fill="rgb(217,217,217)" stroke="none" d="M 13808,6700 L 13808,5975 13290,5975 14232,5431 14232,7809 13110,8457 13110,6700 13808,6700 Z M 13778,6005 L 13778,6670 13113,6670 13113,6077 13238,6005 13778,6005 Z"/>
     <path fill="rgb(218,218,218)" stroke="none" d="M 13113,6670 L 13778,6670 13778,6005 13238,6005 14232,5431 14232,7809 13110,8457 13110,6079 13113,6077 13113,6670 Z M 13748,6035 L 13748,6640 13143,6640 13143,6060 13186,6035 13748,6035 Z"/>
     <path fill="rgb(219,219,219)" stroke="none" d="M 13143,6640 L 13748,6640 13748,6035 13186,6035 14232,5431 14232,7809 13110,8457 13110,6079 13143,6060 13143,6640 Z M 13173,6065 L 13718,6065 13718,6610 13173,6610 13173,6065 Z"/>
     <path fill="rgb(220,220,220)" stroke="none" d="M 13173,6065 L 13173,6610 13718,6610 13718,6065 13173,6065 Z M 13204,6096 L 13687,6096 13687,6579 13204,6579 13204,6096 Z M 14232,7809 L 13110,8457 13110,6079 14232,5431 14232,7809 Z"/>
     <path fill="rgb(221,221,221)" stroke="none" d="M 13204,6096 L 13204,6579 13687,6579 13687,6096 13204,6096 Z M 13234,6126 L 13657,6126 13657,6549 13234,6549 13234,6126 Z M 14232,7809 L 13110,8457 13110,6079 14232,5431 14232,7809 Z"/>
     <path fill="rgb(222,222,222)" stroke="none" d="M 13234,6126 L 13234,6549 13657,6549 13657,6126 13234,6126 Z M 13264,6156 L 13627,6156 13627,6519 13264,6519 13264,6156 Z M 14232,7809 L 13110,8457 13110,6079 14232,5431 14232,7809 Z"/>
     <path fill="rgb(223,223,223)" stroke="none" d="M 13264,6156 L 13264,6519 13627,6519 13627,6156 13264,6156 Z M 13295,6187 L 13596,6187 13596,6488 13295,6488 13295,6187 Z M 14232,7809 L 13110,8457 13110,6079 14232,5431 14232,7809 Z"/>
     <path fill="rgb(224,224,224)" stroke="none" d="M 13295,6187 L 13295,6488 13596,6488 13596,6187 13295,6187 Z M 13325,6217 L 13566,6217 13566,6458 13325,6458 13325,6217 Z M 14232,7809 L 13110,8457 13110,6079 14232,5431 14232,7809 Z"/>
     <path fill="rgb(225,225,225)" stroke="none" d="M 13325,6217 L 13325,6458 13566,6458 13566,6217 13325,6217 Z M 13355,6247 L 13536,6247 13536,6428 13355,6428 13355,6247 Z M 14232,7809 L 13110,8457 13110,6079 14232,5431 14232,7809 Z"/>
     <path fill="rgb(226,226,226)" stroke="none" d="M 13355,6247 L 13355,6428 13536,6428 13536,6247 13355,6247 Z M 13385,6277 L 13506,6277 13506,6398 13385,6398 13385,6277 Z M 14232,7809 L 13110,8457 13110,6079 14232,5431 14232,7809 Z"/>
     <path fill="rgb(227,227,227)" stroke="none" d="M 13385,6277 L 13385,6398 13506,6398 13506,6277 13385,6277 Z M 13416,6308 L 13475,6308 13475,6367 13416,6367 13416,6308 Z M 14232,7809 L 13110,8457 13110,6079 14232,5431 14232,7809 Z"/>
     <path fill="rgb(229,229,229)" stroke="none" d="M 13416,6308 L 13416,6367 13475,6367 13475,6308 13416,6308 Z M 14232,7809 L 13110,8457 13110,6079 14232,5431 14232,7809 Z"/>
     <path fill="none" stroke="rgb(255,255,255)" id="Drawing_2_0" stroke-width="40" stroke-linejoin="round" d="M 14232,7809 L 14232,5431 13110,6079 13110,8457 14232,7809 Z"/>
    </g>
    <g>
     <defs>
      <linearGradient id="Gradient_130" gradientUnits="userSpaceOnUse" x1="13201" y1="6943" x2="14140" y2="6945">
       <stop offset="0.1" stop-color="rgb(147,212,240)"/>
       <stop offset="1" stop-color="rgb(233,246,252)"/>
      </linearGradient>
     </defs>
     <path fill="url(#Gradient_130)" stroke="rgb(127,127,127)" id="Drawing_3_0" stroke-width="40" stroke-linejoin="round" d="M 14139,7754 L 14139,5593 13204,6133 13204,8295 14139,7754 Z"/>
    </g>
    <g>
     <defs>
      <linearGradient id="Gradient_131" gradientUnits="userSpaceOnUse" x1="13619" y1="5377" x2="13619" y2="6079">
       <stop offset="0.1" stop-color="rgb(179,179,179)"/>
       <stop offset="1" stop-color="rgb(229,229,229)"/>
      </linearGradient>
     </defs>
     <path fill="url(#Gradient_131)" stroke="rgb(255,255,255)" id="Drawing_4_0" stroke-width="40" stroke-linejoin="round" d="M 13110,6079 L 14232,5431 14128,5377 13006,6025 13110,6079 Z"/>
    </g>
    <g>
     <defs>
      <linearGradient id="Gradient_132" gradientUnits="userSpaceOnUse" x1="13004" y1="7241" x2="13112" y2="7241">
       <stop offset="0.1" stop-color="rgb(179,179,179)"/>
       <stop offset="1" stop-color="rgb(229,229,229)"/>
      </linearGradient>
     </defs>
     <path fill="url(#Gradient_132)" stroke="rgb(255,255,255)" id="Drawing_5_0" stroke-width="40" stroke-linejoin="round" d="M 13110,8457 L 13110,6079 13006,6025 13006,8403 13110,8457 Z"/>
    </g>
    <g>
     <path fill="none" stroke="rgb(0,0,0)" id="Drawing_6_0" stroke-width="40" stroke-linejoin="round" d="M 14128,5377 L 13006,6025 13006,8403 13110,8457 14232,7809 14232,5431 14128,5377 Z"/>
    </g>
   </g>
  </g>
 </g>
</svg>