<?xml version="1.0" encoding="UTF-8"?>

<svg version="1.2" baseProfile="tiny" width="14.4mm" height="31.2mm" viewBox="14324 11933 1440 3120" preserveAspectRatio="xMidYMid" fill-rule="evenodd" stroke-width="28.222" stroke-linejoin="round" xmlns="http://www.w3.org/2000/svg" xmlns:xlink="http://www.w3.org/1999/xlink" xml:space="preserve">
 <g visibility="visible" id="Slide_1">
  <g id="DrawingGroup_1">
   <g>
    <path fill="rgb(221,221,221)" stroke="none" d="M 15072,14683 C 15329,14683 15557,14613 15678,14473 15799,14333 15749,14165 15562,14165 15562,14327 15072,14683 15072,14683 Z"/>
    <path fill="none" stroke="rgb(221,221,221)" id="Drawing_1_0" stroke-width="40" stroke-linejoin="round" d="M 15072,14683 C 15329,14683 15557,14613 15678,14473 15799,14333 15749,14165 15562,14165 15562,14327 15072,14683 15072,14683 Z"/>
   </g>
   <g id="DrawingGroup_2">
    <g>
     <path fill="rgb(102,102,102)" stroke="none" d="M 14448,14398 L 14448,12655 15570,12007 15570,14385 15547,14398 14448,14398 Z"/>
     <path fill="rgb(103,103,103)" stroke="none" d="M 15547,14398 L 14448,15033 14448,14398 15547,14398 Z M 14448,14368 L 14448,12655 15570,12007 15570,14368 14448,14368 Z"/>
     <path fill="rgb(104,104,104)" stroke="none" d="M 15570,14368 L 15570,14385 14448,15033 14448,14368 15570,14368 Z M 14448,14338 L 14448,12655 15570,12007 15570,14338 14448,14338 Z"/>
     <path fill="rgb(105,105,105)" stroke="none" d="M 15570,14338 L 15570,14385 14448,15033 14448,14338 15570,14338 Z M 14448,14309 L 14448,12655 15570,12007 15570,14309 14448,14309 Z"/>
     <path fill="rgb(106,106,106)" stroke="none" d="M 15570,14309 L 15570,14385 14448,15033 14448,14309 15570,14309 Z M 14448,14279 L 14448,12655 15570,12007 15570,14279 14448,14279 Z"/>
     <path fill="rgb(107,107,107)" stroke="none" d="M 15570,14279 L 15570,14385 14448,15033 14448,14279 15570,14279 Z M 14448,14249 L 14448,12655 15570,12007 15570,14249 14448,14249 Z"/>
     <path fill="rgb(108,108,108)" stroke="none" d="M 15570,14249 L 15570,14385 14448,15033 14448,14249 15570,14249 Z M 14448,14220 L 14448,12655 15570,12007 15570,14220 14448,14220 Z"/>
     <path fill="rgb(109,109,109)" stroke="none" d="M 15570,14220 L 15570,14385 14448,15033 14448,14220 15570,14220 Z M 14448,14190 L 14448,12655 15570,12007 15570,14190 14448,14190 Z"/>
     <path fill="rgb(110,110,110)" stroke="none" d="M 15570,14190 L 15570,14385 14448,15033 14448,14190 15570,14190 Z M 14448,14160 L 14448,12655 15570,12007 15570,14160 14448,14160 Z"/>
     <path fill="rgb(111,111,111)" stroke="none" d="M 15570,14160 L 15570,14385 14448,15033 14448,14160 15570,14160 Z M 14448,14131 L 14448,12655 15570,12007 15570,14131 14448,14131 Z"/>
     <path fill="rgb(112,112,112)" stroke="none" d="M 15570,14131 L 15570,14385 14448,15033 14448,14131 15570,14131 Z M 14448,14101 L 14448,12655 15570,12007 15570,14101 14448,14101 Z"/>
     <path fill="rgb(113,113,113)" stroke="none" d="M 15570,14101 L 15570,14385 14448,15033 14448,14101 15570,14101 Z M 14448,14071 L 14448,12655 15570,12007 15570,14071 14448,14071 Z"/>
     <path fill="rgb(114,114,114)" stroke="none" d="M 15570,14071 L 15570,14385 14448,15033 14448,14071 15570,14071 Z M 14448,14041 L 14448,12655 15570,12007 15570,14041 14448,14041 Z"/>
     <path fill="rgb(115,115,115)" stroke="none" d="M 15570,14041 L 15570,14385 14448,15033 14448,14041 15570,14041 Z M 14448,14012 L 14448,12655 15570,12007 15570,14012 14448,14012 Z"/>
     <path fill="rgb(116,116,116)" stroke="none" d="M 15570,14012 L 15570,14385 14448,15033 14448,14012 15570,14012 Z M 14448,13982 L 14448,12655 15570,12007 15570,13982 14448,13982 Z"/>
     <path fill="rgb(117,117,117)" stroke="none" d="M 15570,13982 L 15570,14385 14448,15033 14448,13982 15570,13982 Z M 14448,13952 L 14448,12655 15570,12007 15570,13952 14448,13952 Z"/>
     <path fill="rgb(118,118,118)" stroke="none" d="M 15570,13952 L 15570,14385 14448,15033 14448,13952 15570,13952 Z M 14448,13923 L 14448,12655 15570,12007 15570,13923 14448,13923 Z"/>
     <path fill="rgb(119,119,119)" stroke="none" d="M 15570,13923 L 15570,14385 14448,15033 14448,13923 15570,13923 Z M 14448,13893 L 14448,12655 15570,12007 15570,13893 14448,13893 Z"/>
     <path fill="rgb(120,120,120)" stroke="none" d="M 15570,13893 L 15570,14385 14448,15033 14448,13893 15570,13893 Z M 14448,13863 L 14448,12655 15570,12007 15570,13863 14448,13863 Z"/>
     <path fill="rgb(121,121,121)" stroke="none" d="M 15570,13863 L 15570,14385 14448,15033 14448,13863 15570,13863 Z M 14448,13834 L 14448,12655 15570,12007 15570,13834 14448,13834 Z"/>
     <path fill="rgb(122,122,122)" stroke="none" d="M 15570,13834 L 15570,14385 14448,15033 14448,13834 15570,13834 Z M 15570,12023 L 15570,13804 14448,13804 14448,12655 15542,12023 15570,12023 Z"/>
     <path fill="rgb(123,123,123)" stroke="none" d="M 15570,13804 L 15570,14385 14448,15033 14448,13804 15570,13804 Z M 15542,12023 L 15570,12007 15570,12023 15542,12023 Z M 15570,12053 L 15570,13774 14448,13774 14448,12655 15490,12053 15570,12053 Z"/>
     <path fill="rgb(124,124,124)" stroke="none" d="M 15570,13774 L 15570,14385 14448,15033 14448,13774 15570,13774 Z M 15490,12053 L 15570,12007 15570,12053 15490,12053 Z M 15570,12083 L 15570,13744 14448,13744 14448,12655 15438,12083 15570,12083 Z"/>
     <path fill="rgb(125,125,125)" stroke="none" d="M 15570,13744 L 15570,14385 14448,15033 14448,13744 15570,13744 Z M 15438,12083 L 15570,12007 15570,12083 15438,12083 Z M 15570,12112 L 15570,13715 14448,13715 14448,12655 15388,12112 15570,12112 Z"/>
     <path fill="rgb(126,126,126)" stroke="none" d="M 15570,13715 L 15570,14385 14448,15033 14448,13715 15570,13715 Z M 15388,12112 L 15570,12007 15570,12112 15388,12112 Z M 15555,12142 L 15555,13685 14448,13685 14448,12655 15336,12142 15555,12142 Z"/>
     <path fill="rgb(127,127,127)" stroke="none" d="M 15555,13685 L 15555,12142 15336,12142 15570,12007 15570,14385 14448,15033 14448,13685 15555,13685 Z M 15525,12172 L 15525,13655 14448,13655 14448,12655 15284,12172 15525,12172 Z"/>
     <path fill="rgb(128,128,128)" stroke="none" d="M 15525,13655 L 15525,12172 15284,12172 15570,12007 15570,14385 14448,15033 14448,13655 15525,13655 Z M 15496,12201 L 15496,13626 14448,13626 14448,12655 15234,12201 15496,12201 Z"/>
     <path fill="rgb(129,129,129)" stroke="none" d="M 15496,13626 L 15496,12201 15234,12201 15570,12007 15570,14385 14448,15033 14448,13626 15496,13626 Z M 15466,12231 L 15466,13596 14448,13596 14448,12655 15182,12231 15466,12231 Z"/>
     <path fill="rgb(130,130,130)" stroke="none" d="M 15466,13596 L 15466,12231 15182,12231 15570,12007 15570,14385 14448,15033 14448,13596 15466,13596 Z M 15436,12261 L 15436,13566 14448,13566 14448,12655 15130,12261 15436,12261 Z"/>
     <path fill="rgb(131,131,131)" stroke="none" d="M 15436,13566 L 15436,12261 15130,12261 15570,12007 15570,14385 14448,15033 14448,13566 15436,13566 Z M 15407,12290 L 15407,13537 14448,13537 14448,12655 15080,12290 15407,12290 Z"/>
     <path fill="rgb(132,132,132)" stroke="none" d="M 15407,13537 L 15407,12290 15080,12290 15570,12007 15570,14385 14448,15033 14448,13537 15407,13537 Z M 15377,12320 L 15377,13507 14448,13507 14448,12655 15028,12320 15377,12320 Z"/>
     <path fill="rgb(133,133,133)" stroke="none" d="M 15377,13507 L 15377,12320 15028,12320 15570,12007 15570,14385 14448,15033 14448,13507 15377,13507 Z M 15347,12350 L 15347,13477 14448,13477 14448,12655 14976,12350 15347,12350 Z"/>
     <path fill="rgb(134,134,134)" stroke="none" d="M 15347,13477 L 15347,12350 14976,12350 15570,12007 15570,14385 14448,15033 14448,13477 15347,13477 Z M 15318,12379 L 15318,13448 14448,13448 14448,12655 14926,12379 15318,12379 Z"/>
     <path fill="rgb(135,135,135)" stroke="none" d="M 15318,13448 L 15318,12379 14926,12379 15570,12007 15570,14385 14448,15033 14448,13448 15318,13448 Z M 15288,12409 L 15288,13418 14448,13418 14448,12655 14874,12409 15288,12409 Z"/>
     <path fill="rgb(136,136,136)" stroke="none" d="M 15288,13418 L 15288,12409 14874,12409 15570,12007 15570,14385 14448,15033 14448,13418 15288,13418 Z M 15258,12439 L 15258,13388 14448,13388 14448,12655 14822,12439 15258,12439 Z"/>
     <path fill="rgb(137,137,137)" stroke="none" d="M 15258,13388 L 15258,12439 14822,12439 15570,12007 15570,14385 14448,15033 14448,13388 15258,13388 Z M 15228,12469 L 15228,13358 14448,13358 14448,12655 14770,12469 15228,12469 Z"/>
     <path fill="rgb(138,138,138)" stroke="none" d="M 15228,13358 L 15228,12469 14770,12469 15570,12007 15570,14385 14448,15033 14448,13358 15228,13358 Z M 15199,12498 L 15199,13329 14448,13329 14448,12655 14720,12498 15199,12498 Z"/>
     <path fill="rgb(139,139,139)" stroke="none" d="M 15199,13329 L 15199,12498 14720,12498 15570,12007 15570,14385 14448,15033 14448,13329 15199,13329 Z M 15169,12528 L 15169,13299 14448,13299 14448,12655 14668,12528 15169,12528 Z"/>
     <path fill="rgb(140,140,140)" stroke="none" d="M 15169,13299 L 15169,12528 14668,12528 15570,12007 15570,14385 14448,15033 14448,13299 15169,13299 Z M 15139,12558 L 15139,13269 14448,13269 14448,12655 14616,12558 15139,12558 Z"/>
     <path fill="rgb(141,141,141)" stroke="none" d="M 15139,13269 L 15139,12558 14616,12558 15570,12007 15570,14385 14448,15033 14448,13269 15139,13269 Z M 15110,12587 L 15110,13240 14457,13240 14457,12650 14566,12587 15110,12587 Z"/>
     <path fill="rgb(142,142,142)" stroke="none" d="M 14457,13240 L 15110,13240 15110,12587 14566,12587 15570,12007 15570,14385 14448,15033 14448,12655 14457,12650 14457,13240 Z M 15080,12617 L 15080,13210 14487,13210 14487,12632 14514,12617 15080,12617 Z"/>
     <path fill="rgb(143,143,143)" stroke="none" d="M 14487,13210 L 15080,13210 15080,12617 14514,12617 15570,12007 15570,14385 14448,15033 14448,12655 14487,12632 14487,13210 Z M 14517,12647 L 15050,12647 15050,13180 14517,13180 14517,12647 Z"/>
     <path fill="rgb(144,144,144)" stroke="none" d="M 14517,12647 L 14517,13180 15050,13180 15050,12647 14517,12647 Z M 14546,12676 L 15021,12676 15021,13151 14546,13151 14546,12676 Z M 15570,14385 L 14448,15033 14448,12655 15570,12007 15570,14385 Z"/>
     <path fill="rgb(145,145,145)" stroke="none" d="M 14546,12676 L 14546,13151 15021,13151 15021,12676 14546,12676 Z M 14576,12706 L 14991,12706 14991,13121 14576,13121 14576,12706 Z M 15570,14385 L 14448,15033 14448,12655 15570,12007 15570,14385 Z"/>
     <path fill="rgb(146,146,146)" stroke="none" d="M 14576,12706 L 14576,13121 14991,13121 14991,12706 14576,12706 Z M 14606,12736 L 14961,12736 14961,13091 14606,13091 14606,12736 Z M 15570,14385 L 14448,15033 14448,12655 15570,12007 15570,14385 Z"/>
     <path fill="rgb(147,147,147)" stroke="none" d="M 14606,12736 L 14606,13091 14961,13091 14961,12736 14606,12736 Z M 14636,12766 L 14931,12766 14931,13061 14636,13061 14636,12766 Z M 15570,14385 L 14448,15033 14448,12655 15570,12007 15570,14385 Z"/>
     <path fill="rgb(148,148,148)" stroke="none" d="M 14636,12766 L 14636,13061 14931,13061 14931,12766 14636,12766 Z M 14665,12795 L 14902,12795 14902,13032 14665,13032 14665,12795 Z M 15570,14385 L 14448,15033 14448,12655 15570,12007 15570,14385 Z"/>
     <path fill="rgb(149,149,149)" stroke="none" d="M 14665,12795 L 14665,13032 14902,13032 14902,12795 14665,12795 Z M 14695,12825 L 14872,12825 14872,13002 14695,13002 14695,12825 Z M 15570,14385 L 14448,15033 14448,12655 15570,12007 15570,14385 Z"/>
     <path fill="rgb(150,150,150)" stroke="none" d="M 14695,12825 L 14695,13002 14872,13002 14872,12825 14695,12825 Z M 14725,12855 L 14842,12855 14842,12972 14725,12972 14725,12855 Z M 15570,14385 L 14448,15033 14448,12655 15570,12007 15570,14385 Z"/>
     <path fill="rgb(151,151,151)" stroke="none" d="M 14725,12855 L 14725,12972 14842,12972 14842,12855 14725,12855 Z M 14754,12884 L 14813,12884 14813,12943 14754,12943 14754,12884 Z M 15570,14385 L 14448,15033 14448,12655 15570,12007 15570,14385 Z"/>
     <path fill="rgb(153,153,153)" stroke="none" d="M 14754,12884 L 14754,12943 14813,12943 14813,12884 14754,12884 Z M 15570,14385 L 14448,15033 14448,12655 15570,12007 15570,14385 Z"/>
     <path fill="none" stroke="rgb(178,178,178)" id="Drawing_2_0" stroke-width="40" stroke-linejoin="round" d="M 15570,14385 L 15570,12007 14448,12655 14448,15033 15570,14385 Z"/>
    </g>
    <g>
     <defs>
      <linearGradient id="Gradient_133" gradientUnits="userSpaceOnUse" x1="14539" y1="13519" x2="15478" y2="13521">
       <stop offset="0.1" stop-color="rgb(147,212,240)"/>
       <stop offset="1" stop-color="rgb(233,246,252)"/>
      </linearGradient>
     </defs>
     <path fill="url(#Gradient_133)" stroke="rgb(51,51,51)" id="Drawing_3_0" stroke-width="40" stroke-linejoin="round" d="M 15477,14330 L 15477,12169 14542,12709 14542,14871 15477,14330 Z"/>
    </g>
    <g>
     <defs>
      <linearGradient id="Gradient_134" gradientUnits="userSpaceOnUse" x1="14957" y1="11953" x2="14957" y2="12655">
       <stop offset="0.1" stop-color="rgb(51,51,51)"/>
       <stop offset="1" stop-color="rgb(153,153,153)"/>
      </linearGradient>
     </defs>
     <path fill="url(#Gradient_134)" stroke="rgb(178,178,178)" id="Drawing_4_0" stroke-width="40" stroke-linejoin="round" d="M 14448,12655 L 15570,12007 15466,11953 14344,12601 14448,12655 Z"/>
    </g>
    <g>
     <defs>
      <linearGradient id="Gradient_135" gradientUnits="userSpaceOnUse" x1="14342" y1="13817" x2="14450" y2="13817">
       <stop offset="0.1" stop-color="rgb(102,102,102)"/>
       <stop offset="1" stop-color="rgb(153,153,153)"/>
      </linearGradient>
     </defs>
     <path fill="url(#Gradient_135)" stroke="rgb(178,178,178)" id="Drawing_5_0" stroke-width="40" stroke-linejoin="round" d="M 14448,15033 L 14448,12655 14344,12601 14344,14979 14448,15033 Z"/>
    </g>
    <g>
     <path fill="none" stroke="rgb(0,0,0)" id="Drawing_6_0" stroke-width="40" stroke-linejoin="round" d="M 15466,11953 L 14344,12601 14344,14979 14448,15033 15570,14385 15570,12007 15466,11953 Z"/>
    </g>
   </g>
  </g>
 </g>
</svg>