<?xml version="1.0" encoding="UTF-8"?>

<svg version="1.2" baseProfile="tiny" width="30.63mm" height="35.4mm" viewBox="2362 6999 3063 3540" preserveAspectRatio="xMidYMid" fill-rule="evenodd" stroke-width="28.222" stroke-linejoin="round" xmlns="http://www.w3.org/2000/svg" xmlns:xlink="http://www.w3.org/1999/xlink" xml:space="preserve">
 <g visibility="visible" id="Slide_1">
  <g id="DrawingGroup_1">
   <g>
    <defs>
     <linearGradient id="Gradient_161" gradientUnits="userSpaceOnUse" x1="2481" y1="9410" x2="3291" y2="9412">
      <stop offset="0.1" stop-color="rgb(102,102,102)"/>
      <stop offset="1" stop-color="rgb(153,153,153)"/>
     </linearGradient>
    </defs>
    <path fill="url(#Gradient_161)" stroke="rgb(178,178,178)" id="Drawing_1_0" stroke-width="40" stroke-linejoin="round" d="M 2483,8478 L 2483,9878 3289,10344 2483,8478 Z"/>
   </g>
   <g>
    <defs>
     <linearGradient id="Gradient_162" gradientUnits="userSpaceOnUse" x1="2380" y1="9351" x2="3392" y2="9353">
      <stop offset="0.1" stop-color="rgb(102,102,102)"/>
      <stop offset="1" stop-color="rgb(153,153,153)"/>
     </linearGradient>
    </defs>
    <path fill="url(#Gradient_162)" stroke="rgb(127,127,127)" id="Drawing_2_0" stroke-width="40" stroke-linejoin="round" d="M 2382,8185 L 2382,8535 3188,10401 3390,10519 2382,8185 Z"/>
   </g>
   <g>
    <path fill="rgb(102,102,102)" stroke="none" d="M 5004,9585 L 4660,9784 3073,9784 2382,8185 4397,7019 5004,8424 5004,9585 Z"/>
    <path fill="rgb(103,103,103)" stroke="none" d="M 4660,9784 L 3390,10519 3073,9784 4660,9784 Z M 5004,8424 L 5405,9353 5004,9585 5004,8424 Z M 4970,9605 L 4719,9750 3058,9750 2382,8185 4397,7019 4970,8346 4970,9605 Z"/>
    <path fill="rgb(104,104,104)" stroke="none" d="M 4719,9750 L 3390,10519 3058,9750 4719,9750 Z M 4970,8346 L 5405,9353 4970,9605 4970,8346 Z M 4935,9625 L 4779,9715 3043,9715 2382,8185 4397,7019 4935,8265 4935,9625 Z"/>
    <path fill="rgb(105,105,105)" stroke="none" d="M 4779,9715 L 3390,10519 3043,9715 4779,9715 Z M 4935,8265 L 5405,9353 4935,9625 4935,8265 Z M 4901,9645 L 4838,9681 3028,9681 2382,8185 4397,7019 4901,8186 4901,9645 Z"/>
    <path fill="rgb(106,106,106)" stroke="none" d="M 4838,9681 L 3390,10519 3028,9681 4838,9681 Z M 4901,8186 L 5405,9353 4901,9645 4901,8186 Z M 4867,9647 L 3013,9647 2382,8185 4397,7019 4867,8107 4867,9647 Z"/>
    <path fill="rgb(107,107,107)" stroke="none" d="M 4867,9647 L 4867,8107 5405,9353 3390,10519 3013,9647 4867,9647 Z M 4832,9612 L 2998,9612 2382,8185 4397,7019 4832,8026 4832,9612 Z"/>
    <path fill="rgb(108,108,108)" stroke="none" d="M 4832,9612 L 4832,8026 5405,9353 3390,10519 2998,9612 4832,9612 Z M 4798,9578 L 2984,9578 2382,8185 4397,7019 4798,7948 4798,9578 Z"/>
    <path fill="rgb(109,109,109)" stroke="none" d="M 4798,9578 L 4798,7948 5405,9353 3390,10519 2984,9578 4798,9578 Z M 4764,9544 L 2969,9544 2382,8185 4397,7019 4764,7869 4764,9544 Z"/>
    <path fill="rgb(110,110,110)" stroke="none" d="M 4764,9544 L 4764,7869 5405,9353 3390,10519 2969,9544 4764,9544 Z M 4729,9509 L 2954,9509 2382,8185 4397,7019 4729,7788 4729,9509 Z"/>
    <path fill="rgb(111,111,111)" stroke="none" d="M 4729,9509 L 4729,7788 5405,9353 3390,10519 2954,9509 4729,9509 Z M 4695,9475 L 2939,9475 2382,8185 4397,7019 4695,7709 4695,9475 Z"/>
    <path fill="rgb(112,112,112)" stroke="none" d="M 4695,9475 L 4695,7709 5405,9353 3390,10519 2939,9475 4695,9475 Z M 4661,9441 L 2924,9441 2382,8185 4397,7019 4661,7630 4661,9441 Z"/>
    <path fill="rgb(113,113,113)" stroke="none" d="M 4661,9441 L 4661,7630 5405,9353 3390,10519 2924,9441 4661,9441 Z M 4626,9406 L 2909,9406 2382,8185 4397,7019 4626,7549 4626,9406 Z"/>
    <path fill="rgb(114,114,114)" stroke="none" d="M 4626,9406 L 4626,7549 5405,9353 3390,10519 2909,9406 4626,9406 Z M 4592,9372 L 2895,9372 2382,8185 4397,7019 4592,7471 4592,9372 Z"/>
    <path fill="rgb(115,115,115)" stroke="none" d="M 4592,9372 L 4592,7471 5405,9353 3390,10519 2895,9372 4592,9372 Z M 4558,9338 L 2880,9338 2382,8185 4397,7019 4558,7392 4558,9338 Z"/>
    <path fill="rgb(116,116,116)" stroke="none" d="M 4558,9338 L 4558,7392 5405,9353 3390,10519 2880,9338 4558,9338 Z M 4523,9303 L 2865,9303 2382,8185 4397,7019 4523,7311 4523,9303 Z"/>
    <path fill="rgb(117,117,117)" stroke="none" d="M 4523,9303 L 4523,7311 5405,9353 3390,10519 2865,9303 4523,9303 Z M 4489,9269 L 2850,9269 2382,8185 4397,7019 4489,7232 4489,9269 Z"/>
    <path fill="rgb(118,118,118)" stroke="none" d="M 4489,9269 L 4489,7232 5405,9353 3390,10519 2850,9269 4489,9269 Z M 4455,9235 L 2835,9235 2382,8185 4397,7019 4455,7153 4455,9235 Z"/>
    <path fill="rgb(119,119,119)" stroke="none" d="M 4455,9235 L 4455,7153 5405,9353 3390,10519 2835,9235 4455,9235 Z M 4420,9200 L 2820,9200 2382,8185 4397,7019 4420,7072 4420,9200 Z"/>
    <path fill="rgb(120,120,120)" stroke="none" d="M 4420,9200 L 4420,7072 5405,9353 3390,10519 2820,9200 4420,9200 Z M 4386,9166 L 2806,9166 2382,8185 4386,7025 4386,9166 Z"/>
    <path fill="rgb(121,121,121)" stroke="none" d="M 4386,9166 L 4386,7025 4397,7019 5405,9353 3390,10519 2806,9166 4386,9166 Z M 4352,9132 L 2791,9132 2382,8185 4352,7045 4352,9132 Z"/>
    <path fill="rgb(122,122,122)" stroke="none" d="M 4352,9132 L 4352,7045 4397,7019 5405,9353 3390,10519 2791,9132 4352,9132 Z M 4317,9097 L 2776,9097 2382,8185 4317,7065 4317,9097 Z"/>
    <path fill="rgb(123,123,123)" stroke="none" d="M 4317,9097 L 4317,7065 4397,7019 5405,9353 3390,10519 2776,9097 4317,9097 Z M 4283,9063 L 2761,9063 2382,8185 4283,7085 4283,9063 Z"/>
    <path fill="rgb(124,124,124)" stroke="none" d="M 4283,9063 L 4283,7085 4397,7019 5405,9353 3390,10519 2761,9063 4283,9063 Z M 4249,7106 L 4249,9029 2747,9029 2382,8185 4247,7106 4249,7106 Z"/>
    <path fill="rgb(125,125,125)" stroke="none" d="M 4249,9029 L 4249,7106 4247,7106 4397,7019 5405,9353 3390,10519 2747,9029 4249,9029 Z M 4214,7141 L 4214,8994 2731,8994 2382,8185 4186,7141 4214,7141 Z"/>
    <path fill="rgb(126,126,126)" stroke="none" d="M 4214,8994 L 4214,7141 4186,7141 4397,7019 5405,9353 3390,10519 2731,8994 4214,8994 Z M 4180,7175 L 4180,8960 2717,8960 2395,8215 2395,8177 4127,7175 4180,7175 Z"/>
    <path fill="rgb(127,127,127)" stroke="none" d="M 2395,8215 L 2382,8185 2395,8177 2395,8215 Z M 4180,8960 L 4180,7175 4127,7175 4397,7019 5405,9353 3390,10519 2717,8960 4180,8960 Z M 4146,7209 L 4146,8926 2702,8926 2429,8294 2429,8158 4069,7209 4146,7209 Z"/>
    <path fill="rgb(128,128,128)" stroke="none" d="M 2429,8294 L 2382,8185 2429,8158 2429,8294 Z M 4146,8926 L 4146,7209 4069,7209 4397,7019 5405,9353 3390,10519 2702,8926 4146,8926 Z M 4111,7244 L 4111,8891 2687,8891 2464,8375 2464,8138 4008,7244 4111,7244 Z"/>
    <path fill="rgb(129,129,129)" stroke="none" d="M 2464,8375 L 2382,8185 2464,8138 2464,8375 Z M 4111,8891 L 4111,7244 4008,7244 4397,7019 5405,9353 3390,10519 2687,8891 4111,8891 Z M 4077,7278 L 4077,8857 2672,8857 2498,8454 2498,8118 3949,7278 4077,7278 Z"/>
    <path fill="rgb(130,130,130)" stroke="none" d="M 2498,8454 L 2382,8185 2498,8118 2498,8454 Z M 4077,8857 L 4077,7278 3949,7278 4397,7019 5405,9353 3390,10519 2672,8857 4077,8857 Z M 4043,7312 L 4043,8823 2658,8823 2532,8532 2532,8098 3891,7312 4043,7312 Z"/>
    <path fill="rgb(131,131,131)" stroke="none" d="M 2532,8532 L 2382,8185 2532,8098 2532,8532 Z M 4043,8823 L 4043,7312 3891,7312 4397,7019 5405,9353 3390,10519 2658,8823 4043,8823 Z M 4008,7347 L 4008,8788 2642,8788 2567,8613 2567,8078 3830,7347 4008,7347 Z"/>
    <path fill="rgb(132,132,132)" stroke="none" d="M 2567,8613 L 2382,8185 2567,8078 2567,8613 Z M 4008,8788 L 4008,7347 3830,7347 4397,7019 5405,9353 3390,10519 2642,8788 4008,8788 Z M 3974,7381 L 3974,8754 2628,8754 2601,8692 2601,8058 3771,7381 3974,7381 Z"/>
    <path fill="rgb(133,133,133)" stroke="none" d="M 2601,8692 L 2382,8185 2601,8058 2601,8692 Z M 3974,8754 L 3974,7381 3771,7381 4397,7019 5405,9353 3390,10519 2628,8754 3974,8754 Z M 3940,7415 L 3940,8720 2635,8720 2635,8039 3713,7415 3940,7415 Z"/>
    <path fill="rgb(134,134,134)" stroke="none" d="M 2635,8720 L 3940,8720 3940,7415 3713,7415 4397,7019 5405,9353 3390,10519 2382,8185 2635,8039 2635,8720 Z M 3905,7450 L 3905,8685 2670,8685 2670,8018 3652,7450 3905,7450 Z"/>
    <path fill="rgb(135,135,135)" stroke="none" d="M 2670,8685 L 3905,8685 3905,7450 3652,7450 4397,7019 5405,9353 3390,10519 2382,8185 2670,8018 2670,8685 Z M 3871,7484 L 3871,8651 2704,8651 2704,7999 3593,7484 3871,7484 Z"/>
    <path fill="rgb(136,136,136)" stroke="none" d="M 2704,8651 L 3871,8651 3871,7484 3593,7484 4397,7019 5405,9353 3390,10519 2382,8185 2704,7999 2704,8651 Z M 3836,7519 L 3836,8616 2739,8616 2739,7978 3533,7519 3836,7519 Z"/>
    <path fill="rgb(137,137,137)" stroke="none" d="M 2739,8616 L 3836,8616 3836,7519 3533,7519 4397,7019 5405,9353 3390,10519 2382,8185 2739,7978 2739,8616 Z M 3802,7553 L 3802,8582 2773,8582 2773,7959 3474,7553 3802,7553 Z"/>
    <path fill="rgb(138,138,138)" stroke="none" d="M 2773,8582 L 3802,8582 3802,7553 3474,7553 4397,7019 5405,9353 3390,10519 2382,8185 2773,7959 2773,8582 Z M 3768,7587 L 3768,8548 2807,8548 2807,7939 3415,7587 3768,7587 Z"/>
    <path fill="rgb(139,139,139)" stroke="none" d="M 2807,8548 L 3768,8548 3768,7587 3415,7587 4397,7019 5405,9353 3390,10519 2382,8185 2807,7939 2807,8548 Z M 3733,7622 L 3733,8513 2842,8513 2842,7919 3355,7622 3733,7622 Z"/>
    <path fill="rgb(140,140,140)" stroke="none" d="M 2842,8513 L 3733,8513 3733,7622 3355,7622 4397,7019 5405,9353 3390,10519 2382,8185 2842,7919 2842,8513 Z M 3699,7656 L 3699,8479 2876,8479 2876,7899 3296,7656 3699,7656 Z"/>
    <path fill="rgb(141,141,141)" stroke="none" d="M 2876,8479 L 3699,8479 3699,7656 3296,7656 4397,7019 5405,9353 3390,10519 2382,8185 2876,7899 2876,8479 Z M 3665,7690 L 3665,8445 2910,8445 2910,7879 3237,7690 3665,7690 Z"/>
    <path fill="rgb(142,142,142)" stroke="none" d="M 2910,8445 L 3665,8445 3665,7690 3237,7690 4397,7019 5405,9353 3390,10519 2382,8185 2910,7879 2910,8445 Z M 3630,7725 L 3630,8410 2945,8410 2945,7859 3177,7725 3630,7725 Z"/>
    <path fill="rgb(143,143,143)" stroke="none" d="M 2945,8410 L 3630,8410 3630,7725 3177,7725 4397,7019 5405,9353 3390,10519 2382,8185 2945,7859 2945,8410 Z M 3596,7759 L 3596,8376 2979,8376 2979,7840 3118,7759 3596,7759 Z"/>
    <path fill="rgb(144,144,144)" stroke="none" d="M 2979,8376 L 3596,8376 3596,7759 3118,7759 4397,7019 5405,9353 3390,10519 2382,8185 2979,7840 2979,8376 Z M 3562,7793 L 3562,8342 3013,8342 3013,7820 3059,7793 3562,7793 Z"/>
    <path fill="rgb(145,145,145)" stroke="none" d="M 3013,8342 L 3562,8342 3562,7793 3059,7793 4397,7019 5405,9353 3390,10519 2382,8185 3013,7820 3013,8342 Z M 3048,7828 L 3527,7828 3527,8307 3048,8307 3048,7828 Z"/>
    <path fill="rgb(146,146,146)" stroke="none" d="M 3048,7828 L 3048,8307 3527,8307 3527,7828 3048,7828 Z M 3082,7862 L 3493,7862 3493,8273 3082,8273 3082,7862 Z M 5405,9353 L 3390,10519 2382,8185 4397,7019 5405,9353 Z"/>
    <path fill="rgb(147,147,147)" stroke="none" d="M 3082,7862 L 3082,8273 3493,8273 3493,7862 3082,7862 Z M 3116,7896 L 3459,7896 3459,8239 3116,8239 3116,7896 Z M 5405,9353 L 3390,10519 2382,8185 4397,7019 5405,9353 Z"/>
    <path fill="rgb(148,148,148)" stroke="none" d="M 3116,7896 L 3116,8239 3459,8239 3459,7896 3116,7896 Z M 3151,7931 L 3424,7931 3424,8204 3151,8204 3151,7931 Z M 5405,9353 L 3390,10519 2382,8185 4397,7019 5405,9353 Z"/>
    <path fill="rgb(149,149,149)" stroke="none" d="M 3151,7931 L 3151,8204 3424,8204 3424,7931 3151,7931 Z M 3185,7965 L 3390,7965 3390,8170 3185,8170 3185,7965 Z M 5405,9353 L 3390,10519 2382,8185 4397,7019 5405,9353 Z"/>
    <path fill="rgb(150,150,150)" stroke="none" d="M 3185,7965 L 3185,8170 3390,8170 3390,7965 3185,7965 Z M 3219,7999 L 3356,7999 3356,8136 3219,8136 3219,7999 Z M 5405,9353 L 3390,10519 2382,8185 4397,7019 5405,9353 Z"/>
    <path fill="rgb(151,151,151)" stroke="none" d="M 3219,7999 L 3219,8136 3356,8136 3356,7999 3219,7999 Z M 3254,8034 L 3321,8034 3321,8101 3254,8101 3254,8034 Z M 5405,9353 L 3390,10519 2382,8185 4397,7019 5405,9353 Z"/>
    <path fill="rgb(153,153,153)" stroke="none" d="M 3254,8034 L 3254,8101 3321,8101 3321,8034 3254,8034 Z M 5405,9353 L 3390,10519 2382,8185 4397,7019 5405,9353 Z"/>
    <path fill="none" stroke="rgb(178,178,178)" id="Drawing_3_0" stroke-width="40" stroke-linejoin="round" d="M 5405,9353 L 4397,7019 2382,8185 3390,10519 5405,9353 Z"/>
   </g>
   <g>
    <path fill="rgb(102,102,102)" stroke="none" d="M 3277,9774 L 3278,9773 3284,9763 3293,9739 3298,9712 3300,9680 3299,9644 3288,9564 3267,9473 3236,9375 3153,9169 3051,8967 2996,8876 2942,8795 2888,8727 2838,8674 2814,8655 2791,8641 2770,8632 2760,8630 2750,8629 2548,8220 2850,8038 2945,7982 2994,7956 3052,7929 3081,7949 3112,7978 3178,8055 3248,8157 3322,8281 3472,8575 3619,8906 3752,9242 3860,9553 3923,9774 3277,9774 Z"/>
    <path fill="rgb(103,103,103)" stroke="none" d="M 3923,9774 L 3932,9806 3952,9901 3957,9939 3959,9970 3455,10263 3254,9795 3263,9789 3271,9781 3277,9774 3923,9774 Z M 3289,9751 L 3293,9739 3298,9712 3300,9680 3299,9644 3288,9564 3267,9473 3236,9375 3153,9169 3051,8967 2996,8876 2942,8795 2888,8727 2838,8674 2814,8655 2791,8641 2770,8632 2760,8630 2750,8629 2548,8220 2850,8038 2945,7982 2994,7956 3052,7929 3081,7949 3112,7978 3178,8055 3248,8157 3322,8281 3472,8575 3619,8906 3752,9242 3860,9553 3916,9751 3289,9751 Z"/>
    <path fill="rgb(104,104,104)" stroke="none" d="M 3916,9751 L 3932,9806 3952,9901 3957,9939 3959,9970 3455,10263 3254,9795 3263,9789 3271,9781 3278,9773 3284,9763 3289,9751 3916,9751 Z M 3295,9728 L 3298,9712 3300,9680 3299,9644 3288,9564 3267,9473 3236,9375 3153,9169 3051,8967 2996,8876 2942,8795 2888,8727 2838,8674 2814,8655 2791,8641 2770,8632 2760,8630 2750,8629 2548,8220 2850,8038 2945,7982 2994,7956 3052,7929 3081,7949 3112,7978 3178,8055 3248,8157 3322,8281 3472,8575 3619,8906 3752,9242 3860,9553 3910,9728 3295,9728 Z"/>
    <path fill="rgb(105,105,105)" stroke="none" d="M 3910,9728 L 3932,9806 3952,9901 3957,9939 3959,9970 3455,10263 3254,9795 3263,9789 3271,9781 3278,9773 3284,9763 3293,9739 3295,9728 3910,9728 Z M 3298,9705 L 3300,9680 3299,9644 3288,9564 3267,9473 3236,9375 3153,9169 3051,8967 2996,8876 2942,8795 2888,8727 2838,8674 2814,8655 2791,8641 2770,8632 2760,8630 2750,8629 2548,8220 2850,8038 2945,7982 2994,7956 3052,7929 3081,7949 3112,7978 3178,8055 3248,8157 3322,8281 3472,8575 3619,8906 3752,9242 3860,9553 3903,9705 3298,9705 Z"/>
    <path fill="rgb(106,106,106)" stroke="none" d="M 3903,9705 L 3932,9806 3952,9901 3957,9939 3959,9970 3455,10263 3254,9795 3263,9789 3271,9781 3278,9773 3284,9763 3293,9739 3298,9712 3298,9705 3903,9705 Z M 3300,9682 L 3300,9680 3299,9644 3288,9564 3267,9473 3236,9375 3153,9169 3051,8967 2996,8876 2942,8795 2888,8727 2838,8674 2814,8655 2791,8641 2770,8632 2760,8630 2750,8629 2548,8220 2850,8038 2945,7982 2994,7956 3052,7929 3081,7949 3112,7978 3178,8055 3248,8157 3322,8281 3472,8575 3619,8906 3752,9242 3860,9553 3897,9682 3300,9682 Z"/>
    <path fill="rgb(107,107,107)" stroke="none" d="M 3897,9682 L 3932,9806 3952,9901 3957,9939 3959,9970 3455,10263 3254,9795 3263,9789 3271,9781 3278,9773 3284,9763 3293,9739 3298,9712 3300,9682 3897,9682 Z M 3299,9659 L 3299,9644 3288,9564 3267,9473 3236,9375 3153,9169 3051,8967 2996,8876 2942,8795 2888,8727 2838,8674 2814,8655 2791,8641 2770,8632 2760,8630 2750,8629 2548,8220 2850,8038 2945,7982 2994,7956 3052,7929 3081,7949 3112,7978 3178,8055 3248,8157 3322,8281 3472,8575 3619,8906 3752,9242 3860,9553 3890,9659 3299,9659 Z"/>
    <path fill="rgb(108,108,108)" stroke="none" d="M 3890,9659 L 3932,9806 3952,9901 3957,9939 3959,9970 3455,10263 3254,9795 3263,9789 3271,9781 3278,9773 3284,9763 3293,9739 3298,9712 3300,9680 3299,9659 3890,9659 Z M 3298,9636 L 3288,9564 3267,9473 3236,9375 3153,9169 3051,8967 2996,8876 2942,8795 2888,8727 2838,8674 2814,8655 2791,8641 2770,8632 2760,8630 2750,8629 2548,8220 2850,8038 2945,7982 2994,7956 3052,7929 3081,7949 3112,7978 3178,8055 3248,8157 3322,8281 3472,8575 3619,8906 3752,9242 3860,9553 3884,9636 3298,9636 Z"/>
    <path fill="rgb(109,109,109)" stroke="none" d="M 3884,9636 L 3932,9806 3952,9901 3957,9939 3959,9970 3455,10263 3254,9795 3263,9789 3271,9781 3278,9773 3284,9763 3293,9739 3298,9712 3300,9680 3299,9644 3298,9636 3884,9636 Z M 3295,9613 L 3288,9564 3267,9473 3236,9375 3153,9169 3051,8967 2996,8876 2942,8795 2888,8727 2838,8674 2814,8655 2791,8641 2770,8632 2760,8630 2750,8629 2548,8220 2850,8038 2945,7982 2994,7956 3052,7929 3081,7949 3112,7978 3178,8055 3248,8157 3322,8281 3472,8575 3619,8906 3752,9242 3860,9553 3877,9613 3295,9613 Z"/>
    <path fill="rgb(110,110,110)" stroke="none" d="M 3877,9613 L 3932,9806 3952,9901 3957,9939 3959,9970 3455,10263 3254,9795 3263,9789 3271,9781 3278,9773 3284,9763 3293,9739 3298,9712 3300,9680 3299,9644 3295,9613 3877,9613 Z M 3292,9590 L 3288,9564 3267,9473 3236,9375 3153,9169 3051,8967 2996,8876 2942,8795 2888,8727 2838,8674 2814,8655 2791,8641 2770,8632 2760,8630 2750,8629 2548,8220 2850,8038 2945,7982 2994,7956 3052,7929 3081,7949 3112,7978 3178,8055 3248,8157 3322,8281 3472,8575 3619,8906 3752,9242 3860,9553 3871,9590 3292,9590 Z"/>
    <path fill="rgb(111,111,111)" stroke="none" d="M 3871,9590 L 3932,9806 3952,9901 3957,9939 3959,9970 3455,10263 3254,9795 3263,9789 3271,9781 3278,9773 3284,9763 3293,9739 3298,9712 3300,9680 3299,9644 3292,9590 3871,9590 Z M 3288,9567 L 3288,9564 3267,9473 3236,9375 3153,9169 3051,8967 2996,8876 2942,8795 2888,8727 2838,8674 2814,8655 2791,8641 2770,8632 2760,8630 2750,8629 2548,8220 2850,8038 2945,7982 2994,7956 3052,7929 3081,7949 3112,7978 3178,8055 3248,8157 3322,8281 3472,8575 3619,8906 3752,9242 3860,9553 3864,9567 3288,9567 Z"/>
    <path fill="rgb(112,112,112)" stroke="none" d="M 3864,9567 L 3932,9806 3952,9901 3957,9939 3959,9970 3455,10263 3254,9795 3263,9789 3271,9781 3278,9773 3284,9763 3293,9739 3298,9712 3300,9680 3299,9644 3288,9567 3864,9567 Z M 3283,9544 L 3267,9473 3236,9375 3153,9169 3051,8967 2996,8876 2942,8795 2888,8727 2838,8674 2814,8655 2791,8641 2770,8632 2760,8630 2750,8629 2548,8220 2850,8038 2945,7982 2994,7956 3052,7929 3081,7949 3112,7978 3178,8055 3248,8157 3322,8281 3472,8575 3619,8906 3752,9242 3857,9544 3283,9544 Z"/>
    <path fill="rgb(113,113,113)" stroke="none" d="M 3857,9544 L 3860,9553 3932,9806 3952,9901 3957,9939 3959,9970 3455,10263 3254,9795 3263,9789 3271,9781 3278,9773 3284,9763 3293,9739 3298,9712 3300,9680 3299,9644 3288,9564 3283,9544 3857,9544 Z M 3278,9522 L 3267,9473 3236,9375 3153,9169 3051,8967 2996,8876 2942,8795 2888,8727 2838,8674 2814,8655 2791,8641 2770,8632 2760,8630 2750,8629 2548,8220 2850,8038 2945,7982 2994,7956 3052,7929 3081,7949 3112,7978 3178,8055 3248,8157 3322,8281 3472,8575 3619,8906 3752,9242 3849,9522 3278,9522 Z"/>
    <path fill="rgb(114,114,114)" stroke="none" d="M 3849,9522 L 3860,9553 3932,9806 3952,9901 3957,9939 3959,9970 3455,10263 3254,9795 3263,9789 3271,9781 3278,9773 3284,9763 3293,9739 3298,9712 3300,9680 3299,9644 3288,9564 3278,9522 3849,9522 Z M 3841,9499 L 3273,9499 3267,9473 3236,9375 3153,9169 3051,8967 2996,8876 2942,8795 2888,8727 2838,8674 2814,8655 2791,8641 2770,8632 2760,8630 2750,8629 2548,8220 2850,8038 2945,7982 2994,7956 3052,7929 3081,7949 3112,7978 3178,8055 3248,8157 3322,8281 3472,8575 3619,8906 3752,9242 3841,9498 3841,9499 Z"/>
    <path fill="rgb(115,115,115)" stroke="none" d="M 3841,9499 L 3841,9498 3860,9553 3932,9806 3952,9901 3957,9939 3959,9970 3455,10263 3254,9795 3263,9789 3271,9781 3278,9773 3284,9763 3293,9739 3298,9712 3300,9680 3299,9644 3288,9564 3273,9499 3841,9499 Z M 3818,9476 L 3268,9476 3267,9473 3236,9375 3153,9169 3051,8967 2996,8876 2942,8795 2888,8727 2838,8674 2814,8655 2791,8641 2770,8632 2760,8630 2750,8629 2548,8220 2850,8038 2945,7982 2994,7956 3052,7929 3081,7949 3112,7978 3178,8055 3248,8157 3322,8281 3472,8575 3619,8906 3752,9242 3818,9432 3818,9476 Z"/>
    <path fill="rgb(116,116,116)" stroke="none" d="M 3818,9476 L 3818,9432 3860,9553 3932,9806 3952,9901 3957,9939 3959,9970 3455,10263 3254,9795 3263,9789 3271,9781 3278,9773 3284,9763 3293,9739 3298,9712 3300,9680 3299,9644 3288,9564 3268,9476 3818,9476 Z M 3795,9453 L 3261,9453 3236,9375 3153,9169 3051,8967 2996,8876 2942,8795 2888,8727 2838,8674 2814,8655 2791,8641 2770,8632 2760,8630 2750,8629 2548,8220 2850,8038 2945,7982 2994,7956 3052,7929 3081,7949 3112,7978 3178,8055 3248,8157 3322,8281 3472,8575 3619,8906 3752,9242 3795,9366 3795,9453 Z"/>
    <path fill="rgb(117,117,117)" stroke="none" d="M 3795,9453 L 3795,9366 3860,9553 3932,9806 3952,9901 3957,9939 3959,9970 3455,10263 3254,9795 3263,9789 3271,9781 3278,9773 3284,9763 3293,9739 3298,9712 3300,9680 3299,9644 3288,9564 3267,9473 3261,9453 3795,9453 Z M 3772,9430 L 3253,9430 3236,9375 3153,9169 3051,8967 2996,8876 2942,8795 2888,8727 2838,8674 2814,8655 2791,8641 2770,8632 2760,8630 2750,8629 2548,8220 2850,8038 2945,7982 2994,7956 3052,7929 3081,7949 3112,7978 3178,8055 3248,8157 3322,8281 3472,8575 3619,8906 3752,9242 3772,9300 3772,9430 Z"/>
    <path fill="rgb(118,118,118)" stroke="none" d="M 3772,9430 L 3772,9300 3860,9553 3932,9806 3952,9901 3957,9939 3959,9970 3455,10263 3254,9795 3263,9789 3271,9781 3278,9773 3284,9763 3293,9739 3298,9712 3300,9680 3299,9644 3288,9564 3267,9473 3253,9430 3772,9430 Z M 3749,9407 L 3246,9407 3236,9375 3153,9169 3051,8967 2996,8876 2942,8795 2888,8727 2838,8674 2814,8655 2791,8641 2770,8632 2760,8630 2750,8629 2548,8220 2850,8038 2945,7982 2994,7956 3052,7929 3081,7949 3112,7978 3178,8055 3248,8157 3322,8281 3472,8575 3619,8906 3749,9234 3749,9407 Z"/>
    <path fill="rgb(119,119,119)" stroke="none" d="M 3749,9407 L 3749,9234 3752,9242 3860,9553 3932,9806 3952,9901 3957,9939 3959,9970 3455,10263 3254,9795 3263,9789 3271,9781 3278,9773 3284,9763 3293,9739 3298,9712 3300,9680 3299,9644 3288,9564 3267,9473 3246,9407 3749,9407 Z M 3726,9384 L 3239,9384 3236,9375 3153,9169 3051,8967 2996,8876 2942,8795 2888,8727 2838,8674 2814,8655 2791,8641 2770,8632 2760,8630 2750,8629 2548,8220 2850,8038 2945,7982 2994,7956 3052,7929 3081,7949 3112,7978 3178,8055 3248,8157 3322,8281 3472,8575 3619,8906 3726,9176 3726,9384 Z"/>
    <path fill="rgb(120,120,120)" stroke="none" d="M 3726,9384 L 3726,9176 3752,9242 3860,9553 3932,9806 3952,9901 3957,9939 3959,9970 3455,10263 3254,9795 3263,9789 3271,9781 3278,9773 3284,9763 3293,9739 3298,9712 3300,9680 3299,9644 3288,9564 3267,9473 3239,9384 3726,9384 Z M 3703,9361 L 3230,9361 3153,9169 3051,8967 2996,8876 2942,8795 2888,8727 2838,8674 2814,8655 2791,8641 2770,8632 2760,8630 2750,8629 2548,8220 2850,8038 2945,7982 2994,7956 3052,7929 3081,7949 3112,7978 3178,8055 3248,8157 3322,8281 3472,8575 3619,8906 3703,9118 3703,9361 Z"/>
    <path fill="rgb(121,121,121)" stroke="none" d="M 3703,9361 L 3703,9118 3752,9242 3860,9553 3932,9806 3952,9901 3957,9939 3959,9970 3455,10263 3254,9795 3263,9789 3271,9781 3278,9773 3284,9763 3293,9739 3298,9712 3300,9680 3299,9644 3288,9564 3267,9473 3236,9375 3230,9361 3703,9361 Z M 3680,9338 L 3221,9338 3153,9169 3051,8967 2996,8876 2942,8795 2888,8727 2838,8674 2814,8655 2791,8641 2770,8632 2760,8630 2750,8629 2548,8220 2850,8038 2945,7982 2994,7956 3052,7929 3081,7949 3112,7978 3178,8055 3248,8157 3322,8281 3472,8575 3619,8906 3680,9060 3680,9338 Z"/>
    <path fill="rgb(122,122,122)" stroke="none" d="M 3680,9338 L 3680,9060 3752,9242 3860,9553 3932,9806 3952,9901 3957,9939 3959,9970 3455,10263 3254,9795 3263,9789 3271,9781 3278,9773 3284,9763 3293,9739 3298,9712 3300,9680 3299,9644 3288,9564 3267,9473 3236,9375 3221,9338 3680,9338 Z M 3071,7942 L 3081,7949 3112,7978 3178,8055 3248,8157 3322,8281 3472,8575 3619,8906 3657,9002 3657,9315 3212,9315 3153,9169 3051,8967 2996,8876 2942,8795 2888,8727 2838,8674 2814,8655 2791,8641 2770,8632 2760,8630 2750,8629 2548,8220 2850,8038 2945,7982 2994,7956 3024,7942 3071,7942 Z"/>
    <path fill="rgb(123,123,123)" stroke="none" d="M 3657,9315 L 3657,9002 3752,9242 3860,9553 3932,9806 3952,9901 3957,9939 3959,9970 3455,10263 3254,9795 3263,9789 3271,9781 3278,9773 3284,9763 3293,9739 3298,9712 3300,9680 3299,9644 3288,9564 3267,9473 3236,9375 3212,9315 3657,9315 Z M 3024,7942 L 3052,7929 3071,7942 3024,7942 Z M 3098,7965 L 3112,7978 3178,8055 3248,8157 3322,8281 3472,8575 3619,8906 3634,8944 3634,9292 3203,9292 3153,9169 3051,8967 2996,8876 2942,8795 2888,8727 2838,8674 2814,8655 2791,8641 2770,8632 2760,8630 2750,8629 2548,8220 2850,8038 2945,7982 2977,7965 3098,7965 Z"/>
    <path fill="rgb(124,124,124)" stroke="none" d="M 3634,9292 L 3634,8944 3752,9242 3860,9553 3932,9806 3952,9901 3957,9939 3959,9970 3455,10263 3254,9795 3263,9789 3271,9781 3278,9773 3284,9763 3293,9739 3298,9712 3300,9680 3299,9644 3288,9564 3267,9473 3236,9375 3203,9292 3634,9292 Z M 2977,7965 L 2994,7956 3052,7929 3081,7949 3098,7965 2977,7965 Z M 3120,7987 L 3178,8055 3248,8157 3322,8281 3472,8575 3612,8890 3612,9270 3194,9270 3153,9169 3051,8967 2996,8876 2942,8795 2888,8727 2838,8674 2814,8655 2791,8641 2770,8632 2760,8630 2750,8629 2548,8220 2850,8038 2937,7987 3120,7987 Z"/>
    <path fill="rgb(125,125,125)" stroke="none" d="M 3612,9270 L 3612,8890 3619,8906 3752,9242 3860,9553 3932,9806 3952,9901 3957,9939 3959,9970 3455,10263 3254,9795 3263,9789 3271,9781 3278,9773 3284,9763 3293,9739 3298,9712 3300,9680 3299,9644 3288,9564 3267,9473 3236,9375 3194,9270 3612,9270 Z M 2937,7987 L 2945,7982 2994,7956 3052,7929 3081,7949 3112,7978 3120,7987 2937,7987 Z M 3139,8010 L 3178,8055 3248,8157 3322,8281 3472,8575 3589,8838 3589,9247 3184,9247 3153,9169 3051,8967 2996,8876 2942,8795 2888,8727 2838,8674 2814,8655 2791,8641 2770,8632 2760,8630 2750,8629 2548,8220 2850,8038 2898,8010 3139,8010 Z"/>
    <path fill="rgb(126,126,126)" stroke="none" d="M 3589,9247 L 3589,8838 3619,8906 3752,9242 3860,9553 3932,9806 3952,9901 3957,9939 3959,9970 3455,10263 3254,9795 3263,9789 3271,9781 3278,9773 3284,9763 3293,9739 3298,9712 3300,9680 3299,9644 3288,9564 3267,9473 3236,9375 3184,9247 3589,9247 Z M 2898,8010 L 2945,7982 2994,7956 3052,7929 3081,7949 3112,7978 3139,8010 2898,8010 Z M 3159,8033 L 3178,8055 3248,8157 3322,8281 3472,8575 3566,8787 3566,9224 3175,9224 3153,9169 3051,8967 2996,8876 2942,8795 2888,8727 2838,8674 2814,8655 2791,8641 2770,8632 2760,8630 2750,8629 2548,8220 2850,8038 2858,8033 3159,8033 Z"/>
    <path fill="rgb(127,127,127)" stroke="none" d="M 3566,9224 L 3566,8787 3619,8906 3752,9242 3860,9553 3932,9806 3952,9901 3957,9939 3959,9970 3455,10263 3254,9795 3263,9789 3271,9781 3278,9773 3284,9763 3293,9739 3298,9712 3300,9680 3299,9644 3288,9564 3267,9473 3236,9375 3175,9224 3566,9224 Z M 2858,8033 L 2945,7982 2994,7956 3052,7929 3081,7949 3112,7978 3159,8033 2858,8033 Z M 3179,8056 L 3248,8157 3322,8281 3472,8575 3543,8735 3543,9201 3166,9201 3153,9169 3051,8967 2996,8876 2942,8795 2888,8727 2838,8674 2814,8655 2791,8641 2770,8632 2760,8630 2750,8629 2548,8220 2820,8056 3179,8056 Z"/>
    <path fill="rgb(128,128,128)" stroke="none" d="M 3543,9201 L 3543,8735 3619,8906 3752,9242 3860,9553 3932,9806 3952,9901 3957,9939 3959,9970 3455,10263 3254,9795 3263,9789 3271,9781 3278,9773 3284,9763 3293,9739 3298,9712 3300,9680 3299,9644 3288,9564 3267,9473 3236,9375 3166,9201 3543,9201 Z M 2820,8056 L 2850,8038 2945,7982 2994,7956 3052,7929 3081,7949 3112,7978 3178,8055 3179,8056 2820,8056 Z M 3194,8079 L 3248,8157 3322,8281 3472,8575 3520,8683 3520,9178 3157,9178 3153,9169 3051,8967 2996,8876 2942,8795 2888,8727 2838,8674 2814,8655 2791,8641 2770,8632 2760,8630 2750,8629 2548,8220 2782,8079 3194,8079 Z"/>
    <path fill="rgb(129,129,129)" stroke="none" d="M 3520,9178 L 3520,8683 3619,8906 3752,9242 3860,9553 3932,9806 3952,9901 3957,9939 3959,9970 3455,10263 3254,9795 3263,9789 3271,9781 3278,9773 3284,9763 3293,9739 3298,9712 3300,9680 3299,9644 3288,9564 3267,9473 3236,9375 3157,9178 3520,9178 Z M 2782,8079 L 2850,8038 2945,7982 2994,7956 3052,7929 3081,7949 3112,7978 3178,8055 3194,8079 2782,8079 Z M 3210,8102 L 3248,8157 3322,8281 3472,8575 3497,8631 3497,9155 3146,9155 3051,8967 2996,8876 2942,8795 2888,8727 2838,8674 2814,8655 2791,8641 2770,8632 2760,8630 2750,8629 2548,8220 2744,8102 3210,8102 Z"/>
    <path fill="rgb(130,130,130)" stroke="none" d="M 3497,9155 L 3497,8631 3619,8906 3752,9242 3860,9553 3932,9806 3952,9901 3957,9939 3959,9970 3455,10263 3254,9795 3263,9789 3271,9781 3278,9773 3284,9763 3293,9739 3298,9712 3300,9680 3299,9644 3288,9564 3267,9473 3236,9375 3153,9169 3146,9155 3497,9155 Z M 2744,8102 L 2850,8038 2945,7982 2994,7956 3052,7929 3081,7949 3112,7978 3178,8055 3210,8102 2744,8102 Z M 3226,8125 L 3248,8157 3322,8281 3472,8575 3474,8580 3474,9132 3134,9132 3051,8967 2996,8876 2942,8795 2888,8727 2838,8674 2814,8655 2791,8641 2770,8632 2760,8630 2750,8629 2548,8220 2706,8125 3226,8125 Z"/>
    <path fill="rgb(131,131,131)" stroke="none" d="M 3474,9132 L 3474,8580 3619,8906 3752,9242 3860,9553 3932,9806 3952,9901 3957,9939 3959,9970 3455,10263 3254,9795 3263,9789 3271,9781 3278,9773 3284,9763 3293,9739 3298,9712 3300,9680 3299,9644 3288,9564 3267,9473 3236,9375 3153,9169 3134,9132 3474,9132 Z M 2706,8125 L 2850,8038 2945,7982 2994,7956 3052,7929 3081,7949 3112,7978 3178,8055 3226,8125 2706,8125 Z M 3242,8148 L 3248,8157 3322,8281 3451,8534 3451,9109 3123,9109 3051,8967 2996,8876 2942,8795 2888,8727 2838,8674 2814,8655 2791,8641 2770,8632 2760,8630 2750,8629 2548,8220 2667,8148 3242,8148 Z"/>
    <path fill="rgb(132,132,132)" stroke="none" d="M 3451,9109 L 3451,8534 3472,8575 3619,8906 3752,9242 3860,9553 3932,9806 3952,9901 3957,9939 3959,9970 3455,10263 3254,9795 3263,9789 3271,9781 3278,9773 3284,9763 3293,9739 3298,9712 3300,9680 3299,9644 3288,9564 3267,9473 3236,9375 3153,9169 3123,9109 3451,9109 Z M 2667,8148 L 2850,8038 2945,7982 2994,7956 3052,7929 3081,7949 3112,7978 3178,8055 3242,8148 2667,8148 Z M 3256,8171 L 3322,8281 3428,8489 3428,9086 3111,9086 3051,8967 2996,8876 2942,8795 2888,8727 2838,8674 2814,8655 2791,8641 2770,8632 2760,8630 2750,8629 2548,8220 2629,8171 3256,8171 Z"/>
    <path fill="rgb(133,133,133)" stroke="none" d="M 3428,9086 L 3428,8489 3472,8575 3619,8906 3752,9242 3860,9553 3932,9806 3952,9901 3957,9939 3959,9970 3455,10263 3254,9795 3263,9789 3271,9781 3278,9773 3284,9763 3293,9739 3298,9712 3300,9680 3299,9644 3288,9564 3267,9473 3236,9375 3153,9169 3111,9086 3428,9086 Z M 2629,8171 L 2850,8038 2945,7982 2994,7956 3052,7929 3081,7949 3112,7978 3178,8055 3248,8157 3256,8171 2629,8171 Z M 3270,8194 L 3322,8281 3405,8444 3405,9063 3099,9063 3051,8967 2996,8876 2942,8795 2888,8727 2838,8674 2814,8655 2791,8641 2770,8632 2760,8630 2750,8629 2548,8220 2591,8194 3270,8194 Z"/>
    <path fill="rgb(134,134,134)" stroke="none" d="M 3405,9063 L 3405,8444 3472,8575 3619,8906 3752,9242 3860,9553 3932,9806 3952,9901 3957,9939 3959,9970 3455,10263 3254,9795 3263,9789 3271,9781 3278,9773 3284,9763 3293,9739 3298,9712 3300,9680 3299,9644 3288,9564 3267,9473 3236,9375 3153,9169 3099,9063 3405,9063 Z M 2591,8194 L 2850,8038 2945,7982 2994,7956 3052,7929 3081,7949 3112,7978 3178,8055 3248,8157 3270,8194 2591,8194 Z M 2559,8217 L 3284,8217 3322,8281 3382,8399 3382,9040 3088,9040 3051,8967 2996,8876 2942,8795 2888,8727 2838,8674 2814,8655 2791,8641 2770,8632 2760,8630 2750,8629 2559,8242 2559,8217 Z"/>
    <path fill="rgb(135,135,135)" stroke="none" d="M 2559,8217 L 2559,8242 2548,8220 2850,8038 2945,7982 2994,7956 3052,7929 3081,7949 3112,7978 3178,8055 3248,8157 3284,8217 2559,8217 Z M 3382,9040 L 3382,8399 3472,8575 3619,8906 3752,9242 3860,9553 3932,9806 3952,9901 3957,9939 3959,9970 3455,10263 3254,9795 3263,9789 3271,9781 3278,9773 3284,9763 3293,9739 3298,9712 3300,9680 3299,9644 3288,9564 3267,9473 3236,9375 3153,9169 3088,9040 3382,9040 Z M 2581,8240 L 3298,8240 3322,8281 3359,8354 3359,9017 3076,9017 3051,8967 2996,8876 2942,8795 2888,8727 2838,8674 2814,8655 2791,8641 2770,8632 2760,8630 2750,8629 2581,8287 2581,8240 Z"/>
    <path fill="rgb(136,136,136)" stroke="none" d="M 2581,8240 L 2581,8287 2548,8220 2850,8038 2945,7982 2994,7956 3052,7929 3081,7949 3112,7978 3178,8055 3248,8157 3298,8240 2581,8240 Z M 3359,9017 L 3359,8354 3472,8575 3619,8906 3752,9242 3860,9553 3932,9806 3952,9901 3957,9939 3959,9970 3455,10263 3254,9795 3263,9789 3271,9781 3278,9773 3284,9763 3293,9739 3298,9712 3300,9680 3299,9644 3288,9564 3267,9473 3236,9375 3153,9169 3076,9017 3359,9017 Z M 2604,8262 L 3311,8262 3322,8281 3337,8310 3337,8995 3065,8995 3051,8967 2996,8876 2942,8795 2888,8727 2838,8674 2814,8655 2791,8641 2770,8632 2760,8630 2750,8629 2604,8333 2604,8262 Z"/>
    <path fill="rgb(137,137,137)" stroke="none" d="M 2604,8262 L 2604,8333 2548,8220 2850,8038 2945,7982 2994,7956 3052,7929 3081,7949 3112,7978 3178,8055 3248,8157 3311,8262 2604,8262 Z M 3337,8995 L 3337,8310 3472,8575 3619,8906 3752,9242 3860,9553 3932,9806 3952,9901 3957,9939 3959,9970 3455,10263 3254,9795 3263,9789 3271,9781 3278,9773 3284,9763 3293,9739 3298,9712 3300,9680 3299,9644 3288,9564 3267,9473 3236,9375 3153,9169 3065,8995 3337,8995 Z M 2627,8285 L 3314,8285 3314,8972 3054,8972 3051,8967 2996,8876 2942,8795 2888,8727 2838,8674 2814,8655 2791,8641 2770,8632 2760,8630 2750,8629 2627,8380 2627,8285 Z"/>
    <path fill="rgb(138,138,138)" stroke="none" d="M 2627,8285 L 2627,8380 2548,8220 2850,8038 2945,7982 2994,7956 3052,7929 3081,7949 3112,7978 3178,8055 3248,8157 3322,8281 3472,8575 3619,8906 3752,9242 3860,9553 3932,9806 3952,9901 3957,9939 3959,9970 3455,10263 3254,9795 3263,9789 3271,9781 3278,9773 3284,9763 3293,9739 3298,9712 3300,9680 3299,9644 3288,9564 3267,9473 3236,9375 3153,9169 3054,8972 3314,8972 3314,8285 2627,8285 Z M 2650,8308 L 3291,8308 3291,8949 3040,8949 2996,8876 2942,8795 2888,8727 2838,8674 2814,8655 2791,8641 2770,8632 2760,8630 2750,8629 2650,8427 2650,8308 Z"/>
    <path fill="rgb(139,139,139)" stroke="none" d="M 2650,8308 L 2650,8427 2548,8220 2850,8038 2945,7982 2994,7956 3052,7929 3081,7949 3112,7978 3178,8055 3248,8157 3322,8281 3472,8575 3619,8906 3752,9242 3860,9553 3932,9806 3952,9901 3957,9939 3959,9970 3455,10263 3254,9795 3263,9789 3271,9781 3278,9773 3284,9763 3293,9739 3298,9712 3300,9680 3299,9644 3288,9564 3267,9473 3236,9375 3153,9169 3051,8967 3040,8949 3291,8949 3291,8308 2650,8308 Z M 2673,8331 L 3268,8331 3268,8926 3026,8926 2996,8876 2942,8795 2888,8727 2838,8674 2814,8655 2791,8641 2770,8632 2760,8630 2750,8629 2673,8473 2673,8331 Z"/>
    <path fill="rgb(140,140,140)" stroke="none" d="M 2673,8331 L 2673,8473 2548,8220 2850,8038 2945,7982 2994,7956 3052,7929 3081,7949 3112,7978 3178,8055 3248,8157 3322,8281 3472,8575 3619,8906 3752,9242 3860,9553 3932,9806 3952,9901 3957,9939 3959,9970 3455,10263 3254,9795 3263,9789 3271,9781 3278,9773 3284,9763 3293,9739 3298,9712 3300,9680 3299,9644 3288,9564 3267,9473 3236,9375 3153,9169 3051,8967 3026,8926 3268,8926 3268,8331 2673,8331 Z M 2696,8354 L 3245,8354 3245,8903 3012,8903 2996,8876 2942,8795 2888,8727 2838,8674 2814,8655 2791,8641 2770,8632 2760,8630 2750,8629 2696,8520 2696,8354 Z"/>
    <path fill="rgb(141,141,141)" stroke="none" d="M 2696,8354 L 2696,8520 2548,8220 2850,8038 2945,7982 2994,7956 3052,7929 3081,7949 3112,7978 3178,8055 3248,8157 3322,8281 3472,8575 3619,8906 3752,9242 3860,9553 3932,9806 3952,9901 3957,9939 3959,9970 3455,10263 3254,9795 3263,9789 3271,9781 3278,9773 3284,9763 3293,9739 3298,9712 3300,9680 3299,9644 3288,9564 3267,9473 3236,9375 3153,9169 3051,8967 3012,8903 3245,8903 3245,8354 2696,8354 Z M 2719,8377 L 3222,8377 3222,8880 2998,8880 2996,8876 2942,8795 2888,8727 2838,8674 2814,8655 2791,8641 2770,8632 2760,8630 2750,8629 2719,8566 2719,8377 Z"/>
    <path fill="rgb(142,142,142)" stroke="none" d="M 2719,8377 L 2719,8566 2548,8220 2850,8038 2945,7982 2994,7956 3052,7929 3081,7949 3112,7978 3178,8055 3248,8157 3322,8281 3472,8575 3619,8906 3752,9242 3860,9553 3932,9806 3952,9901 3957,9939 3959,9970 3455,10263 3254,9795 3263,9789 3271,9781 3278,9773 3284,9763 3293,9739 3298,9712 3300,9680 3299,9644 3288,9564 3267,9473 3236,9375 3153,9169 3051,8967 2998,8880 3222,8880 3222,8377 2719,8377 Z M 2742,8400 L 3199,8400 3199,8857 2983,8857 2942,8795 2888,8727 2838,8674 2814,8655 2791,8641 2770,8632 2760,8630 2750,8629 2742,8613 2742,8400 Z"/>
    <path fill="rgb(143,143,143)" stroke="none" d="M 2742,8400 L 2742,8613 2548,8220 2850,8038 2945,7982 2994,7956 3052,7929 3081,7949 3112,7978 3178,8055 3248,8157 3322,8281 3472,8575 3619,8906 3752,9242 3860,9553 3932,9806 3952,9901 3957,9939 3959,9970 3455,10263 3254,9795 3263,9789 3271,9781 3278,9773 3284,9763 3293,9739 3298,9712 3300,9680 3299,9644 3288,9564 3267,9473 3236,9375 3153,9169 3051,8967 2996,8876 2983,8857 3199,8857 3199,8400 2742,8400 Z M 2765,8423 L 3176,8423 3176,8834 2968,8834 2942,8795 2888,8727 2838,8674 2814,8655 2791,8641 2770,8632 2765,8631 2765,8423 Z"/>
    <path fill="rgb(144,144,144)" stroke="none" d="M 2765,8423 L 2765,8631 2760,8630 2750,8629 2548,8220 2850,8038 2945,7982 2994,7956 3052,7929 3081,7949 3112,7978 3178,8055 3248,8157 3322,8281 3472,8575 3619,8906 3752,9242 3860,9553 3932,9806 3952,9901 3957,9939 3959,9970 3455,10263 3254,9795 3263,9789 3271,9781 3278,9773 3284,9763 3293,9739 3298,9712 3300,9680 3299,9644 3288,9564 3267,9473 3236,9375 3153,9169 3051,8967 2996,8876 2968,8834 3176,8834 3176,8423 2765,8423 Z M 2788,8446 L 3153,8446 3153,8811 2953,8811 2942,8795 2888,8727 2838,8674 2814,8655 2791,8641 2788,8640 2788,8446 Z"/>
    <path fill="rgb(145,145,145)" stroke="none" d="M 2788,8446 L 2788,8640 2770,8632 2760,8630 2750,8629 2548,8220 2850,8038 2945,7982 2994,7956 3052,7929 3081,7949 3112,7978 3178,8055 3248,8157 3322,8281 3472,8575 3619,8906 3752,9242 3860,9553 3932,9806 3952,9901 3957,9939 3959,9970 3455,10263 3254,9795 3263,9789 3271,9781 3278,9773 3284,9763 3293,9739 3298,9712 3300,9680 3299,9644 3288,9564 3267,9473 3236,9375 3153,9169 3051,8967 2996,8876 2953,8811 3153,8811 3153,8446 2788,8446 Z M 2811,8469 L 3130,8469 3130,8788 2936,8788 2888,8727 2838,8674 2814,8655 2811,8653 2811,8469 Z"/>
    <path fill="rgb(146,146,146)" stroke="none" d="M 2811,8469 L 2811,8653 2791,8641 2770,8632 2760,8630 2750,8629 2548,8220 2850,8038 2945,7982 2994,7956 3052,7929 3081,7949 3112,7978 3178,8055 3248,8157 3322,8281 3472,8575 3619,8906 3752,9242 3860,9553 3932,9806 3952,9901 3957,9939 3959,9970 3455,10263 3254,9795 3263,9789 3271,9781 3278,9773 3284,9763 3293,9739 3298,9712 3300,9680 3299,9644 3288,9564 3267,9473 3236,9375 3153,9169 3051,8967 2996,8876 2942,8795 2936,8788 3130,8788 3130,8469 2811,8469 Z M 2834,8492 L 3107,8492 3107,8765 2918,8765 2888,8727 2838,8674 2834,8671 2834,8492 Z"/>
    <path fill="rgb(147,147,147)" stroke="none" d="M 2834,8492 L 2834,8671 2814,8655 2791,8641 2770,8632 2760,8630 2750,8629 2548,8220 2850,8038 2945,7982 2994,7956 3052,7929 3081,7949 3112,7978 3178,8055 3248,8157 3322,8281 3472,8575 3619,8906 3752,9242 3860,9553 3932,9806 3952,9901 3957,9939 3959,9970 3455,10263 3254,9795 3263,9789 3271,9781 3278,9773 3284,9763 3293,9739 3298,9712 3300,9680 3299,9644 3288,9564 3267,9473 3236,9375 3153,9169 3051,8967 2996,8876 2942,8795 2918,8765 3107,8765 3107,8492 2834,8492 Z M 2856,8514 L 3085,8514 3085,8743 2901,8743 2888,8727 2856,8693 2856,8514 Z"/>
    <path fill="rgb(148,148,148)" stroke="none" d="M 2856,8514 L 2856,8693 2838,8674 2814,8655 2791,8641 2770,8632 2760,8630 2750,8629 2548,8220 2850,8038 2945,7982 2994,7956 3052,7929 3081,7949 3112,7978 3178,8055 3248,8157 3322,8281 3472,8575 3619,8906 3752,9242 3860,9553 3932,9806 3952,9901 3957,9939 3959,9970 3455,10263 3254,9795 3263,9789 3271,9781 3278,9773 3284,9763 3293,9739 3298,9712 3300,9680 3299,9644 3288,9564 3267,9473 3236,9375 3153,9169 3051,8967 2996,8876 2942,8795 2901,8743 3085,8743 3085,8514 2856,8514 Z M 2879,8537 L 3062,8537 3062,8720 2881,8720 2879,8717 2879,8537 Z"/>
    <path fill="rgb(149,149,149)" stroke="none" d="M 2879,8537 L 2879,8717 2838,8674 2814,8655 2791,8641 2770,8632 2760,8630 2750,8629 2548,8220 2850,8038 2945,7982 2994,7956 3052,7929 3081,7949 3112,7978 3178,8055 3248,8157 3322,8281 3472,8575 3619,8906 3752,9242 3860,9553 3932,9806 3952,9901 3957,9939 3959,9970 3455,10263 3254,9795 3263,9789 3271,9781 3278,9773 3284,9763 3293,9739 3298,9712 3300,9680 3299,9644 3288,9564 3267,9473 3236,9375 3153,9169 3051,8967 2996,8876 2942,8795 2888,8727 2881,8720 3062,8720 3062,8537 2879,8537 Z M 2902,8560 L 3039,8560 3039,8697 2902,8697 2902,8560 Z"/>
    <path fill="rgb(150,150,150)" stroke="none" d="M 2902,8560 L 2902,8697 3039,8697 3039,8560 2902,8560 Z M 2925,8583 L 3016,8583 3016,8674 2925,8674 2925,8583 Z M 3052,7929 L 3081,7949 3112,7978 3178,8055 3248,8157 3322,8281 3472,8575 3619,8906 3752,9242 3860,9553 3932,9806 3952,9901 3957,9939 3959,9970 3455,10263 3254,9795 3263,9789 3271,9781 3278,9773 3284,9763 3293,9739 3298,9712 3300,9680 3299,9644 3288,9564 3267,9473 3236,9375 3153,9169 3051,8967 2996,8876 2942,8795 2888,8727 2838,8674 2814,8655 2791,8641 2770,8632 2760,8630 2750,8629 2548,8220 2850,8038 2945,7982 2994,7956 3052,7929 Z"/>
    <path fill="rgb(151,151,151)" stroke="none" d="M 2925,8583 L 2925,8674 3016,8674 3016,8583 2925,8583 Z M 2948,8606 L 2993,8606 2993,8651 2948,8651 2948,8606 Z M 3052,7929 L 3081,7949 3112,7978 3178,8055 3248,8157 3322,8281 3472,8575 3619,8906 3752,9242 3860,9553 3932,9806 3952,9901 3957,9939 3959,9970 3455,10263 3254,9795 3263,9789 3271,9781 3278,9773 3284,9763 3293,9739 3298,9712 3300,9680 3299,9644 3288,9564 3267,9473 3236,9375 3153,9169 3051,8967 2996,8876 2942,8795 2888,8727 2838,8674 2814,8655 2791,8641 2770,8632 2760,8630 2750,8629 2548,8220 2850,8038 2945,7982 2994,7956 3052,7929 Z"/>
    <path fill="rgb(153,153,153)" stroke="none" d="M 2948,8606 L 2948,8651 2993,8651 2993,8606 2948,8606 Z M 3052,7929 L 3081,7949 3112,7978 3178,8055 3248,8157 3322,8281 3472,8575 3619,8906 3752,9242 3860,9553 3932,9806 3952,9901 3957,9939 3959,9970 3455,10263 3254,9795 3263,9789 3271,9781 3278,9773 3284,9763 3293,9739 3298,9712 3300,9680 3299,9644 3288,9564 3267,9473 3236,9375 3153,9169 3051,8967 2996,8876 2942,8795 2888,8727 2838,8674 2814,8655 2791,8641 2770,8632 2760,8630 2750,8629 2548,8220 2850,8038 2945,7982 2994,7956 3052,7929 Z"/>
    <path fill="none" stroke="rgb(178,178,178)" id="Drawing_4_0" stroke-width="40" stroke-linejoin="round" d="M 3052,7929 C 2884,8006 2850,8045 2548,8220 2615,8356 2683,8493 2750,8629 2951,8629 3455,9679 3254,9795 3320,9952 3388,10106 3455,10263 3623,10165 3792,10068 3959,9970 3959,9679 3355,8104 3052,7929 Z"/>
   </g>
   <g>
    <path fill="none" stroke="rgb(178,178,178)" id="Drawing_5_0" stroke-width="40" stroke-linejoin="round" d="M 3456,10145 C 3658,9445 2852,8280 2650,8279"/>
   </g>
   <g>
    <path fill="none" stroke="rgb(178,178,178)" id="Drawing_6_0" stroke-width="40" stroke-linejoin="round" d="M 4203,10053 L 3195,7719"/>
   </g>
   <g id="DrawingGroup_2">
    <g>
     <path fill="rgb(102,102,102)" stroke="none" d="M 4946,9376 L 4655,9545 4103,9545 3911,9101 4919,8517 4946,8580 4946,9376 Z"/>
     <path fill="rgb(103,103,103)" stroke="none" d="M 4655,9545 L 4213,9801 4103,9545 4655,9545 Z M 4946,8580 L 5221,9217 4946,9376 4946,8580 Z M 4933,9384 L 4677,9532 4097,9532 3911,9101 4919,8517 4933,8549 4933,9384 Z"/>
     <path fill="rgb(104,104,104)" stroke="none" d="M 4677,9532 L 4213,9801 4097,9532 4677,9532 Z M 4933,8549 L 5221,9217 4933,9384 4933,8549 Z M 4920,9391 L 4700,9519 4091,9519 3911,9101 4919,8517 4920,8519 4920,9391 Z"/>
     <path fill="rgb(105,105,105)" stroke="none" d="M 4700,9519 L 4213,9801 4091,9519 4700,9519 Z M 4920,8519 L 5221,9217 4920,9391 4920,8519 Z M 4907,9399 L 4722,9506 4086,9506 3911,9101 4907,8524 4907,9399 Z"/>
     <path fill="rgb(106,106,106)" stroke="none" d="M 4722,9506 L 4213,9801 4086,9506 4722,9506 Z M 4907,8524 L 4919,8517 5221,9217 4907,9399 4907,8524 Z M 4894,9406 L 4745,9493 4080,9493 3911,9101 4894,8531 4894,9406 Z"/>
     <path fill="rgb(107,107,107)" stroke="none" d="M 4745,9493 L 4213,9801 4080,9493 4745,9493 Z M 4894,8531 L 4919,8517 5221,9217 4894,9406 4894,8531 Z M 4881,9414 L 4767,9480 4075,9480 3911,9101 4881,8539 4881,9414 Z"/>
     <path fill="rgb(108,108,108)" stroke="none" d="M 4767,9480 L 4213,9801 4075,9480 4767,9480 Z M 4881,8539 L 4919,8517 5221,9217 4881,9414 4881,8539 Z M 4868,9422 L 4789,9467 4069,9467 3911,9101 4868,8547 4868,9422 Z"/>
     <path fill="rgb(109,109,109)" stroke="none" d="M 4789,9467 L 4213,9801 4069,9467 4789,9467 Z M 4868,8547 L 4919,8517 5221,9217 4868,9422 4868,8547 Z M 4856,9428 L 4810,9455 4064,9455 3911,9101 4856,8554 4856,9428 Z"/>
     <path fill="rgb(110,110,110)" stroke="none" d="M 4810,9455 L 4213,9801 4064,9455 4810,9455 Z M 4856,8554 L 4919,8517 5221,9217 4856,9428 4856,8554 Z M 4843,9436 L 4833,9442 4058,9442 3911,9101 4843,8561 4843,9436 Z"/>
     <path fill="rgb(111,111,111)" stroke="none" d="M 4833,9442 L 4213,9801 4058,9442 4833,9442 Z M 4843,8561 L 4919,8517 5221,9217 4843,9436 4843,8561 Z M 4830,9429 L 4053,9429 3911,9101 4830,8569 4830,9429 Z"/>
     <path fill="rgb(112,112,112)" stroke="none" d="M 4830,9429 L 4830,8569 4919,8517 5221,9217 4213,9801 4053,9429 4830,9429 Z M 4817,9416 L 4047,9416 3911,9101 4817,8576 4817,9416 Z"/>
     <path fill="rgb(113,113,113)" stroke="none" d="M 4817,9416 L 4817,8576 4919,8517 5221,9217 4213,9801 4047,9416 4817,9416 Z M 4804,9403 L 4041,9403 3911,9101 4804,8584 4804,9403 Z"/>
     <path fill="rgb(114,114,114)" stroke="none" d="M 4804,9403 L 4804,8584 4919,8517 5221,9217 4213,9801 4041,9403 4804,9403 Z M 4791,9390 L 4036,9390 3911,9101 4791,8591 4791,9390 Z"/>
     <path fill="rgb(115,115,115)" stroke="none" d="M 4791,9390 L 4791,8591 4919,8517 5221,9217 4213,9801 4036,9390 4791,9390 Z M 4778,9377 L 4030,9377 3911,9101 4778,8599 4778,9377 Z"/>
     <path fill="rgb(116,116,116)" stroke="none" d="M 4778,9377 L 4778,8599 4919,8517 5221,9217 4213,9801 4030,9377 4778,9377 Z M 4765,9364 L 4024,9364 3911,9101 4765,8606 4765,9364 Z"/>
     <path fill="rgb(117,117,117)" stroke="none" d="M 4765,9364 L 4765,8606 4919,8517 5221,9217 4213,9801 4024,9364 4765,9364 Z M 4753,9352 L 4019,9352 3911,9101 4753,8613 4753,9352 Z"/>
     <path fill="rgb(118,118,118)" stroke="none" d="M 4753,9352 L 4753,8613 4919,8517 5221,9217 4213,9801 4019,9352 4753,9352 Z M 4740,9339 L 4014,9339 3911,9101 4740,8621 4740,9339 Z"/>
     <path fill="rgb(119,119,119)" stroke="none" d="M 4740,9339 L 4740,8621 4919,8517 5221,9217 4213,9801 4014,9339 4740,9339 Z M 4727,9326 L 4008,9326 3911,9101 4727,8628 4727,9326 Z"/>
     <path fill="rgb(120,120,120)" stroke="none" d="M 4727,9326 L 4727,8628 4919,8517 5221,9217 4213,9801 4008,9326 4727,9326 Z M 4714,9313 L 4002,9313 3911,9101 4714,8636 4714,9313 Z"/>
     <path fill="rgb(121,121,121)" stroke="none" d="M 4714,9313 L 4714,8636 4919,8517 5221,9217 4213,9801 4002,9313 4714,9313 Z M 4701,9300 L 3997,9300 3911,9101 4701,8643 4701,9300 Z"/>
     <path fill="rgb(122,122,122)" stroke="none" d="M 4701,9300 L 4701,8643 4919,8517 5221,9217 4213,9801 3997,9300 4701,9300 Z M 4688,9287 L 3991,9287 3917,9115 3917,9098 4688,8651 4688,9287 Z"/>
     <path fill="rgb(123,123,123)" stroke="none" d="M 3917,9115 L 3911,9101 3917,9098 3917,9115 Z M 4688,9287 L 4688,8651 4919,8517 5221,9217 4213,9801 3991,9287 4688,9287 Z M 4675,9274 L 3986,9274 3930,9145 3930,9090 4675,8658 4675,9274 Z"/>
     <path fill="rgb(124,124,124)" stroke="none" d="M 3930,9145 L 3911,9101 3930,9090 3930,9145 Z M 4675,9274 L 4675,8658 4919,8517 5221,9217 4213,9801 3986,9274 4675,9274 Z M 4662,9261 L 3980,9261 3943,9175 3943,9082 4662,8666 4662,9261 Z"/>
     <path fill="rgb(125,125,125)" stroke="none" d="M 3943,9175 L 3911,9101 3943,9082 3943,9175 Z M 4662,9261 L 4662,8666 4919,8517 5221,9217 4213,9801 3980,9261 4662,9261 Z M 4650,9249 L 3975,9249 3955,9203 3955,9076 4650,8673 4650,9249 Z"/>
     <path fill="rgb(126,126,126)" stroke="none" d="M 3955,9203 L 3911,9101 3955,9076 3955,9203 Z M 4650,9249 L 4650,8673 4919,8517 5221,9217 4213,9801 3975,9249 4650,9249 Z M 4637,9236 L 3969,9236 3968,9233 3968,9068 4637,8680 4637,9236 Z"/>
     <path fill="rgb(127,127,127)" stroke="none" d="M 3968,9233 L 3911,9101 3968,9068 3968,9233 Z M 4637,9236 L 4637,8680 4919,8517 5221,9217 4213,9801 3969,9236 4637,9236 Z M 4624,9223 L 3981,9223 3981,9060 4624,8688 4624,9223 Z"/>
     <path fill="rgb(128,128,128)" stroke="none" d="M 3981,9223 L 4624,9223 4624,8688 4919,8517 5221,9217 4213,9801 3911,9101 3981,9060 3981,9223 Z M 4611,9210 L 3994,9210 3994,9053 4611,8695 4611,9210 Z"/>
     <path fill="rgb(129,129,129)" stroke="none" d="M 3994,9210 L 4611,9210 4611,8695 4919,8517 5221,9217 4213,9801 3911,9101 3994,9053 3994,9210 Z M 4598,9197 L 4007,9197 4007,9045 4598,8703 4598,9197 Z"/>
     <path fill="rgb(130,130,130)" stroke="none" d="M 4007,9197 L 4598,9197 4598,8703 4919,8517 5221,9217 4213,9801 3911,9101 4007,9045 4007,9197 Z M 4585,9184 L 4020,9184 4020,9038 4585,8711 4585,9184 Z"/>
     <path fill="rgb(131,131,131)" stroke="none" d="M 4020,9184 L 4585,9184 4585,8711 4919,8517 5221,9217 4213,9801 3911,9101 4020,9038 4020,9184 Z M 4572,9171 L 4033,9171 4033,9030 4572,8718 4572,9171 Z"/>
     <path fill="rgb(132,132,132)" stroke="none" d="M 4033,9171 L 4572,9171 4572,8718 4919,8517 5221,9217 4213,9801 3911,9101 4033,9030 4033,9171 Z M 4559,9158 L 4046,9158 4046,9023 4559,8726 4559,9158 Z"/>
     <path fill="rgb(133,133,133)" stroke="none" d="M 4046,9158 L 4559,9158 4559,8726 4919,8517 5221,9217 4213,9801 3911,9101 4046,9023 4046,9158 Z M 4547,9146 L 4058,9146 4058,9016 4547,8733 4547,9146 Z"/>
     <path fill="rgb(134,134,134)" stroke="none" d="M 4058,9146 L 4547,9146 4547,8733 4919,8517 5221,9217 4213,9801 3911,9101 4058,9016 4058,9146 Z M 4534,9133 L 4071,9133 4071,9008 4534,8740 4534,9133 Z"/>
     <path fill="rgb(135,135,135)" stroke="none" d="M 4071,9133 L 4534,9133 4534,8740 4919,8517 5221,9217 4213,9801 3911,9101 4071,9008 4071,9133 Z M 4521,9120 L 4084,9120 4084,9001 4521,8748 4521,9120 Z"/>
     <path fill="rgb(136,136,136)" stroke="none" d="M 4084,9120 L 4521,9120 4521,8748 4919,8517 5221,9217 4213,9801 3911,9101 4084,9001 4084,9120 Z M 4508,9107 L 4097,9107 4097,8993 4508,8755 4508,9107 Z"/>
     <path fill="rgb(137,137,137)" stroke="none" d="M 4097,9107 L 4508,9107 4508,8755 4919,8517 5221,9217 4213,9801 3911,9101 4097,8993 4097,9107 Z M 4495,9094 L 4110,9094 4110,8986 4495,8763 4495,9094 Z"/>
     <path fill="rgb(138,138,138)" stroke="none" d="M 4110,9094 L 4495,9094 4495,8763 4919,8517 5221,9217 4213,9801 3911,9101 4110,8986 4110,9094 Z M 4482,9081 L 4123,9081 4123,8978 4482,8770 4482,9081 Z"/>
     <path fill="rgb(139,139,139)" stroke="none" d="M 4123,9081 L 4482,9081 4482,8770 4919,8517 5221,9217 4213,9801 3911,9101 4123,8978 4123,9081 Z M 4469,9068 L 4136,9068 4136,8971 4469,8778 4469,9068 Z"/>
     <path fill="rgb(140,140,140)" stroke="none" d="M 4136,9068 L 4469,9068 4469,8778 4919,8517 5221,9217 4213,9801 3911,9101 4136,8971 4136,9068 Z M 4456,9055 L 4149,9055 4149,8963 4456,8785 4456,9055 Z"/>
     <path fill="rgb(141,141,141)" stroke="none" d="M 4149,9055 L 4456,9055 4456,8785 4919,8517 5221,9217 4213,9801 3911,9101 4149,8963 4149,9055 Z M 4444,9043 L 4161,9043 4161,8956 4444,8792 4444,9043 Z"/>
     <path fill="rgb(142,142,142)" stroke="none" d="M 4161,9043 L 4444,9043 4444,8792 4919,8517 5221,9217 4213,9801 3911,9101 4161,8956 4161,9043 Z M 4431,9030 L 4174,9030 4174,8949 4431,8800 4431,9030 Z"/>
     <path fill="rgb(143,143,143)" stroke="none" d="M 4174,9030 L 4431,9030 4431,8800 4919,8517 5221,9217 4213,9801 3911,9101 4174,8949 4174,9030 Z M 4418,9017 L 4187,9017 4187,8941 4418,8807 4418,9017 Z"/>
     <path fill="rgb(144,144,144)" stroke="none" d="M 4187,9017 L 4418,9017 4418,8807 4919,8517 5221,9217 4213,9801 3911,9101 4187,8941 4187,9017 Z M 4405,9004 L 4200,9004 4200,8934 4405,8815 4405,9004 Z"/>
     <path fill="rgb(145,145,145)" stroke="none" d="M 4200,9004 L 4405,9004 4405,8815 4919,8517 5221,9217 4213,9801 3911,9101 4200,8934 4200,9004 Z M 4392,8991 L 4213,8991 4213,8926 4392,8822 4392,8991 Z"/>
     <path fill="rgb(146,146,146)" stroke="none" d="M 4213,8991 L 4392,8991 4392,8822 4919,8517 5221,9217 4213,9801 3911,9101 4213,8926 4213,8991 Z M 4379,8978 L 4226,8978 4226,8919 4379,8830 4379,8978 Z"/>
     <path fill="rgb(147,147,147)" stroke="none" d="M 4226,8978 L 4379,8978 4379,8830 4919,8517 5221,9217 4213,9801 3911,9101 4226,8919 4226,8978 Z M 4366,8838 L 4366,8965 4239,8965 4239,8911 4365,8838 4366,8838 Z"/>
     <path fill="rgb(148,148,148)" stroke="none" d="M 4239,8965 L 4366,8965 4366,8838 4365,8838 4919,8517 5221,9217 4213,9801 3911,9101 4239,8911 4239,8965 Z M 4353,8851 L 4353,8952 4252,8952 4252,8903 4343,8851 4353,8851 Z"/>
     <path fill="rgb(149,149,149)" stroke="none" d="M 4252,8952 L 4353,8952 4353,8851 4343,8851 4919,8517 5221,9217 4213,9801 3911,9101 4252,8903 4252,8952 Z M 4341,8863 L 4341,8940 4264,8940 4264,8896 4322,8863 4341,8863 Z"/>
     <path fill="rgb(150,150,150)" stroke="none" d="M 4264,8940 L 4341,8940 4341,8863 4322,8863 4919,8517 5221,9217 4213,9801 3911,9101 4264,8896 4264,8940 Z M 4328,8876 L 4328,8927 4277,8927 4277,8889 4299,8876 4328,8876 Z"/>
     <path fill="rgb(151,151,151)" stroke="none" d="M 4277,8927 L 4328,8927 4328,8876 4299,8876 4919,8517 5221,9217 4213,9801 3911,9101 4277,8889 4277,8927 Z M 4290,8889 L 4315,8889 4315,8914 4290,8914 4290,8889 Z"/>
     <path fill="rgb(153,153,153)" stroke="none" d="M 4290,8889 L 4290,8914 4315,8914 4315,8889 4290,8889 Z M 5221,9217 L 4213,9801 3911,9101 4919,8517 5221,9217 Z"/>
     <path fill="none" stroke="rgb(178,178,178)" id="Drawing_7_0" stroke-width="40" stroke-linejoin="round" d="M 5221,9217 L 4919,8517 3911,9101 4213,9801 5221,9217 Z"/>
    </g>
    <g>
     <path fill="none" stroke="rgb(178,178,178)" id="Drawing_8_0" stroke-width="40" stroke-linejoin="round" d="M 5119,8983 L 4111,9567"/>
    </g>
    <g>
     <path fill="none" stroke="rgb(178,178,178)" id="Drawing_9_0" stroke-width="40" stroke-linejoin="round" d="M 4011,9335 L 5019,8751"/>
    </g>
    <g>
     <path fill="none" stroke="rgb(178,178,178)" id="Drawing_10_0" stroke-width="40" stroke-linejoin="round" d="M 4717,8633 L 5019,9333"/>
    </g>
    <g>
     <path fill="none" stroke="rgb(178,178,178)" id="Drawing_11_0" stroke-width="40" stroke-linejoin="round" d="M 4515,8751 L 4817,9451"/>
    </g>
    <g>
     <path fill="none" stroke="rgb(178,178,178)" id="Drawing_12_0" stroke-width="40" stroke-linejoin="round" d="M 4313,8867 L 4615,9567"/>
    </g>
    <g>
     <path fill="none" stroke="rgb(178,178,178)" id="Drawing_13_0" stroke-width="40" stroke-linejoin="round" d="M 4112,8983 L 4414,9683"/>
    </g>
   </g>
   <g>
    <defs>
     <linearGradient id="Gradient_163" gradientUnits="userSpaceOnUse" x1="3601" y1="7905" x2="4409" y2="7907">
      <stop offset="0.1" stop-color="rgb(147,212,240)"/>
      <stop offset="1" stop-color="rgb(233,246,252)"/>
     </linearGradient>
    </defs>
    <path fill="url(#Gradient_163)" stroke="rgb(51,51,51)" id="Drawing_14_0" stroke-width="40" stroke-linejoin="round" d="M 4408,7964 L 4206,7498 3602,7848 3804,8314 4408,7964 Z"/>
   </g>
   <g>
    <path fill="rgb(255,255,255)" stroke="none" d="M 4408,8607 L 4307,8373 4206,8432 4307,8664 4408,8607 Z"/>
    <path fill="none" stroke="rgb(51,51,51)" id="Drawing_15_0" stroke-width="40" stroke-linejoin="round" d="M 4408,8607 L 4307,8373 4206,8432 4307,8664 4408,8607 Z"/>
   </g>
   <g>
    <path fill="none" stroke="rgb(178,178,178)" id="Drawing_16_0" stroke-width="40" stroke-linejoin="round" d="M 3543,7907 L 3443,7966"/>
   </g>
   <g>
    <path fill="none" stroke="rgb(178,178,178)" id="Drawing_17_0" stroke-width="40" stroke-linejoin="round" d="M 3600,8023 L 3500,8082"/>
   </g>
   <g>
    <path fill="none" stroke="rgb(178,178,178)" id="Drawing_18_0" stroke-width="40" stroke-linejoin="round" d="M 3643,8139 L 3543,8198"/>
   </g>
   <g>
    <path fill="none" stroke="rgb(178,178,178)" id="Drawing_19_0" stroke-width="40" stroke-linejoin="round" d="M 3702,8257 L 3602,8316"/>
   </g>
   <g>
    <path fill="none" stroke="rgb(178,178,178)" id="Drawing_20_0" stroke-width="40" stroke-linejoin="round" d="M 4407,7439 L 4307,7498"/>
   </g>
   <g>
    <path fill="none" stroke="rgb(178,178,178)" id="Drawing_21_0" stroke-width="40" stroke-linejoin="round" d="M 4465,7557 L 4365,7616"/>
   </g>
   <g>
    <path fill="none" stroke="rgb(178,178,178)" id="Drawing_22_0" stroke-width="40" stroke-linejoin="round" d="M 4508,7673 L 4408,7732"/>
   </g>
   <g>
    <path fill="none" stroke="rgb(178,178,178)" id="Drawing_23_0" stroke-width="40" stroke-linejoin="round" d="M 4566,7789 L 4466,7848"/>
   </g>
   <g>
    <path fill="none" stroke="rgb(178,178,178)" id="Drawing_24_0" stroke-width="40" stroke-linejoin="round" d="M 4508,8023 L 4408,8082"/>
   </g>
   <g>
    <path fill="none" stroke="rgb(178,178,178)" id="Drawing_25_0" stroke-width="40" stroke-linejoin="round" d="M 4306,8139 L 4206,8198"/>
   </g>
   <g>
    <path fill="none" stroke="rgb(178,178,178)" id="Drawing_26_0" stroke-width="40" stroke-linejoin="round" d="M 4104,8257 L 4004,8316"/>
   </g>
   <g>
    <path fill="none" stroke="rgb(178,178,178)" id="Drawing_27_0" stroke-width="40" stroke-linejoin="round" d="M 3902,8373 L 3802,8432"/>
   </g>
   <g>
    <path fill="none" stroke="rgb(0,0,0)" id="Drawing_28_0" stroke-width="40" stroke-linejoin="round" d="M 5405,9353 L 4397,7019 2382,8185 2382,8535 2482,8769 2482,9878 3087,10228 3188,10403 3390,10519 5405,9353 Z"/>
   </g>
  </g>
 </g>
</svg>