<?xml version="1.0" encoding="UTF-8"?>

<svg version="1.2" baseProfile="tiny" width="30.63mm" height="35.4mm" viewBox="6407 7641 3063 3540" preserveAspectRatio="xMidYMid" fill-rule="evenodd" stroke-width="28.222" stroke-linejoin="round" xmlns="http://www.w3.org/2000/svg" xmlns:xlink="http://www.w3.org/1999/xlink" xml:space="preserve">
 <g visibility="visible" id="Slide_1">
  <g id="DrawingGroup_1">
   <g>
    <defs>
     <linearGradient id="Gradient_1" gradientUnits="userSpaceOnUse" x1="6526" y1="10052" x2="7336" y2="10054">
      <stop offset="0.1" stop-color="rgb(102,102,102)"/>
      <stop offset="1" stop-color="rgb(153,153,153)"/>
     </linearGradient>
    </defs>
    <path fill="url(#Gradient_1)" stroke="rgb(178,178,178)" id="Drawing_1_0" stroke-width="40" stroke-linejoin="round" d="M 6528,9120 L 6528,10520 7334,10986 6528,9120 Z"/>
   </g>
   <g>
    <defs>
     <linearGradient id="Gradient_2" gradientUnits="userSpaceOnUse" x1="6425" y1="9993" x2="7437" y2="9995">
      <stop offset="0.1" stop-color="rgb(102,102,102)"/>
      <stop offset="1" stop-color="rgb(153,153,153)"/>
     </linearGradient>
    </defs>
    <path fill="url(#Gradient_2)" stroke="rgb(127,127,127)" id="Drawing_2_0" stroke-width="40" stroke-linejoin="round" d="M 6427,8827 L 6427,9177 7233,11043 7435,11161 6427,8827 Z"/>
   </g>
   <g>
    <path fill="rgb(102,102,102)" stroke="none" d="M 9049,10227 L 8705,10426 7118,10426 6427,8827 8442,7661 9049,9066 9049,10227 Z"/>
    <path fill="rgb(103,103,103)" stroke="none" d="M 8705,10426 L 7435,11161 7118,10426 8705,10426 Z M 9049,9066 L 9450,9995 9049,10227 9049,9066 Z M 9015,10247 L 8764,10392 7103,10392 6427,8827 8442,7661 9015,8988 9015,10247 Z"/>
    <path fill="rgb(104,104,104)" stroke="none" d="M 8764,10392 L 7435,11161 7103,10392 8764,10392 Z M 9015,8988 L 9450,9995 9015,10247 9015,8988 Z M 8980,10267 L 8824,10357 7088,10357 6427,8827 8442,7661 8980,8907 8980,10267 Z"/>
    <path fill="rgb(105,105,105)" stroke="none" d="M 8824,10357 L 7435,11161 7088,10357 8824,10357 Z M 8980,8907 L 9450,9995 8980,10267 8980,8907 Z M 8946,10287 L 8883,10323 7073,10323 6427,8827 8442,7661 8946,8828 8946,10287 Z"/>
    <path fill="rgb(106,106,106)" stroke="none" d="M 8883,10323 L 7435,11161 7073,10323 8883,10323 Z M 8946,8828 L 9450,9995 8946,10287 8946,8828 Z M 8912,10289 L 7058,10289 6427,8827 8442,7661 8912,8749 8912,10289 Z"/>
    <path fill="rgb(107,107,107)" stroke="none" d="M 8912,10289 L 8912,8749 9450,9995 7435,11161 7058,10289 8912,10289 Z M 8877,10254 L 7043,10254 6427,8827 8442,7661 8877,8668 8877,10254 Z"/>
    <path fill="rgb(108,108,108)" stroke="none" d="M 8877,10254 L 8877,8668 9450,9995 7435,11161 7043,10254 8877,10254 Z M 8843,10220 L 7029,10220 6427,8827 8442,7661 8843,8590 8843,10220 Z"/>
    <path fill="rgb(109,109,109)" stroke="none" d="M 8843,10220 L 8843,8590 9450,9995 7435,11161 7029,10220 8843,10220 Z M 8809,10186 L 7014,10186 6427,8827 8442,7661 8809,8511 8809,10186 Z"/>
    <path fill="rgb(110,110,110)" stroke="none" d="M 8809,10186 L 8809,8511 9450,9995 7435,11161 7014,10186 8809,10186 Z M 8774,10151 L 6999,10151 6427,8827 8442,7661 8774,8430 8774,10151 Z"/>
    <path fill="rgb(111,111,111)" stroke="none" d="M 8774,10151 L 8774,8430 9450,9995 7435,11161 6999,10151 8774,10151 Z M 8740,10117 L 6984,10117 6427,8827 8442,7661 8740,8351 8740,10117 Z"/>
    <path fill="rgb(112,112,112)" stroke="none" d="M 8740,10117 L 8740,8351 9450,9995 7435,11161 6984,10117 8740,10117 Z M 8706,10083 L 6969,10083 6427,8827 8442,7661 8706,8272 8706,10083 Z"/>
    <path fill="rgb(113,113,113)" stroke="none" d="M 8706,10083 L 8706,8272 9450,9995 7435,11161 6969,10083 8706,10083 Z M 8671,10048 L 6954,10048 6427,8827 8442,7661 8671,8191 8671,10048 Z"/>
    <path fill="rgb(114,114,114)" stroke="none" d="M 8671,10048 L 8671,8191 9450,9995 7435,11161 6954,10048 8671,10048 Z M 8637,10014 L 6940,10014 6427,8827 8442,7661 8637,8113 8637,10014 Z"/>
    <path fill="rgb(115,115,115)" stroke="none" d="M 8637,10014 L 8637,8113 9450,9995 7435,11161 6940,10014 8637,10014 Z M 8603,9980 L 6925,9980 6427,8827 8442,7661 8603,8034 8603,9980 Z"/>
    <path fill="rgb(116,116,116)" stroke="none" d="M 8603,9980 L 8603,8034 9450,9995 7435,11161 6925,9980 8603,9980 Z M 8568,9945 L 6910,9945 6427,8827 8442,7661 8568,7953 8568,9945 Z"/>
    <path fill="rgb(117,117,117)" stroke="none" d="M 8568,9945 L 8568,7953 9450,9995 7435,11161 6910,9945 8568,9945 Z M 8534,9911 L 6895,9911 6427,8827 8442,7661 8534,7874 8534,9911 Z"/>
    <path fill="rgb(118,118,118)" stroke="none" d="M 8534,9911 L 8534,7874 9450,9995 7435,11161 6895,9911 8534,9911 Z M 8500,9877 L 6880,9877 6427,8827 8442,7661 8500,7795 8500,9877 Z"/>
    <path fill="rgb(119,119,119)" stroke="none" d="M 8500,9877 L 8500,7795 9450,9995 7435,11161 6880,9877 8500,9877 Z M 8465,9842 L 6865,9842 6427,8827 8442,7661 8465,7714 8465,9842 Z"/>
    <path fill="rgb(120,120,120)" stroke="none" d="M 8465,9842 L 8465,7714 9450,9995 7435,11161 6865,9842 8465,9842 Z M 8431,9808 L 6851,9808 6427,8827 8431,7667 8431,9808 Z"/>
    <path fill="rgb(121,121,121)" stroke="none" d="M 8431,9808 L 8431,7667 8442,7661 9450,9995 7435,11161 6851,9808 8431,9808 Z M 8397,9774 L 6836,9774 6427,8827 8397,7687 8397,9774 Z"/>
    <path fill="rgb(122,122,122)" stroke="none" d="M 8397,9774 L 8397,7687 8442,7661 9450,9995 7435,11161 6836,9774 8397,9774 Z M 8362,9739 L 6821,9739 6427,8827 8362,7707 8362,9739 Z"/>
    <path fill="rgb(123,123,123)" stroke="none" d="M 8362,9739 L 8362,7707 8442,7661 9450,9995 7435,11161 6821,9739 8362,9739 Z M 8328,9705 L 6806,9705 6427,8827 8328,7727 8328,9705 Z"/>
    <path fill="rgb(124,124,124)" stroke="none" d="M 8328,9705 L 8328,7727 8442,7661 9450,9995 7435,11161 6806,9705 8328,9705 Z M 8294,7748 L 8294,9671 6792,9671 6427,8827 8292,7748 8294,7748 Z"/>
    <path fill="rgb(125,125,125)" stroke="none" d="M 8294,9671 L 8294,7748 8292,7748 8442,7661 9450,9995 7435,11161 6792,9671 8294,9671 Z M 8259,7783 L 8259,9636 6776,9636 6427,8827 8231,7783 8259,7783 Z"/>
    <path fill="rgb(126,126,126)" stroke="none" d="M 8259,9636 L 8259,7783 8231,7783 8442,7661 9450,9995 7435,11161 6776,9636 8259,9636 Z M 8225,7817 L 8225,9602 6762,9602 6440,8857 6440,8819 8172,7817 8225,7817 Z"/>
    <path fill="rgb(127,127,127)" stroke="none" d="M 6440,8857 L 6427,8827 6440,8819 6440,8857 Z M 8225,9602 L 8225,7817 8172,7817 8442,7661 9450,9995 7435,11161 6762,9602 8225,9602 Z M 8191,7851 L 8191,9568 6747,9568 6474,8936 6474,8800 8114,7851 8191,7851 Z"/>
    <path fill="rgb(128,128,128)" stroke="none" d="M 6474,8936 L 6427,8827 6474,8800 6474,8936 Z M 8191,9568 L 8191,7851 8114,7851 8442,7661 9450,9995 7435,11161 6747,9568 8191,9568 Z M 8156,7886 L 8156,9533 6732,9533 6509,9017 6509,8780 8053,7886 8156,7886 Z"/>
    <path fill="rgb(129,129,129)" stroke="none" d="M 6509,9017 L 6427,8827 6509,8780 6509,9017 Z M 8156,9533 L 8156,7886 8053,7886 8442,7661 9450,9995 7435,11161 6732,9533 8156,9533 Z M 8122,7920 L 8122,9499 6717,9499 6543,9096 6543,8760 7994,7920 8122,7920 Z"/>
    <path fill="rgb(130,130,130)" stroke="none" d="M 6543,9096 L 6427,8827 6543,8760 6543,9096 Z M 8122,9499 L 8122,7920 7994,7920 8442,7661 9450,9995 7435,11161 6717,9499 8122,9499 Z M 8088,7954 L 8088,9465 6703,9465 6577,9174 6577,8740 7936,7954 8088,7954 Z"/>
    <path fill="rgb(131,131,131)" stroke="none" d="M 6577,9174 L 6427,8827 6577,8740 6577,9174 Z M 8088,9465 L 8088,7954 7936,7954 8442,7661 9450,9995 7435,11161 6703,9465 8088,9465 Z M 8053,7989 L 8053,9430 6687,9430 6612,9255 6612,8720 7875,7989 8053,7989 Z"/>
    <path fill="rgb(132,132,132)" stroke="none" d="M 6612,9255 L 6427,8827 6612,8720 6612,9255 Z M 8053,9430 L 8053,7989 7875,7989 8442,7661 9450,9995 7435,11161 6687,9430 8053,9430 Z M 8019,8023 L 8019,9396 6673,9396 6646,9334 6646,8700 7816,8023 8019,8023 Z"/>
    <path fill="rgb(133,133,133)" stroke="none" d="M 6646,9334 L 6427,8827 6646,8700 6646,9334 Z M 8019,9396 L 8019,8023 7816,8023 8442,7661 9450,9995 7435,11161 6673,9396 8019,9396 Z M 7985,8057 L 7985,9362 6680,9362 6680,8681 7758,8057 7985,8057 Z"/>
    <path fill="rgb(134,134,134)" stroke="none" d="M 6680,9362 L 7985,9362 7985,8057 7758,8057 8442,7661 9450,9995 7435,11161 6427,8827 6680,8681 6680,9362 Z M 7950,8092 L 7950,9327 6715,9327 6715,8660 7697,8092 7950,8092 Z"/>
    <path fill="rgb(135,135,135)" stroke="none" d="M 6715,9327 L 7950,9327 7950,8092 7697,8092 8442,7661 9450,9995 7435,11161 6427,8827 6715,8660 6715,9327 Z M 7916,8126 L 7916,9293 6749,9293 6749,8641 7638,8126 7916,8126 Z"/>
    <path fill="rgb(136,136,136)" stroke="none" d="M 6749,9293 L 7916,9293 7916,8126 7638,8126 8442,7661 9450,9995 7435,11161 6427,8827 6749,8641 6749,9293 Z M 7881,8161 L 7881,9258 6784,9258 6784,8620 7578,8161 7881,8161 Z"/>
    <path fill="rgb(137,137,137)" stroke="none" d="M 6784,9258 L 7881,9258 7881,8161 7578,8161 8442,7661 9450,9995 7435,11161 6427,8827 6784,8620 6784,9258 Z M 7847,8195 L 7847,9224 6818,9224 6818,8601 7519,8195 7847,8195 Z"/>
    <path fill="rgb(138,138,138)" stroke="none" d="M 6818,9224 L 7847,9224 7847,8195 7519,8195 8442,7661 9450,9995 7435,11161 6427,8827 6818,8601 6818,9224 Z M 7813,8229 L 7813,9190 6852,9190 6852,8581 7460,8229 7813,8229 Z"/>
    <path fill="rgb(139,139,139)" stroke="none" d="M 6852,9190 L 7813,9190 7813,8229 7460,8229 8442,7661 9450,9995 7435,11161 6427,8827 6852,8581 6852,9190 Z M 7778,8264 L 7778,9155 6887,9155 6887,8561 7400,8264 7778,8264 Z"/>
    <path fill="rgb(140,140,140)" stroke="none" d="M 6887,9155 L 7778,9155 7778,8264 7400,8264 8442,7661 9450,9995 7435,11161 6427,8827 6887,8561 6887,9155 Z M 7744,8298 L 7744,9121 6921,9121 6921,8541 7341,8298 7744,8298 Z"/>
    <path fill="rgb(141,141,141)" stroke="none" d="M 6921,9121 L 7744,9121 7744,8298 7341,8298 8442,7661 9450,9995 7435,11161 6427,8827 6921,8541 6921,9121 Z M 7710,8332 L 7710,9087 6955,9087 6955,8521 7282,8332 7710,8332 Z"/>
    <path fill="rgb(142,142,142)" stroke="none" d="M 6955,9087 L 7710,9087 7710,8332 7282,8332 8442,7661 9450,9995 7435,11161 6427,8827 6955,8521 6955,9087 Z M 7675,8367 L 7675,9052 6990,9052 6990,8501 7222,8367 7675,8367 Z"/>
    <path fill="rgb(143,143,143)" stroke="none" d="M 6990,9052 L 7675,9052 7675,8367 7222,8367 8442,7661 9450,9995 7435,11161 6427,8827 6990,8501 6990,9052 Z M 7641,8401 L 7641,9018 7024,9018 7024,8482 7163,8401 7641,8401 Z"/>
    <path fill="rgb(144,144,144)" stroke="none" d="M 7024,9018 L 7641,9018 7641,8401 7163,8401 8442,7661 9450,9995 7435,11161 6427,8827 7024,8482 7024,9018 Z M 7607,8435 L 7607,8984 7058,8984 7058,8462 7104,8435 7607,8435 Z"/>
    <path fill="rgb(145,145,145)" stroke="none" d="M 7058,8984 L 7607,8984 7607,8435 7104,8435 8442,7661 9450,9995 7435,11161 6427,8827 7058,8462 7058,8984 Z M 7093,8470 L 7572,8470 7572,8949 7093,8949 7093,8470 Z"/>
    <path fill="rgb(146,146,146)" stroke="none" d="M 7093,8470 L 7093,8949 7572,8949 7572,8470 7093,8470 Z M 7127,8504 L 7538,8504 7538,8915 7127,8915 7127,8504 Z M 9450,9995 L 7435,11161 6427,8827 8442,7661 9450,9995 Z"/>
    <path fill="rgb(147,147,147)" stroke="none" d="M 7127,8504 L 7127,8915 7538,8915 7538,8504 7127,8504 Z M 7161,8538 L 7504,8538 7504,8881 7161,8881 7161,8538 Z M 9450,9995 L 7435,11161 6427,8827 8442,7661 9450,9995 Z"/>
    <path fill="rgb(148,148,148)" stroke="none" d="M 7161,8538 L 7161,8881 7504,8881 7504,8538 7161,8538 Z M 7196,8573 L 7469,8573 7469,8846 7196,8846 7196,8573 Z M 9450,9995 L 7435,11161 6427,8827 8442,7661 9450,9995 Z"/>
    <path fill="rgb(149,149,149)" stroke="none" d="M 7196,8573 L 7196,8846 7469,8846 7469,8573 7196,8573 Z M 7230,8607 L 7435,8607 7435,8812 7230,8812 7230,8607 Z M 9450,9995 L 7435,11161 6427,8827 8442,7661 9450,9995 Z"/>
    <path fill="rgb(150,150,150)" stroke="none" d="M 7230,8607 L 7230,8812 7435,8812 7435,8607 7230,8607 Z M 7264,8641 L 7401,8641 7401,8778 7264,8778 7264,8641 Z M 9450,9995 L 7435,11161 6427,8827 8442,7661 9450,9995 Z"/>
    <path fill="rgb(151,151,151)" stroke="none" d="M 7264,8641 L 7264,8778 7401,8778 7401,8641 7264,8641 Z M 7299,8676 L 7366,8676 7366,8743 7299,8743 7299,8676 Z M 9450,9995 L 7435,11161 6427,8827 8442,7661 9450,9995 Z"/>
    <path fill="rgb(153,153,153)" stroke="none" d="M 7299,8676 L 7299,8743 7366,8743 7366,8676 7299,8676 Z M 9450,9995 L 7435,11161 6427,8827 8442,7661 9450,9995 Z"/>
    <path fill="none" stroke="rgb(178,178,178)" id="Drawing_3_0" stroke-width="40" stroke-linejoin="round" d="M 9450,9995 L 8442,7661 6427,8827 7435,11161 9450,9995 Z"/>
   </g>
   <g>
    <path fill="rgb(102,102,102)" stroke="none" d="M 7322,10416 L 7323,10415 7329,10405 7338,10381 7343,10354 7345,10322 7344,10286 7333,10206 7312,10115 7281,10017 7198,9811 7096,9609 7041,9518 6987,9437 6933,9369 6883,9316 6859,9297 6836,9283 6815,9274 6805,9272 6795,9271 6593,8862 6895,8680 6990,8624 7039,8598 7097,8571 7126,8591 7157,8620 7223,8697 7293,8799 7367,8923 7517,9217 7664,9548 7797,9884 7905,10195 7968,10416 7322,10416 Z"/>
    <path fill="rgb(103,103,103)" stroke="none" d="M 7968,10416 L 7977,10448 7997,10543 8002,10581 8004,10612 7500,10905 7299,10437 7308,10431 7316,10423 7322,10416 7968,10416 Z M 7334,10393 L 7338,10381 7343,10354 7345,10322 7344,10286 7333,10206 7312,10115 7281,10017 7198,9811 7096,9609 7041,9518 6987,9437 6933,9369 6883,9316 6859,9297 6836,9283 6815,9274 6805,9272 6795,9271 6593,8862 6895,8680 6990,8624 7039,8598 7097,8571 7126,8591 7157,8620 7223,8697 7293,8799 7367,8923 7517,9217 7664,9548 7797,9884 7905,10195 7961,10393 7334,10393 Z"/>
    <path fill="rgb(104,104,104)" stroke="none" d="M 7961,10393 L 7977,10448 7997,10543 8002,10581 8004,10612 7500,10905 7299,10437 7308,10431 7316,10423 7323,10415 7329,10405 7334,10393 7961,10393 Z M 7340,10370 L 7343,10354 7345,10322 7344,10286 7333,10206 7312,10115 7281,10017 7198,9811 7096,9609 7041,9518 6987,9437 6933,9369 6883,9316 6859,9297 6836,9283 6815,9274 6805,9272 6795,9271 6593,8862 6895,8680 6990,8624 7039,8598 7097,8571 7126,8591 7157,8620 7223,8697 7293,8799 7367,8923 7517,9217 7664,9548 7797,9884 7905,10195 7955,10370 7340,10370 Z"/>
    <path fill="rgb(105,105,105)" stroke="none" d="M 7955,10370 L 7977,10448 7997,10543 8002,10581 8004,10612 7500,10905 7299,10437 7308,10431 7316,10423 7323,10415 7329,10405 7338,10381 7340,10370 7955,10370 Z M 7343,10347 L 7345,10322 7344,10286 7333,10206 7312,10115 7281,10017 7198,9811 7096,9609 7041,9518 6987,9437 6933,9369 6883,9316 6859,9297 6836,9283 6815,9274 6805,9272 6795,9271 6593,8862 6895,8680 6990,8624 7039,8598 7097,8571 7126,8591 7157,8620 7223,8697 7293,8799 7367,8923 7517,9217 7664,9548 7797,9884 7905,10195 7948,10347 7343,10347 Z"/>
    <path fill="rgb(106,106,106)" stroke="none" d="M 7948,10347 L 7977,10448 7997,10543 8002,10581 8004,10612 7500,10905 7299,10437 7308,10431 7316,10423 7323,10415 7329,10405 7338,10381 7343,10354 7343,10347 7948,10347 Z M 7345,10324 L 7345,10322 7344,10286 7333,10206 7312,10115 7281,10017 7198,9811 7096,9609 7041,9518 6987,9437 6933,9369 6883,9316 6859,9297 6836,9283 6815,9274 6805,9272 6795,9271 6593,8862 6895,8680 6990,8624 7039,8598 7097,8571 7126,8591 7157,8620 7223,8697 7293,8799 7367,8923 7517,9217 7664,9548 7797,9884 7905,10195 7942,10324 7345,10324 Z"/>
    <path fill="rgb(107,107,107)" stroke="none" d="M 7942,10324 L 7977,10448 7997,10543 8002,10581 8004,10612 7500,10905 7299,10437 7308,10431 7316,10423 7323,10415 7329,10405 7338,10381 7343,10354 7345,10324 7942,10324 Z M 7344,10301 L 7344,10286 7333,10206 7312,10115 7281,10017 7198,9811 7096,9609 7041,9518 6987,9437 6933,9369 6883,9316 6859,9297 6836,9283 6815,9274 6805,9272 6795,9271 6593,8862 6895,8680 6990,8624 7039,8598 7097,8571 7126,8591 7157,8620 7223,8697 7293,8799 7367,8923 7517,9217 7664,9548 7797,9884 7905,10195 7935,10301 7344,10301 Z"/>
    <path fill="rgb(108,108,108)" stroke="none" d="M 7935,10301 L 7977,10448 7997,10543 8002,10581 8004,10612 7500,10905 7299,10437 7308,10431 7316,10423 7323,10415 7329,10405 7338,10381 7343,10354 7345,10322 7344,10301 7935,10301 Z M 7343,10278 L 7333,10206 7312,10115 7281,10017 7198,9811 7096,9609 7041,9518 6987,9437 6933,9369 6883,9316 6859,9297 6836,9283 6815,9274 6805,9272 6795,9271 6593,8862 6895,8680 6990,8624 7039,8598 7097,8571 7126,8591 7157,8620 7223,8697 7293,8799 7367,8923 7517,9217 7664,9548 7797,9884 7905,10195 7929,10278 7343,10278 Z"/>
    <path fill="rgb(109,109,109)" stroke="none" d="M 7929,10278 L 7977,10448 7997,10543 8002,10581 8004,10612 7500,10905 7299,10437 7308,10431 7316,10423 7323,10415 7329,10405 7338,10381 7343,10354 7345,10322 7344,10286 7343,10278 7929,10278 Z M 7340,10255 L 7333,10206 7312,10115 7281,10017 7198,9811 7096,9609 7041,9518 6987,9437 6933,9369 6883,9316 6859,9297 6836,9283 6815,9274 6805,9272 6795,9271 6593,8862 6895,8680 6990,8624 7039,8598 7097,8571 7126,8591 7157,8620 7223,8697 7293,8799 7367,8923 7517,9217 7664,9548 7797,9884 7905,10195 7922,10255 7340,10255 Z"/>
    <path fill="rgb(110,110,110)" stroke="none" d="M 7922,10255 L 7977,10448 7997,10543 8002,10581 8004,10612 7500,10905 7299,10437 7308,10431 7316,10423 7323,10415 7329,10405 7338,10381 7343,10354 7345,10322 7344,10286 7340,10255 7922,10255 Z M 7337,10232 L 7333,10206 7312,10115 7281,10017 7198,9811 7096,9609 7041,9518 6987,9437 6933,9369 6883,9316 6859,9297 6836,9283 6815,9274 6805,9272 6795,9271 6593,8862 6895,8680 6990,8624 7039,8598 7097,8571 7126,8591 7157,8620 7223,8697 7293,8799 7367,8923 7517,9217 7664,9548 7797,9884 7905,10195 7916,10232 7337,10232 Z"/>
    <path fill="rgb(111,111,111)" stroke="none" d="M 7916,10232 L 7977,10448 7997,10543 8002,10581 8004,10612 7500,10905 7299,10437 7308,10431 7316,10423 7323,10415 7329,10405 7338,10381 7343,10354 7345,10322 7344,10286 7337,10232 7916,10232 Z M 7333,10209 L 7333,10206 7312,10115 7281,10017 7198,9811 7096,9609 7041,9518 6987,9437 6933,9369 6883,9316 6859,9297 6836,9283 6815,9274 6805,9272 6795,9271 6593,8862 6895,8680 6990,8624 7039,8598 7097,8571 7126,8591 7157,8620 7223,8697 7293,8799 7367,8923 7517,9217 7664,9548 7797,9884 7905,10195 7909,10209 7333,10209 Z"/>
    <path fill="rgb(112,112,112)" stroke="none" d="M 7909,10209 L 7977,10448 7997,10543 8002,10581 8004,10612 7500,10905 7299,10437 7308,10431 7316,10423 7323,10415 7329,10405 7338,10381 7343,10354 7345,10322 7344,10286 7333,10209 7909,10209 Z M 7328,10186 L 7312,10115 7281,10017 7198,9811 7096,9609 7041,9518 6987,9437 6933,9369 6883,9316 6859,9297 6836,9283 6815,9274 6805,9272 6795,9271 6593,8862 6895,8680 6990,8624 7039,8598 7097,8571 7126,8591 7157,8620 7223,8697 7293,8799 7367,8923 7517,9217 7664,9548 7797,9884 7902,10186 7328,10186 Z"/>
    <path fill="rgb(113,113,113)" stroke="none" d="M 7902,10186 L 7905,10195 7977,10448 7997,10543 8002,10581 8004,10612 7500,10905 7299,10437 7308,10431 7316,10423 7323,10415 7329,10405 7338,10381 7343,10354 7345,10322 7344,10286 7333,10206 7328,10186 7902,10186 Z M 7323,10164 L 7312,10115 7281,10017 7198,9811 7096,9609 7041,9518 6987,9437 6933,9369 6883,9316 6859,9297 6836,9283 6815,9274 6805,9272 6795,9271 6593,8862 6895,8680 6990,8624 7039,8598 7097,8571 7126,8591 7157,8620 7223,8697 7293,8799 7367,8923 7517,9217 7664,9548 7797,9884 7894,10164 7323,10164 Z"/>
    <path fill="rgb(114,114,114)" stroke="none" d="M 7894,10164 L 7905,10195 7977,10448 7997,10543 8002,10581 8004,10612 7500,10905 7299,10437 7308,10431 7316,10423 7323,10415 7329,10405 7338,10381 7343,10354 7345,10322 7344,10286 7333,10206 7323,10164 7894,10164 Z M 7886,10141 L 7318,10141 7312,10115 7281,10017 7198,9811 7096,9609 7041,9518 6987,9437 6933,9369 6883,9316 6859,9297 6836,9283 6815,9274 6805,9272 6795,9271 6593,8862 6895,8680 6990,8624 7039,8598 7097,8571 7126,8591 7157,8620 7223,8697 7293,8799 7367,8923 7517,9217 7664,9548 7797,9884 7886,10140 7886,10141 Z"/>
    <path fill="rgb(115,115,115)" stroke="none" d="M 7886,10141 L 7886,10140 7905,10195 7977,10448 7997,10543 8002,10581 8004,10612 7500,10905 7299,10437 7308,10431 7316,10423 7323,10415 7329,10405 7338,10381 7343,10354 7345,10322 7344,10286 7333,10206 7318,10141 7886,10141 Z M 7863,10118 L 7313,10118 7312,10115 7281,10017 7198,9811 7096,9609 7041,9518 6987,9437 6933,9369 6883,9316 6859,9297 6836,9283 6815,9274 6805,9272 6795,9271 6593,8862 6895,8680 6990,8624 7039,8598 7097,8571 7126,8591 7157,8620 7223,8697 7293,8799 7367,8923 7517,9217 7664,9548 7797,9884 7863,10074 7863,10118 Z"/>
    <path fill="rgb(116,116,116)" stroke="none" d="M 7863,10118 L 7863,10074 7905,10195 7977,10448 7997,10543 8002,10581 8004,10612 7500,10905 7299,10437 7308,10431 7316,10423 7323,10415 7329,10405 7338,10381 7343,10354 7345,10322 7344,10286 7333,10206 7313,10118 7863,10118 Z M 7840,10095 L 7306,10095 7281,10017 7198,9811 7096,9609 7041,9518 6987,9437 6933,9369 6883,9316 6859,9297 6836,9283 6815,9274 6805,9272 6795,9271 6593,8862 6895,8680 6990,8624 7039,8598 7097,8571 7126,8591 7157,8620 7223,8697 7293,8799 7367,8923 7517,9217 7664,9548 7797,9884 7840,10008 7840,10095 Z"/>
    <path fill="rgb(117,117,117)" stroke="none" d="M 7840,10095 L 7840,10008 7905,10195 7977,10448 7997,10543 8002,10581 8004,10612 7500,10905 7299,10437 7308,10431 7316,10423 7323,10415 7329,10405 7338,10381 7343,10354 7345,10322 7344,10286 7333,10206 7312,10115 7306,10095 7840,10095 Z M 7817,10072 L 7298,10072 7281,10017 7198,9811 7096,9609 7041,9518 6987,9437 6933,9369 6883,9316 6859,9297 6836,9283 6815,9274 6805,9272 6795,9271 6593,8862 6895,8680 6990,8624 7039,8598 7097,8571 7126,8591 7157,8620 7223,8697 7293,8799 7367,8923 7517,9217 7664,9548 7797,9884 7817,9942 7817,10072 Z"/>
    <path fill="rgb(118,118,118)" stroke="none" d="M 7817,10072 L 7817,9942 7905,10195 7977,10448 7997,10543 8002,10581 8004,10612 7500,10905 7299,10437 7308,10431 7316,10423 7323,10415 7329,10405 7338,10381 7343,10354 7345,10322 7344,10286 7333,10206 7312,10115 7298,10072 7817,10072 Z M 7794,10049 L 7291,10049 7281,10017 7198,9811 7096,9609 7041,9518 6987,9437 6933,9369 6883,9316 6859,9297 6836,9283 6815,9274 6805,9272 6795,9271 6593,8862 6895,8680 6990,8624 7039,8598 7097,8571 7126,8591 7157,8620 7223,8697 7293,8799 7367,8923 7517,9217 7664,9548 7794,9876 7794,10049 Z"/>
    <path fill="rgb(119,119,119)" stroke="none" d="M 7794,10049 L 7794,9876 7797,9884 7905,10195 7977,10448 7997,10543 8002,10581 8004,10612 7500,10905 7299,10437 7308,10431 7316,10423 7323,10415 7329,10405 7338,10381 7343,10354 7345,10322 7344,10286 7333,10206 7312,10115 7291,10049 7794,10049 Z M 7771,10026 L 7284,10026 7281,10017 7198,9811 7096,9609 7041,9518 6987,9437 6933,9369 6883,9316 6859,9297 6836,9283 6815,9274 6805,9272 6795,9271 6593,8862 6895,8680 6990,8624 7039,8598 7097,8571 7126,8591 7157,8620 7223,8697 7293,8799 7367,8923 7517,9217 7664,9548 7771,9818 7771,10026 Z"/>
    <path fill="rgb(120,120,120)" stroke="none" d="M 7771,10026 L 7771,9818 7797,9884 7905,10195 7977,10448 7997,10543 8002,10581 8004,10612 7500,10905 7299,10437 7308,10431 7316,10423 7323,10415 7329,10405 7338,10381 7343,10354 7345,10322 7344,10286 7333,10206 7312,10115 7284,10026 7771,10026 Z M 7748,10003 L 7275,10003 7198,9811 7096,9609 7041,9518 6987,9437 6933,9369 6883,9316 6859,9297 6836,9283 6815,9274 6805,9272 6795,9271 6593,8862 6895,8680 6990,8624 7039,8598 7097,8571 7126,8591 7157,8620 7223,8697 7293,8799 7367,8923 7517,9217 7664,9548 7748,9760 7748,10003 Z"/>
    <path fill="rgb(121,121,121)" stroke="none" d="M 7748,10003 L 7748,9760 7797,9884 7905,10195 7977,10448 7997,10543 8002,10581 8004,10612 7500,10905 7299,10437 7308,10431 7316,10423 7323,10415 7329,10405 7338,10381 7343,10354 7345,10322 7344,10286 7333,10206 7312,10115 7281,10017 7275,10003 7748,10003 Z M 7725,9980 L 7266,9980 7198,9811 7096,9609 7041,9518 6987,9437 6933,9369 6883,9316 6859,9297 6836,9283 6815,9274 6805,9272 6795,9271 6593,8862 6895,8680 6990,8624 7039,8598 7097,8571 7126,8591 7157,8620 7223,8697 7293,8799 7367,8923 7517,9217 7664,9548 7725,9702 7725,9980 Z"/>
    <path fill="rgb(122,122,122)" stroke="none" d="M 7725,9980 L 7725,9702 7797,9884 7905,10195 7977,10448 7997,10543 8002,10581 8004,10612 7500,10905 7299,10437 7308,10431 7316,10423 7323,10415 7329,10405 7338,10381 7343,10354 7345,10322 7344,10286 7333,10206 7312,10115 7281,10017 7266,9980 7725,9980 Z M 7116,8584 L 7126,8591 7157,8620 7223,8697 7293,8799 7367,8923 7517,9217 7664,9548 7702,9644 7702,9957 7257,9957 7198,9811 7096,9609 7041,9518 6987,9437 6933,9369 6883,9316 6859,9297 6836,9283 6815,9274 6805,9272 6795,9271 6593,8862 6895,8680 6990,8624 7039,8598 7069,8584 7116,8584 Z"/>
    <path fill="rgb(123,123,123)" stroke="none" d="M 7702,9957 L 7702,9644 7797,9884 7905,10195 7977,10448 7997,10543 8002,10581 8004,10612 7500,10905 7299,10437 7308,10431 7316,10423 7323,10415 7329,10405 7338,10381 7343,10354 7345,10322 7344,10286 7333,10206 7312,10115 7281,10017 7257,9957 7702,9957 Z M 7069,8584 L 7097,8571 7116,8584 7069,8584 Z M 7143,8607 L 7157,8620 7223,8697 7293,8799 7367,8923 7517,9217 7664,9548 7679,9586 7679,9934 7248,9934 7198,9811 7096,9609 7041,9518 6987,9437 6933,9369 6883,9316 6859,9297 6836,9283 6815,9274 6805,9272 6795,9271 6593,8862 6895,8680 6990,8624 7022,8607 7143,8607 Z"/>
    <path fill="rgb(124,124,124)" stroke="none" d="M 7679,9934 L 7679,9586 7797,9884 7905,10195 7977,10448 7997,10543 8002,10581 8004,10612 7500,10905 7299,10437 7308,10431 7316,10423 7323,10415 7329,10405 7338,10381 7343,10354 7345,10322 7344,10286 7333,10206 7312,10115 7281,10017 7248,9934 7679,9934 Z M 7022,8607 L 7039,8598 7097,8571 7126,8591 7143,8607 7022,8607 Z M 7165,8629 L 7223,8697 7293,8799 7367,8923 7517,9217 7657,9532 7657,9912 7239,9912 7198,9811 7096,9609 7041,9518 6987,9437 6933,9369 6883,9316 6859,9297 6836,9283 6815,9274 6805,9272 6795,9271 6593,8862 6895,8680 6982,8629 7165,8629 Z"/>
    <path fill="rgb(125,125,125)" stroke="none" d="M 7657,9912 L 7657,9532 7664,9548 7797,9884 7905,10195 7977,10448 7997,10543 8002,10581 8004,10612 7500,10905 7299,10437 7308,10431 7316,10423 7323,10415 7329,10405 7338,10381 7343,10354 7345,10322 7344,10286 7333,10206 7312,10115 7281,10017 7239,9912 7657,9912 Z M 6982,8629 L 6990,8624 7039,8598 7097,8571 7126,8591 7157,8620 7165,8629 6982,8629 Z M 7184,8652 L 7223,8697 7293,8799 7367,8923 7517,9217 7634,9480 7634,9889 7229,9889 7198,9811 7096,9609 7041,9518 6987,9437 6933,9369 6883,9316 6859,9297 6836,9283 6815,9274 6805,9272 6795,9271 6593,8862 6895,8680 6943,8652 7184,8652 Z"/>
    <path fill="rgb(126,126,126)" stroke="none" d="M 7634,9889 L 7634,9480 7664,9548 7797,9884 7905,10195 7977,10448 7997,10543 8002,10581 8004,10612 7500,10905 7299,10437 7308,10431 7316,10423 7323,10415 7329,10405 7338,10381 7343,10354 7345,10322 7344,10286 7333,10206 7312,10115 7281,10017 7229,9889 7634,9889 Z M 6943,8652 L 6990,8624 7039,8598 7097,8571 7126,8591 7157,8620 7184,8652 6943,8652 Z M 7204,8675 L 7223,8697 7293,8799 7367,8923 7517,9217 7611,9429 7611,9866 7220,9866 7198,9811 7096,9609 7041,9518 6987,9437 6933,9369 6883,9316 6859,9297 6836,9283 6815,9274 6805,9272 6795,9271 6593,8862 6895,8680 6903,8675 7204,8675 Z"/>
    <path fill="rgb(127,127,127)" stroke="none" d="M 7611,9866 L 7611,9429 7664,9548 7797,9884 7905,10195 7977,10448 7997,10543 8002,10581 8004,10612 7500,10905 7299,10437 7308,10431 7316,10423 7323,10415 7329,10405 7338,10381 7343,10354 7345,10322 7344,10286 7333,10206 7312,10115 7281,10017 7220,9866 7611,9866 Z M 6903,8675 L 6990,8624 7039,8598 7097,8571 7126,8591 7157,8620 7204,8675 6903,8675 Z M 7224,8698 L 7293,8799 7367,8923 7517,9217 7588,9377 7588,9843 7211,9843 7198,9811 7096,9609 7041,9518 6987,9437 6933,9369 6883,9316 6859,9297 6836,9283 6815,9274 6805,9272 6795,9271 6593,8862 6865,8698 7224,8698 Z"/>
    <path fill="rgb(128,128,128)" stroke="none" d="M 7588,9843 L 7588,9377 7664,9548 7797,9884 7905,10195 7977,10448 7997,10543 8002,10581 8004,10612 7500,10905 7299,10437 7308,10431 7316,10423 7323,10415 7329,10405 7338,10381 7343,10354 7345,10322 7344,10286 7333,10206 7312,10115 7281,10017 7211,9843 7588,9843 Z M 6865,8698 L 6895,8680 6990,8624 7039,8598 7097,8571 7126,8591 7157,8620 7223,8697 7224,8698 6865,8698 Z M 7239,8721 L 7293,8799 7367,8923 7517,9217 7565,9325 7565,9820 7202,9820 7198,9811 7096,9609 7041,9518 6987,9437 6933,9369 6883,9316 6859,9297 6836,9283 6815,9274 6805,9272 6795,9271 6593,8862 6827,8721 7239,8721 Z"/>
    <path fill="rgb(129,129,129)" stroke="none" d="M 7565,9820 L 7565,9325 7664,9548 7797,9884 7905,10195 7977,10448 7997,10543 8002,10581 8004,10612 7500,10905 7299,10437 7308,10431 7316,10423 7323,10415 7329,10405 7338,10381 7343,10354 7345,10322 7344,10286 7333,10206 7312,10115 7281,10017 7202,9820 7565,9820 Z M 6827,8721 L 6895,8680 6990,8624 7039,8598 7097,8571 7126,8591 7157,8620 7223,8697 7239,8721 6827,8721 Z M 7255,8744 L 7293,8799 7367,8923 7517,9217 7542,9273 7542,9797 7191,9797 7096,9609 7041,9518 6987,9437 6933,9369 6883,9316 6859,9297 6836,9283 6815,9274 6805,9272 6795,9271 6593,8862 6789,8744 7255,8744 Z"/>
    <path fill="rgb(130,130,130)" stroke="none" d="M 7542,9797 L 7542,9273 7664,9548 7797,9884 7905,10195 7977,10448 7997,10543 8002,10581 8004,10612 7500,10905 7299,10437 7308,10431 7316,10423 7323,10415 7329,10405 7338,10381 7343,10354 7345,10322 7344,10286 7333,10206 7312,10115 7281,10017 7198,9811 7191,9797 7542,9797 Z M 6789,8744 L 6895,8680 6990,8624 7039,8598 7097,8571 7126,8591 7157,8620 7223,8697 7255,8744 6789,8744 Z M 7271,8767 L 7293,8799 7367,8923 7517,9217 7519,9222 7519,9774 7179,9774 7096,9609 7041,9518 6987,9437 6933,9369 6883,9316 6859,9297 6836,9283 6815,9274 6805,9272 6795,9271 6593,8862 6751,8767 7271,8767 Z"/>
    <path fill="rgb(131,131,131)" stroke="none" d="M 7519,9774 L 7519,9222 7664,9548 7797,9884 7905,10195 7977,10448 7997,10543 8002,10581 8004,10612 7500,10905 7299,10437 7308,10431 7316,10423 7323,10415 7329,10405 7338,10381 7343,10354 7345,10322 7344,10286 7333,10206 7312,10115 7281,10017 7198,9811 7179,9774 7519,9774 Z M 6751,8767 L 6895,8680 6990,8624 7039,8598 7097,8571 7126,8591 7157,8620 7223,8697 7271,8767 6751,8767 Z M 7287,8790 L 7293,8799 7367,8923 7496,9176 7496,9751 7168,9751 7096,9609 7041,9518 6987,9437 6933,9369 6883,9316 6859,9297 6836,9283 6815,9274 6805,9272 6795,9271 6593,8862 6712,8790 7287,8790 Z"/>
    <path fill="rgb(132,132,132)" stroke="none" d="M 7496,9751 L 7496,9176 7517,9217 7664,9548 7797,9884 7905,10195 7977,10448 7997,10543 8002,10581 8004,10612 7500,10905 7299,10437 7308,10431 7316,10423 7323,10415 7329,10405 7338,10381 7343,10354 7345,10322 7344,10286 7333,10206 7312,10115 7281,10017 7198,9811 7168,9751 7496,9751 Z M 6712,8790 L 6895,8680 6990,8624 7039,8598 7097,8571 7126,8591 7157,8620 7223,8697 7287,8790 6712,8790 Z M 7301,8813 L 7367,8923 7473,9131 7473,9728 7156,9728 7096,9609 7041,9518 6987,9437 6933,9369 6883,9316 6859,9297 6836,9283 6815,9274 6805,9272 6795,9271 6593,8862 6674,8813 7301,8813 Z"/>
    <path fill="rgb(133,133,133)" stroke="none" d="M 7473,9728 L 7473,9131 7517,9217 7664,9548 7797,9884 7905,10195 7977,10448 7997,10543 8002,10581 8004,10612 7500,10905 7299,10437 7308,10431 7316,10423 7323,10415 7329,10405 7338,10381 7343,10354 7345,10322 7344,10286 7333,10206 7312,10115 7281,10017 7198,9811 7156,9728 7473,9728 Z M 6674,8813 L 6895,8680 6990,8624 7039,8598 7097,8571 7126,8591 7157,8620 7223,8697 7293,8799 7301,8813 6674,8813 Z M 7315,8836 L 7367,8923 7450,9086 7450,9705 7144,9705 7096,9609 7041,9518 6987,9437 6933,9369 6883,9316 6859,9297 6836,9283 6815,9274 6805,9272 6795,9271 6593,8862 6636,8836 7315,8836 Z"/>
    <path fill="rgb(134,134,134)" stroke="none" d="M 7450,9705 L 7450,9086 7517,9217 7664,9548 7797,9884 7905,10195 7977,10448 7997,10543 8002,10581 8004,10612 7500,10905 7299,10437 7308,10431 7316,10423 7323,10415 7329,10405 7338,10381 7343,10354 7345,10322 7344,10286 7333,10206 7312,10115 7281,10017 7198,9811 7144,9705 7450,9705 Z M 6636,8836 L 6895,8680 6990,8624 7039,8598 7097,8571 7126,8591 7157,8620 7223,8697 7293,8799 7315,8836 6636,8836 Z M 6604,8859 L 7329,8859 7367,8923 7427,9041 7427,9682 7133,9682 7096,9609 7041,9518 6987,9437 6933,9369 6883,9316 6859,9297 6836,9283 6815,9274 6805,9272 6795,9271 6604,8884 6604,8859 Z"/>
    <path fill="rgb(135,135,135)" stroke="none" d="M 6604,8859 L 6604,8884 6593,8862 6895,8680 6990,8624 7039,8598 7097,8571 7126,8591 7157,8620 7223,8697 7293,8799 7329,8859 6604,8859 Z M 7427,9682 L 7427,9041 7517,9217 7664,9548 7797,9884 7905,10195 7977,10448 7997,10543 8002,10581 8004,10612 7500,10905 7299,10437 7308,10431 7316,10423 7323,10415 7329,10405 7338,10381 7343,10354 7345,10322 7344,10286 7333,10206 7312,10115 7281,10017 7198,9811 7133,9682 7427,9682 Z M 6626,8882 L 7343,8882 7367,8923 7404,8996 7404,9659 7121,9659 7096,9609 7041,9518 6987,9437 6933,9369 6883,9316 6859,9297 6836,9283 6815,9274 6805,9272 6795,9271 6626,8929 6626,8882 Z"/>
    <path fill="rgb(136,136,136)" stroke="none" d="M 6626,8882 L 6626,8929 6593,8862 6895,8680 6990,8624 7039,8598 7097,8571 7126,8591 7157,8620 7223,8697 7293,8799 7343,8882 6626,8882 Z M 7404,9659 L 7404,8996 7517,9217 7664,9548 7797,9884 7905,10195 7977,10448 7997,10543 8002,10581 8004,10612 7500,10905 7299,10437 7308,10431 7316,10423 7323,10415 7329,10405 7338,10381 7343,10354 7345,10322 7344,10286 7333,10206 7312,10115 7281,10017 7198,9811 7121,9659 7404,9659 Z M 6649,8904 L 7356,8904 7367,8923 7382,8952 7382,9637 7110,9637 7096,9609 7041,9518 6987,9437 6933,9369 6883,9316 6859,9297 6836,9283 6815,9274 6805,9272 6795,9271 6649,8975 6649,8904 Z"/>
    <path fill="rgb(137,137,137)" stroke="none" d="M 6649,8904 L 6649,8975 6593,8862 6895,8680 6990,8624 7039,8598 7097,8571 7126,8591 7157,8620 7223,8697 7293,8799 7356,8904 6649,8904 Z M 7382,9637 L 7382,8952 7517,9217 7664,9548 7797,9884 7905,10195 7977,10448 7997,10543 8002,10581 8004,10612 7500,10905 7299,10437 7308,10431 7316,10423 7323,10415 7329,10405 7338,10381 7343,10354 7345,10322 7344,10286 7333,10206 7312,10115 7281,10017 7198,9811 7110,9637 7382,9637 Z M 6672,8927 L 7359,8927 7359,9614 7099,9614 7096,9609 7041,9518 6987,9437 6933,9369 6883,9316 6859,9297 6836,9283 6815,9274 6805,9272 6795,9271 6672,9022 6672,8927 Z"/>
    <path fill="rgb(138,138,138)" stroke="none" d="M 6672,8927 L 6672,9022 6593,8862 6895,8680 6990,8624 7039,8598 7097,8571 7126,8591 7157,8620 7223,8697 7293,8799 7367,8923 7517,9217 7664,9548 7797,9884 7905,10195 7977,10448 7997,10543 8002,10581 8004,10612 7500,10905 7299,10437 7308,10431 7316,10423 7323,10415 7329,10405 7338,10381 7343,10354 7345,10322 7344,10286 7333,10206 7312,10115 7281,10017 7198,9811 7099,9614 7359,9614 7359,8927 6672,8927 Z M 6695,8950 L 7336,8950 7336,9591 7085,9591 7041,9518 6987,9437 6933,9369 6883,9316 6859,9297 6836,9283 6815,9274 6805,9272 6795,9271 6695,9069 6695,8950 Z"/>
    <path fill="rgb(139,139,139)" stroke="none" d="M 6695,8950 L 6695,9069 6593,8862 6895,8680 6990,8624 7039,8598 7097,8571 7126,8591 7157,8620 7223,8697 7293,8799 7367,8923 7517,9217 7664,9548 7797,9884 7905,10195 7977,10448 7997,10543 8002,10581 8004,10612 7500,10905 7299,10437 7308,10431 7316,10423 7323,10415 7329,10405 7338,10381 7343,10354 7345,10322 7344,10286 7333,10206 7312,10115 7281,10017 7198,9811 7096,9609 7085,9591 7336,9591 7336,8950 6695,8950 Z M 6718,8973 L 7313,8973 7313,9568 7071,9568 7041,9518 6987,9437 6933,9369 6883,9316 6859,9297 6836,9283 6815,9274 6805,9272 6795,9271 6718,9115 6718,8973 Z"/>
    <path fill="rgb(140,140,140)" stroke="none" d="M 6718,8973 L 6718,9115 6593,8862 6895,8680 6990,8624 7039,8598 7097,8571 7126,8591 7157,8620 7223,8697 7293,8799 7367,8923 7517,9217 7664,9548 7797,9884 7905,10195 7977,10448 7997,10543 8002,10581 8004,10612 7500,10905 7299,10437 7308,10431 7316,10423 7323,10415 7329,10405 7338,10381 7343,10354 7345,10322 7344,10286 7333,10206 7312,10115 7281,10017 7198,9811 7096,9609 7071,9568 7313,9568 7313,8973 6718,8973 Z M 6741,8996 L 7290,8996 7290,9545 7057,9545 7041,9518 6987,9437 6933,9369 6883,9316 6859,9297 6836,9283 6815,9274 6805,9272 6795,9271 6741,9162 6741,8996 Z"/>
    <path fill="rgb(141,141,141)" stroke="none" d="M 6741,8996 L 6741,9162 6593,8862 6895,8680 6990,8624 7039,8598 7097,8571 7126,8591 7157,8620 7223,8697 7293,8799 7367,8923 7517,9217 7664,9548 7797,9884 7905,10195 7977,10448 7997,10543 8002,10581 8004,10612 7500,10905 7299,10437 7308,10431 7316,10423 7323,10415 7329,10405 7338,10381 7343,10354 7345,10322 7344,10286 7333,10206 7312,10115 7281,10017 7198,9811 7096,9609 7057,9545 7290,9545 7290,8996 6741,8996 Z M 6764,9019 L 7267,9019 7267,9522 7043,9522 7041,9518 6987,9437 6933,9369 6883,9316 6859,9297 6836,9283 6815,9274 6805,9272 6795,9271 6764,9208 6764,9019 Z"/>
    <path fill="rgb(142,142,142)" stroke="none" d="M 6764,9019 L 6764,9208 6593,8862 6895,8680 6990,8624 7039,8598 7097,8571 7126,8591 7157,8620 7223,8697 7293,8799 7367,8923 7517,9217 7664,9548 7797,9884 7905,10195 7977,10448 7997,10543 8002,10581 8004,10612 7500,10905 7299,10437 7308,10431 7316,10423 7323,10415 7329,10405 7338,10381 7343,10354 7345,10322 7344,10286 7333,10206 7312,10115 7281,10017 7198,9811 7096,9609 7043,9522 7267,9522 7267,9019 6764,9019 Z M 6787,9042 L 7244,9042 7244,9499 7028,9499 6987,9437 6933,9369 6883,9316 6859,9297 6836,9283 6815,9274 6805,9272 6795,9271 6787,9255 6787,9042 Z"/>
    <path fill="rgb(143,143,143)" stroke="none" d="M 6787,9042 L 6787,9255 6593,8862 6895,8680 6990,8624 7039,8598 7097,8571 7126,8591 7157,8620 7223,8697 7293,8799 7367,8923 7517,9217 7664,9548 7797,9884 7905,10195 7977,10448 7997,10543 8002,10581 8004,10612 7500,10905 7299,10437 7308,10431 7316,10423 7323,10415 7329,10405 7338,10381 7343,10354 7345,10322 7344,10286 7333,10206 7312,10115 7281,10017 7198,9811 7096,9609 7041,9518 7028,9499 7244,9499 7244,9042 6787,9042 Z M 6810,9065 L 7221,9065 7221,9476 7013,9476 6987,9437 6933,9369 6883,9316 6859,9297 6836,9283 6815,9274 6810,9273 6810,9065 Z"/>
    <path fill="rgb(144,144,144)" stroke="none" d="M 6810,9065 L 6810,9273 6805,9272 6795,9271 6593,8862 6895,8680 6990,8624 7039,8598 7097,8571 7126,8591 7157,8620 7223,8697 7293,8799 7367,8923 7517,9217 7664,9548 7797,9884 7905,10195 7977,10448 7997,10543 8002,10581 8004,10612 7500,10905 7299,10437 7308,10431 7316,10423 7323,10415 7329,10405 7338,10381 7343,10354 7345,10322 7344,10286 7333,10206 7312,10115 7281,10017 7198,9811 7096,9609 7041,9518 7013,9476 7221,9476 7221,9065 6810,9065 Z M 6833,9088 L 7198,9088 7198,9453 6998,9453 6987,9437 6933,9369 6883,9316 6859,9297 6836,9283 6833,9282 6833,9088 Z"/>
    <path fill="rgb(145,145,145)" stroke="none" d="M 6833,9088 L 6833,9282 6815,9274 6805,9272 6795,9271 6593,8862 6895,8680 6990,8624 7039,8598 7097,8571 7126,8591 7157,8620 7223,8697 7293,8799 7367,8923 7517,9217 7664,9548 7797,9884 7905,10195 7977,10448 7997,10543 8002,10581 8004,10612 7500,10905 7299,10437 7308,10431 7316,10423 7323,10415 7329,10405 7338,10381 7343,10354 7345,10322 7344,10286 7333,10206 7312,10115 7281,10017 7198,9811 7096,9609 7041,9518 6998,9453 7198,9453 7198,9088 6833,9088 Z M 6856,9111 L 7175,9111 7175,9430 6981,9430 6933,9369 6883,9316 6859,9297 6856,9295 6856,9111 Z"/>
    <path fill="rgb(146,146,146)" stroke="none" d="M 6856,9111 L 6856,9295 6836,9283 6815,9274 6805,9272 6795,9271 6593,8862 6895,8680 6990,8624 7039,8598 7097,8571 7126,8591 7157,8620 7223,8697 7293,8799 7367,8923 7517,9217 7664,9548 7797,9884 7905,10195 7977,10448 7997,10543 8002,10581 8004,10612 7500,10905 7299,10437 7308,10431 7316,10423 7323,10415 7329,10405 7338,10381 7343,10354 7345,10322 7344,10286 7333,10206 7312,10115 7281,10017 7198,9811 7096,9609 7041,9518 6987,9437 6981,9430 7175,9430 7175,9111 6856,9111 Z M 6879,9134 L 7152,9134 7152,9407 6963,9407 6933,9369 6883,9316 6879,9313 6879,9134 Z"/>
    <path fill="rgb(147,147,147)" stroke="none" d="M 6879,9134 L 6879,9313 6859,9297 6836,9283 6815,9274 6805,9272 6795,9271 6593,8862 6895,8680 6990,8624 7039,8598 7097,8571 7126,8591 7157,8620 7223,8697 7293,8799 7367,8923 7517,9217 7664,9548 7797,9884 7905,10195 7977,10448 7997,10543 8002,10581 8004,10612 7500,10905 7299,10437 7308,10431 7316,10423 7323,10415 7329,10405 7338,10381 7343,10354 7345,10322 7344,10286 7333,10206 7312,10115 7281,10017 7198,9811 7096,9609 7041,9518 6987,9437 6963,9407 7152,9407 7152,9134 6879,9134 Z M 6901,9156 L 7130,9156 7130,9385 6946,9385 6933,9369 6901,9335 6901,9156 Z"/>
    <path fill="rgb(148,148,148)" stroke="none" d="M 6901,9156 L 6901,9335 6883,9316 6859,9297 6836,9283 6815,9274 6805,9272 6795,9271 6593,8862 6895,8680 6990,8624 7039,8598 7097,8571 7126,8591 7157,8620 7223,8697 7293,8799 7367,8923 7517,9217 7664,9548 7797,9884 7905,10195 7977,10448 7997,10543 8002,10581 8004,10612 7500,10905 7299,10437 7308,10431 7316,10423 7323,10415 7329,10405 7338,10381 7343,10354 7345,10322 7344,10286 7333,10206 7312,10115 7281,10017 7198,9811 7096,9609 7041,9518 6987,9437 6946,9385 7130,9385 7130,9156 6901,9156 Z M 6924,9179 L 7107,9179 7107,9362 6926,9362 6924,9359 6924,9179 Z"/>
    <path fill="rgb(149,149,149)" stroke="none" d="M 6924,9179 L 6924,9359 6883,9316 6859,9297 6836,9283 6815,9274 6805,9272 6795,9271 6593,8862 6895,8680 6990,8624 7039,8598 7097,8571 7126,8591 7157,8620 7223,8697 7293,8799 7367,8923 7517,9217 7664,9548 7797,9884 7905,10195 7977,10448 7997,10543 8002,10581 8004,10612 7500,10905 7299,10437 7308,10431 7316,10423 7323,10415 7329,10405 7338,10381 7343,10354 7345,10322 7344,10286 7333,10206 7312,10115 7281,10017 7198,9811 7096,9609 7041,9518 6987,9437 6933,9369 6926,9362 7107,9362 7107,9179 6924,9179 Z M 6947,9202 L 7084,9202 7084,9339 6947,9339 6947,9202 Z"/>
    <path fill="rgb(150,150,150)" stroke="none" d="M 6947,9202 L 6947,9339 7084,9339 7084,9202 6947,9202 Z M 6970,9225 L 7061,9225 7061,9316 6970,9316 6970,9225 Z M 7097,8571 L 7126,8591 7157,8620 7223,8697 7293,8799 7367,8923 7517,9217 7664,9548 7797,9884 7905,10195 7977,10448 7997,10543 8002,10581 8004,10612 7500,10905 7299,10437 7308,10431 7316,10423 7323,10415 7329,10405 7338,10381 7343,10354 7345,10322 7344,10286 7333,10206 7312,10115 7281,10017 7198,9811 7096,9609 7041,9518 6987,9437 6933,9369 6883,9316 6859,9297 6836,9283 6815,9274 6805,9272 6795,9271 6593,8862 6895,8680 6990,8624 7039,8598 7097,8571 Z"/>
    <path fill="rgb(151,151,151)" stroke="none" d="M 6970,9225 L 6970,9316 7061,9316 7061,9225 6970,9225 Z M 6993,9248 L 7038,9248 7038,9293 6993,9293 6993,9248 Z M 7097,8571 L 7126,8591 7157,8620 7223,8697 7293,8799 7367,8923 7517,9217 7664,9548 7797,9884 7905,10195 7977,10448 7997,10543 8002,10581 8004,10612 7500,10905 7299,10437 7308,10431 7316,10423 7323,10415 7329,10405 7338,10381 7343,10354 7345,10322 7344,10286 7333,10206 7312,10115 7281,10017 7198,9811 7096,9609 7041,9518 6987,9437 6933,9369 6883,9316 6859,9297 6836,9283 6815,9274 6805,9272 6795,9271 6593,8862 6895,8680 6990,8624 7039,8598 7097,8571 Z"/>
    <path fill="rgb(153,153,153)" stroke="none" d="M 6993,9248 L 6993,9293 7038,9293 7038,9248 6993,9248 Z M 7097,8571 L 7126,8591 7157,8620 7223,8697 7293,8799 7367,8923 7517,9217 7664,9548 7797,9884 7905,10195 7977,10448 7997,10543 8002,10581 8004,10612 7500,10905 7299,10437 7308,10431 7316,10423 7323,10415 7329,10405 7338,10381 7343,10354 7345,10322 7344,10286 7333,10206 7312,10115 7281,10017 7198,9811 7096,9609 7041,9518 6987,9437 6933,9369 6883,9316 6859,9297 6836,9283 6815,9274 6805,9272 6795,9271 6593,8862 6895,8680 6990,8624 7039,8598 7097,8571 Z"/>
    <path fill="none" stroke="rgb(178,178,178)" id="Drawing_4_0" stroke-width="40" stroke-linejoin="round" d="M 7097,8571 C 6929,8648 6895,8687 6593,8862 6660,8998 6728,9135 6795,9271 6996,9271 7500,10321 7299,10437 7365,10594 7433,10748 7500,10905 7668,10807 7837,10710 8004,10612 8004,10321 7400,8746 7097,8571 Z"/>
   </g>
   <g>
    <path fill="none" stroke="rgb(178,178,178)" id="Drawing_5_0" stroke-width="40" stroke-linejoin="round" d="M 7501,10787 C 7703,10087 6897,8922 6695,8921"/>
   </g>
   <g>
    <path fill="none" stroke="rgb(178,178,178)" id="Drawing_6_0" stroke-width="40" stroke-linejoin="round" d="M 8248,10695 L 7240,8361"/>
   </g>
   <g id="DrawingGroup_2">
    <g>
     <path fill="rgb(102,102,102)" stroke="none" d="M 8991,10018 L 8700,10187 8148,10187 7956,9743 8964,9159 8991,9222 8991,10018 Z"/>
     <path fill="rgb(103,103,103)" stroke="none" d="M 8700,10187 L 8258,10443 8148,10187 8700,10187 Z M 8991,9222 L 9266,9859 8991,10018 8991,9222 Z M 8978,10026 L 8722,10174 8142,10174 7956,9743 8964,9159 8978,9191 8978,10026 Z"/>
     <path fill="rgb(104,104,104)" stroke="none" d="M 8722,10174 L 8258,10443 8142,10174 8722,10174 Z M 8978,9191 L 9266,9859 8978,10026 8978,9191 Z M 8965,10033 L 8745,10161 8136,10161 7956,9743 8964,9159 8965,9161 8965,10033 Z"/>
     <path fill="rgb(105,105,105)" stroke="none" d="M 8745,10161 L 8258,10443 8136,10161 8745,10161 Z M 8965,9161 L 9266,9859 8965,10033 8965,9161 Z M 8952,10041 L 8767,10148 8131,10148 7956,9743 8952,9166 8952,10041 Z"/>
     <path fill="rgb(106,106,106)" stroke="none" d="M 8767,10148 L 8258,10443 8131,10148 8767,10148 Z M 8952,9166 L 8964,9159 9266,9859 8952,10041 8952,9166 Z M 8939,10048 L 8790,10135 8125,10135 7956,9743 8939,9173 8939,10048 Z"/>
     <path fill="rgb(107,107,107)" stroke="none" d="M 8790,10135 L 8258,10443 8125,10135 8790,10135 Z M 8939,9173 L 8964,9159 9266,9859 8939,10048 8939,9173 Z M 8926,10056 L 8812,10122 8120,10122 7956,9743 8926,9181 8926,10056 Z"/>
     <path fill="rgb(108,108,108)" stroke="none" d="M 8812,10122 L 8258,10443 8120,10122 8812,10122 Z M 8926,9181 L 8964,9159 9266,9859 8926,10056 8926,9181 Z M 8913,10064 L 8834,10109 8114,10109 7956,9743 8913,9189 8913,10064 Z"/>
     <path fill="rgb(109,109,109)" stroke="none" d="M 8834,10109 L 8258,10443 8114,10109 8834,10109 Z M 8913,9189 L 8964,9159 9266,9859 8913,10064 8913,9189 Z M 8901,10070 L 8855,10097 8109,10097 7956,9743 8901,9196 8901,10070 Z"/>
     <path fill="rgb(110,110,110)" stroke="none" d="M 8855,10097 L 8258,10443 8109,10097 8855,10097 Z M 8901,9196 L 8964,9159 9266,9859 8901,10070 8901,9196 Z M 8888,10078 L 8878,10084 8103,10084 7956,9743 8888,9203 8888,10078 Z"/>
     <path fill="rgb(111,111,111)" stroke="none" d="M 8878,10084 L 8258,10443 8103,10084 8878,10084 Z M 8888,9203 L 8964,9159 9266,9859 8888,10078 8888,9203 Z M 8875,10071 L 8098,10071 7956,9743 8875,9211 8875,10071 Z"/>
     <path fill="rgb(112,112,112)" stroke="none" d="M 8875,10071 L 8875,9211 8964,9159 9266,9859 8258,10443 8098,10071 8875,10071 Z M 8862,10058 L 8092,10058 7956,9743 8862,9218 8862,10058 Z"/>
     <path fill="rgb(113,113,113)" stroke="none" d="M 8862,10058 L 8862,9218 8964,9159 9266,9859 8258,10443 8092,10058 8862,10058 Z M 8849,10045 L 8086,10045 7956,9743 8849,9226 8849,10045 Z"/>
     <path fill="rgb(114,114,114)" stroke="none" d="M 8849,10045 L 8849,9226 8964,9159 9266,9859 8258,10443 8086,10045 8849,10045 Z M 8836,10032 L 8081,10032 7956,9743 8836,9233 8836,10032 Z"/>
     <path fill="rgb(115,115,115)" stroke="none" d="M 8836,10032 L 8836,9233 8964,9159 9266,9859 8258,10443 8081,10032 8836,10032 Z M 8823,10019 L 8075,10019 7956,9743 8823,9241 8823,10019 Z"/>
     <path fill="rgb(116,116,116)" stroke="none" d="M 8823,10019 L 8823,9241 8964,9159 9266,9859 8258,10443 8075,10019 8823,10019 Z M 8810,10006 L 8069,10006 7956,9743 8810,9248 8810,10006 Z"/>
     <path fill="rgb(117,117,117)" stroke="none" d="M 8810,10006 L 8810,9248 8964,9159 9266,9859 8258,10443 8069,10006 8810,10006 Z M 8798,9994 L 8064,9994 7956,9743 8798,9255 8798,9994 Z"/>
     <path fill="rgb(118,118,118)" stroke="none" d="M 8798,9994 L 8798,9255 8964,9159 9266,9859 8258,10443 8064,9994 8798,9994 Z M 8785,9981 L 8059,9981 7956,9743 8785,9263 8785,9981 Z"/>
     <path fill="rgb(119,119,119)" stroke="none" d="M 8785,9981 L 8785,9263 8964,9159 9266,9859 8258,10443 8059,9981 8785,9981 Z M 8772,9968 L 8053,9968 7956,9743 8772,9270 8772,9968 Z"/>
     <path fill="rgb(120,120,120)" stroke="none" d="M 8772,9968 L 8772,9270 8964,9159 9266,9859 8258,10443 8053,9968 8772,9968 Z M 8759,9955 L 8047,9955 7956,9743 8759,9278 8759,9955 Z"/>
     <path fill="rgb(121,121,121)" stroke="none" d="M 8759,9955 L 8759,9278 8964,9159 9266,9859 8258,10443 8047,9955 8759,9955 Z M 8746,9942 L 8042,9942 7956,9743 8746,9285 8746,9942 Z"/>
     <path fill="rgb(122,122,122)" stroke="none" d="M 8746,9942 L 8746,9285 8964,9159 9266,9859 8258,10443 8042,9942 8746,9942 Z M 8733,9929 L 8036,9929 7962,9757 7962,9740 8733,9293 8733,9929 Z"/>
     <path fill="rgb(123,123,123)" stroke="none" d="M 7962,9757 L 7956,9743 7962,9740 7962,9757 Z M 8733,9929 L 8733,9293 8964,9159 9266,9859 8258,10443 8036,9929 8733,9929 Z M 8720,9916 L 8031,9916 7975,9787 7975,9732 8720,9300 8720,9916 Z"/>
     <path fill="rgb(124,124,124)" stroke="none" d="M 7975,9787 L 7956,9743 7975,9732 7975,9787 Z M 8720,9916 L 8720,9300 8964,9159 9266,9859 8258,10443 8031,9916 8720,9916 Z M 8707,9903 L 8025,9903 7988,9817 7988,9724 8707,9308 8707,9903 Z"/>
     <path fill="rgb(125,125,125)" stroke="none" d="M 7988,9817 L 7956,9743 7988,9724 7988,9817 Z M 8707,9903 L 8707,9308 8964,9159 9266,9859 8258,10443 8025,9903 8707,9903 Z M 8695,9891 L 8020,9891 8000,9845 8000,9718 8695,9315 8695,9891 Z"/>
     <path fill="rgb(126,126,126)" stroke="none" d="M 8000,9845 L 7956,9743 8000,9718 8000,9845 Z M 8695,9891 L 8695,9315 8964,9159 9266,9859 8258,10443 8020,9891 8695,9891 Z M 8682,9878 L 8014,9878 8013,9875 8013,9710 8682,9322 8682,9878 Z"/>
     <path fill="rgb(127,127,127)" stroke="none" d="M 8013,9875 L 7956,9743 8013,9710 8013,9875 Z M 8682,9878 L 8682,9322 8964,9159 9266,9859 8258,10443 8014,9878 8682,9878 Z M 8669,9865 L 8026,9865 8026,9702 8669,9330 8669,9865 Z"/>
     <path fill="rgb(128,128,128)" stroke="none" d="M 8026,9865 L 8669,9865 8669,9330 8964,9159 9266,9859 8258,10443 7956,9743 8026,9702 8026,9865 Z M 8656,9852 L 8039,9852 8039,9695 8656,9337 8656,9852 Z"/>
     <path fill="rgb(129,129,129)" stroke="none" d="M 8039,9852 L 8656,9852 8656,9337 8964,9159 9266,9859 8258,10443 7956,9743 8039,9695 8039,9852 Z M 8643,9839 L 8052,9839 8052,9687 8643,9345 8643,9839 Z"/>
     <path fill="rgb(130,130,130)" stroke="none" d="M 8052,9839 L 8643,9839 8643,9345 8964,9159 9266,9859 8258,10443 7956,9743 8052,9687 8052,9839 Z M 8630,9826 L 8065,9826 8065,9680 8630,9353 8630,9826 Z"/>
     <path fill="rgb(131,131,131)" stroke="none" d="M 8065,9826 L 8630,9826 8630,9353 8964,9159 9266,9859 8258,10443 7956,9743 8065,9680 8065,9826 Z M 8617,9813 L 8078,9813 8078,9672 8617,9360 8617,9813 Z"/>
     <path fill="rgb(132,132,132)" stroke="none" d="M 8078,9813 L 8617,9813 8617,9360 8964,9159 9266,9859 8258,10443 7956,9743 8078,9672 8078,9813 Z M 8604,9800 L 8091,9800 8091,9665 8604,9368 8604,9800 Z"/>
     <path fill="rgb(133,133,133)" stroke="none" d="M 8091,9800 L 8604,9800 8604,9368 8964,9159 9266,9859 8258,10443 7956,9743 8091,9665 8091,9800 Z M 8592,9788 L 8103,9788 8103,9658 8592,9375 8592,9788 Z"/>
     <path fill="rgb(134,134,134)" stroke="none" d="M 8103,9788 L 8592,9788 8592,9375 8964,9159 9266,9859 8258,10443 7956,9743 8103,9658 8103,9788 Z M 8579,9775 L 8116,9775 8116,9650 8579,9382 8579,9775 Z"/>
     <path fill="rgb(135,135,135)" stroke="none" d="M 8116,9775 L 8579,9775 8579,9382 8964,9159 9266,9859 8258,10443 7956,9743 8116,9650 8116,9775 Z M 8566,9762 L 8129,9762 8129,9643 8566,9390 8566,9762 Z"/>
     <path fill="rgb(136,136,136)" stroke="none" d="M 8129,9762 L 8566,9762 8566,9390 8964,9159 9266,9859 8258,10443 7956,9743 8129,9643 8129,9762 Z M 8553,9749 L 8142,9749 8142,9635 8553,9397 8553,9749 Z"/>
     <path fill="rgb(137,137,137)" stroke="none" d="M 8142,9749 L 8553,9749 8553,9397 8964,9159 9266,9859 8258,10443 7956,9743 8142,9635 8142,9749 Z M 8540,9736 L 8155,9736 8155,9628 8540,9405 8540,9736 Z"/>
     <path fill="rgb(138,138,138)" stroke="none" d="M 8155,9736 L 8540,9736 8540,9405 8964,9159 9266,9859 8258,10443 7956,9743 8155,9628 8155,9736 Z M 8527,9723 L 8168,9723 8168,9620 8527,9412 8527,9723 Z"/>
     <path fill="rgb(139,139,139)" stroke="none" d="M 8168,9723 L 8527,9723 8527,9412 8964,9159 9266,9859 8258,10443 7956,9743 8168,9620 8168,9723 Z M 8514,9710 L 8181,9710 8181,9613 8514,9420 8514,9710 Z"/>
     <path fill="rgb(140,140,140)" stroke="none" d="M 8181,9710 L 8514,9710 8514,9420 8964,9159 9266,9859 8258,10443 7956,9743 8181,9613 8181,9710 Z M 8501,9697 L 8194,9697 8194,9605 8501,9427 8501,9697 Z"/>
     <path fill="rgb(141,141,141)" stroke="none" d="M 8194,9697 L 8501,9697 8501,9427 8964,9159 9266,9859 8258,10443 7956,9743 8194,9605 8194,9697 Z M 8489,9685 L 8206,9685 8206,9598 8489,9434 8489,9685 Z"/>
     <path fill="rgb(142,142,142)" stroke="none" d="M 8206,9685 L 8489,9685 8489,9434 8964,9159 9266,9859 8258,10443 7956,9743 8206,9598 8206,9685 Z M 8476,9672 L 8219,9672 8219,9591 8476,9442 8476,9672 Z"/>
     <path fill="rgb(143,143,143)" stroke="none" d="M 8219,9672 L 8476,9672 8476,9442 8964,9159 9266,9859 8258,10443 7956,9743 8219,9591 8219,9672 Z M 8463,9659 L 8232,9659 8232,9583 8463,9449 8463,9659 Z"/>
     <path fill="rgb(144,144,144)" stroke="none" d="M 8232,9659 L 8463,9659 8463,9449 8964,9159 9266,9859 8258,10443 7956,9743 8232,9583 8232,9659 Z M 8450,9646 L 8245,9646 8245,9576 8450,9457 8450,9646 Z"/>
     <path fill="rgb(145,145,145)" stroke="none" d="M 8245,9646 L 8450,9646 8450,9457 8964,9159 9266,9859 8258,10443 7956,9743 8245,9576 8245,9646 Z M 8437,9633 L 8258,9633 8258,9568 8437,9464 8437,9633 Z"/>
     <path fill="rgb(146,146,146)" stroke="none" d="M 8258,9633 L 8437,9633 8437,9464 8964,9159 9266,9859 8258,10443 7956,9743 8258,9568 8258,9633 Z M 8424,9620 L 8271,9620 8271,9561 8424,9472 8424,9620 Z"/>
     <path fill="rgb(147,147,147)" stroke="none" d="M 8271,9620 L 8424,9620 8424,9472 8964,9159 9266,9859 8258,10443 7956,9743 8271,9561 8271,9620 Z M 8411,9480 L 8411,9607 8284,9607 8284,9553 8410,9480 8411,9480 Z"/>
     <path fill="rgb(148,148,148)" stroke="none" d="M 8284,9607 L 8411,9607 8411,9480 8410,9480 8964,9159 9266,9859 8258,10443 7956,9743 8284,9553 8284,9607 Z M 8398,9493 L 8398,9594 8297,9594 8297,9545 8388,9493 8398,9493 Z"/>
     <path fill="rgb(149,149,149)" stroke="none" d="M 8297,9594 L 8398,9594 8398,9493 8388,9493 8964,9159 9266,9859 8258,10443 7956,9743 8297,9545 8297,9594 Z M 8386,9505 L 8386,9582 8309,9582 8309,9538 8367,9505 8386,9505 Z"/>
     <path fill="rgb(150,150,150)" stroke="none" d="M 8309,9582 L 8386,9582 8386,9505 8367,9505 8964,9159 9266,9859 8258,10443 7956,9743 8309,9538 8309,9582 Z M 8373,9518 L 8373,9569 8322,9569 8322,9531 8344,9518 8373,9518 Z"/>
     <path fill="rgb(151,151,151)" stroke="none" d="M 8322,9569 L 8373,9569 8373,9518 8344,9518 8964,9159 9266,9859 8258,10443 7956,9743 8322,9531 8322,9569 Z M 8335,9531 L 8360,9531 8360,9556 8335,9556 8335,9531 Z"/>
     <path fill="rgb(153,153,153)" stroke="none" d="M 8335,9531 L 8335,9556 8360,9556 8360,9531 8335,9531 Z M 9266,9859 L 8258,10443 7956,9743 8964,9159 9266,9859 Z"/>
     <path fill="none" stroke="rgb(178,178,178)" id="Drawing_7_0" stroke-width="40" stroke-linejoin="round" d="M 9266,9859 L 8964,9159 7956,9743 8258,10443 9266,9859 Z"/>
    </g>
    <g>
     <path fill="none" stroke="rgb(178,178,178)" id="Drawing_8_0" stroke-width="40" stroke-linejoin="round" d="M 9164,9625 L 8156,10209"/>
    </g>
    <g>
     <path fill="none" stroke="rgb(178,178,178)" id="Drawing_9_0" stroke-width="40" stroke-linejoin="round" d="M 8056,9977 L 9064,9393"/>
    </g>
    <g>
     <path fill="none" stroke="rgb(178,178,178)" id="Drawing_10_0" stroke-width="40" stroke-linejoin="round" d="M 8762,9275 L 9064,9975"/>
    </g>
    <g>
     <path fill="none" stroke="rgb(178,178,178)" id="Drawing_11_0" stroke-width="40" stroke-linejoin="round" d="M 8560,9393 L 8862,10093"/>
    </g>
    <g>
     <path fill="none" stroke="rgb(178,178,178)" id="Drawing_12_0" stroke-width="40" stroke-linejoin="round" d="M 8358,9509 L 8660,10209"/>
    </g>
    <g>
     <path fill="none" stroke="rgb(178,178,178)" id="Drawing_13_0" stroke-width="40" stroke-linejoin="round" d="M 8157,9625 L 8459,10325"/>
    </g>
   </g>
   <g>
    <defs>
     <linearGradient id="Gradient_3" gradientUnits="userSpaceOnUse" x1="7646" y1="8547" x2="8454" y2="8549">
      <stop offset="0.1" stop-color="rgb(147,212,240)"/>
      <stop offset="1" stop-color="rgb(233,246,252)"/>
     </linearGradient>
    </defs>
    <path fill="url(#Gradient_3)" stroke="rgb(51,51,51)" id="Drawing_14_0" stroke-width="40" stroke-linejoin="round" d="M 8453,8606 L 8251,8140 7647,8490 7849,8956 8453,8606 Z"/>
   </g>
   <g>
    <path fill="rgb(255,255,255)" stroke="none" d="M 8453,9249 L 8352,9015 8251,9074 8352,9306 8453,9249 Z"/>
    <path fill="none" stroke="rgb(51,51,51)" id="Drawing_15_0" stroke-width="40" stroke-linejoin="round" d="M 8453,9249 L 8352,9015 8251,9074 8352,9306 8453,9249 Z"/>
   </g>
   <g>
    <path fill="none" stroke="rgb(178,178,178)" id="Drawing_16_0" stroke-width="40" stroke-linejoin="round" d="M 7588,8549 L 7488,8608"/>
   </g>
   <g>
    <path fill="none" stroke="rgb(178,178,178)" id="Drawing_17_0" stroke-width="40" stroke-linejoin="round" d="M 7645,8665 L 7545,8724"/>
   </g>
   <g>
    <path fill="none" stroke="rgb(178,178,178)" id="Drawing_18_0" stroke-width="40" stroke-linejoin="round" d="M 7688,8781 L 7588,8840"/>
   </g>
   <g>
    <path fill="none" stroke="rgb(178,178,178)" id="Drawing_19_0" stroke-width="40" stroke-linejoin="round" d="M 7747,8899 L 7647,8958"/>
   </g>
   <g>
    <path fill="none" stroke="rgb(178,178,178)" id="Drawing_20_0" stroke-width="40" stroke-linejoin="round" d="M 8452,8081 L 8352,8140"/>
   </g>
   <g>
    <path fill="none" stroke="rgb(178,178,178)" id="Drawing_21_0" stroke-width="40" stroke-linejoin="round" d="M 8510,8199 L 8410,8258"/>
   </g>
   <g>
    <path fill="none" stroke="rgb(178,178,178)" id="Drawing_22_0" stroke-width="40" stroke-linejoin="round" d="M 8553,8315 L 8453,8374"/>
   </g>
   <g>
    <path fill="none" stroke="rgb(178,178,178)" id="Drawing_23_0" stroke-width="40" stroke-linejoin="round" d="M 8611,8431 L 8511,8490"/>
   </g>
   <g>
    <path fill="none" stroke="rgb(178,178,178)" id="Drawing_24_0" stroke-width="40" stroke-linejoin="round" d="M 8553,8665 L 8453,8724"/>
   </g>
   <g>
    <path fill="none" stroke="rgb(178,178,178)" id="Drawing_25_0" stroke-width="40" stroke-linejoin="round" d="M 8351,8781 L 8251,8840"/>
   </g>
   <g>
    <path fill="none" stroke="rgb(178,178,178)" id="Drawing_26_0" stroke-width="40" stroke-linejoin="round" d="M 8149,8899 L 8049,8958"/>
   </g>
   <g>
    <path fill="none" stroke="rgb(178,178,178)" id="Drawing_27_0" stroke-width="40" stroke-linejoin="round" d="M 7947,9015 L 7847,9074"/>
   </g>
   <g>
    <path fill="none" stroke="rgb(0,0,0)" id="Drawing_28_0" stroke-width="40" stroke-linejoin="round" d="M 9450,9995 L 8442,7661 6427,8827 6427,9177 6527,9411 6527,10520 7132,10870 7233,11045 7435,11161 9450,9995 Z"/>
   </g>
  </g>
 </g>
</svg>