<?xml version="1.0" encoding="UTF-8"?>

<svg version="1.2" baseProfile="tiny" width="30.63mm" height="35.4mm" viewBox="10413 11950 3063 3540" preserveAspectRatio="xMidYMid" fill-rule="evenodd" stroke-width="28.222" stroke-linejoin="round" xmlns="http://www.w3.org/2000/svg" xmlns:xlink="http://www.w3.org/1999/xlink" xml:space="preserve">
 <g visibility="visible" id="Slide_1">
  <g id="DrawingGroup_1">
   <g>
    <defs>
     <linearGradient id="Gradient_158" gradientUnits="userSpaceOnUse" x1="10532" y1="14361" x2="11342" y2="14363">
      <stop offset="0.1" stop-color="rgb(179,179,179)"/>
      <stop offset="1" stop-color="rgb(229,229,229)"/>
     </linearGradient>
    </defs>
    <path fill="url(#Gradient_158)" stroke="rgb(128,128,128)" id="Drawing_1_0" stroke-width="40" stroke-linejoin="round" d="M 10534,13429 L 10534,14829 11340,15295 10534,13429 Z"/>
   </g>
   <g>
    <defs>
     <linearGradient id="Gradient_159" gradientUnits="userSpaceOnUse" x1="10431" y1="14302" x2="11443" y2="14304">
      <stop offset="0.1" stop-color="rgb(179,179,179)"/>
      <stop offset="1" stop-color="rgb(229,229,229)"/>
     </linearGradient>
    </defs>
    <path fill="url(#Gradient_159)" stroke="rgb(127,127,127)" id="Drawing_2_0" stroke-width="40" stroke-linejoin="round" d="M 10433,13136 L 10433,13486 11239,15352 11441,15470 10433,13136 Z"/>
   </g>
   <g>
    <path fill="rgb(179,179,179)" stroke="none" d="M 13054,14537 L 12713,14734 11123,14734 10433,13136 12448,11970 13054,13373 13054,14537 Z"/>
    <path fill="rgb(180,180,180)" stroke="none" d="M 12713,14734 L 11441,15470 11123,14734 12713,14734 Z M 13054,13373 L 13456,14304 13054,14537 13054,13373 Z M 13019,14557 L 12773,14699 11108,14699 10433,13136 12448,11970 13019,13292 13019,14557 Z"/>
    <path fill="rgb(181,181,181)" stroke="none" d="M 12773,14699 L 11441,15470 11108,14699 12773,14699 Z M 13019,13292 L 13456,14304 13019,14557 13019,13292 Z M 12984,14577 L 12834,14664 11093,14664 10433,13136 12448,11970 12984,13211 12984,14577 Z"/>
    <path fill="rgb(182,182,182)" stroke="none" d="M 12834,14664 L 11441,15470 11093,14664 12834,14664 Z M 12984,13211 L 13456,14304 12984,14577 12984,13211 Z M 12949,14597 L 12894,14629 11078,14629 10433,13136 12448,11970 12949,13130 12949,14597 Z"/>
    <path fill="rgb(183,183,183)" stroke="none" d="M 12894,14629 L 11441,15470 11078,14629 12894,14629 Z M 12949,13130 L 13456,14304 12949,14597 12949,13130 Z M 12914,14594 L 11063,14594 10433,13136 12448,11970 12914,13049 12914,14594 Z"/>
    <path fill="rgb(184,184,184)" stroke="none" d="M 12914,14594 L 12914,13049 13456,14304 11441,15470 11063,14594 12914,14594 Z M 12879,14559 L 11048,14559 10433,13136 12448,11970 12879,12968 12879,14559 Z"/>
    <path fill="rgb(185,185,185)" stroke="none" d="M 12879,14559 L 12879,12968 13456,14304 11441,15470 11048,14559 12879,14559 Z M 12844,14524 L 11032,14524 10433,13136 12448,11970 12844,12887 12844,14524 Z"/>
    <path fill="rgb(186,186,186)" stroke="none" d="M 12844,14524 L 12844,12887 13456,14304 11441,15470 11032,14524 12844,14524 Z M 12809,14489 L 11017,14489 10433,13136 12448,11970 12809,12806 12809,14489 Z"/>
    <path fill="rgb(187,187,187)" stroke="none" d="M 12809,14489 L 12809,12806 13456,14304 11441,15470 11017,14489 12809,14489 Z M 12774,14454 L 11002,14454 10433,13136 12448,11970 12774,12725 12774,14454 Z"/>
    <path fill="rgb(188,188,188)" stroke="none" d="M 12774,14454 L 12774,12725 13456,14304 11441,15470 11002,14454 12774,14454 Z M 12739,14419 L 10987,14419 10433,13136 12448,11970 12739,12644 12739,14419 Z"/>
    <path fill="rgb(189,189,189)" stroke="none" d="M 12739,14419 L 12739,12644 13456,14304 11441,15470 10987,14419 12739,14419 Z M 12704,14384 L 10972,14384 10433,13136 12448,11970 12704,12563 12704,14384 Z"/>
    <path fill="rgb(190,190,190)" stroke="none" d="M 12704,14384 L 12704,12563 13456,14304 11441,15470 10972,14384 12704,14384 Z M 12669,14349 L 10957,14349 10433,13136 12448,11970 12669,12482 12669,14349 Z"/>
    <path fill="rgb(191,191,191)" stroke="none" d="M 12669,14349 L 12669,12482 13456,14304 11441,15470 10957,14349 12669,14349 Z M 12634,14314 L 10942,14314 10433,13136 12448,11970 12634,12401 12634,14314 Z"/>
    <path fill="rgb(192,192,192)" stroke="none" d="M 12634,14314 L 12634,12401 13456,14304 11441,15470 10942,14314 12634,14314 Z M 12599,14279 L 10927,14279 10433,13136 12448,11970 12599,12320 12599,14279 Z"/>
    <path fill="rgb(193,193,193)" stroke="none" d="M 12599,14279 L 12599,12320 13456,14304 11441,15470 10927,14279 12599,14279 Z M 12564,14244 L 10912,14244 10433,13136 12448,11970 12564,12239 12564,14244 Z"/>
    <path fill="rgb(194,194,194)" stroke="none" d="M 12564,14244 L 12564,12239 13456,14304 11441,15470 10912,14244 12564,14244 Z M 12529,14209 L 10896,14209 10433,13136 12448,11970 12529,12158 12529,14209 Z"/>
    <path fill="rgb(195,195,195)" stroke="none" d="M 12529,14209 L 12529,12158 13456,14304 11441,15470 10896,14209 12529,14209 Z M 12494,14174 L 10881,14174 10433,13136 12448,11970 12494,12077 12494,14174 Z"/>
    <path fill="rgb(196,196,196)" stroke="none" d="M 12494,14174 L 12494,12077 13456,14304 11441,15470 10881,14174 12494,14174 Z M 12459,14139 L 10866,14139 10433,13136 12448,11970 12459,11995 12459,14139 Z"/>
    <path fill="rgb(197,197,197)" stroke="none" d="M 12459,14139 L 12459,11995 13456,14304 11441,15470 10866,14139 12459,14139 Z M 12424,14104 L 10851,14104 10433,13136 12424,11984 12424,14104 Z"/>
    <path fill="rgb(198,198,198)" stroke="none" d="M 12424,14104 L 12424,11984 12448,11970 13456,14304 11441,15470 10851,14104 12424,14104 Z M 12389,14069 L 10836,14069 10433,13136 12389,12004 12389,14069 Z"/>
    <path fill="rgb(199,199,199)" stroke="none" d="M 12389,14069 L 12389,12004 12448,11970 13456,14304 11441,15470 10836,14069 12389,14069 Z M 12354,14034 L 10821,14034 10433,13136 12354,12024 12354,14034 Z"/>
    <path fill="rgb(200,200,200)" stroke="none" d="M 12354,14034 L 12354,12024 12448,11970 13456,14304 11441,15470 10821,14034 12354,14034 Z M 12319,13999 L 10806,13999 10433,13136 12319,12045 12319,13999 Z"/>
    <path fill="rgb(201,201,201)" stroke="none" d="M 12319,13999 L 12319,12045 12448,11970 13456,14304 11441,15470 10806,13999 12319,13999 Z M 12284,12073 L 12284,13964 10791,13964 10433,13136 12270,12073 12284,12073 Z"/>
    <path fill="rgb(202,202,202)" stroke="none" d="M 12284,13964 L 12284,12073 12270,12073 12448,11970 13456,14304 11441,15470 10791,13964 12284,13964 Z M 12249,12108 L 12249,13929 10775,13929 10433,13136 12210,12108 12249,12108 Z"/>
    <path fill="rgb(203,203,203)" stroke="none" d="M 12249,13929 L 12249,12108 12210,12108 12448,11970 13456,14304 11441,15470 10775,13929 12249,13929 Z M 12214,12143 L 12214,13894 10760,13894 10463,13205 10463,13119 12149,12143 12214,12143 Z"/>
    <path fill="rgb(204,204,204)" stroke="none" d="M 10463,13205 L 10433,13136 10463,13119 10463,13205 Z M 12214,13894 L 12214,12143 12149,12143 12448,11970 13456,14304 11441,15470 10760,13894 12214,13894 Z M 12179,12178 L 12179,13859 10745,13859 10498,13287 10498,13098 12089,12178 12179,12178 Z"/>
    <path fill="rgb(205,205,205)" stroke="none" d="M 10498,13287 L 10433,13136 10498,13098 10498,13287 Z M 12179,13859 L 12179,12178 12089,12178 12448,11970 13456,14304 11441,15470 10745,13859 12179,13859 Z M 12144,12213 L 12144,13824 10730,13824 10533,13368 10533,13078 12028,12213 12144,12213 Z"/>
    <path fill="rgb(206,206,206)" stroke="none" d="M 10533,13368 L 10433,13136 10533,13078 10533,13368 Z M 12144,13824 L 12144,12213 12028,12213 12448,11970 13456,14304 11441,15470 10730,13824 12144,13824 Z M 12109,12248 L 12109,13789 10715,13789 10568,13449 10568,13058 11968,12248 12109,12248 Z"/>
    <path fill="rgb(207,207,207)" stroke="none" d="M 10568,13449 L 10433,13136 10568,13058 10568,13449 Z M 12109,13789 L 12109,12248 11968,12248 12448,11970 13456,14304 11441,15470 10715,13789 12109,13789 Z M 12074,12283 L 12074,13754 10700,13754 10603,13530 10603,13038 11907,12283 12074,12283 Z"/>
    <path fill="rgb(208,208,208)" stroke="none" d="M 10603,13530 L 10433,13136 10603,13038 10603,13530 Z M 12074,13754 L 12074,12283 11907,12283 12448,11970 13456,14304 11441,15470 10700,13754 12074,13754 Z M 12039,12318 L 12039,13719 10685,13719 10638,13611 10638,13017 11847,12318 12039,12318 Z"/>
    <path fill="rgb(209,209,209)" stroke="none" d="M 10638,13611 L 10433,13136 10638,13017 10638,13611 Z M 12039,13719 L 12039,12318 11847,12318 12448,11970 13456,14304 11441,15470 10685,13719 12039,13719 Z M 12004,12353 L 12004,13684 10673,13684 10673,12997 11786,12353 12004,12353 Z"/>
    <path fill="rgb(210,210,210)" stroke="none" d="M 10673,13684 L 12004,13684 12004,12353 11786,12353 12448,11970 13456,14304 11441,15470 10433,13136 10673,12997 10673,13684 Z M 11969,12388 L 11969,13649 10708,13649 10708,12977 11726,12388 11969,12388 Z"/>
    <path fill="rgb(211,211,211)" stroke="none" d="M 10708,13649 L 11969,13649 11969,12388 11726,12388 12448,11970 13456,14304 11441,15470 10433,13136 10708,12977 10708,13649 Z M 11934,12423 L 11934,13614 10743,13614 10743,12957 11665,12423 11934,12423 Z"/>
    <path fill="rgb(212,212,212)" stroke="none" d="M 10743,13614 L 11934,13614 11934,12423 11665,12423 12448,11970 13456,14304 11441,15470 10433,13136 10743,12957 10743,13614 Z M 11898,12459 L 11898,13578 10779,13578 10779,12936 11603,12459 11898,12459 Z"/>
    <path fill="rgb(213,213,213)" stroke="none" d="M 10779,13578 L 11898,13578 11898,12459 11603,12459 12448,11970 13456,14304 11441,15470 10433,13136 10779,12936 10779,13578 Z M 11863,12494 L 11863,13543 10814,13543 10814,12916 11542,12494 11863,12494 Z"/>
    <path fill="rgb(214,214,214)" stroke="none" d="M 10814,13543 L 11863,13543 11863,12494 11542,12494 12448,11970 13456,14304 11441,15470 10433,13136 10814,12916 10814,13543 Z M 11828,12529 L 11828,13508 10849,13508 10849,12895 11482,12529 11828,12529 Z"/>
    <path fill="rgb(215,215,215)" stroke="none" d="M 10849,13508 L 11828,13508 11828,12529 11482,12529 12448,11970 13456,14304 11441,15470 10433,13136 10849,12895 10849,13508 Z M 11793,12564 L 11793,13473 10884,13473 10884,12875 11421,12564 11793,12564 Z"/>
    <path fill="rgb(216,216,216)" stroke="none" d="M 10884,13473 L 11793,13473 11793,12564 11421,12564 12448,11970 13456,14304 11441,15470 10433,13136 10884,12875 10884,13473 Z M 11758,12599 L 11758,13438 10919,13438 10919,12855 11361,12599 11758,12599 Z"/>
    <path fill="rgb(217,217,217)" stroke="none" d="M 10919,13438 L 11758,13438 11758,12599 11361,12599 12448,11970 13456,14304 11441,15470 10433,13136 10919,12855 10919,13438 Z M 11723,12634 L 11723,13403 10954,13403 10954,12835 11301,12634 11723,12634 Z"/>
    <path fill="rgb(218,218,218)" stroke="none" d="M 10954,13403 L 11723,13403 11723,12634 11301,12634 12448,11970 13456,14304 11441,15470 10433,13136 10954,12835 10954,13403 Z M 11688,12669 L 11688,13368 10989,13368 10989,12814 11240,12669 11688,12669 Z"/>
    <path fill="rgb(219,219,219)" stroke="none" d="M 10989,13368 L 11688,13368 11688,12669 11240,12669 12448,11970 13456,14304 11441,15470 10433,13136 10989,12814 10989,13368 Z M 11653,12704 L 11653,13333 11024,13333 11024,12794 11180,12704 11653,12704 Z"/>
    <path fill="rgb(220,220,220)" stroke="none" d="M 11024,13333 L 11653,13333 11653,12704 11180,12704 12448,11970 13456,14304 11441,15470 10433,13136 11024,12794 11024,13333 Z M 11618,12739 L 11618,13298 11059,13298 11059,12774 11119,12739 11618,12739 Z"/>
    <path fill="rgb(221,221,221)" stroke="none" d="M 11059,13298 L 11618,13298 11618,12739 11119,12739 12448,11970 13456,14304 11441,15470 10433,13136 11059,12774 11059,13298 Z M 11094,12774 L 11583,12774 11583,13263 11094,13263 11094,12774 Z"/>
    <path fill="rgb(222,222,222)" stroke="none" d="M 11094,12774 L 11094,13263 11583,13263 11583,12774 11094,12774 Z M 11129,12809 L 11548,12809 11548,13228 11129,13228 11129,12809 Z M 13456,14304 L 11441,15470 10433,13136 12448,11970 13456,14304 Z"/>
    <path fill="rgb(223,223,223)" stroke="none" d="M 11129,12809 L 11129,13228 11548,13228 11548,12809 11129,12809 Z M 11164,12844 L 11513,12844 11513,13193 11164,13193 11164,12844 Z M 13456,14304 L 11441,15470 10433,13136 12448,11970 13456,14304 Z"/>
    <path fill="rgb(224,224,224)" stroke="none" d="M 11164,12844 L 11164,13193 11513,13193 11513,12844 11164,12844 Z M 11199,12879 L 11478,12879 11478,13158 11199,13158 11199,12879 Z M 13456,14304 L 11441,15470 10433,13136 12448,11970 13456,14304 Z"/>
    <path fill="rgb(225,225,225)" stroke="none" d="M 11199,12879 L 11199,13158 11478,13158 11478,12879 11199,12879 Z M 11234,12914 L 11443,12914 11443,13123 11234,13123 11234,12914 Z M 13456,14304 L 11441,15470 10433,13136 12448,11970 13456,14304 Z"/>
    <path fill="rgb(226,226,226)" stroke="none" d="M 11234,12914 L 11234,13123 11443,13123 11443,12914 11234,12914 Z M 11269,12949 L 11408,12949 11408,13088 11269,13088 11269,12949 Z M 13456,14304 L 11441,15470 10433,13136 12448,11970 13456,14304 Z"/>
    <path fill="rgb(227,227,227)" stroke="none" d="M 11269,12949 L 11269,13088 11408,13088 11408,12949 11269,12949 Z M 11304,12984 L 11373,12984 11373,13053 11304,13053 11304,12984 Z M 13456,14304 L 11441,15470 10433,13136 12448,11970 13456,14304 Z"/>
    <path fill="rgb(229,229,229)" stroke="none" d="M 11304,12984 L 11304,13053 11373,13053 11373,12984 11304,12984 Z M 13456,14304 L 11441,15470 10433,13136 12448,11970 13456,14304 Z"/>
    <path fill="none" stroke="rgb(255,255,255)" id="Drawing_3_0" stroke-width="40" stroke-linejoin="round" d="M 13456,14304 L 12448,11970 10433,13136 11441,15470 13456,14304 Z"/>
   </g>
   <g id="DrawingGroup_2">
    <g>
     <path fill="rgb(179,179,179)" stroke="none" d="M 11329,14724 L 11335,14714 11344,14690 11349,14663 11351,14631 11350,14595 11339,14515 11318,14424 11287,14326 11204,14120 11102,13918 11047,13827 10993,13746 10939,13678 10889,13625 10865,13606 10842,13592 10821,13583 10811,13581 10801,13580 10599,13171 10901,12989 10996,12933 11045,12907 11103,12880 11132,12900 11163,12929 11229,13006 11299,13108 11373,13232 11523,13526 11670,13857 11803,14193 11911,14504 11974,14724 11329,14724 Z"/>
     <path fill="rgb(180,180,180)" stroke="none" d="M 11974,14724 L 11983,14757 12003,14852 12008,14890 12010,14921 11506,15214 11305,14746 11314,14740 11322,14732 11329,14724 11974,14724 Z M 11340,14701 L 11344,14690 11349,14663 11351,14631 11350,14595 11339,14515 11318,14424 11287,14326 11204,14120 11102,13918 11047,13827 10993,13746 10939,13678 10889,13625 10865,13606 10842,13592 10821,13583 10811,13581 10801,13580 10599,13171 10901,12989 10996,12933 11045,12907 11103,12880 11132,12900 11163,12929 11229,13006 11299,13108 11373,13232 11523,13526 11670,13857 11803,14193 11911,14504 11967,14701 11340,14701 Z"/>
     <path fill="rgb(181,181,181)" stroke="none" d="M 11967,14701 L 11983,14757 12003,14852 12008,14890 12010,14921 11506,15214 11305,14746 11314,14740 11322,14732 11329,14724 11335,14714 11340,14701 11967,14701 Z M 11346,14677 L 11349,14663 11351,14631 11350,14595 11339,14515 11318,14424 11287,14326 11204,14120 11102,13918 11047,13827 10993,13746 10939,13678 10889,13625 10865,13606 10842,13592 10821,13583 10811,13581 10801,13580 10599,13171 10901,12989 10996,12933 11045,12907 11103,12880 11132,12900 11163,12929 11229,13006 11299,13108 11373,13232 11523,13526 11670,13857 11803,14193 11911,14504 11960,14677 11346,14677 Z"/>
     <path fill="rgb(182,182,182)" stroke="none" d="M 11960,14677 L 11983,14757 12003,14852 12008,14890 12010,14921 11506,15214 11305,14746 11314,14740 11322,14732 11329,14724 11335,14714 11344,14690 11346,14677 11960,14677 Z M 11350,14654 L 11351,14631 11350,14595 11339,14515 11318,14424 11287,14326 11204,14120 11102,13918 11047,13827 10993,13746 10939,13678 10889,13625 10865,13606 10842,13592 10821,13583 10811,13581 10801,13580 10599,13171 10901,12989 10996,12933 11045,12907 11103,12880 11132,12900 11163,12929 11229,13006 11299,13108 11373,13232 11523,13526 11670,13857 11803,14193 11911,14504 11954,14654 11350,14654 Z"/>
     <path fill="rgb(183,183,183)" stroke="none" d="M 11954,14654 L 11983,14757 12003,14852 12008,14890 12010,14921 11506,15214 11305,14746 11314,14740 11322,14732 11329,14724 11335,14714 11344,14690 11349,14663 11350,14654 11954,14654 Z M 11351,14631 L 11350,14595 11339,14515 11318,14424 11287,14326 11204,14120 11102,13918 11047,13827 10993,13746 10939,13678 10889,13625 10865,13606 10842,13592 10821,13583 10811,13581 10801,13580 10599,13171 10901,12989 10996,12933 11045,12907 11103,12880 11132,12900 11163,12929 11229,13006 11299,13108 11373,13232 11523,13526 11670,13857 11803,14193 11911,14504 11947,14631 11351,14631 Z"/>
     <path fill="rgb(184,184,184)" stroke="none" d="M 11947,14631 L 11983,14757 12003,14852 12008,14890 12010,14921 11506,15214 11305,14746 11314,14740 11322,14732 11329,14724 11335,14714 11344,14690 11349,14663 11351,14631 11947,14631 Z M 11350,14607 L 11350,14595 11339,14515 11318,14424 11287,14326 11204,14120 11102,13918 11047,13827 10993,13746 10939,13678 10889,13625 10865,13606 10842,13592 10821,13583 10811,13581 10801,13580 10599,13171 10901,12989 10996,12933 11045,12907 11103,12880 11132,12900 11163,12929 11229,13006 11299,13108 11373,13232 11523,13526 11670,13857 11803,14193 11911,14504 11940,14607 11350,14607 Z"/>
     <path fill="rgb(185,185,185)" stroke="none" d="M 11940,14607 L 11983,14757 12003,14852 12008,14890 12010,14921 11506,15214 11305,14746 11314,14740 11322,14732 11329,14724 11335,14714 11344,14690 11349,14663 11351,14631 11350,14607 11940,14607 Z M 11348,14584 L 11339,14515 11318,14424 11287,14326 11204,14120 11102,13918 11047,13827 10993,13746 10939,13678 10889,13625 10865,13606 10842,13592 10821,13583 10811,13581 10801,13580 10599,13171 10901,12989 10996,12933 11045,12907 11103,12880 11132,12900 11163,12929 11229,13006 11299,13108 11373,13232 11523,13526 11670,13857 11803,14193 11911,14504 11934,14584 11348,14584 Z"/>
     <path fill="rgb(186,186,186)" stroke="none" d="M 11934,14584 L 11983,14757 12003,14852 12008,14890 12010,14921 11506,15214 11305,14746 11314,14740 11322,14732 11329,14724 11335,14714 11344,14690 11349,14663 11351,14631 11350,14595 11348,14584 11934,14584 Z M 11345,14561 L 11339,14515 11318,14424 11287,14326 11204,14120 11102,13918 11047,13827 10993,13746 10939,13678 10889,13625 10865,13606 10842,13592 10821,13583 10811,13581 10801,13580 10599,13171 10901,12989 10996,12933 11045,12907 11103,12880 11132,12900 11163,12929 11229,13006 11299,13108 11373,13232 11523,13526 11670,13857 11803,14193 11911,14504 11927,14561 11345,14561 Z"/>
     <path fill="rgb(187,187,187)" stroke="none" d="M 11927,14561 L 11983,14757 12003,14852 12008,14890 12010,14921 11506,15214 11305,14746 11314,14740 11322,14732 11329,14724 11335,14714 11344,14690 11349,14663 11351,14631 11350,14595 11345,14561 11927,14561 Z M 11342,14537 L 11339,14515 11318,14424 11287,14326 11204,14120 11102,13918 11047,13827 10993,13746 10939,13678 10889,13625 10865,13606 10842,13592 10821,13583 10811,13581 10801,13580 10599,13171 10901,12989 10996,12933 11045,12907 11103,12880 11132,12900 11163,12929 11229,13006 11299,13108 11373,13232 11523,13526 11670,13857 11803,14193 11911,14504 11920,14537 11342,14537 Z"/>
     <path fill="rgb(188,188,188)" stroke="none" d="M 11920,14537 L 11983,14757 12003,14852 12008,14890 12010,14921 11506,15214 11305,14746 11314,14740 11322,14732 11329,14724 11335,14714 11344,14690 11349,14663 11351,14631 11350,14595 11342,14537 11920,14537 Z M 11339,14514 L 11318,14424 11287,14326 11204,14120 11102,13918 11047,13827 10993,13746 10939,13678 10889,13625 10865,13606 10842,13592 10821,13583 10811,13581 10801,13580 10599,13171 10901,12989 10996,12933 11045,12907 11103,12880 11132,12900 11163,12929 11229,13006 11299,13108 11373,13232 11523,13526 11670,13857 11803,14193 11911,14504 11914,14514 11339,14514 Z"/>
     <path fill="rgb(189,189,189)" stroke="none" d="M 11914,14514 L 11983,14757 12003,14852 12008,14890 12010,14921 11506,15214 11305,14746 11314,14740 11322,14732 11329,14724 11335,14714 11344,14690 11349,14663 11351,14631 11350,14595 11339,14515 11339,14514 11914,14514 Z M 11333,14490 L 11318,14424 11287,14326 11204,14120 11102,13918 11047,13827 10993,13746 10939,13678 10889,13625 10865,13606 10842,13592 10821,13583 10811,13581 10801,13580 10599,13171 10901,12989 10996,12933 11045,12907 11103,12880 11132,12900 11163,12929 11229,13006 11299,13108 11373,13232 11523,13526 11670,13857 11803,14193 11906,14490 11333,14490 Z"/>
     <path fill="rgb(190,190,190)" stroke="none" d="M 11906,14490 L 11911,14504 11983,14757 12003,14852 12008,14890 12010,14921 11506,15214 11305,14746 11314,14740 11322,14732 11329,14724 11335,14714 11344,14690 11349,14663 11351,14631 11350,14595 11339,14515 11333,14490 11906,14490 Z M 11328,14467 L 11318,14424 11287,14326 11204,14120 11102,13918 11047,13827 10993,13746 10939,13678 10889,13625 10865,13606 10842,13592 10821,13583 10811,13581 10801,13580 10599,13171 10901,12989 10996,12933 11045,12907 11103,12880 11132,12900 11163,12929 11229,13006 11299,13108 11373,13232 11523,13526 11670,13857 11803,14193 11898,14467 11328,14467 Z"/>
     <path fill="rgb(191,191,191)" stroke="none" d="M 11898,14467 L 11911,14504 11983,14757 12003,14852 12008,14890 12010,14921 11506,15214 11305,14746 11314,14740 11322,14732 11329,14724 11335,14714 11344,14690 11349,14663 11351,14631 11350,14595 11339,14515 11328,14467 11898,14467 Z M 11886,14444 L 11323,14444 11318,14424 11287,14326 11204,14120 11102,13918 11047,13827 10993,13746 10939,13678 10889,13625 10865,13606 10842,13592 10821,13583 10811,13581 10801,13580 10599,13171 10901,12989 10996,12933 11045,12907 11103,12880 11132,12900 11163,12929 11229,13006 11299,13108 11373,13232 11523,13526 11670,13857 11803,14193 11886,14432 11886,14444 Z"/>
     <path fill="rgb(192,192,192)" stroke="none" d="M 11886,14444 L 11886,14432 11911,14504 11983,14757 12003,14852 12008,14890 12010,14921 11506,15214 11305,14746 11314,14740 11322,14732 11329,14724 11335,14714 11344,14690 11349,14663 11351,14631 11350,14595 11339,14515 11323,14444 11886,14444 Z M 11862,14420 L 11317,14420 11287,14326 11204,14120 11102,13918 11047,13827 10993,13746 10939,13678 10889,13625 10865,13606 10842,13592 10821,13583 10811,13581 10801,13580 10599,13171 10901,12989 10996,12933 11045,12907 11103,12880 11132,12900 11163,12929 11229,13006 11299,13108 11373,13232 11523,13526 11670,13857 11803,14193 11862,14363 11862,14420 Z"/>
     <path fill="rgb(193,193,193)" stroke="none" d="M 11862,14420 L 11862,14363 11911,14504 11983,14757 12003,14852 12008,14890 12010,14921 11506,15214 11305,14746 11314,14740 11322,14732 11329,14724 11335,14714 11344,14690 11349,14663 11351,14631 11350,14595 11339,14515 11318,14424 11317,14420 11862,14420 Z M 11839,14397 L 11309,14397 11287,14326 11204,14120 11102,13918 11047,13827 10993,13746 10939,13678 10889,13625 10865,13606 10842,13592 10821,13583 10811,13581 10801,13580 10599,13171 10901,12989 10996,12933 11045,12907 11103,12880 11132,12900 11163,12929 11229,13006 11299,13108 11373,13232 11523,13526 11670,13857 11803,14193 11839,14297 11839,14397 Z"/>
     <path fill="rgb(194,194,194)" stroke="none" d="M 11839,14397 L 11839,14297 11911,14504 11983,14757 12003,14852 12008,14890 12010,14921 11506,15214 11305,14746 11314,14740 11322,14732 11329,14724 11335,14714 11344,14690 11349,14663 11351,14631 11350,14595 11339,14515 11318,14424 11309,14397 11839,14397 Z M 11816,14374 L 11302,14374 11287,14326 11204,14120 11102,13918 11047,13827 10993,13746 10939,13678 10889,13625 10865,13606 10842,13592 10821,13583 10811,13581 10801,13580 10599,13171 10901,12989 10996,12933 11045,12907 11103,12880 11132,12900 11163,12929 11229,13006 11299,13108 11373,13232 11523,13526 11670,13857 11803,14193 11816,14230 11816,14374 Z"/>
     <path fill="rgb(195,195,195)" stroke="none" d="M 11816,14374 L 11816,14230 11911,14504 11983,14757 12003,14852 12008,14890 12010,14921 11506,15214 11305,14746 11314,14740 11322,14732 11329,14724 11335,14714 11344,14690 11349,14663 11351,14631 11350,14595 11339,14515 11318,14424 11302,14374 11816,14374 Z M 11792,14350 L 11295,14350 11287,14326 11204,14120 11102,13918 11047,13827 10993,13746 10939,13678 10889,13625 10865,13606 10842,13592 10821,13583 10811,13581 10801,13580 10599,13171 10901,12989 10996,12933 11045,12907 11103,12880 11132,12900 11163,12929 11229,13006 11299,13108 11373,13232 11523,13526 11670,13857 11792,14165 11792,14350 Z"/>
     <path fill="rgb(196,196,196)" stroke="none" d="M 11792,14350 L 11792,14165 11803,14193 11911,14504 11983,14757 12003,14852 12008,14890 12010,14921 11506,15214 11305,14746 11314,14740 11322,14732 11329,14724 11335,14714 11344,14690 11349,14663 11351,14631 11350,14595 11339,14515 11318,14424 11295,14350 11792,14350 Z M 11769,14327 L 11287,14327 11287,14326 11204,14120 11102,13918 11047,13827 10993,13746 10939,13678 10889,13625 10865,13606 10842,13592 10821,13583 10811,13581 10801,13580 10599,13171 10901,12989 10996,12933 11045,12907 11103,12880 11132,12900 11163,12929 11229,13006 11299,13108 11373,13232 11523,13526 11670,13857 11769,14107 11769,14327 Z"/>
     <path fill="rgb(197,197,197)" stroke="none" d="M 11769,14327 L 11769,14107 11803,14193 11911,14504 11983,14757 12003,14852 12008,14890 12010,14921 11506,15214 11305,14746 11314,14740 11322,14732 11329,14724 11335,14714 11344,14690 11349,14663 11351,14631 11350,14595 11339,14515 11318,14424 11287,14327 11769,14327 Z M 11745,14303 L 11278,14303 11204,14120 11102,13918 11047,13827 10993,13746 10939,13678 10889,13625 10865,13606 10842,13592 10821,13583 10811,13581 10801,13580 10599,13171 10901,12989 10996,12933 11045,12907 11103,12880 11132,12900 11163,12929 11229,13006 11299,13108 11373,13232 11523,13526 11670,13857 11745,14046 11745,14303 Z"/>
     <path fill="rgb(198,198,198)" stroke="none" d="M 11745,14303 L 11745,14046 11803,14193 11911,14504 11983,14757 12003,14852 12008,14890 12010,14921 11506,15214 11305,14746 11314,14740 11322,14732 11329,14724 11335,14714 11344,14690 11349,14663 11351,14631 11350,14595 11339,14515 11318,14424 11287,14326 11278,14303 11745,14303 Z M 11722,14280 L 11268,14280 11204,14120 11102,13918 11047,13827 10993,13746 10939,13678 10889,13625 10865,13606 10842,13592 10821,13583 10811,13581 10801,13580 10599,13171 10901,12989 10996,12933 11045,12907 11103,12880 11132,12900 11163,12929 11229,13006 11299,13108 11373,13232 11523,13526 11670,13857 11722,13988 11722,14280 Z"/>
     <path fill="rgb(199,199,199)" stroke="none" d="M 11722,14280 L 11722,13988 11803,14193 11911,14504 11983,14757 12003,14852 12008,14890 12010,14921 11506,15214 11305,14746 11314,14740 11322,14732 11329,14724 11335,14714 11344,14690 11349,14663 11351,14631 11350,14595 11339,14515 11318,14424 11287,14326 11268,14280 11722,14280 Z M 11134,12902 L 11163,12929 11229,13006 11299,13108 11373,13232 11523,13526 11670,13857 11699,13930 11699,14257 11259,14257 11204,14120 11102,13918 11047,13827 10993,13746 10939,13678 10889,13625 10865,13606 10842,13592 10821,13583 10811,13581 10801,13580 10599,13171 10901,12989 10996,12933 11045,12907 11056,12902 11134,12902 Z"/>
     <path fill="rgb(200,200,200)" stroke="none" d="M 11699,14257 L 11699,13930 11803,14193 11911,14504 11983,14757 12003,14852 12008,14890 12010,14921 11506,15214 11305,14746 11314,14740 11322,14732 11329,14724 11335,14714 11344,14690 11349,14663 11351,14631 11350,14595 11339,14515 11318,14424 11287,14326 11259,14257 11699,14257 Z M 11056,12902 L 11103,12880 11132,12900 11134,12902 11056,12902 Z M 11160,12926 L 11163,12929 11229,13006 11299,13108 11373,13232 11523,13526 11670,13857 11675,13870 11675,14233 11250,14233 11204,14120 11102,13918 11047,13827 10993,13746 10939,13678 10889,13625 10865,13606 10842,13592 10821,13583 10811,13581 10801,13580 10599,13171 10901,12989 10996,12933 11009,12926 11160,12926 Z"/>
     <path fill="rgb(201,201,201)" stroke="none" d="M 11675,14233 L 11675,13870 11803,14193 11911,14504 11983,14757 12003,14852 12008,14890 12010,14921 11506,15214 11305,14746 11314,14740 11322,14732 11329,14724 11335,14714 11344,14690 11349,14663 11351,14631 11350,14595 11339,14515 11318,14424 11287,14326 11250,14233 11675,14233 Z M 11009,12926 L 11045,12907 11103,12880 11132,12900 11160,12926 11009,12926 Z M 11180,12949 L 11229,13006 11299,13108 11373,13232 11523,13526 11652,13816 11652,14210 11240,14210 11204,14120 11102,13918 11047,13827 10993,13746 10939,13678 10889,13625 10865,13606 10842,13592 10821,13583 10811,13581 10801,13580 10599,13171 10901,12989 10969,12949 11180,12949 Z"/>
     <path fill="rgb(202,202,202)" stroke="none" d="M 11652,14210 L 11652,13816 11670,13857 11803,14193 11911,14504 11983,14757 12003,14852 12008,14890 12010,14921 11506,15214 11305,14746 11314,14740 11322,14732 11329,14724 11335,14714 11344,14690 11349,14663 11351,14631 11350,14595 11339,14515 11318,14424 11287,14326 11240,14210 11652,14210 Z M 10969,12949 L 10996,12933 11045,12907 11103,12880 11132,12900 11163,12929 11180,12949 10969,12949 Z M 11200,12972 L 11229,13006 11299,13108 11373,13232 11523,13526 11629,13765 11629,14187 11231,14187 11204,14120 11102,13918 11047,13827 10993,13746 10939,13678 10889,13625 10865,13606 10842,13592 10821,13583 10811,13581 10801,13580 10599,13171 10901,12989 10930,12972 11200,12972 Z"/>
     <path fill="rgb(203,203,203)" stroke="none" d="M 11629,14187 L 11629,13765 11670,13857 11803,14193 11911,14504 11983,14757 12003,14852 12008,14890 12010,14921 11506,15214 11305,14746 11314,14740 11322,14732 11329,14724 11335,14714 11344,14690 11349,14663 11351,14631 11350,14595 11339,14515 11318,14424 11287,14326 11231,14187 11629,14187 Z M 10930,12972 L 10996,12933 11045,12907 11103,12880 11132,12900 11163,12929 11200,12972 10930,12972 Z M 11220,12996 L 11229,13006 11299,13108 11373,13232 11523,13526 11605,13711 11605,14163 11221,14163 11204,14120 11102,13918 11047,13827 10993,13746 10939,13678 10889,13625 10865,13606 10842,13592 10821,13583 10811,13581 10801,13580 10599,13171 10889,12996 11220,12996 Z"/>
     <path fill="rgb(204,204,204)" stroke="none" d="M 11605,14163 L 11605,13711 11670,13857 11803,14193 11911,14504 11983,14757 12003,14852 12008,14890 12010,14921 11506,15214 11305,14746 11314,14740 11322,14732 11329,14724 11335,14714 11344,14690 11349,14663 11351,14631 11350,14595 11339,14515 11318,14424 11287,14326 11221,14163 11605,14163 Z M 10889,12996 L 10901,12989 10996,12933 11045,12907 11103,12880 11132,12900 11163,12929 11220,12996 10889,12996 Z M 11238,13019 L 11299,13108 11373,13232 11523,13526 11582,13659 11582,14140 11212,14140 11204,14120 11102,13918 11047,13827 10993,13746 10939,13678 10889,13625 10865,13606 10842,13592 10821,13583 10811,13581 10801,13580 10599,13171 10851,13019 11238,13019 Z"/>
     <path fill="rgb(205,205,205)" stroke="none" d="M 11582,14140 L 11582,13659 11670,13857 11803,14193 11911,14504 11983,14757 12003,14852 12008,14890 12010,14921 11506,15214 11305,14746 11314,14740 11322,14732 11329,14724 11335,14714 11344,14690 11349,14663 11351,14631 11350,14595 11339,14515 11318,14424 11287,14326 11212,14140 11582,14140 Z M 10851,13019 L 10901,12989 10996,12933 11045,12907 11103,12880 11132,12900 11163,12929 11229,13006 11238,13019 10851,13019 Z M 11254,13042 L 11299,13108 11373,13232 11523,13526 11559,13607 11559,14117 11202,14117 11102,13918 11047,13827 10993,13746 10939,13678 10889,13625 10865,13606 10842,13592 10821,13583 10811,13581 10801,13580 10599,13171 10813,13042 11254,13042 Z"/>
     <path fill="rgb(206,206,206)" stroke="none" d="M 11559,14117 L 11559,13607 11670,13857 11803,14193 11911,14504 11983,14757 12003,14852 12008,14890 12010,14921 11506,15214 11305,14746 11314,14740 11322,14732 11329,14724 11335,14714 11344,14690 11349,14663 11351,14631 11350,14595 11339,14515 11318,14424 11287,14326 11204,14120 11202,14117 11559,14117 Z M 10813,13042 L 10901,12989 10996,12933 11045,12907 11103,12880 11132,12900 11163,12929 11229,13006 11254,13042 10813,13042 Z M 11270,13066 L 11299,13108 11373,13232 11523,13526 11535,13553 11535,14093 11190,14093 11102,13918 11047,13827 10993,13746 10939,13678 10889,13625 10865,13606 10842,13592 10821,13583 10811,13581 10801,13580 10599,13171 10773,13066 11270,13066 Z"/>
     <path fill="rgb(207,207,207)" stroke="none" d="M 11535,14093 L 11535,13553 11670,13857 11803,14193 11911,14504 11983,14757 12003,14852 12008,14890 12010,14921 11506,15214 11305,14746 11314,14740 11322,14732 11329,14724 11335,14714 11344,14690 11349,14663 11351,14631 11350,14595 11339,14515 11318,14424 11287,14326 11204,14120 11190,14093 11535,14093 Z M 10773,13066 L 10901,12989 10996,12933 11045,12907 11103,12880 11132,12900 11163,12929 11229,13006 11270,13066 10773,13066 Z M 11286,13089 L 11299,13108 11373,13232 11512,13504 11512,14070 11179,14070 11102,13918 11047,13827 10993,13746 10939,13678 10889,13625 10865,13606 10842,13592 10821,13583 10811,13581 10801,13580 10599,13171 10735,13089 11286,13089 Z"/>
     <path fill="rgb(208,208,208)" stroke="none" d="M 11512,14070 L 11512,13504 11523,13526 11670,13857 11803,14193 11911,14504 11983,14757 12003,14852 12008,14890 12010,14921 11506,15214 11305,14746 11314,14740 11322,14732 11329,14724 11335,14714 11344,14690 11349,14663 11351,14631 11350,14595 11339,14515 11318,14424 11287,14326 11204,14120 11179,14070 11512,14070 Z M 10735,13089 L 10901,12989 10996,12933 11045,12907 11103,12880 11132,12900 11163,12929 11229,13006 11286,13089 10735,13089 Z M 11302,13113 L 11373,13232 11488,13457 11488,14046 11167,14046 11102,13918 11047,13827 10993,13746 10939,13678 10889,13625 10865,13606 10842,13592 10821,13583 10811,13581 10801,13580 10599,13171 10695,13113 11302,13113 Z"/>
     <path fill="rgb(209,209,209)" stroke="none" d="M 11488,14046 L 11488,13457 11523,13526 11670,13857 11803,14193 11911,14504 11983,14757 12003,14852 12008,14890 12010,14921 11506,15214 11305,14746 11314,14740 11322,14732 11329,14724 11335,14714 11344,14690 11349,14663 11351,14631 11350,14595 11339,14515 11318,14424 11287,14326 11204,14120 11167,14046 11488,14046 Z M 10695,13113 L 10901,12989 10996,12933 11045,12907 11103,12880 11132,12900 11163,12929 11229,13006 11299,13108 11302,13113 10695,13113 Z M 11316,13136 L 11373,13232 11465,13412 11465,14023 11155,14023 11102,13918 11047,13827 10993,13746 10939,13678 10889,13625 10865,13606 10842,13592 10821,13583 10811,13581 10801,13580 10599,13171 10657,13136 11316,13136 Z"/>
     <path fill="rgb(210,210,210)" stroke="none" d="M 11465,14023 L 11465,13412 11523,13526 11670,13857 11803,14193 11911,14504 11983,14757 12003,14852 12008,14890 12010,14921 11506,15214 11305,14746 11314,14740 11322,14732 11329,14724 11335,14714 11344,14690 11349,14663 11351,14631 11350,14595 11339,14515 11318,14424 11287,14326 11204,14120 11155,14023 11465,14023 Z M 10657,13136 L 10901,12989 10996,12933 11045,12907 11103,12880 11132,12900 11163,12929 11229,13006 11299,13108 11316,13136 10657,13136 Z M 11329,13159 L 11373,13232 11442,13367 11442,14000 11143,14000 11102,13918 11047,13827 10993,13746 10939,13678 10889,13625 10865,13606 10842,13592 10821,13583 10811,13581 10801,13580 10601,13175 10601,13170 10619,13159 11329,13159 Z"/>
     <path fill="rgb(211,211,211)" stroke="none" d="M 10601,13175 L 10599,13171 10601,13170 10601,13175 Z M 11442,14000 L 11442,13367 11523,13526 11670,13857 11803,14193 11911,14504 11983,14757 12003,14852 12008,14890 12010,14921 11506,15214 11305,14746 11314,14740 11322,14732 11329,14724 11335,14714 11344,14690 11349,14663 11351,14631 11350,14595 11339,14515 11318,14424 11287,14326 11204,14120 11143,14000 11442,14000 Z M 10619,13159 L 10901,12989 10996,12933 11045,12907 11103,12880 11132,12900 11163,12929 11229,13006 11299,13108 11329,13159 10619,13159 Z M 10625,13183 L 11344,13183 11373,13232 11418,13320 11418,13976 11131,13976 11102,13918 11047,13827 10993,13746 10939,13678 10889,13625 10865,13606 10842,13592 10821,13583 10811,13581 10801,13580 10625,13224 10625,13183 Z"/>
     <path fill="rgb(212,212,212)" stroke="none" d="M 10625,13183 L 10625,13224 10599,13171 10901,12989 10996,12933 11045,12907 11103,12880 11132,12900 11163,12929 11229,13006 11299,13108 11344,13183 10625,13183 Z M 11418,13976 L 11418,13320 11523,13526 11670,13857 11803,14193 11911,14504 11983,14757 12003,14852 12008,14890 12010,14921 11506,15214 11305,14746 11314,14740 11322,14732 11329,14724 11335,14714 11344,14690 11349,14663 11351,14631 11350,14595 11339,14515 11318,14424 11287,14326 11204,14120 11131,13976 11418,13976 Z M 10648,13206 L 11357,13206 11373,13232 11395,13275 11395,13953 11120,13953 11102,13918 11047,13827 10993,13746 10939,13678 10889,13625 10865,13606 10842,13592 10821,13583 10811,13581 10801,13580 10648,13270 10648,13206 Z"/>
     <path fill="rgb(213,213,213)" stroke="none" d="M 10648,13206 L 10648,13270 10599,13171 10901,12989 10996,12933 11045,12907 11103,12880 11132,12900 11163,12929 11229,13006 11299,13108 11357,13206 10648,13206 Z M 11395,13953 L 11395,13275 11523,13526 11670,13857 11803,14193 11911,14504 11983,14757 12003,14852 12008,14890 12010,14921 11506,15214 11305,14746 11314,14740 11322,14732 11329,14724 11335,14714 11344,14690 11349,14663 11351,14631 11350,14595 11339,14515 11318,14424 11287,14326 11204,14120 11120,13953 11395,13953 Z M 10671,13229 L 11371,13229 11372,13230 11372,13930 11108,13930 11102,13918 11047,13827 10993,13746 10939,13678 10889,13625 10865,13606 10842,13592 10821,13583 10811,13581 10801,13580 10671,13317 10671,13229 Z"/>
     <path fill="rgb(214,214,214)" stroke="none" d="M 10671,13229 L 10671,13317 10599,13171 10901,12989 10996,12933 11045,12907 11103,12880 11132,12900 11163,12929 11229,13006 11299,13108 11371,13229 10671,13229 Z M 11372,13930 L 11372,13230 11373,13232 11523,13526 11670,13857 11803,14193 11911,14504 11983,14757 12003,14852 12008,14890 12010,14921 11506,15214 11305,14746 11314,14740 11322,14732 11329,14724 11335,14714 11344,14690 11349,14663 11351,14631 11350,14595 11339,14515 11318,14424 11287,14326 11204,14120 11108,13930 11372,13930 Z M 10695,13253 L 11348,13253 11348,13906 11095,13906 11047,13827 10993,13746 10939,13678 10889,13625 10865,13606 10842,13592 10821,13583 10811,13581 10801,13580 10695,13365 10695,13253 Z"/>
     <path fill="rgb(215,215,215)" stroke="none" d="M 10695,13253 L 10695,13365 10599,13171 10901,12989 10996,12933 11045,12907 11103,12880 11132,12900 11163,12929 11229,13006 11299,13108 11373,13232 11523,13526 11670,13857 11803,14193 11911,14504 11983,14757 12003,14852 12008,14890 12010,14921 11506,15214 11305,14746 11314,14740 11322,14732 11329,14724 11335,14714 11344,14690 11349,14663 11351,14631 11350,14595 11339,14515 11318,14424 11287,14326 11204,14120 11102,13918 11095,13906 11348,13906 11348,13253 10695,13253 Z M 10718,13276 L 11325,13276 11325,13883 11081,13883 11047,13827 10993,13746 10939,13678 10889,13625 10865,13606 10842,13592 10821,13583 10811,13581 10801,13580 10718,13412 10718,13276 Z"/>
     <path fill="rgb(216,216,216)" stroke="none" d="M 10718,13276 L 10718,13412 10599,13171 10901,12989 10996,12933 11045,12907 11103,12880 11132,12900 11163,12929 11229,13006 11299,13108 11373,13232 11523,13526 11670,13857 11803,14193 11911,14504 11983,14757 12003,14852 12008,14890 12010,14921 11506,15214 11305,14746 11314,14740 11322,14732 11329,14724 11335,14714 11344,14690 11349,14663 11351,14631 11350,14595 11339,14515 11318,14424 11287,14326 11204,14120 11102,13918 11081,13883 11325,13883 11325,13276 10718,13276 Z M 10742,13300 L 11301,13300 11301,13859 11066,13859 11047,13827 10993,13746 10939,13678 10889,13625 10865,13606 10842,13592 10821,13583 10811,13581 10801,13580 10742,13461 10742,13300 Z"/>
     <path fill="rgb(217,217,217)" stroke="none" d="M 10742,13300 L 10742,13461 10599,13171 10901,12989 10996,12933 11045,12907 11103,12880 11132,12900 11163,12929 11229,13006 11299,13108 11373,13232 11523,13526 11670,13857 11803,14193 11911,14504 11983,14757 12003,14852 12008,14890 12010,14921 11506,15214 11305,14746 11314,14740 11322,14732 11329,14724 11335,14714 11344,14690 11349,14663 11351,14631 11350,14595 11339,14515 11318,14424 11287,14326 11204,14120 11102,13918 11066,13859 11301,13859 11301,13300 10742,13300 Z M 10765,13323 L 11278,13323 11278,13836 11052,13836 11047,13827 10993,13746 10939,13678 10889,13625 10865,13606 10842,13592 10821,13583 10811,13581 10801,13580 10765,13507 10765,13323 Z"/>
     <path fill="rgb(218,218,218)" stroke="none" d="M 10765,13323 L 10765,13507 10599,13171 10901,12989 10996,12933 11045,12907 11103,12880 11132,12900 11163,12929 11229,13006 11299,13108 11373,13232 11523,13526 11670,13857 11803,14193 11911,14504 11983,14757 12003,14852 12008,14890 12010,14921 11506,15214 11305,14746 11314,14740 11322,14732 11329,14724 11335,14714 11344,14690 11349,14663 11351,14631 11350,14595 11339,14515 11318,14424 11287,14326 11204,14120 11102,13918 11052,13836 11278,13836 11278,13323 10765,13323 Z M 10788,13346 L 11255,13346 11255,13813 11038,13813 10993,13746 10939,13678 10889,13625 10865,13606 10842,13592 10821,13583 10811,13581 10801,13580 10788,13554 10788,13346 Z"/>
     <path fill="rgb(219,219,219)" stroke="none" d="M 10788,13346 L 10788,13554 10599,13171 10901,12989 10996,12933 11045,12907 11103,12880 11132,12900 11163,12929 11229,13006 11299,13108 11373,13232 11523,13526 11670,13857 11803,14193 11911,14504 11983,14757 12003,14852 12008,14890 12010,14921 11506,15214 11305,14746 11314,14740 11322,14732 11329,14724 11335,14714 11344,14690 11349,14663 11351,14631 11350,14595 11339,14515 11318,14424 11287,14326 11204,14120 11102,13918 11047,13827 11038,13813 11255,13813 11255,13346 10788,13346 Z M 10812,13370 L 11231,13370 11231,13789 11022,13789 10993,13746 10939,13678 10889,13625 10865,13606 10842,13592 10821,13583 10812,13581 10812,13370 Z"/>
     <path fill="rgb(220,220,220)" stroke="none" d="M 10812,13370 L 10812,13581 10811,13581 10801,13580 10599,13171 10901,12989 10996,12933 11045,12907 11103,12880 11132,12900 11163,12929 11229,13006 11299,13108 11373,13232 11523,13526 11670,13857 11803,14193 11911,14504 11983,14757 12003,14852 12008,14890 12010,14921 11506,15214 11305,14746 11314,14740 11322,14732 11329,14724 11335,14714 11344,14690 11349,14663 11351,14631 11350,14595 11339,14515 11318,14424 11287,14326 11204,14120 11102,13918 11047,13827 11022,13789 11231,13789 11231,13370 10812,13370 Z M 10835,13393 L 11208,13393 11208,13766 11006,13766 10993,13746 10939,13678 10889,13625 10865,13606 10842,13592 10835,13589 10835,13393 Z"/>
     <path fill="rgb(221,221,221)" stroke="none" d="M 10835,13393 L 10835,13589 10821,13583 10811,13581 10801,13580 10599,13171 10901,12989 10996,12933 11045,12907 11103,12880 11132,12900 11163,12929 11229,13006 11299,13108 11373,13232 11523,13526 11670,13857 11803,14193 11911,14504 11983,14757 12003,14852 12008,14890 12010,14921 11506,15214 11305,14746 11314,14740 11322,14732 11329,14724 11335,14714 11344,14690 11349,14663 11351,14631 11350,14595 11339,14515 11318,14424 11287,14326 11204,14120 11102,13918 11047,13827 11006,13766 11208,13766 11208,13393 10835,13393 Z M 10858,13416 L 11185,13416 11185,13743 10991,13743 10939,13678 10889,13625 10865,13606 10858,13602 10858,13416 Z"/>
     <path fill="rgb(222,222,222)" stroke="none" d="M 10858,13416 L 10858,13602 10842,13592 10821,13583 10811,13581 10801,13580 10599,13171 10901,12989 10996,12933 11045,12907 11103,12880 11132,12900 11163,12929 11229,13006 11299,13108 11373,13232 11523,13526 11670,13857 11803,14193 11911,14504 11983,14757 12003,14852 12008,14890 12010,14921 11506,15214 11305,14746 11314,14740 11322,14732 11329,14724 11335,14714 11344,14690 11349,14663 11351,14631 11350,14595 11339,14515 11318,14424 11287,14326 11204,14120 11102,13918 11047,13827 10993,13746 10991,13743 11185,13743 11185,13416 10858,13416 Z M 10882,13440 L 11161,13440 11161,13719 10972,13719 10939,13678 10889,13625 10882,13619 10882,13440 Z"/>
     <path fill="rgb(223,223,223)" stroke="none" d="M 10882,13440 L 10882,13619 10865,13606 10842,13592 10821,13583 10811,13581 10801,13580 10599,13171 10901,12989 10996,12933 11045,12907 11103,12880 11132,12900 11163,12929 11229,13006 11299,13108 11373,13232 11523,13526 11670,13857 11803,14193 11911,14504 11983,14757 12003,14852 12008,14890 12010,14921 11506,15214 11305,14746 11314,14740 11322,14732 11329,14724 11335,14714 11344,14690 11349,14663 11351,14631 11350,14595 11339,14515 11318,14424 11287,14326 11204,14120 11102,13918 11047,13827 10993,13746 10972,13719 11161,13719 11161,13440 10882,13440 Z M 10905,13463 L 11138,13463 11138,13696 10953,13696 10939,13678 10905,13642 10905,13463 Z"/>
     <path fill="rgb(224,224,224)" stroke="none" d="M 10905,13463 L 10905,13642 10889,13625 10865,13606 10842,13592 10821,13583 10811,13581 10801,13580 10599,13171 10901,12989 10996,12933 11045,12907 11103,12880 11132,12900 11163,12929 11229,13006 11299,13108 11373,13232 11523,13526 11670,13857 11803,14193 11911,14504 11983,14757 12003,14852 12008,14890 12010,14921 11506,15214 11305,14746 11314,14740 11322,14732 11329,14724 11335,14714 11344,14690 11349,14663 11351,14631 11350,14595 11339,14515 11318,14424 11287,14326 11204,14120 11102,13918 11047,13827 10993,13746 10953,13696 11138,13696 11138,13463 10905,13463 Z M 10929,13487 L 11114,13487 11114,13672 10933,13672 10929,13667 10929,13487 Z"/>
     <path fill="rgb(225,225,225)" stroke="none" d="M 10929,13487 L 10929,13667 10889,13625 10865,13606 10842,13592 10821,13583 10811,13581 10801,13580 10599,13171 10901,12989 10996,12933 11045,12907 11103,12880 11132,12900 11163,12929 11229,13006 11299,13108 11373,13232 11523,13526 11670,13857 11803,14193 11911,14504 11983,14757 12003,14852 12008,14890 12010,14921 11506,15214 11305,14746 11314,14740 11322,14732 11329,14724 11335,14714 11344,14690 11349,14663 11351,14631 11350,14595 11339,14515 11318,14424 11287,14326 11204,14120 11102,13918 11047,13827 10993,13746 10939,13678 10933,13672 11114,13672 11114,13487 10929,13487 Z M 10952,13510 L 11091,13510 11091,13649 10952,13649 10952,13510 Z"/>
     <path fill="rgb(226,226,226)" stroke="none" d="M 10952,13510 L 10952,13649 11091,13649 11091,13510 10952,13510 Z M 10975,13533 L 11068,13533 11068,13626 10975,13626 10975,13533 Z M 11103,12880 L 11132,12900 11163,12929 11229,13006 11299,13108 11373,13232 11523,13526 11670,13857 11803,14193 11911,14504 11983,14757 12003,14852 12008,14890 12010,14921 11506,15214 11305,14746 11314,14740 11322,14732 11329,14724 11335,14714 11344,14690 11349,14663 11351,14631 11350,14595 11339,14515 11318,14424 11287,14326 11204,14120 11102,13918 11047,13827 10993,13746 10939,13678 10889,13625 10865,13606 10842,13592 10821,13583 10811,13581 10801,13580 10599,13171 10901,12989 10996,12933 11045,12907 11103,12880 Z"/>
     <path fill="rgb(227,227,227)" stroke="none" d="M 10975,13533 L 10975,13626 11068,13626 11068,13533 10975,13533 Z M 10999,13557 L 11044,13557 11044,13602 10999,13602 10999,13557 Z M 11103,12880 L 11132,12900 11163,12929 11229,13006 11299,13108 11373,13232 11523,13526 11670,13857 11803,14193 11911,14504 11983,14757 12003,14852 12008,14890 12010,14921 11506,15214 11305,14746 11314,14740 11322,14732 11329,14724 11335,14714 11344,14690 11349,14663 11351,14631 11350,14595 11339,14515 11318,14424 11287,14326 11204,14120 11102,13918 11047,13827 10993,13746 10939,13678 10889,13625 10865,13606 10842,13592 10821,13583 10811,13581 10801,13580 10599,13171 10901,12989 10996,12933 11045,12907 11103,12880 Z"/>
     <path fill="rgb(229,229,229)" stroke="none" d="M 10999,13557 L 10999,13602 11044,13602 11044,13557 10999,13557 Z M 11103,12880 L 11132,12900 11163,12929 11229,13006 11299,13108 11373,13232 11523,13526 11670,13857 11803,14193 11911,14504 11983,14757 12003,14852 12008,14890 12010,14921 11506,15214 11305,14746 11314,14740 11322,14732 11329,14724 11335,14714 11344,14690 11349,14663 11351,14631 11350,14595 11339,14515 11318,14424 11287,14326 11204,14120 11102,13918 11047,13827 10993,13746 10939,13678 10889,13625 10865,13606 10842,13592 10821,13583 10811,13581 10801,13580 10599,13171 10901,12989 10996,12933 11045,12907 11103,12880 Z"/>
     <path fill="none" stroke="rgb(127,127,127)" id="Drawing_4_0" stroke-width="40" stroke-linejoin="round" d="M 11103,12880 C 10935,12957 10901,12996 10599,13171 10666,13307 10734,13444 10801,13580 11002,13580 11506,14630 11305,14746 11371,14903 11439,15057 11506,15214 11674,15116 11843,15019 12010,14921 12010,14630 11406,13055 11103,12880 Z"/>
    </g>
    <g>
     <path fill="none" stroke="rgb(229,229,229)" id="Drawing_5_0" stroke-width="40" stroke-linejoin="round" d="M 11507,15096 C 11709,14396 10903,13231 10701,13230"/>
    </g>
   </g>
   <g>
    <path fill="none" stroke="rgb(255,255,255)" id="Drawing_6_0" stroke-width="40" stroke-linejoin="round" d="M 12254,15004 L 11246,12670"/>
   </g>
   <g id="DrawingGroup_3">
    <g>
     <path fill="rgb(179,179,179)" stroke="none" d="M 12996,14328 L 12708,14495 12153,14495 11962,14052 12970,13468 12996,13528 12996,14328 Z"/>
     <path fill="rgb(180,180,180)" stroke="none" d="M 12708,14495 L 12264,14752 12153,14495 12708,14495 Z M 12996,13528 L 13272,14168 12996,14328 12996,13528 Z M 12983,14335 L 12730,14482 12148,14482 11962,14052 12970,13468 12983,13498 12983,14335 Z"/>
     <path fill="rgb(181,181,181)" stroke="none" d="M 12730,14482 L 12264,14752 12148,14482 12730,14482 Z M 12983,13498 L 13272,14168 12983,14335 12983,13498 Z M 12970,14343 L 12752,14469 12142,14469 11962,14052 12970,13468 12970,14343 Z"/>
     <path fill="rgb(182,182,182)" stroke="none" d="M 12752,14469 L 12264,14752 12142,14469 12752,14469 Z M 12970,13468 L 13272,14168 12970,14343 12970,13468 Z M 12957,14351 L 12775,14456 12136,14456 11962,14052 12957,13476 12957,14351 Z"/>
     <path fill="rgb(183,183,183)" stroke="none" d="M 12775,14456 L 12264,14752 12136,14456 12775,14456 Z M 12957,13476 L 12970,13468 13272,14168 12957,14351 12957,13476 Z M 12944,14358 L 12797,14443 12131,14443 11962,14052 12944,13483 12944,14358 Z"/>
     <path fill="rgb(184,184,184)" stroke="none" d="M 12797,14443 L 12264,14752 12131,14443 12797,14443 Z M 12944,13483 L 12970,13468 13272,14168 12944,14358 12944,13483 Z M 12931,14366 L 12820,14430 12125,14430 11962,14052 12931,13491 12931,14366 Z"/>
     <path fill="rgb(185,185,185)" stroke="none" d="M 12820,14430 L 12264,14752 12125,14430 12820,14430 Z M 12931,13491 L 12970,13468 13272,14168 12931,14366 12931,13491 Z M 12918,14373 L 12842,14417 12119,14417 11962,14052 12918,13498 12918,14373 Z"/>
     <path fill="rgb(186,186,186)" stroke="none" d="M 12842,14417 L 12264,14752 12119,14417 12842,14417 Z M 12918,13498 L 12970,13468 13272,14168 12918,14373 12918,13498 Z M 12904,14381 L 12866,14403 12113,14403 11962,14052 12904,13506 12904,14381 Z"/>
     <path fill="rgb(187,187,187)" stroke="none" d="M 12866,14403 L 12264,14752 12113,14403 12866,14403 Z M 12904,13506 L 12970,13468 13272,14168 12904,14381 12904,13506 Z M 12891,14389 L 12889,14390 12108,14390 11962,14052 12891,13514 12891,14389 Z"/>
     <path fill="rgb(188,188,188)" stroke="none" d="M 12889,14390 L 12264,14752 12108,14390 12889,14390 Z M 12891,13514 L 12970,13468 13272,14168 12891,14389 12891,13514 Z M 12878,14377 L 12102,14377 11962,14052 12878,13521 12878,14377 Z"/>
     <path fill="rgb(189,189,189)" stroke="none" d="M 12878,14377 L 12878,13521 12970,13468 13272,14168 12264,14752 12102,14377 12878,14377 Z M 12865,14364 L 12097,14364 11962,14052 12865,13529 12865,14364 Z"/>
     <path fill="rgb(190,190,190)" stroke="none" d="M 12865,14364 L 12865,13529 12970,13468 13272,14168 12264,14752 12097,14364 12865,14364 Z M 12852,14351 L 12091,14351 11962,14052 12852,13536 12852,14351 Z"/>
     <path fill="rgb(191,191,191)" stroke="none" d="M 12852,14351 L 12852,13536 12970,13468 13272,14168 12264,14752 12091,14351 12852,14351 Z M 12839,14338 L 12085,14338 11962,14052 12839,13544 12839,14338 Z"/>
     <path fill="rgb(192,192,192)" stroke="none" d="M 12839,14338 L 12839,13544 12970,13468 13272,14168 12264,14752 12085,14338 12839,14338 Z M 12826,14325 L 12080,14325 11962,14052 12826,13551 12826,14325 Z"/>
     <path fill="rgb(193,193,193)" stroke="none" d="M 12826,14325 L 12826,13551 12970,13468 13272,14168 12264,14752 12080,14325 12826,14325 Z M 12813,14312 L 12074,14312 11962,14052 12813,13559 12813,14312 Z"/>
     <path fill="rgb(194,194,194)" stroke="none" d="M 12813,14312 L 12813,13559 12970,13468 13272,14168 12264,14752 12074,14312 12813,14312 Z M 12799,14298 L 12068,14298 11962,14052 12799,13567 12799,14298 Z"/>
     <path fill="rgb(195,195,195)" stroke="none" d="M 12799,14298 L 12799,13567 12970,13468 13272,14168 12264,14752 12068,14298 12799,14298 Z M 12786,14285 L 12063,14285 11962,14052 12786,13575 12786,14285 Z"/>
     <path fill="rgb(196,196,196)" stroke="none" d="M 12786,14285 L 12786,13575 12970,13468 13272,14168 12264,14752 12063,14285 12786,14285 Z M 12773,14272 L 12057,14272 11962,14052 12773,13582 12773,14272 Z"/>
     <path fill="rgb(197,197,197)" stroke="none" d="M 12773,14272 L 12773,13582 12970,13468 13272,14168 12264,14752 12057,14272 12773,14272 Z M 12760,14259 L 12051,14259 11962,14052 12760,13590 12760,14259 Z"/>
     <path fill="rgb(198,198,198)" stroke="none" d="M 12760,14259 L 12760,13590 12970,13468 13272,14168 12264,14752 12051,14259 12760,14259 Z M 12747,14246 L 12046,14246 11962,14052 12747,13597 12747,14246 Z"/>
     <path fill="rgb(199,199,199)" stroke="none" d="M 12747,14246 L 12747,13597 12970,13468 13272,14168 12264,14752 12046,14246 12747,14246 Z M 12734,14233 L 12040,14233 11973,14077 11973,14046 12734,13605 12734,14233 Z"/>
     <path fill="rgb(200,200,200)" stroke="none" d="M 11973,14077 L 11962,14052 11973,14046 11973,14077 Z M 12734,14233 L 12734,13605 12970,13468 13272,14168 12264,14752 12040,14233 12734,14233 Z M 12721,14220 L 12034,14220 11986,14108 11986,14038 12721,13612 12721,14220 Z"/>
     <path fill="rgb(201,201,201)" stroke="none" d="M 11986,14108 L 11962,14052 11986,14038 11986,14108 Z M 12721,14220 L 12721,13612 12970,13468 13272,14168 12264,14752 12034,14220 12721,14220 Z M 12708,14207 L 12029,14207 11999,14138 11999,14031 12708,13620 12708,14207 Z"/>
     <path fill="rgb(202,202,202)" stroke="none" d="M 11999,14138 L 11962,14052 11999,14031 11999,14138 Z M 12708,14207 L 12708,13620 12970,13468 13272,14168 12264,14752 12029,14207 12708,14207 Z M 12694,14193 L 12023,14193 12013,14170 12013,14022 12694,13628 12694,14193 Z"/>
     <path fill="rgb(203,203,203)" stroke="none" d="M 12013,14170 L 11962,14052 12013,14022 12013,14170 Z M 12694,14193 L 12694,13628 12970,13468 13272,14168 12264,14752 12023,14193 12694,14193 Z M 12681,14180 L 12026,14180 12026,14015 12681,13635 12681,14180 Z"/>
     <path fill="rgb(204,204,204)" stroke="none" d="M 12026,14180 L 12681,14180 12681,13635 12970,13468 13272,14168 12264,14752 11962,14052 12026,14015 12026,14180 Z M 12668,14167 L 12039,14167 12039,14007 12668,13643 12668,14167 Z"/>
     <path fill="rgb(205,205,205)" stroke="none" d="M 12039,14167 L 12668,14167 12668,13643 12970,13468 13272,14168 12264,14752 11962,14052 12039,14007 12039,14167 Z M 12655,14154 L 12052,14154 12052,14000 12655,13651 12655,14154 Z"/>
     <path fill="rgb(206,206,206)" stroke="none" d="M 12052,14154 L 12655,14154 12655,13651 12970,13468 13272,14168 12264,14752 11962,14052 12052,14000 12052,14154 Z M 12642,14141 L 12065,14141 12065,13992 12642,13658 12642,14141 Z"/>
     <path fill="rgb(207,207,207)" stroke="none" d="M 12065,14141 L 12642,14141 12642,13658 12970,13468 13272,14168 12264,14752 11962,14052 12065,13992 12065,14141 Z M 12629,14128 L 12078,14128 12078,13985 12629,13666 12629,14128 Z"/>
     <path fill="rgb(208,208,208)" stroke="none" d="M 12078,14128 L 12629,14128 12629,13666 12970,13468 13272,14168 12264,14752 11962,14052 12078,13985 12078,14128 Z M 12616,14115 L 12091,14115 12091,13977 12616,13673 12616,14115 Z"/>
     <path fill="rgb(209,209,209)" stroke="none" d="M 12091,14115 L 12616,14115 12616,13673 12970,13468 13272,14168 12264,14752 11962,14052 12091,13977 12091,14115 Z M 12602,14101 L 12105,14101 12105,13969 12602,13681 12602,14101 Z"/>
     <path fill="rgb(210,210,210)" stroke="none" d="M 12105,14101 L 12602,14101 12602,13681 12970,13468 13272,14168 12264,14752 11962,14052 12105,13969 12105,14101 Z M 12589,14088 L 12118,14088 12118,13962 12589,13689 12589,14088 Z"/>
     <path fill="rgb(211,211,211)" stroke="none" d="M 12118,14088 L 12589,14088 12589,13689 12970,13468 13272,14168 12264,14752 11962,14052 12118,13962 12118,14088 Z M 12576,14075 L 12131,14075 12131,13954 12576,13696 12576,14075 Z"/>
     <path fill="rgb(212,212,212)" stroke="none" d="M 12131,14075 L 12576,14075 12576,13696 12970,13468 13272,14168 12264,14752 11962,14052 12131,13954 12131,14075 Z M 12563,14062 L 12144,14062 12144,13947 12563,13704 12563,14062 Z"/>
     <path fill="rgb(213,213,213)" stroke="none" d="M 12144,14062 L 12563,14062 12563,13704 12970,13468 13272,14168 12264,14752 11962,14052 12144,13947 12144,14062 Z M 12550,14049 L 12157,14049 12157,13939 12550,13711 12550,14049 Z"/>
     <path fill="rgb(214,214,214)" stroke="none" d="M 12157,14049 L 12550,14049 12550,13711 12970,13468 13272,14168 12264,14752 11962,14052 12157,13939 12157,14049 Z M 12537,14036 L 12170,14036 12170,13931 12537,13719 12537,14036 Z"/>
     <path fill="rgb(215,215,215)" stroke="none" d="M 12170,14036 L 12537,14036 12537,13719 12970,13468 13272,14168 12264,14752 11962,14052 12170,13931 12170,14036 Z M 12524,14023 L 12183,14023 12183,13924 12524,13726 12524,14023 Z"/>
     <path fill="rgb(216,216,216)" stroke="none" d="M 12183,14023 L 12524,14023 12524,13726 12970,13468 13272,14168 12264,14752 11962,14052 12183,13924 12183,14023 Z M 12511,14010 L 12196,14010 12196,13916 12511,13734 12511,14010 Z"/>
     <path fill="rgb(217,217,217)" stroke="none" d="M 12196,14010 L 12511,14010 12511,13734 12970,13468 13272,14168 12264,14752 11962,14052 12196,13916 12196,14010 Z M 12497,13996 L 12210,13996 12210,13908 12497,13742 12497,13996 Z"/>
     <path fill="rgb(218,218,218)" stroke="none" d="M 12210,13996 L 12497,13996 12497,13742 12970,13468 13272,14168 12264,14752 11962,14052 12210,13908 12210,13996 Z M 12484,13983 L 12223,13983 12223,13901 12484,13750 12484,13983 Z"/>
     <path fill="rgb(219,219,219)" stroke="none" d="M 12223,13983 L 12484,13983 12484,13750 12970,13468 13272,14168 12264,14752 11962,14052 12223,13901 12223,13983 Z M 12471,13970 L 12236,13970 12236,13893 12471,13757 12471,13970 Z"/>
     <path fill="rgb(220,220,220)" stroke="none" d="M 12236,13970 L 12471,13970 12471,13757 12970,13468 13272,14168 12264,14752 11962,14052 12236,13893 12236,13970 Z M 12458,13957 L 12249,13957 12249,13886 12458,13765 12458,13957 Z"/>
     <path fill="rgb(221,221,221)" stroke="none" d="M 12249,13957 L 12458,13957 12458,13765 12970,13468 13272,14168 12264,14752 11962,14052 12249,13886 12249,13957 Z M 12445,13944 L 12262,13944 12262,13878 12445,13772 12445,13944 Z"/>
     <path fill="rgb(222,222,222)" stroke="none" d="M 12262,13944 L 12445,13944 12445,13772 12970,13468 13272,14168 12264,14752 11962,14052 12262,13878 12262,13944 Z M 12432,13931 L 12275,13931 12275,13871 12432,13780 12432,13931 Z"/>
     <path fill="rgb(223,223,223)" stroke="none" d="M 12275,13931 L 12432,13931 12432,13780 12970,13468 13272,14168 12264,14752 11962,14052 12275,13871 12275,13931 Z M 12419,13918 L 12288,13918 12288,13863 12419,13787 12419,13918 Z"/>
     <path fill="rgb(224,224,224)" stroke="none" d="M 12288,13918 L 12419,13918 12419,13787 12970,13468 13272,14168 12264,14752 11962,14052 12288,13863 12288,13918 Z M 12406,13800 L 12406,13905 12301,13905 12301,13856 12397,13800 12406,13800 Z"/>
     <path fill="rgb(225,225,225)" stroke="none" d="M 12301,13905 L 12406,13905 12406,13800 12397,13800 12970,13468 13272,14168 12264,14752 11962,14052 12301,13856 12301,13905 Z M 12392,13814 L 12392,13891 12315,13891 12315,13847 12373,13814 12392,13814 Z"/>
     <path fill="rgb(226,226,226)" stroke="none" d="M 12315,13891 L 12392,13891 12392,13814 12373,13814 12970,13468 13272,14168 12264,14752 11962,14052 12315,13847 12315,13891 Z M 12379,13827 L 12379,13878 12328,13878 12328,13840 12350,13827 12379,13827 Z"/>
     <path fill="rgb(227,227,227)" stroke="none" d="M 12328,13878 L 12379,13878 12379,13827 12350,13827 12970,13468 13272,14168 12264,14752 11962,14052 12328,13840 12328,13878 Z M 12341,13840 L 12366,13840 12366,13865 12341,13865 12341,13840 Z"/>
     <path fill="rgb(229,229,229)" stroke="none" d="M 12341,13840 L 12341,13865 12366,13865 12366,13840 12341,13840 Z M 13272,14168 L 12264,14752 11962,14052 12970,13468 13272,14168 Z"/>
     <path fill="none" stroke="rgb(127,127,127)" id="Drawing_7_0" stroke-width="40" stroke-linejoin="round" d="M 13272,14168 L 12970,13468 11962,14052 12264,14752 13272,14168 Z"/>
    </g>
    <g>
     <path fill="none" stroke="rgb(127,127,127)" id="Drawing_8_0" stroke-width="40" stroke-linejoin="round" d="M 13170,13934 L 12162,14518"/>
    </g>
    <g>
     <path fill="none" stroke="rgb(127,127,127)" id="Drawing_9_0" stroke-width="40" stroke-linejoin="round" d="M 12062,14286 L 13070,13702"/>
    </g>
    <g>
     <path fill="none" stroke="rgb(127,127,127)" id="Drawing_10_0" stroke-width="40" stroke-linejoin="round" d="M 12768,13584 L 13070,14284"/>
    </g>
    <g>
     <path fill="none" stroke="rgb(127,127,127)" id="Drawing_11_0" stroke-width="40" stroke-linejoin="round" d="M 12566,13702 L 12868,14402"/>
    </g>
    <g>
     <path fill="none" stroke="rgb(127,127,127)" id="Drawing_12_0" stroke-width="40" stroke-linejoin="round" d="M 12364,13818 L 12666,14518"/>
    </g>
    <g>
     <path fill="none" stroke="rgb(127,127,127)" id="Drawing_13_0" stroke-width="40" stroke-linejoin="round" d="M 12163,13934 L 12465,14634"/>
    </g>
   </g>
   <g id="DrawingGroup_4">
    <g>
     <defs>
      <linearGradient id="Gradient_160" gradientUnits="userSpaceOnUse" x1="11652" y1="12856" x2="12460" y2="12858">
       <stop offset="0.1" stop-color="rgb(147,212,240)"/>
       <stop offset="1" stop-color="rgb(233,246,252)"/>
      </linearGradient>
     </defs>
     <path fill="url(#Gradient_160)" stroke="rgb(127,127,127)" id="Drawing_14_0" stroke-width="40" stroke-linejoin="round" d="M 12459,12915 L 12257,12449 11653,12799 11855,13265 12459,12915 Z"/>
    </g>
    <g>
     <path fill="rgb(255,255,255)" stroke="none" d="M 12459,13558 L 12358,13324 12257,13383 12358,13615 12459,13558 Z"/>
     <path fill="none" stroke="rgb(127,127,127)" id="Drawing_15_0" stroke-width="40" stroke-linejoin="round" d="M 12459,13558 L 12358,13324 12257,13383 12358,13615 12459,13558 Z"/>
    </g>
    <g>
     <path fill="none" stroke="rgb(127,127,127)" id="Drawing_16_0" stroke-width="40" stroke-linejoin="round" d="M 11594,12858 L 11494,12917"/>
    </g>
    <g>
     <path fill="none" stroke="rgb(127,127,127)" id="Drawing_17_0" stroke-width="40" stroke-linejoin="round" d="M 11651,12974 L 11551,13033"/>
    </g>
    <g>
     <path fill="none" stroke="rgb(127,127,127)" id="Drawing_18_0" stroke-width="40" stroke-linejoin="round" d="M 11694,13090 L 11594,13149"/>
    </g>
    <g>
     <path fill="none" stroke="rgb(127,127,127)" id="Drawing_19_0" stroke-width="40" stroke-linejoin="round" d="M 11753,13208 L 11653,13267"/>
    </g>
    <g>
     <path fill="none" stroke="rgb(127,127,127)" id="Drawing_20_0" stroke-width="40" stroke-linejoin="round" d="M 12458,12390 L 12358,12449"/>
    </g>
    <g>
     <path fill="none" stroke="rgb(127,127,127)" id="Drawing_21_0" stroke-width="40" stroke-linejoin="round" d="M 12516,12508 L 12416,12567"/>
    </g>
    <g>
     <path fill="none" stroke="rgb(127,127,127)" id="Drawing_22_0" stroke-width="40" stroke-linejoin="round" d="M 12559,12624 L 12459,12683"/>
    </g>
    <g>
     <path fill="none" stroke="rgb(127,127,127)" id="Drawing_23_0" stroke-width="40" stroke-linejoin="round" d="M 12617,12740 L 12517,12799"/>
    </g>
    <g>
     <path fill="none" stroke="rgb(127,127,127)" id="Drawing_24_0" stroke-width="40" stroke-linejoin="round" d="M 12559,12974 L 12459,13033"/>
    </g>
    <g>
     <path fill="none" stroke="rgb(127,127,127)" id="Drawing_25_0" stroke-width="40" stroke-linejoin="round" d="M 12357,13090 L 12257,13149"/>
    </g>
    <g>
     <path fill="none" stroke="rgb(127,127,127)" id="Drawing_26_0" stroke-width="40" stroke-linejoin="round" d="M 12155,13208 L 12055,13267"/>
    </g>
    <g>
     <path fill="none" stroke="rgb(127,127,127)" id="Drawing_27_0" stroke-width="40" stroke-linejoin="round" d="M 11953,13324 L 11853,13383"/>
    </g>
   </g>
   <g>
    <path fill="none" stroke="rgb(0,0,0)" id="Drawing_28_0" stroke-width="40" stroke-linejoin="round" d="M 13456,14304 L 12448,11970 10433,13136 10433,13486 10533,13720 10533,14829 11138,15179 11239,15354 11441,15470 13456,14304 Z"/>
   </g>
  </g>
 </g>
</svg>