<?xml version="1.0" encoding="UTF-8"?>

<svg version="1.2" baseProfile="tiny" width="33.9mm" height="35.4mm" viewBox="1858 2879 3390 3540" preserveAspectRatio="xMidYMid" fill-rule="evenodd" stroke-width="28.222" stroke-linejoin="round" xmlns="http://www.w3.org/2000/svg" xmlns:xlink="http://www.w3.org/1999/xlink" xml:space="preserve">
 <g visibility="visible" id="Slide_1">
  <g id="DrawingGroup_1">
   <g>
    <path fill="rgb(221,221,221)" stroke="none" d="M 3894,6399 C 4171,6399 5103,6224 5204,5931 5305,5640 5078,5465 4801,5465 4801,5640 3789,5815 3894,6399 Z"/>
    <path fill="none" stroke="rgb(221,221,221)" id="Drawing_1_0" stroke-width="40" stroke-linejoin="round" d="M 3894,6399 C 4171,6399 5103,6224 5204,5931 5305,5640 5078,5465 4801,5465 4801,5640 3789,5815 3894,6399 Z"/>
   </g>
   <g id="DrawingGroup_2">
    <g>
     <path fill="rgb(179,179,179)" stroke="none" d="M 4164,5832 L 4801,4358 4801,5758 4673,5832 4164,5832 Z"/>
     <path fill="rgb(180,180,180)" stroke="none" d="M 4673,5832 L 3995,6224 4164,5832 4673,5832 Z M 4173,5813 L 4801,4358 4801,5758 4706,5813 4173,5813 Z"/>
     <path fill="rgb(181,181,181)" stroke="none" d="M 4706,5813 L 3995,6224 4173,5813 4706,5813 Z M 4181,5794 L 4801,4358 4801,5758 4739,5794 4181,5794 Z"/>
     <path fill="rgb(182,182,182)" stroke="none" d="M 4739,5794 L 3995,6224 4181,5794 4739,5794 Z M 4189,5776 L 4801,4358 4801,5758 4770,5776 4189,5776 Z"/>
     <path fill="rgb(183,183,183)" stroke="none" d="M 4770,5776 L 3995,6224 4189,5776 4770,5776 Z M 4197,5757 L 4801,4358 4801,5757 4197,5757 Z"/>
     <path fill="rgb(184,184,184)" stroke="none" d="M 4801,5757 L 4801,5758 3995,6224 4197,5757 4801,5757 Z M 4205,5738 L 4801,4358 4801,5738 4205,5738 Z"/>
     <path fill="rgb(185,185,185)" stroke="none" d="M 4801,5738 L 4801,5758 3995,6224 4205,5738 4801,5738 Z M 4213,5720 L 4801,4358 4801,5720 4213,5720 Z"/>
     <path fill="rgb(186,186,186)" stroke="none" d="M 4801,5720 L 4801,5758 3995,6224 4213,5720 4801,5720 Z M 4221,5701 L 4801,4358 4801,5701 4221,5701 Z"/>
     <path fill="rgb(187,187,187)" stroke="none" d="M 4801,5701 L 4801,5758 3995,6224 4221,5701 4801,5701 Z M 4229,5682 L 4801,4358 4801,5682 4229,5682 Z"/>
     <path fill="rgb(188,188,188)" stroke="none" d="M 4801,5682 L 4801,5758 3995,6224 4229,5682 4801,5682 Z M 4237,5664 L 4801,4358 4801,5664 4237,5664 Z"/>
     <path fill="rgb(189,189,189)" stroke="none" d="M 4801,5664 L 4801,5758 3995,6224 4237,5664 4801,5664 Z M 4245,5645 L 4801,4358 4801,5645 4245,5645 Z"/>
     <path fill="rgb(190,190,190)" stroke="none" d="M 4801,5645 L 4801,5758 3995,6224 4245,5645 4801,5645 Z M 4253,5626 L 4801,4358 4801,5626 4253,5626 Z"/>
     <path fill="rgb(191,191,191)" stroke="none" d="M 4801,5626 L 4801,5758 3995,6224 4253,5626 4801,5626 Z M 4261,5608 L 4801,4358 4801,5608 4261,5608 Z"/>
     <path fill="rgb(192,192,192)" stroke="none" d="M 4801,5608 L 4801,5758 3995,6224 4261,5608 4801,5608 Z M 4269,5589 L 4801,4358 4801,5589 4269,5589 Z"/>
     <path fill="rgb(193,193,193)" stroke="none" d="M 4801,5589 L 4801,5758 3995,6224 4269,5589 4801,5589 Z M 4277,5570 L 4801,4358 4801,5570 4277,5570 Z"/>
     <path fill="rgb(194,194,194)" stroke="none" d="M 4801,5570 L 4801,5758 3995,6224 4277,5570 4801,5570 Z M 4286,5551 L 4801,4358 4801,5551 4286,5551 Z"/>
     <path fill="rgb(195,195,195)" stroke="none" d="M 4801,5551 L 4801,5758 3995,6224 4286,5551 4801,5551 Z M 4293,5533 L 4801,4358 4801,5533 4293,5533 Z"/>
     <path fill="rgb(196,196,196)" stroke="none" d="M 4801,5533 L 4801,5758 3995,6224 4293,5533 4801,5533 Z M 4302,5514 L 4801,4358 4801,5514 4302,5514 Z"/>
     <path fill="rgb(197,197,197)" stroke="none" d="M 4801,5514 L 4801,5758 3995,6224 4302,5514 4801,5514 Z M 4310,5495 L 4801,4358 4801,5495 4310,5495 Z"/>
     <path fill="rgb(198,198,198)" stroke="none" d="M 4801,5495 L 4801,5758 3995,6224 4310,5495 4801,5495 Z M 4796,5477 L 4318,5477 4796,4370 4796,5477 Z"/>
     <path fill="rgb(199,199,199)" stroke="none" d="M 4796,5477 L 4796,4370 4801,4358 4801,5758 3995,6224 4318,5477 4796,5477 Z M 4777,5458 L 4326,5458 4777,4414 4777,5458 Z"/>
     <path fill="rgb(200,200,200)" stroke="none" d="M 4777,5458 L 4777,4414 4801,4358 4801,5758 3995,6224 4326,5458 4777,5458 Z M 4758,5439 L 4334,5439 4758,4458 4758,5439 Z"/>
     <path fill="rgb(201,201,201)" stroke="none" d="M 4758,5439 L 4758,4458 4801,4358 4801,5758 3995,6224 4334,5439 4758,5439 Z M 4740,5421 L 4342,5421 4740,4499 4740,5421 Z"/>
     <path fill="rgb(202,202,202)" stroke="none" d="M 4740,5421 L 4740,4499 4801,4358 4801,5758 3995,6224 4342,5421 4740,5421 Z M 4721,5402 L 4350,5402 4721,4543 4721,5402 Z"/>
     <path fill="rgb(203,203,203)" stroke="none" d="M 4721,5402 L 4721,4543 4801,4358 4801,5758 3995,6224 4350,5402 4721,5402 Z M 4702,5383 L 4358,5383 4702,4587 4702,5383 Z"/>
     <path fill="rgb(204,204,204)" stroke="none" d="M 4702,5383 L 4702,4587 4801,4358 4801,5758 3995,6224 4358,5383 4702,5383 Z M 4684,5365 L 4366,5365 4684,4629 4684,5365 Z"/>
     <path fill="rgb(205,205,205)" stroke="none" d="M 4684,5365 L 4684,4629 4801,4358 4801,5758 3995,6224 4366,5365 4684,5365 Z M 4665,5346 L 4374,5346 4665,4673 4665,5346 Z"/>
     <path fill="rgb(206,206,206)" stroke="none" d="M 4665,5346 L 4665,4673 4801,4358 4801,5758 3995,6224 4374,5346 4665,5346 Z M 4646,5327 L 4382,5327 4646,4717 4646,5327 Z"/>
     <path fill="rgb(207,207,207)" stroke="none" d="M 4646,5327 L 4646,4717 4801,4358 4801,5758 3995,6224 4382,5327 4646,5327 Z M 4627,5308 L 4391,5308 4627,4761 4627,5308 Z"/>
     <path fill="rgb(208,208,208)" stroke="none" d="M 4627,5308 L 4627,4761 4801,4358 4801,5758 3995,6224 4391,5308 4627,5308 Z M 4609,5290 L 4398,5290 4609,4803 4609,5290 Z"/>
     <path fill="rgb(209,209,209)" stroke="none" d="M 4609,5290 L 4609,4803 4801,4358 4801,5758 3995,6224 4398,5290 4609,5290 Z M 4590,5271 L 4407,5271 4590,4846 4590,5271 Z"/>
     <path fill="rgb(210,210,210)" stroke="none" d="M 4590,5271 L 4590,4846 4801,4358 4801,5758 3995,6224 4407,5271 4590,5271 Z M 4571,5252 L 4415,5252 4571,4890 4571,5252 Z"/>
     <path fill="rgb(211,211,211)" stroke="none" d="M 4571,5252 L 4571,4890 4801,4358 4801,5758 3995,6224 4415,5252 4571,5252 Z M 4553,5234 L 4423,5234 4553,4932 4553,5234 Z"/>
     <path fill="rgb(212,212,212)" stroke="none" d="M 4553,5234 L 4553,4932 4801,4358 4801,5758 3995,6224 4423,5234 4553,5234 Z M 4534,5215 L 4431,5215 4534,4976 4534,5215 Z"/>
     <path fill="rgb(213,213,213)" stroke="none" d="M 4534,5215 L 4534,4976 4801,4358 4801,5758 3995,6224 4431,5215 4534,5215 Z M 4515,5196 L 4439,5196 4515,5020 4515,5196 Z"/>
     <path fill="rgb(214,214,214)" stroke="none" d="M 4515,5196 L 4515,5020 4801,4358 4801,5758 3995,6224 4439,5196 4515,5196 Z M 4497,5178 L 4447,5178 4497,5062 4497,5178 Z"/>
     <path fill="rgb(215,215,215)" stroke="none" d="M 4497,5178 L 4497,5062 4801,4358 4801,5758 3995,6224 4447,5178 4497,5178 Z M 4478,5159 L 4455,5159 4478,5106 4478,5159 Z"/>
     <path fill="rgb(216,216,216)" stroke="none" d="M 4478,5159 L 4478,5106 4801,4358 4801,5758 3995,6224 4455,5159 4478,5159 Z"/>
     <path fill="rgb(217,217,217)" stroke="none" d="M 4801,4358 L 4801,5758 3995,6224 4801,4358 Z"/>
     <path fill="rgb(218,218,218)" stroke="none" d="M 4801,4358 L 4801,5758 3995,6224 4801,4358 Z"/>
     <path fill="rgb(219,219,219)" stroke="none" d="M 4801,4358 L 4801,5758 3995,6224 4801,4358 Z"/>
     <path fill="rgb(220,220,220)" stroke="none" d="M 4801,4358 L 4801,5758 3995,6224 4801,4358 Z"/>
     <path fill="rgb(221,221,221)" stroke="none" d="M 4801,4358 L 4801,5758 3995,6224 4801,4358 Z"/>
     <path fill="rgb(222,222,222)" stroke="none" d="M 4801,4358 L 4801,5758 3995,6224 4801,4358 Z"/>
     <path fill="rgb(223,223,223)" stroke="none" d="M 4801,4358 L 4801,5758 3995,6224 4801,4358 Z"/>
     <path fill="rgb(224,224,224)" stroke="none" d="M 4801,4358 L 4801,5758 3995,6224 4801,4358 Z"/>
     <path fill="rgb(225,225,225)" stroke="none" d="M 4801,4358 L 4801,5758 3995,6224 4801,4358 Z"/>
     <path fill="rgb(226,226,226)" stroke="none" d="M 4801,4358 L 4801,5758 3995,6224 4801,4358 Z"/>
     <path fill="rgb(227,227,227)" stroke="none" d="M 4801,4358 L 4801,5758 3995,6224 4801,4358 Z"/>
     <path fill="rgb(229,229,229)" stroke="none" d="M 4801,4358 L 4801,5758 3995,6224 4801,4358 Z"/>
     <path fill="none" stroke="rgb(128,128,128)" id="Drawing_2_0" stroke-width="40" stroke-linejoin="round" d="M 4801,4358 L 4801,5758 3995,6224 4801,4358 Z"/>
    </g>
    <g>
     <path fill="rgb(179,179,179)" stroke="none" d="M 4105,5909 L 4901,4065 4901,4415 4256,5909 4105,5909 Z"/>
     <path fill="rgb(180,180,180)" stroke="none" d="M 4256,5909 L 4095,6281 3893,6399 4105,5909 4256,5909 Z M 4115,5886 L 4901,4065 4901,4415 4266,5886 4115,5886 Z"/>
     <path fill="rgb(181,181,181)" stroke="none" d="M 4266,5886 L 4095,6281 3893,6399 4115,5886 4266,5886 Z M 4125,5862 L 4901,4065 4901,4415 4276,5862 4125,5862 Z"/>
     <path fill="rgb(182,182,182)" stroke="none" d="M 4276,5862 L 4095,6281 3893,6399 4125,5862 4276,5862 Z M 4135,5839 L 4901,4065 4901,4415 4286,5839 4135,5839 Z"/>
     <path fill="rgb(183,183,183)" stroke="none" d="M 4286,5839 L 4095,6281 3893,6399 4135,5839 4286,5839 Z M 4145,5816 L 4901,4065 4901,4415 4296,5816 4145,5816 Z"/>
     <path fill="rgb(184,184,184)" stroke="none" d="M 4296,5816 L 4095,6281 3893,6399 4145,5816 4296,5816 Z M 4155,5792 L 4901,4065 4901,4415 4306,5792 4155,5792 Z"/>
     <path fill="rgb(185,185,185)" stroke="none" d="M 4306,5792 L 4095,6281 3893,6399 4155,5792 4306,5792 Z M 4165,5769 L 4901,4065 4901,4415 4316,5769 4165,5769 Z"/>
     <path fill="rgb(186,186,186)" stroke="none" d="M 4316,5769 L 4095,6281 3893,6399 4165,5769 4316,5769 Z M 4175,5746 L 4901,4065 4901,4415 4326,5746 4175,5746 Z"/>
     <path fill="rgb(187,187,187)" stroke="none" d="M 4326,5746 L 4095,6281 3893,6399 4175,5746 4326,5746 Z M 4185,5722 L 4901,4065 4901,4415 4336,5722 4185,5722 Z"/>
     <path fill="rgb(188,188,188)" stroke="none" d="M 4336,5722 L 4095,6281 3893,6399 4185,5722 4336,5722 Z M 4195,5699 L 4901,4065 4901,4415 4346,5699 4195,5699 Z"/>
     <path fill="rgb(189,189,189)" stroke="none" d="M 4346,5699 L 4095,6281 3893,6399 4195,5699 4346,5699 Z M 4206,5675 L 4901,4065 4901,4415 4357,5675 4206,5675 Z"/>
     <path fill="rgb(190,190,190)" stroke="none" d="M 4357,5675 L 4095,6281 3893,6399 4206,5675 4357,5675 Z M 4216,5652 L 4901,4065 4901,4415 4367,5652 4216,5652 Z"/>
     <path fill="rgb(191,191,191)" stroke="none" d="M 4367,5652 L 4095,6281 3893,6399 4216,5652 4367,5652 Z M 4226,5629 L 4901,4065 4901,4415 4377,5629 4226,5629 Z"/>
     <path fill="rgb(192,192,192)" stroke="none" d="M 4377,5629 L 4095,6281 3893,6399 4226,5629 4377,5629 Z M 4236,5605 L 4901,4065 4901,4415 4387,5605 4236,5605 Z"/>
     <path fill="rgb(193,193,193)" stroke="none" d="M 4387,5605 L 4095,6281 3893,6399 4236,5605 4387,5605 Z M 4246,5582 L 4901,4065 4901,4415 4397,5582 4246,5582 Z"/>
     <path fill="rgb(194,194,194)" stroke="none" d="M 4397,5582 L 4095,6281 3893,6399 4246,5582 4397,5582 Z M 4256,5559 L 4901,4065 4901,4415 4407,5559 4256,5559 Z"/>
     <path fill="rgb(195,195,195)" stroke="none" d="M 4407,5559 L 4095,6281 3893,6399 4256,5559 4407,5559 Z M 4266,5535 L 4901,4065 4901,4415 4417,5535 4266,5535 Z"/>
     <path fill="rgb(196,196,196)" stroke="none" d="M 4417,5535 L 4095,6281 3893,6399 4266,5535 4417,5535 Z M 4276,5512 L 4901,4065 4901,4415 4427,5512 4276,5512 Z"/>
     <path fill="rgb(197,197,197)" stroke="none" d="M 4427,5512 L 4095,6281 3893,6399 4276,5512 4427,5512 Z M 4286,5488 L 4901,4065 4901,4415 4438,5488 4286,5488 Z"/>
     <path fill="rgb(198,198,198)" stroke="none" d="M 4438,5488 L 4095,6281 3893,6399 4286,5488 4438,5488 Z"/>
     <path fill="rgb(199,199,199)" stroke="none" d="M 4447,5465 L 4095,6281 3893,6399 4296,5465 4447,5465 Z M 4895,4079 L 4901,4065 4901,4415 4895,4429 4895,4079 Z M 4872,4482 L 4457,5442 4306,5442 4872,4132 4872,4482 Z"/>
     <path fill="rgb(200,200,200)" stroke="none" d="M 4457,5442 L 4095,6281 3893,6399 4306,5442 4457,5442 Z M 4872,4132 L 4901,4065 4901,4415 4872,4482 4872,4132 Z M 4848,4538 L 4468,5418 4317,5418 4848,4188 4848,4538 Z"/>
     <path fill="rgb(201,201,201)" stroke="none" d="M 4468,5418 L 4095,6281 3893,6399 4317,5418 4468,5418 Z M 4848,4188 L 4901,4065 4901,4415 4848,4538 4848,4188 Z M 4825,4591 L 4478,5395 4327,5395 4825,4241 4825,4591 Z"/>
     <path fill="rgb(202,202,202)" stroke="none" d="M 4478,5395 L 4095,6281 3893,6399 4327,5395 4478,5395 Z M 4825,4241 L 4901,4065 4901,4415 4825,4591 4825,4241 Z M 4802,4644 L 4488,5372 4337,5372 4802,4294 4802,4644 Z"/>
     <path fill="rgb(203,203,203)" stroke="none" d="M 4488,5372 L 4095,6281 3893,6399 4337,5372 4488,5372 Z M 4802,4294 L 4901,4065 4901,4415 4802,4644 4802,4294 Z M 4778,4700 L 4498,5348 4347,5348 4778,4350 4778,4700 Z"/>
     <path fill="rgb(204,204,204)" stroke="none" d="M 4498,5348 L 4095,6281 3893,6399 4347,5348 4498,5348 Z M 4778,4350 L 4901,4065 4901,4415 4778,4700 4778,4350 Z M 4755,4753 L 4508,5325 4357,5325 4755,4403 4755,4753 Z"/>
     <path fill="rgb(205,205,205)" stroke="none" d="M 4508,5325 L 4095,6281 3893,6399 4357,5325 4508,5325 Z M 4755,4403 L 4901,4065 4901,4415 4755,4753 4755,4403 Z M 4732,4806 L 4518,5302 4367,5302 4732,4456 4732,4806 Z"/>
     <path fill="rgb(206,206,206)" stroke="none" d="M 4518,5302 L 4095,6281 3893,6399 4367,5302 4518,5302 Z M 4732,4456 L 4901,4065 4901,4415 4732,4806 4732,4456 Z M 4708,4862 L 4528,5278 4377,5278 4708,4512 4708,4862 Z"/>
     <path fill="rgb(207,207,207)" stroke="none" d="M 4528,5278 L 4095,6281 3893,6399 4377,5278 4528,5278 Z M 4708,4512 L 4901,4065 4901,4415 4708,4862 4708,4512 Z M 4685,4915 L 4538,5255 4387,5255 4685,4565 4685,4915 Z"/>
     <path fill="rgb(208,208,208)" stroke="none" d="M 4538,5255 L 4095,6281 3893,6399 4387,5255 4538,5255 Z M 4685,4565 L 4901,4065 4901,4415 4685,4915 4685,4565 Z M 4661,4971 L 4549,5231 4397,5231 4661,4621 4661,4971 Z"/>
     <path fill="rgb(209,209,209)" stroke="none" d="M 4549,5231 L 4095,6281 3893,6399 4397,5231 4549,5231 Z M 4661,4621 L 4901,4065 4901,4415 4661,4971 4661,4621 Z M 4638,5024 L 4558,5208 4407,5208 4638,4674 4638,5024 Z"/>
     <path fill="rgb(210,210,210)" stroke="none" d="M 4558,5208 L 4095,6281 3893,6399 4407,5208 4558,5208 Z M 4638,4674 L 4901,4065 4901,4415 4638,5024 4638,4674 Z M 4615,5077 L 4568,5185 4417,5185 4615,4727 4615,5077 Z"/>
     <path fill="rgb(211,211,211)" stroke="none" d="M 4568,5185 L 4095,6281 3893,6399 4417,5185 4568,5185 Z M 4615,4727 L 4901,4065 4901,4415 4615,5077 4615,4727 Z M 4591,5133 L 4579,5161 4428,5161 4591,4783 4591,5133 Z"/>
     <path fill="rgb(212,212,212)" stroke="none" d="M 4579,5161 L 4095,6281 3893,6399 4428,5161 4579,5161 Z M 4591,4783 L 4901,4065 4901,4415 4591,5133 4591,4783 Z M 4568,5138 L 4438,5138 4568,4836 4568,5138 Z"/>
     <path fill="rgb(213,213,213)" stroke="none" d="M 4568,5138 L 4568,4836 4901,4065 4901,4415 4095,6281 3893,6399 4438,5138 4568,5138 Z M 4545,5115 L 4448,5115 4545,4889 4545,5115 Z"/>
     <path fill="rgb(214,214,214)" stroke="none" d="M 4545,5115 L 4545,4889 4901,4065 4901,4415 4095,6281 3893,6399 4448,5115 4545,5115 Z M 4521,5091 L 4458,5091 4521,4945 4521,5091 Z"/>
     <path fill="rgb(215,215,215)" stroke="none" d="M 4521,5091 L 4521,4945 4901,4065 4901,4415 4095,6281 3893,6399 4458,5091 4521,5091 Z M 4498,5068 L 4468,5068 4498,4998 4498,5068 Z"/>
     <path fill="rgb(216,216,216)" stroke="none" d="M 4498,5068 L 4498,4998 4901,4065 4901,4415 4095,6281 3893,6399 4468,5068 4498,5068 Z"/>
     <path fill="rgb(217,217,217)" stroke="none" d="M 4901,4065 L 4901,4415 4095,6281 3893,6399 4901,4065 Z"/>
     <path fill="rgb(218,218,218)" stroke="none" d="M 4901,4065 L 4901,4415 4095,6281 3893,6399 4901,4065 Z"/>
     <path fill="rgb(219,219,219)" stroke="none" d="M 4901,4065 L 4901,4415 4095,6281 3893,6399 4901,4065 Z"/>
     <path fill="rgb(220,220,220)" stroke="none" d="M 4901,4065 L 4901,4415 4095,6281 3893,6399 4901,4065 Z"/>
     <path fill="rgb(221,221,221)" stroke="none" d="M 4901,4065 L 4901,4415 4095,6281 3893,6399 4901,4065 Z"/>
     <path fill="rgb(222,222,222)" stroke="none" d="M 4901,4065 L 4901,4415 4095,6281 3893,6399 4901,4065 Z"/>
     <path fill="rgb(223,223,223)" stroke="none" d="M 4901,4065 L 4901,4415 4095,6281 3893,6399 4901,4065 Z"/>
     <path fill="rgb(224,224,224)" stroke="none" d="M 4901,4065 L 4901,4415 4095,6281 3893,6399 4901,4065 Z"/>
     <path fill="rgb(225,225,225)" stroke="none" d="M 4901,4065 L 4901,4415 4095,6281 3893,6399 4901,4065 Z"/>
     <path fill="rgb(226,226,226)" stroke="none" d="M 4901,4065 L 4901,4415 4095,6281 3893,6399 4901,4065 Z"/>
     <path fill="rgb(227,227,227)" stroke="none" d="M 4901,4065 L 4901,4415 4095,6281 3893,6399 4901,4065 Z"/>
     <path fill="rgb(229,229,229)" stroke="none" d="M 4901,4065 L 4901,4415 4095,6281 3893,6399 4901,4065 Z"/>
     <path fill="none" stroke="rgb(127,127,127)" id="Drawing_3_0" stroke-width="40" stroke-linejoin="round" d="M 4901,4065 L 4901,4415 4095,6281 3893,6399 4901,4065 Z"/>
    </g>
    <g>
     <defs>
      <linearGradient id="Gradient_154" gradientUnits="userSpaceOnUse" x1="1874" y1="4646" x2="4903" y2="4652">
       <stop offset="0.1" stop-color="rgb(179,179,179)"/>
       <stop offset="1" stop-color="rgb(229,229,229)"/>
      </linearGradient>
     </defs>
     <path fill="url(#Gradient_154)" stroke="rgb(255,255,255)" id="Drawing_4_0" stroke-width="40" stroke-linejoin="round" d="M 1878,5233 L 2886,2899 4901,4065 3893,6399 1878,5233 Z"/>
    </g>
    <g>
     <defs>
      <linearGradient id="Gradient_155" gradientUnits="userSpaceOnUse" x1="3690" y1="4181" x2="4498" y2="4183">
       <stop offset="0.1" stop-color="rgb(147,212,240)"/>
       <stop offset="1" stop-color="rgb(233,246,252)"/>
      </linearGradient>
     </defs>
     <path fill="url(#Gradient_155)" stroke="rgb(127,127,127)" id="Drawing_5_0" stroke-width="40" stroke-linejoin="round" d="M 3691,4240 L 3893,3774 4497,4124 4295,4590 3691,4240 Z"/>
    </g>
    <g>
     <path fill="rgb(179,179,179)" stroke="none" d="M 2116,4977 L 2179,4757 2287,4446 2420,4110 2567,3779 2717,3485 2791,3361 2861,3259 2927,3182 2958,3153 2987,3133 3045,3160 3094,3186 3189,3242 3491,3424 3289,3833 3279,3834 3269,3836 3248,3845 3225,3859 3201,3878 3151,3931 3097,3999 3043,4080 2988,4171 2886,4373 2803,4579 2773,4677 2751,4768 2740,4848 2739,4884 2741,4916 2747,4943 2756,4967 2762,4977 2116,4977 Z"/>
     <path fill="rgb(180,180,180)" stroke="none" d="M 2762,4977 L 2769,4985 2777,4993 2786,4999 2584,5467 2080,5174 2082,5143 2087,5105 2107,5010 2116,4977 2762,4977 Z M 2123,4954 L 2179,4757 2287,4446 2420,4110 2567,3779 2717,3485 2791,3361 2861,3259 2927,3182 2958,3153 2987,3133 3045,3160 3094,3186 3189,3242 3491,3424 3289,3833 3279,3834 3269,3836 3248,3845 3225,3859 3201,3878 3151,3931 3097,3999 3043,4080 2988,4171 2886,4373 2803,4579 2773,4677 2751,4768 2740,4848 2739,4884 2741,4916 2747,4943 2751,4954 2123,4954 Z"/>
     <path fill="rgb(181,181,181)" stroke="none" d="M 2751,4954 L 2756,4967 2762,4977 2769,4985 2777,4993 2786,4999 2584,5467 2080,5174 2082,5143 2087,5105 2107,5010 2123,4954 2751,4954 Z M 2130,4930 L 2179,4757 2287,4446 2420,4110 2567,3779 2717,3485 2791,3361 2861,3259 2927,3182 2958,3153 2987,3133 3045,3160 3094,3186 3189,3242 3491,3424 3289,3833 3279,3834 3269,3836 3248,3845 3225,3859 3201,3878 3151,3931 3097,3999 3043,4080 2988,4171 2886,4373 2803,4579 2773,4677 2751,4768 2740,4848 2739,4884 2741,4916 2744,4930 2130,4930 Z"/>
     <path fill="rgb(182,182,182)" stroke="none" d="M 2744,4930 L 2747,4943 2756,4967 2762,4977 2769,4985 2777,4993 2786,4999 2584,5467 2080,5174 2082,5143 2087,5105 2107,5010 2130,4930 2744,4930 Z M 2136,4907 L 2179,4757 2287,4446 2420,4110 2567,3779 2717,3485 2791,3361 2861,3259 2927,3182 2958,3153 2987,3133 3045,3160 3094,3186 3189,3242 3491,3424 3289,3833 3279,3834 3269,3836 3248,3845 3225,3859 3201,3878 3151,3931 3097,3999 3043,4080 2988,4171 2886,4373 2803,4579 2773,4677 2751,4768 2740,4848 2739,4884 2740,4907 2136,4907 Z"/>
     <path fill="rgb(183,183,183)" stroke="none" d="M 2740,4907 L 2741,4916 2747,4943 2756,4967 2762,4977 2769,4985 2777,4993 2786,4999 2584,5467 2080,5174 2082,5143 2087,5105 2107,5010 2136,4907 2740,4907 Z M 2143,4884 L 2179,4757 2287,4446 2420,4110 2567,3779 2717,3485 2791,3361 2861,3259 2927,3182 2958,3153 2987,3133 3045,3160 3094,3186 3189,3242 3491,3424 3289,3833 3279,3834 3269,3836 3248,3845 3225,3859 3201,3878 3151,3931 3097,3999 3043,4080 2988,4171 2886,4373 2803,4579 2773,4677 2751,4768 2740,4848 2739,4884 2143,4884 Z"/>
     <path fill="rgb(184,184,184)" stroke="none" d="M 2739,4884 L 2741,4916 2747,4943 2756,4967 2762,4977 2769,4985 2777,4993 2786,4999 2584,5467 2080,5174 2082,5143 2087,5105 2107,5010 2143,4884 2739,4884 Z M 2150,4860 L 2179,4757 2287,4446 2420,4110 2567,3779 2717,3485 2791,3361 2861,3259 2927,3182 2958,3153 2987,3133 3045,3160 3094,3186 3189,3242 3491,3424 3289,3833 3279,3834 3269,3836 3248,3845 3225,3859 3201,3878 3151,3931 3097,3999 3043,4080 2988,4171 2886,4373 2803,4579 2773,4677 2751,4768 2740,4848 2740,4860 2150,4860 Z"/>
     <path fill="rgb(185,185,185)" stroke="none" d="M 2740,4860 L 2739,4884 2741,4916 2747,4943 2756,4967 2762,4977 2769,4985 2777,4993 2786,4999 2584,5467 2080,5174 2082,5143 2087,5105 2107,5010 2150,4860 2740,4860 Z M 2156,4837 L 2179,4757 2287,4446 2420,4110 2567,3779 2717,3485 2791,3361 2861,3259 2927,3182 2958,3153 2987,3133 3045,3160 3094,3186 3189,3242 3491,3424 3289,3833 3279,3834 3269,3836 3248,3845 3225,3859 3201,3878 3151,3931 3097,3999 3043,4080 2988,4171 2886,4373 2803,4579 2773,4677 2751,4768 2742,4837 2156,4837 Z"/>
     <path fill="rgb(186,186,186)" stroke="none" d="M 2742,4837 L 2740,4848 2739,4884 2741,4916 2747,4943 2756,4967 2762,4977 2769,4985 2777,4993 2786,4999 2584,5467 2080,5174 2082,5143 2087,5105 2107,5010 2156,4837 2742,4837 Z M 3484,3438 L 3289,3833 3279,3834 3269,3836 3248,3845 3225,3859 3201,3878 3151,3931 3097,3999 3043,4080 2988,4171 2886,4373 2803,4579 2773,4677 2751,4768 2745,4814 2163,4814 2179,4757 2287,4446 2420,4110 2567,3779 2717,3485 2791,3361 2861,3259 2927,3182 2958,3153 2987,3133 3045,3160 3094,3186 3189,3242 3484,3420 3484,3438 Z"/>
     <path fill="rgb(187,187,187)" stroke="none" d="M 2745,4814 L 2740,4848 2739,4884 2741,4916 2747,4943 2756,4967 2762,4977 2769,4985 2777,4993 2786,4999 2584,5467 2080,5174 2082,5143 2087,5105 2107,5010 2163,4814 2745,4814 Z M 3484,3420 L 3491,3424 3484,3438 3484,3420 Z M 3460,3487 L 3289,3833 3279,3834 3269,3836 3248,3845 3225,3859 3201,3878 3151,3931 3097,3999 3043,4080 2988,4171 2886,4373 2803,4579 2773,4677 2751,4768 2748,4790 2170,4790 2179,4757 2287,4446 2420,4110 2567,3779 2717,3485 2791,3361 2861,3259 2927,3182 2958,3153 2987,3133 3045,3160 3094,3186 3189,3242 3460,3405 3460,3487 Z"/>
     <path fill="rgb(188,188,188)" stroke="none" d="M 2748,4790 L 2740,4848 2739,4884 2741,4916 2747,4943 2756,4967 2762,4977 2769,4985 2777,4993 2786,4999 2584,5467 2080,5174 2082,5143 2087,5105 2107,5010 2170,4790 2748,4790 Z M 3460,3405 L 3491,3424 3460,3487 3460,3405 Z M 3437,3533 L 3289,3833 3279,3834 3269,3836 3248,3845 3225,3859 3201,3878 3151,3931 3097,3999 3043,4080 2988,4171 2886,4373 2803,4579 2773,4677 2751,4767 2176,4767 2179,4757 2287,4446 2420,4110 2567,3779 2717,3485 2791,3361 2861,3259 2927,3182 2958,3153 2987,3133 3045,3160 3094,3186 3189,3242 3437,3391 3437,3533 Z"/>
     <path fill="rgb(189,189,189)" stroke="none" d="M 2751,4767 L 2751,4768 2740,4848 2739,4884 2741,4916 2747,4943 2756,4967 2762,4977 2769,4985 2777,4993 2786,4999 2584,5467 2080,5174 2082,5143 2087,5105 2107,5010 2176,4767 2751,4767 Z M 3437,3391 L 3491,3424 3437,3533 3437,3391 Z M 3413,3582 L 3289,3833 3279,3834 3269,3836 3248,3845 3225,3859 3201,3878 3151,3931 3097,3999 3043,4080 2988,4171 2886,4373 2803,4579 2773,4677 2757,4743 2184,4743 2287,4446 2420,4110 2567,3779 2717,3485 2791,3361 2861,3259 2927,3182 2958,3153 2987,3133 3045,3160 3094,3186 3189,3242 3413,3377 3413,3582 Z"/>
     <path fill="rgb(190,190,190)" stroke="none" d="M 2757,4743 L 2751,4768 2740,4848 2739,4884 2741,4916 2747,4943 2756,4967 2762,4977 2769,4985 2777,4993 2786,4999 2584,5467 2080,5174 2082,5143 2087,5105 2107,5010 2179,4757 2184,4743 2757,4743 Z M 3413,3377 L 3491,3424 3413,3582 3413,3377 Z M 3390,3629 L 3289,3833 3279,3834 3269,3836 3248,3845 3225,3859 3201,3878 3151,3931 3097,3999 3043,4080 2988,4171 2886,4373 2803,4579 2773,4677 2763,4720 2192,4720 2287,4446 2420,4110 2567,3779 2717,3485 2791,3361 2861,3259 2927,3182 2958,3153 2987,3133 3045,3160 3094,3186 3189,3242 3390,3363 3390,3629 Z"/>
     <path fill="rgb(191,191,191)" stroke="none" d="M 2763,4720 L 2751,4768 2740,4848 2739,4884 2741,4916 2747,4943 2756,4967 2762,4977 2769,4985 2777,4993 2786,4999 2584,5467 2080,5174 2082,5143 2087,5105 2107,5010 2179,4757 2192,4720 2763,4720 Z M 3390,3363 L 3491,3424 3390,3629 3390,3363 Z M 3367,3675 L 3289,3833 3279,3834 3269,3836 3248,3845 3225,3859 3201,3878 3151,3931 3097,3999 3043,4080 2988,4171 2886,4373 2803,4579 2773,4677 2768,4697 2200,4697 2287,4446 2420,4110 2567,3779 2717,3485 2791,3361 2861,3259 2927,3182 2958,3153 2987,3133 3045,3160 3094,3186 3189,3242 3367,3349 3367,3675 Z"/>
     <path fill="rgb(192,192,192)" stroke="none" d="M 2768,4697 L 2751,4768 2740,4848 2739,4884 2741,4916 2747,4943 2756,4967 2762,4977 2769,4985 2777,4993 2786,4999 2584,5467 2080,5174 2082,5143 2087,5105 2107,5010 2179,4757 2200,4697 2768,4697 Z M 3367,3349 L 3491,3424 3367,3675 3367,3349 Z M 3343,3724 L 3289,3833 3279,3834 3269,3836 3248,3845 3225,3859 3201,3878 3151,3931 3097,3999 3043,4080 2988,4171 2886,4373 2803,4579 2774,4673 2208,4673 2287,4446 2420,4110 2567,3779 2717,3485 2791,3361 2861,3259 2927,3182 2958,3153 2987,3133 3045,3160 3094,3186 3189,3242 3343,3335 3343,3724 Z"/>
     <path fill="rgb(193,193,193)" stroke="none" d="M 2774,4673 L 2773,4677 2751,4768 2740,4848 2739,4884 2741,4916 2747,4943 2756,4967 2762,4977 2769,4985 2777,4993 2786,4999 2584,5467 2080,5174 2082,5143 2087,5105 2107,5010 2179,4757 2208,4673 2774,4673 Z M 3343,3335 L 3491,3424 3343,3724 3343,3335 Z M 3320,3770 L 3289,3833 3279,3834 3269,3836 3248,3845 3225,3859 3201,3878 3151,3931 3097,3999 3043,4080 2988,4171 2886,4373 2803,4579 2781,4650 2216,4650 2287,4446 2420,4110 2567,3779 2717,3485 2791,3361 2861,3259 2927,3182 2958,3153 2987,3133 3045,3160 3094,3186 3189,3242 3320,3321 3320,3770 Z"/>
     <path fill="rgb(194,194,194)" stroke="none" d="M 2781,4650 L 2773,4677 2751,4768 2740,4848 2739,4884 2741,4916 2747,4943 2756,4967 2762,4977 2769,4985 2777,4993 2786,4999 2584,5467 2080,5174 2082,5143 2087,5105 2107,5010 2179,4757 2216,4650 2781,4650 Z M 3320,3321 L 3491,3424 3320,3770 3320,3321 Z M 3297,3817 L 3289,3833 3279,3834 3269,3836 3248,3845 3225,3859 3201,3878 3151,3931 3097,3999 3043,4080 2988,4171 2886,4373 2803,4579 2788,4627 2224,4627 2287,4446 2420,4110 2567,3779 2717,3485 2791,3361 2861,3259 2927,3182 2958,3153 2987,3133 3045,3160 3094,3186 3189,3242 3297,3307 3297,3817 Z"/>
     <path fill="rgb(195,195,195)" stroke="none" d="M 2788,4627 L 2773,4677 2751,4768 2740,4848 2739,4884 2741,4916 2747,4943 2756,4967 2762,4977 2769,4985 2777,4993 2786,4999 2584,5467 2080,5174 2082,5143 2087,5105 2107,5010 2179,4757 2224,4627 2788,4627 Z M 3297,3307 L 3491,3424 3297,3817 3297,3307 Z M 3273,3835 L 3269,3836 3248,3845 3225,3859 3201,3878 3151,3931 3097,3999 3043,4080 2988,4171 2886,4373 2803,4579 2796,4603 2232,4603 2287,4446 2420,4110 2567,3779 2717,3485 2791,3361 2861,3259 2927,3182 2958,3153 2987,3133 3045,3160 3094,3186 3189,3242 3273,3293 3273,3835 Z"/>
     <path fill="rgb(196,196,196)" stroke="none" d="M 2796,4603 L 2773,4677 2751,4768 2740,4848 2739,4884 2741,4916 2747,4943 2756,4967 2762,4977 2769,4985 2777,4993 2786,4999 2584,5467 2080,5174 2082,5143 2087,5105 2107,5010 2179,4757 2232,4603 2796,4603 Z M 3273,3293 L 3491,3424 3289,3833 3279,3834 3273,3835 3273,3293 Z M 3250,3844 L 3248,3845 3225,3859 3201,3878 3151,3931 3097,3999 3043,4080 2988,4171 2886,4373 2803,4579 2803,4580 2240,4580 2287,4446 2420,4110 2567,3779 2717,3485 2791,3361 2861,3259 2927,3182 2958,3153 2987,3133 3045,3160 3094,3186 3189,3242 3250,3279 3250,3844 Z"/>
     <path fill="rgb(197,197,197)" stroke="none" d="M 2803,4580 L 2773,4677 2751,4768 2740,4848 2739,4884 2741,4916 2747,4943 2756,4967 2762,4977 2769,4985 2777,4993 2786,4999 2584,5467 2080,5174 2082,5143 2087,5105 2107,5010 2179,4757 2240,4580 2803,4580 Z M 3250,3279 L 3491,3424 3289,3833 3279,3834 3269,3836 3250,3844 3250,3279 Z M 3226,3858 L 3225,3859 3201,3878 3151,3931 3097,3999 3043,4080 2988,4171 2886,4373 2812,4556 2249,4556 2287,4446 2420,4110 2567,3779 2717,3485 2791,3361 2861,3259 2927,3182 2958,3153 2987,3133 3045,3160 3094,3186 3189,3242 3226,3264 3226,3858 Z"/>
     <path fill="rgb(198,198,198)" stroke="none" d="M 2812,4556 L 2803,4579 2773,4677 2751,4768 2740,4848 2739,4884 2741,4916 2747,4943 2756,4967 2762,4977 2769,4985 2777,4993 2786,4999 2584,5467 2080,5174 2082,5143 2087,5105 2107,5010 2179,4757 2249,4556 2812,4556 Z M 3226,3264 L 3491,3424 3289,3833 3279,3834 3269,3836 3248,3845 3226,3858 3226,3264 Z M 3203,3876 L 3201,3878 3151,3931 3097,3999 3043,4080 2988,4171 2886,4373 2822,4533 2257,4533 2287,4446 2420,4110 2567,3779 2717,3485 2791,3361 2861,3259 2927,3182 2958,3153 2987,3133 3045,3160 3094,3186 3189,3242 3203,3250 3203,3876 Z"/>
     <path fill="rgb(199,199,199)" stroke="none" d="M 2822,4533 L 2803,4579 2773,4677 2751,4768 2740,4848 2739,4884 2741,4916 2747,4943 2756,4967 2762,4977 2769,4985 2777,4993 2786,4999 2584,5467 2080,5174 2082,5143 2087,5105 2107,5010 2179,4757 2257,4533 2822,4533 Z M 3203,3250 L 3491,3424 3289,3833 3279,3834 3269,3836 3248,3845 3225,3859 3203,3876 3203,3250 Z M 3034,3155 L 3045,3160 3094,3186 3180,3237 3180,3900 3151,3931 3097,3999 3043,4080 2988,4171 2886,4373 2831,4510 2265,4510 2287,4446 2420,4110 2567,3779 2717,3485 2791,3361 2861,3259 2927,3182 2956,3155 3034,3155 Z"/>
     <path fill="rgb(200,200,200)" stroke="none" d="M 2831,4510 L 2803,4579 2773,4677 2751,4768 2740,4848 2739,4884 2741,4916 2747,4943 2756,4967 2762,4977 2769,4985 2777,4993 2786,4999 2584,5467 2080,5174 2082,5143 2087,5105 2107,5010 2179,4757 2265,4510 2831,4510 Z M 3180,3237 L 3189,3242 3491,3424 3289,3833 3279,3834 3269,3836 3248,3845 3225,3859 3201,3878 3180,3900 3180,3237 Z M 2956,3155 L 2958,3153 2987,3133 3034,3155 2956,3155 Z M 3081,3179 L 3094,3186 3156,3223 3156,3926 3151,3931 3097,3999 3043,4080 2988,4171 2886,4373 2840,4486 2273,4486 2287,4446 2420,4110 2567,3779 2717,3485 2791,3361 2861,3259 2927,3182 2930,3179 3081,3179 Z"/>
     <path fill="rgb(201,201,201)" stroke="none" d="M 2840,4486 L 2803,4579 2773,4677 2751,4768 2740,4848 2739,4884 2741,4916 2747,4943 2756,4967 2762,4977 2769,4985 2777,4993 2786,4999 2584,5467 2080,5174 2082,5143 2087,5105 2107,5010 2179,4757 2273,4486 2840,4486 Z M 3156,3223 L 3189,3242 3491,3424 3289,3833 3279,3834 3269,3836 3248,3845 3225,3859 3201,3878 3156,3926 3156,3223 Z M 2930,3179 L 2958,3153 2987,3133 3045,3160 3081,3179 2930,3179 Z M 3121,3202 L 3133,3209 3133,3954 3097,3999 3043,4080 2988,4171 2886,4373 2850,4463 2281,4463 2287,4446 2420,4110 2567,3779 2717,3485 2791,3361 2861,3259 2910,3202 3121,3202 Z"/>
     <path fill="rgb(202,202,202)" stroke="none" d="M 2850,4463 L 2803,4579 2773,4677 2751,4768 2740,4848 2739,4884 2741,4916 2747,4943 2756,4967 2762,4977 2769,4985 2777,4993 2786,4999 2584,5467 2080,5174 2082,5143 2087,5105 2107,5010 2179,4757 2281,4463 2850,4463 Z M 3133,3209 L 3189,3242 3491,3424 3289,3833 3279,3834 3269,3836 3248,3845 3225,3859 3201,3878 3151,3931 3133,3954 3133,3209 Z M 2910,3202 L 2927,3182 2958,3153 2987,3133 3045,3160 3094,3186 3121,3202 2910,3202 Z M 3110,3225 L 3110,3983 3097,3999 3043,4080 2988,4171 2886,4373 2859,4440 2289,4440 2420,4110 2567,3779 2717,3485 2791,3361 2861,3259 2890,3225 3110,3225 Z"/>
     <path fill="rgb(203,203,203)" stroke="none" d="M 2859,4440 L 2803,4579 2773,4677 2751,4768 2740,4848 2739,4884 2741,4916 2747,4943 2756,4967 2762,4977 2769,4985 2777,4993 2786,4999 2584,5467 2080,5174 2082,5143 2087,5105 2107,5010 2179,4757 2287,4446 2289,4440 2859,4440 Z M 3110,3225 L 2890,3225 2927,3182 2958,3153 2987,3133 3045,3160 3094,3186 3189,3242 3491,3424 3289,3833 3279,3834 3269,3836 3248,3845 3225,3859 3201,3878 3151,3931 3110,3983 3110,3225 Z M 3086,3249 L 3086,4016 3043,4080 2988,4171 2886,4373 2869,4416 2299,4416 2420,4110 2567,3779 2717,3485 2791,3361 2861,3259 2870,3249 3086,3249 Z"/>
     <path fill="rgb(204,204,204)" stroke="none" d="M 2869,4416 L 2803,4579 2773,4677 2751,4768 2740,4848 2739,4884 2741,4916 2747,4943 2756,4967 2762,4977 2769,4985 2777,4993 2786,4999 2584,5467 2080,5174 2082,5143 2087,5105 2107,5010 2179,4757 2287,4446 2299,4416 2869,4416 Z M 3086,3249 L 2870,3249 2927,3182 2958,3153 2987,3133 3045,3160 3094,3186 3189,3242 3491,3424 3289,3833 3279,3834 3269,3836 3248,3845 3225,3859 3201,3878 3151,3931 3097,3999 3086,4016 3086,3249 Z M 3063,3272 L 3063,4050 3043,4080 2988,4171 2886,4373 2878,4393 2308,4393 2420,4110 2567,3779 2717,3485 2791,3361 2852,3272 3063,3272 Z"/>
     <path fill="rgb(205,205,205)" stroke="none" d="M 2878,4393 L 2803,4579 2773,4677 2751,4768 2740,4848 2739,4884 2741,4916 2747,4943 2756,4967 2762,4977 2769,4985 2777,4993 2786,4999 2584,5467 2080,5174 2082,5143 2087,5105 2107,5010 2179,4757 2287,4446 2308,4393 2878,4393 Z M 3063,3272 L 2852,3272 2861,3259 2927,3182 2958,3153 2987,3133 3045,3160 3094,3186 3189,3242 3491,3424 3289,3833 3279,3834 3269,3836 3248,3845 3225,3859 3201,3878 3151,3931 3097,3999 3063,4050 3063,3272 Z M 3040,3295 L 3040,4085 2988,4171 2888,4370 2317,4370 2420,4110 2567,3779 2717,3485 2791,3361 2836,3295 3040,3295 Z"/>
     <path fill="rgb(206,206,206)" stroke="none" d="M 2888,4370 L 2886,4373 2803,4579 2773,4677 2751,4768 2740,4848 2739,4884 2741,4916 2747,4943 2756,4967 2762,4977 2769,4985 2777,4993 2786,4999 2584,5467 2080,5174 2082,5143 2087,5105 2107,5010 2179,4757 2287,4446 2317,4370 2888,4370 Z M 3040,3295 L 2836,3295 2861,3259 2927,3182 2958,3153 2987,3133 3045,3160 3094,3186 3189,3242 3491,3424 3289,3833 3279,3834 3269,3836 3248,3845 3225,3859 3201,3878 3151,3931 3097,3999 3043,4080 3040,4085 3040,3295 Z M 3016,3319 L 3016,4125 2988,4171 2900,4346 2327,4346 2420,4110 2567,3779 2717,3485 2791,3361 2820,3319 3016,3319 Z"/>
     <path fill="rgb(207,207,207)" stroke="none" d="M 2900,4346 L 2886,4373 2803,4579 2773,4677 2751,4768 2740,4848 2739,4884 2741,4916 2747,4943 2756,4967 2762,4977 2769,4985 2777,4993 2786,4999 2584,5467 2080,5174 2082,5143 2087,5105 2107,5010 2179,4757 2287,4446 2327,4346 2900,4346 Z M 3016,3319 L 2820,3319 2861,3259 2927,3182 2958,3153 2987,3133 3045,3160 3094,3186 3189,3242 3491,3424 3289,3833 3279,3834 3269,3836 3248,3845 3225,3859 3201,3878 3151,3931 3097,3999 3043,4080 3016,4125 3016,3319 Z M 2993,3342 L 2993,4163 2988,4171 2911,4323 2336,4323 2420,4110 2567,3779 2717,3485 2791,3361 2804,3342 2993,3342 Z"/>
     <path fill="rgb(208,208,208)" stroke="none" d="M 2911,4323 L 2886,4373 2803,4579 2773,4677 2751,4768 2740,4848 2739,4884 2741,4916 2747,4943 2756,4967 2762,4977 2769,4985 2777,4993 2786,4999 2584,5467 2080,5174 2082,5143 2087,5105 2107,5010 2179,4757 2287,4446 2336,4323 2911,4323 Z M 2993,3342 L 2804,3342 2861,3259 2927,3182 2958,3153 2987,3133 3045,3160 3094,3186 3189,3242 3491,3424 3289,3833 3279,3834 3269,3836 3248,3845 3225,3859 3201,3878 3151,3931 3097,3999 3043,4080 2993,4163 2993,3342 Z M 2969,3366 L 2969,4209 2923,4299 2345,4299 2420,4110 2567,3779 2717,3485 2788,3366 2969,3366 Z"/>
     <path fill="rgb(209,209,209)" stroke="none" d="M 2923,4299 L 2886,4373 2803,4579 2773,4677 2751,4768 2740,4848 2739,4884 2741,4916 2747,4943 2756,4967 2762,4977 2769,4985 2777,4993 2786,4999 2584,5467 2080,5174 2082,5143 2087,5105 2107,5010 2179,4757 2287,4446 2345,4299 2923,4299 Z M 2969,3366 L 2788,3366 2791,3361 2861,3259 2927,3182 2958,3153 2987,3133 3045,3160 3094,3186 3189,3242 3491,3424 3289,3833 3279,3834 3269,3836 3248,3845 3225,3859 3201,3878 3151,3931 3097,3999 3043,4080 2988,4171 2969,4209 2969,3366 Z M 2946,3389 L 2946,4254 2935,4276 2354,4276 2420,4110 2567,3779 2717,3485 2774,3389 2946,3389 Z"/>
     <path fill="rgb(210,210,210)" stroke="none" d="M 2935,4276 L 2886,4373 2803,4579 2773,4677 2751,4768 2740,4848 2739,4884 2741,4916 2747,4943 2756,4967 2762,4977 2769,4985 2777,4993 2786,4999 2584,5467 2080,5174 2082,5143 2087,5105 2107,5010 2179,4757 2287,4446 2354,4276 2935,4276 Z M 2946,3389 L 2774,3389 2791,3361 2861,3259 2927,3182 2958,3153 2987,3133 3045,3160 3094,3186 3189,3242 3491,3424 3289,3833 3279,3834 3269,3836 3248,3845 3225,3859 3201,3878 3151,3931 3097,3999 3043,4080 2988,4171 2946,4254 2946,3389 Z M 2923,3412 L 2923,4253 2363,4253 2420,4110 2567,3779 2717,3485 2761,3412 2923,3412 Z"/>
     <path fill="rgb(211,211,211)" stroke="none" d="M 2923,4253 L 2923,3412 2761,3412 2791,3361 2861,3259 2927,3182 2958,3153 2987,3133 3045,3160 3094,3186 3189,3242 3491,3424 3289,3833 3279,3834 3269,3836 3248,3845 3225,3859 3201,3878 3151,3931 3097,3999 3043,4080 2988,4171 2886,4373 2803,4579 2773,4677 2751,4768 2740,4848 2739,4884 2741,4916 2747,4943 2756,4967 2762,4977 2769,4985 2777,4993 2786,4999 2584,5467 2080,5174 2082,5143 2087,5105 2107,5010 2179,4757 2287,4446 2363,4253 2923,4253 Z M 2899,3436 L 2899,4229 2373,4229 2420,4110 2567,3779 2717,3485 2746,3436 2899,3436 Z"/>
     <path fill="rgb(212,212,212)" stroke="none" d="M 2899,4229 L 2899,3436 2746,3436 2791,3361 2861,3259 2927,3182 2958,3153 2987,3133 3045,3160 3094,3186 3189,3242 3491,3424 3289,3833 3279,3834 3269,3836 3248,3845 3225,3859 3201,3878 3151,3931 3097,3999 3043,4080 2988,4171 2886,4373 2803,4579 2773,4677 2751,4768 2740,4848 2739,4884 2741,4916 2747,4943 2756,4967 2762,4977 2769,4985 2777,4993 2786,4999 2584,5467 2080,5174 2082,5143 2087,5105 2107,5010 2179,4757 2287,4446 2373,4229 2899,4229 Z M 2876,3459 L 2876,4206 2382,4206 2420,4110 2567,3779 2717,3485 2733,3459 2876,3459 Z"/>
     <path fill="rgb(213,213,213)" stroke="none" d="M 2876,4206 L 2876,3459 2733,3459 2791,3361 2861,3259 2927,3182 2958,3153 2987,3133 3045,3160 3094,3186 3189,3242 3491,3424 3289,3833 3279,3834 3269,3836 3248,3845 3225,3859 3201,3878 3151,3931 3097,3999 3043,4080 2988,4171 2886,4373 2803,4579 2773,4677 2751,4768 2740,4848 2739,4884 2741,4916 2747,4943 2756,4967 2762,4977 2769,4985 2777,4993 2786,4999 2584,5467 2080,5174 2082,5143 2087,5105 2107,5010 2179,4757 2287,4446 2382,4206 2876,4206 Z M 2853,3482 L 2853,4183 2391,4183 2420,4110 2567,3779 2717,3485 2719,3482 2853,3482 Z"/>
     <path fill="rgb(214,214,214)" stroke="none" d="M 2853,4183 L 2853,3482 2719,3482 2791,3361 2861,3259 2927,3182 2958,3153 2987,3133 3045,3160 3094,3186 3189,3242 3491,3424 3289,3833 3279,3834 3269,3836 3248,3845 3225,3859 3201,3878 3151,3931 3097,3999 3043,4080 2988,4171 2886,4373 2803,4579 2773,4677 2751,4768 2740,4848 2739,4884 2741,4916 2747,4943 2756,4967 2762,4977 2769,4985 2777,4993 2786,4999 2584,5467 2080,5174 2082,5143 2087,5105 2107,5010 2179,4757 2287,4446 2391,4183 2853,4183 Z M 2829,3506 L 2829,4159 2401,4159 2420,4110 2567,3779 2706,3506 2829,3506 Z"/>
     <path fill="rgb(215,215,215)" stroke="none" d="M 2829,4159 L 2829,3506 2706,3506 2717,3485 2791,3361 2861,3259 2927,3182 2958,3153 2987,3133 3045,3160 3094,3186 3189,3242 3491,3424 3289,3833 3279,3834 3269,3836 3248,3845 3225,3859 3201,3878 3151,3931 3097,3999 3043,4080 2988,4171 2886,4373 2803,4579 2773,4677 2751,4768 2740,4848 2739,4884 2741,4916 2747,4943 2756,4967 2762,4977 2769,4985 2777,4993 2786,4999 2584,5467 2080,5174 2082,5143 2087,5105 2107,5010 2179,4757 2287,4446 2401,4159 2829,4159 Z M 2806,3529 L 2806,4136 2410,4136 2420,4110 2567,3779 2695,3529 2806,3529 Z"/>
     <path fill="rgb(216,216,216)" stroke="none" d="M 2806,4136 L 2806,3529 2695,3529 2717,3485 2791,3361 2861,3259 2927,3182 2958,3153 2987,3133 3045,3160 3094,3186 3189,3242 3491,3424 3289,3833 3279,3834 3269,3836 3248,3845 3225,3859 3201,3878 3151,3931 3097,3999 3043,4080 2988,4171 2886,4373 2803,4579 2773,4677 2751,4768 2740,4848 2739,4884 2741,4916 2747,4943 2756,4967 2762,4977 2769,4985 2777,4993 2786,4999 2584,5467 2080,5174 2082,5143 2087,5105 2107,5010 2179,4757 2287,4446 2410,4136 2806,4136 Z M 2782,3553 L 2782,4112 2419,4112 2420,4110 2567,3779 2682,3553 2782,3553 Z"/>
     <path fill="rgb(217,217,217)" stroke="none" d="M 2782,4112 L 2782,3553 2682,3553 2717,3485 2791,3361 2861,3259 2927,3182 2958,3153 2987,3133 3045,3160 3094,3186 3189,3242 3491,3424 3289,3833 3279,3834 3269,3836 3248,3845 3225,3859 3201,3878 3151,3931 3097,3999 3043,4080 2988,4171 2886,4373 2803,4579 2773,4677 2751,4768 2740,4848 2739,4884 2741,4916 2747,4943 2756,4967 2762,4977 2769,4985 2777,4993 2786,4999 2584,5467 2080,5174 2082,5143 2087,5105 2107,5010 2179,4757 2287,4446 2419,4112 2782,4112 Z M 2759,3576 L 2759,4089 2429,4089 2567,3779 2671,3576 2759,3576 Z"/>
     <path fill="rgb(218,218,218)" stroke="none" d="M 2759,4089 L 2759,3576 2671,3576 2717,3485 2791,3361 2861,3259 2927,3182 2958,3153 2987,3133 3045,3160 3094,3186 3189,3242 3491,3424 3289,3833 3279,3834 3269,3836 3248,3845 3225,3859 3201,3878 3151,3931 3097,3999 3043,4080 2988,4171 2886,4373 2803,4579 2773,4677 2751,4768 2740,4848 2739,4884 2741,4916 2747,4943 2756,4967 2762,4977 2769,4985 2777,4993 2786,4999 2584,5467 2080,5174 2082,5143 2087,5105 2107,5010 2179,4757 2287,4446 2420,4110 2429,4089 2759,4089 Z M 2736,3599 L 2736,4066 2440,4066 2567,3779 2659,3599 2736,3599 Z"/>
     <path fill="rgb(219,219,219)" stroke="none" d="M 2736,4066 L 2736,3599 2659,3599 2717,3485 2791,3361 2861,3259 2927,3182 2958,3153 2987,3133 3045,3160 3094,3186 3189,3242 3491,3424 3289,3833 3279,3834 3269,3836 3248,3845 3225,3859 3201,3878 3151,3931 3097,3999 3043,4080 2988,4171 2886,4373 2803,4579 2773,4677 2751,4768 2740,4848 2739,4884 2741,4916 2747,4943 2756,4967 2762,4977 2769,4985 2777,4993 2786,4999 2584,5467 2080,5174 2082,5143 2087,5105 2107,5010 2179,4757 2287,4446 2420,4110 2440,4066 2736,4066 Z M 2712,3623 L 2712,4042 2450,4042 2567,3779 2647,3623 2712,3623 Z"/>
     <path fill="rgb(220,220,220)" stroke="none" d="M 2712,4042 L 2712,3623 2647,3623 2717,3485 2791,3361 2861,3259 2927,3182 2958,3153 2987,3133 3045,3160 3094,3186 3189,3242 3491,3424 3289,3833 3279,3834 3269,3836 3248,3845 3225,3859 3201,3878 3151,3931 3097,3999 3043,4080 2988,4171 2886,4373 2803,4579 2773,4677 2751,4768 2740,4848 2739,4884 2741,4916 2747,4943 2756,4967 2762,4977 2769,4985 2777,4993 2786,4999 2584,5467 2080,5174 2082,5143 2087,5105 2107,5010 2179,4757 2287,4446 2420,4110 2450,4042 2712,4042 Z M 2689,3646 L 2689,4019 2460,4019 2567,3779 2635,3646 2689,3646 Z"/>
     <path fill="rgb(221,221,221)" stroke="none" d="M 2689,4019 L 2689,3646 2635,3646 2717,3485 2791,3361 2861,3259 2927,3182 2958,3153 2987,3133 3045,3160 3094,3186 3189,3242 3491,3424 3289,3833 3279,3834 3269,3836 3248,3845 3225,3859 3201,3878 3151,3931 3097,3999 3043,4080 2988,4171 2886,4373 2803,4579 2773,4677 2751,4768 2740,4848 2739,4884 2741,4916 2747,4943 2756,4967 2762,4977 2769,4985 2777,4993 2786,4999 2584,5467 2080,5174 2082,5143 2087,5105 2107,5010 2179,4757 2287,4446 2420,4110 2460,4019 2689,4019 Z M 2666,3669 L 2666,3996 2471,3996 2567,3779 2623,3669 2666,3669 Z"/>
     <path fill="rgb(222,222,222)" stroke="none" d="M 2666,3996 L 2666,3669 2623,3669 2717,3485 2791,3361 2861,3259 2927,3182 2958,3153 2987,3133 3045,3160 3094,3186 3189,3242 3491,3424 3289,3833 3279,3834 3269,3836 3248,3845 3225,3859 3201,3878 3151,3931 3097,3999 3043,4080 2988,4171 2886,4373 2803,4579 2773,4677 2751,4768 2740,4848 2739,4884 2741,4916 2747,4943 2756,4967 2762,4977 2769,4985 2777,4993 2786,4999 2584,5467 2080,5174 2082,5143 2087,5105 2107,5010 2179,4757 2287,4446 2420,4110 2471,3996 2666,3996 Z M 2642,3693 L 2642,3972 2481,3972 2567,3779 2611,3693 2642,3693 Z"/>
     <path fill="rgb(223,223,223)" stroke="none" d="M 2642,3972 L 2642,3693 2611,3693 2717,3485 2791,3361 2861,3259 2927,3182 2958,3153 2987,3133 3045,3160 3094,3186 3189,3242 3491,3424 3289,3833 3279,3834 3269,3836 3248,3845 3225,3859 3201,3878 3151,3931 3097,3999 3043,4080 2988,4171 2886,4373 2803,4579 2773,4677 2751,4768 2740,4848 2739,4884 2741,4916 2747,4943 2756,4967 2762,4977 2769,4985 2777,4993 2786,4999 2584,5467 2080,5174 2082,5143 2087,5105 2107,5010 2179,4757 2287,4446 2420,4110 2481,3972 2642,3972 Z M 2619,3716 L 2619,3949 2492,3949 2567,3779 2599,3716 2619,3716 Z"/>
     <path fill="rgb(224,224,224)" stroke="none" d="M 2619,3949 L 2619,3716 2599,3716 2717,3485 2791,3361 2861,3259 2927,3182 2958,3153 2987,3133 3045,3160 3094,3186 3189,3242 3491,3424 3289,3833 3279,3834 3269,3836 3248,3845 3225,3859 3201,3878 3151,3931 3097,3999 3043,4080 2988,4171 2886,4373 2803,4579 2773,4677 2751,4768 2740,4848 2739,4884 2741,4916 2747,4943 2756,4967 2762,4977 2769,4985 2777,4993 2786,4999 2584,5467 2080,5174 2082,5143 2087,5105 2107,5010 2179,4757 2287,4446 2420,4110 2492,3949 2619,3949 Z M 2595,3740 L 2595,3925 2502,3925 2567,3779 2587,3740 2595,3740 Z"/>
     <path fill="rgb(225,225,225)" stroke="none" d="M 2595,3925 L 2595,3740 2587,3740 2717,3485 2791,3361 2861,3259 2927,3182 2958,3153 2987,3133 3045,3160 3094,3186 3189,3242 3491,3424 3289,3833 3279,3834 3269,3836 3248,3845 3225,3859 3201,3878 3151,3931 3097,3999 3043,4080 2988,4171 2886,4373 2803,4579 2773,4677 2751,4768 2740,4848 2739,4884 2741,4916 2747,4943 2756,4967 2762,4977 2769,4985 2777,4993 2786,4999 2584,5467 2080,5174 2082,5143 2087,5105 2107,5010 2179,4757 2287,4446 2420,4110 2502,3925 2595,3925 Z M 2572,3902 L 2512,3902 2567,3779 2572,3769 2572,3902 Z"/>
     <path fill="rgb(226,226,226)" stroke="none" d="M 2572,3902 L 2572,3769 2717,3485 2791,3361 2861,3259 2927,3182 2958,3153 2987,3133 3045,3160 3094,3186 3189,3242 3491,3424 3289,3833 3279,3834 3269,3836 3248,3845 3225,3859 3201,3878 3151,3931 3097,3999 3043,4080 2988,4171 2886,4373 2803,4579 2773,4677 2751,4768 2740,4848 2739,4884 2741,4916 2747,4943 2756,4967 2762,4977 2769,4985 2777,4993 2786,4999 2584,5467 2080,5174 2082,5143 2087,5105 2107,5010 2179,4757 2287,4446 2420,4110 2512,3902 2572,3902 Z M 2549,3879 L 2523,3879 2549,3820 2549,3879 Z"/>
     <path fill="rgb(227,227,227)" stroke="none" d="M 2549,3879 L 2549,3820 2567,3779 2717,3485 2791,3361 2861,3259 2927,3182 2958,3153 2987,3133 3045,3160 3094,3186 3189,3242 3491,3424 3289,3833 3279,3834 3269,3836 3248,3845 3225,3859 3201,3878 3151,3931 3097,3999 3043,4080 2988,4171 2886,4373 2803,4579 2773,4677 2751,4768 2740,4848 2739,4884 2741,4916 2747,4943 2756,4967 2762,4977 2769,4985 2777,4993 2786,4999 2584,5467 2080,5174 2082,5143 2087,5105 2107,5010 2179,4757 2287,4446 2420,4110 2523,3879 2549,3879 Z"/>
     <path fill="rgb(229,229,229)" stroke="none" d="M 2987,3133 L 3045,3160 3094,3186 3189,3242 3491,3424 3289,3833 3279,3834 3269,3836 3248,3845 3225,3859 3201,3878 3151,3931 3097,3999 3043,4080 2988,4171 2886,4373 2803,4579 2773,4677 2751,4768 2740,4848 2739,4884 2741,4916 2747,4943 2756,4967 2762,4977 2769,4985 2777,4993 2786,4999 2584,5467 2080,5174 2082,5143 2087,5105 2107,5010 2179,4757 2287,4446 2420,4110 2567,3779 2717,3485 2791,3361 2861,3259 2927,3182 2958,3153 2987,3133 Z"/>
     <path fill="none" stroke="rgb(127,127,127)" id="Drawing_6_0" stroke-width="40" stroke-linejoin="round" d="M 2987,3133 C 3155,3210 3189,3249 3491,3424 3424,3560 3356,3697 3289,3833 3088,3833 2584,4883 2786,4999 2719,5156 2651,5310 2584,5467 2416,5369 2247,5272 2080,5174 2080,4883 2684,3308 2987,3133 Z"/>
    </g>
    <g>
     <path fill="none" stroke="rgb(229,229,229)" id="Drawing_7_0" stroke-width="40" stroke-linejoin="round" d="M 2583,5349 C 2381,4649 3187,3484 3389,3483"/>
    </g>
    <g>
     <path fill="none" stroke="rgb(255,255,255)" id="Drawing_8_0" stroke-width="40" stroke-linejoin="round" d="M 2684,5699 L 3692,3365"/>
    </g>
    <g>
     <path fill="rgb(255,255,255)" stroke="none" d="M 3691,4883 L 3791,4649 3893,4708 3791,4940 3691,4883 Z"/>
     <path fill="none" stroke="rgb(127,127,127)" id="Drawing_9_0" stroke-width="40" stroke-linejoin="round" d="M 3691,4883 L 3791,4649 3893,4708 3791,4940 3691,4883 Z"/>
    </g>
    <g>
     <path fill="none" stroke="rgb(127,127,127)" id="Drawing_10_0" stroke-width="40" stroke-linejoin="round" d="M 4556,4183 L 4656,4242"/>
    </g>
    <g>
     <path fill="none" stroke="rgb(127,127,127)" id="Drawing_11_0" stroke-width="40" stroke-linejoin="round" d="M 4498,4299 L 4598,4358"/>
    </g>
    <g>
     <path fill="none" stroke="rgb(127,127,127)" id="Drawing_12_0" stroke-width="40" stroke-linejoin="round" d="M 4456,4415 L 4556,4474"/>
    </g>
    <g>
     <path fill="none" stroke="rgb(127,127,127)" id="Drawing_13_0" stroke-width="40" stroke-linejoin="round" d="M 4397,4533 L 4497,4592"/>
    </g>
    <g>
     <path fill="none" stroke="rgb(127,127,127)" id="Drawing_14_0" stroke-width="40" stroke-linejoin="round" d="M 3691,3715 L 3791,3774"/>
    </g>
    <g>
     <path fill="none" stroke="rgb(127,127,127)" id="Drawing_15_0" stroke-width="40" stroke-linejoin="round" d="M 3634,3833 L 3734,3892"/>
    </g>
    <g>
     <path fill="none" stroke="rgb(127,127,127)" id="Drawing_16_0" stroke-width="40" stroke-linejoin="round" d="M 3591,3949 L 3691,4008"/>
    </g>
    <g>
     <path fill="none" stroke="rgb(127,127,127)" id="Drawing_17_0" stroke-width="40" stroke-linejoin="round" d="M 3533,4065 L 3633,4124"/>
    </g>
    <g>
     <path fill="none" stroke="rgb(127,127,127)" id="Drawing_18_0" stroke-width="40" stroke-linejoin="round" d="M 3591,4299 L 3691,4358"/>
    </g>
    <g>
     <path fill="none" stroke="rgb(127,127,127)" id="Drawing_19_0" stroke-width="40" stroke-linejoin="round" d="M 3793,4415 L 3893,4474"/>
    </g>
    <g>
     <path fill="none" stroke="rgb(127,127,127)" id="Drawing_20_0" stroke-width="40" stroke-linejoin="round" d="M 3995,4533 L 4095,4592"/>
    </g>
    <g>
     <path fill="none" stroke="rgb(127,127,127)" id="Drawing_21_0" stroke-width="40" stroke-linejoin="round" d="M 4196,4649 L 4296,4708"/>
    </g>
    <g id="DrawingGroup_3">
     <g>
      <path fill="rgb(179,179,179)" stroke="none" d="M 3920,5851 L 3450,5851 2886,5524 3188,4824 3920,5248 3920,5851 Z"/>
      <path fill="rgb(180,180,180)" stroke="none" d="M 3920,5851 L 3920,5248 4196,5408 3894,6108 3450,5851 3920,5851 Z M 3907,5838 L 3428,5838 2886,5524 3188,4824 3907,5241 3907,5838 Z"/>
      <path fill="rgb(181,181,181)" stroke="none" d="M 3907,5838 L 3907,5241 4196,5408 3894,6108 3428,5838 3907,5838 Z M 3894,5825 L 3406,5825 2886,5524 3188,4824 3894,5233 3894,5825 Z"/>
      <path fill="rgb(182,182,182)" stroke="none" d="M 3894,5825 L 3894,5233 4196,5408 3894,6108 3406,5825 3894,5825 Z M 3881,5812 L 3383,5812 2886,5524 3188,4824 3881,5226 3881,5812 Z"/>
      <path fill="rgb(183,183,183)" stroke="none" d="M 3881,5812 L 3881,5226 4196,5408 3894,6108 3383,5812 3881,5812 Z M 3868,5799 L 3361,5799 2886,5524 3188,4824 3868,5218 3868,5799 Z"/>
      <path fill="rgb(184,184,184)" stroke="none" d="M 3868,5799 L 3868,5218 4196,5408 3894,6108 3361,5799 3868,5799 Z M 3855,5786 L 3338,5786 2886,5524 3188,4824 3855,5210 3855,5786 Z"/>
      <path fill="rgb(185,185,185)" stroke="none" d="M 3855,5786 L 3855,5210 4196,5408 3894,6108 3338,5786 3855,5786 Z M 3842,5773 L 3316,5773 2886,5524 3188,4824 3842,5203 3842,5773 Z"/>
      <path fill="rgb(186,186,186)" stroke="none" d="M 3842,5773 L 3842,5203 4196,5408 3894,6108 3316,5773 3842,5773 Z M 3828,5759 L 3292,5759 2886,5524 3188,4824 3828,5195 3828,5759 Z"/>
      <path fill="rgb(187,187,187)" stroke="none" d="M 3828,5759 L 3828,5195 4196,5408 3894,6108 3292,5759 3828,5759 Z M 3815,5746 L 3269,5746 2886,5524 3188,4824 3815,5187 3815,5746 Z"/>
      <path fill="rgb(188,188,188)" stroke="none" d="M 3815,5746 L 3815,5187 4196,5408 3894,6108 3269,5746 3815,5746 Z M 3802,5733 L 3247,5733 2886,5524 3188,4824 3802,5180 3802,5733 Z"/>
      <path fill="rgb(189,189,189)" stroke="none" d="M 3802,5733 L 3802,5180 4196,5408 3894,6108 3247,5733 3802,5733 Z M 3789,5720 L 3224,5720 2886,5524 3188,4824 3789,5172 3789,5720 Z"/>
      <path fill="rgb(190,190,190)" stroke="none" d="M 3789,5720 L 3789,5172 4196,5408 3894,6108 3224,5720 3789,5720 Z M 3776,5707 L 3202,5707 2886,5524 3188,4824 3776,5165 3776,5707 Z"/>
      <path fill="rgb(191,191,191)" stroke="none" d="M 3776,5707 L 3776,5165 4196,5408 3894,6108 3202,5707 3776,5707 Z M 3763,5694 L 3179,5694 2886,5524 3188,4824 3763,5157 3763,5694 Z"/>
      <path fill="rgb(192,192,192)" stroke="none" d="M 3763,5694 L 3763,5157 4196,5408 3894,6108 3179,5694 3763,5694 Z M 3750,5681 L 3157,5681 2886,5524 3188,4824 3750,5150 3750,5681 Z"/>
      <path fill="rgb(193,193,193)" stroke="none" d="M 3750,5681 L 3750,5150 4196,5408 3894,6108 3157,5681 3750,5681 Z M 3737,5668 L 3135,5668 2886,5524 3188,4824 3737,5142 3737,5668 Z"/>
      <path fill="rgb(194,194,194)" stroke="none" d="M 3737,5668 L 3737,5142 4196,5408 3894,6108 3135,5668 3737,5668 Z M 3723,5654 L 3110,5654 2886,5524 3188,4824 3723,5134 3723,5654 Z"/>
      <path fill="rgb(195,195,195)" stroke="none" d="M 3723,5654 L 3723,5134 4196,5408 3894,6108 3110,5654 3723,5654 Z M 3710,5641 L 3088,5641 2886,5524 3188,4824 3710,5126 3710,5641 Z"/>
      <path fill="rgb(196,196,196)" stroke="none" d="M 3710,5641 L 3710,5126 4196,5408 3894,6108 3088,5641 3710,5641 Z M 3697,5628 L 3066,5628 2886,5524 3188,4824 3697,5119 3697,5628 Z"/>
      <path fill="rgb(197,197,197)" stroke="none" d="M 3697,5628 L 3697,5119 4196,5408 3894,6108 3066,5628 3697,5628 Z M 3684,5615 L 3043,5615 2886,5524 3188,4824 3684,5111 3684,5615 Z"/>
      <path fill="rgb(198,198,198)" stroke="none" d="M 3684,5615 L 3684,5111 4196,5408 3894,6108 3043,5615 3684,5615 Z M 3671,5602 L 3021,5602 2886,5524 3188,4824 3671,5104 3671,5602 Z"/>
      <path fill="rgb(199,199,199)" stroke="none" d="M 3671,5602 L 3671,5104 4196,5408 3894,6108 3021,5602 3671,5602 Z M 3195,4828 L 3658,5096 3658,5589 2998,5589 2897,5530 2897,5499 3186,4828 3195,4828 Z"/>
      <path fill="rgb(200,200,200)" stroke="none" d="M 2897,5530 L 2886,5524 2897,5499 2897,5530 Z M 3658,5589 L 3658,5096 4196,5408 3894,6108 2998,5589 3658,5589 Z M 3186,4828 L 3188,4824 3195,4828 3186,4828 Z M 3217,4841 L 3645,5089 3645,5576 2976,5576 2910,5538 2910,5468 3181,4841 3217,4841 Z"/>
      <path fill="rgb(201,201,201)" stroke="none" d="M 2910,5538 L 2886,5524 2910,5468 2910,5538 Z M 3645,5576 L 3645,5089 4196,5408 3894,6108 2976,5576 3645,5576 Z M 3181,4841 L 3188,4824 3217,4841 3181,4841 Z M 3240,4854 L 3632,5081 3632,5563 2953,5563 2923,5545 2923,5438 3175,4854 3240,4854 Z"/>
      <path fill="rgb(202,202,202)" stroke="none" d="M 2923,5545 L 2886,5524 2923,5438 2923,5545 Z M 3632,5563 L 3632,5081 4196,5408 3894,6108 2953,5563 3632,5563 Z M 3175,4854 L 3188,4824 3240,4854 3175,4854 Z M 3264,4868 L 3618,5073 3618,5549 2937,5549 2937,5406 3169,4868 3264,4868 Z"/>
      <path fill="rgb(203,203,203)" stroke="none" d="M 2937,5549 L 3618,5549 3618,5073 4196,5408 3894,6108 2886,5524 2937,5406 2937,5549 Z M 3169,4868 L 3188,4824 3264,4868 3169,4868 Z M 3286,4881 L 3605,5066 3605,5536 2950,5536 2950,5376 3163,4881 3286,4881 Z"/>
      <path fill="rgb(204,204,204)" stroke="none" d="M 2950,5536 L 3605,5536 3605,5066 4196,5408 3894,6108 2886,5524 2950,5376 2950,5536 Z M 3163,4881 L 3188,4824 3286,4881 3163,4881 Z M 3309,4894 L 3592,5058 3592,5523 2963,5523 2963,5346 3158,4894 3309,4894 Z"/>
      <path fill="rgb(205,205,205)" stroke="none" d="M 2963,5523 L 3592,5523 3592,5058 4196,5408 3894,6108 2886,5524 2963,5346 2963,5523 Z M 3158,4894 L 3188,4824 3309,4894 3158,4894 Z M 3331,4907 L 3579,5051 3579,5510 2976,5510 2976,5315 3152,4907 3331,4907 Z"/>
      <path fill="rgb(206,206,206)" stroke="none" d="M 2976,5510 L 3579,5510 3579,5051 4196,5408 3894,6108 2886,5524 2976,5315 2976,5510 Z M 3152,4907 L 3188,4824 3331,4907 3152,4907 Z M 3354,4920 L 3566,5043 3566,5497 2989,5497 2989,5285 3147,4920 3354,4920 Z"/>
      <path fill="rgb(207,207,207)" stroke="none" d="M 2989,5497 L 3566,5497 3566,5043 4196,5408 3894,6108 2886,5524 2989,5285 2989,5497 Z M 3147,4920 L 3188,4824 3354,4920 3147,4920 Z M 3376,4933 L 3553,5035 3553,5484 3002,5484 3002,5255 3141,4933 3376,4933 Z"/>
      <path fill="rgb(208,208,208)" stroke="none" d="M 3002,5484 L 3553,5484 3553,5035 4196,5408 3894,6108 2886,5524 3002,5255 3002,5484 Z M 3141,4933 L 3188,4824 3376,4933 3141,4933 Z M 3399,4946 L 3540,5028 3540,5471 3015,5471 3015,5225 3135,4946 3399,4946 Z"/>
      <path fill="rgb(209,209,209)" stroke="none" d="M 3015,5471 L 3540,5471 3540,5028 4196,5408 3894,6108 2886,5524 3015,5225 3015,5471 Z M 3135,4946 L 3188,4824 3399,4946 3135,4946 Z M 3423,4960 L 3526,5020 3526,5457 3029,5457 3029,5193 3129,4960 3423,4960 Z"/>
      <path fill="rgb(210,210,210)" stroke="none" d="M 3029,5457 L 3526,5457 3526,5020 4196,5408 3894,6108 2886,5524 3029,5193 3029,5457 Z M 3129,4960 L 3188,4824 3423,4960 3129,4960 Z M 3445,4973 L 3513,5012 3513,5444 3042,5444 3042,5162 3124,4973 3445,4973 Z"/>
      <path fill="rgb(211,211,211)" stroke="none" d="M 3042,5444 L 3513,5444 3513,5012 4196,5408 3894,6108 2886,5524 3042,5162 3042,5444 Z M 3124,4973 L 3188,4824 3445,4973 3124,4973 Z M 3468,4986 L 3500,5005 3500,5431 3055,5431 3055,5132 3118,4986 3468,4986 Z"/>
      <path fill="rgb(212,212,212)" stroke="none" d="M 3055,5431 L 3500,5431 3500,5005 4196,5408 3894,6108 2886,5524 3055,5132 3055,5431 Z M 3118,4986 L 3188,4824 3468,4986 3118,4986 Z M 3487,4999 L 3487,5418 3068,5418 3068,5102 3113,4999 3487,4999 Z"/>
      <path fill="rgb(213,213,213)" stroke="none" d="M 3068,5418 L 3487,5418 3487,4999 3113,4999 3188,4824 4196,5408 3894,6108 2886,5524 3068,5102 3068,5418 Z M 3474,5012 L 3474,5405 3081,5405 3081,5072 3107,5012 3474,5012 Z"/>
      <path fill="rgb(214,214,214)" stroke="none" d="M 3081,5405 L 3474,5405 3474,5012 3107,5012 3188,4824 4196,5408 3894,6108 2886,5524 3081,5072 3081,5405 Z M 3461,5025 L 3461,5392 3094,5392 3094,5042 3101,5025 3461,5025 Z"/>
      <path fill="rgb(215,215,215)" stroke="none" d="M 3094,5392 L 3461,5392 3461,5025 3101,5025 3188,4824 4196,5408 3894,6108 2886,5524 3094,5042 3094,5392 Z M 3107,5038 L 3448,5038 3448,5379 3107,5379 3107,5038 Z"/>
      <path fill="rgb(216,216,216)" stroke="none" d="M 3107,5038 L 3107,5379 3448,5379 3448,5038 3107,5038 Z M 3120,5051 L 3435,5051 3435,5366 3120,5366 3120,5051 Z M 2886,5524 L 3188,4824 4196,5408 3894,6108 2886,5524 Z"/>
      <path fill="rgb(217,217,217)" stroke="none" d="M 3120,5051 L 3120,5366 3435,5366 3435,5051 3120,5051 Z M 3134,5065 L 3421,5065 3421,5352 3134,5352 3134,5065 Z M 2886,5524 L 3188,4824 4196,5408 3894,6108 2886,5524 Z"/>
      <path fill="rgb(218,218,218)" stroke="none" d="M 3134,5065 L 3134,5352 3421,5352 3421,5065 3134,5065 Z M 3147,5078 L 3408,5078 3408,5339 3147,5339 3147,5078 Z M 2886,5524 L 3188,4824 4196,5408 3894,6108 2886,5524 Z"/>
      <path fill="rgb(219,219,219)" stroke="none" d="M 3147,5078 L 3147,5339 3408,5339 3408,5078 3147,5078 Z M 3160,5091 L 3395,5091 3395,5326 3160,5326 3160,5091 Z M 2886,5524 L 3188,4824 4196,5408 3894,6108 2886,5524 Z"/>
      <path fill="rgb(220,220,220)" stroke="none" d="M 3160,5091 L 3160,5326 3395,5326 3395,5091 3160,5091 Z M 3173,5104 L 3382,5104 3382,5313 3173,5313 3173,5104 Z M 2886,5524 L 3188,4824 4196,5408 3894,6108 2886,5524 Z"/>
      <path fill="rgb(221,221,221)" stroke="none" d="M 3173,5104 L 3173,5313 3382,5313 3382,5104 3173,5104 Z M 3186,5117 L 3369,5117 3369,5300 3186,5300 3186,5117 Z M 2886,5524 L 3188,4824 4196,5408 3894,6108 2886,5524 Z"/>
      <path fill="rgb(222,222,222)" stroke="none" d="M 3186,5117 L 3186,5300 3369,5300 3369,5117 3186,5117 Z M 3199,5130 L 3356,5130 3356,5287 3199,5287 3199,5130 Z M 2886,5524 L 3188,4824 4196,5408 3894,6108 2886,5524 Z"/>
      <path fill="rgb(223,223,223)" stroke="none" d="M 3199,5130 L 3199,5287 3356,5287 3356,5130 3199,5130 Z M 3212,5143 L 3343,5143 3343,5274 3212,5274 3212,5143 Z M 2886,5524 L 3188,4824 4196,5408 3894,6108 2886,5524 Z"/>
      <path fill="rgb(224,224,224)" stroke="none" d="M 3212,5143 L 3212,5274 3343,5274 3343,5143 3212,5143 Z M 3225,5156 L 3330,5156 3330,5261 3225,5261 3225,5156 Z M 2886,5524 L 3188,4824 4196,5408 3894,6108 2886,5524 Z"/>
      <path fill="rgb(225,225,225)" stroke="none" d="M 3225,5156 L 3225,5261 3330,5261 3330,5156 3225,5156 Z M 3239,5170 L 3316,5170 3316,5247 3239,5247 3239,5170 Z M 2886,5524 L 3188,4824 4196,5408 3894,6108 2886,5524 Z"/>
      <path fill="rgb(226,226,226)" stroke="none" d="M 3239,5170 L 3239,5247 3316,5247 3316,5170 3239,5170 Z M 3252,5183 L 3303,5183 3303,5234 3252,5234 3252,5183 Z M 2886,5524 L 3188,4824 4196,5408 3894,6108 2886,5524 Z"/>
      <path fill="rgb(227,227,227)" stroke="none" d="M 3252,5183 L 3252,5234 3303,5234 3303,5183 3252,5183 Z M 3265,5196 L 3290,5196 3290,5221 3265,5221 3265,5196 Z M 2886,5524 L 3188,4824 4196,5408 3894,6108 2886,5524 Z"/>
      <path fill="rgb(229,229,229)" stroke="none" d="M 3265,5196 L 3265,5221 3290,5221 3290,5196 3265,5196 Z M 2886,5524 L 3188,4824 4196,5408 3894,6108 2886,5524 Z"/>
      <path fill="none" stroke="rgb(127,127,127)" id="Drawing_22_0" stroke-width="40" stroke-linejoin="round" d="M 2886,5524 L 3188,4824 4196,5408 3894,6108 2886,5524 Z"/>
     </g>
     <g>
      <path fill="none" stroke="rgb(127,127,127)" id="Drawing_23_0" stroke-width="40" stroke-linejoin="round" d="M 2987,5290 L 3995,5874"/>
     </g>
     <g>
      <path fill="none" stroke="rgb(127,127,127)" id="Drawing_24_0" stroke-width="40" stroke-linejoin="round" d="M 4095,5642 L 3087,5058"/>
     </g>
     <g>
      <path fill="none" stroke="rgb(127,127,127)" id="Drawing_25_0" stroke-width="40" stroke-linejoin="round" d="M 3389,4940 L 3087,5640"/>
     </g>
     <g>
      <path fill="none" stroke="rgb(127,127,127)" id="Drawing_26_0" stroke-width="40" stroke-linejoin="round" d="M 3591,5058 L 3289,5758"/>
     </g>
     <g>
      <path fill="none" stroke="rgb(127,127,127)" id="Drawing_27_0" stroke-width="40" stroke-linejoin="round" d="M 3793,5174 L 3491,5874"/>
     </g>
     <g>
      <path fill="none" stroke="rgb(127,127,127)" id="Drawing_28_0" stroke-width="40" stroke-linejoin="round" d="M 3993,5290 L 3691,5990"/>
     </g>
    </g>
    <g>
     <path fill="none" stroke="rgb(0,0,0)" id="Drawing_29_0" stroke-width="40" stroke-linejoin="round" d="M 1878,5233 L 2886,2899 4901,4065 4901,4415 4800,4649 4800,5758 4196,6108 4095,6283 3893,6399 1878,5233 Z"/>
    </g>
   </g>
  </g>
 </g>
</svg>