<?xml version="1.0" encoding="UTF-8"?>

<svg version="1.2" baseProfile="tiny" width="19.99mm" height="31.9mm" viewBox="9169 11936 1999 3190" preserveAspectRatio="xMidYMid" fill-rule="evenodd" stroke-width="28.222" stroke-linejoin="round" xmlns="http://www.w3.org/2000/svg" xmlns:xlink="http://www.w3.org/1999/xlink" xml:space="preserve">
 <g visibility="visible" id="Slide_1">
  <g id="DrawingGroup_1">
   <g>
    <path fill="rgb(221,221,221)" stroke="none" d="M 10159,15106 C 10540,15106 10886,15036 11008,14966 11130,14896 11251,14686 11008,14686 11023,14717 10159,15106 10159,15106 Z"/>
    <path fill="none" stroke="rgb(221,221,221)" id="Drawing_1_0" stroke-width="40" stroke-linejoin="round" d="M 10159,15106 C 10540,15106 10886,15036 11008,14966 11130,14896 11251,14686 11008,14686 11023,14717 10159,15106 10159,15106 Z"/>
   </g>
   <g id="DrawingGroup_2">
    <g>
     <defs>
      <linearGradient id="Gradient_100" gradientUnits="userSpaceOnUse" x1="10098" y1="11956" x2="10098" y2="13006">
       <stop offset="0.1" stop-color="rgb(51,51,51)"/>
       <stop offset="1" stop-color="rgb(153,153,153)"/>
      </linearGradient>
     </defs>
     <path fill="url(#Gradient_100)" stroke="rgb(178,178,178)" id="Drawing_2_0" stroke-width="40" stroke-linejoin="round" d="M 10644,13006 L 11007,12796 9552,11956 9189,12166 10644,13006 Z"/>
    </g>
    <g>
     <path fill="rgb(57,181,74)" stroke="none" d="M 10869,13374 L 10869,13133 10730,13213 10730,13454 10869,13374 Z"/>
     <path fill="none" stroke="rgb(51,51,51)" id="Drawing_3_0" stroke-width="40" stroke-linejoin="round" d="M 10869,13374 L 10869,13133 10730,13213 10730,13454 10869,13374 Z"/>
    </g>
    <g>
     <path fill="rgb(102,102,102)" stroke="none" d="M 10639,14829 L 10239,15060 10159,15060 10159,14966 10639,14689 10639,14829 Z"/>
     <path fill="rgb(103,103,103)" stroke="none" d="M 10239,15060 L 10159,15106 10159,15060 10239,15060 Z M 10639,14689 L 10766,14616 10766,14756 10639,14829 10639,14689 Z M 10633,14833 L 10249,15054 10159,15054 10159,14966 10633,14693 10633,14833 Z"/>
     <path fill="rgb(104,104,104)" stroke="none" d="M 10249,15054 L 10159,15106 10159,15054 10249,15054 Z M 10633,14693 L 10766,14616 10766,14756 10633,14833 10633,14693 Z M 10627,14836 L 10260,15048 10159,15048 10159,14966 10627,14696 10627,14836 Z"/>
     <path fill="rgb(105,105,105)" stroke="none" d="M 10260,15048 L 10159,15106 10159,15048 10260,15048 Z M 10627,14696 L 10766,14616 10766,14756 10627,14836 10627,14696 Z M 10621,14840 L 10270,15042 10159,15042 10159,14966 10621,14700 10621,14840 Z"/>
     <path fill="rgb(106,106,106)" stroke="none" d="M 10270,15042 L 10159,15106 10159,15042 10270,15042 Z M 10621,14700 L 10766,14616 10766,14756 10621,14840 10621,14700 Z M 10615,14843 L 10280,15036 10159,15036 10159,14966 10615,14703 10615,14843 Z"/>
     <path fill="rgb(107,107,107)" stroke="none" d="M 10280,15036 L 10159,15106 10159,15036 10280,15036 Z M 10615,14703 L 10766,14616 10766,14756 10615,14843 10615,14703 Z M 10609,14847 L 10291,15030 10159,15030 10159,14966 10609,14707 10609,14847 Z"/>
     <path fill="rgb(108,108,108)" stroke="none" d="M 10291,15030 L 10159,15106 10159,15030 10291,15030 Z M 10609,14707 L 10766,14616 10766,14756 10609,14847 10609,14707 Z M 10603,14850 L 10301,15024 10159,15024 10159,14966 10603,14710 10603,14850 Z"/>
     <path fill="rgb(109,109,109)" stroke="none" d="M 10301,15024 L 10159,15106 10159,15024 10301,15024 Z M 10603,14710 L 10766,14616 10766,14756 10603,14850 10603,14710 Z M 10597,14853 L 10312,15018 10159,15018 10159,14966 10597,14713 10597,14853 Z"/>
     <path fill="rgb(110,110,110)" stroke="none" d="M 10312,15018 L 10159,15106 10159,15018 10312,15018 Z M 10597,14713 L 10766,14616 10766,14756 10597,14853 10597,14713 Z M 10591,14857 L 10322,15012 10159,15012 10159,14966 10591,14717 10591,14857 Z"/>
     <path fill="rgb(111,111,111)" stroke="none" d="M 10322,15012 L 10159,15106 10159,15012 10322,15012 Z M 10591,14717 L 10766,14616 10766,14756 10591,14857 10591,14717 Z M 10585,14860 L 10332,15006 10159,15006 10159,14966 10585,14720 10585,14860 Z"/>
     <path fill="rgb(112,112,112)" stroke="none" d="M 10332,15006 L 10159,15106 10159,15006 10332,15006 Z M 10585,14720 L 10766,14616 10766,14756 10585,14860 10585,14720 Z M 10579,14864 L 10343,15000 10159,15000 10159,14966 10579,14724 10579,14864 Z"/>
     <path fill="rgb(113,113,113)" stroke="none" d="M 10343,15000 L 10159,15106 10159,15000 10343,15000 Z M 10579,14724 L 10766,14616 10766,14756 10579,14864 10579,14724 Z M 10573,14867 L 10353,14994 10159,14994 10159,14966 10573,14727 10573,14867 Z"/>
     <path fill="rgb(114,114,114)" stroke="none" d="M 10353,14994 L 10159,15106 10159,14994 10353,14994 Z M 10573,14727 L 10766,14616 10766,14756 10573,14867 10573,14727 Z M 10567,14871 L 10364,14988 10159,14988 10159,14966 10567,14731 10567,14871 Z"/>
     <path fill="rgb(115,115,115)" stroke="none" d="M 10364,14988 L 10159,15106 10159,14988 10364,14988 Z M 10567,14731 L 10766,14616 10766,14756 10567,14871 10567,14731 Z M 10561,14874 L 10374,14982 10159,14982 10159,14966 10561,14734 10561,14874 Z"/>
     <path fill="rgb(116,116,116)" stroke="none" d="M 10374,14982 L 10159,15106 10159,14982 10374,14982 Z M 10561,14734 L 10766,14616 10766,14756 10561,14874 10561,14734 Z M 10555,14878 L 10384,14976 10159,14976 10159,14966 10555,14738 10555,14878 Z"/>
     <path fill="rgb(117,117,117)" stroke="none" d="M 10384,14976 L 10159,15106 10159,14976 10384,14976 Z M 10555,14738 L 10766,14616 10766,14756 10555,14878 10555,14738 Z M 10549,14881 L 10395,14970 10159,14970 10159,14966 10549,14741 10549,14881 Z"/>
     <path fill="rgb(118,118,118)" stroke="none" d="M 10395,14970 L 10159,15106 10159,14970 10395,14970 Z M 10549,14741 L 10766,14616 10766,14756 10549,14881 10549,14741 Z M 10543,14885 L 10405,14964 10162,14964 10543,14745 10543,14885 Z"/>
     <path fill="rgb(119,119,119)" stroke="none" d="M 10405,14964 L 10159,15106 10159,14966 10162,14964 10405,14964 Z M 10543,14745 L 10766,14616 10766,14756 10543,14885 10543,14745 Z M 10537,14888 L 10416,14958 10173,14958 10537,14748 10537,14888 Z"/>
     <path fill="rgb(120,120,120)" stroke="none" d="M 10416,14958 L 10159,15106 10159,14966 10173,14958 10416,14958 Z M 10537,14748 L 10766,14616 10766,14756 10537,14888 10537,14748 Z M 10531,14892 L 10426,14952 10183,14952 10531,14752 10531,14892 Z"/>
     <path fill="rgb(121,121,121)" stroke="none" d="M 10426,14952 L 10159,15106 10159,14966 10183,14952 10426,14952 Z M 10531,14752 L 10766,14616 10766,14756 10531,14892 10531,14752 Z M 10525,14895 L 10436,14946 10194,14946 10525,14755 10525,14895 Z"/>
     <path fill="rgb(122,122,122)" stroke="none" d="M 10436,14946 L 10159,15106 10159,14966 10194,14946 10436,14946 Z M 10525,14755 L 10766,14616 10766,14756 10525,14895 10525,14755 Z M 10519,14898 L 10447,14940 10204,14940 10519,14758 10519,14898 Z"/>
     <path fill="rgb(123,123,123)" stroke="none" d="M 10447,14940 L 10159,15106 10159,14966 10204,14940 10447,14940 Z M 10519,14758 L 10766,14616 10766,14756 10519,14898 10519,14758 Z M 10513,14902 L 10457,14934 10214,14934 10513,14762 10513,14902 Z"/>
     <path fill="rgb(124,124,124)" stroke="none" d="M 10457,14934 L 10159,15106 10159,14966 10214,14934 10457,14934 Z M 10513,14762 L 10766,14616 10766,14756 10513,14902 10513,14762 Z M 10507,14905 L 10468,14928 10225,14928 10507,14765 10507,14905 Z"/>
     <path fill="rgb(125,125,125)" stroke="none" d="M 10468,14928 L 10159,15106 10159,14966 10225,14928 10468,14928 Z M 10507,14765 L 10766,14616 10766,14756 10507,14905 10507,14765 Z M 10501,14909 L 10478,14922 10235,14922 10501,14769 10501,14909 Z"/>
     <path fill="rgb(126,126,126)" stroke="none" d="M 10478,14922 L 10159,15106 10159,14966 10235,14922 10478,14922 Z M 10501,14769 L 10766,14616 10766,14756 10501,14909 10501,14769 Z M 10495,14912 L 10489,14916 10246,14916 10495,14772 10495,14912 Z"/>
     <path fill="rgb(127,127,127)" stroke="none" d="M 10489,14916 L 10159,15106 10159,14966 10246,14916 10489,14916 Z M 10495,14772 L 10766,14616 10766,14756 10495,14912 10495,14772 Z M 10489,14910 L 10256,14910 10489,14776 10489,14910 Z"/>
     <path fill="rgb(128,128,128)" stroke="none" d="M 10489,14910 L 10489,14776 10766,14616 10766,14756 10159,15106 10159,14966 10256,14910 10489,14910 Z M 10483,14904 L 10267,14904 10483,14779 10483,14904 Z"/>
     <path fill="rgb(129,129,129)" stroke="none" d="M 10483,14904 L 10483,14779 10766,14616 10766,14756 10159,15106 10159,14966 10267,14904 10483,14904 Z M 10477,14898 L 10277,14898 10477,14783 10477,14898 Z"/>
     <path fill="rgb(130,130,130)" stroke="none" d="M 10477,14898 L 10477,14783 10766,14616 10766,14756 10159,15106 10159,14966 10277,14898 10477,14898 Z M 10471,14892 L 10287,14892 10471,14786 10471,14892 Z"/>
     <path fill="rgb(131,131,131)" stroke="none" d="M 10471,14892 L 10471,14786 10766,14616 10766,14756 10159,15106 10159,14966 10287,14892 10471,14892 Z M 10465,14886 L 10298,14886 10465,14790 10465,14886 Z"/>
     <path fill="rgb(132,132,132)" stroke="none" d="M 10465,14886 L 10465,14790 10766,14616 10766,14756 10159,15106 10159,14966 10298,14886 10465,14886 Z M 10459,14880 L 10308,14880 10459,14793 10459,14880 Z"/>
     <path fill="rgb(133,133,133)" stroke="none" d="M 10459,14880 L 10459,14793 10766,14616 10766,14756 10159,15106 10159,14966 10308,14880 10459,14880 Z M 10453,14874 L 10319,14874 10453,14796 10453,14874 Z"/>
     <path fill="rgb(134,134,134)" stroke="none" d="M 10453,14874 L 10453,14796 10766,14616 10766,14756 10159,15106 10159,14966 10319,14874 10453,14874 Z M 10447,14868 L 10329,14868 10447,14800 10447,14868 Z"/>
     <path fill="rgb(135,135,135)" stroke="none" d="M 10447,14868 L 10447,14800 10766,14616 10766,14756 10159,15106 10159,14966 10329,14868 10447,14868 Z M 10441,14862 L 10339,14862 10441,14803 10441,14862 Z"/>
     <path fill="rgb(136,136,136)" stroke="none" d="M 10441,14862 L 10441,14803 10766,14616 10766,14756 10159,15106 10159,14966 10339,14862 10441,14862 Z M 10435,14856 L 10350,14856 10435,14807 10435,14856 Z"/>
     <path fill="rgb(137,137,137)" stroke="none" d="M 10435,14856 L 10435,14807 10766,14616 10766,14756 10159,15106 10159,14966 10350,14856 10435,14856 Z M 10429,14850 L 10360,14850 10429,14810 10429,14850 Z"/>
     <path fill="rgb(138,138,138)" stroke="none" d="M 10429,14850 L 10429,14810 10766,14616 10766,14756 10159,15106 10159,14966 10360,14850 10429,14850 Z M 10423,14844 L 10371,14844 10423,14814 10423,14844 Z"/>
     <path fill="rgb(139,139,139)" stroke="none" d="M 10423,14844 L 10423,14814 10766,14616 10766,14756 10159,15106 10159,14966 10371,14844 10423,14844 Z M 10417,14838 L 10381,14838 10417,14817 10417,14838 Z"/>
     <path fill="rgb(140,140,140)" stroke="none" d="M 10417,14838 L 10417,14817 10766,14616 10766,14756 10159,15106 10159,14966 10381,14838 10417,14838 Z M 10411,14832 L 10391,14832 10411,14821 10411,14832 Z"/>
     <path fill="rgb(141,141,141)" stroke="none" d="M 10411,14832 L 10411,14821 10766,14616 10766,14756 10159,15106 10159,14966 10391,14832 10411,14832 Z M 10405,14826 L 10402,14826 10405,14824 10405,14826 Z"/>
     <path fill="rgb(142,142,142)" stroke="none" d="M 10405,14826 L 10405,14824 10766,14616 10766,14756 10159,15106 10159,14966 10402,14826 10405,14826 Z"/>
     <path fill="rgb(143,143,143)" stroke="none" d="M 10766,14756 L 10159,15106 10159,14966 10766,14616 10766,14756 Z"/>
     <path fill="rgb(144,144,144)" stroke="none" d="M 10766,14756 L 10159,15106 10159,14966 10766,14616 10766,14756 Z"/>
     <path fill="rgb(145,145,145)" stroke="none" d="M 10766,14756 L 10159,15106 10159,14966 10766,14616 10766,14756 Z"/>
     <path fill="rgb(146,146,146)" stroke="none" d="M 10766,14756 L 10159,15106 10159,14966 10766,14616 10766,14756 Z"/>
     <path fill="rgb(147,147,147)" stroke="none" d="M 10766,14756 L 10159,15106 10159,14966 10766,14616 10766,14756 Z"/>
     <path fill="rgb(148,148,148)" stroke="none" d="M 10766,14756 L 10159,15106 10159,14966 10766,14616 10766,14756 Z"/>
     <path fill="rgb(149,149,149)" stroke="none" d="M 10766,14756 L 10159,15106 10159,14966 10766,14616 10766,14756 Z"/>
     <path fill="rgb(150,150,150)" stroke="none" d="M 10766,14756 L 10159,15106 10159,14966 10766,14616 10766,14756 Z"/>
     <path fill="rgb(151,151,151)" stroke="none" d="M 10766,14756 L 10159,15106 10159,14966 10766,14616 10766,14756 Z"/>
     <path fill="rgb(153,153,153)" stroke="none" d="M 10766,14756 L 10159,15106 10159,14966 10766,14616 10766,14756 Z"/>
     <path fill="none" stroke="rgb(178,178,178)" id="Drawing_4_0" stroke-width="40" stroke-linejoin="round" d="M 10766,14756 L 10766,14616 10159,14966 10159,15106 10766,14756 Z"/>
    </g>
    <g>
     <path fill="rgb(102,102,102)" stroke="none" d="M 10644,14621 L 10644,13006 11007,12796 11007,14621 10644,14621 Z"/>
     <path fill="rgb(103,103,103)" stroke="none" d="M 11007,14621 L 11007,14896 10644,15106 10644,14621 11007,14621 Z M 10644,14598 L 10644,13006 11007,12796 11007,14598 10644,14598 Z"/>
     <path fill="rgb(104,104,104)" stroke="none" d="M 11007,14598 L 11007,14896 10644,15106 10644,14598 11007,14598 Z M 10644,14575 L 10644,13006 11007,12796 11007,14575 10644,14575 Z"/>
     <path fill="rgb(105,105,105)" stroke="none" d="M 11007,14575 L 11007,14896 10644,15106 10644,14575 11007,14575 Z M 10644,14553 L 10644,13006 11007,12796 11007,14553 10644,14553 Z"/>
     <path fill="rgb(106,106,106)" stroke="none" d="M 11007,14553 L 11007,14896 10644,15106 10644,14553 11007,14553 Z M 10644,14530 L 10644,13006 11007,12796 11007,14530 10644,14530 Z"/>
     <path fill="rgb(107,107,107)" stroke="none" d="M 11007,14530 L 11007,14896 10644,15106 10644,14530 11007,14530 Z M 10644,14507 L 10644,13006 11007,12796 11007,14507 10644,14507 Z"/>
     <path fill="rgb(108,108,108)" stroke="none" d="M 11007,14507 L 11007,14896 10644,15106 10644,14507 11007,14507 Z M 10644,14485 L 10644,13006 11007,12796 11007,14485 10644,14485 Z"/>
     <path fill="rgb(109,109,109)" stroke="none" d="M 11007,14485 L 11007,14896 10644,15106 10644,14485 11007,14485 Z M 10644,14462 L 10644,13006 11007,12796 11007,14462 10644,14462 Z"/>
     <path fill="rgb(110,110,110)" stroke="none" d="M 11007,14462 L 11007,14896 10644,15106 10644,14462 11007,14462 Z M 10644,14439 L 10644,13006 11007,12796 11007,14439 10644,14439 Z"/>
     <path fill="rgb(111,111,111)" stroke="none" d="M 11007,14439 L 11007,14896 10644,15106 10644,14439 11007,14439 Z M 10644,14417 L 10644,13006 11007,12796 11007,14417 10644,14417 Z"/>
     <path fill="rgb(112,112,112)" stroke="none" d="M 11007,14417 L 11007,14896 10644,15106 10644,14417 11007,14417 Z M 10644,14394 L 10644,13006 11007,12796 11007,14394 10644,14394 Z"/>
     <path fill="rgb(113,113,113)" stroke="none" d="M 11007,14394 L 11007,14896 10644,15106 10644,14394 11007,14394 Z M 10644,14371 L 10644,13006 11007,12796 11007,14371 10644,14371 Z"/>
     <path fill="rgb(114,114,114)" stroke="none" d="M 11007,14371 L 11007,14896 10644,15106 10644,14371 11007,14371 Z M 10644,14349 L 10644,13006 11007,12796 11007,14349 10644,14349 Z"/>
     <path fill="rgb(115,115,115)" stroke="none" d="M 11007,14349 L 11007,14896 10644,15106 10644,14349 11007,14349 Z M 10644,14326 L 10644,13006 11007,12796 11007,14326 10644,14326 Z"/>
     <path fill="rgb(116,116,116)" stroke="none" d="M 11007,14326 L 11007,14896 10644,15106 10644,14326 11007,14326 Z M 10644,14303 L 10644,13006 11007,12796 11007,14303 10644,14303 Z"/>
     <path fill="rgb(117,117,117)" stroke="none" d="M 11007,14303 L 11007,14896 10644,15106 10644,14303 11007,14303 Z M 10644,14281 L 10644,13006 11007,12796 11007,14281 10644,14281 Z"/>
     <path fill="rgb(118,118,118)" stroke="none" d="M 11007,14281 L 11007,14896 10644,15106 10644,14281 11007,14281 Z M 10644,14258 L 10644,13006 11007,12796 11007,14258 10644,14258 Z"/>
     <path fill="rgb(119,119,119)" stroke="none" d="M 11007,14258 L 11007,14896 10644,15106 10644,14258 11007,14258 Z M 10644,14235 L 10644,13006 11007,12796 11007,14235 10644,14235 Z"/>
     <path fill="rgb(120,120,120)" stroke="none" d="M 11007,14235 L 11007,14896 10644,15106 10644,14235 11007,14235 Z M 10644,14213 L 10644,13006 11007,12796 11007,14213 10644,14213 Z"/>
     <path fill="rgb(121,121,121)" stroke="none" d="M 11007,14213 L 11007,14896 10644,15106 10644,14213 11007,14213 Z M 10644,14190 L 10644,13006 11007,12796 11007,14190 10644,14190 Z"/>
     <path fill="rgb(122,122,122)" stroke="none" d="M 11007,14190 L 11007,14896 10644,15106 10644,14190 11007,14190 Z M 11007,12808 L 11007,14167 10644,14167 10644,13006 10986,12808 11007,12808 Z"/>
     <path fill="rgb(123,123,123)" stroke="none" d="M 11007,14167 L 11007,14896 10644,15106 10644,14167 11007,14167 Z M 10986,12808 L 11007,12796 11007,12808 10986,12808 Z M 11007,12830 L 11007,14145 10644,14145 10644,13006 10948,12830 11007,12830 Z"/>
     <path fill="rgb(124,124,124)" stroke="none" d="M 11007,14145 L 11007,14896 10644,15106 10644,14145 11007,14145 Z M 10948,12830 L 11007,12796 11007,12830 10948,12830 Z M 11007,12853 L 11007,14122 10644,14122 10644,13006 10908,12853 11007,12853 Z"/>
     <path fill="rgb(125,125,125)" stroke="none" d="M 11007,14122 L 11007,14896 10644,15106 10644,14122 11007,14122 Z M 10908,12853 L 11007,12796 11007,12853 10908,12853 Z M 11007,12876 L 11007,14099 10644,14099 10644,13006 10869,12876 11007,12876 Z"/>
     <path fill="rgb(126,126,126)" stroke="none" d="M 11007,14099 L 11007,14896 10644,15106 10644,14099 11007,14099 Z M 10869,12876 L 11007,12796 11007,12876 10869,12876 Z M 11007,12898 L 11007,14077 10644,14077 10644,13006 10831,12898 11007,12898 Z"/>
     <path fill="rgb(127,127,127)" stroke="none" d="M 11007,14077 L 11007,14896 10644,15106 10644,14077 11007,14077 Z M 10831,12898 L 11007,12796 11007,12898 10831,12898 Z M 11007,12921 L 11007,14054 10644,14054 10644,13006 10791,12921 11007,12921 Z"/>
     <path fill="rgb(128,128,128)" stroke="none" d="M 11007,14054 L 11007,14896 10644,15106 10644,14054 11007,14054 Z M 10791,12921 L 11007,12796 11007,12921 10791,12921 Z M 11007,12944 L 11007,14031 10644,14031 10644,13006 10751,12944 11007,12944 Z"/>
     <path fill="rgb(129,129,129)" stroke="none" d="M 11007,14031 L 11007,14896 10644,15106 10644,14031 11007,14031 Z M 10751,12944 L 11007,12796 11007,12944 10751,12944 Z M 11007,12966 L 11007,14009 10644,14009 10644,13006 10713,12966 11007,12966 Z"/>
     <path fill="rgb(130,130,130)" stroke="none" d="M 11007,14009 L 11007,14896 10644,15106 10644,14009 11007,14009 Z M 10713,12966 L 11007,12796 11007,12966 10713,12966 Z M 11007,12989 L 11007,13986 10644,13986 10644,13006 10673,12989 11007,12989 Z"/>
     <path fill="rgb(131,131,131)" stroke="none" d="M 11007,13986 L 11007,14896 10644,15106 10644,13986 11007,13986 Z M 10673,12989 L 11007,12796 11007,12989 10673,12989 Z M 11007,13012 L 11007,13963 10644,13963 10644,13012 11007,13012 Z"/>
     <path fill="rgb(132,132,132)" stroke="none" d="M 11007,13963 L 11007,14896 10644,15106 10644,13963 11007,13963 Z M 10644,13012 L 10644,13006 11007,12796 11007,13012 10644,13012 Z M 11007,13034 L 11007,13941 10644,13941 10644,13034 11007,13034 Z"/>
     <path fill="rgb(133,133,133)" stroke="none" d="M 11007,13941 L 11007,14896 10644,15106 10644,13941 11007,13941 Z M 10644,13034 L 10644,13006 11007,12796 11007,13034 10644,13034 Z M 11007,13057 L 11007,13918 10644,13918 10644,13057 11007,13057 Z"/>
     <path fill="rgb(134,134,134)" stroke="none" d="M 11007,13918 L 11007,14896 10644,15106 10644,13918 11007,13918 Z M 10644,13057 L 10644,13006 11007,12796 11007,13057 10644,13057 Z M 11007,13080 L 11007,13895 10644,13895 10644,13080 11007,13080 Z"/>
     <path fill="rgb(135,135,135)" stroke="none" d="M 11007,13895 L 11007,14896 10644,15106 10644,13895 11007,13895 Z M 10644,13080 L 10644,13006 11007,12796 11007,13080 10644,13080 Z M 11007,13103 L 11007,13872 10644,13872 10644,13103 11007,13103 Z"/>
     <path fill="rgb(136,136,136)" stroke="none" d="M 11007,13872 L 11007,14896 10644,15106 10644,13872 11007,13872 Z M 10644,13103 L 10644,13006 11007,12796 11007,13103 10644,13103 Z M 11007,13125 L 11007,13850 10644,13850 10644,13125 11007,13125 Z"/>
     <path fill="rgb(137,137,137)" stroke="none" d="M 11007,13850 L 11007,14896 10644,15106 10644,13850 11007,13850 Z M 10644,13125 L 10644,13006 11007,12796 11007,13125 10644,13125 Z M 11007,13148 L 11007,13827 10644,13827 10644,13148 11007,13148 Z"/>
     <path fill="rgb(138,138,138)" stroke="none" d="M 11007,13827 L 11007,14896 10644,15106 10644,13827 11007,13827 Z M 10644,13148 L 10644,13006 11007,12796 11007,13148 10644,13148 Z M 11007,13171 L 11007,13804 10644,13804 10644,13171 11007,13171 Z"/>
     <path fill="rgb(139,139,139)" stroke="none" d="M 11007,13804 L 11007,14896 10644,15106 10644,13804 11007,13804 Z M 10644,13171 L 10644,13006 11007,12796 11007,13171 10644,13171 Z M 11007,13193 L 11007,13782 10644,13782 10644,13193 11007,13193 Z"/>
     <path fill="rgb(140,140,140)" stroke="none" d="M 11007,13782 L 11007,14896 10644,15106 10644,13782 11007,13782 Z M 10644,13193 L 10644,13006 11007,12796 11007,13193 10644,13193 Z M 11007,13216 L 11007,13759 10644,13759 10644,13216 11007,13216 Z"/>
     <path fill="rgb(141,141,141)" stroke="none" d="M 11007,13759 L 11007,14896 10644,15106 10644,13759 11007,13759 Z M 10644,13216 L 10644,13006 11007,12796 11007,13216 10644,13216 Z M 11000,13239 L 11000,13736 10644,13736 10644,13239 11000,13239 Z"/>
     <path fill="rgb(142,142,142)" stroke="none" d="M 11000,13736 L 11000,13239 10644,13239 10644,13006 11007,12796 11007,14896 10644,15106 10644,13736 11000,13736 Z M 10978,13261 L 10978,13714 10644,13714 10644,13261 10978,13261 Z"/>
     <path fill="rgb(143,143,143)" stroke="none" d="M 10978,13714 L 10978,13261 10644,13261 10644,13006 11007,12796 11007,14896 10644,15106 10644,13714 10978,13714 Z M 10955,13284 L 10955,13691 10644,13691 10644,13284 10955,13284 Z"/>
     <path fill="rgb(144,144,144)" stroke="none" d="M 10955,13691 L 10955,13284 10644,13284 10644,13006 11007,12796 11007,14896 10644,15106 10644,13691 10955,13691 Z M 10932,13307 L 10932,13668 10644,13668 10644,13307 10932,13307 Z"/>
     <path fill="rgb(145,145,145)" stroke="none" d="M 10932,13668 L 10932,13307 10644,13307 10644,13006 11007,12796 11007,14896 10644,15106 10644,13668 10932,13668 Z M 10910,13329 L 10910,13646 10644,13646 10644,13329 10910,13329 Z"/>
     <path fill="rgb(146,146,146)" stroke="none" d="M 10910,13646 L 10910,13329 10644,13329 10644,13006 11007,12796 11007,14896 10644,15106 10644,13646 10910,13646 Z M 10887,13352 L 10887,13623 10644,13623 10644,13352 10887,13352 Z"/>
     <path fill="rgb(147,147,147)" stroke="none" d="M 10887,13623 L 10887,13352 10644,13352 10644,13006 11007,12796 11007,14896 10644,15106 10644,13623 10887,13623 Z M 10864,13375 L 10864,13600 10644,13600 10644,13375 10864,13375 Z"/>
     <path fill="rgb(148,148,148)" stroke="none" d="M 10864,13600 L 10864,13375 10644,13375 10644,13006 11007,12796 11007,14896 10644,15106 10644,13600 10864,13600 Z M 10661,13397 L 10842,13397 10842,13578 10661,13578 10661,13397 Z"/>
     <path fill="rgb(149,149,149)" stroke="none" d="M 10661,13397 L 10661,13578 10842,13578 10842,13397 10661,13397 Z M 10684,13420 L 10819,13420 10819,13555 10684,13555 10684,13420 Z M 11007,14896 L 10644,15106 10644,13006 11007,12796 11007,14896 Z"/>
     <path fill="rgb(150,150,150)" stroke="none" d="M 10684,13420 L 10684,13555 10819,13555 10819,13420 10684,13420 Z M 10707,13443 L 10796,13443 10796,13532 10707,13532 10707,13443 Z M 11007,14896 L 10644,15106 10644,13006 11007,12796 11007,14896 Z"/>
     <path fill="rgb(151,151,151)" stroke="none" d="M 10707,13443 L 10707,13532 10796,13532 10796,13443 10707,13443 Z M 10729,13465 L 10774,13465 10774,13510 10729,13510 10729,13465 Z M 11007,14896 L 10644,15106 10644,13006 11007,12796 11007,14896 Z"/>
     <path fill="rgb(153,153,153)" stroke="none" d="M 10729,13465 L 10729,13510 10774,13510 10774,13465 10729,13465 Z M 11007,14896 L 10644,15106 10644,13006 11007,12796 11007,14896 Z"/>
     <path fill="none" stroke="rgb(178,178,178)" id="Drawing_5_0" stroke-width="40" stroke-linejoin="round" d="M 11007,14896 L 11007,12796 10644,13006 10644,15106 11007,14896 Z"/>
    </g>
    <g>
     <defs>
      <linearGradient id="Gradient_101" gradientUnits="userSpaceOnUse" x1="9307" y1="14790" x2="10160" y2="14792">
       <stop offset="0.1" stop-color="rgb(102,102,102)"/>
       <stop offset="1" stop-color="rgb(153,153,153)"/>
      </linearGradient>
     </defs>
     <path fill="url(#Gradient_101)" stroke="rgb(178,178,178)" id="Drawing_6_0" stroke-width="40" stroke-linejoin="round" d="M 10159,15106 L 10160,14966 9310,14476 9309,14616 10159,15106 Z"/>
    </g>
    <g>
     <defs>
      <linearGradient id="Gradient_102" gradientUnits="userSpaceOnUse" x1="9855" y1="14336" x2="9855" y2="14966">
       <stop offset="0.1" stop-color="rgb(51,51,51)"/>
       <stop offset="1" stop-color="rgb(153,153,153)"/>
      </linearGradient>
     </defs>
     <path fill="url(#Gradient_102)" stroke="rgb(178,178,178)" id="Drawing_7_0" stroke-width="40" stroke-linejoin="round" d="M 10159,14966 L 10401,14826 9552,14336 9310,14476 10159,14966 Z"/>
    </g>
    <g>
     <defs>
      <linearGradient id="Gradient_103" gradientUnits="userSpaceOnUse" x1="9185" y1="13635" x2="10646" y2="13637">
       <stop offset="0.1" stop-color="rgb(102,102,102)"/>
       <stop offset="1" stop-color="rgb(153,153,153)"/>
      </linearGradient>
     </defs>
     <path fill="url(#Gradient_103)" stroke="rgb(178,178,178)" id="Drawing_8_0" stroke-width="40" stroke-linejoin="round" d="M 10644,15106 L 10644,13006 9189,12166 9189,14266 10644,15106 Z"/>
    </g>
    <g>
     <path fill="none" stroke="rgb(0,0,0)" id="Drawing_9_0" stroke-width="40" stroke-linejoin="round" d="M 11007,14896 L 11007,12796 9552,11956 9189,12166 9189,14266 9431,14406 9310,14476 9310,14616 10159,15106 10401,14966 10644,15106 11007,14896 Z"/>
    </g>
    <g>
     <path fill="rgb(102,102,255)" stroke="none" d="M 10886,13916 L 10886,13776 10765,13846 10765,13986 10886,13916 Z"/>
     <path fill="none" stroke="rgb(51,51,51)" id="Drawing_10_0" stroke-width="40" stroke-linejoin="round" d="M 10886,13916 L 10886,13776 10765,13846 10765,13986 10886,13916 Z"/>
    </g>
   </g>
  </g>
 </g>
</svg>