<?xml version="1.0" encoding="UTF-8"?>

<svg version="1.2" baseProfile="tiny" width="21.65mm" height="31.9mm" viewBox="2887 4263 2165 3190" preserveAspectRatio="xMidYMid" fill-rule="evenodd" stroke-width="28.222" stroke-linejoin="round" xmlns="http://www.w3.org/2000/svg" xmlns:xlink="http://www.w3.org/1999/xlink" xml:space="preserve">
 <g visibility="visible" id="Slide_1">
  <g id="DrawingGroup_1">
   <g>
    <path fill="rgb(221,221,221)" stroke="none" d="M 3755,7433 C 4136,7433 4483,7223 4847,7013 5211,6803 4968,6453 4725,6453 4740,6484 3755,7433 3755,7433 Z"/>
    <path fill="none" stroke="rgb(221,221,221)" id="Drawing_1_0" stroke-width="40" stroke-linejoin="round" d="M 3755,7433 C 4136,7433 4483,7223 4847,7013 5211,6803 4968,6453 4725,6453 4740,6484 3755,7433 3755,7433 Z"/>
   </g>
   <g id="DrawingGroup_2">
    <g>
     <defs>
      <linearGradient id="Gradient_88" gradientUnits="userSpaceOnUse" x1="3816" y1="4283" x2="3816" y2="5333">
       <stop offset="0.1" stop-color="rgb(179,179,179)"/>
       <stop offset="1" stop-color="rgb(229,229,229)"/>
      </linearGradient>
     </defs>
     <path fill="url(#Gradient_88)" stroke="rgb(255,255,255)" id="Drawing_2_0" stroke-width="40" stroke-linejoin="round" d="M 3270,5333 L 2907,5123 4362,4283 4725,4493 3270,5333 Z"/>
    </g>
    <g>
     <path fill="rgb(57,181,74)" stroke="none" d="M 3045,5701 L 3045,5460 3184,5540 3184,5781 3045,5701 Z"/>
     <path fill="none" stroke="rgb(51,51,51)" id="Drawing_3_0" stroke-width="40" stroke-linejoin="round" d="M 3045,5701 L 3045,5460 3184,5540 3184,5781 3045,5701 Z"/>
    </g>
    <g>
     <defs>
      <linearGradient id="Gradient_89" gradientUnits="userSpaceOnUse" x1="3147" y1="7187" x2="3754" y2="7189">
       <stop offset="0.1" stop-color="rgb(179,179,179)"/>
       <stop offset="1" stop-color="rgb(229,229,229)"/>
      </linearGradient>
     </defs>
     <path fill="url(#Gradient_89)" stroke="rgb(255,255,255)" id="Drawing_4_0" stroke-width="40" stroke-linejoin="round" d="M 3148,7083 L 3148,6943 3755,7293 3755,7433 3148,7083 Z"/>
    </g>
    <g>
     <defs>
      <linearGradient id="Gradient_90" gradientUnits="userSpaceOnUse" x1="2904" y1="6278" x2="3271" y2="6278">
       <stop offset="0.1" stop-color="rgb(179,179,179)"/>
       <stop offset="1" stop-color="rgb(229,229,229)"/>
      </linearGradient>
     </defs>
     <path fill="url(#Gradient_90)" stroke="rgb(255,255,255)" id="Drawing_5_0" stroke-width="40" stroke-linejoin="round" d="M 2907,7223 L 2907,5123 3270,5333 3270,7433 2907,7223 Z"/>
    </g>
    <g>
     <path fill="rgb(179,179,179)" stroke="none" d="M 4424,7047 L 3802,7406 3755,7406 3754,7293 4424,6907 4424,7047 Z"/>
     <path fill="rgb(180,180,180)" stroke="none" d="M 3802,7406 L 3755,7433 3755,7406 3802,7406 Z M 4424,6907 L 4604,6803 4605,6943 4424,7047 4424,6907 Z M 4414,7053 L 3819,7396 3755,7396 3754,7293 4414,6913 4414,7053 Z"/>
     <path fill="rgb(181,181,181)" stroke="none" d="M 3819,7396 L 3755,7433 3755,7396 3819,7396 Z M 4414,6913 L 4604,6803 4605,6943 4414,7053 4414,6913 Z M 4404,7059 L 3837,7386 3755,7386 3754,7293 4404,6918 4404,7059 Z"/>
     <path fill="rgb(182,182,182)" stroke="none" d="M 3837,7386 L 3755,7433 3755,7386 3837,7386 Z M 4404,6918 L 4604,6803 4605,6943 4404,7059 4404,6918 Z M 4394,7065 L 3854,7376 3755,7376 3754,7293 4394,6924 4394,7065 Z"/>
     <path fill="rgb(183,183,183)" stroke="none" d="M 3854,7376 L 3755,7433 3755,7376 3854,7376 Z M 4394,6924 L 4604,6803 4605,6943 4394,7065 4394,6924 Z M 4384,7070 L 3871,7366 3755,7366 3754,7293 4384,6930 4384,7070 Z"/>
     <path fill="rgb(184,184,184)" stroke="none" d="M 3871,7366 L 3755,7433 3755,7366 3871,7366 Z M 4384,6930 L 4604,6803 4605,6943 4384,7070 4384,6930 Z M 4374,7076 L 3889,7356 3754,7356 3754,7293 4374,6936 4374,7076 Z"/>
     <path fill="rgb(186,186,186)" stroke="none" d="M 3889,7356 L 3755,7433 3754,7356 3889,7356 Z M 4374,6936 L 4604,6803 4605,6943 4374,7076 4374,6936 Z M 4363,7083 L 3908,7345 3754,7345 3754,7293 4363,6942 4363,7083 Z"/>
     <path fill="rgb(187,187,187)" stroke="none" d="M 3908,7345 L 3755,7433 3754,7345 3908,7345 Z M 4363,6942 L 4604,6803 4605,6943 4363,7083 4363,6942 Z M 4353,7088 L 3925,7335 3754,7335 3754,7293 4353,6948 4353,7088 Z"/>
     <path fill="rgb(188,188,188)" stroke="none" d="M 3925,7335 L 3755,7433 3754,7335 3925,7335 Z M 4353,6948 L 4604,6803 4605,6943 4353,7088 4353,6948 Z M 4343,7094 L 3942,7325 3754,7325 3754,7293 4343,6953 4343,7094 Z"/>
     <path fill="rgb(189,189,189)" stroke="none" d="M 3942,7325 L 3755,7433 3754,7325 3942,7325 Z M 4343,6953 L 4604,6803 4605,6943 4343,7094 4343,6953 Z M 4333,7100 L 3960,7315 3754,7315 3754,7293 4333,6959 4333,7100 Z"/>
     <path fill="rgb(190,190,190)" stroke="none" d="M 3960,7315 L 3755,7433 3754,7315 3960,7315 Z M 4333,6959 L 4604,6803 4605,6943 4333,7100 4333,6959 Z M 4323,7106 L 3977,7305 3754,7305 3754,7293 4323,6965 4323,7106 Z"/>
     <path fill="rgb(192,192,192)" stroke="none" d="M 3977,7305 L 3755,7433 3754,7305 3977,7305 Z M 4323,6965 L 4604,6803 4605,6943 4323,7106 4323,6965 Z M 4313,7111 L 3994,7295 3754,7295 3754,7293 4313,6971 4313,7111 Z"/>
     <path fill="rgb(193,193,193)" stroke="none" d="M 3994,7295 L 3755,7433 3754,7295 3994,7295 Z M 4313,6971 L 4604,6803 4605,6943 4313,7111 4313,6971 Z M 4302,7118 L 4013,7284 3770,7284 4302,6977 4302,7118 Z"/>
     <path fill="rgb(194,194,194)" stroke="none" d="M 4013,7284 L 3755,7433 3754,7293 3770,7284 4013,7284 Z M 4302,6977 L 4604,6803 4605,6943 4302,7118 4302,6977 Z M 4292,7123 L 4031,7274 3787,7274 4292,6983 4292,7123 Z"/>
     <path fill="rgb(195,195,195)" stroke="none" d="M 4031,7274 L 3755,7433 3754,7293 3787,7274 4031,7274 Z M 4292,6983 L 4604,6803 4605,6943 4292,7123 4292,6983 Z M 4282,7129 L 4048,7264 3804,7264 4282,6989 4282,7129 Z"/>
     <path fill="rgb(196,196,196)" stroke="none" d="M 4048,7264 L 3755,7433 3754,7293 3804,7264 4048,7264 Z M 4282,6989 L 4604,6803 4605,6943 4282,7129 4282,6989 Z M 4272,7135 L 4066,7254 3822,7254 4272,6994 4272,7135 Z"/>
     <path fill="rgb(198,198,198)" stroke="none" d="M 4066,7254 L 3755,7433 3754,7293 3822,7254 4066,7254 Z M 4272,6994 L 4604,6803 4605,6943 4272,7135 4272,6994 Z M 4262,7141 L 4083,7244 3839,7244 4262,7000 4262,7141 Z"/>
     <path fill="rgb(199,199,199)" stroke="none" d="M 4083,7244 L 3755,7433 3754,7293 3839,7244 4083,7244 Z M 4262,7000 L 4604,6803 4605,6943 4262,7141 4262,7000 Z M 4252,7146 L 4100,7234 3856,7234 4252,7006 4252,7146 Z"/>
     <path fill="rgb(200,200,200)" stroke="none" d="M 4100,7234 L 3755,7433 3754,7293 3856,7234 4100,7234 Z M 4252,7006 L 4604,6803 4605,6943 4252,7146 4252,7006 Z M 4241,7153 L 4119,7223 3875,7223 4241,7012 4241,7153 Z"/>
     <path fill="rgb(201,201,201)" stroke="none" d="M 4119,7223 L 3755,7433 3754,7293 3875,7223 4119,7223 Z M 4241,7012 L 4604,6803 4605,6943 4241,7153 4241,7012 Z M 4231,7159 L 4137,7213 3893,7213 4231,7018 4231,7159 Z"/>
     <path fill="rgb(202,202,202)" stroke="none" d="M 4137,7213 L 3755,7433 3754,7293 3893,7213 4137,7213 Z M 4231,7018 L 4604,6803 4605,6943 4231,7159 4231,7018 Z M 4221,7164 L 4154,7203 3910,7203 4221,7024 4221,7164 Z"/>
     <path fill="rgb(204,204,204)" stroke="none" d="M 4154,7203 L 3755,7433 3754,7293 3910,7203 4154,7203 Z M 4221,7024 L 4604,6803 4605,6943 4221,7164 4221,7024 Z M 4211,7170 L 4171,7193 3927,7193 4211,7030 4211,7170 Z"/>
     <path fill="rgb(205,205,205)" stroke="none" d="M 4171,7193 L 3755,7433 3754,7293 3927,7193 4171,7193 Z M 4211,7030 L 4604,6803 4605,6943 4211,7170 4211,7030 Z M 4201,7176 L 4189,7183 3945,7183 4201,7035 4201,7176 Z"/>
     <path fill="rgb(206,206,206)" stroke="none" d="M 4189,7183 L 3755,7433 3754,7293 3945,7183 4189,7183 Z M 4201,7035 L 4604,6803 4605,6943 4201,7176 4201,7035 Z M 4191,7173 L 3962,7173 4191,7041 4191,7173 Z"/>
     <path fill="rgb(207,207,207)" stroke="none" d="M 4191,7173 L 4191,7041 4604,6803 4605,6943 3755,7433 3754,7293 3962,7173 4191,7173 Z M 4180,7162 L 3981,7162 4180,7047 4180,7162 Z"/>
     <path fill="rgb(208,208,208)" stroke="none" d="M 4180,7162 L 4180,7047 4604,6803 4605,6943 3755,7433 3754,7293 3981,7162 4180,7162 Z M 4170,7152 L 3999,7152 4170,7053 4170,7152 Z"/>
     <path fill="rgb(209,209,209)" stroke="none" d="M 4170,7152 L 4170,7053 4604,6803 4605,6943 3755,7433 3754,7293 3999,7152 4170,7152 Z M 4160,7142 L 4016,7142 4160,7059 4160,7142 Z"/>
     <path fill="rgb(211,211,211)" stroke="none" d="M 4160,7142 L 4160,7059 4604,6803 4605,6943 3755,7433 3754,7293 4016,7142 4160,7142 Z M 4150,7132 L 4033,7132 4150,7065 4150,7132 Z"/>
     <path fill="rgb(212,212,212)" stroke="none" d="M 4150,7132 L 4150,7065 4604,6803 4605,6943 3755,7433 3754,7293 4033,7132 4150,7132 Z M 4140,7122 L 4051,7122 4140,7070 4140,7122 Z"/>
     <path fill="rgb(213,213,213)" stroke="none" d="M 4140,7122 L 4140,7070 4604,6803 4605,6943 3755,7433 3754,7293 4051,7122 4140,7122 Z M 4130,7112 L 4068,7112 4130,7076 4130,7112 Z"/>
     <path fill="rgb(214,214,214)" stroke="none" d="M 4130,7112 L 4130,7076 4604,6803 4605,6943 3755,7433 3754,7293 4068,7112 4130,7112 Z M 4119,7101 L 4087,7101 4119,7083 4119,7101 Z"/>
     <path fill="rgb(215,215,215)" stroke="none" d="M 4119,7101 L 4119,7083 4604,6803 4605,6943 3755,7433 3754,7293 4087,7101 4119,7101 Z M 4109,7091 L 4104,7091 4109,7088 4109,7091 Z"/>
     <path fill="rgb(217,217,217)" stroke="none" d="M 4109,7091 L 4109,7088 4604,6803 4605,6943 3755,7433 3754,7293 4104,7091 4109,7091 Z"/>
     <path fill="rgb(218,218,218)" stroke="none" d="M 3755,7433 L 3754,7293 4604,6803 4605,6943 3755,7433 Z"/>
     <path fill="rgb(219,219,219)" stroke="none" d="M 3755,7433 L 3754,7293 4604,6803 4605,6943 3755,7433 Z"/>
     <path fill="rgb(220,220,220)" stroke="none" d="M 3755,7433 L 3754,7293 4604,6803 4605,6943 3755,7433 Z"/>
     <path fill="rgb(221,221,221)" stroke="none" d="M 3755,7433 L 3754,7293 4604,6803 4605,6943 3755,7433 Z"/>
     <path fill="rgb(223,223,223)" stroke="none" d="M 3755,7433 L 3754,7293 4604,6803 4605,6943 3755,7433 Z"/>
     <path fill="rgb(224,224,224)" stroke="none" d="M 3755,7433 L 3754,7293 4604,6803 4605,6943 3755,7433 Z"/>
     <path fill="rgb(225,225,225)" stroke="none" d="M 3755,7433 L 3754,7293 4604,6803 4605,6943 3755,7433 Z"/>
     <path fill="rgb(226,226,226)" stroke="none" d="M 3755,7433 L 3754,7293 4604,6803 4605,6943 3755,7433 Z"/>
     <path fill="rgb(229,229,229)" stroke="none" d="M 3755,7433 L 3754,7293 4604,6803 4605,6943 3755,7433 Z"/>
     <path fill="none" stroke="rgb(255,255,255)" id="Drawing_6_0" stroke-width="40" stroke-linejoin="round" d="M 3755,7433 L 3754,7293 4604,6803 4605,6943 3755,7433 Z"/>
    </g>
    <g>
     <defs>
      <linearGradient id="Gradient_91" gradientUnits="userSpaceOnUse" x1="4058" y1="6663" x2="4058" y2="7293">
       <stop offset="0.1" stop-color="rgb(179,179,179)"/>
       <stop offset="1" stop-color="rgb(229,229,229)"/>
      </linearGradient>
     </defs>
     <path fill="url(#Gradient_91)" stroke="rgb(255,255,255)" id="Drawing_7_0" stroke-width="40" stroke-linejoin="round" d="M 3755,7293 L 3513,7153 4362,6663 4604,6803 3755,7293 Z"/>
    </g>
    <g>
     <path fill="rgb(179,179,179)" stroke="none" d="M 3270,6815 L 3270,5333 4725,4493 4725,6593 4340,6815 3270,6815 Z"/>
     <path fill="rgb(180,180,180)" stroke="none" d="M 4340,6815 L 3270,7433 3270,6815 4340,6815 Z M 3270,6786 L 3270,5333 4725,4493 4725,6593 4391,6786 3270,6786 Z"/>
     <path fill="rgb(181,181,181)" stroke="none" d="M 4391,6786 L 3270,7433 3270,6786 4391,6786 Z M 3270,6756 L 3270,5333 4725,4493 4725,6593 4443,6756 3270,6756 Z"/>
     <path fill="rgb(182,182,182)" stroke="none" d="M 4443,6756 L 3270,7433 3270,6756 4443,6756 Z M 3270,6727 L 3270,5333 4725,4493 4725,6593 4493,6727 3270,6727 Z"/>
     <path fill="rgb(183,183,183)" stroke="none" d="M 4493,6727 L 3270,7433 3270,6727 4493,6727 Z M 3270,6697 L 3270,5333 4725,4493 4725,6593 4545,6697 3270,6697 Z"/>
     <path fill="rgb(184,184,184)" stroke="none" d="M 4545,6697 L 3270,7433 3270,6697 4545,6697 Z M 3270,6668 L 3270,5333 4725,4493 4725,6593 4595,6668 3270,6668 Z"/>
     <path fill="rgb(185,185,185)" stroke="none" d="M 4595,6668 L 3270,7433 3270,6668 4595,6668 Z M 3270,6638 L 3270,5333 4725,4493 4725,6593 4647,6638 3270,6638 Z"/>
     <path fill="rgb(186,186,186)" stroke="none" d="M 4647,6638 L 3270,7433 3270,6638 4647,6638 Z M 3270,6609 L 3270,5333 4725,4493 4725,6593 4697,6609 3270,6609 Z"/>
     <path fill="rgb(187,187,187)" stroke="none" d="M 4697,6609 L 3270,7433 3270,6609 4697,6609 Z M 3270,6580 L 3270,5333 4725,4493 4725,6580 3270,6580 Z"/>
     <path fill="rgb(188,188,188)" stroke="none" d="M 4725,6580 L 4725,6593 3270,7433 3270,6580 4725,6580 Z M 3270,6550 L 3270,5333 4725,4493 4725,6550 3270,6550 Z"/>
     <path fill="rgb(189,189,189)" stroke="none" d="M 4725,6550 L 4725,6593 3270,7433 3270,6550 4725,6550 Z M 3270,6521 L 3270,5333 4725,4493 4725,6521 3270,6521 Z"/>
     <path fill="rgb(190,190,190)" stroke="none" d="M 4725,6521 L 4725,6593 3270,7433 3270,6521 4725,6521 Z M 3270,6491 L 3270,5333 4725,4493 4725,6491 3270,6491 Z"/>
     <path fill="rgb(191,191,191)" stroke="none" d="M 4725,6491 L 4725,6593 3270,7433 3270,6491 4725,6491 Z M 3270,6462 L 3270,5333 4725,4493 4725,6462 3270,6462 Z"/>
     <path fill="rgb(192,192,192)" stroke="none" d="M 4725,6462 L 4725,6593 3270,7433 3270,6462 4725,6462 Z M 3270,6432 L 3270,5333 4725,4493 4725,6432 3270,6432 Z"/>
     <path fill="rgb(193,193,193)" stroke="none" d="M 4725,6432 L 4725,6593 3270,7433 3270,6432 4725,6432 Z M 3270,6403 L 3270,5333 4725,4493 4725,6403 3270,6403 Z"/>
     <path fill="rgb(194,194,194)" stroke="none" d="M 4725,6403 L 4725,6593 3270,7433 3270,6403 4725,6403 Z M 4706,6374 L 3270,6374 3270,5333 4706,4504 4706,6374 Z"/>
     <path fill="rgb(195,195,195)" stroke="none" d="M 4706,6374 L 4706,4504 4725,4493 4725,6593 3270,7433 3270,6374 4706,6374 Z M 4676,6344 L 3270,6344 3270,5333 4676,4521 4676,6344 Z"/>
     <path fill="rgb(196,196,196)" stroke="none" d="M 4676,6344 L 4676,4521 4725,4493 4725,6593 3270,7433 3270,6344 4676,6344 Z M 4647,6315 L 3270,6315 3270,5333 4647,4538 4647,6315 Z"/>
     <path fill="rgb(197,197,197)" stroke="none" d="M 4647,6315 L 4647,4538 4725,4493 4725,6593 3270,7433 3270,6315 4647,6315 Z M 4617,6285 L 3270,6285 3270,5333 4617,4555 4617,6285 Z"/>
     <path fill="rgb(198,198,198)" stroke="none" d="M 4617,6285 L 4617,4555 4725,4493 4725,6593 3270,7433 3270,6285 4617,6285 Z M 4588,6256 L 3270,6256 3270,5333 4588,4572 4588,6256 Z"/>
     <path fill="rgb(199,199,199)" stroke="none" d="M 4588,6256 L 4588,4572 4725,4493 4725,6593 3270,7433 3270,6256 4588,6256 Z M 4558,6226 L 3270,6226 3270,5333 4558,4589 4558,6226 Z"/>
     <path fill="rgb(200,200,200)" stroke="none" d="M 4558,6226 L 4558,4589 4725,4493 4725,6593 3270,7433 3270,6226 4558,6226 Z M 4529,6197 L 3270,6197 3270,5333 4529,4606 4529,6197 Z"/>
     <path fill="rgb(201,201,201)" stroke="none" d="M 4529,6197 L 4529,4606 4725,4493 4725,6593 3270,7433 3270,6197 4529,6197 Z M 4500,6168 L 3270,6168 3270,5333 4500,4623 4500,6168 Z"/>
     <path fill="rgb(202,202,202)" stroke="none" d="M 4500,6168 L 4500,4623 4725,4493 4725,6593 3270,7433 3270,6168 4500,6168 Z M 4470,6138 L 3270,6138 3270,5333 4470,4640 4470,6138 Z"/>
     <path fill="rgb(203,203,203)" stroke="none" d="M 4470,6138 L 4470,4640 4725,4493 4725,6593 3270,7433 3270,6138 4470,6138 Z M 4441,6109 L 3270,6109 3270,5333 4441,4657 4441,6109 Z"/>
     <path fill="rgb(204,204,204)" stroke="none" d="M 4441,6109 L 4441,4657 4725,4493 4725,6593 3270,7433 3270,6109 4441,6109 Z M 4411,6079 L 3270,6079 3270,5333 4411,4674 4411,6079 Z"/>
     <path fill="rgb(205,205,205)" stroke="none" d="M 4411,6079 L 4411,4674 4725,4493 4725,6593 3270,7433 3270,6079 4411,6079 Z M 4382,4697 L 4382,6050 3270,6050 3270,5333 4372,4697 4382,4697 Z"/>
     <path fill="rgb(206,206,206)" stroke="none" d="M 4382,6050 L 4382,4697 4372,4697 4725,4493 4725,6593 3270,7433 3270,6050 4382,6050 Z M 4352,4727 L 4352,6020 3270,6020 3270,5333 4320,4727 4352,4727 Z"/>
     <path fill="rgb(207,207,207)" stroke="none" d="M 4352,6020 L 4352,4727 4320,4727 4725,4493 4725,6593 3270,7433 3270,6020 4352,6020 Z M 4323,4756 L 4323,5991 3270,5991 3270,5333 4269,4756 4323,4756 Z"/>
     <path fill="rgb(208,208,208)" stroke="none" d="M 4323,5991 L 4323,4756 4269,4756 4725,4493 4725,6593 3270,7433 3270,5991 4323,5991 Z M 4294,4785 L 4294,5962 3270,5962 3270,5333 4219,4785 4294,4785 Z"/>
     <path fill="rgb(209,209,209)" stroke="none" d="M 4294,5962 L 4294,4785 4219,4785 4725,4493 4725,6593 3270,7433 3270,5962 4294,5962 Z M 4264,4815 L 4264,5932 3270,5932 3270,5333 4167,4815 4264,4815 Z"/>
     <path fill="rgb(210,210,210)" stroke="none" d="M 4264,5932 L 4264,4815 4167,4815 4725,4493 4725,6593 3270,7433 3270,5932 4264,5932 Z M 4235,4844 L 4235,5903 3270,5903 3270,5333 4117,4844 4235,4844 Z"/>
     <path fill="rgb(211,211,211)" stroke="none" d="M 4235,5903 L 4235,4844 4117,4844 4725,4493 4725,6593 3270,7433 3270,5903 4235,5903 Z M 4205,4874 L 4205,5873 3270,5873 3270,5333 4065,4874 4205,4874 Z"/>
     <path fill="rgb(212,212,212)" stroke="none" d="M 4205,5873 L 4205,4874 4065,4874 4725,4493 4725,6593 3270,7433 3270,5873 4205,5873 Z M 4176,4903 L 4176,5844 3270,5844 3270,5333 4015,4903 4176,4903 Z"/>
     <path fill="rgb(213,213,213)" stroke="none" d="M 4176,5844 L 4176,4903 4015,4903 4725,4493 4725,6593 3270,7433 3270,5844 4176,5844 Z M 4146,4933 L 4146,5814 3270,5814 3270,5333 3963,4933 4146,4933 Z"/>
     <path fill="rgb(214,214,214)" stroke="none" d="M 4146,5814 L 4146,4933 3963,4933 4725,4493 4725,6593 3270,7433 3270,5814 4146,5814 Z M 4117,4962 L 4117,5785 3294,5785 3294,5319 3913,4962 4117,4962 Z"/>
     <path fill="rgb(215,215,215)" stroke="none" d="M 3294,5785 L 4117,5785 4117,4962 3913,4962 4725,4493 4725,6593 3270,7433 3270,5333 3294,5319 3294,5785 Z M 4088,4991 L 4088,5756 3323,5756 3323,5302 3862,4991 4088,4991 Z"/>
     <path fill="rgb(216,216,216)" stroke="none" d="M 3323,5756 L 4088,5756 4088,4991 3862,4991 4725,4493 4725,6593 3270,7433 3270,5333 3323,5302 3323,5756 Z M 4058,5021 L 4058,5726 3353,5726 3353,5285 3810,5021 4058,5021 Z"/>
     <path fill="rgb(217,217,217)" stroke="none" d="M 3353,5726 L 4058,5726 4058,5021 3810,5021 4725,4493 4725,6593 3270,7433 3270,5333 3353,5285 3353,5726 Z M 4029,5050 L 4029,5697 3382,5697 3382,5268 3760,5050 4029,5050 Z"/>
     <path fill="rgb(218,218,218)" stroke="none" d="M 3382,5697 L 4029,5697 4029,5050 3760,5050 4725,4493 4725,6593 3270,7433 3270,5333 3382,5268 3382,5697 Z M 3999,5080 L 3999,5667 3412,5667 3412,5251 3708,5080 3999,5080 Z"/>
     <path fill="rgb(219,219,219)" stroke="none" d="M 3412,5667 L 3999,5667 3999,5080 3708,5080 4725,4493 4725,6593 3270,7433 3270,5333 3412,5251 3412,5667 Z M 3970,5109 L 3970,5638 3441,5638 3441,5234 3658,5109 3970,5109 Z"/>
     <path fill="rgb(220,220,220)" stroke="none" d="M 3441,5638 L 3970,5638 3970,5109 3658,5109 4725,4493 4725,6593 3270,7433 3270,5333 3441,5234 3441,5638 Z M 3940,5139 L 3940,5608 3471,5608 3471,5217 3606,5139 3940,5139 Z"/>
     <path fill="rgb(221,221,221)" stroke="none" d="M 3471,5608 L 3940,5608 3940,5139 3606,5139 4725,4493 4725,6593 3270,7433 3270,5333 3471,5217 3471,5608 Z M 3911,5168 L 3911,5579 3500,5579 3500,5200 3556,5168 3911,5168 Z"/>
     <path fill="rgb(222,222,222)" stroke="none" d="M 3500,5579 L 3911,5579 3911,5168 3556,5168 4725,4493 4725,6593 3270,7433 3270,5333 3500,5200 3500,5579 Z M 3529,5197 L 3882,5197 3882,5550 3529,5550 3529,5197 Z"/>
     <path fill="rgb(223,223,223)" stroke="none" d="M 3529,5197 L 3529,5550 3882,5550 3882,5197 3529,5197 Z M 3559,5227 L 3852,5227 3852,5520 3559,5520 3559,5227 Z M 3270,7433 L 3270,5333 4725,4493 4725,6593 3270,7433 Z"/>
     <path fill="rgb(224,224,224)" stroke="none" d="M 3559,5227 L 3559,5520 3852,5520 3852,5227 3559,5227 Z M 3588,5256 L 3823,5256 3823,5491 3588,5491 3588,5256 Z M 3270,7433 L 3270,5333 4725,4493 4725,6593 3270,7433 Z"/>
     <path fill="rgb(225,225,225)" stroke="none" d="M 3588,5256 L 3588,5491 3823,5491 3823,5256 3588,5256 Z M 3618,5286 L 3793,5286 3793,5461 3618,5461 3618,5286 Z M 3270,7433 L 3270,5333 4725,4493 4725,6593 3270,7433 Z"/>
     <path fill="rgb(226,226,226)" stroke="none" d="M 3618,5286 L 3618,5461 3793,5461 3793,5286 3618,5286 Z M 3647,5315 L 3764,5315 3764,5432 3647,5432 3647,5315 Z M 3270,7433 L 3270,5333 4725,4493 4725,6593 3270,7433 Z"/>
     <path fill="rgb(227,227,227)" stroke="none" d="M 3647,5315 L 3647,5432 3764,5432 3764,5315 3647,5315 Z M 3677,5345 L 3734,5345 3734,5402 3677,5402 3677,5345 Z M 3270,7433 L 3270,5333 4725,4493 4725,6593 3270,7433 Z"/>
     <path fill="rgb(229,229,229)" stroke="none" d="M 3677,5345 L 3677,5402 3734,5402 3734,5345 3677,5345 Z M 3270,7433 L 3270,5333 4725,4493 4725,6593 3270,7433 Z"/>
     <path fill="none" stroke="rgb(255,255,255)" id="Drawing_8_0" stroke-width="40" stroke-linejoin="round" d="M 3270,7433 L 3270,5333 4725,4493 4725,6593 3270,7433 Z"/>
    </g>
    <g>
     <path fill="none" stroke="rgb(0,0,0)" id="Drawing_9_0" stroke-width="40" stroke-linejoin="round" d="M 2907,7223 L 2907,5123 4362,4283 4725,4493 4725,6593 4483,6733 4604,6803 4604,6943 3755,7433 3513,7293 3270,7433 2907,7223 Z"/>
    </g>
    <g>
     <path fill="rgb(102,102,255)" stroke="none" d="M 3028,6243 L 3028,6103 3149,6173 3149,6313 3028,6243 Z"/>
     <path fill="none" stroke="rgb(51,51,51)" id="Drawing_10_0" stroke-width="40" stroke-linejoin="round" d="M 3028,6243 L 3028,6103 3149,6173 3149,6313 3028,6243 Z"/>
    </g>
   </g>
  </g>
 </g>
</svg>