<?xml version="1.0" encoding="UTF-8"?>

<svg version="1.2" baseProfile="tiny" width="19.99mm" height="31.9mm" viewBox="3461 13524 1999 3190" preserveAspectRatio="xMidYMid" fill-rule="evenodd" stroke-width="28.222" stroke-linejoin="round" xmlns="http://www.w3.org/2000/svg" xmlns:xlink="http://www.w3.org/1999/xlink" xml:space="preserve">
 <g visibility="visible" id="Slide_1">
  <g id="DrawingGroup_1">
   <g>
    <path fill="rgb(221,221,221)" stroke="none" d="M 4451,16694 C 4832,16694 5178,16624 5300,16554 5422,16484 5543,16274 5300,16274 5315,16305 4451,16694 4451,16694 Z"/>
    <path fill="none" stroke="rgb(221,221,221)" id="Drawing_1_0" stroke-width="40" stroke-linejoin="round" d="M 4451,16694 C 4832,16694 5178,16624 5300,16554 5422,16484 5543,16274 5300,16274 5315,16305 4451,16694 4451,16694 Z"/>
   </g>
   <g id="DrawingGroup_2">
    <g>
     <defs>
      <linearGradient id="Gradient_96" gradientUnits="userSpaceOnUse" x1="4390" y1="13544" x2="4390" y2="14594">
       <stop offset="0.1" stop-color="rgb(179,179,179)"/>
       <stop offset="1" stop-color="rgb(229,229,229)"/>
      </linearGradient>
     </defs>
     <path fill="url(#Gradient_96)" stroke="rgb(255,255,255)" id="Drawing_2_0" stroke-width="40" stroke-linejoin="round" d="M 4936,14594 L 5299,14384 3844,13544 3481,13754 4936,14594 Z"/>
    </g>
    <g>
     <path fill="rgb(57,181,74)" stroke="none" d="M 5161,14962 L 5161,14721 5022,14801 5022,15042 5161,14962 Z"/>
     <path fill="none" stroke="rgb(51,51,51)" id="Drawing_3_0" stroke-width="40" stroke-linejoin="round" d="M 5161,14962 L 5161,14721 5022,14801 5022,15042 5161,14962 Z"/>
    </g>
    <g>
     <path fill="rgb(179,179,179)" stroke="none" d="M 4930,16418 L 4533,16647 4451,16647 4451,16554 4930,16278 4930,16418 Z"/>
     <path fill="rgb(180,180,180)" stroke="none" d="M 4533,16647 L 4451,16694 4451,16647 4533,16647 Z M 4930,16278 L 5058,16204 5058,16344 4930,16418 4930,16278 Z M 4924,16421 L 4543,16641 4451,16641 4451,16554 4924,16281 4924,16421 Z"/>
     <path fill="rgb(181,181,181)" stroke="none" d="M 4543,16641 L 4451,16694 4451,16641 4543,16641 Z M 4924,16281 L 5058,16204 5058,16344 4924,16421 4924,16281 Z M 4918,16425 L 4553,16635 4451,16635 4451,16554 4918,16285 4918,16425 Z"/>
     <path fill="rgb(182,182,182)" stroke="none" d="M 4553,16635 L 4451,16694 4451,16635 4553,16635 Z M 4918,16285 L 5058,16204 5058,16344 4918,16425 4918,16285 Z M 4912,16428 L 4564,16629 4451,16629 4451,16554 4912,16288 4912,16428 Z"/>
     <path fill="rgb(183,183,183)" stroke="none" d="M 4564,16629 L 4451,16694 4451,16629 4564,16629 Z M 4912,16288 L 5058,16204 5058,16344 4912,16428 4912,16288 Z M 4906,16432 L 4574,16623 4451,16623 4451,16554 4906,16292 4906,16432 Z"/>
     <path fill="rgb(184,184,184)" stroke="none" d="M 4574,16623 L 4451,16694 4451,16623 4574,16623 Z M 4906,16292 L 5058,16204 5058,16344 4906,16432 4906,16292 Z M 4900,16435 L 4585,16617 4451,16617 4451,16554 4900,16295 4900,16435 Z"/>
     <path fill="rgb(185,185,185)" stroke="none" d="M 4585,16617 L 4451,16694 4451,16617 4585,16617 Z M 4900,16295 L 5058,16204 5058,16344 4900,16435 4900,16295 Z M 4894,16439 L 4595,16611 4451,16611 4451,16554 4894,16299 4894,16439 Z"/>
     <path fill="rgb(186,186,186)" stroke="none" d="M 4595,16611 L 4451,16694 4451,16611 4595,16611 Z M 4894,16299 L 5058,16204 5058,16344 4894,16439 4894,16299 Z M 4888,16442 L 4605,16605 4451,16605 4451,16554 4888,16302 4888,16442 Z"/>
     <path fill="rgb(187,187,187)" stroke="none" d="M 4605,16605 L 4451,16694 4451,16605 4605,16605 Z M 4888,16302 L 5058,16204 5058,16344 4888,16442 4888,16302 Z M 4882,16445 L 4616,16599 4451,16599 4451,16554 4882,16305 4882,16445 Z"/>
     <path fill="rgb(188,188,188)" stroke="none" d="M 4616,16599 L 4451,16694 4451,16599 4616,16599 Z M 4882,16305 L 5058,16204 5058,16344 4882,16445 4882,16305 Z M 4875,16450 L 4628,16592 4451,16592 4451,16554 4875,16310 4875,16450 Z"/>
     <path fill="rgb(189,189,189)" stroke="none" d="M 4628,16592 L 4451,16694 4451,16592 4628,16592 Z M 4875,16310 L 5058,16204 5058,16344 4875,16450 4875,16310 Z M 4869,16453 L 4638,16586 4451,16586 4451,16554 4869,16313 4869,16453 Z"/>
     <path fill="rgb(190,190,190)" stroke="none" d="M 4638,16586 L 4451,16694 4451,16586 4638,16586 Z M 4869,16313 L 5058,16204 5058,16344 4869,16453 4869,16313 Z M 4863,16456 L 4649,16580 4451,16580 4451,16554 4863,16316 4863,16456 Z"/>
     <path fill="rgb(191,191,191)" stroke="none" d="M 4649,16580 L 4451,16694 4451,16580 4649,16580 Z M 4863,16316 L 5058,16204 5058,16344 4863,16456 4863,16316 Z M 4857,16460 L 4659,16574 4451,16574 4451,16554 4857,16320 4857,16460 Z"/>
     <path fill="rgb(192,192,192)" stroke="none" d="M 4659,16574 L 4451,16694 4451,16574 4659,16574 Z M 4857,16320 L 5058,16204 5058,16344 4857,16460 4857,16320 Z M 4851,16463 L 4670,16568 4451,16568 4451,16554 4851,16323 4851,16463 Z"/>
     <path fill="rgb(193,193,193)" stroke="none" d="M 4670,16568 L 4451,16694 4451,16568 4670,16568 Z M 4851,16323 L 5058,16204 5058,16344 4851,16463 4851,16323 Z M 4845,16467 L 4680,16562 4451,16562 4451,16554 4845,16327 4845,16467 Z"/>
     <path fill="rgb(194,194,194)" stroke="none" d="M 4680,16562 L 4451,16694 4451,16562 4680,16562 Z M 4845,16327 L 5058,16204 5058,16344 4845,16467 4845,16327 Z M 4839,16470 L 4690,16556 4451,16556 4451,16554 4839,16330 4839,16470 Z"/>
     <path fill="rgb(195,195,195)" stroke="none" d="M 4690,16556 L 4451,16694 4451,16556 4690,16556 Z M 4839,16330 L 5058,16204 5058,16344 4839,16470 4839,16330 Z M 4833,16474 L 4701,16550 4458,16550 4833,16334 4833,16474 Z"/>
     <path fill="rgb(196,196,196)" stroke="none" d="M 4701,16550 L 4451,16694 4451,16554 4458,16550 4701,16550 Z M 4833,16334 L 5058,16204 5058,16344 4833,16474 4833,16334 Z M 4827,16477 L 4711,16544 4468,16544 4827,16337 4827,16477 Z"/>
     <path fill="rgb(197,197,197)" stroke="none" d="M 4711,16544 L 4451,16694 4451,16554 4468,16544 4711,16544 Z M 4827,16337 L 5058,16204 5058,16344 4827,16477 4827,16337 Z M 4821,16481 L 4722,16538 4479,16538 4821,16341 4821,16481 Z"/>
     <path fill="rgb(198,198,198)" stroke="none" d="M 4722,16538 L 4451,16694 4451,16554 4479,16538 4722,16538 Z M 4821,16341 L 5058,16204 5058,16344 4821,16481 4821,16341 Z M 4814,16485 L 4734,16531 4491,16531 4814,16345 4814,16485 Z"/>
     <path fill="rgb(199,199,199)" stroke="none" d="M 4734,16531 L 4451,16694 4451,16554 4491,16531 4734,16531 Z M 4814,16345 L 5058,16204 5058,16344 4814,16485 4814,16345 Z M 4808,16488 L 4744,16525 4501,16525 4808,16348 4808,16488 Z"/>
     <path fill="rgb(200,200,200)" stroke="none" d="M 4744,16525 L 4451,16694 4451,16554 4501,16525 4744,16525 Z M 4808,16348 L 5058,16204 5058,16344 4808,16488 4808,16348 Z M 4802,16492 L 4755,16519 4512,16519 4802,16352 4802,16492 Z"/>
     <path fill="rgb(201,201,201)" stroke="none" d="M 4755,16519 L 4451,16694 4451,16554 4512,16519 4755,16519 Z M 4802,16352 L 5058,16204 5058,16344 4802,16492 4802,16352 Z M 4796,16495 L 4765,16513 4522,16513 4796,16355 4796,16495 Z"/>
     <path fill="rgb(202,202,202)" stroke="none" d="M 4765,16513 L 4451,16694 4451,16554 4522,16513 4765,16513 Z M 4796,16355 L 5058,16204 5058,16344 4796,16495 4796,16355 Z M 4790,16499 L 4775,16507 4533,16507 4790,16359 4790,16499 Z"/>
     <path fill="rgb(203,203,203)" stroke="none" d="M 4775,16507 L 4451,16694 4451,16554 4533,16507 4775,16507 Z M 4790,16359 L 5058,16204 5058,16344 4790,16499 4790,16359 Z M 4784,16501 L 4543,16501 4784,16362 4784,16501 Z"/>
     <path fill="rgb(204,204,204)" stroke="none" d="M 4784,16501 L 4784,16362 5058,16204 5058,16344 4451,16694 4451,16554 4543,16501 4784,16501 Z M 4778,16495 L 4553,16495 4778,16365 4778,16495 Z"/>
     <path fill="rgb(205,205,205)" stroke="none" d="M 4778,16495 L 4778,16365 5058,16204 5058,16344 4451,16694 4451,16554 4553,16495 4778,16495 Z M 4772,16489 L 4564,16489 4772,16369 4772,16489 Z"/>
     <path fill="rgb(206,206,206)" stroke="none" d="M 4772,16489 L 4772,16369 5058,16204 5058,16344 4451,16694 4451,16554 4564,16489 4772,16489 Z M 4766,16483 L 4574,16483 4766,16372 4766,16483 Z"/>
     <path fill="rgb(207,207,207)" stroke="none" d="M 4766,16483 L 4766,16372 5058,16204 5058,16344 4451,16694 4451,16554 4574,16483 4766,16483 Z M 4760,16477 L 4585,16477 4760,16376 4760,16477 Z"/>
     <path fill="rgb(208,208,208)" stroke="none" d="M 4760,16477 L 4760,16376 5058,16204 5058,16344 4451,16694 4451,16554 4585,16477 4760,16477 Z M 4753,16470 L 4597,16470 4753,16380 4753,16470 Z"/>
     <path fill="rgb(209,209,209)" stroke="none" d="M 4753,16470 L 4753,16380 5058,16204 5058,16344 4451,16694 4451,16554 4597,16470 4753,16470 Z M 4747,16464 L 4607,16464 4747,16383 4747,16464 Z"/>
     <path fill="rgb(210,210,210)" stroke="none" d="M 4747,16464 L 4747,16383 5058,16204 5058,16344 4451,16694 4451,16554 4607,16464 4747,16464 Z M 4741,16458 L 4617,16458 4741,16387 4741,16458 Z"/>
     <path fill="rgb(211,211,211)" stroke="none" d="M 4741,16458 L 4741,16387 5058,16204 5058,16344 4451,16694 4451,16554 4617,16458 4741,16458 Z M 4735,16452 L 4628,16452 4735,16390 4735,16452 Z"/>
     <path fill="rgb(212,212,212)" stroke="none" d="M 4735,16452 L 4735,16390 5058,16204 5058,16344 4451,16694 4451,16554 4628,16452 4735,16452 Z M 4729,16446 L 4638,16446 4729,16394 4729,16446 Z"/>
     <path fill="rgb(213,213,213)" stroke="none" d="M 4729,16446 L 4729,16394 5058,16204 5058,16344 4451,16694 4451,16554 4638,16446 4729,16446 Z M 4723,16440 L 4649,16440 4723,16397 4723,16440 Z"/>
     <path fill="rgb(214,214,214)" stroke="none" d="M 4723,16440 L 4723,16397 5058,16204 5058,16344 4451,16694 4451,16554 4649,16440 4723,16440 Z M 4717,16434 L 4659,16434 4717,16401 4717,16434 Z"/>
     <path fill="rgb(215,215,215)" stroke="none" d="M 4717,16434 L 4717,16401 5058,16204 5058,16344 4451,16694 4451,16554 4659,16434 4717,16434 Z M 4711,16428 L 4670,16428 4711,16404 4711,16428 Z"/>
     <path fill="rgb(216,216,216)" stroke="none" d="M 4711,16428 L 4711,16404 5058,16204 5058,16344 4451,16694 4451,16554 4670,16428 4711,16428 Z M 4705,16422 L 4680,16422 4705,16408 4705,16422 Z"/>
     <path fill="rgb(217,217,217)" stroke="none" d="M 4705,16422 L 4705,16408 5058,16204 5058,16344 4451,16694 4451,16554 4680,16422 4705,16422 Z M 4699,16416 L 4690,16416 4699,16411 4699,16416 Z"/>
     <path fill="rgb(218,218,218)" stroke="none" d="M 4699,16416 L 4699,16411 5058,16204 5058,16344 4451,16694 4451,16554 4690,16416 4699,16416 Z"/>
     <path fill="rgb(219,219,219)" stroke="none" d="M 5058,16344 L 4451,16694 4451,16554 5058,16204 5058,16344 Z"/>
     <path fill="rgb(220,220,220)" stroke="none" d="M 5058,16344 L 4451,16694 4451,16554 5058,16204 5058,16344 Z"/>
     <path fill="rgb(221,221,221)" stroke="none" d="M 5058,16344 L 4451,16694 4451,16554 5058,16204 5058,16344 Z"/>
     <path fill="rgb(222,222,222)" stroke="none" d="M 5058,16344 L 4451,16694 4451,16554 5058,16204 5058,16344 Z"/>
     <path fill="rgb(223,223,223)" stroke="none" d="M 5058,16344 L 4451,16694 4451,16554 5058,16204 5058,16344 Z"/>
     <path fill="rgb(224,224,224)" stroke="none" d="M 5058,16344 L 4451,16694 4451,16554 5058,16204 5058,16344 Z"/>
     <path fill="rgb(225,225,225)" stroke="none" d="M 5058,16344 L 4451,16694 4451,16554 5058,16204 5058,16344 Z"/>
     <path fill="rgb(226,226,226)" stroke="none" d="M 5058,16344 L 4451,16694 4451,16554 5058,16204 5058,16344 Z"/>
     <path fill="rgb(227,227,227)" stroke="none" d="M 5058,16344 L 4451,16694 4451,16554 5058,16204 5058,16344 Z"/>
     <path fill="rgb(229,229,229)" stroke="none" d="M 5058,16344 L 4451,16694 4451,16554 5058,16204 5058,16344 Z"/>
     <path fill="none" stroke="rgb(255,255,255)" id="Drawing_4_0" stroke-width="40" stroke-linejoin="round" d="M 5058,16344 L 5058,16204 4451,16554 4451,16694 5058,16344 Z"/>
    </g>
    <g>
     <path fill="rgb(179,179,179)" stroke="none" d="M 4936,16208 L 4936,14594 5299,14384 5299,16208 4936,16208 Z"/>
     <path fill="rgb(180,180,180)" stroke="none" d="M 5299,16208 L 5299,16484 4936,16694 4936,16208 5299,16208 Z M 4936,16185 L 4936,14594 5299,14384 5299,16185 4936,16185 Z"/>
     <path fill="rgb(181,181,181)" stroke="none" d="M 5299,16185 L 5299,16484 4936,16694 4936,16185 5299,16185 Z M 4936,16162 L 4936,14594 5299,14384 5299,16162 4936,16162 Z"/>
     <path fill="rgb(182,182,182)" stroke="none" d="M 5299,16162 L 5299,16484 4936,16694 4936,16162 5299,16162 Z M 4936,16139 L 4936,14594 5299,14384 5299,16139 4936,16139 Z"/>
     <path fill="rgb(183,183,183)" stroke="none" d="M 5299,16139 L 5299,16484 4936,16694 4936,16139 5299,16139 Z M 4936,16116 L 4936,14594 5299,14384 5299,16116 4936,16116 Z"/>
     <path fill="rgb(184,184,184)" stroke="none" d="M 5299,16116 L 5299,16484 4936,16694 4936,16116 5299,16116 Z M 4936,16093 L 4936,14594 5299,14384 5299,16093 4936,16093 Z"/>
     <path fill="rgb(185,185,185)" stroke="none" d="M 5299,16093 L 5299,16484 4936,16694 4936,16093 5299,16093 Z M 4936,16070 L 4936,14594 5299,14384 5299,16070 4936,16070 Z"/>
     <path fill="rgb(186,186,186)" stroke="none" d="M 5299,16070 L 5299,16484 4936,16694 4936,16070 5299,16070 Z M 4936,16046 L 4936,14594 5299,14384 5299,16046 4936,16046 Z"/>
     <path fill="rgb(187,187,187)" stroke="none" d="M 5299,16046 L 5299,16484 4936,16694 4936,16046 5299,16046 Z M 4936,16023 L 4936,14594 5299,14384 5299,16023 4936,16023 Z"/>
     <path fill="rgb(188,188,188)" stroke="none" d="M 5299,16023 L 5299,16484 4936,16694 4936,16023 5299,16023 Z M 4936,16000 L 4936,14594 5299,14384 5299,16000 4936,16000 Z"/>
     <path fill="rgb(189,189,189)" stroke="none" d="M 5299,16000 L 5299,16484 4936,16694 4936,16000 5299,16000 Z M 4936,15977 L 4936,14594 5299,14384 5299,15977 4936,15977 Z"/>
     <path fill="rgb(190,190,190)" stroke="none" d="M 5299,15977 L 5299,16484 4936,16694 4936,15977 5299,15977 Z M 4936,15954 L 4936,14594 5299,14384 5299,15954 4936,15954 Z"/>
     <path fill="rgb(191,191,191)" stroke="none" d="M 5299,15954 L 5299,16484 4936,16694 4936,15954 5299,15954 Z M 4936,15931 L 4936,14594 5299,14384 5299,15931 4936,15931 Z"/>
     <path fill="rgb(192,192,192)" stroke="none" d="M 5299,15931 L 5299,16484 4936,16694 4936,15931 5299,15931 Z M 4936,15908 L 4936,14594 5299,14384 5299,15908 4936,15908 Z"/>
     <path fill="rgb(193,193,193)" stroke="none" d="M 5299,15908 L 5299,16484 4936,16694 4936,15908 5299,15908 Z M 4936,15885 L 4936,14594 5299,14384 5299,15885 4936,15885 Z"/>
     <path fill="rgb(194,194,194)" stroke="none" d="M 5299,15885 L 5299,16484 4936,16694 4936,15885 5299,15885 Z M 4936,15861 L 4936,14594 5299,14384 5299,15861 4936,15861 Z"/>
     <path fill="rgb(195,195,195)" stroke="none" d="M 5299,15861 L 5299,16484 4936,16694 4936,15861 5299,15861 Z M 4936,15838 L 4936,14594 5299,14384 5299,15838 4936,15838 Z"/>
     <path fill="rgb(196,196,196)" stroke="none" d="M 5299,15838 L 5299,16484 4936,16694 4936,15838 5299,15838 Z M 4936,15815 L 4936,14594 5299,14384 5299,15815 4936,15815 Z"/>
     <path fill="rgb(197,197,197)" stroke="none" d="M 5299,15815 L 5299,16484 4936,16694 4936,15815 5299,15815 Z M 4936,15792 L 4936,14594 5299,14384 5299,15792 4936,15792 Z"/>
     <path fill="rgb(198,198,198)" stroke="none" d="M 5299,15792 L 5299,16484 4936,16694 4936,15792 5299,15792 Z M 4936,15769 L 4936,14594 5299,14384 5299,15769 4936,15769 Z"/>
     <path fill="rgb(199,199,199)" stroke="none" d="M 5299,15769 L 5299,16484 4936,16694 4936,15769 5299,15769 Z M 5299,14405 L 5299,15746 4936,15746 4936,14594 5263,14405 5299,14405 Z"/>
     <path fill="rgb(200,200,200)" stroke="none" d="M 5299,15746 L 5299,16484 4936,16694 4936,15746 5299,15746 Z M 5263,14405 L 5299,14384 5299,14405 5263,14405 Z M 5299,14428 L 5299,15723 4936,15723 4936,14594 5223,14428 5299,14428 Z"/>
     <path fill="rgb(201,201,201)" stroke="none" d="M 5299,15723 L 5299,16484 4936,16694 4936,15723 5299,15723 Z M 5223,14428 L 5299,14384 5299,14428 5223,14428 Z M 5299,14451 L 5299,15700 4936,15700 4936,14594 5183,14451 5299,14451 Z"/>
     <path fill="rgb(202,202,202)" stroke="none" d="M 5299,15700 L 5299,16484 4936,16694 4936,15700 5299,15700 Z M 5183,14451 L 5299,14384 5299,14451 5183,14451 Z M 5299,14475 L 5299,15676 4936,15676 4936,14594 5142,14475 5299,14475 Z"/>
     <path fill="rgb(203,203,203)" stroke="none" d="M 5299,15676 L 5299,16484 4936,16694 4936,15676 5299,15676 Z M 5142,14475 L 5299,14384 5299,14475 5142,14475 Z M 5299,14498 L 5299,15653 4936,15653 4936,14594 5102,14498 5299,14498 Z"/>
     <path fill="rgb(204,204,204)" stroke="none" d="M 5299,15653 L 5299,16484 4936,16694 4936,15653 5299,15653 Z M 5102,14498 L 5299,14384 5299,14498 5102,14498 Z M 5299,14521 L 5299,15630 4936,15630 4936,14594 5062,14521 5299,14521 Z"/>
     <path fill="rgb(205,205,205)" stroke="none" d="M 5299,15630 L 5299,16484 4936,16694 4936,15630 5299,15630 Z M 5062,14521 L 5299,14384 5299,14521 5062,14521 Z M 5299,14544 L 5299,15607 4936,15607 4936,14594 5022,14544 5299,14544 Z"/>
     <path fill="rgb(206,206,206)" stroke="none" d="M 5299,15607 L 5299,16484 4936,16694 4936,15607 5299,15607 Z M 5022,14544 L 5299,14384 5299,14544 5022,14544 Z M 5299,14567 L 5299,15584 4936,15584 4936,14594 4983,14567 5299,14567 Z"/>
     <path fill="rgb(207,207,207)" stroke="none" d="M 5299,15584 L 5299,16484 4936,16694 4936,15584 5299,15584 Z M 4983,14567 L 5299,14384 5299,14567 4983,14567 Z M 5299,14590 L 5299,15561 4936,15561 4936,14594 4943,14590 5299,14590 Z"/>
     <path fill="rgb(208,208,208)" stroke="none" d="M 5299,15561 L 5299,16484 4936,16694 4936,15561 5299,15561 Z M 4943,14590 L 5299,14384 5299,14590 4943,14590 Z M 5299,14613 L 5299,15538 4936,15538 4936,14613 5299,14613 Z"/>
     <path fill="rgb(209,209,209)" stroke="none" d="M 5299,15538 L 5299,16484 4936,16694 4936,15538 5299,15538 Z M 4936,14613 L 4936,14594 5299,14384 5299,14613 4936,14613 Z M 5299,14637 L 5299,15514 4936,15514 4936,14637 5299,14637 Z"/>
     <path fill="rgb(210,210,210)" stroke="none" d="M 5299,15514 L 5299,16484 4936,16694 4936,15514 5299,15514 Z M 4936,14637 L 4936,14594 5299,14384 5299,14637 4936,14637 Z M 5299,14660 L 5299,15491 4936,15491 4936,14660 5299,14660 Z"/>
     <path fill="rgb(211,211,211)" stroke="none" d="M 5299,15491 L 5299,16484 4936,16694 4936,15491 5299,15491 Z M 4936,14660 L 4936,14594 5299,14384 5299,14660 4936,14660 Z M 5299,14683 L 5299,15468 4936,15468 4936,14683 5299,14683 Z"/>
     <path fill="rgb(212,212,212)" stroke="none" d="M 5299,15468 L 5299,16484 4936,16694 4936,15468 5299,15468 Z M 4936,14683 L 4936,14594 5299,14384 5299,14683 4936,14683 Z M 5299,14706 L 5299,15445 4936,15445 4936,14706 5299,14706 Z"/>
     <path fill="rgb(213,213,213)" stroke="none" d="M 5299,15445 L 5299,16484 4936,16694 4936,15445 5299,15445 Z M 4936,14706 L 4936,14594 5299,14384 5299,14706 4936,14706 Z M 5299,14729 L 5299,15422 4936,15422 4936,14729 5299,14729 Z"/>
     <path fill="rgb(214,214,214)" stroke="none" d="M 5299,15422 L 5299,16484 4936,16694 4936,15422 5299,15422 Z M 4936,14729 L 4936,14594 5299,14384 5299,14729 4936,14729 Z M 5299,14752 L 5299,15399 4936,15399 4936,14752 5299,14752 Z"/>
     <path fill="rgb(215,215,215)" stroke="none" d="M 5299,15399 L 5299,16484 4936,16694 4936,15399 5299,15399 Z M 4936,14752 L 4936,14594 5299,14384 5299,14752 4936,14752 Z M 5299,14775 L 5299,15376 4936,15376 4936,14775 5299,14775 Z"/>
     <path fill="rgb(216,216,216)" stroke="none" d="M 5299,15376 L 5299,16484 4936,16694 4936,15376 5299,15376 Z M 4936,14775 L 4936,14594 5299,14384 5299,14775 4936,14775 Z M 5299,14798 L 5299,15353 4936,15353 4936,14798 5299,14798 Z"/>
     <path fill="rgb(217,217,217)" stroke="none" d="M 5299,15353 L 5299,16484 4936,16694 4936,15353 5299,15353 Z M 4936,14798 L 4936,14594 5299,14384 5299,14798 4936,14798 Z M 5297,14822 L 5297,15329 4936,15329 4936,14822 5297,14822 Z"/>
     <path fill="rgb(218,218,218)" stroke="none" d="M 5297,15329 L 5297,14822 4936,14822 4936,14594 5299,14384 5299,16484 4936,16694 4936,15329 5297,15329 Z M 5274,14845 L 5274,15306 4936,15306 4936,14845 5274,14845 Z"/>
     <path fill="rgb(219,219,219)" stroke="none" d="M 5274,15306 L 5274,14845 4936,14845 4936,14594 5299,14384 5299,16484 4936,16694 4936,15306 5274,15306 Z M 5251,14868 L 5251,15283 4936,15283 4936,14868 5251,14868 Z"/>
     <path fill="rgb(220,220,220)" stroke="none" d="M 5251,15283 L 5251,14868 4936,14868 4936,14594 5299,14384 5299,16484 4936,16694 4936,15283 5251,15283 Z M 5228,14891 L 5228,15260 4936,15260 4936,14891 5228,14891 Z"/>
     <path fill="rgb(221,221,221)" stroke="none" d="M 5228,15260 L 5228,14891 4936,14891 4936,14594 5299,14384 5299,16484 4936,16694 4936,15260 5228,15260 Z M 5205,14914 L 5205,15237 4936,15237 4936,14914 5205,14914 Z"/>
     <path fill="rgb(222,222,222)" stroke="none" d="M 5205,15237 L 5205,14914 4936,14914 4936,14594 5299,14384 5299,16484 4936,16694 4936,15237 5205,15237 Z M 5182,14937 L 5182,15214 4936,15214 4936,14937 5182,14937 Z"/>
     <path fill="rgb(223,223,223)" stroke="none" d="M 5182,15214 L 5182,14937 4936,14937 4936,14594 5299,14384 5299,16484 4936,16694 4936,15214 5182,15214 Z M 5159,14960 L 5159,15191 4936,15191 4936,14960 5159,14960 Z"/>
     <path fill="rgb(224,224,224)" stroke="none" d="M 5159,15191 L 5159,14960 4936,14960 4936,14594 5299,14384 5299,16484 4936,16694 4936,15191 5159,15191 Z M 4951,14983 L 5136,14983 5136,15168 4951,15168 4951,14983 Z"/>
     <path fill="rgb(225,225,225)" stroke="none" d="M 4951,14983 L 4951,15168 5136,15168 5136,14983 4951,14983 Z M 4975,15007 L 5112,15007 5112,15144 4975,15144 4975,15007 Z M 5299,16484 L 4936,16694 4936,14594 5299,14384 5299,16484 Z"/>
     <path fill="rgb(226,226,226)" stroke="none" d="M 4975,15007 L 4975,15144 5112,15144 5112,15007 4975,15007 Z M 4998,15030 L 5089,15030 5089,15121 4998,15121 4998,15030 Z M 5299,16484 L 4936,16694 4936,14594 5299,14384 5299,16484 Z"/>
     <path fill="rgb(227,227,227)" stroke="none" d="M 4998,15030 L 4998,15121 5089,15121 5089,15030 4998,15030 Z M 5021,15053 L 5066,15053 5066,15098 5021,15098 5021,15053 Z M 5299,16484 L 4936,16694 4936,14594 5299,14384 5299,16484 Z"/>
     <path fill="rgb(229,229,229)" stroke="none" d="M 5021,15053 L 5021,15098 5066,15098 5066,15053 5021,15053 Z M 5299,16484 L 4936,16694 4936,14594 5299,14384 5299,16484 Z"/>
     <path fill="none" stroke="rgb(255,255,255)" id="Drawing_5_0" stroke-width="40" stroke-linejoin="round" d="M 5299,16484 L 5299,14384 4936,14594 4936,16694 5299,16484 Z"/>
    </g>
    <g>
     <defs>
      <linearGradient id="Gradient_97" gradientUnits="userSpaceOnUse" x1="3599" y1="16378" x2="4452" y2="16380">
       <stop offset="0.1" stop-color="rgb(179,179,179)"/>
       <stop offset="1" stop-color="rgb(229,229,229)"/>
      </linearGradient>
     </defs>
     <path fill="url(#Gradient_97)" stroke="rgb(255,255,255)" id="Drawing_6_0" stroke-width="40" stroke-linejoin="round" d="M 4451,16694 L 4452,16554 3602,16064 3601,16204 4451,16694 Z"/>
    </g>
    <g>
     <defs>
      <linearGradient id="Gradient_98" gradientUnits="userSpaceOnUse" x1="4147" y1="15924" x2="4147" y2="16554">
       <stop offset="0.1" stop-color="rgb(179,179,179)"/>
       <stop offset="1" stop-color="rgb(229,229,229)"/>
      </linearGradient>
     </defs>
     <path fill="url(#Gradient_98)" stroke="rgb(255,255,255)" id="Drawing_7_0" stroke-width="40" stroke-linejoin="round" d="M 4451,16554 L 4693,16414 3844,15924 3602,16064 4451,16554 Z"/>
    </g>
    <g>
     <defs>
      <linearGradient id="Gradient_99" gradientUnits="userSpaceOnUse" x1="3477" y1="15223" x2="4938" y2="15225">
       <stop offset="0.1" stop-color="rgb(179,179,179)"/>
       <stop offset="1" stop-color="rgb(229,229,229)"/>
      </linearGradient>
     </defs>
     <path fill="url(#Gradient_99)" stroke="rgb(255,255,255)" id="Drawing_8_0" stroke-width="40" stroke-linejoin="round" d="M 4936,16694 L 4936,14594 3481,13754 3481,15854 4936,16694 Z"/>
    </g>
    <g>
     <path fill="none" stroke="rgb(0,0,0)" id="Drawing_9_0" stroke-width="40" stroke-linejoin="round" d="M 5299,16484 L 5299,14384 3844,13544 3481,13754 3481,15854 3723,15994 3602,16064 3602,16204 4451,16694 4693,16554 4936,16694 5299,16484 Z"/>
    </g>
    <g>
     <path fill="rgb(102,102,255)" stroke="none" d="M 5178,15504 L 5178,15364 5057,15434 5057,15574 5178,15504 Z"/>
     <path fill="none" stroke="rgb(51,51,51)" id="Drawing_10_0" stroke-width="40" stroke-linejoin="round" d="M 5178,15504 L 5178,15364 5057,15434 5057,15574 5178,15504 Z"/>
    </g>
   </g>
  </g>
 </g>
</svg>