<?xml version="1.0" encoding="UTF-8"?>

<svg version="1.2" baseProfile="tiny" width="11.92mm" height="11.03mm" viewBox="8891 4778 1192 1103" preserveAspectRatio="xMidYMid" fill-rule="evenodd" stroke-width="28.222" stroke-linejoin="round" xmlns="http://www.w3.org/2000/svg" xmlns:xlink="http://www.w3.org/1999/xlink" xml:space="preserve">
 <g visibility="visible" id="Slide_1">
  <g id="DrawingGroup_1">
   <g>
    <path fill="rgb(51,51,51)" stroke="none" d="M 9977,5467 L 9635,5664 9292,5664 9291,5374 9977,4980 9977,5467 Z"/>
    <path fill="rgb(53,53,53)" stroke="none" d="M 9635,5664 L 9293,5861 9292,5664 9635,5664 Z M 9977,4980 L 10063,4931 10063,5418 9977,5467 9977,4980 Z M 9967,5473 L 9653,5654 9292,5654 9291,5374 9967,4986 9967,5473 Z"/>
    <path fill="rgb(55,55,55)" stroke="none" d="M 9653,5654 L 9293,5861 9292,5654 9653,5654 Z M 9967,4986 L 10063,4931 10063,5418 9967,5473 9967,4986 Z M 9957,5479 L 9670,5644 9292,5644 9291,5374 9957,4992 9957,5479 Z"/>
    <path fill="rgb(57,57,57)" stroke="none" d="M 9670,5644 L 9293,5861 9292,5644 9670,5644 Z M 9957,4992 L 10063,4931 10063,5418 9957,5479 9957,4992 Z M 9947,5485 L 9688,5634 9292,5634 9291,5374 9947,4998 9947,5485 Z"/>
    <path fill="rgb(59,59,59)" stroke="none" d="M 9688,5634 L 9293,5861 9292,5634 9688,5634 Z M 9947,4998 L 10063,4931 10063,5418 9947,5485 9947,4998 Z M 9937,5490 L 9705,5624 9292,5624 9291,5374 9937,5003 9937,5490 Z"/>
    <path fill="rgb(62,62,62)" stroke="none" d="M 9705,5624 L 9293,5861 9292,5624 9705,5624 Z M 9937,5003 L 10063,4931 10063,5418 9937,5490 9937,5003 Z M 9927,5496 L 9722,5614 9292,5614 9291,5374 9927,5009 9927,5496 Z"/>
    <path fill="rgb(64,64,64)" stroke="none" d="M 9722,5614 L 9293,5861 9292,5614 9722,5614 Z M 9927,5009 L 10063,4931 10063,5418 9927,5496 9927,5009 Z M 9917,5502 L 9740,5604 9292,5604 9291,5374 9917,5015 9917,5502 Z"/>
    <path fill="rgb(66,66,66)" stroke="none" d="M 9740,5604 L 9293,5861 9292,5604 9740,5604 Z M 9917,5015 L 10063,4931 10063,5418 9917,5502 9917,5015 Z M 9906,5508 L 9759,5593 9292,5593 9291,5374 9906,5021 9906,5508 Z"/>
    <path fill="rgb(68,68,68)" stroke="none" d="M 9759,5593 L 9293,5861 9292,5593 9759,5593 Z M 9906,5021 L 10063,4931 10063,5418 9906,5508 9906,5021 Z M 9896,5514 L 9776,5583 9292,5583 9291,5374 9896,5027 9896,5514 Z"/>
    <path fill="rgb(70,70,70)" stroke="none" d="M 9776,5583 L 9293,5861 9292,5583 9776,5583 Z M 9896,5027 L 10063,4931 10063,5418 9896,5514 9896,5027 Z M 9886,5520 L 9794,5573 9292,5573 9291,5374 9886,5033 9886,5520 Z"/>
    <path fill="rgb(73,73,73)" stroke="none" d="M 9794,5573 L 9293,5861 9292,5573 9794,5573 Z M 9886,5033 L 10063,4931 10063,5418 9886,5520 9886,5033 Z M 9876,5526 L 9811,5563 9292,5563 9291,5374 9876,5038 9876,5526 Z"/>
    <path fill="rgb(75,75,75)" stroke="none" d="M 9811,5563 L 9293,5861 9292,5563 9811,5563 Z M 9876,5038 L 10063,4931 10063,5418 9876,5526 9876,5038 Z M 9866,5531 L 9828,5553 9292,5553 9291,5374 9866,5044 9866,5531 Z"/>
    <path fill="rgb(77,77,77)" stroke="none" d="M 9828,5553 L 9293,5861 9292,5553 9828,5553 Z M 9866,5044 L 10063,4931 10063,5418 9866,5531 9866,5044 Z M 9856,5537 L 9846,5543 9292,5543 9291,5374 9856,5050 9856,5537 Z"/>
    <path fill="rgb(79,79,79)" stroke="none" d="M 9846,5543 L 9293,5861 9292,5543 9846,5543 Z M 9856,5050 L 10063,4931 10063,5418 9856,5537 9856,5050 Z M 9846,5533 L 9292,5533 9291,5374 9846,5056 9846,5533 Z"/>
    <path fill="rgb(82,82,82)" stroke="none" d="M 9846,5533 L 9846,5056 10063,4931 10063,5418 9293,5861 9292,5533 9846,5533 Z M 9835,5522 L 9292,5522 9291,5374 9835,5062 9835,5522 Z"/>
    <path fill="rgb(84,84,84)" stroke="none" d="M 9835,5522 L 9835,5062 10063,4931 10063,5418 9293,5861 9292,5522 9835,5522 Z M 9825,5512 L 9292,5512 9291,5374 9825,5068 9825,5512 Z"/>
    <path fill="rgb(86,86,86)" stroke="none" d="M 9825,5512 L 9825,5068 10063,4931 10063,5418 9293,5861 9292,5512 9825,5512 Z M 9815,5502 L 9292,5502 9291,5374 9815,5073 9815,5502 Z"/>
    <path fill="rgb(88,88,88)" stroke="none" d="M 9815,5502 L 9815,5073 10063,4931 10063,5418 9293,5861 9292,5502 9815,5502 Z M 9805,5492 L 9291,5492 9291,5374 9805,5079 9805,5492 Z"/>
    <path fill="rgb(90,90,90)" stroke="none" d="M 9805,5492 L 9805,5079 10063,4931 10063,5418 9293,5861 9291,5492 9805,5492 Z M 9795,5482 L 9291,5482 9291,5374 9795,5085 9795,5482 Z"/>
    <path fill="rgb(93,93,93)" stroke="none" d="M 9795,5482 L 9795,5085 10063,4931 10063,5418 9293,5861 9291,5482 9795,5482 Z M 9785,5472 L 9291,5472 9291,5374 9785,5091 9785,5472 Z"/>
    <path fill="rgb(95,95,95)" stroke="none" d="M 9785,5472 L 9785,5091 10063,4931 10063,5418 9293,5861 9291,5472 9785,5472 Z M 9775,5462 L 9291,5462 9291,5374 9775,5096 9775,5462 Z"/>
    <path fill="rgb(97,97,97)" stroke="none" d="M 9775,5462 L 9775,5096 10063,4931 10063,5418 9293,5861 9291,5462 9775,5462 Z M 9764,5451 L 9291,5451 9291,5374 9764,5103 9764,5451 Z"/>
    <path fill="rgb(99,99,99)" stroke="none" d="M 9764,5451 L 9764,5103 10063,4931 10063,5418 9293,5861 9291,5451 9764,5451 Z M 9754,5441 L 9291,5441 9291,5374 9754,5108 9754,5441 Z"/>
    <path fill="rgb(102,102,102)" stroke="none" d="M 9754,5441 L 9754,5108 10063,4931 10063,5418 9293,5861 9291,5441 9754,5441 Z M 9744,5431 L 9299,5431 9299,5369 9744,5114 9744,5431 Z"/>
    <path fill="rgb(104,104,104)" stroke="none" d="M 9299,5431 L 9744,5431 9744,5114 10063,4931 10063,5418 9293,5861 9291,5374 9299,5369 9299,5431 Z M 9734,5421 L 9309,5421 9309,5364 9734,5120 9734,5421 Z"/>
    <path fill="rgb(106,106,106)" stroke="none" d="M 9309,5421 L 9734,5421 9734,5120 10063,4931 10063,5418 9293,5861 9291,5374 9309,5364 9309,5421 Z M 9724,5411 L 9319,5411 9319,5358 9724,5126 9724,5411 Z"/>
    <path fill="rgb(108,108,108)" stroke="none" d="M 9319,5411 L 9724,5411 9724,5126 10063,4931 10063,5418 9293,5861 9291,5374 9319,5358 9319,5411 Z M 9714,5401 L 9329,5401 9329,5352 9714,5131 9714,5401 Z"/>
    <path fill="rgb(110,110,110)" stroke="none" d="M 9329,5401 L 9714,5401 9714,5131 10063,4931 10063,5418 9293,5861 9291,5374 9329,5352 9329,5401 Z M 9704,5391 L 9339,5391 9339,5346 9704,5137 9704,5391 Z"/>
    <path fill="rgb(113,113,113)" stroke="none" d="M 9339,5391 L 9704,5391 9704,5137 10063,4931 10063,5418 9293,5861 9291,5374 9339,5346 9339,5391 Z M 9693,5380 L 9350,5380 9350,5340 9693,5143 9693,5380 Z"/>
    <path fill="rgb(115,115,115)" stroke="none" d="M 9350,5380 L 9693,5380 9693,5143 10063,4931 10063,5418 9293,5861 9291,5374 9350,5340 9350,5380 Z M 9683,5370 L 9360,5370 9360,5334 9683,5149 9683,5370 Z"/>
    <path fill="rgb(117,117,117)" stroke="none" d="M 9360,5370 L 9683,5370 9683,5149 10063,4931 10063,5418 9293,5861 9291,5374 9360,5334 9360,5370 Z M 9673,5360 L 9370,5360 9370,5329 9673,5155 9673,5360 Z"/>
    <path fill="rgb(119,119,119)" stroke="none" d="M 9370,5360 L 9673,5360 9673,5155 10063,4931 10063,5418 9293,5861 9291,5374 9370,5329 9370,5360 Z M 9663,5350 L 9380,5350 9380,5323 9663,5161 9663,5350 Z"/>
    <path fill="rgb(121,121,121)" stroke="none" d="M 9380,5350 L 9663,5350 9663,5161 10063,4931 10063,5418 9293,5861 9291,5374 9380,5323 9380,5350 Z M 9653,5340 L 9390,5340 9390,5317 9653,5166 9653,5340 Z"/>
    <path fill="rgb(124,124,124)" stroke="none" d="M 9390,5340 L 9653,5340 9653,5166 10063,4931 10063,5418 9293,5861 9291,5374 9390,5317 9390,5340 Z M 9643,5330 L 9400,5330 9400,5311 9643,5172 9643,5330 Z"/>
    <path fill="rgb(126,126,126)" stroke="none" d="M 9400,5330 L 9643,5330 9643,5172 10063,4931 10063,5418 9293,5861 9291,5374 9400,5311 9400,5330 Z M 9633,5320 L 9410,5320 9410,5306 9633,5178 9633,5320 Z"/>
    <path fill="rgb(128,128,128)" stroke="none" d="M 9410,5320 L 9633,5320 9633,5178 10063,4931 10063,5418 9293,5861 9291,5374 9410,5306 9410,5320 Z M 9622,5309 L 9421,5309 9421,5299 9622,5184 9622,5309 Z"/>
    <path fill="rgb(130,130,130)" stroke="none" d="M 9421,5309 L 9622,5309 9622,5184 10063,4931 10063,5418 9293,5861 9291,5374 9421,5299 9421,5309 Z M 9612,5299 L 9431,5299 9431,5294 9612,5190 9612,5299 Z"/>
    <path fill="rgb(133,133,133)" stroke="none" d="M 9431,5299 L 9612,5299 9612,5190 10063,4931 10063,5418 9293,5861 9291,5374 9431,5294 9431,5299 Z M 9602,5289 L 9441,5289 9441,5288 9602,5196 9602,5289 Z"/>
    <path fill="rgb(135,135,135)" stroke="none" d="M 9441,5289 L 9602,5289 9602,5196 10063,4931 10063,5418 9293,5861 9291,5374 9441,5288 9441,5289 Z M 9592,5279 L 9457,5279 9592,5201 9592,5279 Z"/>
    <path fill="rgb(137,137,137)" stroke="none" d="M 9592,5279 L 9592,5201 10063,4931 10063,5418 9293,5861 9291,5374 9457,5279 9592,5279 Z M 9582,5269 L 9474,5269 9582,5207 9582,5269 Z"/>
    <path fill="rgb(139,139,139)" stroke="none" d="M 9582,5269 L 9582,5207 10063,4931 10063,5418 9293,5861 9291,5374 9474,5269 9582,5269 Z M 9572,5259 L 9491,5259 9572,5213 9572,5259 Z"/>
    <path fill="rgb(141,141,141)" stroke="none" d="M 9572,5259 L 9572,5213 10063,4931 10063,5418 9293,5861 9291,5374 9491,5259 9572,5259 Z M 9562,5249 L 9509,5249 9562,5218 9562,5249 Z"/>
    <path fill="rgb(144,144,144)" stroke="none" d="M 9562,5249 L 9562,5218 10063,4931 10063,5418 9293,5861 9291,5374 9509,5249 9562,5249 Z M 9551,5238 L 9528,5238 9551,5225 9551,5238 Z"/>
    <path fill="rgb(146,146,146)" stroke="none" d="M 9551,5238 L 9551,5225 10063,4931 10063,5418 9293,5861 9291,5374 9528,5238 9551,5238 Z"/>
    <path fill="rgb(148,148,148)" stroke="none" d="M 9293,5861 L 9291,5374 10063,4931 10063,5418 9293,5861 Z"/>
    <path fill="rgb(153,153,153)" stroke="none" d="M 9293,5861 L 9291,5374 10063,4931 10063,5418 9293,5861 Z"/>
    <path fill="none" stroke="rgb(178,178,178)" id="Drawing_1_0" stroke-width="40" stroke-linejoin="round" d="M 9293,5861 L 9291,5374 10063,4931 10063,5418 9293,5861 Z"/>
   </g>
   <g>
    <path fill="rgb(51,51,51)" stroke="none" d="M 9852,5053 L 9295,5374 9064,5241 9832,4798 9852,4810 9852,5053 Z"/>
    <path fill="rgb(53,53,53)" stroke="none" d="M 9852,4810 L 10063,4931 9852,5053 9852,4810 Z M 9842,5058 L 9295,5374 9064,5241 9832,4798 9842,4804 9842,5058 Z"/>
    <path fill="rgb(55,55,55)" stroke="none" d="M 9842,4804 L 10063,4931 9842,5058 9842,4804 Z M 9832,5064 L 9295,5374 9064,5241 9832,4798 9832,5064 Z"/>
    <path fill="rgb(57,57,57)" stroke="none" d="M 9832,4798 L 10063,4931 9832,5064 9832,4798 Z M 9822,5070 L 9295,5374 9064,5241 9822,4804 9822,5070 Z"/>
    <path fill="rgb(59,59,59)" stroke="none" d="M 9822,4804 L 9832,4798 10063,4931 9822,5070 9822,4804 Z M 9812,5076 L 9295,5374 9064,5241 9812,4810 9812,5076 Z"/>
    <path fill="rgb(61,61,61)" stroke="none" d="M 9812,4810 L 9832,4798 10063,4931 9812,5076 9812,4810 Z M 9802,5082 L 9295,5374 9064,5241 9802,4815 9802,5082 Z"/>
    <path fill="rgb(63,63,63)" stroke="none" d="M 9802,4815 L 9832,4798 10063,4931 9802,5082 9802,4815 Z M 9792,5087 L 9295,5374 9064,5241 9792,4821 9792,5087 Z"/>
    <path fill="rgb(65,65,65)" stroke="none" d="M 9792,4821 L 9832,4798 10063,4931 9792,5087 9792,4821 Z M 9782,5093 L 9295,5374 9064,5241 9782,4827 9782,5093 Z"/>
    <path fill="rgb(67,67,67)" stroke="none" d="M 9782,4827 L 9832,4798 10063,4931 9782,5093 9782,4827 Z M 9772,5099 L 9295,5374 9064,5241 9772,4833 9772,5099 Z"/>
    <path fill="rgb(69,69,69)" stroke="none" d="M 9772,4833 L 9832,4798 10063,4931 9772,5099 9772,4833 Z M 9762,5105 L 9304,5369 9286,5369 9064,5241 9762,4838 9762,5105 Z"/>
    <path fill="rgb(71,71,71)" stroke="none" d="M 9304,5369 L 9295,5374 9286,5369 9304,5369 Z M 9762,4838 L 9832,4798 10063,4931 9762,5105 9762,4838 Z M 9752,5110 L 9321,5359 9269,5359 9064,5241 9752,4844 9752,5110 Z"/>
    <path fill="rgb(73,73,73)" stroke="none" d="M 9321,5359 L 9295,5374 9269,5359 9321,5359 Z M 9752,4844 L 9832,4798 10063,4931 9752,5110 9752,4844 Z M 9742,5116 L 9338,5349 9252,5349 9064,5241 9742,4850 9742,5116 Z"/>
    <path fill="rgb(75,75,75)" stroke="none" d="M 9338,5349 L 9295,5374 9252,5349 9338,5349 Z M 9742,4850 L 9832,4798 10063,4931 9742,5116 9742,4850 Z M 9732,5122 L 9356,5339 9234,5339 9064,5241 9732,4856 9732,5122 Z"/>
    <path fill="rgb(77,77,77)" stroke="none" d="M 9356,5339 L 9295,5374 9234,5339 9356,5339 Z M 9732,4856 L 9832,4798 10063,4931 9732,5122 9732,4856 Z M 9722,5128 L 9373,5329 9217,5329 9064,5241 9722,4861 9722,5128 Z"/>
    <path fill="rgb(79,79,79)" stroke="none" d="M 9373,5329 L 9295,5374 9217,5329 9373,5329 Z M 9722,4861 L 9832,4798 10063,4931 9722,5128 9722,4861 Z M 9712,5133 L 9390,5319 9199,5319 9064,5241 9712,4867 9712,5133 Z"/>
    <path fill="rgb(81,81,81)" stroke="none" d="M 9390,5319 L 9295,5374 9199,5319 9390,5319 Z M 9712,4867 L 9832,4798 10063,4931 9712,5133 9712,4867 Z M 9702,5139 L 9408,5309 9182,5309 9064,5241 9702,4873 9702,5139 Z"/>
    <path fill="rgb(83,83,83)" stroke="none" d="M 9408,5309 L 9295,5374 9182,5309 9408,5309 Z M 9702,4873 L 9832,4798 10063,4931 9702,5139 9702,4873 Z M 9692,5145 L 9425,5299 9165,5299 9064,5241 9692,4879 9692,5145 Z"/>
    <path fill="rgb(85,85,85)" stroke="none" d="M 9425,5299 L 9295,5374 9165,5299 9425,5299 Z M 9692,4879 L 9832,4798 10063,4931 9692,5145 9692,4879 Z M 9682,5151 L 9442,5289 9147,5289 9064,5241 9682,4885 9682,5151 Z"/>
    <path fill="rgb(87,87,87)" stroke="none" d="M 9442,5289 L 9295,5374 9147,5289 9442,5289 Z M 9682,4885 L 9832,4798 10063,4931 9682,5151 9682,4885 Z M 9672,5157 L 9460,5279 9130,5279 9064,5241 9672,4890 9672,5157 Z"/>
    <path fill="rgb(89,89,89)" stroke="none" d="M 9460,5279 L 9295,5374 9130,5279 9460,5279 Z M 9672,4890 L 9832,4798 10063,4931 9672,5157 9672,4890 Z M 9662,5162 L 9477,5269 9113,5269 9064,5241 9662,4896 9662,5162 Z"/>
    <path fill="rgb(91,91,91)" stroke="none" d="M 9477,5269 L 9295,5374 9113,5269 9477,5269 Z M 9662,4896 L 9832,4798 10063,4931 9662,5162 9662,4896 Z M 9652,5168 L 9494,5259 9095,5259 9072,5246 9072,5236 9652,4902 9652,5168 Z"/>
    <path fill="rgb(93,93,93)" stroke="none" d="M 9072,5246 L 9064,5241 9072,5236 9072,5246 Z M 9494,5259 L 9295,5374 9095,5259 9494,5259 Z M 9652,4902 L 9832,4798 10063,4931 9652,5168 9652,4902 Z M 9642,5174 L 9512,5249 9082,5249 9082,5231 9642,4908 9642,5174 Z"/>
    <path fill="rgb(95,95,95)" stroke="none" d="M 9082,5249 L 9512,5249 9295,5374 9064,5241 9082,5231 9082,5249 Z M 9642,4908 L 9832,4798 10063,4931 9642,5174 9642,4908 Z M 9632,5180 L 9529,5239 9092,5239 9092,5225 9632,4913 9632,5180 Z"/>
    <path fill="rgb(97,97,97)" stroke="none" d="M 9092,5239 L 9529,5239 9295,5374 9064,5241 9092,5225 9092,5239 Z M 9632,4913 L 9832,4798 10063,4931 9632,5180 9632,4913 Z M 9622,5185 L 9546,5229 9102,5229 9102,5219 9622,4919 9622,5185 Z"/>
    <path fill="rgb(99,99,99)" stroke="none" d="M 9102,5229 L 9546,5229 9295,5374 9064,5241 9102,5219 9102,5229 Z M 9622,4919 L 9832,4798 10063,4931 9622,5185 9622,4919 Z M 9612,5191 L 9564,5219 9112,5219 9112,5213 9612,4925 9612,5191 Z"/>
    <path fill="rgb(102,102,102)" stroke="none" d="M 9112,5219 L 9564,5219 9295,5374 9064,5241 9112,5213 9112,5219 Z M 9612,4925 L 9832,4798 10063,4931 9612,5191 9612,4925 Z M 9602,5197 L 9581,5209 9122,5209 9122,5208 9602,4931 9602,5197 Z"/>
    <path fill="rgb(104,104,104)" stroke="none" d="M 9122,5209 L 9581,5209 9295,5374 9064,5241 9122,5208 9122,5209 Z M 9602,4931 L 9832,4798 10063,4931 9602,5197 9602,4931 Z M 9592,5199 L 9137,5199 9592,4936 9592,5199 Z"/>
    <path fill="rgb(106,106,106)" stroke="none" d="M 9592,5199 L 9592,4936 9832,4798 10063,4931 9295,5374 9064,5241 9137,5199 9592,5199 Z M 9582,5189 L 9154,5189 9582,4942 9582,5189 Z"/>
    <path fill="rgb(108,108,108)" stroke="none" d="M 9582,5189 L 9582,4942 9832,4798 10063,4931 9295,5374 9064,5241 9154,5189 9582,5189 Z M 9572,5179 L 9171,5179 9572,4948 9572,5179 Z"/>
    <path fill="rgb(110,110,110)" stroke="none" d="M 9572,5179 L 9572,4948 9832,4798 10063,4931 9295,5374 9064,5241 9171,5179 9572,5179 Z M 9562,5169 L 9189,5169 9562,4954 9562,5169 Z"/>
    <path fill="rgb(112,112,112)" stroke="none" d="M 9562,5169 L 9562,4954 9832,4798 10063,4931 9295,5374 9064,5241 9189,5169 9562,5169 Z M 9552,5159 L 9206,5159 9552,4960 9552,5159 Z"/>
    <path fill="rgb(114,114,114)" stroke="none" d="M 9552,5159 L 9552,4960 9832,4798 10063,4931 9295,5374 9064,5241 9206,5159 9552,5159 Z M 9542,5149 L 9223,5149 9542,4965 9542,5149 Z"/>
    <path fill="rgb(116,116,116)" stroke="none" d="M 9542,5149 L 9542,4965 9832,4798 10063,4931 9295,5374 9064,5241 9223,5149 9542,5149 Z M 9532,5139 L 9241,5139 9532,4971 9532,5139 Z"/>
    <path fill="rgb(118,118,118)" stroke="none" d="M 9532,5139 L 9532,4971 9832,4798 10063,4931 9295,5374 9064,5241 9241,5139 9532,5139 Z M 9522,5129 L 9258,5129 9522,4977 9522,5129 Z"/>
    <path fill="rgb(120,120,120)" stroke="none" d="M 9522,5129 L 9522,4977 9832,4798 10063,4931 9295,5374 9064,5241 9258,5129 9522,5129 Z M 9512,5119 L 9276,5119 9512,4983 9512,5119 Z"/>
    <path fill="rgb(122,122,122)" stroke="none" d="M 9512,5119 L 9512,4983 9832,4798 10063,4931 9295,5374 9064,5241 9276,5119 9512,5119 Z M 9502,5109 L 9293,5109 9502,4988 9502,5109 Z"/>
    <path fill="rgb(124,124,124)" stroke="none" d="M 9502,5109 L 9502,4988 9832,4798 10063,4931 9295,5374 9064,5241 9293,5109 9502,5109 Z M 9492,5099 L 9310,5099 9492,4994 9492,5099 Z"/>
    <path fill="rgb(126,126,126)" stroke="none" d="M 9492,5099 L 9492,4994 9832,4798 10063,4931 9295,5374 9064,5241 9310,5099 9492,5099 Z M 9482,5089 L 9328,5089 9482,5000 9482,5089 Z"/>
    <path fill="rgb(128,128,128)" stroke="none" d="M 9482,5089 L 9482,5000 9832,4798 10063,4931 9295,5374 9064,5241 9328,5089 9482,5089 Z M 9472,5079 L 9345,5079 9472,5006 9472,5079 Z"/>
    <path fill="rgb(130,130,130)" stroke="none" d="M 9472,5079 L 9472,5006 9832,4798 10063,4931 9295,5374 9064,5241 9345,5079 9472,5079 Z M 9462,5069 L 9362,5069 9462,5011 9462,5069 Z"/>
    <path fill="rgb(132,132,132)" stroke="none" d="M 9462,5069 L 9462,5011 9832,4798 10063,4931 9295,5374 9064,5241 9362,5069 9462,5069 Z M 9452,5059 L 9380,5059 9452,5017 9452,5059 Z"/>
    <path fill="rgb(134,134,134)" stroke="none" d="M 9452,5059 L 9452,5017 9832,4798 10063,4931 9295,5374 9064,5241 9380,5059 9452,5059 Z M 9442,5049 L 9397,5049 9442,5023 9442,5049 Z"/>
    <path fill="rgb(136,136,136)" stroke="none" d="M 9442,5049 L 9442,5023 9832,4798 10063,4931 9295,5374 9064,5241 9397,5049 9442,5049 Z M 9432,5039 L 9414,5039 9432,5029 9432,5039 Z"/>
    <path fill="rgb(138,138,138)" stroke="none" d="M 9432,5039 L 9432,5029 9832,4798 10063,4931 9295,5374 9064,5241 9414,5039 9432,5039 Z"/>
    <path fill="rgb(140,140,140)" stroke="none" d="M 9295,5374 L 9064,5241 9832,4798 10063,4931 9295,5374 Z"/>
    <path fill="rgb(142,142,142)" stroke="none" d="M 9295,5374 L 9064,5241 9832,4798 10063,4931 9295,5374 Z"/>
    <path fill="rgb(144,144,144)" stroke="none" d="M 9295,5374 L 9064,5241 9832,4798 10063,4931 9295,5374 Z"/>
    <path fill="rgb(146,146,146)" stroke="none" d="M 9295,5374 L 9064,5241 9832,4798 10063,4931 9295,5374 Z"/>
    <path fill="rgb(148,148,148)" stroke="none" d="M 9295,5374 L 9064,5241 9832,4798 10063,4931 9295,5374 Z"/>
    <path fill="rgb(153,153,153)" stroke="none" d="M 9295,5374 L 9064,5241 9832,4798 10063,4931 9295,5374 Z"/>
    <path fill="none" stroke="rgb(178,178,178)" id="Drawing_2_0" stroke-width="40" stroke-linejoin="round" d="M 9295,5374 L 9064,5241 9832,4798 10063,4931 9295,5374 Z"/>
   </g>
   <g>
    <defs>
     <linearGradient id="Gradient_318" gradientUnits="userSpaceOnUse" x1="9062" y1="5551" x2="9295" y2="5551">
      <stop offset="0.1" stop-color="rgb(51,51,51)"/>
      <stop offset="1" stop-color="rgb(153,153,153)"/>
     </linearGradient>
    </defs>
    <path fill="url(#Gradient_318)" stroke="rgb(178,178,178)" id="Drawing_3_0" stroke-width="40" stroke-linejoin="round" d="M 9064,5728 L 9064,5241 9295,5374 9295,5861 9064,5728 Z"/>
   </g>
   <g>
    <defs>
     <linearGradient id="Gradient_319" gradientUnits="userSpaceOnUse" x1="8910" y1="5684" x2="8987" y2="5684">
      <stop offset="0.1" stop-color="rgb(179,179,179)"/>
      <stop offset="1" stop-color="rgb(229,229,229)"/>
     </linearGradient>
    </defs>
    <path fill="url(#Gradient_319)" stroke="rgb(255,255,255)" id="Drawing_4_0" stroke-width="40" stroke-linejoin="round" d="M 8911,5817 L 8911,5507 8988,5551 8988,5861 8911,5817 Z"/>
   </g>
   <g>
    <path fill="rgb(179,179,179)" stroke="none" d="M 8987,5766 L 8986,5551 9218,5418 9218,5728 9152,5766 8987,5766 Z"/>
    <path fill="rgb(180,180,180)" stroke="none" d="M 9152,5766 L 8988,5861 8987,5766 9152,5766 Z M 8987,5761 L 8986,5551 9218,5418 9218,5728 9161,5761 8987,5761 Z"/>
    <path fill="rgb(181,181,181)" stroke="none" d="M 9161,5761 L 8988,5861 8987,5761 9161,5761 Z M 8987,5756 L 8986,5551 9218,5418 9218,5728 9170,5756 8987,5756 Z"/>
    <path fill="rgb(182,182,182)" stroke="none" d="M 9170,5756 L 8988,5861 8987,5756 9170,5756 Z M 8987,5751 L 8986,5551 9218,5418 9218,5728 9178,5751 8987,5751 Z"/>
    <path fill="rgb(183,183,183)" stroke="none" d="M 9178,5751 L 8988,5861 8987,5751 9178,5751 Z M 8987,5746 L 8986,5551 9218,5418 9218,5728 9187,5746 8987,5746 Z"/>
    <path fill="rgb(184,184,184)" stroke="none" d="M 9187,5746 L 8988,5861 8987,5746 9187,5746 Z M 8987,5741 L 8986,5551 9218,5418 9218,5728 9196,5741 8987,5741 Z"/>
    <path fill="rgb(185,185,185)" stroke="none" d="M 9196,5741 L 8988,5861 8987,5741 9196,5741 Z M 8987,5736 L 8986,5551 9218,5418 9218,5728 9204,5736 8987,5736 Z"/>
    <path fill="rgb(186,186,186)" stroke="none" d="M 9204,5736 L 8988,5861 8987,5736 9204,5736 Z M 8987,5731 L 8986,5551 9218,5418 9218,5728 9213,5731 8987,5731 Z"/>
    <path fill="rgb(188,188,188)" stroke="none" d="M 9213,5731 L 8988,5861 8987,5731 9213,5731 Z M 8987,5726 L 8986,5551 9218,5418 9218,5726 8987,5726 Z"/>
    <path fill="rgb(189,189,189)" stroke="none" d="M 9218,5726 L 9218,5728 8988,5861 8987,5726 9218,5726 Z M 8987,5721 L 8986,5551 9218,5418 9218,5721 8987,5721 Z"/>
    <path fill="rgb(190,190,190)" stroke="none" d="M 9218,5721 L 9218,5728 8988,5861 8987,5721 9218,5721 Z M 8987,5716 L 8986,5551 9218,5418 9218,5716 8987,5716 Z"/>
    <path fill="rgb(191,191,191)" stroke="none" d="M 9218,5716 L 9218,5728 8988,5861 8987,5716 9218,5716 Z M 9216,5711 L 8987,5711 8986,5551 9216,5419 9216,5711 Z"/>
    <path fill="rgb(192,192,192)" stroke="none" d="M 9216,5711 L 9216,5419 9218,5418 9218,5728 8988,5861 8987,5711 9216,5711 Z M 9211,5706 L 8987,5706 8986,5551 9211,5422 9211,5706 Z"/>
    <path fill="rgb(193,193,193)" stroke="none" d="M 9211,5706 L 9211,5422 9218,5418 9218,5728 8988,5861 8987,5706 9211,5706 Z M 9206,5701 L 8987,5701 8986,5551 9206,5425 9206,5701 Z"/>
    <path fill="rgb(194,194,194)" stroke="none" d="M 9206,5701 L 9206,5425 9218,5418 9218,5728 8988,5861 8987,5701 9206,5701 Z M 9200,5695 L 8987,5695 8986,5551 9200,5428 9200,5695 Z"/>
    <path fill="rgb(196,196,196)" stroke="none" d="M 9200,5695 L 9200,5428 9218,5418 9218,5728 8988,5861 8987,5695 9200,5695 Z M 9195,5690 L 8987,5690 8986,5551 9195,5431 9195,5690 Z"/>
    <path fill="rgb(197,197,197)" stroke="none" d="M 9195,5690 L 9195,5431 9218,5418 9218,5728 8988,5861 8987,5690 9195,5690 Z M 9190,5685 L 8987,5685 8986,5551 9190,5434 9190,5685 Z"/>
    <path fill="rgb(198,198,198)" stroke="none" d="M 9190,5685 L 9190,5434 9218,5418 9218,5728 8988,5861 8987,5685 9190,5685 Z M 9185,5680 L 8987,5680 8986,5551 9185,5437 9185,5680 Z"/>
    <path fill="rgb(199,199,199)" stroke="none" d="M 9185,5680 L 9185,5437 9218,5418 9218,5728 8988,5861 8987,5680 9185,5680 Z M 9180,5675 L 8987,5675 8986,5551 9180,5440 9180,5675 Z"/>
    <path fill="rgb(200,200,200)" stroke="none" d="M 9180,5675 L 9180,5440 9218,5418 9218,5728 8988,5861 8987,5675 9180,5675 Z M 9175,5670 L 8987,5670 8986,5551 9175,5443 9175,5670 Z"/>
    <path fill="rgb(201,201,201)" stroke="none" d="M 9175,5670 L 9175,5443 9218,5418 9218,5728 8988,5861 8987,5670 9175,5670 Z M 9170,5665 L 8987,5665 8986,5551 9170,5446 9170,5665 Z"/>
    <path fill="rgb(202,202,202)" stroke="none" d="M 9170,5665 L 9170,5446 9218,5418 9218,5728 8988,5861 8987,5665 9170,5665 Z M 9165,5660 L 8987,5660 8986,5551 9165,5448 9165,5660 Z"/>
    <path fill="rgb(204,204,204)" stroke="none" d="M 9165,5660 L 9165,5448 9218,5418 9218,5728 8988,5861 8987,5660 9165,5660 Z M 9160,5655 L 8987,5655 8986,5551 9160,5451 9160,5655 Z"/>
    <path fill="rgb(205,205,205)" stroke="none" d="M 9160,5655 L 9160,5451 9218,5418 9218,5728 8988,5861 8987,5655 9160,5655 Z M 9155,5650 L 8987,5650 8986,5551 9155,5454 9155,5650 Z"/>
    <path fill="rgb(206,206,206)" stroke="none" d="M 9155,5650 L 9155,5454 9218,5418 9218,5728 8988,5861 8987,5650 9155,5650 Z M 9150,5645 L 8987,5645 8986,5551 9150,5457 9150,5645 Z"/>
    <path fill="rgb(207,207,207)" stroke="none" d="M 9150,5645 L 9150,5457 9218,5418 9218,5728 8988,5861 8987,5645 9150,5645 Z M 9145,5640 L 8987,5640 8986,5551 9145,5460 9145,5640 Z"/>
    <path fill="rgb(208,208,208)" stroke="none" d="M 9145,5640 L 9145,5460 9218,5418 9218,5728 8988,5861 8987,5640 9145,5640 Z M 9140,5463 L 9140,5635 8987,5635 8986,5551 9140,5463 9140,5463 Z"/>
    <path fill="rgb(209,209,209)" stroke="none" d="M 9140,5635 L 9140,5463 9140,5463 9218,5418 9218,5728 8988,5861 8987,5635 9140,5635 Z M 9135,5468 L 9135,5630 8987,5630 8986,5551 9131,5468 9135,5468 Z"/>
    <path fill="rgb(210,210,210)" stroke="none" d="M 9135,5630 L 9135,5468 9131,5468 9218,5418 9218,5728 8988,5861 8987,5630 9135,5630 Z M 9130,5473 L 9130,5625 8986,5625 8986,5551 9122,5473 9130,5473 Z"/>
    <path fill="rgb(211,211,211)" stroke="none" d="M 9130,5625 L 9130,5473 9122,5473 9218,5418 9218,5728 8988,5861 8986,5625 9130,5625 Z M 9124,5479 L 9124,5619 8986,5619 8986,5551 9112,5479 9124,5479 Z"/>
    <path fill="rgb(213,213,213)" stroke="none" d="M 9124,5619 L 9124,5479 9112,5479 9218,5418 9218,5728 8988,5861 8986,5619 9124,5619 Z M 9119,5484 L 9119,5614 8989,5614 8989,5549 9103,5484 9119,5484 Z"/>
    <path fill="rgb(214,214,214)" stroke="none" d="M 8989,5614 L 9119,5614 9119,5484 9103,5484 9218,5418 9218,5728 8988,5861 8986,5551 8989,5549 8989,5614 Z M 9114,5489 L 9114,5609 8994,5609 8994,5546 9094,5489 9114,5489 Z"/>
    <path fill="rgb(215,215,215)" stroke="none" d="M 8994,5609 L 9114,5609 9114,5489 9094,5489 9218,5418 9218,5728 8988,5861 8986,5551 8994,5546 8994,5609 Z M 9109,5494 L 9109,5604 8999,5604 8999,5544 9085,5494 9109,5494 Z"/>
    <path fill="rgb(216,216,216)" stroke="none" d="M 8999,5604 L 9109,5604 9109,5494 9085,5494 9218,5418 9218,5728 8988,5861 8986,5551 8999,5544 8999,5604 Z M 9104,5499 L 9104,5599 9004,5599 9004,5541 9077,5499 9104,5499 Z"/>
    <path fill="rgb(217,217,217)" stroke="none" d="M 9004,5599 L 9104,5599 9104,5499 9077,5499 9218,5418 9218,5728 8988,5861 8986,5551 9004,5541 9004,5599 Z M 9099,5504 L 9099,5594 9009,5594 9009,5538 9068,5504 9099,5504 Z"/>
    <path fill="rgb(218,218,218)" stroke="none" d="M 9009,5594 L 9099,5594 9099,5504 9068,5504 9218,5418 9218,5728 8988,5861 8986,5551 9009,5538 9009,5594 Z M 9094,5509 L 9094,5589 9014,5589 9014,5535 9059,5509 9094,5509 Z"/>
    <path fill="rgb(219,219,219)" stroke="none" d="M 9014,5589 L 9094,5589 9094,5509 9059,5509 9218,5418 9218,5728 8988,5861 8986,5551 9014,5535 9014,5589 Z M 9089,5514 L 9089,5584 9019,5584 9019,5532 9051,5514 9089,5514 Z"/>
    <path fill="rgb(221,221,221)" stroke="none" d="M 9019,5584 L 9089,5584 9089,5514 9051,5514 9218,5418 9218,5728 8988,5861 8986,5551 9019,5532 9019,5584 Z M 9084,5519 L 9084,5579 9024,5579 9024,5529 9042,5519 9084,5519 Z"/>
    <path fill="rgb(222,222,222)" stroke="none" d="M 9024,5579 L 9084,5579 9084,5519 9042,5519 9218,5418 9218,5728 8988,5861 8986,5551 9024,5529 9024,5579 Z M 9079,5524 L 9079,5574 9029,5574 9029,5526 9033,5524 9079,5524 Z"/>
    <path fill="rgb(223,223,223)" stroke="none" d="M 9029,5574 L 9079,5574 9079,5524 9033,5524 9218,5418 9218,5728 8988,5861 8986,5551 9029,5526 9029,5574 Z M 9034,5529 L 9074,5529 9074,5569 9034,5569 9034,5529 Z"/>
    <path fill="rgb(224,224,224)" stroke="none" d="M 9034,5529 L 9034,5569 9074,5569 9074,5529 9034,5529 Z M 9039,5534 L 9069,5534 9069,5564 9039,5564 9039,5534 Z M 8988,5861 L 8986,5551 9218,5418 9218,5728 8988,5861 Z"/>
    <path fill="rgb(225,225,225)" stroke="none" d="M 9039,5534 L 9039,5564 9069,5564 9069,5534 9039,5534 Z M 9044,5539 L 9064,5539 9064,5559 9044,5559 9044,5539 Z M 8988,5861 L 8986,5551 9218,5418 9218,5728 8988,5861 Z"/>
    <path fill="rgb(226,226,226)" stroke="none" d="M 9044,5539 L 9044,5559 9064,5559 9064,5539 9044,5539 Z M 9049,5544 L 9059,5544 9059,5554 9049,5554 9049,5544 Z M 8988,5861 L 8986,5551 9218,5418 9218,5728 8988,5861 Z"/>
    <path fill="rgb(229,229,229)" stroke="none" d="M 9049,5544 L 9049,5554 9059,5554 9059,5544 9049,5544 Z M 8988,5861 L 8986,5551 9218,5418 9218,5728 8988,5861 Z"/>
    <path fill="none" stroke="rgb(255,255,255)" id="Drawing_5_0" stroke-width="40" stroke-linejoin="round" d="M 8988,5861 L 8986,5551 9218,5418 9218,5728 8988,5861 Z"/>
   </g>
   <g>
    <defs>
     <linearGradient id="Gradient_320" gradientUnits="userSpaceOnUse" x1="9064" y1="5374" x2="9064" y2="5551">
      <stop offset="0.1" stop-color="rgb(179,179,179)"/>
      <stop offset="1" stop-color="rgb(229,229,229)"/>
     </linearGradient>
    </defs>
    <path fill="url(#Gradient_320)" stroke="rgb(255,255,255)" id="Drawing_6_0" stroke-width="40" stroke-linejoin="round" d="M 8988,5551 L 8911,5507 9141,5374 9218,5418 8988,5551 Z"/>
   </g>
   <g>
    <path fill="none" stroke="rgb(0,0,0)" id="Drawing_7_0" stroke-width="40" stroke-linejoin="round" d="M 9141,5772 L 8988,5861 8911,5817 8911,5507 9065,5418 9065,5241 9832,4798 10063,4931 10063,5418 9294,5861 9141,5772 Z"/>
   </g>
  </g>
 </g>
</svg>