<?xml version="1.0" encoding="UTF-8"?>

<svg version="1.2" baseProfile="tiny" width="210mm" height="297mm" viewBox="0 0 21000 29700" preserveAspectRatio="xMidYMid" fill-rule="evenodd" stroke-width="28.222" stroke-linejoin="round" xmlns="http://www.w3.org/2000/svg" xmlns:xlink="http://www.w3.org/1999/xlink" xml:space="preserve">
 <g visibility="visible" id="MasterSlide_1_Default">
  <desc>Master slide
  </desc>
  <rect fill="none" stroke="none" x="0" y="0" width="21000" height="29700"/>
 </g>
 <g visibility="visible" id="Slide_1_page1">
  <g id="DrawingGroup_1">
   <g>
    <defs>
     <linearGradient id="Gradient_321" gradientUnits="userSpaceOnUse" x1="5585" y1="5739" x2="5969" y2="5739">
      <stop offset="0.1" stop-color="rgb(51,51,51)"/>
      <stop offset="1" stop-color="rgb(153,153,153)"/>
     </linearGradient>
    </defs>
    <path fill="url(#Gradient_321)" stroke="rgb(178,178,178)" id="Drawing_1_0" stroke-width="40" stroke-linejoin="round" d="M 5585,5784 L 5586,5474 5969,5695 5969,6005 5585,5784 Z"/>
   </g>
   <g>
    <defs>
     <linearGradient id="Gradient_322" gradientUnits="userSpaceOnUse" x1="6426" y1="5297" x2="6657" y2="5297">
      <stop offset="0.1" stop-color="rgb(179,179,179)"/>
      <stop offset="1" stop-color="rgb(229,229,229)"/>
     </linearGradient>
    </defs>
    <path fill="url(#Gradient_322)" stroke="rgb(255,255,255)" id="Drawing_2_0" stroke-width="40" stroke-linejoin="round" d="M 6427,5297 L 6427,5164 6658,5297 6657,5430 6427,5297 Z"/>
   </g>
   <g>
    <path fill="rgb(179,179,179)" stroke="none" d="M 6855,5316 L 6760,5371 6658,5371 6658,5297 6855,5184 6855,5316 Z"/>
    <path fill="rgb(180,180,180)" stroke="none" d="M 6760,5371 L 6658,5430 6658,5371 6760,5371 Z M 6855,5184 L 6890,5164 6888,5297 6855,5316 6855,5184 Z M 6850,5319 L 6769,5366 6658,5366 6658,5297 6850,5187 6850,5319 Z"/>
    <path fill="rgb(182,182,182)" stroke="none" d="M 6769,5366 L 6658,5430 6658,5366 6769,5366 Z M 6850,5187 L 6890,5164 6888,5297 6850,5319 6850,5187 Z M 6845,5322 L 6777,5361 6658,5361 6658,5297 6845,5190 6845,5322 Z"/>
    <path fill="rgb(184,184,184)" stroke="none" d="M 6777,5361 L 6658,5430 6658,5361 6777,5361 Z M 6845,5190 L 6890,5164 6888,5297 6845,5322 6845,5190 Z M 6840,5325 L 6786,5356 6658,5356 6658,5297 6840,5193 6840,5325 Z"/>
    <path fill="rgb(186,186,186)" stroke="none" d="M 6786,5356 L 6658,5430 6658,5356 6786,5356 Z M 6840,5193 L 6890,5164 6888,5297 6840,5325 6840,5193 Z M 6835,5328 L 6795,5351 6658,5351 6658,5297 6835,5196 6835,5328 Z"/>
    <path fill="rgb(188,188,188)" stroke="none" d="M 6795,5351 L 6658,5430 6658,5351 6795,5351 Z M 6835,5196 L 6890,5164 6888,5297 6835,5328 6835,5196 Z M 6829,5331 L 6805,5345 6658,5345 6658,5297 6829,5199 6829,5331 Z"/>
    <path fill="rgb(190,190,190)" stroke="none" d="M 6805,5345 L 6658,5430 6658,5345 6805,5345 Z M 6829,5199 L 6890,5164 6888,5297 6829,5331 6829,5199 Z M 6824,5334 L 6814,5340 6658,5340 6658,5297 6824,5202 6824,5334 Z"/>
    <path fill="rgb(192,192,192)" stroke="none" d="M 6814,5340 L 6658,5430 6658,5340 6814,5340 Z M 6824,5202 L 6890,5164 6888,5297 6824,5334 6824,5202 Z M 6819,5335 L 6658,5335 6658,5297 6819,5205 6819,5335 Z"/>
    <path fill="rgb(194,194,194)" stroke="none" d="M 6819,5335 L 6819,5205 6890,5164 6888,5297 6658,5430 6658,5335 6819,5335 Z M 6814,5330 L 6658,5330 6658,5297 6814,5208 6814,5330 Z"/>
    <path fill="rgb(196,196,196)" stroke="none" d="M 6814,5330 L 6814,5208 6890,5164 6888,5297 6658,5430 6658,5330 6814,5330 Z M 6809,5325 L 6658,5325 6658,5297 6809,5210 6809,5325 Z"/>
    <path fill="rgb(198,198,198)" stroke="none" d="M 6809,5325 L 6809,5210 6890,5164 6888,5297 6658,5430 6658,5325 6809,5325 Z M 6804,5320 L 6658,5320 6658,5297 6804,5213 6804,5320 Z"/>
    <path fill="rgb(200,200,200)" stroke="none" d="M 6804,5320 L 6804,5213 6890,5164 6888,5297 6658,5430 6658,5320 6804,5320 Z M 6798,5314 L 6658,5314 6658,5297 6798,5217 6798,5314 Z"/>
    <path fill="rgb(202,202,202)" stroke="none" d="M 6798,5314 L 6798,5217 6890,5164 6888,5297 6658,5430 6658,5314 6798,5314 Z M 6793,5309 L 6660,5309 6660,5296 6793,5220 6793,5309 Z"/>
    <path fill="rgb(204,204,204)" stroke="none" d="M 6660,5309 L 6793,5309 6793,5220 6890,5164 6888,5297 6658,5430 6658,5297 6660,5296 6660,5309 Z M 6788,5304 L 6665,5304 6665,5293 6788,5222 6788,5304 Z"/>
    <path fill="rgb(205,205,205)" stroke="none" d="M 6665,5304 L 6788,5304 6788,5222 6890,5164 6888,5297 6658,5430 6658,5297 6665,5293 6665,5304 Z M 6783,5299 L 6670,5299 6670,5290 6783,5225 6783,5299 Z"/>
    <path fill="rgb(207,207,207)" stroke="none" d="M 6670,5299 L 6783,5299 6783,5225 6890,5164 6888,5297 6658,5430 6658,5297 6670,5290 6670,5299 Z M 6778,5294 L 6675,5294 6675,5287 6778,5228 6778,5294 Z"/>
    <path fill="rgb(209,209,209)" stroke="none" d="M 6675,5294 L 6778,5294 6778,5228 6890,5164 6888,5297 6658,5430 6658,5297 6675,5287 6675,5294 Z M 6773,5289 L 6680,5289 6680,5284 6773,5231 6773,5289 Z"/>
    <path fill="rgb(211,211,211)" stroke="none" d="M 6680,5289 L 6773,5289 6773,5231 6890,5164 6888,5297 6658,5430 6658,5297 6680,5284 6680,5289 Z M 6767,5283 L 6686,5283 6686,5281 6767,5235 6767,5283 Z"/>
    <path fill="rgb(213,213,213)" stroke="none" d="M 6686,5283 L 6767,5283 6767,5235 6890,5164 6888,5297 6658,5430 6658,5297 6686,5281 6686,5283 Z M 6762,5278 L 6691,5278 6762,5237 6762,5278 Z"/>
    <path fill="rgb(215,215,215)" stroke="none" d="M 6762,5278 L 6762,5237 6890,5164 6888,5297 6658,5430 6658,5297 6691,5278 6762,5278 Z M 6757,5273 L 6700,5273 6757,5240 6757,5273 Z"/>
    <path fill="rgb(217,217,217)" stroke="none" d="M 6757,5273 L 6757,5240 6890,5164 6888,5297 6658,5430 6658,5297 6700,5273 6757,5273 Z M 6752,5268 L 6709,5268 6752,5243 6752,5268 Z"/>
    <path fill="rgb(219,219,219)" stroke="none" d="M 6752,5268 L 6752,5243 6890,5164 6888,5297 6658,5430 6658,5297 6709,5268 6752,5268 Z M 6747,5263 L 6717,5263 6747,5246 6747,5263 Z"/>
    <path fill="rgb(221,221,221)" stroke="none" d="M 6747,5263 L 6747,5246 6890,5164 6888,5297 6658,5430 6658,5297 6717,5263 6747,5263 Z M 6742,5258 L 6726,5258 6742,5249 6742,5258 Z"/>
    <path fill="rgb(223,223,223)" stroke="none" d="M 6742,5258 L 6742,5249 6890,5164 6888,5297 6658,5430 6658,5297 6726,5258 6742,5258 Z"/>
    <path fill="rgb(225,225,225)" stroke="none" d="M 6658,5430 L 6658,5297 6890,5164 6888,5297 6658,5430 Z"/>
    <path fill="rgb(229,229,229)" stroke="none" d="M 6658,5430 L 6658,5297 6890,5164 6888,5297 6658,5430 Z"/>
    <path fill="none" stroke="rgb(255,255,255)" id="Drawing_3_0" stroke-width="40" stroke-linejoin="round" d="M 6658,5430 L 6658,5297 6890,5164 6888,5297 6658,5430 Z"/>
   </g>
   <g>
    <defs>
     <linearGradient id="Gradient_323" gradientUnits="userSpaceOnUse" x1="6658" y1="5031" x2="6658" y2="5297">
      <stop offset="0.1" stop-color="rgb(179,179,179)"/>
      <stop offset="1" stop-color="rgb(229,229,229)"/>
     </linearGradient>
    </defs>
    <path fill="url(#Gradient_323)" stroke="rgb(255,255,255)" id="Drawing_4_0" stroke-width="40" stroke-linejoin="round" d="M 6658,5297 L 6428,5164 6658,5031 6888,5164 6658,5297 Z"/>
   </g>
   <g>
    <defs>
     <linearGradient id="Gradient_324" gradientUnits="userSpaceOnUse" x1="6161" y1="5031" x2="6161" y2="5695">
      <stop offset="0.1" stop-color="rgb(51,51,51)"/>
      <stop offset="1" stop-color="rgb(153,153,153)"/>
     </linearGradient>
    </defs>
    <path fill="url(#Gradient_324)" stroke="rgb(178,178,178)" id="Drawing_5_0" stroke-width="40" stroke-linejoin="round" d="M 5969,5695 L 5586,5474 6354,5031 6737,5252 5969,5695 Z"/>
   </g>
   <g>
    <path fill="rgb(51,51,51)" stroke="none" d="M 6579,5653 L 6223,5858 5967,5858 5967,5695 6579,5344 6579,5653 Z"/>
    <path fill="rgb(52,52,52)" stroke="none" d="M 6223,5858 L 5967,6005 5967,5858 6223,5858 Z M 6579,5344 L 6739,5252 6737,5562 6579,5653 6579,5344 Z M 6574,5656 L 6231,5853 5967,5853 5967,5695 6574,5347 6574,5656 Z"/>
    <path fill="rgb(53,53,53)" stroke="none" d="M 6231,5853 L 5967,6005 5967,5853 6231,5853 Z M 6574,5347 L 6739,5252 6737,5562 6574,5656 6574,5347 Z M 6569,5659 L 6240,5848 5967,5848 5967,5695 6569,5350 6569,5659 Z"/>
    <path fill="rgb(54,54,54)" stroke="none" d="M 6240,5848 L 5967,6005 5967,5848 6240,5848 Z M 6569,5350 L 6739,5252 6737,5562 6569,5659 6569,5350 Z M 6564,5662 L 6249,5843 5967,5843 5967,5695 6564,5352 6564,5662 Z"/>
    <path fill="rgb(56,56,56)" stroke="none" d="M 6249,5843 L 5967,6005 5967,5843 6249,5843 Z M 6564,5352 L 6739,5252 6737,5562 6564,5662 6564,5352 Z M 6559,5664 L 6257,5838 5967,5838 5967,5695 6559,5355 6559,5664 Z"/>
    <path fill="rgb(57,57,57)" stroke="none" d="M 6257,5838 L 5967,6005 5967,5838 6257,5838 Z M 6559,5355 L 6739,5252 6737,5562 6559,5664 6559,5355 Z M 6554,5667 L 6266,5833 5967,5833 5967,5695 6554,5358 6554,5667 Z"/>
    <path fill="rgb(58,58,58)" stroke="none" d="M 6266,5833 L 5967,6005 5967,5833 6266,5833 Z M 6554,5358 L 6739,5252 6737,5562 6554,5667 6554,5358 Z M 6549,5670 L 6275,5828 5967,5828 5967,5695 6549,5361 6549,5670 Z"/>
    <path fill="rgb(60,60,60)" stroke="none" d="M 6275,5828 L 5967,6005 5967,5828 6275,5828 Z M 6549,5361 L 6739,5252 6737,5562 6549,5670 6549,5361 Z M 6544,5673 L 6283,5823 5967,5823 5967,5695 6544,5364 6544,5673 Z"/>
    <path fill="rgb(61,61,61)" stroke="none" d="M 6283,5823 L 5967,6005 5967,5823 6283,5823 Z M 6544,5364 L 6739,5252 6737,5562 6544,5673 6544,5364 Z M 6539,5676 L 6292,5818 5967,5818 5967,5695 6539,5367 6539,5676 Z"/>
    <path fill="rgb(62,62,62)" stroke="none" d="M 6292,5818 L 5967,6005 5967,5818 6292,5818 Z M 6539,5367 L 6739,5252 6737,5562 6539,5676 6539,5367 Z M 6534,5679 L 6301,5813 5967,5813 5967,5695 6534,5370 6534,5679 Z"/>
    <path fill="rgb(64,64,64)" stroke="none" d="M 6301,5813 L 5967,6005 5967,5813 6301,5813 Z M 6534,5370 L 6739,5252 6737,5562 6534,5679 6534,5370 Z M 6529,5682 L 6309,5808 5967,5808 5967,5695 6529,5373 6529,5682 Z"/>
    <path fill="rgb(65,65,65)" stroke="none" d="M 6309,5808 L 5967,6005 5967,5808 6309,5808 Z M 6529,5373 L 6739,5252 6737,5562 6529,5682 6529,5373 Z M 6524,5685 L 6318,5803 5967,5803 5967,5695 6524,5375 6524,5685 Z"/>
    <path fill="rgb(66,66,66)" stroke="none" d="M 6318,5803 L 5967,6005 5967,5803 6318,5803 Z M 6524,5375 L 6739,5252 6737,5562 6524,5685 6524,5375 Z M 6519,5687 L 6327,5798 5967,5798 5967,5695 6519,5378 6519,5687 Z"/>
    <path fill="rgb(68,68,68)" stroke="none" d="M 6327,5798 L 5967,6005 5967,5798 6327,5798 Z M 6519,5378 L 6739,5252 6737,5562 6519,5687 6519,5378 Z M 6514,5690 L 6335,5793 5967,5793 5967,5695 6514,5381 6514,5690 Z"/>
    <path fill="rgb(69,69,69)" stroke="none" d="M 6335,5793 L 5967,6005 5967,5793 6335,5793 Z M 6514,5381 L 6739,5252 6737,5562 6514,5690 6514,5381 Z M 6509,5693 L 6344,5788 5967,5788 5967,5695 6509,5384 6509,5693 Z"/>
    <path fill="rgb(70,70,70)" stroke="none" d="M 6344,5788 L 5967,6005 5967,5788 6344,5788 Z M 6509,5384 L 6739,5252 6737,5562 6509,5693 6509,5384 Z M 6504,5696 L 6353,5783 5967,5783 5967,5695 6504,5387 6504,5696 Z"/>
    <path fill="rgb(72,72,72)" stroke="none" d="M 6353,5783 L 5967,6005 5967,5783 6353,5783 Z M 6504,5387 L 6739,5252 6737,5562 6504,5696 6504,5387 Z M 6499,5699 L 6362,5778 5967,5778 5967,5695 6499,5390 6499,5699 Z"/>
    <path fill="rgb(73,73,73)" stroke="none" d="M 6362,5778 L 5967,6005 5967,5778 6362,5778 Z M 6499,5390 L 6739,5252 6737,5562 6499,5699 6499,5390 Z M 6494,5702 L 6370,5773 5967,5773 5967,5695 6494,5393 6494,5702 Z"/>
    <path fill="rgb(74,74,74)" stroke="none" d="M 6370,5773 L 5967,6005 5967,5773 6370,5773 Z M 6494,5393 L 6739,5252 6737,5562 6494,5702 6494,5393 Z M 6489,5705 L 6379,5768 5967,5768 5967,5695 6489,5395 6489,5705 Z"/>
    <path fill="rgb(76,76,76)" stroke="none" d="M 6379,5768 L 5967,6005 5967,5768 6379,5768 Z M 6489,5395 L 6739,5252 6737,5562 6489,5705 6489,5395 Z M 6484,5708 L 6388,5763 5967,5763 5967,5695 6484,5398 6484,5708 Z"/>
    <path fill="rgb(77,77,77)" stroke="none" d="M 6388,5763 L 5967,6005 5967,5763 6388,5763 Z M 6484,5398 L 6739,5252 6737,5562 6484,5708 6484,5398 Z M 6479,5710 L 6396,5758 5967,5758 5967,5695 6479,5401 6479,5710 Z"/>
    <path fill="rgb(78,78,78)" stroke="none" d="M 6396,5758 L 5967,6005 5967,5758 6396,5758 Z M 6479,5401 L 6739,5252 6737,5562 6479,5710 6479,5401 Z M 6474,5713 L 6405,5753 5967,5753 5967,5695 6474,5404 6474,5713 Z"/>
    <path fill="rgb(80,80,80)" stroke="none" d="M 6405,5753 L 5967,6005 5967,5753 6405,5753 Z M 6474,5404 L 6739,5252 6737,5562 6474,5713 6474,5404 Z M 6469,5716 L 6414,5748 5967,5748 5967,5695 6469,5407 6469,5716 Z"/>
    <path fill="rgb(81,81,81)" stroke="none" d="M 6414,5748 L 5967,6005 5967,5748 6414,5748 Z M 6469,5407 L 6739,5252 6737,5562 6469,5716 6469,5407 Z M 6464,5719 L 6422,5743 5967,5743 5967,5695 6464,5410 6464,5719 Z"/>
    <path fill="rgb(82,82,82)" stroke="none" d="M 6422,5743 L 5967,6005 5967,5743 6422,5743 Z M 6464,5410 L 6739,5252 6737,5562 6464,5719 6464,5410 Z M 6459,5722 L 6431,5738 5967,5738 5967,5695 6459,5413 6459,5722 Z"/>
    <path fill="rgb(84,84,84)" stroke="none" d="M 6431,5738 L 5967,6005 5967,5738 6431,5738 Z M 6459,5413 L 6739,5252 6737,5562 6459,5722 6459,5413 Z M 6454,5725 L 6440,5733 5967,5733 5967,5695 6454,5416 6454,5725 Z"/>
    <path fill="rgb(85,85,85)" stroke="none" d="M 6440,5733 L 5967,6005 5967,5733 6440,5733 Z M 6454,5416 L 6739,5252 6737,5562 6454,5725 6454,5416 Z M 6449,5728 L 6448,5728 5967,5728 5967,5695 6449,5418 6449,5728 Z"/>
    <path fill="rgb(86,86,86)" stroke="none" d="M 6448,5728 L 5967,6005 5967,5728 6448,5728 Z M 6449,5418 L 6739,5252 6737,5562 6449,5728 6449,5418 Z M 6444,5723 L 5967,5723 5967,5695 6444,5421 6444,5723 Z"/>
    <path fill="rgb(88,88,88)" stroke="none" d="M 6444,5723 L 6444,5421 6739,5252 6737,5562 5967,6005 5967,5723 6444,5723 Z M 6439,5718 L 5967,5718 5967,5695 6439,5424 6439,5718 Z"/>
    <path fill="rgb(89,89,89)" stroke="none" d="M 6439,5718 L 6439,5424 6739,5252 6737,5562 5967,6005 5967,5718 6439,5718 Z M 6434,5713 L 5967,5713 5967,5695 6434,5427 6434,5713 Z"/>
    <path fill="rgb(90,90,90)" stroke="none" d="M 6434,5713 L 6434,5427 6739,5252 6737,5562 5967,6005 5967,5713 6434,5713 Z M 6428,5707 L 5967,5707 5967,5695 6428,5430 6428,5707 Z"/>
    <path fill="rgb(92,92,92)" stroke="none" d="M 6428,5707 L 6428,5430 6739,5252 6737,5562 5967,6005 5967,5707 6428,5707 Z M 6423,5702 L 5972,5702 5972,5692 6423,5433 6423,5702 Z"/>
    <path fill="rgb(93,93,93)" stroke="none" d="M 5972,5702 L 6423,5702 6423,5433 6739,5252 6737,5562 5967,6005 5967,5695 5972,5692 5972,5702 Z M 6418,5697 L 5977,5697 5977,5689 6418,5436 6418,5697 Z"/>
    <path fill="rgb(94,94,94)" stroke="none" d="M 5977,5697 L 6418,5697 6418,5436 6739,5252 6737,5562 5967,6005 5967,5695 5977,5689 5977,5697 Z M 6413,5692 L 5982,5692 5982,5686 6413,5439 6413,5692 Z"/>
    <path fill="rgb(96,96,96)" stroke="none" d="M 5982,5692 L 6413,5692 6413,5439 6739,5252 6737,5562 5967,6005 5967,5695 5982,5686 5982,5692 Z M 6408,5687 L 5987,5687 5987,5684 6408,5442 6408,5687 Z"/>
    <path fill="rgb(97,97,97)" stroke="none" d="M 5987,5687 L 6408,5687 6408,5442 6739,5252 6737,5562 5967,6005 5967,5695 5987,5684 5987,5687 Z M 6403,5682 L 5992,5682 5992,5681 6403,5445 6403,5682 Z"/>
    <path fill="rgb(98,98,98)" stroke="none" d="M 5992,5682 L 6403,5682 6403,5445 6739,5252 6737,5562 5967,6005 5967,5695 5992,5681 5992,5682 Z M 6398,5677 L 5998,5677 6398,5448 6398,5677 Z"/>
    <path fill="rgb(100,100,100)" stroke="none" d="M 6398,5677 L 6398,5448 6739,5252 6737,5562 5967,6005 5967,5695 5998,5677 6398,5677 Z M 6393,5672 L 6007,5672 6393,5451 6393,5672 Z"/>
    <path fill="rgb(101,101,101)" stroke="none" d="M 6393,5672 L 6393,5451 6739,5252 6737,5562 5967,6005 5967,5695 6007,5672 6393,5672 Z M 6388,5667 L 6016,5667 6388,5453 6388,5667 Z"/>
    <path fill="rgb(102,102,102)" stroke="none" d="M 6388,5667 L 6388,5453 6739,5252 6737,5562 5967,6005 5967,5695 6016,5667 6388,5667 Z M 6383,5662 L 6025,5662 6383,5456 6383,5662 Z"/>
    <path fill="rgb(103,103,103)" stroke="none" d="M 6383,5662 L 6383,5456 6739,5252 6737,5562 5967,6005 5967,5695 6025,5662 6383,5662 Z M 6378,5657 L 6033,5657 6378,5459 6378,5657 Z"/>
    <path fill="rgb(105,105,105)" stroke="none" d="M 6378,5657 L 6378,5459 6739,5252 6737,5562 5967,6005 5967,5695 6033,5657 6378,5657 Z M 6373,5652 L 6042,5652 6373,5462 6373,5652 Z"/>
    <path fill="rgb(106,106,106)" stroke="none" d="M 6373,5652 L 6373,5462 6739,5252 6737,5562 5967,6005 5967,5695 6042,5652 6373,5652 Z M 6368,5647 L 6051,5647 6368,5465 6368,5647 Z"/>
    <path fill="rgb(107,107,107)" stroke="none" d="M 6368,5647 L 6368,5465 6739,5252 6737,5562 5967,6005 5967,5695 6051,5647 6368,5647 Z M 6363,5642 L 6059,5642 6363,5468 6363,5642 Z"/>
    <path fill="rgb(109,109,109)" stroke="none" d="M 6363,5642 L 6363,5468 6739,5252 6737,5562 5967,6005 5967,5695 6059,5642 6363,5642 Z M 6358,5637 L 6068,5637 6358,5471 6358,5637 Z"/>
    <path fill="rgb(110,110,110)" stroke="none" d="M 6358,5637 L 6358,5471 6739,5252 6737,5562 5967,6005 5967,5695 6068,5637 6358,5637 Z M 6353,5632 L 6077,5632 6353,5474 6353,5632 Z"/>
    <path fill="rgb(111,111,111)" stroke="none" d="M 6353,5632 L 6353,5474 6739,5252 6737,5562 5967,6005 5967,5695 6077,5632 6353,5632 Z M 6348,5627 L 6086,5627 6348,5476 6348,5627 Z"/>
    <path fill="rgb(113,113,113)" stroke="none" d="M 6348,5627 L 6348,5476 6739,5252 6737,5562 5967,6005 5967,5695 6086,5627 6348,5627 Z M 6343,5622 L 6094,5622 6343,5479 6343,5622 Z"/>
    <path fill="rgb(114,114,114)" stroke="none" d="M 6343,5622 L 6343,5479 6739,5252 6737,5562 5967,6005 5967,5695 6094,5622 6343,5622 Z M 6338,5617 L 6103,5617 6338,5482 6338,5617 Z"/>
    <path fill="rgb(115,115,115)" stroke="none" d="M 6338,5617 L 6338,5482 6739,5252 6737,5562 5967,6005 5967,5695 6103,5617 6338,5617 Z M 6333,5612 L 6112,5612 6333,5485 6333,5612 Z"/>
    <path fill="rgb(117,117,117)" stroke="none" d="M 6333,5612 L 6333,5485 6739,5252 6737,5562 5967,6005 5967,5695 6112,5612 6333,5612 Z M 6328,5607 L 6120,5607 6328,5488 6328,5607 Z"/>
    <path fill="rgb(118,118,118)" stroke="none" d="M 6328,5607 L 6328,5488 6739,5252 6737,5562 5967,6005 5967,5695 6120,5607 6328,5607 Z M 6323,5602 L 6129,5602 6323,5491 6323,5602 Z"/>
    <path fill="rgb(119,119,119)" stroke="none" d="M 6323,5602 L 6323,5491 6739,5252 6737,5562 5967,6005 5967,5695 6129,5602 6323,5602 Z M 6318,5597 L 6138,5597 6318,5494 6318,5597 Z"/>
    <path fill="rgb(121,121,121)" stroke="none" d="M 6318,5597 L 6318,5494 6739,5252 6737,5562 5967,6005 5967,5695 6138,5597 6318,5597 Z M 6313,5592 L 6146,5592 6313,5496 6313,5592 Z"/>
    <path fill="rgb(122,122,122)" stroke="none" d="M 6313,5592 L 6313,5496 6739,5252 6737,5562 5967,6005 5967,5695 6146,5592 6313,5592 Z M 6308,5587 L 6155,5587 6308,5499 6308,5587 Z"/>
    <path fill="rgb(123,123,123)" stroke="none" d="M 6308,5587 L 6308,5499 6739,5252 6737,5562 5967,6005 5967,5695 6155,5587 6308,5587 Z M 6303,5582 L 6164,5582 6303,5502 6303,5582 Z"/>
    <path fill="rgb(125,125,125)" stroke="none" d="M 6303,5582 L 6303,5502 6739,5252 6737,5562 5967,6005 5967,5695 6164,5582 6303,5582 Z M 6298,5577 L 6173,5577 6298,5505 6298,5577 Z"/>
    <path fill="rgb(126,126,126)" stroke="none" d="M 6298,5577 L 6298,5505 6739,5252 6737,5562 5967,6005 5967,5695 6173,5577 6298,5577 Z M 6293,5572 L 6181,5572 6293,5508 6293,5572 Z"/>
    <path fill="rgb(127,127,127)" stroke="none" d="M 6293,5572 L 6293,5508 6739,5252 6737,5562 5967,6005 5967,5695 6181,5572 6293,5572 Z M 6288,5567 L 6190,5567 6288,5511 6288,5567 Z"/>
    <path fill="rgb(129,129,129)" stroke="none" d="M 6288,5567 L 6288,5511 6739,5252 6737,5562 5967,6005 5967,5695 6190,5567 6288,5567 Z M 6283,5562 L 6199,5562 6283,5514 6283,5562 Z"/>
    <path fill="rgb(130,130,130)" stroke="none" d="M 6283,5562 L 6283,5514 6739,5252 6737,5562 5967,6005 5967,5695 6199,5562 6283,5562 Z M 6278,5557 L 6207,5557 6278,5517 6278,5557 Z"/>
    <path fill="rgb(131,131,131)" stroke="none" d="M 6278,5557 L 6278,5517 6739,5252 6737,5562 5967,6005 5967,5695 6207,5557 6278,5557 Z M 6272,5551 L 6218,5551 6272,5520 6272,5551 Z"/>
    <path fill="rgb(133,133,133)" stroke="none" d="M 6272,5551 L 6272,5520 6739,5252 6737,5562 5967,6005 5967,5695 6218,5551 6272,5551 Z M 6267,5546 L 6227,5546 6267,5523 6267,5546 Z"/>
    <path fill="rgb(134,134,134)" stroke="none" d="M 6267,5546 L 6267,5523 6739,5252 6737,5562 5967,6005 5967,5695 6227,5546 6267,5546 Z M 6262,5541 L 6235,5541 6262,5526 6262,5541 Z"/>
    <path fill="rgb(135,135,135)" stroke="none" d="M 6262,5541 L 6262,5526 6739,5252 6737,5562 5967,6005 5967,5695 6235,5541 6262,5541 Z M 6257,5536 L 6244,5536 6257,5529 6257,5536 Z"/>
    <path fill="rgb(137,137,137)" stroke="none" d="M 6257,5536 L 6257,5529 6739,5252 6737,5562 5967,6005 5967,5695 6244,5536 6257,5536 Z"/>
    <path fill="rgb(138,138,138)" stroke="none" d="M 5967,6005 L 5967,5695 6739,5252 6737,5562 5967,6005 Z"/>
    <path fill="rgb(139,139,139)" stroke="none" d="M 5967,6005 L 5967,5695 6739,5252 6737,5562 5967,6005 Z"/>
    <path fill="rgb(141,141,141)" stroke="none" d="M 5967,6005 L 5967,5695 6739,5252 6737,5562 5967,6005 Z"/>
    <path fill="rgb(142,142,142)" stroke="none" d="M 5967,6005 L 5967,5695 6739,5252 6737,5562 5967,6005 Z"/>
    <path fill="rgb(143,143,143)" stroke="none" d="M 5967,6005 L 5967,5695 6739,5252 6737,5562 5967,6005 Z"/>
    <path fill="rgb(145,145,145)" stroke="none" d="M 5967,6005 L 5967,5695 6739,5252 6737,5562 5967,6005 Z"/>
    <path fill="rgb(146,146,146)" stroke="none" d="M 5967,6005 L 5967,5695 6739,5252 6737,5562 5967,6005 Z"/>
    <path fill="rgb(147,147,147)" stroke="none" d="M 5967,6005 L 5967,5695 6739,5252 6737,5562 5967,6005 Z"/>
    <path fill="rgb(149,149,149)" stroke="none" d="M 5967,6005 L 5967,5695 6739,5252 6737,5562 5967,6005 Z"/>
    <path fill="rgb(150,150,150)" stroke="none" d="M 5967,6005 L 5967,5695 6739,5252 6737,5562 5967,6005 Z"/>
    <path fill="rgb(153,153,153)" stroke="none" d="M 5967,6005 L 5967,5695 6739,5252 6737,5562 5967,6005 Z"/>
    <path fill="none" stroke="rgb(178,178,178)" id="Drawing_6_0" stroke-width="40" stroke-linejoin="round" d="M 5967,6005 L 5967,5695 6739,5252 6737,5562 5967,6005 Z"/>
   </g>
   <g>
    <path fill="none" stroke="rgb(0,0,0)" id="Drawing_7_0" stroke-width="40" stroke-linejoin="round" d="M 5585,5784 L 5586,5474 6354,5031 6506,5120 6658,5031 6888,5164 6888,5297 6737,5385 6737,5562 5968,6005 5585,5784 Z"/>
   </g>
  </g>
 </g>
</svg>