<?xml version="1.0" encoding="UTF-8"?>

<svg version="1.2" baseProfile="tiny" width="11.92mm" height="11.03mm" viewBox="12860 14076 1192 1103" preserveAspectRatio="xMidYMid" fill-rule="evenodd" stroke-width="28.222" stroke-linejoin="round" xmlns="http://www.w3.org/2000/svg" xmlns:xlink="http://www.w3.org/1999/xlink" xml:space="preserve">
 <g visibility="visible" id="Slide_1">
  <g id="DrawingGroup_1">
   <g>
    <defs>
     <linearGradient id="Gradient_310" gradientUnits="userSpaceOnUse" x1="12879" y1="14693" x2="13653" y2="14695">
      <stop offset="0.1" stop-color="rgb(102,102,102)"/>
      <stop offset="1" stop-color="rgb(153,153,153)"/>
     </linearGradient>
    </defs>
    <path fill="url(#Gradient_310)" stroke="rgb(178,178,178)" id="Drawing_1_0" stroke-width="40" stroke-linejoin="round" d="M 13650,15159 L 13652,14672 12880,14229 12880,14716 13650,15159 Z"/>
   </g>
   <g>
    <defs>
     <linearGradient id="Gradient_311" gradientUnits="userSpaceOnUse" x1="13379" y1="14096" x2="13379" y2="14672">
      <stop offset="0.1" stop-color="rgb(102,102,102)"/>
      <stop offset="1" stop-color="rgb(153,153,153)"/>
     </linearGradient>
    </defs>
    <path fill="url(#Gradient_311)" stroke="rgb(178,178,178)" id="Drawing_2_0" stroke-width="40" stroke-linejoin="round" d="M 13648,14672 L 13879,14539 13111,14096 12880,14229 13648,14672 Z"/>
   </g>
   <g>
    <path fill="rgb(102,102,102)" stroke="none" d="M 13648,15028 L 13648,14672 13879,14539 13879,15026 13876,15028 13648,15028 Z"/>
    <path fill="rgb(103,103,103)" stroke="none" d="M 13876,15028 L 13648,15159 13648,15028 13876,15028 Z M 13648,15022 L 13648,14672 13879,14539 13879,15022 13648,15022 Z"/>
    <path fill="rgb(104,104,104)" stroke="none" d="M 13879,15022 L 13879,15026 13648,15159 13648,15022 13879,15022 Z M 13648,15016 L 13648,14672 13879,14539 13879,15016 13648,15016 Z"/>
    <path fill="rgb(105,105,105)" stroke="none" d="M 13879,15016 L 13879,15026 13648,15159 13648,15016 13879,15016 Z M 13648,15010 L 13648,14672 13879,14539 13879,15010 13648,15010 Z"/>
    <path fill="rgb(106,106,106)" stroke="none" d="M 13879,15010 L 13879,15026 13648,15159 13648,15010 13879,15010 Z M 13648,15004 L 13648,14672 13879,14539 13879,15004 13648,15004 Z"/>
    <path fill="rgb(107,107,107)" stroke="none" d="M 13879,15004 L 13879,15026 13648,15159 13648,15004 13879,15004 Z M 13648,14998 L 13648,14672 13879,14539 13879,14998 13648,14998 Z"/>
    <path fill="rgb(108,108,108)" stroke="none" d="M 13879,14998 L 13879,15026 13648,15159 13648,14998 13879,14998 Z M 13648,14992 L 13648,14672 13879,14539 13879,14992 13648,14992 Z"/>
    <path fill="rgb(109,109,109)" stroke="none" d="M 13879,14992 L 13879,15026 13648,15159 13648,14992 13879,14992 Z M 13648,14986 L 13648,14672 13879,14539 13879,14986 13648,14986 Z"/>
    <path fill="rgb(110,110,110)" stroke="none" d="M 13879,14986 L 13879,15026 13648,15159 13648,14986 13879,14986 Z M 13648,14980 L 13648,14672 13879,14539 13879,14980 13648,14980 Z"/>
    <path fill="rgb(111,111,111)" stroke="none" d="M 13879,14980 L 13879,15026 13648,15159 13648,14980 13879,14980 Z M 13648,14973 L 13648,14672 13879,14539 13879,14973 13648,14973 Z"/>
    <path fill="rgb(112,112,112)" stroke="none" d="M 13879,14973 L 13879,15026 13648,15159 13648,14973 13879,14973 Z M 13648,14967 L 13648,14672 13879,14539 13879,14967 13648,14967 Z"/>
    <path fill="rgb(113,113,113)" stroke="none" d="M 13879,14967 L 13879,15026 13648,15159 13648,14967 13879,14967 Z M 13648,14961 L 13648,14672 13879,14539 13879,14961 13648,14961 Z"/>
    <path fill="rgb(114,114,114)" stroke="none" d="M 13879,14961 L 13879,15026 13648,15159 13648,14961 13879,14961 Z M 13648,14955 L 13648,14672 13879,14539 13879,14955 13648,14955 Z"/>
    <path fill="rgb(115,115,115)" stroke="none" d="M 13879,14955 L 13879,15026 13648,15159 13648,14955 13879,14955 Z M 13648,14949 L 13648,14672 13879,14539 13879,14949 13648,14949 Z"/>
    <path fill="rgb(116,116,116)" stroke="none" d="M 13879,14949 L 13879,15026 13648,15159 13648,14949 13879,14949 Z M 13648,14943 L 13648,14672 13879,14539 13879,14943 13648,14943 Z"/>
    <path fill="rgb(117,117,117)" stroke="none" d="M 13879,14943 L 13879,15026 13648,15159 13648,14943 13879,14943 Z M 13648,14937 L 13648,14672 13879,14539 13879,14937 13648,14937 Z"/>
    <path fill="rgb(118,118,118)" stroke="none" d="M 13879,14937 L 13879,15026 13648,15159 13648,14937 13879,14937 Z M 13648,14931 L 13648,14672 13879,14539 13879,14931 13648,14931 Z"/>
    <path fill="rgb(119,119,119)" stroke="none" d="M 13879,14931 L 13879,15026 13648,15159 13648,14931 13879,14931 Z M 13648,14925 L 13648,14672 13879,14539 13879,14925 13648,14925 Z"/>
    <path fill="rgb(120,120,120)" stroke="none" d="M 13879,14925 L 13879,15026 13648,15159 13648,14925 13879,14925 Z M 13648,14918 L 13648,14672 13879,14539 13879,14918 13648,14918 Z"/>
    <path fill="rgb(121,121,121)" stroke="none" d="M 13879,14918 L 13879,15026 13648,15159 13648,14918 13879,14918 Z M 13648,14912 L 13648,14672 13879,14539 13879,14912 13648,14912 Z"/>
    <path fill="rgb(122,122,122)" stroke="none" d="M 13879,14912 L 13879,15026 13648,15159 13648,14912 13879,14912 Z M 13879,14541 L 13879,14906 13648,14906 13648,14672 13876,14541 13879,14541 Z"/>
    <path fill="rgb(123,123,123)" stroke="none" d="M 13879,14906 L 13879,15026 13648,15159 13648,14906 13879,14906 Z M 13876,14541 L 13879,14539 13879,14541 13876,14541 Z M 13879,14547 L 13879,14900 13648,14900 13648,14672 13865,14547 13879,14547 Z"/>
    <path fill="rgb(124,124,124)" stroke="none" d="M 13879,14900 L 13879,15026 13648,15159 13648,14900 13879,14900 Z M 13865,14547 L 13879,14539 13879,14547 13865,14547 Z M 13879,14553 L 13879,14894 13648,14894 13648,14672 13855,14553 13879,14553 Z"/>
    <path fill="rgb(125,125,125)" stroke="none" d="M 13879,14894 L 13879,15026 13648,15159 13648,14894 13879,14894 Z M 13855,14553 L 13879,14539 13879,14553 13855,14553 Z M 13879,14559 L 13879,14888 13648,14888 13648,14672 13844,14559 13879,14559 Z"/>
    <path fill="rgb(126,126,126)" stroke="none" d="M 13879,14888 L 13879,15026 13648,15159 13648,14888 13879,14888 Z M 13844,14559 L 13879,14539 13879,14559 13844,14559 Z M 13875,14565 L 13875,14882 13648,14882 13648,14672 13834,14565 13875,14565 Z"/>
    <path fill="rgb(127,127,127)" stroke="none" d="M 13875,14882 L 13875,14565 13834,14565 13879,14539 13879,15026 13648,15159 13648,14882 13875,14882 Z M 13869,14571 L 13869,14876 13648,14876 13648,14672 13823,14571 13869,14571 Z"/>
    <path fill="rgb(128,128,128)" stroke="none" d="M 13869,14876 L 13869,14571 13823,14571 13879,14539 13879,15026 13648,15159 13648,14876 13869,14876 Z M 13863,14577 L 13863,14870 13648,14870 13648,14672 13813,14577 13863,14577 Z"/>
    <path fill="rgb(129,129,129)" stroke="none" d="M 13863,14870 L 13863,14577 13813,14577 13879,14539 13879,15026 13648,15159 13648,14870 13863,14870 Z M 13856,14584 L 13856,14863 13648,14863 13648,14672 13801,14584 13856,14584 Z"/>
    <path fill="rgb(130,130,130)" stroke="none" d="M 13856,14863 L 13856,14584 13801,14584 13879,14539 13879,15026 13648,15159 13648,14863 13856,14863 Z M 13850,14590 L 13850,14857 13648,14857 13648,14672 13790,14590 13850,14590 Z"/>
    <path fill="rgb(131,131,131)" stroke="none" d="M 13850,14857 L 13850,14590 13790,14590 13879,14539 13879,15026 13648,15159 13648,14857 13850,14857 Z M 13844,14596 L 13844,14851 13648,14851 13648,14672 13780,14596 13844,14596 Z"/>
    <path fill="rgb(132,132,132)" stroke="none" d="M 13844,14851 L 13844,14596 13780,14596 13879,14539 13879,15026 13648,15159 13648,14851 13844,14851 Z M 13838,14602 L 13838,14845 13648,14845 13648,14672 13770,14602 13838,14602 Z"/>
    <path fill="rgb(133,133,133)" stroke="none" d="M 13838,14845 L 13838,14602 13770,14602 13879,14539 13879,15026 13648,15159 13648,14845 13838,14845 Z M 13832,14608 L 13832,14839 13648,14839 13648,14672 13759,14608 13832,14608 Z"/>
    <path fill="rgb(134,134,134)" stroke="none" d="M 13832,14839 L 13832,14608 13759,14608 13879,14539 13879,15026 13648,15159 13648,14839 13832,14839 Z M 13826,14614 L 13826,14833 13648,14833 13648,14672 13749,14614 13826,14614 Z"/>
    <path fill="rgb(135,135,135)" stroke="none" d="M 13826,14833 L 13826,14614 13749,14614 13879,14539 13879,15026 13648,15159 13648,14833 13826,14833 Z M 13820,14620 L 13820,14827 13648,14827 13648,14672 13738,14620 13820,14620 Z"/>
    <path fill="rgb(136,136,136)" stroke="none" d="M 13820,14827 L 13820,14620 13738,14620 13879,14539 13879,15026 13648,15159 13648,14827 13820,14827 Z M 13814,14626 L 13814,14821 13648,14821 13648,14672 13728,14626 13814,14626 Z"/>
    <path fill="rgb(137,137,137)" stroke="none" d="M 13814,14821 L 13814,14626 13728,14626 13879,14539 13879,15026 13648,15159 13648,14821 13814,14821 Z M 13808,14632 L 13808,14815 13648,14815 13648,14672 13717,14632 13808,14632 Z"/>
    <path fill="rgb(138,138,138)" stroke="none" d="M 13808,14815 L 13808,14632 13717,14632 13879,14539 13879,15026 13648,15159 13648,14815 13808,14815 Z M 13802,14638 L 13802,14809 13648,14809 13648,14672 13707,14638 13802,14638 Z"/>
    <path fill="rgb(139,139,139)" stroke="none" d="M 13802,14809 L 13802,14638 13707,14638 13879,14539 13879,15026 13648,15159 13648,14809 13802,14809 Z M 13795,14645 L 13795,14802 13648,14802 13648,14672 13695,14645 13795,14645 Z"/>
    <path fill="rgb(140,140,140)" stroke="none" d="M 13795,14802 L 13795,14645 13695,14645 13879,14539 13879,15026 13648,15159 13648,14802 13795,14802 Z M 13789,14651 L 13789,14796 13648,14796 13648,14672 13684,14651 13789,14651 Z"/>
    <path fill="rgb(141,141,141)" stroke="none" d="M 13789,14796 L 13789,14651 13684,14651 13879,14539 13879,15026 13648,15159 13648,14796 13789,14796 Z M 13783,14657 L 13783,14790 13650,14790 13650,14671 13674,14657 13783,14657 Z"/>
    <path fill="rgb(142,142,142)" stroke="none" d="M 13650,14790 L 13783,14790 13783,14657 13674,14657 13879,14539 13879,15026 13648,15159 13648,14672 13650,14671 13650,14790 Z M 13777,14663 L 13777,14784 13656,14784 13656,14667 13664,14663 13777,14663 Z"/>
    <path fill="rgb(143,143,143)" stroke="none" d="M 13656,14784 L 13777,14784 13777,14663 13664,14663 13879,14539 13879,15026 13648,15159 13648,14672 13656,14667 13656,14784 Z M 13662,14669 L 13771,14669 13771,14778 13662,14778 13662,14669 Z"/>
    <path fill="rgb(144,144,144)" stroke="none" d="M 13662,14669 L 13662,14778 13771,14778 13771,14669 13662,14669 Z M 13668,14675 L 13765,14675 13765,14772 13668,14772 13668,14675 Z M 13879,15026 L 13648,15159 13648,14672 13879,14539 13879,15026 Z"/>
    <path fill="rgb(145,145,145)" stroke="none" d="M 13668,14675 L 13668,14772 13765,14772 13765,14675 13668,14675 Z M 13674,14681 L 13759,14681 13759,14766 13674,14766 13674,14681 Z M 13879,15026 L 13648,15159 13648,14672 13879,14539 13879,15026 Z"/>
    <path fill="rgb(146,146,146)" stroke="none" d="M 13674,14681 L 13674,14766 13759,14766 13759,14681 13674,14681 Z M 13680,14687 L 13753,14687 13753,14760 13680,14760 13680,14687 Z M 13879,15026 L 13648,15159 13648,14672 13879,14539 13879,15026 Z"/>
    <path fill="rgb(147,147,147)" stroke="none" d="M 13680,14687 L 13680,14760 13753,14760 13753,14687 13680,14687 Z M 13686,14693 L 13747,14693 13747,14754 13686,14754 13686,14693 Z M 13879,15026 L 13648,15159 13648,14672 13879,14539 13879,15026 Z"/>
    <path fill="rgb(148,148,148)" stroke="none" d="M 13686,14693 L 13686,14754 13747,14754 13747,14693 13686,14693 Z M 13693,14700 L 13740,14700 13740,14747 13693,14747 13693,14700 Z M 13879,15026 L 13648,15159 13648,14672 13879,14539 13879,15026 Z"/>
    <path fill="rgb(149,149,149)" stroke="none" d="M 13693,14700 L 13693,14747 13740,14747 13740,14700 13693,14700 Z M 13699,14706 L 13734,14706 13734,14741 13699,14741 13699,14706 Z M 13879,15026 L 13648,15159 13648,14672 13879,14539 13879,15026 Z"/>
    <path fill="rgb(150,150,150)" stroke="none" d="M 13699,14706 L 13699,14741 13734,14741 13734,14706 13699,14706 Z M 13705,14712 L 13728,14712 13728,14735 13705,14735 13705,14712 Z M 13879,15026 L 13648,15159 13648,14672 13879,14539 13879,15026 Z"/>
    <path fill="rgb(151,151,151)" stroke="none" d="M 13705,14712 L 13705,14735 13728,14735 13728,14712 13705,14712 Z M 13711,14718 L 13722,14718 13722,14729 13711,14729 13711,14718 Z M 13879,15026 L 13648,15159 13648,14672 13879,14539 13879,15026 Z"/>
    <path fill="rgb(153,153,153)" stroke="none" d="M 13711,14718 L 13711,14729 13722,14729 13722,14718 13711,14718 Z M 13879,15026 L 13648,15159 13648,14672 13879,14539 13879,15026 Z"/>
    <path fill="none" stroke="rgb(178,178,178)" id="Drawing_3_0" stroke-width="40" stroke-linejoin="round" d="M 13879,15026 L 13879,14539 13648,14672 13648,15159 13879,15026 Z"/>
   </g>
   <g>
    <path fill="rgb(179,179,179)" stroke="none" d="M 13955,15083 L 13955,14849 14032,14805 14032,15083 13955,15083 Z"/>
    <path fill="rgb(180,180,180)" stroke="none" d="M 14032,15083 L 14032,15115 13955,15159 13955,15083 14032,15083 Z M 13955,15078 L 13955,14849 14032,14805 14032,15078 13955,15078 Z"/>
    <path fill="rgb(181,181,181)" stroke="none" d="M 14032,15078 L 14032,15115 13955,15159 13955,15078 14032,15078 Z M 13955,15073 L 13955,14849 14032,14805 14032,15073 13955,15073 Z"/>
    <path fill="rgb(183,183,183)" stroke="none" d="M 14032,15073 L 14032,15115 13955,15159 13955,15073 14032,15073 Z M 13955,15068 L 13955,14849 14032,14805 14032,15068 13955,15068 Z"/>
    <path fill="rgb(184,184,184)" stroke="none" d="M 14032,15068 L 14032,15115 13955,15159 13955,15068 14032,15068 Z M 13955,15063 L 13955,14849 14032,14805 14032,15063 13955,15063 Z"/>
    <path fill="rgb(186,186,186)" stroke="none" d="M 14032,15063 L 14032,15115 13955,15159 13955,15063 14032,15063 Z M 13955,15058 L 13955,14849 14032,14805 14032,15058 13955,15058 Z"/>
    <path fill="rgb(187,187,187)" stroke="none" d="M 14032,15058 L 14032,15115 13955,15159 13955,15058 14032,15058 Z M 13955,15053 L 13955,14849 14032,14805 14032,15053 13955,15053 Z"/>
    <path fill="rgb(189,189,189)" stroke="none" d="M 14032,15053 L 14032,15115 13955,15159 13955,15053 14032,15053 Z M 13955,15048 L 13955,14849 14032,14805 14032,15048 13955,15048 Z"/>
    <path fill="rgb(190,190,190)" stroke="none" d="M 14032,15048 L 14032,15115 13955,15159 13955,15048 14032,15048 Z M 13955,15043 L 13955,14849 14032,14805 14032,15043 13955,15043 Z"/>
    <path fill="rgb(191,191,191)" stroke="none" d="M 14032,15043 L 14032,15115 13955,15159 13955,15043 14032,15043 Z M 13955,15037 L 13955,14849 14032,14805 14032,15037 13955,15037 Z"/>
    <path fill="rgb(193,193,193)" stroke="none" d="M 14032,15037 L 14032,15115 13955,15159 13955,15037 14032,15037 Z M 13955,15032 L 13955,14849 14032,14805 14032,15032 13955,15032 Z"/>
    <path fill="rgb(194,194,194)" stroke="none" d="M 14032,15032 L 14032,15115 13955,15159 13955,15032 14032,15032 Z M 13955,15027 L 13955,14849 14032,14805 14032,15027 13955,15027 Z"/>
    <path fill="rgb(196,196,196)" stroke="none" d="M 14032,15027 L 14032,15115 13955,15159 13955,15027 14032,15027 Z M 13955,15022 L 13955,14849 14032,14805 14032,15022 13955,15022 Z"/>
    <path fill="rgb(197,197,197)" stroke="none" d="M 14032,15022 L 14032,15115 13955,15159 13955,15022 14032,15022 Z M 13955,15017 L 13955,14849 14032,14805 14032,15017 13955,15017 Z"/>
    <path fill="rgb(199,199,199)" stroke="none" d="M 14032,15017 L 14032,15115 13955,15159 13955,15017 14032,15017 Z M 14032,14809 L 14032,15012 13955,15012 13955,14849 14025,14809 14032,14809 Z"/>
    <path fill="rgb(200,200,200)" stroke="none" d="M 14032,15012 L 14032,15115 13955,15159 13955,15012 14032,15012 Z M 14025,14809 L 14032,14805 14032,14809 14025,14809 Z M 14032,14814 L 14032,15007 13955,15007 13955,14849 14016,14814 14032,14814 Z"/>
    <path fill="rgb(201,201,201)" stroke="none" d="M 14032,15007 L 14032,15115 13955,15159 13955,15007 14032,15007 Z M 14016,14814 L 14032,14805 14032,14814 14016,14814 Z M 14032,14819 L 14032,15002 13955,15002 13955,14849 14008,14819 14032,14819 Z"/>
    <path fill="rgb(203,203,203)" stroke="none" d="M 14032,15002 L 14032,15115 13955,15159 13955,15002 14032,15002 Z M 14008,14819 L 14032,14805 14032,14819 14008,14819 Z M 14032,14824 L 14032,14997 13955,14997 13955,14849 13999,14824 14032,14824 Z"/>
    <path fill="rgb(204,204,204)" stroke="none" d="M 14032,14997 L 14032,15115 13955,15159 13955,14997 14032,14997 Z M 13999,14824 L 14032,14805 14032,14824 13999,14824 Z M 14032,14829 L 14032,14992 13955,14992 13955,14849 13990,14829 14032,14829 Z"/>
    <path fill="rgb(206,206,206)" stroke="none" d="M 14032,14992 L 14032,15115 13955,15159 13955,14992 14032,14992 Z M 13990,14829 L 14032,14805 14032,14829 13990,14829 Z M 14032,14835 L 14032,14986 13955,14986 13955,14849 13980,14835 14032,14835 Z"/>
    <path fill="rgb(207,207,207)" stroke="none" d="M 14032,14986 L 14032,15115 13955,15159 13955,14986 14032,14986 Z M 13980,14835 L 14032,14805 14032,14835 13980,14835 Z M 14032,14840 L 14032,14981 13955,14981 13955,14849 13971,14840 14032,14840 Z"/>
    <path fill="rgb(209,209,209)" stroke="none" d="M 14032,14981 L 14032,15115 13955,15159 13955,14981 14032,14981 Z M 13971,14840 L 14032,14805 14032,14840 13971,14840 Z M 14032,14845 L 14032,14976 13955,14976 13955,14849 13962,14845 14032,14845 Z"/>
    <path fill="rgb(210,210,210)" stroke="none" d="M 14032,14976 L 14032,15115 13955,15159 13955,14976 14032,14976 Z M 13962,14845 L 14032,14805 14032,14845 13962,14845 Z M 14032,14850 L 14032,14971 13955,14971 13955,14850 14032,14850 Z"/>
    <path fill="rgb(211,211,211)" stroke="none" d="M 14032,14971 L 14032,15115 13955,15159 13955,14971 14032,14971 Z M 13955,14850 L 13955,14849 14032,14805 14032,14850 13955,14850 Z M 14032,14855 L 14032,14966 13955,14966 13955,14855 14032,14855 Z"/>
    <path fill="rgb(213,213,213)" stroke="none" d="M 14032,14966 L 14032,15115 13955,15159 13955,14966 14032,14966 Z M 13955,14855 L 13955,14849 14032,14805 14032,14855 13955,14855 Z M 14028,14860 L 14028,14961 13955,14961 13955,14860 14028,14860 Z"/>
    <path fill="rgb(214,214,214)" stroke="none" d="M 14028,14961 L 14028,14860 13955,14860 13955,14849 14032,14805 14032,15115 13955,15159 13955,14961 14028,14961 Z M 14023,14865 L 14023,14956 13955,14956 13955,14865 14023,14865 Z"/>
    <path fill="rgb(216,216,216)" stroke="none" d="M 14023,14956 L 14023,14865 13955,14865 13955,14849 14032,14805 14032,15115 13955,15159 13955,14956 14023,14956 Z M 14018,14870 L 14018,14951 13955,14951 13955,14870 14018,14870 Z"/>
    <path fill="rgb(217,217,217)" stroke="none" d="M 14018,14951 L 14018,14870 13955,14870 13955,14849 14032,14805 14032,15115 13955,15159 13955,14951 14018,14951 Z M 14013,14875 L 14013,14946 13955,14946 13955,14875 14013,14875 Z"/>
    <path fill="rgb(219,219,219)" stroke="none" d="M 14013,14946 L 14013,14875 13955,14875 13955,14849 14032,14805 14032,15115 13955,15159 13955,14946 14013,14946 Z M 14008,14880 L 14008,14941 13955,14941 13955,14880 14008,14880 Z"/>
    <path fill="rgb(220,220,220)" stroke="none" d="M 14008,14941 L 14008,14880 13955,14880 13955,14849 14032,14805 14032,15115 13955,15159 13955,14941 14008,14941 Z M 14003,14885 L 14003,14935 13955,14935 13955,14885 14003,14885 Z"/>
    <path fill="rgb(221,221,221)" stroke="none" d="M 14003,14935 L 14003,14885 13955,14885 13955,14849 14032,14805 14032,15115 13955,15159 13955,14935 14003,14935 Z M 13958,14891 L 13997,14891 13997,14930 13958,14930 13958,14891 Z"/>
    <path fill="rgb(223,223,223)" stroke="none" d="M 13958,14891 L 13958,14930 13997,14930 13997,14891 13958,14891 Z M 13963,14896 L 13992,14896 13992,14925 13963,14925 13963,14896 Z M 14032,15115 L 13955,15159 13955,14849 14032,14805 14032,15115 Z"/>
    <path fill="rgb(224,224,224)" stroke="none" d="M 13963,14896 L 13963,14925 13992,14925 13992,14896 13963,14896 Z M 13968,14901 L 13987,14901 13987,14920 13968,14920 13968,14901 Z M 14032,15115 L 13955,15159 13955,14849 14032,14805 14032,15115 Z"/>
    <path fill="rgb(226,226,226)" stroke="none" d="M 13968,14901 L 13968,14920 13987,14920 13987,14901 13968,14901 Z M 13973,14906 L 13982,14906 13982,14915 13973,14915 13973,14906 Z M 14032,15115 L 13955,15159 13955,14849 14032,14805 14032,15115 Z"/>
    <path fill="rgb(229,229,229)" stroke="none" d="M 13973,14906 L 13973,14915 13982,14915 13982,14906 13973,14906 Z M 14032,15115 L 13955,15159 13955,14849 14032,14805 14032,15115 Z"/>
    <path fill="none" stroke="rgb(255,255,255)" id="Drawing_4_0" stroke-width="40" stroke-linejoin="round" d="M 14032,15115 L 14032,14805 13955,14849 13955,15159 14032,15115 Z"/>
   </g>
   <g>
    <defs>
     <linearGradient id="Gradient_312" gradientUnits="userSpaceOnUse" x1="13725" y1="14937" x2="13957" y2="14937">
      <stop offset="0.1" stop-color="rgb(179,179,179)"/>
      <stop offset="1" stop-color="rgb(229,229,229)"/>
     </linearGradient>
    </defs>
    <path fill="url(#Gradient_312)" stroke="rgb(255,255,255)" id="Drawing_5_0" stroke-width="40" stroke-linejoin="round" d="M 13955,15159 L 13957,14849 13725,14716 13725,15026 13955,15159 Z"/>
   </g>
   <g>
    <defs>
     <linearGradient id="Gradient_313" gradientUnits="userSpaceOnUse" x1="13878" y1="14672" x2="13878" y2="14849">
      <stop offset="0.1" stop-color="rgb(179,179,179)"/>
      <stop offset="1" stop-color="rgb(229,229,229)"/>
     </linearGradient>
    </defs>
    <path fill="url(#Gradient_313)" stroke="rgb(255,255,255)" id="Drawing_6_0" stroke-width="40" stroke-linejoin="round" d="M 13955,14849 L 14032,14805 13802,14672 13725,14716 13955,14849 Z"/>
   </g>
   <g>
    <path fill="none" stroke="rgb(0,0,0)" id="Drawing_7_0" stroke-width="40" stroke-linejoin="round" d="M 13802,15070 L 13955,15159 14032,15115 14032,14805 13878,14716 13878,14539 13111,14096 12880,14229 12880,14716 13649,15159 13802,15070 Z"/>
   </g>
  </g>
 </g>
</svg>