<?xml version="1.0" encoding="UTF-8"?>

<svg version="1.2" baseProfile="tiny" width="13.48mm" height="10.14mm" viewBox="4353 7468 1348 1014" preserveAspectRatio="xMidYMid" fill-rule="evenodd" stroke-width="28.222" stroke-linejoin="round" xmlns="http://www.w3.org/2000/svg" xmlns:xlink="http://www.w3.org/1999/xlink" xml:space="preserve">
 <g visibility="visible" id="Slide_1">
  <g id="DrawingGroup_1">
   <g>
    <path fill="rgb(51,51,51)" stroke="none" d="M 5521,8110 L 5165,8315 4909,8315 4909,8152 5521,7801 5521,8110 Z"/>
    <path fill="rgb(52,52,52)" stroke="none" d="M 5165,8315 L 4909,8462 4909,8315 5165,8315 Z M 5521,7801 L 5681,7709 5679,8019 5521,8110 5521,7801 Z M 5516,8113 L 5173,8310 4909,8310 4909,8152 5516,7804 5516,8113 Z"/>
    <path fill="rgb(53,53,53)" stroke="none" d="M 5173,8310 L 4909,8462 4909,8310 5173,8310 Z M 5516,7804 L 5681,7709 5679,8019 5516,8113 5516,7804 Z M 5511,8116 L 5182,8305 4909,8305 4909,8152 5511,7807 5511,8116 Z"/>
    <path fill="rgb(54,54,54)" stroke="none" d="M 5182,8305 L 4909,8462 4909,8305 5182,8305 Z M 5511,7807 L 5681,7709 5679,8019 5511,8116 5511,7807 Z M 5506,8119 L 5191,8300 4909,8300 4909,8152 5506,7809 5506,8119 Z"/>
    <path fill="rgb(56,56,56)" stroke="none" d="M 5191,8300 L 4909,8462 4909,8300 5191,8300 Z M 5506,7809 L 5681,7709 5679,8019 5506,8119 5506,7809 Z M 5501,8121 L 5199,8295 4909,8295 4909,8152 5501,7812 5501,8121 Z"/>
    <path fill="rgb(57,57,57)" stroke="none" d="M 5199,8295 L 4909,8462 4909,8295 5199,8295 Z M 5501,7812 L 5681,7709 5679,8019 5501,8121 5501,7812 Z M 5496,8124 L 5208,8290 4909,8290 4909,8152 5496,7815 5496,8124 Z"/>
    <path fill="rgb(58,58,58)" stroke="none" d="M 5208,8290 L 4909,8462 4909,8290 5208,8290 Z M 5496,7815 L 5681,7709 5679,8019 5496,8124 5496,7815 Z M 5491,8127 L 5217,8285 4909,8285 4909,8152 5491,7818 5491,8127 Z"/>
    <path fill="rgb(60,60,60)" stroke="none" d="M 5217,8285 L 4909,8462 4909,8285 5217,8285 Z M 5491,7818 L 5681,7709 5679,8019 5491,8127 5491,7818 Z M 5486,8130 L 5225,8280 4909,8280 4909,8152 5486,7821 5486,8130 Z"/>
    <path fill="rgb(61,61,61)" stroke="none" d="M 5225,8280 L 4909,8462 4909,8280 5225,8280 Z M 5486,7821 L 5681,7709 5679,8019 5486,8130 5486,7821 Z M 5481,8133 L 5234,8275 4909,8275 4909,8152 5481,7824 5481,8133 Z"/>
    <path fill="rgb(62,62,62)" stroke="none" d="M 5234,8275 L 4909,8462 4909,8275 5234,8275 Z M 5481,7824 L 5681,7709 5679,8019 5481,8133 5481,7824 Z M 5476,8136 L 5243,8270 4909,8270 4909,8152 5476,7827 5476,8136 Z"/>
    <path fill="rgb(64,64,64)" stroke="none" d="M 5243,8270 L 4909,8462 4909,8270 5243,8270 Z M 5476,7827 L 5681,7709 5679,8019 5476,8136 5476,7827 Z M 5471,8139 L 5251,8265 4909,8265 4909,8152 5471,7830 5471,8139 Z"/>
    <path fill="rgb(65,65,65)" stroke="none" d="M 5251,8265 L 4909,8462 4909,8265 5251,8265 Z M 5471,7830 L 5681,7709 5679,8019 5471,8139 5471,7830 Z M 5466,8142 L 5260,8260 4909,8260 4909,8152 5466,7832 5466,8142 Z"/>
    <path fill="rgb(66,66,66)" stroke="none" d="M 5260,8260 L 4909,8462 4909,8260 5260,8260 Z M 5466,7832 L 5681,7709 5679,8019 5466,8142 5466,7832 Z M 5461,8144 L 5269,8255 4909,8255 4909,8152 5461,7835 5461,8144 Z"/>
    <path fill="rgb(68,68,68)" stroke="none" d="M 5269,8255 L 4909,8462 4909,8255 5269,8255 Z M 5461,7835 L 5681,7709 5679,8019 5461,8144 5461,7835 Z M 5456,8147 L 5277,8250 4909,8250 4909,8152 5456,7838 5456,8147 Z"/>
    <path fill="rgb(69,69,69)" stroke="none" d="M 5277,8250 L 4909,8462 4909,8250 5277,8250 Z M 5456,7838 L 5681,7709 5679,8019 5456,8147 5456,7838 Z M 5451,8150 L 5286,8245 4909,8245 4909,8152 5451,7841 5451,8150 Z"/>
    <path fill="rgb(70,70,70)" stroke="none" d="M 5286,8245 L 4909,8462 4909,8245 5286,8245 Z M 5451,7841 L 5681,7709 5679,8019 5451,8150 5451,7841 Z M 5446,8153 L 5295,8240 4909,8240 4909,8152 5446,7844 5446,8153 Z"/>
    <path fill="rgb(72,72,72)" stroke="none" d="M 5295,8240 L 4909,8462 4909,8240 5295,8240 Z M 5446,7844 L 5681,7709 5679,8019 5446,8153 5446,7844 Z M 5441,8156 L 5304,8235 4909,8235 4909,8152 5441,7847 5441,8156 Z"/>
    <path fill="rgb(73,73,73)" stroke="none" d="M 5304,8235 L 4909,8462 4909,8235 5304,8235 Z M 5441,7847 L 5681,7709 5679,8019 5441,8156 5441,7847 Z M 5436,8159 L 5312,8230 4909,8230 4909,8152 5436,7850 5436,8159 Z"/>
    <path fill="rgb(74,74,74)" stroke="none" d="M 5312,8230 L 4909,8462 4909,8230 5312,8230 Z M 5436,7850 L 5681,7709 5679,8019 5436,8159 5436,7850 Z M 5431,8162 L 5321,8225 4909,8225 4909,8152 5431,7852 5431,8162 Z"/>
    <path fill="rgb(76,76,76)" stroke="none" d="M 5321,8225 L 4909,8462 4909,8225 5321,8225 Z M 5431,7852 L 5681,7709 5679,8019 5431,8162 5431,7852 Z M 5426,8165 L 5330,8220 4909,8220 4909,8152 5426,7855 5426,8165 Z"/>
    <path fill="rgb(77,77,77)" stroke="none" d="M 5330,8220 L 4909,8462 4909,8220 5330,8220 Z M 5426,7855 L 5681,7709 5679,8019 5426,8165 5426,7855 Z M 5421,8167 L 5338,8215 4909,8215 4909,8152 5421,7858 5421,8167 Z"/>
    <path fill="rgb(78,78,78)" stroke="none" d="M 5338,8215 L 4909,8462 4909,8215 5338,8215 Z M 5421,7858 L 5681,7709 5679,8019 5421,8167 5421,7858 Z M 5416,8170 L 5347,8210 4909,8210 4909,8152 5416,7861 5416,8170 Z"/>
    <path fill="rgb(80,80,80)" stroke="none" d="M 5347,8210 L 4909,8462 4909,8210 5347,8210 Z M 5416,7861 L 5681,7709 5679,8019 5416,8170 5416,7861 Z M 5411,8173 L 5356,8205 4909,8205 4909,8152 5411,7864 5411,8173 Z"/>
    <path fill="rgb(81,81,81)" stroke="none" d="M 5356,8205 L 4909,8462 4909,8205 5356,8205 Z M 5411,7864 L 5681,7709 5679,8019 5411,8173 5411,7864 Z M 5406,8176 L 5364,8200 4909,8200 4909,8152 5406,7867 5406,8176 Z"/>
    <path fill="rgb(82,82,82)" stroke="none" d="M 5364,8200 L 4909,8462 4909,8200 5364,8200 Z M 5406,7867 L 5681,7709 5679,8019 5406,8176 5406,7867 Z M 5401,8179 L 5373,8195 4909,8195 4909,8152 5401,7870 5401,8179 Z"/>
    <path fill="rgb(84,84,84)" stroke="none" d="M 5373,8195 L 4909,8462 4909,8195 5373,8195 Z M 5401,7870 L 5681,7709 5679,8019 5401,8179 5401,7870 Z M 5396,8182 L 5382,8190 4909,8190 4909,8152 5396,7873 5396,8182 Z"/>
    <path fill="rgb(85,85,85)" stroke="none" d="M 5382,8190 L 4909,8462 4909,8190 5382,8190 Z M 5396,7873 L 5681,7709 5679,8019 5396,8182 5396,7873 Z M 5391,8185 L 5390,8185 4909,8185 4909,8152 5391,7875 5391,8185 Z"/>
    <path fill="rgb(86,86,86)" stroke="none" d="M 5390,8185 L 4909,8462 4909,8185 5390,8185 Z M 5391,7875 L 5681,7709 5679,8019 5391,8185 5391,7875 Z M 5386,8180 L 4909,8180 4909,8152 5386,7878 5386,8180 Z"/>
    <path fill="rgb(88,88,88)" stroke="none" d="M 5386,8180 L 5386,7878 5681,7709 5679,8019 4909,8462 4909,8180 5386,8180 Z M 5381,8175 L 4909,8175 4909,8152 5381,7881 5381,8175 Z"/>
    <path fill="rgb(89,89,89)" stroke="none" d="M 5381,8175 L 5381,7881 5681,7709 5679,8019 4909,8462 4909,8175 5381,8175 Z M 5376,8170 L 4909,8170 4909,8152 5376,7884 5376,8170 Z"/>
    <path fill="rgb(90,90,90)" stroke="none" d="M 5376,8170 L 5376,7884 5681,7709 5679,8019 4909,8462 4909,8170 5376,8170 Z M 5370,8164 L 4909,8164 4909,8152 5370,7887 5370,8164 Z"/>
    <path fill="rgb(92,92,92)" stroke="none" d="M 5370,8164 L 5370,7887 5681,7709 5679,8019 4909,8462 4909,8164 5370,8164 Z M 5365,8159 L 4914,8159 4914,8149 5365,7890 5365,8159 Z"/>
    <path fill="rgb(93,93,93)" stroke="none" d="M 4914,8159 L 5365,8159 5365,7890 5681,7709 5679,8019 4909,8462 4909,8152 4914,8149 4914,8159 Z M 5360,8154 L 4919,8154 4919,8146 5360,7893 5360,8154 Z"/>
    <path fill="rgb(94,94,94)" stroke="none" d="M 4919,8154 L 5360,8154 5360,7893 5681,7709 5679,8019 4909,8462 4909,8152 4919,8146 4919,8154 Z M 5355,8149 L 4924,8149 4924,8143 5355,7896 5355,8149 Z"/>
    <path fill="rgb(96,96,96)" stroke="none" d="M 4924,8149 L 5355,8149 5355,7896 5681,7709 5679,8019 4909,8462 4909,8152 4924,8143 4924,8149 Z M 5350,8144 L 4929,8144 4929,8141 5350,7899 5350,8144 Z"/>
    <path fill="rgb(97,97,97)" stroke="none" d="M 4929,8144 L 5350,8144 5350,7899 5681,7709 5679,8019 4909,8462 4909,8152 4929,8141 4929,8144 Z M 5345,8139 L 4934,8139 4934,8138 5345,7902 5345,8139 Z"/>
    <path fill="rgb(98,98,98)" stroke="none" d="M 4934,8139 L 5345,8139 5345,7902 5681,7709 5679,8019 4909,8462 4909,8152 4934,8138 4934,8139 Z M 5340,8134 L 4940,8134 5340,7905 5340,8134 Z"/>
    <path fill="rgb(100,100,100)" stroke="none" d="M 5340,8134 L 5340,7905 5681,7709 5679,8019 4909,8462 4909,8152 4940,8134 5340,8134 Z M 5335,8129 L 4949,8129 5335,7908 5335,8129 Z"/>
    <path fill="rgb(101,101,101)" stroke="none" d="M 5335,8129 L 5335,7908 5681,7709 5679,8019 4909,8462 4909,8152 4949,8129 5335,8129 Z M 5330,8124 L 4958,8124 5330,7910 5330,8124 Z"/>
    <path fill="rgb(102,102,102)" stroke="none" d="M 5330,8124 L 5330,7910 5681,7709 5679,8019 4909,8462 4909,8152 4958,8124 5330,8124 Z M 5325,8119 L 4967,8119 5325,7913 5325,8119 Z"/>
    <path fill="rgb(103,103,103)" stroke="none" d="M 5325,8119 L 5325,7913 5681,7709 5679,8019 4909,8462 4909,8152 4967,8119 5325,8119 Z M 5320,8114 L 4975,8114 5320,7916 5320,8114 Z"/>
    <path fill="rgb(105,105,105)" stroke="none" d="M 5320,8114 L 5320,7916 5681,7709 5679,8019 4909,8462 4909,8152 4975,8114 5320,8114 Z M 5315,8109 L 4984,8109 5315,7919 5315,8109 Z"/>
    <path fill="rgb(106,106,106)" stroke="none" d="M 5315,8109 L 5315,7919 5681,7709 5679,8019 4909,8462 4909,8152 4984,8109 5315,8109 Z M 5310,8104 L 4993,8104 5310,7922 5310,8104 Z"/>
    <path fill="rgb(107,107,107)" stroke="none" d="M 5310,8104 L 5310,7922 5681,7709 5679,8019 4909,8462 4909,8152 4993,8104 5310,8104 Z M 5305,8099 L 5001,8099 5305,7925 5305,8099 Z"/>
    <path fill="rgb(109,109,109)" stroke="none" d="M 5305,8099 L 5305,7925 5681,7709 5679,8019 4909,8462 4909,8152 5001,8099 5305,8099 Z M 5300,8094 L 5010,8094 5300,7928 5300,8094 Z"/>
    <path fill="rgb(110,110,110)" stroke="none" d="M 5300,8094 L 5300,7928 5681,7709 5679,8019 4909,8462 4909,8152 5010,8094 5300,8094 Z M 5295,8089 L 5019,8089 5295,7931 5295,8089 Z"/>
    <path fill="rgb(111,111,111)" stroke="none" d="M 5295,8089 L 5295,7931 5681,7709 5679,8019 4909,8462 4909,8152 5019,8089 5295,8089 Z M 5290,8084 L 5028,8084 5290,7933 5290,8084 Z"/>
    <path fill="rgb(113,113,113)" stroke="none" d="M 5290,8084 L 5290,7933 5681,7709 5679,8019 4909,8462 4909,8152 5028,8084 5290,8084 Z M 5285,8079 L 5036,8079 5285,7936 5285,8079 Z"/>
    <path fill="rgb(114,114,114)" stroke="none" d="M 5285,8079 L 5285,7936 5681,7709 5679,8019 4909,8462 4909,8152 5036,8079 5285,8079 Z M 5280,8074 L 5045,8074 5280,7939 5280,8074 Z"/>
    <path fill="rgb(115,115,115)" stroke="none" d="M 5280,8074 L 5280,7939 5681,7709 5679,8019 4909,8462 4909,8152 5045,8074 5280,8074 Z M 5275,8069 L 5054,8069 5275,7942 5275,8069 Z"/>
    <path fill="rgb(117,117,117)" stroke="none" d="M 5275,8069 L 5275,7942 5681,7709 5679,8019 4909,8462 4909,8152 5054,8069 5275,8069 Z M 5270,8064 L 5062,8064 5270,7945 5270,8064 Z"/>
    <path fill="rgb(118,118,118)" stroke="none" d="M 5270,8064 L 5270,7945 5681,7709 5679,8019 4909,8462 4909,8152 5062,8064 5270,8064 Z M 5265,8059 L 5071,8059 5265,7948 5265,8059 Z"/>
    <path fill="rgb(119,119,119)" stroke="none" d="M 5265,8059 L 5265,7948 5681,7709 5679,8019 4909,8462 4909,8152 5071,8059 5265,8059 Z M 5260,8054 L 5080,8054 5260,7951 5260,8054 Z"/>
    <path fill="rgb(121,121,121)" stroke="none" d="M 5260,8054 L 5260,7951 5681,7709 5679,8019 4909,8462 4909,8152 5080,8054 5260,8054 Z M 5255,8049 L 5088,8049 5255,7953 5255,8049 Z"/>
    <path fill="rgb(122,122,122)" stroke="none" d="M 5255,8049 L 5255,7953 5681,7709 5679,8019 4909,8462 4909,8152 5088,8049 5255,8049 Z M 5250,8044 L 5097,8044 5250,7956 5250,8044 Z"/>
    <path fill="rgb(123,123,123)" stroke="none" d="M 5250,8044 L 5250,7956 5681,7709 5679,8019 4909,8462 4909,8152 5097,8044 5250,8044 Z M 5245,8039 L 5106,8039 5245,7959 5245,8039 Z"/>
    <path fill="rgb(125,125,125)" stroke="none" d="M 5245,8039 L 5245,7959 5681,7709 5679,8019 4909,8462 4909,8152 5106,8039 5245,8039 Z M 5240,8034 L 5115,8034 5240,7962 5240,8034 Z"/>
    <path fill="rgb(126,126,126)" stroke="none" d="M 5240,8034 L 5240,7962 5681,7709 5679,8019 4909,8462 4909,8152 5115,8034 5240,8034 Z M 5235,8029 L 5123,8029 5235,7965 5235,8029 Z"/>
    <path fill="rgb(127,127,127)" stroke="none" d="M 5235,8029 L 5235,7965 5681,7709 5679,8019 4909,8462 4909,8152 5123,8029 5235,8029 Z M 5230,8024 L 5132,8024 5230,7968 5230,8024 Z"/>
    <path fill="rgb(129,129,129)" stroke="none" d="M 5230,8024 L 5230,7968 5681,7709 5679,8019 4909,8462 4909,8152 5132,8024 5230,8024 Z M 5225,8019 L 5141,8019 5225,7971 5225,8019 Z"/>
    <path fill="rgb(130,130,130)" stroke="none" d="M 5225,8019 L 5225,7971 5681,7709 5679,8019 4909,8462 4909,8152 5141,8019 5225,8019 Z M 5220,8014 L 5149,8014 5220,7974 5220,8014 Z"/>
    <path fill="rgb(131,131,131)" stroke="none" d="M 5220,8014 L 5220,7974 5681,7709 5679,8019 4909,8462 4909,8152 5149,8014 5220,8014 Z M 5214,8008 L 5160,8008 5214,7977 5214,8008 Z"/>
    <path fill="rgb(133,133,133)" stroke="none" d="M 5214,8008 L 5214,7977 5681,7709 5679,8019 4909,8462 4909,8152 5160,8008 5214,8008 Z M 5209,8003 L 5169,8003 5209,7980 5209,8003 Z"/>
    <path fill="rgb(134,134,134)" stroke="none" d="M 5209,8003 L 5209,7980 5681,7709 5679,8019 4909,8462 4909,8152 5169,8003 5209,8003 Z M 5204,7998 L 5177,7998 5204,7983 5204,7998 Z"/>
    <path fill="rgb(135,135,135)" stroke="none" d="M 5204,7998 L 5204,7983 5681,7709 5679,8019 4909,8462 4909,8152 5177,7998 5204,7998 Z M 5199,7993 L 5186,7993 5199,7986 5199,7993 Z"/>
    <path fill="rgb(137,137,137)" stroke="none" d="M 5199,7993 L 5199,7986 5681,7709 5679,8019 4909,8462 4909,8152 5186,7993 5199,7993 Z"/>
    <path fill="rgb(138,138,138)" stroke="none" d="M 4909,8462 L 4909,8152 5681,7709 5679,8019 4909,8462 Z"/>
    <path fill="rgb(139,139,139)" stroke="none" d="M 4909,8462 L 4909,8152 5681,7709 5679,8019 4909,8462 Z"/>
    <path fill="rgb(141,141,141)" stroke="none" d="M 4909,8462 L 4909,8152 5681,7709 5679,8019 4909,8462 Z"/>
    <path fill="rgb(142,142,142)" stroke="none" d="M 4909,8462 L 4909,8152 5681,7709 5679,8019 4909,8462 Z"/>
    <path fill="rgb(143,143,143)" stroke="none" d="M 4909,8462 L 4909,8152 5681,7709 5679,8019 4909,8462 Z"/>
    <path fill="rgb(145,145,145)" stroke="none" d="M 4909,8462 L 4909,8152 5681,7709 5679,8019 4909,8462 Z"/>
    <path fill="rgb(146,146,146)" stroke="none" d="M 4909,8462 L 4909,8152 5681,7709 5679,8019 4909,8462 Z"/>
    <path fill="rgb(147,147,147)" stroke="none" d="M 4909,8462 L 4909,8152 5681,7709 5679,8019 4909,8462 Z"/>
    <path fill="rgb(149,149,149)" stroke="none" d="M 4909,8462 L 4909,8152 5681,7709 5679,8019 4909,8462 Z"/>
    <path fill="rgb(150,150,150)" stroke="none" d="M 4909,8462 L 4909,8152 5681,7709 5679,8019 4909,8462 Z"/>
    <path fill="rgb(153,153,153)" stroke="none" d="M 4909,8462 L 4909,8152 5681,7709 5679,8019 4909,8462 Z"/>
    <path fill="none" stroke="rgb(178,178,178)" id="Drawing_1_0" stroke-width="40" stroke-linejoin="round" d="M 4909,8462 L 4909,8152 5681,7709 5679,8019 4909,8462 Z"/>
   </g>
   <g>
    <defs>
     <linearGradient id="Gradient_314" gradientUnits="userSpaceOnUse" x1="5103" y1="7488" x2="5103" y2="8152">
      <stop offset="0.1" stop-color="rgb(51,51,51)"/>
      <stop offset="1" stop-color="rgb(153,153,153)"/>
     </linearGradient>
    </defs>
    <path fill="url(#Gradient_314)" stroke="rgb(178,178,178)" id="Drawing_2_0" stroke-width="40" stroke-linejoin="round" d="M 4911,8152 L 4528,7931 5296,7488 5679,7709 4911,8152 Z"/>
   </g>
   <g>
    <defs>
     <linearGradient id="Gradient_315" gradientUnits="userSpaceOnUse" x1="4527" y1="8195" x2="4911" y2="8195">
      <stop offset="0.1" stop-color="rgb(51,51,51)"/>
      <stop offset="1" stop-color="rgb(153,153,153)"/>
     </linearGradient>
    </defs>
    <path fill="url(#Gradient_315)" stroke="rgb(178,178,178)" id="Drawing_3_0" stroke-width="40" stroke-linejoin="round" d="M 4527,8240 L 4528,7930 4911,8151 4911,8461 4527,8240 Z"/>
   </g>
   <g>
    <defs>
     <linearGradient id="Gradient_316" gradientUnits="userSpaceOnUse" x1="4372" y1="8329" x2="4603" y2="8329">
      <stop offset="0.1" stop-color="rgb(179,179,179)"/>
      <stop offset="1" stop-color="rgb(229,229,229)"/>
     </linearGradient>
    </defs>
    <path fill="url(#Gradient_316)" stroke="rgb(255,255,255)" id="Drawing_4_0" stroke-width="40" stroke-linejoin="round" d="M 4373,8329 L 4373,8196 4604,8329 4603,8462 4373,8329 Z"/>
   </g>
   <g>
    <path fill="rgb(179,179,179)" stroke="none" d="M 4800,8348 L 4705,8403 4603,8403 4603,8329 4800,8216 4800,8348 Z"/>
    <path fill="rgb(180,180,180)" stroke="none" d="M 4705,8403 L 4603,8462 4603,8403 4705,8403 Z M 4800,8216 L 4835,8196 4833,8329 4800,8348 4800,8216 Z M 4795,8351 L 4714,8398 4603,8398 4603,8329 4795,8219 4795,8351 Z"/>
    <path fill="rgb(182,182,182)" stroke="none" d="M 4714,8398 L 4603,8462 4603,8398 4714,8398 Z M 4795,8219 L 4835,8196 4833,8329 4795,8351 4795,8219 Z M 4790,8354 L 4722,8393 4603,8393 4603,8329 4790,8222 4790,8354 Z"/>
    <path fill="rgb(184,184,184)" stroke="none" d="M 4722,8393 L 4603,8462 4603,8393 4722,8393 Z M 4790,8222 L 4835,8196 4833,8329 4790,8354 4790,8222 Z M 4785,8357 L 4731,8388 4603,8388 4603,8329 4785,8225 4785,8357 Z"/>
    <path fill="rgb(186,186,186)" stroke="none" d="M 4731,8388 L 4603,8462 4603,8388 4731,8388 Z M 4785,8225 L 4835,8196 4833,8329 4785,8357 4785,8225 Z M 4780,8360 L 4740,8383 4603,8383 4603,8329 4780,8228 4780,8360 Z"/>
    <path fill="rgb(188,188,188)" stroke="none" d="M 4740,8383 L 4603,8462 4603,8383 4740,8383 Z M 4780,8228 L 4835,8196 4833,8329 4780,8360 4780,8228 Z M 4774,8363 L 4750,8377 4603,8377 4603,8329 4774,8231 4774,8363 Z"/>
    <path fill="rgb(190,190,190)" stroke="none" d="M 4750,8377 L 4603,8462 4603,8377 4750,8377 Z M 4774,8231 L 4835,8196 4833,8329 4774,8363 4774,8231 Z M 4769,8366 L 4759,8372 4603,8372 4603,8329 4769,8234 4769,8366 Z"/>
    <path fill="rgb(192,192,192)" stroke="none" d="M 4759,8372 L 4603,8462 4603,8372 4759,8372 Z M 4769,8234 L 4835,8196 4833,8329 4769,8366 4769,8234 Z M 4764,8367 L 4603,8367 4603,8329 4764,8237 4764,8367 Z"/>
    <path fill="rgb(194,194,194)" stroke="none" d="M 4764,8367 L 4764,8237 4835,8196 4833,8329 4603,8462 4603,8367 4764,8367 Z M 4759,8362 L 4603,8362 4603,8329 4759,8240 4759,8362 Z"/>
    <path fill="rgb(196,196,196)" stroke="none" d="M 4759,8362 L 4759,8240 4835,8196 4833,8329 4603,8462 4603,8362 4759,8362 Z M 4754,8357 L 4603,8357 4603,8329 4754,8242 4754,8357 Z"/>
    <path fill="rgb(198,198,198)" stroke="none" d="M 4754,8357 L 4754,8242 4835,8196 4833,8329 4603,8462 4603,8357 4754,8357 Z M 4749,8352 L 4603,8352 4603,8329 4749,8245 4749,8352 Z"/>
    <path fill="rgb(200,200,200)" stroke="none" d="M 4749,8352 L 4749,8245 4835,8196 4833,8329 4603,8462 4603,8352 4749,8352 Z M 4743,8346 L 4603,8346 4603,8329 4743,8249 4743,8346 Z"/>
    <path fill="rgb(202,202,202)" stroke="none" d="M 4743,8346 L 4743,8249 4835,8196 4833,8329 4603,8462 4603,8346 4743,8346 Z M 4738,8341 L 4605,8341 4605,8328 4738,8252 4738,8341 Z"/>
    <path fill="rgb(204,204,204)" stroke="none" d="M 4605,8341 L 4738,8341 4738,8252 4835,8196 4833,8329 4603,8462 4603,8329 4605,8328 4605,8341 Z M 4733,8336 L 4610,8336 4610,8325 4733,8254 4733,8336 Z"/>
    <path fill="rgb(205,205,205)" stroke="none" d="M 4610,8336 L 4733,8336 4733,8254 4835,8196 4833,8329 4603,8462 4603,8329 4610,8325 4610,8336 Z M 4728,8331 L 4615,8331 4615,8322 4728,8257 4728,8331 Z"/>
    <path fill="rgb(207,207,207)" stroke="none" d="M 4615,8331 L 4728,8331 4728,8257 4835,8196 4833,8329 4603,8462 4603,8329 4615,8322 4615,8331 Z M 4723,8326 L 4620,8326 4620,8319 4723,8260 4723,8326 Z"/>
    <path fill="rgb(209,209,209)" stroke="none" d="M 4620,8326 L 4723,8326 4723,8260 4835,8196 4833,8329 4603,8462 4603,8329 4620,8319 4620,8326 Z M 4718,8321 L 4625,8321 4625,8316 4718,8263 4718,8321 Z"/>
    <path fill="rgb(211,211,211)" stroke="none" d="M 4625,8321 L 4718,8321 4718,8263 4835,8196 4833,8329 4603,8462 4603,8329 4625,8316 4625,8321 Z M 4712,8315 L 4631,8315 4631,8313 4712,8267 4712,8315 Z"/>
    <path fill="rgb(213,213,213)" stroke="none" d="M 4631,8315 L 4712,8315 4712,8267 4835,8196 4833,8329 4603,8462 4603,8329 4631,8313 4631,8315 Z M 4707,8310 L 4636,8310 4707,8269 4707,8310 Z"/>
    <path fill="rgb(215,215,215)" stroke="none" d="M 4707,8310 L 4707,8269 4835,8196 4833,8329 4603,8462 4603,8329 4636,8310 4707,8310 Z M 4702,8305 L 4645,8305 4702,8272 4702,8305 Z"/>
    <path fill="rgb(217,217,217)" stroke="none" d="M 4702,8305 L 4702,8272 4835,8196 4833,8329 4603,8462 4603,8329 4645,8305 4702,8305 Z M 4697,8300 L 4654,8300 4697,8275 4697,8300 Z"/>
    <path fill="rgb(219,219,219)" stroke="none" d="M 4697,8300 L 4697,8275 4835,8196 4833,8329 4603,8462 4603,8329 4654,8300 4697,8300 Z M 4692,8295 L 4662,8295 4692,8278 4692,8295 Z"/>
    <path fill="rgb(221,221,221)" stroke="none" d="M 4692,8295 L 4692,8278 4835,8196 4833,8329 4603,8462 4603,8329 4662,8295 4692,8295 Z M 4687,8290 L 4671,8290 4687,8281 4687,8290 Z"/>
    <path fill="rgb(223,223,223)" stroke="none" d="M 4687,8290 L 4687,8281 4835,8196 4833,8329 4603,8462 4603,8329 4671,8290 4687,8290 Z"/>
    <path fill="rgb(225,225,225)" stroke="none" d="M 4603,8462 L 4603,8329 4835,8196 4833,8329 4603,8462 Z"/>
    <path fill="rgb(229,229,229)" stroke="none" d="M 4603,8462 L 4603,8329 4835,8196 4833,8329 4603,8462 Z"/>
    <path fill="none" stroke="rgb(255,255,255)" id="Drawing_5_0" stroke-width="40" stroke-linejoin="round" d="M 4603,8462 L 4603,8329 4835,8196 4833,8329 4603,8462 Z"/>
   </g>
   <g>
    <defs>
     <linearGradient id="Gradient_317" gradientUnits="userSpaceOnUse" x1="4603" y1="8063" x2="4603" y2="8329">
      <stop offset="0.1" stop-color="rgb(179,179,179)"/>
      <stop offset="1" stop-color="rgb(229,229,229)"/>
     </linearGradient>
    </defs>
    <path fill="url(#Gradient_317)" stroke="rgb(255,255,255)" id="Drawing_6_0" stroke-width="40" stroke-linejoin="round" d="M 4603,8329 L 4373,8196 4603,8063 4833,8196 4603,8329 Z"/>
   </g>
   <g>
    <path fill="none" stroke="rgb(0,0,0)" id="Drawing_7_0" stroke-width="40" stroke-linejoin="round" d="M 4757,8374 L 4603,8462 4373,8329 4373,8197 4527,8108 4527,7931 5296,7488 5677,7709 5679,8019 4910,8462 4757,8374 Z"/>
   </g>
  </g>
 </g>
</svg>