<?xml version="1.0" encoding="UTF-8"?>

<svg version="1.2" baseProfile="tiny" width="11.92mm" height="11.03mm" viewBox="9799 20615 1192 1103" preserveAspectRatio="xMidYMid" fill-rule="evenodd" stroke-width="28.222" stroke-linejoin="round" xmlns="http://www.w3.org/2000/svg" xmlns:xlink="http://www.w3.org/1999/xlink" xml:space="preserve">
 <g visibility="visible" id="Slide_1">
  <g id="DrawingGroup_1">
   <g>
    <path fill="rgb(102,102,102)" stroke="none" d="M 10740,21567 L 10740,21211 10971,21078 10971,21565 10968,21567 10740,21567 Z"/>
    <path fill="rgb(103,103,103)" stroke="none" d="M 10968,21567 L 10740,21698 10740,21567 10968,21567 Z M 10740,21561 L 10740,21211 10971,21078 10971,21561 10740,21561 Z"/>
    <path fill="rgb(104,104,104)" stroke="none" d="M 10971,21561 L 10971,21565 10740,21698 10740,21561 10971,21561 Z M 10740,21555 L 10740,21211 10971,21078 10971,21555 10740,21555 Z"/>
    <path fill="rgb(105,105,105)" stroke="none" d="M 10971,21555 L 10971,21565 10740,21698 10740,21555 10971,21555 Z M 10740,21549 L 10740,21211 10971,21078 10971,21549 10740,21549 Z"/>
    <path fill="rgb(106,106,106)" stroke="none" d="M 10971,21549 L 10971,21565 10740,21698 10740,21549 10971,21549 Z M 10740,21543 L 10740,21211 10971,21078 10971,21543 10740,21543 Z"/>
    <path fill="rgb(107,107,107)" stroke="none" d="M 10971,21543 L 10971,21565 10740,21698 10740,21543 10971,21543 Z M 10740,21537 L 10740,21211 10971,21078 10971,21537 10740,21537 Z"/>
    <path fill="rgb(108,108,108)" stroke="none" d="M 10971,21537 L 10971,21565 10740,21698 10740,21537 10971,21537 Z M 10740,21531 L 10740,21211 10971,21078 10971,21531 10740,21531 Z"/>
    <path fill="rgb(109,109,109)" stroke="none" d="M 10971,21531 L 10971,21565 10740,21698 10740,21531 10971,21531 Z M 10740,21525 L 10740,21211 10971,21078 10971,21525 10740,21525 Z"/>
    <path fill="rgb(110,110,110)" stroke="none" d="M 10971,21525 L 10971,21565 10740,21698 10740,21525 10971,21525 Z M 10740,21519 L 10740,21211 10971,21078 10971,21519 10740,21519 Z"/>
    <path fill="rgb(111,111,111)" stroke="none" d="M 10971,21519 L 10971,21565 10740,21698 10740,21519 10971,21519 Z M 10740,21512 L 10740,21211 10971,21078 10971,21512 10740,21512 Z"/>
    <path fill="rgb(112,112,112)" stroke="none" d="M 10971,21512 L 10971,21565 10740,21698 10740,21512 10971,21512 Z M 10740,21506 L 10740,21211 10971,21078 10971,21506 10740,21506 Z"/>
    <path fill="rgb(113,113,113)" stroke="none" d="M 10971,21506 L 10971,21565 10740,21698 10740,21506 10971,21506 Z M 10740,21500 L 10740,21211 10971,21078 10971,21500 10740,21500 Z"/>
    <path fill="rgb(114,114,114)" stroke="none" d="M 10971,21500 L 10971,21565 10740,21698 10740,21500 10971,21500 Z M 10740,21494 L 10740,21211 10971,21078 10971,21494 10740,21494 Z"/>
    <path fill="rgb(115,115,115)" stroke="none" d="M 10971,21494 L 10971,21565 10740,21698 10740,21494 10971,21494 Z M 10740,21488 L 10740,21211 10971,21078 10971,21488 10740,21488 Z"/>
    <path fill="rgb(116,116,116)" stroke="none" d="M 10971,21488 L 10971,21565 10740,21698 10740,21488 10971,21488 Z M 10740,21482 L 10740,21211 10971,21078 10971,21482 10740,21482 Z"/>
    <path fill="rgb(117,117,117)" stroke="none" d="M 10971,21482 L 10971,21565 10740,21698 10740,21482 10971,21482 Z M 10740,21476 L 10740,21211 10971,21078 10971,21476 10740,21476 Z"/>
    <path fill="rgb(118,118,118)" stroke="none" d="M 10971,21476 L 10971,21565 10740,21698 10740,21476 10971,21476 Z M 10740,21470 L 10740,21211 10971,21078 10971,21470 10740,21470 Z"/>
    <path fill="rgb(119,119,119)" stroke="none" d="M 10971,21470 L 10971,21565 10740,21698 10740,21470 10971,21470 Z M 10740,21464 L 10740,21211 10971,21078 10971,21464 10740,21464 Z"/>
    <path fill="rgb(120,120,120)" stroke="none" d="M 10971,21464 L 10971,21565 10740,21698 10740,21464 10971,21464 Z M 10740,21457 L 10740,21211 10971,21078 10971,21457 10740,21457 Z"/>
    <path fill="rgb(121,121,121)" stroke="none" d="M 10971,21457 L 10971,21565 10740,21698 10740,21457 10971,21457 Z M 10740,21451 L 10740,21211 10971,21078 10971,21451 10740,21451 Z"/>
    <path fill="rgb(122,122,122)" stroke="none" d="M 10971,21451 L 10971,21565 10740,21698 10740,21451 10971,21451 Z M 10971,21080 L 10971,21445 10740,21445 10740,21211 10968,21080 10971,21080 Z"/>
    <path fill="rgb(123,123,123)" stroke="none" d="M 10971,21445 L 10971,21565 10740,21698 10740,21445 10971,21445 Z M 10968,21080 L 10971,21078 10971,21080 10968,21080 Z M 10971,21086 L 10971,21439 10740,21439 10740,21211 10957,21086 10971,21086 Z"/>
    <path fill="rgb(124,124,124)" stroke="none" d="M 10971,21439 L 10971,21565 10740,21698 10740,21439 10971,21439 Z M 10957,21086 L 10971,21078 10971,21086 10957,21086 Z M 10971,21092 L 10971,21433 10740,21433 10740,21211 10947,21092 10971,21092 Z"/>
    <path fill="rgb(125,125,125)" stroke="none" d="M 10971,21433 L 10971,21565 10740,21698 10740,21433 10971,21433 Z M 10947,21092 L 10971,21078 10971,21092 10947,21092 Z M 10971,21098 L 10971,21427 10740,21427 10740,21211 10936,21098 10971,21098 Z"/>
    <path fill="rgb(126,126,126)" stroke="none" d="M 10971,21427 L 10971,21565 10740,21698 10740,21427 10971,21427 Z M 10936,21098 L 10971,21078 10971,21098 10936,21098 Z M 10967,21104 L 10967,21421 10740,21421 10740,21211 10926,21104 10967,21104 Z"/>
    <path fill="rgb(127,127,127)" stroke="none" d="M 10967,21421 L 10967,21104 10926,21104 10971,21078 10971,21565 10740,21698 10740,21421 10967,21421 Z M 10961,21110 L 10961,21415 10740,21415 10740,21211 10915,21110 10961,21110 Z"/>
    <path fill="rgb(128,128,128)" stroke="none" d="M 10961,21415 L 10961,21110 10915,21110 10971,21078 10971,21565 10740,21698 10740,21415 10961,21415 Z M 10955,21116 L 10955,21409 10740,21409 10740,21211 10905,21116 10955,21116 Z"/>
    <path fill="rgb(129,129,129)" stroke="none" d="M 10955,21409 L 10955,21116 10905,21116 10971,21078 10971,21565 10740,21698 10740,21409 10955,21409 Z M 10948,21123 L 10948,21402 10740,21402 10740,21211 10893,21123 10948,21123 Z"/>
    <path fill="rgb(130,130,130)" stroke="none" d="M 10948,21402 L 10948,21123 10893,21123 10971,21078 10971,21565 10740,21698 10740,21402 10948,21402 Z M 10942,21129 L 10942,21396 10740,21396 10740,21211 10882,21129 10942,21129 Z"/>
    <path fill="rgb(131,131,131)" stroke="none" d="M 10942,21396 L 10942,21129 10882,21129 10971,21078 10971,21565 10740,21698 10740,21396 10942,21396 Z M 10936,21135 L 10936,21390 10740,21390 10740,21211 10872,21135 10936,21135 Z"/>
    <path fill="rgb(132,132,132)" stroke="none" d="M 10936,21390 L 10936,21135 10872,21135 10971,21078 10971,21565 10740,21698 10740,21390 10936,21390 Z M 10930,21141 L 10930,21384 10740,21384 10740,21211 10862,21141 10930,21141 Z"/>
    <path fill="rgb(133,133,133)" stroke="none" d="M 10930,21384 L 10930,21141 10862,21141 10971,21078 10971,21565 10740,21698 10740,21384 10930,21384 Z M 10924,21147 L 10924,21378 10740,21378 10740,21211 10851,21147 10924,21147 Z"/>
    <path fill="rgb(134,134,134)" stroke="none" d="M 10924,21378 L 10924,21147 10851,21147 10971,21078 10971,21565 10740,21698 10740,21378 10924,21378 Z M 10918,21153 L 10918,21372 10740,21372 10740,21211 10841,21153 10918,21153 Z"/>
    <path fill="rgb(135,135,135)" stroke="none" d="M 10918,21372 L 10918,21153 10841,21153 10971,21078 10971,21565 10740,21698 10740,21372 10918,21372 Z M 10912,21159 L 10912,21366 10740,21366 10740,21211 10830,21159 10912,21159 Z"/>
    <path fill="rgb(136,136,136)" stroke="none" d="M 10912,21366 L 10912,21159 10830,21159 10971,21078 10971,21565 10740,21698 10740,21366 10912,21366 Z M 10906,21165 L 10906,21360 10740,21360 10740,21211 10820,21165 10906,21165 Z"/>
    <path fill="rgb(137,137,137)" stroke="none" d="M 10906,21360 L 10906,21165 10820,21165 10971,21078 10971,21565 10740,21698 10740,21360 10906,21360 Z M 10900,21171 L 10900,21354 10740,21354 10740,21211 10809,21171 10900,21171 Z"/>
    <path fill="rgb(138,138,138)" stroke="none" d="M 10900,21354 L 10900,21171 10809,21171 10971,21078 10971,21565 10740,21698 10740,21354 10900,21354 Z M 10894,21177 L 10894,21348 10740,21348 10740,21211 10799,21177 10894,21177 Z"/>
    <path fill="rgb(139,139,139)" stroke="none" d="M 10894,21348 L 10894,21177 10799,21177 10971,21078 10971,21565 10740,21698 10740,21348 10894,21348 Z M 10887,21184 L 10887,21341 10740,21341 10740,21211 10787,21184 10887,21184 Z"/>
    <path fill="rgb(140,140,140)" stroke="none" d="M 10887,21341 L 10887,21184 10787,21184 10971,21078 10971,21565 10740,21698 10740,21341 10887,21341 Z M 10881,21190 L 10881,21335 10740,21335 10740,21211 10776,21190 10881,21190 Z"/>
    <path fill="rgb(141,141,141)" stroke="none" d="M 10881,21335 L 10881,21190 10776,21190 10971,21078 10971,21565 10740,21698 10740,21335 10881,21335 Z M 10875,21196 L 10875,21329 10742,21329 10742,21210 10766,21196 10875,21196 Z"/>
    <path fill="rgb(142,142,142)" stroke="none" d="M 10742,21329 L 10875,21329 10875,21196 10766,21196 10971,21078 10971,21565 10740,21698 10740,21211 10742,21210 10742,21329 Z M 10869,21202 L 10869,21323 10748,21323 10748,21206 10756,21202 10869,21202 Z"/>
    <path fill="rgb(143,143,143)" stroke="none" d="M 10748,21323 L 10869,21323 10869,21202 10756,21202 10971,21078 10971,21565 10740,21698 10740,21211 10748,21206 10748,21323 Z M 10754,21208 L 10863,21208 10863,21317 10754,21317 10754,21208 Z"/>
    <path fill="rgb(144,144,144)" stroke="none" d="M 10754,21208 L 10754,21317 10863,21317 10863,21208 10754,21208 Z M 10760,21214 L 10857,21214 10857,21311 10760,21311 10760,21214 Z M 10971,21565 L 10740,21698 10740,21211 10971,21078 10971,21565 Z"/>
    <path fill="rgb(145,145,145)" stroke="none" d="M 10760,21214 L 10760,21311 10857,21311 10857,21214 10760,21214 Z M 10766,21220 L 10851,21220 10851,21305 10766,21305 10766,21220 Z M 10971,21565 L 10740,21698 10740,21211 10971,21078 10971,21565 Z"/>
    <path fill="rgb(146,146,146)" stroke="none" d="M 10766,21220 L 10766,21305 10851,21305 10851,21220 10766,21220 Z M 10772,21226 L 10845,21226 10845,21299 10772,21299 10772,21226 Z M 10971,21565 L 10740,21698 10740,21211 10971,21078 10971,21565 Z"/>
    <path fill="rgb(147,147,147)" stroke="none" d="M 10772,21226 L 10772,21299 10845,21299 10845,21226 10772,21226 Z M 10778,21232 L 10839,21232 10839,21293 10778,21293 10778,21232 Z M 10971,21565 L 10740,21698 10740,21211 10971,21078 10971,21565 Z"/>
    <path fill="rgb(148,148,148)" stroke="none" d="M 10778,21232 L 10778,21293 10839,21293 10839,21232 10778,21232 Z M 10785,21239 L 10832,21239 10832,21286 10785,21286 10785,21239 Z M 10971,21565 L 10740,21698 10740,21211 10971,21078 10971,21565 Z"/>
    <path fill="rgb(149,149,149)" stroke="none" d="M 10785,21239 L 10785,21286 10832,21286 10832,21239 10785,21239 Z M 10791,21245 L 10826,21245 10826,21280 10791,21280 10791,21245 Z M 10971,21565 L 10740,21698 10740,21211 10971,21078 10971,21565 Z"/>
    <path fill="rgb(150,150,150)" stroke="none" d="M 10791,21245 L 10791,21280 10826,21280 10826,21245 10791,21245 Z M 10797,21251 L 10820,21251 10820,21274 10797,21274 10797,21251 Z M 10971,21565 L 10740,21698 10740,21211 10971,21078 10971,21565 Z"/>
    <path fill="rgb(151,151,151)" stroke="none" d="M 10797,21251 L 10797,21274 10820,21274 10820,21251 10797,21251 Z M 10803,21257 L 10814,21257 10814,21268 10803,21268 10803,21257 Z M 10971,21565 L 10740,21698 10740,21211 10971,21078 10971,21565 Z"/>
    <path fill="rgb(153,153,153)" stroke="none" d="M 10803,21257 L 10803,21268 10814,21268 10814,21257 10803,21257 Z M 10971,21565 L 10740,21698 10740,21211 10971,21078 10971,21565 Z"/>
    <path fill="none" stroke="rgb(178,178,178)" id="Drawing_1_0" stroke-width="40" stroke-linejoin="round" d="M 10971,21565 L 10971,21078 10740,21211 10740,21698 10971,21565 Z"/>
   </g>
   <g>
    <defs>
     <linearGradient id="Gradient_334" gradientUnits="userSpaceOnUse" x1="10048" y1="20945" x2="10125" y2="20945">
      <stop offset="0.1" stop-color="rgb(179,179,179)"/>
      <stop offset="1" stop-color="rgb(229,229,229)"/>
     </linearGradient>
    </defs>
    <path fill="url(#Gradient_334)" stroke="rgb(255,255,255)" id="Drawing_2_0" stroke-width="40" stroke-linejoin="round" d="M 10126,21078 L 10126,20768 10049,20812 10049,21122 10126,21078 Z"/>
   </g>
   <g>
    <defs>
     <linearGradient id="Gradient_335" gradientUnits="userSpaceOnUse" x1="9819" y1="20900" x2="10051" y2="20900">
      <stop offset="0.1" stop-color="rgb(179,179,179)"/>
      <stop offset="1" stop-color="rgb(229,229,229)"/>
     </linearGradient>
    </defs>
    <path fill="url(#Gradient_335)" stroke="rgb(255,255,255)" id="Drawing_3_0" stroke-width="40" stroke-linejoin="round" d="M 10049,21122 L 10051,20812 9819,20679 9819,20989 10049,21122 Z"/>
   </g>
   <g>
    <defs>
     <linearGradient id="Gradient_336" gradientUnits="userSpaceOnUse" x1="9972" y1="20635" x2="9972" y2="20812">
      <stop offset="0.1" stop-color="rgb(179,179,179)"/>
      <stop offset="1" stop-color="rgb(229,229,229)"/>
     </linearGradient>
    </defs>
    <path fill="url(#Gradient_336)" stroke="rgb(255,255,255)" id="Drawing_4_0" stroke-width="40" stroke-linejoin="round" d="M 10049,20812 L 10126,20768 9896,20635 9819,20679 10049,20812 Z"/>
   </g>
   <g>
    <defs>
     <linearGradient id="Gradient_337" gradientUnits="userSpaceOnUse" x1="9971" y1="21232" x2="10745" y2="21234">
      <stop offset="0.1" stop-color="rgb(102,102,102)"/>
      <stop offset="1" stop-color="rgb(153,153,153)"/>
     </linearGradient>
    </defs>
    <path fill="url(#Gradient_337)" stroke="rgb(178,178,178)" id="Drawing_5_0" stroke-width="40" stroke-linejoin="round" d="M 10742,21698 L 10744,21211 9972,20768 9972,21255 10742,21698 Z"/>
   </g>
   <g>
    <defs>
     <linearGradient id="Gradient_338" gradientUnits="userSpaceOnUse" x1="10471" y1="20635" x2="10471" y2="21211">
      <stop offset="0.1" stop-color="rgb(51,51,51)"/>
      <stop offset="1" stop-color="rgb(153,153,153)"/>
     </linearGradient>
    </defs>
    <path fill="url(#Gradient_338)" stroke="rgb(178,178,178)" id="Drawing_6_0" stroke-width="40" stroke-linejoin="round" d="M 10740,21211 L 10971,21078 10203,20635 9972,20768 10740,21211 Z"/>
   </g>
   <g>
    <path fill="none" stroke="rgb(0,0,0)" id="Drawing_7_0" stroke-width="40" stroke-linejoin="round" d="M 10971,21565 L 10971,21078 10203,20635 10049,20724 9896,20635 9819,20679 9819,20989 9972,21078 9972,21255 10741,21698 10971,21565 Z"/>
   </g>
  </g>
 </g>
</svg>