<?xml version="1.0" encoding="UTF-8"?>

<svg version="1.2" baseProfile="tiny" width="13.48mm" height="10.14mm" viewBox="2086 3650 1348 1014" preserveAspectRatio="xMidYMid" fill-rule="evenodd" stroke-width="28.222" stroke-linejoin="round" xmlns="http://www.w3.org/2000/svg" xmlns:xlink="http://www.w3.org/1999/xlink" xml:space="preserve">
 <g visibility="visible" id="Slide_1">
  <g id="DrawingGroup_1">
   <g>
    <defs>
     <linearGradient id="Gradient_306" gradientUnits="userSpaceOnUse" x1="2105" y1="4266" x2="2879" y2="4268">
      <stop offset="0.1" stop-color="rgb(102,102,102)"/>
      <stop offset="1" stop-color="rgb(153,153,153)"/>
     </linearGradient>
    </defs>
    <path fill="url(#Gradient_306)" stroke="rgb(178,178,178)" id="Drawing_1_0" stroke-width="40" stroke-linejoin="round" d="M 2878,4644 L 2878,4334 2106,3891 2108,4201 2878,4644 Z"/>
   </g>
   <g>
    <defs>
     <linearGradient id="Gradient_307" gradientUnits="userSpaceOnUse" x1="2683" y1="3670" x2="2683" y2="4334">
      <stop offset="0.1" stop-color="rgb(51,51,51)"/>
      <stop offset="1" stop-color="rgb(153,153,153)"/>
     </linearGradient>
    </defs>
    <path fill="url(#Gradient_307)" stroke="rgb(178,178,178)" id="Drawing_2_0" stroke-width="40" stroke-linejoin="round" d="M 2876,4334 L 3259,4113 2491,3670 2108,3891 2876,4334 Z"/>
   </g>
   <g>
    <path fill="rgb(102,102,102)" stroke="none" d="M 3251,4427 L 3071,4531 2876,4531 2876,4333 3251,4117 3251,4427 Z"/>
    <path fill="rgb(103,103,103)" stroke="none" d="M 3071,4531 L 2876,4643 2876,4531 3071,4531 Z M 3251,4117 L 3259,4112 3260,4422 3251,4427 3251,4117 Z M 3246,4430 L 3079,4526 2876,4526 2876,4333 3246,4120 3246,4430 Z"/>
    <path fill="rgb(104,104,104)" stroke="none" d="M 3079,4526 L 2876,4643 2876,4526 3079,4526 Z M 3246,4120 L 3259,4112 3260,4422 3246,4430 3246,4120 Z M 3241,4433 L 3088,4521 2876,4521 2876,4333 3241,4122 3241,4433 Z"/>
    <path fill="rgb(105,105,105)" stroke="none" d="M 3088,4521 L 2876,4643 2876,4521 3088,4521 Z M 3241,4122 L 3259,4112 3260,4422 3241,4433 3241,4122 Z M 3236,4436 L 3097,4516 2876,4516 2876,4333 3236,4125 3236,4436 Z"/>
    <path fill="rgb(106,106,106)" stroke="none" d="M 3097,4516 L 2876,4643 2876,4516 3097,4516 Z M 3236,4125 L 3259,4112 3260,4422 3236,4436 3236,4125 Z M 3230,4439 L 3107,4510 2876,4510 2876,4333 3230,4129 3230,4439 Z"/>
    <path fill="rgb(107,107,107)" stroke="none" d="M 3107,4510 L 2876,4643 2876,4510 3107,4510 Z M 3230,4129 L 3259,4112 3260,4422 3230,4439 3230,4129 Z M 3225,4442 L 3116,4505 2876,4505 2876,4333 3225,4132 3225,4442 Z"/>
    <path fill="rgb(108,108,108)" stroke="none" d="M 3116,4505 L 2876,4643 2876,4505 3116,4505 Z M 3225,4132 L 3259,4112 3260,4422 3225,4442 3225,4132 Z M 3220,4445 L 3124,4500 2876,4500 2876,4333 3220,4135 3220,4445 Z"/>
    <path fill="rgb(109,109,109)" stroke="none" d="M 3124,4500 L 2876,4643 2876,4500 3124,4500 Z M 3220,4135 L 3259,4112 3260,4422 3220,4445 3220,4135 Z M 3215,4448 L 3133,4495 2876,4495 2876,4333 3215,4137 3215,4448 Z"/>
    <path fill="rgb(110,110,110)" stroke="none" d="M 3133,4495 L 2876,4643 2876,4495 3133,4495 Z M 3215,4137 L 3259,4112 3260,4422 3215,4448 3215,4137 Z M 3209,4451 L 3144,4489 2876,4489 2876,4333 3209,4141 3209,4451 Z"/>
    <path fill="rgb(111,111,111)" stroke="none" d="M 3144,4489 L 2876,4643 2876,4489 3144,4489 Z M 3209,4141 L 3259,4112 3260,4422 3209,4451 3209,4141 Z M 3204,4454 L 3152,4484 2876,4484 2876,4333 3204,4144 3204,4454 Z"/>
    <path fill="rgb(112,112,112)" stroke="none" d="M 3152,4484 L 2876,4643 2876,4484 3152,4484 Z M 3204,4144 L 3259,4112 3260,4422 3204,4454 3204,4144 Z M 3199,4457 L 3161,4479 2876,4479 2876,4333 3199,4147 3199,4457 Z"/>
    <path fill="rgb(113,113,113)" stroke="none" d="M 3161,4479 L 2876,4643 2876,4479 3161,4479 Z M 3199,4147 L 3259,4112 3260,4422 3199,4457 3199,4147 Z M 3194,4460 L 3170,4474 2876,4474 2876,4333 3194,4150 3194,4460 Z"/>
    <path fill="rgb(114,114,114)" stroke="none" d="M 3170,4474 L 2876,4643 2876,4474 3170,4474 Z M 3194,4150 L 3259,4112 3260,4422 3194,4460 3194,4150 Z M 3188,4463 L 3180,4468 2876,4468 2876,4333 3188,4153 3188,4463 Z"/>
    <path fill="rgb(115,115,115)" stroke="none" d="M 3180,4468 L 2876,4643 2876,4468 3180,4468 Z M 3188,4153 L 3259,4112 3260,4422 3188,4463 3188,4153 Z M 3183,4463 L 2876,4463 2876,4333 3183,4156 3183,4463 Z"/>
    <path fill="rgb(116,116,116)" stroke="none" d="M 3183,4463 L 3183,4156 3259,4112 3260,4422 2876,4643 2876,4463 3183,4463 Z M 3178,4458 L 2876,4458 2876,4333 3178,4159 3178,4458 Z"/>
    <path fill="rgb(117,117,117)" stroke="none" d="M 3178,4458 L 3178,4159 3259,4112 3260,4422 2876,4643 2876,4458 3178,4458 Z M 3173,4453 L 2876,4453 2876,4333 3173,4162 3173,4453 Z"/>
    <path fill="rgb(118,118,118)" stroke="none" d="M 3173,4453 L 3173,4162 3259,4112 3260,4422 2876,4643 2876,4453 3173,4453 Z M 3167,4447 L 2876,4447 2876,4333 3167,4165 3167,4447 Z"/>
    <path fill="rgb(119,119,119)" stroke="none" d="M 3167,4447 L 3167,4165 3259,4112 3260,4422 2876,4643 2876,4447 3167,4447 Z M 3162,4442 L 2876,4442 2876,4333 3162,4168 3162,4442 Z"/>
    <path fill="rgb(120,120,120)" stroke="none" d="M 3162,4442 L 3162,4168 3259,4112 3260,4422 2876,4643 2876,4442 3162,4442 Z M 3157,4437 L 2876,4437 2876,4333 3157,4171 3157,4437 Z"/>
    <path fill="rgb(121,121,121)" stroke="none" d="M 3157,4437 L 3157,4171 3259,4112 3260,4422 2876,4643 2876,4437 3157,4437 Z M 3152,4432 L 2876,4432 2876,4333 3152,4174 3152,4432 Z"/>
    <path fill="rgb(122,122,122)" stroke="none" d="M 3152,4432 L 3152,4174 3259,4112 3260,4422 2876,4643 2876,4432 3152,4432 Z M 3147,4427 L 2876,4427 2876,4333 3147,4177 3147,4427 Z"/>
    <path fill="rgb(123,123,123)" stroke="none" d="M 3147,4427 L 3147,4177 3259,4112 3260,4422 2876,4643 2876,4427 3147,4427 Z M 3141,4421 L 2876,4421 2876,4333 3141,4180 3141,4421 Z"/>
    <path fill="rgb(124,124,124)" stroke="none" d="M 3141,4421 L 3141,4180 3259,4112 3260,4422 2876,4643 2876,4421 3141,4421 Z M 3136,4416 L 2876,4416 2876,4333 3136,4183 3136,4416 Z"/>
    <path fill="rgb(125,125,125)" stroke="none" d="M 3136,4416 L 3136,4183 3259,4112 3260,4422 2876,4643 2876,4416 3136,4416 Z M 3131,4411 L 2876,4411 2876,4333 3131,4186 3131,4411 Z"/>
    <path fill="rgb(126,126,126)" stroke="none" d="M 3131,4411 L 3131,4186 3259,4112 3260,4422 2876,4643 2876,4411 3131,4411 Z M 3126,4406 L 2876,4406 2876,4333 3126,4189 3126,4406 Z"/>
    <path fill="rgb(127,127,127)" stroke="none" d="M 3126,4406 L 3126,4189 3259,4112 3260,4422 2876,4643 2876,4406 3126,4406 Z M 3120,4400 L 2876,4400 2876,4333 3120,4192 3120,4400 Z"/>
    <path fill="rgb(128,128,128)" stroke="none" d="M 3120,4400 L 3120,4192 3259,4112 3260,4422 2876,4643 2876,4400 3120,4400 Z M 3115,4395 L 2876,4395 2876,4333 3115,4195 3115,4395 Z"/>
    <path fill="rgb(129,129,129)" stroke="none" d="M 3115,4395 L 3115,4195 3259,4112 3260,4422 2876,4643 2876,4395 3115,4395 Z M 3110,4390 L 2876,4390 2876,4333 3110,4198 3110,4390 Z"/>
    <path fill="rgb(130,130,130)" stroke="none" d="M 3110,4390 L 3110,4198 3259,4112 3260,4422 2876,4643 2876,4390 3110,4390 Z M 3105,4385 L 2876,4385 2876,4333 3105,4201 3105,4385 Z"/>
    <path fill="rgb(131,131,131)" stroke="none" d="M 3105,4385 L 3105,4201 3259,4112 3260,4422 2876,4643 2876,4385 3105,4385 Z M 3099,4379 L 2881,4379 2881,4330 3099,4204 3099,4379 Z"/>
    <path fill="rgb(132,132,132)" stroke="none" d="M 2881,4379 L 3099,4379 3099,4204 3259,4112 3260,4422 2876,4643 2876,4333 2881,4330 2881,4379 Z M 3094,4374 L 2886,4374 2886,4327 3094,4207 3094,4374 Z"/>
    <path fill="rgb(133,133,133)" stroke="none" d="M 2886,4374 L 3094,4374 3094,4207 3259,4112 3260,4422 2876,4643 2876,4333 2886,4327 2886,4374 Z M 3089,4369 L 2891,4369 2891,4324 3089,4210 3089,4369 Z"/>
    <path fill="rgb(134,134,134)" stroke="none" d="M 2891,4369 L 3089,4369 3089,4210 3259,4112 3260,4422 2876,4643 2876,4333 2891,4324 2891,4369 Z M 3084,4364 L 2896,4364 2896,4321 3084,4213 3084,4364 Z"/>
    <path fill="rgb(135,135,135)" stroke="none" d="M 2896,4364 L 3084,4364 3084,4213 3259,4112 3260,4422 2876,4643 2876,4333 2896,4321 2896,4364 Z M 3078,4358 L 2901,4358 2901,4319 3078,4216 3078,4358 Z"/>
    <path fill="rgb(136,136,136)" stroke="none" d="M 2901,4358 L 3078,4358 3078,4216 3259,4112 3260,4422 2876,4643 2876,4333 2901,4319 2901,4358 Z M 3073,4353 L 2907,4353 2907,4315 3073,4219 3073,4353 Z"/>
    <path fill="rgb(137,137,137)" stroke="none" d="M 2907,4353 L 3073,4353 3073,4219 3259,4112 3260,4422 2876,4643 2876,4333 2907,4315 2907,4353 Z M 3068,4348 L 2912,4348 2912,4312 3068,4222 3068,4348 Z"/>
    <path fill="rgb(138,138,138)" stroke="none" d="M 2912,4348 L 3068,4348 3068,4222 3259,4112 3260,4422 2876,4643 2876,4333 2912,4312 2912,4348 Z M 3063,4343 L 2917,4343 2917,4309 3063,4225 3063,4343 Z"/>
    <path fill="rgb(139,139,139)" stroke="none" d="M 2917,4343 L 3063,4343 3063,4225 3259,4112 3260,4422 2876,4643 2876,4333 2917,4309 2917,4343 Z M 3058,4338 L 2922,4338 2922,4306 3058,4228 3058,4338 Z"/>
    <path fill="rgb(140,140,140)" stroke="none" d="M 2922,4338 L 3058,4338 3058,4228 3259,4112 3260,4422 2876,4643 2876,4333 2922,4306 2922,4338 Z M 3052,4332 L 2928,4332 2928,4303 3052,4231 3052,4332 Z"/>
    <path fill="rgb(141,141,141)" stroke="none" d="M 2928,4332 L 3052,4332 3052,4231 3259,4112 3260,4422 2876,4643 2876,4333 2928,4303 2928,4332 Z M 3047,4327 L 2933,4327 2933,4300 3047,4234 3047,4327 Z"/>
    <path fill="rgb(142,142,142)" stroke="none" d="M 2933,4327 L 3047,4327 3047,4234 3259,4112 3260,4422 2876,4643 2876,4333 2933,4300 2933,4327 Z M 3042,4322 L 2938,4322 2938,4297 3042,4237 3042,4322 Z"/>
    <path fill="rgb(143,143,143)" stroke="none" d="M 2938,4322 L 3042,4322 3042,4237 3259,4112 3260,4422 2876,4643 2876,4333 2938,4297 2938,4322 Z M 3037,4317 L 2943,4317 2943,4294 3037,4240 3037,4317 Z"/>
    <path fill="rgb(144,144,144)" stroke="none" d="M 2943,4317 L 3037,4317 3037,4240 3259,4112 3260,4422 2876,4643 2876,4333 2943,4294 2943,4317 Z M 3031,4311 L 2949,4311 2949,4291 3031,4244 3031,4311 Z"/>
    <path fill="rgb(145,145,145)" stroke="none" d="M 2949,4311 L 3031,4311 3031,4244 3259,4112 3260,4422 2876,4643 2876,4333 2949,4291 2949,4311 Z M 3026,4306 L 2954,4306 2954,4288 3026,4246 3026,4306 Z"/>
    <path fill="rgb(146,146,146)" stroke="none" d="M 2954,4306 L 3026,4306 3026,4246 3259,4112 3260,4422 2876,4643 2876,4333 2954,4288 2954,4306 Z M 3021,4301 L 2959,4301 2959,4285 3021,4249 3021,4301 Z"/>
    <path fill="rgb(147,147,147)" stroke="none" d="M 2959,4301 L 3021,4301 3021,4249 3259,4112 3260,4422 2876,4643 2876,4333 2959,4285 2959,4301 Z M 3016,4296 L 2964,4296 2964,4282 3016,4252 3016,4296 Z"/>
    <path fill="rgb(148,148,148)" stroke="none" d="M 2964,4296 L 3016,4296 3016,4252 3259,4112 3260,4422 2876,4643 2876,4333 2964,4282 2964,4296 Z M 3010,4290 L 2970,4290 2970,4279 3010,4256 3010,4290 Z"/>
    <path fill="rgb(149,149,149)" stroke="none" d="M 2970,4290 L 3010,4290 3010,4256 3259,4112 3260,4422 2876,4643 2876,4333 2970,4279 2970,4290 Z M 3005,4285 L 2975,4285 2975,4276 3005,4259 3005,4285 Z"/>
    <path fill="rgb(150,150,150)" stroke="none" d="M 2975,4285 L 3005,4285 3005,4259 3259,4112 3260,4422 2876,4643 2876,4333 2975,4276 2975,4285 Z M 3000,4280 L 2980,4280 2980,4273 3000,4261 3000,4280 Z"/>
    <path fill="rgb(151,151,151)" stroke="none" d="M 2980,4280 L 3000,4280 3000,4261 3259,4112 3260,4422 2876,4643 2876,4333 2980,4273 2980,4280 Z M 2995,4265 L 2995,4275 2985,4275 2985,4270 2994,4265 2995,4265 Z"/>
    <path fill="rgb(153,153,153)" stroke="none" d="M 2985,4275 L 2995,4275 2995,4265 2994,4265 3259,4112 3260,4422 2876,4643 2876,4333 2985,4270 2985,4275 Z"/>
    <path fill="none" stroke="rgb(178,178,178)" id="Drawing_3_0" stroke-width="40" stroke-linejoin="round" d="M 3260,4422 L 3259,4112 2876,4333 2876,4643 3260,4422 Z"/>
   </g>
   <g>
    <path fill="rgb(179,179,179)" stroke="none" d="M 3380,4531 L 3286,4585 3184,4585 3183,4511 3380,4398 3380,4531 Z"/>
    <path fill="rgb(180,180,180)" stroke="none" d="M 3286,4585 L 3184,4644 3184,4585 3286,4585 Z M 3380,4398 L 3414,4378 3414,4511 3380,4531 3380,4398 Z M 3375,4534 L 3295,4580 3184,4580 3183,4511 3375,4400 3375,4534 Z"/>
    <path fill="rgb(182,182,182)" stroke="none" d="M 3295,4580 L 3184,4644 3184,4580 3295,4580 Z M 3375,4400 L 3414,4378 3414,4511 3375,4534 3375,4400 Z M 3370,4536 L 3303,4575 3183,4575 3183,4511 3370,4403 3370,4536 Z"/>
    <path fill="rgb(184,184,184)" stroke="none" d="M 3303,4575 L 3184,4644 3183,4575 3303,4575 Z M 3370,4403 L 3414,4378 3414,4511 3370,4536 3370,4403 Z M 3365,4539 L 3312,4570 3183,4570 3183,4511 3365,4406 3365,4539 Z"/>
    <path fill="rgb(186,186,186)" stroke="none" d="M 3312,4570 L 3184,4644 3183,4570 3312,4570 Z M 3365,4406 L 3414,4378 3414,4511 3365,4539 3365,4406 Z M 3360,4542 L 3321,4565 3183,4565 3183,4511 3360,4409 3360,4542 Z"/>
    <path fill="rgb(188,188,188)" stroke="none" d="M 3321,4565 L 3184,4644 3183,4565 3321,4565 Z M 3360,4409 L 3414,4378 3414,4511 3360,4542 3360,4409 Z M 3354,4546 L 3331,4559 3183,4559 3183,4511 3354,4413 3354,4546 Z"/>
    <path fill="rgb(190,190,190)" stroke="none" d="M 3331,4559 L 3184,4644 3183,4559 3331,4559 Z M 3354,4413 L 3414,4378 3414,4511 3354,4546 3354,4413 Z M 3349,4549 L 3340,4554 3183,4554 3183,4511 3349,4415 3349,4549 Z"/>
    <path fill="rgb(192,192,192)" stroke="none" d="M 3340,4554 L 3184,4644 3183,4554 3340,4554 Z M 3349,4415 L 3414,4378 3414,4511 3349,4549 3349,4415 Z M 3344,4549 L 3183,4549 3183,4511 3344,4418 3344,4549 Z"/>
    <path fill="rgb(194,194,194)" stroke="none" d="M 3344,4549 L 3344,4418 3414,4378 3414,4511 3184,4644 3183,4549 3344,4549 Z M 3339,4544 L 3183,4544 3183,4511 3339,4421 3339,4544 Z"/>
    <path fill="rgb(196,196,196)" stroke="none" d="M 3339,4544 L 3339,4421 3414,4378 3414,4511 3184,4644 3183,4544 3339,4544 Z M 3334,4539 L 3183,4539 3183,4511 3334,4424 3334,4539 Z"/>
    <path fill="rgb(198,198,198)" stroke="none" d="M 3334,4539 L 3334,4424 3414,4378 3414,4511 3184,4644 3183,4539 3334,4539 Z M 3329,4534 L 3183,4534 3183,4511 3329,4427 3329,4534 Z"/>
    <path fill="rgb(200,200,200)" stroke="none" d="M 3329,4534 L 3329,4427 3414,4378 3414,4511 3184,4644 3183,4534 3329,4534 Z M 3323,4528 L 3183,4528 3183,4511 3323,4430 3323,4528 Z"/>
    <path fill="rgb(202,202,202)" stroke="none" d="M 3323,4528 L 3323,4430 3414,4378 3414,4511 3184,4644 3183,4528 3323,4528 Z M 3318,4523 L 3185,4523 3185,4510 3318,4433 3318,4523 Z"/>
    <path fill="rgb(204,204,204)" stroke="none" d="M 3185,4523 L 3318,4523 3318,4433 3414,4378 3414,4511 3184,4644 3183,4511 3185,4510 3185,4523 Z M 3313,4518 L 3190,4518 3190,4507 3313,4436 3313,4518 Z"/>
    <path fill="rgb(205,205,205)" stroke="none" d="M 3190,4518 L 3313,4518 3313,4436 3414,4378 3414,4511 3184,4644 3183,4511 3190,4507 3190,4518 Z M 3308,4513 L 3195,4513 3195,4504 3308,4439 3308,4513 Z"/>
    <path fill="rgb(207,207,207)" stroke="none" d="M 3195,4513 L 3308,4513 3308,4439 3414,4378 3414,4511 3184,4644 3183,4511 3195,4504 3195,4513 Z M 3303,4508 L 3200,4508 3200,4501 3303,4442 3303,4508 Z"/>
    <path fill="rgb(209,209,209)" stroke="none" d="M 3200,4508 L 3303,4508 3303,4442 3414,4378 3414,4511 3184,4644 3183,4511 3200,4501 3200,4508 Z M 3298,4503 L 3205,4503 3205,4498 3298,4445 3298,4503 Z"/>
    <path fill="rgb(211,211,211)" stroke="none" d="M 3205,4503 L 3298,4503 3298,4445 3414,4378 3414,4511 3184,4644 3183,4511 3205,4498 3205,4503 Z M 3292,4497 L 3211,4497 3211,4495 3292,4448 3292,4497 Z"/>
    <path fill="rgb(213,213,213)" stroke="none" d="M 3211,4497 L 3292,4497 3292,4448 3414,4378 3414,4511 3184,4644 3183,4511 3211,4495 3211,4497 Z M 3287,4492 L 3216,4492 3287,4451 3287,4492 Z"/>
    <path fill="rgb(215,215,215)" stroke="none" d="M 3287,4492 L 3287,4451 3414,4378 3414,4511 3184,4644 3183,4511 3216,4492 3287,4492 Z M 3282,4487 L 3225,4487 3282,4454 3282,4487 Z"/>
    <path fill="rgb(217,217,217)" stroke="none" d="M 3282,4487 L 3282,4454 3414,4378 3414,4511 3184,4644 3183,4511 3225,4487 3282,4487 Z M 3277,4482 L 3233,4482 3277,4457 3277,4482 Z"/>
    <path fill="rgb(219,219,219)" stroke="none" d="M 3277,4482 L 3277,4457 3414,4378 3414,4511 3184,4644 3183,4511 3233,4482 3277,4482 Z M 3272,4477 L 3242,4477 3272,4460 3272,4477 Z"/>
    <path fill="rgb(221,221,221)" stroke="none" d="M 3272,4477 L 3272,4460 3414,4378 3414,4511 3184,4644 3183,4511 3242,4477 3272,4477 Z M 3267,4472 L 3251,4472 3267,4463 3267,4472 Z"/>
    <path fill="rgb(223,223,223)" stroke="none" d="M 3267,4472 L 3267,4463 3414,4378 3414,4511 3184,4644 3183,4511 3251,4472 3267,4472 Z"/>
    <path fill="rgb(225,225,225)" stroke="none" d="M 3414,4511 L 3184,4644 3183,4511 3414,4378 3414,4511 Z"/>
    <path fill="rgb(229,229,229)" stroke="none" d="M 3414,4511 L 3184,4644 3183,4511 3414,4378 3414,4511 Z"/>
    <path fill="none" stroke="rgb(255,255,255)" id="Drawing_4_0" stroke-width="40" stroke-linejoin="round" d="M 3414,4511 L 3414,4378 3183,4511 3184,4644 3414,4511 Z"/>
   </g>
   <g>
    <defs>
     <linearGradient id="Gradient_308" gradientUnits="userSpaceOnUse" x1="2952" y1="4511" x2="3184" y2="4511">
      <stop offset="0.1" stop-color="rgb(179,179,179)"/>
      <stop offset="1" stop-color="rgb(229,229,229)"/>
     </linearGradient>
    </defs>
    <path fill="url(#Gradient_308)" stroke="rgb(255,255,255)" id="Drawing_5_0" stroke-width="40" stroke-linejoin="round" d="M 3184,4644 L 3184,4511 2952,4378 2954,4511 3184,4644 Z"/>
   </g>
   <g>
    <defs>
     <linearGradient id="Gradient_309" gradientUnits="userSpaceOnUse" x1="3184" y1="4245" x2="3184" y2="4511">
      <stop offset="0.1" stop-color="rgb(179,179,179)"/>
      <stop offset="1" stop-color="rgb(229,229,229)"/>
     </linearGradient>
    </defs>
    <path fill="url(#Gradient_309)" stroke="rgb(255,255,255)" id="Drawing_6_0" stroke-width="40" stroke-linejoin="round" d="M 3184,4511 L 3414,4378 3184,4245 2954,4378 3184,4511 Z"/>
   </g>
   <g>
    <path fill="none" stroke="rgb(0,0,0)" id="Drawing_7_0" stroke-width="40" stroke-linejoin="round" d="M 3030,4556 L 3184,4644 3414,4511 3414,4379 3260,4290 3260,4113 2491,3670 2110,3891 2108,4201 2877,4644 3030,4556 Z"/>
   </g>
  </g>
 </g>
</svg>