<?xml version="1.0" encoding="UTF-8"?>

<svg version="1.2" baseProfile="tiny" width="13.45mm" height="10.14mm" viewBox="6096 11094 1345 1014" preserveAspectRatio="xMidYMid" fill-rule="evenodd" stroke-width="28.222" stroke-linejoin="round" xmlns="http://www.w3.org/2000/svg" xmlns:xlink="http://www.w3.org/1999/xlink" xml:space="preserve">
 <g visibility="visible" id="Slide_1">
  <g id="DrawingGroup_1">
   <g>
    <defs>
     <linearGradient id="Gradient_8" gradientUnits="userSpaceOnUse" x1="6116" y1="11822" x2="6500" y2="11822">
      <stop offset="0.1" stop-color="rgb(51,51,51)"/>
      <stop offset="1" stop-color="rgb(153,153,153)"/>
     </linearGradient>
    </defs>
    <path fill="url(#Gradient_8)" stroke="rgb(178,178,178)" id="Drawing_1_0" stroke-width="40" stroke-linejoin="round" d="M 6116,11867 L 6117,11557 6500,11778 6500,12088 6116,11867 Z"/>
   </g>
   <g>
    <defs>
     <linearGradient id="Gradient_9" gradientUnits="userSpaceOnUse" x1="6957" y1="11380" x2="7188" y2="11380">
      <stop offset="0.1" stop-color="rgb(179,179,179)"/>
      <stop offset="1" stop-color="rgb(229,229,229)"/>
     </linearGradient>
    </defs>
    <path fill="url(#Gradient_9)" stroke="rgb(255,255,255)" id="Drawing_2_0" stroke-width="40" stroke-linejoin="round" d="M 6958,11380 L 6958,11247 7189,11380 7188,11513 6958,11380 Z"/>
   </g>
   <g>
    <path fill="rgb(179,179,179)" stroke="none" d="M 7386,11399 L 7291,11454 7189,11454 7189,11380 7386,11267 7386,11399 Z"/>
    <path fill="rgb(180,180,180)" stroke="none" d="M 7291,11454 L 7189,11513 7189,11454 7291,11454 Z M 7386,11267 L 7421,11247 7419,11380 7386,11399 7386,11267 Z M 7381,11402 L 7300,11449 7189,11449 7189,11380 7381,11270 7381,11402 Z"/>
    <path fill="rgb(182,182,182)" stroke="none" d="M 7300,11449 L 7189,11513 7189,11449 7300,11449 Z M 7381,11270 L 7421,11247 7419,11380 7381,11402 7381,11270 Z M 7376,11405 L 7308,11444 7189,11444 7189,11380 7376,11273 7376,11405 Z"/>
    <path fill="rgb(184,184,184)" stroke="none" d="M 7308,11444 L 7189,11513 7189,11444 7308,11444 Z M 7376,11273 L 7421,11247 7419,11380 7376,11405 7376,11273 Z M 7371,11408 L 7317,11439 7189,11439 7189,11380 7371,11276 7371,11408 Z"/>
    <path fill="rgb(186,186,186)" stroke="none" d="M 7317,11439 L 7189,11513 7189,11439 7317,11439 Z M 7371,11276 L 7421,11247 7419,11380 7371,11408 7371,11276 Z M 7366,11411 L 7326,11434 7189,11434 7189,11380 7366,11279 7366,11411 Z"/>
    <path fill="rgb(188,188,188)" stroke="none" d="M 7326,11434 L 7189,11513 7189,11434 7326,11434 Z M 7366,11279 L 7421,11247 7419,11380 7366,11411 7366,11279 Z M 7360,11414 L 7336,11428 7189,11428 7189,11380 7360,11282 7360,11414 Z"/>
    <path fill="rgb(190,190,190)" stroke="none" d="M 7336,11428 L 7189,11513 7189,11428 7336,11428 Z M 7360,11282 L 7421,11247 7419,11380 7360,11414 7360,11282 Z M 7355,11417 L 7345,11423 7189,11423 7189,11380 7355,11285 7355,11417 Z"/>
    <path fill="rgb(192,192,192)" stroke="none" d="M 7345,11423 L 7189,11513 7189,11423 7345,11423 Z M 7355,11285 L 7421,11247 7419,11380 7355,11417 7355,11285 Z M 7350,11418 L 7189,11418 7189,11380 7350,11288 7350,11418 Z"/>
    <path fill="rgb(194,194,194)" stroke="none" d="M 7350,11418 L 7350,11288 7421,11247 7419,11380 7189,11513 7189,11418 7350,11418 Z M 7345,11413 L 7189,11413 7189,11380 7345,11291 7345,11413 Z"/>
    <path fill="rgb(196,196,196)" stroke="none" d="M 7345,11413 L 7345,11291 7421,11247 7419,11380 7189,11513 7189,11413 7345,11413 Z M 7340,11408 L 7189,11408 7189,11380 7340,11293 7340,11408 Z"/>
    <path fill="rgb(198,198,198)" stroke="none" d="M 7340,11408 L 7340,11293 7421,11247 7419,11380 7189,11513 7189,11408 7340,11408 Z M 7335,11403 L 7189,11403 7189,11380 7335,11296 7335,11403 Z"/>
    <path fill="rgb(200,200,200)" stroke="none" d="M 7335,11403 L 7335,11296 7421,11247 7419,11380 7189,11513 7189,11403 7335,11403 Z M 7329,11397 L 7189,11397 7189,11380 7329,11300 7329,11397 Z"/>
    <path fill="rgb(202,202,202)" stroke="none" d="M 7329,11397 L 7329,11300 7421,11247 7419,11380 7189,11513 7189,11397 7329,11397 Z M 7324,11392 L 7191,11392 7191,11379 7324,11303 7324,11392 Z"/>
    <path fill="rgb(204,204,204)" stroke="none" d="M 7191,11392 L 7324,11392 7324,11303 7421,11247 7419,11380 7189,11513 7189,11380 7191,11379 7191,11392 Z M 7319,11387 L 7196,11387 7196,11376 7319,11305 7319,11387 Z"/>
    <path fill="rgb(205,205,205)" stroke="none" d="M 7196,11387 L 7319,11387 7319,11305 7421,11247 7419,11380 7189,11513 7189,11380 7196,11376 7196,11387 Z M 7314,11382 L 7201,11382 7201,11373 7314,11308 7314,11382 Z"/>
    <path fill="rgb(207,207,207)" stroke="none" d="M 7201,11382 L 7314,11382 7314,11308 7421,11247 7419,11380 7189,11513 7189,11380 7201,11373 7201,11382 Z M 7309,11377 L 7206,11377 7206,11370 7309,11311 7309,11377 Z"/>
    <path fill="rgb(209,209,209)" stroke="none" d="M 7206,11377 L 7309,11377 7309,11311 7421,11247 7419,11380 7189,11513 7189,11380 7206,11370 7206,11377 Z M 7304,11372 L 7211,11372 7211,11367 7304,11314 7304,11372 Z"/>
    <path fill="rgb(211,211,211)" stroke="none" d="M 7211,11372 L 7304,11372 7304,11314 7421,11247 7419,11380 7189,11513 7189,11380 7211,11367 7211,11372 Z M 7298,11366 L 7217,11366 7217,11364 7298,11318 7298,11366 Z"/>
    <path fill="rgb(213,213,213)" stroke="none" d="M 7217,11366 L 7298,11366 7298,11318 7421,11247 7419,11380 7189,11513 7189,11380 7217,11364 7217,11366 Z M 7293,11361 L 7222,11361 7293,11320 7293,11361 Z"/>
    <path fill="rgb(215,215,215)" stroke="none" d="M 7293,11361 L 7293,11320 7421,11247 7419,11380 7189,11513 7189,11380 7222,11361 7293,11361 Z M 7288,11356 L 7231,11356 7288,11323 7288,11356 Z"/>
    <path fill="rgb(217,217,217)" stroke="none" d="M 7288,11356 L 7288,11323 7421,11247 7419,11380 7189,11513 7189,11380 7231,11356 7288,11356 Z M 7283,11351 L 7240,11351 7283,11326 7283,11351 Z"/>
    <path fill="rgb(219,219,219)" stroke="none" d="M 7283,11351 L 7283,11326 7421,11247 7419,11380 7189,11513 7189,11380 7240,11351 7283,11351 Z M 7278,11346 L 7248,11346 7278,11329 7278,11346 Z"/>
    <path fill="rgb(221,221,221)" stroke="none" d="M 7278,11346 L 7278,11329 7421,11247 7419,11380 7189,11513 7189,11380 7248,11346 7278,11346 Z M 7273,11341 L 7257,11341 7273,11332 7273,11341 Z"/>
    <path fill="rgb(223,223,223)" stroke="none" d="M 7273,11341 L 7273,11332 7421,11247 7419,11380 7189,11513 7189,11380 7257,11341 7273,11341 Z"/>
    <path fill="rgb(225,225,225)" stroke="none" d="M 7189,11513 L 7189,11380 7421,11247 7419,11380 7189,11513 Z"/>
    <path fill="rgb(229,229,229)" stroke="none" d="M 7189,11513 L 7189,11380 7421,11247 7419,11380 7189,11513 Z"/>
    <path fill="none" stroke="rgb(255,255,255)" id="Drawing_3_0" stroke-width="40" stroke-linejoin="round" d="M 7189,11513 L 7189,11380 7421,11247 7419,11380 7189,11513 Z"/>
   </g>
   <g>
    <defs>
     <linearGradient id="Gradient_10" gradientUnits="userSpaceOnUse" x1="7189" y1="11114" x2="7189" y2="11380">
      <stop offset="0.1" stop-color="rgb(179,179,179)"/>
      <stop offset="1" stop-color="rgb(229,229,229)"/>
     </linearGradient>
    </defs>
    <path fill="url(#Gradient_10)" stroke="rgb(255,255,255)" id="Drawing_4_0" stroke-width="40" stroke-linejoin="round" d="M 7189,11380 L 6959,11247 7189,11114 7419,11247 7189,11380 Z"/>
   </g>
   <g>
    <defs>
     <linearGradient id="Gradient_11" gradientUnits="userSpaceOnUse" x1="6692" y1="11114" x2="6692" y2="11778">
      <stop offset="0.1" stop-color="rgb(51,51,51)"/>
      <stop offset="1" stop-color="rgb(153,153,153)"/>
     </linearGradient>
    </defs>
    <path fill="url(#Gradient_11)" stroke="rgb(178,178,178)" id="Drawing_5_0" stroke-width="40" stroke-linejoin="round" d="M 6500,11778 L 6117,11557 6885,11114 7268,11335 6500,11778 Z"/>
   </g>
   <g>
    <path fill="rgb(51,51,51)" stroke="none" d="M 7110,11736 L 6754,11941 6498,11941 6498,11778 7110,11427 7110,11736 Z"/>
    <path fill="rgb(52,52,52)" stroke="none" d="M 6754,11941 L 6498,12088 6498,11941 6754,11941 Z M 7110,11427 L 7270,11335 7268,11645 7110,11736 7110,11427 Z M 7105,11739 L 6762,11936 6498,11936 6498,11778 7105,11430 7105,11739 Z"/>
    <path fill="rgb(53,53,53)" stroke="none" d="M 6762,11936 L 6498,12088 6498,11936 6762,11936 Z M 7105,11430 L 7270,11335 7268,11645 7105,11739 7105,11430 Z M 7100,11742 L 6771,11931 6498,11931 6498,11778 7100,11433 7100,11742 Z"/>
    <path fill="rgb(54,54,54)" stroke="none" d="M 6771,11931 L 6498,12088 6498,11931 6771,11931 Z M 7100,11433 L 7270,11335 7268,11645 7100,11742 7100,11433 Z M 7095,11745 L 6780,11926 6498,11926 6498,11778 7095,11435 7095,11745 Z"/>
    <path fill="rgb(56,56,56)" stroke="none" d="M 6780,11926 L 6498,12088 6498,11926 6780,11926 Z M 7095,11435 L 7270,11335 7268,11645 7095,11745 7095,11435 Z M 7090,11747 L 6788,11921 6498,11921 6498,11778 7090,11438 7090,11747 Z"/>
    <path fill="rgb(57,57,57)" stroke="none" d="M 6788,11921 L 6498,12088 6498,11921 6788,11921 Z M 7090,11438 L 7270,11335 7268,11645 7090,11747 7090,11438 Z M 7085,11750 L 6797,11916 6498,11916 6498,11778 7085,11441 7085,11750 Z"/>
    <path fill="rgb(58,58,58)" stroke="none" d="M 6797,11916 L 6498,12088 6498,11916 6797,11916 Z M 7085,11441 L 7270,11335 7268,11645 7085,11750 7085,11441 Z M 7080,11753 L 6806,11911 6498,11911 6498,11778 7080,11444 7080,11753 Z"/>
    <path fill="rgb(60,60,60)" stroke="none" d="M 6806,11911 L 6498,12088 6498,11911 6806,11911 Z M 7080,11444 L 7270,11335 7268,11645 7080,11753 7080,11444 Z M 7075,11756 L 6814,11906 6498,11906 6498,11778 7075,11447 7075,11756 Z"/>
    <path fill="rgb(61,61,61)" stroke="none" d="M 6814,11906 L 6498,12088 6498,11906 6814,11906 Z M 7075,11447 L 7270,11335 7268,11645 7075,11756 7075,11447 Z M 7070,11759 L 6823,11901 6498,11901 6498,11778 7070,11450 7070,11759 Z"/>
    <path fill="rgb(62,62,62)" stroke="none" d="M 6823,11901 L 6498,12088 6498,11901 6823,11901 Z M 7070,11450 L 7270,11335 7268,11645 7070,11759 7070,11450 Z M 7065,11762 L 6832,11896 6498,11896 6498,11778 7065,11453 7065,11762 Z"/>
    <path fill="rgb(64,64,64)" stroke="none" d="M 6832,11896 L 6498,12088 6498,11896 6832,11896 Z M 7065,11453 L 7270,11335 7268,11645 7065,11762 7065,11453 Z M 7060,11765 L 6840,11891 6498,11891 6498,11778 7060,11456 7060,11765 Z"/>
    <path fill="rgb(65,65,65)" stroke="none" d="M 6840,11891 L 6498,12088 6498,11891 6840,11891 Z M 7060,11456 L 7270,11335 7268,11645 7060,11765 7060,11456 Z M 7055,11768 L 6849,11886 6498,11886 6498,11778 7055,11458 7055,11768 Z"/>
    <path fill="rgb(66,66,66)" stroke="none" d="M 6849,11886 L 6498,12088 6498,11886 6849,11886 Z M 7055,11458 L 7270,11335 7268,11645 7055,11768 7055,11458 Z M 7050,11770 L 6858,11881 6498,11881 6498,11778 7050,11461 7050,11770 Z"/>
    <path fill="rgb(68,68,68)" stroke="none" d="M 6858,11881 L 6498,12088 6498,11881 6858,11881 Z M 7050,11461 L 7270,11335 7268,11645 7050,11770 7050,11461 Z M 7045,11773 L 6866,11876 6498,11876 6498,11778 7045,11464 7045,11773 Z"/>
    <path fill="rgb(69,69,69)" stroke="none" d="M 6866,11876 L 6498,12088 6498,11876 6866,11876 Z M 7045,11464 L 7270,11335 7268,11645 7045,11773 7045,11464 Z M 7040,11776 L 6875,11871 6498,11871 6498,11778 7040,11467 7040,11776 Z"/>
    <path fill="rgb(70,70,70)" stroke="none" d="M 6875,11871 L 6498,12088 6498,11871 6875,11871 Z M 7040,11467 L 7270,11335 7268,11645 7040,11776 7040,11467 Z M 7035,11779 L 6884,11866 6498,11866 6498,11778 7035,11470 7035,11779 Z"/>
    <path fill="rgb(72,72,72)" stroke="none" d="M 6884,11866 L 6498,12088 6498,11866 6884,11866 Z M 7035,11470 L 7270,11335 7268,11645 7035,11779 7035,11470 Z M 7030,11782 L 6893,11861 6498,11861 6498,11778 7030,11473 7030,11782 Z"/>
    <path fill="rgb(73,73,73)" stroke="none" d="M 6893,11861 L 6498,12088 6498,11861 6893,11861 Z M 7030,11473 L 7270,11335 7268,11645 7030,11782 7030,11473 Z M 7025,11785 L 6901,11856 6498,11856 6498,11778 7025,11476 7025,11785 Z"/>
    <path fill="rgb(74,74,74)" stroke="none" d="M 6901,11856 L 6498,12088 6498,11856 6901,11856 Z M 7025,11476 L 7270,11335 7268,11645 7025,11785 7025,11476 Z M 7020,11788 L 6910,11851 6498,11851 6498,11778 7020,11478 7020,11788 Z"/>
    <path fill="rgb(76,76,76)" stroke="none" d="M 6910,11851 L 6498,12088 6498,11851 6910,11851 Z M 7020,11478 L 7270,11335 7268,11645 7020,11788 7020,11478 Z M 7015,11791 L 6919,11846 6498,11846 6498,11778 7015,11481 7015,11791 Z"/>
    <path fill="rgb(77,77,77)" stroke="none" d="M 6919,11846 L 6498,12088 6498,11846 6919,11846 Z M 7015,11481 L 7270,11335 7268,11645 7015,11791 7015,11481 Z M 7010,11793 L 6927,11841 6498,11841 6498,11778 7010,11484 7010,11793 Z"/>
    <path fill="rgb(78,78,78)" stroke="none" d="M 6927,11841 L 6498,12088 6498,11841 6927,11841 Z M 7010,11484 L 7270,11335 7268,11645 7010,11793 7010,11484 Z M 7005,11796 L 6936,11836 6498,11836 6498,11778 7005,11487 7005,11796 Z"/>
    <path fill="rgb(80,80,80)" stroke="none" d="M 6936,11836 L 6498,12088 6498,11836 6936,11836 Z M 7005,11487 L 7270,11335 7268,11645 7005,11796 7005,11487 Z M 7000,11799 L 6945,11831 6498,11831 6498,11778 7000,11490 7000,11799 Z"/>
    <path fill="rgb(81,81,81)" stroke="none" d="M 6945,11831 L 6498,12088 6498,11831 6945,11831 Z M 7000,11490 L 7270,11335 7268,11645 7000,11799 7000,11490 Z M 6995,11802 L 6953,11826 6498,11826 6498,11778 6995,11493 6995,11802 Z"/>
    <path fill="rgb(82,82,82)" stroke="none" d="M 6953,11826 L 6498,12088 6498,11826 6953,11826 Z M 6995,11493 L 7270,11335 7268,11645 6995,11802 6995,11493 Z M 6990,11805 L 6962,11821 6498,11821 6498,11778 6990,11496 6990,11805 Z"/>
    <path fill="rgb(84,84,84)" stroke="none" d="M 6962,11821 L 6498,12088 6498,11821 6962,11821 Z M 6990,11496 L 7270,11335 7268,11645 6990,11805 6990,11496 Z M 6985,11808 L 6971,11816 6498,11816 6498,11778 6985,11499 6985,11808 Z"/>
    <path fill="rgb(85,85,85)" stroke="none" d="M 6971,11816 L 6498,12088 6498,11816 6971,11816 Z M 6985,11499 L 7270,11335 7268,11645 6985,11808 6985,11499 Z M 6980,11811 L 6979,11811 6498,11811 6498,11778 6980,11501 6980,11811 Z"/>
    <path fill="rgb(86,86,86)" stroke="none" d="M 6979,11811 L 6498,12088 6498,11811 6979,11811 Z M 6980,11501 L 7270,11335 7268,11645 6980,11811 6980,11501 Z M 6975,11806 L 6498,11806 6498,11778 6975,11504 6975,11806 Z"/>
    <path fill="rgb(88,88,88)" stroke="none" d="M 6975,11806 L 6975,11504 7270,11335 7268,11645 6498,12088 6498,11806 6975,11806 Z M 6970,11801 L 6498,11801 6498,11778 6970,11507 6970,11801 Z"/>
    <path fill="rgb(89,89,89)" stroke="none" d="M 6970,11801 L 6970,11507 7270,11335 7268,11645 6498,12088 6498,11801 6970,11801 Z M 6965,11796 L 6498,11796 6498,11778 6965,11510 6965,11796 Z"/>
    <path fill="rgb(90,90,90)" stroke="none" d="M 6965,11796 L 6965,11510 7270,11335 7268,11645 6498,12088 6498,11796 6965,11796 Z M 6959,11790 L 6498,11790 6498,11778 6959,11513 6959,11790 Z"/>
    <path fill="rgb(92,92,92)" stroke="none" d="M 6959,11790 L 6959,11513 7270,11335 7268,11645 6498,12088 6498,11790 6959,11790 Z M 6954,11785 L 6503,11785 6503,11775 6954,11516 6954,11785 Z"/>
    <path fill="rgb(93,93,93)" stroke="none" d="M 6503,11785 L 6954,11785 6954,11516 7270,11335 7268,11645 6498,12088 6498,11778 6503,11775 6503,11785 Z M 6949,11780 L 6508,11780 6508,11772 6949,11519 6949,11780 Z"/>
    <path fill="rgb(94,94,94)" stroke="none" d="M 6508,11780 L 6949,11780 6949,11519 7270,11335 7268,11645 6498,12088 6498,11778 6508,11772 6508,11780 Z M 6944,11775 L 6513,11775 6513,11769 6944,11522 6944,11775 Z"/>
    <path fill="rgb(96,96,96)" stroke="none" d="M 6513,11775 L 6944,11775 6944,11522 7270,11335 7268,11645 6498,12088 6498,11778 6513,11769 6513,11775 Z M 6939,11770 L 6518,11770 6518,11767 6939,11525 6939,11770 Z"/>
    <path fill="rgb(97,97,97)" stroke="none" d="M 6518,11770 L 6939,11770 6939,11525 7270,11335 7268,11645 6498,12088 6498,11778 6518,11767 6518,11770 Z M 6934,11765 L 6523,11765 6523,11764 6934,11528 6934,11765 Z"/>
    <path fill="rgb(98,98,98)" stroke="none" d="M 6523,11765 L 6934,11765 6934,11528 7270,11335 7268,11645 6498,12088 6498,11778 6523,11764 6523,11765 Z M 6929,11760 L 6529,11760 6929,11531 6929,11760 Z"/>
    <path fill="rgb(100,100,100)" stroke="none" d="M 6929,11760 L 6929,11531 7270,11335 7268,11645 6498,12088 6498,11778 6529,11760 6929,11760 Z M 6924,11755 L 6538,11755 6924,11534 6924,11755 Z"/>
    <path fill="rgb(101,101,101)" stroke="none" d="M 6924,11755 L 6924,11534 7270,11335 7268,11645 6498,12088 6498,11778 6538,11755 6924,11755 Z M 6919,11750 L 6547,11750 6919,11536 6919,11750 Z"/>
    <path fill="rgb(102,102,102)" stroke="none" d="M 6919,11750 L 6919,11536 7270,11335 7268,11645 6498,12088 6498,11778 6547,11750 6919,11750 Z M 6914,11745 L 6556,11745 6914,11539 6914,11745 Z"/>
    <path fill="rgb(103,103,103)" stroke="none" d="M 6914,11745 L 6914,11539 7270,11335 7268,11645 6498,12088 6498,11778 6556,11745 6914,11745 Z M 6909,11740 L 6564,11740 6909,11542 6909,11740 Z"/>
    <path fill="rgb(105,105,105)" stroke="none" d="M 6909,11740 L 6909,11542 7270,11335 7268,11645 6498,12088 6498,11778 6564,11740 6909,11740 Z M 6904,11735 L 6573,11735 6904,11545 6904,11735 Z"/>
    <path fill="rgb(106,106,106)" stroke="none" d="M 6904,11735 L 6904,11545 7270,11335 7268,11645 6498,12088 6498,11778 6573,11735 6904,11735 Z M 6899,11730 L 6582,11730 6899,11548 6899,11730 Z"/>
    <path fill="rgb(107,107,107)" stroke="none" d="M 6899,11730 L 6899,11548 7270,11335 7268,11645 6498,12088 6498,11778 6582,11730 6899,11730 Z M 6894,11725 L 6590,11725 6894,11551 6894,11725 Z"/>
    <path fill="rgb(109,109,109)" stroke="none" d="M 6894,11725 L 6894,11551 7270,11335 7268,11645 6498,12088 6498,11778 6590,11725 6894,11725 Z M 6889,11720 L 6599,11720 6889,11554 6889,11720 Z"/>
    <path fill="rgb(110,110,110)" stroke="none" d="M 6889,11720 L 6889,11554 7270,11335 7268,11645 6498,12088 6498,11778 6599,11720 6889,11720 Z M 6884,11715 L 6608,11715 6884,11557 6884,11715 Z"/>
    <path fill="rgb(111,111,111)" stroke="none" d="M 6884,11715 L 6884,11557 7270,11335 7268,11645 6498,12088 6498,11778 6608,11715 6884,11715 Z M 6879,11710 L 6617,11710 6879,11559 6879,11710 Z"/>
    <path fill="rgb(113,113,113)" stroke="none" d="M 6879,11710 L 6879,11559 7270,11335 7268,11645 6498,12088 6498,11778 6617,11710 6879,11710 Z M 6874,11705 L 6625,11705 6874,11562 6874,11705 Z"/>
    <path fill="rgb(114,114,114)" stroke="none" d="M 6874,11705 L 6874,11562 7270,11335 7268,11645 6498,12088 6498,11778 6625,11705 6874,11705 Z M 6869,11700 L 6634,11700 6869,11565 6869,11700 Z"/>
    <path fill="rgb(115,115,115)" stroke="none" d="M 6869,11700 L 6869,11565 7270,11335 7268,11645 6498,12088 6498,11778 6634,11700 6869,11700 Z M 6864,11695 L 6643,11695 6864,11568 6864,11695 Z"/>
    <path fill="rgb(117,117,117)" stroke="none" d="M 6864,11695 L 6864,11568 7270,11335 7268,11645 6498,12088 6498,11778 6643,11695 6864,11695 Z M 6859,11690 L 6651,11690 6859,11571 6859,11690 Z"/>
    <path fill="rgb(118,118,118)" stroke="none" d="M 6859,11690 L 6859,11571 7270,11335 7268,11645 6498,12088 6498,11778 6651,11690 6859,11690 Z M 6854,11685 L 6660,11685 6854,11574 6854,11685 Z"/>
    <path fill="rgb(119,119,119)" stroke="none" d="M 6854,11685 L 6854,11574 7270,11335 7268,11645 6498,12088 6498,11778 6660,11685 6854,11685 Z M 6849,11680 L 6669,11680 6849,11577 6849,11680 Z"/>
    <path fill="rgb(121,121,121)" stroke="none" d="M 6849,11680 L 6849,11577 7270,11335 7268,11645 6498,12088 6498,11778 6669,11680 6849,11680 Z M 6844,11675 L 6677,11675 6844,11579 6844,11675 Z"/>
    <path fill="rgb(122,122,122)" stroke="none" d="M 6844,11675 L 6844,11579 7270,11335 7268,11645 6498,12088 6498,11778 6677,11675 6844,11675 Z M 6839,11670 L 6686,11670 6839,11582 6839,11670 Z"/>
    <path fill="rgb(123,123,123)" stroke="none" d="M 6839,11670 L 6839,11582 7270,11335 7268,11645 6498,12088 6498,11778 6686,11670 6839,11670 Z M 6834,11665 L 6695,11665 6834,11585 6834,11665 Z"/>
    <path fill="rgb(125,125,125)" stroke="none" d="M 6834,11665 L 6834,11585 7270,11335 7268,11645 6498,12088 6498,11778 6695,11665 6834,11665 Z M 6829,11660 L 6704,11660 6829,11588 6829,11660 Z"/>
    <path fill="rgb(126,126,126)" stroke="none" d="M 6829,11660 L 6829,11588 7270,11335 7268,11645 6498,12088 6498,11778 6704,11660 6829,11660 Z M 6824,11655 L 6712,11655 6824,11591 6824,11655 Z"/>
    <path fill="rgb(127,127,127)" stroke="none" d="M 6824,11655 L 6824,11591 7270,11335 7268,11645 6498,12088 6498,11778 6712,11655 6824,11655 Z M 6819,11650 L 6721,11650 6819,11594 6819,11650 Z"/>
    <path fill="rgb(129,129,129)" stroke="none" d="M 6819,11650 L 6819,11594 7270,11335 7268,11645 6498,12088 6498,11778 6721,11650 6819,11650 Z M 6814,11645 L 6730,11645 6814,11597 6814,11645 Z"/>
    <path fill="rgb(130,130,130)" stroke="none" d="M 6814,11645 L 6814,11597 7270,11335 7268,11645 6498,12088 6498,11778 6730,11645 6814,11645 Z M 6809,11640 L 6738,11640 6809,11600 6809,11640 Z"/>
    <path fill="rgb(131,131,131)" stroke="none" d="M 6809,11640 L 6809,11600 7270,11335 7268,11645 6498,12088 6498,11778 6738,11640 6809,11640 Z M 6803,11634 L 6749,11634 6803,11603 6803,11634 Z"/>
    <path fill="rgb(133,133,133)" stroke="none" d="M 6803,11634 L 6803,11603 7270,11335 7268,11645 6498,12088 6498,11778 6749,11634 6803,11634 Z M 6798,11629 L 6758,11629 6798,11606 6798,11629 Z"/>
    <path fill="rgb(134,134,134)" stroke="none" d="M 6798,11629 L 6798,11606 7270,11335 7268,11645 6498,12088 6498,11778 6758,11629 6798,11629 Z M 6793,11624 L 6766,11624 6793,11609 6793,11624 Z"/>
    <path fill="rgb(135,135,135)" stroke="none" d="M 6793,11624 L 6793,11609 7270,11335 7268,11645 6498,12088 6498,11778 6766,11624 6793,11624 Z M 6788,11619 L 6775,11619 6788,11612 6788,11619 Z"/>
    <path fill="rgb(137,137,137)" stroke="none" d="M 6788,11619 L 6788,11612 7270,11335 7268,11645 6498,12088 6498,11778 6775,11619 6788,11619 Z"/>
    <path fill="rgb(138,138,138)" stroke="none" d="M 6498,12088 L 6498,11778 7270,11335 7268,11645 6498,12088 Z"/>
    <path fill="rgb(139,139,139)" stroke="none" d="M 6498,12088 L 6498,11778 7270,11335 7268,11645 6498,12088 Z"/>
    <path fill="rgb(141,141,141)" stroke="none" d="M 6498,12088 L 6498,11778 7270,11335 7268,11645 6498,12088 Z"/>
    <path fill="rgb(142,142,142)" stroke="none" d="M 6498,12088 L 6498,11778 7270,11335 7268,11645 6498,12088 Z"/>
    <path fill="rgb(143,143,143)" stroke="none" d="M 6498,12088 L 6498,11778 7270,11335 7268,11645 6498,12088 Z"/>
    <path fill="rgb(145,145,145)" stroke="none" d="M 6498,12088 L 6498,11778 7270,11335 7268,11645 6498,12088 Z"/>
    <path fill="rgb(146,146,146)" stroke="none" d="M 6498,12088 L 6498,11778 7270,11335 7268,11645 6498,12088 Z"/>
    <path fill="rgb(147,147,147)" stroke="none" d="M 6498,12088 L 6498,11778 7270,11335 7268,11645 6498,12088 Z"/>
    <path fill="rgb(149,149,149)" stroke="none" d="M 6498,12088 L 6498,11778 7270,11335 7268,11645 6498,12088 Z"/>
    <path fill="rgb(150,150,150)" stroke="none" d="M 6498,12088 L 6498,11778 7270,11335 7268,11645 6498,12088 Z"/>
    <path fill="rgb(153,153,153)" stroke="none" d="M 6498,12088 L 6498,11778 7270,11335 7268,11645 6498,12088 Z"/>
    <path fill="none" stroke="rgb(178,178,178)" id="Drawing_6_0" stroke-width="40" stroke-linejoin="round" d="M 6498,12088 L 6498,11778 7270,11335 7268,11645 6498,12088 Z"/>
   </g>
   <g>
    <path fill="none" stroke="rgb(0,0,0)" id="Drawing_7_0" stroke-width="40" stroke-linejoin="round" d="M 6116,11867 L 6117,11557 6885,11114 7037,11203 7189,11114 7419,11247 7419,11380 7268,11468 7268,11645 6499,12088 6116,11867 Z"/>
   </g>
  </g>
 </g>
</svg>