<?xml version="1.0" encoding="UTF-8"?>

<svg version="1.2" baseProfile="tiny" width="36.78mm" height="28.4mm" viewBox="4700 14039 3678 2840" preserveAspectRatio="xMidYMid" fill-rule="evenodd" stroke-width="28.222" stroke-linejoin="round" xmlns="http://www.w3.org/2000/svg" xmlns:xlink="http://www.w3.org/1999/xlink" xml:space="preserve">
 <g visibility="visible" id="Slide_1">
  <g id="DrawingGroup_1">
   <g>
    <path fill="rgb(221,221,221)" stroke="none" d="M 6506,16789 C 6981,16789 8204,16229 8325,16019 8446,15809 8204,15599 8083,15599 8083,15899 6506,16289 6506,16789 Z"/>
    <path fill="none" stroke="rgb(221,221,221)" id="Drawing_1_0" stroke-width="40" stroke-linejoin="round" d="M 6506,16789 C 6981,16789 8204,16229 8325,16019 8446,15809 8204,15599 8083,15599 8083,15899 6506,16289 6506,16789 Z"/>
   </g>
   <g id="DrawingGroup_2">
    <g>
     <defs>
      <linearGradient id="Gradient_1107" gradientUnits="userSpaceOnUse" x1="4718" y1="15948" x2="6420" y2="15950">
       <stop offset="0.1" stop-color="rgb(0,115,188)"/>
       <stop offset="1" stop-color="rgb(127,185,221)"/>
      </linearGradient>
     </defs>
     <path fill="url(#Gradient_1107)" stroke="rgb(255,255,255)" id="Drawing_2_0" stroke-width="40" stroke-linejoin="round" d="M 4720,15879 L 4720,15039 6418,16019 6418,16859 4720,15879 Z"/>
    </g>
    <g>
     <path fill="rgb(0,115,188)" stroke="none" d="M 7827,16045 L 7067,16484 6418,16484 6418,16019 7827,15205 7827,16045 Z"/>
     <path fill="rgb(1,115,188)" stroke="none" d="M 7067,16484 L 6418,16859 6418,16484 7067,16484 Z M 7827,15205 L 8115,15039 8115,15879 7827,16045 7827,15205 Z M 7817,16051 L 7085,16474 6418,16474 6418,16019 7817,15211 7817,16051 Z"/>
     <path fill="rgb(2,116,188)" stroke="none" d="M 7085,16474 L 6418,16859 6418,16474 7085,16474 Z M 7817,15211 L 8115,15039 8115,15879 7817,16051 7817,15211 Z M 7807,16057 L 7102,16464 6418,16464 6418,16019 7807,15217 7807,16057 Z"/>
     <path fill="rgb(4,117,189)" stroke="none" d="M 7102,16464 L 6418,16859 6418,16464 7102,16464 Z M 7807,15217 L 8115,15039 8115,15879 7807,16057 7807,15217 Z M 7797,16063 L 7119,16454 6418,16454 6418,16019 7797,15223 7797,16063 Z"/>
     <path fill="rgb(5,118,189)" stroke="none" d="M 7119,16454 L 6418,16859 6418,16454 7119,16454 Z M 7797,15223 L 8115,15039 8115,15879 7797,16063 7797,15223 Z M 7787,16068 L 7137,16444 6418,16444 6418,16019 7787,15228 7787,16068 Z"/>
     <path fill="rgb(6,118,189)" stroke="none" d="M 7137,16444 L 6418,16859 6418,16444 7137,16444 Z M 7787,15228 L 8115,15039 8115,15879 7787,16068 7787,15228 Z M 7777,16074 L 7154,16434 6418,16434 6418,16019 7777,15234 7777,16074 Z"/>
     <path fill="rgb(8,119,190)" stroke="none" d="M 7154,16434 L 6418,16859 6418,16434 7154,16434 Z M 7777,15234 L 8115,15039 8115,15879 7777,16074 7777,15234 Z M 7767,16080 L 7171,16424 6418,16424 6418,16019 7767,15240 7767,16080 Z"/>
     <path fill="rgb(9,120,190)" stroke="none" d="M 7171,16424 L 6418,16859 6418,16424 7171,16424 Z M 7767,15240 L 8115,15039 8115,15879 7767,16080 7767,15240 Z M 7757,16086 L 7189,16414 6418,16414 6418,16019 7757,15246 7757,16086 Z"/>
     <path fill="rgb(11,121,190)" stroke="none" d="M 7189,16414 L 6418,16859 6418,16414 7189,16414 Z M 7757,15246 L 8115,15039 8115,15879 7757,16086 7757,15246 Z M 7747,16092 L 7206,16404 6418,16404 6418,16019 7747,15252 7747,16092 Z"/>
     <path fill="rgb(12,121,191)" stroke="none" d="M 7206,16404 L 6418,16859 6418,16404 7206,16404 Z M 7747,15252 L 8115,15039 8115,15879 7747,16092 7747,15252 Z M 7737,16097 L 7223,16394 6418,16394 6418,16019 7737,15257 7737,16097 Z"/>
     <path fill="rgb(13,122,191)" stroke="none" d="M 7223,16394 L 6418,16859 6418,16394 7223,16394 Z M 7737,15257 L 8115,15039 8115,15879 7737,16097 7737,15257 Z M 7727,16103 L 7241,16384 6418,16384 6418,16019 7727,15263 7727,16103 Z"/>
     <path fill="rgb(15,123,191)" stroke="none" d="M 7241,16384 L 6418,16859 6418,16384 7241,16384 Z M 7727,15263 L 8115,15039 8115,15879 7727,16103 7727,15263 Z M 7717,16109 L 7258,16374 6418,16374 6418,16019 7717,15269 7717,16109 Z"/>
     <path fill="rgb(16,124,192)" stroke="none" d="M 7258,16374 L 6418,16859 6418,16374 7258,16374 Z M 7717,15269 L 8115,15039 8115,15879 7717,16109 7717,15269 Z M 7707,16115 L 7275,16364 6418,16364 6418,16019 7707,15275 7707,16115 Z"/>
     <path fill="rgb(18,125,192)" stroke="none" d="M 7275,16364 L 6418,16859 6418,16364 7275,16364 Z M 7707,15275 L 8115,15039 8115,15879 7707,16115 7707,15275 Z M 7697,16120 L 7292,16354 6418,16354 6418,16019 7697,15280 7697,16120 Z"/>
     <path fill="rgb(19,125,193)" stroke="none" d="M 7292,16354 L 6418,16859 6418,16354 7292,16354 Z M 7697,15280 L 8115,15039 8115,15879 7697,16120 7697,15280 Z M 7687,16126 L 7310,16344 6418,16344 6418,16019 7687,15286 7687,16126 Z"/>
     <path fill="rgb(20,126,193)" stroke="none" d="M 7310,16344 L 6418,16859 6418,16344 7310,16344 Z M 7687,15286 L 8115,15039 8115,15879 7687,16126 7687,15286 Z M 7677,16132 L 7327,16334 6418,16334 6418,16019 7677,15292 7677,16132 Z"/>
     <path fill="rgb(22,127,193)" stroke="none" d="M 7327,16334 L 6418,16859 6418,16334 7327,16334 Z M 7677,15292 L 8115,15039 8115,15879 7677,16132 7677,15292 Z M 7667,16138 L 7344,16324 6418,16324 6418,16019 7667,15298 7667,16138 Z"/>
     <path fill="rgb(23,128,194)" stroke="none" d="M 7344,16324 L 6418,16859 6418,16324 7344,16324 Z M 7667,15298 L 8115,15039 8115,15879 7667,16138 7667,15298 Z M 7657,16143 L 7362,16314 6418,16314 6418,16019 7657,15303 7657,16143 Z"/>
     <path fill="rgb(25,128,194)" stroke="none" d="M 7362,16314 L 6418,16859 6418,16314 7362,16314 Z M 7657,15303 L 8115,15039 8115,15879 7657,16143 7657,15303 Z M 7647,16149 L 7379,16304 6418,16304 6418,16019 7647,15309 7647,16149 Z"/>
     <path fill="rgb(26,129,194)" stroke="none" d="M 7379,16304 L 6418,16859 6418,16304 7379,16304 Z M 7647,15309 L 8115,15039 8115,15879 7647,16149 7647,15309 Z M 7637,16155 L 7396,16294 6418,16294 6418,16019 7637,15315 7637,16155 Z"/>
     <path fill="rgb(27,130,195)" stroke="none" d="M 7396,16294 L 6418,16859 6418,16294 7396,16294 Z M 7637,15315 L 8115,15039 8115,15879 7637,16155 7637,15315 Z M 7627,16161 L 7414,16284 6418,16284 6418,16019 7627,15321 7627,16161 Z"/>
     <path fill="rgb(29,131,195)" stroke="none" d="M 7414,16284 L 6418,16859 6418,16284 7414,16284 Z M 7627,15321 L 8115,15039 8115,15879 7627,16161 7627,15321 Z M 7617,16167 L 7431,16274 6418,16274 6418,16019 7617,15327 7617,16167 Z"/>
     <path fill="rgb(30,131,195)" stroke="none" d="M 7431,16274 L 6418,16859 6418,16274 7431,16274 Z M 7617,15327 L 8115,15039 8115,15879 7617,16167 7617,15327 Z M 7607,16172 L 7448,16264 6418,16264 6418,16019 7607,15332 7607,16172 Z"/>
     <path fill="rgb(32,132,196)" stroke="none" d="M 7448,16264 L 6418,16859 6418,16264 7448,16264 Z M 7607,15332 L 8115,15039 8115,15879 7607,16172 7607,15332 Z M 7597,16178 L 7466,16254 6418,16254 6418,16019 7597,15338 7597,16178 Z"/>
     <path fill="rgb(33,133,196)" stroke="none" d="M 7466,16254 L 6418,16859 6418,16254 7466,16254 Z M 7597,15338 L 8115,15039 8115,15879 7597,16178 7597,15338 Z M 7587,16184 L 7483,16244 6418,16244 6418,16019 7587,15344 7587,16184 Z"/>
     <path fill="rgb(34,134,197)" stroke="none" d="M 7483,16244 L 6418,16859 6418,16244 7483,16244 Z M 7587,15344 L 8115,15039 8115,15879 7587,16184 7587,15344 Z M 7577,16190 L 7500,16234 6418,16234 6418,16019 7577,15350 7577,16190 Z"/>
     <path fill="rgb(36,135,197)" stroke="none" d="M 7500,16234 L 6418,16859 6418,16234 7500,16234 Z M 7577,15350 L 8115,15039 8115,15879 7577,16190 7577,15350 Z M 7567,16195 L 7518,16224 6418,16224 6418,16019 7567,15355 7567,16195 Z"/>
     <path fill="rgb(37,135,197)" stroke="none" d="M 7518,16224 L 6418,16859 6418,16224 7518,16224 Z M 7567,15355 L 8115,15039 8115,15879 7567,16195 7567,15355 Z M 7557,16201 L 7535,16214 6418,16214 6418,16019 7557,15361 7557,16201 Z"/>
     <path fill="rgb(39,136,198)" stroke="none" d="M 7535,16214 L 6418,16859 6418,16214 7535,16214 Z M 7557,15361 L 8115,15039 8115,15879 7557,16201 7557,15361 Z M 7547,16204 L 6418,16204 6418,16019 7547,15367 7547,16204 Z"/>
     <path fill="rgb(40,137,198)" stroke="none" d="M 7547,16204 L 7547,15367 8115,15039 8115,15879 6418,16859 6418,16204 7547,16204 Z M 7537,16194 L 6418,16194 6418,16019 7537,15373 7537,16194 Z"/>
     <path fill="rgb(41,138,198)" stroke="none" d="M 7537,16194 L 7537,15373 8115,15039 8115,15879 6418,16859 6418,16194 7537,16194 Z M 7527,16184 L 6418,16184 6418,16019 7527,15379 7527,16184 Z"/>
     <path fill="rgb(43,138,199)" stroke="none" d="M 7527,16184 L 7527,15379 8115,15039 8115,15879 6418,16859 6418,16184 7527,16184 Z M 7517,16174 L 6418,16174 6418,16019 7517,15384 7517,16174 Z"/>
     <path fill="rgb(44,139,199)" stroke="none" d="M 7517,16174 L 7517,15384 8115,15039 8115,15879 6418,16859 6418,16174 7517,16174 Z M 7507,16164 L 6418,16164 6418,16019 7507,15390 7507,16164 Z"/>
     <path fill="rgb(46,140,199)" stroke="none" d="M 7507,16164 L 7507,15390 8115,15039 8115,15879 6418,16859 6418,16164 7507,16164 Z M 7497,16154 L 6418,16154 6418,16019 7497,15396 7497,16154 Z"/>
     <path fill="rgb(47,141,200)" stroke="none" d="M 7497,16154 L 7497,15396 8115,15039 8115,15879 6418,16859 6418,16154 7497,16154 Z M 7487,16144 L 6418,16144 6418,16019 7487,15402 7487,16144 Z"/>
     <path fill="rgb(48,141,200)" stroke="none" d="M 7487,16144 L 7487,15402 8115,15039 8115,15879 6418,16859 6418,16144 7487,16144 Z M 7477,16134 L 6418,16134 6418,16019 7477,15407 7477,16134 Z"/>
     <path fill="rgb(50,142,201)" stroke="none" d="M 7477,16134 L 7477,15407 8115,15039 8115,15879 6418,16859 6418,16134 7477,16134 Z M 7467,16124 L 6418,16124 6418,16019 7467,15413 7467,16124 Z"/>
     <path fill="rgb(51,143,201)" stroke="none" d="M 7467,16124 L 7467,15413 8115,15039 8115,15879 6418,16859 6418,16124 7467,16124 Z M 7457,16114 L 6418,16114 6418,16019 7457,15419 7457,16114 Z"/>
     <path fill="rgb(53,144,201)" stroke="none" d="M 7457,16114 L 7457,15419 8115,15039 8115,15879 6418,16859 6418,16114 7457,16114 Z M 7447,16104 L 6418,16104 6418,16019 7447,15425 7447,16104 Z"/>
     <path fill="rgb(54,145,202)" stroke="none" d="M 7447,16104 L 7447,15425 8115,15039 8115,15879 6418,16859 6418,16104 7447,16104 Z M 7437,16094 L 6418,16094 6418,16019 7437,15431 7437,16094 Z"/>
     <path fill="rgb(55,145,202)" stroke="none" d="M 7437,16094 L 7437,15431 8115,15039 8115,15879 6418,16859 6418,16094 7437,16094 Z M 7427,16084 L 6426,16084 6426,16014 7427,15436 7427,16084 Z"/>
     <path fill="rgb(57,146,202)" stroke="none" d="M 6426,16084 L 7427,16084 7427,15436 8115,15039 8115,15879 6418,16859 6418,16019 6426,16014 6426,16084 Z M 7417,16074 L 6436,16074 6436,16009 7417,15442 7417,16074 Z"/>
     <path fill="rgb(58,147,203)" stroke="none" d="M 6436,16074 L 7417,16074 7417,15442 8115,15039 8115,15879 6418,16859 6418,16019 6436,16009 6436,16074 Z M 7407,16064 L 6446,16064 6446,16003 7407,15448 7407,16064 Z"/>
     <path fill="rgb(60,148,203)" stroke="none" d="M 6446,16064 L 7407,16064 7407,15448 8115,15039 8115,15879 6418,16859 6418,16019 6446,16003 6446,16064 Z M 7397,16054 L 6456,16054 6456,15997 7397,15454 7397,16054 Z"/>
     <path fill="rgb(61,148,203)" stroke="none" d="M 6456,16054 L 7397,16054 7397,15454 8115,15039 8115,15879 6418,16859 6418,16019 6456,15997 6456,16054 Z M 7387,16044 L 6466,16044 6466,15991 7387,15459 7387,16044 Z"/>
     <path fill="rgb(62,149,204)" stroke="none" d="M 6466,16044 L 7387,16044 7387,15459 8115,15039 8115,15879 6418,16859 6418,16019 6466,15991 6466,16044 Z M 7377,16034 L 6476,16034 6476,15986 7377,15465 7377,16034 Z"/>
     <path fill="rgb(64,150,204)" stroke="none" d="M 6476,16034 L 7377,16034 7377,15465 8115,15039 8115,15879 6418,16859 6418,16019 6476,15986 6476,16034 Z M 7367,16024 L 6486,16024 6486,15980 7367,15471 7367,16024 Z"/>
     <path fill="rgb(65,151,205)" stroke="none" d="M 6486,16024 L 7367,16024 7367,15471 8115,15039 8115,15879 6418,16859 6418,16019 6486,15980 6486,16024 Z M 7357,16014 L 6496,16014 6496,15974 7357,15477 7357,16014 Z"/>
     <path fill="rgb(66,151,205)" stroke="none" d="M 6496,16014 L 7357,16014 7357,15477 8115,15039 8115,15879 6418,16859 6418,16019 6496,15974 6496,16014 Z M 7347,16004 L 6506,16004 6506,15968 7347,15483 7347,16004 Z"/>
     <path fill="rgb(68,152,205)" stroke="none" d="M 6506,16004 L 7347,16004 7347,15483 8115,15039 8115,15879 6418,16859 6418,16019 6506,15968 6506,16004 Z M 7337,15994 L 6516,15994 6516,15962 7337,15488 7337,15994 Z"/>
     <path fill="rgb(69,153,206)" stroke="none" d="M 6516,15994 L 7337,15994 7337,15488 8115,15039 8115,15879 6418,16859 6418,16019 6516,15962 6516,15994 Z M 7327,15984 L 6526,15984 6526,15957 7327,15494 7327,15984 Z"/>
     <path fill="rgb(71,154,206)" stroke="none" d="M 6526,15984 L 7327,15984 7327,15494 8115,15039 8115,15879 6418,16859 6418,16019 6526,15957 6526,15984 Z M 7317,15974 L 6536,15974 6536,15951 7317,15500 7317,15974 Z"/>
     <path fill="rgb(72,155,206)" stroke="none" d="M 6536,15974 L 7317,15974 7317,15500 8115,15039 8115,15879 6418,16859 6418,16019 6536,15951 6536,15974 Z M 7307,15964 L 6546,15964 6546,15945 7307,15506 7307,15964 Z"/>
     <path fill="rgb(73,155,207)" stroke="none" d="M 6546,15964 L 7307,15964 7307,15506 8115,15039 8115,15879 6418,16859 6418,16019 6546,15945 6546,15964 Z M 7297,15954 L 6556,15954 6556,15939 7297,15511 7297,15954 Z"/>
     <path fill="rgb(75,156,207)" stroke="none" d="M 6556,15954 L 7297,15954 7297,15511 8115,15039 8115,15879 6418,16859 6418,16019 6556,15939 6556,15954 Z M 7287,15944 L 6566,15944 6566,15934 7287,15517 7287,15944 Z"/>
     <path fill="rgb(76,157,207)" stroke="none" d="M 6566,15944 L 7287,15944 7287,15517 8115,15039 8115,15879 6418,16859 6418,16019 6566,15934 6566,15944 Z M 7277,15934 L 6576,15934 6576,15928 7277,15523 7277,15934 Z"/>
     <path fill="rgb(78,158,208)" stroke="none" d="M 6576,15934 L 7277,15934 7277,15523 8115,15039 8115,15879 6418,16859 6418,16019 6576,15928 6576,15934 Z M 7267,15924 L 6586,15924 6586,15922 7267,15529 7267,15924 Z"/>
     <path fill="rgb(79,158,208)" stroke="none" d="M 6586,15924 L 7267,15924 7267,15529 8115,15039 8115,15879 6418,16859 6418,16019 6586,15922 6586,15924 Z M 7257,15914 L 6600,15914 7257,15534 7257,15914 Z"/>
     <path fill="rgb(80,159,209)" stroke="none" d="M 7257,15914 L 7257,15534 8115,15039 8115,15879 6418,16859 6418,16019 6600,15914 7257,15914 Z M 7247,15904 L 6617,15904 7247,15540 7247,15904 Z"/>
     <path fill="rgb(82,160,209)" stroke="none" d="M 7247,15904 L 7247,15540 8115,15039 8115,15879 6418,16859 6418,16019 6617,15904 7247,15904 Z M 7237,15894 L 6634,15894 7237,15546 7237,15894 Z"/>
     <path fill="rgb(83,161,209)" stroke="none" d="M 7237,15894 L 7237,15546 8115,15039 8115,15879 6418,16859 6418,16019 6634,15894 7237,15894 Z M 7226,15883 L 6654,15883 7226,15552 7226,15883 Z"/>
     <path fill="rgb(85,161,210)" stroke="none" d="M 7226,15883 L 7226,15552 8115,15039 8115,15879 6418,16859 6418,16019 6654,15883 7226,15883 Z M 7216,15873 L 6671,15873 7216,15558 7216,15873 Z"/>
     <path fill="rgb(86,162,210)" stroke="none" d="M 7216,15873 L 7216,15558 8115,15039 8115,15879 6418,16859 6418,16019 6671,15873 7216,15873 Z M 7206,15863 L 6688,15863 7206,15564 7206,15863 Z"/>
     <path fill="rgb(87,163,210)" stroke="none" d="M 7206,15863 L 7206,15564 8115,15039 8115,15879 6418,16859 6418,16019 6688,15863 7206,15863 Z M 7196,15853 L 6705,15853 7196,15570 7196,15853 Z"/>
     <path fill="rgb(89,164,211)" stroke="none" d="M 7196,15853 L 7196,15570 8115,15039 8115,15879 6418,16859 6418,16019 6705,15853 7196,15853 Z M 7186,15843 L 6723,15843 7186,15575 7186,15843 Z"/>
     <path fill="rgb(90,165,211)" stroke="none" d="M 7186,15843 L 7186,15575 8115,15039 8115,15879 6418,16859 6418,16019 6723,15843 7186,15843 Z M 7176,15833 L 6740,15833 7176,15581 7176,15833 Z"/>
     <path fill="rgb(92,165,211)" stroke="none" d="M 7176,15833 L 7176,15581 8115,15039 8115,15879 6418,16859 6418,16019 6740,15833 7176,15833 Z M 7166,15823 L 6757,15823 7166,15587 7166,15823 Z"/>
     <path fill="rgb(93,166,212)" stroke="none" d="M 7166,15823 L 7166,15587 8115,15039 8115,15879 6418,16859 6418,16019 6757,15823 7166,15823 Z M 7156,15813 L 6775,15813 7156,15593 7156,15813 Z"/>
     <path fill="rgb(94,167,212)" stroke="none" d="M 7156,15813 L 7156,15593 8115,15039 8115,15879 6418,16859 6418,16019 6775,15813 7156,15813 Z M 7146,15803 L 6792,15803 7146,15599 7146,15803 Z"/>
     <path fill="rgb(96,168,213)" stroke="none" d="M 7146,15803 L 7146,15599 8115,15039 8115,15879 6418,16859 6418,16019 6792,15803 7146,15803 Z M 7136,15793 L 6809,15793 7136,15604 7136,15793 Z"/>
     <path fill="rgb(97,168,213)" stroke="none" d="M 7136,15793 L 7136,15604 8115,15039 8115,15879 6418,16859 6418,16019 6809,15793 7136,15793 Z M 7126,15783 L 6827,15783 7126,15610 7126,15783 Z"/>
     <path fill="rgb(99,169,213)" stroke="none" d="M 7126,15783 L 7126,15610 8115,15039 8115,15879 6418,16859 6418,16019 6827,15783 7126,15783 Z M 7116,15773 L 6844,15773 7116,15616 7116,15773 Z"/>
     <path fill="rgb(100,170,214)" stroke="none" d="M 7116,15773 L 7116,15616 8115,15039 8115,15879 6418,16859 6418,16019 6844,15773 7116,15773 Z M 7106,15763 L 6861,15763 7106,15622 7106,15763 Z"/>
     <path fill="rgb(101,171,214)" stroke="none" d="M 7106,15763 L 7106,15622 8115,15039 8115,15879 6418,16859 6418,16019 6861,15763 7106,15763 Z M 7096,15753 L 6879,15753 7096,15627 7096,15753 Z"/>
     <path fill="rgb(103,171,214)" stroke="none" d="M 7096,15753 L 7096,15627 8115,15039 8115,15879 6418,16859 6418,16019 6879,15753 7096,15753 Z M 7086,15743 L 6896,15743 7086,15633 7086,15743 Z"/>
     <path fill="rgb(104,172,215)" stroke="none" d="M 7086,15743 L 7086,15633 8115,15039 8115,15879 6418,16859 6418,16019 6896,15743 7086,15743 Z M 7076,15733 L 6913,15733 7076,15639 7076,15733 Z"/>
     <path fill="rgb(106,173,215)" stroke="none" d="M 7076,15733 L 7076,15639 8115,15039 8115,15879 6418,16859 6418,16019 6913,15733 7076,15733 Z M 7066,15723 L 6931,15723 7066,15645 7066,15723 Z"/>
     <path fill="rgb(107,174,215)" stroke="none" d="M 7066,15723 L 7066,15645 8115,15039 8115,15879 6418,16859 6418,16019 6931,15723 7066,15723 Z M 7056,15713 L 6948,15713 7056,15651 7056,15713 Z"/>
     <path fill="rgb(108,175,216)" stroke="none" d="M 7056,15713 L 7056,15651 8115,15039 8115,15879 6418,16859 6418,16019 6948,15713 7056,15713 Z M 7046,15703 L 6965,15703 7046,15656 7046,15703 Z"/>
     <path fill="rgb(110,175,216)" stroke="none" d="M 7046,15703 L 7046,15656 8115,15039 8115,15879 6418,16859 6418,16019 6965,15703 7046,15703 Z M 7036,15693 L 6983,15693 7036,15662 7036,15693 Z"/>
     <path fill="rgb(111,176,217)" stroke="none" d="M 7036,15693 L 7036,15662 8115,15039 8115,15879 6418,16859 6418,16019 6983,15693 7036,15693 Z M 7026,15683 L 7000,15683 7026,15668 7026,15683 Z"/>
     <path fill="rgb(113,177,217)" stroke="none" d="M 7026,15683 L 7026,15668 8115,15039 8115,15879 6418,16859 6418,16019 7000,15683 7026,15683 Z"/>
     <path fill="rgb(114,178,217)" stroke="none" d="M 6418,16859 L 6418,16019 8115,15039 8115,15879 6418,16859 Z"/>
     <path fill="rgb(115,178,218)" stroke="none" d="M 6418,16859 L 6418,16019 8115,15039 8115,15879 6418,16859 Z"/>
     <path fill="rgb(117,179,218)" stroke="none" d="M 6418,16859 L 6418,16019 8115,15039 8115,15879 6418,16859 Z"/>
     <path fill="rgb(118,180,218)" stroke="none" d="M 6418,16859 L 6418,16019 8115,15039 8115,15879 6418,16859 Z"/>
     <path fill="rgb(120,181,219)" stroke="none" d="M 6418,16859 L 6418,16019 8115,15039 8115,15879 6418,16859 Z"/>
     <path fill="rgb(121,181,219)" stroke="none" d="M 6418,16859 L 6418,16019 8115,15039 8115,15879 6418,16859 Z"/>
     <path fill="rgb(122,182,219)" stroke="none" d="M 6418,16859 L 6418,16019 8115,15039 8115,15879 6418,16859 Z"/>
     <path fill="rgb(124,183,220)" stroke="none" d="M 6418,16859 L 6418,16019 8115,15039 8115,15879 6418,16859 Z"/>
     <path fill="rgb(127,185,221)" stroke="none" d="M 6418,16859 L 6418,16019 8115,15039 8115,15879 6418,16859 Z"/>
     <path fill="none" stroke="rgb(255,255,255)" id="Drawing_3_0" stroke-width="40" stroke-linejoin="round" d="M 6418,16859 L 6418,16019 8115,15039 8115,15879 6418,16859 Z"/>
    </g>
    <g>
     <defs>
      <linearGradient id="Gradient_1108" gradientUnits="userSpaceOnUse" x1="6417" y1="14059" x2="6417" y2="16019">
       <stop offset="0.1" stop-color="rgb(0,115,188)"/>
       <stop offset="1" stop-color="rgb(127,185,221)"/>
      </linearGradient>
     </defs>
     <path fill="url(#Gradient_1108)" stroke="rgb(255,255,255)" id="Drawing_4_0" stroke-width="40" stroke-linejoin="round" d="M 6418,16019 L 4720,15039 6418,14059 8115,15039 6418,16019 Z"/>
    </g>
    <g>
     <path fill="none" stroke="rgb(0,0,0)" id="Drawing_5_0" stroke-width="40" stroke-linejoin="round" d="M 4720,15879 L 4720,15039 6418,14059 8115,15039 8115,15879 6418,16859 4720,15879 Z"/>
    </g>
    <g>
     <path fill="rgb(255,255,255)" stroke="none" d="M 7387,15039 L 7144,15179 6416,15109 6416,14969 7144,15039 7266,14969 7145,14899 7508,14899 7508,15109 7387,15039 Z"/>
     <path fill="none" stroke="rgb(255,255,255)" id="Drawing_6_0" stroke-width="40" stroke-linejoin="round" d="M 7387,15039 L 7144,15179 6416,15109 6416,14969 7144,15039 7266,14969 7145,14899 7508,14899 7508,15109 7387,15039 Z"/>
    </g>
    <g>
     <path fill="rgb(255,255,255)" stroke="none" d="M 6417,15599 L 6538,15669 6174,15669 6174,15459 6295,15529 6416,15459 6295,15039 6538,15039 6659,15459 6417,15599 Z"/>
     <path fill="none" stroke="rgb(255,255,255)" id="Drawing_7_0" stroke-width="40" stroke-linejoin="round" d="M 6417,15599 L 6538,15669 6174,15669 6174,15459 6295,15529 6416,15459 6295,15039 6538,15039 6659,15459 6417,15599 Z"/>
    </g>
    <g>
     <path fill="rgb(255,255,255)" stroke="none" d="M 6538,14549 L 6416,14619 6538,15039 6295,15039 6174,14619 6417,14479 6296,14409 6659,14409 6659,14619 6538,14549 Z"/>
     <path fill="none" stroke="rgb(255,255,255)" id="Drawing_8_0" stroke-width="40" stroke-linejoin="round" d="M 6538,14549 L 6416,14619 6538,15039 6295,15039 6174,14619 6417,14479 6296,14409 6659,14409 6659,14619 6538,14549 Z"/>
    </g>
    <g>
     <path fill="rgb(255,255,255)" stroke="none" d="M 5569,15109 L 5690,15179 5326,15179 5326,14969 5447,15039 5689,14899 6416,14969 6416,15109 5689,15039 5569,15109 Z"/>
     <path fill="none" stroke="rgb(255,255,255)" id="Drawing_9_0" stroke-width="40" stroke-linejoin="round" d="M 5569,15109 L 5690,15179 5326,15179 5326,14969 5447,15039 5689,14899 6416,14969 6416,15109 5689,15039 5569,15109 Z"/>
    </g>
   </g>
  </g>
 </g>
</svg>