<?xml version="1.0" encoding="UTF-8"?>

<svg version="1.2" baseProfile="tiny" width="36.78mm" height="28.4mm" viewBox="8556 8558 3678 2840" preserveAspectRatio="xMidYMid" fill-rule="evenodd" stroke-width="28.222" stroke-linejoin="round" xmlns="http://www.w3.org/2000/svg" xmlns:xlink="http://www.w3.org/1999/xlink" xml:space="preserve">
 <g visibility="visible" id="Slide_1">
  <g id="DrawingGroup_1">
   <g>
    <path fill="rgb(221,221,221)" stroke="none" d="M 10362,11308 C 10837,11308 12060,10748 12181,10538 12302,10328 12060,10118 11939,10118 11939,10418 10362,10808 10362,11308 Z"/>
    <path fill="none" stroke="rgb(221,221,221)" id="Drawing_1_0" stroke-width="40" stroke-linejoin="round" d="M 10362,11308 C 10837,11308 12060,10748 12181,10538 12302,10328 12060,10118 11939,10118 11939,10418 10362,10808 10362,11308 Z"/>
   </g>
   <g id="DrawingGroup_2">
    <g>
     <defs>
      <linearGradient id="Gradient_1105" gradientUnits="userSpaceOnUse" x1="8574" y1="10467" x2="10276" y2="10469">
       <stop offset="0.1" stop-color="rgb(0,115,188)"/>
       <stop offset="1" stop-color="rgb(127,185,221)"/>
      </linearGradient>
     </defs>
     <path fill="url(#Gradient_1105)" stroke="rgb(255,255,255)" id="Drawing_2_0" stroke-width="40" stroke-linejoin="round" d="M 8576,10398 L 8576,9558 10274,10538 10274,11378 8576,10398 Z"/>
    </g>
    <g>
     <path fill="rgb(0,115,188)" stroke="none" d="M 11683,10564 L 10923,11003 10274,11003 10274,10538 11683,9724 11683,10564 Z"/>
     <path fill="rgb(1,115,188)" stroke="none" d="M 10923,11003 L 10274,11378 10274,11003 10923,11003 Z M 11683,9724 L 11971,9558 11971,10398 11683,10564 11683,9724 Z M 11673,10570 L 10941,10993 10274,10993 10274,10538 11673,9730 11673,10570 Z"/>
     <path fill="rgb(2,116,188)" stroke="none" d="M 10941,10993 L 10274,11378 10274,10993 10941,10993 Z M 11673,9730 L 11971,9558 11971,10398 11673,10570 11673,9730 Z M 11663,10576 L 10958,10983 10274,10983 10274,10538 11663,9736 11663,10576 Z"/>
     <path fill="rgb(4,117,189)" stroke="none" d="M 10958,10983 L 10274,11378 10274,10983 10958,10983 Z M 11663,9736 L 11971,9558 11971,10398 11663,10576 11663,9736 Z M 11653,10582 L 10975,10973 10274,10973 10274,10538 11653,9742 11653,10582 Z"/>
     <path fill="rgb(5,118,189)" stroke="none" d="M 10975,10973 L 10274,11378 10274,10973 10975,10973 Z M 11653,9742 L 11971,9558 11971,10398 11653,10582 11653,9742 Z M 11643,10587 L 10993,10963 10274,10963 10274,10538 11643,9747 11643,10587 Z"/>
     <path fill="rgb(6,118,189)" stroke="none" d="M 10993,10963 L 10274,11378 10274,10963 10993,10963 Z M 11643,9747 L 11971,9558 11971,10398 11643,10587 11643,9747 Z M 11633,10593 L 11010,10953 10274,10953 10274,10538 11633,9753 11633,10593 Z"/>
     <path fill="rgb(8,119,190)" stroke="none" d="M 11010,10953 L 10274,11378 10274,10953 11010,10953 Z M 11633,9753 L 11971,9558 11971,10398 11633,10593 11633,9753 Z M 11623,10599 L 11027,10943 10274,10943 10274,10538 11623,9759 11623,10599 Z"/>
     <path fill="rgb(9,120,190)" stroke="none" d="M 11027,10943 L 10274,11378 10274,10943 11027,10943 Z M 11623,9759 L 11971,9558 11971,10398 11623,10599 11623,9759 Z M 11613,10605 L 11045,10933 10274,10933 10274,10538 11613,9765 11613,10605 Z"/>
     <path fill="rgb(11,121,190)" stroke="none" d="M 11045,10933 L 10274,11378 10274,10933 11045,10933 Z M 11613,9765 L 11971,9558 11971,10398 11613,10605 11613,9765 Z M 11603,10611 L 11062,10923 10274,10923 10274,10538 11603,9771 11603,10611 Z"/>
     <path fill="rgb(12,121,191)" stroke="none" d="M 11062,10923 L 10274,11378 10274,10923 11062,10923 Z M 11603,9771 L 11971,9558 11971,10398 11603,10611 11603,9771 Z M 11593,10616 L 11079,10913 10274,10913 10274,10538 11593,9776 11593,10616 Z"/>
     <path fill="rgb(13,122,191)" stroke="none" d="M 11079,10913 L 10274,11378 10274,10913 11079,10913 Z M 11593,9776 L 11971,9558 11971,10398 11593,10616 11593,9776 Z M 11583,10622 L 11097,10903 10274,10903 10274,10538 11583,9782 11583,10622 Z"/>
     <path fill="rgb(15,123,191)" stroke="none" d="M 11097,10903 L 10274,11378 10274,10903 11097,10903 Z M 11583,9782 L 11971,9558 11971,10398 11583,10622 11583,9782 Z M 11573,10628 L 11114,10893 10274,10893 10274,10538 11573,9788 11573,10628 Z"/>
     <path fill="rgb(16,124,192)" stroke="none" d="M 11114,10893 L 10274,11378 10274,10893 11114,10893 Z M 11573,9788 L 11971,9558 11971,10398 11573,10628 11573,9788 Z M 11563,10634 L 11131,10883 10274,10883 10274,10538 11563,9794 11563,10634 Z"/>
     <path fill="rgb(18,125,192)" stroke="none" d="M 11131,10883 L 10274,11378 10274,10883 11131,10883 Z M 11563,9794 L 11971,9558 11971,10398 11563,10634 11563,9794 Z M 11553,10639 L 11148,10873 10274,10873 10274,10538 11553,9799 11553,10639 Z"/>
     <path fill="rgb(19,125,193)" stroke="none" d="M 11148,10873 L 10274,11378 10274,10873 11148,10873 Z M 11553,9799 L 11971,9558 11971,10398 11553,10639 11553,9799 Z M 11543,10645 L 11166,10863 10274,10863 10274,10538 11543,9805 11543,10645 Z"/>
     <path fill="rgb(20,126,193)" stroke="none" d="M 11166,10863 L 10274,11378 10274,10863 11166,10863 Z M 11543,9805 L 11971,9558 11971,10398 11543,10645 11543,9805 Z M 11533,10651 L 11183,10853 10274,10853 10274,10538 11533,9811 11533,10651 Z"/>
     <path fill="rgb(22,127,193)" stroke="none" d="M 11183,10853 L 10274,11378 10274,10853 11183,10853 Z M 11533,9811 L 11971,9558 11971,10398 11533,10651 11533,9811 Z M 11523,10657 L 11200,10843 10274,10843 10274,10538 11523,9817 11523,10657 Z"/>
     <path fill="rgb(23,128,194)" stroke="none" d="M 11200,10843 L 10274,11378 10274,10843 11200,10843 Z M 11523,9817 L 11971,9558 11971,10398 11523,10657 11523,9817 Z M 11513,10662 L 11218,10833 10274,10833 10274,10538 11513,9822 11513,10662 Z"/>
     <path fill="rgb(25,128,194)" stroke="none" d="M 11218,10833 L 10274,11378 10274,10833 11218,10833 Z M 11513,9822 L 11971,9558 11971,10398 11513,10662 11513,9822 Z M 11503,10668 L 11235,10823 10274,10823 10274,10538 11503,9828 11503,10668 Z"/>
     <path fill="rgb(26,129,194)" stroke="none" d="M 11235,10823 L 10274,11378 10274,10823 11235,10823 Z M 11503,9828 L 11971,9558 11971,10398 11503,10668 11503,9828 Z M 11493,10674 L 11252,10813 10274,10813 10274,10538 11493,9834 11493,10674 Z"/>
     <path fill="rgb(27,130,195)" stroke="none" d="M 11252,10813 L 10274,11378 10274,10813 11252,10813 Z M 11493,9834 L 11971,9558 11971,10398 11493,10674 11493,9834 Z M 11483,10680 L 11270,10803 10274,10803 10274,10538 11483,9840 11483,10680 Z"/>
     <path fill="rgb(29,131,195)" stroke="none" d="M 11270,10803 L 10274,11378 10274,10803 11270,10803 Z M 11483,9840 L 11971,9558 11971,10398 11483,10680 11483,9840 Z M 11473,10686 L 11287,10793 10274,10793 10274,10538 11473,9846 11473,10686 Z"/>
     <path fill="rgb(30,131,195)" stroke="none" d="M 11287,10793 L 10274,11378 10274,10793 11287,10793 Z M 11473,9846 L 11971,9558 11971,10398 11473,10686 11473,9846 Z M 11463,10691 L 11304,10783 10274,10783 10274,10538 11463,9851 11463,10691 Z"/>
     <path fill="rgb(32,132,196)" stroke="none" d="M 11304,10783 L 10274,11378 10274,10783 11304,10783 Z M 11463,9851 L 11971,9558 11971,10398 11463,10691 11463,9851 Z M 11453,10697 L 11322,10773 10274,10773 10274,10538 11453,9857 11453,10697 Z"/>
     <path fill="rgb(33,133,196)" stroke="none" d="M 11322,10773 L 10274,11378 10274,10773 11322,10773 Z M 11453,9857 L 11971,9558 11971,10398 11453,10697 11453,9857 Z M 11443,10703 L 11339,10763 10274,10763 10274,10538 11443,9863 11443,10703 Z"/>
     <path fill="rgb(34,134,197)" stroke="none" d="M 11339,10763 L 10274,11378 10274,10763 11339,10763 Z M 11443,9863 L 11971,9558 11971,10398 11443,10703 11443,9863 Z M 11433,10709 L 11356,10753 10274,10753 10274,10538 11433,9869 11433,10709 Z"/>
     <path fill="rgb(36,135,197)" stroke="none" d="M 11356,10753 L 10274,11378 10274,10753 11356,10753 Z M 11433,9869 L 11971,9558 11971,10398 11433,10709 11433,9869 Z M 11423,10714 L 11374,10743 10274,10743 10274,10538 11423,9874 11423,10714 Z"/>
     <path fill="rgb(37,135,197)" stroke="none" d="M 11374,10743 L 10274,11378 10274,10743 11374,10743 Z M 11423,9874 L 11971,9558 11971,10398 11423,10714 11423,9874 Z M 11413,10720 L 11391,10733 10274,10733 10274,10538 11413,9880 11413,10720 Z"/>
     <path fill="rgb(39,136,198)" stroke="none" d="M 11391,10733 L 10274,11378 10274,10733 11391,10733 Z M 11413,9880 L 11971,9558 11971,10398 11413,10720 11413,9880 Z M 11403,10723 L 10274,10723 10274,10538 11403,9886 11403,10723 Z"/>
     <path fill="rgb(40,137,198)" stroke="none" d="M 11403,10723 L 11403,9886 11971,9558 11971,10398 10274,11378 10274,10723 11403,10723 Z M 11393,10713 L 10274,10713 10274,10538 11393,9892 11393,10713 Z"/>
     <path fill="rgb(41,138,198)" stroke="none" d="M 11393,10713 L 11393,9892 11971,9558 11971,10398 10274,11378 10274,10713 11393,10713 Z M 11383,10703 L 10274,10703 10274,10538 11383,9898 11383,10703 Z"/>
     <path fill="rgb(43,138,199)" stroke="none" d="M 11383,10703 L 11383,9898 11971,9558 11971,10398 10274,11378 10274,10703 11383,10703 Z M 11373,10693 L 10274,10693 10274,10538 11373,9903 11373,10693 Z"/>
     <path fill="rgb(44,139,199)" stroke="none" d="M 11373,10693 L 11373,9903 11971,9558 11971,10398 10274,11378 10274,10693 11373,10693 Z M 11363,10683 L 10274,10683 10274,10538 11363,9909 11363,10683 Z"/>
     <path fill="rgb(46,140,199)" stroke="none" d="M 11363,10683 L 11363,9909 11971,9558 11971,10398 10274,11378 10274,10683 11363,10683 Z M 11353,10673 L 10274,10673 10274,10538 11353,9915 11353,10673 Z"/>
     <path fill="rgb(47,141,200)" stroke="none" d="M 11353,10673 L 11353,9915 11971,9558 11971,10398 10274,11378 10274,10673 11353,10673 Z M 11343,10663 L 10274,10663 10274,10538 11343,9921 11343,10663 Z"/>
     <path fill="rgb(48,141,200)" stroke="none" d="M 11343,10663 L 11343,9921 11971,9558 11971,10398 10274,11378 10274,10663 11343,10663 Z M 11333,10653 L 10274,10653 10274,10538 11333,9926 11333,10653 Z"/>
     <path fill="rgb(50,142,201)" stroke="none" d="M 11333,10653 L 11333,9926 11971,9558 11971,10398 10274,11378 10274,10653 11333,10653 Z M 11323,10643 L 10274,10643 10274,10538 11323,9932 11323,10643 Z"/>
     <path fill="rgb(51,143,201)" stroke="none" d="M 11323,10643 L 11323,9932 11971,9558 11971,10398 10274,11378 10274,10643 11323,10643 Z M 11313,10633 L 10274,10633 10274,10538 11313,9938 11313,10633 Z"/>
     <path fill="rgb(53,144,201)" stroke="none" d="M 11313,10633 L 11313,9938 11971,9558 11971,10398 10274,11378 10274,10633 11313,10633 Z M 11303,10623 L 10274,10623 10274,10538 11303,9944 11303,10623 Z"/>
     <path fill="rgb(54,145,202)" stroke="none" d="M 11303,10623 L 11303,9944 11971,9558 11971,10398 10274,11378 10274,10623 11303,10623 Z M 11293,10613 L 10274,10613 10274,10538 11293,9950 11293,10613 Z"/>
     <path fill="rgb(55,145,202)" stroke="none" d="M 11293,10613 L 11293,9950 11971,9558 11971,10398 10274,11378 10274,10613 11293,10613 Z M 11283,10603 L 10282,10603 10282,10533 11283,9955 11283,10603 Z"/>
     <path fill="rgb(57,146,202)" stroke="none" d="M 10282,10603 L 11283,10603 11283,9955 11971,9558 11971,10398 10274,11378 10274,10538 10282,10533 10282,10603 Z M 11273,10593 L 10292,10593 10292,10528 11273,9961 11273,10593 Z"/>
     <path fill="rgb(58,147,203)" stroke="none" d="M 10292,10593 L 11273,10593 11273,9961 11971,9558 11971,10398 10274,11378 10274,10538 10292,10528 10292,10593 Z M 11263,10583 L 10302,10583 10302,10522 11263,9967 11263,10583 Z"/>
     <path fill="rgb(60,148,203)" stroke="none" d="M 10302,10583 L 11263,10583 11263,9967 11971,9558 11971,10398 10274,11378 10274,10538 10302,10522 10302,10583 Z M 11253,10573 L 10312,10573 10312,10516 11253,9973 11253,10573 Z"/>
     <path fill="rgb(61,148,203)" stroke="none" d="M 10312,10573 L 11253,10573 11253,9973 11971,9558 11971,10398 10274,11378 10274,10538 10312,10516 10312,10573 Z M 11243,10563 L 10322,10563 10322,10510 11243,9978 11243,10563 Z"/>
     <path fill="rgb(62,149,204)" stroke="none" d="M 10322,10563 L 11243,10563 11243,9978 11971,9558 11971,10398 10274,11378 10274,10538 10322,10510 10322,10563 Z M 11233,10553 L 10332,10553 10332,10505 11233,9984 11233,10553 Z"/>
     <path fill="rgb(64,150,204)" stroke="none" d="M 10332,10553 L 11233,10553 11233,9984 11971,9558 11971,10398 10274,11378 10274,10538 10332,10505 10332,10553 Z M 11223,10543 L 10342,10543 10342,10499 11223,9990 11223,10543 Z"/>
     <path fill="rgb(65,151,205)" stroke="none" d="M 10342,10543 L 11223,10543 11223,9990 11971,9558 11971,10398 10274,11378 10274,10538 10342,10499 10342,10543 Z M 11213,10533 L 10352,10533 10352,10493 11213,9996 11213,10533 Z"/>
     <path fill="rgb(66,151,205)" stroke="none" d="M 10352,10533 L 11213,10533 11213,9996 11971,9558 11971,10398 10274,11378 10274,10538 10352,10493 10352,10533 Z M 11203,10523 L 10362,10523 10362,10487 11203,10002 11203,10523 Z"/>
     <path fill="rgb(68,152,205)" stroke="none" d="M 10362,10523 L 11203,10523 11203,10002 11971,9558 11971,10398 10274,11378 10274,10538 10362,10487 10362,10523 Z M 11193,10513 L 10372,10513 10372,10481 11193,10007 11193,10513 Z"/>
     <path fill="rgb(69,153,206)" stroke="none" d="M 10372,10513 L 11193,10513 11193,10007 11971,9558 11971,10398 10274,11378 10274,10538 10372,10481 10372,10513 Z M 11183,10503 L 10382,10503 10382,10476 11183,10013 11183,10503 Z"/>
     <path fill="rgb(71,154,206)" stroke="none" d="M 10382,10503 L 11183,10503 11183,10013 11971,9558 11971,10398 10274,11378 10274,10538 10382,10476 10382,10503 Z M 11173,10493 L 10392,10493 10392,10470 11173,10019 11173,10493 Z"/>
     <path fill="rgb(72,155,206)" stroke="none" d="M 10392,10493 L 11173,10493 11173,10019 11971,9558 11971,10398 10274,11378 10274,10538 10392,10470 10392,10493 Z M 11163,10483 L 10402,10483 10402,10464 11163,10025 11163,10483 Z"/>
     <path fill="rgb(73,155,207)" stroke="none" d="M 10402,10483 L 11163,10483 11163,10025 11971,9558 11971,10398 10274,11378 10274,10538 10402,10464 10402,10483 Z M 11153,10473 L 10412,10473 10412,10458 11153,10030 11153,10473 Z"/>
     <path fill="rgb(75,156,207)" stroke="none" d="M 10412,10473 L 11153,10473 11153,10030 11971,9558 11971,10398 10274,11378 10274,10538 10412,10458 10412,10473 Z M 11143,10463 L 10422,10463 10422,10453 11143,10036 11143,10463 Z"/>
     <path fill="rgb(76,157,207)" stroke="none" d="M 10422,10463 L 11143,10463 11143,10036 11971,9558 11971,10398 10274,11378 10274,10538 10422,10453 10422,10463 Z M 11133,10453 L 10432,10453 10432,10447 11133,10042 11133,10453 Z"/>
     <path fill="rgb(78,158,208)" stroke="none" d="M 10432,10453 L 11133,10453 11133,10042 11971,9558 11971,10398 10274,11378 10274,10538 10432,10447 10432,10453 Z M 11123,10443 L 10442,10443 10442,10441 11123,10048 11123,10443 Z"/>
     <path fill="rgb(79,158,208)" stroke="none" d="M 10442,10443 L 11123,10443 11123,10048 11971,9558 11971,10398 10274,11378 10274,10538 10442,10441 10442,10443 Z M 11113,10433 L 10456,10433 11113,10053 11113,10433 Z"/>
     <path fill="rgb(80,159,209)" stroke="none" d="M 11113,10433 L 11113,10053 11971,9558 11971,10398 10274,11378 10274,10538 10456,10433 11113,10433 Z M 11103,10423 L 10473,10423 11103,10059 11103,10423 Z"/>
     <path fill="rgb(82,160,209)" stroke="none" d="M 11103,10423 L 11103,10059 11971,9558 11971,10398 10274,11378 10274,10538 10473,10423 11103,10423 Z M 11093,10413 L 10490,10413 11093,10065 11093,10413 Z"/>
     <path fill="rgb(83,161,209)" stroke="none" d="M 11093,10413 L 11093,10065 11971,9558 11971,10398 10274,11378 10274,10538 10490,10413 11093,10413 Z M 11082,10402 L 10510,10402 11082,10071 11082,10402 Z"/>
     <path fill="rgb(85,161,210)" stroke="none" d="M 11082,10402 L 11082,10071 11971,9558 11971,10398 10274,11378 10274,10538 10510,10402 11082,10402 Z M 11072,10392 L 10527,10392 11072,10077 11072,10392 Z"/>
     <path fill="rgb(86,162,210)" stroke="none" d="M 11072,10392 L 11072,10077 11971,9558 11971,10398 10274,11378 10274,10538 10527,10392 11072,10392 Z M 11062,10382 L 10544,10382 11062,10083 11062,10382 Z"/>
     <path fill="rgb(87,163,210)" stroke="none" d="M 11062,10382 L 11062,10083 11971,9558 11971,10398 10274,11378 10274,10538 10544,10382 11062,10382 Z M 11052,10372 L 10561,10372 11052,10089 11052,10372 Z"/>
     <path fill="rgb(89,164,211)" stroke="none" d="M 11052,10372 L 11052,10089 11971,9558 11971,10398 10274,11378 10274,10538 10561,10372 11052,10372 Z M 11042,10362 L 10579,10362 11042,10094 11042,10362 Z"/>
     <path fill="rgb(90,165,211)" stroke="none" d="M 11042,10362 L 11042,10094 11971,9558 11971,10398 10274,11378 10274,10538 10579,10362 11042,10362 Z M 11032,10352 L 10596,10352 11032,10100 11032,10352 Z"/>
     <path fill="rgb(92,165,211)" stroke="none" d="M 11032,10352 L 11032,10100 11971,9558 11971,10398 10274,11378 10274,10538 10596,10352 11032,10352 Z M 11022,10342 L 10613,10342 11022,10106 11022,10342 Z"/>
     <path fill="rgb(93,166,212)" stroke="none" d="M 11022,10342 L 11022,10106 11971,9558 11971,10398 10274,11378 10274,10538 10613,10342 11022,10342 Z M 11012,10332 L 10631,10332 11012,10112 11012,10332 Z"/>
     <path fill="rgb(94,167,212)" stroke="none" d="M 11012,10332 L 11012,10112 11971,9558 11971,10398 10274,11378 10274,10538 10631,10332 11012,10332 Z M 11002,10322 L 10648,10322 11002,10118 11002,10322 Z"/>
     <path fill="rgb(96,168,213)" stroke="none" d="M 11002,10322 L 11002,10118 11971,9558 11971,10398 10274,11378 10274,10538 10648,10322 11002,10322 Z M 10992,10312 L 10665,10312 10992,10123 10992,10312 Z"/>
     <path fill="rgb(97,168,213)" stroke="none" d="M 10992,10312 L 10992,10123 11971,9558 11971,10398 10274,11378 10274,10538 10665,10312 10992,10312 Z M 10982,10302 L 10683,10302 10982,10129 10982,10302 Z"/>
     <path fill="rgb(99,169,213)" stroke="none" d="M 10982,10302 L 10982,10129 11971,9558 11971,10398 10274,11378 10274,10538 10683,10302 10982,10302 Z M 10972,10292 L 10700,10292 10972,10135 10972,10292 Z"/>
     <path fill="rgb(100,170,214)" stroke="none" d="M 10972,10292 L 10972,10135 11971,9558 11971,10398 10274,11378 10274,10538 10700,10292 10972,10292 Z M 10962,10282 L 10717,10282 10962,10141 10962,10282 Z"/>
     <path fill="rgb(101,171,214)" stroke="none" d="M 10962,10282 L 10962,10141 11971,9558 11971,10398 10274,11378 10274,10538 10717,10282 10962,10282 Z M 10952,10272 L 10735,10272 10952,10146 10952,10272 Z"/>
     <path fill="rgb(103,171,214)" stroke="none" d="M 10952,10272 L 10952,10146 11971,9558 11971,10398 10274,11378 10274,10538 10735,10272 10952,10272 Z M 10942,10262 L 10752,10262 10942,10152 10942,10262 Z"/>
     <path fill="rgb(104,172,215)" stroke="none" d="M 10942,10262 L 10942,10152 11971,9558 11971,10398 10274,11378 10274,10538 10752,10262 10942,10262 Z M 10932,10252 L 10769,10252 10932,10158 10932,10252 Z"/>
     <path fill="rgb(106,173,215)" stroke="none" d="M 10932,10252 L 10932,10158 11971,9558 11971,10398 10274,11378 10274,10538 10769,10252 10932,10252 Z M 10922,10242 L 10787,10242 10922,10164 10922,10242 Z"/>
     <path fill="rgb(107,174,215)" stroke="none" d="M 10922,10242 L 10922,10164 11971,9558 11971,10398 10274,11378 10274,10538 10787,10242 10922,10242 Z M 10912,10232 L 10804,10232 10912,10170 10912,10232 Z"/>
     <path fill="rgb(108,175,216)" stroke="none" d="M 10912,10232 L 10912,10170 11971,9558 11971,10398 10274,11378 10274,10538 10804,10232 10912,10232 Z M 10902,10222 L 10821,10222 10902,10175 10902,10222 Z"/>
     <path fill="rgb(110,175,216)" stroke="none" d="M 10902,10222 L 10902,10175 11971,9558 11971,10398 10274,11378 10274,10538 10821,10222 10902,10222 Z M 10892,10212 L 10839,10212 10892,10181 10892,10212 Z"/>
     <path fill="rgb(111,176,217)" stroke="none" d="M 10892,10212 L 10892,10181 11971,9558 11971,10398 10274,11378 10274,10538 10839,10212 10892,10212 Z M 10882,10202 L 10856,10202 10882,10187 10882,10202 Z"/>
     <path fill="rgb(113,177,217)" stroke="none" d="M 10882,10202 L 10882,10187 11971,9558 11971,10398 10274,11378 10274,10538 10856,10202 10882,10202 Z"/>
     <path fill="rgb(114,178,217)" stroke="none" d="M 10274,11378 L 10274,10538 11971,9558 11971,10398 10274,11378 Z"/>
     <path fill="rgb(115,178,218)" stroke="none" d="M 10274,11378 L 10274,10538 11971,9558 11971,10398 10274,11378 Z"/>
     <path fill="rgb(117,179,218)" stroke="none" d="M 10274,11378 L 10274,10538 11971,9558 11971,10398 10274,11378 Z"/>
     <path fill="rgb(118,180,218)" stroke="none" d="M 10274,11378 L 10274,10538 11971,9558 11971,10398 10274,11378 Z"/>
     <path fill="rgb(120,181,219)" stroke="none" d="M 10274,11378 L 10274,10538 11971,9558 11971,10398 10274,11378 Z"/>
     <path fill="rgb(121,181,219)" stroke="none" d="M 10274,11378 L 10274,10538 11971,9558 11971,10398 10274,11378 Z"/>
     <path fill="rgb(122,182,219)" stroke="none" d="M 10274,11378 L 10274,10538 11971,9558 11971,10398 10274,11378 Z"/>
     <path fill="rgb(124,183,220)" stroke="none" d="M 10274,11378 L 10274,10538 11971,9558 11971,10398 10274,11378 Z"/>
     <path fill="rgb(127,185,221)" stroke="none" d="M 10274,11378 L 10274,10538 11971,9558 11971,10398 10274,11378 Z"/>
     <path fill="none" stroke="rgb(255,255,255)" id="Drawing_3_0" stroke-width="40" stroke-linejoin="round" d="M 10274,11378 L 10274,10538 11971,9558 11971,10398 10274,11378 Z"/>
    </g>
    <g>
     <defs>
      <linearGradient id="Gradient_1106" gradientUnits="userSpaceOnUse" x1="10273" y1="8578" x2="10273" y2="10538">
       <stop offset="0.1" stop-color="rgb(0,115,188)"/>
       <stop offset="1" stop-color="rgb(127,185,221)"/>
      </linearGradient>
     </defs>
     <path fill="url(#Gradient_1106)" stroke="rgb(255,255,255)" id="Drawing_4_0" stroke-width="40" stroke-linejoin="round" d="M 10274,10538 L 8576,9558 10274,8578 11971,9558 10274,10538 Z"/>
    </g>
    <g>
     <path fill="none" stroke="rgb(0,0,0)" id="Drawing_5_0" stroke-width="40" stroke-linejoin="round" d="M 8576,10398 L 8576,9558 10274,8578 11971,9558 11971,10398 10274,11378 8576,10398 Z"/>
    </g>
    <g>
     <path fill="rgb(255,255,255)" stroke="none" d="M 9303,9558 L 9546,9698 10274,9628 10274,9488 9546,9558 9424,9488 9545,9418 9182,9418 9182,9628 9303,9558 Z"/>
     <path fill="none" stroke="rgb(255,255,255)" id="Drawing_6_0" stroke-width="40" stroke-linejoin="round" d="M 9303,9558 L 9546,9698 10274,9628 10274,9488 9546,9558 9424,9488 9545,9418 9182,9418 9182,9628 9303,9558 Z"/>
    </g>
    <g>
     <path fill="rgb(255,255,255)" stroke="none" d="M 10273,10118 L 10152,10188 10516,10188 10516,9978 10395,10048 10274,9978 10395,9558 10152,9558 10031,9978 10273,10118 Z"/>
     <path fill="none" stroke="rgb(255,255,255)" id="Drawing_7_0" stroke-width="40" stroke-linejoin="round" d="M 10273,10118 L 10152,10188 10516,10188 10516,9978 10395,10048 10274,9978 10395,9558 10152,9558 10031,9978 10273,10118 Z"/>
    </g>
    <g>
     <path fill="rgb(255,255,255)" stroke="none" d="M 10152,9068 L 10274,9138 10152,9558 10395,9558 10516,9138 10273,8998 10394,8928 10031,8928 10031,9138 10152,9068 Z"/>
     <path fill="none" stroke="rgb(255,255,255)" id="Drawing_8_0" stroke-width="40" stroke-linejoin="round" d="M 10152,9068 L 10274,9138 10152,9558 10395,9558 10516,9138 10273,8998 10394,8928 10031,8928 10031,9138 10152,9068 Z"/>
    </g>
    <g>
     <path fill="rgb(255,255,255)" stroke="none" d="M 11121,9628 L 11000,9698 11364,9698 11364,9488 11243,9558 11001,9418 10274,9488 10274,9628 11001,9558 11121,9628 Z"/>
     <path fill="none" stroke="rgb(255,255,255)" id="Drawing_9_0" stroke-width="40" stroke-linejoin="round" d="M 11121,9628 L 11000,9698 11364,9698 11364,9488 11243,9558 11001,9418 10274,9488 10274,9628 11001,9558 11121,9628 Z"/>
    </g>
   </g>
  </g>
 </g>
</svg>