<?xml version="1.0" encoding="UTF-8"?>

<svg version="1.2" baseProfile="tiny" width="36.58mm" height="28.4mm" viewBox="14225 5534 3658 2840" preserveAspectRatio="xMidYMid" fill-rule="evenodd" stroke-width="28.222" stroke-linejoin="round" xmlns="http://www.w3.org/2000/svg" xmlns:xlink="http://www.w3.org/1999/xlink" xml:space="preserve">
 <g visibility="visible" id="Slide_1">
  <g id="DrawingGroup_1">
   <g>
    <path fill="rgb(221,221,221)" stroke="none" d="M 16031,8284 C 16506,8284 17729,7724 17850,7514 17971,7304 17729,7094 17608,7094 17608,7394 16031,7784 16031,8284 Z"/>
    <path fill="none" stroke="rgb(221,221,221)" id="Drawing_1_0" stroke-linejoin="round" d="M 16031,8284 C 16506,8284 17729,7724 17850,7514 17971,7304 17729,7094 17608,7094 17608,7394 16031,7784 16031,8284 Z"/>
   </g>
   <g id="DrawingGroup_2">
    <g>
     <defs>
      <linearGradient id="Gradient_1111" gradientUnits="userSpaceOnUse" x1="14243" y1="7443" x2="15945" y2="7445">
       <stop offset="0.1" stop-color="rgb(0,115,188)"/>
       <stop offset="1" stop-color="rgb(127,185,221)"/>
      </linearGradient>
     </defs>
     <path fill="url(#Gradient_1111)" stroke="rgb(255,255,255)" id="Drawing_2_0" stroke-width="40" stroke-linejoin="round" d="M 14245,7374 L 14245,6534 15943,7514 15943,8354 14245,7374 Z"/>
    </g>
    <g>
     <path fill="rgb(0,115,188)" stroke="none" d="M 17352,7540 L 16592,7979 15943,7979 15943,7514 17352,6700 17352,7540 Z"/>
     <path fill="rgb(1,115,188)" stroke="none" d="M 16592,7979 L 15943,8354 15943,7979 16592,7979 Z M 17352,6700 L 17640,6534 17640,7374 17352,7540 17352,6700 Z M 17342,7546 L 16610,7969 15943,7969 15943,7514 17342,6706 17342,7546 Z"/>
     <path fill="rgb(2,116,188)" stroke="none" d="M 16610,7969 L 15943,8354 15943,7969 16610,7969 Z M 17342,6706 L 17640,6534 17640,7374 17342,7546 17342,6706 Z M 17332,7552 L 16627,7959 15943,7959 15943,7514 17332,6712 17332,7552 Z"/>
     <path fill="rgb(4,117,189)" stroke="none" d="M 16627,7959 L 15943,8354 15943,7959 16627,7959 Z M 17332,6712 L 17640,6534 17640,7374 17332,7552 17332,6712 Z M 17322,7558 L 16644,7949 15943,7949 15943,7514 17322,6718 17322,7558 Z"/>
     <path fill="rgb(5,118,189)" stroke="none" d="M 16644,7949 L 15943,8354 15943,7949 16644,7949 Z M 17322,6718 L 17640,6534 17640,7374 17322,7558 17322,6718 Z M 17312,7563 L 16662,7939 15943,7939 15943,7514 17312,6723 17312,7563 Z"/>
     <path fill="rgb(6,118,189)" stroke="none" d="M 16662,7939 L 15943,8354 15943,7939 16662,7939 Z M 17312,6723 L 17640,6534 17640,7374 17312,7563 17312,6723 Z M 17302,7569 L 16679,7929 15943,7929 15943,7514 17302,6729 17302,7569 Z"/>
     <path fill="rgb(8,119,190)" stroke="none" d="M 16679,7929 L 15943,8354 15943,7929 16679,7929 Z M 17302,6729 L 17640,6534 17640,7374 17302,7569 17302,6729 Z M 17292,7575 L 16696,7919 15943,7919 15943,7514 17292,6735 17292,7575 Z"/>
     <path fill="rgb(9,120,190)" stroke="none" d="M 16696,7919 L 15943,8354 15943,7919 16696,7919 Z M 17292,6735 L 17640,6534 17640,7374 17292,7575 17292,6735 Z M 17282,7581 L 16714,7909 15943,7909 15943,7514 17282,6741 17282,7581 Z"/>
     <path fill="rgb(11,121,190)" stroke="none" d="M 16714,7909 L 15943,8354 15943,7909 16714,7909 Z M 17282,6741 L 17640,6534 17640,7374 17282,7581 17282,6741 Z M 17272,7587 L 16731,7899 15943,7899 15943,7514 17272,6747 17272,7587 Z"/>
     <path fill="rgb(12,121,191)" stroke="none" d="M 16731,7899 L 15943,8354 15943,7899 16731,7899 Z M 17272,6747 L 17640,6534 17640,7374 17272,7587 17272,6747 Z M 17262,7592 L 16748,7889 15943,7889 15943,7514 17262,6752 17262,7592 Z"/>
     <path fill="rgb(13,122,191)" stroke="none" d="M 16748,7889 L 15943,8354 15943,7889 16748,7889 Z M 17262,6752 L 17640,6534 17640,7374 17262,7592 17262,6752 Z M 17252,7598 L 16766,7879 15943,7879 15943,7514 17252,6758 17252,7598 Z"/>
     <path fill="rgb(15,123,191)" stroke="none" d="M 16766,7879 L 15943,8354 15943,7879 16766,7879 Z M 17252,6758 L 17640,6534 17640,7374 17252,7598 17252,6758 Z M 17242,7604 L 16783,7869 15943,7869 15943,7514 17242,6764 17242,7604 Z"/>
     <path fill="rgb(16,124,192)" stroke="none" d="M 16783,7869 L 15943,8354 15943,7869 16783,7869 Z M 17242,6764 L 17640,6534 17640,7374 17242,7604 17242,6764 Z M 17232,7610 L 16800,7859 15943,7859 15943,7514 17232,6770 17232,7610 Z"/>
     <path fill="rgb(18,125,192)" stroke="none" d="M 16800,7859 L 15943,8354 15943,7859 16800,7859 Z M 17232,6770 L 17640,6534 17640,7374 17232,7610 17232,6770 Z M 17222,7615 L 16817,7849 15943,7849 15943,7514 17222,6775 17222,7615 Z"/>
     <path fill="rgb(19,125,193)" stroke="none" d="M 16817,7849 L 15943,8354 15943,7849 16817,7849 Z M 17222,6775 L 17640,6534 17640,7374 17222,7615 17222,6775 Z M 17212,7621 L 16835,7839 15943,7839 15943,7514 17212,6781 17212,7621 Z"/>
     <path fill="rgb(20,126,193)" stroke="none" d="M 16835,7839 L 15943,8354 15943,7839 16835,7839 Z M 17212,6781 L 17640,6534 17640,7374 17212,7621 17212,6781 Z M 17202,7627 L 16852,7829 15943,7829 15943,7514 17202,6787 17202,7627 Z"/>
     <path fill="rgb(22,127,193)" stroke="none" d="M 16852,7829 L 15943,8354 15943,7829 16852,7829 Z M 17202,6787 L 17640,6534 17640,7374 17202,7627 17202,6787 Z M 17192,7633 L 16869,7819 15943,7819 15943,7514 17192,6793 17192,7633 Z"/>
     <path fill="rgb(23,128,194)" stroke="none" d="M 16869,7819 L 15943,8354 15943,7819 16869,7819 Z M 17192,6793 L 17640,6534 17640,7374 17192,7633 17192,6793 Z M 17182,7638 L 16887,7809 15943,7809 15943,7514 17182,6798 17182,7638 Z"/>
     <path fill="rgb(25,128,194)" stroke="none" d="M 16887,7809 L 15943,8354 15943,7809 16887,7809 Z M 17182,6798 L 17640,6534 17640,7374 17182,7638 17182,6798 Z M 17172,7644 L 16904,7799 15943,7799 15943,7514 17172,6804 17172,7644 Z"/>
     <path fill="rgb(26,129,194)" stroke="none" d="M 16904,7799 L 15943,8354 15943,7799 16904,7799 Z M 17172,6804 L 17640,6534 17640,7374 17172,7644 17172,6804 Z M 17162,7650 L 16921,7789 15943,7789 15943,7514 17162,6810 17162,7650 Z"/>
     <path fill="rgb(27,130,195)" stroke="none" d="M 16921,7789 L 15943,8354 15943,7789 16921,7789 Z M 17162,6810 L 17640,6534 17640,7374 17162,7650 17162,6810 Z M 17152,7656 L 16939,7779 15943,7779 15943,7514 17152,6816 17152,7656 Z"/>
     <path fill="rgb(29,131,195)" stroke="none" d="M 16939,7779 L 15943,8354 15943,7779 16939,7779 Z M 17152,6816 L 17640,6534 17640,7374 17152,7656 17152,6816 Z M 17142,7662 L 16956,7769 15943,7769 15943,7514 17142,6822 17142,7662 Z"/>
     <path fill="rgb(30,131,195)" stroke="none" d="M 16956,7769 L 15943,8354 15943,7769 16956,7769 Z M 17142,6822 L 17640,6534 17640,7374 17142,7662 17142,6822 Z M 17132,7667 L 16973,7759 15943,7759 15943,7514 17132,6827 17132,7667 Z"/>
     <path fill="rgb(32,132,196)" stroke="none" d="M 16973,7759 L 15943,8354 15943,7759 16973,7759 Z M 17132,6827 L 17640,6534 17640,7374 17132,7667 17132,6827 Z M 17122,7673 L 16991,7749 15943,7749 15943,7514 17122,6833 17122,7673 Z"/>
     <path fill="rgb(33,133,196)" stroke="none" d="M 16991,7749 L 15943,8354 15943,7749 16991,7749 Z M 17122,6833 L 17640,6534 17640,7374 17122,7673 17122,6833 Z M 17112,7679 L 17008,7739 15943,7739 15943,7514 17112,6839 17112,7679 Z"/>
     <path fill="rgb(34,134,197)" stroke="none" d="M 17008,7739 L 15943,8354 15943,7739 17008,7739 Z M 17112,6839 L 17640,6534 17640,7374 17112,7679 17112,6839 Z M 17102,7685 L 17025,7729 15943,7729 15943,7514 17102,6845 17102,7685 Z"/>
     <path fill="rgb(36,135,197)" stroke="none" d="M 17025,7729 L 15943,8354 15943,7729 17025,7729 Z M 17102,6845 L 17640,6534 17640,7374 17102,7685 17102,6845 Z M 17092,7690 L 17043,7719 15943,7719 15943,7514 17092,6850 17092,7690 Z"/>
     <path fill="rgb(37,135,197)" stroke="none" d="M 17043,7719 L 15943,8354 15943,7719 17043,7719 Z M 17092,6850 L 17640,6534 17640,7374 17092,7690 17092,6850 Z M 17082,7696 L 17060,7709 15943,7709 15943,7514 17082,6856 17082,7696 Z"/>
     <path fill="rgb(39,136,198)" stroke="none" d="M 17060,7709 L 15943,8354 15943,7709 17060,7709 Z M 17082,6856 L 17640,6534 17640,7374 17082,7696 17082,6856 Z M 17072,7699 L 15943,7699 15943,7514 17072,6862 17072,7699 Z"/>
     <path fill="rgb(40,137,198)" stroke="none" d="M 17072,7699 L 17072,6862 17640,6534 17640,7374 15943,8354 15943,7699 17072,7699 Z M 17062,7689 L 15943,7689 15943,7514 17062,6868 17062,7689 Z"/>
     <path fill="rgb(41,138,198)" stroke="none" d="M 17062,7689 L 17062,6868 17640,6534 17640,7374 15943,8354 15943,7689 17062,7689 Z M 17052,7679 L 15943,7679 15943,7514 17052,6874 17052,7679 Z"/>
     <path fill="rgb(43,138,199)" stroke="none" d="M 17052,7679 L 17052,6874 17640,6534 17640,7374 15943,8354 15943,7679 17052,7679 Z M 17042,7669 L 15943,7669 15943,7514 17042,6879 17042,7669 Z"/>
     <path fill="rgb(44,139,199)" stroke="none" d="M 17042,7669 L 17042,6879 17640,6534 17640,7374 15943,8354 15943,7669 17042,7669 Z M 17032,7659 L 15943,7659 15943,7514 17032,6885 17032,7659 Z"/>
     <path fill="rgb(46,140,199)" stroke="none" d="M 17032,7659 L 17032,6885 17640,6534 17640,7374 15943,8354 15943,7659 17032,7659 Z M 17022,7649 L 15943,7649 15943,7514 17022,6891 17022,7649 Z"/>
     <path fill="rgb(47,141,200)" stroke="none" d="M 17022,7649 L 17022,6891 17640,6534 17640,7374 15943,8354 15943,7649 17022,7649 Z M 17012,7639 L 15943,7639 15943,7514 17012,6897 17012,7639 Z"/>
     <path fill="rgb(48,141,200)" stroke="none" d="M 17012,7639 L 17012,6897 17640,6534 17640,7374 15943,8354 15943,7639 17012,7639 Z M 17002,7629 L 15943,7629 15943,7514 17002,6902 17002,7629 Z"/>
     <path fill="rgb(50,142,201)" stroke="none" d="M 17002,7629 L 17002,6902 17640,6534 17640,7374 15943,8354 15943,7629 17002,7629 Z M 16992,7619 L 15943,7619 15943,7514 16992,6908 16992,7619 Z"/>
     <path fill="rgb(51,143,201)" stroke="none" d="M 16992,7619 L 16992,6908 17640,6534 17640,7374 15943,8354 15943,7619 16992,7619 Z M 16982,7609 L 15943,7609 15943,7514 16982,6914 16982,7609 Z"/>
     <path fill="rgb(53,144,201)" stroke="none" d="M 16982,7609 L 16982,6914 17640,6534 17640,7374 15943,8354 15943,7609 16982,7609 Z M 16972,7599 L 15943,7599 15943,7514 16972,6920 16972,7599 Z"/>
     <path fill="rgb(54,145,202)" stroke="none" d="M 16972,7599 L 16972,6920 17640,6534 17640,7374 15943,8354 15943,7599 16972,7599 Z M 16962,7589 L 15943,7589 15943,7514 16962,6926 16962,7589 Z"/>
     <path fill="rgb(55,145,202)" stroke="none" d="M 16962,7589 L 16962,6926 17640,6534 17640,7374 15943,8354 15943,7589 16962,7589 Z M 16952,7579 L 15951,7579 15951,7509 16952,6931 16952,7579 Z"/>
     <path fill="rgb(57,146,202)" stroke="none" d="M 15951,7579 L 16952,7579 16952,6931 17640,6534 17640,7374 15943,8354 15943,7514 15951,7509 15951,7579 Z M 16942,7569 L 15961,7569 15961,7504 16942,6937 16942,7569 Z"/>
     <path fill="rgb(58,147,203)" stroke="none" d="M 15961,7569 L 16942,7569 16942,6937 17640,6534 17640,7374 15943,8354 15943,7514 15961,7504 15961,7569 Z M 16932,7559 L 15971,7559 15971,7498 16932,6943 16932,7559 Z"/>
     <path fill="rgb(60,148,203)" stroke="none" d="M 15971,7559 L 16932,7559 16932,6943 17640,6534 17640,7374 15943,8354 15943,7514 15971,7498 15971,7559 Z M 16922,7549 L 15981,7549 15981,7492 16922,6949 16922,7549 Z"/>
     <path fill="rgb(61,148,203)" stroke="none" d="M 15981,7549 L 16922,7549 16922,6949 17640,6534 17640,7374 15943,8354 15943,7514 15981,7492 15981,7549 Z M 16912,7539 L 15991,7539 15991,7486 16912,6954 16912,7539 Z"/>
     <path fill="rgb(62,149,204)" stroke="none" d="M 15991,7539 L 16912,7539 16912,6954 17640,6534 17640,7374 15943,8354 15943,7514 15991,7486 15991,7539 Z M 16902,7529 L 16001,7529 16001,7481 16902,6960 16902,7529 Z"/>
     <path fill="rgb(64,150,204)" stroke="none" d="M 16001,7529 L 16902,7529 16902,6960 17640,6534 17640,7374 15943,8354 15943,7514 16001,7481 16001,7529 Z M 16892,7519 L 16011,7519 16011,7475 16892,6966 16892,7519 Z"/>
     <path fill="rgb(65,151,205)" stroke="none" d="M 16011,7519 L 16892,7519 16892,6966 17640,6534 17640,7374 15943,8354 15943,7514 16011,7475 16011,7519 Z M 16882,7509 L 16021,7509 16021,7469 16882,6972 16882,7509 Z"/>
     <path fill="rgb(66,151,205)" stroke="none" d="M 16021,7509 L 16882,7509 16882,6972 17640,6534 17640,7374 15943,8354 15943,7514 16021,7469 16021,7509 Z M 16872,7499 L 16031,7499 16031,7463 16872,6978 16872,7499 Z"/>
     <path fill="rgb(68,152,205)" stroke="none" d="M 16031,7499 L 16872,7499 16872,6978 17640,6534 17640,7374 15943,8354 15943,7514 16031,7463 16031,7499 Z M 16862,7489 L 16041,7489 16041,7457 16862,6983 16862,7489 Z"/>
     <path fill="rgb(69,153,206)" stroke="none" d="M 16041,7489 L 16862,7489 16862,6983 17640,6534 17640,7374 15943,8354 15943,7514 16041,7457 16041,7489 Z M 16852,7479 L 16051,7479 16051,7452 16852,6989 16852,7479 Z"/>
     <path fill="rgb(71,154,206)" stroke="none" d="M 16051,7479 L 16852,7479 16852,6989 17640,6534 17640,7374 15943,8354 15943,7514 16051,7452 16051,7479 Z M 16842,7469 L 16061,7469 16061,7446 16842,6995 16842,7469 Z"/>
     <path fill="rgb(72,155,206)" stroke="none" d="M 16061,7469 L 16842,7469 16842,6995 17640,6534 17640,7374 15943,8354 15943,7514 16061,7446 16061,7469 Z M 16832,7459 L 16071,7459 16071,7440 16832,7001 16832,7459 Z"/>
     <path fill="rgb(73,155,207)" stroke="none" d="M 16071,7459 L 16832,7459 16832,7001 17640,6534 17640,7374 15943,8354 15943,7514 16071,7440 16071,7459 Z M 16822,7449 L 16081,7449 16081,7434 16822,7006 16822,7449 Z"/>
     <path fill="rgb(75,156,207)" stroke="none" d="M 16081,7449 L 16822,7449 16822,7006 17640,6534 17640,7374 15943,8354 15943,7514 16081,7434 16081,7449 Z M 16812,7439 L 16091,7439 16091,7429 16812,7012 16812,7439 Z"/>
     <path fill="rgb(76,157,207)" stroke="none" d="M 16091,7439 L 16812,7439 16812,7012 17640,6534 17640,7374 15943,8354 15943,7514 16091,7429 16091,7439 Z M 16802,7429 L 16101,7429 16101,7423 16802,7018 16802,7429 Z"/>
     <path fill="rgb(78,158,208)" stroke="none" d="M 16101,7429 L 16802,7429 16802,7018 17640,6534 17640,7374 15943,8354 15943,7514 16101,7423 16101,7429 Z M 16792,7419 L 16111,7419 16111,7417 16792,7024 16792,7419 Z"/>
     <path fill="rgb(79,158,208)" stroke="none" d="M 16111,7419 L 16792,7419 16792,7024 17640,6534 17640,7374 15943,8354 15943,7514 16111,7417 16111,7419 Z M 16782,7409 L 16125,7409 16782,7029 16782,7409 Z"/>
     <path fill="rgb(80,159,209)" stroke="none" d="M 16782,7409 L 16782,7029 17640,6534 17640,7374 15943,8354 15943,7514 16125,7409 16782,7409 Z M 16772,7399 L 16142,7399 16772,7035 16772,7399 Z"/>
     <path fill="rgb(82,160,209)" stroke="none" d="M 16772,7399 L 16772,7035 17640,6534 17640,7374 15943,8354 15943,7514 16142,7399 16772,7399 Z M 16762,7389 L 16159,7389 16762,7041 16762,7389 Z"/>
     <path fill="rgb(83,161,209)" stroke="none" d="M 16762,7389 L 16762,7041 17640,6534 17640,7374 15943,8354 15943,7514 16159,7389 16762,7389 Z M 16751,7378 L 16179,7378 16751,7047 16751,7378 Z"/>
     <path fill="rgb(85,161,210)" stroke="none" d="M 16751,7378 L 16751,7047 17640,6534 17640,7374 15943,8354 15943,7514 16179,7378 16751,7378 Z M 16741,7368 L 16196,7368 16741,7053 16741,7368 Z"/>
     <path fill="rgb(86,162,210)" stroke="none" d="M 16741,7368 L 16741,7053 17640,6534 17640,7374 15943,8354 15943,7514 16196,7368 16741,7368 Z M 16731,7358 L 16213,7358 16731,7059 16731,7358 Z"/>
     <path fill="rgb(87,163,210)" stroke="none" d="M 16731,7358 L 16731,7059 17640,6534 17640,7374 15943,8354 15943,7514 16213,7358 16731,7358 Z M 16721,7348 L 16230,7348 16721,7065 16721,7348 Z"/>
     <path fill="rgb(89,164,211)" stroke="none" d="M 16721,7348 L 16721,7065 17640,6534 17640,7374 15943,8354 15943,7514 16230,7348 16721,7348 Z M 16711,7338 L 16248,7338 16711,7070 16711,7338 Z"/>
     <path fill="rgb(90,165,211)" stroke="none" d="M 16711,7338 L 16711,7070 17640,6534 17640,7374 15943,8354 15943,7514 16248,7338 16711,7338 Z M 16701,7328 L 16265,7328 16701,7076 16701,7328 Z"/>
     <path fill="rgb(92,165,211)" stroke="none" d="M 16701,7328 L 16701,7076 17640,6534 17640,7374 15943,8354 15943,7514 16265,7328 16701,7328 Z M 16691,7318 L 16282,7318 16691,7082 16691,7318 Z"/>
     <path fill="rgb(93,166,212)" stroke="none" d="M 16691,7318 L 16691,7082 17640,6534 17640,7374 15943,8354 15943,7514 16282,7318 16691,7318 Z M 16681,7308 L 16300,7308 16681,7088 16681,7308 Z"/>
     <path fill="rgb(94,167,212)" stroke="none" d="M 16681,7308 L 16681,7088 17640,6534 17640,7374 15943,8354 15943,7514 16300,7308 16681,7308 Z M 16671,7298 L 16317,7298 16671,7094 16671,7298 Z"/>
     <path fill="rgb(96,168,213)" stroke="none" d="M 16671,7298 L 16671,7094 17640,6534 17640,7374 15943,8354 15943,7514 16317,7298 16671,7298 Z M 16661,7288 L 16334,7288 16661,7099 16661,7288 Z"/>
     <path fill="rgb(97,168,213)" stroke="none" d="M 16661,7288 L 16661,7099 17640,6534 17640,7374 15943,8354 15943,7514 16334,7288 16661,7288 Z M 16651,7278 L 16352,7278 16651,7105 16651,7278 Z"/>
     <path fill="rgb(99,169,213)" stroke="none" d="M 16651,7278 L 16651,7105 17640,6534 17640,7374 15943,8354 15943,7514 16352,7278 16651,7278 Z M 16641,7268 L 16369,7268 16641,7111 16641,7268 Z"/>
     <path fill="rgb(100,170,214)" stroke="none" d="M 16641,7268 L 16641,7111 17640,6534 17640,7374 15943,8354 15943,7514 16369,7268 16641,7268 Z M 16631,7258 L 16386,7258 16631,7117 16631,7258 Z"/>
     <path fill="rgb(101,171,214)" stroke="none" d="M 16631,7258 L 16631,7117 17640,6534 17640,7374 15943,8354 15943,7514 16386,7258 16631,7258 Z M 16621,7248 L 16404,7248 16621,7122 16621,7248 Z"/>
     <path fill="rgb(103,171,214)" stroke="none" d="M 16621,7248 L 16621,7122 17640,6534 17640,7374 15943,8354 15943,7514 16404,7248 16621,7248 Z M 16611,7238 L 16421,7238 16611,7128 16611,7238 Z"/>
     <path fill="rgb(104,172,215)" stroke="none" d="M 16611,7238 L 16611,7128 17640,6534 17640,7374 15943,8354 15943,7514 16421,7238 16611,7238 Z M 16601,7228 L 16438,7228 16601,7134 16601,7228 Z"/>
     <path fill="rgb(106,173,215)" stroke="none" d="M 16601,7228 L 16601,7134 17640,6534 17640,7374 15943,8354 15943,7514 16438,7228 16601,7228 Z M 16591,7218 L 16456,7218 16591,7140 16591,7218 Z"/>
     <path fill="rgb(107,174,215)" stroke="none" d="M 16591,7218 L 16591,7140 17640,6534 17640,7374 15943,8354 15943,7514 16456,7218 16591,7218 Z M 16581,7208 L 16473,7208 16581,7146 16581,7208 Z"/>
     <path fill="rgb(108,175,216)" stroke="none" d="M 16581,7208 L 16581,7146 17640,6534 17640,7374 15943,8354 15943,7514 16473,7208 16581,7208 Z M 16571,7198 L 16490,7198 16571,7151 16571,7198 Z"/>
     <path fill="rgb(110,175,216)" stroke="none" d="M 16571,7198 L 16571,7151 17640,6534 17640,7374 15943,8354 15943,7514 16490,7198 16571,7198 Z M 16561,7188 L 16508,7188 16561,7157 16561,7188 Z"/>
     <path fill="rgb(111,176,217)" stroke="none" d="M 16561,7188 L 16561,7157 17640,6534 17640,7374 15943,8354 15943,7514 16508,7188 16561,7188 Z M 16551,7178 L 16525,7178 16551,7163 16551,7178 Z"/>
     <path fill="rgb(113,177,217)" stroke="none" d="M 16551,7178 L 16551,7163 17640,6534 17640,7374 15943,8354 15943,7514 16525,7178 16551,7178 Z"/>
     <path fill="rgb(114,178,217)" stroke="none" d="M 15943,8354 L 15943,7514 17640,6534 17640,7374 15943,8354 Z"/>
     <path fill="rgb(115,178,218)" stroke="none" d="M 15943,8354 L 15943,7514 17640,6534 17640,7374 15943,8354 Z"/>
     <path fill="rgb(117,179,218)" stroke="none" d="M 15943,8354 L 15943,7514 17640,6534 17640,7374 15943,8354 Z"/>
     <path fill="rgb(118,180,218)" stroke="none" d="M 15943,8354 L 15943,7514 17640,6534 17640,7374 15943,8354 Z"/>
     <path fill="rgb(120,181,219)" stroke="none" d="M 15943,8354 L 15943,7514 17640,6534 17640,7374 15943,8354 Z"/>
     <path fill="rgb(121,181,219)" stroke="none" d="M 15943,8354 L 15943,7514 17640,6534 17640,7374 15943,8354 Z"/>
     <path fill="rgb(122,182,219)" stroke="none" d="M 15943,8354 L 15943,7514 17640,6534 17640,7374 15943,8354 Z"/>
     <path fill="rgb(124,183,220)" stroke="none" d="M 15943,8354 L 15943,7514 17640,6534 17640,7374 15943,8354 Z"/>
     <path fill="rgb(127,185,221)" stroke="none" d="M 15943,8354 L 15943,7514 17640,6534 17640,7374 15943,8354 Z"/>
     <path fill="none" stroke="rgb(255,255,255)" id="Drawing_3_0" stroke-width="40" stroke-linejoin="round" d="M 15943,8354 L 15943,7514 17640,6534 17640,7374 15943,8354 Z"/>
    </g>
    <g>
     <defs>
      <linearGradient id="Gradient_1112" gradientUnits="userSpaceOnUse" x1="15942" y1="5554" x2="15942" y2="7514">
       <stop offset="0.1" stop-color="rgb(0,115,188)"/>
       <stop offset="1" stop-color="rgb(127,185,221)"/>
      </linearGradient>
     </defs>
     <path fill="url(#Gradient_1112)" stroke="rgb(255,255,255)" id="Drawing_4_0" stroke-width="40" stroke-linejoin="round" d="M 15943,7514 L 14245,6534 15943,5554 17640,6534 15943,7514 Z"/>
    </g>
    <g>
     <path fill="none" stroke="rgb(0,0,0)" id="Drawing_5_0" stroke-width="40" stroke-linejoin="round" d="M 14245,7374 L 14245,6534 15943,5554 17640,6534 17640,7374 15943,8354 14245,7374 Z"/>
    </g>
    <g>
     <path fill="rgb(255,255,255)" stroke="none" d="M 16791,6464 L 15943,6464 15943,6604 16791,6604 16791,6464 Z"/>
     <path fill="none" stroke="rgb(255,255,255)" id="Drawing_6_0" stroke-width="40" stroke-linejoin="round" d="M 16791,6464 L 15943,6464 15943,6604 16791,6604 16791,6464 Z"/>
    </g>
    <g>
     <path fill="rgb(255,255,255)" stroke="none" d="M 16064,7024 L 16064,6534 15821,6534 15821,7024 16064,7024 Z"/>
     <path fill="none" stroke="rgb(255,255,255)" id="Drawing_7_0" stroke-width="40" stroke-linejoin="round" d="M 16064,7024 L 16064,6534 15821,6534 15821,7024 16064,7024 Z"/>
    </g>
    <g>
     <path fill="rgb(255,255,255)" stroke="none" d="M 15821,6604 L 16063,6464 15700,6254 15458,6394 15821,6604 Z"/>
     <path fill="none" stroke="rgb(255,255,255)" id="Drawing_8_0" stroke-width="40" stroke-linejoin="round" d="M 15821,6604 L 16063,6464 15700,6254 15458,6394 15821,6604 Z"/>
    </g>
    <g>
     <path fill="rgb(255,255,255)" stroke="none" d="M 15456,6044 C 15662,6044 15819,6134 15819,6253 15819,6372 15662,6463 15456,6463 15250,6463 15093,6372 15093,6253 15093,6134 15250,6044 15456,6044 Z"/>
     <path fill="none" stroke="rgb(255,255,255)" id="Drawing_9_0" stroke-width="40" stroke-linejoin="round" d="M 15456,6044 C 15662,6044 15819,6134 15819,6253 15819,6372 15662,6463 15456,6463 15250,6463 15093,6372 15093,6253 15093,6134 15250,6044 15456,6044 Z"/>
     <rect fill="none" stroke="none" x="15094" y="6044" width="728" height="421"/>
    </g>
    <g>
     <path fill="rgb(255,255,255)" stroke="none" d="M 15941,6884 C 16147,6884 16304,6974 16304,7093 16304,7212 16147,7303 15941,7303 15735,7303 15578,7212 15578,7093 15578,6974 15735,6884 15941,6884 Z"/>
     <path fill="none" stroke="rgb(255,255,255)" id="Drawing_10_0" stroke-width="40" stroke-linejoin="round" d="M 15941,6884 C 16147,6884 16304,6974 16304,7093 16304,7212 16147,7303 15941,7303 15735,7303 15578,7212 15578,7093 15578,6974 15735,6884 15941,6884 Z"/>
     <rect fill="none" stroke="none" x="15579" y="6884" width="728" height="421"/>
    </g>
    <g>
     <path fill="rgb(255,255,255)" stroke="none" d="M 16911,6324 C 17117,6324 17274,6414 17274,6533 17274,6652 17117,6743 16911,6743 16705,6743 16548,6652 16548,6533 16548,6414 16705,6324 16911,6324 Z"/>
     <path fill="none" stroke="rgb(255,255,255)" id="Drawing_11_0" stroke-width="40" stroke-linejoin="round" d="M 16911,6324 C 17117,6324 17274,6414 17274,6533 17274,6652 17117,6743 16911,6743 16705,6743 16548,6652 16548,6533 16548,6414 16705,6324 16911,6324 Z"/>
     <rect fill="none" stroke="none" x="16549" y="6324" width="728" height="421"/>
    </g>
   </g>
  </g>
 </g>
</svg>