<?xml version="1.0" encoding="UTF-8"?>

<svg version="1.2" baseProfile="tiny" width="71.46mm" height="45.2mm" viewBox="4808 12443 7146 4520" preserveAspectRatio="xMidYMid" fill-rule="evenodd" stroke-width="28.222" stroke-linejoin="round" xmlns="http://www.w3.org/2000/svg" xmlns:xlink="http://www.w3.org/1999/xlink" xml:space="preserve">
 <g visibility="visible" id="Slide_1">
  <g id="DrawingGroup_1">
   <g>
    <path fill="rgb(221,221,221)" stroke="none" d="M 9678,16803 C 10021,16803 11954,16221 11954,15859 11954,15498 11047,15137 10704,15137 10704,15354 9678,16514 9678,16803 Z"/>
    <path fill="none" stroke="rgb(221,221,221)" id="Drawing_1_0" stroke-linejoin="round" d="M 9678,16803 C 10021,16803 11954,16221 11954,15859 11954,15498 11047,15137 10704,15137 10704,15354 9678,16514 9678,16803 Z"/>
   </g>
   <g id="DrawingGroup_2">
    <g>
     <defs>
      <linearGradient id="Gradient_1164" gradientUnits="userSpaceOnUse" x1="5075" y1="15169" x2="9457" y2="15177">
       <stop offset="0.1" stop-color="rgb(179,179,179)"/>
       <stop offset="1" stop-color="rgb(229,229,229)"/>
      </linearGradient>
     </defs>
     <path fill="url(#Gradient_1164)" stroke="rgb(255,255,255)" id="Drawing_2_0" stroke-width="40" stroke-linejoin="round" d="M 5078,14270 L 5078,13547 9454,16076 9454,16799 5078,14270 Z"/>
    </g>
    <g>
     <path fill="rgb(179,179,179)" stroke="none" d="M 10935,15943 L 10052,16453 9454,16453 9454,16076 10935,15220 10935,15943 Z"/>
     <path fill="rgb(180,180,180)" stroke="none" d="M 10052,16453 L 9454,16799 9454,16453 10052,16453 Z M 10935,15220 L 11329,14992 11329,15715 10935,15943 10935,15220 Z M 10916,15954 L 10085,16434 9454,16434 9454,16076 10916,15231 10916,15954 Z"/>
     <path fill="rgb(181,181,181)" stroke="none" d="M 10085,16434 L 9454,16799 9454,16434 10085,16434 Z M 10916,15231 L 11329,14992 11329,15715 10916,15954 10916,15231 Z M 10897,15965 L 10118,16415 9454,16415 9454,16076 10897,15242 10897,15965 Z"/>
     <path fill="rgb(182,182,182)" stroke="none" d="M 10118,16415 L 9454,16799 9454,16415 10118,16415 Z M 10897,15242 L 11329,14992 11329,15715 10897,15965 10897,15242 Z M 10878,15976 L 10151,16396 9454,16396 9454,16076 10878,15253 10878,15976 Z"/>
     <path fill="rgb(183,183,183)" stroke="none" d="M 10151,16396 L 9454,16799 9454,16396 10151,16396 Z M 10878,15253 L 11329,14992 11329,15715 10878,15976 10878,15253 Z M 10860,15986 L 10182,16378 9454,16378 9454,16076 10860,15263 10860,15986 Z"/>
     <path fill="rgb(184,184,184)" stroke="none" d="M 10182,16378 L 9454,16799 9454,16378 10182,16378 Z M 10860,15263 L 11329,14992 11329,15715 10860,15986 10860,15263 Z M 10841,15997 L 10215,16359 9454,16359 9454,16076 10841,15274 10841,15997 Z"/>
     <path fill="rgb(185,185,185)" stroke="none" d="M 10215,16359 L 9454,16799 9454,16359 10215,16359 Z M 10841,15274 L 11329,14992 11329,15715 10841,15997 10841,15274 Z M 10822,16008 L 10248,16340 9454,16340 9454,16076 10822,15285 10822,16008 Z"/>
     <path fill="rgb(186,186,186)" stroke="none" d="M 10248,16340 L 9454,16799 9454,16340 10248,16340 Z M 10822,15285 L 11329,14992 11329,15715 10822,16008 10822,15285 Z M 10803,16019 L 10281,16321 9454,16321 9454,16076 10803,15296 10803,16019 Z"/>
     <path fill="rgb(187,187,187)" stroke="none" d="M 10281,16321 L 9454,16799 9454,16321 10281,16321 Z M 10803,15296 L 11329,14992 11329,15715 10803,16019 10803,15296 Z M 10784,16030 L 10314,16302 9454,16302 9454,16076 10784,15307 10784,16030 Z"/>
     <path fill="rgb(188,188,188)" stroke="none" d="M 10314,16302 L 9454,16799 9454,16302 10314,16302 Z M 10784,15307 L 11329,14992 11329,15715 10784,16030 10784,15307 Z M 10766,16040 L 10345,16284 9454,16284 9454,16076 10766,15317 10766,16040 Z"/>
     <path fill="rgb(189,189,189)" stroke="none" d="M 10345,16284 L 9454,16799 9454,16284 10345,16284 Z M 10766,15317 L 11329,14992 11329,15715 10766,16040 10766,15317 Z M 10747,16051 L 10378,16265 9454,16265 9454,16076 10747,15328 10747,16051 Z"/>
     <path fill="rgb(190,190,190)" stroke="none" d="M 10378,16265 L 9454,16799 9454,16265 10378,16265 Z M 10747,15328 L 11329,14992 11329,15715 10747,16051 10747,15328 Z M 10728,16062 L 10411,16246 9454,16246 9454,16076 10728,15339 10728,16062 Z"/>
     <path fill="rgb(191,191,191)" stroke="none" d="M 10411,16246 L 9454,16799 9454,16246 10411,16246 Z M 10728,15339 L 11329,14992 11329,15715 10728,16062 10728,15339 Z M 10709,16073 L 10443,16227 9454,16227 9454,16076 10709,15350 10709,16073 Z"/>
     <path fill="rgb(192,192,192)" stroke="none" d="M 10443,16227 L 9454,16799 9454,16227 10443,16227 Z M 10709,15350 L 11329,14992 11329,15715 10709,16073 10709,15350 Z M 10691,16084 L 10475,16209 9454,16209 9454,16076 10691,15361 10691,16084 Z"/>
     <path fill="rgb(193,193,193)" stroke="none" d="M 10475,16209 L 9454,16799 9454,16209 10475,16209 Z M 10691,15361 L 11329,14992 11329,15715 10691,16084 10691,15361 Z M 10672,16095 L 10507,16190 9454,16190 9454,16076 10672,15372 10672,16095 Z"/>
     <path fill="rgb(194,194,194)" stroke="none" d="M 10507,16190 L 9454,16799 9454,16190 10507,16190 Z M 10672,15372 L 11329,14992 11329,15715 10672,16095 10672,15372 Z M 10653,16106 L 10540,16171 9454,16171 9454,16076 10653,15383 10653,16106 Z"/>
     <path fill="rgb(195,195,195)" stroke="none" d="M 10540,16171 L 9454,16799 9454,16171 10540,16171 Z M 10653,15383 L 11329,14992 11329,15715 10653,16106 10653,15383 Z M 10634,16117 L 10573,16152 9454,16152 9454,16076 10634,15394 10634,16117 Z"/>
     <path fill="rgb(196,196,196)" stroke="none" d="M 10573,16152 L 9454,16799 9454,16152 10573,16152 Z M 10634,15394 L 11329,14992 11329,15715 10634,16117 10634,15394 Z M 10615,16128 L 10606,16133 9454,16133 9454,16076 10615,15405 10615,16128 Z"/>
     <path fill="rgb(197,197,197)" stroke="none" d="M 10606,16133 L 9454,16799 9454,16133 10606,16133 Z M 10615,15405 L 11329,14992 11329,15715 10615,16128 10615,15405 Z M 10597,16115 L 9454,16115 9454,16076 10597,15415 10597,16115 Z"/>
     <path fill="rgb(198,198,198)" stroke="none" d="M 10597,16115 L 10597,15415 11329,14992 11329,15715 9454,16799 9454,16115 10597,16115 Z M 10578,16096 L 9454,16096 9454,16076 10578,15426 10578,16096 Z"/>
     <path fill="rgb(199,199,199)" stroke="none" d="M 10578,16096 L 10578,15426 11329,14992 11329,15715 9454,16799 9454,16096 10578,16096 Z M 10559,16077 L 9471,16077 9471,16066 10559,15437 10559,16077 Z"/>
     <path fill="rgb(200,200,200)" stroke="none" d="M 9471,16077 L 10559,16077 10559,15437 11329,14992 11329,15715 9454,16799 9454,16076 9471,16066 9471,16077 Z M 10540,16058 L 9490,16058 9490,16055 10540,15448 10540,16058 Z"/>
     <path fill="rgb(201,201,201)" stroke="none" d="M 9490,16058 L 10540,16058 10540,15448 11329,14992 11329,15715 9454,16799 9454,16076 9490,16055 9490,16058 Z M 10522,16040 L 9516,16040 10522,15459 10522,16040 Z"/>
     <path fill="rgb(202,202,202)" stroke="none" d="M 10522,16040 L 10522,15459 11329,14992 11329,15715 9454,16799 9454,16076 9516,16040 10522,16040 Z M 10503,16021 L 9549,16021 10503,15470 10503,16021 Z"/>
     <path fill="rgb(203,203,203)" stroke="none" d="M 10503,16021 L 10503,15470 11329,14992 11329,15715 9454,16799 9454,16076 9549,16021 10503,16021 Z M 10484,16002 L 9582,16002 10484,15481 10484,16002 Z"/>
     <path fill="rgb(204,204,204)" stroke="none" d="M 10484,16002 L 10484,15481 11329,14992 11329,15715 9454,16799 9454,16076 9582,16002 10484,16002 Z M 10465,15983 L 9615,15983 10465,15492 10465,15983 Z"/>
     <path fill="rgb(205,205,205)" stroke="none" d="M 10465,15983 L 10465,15492 11329,14992 11329,15715 9454,16799 9454,16076 9615,15983 10465,15983 Z M 10446,15964 L 9648,15964 10446,15502 10446,15964 Z"/>
     <path fill="rgb(206,206,206)" stroke="none" d="M 10446,15964 L 10446,15502 11329,14992 11329,15715 9454,16799 9454,16076 9648,15964 10446,15964 Z M 10428,15946 L 9679,15946 10428,15513 10428,15946 Z"/>
     <path fill="rgb(207,207,207)" stroke="none" d="M 10428,15946 L 10428,15513 11329,14992 11329,15715 9454,16799 9454,16076 9679,15946 10428,15946 Z M 10409,15927 L 9712,15927 10409,15524 10409,15927 Z"/>
     <path fill="rgb(208,208,208)" stroke="none" d="M 10409,15927 L 10409,15524 11329,14992 11329,15715 9454,16799 9454,16076 9712,15927 10409,15927 Z M 10390,15908 L 9745,15908 10390,15535 10390,15908 Z"/>
     <path fill="rgb(209,209,209)" stroke="none" d="M 10390,15908 L 10390,15535 11329,14992 11329,15715 9454,16799 9454,16076 9745,15908 10390,15908 Z M 10371,15889 L 9777,15889 10371,15546 10371,15889 Z"/>
     <path fill="rgb(210,210,210)" stroke="none" d="M 10371,15889 L 10371,15546 11329,14992 11329,15715 9454,16799 9454,16076 9777,15889 10371,15889 Z M 10353,15871 L 9809,15871 10353,15556 10353,15871 Z"/>
     <path fill="rgb(211,211,211)" stroke="none" d="M 10353,15871 L 10353,15556 11329,14992 11329,15715 9454,16799 9454,16076 9809,15871 10353,15871 Z M 10334,15852 L 9841,15852 10334,15567 10334,15852 Z"/>
     <path fill="rgb(212,212,212)" stroke="none" d="M 10334,15852 L 10334,15567 11329,14992 11329,15715 9454,16799 9454,16076 9841,15852 10334,15852 Z M 10315,15833 L 9874,15833 10315,15578 10315,15833 Z"/>
     <path fill="rgb(213,213,213)" stroke="none" d="M 10315,15833 L 10315,15578 11329,14992 11329,15715 9454,16799 9454,16076 9874,15833 10315,15833 Z M 10296,15814 L 9907,15814 10296,15589 10296,15814 Z"/>
     <path fill="rgb(214,214,214)" stroke="none" d="M 10296,15814 L 10296,15589 11329,14992 11329,15715 9454,16799 9454,16076 9907,15814 10296,15814 Z M 10277,15795 L 9940,15795 10277,15600 10277,15795 Z"/>
     <path fill="rgb(215,215,215)" stroke="none" d="M 10277,15795 L 10277,15600 11329,14992 11329,15715 9454,16799 9454,16076 9940,15795 10277,15795 Z M 10259,15777 L 9971,15777 10259,15611 10259,15777 Z"/>
     <path fill="rgb(216,216,216)" stroke="none" d="M 10259,15777 L 10259,15611 11329,14992 11329,15715 9454,16799 9454,16076 9971,15777 10259,15777 Z M 10240,15758 L 10004,15758 10240,15622 10240,15758 Z"/>
     <path fill="rgb(217,217,217)" stroke="none" d="M 10240,15758 L 10240,15622 11329,14992 11329,15715 9454,16799 9454,16076 10004,15758 10240,15758 Z M 10221,15739 L 10037,15739 10221,15633 10221,15739 Z"/>
     <path fill="rgb(218,218,218)" stroke="none" d="M 10221,15739 L 10221,15633 11329,14992 11329,15715 9454,16799 9454,16076 10037,15739 10221,15739 Z M 10202,15720 L 10070,15720 10202,15644 10202,15720 Z"/>
     <path fill="rgb(219,219,219)" stroke="none" d="M 10202,15720 L 10202,15644 11329,14992 11329,15715 9454,16799 9454,16076 10070,15720 10202,15720 Z M 10184,15702 L 10101,15702 10184,15654 10184,15702 Z"/>
     <path fill="rgb(220,220,220)" stroke="none" d="M 10184,15702 L 10184,15654 11329,14992 11329,15715 9454,16799 9454,16076 10101,15702 10184,15702 Z M 10165,15683 L 10134,15683 10165,15665 10165,15683 Z"/>
     <path fill="rgb(221,221,221)" stroke="none" d="M 10165,15683 L 10165,15665 11329,14992 11329,15715 9454,16799 9454,16076 10134,15683 10165,15683 Z"/>
     <path fill="rgb(222,222,222)" stroke="none" d="M 9454,16799 L 9454,16076 11329,14992 11329,15715 9454,16799 Z"/>
     <path fill="rgb(223,223,223)" stroke="none" d="M 9454,16799 L 9454,16076 11329,14992 11329,15715 9454,16799 Z"/>
     <path fill="rgb(224,224,224)" stroke="none" d="M 9454,16799 L 9454,16076 11329,14992 11329,15715 9454,16799 Z"/>
     <path fill="rgb(225,225,225)" stroke="none" d="M 9454,16799 L 9454,16076 11329,14992 11329,15715 9454,16799 Z"/>
     <path fill="rgb(226,226,226)" stroke="none" d="M 9454,16799 L 9454,16076 11329,14992 11329,15715 9454,16799 Z"/>
     <path fill="rgb(227,227,227)" stroke="none" d="M 9454,16799 L 9454,16076 11329,14992 11329,15715 9454,16799 Z"/>
     <path fill="rgb(229,229,229)" stroke="none" d="M 9454,16799 L 9454,16076 11329,14992 11329,15715 9454,16799 Z"/>
     <path fill="none" stroke="rgb(255,255,255)" id="Drawing_3_0" stroke-width="40" stroke-linejoin="round" d="M 9454,16799 L 9454,16076 11329,14992 11329,15715 9454,16799 Z"/>
    </g>
    <g>
     <defs>
      <linearGradient id="Gradient_1165" gradientUnits="userSpaceOnUse" x1="8203" y1="12463" x2="8203" y2="16076">
       <stop offset="0.1" stop-color="rgb(179,179,179)"/>
       <stop offset="1" stop-color="rgb(229,229,229)"/>
      </linearGradient>
     </defs>
     <path fill="url(#Gradient_1165)" stroke="rgb(255,255,255)" id="Drawing_4_0" stroke-width="40" stroke-linejoin="round" d="M 9454,16076 L 5078,13547 6953,12463 11329,14992 9454,16076 Z"/>
    </g>
    <g>
     <defs>
      <linearGradient id="Gradient_1166" gradientUnits="userSpaceOnUse" x1="4827" y1="13835" x2="5079" y2="13835">
       <stop offset="0.1" stop-color="rgb(179,179,179)"/>
       <stop offset="1" stop-color="rgb(229,229,229)"/>
      </linearGradient>
     </defs>
     <path fill="url(#Gradient_1166)" stroke="rgb(255,255,255)" id="Drawing_5_0" stroke-width="40" stroke-linejoin="round" d="M 4828,14125 L 4828,13402 5078,13547 5078,14269 4828,14125 Z"/>
    </g>
    <g>
     <defs>
      <linearGradient id="Gradient_1167" gradientUnits="userSpaceOnUse" x1="9453" y1="16509" x2="9705" y2="16509">
       <stop offset="0.1" stop-color="rgb(179,179,179)"/>
       <stop offset="1" stop-color="rgb(229,229,229)"/>
      </linearGradient>
     </defs>
     <path fill="url(#Gradient_1167)" stroke="rgb(255,255,255)" id="Drawing_6_0" stroke-width="40" stroke-linejoin="round" d="M 9454,16799 L 9454,16076 9704,16221 9704,16943 9454,16799 Z"/>
    </g>
    <g>
     <path fill="none" stroke="rgb(0,0,0)" id="Drawing_7_0" stroke-width="40" stroke-linejoin="round" d="M 4828,14125 L 4828,13402 5078,13547 6953,12463 11329,14992 11329,15715 9704,16654 9704,16943 4828,14125 Z"/>
    </g>
    <g>
     <path fill="rgb(127,127,127)" stroke="none" d="M 7203,15282 L 7203,15137 7328,15209 7328,15354 7203,15282 Z"/>
     <path fill="none" stroke="rgb(0,0,0)" id="Drawing_8_0" stroke-width="40" stroke-linejoin="round" d="M 7203,15282 L 7203,15137 7328,15209 7328,15354 7203,15282 Z"/>
    </g>
    <g>
     <path fill="rgb(179,179,179)" stroke="none" d="M 7578,15643 L 7578,15137 9203,16076 9203,16582 7578,15643 Z"/>
     <path fill="none" stroke="rgb(255,255,255)" id="Drawing_9_0" stroke-width="40" stroke-linejoin="round" d="M 7578,15643 L 7578,15137 9203,16076 9203,16582 7578,15643 Z"/>
    </g>
    <g>
     <path fill="rgb(127,127,127)" stroke="none" d="M 8829,16077 L 8829,15932 9079,16077 9079,16221 8829,16077 Z"/>
     <path fill="none" stroke="rgb(0,0,0)" id="Drawing_10_0" stroke-width="40" stroke-linejoin="round" d="M 8829,16077 L 8829,15932 9079,16077 9079,16221 8829,16077 Z"/>
    </g>
    <g>
     <path fill="rgb(127,127,127)" stroke="none" d="M 8829,16294 L 8829,16149 9079,16294 9079,16438 8829,16294 Z"/>
     <path fill="none" stroke="rgb(0,0,0)" id="Drawing_11_0" stroke-width="40" stroke-linejoin="round" d="M 8829,16294 L 8829,16149 9079,16294 9079,16438 8829,16294 Z"/>
    </g>
    <g>
     <path fill="rgb(127,127,127)" stroke="none" d="M 8454,15860 L 8454,15715 8704,15860 8704,16004 8454,15860 Z"/>
     <path fill="none" stroke="rgb(0,0,0)" id="Drawing_12_0" stroke-width="40" stroke-linejoin="round" d="M 8454,15860 L 8454,15715 8704,15860 8704,16004 8454,15860 Z"/>
    </g>
    <g>
     <path fill="rgb(127,127,127)" stroke="none" d="M 8454,16077 L 8454,15932 8704,16077 8704,16221 8454,16077 Z"/>
     <path fill="none" stroke="rgb(0,0,0)" id="Drawing_13_0" stroke-width="40" stroke-linejoin="round" d="M 8454,16077 L 8454,15932 8704,16077 8704,16221 8454,16077 Z"/>
    </g>
    <g>
     <path fill="rgb(127,127,127)" stroke="none" d="M 7703,15426 L 7703,15281 7953,15426 7953,15570 7703,15426 Z"/>
     <path fill="none" stroke="rgb(0,0,0)" id="Drawing_14_0" stroke-width="40" stroke-linejoin="round" d="M 7703,15426 L 7703,15281 7953,15426 7953,15570 7703,15426 Z"/>
    </g>
    <g>
     <path fill="rgb(127,127,127)" stroke="none" d="M 7703,15643 L 7703,15498 7953,15643 7953,15787 7703,15643 Z"/>
     <path fill="none" stroke="rgb(0,0,0)" id="Drawing_15_0" stroke-width="40" stroke-linejoin="round" d="M 7703,15643 L 7703,15498 7953,15643 7953,15787 7703,15643 Z"/>
    </g>
    <g>
     <path fill="rgb(127,127,127)" stroke="none" d="M 8079,15643 L 8079,15498 8329,15643 8329,15787 8079,15643 Z"/>
     <path fill="none" stroke="rgb(0,0,0)" id="Drawing_16_0" stroke-width="40" stroke-linejoin="round" d="M 8079,15643 L 8079,15498 8329,15643 8329,15787 8079,15643 Z"/>
    </g>
    <g>
     <path fill="rgb(127,127,127)" stroke="none" d="M 8079,15860 L 8079,15715 8329,15860 8329,16004 8079,15860 Z"/>
     <path fill="none" stroke="rgb(0,0,0)" id="Drawing_17_0" stroke-width="40" stroke-linejoin="round" d="M 8079,15860 L 8079,15715 8329,15860 8329,16004 8079,15860 Z"/>
    </g>
    <g>
     <path fill="rgb(179,179,179)" stroke="none" d="M 5328,14342 L 5328,13836 6953,14775 6953,15281 5328,14342 Z"/>
     <path fill="none" stroke="rgb(255,255,255)" id="Drawing_18_0" stroke-width="40" stroke-linejoin="round" d="M 5328,14342 L 5328,13836 6953,14775 6953,15281 5328,14342 Z"/>
    </g>
    <g>
     <path fill="rgb(127,127,127)" stroke="none" d="M 6578,14776 L 6578,14631 6828,14776 6828,14920 6578,14776 Z"/>
     <path fill="none" stroke="rgb(0,0,0)" id="Drawing_19_0" stroke-width="40" stroke-linejoin="round" d="M 6578,14776 L 6578,14631 6828,14776 6828,14920 6578,14776 Z"/>
    </g>
    <g>
     <path fill="rgb(127,127,127)" stroke="none" d="M 6578,14993 L 6578,14848 6828,14993 6828,15137 6578,14993 Z"/>
     <path fill="none" stroke="rgb(0,0,0)" id="Drawing_20_0" stroke-width="40" stroke-linejoin="round" d="M 6578,14993 L 6578,14848 6828,14993 6828,15137 6578,14993 Z"/>
    </g>
    <g>
     <path fill="rgb(127,127,127)" stroke="none" d="M 6203,14559 L 6203,14414 6453,14559 6453,14703 6203,14559 Z"/>
     <path fill="none" stroke="rgb(0,0,0)" id="Drawing_21_0" stroke-width="40" stroke-linejoin="round" d="M 6203,14559 L 6203,14414 6453,14559 6453,14703 6203,14559 Z"/>
    </g>
    <g>
     <path fill="rgb(127,127,127)" stroke="none" d="M 6203,14776 L 6203,14631 6453,14776 6453,14920 6203,14776 Z"/>
     <path fill="none" stroke="rgb(0,0,0)" id="Drawing_22_0" stroke-width="40" stroke-linejoin="round" d="M 6203,14776 L 6203,14631 6453,14776 6453,14920 6203,14776 Z"/>
    </g>
    <g>
     <path fill="rgb(127,127,127)" stroke="none" d="M 5453,14126 L 5453,13981 5703,14126 5703,14270 5453,14126 Z"/>
     <path fill="none" stroke="rgb(0,0,0)" id="Drawing_23_0" stroke-width="40" stroke-linejoin="round" d="M 5453,14126 L 5453,13981 5703,14126 5703,14270 5453,14126 Z"/>
    </g>
    <g>
     <path fill="rgb(127,127,127)" stroke="none" d="M 5453,14342 L 5453,14197 5703,14342 5703,14486 5453,14342 Z"/>
     <path fill="none" stroke="rgb(0,0,0)" id="Drawing_24_0" stroke-width="40" stroke-linejoin="round" d="M 5453,14342 L 5453,14197 5703,14342 5703,14486 5453,14342 Z"/>
    </g>
    <g>
     <path fill="rgb(127,127,127)" stroke="none" d="M 5828,14342 L 5828,14197 6078,14342 6078,14486 5828,14342 Z"/>
     <path fill="none" stroke="rgb(0,0,0)" id="Drawing_25_0" stroke-width="40" stroke-linejoin="round" d="M 5828,14342 L 5828,14197 6078,14342 6078,14486 5828,14342 Z"/>
    </g>
    <g>
     <path fill="rgb(127,127,127)" stroke="none" d="M 5828,14559 L 5828,14414 6078,14559 6078,14703 5828,14559 Z"/>
     <path fill="none" stroke="rgb(0,0,0)" id="Drawing_26_0" stroke-width="40" stroke-linejoin="round" d="M 5828,14559 L 5828,14414 6078,14559 6078,14703 5828,14559 Z"/>
    </g>
   </g>
  </g>
 </g>
</svg>