<?xml version="1.0" encoding="UTF-8"?>

<svg version="1.2" baseProfile="tiny" width="23.24mm" height="24.9mm" viewBox="7749 11341 2324 2490" preserveAspectRatio="xMidYMid" fill-rule="evenodd" stroke-width="28.222" stroke-linejoin="round" xmlns="http://www.w3.org/2000/svg" xmlns:xlink="http://www.w3.org/1999/xlink" xml:space="preserve">
 <g visibility="visible" id="Slide_1">
  <g id="DrawingGroup_1">
   <g>
    <path fill="rgb(221,221,221)" stroke="none" d="M 9451,13041 C 9606,13041 10073,12910 10073,12780 10073,12649 9847,12551 9734,12551 9734,12649 9451,12910 9451,13041 Z"/>
    <path fill="none" stroke="rgb(221,221,221)" id="Drawing_1_0" stroke-linejoin="round" d="M 9451,13041 C 9606,13041 10073,12910 10073,12780 10073,12649 9847,12551 9734,12551 9734,12649 9451,12910 9451,13041 Z"/>
   </g>
   <g id="DrawingGroup_2">
    <g>
     <path fill="rgb(222,142,150)" stroke="none" d="M 9690,12864 L 8864,13341 8051,13341 8051,12504 9690,11557 9690,12864 Z"/>
     <path fill="rgb(222,143,150)" stroke="none" d="M 8864,13341 L 8051,13811 8051,13341 8864,13341 Z M 9690,11557 L 9747,11524 9747,12831 9690,12864 9690,11557 Z M 9677,12871 L 8887,13328 8051,13328 8051,12504 9677,11564 9677,12871 Z"/>
     <path fill="rgb(222,144,151)" stroke="none" d="M 8887,13328 L 8051,13811 8051,13328 8887,13328 Z M 9677,11564 L 9747,11524 9747,12831 9677,12871 9677,11564 Z M 9664,12879 L 8909,13315 8051,13315 8051,12504 9664,11572 9664,12879 Z"/>
     <path fill="rgb(222,145,152)" stroke="none" d="M 8909,13315 L 8051,13811 8051,13315 8909,13315 Z M 9664,11572 L 9747,11524 9747,12831 9664,12879 9664,11572 Z M 9652,12886 L 8930,13303 8051,13303 8051,12504 9652,11579 9652,12886 Z"/>
     <path fill="rgb(223,146,153)" stroke="none" d="M 8930,13303 L 8051,13811 8051,13303 8930,13303 Z M 9652,11579 L 9747,11524 9747,12831 9652,12886 9652,11579 Z M 9639,12893 L 8953,13290 8051,13290 8051,12504 9639,11586 9639,12893 Z"/>
     <path fill="rgb(223,147,154)" stroke="none" d="M 8953,13290 L 8051,13811 8051,13290 8953,13290 Z M 9639,11586 L 9747,11524 9747,12831 9639,12893 9639,11586 Z M 9626,12901 L 8975,13277 8051,13277 8051,12504 9626,11594 9626,12901 Z"/>
     <path fill="rgb(223,148,155)" stroke="none" d="M 8975,13277 L 8051,13811 8051,13277 8975,13277 Z M 9626,11594 L 9747,11524 9747,12831 9626,12901 9626,11594 Z M 9613,12908 L 8998,13264 8051,13264 8051,12504 9613,11601 9613,12908 Z"/>
     <path fill="rgb(224,149,156)" stroke="none" d="M 8998,13264 L 8051,13811 8051,13264 8998,13264 Z M 9613,11601 L 9747,11524 9747,12831 9613,12908 9613,11601 Z M 9601,12915 L 9018,13252 8051,13252 8051,12504 9601,11608 9601,12915 Z"/>
     <path fill="rgb(224,150,157)" stroke="none" d="M 9018,13252 L 8051,13811 8051,13252 9018,13252 Z M 9601,11608 L 9747,11524 9747,12831 9601,12915 9601,11608 Z M 9588,12923 L 9041,13239 8051,13239 8051,12504 9588,11616 9588,12923 Z"/>
     <path fill="rgb(224,151,158)" stroke="none" d="M 9041,13239 L 8051,13811 8051,13239 9041,13239 Z M 9588,11616 L 9747,11524 9747,12831 9588,12923 9588,11616 Z M 9575,12930 L 9063,13226 8051,13226 8051,12504 9575,11623 9575,12930 Z"/>
     <path fill="rgb(224,152,159)" stroke="none" d="M 9063,13226 L 8051,13811 8051,13226 9063,13226 Z M 9575,11623 L 9747,11524 9747,12831 9575,12930 9575,11623 Z M 9563,12937 L 9084,13214 8051,13214 8051,12504 9563,11630 9563,12937 Z"/>
     <path fill="rgb(225,153,160)" stroke="none" d="M 9084,13214 L 8051,13811 8051,13214 9084,13214 Z M 9563,11630 L 9747,11524 9747,12831 9563,12937 9563,11630 Z M 9550,12945 L 9107,13201 8051,13201 8051,12504 9550,11638 9550,12945 Z"/>
     <path fill="rgb(225,154,161)" stroke="none" d="M 9107,13201 L 8051,13811 8051,13201 9107,13201 Z M 9550,11638 L 9747,11524 9747,12831 9550,12945 9550,11638 Z M 9537,12952 L 9129,13188 8051,13188 8051,12504 9537,11645 9537,12952 Z"/>
     <path fill="rgb(225,155,162)" stroke="none" d="M 9129,13188 L 8051,13811 8051,13188 9129,13188 Z M 9537,11645 L 9747,11524 9747,12831 9537,12952 9537,11645 Z M 9524,12960 L 9152,13175 8051,13175 8051,12504 9524,11653 9524,12960 Z"/>
     <path fill="rgb(226,156,163)" stroke="none" d="M 9152,13175 L 8051,13811 8051,13175 9152,13175 Z M 9524,11653 L 9747,11524 9747,12831 9524,12960 9524,11653 Z M 9512,12967 L 9172,13163 8051,13163 8051,12504 9512,11660 9512,12967 Z"/>
     <path fill="rgb(226,157,164)" stroke="none" d="M 9172,13163 L 8051,13811 8051,13163 9172,13163 Z M 9512,11660 L 9747,11524 9747,12831 9512,12967 9512,11660 Z M 9499,12974 L 9195,13150 8051,13150 8051,12504 9499,11667 9499,12974 Z"/>
     <path fill="rgb(226,158,164)" stroke="none" d="M 9195,13150 L 8051,13811 8051,13150 9195,13150 Z M 9499,11667 L 9747,11524 9747,12831 9499,12974 9499,11667 Z M 9486,12982 L 9217,13137 8051,13137 8051,12504 9486,11675 9486,12982 Z"/>
     <path fill="rgb(226,159,165)" stroke="none" d="M 9217,13137 L 8051,13811 8051,13137 9217,13137 Z M 9486,11675 L 9747,11524 9747,12831 9486,12982 9486,11675 Z M 9474,12989 L 9238,13125 8051,13125 8051,12504 9474,11682 9474,12989 Z"/>
     <path fill="rgb(227,160,166)" stroke="none" d="M 9238,13125 L 8051,13811 8051,13125 9238,13125 Z M 9474,11682 L 9747,11524 9747,12831 9474,12989 9474,11682 Z M 9461,12996 L 9261,13112 8051,13112 8051,12504 9461,11689 9461,12996 Z"/>
     <path fill="rgb(227,161,167)" stroke="none" d="M 9261,13112 L 8051,13811 8051,13112 9261,13112 Z M 9461,11689 L 9747,11524 9747,12831 9461,12996 9461,11689 Z M 9448,13004 L 9283,13099 8051,13099 8051,12504 9448,11697 9448,13004 Z"/>
     <path fill="rgb(227,162,168)" stroke="none" d="M 9283,13099 L 8051,13811 8051,13099 9283,13099 Z M 9448,11697 L 9747,11524 9747,12831 9448,13004 9448,11697 Z M 9435,13011 L 9306,13086 8051,13086 8051,12504 9435,11704 9435,13011 Z"/>
     <path fill="rgb(228,163,169)" stroke="none" d="M 9306,13086 L 8051,13811 8051,13086 9306,13086 Z M 9435,11704 L 9747,11524 9747,12831 9435,13011 9435,11704 Z M 9423,13018 L 9326,13074 8051,13074 8051,12504 9423,11711 9423,13018 Z"/>
     <path fill="rgb(228,164,170)" stroke="none" d="M 9326,13074 L 8051,13811 8051,13074 9326,13074 Z M 9423,11711 L 9747,11524 9747,12831 9423,13018 9423,11711 Z M 9410,13026 L 9349,13061 8051,13061 8051,12504 9410,11719 9410,13026 Z"/>
     <path fill="rgb(228,165,171)" stroke="none" d="M 9349,13061 L 8051,13811 8051,13061 9349,13061 Z M 9410,11719 L 9747,11524 9747,12831 9410,13026 9410,11719 Z M 9397,13033 L 9371,13048 8051,13048 8051,12504 9397,11726 9397,13033 Z"/>
     <path fill="rgb(228,166,172)" stroke="none" d="M 9371,13048 L 8051,13811 8051,13048 9371,13048 Z M 9397,11726 L 9747,11524 9747,12831 9397,13033 9397,11726 Z M 9384,13035 L 8051,13035 8051,12504 9384,11734 9384,13035 Z"/>
     <path fill="rgb(229,167,173)" stroke="none" d="M 9384,13035 L 9384,11734 9747,11524 9747,12831 8051,13811 8051,13035 9384,13035 Z M 9372,13023 L 8051,13023 8051,12504 9372,11741 9372,13023 Z"/>
     <path fill="rgb(229,168,174)" stroke="none" d="M 9372,13023 L 9372,11741 9747,11524 9747,12831 8051,13811 8051,13023 9372,13023 Z M 9359,13010 L 8051,13010 8051,12504 9359,11748 9359,13010 Z"/>
     <path fill="rgb(229,169,175)" stroke="none" d="M 9359,13010 L 9359,11748 9747,11524 9747,12831 8051,13811 8051,13010 9359,13010 Z M 9346,12997 L 8051,12997 8051,12504 9346,11756 9346,12997 Z"/>
     <path fill="rgb(230,170,176)" stroke="none" d="M 9346,12997 L 9346,11756 9747,11524 9747,12831 8051,13811 8051,12997 9346,12997 Z M 9334,12985 L 8051,12985 8051,12504 9334,11763 9334,12985 Z"/>
     <path fill="rgb(230,171,177)" stroke="none" d="M 9334,12985 L 9334,11763 9747,11524 9747,12831 8051,13811 8051,12985 9334,12985 Z M 9321,12972 L 8051,12972 8051,12504 9321,11770 9321,12972 Z"/>
     <path fill="rgb(230,172,178)" stroke="none" d="M 9321,12972 L 9321,11770 9747,11524 9747,12831 8051,13811 8051,12972 9321,12972 Z M 9308,12959 L 8051,12959 8051,12504 9308,11778 9308,12959 Z"/>
     <path fill="rgb(230,173,178)" stroke="none" d="M 9308,12959 L 9308,11778 9747,11524 9747,12831 8051,13811 8051,12959 9308,12959 Z M 9295,12946 L 8051,12946 8051,12504 9295,11785 9295,12946 Z"/>
     <path fill="rgb(231,174,179)" stroke="none" d="M 9295,12946 L 9295,11785 9747,11524 9747,12831 8051,13811 8051,12946 9295,12946 Z M 9283,12934 L 8051,12934 8051,12504 9283,11792 9283,12934 Z"/>
     <path fill="rgb(231,175,180)" stroke="none" d="M 9283,12934 L 9283,11792 9747,11524 9747,12831 8051,13811 8051,12934 9283,12934 Z M 9270,12921 L 8051,12921 8051,12504 9270,11800 9270,12921 Z"/>
     <path fill="rgb(231,176,181)" stroke="none" d="M 9270,12921 L 9270,11800 9747,11524 9747,12831 8051,13811 8051,12921 9270,12921 Z M 9257,12908 L 8051,12908 8051,12504 9257,11807 9257,12908 Z"/>
     <path fill="rgb(232,177,182)" stroke="none" d="M 9257,12908 L 9257,11807 9747,11524 9747,12831 8051,13811 8051,12908 9257,12908 Z M 9245,12896 L 8051,12896 8051,12504 9245,11814 9245,12896 Z"/>
     <path fill="rgb(232,178,183)" stroke="none" d="M 9245,12896 L 9245,11814 9747,11524 9747,12831 8051,13811 8051,12896 9245,12896 Z M 9232,12883 L 8051,12883 8051,12504 9232,11822 9232,12883 Z"/>
     <path fill="rgb(232,179,184)" stroke="none" d="M 9232,12883 L 9232,11822 9747,11524 9747,12831 8051,13811 8051,12883 9232,12883 Z M 9219,12870 L 8051,12870 8051,12504 9219,11829 9219,12870 Z"/>
     <path fill="rgb(232,180,185)" stroke="none" d="M 9219,12870 L 9219,11829 9747,11524 9747,12831 8051,13811 8051,12870 9219,12870 Z M 9206,12857 L 8051,12857 8051,12504 9206,11837 9206,12857 Z"/>
     <path fill="rgb(233,181,186)" stroke="none" d="M 9206,12857 L 9206,11837 9747,11524 9747,12831 8051,13811 8051,12857 9206,12857 Z M 9194,12845 L 8051,12845 8051,12504 9194,11844 9194,12845 Z"/>
     <path fill="rgb(233,182,187)" stroke="none" d="M 9194,12845 L 9194,11844 9747,11524 9747,12831 8051,13811 8051,12845 9194,12845 Z M 9181,12832 L 8051,12832 8051,12504 9181,11851 9181,12832 Z"/>
     <path fill="rgb(233,183,188)" stroke="none" d="M 9181,12832 L 9181,11851 9747,11524 9747,12831 8051,13811 8051,12832 9181,12832 Z M 9168,12819 L 8051,12819 8051,12504 9168,11859 9168,12819 Z"/>
     <path fill="rgb(234,184,189)" stroke="none" d="M 9168,12819 L 9168,11859 9747,11524 9747,12831 8051,13811 8051,12819 9168,12819 Z M 9155,12806 L 8051,12806 8051,12504 9155,11866 9155,12806 Z"/>
     <path fill="rgb(234,185,190)" stroke="none" d="M 9155,12806 L 9155,11866 9747,11524 9747,12831 8051,13811 8051,12806 9155,12806 Z M 9143,12794 L 8051,12794 8051,12504 9143,11873 9143,12794 Z"/>
     <path fill="rgb(234,186,191)" stroke="none" d="M 9143,12794 L 9143,11873 9747,11524 9747,12831 8051,13811 8051,12794 9143,12794 Z M 9130,12781 L 8051,12781 8051,12504 9130,11881 9130,12781 Z"/>
     <path fill="rgb(235,187,192)" stroke="none" d="M 9130,12781 L 9130,11881 9747,11524 9747,12831 8051,13811 8051,12781 9130,12781 Z M 9117,12768 L 8051,12768 8051,12504 9117,11888 9117,12768 Z"/>
     <path fill="rgb(235,188,192)" stroke="none" d="M 9117,12768 L 9117,11888 9747,11524 9747,12831 8051,13811 8051,12768 9117,12768 Z M 9105,12756 L 8051,12756 8051,12504 9105,11895 9105,12756 Z"/>
     <path fill="rgb(235,189,193)" stroke="none" d="M 9105,12756 L 9105,11895 9747,11524 9747,12831 8051,13811 8051,12756 9105,12756 Z M 9092,12743 L 8051,12743 8051,12504 9092,11902 9092,12743 Z"/>
     <path fill="rgb(235,190,194)" stroke="none" d="M 9092,12743 L 9092,11902 9747,11524 9747,12831 8051,13811 8051,12743 9092,12743 Z M 9079,12730 L 8051,12730 8051,12504 9079,11910 9079,12730 Z"/>
     <path fill="rgb(236,191,195)" stroke="none" d="M 9079,12730 L 9079,11910 9747,11524 9747,12831 8051,13811 8051,12730 9079,12730 Z M 9066,12717 L 8051,12717 8051,12504 9066,11918 9066,12717 Z"/>
     <path fill="rgb(236,192,196)" stroke="none" d="M 9066,12717 L 9066,11918 9747,11524 9747,12831 8051,13811 8051,12717 9066,12717 Z M 9054,12705 L 8062,12705 8062,12498 9054,11924 9054,12705 Z"/>
     <path fill="rgb(236,193,197)" stroke="none" d="M 8062,12705 L 9054,12705 9054,11924 9747,11524 9747,12831 8051,13811 8051,12504 8062,12498 8062,12705 Z M 9041,12692 L 8075,12692 8075,12490 9041,11932 9041,12692 Z"/>
     <path fill="rgb(237,194,198)" stroke="none" d="M 8075,12692 L 9041,12692 9041,11932 9747,11524 9747,12831 8051,13811 8051,12504 8075,12490 8075,12692 Z M 9028,12679 L 8088,12679 8088,12483 9028,11939 9028,12679 Z"/>
     <path fill="rgb(237,195,199)" stroke="none" d="M 8088,12679 L 9028,12679 9028,11939 9747,11524 9747,12831 8051,13811 8051,12504 8088,12483 8088,12679 Z M 9016,12667 L 8100,12667 8100,12476 9016,11946 9016,12667 Z"/>
     <path fill="rgb(237,196,200)" stroke="none" d="M 8100,12667 L 9016,12667 9016,11946 9747,11524 9747,12831 8051,13811 8051,12504 8100,12476 8100,12667 Z M 9003,12654 L 8113,12654 8113,12468 9003,11954 9003,12654 Z"/>
     <path fill="rgb(237,197,201)" stroke="none" d="M 8113,12654 L 9003,12654 9003,11954 9747,11524 9747,12831 8051,13811 8051,12504 8113,12468 8113,12654 Z M 8990,12641 L 8126,12641 8126,12461 8990,11961 8990,12641 Z"/>
     <path fill="rgb(238,198,202)" stroke="none" d="M 8126,12641 L 8990,12641 8990,11961 9747,11524 9747,12831 8051,13811 8051,12504 8126,12461 8126,12641 Z M 8977,12628 L 8139,12628 8139,12453 8977,11969 8977,12628 Z"/>
     <path fill="rgb(238,199,203)" stroke="none" d="M 8139,12628 L 8977,12628 8977,11969 9747,11524 9747,12831 8051,13811 8051,12504 8139,12453 8139,12628 Z M 8965,12616 L 8151,12616 8151,12446 8965,11976 8965,12616 Z"/>
     <path fill="rgb(238,200,204)" stroke="none" d="M 8151,12616 L 8965,12616 8965,11976 9747,11524 9747,12831 8051,13811 8051,12504 8151,12446 8151,12616 Z M 8952,12603 L 8164,12603 8164,12439 8952,11983 8952,12603 Z"/>
     <path fill="rgb(239,201,205)" stroke="none" d="M 8164,12603 L 8952,12603 8952,11983 9747,11524 9747,12831 8051,13811 8051,12504 8164,12439 8164,12603 Z M 8939,12590 L 8177,12590 8177,12431 8939,11991 8939,12590 Z"/>
     <path fill="rgb(239,202,206)" stroke="none" d="M 8177,12590 L 8939,12590 8939,11991 9747,11524 9747,12831 8051,13811 8051,12504 8177,12431 8177,12590 Z M 8926,12577 L 8190,12577 8190,12424 8926,11998 8926,12577 Z"/>
     <path fill="rgb(239,203,206)" stroke="none" d="M 8190,12577 L 8926,12577 8926,11998 9747,11524 9747,12831 8051,13811 8051,12504 8190,12424 8190,12577 Z M 8914,12565 L 8202,12565 8202,12417 8914,12005 8914,12565 Z"/>
     <path fill="rgb(239,204,207)" stroke="none" d="M 8202,12565 L 8914,12565 8914,12005 9747,11524 9747,12831 8051,13811 8051,12504 8202,12417 8202,12565 Z M 8901,12552 L 8215,12552 8215,12409 8901,12013 8901,12552 Z"/>
     <path fill="rgb(240,205,208)" stroke="none" d="M 8215,12552 L 8901,12552 8901,12013 9747,11524 9747,12831 8051,13811 8051,12504 8215,12409 8215,12552 Z M 8888,12539 L 8228,12539 8228,12402 8888,12020 8888,12539 Z"/>
     <path fill="rgb(240,206,209)" stroke="none" d="M 8228,12539 L 8888,12539 8888,12020 9747,11524 9747,12831 8051,13811 8051,12504 8228,12402 8228,12539 Z M 8876,12527 L 8240,12527 8240,12395 8876,12027 8876,12527 Z"/>
     <path fill="rgb(240,207,210)" stroke="none" d="M 8240,12527 L 8876,12527 8876,12027 9747,11524 9747,12831 8051,13811 8051,12504 8240,12395 8240,12527 Z M 8863,12514 L 8253,12514 8253,12387 8863,12035 8863,12514 Z"/>
     <path fill="rgb(241,208,211)" stroke="none" d="M 8253,12514 L 8863,12514 8863,12035 9747,11524 9747,12831 8051,13811 8051,12504 8253,12387 8253,12514 Z M 8850,12501 L 8266,12501 8266,12380 8850,12042 8850,12501 Z"/>
     <path fill="rgb(241,209,212)" stroke="none" d="M 8266,12501 L 8850,12501 8850,12042 9747,11524 9747,12831 8051,13811 8051,12504 8266,12380 8266,12501 Z M 8837,12488 L 8279,12488 8279,12372 8837,12050 8837,12488 Z"/>
     <path fill="rgb(241,210,213)" stroke="none" d="M 8279,12488 L 8837,12488 8837,12050 9747,11524 9747,12831 8051,13811 8051,12504 8279,12372 8279,12488 Z M 8825,12476 L 8291,12476 8291,12365 8825,12057 8825,12476 Z"/>
     <path fill="rgb(241,211,214)" stroke="none" d="M 8291,12476 L 8825,12476 8825,12057 9747,11524 9747,12831 8051,13811 8051,12504 8291,12365 8291,12476 Z M 8812,12463 L 8304,12463 8304,12358 8812,12064 8812,12463 Z"/>
     <path fill="rgb(242,212,215)" stroke="none" d="M 8304,12463 L 8812,12463 8812,12064 9747,11524 9747,12831 8051,13811 8051,12504 8304,12358 8304,12463 Z M 8799,12450 L 8317,12450 8317,12350 8799,12072 8799,12450 Z"/>
     <path fill="rgb(242,213,216)" stroke="none" d="M 8317,12450 L 8799,12450 8799,12072 9747,11524 9747,12831 8051,13811 8051,12504 8317,12350 8317,12450 Z M 8787,12438 L 8329,12438 8329,12343 8787,12079 8787,12438 Z"/>
     <path fill="rgb(242,214,217)" stroke="none" d="M 8329,12438 L 8787,12438 8787,12079 9747,11524 9747,12831 8051,13811 8051,12504 8329,12343 8329,12438 Z M 8774,12425 L 8342,12425 8342,12336 8774,12086 8774,12425 Z"/>
     <path fill="rgb(243,215,218)" stroke="none" d="M 8342,12425 L 8774,12425 8774,12086 9747,11524 9747,12831 8051,13811 8051,12504 8342,12336 8342,12425 Z M 8761,12412 L 8355,12412 8355,12328 8761,12094 8761,12412 Z"/>
     <path fill="rgb(243,216,219)" stroke="none" d="M 8355,12412 L 8761,12412 8761,12094 9747,11524 9747,12831 8051,13811 8051,12504 8355,12328 8355,12412 Z M 8748,12399 L 8368,12399 8368,12321 8748,12101 8748,12399 Z"/>
     <path fill="rgb(243,217,220)" stroke="none" d="M 8368,12399 L 8748,12399 8748,12101 9747,11524 9747,12831 8051,13811 8051,12504 8368,12321 8368,12399 Z M 8736,12387 L 8380,12387 8380,12314 8736,12108 8736,12387 Z"/>
     <path fill="rgb(243,218,220)" stroke="none" d="M 8380,12387 L 8736,12387 8736,12108 9747,11524 9747,12831 8051,13811 8051,12504 8380,12314 8380,12387 Z M 8723,12374 L 8393,12374 8393,12306 8723,12116 8723,12374 Z"/>
     <path fill="rgb(244,219,221)" stroke="none" d="M 8393,12374 L 8723,12374 8723,12116 9747,11524 9747,12831 8051,13811 8051,12504 8393,12306 8393,12374 Z M 8710,12361 L 8406,12361 8406,12299 8710,12123 8710,12361 Z"/>
     <path fill="rgb(244,220,222)" stroke="none" d="M 8406,12361 L 8710,12361 8710,12123 9747,11524 9747,12831 8051,13811 8051,12504 8406,12299 8406,12361 Z M 8697,12348 L 8419,12348 8419,12291 8697,12131 8697,12348 Z"/>
     <path fill="rgb(244,221,223)" stroke="none" d="M 8419,12348 L 8697,12348 8697,12131 9747,11524 9747,12831 8051,13811 8051,12504 8419,12291 8419,12348 Z M 8685,12336 L 8431,12336 8431,12284 8685,12138 8685,12336 Z"/>
     <path fill="rgb(245,222,224)" stroke="none" d="M 8431,12336 L 8685,12336 8685,12138 9747,11524 9747,12831 8051,13811 8051,12504 8431,12284 8431,12336 Z M 8672,12323 L 8444,12323 8444,12277 8672,12145 8672,12323 Z"/>
     <path fill="rgb(245,223,225)" stroke="none" d="M 8444,12323 L 8672,12323 8672,12145 9747,11524 9747,12831 8051,13811 8051,12504 8444,12277 8444,12323 Z M 8659,12310 L 8457,12310 8457,12269 8659,12153 8659,12310 Z"/>
     <path fill="rgb(245,224,226)" stroke="none" d="M 8457,12310 L 8659,12310 8659,12153 9747,11524 9747,12831 8051,13811 8051,12504 8457,12269 8457,12310 Z M 8647,12298 L 8469,12298 8469,12262 8647,12160 8647,12298 Z"/>
     <path fill="rgb(245,225,227)" stroke="none" d="M 8469,12298 L 8647,12298 8647,12160 9747,11524 9747,12831 8051,13811 8051,12504 8469,12262 8469,12298 Z M 8634,12285 L 8482,12285 8482,12255 8634,12167 8634,12285 Z"/>
     <path fill="rgb(246,226,228)" stroke="none" d="M 8482,12285 L 8634,12285 8634,12167 9747,11524 9747,12831 8051,13811 8051,12504 8482,12255 8482,12285 Z M 8621,12272 L 8495,12272 8495,12247 8621,12175 8621,12272 Z"/>
     <path fill="rgb(246,227,229)" stroke="none" d="M 8495,12272 L 8621,12272 8621,12175 9747,11524 9747,12831 8051,13811 8051,12504 8495,12247 8495,12272 Z M 8608,12259 L 8508,12259 8508,12240 8608,12182 8608,12259 Z"/>
     <path fill="rgb(246,228,230)" stroke="none" d="M 8508,12259 L 8608,12259 8608,12182 9747,11524 9747,12831 8051,13811 8051,12504 8508,12240 8508,12259 Z M 8596,12247 L 8520,12247 8520,12233 8596,12189 8596,12247 Z"/>
     <path fill="rgb(247,229,231)" stroke="none" d="M 8520,12247 L 8596,12247 8596,12189 9747,11524 9747,12831 8051,13811 8051,12504 8520,12233 8520,12247 Z M 8583,12234 L 8533,12234 8533,12225 8583,12197 8583,12234 Z"/>
     <path fill="rgb(247,230,232)" stroke="none" d="M 8533,12234 L 8583,12234 8583,12197 9747,11524 9747,12831 8051,13811 8051,12504 8533,12225 8533,12234 Z M 8570,12221 L 8546,12221 8546,12218 8570,12204 8570,12221 Z"/>
     <path fill="rgb(248,232,234)" stroke="none" d="M 8546,12221 L 8570,12221 8570,12204 9747,11524 9747,12831 8051,13811 8051,12504 8546,12218 8546,12221 Z"/>
     <path fill="none" stroke="rgb(255,255,255)" id="Drawing_2_0" stroke-width="40" stroke-linejoin="round" d="M 9747,12831 L 9747,11524 8051,12504 8051,13811 9747,12831 Z"/>
    </g>
    <g>
     <path fill="none" stroke="rgb(255,255,255)" id="Drawing_3_0" stroke-width="40" stroke-linejoin="round" d="M 9747,12504 L 8051,13484"/>
    </g>
    <g>
     <path fill="none" stroke="rgb(255,255,255)" id="Drawing_4_0" stroke-width="40" stroke-linejoin="round" d="M 9747,12178 L 8051,13158"/>
    </g>
    <g>
     <path fill="none" stroke="rgb(255,255,255)" id="Drawing_5_0" stroke-width="40" stroke-linejoin="round" d="M 9747,11851 L 8051,12831"/>
    </g>
    <g>
     <path fill="none" stroke="rgb(255,255,255)" id="Drawing_6_0" stroke-width="40" stroke-linejoin="round" d="M 9182,12504 L 9182,12831"/>
    </g>
    <g>
     <path fill="none" stroke="rgb(255,255,255)" id="Drawing_7_0" stroke-width="40" stroke-linejoin="round" d="M 8617,12178 L 8617,12505"/>
    </g>
    <g>
     <path fill="none" stroke="rgb(255,255,255)" id="Drawing_8_0" stroke-width="40" stroke-linejoin="round" d="M 8334,13321 L 8334,13648"/>
    </g>
    <g>
     <path fill="none" stroke="rgb(255,255,255)" id="Drawing_9_0" stroke-width="40" stroke-linejoin="round" d="M 8899,12994 L 8899,13321"/>
    </g>
    <g>
     <path fill="none" stroke="rgb(255,255,255)" id="Drawing_10_0" stroke-width="40" stroke-linejoin="round" d="M 9464,12668 L 9464,12995"/>
    </g>
    <g>
     <path fill="none" stroke="rgb(255,255,255)" id="Drawing_11_0" stroke-width="40" stroke-linejoin="round" d="M 9182,11851 L 9182,12178"/>
    </g>
    <g>
     <path fill="none" stroke="rgb(255,255,255)" id="Drawing_12_0" stroke-width="40" stroke-linejoin="round" d="M 8899,12341 L 8899,12668"/>
    </g>
    <g>
     <path fill="none" stroke="rgb(255,255,255)" id="Drawing_13_0" stroke-width="40" stroke-linejoin="round" d="M 8617,12831 L 8617,13158"/>
    </g>
    <g>
     <path fill="none" stroke="rgb(255,255,255)" id="Drawing_14_0" stroke-width="40" stroke-linejoin="round" d="M 8334,12668 L 8334,12995"/>
    </g>
    <g>
     <path fill="none" stroke="rgb(255,255,255)" id="Drawing_15_0" stroke-width="40" stroke-linejoin="round" d="M 9464,12014 L 9464,12341"/>
    </g>
    <g>
     <defs>
      <linearGradient id="Gradient_1115" gradientUnits="userSpaceOnUse" x1="7767" y1="13076" x2="8052" y2="13076">
       <stop offset="0.1" stop-color="rgb(222,142,150)"/>
       <stop offset="1" stop-color="rgb(248,232,234)"/>
      </linearGradient>
     </defs>
     <path fill="url(#Gradient_1115)" stroke="rgb(255,255,255)" id="Drawing_16_0" stroke-width="40" stroke-linejoin="round" d="M 8052,13811 L 8052,12504 7769,12341 7769,13648 8052,13811 Z"/>
    </g>
    <g>
     <defs>
      <linearGradient id="Gradient_1116" gradientUnits="userSpaceOnUse" x1="8758" y1="11361" x2="8758" y2="12504">
       <stop offset="0.1" stop-color="rgb(222,142,150)"/>
       <stop offset="1" stop-color="rgb(248,232,234)"/>
      </linearGradient>
     </defs>
     <path fill="url(#Gradient_1116)" stroke="rgb(255,255,255)" id="Drawing_17_0" stroke-width="40" stroke-linejoin="round" d="M 8051,12504 L 9747,11524 9464,11361 7769,12341 8051,12504 Z"/>
    </g>
    <g>
     <path fill="none" stroke="rgb(255,255,255)" id="Drawing_18_0" stroke-width="40" stroke-linejoin="round" d="M 8617,12177 L 8334,12014"/>
    </g>
    <g>
     <path fill="none" stroke="rgb(255,255,255)" id="Drawing_19_0" stroke-width="40" stroke-linejoin="round" d="M 8052,12831 L 7769,12668"/>
    </g>
    <g>
     <path fill="none" stroke="rgb(255,255,255)" id="Drawing_20_0" stroke-width="40" stroke-linejoin="round" d="M 8052,13157 L 7769,12994"/>
    </g>
    <g>
     <path fill="none" stroke="rgb(255,255,255)" id="Drawing_21_0" stroke-width="40" stroke-linejoin="round" d="M 8052,13484 L 7769,13321"/>
    </g>
    <g>
     <path fill="none" stroke="rgb(255,255,255)" id="Drawing_22_0" stroke-width="40" stroke-linejoin="round" d="M 9182,11851 L 8899,11688"/>
    </g>
    <g>
     <path fill="none" stroke="rgb(0,0,0)" id="Drawing_23_0" stroke-width="40" stroke-linejoin="round" d="M 9464,11361 L 7769,12341 7769,13648 8051,13811 9747,12831 9747,11524 9464,11361 Z"/>
    </g>
   </g>
  </g>
 </g>
</svg>