<?xml version="1.0" encoding="UTF-8"?>

<svg version="1.2" baseProfile="tiny" width="36.75mm" height="28.4mm" viewBox="3606 2926 3675 2840" preserveAspectRatio="xMidYMid" fill-rule="evenodd" stroke-width="28.222" stroke-linejoin="round" xmlns="http://www.w3.org/2000/svg" xmlns:xlink="http://www.w3.org/1999/xlink" xml:space="preserve">
 <g visibility="visible" id="Slide_1">
  <g id="DrawingGroup_1">
   <g>
    <path fill="rgb(221,221,221)" stroke="none" d="M 5409,5711 C 5884,5711 7107,5151 7228,4941 7349,4731 7107,4521 6986,4521 6986,4821 5409,5211 5409,5711 Z"/>
    <path fill="none" stroke="rgb(221,221,221)" id="Drawing_1_0" stroke-width="40" stroke-linejoin="round" d="M 5409,5711 C 5884,5711 7107,5151 7228,4941 7349,4731 7107,4521 6986,4521 6986,4821 5409,5211 5409,5711 Z"/>
   </g>
   <g id="DrawingGroup_2">
    <g>
     <defs>
      <linearGradient id="Gradient_1085" gradientUnits="userSpaceOnUse" x1="3624" y1="4835" x2="5326" y2="4837">
       <stop offset="0.1" stop-color="rgb(0,115,188)"/>
       <stop offset="1" stop-color="rgb(127,185,221)"/>
      </linearGradient>
     </defs>
     <path fill="url(#Gradient_1085)" stroke="rgb(255,255,255)" id="Drawing_2_0" stroke-width="40" stroke-linejoin="round" d="M 3626,4766 L 3626,3926 5324,4906 5324,5746 3626,4766 Z"/>
    </g>
    <g>
     <path fill="rgb(0,115,188)" stroke="none" d="M 6733,4932 L 5973,5371 5324,5371 5324,4906 6733,4092 6733,4932 Z"/>
     <path fill="rgb(1,115,188)" stroke="none" d="M 5973,5371 L 5324,5746 5324,5371 5973,5371 Z M 6733,4092 L 7021,3926 7021,4766 6733,4932 6733,4092 Z M 6723,4938 L 5991,5361 5324,5361 5324,4906 6723,4098 6723,4938 Z"/>
     <path fill="rgb(2,116,188)" stroke="none" d="M 5991,5361 L 5324,5746 5324,5361 5991,5361 Z M 6723,4098 L 7021,3926 7021,4766 6723,4938 6723,4098 Z M 6713,4944 L 6008,5351 5324,5351 5324,4906 6713,4104 6713,4944 Z"/>
     <path fill="rgb(4,117,189)" stroke="none" d="M 6008,5351 L 5324,5746 5324,5351 6008,5351 Z M 6713,4104 L 7021,3926 7021,4766 6713,4944 6713,4104 Z M 6703,4950 L 6025,5341 5324,5341 5324,4906 6703,4110 6703,4950 Z"/>
     <path fill="rgb(5,118,189)" stroke="none" d="M 6025,5341 L 5324,5746 5324,5341 6025,5341 Z M 6703,4110 L 7021,3926 7021,4766 6703,4950 6703,4110 Z M 6693,4955 L 6043,5331 5324,5331 5324,4906 6693,4115 6693,4955 Z"/>
     <path fill="rgb(6,118,189)" stroke="none" d="M 6043,5331 L 5324,5746 5324,5331 6043,5331 Z M 6693,4115 L 7021,3926 7021,4766 6693,4955 6693,4115 Z M 6683,4961 L 6060,5321 5324,5321 5324,4906 6683,4121 6683,4961 Z"/>
     <path fill="rgb(8,119,190)" stroke="none" d="M 6060,5321 L 5324,5746 5324,5321 6060,5321 Z M 6683,4121 L 7021,3926 7021,4766 6683,4961 6683,4121 Z M 6673,4967 L 6077,5311 5324,5311 5324,4906 6673,4127 6673,4967 Z"/>
     <path fill="rgb(9,120,190)" stroke="none" d="M 6077,5311 L 5324,5746 5324,5311 6077,5311 Z M 6673,4127 L 7021,3926 7021,4766 6673,4967 6673,4127 Z M 6663,4973 L 6095,5301 5324,5301 5324,4906 6663,4133 6663,4973 Z"/>
     <path fill="rgb(11,121,190)" stroke="none" d="M 6095,5301 L 5324,5746 5324,5301 6095,5301 Z M 6663,4133 L 7021,3926 7021,4766 6663,4973 6663,4133 Z M 6653,4979 L 6112,5291 5324,5291 5324,4906 6653,4139 6653,4979 Z"/>
     <path fill="rgb(12,121,191)" stroke="none" d="M 6112,5291 L 5324,5746 5324,5291 6112,5291 Z M 6653,4139 L 7021,3926 7021,4766 6653,4979 6653,4139 Z M 6643,4984 L 6129,5281 5324,5281 5324,4906 6643,4144 6643,4984 Z"/>
     <path fill="rgb(13,122,191)" stroke="none" d="M 6129,5281 L 5324,5746 5324,5281 6129,5281 Z M 6643,4144 L 7021,3926 7021,4766 6643,4984 6643,4144 Z M 6633,4990 L 6147,5271 5324,5271 5324,4906 6633,4150 6633,4990 Z"/>
     <path fill="rgb(15,123,191)" stroke="none" d="M 6147,5271 L 5324,5746 5324,5271 6147,5271 Z M 6633,4150 L 7021,3926 7021,4766 6633,4990 6633,4150 Z M 6623,4996 L 6164,5261 5324,5261 5324,4906 6623,4156 6623,4996 Z"/>
     <path fill="rgb(16,124,192)" stroke="none" d="M 6164,5261 L 5324,5746 5324,5261 6164,5261 Z M 6623,4156 L 7021,3926 7021,4766 6623,4996 6623,4156 Z M 6613,5002 L 6181,5251 5324,5251 5324,4906 6613,4162 6613,5002 Z"/>
     <path fill="rgb(18,125,192)" stroke="none" d="M 6181,5251 L 5324,5746 5324,5251 6181,5251 Z M 6613,4162 L 7021,3926 7021,4766 6613,5002 6613,4162 Z M 6603,5007 L 6198,5241 5324,5241 5324,4906 6603,4167 6603,5007 Z"/>
     <path fill="rgb(19,125,193)" stroke="none" d="M 6198,5241 L 5324,5746 5324,5241 6198,5241 Z M 6603,4167 L 7021,3926 7021,4766 6603,5007 6603,4167 Z M 6593,5013 L 6216,5231 5324,5231 5324,4906 6593,4173 6593,5013 Z"/>
     <path fill="rgb(20,126,193)" stroke="none" d="M 6216,5231 L 5324,5746 5324,5231 6216,5231 Z M 6593,4173 L 7021,3926 7021,4766 6593,5013 6593,4173 Z M 6583,5019 L 6233,5221 5324,5221 5324,4906 6583,4179 6583,5019 Z"/>
     <path fill="rgb(22,127,193)" stroke="none" d="M 6233,5221 L 5324,5746 5324,5221 6233,5221 Z M 6583,4179 L 7021,3926 7021,4766 6583,5019 6583,4179 Z M 6573,5025 L 6250,5211 5324,5211 5324,4906 6573,4185 6573,5025 Z"/>
     <path fill="rgb(23,128,194)" stroke="none" d="M 6250,5211 L 5324,5746 5324,5211 6250,5211 Z M 6573,4185 L 7021,3926 7021,4766 6573,5025 6573,4185 Z M 6563,5030 L 6268,5201 5324,5201 5324,4906 6563,4190 6563,5030 Z"/>
     <path fill="rgb(25,128,194)" stroke="none" d="M 6268,5201 L 5324,5746 5324,5201 6268,5201 Z M 6563,4190 L 7021,3926 7021,4766 6563,5030 6563,4190 Z M 6553,5036 L 6285,5191 5324,5191 5324,4906 6553,4196 6553,5036 Z"/>
     <path fill="rgb(26,129,194)" stroke="none" d="M 6285,5191 L 5324,5746 5324,5191 6285,5191 Z M 6553,4196 L 7021,3926 7021,4766 6553,5036 6553,4196 Z M 6543,5042 L 6302,5181 5324,5181 5324,4906 6543,4202 6543,5042 Z"/>
     <path fill="rgb(27,130,195)" stroke="none" d="M 6302,5181 L 5324,5746 5324,5181 6302,5181 Z M 6543,4202 L 7021,3926 7021,4766 6543,5042 6543,4202 Z M 6533,5048 L 6320,5171 5324,5171 5324,4906 6533,4208 6533,5048 Z"/>
     <path fill="rgb(29,131,195)" stroke="none" d="M 6320,5171 L 5324,5746 5324,5171 6320,5171 Z M 6533,4208 L 7021,3926 7021,4766 6533,5048 6533,4208 Z M 6523,5054 L 6337,5161 5324,5161 5324,4906 6523,4214 6523,5054 Z"/>
     <path fill="rgb(30,131,195)" stroke="none" d="M 6337,5161 L 5324,5746 5324,5161 6337,5161 Z M 6523,4214 L 7021,3926 7021,4766 6523,5054 6523,4214 Z M 6513,5059 L 6354,5151 5324,5151 5324,4906 6513,4219 6513,5059 Z"/>
     <path fill="rgb(32,132,196)" stroke="none" d="M 6354,5151 L 5324,5746 5324,5151 6354,5151 Z M 6513,4219 L 7021,3926 7021,4766 6513,5059 6513,4219 Z M 6503,5065 L 6372,5141 5324,5141 5324,4906 6503,4225 6503,5065 Z"/>
     <path fill="rgb(33,133,196)" stroke="none" d="M 6372,5141 L 5324,5746 5324,5141 6372,5141 Z M 6503,4225 L 7021,3926 7021,4766 6503,5065 6503,4225 Z M 6493,5071 L 6389,5131 5324,5131 5324,4906 6493,4231 6493,5071 Z"/>
     <path fill="rgb(34,134,197)" stroke="none" d="M 6389,5131 L 5324,5746 5324,5131 6389,5131 Z M 6493,4231 L 7021,3926 7021,4766 6493,5071 6493,4231 Z M 6483,5077 L 6406,5121 5324,5121 5324,4906 6483,4237 6483,5077 Z"/>
     <path fill="rgb(36,135,197)" stroke="none" d="M 6406,5121 L 5324,5746 5324,5121 6406,5121 Z M 6483,4237 L 7021,3926 7021,4766 6483,5077 6483,4237 Z M 6473,5082 L 6424,5111 5324,5111 5324,4906 6473,4242 6473,5082 Z"/>
     <path fill="rgb(37,135,197)" stroke="none" d="M 6424,5111 L 5324,5746 5324,5111 6424,5111 Z M 6473,4242 L 7021,3926 7021,4766 6473,5082 6473,4242 Z M 6463,5088 L 6441,5101 5324,5101 5324,4906 6463,4248 6463,5088 Z"/>
     <path fill="rgb(39,136,198)" stroke="none" d="M 6441,5101 L 5324,5746 5324,5101 6441,5101 Z M 6463,4248 L 7021,3926 7021,4766 6463,5088 6463,4248 Z M 6453,5091 L 5324,5091 5324,4906 6453,4254 6453,5091 Z"/>
     <path fill="rgb(40,137,198)" stroke="none" d="M 6453,5091 L 6453,4254 7021,3926 7021,4766 5324,5746 5324,5091 6453,5091 Z M 6443,5081 L 5324,5081 5324,4906 6443,4260 6443,5081 Z"/>
     <path fill="rgb(41,138,198)" stroke="none" d="M 6443,5081 L 6443,4260 7021,3926 7021,4766 5324,5746 5324,5081 6443,5081 Z M 6433,5071 L 5324,5071 5324,4906 6433,4266 6433,5071 Z"/>
     <path fill="rgb(43,138,199)" stroke="none" d="M 6433,5071 L 6433,4266 7021,3926 7021,4766 5324,5746 5324,5071 6433,5071 Z M 6423,5061 L 5324,5061 5324,4906 6423,4271 6423,5061 Z"/>
     <path fill="rgb(44,139,199)" stroke="none" d="M 6423,5061 L 6423,4271 7021,3926 7021,4766 5324,5746 5324,5061 6423,5061 Z M 6413,5051 L 5324,5051 5324,4906 6413,4277 6413,5051 Z"/>
     <path fill="rgb(46,140,199)" stroke="none" d="M 6413,5051 L 6413,4277 7021,3926 7021,4766 5324,5746 5324,5051 6413,5051 Z M 6403,5041 L 5324,5041 5324,4906 6403,4283 6403,5041 Z"/>
     <path fill="rgb(47,141,200)" stroke="none" d="M 6403,5041 L 6403,4283 7021,3926 7021,4766 5324,5746 5324,5041 6403,5041 Z M 6393,5031 L 5324,5031 5324,4906 6393,4289 6393,5031 Z"/>
     <path fill="rgb(48,141,200)" stroke="none" d="M 6393,5031 L 6393,4289 7021,3926 7021,4766 5324,5746 5324,5031 6393,5031 Z M 6383,5021 L 5324,5021 5324,4906 6383,4294 6383,5021 Z"/>
     <path fill="rgb(50,142,201)" stroke="none" d="M 6383,5021 L 6383,4294 7021,3926 7021,4766 5324,5746 5324,5021 6383,5021 Z M 6373,5011 L 5324,5011 5324,4906 6373,4300 6373,5011 Z"/>
     <path fill="rgb(51,143,201)" stroke="none" d="M 6373,5011 L 6373,4300 7021,3926 7021,4766 5324,5746 5324,5011 6373,5011 Z M 6363,5001 L 5324,5001 5324,4906 6363,4306 6363,5001 Z"/>
     <path fill="rgb(53,144,201)" stroke="none" d="M 6363,5001 L 6363,4306 7021,3926 7021,4766 5324,5746 5324,5001 6363,5001 Z M 6353,4991 L 5324,4991 5324,4906 6353,4312 6353,4991 Z"/>
     <path fill="rgb(54,145,202)" stroke="none" d="M 6353,4991 L 6353,4312 7021,3926 7021,4766 5324,5746 5324,4991 6353,4991 Z M 6343,4981 L 5324,4981 5324,4906 6343,4318 6343,4981 Z"/>
     <path fill="rgb(55,145,202)" stroke="none" d="M 6343,4981 L 6343,4318 7021,3926 7021,4766 5324,5746 5324,4981 6343,4981 Z M 6333,4971 L 5332,4971 5332,4901 6333,4323 6333,4971 Z"/>
     <path fill="rgb(57,146,202)" stroke="none" d="M 5332,4971 L 6333,4971 6333,4323 7021,3926 7021,4766 5324,5746 5324,4906 5332,4901 5332,4971 Z M 6323,4961 L 5342,4961 5342,4896 6323,4329 6323,4961 Z"/>
     <path fill="rgb(58,147,203)" stroke="none" d="M 5342,4961 L 6323,4961 6323,4329 7021,3926 7021,4766 5324,5746 5324,4906 5342,4896 5342,4961 Z M 6313,4951 L 5352,4951 5352,4890 6313,4335 6313,4951 Z"/>
     <path fill="rgb(60,148,203)" stroke="none" d="M 5352,4951 L 6313,4951 6313,4335 7021,3926 7021,4766 5324,5746 5324,4906 5352,4890 5352,4951 Z M 6303,4941 L 5362,4941 5362,4884 6303,4341 6303,4941 Z"/>
     <path fill="rgb(61,148,203)" stroke="none" d="M 5362,4941 L 6303,4941 6303,4341 7021,3926 7021,4766 5324,5746 5324,4906 5362,4884 5362,4941 Z M 6293,4931 L 5372,4931 5372,4878 6293,4346 6293,4931 Z"/>
     <path fill="rgb(62,149,204)" stroke="none" d="M 5372,4931 L 6293,4931 6293,4346 7021,3926 7021,4766 5324,5746 5324,4906 5372,4878 5372,4931 Z M 6283,4921 L 5382,4921 5382,4873 6283,4352 6283,4921 Z"/>
     <path fill="rgb(64,150,204)" stroke="none" d="M 5382,4921 L 6283,4921 6283,4352 7021,3926 7021,4766 5324,5746 5324,4906 5382,4873 5382,4921 Z M 6273,4911 L 5392,4911 5392,4867 6273,4358 6273,4911 Z"/>
     <path fill="rgb(65,151,205)" stroke="none" d="M 5392,4911 L 6273,4911 6273,4358 7021,3926 7021,4766 5324,5746 5324,4906 5392,4867 5392,4911 Z M 6263,4901 L 5402,4901 5402,4861 6263,4364 6263,4901 Z"/>
     <path fill="rgb(66,151,205)" stroke="none" d="M 5402,4901 L 6263,4901 6263,4364 7021,3926 7021,4766 5324,5746 5324,4906 5402,4861 5402,4901 Z M 6253,4891 L 5412,4891 5412,4855 6253,4370 6253,4891 Z"/>
     <path fill="rgb(68,152,205)" stroke="none" d="M 5412,4891 L 6253,4891 6253,4370 7021,3926 7021,4766 5324,5746 5324,4906 5412,4855 5412,4891 Z M 6243,4881 L 5422,4881 5422,4849 6243,4375 6243,4881 Z"/>
     <path fill="rgb(69,153,206)" stroke="none" d="M 5422,4881 L 6243,4881 6243,4375 7021,3926 7021,4766 5324,5746 5324,4906 5422,4849 5422,4881 Z M 6233,4871 L 5432,4871 5432,4844 6233,4381 6233,4871 Z"/>
     <path fill="rgb(71,154,206)" stroke="none" d="M 5432,4871 L 6233,4871 6233,4381 7021,3926 7021,4766 5324,5746 5324,4906 5432,4844 5432,4871 Z M 6223,4861 L 5442,4861 5442,4838 6223,4387 6223,4861 Z"/>
     <path fill="rgb(72,155,206)" stroke="none" d="M 5442,4861 L 6223,4861 6223,4387 7021,3926 7021,4766 5324,5746 5324,4906 5442,4838 5442,4861 Z M 6213,4851 L 5452,4851 5452,4832 6213,4393 6213,4851 Z"/>
     <path fill="rgb(73,155,207)" stroke="none" d="M 5452,4851 L 6213,4851 6213,4393 7021,3926 7021,4766 5324,5746 5324,4906 5452,4832 5452,4851 Z M 6203,4841 L 5462,4841 5462,4826 6203,4398 6203,4841 Z"/>
     <path fill="rgb(75,156,207)" stroke="none" d="M 5462,4841 L 6203,4841 6203,4398 7021,3926 7021,4766 5324,5746 5324,4906 5462,4826 5462,4841 Z M 6193,4831 L 5472,4831 5472,4821 6193,4404 6193,4831 Z"/>
     <path fill="rgb(76,157,207)" stroke="none" d="M 5472,4831 L 6193,4831 6193,4404 7021,3926 7021,4766 5324,5746 5324,4906 5472,4821 5472,4831 Z M 6183,4821 L 5482,4821 5482,4815 6183,4410 6183,4821 Z"/>
     <path fill="rgb(78,158,208)" stroke="none" d="M 5482,4821 L 6183,4821 6183,4410 7021,3926 7021,4766 5324,5746 5324,4906 5482,4815 5482,4821 Z M 6173,4811 L 5492,4811 5492,4809 6173,4416 6173,4811 Z"/>
     <path fill="rgb(79,158,208)" stroke="none" d="M 5492,4811 L 6173,4811 6173,4416 7021,3926 7021,4766 5324,5746 5324,4906 5492,4809 5492,4811 Z M 6163,4801 L 5506,4801 6163,4421 6163,4801 Z"/>
     <path fill="rgb(80,159,209)" stroke="none" d="M 6163,4801 L 6163,4421 7021,3926 7021,4766 5324,5746 5324,4906 5506,4801 6163,4801 Z M 6153,4791 L 5523,4791 6153,4427 6153,4791 Z"/>
     <path fill="rgb(82,160,209)" stroke="none" d="M 6153,4791 L 6153,4427 7021,3926 7021,4766 5324,5746 5324,4906 5523,4791 6153,4791 Z M 6143,4781 L 5540,4781 6143,4433 6143,4781 Z"/>
     <path fill="rgb(83,161,209)" stroke="none" d="M 6143,4781 L 6143,4433 7021,3926 7021,4766 5324,5746 5324,4906 5540,4781 6143,4781 Z M 6132,4770 L 5560,4770 6132,4439 6132,4770 Z"/>
     <path fill="rgb(85,161,210)" stroke="none" d="M 6132,4770 L 6132,4439 7021,3926 7021,4766 5324,5746 5324,4906 5560,4770 6132,4770 Z M 6122,4760 L 5577,4760 6122,4445 6122,4760 Z"/>
     <path fill="rgb(86,162,210)" stroke="none" d="M 6122,4760 L 6122,4445 7021,3926 7021,4766 5324,5746 5324,4906 5577,4760 6122,4760 Z M 6112,4750 L 5594,4750 6112,4451 6112,4750 Z"/>
     <path fill="rgb(87,163,210)" stroke="none" d="M 6112,4750 L 6112,4451 7021,3926 7021,4766 5324,5746 5324,4906 5594,4750 6112,4750 Z M 6102,4740 L 5611,4740 6102,4457 6102,4740 Z"/>
     <path fill="rgb(89,164,211)" stroke="none" d="M 6102,4740 L 6102,4457 7021,3926 7021,4766 5324,5746 5324,4906 5611,4740 6102,4740 Z M 6092,4730 L 5629,4730 6092,4462 6092,4730 Z"/>
     <path fill="rgb(90,165,211)" stroke="none" d="M 6092,4730 L 6092,4462 7021,3926 7021,4766 5324,5746 5324,4906 5629,4730 6092,4730 Z M 6082,4720 L 5646,4720 6082,4468 6082,4720 Z"/>
     <path fill="rgb(92,165,211)" stroke="none" d="M 6082,4720 L 6082,4468 7021,3926 7021,4766 5324,5746 5324,4906 5646,4720 6082,4720 Z M 6072,4710 L 5663,4710 6072,4474 6072,4710 Z"/>
     <path fill="rgb(93,166,212)" stroke="none" d="M 6072,4710 L 6072,4474 7021,3926 7021,4766 5324,5746 5324,4906 5663,4710 6072,4710 Z M 6062,4700 L 5681,4700 6062,4480 6062,4700 Z"/>
     <path fill="rgb(94,167,212)" stroke="none" d="M 6062,4700 L 6062,4480 7021,3926 7021,4766 5324,5746 5324,4906 5681,4700 6062,4700 Z M 6052,4690 L 5698,4690 6052,4486 6052,4690 Z"/>
     <path fill="rgb(96,168,213)" stroke="none" d="M 6052,4690 L 6052,4486 7021,3926 7021,4766 5324,5746 5324,4906 5698,4690 6052,4690 Z M 6042,4680 L 5715,4680 6042,4491 6042,4680 Z"/>
     <path fill="rgb(97,168,213)" stroke="none" d="M 6042,4680 L 6042,4491 7021,3926 7021,4766 5324,5746 5324,4906 5715,4680 6042,4680 Z M 6032,4670 L 5733,4670 6032,4497 6032,4670 Z"/>
     <path fill="rgb(99,169,213)" stroke="none" d="M 6032,4670 L 6032,4497 7021,3926 7021,4766 5324,5746 5324,4906 5733,4670 6032,4670 Z M 6022,4660 L 5750,4660 6022,4503 6022,4660 Z"/>
     <path fill="rgb(100,170,214)" stroke="none" d="M 6022,4660 L 6022,4503 7021,3926 7021,4766 5324,5746 5324,4906 5750,4660 6022,4660 Z M 6012,4650 L 5767,4650 6012,4509 6012,4650 Z"/>
     <path fill="rgb(101,171,214)" stroke="none" d="M 6012,4650 L 6012,4509 7021,3926 7021,4766 5324,5746 5324,4906 5767,4650 6012,4650 Z M 6002,4640 L 5785,4640 6002,4514 6002,4640 Z"/>
     <path fill="rgb(103,171,214)" stroke="none" d="M 6002,4640 L 6002,4514 7021,3926 7021,4766 5324,5746 5324,4906 5785,4640 6002,4640 Z M 5992,4630 L 5802,4630 5992,4520 5992,4630 Z"/>
     <path fill="rgb(104,172,215)" stroke="none" d="M 5992,4630 L 5992,4520 7021,3926 7021,4766 5324,5746 5324,4906 5802,4630 5992,4630 Z M 5982,4620 L 5819,4620 5982,4526 5982,4620 Z"/>
     <path fill="rgb(106,173,215)" stroke="none" d="M 5982,4620 L 5982,4526 7021,3926 7021,4766 5324,5746 5324,4906 5819,4620 5982,4620 Z M 5972,4610 L 5837,4610 5972,4532 5972,4610 Z"/>
     <path fill="rgb(107,174,215)" stroke="none" d="M 5972,4610 L 5972,4532 7021,3926 7021,4766 5324,5746 5324,4906 5837,4610 5972,4610 Z M 5962,4600 L 5854,4600 5962,4538 5962,4600 Z"/>
     <path fill="rgb(108,175,216)" stroke="none" d="M 5962,4600 L 5962,4538 7021,3926 7021,4766 5324,5746 5324,4906 5854,4600 5962,4600 Z M 5952,4590 L 5871,4590 5952,4543 5952,4590 Z"/>
     <path fill="rgb(110,175,216)" stroke="none" d="M 5952,4590 L 5952,4543 7021,3926 7021,4766 5324,5746 5324,4906 5871,4590 5952,4590 Z M 5942,4580 L 5889,4580 5942,4549 5942,4580 Z"/>
     <path fill="rgb(111,176,217)" stroke="none" d="M 5942,4580 L 5942,4549 7021,3926 7021,4766 5324,5746 5324,4906 5889,4580 5942,4580 Z M 5932,4570 L 5906,4570 5932,4555 5932,4570 Z"/>
     <path fill="rgb(113,177,217)" stroke="none" d="M 5932,4570 L 5932,4555 7021,3926 7021,4766 5324,5746 5324,4906 5906,4570 5932,4570 Z"/>
     <path fill="rgb(114,178,217)" stroke="none" d="M 5324,5746 L 5324,4906 7021,3926 7021,4766 5324,5746 Z"/>
     <path fill="rgb(115,178,218)" stroke="none" d="M 5324,5746 L 5324,4906 7021,3926 7021,4766 5324,5746 Z"/>
     <path fill="rgb(117,179,218)" stroke="none" d="M 5324,5746 L 5324,4906 7021,3926 7021,4766 5324,5746 Z"/>
     <path fill="rgb(118,180,218)" stroke="none" d="M 5324,5746 L 5324,4906 7021,3926 7021,4766 5324,5746 Z"/>
     <path fill="rgb(120,181,219)" stroke="none" d="M 5324,5746 L 5324,4906 7021,3926 7021,4766 5324,5746 Z"/>
     <path fill="rgb(121,181,219)" stroke="none" d="M 5324,5746 L 5324,4906 7021,3926 7021,4766 5324,5746 Z"/>
     <path fill="rgb(122,182,219)" stroke="none" d="M 5324,5746 L 5324,4906 7021,3926 7021,4766 5324,5746 Z"/>
     <path fill="rgb(124,183,220)" stroke="none" d="M 5324,5746 L 5324,4906 7021,3926 7021,4766 5324,5746 Z"/>
     <path fill="rgb(127,185,221)" stroke="none" d="M 5324,5746 L 5324,4906 7021,3926 7021,4766 5324,5746 Z"/>
     <path fill="none" stroke="rgb(255,255,255)" id="Drawing_3_0" stroke-width="40" stroke-linejoin="round" d="M 5324,5746 L 5324,4906 7021,3926 7021,4766 5324,5746 Z"/>
    </g>
    <g>
     <defs>
      <linearGradient id="Gradient_1086" gradientUnits="userSpaceOnUse" x1="5323" y1="2946" x2="5323" y2="4906">
       <stop offset="0.1" stop-color="rgb(0,115,188)"/>
       <stop offset="1" stop-color="rgb(127,185,221)"/>
      </linearGradient>
     </defs>
     <path fill="url(#Gradient_1086)" stroke="rgb(255,255,255)" id="Drawing_4_0" stroke-width="40" stroke-linejoin="round" d="M 5324,4906 L 3626,3926 5324,2946 7021,3926 5324,4906 Z"/>
    </g>
    <g>
     <path fill="none" stroke="rgb(0,0,0)" id="Drawing_5_0" stroke-width="40" stroke-linejoin="round" d="M 3626,4766 L 3626,3926 5324,2946 7021,3926 7021,4766 5324,5746 3626,4766 Z"/>
    </g>
    <g>
     <path fill="rgb(255,255,255)" stroke="none" d="M 5688,4066 L 5809,3996 5809,4206 5445,4206 5566,4136 4839,3716 4960,3646 5688,4066 Z"/>
     <path fill="none" stroke="rgb(255,255,255)" id="Drawing_6_0" stroke-width="40" stroke-linejoin="round" d="M 5688,4066 L 5809,3996 5809,4206 5445,4206 5566,4136 4839,3716 4960,3646 5688,4066 Z"/>
    </g>
   </g>
  </g>
 </g>
</svg>