<?xml version="1.0" encoding="UTF-8"?>

<svg version="1.2" baseProfile="tiny" width="36.75mm" height="28.4mm" viewBox="9616 3266 3675 2840" preserveAspectRatio="xMidYMid" fill-rule="evenodd" stroke-width="28.222" stroke-linejoin="round" xmlns="http://www.w3.org/2000/svg" xmlns:xlink="http://www.w3.org/1999/xlink" xml:space="preserve">
 <g visibility="visible" id="Slide_1">
  <g id="DrawingGroup_1">
   <g>
    <path fill="rgb(221,221,221)" stroke="none" d="M 11419,6051 C 11894,6051 13117,5491 13238,5281 13359,5071 13117,4861 12996,4861 12996,5161 11419,5551 11419,6051 Z"/>
    <path fill="none" stroke="rgb(221,221,221)" id="Drawing_1_0" stroke-width="40" stroke-linejoin="round" d="M 11419,6051 C 11894,6051 13117,5491 13238,5281 13359,5071 13117,4861 12996,4861 12996,5161 11419,5551 11419,6051 Z"/>
   </g>
   <g id="DrawingGroup_2">
    <g>
     <defs>
      <linearGradient id="Gradient_1087" gradientUnits="userSpaceOnUse" x1="9634" y1="5175" x2="11336" y2="5177">
       <stop offset="0.1" stop-color="rgb(0,115,188)"/>
       <stop offset="1" stop-color="rgb(127,185,221)"/>
      </linearGradient>
     </defs>
     <path fill="url(#Gradient_1087)" stroke="rgb(255,255,255)" id="Drawing_2_0" stroke-width="40" stroke-linejoin="round" d="M 9636,5106 L 9636,4266 11334,5246 11334,6086 9636,5106 Z"/>
    </g>
    <g>
     <path fill="rgb(0,115,188)" stroke="none" d="M 12743,5272 L 11983,5711 11334,5711 11334,5246 12743,4432 12743,5272 Z"/>
     <path fill="rgb(1,115,188)" stroke="none" d="M 11983,5711 L 11334,6086 11334,5711 11983,5711 Z M 12743,4432 L 13031,4266 13031,5106 12743,5272 12743,4432 Z M 12733,5278 L 12001,5701 11334,5701 11334,5246 12733,4438 12733,5278 Z"/>
     <path fill="rgb(2,116,188)" stroke="none" d="M 12001,5701 L 11334,6086 11334,5701 12001,5701 Z M 12733,4438 L 13031,4266 13031,5106 12733,5278 12733,4438 Z M 12723,5284 L 12018,5691 11334,5691 11334,5246 12723,4444 12723,5284 Z"/>
     <path fill="rgb(4,117,189)" stroke="none" d="M 12018,5691 L 11334,6086 11334,5691 12018,5691 Z M 12723,4444 L 13031,4266 13031,5106 12723,5284 12723,4444 Z M 12713,5290 L 12035,5681 11334,5681 11334,5246 12713,4450 12713,5290 Z"/>
     <path fill="rgb(5,118,189)" stroke="none" d="M 12035,5681 L 11334,6086 11334,5681 12035,5681 Z M 12713,4450 L 13031,4266 13031,5106 12713,5290 12713,4450 Z M 12703,5295 L 12053,5671 11334,5671 11334,5246 12703,4455 12703,5295 Z"/>
     <path fill="rgb(6,118,189)" stroke="none" d="M 12053,5671 L 11334,6086 11334,5671 12053,5671 Z M 12703,4455 L 13031,4266 13031,5106 12703,5295 12703,4455 Z M 12693,5301 L 12070,5661 11334,5661 11334,5246 12693,4461 12693,5301 Z"/>
     <path fill="rgb(8,119,190)" stroke="none" d="M 12070,5661 L 11334,6086 11334,5661 12070,5661 Z M 12693,4461 L 13031,4266 13031,5106 12693,5301 12693,4461 Z M 12683,5307 L 12087,5651 11334,5651 11334,5246 12683,4467 12683,5307 Z"/>
     <path fill="rgb(9,120,190)" stroke="none" d="M 12087,5651 L 11334,6086 11334,5651 12087,5651 Z M 12683,4467 L 13031,4266 13031,5106 12683,5307 12683,4467 Z M 12673,5313 L 12105,5641 11334,5641 11334,5246 12673,4473 12673,5313 Z"/>
     <path fill="rgb(11,121,190)" stroke="none" d="M 12105,5641 L 11334,6086 11334,5641 12105,5641 Z M 12673,4473 L 13031,4266 13031,5106 12673,5313 12673,4473 Z M 12663,5319 L 12122,5631 11334,5631 11334,5246 12663,4479 12663,5319 Z"/>
     <path fill="rgb(12,121,191)" stroke="none" d="M 12122,5631 L 11334,6086 11334,5631 12122,5631 Z M 12663,4479 L 13031,4266 13031,5106 12663,5319 12663,4479 Z M 12653,5324 L 12139,5621 11334,5621 11334,5246 12653,4484 12653,5324 Z"/>
     <path fill="rgb(13,122,191)" stroke="none" d="M 12139,5621 L 11334,6086 11334,5621 12139,5621 Z M 12653,4484 L 13031,4266 13031,5106 12653,5324 12653,4484 Z M 12643,5330 L 12157,5611 11334,5611 11334,5246 12643,4490 12643,5330 Z"/>
     <path fill="rgb(15,123,191)" stroke="none" d="M 12157,5611 L 11334,6086 11334,5611 12157,5611 Z M 12643,4490 L 13031,4266 13031,5106 12643,5330 12643,4490 Z M 12633,5336 L 12174,5601 11334,5601 11334,5246 12633,4496 12633,5336 Z"/>
     <path fill="rgb(16,124,192)" stroke="none" d="M 12174,5601 L 11334,6086 11334,5601 12174,5601 Z M 12633,4496 L 13031,4266 13031,5106 12633,5336 12633,4496 Z M 12623,5342 L 12191,5591 11334,5591 11334,5246 12623,4502 12623,5342 Z"/>
     <path fill="rgb(18,125,192)" stroke="none" d="M 12191,5591 L 11334,6086 11334,5591 12191,5591 Z M 12623,4502 L 13031,4266 13031,5106 12623,5342 12623,4502 Z M 12613,5347 L 12208,5581 11334,5581 11334,5246 12613,4507 12613,5347 Z"/>
     <path fill="rgb(19,125,193)" stroke="none" d="M 12208,5581 L 11334,6086 11334,5581 12208,5581 Z M 12613,4507 L 13031,4266 13031,5106 12613,5347 12613,4507 Z M 12603,5353 L 12226,5571 11334,5571 11334,5246 12603,4513 12603,5353 Z"/>
     <path fill="rgb(20,126,193)" stroke="none" d="M 12226,5571 L 11334,6086 11334,5571 12226,5571 Z M 12603,4513 L 13031,4266 13031,5106 12603,5353 12603,4513 Z M 12593,5359 L 12243,5561 11334,5561 11334,5246 12593,4519 12593,5359 Z"/>
     <path fill="rgb(22,127,193)" stroke="none" d="M 12243,5561 L 11334,6086 11334,5561 12243,5561 Z M 12593,4519 L 13031,4266 13031,5106 12593,5359 12593,4519 Z M 12583,5365 L 12260,5551 11334,5551 11334,5246 12583,4525 12583,5365 Z"/>
     <path fill="rgb(23,128,194)" stroke="none" d="M 12260,5551 L 11334,6086 11334,5551 12260,5551 Z M 12583,4525 L 13031,4266 13031,5106 12583,5365 12583,4525 Z M 12573,5370 L 12278,5541 11334,5541 11334,5246 12573,4530 12573,5370 Z"/>
     <path fill="rgb(25,128,194)" stroke="none" d="M 12278,5541 L 11334,6086 11334,5541 12278,5541 Z M 12573,4530 L 13031,4266 13031,5106 12573,5370 12573,4530 Z M 12563,5376 L 12295,5531 11334,5531 11334,5246 12563,4536 12563,5376 Z"/>
     <path fill="rgb(26,129,194)" stroke="none" d="M 12295,5531 L 11334,6086 11334,5531 12295,5531 Z M 12563,4536 L 13031,4266 13031,5106 12563,5376 12563,4536 Z M 12553,5382 L 12312,5521 11334,5521 11334,5246 12553,4542 12553,5382 Z"/>
     <path fill="rgb(27,130,195)" stroke="none" d="M 12312,5521 L 11334,6086 11334,5521 12312,5521 Z M 12553,4542 L 13031,4266 13031,5106 12553,5382 12553,4542 Z M 12543,5388 L 12330,5511 11334,5511 11334,5246 12543,4548 12543,5388 Z"/>
     <path fill="rgb(29,131,195)" stroke="none" d="M 12330,5511 L 11334,6086 11334,5511 12330,5511 Z M 12543,4548 L 13031,4266 13031,5106 12543,5388 12543,4548 Z M 12533,5394 L 12347,5501 11334,5501 11334,5246 12533,4554 12533,5394 Z"/>
     <path fill="rgb(30,131,195)" stroke="none" d="M 12347,5501 L 11334,6086 11334,5501 12347,5501 Z M 12533,4554 L 13031,4266 13031,5106 12533,5394 12533,4554 Z M 12523,5399 L 12364,5491 11334,5491 11334,5246 12523,4559 12523,5399 Z"/>
     <path fill="rgb(32,132,196)" stroke="none" d="M 12364,5491 L 11334,6086 11334,5491 12364,5491 Z M 12523,4559 L 13031,4266 13031,5106 12523,5399 12523,4559 Z M 12513,5405 L 12382,5481 11334,5481 11334,5246 12513,4565 12513,5405 Z"/>
     <path fill="rgb(33,133,196)" stroke="none" d="M 12382,5481 L 11334,6086 11334,5481 12382,5481 Z M 12513,4565 L 13031,4266 13031,5106 12513,5405 12513,4565 Z M 12503,5411 L 12399,5471 11334,5471 11334,5246 12503,4571 12503,5411 Z"/>
     <path fill="rgb(34,134,197)" stroke="none" d="M 12399,5471 L 11334,6086 11334,5471 12399,5471 Z M 12503,4571 L 13031,4266 13031,5106 12503,5411 12503,4571 Z M 12493,5417 L 12416,5461 11334,5461 11334,5246 12493,4577 12493,5417 Z"/>
     <path fill="rgb(36,135,197)" stroke="none" d="M 12416,5461 L 11334,6086 11334,5461 12416,5461 Z M 12493,4577 L 13031,4266 13031,5106 12493,5417 12493,4577 Z M 12483,5422 L 12434,5451 11334,5451 11334,5246 12483,4582 12483,5422 Z"/>
     <path fill="rgb(37,135,197)" stroke="none" d="M 12434,5451 L 11334,6086 11334,5451 12434,5451 Z M 12483,4582 L 13031,4266 13031,5106 12483,5422 12483,4582 Z M 12473,5428 L 12451,5441 11334,5441 11334,5246 12473,4588 12473,5428 Z"/>
     <path fill="rgb(39,136,198)" stroke="none" d="M 12451,5441 L 11334,6086 11334,5441 12451,5441 Z M 12473,4588 L 13031,4266 13031,5106 12473,5428 12473,4588 Z M 12463,5431 L 11334,5431 11334,5246 12463,4594 12463,5431 Z"/>
     <path fill="rgb(40,137,198)" stroke="none" d="M 12463,5431 L 12463,4594 13031,4266 13031,5106 11334,6086 11334,5431 12463,5431 Z M 12453,5421 L 11334,5421 11334,5246 12453,4600 12453,5421 Z"/>
     <path fill="rgb(41,138,198)" stroke="none" d="M 12453,5421 L 12453,4600 13031,4266 13031,5106 11334,6086 11334,5421 12453,5421 Z M 12443,5411 L 11334,5411 11334,5246 12443,4606 12443,5411 Z"/>
     <path fill="rgb(43,138,199)" stroke="none" d="M 12443,5411 L 12443,4606 13031,4266 13031,5106 11334,6086 11334,5411 12443,5411 Z M 12433,5401 L 11334,5401 11334,5246 12433,4611 12433,5401 Z"/>
     <path fill="rgb(44,139,199)" stroke="none" d="M 12433,5401 L 12433,4611 13031,4266 13031,5106 11334,6086 11334,5401 12433,5401 Z M 12423,5391 L 11334,5391 11334,5246 12423,4617 12423,5391 Z"/>
     <path fill="rgb(46,140,199)" stroke="none" d="M 12423,5391 L 12423,4617 13031,4266 13031,5106 11334,6086 11334,5391 12423,5391 Z M 12413,5381 L 11334,5381 11334,5246 12413,4623 12413,5381 Z"/>
     <path fill="rgb(47,141,200)" stroke="none" d="M 12413,5381 L 12413,4623 13031,4266 13031,5106 11334,6086 11334,5381 12413,5381 Z M 12403,5371 L 11334,5371 11334,5246 12403,4629 12403,5371 Z"/>
     <path fill="rgb(48,141,200)" stroke="none" d="M 12403,5371 L 12403,4629 13031,4266 13031,5106 11334,6086 11334,5371 12403,5371 Z M 12393,5361 L 11334,5361 11334,5246 12393,4634 12393,5361 Z"/>
     <path fill="rgb(50,142,201)" stroke="none" d="M 12393,5361 L 12393,4634 13031,4266 13031,5106 11334,6086 11334,5361 12393,5361 Z M 12383,5351 L 11334,5351 11334,5246 12383,4640 12383,5351 Z"/>
     <path fill="rgb(51,143,201)" stroke="none" d="M 12383,5351 L 12383,4640 13031,4266 13031,5106 11334,6086 11334,5351 12383,5351 Z M 12373,5341 L 11334,5341 11334,5246 12373,4646 12373,5341 Z"/>
     <path fill="rgb(53,144,201)" stroke="none" d="M 12373,5341 L 12373,4646 13031,4266 13031,5106 11334,6086 11334,5341 12373,5341 Z M 12363,5331 L 11334,5331 11334,5246 12363,4652 12363,5331 Z"/>
     <path fill="rgb(54,145,202)" stroke="none" d="M 12363,5331 L 12363,4652 13031,4266 13031,5106 11334,6086 11334,5331 12363,5331 Z M 12353,5321 L 11334,5321 11334,5246 12353,4658 12353,5321 Z"/>
     <path fill="rgb(55,145,202)" stroke="none" d="M 12353,5321 L 12353,4658 13031,4266 13031,5106 11334,6086 11334,5321 12353,5321 Z M 12343,5311 L 11342,5311 11342,5241 12343,4663 12343,5311 Z"/>
     <path fill="rgb(57,146,202)" stroke="none" d="M 11342,5311 L 12343,5311 12343,4663 13031,4266 13031,5106 11334,6086 11334,5246 11342,5241 11342,5311 Z M 12333,5301 L 11352,5301 11352,5236 12333,4669 12333,5301 Z"/>
     <path fill="rgb(58,147,203)" stroke="none" d="M 11352,5301 L 12333,5301 12333,4669 13031,4266 13031,5106 11334,6086 11334,5246 11352,5236 11352,5301 Z M 12323,5291 L 11362,5291 11362,5230 12323,4675 12323,5291 Z"/>
     <path fill="rgb(60,148,203)" stroke="none" d="M 11362,5291 L 12323,5291 12323,4675 13031,4266 13031,5106 11334,6086 11334,5246 11362,5230 11362,5291 Z M 12313,5281 L 11372,5281 11372,5224 12313,4681 12313,5281 Z"/>
     <path fill="rgb(61,148,203)" stroke="none" d="M 11372,5281 L 12313,5281 12313,4681 13031,4266 13031,5106 11334,6086 11334,5246 11372,5224 11372,5281 Z M 12303,5271 L 11382,5271 11382,5218 12303,4686 12303,5271 Z"/>
     <path fill="rgb(62,149,204)" stroke="none" d="M 11382,5271 L 12303,5271 12303,4686 13031,4266 13031,5106 11334,6086 11334,5246 11382,5218 11382,5271 Z M 12293,5261 L 11392,5261 11392,5213 12293,4692 12293,5261 Z"/>
     <path fill="rgb(64,150,204)" stroke="none" d="M 11392,5261 L 12293,5261 12293,4692 13031,4266 13031,5106 11334,6086 11334,5246 11392,5213 11392,5261 Z M 12283,5251 L 11402,5251 11402,5207 12283,4698 12283,5251 Z"/>
     <path fill="rgb(65,151,205)" stroke="none" d="M 11402,5251 L 12283,5251 12283,4698 13031,4266 13031,5106 11334,6086 11334,5246 11402,5207 11402,5251 Z M 12273,5241 L 11412,5241 11412,5201 12273,4704 12273,5241 Z"/>
     <path fill="rgb(66,151,205)" stroke="none" d="M 11412,5241 L 12273,5241 12273,4704 13031,4266 13031,5106 11334,6086 11334,5246 11412,5201 11412,5241 Z M 12263,5231 L 11422,5231 11422,5195 12263,4710 12263,5231 Z"/>
     <path fill="rgb(68,152,205)" stroke="none" d="M 11422,5231 L 12263,5231 12263,4710 13031,4266 13031,5106 11334,6086 11334,5246 11422,5195 11422,5231 Z M 12253,5221 L 11432,5221 11432,5189 12253,4715 12253,5221 Z"/>
     <path fill="rgb(69,153,206)" stroke="none" d="M 11432,5221 L 12253,5221 12253,4715 13031,4266 13031,5106 11334,6086 11334,5246 11432,5189 11432,5221 Z M 12243,5211 L 11442,5211 11442,5184 12243,4721 12243,5211 Z"/>
     <path fill="rgb(71,154,206)" stroke="none" d="M 11442,5211 L 12243,5211 12243,4721 13031,4266 13031,5106 11334,6086 11334,5246 11442,5184 11442,5211 Z M 12233,5201 L 11452,5201 11452,5178 12233,4727 12233,5201 Z"/>
     <path fill="rgb(72,155,206)" stroke="none" d="M 11452,5201 L 12233,5201 12233,4727 13031,4266 13031,5106 11334,6086 11334,5246 11452,5178 11452,5201 Z M 12223,5191 L 11462,5191 11462,5172 12223,4733 12223,5191 Z"/>
     <path fill="rgb(73,155,207)" stroke="none" d="M 11462,5191 L 12223,5191 12223,4733 13031,4266 13031,5106 11334,6086 11334,5246 11462,5172 11462,5191 Z M 12213,5181 L 11472,5181 11472,5166 12213,4738 12213,5181 Z"/>
     <path fill="rgb(75,156,207)" stroke="none" d="M 11472,5181 L 12213,5181 12213,4738 13031,4266 13031,5106 11334,6086 11334,5246 11472,5166 11472,5181 Z M 12203,5171 L 11482,5171 11482,5161 12203,4744 12203,5171 Z"/>
     <path fill="rgb(76,157,207)" stroke="none" d="M 11482,5171 L 12203,5171 12203,4744 13031,4266 13031,5106 11334,6086 11334,5246 11482,5161 11482,5171 Z M 12193,5161 L 11492,5161 11492,5155 12193,4750 12193,5161 Z"/>
     <path fill="rgb(78,158,208)" stroke="none" d="M 11492,5161 L 12193,5161 12193,4750 13031,4266 13031,5106 11334,6086 11334,5246 11492,5155 11492,5161 Z M 12183,5151 L 11502,5151 11502,5149 12183,4756 12183,5151 Z"/>
     <path fill="rgb(79,158,208)" stroke="none" d="M 11502,5151 L 12183,5151 12183,4756 13031,4266 13031,5106 11334,6086 11334,5246 11502,5149 11502,5151 Z M 12173,5141 L 11516,5141 12173,4761 12173,5141 Z"/>
     <path fill="rgb(80,159,209)" stroke="none" d="M 12173,5141 L 12173,4761 13031,4266 13031,5106 11334,6086 11334,5246 11516,5141 12173,5141 Z M 12163,5131 L 11533,5131 12163,4767 12163,5131 Z"/>
     <path fill="rgb(82,160,209)" stroke="none" d="M 12163,5131 L 12163,4767 13031,4266 13031,5106 11334,6086 11334,5246 11533,5131 12163,5131 Z M 12153,5121 L 11550,5121 12153,4773 12153,5121 Z"/>
     <path fill="rgb(83,161,209)" stroke="none" d="M 12153,5121 L 12153,4773 13031,4266 13031,5106 11334,6086 11334,5246 11550,5121 12153,5121 Z M 12142,5110 L 11570,5110 12142,4779 12142,5110 Z"/>
     <path fill="rgb(85,161,210)" stroke="none" d="M 12142,5110 L 12142,4779 13031,4266 13031,5106 11334,6086 11334,5246 11570,5110 12142,5110 Z M 12132,5100 L 11587,5100 12132,4785 12132,5100 Z"/>
     <path fill="rgb(86,162,210)" stroke="none" d="M 12132,5100 L 12132,4785 13031,4266 13031,5106 11334,6086 11334,5246 11587,5100 12132,5100 Z M 12122,5090 L 11604,5090 12122,4791 12122,5090 Z"/>
     <path fill="rgb(87,163,210)" stroke="none" d="M 12122,5090 L 12122,4791 13031,4266 13031,5106 11334,6086 11334,5246 11604,5090 12122,5090 Z M 12112,5080 L 11621,5080 12112,4797 12112,5080 Z"/>
     <path fill="rgb(89,164,211)" stroke="none" d="M 12112,5080 L 12112,4797 13031,4266 13031,5106 11334,6086 11334,5246 11621,5080 12112,5080 Z M 12102,5070 L 11639,5070 12102,4802 12102,5070 Z"/>
     <path fill="rgb(90,165,211)" stroke="none" d="M 12102,5070 L 12102,4802 13031,4266 13031,5106 11334,6086 11334,5246 11639,5070 12102,5070 Z M 12092,5060 L 11656,5060 12092,4808 12092,5060 Z"/>
     <path fill="rgb(92,165,211)" stroke="none" d="M 12092,5060 L 12092,4808 13031,4266 13031,5106 11334,6086 11334,5246 11656,5060 12092,5060 Z M 12082,5050 L 11673,5050 12082,4814 12082,5050 Z"/>
     <path fill="rgb(93,166,212)" stroke="none" d="M 12082,5050 L 12082,4814 13031,4266 13031,5106 11334,6086 11334,5246 11673,5050 12082,5050 Z M 12072,5040 L 11691,5040 12072,4820 12072,5040 Z"/>
     <path fill="rgb(94,167,212)" stroke="none" d="M 12072,5040 L 12072,4820 13031,4266 13031,5106 11334,6086 11334,5246 11691,5040 12072,5040 Z M 12062,5030 L 11708,5030 12062,4826 12062,5030 Z"/>
     <path fill="rgb(96,168,213)" stroke="none" d="M 12062,5030 L 12062,4826 13031,4266 13031,5106 11334,6086 11334,5246 11708,5030 12062,5030 Z M 12052,5020 L 11725,5020 12052,4831 12052,5020 Z"/>
     <path fill="rgb(97,168,213)" stroke="none" d="M 12052,5020 L 12052,4831 13031,4266 13031,5106 11334,6086 11334,5246 11725,5020 12052,5020 Z M 12042,5010 L 11743,5010 12042,4837 12042,5010 Z"/>
     <path fill="rgb(99,169,213)" stroke="none" d="M 12042,5010 L 12042,4837 13031,4266 13031,5106 11334,6086 11334,5246 11743,5010 12042,5010 Z M 12032,5000 L 11760,5000 12032,4843 12032,5000 Z"/>
     <path fill="rgb(100,170,214)" stroke="none" d="M 12032,5000 L 12032,4843 13031,4266 13031,5106 11334,6086 11334,5246 11760,5000 12032,5000 Z M 12022,4990 L 11777,4990 12022,4849 12022,4990 Z"/>
     <path fill="rgb(101,171,214)" stroke="none" d="M 12022,4990 L 12022,4849 13031,4266 13031,5106 11334,6086 11334,5246 11777,4990 12022,4990 Z M 12012,4980 L 11795,4980 12012,4854 12012,4980 Z"/>
     <path fill="rgb(103,171,214)" stroke="none" d="M 12012,4980 L 12012,4854 13031,4266 13031,5106 11334,6086 11334,5246 11795,4980 12012,4980 Z M 12002,4970 L 11812,4970 12002,4860 12002,4970 Z"/>
     <path fill="rgb(104,172,215)" stroke="none" d="M 12002,4970 L 12002,4860 13031,4266 13031,5106 11334,6086 11334,5246 11812,4970 12002,4970 Z M 11992,4960 L 11829,4960 11992,4866 11992,4960 Z"/>
     <path fill="rgb(106,173,215)" stroke="none" d="M 11992,4960 L 11992,4866 13031,4266 13031,5106 11334,6086 11334,5246 11829,4960 11992,4960 Z M 11982,4950 L 11847,4950 11982,4872 11982,4950 Z"/>
     <path fill="rgb(107,174,215)" stroke="none" d="M 11982,4950 L 11982,4872 13031,4266 13031,5106 11334,6086 11334,5246 11847,4950 11982,4950 Z M 11972,4940 L 11864,4940 11972,4878 11972,4940 Z"/>
     <path fill="rgb(108,175,216)" stroke="none" d="M 11972,4940 L 11972,4878 13031,4266 13031,5106 11334,6086 11334,5246 11864,4940 11972,4940 Z M 11962,4930 L 11881,4930 11962,4883 11962,4930 Z"/>
     <path fill="rgb(110,175,216)" stroke="none" d="M 11962,4930 L 11962,4883 13031,4266 13031,5106 11334,6086 11334,5246 11881,4930 11962,4930 Z M 11952,4920 L 11899,4920 11952,4889 11952,4920 Z"/>
     <path fill="rgb(111,176,217)" stroke="none" d="M 11952,4920 L 11952,4889 13031,4266 13031,5106 11334,6086 11334,5246 11899,4920 11952,4920 Z M 11942,4910 L 11916,4910 11942,4895 11942,4910 Z"/>
     <path fill="rgb(113,177,217)" stroke="none" d="M 11942,4910 L 11942,4895 13031,4266 13031,5106 11334,6086 11334,5246 11916,4910 11942,4910 Z"/>
     <path fill="rgb(114,178,217)" stroke="none" d="M 11334,6086 L 11334,5246 13031,4266 13031,5106 11334,6086 Z"/>
     <path fill="rgb(115,178,218)" stroke="none" d="M 11334,6086 L 11334,5246 13031,4266 13031,5106 11334,6086 Z"/>
     <path fill="rgb(117,179,218)" stroke="none" d="M 11334,6086 L 11334,5246 13031,4266 13031,5106 11334,6086 Z"/>
     <path fill="rgb(118,180,218)" stroke="none" d="M 11334,6086 L 11334,5246 13031,4266 13031,5106 11334,6086 Z"/>
     <path fill="rgb(120,181,219)" stroke="none" d="M 11334,6086 L 11334,5246 13031,4266 13031,5106 11334,6086 Z"/>
     <path fill="rgb(121,181,219)" stroke="none" d="M 11334,6086 L 11334,5246 13031,4266 13031,5106 11334,6086 Z"/>
     <path fill="rgb(122,182,219)" stroke="none" d="M 11334,6086 L 11334,5246 13031,4266 13031,5106 11334,6086 Z"/>
     <path fill="rgb(124,183,220)" stroke="none" d="M 11334,6086 L 11334,5246 13031,4266 13031,5106 11334,6086 Z"/>
     <path fill="rgb(127,185,221)" stroke="none" d="M 11334,6086 L 11334,5246 13031,4266 13031,5106 11334,6086 Z"/>
     <path fill="none" stroke="rgb(255,255,255)" id="Drawing_3_0" stroke-width="40" stroke-linejoin="round" d="M 11334,6086 L 11334,5246 13031,4266 13031,5106 11334,6086 Z"/>
    </g>
    <g>
     <defs>
      <linearGradient id="Gradient_1088" gradientUnits="userSpaceOnUse" x1="11333" y1="3286" x2="11333" y2="5246">
       <stop offset="0.1" stop-color="rgb(0,115,188)"/>
       <stop offset="1" stop-color="rgb(127,185,221)"/>
      </linearGradient>
     </defs>
     <path fill="url(#Gradient_1088)" stroke="rgb(255,255,255)" id="Drawing_4_0" stroke-width="40" stroke-linejoin="round" d="M 11334,5246 L 9636,4266 11334,3286 13031,4266 11334,5246 Z"/>
    </g>
    <g>
     <path fill="none" stroke="rgb(0,0,0)" id="Drawing_5_0" stroke-width="40" stroke-linejoin="round" d="M 9636,5106 L 9636,4266 11334,3286 13031,4266 13031,5106 11334,6086 9636,5106 Z"/>
    </g>
    <g>
     <path fill="rgb(255,255,255)" stroke="none" d="M 10970,4406 L 10849,4336 10849,4546 11213,4546 11092,4476 11819,4056 11698,3986 10970,4406 Z"/>
     <path fill="none" stroke="rgb(255,255,255)" id="Drawing_6_0" stroke-width="40" stroke-linejoin="round" d="M 10970,4406 L 10849,4336 10849,4546 11213,4546 11092,4476 11819,4056 11698,3986 10970,4406 Z"/>
    </g>
   </g>
  </g>
 </g>
</svg>