<?xml version="1.0" encoding="UTF-8"?>

<svg version="1.2" baseProfile="tiny" width="20.81mm" height="34.15mm" viewBox="5905 7002 2081 3415" preserveAspectRatio="xMidYMid" fill-rule="evenodd" stroke-width="28.222" stroke-linejoin="round" xmlns="http://www.w3.org/2000/svg" xmlns:xlink="http://www.w3.org/1999/xlink" xml:space="preserve">
 <g visibility="visible" id="Slide_1">
  <g id="DrawingGroup_1">
   <g>
    <path fill="rgb(221,221,221)" stroke="none" d="M 6497,10398 C 6811,10398 7985,10067 7985,9802 7985,9537 7956,9405 7642,9405 7642,9604 6497,10132 6497,10398 Z"/>
    <path fill="none" stroke="rgb(221,221,221)" id="Drawing_1_0" stroke-linejoin="round" d="M 6497,10398 C 6811,10398 7985,10067 7985,9802 7985,9537 7956,9405 7642,9405 7642,9604 6497,10132 6497,10398 Z"/>
   </g>
   <g id="DrawingGroup_2">
    <g>
     <path fill="rgb(179,179,179)" stroke="none" d="M 6497,9841 L 6497,8412 7642,7750 7642,9735 7459,9841 6497,9841 Z"/>
     <path fill="rgb(180,180,180)" stroke="none" d="M 7459,9841 L 6497,10397 6497,9841 7459,9841 Z M 6497,9815 L 6497,8412 7642,7750 7642,9735 7504,9815 6497,9815 Z"/>
     <path fill="rgb(181,181,181)" stroke="none" d="M 7504,9815 L 6497,10397 6497,9815 7504,9815 Z M 6497,9788 L 6497,8412 7642,7750 7642,9735 7550,9788 6497,9788 Z"/>
     <path fill="rgb(182,182,182)" stroke="none" d="M 7550,9788 L 6497,10397 6497,9788 7550,9788 Z M 6497,9762 L 6497,8412 7642,7750 7642,9735 7595,9762 6497,9762 Z"/>
     <path fill="rgb(183,183,183)" stroke="none" d="M 7595,9762 L 6497,10397 6497,9762 7595,9762 Z M 6497,9735 L 6497,8412 7642,7750 7642,9735 6497,9735 Z"/>
     <path fill="rgb(184,184,184)" stroke="none" d="M 7642,9735 L 6497,10397 6497,9735 7642,9735 Z M 6497,9709 L 6497,8412 7642,7750 7642,9709 6497,9709 Z"/>
     <path fill="rgb(185,185,185)" stroke="none" d="M 7642,9709 L 7642,9735 6497,10397 6497,9709 7642,9709 Z M 6497,9682 L 6497,8412 7642,7750 7642,9682 6497,9682 Z"/>
     <path fill="rgb(186,186,186)" stroke="none" d="M 7642,9682 L 7642,9735 6497,10397 6497,9682 7642,9682 Z M 6497,9656 L 6497,8412 7642,7750 7642,9656 6497,9656 Z"/>
     <path fill="rgb(187,187,187)" stroke="none" d="M 7642,9656 L 7642,9735 6497,10397 6497,9656 7642,9656 Z M 6497,9629 L 6497,8412 7642,7750 7642,9629 6497,9629 Z"/>
     <path fill="rgb(188,188,188)" stroke="none" d="M 7642,9629 L 7642,9735 6497,10397 6497,9629 7642,9629 Z M 6497,9603 L 6497,8412 7642,7750 7642,9603 6497,9603 Z"/>
     <path fill="rgb(189,189,189)" stroke="none" d="M 7642,9603 L 7642,9735 6497,10397 6497,9603 7642,9603 Z M 6497,9576 L 6497,8412 7642,7750 7642,9576 6497,9576 Z"/>
     <path fill="rgb(190,190,190)" stroke="none" d="M 7642,9576 L 7642,9735 6497,10397 6497,9576 7642,9576 Z M 6497,9550 L 6497,8412 7642,7750 7642,9550 6497,9550 Z"/>
     <path fill="rgb(191,191,191)" stroke="none" d="M 7642,9550 L 7642,9735 6497,10397 6497,9550 7642,9550 Z M 6497,9523 L 6497,8412 7642,7750 7642,9523 6497,9523 Z"/>
     <path fill="rgb(192,192,192)" stroke="none" d="M 7642,9523 L 7642,9735 6497,10397 6497,9523 7642,9523 Z M 6497,9497 L 6497,8412 7642,7750 7642,9497 6497,9497 Z"/>
     <path fill="rgb(193,193,193)" stroke="none" d="M 7642,9497 L 7642,9735 6497,10397 6497,9497 7642,9497 Z M 6497,9470 L 6497,8412 7642,7750 7642,9470 6497,9470 Z"/>
     <path fill="rgb(194,194,194)" stroke="none" d="M 7642,9470 L 7642,9735 6497,10397 6497,9470 7642,9470 Z M 6497,9444 L 6497,8412 7642,7750 7642,9444 6497,9444 Z"/>
     <path fill="rgb(195,195,195)" stroke="none" d="M 7642,9444 L 7642,9735 6497,10397 6497,9444 7642,9444 Z M 6497,9417 L 6497,8412 7642,7750 7642,9417 6497,9417 Z"/>
     <path fill="rgb(196,196,196)" stroke="none" d="M 7642,9417 L 7642,9735 6497,10397 6497,9417 7642,9417 Z M 6497,9391 L 6497,8412 7642,7750 7642,9391 6497,9391 Z"/>
     <path fill="rgb(197,197,197)" stroke="none" d="M 7642,9391 L 7642,9735 6497,10397 6497,9391 7642,9391 Z M 6497,9364 L 6497,8412 7642,7750 7642,9364 6497,9364 Z"/>
     <path fill="rgb(198,198,198)" stroke="none" d="M 7642,9364 L 7642,9735 6497,10397 6497,9364 7642,9364 Z M 7634,9338 L 6497,9338 6497,8412 7634,7755 7634,9338 Z"/>
     <path fill="rgb(199,199,199)" stroke="none" d="M 7634,9338 L 7634,7755 7642,7750 7642,9735 6497,10397 6497,9338 7634,9338 Z M 7607,7775 L 7607,9311 6497,9311 6497,8412 7599,7775 7607,7775 Z"/>
     <path fill="rgb(200,200,200)" stroke="none" d="M 7607,9311 L 7607,7775 7599,7775 7642,7750 7642,9735 6497,10397 6497,9311 7607,9311 Z M 7581,7802 L 7581,9285 6497,9285 6497,8412 7552,7802 7581,7802 Z"/>
     <path fill="rgb(201,201,201)" stroke="none" d="M 7581,9285 L 7581,7802 7552,7802 7642,7750 7642,9735 6497,10397 6497,9285 7581,9285 Z M 7554,7828 L 7554,9258 6497,9258 6497,8412 7507,7828 7554,7828 Z"/>
     <path fill="rgb(202,202,202)" stroke="none" d="M 7554,9258 L 7554,7828 7507,7828 7642,7750 7642,9735 6497,10397 6497,9258 7554,9258 Z M 7528,7855 L 7528,9232 6497,9232 6497,8412 7460,7855 7528,7855 Z"/>
     <path fill="rgb(203,203,203)" stroke="none" d="M 7528,9232 L 7528,7855 7460,7855 7642,7750 7642,9735 6497,10397 6497,9232 7528,9232 Z M 7501,7881 L 7501,9205 6497,9205 6497,8412 7415,7881 7501,7881 Z"/>
     <path fill="rgb(204,204,204)" stroke="none" d="M 7501,9205 L 7501,7881 7415,7881 7642,7750 7642,9735 6497,10397 6497,9205 7501,9205 Z M 7475,7908 L 7475,9179 6497,9179 6497,8412 7369,7908 7475,7908 Z"/>
     <path fill="rgb(205,205,205)" stroke="none" d="M 7475,9179 L 7475,7908 7369,7908 7642,7750 7642,9735 6497,10397 6497,9179 7475,9179 Z M 7448,7934 L 7448,9152 6497,9152 6497,8412 7324,7934 7448,7934 Z"/>
     <path fill="rgb(206,206,206)" stroke="none" d="M 7448,9152 L 7448,7934 7324,7934 7642,7750 7642,9735 6497,10397 6497,9152 7448,9152 Z M 7422,7961 L 7422,9126 6497,9126 6497,8412 7277,7961 7422,7961 Z"/>
     <path fill="rgb(207,207,207)" stroke="none" d="M 7422,9126 L 7422,7961 7277,7961 7642,7750 7642,9735 6497,10397 6497,9126 7422,9126 Z M 7395,7987 L 7395,9099 6497,9099 6497,8412 7232,7987 7395,7987 Z"/>
     <path fill="rgb(208,208,208)" stroke="none" d="M 7395,9099 L 7395,7987 7232,7987 7642,7750 7642,9735 6497,10397 6497,9099 7395,9099 Z M 7369,8014 L 7369,9073 6497,9073 6497,8412 7185,8014 7369,8014 Z"/>
     <path fill="rgb(209,209,209)" stroke="none" d="M 7369,9073 L 7369,8014 7185,8014 7642,7750 7642,9735 6497,10397 6497,9073 7369,9073 Z M 7342,8040 L 7342,9046 6497,9046 6497,8412 7140,8040 7342,8040 Z"/>
     <path fill="rgb(210,210,210)" stroke="none" d="M 7342,9046 L 7342,8040 7140,8040 7642,7750 7642,9735 6497,10397 6497,9046 7342,9046 Z M 7316,8067 L 7316,9020 6497,9020 6497,8412 7094,8067 7316,8067 Z"/>
     <path fill="rgb(211,211,211)" stroke="none" d="M 7316,9020 L 7316,8067 7094,8067 7642,7750 7642,9735 6497,10397 6497,9020 7316,9020 Z M 7289,8093 L 7289,8993 6497,8993 6497,8412 7049,8093 7289,8093 Z"/>
     <path fill="rgb(212,212,212)" stroke="none" d="M 7289,8993 L 7289,8093 7049,8093 7642,7750 7642,9735 6497,10397 6497,8993 7289,8993 Z M 7263,8120 L 7263,8967 6497,8967 6497,8412 7002,8120 7263,8120 Z"/>
     <path fill="rgb(213,213,213)" stroke="none" d="M 7263,8967 L 7263,8120 7002,8120 7642,7750 7642,9735 6497,10397 6497,8967 7263,8967 Z M 7236,8146 L 7236,8940 6497,8940 6497,8412 6957,8146 7236,8146 Z"/>
     <path fill="rgb(214,214,214)" stroke="none" d="M 7236,8940 L 7236,8146 6957,8146 7642,7750 7642,9735 6497,10397 6497,8940 7236,8940 Z M 7210,8173 L 7210,8914 6497,8914 6497,8412 6910,8173 7210,8173 Z"/>
     <path fill="rgb(215,215,215)" stroke="none" d="M 7210,8914 L 7210,8173 6910,8173 7642,7750 7642,9735 6497,10397 6497,8914 7210,8914 Z M 7183,8199 L 7183,8887 6497,8887 6497,8412 6865,8199 7183,8199 Z"/>
     <path fill="rgb(216,216,216)" stroke="none" d="M 7183,8887 L 7183,8199 6865,8199 7642,7750 7642,9735 6497,10397 6497,8887 7183,8887 Z M 7157,8226 L 7157,8861 6522,8861 6522,8398 6819,8226 7157,8226 Z"/>
     <path fill="rgb(217,217,217)" stroke="none" d="M 6522,8861 L 7157,8861 7157,8226 6819,8226 7642,7750 7642,9735 6497,10397 6497,8412 6522,8398 6522,8861 Z M 7130,8252 L 7130,8834 6548,8834 6548,8383 6774,8252 7130,8252 Z"/>
     <path fill="rgb(218,218,218)" stroke="none" d="M 6548,8834 L 7130,8834 7130,8252 6774,8252 7642,7750 7642,9735 6497,10397 6497,8412 6548,8383 6548,8834 Z M 7104,8279 L 7104,8808 6575,8808 6575,8367 6727,8279 7104,8279 Z"/>
     <path fill="rgb(219,219,219)" stroke="none" d="M 6575,8808 L 7104,8808 7104,8279 6727,8279 7642,7750 7642,9735 6497,10397 6497,8412 6575,8367 6575,8808 Z M 7077,8305 L 7077,8781 6601,8781 6601,8352 6682,8305 7077,8305 Z"/>
     <path fill="rgb(220,220,220)" stroke="none" d="M 6601,8781 L 7077,8781 7077,8305 6682,8305 7642,7750 7642,9735 6497,10397 6497,8412 6601,8352 6601,8781 Z M 7051,8332 L 7051,8755 6628,8755 6628,8336 6635,8332 7051,8332 Z"/>
     <path fill="rgb(221,221,221)" stroke="none" d="M 6628,8755 L 7051,8755 7051,8332 6635,8332 7642,7750 7642,9735 6497,10397 6497,8412 6628,8336 6628,8755 Z M 6654,8358 L 7024,8358 7024,8728 6654,8728 6654,8358 Z"/>
     <path fill="rgb(222,222,222)" stroke="none" d="M 6654,8358 L 6654,8728 7024,8728 7024,8358 6654,8358 Z M 6681,8385 L 6998,8385 6998,8702 6681,8702 6681,8385 Z M 6497,10397 L 6497,8412 7642,7750 7642,9735 6497,10397 Z"/>
     <path fill="rgb(223,223,223)" stroke="none" d="M 6681,8385 L 6681,8702 6998,8702 6998,8385 6681,8385 Z M 6707,8411 L 6971,8411 6971,8675 6707,8675 6707,8411 Z M 6497,10397 L 6497,8412 7642,7750 7642,9735 6497,10397 Z"/>
     <path fill="rgb(224,224,224)" stroke="none" d="M 6707,8411 L 6707,8675 6971,8675 6971,8411 6707,8411 Z M 6734,8438 L 6945,8438 6945,8649 6734,8649 6734,8438 Z M 6497,10397 L 6497,8412 7642,7750 7642,9735 6497,10397 Z"/>
     <path fill="rgb(225,225,225)" stroke="none" d="M 6734,8438 L 6734,8649 6945,8649 6945,8438 6734,8438 Z M 6760,8464 L 6918,8464 6918,8622 6760,8622 6760,8464 Z M 6497,10397 L 6497,8412 7642,7750 7642,9735 6497,10397 Z"/>
     <path fill="rgb(226,226,226)" stroke="none" d="M 6760,8464 L 6760,8622 6918,8622 6918,8464 6760,8464 Z M 6787,8491 L 6892,8491 6892,8596 6787,8596 6787,8491 Z M 6497,10397 L 6497,8412 7642,7750 7642,9735 6497,10397 Z"/>
     <path fill="rgb(227,227,227)" stroke="none" d="M 6787,8491 L 6787,8596 6892,8596 6892,8491 6787,8491 Z M 6813,8517 L 6865,8517 6865,8569 6813,8569 6813,8517 Z M 6497,10397 L 6497,8412 7642,7750 7642,9735 6497,10397 Z"/>
     <path fill="rgb(229,229,229)" stroke="none" d="M 6813,8517 L 6813,8569 6865,8569 6865,8517 6813,8517 Z M 6497,10397 L 6497,8412 7642,7750 7642,9735 6497,10397 Z"/>
     <path fill="none" stroke="rgb(255,255,255)" id="Drawing_2_0" stroke-width="40" stroke-linejoin="round" d="M 6497,10397 L 6497,8412 7642,7750 7642,9735 6497,10397 Z"/>
    </g>
    <g>
     <defs>
      <linearGradient id="Gradient_1203" gradientUnits="userSpaceOnUse" x1="6783" y1="7419" x2="6783" y2="8412">
       <stop offset="0.1" stop-color="rgb(179,179,179)"/>
       <stop offset="1" stop-color="rgb(229,229,229)"/>
      </linearGradient>
     </defs>
     <path fill="url(#Gradient_1203)" stroke="rgb(255,255,255)" id="Drawing_3_0" stroke-width="40" stroke-linejoin="round" d="M 6497,8412 L 5925,8081 7070,7419 7642,7750 6497,8412 Z"/>
    </g>
    <g>
     <defs>
      <linearGradient id="Gradient_1204" gradientUnits="userSpaceOnUse" x1="5923" y1="9238" x2="6499" y2="9240">
       <stop offset="0.1" stop-color="rgb(179,179,179)"/>
       <stop offset="1" stop-color="rgb(229,229,229)"/>
      </linearGradient>
     </defs>
     <path fill="url(#Gradient_1204)" stroke="rgb(255,255,255)" id="Drawing_4_0" stroke-width="40" stroke-linejoin="round" d="M 5925,10066 L 5925,8081 6497,8412 6497,10397 5925,10066 Z"/>
    </g>
    <g>
     <path fill="none" stroke="rgb(0,0,0)" id="Drawing_5_0" stroke-width="40" stroke-linejoin="round" d="M 5925,10066 L 5925,8081 7070,7419 7642,7750 7642,9735 6497,10397 5925,10066 Z"/>
    </g>
    <g>
     <path fill="rgb(0,0,0)" stroke="none" d="M 6039,9934 L 6039,9735 6153,9801 6153,10000 6039,9934 Z"/>
     <path fill="none" stroke="rgb(102,102,102)" id="Drawing_6_0" stroke-width="40" stroke-linejoin="round" d="M 6039,9934 L 6039,9735 6153,9801 6153,10000 6039,9934 Z"/>
    </g>
    <g>
     <path fill="rgb(0,0,0)" stroke="none" d="M 6268,10067 L 6268,9868 6382,9934 6382,10133 6268,10067 Z"/>
     <path fill="none" stroke="rgb(102,102,102)" id="Drawing_7_0" stroke-width="40" stroke-linejoin="round" d="M 6268,10067 L 6268,9868 6382,9934 6382,10133 6268,10067 Z"/>
    </g>
    <g>
     <path fill="rgb(153,255,102)" stroke="none" d="M 6039,9074 L 6039,8875 6153,8941 6153,9140 6039,9074 Z"/>
     <path fill="none" stroke="rgb(51,51,51)" id="Drawing_8_0" stroke-width="40" stroke-linejoin="round" d="M 6039,9074 L 6039,8875 6153,8941 6153,9140 6039,9074 Z"/>
    </g>
    <g>
     <path fill="rgb(255,51,51)" stroke="none" d="M 6268,9206 L 6268,9007 6382,9073 6382,9272 6268,9206 Z"/>
     <path fill="none" stroke="rgb(51,51,51)" id="Drawing_9_0" stroke-width="40" stroke-linejoin="round" d="M 6268,9206 L 6268,9007 6382,9073 6382,9272 6268,9206 Z"/>
    </g>
    <g>
     <path fill="rgb(204,204,204)" stroke="none" d="M 6039,8610 L 6039,7022 6153,7022 6153,8478 6268,8478 6268,8610 6153,8677 6039,8610 Z"/>
     <path fill="none" stroke="rgb(0,0,0)" id="Drawing_10_0" stroke-width="40" stroke-linejoin="round" d="M 6039,8610 L 6039,7022 6153,7022 6153,8478 6268,8478 6268,8610 6153,8677 6039,8610 Z"/>
    </g>
   </g>
  </g>
 </g>
</svg>