<?xml version="1.0" encoding="UTF-8"?>

<svg version="1.2" baseProfile="tiny" width="21.12mm" height="43.9mm" viewBox="13525 20143 2112 4390" preserveAspectRatio="xMidYMid" fill-rule="evenodd" stroke-width="28.222" stroke-linejoin="round" xmlns="http://www.w3.org/2000/svg" xmlns:xlink="http://www.w3.org/1999/xlink" xml:space="preserve">
 <g visibility="visible" id="Slide_1">
  <g id="DrawingGroup_1">
   <g>
    <path fill="rgb(221,221,221)" stroke="none" d="M 14521,24513 C 14904,24513 15636,24351 15636,24029 15636,23707 15600,23707 15218,23707 15218,23949 14521,24190 14521,24513 Z"/>
    <path fill="none" stroke="rgb(221,221,221)" id="Drawing_1_0" stroke-linejoin="round" d="M 14521,24513 C 14904,24513 15636,24351 15636,24029 15636,23707 15600,23707 15218,23707 15218,23949 14521,24190 14521,24513 Z"/>
   </g>
   <g id="DrawingGroup_2">
    <g>
     <path fill="rgb(51,51,51)" stroke="none" d="M 14521,24050 L 14521,22660 15218,22257 15218,24050 14521,24050 Z"/>
     <path fill="rgb(52,52,52)" stroke="none" d="M 15218,24050 L 15218,24110 14521,24513 14521,24050 15218,24050 Z M 14521,24039 L 14521,22660 15218,22257 15218,24039 14521,24039 Z"/>
     <path fill="rgb(53,53,53)" stroke="none" d="M 15218,24039 L 15218,24110 14521,24513 14521,24039 15218,24039 Z M 14521,24028 L 14521,22660 15218,22257 15218,24028 14521,24028 Z"/>
     <path fill="rgb(54,54,54)" stroke="none" d="M 15218,24028 L 15218,24110 14521,24513 14521,24028 15218,24028 Z M 14521,24017 L 14521,22660 15218,22257 15218,24017 14521,24017 Z"/>
     <path fill="rgb(55,55,55)" stroke="none" d="M 15218,24017 L 15218,24110 14521,24513 14521,24017 15218,24017 Z M 14521,24006 L 14521,22660 15218,22257 15218,24006 14521,24006 Z"/>
     <path fill="rgb(56,56,56)" stroke="none" d="M 15218,24006 L 15218,24110 14521,24513 14521,24006 15218,24006 Z M 14521,23995 L 14521,22660 15218,22257 15218,23995 14521,23995 Z"/>
     <path fill="rgb(57,57,57)" stroke="none" d="M 15218,23995 L 15218,24110 14521,24513 14521,23995 15218,23995 Z M 14521,23984 L 14521,22660 15218,22257 15218,23984 14521,23984 Z"/>
     <path fill="rgb(58,58,58)" stroke="none" d="M 15218,23984 L 15218,24110 14521,24513 14521,23984 15218,23984 Z M 14521,23973 L 14521,22660 15218,22257 15218,23973 14521,23973 Z"/>
     <path fill="rgb(59,59,59)" stroke="none" d="M 15218,23973 L 15218,24110 14521,24513 14521,23973 15218,23973 Z M 14521,23962 L 14521,22660 15218,22257 15218,23962 14521,23962 Z"/>
     <path fill="rgb(60,60,60)" stroke="none" d="M 15218,23962 L 15218,24110 14521,24513 14521,23962 15218,23962 Z M 14521,23951 L 14521,22660 15218,22257 15218,23951 14521,23951 Z"/>
     <path fill="rgb(61,61,61)" stroke="none" d="M 15218,23951 L 15218,24110 14521,24513 14521,23951 15218,23951 Z M 14521,23940 L 14521,22660 15218,22257 15218,23940 14521,23940 Z"/>
     <path fill="rgb(62,62,62)" stroke="none" d="M 15218,23940 L 15218,24110 14521,24513 14521,23940 15218,23940 Z M 14521,23929 L 14521,22660 15218,22257 15218,23929 14521,23929 Z"/>
     <path fill="rgb(63,63,63)" stroke="none" d="M 15218,23929 L 15218,24110 14521,24513 14521,23929 15218,23929 Z M 14521,23918 L 14521,22660 15218,22257 15218,23918 14521,23918 Z"/>
     <path fill="rgb(64,64,64)" stroke="none" d="M 15218,23918 L 15218,24110 14521,24513 14521,23918 15218,23918 Z M 14521,23906 L 14521,22660 15218,22257 15218,23906 14521,23906 Z"/>
     <path fill="rgb(65,65,65)" stroke="none" d="M 15218,23906 L 15218,24110 14521,24513 14521,23906 15218,23906 Z M 14521,23895 L 14521,22660 15218,22257 15218,23895 14521,23895 Z"/>
     <path fill="rgb(66,66,66)" stroke="none" d="M 15218,23895 L 15218,24110 14521,24513 14521,23895 15218,23895 Z M 14521,23884 L 14521,22660 15218,22257 15218,23884 14521,23884 Z"/>
     <path fill="rgb(67,67,67)" stroke="none" d="M 15218,23884 L 15218,24110 14521,24513 14521,23884 15218,23884 Z M 14521,23873 L 14521,22660 15218,22257 15218,23873 14521,23873 Z"/>
     <path fill="rgb(68,68,68)" stroke="none" d="M 15218,23873 L 15218,24110 14521,24513 14521,23873 15218,23873 Z M 14521,23862 L 14521,22660 15218,22257 15218,23862 14521,23862 Z"/>
     <path fill="rgb(69,69,69)" stroke="none" d="M 15218,23862 L 15218,24110 14521,24513 14521,23862 15218,23862 Z M 14521,23851 L 14521,22660 15218,22257 15218,23851 14521,23851 Z"/>
     <path fill="rgb(70,70,70)" stroke="none" d="M 15218,23851 L 15218,24110 14521,24513 14521,23851 15218,23851 Z M 14521,23840 L 14521,22660 15218,22257 15218,23840 14521,23840 Z"/>
     <path fill="rgb(71,71,71)" stroke="none" d="M 15218,23840 L 15218,24110 14521,24513 14521,23840 15218,23840 Z M 14521,23829 L 14521,22660 15218,22257 15218,23829 14521,23829 Z"/>
     <path fill="rgb(72,72,72)" stroke="none" d="M 15218,23829 L 15218,24110 14521,24513 14521,23829 15218,23829 Z M 14521,23818 L 14521,22660 15218,22257 15218,23818 14521,23818 Z"/>
     <path fill="rgb(73,73,73)" stroke="none" d="M 15218,23818 L 15218,24110 14521,24513 14521,23818 15218,23818 Z M 14521,23807 L 14521,22660 15218,22257 15218,23807 14521,23807 Z"/>
     <path fill="rgb(74,74,74)" stroke="none" d="M 15218,23807 L 15218,24110 14521,24513 14521,23807 15218,23807 Z M 14521,23796 L 14521,22660 15218,22257 15218,23796 14521,23796 Z"/>
     <path fill="rgb(75,75,75)" stroke="none" d="M 15218,23796 L 15218,24110 14521,24513 14521,23796 15218,23796 Z M 14521,23785 L 14521,22660 15218,22257 15218,23785 14521,23785 Z"/>
     <path fill="rgb(76,76,76)" stroke="none" d="M 15218,23785 L 15218,24110 14521,24513 14521,23785 15218,23785 Z M 14521,23774 L 14521,22660 15218,22257 15218,23774 14521,23774 Z"/>
     <path fill="rgb(77,77,77)" stroke="none" d="M 15218,23774 L 15218,24110 14521,24513 14521,23774 15218,23774 Z M 14521,23763 L 14521,22660 15218,22257 15218,23763 14521,23763 Z"/>
     <path fill="rgb(78,78,78)" stroke="none" d="M 15218,23763 L 15218,24110 14521,24513 14521,23763 15218,23763 Z M 14521,23751 L 14521,22660 15218,22257 15218,23751 14521,23751 Z"/>
     <path fill="rgb(79,79,79)" stroke="none" d="M 15218,23751 L 15218,24110 14521,24513 14521,23751 15218,23751 Z M 14521,23740 L 14521,22660 15218,22257 15218,23740 14521,23740 Z"/>
     <path fill="rgb(80,80,80)" stroke="none" d="M 15218,23740 L 15218,24110 14521,24513 14521,23740 15218,23740 Z M 14521,23729 L 14521,22660 15218,22257 15218,23729 14521,23729 Z"/>
     <path fill="rgb(81,81,81)" stroke="none" d="M 15218,23729 L 15218,24110 14521,24513 14521,23729 15218,23729 Z M 14521,23718 L 14521,22660 15218,22257 15218,23718 14521,23718 Z"/>
     <path fill="rgb(82,82,82)" stroke="none" d="M 15218,23718 L 15218,24110 14521,24513 14521,23718 15218,23718 Z M 14521,23707 L 14521,22660 15218,22257 15218,23707 14521,23707 Z"/>
     <path fill="rgb(83,83,83)" stroke="none" d="M 15218,23707 L 15218,24110 14521,24513 14521,23707 15218,23707 Z M 14521,23696 L 14521,22660 15218,22257 15218,23696 14521,23696 Z"/>
     <path fill="rgb(84,84,84)" stroke="none" d="M 15218,23696 L 15218,24110 14521,24513 14521,23696 15218,23696 Z M 14521,23685 L 14521,22660 15218,22257 15218,23685 14521,23685 Z"/>
     <path fill="rgb(85,85,85)" stroke="none" d="M 15218,23685 L 15218,24110 14521,24513 14521,23685 15218,23685 Z M 14521,23674 L 14521,22660 15218,22257 15218,23674 14521,23674 Z"/>
     <path fill="rgb(86,86,86)" stroke="none" d="M 15218,23674 L 15218,24110 14521,24513 14521,23674 15218,23674 Z M 14521,23663 L 14521,22660 15218,22257 15218,23663 14521,23663 Z"/>
     <path fill="rgb(87,87,87)" stroke="none" d="M 15218,23663 L 15218,24110 14521,24513 14521,23663 15218,23663 Z M 14521,23652 L 14521,22660 15218,22257 15218,23652 14521,23652 Z"/>
     <path fill="rgb(88,88,88)" stroke="none" d="M 15218,23652 L 15218,24110 14521,24513 14521,23652 15218,23652 Z M 14521,23641 L 14521,22660 15218,22257 15218,23641 14521,23641 Z"/>
     <path fill="rgb(89,89,89)" stroke="none" d="M 15218,23641 L 15218,24110 14521,24513 14521,23641 15218,23641 Z M 14521,23630 L 14521,22660 15218,22257 15218,23630 14521,23630 Z"/>
     <path fill="rgb(90,90,90)" stroke="none" d="M 15218,23630 L 15218,24110 14521,24513 14521,23630 15218,23630 Z M 14521,23619 L 14521,22660 15218,22257 15218,23619 14521,23619 Z"/>
     <path fill="rgb(91,91,91)" stroke="none" d="M 15218,23619 L 15218,24110 14521,24513 14521,23619 15218,23619 Z M 15218,22258 L 15218,23607 14521,23607 14521,22660 15216,22258 15218,22258 Z"/>
     <path fill="rgb(92,92,92)" stroke="none" d="M 15218,23607 L 15218,24110 14521,24513 14521,23607 15218,23607 Z M 15216,22258 L 15218,22257 15218,22258 15216,22258 Z M 15218,22269 L 15218,23596 14521,23596 14521,22660 15197,22269 15218,22269 Z"/>
     <path fill="rgb(93,93,93)" stroke="none" d="M 15218,23596 L 15218,24110 14521,24513 14521,23596 15218,23596 Z M 15197,22269 L 15218,22257 15218,22269 15197,22269 Z M 15218,22280 L 15218,23585 14521,23585 14521,22660 15178,22280 15218,22280 Z"/>
     <path fill="rgb(94,94,94)" stroke="none" d="M 15218,23585 L 15218,24110 14521,24513 14521,23585 15218,23585 Z M 15178,22280 L 15218,22257 15218,22280 15178,22280 Z M 15218,22291 L 15218,23574 14521,23574 14521,22660 15159,22291 15218,22291 Z"/>
     <path fill="rgb(95,95,95)" stroke="none" d="M 15218,23574 L 15218,24110 14521,24513 14521,23574 15218,23574 Z M 15159,22291 L 15218,22257 15218,22291 15159,22291 Z M 15218,22302 L 15218,23563 14521,23563 14521,22660 15140,22302 15218,22302 Z"/>
     <path fill="rgb(96,96,96)" stroke="none" d="M 15218,23563 L 15218,24110 14521,24513 14521,23563 15218,23563 Z M 15140,22302 L 15218,22257 15218,22302 15140,22302 Z M 15218,22313 L 15218,23552 14521,23552 14521,22660 15121,22313 15218,22313 Z"/>
     <path fill="rgb(97,97,97)" stroke="none" d="M 15218,23552 L 15218,24110 14521,24513 14521,23552 15218,23552 Z M 15121,22313 L 15218,22257 15218,22313 15121,22313 Z M 15218,22324 L 15218,23541 14521,23541 14521,22660 15102,22324 15218,22324 Z"/>
     <path fill="rgb(98,98,98)" stroke="none" d="M 15218,23541 L 15218,24110 14521,24513 14521,23541 15218,23541 Z M 15102,22324 L 15218,22257 15218,22324 15102,22324 Z M 15218,22335 L 15218,23530 14521,23530 14521,22660 15083,22335 15218,22335 Z"/>
     <path fill="rgb(99,99,99)" stroke="none" d="M 15218,23530 L 15218,24110 14521,24513 14521,23530 15218,23530 Z M 15083,22335 L 15218,22257 15218,22335 15083,22335 Z M 15218,22346 L 15218,23519 14521,23519 14521,22660 15064,22346 15218,22346 Z"/>
     <path fill="rgb(100,100,100)" stroke="none" d="M 15218,23519 L 15218,24110 14521,24513 14521,23519 15218,23519 Z M 15064,22346 L 15218,22257 15218,22346 15064,22346 Z M 15218,22357 L 15218,23508 14521,23508 14521,22660 15045,22357 15218,22357 Z"/>
     <path fill="rgb(101,101,101)" stroke="none" d="M 15218,23508 L 15218,24110 14521,24513 14521,23508 15218,23508 Z M 15045,22357 L 15218,22257 15218,22357 15045,22357 Z M 15218,22368 L 15218,23497 14521,23497 14521,22660 15026,22368 15218,22368 Z"/>
     <path fill="rgb(102,102,102)" stroke="none" d="M 15218,23497 L 15218,24110 14521,24513 14521,23497 15218,23497 Z M 15026,22368 L 15218,22257 15218,22368 15026,22368 Z M 15218,22379 L 15218,23486 14521,23486 14521,22660 15007,22379 15218,22379 Z"/>
     <path fill="rgb(103,103,103)" stroke="none" d="M 15218,23486 L 15218,24110 14521,24513 14521,23486 15218,23486 Z M 15007,22379 L 15218,22257 15218,22379 15007,22379 Z M 15218,22390 L 15218,23475 14521,23475 14521,22660 14988,22390 15218,22390 Z"/>
     <path fill="rgb(104,104,104)" stroke="none" d="M 15218,23475 L 15218,24110 14521,24513 14521,23475 15218,23475 Z M 14988,22390 L 15218,22257 15218,22390 14988,22390 Z M 15218,22401 L 15218,23464 14521,23464 14521,22660 14969,22401 15218,22401 Z"/>
     <path fill="rgb(105,105,105)" stroke="none" d="M 15218,23464 L 15218,24110 14521,24513 14521,23464 15218,23464 Z M 14969,22401 L 15218,22257 15218,22401 14969,22401 Z M 15218,22413 L 15218,23452 14521,23452 14521,22660 14948,22413 15218,22413 Z"/>
     <path fill="rgb(106,106,106)" stroke="none" d="M 15218,23452 L 15218,24110 14521,24513 14521,23452 15218,23452 Z M 14948,22413 L 15218,22257 15218,22413 14948,22413 Z M 15218,22424 L 15218,23441 14521,23441 14521,22660 14929,22424 15218,22424 Z"/>
     <path fill="rgb(107,107,107)" stroke="none" d="M 15218,23441 L 15218,24110 14521,24513 14521,23441 15218,23441 Z M 14929,22424 L 15218,22257 15218,22424 14929,22424 Z M 15218,22435 L 15218,23430 14521,23430 14521,22660 14910,22435 15218,22435 Z"/>
     <path fill="rgb(108,108,108)" stroke="none" d="M 15218,23430 L 15218,24110 14521,24513 14521,23430 15218,23430 Z M 14910,22435 L 15218,22257 15218,22435 14910,22435 Z M 15216,22446 L 15216,23419 14521,23419 14521,22660 14891,22446 15216,22446 Z"/>
     <path fill="rgb(109,109,109)" stroke="none" d="M 15216,23419 L 15216,22446 14891,22446 15218,22257 15218,24110 14521,24513 14521,23419 15216,23419 Z M 15205,22457 L 15205,23408 14521,23408 14521,22660 14872,22457 15205,22457 Z"/>
     <path fill="rgb(110,110,110)" stroke="none" d="M 15205,23408 L 15205,22457 14872,22457 15218,22257 15218,24110 14521,24513 14521,23408 15205,23408 Z M 15194,22468 L 15194,23397 14521,23397 14521,22660 14853,22468 15194,22468 Z"/>
     <path fill="rgb(111,111,111)" stroke="none" d="M 15194,23397 L 15194,22468 14853,22468 15218,22257 15218,24110 14521,24513 14521,23397 15194,23397 Z M 15183,22479 L 15183,23386 14521,23386 14521,22660 14834,22479 15183,22479 Z"/>
     <path fill="rgb(112,112,112)" stroke="none" d="M 15183,23386 L 15183,22479 14834,22479 15218,22257 15218,24110 14521,24513 14521,23386 15183,23386 Z M 15172,22490 L 15172,23375 14521,23375 14521,22660 14815,22490 15172,22490 Z"/>
     <path fill="rgb(113,113,113)" stroke="none" d="M 15172,23375 L 15172,22490 14815,22490 15218,22257 15218,24110 14521,24513 14521,23375 15172,23375 Z M 15161,22501 L 15161,23364 14521,23364 14521,22660 14796,22501 15161,22501 Z"/>
     <path fill="rgb(114,114,114)" stroke="none" d="M 15161,23364 L 15161,22501 14796,22501 15218,22257 15218,24110 14521,24513 14521,23364 15161,23364 Z M 15150,22512 L 15150,23353 14521,23353 14521,22660 14777,22512 15150,22512 Z"/>
     <path fill="rgb(115,115,115)" stroke="none" d="M 15150,23353 L 15150,22512 14777,22512 15218,22257 15218,24110 14521,24513 14521,23353 15150,23353 Z M 15139,22523 L 15139,23342 14521,23342 14521,22660 14758,22523 15139,22523 Z"/>
     <path fill="rgb(116,116,116)" stroke="none" d="M 15139,23342 L 15139,22523 14758,22523 15218,22257 15218,24110 14521,24513 14521,23342 15139,23342 Z M 15128,22534 L 15128,23331 14521,23331 14521,22660 14739,22534 15128,22534 Z"/>
     <path fill="rgb(117,117,117)" stroke="none" d="M 15128,23331 L 15128,22534 14739,22534 15218,22257 15218,24110 14521,24513 14521,23331 15128,23331 Z M 15117,22545 L 15117,23320 14521,23320 14521,22660 14720,22545 15117,22545 Z"/>
     <path fill="rgb(118,118,118)" stroke="none" d="M 15117,23320 L 15117,22545 14720,22545 15218,22257 15218,24110 14521,24513 14521,23320 15117,23320 Z M 15106,22556 L 15106,23309 14521,23309 14521,22660 14701,22556 15106,22556 Z"/>
     <path fill="rgb(119,119,119)" stroke="none" d="M 15106,23309 L 15106,22556 14701,22556 15218,22257 15218,24110 14521,24513 14521,23309 15106,23309 Z M 15094,22568 L 15094,23297 14521,23297 14521,22660 14680,22568 15094,22568 Z"/>
     <path fill="rgb(120,120,120)" stroke="none" d="M 15094,23297 L 15094,22568 14680,22568 15218,22257 15218,24110 14521,24513 14521,23297 15094,23297 Z M 15083,22579 L 15083,23286 14521,23286 14521,22660 14661,22579 15083,22579 Z"/>
     <path fill="rgb(121,121,121)" stroke="none" d="M 15083,23286 L 15083,22579 14661,22579 15218,22257 15218,24110 14521,24513 14521,23286 15083,23286 Z M 15072,22590 L 15072,23275 14521,23275 14521,22660 14642,22590 15072,22590 Z"/>
     <path fill="rgb(122,122,122)" stroke="none" d="M 15072,23275 L 15072,22590 14642,22590 15218,22257 15218,24110 14521,24513 14521,23275 15072,23275 Z M 15061,22601 L 15061,23264 14521,23264 14521,22660 14623,22601 15061,22601 Z"/>
     <path fill="rgb(123,123,123)" stroke="none" d="M 15061,23264 L 15061,22601 14623,22601 15218,22257 15218,24110 14521,24513 14521,23264 15061,23264 Z M 15050,22612 L 15050,23253 14521,23253 14521,22660 14604,22612 15050,22612 Z"/>
     <path fill="rgb(124,124,124)" stroke="none" d="M 15050,23253 L 15050,22612 14604,22612 15218,22257 15218,24110 14521,24513 14521,23253 15050,23253 Z M 15039,22623 L 15039,23242 14521,23242 14521,22660 14585,22623 15039,22623 Z"/>
     <path fill="rgb(125,125,125)" stroke="none" d="M 15039,23242 L 15039,22623 14585,22623 15218,22257 15218,24110 14521,24513 14521,23242 15039,23242 Z M 15028,22634 L 15028,23231 14521,23231 14521,22660 14566,22634 15028,22634 Z"/>
     <path fill="rgb(126,126,126)" stroke="none" d="M 15028,23231 L 15028,22634 14566,22634 15218,22257 15218,24110 14521,24513 14521,23231 15028,23231 Z M 15017,22645 L 15017,23220 14521,23220 14521,22660 14547,22645 15017,22645 Z"/>
     <path fill="rgb(127,127,127)" stroke="none" d="M 15017,23220 L 15017,22645 14547,22645 15218,22257 15218,24110 14521,24513 14521,23220 15017,23220 Z M 15006,22656 L 15006,23209 14521,23209 14521,22660 14528,22656 15006,22656 Z"/>
     <path fill="rgb(128,128,128)" stroke="none" d="M 15006,23209 L 15006,22656 14528,22656 15218,22257 15218,24110 14521,24513 14521,23209 15006,23209 Z M 14995,22667 L 14995,23198 14521,23198 14521,22667 14995,22667 Z"/>
     <path fill="rgb(129,129,129)" stroke="none" d="M 14995,23198 L 14995,22667 14521,22667 14521,22660 15218,22257 15218,24110 14521,24513 14521,23198 14995,23198 Z M 14984,22678 L 14984,23187 14521,23187 14521,22678 14984,22678 Z"/>
     <path fill="rgb(130,130,130)" stroke="none" d="M 14984,23187 L 14984,22678 14521,22678 14521,22660 15218,22257 15218,24110 14521,24513 14521,23187 14984,23187 Z M 14973,22689 L 14973,23176 14521,23176 14521,22689 14973,22689 Z"/>
     <path fill="rgb(131,131,131)" stroke="none" d="M 14973,23176 L 14973,22689 14521,22689 14521,22660 15218,22257 15218,24110 14521,24513 14521,23176 14973,23176 Z M 14962,22700 L 14962,23165 14521,23165 14521,22700 14962,22700 Z"/>
     <path fill="rgb(132,132,132)" stroke="none" d="M 14962,23165 L 14962,22700 14521,22700 14521,22660 15218,22257 15218,24110 14521,24513 14521,23165 14962,23165 Z M 14950,22712 L 14950,23153 14521,23153 14521,22712 14950,22712 Z"/>
     <path fill="rgb(133,133,133)" stroke="none" d="M 14950,23153 L 14950,22712 14521,22712 14521,22660 15218,22257 15218,24110 14521,24513 14521,23153 14950,23153 Z M 14939,22723 L 14939,23142 14521,23142 14521,22723 14939,22723 Z"/>
     <path fill="rgb(134,134,134)" stroke="none" d="M 14939,23142 L 14939,22723 14521,22723 14521,22660 15218,22257 15218,24110 14521,24513 14521,23142 14939,23142 Z M 14531,22734 L 14928,22734 14928,23131 14531,23131 14531,22734 Z"/>
     <path fill="rgb(135,135,135)" stroke="none" d="M 14531,22734 L 14531,23131 14928,23131 14928,22734 14531,22734 Z M 14542,22745 L 14917,22745 14917,23120 14542,23120 14542,22745 Z M 14521,24513 L 14521,22660 15218,22257 15218,24110 14521,24513 Z"/>
     <path fill="rgb(136,136,136)" stroke="none" d="M 14542,22745 L 14542,23120 14917,23120 14917,22745 14542,22745 Z M 14553,22756 L 14906,22756 14906,23109 14553,23109 14553,22756 Z M 14521,24513 L 14521,22660 15218,22257 15218,24110 14521,24513 Z"/>
     <path fill="rgb(137,137,137)" stroke="none" d="M 14553,22756 L 14553,23109 14906,23109 14906,22756 14553,22756 Z M 14564,22767 L 14895,22767 14895,23098 14564,23098 14564,22767 Z M 14521,24513 L 14521,22660 15218,22257 15218,24110 14521,24513 Z"/>
     <path fill="rgb(138,138,138)" stroke="none" d="M 14564,22767 L 14564,23098 14895,23098 14895,22767 14564,22767 Z M 14575,22778 L 14884,22778 14884,23087 14575,23087 14575,22778 Z M 14521,24513 L 14521,22660 15218,22257 15218,24110 14521,24513 Z"/>
     <path fill="rgb(139,139,139)" stroke="none" d="M 14575,22778 L 14575,23087 14884,23087 14884,22778 14575,22778 Z M 14586,22789 L 14873,22789 14873,23076 14586,23076 14586,22789 Z M 14521,24513 L 14521,22660 15218,22257 15218,24110 14521,24513 Z"/>
     <path fill="rgb(140,140,140)" stroke="none" d="M 14586,22789 L 14586,23076 14873,23076 14873,22789 14586,22789 Z M 14597,22800 L 14862,22800 14862,23065 14597,23065 14597,22800 Z M 14521,24513 L 14521,22660 15218,22257 15218,24110 14521,24513 Z"/>
     <path fill="rgb(141,141,141)" stroke="none" d="M 14597,22800 L 14597,23065 14862,23065 14862,22800 14597,22800 Z M 14608,22811 L 14851,22811 14851,23054 14608,23054 14608,22811 Z M 14521,24513 L 14521,22660 15218,22257 15218,24110 14521,24513 Z"/>
     <path fill="rgb(142,142,142)" stroke="none" d="M 14608,22811 L 14608,23054 14851,23054 14851,22811 14608,22811 Z M 14619,22822 L 14840,22822 14840,23043 14619,23043 14619,22822 Z M 14521,24513 L 14521,22660 15218,22257 15218,24110 14521,24513 Z"/>
     <path fill="rgb(143,143,143)" stroke="none" d="M 14619,22822 L 14619,23043 14840,23043 14840,22822 14619,22822 Z M 14630,22833 L 14829,22833 14829,23032 14630,23032 14630,22833 Z M 14521,24513 L 14521,22660 15218,22257 15218,24110 14521,24513 Z"/>
     <path fill="rgb(144,144,144)" stroke="none" d="M 14630,22833 L 14630,23032 14829,23032 14829,22833 14630,22833 Z M 14641,22844 L 14818,22844 14818,23021 14641,23021 14641,22844 Z M 14521,24513 L 14521,22660 15218,22257 15218,24110 14521,24513 Z"/>
     <path fill="rgb(145,145,145)" stroke="none" d="M 14641,22844 L 14641,23021 14818,23021 14818,22844 14641,22844 Z M 14652,22855 L 14807,22855 14807,23010 14652,23010 14652,22855 Z M 14521,24513 L 14521,22660 15218,22257 15218,24110 14521,24513 Z"/>
     <path fill="rgb(146,146,146)" stroke="none" d="M 14652,22855 L 14652,23010 14807,23010 14807,22855 14652,22855 Z M 14664,22867 L 14795,22867 14795,22998 14664,22998 14664,22867 Z M 14521,24513 L 14521,22660 15218,22257 15218,24110 14521,24513 Z"/>
     <path fill="rgb(147,147,147)" stroke="none" d="M 14664,22867 L 14664,22998 14795,22998 14795,22867 14664,22867 Z M 14675,22878 L 14784,22878 14784,22987 14675,22987 14675,22878 Z M 14521,24513 L 14521,22660 15218,22257 15218,24110 14521,24513 Z"/>
     <path fill="rgb(148,148,148)" stroke="none" d="M 14675,22878 L 14675,22987 14784,22987 14784,22878 14675,22878 Z M 14686,22889 L 14773,22889 14773,22976 14686,22976 14686,22889 Z M 14521,24513 L 14521,22660 15218,22257 15218,24110 14521,24513 Z"/>
     <path fill="rgb(149,149,149)" stroke="none" d="M 14686,22889 L 14686,22976 14773,22976 14773,22889 14686,22889 Z M 14697,22900 L 14762,22900 14762,22965 14697,22965 14697,22900 Z M 14521,24513 L 14521,22660 15218,22257 15218,24110 14521,24513 Z"/>
     <path fill="rgb(150,150,150)" stroke="none" d="M 14697,22900 L 14697,22965 14762,22965 14762,22900 14697,22900 Z M 14708,22911 L 14751,22911 14751,22954 14708,22954 14708,22911 Z M 14521,24513 L 14521,22660 15218,22257 15218,24110 14521,24513 Z"/>
     <path fill="rgb(151,151,151)" stroke="none" d="M 14708,22911 L 14708,22954 14751,22954 14751,22911 14708,22911 Z M 14719,22922 L 14740,22922 14740,22943 14719,22943 14719,22922 Z M 14521,24513 L 14521,22660 15218,22257 15218,24110 14521,24513 Z"/>
     <path fill="rgb(153,153,153)" stroke="none" d="M 14719,22922 L 14719,22943 14740,22943 14740,22922 14719,22922 Z M 14521,24513 L 14521,22660 15218,22257 15218,24110 14521,24513 Z"/>
     <path fill="none" stroke="rgb(178,178,178)" id="Drawing_2_0" stroke-width="40" stroke-linejoin="round" d="M 14521,24513 L 14521,22660 15218,22257 15218,24110 14521,24513 Z"/>
    </g>
    <g>
     <defs>
      <linearGradient id="Gradient_1211" gradientUnits="userSpaceOnUse" x1="14381" y1="21694" x2="14381" y2="22661">
       <stop offset="0.1" stop-color="rgb(51,51,51)"/>
       <stop offset="1" stop-color="rgb(153,153,153)"/>
      </linearGradient>
     </defs>
     <path fill="url(#Gradient_1211)" stroke="rgb(178,178,178)" id="Drawing_3_0" stroke-width="40" stroke-linejoin="round" d="M 14521,22661 L 13545,22097 14242,21694 15217,22258 14521,22661 Z"/>
    </g>
    <g>
     <defs>
      <linearGradient id="Gradient_1212" gradientUnits="userSpaceOnUse" x1="13543" y1="23303" x2="14523" y2="23305">
       <stop offset="0.1" stop-color="rgb(51,51,51)"/>
       <stop offset="1" stop-color="rgb(153,153,153)"/>
      </linearGradient>
     </defs>
     <path fill="url(#Gradient_1212)" stroke="rgb(178,178,178)" id="Drawing_4_0" stroke-width="40" stroke-linejoin="round" d="M 13545,23949 L 13545,22096 14521,22660 14521,24513 13545,23949 Z"/>
    </g>
    <g>
     <path fill="rgb(153,255,102)" stroke="none" d="M 13824,22822 L 13824,22580 13963,22661 13963,22902 13824,22822 Z"/>
     <path fill="none" stroke="rgb(51,51,51)" id="Drawing_5_0" stroke-width="40" stroke-linejoin="round" d="M 13824,22822 L 13824,22580 13963,22661 13963,22902 13824,22822 Z"/>
    </g>
    <g>
     <defs>
      <linearGradient id="Gradient_1213" gradientUnits="userSpaceOnUse" x1="14380" y1="21894" x2="15077" y2="21896">
       <stop offset="0.1" stop-color="rgb(51,51,51)"/>
       <stop offset="1" stop-color="rgb(153,153,153)"/>
      </linearGradient>
     </defs>
     <path fill="url(#Gradient_1213)" stroke="rgb(178,178,178)" id="Drawing_6_0" stroke-width="40" stroke-linejoin="round" d="M 14381,21774 L 14381,21613 15078,22016 15078,22177 14381,21774 Z"/>
    </g>
    <g>
     <path fill="none" stroke="rgb(0,0,0)" id="Drawing_7_0" stroke-width="40" stroke-linejoin="round" d="M 13545,23949 L 13545,22096 14242,21694 14381,21774 14381,21613 15078,22016 15078,22177 15217,22257 15217,24110 14521,24513 13545,23949 Z"/>
    </g>
    <g>
     <defs>
      <linearGradient id="Gradient_1214" gradientUnits="userSpaceOnUse" x1="14030" y1="22096" x2="14034" y2="20163">
       <stop offset="0.1" stop-color="rgb(102,102,102)"/>
       <stop offset="1" stop-color="rgb(153,153,153)"/>
      </linearGradient>
     </defs>
     <path fill="url(#Gradient_1214)" stroke="rgb(0,0,0)" id="Drawing_8_0" stroke-width="40" stroke-linejoin="round" d="M 13963,22096 L 13963,20163 14102,20163 14102,22096 13963,22096 Z"/>
    </g>
    <g>
     <path fill="rgb(0,0,0)" stroke="none" d="M 14102,24030 L 14102,23788 14241,23869 14241,24110 14102,24030 Z"/>
     <path fill="none" stroke="rgb(178,178,178)" id="Drawing_9_0" stroke-width="40" stroke-linejoin="round" d="M 14102,24030 L 14102,23788 14241,23869 14241,24110 14102,24030 Z"/>
    </g>
   </g>
  </g>
 </g>
</svg>