<?xml version="1.0" encoding="UTF-8"?>

<svg version="1.2" baseProfile="tiny" width="23.41mm" height="34mm" viewBox="6947 11680 2341 3400" preserveAspectRatio="xMidYMid" fill-rule="evenodd" stroke-width="28.222" stroke-linejoin="round" xmlns="http://www.w3.org/2000/svg" xmlns:xlink="http://www.w3.org/1999/xlink" xml:space="preserve">
 <g visibility="visible" id="Slide_1">
  <g id="DrawingGroup_1">
   <g>
    <path fill="rgb(221,221,221)" stroke="none" d="M 7612,15059 C 7966,15059 9287,14685 9287,14387 9287,14088 9255,13939 8900,13939 8900,14163 7612,14760 7612,15059 Z"/>
    <path fill="none" stroke="rgb(221,221,221)" id="Drawing_1_0" stroke-linejoin="round" d="M 7612,15059 C 7966,15059 9287,14685 9287,14387 9287,14088 9255,13939 8900,13939 8900,14163 7612,14760 7612,15059 Z"/>
   </g>
   <g id="DrawingGroup_2">
    <g>
     <path fill="rgb(51,51,51)" stroke="none" d="M 7612,14448 L 7612,12820 8900,12074 8900,14313 8667,14448 7612,14448 Z"/>
     <path fill="rgb(52,52,52)" stroke="none" d="M 8667,14448 L 7612,15060 7612,14448 8667,14448 Z M 7612,14433 L 7612,12820 8900,12074 8900,14313 8693,14433 7612,14433 Z"/>
     <path fill="rgb(53,53,53)" stroke="none" d="M 8693,14433 L 7612,15060 7612,14433 8693,14433 Z M 7612,14419 L 7612,12820 8900,12074 8900,14313 8717,14419 7612,14419 Z"/>
     <path fill="rgb(54,54,54)" stroke="none" d="M 8717,14419 L 7612,15060 7612,14419 8717,14419 Z M 7612,14404 L 7612,12820 8900,12074 8900,14313 8743,14404 7612,14404 Z"/>
     <path fill="rgb(55,55,55)" stroke="none" d="M 8743,14404 L 7612,15060 7612,14404 8743,14404 Z M 7612,14389 L 7612,12820 8900,12074 8900,14313 8769,14389 7612,14389 Z"/>
     <path fill="rgb(56,56,56)" stroke="none" d="M 8769,14389 L 7612,15060 7612,14389 8769,14389 Z M 7612,14375 L 7612,12820 8900,12074 8900,14313 8793,14375 7612,14375 Z"/>
     <path fill="rgb(57,57,57)" stroke="none" d="M 8793,14375 L 7612,15060 7612,14375 8793,14375 Z M 7612,14360 L 7612,12820 8900,12074 8900,14313 8819,14360 7612,14360 Z"/>
     <path fill="rgb(58,58,58)" stroke="none" d="M 8819,14360 L 7612,15060 7612,14360 8819,14360 Z M 7612,14345 L 7612,12820 8900,12074 8900,14313 8845,14345 7612,14345 Z"/>
     <path fill="rgb(59,59,59)" stroke="none" d="M 8845,14345 L 7612,15060 7612,14345 8845,14345 Z M 7612,14331 L 7612,12820 8900,12074 8900,14313 8869,14331 7612,14331 Z"/>
     <path fill="rgb(60,60,60)" stroke="none" d="M 8869,14331 L 7612,15060 7612,14331 8869,14331 Z M 7612,14316 L 7612,12820 8900,12074 8900,14313 8895,14316 7612,14316 Z"/>
     <path fill="rgb(61,61,61)" stroke="none" d="M 8895,14316 L 7612,15060 7612,14316 8895,14316 Z M 7612,14301 L 7612,12820 8900,12074 8900,14301 7612,14301 Z"/>
     <path fill="rgb(62,62,62)" stroke="none" d="M 8900,14301 L 8900,14313 7612,15060 7612,14301 8900,14301 Z M 7612,14287 L 7612,12820 8900,12074 8900,14287 7612,14287 Z"/>
     <path fill="rgb(63,63,63)" stroke="none" d="M 8900,14287 L 8900,14313 7612,15060 7612,14287 8900,14287 Z M 7612,14272 L 7612,12820 8900,12074 8900,14272 7612,14272 Z"/>
     <path fill="rgb(64,64,64)" stroke="none" d="M 8900,14272 L 8900,14313 7612,15060 7612,14272 8900,14272 Z M 7612,14257 L 7612,12820 8900,12074 8900,14257 7612,14257 Z"/>
     <path fill="rgb(65,65,65)" stroke="none" d="M 8900,14257 L 8900,14313 7612,15060 7612,14257 8900,14257 Z M 7612,14243 L 7612,12820 8900,12074 8900,14243 7612,14243 Z"/>
     <path fill="rgb(66,66,66)" stroke="none" d="M 8900,14243 L 8900,14313 7612,15060 7612,14243 8900,14243 Z M 7612,14228 L 7612,12820 8900,12074 8900,14228 7612,14228 Z"/>
     <path fill="rgb(67,67,67)" stroke="none" d="M 8900,14228 L 8900,14313 7612,15060 7612,14228 8900,14228 Z M 7612,14213 L 7612,12820 8900,12074 8900,14213 7612,14213 Z"/>
     <path fill="rgb(68,68,68)" stroke="none" d="M 8900,14213 L 8900,14313 7612,15060 7612,14213 8900,14213 Z M 7612,14199 L 7612,12820 8900,12074 8900,14199 7612,14199 Z"/>
     <path fill="rgb(69,69,69)" stroke="none" d="M 8900,14199 L 8900,14313 7612,15060 7612,14199 8900,14199 Z M 7612,14184 L 7612,12820 8900,12074 8900,14184 7612,14184 Z"/>
     <path fill="rgb(70,70,70)" stroke="none" d="M 8900,14184 L 8900,14313 7612,15060 7612,14184 8900,14184 Z M 7612,14169 L 7612,12820 8900,12074 8900,14169 7612,14169 Z"/>
     <path fill="rgb(71,71,71)" stroke="none" d="M 8900,14169 L 8900,14313 7612,15060 7612,14169 8900,14169 Z M 7612,14155 L 7612,12820 8900,12074 8900,14155 7612,14155 Z"/>
     <path fill="rgb(72,72,72)" stroke="none" d="M 8900,14155 L 8900,14313 7612,15060 7612,14155 8900,14155 Z M 7612,14140 L 7612,12820 8900,12074 8900,14140 7612,14140 Z"/>
     <path fill="rgb(73,73,73)" stroke="none" d="M 8900,14140 L 8900,14313 7612,15060 7612,14140 8900,14140 Z M 7612,14126 L 7612,12820 8900,12074 8900,14126 7612,14126 Z"/>
     <path fill="rgb(74,74,74)" stroke="none" d="M 8900,14126 L 8900,14313 7612,15060 7612,14126 8900,14126 Z M 7612,14111 L 7612,12820 8900,12074 8900,14111 7612,14111 Z"/>
     <path fill="rgb(75,75,75)" stroke="none" d="M 8900,14111 L 8900,14313 7612,15060 7612,14111 8900,14111 Z M 7612,14096 L 7612,12820 8900,12074 8900,14096 7612,14096 Z"/>
     <path fill="rgb(76,76,76)" stroke="none" d="M 8900,14096 L 8900,14313 7612,15060 7612,14096 8900,14096 Z M 7612,14082 L 7612,12820 8900,12074 8900,14082 7612,14082 Z"/>
     <path fill="rgb(77,77,77)" stroke="none" d="M 8900,14082 L 8900,14313 7612,15060 7612,14082 8900,14082 Z M 7612,14067 L 7612,12820 8900,12074 8900,14067 7612,14067 Z"/>
     <path fill="rgb(78,78,78)" stroke="none" d="M 8900,14067 L 8900,14313 7612,15060 7612,14067 8900,14067 Z M 7612,14052 L 7612,12820 8900,12074 8900,14052 7612,14052 Z"/>
     <path fill="rgb(79,79,79)" stroke="none" d="M 8900,14052 L 8900,14313 7612,15060 7612,14052 8900,14052 Z M 7612,14038 L 7612,12820 8900,12074 8900,14038 7612,14038 Z"/>
     <path fill="rgb(80,80,80)" stroke="none" d="M 8900,14038 L 8900,14313 7612,15060 7612,14038 8900,14038 Z M 7612,14023 L 7612,12820 8900,12074 8900,14023 7612,14023 Z"/>
     <path fill="rgb(81,81,81)" stroke="none" d="M 8900,14023 L 8900,14313 7612,15060 7612,14023 8900,14023 Z M 7612,14008 L 7612,12820 8900,12074 8900,14008 7612,14008 Z"/>
     <path fill="rgb(82,82,82)" stroke="none" d="M 8900,14008 L 8900,14313 7612,15060 7612,14008 8900,14008 Z M 7612,13994 L 7612,12820 8900,12074 8900,13994 7612,13994 Z"/>
     <path fill="rgb(83,83,83)" stroke="none" d="M 8900,13994 L 8900,14313 7612,15060 7612,13994 8900,13994 Z M 7612,13979 L 7612,12820 8900,12074 8900,13979 7612,13979 Z"/>
     <path fill="rgb(84,84,84)" stroke="none" d="M 8900,13979 L 8900,14313 7612,15060 7612,13979 8900,13979 Z M 7612,13964 L 7612,12820 8900,12074 8900,13964 7612,13964 Z"/>
     <path fill="rgb(85,85,85)" stroke="none" d="M 8900,13964 L 8900,14313 7612,15060 7612,13964 8900,13964 Z M 7612,13950 L 7612,12820 8900,12074 8900,13950 7612,13950 Z"/>
     <path fill="rgb(86,86,86)" stroke="none" d="M 8900,13950 L 8900,14313 7612,15060 7612,13950 8900,13950 Z M 7612,13935 L 7612,12820 8900,12074 8900,13935 7612,13935 Z"/>
     <path fill="rgb(87,87,87)" stroke="none" d="M 8900,13935 L 8900,14313 7612,15060 7612,13935 8900,13935 Z M 7612,13920 L 7612,12820 8900,12074 8900,13920 7612,13920 Z"/>
     <path fill="rgb(88,88,88)" stroke="none" d="M 8900,13920 L 8900,14313 7612,15060 7612,13920 8900,13920 Z M 7612,13906 L 7612,12820 8900,12074 8900,13906 7612,13906 Z"/>
     <path fill="rgb(89,89,89)" stroke="none" d="M 8900,13906 L 8900,14313 7612,15060 7612,13906 8900,13906 Z M 7612,13891 L 7612,12820 8900,12074 8900,13891 7612,13891 Z"/>
     <path fill="rgb(90,90,90)" stroke="none" d="M 8900,13891 L 8900,14313 7612,15060 7612,13891 8900,13891 Z M 7612,13876 L 7612,12820 8900,12074 8900,13876 7612,13876 Z"/>
     <path fill="rgb(91,91,91)" stroke="none" d="M 8900,13876 L 8900,14313 7612,15060 7612,13876 8900,13876 Z M 8891,13862 L 7612,13862 7612,12820 8891,12079 8891,13862 Z"/>
     <path fill="rgb(92,92,92)" stroke="none" d="M 8891,13862 L 8891,12079 8900,12074 8900,14313 7612,15060 7612,13862 8891,13862 Z M 8876,12090 L 8876,13847 7612,13847 7612,12820 8872,12090 8876,12090 Z"/>
     <path fill="rgb(93,93,93)" stroke="none" d="M 8876,13847 L 8876,12090 8872,12090 8900,12074 8900,14313 7612,15060 7612,13847 8876,13847 Z M 8861,12105 L 8861,13832 7612,13832 7612,12820 8846,12105 8861,12105 Z"/>
     <path fill="rgb(94,94,94)" stroke="none" d="M 8861,13832 L 8861,12105 8846,12105 8900,12074 8900,14313 7612,15060 7612,13832 8861,13832 Z M 8847,12119 L 8847,13818 7612,13818 7612,12820 8822,12119 8847,12119 Z"/>
     <path fill="rgb(95,95,95)" stroke="none" d="M 8847,13818 L 8847,12119 8822,12119 8900,12074 8900,14313 7612,15060 7612,13818 8847,13818 Z M 8832,12134 L 8832,13803 7612,13803 7612,12820 8796,12134 8832,12134 Z"/>
     <path fill="rgb(96,96,96)" stroke="none" d="M 8832,13803 L 8832,12134 8796,12134 8900,12074 8900,14313 7612,15060 7612,13803 8832,13803 Z M 8818,12148 L 8818,13789 7612,13789 7612,12820 8772,12148 8818,12148 Z"/>
     <path fill="rgb(97,97,97)" stroke="none" d="M 8818,13789 L 8818,12148 8772,12148 8900,12074 8900,14313 7612,15060 7612,13789 8818,13789 Z M 8803,12163 L 8803,13774 7612,13774 7612,12820 8746,12163 8803,12163 Z"/>
     <path fill="rgb(98,98,98)" stroke="none" d="M 8803,13774 L 8803,12163 8746,12163 8900,12074 8900,14313 7612,15060 7612,13774 8803,13774 Z M 8788,12178 L 8788,13759 7612,13759 7612,12820 8720,12178 8788,12178 Z"/>
     <path fill="rgb(99,99,99)" stroke="none" d="M 8788,13759 L 8788,12178 8720,12178 8900,12074 8900,14313 7612,15060 7612,13759 8788,13759 Z M 8774,12192 L 8774,13745 7612,13745 7612,12820 8696,12192 8774,12192 Z"/>
     <path fill="rgb(100,100,100)" stroke="none" d="M 8774,13745 L 8774,12192 8696,12192 8900,12074 8900,14313 7612,15060 7612,13745 8774,13745 Z M 8759,12207 L 8759,13730 7612,13730 7612,12820 8670,12207 8759,12207 Z"/>
     <path fill="rgb(101,101,101)" stroke="none" d="M 8759,13730 L 8759,12207 8670,12207 8900,12074 8900,14313 7612,15060 7612,13730 8759,13730 Z M 8744,12222 L 8744,13715 7612,13715 7612,12820 8644,12222 8744,12222 Z"/>
     <path fill="rgb(102,102,102)" stroke="none" d="M 8744,13715 L 8744,12222 8644,12222 8900,12074 8900,14313 7612,15060 7612,13715 8744,13715 Z M 8730,12236 L 8730,13701 7612,13701 7612,12820 8620,12236 8730,12236 Z"/>
     <path fill="rgb(103,103,103)" stroke="none" d="M 8730,13701 L 8730,12236 8620,12236 8900,12074 8900,14313 7612,15060 7612,13701 8730,13701 Z M 8715,12251 L 8715,13686 7612,13686 7612,12820 8594,12251 8715,12251 Z"/>
     <path fill="rgb(104,104,104)" stroke="none" d="M 8715,13686 L 8715,12251 8594,12251 8900,12074 8900,14313 7612,15060 7612,13686 8715,13686 Z M 8700,12266 L 8700,13671 7612,13671 7612,12820 8569,12266 8700,12266 Z"/>
     <path fill="rgb(105,105,105)" stroke="none" d="M 8700,13671 L 8700,12266 8569,12266 8900,12074 8900,14313 7612,15060 7612,13671 8700,13671 Z M 8686,12280 L 8686,13657 7612,13657 7612,12820 8544,12280 8686,12280 Z"/>
     <path fill="rgb(106,106,106)" stroke="none" d="M 8686,13657 L 8686,12280 8544,12280 8900,12074 8900,14313 7612,15060 7612,13657 8686,13657 Z M 8671,12295 L 8671,13642 7612,13642 7612,12820 8518,12295 8671,12295 Z"/>
     <path fill="rgb(107,107,107)" stroke="none" d="M 8671,13642 L 8671,12295 8518,12295 8900,12074 8900,14313 7612,15060 7612,13642 8671,13642 Z M 8656,12310 L 8656,13627 7612,13627 7612,12820 8493,12310 8656,12310 Z"/>
     <path fill="rgb(108,108,108)" stroke="none" d="M 8656,13627 L 8656,12310 8493,12310 8900,12074 8900,14313 7612,15060 7612,13627 8656,13627 Z M 8642,12324 L 8642,13613 7612,13613 7612,12820 8468,12324 8642,12324 Z"/>
     <path fill="rgb(109,109,109)" stroke="none" d="M 8642,13613 L 8642,12324 8468,12324 8900,12074 8900,14313 7612,15060 7612,13613 8642,13613 Z M 8627,12339 L 8627,13598 7612,13598 7612,12820 8442,12339 8627,12339 Z"/>
     <path fill="rgb(110,110,110)" stroke="none" d="M 8627,13598 L 8627,12339 8442,12339 8900,12074 8900,14313 7612,15060 7612,13598 8627,13598 Z M 8612,12354 L 8612,13583 7612,13583 7612,12820 8417,12354 8612,12354 Z"/>
     <path fill="rgb(111,111,111)" stroke="none" d="M 8612,13583 L 8612,12354 8417,12354 8900,12074 8900,14313 7612,15060 7612,13583 8612,13583 Z M 8598,12368 L 8598,13569 7612,13569 7612,12820 8392,12368 8598,12368 Z"/>
     <path fill="rgb(112,112,112)" stroke="none" d="M 8598,13569 L 8598,12368 8392,12368 8900,12074 8900,14313 7612,15060 7612,13569 8598,13569 Z M 8583,12383 L 8583,13554 7612,13554 7612,12820 8366,12383 8583,12383 Z"/>
     <path fill="rgb(113,113,113)" stroke="none" d="M 8583,13554 L 8583,12383 8366,12383 8900,12074 8900,14313 7612,15060 7612,13554 8583,13554 Z M 8568,12398 L 8568,13539 7612,13539 7612,12820 8341,12398 8568,12398 Z"/>
     <path fill="rgb(114,114,114)" stroke="none" d="M 8568,13539 L 8568,12398 8341,12398 8900,12074 8900,14313 7612,15060 7612,13539 8568,13539 Z M 8554,12412 L 8554,13525 7612,13525 7612,12820 8316,12412 8554,12412 Z"/>
     <path fill="rgb(115,115,115)" stroke="none" d="M 8554,13525 L 8554,12412 8316,12412 8900,12074 8900,14313 7612,15060 7612,13525 8554,13525 Z M 8539,12427 L 8539,13510 7612,13510 7612,12820 8291,12427 8539,12427 Z"/>
     <path fill="rgb(116,116,116)" stroke="none" d="M 8539,13510 L 8539,12427 8291,12427 8900,12074 8900,14313 7612,15060 7612,13510 8539,13510 Z M 8524,12442 L 8524,13495 7612,13495 7612,12820 8265,12442 8524,12442 Z"/>
     <path fill="rgb(117,117,117)" stroke="none" d="M 8524,13495 L 8524,12442 8265,12442 8900,12074 8900,14313 7612,15060 7612,13495 8524,13495 Z M 8510,12456 L 8510,13481 7612,13481 7612,12820 8240,12456 8510,12456 Z"/>
     <path fill="rgb(118,118,118)" stroke="none" d="M 8510,13481 L 8510,12456 8240,12456 8900,12074 8900,14313 7612,15060 7612,13481 8510,13481 Z M 8495,12471 L 8495,13466 7612,13466 7612,12820 8215,12471 8495,12471 Z"/>
     <path fill="rgb(119,119,119)" stroke="none" d="M 8495,13466 L 8495,12471 8215,12471 8900,12074 8900,14313 7612,15060 7612,13466 8495,13466 Z M 8481,12485 L 8481,13452 7612,13452 7612,12820 8190,12485 8481,12485 Z"/>
     <path fill="rgb(120,120,120)" stroke="none" d="M 8481,13452 L 8481,12485 8190,12485 8900,12074 8900,14313 7612,15060 7612,13452 8481,13452 Z M 8466,12500 L 8466,13437 7612,13437 7612,12820 8164,12500 8466,12500 Z"/>
     <path fill="rgb(121,121,121)" stroke="none" d="M 8466,13437 L 8466,12500 8164,12500 8900,12074 8900,14313 7612,15060 7612,13437 8466,13437 Z M 8451,12515 L 8451,13422 7612,13422 7612,12820 8139,12515 8451,12515 Z"/>
     <path fill="rgb(122,122,122)" stroke="none" d="M 8451,13422 L 8451,12515 8139,12515 8900,12074 8900,14313 7612,15060 7612,13422 8451,13422 Z M 8437,12529 L 8437,13408 7612,13408 7612,12820 8114,12529 8437,12529 Z"/>
     <path fill="rgb(123,123,123)" stroke="none" d="M 8437,13408 L 8437,12529 8114,12529 8900,12074 8900,14313 7612,15060 7612,13408 8437,13408 Z M 8422,12544 L 8422,13393 7612,13393 7612,12820 8089,12544 8422,12544 Z"/>
     <path fill="rgb(124,124,124)" stroke="none" d="M 8422,13393 L 8422,12544 8089,12544 8900,12074 8900,14313 7612,15060 7612,13393 8422,13393 Z M 8407,12559 L 8407,13378 7612,13378 7612,12820 8063,12559 8407,12559 Z"/>
     <path fill="rgb(125,125,125)" stroke="none" d="M 8407,13378 L 8407,12559 8063,12559 8900,12074 8900,14313 7612,15060 7612,13378 8407,13378 Z M 8393,12573 L 8393,13364 7612,13364 7612,12820 8038,12573 8393,12573 Z"/>
     <path fill="rgb(126,126,126)" stroke="none" d="M 8393,13364 L 8393,12573 8038,12573 8900,12074 8900,14313 7612,15060 7612,13364 8393,13364 Z M 8378,12588 L 8378,13349 7617,13349 7617,12817 8013,12588 8378,12588 Z"/>
     <path fill="rgb(127,127,127)" stroke="none" d="M 7617,13349 L 8378,13349 8378,12588 8013,12588 8900,12074 8900,14313 7612,15060 7612,12820 7617,12817 7617,13349 Z M 8363,12603 L 8363,13334 7632,13334 7632,12808 7987,12603 8363,12603 Z"/>
     <path fill="rgb(128,128,128)" stroke="none" d="M 7632,13334 L 8363,13334 8363,12603 7987,12603 8900,12074 8900,14313 7612,15060 7612,12820 7632,12808 7632,13334 Z M 8349,12617 L 8349,13320 7646,13320 7646,12800 7962,12617 8349,12617 Z"/>
     <path fill="rgb(129,129,129)" stroke="none" d="M 7646,13320 L 8349,13320 8349,12617 7962,12617 8900,12074 8900,14313 7612,15060 7612,12820 7646,12800 7646,13320 Z M 8334,12632 L 8334,13305 7661,13305 7661,12792 7937,12632 8334,12632 Z"/>
     <path fill="rgb(130,130,130)" stroke="none" d="M 7661,13305 L 8334,13305 8334,12632 7937,12632 8900,12074 8900,14313 7612,15060 7612,12820 7661,12792 7661,13305 Z M 8319,12647 L 8319,13290 7676,13290 7676,12783 7911,12647 8319,12647 Z"/>
     <path fill="rgb(131,131,131)" stroke="none" d="M 7676,13290 L 8319,13290 8319,12647 7911,12647 8900,12074 8900,14313 7612,15060 7612,12820 7676,12783 7676,13290 Z M 8305,12661 L 8305,13276 7690,13276 7690,12775 7887,12661 8305,12661 Z"/>
     <path fill="rgb(132,132,132)" stroke="none" d="M 7690,13276 L 8305,13276 8305,12661 7887,12661 8900,12074 8900,14313 7612,15060 7612,12820 7690,12775 7690,13276 Z M 8290,12676 L 8290,13261 7705,13261 7705,12766 7861,12676 8290,12676 Z"/>
     <path fill="rgb(133,133,133)" stroke="none" d="M 7705,13261 L 8290,13261 8290,12676 7861,12676 8900,12074 8900,14313 7612,15060 7612,12820 7705,12766 7705,13261 Z M 8275,12691 L 8275,13246 7720,13246 7720,12757 7835,12691 8275,12691 Z"/>
     <path fill="rgb(134,134,134)" stroke="none" d="M 7720,13246 L 8275,13246 8275,12691 7835,12691 8900,12074 8900,14313 7612,15060 7612,12820 7720,12757 7720,13246 Z M 8261,12705 L 8261,13232 7734,13232 7734,12749 7811,12705 8261,12705 Z"/>
     <path fill="rgb(135,135,135)" stroke="none" d="M 7734,13232 L 8261,13232 8261,12705 7811,12705 8900,12074 8900,14313 7612,15060 7612,12820 7734,12749 7734,13232 Z M 8246,12720 L 8246,13217 7749,13217 7749,12741 7785,12720 8246,12720 Z"/>
     <path fill="rgb(136,136,136)" stroke="none" d="M 7749,13217 L 8246,13217 8246,12720 7785,12720 8900,12074 8900,14313 7612,15060 7612,12820 7749,12741 7749,13217 Z M 7764,12735 L 8231,12735 8231,13202 7764,13202 7764,12735 Z"/>
     <path fill="rgb(137,137,137)" stroke="none" d="M 7764,12735 L 7764,13202 8231,13202 8231,12735 7764,12735 Z M 7778,12749 L 8217,12749 8217,13188 7778,13188 7778,12749 Z M 7612,15060 L 7612,12820 8900,12074 8900,14313 7612,15060 Z"/>
     <path fill="rgb(138,138,138)" stroke="none" d="M 7778,12749 L 7778,13188 8217,13188 8217,12749 7778,12749 Z M 7793,12764 L 8202,12764 8202,13173 7793,13173 7793,12764 Z M 7612,15060 L 7612,12820 8900,12074 8900,14313 7612,15060 Z"/>
     <path fill="rgb(139,139,139)" stroke="none" d="M 7793,12764 L 7793,13173 8202,13173 8202,12764 7793,12764 Z M 7808,12779 L 8187,12779 8187,13158 7808,13158 7808,12779 Z M 7612,15060 L 7612,12820 8900,12074 8900,14313 7612,15060 Z"/>
     <path fill="rgb(140,140,140)" stroke="none" d="M 7808,12779 L 7808,13158 8187,13158 8187,12779 7808,12779 Z M 7822,12793 L 8173,12793 8173,13144 7822,13144 7822,12793 Z M 7612,15060 L 7612,12820 8900,12074 8900,14313 7612,15060 Z"/>
     <path fill="rgb(141,141,141)" stroke="none" d="M 7822,12793 L 7822,13144 8173,13144 8173,12793 7822,12793 Z M 7837,12808 L 8158,12808 8158,13129 7837,13129 7837,12808 Z M 7612,15060 L 7612,12820 8900,12074 8900,14313 7612,15060 Z"/>
     <path fill="rgb(142,142,142)" stroke="none" d="M 7837,12808 L 7837,13129 8158,13129 8158,12808 7837,12808 Z M 7851,12822 L 8144,12822 8144,13115 7851,13115 7851,12822 Z M 7612,15060 L 7612,12820 8900,12074 8900,14313 7612,15060 Z"/>
     <path fill="rgb(143,143,143)" stroke="none" d="M 7851,12822 L 7851,13115 8144,13115 8144,12822 7851,12822 Z M 7866,12837 L 8129,12837 8129,13100 7866,13100 7866,12837 Z M 7612,15060 L 7612,12820 8900,12074 8900,14313 7612,15060 Z"/>
     <path fill="rgb(144,144,144)" stroke="none" d="M 7866,12837 L 7866,13100 8129,13100 8129,12837 7866,12837 Z M 7881,12852 L 8114,12852 8114,13085 7881,13085 7881,12852 Z M 7612,15060 L 7612,12820 8900,12074 8900,14313 7612,15060 Z"/>
     <path fill="rgb(145,145,145)" stroke="none" d="M 7881,12852 L 7881,13085 8114,13085 8114,12852 7881,12852 Z M 7895,12866 L 8100,12866 8100,13071 7895,13071 7895,12866 Z M 7612,15060 L 7612,12820 8900,12074 8900,14313 7612,15060 Z"/>
     <path fill="rgb(146,146,146)" stroke="none" d="M 7895,12866 L 7895,13071 8100,13071 8100,12866 7895,12866 Z M 7910,12881 L 8085,12881 8085,13056 7910,13056 7910,12881 Z M 7612,15060 L 7612,12820 8900,12074 8900,14313 7612,15060 Z"/>
     <path fill="rgb(147,147,147)" stroke="none" d="M 7910,12881 L 7910,13056 8085,13056 8085,12881 7910,12881 Z M 7925,12896 L 8070,12896 8070,13041 7925,13041 7925,12896 Z M 7612,15060 L 7612,12820 8900,12074 8900,14313 7612,15060 Z"/>
     <path fill="rgb(148,148,148)" stroke="none" d="M 7925,12896 L 7925,13041 8070,13041 8070,12896 7925,12896 Z M 7939,12910 L 8056,12910 8056,13027 7939,13027 7939,12910 Z M 7612,15060 L 7612,12820 8900,12074 8900,14313 7612,15060 Z"/>
     <path fill="rgb(149,149,149)" stroke="none" d="M 7939,12910 L 7939,13027 8056,13027 8056,12910 7939,12910 Z M 7954,12925 L 8041,12925 8041,13012 7954,13012 7954,12925 Z M 7612,15060 L 7612,12820 8900,12074 8900,14313 7612,15060 Z"/>
     <path fill="rgb(150,150,150)" stroke="none" d="M 7954,12925 L 7954,13012 8041,13012 8041,12925 7954,12925 Z M 7969,12940 L 8026,12940 8026,12997 7969,12997 7969,12940 Z M 7612,15060 L 7612,12820 8900,12074 8900,14313 7612,15060 Z"/>
     <path fill="rgb(151,151,151)" stroke="none" d="M 7969,12940 L 7969,12997 8026,12997 8026,12940 7969,12940 Z M 7983,12954 L 8012,12954 8012,12983 7983,12983 7983,12954 Z M 7612,15060 L 7612,12820 8900,12074 8900,14313 7612,15060 Z"/>
     <path fill="rgb(153,153,153)" stroke="none" d="M 7983,12954 L 7983,12983 8012,12983 8012,12954 7983,12954 Z M 7612,15060 L 7612,12820 8900,12074 8900,14313 7612,15060 Z"/>
     <path fill="none" stroke="rgb(178,178,178)" id="Drawing_2_0" stroke-width="40" stroke-linejoin="round" d="M 7612,15060 L 7612,12820 8900,12074 8900,14313 7612,15060 Z"/>
    </g>
    <g>
     <defs>
      <linearGradient id="Gradient_1174" gradientUnits="userSpaceOnUse" x1="7933" y1="11700" x2="7933" y2="12820">
       <stop offset="0.1" stop-color="rgb(51,51,51)"/>
       <stop offset="1" stop-color="rgb(153,153,153)"/>
      </linearGradient>
     </defs>
     <path fill="url(#Gradient_1174)" stroke="rgb(178,178,178)" id="Drawing_3_0" stroke-width="40" stroke-linejoin="round" d="M 7612,12820 L 6967,12446 8255,11700 8900,12074 7612,12820 Z"/>
    </g>
    <g>
     <defs>
      <linearGradient id="Gradient_1175" gradientUnits="userSpaceOnUse" x1="6964" y1="13751" x2="7613" y2="13753">
       <stop offset="0.1" stop-color="rgb(51,51,51)"/>
       <stop offset="1" stop-color="rgb(153,153,153)"/>
      </linearGradient>
     </defs>
     <path fill="url(#Gradient_1175)" stroke="rgb(178,178,178)" id="Drawing_4_0" stroke-width="40" stroke-linejoin="round" d="M 6967,14685 L 6967,12446 7612,12820 7612,15059 6967,14685 Z"/>
    </g>
    <g>
     <path fill="none" stroke="rgb(0,0,0)" id="Drawing_5_0" stroke-width="40" stroke-linejoin="round" d="M 6967,14686 L 6967,12446 8255,11700 8900,12074 8900,14313 7612,15059 6967,14686 Z"/>
    </g>
    <g>
     <path fill="rgb(0,0,0)" stroke="none" d="M 7096,14537 L 7096,14313 7225,14388 7225,14611 7096,14537 Z"/>
     <path fill="none" stroke="rgb(178,178,178)" id="Drawing_6_0" stroke-width="40" stroke-linejoin="round" d="M 7096,14537 L 7096,14313 7225,14388 7225,14611 7096,14537 Z"/>
    </g>
    <g>
     <path fill="rgb(0,0,0)" stroke="none" d="M 7354,14686 L 7354,14462 7483,14537 7483,14760 7354,14686 Z"/>
     <path fill="none" stroke="rgb(178,178,178)" id="Drawing_7_0" stroke-width="40" stroke-linejoin="round" d="M 7354,14686 L 7354,14462 7483,14537 7483,14760 7354,14686 Z"/>
    </g>
    <g>
     <path fill="rgb(0,0,0)" stroke="none" d="M 7096,14163 L 7096,13939 7225,14014 7225,14237 7096,14163 Z"/>
     <path fill="none" stroke="rgb(178,178,178)" id="Drawing_8_0" stroke-width="40" stroke-linejoin="round" d="M 7096,14163 L 7096,13939 7225,14014 7225,14237 7096,14163 Z"/>
    </g>
    <g>
     <path fill="rgb(0,0,0)" stroke="none" d="M 7354,14313 L 7354,14089 7483,14164 7483,14387 7354,14313 Z"/>
     <path fill="none" stroke="rgb(178,178,178)" id="Drawing_9_0" stroke-width="40" stroke-linejoin="round" d="M 7354,14313 L 7354,14089 7483,14164 7483,14387 7354,14313 Z"/>
    </g>
    <g>
     <path fill="rgb(0,0,0)" stroke="none" d="M 7354,13791 L 7354,13343 7483,13418 7483,13866 7354,13791 Z"/>
     <path fill="none" stroke="rgb(178,178,178)" id="Drawing_10_0" stroke-width="40" stroke-linejoin="round" d="M 7354,13791 L 7354,13343 7483,13418 7483,13866 7354,13791 Z"/>
    </g>
    <g>
     <path fill="rgb(0,0,0)" stroke="none" d="M 7096,13641 L 7096,13193 7225,13268 7225,13716 7096,13641 Z"/>
     <path fill="none" stroke="rgb(178,178,178)" id="Drawing_11_0" stroke-width="40" stroke-linejoin="round" d="M 7096,13641 L 7096,13193 7225,13268 7225,13716 7096,13641 Z"/>
    </g>
    <g>
     <path fill="rgb(57,181,74)" stroke="none" d="M 7096,12969 L 7096,12745 7225,12820 7225,13043 7096,12969 Z"/>
     <path fill="none" stroke="rgb(51,51,51)" id="Drawing_12_0" stroke-width="40" stroke-linejoin="round" d="M 7096,12969 L 7096,12745 7225,12820 7225,13043 7096,12969 Z"/>
    </g>
    <g>
     <path fill="rgb(209,97,108)" stroke="none" d="M 7354,13119 L 7354,12895 7483,12970 7483,13193 7354,13119 Z"/>
     <path fill="none" stroke="rgb(51,51,51)" id="Drawing_13_0" stroke-width="40" stroke-linejoin="round" d="M 7354,13119 L 7354,12895 7483,12970 7483,13193 7354,13119 Z"/>
    </g>
   </g>
  </g>
 </g>
</svg>