<?xml version="1.0" encoding="UTF-8"?>

<svg version="1.2" baseProfile="tiny" width="20.81mm" height="34.15mm" viewBox="13729 10160 2081 3415" preserveAspectRatio="xMidYMid" fill-rule="evenodd" stroke-width="28.222" stroke-linejoin="round" xmlns="http://www.w3.org/2000/svg" xmlns:xlink="http://www.w3.org/1999/xlink" xml:space="preserve">
 <g visibility="visible" id="Slide_1">
  <g id="DrawingGroup_1">
   <g>
    <path fill="rgb(221,221,221)" stroke="none" d="M 14321,13556 C 14635,13556 15809,13225 15809,12960 15809,12695 15780,12563 15466,12563 15466,12762 14321,13290 14321,13556 Z"/>
    <path fill="none" stroke="rgb(221,221,221)" id="Drawing_1_0" stroke-linejoin="round" d="M 14321,13556 C 14635,13556 15809,13225 15809,12960 15809,12695 15780,12563 15466,12563 15466,12762 14321,13290 14321,13556 Z"/>
   </g>
   <g id="DrawingGroup_2">
    <g>
     <path fill="rgb(51,51,51)" stroke="none" d="M 14321,13013 L 14321,11570 15466,10908 15466,12893 15258,13013 14321,13013 Z"/>
     <path fill="rgb(52,52,52)" stroke="none" d="M 15258,13013 L 14321,13555 14321,13013 15258,13013 Z M 14321,13000 L 14321,11570 15466,10908 15466,12893 15281,13000 14321,13000 Z"/>
     <path fill="rgb(53,53,53)" stroke="none" d="M 15281,13000 L 14321,13555 14321,13000 15281,13000 Z M 14321,12987 L 14321,11570 15466,10908 15466,12893 15303,12987 14321,12987 Z"/>
     <path fill="rgb(54,54,54)" stroke="none" d="M 15303,12987 L 14321,13555 14321,12987 15303,12987 Z M 14321,12974 L 14321,11570 15466,10908 15466,12893 15326,12974 14321,12974 Z"/>
     <path fill="rgb(55,55,55)" stroke="none" d="M 15326,12974 L 14321,13555 14321,12974 15326,12974 Z M 14321,12961 L 14321,11570 15466,10908 15466,12893 15348,12961 14321,12961 Z"/>
     <path fill="rgb(56,56,56)" stroke="none" d="M 15348,12961 L 14321,13555 14321,12961 15348,12961 Z M 14321,12948 L 14321,11570 15466,10908 15466,12893 15371,12948 14321,12948 Z"/>
     <path fill="rgb(57,57,57)" stroke="none" d="M 15371,12948 L 14321,13555 14321,12948 15371,12948 Z M 14321,12935 L 14321,11570 15466,10908 15466,12893 15393,12935 14321,12935 Z"/>
     <path fill="rgb(58,58,58)" stroke="none" d="M 15393,12935 L 14321,13555 14321,12935 15393,12935 Z M 14321,12922 L 14321,11570 15466,10908 15466,12893 15416,12922 14321,12922 Z"/>
     <path fill="rgb(59,59,59)" stroke="none" d="M 15416,12922 L 14321,13555 14321,12922 15416,12922 Z M 14321,12909 L 14321,11570 15466,10908 15466,12893 15438,12909 14321,12909 Z"/>
     <path fill="rgb(60,60,60)" stroke="none" d="M 15438,12909 L 14321,13555 14321,12909 15438,12909 Z M 14321,12896 L 14321,11570 15466,10908 15466,12893 15461,12896 14321,12896 Z"/>
     <path fill="rgb(61,61,61)" stroke="none" d="M 15461,12896 L 14321,13555 14321,12896 15461,12896 Z M 14321,12883 L 14321,11570 15466,10908 15466,12883 14321,12883 Z"/>
     <path fill="rgb(62,62,62)" stroke="none" d="M 15466,12883 L 15466,12893 14321,13555 14321,12883 15466,12883 Z M 14321,12870 L 14321,11570 15466,10908 15466,12870 14321,12870 Z"/>
     <path fill="rgb(63,63,63)" stroke="none" d="M 15466,12870 L 15466,12893 14321,13555 14321,12870 15466,12870 Z M 14321,12857 L 14321,11570 15466,10908 15466,12857 14321,12857 Z"/>
     <path fill="rgb(64,64,64)" stroke="none" d="M 15466,12857 L 15466,12893 14321,13555 14321,12857 15466,12857 Z M 14321,12844 L 14321,11570 15466,10908 15466,12844 14321,12844 Z"/>
     <path fill="rgb(65,65,65)" stroke="none" d="M 15466,12844 L 15466,12893 14321,13555 14321,12844 15466,12844 Z M 14321,12831 L 14321,11570 15466,10908 15466,12831 14321,12831 Z"/>
     <path fill="rgb(66,66,66)" stroke="none" d="M 15466,12831 L 15466,12893 14321,13555 14321,12831 15466,12831 Z M 14321,12818 L 14321,11570 15466,10908 15466,12818 14321,12818 Z"/>
     <path fill="rgb(67,67,67)" stroke="none" d="M 15466,12818 L 15466,12893 14321,13555 14321,12818 15466,12818 Z M 14321,12805 L 14321,11570 15466,10908 15466,12805 14321,12805 Z"/>
     <path fill="rgb(68,68,68)" stroke="none" d="M 15466,12805 L 15466,12893 14321,13555 14321,12805 15466,12805 Z M 14321,12792 L 14321,11570 15466,10908 15466,12792 14321,12792 Z"/>
     <path fill="rgb(69,69,69)" stroke="none" d="M 15466,12792 L 15466,12893 14321,13555 14321,12792 15466,12792 Z M 14321,12779 L 14321,11570 15466,10908 15466,12779 14321,12779 Z"/>
     <path fill="rgb(70,70,70)" stroke="none" d="M 15466,12779 L 15466,12893 14321,13555 14321,12779 15466,12779 Z M 14321,12766 L 14321,11570 15466,10908 15466,12766 14321,12766 Z"/>
     <path fill="rgb(71,71,71)" stroke="none" d="M 15466,12766 L 15466,12893 14321,13555 14321,12766 15466,12766 Z M 14321,12753 L 14321,11570 15466,10908 15466,12753 14321,12753 Z"/>
     <path fill="rgb(72,72,72)" stroke="none" d="M 15466,12753 L 15466,12893 14321,13555 14321,12753 15466,12753 Z M 14321,12740 L 14321,11570 15466,10908 15466,12740 14321,12740 Z"/>
     <path fill="rgb(73,73,73)" stroke="none" d="M 15466,12740 L 15466,12893 14321,13555 14321,12740 15466,12740 Z M 14321,12727 L 14321,11570 15466,10908 15466,12727 14321,12727 Z"/>
     <path fill="rgb(74,74,74)" stroke="none" d="M 15466,12727 L 15466,12893 14321,13555 14321,12727 15466,12727 Z M 14321,12714 L 14321,11570 15466,10908 15466,12714 14321,12714 Z"/>
     <path fill="rgb(75,75,75)" stroke="none" d="M 15466,12714 L 15466,12893 14321,13555 14321,12714 15466,12714 Z M 14321,12701 L 14321,11570 15466,10908 15466,12701 14321,12701 Z"/>
     <path fill="rgb(76,76,76)" stroke="none" d="M 15466,12701 L 15466,12893 14321,13555 14321,12701 15466,12701 Z M 14321,12688 L 14321,11570 15466,10908 15466,12688 14321,12688 Z"/>
     <path fill="rgb(77,77,77)" stroke="none" d="M 15466,12688 L 15466,12893 14321,13555 14321,12688 15466,12688 Z M 14321,12675 L 14321,11570 15466,10908 15466,12675 14321,12675 Z"/>
     <path fill="rgb(78,78,78)" stroke="none" d="M 15466,12675 L 15466,12893 14321,13555 14321,12675 15466,12675 Z M 14321,12662 L 14321,11570 15466,10908 15466,12662 14321,12662 Z"/>
     <path fill="rgb(79,79,79)" stroke="none" d="M 15466,12662 L 15466,12893 14321,13555 14321,12662 15466,12662 Z M 14321,12649 L 14321,11570 15466,10908 15466,12649 14321,12649 Z"/>
     <path fill="rgb(80,80,80)" stroke="none" d="M 15466,12649 L 15466,12893 14321,13555 14321,12649 15466,12649 Z M 14321,12636 L 14321,11570 15466,10908 15466,12636 14321,12636 Z"/>
     <path fill="rgb(81,81,81)" stroke="none" d="M 15466,12636 L 15466,12893 14321,13555 14321,12636 15466,12636 Z M 14321,12623 L 14321,11570 15466,10908 15466,12623 14321,12623 Z"/>
     <path fill="rgb(82,82,82)" stroke="none" d="M 15466,12623 L 15466,12893 14321,13555 14321,12623 15466,12623 Z M 14321,12610 L 14321,11570 15466,10908 15466,12610 14321,12610 Z"/>
     <path fill="rgb(83,83,83)" stroke="none" d="M 15466,12610 L 15466,12893 14321,13555 14321,12610 15466,12610 Z M 14321,12597 L 14321,11570 15466,10908 15466,12597 14321,12597 Z"/>
     <path fill="rgb(84,84,84)" stroke="none" d="M 15466,12597 L 15466,12893 14321,13555 14321,12597 15466,12597 Z M 14321,12584 L 14321,11570 15466,10908 15466,12584 14321,12584 Z"/>
     <path fill="rgb(85,85,85)" stroke="none" d="M 15466,12584 L 15466,12893 14321,13555 14321,12584 15466,12584 Z M 14321,12571 L 14321,11570 15466,10908 15466,12571 14321,12571 Z"/>
     <path fill="rgb(86,86,86)" stroke="none" d="M 15466,12571 L 15466,12893 14321,13555 14321,12571 15466,12571 Z M 14321,12558 L 14321,11570 15466,10908 15466,12558 14321,12558 Z"/>
     <path fill="rgb(87,87,87)" stroke="none" d="M 15466,12558 L 15466,12893 14321,13555 14321,12558 15466,12558 Z M 14321,12545 L 14321,11570 15466,10908 15466,12545 14321,12545 Z"/>
     <path fill="rgb(88,88,88)" stroke="none" d="M 15466,12545 L 15466,12893 14321,13555 14321,12545 15466,12545 Z M 14321,12532 L 14321,11570 15466,10908 15466,12532 14321,12532 Z"/>
     <path fill="rgb(89,89,89)" stroke="none" d="M 15466,12532 L 15466,12893 14321,13555 14321,12532 15466,12532 Z M 14321,12519 L 14321,11570 15466,10908 15466,12519 14321,12519 Z"/>
     <path fill="rgb(90,90,90)" stroke="none" d="M 15466,12519 L 15466,12893 14321,13555 14321,12519 15466,12519 Z M 14321,12506 L 14321,11570 15466,10908 15466,12506 14321,12506 Z"/>
     <path fill="rgb(91,91,91)" stroke="none" d="M 15466,12506 L 15466,12893 14321,13555 14321,12506 15466,12506 Z M 15455,12493 L 14321,12493 14321,11570 15455,10914 15455,12493 Z"/>
     <path fill="rgb(92,92,92)" stroke="none" d="M 15455,12493 L 15455,10914 15466,10908 15466,12893 14321,13555 14321,12493 15455,12493 Z M 15442,10922 L 15442,12480 14321,12480 14321,11570 15442,10922 15442,10922 Z"/>
     <path fill="rgb(93,93,93)" stroke="none" d="M 15442,12480 L 15442,10922 15442,10922 15466,10908 15466,12893 14321,13555 14321,12480 15442,12480 Z M 15429,10935 L 15429,12467 14321,12467 14321,11570 15419,10935 15429,10935 Z"/>
     <path fill="rgb(94,94,94)" stroke="none" d="M 15429,12467 L 15429,10935 15419,10935 15466,10908 15466,12893 14321,13555 14321,12467 15429,12467 Z M 15416,10948 L 15416,12454 14321,12454 14321,11570 15397,10948 15416,10948 Z"/>
     <path fill="rgb(95,95,95)" stroke="none" d="M 15416,12454 L 15416,10948 15397,10948 15466,10908 15466,12893 14321,13555 14321,12454 15416,12454 Z M 15403,10961 L 15403,12441 14321,12441 14321,11570 15374,10961 15403,10961 Z"/>
     <path fill="rgb(96,96,96)" stroke="none" d="M 15403,12441 L 15403,10961 15374,10961 15466,10908 15466,12893 14321,13555 14321,12441 15403,12441 Z M 15390,10974 L 15390,12428 14321,12428 14321,11570 15352,10974 15390,10974 Z"/>
     <path fill="rgb(97,97,97)" stroke="none" d="M 15390,12428 L 15390,10974 15352,10974 15466,10908 15466,12893 14321,13555 14321,12428 15390,12428 Z M 15377,10987 L 15377,12415 14321,12415 14321,11570 15329,10987 15377,10987 Z"/>
     <path fill="rgb(98,98,98)" stroke="none" d="M 15377,12415 L 15377,10987 15329,10987 15466,10908 15466,12893 14321,13555 14321,12415 15377,12415 Z M 15364,11000 L 15364,12402 14321,12402 14321,11570 15307,11000 15364,11000 Z"/>
     <path fill="rgb(99,99,99)" stroke="none" d="M 15364,12402 L 15364,11000 15307,11000 15466,10908 15466,12893 14321,13555 14321,12402 15364,12402 Z M 15351,11013 L 15351,12389 14321,12389 14321,11570 15284,11013 15351,11013 Z"/>
     <path fill="rgb(100,100,100)" stroke="none" d="M 15351,12389 L 15351,11013 15284,11013 15466,10908 15466,12893 14321,13555 14321,12389 15351,12389 Z M 15338,11026 L 15338,12376 14321,12376 14321,11570 15262,11026 15338,11026 Z"/>
     <path fill="rgb(101,101,101)" stroke="none" d="M 15338,12376 L 15338,11026 15262,11026 15466,10908 15466,12893 14321,13555 14321,12376 15338,12376 Z M 15325,11039 L 15325,12363 14321,12363 14321,11570 15239,11039 15325,11039 Z"/>
     <path fill="rgb(102,102,102)" stroke="none" d="M 15325,12363 L 15325,11039 15239,11039 15466,10908 15466,12893 14321,13555 14321,12363 15325,12363 Z M 15312,11052 L 15312,12350 14321,12350 14321,11570 15217,11052 15312,11052 Z"/>
     <path fill="rgb(103,103,103)" stroke="none" d="M 15312,12350 L 15312,11052 15217,11052 15466,10908 15466,12893 14321,13555 14321,12350 15312,12350 Z M 15299,11065 L 15299,12337 14321,12337 14321,11570 15194,11065 15299,11065 Z"/>
     <path fill="rgb(104,104,104)" stroke="none" d="M 15299,12337 L 15299,11065 15194,11065 15466,10908 15466,12893 14321,13555 14321,12337 15299,12337 Z M 15286,11078 L 15286,12324 14321,12324 14321,11570 15172,11078 15286,11078 Z"/>
     <path fill="rgb(105,105,105)" stroke="none" d="M 15286,12324 L 15286,11078 15172,11078 15466,10908 15466,12893 14321,13555 14321,12324 15286,12324 Z M 15273,11091 L 15273,12311 14321,12311 14321,11570 15149,11091 15273,11091 Z"/>
     <path fill="rgb(106,106,106)" stroke="none" d="M 15273,12311 L 15273,11091 15149,11091 15466,10908 15466,12893 14321,13555 14321,12311 15273,12311 Z M 15260,11104 L 15260,12298 14321,12298 14321,11570 15127,11104 15260,11104 Z"/>
     <path fill="rgb(107,107,107)" stroke="none" d="M 15260,12298 L 15260,11104 15127,11104 15466,10908 15466,12893 14321,13555 14321,12298 15260,12298 Z M 15247,11117 L 15247,12285 14321,12285 14321,11570 15105,11117 15247,11117 Z"/>
     <path fill="rgb(108,108,108)" stroke="none" d="M 15247,12285 L 15247,11117 15105,11117 15466,10908 15466,12893 14321,13555 14321,12285 15247,12285 Z M 15234,11130 L 15234,12272 14321,12272 14321,11570 15082,11130 15234,11130 Z"/>
     <path fill="rgb(109,109,109)" stroke="none" d="M 15234,12272 L 15234,11130 15082,11130 15466,10908 15466,12893 14321,13555 14321,12272 15234,12272 Z M 15221,11143 L 15221,12259 14321,12259 14321,11570 15060,11143 15221,11143 Z"/>
     <path fill="rgb(110,110,110)" stroke="none" d="M 15221,12259 L 15221,11143 15060,11143 15466,10908 15466,12893 14321,13555 14321,12259 15221,12259 Z M 15208,11156 L 15208,12246 14321,12246 14321,11570 15037,11156 15208,11156 Z"/>
     <path fill="rgb(111,111,111)" stroke="none" d="M 15208,12246 L 15208,11156 15037,11156 15466,10908 15466,12893 14321,13555 14321,12246 15208,12246 Z M 15195,11169 L 15195,12233 14321,12233 14321,11570 15015,11169 15195,11169 Z"/>
     <path fill="rgb(112,112,112)" stroke="none" d="M 15195,12233 L 15195,11169 15015,11169 15466,10908 15466,12893 14321,13555 14321,12233 15195,12233 Z M 15182,11182 L 15182,12220 14321,12220 14321,11570 14992,11182 15182,11182 Z"/>
     <path fill="rgb(113,113,113)" stroke="none" d="M 15182,12220 L 15182,11182 14992,11182 15466,10908 15466,12893 14321,13555 14321,12220 15182,12220 Z M 15169,11195 L 15169,12207 14321,12207 14321,11570 14970,11195 15169,11195 Z"/>
     <path fill="rgb(114,114,114)" stroke="none" d="M 15169,12207 L 15169,11195 14970,11195 15466,10908 15466,12893 14321,13555 14321,12207 15169,12207 Z M 15156,11208 L 15156,12194 14321,12194 14321,11570 14947,11208 15156,11208 Z"/>
     <path fill="rgb(115,115,115)" stroke="none" d="M 15156,12194 L 15156,11208 14947,11208 15466,10908 15466,12893 14321,13555 14321,12194 15156,12194 Z M 15143,11221 L 15143,12181 14321,12181 14321,11570 14925,11221 15143,11221 Z"/>
     <path fill="rgb(116,116,116)" stroke="none" d="M 15143,12181 L 15143,11221 14925,11221 15466,10908 15466,12893 14321,13555 14321,12181 15143,12181 Z M 15130,11234 L 15130,12168 14321,12168 14321,11570 14902,11234 15130,11234 Z"/>
     <path fill="rgb(117,117,117)" stroke="none" d="M 15130,12168 L 15130,11234 14902,11234 15466,10908 15466,12893 14321,13555 14321,12168 15130,12168 Z M 15117,11247 L 15117,12155 14321,12155 14321,11570 14880,11247 15117,11247 Z"/>
     <path fill="rgb(118,118,118)" stroke="none" d="M 15117,12155 L 15117,11247 14880,11247 15466,10908 15466,12893 14321,13555 14321,12155 15117,12155 Z M 15104,11260 L 15104,12142 14321,12142 14321,11570 14857,11260 15104,11260 Z"/>
     <path fill="rgb(119,119,119)" stroke="none" d="M 15104,12142 L 15104,11260 14857,11260 15466,10908 15466,12893 14321,13555 14321,12142 15104,12142 Z M 15091,11273 L 15091,12129 14321,12129 14321,11570 14835,11273 15091,11273 Z"/>
     <path fill="rgb(120,120,120)" stroke="none" d="M 15091,12129 L 15091,11273 14835,11273 15466,10908 15466,12893 14321,13555 14321,12129 15091,12129 Z M 15078,11286 L 15078,12116 14321,12116 14321,11570 14812,11286 15078,11286 Z"/>
     <path fill="rgb(121,121,121)" stroke="none" d="M 15078,12116 L 15078,11286 14812,11286 15466,10908 15466,12893 14321,13555 14321,12116 15078,12116 Z M 15065,11299 L 15065,12103 14321,12103 14321,11570 14790,11299 15065,11299 Z"/>
     <path fill="rgb(122,122,122)" stroke="none" d="M 15065,12103 L 15065,11299 14790,11299 15466,10908 15466,12893 14321,13555 14321,12103 15065,12103 Z M 15052,11312 L 15052,12090 14321,12090 14321,11570 14767,11312 15052,11312 Z"/>
     <path fill="rgb(123,123,123)" stroke="none" d="M 15052,12090 L 15052,11312 14767,11312 15466,10908 15466,12893 14321,13555 14321,12090 15052,12090 Z M 15039,11325 L 15039,12077 14321,12077 14321,11570 14745,11325 15039,11325 Z"/>
     <path fill="rgb(124,124,124)" stroke="none" d="M 15039,12077 L 15039,11325 14745,11325 15466,10908 15466,12893 14321,13555 14321,12077 15039,12077 Z M 15026,11338 L 15026,12064 14321,12064 14321,11570 14722,11338 15026,11338 Z"/>
     <path fill="rgb(125,125,125)" stroke="none" d="M 15026,12064 L 15026,11338 14722,11338 15466,10908 15466,12893 14321,13555 14321,12064 15026,12064 Z M 15013,11351 L 15013,12051 14321,12051 14321,11570 14700,11351 15013,11351 Z"/>
     <path fill="rgb(126,126,126)" stroke="none" d="M 15013,12051 L 15013,11351 14700,11351 15466,10908 15466,12893 14321,13555 14321,12051 15013,12051 Z M 15000,11364 L 15000,12038 14326,12038 14326,11567 14677,11364 15000,11364 Z"/>
     <path fill="rgb(127,127,127)" stroke="none" d="M 14326,12038 L 15000,12038 15000,11364 14677,11364 15466,10908 15466,12893 14321,13555 14321,11570 14326,11567 14326,12038 Z M 14987,11377 L 14987,12025 14339,12025 14339,11560 14655,11377 14987,11377 Z"/>
     <path fill="rgb(128,128,128)" stroke="none" d="M 14339,12025 L 14987,12025 14987,11377 14655,11377 15466,10908 15466,12893 14321,13555 14321,11570 14339,11560 14339,12025 Z M 14974,11390 L 14974,12012 14352,12012 14352,11552 14632,11390 14974,11390 Z"/>
     <path fill="rgb(129,129,129)" stroke="none" d="M 14352,12012 L 14974,12012 14974,11390 14632,11390 15466,10908 15466,12893 14321,13555 14321,11570 14352,11552 14352,12012 Z M 14961,11403 L 14961,11999 14365,11999 14365,11545 14610,11403 14961,11403 Z"/>
     <path fill="rgb(130,130,130)" stroke="none" d="M 14365,11999 L 14961,11999 14961,11403 14610,11403 15466,10908 15466,12893 14321,13555 14321,11570 14365,11545 14365,11999 Z M 14948,11416 L 14948,11986 14378,11986 14378,11537 14587,11416 14948,11416 Z"/>
     <path fill="rgb(131,131,131)" stroke="none" d="M 14378,11986 L 14948,11986 14948,11416 14587,11416 15466,10908 15466,12893 14321,13555 14321,11570 14378,11537 14378,11986 Z M 14935,11429 L 14935,11973 14391,11973 14391,11530 14565,11429 14935,11429 Z"/>
     <path fill="rgb(132,132,132)" stroke="none" d="M 14391,11973 L 14935,11973 14935,11429 14565,11429 15466,10908 15466,12893 14321,13555 14321,11570 14391,11530 14391,11973 Z M 14922,11442 L 14922,11960 14404,11960 14404,11522 14542,11442 14922,11442 Z"/>
     <path fill="rgb(133,133,133)" stroke="none" d="M 14404,11960 L 14922,11960 14922,11442 14542,11442 15466,10908 15466,12893 14321,13555 14321,11570 14404,11522 14404,11960 Z M 14909,11455 L 14909,11947 14417,11947 14417,11514 14520,11455 14909,11455 Z"/>
     <path fill="rgb(134,134,134)" stroke="none" d="M 14417,11947 L 14909,11947 14909,11455 14520,11455 15466,10908 15466,12893 14321,13555 14321,11570 14417,11514 14417,11947 Z M 14896,11468 L 14896,11934 14430,11934 14430,11507 14497,11468 14896,11468 Z"/>
     <path fill="rgb(135,135,135)" stroke="none" d="M 14430,11934 L 14896,11934 14896,11468 14497,11468 15466,10908 15466,12893 14321,13555 14321,11570 14430,11507 14430,11934 Z M 14883,11481 L 14883,11921 14443,11921 14443,11499 14475,11481 14883,11481 Z"/>
     <path fill="rgb(136,136,136)" stroke="none" d="M 14443,11921 L 14883,11921 14883,11481 14475,11481 15466,10908 15466,12893 14321,13555 14321,11570 14443,11499 14443,11921 Z M 14456,11494 L 14870,11494 14870,11908 14456,11908 14456,11494 Z"/>
     <path fill="rgb(137,137,137)" stroke="none" d="M 14456,11494 L 14456,11908 14870,11908 14870,11494 14456,11494 Z M 14469,11507 L 14857,11507 14857,11895 14469,11895 14469,11507 Z M 14321,13555 L 14321,11570 15466,10908 15466,12893 14321,13555 Z"/>
     <path fill="rgb(138,138,138)" stroke="none" d="M 14469,11507 L 14469,11895 14857,11895 14857,11507 14469,11507 Z M 14482,11520 L 14844,11520 14844,11882 14482,11882 14482,11520 Z M 14321,13555 L 14321,11570 15466,10908 15466,12893 14321,13555 Z"/>
     <path fill="rgb(139,139,139)" stroke="none" d="M 14482,11520 L 14482,11882 14844,11882 14844,11520 14482,11520 Z M 14495,11533 L 14831,11533 14831,11869 14495,11869 14495,11533 Z M 14321,13555 L 14321,11570 15466,10908 15466,12893 14321,13555 Z"/>
     <path fill="rgb(140,140,140)" stroke="none" d="M 14495,11533 L 14495,11869 14831,11869 14831,11533 14495,11533 Z M 14508,11546 L 14818,11546 14818,11856 14508,11856 14508,11546 Z M 14321,13555 L 14321,11570 15466,10908 15466,12893 14321,13555 Z"/>
     <path fill="rgb(141,141,141)" stroke="none" d="M 14508,11546 L 14508,11856 14818,11856 14818,11546 14508,11546 Z M 14521,11559 L 14805,11559 14805,11843 14521,11843 14521,11559 Z M 14321,13555 L 14321,11570 15466,10908 15466,12893 14321,13555 Z"/>
     <path fill="rgb(142,142,142)" stroke="none" d="M 14521,11559 L 14521,11843 14805,11843 14805,11559 14521,11559 Z M 14534,11572 L 14792,11572 14792,11830 14534,11830 14534,11572 Z M 14321,13555 L 14321,11570 15466,10908 15466,12893 14321,13555 Z"/>
     <path fill="rgb(143,143,143)" stroke="none" d="M 14534,11572 L 14534,11830 14792,11830 14792,11572 14534,11572 Z M 14547,11585 L 14779,11585 14779,11817 14547,11817 14547,11585 Z M 14321,13555 L 14321,11570 15466,10908 15466,12893 14321,13555 Z"/>
     <path fill="rgb(144,144,144)" stroke="none" d="M 14547,11585 L 14547,11817 14779,11817 14779,11585 14547,11585 Z M 14560,11598 L 14766,11598 14766,11804 14560,11804 14560,11598 Z M 14321,13555 L 14321,11570 15466,10908 15466,12893 14321,13555 Z"/>
     <path fill="rgb(145,145,145)" stroke="none" d="M 14560,11598 L 14560,11804 14766,11804 14766,11598 14560,11598 Z M 14573,11611 L 14753,11611 14753,11791 14573,11791 14573,11611 Z M 14321,13555 L 14321,11570 15466,10908 15466,12893 14321,13555 Z"/>
     <path fill="rgb(146,146,146)" stroke="none" d="M 14573,11611 L 14573,11791 14753,11791 14753,11611 14573,11611 Z M 14586,11624 L 14740,11624 14740,11778 14586,11778 14586,11624 Z M 14321,13555 L 14321,11570 15466,10908 15466,12893 14321,13555 Z"/>
     <path fill="rgb(147,147,147)" stroke="none" d="M 14586,11624 L 14586,11778 14740,11778 14740,11624 14586,11624 Z M 14599,11637 L 14727,11637 14727,11765 14599,11765 14599,11637 Z M 14321,13555 L 14321,11570 15466,10908 15466,12893 14321,13555 Z"/>
     <path fill="rgb(148,148,148)" stroke="none" d="M 14599,11637 L 14599,11765 14727,11765 14727,11637 14599,11637 Z M 14612,11650 L 14714,11650 14714,11752 14612,11752 14612,11650 Z M 14321,13555 L 14321,11570 15466,10908 15466,12893 14321,13555 Z"/>
     <path fill="rgb(149,149,149)" stroke="none" d="M 14612,11650 L 14612,11752 14714,11752 14714,11650 14612,11650 Z M 14625,11663 L 14701,11663 14701,11739 14625,11739 14625,11663 Z M 14321,13555 L 14321,11570 15466,10908 15466,12893 14321,13555 Z"/>
     <path fill="rgb(150,150,150)" stroke="none" d="M 14625,11663 L 14625,11739 14701,11739 14701,11663 14625,11663 Z M 14638,11676 L 14688,11676 14688,11726 14638,11726 14638,11676 Z M 14321,13555 L 14321,11570 15466,10908 15466,12893 14321,13555 Z"/>
     <path fill="rgb(151,151,151)" stroke="none" d="M 14638,11676 L 14638,11726 14688,11726 14688,11676 14638,11676 Z M 14651,11689 L 14675,11689 14675,11713 14651,11713 14651,11689 Z M 14321,13555 L 14321,11570 15466,10908 15466,12893 14321,13555 Z"/>
     <path fill="rgb(153,153,153)" stroke="none" d="M 14651,11689 L 14651,11713 14675,11713 14675,11689 14651,11689 Z M 14321,13555 L 14321,11570 15466,10908 15466,12893 14321,13555 Z"/>
     <path fill="none" stroke="rgb(178,178,178)" id="Drawing_2_0" stroke-width="40" stroke-linejoin="round" d="M 14321,13555 L 14321,11570 15466,10908 15466,12893 14321,13555 Z"/>
    </g>
    <g>
     <defs>
      <linearGradient id="Gradient_1205" gradientUnits="userSpaceOnUse" x1="14607" y1="10577" x2="14607" y2="11570">
       <stop offset="0.1" stop-color="rgb(51,51,51)"/>
       <stop offset="1" stop-color="rgb(153,153,153)"/>
      </linearGradient>
     </defs>
     <path fill="url(#Gradient_1205)" stroke="rgb(178,178,178)" id="Drawing_3_0" stroke-width="40" stroke-linejoin="round" d="M 14321,11570 L 13749,11239 14894,10577 15466,10908 14321,11570 Z"/>
    </g>
    <g>
     <defs>
      <linearGradient id="Gradient_1206" gradientUnits="userSpaceOnUse" x1="13747" y1="12396" x2="14323" y2="12398">
       <stop offset="0.1" stop-color="rgb(51,51,51)"/>
       <stop offset="1" stop-color="rgb(153,153,153)"/>
      </linearGradient>
     </defs>
     <path fill="url(#Gradient_1206)" stroke="rgb(178,178,178)" id="Drawing_4_0" stroke-width="40" stroke-linejoin="round" d="M 13749,13224 L 13749,11239 14321,11570 14321,13555 13749,13224 Z"/>
    </g>
    <g>
     <path fill="none" stroke="rgb(0,0,0)" id="Drawing_5_0" stroke-width="40" stroke-linejoin="round" d="M 13749,13224 L 13749,11239 14894,10577 15466,10908 15466,12893 14321,13555 13749,13224 Z"/>
    </g>
    <g>
     <path fill="rgb(0,0,0)" stroke="none" d="M 13863,13092 L 13863,12893 13977,12959 13977,13158 13863,13092 Z"/>
     <path fill="none" stroke="rgb(178,178,178)" id="Drawing_6_0" stroke-width="40" stroke-linejoin="round" d="M 13863,13092 L 13863,12893 13977,12959 13977,13158 13863,13092 Z"/>
    </g>
    <g>
     <path fill="rgb(0,0,0)" stroke="none" d="M 14092,13225 L 14092,13026 14206,13092 14206,13291 14092,13225 Z"/>
     <path fill="none" stroke="rgb(178,178,178)" id="Drawing_7_0" stroke-width="40" stroke-linejoin="round" d="M 14092,13225 L 14092,13026 14206,13092 14206,13291 14092,13225 Z"/>
    </g>
    <g>
     <path fill="rgb(153,255,102)" stroke="none" d="M 13863,12232 L 13863,12033 13977,12099 13977,12298 13863,12232 Z"/>
     <path fill="none" stroke="rgb(51,51,51)" id="Drawing_8_0" stroke-width="40" stroke-linejoin="round" d="M 13863,12232 L 13863,12033 13977,12099 13977,12298 13863,12232 Z"/>
    </g>
    <g>
     <path fill="rgb(255,51,51)" stroke="none" d="M 14092,12364 L 14092,12165 14206,12231 14206,12430 14092,12364 Z"/>
     <path fill="none" stroke="rgb(51,51,51)" id="Drawing_9_0" stroke-width="40" stroke-linejoin="round" d="M 14092,12364 L 14092,12165 14206,12231 14206,12430 14092,12364 Z"/>
    </g>
    <g>
     <defs>
      <linearGradient id="Gradient_1207" gradientUnits="userSpaceOnUse" x1="13976" y1="11835" x2="13978" y2="10180">
       <stop offset="0.1" stop-color="rgb(102,102,102)"/>
       <stop offset="1" stop-color="rgb(153,153,153)"/>
      </linearGradient>
     </defs>
     <path fill="url(#Gradient_1207)" stroke="rgb(0,0,0)" id="Drawing_10_0" stroke-width="40" stroke-linejoin="round" d="M 13863,11768 L 13863,10180 13977,10180 13977,11636 14092,11636 14092,11768 13977,11835 13863,11768 Z"/>
    </g>
   </g>
  </g>
 </g>
</svg>