<?xml version="1.0" encoding="UTF-8"?>

<svg version="1.2" baseProfile="tiny" width="24.91mm" height="34.5mm" viewBox="6267 14329 2491 3450" preserveAspectRatio="xMidYMid" fill-rule="evenodd" stroke-width="28.222" stroke-linejoin="round" xmlns="http://www.w3.org/2000/svg" xmlns:xlink="http://www.w3.org/1999/xlink" xml:space="preserve">
 <g visibility="visible" id="Slide_1">
  <g id="DrawingGroup_1">
   <g>
    <path fill="rgb(221,221,221)" stroke="none" d="M 7777,17779 C 8013,17779 8551,17779 8723,17431 8895,17083 8379,17083 8293,17083 8293,17232 7777,17580 7777,17779 Z"/>
    <path fill="none" stroke="rgb(221,221,221)" id="Drawing_1_0" stroke-linejoin="round" d="M 7777,17779 C 8013,17779 8551,17779 8723,17431 8895,17083 8379,17083 8293,17083 8293,17232 7777,17580 7777,17779 Z"/>
   </g>
   <g id="DrawingGroup_2">
    <g>
     <path fill="rgb(51,51,51)" stroke="none" d="M 8334,17421 L 7178,17421 7175,17382 7296,16338 7363,16331 7434,16327 7583,16328 7881,16331 7948,16328 8009,16320 8065,16307 8090,16299 8113,16289 8134,16277 8152,16264 8168,16248 8182,16231 8193,16212 8201,16190 8205,16166 8207,16139 8334,17057 8334,17421 Z"/>
     <path fill="rgb(52,52,52)" stroke="none" d="M 8334,17421 L 8334,17057 8379,17382 8376,17427 8365,17469 8349,17509 8327,17545 8300,17579 8268,17609 8231,17637 8191,17662 8100,17702 7998,17731 7889,17749 7777,17755 7665,17749 7556,17731 7454,17702 7363,17662 7323,17637 7286,17609 7254,17579 7227,17545 7205,17509 7189,17469 7178,17427 7178,17421 8334,17421 Z M 8324,17411 L 7177,17411 7175,17382 7296,16338 7363,16331 7434,16327 7583,16328 7881,16331 7948,16328 8009,16320 8065,16307 8090,16299 8113,16289 8134,16277 8152,16264 8168,16248 8182,16231 8193,16212 8201,16190 8205,16166 8207,16139 8324,16985 8324,17411 Z"/>
     <path fill="rgb(53,53,53)" stroke="none" d="M 8324,17411 L 8324,16985 8379,17382 8376,17427 8365,17469 8349,17509 8327,17545 8300,17579 8268,17609 8231,17637 8191,17662 8100,17702 7998,17731 7889,17749 7777,17755 7665,17749 7556,17731 7454,17702 7363,17662 7323,17637 7286,17609 7254,17579 7227,17545 7205,17509 7189,17469 7178,17427 7177,17411 8324,17411 Z M 8314,17401 L 7176,17401 7175,17382 7296,16338 7363,16331 7434,16327 7583,16328 7881,16331 7948,16328 8009,16320 8065,16307 8090,16299 8113,16289 8134,16277 8152,16264 8168,16248 8182,16231 8193,16212 8201,16190 8205,16166 8207,16139 8314,16912 8314,17401 Z"/>
     <path fill="rgb(54,54,54)" stroke="none" d="M 8314,17401 L 8314,16912 8379,17382 8376,17427 8365,17469 8349,17509 8327,17545 8300,17579 8268,17609 8231,17637 8191,17662 8100,17702 7998,17731 7889,17749 7777,17755 7665,17749 7556,17731 7454,17702 7363,17662 7323,17637 7286,17609 7254,17579 7227,17545 7205,17509 7189,17469 7178,17427 7176,17401 8314,17401 Z M 8304,17391 L 7176,17391 7175,17382 7296,16338 7363,16331 7434,16327 7583,16328 7881,16331 7948,16328 8009,16320 8065,16307 8090,16299 8113,16289 8134,16277 8152,16264 8168,16248 8182,16231 8193,16212 8201,16190 8205,16166 8207,16139 8304,16840 8304,17391 Z"/>
     <path fill="rgb(56,56,56)" stroke="none" d="M 8304,17391 L 8304,16840 8379,17382 8376,17427 8365,17469 8349,17509 8327,17545 8300,17579 8268,17609 8231,17637 8191,17662 8100,17702 7998,17731 7889,17749 7777,17755 7665,17749 7556,17731 7454,17702 7363,17662 7323,17637 7286,17609 7254,17579 7227,17545 7205,17509 7189,17469 7178,17427 7176,17391 8304,17391 Z M 8294,17381 L 7175,17381 7296,16338 7363,16331 7434,16327 7583,16328 7881,16331 7948,16328 8009,16320 8065,16307 8090,16299 8113,16289 8134,16277 8152,16264 8168,16248 8182,16231 8193,16212 8201,16190 8205,16166 8207,16139 8294,16768 8294,17381 Z"/>
     <path fill="rgb(57,57,57)" stroke="none" d="M 8294,17381 L 8294,16768 8379,17382 8376,17427 8365,17469 8349,17509 8327,17545 8300,17579 8268,17609 8231,17637 8191,17662 8100,17702 7998,17731 7889,17749 7777,17755 7665,17749 7556,17731 7454,17702 7363,17662 7323,17637 7286,17609 7254,17579 7227,17545 7205,17509 7189,17469 7178,17427 7175,17382 7175,17381 8294,17381 Z M 8284,17371 L 7176,17371 7296,16338 7363,16331 7434,16327 7583,16328 7881,16331 7948,16328 8009,16320 8065,16307 8090,16299 8113,16289 8134,16277 8152,16264 8168,16248 8182,16231 8193,16212 8201,16190 8205,16166 8207,16139 8284,16695 8284,17371 Z"/>
     <path fill="rgb(58,58,58)" stroke="none" d="M 8284,17371 L 8284,16695 8379,17382 8376,17427 8365,17469 8349,17509 8327,17545 8300,17579 8268,17609 8231,17637 8191,17662 8100,17702 7998,17731 7889,17749 7777,17755 7665,17749 7556,17731 7454,17702 7363,17662 7323,17637 7286,17609 7254,17579 7227,17545 7205,17509 7189,17469 7178,17427 7175,17382 7176,17371 8284,17371 Z M 8274,17361 L 7177,17361 7296,16338 7363,16331 7434,16327 7583,16328 7881,16331 7948,16328 8009,16320 8065,16307 8090,16299 8113,16289 8134,16277 8152,16264 8168,16248 8182,16231 8193,16212 8201,16190 8205,16166 8207,16139 8274,16623 8274,17361 Z"/>
     <path fill="rgb(59,59,59)" stroke="none" d="M 8274,17361 L 8274,16623 8379,17382 8376,17427 8365,17469 8349,17509 8327,17545 8300,17579 8268,17609 8231,17637 8191,17662 8100,17702 7998,17731 7889,17749 7777,17755 7665,17749 7556,17731 7454,17702 7363,17662 7323,17637 7286,17609 7254,17579 7227,17545 7205,17509 7189,17469 7178,17427 7175,17382 7177,17361 8274,17361 Z M 8264,17351 L 7179,17351 7296,16338 7363,16331 7434,16327 7583,16328 7881,16331 7948,16328 8009,16320 8065,16307 8090,16299 8113,16289 8134,16277 8152,16264 8168,16248 8182,16231 8193,16212 8201,16190 8205,16166 8207,16139 8264,16551 8264,17351 Z"/>
     <path fill="rgb(61,61,61)" stroke="none" d="M 8264,17351 L 8264,16551 8379,17382 8376,17427 8365,17469 8349,17509 8327,17545 8300,17579 8268,17609 8231,17637 8191,17662 8100,17702 7998,17731 7889,17749 7777,17755 7665,17749 7556,17731 7454,17702 7363,17662 7323,17637 7286,17609 7254,17579 7227,17545 7205,17509 7189,17469 7178,17427 7175,17382 7179,17351 8264,17351 Z M 8253,17340 L 7180,17340 7296,16338 7363,16331 7434,16327 7583,16328 7881,16331 7948,16328 8009,16320 8065,16307 8090,16299 8113,16289 8134,16277 8152,16264 8168,16248 8182,16231 8193,16212 8201,16190 8205,16166 8207,16139 8253,16471 8253,17340 Z"/>
     <path fill="rgb(62,62,62)" stroke="none" d="M 8253,17340 L 8253,16471 8379,17382 8376,17427 8365,17469 8349,17509 8327,17545 8300,17579 8268,17609 8231,17637 8191,17662 8100,17702 7998,17731 7889,17749 7777,17755 7665,17749 7556,17731 7454,17702 7363,17662 7323,17637 7286,17609 7254,17579 7227,17545 7205,17509 7189,17469 7178,17427 7175,17382 7180,17340 8253,17340 Z M 8243,17330 L 7181,17330 7296,16338 7363,16331 7434,16327 7583,16328 7881,16331 7948,16328 8009,16320 8065,16307 8090,16299 8113,16289 8134,16277 8152,16264 8168,16248 8182,16231 8193,16212 8201,16190 8205,16166 8207,16139 8243,16399 8243,17330 Z"/>
     <path fill="rgb(63,63,63)" stroke="none" d="M 8243,17330 L 8243,16399 8379,17382 8376,17427 8365,17469 8349,17509 8327,17545 8300,17579 8268,17609 8231,17637 8191,17662 8100,17702 7998,17731 7889,17749 7777,17755 7665,17749 7556,17731 7454,17702 7363,17662 7323,17637 7286,17609 7254,17579 7227,17545 7205,17509 7189,17469 7178,17427 7175,17382 7181,17330 8243,17330 Z M 8233,17320 L 7182,17320 7296,16338 7363,16331 7434,16327 7583,16328 7881,16331 7948,16328 8009,16320 8065,16307 8090,16299 8113,16289 8134,16277 8152,16264 8168,16248 8182,16231 8193,16212 8201,16190 8205,16166 8207,16139 8233,16327 8233,17320 Z"/>
     <path fill="rgb(65,65,65)" stroke="none" d="M 8233,17320 L 8233,16327 8379,17382 8376,17427 8365,17469 8349,17509 8327,17545 8300,17579 8268,17609 8231,17637 8191,17662 8100,17702 7998,17731 7889,17749 7777,17755 7665,17749 7556,17731 7454,17702 7363,17662 7323,17637 7286,17609 7254,17579 7227,17545 7205,17509 7189,17469 7178,17427 7175,17382 7182,17320 8233,17320 Z M 8223,17310 L 7183,17310 7296,16338 7363,16331 7434,16327 7583,16328 7881,16331 7948,16328 8009,16320 8065,16307 8090,16299 8113,16289 8134,16277 8152,16264 8168,16248 8182,16231 8193,16212 8201,16190 8205,16166 8207,16139 8223,16255 8223,17310 Z"/>
     <path fill="rgb(66,66,66)" stroke="none" d="M 8223,17310 L 8223,16255 8379,17382 8376,17427 8365,17469 8349,17509 8327,17545 8300,17579 8268,17609 8231,17637 8191,17662 8100,17702 7998,17731 7889,17749 7777,17755 7665,17749 7556,17731 7454,17702 7363,17662 7323,17637 7286,17609 7254,17579 7227,17545 7205,17509 7189,17469 7178,17427 7175,17382 7183,17310 8223,17310 Z M 8213,17300 L 7185,17300 7296,16338 7363,16331 7434,16327 7583,16328 7881,16331 7948,16328 8009,16320 8065,16307 8090,16299 8113,16289 8134,16277 8152,16264 8168,16248 8182,16231 8193,16212 8201,16190 8205,16166 8207,16139 8213,16182 8213,17300 Z"/>
     <path fill="rgb(67,67,67)" stroke="none" d="M 8213,17300 L 8213,16182 8379,17382 8376,17427 8365,17469 8349,17509 8327,17545 8300,17579 8268,17609 8231,17637 8191,17662 8100,17702 7998,17731 7889,17749 7777,17755 7665,17749 7556,17731 7454,17702 7363,17662 7323,17637 7286,17609 7254,17579 7227,17545 7205,17509 7189,17469 7178,17427 7175,17382 7185,17300 8213,17300 Z M 8203,17290 L 7186,17290 7296,16338 7363,16331 7434,16327 7583,16328 7881,16331 7948,16328 8009,16320 8065,16307 8090,16299 8113,16289 8134,16277 8152,16264 8168,16248 8182,16231 8193,16212 8201,16190 8203,16178 8203,17290 Z"/>
     <path fill="rgb(68,68,68)" stroke="none" d="M 8203,17290 L 8203,16178 8205,16166 8207,16139 8379,17382 8376,17427 8365,17469 8349,17509 8327,17545 8300,17579 8268,17609 8231,17637 8191,17662 8100,17702 7998,17731 7889,17749 7777,17755 7665,17749 7556,17731 7454,17702 7363,17662 7323,17637 7286,17609 7254,17579 7227,17545 7205,17509 7189,17469 7178,17427 7175,17382 7186,17290 8203,17290 Z M 8193,17280 L 7187,17280 7296,16338 7363,16331 7434,16327 7583,16328 7881,16331 7948,16328 8009,16320 8065,16307 8090,16299 8113,16289 8134,16277 8152,16264 8168,16248 8182,16231 8193,16212 8193,17280 Z"/>
     <path fill="rgb(70,70,70)" stroke="none" d="M 8193,17280 L 8193,16212 8201,16190 8205,16166 8207,16139 8379,17382 8376,17427 8365,17469 8349,17509 8327,17545 8300,17579 8268,17609 8231,17637 8191,17662 8100,17702 7998,17731 7889,17749 7777,17755 7665,17749 7556,17731 7454,17702 7363,17662 7323,17637 7286,17609 7254,17579 7227,17545 7205,17509 7189,17469 7178,17427 7175,17382 7187,17280 8193,17280 Z M 8183,17270 L 7188,17270 7296,16338 7363,16331 7434,16327 7583,16328 7881,16331 7948,16328 8009,16320 8065,16307 8090,16299 8113,16289 8134,16277 8152,16264 8168,16248 8182,16231 8183,16229 8183,17270 Z"/>
     <path fill="rgb(71,71,71)" stroke="none" d="M 8183,17270 L 8183,16229 8193,16212 8201,16190 8205,16166 8207,16139 8379,17382 8376,17427 8365,17469 8349,17509 8327,17545 8300,17579 8268,17609 8231,17637 8191,17662 8100,17702 7998,17731 7889,17749 7777,17755 7665,17749 7556,17731 7454,17702 7363,17662 7323,17637 7286,17609 7254,17579 7227,17545 7205,17509 7189,17469 7178,17427 7175,17382 7188,17270 8183,17270 Z M 8172,17259 L 7189,17259 7296,16338 7363,16331 7434,16327 7583,16328 7881,16331 7948,16328 8009,16320 8065,16307 8090,16299 8113,16289 8134,16277 8152,16264 8168,16248 8172,16243 8172,17259 Z"/>
     <path fill="rgb(72,72,72)" stroke="none" d="M 8172,17259 L 8172,16243 8182,16231 8193,16212 8201,16190 8205,16166 8207,16139 8379,17382 8376,17427 8365,17469 8349,17509 8327,17545 8300,17579 8268,17609 8231,17637 8191,17662 8100,17702 7998,17731 7889,17749 7777,17755 7665,17749 7556,17731 7454,17702 7363,17662 7323,17637 7286,17609 7254,17579 7227,17545 7205,17509 7189,17469 7178,17427 7175,17382 7189,17259 8172,17259 Z M 8162,17249 L 7190,17249 7296,16338 7363,16331 7434,16327 7583,16328 7881,16331 7948,16328 8009,16320 8065,16307 8090,16299 8113,16289 8134,16277 8152,16264 8162,16254 8162,17249 Z"/>
     <path fill="rgb(73,73,73)" stroke="none" d="M 8162,17249 L 8162,16254 8168,16248 8182,16231 8193,16212 8201,16190 8205,16166 8207,16139 8379,17382 8376,17427 8365,17469 8349,17509 8327,17545 8300,17579 8268,17609 8231,17637 8191,17662 8100,17702 7998,17731 7889,17749 7777,17755 7665,17749 7556,17731 7454,17702 7363,17662 7323,17637 7286,17609 7254,17579 7227,17545 7205,17509 7189,17469 7178,17427 7175,17382 7190,17249 8162,17249 Z M 8152,17239 L 7192,17239 7296,16338 7363,16331 7434,16327 7583,16328 7881,16331 7948,16328 8009,16320 8065,16307 8090,16299 8113,16289 8134,16277 8152,16264 8152,17239 Z"/>
     <path fill="rgb(75,75,75)" stroke="none" d="M 8152,17239 L 8152,16264 8168,16248 8182,16231 8193,16212 8201,16190 8205,16166 8207,16139 8379,17382 8376,17427 8365,17469 8349,17509 8327,17545 8300,17579 8268,17609 8231,17637 8191,17662 8100,17702 7998,17731 7889,17749 7777,17755 7665,17749 7556,17731 7454,17702 7363,17662 7323,17637 7286,17609 7254,17579 7227,17545 7205,17509 7189,17469 7178,17427 7175,17382 7192,17239 8152,17239 Z M 8142,17229 L 7193,17229 7296,16338 7363,16331 7434,16327 7583,16328 7881,16331 7948,16328 8009,16320 8065,16307 8090,16299 8113,16289 8134,16277 8142,16271 8142,17229 Z"/>
     <path fill="rgb(76,76,76)" stroke="none" d="M 8142,17229 L 8142,16271 8152,16264 8168,16248 8182,16231 8193,16212 8201,16190 8205,16166 8207,16139 8379,17382 8376,17427 8365,17469 8349,17509 8327,17545 8300,17579 8268,17609 8231,17637 8191,17662 8100,17702 7998,17731 7889,17749 7777,17755 7665,17749 7556,17731 7454,17702 7363,17662 7323,17637 7286,17609 7254,17579 7227,17545 7205,17509 7189,17469 7178,17427 7175,17382 7193,17229 8142,17229 Z M 8132,17219 L 7194,17219 7296,16338 7363,16331 7434,16327 7583,16328 7881,16331 7948,16328 8009,16320 8065,16307 8090,16299 8113,16289 8132,16278 8132,17219 Z"/>
     <path fill="rgb(77,77,77)" stroke="none" d="M 8132,17219 L 8132,16278 8134,16277 8152,16264 8168,16248 8182,16231 8193,16212 8201,16190 8205,16166 8207,16139 8379,17382 8376,17427 8365,17469 8349,17509 8327,17545 8300,17579 8268,17609 8231,17637 8191,17662 8100,17702 7998,17731 7889,17749 7777,17755 7665,17749 7556,17731 7454,17702 7363,17662 7323,17637 7286,17609 7254,17579 7227,17545 7205,17509 7189,17469 7178,17427 7175,17382 7194,17219 8132,17219 Z M 8122,17209 L 7195,17209 7296,16338 7363,16331 7434,16327 7583,16328 7881,16331 7948,16328 8009,16320 8065,16307 8090,16299 8113,16289 8122,16284 8122,17209 Z"/>
     <path fill="rgb(79,79,79)" stroke="none" d="M 8122,17209 L 8122,16284 8134,16277 8152,16264 8168,16248 8182,16231 8193,16212 8201,16190 8205,16166 8207,16139 8379,17382 8376,17427 8365,17469 8349,17509 8327,17545 8300,17579 8268,17609 8231,17637 8191,17662 8100,17702 7998,17731 7889,17749 7777,17755 7665,17749 7556,17731 7454,17702 7363,17662 7323,17637 7286,17609 7254,17579 7227,17545 7205,17509 7189,17469 7178,17427 7175,17382 7195,17209 8122,17209 Z M 8112,17199 L 7196,17199 7296,16338 7363,16331 7434,16327 7583,16328 7881,16331 7948,16328 8009,16320 8065,16307 8090,16299 8112,16289 8112,17199 Z"/>
     <path fill="rgb(80,80,80)" stroke="none" d="M 8112,17199 L 8112,16289 8113,16289 8134,16277 8152,16264 8168,16248 8182,16231 8193,16212 8201,16190 8205,16166 8207,16139 8379,17382 8376,17427 8365,17469 8349,17509 8327,17545 8300,17579 8268,17609 8231,17637 8191,17662 8100,17702 7998,17731 7889,17749 7777,17755 7665,17749 7556,17731 7454,17702 7363,17662 7323,17637 7286,17609 7254,17579 7227,17545 7205,17509 7189,17469 7178,17427 7175,17382 7196,17199 8112,17199 Z M 8102,17189 L 7197,17189 7296,16338 7363,16331 7434,16327 7583,16328 7881,16331 7948,16328 8009,16320 8065,16307 8090,16299 8102,16294 8102,17189 Z"/>
     <path fill="rgb(81,81,81)" stroke="none" d="M 8102,17189 L 8102,16294 8113,16289 8134,16277 8152,16264 8168,16248 8182,16231 8193,16212 8201,16190 8205,16166 8207,16139 8379,17382 8376,17427 8365,17469 8349,17509 8327,17545 8300,17579 8268,17609 8231,17637 8191,17662 8100,17702 7998,17731 7889,17749 7777,17755 7665,17749 7556,17731 7454,17702 7363,17662 7323,17637 7286,17609 7254,17579 7227,17545 7205,17509 7189,17469 7178,17427 7175,17382 7197,17189 8102,17189 Z M 8092,17179 L 7199,17179 7296,16338 7363,16331 7434,16327 7583,16328 7881,16331 7948,16328 8009,16320 8065,16307 8090,16299 8092,16298 8092,17179 Z"/>
     <path fill="rgb(82,82,82)" stroke="none" d="M 8092,17179 L 8092,16298 8113,16289 8134,16277 8152,16264 8168,16248 8182,16231 8193,16212 8201,16190 8205,16166 8207,16139 8379,17382 8376,17427 8365,17469 8349,17509 8327,17545 8300,17579 8268,17609 8231,17637 8191,17662 8100,17702 7998,17731 7889,17749 7777,17755 7665,17749 7556,17731 7454,17702 7363,17662 7323,17637 7286,17609 7254,17579 7227,17545 7205,17509 7189,17469 7178,17427 7175,17382 7199,17179 8092,17179 Z M 8081,17168 L 7200,17168 7296,16338 7363,16331 7434,16327 7583,16328 7881,16331 7948,16328 8009,16320 8065,16307 8081,16302 8081,17168 Z"/>
     <path fill="rgb(84,84,84)" stroke="none" d="M 8081,17168 L 8081,16302 8090,16299 8113,16289 8134,16277 8152,16264 8168,16248 8182,16231 8193,16212 8201,16190 8205,16166 8207,16139 8379,17382 8376,17427 8365,17469 8349,17509 8327,17545 8300,17579 8268,17609 8231,17637 8191,17662 8100,17702 7998,17731 7889,17749 7777,17755 7665,17749 7556,17731 7454,17702 7363,17662 7323,17637 7286,17609 7254,17579 7227,17545 7205,17509 7189,17469 7178,17427 7175,17382 7200,17168 8081,17168 Z M 8071,17158 L 7201,17158 7296,16338 7363,16331 7434,16327 7583,16328 7881,16331 7948,16328 8009,16320 8065,16307 8071,16305 8071,17158 Z"/>
     <path fill="rgb(85,85,85)" stroke="none" d="M 8071,17158 L 8071,16305 8090,16299 8113,16289 8134,16277 8152,16264 8168,16248 8182,16231 8193,16212 8201,16190 8205,16166 8207,16139 8379,17382 8376,17427 8365,17469 8349,17509 8327,17545 8300,17579 8268,17609 8231,17637 8191,17662 8100,17702 7998,17731 7889,17749 7777,17755 7665,17749 7556,17731 7454,17702 7363,17662 7323,17637 7286,17609 7254,17579 7227,17545 7205,17509 7189,17469 7178,17427 7175,17382 7201,17158 8071,17158 Z M 8061,17148 L 7202,17148 7296,16338 7363,16331 7434,16327 7583,16328 7881,16331 7948,16328 8009,16320 8061,16308 8061,17148 Z"/>
     <path fill="rgb(86,86,86)" stroke="none" d="M 8061,17148 L 8061,16308 8065,16307 8090,16299 8113,16289 8134,16277 8152,16264 8168,16248 8182,16231 8193,16212 8201,16190 8205,16166 8207,16139 8379,17382 8376,17427 8365,17469 8349,17509 8327,17545 8300,17579 8268,17609 8231,17637 8191,17662 8100,17702 7998,17731 7889,17749 7777,17755 7665,17749 7556,17731 7454,17702 7363,17662 7323,17637 7286,17609 7254,17579 7227,17545 7205,17509 7189,17469 7178,17427 7175,17382 7202,17148 8061,17148 Z M 8051,17138 L 7203,17138 7296,16338 7363,16331 7434,16327 7583,16328 7881,16331 7948,16328 8009,16320 8051,16310 8051,17138 Z"/>
     <path fill="rgb(87,87,87)" stroke="none" d="M 8051,17138 L 8051,16310 8065,16307 8090,16299 8113,16289 8134,16277 8152,16264 8168,16248 8182,16231 8193,16212 8201,16190 8205,16166 8207,16139 8379,17382 8376,17427 8365,17469 8349,17509 8327,17545 8300,17579 8268,17609 8231,17637 8191,17662 8100,17702 7998,17731 7889,17749 7777,17755 7665,17749 7556,17731 7454,17702 7363,17662 7323,17637 7286,17609 7254,17579 7227,17545 7205,17509 7189,17469 7178,17427 7175,17382 7203,17138 8051,17138 Z M 8041,17128 L 7204,17128 7296,16338 7363,16331 7434,16327 7583,16328 7881,16331 7948,16328 8009,16320 8041,16313 8041,17128 Z"/>
     <path fill="rgb(89,89,89)" stroke="none" d="M 8041,17128 L 8041,16313 8065,16307 8090,16299 8113,16289 8134,16277 8152,16264 8168,16248 8182,16231 8193,16212 8201,16190 8205,16166 8207,16139 8379,17382 8376,17427 8365,17469 8349,17509 8327,17545 8300,17579 8268,17609 8231,17637 8191,17662 8100,17702 7998,17731 7889,17749 7777,17755 7665,17749 7556,17731 7454,17702 7363,17662 7323,17637 7286,17609 7254,17579 7227,17545 7205,17509 7189,17469 7178,17427 7175,17382 7204,17128 8041,17128 Z M 8031,17118 L 7206,17118 7296,16338 7363,16331 7434,16327 7583,16328 7881,16331 7948,16328 8009,16320 8031,16315 8031,17118 Z"/>
     <path fill="rgb(90,90,90)" stroke="none" d="M 8031,17118 L 8031,16315 8065,16307 8090,16299 8113,16289 8134,16277 8152,16264 8168,16248 8182,16231 8193,16212 8201,16190 8205,16166 8207,16139 8379,17382 8376,17427 8365,17469 8349,17509 8327,17545 8300,17579 8268,17609 8231,17637 8191,17662 8100,17702 7998,17731 7889,17749 7777,17755 7665,17749 7556,17731 7454,17702 7363,17662 7323,17637 7286,17609 7254,17579 7227,17545 7205,17509 7189,17469 7178,17427 7175,17382 7206,17118 8031,17118 Z M 8021,17108 L 7207,17108 7296,16338 7363,16331 7434,16327 7583,16328 7881,16331 7948,16328 8009,16320 8021,16317 8021,17108 Z"/>
     <path fill="rgb(91,91,91)" stroke="none" d="M 8021,17108 L 8021,16317 8065,16307 8090,16299 8113,16289 8134,16277 8152,16264 8168,16248 8182,16231 8193,16212 8201,16190 8205,16166 8207,16139 8379,17382 8376,17427 8365,17469 8349,17509 8327,17545 8300,17579 8268,17609 8231,17637 8191,17662 8100,17702 7998,17731 7889,17749 7777,17755 7665,17749 7556,17731 7454,17702 7363,17662 7323,17637 7286,17609 7254,17579 7227,17545 7205,17509 7189,17469 7178,17427 7175,17382 7207,17108 8021,17108 Z M 8011,17098 L 7208,17098 7296,16338 7363,16331 7434,16327 7583,16328 7881,16331 7948,16328 8009,16320 8011,16320 8011,17098 Z"/>
     <path fill="rgb(93,93,93)" stroke="none" d="M 8011,17098 L 8011,16320 8065,16307 8090,16299 8113,16289 8134,16277 8152,16264 8168,16248 8182,16231 8193,16212 8201,16190 8205,16166 8207,16139 8379,17382 8376,17427 8365,17469 8349,17509 8327,17545 8300,17579 8268,17609 8231,17637 8191,17662 8100,17702 7998,17731 7889,17749 7777,17755 7665,17749 7556,17731 7454,17702 7363,17662 7323,17637 7286,17609 7254,17579 7227,17545 7205,17509 7189,17469 7178,17427 7175,17382 7208,17098 8011,17098 Z M 8000,17087 L 7209,17087 7296,16338 7363,16331 7434,16327 7583,16328 7881,16331 7948,16328 8000,16321 8000,17087 Z"/>
     <path fill="rgb(94,94,94)" stroke="none" d="M 8000,17087 L 8000,16321 8009,16320 8065,16307 8090,16299 8113,16289 8134,16277 8152,16264 8168,16248 8182,16231 8193,16212 8201,16190 8205,16166 8207,16139 8379,17382 8376,17427 8365,17469 8349,17509 8327,17545 8300,17579 8268,17609 8231,17637 8191,17662 8100,17702 7998,17731 7889,17749 7777,17755 7665,17749 7556,17731 7454,17702 7363,17662 7323,17637 7286,17609 7254,17579 7227,17545 7205,17509 7189,17469 7178,17427 7175,17382 7209,17087 8000,17087 Z M 7990,17077 L 7210,17077 7296,16338 7363,16331 7434,16327 7583,16328 7881,16331 7948,16328 7990,16322 7990,17077 Z"/>
     <path fill="rgb(95,95,95)" stroke="none" d="M 7990,17077 L 7990,16322 8009,16320 8065,16307 8090,16299 8113,16289 8134,16277 8152,16264 8168,16248 8182,16231 8193,16212 8201,16190 8205,16166 8207,16139 8379,17382 8376,17427 8365,17469 8349,17509 8327,17545 8300,17579 8268,17609 8231,17637 8191,17662 8100,17702 7998,17731 7889,17749 7777,17755 7665,17749 7556,17731 7454,17702 7363,17662 7323,17637 7286,17609 7254,17579 7227,17545 7205,17509 7189,17469 7178,17427 7175,17382 7210,17077 7990,17077 Z M 7980,17067 L 7212,17067 7296,16338 7363,16331 7434,16327 7583,16328 7881,16331 7948,16328 7980,16324 7980,17067 Z"/>
     <path fill="rgb(96,96,96)" stroke="none" d="M 7980,17067 L 7980,16324 8009,16320 8065,16307 8090,16299 8113,16289 8134,16277 8152,16264 8168,16248 8182,16231 8193,16212 8201,16190 8205,16166 8207,16139 8379,17382 8376,17427 8365,17469 8349,17509 8327,17545 8300,17579 8268,17609 8231,17637 8191,17662 8100,17702 7998,17731 7889,17749 7777,17755 7665,17749 7556,17731 7454,17702 7363,17662 7323,17637 7286,17609 7254,17579 7227,17545 7205,17509 7189,17469 7178,17427 7175,17382 7212,17067 7980,17067 Z M 7970,17057 L 7213,17057 7296,16338 7363,16331 7434,16327 7583,16328 7881,16331 7948,16328 7970,16325 7970,17057 Z"/>
     <path fill="rgb(98,98,98)" stroke="none" d="M 7970,17057 L 7970,16325 8009,16320 8065,16307 8090,16299 8113,16289 8134,16277 8152,16264 8168,16248 8182,16231 8193,16212 8201,16190 8205,16166 8207,16139 8379,17382 8376,17427 8365,17469 8349,17509 8327,17545 8300,17579 8268,17609 8231,17637 8191,17662 8100,17702 7998,17731 7889,17749 7777,17755 7665,17749 7556,17731 7454,17702 7363,17662 7323,17637 7286,17609 7254,17579 7227,17545 7205,17509 7189,17469 7178,17427 7175,17382 7213,17057 7970,17057 Z M 7960,17047 L 7214,17047 7296,16338 7363,16331 7434,16327 7583,16328 7881,16331 7948,16328 7960,16326 7960,17047 Z"/>
     <path fill="rgb(99,99,99)" stroke="none" d="M 7960,17047 L 7960,16326 8009,16320 8065,16307 8090,16299 8113,16289 8134,16277 8152,16264 8168,16248 8182,16231 8193,16212 8201,16190 8205,16166 8207,16139 8379,17382 8376,17427 8365,17469 8349,17509 8327,17545 8300,17579 8268,17609 8231,17637 8191,17662 8100,17702 7998,17731 7889,17749 7777,17755 7665,17749 7556,17731 7454,17702 7363,17662 7323,17637 7286,17609 7254,17579 7227,17545 7205,17509 7189,17469 7178,17427 7175,17382 7214,17047 7960,17047 Z M 7950,17037 L 7215,17037 7296,16338 7363,16331 7434,16327 7583,16328 7881,16331 7948,16328 7950,16328 7950,17037 Z"/>
     <path fill="rgb(100,100,100)" stroke="none" d="M 7950,17037 L 7950,16328 8009,16320 8065,16307 8090,16299 8113,16289 8134,16277 8152,16264 8168,16248 8182,16231 8193,16212 8201,16190 8205,16166 8207,16139 8379,17382 8376,17427 8365,17469 8349,17509 8327,17545 8300,17579 8268,17609 8231,17637 8191,17662 8100,17702 7998,17731 7889,17749 7777,17755 7665,17749 7556,17731 7454,17702 7363,17662 7323,17637 7286,17609 7254,17579 7227,17545 7205,17509 7189,17469 7178,17427 7175,17382 7215,17037 7950,17037 Z M 7940,17027 L 7216,17027 7296,16338 7363,16331 7434,16327 7583,16328 7881,16331 7940,16328 7940,17027 Z"/>
     <path fill="rgb(102,102,102)" stroke="none" d="M 7940,17027 L 7940,16328 7948,16328 8009,16320 8065,16307 8090,16299 8113,16289 8134,16277 8152,16264 8168,16248 8182,16231 8193,16212 8201,16190 8205,16166 8207,16139 8379,17382 8376,17427 8365,17469 8349,17509 8327,17545 8300,17579 8268,17609 8231,17637 8191,17662 8100,17702 7998,17731 7889,17749 7777,17755 7665,17749 7556,17731 7454,17702 7363,17662 7323,17637 7286,17609 7254,17579 7227,17545 7205,17509 7189,17469 7178,17427 7175,17382 7216,17027 7940,17027 Z M 7930,17017 L 7217,17017 7296,16338 7363,16331 7434,16327 7583,16328 7881,16331 7930,16329 7930,17017 Z"/>
     <path fill="rgb(103,103,103)" stroke="none" d="M 7930,17017 L 7930,16329 7948,16328 8009,16320 8065,16307 8090,16299 8113,16289 8134,16277 8152,16264 8168,16248 8182,16231 8193,16212 8201,16190 8205,16166 8207,16139 8379,17382 8376,17427 8365,17469 8349,17509 8327,17545 8300,17579 8268,17609 8231,17637 8191,17662 8100,17702 7998,17731 7889,17749 7777,17755 7665,17749 7556,17731 7454,17702 7363,17662 7323,17637 7286,17609 7254,17579 7227,17545 7205,17509 7189,17469 7178,17427 7175,17382 7217,17017 7930,17017 Z M 7920,17007 L 7218,17007 7296,16338 7363,16331 7434,16327 7583,16328 7881,16331 7920,16329 7920,17007 Z"/>
     <path fill="rgb(104,104,104)" stroke="none" d="M 7920,17007 L 7920,16329 7948,16328 8009,16320 8065,16307 8090,16299 8113,16289 8134,16277 8152,16264 8168,16248 8182,16231 8193,16212 8201,16190 8205,16166 8207,16139 8379,17382 8376,17427 8365,17469 8349,17509 8327,17545 8300,17579 8268,17609 8231,17637 8191,17662 8100,17702 7998,17731 7889,17749 7777,17755 7665,17749 7556,17731 7454,17702 7363,17662 7323,17637 7286,17609 7254,17579 7227,17545 7205,17509 7189,17469 7178,17427 7175,17382 7218,17007 7920,17007 Z M 7909,16996 L 7220,16996 7296,16338 7363,16331 7434,16327 7583,16328 7881,16331 7909,16330 7909,16996 Z"/>
     <path fill="rgb(105,105,105)" stroke="none" d="M 7909,16996 L 7909,16330 7948,16328 8009,16320 8065,16307 8090,16299 8113,16289 8134,16277 8152,16264 8168,16248 8182,16231 8193,16212 8201,16190 8205,16166 8207,16139 8379,17382 8376,17427 8365,17469 8349,17509 8327,17545 8300,17579 8268,17609 8231,17637 8191,17662 8100,17702 7998,17731 7889,17749 7777,17755 7665,17749 7556,17731 7454,17702 7363,17662 7323,17637 7286,17609 7254,17579 7227,17545 7205,17509 7189,17469 7178,17427 7175,17382 7220,16996 7909,16996 Z M 7899,16986 L 7221,16986 7296,16338 7363,16331 7434,16327 7583,16328 7881,16331 7899,16330 7899,16986 Z"/>
     <path fill="rgb(107,107,107)" stroke="none" d="M 7899,16986 L 7899,16330 7948,16328 8009,16320 8065,16307 8090,16299 8113,16289 8134,16277 8152,16264 8168,16248 8182,16231 8193,16212 8201,16190 8205,16166 8207,16139 8379,17382 8376,17427 8365,17469 8349,17509 8327,17545 8300,17579 8268,17609 8231,17637 8191,17662 8100,17702 7998,17731 7889,17749 7777,17755 7665,17749 7556,17731 7454,17702 7363,17662 7323,17637 7286,17609 7254,17579 7227,17545 7205,17509 7189,17469 7178,17427 7175,17382 7221,16986 7899,16986 Z M 7889,16976 L 7222,16976 7296,16338 7363,16331 7434,16327 7583,16328 7881,16331 7889,16331 7889,16976 Z"/>
     <path fill="rgb(108,108,108)" stroke="none" d="M 7889,16976 L 7889,16331 7948,16328 8009,16320 8065,16307 8090,16299 8113,16289 8134,16277 8152,16264 8168,16248 8182,16231 8193,16212 8201,16190 8205,16166 8207,16139 8379,17382 8376,17427 8365,17469 8349,17509 8327,17545 8300,17579 8268,17609 8231,17637 8191,17662 8100,17702 7998,17731 7889,17749 7777,17755 7665,17749 7556,17731 7454,17702 7363,17662 7323,17637 7286,17609 7254,17579 7227,17545 7205,17509 7189,17469 7178,17427 7175,17382 7222,16976 7889,16976 Z M 7879,16966 L 7223,16966 7296,16338 7363,16331 7434,16327 7583,16328 7879,16331 7879,16966 Z"/>
     <path fill="rgb(109,109,109)" stroke="none" d="M 7879,16966 L 7879,16331 7881,16331 7948,16328 8009,16320 8065,16307 8090,16299 8113,16289 8134,16277 8152,16264 8168,16248 8182,16231 8193,16212 8201,16190 8205,16166 8207,16139 8379,17382 8376,17427 8365,17469 8349,17509 8327,17545 8300,17579 8268,17609 8231,17637 8191,17662 8100,17702 7998,17731 7889,17749 7777,17755 7665,17749 7556,17731 7454,17702 7363,17662 7323,17637 7286,17609 7254,17579 7227,17545 7205,17509 7189,17469 7178,17427 7175,17382 7223,16966 7879,16966 Z M 7869,16956 L 7224,16956 7296,16338 7363,16331 7434,16327 7583,16328 7869,16331 7869,16956 Z"/>
     <path fill="rgb(110,110,110)" stroke="none" d="M 7869,16956 L 7869,16331 7881,16331 7948,16328 8009,16320 8065,16307 8090,16299 8113,16289 8134,16277 8152,16264 8168,16248 8182,16231 8193,16212 8201,16190 8205,16166 8207,16139 8379,17382 8376,17427 8365,17469 8349,17509 8327,17545 8300,17579 8268,17609 8231,17637 8191,17662 8100,17702 7998,17731 7889,17749 7777,17755 7665,17749 7556,17731 7454,17702 7363,17662 7323,17637 7286,17609 7254,17579 7227,17545 7205,17509 7189,17469 7178,17427 7175,17382 7224,16956 7869,16956 Z M 7859,16946 L 7226,16946 7296,16338 7363,16331 7434,16327 7583,16328 7859,16331 7859,16946 Z"/>
     <path fill="rgb(112,112,112)" stroke="none" d="M 7859,16946 L 7859,16331 7881,16331 7948,16328 8009,16320 8065,16307 8090,16299 8113,16289 8134,16277 8152,16264 8168,16248 8182,16231 8193,16212 8201,16190 8205,16166 8207,16139 8379,17382 8376,17427 8365,17469 8349,17509 8327,17545 8300,17579 8268,17609 8231,17637 8191,17662 8100,17702 7998,17731 7889,17749 7777,17755 7665,17749 7556,17731 7454,17702 7363,17662 7323,17637 7286,17609 7254,17579 7227,17545 7205,17509 7189,17469 7178,17427 7175,17382 7226,16946 7859,16946 Z M 7849,16936 L 7227,16936 7296,16338 7363,16331 7434,16327 7583,16328 7849,16331 7849,16936 Z"/>
     <path fill="rgb(113,113,113)" stroke="none" d="M 7849,16936 L 7849,16331 7881,16331 7948,16328 8009,16320 8065,16307 8090,16299 8113,16289 8134,16277 8152,16264 8168,16248 8182,16231 8193,16212 8201,16190 8205,16166 8207,16139 8379,17382 8376,17427 8365,17469 8349,17509 8327,17545 8300,17579 8268,17609 8231,17637 8191,17662 8100,17702 7998,17731 7889,17749 7777,17755 7665,17749 7556,17731 7454,17702 7363,17662 7323,17637 7286,17609 7254,17579 7227,17545 7205,17509 7189,17469 7178,17427 7175,17382 7227,16936 7849,16936 Z M 7839,16926 L 7232,16926 7232,16890 7296,16338 7363,16331 7434,16327 7583,16328 7839,16331 7839,16926 Z"/>
     <path fill="rgb(114,114,114)" stroke="none" d="M 7232,16926 L 7839,16926 7839,16331 7881,16331 7948,16328 8009,16320 8065,16307 8090,16299 8113,16289 8134,16277 8152,16264 8168,16248 8182,16231 8193,16212 8201,16190 8205,16166 8207,16139 8379,17382 8376,17427 8365,17469 8349,17509 8327,17545 8300,17579 8268,17609 8231,17637 8191,17662 8100,17702 7998,17731 7889,17749 7777,17755 7665,17749 7556,17731 7454,17702 7363,17662 7323,17637 7286,17609 7254,17579 7227,17545 7205,17509 7189,17469 7178,17427 7175,17382 7232,16890 7232,16926 Z M 7782,16330 L 7828,16330 7828,16915 7243,16915 7243,16795 7296,16338 7363,16331 7381,16330 7782,16330 Z"/>
     <path fill="rgb(116,116,116)" stroke="none" d="M 7243,16915 L 7828,16915 7828,16330 7881,16331 7948,16328 8009,16320 8065,16307 8090,16299 8113,16289 8134,16277 8152,16264 8168,16248 8182,16231 8193,16212 8201,16190 8205,16166 8207,16139 8379,17382 8376,17427 8365,17469 8349,17509 8327,17545 8300,17579 8268,17609 8231,17637 8191,17662 8100,17702 7998,17731 7889,17749 7777,17755 7665,17749 7556,17731 7454,17702 7363,17662 7323,17637 7286,17609 7254,17579 7227,17545 7205,17509 7189,17469 7178,17427 7175,17382 7243,16795 7243,16915 Z M 7381,16330 L 7434,16327 7583,16328 7782,16330 7381,16330 Z M 7818,16340 L 7818,16905 7253,16905 7253,16709 7296,16340 7818,16340 Z"/>
     <path fill="rgb(117,117,117)" stroke="none" d="M 7253,16905 L 7818,16905 7818,16340 7296,16340 7296,16338 7363,16331 7434,16327 7583,16328 7881,16331 7948,16328 8009,16320 8065,16307 8090,16299 8113,16289 8134,16277 8152,16264 8168,16248 8182,16231 8193,16212 8201,16190 8205,16166 8207,16139 8379,17382 8376,17427 8365,17469 8349,17509 8327,17545 8300,17579 8268,17609 8231,17637 8191,17662 8100,17702 7998,17731 7889,17749 7777,17755 7665,17749 7556,17731 7454,17702 7363,17662 7323,17637 7286,17609 7254,17579 7227,17545 7205,17509 7189,17469 7178,17427 7175,17382 7253,16709 7253,16905 Z M 7808,16350 L 7808,16895 7263,16895 7263,16623 7295,16350 7808,16350 Z"/>
     <path fill="rgb(118,118,118)" stroke="none" d="M 7263,16895 L 7808,16895 7808,16350 7295,16350 7296,16338 7363,16331 7434,16327 7583,16328 7881,16331 7948,16328 8009,16320 8065,16307 8090,16299 8113,16289 8134,16277 8152,16264 8168,16248 8182,16231 8193,16212 8201,16190 8205,16166 8207,16139 8379,17382 8376,17427 8365,17469 8349,17509 8327,17545 8300,17579 8268,17609 8231,17637 8191,17662 8100,17702 7998,17731 7889,17749 7777,17755 7665,17749 7556,17731 7454,17702 7363,17662 7323,17637 7286,17609 7254,17579 7227,17545 7205,17509 7189,17469 7178,17427 7175,17382 7263,16623 7263,16895 Z M 7798,16360 L 7798,16885 7273,16885 7273,16536 7293,16360 7798,16360 Z"/>
     <path fill="rgb(119,119,119)" stroke="none" d="M 7273,16885 L 7798,16885 7798,16360 7293,16360 7296,16338 7363,16331 7434,16327 7583,16328 7881,16331 7948,16328 8009,16320 8065,16307 8090,16299 8113,16289 8134,16277 8152,16264 8168,16248 8182,16231 8193,16212 8201,16190 8205,16166 8207,16139 8379,17382 8376,17427 8365,17469 8349,17509 8327,17545 8300,17579 8268,17609 8231,17637 8191,17662 8100,17702 7998,17731 7889,17749 7777,17755 7665,17749 7556,17731 7454,17702 7363,17662 7323,17637 7286,17609 7254,17579 7227,17545 7205,17509 7189,17469 7178,17427 7175,17382 7273,16536 7273,16885 Z M 7788,16370 L 7788,16875 7283,16875 7283,16450 7292,16370 7788,16370 Z"/>
     <path fill="rgb(121,121,121)" stroke="none" d="M 7283,16875 L 7788,16875 7788,16370 7292,16370 7296,16338 7363,16331 7434,16327 7583,16328 7881,16331 7948,16328 8009,16320 8065,16307 8090,16299 8113,16289 8134,16277 8152,16264 8168,16248 8182,16231 8193,16212 8201,16190 8205,16166 8207,16139 8379,17382 8376,17427 8365,17469 8349,17509 8327,17545 8300,17579 8268,17609 8231,17637 8191,17662 8100,17702 7998,17731 7889,17749 7777,17755 7665,17749 7556,17731 7454,17702 7363,17662 7323,17637 7286,17609 7254,17579 7227,17545 7205,17509 7189,17469 7178,17427 7175,17382 7283,16450 7283,16875 Z M 7293,16380 L 7778,16380 7778,16865 7293,16865 7293,16380 Z"/>
     <path fill="rgb(122,122,122)" stroke="none" d="M 7293,16380 L 7293,16865 7778,16865 7778,16380 7293,16380 Z M 7303,16390 L 7768,16390 7768,16855 7303,16855 7303,16390 Z M 7175,17382 L 7296,16338 7363,16331 7434,16327 7583,16328 7881,16331 7948,16328 8009,16320 8065,16307 8090,16299 8113,16289 8134,16277 8152,16264 8168,16248 8182,16231 8193,16212 8201,16190 8205,16166 8207,16139 8379,17382 8376,17427 8365,17469 8349,17509 8327,17545 8300,17579 8268,17609 8231,17637 8191,17662 8100,17702 7998,17731 7889,17749 7777,17755 7665,17749 7556,17731 7454,17702 7363,17662 7323,17637 7286,17609 7254,17579 7227,17545 7205,17509 7189,17469 7178,17427 7175,17382 Z"/>
     <path fill="rgb(123,123,123)" stroke="none" d="M 7303,16390 L 7303,16855 7768,16855 7768,16390 7303,16390 Z M 7313,16400 L 7758,16400 7758,16845 7313,16845 7313,16400 Z M 7175,17382 L 7296,16338 7363,16331 7434,16327 7583,16328 7881,16331 7948,16328 8009,16320 8065,16307 8090,16299 8113,16289 8134,16277 8152,16264 8168,16248 8182,16231 8193,16212 8201,16190 8205,16166 8207,16139 8379,17382 8376,17427 8365,17469 8349,17509 8327,17545 8300,17579 8268,17609 8231,17637 8191,17662 8100,17702 7998,17731 7889,17749 7777,17755 7665,17749 7556,17731 7454,17702 7363,17662 7323,17637 7286,17609 7254,17579 7227,17545 7205,17509 7189,17469 7178,17427 7175,17382 Z"/>
     <path fill="rgb(124,124,124)" stroke="none" d="M 7313,16400 L 7313,16845 7758,16845 7758,16400 7313,16400 Z M 7324,16411 L 7747,16411 7747,16834 7324,16834 7324,16411 Z M 7175,17382 L 7296,16338 7363,16331 7434,16327 7583,16328 7881,16331 7948,16328 8009,16320 8065,16307 8090,16299 8113,16289 8134,16277 8152,16264 8168,16248 8182,16231 8193,16212 8201,16190 8205,16166 8207,16139 8379,17382 8376,17427 8365,17469 8349,17509 8327,17545 8300,17579 8268,17609 8231,17637 8191,17662 8100,17702 7998,17731 7889,17749 7777,17755 7665,17749 7556,17731 7454,17702 7363,17662 7323,17637 7286,17609 7254,17579 7227,17545 7205,17509 7189,17469 7178,17427 7175,17382 Z"/>
     <path fill="rgb(126,126,126)" stroke="none" d="M 7324,16411 L 7324,16834 7747,16834 7747,16411 7324,16411 Z M 7334,16421 L 7737,16421 7737,16824 7334,16824 7334,16421 Z M 7175,17382 L 7296,16338 7363,16331 7434,16327 7583,16328 7881,16331 7948,16328 8009,16320 8065,16307 8090,16299 8113,16289 8134,16277 8152,16264 8168,16248 8182,16231 8193,16212 8201,16190 8205,16166 8207,16139 8379,17382 8376,17427 8365,17469 8349,17509 8327,17545 8300,17579 8268,17609 8231,17637 8191,17662 8100,17702 7998,17731 7889,17749 7777,17755 7665,17749 7556,17731 7454,17702 7363,17662 7323,17637 7286,17609 7254,17579 7227,17545 7205,17509 7189,17469 7178,17427 7175,17382 Z"/>
     <path fill="rgb(127,127,127)" stroke="none" d="M 7334,16421 L 7334,16824 7737,16824 7737,16421 7334,16421 Z M 7344,16431 L 7727,16431 7727,16814 7344,16814 7344,16431 Z M 7175,17382 L 7296,16338 7363,16331 7434,16327 7583,16328 7881,16331 7948,16328 8009,16320 8065,16307 8090,16299 8113,16289 8134,16277 8152,16264 8168,16248 8182,16231 8193,16212 8201,16190 8205,16166 8207,16139 8379,17382 8376,17427 8365,17469 8349,17509 8327,17545 8300,17579 8268,17609 8231,17637 8191,17662 8100,17702 7998,17731 7889,17749 7777,17755 7665,17749 7556,17731 7454,17702 7363,17662 7323,17637 7286,17609 7254,17579 7227,17545 7205,17509 7189,17469 7178,17427 7175,17382 Z"/>
     <path fill="rgb(128,128,128)" stroke="none" d="M 7344,16431 L 7344,16814 7727,16814 7727,16431 7344,16431 Z M 7354,16441 L 7717,16441 7717,16804 7354,16804 7354,16441 Z M 7175,17382 L 7296,16338 7363,16331 7434,16327 7583,16328 7881,16331 7948,16328 8009,16320 8065,16307 8090,16299 8113,16289 8134,16277 8152,16264 8168,16248 8182,16231 8193,16212 8201,16190 8205,16166 8207,16139 8379,17382 8376,17427 8365,17469 8349,17509 8327,17545 8300,17579 8268,17609 8231,17637 8191,17662 8100,17702 7998,17731 7889,17749 7777,17755 7665,17749 7556,17731 7454,17702 7363,17662 7323,17637 7286,17609 7254,17579 7227,17545 7205,17509 7189,17469 7178,17427 7175,17382 Z"/>
     <path fill="rgb(130,130,130)" stroke="none" d="M 7354,16441 L 7354,16804 7717,16804 7717,16441 7354,16441 Z M 7364,16451 L 7707,16451 7707,16794 7364,16794 7364,16451 Z M 7175,17382 L 7296,16338 7363,16331 7434,16327 7583,16328 7881,16331 7948,16328 8009,16320 8065,16307 8090,16299 8113,16289 8134,16277 8152,16264 8168,16248 8182,16231 8193,16212 8201,16190 8205,16166 8207,16139 8379,17382 8376,17427 8365,17469 8349,17509 8327,17545 8300,17579 8268,17609 8231,17637 8191,17662 8100,17702 7998,17731 7889,17749 7777,17755 7665,17749 7556,17731 7454,17702 7363,17662 7323,17637 7286,17609 7254,17579 7227,17545 7205,17509 7189,17469 7178,17427 7175,17382 Z"/>
     <path fill="rgb(131,131,131)" stroke="none" d="M 7364,16451 L 7364,16794 7707,16794 7707,16451 7364,16451 Z M 7374,16461 L 7697,16461 7697,16784 7374,16784 7374,16461 Z M 7175,17382 L 7296,16338 7363,16331 7434,16327 7583,16328 7881,16331 7948,16328 8009,16320 8065,16307 8090,16299 8113,16289 8134,16277 8152,16264 8168,16248 8182,16231 8193,16212 8201,16190 8205,16166 8207,16139 8379,17382 8376,17427 8365,17469 8349,17509 8327,17545 8300,17579 8268,17609 8231,17637 8191,17662 8100,17702 7998,17731 7889,17749 7777,17755 7665,17749 7556,17731 7454,17702 7363,17662 7323,17637 7286,17609 7254,17579 7227,17545 7205,17509 7189,17469 7178,17427 7175,17382 Z"/>
     <path fill="rgb(132,132,132)" stroke="none" d="M 7374,16461 L 7374,16784 7697,16784 7697,16461 7374,16461 Z M 7384,16471 L 7687,16471 7687,16774 7384,16774 7384,16471 Z M 7175,17382 L 7296,16338 7363,16331 7434,16327 7583,16328 7881,16331 7948,16328 8009,16320 8065,16307 8090,16299 8113,16289 8134,16277 8152,16264 8168,16248 8182,16231 8193,16212 8201,16190 8205,16166 8207,16139 8379,17382 8376,17427 8365,17469 8349,17509 8327,17545 8300,17579 8268,17609 8231,17637 8191,17662 8100,17702 7998,17731 7889,17749 7777,17755 7665,17749 7556,17731 7454,17702 7363,17662 7323,17637 7286,17609 7254,17579 7227,17545 7205,17509 7189,17469 7178,17427 7175,17382 Z"/>
     <path fill="rgb(133,133,133)" stroke="none" d="M 7384,16471 L 7384,16774 7687,16774 7687,16471 7384,16471 Z M 7394,16481 L 7677,16481 7677,16764 7394,16764 7394,16481 Z M 7175,17382 L 7296,16338 7363,16331 7434,16327 7583,16328 7881,16331 7948,16328 8009,16320 8065,16307 8090,16299 8113,16289 8134,16277 8152,16264 8168,16248 8182,16231 8193,16212 8201,16190 8205,16166 8207,16139 8379,17382 8376,17427 8365,17469 8349,17509 8327,17545 8300,17579 8268,17609 8231,17637 8191,17662 8100,17702 7998,17731 7889,17749 7777,17755 7665,17749 7556,17731 7454,17702 7363,17662 7323,17637 7286,17609 7254,17579 7227,17545 7205,17509 7189,17469 7178,17427 7175,17382 Z"/>
     <path fill="rgb(135,135,135)" stroke="none" d="M 7394,16481 L 7394,16764 7677,16764 7677,16481 7394,16481 Z M 7404,16491 L 7667,16491 7667,16754 7404,16754 7404,16491 Z M 7175,17382 L 7296,16338 7363,16331 7434,16327 7583,16328 7881,16331 7948,16328 8009,16320 8065,16307 8090,16299 8113,16289 8134,16277 8152,16264 8168,16248 8182,16231 8193,16212 8201,16190 8205,16166 8207,16139 8379,17382 8376,17427 8365,17469 8349,17509 8327,17545 8300,17579 8268,17609 8231,17637 8191,17662 8100,17702 7998,17731 7889,17749 7777,17755 7665,17749 7556,17731 7454,17702 7363,17662 7323,17637 7286,17609 7254,17579 7227,17545 7205,17509 7189,17469 7178,17427 7175,17382 Z"/>
     <path fill="rgb(136,136,136)" stroke="none" d="M 7404,16491 L 7404,16754 7667,16754 7667,16491 7404,16491 Z M 7415,16502 L 7656,16502 7656,16743 7415,16743 7415,16502 Z M 7175,17382 L 7296,16338 7363,16331 7434,16327 7583,16328 7881,16331 7948,16328 8009,16320 8065,16307 8090,16299 8113,16289 8134,16277 8152,16264 8168,16248 8182,16231 8193,16212 8201,16190 8205,16166 8207,16139 8379,17382 8376,17427 8365,17469 8349,17509 8327,17545 8300,17579 8268,17609 8231,17637 8191,17662 8100,17702 7998,17731 7889,17749 7777,17755 7665,17749 7556,17731 7454,17702 7363,17662 7323,17637 7286,17609 7254,17579 7227,17545 7205,17509 7189,17469 7178,17427 7175,17382 Z"/>
     <path fill="rgb(137,137,137)" stroke="none" d="M 7415,16502 L 7415,16743 7656,16743 7656,16502 7415,16502 Z M 7425,16512 L 7646,16512 7646,16733 7425,16733 7425,16512 Z M 7175,17382 L 7296,16338 7363,16331 7434,16327 7583,16328 7881,16331 7948,16328 8009,16320 8065,16307 8090,16299 8113,16289 8134,16277 8152,16264 8168,16248 8182,16231 8193,16212 8201,16190 8205,16166 8207,16139 8379,17382 8376,17427 8365,17469 8349,17509 8327,17545 8300,17579 8268,17609 8231,17637 8191,17662 8100,17702 7998,17731 7889,17749 7777,17755 7665,17749 7556,17731 7454,17702 7363,17662 7323,17637 7286,17609 7254,17579 7227,17545 7205,17509 7189,17469 7178,17427 7175,17382 Z"/>
     <path fill="rgb(138,138,138)" stroke="none" d="M 7425,16512 L 7425,16733 7646,16733 7646,16512 7425,16512 Z M 7435,16522 L 7636,16522 7636,16723 7435,16723 7435,16522 Z M 7175,17382 L 7296,16338 7363,16331 7434,16327 7583,16328 7881,16331 7948,16328 8009,16320 8065,16307 8090,16299 8113,16289 8134,16277 8152,16264 8168,16248 8182,16231 8193,16212 8201,16190 8205,16166 8207,16139 8379,17382 8376,17427 8365,17469 8349,17509 8327,17545 8300,17579 8268,17609 8231,17637 8191,17662 8100,17702 7998,17731 7889,17749 7777,17755 7665,17749 7556,17731 7454,17702 7363,17662 7323,17637 7286,17609 7254,17579 7227,17545 7205,17509 7189,17469 7178,17427 7175,17382 Z"/>
     <path fill="rgb(140,140,140)" stroke="none" d="M 7435,16522 L 7435,16723 7636,16723 7636,16522 7435,16522 Z M 7445,16532 L 7626,16532 7626,16713 7445,16713 7445,16532 Z M 7175,17382 L 7296,16338 7363,16331 7434,16327 7583,16328 7881,16331 7948,16328 8009,16320 8065,16307 8090,16299 8113,16289 8134,16277 8152,16264 8168,16248 8182,16231 8193,16212 8201,16190 8205,16166 8207,16139 8379,17382 8376,17427 8365,17469 8349,17509 8327,17545 8300,17579 8268,17609 8231,17637 8191,17662 8100,17702 7998,17731 7889,17749 7777,17755 7665,17749 7556,17731 7454,17702 7363,17662 7323,17637 7286,17609 7254,17579 7227,17545 7205,17509 7189,17469 7178,17427 7175,17382 Z"/>
     <path fill="rgb(141,141,141)" stroke="none" d="M 7445,16532 L 7445,16713 7626,16713 7626,16532 7445,16532 Z M 7455,16542 L 7616,16542 7616,16703 7455,16703 7455,16542 Z M 7175,17382 L 7296,16338 7363,16331 7434,16327 7583,16328 7881,16331 7948,16328 8009,16320 8065,16307 8090,16299 8113,16289 8134,16277 8152,16264 8168,16248 8182,16231 8193,16212 8201,16190 8205,16166 8207,16139 8379,17382 8376,17427 8365,17469 8349,17509 8327,17545 8300,17579 8268,17609 8231,17637 8191,17662 8100,17702 7998,17731 7889,17749 7777,17755 7665,17749 7556,17731 7454,17702 7363,17662 7323,17637 7286,17609 7254,17579 7227,17545 7205,17509 7189,17469 7178,17427 7175,17382 Z"/>
     <path fill="rgb(142,142,142)" stroke="none" d="M 7455,16542 L 7455,16703 7616,16703 7616,16542 7455,16542 Z M 7465,16552 L 7606,16552 7606,16693 7465,16693 7465,16552 Z M 7175,17382 L 7296,16338 7363,16331 7434,16327 7583,16328 7881,16331 7948,16328 8009,16320 8065,16307 8090,16299 8113,16289 8134,16277 8152,16264 8168,16248 8182,16231 8193,16212 8201,16190 8205,16166 8207,16139 8379,17382 8376,17427 8365,17469 8349,17509 8327,17545 8300,17579 8268,17609 8231,17637 8191,17662 8100,17702 7998,17731 7889,17749 7777,17755 7665,17749 7556,17731 7454,17702 7363,17662 7323,17637 7286,17609 7254,17579 7227,17545 7205,17509 7189,17469 7178,17427 7175,17382 Z"/>
     <path fill="rgb(144,144,144)" stroke="none" d="M 7465,16552 L 7465,16693 7606,16693 7606,16552 7465,16552 Z M 7475,16562 L 7596,16562 7596,16683 7475,16683 7475,16562 Z M 7175,17382 L 7296,16338 7363,16331 7434,16327 7583,16328 7881,16331 7948,16328 8009,16320 8065,16307 8090,16299 8113,16289 8134,16277 8152,16264 8168,16248 8182,16231 8193,16212 8201,16190 8205,16166 8207,16139 8379,17382 8376,17427 8365,17469 8349,17509 8327,17545 8300,17579 8268,17609 8231,17637 8191,17662 8100,17702 7998,17731 7889,17749 7777,17755 7665,17749 7556,17731 7454,17702 7363,17662 7323,17637 7286,17609 7254,17579 7227,17545 7205,17509 7189,17469 7178,17427 7175,17382 Z"/>
     <path fill="rgb(145,145,145)" stroke="none" d="M 7475,16562 L 7475,16683 7596,16683 7596,16562 7475,16562 Z M 7485,16572 L 7586,16572 7586,16673 7485,16673 7485,16572 Z M 7175,17382 L 7296,16338 7363,16331 7434,16327 7583,16328 7881,16331 7948,16328 8009,16320 8065,16307 8090,16299 8113,16289 8134,16277 8152,16264 8168,16248 8182,16231 8193,16212 8201,16190 8205,16166 8207,16139 8379,17382 8376,17427 8365,17469 8349,17509 8327,17545 8300,17579 8268,17609 8231,17637 8191,17662 8100,17702 7998,17731 7889,17749 7777,17755 7665,17749 7556,17731 7454,17702 7363,17662 7323,17637 7286,17609 7254,17579 7227,17545 7205,17509 7189,17469 7178,17427 7175,17382 Z"/>
     <path fill="rgb(146,146,146)" stroke="none" d="M 7485,16572 L 7485,16673 7586,16673 7586,16572 7485,16572 Z M 7496,16583 L 7575,16583 7575,16662 7496,16662 7496,16583 Z M 7175,17382 L 7296,16338 7363,16331 7434,16327 7583,16328 7881,16331 7948,16328 8009,16320 8065,16307 8090,16299 8113,16289 8134,16277 8152,16264 8168,16248 8182,16231 8193,16212 8201,16190 8205,16166 8207,16139 8379,17382 8376,17427 8365,17469 8349,17509 8327,17545 8300,17579 8268,17609 8231,17637 8191,17662 8100,17702 7998,17731 7889,17749 7777,17755 7665,17749 7556,17731 7454,17702 7363,17662 7323,17637 7286,17609 7254,17579 7227,17545 7205,17509 7189,17469 7178,17427 7175,17382 Z"/>
     <path fill="rgb(147,147,147)" stroke="none" d="M 7496,16583 L 7496,16662 7575,16662 7575,16583 7496,16583 Z M 7506,16593 L 7565,16593 7565,16652 7506,16652 7506,16593 Z M 7175,17382 L 7296,16338 7363,16331 7434,16327 7583,16328 7881,16331 7948,16328 8009,16320 8065,16307 8090,16299 8113,16289 8134,16277 8152,16264 8168,16248 8182,16231 8193,16212 8201,16190 8205,16166 8207,16139 8379,17382 8376,17427 8365,17469 8349,17509 8327,17545 8300,17579 8268,17609 8231,17637 8191,17662 8100,17702 7998,17731 7889,17749 7777,17755 7665,17749 7556,17731 7454,17702 7363,17662 7323,17637 7286,17609 7254,17579 7227,17545 7205,17509 7189,17469 7178,17427 7175,17382 Z"/>
     <path fill="rgb(149,149,149)" stroke="none" d="M 7506,16593 L 7506,16652 7565,16652 7565,16593 7506,16593 Z M 7516,16603 L 7555,16603 7555,16642 7516,16642 7516,16603 Z M 7175,17382 L 7296,16338 7363,16331 7434,16327 7583,16328 7881,16331 7948,16328 8009,16320 8065,16307 8090,16299 8113,16289 8134,16277 8152,16264 8168,16248 8182,16231 8193,16212 8201,16190 8205,16166 8207,16139 8379,17382 8376,17427 8365,17469 8349,17509 8327,17545 8300,17579 8268,17609 8231,17637 8191,17662 8100,17702 7998,17731 7889,17749 7777,17755 7665,17749 7556,17731 7454,17702 7363,17662 7323,17637 7286,17609 7254,17579 7227,17545 7205,17509 7189,17469 7178,17427 7175,17382 Z"/>
     <path fill="rgb(150,150,150)" stroke="none" d="M 7516,16603 L 7516,16642 7555,16642 7555,16603 7516,16603 Z M 7526,16613 L 7545,16613 7545,16632 7526,16632 7526,16613 Z M 7175,17382 L 7296,16338 7363,16331 7434,16327 7583,16328 7881,16331 7948,16328 8009,16320 8065,16307 8090,16299 8113,16289 8134,16277 8152,16264 8168,16248 8182,16231 8193,16212 8201,16190 8205,16166 8207,16139 8379,17382 8376,17427 8365,17469 8349,17509 8327,17545 8300,17579 8268,17609 8231,17637 8191,17662 8100,17702 7998,17731 7889,17749 7777,17755 7665,17749 7556,17731 7454,17702 7363,17662 7323,17637 7286,17609 7254,17579 7227,17545 7205,17509 7189,17469 7178,17427 7175,17382 Z"/>
     <path fill="rgb(153,153,153)" stroke="none" d="M 7526,16613 L 7526,16632 7545,16632 7545,16613 7526,16613 Z M 7175,17382 L 7296,16338 7363,16331 7434,16327 7583,16328 7881,16331 7948,16328 8009,16320 8065,16307 8090,16299 8113,16289 8134,16277 8152,16264 8168,16248 8182,16231 8193,16212 8201,16190 8205,16166 8207,16139 8379,17382 8376,17427 8365,17469 8349,17509 8327,17545 8300,17579 8268,17609 8231,17637 8191,17662 8100,17702 7998,17731 7889,17749 7777,17755 7665,17749 7556,17731 7454,17702 7363,17662 7323,17637 7286,17609 7254,17579 7227,17545 7205,17509 7189,17469 7178,17427 7175,17382 Z"/>
     <path fill="none" stroke="rgb(178,178,178)" id="Drawing_2_0" stroke-width="40" stroke-linejoin="round" d="M 7175,17382 L 7296,16338 C 7640,16288 8207,16437 8207,16139 L 8379,17382 C 8379,17879 7175,17879 7175,17382 Z"/>
    </g>
    <g>
     <defs>
      <linearGradient id="Gradient_1133" gradientUnits="userSpaceOnUse" x1="7777" y1="15891" x2="7777" y2="16388">
       <stop offset="0.1" stop-color="rgb(51,51,51)"/>
       <stop offset="1" stop-color="rgb(153,153,153)"/>
      </linearGradient>
     </defs>
     <path fill="url(#Gradient_1133)" stroke="none" id="Drawing_3_0" d="M 8089,15959 L 8117,15977 8141,15997 8161,16018 8177,16041 8190,16064 8199,16089 8205,16114 8207,16139 8205,16165 8199,16190 8190,16214 8177,16238 8161,16261 8141,16282 8117,16302 8089,16320 8058,16336 8024,16350 7987,16361 7947,16371 7906,16379 7864,16384 7776,16388 7689,16384 7647,16379 7606,16371 7566,16361 7529,16350 7495,16336 7464,16320 7437,16302 7413,16282 7393,16261 7376,16238 7363,16214 7354,16190 7349,16165 7347,16139 7349,16114 7354,16089 7363,16064 7376,16041 7393,16018 7413,15997 7437,15977 7464,15959 7495,15943 7530,15929 7567,15917 7606,15908 7647,15900 7690,15895 7777,15891 7864,15895 7907,15901 7948,15908 7987,15918 8024,15929 8058,15943 8089,15959 Z"/>
     <path fill="none" stroke="rgb(178,178,178)" id="Drawing_3_1" stroke-width="40" stroke-linejoin="round" d="M 8089,15959 C 8246,16049 8246,16230 8089,16320 7933,16411 7620,16411 7464,16320 7308,16230 7308,16049 7464,15959 7621,15868 7933,15869 8089,15959 Z"/>
    </g>
    <g>
     <defs>
      <linearGradient id="Gradient_1134" gradientUnits="userSpaceOnUse" x1="7305" y1="16398" x2="7309" y2="14393">
       <stop offset="0.1" stop-color="rgb(102,102,102)"/>
       <stop offset="1" stop-color="rgb(153,153,153)"/>
      </linearGradient>
     </defs>
     <path fill="url(#Gradient_1134)" stroke="none" id="Drawing_4_0" d="M 8223,14476 L 8230,14481 8237,14487 8250,14503 8263,14524 8274,14549 8294,14612 8310,14690 8321,14780 8328,14880 8325,15102 8300,15337 8279,15453 8250,15567 8216,15674 8174,15774 8125,15863 8069,15940 8034,15989 7995,16036 7906,16119 7804,16191 7691,16251 7569,16301 7441,16339 7310,16368 7177,16386 7045,16396 6916,16396 6793,16388 6679,16373 6574,16349 6483,16318 6408,16281 6376,16260 6350,16238 6328,16213 6311,16186 6299,16157 6291,16125 6287,16091 6288,16056 6292,16019 6300,15980 6325,15899 6363,15814 6411,15725 6468,15635 6601,15453 6749,15280 6899,15123 7038,14995 7309,14749 7455,14627 7529,14571 7604,14520 7680,14476 7757,14440 7834,14414 7912,14398 7951,14395 7990,14396 8028,14399 8067,14406 8106,14418 8145,14433 8184,14452 8223,14476 Z"/>
     <path fill="none" stroke="rgb(178,178,178)" id="Drawing_4_1" stroke-width="40" stroke-linejoin="round" d="M 8223,14476 C 8380,14566 8391,15568 8069,15940 7725,16486 6608,16486 6350,16238 6092,15989 6694,15293 7038,14995 7381,14697 7811,14200 8223,14476 Z"/>
    </g>
    <g>
     <defs>
      <linearGradient id="Gradient_1135" gradientUnits="userSpaceOnUse" x1="7252" y1="14371" x2="7252" y2="16273">
       <stop offset="0.1" stop-color="rgb(51,51,51)"/>
       <stop offset="1" stop-color="rgb(153,153,153)"/>
      </linearGradient>
     </defs>
     <path fill="url(#Gradient_1135)" stroke="none" id="Drawing_5_0" d="M 8155,14398 L 8162,14403 8168,14409 8179,14422 8187,14439 8192,14459 8195,14482 8195,14507 8189,14565 8175,14631 8153,14704 8091,14864 8010,15032 7917,15197 7818,15345 7768,15410 7720,15466 7596,15586 7423,15730 7221,15883 7004,16029 6792,16153 6692,16202 6600,16240 6518,16264 6481,16271 6447,16273 6417,16271 6390,16265 6368,16254 6358,16247 6349,16238 6335,16218 6324,16195 6316,16170 6312,16142 6310,16112 6311,16080 6322,16010 6343,15933 6373,15852 6411,15767 6457,15679 6564,15501 6688,15329 6819,15174 6886,15106 6951,15045 7236,14797 7393,14670 7553,14554 7634,14503 7714,14459 7793,14422 7870,14394 7946,14377 8019,14371 8054,14373 8089,14378 8122,14386 8155,14398 Z"/>
     <path fill="none" stroke="rgb(178,178,178)" id="Drawing_5_1" stroke-width="40" stroke-linejoin="round" d="M 8155,14398 C 8312,14489 7972,15192 7720,15466 7467,15740 6521,16436 6349,16238 6177,16039 6607,15343 6951,15045 7295,14746 7811,14249 8155,14398 Z"/>
    </g>
    <g>
     <path fill="none" stroke="rgb(0,0,0)" id="Drawing_6_0" stroke-width="40" stroke-linejoin="round" d="M 7175,17382 L 7296,16387 C 7296,16387 6522,16487 6350,16238 6178,15990 6615,15337 6952,15045 7290,14752 7812,14250 8156,14399 8500,14548 8328,15642 8070,15940 8070,15940 8236,16052 8207,16139 L 8379,17382 C 8379,17879 7175,17879 7175,17382 Z"/>
    </g>
    <g>
     <path fill="rgb(102,102,102)" stroke="none" d="M 6694,15641 L 6694,14548 6608,14448 6694,14349 6780,14448 6694,14548 6694,15641 Z"/>
     <path fill="none" stroke="rgb(0,0,0)" id="Drawing_7_0" stroke-width="40" stroke-linejoin="round" d="M 6694,15641 L 6694,14548 6608,14448 6694,14349 6780,14448 6694,14548 6694,15641 Z"/>
    </g>
    <g>
     <path fill="none" stroke="rgb(0,0,0)" id="Drawing_8_0" stroke-width="40" stroke-linejoin="round" d="M 7468,15542 L 6694,14448"/>
    </g>
    <g>
     <path fill="none" stroke="rgb(0,0,0)" id="Drawing_9_0" stroke-width="40" stroke-linejoin="round" d="M 6780,14448 L 7726,14697"/>
    </g>
   </g>
  </g>
 </g>
</svg>