<?xml version="1.0" encoding="UTF-8"?>

<svg version="1.2" baseProfile="tiny" width="71.46mm" height="45.2mm" viewBox="8362 8814 7146 4520" preserveAspectRatio="xMidYMid" fill-rule="evenodd" stroke-width="28.222" stroke-linejoin="round" xmlns="http://www.w3.org/2000/svg" xmlns:xlink="http://www.w3.org/1999/xlink" xml:space="preserve">
 <g visibility="visible" id="Slide_1">
  <g id="DrawingGroup_1">
   <g>
    <path fill="rgb(221,221,221)" stroke="none" d="M 13257,13314 C 13600,13314 15507,12592 15507,12231 15507,11869 14600,11508 14257,11508 14257,11725 13257,13025 13257,13314 Z"/>
    <path fill="none" stroke="rgb(221,221,221)" id="Drawing_1_0" stroke-linejoin="round" d="M 13257,13314 C 13600,13314 15507,12592 15507,12231 15507,11869 14600,11508 14257,11508 14257,11725 13257,13025 13257,13314 Z"/>
   </g>
   <g id="DrawingGroup_2">
    <g>
     <defs>
      <linearGradient id="Gradient_1136" gradientUnits="userSpaceOnUse" x1="8628" y1="11540" x2="13009" y2="11548">
       <stop offset="0.1" stop-color="rgb(179,179,179)"/>
       <stop offset="1" stop-color="rgb(229,229,229)"/>
      </linearGradient>
     </defs>
     <path fill="url(#Gradient_1136)" stroke="rgb(255,255,255)" id="Drawing_2_0" stroke-width="40" stroke-linejoin="round" d="M 8632,10641 L 8632,9918 13007,12447 13007,13170 8632,10641 Z"/>
    </g>
    <g>
     <path fill="rgb(179,179,179)" stroke="none" d="M 14488,12314 L 13606,12823 13007,12823 13007,12447 14488,11591 14488,12314 Z"/>
     <path fill="rgb(180,180,180)" stroke="none" d="M 13606,12823 L 13007,13169 13007,12823 13606,12823 Z M 14488,11591 L 14882,11363 14882,12086 14488,12314 14488,11591 Z M 14469,12325 L 13639,12804 13007,12804 13007,12447 14469,11602 14469,12325 Z"/>
     <path fill="rgb(181,181,181)" stroke="none" d="M 13639,12804 L 13007,13169 13007,12804 13639,12804 Z M 14469,11602 L 14882,11363 14882,12086 14469,12325 14469,11602 Z M 14450,12336 L 13672,12785 13007,12785 13007,12447 14450,11613 14450,12336 Z"/>
     <path fill="rgb(182,182,182)" stroke="none" d="M 13672,12785 L 13007,13169 13007,12785 13672,12785 Z M 14450,11613 L 14882,11363 14882,12086 14450,12336 14450,11613 Z M 14431,12346 L 13705,12766 13007,12766 13007,12447 14431,11624 14431,12346 Z"/>
     <path fill="rgb(183,183,183)" stroke="none" d="M 13705,12766 L 13007,13169 13007,12766 13705,12766 Z M 14431,11624 L 14882,11363 14882,12086 14431,12346 14431,11624 Z M 14413,12357 L 13736,12748 13007,12748 13007,12447 14413,11634 14413,12357 Z"/>
     <path fill="rgb(184,184,184)" stroke="none" d="M 13736,12748 L 13007,13169 13007,12748 13736,12748 Z M 14413,11634 L 14882,11363 14882,12086 14413,12357 14413,11634 Z M 14394,12368 L 13769,12729 13007,12729 13007,12447 14394,11645 14394,12368 Z"/>
     <path fill="rgb(185,185,185)" stroke="none" d="M 13769,12729 L 13007,13169 13007,12729 13769,12729 Z M 14394,11645 L 14882,11363 14882,12086 14394,12368 14394,11645 Z M 14375,12379 L 13802,12710 13007,12710 13007,12447 14375,11656 14375,12379 Z"/>
     <path fill="rgb(186,186,186)" stroke="none" d="M 13802,12710 L 13007,13169 13007,12710 13802,12710 Z M 14375,11656 L 14882,11363 14882,12086 14375,12379 14375,11656 Z M 14356,12390 L 13835,12691 13007,12691 13007,12447 14356,11667 14356,12390 Z"/>
     <path fill="rgb(187,187,187)" stroke="none" d="M 13835,12691 L 13007,13169 13007,12691 13835,12691 Z M 14356,11667 L 14882,11363 14882,12086 14356,12390 14356,11667 Z M 14337,12401 L 13867,12672 13007,12672 13007,12447 14337,11678 14337,12401 Z"/>
     <path fill="rgb(188,188,188)" stroke="none" d="M 13867,12672 L 13007,13169 13007,12672 13867,12672 Z M 14337,11678 L 14882,11363 14882,12086 14337,12401 14337,11678 Z M 14319,12411 L 13899,12654 13007,12654 13007,12447 14319,11688 14319,12411 Z"/>
     <path fill="rgb(189,189,189)" stroke="none" d="M 13899,12654 L 13007,13169 13007,12654 13899,12654 Z M 14319,11688 L 14882,11363 14882,12086 14319,12411 14319,11688 Z M 14300,12422 L 13932,12635 13007,12635 13007,12447 14300,11699 14300,12422 Z"/>
     <path fill="rgb(190,190,190)" stroke="none" d="M 13932,12635 L 13007,13169 13007,12635 13932,12635 Z M 14300,11699 L 14882,11363 14882,12086 14300,12422 14300,11699 Z M 14281,12433 L 13964,12616 13007,12616 13007,12447 14281,11710 14281,12433 Z"/>
     <path fill="rgb(191,191,191)" stroke="none" d="M 13964,12616 L 13007,13169 13007,12616 13964,12616 Z M 14281,11710 L 14882,11363 14882,12086 14281,12433 14281,11710 Z M 14262,12444 L 13997,12597 13007,12597 13007,12447 14262,11721 14262,12444 Z"/>
     <path fill="rgb(192,192,192)" stroke="none" d="M 13997,12597 L 13007,13169 13007,12597 13997,12597 Z M 14262,11721 L 14882,11363 14882,12086 14262,12444 14262,11721 Z M 14244,12455 L 14028,12579 13007,12579 13007,12447 14244,11732 14244,12455 Z"/>
     <path fill="rgb(193,193,193)" stroke="none" d="M 14028,12579 L 13007,13169 13007,12579 14028,12579 Z M 14244,11732 L 14882,11363 14882,12086 14244,12455 14244,11732 Z M 14225,12465 L 14061,12560 13007,12560 13007,12447 14225,11743 14225,12465 Z"/>
     <path fill="rgb(194,194,194)" stroke="none" d="M 14061,12560 L 13007,13169 13007,12560 14061,12560 Z M 14225,11743 L 14882,11363 14882,12086 14225,12465 14225,11743 Z M 14206,12476 L 14094,12541 13007,12541 13007,12447 14206,11754 14206,12476 Z"/>
     <path fill="rgb(195,195,195)" stroke="none" d="M 14094,12541 L 13007,13169 13007,12541 14094,12541 Z M 14206,11754 L 14882,11363 14882,12086 14206,12476 14206,11754 Z M 14187,12487 L 14127,12522 13007,12522 13007,12447 14187,11765 14187,12487 Z"/>
     <path fill="rgb(196,196,196)" stroke="none" d="M 14127,12522 L 13007,13169 13007,12522 14127,12522 Z M 14187,11765 L 14882,11363 14882,12086 14187,12487 14187,11765 Z M 14168,12498 L 14160,12503 13007,12503 13007,12447 14168,11776 14168,12498 Z"/>
     <path fill="rgb(197,197,197)" stroke="none" d="M 14160,12503 L 13007,13169 13007,12503 14160,12503 Z M 14168,11776 L 14882,11363 14882,12086 14168,12498 14168,11776 Z M 14150,12485 L 13007,12485 13007,12447 14150,11786 14150,12485 Z"/>
     <path fill="rgb(198,198,198)" stroke="none" d="M 14150,12485 L 14150,11786 14882,11363 14882,12086 13007,13169 13007,12485 14150,12485 Z M 14131,12466 L 13007,12466 13007,12447 14131,11797 14131,12466 Z"/>
     <path fill="rgb(199,199,199)" stroke="none" d="M 14131,12466 L 14131,11797 14882,11363 14882,12086 13007,13169 13007,12466 14131,12466 Z M 14112,12447 L 13024,12447 13024,12437 14112,11808 14112,12447 Z"/>
     <path fill="rgb(200,200,200)" stroke="none" d="M 13024,12447 L 14112,12447 14112,11808 14882,11363 14882,12086 13007,13169 13007,12447 13024,12437 13024,12447 Z M 14093,12428 L 13043,12428 13043,12426 14093,11819 14093,12428 Z"/>
     <path fill="rgb(201,201,201)" stroke="none" d="M 13043,12428 L 14093,12428 14093,11819 14882,11363 14882,12086 13007,13169 13007,12447 13043,12426 13043,12428 Z M 14075,12410 L 13071,12410 14075,11830 14075,12410 Z"/>
     <path fill="rgb(202,202,202)" stroke="none" d="M 14075,12410 L 14075,11830 14882,11363 14882,12086 13007,13169 13007,12447 13071,12410 14075,12410 Z M 14056,12391 L 13104,12391 14056,11841 14056,12391 Z"/>
     <path fill="rgb(203,203,203)" stroke="none" d="M 14056,12391 L 14056,11841 14882,11363 14882,12086 13007,13169 13007,12447 13104,12391 14056,12391 Z M 14037,12372 L 13137,12372 14037,11852 14037,12372 Z"/>
     <path fill="rgb(204,204,204)" stroke="none" d="M 14037,12372 L 14037,11852 14882,11363 14882,12086 13007,13169 13007,12447 13137,12372 14037,12372 Z M 14018,12353 L 13170,12353 14018,11863 14018,12353 Z"/>
     <path fill="rgb(205,205,205)" stroke="none" d="M 14018,12353 L 14018,11863 14882,11363 14882,12086 13007,13169 13007,12447 13170,12353 14018,12353 Z M 13999,12334 L 13202,12334 13999,11873 13999,12334 Z"/>
     <path fill="rgb(206,206,206)" stroke="none" d="M 13999,12334 L 13999,11873 14882,11363 14882,12086 13007,13169 13007,12447 13202,12334 13999,12334 Z M 13981,12316 L 13234,12316 13981,11884 13981,12316 Z"/>
     <path fill="rgb(207,207,207)" stroke="none" d="M 13981,12316 L 13981,11884 14882,11363 14882,12086 13007,13169 13007,12447 13234,12316 13981,12316 Z M 13962,12297 L 13266,12297 13962,11895 13962,12297 Z"/>
     <path fill="rgb(208,208,208)" stroke="none" d="M 13962,12297 L 13962,11895 14882,11363 14882,12086 13007,13169 13007,12447 13266,12297 13962,12297 Z M 13943,12278 L 13299,12278 13943,11906 13943,12278 Z"/>
     <path fill="rgb(209,209,209)" stroke="none" d="M 13943,12278 L 13943,11906 14882,11363 14882,12086 13007,13169 13007,12447 13299,12278 13943,12278 Z M 13924,12259 L 13332,12259 13924,11917 13924,12259 Z"/>
     <path fill="rgb(210,210,210)" stroke="none" d="M 13924,12259 L 13924,11917 14882,11363 14882,12086 13007,13169 13007,12447 13332,12259 13924,12259 Z M 13906,12241 L 13363,12241 13906,11927 13906,12241 Z"/>
     <path fill="rgb(211,211,211)" stroke="none" d="M 13906,12241 L 13906,11927 14882,11363 14882,12086 13007,13169 13007,12447 13363,12241 13906,12241 Z M 13887,12222 L 13396,12222 13887,11938 13887,12222 Z"/>
     <path fill="rgb(212,212,212)" stroke="none" d="M 13887,12222 L 13887,11938 14882,11363 14882,12086 13007,13169 13007,12447 13396,12222 13887,12222 Z M 13868,12203 L 13429,12203 13868,11949 13868,12203 Z"/>
     <path fill="rgb(213,213,213)" stroke="none" d="M 13868,12203 L 13868,11949 14882,11363 14882,12086 13007,13169 13007,12447 13429,12203 13868,12203 Z M 13849,12184 L 13462,12184 13849,11960 13849,12184 Z"/>
     <path fill="rgb(214,214,214)" stroke="none" d="M 13849,12184 L 13849,11960 14882,11363 14882,12086 13007,13169 13007,12447 13462,12184 13849,12184 Z M 13830,12165 L 13495,12165 13830,11971 13830,12165 Z"/>
     <path fill="rgb(215,215,215)" stroke="none" d="M 13830,12165 L 13830,11971 14882,11363 14882,12086 13007,13169 13007,12447 13495,12165 13830,12165 Z M 13812,12147 L 13526,12147 13812,11982 13812,12147 Z"/>
     <path fill="rgb(216,216,216)" stroke="none" d="M 13812,12147 L 13812,11982 14882,11363 14882,12086 13007,13169 13007,12447 13526,12147 13812,12147 Z M 13793,12128 L 13559,12128 13793,11993 13793,12128 Z"/>
     <path fill="rgb(217,217,217)" stroke="none" d="M 13793,12128 L 13793,11993 14882,11363 14882,12086 13007,13169 13007,12447 13559,12128 13793,12128 Z M 13774,12109 L 13592,12109 13774,12004 13774,12109 Z"/>
     <path fill="rgb(218,218,218)" stroke="none" d="M 13774,12109 L 13774,12004 14882,11363 14882,12086 13007,13169 13007,12447 13592,12109 13774,12109 Z M 13755,12090 L 13625,12090 13755,12015 13755,12090 Z"/>
     <path fill="rgb(219,219,219)" stroke="none" d="M 13755,12090 L 13755,12015 14882,11363 14882,12086 13007,13169 13007,12447 13625,12090 13755,12090 Z M 13737,12072 L 13656,12072 13737,12025 13737,12072 Z"/>
     <path fill="rgb(220,220,220)" stroke="none" d="M 13737,12072 L 13737,12025 14882,11363 14882,12086 13007,13169 13007,12447 13656,12072 13737,12072 Z M 13718,12053 L 13689,12053 13718,12036 13718,12053 Z"/>
     <path fill="rgb(221,221,221)" stroke="none" d="M 13718,12053 L 13718,12036 14882,11363 14882,12086 13007,13169 13007,12447 13689,12053 13718,12053 Z"/>
     <path fill="rgb(222,222,222)" stroke="none" d="M 13007,13169 L 13007,12447 14882,11363 14882,12086 13007,13169 Z"/>
     <path fill="rgb(223,223,223)" stroke="none" d="M 13007,13169 L 13007,12447 14882,11363 14882,12086 13007,13169 Z"/>
     <path fill="rgb(224,224,224)" stroke="none" d="M 13007,13169 L 13007,12447 14882,11363 14882,12086 13007,13169 Z"/>
     <path fill="rgb(225,225,225)" stroke="none" d="M 13007,13169 L 13007,12447 14882,11363 14882,12086 13007,13169 Z"/>
     <path fill="rgb(226,226,226)" stroke="none" d="M 13007,13169 L 13007,12447 14882,11363 14882,12086 13007,13169 Z"/>
     <path fill="rgb(227,227,227)" stroke="none" d="M 13007,13169 L 13007,12447 14882,11363 14882,12086 13007,13169 Z"/>
     <path fill="rgb(229,229,229)" stroke="none" d="M 13007,13169 L 13007,12447 14882,11363 14882,12086 13007,13169 Z"/>
     <path fill="none" stroke="rgb(255,255,255)" id="Drawing_3_0" stroke-width="40" stroke-linejoin="round" d="M 13007,13169 L 13007,12447 14882,11363 14882,12086 13007,13169 Z"/>
    </g>
    <g>
     <defs>
      <linearGradient id="Gradient_1137" gradientUnits="userSpaceOnUse" x1="11757" y1="8834" x2="11757" y2="12447">
       <stop offset="0.1" stop-color="rgb(179,179,179)"/>
       <stop offset="1" stop-color="rgb(229,229,229)"/>
      </linearGradient>
     </defs>
     <path fill="url(#Gradient_1137)" stroke="rgb(255,255,255)" id="Drawing_4_0" stroke-width="40" stroke-linejoin="round" d="M 13007,12447 L 8632,9918 10507,8834 14882,11363 13007,12447 Z"/>
    </g>
    <g>
     <path fill="rgb(57,181,74)" stroke="none" d="M 12507,12664 L 12507,12375 12757,12520 12757,12809 12507,12664 Z"/>
     <path fill="none" stroke="rgb(0,0,0)" id="Drawing_5_0" stroke-width="40" stroke-linejoin="round" d="M 12507,12664 L 12507,12375 12757,12520 12757,12809 12507,12664 Z"/>
    </g>
    <g>
     <defs>
      <linearGradient id="Gradient_1138" gradientUnits="userSpaceOnUse" x1="8381" y1="10206" x2="8633" y2="10206">
       <stop offset="0.1" stop-color="rgb(179,179,179)"/>
       <stop offset="1" stop-color="rgb(229,229,229)"/>
      </linearGradient>
     </defs>
     <path fill="url(#Gradient_1138)" stroke="rgb(255,255,255)" id="Drawing_6_0" stroke-width="40" stroke-linejoin="round" d="M 8382,10496 L 8382,9773 8632,9918 8632,10640 8382,10496 Z"/>
    </g>
    <g>
     <defs>
      <linearGradient id="Gradient_1139" gradientUnits="userSpaceOnUse" x1="13006" y1="12880" x2="13258" y2="12880">
       <stop offset="0.1" stop-color="rgb(179,179,179)"/>
       <stop offset="1" stop-color="rgb(229,229,229)"/>
      </linearGradient>
     </defs>
     <path fill="url(#Gradient_1139)" stroke="rgb(255,255,255)" id="Drawing_7_0" stroke-width="40" stroke-linejoin="round" d="M 13007,13170 L 13007,12447 13257,12592 13257,13314 13007,13170 Z"/>
    </g>
    <g>
     <path fill="none" stroke="rgb(0,0,0)" id="Drawing_8_0" stroke-width="40" stroke-linejoin="round" d="M 8382,10496 L 8382,9773 8632,9918 10507,8834 14882,11363 14882,12086 13257,13025 13257,13314 8382,10496 Z"/>
    </g>
    <g>
     <path fill="rgb(127,127,127)" stroke="none" d="M 8757,10569 L 8757,10424 8882,10496 8882,10641 8757,10569 Z"/>
     <path fill="none" stroke="rgb(0,0,0)" id="Drawing_9_0" stroke-width="40" stroke-linejoin="round" d="M 8757,10569 L 8757,10424 8882,10496 8882,10641 8757,10569 Z"/>
    </g>
    <g>
     <path fill="rgb(127,127,127)" stroke="none" d="M 8757,10280 L 8757,10135 8882,10207 8882,10352 8757,10280 Z"/>
     <path fill="none" stroke="rgb(0,0,0)" id="Drawing_10_0" stroke-width="40" stroke-linejoin="round" d="M 8757,10280 L 8757,10135 8882,10207 8882,10352 8757,10280 Z"/>
    </g>
    <g>
     <path fill="rgb(127,127,127)" stroke="none" d="M 9007,10713 L 9007,10568 9132,10640 9132,10785 9007,10713 Z"/>
     <path fill="none" stroke="rgb(0,0,0)" id="Drawing_11_0" stroke-width="40" stroke-linejoin="round" d="M 9007,10713 L 9007,10568 9132,10640 9132,10785 9007,10713 Z"/>
    </g>
    <g>
     <path fill="rgb(127,127,127)" stroke="none" d="M 9007,10424 L 9007,10279 9132,10351 9132,10496 9007,10424 Z"/>
     <path fill="none" stroke="rgb(0,0,0)" id="Drawing_12_0" stroke-width="40" stroke-linejoin="round" d="M 9007,10424 L 9007,10279 9132,10351 9132,10496 9007,10424 Z"/>
    </g>
    <g>
     <path fill="rgb(127,127,127)" stroke="none" d="M 9257,10858 L 9257,10713 9382,10785 9382,10930 9257,10858 Z"/>
     <path fill="none" stroke="rgb(0,0,0)" id="Drawing_13_0" stroke-width="40" stroke-linejoin="round" d="M 9257,10858 L 9257,10713 9382,10785 9382,10930 9257,10858 Z"/>
    </g>
    <g>
     <path fill="rgb(127,127,127)" stroke="none" d="M 9257,10569 L 9257,10424 9382,10496 9382,10641 9257,10569 Z"/>
     <path fill="none" stroke="rgb(0,0,0)" id="Drawing_14_0" stroke-width="40" stroke-linejoin="round" d="M 9257,10569 L 9257,10424 9382,10496 9382,10641 9257,10569 Z"/>
    </g>
    <g>
     <path fill="rgb(127,127,127)" stroke="none" d="M 9507,11002 L 9507,10857 9632,10929 9632,11074 9507,11002 Z"/>
     <path fill="none" stroke="rgb(0,0,0)" id="Drawing_15_0" stroke-width="40" stroke-linejoin="round" d="M 9507,11002 L 9507,10857 9632,10929 9632,11074 9507,11002 Z"/>
    </g>
    <g>
     <path fill="rgb(127,127,127)" stroke="none" d="M 9507,10713 L 9507,10568 9632,10640 9632,10785 9507,10713 Z"/>
     <path fill="none" stroke="rgb(0,0,0)" id="Drawing_16_0" stroke-width="40" stroke-linejoin="round" d="M 9507,10713 L 9507,10568 9632,10640 9632,10785 9507,10713 Z"/>
    </g>
    <g>
     <path fill="rgb(127,127,127)" stroke="none" d="M 9882,11219 L 9882,11074 10007,11146 10007,11291 9882,11219 Z"/>
     <path fill="none" stroke="rgb(0,0,0)" id="Drawing_17_0" stroke-width="40" stroke-linejoin="round" d="M 9882,11219 L 9882,11074 10007,11146 10007,11291 9882,11219 Z"/>
    </g>
    <g>
     <path fill="rgb(127,127,127)" stroke="none" d="M 9882,10930 L 9882,10785 10007,10857 10007,11002 9882,10930 Z"/>
     <path fill="none" stroke="rgb(0,0,0)" id="Drawing_18_0" stroke-width="40" stroke-linejoin="round" d="M 9882,10930 L 9882,10785 10007,10857 10007,11002 9882,10930 Z"/>
    </g>
    <g>
     <path fill="rgb(127,127,127)" stroke="none" d="M 10132,11364 L 10132,11219 10257,11291 10257,11436 10132,11364 Z"/>
     <path fill="none" stroke="rgb(0,0,0)" id="Drawing_19_0" stroke-width="40" stroke-linejoin="round" d="M 10132,11364 L 10132,11219 10257,11291 10257,11436 10132,11364 Z"/>
    </g>
    <g>
     <path fill="rgb(127,127,127)" stroke="none" d="M 10132,11074 L 10132,10929 10257,11001 10257,11146 10132,11074 Z"/>
     <path fill="none" stroke="rgb(0,0,0)" id="Drawing_20_0" stroke-width="40" stroke-linejoin="round" d="M 10132,11074 L 10132,10929 10257,11001 10257,11146 10132,11074 Z"/>
    </g>
    <g>
     <path fill="rgb(127,127,127)" stroke="none" d="M 10382,11508 L 10382,11363 10507,11435 10507,11580 10382,11508 Z"/>
     <path fill="none" stroke="rgb(0,0,0)" id="Drawing_21_0" stroke-width="40" stroke-linejoin="round" d="M 10382,11508 L 10382,11363 10507,11435 10507,11580 10382,11508 Z"/>
    </g>
    <g>
     <path fill="rgb(127,127,127)" stroke="none" d="M 10382,11219 L 10382,11074 10507,11146 10507,11291 10382,11219 Z"/>
     <path fill="none" stroke="rgb(0,0,0)" id="Drawing_22_0" stroke-width="40" stroke-linejoin="round" d="M 10382,11219 L 10382,11074 10507,11146 10507,11291 10382,11219 Z"/>
    </g>
    <g>
     <path fill="rgb(127,127,127)" stroke="none" d="M 10632,11653 L 10632,11508 10757,11580 10757,11725 10632,11653 Z"/>
     <path fill="none" stroke="rgb(0,0,0)" id="Drawing_23_0" stroke-width="40" stroke-linejoin="round" d="M 10632,11653 L 10632,11508 10757,11580 10757,11725 10632,11653 Z"/>
    </g>
    <g>
     <path fill="rgb(127,127,127)" stroke="none" d="M 10632,11364 L 10632,11219 10757,11291 10757,11436 10632,11364 Z"/>
     <path fill="none" stroke="rgb(0,0,0)" id="Drawing_24_0" stroke-width="40" stroke-linejoin="round" d="M 10632,11364 L 10632,11219 10757,11291 10757,11436 10632,11364 Z"/>
    </g>
    <g>
     <path fill="rgb(127,127,127)" stroke="none" d="M 11007,11869 L 11007,11724 11132,11796 11132,11941 11007,11869 Z"/>
     <path fill="none" stroke="rgb(0,0,0)" id="Drawing_25_0" stroke-width="40" stroke-linejoin="round" d="M 11007,11869 L 11007,11724 11132,11796 11132,11941 11007,11869 Z"/>
    </g>
    <g>
     <path fill="rgb(127,127,127)" stroke="none" d="M 11007,11580 L 11007,11435 11132,11507 11132,11652 11007,11580 Z"/>
     <path fill="none" stroke="rgb(0,0,0)" id="Drawing_26_0" stroke-width="40" stroke-linejoin="round" d="M 11007,11580 L 11007,11435 11132,11507 11132,11652 11007,11580 Z"/>
    </g>
    <g>
     <path fill="rgb(127,127,127)" stroke="none" d="M 11257,12014 L 11257,11869 11382,11941 11382,12086 11257,12014 Z"/>
     <path fill="none" stroke="rgb(0,0,0)" id="Drawing_27_0" stroke-width="40" stroke-linejoin="round" d="M 11257,12014 L 11257,11869 11382,11941 11382,12086 11257,12014 Z"/>
    </g>
    <g>
     <path fill="rgb(127,127,127)" stroke="none" d="M 11257,11725 L 11257,11580 11382,11652 11382,11797 11257,11725 Z"/>
     <path fill="none" stroke="rgb(0,0,0)" id="Drawing_28_0" stroke-width="40" stroke-linejoin="round" d="M 11257,11725 L 11257,11580 11382,11652 11382,11797 11257,11725 Z"/>
    </g>
    <g>
     <path fill="rgb(127,127,127)" stroke="none" d="M 11507,12158 L 11507,12013 11632,12085 11632,12230 11507,12158 Z"/>
     <path fill="none" stroke="rgb(0,0,0)" id="Drawing_29_0" stroke-width="40" stroke-linejoin="round" d="M 11507,12158 L 11507,12013 11632,12085 11632,12230 11507,12158 Z"/>
    </g>
    <g>
     <path fill="rgb(127,127,127)" stroke="none" d="M 11507,11869 L 11507,11724 11632,11796 11632,11941 11507,11869 Z"/>
     <path fill="none" stroke="rgb(0,0,0)" id="Drawing_30_0" stroke-width="40" stroke-linejoin="round" d="M 11507,11869 L 11507,11724 11632,11796 11632,11941 11507,11869 Z"/>
    </g>
    <g>
     <path fill="rgb(127,127,127)" stroke="none" d="M 11757,12303 L 11757,12158 11882,12230 11882,12375 11757,12303 Z"/>
     <path fill="none" stroke="rgb(0,0,0)" id="Drawing_31_0" stroke-width="40" stroke-linejoin="round" d="M 11757,12303 L 11757,12158 11882,12230 11882,12375 11757,12303 Z"/>
    </g>
    <g>
     <path fill="rgb(127,127,127)" stroke="none" d="M 11757,12014 L 11757,11869 11882,11941 11882,12086 11757,12014 Z"/>
     <path fill="none" stroke="rgb(0,0,0)" id="Drawing_32_0" stroke-width="40" stroke-linejoin="round" d="M 11757,12014 L 11757,11869 11882,11941 11882,12086 11757,12014 Z"/>
    </g>
   </g>
  </g>
 </g>
</svg>