<?xml version="1.0" encoding="UTF-8"?>

<svg version="1.2" baseProfile="tiny" width="30.71mm" height="25.61mm" viewBox="8633 17203 3071 2561" preserveAspectRatio="xMidYMid" fill-rule="evenodd" stroke-width="28.222" stroke-linejoin="round" xmlns="http://www.w3.org/2000/svg" xmlns:xlink="http://www.w3.org/1999/xlink" xml:space="preserve">
 <g visibility="visible" id="Slide_1">
  <g id="DrawingGroup_1">
   <g>
    <path fill="rgb(221,221,221)" stroke="none" d="M 10593,19673 C 11068,19673 11684,19393 11684,19113 11684,18833 11666,18693 11320,18693 11320,18993 10593,19272 10593,19673 Z"/>
    <path fill="none" stroke="rgb(221,221,221)" id="Drawing_1_0" stroke-width="40" stroke-linejoin="round" d="M 10593,19673 C 11068,19673 11684,19393 11684,19113 11684,18833 11666,18693 11320,18693 11320,18993 10593,19272 10593,19673 Z"/>
   </g>
   <g>
    <defs>
     <linearGradient id="Gradient_1093" gradientUnits="userSpaceOnUse" x1="8652" y1="18901" x2="11321" y2="18905">
      <stop offset="0" stop-color="rgb(0,115,188)"/>
      <stop offset="0.5" stop-color="rgb(127,185,221)"/>
      <stop offset="1" stop-color="rgb(0,115,188)"/>
     </linearGradient>
    </defs>
    <path fill="url(#Gradient_1093)" stroke="none" id="Drawing_2_0" d="M 11321,18063 L 11321,18588 11321,18890 11320,18948 11320,18948 11320,18948 11320,18948 11320,18948 11320,18947 11320,18940 11320,18903 11314,18993 11294,19080 11263,19163 11219,19242 11164,19316 11099,19385 11024,19449 10939,19508 10845,19561 10743,19607 10633,19648 10516,19682 10393,19708 10263,19728 10129,19740 9989,19744 9849,19740 9715,19728 9585,19708 9462,19682 9345,19648 9235,19607 9132,19561 9038,19508 8953,19449 8878,19385 8812,19316 8757,19242 8713,19163 8681,19080 8661,18993 8654,18903 8654,18903 8654,18903 8654,18903 8654,18903 8654,18902 8654,18899 8654,18887 8654,18841 8654,18667 8654,18063 8661,18153 8681,18240 8715,18322 8760,18401 8817,18475 8884,18544 8961,18608 9048,18667 9143,18720 9246,18766 9356,18807 9472,18841 9595,18867 9722,18887 9853,18899 9988,18903 10123,18899 10254,18887 10381,18867 10503,18841 10620,18807 10730,18766 10833,18720 10928,18667 11014,18608 11091,18544 11158,18475 11215,18401 11260,18322 11294,18240 11314,18153 11321,18063 Z"/>
    <path fill="none" stroke="rgb(255,255,255)" id="Drawing_2_1" stroke-width="40" stroke-linejoin="round" d="M 11321,18063 C 11321,18063 11321,19184 11320,18903 11322,19394 10745,19744 9989,19744 9233,19744 8655,19394 8654,18903 8655,18904 8654,18553 8654,18063 8654,18553 9260,18903 9988,18903 10716,18903 11321,18553 11321,18063 Z"/>
   </g>
   <g>
    <defs>
     <linearGradient id="Gradient_1094" gradientUnits="userSpaceOnUse" x1="9986" y1="17223" x2="9986" y2="18902">
      <stop offset="0.1" stop-color="rgb(0,115,188)"/>
      <stop offset="1" stop-color="rgb(127,185,221)"/>
     </linearGradient>
    </defs>
    <path fill="url(#Gradient_1094)" stroke="none" id="Drawing_3_0" d="M 9986,17223 L 10126,17227 10260,17240 10390,17260 10513,17287 10630,17322 10740,17363 10842,17411 10936,17464 11021,17523 11097,17587 11162,17656 11217,17730 11261,17808 11293,17889 11312,17974 11319,18062 11312,18150 11293,18235 11261,18316 11217,18394 11162,18468 11097,18537 11021,18601 10936,18661 10842,18714 10740,18762 10630,18803 10513,18838 10390,18865 10260,18885 10126,18898 9986,18902 9846,18898 9712,18885 9582,18865 9459,18838 9342,18803 9232,18762 9130,18714 9036,18661 8951,18601 8875,18537 8810,18468 8755,18394 8711,18316 8679,18235 8660,18150 8653,18062 8660,17974 8679,17889 8711,17808 8755,17730 8810,17656 8875,17587 8951,17523 9036,17464 9130,17411 9232,17363 9342,17322 9459,17287 9582,17260 9712,17240 9846,17227 9986,17223 Z"/>
    <path fill="none" stroke="rgb(255,255,255)" id="Drawing_3_1" stroke-width="40" stroke-linejoin="round" d="M 9986,17223 C 10742,17223 11319,17586 11319,18062 11319,18538 10742,18902 9986,18902 9230,18902 8653,18538 8653,18062 8653,17586 9230,17223 9986,17223 Z"/>
   </g>
   <g>
    <path fill="rgb(255,255,255)" stroke="none" d="M 10472,18133 L 10351,18203 10836,18483 10714,18553 10229,18273 10108,18343 10108,18133 10472,18133 Z"/>
    <path fill="none" stroke="rgb(255,255,255)" id="Drawing_4_0" stroke-width="40" stroke-linejoin="round" d="M 10472,18133 L 10351,18203 10836,18483 10714,18553 10229,18273 10108,18343 10108,18133 10472,18133 Z"/>
   </g>
   <g>
    <path fill="rgb(255,255,255)" stroke="none" d="M 9744,17853 L 9865,17783 9865,17993 9501,17993 9622,17923 9138,17643 9259,17573 9744,17853 Z"/>
    <path fill="none" stroke="rgb(255,255,255)" id="Drawing_5_0" stroke-width="40" stroke-linejoin="round" d="M 9744,17853 L 9865,17783 9865,17993 9501,17993 9622,17923 9138,17643 9259,17573 9744,17853 Z"/>
   </g>
   <g>
    <path fill="rgb(255,255,255)" stroke="none" d="M 9259,18413 L 9745,18133 9866,18203 9380,18483 9501,18553 9138,18553 9138,18343 9259,18413 Z"/>
    <path fill="none" stroke="rgb(255,255,255)" id="Drawing_6_0" stroke-width="40" stroke-linejoin="round" d="M 9259,18413 L 9745,18133 9866,18203 9380,18483 9501,18553 9138,18553 9138,18343 9259,18413 Z"/>
   </g>
   <g>
    <path fill="rgb(255,255,255)" stroke="none" d="M 10592,17643 L 10471,17573 10835,17573 10835,17783 10714,17713 10229,17993 10108,17923 10592,17643 Z"/>
    <path fill="none" stroke="rgb(255,255,255)" id="Drawing_7_0" stroke-width="40" stroke-linejoin="round" d="M 10592,17643 L 10471,17573 10835,17573 10835,17783 10714,17713 10229,17993 10108,17923 10592,17643 Z"/>
   </g>
   <g>
    <path fill="none" stroke="rgb(0,0,0)" id="Drawing_8_0" stroke-width="40" stroke-linejoin="round" d="M 9986,17223 C 10742,17223 11321,17587 11321,18063 L 11320,18903 C 11320,19393 10714,19743 9987,19743 9260,19743 8653,19393 8653,18903 8653,18903 8654,18063 8653,18062 8653,17586 9230,17223 9986,17223 Z"/>
   </g>
  </g>
 </g>
</svg>