<?xml version="1.0" encoding="UTF-8"?>

<svg version="1.2" baseProfile="tiny" width="71.27mm" height="49.4mm" viewBox="5177 16526 7127 4940" preserveAspectRatio="xMidYMid" fill-rule="evenodd" stroke-width="28.222" stroke-linejoin="round" xmlns="http://www.w3.org/2000/svg" xmlns:xlink="http://www.w3.org/1999/xlink" xml:space="preserve">
 <g visibility="visible" id="Slide_1">
  <g id="DrawingGroup_1">
   <g>
    <path fill="rgb(221,221,221)" stroke="none" d="M 10059,21447 C 10401,21447 12303,20726 12303,20366 12303,20005 11399,19645 11056,19645 11056,19861 10059,21158 10059,21447 Z"/>
    <path fill="none" stroke="rgb(221,221,221)" id="Drawing_1_0" stroke-linejoin="round" d="M 10059,21447 C 10401,21447 12303,20726 12303,20366 12303,20005 11399,19645 11056,19645 11056,19861 10059,21158 10059,21447 Z"/>
   </g>
   <g id="DrawingGroup_2">
    <g>
     <defs>
      <linearGradient id="Gradient_1184" gradientUnits="userSpaceOnUse" x1="8562" y1="16546" x2="8562" y2="20149">
       <stop offset="0.1" stop-color="rgb(51,51,51)"/>
       <stop offset="1" stop-color="rgb(153,153,153)"/>
      </linearGradient>
     </defs>
     <path fill="url(#Gradient_1184)" stroke="rgb(178,178,178)" id="Drawing_2_0" stroke-width="40" stroke-linejoin="round" d="M 9809,20149 L 5446,17627 7316,16546 11679,19068 9809,20149 Z"/>
    </g>
    <g>
     <defs>
      <linearGradient id="Gradient_1185" gradientUnits="userSpaceOnUse" x1="5442" y1="19460" x2="9811" y2="19468">
       <stop offset="0.1" stop-color="rgb(51,51,51)"/>
       <stop offset="1" stop-color="rgb(153,153,153)"/>
      </linearGradient>
     </defs>
     <path fill="url(#Gradient_1185)" stroke="rgb(178,178,178)" id="Drawing_3_0" stroke-width="40" stroke-linejoin="round" d="M 5446,18780 L 5446,17627 9809,20149 9809,21302 5446,18780 Z"/>
    </g>
    <g>
     <path fill="rgb(51,51,51)" stroke="none" d="M 11477,20338 L 10601,20845 9810,20845 9810,20149 11477,19185 11477,20338 Z"/>
     <path fill="rgb(52,52,52)" stroke="none" d="M 10601,20845 L 9810,21302 9810,20845 10601,20845 Z M 11477,19185 L 11680,19068 11680,20221 11477,20338 11477,19185 Z M 11466,20345 L 10620,20834 9810,20834 9810,20149 11466,19192 11466,20345 Z"/>
     <path fill="rgb(53,53,53)" stroke="none" d="M 10620,20834 L 9810,21302 9810,20834 10620,20834 Z M 11466,19192 L 11680,19068 11680,20221 11466,20345 11466,19192 Z M 11455,20351 L 10639,20823 9810,20823 9810,20149 11455,19198 11455,20351 Z"/>
     <path fill="rgb(54,54,54)" stroke="none" d="M 10639,20823 L 9810,21302 9810,20823 10639,20823 Z M 11455,19198 L 11680,19068 11680,20221 11455,20351 11455,19198 Z M 11444,20357 L 10658,20812 9810,20812 9810,20149 11444,19204 11444,20357 Z"/>
     <path fill="rgb(55,55,55)" stroke="none" d="M 10658,20812 L 9810,21302 9810,20812 10658,20812 Z M 11444,19204 L 11680,19068 11680,20221 11444,20357 11444,19204 Z M 11433,20364 L 10677,20801 9810,20801 9810,20149 11433,19211 11433,20364 Z"/>
     <path fill="rgb(56,56,56)" stroke="none" d="M 10677,20801 L 9810,21302 9810,20801 10677,20801 Z M 11433,19211 L 11680,19068 11680,20221 11433,20364 11433,19211 Z M 11422,20370 L 10696,20790 9810,20790 9810,20149 11422,19217 11422,20370 Z"/>
     <path fill="rgb(57,57,57)" stroke="none" d="M 10696,20790 L 9810,21302 9810,20790 10696,20790 Z M 11422,19217 L 11680,19068 11680,20221 11422,20370 11422,19217 Z M 11411,20377 L 10715,20779 9810,20779 9810,20149 11411,19224 11411,20377 Z"/>
     <path fill="rgb(58,58,58)" stroke="none" d="M 10715,20779 L 9810,21302 9810,20779 10715,20779 Z M 11411,19224 L 11680,19068 11680,20221 11411,20377 11411,19224 Z M 11400,20383 L 10734,20768 9810,20768 9810,20149 11400,19230 11400,20383 Z"/>
     <path fill="rgb(59,59,59)" stroke="none" d="M 10734,20768 L 9810,21302 9810,20768 10734,20768 Z M 11400,19230 L 11680,19068 11680,20221 11400,20383 11400,19230 Z M 11389,20389 L 10753,20757 9810,20757 9810,20149 11389,19236 11389,20389 Z"/>
     <path fill="rgb(60,60,60)" stroke="none" d="M 10753,20757 L 9810,21302 9810,20757 10753,20757 Z M 11389,19236 L 11680,19068 11680,20221 11389,20389 11389,19236 Z M 11378,20396 L 10772,20746 9810,20746 9810,20149 11378,19243 11378,20396 Z"/>
     <path fill="rgb(61,61,61)" stroke="none" d="M 10772,20746 L 9810,21302 9810,20746 10772,20746 Z M 11378,19243 L 11680,19068 11680,20221 11378,20396 11378,19243 Z M 11367,20402 L 10791,20735 9810,20735 9810,20149 11367,19249 11367,20402 Z"/>
     <path fill="rgb(62,62,62)" stroke="none" d="M 10791,20735 L 9810,21302 9810,20735 10791,20735 Z M 11367,19249 L 11680,19068 11680,20221 11367,20402 11367,19249 Z M 11356,20408 L 10810,20724 9810,20724 9810,20149 11356,19255 11356,20408 Z"/>
     <path fill="rgb(63,63,63)" stroke="none" d="M 10810,20724 L 9810,21302 9810,20724 10810,20724 Z M 11356,19255 L 11680,19068 11680,20221 11356,20408 11356,19255 Z M 11345,20415 L 10829,20713 9810,20713 9810,20149 11345,19262 11345,20415 Z"/>
     <path fill="rgb(64,64,64)" stroke="none" d="M 10829,20713 L 9810,21302 9810,20713 10829,20713 Z M 11345,19262 L 11680,19068 11680,20221 11345,20415 11345,19262 Z M 11334,20421 L 10848,20702 9810,20702 9810,20149 11334,19268 11334,20421 Z"/>
     <path fill="rgb(65,65,65)" stroke="none" d="M 10848,20702 L 9810,21302 9810,20702 10848,20702 Z M 11334,19268 L 11680,19068 11680,20221 11334,20421 11334,19268 Z M 11323,20427 L 10867,20691 9810,20691 9810,20149 11323,19274 11323,20427 Z"/>
     <path fill="rgb(66,66,66)" stroke="none" d="M 10867,20691 L 9810,21302 9810,20691 10867,20691 Z M 11323,19274 L 11680,19068 11680,20221 11323,20427 11323,19274 Z M 11312,20434 L 10886,20680 9810,20680 9810,20149 11312,19281 11312,20434 Z"/>
     <path fill="rgb(67,67,67)" stroke="none" d="M 10886,20680 L 9810,21302 9810,20680 10886,20680 Z M 11312,19281 L 11680,19068 11680,20221 11312,20434 11312,19281 Z M 11301,20440 L 10905,20669 9810,20669 9810,20149 11301,19287 11301,20440 Z"/>
     <path fill="rgb(68,68,68)" stroke="none" d="M 10905,20669 L 9810,21302 9810,20669 10905,20669 Z M 11301,19287 L 11680,19068 11680,20221 11301,20440 11301,19287 Z M 11290,20446 L 10924,20658 9810,20658 9810,20149 11290,19293 11290,20446 Z"/>
     <path fill="rgb(69,69,69)" stroke="none" d="M 10924,20658 L 9810,21302 9810,20658 10924,20658 Z M 11290,19293 L 11680,19068 11680,20221 11290,20446 11290,19293 Z M 11279,20453 L 10943,20647 9810,20647 9810,20149 11279,19300 11279,20453 Z"/>
     <path fill="rgb(70,70,70)" stroke="none" d="M 10943,20647 L 9810,21302 9810,20647 10943,20647 Z M 11279,19300 L 11680,19068 11680,20221 11279,20453 11279,19300 Z M 11268,20459 L 10962,20636 9810,20636 9810,20149 11268,19306 11268,20459 Z"/>
     <path fill="rgb(71,71,71)" stroke="none" d="M 10962,20636 L 9810,21302 9810,20636 10962,20636 Z M 11268,19306 L 11680,19068 11680,20221 11268,20459 11268,19306 Z M 11257,20466 L 10981,20625 9810,20625 9810,20149 11257,19313 11257,20466 Z"/>
     <path fill="rgb(72,72,72)" stroke="none" d="M 10981,20625 L 9810,21302 9810,20625 10981,20625 Z M 11257,19313 L 11680,19068 11680,20221 11257,20466 11257,19313 Z M 11246,20472 L 11000,20614 9810,20614 9810,20149 11246,19319 11246,20472 Z"/>
     <path fill="rgb(73,73,73)" stroke="none" d="M 11000,20614 L 9810,21302 9810,20614 11000,20614 Z M 11246,19319 L 11680,19068 11680,20221 11246,20472 11246,19319 Z M 11235,20478 L 11019,20603 9810,20603 9810,20149 11235,19325 11235,20478 Z"/>
     <path fill="rgb(74,74,74)" stroke="none" d="M 11019,20603 L 9810,21302 9810,20603 11019,20603 Z M 11235,19325 L 11680,19068 11680,20221 11235,20478 11235,19325 Z M 11224,20485 L 11038,20592 9810,20592 9810,20149 11224,19332 11224,20485 Z"/>
     <path fill="rgb(75,75,75)" stroke="none" d="M 11038,20592 L 9810,21302 9810,20592 11038,20592 Z M 11224,19332 L 11680,19068 11680,20221 11224,20485 11224,19332 Z M 11213,20491 L 11057,20581 9810,20581 9810,20149 11213,19338 11213,20491 Z"/>
     <path fill="rgb(76,76,76)" stroke="none" d="M 11057,20581 L 9810,21302 9810,20581 11057,20581 Z M 11213,19338 L 11680,19068 11680,20221 11213,20491 11213,19338 Z M 11202,20497 L 11076,20570 9810,20570 9810,20149 11202,19344 11202,20497 Z"/>
     <path fill="rgb(77,77,77)" stroke="none" d="M 11076,20570 L 9810,21302 9810,20570 11076,20570 Z M 11202,19344 L 11680,19068 11680,20221 11202,20497 11202,19344 Z M 11191,20504 L 11095,20559 9810,20559 9810,20149 11191,19351 11191,20504 Z"/>
     <path fill="rgb(78,78,78)" stroke="none" d="M 11095,20559 L 9810,21302 9810,20559 11095,20559 Z M 11191,19351 L 11680,19068 11680,20221 11191,20504 11191,19351 Z M 11180,20510 L 11114,20548 9810,20548 9810,20149 11180,19357 11180,20510 Z"/>
     <path fill="rgb(79,79,79)" stroke="none" d="M 11114,20548 L 9810,21302 9810,20548 11114,20548 Z M 11180,19357 L 11680,19068 11680,20221 11180,20510 11180,19357 Z M 11169,20516 L 11133,20537 9810,20537 9810,20149 11169,19363 11169,20516 Z"/>
     <path fill="rgb(80,80,80)" stroke="none" d="M 11133,20537 L 9810,21302 9810,20537 11133,20537 Z M 11169,19363 L 11680,19068 11680,20221 11169,20516 11169,19363 Z M 11159,20522 L 11151,20527 9810,20527 9810,20149 11159,19369 11159,20522 Z"/>
     <path fill="rgb(81,81,81)" stroke="none" d="M 11151,20527 L 9810,21302 9810,20527 11151,20527 Z M 11159,19369 L 11680,19068 11680,20221 11159,20522 11159,19369 Z M 11148,20516 L 9810,20516 9810,20149 11148,19376 11148,20516 Z"/>
     <path fill="rgb(82,82,82)" stroke="none" d="M 11148,20516 L 11148,19376 11680,19068 11680,20221 9810,21302 9810,20516 11148,20516 Z M 11137,20505 L 9810,20505 9810,20149 11137,19382 11137,20505 Z"/>
     <path fill="rgb(83,83,83)" stroke="none" d="M 11137,20505 L 11137,19382 11680,19068 11680,20221 9810,21302 9810,20505 11137,20505 Z M 11126,20494 L 9810,20494 9810,20149 11126,19388 11126,20494 Z"/>
     <path fill="rgb(84,84,84)" stroke="none" d="M 11126,20494 L 11126,19388 11680,19068 11680,20221 9810,21302 9810,20494 11126,20494 Z M 11115,20483 L 9810,20483 9810,20149 11115,19395 11115,20483 Z"/>
     <path fill="rgb(85,85,85)" stroke="none" d="M 11115,20483 L 11115,19395 11680,19068 11680,20221 9810,21302 9810,20483 11115,20483 Z M 11104,20472 L 9810,20472 9810,20149 11104,19401 11104,20472 Z"/>
     <path fill="rgb(86,86,86)" stroke="none" d="M 11104,20472 L 11104,19401 11680,19068 11680,20221 9810,21302 9810,20472 11104,20472 Z M 11093,20461 L 9810,20461 9810,20149 11093,19407 11093,20461 Z"/>
     <path fill="rgb(87,87,87)" stroke="none" d="M 11093,20461 L 11093,19407 11680,19068 11680,20221 9810,21302 9810,20461 11093,20461 Z M 11082,20450 L 9810,20450 9810,20149 11082,19414 11082,20450 Z"/>
     <path fill="rgb(88,88,88)" stroke="none" d="M 11082,20450 L 11082,19414 11680,19068 11680,20221 9810,21302 9810,20450 11082,20450 Z M 11071,20439 L 9810,20439 9810,20149 11071,19420 11071,20439 Z"/>
     <path fill="rgb(89,89,89)" stroke="none" d="M 11071,20439 L 11071,19420 11680,19068 11680,20221 9810,21302 9810,20439 11071,20439 Z M 11060,20428 L 9810,20428 9810,20149 11060,19426 11060,20428 Z"/>
     <path fill="rgb(90,90,90)" stroke="none" d="M 11060,20428 L 11060,19426 11680,19068 11680,20221 9810,21302 9810,20428 11060,20428 Z M 11049,20417 L 9810,20417 9810,20149 11049,19433 11049,20417 Z"/>
     <path fill="rgb(91,91,91)" stroke="none" d="M 11049,20417 L 11049,19433 11680,19068 11680,20221 9810,21302 9810,20417 11049,20417 Z M 11038,20406 L 9810,20406 9810,20149 11038,19439 11038,20406 Z"/>
     <path fill="rgb(92,92,92)" stroke="none" d="M 11038,20406 L 11038,19439 11680,19068 11680,20221 9810,21302 9810,20406 11038,20406 Z M 11027,20395 L 9810,20395 9810,20149 11027,19445 11027,20395 Z"/>
     <path fill="rgb(93,93,93)" stroke="none" d="M 11027,20395 L 11027,19445 11680,19068 11680,20221 9810,21302 9810,20395 11027,20395 Z M 11016,20384 L 9810,20384 9810,20149 11016,19452 11016,20384 Z"/>
     <path fill="rgb(94,94,94)" stroke="none" d="M 11016,20384 L 11016,19452 11680,19068 11680,20221 9810,21302 9810,20384 11016,20384 Z M 11005,20373 L 9810,20373 9810,20149 11005,19458 11005,20373 Z"/>
     <path fill="rgb(95,95,95)" stroke="none" d="M 11005,20373 L 11005,19458 11680,19068 11680,20221 9810,21302 9810,20373 11005,20373 Z M 10994,20362 L 9810,20362 9810,20149 10994,19465 10994,20362 Z"/>
     <path fill="rgb(96,96,96)" stroke="none" d="M 10994,20362 L 10994,19465 11680,19068 11680,20221 9810,21302 9810,20362 10994,20362 Z M 10983,20351 L 9810,20351 9810,20149 10983,19471 10983,20351 Z"/>
     <path fill="rgb(97,97,97)" stroke="none" d="M 10983,20351 L 10983,19471 11680,19068 11680,20221 9810,21302 9810,20351 10983,20351 Z M 10972,20340 L 9810,20340 9810,20149 10972,19477 10972,20340 Z"/>
     <path fill="rgb(98,98,98)" stroke="none" d="M 10972,20340 L 10972,19477 11680,19068 11680,20221 9810,21302 9810,20340 10972,20340 Z M 10961,20329 L 9810,20329 9810,20149 10961,19484 10961,20329 Z"/>
     <path fill="rgb(99,99,99)" stroke="none" d="M 10961,20329 L 10961,19484 11680,19068 11680,20221 9810,21302 9810,20329 10961,20329 Z M 10950,20318 L 9810,20318 9810,20149 10950,19490 10950,20318 Z"/>
     <path fill="rgb(100,100,100)" stroke="none" d="M 10950,20318 L 10950,19490 11680,19068 11680,20221 9810,21302 9810,20318 10950,20318 Z M 10939,20307 L 9810,20307 9810,20149 10939,19496 10939,20307 Z"/>
     <path fill="rgb(101,101,101)" stroke="none" d="M 10939,20307 L 10939,19496 11680,19068 11680,20221 9810,21302 9810,20307 10939,20307 Z M 10928,20296 L 9811,20296 9811,20148 10928,19503 10928,20296 Z"/>
     <path fill="rgb(102,102,102)" stroke="none" d="M 9811,20296 L 10928,20296 10928,19503 11680,19068 11680,20221 9810,21302 9810,20149 9811,20148 9811,20296 Z M 10917,20285 L 9822,20285 9822,20142 10917,19509 10917,20285 Z"/>
     <path fill="rgb(103,103,103)" stroke="none" d="M 9822,20285 L 10917,20285 10917,19509 11680,19068 11680,20221 9810,21302 9810,20149 9822,20142 9822,20285 Z M 10906,20274 L 9833,20274 9833,20136 10906,19515 10906,20274 Z"/>
     <path fill="rgb(104,104,104)" stroke="none" d="M 9833,20274 L 10906,20274 10906,19515 11680,19068 11680,20221 9810,21302 9810,20149 9833,20136 9833,20274 Z M 10895,20263 L 9844,20263 9844,20129 10895,19522 10895,20263 Z"/>
     <path fill="rgb(105,105,105)" stroke="none" d="M 9844,20263 L 10895,20263 10895,19522 11680,19068 11680,20221 9810,21302 9810,20149 9844,20129 9844,20263 Z M 10884,20252 L 9855,20252 9855,20123 10884,19528 10884,20252 Z"/>
     <path fill="rgb(106,106,106)" stroke="none" d="M 9855,20252 L 10884,20252 10884,19528 11680,19068 11680,20221 9810,21302 9810,20149 9855,20123 9855,20252 Z M 10873,20241 L 9866,20241 9866,20117 10873,19535 10873,20241 Z"/>
     <path fill="rgb(107,107,107)" stroke="none" d="M 9866,20241 L 10873,20241 10873,19535 11680,19068 11680,20221 9810,21302 9810,20149 9866,20117 9866,20241 Z M 10862,20230 L 9877,20230 9877,20110 10862,19541 10862,20230 Z"/>
     <path fill="rgb(108,108,108)" stroke="none" d="M 9877,20230 L 10862,20230 10862,19541 11680,19068 11680,20221 9810,21302 9810,20149 9877,20110 9877,20230 Z M 10851,20219 L 9888,20219 9888,20104 10851,19547 10851,20219 Z"/>
     <path fill="rgb(109,109,109)" stroke="none" d="M 9888,20219 L 10851,20219 10851,19547 11680,19068 11680,20221 9810,21302 9810,20149 9888,20104 9888,20219 Z M 10841,20209 L 9898,20209 9898,20098 10841,19553 10841,20209 Z"/>
     <path fill="rgb(110,110,110)" stroke="none" d="M 9898,20209 L 10841,20209 10841,19553 11680,19068 11680,20221 9810,21302 9810,20149 9898,20098 9898,20209 Z M 10830,20198 L 9909,20198 9909,20092 10830,19559 10830,20198 Z"/>
     <path fill="rgb(111,111,111)" stroke="none" d="M 9909,20198 L 10830,20198 10830,19559 11680,19068 11680,20221 9810,21302 9810,20149 9909,20092 9909,20198 Z M 10819,20187 L 9920,20187 9920,20085 10819,19566 10819,20187 Z"/>
     <path fill="rgb(112,112,112)" stroke="none" d="M 9920,20187 L 10819,20187 10819,19566 11680,19068 11680,20221 9810,21302 9810,20149 9920,20085 9920,20187 Z M 10808,20176 L 9931,20176 9931,20079 10808,19572 10808,20176 Z"/>
     <path fill="rgb(113,113,113)" stroke="none" d="M 9931,20176 L 10808,20176 10808,19572 11680,19068 11680,20221 9810,21302 9810,20149 9931,20079 9931,20176 Z M 10797,20165 L 9942,20165 9942,20073 10797,19578 10797,20165 Z"/>
     <path fill="rgb(114,114,114)" stroke="none" d="M 9942,20165 L 10797,20165 10797,19578 11680,19068 11680,20221 9810,21302 9810,20149 9942,20073 9942,20165 Z M 10786,20154 L 9953,20154 9953,20066 10786,19585 10786,20154 Z"/>
     <path fill="rgb(115,115,115)" stroke="none" d="M 9953,20154 L 10786,20154 10786,19585 11680,19068 11680,20221 9810,21302 9810,20149 9953,20066 9953,20154 Z M 10775,20143 L 9964,20143 9964,20060 10775,19591 10775,20143 Z"/>
     <path fill="rgb(116,116,116)" stroke="none" d="M 9964,20143 L 10775,20143 10775,19591 11680,19068 11680,20221 9810,21302 9810,20149 9964,20060 9964,20143 Z M 10764,20132 L 9975,20132 9975,20054 10764,19598 10764,20132 Z"/>
     <path fill="rgb(117,117,117)" stroke="none" d="M 9975,20132 L 10764,20132 10764,19598 11680,19068 11680,20221 9810,21302 9810,20149 9975,20054 9975,20132 Z M 10753,20121 L 9986,20121 9986,20047 10753,19604 10753,20121 Z"/>
     <path fill="rgb(118,118,118)" stroke="none" d="M 9986,20121 L 10753,20121 10753,19604 11680,19068 11680,20221 9810,21302 9810,20149 9986,20047 9986,20121 Z M 10742,20110 L 9997,20110 9997,20041 10742,19610 10742,20110 Z"/>
     <path fill="rgb(119,119,119)" stroke="none" d="M 9997,20110 L 10742,20110 10742,19610 11680,19068 11680,20221 9810,21302 9810,20149 9997,20041 9997,20110 Z M 10731,20099 L 10008,20099 10008,20035 10731,19617 10731,20099 Z"/>
     <path fill="rgb(120,120,120)" stroke="none" d="M 10008,20099 L 10731,20099 10731,19617 11680,19068 11680,20221 9810,21302 9810,20149 10008,20035 10008,20099 Z M 10720,20088 L 10019,20088 10019,20028 10720,19623 10720,20088 Z"/>
     <path fill="rgb(121,121,121)" stroke="none" d="M 10019,20088 L 10720,20088 10720,19623 11680,19068 11680,20221 9810,21302 9810,20149 10019,20028 10019,20088 Z M 10709,20077 L 10030,20077 10030,20022 10709,19629 10709,20077 Z"/>
     <path fill="rgb(122,122,122)" stroke="none" d="M 10030,20077 L 10709,20077 10709,19629 11680,19068 11680,20221 9810,21302 9810,20149 10030,20022 10030,20077 Z M 10698,20066 L 10041,20066 10041,20015 10698,19636 10698,20066 Z"/>
     <path fill="rgb(123,123,123)" stroke="none" d="M 10041,20066 L 10698,20066 10698,19636 11680,19068 11680,20221 9810,21302 9810,20149 10041,20015 10041,20066 Z M 10687,20055 L 10052,20055 10052,20009 10687,19642 10687,20055 Z"/>
     <path fill="rgb(124,124,124)" stroke="none" d="M 10052,20055 L 10687,20055 10687,19642 11680,19068 11680,20221 9810,21302 9810,20149 10052,20009 10052,20055 Z M 10676,20044 L 10063,20044 10063,20003 10676,19648 10676,20044 Z"/>
     <path fill="rgb(125,125,125)" stroke="none" d="M 10063,20044 L 10676,20044 10676,19648 11680,19068 11680,20221 9810,21302 9810,20149 10063,20003 10063,20044 Z M 10665,20033 L 10074,20033 10074,19996 10665,19655 10665,20033 Z"/>
     <path fill="rgb(126,126,126)" stroke="none" d="M 10074,20033 L 10665,20033 10665,19655 11680,19068 11680,20221 9810,21302 9810,20149 10074,19996 10074,20033 Z M 10654,20022 L 10085,20022 10085,19990 10654,19661 10654,20022 Z"/>
     <path fill="rgb(127,127,127)" stroke="none" d="M 10085,20022 L 10654,20022 10654,19661 11680,19068 11680,20221 9810,21302 9810,20149 10085,19990 10085,20022 Z M 10643,20011 L 10096,20011 10096,19984 10643,19667 10643,20011 Z"/>
     <path fill="rgb(128,128,128)" stroke="none" d="M 10096,20011 L 10643,20011 10643,19667 11680,19068 11680,20221 9810,21302 9810,20149 10096,19984 10096,20011 Z M 10632,20000 L 10107,20000 10107,19977 10632,19674 10632,20000 Z"/>
     <path fill="rgb(129,129,129)" stroke="none" d="M 10107,20000 L 10632,20000 10632,19674 11680,19068 11680,20221 9810,21302 9810,20149 10107,19977 10107,20000 Z M 10621,19989 L 10118,19989 10118,19971 10621,19680 10621,19989 Z"/>
     <path fill="rgb(130,130,130)" stroke="none" d="M 10118,19989 L 10621,19989 10621,19680 11680,19068 11680,20221 9810,21302 9810,20149 10118,19971 10118,19989 Z M 10610,19978 L 10129,19978 10129,19965 10610,19687 10610,19978 Z"/>
     <path fill="rgb(131,131,131)" stroke="none" d="M 10129,19978 L 10610,19978 10610,19687 11680,19068 11680,20221 9810,21302 9810,20149 10129,19965 10129,19978 Z M 10599,19967 L 10140,19967 10140,19958 10599,19693 10599,19967 Z"/>
     <path fill="rgb(132,132,132)" stroke="none" d="M 10140,19967 L 10599,19967 10599,19693 11680,19068 11680,20221 9810,21302 9810,20149 10140,19958 10140,19967 Z M 10588,19956 L 10151,19956 10151,19952 10588,19699 10588,19956 Z"/>
     <path fill="rgb(133,133,133)" stroke="none" d="M 10151,19956 L 10588,19956 10588,19699 11680,19068 11680,20221 9810,21302 9810,20149 10151,19952 10151,19956 Z M 10577,19945 L 10163,19945 10577,19706 10577,19945 Z"/>
     <path fill="rgb(134,134,134)" stroke="none" d="M 10577,19945 L 10577,19706 11680,19068 11680,20221 9810,21302 9810,20149 10163,19945 10577,19945 Z M 10566,19934 L 10182,19934 10566,19712 10566,19934 Z"/>
     <path fill="rgb(135,135,135)" stroke="none" d="M 10566,19934 L 10566,19712 11680,19068 11680,20221 9810,21302 9810,20149 10182,19934 10566,19934 Z M 10555,19923 L 10201,19923 10555,19718 10555,19923 Z"/>
     <path fill="rgb(136,136,136)" stroke="none" d="M 10555,19923 L 10555,19718 11680,19068 11680,20221 9810,21302 9810,20149 10201,19923 10555,19923 Z M 10544,19912 L 10220,19912 10544,19725 10544,19912 Z"/>
     <path fill="rgb(137,137,137)" stroke="none" d="M 10544,19912 L 10544,19725 11680,19068 11680,20221 9810,21302 9810,20149 10220,19912 10544,19912 Z M 10533,19901 L 10239,19901 10533,19731 10533,19901 Z"/>
     <path fill="rgb(138,138,138)" stroke="none" d="M 10533,19901 L 10533,19731 11680,19068 11680,20221 9810,21302 9810,20149 10239,19901 10533,19901 Z M 10523,19891 L 10256,19891 10523,19737 10523,19891 Z"/>
     <path fill="rgb(139,139,139)" stroke="none" d="M 10523,19891 L 10523,19737 11680,19068 11680,20221 9810,21302 9810,20149 10256,19891 10523,19891 Z M 10512,19880 L 10275,19880 10512,19743 10512,19880 Z"/>
     <path fill="rgb(140,140,140)" stroke="none" d="M 10512,19880 L 10512,19743 11680,19068 11680,20221 9810,21302 9810,20149 10275,19880 10512,19880 Z M 10501,19869 L 10294,19869 10501,19750 10501,19869 Z"/>
     <path fill="rgb(141,141,141)" stroke="none" d="M 10501,19869 L 10501,19750 11680,19068 11680,20221 9810,21302 9810,20149 10294,19869 10501,19869 Z M 10490,19858 L 10313,19858 10490,19756 10490,19858 Z"/>
     <path fill="rgb(142,142,142)" stroke="none" d="M 10490,19858 L 10490,19756 11680,19068 11680,20221 9810,21302 9810,20149 10313,19858 10490,19858 Z M 10479,19847 L 10332,19847 10479,19762 10479,19847 Z"/>
     <path fill="rgb(143,143,143)" stroke="none" d="M 10479,19847 L 10479,19762 11680,19068 11680,20221 9810,21302 9810,20149 10332,19847 10479,19847 Z M 10468,19836 L 10351,19836 10468,19769 10468,19836 Z"/>
     <path fill="rgb(144,144,144)" stroke="none" d="M 10468,19836 L 10468,19769 11680,19068 11680,20221 9810,21302 9810,20149 10351,19836 10468,19836 Z M 10457,19825 L 10370,19825 10457,19775 10457,19825 Z"/>
     <path fill="rgb(145,145,145)" stroke="none" d="M 10457,19825 L 10457,19775 11680,19068 11680,20221 9810,21302 9810,20149 10370,19825 10457,19825 Z M 10446,19814 L 10390,19814 10446,19781 10446,19814 Z"/>
     <path fill="rgb(146,146,146)" stroke="none" d="M 10446,19814 L 10446,19781 11680,19068 11680,20221 9810,21302 9810,20149 10390,19814 10446,19814 Z M 10435,19803 L 10409,19803 10435,19788 10435,19803 Z"/>
     <path fill="rgb(147,147,147)" stroke="none" d="M 10435,19803 L 10435,19788 11680,19068 11680,20221 9810,21302 9810,20149 10409,19803 10435,19803 Z"/>
     <path fill="rgb(148,148,148)" stroke="none" d="M 9810,21302 L 9810,20149 11680,19068 11680,20221 9810,21302 Z"/>
     <path fill="rgb(149,149,149)" stroke="none" d="M 9810,21302 L 9810,20149 11680,19068 11680,20221 9810,21302 Z"/>
     <path fill="rgb(150,150,150)" stroke="none" d="M 9810,21302 L 9810,20149 11680,19068 11680,20221 9810,21302 Z"/>
     <path fill="rgb(151,151,151)" stroke="none" d="M 9810,21302 L 9810,20149 11680,19068 11680,20221 9810,21302 Z"/>
     <path fill="rgb(153,153,153)" stroke="none" d="M 9810,21302 L 9810,20149 11680,19068 11680,20221 9810,21302 Z"/>
     <path fill="none" stroke="rgb(178,178,178)" id="Drawing_4_0" stroke-width="40" stroke-linejoin="round" d="M 9810,21302 L 9810,20149 11680,19068 11680,20221 9810,21302 Z"/>
    </g>
    <g>
     <defs>
      <linearGradient id="Gradient_1186" gradientUnits="userSpaceOnUse" x1="5195" y1="18131" x2="5446" y2="18131">
       <stop offset="0.1" stop-color="rgb(51,51,51)"/>
       <stop offset="1" stop-color="rgb(153,153,153)"/>
      </linearGradient>
     </defs>
     <path fill="url(#Gradient_1186)" stroke="rgb(178,178,178)" id="Drawing_5_0" stroke-width="40" stroke-linejoin="round" d="M 5197,18636 L 5197,17483 5446,17627 5446,18780 5197,18636 Z"/>
    </g>
    <g>
     <defs>
      <linearGradient id="Gradient_1187" gradientUnits="userSpaceOnUse" x1="9933" y1="21446" x2="9935" y2="20149">
       <stop offset="0.1" stop-color="rgb(102,102,102)"/>
       <stop offset="1" stop-color="rgb(153,153,153)"/>
      </linearGradient>
     </defs>
     <path fill="url(#Gradient_1187)" stroke="rgb(178,178,178)" id="Drawing_6_0" stroke-width="40" stroke-linejoin="round" d="M 9810,21302 L 9810,20149 10059,20293 10059,21446 9810,21302 Z"/>
    </g>
    <g>
     <path fill="none" stroke="rgb(0,0,0)" id="Drawing_7_0" stroke-width="40" stroke-linejoin="round" d="M 5197,18636 L 5197,17483 5446,17627 7316,16546 11680,19068 11680,20221 10059,21158 10059,21446 5197,18636 Z"/>
    </g>
    <g>
     <path fill="rgb(0,0,0)" stroke="none" d="M 6942,19500 L 6942,19356 7067,19428 7067,19572 6942,19500 Z"/>
     <path fill="none" stroke="rgb(178,178,178)" id="Drawing_8_0" stroke-width="40" stroke-linejoin="round" d="M 6942,19500 L 6942,19356 7067,19428 7067,19572 6942,19500 Z"/>
    </g>
    <g>
     <path fill="rgb(0,0,0)" stroke="none" d="M 7316,19717 L 7316,19573 7441,19645 7441,19789 7316,19717 Z"/>
     <path fill="none" stroke="rgb(178,178,178)" id="Drawing_9_0" stroke-width="40" stroke-linejoin="round" d="M 7316,19717 L 7316,19573 7441,19645 7441,19789 7316,19717 Z"/>
    </g>
    <g>
     <path fill="rgb(0,0,0)" stroke="none" d="M 7566,19861 L 7566,19717 7691,19789 7691,19933 7566,19861 Z"/>
     <path fill="none" stroke="rgb(178,178,178)" id="Drawing_10_0" stroke-width="40" stroke-linejoin="round" d="M 7566,19861 L 7566,19717 7691,19789 7691,19933 7566,19861 Z"/>
    </g>
    <g>
     <path fill="rgb(0,0,0)" stroke="none" d="M 7815,20005 L 7815,19861 7940,19933 7940,20077 7815,20005 Z"/>
     <path fill="none" stroke="rgb(178,178,178)" id="Drawing_11_0" stroke-width="40" stroke-linejoin="round" d="M 7815,20005 L 7815,19861 7940,19933 7940,20077 7815,20005 Z"/>
    </g>
    <g>
     <path fill="rgb(0,0,0)" stroke="none" d="M 8064,20149 L 8064,20005 8189,20077 8189,20221 8064,20149 Z"/>
     <path fill="none" stroke="rgb(178,178,178)" id="Drawing_12_0" stroke-width="40" stroke-linejoin="round" d="M 8064,20149 L 8064,20005 8189,20077 8189,20221 8064,20149 Z"/>
    </g>
    <g>
     <path fill="rgb(0,0,0)" stroke="none" d="M 9062,20725 L 9062,20581 9685,20941 9685,21085 9062,20725 Z"/>
     <path fill="none" stroke="rgb(178,178,178)" id="Drawing_13_0" stroke-width="40" stroke-linejoin="round" d="M 9062,20725 L 9062,20581 9685,20941 9685,21085 9062,20725 Z"/>
    </g>
    <g>
     <path fill="rgb(0,0,0)" stroke="none" d="M 8314,20293 L 8314,20149 8937,20509 8937,20653 8314,20293 Z"/>
     <path fill="none" stroke="rgb(178,178,178)" id="Drawing_14_0" stroke-width="40" stroke-linejoin="round" d="M 8314,20293 L 8314,20149 8937,20509 8937,20653 8314,20293 Z"/>
    </g>
    <g>
     <path fill="rgb(102,102,102)" stroke="none" d="M 8937,20221 L 8937,19933 9685,20365 9685,20654 8937,20221 Z"/>
     <path fill="none" stroke="rgb(178,178,178)" id="Drawing_15_0" stroke-width="40" stroke-linejoin="round" d="M 8937,20221 L 8937,19933 9685,20365 9685,20654 8937,20221 Z"/>
    </g>
    <g>
     <path fill="rgb(0,0,0)" stroke="none" d="M 9436,20653 L 9436,20509 9561,20581 9561,20725 9436,20653 Z"/>
     <path fill="none" stroke="rgb(178,178,178)" id="Drawing_16_0" stroke-width="40" stroke-linejoin="round" d="M 9436,20653 L 9436,20509 9561,20581 9561,20725 9436,20653 Z"/>
    </g>
    <g>
     <path fill="rgb(0,0,0)" stroke="none" d="M 9311,20581 L 9311,20437 9436,20509 9436,20653 9311,20581 Z"/>
     <path fill="none" stroke="rgb(178,178,178)" id="Drawing_17_0" stroke-width="40" stroke-linejoin="round" d="M 9311,20581 L 9311,20437 9436,20509 9436,20653 9311,20581 Z"/>
    </g>
    <g>
     <path fill="rgb(0,0,0)" stroke="none" d="M 9186,20509 L 9186,20365 9311,20437 9311,20581 9186,20509 Z"/>
     <path fill="none" stroke="rgb(178,178,178)" id="Drawing_18_0" stroke-width="40" stroke-linejoin="round" d="M 9186,20509 L 9186,20365 9311,20437 9311,20581 9186,20509 Z"/>
    </g>
    <g>
     <path fill="rgb(0,0,0)" stroke="none" d="M 9062,20437 L 9062,20293 9187,20365 9187,20509 9062,20437 Z"/>
     <path fill="none" stroke="rgb(178,178,178)" id="Drawing_19_0" stroke-width="40" stroke-linejoin="round" d="M 9062,20437 L 9062,20293 9187,20365 9187,20509 9062,20437 Z"/>
    </g>
    <g>
     <path fill="rgb(102,102,102)" stroke="none" d="M 8064,19716 L 8064,19428 8812,19860 8812,20149 8064,19716 Z"/>
     <path fill="none" stroke="rgb(178,178,178)" id="Drawing_20_0" stroke-width="40" stroke-linejoin="round" d="M 8064,19716 L 8064,19428 8812,19860 8812,20149 8064,19716 Z"/>
    </g>
    <g>
     <path fill="rgb(0,0,0)" stroke="none" d="M 8563,20149 L 8563,20005 8688,20077 8688,20221 8563,20149 Z"/>
     <path fill="none" stroke="rgb(178,178,178)" id="Drawing_21_0" stroke-width="40" stroke-linejoin="round" d="M 8563,20149 L 8563,20005 8688,20077 8688,20221 8563,20149 Z"/>
    </g>
    <g>
     <path fill="rgb(0,0,0)" stroke="none" d="M 8438,20077 L 8438,19933 8563,20005 8563,20149 8438,20077 Z"/>
     <path fill="none" stroke="rgb(178,178,178)" id="Drawing_22_0" stroke-width="40" stroke-linejoin="round" d="M 8438,20077 L 8438,19933 8563,20005 8563,20149 8438,20077 Z"/>
    </g>
    <g>
     <path fill="rgb(0,0,0)" stroke="none" d="M 8314,20005 L 8314,19861 8439,19933 8439,20077 8314,20005 Z"/>
     <path fill="none" stroke="rgb(178,178,178)" id="Drawing_23_0" stroke-width="40" stroke-linejoin="round" d="M 8314,20005 L 8314,19861 8439,19933 8439,20077 8314,20005 Z"/>
    </g>
    <g>
     <path fill="rgb(0,0,0)" stroke="none" d="M 8189,19933 L 8189,19789 8314,19861 8314,20005 8189,19933 Z"/>
     <path fill="none" stroke="rgb(178,178,178)" id="Drawing_24_0" stroke-width="40" stroke-linejoin="round" d="M 8189,19933 L 8189,19789 8314,19861 8314,20005 8189,19933 Z"/>
    </g>
   </g>
  </g>
 </g>
</svg>