<?xml version="1.0" encoding="UTF-8"?>

<svg version="1.2" baseProfile="tiny" width="71.27mm" height="49.4mm" viewBox="3907 4715 7127 4940" preserveAspectRatio="xMidYMid" fill-rule="evenodd" stroke-width="28.222" stroke-linejoin="round" xmlns="http://www.w3.org/2000/svg" xmlns:xlink="http://www.w3.org/1999/xlink" xml:space="preserve">
 <g visibility="visible" id="Slide_1">
  <g id="DrawingGroup_1">
   <g>
    <path fill="rgb(221,221,221)" stroke="none" d="M 8789,9636 C 9131,9636 11033,8915 11033,8555 11033,8194 10129,7834 9786,7834 9786,8050 8789,9347 8789,9636 Z"/>
    <path fill="none" stroke="rgb(221,221,221)" id="Drawing_1_0" stroke-linejoin="round" d="M 8789,9636 C 9131,9636 11033,8915 11033,8555 11033,8194 10129,7834 9786,7834 9786,8050 8789,9347 8789,9636 Z"/>
   </g>
   <g id="DrawingGroup_2">
    <g>
     <defs>
      <linearGradient id="Gradient_1180" gradientUnits="userSpaceOnUse" x1="7292" y1="4735" x2="7292" y2="8338">
       <stop offset="0.1" stop-color="rgb(179,179,179)"/>
       <stop offset="1" stop-color="rgb(229,229,229)"/>
      </linearGradient>
     </defs>
     <path fill="url(#Gradient_1180)" stroke="rgb(255,255,255)" id="Drawing_2_0" stroke-width="40" stroke-linejoin="round" d="M 8539,8338 L 4176,5816 6046,4735 10409,7257 8539,8338 Z"/>
    </g>
    <g>
     <defs>
      <linearGradient id="Gradient_1181" gradientUnits="userSpaceOnUse" x1="4172" y1="7649" x2="8541" y2="7657">
       <stop offset="0.1" stop-color="rgb(179,179,179)"/>
       <stop offset="1" stop-color="rgb(229,229,229)"/>
      </linearGradient>
     </defs>
     <path fill="url(#Gradient_1181)" stroke="rgb(255,255,255)" id="Drawing_3_0" stroke-width="40" stroke-linejoin="round" d="M 4176,6969 L 4176,5816 8539,8338 8539,9491 4176,6969 Z"/>
    </g>
    <g>
     <path fill="rgb(179,179,179)" stroke="none" d="M 10195,8534 L 9351,9022 8540,9022 8540,8338 10195,7381 10195,8534 Z"/>
     <path fill="rgb(180,180,180)" stroke="none" d="M 9351,9022 L 8540,9491 8540,9022 9351,9022 Z M 10195,7381 L 10410,7257 10410,8410 10195,8534 10195,7381 Z M 10173,8547 L 9389,9000 8540,9000 8540,8338 10173,7394 10173,8547 Z"/>
     <path fill="rgb(181,181,181)" stroke="none" d="M 9389,9000 L 8540,9491 8540,9000 9389,9000 Z M 10173,7394 L 10410,7257 10410,8410 10173,8547 10173,7394 Z M 10150,8560 L 9429,8977 8540,8977 8540,8338 10150,7407 10150,8560 Z"/>
     <path fill="rgb(182,182,182)" stroke="none" d="M 9429,8977 L 8540,9491 8540,8977 9429,8977 Z M 10150,7407 L 10410,7257 10410,8410 10150,8560 10150,7407 Z M 10128,8573 L 9467,8955 8540,8955 8540,8338 10128,7420 10128,8573 Z"/>
     <path fill="rgb(183,183,183)" stroke="none" d="M 9467,8955 L 8540,9491 8540,8955 9467,8955 Z M 10128,7420 L 10410,7257 10410,8410 10128,8573 10128,7420 Z M 10106,8586 L 9505,8933 8540,8933 8540,8338 10106,7433 10106,8586 Z"/>
     <path fill="rgb(184,184,184)" stroke="none" d="M 9505,8933 L 8540,9491 8540,8933 9505,8933 Z M 10106,7433 L 10410,7257 10410,8410 10106,8586 10106,7433 Z M 10083,8599 L 9545,8910 8540,8910 8540,8338 10083,7446 10083,8599 Z"/>
     <path fill="rgb(185,185,185)" stroke="none" d="M 9545,8910 L 8540,9491 8540,8910 9545,8910 Z M 10083,7446 L 10410,7257 10410,8410 10083,8599 10083,7446 Z M 10061,8612 L 9583,8888 8540,8888 8540,8338 10061,7459 10061,8612 Z"/>
     <path fill="rgb(186,186,186)" stroke="none" d="M 9583,8888 L 8540,9491 8540,8888 9583,8888 Z M 10061,7459 L 10410,7257 10410,8410 10061,8612 10061,7459 Z M 10039,8624 L 9621,8866 8540,8866 8540,8338 10039,7471 10039,8624 Z"/>
     <path fill="rgb(187,187,187)" stroke="none" d="M 9621,8866 L 8540,9491 8540,8866 9621,8866 Z M 10039,7471 L 10410,7257 10410,8410 10039,8624 10039,7471 Z M 10016,8638 L 9661,8843 8540,8843 8540,8338 10016,7485 10016,8638 Z"/>
     <path fill="rgb(188,188,188)" stroke="none" d="M 9661,8843 L 8540,9491 8540,8843 9661,8843 Z M 10016,7485 L 10410,7257 10410,8410 10016,8638 10016,7485 Z M 9994,8650 L 9699,8821 8540,8821 8540,8338 9994,7497 9994,8650 Z"/>
     <path fill="rgb(189,189,189)" stroke="none" d="M 9699,8821 L 8540,9491 8540,8821 9699,8821 Z M 9994,7497 L 10410,7257 10410,8410 9994,8650 9994,7497 Z M 9971,8664 L 9739,8798 8540,8798 8540,8338 9971,7511 9971,8664 Z"/>
     <path fill="rgb(190,190,190)" stroke="none" d="M 9739,8798 L 8540,9491 8540,8798 9739,8798 Z M 9971,7511 L 10410,7257 10410,8410 9971,8664 9971,7511 Z M 9949,8676 L 9777,8776 8540,8776 8540,8338 9949,7523 9949,8676 Z"/>
     <path fill="rgb(191,191,191)" stroke="none" d="M 9777,8776 L 8540,9491 8540,8776 9777,8776 Z M 9949,7523 L 10410,7257 10410,8410 9949,8676 9949,7523 Z M 9927,8689 L 9815,8754 8540,8754 8540,8338 9927,7536 9927,8689 Z"/>
     <path fill="rgb(192,192,192)" stroke="none" d="M 9815,8754 L 8540,9491 8540,8754 9815,8754 Z M 9927,7536 L 10410,7257 10410,8410 9927,8689 9927,7536 Z M 9904,8703 L 9855,8731 8540,8731 8540,8338 9904,7550 9904,8703 Z"/>
     <path fill="rgb(193,193,193)" stroke="none" d="M 9855,8731 L 8540,9491 8540,8731 9855,8731 Z M 9904,7550 L 10410,7257 10410,8410 9904,8703 9904,7550 Z M 9882,8709 L 8540,8709 8540,8338 9882,7562 9882,8709 Z"/>
     <path fill="rgb(194,194,194)" stroke="none" d="M 9882,8709 L 9882,7562 10410,7257 10410,8410 8540,9491 8540,8709 9882,8709 Z M 9860,8687 L 8540,8687 8540,8338 9860,7575 9860,8687 Z"/>
     <path fill="rgb(195,195,195)" stroke="none" d="M 9860,8687 L 9860,7575 10410,7257 10410,8410 8540,9491 8540,8687 9860,8687 Z M 9837,8664 L 8540,8664 8540,8338 9837,7588 9837,8664 Z"/>
     <path fill="rgb(196,196,196)" stroke="none" d="M 9837,8664 L 9837,7588 10410,7257 10410,8410 8540,9491 8540,8664 9837,8664 Z M 9815,8642 L 8540,8642 8540,8338 9815,7601 9815,8642 Z"/>
     <path fill="rgb(197,197,197)" stroke="none" d="M 9815,8642 L 9815,7601 10410,7257 10410,8410 8540,9491 8540,8642 9815,8642 Z M 9792,8619 L 8540,8619 8540,8338 9792,7614 9792,8619 Z"/>
     <path fill="rgb(198,198,198)" stroke="none" d="M 9792,8619 L 9792,7614 10410,7257 10410,8410 8540,9491 8540,8619 9792,8619 Z M 9770,8597 L 8540,8597 8540,8338 9770,7627 9770,8597 Z"/>
     <path fill="rgb(199,199,199)" stroke="none" d="M 9770,8597 L 9770,7627 10410,7257 10410,8410 8540,9491 8540,8597 9770,8597 Z M 9748,8575 L 8540,8575 8540,8338 9748,7640 9748,8575 Z"/>
     <path fill="rgb(200,200,200)" stroke="none" d="M 9748,8575 L 9748,7640 10410,7257 10410,8410 8540,9491 8540,8575 9748,8575 Z M 9725,8552 L 8540,8552 8540,8338 9725,7653 9725,8552 Z"/>
     <path fill="rgb(201,201,201)" stroke="none" d="M 9725,8552 L 9725,7653 10410,7257 10410,8410 8540,9491 8540,8552 9725,8552 Z M 9703,8530 L 8540,8530 8540,8338 9703,7666 9703,8530 Z"/>
     <path fill="rgb(202,202,202)" stroke="none" d="M 9703,8530 L 9703,7666 10410,7257 10410,8410 8540,9491 8540,8530 9703,8530 Z M 9681,8508 L 8540,8508 8540,8338 9681,7678 9681,8508 Z"/>
     <path fill="rgb(203,203,203)" stroke="none" d="M 9681,8508 L 9681,7678 10410,7257 10410,8410 8540,9491 8540,8508 9681,8508 Z M 9658,8485 L 8541,8485 8541,8337 9658,7692 9658,8485 Z"/>
     <path fill="rgb(204,204,204)" stroke="none" d="M 8541,8485 L 9658,8485 9658,7692 10410,7257 10410,8410 8540,9491 8540,8338 8541,8337 8541,8485 Z M 9636,8463 L 8563,8463 8563,8325 9636,7704 9636,8463 Z"/>
     <path fill="rgb(205,205,205)" stroke="none" d="M 8563,8463 L 9636,8463 9636,7704 10410,7257 10410,8410 8540,9491 8540,8338 8563,8325 8563,8463 Z M 9614,8441 L 8585,8441 8585,8312 9614,7717 9614,8441 Z"/>
     <path fill="rgb(206,206,206)" stroke="none" d="M 8585,8441 L 9614,8441 9614,7717 10410,7257 10410,8410 8540,9491 8540,8338 8585,8312 8585,8441 Z M 9591,8418 L 8608,8418 8608,8299 9591,7730 9591,8418 Z"/>
     <path fill="rgb(207,207,207)" stroke="none" d="M 8608,8418 L 9591,8418 9591,7730 10410,7257 10410,8410 8540,9491 8540,8338 8608,8299 8608,8418 Z M 9569,8396 L 8630,8396 8630,8286 9569,7743 9569,8396 Z"/>
     <path fill="rgb(208,208,208)" stroke="none" d="M 8630,8396 L 9569,8396 9569,7743 10410,7257 10410,8410 8540,9491 8540,8338 8630,8286 8630,8396 Z M 9546,8373 L 8653,8373 8653,8273 9546,7756 9546,8373 Z"/>
     <path fill="rgb(209,209,209)" stroke="none" d="M 8653,8373 L 9546,8373 9546,7756 10410,7257 10410,8410 8540,9491 8540,8338 8653,8273 8653,8373 Z M 9524,8351 L 8675,8351 8675,8260 9524,7769 9524,8351 Z"/>
     <path fill="rgb(210,210,210)" stroke="none" d="M 8675,8351 L 9524,8351 9524,7769 10410,7257 10410,8410 8540,9491 8540,8338 8675,8260 8675,8351 Z M 9502,8329 L 8697,8329 8697,8247 9502,7782 9502,8329 Z"/>
     <path fill="rgb(211,211,211)" stroke="none" d="M 8697,8329 L 9502,8329 9502,7782 10410,7257 10410,8410 8540,9491 8540,8338 8697,8247 8697,8329 Z M 9479,8306 L 8720,8306 8720,8234 9479,7795 9479,8306 Z"/>
     <path fill="rgb(212,212,212)" stroke="none" d="M 8720,8306 L 9479,8306 9479,7795 10410,7257 10410,8410 8540,9491 8540,8338 8720,8234 8720,8306 Z M 9457,8284 L 8742,8284 8742,8221 9457,7808 9457,8284 Z"/>
     <path fill="rgb(213,213,213)" stroke="none" d="M 8742,8284 L 9457,8284 9457,7808 10410,7257 10410,8410 8540,9491 8540,8338 8742,8221 8742,8284 Z M 9435,8262 L 8764,8262 8764,8209 9435,7821 9435,8262 Z"/>
     <path fill="rgb(214,214,214)" stroke="none" d="M 8764,8262 L 9435,8262 9435,7821 10410,7257 10410,8410 8540,9491 8540,8338 8764,8209 8764,8262 Z M 9412,8239 L 8787,8239 8787,8195 9412,7834 9412,8239 Z"/>
     <path fill="rgb(215,215,215)" stroke="none" d="M 8787,8239 L 9412,8239 9412,7834 10410,7257 10410,8410 8540,9491 8540,8338 8787,8195 8787,8239 Z M 9390,8217 L 8809,8217 8809,8182 9390,7847 9390,8217 Z"/>
     <path fill="rgb(216,216,216)" stroke="none" d="M 8809,8217 L 9390,8217 9390,7847 10410,7257 10410,8410 8540,9491 8540,8338 8809,8182 8809,8217 Z M 9367,8194 L 8832,8194 8832,8169 9367,7860 9367,8194 Z"/>
     <path fill="rgb(217,217,217)" stroke="none" d="M 8832,8194 L 9367,8194 9367,7860 10410,7257 10410,8410 8540,9491 8540,8338 8832,8169 8832,8194 Z M 9345,8172 L 8854,8172 8854,8156 9345,7873 9345,8172 Z"/>
     <path fill="rgb(218,218,218)" stroke="none" d="M 8854,8172 L 9345,8172 9345,7873 10410,7257 10410,8410 8540,9491 8540,8338 8854,8156 8854,8172 Z M 9323,8150 L 8876,8150 8876,8144 9323,7885 9323,8150 Z"/>
     <path fill="rgb(219,219,219)" stroke="none" d="M 8876,8150 L 9323,8150 9323,7885 10410,7257 10410,8410 8540,9491 8540,8338 8876,8144 8876,8150 Z M 9300,8127 L 8905,8127 9300,7899 9300,8127 Z"/>
     <path fill="rgb(220,220,220)" stroke="none" d="M 9300,8127 L 9300,7899 10410,7257 10410,8410 8540,9491 8540,8338 8905,8127 9300,8127 Z M 9278,8105 L 8943,8105 9278,7911 9278,8105 Z"/>
     <path fill="rgb(221,221,221)" stroke="none" d="M 9278,8105 L 9278,7911 10410,7257 10410,8410 8540,9491 8540,8338 8943,8105 9278,8105 Z M 9256,8083 L 8981,8083 9256,7924 9256,8083 Z"/>
     <path fill="rgb(222,222,222)" stroke="none" d="M 9256,8083 L 9256,7924 10410,7257 10410,8410 8540,9491 8540,8338 8981,8083 9256,8083 Z M 9233,8060 L 9021,8060 9233,7937 9233,8060 Z"/>
     <path fill="rgb(223,223,223)" stroke="none" d="M 9233,8060 L 9233,7937 10410,7257 10410,8410 8540,9491 8540,8338 9021,8060 9233,8060 Z M 9211,8038 L 9059,8038 9211,7950 9211,8038 Z"/>
     <path fill="rgb(224,224,224)" stroke="none" d="M 9211,8038 L 9211,7950 10410,7257 10410,8410 8540,9491 8540,8338 9059,8038 9211,8038 Z M 9188,8015 L 9099,8015 9188,7963 9188,8015 Z"/>
     <path fill="rgb(225,225,225)" stroke="none" d="M 9188,8015 L 9188,7963 10410,7257 10410,8410 8540,9491 8540,8338 9099,8015 9188,8015 Z M 9166,7993 L 9137,7993 9166,7976 9166,7993 Z"/>
     <path fill="rgb(226,226,226)" stroke="none" d="M 9166,7993 L 9166,7976 10410,7257 10410,8410 8540,9491 8540,8338 9137,7993 9166,7993 Z"/>
     <path fill="rgb(227,227,227)" stroke="none" d="M 8540,9491 L 8540,8338 10410,7257 10410,8410 8540,9491 Z"/>
     <path fill="rgb(229,229,229)" stroke="none" d="M 8540,9491 L 8540,8338 10410,7257 10410,8410 8540,9491 Z"/>
     <path fill="none" stroke="rgb(255,255,255)" id="Drawing_4_0" stroke-width="40" stroke-linejoin="round" d="M 8540,9491 L 8540,8338 10410,7257 10410,8410 8540,9491 Z"/>
    </g>
    <g>
     <defs>
      <linearGradient id="Gradient_1182" gradientUnits="userSpaceOnUse" x1="3925" y1="6320" x2="4176" y2="6320">
       <stop offset="0.1" stop-color="rgb(179,179,179)"/>
       <stop offset="1" stop-color="rgb(229,229,229)"/>
      </linearGradient>
     </defs>
     <path fill="url(#Gradient_1182)" stroke="rgb(255,255,255)" id="Drawing_5_0" stroke-width="40" stroke-linejoin="round" d="M 3927,6825 L 3927,5672 4176,5816 4176,6969 3927,6825 Z"/>
    </g>
    <g>
     <defs>
      <linearGradient id="Gradient_1183" gradientUnits="userSpaceOnUse" x1="8663" y1="9635" x2="8665" y2="8338">
       <stop offset="0.1" stop-color="rgb(179,179,179)"/>
       <stop offset="1" stop-color="rgb(229,229,229)"/>
      </linearGradient>
     </defs>
     <path fill="url(#Gradient_1183)" stroke="rgb(255,255,255)" id="Drawing_6_0" stroke-width="40" stroke-linejoin="round" d="M 8540,9491 L 8540,8338 8789,8482 8789,9635 8540,9491 Z"/>
    </g>
    <g>
     <path fill="none" stroke="rgb(0,0,0)" id="Drawing_7_0" stroke-width="40" stroke-linejoin="round" d="M 3927,6825 L 3927,5672 4176,5816 6046,4735 10410,7257 10410,8410 8789,9347 8789,9635 3927,6825 Z"/>
    </g>
    <g>
     <path fill="rgb(127,127,127)" stroke="none" d="M 5672,7689 L 5672,7545 5797,7617 5797,7761 5672,7689 Z"/>
     <path fill="none" stroke="rgb(0,0,0)" id="Drawing_8_0" stroke-width="40" stroke-linejoin="round" d="M 5672,7689 L 5672,7545 5797,7617 5797,7761 5672,7689 Z"/>
    </g>
    <g>
     <path fill="rgb(127,127,127)" stroke="none" d="M 6046,7906 L 6046,7762 6171,7834 6171,7978 6046,7906 Z"/>
     <path fill="none" stroke="rgb(0,0,0)" id="Drawing_9_0" stroke-width="40" stroke-linejoin="round" d="M 6046,7906 L 6046,7762 6171,7834 6171,7978 6046,7906 Z"/>
    </g>
    <g>
     <path fill="rgb(127,127,127)" stroke="none" d="M 6296,8050 L 6296,7906 6421,7978 6421,8122 6296,8050 Z"/>
     <path fill="none" stroke="rgb(0,0,0)" id="Drawing_10_0" stroke-width="40" stroke-linejoin="round" d="M 6296,8050 L 6296,7906 6421,7978 6421,8122 6296,8050 Z"/>
    </g>
    <g>
     <path fill="rgb(127,127,127)" stroke="none" d="M 6545,8194 L 6545,8050 6670,8122 6670,8266 6545,8194 Z"/>
     <path fill="none" stroke="rgb(0,0,0)" id="Drawing_11_0" stroke-width="40" stroke-linejoin="round" d="M 6545,8194 L 6545,8050 6670,8122 6670,8266 6545,8194 Z"/>
    </g>
    <g>
     <path fill="rgb(127,127,127)" stroke="none" d="M 6794,8338 L 6794,8194 6919,8266 6919,8410 6794,8338 Z"/>
     <path fill="none" stroke="rgb(0,0,0)" id="Drawing_12_0" stroke-width="40" stroke-linejoin="round" d="M 6794,8338 L 6794,8194 6919,8266 6919,8410 6794,8338 Z"/>
    </g>
    <g>
     <path fill="rgb(127,127,127)" stroke="none" d="M 7792,8914 L 7792,8770 8415,9130 8415,9274 7792,8914 Z"/>
     <path fill="none" stroke="rgb(0,0,0)" id="Drawing_13_0" stroke-width="40" stroke-linejoin="round" d="M 7792,8914 L 7792,8770 8415,9130 8415,9274 7792,8914 Z"/>
    </g>
    <g>
     <path fill="rgb(127,127,127)" stroke="none" d="M 7044,8482 L 7044,8338 7667,8698 7667,8842 7044,8482 Z"/>
     <path fill="none" stroke="rgb(0,0,0)" id="Drawing_14_0" stroke-width="40" stroke-linejoin="round" d="M 7044,8482 L 7044,8338 7667,8698 7667,8842 7044,8482 Z"/>
    </g>
    <g>
     <path fill="rgb(179,179,179)" stroke="none" d="M 7667,8410 L 7667,8122 8415,8554 8415,8843 7667,8410 Z"/>
     <path fill="none" stroke="rgb(255,255,255)" id="Drawing_15_0" stroke-width="40" stroke-linejoin="round" d="M 7667,8410 L 7667,8122 8415,8554 8415,8843 7667,8410 Z"/>
    </g>
    <g>
     <path fill="rgb(127,127,127)" stroke="none" d="M 8166,8842 L 8166,8698 8291,8770 8291,8914 8166,8842 Z"/>
     <path fill="none" stroke="rgb(0,0,0)" id="Drawing_16_0" stroke-width="40" stroke-linejoin="round" d="M 8166,8842 L 8166,8698 8291,8770 8291,8914 8166,8842 Z"/>
    </g>
    <g>
     <path fill="rgb(127,127,127)" stroke="none" d="M 8041,8770 L 8041,8626 8166,8698 8166,8842 8041,8770 Z"/>
     <path fill="none" stroke="rgb(0,0,0)" id="Drawing_17_0" stroke-width="40" stroke-linejoin="round" d="M 8041,8770 L 8041,8626 8166,8698 8166,8842 8041,8770 Z"/>
    </g>
    <g>
     <path fill="rgb(127,127,127)" stroke="none" d="M 7916,8698 L 7916,8554 8041,8626 8041,8770 7916,8698 Z"/>
     <path fill="none" stroke="rgb(0,0,0)" id="Drawing_18_0" stroke-width="40" stroke-linejoin="round" d="M 7916,8698 L 7916,8554 8041,8626 8041,8770 7916,8698 Z"/>
    </g>
    <g>
     <path fill="rgb(127,127,127)" stroke="none" d="M 7792,8626 L 7792,8482 7917,8554 7917,8698 7792,8626 Z"/>
     <path fill="none" stroke="rgb(0,0,0)" id="Drawing_19_0" stroke-width="40" stroke-linejoin="round" d="M 7792,8626 L 7792,8482 7917,8554 7917,8698 7792,8626 Z"/>
    </g>
    <g>
     <path fill="rgb(179,179,179)" stroke="none" d="M 6794,7905 L 6794,7617 7542,8049 7542,8338 6794,7905 Z"/>
     <path fill="none" stroke="rgb(255,255,255)" id="Drawing_20_0" stroke-width="40" stroke-linejoin="round" d="M 6794,7905 L 6794,7617 7542,8049 7542,8338 6794,7905 Z"/>
    </g>
    <g>
     <path fill="rgb(127,127,127)" stroke="none" d="M 7293,8338 L 7293,8194 7418,8266 7418,8410 7293,8338 Z"/>
     <path fill="none" stroke="rgb(0,0,0)" id="Drawing_21_0" stroke-width="40" stroke-linejoin="round" d="M 7293,8338 L 7293,8194 7418,8266 7418,8410 7293,8338 Z"/>
    </g>
    <g>
     <path fill="rgb(127,127,127)" stroke="none" d="M 7168,8266 L 7168,8122 7293,8194 7293,8338 7168,8266 Z"/>
     <path fill="none" stroke="rgb(0,0,0)" id="Drawing_22_0" stroke-width="40" stroke-linejoin="round" d="M 7168,8266 L 7168,8122 7293,8194 7293,8338 7168,8266 Z"/>
    </g>
    <g>
     <path fill="rgb(127,127,127)" stroke="none" d="M 7044,8194 L 7044,8050 7169,8122 7169,8266 7044,8194 Z"/>
     <path fill="none" stroke="rgb(0,0,0)" id="Drawing_23_0" stroke-width="40" stroke-linejoin="round" d="M 7044,8194 L 7044,8050 7169,8122 7169,8266 7044,8194 Z"/>
    </g>
    <g>
     <path fill="rgb(127,127,127)" stroke="none" d="M 6919,8122 L 6919,7978 7044,8050 7044,8194 6919,8122 Z"/>
     <path fill="none" stroke="rgb(0,0,0)" id="Drawing_24_0" stroke-width="40" stroke-linejoin="round" d="M 6919,8122 L 6919,7978 7044,8050 7044,8194 6919,8122 Z"/>
    </g>
   </g>
  </g>
 </g>
</svg>