<?xml version="1.0" encoding="UTF-8"?>

<svg version="1.2" baseProfile="tiny" width="20.64mm" height="47.3mm" viewBox="9732 7197 2064 4730" preserveAspectRatio="xMidYMid" fill-rule="evenodd" stroke-width="28.222" stroke-linejoin="round" xmlns="http://www.w3.org/2000/svg" xmlns:xlink="http://www.w3.org/1999/xlink" xml:space="preserve">
 <g visibility="visible" id="Slide_1">
  <g id="DrawingGroup_1">
   <g>
    <path fill="rgb(221,221,221)" stroke="none" d="M 10130,11906 C 10511,11906 11208,11650 11571,11417 11934,11184 11830,10787 11449,10787 11449,10787 10116,11907 10130,11906 Z"/>
    <path fill="none" stroke="rgb(221,221,221)" id="Drawing_1_0" stroke-linejoin="round" d="M 10130,11906 C 10511,11906 11208,11650 11571,11417 11934,11184 11830,10787 11449,10787 11449,10787 10116,11907 10130,11906 Z"/>
   </g>
   <g id="DrawingGroup_2">
    <g>
     <path fill="rgb(179,179,179)" stroke="none" d="M 10116,11245 L 10116,9527 11449,8757 11449,11137 11262,11245 10116,11245 Z"/>
     <path fill="rgb(180,180,180)" stroke="none" d="M 11262,11245 L 10116,11907 10116,11245 11262,11245 Z M 10116,11213 L 10116,9527 11449,8757 11449,11137 11317,11213 10116,11213 Z"/>
     <path fill="rgb(181,181,181)" stroke="none" d="M 11317,11213 L 10116,11907 10116,11213 11317,11213 Z M 10116,11182 L 10116,9527 11449,8757 11449,11137 11371,11182 10116,11182 Z"/>
     <path fill="rgb(182,182,182)" stroke="none" d="M 11371,11182 L 10116,11907 10116,11182 11371,11182 Z M 10116,11150 L 10116,9527 11449,8757 11449,11137 11426,11150 10116,11150 Z"/>
     <path fill="rgb(183,183,183)" stroke="none" d="M 11426,11150 L 10116,11907 10116,11150 11426,11150 Z M 10116,11119 L 10116,9527 11449,8757 11449,11119 10116,11119 Z"/>
     <path fill="rgb(184,184,184)" stroke="none" d="M 11449,11119 L 11449,11137 10116,11907 10116,11119 11449,11119 Z M 10116,11087 L 10116,9527 11449,8757 11449,11087 10116,11087 Z"/>
     <path fill="rgb(185,185,185)" stroke="none" d="M 11449,11087 L 11449,11137 10116,11907 10116,11087 11449,11087 Z M 10116,11056 L 10116,9527 11449,8757 11449,11056 10116,11056 Z"/>
     <path fill="rgb(186,186,186)" stroke="none" d="M 11449,11056 L 11449,11137 10116,11907 10116,11056 11449,11056 Z M 10116,11024 L 10116,9527 11449,8757 11449,11024 10116,11024 Z"/>
     <path fill="rgb(187,187,187)" stroke="none" d="M 11449,11024 L 11449,11137 10116,11907 10116,11024 11449,11024 Z M 10116,10993 L 10116,9527 11449,8757 11449,10993 10116,10993 Z"/>
     <path fill="rgb(188,188,188)" stroke="none" d="M 11449,10993 L 11449,11137 10116,11907 10116,10993 11449,10993 Z M 10116,10961 L 10116,9527 11449,8757 11449,10961 10116,10961 Z"/>
     <path fill="rgb(189,189,189)" stroke="none" d="M 11449,10961 L 11449,11137 10116,11907 10116,10961 11449,10961 Z M 10116,10930 L 10116,9527 11449,8757 11449,10930 10116,10930 Z"/>
     <path fill="rgb(190,190,190)" stroke="none" d="M 11449,10930 L 11449,11137 10116,11907 10116,10930 11449,10930 Z M 10116,10898 L 10116,9527 11449,8757 11449,10898 10116,10898 Z"/>
     <path fill="rgb(191,191,191)" stroke="none" d="M 11449,10898 L 11449,11137 10116,11907 10116,10898 11449,10898 Z M 10116,10867 L 10116,9527 11449,8757 11449,10867 10116,10867 Z"/>
     <path fill="rgb(192,192,192)" stroke="none" d="M 11449,10867 L 11449,11137 10116,11907 10116,10867 11449,10867 Z M 10116,10835 L 10116,9527 11449,8757 11449,10835 10116,10835 Z"/>
     <path fill="rgb(193,193,193)" stroke="none" d="M 11449,10835 L 11449,11137 10116,11907 10116,10835 11449,10835 Z M 10116,10804 L 10116,9527 11449,8757 11449,10804 10116,10804 Z"/>
     <path fill="rgb(194,194,194)" stroke="none" d="M 11449,10804 L 11449,11137 10116,11907 10116,10804 11449,10804 Z M 10116,10772 L 10116,9527 11449,8757 11449,10772 10116,10772 Z"/>
     <path fill="rgb(195,195,195)" stroke="none" d="M 11449,10772 L 11449,11137 10116,11907 10116,10772 11449,10772 Z M 10116,10740 L 10116,9527 11449,8757 11449,10740 10116,10740 Z"/>
     <path fill="rgb(196,196,196)" stroke="none" d="M 11449,10740 L 11449,11137 10116,11907 10116,10740 11449,10740 Z M 10116,10709 L 10116,9527 11449,8757 11449,10709 10116,10709 Z"/>
     <path fill="rgb(197,197,197)" stroke="none" d="M 11449,10709 L 11449,11137 10116,11907 10116,10709 11449,10709 Z M 10116,10677 L 10116,9527 11449,8757 11449,10677 10116,10677 Z"/>
     <path fill="rgb(198,198,198)" stroke="none" d="M 11449,10677 L 11449,11137 10116,11907 10116,10677 11449,10677 Z M 10116,10646 L 10116,9527 11449,8757 11449,10646 10116,10646 Z"/>
     <path fill="rgb(199,199,199)" stroke="none" d="M 11449,10646 L 11449,11137 10116,11907 10116,10646 11449,10646 Z M 11428,8787 L 11428,10614 10116,10614 10116,9527 11397,8787 11428,8787 Z"/>
     <path fill="rgb(200,200,200)" stroke="none" d="M 11428,10614 L 11428,8787 11397,8787 11449,8757 11449,11137 10116,11907 10116,10614 11428,10614 Z M 11397,8818 L 11397,10583 10116,10583 10116,9527 11343,8818 11397,8818 Z"/>
     <path fill="rgb(201,201,201)" stroke="none" d="M 11397,10583 L 11397,8818 11343,8818 11449,8757 11449,11137 10116,11907 10116,10583 11397,10583 Z M 11365,8850 L 11365,10551 10116,10551 10116,9527 11288,8850 11365,8850 Z"/>
     <path fill="rgb(202,202,202)" stroke="none" d="M 11365,10551 L 11365,8850 11288,8850 11449,8757 11449,11137 10116,11907 10116,10551 11365,10551 Z M 11334,8881 L 11334,10520 10116,10520 10116,9527 11234,8881 11334,8881 Z"/>
     <path fill="rgb(203,203,203)" stroke="none" d="M 11334,10520 L 11334,8881 11234,8881 11449,8757 11449,11137 10116,11907 10116,10520 11334,10520 Z M 11302,8913 L 11302,10488 10116,10488 10116,9527 11179,8913 11302,8913 Z"/>
     <path fill="rgb(204,204,204)" stroke="none" d="M 11302,10488 L 11302,8913 11179,8913 11449,8757 11449,11137 10116,11907 10116,10488 11302,10488 Z M 11271,8944 L 11271,10457 10116,10457 10116,9527 11125,8944 11271,8944 Z"/>
     <path fill="rgb(205,205,205)" stroke="none" d="M 11271,10457 L 11271,8944 11125,8944 11449,8757 11449,11137 10116,11907 10116,10457 11271,10457 Z M 11239,8976 L 11239,10425 10116,10425 10116,9527 11070,8976 11239,8976 Z"/>
     <path fill="rgb(206,206,206)" stroke="none" d="M 11239,10425 L 11239,8976 11070,8976 11449,8757 11449,11137 10116,11907 10116,10425 11239,10425 Z M 11208,9007 L 11208,10394 10116,10394 10116,9527 11016,9007 11208,9007 Z"/>
     <path fill="rgb(207,207,207)" stroke="none" d="M 11208,10394 L 11208,9007 11016,9007 11449,8757 11449,11137 10116,11907 10116,10394 11208,10394 Z M 11176,9039 L 11176,10362 10116,10362 10116,9527 10961,9039 11176,9039 Z"/>
     <path fill="rgb(208,208,208)" stroke="none" d="M 11176,10362 L 11176,9039 10961,9039 11449,8757 11449,11137 10116,11907 10116,10362 11176,10362 Z M 11145,9070 L 11145,10331 10116,10331 10116,9527 10907,9070 11145,9070 Z"/>
     <path fill="rgb(209,209,209)" stroke="none" d="M 11145,10331 L 11145,9070 10907,9070 11449,8757 11449,11137 10116,11907 10116,10331 11145,10331 Z M 11113,9102 L 11113,10299 10116,10299 10116,9527 10852,9102 11113,9102 Z"/>
     <path fill="rgb(210,210,210)" stroke="none" d="M 11113,10299 L 11113,9102 10852,9102 11449,8757 11449,11137 10116,11907 10116,10299 11113,10299 Z M 11082,9133 L 11082,10268 10116,10268 10116,9527 10798,9133 11082,9133 Z"/>
     <path fill="rgb(211,211,211)" stroke="none" d="M 11082,10268 L 11082,9133 10798,9133 11449,8757 11449,11137 10116,11907 10116,10268 11082,10268 Z M 11050,9165 L 11050,10236 10116,10236 10116,9527 10743,9165 11050,9165 Z"/>
     <path fill="rgb(212,212,212)" stroke="none" d="M 11050,10236 L 11050,9165 10743,9165 11449,8757 11449,11137 10116,11907 10116,10236 11050,10236 Z M 11018,9197 L 11018,10204 10116,10204 10116,9527 10687,9197 11018,9197 Z"/>
     <path fill="rgb(213,213,213)" stroke="none" d="M 11018,10204 L 11018,9197 10687,9197 11449,8757 11449,11137 10116,11907 10116,10204 11018,10204 Z M 10987,9228 L 10987,10173 10116,10173 10116,9527 10634,9228 10987,9228 Z"/>
     <path fill="rgb(214,214,214)" stroke="none" d="M 10987,10173 L 10987,9228 10634,9228 11449,8757 11449,11137 10116,11907 10116,10173 10987,10173 Z M 10955,9260 L 10955,10141 10116,10141 10116,9527 10578,9260 10955,9260 Z"/>
     <path fill="rgb(215,215,215)" stroke="none" d="M 10955,10141 L 10955,9260 10578,9260 11449,8757 11449,11137 10116,11907 10116,10141 10955,10141 Z M 10924,9291 L 10924,10110 10116,10110 10116,9527 10525,9291 10924,9291 Z"/>
     <path fill="rgb(216,216,216)" stroke="none" d="M 10924,10110 L 10924,9291 10525,9291 11449,8757 11449,11137 10116,11907 10116,10110 10924,10110 Z M 10892,9323 L 10892,10078 10137,10078 10137,9515 10469,9323 10892,9323 Z"/>
     <path fill="rgb(217,217,217)" stroke="none" d="M 10137,10078 L 10892,10078 10892,9323 10469,9323 11449,8757 11449,11137 10116,11907 10116,9527 10137,9515 10137,10078 Z M 10861,9354 L 10861,10047 10168,10047 10168,9497 10415,9354 10861,9354 Z"/>
     <path fill="rgb(218,218,218)" stroke="none" d="M 10168,10047 L 10861,10047 10861,9354 10415,9354 11449,8757 11449,11137 10116,11907 10116,9527 10168,9497 10168,10047 Z M 10829,9386 L 10829,10015 10200,10015 10200,9478 10360,9386 10829,9386 Z"/>
     <path fill="rgb(219,219,219)" stroke="none" d="M 10200,10015 L 10829,10015 10829,9386 10360,9386 11449,8757 11449,11137 10116,11907 10116,9527 10200,9478 10200,10015 Z M 10798,9417 L 10798,9984 10231,9984 10231,9461 10306,9417 10798,9417 Z"/>
     <path fill="rgb(220,220,220)" stroke="none" d="M 10231,9984 L 10798,9984 10798,9417 10306,9417 11449,8757 11449,11137 10116,11907 10116,9527 10231,9461 10231,9984 Z M 10263,9449 L 10766,9449 10766,9952 10263,9952 10263,9449 Z"/>
     <path fill="rgb(221,221,221)" stroke="none" d="M 10263,9449 L 10263,9952 10766,9952 10766,9449 10263,9449 Z M 10294,9480 L 10735,9480 10735,9921 10294,9921 10294,9480 Z M 10116,11907 L 10116,9527 11449,8757 11449,11137 10116,11907 Z"/>
     <path fill="rgb(222,222,222)" stroke="none" d="M 10294,9480 L 10294,9921 10735,9921 10735,9480 10294,9480 Z M 10326,9512 L 10703,9512 10703,9889 10326,9889 10326,9512 Z M 10116,11907 L 10116,9527 11449,8757 11449,11137 10116,11907 Z"/>
     <path fill="rgb(223,223,223)" stroke="none" d="M 10326,9512 L 10326,9889 10703,9889 10703,9512 10326,9512 Z M 10357,9543 L 10672,9543 10672,9858 10357,9858 10357,9543 Z M 10116,11907 L 10116,9527 11449,8757 11449,11137 10116,11907 Z"/>
     <path fill="rgb(224,224,224)" stroke="none" d="M 10357,9543 L 10357,9858 10672,9858 10672,9543 10357,9543 Z M 10389,9575 L 10640,9575 10640,9826 10389,9826 10389,9575 Z M 10116,11907 L 10116,9527 11449,8757 11449,11137 10116,11907 Z"/>
     <path fill="rgb(225,225,225)" stroke="none" d="M 10389,9575 L 10389,9826 10640,9826 10640,9575 10389,9575 Z M 10420,9606 L 10609,9606 10609,9795 10420,9795 10420,9606 Z M 10116,11907 L 10116,9527 11449,8757 11449,11137 10116,11907 Z"/>
     <path fill="rgb(226,226,226)" stroke="none" d="M 10420,9606 L 10420,9795 10609,9795 10609,9606 10420,9606 Z M 10452,9638 L 10577,9638 10577,9763 10452,9763 10452,9638 Z M 10116,11907 L 10116,9527 11449,8757 11449,11137 10116,11907 Z"/>
     <path fill="rgb(227,227,227)" stroke="none" d="M 10452,9638 L 10452,9763 10577,9763 10577,9638 10452,9638 Z M 10483,9669 L 10546,9669 10546,9732 10483,9732 10483,9669 Z M 10116,11907 L 10116,9527 11449,8757 11449,11137 10116,11907 Z"/>
     <path fill="rgb(229,229,229)" stroke="none" d="M 10483,9669 L 10483,9732 10546,9732 10546,9669 10483,9669 Z M 10116,11907 L 10116,9527 11449,8757 11449,11137 10116,11907 Z"/>
     <path fill="none" stroke="rgb(255,255,255)" id="Drawing_2_0" stroke-width="40" stroke-linejoin="round" d="M 10116,11907 L 10116,9527 11449,8757 11449,11137 10116,11907 Z"/>
    </g>
    <g>
     <defs>
      <linearGradient id="Gradient_1194" gradientUnits="userSpaceOnUse" x1="10600" y1="8547" x2="10600" y2="9527">
       <stop offset="0.1" stop-color="rgb(179,179,179)"/>
       <stop offset="1" stop-color="rgb(229,229,229)"/>
      </linearGradient>
     </defs>
     <path fill="url(#Gradient_1194)" stroke="rgb(255,255,255)" id="Drawing_3_0" stroke-width="40" stroke-linejoin="round" d="M 10116,9527 L 9752,9317 11086,8547 11449,8757 10116,9527 Z"/>
    </g>
    <g>
     <defs>
      <linearGradient id="Gradient_1195" gradientUnits="userSpaceOnUse" x1="9750" y1="10612" x2="10118" y2="10612">
       <stop offset="0.1" stop-color="rgb(179,179,179)"/>
       <stop offset="1" stop-color="rgb(229,229,229)"/>
      </linearGradient>
     </defs>
     <path fill="url(#Gradient_1195)" stroke="rgb(255,255,255)" id="Drawing_4_0" stroke-width="40" stroke-linejoin="round" d="M 9752,11697 L 9752,9317 10116,9527 10116,11907 9752,11697 Z"/>
    </g>
    <g>
     <path fill="none" stroke="rgb(0,0,0)" id="Drawing_5_0" stroke-width="40" stroke-linejoin="round" d="M 9752,11697 L 9752,9317 11086,8547 11449,8757 11449,11137 10116,11907 9752,11697 Z"/>
    </g>
    <g>
     <path fill="rgb(153,255,102)" stroke="none" d="M 9873,9947 L 9873,9807 9994,9877 9994,10017 9873,9947 Z"/>
     <path fill="none" stroke="rgb(51,51,51)" id="Drawing_6_0" stroke-width="40" stroke-linejoin="round" d="M 9873,9947 L 9873,9807 9994,9877 9994,10017 9873,9947 Z"/>
    </g>
    <g>
     <path fill="rgb(204,204,204)" stroke="none" d="M 11207,8617 L 11207,7217 11328,7217 11328,8687 11207,8617 Z"/>
     <path fill="none" stroke="rgb(0,0,0)" id="Drawing_7_0" stroke-width="40" stroke-linejoin="round" d="M 11207,8617 L 11207,7217 11328,7217 11328,8687 11207,8617 Z"/>
    </g>
   </g>
  </g>
 </g>
</svg>