<?xml version="1.0" encoding="UTF-8"?>

<svg version="1.2" baseProfile="tiny" width="35.37mm" height="37.29mm" viewBox="6198 14313 3537 3729" preserveAspectRatio="xMidYMid" fill-rule="evenodd" stroke-width="28.222" stroke-linejoin="round" xmlns="http://www.w3.org/2000/svg" xmlns:xlink="http://www.w3.org/1999/xlink" xml:space="preserve">
 <g visibility="visible" id="Slide_1">
  <g id="DrawingGroup_1">
   <g>
    <path fill="rgb(221,221,221)" stroke="none" d="M 8171,18021 C 8529,18021 9734,17645 9734,17344 9734,17043 9603,17043 9473,17043 9473,17269 8171,17720 8171,18021 Z"/>
    <path fill="none" stroke="rgb(221,221,221)" id="Drawing_1_0" stroke-linejoin="round" d="M 8171,18021 C 8529,18021 9734,17645 9734,17344 9734,17043 9603,17043 9473,17043 9473,17269 8171,17720 8171,18021 Z"/>
   </g>
   <g id="DrawingGroup_2">
    <g>
     <path fill="rgb(51,51,51)" stroke="none" d="M 9202,17426 L 8614,17766 8171,17766 8171,17495 9202,16899 9202,17426 Z"/>
     <path fill="rgb(52,52,52)" stroke="none" d="M 8614,17766 L 8171,18022 8171,17766 8614,17766 Z M 9202,16899 L 9473,16742 9473,17269 9202,17426 9202,16899 Z M 9192,17432 L 8631,17756 8171,17756 8171,17495 9192,16905 9192,17432 Z"/>
     <path fill="rgb(54,54,54)" stroke="none" d="M 8631,17756 L 8171,18022 8171,17756 8631,17756 Z M 9192,16905 L 9473,16742 9473,17269 9192,17432 9192,16905 Z M 9182,17437 L 8648,17746 8171,17746 8171,17495 9182,16910 9182,17437 Z"/>
     <path fill="rgb(55,55,55)" stroke="none" d="M 8648,17746 L 8171,18022 8171,17746 8648,17746 Z M 9182,16910 L 9473,16742 9473,17269 9182,17437 9182,16910 Z M 9172,17443 L 8666,17736 8171,17736 8171,17495 9172,16916 9172,17443 Z"/>
     <path fill="rgb(57,57,57)" stroke="none" d="M 8666,17736 L 8171,18022 8171,17736 8666,17736 Z M 9172,16916 L 9473,16742 9473,17269 9172,17443 9172,16916 Z M 9162,17449 L 8683,17726 8171,17726 8171,17495 9162,16922 9162,17449 Z"/>
     <path fill="rgb(58,58,58)" stroke="none" d="M 8683,17726 L 8171,18022 8171,17726 8683,17726 Z M 9162,16922 L 9473,16742 9473,17269 9162,17449 9162,16922 Z M 9152,17455 L 8700,17716 8171,17716 8171,17495 9152,16928 9152,17455 Z"/>
     <path fill="rgb(60,60,60)" stroke="none" d="M 8700,17716 L 8171,18022 8171,17716 8700,17716 Z M 9152,16928 L 9473,16742 9473,17269 9152,17455 9152,16928 Z M 9142,17460 L 8717,17706 8171,17706 8171,17495 9142,16933 9142,17460 Z"/>
     <path fill="rgb(61,61,61)" stroke="none" d="M 8717,17706 L 8171,18022 8171,17706 8717,17706 Z M 9142,16933 L 9473,16742 9473,17269 9142,17460 9142,16933 Z M 9132,17466 L 8735,17696 8171,17696 8171,17495 9132,16939 9132,17466 Z"/>
     <path fill="rgb(63,63,63)" stroke="none" d="M 8735,17696 L 8171,18022 8171,17696 8735,17696 Z M 9132,16939 L 9473,16742 9473,17269 9132,17466 9132,16939 Z M 9122,17472 L 8752,17686 8171,17686 8171,17495 9122,16945 9122,17472 Z"/>
     <path fill="rgb(65,65,65)" stroke="none" d="M 8752,17686 L 8171,18022 8171,17686 8752,17686 Z M 9122,16945 L 9473,16742 9473,17269 9122,17472 9122,16945 Z M 9112,17478 L 8769,17676 8171,17676 8171,17495 9112,16951 9112,17478 Z"/>
     <path fill="rgb(66,66,66)" stroke="none" d="M 8769,17676 L 8171,18022 8171,17676 8769,17676 Z M 9112,16951 L 9473,16742 9473,17269 9112,17478 9112,16951 Z M 9102,17484 L 8787,17666 8171,17666 8171,17495 9102,16957 9102,17484 Z"/>
     <path fill="rgb(68,68,68)" stroke="none" d="M 8787,17666 L 8171,18022 8171,17666 8787,17666 Z M 9102,16957 L 9473,16742 9473,17269 9102,17484 9102,16957 Z M 9092,17489 L 8804,17656 8171,17656 8171,17495 9092,16962 9092,17489 Z"/>
     <path fill="rgb(69,69,69)" stroke="none" d="M 8804,17656 L 8171,18022 8171,17656 8804,17656 Z M 9092,16962 L 9473,16742 9473,17269 9092,17489 9092,16962 Z M 9082,17495 L 8821,17646 8171,17646 8171,17495 9082,16968 9082,17495 Z"/>
     <path fill="rgb(71,71,71)" stroke="none" d="M 8821,17646 L 8171,18022 8171,17646 8821,17646 Z M 9082,16968 L 9473,16742 9473,17269 9082,17495 9082,16968 Z M 9072,17501 L 8838,17636 8171,17636 8171,17495 9072,16974 9072,17501 Z"/>
     <path fill="rgb(72,72,72)" stroke="none" d="M 8838,17636 L 8171,18022 8171,17636 8838,17636 Z M 9072,16974 L 9473,16742 9473,17269 9072,17501 9072,16974 Z M 9062,17507 L 8856,17626 8171,17626 8171,17495 9062,16980 9062,17507 Z"/>
     <path fill="rgb(74,74,74)" stroke="none" d="M 8856,17626 L 8171,18022 8171,17626 8856,17626 Z M 9062,16980 L 9473,16742 9473,17269 9062,17507 9062,16980 Z M 9052,17512 L 8873,17616 8171,17616 8171,17495 9052,16985 9052,17512 Z"/>
     <path fill="rgb(76,76,76)" stroke="none" d="M 8873,17616 L 8171,18022 8171,17616 8873,17616 Z M 9052,16985 L 9473,16742 9473,17269 9052,17512 9052,16985 Z M 9042,17518 L 8890,17606 8171,17606 8171,17495 9042,16991 9042,17518 Z"/>
     <path fill="rgb(77,77,77)" stroke="none" d="M 8890,17606 L 8171,18022 8171,17606 8890,17606 Z M 9042,16991 L 9473,16742 9473,17269 9042,17518 9042,16991 Z M 9032,17524 L 8908,17596 8171,17596 8171,17495 9032,16997 9032,17524 Z"/>
     <path fill="rgb(79,79,79)" stroke="none" d="M 8908,17596 L 8171,18022 8171,17596 8908,17596 Z M 9032,16997 L 9473,16742 9473,17269 9032,17524 9032,16997 Z M 9022,17530 L 8925,17586 8171,17586 8171,17495 9022,17003 9022,17530 Z"/>
     <path fill="rgb(80,80,80)" stroke="none" d="M 8925,17586 L 8171,18022 8171,17586 8925,17586 Z M 9022,17003 L 9473,16742 9473,17269 9022,17530 9022,17003 Z M 9012,17536 L 8942,17576 8171,17576 8171,17495 9012,17009 9012,17536 Z"/>
     <path fill="rgb(82,82,82)" stroke="none" d="M 8942,17576 L 8171,18022 8171,17576 8942,17576 Z M 9012,17009 L 9473,16742 9473,17269 9012,17536 9012,17009 Z M 9002,17541 L 8959,17566 8171,17566 8171,17495 9002,17014 9002,17541 Z"/>
     <path fill="rgb(83,83,83)" stroke="none" d="M 8959,17566 L 8171,18022 8171,17566 8959,17566 Z M 9002,17014 L 9473,16742 9473,17269 9002,17541 9002,17014 Z M 8992,17547 L 8977,17556 8171,17556 8171,17495 8992,17020 8992,17547 Z"/>
     <path fill="rgb(85,85,85)" stroke="none" d="M 8977,17556 L 8171,18022 8171,17556 8977,17556 Z M 8992,17020 L 9473,16742 9473,17269 8992,17547 8992,17020 Z M 8982,17546 L 8171,17546 8171,17495 8982,17026 8982,17546 Z"/>
     <path fill="rgb(87,87,87)" stroke="none" d="M 8982,17546 L 8982,17026 9473,16742 9473,17269 8171,18022 8171,17546 8982,17546 Z M 8972,17536 L 8171,17536 8171,17495 8972,17032 8972,17536 Z"/>
     <path fill="rgb(88,88,88)" stroke="none" d="M 8972,17536 L 8972,17032 9473,16742 9473,17269 8171,18022 8171,17536 8972,17536 Z M 8962,17526 L 8171,17526 8171,17495 8962,17038 8962,17526 Z"/>
     <path fill="rgb(90,90,90)" stroke="none" d="M 8962,17526 L 8962,17038 9473,16742 9473,17269 8171,18022 8171,17526 8962,17526 Z M 8952,17516 L 8171,17516 8171,17495 8952,17043 8952,17516 Z"/>
     <path fill="rgb(91,91,91)" stroke="none" d="M 8952,17516 L 8952,17043 9473,16742 9473,17269 8171,18022 8171,17516 8952,17516 Z M 8941,17505 L 8180,17505 8180,17490 8941,17050 8941,17505 Z"/>
     <path fill="rgb(93,93,93)" stroke="none" d="M 8180,17505 L 8941,17505 8941,17050 9473,16742 9473,17269 8171,18022 8171,17495 8180,17490 8180,17505 Z M 8931,17495 L 8190,17495 8190,17484 8931,17055 8931,17495 Z"/>
     <path fill="rgb(94,94,94)" stroke="none" d="M 8190,17495 L 8931,17495 8931,17055 9473,16742 9473,17269 8171,18022 8171,17495 8190,17484 8190,17495 Z M 8921,17485 L 8200,17485 8200,17478 8921,17061 8921,17485 Z"/>
     <path fill="rgb(96,96,96)" stroke="none" d="M 8200,17485 L 8921,17485 8921,17061 9473,16742 9473,17269 8171,18022 8171,17495 8200,17478 8200,17485 Z M 8911,17475 L 8210,17475 8210,17472 8911,17067 8911,17475 Z"/>
     <path fill="rgb(98,98,98)" stroke="none" d="M 8210,17475 L 8911,17475 8911,17067 9473,16742 9473,17269 8171,18022 8171,17495 8210,17472 8210,17475 Z M 8901,17465 L 8223,17465 8901,17073 8901,17465 Z"/>
     <path fill="rgb(99,99,99)" stroke="none" d="M 8901,17465 L 8901,17073 9473,16742 9473,17269 8171,18022 8171,17495 8223,17465 8901,17465 Z M 8891,17455 L 8240,17455 8891,17079 8891,17455 Z"/>
     <path fill="rgb(101,101,101)" stroke="none" d="M 8891,17455 L 8891,17079 9473,16742 9473,17269 8171,18022 8171,17495 8240,17455 8891,17455 Z M 8881,17445 L 8257,17445 8881,17084 8881,17445 Z"/>
     <path fill="rgb(102,102,102)" stroke="none" d="M 8881,17445 L 8881,17084 9473,16742 9473,17269 8171,18022 8171,17495 8257,17445 8881,17445 Z M 8871,17435 L 8275,17435 8871,17090 8871,17435 Z"/>
     <path fill="rgb(104,104,104)" stroke="none" d="M 8871,17435 L 8871,17090 9473,16742 9473,17269 8171,18022 8171,17495 8275,17435 8871,17435 Z M 8861,17425 L 8292,17425 8861,17096 8861,17425 Z"/>
     <path fill="rgb(105,105,105)" stroke="none" d="M 8861,17425 L 8861,17096 9473,16742 9473,17269 8171,18022 8171,17495 8292,17425 8861,17425 Z M 8851,17415 L 8309,17415 8851,17102 8851,17415 Z"/>
     <path fill="rgb(107,107,107)" stroke="none" d="M 8851,17415 L 8851,17102 9473,16742 9473,17269 8171,18022 8171,17495 8309,17415 8851,17415 Z M 8841,17405 L 8327,17405 8841,17108 8841,17405 Z"/>
     <path fill="rgb(109,109,109)" stroke="none" d="M 8841,17405 L 8841,17108 9473,16742 9473,17269 8171,18022 8171,17495 8327,17405 8841,17405 Z M 8831,17395 L 8344,17395 8831,17113 8831,17395 Z"/>
     <path fill="rgb(110,110,110)" stroke="none" d="M 8831,17395 L 8831,17113 9473,16742 9473,17269 8171,18022 8171,17495 8344,17395 8831,17395 Z M 8821,17385 L 8361,17385 8821,17119 8821,17385 Z"/>
     <path fill="rgb(112,112,112)" stroke="none" d="M 8821,17385 L 8821,17119 9473,16742 9473,17269 8171,18022 8171,17495 8361,17385 8821,17385 Z M 8811,17375 L 8378,17375 8811,17125 8811,17375 Z"/>
     <path fill="rgb(113,113,113)" stroke="none" d="M 8811,17375 L 8811,17125 9473,16742 9473,17269 8171,18022 8171,17495 8378,17375 8811,17375 Z M 8801,17365 L 8396,17365 8801,17131 8801,17365 Z"/>
     <path fill="rgb(115,115,115)" stroke="none" d="M 8801,17365 L 8801,17131 9473,16742 9473,17269 8171,18022 8171,17495 8396,17365 8801,17365 Z M 8791,17355 L 8413,17355 8791,17136 8791,17355 Z"/>
     <path fill="rgb(116,116,116)" stroke="none" d="M 8791,17355 L 8791,17136 9473,16742 9473,17269 8171,18022 8171,17495 8413,17355 8791,17355 Z M 8781,17345 L 8430,17345 8781,17142 8781,17345 Z"/>
     <path fill="rgb(118,118,118)" stroke="none" d="M 8781,17345 L 8781,17142 9473,16742 9473,17269 8171,18022 8171,17495 8430,17345 8781,17345 Z M 8771,17335 L 8448,17335 8771,17148 8771,17335 Z"/>
     <path fill="rgb(120,120,120)" stroke="none" d="M 8771,17335 L 8771,17148 9473,16742 9473,17269 8171,18022 8171,17495 8448,17335 8771,17335 Z M 8761,17325 L 8465,17325 8761,17154 8761,17325 Z"/>
     <path fill="rgb(121,121,121)" stroke="none" d="M 8761,17325 L 8761,17154 9473,16742 9473,17269 8171,18022 8171,17495 8465,17325 8761,17325 Z M 8751,17315 L 8482,17315 8751,17160 8751,17315 Z"/>
     <path fill="rgb(123,123,123)" stroke="none" d="M 8751,17315 L 8751,17160 9473,16742 9473,17269 8171,18022 8171,17495 8482,17315 8751,17315 Z M 8741,17305 L 8500,17305 8741,17165 8741,17305 Z"/>
     <path fill="rgb(124,124,124)" stroke="none" d="M 8741,17305 L 8741,17165 9473,16742 9473,17269 8171,18022 8171,17495 8500,17305 8741,17305 Z M 8731,17295 L 8517,17295 8731,17171 8731,17295 Z"/>
     <path fill="rgb(126,126,126)" stroke="none" d="M 8731,17295 L 8731,17171 9473,16742 9473,17269 8171,18022 8171,17495 8517,17295 8731,17295 Z M 8721,17285 L 8534,17285 8721,17177 8721,17285 Z"/>
     <path fill="rgb(127,127,127)" stroke="none" d="M 8721,17285 L 8721,17177 9473,16742 9473,17269 8171,18022 8171,17495 8534,17285 8721,17285 Z M 8711,17275 L 8551,17275 8711,17183 8711,17275 Z"/>
     <path fill="rgb(129,129,129)" stroke="none" d="M 8711,17275 L 8711,17183 9473,16742 9473,17269 8171,18022 8171,17495 8551,17275 8711,17275 Z M 8701,17265 L 8569,17265 8701,17188 8701,17265 Z"/>
     <path fill="rgb(131,131,131)" stroke="none" d="M 8701,17265 L 8701,17188 9473,16742 9473,17269 8171,18022 8171,17495 8569,17265 8701,17265 Z M 8690,17254 L 8588,17254 8690,17195 8690,17254 Z"/>
     <path fill="rgb(132,132,132)" stroke="none" d="M 8690,17254 L 8690,17195 9473,16742 9473,17269 8171,18022 8171,17495 8588,17254 8690,17254 Z M 8680,17244 L 8605,17244 8680,17201 8680,17244 Z"/>
     <path fill="rgb(134,134,134)" stroke="none" d="M 8680,17244 L 8680,17201 9473,16742 9473,17269 8171,18022 8171,17495 8605,17244 8680,17244 Z M 8670,17234 L 8622,17234 8670,17206 8670,17234 Z"/>
     <path fill="rgb(135,135,135)" stroke="none" d="M 8670,17234 L 8670,17206 9473,16742 9473,17269 8171,18022 8171,17495 8622,17234 8670,17234 Z M 8660,17224 L 8640,17224 8660,17212 8660,17224 Z"/>
     <path fill="rgb(137,137,137)" stroke="none" d="M 8660,17224 L 8660,17212 9473,16742 9473,17269 8171,18022 8171,17495 8640,17224 8660,17224 Z"/>
     <path fill="rgb(138,138,138)" stroke="none" d="M 8171,18022 L 8171,17495 9473,16742 9473,17269 8171,18022 Z"/>
     <path fill="rgb(140,140,140)" stroke="none" d="M 8171,18022 L 8171,17495 9473,16742 9473,17269 8171,18022 Z"/>
     <path fill="rgb(142,142,142)" stroke="none" d="M 8171,18022 L 8171,17495 9473,16742 9473,17269 8171,18022 Z"/>
     <path fill="rgb(143,143,143)" stroke="none" d="M 8171,18022 L 8171,17495 9473,16742 9473,17269 8171,18022 Z"/>
     <path fill="rgb(145,145,145)" stroke="none" d="M 8171,18022 L 8171,17495 9473,16742 9473,17269 8171,18022 Z"/>
     <path fill="rgb(146,146,146)" stroke="none" d="M 8171,18022 L 8171,17495 9473,16742 9473,17269 8171,18022 Z"/>
     <path fill="rgb(148,148,148)" stroke="none" d="M 8171,18022 L 8171,17495 9473,16742 9473,17269 8171,18022 Z"/>
     <path fill="rgb(149,149,149)" stroke="none" d="M 8171,18022 L 8171,17495 9473,16742 9473,17269 8171,18022 Z"/>
     <path fill="rgb(153,153,153)" stroke="none" d="M 8171,18022 L 8171,17495 9473,16742 9473,17269 8171,18022 Z"/>
     <path fill="none" stroke="rgb(178,178,178)" id="Drawing_2_0" stroke-width="40" stroke-linejoin="round" d="M 8171,18022 L 8171,17495 9473,16742 9473,17269 8171,18022 Z"/>
    </g>
    <g>
     <defs>
      <linearGradient id="Gradient_1190" gradientUnits="userSpaceOnUse" x1="7845" y1="15613" x2="7845" y2="17495">
       <stop offset="0.1" stop-color="rgb(51,51,51)"/>
       <stop offset="1" stop-color="rgb(153,153,153)"/>
      </linearGradient>
     </defs>
     <path fill="url(#Gradient_1190)" stroke="rgb(178,178,178)" id="Drawing_3_0" stroke-width="40" stroke-linejoin="round" d="M 8171,17495 L 6218,16366 7520,15613 9473,16742 8171,17495 Z"/>
    </g>
    <g>
     <defs>
      <linearGradient id="Gradient_1191" gradientUnits="userSpaceOnUse" x1="6216" y1="17191" x2="8171" y2="17195">
       <stop offset="0.1" stop-color="rgb(51,51,51)"/>
       <stop offset="1" stop-color="rgb(153,153,153)"/>
      </linearGradient>
     </defs>
     <path fill="url(#Gradient_1191)" stroke="rgb(178,178,178)" id="Drawing_4_0" stroke-width="40" stroke-linejoin="round" d="M 6218,16892 L 6218,16365 8171,17494 8171,18021 6218,16892 Z"/>
    </g>
    <g>
     <path fill="none" stroke="rgb(0,0,0)" id="Drawing_5_0" stroke-width="40" stroke-linejoin="round" d="M 6218,16893 L 6218,16366 7520,15613 9473,16742 9473,17269 8171,18022 6218,16893 Z"/>
    </g>
    <g>
     <path fill="rgb(209,97,108)" stroke="none" d="M 7781,17645 L 7781,17419 7911,17494 7911,17720 7781,17645 Z"/>
     <path fill="none" stroke="rgb(51,51,51)" id="Drawing_6_0" stroke-width="40" stroke-linejoin="round" d="M 7781,17645 L 7781,17419 7911,17494 7911,17720 7781,17645 Z"/>
    </g>
    <g>
     <defs>
      <linearGradient id="Gradient_1192" gradientUnits="userSpaceOnUse" x1="7714" y1="15763" x2="7716" y2="14333">
       <stop offset="0.1" stop-color="rgb(102,102,102)"/>
       <stop offset="1" stop-color="rgb(153,153,153)"/>
      </linearGradient>
     </defs>
     <path fill="url(#Gradient_1192)" stroke="rgb(0,0,0)" id="Drawing_7_0" stroke-width="40" stroke-linejoin="round" d="M 7650,15688 L 7650,14333 7780,14333 7780,15763 7650,15688 Z"/>
    </g>
    <g>
     <defs>
      <linearGradient id="Gradient_1193" gradientUnits="userSpaceOnUse" x1="9277" y1="16666" x2="9279" y2="15236">
       <stop offset="0.1" stop-color="rgb(102,102,102)"/>
       <stop offset="1" stop-color="rgb(153,153,153)"/>
      </linearGradient>
     </defs>
     <path fill="url(#Gradient_1193)" stroke="rgb(0,0,0)" id="Drawing_8_0" stroke-width="40" stroke-linejoin="round" d="M 9213,16591 L 9213,15236 9343,15236 9343,16666 9213,16591 Z"/>
    </g>
   </g>
  </g>
 </g>
</svg>