<?xml version="1.0" encoding="UTF-8"?>

<svg version="1.2" baseProfile="tiny" width="30.52mm" height="38.2mm" viewBox="2377 23108 3052 3820" preserveAspectRatio="xMidYMid" fill-rule="evenodd" stroke-width="28.222" stroke-linejoin="round" xmlns="http://www.w3.org/2000/svg" xmlns:xlink="http://www.w3.org/1999/xlink" xml:space="preserve">
 <g visibility="visible" id="Slide_1">
  <g id="DrawingGroup_1">
   <g>
    <path fill="rgb(221,221,221)" stroke="none" d="M 4337,26837 C 4812,26837 5428,26557 5428,26277 5428,25997 5410,25857 5064,25857 5064,26157 4337,26436 4337,26837 Z"/>
    <path fill="none" stroke="rgb(221,221,221)" id="Drawing_1_0" stroke-linejoin="round" d="M 4337,26837 C 4812,26837 5428,26557 5428,26277 5428,25997 5410,25857 5064,25857 5064,26157 4337,26436 4337,26837 Z"/>
   </g>
   <g id="DrawingGroup_2">
    <g>
     <defs>
      <linearGradient id="Gradient_1095" gradientUnits="userSpaceOnUse" x1="2396" y1="26065" x2="5065" y2="26069">
       <stop offset="0" stop-color="rgb(0,115,188)"/>
       <stop offset="0.5" stop-color="rgb(127,185,221)"/>
       <stop offset="1" stop-color="rgb(0,115,188)"/>
      </linearGradient>
     </defs>
     <path fill="url(#Gradient_1095)" stroke="none" id="Drawing_2_0" d="M 5065,25227 L 5065,25752 5065,26054 5064,26112 5064,26112 5064,26112 5064,26112 5064,26112 5064,26111 5064,26104 5064,26067 5058,26157 5038,26244 5007,26327 4963,26406 4908,26480 4843,26549 4768,26613 4683,26672 4589,26725 4487,26771 4377,26812 4260,26846 4137,26872 4007,26892 3873,26904 3733,26908 3593,26904 3459,26892 3329,26872 3206,26846 3089,26812 2979,26771 2876,26725 2782,26672 2697,26613 2622,26549 2556,26480 2501,26406 2457,26327 2425,26244 2405,26157 2398,26067 2398,26067 2398,26067 2398,26067 2398,26067 2398,26066 2398,26063 2398,26051 2398,26005 2398,25831 2398,25227 2405,25317 2425,25404 2459,25486 2504,25565 2561,25639 2628,25708 2705,25772 2792,25831 2887,25884 2990,25930 3100,25971 3216,26005 3339,26031 3466,26051 3597,26063 3732,26067 3867,26063 3998,26051 4125,26031 4247,26005 4364,25971 4474,25930 4577,25884 4672,25831 4758,25772 4835,25708 4902,25639 4959,25565 5004,25486 5038,25404 5058,25317 5065,25227 Z"/>
     <path fill="none" stroke="rgb(255,255,255)" id="Drawing_2_1" stroke-width="40" stroke-linejoin="round" d="M 5065,25227 C 5065,25227 5065,26348 5064,26067 5066,26558 4489,26908 3733,26908 2977,26908 2399,26558 2398,26067 2399,26068 2398,25717 2398,25227 2398,25717 3004,26067 3732,26067 4460,26067 5065,25717 5065,25227 Z"/>
    </g>
    <g>
     <defs>
      <linearGradient id="Gradient_1096" gradientUnits="userSpaceOnUse" x1="3730" y1="24387" x2="3730" y2="26066">
       <stop offset="0.1" stop-color="rgb(0,115,188)"/>
       <stop offset="1" stop-color="rgb(127,185,221)"/>
      </linearGradient>
     </defs>
     <path fill="url(#Gradient_1096)" stroke="none" id="Drawing_3_0" d="M 3730,24387 L 3870,24391 4004,24404 4134,24424 4257,24451 4374,24486 4484,24527 4586,24575 4680,24628 4765,24687 4841,24751 4906,24820 4961,24894 5005,24972 5037,25053 5056,25138 5063,25226 5056,25314 5037,25399 5005,25480 4961,25558 4906,25632 4841,25701 4765,25765 4680,25825 4586,25878 4484,25926 4374,25967 4257,26002 4134,26029 4004,26049 3870,26062 3730,26066 3590,26062 3456,26049 3326,26029 3203,26002 3086,25967 2976,25926 2874,25878 2780,25825 2695,25765 2619,25701 2554,25632 2499,25558 2455,25480 2423,25399 2404,25314 2397,25226 2404,25138 2423,25053 2455,24972 2499,24894 2554,24820 2619,24751 2695,24687 2780,24628 2874,24575 2976,24527 3086,24486 3203,24451 3326,24424 3456,24404 3590,24391 3730,24387 Z"/>
     <path fill="none" stroke="rgb(255,255,255)" id="Drawing_3_1" stroke-width="40" stroke-linejoin="round" d="M 3730,24387 C 4486,24387 5063,24750 5063,25226 5063,25702 4486,26066 3730,26066 2974,26066 2397,25702 2397,25226 2397,24750 2974,24387 3730,24387 Z"/>
    </g>
    <g>
     <path fill="rgb(255,255,255)" stroke="none" d="M 4216,25297 L 4095,25367 4580,25647 4458,25717 3973,25437 3852,25507 3852,25297 4216,25297 Z"/>
     <path fill="none" stroke="rgb(255,255,255)" id="Drawing_4_0" stroke-width="40" stroke-linejoin="round" d="M 4216,25297 L 4095,25367 4580,25647 4458,25717 3973,25437 3852,25507 3852,25297 4216,25297 Z"/>
    </g>
    <g>
     <path fill="rgb(255,255,255)" stroke="none" d="M 3488,25017 L 3609,24947 3609,25157 3245,25157 3366,25087 2882,24807 3003,24737 3488,25017 Z"/>
     <path fill="none" stroke="rgb(255,255,255)" id="Drawing_5_0" stroke-width="40" stroke-linejoin="round" d="M 3488,25017 L 3609,24947 3609,25157 3245,25157 3366,25087 2882,24807 3003,24737 3488,25017 Z"/>
    </g>
    <g>
     <path fill="rgb(255,255,255)" stroke="none" d="M 3003,25577 L 3489,25297 3610,25367 3124,25647 3245,25717 2882,25717 2882,25507 3003,25577 Z"/>
     <path fill="none" stroke="rgb(255,255,255)" id="Drawing_6_0" stroke-width="40" stroke-linejoin="round" d="M 3003,25577 L 3489,25297 3610,25367 3124,25647 3245,25717 2882,25717 2882,25507 3003,25577 Z"/>
    </g>
    <g>
     <path fill="rgb(255,255,255)" stroke="none" d="M 4336,24807 L 4215,24737 4579,24737 4579,24947 4458,24877 3973,25157 3852,25087 4336,24807 Z"/>
     <path fill="none" stroke="rgb(255,255,255)" id="Drawing_7_0" stroke-width="40" stroke-linejoin="round" d="M 4336,24807 L 4215,24737 4579,24737 4579,24947 4458,24877 3973,25157 3852,25087 4336,24807 Z"/>
    </g>
    <g>
     <path fill="none" stroke="rgb(0,0,0)" id="Drawing_8_0" stroke-width="40" stroke-linejoin="round" d="M 3730,24387 C 4486,24387 5065,24751 5065,25227 L 5064,26067 C 5064,26557 4458,26907 3731,26907 3004,26907 2397,26557 2397,26067 2397,26067 2398,25227 2397,25226 2397,24750 2974,24387 3730,24387 Z"/>
    </g>
    <g>
     <path fill="rgb(102,102,102)" stroke="none" d="M 3731,25228 L 3731,23898 3609,23758 3731,23618 3852,23758 3731,23898 3731,25228 Z"/>
     <path fill="none" stroke="rgb(0,0,0)" id="Drawing_9_0" stroke-width="40" stroke-linejoin="round" d="M 3731,25228 L 3731,23898 3609,23758 3731,23618 3852,23758 3731,23898 3731,25228 Z"/>
    </g>
    <g>
     <path fill="none" stroke="rgb(51,51,51)" id="Drawing_10_0" stroke-width="40" stroke-linejoin="round" d="M 3973,23548 C 4216,23618 4216,23898 3973,23968"/>
    </g>
    <g>
     <path fill="none" stroke="rgb(51,51,51)" id="Drawing_11_0" stroke-width="40" stroke-linejoin="round" d="M 3489,23548 C 3246,23618 3246,23898 3489,23968"/>
    </g>
    <g>
     <path fill="none" stroke="rgb(51,51,51)" id="Drawing_12_0" stroke-width="40" stroke-linejoin="round" d="M 3246,23408 C 3003,23478 3003,24038 3246,24108"/>
    </g>
    <g>
     <path fill="none" stroke="rgb(51,51,51)" id="Drawing_13_0" stroke-width="40" stroke-linejoin="round" d="M 4216,23408 C 4458,23478 4458,24038 4216,24108"/>
    </g>
    <g>
     <path fill="none" stroke="rgb(51,51,51)" id="Drawing_14_0" stroke-width="40" stroke-linejoin="round" d="M 3004,23268 C 2761,23338 2761,24178 3004,24248"/>
    </g>
    <g>
     <path fill="none" stroke="rgb(51,51,51)" id="Drawing_15_0" stroke-width="40" stroke-linejoin="round" d="M 4458,23268 C 4701,23338 4690,24162 4458,24248"/>
    </g>
    <g>
     <path fill="none" stroke="rgb(51,51,51)" id="Drawing_16_0" stroke-width="40" stroke-linejoin="round" d="M 2761,23128 C 2518,23198 2518,24318 2761,24388"/>
    </g>
    <g>
     <path fill="none" stroke="rgb(51,51,51)" id="Drawing_17_0" stroke-width="40" stroke-linejoin="round" d="M 4701,23128 C 4943,23198 4943,24318 4701,24388"/>
    </g>
   </g>
  </g>
 </g>
</svg>