<?xml version="1.0" encoding="UTF-8"?>

<svg version="1.2" baseProfile="tiny" width="17.81mm" height="32.41mm" viewBox="8361 14585 1781 3241" preserveAspectRatio="xMidYMid" fill-rule="evenodd" stroke-width="28.222" stroke-linejoin="round" xmlns="http://www.w3.org/2000/svg" xmlns:xlink="http://www.w3.org/1999/xlink" xml:space="preserve">
 <g visibility="visible" id="Slide_1">
  <g id="DrawingGroup_1">
   <g>
    <path fill="rgb(221,221,221)" stroke="none" d="M 9133,17825 C 9376,17825 9929,17825 10106,17467 10282,17109 9752,17109 9664,17109 9664,17262 9133,17620 9133,17825 Z"/>
    <path fill="none" stroke="rgb(221,221,221)" id="Drawing_1_0" stroke-linejoin="round" d="M 9133,17825 C 9376,17825 9929,17825 10106,17467 10282,17109 9752,17109 9664,17109 9664,17262 9133,17620 9133,17825 Z"/>
   </g>
   <g id="DrawingGroup_2">
    <g>
     <path fill="rgb(51,51,51)" stroke="none" d="M 9705,17456 L 8517,17456 8514,17416 8691,16138 8694,16166 8701,16192 8713,16216 8729,16239 8749,16259 8773,16278 8799,16295 8829,16311 8896,16336 8971,16354 9051,16365 9133,16368 9215,16365 9295,16354 9370,16336 9437,16311 9467,16295 9493,16278 9517,16259 9537,16239 9553,16216 9565,16192 9572,16166 9575,16138 9705,17077 9705,17456 Z"/>
     <path fill="rgb(52,52,52)" stroke="none" d="M 9705,17456 L 9705,17077 9752,17416 9748,17462 9738,17506 9721,17546 9699,17584 9671,17618 9638,17650 9600,17678 9559,17703 9465,17745 9360,17775 9248,17793 9133,17799 9018,17793 8906,17775 8801,17745 8707,17703 8666,17678 8628,17650 8595,17618 8567,17584 8545,17546 8528,17506 8518,17462 8517,17456 9705,17456 Z M 9695,17446 L 8517,17446 8514,17416 8691,16138 8694,16166 8701,16192 8713,16216 8729,16239 8749,16259 8773,16278 8799,16295 8829,16311 8896,16336 8971,16354 9051,16365 9133,16368 9215,16365 9295,16354 9370,16336 9437,16311 9467,16295 9493,16278 9517,16259 9537,16239 9553,16216 9565,16192 9572,16166 9575,16138 9695,17004 9695,17446 Z"/>
     <path fill="rgb(53,53,53)" stroke="none" d="M 9695,17446 L 9695,17004 9752,17416 9748,17462 9738,17506 9721,17546 9699,17584 9671,17618 9638,17650 9600,17678 9559,17703 9465,17745 9360,17775 9248,17793 9133,17799 9018,17793 8906,17775 8801,17745 8707,17703 8666,17678 8628,17650 8595,17618 8567,17584 8545,17546 8528,17506 8518,17462 8517,17446 9695,17446 Z M 9685,17436 L 8516,17436 8514,17416 8691,16138 8694,16166 8701,16192 8713,16216 8729,16239 8749,16259 8773,16278 8799,16295 8829,16311 8896,16336 8971,16354 9051,16365 9133,16368 9215,16365 9295,16354 9370,16336 9437,16311 9467,16295 9493,16278 9517,16259 9537,16239 9553,16216 9565,16192 9572,16166 9575,16138 9685,16932 9685,17436 Z"/>
     <path fill="rgb(54,54,54)" stroke="none" d="M 9685,17436 L 9685,16932 9752,17416 9748,17462 9738,17506 9721,17546 9699,17584 9671,17618 9638,17650 9600,17678 9559,17703 9465,17745 9360,17775 9248,17793 9133,17799 9018,17793 8906,17775 8801,17745 8707,17703 8666,17678 8628,17650 8595,17618 8567,17584 8545,17546 8528,17506 8518,17462 8516,17436 9685,17436 Z M 9675,17426 L 8515,17426 8514,17416 8691,16138 8694,16166 8701,16192 8713,16216 8729,16239 8749,16259 8773,16278 8799,16295 8829,16311 8896,16336 8971,16354 9051,16365 9133,16368 9215,16365 9295,16354 9370,16336 9437,16311 9467,16295 9493,16278 9517,16259 9537,16239 9553,16216 9565,16192 9572,16166 9575,16138 9675,16860 9675,17426 Z"/>
     <path fill="rgb(55,55,55)" stroke="none" d="M 9675,17426 L 9675,16860 9752,17416 9748,17462 9738,17506 9721,17546 9699,17584 9671,17618 9638,17650 9600,17678 9559,17703 9465,17745 9360,17775 9248,17793 9133,17799 9018,17793 8906,17775 8801,17745 8707,17703 8666,17678 8628,17650 8595,17618 8567,17584 8545,17546 8528,17506 8518,17462 8515,17426 9675,17426 Z M 9665,17416 L 8514,17416 8691,16138 8694,16166 8701,16192 8713,16216 8729,16239 8749,16259 8773,16278 8799,16295 8829,16311 8896,16336 8971,16354 9051,16365 9133,16368 9215,16365 9295,16354 9370,16336 9437,16311 9467,16295 9493,16278 9517,16259 9537,16239 9553,16216 9565,16192 9572,16166 9575,16138 9665,16788 9665,17416 Z"/>
     <path fill="rgb(57,57,57)" stroke="none" d="M 9665,17416 L 9665,16788 9752,17416 9748,17462 9738,17506 9721,17546 9699,17584 9671,17618 9638,17650 9600,17678 9559,17703 9465,17745 9360,17775 9248,17793 9133,17799 9018,17793 8906,17775 8801,17745 8707,17703 8666,17678 8628,17650 8595,17618 8567,17584 8545,17546 8528,17506 8518,17462 8514,17416 9665,17416 Z M 9655,17406 L 8515,17406 8691,16138 8694,16166 8701,16192 8713,16216 8729,16239 8749,16259 8773,16278 8799,16295 8829,16311 8896,16336 8971,16354 9051,16365 9133,16368 9215,16365 9295,16354 9370,16336 9437,16311 9467,16295 9493,16278 9517,16259 9537,16239 9553,16216 9565,16192 9572,16166 9575,16138 9655,16716 9655,17406 Z"/>
     <path fill="rgb(58,58,58)" stroke="none" d="M 9655,17406 L 9655,16716 9752,17416 9748,17462 9738,17506 9721,17546 9699,17584 9671,17618 9638,17650 9600,17678 9559,17703 9465,17745 9360,17775 9248,17793 9133,17799 9018,17793 8906,17775 8801,17745 8707,17703 8666,17678 8628,17650 8595,17618 8567,17584 8545,17546 8528,17506 8518,17462 8514,17416 8515,17406 9655,17406 Z M 9645,17396 L 8517,17396 8691,16138 8694,16166 8701,16192 8713,16216 8729,16239 8749,16259 8773,16278 8799,16295 8829,16311 8896,16336 8971,16354 9051,16365 9133,16368 9215,16365 9295,16354 9370,16336 9437,16311 9467,16295 9493,16278 9517,16259 9537,16239 9553,16216 9565,16192 9572,16166 9575,16138 9645,16643 9645,17396 Z"/>
     <path fill="rgb(59,59,59)" stroke="none" d="M 9645,17396 L 9645,16643 9752,17416 9748,17462 9738,17506 9721,17546 9699,17584 9671,17618 9638,17650 9600,17678 9559,17703 9465,17745 9360,17775 9248,17793 9133,17799 9018,17793 8906,17775 8801,17745 8707,17703 8666,17678 8628,17650 8595,17618 8567,17584 8545,17546 8528,17506 8518,17462 8514,17416 8517,17396 9645,17396 Z M 9635,17386 L 8518,17386 8691,16138 8694,16166 8701,16192 8713,16216 8729,16239 8749,16259 8773,16278 8799,16295 8829,16311 8896,16336 8971,16354 9051,16365 9133,16368 9215,16365 9295,16354 9370,16336 9437,16311 9467,16295 9493,16278 9517,16259 9537,16239 9553,16216 9565,16192 9572,16166 9575,16138 9635,16571 9635,17386 Z"/>
     <path fill="rgb(60,60,60)" stroke="none" d="M 9635,17386 L 9635,16571 9752,17416 9748,17462 9738,17506 9721,17546 9699,17584 9671,17618 9638,17650 9600,17678 9559,17703 9465,17745 9360,17775 9248,17793 9133,17799 9018,17793 8906,17775 8801,17745 8707,17703 8666,17678 8628,17650 8595,17618 8567,17584 8545,17546 8528,17506 8518,17462 8514,17416 8518,17386 9635,17386 Z M 9625,17376 L 8520,17376 8691,16138 8694,16166 8701,16192 8713,16216 8729,16239 8749,16259 8773,16278 8799,16295 8829,16311 8896,16336 8971,16354 9051,16365 9133,16368 9215,16365 9295,16354 9370,16336 9437,16311 9467,16295 9493,16278 9517,16259 9537,16239 9553,16216 9565,16192 9572,16166 9575,16138 9625,16499 9625,17376 Z"/>
     <path fill="rgb(62,62,62)" stroke="none" d="M 9625,17376 L 9625,16499 9752,17416 9748,17462 9738,17506 9721,17546 9699,17584 9671,17618 9638,17650 9600,17678 9559,17703 9465,17745 9360,17775 9248,17793 9133,17799 9018,17793 8906,17775 8801,17745 8707,17703 8666,17678 8628,17650 8595,17618 8567,17584 8545,17546 8528,17506 8518,17462 8514,17416 8520,17376 9625,17376 Z M 9615,17366 L 8521,17366 8691,16138 8694,16166 8701,16192 8713,16216 8729,16239 8749,16259 8773,16278 8799,16295 8829,16311 8896,16336 8971,16354 9051,16365 9133,16368 9215,16365 9295,16354 9370,16336 9437,16311 9467,16295 9493,16278 9517,16259 9537,16239 9553,16216 9565,16192 9572,16166 9575,16138 9615,16427 9615,17366 Z"/>
     <path fill="rgb(63,63,63)" stroke="none" d="M 9615,17366 L 9615,16427 9752,17416 9748,17462 9738,17506 9721,17546 9699,17584 9671,17618 9638,17650 9600,17678 9559,17703 9465,17745 9360,17775 9248,17793 9133,17799 9018,17793 8906,17775 8801,17745 8707,17703 8666,17678 8628,17650 8595,17618 8567,17584 8545,17546 8528,17506 8518,17462 8514,17416 8521,17366 9615,17366 Z M 9605,17356 L 8522,17356 8691,16138 8694,16166 8701,16192 8713,16216 8729,16239 8749,16259 8773,16278 8799,16295 8829,16311 8896,16336 8971,16354 9051,16365 9133,16368 9215,16365 9295,16354 9370,16336 9437,16311 9467,16295 9493,16278 9517,16259 9537,16239 9553,16216 9565,16192 9572,16166 9575,16138 9605,16355 9605,17356 Z"/>
     <path fill="rgb(64,64,64)" stroke="none" d="M 9605,17356 L 9605,16355 9752,17416 9748,17462 9738,17506 9721,17546 9699,17584 9671,17618 9638,17650 9600,17678 9559,17703 9465,17745 9360,17775 9248,17793 9133,17799 9018,17793 8906,17775 8801,17745 8707,17703 8666,17678 8628,17650 8595,17618 8567,17584 8545,17546 8528,17506 8518,17462 8514,17416 8522,17356 9605,17356 Z M 9595,17346 L 8524,17346 8691,16138 8694,16166 8701,16192 8713,16216 8729,16239 8749,16259 8773,16278 8799,16295 8829,16311 8896,16336 8971,16354 9051,16365 9133,16368 9215,16365 9295,16354 9370,16336 9437,16311 9467,16295 9493,16278 9517,16259 9537,16239 9553,16216 9565,16192 9572,16166 9575,16138 9595,16282 9595,17346 Z"/>
     <path fill="rgb(65,65,65)" stroke="none" d="M 9595,17346 L 9595,16282 9752,17416 9748,17462 9738,17506 9721,17546 9699,17584 9671,17618 9638,17650 9600,17678 9559,17703 9465,17745 9360,17775 9248,17793 9133,17799 9018,17793 8906,17775 8801,17745 8707,17703 8666,17678 8628,17650 8595,17618 8567,17584 8545,17546 8528,17506 8518,17462 8514,17416 8524,17346 9595,17346 Z M 9585,17336 L 8525,17336 8691,16138 8694,16166 8701,16192 8713,16216 8729,16239 8749,16259 8773,16278 8799,16295 8829,16311 8896,16336 8971,16354 9051,16365 9133,16368 9215,16365 9295,16354 9370,16336 9437,16311 9467,16295 9493,16278 9517,16259 9537,16239 9553,16216 9565,16192 9572,16166 9575,16138 9585,16210 9585,17336 Z"/>
     <path fill="rgb(66,66,66)" stroke="none" d="M 9585,17336 L 9585,16210 9752,17416 9748,17462 9738,17506 9721,17546 9699,17584 9671,17618 9638,17650 9600,17678 9559,17703 9465,17745 9360,17775 9248,17793 9133,17799 9018,17793 8906,17775 8801,17745 8707,17703 8666,17678 8628,17650 8595,17618 8567,17584 8545,17546 8528,17506 8518,17462 8514,17416 8525,17336 9585,17336 Z M 9575,17326 L 8526,17326 8691,16138 8694,16166 8701,16192 8713,16216 8729,16239 8749,16259 8773,16278 8799,16295 8829,16311 8896,16336 8971,16354 9051,16365 9133,16368 9215,16365 9295,16354 9370,16336 9437,16311 9467,16295 9493,16278 9517,16259 9537,16239 9553,16216 9565,16192 9572,16166 9575,16138 9575,17326 Z"/>
     <path fill="rgb(68,68,68)" stroke="none" d="M 9575,17326 L 9575,16138 9752,17416 9748,17462 9738,17506 9721,17546 9699,17584 9671,17618 9638,17650 9600,17678 9559,17703 9465,17745 9360,17775 9248,17793 9133,17799 9018,17793 8906,17775 8801,17745 8707,17703 8666,17678 8628,17650 8595,17618 8567,17584 8545,17546 8528,17506 8518,17462 8514,17416 8526,17326 9575,17326 Z M 9565,17316 L 8528,17316 8691,16138 8694,16166 8701,16192 8713,16216 8729,16239 8749,16259 8773,16278 8799,16295 8829,16311 8896,16336 8971,16354 9051,16365 9133,16368 9215,16365 9295,16354 9370,16336 9437,16311 9467,16295 9493,16278 9517,16259 9537,16239 9553,16216 9565,16192 9565,17316 Z"/>
     <path fill="rgb(69,69,69)" stroke="none" d="M 9565,17316 L 9565,16192 9572,16166 9575,16138 9752,17416 9748,17462 9738,17506 9721,17546 9699,17584 9671,17618 9638,17650 9600,17678 9559,17703 9465,17745 9360,17775 9248,17793 9133,17799 9018,17793 8906,17775 8801,17745 8707,17703 8666,17678 8628,17650 8595,17618 8567,17584 8545,17546 8528,17506 8518,17462 8514,17416 8528,17316 9565,17316 Z M 9555,17306 L 8529,17306 8691,16138 8694,16166 8701,16192 8713,16216 8729,16239 8749,16259 8773,16278 8799,16295 8829,16311 8896,16336 8971,16354 9051,16365 9133,16368 9215,16365 9295,16354 9370,16336 9437,16311 9467,16295 9493,16278 9517,16259 9537,16239 9553,16216 9555,16212 9555,17306 Z"/>
     <path fill="rgb(70,70,70)" stroke="none" d="M 9555,17306 L 9555,16212 9565,16192 9572,16166 9575,16138 9752,17416 9748,17462 9738,17506 9721,17546 9699,17584 9671,17618 9638,17650 9600,17678 9559,17703 9465,17745 9360,17775 9248,17793 9133,17799 9018,17793 8906,17775 8801,17745 8707,17703 8666,17678 8628,17650 8595,17618 8567,17584 8545,17546 8528,17506 8518,17462 8514,17416 8529,17306 9555,17306 Z M 9545,17296 L 8531,17296 8691,16138 8694,16166 8701,16192 8713,16216 8729,16239 8749,16259 8773,16278 8799,16295 8829,16311 8896,16336 8971,16354 9051,16365 9133,16368 9215,16365 9295,16354 9370,16336 9437,16311 9467,16295 9493,16278 9517,16259 9537,16239 9545,16228 9545,17296 Z"/>
     <path fill="rgb(71,71,71)" stroke="none" d="M 9545,17296 L 9545,16228 9553,16216 9565,16192 9572,16166 9575,16138 9752,17416 9748,17462 9738,17506 9721,17546 9699,17584 9671,17618 9638,17650 9600,17678 9559,17703 9465,17745 9360,17775 9248,17793 9133,17799 9018,17793 8906,17775 8801,17745 8707,17703 8666,17678 8628,17650 8595,17618 8567,17584 8545,17546 8528,17506 8518,17462 8514,17416 8531,17296 9545,17296 Z M 9535,17286 L 8532,17286 8691,16138 8694,16166 8701,16192 8713,16216 8729,16239 8749,16259 8773,16278 8799,16295 8829,16311 8896,16336 8971,16354 9051,16365 9133,16368 9215,16365 9295,16354 9370,16336 9437,16311 9467,16295 9493,16278 9517,16259 9535,16241 9535,17286 Z"/>
     <path fill="rgb(73,73,73)" stroke="none" d="M 9535,17286 L 9535,16241 9537,16239 9553,16216 9565,16192 9572,16166 9575,16138 9752,17416 9748,17462 9738,17506 9721,17546 9699,17584 9671,17618 9638,17650 9600,17678 9559,17703 9465,17745 9360,17775 9248,17793 9133,17799 9018,17793 8906,17775 8801,17745 8707,17703 8666,17678 8628,17650 8595,17618 8567,17584 8545,17546 8528,17506 8518,17462 8514,17416 8532,17286 9535,17286 Z M 9525,17276 L 8533,17276 8691,16138 8694,16166 8701,16192 8713,16216 8729,16239 8749,16259 8773,16278 8799,16295 8829,16311 8896,16336 8971,16354 9051,16365 9133,16368 9215,16365 9295,16354 9370,16336 9437,16311 9467,16295 9493,16278 9517,16259 9525,16251 9525,17276 Z"/>
     <path fill="rgb(74,74,74)" stroke="none" d="M 9525,17276 L 9525,16251 9537,16239 9553,16216 9565,16192 9572,16166 9575,16138 9752,17416 9748,17462 9738,17506 9721,17546 9699,17584 9671,17618 9638,17650 9600,17678 9559,17703 9465,17745 9360,17775 9248,17793 9133,17799 9018,17793 8906,17775 8801,17745 8707,17703 8666,17678 8628,17650 8595,17618 8567,17584 8545,17546 8528,17506 8518,17462 8514,17416 8533,17276 9525,17276 Z M 9515,17266 L 8535,17266 8691,16138 8694,16166 8701,16192 8713,16216 8729,16239 8749,16259 8773,16278 8799,16295 8829,16311 8896,16336 8971,16354 9051,16365 9133,16368 9215,16365 9295,16354 9370,16336 9437,16311 9467,16295 9493,16278 9515,16261 9515,17266 Z"/>
     <path fill="rgb(75,75,75)" stroke="none" d="M 9515,17266 L 9515,16261 9517,16259 9537,16239 9553,16216 9565,16192 9572,16166 9575,16138 9752,17416 9748,17462 9738,17506 9721,17546 9699,17584 9671,17618 9638,17650 9600,17678 9559,17703 9465,17745 9360,17775 9248,17793 9133,17799 9018,17793 8906,17775 8801,17745 8707,17703 8666,17678 8628,17650 8595,17618 8567,17584 8545,17546 8528,17506 8518,17462 8514,17416 8535,17266 9515,17266 Z M 9505,17256 L 8536,17256 8691,16138 8694,16166 8701,16192 8713,16216 8729,16239 8749,16259 8773,16278 8799,16295 8829,16311 8896,16336 8971,16354 9051,16365 9133,16368 9215,16365 9295,16354 9370,16336 9437,16311 9467,16295 9493,16278 9505,16269 9505,17256 Z"/>
     <path fill="rgb(76,76,76)" stroke="none" d="M 9505,17256 L 9505,16269 9517,16259 9537,16239 9553,16216 9565,16192 9572,16166 9575,16138 9752,17416 9748,17462 9738,17506 9721,17546 9699,17584 9671,17618 9638,17650 9600,17678 9559,17703 9465,17745 9360,17775 9248,17793 9133,17799 9018,17793 8906,17775 8801,17745 8707,17703 8666,17678 8628,17650 8595,17618 8567,17584 8545,17546 8528,17506 8518,17462 8514,17416 8536,17256 9505,17256 Z M 9495,17246 L 8538,17246 8691,16138 8694,16166 8701,16192 8713,16216 8729,16239 8749,16259 8773,16278 8799,16295 8829,16311 8896,16336 8971,16354 9051,16365 9133,16368 9215,16365 9295,16354 9370,16336 9437,16311 9467,16295 9493,16278 9495,16276 9495,17246 Z"/>
     <path fill="rgb(78,78,78)" stroke="none" d="M 9495,17246 L 9495,16276 9517,16259 9537,16239 9553,16216 9565,16192 9572,16166 9575,16138 9752,17416 9748,17462 9738,17506 9721,17546 9699,17584 9671,17618 9638,17650 9600,17678 9559,17703 9465,17745 9360,17775 9248,17793 9133,17799 9018,17793 8906,17775 8801,17745 8707,17703 8666,17678 8628,17650 8595,17618 8567,17584 8545,17546 8528,17506 8518,17462 8514,17416 8538,17246 9495,17246 Z M 9485,17236 L 8539,17236 8691,16138 8694,16166 8701,16192 8713,16216 8729,16239 8749,16259 8773,16278 8799,16295 8829,16311 8896,16336 8971,16354 9051,16365 9133,16368 9215,16365 9295,16354 9370,16336 9437,16311 9467,16295 9485,16283 9485,17236 Z"/>
     <path fill="rgb(79,79,79)" stroke="none" d="M 9485,17236 L 9485,16283 9493,16278 9517,16259 9537,16239 9553,16216 9565,16192 9572,16166 9575,16138 9752,17416 9748,17462 9738,17506 9721,17546 9699,17584 9671,17618 9638,17650 9600,17678 9559,17703 9465,17745 9360,17775 9248,17793 9133,17799 9018,17793 8906,17775 8801,17745 8707,17703 8666,17678 8628,17650 8595,17618 8567,17584 8545,17546 8528,17506 8518,17462 8514,17416 8539,17236 9485,17236 Z M 9475,17226 L 8540,17226 8691,16138 8694,16166 8701,16192 8713,16216 8729,16239 8749,16259 8773,16278 8799,16295 8829,16311 8896,16336 8971,16354 9051,16365 9133,16368 9215,16365 9295,16354 9370,16336 9437,16311 9467,16295 9475,16290 9475,17226 Z"/>
     <path fill="rgb(80,80,80)" stroke="none" d="M 9475,17226 L 9475,16290 9493,16278 9517,16259 9537,16239 9553,16216 9565,16192 9572,16166 9575,16138 9752,17416 9748,17462 9738,17506 9721,17546 9699,17584 9671,17618 9638,17650 9600,17678 9559,17703 9465,17745 9360,17775 9248,17793 9133,17799 9018,17793 8906,17775 8801,17745 8707,17703 8666,17678 8628,17650 8595,17618 8567,17584 8545,17546 8528,17506 8518,17462 8514,17416 8540,17226 9475,17226 Z M 9465,17216 L 8542,17216 8691,16138 8694,16166 8701,16192 8713,16216 8729,16239 8749,16259 8773,16278 8799,16295 8829,16311 8896,16336 8971,16354 9051,16365 9133,16368 9215,16365 9295,16354 9370,16336 9437,16311 9465,16296 9465,17216 Z"/>
     <path fill="rgb(81,81,81)" stroke="none" d="M 9465,17216 L 9465,16296 9467,16295 9493,16278 9517,16259 9537,16239 9553,16216 9565,16192 9572,16166 9575,16138 9752,17416 9748,17462 9738,17506 9721,17546 9699,17584 9671,17618 9638,17650 9600,17678 9559,17703 9465,17745 9360,17775 9248,17793 9133,17799 9018,17793 8906,17775 8801,17745 8707,17703 8666,17678 8628,17650 8595,17618 8567,17584 8545,17546 8528,17506 8518,17462 8514,17416 8542,17216 9465,17216 Z M 9455,17206 L 8543,17206 8691,16138 8694,16166 8701,16192 8713,16216 8729,16239 8749,16259 8773,16278 8799,16295 8829,16311 8896,16336 8971,16354 9051,16365 9133,16368 9215,16365 9295,16354 9370,16336 9437,16311 9455,16301 9455,17206 Z"/>
     <path fill="rgb(82,82,82)" stroke="none" d="M 9455,17206 L 9455,16301 9467,16295 9493,16278 9517,16259 9537,16239 9553,16216 9565,16192 9572,16166 9575,16138 9752,17416 9748,17462 9738,17506 9721,17546 9699,17584 9671,17618 9638,17650 9600,17678 9559,17703 9465,17745 9360,17775 9248,17793 9133,17799 9018,17793 8906,17775 8801,17745 8707,17703 8666,17678 8628,17650 8595,17618 8567,17584 8545,17546 8528,17506 8518,17462 8514,17416 8543,17206 9455,17206 Z M 9445,17196 L 8544,17196 8691,16138 8694,16166 8701,16192 8713,16216 8729,16239 8749,16259 8773,16278 8799,16295 8829,16311 8896,16336 8971,16354 9051,16365 9133,16368 9215,16365 9295,16354 9370,16336 9437,16311 9445,16307 9445,17196 Z"/>
     <path fill="rgb(84,84,84)" stroke="none" d="M 9445,17196 L 9445,16307 9467,16295 9493,16278 9517,16259 9537,16239 9553,16216 9565,16192 9572,16166 9575,16138 9752,17416 9748,17462 9738,17506 9721,17546 9699,17584 9671,17618 9638,17650 9600,17678 9559,17703 9465,17745 9360,17775 9248,17793 9133,17799 9018,17793 8906,17775 8801,17745 8707,17703 8666,17678 8628,17650 8595,17618 8567,17584 8545,17546 8528,17506 8518,17462 8514,17416 8544,17196 9445,17196 Z M 9435,17186 L 8546,17186 8691,16138 8694,16166 8701,16192 8713,16216 8729,16239 8749,16259 8773,16278 8799,16295 8829,16311 8896,16336 8971,16354 9051,16365 9133,16368 9215,16365 9295,16354 9370,16336 9435,16312 9435,17186 Z"/>
     <path fill="rgb(85,85,85)" stroke="none" d="M 9435,17186 L 9435,16312 9437,16311 9467,16295 9493,16278 9517,16259 9537,16239 9553,16216 9565,16192 9572,16166 9575,16138 9752,17416 9748,17462 9738,17506 9721,17546 9699,17584 9671,17618 9638,17650 9600,17678 9559,17703 9465,17745 9360,17775 9248,17793 9133,17799 9018,17793 8906,17775 8801,17745 8707,17703 8666,17678 8628,17650 8595,17618 8567,17584 8545,17546 8528,17506 8518,17462 8514,17416 8546,17186 9435,17186 Z M 9425,17176 L 8547,17176 8691,16138 8694,16166 8701,16192 8713,16216 8729,16239 8749,16259 8773,16278 8799,16295 8829,16311 8896,16336 8971,16354 9051,16365 9133,16368 9215,16365 9295,16354 9370,16336 9425,16315 9425,17176 Z"/>
     <path fill="rgb(86,86,86)" stroke="none" d="M 9425,17176 L 9425,16315 9437,16311 9467,16295 9493,16278 9517,16259 9537,16239 9553,16216 9565,16192 9572,16166 9575,16138 9752,17416 9748,17462 9738,17506 9721,17546 9699,17584 9671,17618 9638,17650 9600,17678 9559,17703 9465,17745 9360,17775 9248,17793 9133,17799 9018,17793 8906,17775 8801,17745 8707,17703 8666,17678 8628,17650 8595,17618 8567,17584 8545,17546 8528,17506 8518,17462 8514,17416 8547,17176 9425,17176 Z M 9415,17166 L 8549,17166 8691,16138 8694,16166 8701,16192 8713,16216 8729,16239 8749,16259 8773,16278 8799,16295 8829,16311 8896,16336 8971,16354 9051,16365 9133,16368 9215,16365 9295,16354 9370,16336 9415,16319 9415,17166 Z"/>
     <path fill="rgb(87,87,87)" stroke="none" d="M 9415,17166 L 9415,16319 9437,16311 9467,16295 9493,16278 9517,16259 9537,16239 9553,16216 9565,16192 9572,16166 9575,16138 9752,17416 9748,17462 9738,17506 9721,17546 9699,17584 9671,17618 9638,17650 9600,17678 9559,17703 9465,17745 9360,17775 9248,17793 9133,17799 9018,17793 8906,17775 8801,17745 8707,17703 8666,17678 8628,17650 8595,17618 8567,17584 8545,17546 8528,17506 8518,17462 8514,17416 8549,17166 9415,17166 Z M 9405,17156 L 8550,17156 8691,16138 8694,16166 8701,16192 8713,16216 8729,16239 8749,16259 8773,16278 8799,16295 8829,16311 8896,16336 8971,16354 9051,16365 9133,16368 9215,16365 9295,16354 9370,16336 9405,16323 9405,17156 Z"/>
     <path fill="rgb(89,89,89)" stroke="none" d="M 9405,17156 L 9405,16323 9437,16311 9467,16295 9493,16278 9517,16259 9537,16239 9553,16216 9565,16192 9572,16166 9575,16138 9752,17416 9748,17462 9738,17506 9721,17546 9699,17584 9671,17618 9638,17650 9600,17678 9559,17703 9465,17745 9360,17775 9248,17793 9133,17799 9018,17793 8906,17775 8801,17745 8707,17703 8666,17678 8628,17650 8595,17618 8567,17584 8545,17546 8528,17506 8518,17462 8514,17416 8550,17156 9405,17156 Z M 9395,17146 L 8551,17146 8691,16138 8694,16166 8701,16192 8713,16216 8729,16239 8749,16259 8773,16278 8799,16295 8829,16311 8896,16336 8971,16354 9051,16365 9133,16368 9215,16365 9295,16354 9370,16336 9395,16327 9395,17146 Z"/>
     <path fill="rgb(90,90,90)" stroke="none" d="M 9395,17146 L 9395,16327 9437,16311 9467,16295 9493,16278 9517,16259 9537,16239 9553,16216 9565,16192 9572,16166 9575,16138 9752,17416 9748,17462 9738,17506 9721,17546 9699,17584 9671,17618 9638,17650 9600,17678 9559,17703 9465,17745 9360,17775 9248,17793 9133,17799 9018,17793 8906,17775 8801,17745 8707,17703 8666,17678 8628,17650 8595,17618 8567,17584 8545,17546 8528,17506 8518,17462 8514,17416 8551,17146 9395,17146 Z M 9385,17136 L 8553,17136 8691,16138 8694,16166 8701,16192 8713,16216 8729,16239 8749,16259 8773,16278 8799,16295 8829,16311 8896,16336 8971,16354 9051,16365 9133,16368 9215,16365 9295,16354 9370,16336 9385,16330 9385,17136 Z"/>
     <path fill="rgb(91,91,91)" stroke="none" d="M 9385,17136 L 9385,16330 9437,16311 9467,16295 9493,16278 9517,16259 9537,16239 9553,16216 9565,16192 9572,16166 9575,16138 9752,17416 9748,17462 9738,17506 9721,17546 9699,17584 9671,17618 9638,17650 9600,17678 9559,17703 9465,17745 9360,17775 9248,17793 9133,17799 9018,17793 8906,17775 8801,17745 8707,17703 8666,17678 8628,17650 8595,17618 8567,17584 8545,17546 8528,17506 8518,17462 8514,17416 8553,17136 9385,17136 Z M 8692,16144 L 8694,16166 8701,16192 8713,16216 8729,16239 8749,16259 8773,16278 8799,16295 8829,16311 8896,16336 8971,16354 9051,16365 9133,16368 9215,16365 9295,16354 9370,16336 9375,16334 9375,17126 8554,17126 8690,16144 8692,16144 Z"/>
     <path fill="rgb(92,92,92)" stroke="none" d="M 9375,17126 L 9375,16334 9437,16311 9467,16295 9493,16278 9517,16259 9537,16239 9553,16216 9565,16192 9572,16166 9575,16138 9752,17416 9748,17462 9738,17506 9721,17546 9699,17584 9671,17618 9638,17650 9600,17678 9559,17703 9465,17745 9360,17775 9248,17793 9133,17799 9018,17793 8906,17775 8801,17745 8707,17703 8666,17678 8628,17650 8595,17618 8567,17584 8545,17546 8528,17506 8518,17462 8514,17416 8554,17126 9375,17126 Z M 8690,16144 L 8691,16138 8692,16144 8690,16144 Z M 8693,16154 L 8694,16166 8701,16192 8713,16216 8729,16239 8749,16259 8773,16278 8799,16295 8829,16311 8896,16336 8971,16354 9051,16365 9133,16368 9215,16365 9295,16354 9365,16337 9365,17116 8556,17116 8689,16154 8693,16154 Z"/>
     <path fill="rgb(94,94,94)" stroke="none" d="M 9365,17116 L 9365,16337 9370,16336 9437,16311 9467,16295 9493,16278 9517,16259 9537,16239 9553,16216 9565,16192 9572,16166 9575,16138 9752,17416 9748,17462 9738,17506 9721,17546 9699,17584 9671,17618 9638,17650 9600,17678 9559,17703 9465,17745 9360,17775 9248,17793 9133,17799 9018,17793 8906,17775 8801,17745 8707,17703 8666,17678 8628,17650 8595,17618 8567,17584 8545,17546 8528,17506 8518,17462 8514,17416 8556,17116 9365,17116 Z M 8689,16154 L 8691,16138 8693,16154 8689,16154 Z M 8694,16164 L 8694,16166 8701,16192 8713,16216 8729,16239 8749,16259 8773,16278 8799,16295 8829,16311 8896,16336 8971,16354 9051,16365 9133,16368 9215,16365 9295,16354 9355,16340 9355,17106 8557,17106 8687,16164 8694,16164 Z"/>
     <path fill="rgb(95,95,95)" stroke="none" d="M 9355,17106 L 9355,16340 9370,16336 9437,16311 9467,16295 9493,16278 9517,16259 9537,16239 9553,16216 9565,16192 9572,16166 9575,16138 9752,17416 9748,17462 9738,17506 9721,17546 9699,17584 9671,17618 9638,17650 9600,17678 9559,17703 9465,17745 9360,17775 9248,17793 9133,17799 9018,17793 8906,17775 8801,17745 8707,17703 8666,17678 8628,17650 8595,17618 8567,17584 8545,17546 8528,17506 8518,17462 8514,17416 8557,17106 9355,17106 Z M 8687,16164 L 8691,16138 8694,16164 8687,16164 Z M 8696,16174 L 8701,16192 8713,16216 8729,16239 8749,16259 8773,16278 8799,16295 8829,16311 8896,16336 8971,16354 9051,16365 9133,16368 9215,16365 9295,16354 9345,16342 9345,17096 8558,17096 8686,16174 8696,16174 Z"/>
     <path fill="rgb(96,96,96)" stroke="none" d="M 9345,17096 L 9345,16342 9370,16336 9437,16311 9467,16295 9493,16278 9517,16259 9537,16239 9553,16216 9565,16192 9572,16166 9575,16138 9752,17416 9748,17462 9738,17506 9721,17546 9699,17584 9671,17618 9638,17650 9600,17678 9559,17703 9465,17745 9360,17775 9248,17793 9133,17799 9018,17793 8906,17775 8801,17745 8707,17703 8666,17678 8628,17650 8595,17618 8567,17584 8545,17546 8528,17506 8518,17462 8514,17416 8558,17096 9345,17096 Z M 8686,16174 L 8691,16138 8694,16166 8696,16174 8686,16174 Z M 8699,16184 L 8701,16192 8713,16216 8729,16239 8749,16259 8773,16278 8799,16295 8829,16311 8896,16336 8971,16354 9051,16365 9133,16368 9215,16365 9295,16354 9335,16344 9335,17086 8560,17086 8685,16184 8699,16184 Z"/>
     <path fill="rgb(97,97,97)" stroke="none" d="M 9335,17086 L 9335,16344 9370,16336 9437,16311 9467,16295 9493,16278 9517,16259 9537,16239 9553,16216 9565,16192 9572,16166 9575,16138 9752,17416 9748,17462 9738,17506 9721,17546 9699,17584 9671,17618 9638,17650 9600,17678 9559,17703 9465,17745 9360,17775 9248,17793 9133,17799 9018,17793 8906,17775 8801,17745 8707,17703 8666,17678 8628,17650 8595,17618 8567,17584 8545,17546 8528,17506 8518,17462 8514,17416 8560,17086 9335,17086 Z M 8685,16184 L 8691,16138 8694,16166 8699,16184 8685,16184 Z M 8702,16194 L 8713,16216 8729,16239 8749,16259 8773,16278 8799,16295 8829,16311 8896,16336 8971,16354 9051,16365 9133,16368 9215,16365 9295,16354 9325,16347 9325,17076 8561,17076 8683,16194 8702,16194 Z"/>
     <path fill="rgb(98,98,98)" stroke="none" d="M 9325,17076 L 9325,16347 9370,16336 9437,16311 9467,16295 9493,16278 9517,16259 9537,16239 9553,16216 9565,16192 9572,16166 9575,16138 9752,17416 9748,17462 9738,17506 9721,17546 9699,17584 9671,17618 9638,17650 9600,17678 9559,17703 9465,17745 9360,17775 9248,17793 9133,17799 9018,17793 8906,17775 8801,17745 8707,17703 8666,17678 8628,17650 8595,17618 8567,17584 8545,17546 8528,17506 8518,17462 8514,17416 8561,17076 9325,17076 Z M 8683,16194 L 8691,16138 8694,16166 8701,16192 8702,16194 8683,16194 Z M 8707,16204 L 8713,16216 8729,16239 8749,16259 8773,16278 8799,16295 8829,16311 8896,16336 8971,16354 9051,16365 9133,16368 9215,16365 9295,16354 9315,16349 9315,17066 8562,17066 8682,16204 8707,16204 Z"/>
     <path fill="rgb(100,100,100)" stroke="none" d="M 9315,17066 L 9315,16349 9370,16336 9437,16311 9467,16295 9493,16278 9517,16259 9537,16239 9553,16216 9565,16192 9572,16166 9575,16138 9752,17416 9748,17462 9738,17506 9721,17546 9699,17584 9671,17618 9638,17650 9600,17678 9559,17703 9465,17745 9360,17775 9248,17793 9133,17799 9018,17793 8906,17775 8801,17745 8707,17703 8666,17678 8628,17650 8595,17618 8567,17584 8545,17546 8528,17506 8518,17462 8514,17416 8562,17066 9315,17066 Z M 8682,16204 L 8691,16138 8694,16166 8701,16192 8707,16204 8682,16204 Z M 8712,16214 L 8713,16216 8729,16239 8749,16259 8773,16278 8799,16295 8829,16311 8896,16336 8971,16354 9051,16365 9133,16368 9215,16365 9295,16354 9305,16352 9305,17056 8564,17056 8680,16214 8712,16214 Z"/>
     <path fill="rgb(101,101,101)" stroke="none" d="M 9305,17056 L 9305,16352 9370,16336 9437,16311 9467,16295 9493,16278 9517,16259 9537,16239 9553,16216 9565,16192 9572,16166 9575,16138 9752,17416 9748,17462 9738,17506 9721,17546 9699,17584 9671,17618 9638,17650 9600,17678 9559,17703 9465,17745 9360,17775 9248,17793 9133,17799 9018,17793 8906,17775 8801,17745 8707,17703 8666,17678 8628,17650 8595,17618 8567,17584 8545,17546 8528,17506 8518,17462 8514,17416 8564,17056 9305,17056 Z M 8680,16214 L 8691,16138 8694,16166 8701,16192 8712,16214 8680,16214 Z M 8719,16225 L 8729,16239 8749,16259 8773,16278 8799,16295 8829,16311 8896,16336 8971,16354 9051,16365 9133,16368 9215,16365 9294,16354 9294,17045 8565,17045 8679,16225 8719,16225 Z"/>
     <path fill="rgb(102,102,102)" stroke="none" d="M 9294,17045 L 9294,16354 9295,16354 9370,16336 9437,16311 9467,16295 9493,16278 9517,16259 9537,16239 9553,16216 9565,16192 9572,16166 9575,16138 9752,17416 9748,17462 9738,17506 9721,17546 9699,17584 9671,17618 9638,17650 9600,17678 9559,17703 9465,17745 9360,17775 9248,17793 9133,17799 9018,17793 8906,17775 8801,17745 8707,17703 8666,17678 8628,17650 8595,17618 8567,17584 8545,17546 8528,17506 8518,17462 8514,17416 8565,17045 9294,17045 Z M 8679,16225 L 8691,16138 8694,16166 8701,16192 8713,16216 8719,16225 8679,16225 Z M 8726,16235 L 8729,16239 8749,16259 8773,16278 8799,16295 8829,16311 8896,16336 8971,16354 9051,16365 9133,16368 9215,16365 9284,16356 9284,17035 8567,17035 8678,16235 8726,16235 Z"/>
     <path fill="rgb(103,103,103)" stroke="none" d="M 9284,17035 L 9284,16356 9295,16354 9370,16336 9437,16311 9467,16295 9493,16278 9517,16259 9537,16239 9553,16216 9565,16192 9572,16166 9575,16138 9752,17416 9748,17462 9738,17506 9721,17546 9699,17584 9671,17618 9638,17650 9600,17678 9559,17703 9465,17745 9360,17775 9248,17793 9133,17799 9018,17793 8906,17775 8801,17745 8707,17703 8666,17678 8628,17650 8595,17618 8567,17584 8545,17546 8528,17506 8518,17462 8514,17416 8567,17035 9284,17035 Z M 8678,16235 L 8691,16138 8694,16166 8701,16192 8713,16216 8726,16235 8678,16235 Z M 8735,16245 L 8749,16259 8773,16278 8799,16295 8829,16311 8896,16336 8971,16354 9051,16365 9133,16368 9215,16365 9274,16357 9274,17025 8568,17025 8676,16245 8735,16245 Z"/>
     <path fill="rgb(105,105,105)" stroke="none" d="M 9274,17025 L 9274,16357 9295,16354 9370,16336 9437,16311 9467,16295 9493,16278 9517,16259 9537,16239 9553,16216 9565,16192 9572,16166 9575,16138 9752,17416 9748,17462 9738,17506 9721,17546 9699,17584 9671,17618 9638,17650 9600,17678 9559,17703 9465,17745 9360,17775 9248,17793 9133,17799 9018,17793 8906,17775 8801,17745 8707,17703 8666,17678 8628,17650 8595,17618 8567,17584 8545,17546 8528,17506 8518,17462 8514,17416 8568,17025 9274,17025 Z M 8676,16245 L 8691,16138 8694,16166 8701,16192 8713,16216 8729,16239 8735,16245 8676,16245 Z M 8745,16255 L 8749,16259 8773,16278 8799,16295 8829,16311 8896,16336 8971,16354 9051,16365 9133,16368 9215,16365 9264,16358 9264,17015 8570,17015 8675,16255 8745,16255 Z"/>
     <path fill="rgb(106,106,106)" stroke="none" d="M 9264,17015 L 9264,16358 9295,16354 9370,16336 9437,16311 9467,16295 9493,16278 9517,16259 9537,16239 9553,16216 9565,16192 9572,16166 9575,16138 9752,17416 9748,17462 9738,17506 9721,17546 9699,17584 9671,17618 9638,17650 9600,17678 9559,17703 9465,17745 9360,17775 9248,17793 9133,17799 9018,17793 8906,17775 8801,17745 8707,17703 8666,17678 8628,17650 8595,17618 8567,17584 8545,17546 8528,17506 8518,17462 8514,17416 8570,17015 9264,17015 Z M 8675,16255 L 8691,16138 8694,16166 8701,16192 8713,16216 8729,16239 8745,16255 8675,16255 Z M 8757,16265 L 8773,16278 8799,16295 8829,16311 8896,16336 8971,16354 9051,16365 9133,16368 9215,16365 9254,16360 9254,17005 8571,17005 8673,16265 8757,16265 Z"/>
     <path fill="rgb(107,107,107)" stroke="none" d="M 9254,17005 L 9254,16360 9295,16354 9370,16336 9437,16311 9467,16295 9493,16278 9517,16259 9537,16239 9553,16216 9565,16192 9572,16166 9575,16138 9752,17416 9748,17462 9738,17506 9721,17546 9699,17584 9671,17618 9638,17650 9600,17678 9559,17703 9465,17745 9360,17775 9248,17793 9133,17799 9018,17793 8906,17775 8801,17745 8707,17703 8666,17678 8628,17650 8595,17618 8567,17584 8545,17546 8528,17506 8518,17462 8514,17416 8571,17005 9254,17005 Z M 8673,16265 L 8691,16138 8694,16166 8701,16192 8713,16216 8729,16239 8749,16259 8757,16265 8673,16265 Z M 8769,16275 L 8773,16278 8799,16295 8829,16311 8896,16336 8971,16354 9051,16365 9133,16368 9215,16365 9244,16361 9244,16995 8572,16995 8672,16275 8769,16275 Z"/>
     <path fill="rgb(108,108,108)" stroke="none" d="M 9244,16995 L 9244,16361 9295,16354 9370,16336 9437,16311 9467,16295 9493,16278 9517,16259 9537,16239 9553,16216 9565,16192 9572,16166 9575,16138 9752,17416 9748,17462 9738,17506 9721,17546 9699,17584 9671,17618 9638,17650 9600,17678 9559,17703 9465,17745 9360,17775 9248,17793 9133,17799 9018,17793 8906,17775 8801,17745 8707,17703 8666,17678 8628,17650 8595,17618 8567,17584 8545,17546 8528,17506 8518,17462 8514,17416 8572,16995 9244,16995 Z M 8672,16275 L 8691,16138 8694,16166 8701,16192 8713,16216 8729,16239 8749,16259 8769,16275 8672,16275 Z M 8784,16285 L 8799,16295 8829,16311 8896,16336 8971,16354 9051,16365 9133,16368 9215,16365 9234,16362 9234,16985 8574,16985 8671,16285 8784,16285 Z"/>
     <path fill="rgb(109,109,109)" stroke="none" d="M 9234,16985 L 9234,16362 9295,16354 9370,16336 9437,16311 9467,16295 9493,16278 9517,16259 9537,16239 9553,16216 9565,16192 9572,16166 9575,16138 9752,17416 9748,17462 9738,17506 9721,17546 9699,17584 9671,17618 9638,17650 9600,17678 9559,17703 9465,17745 9360,17775 9248,17793 9133,17799 9018,17793 8906,17775 8801,17745 8707,17703 8666,17678 8628,17650 8595,17618 8567,17584 8545,17546 8528,17506 8518,17462 8514,17416 8574,16985 9234,16985 Z M 8671,16285 L 8691,16138 8694,16166 8701,16192 8713,16216 8729,16239 8749,16259 8773,16278 8784,16285 8671,16285 Z M 8799,16295 L 8829,16311 8896,16336 8971,16354 9051,16365 9133,16368 9215,16365 9224,16364 9224,16975 8575,16975 8669,16295 8799,16295 Z"/>
     <path fill="rgb(111,111,111)" stroke="none" d="M 9224,16975 L 9224,16364 9295,16354 9370,16336 9437,16311 9467,16295 9493,16278 9517,16259 9537,16239 9553,16216 9565,16192 9572,16166 9575,16138 9752,17416 9748,17462 9738,17506 9721,17546 9699,17584 9671,17618 9638,17650 9600,17678 9559,17703 9465,17745 9360,17775 9248,17793 9133,17799 9018,17793 8906,17775 8801,17745 8707,17703 8666,17678 8628,17650 8595,17618 8567,17584 8545,17546 8528,17506 8518,17462 8514,17416 8575,16975 9224,16975 Z M 8669,16295 L 8691,16138 8694,16166 8701,16192 8713,16216 8729,16239 8749,16259 8773,16278 8799,16295 8669,16295 Z M 8818,16305 L 8829,16311 8896,16336 8971,16354 9051,16365 9133,16368 9214,16365 9214,16965 8576,16965 8668,16305 8818,16305 Z"/>
     <path fill="rgb(112,112,112)" stroke="none" d="M 9214,16965 L 9214,16365 9215,16365 9295,16354 9370,16336 9437,16311 9467,16295 9493,16278 9517,16259 9537,16239 9553,16216 9565,16192 9572,16166 9575,16138 9752,17416 9748,17462 9738,17506 9721,17546 9699,17584 9671,17618 9638,17650 9600,17678 9559,17703 9465,17745 9360,17775 9248,17793 9133,17799 9018,17793 8906,17775 8801,17745 8707,17703 8666,17678 8628,17650 8595,17618 8567,17584 8545,17546 8528,17506 8518,17462 8514,17416 8576,16965 9214,16965 Z M 8668,16305 L 8691,16138 8694,16166 8701,16192 8713,16216 8729,16239 8749,16259 8773,16278 8799,16295 8818,16305 8668,16305 Z M 8840,16315 L 8896,16336 8971,16354 9051,16365 9133,16368 9204,16365 9204,16955 8578,16955 8666,16315 8840,16315 Z"/>
     <path fill="rgb(113,113,113)" stroke="none" d="M 9204,16955 L 9204,16365 9215,16365 9295,16354 9370,16336 9437,16311 9467,16295 9493,16278 9517,16259 9537,16239 9553,16216 9565,16192 9572,16166 9575,16138 9752,17416 9748,17462 9738,17506 9721,17546 9699,17584 9671,17618 9638,17650 9600,17678 9559,17703 9465,17745 9360,17775 9248,17793 9133,17799 9018,17793 8906,17775 8801,17745 8707,17703 8666,17678 8628,17650 8595,17618 8567,17584 8545,17546 8528,17506 8518,17462 8514,17416 8578,16955 9204,16955 Z M 8666,16315 L 8691,16138 8694,16166 8701,16192 8713,16216 8729,16239 8749,16259 8773,16278 8799,16295 8829,16311 8840,16315 8666,16315 Z M 8867,16325 L 8896,16336 8971,16354 9051,16365 9133,16368 9194,16366 9194,16945 8579,16945 8665,16325 8867,16325 Z"/>
     <path fill="rgb(114,114,114)" stroke="none" d="M 9194,16945 L 9194,16366 9215,16365 9295,16354 9370,16336 9437,16311 9467,16295 9493,16278 9517,16259 9537,16239 9553,16216 9565,16192 9572,16166 9575,16138 9752,17416 9748,17462 9738,17506 9721,17546 9699,17584 9671,17618 9638,17650 9600,17678 9559,17703 9465,17745 9360,17775 9248,17793 9133,17799 9018,17793 8906,17775 8801,17745 8707,17703 8666,17678 8628,17650 8595,17618 8567,17584 8545,17546 8528,17506 8518,17462 8514,17416 8579,16945 9194,16945 Z M 8665,16325 L 8691,16138 8694,16166 8701,16192 8713,16216 8729,16239 8749,16259 8773,16278 8799,16295 8829,16311 8867,16325 8665,16325 Z M 8893,16335 L 8896,16336 8971,16354 9051,16365 9133,16368 9184,16366 9184,16935 8584,16935 8584,16911 8664,16335 8893,16335 Z"/>
     <path fill="rgb(116,116,116)" stroke="none" d="M 8584,16935 L 9184,16935 9184,16366 9215,16365 9295,16354 9370,16336 9437,16311 9467,16295 9493,16278 9517,16259 9537,16239 9553,16216 9565,16192 9572,16166 9575,16138 9752,17416 9748,17462 9738,17506 9721,17546 9699,17584 9671,17618 9638,17650 9600,17678 9559,17703 9465,17745 9360,17775 9248,17793 9133,17799 9018,17793 8906,17775 8801,17745 8707,17703 8666,17678 8628,17650 8595,17618 8567,17584 8545,17546 8528,17506 8518,17462 8514,17416 8584,16911 8584,16935 Z M 8664,16335 L 8691,16138 8694,16166 8701,16192 8713,16216 8729,16239 8749,16259 8773,16278 8799,16295 8829,16311 8893,16335 8664,16335 Z M 8934,16345 L 8971,16354 9051,16365 9133,16368 9174,16367 9174,16925 8594,16925 8594,16838 8662,16345 8934,16345 Z"/>
     <path fill="rgb(117,117,117)" stroke="none" d="M 8594,16925 L 9174,16925 9174,16367 9215,16365 9295,16354 9370,16336 9437,16311 9467,16295 9493,16278 9517,16259 9537,16239 9553,16216 9565,16192 9572,16166 9575,16138 9752,17416 9748,17462 9738,17506 9721,17546 9699,17584 9671,17618 9638,17650 9600,17678 9559,17703 9465,17745 9360,17775 9248,17793 9133,17799 9018,17793 8906,17775 8801,17745 8707,17703 8666,17678 8628,17650 8595,17618 8567,17584 8545,17546 8528,17506 8518,17462 8514,17416 8594,16838 8594,16925 Z M 8662,16345 L 8691,16138 8694,16166 8701,16192 8713,16216 8729,16239 8749,16259 8773,16278 8799,16295 8829,16311 8896,16336 8934,16345 8662,16345 Z M 8978,16355 L 9051,16365 9133,16368 9164,16367 9164,16915 8604,16915 8604,16766 8661,16355 8978,16355 Z"/>
     <path fill="rgb(118,118,118)" stroke="none" d="M 8604,16915 L 9164,16915 9164,16367 9215,16365 9295,16354 9370,16336 9437,16311 9467,16295 9493,16278 9517,16259 9537,16239 9553,16216 9565,16192 9572,16166 9575,16138 9752,17416 9748,17462 9738,17506 9721,17546 9699,17584 9671,17618 9638,17650 9600,17678 9559,17703 9465,17745 9360,17775 9248,17793 9133,17799 9018,17793 8906,17775 8801,17745 8707,17703 8666,17678 8628,17650 8595,17618 8567,17584 8545,17546 8528,17506 8518,17462 8514,17416 8604,16766 8604,16915 Z M 8661,16355 L 8691,16138 8694,16166 8701,16192 8713,16216 8729,16239 8749,16259 8773,16278 8799,16295 8829,16311 8896,16336 8971,16354 8978,16355 8661,16355 Z M 9051,16365 L 9133,16368 9154,16367 9154,16905 8614,16905 8614,16694 8660,16365 9051,16365 Z"/>
     <path fill="rgb(119,119,119)" stroke="none" d="M 8614,16905 L 9154,16905 9154,16367 9215,16365 9295,16354 9370,16336 9437,16311 9467,16295 9493,16278 9517,16259 9537,16239 9553,16216 9565,16192 9572,16166 9575,16138 9752,17416 9748,17462 9738,17506 9721,17546 9699,17584 9671,17618 9638,17650 9600,17678 9559,17703 9465,17745 9360,17775 9248,17793 9133,17799 9018,17793 8906,17775 8801,17745 8707,17703 8666,17678 8628,17650 8595,17618 8567,17584 8545,17546 8528,17506 8518,17462 8514,17416 8614,16694 8614,16905 Z M 8660,16365 L 8691,16138 8694,16166 8701,16192 8713,16216 8729,16239 8749,16259 8773,16278 8799,16295 8829,16311 8896,16336 8971,16354 9051,16365 8660,16365 Z M 9144,16375 L 9144,16895 8624,16895 8624,16622 8658,16375 9144,16375 Z"/>
     <path fill="rgb(121,121,121)" stroke="none" d="M 8624,16895 L 9144,16895 9144,16375 8658,16375 8691,16138 8694,16166 8701,16192 8713,16216 8729,16239 8749,16259 8773,16278 8799,16295 8829,16311 8896,16336 8971,16354 9051,16365 9133,16368 9215,16365 9295,16354 9370,16336 9437,16311 9467,16295 9493,16278 9517,16259 9537,16239 9553,16216 9565,16192 9572,16166 9575,16138 9752,17416 9748,17462 9738,17506 9721,17546 9699,17584 9671,17618 9638,17650 9600,17678 9559,17703 9465,17745 9360,17775 9248,17793 9133,17799 9018,17793 8906,17775 8801,17745 8707,17703 8666,17678 8628,17650 8595,17618 8567,17584 8545,17546 8528,17506 8518,17462 8514,17416 8624,16622 8624,16895 Z M 9134,16385 L 9134,16885 8634,16885 8634,16550 8657,16385 9134,16385 Z"/>
     <path fill="rgb(122,122,122)" stroke="none" d="M 8634,16885 L 9134,16885 9134,16385 8657,16385 8691,16138 8694,16166 8701,16192 8713,16216 8729,16239 8749,16259 8773,16278 8799,16295 8829,16311 8896,16336 8971,16354 9051,16365 9133,16368 9215,16365 9295,16354 9370,16336 9437,16311 9467,16295 9493,16278 9517,16259 9537,16239 9553,16216 9565,16192 9572,16166 9575,16138 9752,17416 9748,17462 9738,17506 9721,17546 9699,17584 9671,17618 9638,17650 9600,17678 9559,17703 9465,17745 9360,17775 9248,17793 9133,17799 9018,17793 8906,17775 8801,17745 8707,17703 8666,17678 8628,17650 8595,17618 8567,17584 8545,17546 8528,17506 8518,17462 8514,17416 8634,16550 8634,16885 Z M 9124,16395 L 9124,16875 8644,16875 8644,16477 8655,16395 9124,16395 Z"/>
     <path fill="rgb(123,123,123)" stroke="none" d="M 8644,16875 L 9124,16875 9124,16395 8655,16395 8691,16138 8694,16166 8701,16192 8713,16216 8729,16239 8749,16259 8773,16278 8799,16295 8829,16311 8896,16336 8971,16354 9051,16365 9133,16368 9215,16365 9295,16354 9370,16336 9437,16311 9467,16295 9493,16278 9517,16259 9537,16239 9553,16216 9565,16192 9572,16166 9575,16138 9752,17416 9748,17462 9738,17506 9721,17546 9699,17584 9671,17618 9638,17650 9600,17678 9559,17703 9465,17745 9360,17775 9248,17793 9133,17799 9018,17793 8906,17775 8801,17745 8707,17703 8666,17678 8628,17650 8595,17618 8567,17584 8545,17546 8528,17506 8518,17462 8514,17416 8644,16477 8644,16875 Z M 9114,16405 L 9114,16865 8654,16865 8654,16405 8654,16405 9114,16405 Z"/>
     <path fill="rgb(124,124,124)" stroke="none" d="M 8654,16865 L 9114,16865 9114,16405 8654,16405 8691,16138 8694,16166 8701,16192 8713,16216 8729,16239 8749,16259 8773,16278 8799,16295 8829,16311 8896,16336 8971,16354 9051,16365 9133,16368 9215,16365 9295,16354 9370,16336 9437,16311 9467,16295 9493,16278 9517,16259 9537,16239 9553,16216 9565,16192 9572,16166 9575,16138 9752,17416 9748,17462 9738,17506 9721,17546 9699,17584 9671,17618 9638,17650 9600,17678 9559,17703 9465,17745 9360,17775 9248,17793 9133,17799 9018,17793 8906,17775 8801,17745 8707,17703 8666,17678 8628,17650 8595,17618 8567,17584 8545,17546 8528,17506 8518,17462 8514,17416 8654,16405 8654,16865 Z M 8664,16415 L 9104,16415 9104,16855 8664,16855 8664,16415 Z"/>
     <path fill="rgb(125,125,125)" stroke="none" d="M 8664,16415 L 8664,16855 9104,16855 9104,16415 8664,16415 Z M 8674,16425 L 9094,16425 9094,16845 8674,16845 8674,16425 Z M 8514,17416 L 8691,16138 8694,16166 8701,16192 8713,16216 8729,16239 8749,16259 8773,16278 8799,16295 8829,16311 8896,16336 8971,16354 9051,16365 9133,16368 9215,16365 9295,16354 9370,16336 9437,16311 9467,16295 9493,16278 9517,16259 9537,16239 9553,16216 9565,16192 9572,16166 9575,16138 9752,17416 9748,17462 9738,17506 9721,17546 9699,17584 9671,17618 9638,17650 9600,17678 9559,17703 9465,17745 9360,17775 9248,17793 9133,17799 9018,17793 8906,17775 8801,17745 8707,17703 8666,17678 8628,17650 8595,17618 8567,17584 8545,17546 8528,17506 8518,17462 8514,17416 Z"/>
     <path fill="rgb(127,127,127)" stroke="none" d="M 8674,16425 L 8674,16845 9094,16845 9094,16425 8674,16425 Z M 8684,16435 L 9084,16435 9084,16835 8684,16835 8684,16435 Z M 8514,17416 L 8691,16138 8694,16166 8701,16192 8713,16216 8729,16239 8749,16259 8773,16278 8799,16295 8829,16311 8896,16336 8971,16354 9051,16365 9133,16368 9215,16365 9295,16354 9370,16336 9437,16311 9467,16295 9493,16278 9517,16259 9537,16239 9553,16216 9565,16192 9572,16166 9575,16138 9752,17416 9748,17462 9738,17506 9721,17546 9699,17584 9671,17618 9638,17650 9600,17678 9559,17703 9465,17745 9360,17775 9248,17793 9133,17799 9018,17793 8906,17775 8801,17745 8707,17703 8666,17678 8628,17650 8595,17618 8567,17584 8545,17546 8528,17506 8518,17462 8514,17416 Z"/>
     <path fill="rgb(128,128,128)" stroke="none" d="M 8684,16435 L 8684,16835 9084,16835 9084,16435 8684,16435 Z M 8694,16445 L 9074,16445 9074,16825 8694,16825 8694,16445 Z M 8514,17416 L 8691,16138 8694,16166 8701,16192 8713,16216 8729,16239 8749,16259 8773,16278 8799,16295 8829,16311 8896,16336 8971,16354 9051,16365 9133,16368 9215,16365 9295,16354 9370,16336 9437,16311 9467,16295 9493,16278 9517,16259 9537,16239 9553,16216 9565,16192 9572,16166 9575,16138 9752,17416 9748,17462 9738,17506 9721,17546 9699,17584 9671,17618 9638,17650 9600,17678 9559,17703 9465,17745 9360,17775 9248,17793 9133,17799 9018,17793 8906,17775 8801,17745 8707,17703 8666,17678 8628,17650 8595,17618 8567,17584 8545,17546 8528,17506 8518,17462 8514,17416 Z"/>
     <path fill="rgb(129,129,129)" stroke="none" d="M 8694,16445 L 8694,16825 9074,16825 9074,16445 8694,16445 Z M 8704,16455 L 9064,16455 9064,16815 8704,16815 8704,16455 Z M 8514,17416 L 8691,16138 8694,16166 8701,16192 8713,16216 8729,16239 8749,16259 8773,16278 8799,16295 8829,16311 8896,16336 8971,16354 9051,16365 9133,16368 9215,16365 9295,16354 9370,16336 9437,16311 9467,16295 9493,16278 9517,16259 9537,16239 9553,16216 9565,16192 9572,16166 9575,16138 9752,17416 9748,17462 9738,17506 9721,17546 9699,17584 9671,17618 9638,17650 9600,17678 9559,17703 9465,17745 9360,17775 9248,17793 9133,17799 9018,17793 8906,17775 8801,17745 8707,17703 8666,17678 8628,17650 8595,17618 8567,17584 8545,17546 8528,17506 8518,17462 8514,17416 Z"/>
     <path fill="rgb(130,130,130)" stroke="none" d="M 8704,16455 L 8704,16815 9064,16815 9064,16455 8704,16455 Z M 8714,16465 L 9054,16465 9054,16805 8714,16805 8714,16465 Z M 8514,17416 L 8691,16138 8694,16166 8701,16192 8713,16216 8729,16239 8749,16259 8773,16278 8799,16295 8829,16311 8896,16336 8971,16354 9051,16365 9133,16368 9215,16365 9295,16354 9370,16336 9437,16311 9467,16295 9493,16278 9517,16259 9537,16239 9553,16216 9565,16192 9572,16166 9575,16138 9752,17416 9748,17462 9738,17506 9721,17546 9699,17584 9671,17618 9638,17650 9600,17678 9559,17703 9465,17745 9360,17775 9248,17793 9133,17799 9018,17793 8906,17775 8801,17745 8707,17703 8666,17678 8628,17650 8595,17618 8567,17584 8545,17546 8528,17506 8518,17462 8514,17416 Z"/>
     <path fill="rgb(132,132,132)" stroke="none" d="M 8714,16465 L 8714,16805 9054,16805 9054,16465 8714,16465 Z M 8724,16475 L 9044,16475 9044,16795 8724,16795 8724,16475 Z M 8514,17416 L 8691,16138 8694,16166 8701,16192 8713,16216 8729,16239 8749,16259 8773,16278 8799,16295 8829,16311 8896,16336 8971,16354 9051,16365 9133,16368 9215,16365 9295,16354 9370,16336 9437,16311 9467,16295 9493,16278 9517,16259 9537,16239 9553,16216 9565,16192 9572,16166 9575,16138 9752,17416 9748,17462 9738,17506 9721,17546 9699,17584 9671,17618 9638,17650 9600,17678 9559,17703 9465,17745 9360,17775 9248,17793 9133,17799 9018,17793 8906,17775 8801,17745 8707,17703 8666,17678 8628,17650 8595,17618 8567,17584 8545,17546 8528,17506 8518,17462 8514,17416 Z"/>
     <path fill="rgb(133,133,133)" stroke="none" d="M 8724,16475 L 8724,16795 9044,16795 9044,16475 8724,16475 Z M 8734,16485 L 9034,16485 9034,16785 8734,16785 8734,16485 Z M 8514,17416 L 8691,16138 8694,16166 8701,16192 8713,16216 8729,16239 8749,16259 8773,16278 8799,16295 8829,16311 8896,16336 8971,16354 9051,16365 9133,16368 9215,16365 9295,16354 9370,16336 9437,16311 9467,16295 9493,16278 9517,16259 9537,16239 9553,16216 9565,16192 9572,16166 9575,16138 9752,17416 9748,17462 9738,17506 9721,17546 9699,17584 9671,17618 9638,17650 9600,17678 9559,17703 9465,17745 9360,17775 9248,17793 9133,17799 9018,17793 8906,17775 8801,17745 8707,17703 8666,17678 8628,17650 8595,17618 8567,17584 8545,17546 8528,17506 8518,17462 8514,17416 Z"/>
     <path fill="rgb(134,134,134)" stroke="none" d="M 8734,16485 L 8734,16785 9034,16785 9034,16485 8734,16485 Z M 8744,16495 L 9024,16495 9024,16775 8744,16775 8744,16495 Z M 8514,17416 L 8691,16138 8694,16166 8701,16192 8713,16216 8729,16239 8749,16259 8773,16278 8799,16295 8829,16311 8896,16336 8971,16354 9051,16365 9133,16368 9215,16365 9295,16354 9370,16336 9437,16311 9467,16295 9493,16278 9517,16259 9537,16239 9553,16216 9565,16192 9572,16166 9575,16138 9752,17416 9748,17462 9738,17506 9721,17546 9699,17584 9671,17618 9638,17650 9600,17678 9559,17703 9465,17745 9360,17775 9248,17793 9133,17799 9018,17793 8906,17775 8801,17745 8707,17703 8666,17678 8628,17650 8595,17618 8567,17584 8545,17546 8528,17506 8518,17462 8514,17416 Z"/>
     <path fill="rgb(135,135,135)" stroke="none" d="M 8744,16495 L 8744,16775 9024,16775 9024,16495 8744,16495 Z M 8754,16505 L 9014,16505 9014,16765 8754,16765 8754,16505 Z M 8514,17416 L 8691,16138 8694,16166 8701,16192 8713,16216 8729,16239 8749,16259 8773,16278 8799,16295 8829,16311 8896,16336 8971,16354 9051,16365 9133,16368 9215,16365 9295,16354 9370,16336 9437,16311 9467,16295 9493,16278 9517,16259 9537,16239 9553,16216 9565,16192 9572,16166 9575,16138 9752,17416 9748,17462 9738,17506 9721,17546 9699,17584 9671,17618 9638,17650 9600,17678 9559,17703 9465,17745 9360,17775 9248,17793 9133,17799 9018,17793 8906,17775 8801,17745 8707,17703 8666,17678 8628,17650 8595,17618 8567,17584 8545,17546 8528,17506 8518,17462 8514,17416 Z"/>
     <path fill="rgb(137,137,137)" stroke="none" d="M 8754,16505 L 8754,16765 9014,16765 9014,16505 8754,16505 Z M 8764,16515 L 9004,16515 9004,16755 8764,16755 8764,16515 Z M 8514,17416 L 8691,16138 8694,16166 8701,16192 8713,16216 8729,16239 8749,16259 8773,16278 8799,16295 8829,16311 8896,16336 8971,16354 9051,16365 9133,16368 9215,16365 9295,16354 9370,16336 9437,16311 9467,16295 9493,16278 9517,16259 9537,16239 9553,16216 9565,16192 9572,16166 9575,16138 9752,17416 9748,17462 9738,17506 9721,17546 9699,17584 9671,17618 9638,17650 9600,17678 9559,17703 9465,17745 9360,17775 9248,17793 9133,17799 9018,17793 8906,17775 8801,17745 8707,17703 8666,17678 8628,17650 8595,17618 8567,17584 8545,17546 8528,17506 8518,17462 8514,17416 Z"/>
     <path fill="rgb(138,138,138)" stroke="none" d="M 8764,16515 L 8764,16755 9004,16755 9004,16515 8764,16515 Z M 8774,16525 L 8994,16525 8994,16745 8774,16745 8774,16525 Z M 8514,17416 L 8691,16138 8694,16166 8701,16192 8713,16216 8729,16239 8749,16259 8773,16278 8799,16295 8829,16311 8896,16336 8971,16354 9051,16365 9133,16368 9215,16365 9295,16354 9370,16336 9437,16311 9467,16295 9493,16278 9517,16259 9537,16239 9553,16216 9565,16192 9572,16166 9575,16138 9752,17416 9748,17462 9738,17506 9721,17546 9699,17584 9671,17618 9638,17650 9600,17678 9559,17703 9465,17745 9360,17775 9248,17793 9133,17799 9018,17793 8906,17775 8801,17745 8707,17703 8666,17678 8628,17650 8595,17618 8567,17584 8545,17546 8528,17506 8518,17462 8514,17416 Z"/>
     <path fill="rgb(139,139,139)" stroke="none" d="M 8774,16525 L 8774,16745 8994,16745 8994,16525 8774,16525 Z M 8784,16535 L 8984,16535 8984,16735 8784,16735 8784,16535 Z M 8514,17416 L 8691,16138 8694,16166 8701,16192 8713,16216 8729,16239 8749,16259 8773,16278 8799,16295 8829,16311 8896,16336 8971,16354 9051,16365 9133,16368 9215,16365 9295,16354 9370,16336 9437,16311 9467,16295 9493,16278 9517,16259 9537,16239 9553,16216 9565,16192 9572,16166 9575,16138 9752,17416 9748,17462 9738,17506 9721,17546 9699,17584 9671,17618 9638,17650 9600,17678 9559,17703 9465,17745 9360,17775 9248,17793 9133,17799 9018,17793 8906,17775 8801,17745 8707,17703 8666,17678 8628,17650 8595,17618 8567,17584 8545,17546 8528,17506 8518,17462 8514,17416 Z"/>
     <path fill="rgb(140,140,140)" stroke="none" d="M 8784,16535 L 8784,16735 8984,16735 8984,16535 8784,16535 Z M 8794,16545 L 8974,16545 8974,16725 8794,16725 8794,16545 Z M 8514,17416 L 8691,16138 8694,16166 8701,16192 8713,16216 8729,16239 8749,16259 8773,16278 8799,16295 8829,16311 8896,16336 8971,16354 9051,16365 9133,16368 9215,16365 9295,16354 9370,16336 9437,16311 9467,16295 9493,16278 9517,16259 9537,16239 9553,16216 9565,16192 9572,16166 9575,16138 9752,17416 9748,17462 9738,17506 9721,17546 9699,17584 9671,17618 9638,17650 9600,17678 9559,17703 9465,17745 9360,17775 9248,17793 9133,17799 9018,17793 8906,17775 8801,17745 8707,17703 8666,17678 8628,17650 8595,17618 8567,17584 8545,17546 8528,17506 8518,17462 8514,17416 Z"/>
     <path fill="rgb(141,141,141)" stroke="none" d="M 8794,16545 L 8794,16725 8974,16725 8974,16545 8794,16545 Z M 8804,16555 L 8964,16555 8964,16715 8804,16715 8804,16555 Z M 8514,17416 L 8691,16138 8694,16166 8701,16192 8713,16216 8729,16239 8749,16259 8773,16278 8799,16295 8829,16311 8896,16336 8971,16354 9051,16365 9133,16368 9215,16365 9295,16354 9370,16336 9437,16311 9467,16295 9493,16278 9517,16259 9537,16239 9553,16216 9565,16192 9572,16166 9575,16138 9752,17416 9748,17462 9738,17506 9721,17546 9699,17584 9671,17618 9638,17650 9600,17678 9559,17703 9465,17745 9360,17775 9248,17793 9133,17799 9018,17793 8906,17775 8801,17745 8707,17703 8666,17678 8628,17650 8595,17618 8567,17584 8545,17546 8528,17506 8518,17462 8514,17416 Z"/>
     <path fill="rgb(143,143,143)" stroke="none" d="M 8804,16555 L 8804,16715 8964,16715 8964,16555 8804,16555 Z M 8814,16565 L 8954,16565 8954,16705 8814,16705 8814,16565 Z M 8514,17416 L 8691,16138 8694,16166 8701,16192 8713,16216 8729,16239 8749,16259 8773,16278 8799,16295 8829,16311 8896,16336 8971,16354 9051,16365 9133,16368 9215,16365 9295,16354 9370,16336 9437,16311 9467,16295 9493,16278 9517,16259 9537,16239 9553,16216 9565,16192 9572,16166 9575,16138 9752,17416 9748,17462 9738,17506 9721,17546 9699,17584 9671,17618 9638,17650 9600,17678 9559,17703 9465,17745 9360,17775 9248,17793 9133,17799 9018,17793 8906,17775 8801,17745 8707,17703 8666,17678 8628,17650 8595,17618 8567,17584 8545,17546 8528,17506 8518,17462 8514,17416 Z"/>
     <path fill="rgb(144,144,144)" stroke="none" d="M 8814,16565 L 8814,16705 8954,16705 8954,16565 8814,16565 Z M 8824,16575 L 8944,16575 8944,16695 8824,16695 8824,16575 Z M 8514,17416 L 8691,16138 8694,16166 8701,16192 8713,16216 8729,16239 8749,16259 8773,16278 8799,16295 8829,16311 8896,16336 8971,16354 9051,16365 9133,16368 9215,16365 9295,16354 9370,16336 9437,16311 9467,16295 9493,16278 9517,16259 9537,16239 9553,16216 9565,16192 9572,16166 9575,16138 9752,17416 9748,17462 9738,17506 9721,17546 9699,17584 9671,17618 9638,17650 9600,17678 9559,17703 9465,17745 9360,17775 9248,17793 9133,17799 9018,17793 8906,17775 8801,17745 8707,17703 8666,17678 8628,17650 8595,17618 8567,17584 8545,17546 8528,17506 8518,17462 8514,17416 Z"/>
     <path fill="rgb(145,145,145)" stroke="none" d="M 8824,16575 L 8824,16695 8944,16695 8944,16575 8824,16575 Z M 8834,16585 L 8934,16585 8934,16685 8834,16685 8834,16585 Z M 8514,17416 L 8691,16138 8694,16166 8701,16192 8713,16216 8729,16239 8749,16259 8773,16278 8799,16295 8829,16311 8896,16336 8971,16354 9051,16365 9133,16368 9215,16365 9295,16354 9370,16336 9437,16311 9467,16295 9493,16278 9517,16259 9537,16239 9553,16216 9565,16192 9572,16166 9575,16138 9752,17416 9748,17462 9738,17506 9721,17546 9699,17584 9671,17618 9638,17650 9600,17678 9559,17703 9465,17745 9360,17775 9248,17793 9133,17799 9018,17793 8906,17775 8801,17745 8707,17703 8666,17678 8628,17650 8595,17618 8567,17584 8545,17546 8528,17506 8518,17462 8514,17416 Z"/>
     <path fill="rgb(146,146,146)" stroke="none" d="M 8834,16585 L 8834,16685 8934,16685 8934,16585 8834,16585 Z M 8844,16595 L 8924,16595 8924,16675 8844,16675 8844,16595 Z M 8514,17416 L 8691,16138 8694,16166 8701,16192 8713,16216 8729,16239 8749,16259 8773,16278 8799,16295 8829,16311 8896,16336 8971,16354 9051,16365 9133,16368 9215,16365 9295,16354 9370,16336 9437,16311 9467,16295 9493,16278 9517,16259 9537,16239 9553,16216 9565,16192 9572,16166 9575,16138 9752,17416 9748,17462 9738,17506 9721,17546 9699,17584 9671,17618 9638,17650 9600,17678 9559,17703 9465,17745 9360,17775 9248,17793 9133,17799 9018,17793 8906,17775 8801,17745 8707,17703 8666,17678 8628,17650 8595,17618 8567,17584 8545,17546 8528,17506 8518,17462 8514,17416 Z"/>
     <path fill="rgb(148,148,148)" stroke="none" d="M 8844,16595 L 8844,16675 8924,16675 8924,16595 8844,16595 Z M 8854,16605 L 8914,16605 8914,16665 8854,16665 8854,16605 Z M 8514,17416 L 8691,16138 8694,16166 8701,16192 8713,16216 8729,16239 8749,16259 8773,16278 8799,16295 8829,16311 8896,16336 8971,16354 9051,16365 9133,16368 9215,16365 9295,16354 9370,16336 9437,16311 9467,16295 9493,16278 9517,16259 9537,16239 9553,16216 9565,16192 9572,16166 9575,16138 9752,17416 9748,17462 9738,17506 9721,17546 9699,17584 9671,17618 9638,17650 9600,17678 9559,17703 9465,17745 9360,17775 9248,17793 9133,17799 9018,17793 8906,17775 8801,17745 8707,17703 8666,17678 8628,17650 8595,17618 8567,17584 8545,17546 8528,17506 8518,17462 8514,17416 Z"/>
     <path fill="rgb(149,149,149)" stroke="none" d="M 8854,16605 L 8854,16665 8914,16665 8914,16605 8854,16605 Z M 8864,16615 L 8904,16615 8904,16655 8864,16655 8864,16615 Z M 8514,17416 L 8691,16138 8694,16166 8701,16192 8713,16216 8729,16239 8749,16259 8773,16278 8799,16295 8829,16311 8896,16336 8971,16354 9051,16365 9133,16368 9215,16365 9295,16354 9370,16336 9437,16311 9467,16295 9493,16278 9517,16259 9537,16239 9553,16216 9565,16192 9572,16166 9575,16138 9752,17416 9748,17462 9738,17506 9721,17546 9699,17584 9671,17618 9638,17650 9600,17678 9559,17703 9465,17745 9360,17775 9248,17793 9133,17799 9018,17793 8906,17775 8801,17745 8707,17703 8666,17678 8628,17650 8595,17618 8567,17584 8545,17546 8528,17506 8518,17462 8514,17416 Z"/>
     <path fill="rgb(150,150,150)" stroke="none" d="M 8864,16615 L 8864,16655 8904,16655 8904,16615 8864,16615 Z M 8874,16625 L 8894,16625 8894,16645 8874,16645 8874,16625 Z M 8514,17416 L 8691,16138 8694,16166 8701,16192 8713,16216 8729,16239 8749,16259 8773,16278 8799,16295 8829,16311 8896,16336 8971,16354 9051,16365 9133,16368 9215,16365 9295,16354 9370,16336 9437,16311 9467,16295 9493,16278 9517,16259 9537,16239 9553,16216 9565,16192 9572,16166 9575,16138 9752,17416 9748,17462 9738,17506 9721,17546 9699,17584 9671,17618 9638,17650 9600,17678 9559,17703 9465,17745 9360,17775 9248,17793 9133,17799 9018,17793 8906,17775 8801,17745 8707,17703 8666,17678 8628,17650 8595,17618 8567,17584 8545,17546 8528,17506 8518,17462 8514,17416 Z"/>
     <path fill="rgb(153,153,153)" stroke="none" d="M 8874,16625 L 8874,16645 8894,16645 8894,16625 8874,16625 Z M 8514,17416 L 8691,16138 8694,16166 8701,16192 8713,16216 8729,16239 8749,16259 8773,16278 8799,16295 8829,16311 8896,16336 8971,16354 9051,16365 9133,16368 9215,16365 9295,16354 9370,16336 9437,16311 9467,16295 9493,16278 9517,16259 9537,16239 9553,16216 9565,16192 9572,16166 9575,16138 9752,17416 9748,17462 9738,17506 9721,17546 9699,17584 9671,17618 9638,17650 9600,17678 9559,17703 9465,17745 9360,17775 9248,17793 9133,17799 9018,17793 8906,17775 8801,17745 8707,17703 8666,17678 8628,17650 8595,17618 8567,17584 8545,17546 8528,17506 8518,17462 8514,17416 Z"/>
     <path fill="none" stroke="rgb(178,178,178)" id="Drawing_2_0" stroke-width="40" stroke-linejoin="round" d="M 8514,17416 L 8691,16138 C 8691,16445 9575,16445 9575,16138 L 9752,17416 C 9752,17927 8514,17927 8514,17416 Z"/>
    </g>
    <g>
     <defs>
      <linearGradient id="Gradient_1129" gradientUnits="userSpaceOnUse" x1="9133" y1="15883" x2="9133" y2="16394">
       <stop offset="0.1" stop-color="rgb(51,51,51)"/>
       <stop offset="1" stop-color="rgb(153,153,153)"/>
      </linearGradient>
     </defs>
     <path fill="url(#Gradient_1129)" stroke="none" id="Drawing_3_0" d="M 9454,15953 L 9482,15971 9507,15992 9527,16014 9544,16037 9558,16061 9567,16086 9573,16112 9575,16138 9573,16164 9567,16190 9558,16215 9544,16240 9527,16263 9507,16285 9482,16305 9454,16324 9422,16340 9387,16354 9348,16366 9308,16376 9266,16384 9222,16389 9132,16394 9043,16389 8999,16384 8957,16376 8917,16366 8879,16354 8844,16340 8812,16324 8783,16305 8759,16285 8738,16263 8721,16240 8708,16215 8699,16190 8693,16164 8691,16138 8693,16112 8699,16086 8708,16061 8721,16037 8738,16014 8759,15992 8783,15971 8812,15953 8844,15936 8879,15922 8917,15910 8957,15900 9000,15893 9043,15887 9133,15883 9223,15887 9266,15893 9309,15900 9349,15910 9387,15922 9422,15936 9454,15953 Z"/>
     <path fill="none" stroke="rgb(178,178,178)" id="Drawing_3_1" stroke-width="40" stroke-linejoin="round" d="M 9454,15953 C 9615,16046 9615,16231 9454,16324 9293,16417 8972,16417 8812,16324 8651,16231 8651,16046 8812,15953 8973,15860 9294,15860 9454,15953 Z"/>
    </g>
    <g>
     <path fill="none" stroke="rgb(0,0,0)" id="Drawing_4_0" stroke-width="40" stroke-linejoin="round" d="M 8514,17416 L 8691,16139 C 8691,15780 9575,15780 9575,16139 L 9752,17416 C 9752,17927 8514,17927 8514,17416 Z"/>
    </g>
    <g>
     <path fill="rgb(102,102,102)" stroke="none" d="M 9132,16139 L 9132,15167 9044,15065 9132,14963 9221,15065 9132,15167 9132,16139 Z"/>
     <path fill="none" stroke="rgb(0,0,0)" id="Drawing_5_0" stroke-width="40" stroke-linejoin="round" d="M 9132,16139 L 9132,15167 9044,15065 9132,14963 9221,15065 9132,15167 9132,16139 Z"/>
    </g>
    <g>
     <path fill="none" stroke="rgb(51,51,51)" id="Drawing_6_0" stroke-width="40" stroke-linejoin="round" d="M 9221,14861 C 9398,14963 9398,15168 9221,15270"/>
    </g>
    <g>
     <path fill="none" stroke="rgb(51,51,51)" id="Drawing_7_0" stroke-width="40" stroke-linejoin="round" d="M 9044,14861 C 8868,14963 8868,15168 9044,15270"/>
    </g>
    <g>
     <path fill="none" stroke="rgb(51,51,51)" id="Drawing_8_0" stroke-width="40" stroke-linejoin="round" d="M 8867,14809 C 8691,14911 8691,15217 8868,15320"/>
    </g>
    <g>
     <path fill="none" stroke="rgb(51,51,51)" id="Drawing_9_0" stroke-width="40" stroke-linejoin="round" d="M 9398,14809 C 9575,14911 9575,15217 9398,15320"/>
    </g>
    <g>
     <path fill="none" stroke="rgb(51,51,51)" id="Drawing_10_0" stroke-width="40" stroke-linejoin="round" d="M 8690,14707 C 8514,14809 8514,15320 8690,15423"/>
    </g>
    <g>
     <path fill="none" stroke="rgb(51,51,51)" id="Drawing_11_0" stroke-width="40" stroke-linejoin="round" d="M 9575,14707 C 9752,14809 9752,15320 9575,15423"/>
    </g>
    <g>
     <path fill="none" stroke="rgb(51,51,51)" id="Drawing_12_0" stroke-width="40" stroke-linejoin="round" d="M 8514,14605 C 8337,14707 8337,15423 8513,15525"/>
    </g>
    <g>
     <path fill="none" stroke="rgb(51,51,51)" id="Drawing_13_0" stroke-width="40" stroke-linejoin="round" d="M 9752,14605 C 9929,14707 9929,15423 9752,15524"/>
    </g>
   </g>
  </g>
 </g>
</svg>